<?xml version="1.0" encoding="utf-8" standalone="no"?>
<!DOCTYPE svg PUBLIC "-//W3C//DTD SVG 1.1//EN"
  "http://www.w3.org/Graphics/SVG/1.1/DTD/svg11.dtd">
<!-- Created with matplotlib (http://matplotlib.org/) -->
<svg height="432pt" version="1.1" viewBox="0 0 576 432" width="576pt" xmlns="http://www.w3.org/2000/svg" xmlns:xlink="http://www.w3.org/1999/xlink">
 <defs>
  <style type="text/css">
*{stroke-linecap:butt;stroke-linejoin:round;stroke-miterlimit:100000;}
  </style>
 </defs>
 <g id="figure_1">
  <g id="patch_1">
   <path d="M 0 432 
L 576 432 
L 576 0 
L 0 0 
z
" style="fill:#ffffff;"/>
  </g>
  <g id="axes_1">
   <g id="patch_2">
    <path d="M 72 388.8 
L 518.4 388.8 
L 518.4 43.2 
L 72 43.2 
z
" style="fill:#ffffff;"/>
   </g>
   <g id="PathCollection_1">
    <defs>
     <path d="M 0 0.5 
C 0.132602 0.5 0.25979 0.447317 0.353553 0.353553 
C 0.447317 0.25979 0.5 0.132602 0.5 0 
C 0.5 -0.132602 0.447317 -0.25979 0.353553 -0.353553 
C 0.25979 -0.447317 0.132602 -0.5 0 -0.5 
C -0.132602 -0.5 -0.25979 -0.447317 -0.353553 -0.353553 
C -0.447317 -0.25979 -0.5 -0.132602 -0.5 0 
C -0.5 0.132602 -0.447317 0.25979 -0.353553 0.353553 
C -0.25979 0.447317 -0.132602 0.5 0 0.5 
z
" id="mb665b30bd7" style="stroke:#000000;"/>
    </defs>
    <g clip-path="url(#pa39585c2de)">
     <use style="stroke:#000000;" x="322.060534325" xlink:href="#mb665b30bd7" y="216.0"/>
     <use style="stroke:#000000;" x="326.773389019" xlink:href="#mb665b30bd7" y="216.0"/>
     <use style="stroke:#000000;" x="303.065292106" xlink:href="#mb665b30bd7" y="203.29661379"/>
     <use style="stroke:#000000;" x="314.941058427" xlink:href="#mb665b30bd7" y="175.919658266"/>
     <use style="stroke:#000000;" x="325.220887137" xlink:href="#mb665b30bd7" y="164.16"/>
     <use style="stroke:#000000;" x="338.917467689" xlink:href="#mb665b30bd7" y="164.16"/>
     <use style="stroke:#000000;" x="295.2" xlink:href="#mb665b30bd7" y="216.0"/>
     <use style="stroke:#000000;" x="306.736181164" xlink:href="#mb665b30bd7" y="178.50613162"/>
     <use style="stroke:#000000;" x="406.8" xlink:href="#mb665b30bd7" y="216.0"/>
     <use style="stroke:#000000;" x="406.8" xlink:href="#mb665b30bd7" y="164.16"/>
     <use style="stroke:#000000;" x="295.2" xlink:href="#mb665b30bd7" y="216.0"/>
     <use style="stroke:#000000;" x="327.310019971" xlink:href="#mb665b30bd7" y="164.16"/>
     <use style="stroke:#000000;" x="349.187950959" xlink:href="#mb665b30bd7" y="164.16"/>
     <use style="stroke:#000000;" x="295.2" xlink:href="#mb665b30bd7" y="216.0"/>
     <use style="stroke:#000000;" x="307.249124277" xlink:href="#mb665b30bd7" y="216.0"/>
     <use style="stroke:#000000;" x="295.2" xlink:href="#mb665b30bd7" y="216.0"/>
     <use style="stroke:#000000;" x="302.443953678" xlink:href="#mb665b30bd7" y="216.0"/>
     <use style="stroke:#000000;" x="320.434506863" xlink:href="#mb665b30bd7" y="164.16"/>
     <use style="stroke:#000000;" x="354.609169619" xlink:href="#mb665b30bd7" y="181.463171404"/>
     <use style="stroke:#000000;" x="317.420351942" xlink:href="#mb665b30bd7" y="211.615191341"/>
     <use style="stroke:#000000;" x="337.853703776" xlink:href="#mb665b30bd7" y="216.0"/>
     <use style="stroke:#000000;" x="406.8" xlink:href="#mb665b30bd7" y="200.599719426"/>
     <use style="stroke:#000000;" x="295.2" xlink:href="#mb665b30bd7" y="216.0"/>
     <use style="stroke:#000000;" x="295.2" xlink:href="#mb665b30bd7" y="216.0"/>
     <use style="stroke:#000000;" x="327.868173798" xlink:href="#mb665b30bd7" y="216.0"/>
     <use style="stroke:#000000;" x="312.75724251" xlink:href="#mb665b30bd7" y="181.92539756"/>
     <use style="stroke:#000000;" x="347.244364932" xlink:href="#mb665b30bd7" y="190.126628405"/>
     <use style="stroke:#000000;" x="295.2" xlink:href="#mb665b30bd7" y="216.0"/>
     <use style="stroke:#000000;" x="345.087841813" xlink:href="#mb665b30bd7" y="216.0"/>
     <use style="stroke:#000000;" x="324.091525915" xlink:href="#mb665b30bd7" y="164.16"/>
     <use style="stroke:#000000;" x="295.2" xlink:href="#mb665b30bd7" y="216.0"/>
     <use style="stroke:#000000;" x="318.797600988" xlink:href="#mb665b30bd7" y="201.950467664"/>
     <use style="stroke:#000000;" x="330.285851691" xlink:href="#mb665b30bd7" y="164.16"/>
     <use style="stroke:#000000;" x="325.179099204" xlink:href="#mb665b30bd7" y="216.0"/>
     <use style="stroke:#000000;" x="406.8" xlink:href="#mb665b30bd7" y="216.0"/>
     <use style="stroke:#000000;" x="326.512949961" xlink:href="#mb665b30bd7" y="177.710893562"/>
     <use style="stroke:#000000;" x="295.2" xlink:href="#mb665b30bd7" y="216.0"/>
     <use style="stroke:#000000;" x="337.662199536" xlink:href="#mb665b30bd7" y="168.44572679"/>
     <use style="stroke:#000000;" x="317.756135866" xlink:href="#mb665b30bd7" y="208.558169971"/>
     <use style="stroke:#000000;" x="295.2" xlink:href="#mb665b30bd7" y="216.0"/>
     <use style="stroke:#000000;" x="327.784214108" xlink:href="#mb665b30bd7" y="169.823125058"/>
     <use style="stroke:#000000;" x="329.818601198" xlink:href="#mb665b30bd7" y="180.569904473"/>
     <use style="stroke:#000000;" x="320.242938511" xlink:href="#mb665b30bd7" y="165.335119378"/>
     <use style="stroke:#000000;" x="355.582049035" xlink:href="#mb665b30bd7" y="164.16"/>
     <use style="stroke:#000000;" x="339.647481326" xlink:href="#mb665b30bd7" y="164.16"/>
     <use style="stroke:#000000;" x="324.510293744" xlink:href="#mb665b30bd7" y="173.886744985"/>
     <use style="stroke:#000000;" x="315.507782135" xlink:href="#mb665b30bd7" y="216.0"/>
     <use style="stroke:#000000;" x="295.2" xlink:href="#mb665b30bd7" y="216.0"/>
     <use style="stroke:#000000;" x="369.687285973" xlink:href="#mb665b30bd7" y="216.0"/>
     <use style="stroke:#000000;" x="295.2" xlink:href="#mb665b30bd7" y="216.0"/>
     <use style="stroke:#000000;" x="295.2" xlink:href="#mb665b30bd7" y="216.0"/>
     <use style="stroke:#000000;" x="309.41092949" xlink:href="#mb665b30bd7" y="189.340739495"/>
     <use style="stroke:#000000;" x="312.283425304" xlink:href="#mb665b30bd7" y="184.787913641"/>
     <use style="stroke:#000000;" x="357.753658685" xlink:href="#mb665b30bd7" y="216.0"/>
     <use style="stroke:#000000;" x="295.2" xlink:href="#mb665b30bd7" y="216.0"/>
     <use style="stroke:#000000;" x="295.2" xlink:href="#mb665b30bd7" y="216.0"/>
     <use style="stroke:#000000;" x="295.2" xlink:href="#mb665b30bd7" y="216.0"/>
     <use style="stroke:#000000;" x="325.562300512" xlink:href="#mb665b30bd7" y="216.0"/>
     <use style="stroke:#000000;" x="295.2" xlink:href="#mb665b30bd7" y="216.0"/>
     <use style="stroke:#000000;" x="301.951161069" xlink:href="#mb665b30bd7" y="209.0186238"/>
     <use style="stroke:#000000;" x="390.516298741" xlink:href="#mb665b30bd7" y="216.0"/>
     <use style="stroke:#000000;" x="364.012881657" xlink:href="#mb665b30bd7" y="185.414088605"/>
     <use style="stroke:#000000;" x="301.115216917" xlink:href="#mb665b30bd7" y="211.15055236"/>
     <use style="stroke:#000000;" x="306.944375142" xlink:href="#mb665b30bd7" y="199.424552817"/>
     <use style="stroke:#000000;" x="306.737261879" xlink:href="#mb665b30bd7" y="189.92423677"/>
     <use style="stroke:#000000;" x="295.2" xlink:href="#mb665b30bd7" y="216.0"/>
     <use style="stroke:#000000;" x="340.988632921" xlink:href="#mb665b30bd7" y="181.19478425"/>
     <use style="stroke:#000000;" x="381.234201163" xlink:href="#mb665b30bd7" y="166.593486557"/>
     <use style="stroke:#000000;" x="306.017881225" xlink:href="#mb665b30bd7" y="196.436456048"/>
     <use style="stroke:#000000;" x="344.700462718" xlink:href="#mb665b30bd7" y="216.0"/>
     <use style="stroke:#000000;" x="341.002726258" xlink:href="#mb665b30bd7" y="164.16"/>
     <use style="stroke:#000000;" x="406.8" xlink:href="#mb665b30bd7" y="216.0"/>
     <use style="stroke:#000000;" x="312.09981155" xlink:href="#mb665b30bd7" y="171.103112424"/>
     <use style="stroke:#000000;" x="316.46467653" xlink:href="#mb665b30bd7" y="208.425629002"/>
     <use style="stroke:#000000;" x="313.154545655" xlink:href="#mb665b30bd7" y="206.852827765"/>
     <use style="stroke:#000000;" x="316.342091656" xlink:href="#mb665b30bd7" y="172.527743179"/>
     <use style="stroke:#000000;" x="295.2" xlink:href="#mb665b30bd7" y="216.0"/>
     <use style="stroke:#000000;" x="295.2" xlink:href="#mb665b30bd7" y="216.0"/>
     <use style="stroke:#000000;" x="406.8" xlink:href="#mb665b30bd7" y="216.0"/>
     <use style="stroke:#000000;" x="358.391226013" xlink:href="#mb665b30bd7" y="184.542405953"/>
     <use style="stroke:#000000;" x="322.074026911" xlink:href="#mb665b30bd7" y="216.0"/>
     <use style="stroke:#000000;" x="395.234620557" xlink:href="#mb665b30bd7" y="164.16"/>
     <use style="stroke:#000000;" x="319.697685477" xlink:href="#mb665b30bd7" y="193.775871617"/>
     <use style="stroke:#000000;" x="384.851162492" xlink:href="#mb665b30bd7" y="207.046776081"/>
     <use style="stroke:#000000;" x="301.651638051" xlink:href="#mb665b30bd7" y="203.733387971"/>
     <use style="stroke:#000000;" x="323.926862044" xlink:href="#mb665b30bd7" y="164.16"/>
     <use style="stroke:#000000;" x="301.955580309" xlink:href="#mb665b30bd7" y="201.942686112"/>
     <use style="stroke:#000000;" x="295.2" xlink:href="#mb665b30bd7" y="216.0"/>
     <use style="stroke:#000000;" x="331.324773211" xlink:href="#mb665b30bd7" y="205.164774238"/>
     <use style="stroke:#000000;" x="334.486302925" xlink:href="#mb665b30bd7" y="168.47859889"/>
     <use style="stroke:#000000;" x="311.26278688" xlink:href="#mb665b30bd7" y="177.65026826"/>
     <use style="stroke:#000000;" x="298.211895381" xlink:href="#mb665b30bd7" y="216.0"/>
     <use style="stroke:#000000;" x="310.109131633" xlink:href="#mb665b30bd7" y="214.125352333"/>
     <use style="stroke:#000000;" x="328.692910344" xlink:href="#mb665b30bd7" y="216.0"/>
     <use style="stroke:#000000;" x="351.319789502" xlink:href="#mb665b30bd7" y="198.053207231"/>
     <use style="stroke:#000000;" x="337.511821897" xlink:href="#mb665b30bd7" y="216.0"/>
     <use style="stroke:#000000;" x="369.400129428" xlink:href="#mb665b30bd7" y="216.0"/>
     <use style="stroke:#000000;" x="295.2" xlink:href="#mb665b30bd7" y="216.0"/>
     <use style="stroke:#000000;" x="348.341976406" xlink:href="#mb665b30bd7" y="214.671020273"/>
     <use style="stroke:#000000;" x="331.974982363" xlink:href="#mb665b30bd7" y="171.335932772"/>
     <use style="stroke:#000000;" x="305.210459296" xlink:href="#mb665b30bd7" y="190.049828491"/>
     <use style="stroke:#000000;" x="295.2" xlink:href="#mb665b30bd7" y="216.0"/>
     <use style="stroke:#000000;" x="297.322311908" xlink:href="#mb665b30bd7" y="216.0"/>
     <use style="stroke:#000000;" x="298.405865875" xlink:href="#mb665b30bd7" y="210.906666599"/>
     <use style="stroke:#000000;" x="351.151289162" xlink:href="#mb665b30bd7" y="208.336694773"/>
     <use style="stroke:#000000;" x="295.2" xlink:href="#mb665b30bd7" y="216.0"/>
     <use style="stroke:#000000;" x="383.572883479" xlink:href="#mb665b30bd7" y="208.002420535"/>
     <use style="stroke:#000000;" x="295.2" xlink:href="#mb665b30bd7" y="216.0"/>
     <use style="stroke:#000000;" x="387.642595435" xlink:href="#mb665b30bd7" y="164.16"/>
     <use style="stroke:#000000;" x="328.088625551" xlink:href="#mb665b30bd7" y="164.16"/>
     <use style="stroke:#000000;" x="295.2" xlink:href="#mb665b30bd7" y="216.0"/>
     <use style="stroke:#000000;" x="295.2" xlink:href="#mb665b30bd7" y="216.0"/>
     <use style="stroke:#000000;" x="332.40290219" xlink:href="#mb665b30bd7" y="216.0"/>
     <use style="stroke:#000000;" x="299.125405738" xlink:href="#mb665b30bd7" y="216.0"/>
     <use style="stroke:#000000;" x="340.112407497" xlink:href="#mb665b30bd7" y="164.16"/>
     <use style="stroke:#000000;" x="383.082785701" xlink:href="#mb665b30bd7" y="216.0"/>
     <use style="stroke:#000000;" x="295.2" xlink:href="#mb665b30bd7" y="216.0"/>
     <use style="stroke:#000000;" x="322.680082414" xlink:href="#mb665b30bd7" y="216.0"/>
     <use style="stroke:#000000;" x="359.256487546" xlink:href="#mb665b30bd7" y="216.0"/>
     <use style="stroke:#000000;" x="306.150102374" xlink:href="#mb665b30bd7" y="186.67292197"/>
     <use style="stroke:#000000;" x="295.2" xlink:href="#mb665b30bd7" y="216.0"/>
     <use style="stroke:#000000;" x="295.2" xlink:href="#mb665b30bd7" y="216.0"/>
     <use style="stroke:#000000;" x="295.2" xlink:href="#mb665b30bd7" y="216.0"/>
     <use style="stroke:#000000;" x="295.2" xlink:href="#mb665b30bd7" y="216.0"/>
     <use style="stroke:#000000;" x="295.2" xlink:href="#mb665b30bd7" y="216.0"/>
     <use style="stroke:#000000;" x="295.2" xlink:href="#mb665b30bd7" y="216.0"/>
     <use style="stroke:#000000;" x="295.2" xlink:href="#mb665b30bd7" y="216.0"/>
     <use style="stroke:#000000;" x="295.2" xlink:href="#mb665b30bd7" y="216.0"/>
     <use style="stroke:#000000;" x="295.2" xlink:href="#mb665b30bd7" y="216.0"/>
     <use style="stroke:#000000;" x="295.2" xlink:href="#mb665b30bd7" y="216.0"/>
     <use style="stroke:#000000;" x="295.2" xlink:href="#mb665b30bd7" y="216.0"/>
     <use style="stroke:#000000;" x="295.2" xlink:href="#mb665b30bd7" y="216.0"/>
     <use style="stroke:#000000;" x="295.2" xlink:href="#mb665b30bd7" y="216.0"/>
     <use style="stroke:#000000;" x="295.2" xlink:href="#mb665b30bd7" y="216.0"/>
     <use style="stroke:#000000;" x="295.2" xlink:href="#mb665b30bd7" y="216.0"/>
     <use style="stroke:#000000;" x="295.2" xlink:href="#mb665b30bd7" y="216.0"/>
     <use style="stroke:#000000;" x="295.2" xlink:href="#mb665b30bd7" y="216.0"/>
     <use style="stroke:#000000;" x="295.2" xlink:href="#mb665b30bd7" y="216.0"/>
     <use style="stroke:#000000;" x="295.2" xlink:href="#mb665b30bd7" y="216.0"/>
     <use style="stroke:#000000;" x="295.2" xlink:href="#mb665b30bd7" y="216.0"/>
     <use style="stroke:#000000;" x="295.2" xlink:href="#mb665b30bd7" y="216.0"/>
     <use style="stroke:#000000;" x="295.2" xlink:href="#mb665b30bd7" y="216.0"/>
     <use style="stroke:#000000;" x="295.2" xlink:href="#mb665b30bd7" y="216.0"/>
     <use style="stroke:#000000;" x="295.2" xlink:href="#mb665b30bd7" y="216.0"/>
     <use style="stroke:#000000;" x="295.2" xlink:href="#mb665b30bd7" y="216.0"/>
     <use style="stroke:#000000;" x="295.2" xlink:href="#mb665b30bd7" y="216.0"/>
     <use style="stroke:#000000;" x="295.2" xlink:href="#mb665b30bd7" y="216.0"/>
     <use style="stroke:#000000;" x="295.2" xlink:href="#mb665b30bd7" y="216.0"/>
     <use style="stroke:#000000;" x="295.2" xlink:href="#mb665b30bd7" y="216.0"/>
     <use style="stroke:#000000;" x="295.2" xlink:href="#mb665b30bd7" y="216.0"/>
     <use style="stroke:#000000;" x="295.2" xlink:href="#mb665b30bd7" y="216.0"/>
     <use style="stroke:#000000;" x="295.2" xlink:href="#mb665b30bd7" y="216.0"/>
     <use style="stroke:#000000;" x="295.2" xlink:href="#mb665b30bd7" y="216.0"/>
     <use style="stroke:#000000;" x="295.2" xlink:href="#mb665b30bd7" y="216.0"/>
     <use style="stroke:#000000;" x="295.2" xlink:href="#mb665b30bd7" y="216.0"/>
     <use style="stroke:#000000;" x="295.2" xlink:href="#mb665b30bd7" y="216.0"/>
     <use style="stroke:#000000;" x="295.2" xlink:href="#mb665b30bd7" y="216.0"/>
     <use style="stroke:#000000;" x="295.2" xlink:href="#mb665b30bd7" y="216.0"/>
     <use style="stroke:#000000;" x="295.2" xlink:href="#mb665b30bd7" y="216.0"/>
     <use style="stroke:#000000;" x="295.2" xlink:href="#mb665b30bd7" y="216.0"/>
     <use style="stroke:#000000;" x="295.2" xlink:href="#mb665b30bd7" y="216.0"/>
     <use style="stroke:#000000;" x="295.2" xlink:href="#mb665b30bd7" y="216.0"/>
     <use style="stroke:#000000;" x="295.2" xlink:href="#mb665b30bd7" y="216.0"/>
     <use style="stroke:#000000;" x="295.2" xlink:href="#mb665b30bd7" y="216.0"/>
     <use style="stroke:#000000;" x="295.2" xlink:href="#mb665b30bd7" y="216.0"/>
     <use style="stroke:#000000;" x="295.2" xlink:href="#mb665b30bd7" y="216.0"/>
     <use style="stroke:#000000;" x="295.2" xlink:href="#mb665b30bd7" y="216.0"/>
     <use style="stroke:#000000;" x="295.2" xlink:href="#mb665b30bd7" y="216.0"/>
     <use style="stroke:#000000;" x="295.2" xlink:href="#mb665b30bd7" y="216.0"/>
     <use style="stroke:#000000;" x="295.2" xlink:href="#mb665b30bd7" y="216.0"/>
     <use style="stroke:#000000;" x="295.2" xlink:href="#mb665b30bd7" y="216.0"/>
     <use style="stroke:#000000;" x="295.2" xlink:href="#mb665b30bd7" y="216.0"/>
     <use style="stroke:#000000;" x="295.2" xlink:href="#mb665b30bd7" y="216.0"/>
     <use style="stroke:#000000;" x="295.2" xlink:href="#mb665b30bd7" y="216.0"/>
     <use style="stroke:#000000;" x="295.2" xlink:href="#mb665b30bd7" y="216.0"/>
     <use style="stroke:#000000;" x="295.2" xlink:href="#mb665b30bd7" y="216.0"/>
     <use style="stroke:#000000;" x="295.2" xlink:href="#mb665b30bd7" y="216.0"/>
     <use style="stroke:#000000;" x="295.2" xlink:href="#mb665b30bd7" y="216.0"/>
     <use style="stroke:#000000;" x="295.2" xlink:href="#mb665b30bd7" y="216.0"/>
     <use style="stroke:#000000;" x="295.2" xlink:href="#mb665b30bd7" y="216.0"/>
     <use style="stroke:#000000;" x="295.2" xlink:href="#mb665b30bd7" y="216.0"/>
     <use style="stroke:#000000;" x="295.2" xlink:href="#mb665b30bd7" y="216.0"/>
     <use style="stroke:#000000;" x="295.2" xlink:href="#mb665b30bd7" y="216.0"/>
     <use style="stroke:#000000;" x="295.2" xlink:href="#mb665b30bd7" y="216.0"/>
     <use style="stroke:#000000;" x="295.2" xlink:href="#mb665b30bd7" y="216.0"/>
     <use style="stroke:#000000;" x="295.2" xlink:href="#mb665b30bd7" y="216.0"/>
     <use style="stroke:#000000;" x="295.2" xlink:href="#mb665b30bd7" y="216.0"/>
     <use style="stroke:#000000;" x="295.2" xlink:href="#mb665b30bd7" y="216.0"/>
     <use style="stroke:#000000;" x="295.2" xlink:href="#mb665b30bd7" y="216.0"/>
     <use style="stroke:#000000;" x="295.2" xlink:href="#mb665b30bd7" y="216.0"/>
     <use style="stroke:#000000;" x="295.2" xlink:href="#mb665b30bd7" y="216.0"/>
     <use style="stroke:#000000;" x="295.2" xlink:href="#mb665b30bd7" y="216.0"/>
     <use style="stroke:#000000;" x="295.2" xlink:href="#mb665b30bd7" y="216.0"/>
     <use style="stroke:#000000;" x="295.2" xlink:href="#mb665b30bd7" y="216.0"/>
     <use style="stroke:#000000;" x="295.2" xlink:href="#mb665b30bd7" y="216.0"/>
     <use style="stroke:#000000;" x="295.2" xlink:href="#mb665b30bd7" y="216.0"/>
     <use style="stroke:#000000;" x="295.2" xlink:href="#mb665b30bd7" y="216.0"/>
     <use style="stroke:#000000;" x="295.2" xlink:href="#mb665b30bd7" y="216.0"/>
     <use style="stroke:#000000;" x="295.2" xlink:href="#mb665b30bd7" y="216.0"/>
     <use style="stroke:#000000;" x="295.2" xlink:href="#mb665b30bd7" y="216.0"/>
     <use style="stroke:#000000;" x="295.2" xlink:href="#mb665b30bd7" y="216.0"/>
     <use style="stroke:#000000;" x="295.2" xlink:href="#mb665b30bd7" y="216.0"/>
     <use style="stroke:#000000;" x="295.2" xlink:href="#mb665b30bd7" y="216.0"/>
     <use style="stroke:#000000;" x="295.2" xlink:href="#mb665b30bd7" y="216.0"/>
     <use style="stroke:#000000;" x="295.2" xlink:href="#mb665b30bd7" y="216.0"/>
     <use style="stroke:#000000;" x="295.2" xlink:href="#mb665b30bd7" y="216.0"/>
     <use style="stroke:#000000;" x="295.2" xlink:href="#mb665b30bd7" y="216.0"/>
     <use style="stroke:#000000;" x="295.2" xlink:href="#mb665b30bd7" y="216.0"/>
     <use style="stroke:#000000;" x="295.2" xlink:href="#mb665b30bd7" y="216.0"/>
     <use style="stroke:#000000;" x="295.2" xlink:href="#mb665b30bd7" y="216.0"/>
     <use style="stroke:#000000;" x="295.2" xlink:href="#mb665b30bd7" y="216.0"/>
     <use style="stroke:#000000;" x="295.2" xlink:href="#mb665b30bd7" y="216.0"/>
     <use style="stroke:#000000;" x="295.2" xlink:href="#mb665b30bd7" y="216.0"/>
     <use style="stroke:#000000;" x="295.2" xlink:href="#mb665b30bd7" y="216.0"/>
     <use style="stroke:#000000;" x="295.2" xlink:href="#mb665b30bd7" y="216.0"/>
     <use style="stroke:#000000;" x="295.2" xlink:href="#mb665b30bd7" y="216.0"/>
     <use style="stroke:#000000;" x="295.2" xlink:href="#mb665b30bd7" y="216.0"/>
     <use style="stroke:#000000;" x="295.2" xlink:href="#mb665b30bd7" y="216.0"/>
     <use style="stroke:#000000;" x="295.2" xlink:href="#mb665b30bd7" y="216.0"/>
     <use style="stroke:#000000;" x="295.2" xlink:href="#mb665b30bd7" y="216.0"/>
     <use style="stroke:#000000;" x="295.2" xlink:href="#mb665b30bd7" y="216.0"/>
     <use style="stroke:#000000;" x="295.2" xlink:href="#mb665b30bd7" y="216.0"/>
     <use style="stroke:#000000;" x="295.2" xlink:href="#mb665b30bd7" y="216.0"/>
     <use style="stroke:#000000;" x="295.2" xlink:href="#mb665b30bd7" y="216.0"/>
     <use style="stroke:#000000;" x="295.2" xlink:href="#mb665b30bd7" y="216.0"/>
     <use style="stroke:#000000;" x="295.2" xlink:href="#mb665b30bd7" y="216.0"/>
     <use style="stroke:#000000;" x="295.2" xlink:href="#mb665b30bd7" y="216.0"/>
     <use style="stroke:#000000;" x="295.2" xlink:href="#mb665b30bd7" y="216.0"/>
     <use style="stroke:#000000;" x="295.2" xlink:href="#mb665b30bd7" y="216.0"/>
     <use style="stroke:#000000;" x="295.2" xlink:href="#mb665b30bd7" y="216.0"/>
     <use style="stroke:#000000;" x="295.2" xlink:href="#mb665b30bd7" y="216.0"/>
     <use style="stroke:#000000;" x="295.2" xlink:href="#mb665b30bd7" y="216.0"/>
     <use style="stroke:#000000;" x="295.2" xlink:href="#mb665b30bd7" y="216.0"/>
     <use style="stroke:#000000;" x="295.2" xlink:href="#mb665b30bd7" y="216.0"/>
     <use style="stroke:#000000;" x="295.2" xlink:href="#mb665b30bd7" y="216.0"/>
     <use style="stroke:#000000;" x="295.2" xlink:href="#mb665b30bd7" y="216.0"/>
     <use style="stroke:#000000;" x="295.2" xlink:href="#mb665b30bd7" y="216.0"/>
     <use style="stroke:#000000;" x="295.2" xlink:href="#mb665b30bd7" y="216.0"/>
     <use style="stroke:#000000;" x="295.2" xlink:href="#mb665b30bd7" y="216.0"/>
     <use style="stroke:#000000;" x="295.2" xlink:href="#mb665b30bd7" y="216.0"/>
    </g>
   </g>
   <g id="PathCollection_2">
    <defs>
     <path d="M 0 1.936492 
C 0.513564 1.936492 1.006162 1.732451 1.369306 1.369306 
C 1.732451 1.006162 1.936492 0.513564 1.936492 0 
C 1.936492 -0.513564 1.732451 -1.006162 1.369306 -1.369306 
C 1.006162 -1.732451 0.513564 -1.936492 0 -1.936492 
C -0.513564 -1.936492 -1.006162 -1.732451 -1.369306 -1.369306 
C -1.732451 -1.006162 -1.936492 -0.513564 -1.936492 0 
C -1.936492 0.513564 -1.732451 1.006162 -1.369306 1.369306 
C -1.006162 1.732451 -0.513564 1.936492 0 1.936492 
z
" id="m5843560f79" style="stroke:#000000;"/>
    </defs>
    <g clip-path="url(#pa39585c2de)">
     <use style="fill:#0000ff;stroke:#000000;" x="322.060534325" xlink:href="#m5843560f79" y="216.0"/>
     <use style="fill:#0000ff;stroke:#000000;" x="326.773389019" xlink:href="#m5843560f79" y="216.0"/>
     <use style="fill:#0000ff;stroke:#000000;" x="303.065292106" xlink:href="#m5843560f79" y="203.29661379"/>
     <use style="fill:#0000ff;stroke:#000000;" x="314.941058427" xlink:href="#m5843560f79" y="175.919658266"/>
     <use style="fill:#0000ff;stroke:#000000;" x="325.220887137" xlink:href="#m5843560f79" y="164.16"/>
     <use style="fill:#0000ff;stroke:#000000;" x="338.917467689" xlink:href="#m5843560f79" y="164.16"/>
     <use style="fill:#0000ff;stroke:#000000;" x="295.2" xlink:href="#m5843560f79" y="216.0"/>
     <use style="fill:#0000ff;stroke:#000000;" x="306.736181164" xlink:href="#m5843560f79" y="178.50613162"/>
     <use style="fill:#0000ff;stroke:#000000;" x="406.8" xlink:href="#m5843560f79" y="216.0"/>
     <use style="fill:#0000ff;stroke:#000000;" x="406.8" xlink:href="#m5843560f79" y="164.16"/>
     <use style="fill:#0000ff;stroke:#000000;" x="295.2" xlink:href="#m5843560f79" y="216.0"/>
     <use style="fill:#0000ff;stroke:#000000;" x="327.310019971" xlink:href="#m5843560f79" y="164.16"/>
     <use style="fill:#0000ff;stroke:#000000;" x="349.187950959" xlink:href="#m5843560f79" y="164.16"/>
     <use style="fill:#0000ff;stroke:#000000;" x="295.2" xlink:href="#m5843560f79" y="216.0"/>
     <use style="fill:#0000ff;stroke:#000000;" x="307.249124277" xlink:href="#m5843560f79" y="216.0"/>
     <use style="fill:#0000ff;stroke:#000000;" x="295.2" xlink:href="#m5843560f79" y="216.0"/>
     <use style="fill:#0000ff;stroke:#000000;" x="302.443953678" xlink:href="#m5843560f79" y="216.0"/>
     <use style="fill:#0000ff;stroke:#000000;" x="320.434506863" xlink:href="#m5843560f79" y="164.16"/>
     <use style="fill:#0000ff;stroke:#000000;" x="354.609169619" xlink:href="#m5843560f79" y="181.463171404"/>
     <use style="fill:#0000ff;stroke:#000000;" x="317.420351942" xlink:href="#m5843560f79" y="211.615191341"/>
     <use style="fill:#0000ff;stroke:#000000;" x="337.853703776" xlink:href="#m5843560f79" y="216.0"/>
     <use style="fill:#0000ff;stroke:#000000;" x="406.8" xlink:href="#m5843560f79" y="200.599719426"/>
     <use style="fill:#0000ff;stroke:#000000;" x="295.2" xlink:href="#m5843560f79" y="216.0"/>
     <use style="fill:#0000ff;stroke:#000000;" x="295.2" xlink:href="#m5843560f79" y="216.0"/>
     <use style="fill:#0000ff;stroke:#000000;" x="327.868173798" xlink:href="#m5843560f79" y="216.0"/>
     <use style="fill:#0000ff;stroke:#000000;" x="312.75724251" xlink:href="#m5843560f79" y="181.92539756"/>
     <use style="fill:#0000ff;stroke:#000000;" x="347.244364932" xlink:href="#m5843560f79" y="190.126628405"/>
     <use style="fill:#0000ff;stroke:#000000;" x="295.2" xlink:href="#m5843560f79" y="216.0"/>
     <use style="fill:#0000ff;stroke:#000000;" x="345.087841813" xlink:href="#m5843560f79" y="216.0"/>
     <use style="fill:#0000ff;stroke:#000000;" x="324.091525915" xlink:href="#m5843560f79" y="164.16"/>
     <use style="fill:#0000ff;stroke:#000000;" x="295.2" xlink:href="#m5843560f79" y="216.0"/>
     <use style="fill:#0000ff;stroke:#000000;" x="318.797600988" xlink:href="#m5843560f79" y="201.950467664"/>
     <use style="fill:#0000ff;stroke:#000000;" x="330.285851691" xlink:href="#m5843560f79" y="164.16"/>
     <use style="fill:#0000ff;stroke:#000000;" x="325.179099204" xlink:href="#m5843560f79" y="216.0"/>
     <use style="fill:#0000ff;stroke:#000000;" x="406.8" xlink:href="#m5843560f79" y="216.0"/>
     <use style="fill:#0000ff;stroke:#000000;" x="326.512949961" xlink:href="#m5843560f79" y="177.710893562"/>
     <use style="fill:#0000ff;stroke:#000000;" x="295.2" xlink:href="#m5843560f79" y="216.0"/>
     <use style="fill:#0000ff;stroke:#000000;" x="337.662199536" xlink:href="#m5843560f79" y="168.44572679"/>
     <use style="fill:#0000ff;stroke:#000000;" x="317.756135866" xlink:href="#m5843560f79" y="208.558169971"/>
     <use style="fill:#0000ff;stroke:#000000;" x="295.2" xlink:href="#m5843560f79" y="216.0"/>
     <use style="fill:#0000ff;stroke:#000000;" x="327.784214108" xlink:href="#m5843560f79" y="169.823125058"/>
     <use style="fill:#0000ff;stroke:#000000;" x="329.818601198" xlink:href="#m5843560f79" y="180.569904473"/>
     <use style="fill:#0000ff;stroke:#000000;" x="320.242938511" xlink:href="#m5843560f79" y="165.335119378"/>
     <use style="fill:#0000ff;stroke:#000000;" x="355.582049035" xlink:href="#m5843560f79" y="164.16"/>
     <use style="fill:#0000ff;stroke:#000000;" x="339.647481326" xlink:href="#m5843560f79" y="164.16"/>
     <use style="fill:#0000ff;stroke:#000000;" x="324.510293744" xlink:href="#m5843560f79" y="173.886744985"/>
     <use style="fill:#0000ff;stroke:#000000;" x="315.507782135" xlink:href="#m5843560f79" y="216.0"/>
     <use style="fill:#0000ff;stroke:#000000;" x="295.2" xlink:href="#m5843560f79" y="216.0"/>
     <use style="fill:#0000ff;stroke:#000000;" x="369.687285973" xlink:href="#m5843560f79" y="216.0"/>
     <use style="fill:#0000ff;stroke:#000000;" x="295.2" xlink:href="#m5843560f79" y="216.0"/>
     <use style="fill:#0000ff;stroke:#000000;" x="295.2" xlink:href="#m5843560f79" y="216.0"/>
     <use style="fill:#0000ff;stroke:#000000;" x="309.41092949" xlink:href="#m5843560f79" y="189.340739495"/>
     <use style="fill:#0000ff;stroke:#000000;" x="312.283425304" xlink:href="#m5843560f79" y="184.787913641"/>
     <use style="fill:#0000ff;stroke:#000000;" x="357.753658685" xlink:href="#m5843560f79" y="216.0"/>
     <use style="fill:#0000ff;stroke:#000000;" x="295.2" xlink:href="#m5843560f79" y="216.0"/>
     <use style="fill:#0000ff;stroke:#000000;" x="295.2" xlink:href="#m5843560f79" y="216.0"/>
     <use style="fill:#0000ff;stroke:#000000;" x="295.2" xlink:href="#m5843560f79" y="216.0"/>
     <use style="fill:#0000ff;stroke:#000000;" x="325.562300512" xlink:href="#m5843560f79" y="216.0"/>
     <use style="fill:#0000ff;stroke:#000000;" x="295.2" xlink:href="#m5843560f79" y="216.0"/>
     <use style="fill:#0000ff;stroke:#000000;" x="301.951161069" xlink:href="#m5843560f79" y="209.0186238"/>
     <use style="fill:#0000ff;stroke:#000000;" x="390.516298741" xlink:href="#m5843560f79" y="216.0"/>
     <use style="fill:#0000ff;stroke:#000000;" x="364.012881657" xlink:href="#m5843560f79" y="185.414088605"/>
     <use style="fill:#0000ff;stroke:#000000;" x="301.115216917" xlink:href="#m5843560f79" y="211.15055236"/>
     <use style="fill:#0000ff;stroke:#000000;" x="306.944375142" xlink:href="#m5843560f79" y="199.424552817"/>
     <use style="fill:#0000ff;stroke:#000000;" x="306.737261879" xlink:href="#m5843560f79" y="189.92423677"/>
     <use style="fill:#0000ff;stroke:#000000;" x="295.2" xlink:href="#m5843560f79" y="216.0"/>
     <use style="fill:#0000ff;stroke:#000000;" x="340.988632921" xlink:href="#m5843560f79" y="181.19478425"/>
     <use style="fill:#0000ff;stroke:#000000;" x="381.234201163" xlink:href="#m5843560f79" y="166.593486557"/>
     <use style="fill:#0000ff;stroke:#000000;" x="306.017881225" xlink:href="#m5843560f79" y="196.436456048"/>
     <use style="fill:#0000ff;stroke:#000000;" x="344.700462718" xlink:href="#m5843560f79" y="216.0"/>
     <use style="fill:#0000ff;stroke:#000000;" x="341.002726258" xlink:href="#m5843560f79" y="164.16"/>
     <use style="fill:#0000ff;stroke:#000000;" x="406.8" xlink:href="#m5843560f79" y="216.0"/>
     <use style="fill:#0000ff;stroke:#000000;" x="312.09981155" xlink:href="#m5843560f79" y="171.103112424"/>
     <use style="fill:#0000ff;stroke:#000000;" x="316.46467653" xlink:href="#m5843560f79" y="208.425629002"/>
     <use style="fill:#0000ff;stroke:#000000;" x="313.154545655" xlink:href="#m5843560f79" y="206.852827765"/>
     <use style="fill:#0000ff;stroke:#000000;" x="316.342091656" xlink:href="#m5843560f79" y="172.527743179"/>
     <use style="fill:#0000ff;stroke:#000000;" x="295.2" xlink:href="#m5843560f79" y="216.0"/>
     <use style="fill:#0000ff;stroke:#000000;" x="295.2" xlink:href="#m5843560f79" y="216.0"/>
     <use style="fill:#0000ff;stroke:#000000;" x="406.8" xlink:href="#m5843560f79" y="216.0"/>
     <use style="fill:#0000ff;stroke:#000000;" x="358.391226013" xlink:href="#m5843560f79" y="184.542405953"/>
     <use style="fill:#0000ff;stroke:#000000;" x="322.074026911" xlink:href="#m5843560f79" y="216.0"/>
     <use style="fill:#0000ff;stroke:#000000;" x="395.234620557" xlink:href="#m5843560f79" y="164.16"/>
     <use style="fill:#0000ff;stroke:#000000;" x="319.697685477" xlink:href="#m5843560f79" y="193.775871617"/>
     <use style="fill:#0000ff;stroke:#000000;" x="384.851162492" xlink:href="#m5843560f79" y="207.046776081"/>
     <use style="fill:#0000ff;stroke:#000000;" x="301.651638051" xlink:href="#m5843560f79" y="203.733387971"/>
     <use style="fill:#0000ff;stroke:#000000;" x="323.926862044" xlink:href="#m5843560f79" y="164.16"/>
     <use style="fill:#0000ff;stroke:#000000;" x="301.955580309" xlink:href="#m5843560f79" y="201.942686112"/>
     <use style="fill:#0000ff;stroke:#000000;" x="295.2" xlink:href="#m5843560f79" y="216.0"/>
     <use style="fill:#0000ff;stroke:#000000;" x="331.324773211" xlink:href="#m5843560f79" y="205.164774238"/>
     <use style="fill:#0000ff;stroke:#000000;" x="334.486302925" xlink:href="#m5843560f79" y="168.47859889"/>
     <use style="fill:#0000ff;stroke:#000000;" x="311.26278688" xlink:href="#m5843560f79" y="177.65026826"/>
     <use style="fill:#0000ff;stroke:#000000;" x="298.211895381" xlink:href="#m5843560f79" y="216.0"/>
     <use style="fill:#0000ff;stroke:#000000;" x="310.109131633" xlink:href="#m5843560f79" y="214.125352333"/>
     <use style="fill:#0000ff;stroke:#000000;" x="328.692910344" xlink:href="#m5843560f79" y="216.0"/>
     <use style="fill:#0000ff;stroke:#000000;" x="351.319789502" xlink:href="#m5843560f79" y="198.053207231"/>
     <use style="fill:#0000ff;stroke:#000000;" x="337.511821897" xlink:href="#m5843560f79" y="216.0"/>
     <use style="fill:#0000ff;stroke:#000000;" x="369.400129428" xlink:href="#m5843560f79" y="216.0"/>
     <use style="fill:#0000ff;stroke:#000000;" x="295.2" xlink:href="#m5843560f79" y="216.0"/>
     <use style="fill:#0000ff;stroke:#000000;" x="348.341976406" xlink:href="#m5843560f79" y="214.671020273"/>
     <use style="fill:#0000ff;stroke:#000000;" x="331.974982363" xlink:href="#m5843560f79" y="171.335932772"/>
     <use style="fill:#0000ff;stroke:#000000;" x="305.210459296" xlink:href="#m5843560f79" y="190.049828491"/>
     <use style="fill:#0000ff;stroke:#000000;" x="295.2" xlink:href="#m5843560f79" y="216.0"/>
     <use style="fill:#0000ff;stroke:#000000;" x="297.322311908" xlink:href="#m5843560f79" y="216.0"/>
     <use style="fill:#0000ff;stroke:#000000;" x="298.405865875" xlink:href="#m5843560f79" y="210.906666599"/>
     <use style="fill:#0000ff;stroke:#000000;" x="351.151289162" xlink:href="#m5843560f79" y="208.336694773"/>
     <use style="fill:#0000ff;stroke:#000000;" x="295.2" xlink:href="#m5843560f79" y="216.0"/>
     <use style="fill:#0000ff;stroke:#000000;" x="383.572883479" xlink:href="#m5843560f79" y="208.002420535"/>
     <use style="fill:#0000ff;stroke:#000000;" x="295.2" xlink:href="#m5843560f79" y="216.0"/>
     <use style="fill:#0000ff;stroke:#000000;" x="387.642595435" xlink:href="#m5843560f79" y="164.16"/>
     <use style="fill:#0000ff;stroke:#000000;" x="328.088625551" xlink:href="#m5843560f79" y="164.16"/>
     <use style="fill:#0000ff;stroke:#000000;" x="295.2" xlink:href="#m5843560f79" y="216.0"/>
     <use style="fill:#0000ff;stroke:#000000;" x="295.2" xlink:href="#m5843560f79" y="216.0"/>
     <use style="fill:#0000ff;stroke:#000000;" x="332.40290219" xlink:href="#m5843560f79" y="216.0"/>
     <use style="fill:#0000ff;stroke:#000000;" x="299.125405738" xlink:href="#m5843560f79" y="216.0"/>
     <use style="fill:#0000ff;stroke:#000000;" x="340.112407497" xlink:href="#m5843560f79" y="164.16"/>
     <use style="fill:#0000ff;stroke:#000000;" x="383.082785701" xlink:href="#m5843560f79" y="216.0"/>
     <use style="fill:#0000ff;stroke:#000000;" x="295.2" xlink:href="#m5843560f79" y="216.0"/>
     <use style="fill:#0000ff;stroke:#000000;" x="322.680082414" xlink:href="#m5843560f79" y="216.0"/>
     <use style="fill:#0000ff;stroke:#000000;" x="359.256487546" xlink:href="#m5843560f79" y="216.0"/>
     <use style="fill:#0000ff;stroke:#000000;" x="306.150102374" xlink:href="#m5843560f79" y="186.67292197"/>
    </g>
   </g>
   <g id="patch_3">
    <path d="M 72 43.2 
L 518.4 43.2 
" style="fill:none;stroke:#000000;stroke-linecap:square;stroke-linejoin:miter;"/>
   </g>
   <g id="patch_4">
    <path d="M 72 388.8 
L 518.4 388.8 
" style="fill:none;stroke:#000000;stroke-linecap:square;stroke-linejoin:miter;"/>
   </g>
   <g id="patch_5">
    <path d="M 518.4 388.8 
L 518.4 43.2 
" style="fill:none;stroke:#000000;stroke-linecap:square;stroke-linejoin:miter;"/>
   </g>
   <g id="patch_6">
    <path d="M 72 388.8 
L 72 43.2 
" style="fill:none;stroke:#000000;stroke-linecap:square;stroke-linejoin:miter;"/>
   </g>
   <g id="matplotlib.axis_1">
    <g id="xtick_1">
     <g id="line2d_1">
      <defs>
       <path d="M 0 0 
L 0 -4 
" id="m6eda68211e" style="stroke:#000000;stroke-width:0.5;"/>
      </defs>
      <g>
       <use style="stroke:#000000;stroke-width:0.5;" x="72.0" xlink:href="#m6eda68211e" y="388.8"/>
      </g>
     </g>
     <g id="line2d_2">
      <defs>
       <path d="M 0 0 
L 0 4 
" id="m7e56d65871" style="stroke:#000000;stroke-width:0.5;"/>
      </defs>
      <g>
       <use style="stroke:#000000;stroke-width:0.5;" x="72.0" xlink:href="#m7e56d65871" y="43.2"/>
      </g>
     </g>
     <g id="text_1">
      <!-- −10 -->
      <defs>
       <path d="M 10.59375 35.5 
L 73.1875 35.5 
L 73.1875 27.203125 
L 10.59375 27.203125 
z
" id="BitstreamVeraSans-Roman-2212"/>
       <path d="M 31.78125 66.40625 
Q 24.171875 66.40625 20.328125 58.90625 
Q 16.5 51.421875 16.5 36.375 
Q 16.5 21.390625 20.328125 13.890625 
Q 24.171875 6.390625 31.78125 6.390625 
Q 39.453125 6.390625 43.28125 13.890625 
Q 47.125 21.390625 47.125 36.375 
Q 47.125 51.421875 43.28125 58.90625 
Q 39.453125 66.40625 31.78125 66.40625 
M 31.78125 74.21875 
Q 44.046875 74.21875 50.515625 64.515625 
Q 56.984375 54.828125 56.984375 36.375 
Q 56.984375 17.96875 50.515625 8.265625 
Q 44.046875 -1.421875 31.78125 -1.421875 
Q 19.53125 -1.421875 13.0625 8.265625 
Q 6.59375 17.96875 6.59375 36.375 
Q 6.59375 54.828125 13.0625 64.515625 
Q 19.53125 74.21875 31.78125 74.21875 
" id="BitstreamVeraSans-Roman-30"/>
       <path d="M 12.40625 8.296875 
L 28.515625 8.296875 
L 28.515625 63.921875 
L 10.984375 60.40625 
L 10.984375 69.390625 
L 28.421875 72.90625 
L 38.28125 72.90625 
L 38.28125 8.296875 
L 54.390625 8.296875 
L 54.390625 0 
L 12.40625 0 
z
" id="BitstreamVeraSans-Roman-31"/>
      </defs>
      <g transform="translate(59.3371875 401.918125)scale(0.12 -0.12)">
       <use xlink:href="#BitstreamVeraSans-Roman-2212"/>
       <use x="83.7890625" xlink:href="#BitstreamVeraSans-Roman-31"/>
       <use x="147.412109375" xlink:href="#BitstreamVeraSans-Roman-30"/>
      </g>
     </g>
    </g>
    <g id="xtick_2">
     <g id="line2d_3">
      <g>
       <use style="stroke:#000000;stroke-width:0.5;" x="183.6" xlink:href="#m6eda68211e" y="388.8"/>
      </g>
     </g>
     <g id="line2d_4">
      <g>
       <use style="stroke:#000000;stroke-width:0.5;" x="183.6" xlink:href="#m7e56d65871" y="43.2"/>
      </g>
     </g>
     <g id="text_2">
      <!-- −5 -->
      <defs>
       <path d="M 10.796875 72.90625 
L 49.515625 72.90625 
L 49.515625 64.59375 
L 19.828125 64.59375 
L 19.828125 46.734375 
Q 21.96875 47.46875 24.109375 47.828125 
Q 26.265625 48.1875 28.421875 48.1875 
Q 40.625 48.1875 47.75 41.5 
Q 54.890625 34.8125 54.890625 23.390625 
Q 54.890625 11.625 47.5625 5.09375 
Q 40.234375 -1.421875 26.90625 -1.421875 
Q 22.3125 -1.421875 17.546875 -0.640625 
Q 12.796875 0.140625 7.71875 1.703125 
L 7.71875 11.625 
Q 12.109375 9.234375 16.796875 8.0625 
Q 21.484375 6.890625 26.703125 6.890625 
Q 35.15625 6.890625 40.078125 11.328125 
Q 45.015625 15.765625 45.015625 23.390625 
Q 45.015625 31 40.078125 35.4375 
Q 35.15625 39.890625 26.703125 39.890625 
Q 22.75 39.890625 18.8125 39.015625 
Q 14.890625 38.140625 10.796875 36.28125 
z
" id="BitstreamVeraSans-Roman-35"/>
      </defs>
      <g transform="translate(174.7546875 401.918125)scale(0.12 -0.12)">
       <use xlink:href="#BitstreamVeraSans-Roman-2212"/>
       <use x="83.7890625" xlink:href="#BitstreamVeraSans-Roman-35"/>
      </g>
     </g>
    </g>
    <g id="xtick_3">
     <g id="line2d_5">
      <g>
       <use style="stroke:#000000;stroke-width:0.5;" x="295.2" xlink:href="#m6eda68211e" y="388.8"/>
      </g>
     </g>
     <g id="line2d_6">
      <g>
       <use style="stroke:#000000;stroke-width:0.5;" x="295.2" xlink:href="#m7e56d65871" y="43.2"/>
      </g>
     </g>
     <g id="text_3">
      <!-- 0 -->
      <g transform="translate(291.3825 401.918125)scale(0.12 -0.12)">
       <use xlink:href="#BitstreamVeraSans-Roman-30"/>
      </g>
     </g>
    </g>
    <g id="xtick_4">
     <g id="line2d_7">
      <g>
       <use style="stroke:#000000;stroke-width:0.5;" x="406.8" xlink:href="#m6eda68211e" y="388.8"/>
      </g>
     </g>
     <g id="line2d_8">
      <g>
       <use style="stroke:#000000;stroke-width:0.5;" x="406.8" xlink:href="#m7e56d65871" y="43.2"/>
      </g>
     </g>
     <g id="text_4">
      <!-- 5 -->
      <g transform="translate(402.9825 401.918125)scale(0.12 -0.12)">
       <use xlink:href="#BitstreamVeraSans-Roman-35"/>
      </g>
     </g>
    </g>
    <g id="xtick_5">
     <g id="line2d_9">
      <g>
       <use style="stroke:#000000;stroke-width:0.5;" x="518.4" xlink:href="#m6eda68211e" y="388.8"/>
      </g>
     </g>
     <g id="line2d_10">
      <g>
       <use style="stroke:#000000;stroke-width:0.5;" x="518.4" xlink:href="#m7e56d65871" y="43.2"/>
      </g>
     </g>
     <g id="text_5">
      <!-- 10 -->
      <g transform="translate(510.765 401.918125)scale(0.12 -0.12)">
       <use xlink:href="#BitstreamVeraSans-Roman-31"/>
       <use x="63.623046875" xlink:href="#BitstreamVeraSans-Roman-30"/>
      </g>
     </g>
    </g>
   </g>
   <g id="matplotlib.axis_2">
    <g id="ytick_1">
     <g id="line2d_11">
      <defs>
       <path d="M 0 0 
L 4 0 
" id="m639dc78eac" style="stroke:#000000;stroke-width:0.5;"/>
      </defs>
      <g>
       <use style="stroke:#000000;stroke-width:0.5;" x="72.0" xlink:href="#m639dc78eac" y="388.8"/>
      </g>
     </g>
     <g id="line2d_12">
      <defs>
       <path d="M 0 0 
L -4 0 
" id="md86661c767" style="stroke:#000000;stroke-width:0.5;"/>
      </defs>
      <g>
       <use style="stroke:#000000;stroke-width:0.5;" x="518.4" xlink:href="#md86661c767" y="388.8"/>
      </g>
     </g>
     <g id="text_6">
      <!-- −10 -->
      <g transform="translate(42.674375 392.11125)scale(0.12 -0.12)">
       <use xlink:href="#BitstreamVeraSans-Roman-2212"/>
       <use x="83.7890625" xlink:href="#BitstreamVeraSans-Roman-31"/>
       <use x="147.412109375" xlink:href="#BitstreamVeraSans-Roman-30"/>
      </g>
     </g>
    </g>
    <g id="ytick_2">
     <g id="line2d_13">
      <g>
       <use style="stroke:#000000;stroke-width:0.5;" x="72.0" xlink:href="#m639dc78eac" y="302.4"/>
      </g>
     </g>
     <g id="line2d_14">
      <g>
       <use style="stroke:#000000;stroke-width:0.5;" x="518.4" xlink:href="#md86661c767" y="302.4"/>
      </g>
     </g>
     <g id="text_7">
      <!-- −5 -->
      <g transform="translate(50.309375 305.71125)scale(0.12 -0.12)">
       <use xlink:href="#BitstreamVeraSans-Roman-2212"/>
       <use x="83.7890625" xlink:href="#BitstreamVeraSans-Roman-35"/>
      </g>
     </g>
    </g>
    <g id="ytick_3">
     <g id="line2d_15">
      <g>
       <use style="stroke:#000000;stroke-width:0.5;" x="72.0" xlink:href="#m639dc78eac" y="216.0"/>
      </g>
     </g>
     <g id="line2d_16">
      <g>
       <use style="stroke:#000000;stroke-width:0.5;" x="518.4" xlink:href="#md86661c767" y="216.0"/>
      </g>
     </g>
     <g id="text_8">
      <!-- 0 -->
      <g transform="translate(60.365 219.31125)scale(0.12 -0.12)">
       <use xlink:href="#BitstreamVeraSans-Roman-30"/>
      </g>
     </g>
    </g>
    <g id="ytick_4">
     <g id="line2d_17">
      <g>
       <use style="stroke:#000000;stroke-width:0.5;" x="72.0" xlink:href="#m639dc78eac" y="129.6"/>
      </g>
     </g>
     <g id="line2d_18">
      <g>
       <use style="stroke:#000000;stroke-width:0.5;" x="518.4" xlink:href="#md86661c767" y="129.6"/>
      </g>
     </g>
     <g id="text_9">
      <!-- 5 -->
      <g transform="translate(60.365 132.91125)scale(0.12 -0.12)">
       <use xlink:href="#BitstreamVeraSans-Roman-35"/>
      </g>
     </g>
    </g>
    <g id="ytick_5">
     <g id="line2d_19">
      <g>
       <use style="stroke:#000000;stroke-width:0.5;" x="72.0" xlink:href="#m639dc78eac" y="43.2"/>
      </g>
     </g>
     <g id="line2d_20">
      <g>
       <use style="stroke:#000000;stroke-width:0.5;" x="518.4" xlink:href="#md86661c767" y="43.2"/>
      </g>
     </g>
     <g id="text_10">
      <!-- 10 -->
      <g transform="translate(52.73 46.51125)scale(0.12 -0.12)">
       <use xlink:href="#BitstreamVeraSans-Roman-31"/>
       <use x="63.623046875" xlink:href="#BitstreamVeraSans-Roman-30"/>
      </g>
     </g>
    </g>
   </g>
  </g>
 </g>
 <defs>
  <clipPath id="pa39585c2de">
   <rect height="345.6" width="446.4" x="72.0" y="43.2"/>
  </clipPath>
 </defs>
</svg>
