<?xml version="1.0" encoding="utf-8" standalone="no"?>
<!DOCTYPE svg PUBLIC "-//W3C//DTD SVG 1.1//EN"
  "http://www.w3.org/Graphics/SVG/1.1/DTD/svg11.dtd">
<!-- Created with matplotlib (http://matplotlib.org/) -->
<svg height="432pt" version="1.1" viewBox="0 0 576 432" width="576pt" xmlns="http://www.w3.org/2000/svg" xmlns:xlink="http://www.w3.org/1999/xlink">
 <defs>
  <style type="text/css">
*{stroke-linecap:butt;stroke-linejoin:round;stroke-miterlimit:100000;}
  </style>
 </defs>
 <g id="figure_1">
  <g id="patch_1">
   <path d="M 0 432 
L 576 432 
L 576 0 
L 0 0 
z
" style="fill:#ffffff;"/>
  </g>
  <g id="axes_1">
   <g id="patch_2">
    <path d="M 72 388.8 
L 518.4 388.8 
L 518.4 43.2 
L 72 43.2 
z
" style="fill:#ffffff;"/>
   </g>
   <g id="PathCollection_1">
    <defs>
     <path d="M 0 0.5 
C 0.132602 0.5 0.25979 0.447317 0.353553 0.353553 
C 0.447317 0.25979 0.5 0.132602 0.5 0 
C 0.5 -0.132602 0.447317 -0.25979 0.353553 -0.353553 
C 0.25979 -0.447317 0.132602 -0.5 0 -0.5 
C -0.132602 -0.5 -0.25979 -0.447317 -0.353553 -0.353553 
C -0.447317 -0.25979 -0.5 -0.132602 -0.5 0 
C -0.5 0.132602 -0.447317 0.25979 -0.353553 0.353553 
C -0.25979 0.447317 -0.132602 0.5 0 0.5 
z
" id="mb4c61aaefe" style="stroke:#000000;"/>
    </defs>
    <g clip-path="url(#pd3eaa1480e)">
     <use style="stroke:#000000;" x="375.269119018" xlink:href="#mb4c61aaefe" y="164.81649803"/>
     <use style="stroke:#000000;" x="375.269119018" xlink:href="#mb4c61aaefe" y="164.81649803"/>
     <use style="stroke:#000000;" x="375.269119018" xlink:href="#mb4c61aaefe" y="164.81649803"/>
     <use style="stroke:#000000;" x="375.269119018" xlink:href="#mb4c61aaefe" y="164.81649803"/>
     <use style="stroke:#000000;" x="335.768088464" xlink:href="#mb4c61aaefe" y="184.943101699"/>
     <use style="stroke:#000000;" x="335.260809357" xlink:href="#mb4c61aaefe" y="195.153850568"/>
     <use style="stroke:#000000;" x="375.269119018" xlink:href="#mb4c61aaefe" y="164.81649803"/>
     <use style="stroke:#000000;" x="375.269119018" xlink:href="#mb4c61aaefe" y="164.81649803"/>
     <use style="stroke:#000000;" x="340.68860057" xlink:href="#mb4c61aaefe" y="179.343752304"/>
     <use style="stroke:#000000;" x="375.269119018" xlink:href="#mb4c61aaefe" y="164.81649803"/>
     <use style="stroke:#000000;" x="375.269119018" xlink:href="#mb4c61aaefe" y="164.81649803"/>
     <use style="stroke:#000000;" x="308.822620286" xlink:href="#mb4c61aaefe" y="209.689637435"/>
     <use style="stroke:#000000;" x="375.269119018" xlink:href="#mb4c61aaefe" y="164.81649803"/>
     <use style="stroke:#000000;" x="348.205296795" xlink:href="#mb4c61aaefe" y="180.475915138"/>
     <use style="stroke:#000000;" x="375.269119018" xlink:href="#mb4c61aaefe" y="164.81649803"/>
     <use style="stroke:#000000;" x="375.269119018" xlink:href="#mb4c61aaefe" y="164.81649803"/>
     <use style="stroke:#000000;" x="336.101517507" xlink:href="#mb4c61aaefe" y="189.53240009"/>
     <use style="stroke:#000000;" x="375.269119018" xlink:href="#mb4c61aaefe" y="164.81649803"/>
     <use style="stroke:#000000;" x="375.269119018" xlink:href="#mb4c61aaefe" y="164.81649803"/>
     <use style="stroke:#000000;" x="375.269119018" xlink:href="#mb4c61aaefe" y="164.81649803"/>
     <use style="stroke:#000000;" x="375.269119018" xlink:href="#mb4c61aaefe" y="164.81649803"/>
     <use style="stroke:#000000;" x="308.681295425" xlink:href="#mb4c61aaefe" y="211.467505419"/>
     <use style="stroke:#000000;" x="295.829899436" xlink:href="#mb4c61aaefe" y="211.003809098"/>
     <use style="stroke:#000000;" x="306.894384579" xlink:href="#mb4c61aaefe" y="204.235198809"/>
     <use style="stroke:#000000;" x="302.421380182" xlink:href="#mb4c61aaefe" y="209.048718539"/>
     <use style="stroke:#000000;" x="310.138278935" xlink:href="#mb4c61aaefe" y="204.419278262"/>
     <use style="stroke:#000000;" x="394.576782635" xlink:href="#mb4c61aaefe" y="169.071741624"/>
     <use style="stroke:#000000;" x="335.303159664" xlink:href="#mb4c61aaefe" y="189.365658416"/>
     <use style="stroke:#000000;" x="348.876066864" xlink:href="#mb4c61aaefe" y="174.3690871"/>
     <use style="stroke:#000000;" x="392.518380818" xlink:href="#mb4c61aaefe" y="165.755799424"/>
     <use style="stroke:#000000;" x="339.285589797" xlink:href="#mb4c61aaefe" y="189.030913027"/>
     <use style="stroke:#000000;" x="331.070713926" xlink:href="#mb4c61aaefe" y="190.102807439"/>
     <use style="stroke:#000000;" x="314.509881023" xlink:href="#mb4c61aaefe" y="199.564011339"/>
     <use style="stroke:#000000;" x="297.508687581" xlink:href="#mb4c61aaefe" y="208.943436896"/>
     <use style="stroke:#000000;" x="390.853320164" xlink:href="#mb4c61aaefe" y="169.010103319"/>
     <use style="stroke:#000000;" x="346.685938705" xlink:href="#mb4c61aaefe" y="170.956360854"/>
     <use style="stroke:#000000;" x="327.113968385" xlink:href="#mb4c61aaefe" y="195.08301854"/>
     <use style="stroke:#000000;" x="360.203094791" xlink:href="#mb4c61aaefe" y="169.501588332"/>
     <use style="stroke:#000000;" x="338.910915044" xlink:href="#mb4c61aaefe" y="177.757652373"/>
     <use style="stroke:#000000;" x="329.514726553" xlink:href="#mb4c61aaefe" y="200.938410288"/>
     <use style="stroke:#000000;" x="333.128283275" xlink:href="#mb4c61aaefe" y="180.034336071"/>
     <use style="stroke:#000000;" x="374.273923813" xlink:href="#mb4c61aaefe" y="164.424271629"/>
     <use style="stroke:#000000;" x="304.7920062" xlink:href="#mb4c61aaefe" y="210.817614636"/>
     <use style="stroke:#000000;" x="342.953832991" xlink:href="#mb4c61aaefe" y="168.562286938"/>
     <use style="stroke:#000000;" x="341.514520873" xlink:href="#mb4c61aaefe" y="179.062255064"/>
     <use style="stroke:#000000;" x="298.970517855" xlink:href="#mb4c61aaefe" y="207.77628033"/>
     <use style="stroke:#000000;" x="353.725595" xlink:href="#mb4c61aaefe" y="167.313690635"/>
     <use style="stroke:#000000;" x="297.721754439" xlink:href="#mb4c61aaefe" y="208.32885239"/>
     <use style="stroke:#000000;" x="317.358382119" xlink:href="#mb4c61aaefe" y="186.238592543"/>
     <use style="stroke:#000000;" x="298.553739589" xlink:href="#mb4c61aaefe" y="213.468697572"/>
     <use style="stroke:#000000;" x="309.116296306" xlink:href="#mb4c61aaefe" y="193.847232461"/>
     <use style="stroke:#000000;" x="337.103420633" xlink:href="#mb4c61aaefe" y="178.680194965"/>
     <use style="stroke:#000000;" x="346.36544851" xlink:href="#mb4c61aaefe" y="168.166833481"/>
     <use style="stroke:#000000;" x="322.357574265" xlink:href="#mb4c61aaefe" y="185.659116982"/>
     <use style="stroke:#000000;" x="324.872267083" xlink:href="#mb4c61aaefe" y="189.500313436"/>
     <use style="stroke:#000000;" x="346.36544851" xlink:href="#mb4c61aaefe" y="168.166833481"/>
     <use style="stroke:#000000;" x="342.953832991" xlink:href="#mb4c61aaefe" y="168.562286938"/>
     <use style="stroke:#000000;" x="357.795619622" xlink:href="#mb4c61aaefe" y="165.682039451"/>
     <use style="stroke:#000000;" x="346.51371302" xlink:href="#mb4c61aaefe" y="178.482779503"/>
     <use style="stroke:#000000;" x="339.986822179" xlink:href="#mb4c61aaefe" y="178.318651041"/>
     <use style="stroke:#000000;" x="358.58157707" xlink:href="#mb4c61aaefe" y="166.750815104"/>
     <use style="stroke:#000000;" x="358.58157707" xlink:href="#mb4c61aaefe" y="166.750815104"/>
     <use style="stroke:#000000;" x="358.58157707" xlink:href="#mb4c61aaefe" y="166.750815104"/>
     <use style="stroke:#000000;" x="358.58157707" xlink:href="#mb4c61aaefe" y="166.750815104"/>
     <use style="stroke:#000000;" x="319.080546516" xlink:href="#mb4c61aaefe" y="170.092366813"/>
     <use style="stroke:#000000;" x="318.573267408" xlink:href="#mb4c61aaefe" y="180.303115682"/>
     <use style="stroke:#000000;" x="358.58157707" xlink:href="#mb4c61aaefe" y="166.750815104"/>
     <use style="stroke:#000000;" x="358.58157707" xlink:href="#mb4c61aaefe" y="166.750815104"/>
     <use style="stroke:#000000;" x="394.589342182" xlink:href="#mb4c61aaefe" y="167.047681477"/>
     <use style="stroke:#000000;" x="358.58157707" xlink:href="#mb4c61aaefe" y="166.750815104"/>
     <use style="stroke:#000000;" x="358.58157707" xlink:href="#mb4c61aaefe" y="166.750815104"/>
     <use style="stroke:#000000;" x="304.658465473" xlink:href="#mb4c61aaefe" y="200.993215962"/>
     <use style="stroke:#000000;" x="358.58157707" xlink:href="#mb4c61aaefe" y="166.750815104"/>
     <use style="stroke:#000000;" x="319.108660764" xlink:href="#mb4c61aaefe" y="171.779493665"/>
     <use style="stroke:#000000;" x="358.58157707" xlink:href="#mb4c61aaefe" y="166.750815104"/>
     <use style="stroke:#000000;" x="358.58157707" xlink:href="#mb4c61aaefe" y="166.750815104"/>
     <use style="stroke:#000000;" x="319.413975559" xlink:href="#mb4c61aaefe" y="174.681665204"/>
     <use style="stroke:#000000;" x="346.172482987" xlink:href="#mb4c61aaefe" y="179.067705499"/>
     <use style="stroke:#000000;" x="358.58157707" xlink:href="#mb4c61aaefe" y="166.750815104"/>
     <use style="stroke:#000000;" x="358.58157707" xlink:href="#mb4c61aaefe" y="166.750815104"/>
     <use style="stroke:#000000;" x="346.172482987" xlink:href="#mb4c61aaefe" y="179.067705499"/>
     <use style="stroke:#000000;" x="327.448034843" xlink:href="#mb4c61aaefe" y="213.694910908"/>
     <use style="stroke:#000000;" x="327.800231483" xlink:href="#mb4c61aaefe" y="185.966045253"/>
     <use style="stroke:#000000;" x="325.615847471" xlink:href="#mb4c61aaefe" y="201.130196945"/>
     <use style="stroke:#000000;" x="356.322121793" xlink:href="#mb4c61aaefe" y="196.752647713"/>
     <use style="stroke:#000000;" x="342.108610982" xlink:href="#mb4c61aaefe" y="179.381514417"/>
     <use style="stroke:#000000;" x="377.889240687" xlink:href="#mb4c61aaefe" y="171.006058699"/>
     <use style="stroke:#000000;" x="318.615617716" xlink:href="#mb4c61aaefe" y="174.514923529"/>
     <use style="stroke:#000000;" x="332.188524915" xlink:href="#mb4c61aaefe" y="176.303404174"/>
     <use style="stroke:#000000;" x="375.83083887" xlink:href="#mb4c61aaefe" y="167.690116498"/>
    </g>
   </g>
   <g id="PathCollection_2">
    <defs>
     <path d="M 0 1.936492 
C 0.513564 1.936492 1.006162 1.732451 1.369306 1.369306 
C 1.732451 1.006162 1.936492 0.513564 1.936492 0 
C 1.936492 -0.513564 1.732451 -1.006162 1.369306 -1.369306 
C 1.006162 -1.732451 0.513564 -1.936492 0 -1.936492 
C -0.513564 -1.936492 -1.006162 -1.732451 -1.369306 -1.369306 
C -1.732451 -1.006162 -1.936492 -0.513564 -1.936492 0 
C -1.936492 0.513564 -1.732451 1.006162 -1.369306 1.369306 
C -1.006162 1.732451 -0.513564 1.936492 0 1.936492 
z
" id="mecf7ba534f" style="stroke:#000000;"/>
    </defs>
    <g clip-path="url(#pd3eaa1480e)">
     <use style="fill:#0000ff;stroke:#000000;" x="375.269119018" xlink:href="#mecf7ba534f" y="164.81649803"/>
     <use style="fill:#0000ff;stroke:#000000;" x="375.269119018" xlink:href="#mecf7ba534f" y="164.81649803"/>
     <use style="fill:#0000ff;stroke:#000000;" x="375.269119018" xlink:href="#mecf7ba534f" y="164.81649803"/>
     <use style="fill:#0000ff;stroke:#000000;" x="375.269119018" xlink:href="#mecf7ba534f" y="164.81649803"/>
     <use style="fill:#0000ff;stroke:#000000;" x="335.768088464" xlink:href="#mecf7ba534f" y="184.943101699"/>
     <use style="fill:#0000ff;stroke:#000000;" x="335.260809357" xlink:href="#mecf7ba534f" y="195.153850568"/>
     <use style="fill:#0000ff;stroke:#000000;" x="375.269119018" xlink:href="#mecf7ba534f" y="164.81649803"/>
     <use style="fill:#0000ff;stroke:#000000;" x="375.269119018" xlink:href="#mecf7ba534f" y="164.81649803"/>
     <use style="fill:#0000ff;stroke:#000000;" x="340.68860057" xlink:href="#mecf7ba534f" y="179.343752304"/>
     <use style="fill:#0000ff;stroke:#000000;" x="375.269119018" xlink:href="#mecf7ba534f" y="164.81649803"/>
     <use style="fill:#0000ff;stroke:#000000;" x="375.269119018" xlink:href="#mecf7ba534f" y="164.81649803"/>
     <use style="fill:#0000ff;stroke:#000000;" x="308.822620286" xlink:href="#mecf7ba534f" y="209.689637435"/>
     <use style="fill:#0000ff;stroke:#000000;" x="375.269119018" xlink:href="#mecf7ba534f" y="164.81649803"/>
     <use style="fill:#0000ff;stroke:#000000;" x="348.205296795" xlink:href="#mecf7ba534f" y="180.475915138"/>
     <use style="fill:#0000ff;stroke:#000000;" x="375.269119018" xlink:href="#mecf7ba534f" y="164.81649803"/>
     <use style="fill:#0000ff;stroke:#000000;" x="375.269119018" xlink:href="#mecf7ba534f" y="164.81649803"/>
     <use style="fill:#0000ff;stroke:#000000;" x="336.101517507" xlink:href="#mecf7ba534f" y="189.53240009"/>
     <use style="fill:#0000ff;stroke:#000000;" x="375.269119018" xlink:href="#mecf7ba534f" y="164.81649803"/>
     <use style="fill:#0000ff;stroke:#000000;" x="375.269119018" xlink:href="#mecf7ba534f" y="164.81649803"/>
     <use style="fill:#0000ff;stroke:#000000;" x="375.269119018" xlink:href="#mecf7ba534f" y="164.81649803"/>
     <use style="fill:#0000ff;stroke:#000000;" x="375.269119018" xlink:href="#mecf7ba534f" y="164.81649803"/>
     <use style="fill:#0000ff;stroke:#000000;" x="308.681295425" xlink:href="#mecf7ba534f" y="211.467505419"/>
     <use style="fill:#0000ff;stroke:#000000;" x="295.829899436" xlink:href="#mecf7ba534f" y="211.003809098"/>
     <use style="fill:#0000ff;stroke:#000000;" x="306.894384579" xlink:href="#mecf7ba534f" y="204.235198809"/>
     <use style="fill:#0000ff;stroke:#000000;" x="302.421380182" xlink:href="#mecf7ba534f" y="209.048718539"/>
     <use style="fill:#0000ff;stroke:#000000;" x="310.138278935" xlink:href="#mecf7ba534f" y="204.419278262"/>
     <use style="fill:#0000ff;stroke:#000000;" x="394.576782635" xlink:href="#mecf7ba534f" y="169.071741624"/>
     <use style="fill:#0000ff;stroke:#000000;" x="335.303159664" xlink:href="#mecf7ba534f" y="189.365658416"/>
     <use style="fill:#0000ff;stroke:#000000;" x="348.876066864" xlink:href="#mecf7ba534f" y="174.3690871"/>
     <use style="fill:#0000ff;stroke:#000000;" x="392.518380818" xlink:href="#mecf7ba534f" y="165.755799424"/>
     <use style="fill:#0000ff;stroke:#000000;" x="339.285589797" xlink:href="#mecf7ba534f" y="189.030913027"/>
     <use style="fill:#0000ff;stroke:#000000;" x="331.070713926" xlink:href="#mecf7ba534f" y="190.102807439"/>
     <use style="fill:#0000ff;stroke:#000000;" x="314.509881023" xlink:href="#mecf7ba534f" y="199.564011339"/>
     <use style="fill:#0000ff;stroke:#000000;" x="297.508687581" xlink:href="#mecf7ba534f" y="208.943436896"/>
     <use style="fill:#0000ff;stroke:#000000;" x="390.853320164" xlink:href="#mecf7ba534f" y="169.010103319"/>
     <use style="fill:#0000ff;stroke:#000000;" x="346.685938705" xlink:href="#mecf7ba534f" y="170.956360854"/>
     <use style="fill:#0000ff;stroke:#000000;" x="327.113968385" xlink:href="#mecf7ba534f" y="195.08301854"/>
     <use style="fill:#0000ff;stroke:#000000;" x="360.203094791" xlink:href="#mecf7ba534f" y="169.501588332"/>
     <use style="fill:#0000ff;stroke:#000000;" x="338.910915044" xlink:href="#mecf7ba534f" y="177.757652373"/>
     <use style="fill:#0000ff;stroke:#000000;" x="329.514726553" xlink:href="#mecf7ba534f" y="200.938410288"/>
     <use style="fill:#0000ff;stroke:#000000;" x="333.128283275" xlink:href="#mecf7ba534f" y="180.034336071"/>
     <use style="fill:#0000ff;stroke:#000000;" x="374.273923813" xlink:href="#mecf7ba534f" y="164.424271629"/>
     <use style="fill:#0000ff;stroke:#000000;" x="304.7920062" xlink:href="#mecf7ba534f" y="210.817614636"/>
     <use style="fill:#0000ff;stroke:#000000;" x="342.953832991" xlink:href="#mecf7ba534f" y="168.562286938"/>
     <use style="fill:#0000ff;stroke:#000000;" x="341.514520873" xlink:href="#mecf7ba534f" y="179.062255064"/>
     <use style="fill:#0000ff;stroke:#000000;" x="298.970517855" xlink:href="#mecf7ba534f" y="207.77628033"/>
     <use style="fill:#0000ff;stroke:#000000;" x="353.725595" xlink:href="#mecf7ba534f" y="167.313690635"/>
     <use style="fill:#0000ff;stroke:#000000;" x="297.721754439" xlink:href="#mecf7ba534f" y="208.32885239"/>
     <use style="fill:#0000ff;stroke:#000000;" x="317.358382119" xlink:href="#mecf7ba534f" y="186.238592543"/>
     <use style="fill:#0000ff;stroke:#000000;" x="298.553739589" xlink:href="#mecf7ba534f" y="213.468697572"/>
     <use style="fill:#0000ff;stroke:#000000;" x="309.116296306" xlink:href="#mecf7ba534f" y="193.847232461"/>
     <use style="fill:#0000ff;stroke:#000000;" x="337.103420633" xlink:href="#mecf7ba534f" y="178.680194965"/>
     <use style="fill:#0000ff;stroke:#000000;" x="346.36544851" xlink:href="#mecf7ba534f" y="168.166833481"/>
     <use style="fill:#0000ff;stroke:#000000;" x="322.357574265" xlink:href="#mecf7ba534f" y="185.659116982"/>
     <use style="fill:#0000ff;stroke:#000000;" x="324.872267083" xlink:href="#mecf7ba534f" y="189.500313436"/>
     <use style="fill:#0000ff;stroke:#000000;" x="346.36544851" xlink:href="#mecf7ba534f" y="168.166833481"/>
     <use style="fill:#0000ff;stroke:#000000;" x="342.953832991" xlink:href="#mecf7ba534f" y="168.562286938"/>
     <use style="fill:#0000ff;stroke:#000000;" x="357.795619622" xlink:href="#mecf7ba534f" y="165.682039451"/>
     <use style="fill:#0000ff;stroke:#000000;" x="346.51371302" xlink:href="#mecf7ba534f" y="178.482779503"/>
     <use style="fill:#0000ff;stroke:#000000;" x="339.986822179" xlink:href="#mecf7ba534f" y="178.318651041"/>
    </g>
   </g>
   <g id="patch_3">
    <path d="M 518.4 388.8 
L 518.4 43.2 
" style="fill:none;stroke:#000000;stroke-linecap:square;stroke-linejoin:miter;"/>
   </g>
   <g id="patch_4">
    <path d="M 72 388.8 
L 72 43.2 
" style="fill:none;stroke:#000000;stroke-linecap:square;stroke-linejoin:miter;"/>
   </g>
   <g id="patch_5">
    <path d="M 72 388.8 
L 518.4 388.8 
" style="fill:none;stroke:#000000;stroke-linecap:square;stroke-linejoin:miter;"/>
   </g>
   <g id="patch_6">
    <path d="M 72 43.2 
L 518.4 43.2 
" style="fill:none;stroke:#000000;stroke-linecap:square;stroke-linejoin:miter;"/>
   </g>
   <g id="matplotlib.axis_1">
    <g id="xtick_1">
     <g id="line2d_1">
      <defs>
       <path d="M 0 0 
L 0 -4 
" id="m9cd82e058f" style="stroke:#000000;stroke-width:0.5;"/>
      </defs>
      <g>
       <use style="stroke:#000000;stroke-width:0.5;" x="72.0" xlink:href="#m9cd82e058f" y="388.8"/>
      </g>
     </g>
     <g id="line2d_2">
      <defs>
       <path d="M 0 0 
L 0 4 
" id="ma1748f5bbf" style="stroke:#000000;stroke-width:0.5;"/>
      </defs>
      <g>
       <use style="stroke:#000000;stroke-width:0.5;" x="72.0" xlink:href="#ma1748f5bbf" y="43.2"/>
      </g>
     </g>
     <g id="text_1">
      <!-- −10 -->
      <defs>
       <path d="M 10.59375 35.5 
L 73.1875 35.5 
L 73.1875 27.203125 
L 10.59375 27.203125 
z
" id="BitstreamVeraSans-Roman-2212"/>
       <path d="M 31.78125 66.40625 
Q 24.171875 66.40625 20.328125 58.90625 
Q 16.5 51.421875 16.5 36.375 
Q 16.5 21.390625 20.328125 13.890625 
Q 24.171875 6.390625 31.78125 6.390625 
Q 39.453125 6.390625 43.28125 13.890625 
Q 47.125 21.390625 47.125 36.375 
Q 47.125 51.421875 43.28125 58.90625 
Q 39.453125 66.40625 31.78125 66.40625 
M 31.78125 74.21875 
Q 44.046875 74.21875 50.515625 64.515625 
Q 56.984375 54.828125 56.984375 36.375 
Q 56.984375 17.96875 50.515625 8.265625 
Q 44.046875 -1.421875 31.78125 -1.421875 
Q 19.53125 -1.421875 13.0625 8.265625 
Q 6.59375 17.96875 6.59375 36.375 
Q 6.59375 54.828125 13.0625 64.515625 
Q 19.53125 74.21875 31.78125 74.21875 
" id="BitstreamVeraSans-Roman-30"/>
       <path d="M 12.40625 8.296875 
L 28.515625 8.296875 
L 28.515625 63.921875 
L 10.984375 60.40625 
L 10.984375 69.390625 
L 28.421875 72.90625 
L 38.28125 72.90625 
L 38.28125 8.296875 
L 54.390625 8.296875 
L 54.390625 0 
L 12.40625 0 
z
" id="BitstreamVeraSans-Roman-31"/>
      </defs>
      <g transform="translate(59.3371875 401.918125)scale(0.12 -0.12)">
       <use xlink:href="#BitstreamVeraSans-Roman-2212"/>
       <use x="83.7890625" xlink:href="#BitstreamVeraSans-Roman-31"/>
       <use x="147.412109375" xlink:href="#BitstreamVeraSans-Roman-30"/>
      </g>
     </g>
    </g>
    <g id="xtick_2">
     <g id="line2d_3">
      <g>
       <use style="stroke:#000000;stroke-width:0.5;" x="183.6" xlink:href="#m9cd82e058f" y="388.8"/>
      </g>
     </g>
     <g id="line2d_4">
      <g>
       <use style="stroke:#000000;stroke-width:0.5;" x="183.6" xlink:href="#ma1748f5bbf" y="43.2"/>
      </g>
     </g>
     <g id="text_2">
      <!-- −5 -->
      <defs>
       <path d="M 10.796875 72.90625 
L 49.515625 72.90625 
L 49.515625 64.59375 
L 19.828125 64.59375 
L 19.828125 46.734375 
Q 21.96875 47.46875 24.109375 47.828125 
Q 26.265625 48.1875 28.421875 48.1875 
Q 40.625 48.1875 47.75 41.5 
Q 54.890625 34.8125 54.890625 23.390625 
Q 54.890625 11.625 47.5625 5.09375 
Q 40.234375 -1.421875 26.90625 -1.421875 
Q 22.3125 -1.421875 17.546875 -0.640625 
Q 12.796875 0.140625 7.71875 1.703125 
L 7.71875 11.625 
Q 12.109375 9.234375 16.796875 8.0625 
Q 21.484375 6.890625 26.703125 6.890625 
Q 35.15625 6.890625 40.078125 11.328125 
Q 45.015625 15.765625 45.015625 23.390625 
Q 45.015625 31 40.078125 35.4375 
Q 35.15625 39.890625 26.703125 39.890625 
Q 22.75 39.890625 18.8125 39.015625 
Q 14.890625 38.140625 10.796875 36.28125 
z
" id="BitstreamVeraSans-Roman-35"/>
      </defs>
      <g transform="translate(174.7546875 401.918125)scale(0.12 -0.12)">
       <use xlink:href="#BitstreamVeraSans-Roman-2212"/>
       <use x="83.7890625" xlink:href="#BitstreamVeraSans-Roman-35"/>
      </g>
     </g>
    </g>
    <g id="xtick_3">
     <g id="line2d_5">
      <g>
       <use style="stroke:#000000;stroke-width:0.5;" x="295.2" xlink:href="#m9cd82e058f" y="388.8"/>
      </g>
     </g>
     <g id="line2d_6">
      <g>
       <use style="stroke:#000000;stroke-width:0.5;" x="295.2" xlink:href="#ma1748f5bbf" y="43.2"/>
      </g>
     </g>
     <g id="text_3">
      <!-- 0 -->
      <g transform="translate(291.3825 401.918125)scale(0.12 -0.12)">
       <use xlink:href="#BitstreamVeraSans-Roman-30"/>
      </g>
     </g>
    </g>
    <g id="xtick_4">
     <g id="line2d_7">
      <g>
       <use style="stroke:#000000;stroke-width:0.5;" x="406.8" xlink:href="#m9cd82e058f" y="388.8"/>
      </g>
     </g>
     <g id="line2d_8">
      <g>
       <use style="stroke:#000000;stroke-width:0.5;" x="406.8" xlink:href="#ma1748f5bbf" y="43.2"/>
      </g>
     </g>
     <g id="text_4">
      <!-- 5 -->
      <g transform="translate(402.9825 401.918125)scale(0.12 -0.12)">
       <use xlink:href="#BitstreamVeraSans-Roman-35"/>
      </g>
     </g>
    </g>
    <g id="xtick_5">
     <g id="line2d_9">
      <g>
       <use style="stroke:#000000;stroke-width:0.5;" x="518.4" xlink:href="#m9cd82e058f" y="388.8"/>
      </g>
     </g>
     <g id="line2d_10">
      <g>
       <use style="stroke:#000000;stroke-width:0.5;" x="518.4" xlink:href="#ma1748f5bbf" y="43.2"/>
      </g>
     </g>
     <g id="text_5">
      <!-- 10 -->
      <g transform="translate(510.765 401.918125)scale(0.12 -0.12)">
       <use xlink:href="#BitstreamVeraSans-Roman-31"/>
       <use x="63.623046875" xlink:href="#BitstreamVeraSans-Roman-30"/>
      </g>
     </g>
    </g>
   </g>
   <g id="matplotlib.axis_2">
    <g id="ytick_1">
     <g id="line2d_11">
      <defs>
       <path d="M 0 0 
L 4 0 
" id="m7bff06e429" style="stroke:#000000;stroke-width:0.5;"/>
      </defs>
      <g>
       <use style="stroke:#000000;stroke-width:0.5;" x="72.0" xlink:href="#m7bff06e429" y="388.8"/>
      </g>
     </g>
     <g id="line2d_12">
      <defs>
       <path d="M 0 0 
L -4 0 
" id="m2dc524eec3" style="stroke:#000000;stroke-width:0.5;"/>
      </defs>
      <g>
       <use style="stroke:#000000;stroke-width:0.5;" x="518.4" xlink:href="#m2dc524eec3" y="388.8"/>
      </g>
     </g>
     <g id="text_6">
      <!-- −10 -->
      <g transform="translate(42.674375 392.11125)scale(0.12 -0.12)">
       <use xlink:href="#BitstreamVeraSans-Roman-2212"/>
       <use x="83.7890625" xlink:href="#BitstreamVeraSans-Roman-31"/>
       <use x="147.412109375" xlink:href="#BitstreamVeraSans-Roman-30"/>
      </g>
     </g>
    </g>
    <g id="ytick_2">
     <g id="line2d_13">
      <g>
       <use style="stroke:#000000;stroke-width:0.5;" x="72.0" xlink:href="#m7bff06e429" y="302.4"/>
      </g>
     </g>
     <g id="line2d_14">
      <g>
       <use style="stroke:#000000;stroke-width:0.5;" x="518.4" xlink:href="#m2dc524eec3" y="302.4"/>
      </g>
     </g>
     <g id="text_7">
      <!-- −5 -->
      <g transform="translate(50.309375 305.71125)scale(0.12 -0.12)">
       <use xlink:href="#BitstreamVeraSans-Roman-2212"/>
       <use x="83.7890625" xlink:href="#BitstreamVeraSans-Roman-35"/>
      </g>
     </g>
    </g>
    <g id="ytick_3">
     <g id="line2d_15">
      <g>
       <use style="stroke:#000000;stroke-width:0.5;" x="72.0" xlink:href="#m7bff06e429" y="216.0"/>
      </g>
     </g>
     <g id="line2d_16">
      <g>
       <use style="stroke:#000000;stroke-width:0.5;" x="518.4" xlink:href="#m2dc524eec3" y="216.0"/>
      </g>
     </g>
     <g id="text_8">
      <!-- 0 -->
      <g transform="translate(60.365 219.31125)scale(0.12 -0.12)">
       <use xlink:href="#BitstreamVeraSans-Roman-30"/>
      </g>
     </g>
    </g>
    <g id="ytick_4">
     <g id="line2d_17">
      <g>
       <use style="stroke:#000000;stroke-width:0.5;" x="72.0" xlink:href="#m7bff06e429" y="129.6"/>
      </g>
     </g>
     <g id="line2d_18">
      <g>
       <use style="stroke:#000000;stroke-width:0.5;" x="518.4" xlink:href="#m2dc524eec3" y="129.6"/>
      </g>
     </g>
     <g id="text_9">
      <!-- 5 -->
      <g transform="translate(60.365 132.91125)scale(0.12 -0.12)">
       <use xlink:href="#BitstreamVeraSans-Roman-35"/>
      </g>
     </g>
    </g>
    <g id="ytick_5">
     <g id="line2d_19">
      <g>
       <use style="stroke:#000000;stroke-width:0.5;" x="72.0" xlink:href="#m7bff06e429" y="43.2"/>
      </g>
     </g>
     <g id="line2d_20">
      <g>
       <use style="stroke:#000000;stroke-width:0.5;" x="518.4" xlink:href="#m2dc524eec3" y="43.2"/>
      </g>
     </g>
     <g id="text_10">
      <!-- 10 -->
      <g transform="translate(52.73 46.51125)scale(0.12 -0.12)">
       <use xlink:href="#BitstreamVeraSans-Roman-31"/>
       <use x="63.623046875" xlink:href="#BitstreamVeraSans-Roman-30"/>
      </g>
     </g>
    </g>
   </g>
  </g>
 </g>
 <defs>
  <clipPath id="pd3eaa1480e">
   <rect height="345.6" width="446.4" x="72.0" y="43.2"/>
  </clipPath>
 </defs>
</svg>
