<?xml version="1.0" encoding="utf-8" standalone="no"?>
<!DOCTYPE svg PUBLIC "-//W3C//DTD SVG 1.1//EN"
  "http://www.w3.org/Graphics/SVG/1.1/DTD/svg11.dtd">
<!-- Created with matplotlib (http://matplotlib.org/) -->
<svg height="432pt" version="1.1" viewBox="0 0 576 432" width="576pt" xmlns="http://www.w3.org/2000/svg" xmlns:xlink="http://www.w3.org/1999/xlink">
 <defs>
  <style type="text/css">
*{stroke-linecap:butt;stroke-linejoin:round;stroke-miterlimit:100000;}
  </style>
 </defs>
 <g id="figure_1">
  <g id="patch_1">
   <path d="M 0 432 
L 576 432 
L 576 0 
L 0 0 
z
" style="fill:#ffffff;"/>
  </g>
  <g id="axes_1">
   <g id="patch_2">
    <path d="M 72 388.8 
L 518.4 388.8 
L 518.4 43.2 
L 72 43.2 
z
" style="fill:#ffffff;"/>
   </g>
   <g id="PathCollection_1">
    <defs>
     <path d="M 0 0.5 
C 0.132602 0.5 0.25979 0.447317 0.353553 0.353553 
C 0.447317 0.25979 0.5 0.132602 0.5 0 
C 0.5 -0.132602 0.447317 -0.25979 0.353553 -0.353553 
C 0.25979 -0.447317 0.132602 -0.5 0 -0.5 
C -0.132602 -0.5 -0.25979 -0.447317 -0.353553 -0.353553 
C -0.447317 -0.25979 -0.5 -0.132602 -0.5 0 
C -0.5 0.132602 -0.447317 0.25979 -0.353553 0.353553 
C -0.25979 0.447317 -0.132602 0.5 0 0.5 
z
" id="m7300f89e8c" style="stroke:#000000;"/>
    </defs>
    <g clip-path="url(#p14869195a9)">
     <use style="stroke:#000000;" x="323.506496441" xlink:href="#m7300f89e8c" y="205.48194916"/>
     <use style="stroke:#000000;" x="319.776417839" xlink:href="#m7300f89e8c" y="164.16"/>
     <use style="stroke:#000000;" x="295.2" xlink:href="#m7300f89e8c" y="216.0"/>
     <use style="stroke:#000000;" x="295.2" xlink:href="#m7300f89e8c" y="216.0"/>
     <use style="stroke:#000000;" x="296.028712886" xlink:href="#m7300f89e8c" y="216.0"/>
     <use style="stroke:#000000;" x="326.504589233" xlink:href="#m7300f89e8c" y="216.0"/>
     <use style="stroke:#000000;" x="295.2" xlink:href="#m7300f89e8c" y="216.0"/>
     <use style="stroke:#000000;" x="319.395408572" xlink:href="#m7300f89e8c" y="216.0"/>
     <use style="stroke:#000000;" x="307.929105789" xlink:href="#m7300f89e8c" y="212.521484848"/>
     <use style="stroke:#000000;" x="317.996241033" xlink:href="#m7300f89e8c" y="216.0"/>
     <use style="stroke:#000000;" x="295.2" xlink:href="#m7300f89e8c" y="216.0"/>
     <use style="stroke:#000000;" x="343.764730226" xlink:href="#m7300f89e8c" y="198.706815226"/>
     <use style="stroke:#000000;" x="322.082484249" xlink:href="#m7300f89e8c" y="216.0"/>
     <use style="stroke:#000000;" x="295.2" xlink:href="#m7300f89e8c" y="216.0"/>
     <use style="stroke:#000000;" x="315.1122853" xlink:href="#m7300f89e8c" y="204.476936847"/>
     <use style="stroke:#000000;" x="307.835294885" xlink:href="#m7300f89e8c" y="197.863261903"/>
     <use style="stroke:#000000;" x="322.139527316" xlink:href="#m7300f89e8c" y="216.0"/>
     <use style="stroke:#000000;" x="328.692261228" xlink:href="#m7300f89e8c" y="216.0"/>
     <use style="stroke:#000000;" x="299.555153009" xlink:href="#m7300f89e8c" y="216.0"/>
     <use style="stroke:#000000;" x="302.623290241" xlink:href="#m7300f89e8c" y="216.0"/>
     <use style="stroke:#000000;" x="297.20380799" xlink:href="#m7300f89e8c" y="216.0"/>
     <use style="stroke:#000000;" x="336.482279027" xlink:href="#m7300f89e8c" y="164.16"/>
     <use style="stroke:#000000;" x="316.845609627" xlink:href="#m7300f89e8c" y="209.359690279"/>
     <use style="stroke:#000000;" x="295.2" xlink:href="#m7300f89e8c" y="216.0"/>
     <use style="stroke:#000000;" x="334.418550168" xlink:href="#m7300f89e8c" y="190.92825725"/>
     <use style="stroke:#000000;" x="295.2" xlink:href="#m7300f89e8c" y="216.0"/>
     <use style="stroke:#000000;" x="317.799343636" xlink:href="#m7300f89e8c" y="194.286039744"/>
     <use style="stroke:#000000;" x="308.6750046" xlink:href="#m7300f89e8c" y="216.0"/>
     <use style="stroke:#000000;" x="295.2" xlink:href="#m7300f89e8c" y="216.0"/>
     <use style="stroke:#000000;" x="296.8910294" xlink:href="#m7300f89e8c" y="216.0"/>
     <use style="stroke:#000000;" x="313.472097747" xlink:href="#m7300f89e8c" y="212.105159449"/>
     <use style="stroke:#000000;" x="308.711473839" xlink:href="#m7300f89e8c" y="216.0"/>
     <use style="stroke:#000000;" x="295.2" xlink:href="#m7300f89e8c" y="216.0"/>
     <use style="stroke:#000000;" x="295.2" xlink:href="#m7300f89e8c" y="216.0"/>
     <use style="stroke:#000000;" x="327.815501242" xlink:href="#m7300f89e8c" y="209.028078702"/>
     <use style="stroke:#000000;" x="319.400126261" xlink:href="#m7300f89e8c" y="201.929053347"/>
     <use style="stroke:#000000;" x="295.2" xlink:href="#m7300f89e8c" y="216.0"/>
     <use style="stroke:#000000;" x="318.980644298" xlink:href="#m7300f89e8c" y="185.982822365"/>
     <use style="stroke:#000000;" x="307.19003428" xlink:href="#m7300f89e8c" y="216.0"/>
     <use style="stroke:#000000;" x="313.413660367" xlink:href="#m7300f89e8c" y="216.0"/>
     <use style="stroke:#000000;" x="295.2" xlink:href="#m7300f89e8c" y="216.0"/>
     <use style="stroke:#000000;" x="295.2" xlink:href="#m7300f89e8c" y="216.0"/>
     <use style="stroke:#000000;" x="315.119075423" xlink:href="#m7300f89e8c" y="212.388379444"/>
     <use style="stroke:#000000;" x="316.653939532" xlink:href="#m7300f89e8c" y="196.750731877"/>
     <use style="stroke:#000000;" x="335.721142269" xlink:href="#m7300f89e8c" y="196.901470015"/>
     <use style="stroke:#000000;" x="314.595362861" xlink:href="#m7300f89e8c" y="216.0"/>
     <use style="stroke:#000000;" x="315.033958275" xlink:href="#m7300f89e8c" y="198.482687047"/>
     <use style="stroke:#000000;" x="323.400478726" xlink:href="#m7300f89e8c" y="204.938966891"/>
     <use style="stroke:#000000;" x="337.160442416" xlink:href="#m7300f89e8c" y="216.0"/>
     <use style="stroke:#000000;" x="298.638824478" xlink:href="#m7300f89e8c" y="216.0"/>
     <use style="stroke:#000000;" x="295.2" xlink:href="#m7300f89e8c" y="216.0"/>
     <use style="stroke:#000000;" x="310.006815569" xlink:href="#m7300f89e8c" y="216.0"/>
     <use style="stroke:#000000;" x="308.268957916" xlink:href="#m7300f89e8c" y="194.056307652"/>
     <use style="stroke:#000000;" x="324.423670809" xlink:href="#m7300f89e8c" y="204.124850677"/>
     <use style="stroke:#000000;" x="296.021207377" xlink:href="#m7300f89e8c" y="216.0"/>
     <use style="stroke:#000000;" x="295.2" xlink:href="#m7300f89e8c" y="216.0"/>
     <use style="stroke:#000000;" x="314.854226903" xlink:href="#m7300f89e8c" y="216.0"/>
     <use style="stroke:#000000;" x="306.646278907" xlink:href="#m7300f89e8c" y="216.0"/>
     <use style="stroke:#000000;" x="327.140575167" xlink:href="#m7300f89e8c" y="214.107821616"/>
     <use style="stroke:#000000;" x="325.754392383" xlink:href="#m7300f89e8c" y="213.088624804"/>
     <use style="stroke:#000000;" x="304.173750849" xlink:href="#m7300f89e8c" y="195.314730592"/>
     <use style="stroke:#000000;" x="295.2" xlink:href="#m7300f89e8c" y="216.0"/>
     <use style="stroke:#000000;" x="298.714294545" xlink:href="#m7300f89e8c" y="216.0"/>
     <use style="stroke:#000000;" x="320.438575844" xlink:href="#m7300f89e8c" y="202.777192867"/>
     <use style="stroke:#000000;" x="318.826985261" xlink:href="#m7300f89e8c" y="200.334668461"/>
     <use style="stroke:#000000;" x="333.788982276" xlink:href="#m7300f89e8c" y="178.33047538"/>
     <use style="stroke:#000000;" x="315.368904204" xlink:href="#m7300f89e8c" y="197.087660027"/>
     <use style="stroke:#000000;" x="302.984002088" xlink:href="#m7300f89e8c" y="199.232509272"/>
     <use style="stroke:#000000;" x="301.495602107" xlink:href="#m7300f89e8c" y="216.0"/>
     <use style="stroke:#000000;" x="301.944846179" xlink:href="#m7300f89e8c" y="200.139229321"/>
     <use style="stroke:#000000;" x="303.324545997" xlink:href="#m7300f89e8c" y="194.176854521"/>
     <use style="stroke:#000000;" x="295.2" xlink:href="#m7300f89e8c" y="216.0"/>
     <use style="stroke:#000000;" x="295.2" xlink:href="#m7300f89e8c" y="216.0"/>
     <use style="stroke:#000000;" x="295.2" xlink:href="#m7300f89e8c" y="216.0"/>
     <use style="stroke:#000000;" x="306.517011068" xlink:href="#m7300f89e8c" y="211.203430152"/>
     <use style="stroke:#000000;" x="296.179506582" xlink:href="#m7300f89e8c" y="216.0"/>
     <use style="stroke:#000000;" x="343.04232256" xlink:href="#m7300f89e8c" y="212.734652597"/>
     <use style="stroke:#000000;" x="301.284174621" xlink:href="#m7300f89e8c" y="216.0"/>
     <use style="stroke:#000000;" x="308.112955903" xlink:href="#m7300f89e8c" y="200.811236327"/>
     <use style="stroke:#000000;" x="295.2" xlink:href="#m7300f89e8c" y="216.0"/>
     <use style="stroke:#000000;" x="297.255011685" xlink:href="#m7300f89e8c" y="216.0"/>
     <use style="stroke:#000000;" x="311.586380334" xlink:href="#m7300f89e8c" y="216.0"/>
     <use style="stroke:#000000;" x="306.995138153" xlink:href="#m7300f89e8c" y="183.570175502"/>
     <use style="stroke:#000000;" x="295.2" xlink:href="#m7300f89e8c" y="216.0"/>
     <use style="stroke:#000000;" x="334.125586789" xlink:href="#m7300f89e8c" y="198.736899082"/>
     <use style="stroke:#000000;" x="295.2" xlink:href="#m7300f89e8c" y="216.0"/>
     <use style="stroke:#000000;" x="295.2" xlink:href="#m7300f89e8c" y="216.0"/>
     <use style="stroke:#000000;" x="313.763317398" xlink:href="#m7300f89e8c" y="199.592912201"/>
     <use style="stroke:#000000;" x="295.2" xlink:href="#m7300f89e8c" y="216.0"/>
     <use style="stroke:#000000;" x="295.2" xlink:href="#m7300f89e8c" y="216.0"/>
     <use style="stroke:#000000;" x="295.2" xlink:href="#m7300f89e8c" y="216.0"/>
     <use style="stroke:#000000;" x="309.746272594" xlink:href="#m7300f89e8c" y="207.289086289"/>
     <use style="stroke:#000000;" x="298.792594377" xlink:href="#m7300f89e8c" y="216.0"/>
     <use style="stroke:#000000;" x="340.890043481" xlink:href="#m7300f89e8c" y="206.731756669"/>
     <use style="stroke:#000000;" x="295.2" xlink:href="#m7300f89e8c" y="216.0"/>
     <use style="stroke:#000000;" x="333.344867371" xlink:href="#m7300f89e8c" y="210.938901098"/>
     <use style="stroke:#000000;" x="295.2" xlink:href="#m7300f89e8c" y="216.0"/>
     <use style="stroke:#000000;" x="302.82424885" xlink:href="#m7300f89e8c" y="216.0"/>
     <use style="stroke:#000000;" x="330.150420023" xlink:href="#m7300f89e8c" y="180.689892326"/>
     <use style="stroke:#000000;" x="311.664060877" xlink:href="#m7300f89e8c" y="216.0"/>
     <use style="stroke:#000000;" x="324.851847889" xlink:href="#m7300f89e8c" y="216.0"/>
     <use style="stroke:#000000;" x="305.600335567" xlink:href="#m7300f89e8c" y="202.873640646"/>
     <use style="stroke:#000000;" x="295.2" xlink:href="#m7300f89e8c" y="216.0"/>
     <use style="stroke:#000000;" x="328.537173813" xlink:href="#m7300f89e8c" y="216.0"/>
     <use style="stroke:#000000;" x="377.035353538" xlink:href="#m7300f89e8c" y="186.424670276"/>
     <use style="stroke:#000000;" x="327.276594164" xlink:href="#m7300f89e8c" y="206.451295159"/>
     <use style="stroke:#000000;" x="329.075917176" xlink:href="#m7300f89e8c" y="216.0"/>
     <use style="stroke:#000000;" x="384.142577217" xlink:href="#m7300f89e8c" y="210.358733102"/>
     <use style="stroke:#000000;" x="313.514298362" xlink:href="#m7300f89e8c" y="216.0"/>
     <use style="stroke:#000000;" x="327.792040617" xlink:href="#m7300f89e8c" y="216.0"/>
     <use style="stroke:#000000;" x="295.2" xlink:href="#m7300f89e8c" y="216.0"/>
     <use style="stroke:#000000;" x="374.433973128" xlink:href="#m7300f89e8c" y="189.954607746"/>
     <use style="stroke:#000000;" x="333.5503024" xlink:href="#m7300f89e8c" y="208.868616922"/>
     <use style="stroke:#000000;" x="319.812676922" xlink:href="#m7300f89e8c" y="187.116385008"/>
     <use style="stroke:#000000;" x="378.39234736" xlink:href="#m7300f89e8c" y="164.16"/>
     <use style="stroke:#000000;" x="311.207411171" xlink:href="#m7300f89e8c" y="216.0"/>
     <use style="stroke:#000000;" x="302.473576285" xlink:href="#m7300f89e8c" y="205.870970343"/>
     <use style="stroke:#000000;" x="406.8" xlink:href="#m7300f89e8c" y="164.16"/>
     <use style="stroke:#000000;" x="331.560690978" xlink:href="#m7300f89e8c" y="178.338989197"/>
     <use style="stroke:#000000;" x="295.2" xlink:href="#m7300f89e8c" y="216.0"/>
     <use style="stroke:#000000;" x="295.2" xlink:href="#m7300f89e8c" y="216.0"/>
     <use style="stroke:#000000;" x="295.2" xlink:href="#m7300f89e8c" y="216.0"/>
     <use style="stroke:#000000;" x="295.2" xlink:href="#m7300f89e8c" y="216.0"/>
     <use style="stroke:#000000;" x="295.2" xlink:href="#m7300f89e8c" y="216.0"/>
     <use style="stroke:#000000;" x="295.2" xlink:href="#m7300f89e8c" y="216.0"/>
     <use style="stroke:#000000;" x="295.2" xlink:href="#m7300f89e8c" y="216.0"/>
     <use style="stroke:#000000;" x="295.2" xlink:href="#m7300f89e8c" y="216.0"/>
     <use style="stroke:#000000;" x="295.2" xlink:href="#m7300f89e8c" y="216.0"/>
     <use style="stroke:#000000;" x="295.2" xlink:href="#m7300f89e8c" y="216.0"/>
     <use style="stroke:#000000;" x="295.2" xlink:href="#m7300f89e8c" y="216.0"/>
     <use style="stroke:#000000;" x="295.2" xlink:href="#m7300f89e8c" y="216.0"/>
     <use style="stroke:#000000;" x="295.2" xlink:href="#m7300f89e8c" y="216.0"/>
     <use style="stroke:#000000;" x="295.2" xlink:href="#m7300f89e8c" y="216.0"/>
     <use style="stroke:#000000;" x="295.2" xlink:href="#m7300f89e8c" y="216.0"/>
     <use style="stroke:#000000;" x="295.2" xlink:href="#m7300f89e8c" y="216.0"/>
     <use style="stroke:#000000;" x="295.2" xlink:href="#m7300f89e8c" y="216.0"/>
     <use style="stroke:#000000;" x="295.2" xlink:href="#m7300f89e8c" y="216.0"/>
     <use style="stroke:#000000;" x="295.2" xlink:href="#m7300f89e8c" y="216.0"/>
     <use style="stroke:#000000;" x="295.2" xlink:href="#m7300f89e8c" y="216.0"/>
     <use style="stroke:#000000;" x="295.2" xlink:href="#m7300f89e8c" y="216.0"/>
     <use style="stroke:#000000;" x="295.2" xlink:href="#m7300f89e8c" y="216.0"/>
     <use style="stroke:#000000;" x="295.2" xlink:href="#m7300f89e8c" y="216.0"/>
     <use style="stroke:#000000;" x="295.2" xlink:href="#m7300f89e8c" y="216.0"/>
     <use style="stroke:#000000;" x="295.2" xlink:href="#m7300f89e8c" y="216.0"/>
     <use style="stroke:#000000;" x="295.2" xlink:href="#m7300f89e8c" y="216.0"/>
     <use style="stroke:#000000;" x="295.2" xlink:href="#m7300f89e8c" y="216.0"/>
     <use style="stroke:#000000;" x="295.2" xlink:href="#m7300f89e8c" y="216.0"/>
     <use style="stroke:#000000;" x="295.2" xlink:href="#m7300f89e8c" y="216.0"/>
     <use style="stroke:#000000;" x="295.2" xlink:href="#m7300f89e8c" y="216.0"/>
     <use style="stroke:#000000;" x="295.2" xlink:href="#m7300f89e8c" y="216.0"/>
     <use style="stroke:#000000;" x="295.2" xlink:href="#m7300f89e8c" y="216.0"/>
     <use style="stroke:#000000;" x="295.2" xlink:href="#m7300f89e8c" y="216.0"/>
     <use style="stroke:#000000;" x="295.2" xlink:href="#m7300f89e8c" y="216.0"/>
     <use style="stroke:#000000;" x="295.2" xlink:href="#m7300f89e8c" y="216.0"/>
     <use style="stroke:#000000;" x="295.2" xlink:href="#m7300f89e8c" y="216.0"/>
     <use style="stroke:#000000;" x="295.2" xlink:href="#m7300f89e8c" y="216.0"/>
     <use style="stroke:#000000;" x="295.2" xlink:href="#m7300f89e8c" y="216.0"/>
     <use style="stroke:#000000;" x="295.2" xlink:href="#m7300f89e8c" y="216.0"/>
     <use style="stroke:#000000;" x="295.2" xlink:href="#m7300f89e8c" y="216.0"/>
     <use style="stroke:#000000;" x="295.2" xlink:href="#m7300f89e8c" y="216.0"/>
     <use style="stroke:#000000;" x="295.2" xlink:href="#m7300f89e8c" y="216.0"/>
     <use style="stroke:#000000;" x="295.2" xlink:href="#m7300f89e8c" y="216.0"/>
     <use style="stroke:#000000;" x="295.2" xlink:href="#m7300f89e8c" y="216.0"/>
     <use style="stroke:#000000;" x="295.2" xlink:href="#m7300f89e8c" y="216.0"/>
     <use style="stroke:#000000;" x="295.2" xlink:href="#m7300f89e8c" y="216.0"/>
     <use style="stroke:#000000;" x="295.2" xlink:href="#m7300f89e8c" y="216.0"/>
     <use style="stroke:#000000;" x="295.2" xlink:href="#m7300f89e8c" y="216.0"/>
     <use style="stroke:#000000;" x="295.2" xlink:href="#m7300f89e8c" y="216.0"/>
     <use style="stroke:#000000;" x="295.2" xlink:href="#m7300f89e8c" y="216.0"/>
     <use style="stroke:#000000;" x="295.2" xlink:href="#m7300f89e8c" y="216.0"/>
     <use style="stroke:#000000;" x="295.2" xlink:href="#m7300f89e8c" y="216.0"/>
     <use style="stroke:#000000;" x="295.2" xlink:href="#m7300f89e8c" y="216.0"/>
     <use style="stroke:#000000;" x="295.2" xlink:href="#m7300f89e8c" y="216.0"/>
     <use style="stroke:#000000;" x="295.2" xlink:href="#m7300f89e8c" y="216.0"/>
     <use style="stroke:#000000;" x="295.2" xlink:href="#m7300f89e8c" y="216.0"/>
     <use style="stroke:#000000;" x="295.2" xlink:href="#m7300f89e8c" y="216.0"/>
     <use style="stroke:#000000;" x="295.2" xlink:href="#m7300f89e8c" y="216.0"/>
     <use style="stroke:#000000;" x="295.2" xlink:href="#m7300f89e8c" y="216.0"/>
     <use style="stroke:#000000;" x="295.2" xlink:href="#m7300f89e8c" y="216.0"/>
     <use style="stroke:#000000;" x="295.2" xlink:href="#m7300f89e8c" y="216.0"/>
     <use style="stroke:#000000;" x="295.2" xlink:href="#m7300f89e8c" y="216.0"/>
     <use style="stroke:#000000;" x="295.2" xlink:href="#m7300f89e8c" y="216.0"/>
     <use style="stroke:#000000;" x="295.2" xlink:href="#m7300f89e8c" y="216.0"/>
     <use style="stroke:#000000;" x="295.2" xlink:href="#m7300f89e8c" y="216.0"/>
     <use style="stroke:#000000;" x="295.2" xlink:href="#m7300f89e8c" y="216.0"/>
     <use style="stroke:#000000;" x="295.2" xlink:href="#m7300f89e8c" y="216.0"/>
     <use style="stroke:#000000;" x="295.2" xlink:href="#m7300f89e8c" y="216.0"/>
     <use style="stroke:#000000;" x="295.2" xlink:href="#m7300f89e8c" y="216.0"/>
     <use style="stroke:#000000;" x="295.2" xlink:href="#m7300f89e8c" y="216.0"/>
     <use style="stroke:#000000;" x="295.2" xlink:href="#m7300f89e8c" y="216.0"/>
     <use style="stroke:#000000;" x="295.2" xlink:href="#m7300f89e8c" y="216.0"/>
     <use style="stroke:#000000;" x="295.2" xlink:href="#m7300f89e8c" y="216.0"/>
     <use style="stroke:#000000;" x="295.2" xlink:href="#m7300f89e8c" y="216.0"/>
     <use style="stroke:#000000;" x="295.2" xlink:href="#m7300f89e8c" y="216.0"/>
     <use style="stroke:#000000;" x="295.2" xlink:href="#m7300f89e8c" y="216.0"/>
     <use style="stroke:#000000;" x="295.2" xlink:href="#m7300f89e8c" y="216.0"/>
     <use style="stroke:#000000;" x="295.2" xlink:href="#m7300f89e8c" y="216.0"/>
     <use style="stroke:#000000;" x="295.2" xlink:href="#m7300f89e8c" y="216.0"/>
     <use style="stroke:#000000;" x="295.2" xlink:href="#m7300f89e8c" y="216.0"/>
     <use style="stroke:#000000;" x="295.2" xlink:href="#m7300f89e8c" y="216.0"/>
     <use style="stroke:#000000;" x="295.2" xlink:href="#m7300f89e8c" y="216.0"/>
     <use style="stroke:#000000;" x="295.2" xlink:href="#m7300f89e8c" y="216.0"/>
     <use style="stroke:#000000;" x="295.2" xlink:href="#m7300f89e8c" y="216.0"/>
     <use style="stroke:#000000;" x="295.2" xlink:href="#m7300f89e8c" y="216.0"/>
     <use style="stroke:#000000;" x="295.2" xlink:href="#m7300f89e8c" y="216.0"/>
     <use style="stroke:#000000;" x="295.2" xlink:href="#m7300f89e8c" y="216.0"/>
     <use style="stroke:#000000;" x="295.2" xlink:href="#m7300f89e8c" y="216.0"/>
     <use style="stroke:#000000;" x="295.2" xlink:href="#m7300f89e8c" y="216.0"/>
     <use style="stroke:#000000;" x="295.2" xlink:href="#m7300f89e8c" y="216.0"/>
     <use style="stroke:#000000;" x="295.2" xlink:href="#m7300f89e8c" y="216.0"/>
     <use style="stroke:#000000;" x="295.2" xlink:href="#m7300f89e8c" y="216.0"/>
     <use style="stroke:#000000;" x="295.2" xlink:href="#m7300f89e8c" y="216.0"/>
     <use style="stroke:#000000;" x="295.2" xlink:href="#m7300f89e8c" y="216.0"/>
     <use style="stroke:#000000;" x="295.2" xlink:href="#m7300f89e8c" y="216.0"/>
     <use style="stroke:#000000;" x="295.2" xlink:href="#m7300f89e8c" y="216.0"/>
     <use style="stroke:#000000;" x="295.2" xlink:href="#m7300f89e8c" y="216.0"/>
     <use style="stroke:#000000;" x="295.2" xlink:href="#m7300f89e8c" y="216.0"/>
     <use style="stroke:#000000;" x="295.2" xlink:href="#m7300f89e8c" y="216.0"/>
     <use style="stroke:#000000;" x="295.2" xlink:href="#m7300f89e8c" y="216.0"/>
     <use style="stroke:#000000;" x="295.2" xlink:href="#m7300f89e8c" y="216.0"/>
     <use style="stroke:#000000;" x="295.2" xlink:href="#m7300f89e8c" y="216.0"/>
     <use style="stroke:#000000;" x="295.2" xlink:href="#m7300f89e8c" y="216.0"/>
     <use style="stroke:#000000;" x="295.2" xlink:href="#m7300f89e8c" y="216.0"/>
     <use style="stroke:#000000;" x="295.2" xlink:href="#m7300f89e8c" y="216.0"/>
     <use style="stroke:#000000;" x="295.2" xlink:href="#m7300f89e8c" y="216.0"/>
     <use style="stroke:#000000;" x="295.2" xlink:href="#m7300f89e8c" y="216.0"/>
     <use style="stroke:#000000;" x="295.2" xlink:href="#m7300f89e8c" y="216.0"/>
     <use style="stroke:#000000;" x="295.2" xlink:href="#m7300f89e8c" y="216.0"/>
     <use style="stroke:#000000;" x="295.2" xlink:href="#m7300f89e8c" y="216.0"/>
     <use style="stroke:#000000;" x="295.2" xlink:href="#m7300f89e8c" y="216.0"/>
     <use style="stroke:#000000;" x="295.2" xlink:href="#m7300f89e8c" y="216.0"/>
     <use style="stroke:#000000;" x="295.2" xlink:href="#m7300f89e8c" y="216.0"/>
     <use style="stroke:#000000;" x="295.2" xlink:href="#m7300f89e8c" y="216.0"/>
     <use style="stroke:#000000;" x="295.2" xlink:href="#m7300f89e8c" y="216.0"/>
     <use style="stroke:#000000;" x="295.2" xlink:href="#m7300f89e8c" y="216.0"/>
     <use style="stroke:#000000;" x="295.2" xlink:href="#m7300f89e8c" y="216.0"/>
     <use style="stroke:#000000;" x="295.2" xlink:href="#m7300f89e8c" y="216.0"/>
     <use style="stroke:#000000;" x="295.2" xlink:href="#m7300f89e8c" y="216.0"/>
     <use style="stroke:#000000;" x="295.2" xlink:href="#m7300f89e8c" y="216.0"/>
     <use style="stroke:#000000;" x="295.2" xlink:href="#m7300f89e8c" y="216.0"/>
    </g>
   </g>
   <g id="PathCollection_2">
    <defs>
     <path d="M 0 1.936492 
C 0.513564 1.936492 1.006162 1.732451 1.369306 1.369306 
C 1.732451 1.006162 1.936492 0.513564 1.936492 0 
C 1.936492 -0.513564 1.732451 -1.006162 1.369306 -1.369306 
C 1.006162 -1.732451 0.513564 -1.936492 0 -1.936492 
C -0.513564 -1.936492 -1.006162 -1.732451 -1.369306 -1.369306 
C -1.732451 -1.006162 -1.936492 -0.513564 -1.936492 0 
C -1.936492 0.513564 -1.732451 1.006162 -1.369306 1.369306 
C -1.006162 1.732451 -0.513564 1.936492 0 1.936492 
z
" id="md492c70a42" style="stroke:#000000;"/>
    </defs>
    <g clip-path="url(#p14869195a9)">
     <use style="fill:#0000ff;stroke:#000000;" x="323.506496441" xlink:href="#md492c70a42" y="205.48194916"/>
     <use style="fill:#0000ff;stroke:#000000;" x="319.776417839" xlink:href="#md492c70a42" y="164.16"/>
     <use style="fill:#0000ff;stroke:#000000;" x="295.2" xlink:href="#md492c70a42" y="216.0"/>
     <use style="fill:#0000ff;stroke:#000000;" x="295.2" xlink:href="#md492c70a42" y="216.0"/>
     <use style="fill:#0000ff;stroke:#000000;" x="296.028712886" xlink:href="#md492c70a42" y="216.0"/>
     <use style="fill:#0000ff;stroke:#000000;" x="326.504589233" xlink:href="#md492c70a42" y="216.0"/>
     <use style="fill:#0000ff;stroke:#000000;" x="295.2" xlink:href="#md492c70a42" y="216.0"/>
     <use style="fill:#0000ff;stroke:#000000;" x="319.395408572" xlink:href="#md492c70a42" y="216.0"/>
     <use style="fill:#0000ff;stroke:#000000;" x="307.929105789" xlink:href="#md492c70a42" y="212.521484848"/>
     <use style="fill:#0000ff;stroke:#000000;" x="317.996241033" xlink:href="#md492c70a42" y="216.0"/>
     <use style="fill:#0000ff;stroke:#000000;" x="295.2" xlink:href="#md492c70a42" y="216.0"/>
     <use style="fill:#0000ff;stroke:#000000;" x="343.764730226" xlink:href="#md492c70a42" y="198.706815226"/>
     <use style="fill:#0000ff;stroke:#000000;" x="322.082484249" xlink:href="#md492c70a42" y="216.0"/>
     <use style="fill:#0000ff;stroke:#000000;" x="295.2" xlink:href="#md492c70a42" y="216.0"/>
     <use style="fill:#0000ff;stroke:#000000;" x="315.1122853" xlink:href="#md492c70a42" y="204.476936847"/>
     <use style="fill:#0000ff;stroke:#000000;" x="307.835294885" xlink:href="#md492c70a42" y="197.863261903"/>
     <use style="fill:#0000ff;stroke:#000000;" x="322.139527316" xlink:href="#md492c70a42" y="216.0"/>
     <use style="fill:#0000ff;stroke:#000000;" x="328.692261228" xlink:href="#md492c70a42" y="216.0"/>
     <use style="fill:#0000ff;stroke:#000000;" x="299.555153009" xlink:href="#md492c70a42" y="216.0"/>
     <use style="fill:#0000ff;stroke:#000000;" x="302.623290241" xlink:href="#md492c70a42" y="216.0"/>
     <use style="fill:#0000ff;stroke:#000000;" x="297.20380799" xlink:href="#md492c70a42" y="216.0"/>
     <use style="fill:#0000ff;stroke:#000000;" x="336.482279027" xlink:href="#md492c70a42" y="164.16"/>
     <use style="fill:#0000ff;stroke:#000000;" x="316.845609627" xlink:href="#md492c70a42" y="209.359690279"/>
     <use style="fill:#0000ff;stroke:#000000;" x="295.2" xlink:href="#md492c70a42" y="216.0"/>
     <use style="fill:#0000ff;stroke:#000000;" x="334.418550168" xlink:href="#md492c70a42" y="190.92825725"/>
     <use style="fill:#0000ff;stroke:#000000;" x="295.2" xlink:href="#md492c70a42" y="216.0"/>
     <use style="fill:#0000ff;stroke:#000000;" x="317.799343636" xlink:href="#md492c70a42" y="194.286039744"/>
     <use style="fill:#0000ff;stroke:#000000;" x="308.6750046" xlink:href="#md492c70a42" y="216.0"/>
     <use style="fill:#0000ff;stroke:#000000;" x="295.2" xlink:href="#md492c70a42" y="216.0"/>
     <use style="fill:#0000ff;stroke:#000000;" x="296.8910294" xlink:href="#md492c70a42" y="216.0"/>
     <use style="fill:#0000ff;stroke:#000000;" x="313.472097747" xlink:href="#md492c70a42" y="212.105159449"/>
     <use style="fill:#0000ff;stroke:#000000;" x="308.711473839" xlink:href="#md492c70a42" y="216.0"/>
     <use style="fill:#0000ff;stroke:#000000;" x="295.2" xlink:href="#md492c70a42" y="216.0"/>
     <use style="fill:#0000ff;stroke:#000000;" x="295.2" xlink:href="#md492c70a42" y="216.0"/>
     <use style="fill:#0000ff;stroke:#000000;" x="327.815501242" xlink:href="#md492c70a42" y="209.028078702"/>
     <use style="fill:#0000ff;stroke:#000000;" x="319.400126261" xlink:href="#md492c70a42" y="201.929053347"/>
     <use style="fill:#0000ff;stroke:#000000;" x="295.2" xlink:href="#md492c70a42" y="216.0"/>
     <use style="fill:#0000ff;stroke:#000000;" x="318.980644298" xlink:href="#md492c70a42" y="185.982822365"/>
     <use style="fill:#0000ff;stroke:#000000;" x="307.19003428" xlink:href="#md492c70a42" y="216.0"/>
     <use style="fill:#0000ff;stroke:#000000;" x="313.413660367" xlink:href="#md492c70a42" y="216.0"/>
     <use style="fill:#0000ff;stroke:#000000;" x="295.2" xlink:href="#md492c70a42" y="216.0"/>
     <use style="fill:#0000ff;stroke:#000000;" x="295.2" xlink:href="#md492c70a42" y="216.0"/>
     <use style="fill:#0000ff;stroke:#000000;" x="315.119075423" xlink:href="#md492c70a42" y="212.388379444"/>
     <use style="fill:#0000ff;stroke:#000000;" x="316.653939532" xlink:href="#md492c70a42" y="196.750731877"/>
     <use style="fill:#0000ff;stroke:#000000;" x="335.721142269" xlink:href="#md492c70a42" y="196.901470015"/>
     <use style="fill:#0000ff;stroke:#000000;" x="314.595362861" xlink:href="#md492c70a42" y="216.0"/>
     <use style="fill:#0000ff;stroke:#000000;" x="315.033958275" xlink:href="#md492c70a42" y="198.482687047"/>
     <use style="fill:#0000ff;stroke:#000000;" x="323.400478726" xlink:href="#md492c70a42" y="204.938966891"/>
     <use style="fill:#0000ff;stroke:#000000;" x="337.160442416" xlink:href="#md492c70a42" y="216.0"/>
     <use style="fill:#0000ff;stroke:#000000;" x="298.638824478" xlink:href="#md492c70a42" y="216.0"/>
     <use style="fill:#0000ff;stroke:#000000;" x="295.2" xlink:href="#md492c70a42" y="216.0"/>
     <use style="fill:#0000ff;stroke:#000000;" x="310.006815569" xlink:href="#md492c70a42" y="216.0"/>
     <use style="fill:#0000ff;stroke:#000000;" x="308.268957916" xlink:href="#md492c70a42" y="194.056307652"/>
     <use style="fill:#0000ff;stroke:#000000;" x="324.423670809" xlink:href="#md492c70a42" y="204.124850677"/>
     <use style="fill:#0000ff;stroke:#000000;" x="296.021207377" xlink:href="#md492c70a42" y="216.0"/>
     <use style="fill:#0000ff;stroke:#000000;" x="295.2" xlink:href="#md492c70a42" y="216.0"/>
     <use style="fill:#0000ff;stroke:#000000;" x="314.854226903" xlink:href="#md492c70a42" y="216.0"/>
     <use style="fill:#0000ff;stroke:#000000;" x="306.646278907" xlink:href="#md492c70a42" y="216.0"/>
     <use style="fill:#0000ff;stroke:#000000;" x="327.140575167" xlink:href="#md492c70a42" y="214.107821616"/>
     <use style="fill:#0000ff;stroke:#000000;" x="325.754392383" xlink:href="#md492c70a42" y="213.088624804"/>
     <use style="fill:#0000ff;stroke:#000000;" x="304.173750849" xlink:href="#md492c70a42" y="195.314730592"/>
     <use style="fill:#0000ff;stroke:#000000;" x="295.2" xlink:href="#md492c70a42" y="216.0"/>
     <use style="fill:#0000ff;stroke:#000000;" x="298.714294545" xlink:href="#md492c70a42" y="216.0"/>
     <use style="fill:#0000ff;stroke:#000000;" x="320.438575844" xlink:href="#md492c70a42" y="202.777192867"/>
     <use style="fill:#0000ff;stroke:#000000;" x="318.826985261" xlink:href="#md492c70a42" y="200.334668461"/>
     <use style="fill:#0000ff;stroke:#000000;" x="333.788982276" xlink:href="#md492c70a42" y="178.33047538"/>
     <use style="fill:#0000ff;stroke:#000000;" x="315.368904204" xlink:href="#md492c70a42" y="197.087660027"/>
     <use style="fill:#0000ff;stroke:#000000;" x="302.984002088" xlink:href="#md492c70a42" y="199.232509272"/>
     <use style="fill:#0000ff;stroke:#000000;" x="301.495602107" xlink:href="#md492c70a42" y="216.0"/>
     <use style="fill:#0000ff;stroke:#000000;" x="301.944846179" xlink:href="#md492c70a42" y="200.139229321"/>
     <use style="fill:#0000ff;stroke:#000000;" x="303.324545997" xlink:href="#md492c70a42" y="194.176854521"/>
     <use style="fill:#0000ff;stroke:#000000;" x="295.2" xlink:href="#md492c70a42" y="216.0"/>
     <use style="fill:#0000ff;stroke:#000000;" x="295.2" xlink:href="#md492c70a42" y="216.0"/>
     <use style="fill:#0000ff;stroke:#000000;" x="295.2" xlink:href="#md492c70a42" y="216.0"/>
     <use style="fill:#0000ff;stroke:#000000;" x="306.517011068" xlink:href="#md492c70a42" y="211.203430152"/>
     <use style="fill:#0000ff;stroke:#000000;" x="296.179506582" xlink:href="#md492c70a42" y="216.0"/>
     <use style="fill:#0000ff;stroke:#000000;" x="343.04232256" xlink:href="#md492c70a42" y="212.734652597"/>
     <use style="fill:#0000ff;stroke:#000000;" x="301.284174621" xlink:href="#md492c70a42" y="216.0"/>
     <use style="fill:#0000ff;stroke:#000000;" x="308.112955903" xlink:href="#md492c70a42" y="200.811236327"/>
     <use style="fill:#0000ff;stroke:#000000;" x="295.2" xlink:href="#md492c70a42" y="216.0"/>
     <use style="fill:#0000ff;stroke:#000000;" x="297.255011685" xlink:href="#md492c70a42" y="216.0"/>
     <use style="fill:#0000ff;stroke:#000000;" x="311.586380334" xlink:href="#md492c70a42" y="216.0"/>
     <use style="fill:#0000ff;stroke:#000000;" x="306.995138153" xlink:href="#md492c70a42" y="183.570175502"/>
     <use style="fill:#0000ff;stroke:#000000;" x="295.2" xlink:href="#md492c70a42" y="216.0"/>
     <use style="fill:#0000ff;stroke:#000000;" x="334.125586789" xlink:href="#md492c70a42" y="198.736899082"/>
     <use style="fill:#0000ff;stroke:#000000;" x="295.2" xlink:href="#md492c70a42" y="216.0"/>
     <use style="fill:#0000ff;stroke:#000000;" x="295.2" xlink:href="#md492c70a42" y="216.0"/>
     <use style="fill:#0000ff;stroke:#000000;" x="313.763317398" xlink:href="#md492c70a42" y="199.592912201"/>
     <use style="fill:#0000ff;stroke:#000000;" x="295.2" xlink:href="#md492c70a42" y="216.0"/>
     <use style="fill:#0000ff;stroke:#000000;" x="295.2" xlink:href="#md492c70a42" y="216.0"/>
     <use style="fill:#0000ff;stroke:#000000;" x="295.2" xlink:href="#md492c70a42" y="216.0"/>
     <use style="fill:#0000ff;stroke:#000000;" x="309.746272594" xlink:href="#md492c70a42" y="207.289086289"/>
     <use style="fill:#0000ff;stroke:#000000;" x="298.792594377" xlink:href="#md492c70a42" y="216.0"/>
     <use style="fill:#0000ff;stroke:#000000;" x="340.890043481" xlink:href="#md492c70a42" y="206.731756669"/>
     <use style="fill:#0000ff;stroke:#000000;" x="295.2" xlink:href="#md492c70a42" y="216.0"/>
     <use style="fill:#0000ff;stroke:#000000;" x="333.344867371" xlink:href="#md492c70a42" y="210.938901098"/>
     <use style="fill:#0000ff;stroke:#000000;" x="295.2" xlink:href="#md492c70a42" y="216.0"/>
     <use style="fill:#0000ff;stroke:#000000;" x="302.82424885" xlink:href="#md492c70a42" y="216.0"/>
     <use style="fill:#0000ff;stroke:#000000;" x="330.150420023" xlink:href="#md492c70a42" y="180.689892326"/>
     <use style="fill:#0000ff;stroke:#000000;" x="311.664060877" xlink:href="#md492c70a42" y="216.0"/>
     <use style="fill:#0000ff;stroke:#000000;" x="324.851847889" xlink:href="#md492c70a42" y="216.0"/>
     <use style="fill:#0000ff;stroke:#000000;" x="305.600335567" xlink:href="#md492c70a42" y="202.873640646"/>
     <use style="fill:#0000ff;stroke:#000000;" x="295.2" xlink:href="#md492c70a42" y="216.0"/>
     <use style="fill:#0000ff;stroke:#000000;" x="328.537173813" xlink:href="#md492c70a42" y="216.0"/>
     <use style="fill:#0000ff;stroke:#000000;" x="377.035353538" xlink:href="#md492c70a42" y="186.424670276"/>
     <use style="fill:#0000ff;stroke:#000000;" x="327.276594164" xlink:href="#md492c70a42" y="206.451295159"/>
     <use style="fill:#0000ff;stroke:#000000;" x="329.075917176" xlink:href="#md492c70a42" y="216.0"/>
     <use style="fill:#0000ff;stroke:#000000;" x="384.142577217" xlink:href="#md492c70a42" y="210.358733102"/>
     <use style="fill:#0000ff;stroke:#000000;" x="313.514298362" xlink:href="#md492c70a42" y="216.0"/>
     <use style="fill:#0000ff;stroke:#000000;" x="327.792040617" xlink:href="#md492c70a42" y="216.0"/>
     <use style="fill:#0000ff;stroke:#000000;" x="295.2" xlink:href="#md492c70a42" y="216.0"/>
     <use style="fill:#0000ff;stroke:#000000;" x="374.433973128" xlink:href="#md492c70a42" y="189.954607746"/>
     <use style="fill:#0000ff;stroke:#000000;" x="333.5503024" xlink:href="#md492c70a42" y="208.868616922"/>
     <use style="fill:#0000ff;stroke:#000000;" x="319.812676922" xlink:href="#md492c70a42" y="187.116385008"/>
     <use style="fill:#0000ff;stroke:#000000;" x="378.39234736" xlink:href="#md492c70a42" y="164.16"/>
     <use style="fill:#0000ff;stroke:#000000;" x="311.207411171" xlink:href="#md492c70a42" y="216.0"/>
     <use style="fill:#0000ff;stroke:#000000;" x="302.473576285" xlink:href="#md492c70a42" y="205.870970343"/>
     <use style="fill:#0000ff;stroke:#000000;" x="406.8" xlink:href="#md492c70a42" y="164.16"/>
     <use style="fill:#0000ff;stroke:#000000;" x="331.560690978" xlink:href="#md492c70a42" y="178.338989197"/>
     <use style="fill:#0000ff;stroke:#000000;" x="295.2" xlink:href="#md492c70a42" y="216.0"/>
    </g>
   </g>
   <g id="patch_3">
    <path d="M 72 43.2 
L 518.4 43.2 
" style="fill:none;stroke:#000000;stroke-linecap:square;stroke-linejoin:miter;"/>
   </g>
   <g id="patch_4">
    <path d="M 72 388.8 
L 518.4 388.8 
" style="fill:none;stroke:#000000;stroke-linecap:square;stroke-linejoin:miter;"/>
   </g>
   <g id="patch_5">
    <path d="M 518.4 388.8 
L 518.4 43.2 
" style="fill:none;stroke:#000000;stroke-linecap:square;stroke-linejoin:miter;"/>
   </g>
   <g id="patch_6">
    <path d="M 72 388.8 
L 72 43.2 
" style="fill:none;stroke:#000000;stroke-linecap:square;stroke-linejoin:miter;"/>
   </g>
   <g id="matplotlib.axis_1">
    <g id="xtick_1">
     <g id="line2d_1">
      <defs>
       <path d="M 0 0 
L 0 -4 
" id="m165d80faef" style="stroke:#000000;stroke-width:0.5;"/>
      </defs>
      <g>
       <use style="stroke:#000000;stroke-width:0.5;" x="72.0" xlink:href="#m165d80faef" y="388.8"/>
      </g>
     </g>
     <g id="line2d_2">
      <defs>
       <path d="M 0 0 
L 0 4 
" id="m2f1a2ade7a" style="stroke:#000000;stroke-width:0.5;"/>
      </defs>
      <g>
       <use style="stroke:#000000;stroke-width:0.5;" x="72.0" xlink:href="#m2f1a2ade7a" y="43.2"/>
      </g>
     </g>
     <g id="text_1">
      <!-- −10 -->
      <defs>
       <path d="M 10.59375 35.5 
L 73.1875 35.5 
L 73.1875 27.203125 
L 10.59375 27.203125 
z
" id="BitstreamVeraSans-Roman-2212"/>
       <path d="M 31.78125 66.40625 
Q 24.171875 66.40625 20.328125 58.90625 
Q 16.5 51.421875 16.5 36.375 
Q 16.5 21.390625 20.328125 13.890625 
Q 24.171875 6.390625 31.78125 6.390625 
Q 39.453125 6.390625 43.28125 13.890625 
Q 47.125 21.390625 47.125 36.375 
Q 47.125 51.421875 43.28125 58.90625 
Q 39.453125 66.40625 31.78125 66.40625 
M 31.78125 74.21875 
Q 44.046875 74.21875 50.515625 64.515625 
Q 56.984375 54.828125 56.984375 36.375 
Q 56.984375 17.96875 50.515625 8.265625 
Q 44.046875 -1.421875 31.78125 -1.421875 
Q 19.53125 -1.421875 13.0625 8.265625 
Q 6.59375 17.96875 6.59375 36.375 
Q 6.59375 54.828125 13.0625 64.515625 
Q 19.53125 74.21875 31.78125 74.21875 
" id="BitstreamVeraSans-Roman-30"/>
       <path d="M 12.40625 8.296875 
L 28.515625 8.296875 
L 28.515625 63.921875 
L 10.984375 60.40625 
L 10.984375 69.390625 
L 28.421875 72.90625 
L 38.28125 72.90625 
L 38.28125 8.296875 
L 54.390625 8.296875 
L 54.390625 0 
L 12.40625 0 
z
" id="BitstreamVeraSans-Roman-31"/>
      </defs>
      <g transform="translate(59.3371875 401.918125)scale(0.12 -0.12)">
       <use xlink:href="#BitstreamVeraSans-Roman-2212"/>
       <use x="83.7890625" xlink:href="#BitstreamVeraSans-Roman-31"/>
       <use x="147.412109375" xlink:href="#BitstreamVeraSans-Roman-30"/>
      </g>
     </g>
    </g>
    <g id="xtick_2">
     <g id="line2d_3">
      <g>
       <use style="stroke:#000000;stroke-width:0.5;" x="183.6" xlink:href="#m165d80faef" y="388.8"/>
      </g>
     </g>
     <g id="line2d_4">
      <g>
       <use style="stroke:#000000;stroke-width:0.5;" x="183.6" xlink:href="#m2f1a2ade7a" y="43.2"/>
      </g>
     </g>
     <g id="text_2">
      <!-- −5 -->
      <defs>
       <path d="M 10.796875 72.90625 
L 49.515625 72.90625 
L 49.515625 64.59375 
L 19.828125 64.59375 
L 19.828125 46.734375 
Q 21.96875 47.46875 24.109375 47.828125 
Q 26.265625 48.1875 28.421875 48.1875 
Q 40.625 48.1875 47.75 41.5 
Q 54.890625 34.8125 54.890625 23.390625 
Q 54.890625 11.625 47.5625 5.09375 
Q 40.234375 -1.421875 26.90625 -1.421875 
Q 22.3125 -1.421875 17.546875 -0.640625 
Q 12.796875 0.140625 7.71875 1.703125 
L 7.71875 11.625 
Q 12.109375 9.234375 16.796875 8.0625 
Q 21.484375 6.890625 26.703125 6.890625 
Q 35.15625 6.890625 40.078125 11.328125 
Q 45.015625 15.765625 45.015625 23.390625 
Q 45.015625 31 40.078125 35.4375 
Q 35.15625 39.890625 26.703125 39.890625 
Q 22.75 39.890625 18.8125 39.015625 
Q 14.890625 38.140625 10.796875 36.28125 
z
" id="BitstreamVeraSans-Roman-35"/>
      </defs>
      <g transform="translate(174.7546875 401.918125)scale(0.12 -0.12)">
       <use xlink:href="#BitstreamVeraSans-Roman-2212"/>
       <use x="83.7890625" xlink:href="#BitstreamVeraSans-Roman-35"/>
      </g>
     </g>
    </g>
    <g id="xtick_3">
     <g id="line2d_5">
      <g>
       <use style="stroke:#000000;stroke-width:0.5;" x="295.2" xlink:href="#m165d80faef" y="388.8"/>
      </g>
     </g>
     <g id="line2d_6">
      <g>
       <use style="stroke:#000000;stroke-width:0.5;" x="295.2" xlink:href="#m2f1a2ade7a" y="43.2"/>
      </g>
     </g>
     <g id="text_3">
      <!-- 0 -->
      <g transform="translate(291.3825 401.918125)scale(0.12 -0.12)">
       <use xlink:href="#BitstreamVeraSans-Roman-30"/>
      </g>
     </g>
    </g>
    <g id="xtick_4">
     <g id="line2d_7">
      <g>
       <use style="stroke:#000000;stroke-width:0.5;" x="406.8" xlink:href="#m165d80faef" y="388.8"/>
      </g>
     </g>
     <g id="line2d_8">
      <g>
       <use style="stroke:#000000;stroke-width:0.5;" x="406.8" xlink:href="#m2f1a2ade7a" y="43.2"/>
      </g>
     </g>
     <g id="text_4">
      <!-- 5 -->
      <g transform="translate(402.9825 401.918125)scale(0.12 -0.12)">
       <use xlink:href="#BitstreamVeraSans-Roman-35"/>
      </g>
     </g>
    </g>
    <g id="xtick_5">
     <g id="line2d_9">
      <g>
       <use style="stroke:#000000;stroke-width:0.5;" x="518.4" xlink:href="#m165d80faef" y="388.8"/>
      </g>
     </g>
     <g id="line2d_10">
      <g>
       <use style="stroke:#000000;stroke-width:0.5;" x="518.4" xlink:href="#m2f1a2ade7a" y="43.2"/>
      </g>
     </g>
     <g id="text_5">
      <!-- 10 -->
      <g transform="translate(510.765 401.918125)scale(0.12 -0.12)">
       <use xlink:href="#BitstreamVeraSans-Roman-31"/>
       <use x="63.623046875" xlink:href="#BitstreamVeraSans-Roman-30"/>
      </g>
     </g>
    </g>
   </g>
   <g id="matplotlib.axis_2">
    <g id="ytick_1">
     <g id="line2d_11">
      <defs>
       <path d="M 0 0 
L 4 0 
" id="m3217799de0" style="stroke:#000000;stroke-width:0.5;"/>
      </defs>
      <g>
       <use style="stroke:#000000;stroke-width:0.5;" x="72.0" xlink:href="#m3217799de0" y="388.8"/>
      </g>
     </g>
     <g id="line2d_12">
      <defs>
       <path d="M 0 0 
L -4 0 
" id="m32ef8fbfe4" style="stroke:#000000;stroke-width:0.5;"/>
      </defs>
      <g>
       <use style="stroke:#000000;stroke-width:0.5;" x="518.4" xlink:href="#m32ef8fbfe4" y="388.8"/>
      </g>
     </g>
     <g id="text_6">
      <!-- −10 -->
      <g transform="translate(42.674375 392.11125)scale(0.12 -0.12)">
       <use xlink:href="#BitstreamVeraSans-Roman-2212"/>
       <use x="83.7890625" xlink:href="#BitstreamVeraSans-Roman-31"/>
       <use x="147.412109375" xlink:href="#BitstreamVeraSans-Roman-30"/>
      </g>
     </g>
    </g>
    <g id="ytick_2">
     <g id="line2d_13">
      <g>
       <use style="stroke:#000000;stroke-width:0.5;" x="72.0" xlink:href="#m3217799de0" y="302.4"/>
      </g>
     </g>
     <g id="line2d_14">
      <g>
       <use style="stroke:#000000;stroke-width:0.5;" x="518.4" xlink:href="#m32ef8fbfe4" y="302.4"/>
      </g>
     </g>
     <g id="text_7">
      <!-- −5 -->
      <g transform="translate(50.309375 305.71125)scale(0.12 -0.12)">
       <use xlink:href="#BitstreamVeraSans-Roman-2212"/>
       <use x="83.7890625" xlink:href="#BitstreamVeraSans-Roman-35"/>
      </g>
     </g>
    </g>
    <g id="ytick_3">
     <g id="line2d_15">
      <g>
       <use style="stroke:#000000;stroke-width:0.5;" x="72.0" xlink:href="#m3217799de0" y="216.0"/>
      </g>
     </g>
     <g id="line2d_16">
      <g>
       <use style="stroke:#000000;stroke-width:0.5;" x="518.4" xlink:href="#m32ef8fbfe4" y="216.0"/>
      </g>
     </g>
     <g id="text_8">
      <!-- 0 -->
      <g transform="translate(60.365 219.31125)scale(0.12 -0.12)">
       <use xlink:href="#BitstreamVeraSans-Roman-30"/>
      </g>
     </g>
    </g>
    <g id="ytick_4">
     <g id="line2d_17">
      <g>
       <use style="stroke:#000000;stroke-width:0.5;" x="72.0" xlink:href="#m3217799de0" y="129.6"/>
      </g>
     </g>
     <g id="line2d_18">
      <g>
       <use style="stroke:#000000;stroke-width:0.5;" x="518.4" xlink:href="#m32ef8fbfe4" y="129.6"/>
      </g>
     </g>
     <g id="text_9">
      <!-- 5 -->
      <g transform="translate(60.365 132.91125)scale(0.12 -0.12)">
       <use xlink:href="#BitstreamVeraSans-Roman-35"/>
      </g>
     </g>
    </g>
    <g id="ytick_5">
     <g id="line2d_19">
      <g>
       <use style="stroke:#000000;stroke-width:0.5;" x="72.0" xlink:href="#m3217799de0" y="43.2"/>
      </g>
     </g>
     <g id="line2d_20">
      <g>
       <use style="stroke:#000000;stroke-width:0.5;" x="518.4" xlink:href="#m32ef8fbfe4" y="43.2"/>
      </g>
     </g>
     <g id="text_10">
      <!-- 10 -->
      <g transform="translate(52.73 46.51125)scale(0.12 -0.12)">
       <use xlink:href="#BitstreamVeraSans-Roman-31"/>
       <use x="63.623046875" xlink:href="#BitstreamVeraSans-Roman-30"/>
      </g>
     </g>
    </g>
   </g>
  </g>
 </g>
 <defs>
  <clipPath id="p14869195a9">
   <rect height="345.6" width="446.4" x="72.0" y="43.2"/>
  </clipPath>
 </defs>
</svg>
