<?xml version="1.0" encoding="utf-8" standalone="no"?>
<!DOCTYPE svg PUBLIC "-//W3C//DTD SVG 1.1//EN"
  "http://www.w3.org/Graphics/SVG/1.1/DTD/svg11.dtd">
<!-- Created with matplotlib (http://matplotlib.org/) -->
<svg height="432pt" version="1.1" viewBox="0 0 576 432" width="576pt" xmlns="http://www.w3.org/2000/svg" xmlns:xlink="http://www.w3.org/1999/xlink">
 <defs>
  <style type="text/css">
*{stroke-linecap:butt;stroke-linejoin:round;stroke-miterlimit:100000;}
  </style>
 </defs>
 <g id="figure_1">
  <g id="patch_1">
   <path d="M 0 432 
L 576 432 
L 576 0 
L 0 0 
z
" style="fill:#ffffff;"/>
  </g>
  <g id="axes_1">
   <g id="patch_2">
    <path d="M 72 388.8 
L 518.4 388.8 
L 518.4 43.2 
L 72 43.2 
z
" style="fill:#ffffff;"/>
   </g>
   <g id="PathCollection_1">
    <defs>
     <path d="M 0 0.5 
C 0.132602 0.5 0.25979 0.447317 0.353553 0.353553 
C 0.447317 0.25979 0.5 0.132602 0.5 0 
C 0.5 -0.132602 0.447317 -0.25979 0.353553 -0.353553 
C 0.25979 -0.447317 0.132602 -0.5 0 -0.5 
C -0.132602 -0.5 -0.25979 -0.447317 -0.353553 -0.353553 
C -0.447317 -0.25979 -0.5 -0.132602 -0.5 0 
C -0.5 0.132602 -0.447317 0.25979 -0.353553 0.353553 
C -0.25979 0.447317 -0.132602 0.5 0 0.5 
z
" id="m9864ae6dd7" style="stroke:#000000;"/>
    </defs>
    <g clip-path="url(#pfe0c8ef3e7)">
     <use style="stroke:#000000;" x="295.2" xlink:href="#m9864ae6dd7" y="216.0"/>
     <use style="stroke:#000000;" x="295.2" xlink:href="#m9864ae6dd7" y="216.0"/>
     <use style="stroke:#000000;" x="384.48" xlink:href="#m9864ae6dd7" y="164.16"/>
     <use style="stroke:#000000;" x="384.48" xlink:href="#m9864ae6dd7" y="164.16"/>
     <use style="stroke:#000000;" x="362.16" xlink:href="#m9864ae6dd7" y="181.44"/>
     <use style="stroke:#000000;" x="317.52" xlink:href="#m9864ae6dd7" y="181.44"/>
     <use style="stroke:#000000;" x="339.84" xlink:href="#m9864ae6dd7" y="198.72"/>
     <use style="stroke:#000000;" x="317.52" xlink:href="#m9864ae6dd7" y="198.72"/>
     <use style="stroke:#000000;" x="317.52" xlink:href="#m9864ae6dd7" y="216.0"/>
     <use style="stroke:#000000;" x="295.2" xlink:href="#m9864ae6dd7" y="216.0"/>
     <use style="stroke:#000000;" x="295.2" xlink:href="#m9864ae6dd7" y="216.0"/>
     <use style="stroke:#000000;" x="295.2" xlink:href="#m9864ae6dd7" y="216.0"/>
     <use style="stroke:#000000;" x="362.16" xlink:href="#m9864ae6dd7" y="181.44"/>
     <use style="stroke:#000000;" x="295.2" xlink:href="#m9864ae6dd7" y="216.0"/>
     <use style="stroke:#000000;" x="339.84" xlink:href="#m9864ae6dd7" y="164.16"/>
     <use style="stroke:#000000;" x="295.2" xlink:href="#m9864ae6dd7" y="216.0"/>
     <use style="stroke:#000000;" x="362.16" xlink:href="#m9864ae6dd7" y="181.44"/>
     <use style="stroke:#000000;" x="295.2" xlink:href="#m9864ae6dd7" y="216.0"/>
     <use style="stroke:#000000;" x="339.84" xlink:href="#m9864ae6dd7" y="164.16"/>
     <use style="stroke:#000000;" x="362.16" xlink:href="#m9864ae6dd7" y="181.44"/>
     <use style="stroke:#000000;" x="295.2" xlink:href="#m9864ae6dd7" y="216.0"/>
     <use style="stroke:#000000;" x="295.2" xlink:href="#m9864ae6dd7" y="216.0"/>
     <use style="stroke:#000000;" x="317.52" xlink:href="#m9864ae6dd7" y="198.72"/>
     <use style="stroke:#000000;" x="295.2" xlink:href="#m9864ae6dd7" y="216.0"/>
     <use style="stroke:#000000;" x="295.2" xlink:href="#m9864ae6dd7" y="216.0"/>
     <use style="stroke:#000000;" x="339.84" xlink:href="#m9864ae6dd7" y="181.44"/>
     <use style="stroke:#000000;" x="339.84" xlink:href="#m9864ae6dd7" y="181.44"/>
     <use style="stroke:#000000;" x="317.52" xlink:href="#m9864ae6dd7" y="216.0"/>
     <use style="stroke:#000000;" x="295.2" xlink:href="#m9864ae6dd7" y="216.0"/>
     <use style="stroke:#000000;" x="317.52" xlink:href="#m9864ae6dd7" y="216.0"/>
     <use style="stroke:#000000;" x="295.2" xlink:href="#m9864ae6dd7" y="216.0"/>
     <use style="stroke:#000000;" x="339.84" xlink:href="#m9864ae6dd7" y="198.72"/>
     <use style="stroke:#000000;" x="362.16" xlink:href="#m9864ae6dd7" y="181.44"/>
     <use style="stroke:#000000;" x="317.52" xlink:href="#m9864ae6dd7" y="198.72"/>
     <use style="stroke:#000000;" x="295.2" xlink:href="#m9864ae6dd7" y="216.0"/>
     <use style="stroke:#000000;" x="317.52" xlink:href="#m9864ae6dd7" y="216.0"/>
     <use style="stroke:#000000;" x="295.2" xlink:href="#m9864ae6dd7" y="216.0"/>
     <use style="stroke:#000000;" x="317.52" xlink:href="#m9864ae6dd7" y="216.0"/>
     <use style="stroke:#000000;" x="339.84" xlink:href="#m9864ae6dd7" y="181.44"/>
     <use style="stroke:#000000;" x="362.16" xlink:href="#m9864ae6dd7" y="181.44"/>
     <use style="stroke:#000000;" x="295.2" xlink:href="#m9864ae6dd7" y="216.0"/>
     <use style="stroke:#000000;" x="295.2" xlink:href="#m9864ae6dd7" y="216.0"/>
     <use style="stroke:#000000;" x="317.52" xlink:href="#m9864ae6dd7" y="198.72"/>
     <use style="stroke:#000000;" x="317.52" xlink:href="#m9864ae6dd7" y="164.16"/>
     <use style="stroke:#000000;" x="384.48" xlink:href="#m9864ae6dd7" y="198.72"/>
     <use style="stroke:#000000;" x="295.2" xlink:href="#m9864ae6dd7" y="216.0"/>
     <use style="stroke:#000000;" x="317.52" xlink:href="#m9864ae6dd7" y="198.72"/>
     <use style="stroke:#000000;" x="317.52" xlink:href="#m9864ae6dd7" y="181.44"/>
     <use style="stroke:#000000;" x="317.52" xlink:href="#m9864ae6dd7" y="216.0"/>
     <use style="stroke:#000000;" x="317.52" xlink:href="#m9864ae6dd7" y="181.44"/>
     <use style="stroke:#000000;" x="339.84" xlink:href="#m9864ae6dd7" y="216.0"/>
     <use style="stroke:#000000;" x="295.2" xlink:href="#m9864ae6dd7" y="216.0"/>
     <use style="stroke:#000000;" x="295.2" xlink:href="#m9864ae6dd7" y="216.0"/>
     <use style="stroke:#000000;" x="295.2" xlink:href="#m9864ae6dd7" y="216.0"/>
     <use style="stroke:#000000;" x="384.48" xlink:href="#m9864ae6dd7" y="198.72"/>
     <use style="stroke:#000000;" x="295.2" xlink:href="#m9864ae6dd7" y="216.0"/>
     <use style="stroke:#000000;" x="406.8" xlink:href="#m9864ae6dd7" y="198.72"/>
     <use style="stroke:#000000;" x="317.52" xlink:href="#m9864ae6dd7" y="216.0"/>
     <use style="stroke:#000000;" x="295.2" xlink:href="#m9864ae6dd7" y="216.0"/>
     <use style="stroke:#000000;" x="384.48" xlink:href="#m9864ae6dd7" y="216.0"/>
    </g>
   </g>
   <g id="PathCollection_2">
    <defs>
     <path d="M 0 1.936492 
C 0.513564 1.936492 1.006162 1.732451 1.369306 1.369306 
C 1.732451 1.006162 1.936492 0.513564 1.936492 0 
C 1.936492 -0.513564 1.732451 -1.006162 1.369306 -1.369306 
C 1.006162 -1.732451 0.513564 -1.936492 0 -1.936492 
C -0.513564 -1.936492 -1.006162 -1.732451 -1.369306 -1.369306 
C -1.732451 -1.006162 -1.936492 -0.513564 -1.936492 0 
C -1.936492 0.513564 -1.732451 1.006162 -1.369306 1.369306 
C -1.006162 1.732451 -0.513564 1.936492 0 1.936492 
z
" id="m4751742529" style="stroke:#000000;"/>
    </defs>
    <g clip-path="url(#pfe0c8ef3e7)">
     <use style="fill:#0000ff;stroke:#000000;" x="295.2" xlink:href="#m4751742529" y="216.0"/>
     <use style="fill:#0000ff;stroke:#000000;" x="295.2" xlink:href="#m4751742529" y="216.0"/>
     <use style="fill:#0000ff;stroke:#000000;" x="384.48" xlink:href="#m4751742529" y="164.16"/>
     <use style="fill:#0000ff;stroke:#000000;" x="384.48" xlink:href="#m4751742529" y="164.16"/>
     <use style="fill:#0000ff;stroke:#000000;" x="362.16" xlink:href="#m4751742529" y="181.44"/>
     <use style="fill:#0000ff;stroke:#000000;" x="317.52" xlink:href="#m4751742529" y="181.44"/>
     <use style="fill:#0000ff;stroke:#000000;" x="339.84" xlink:href="#m4751742529" y="198.72"/>
     <use style="fill:#0000ff;stroke:#000000;" x="317.52" xlink:href="#m4751742529" y="198.72"/>
     <use style="fill:#0000ff;stroke:#000000;" x="317.52" xlink:href="#m4751742529" y="216.0"/>
     <use style="fill:#0000ff;stroke:#000000;" x="295.2" xlink:href="#m4751742529" y="216.0"/>
     <use style="fill:#0000ff;stroke:#000000;" x="295.2" xlink:href="#m4751742529" y="216.0"/>
     <use style="fill:#0000ff;stroke:#000000;" x="295.2" xlink:href="#m4751742529" y="216.0"/>
     <use style="fill:#0000ff;stroke:#000000;" x="362.16" xlink:href="#m4751742529" y="181.44"/>
     <use style="fill:#0000ff;stroke:#000000;" x="295.2" xlink:href="#m4751742529" y="216.0"/>
     <use style="fill:#0000ff;stroke:#000000;" x="339.84" xlink:href="#m4751742529" y="164.16"/>
     <use style="fill:#0000ff;stroke:#000000;" x="295.2" xlink:href="#m4751742529" y="216.0"/>
     <use style="fill:#0000ff;stroke:#000000;" x="362.16" xlink:href="#m4751742529" y="181.44"/>
     <use style="fill:#0000ff;stroke:#000000;" x="295.2" xlink:href="#m4751742529" y="216.0"/>
     <use style="fill:#0000ff;stroke:#000000;" x="339.84" xlink:href="#m4751742529" y="164.16"/>
     <use style="fill:#0000ff;stroke:#000000;" x="362.16" xlink:href="#m4751742529" y="181.44"/>
     <use style="fill:#0000ff;stroke:#000000;" x="295.2" xlink:href="#m4751742529" y="216.0"/>
     <use style="fill:#0000ff;stroke:#000000;" x="295.2" xlink:href="#m4751742529" y="216.0"/>
     <use style="fill:#0000ff;stroke:#000000;" x="317.52" xlink:href="#m4751742529" y="198.72"/>
     <use style="fill:#0000ff;stroke:#000000;" x="295.2" xlink:href="#m4751742529" y="216.0"/>
     <use style="fill:#0000ff;stroke:#000000;" x="295.2" xlink:href="#m4751742529" y="216.0"/>
     <use style="fill:#0000ff;stroke:#000000;" x="339.84" xlink:href="#m4751742529" y="181.44"/>
     <use style="fill:#0000ff;stroke:#000000;" x="339.84" xlink:href="#m4751742529" y="181.44"/>
     <use style="fill:#0000ff;stroke:#000000;" x="317.52" xlink:href="#m4751742529" y="216.0"/>
     <use style="fill:#0000ff;stroke:#000000;" x="295.2" xlink:href="#m4751742529" y="216.0"/>
     <use style="fill:#0000ff;stroke:#000000;" x="317.52" xlink:href="#m4751742529" y="216.0"/>
     <use style="fill:#0000ff;stroke:#000000;" x="295.2" xlink:href="#m4751742529" y="216.0"/>
     <use style="fill:#0000ff;stroke:#000000;" x="339.84" xlink:href="#m4751742529" y="198.72"/>
     <use style="fill:#0000ff;stroke:#000000;" x="362.16" xlink:href="#m4751742529" y="181.44"/>
     <use style="fill:#0000ff;stroke:#000000;" x="317.52" xlink:href="#m4751742529" y="198.72"/>
     <use style="fill:#0000ff;stroke:#000000;" x="295.2" xlink:href="#m4751742529" y="216.0"/>
     <use style="fill:#0000ff;stroke:#000000;" x="317.52" xlink:href="#m4751742529" y="216.0"/>
     <use style="fill:#0000ff;stroke:#000000;" x="295.2" xlink:href="#m4751742529" y="216.0"/>
     <use style="fill:#0000ff;stroke:#000000;" x="317.52" xlink:href="#m4751742529" y="216.0"/>
     <use style="fill:#0000ff;stroke:#000000;" x="339.84" xlink:href="#m4751742529" y="181.44"/>
     <use style="fill:#0000ff;stroke:#000000;" x="362.16" xlink:href="#m4751742529" y="181.44"/>
    </g>
   </g>
   <g id="patch_3">
    <path d="M 518.4 388.8 
L 518.4 43.2 
" style="fill:none;stroke:#000000;stroke-linecap:square;stroke-linejoin:miter;"/>
   </g>
   <g id="patch_4">
    <path d="M 72 388.8 
L 518.4 388.8 
" style="fill:none;stroke:#000000;stroke-linecap:square;stroke-linejoin:miter;"/>
   </g>
   <g id="patch_5">
    <path d="M 72 388.8 
L 72 43.2 
" style="fill:none;stroke:#000000;stroke-linecap:square;stroke-linejoin:miter;"/>
   </g>
   <g id="patch_6">
    <path d="M 72 43.2 
L 518.4 43.2 
" style="fill:none;stroke:#000000;stroke-linecap:square;stroke-linejoin:miter;"/>
   </g>
   <g id="matplotlib.axis_1">
    <g id="xtick_1">
     <g id="line2d_1">
      <defs>
       <path d="M 0 0 
L 0 -4 
" id="m92891add25" style="stroke:#000000;stroke-width:0.5;"/>
      </defs>
      <g>
       <use style="stroke:#000000;stroke-width:0.5;" x="72.0" xlink:href="#m92891add25" y="388.8"/>
      </g>
     </g>
     <g id="line2d_2">
      <defs>
       <path d="M 0 0 
L 0 4 
" id="mbbb03f38b2" style="stroke:#000000;stroke-width:0.5;"/>
      </defs>
      <g>
       <use style="stroke:#000000;stroke-width:0.5;" x="72.0" xlink:href="#mbbb03f38b2" y="43.2"/>
      </g>
     </g>
     <g id="text_1">
      <!-- −10 -->
      <defs>
       <path d="M 31.78125 66.40625 
Q 24.171875 66.40625 20.328125 58.90625 
Q 16.5 51.421875 16.5 36.375 
Q 16.5 21.390625 20.328125 13.890625 
Q 24.171875 6.390625 31.78125 6.390625 
Q 39.453125 6.390625 43.28125 13.890625 
Q 47.125 21.390625 47.125 36.375 
Q 47.125 51.421875 43.28125 58.90625 
Q 39.453125 66.40625 31.78125 66.40625 
M 31.78125 74.21875 
Q 44.046875 74.21875 50.515625 64.515625 
Q 56.984375 54.828125 56.984375 36.375 
Q 56.984375 17.96875 50.515625 8.265625 
Q 44.046875 -1.421875 31.78125 -1.421875 
Q 19.53125 -1.421875 13.0625 8.265625 
Q 6.59375 17.96875 6.59375 36.375 
Q 6.59375 54.828125 13.0625 64.515625 
Q 19.53125 74.21875 31.78125 74.21875 
" id="BitstreamVeraSans-Roman-30"/>
       <path d="M 12.40625 8.296875 
L 28.515625 8.296875 
L 28.515625 63.921875 
L 10.984375 60.40625 
L 10.984375 69.390625 
L 28.421875 72.90625 
L 38.28125 72.90625 
L 38.28125 8.296875 
L 54.390625 8.296875 
L 54.390625 0 
L 12.40625 0 
z
" id="BitstreamVeraSans-Roman-31"/>
       <path d="M 10.59375 35.5 
L 73.1875 35.5 
L 73.1875 27.203125 
L 10.59375 27.203125 
z
" id="BitstreamVeraSans-Roman-2212"/>
      </defs>
      <g transform="translate(59.3371875 401.918125)scale(0.12 -0.12)">
       <use xlink:href="#BitstreamVeraSans-Roman-2212"/>
       <use x="83.7890625" xlink:href="#BitstreamVeraSans-Roman-31"/>
       <use x="147.412109375" xlink:href="#BitstreamVeraSans-Roman-30"/>
      </g>
     </g>
    </g>
    <g id="xtick_2">
     <g id="line2d_3">
      <g>
       <use style="stroke:#000000;stroke-width:0.5;" x="183.6" xlink:href="#m92891add25" y="388.8"/>
      </g>
     </g>
     <g id="line2d_4">
      <g>
       <use style="stroke:#000000;stroke-width:0.5;" x="183.6" xlink:href="#mbbb03f38b2" y="43.2"/>
      </g>
     </g>
     <g id="text_2">
      <!-- −5 -->
      <defs>
       <path d="M 10.796875 72.90625 
L 49.515625 72.90625 
L 49.515625 64.59375 
L 19.828125 64.59375 
L 19.828125 46.734375 
Q 21.96875 47.46875 24.109375 47.828125 
Q 26.265625 48.1875 28.421875 48.1875 
Q 40.625 48.1875 47.75 41.5 
Q 54.890625 34.8125 54.890625 23.390625 
Q 54.890625 11.625 47.5625 5.09375 
Q 40.234375 -1.421875 26.90625 -1.421875 
Q 22.3125 -1.421875 17.546875 -0.640625 
Q 12.796875 0.140625 7.71875 1.703125 
L 7.71875 11.625 
Q 12.109375 9.234375 16.796875 8.0625 
Q 21.484375 6.890625 26.703125 6.890625 
Q 35.15625 6.890625 40.078125 11.328125 
Q 45.015625 15.765625 45.015625 23.390625 
Q 45.015625 31 40.078125 35.4375 
Q 35.15625 39.890625 26.703125 39.890625 
Q 22.75 39.890625 18.8125 39.015625 
Q 14.890625 38.140625 10.796875 36.28125 
z
" id="BitstreamVeraSans-Roman-35"/>
      </defs>
      <g transform="translate(174.7546875 401.918125)scale(0.12 -0.12)">
       <use xlink:href="#BitstreamVeraSans-Roman-2212"/>
       <use x="83.7890625" xlink:href="#BitstreamVeraSans-Roman-35"/>
      </g>
     </g>
    </g>
    <g id="xtick_3">
     <g id="line2d_5">
      <g>
       <use style="stroke:#000000;stroke-width:0.5;" x="295.2" xlink:href="#m92891add25" y="388.8"/>
      </g>
     </g>
     <g id="line2d_6">
      <g>
       <use style="stroke:#000000;stroke-width:0.5;" x="295.2" xlink:href="#mbbb03f38b2" y="43.2"/>
      </g>
     </g>
     <g id="text_3">
      <!-- 0 -->
      <g transform="translate(291.3825 401.918125)scale(0.12 -0.12)">
       <use xlink:href="#BitstreamVeraSans-Roman-30"/>
      </g>
     </g>
    </g>
    <g id="xtick_4">
     <g id="line2d_7">
      <g>
       <use style="stroke:#000000;stroke-width:0.5;" x="406.8" xlink:href="#m92891add25" y="388.8"/>
      </g>
     </g>
     <g id="line2d_8">
      <g>
       <use style="stroke:#000000;stroke-width:0.5;" x="406.8" xlink:href="#mbbb03f38b2" y="43.2"/>
      </g>
     </g>
     <g id="text_4">
      <!-- 5 -->
      <g transform="translate(402.9825 401.918125)scale(0.12 -0.12)">
       <use xlink:href="#BitstreamVeraSans-Roman-35"/>
      </g>
     </g>
    </g>
    <g id="xtick_5">
     <g id="line2d_9">
      <g>
       <use style="stroke:#000000;stroke-width:0.5;" x="518.4" xlink:href="#m92891add25" y="388.8"/>
      </g>
     </g>
     <g id="line2d_10">
      <g>
       <use style="stroke:#000000;stroke-width:0.5;" x="518.4" xlink:href="#mbbb03f38b2" y="43.2"/>
      </g>
     </g>
     <g id="text_5">
      <!-- 10 -->
      <g transform="translate(510.765 401.918125)scale(0.12 -0.12)">
       <use xlink:href="#BitstreamVeraSans-Roman-31"/>
       <use x="63.623046875" xlink:href="#BitstreamVeraSans-Roman-30"/>
      </g>
     </g>
    </g>
   </g>
   <g id="matplotlib.axis_2">
    <g id="ytick_1">
     <g id="line2d_11">
      <defs>
       <path d="M 0 0 
L 4 0 
" id="mc6a599aceb" style="stroke:#000000;stroke-width:0.5;"/>
      </defs>
      <g>
       <use style="stroke:#000000;stroke-width:0.5;" x="72.0" xlink:href="#mc6a599aceb" y="388.8"/>
      </g>
     </g>
     <g id="line2d_12">
      <defs>
       <path d="M 0 0 
L -4 0 
" id="m625faea496" style="stroke:#000000;stroke-width:0.5;"/>
      </defs>
      <g>
       <use style="stroke:#000000;stroke-width:0.5;" x="518.4" xlink:href="#m625faea496" y="388.8"/>
      </g>
     </g>
     <g id="text_6">
      <!-- −10 -->
      <g transform="translate(42.674375 392.11125)scale(0.12 -0.12)">
       <use xlink:href="#BitstreamVeraSans-Roman-2212"/>
       <use x="83.7890625" xlink:href="#BitstreamVeraSans-Roman-31"/>
       <use x="147.412109375" xlink:href="#BitstreamVeraSans-Roman-30"/>
      </g>
     </g>
    </g>
    <g id="ytick_2">
     <g id="line2d_13">
      <g>
       <use style="stroke:#000000;stroke-width:0.5;" x="72.0" xlink:href="#mc6a599aceb" y="302.4"/>
      </g>
     </g>
     <g id="line2d_14">
      <g>
       <use style="stroke:#000000;stroke-width:0.5;" x="518.4" xlink:href="#m625faea496" y="302.4"/>
      </g>
     </g>
     <g id="text_7">
      <!-- −5 -->
      <g transform="translate(50.309375 305.71125)scale(0.12 -0.12)">
       <use xlink:href="#BitstreamVeraSans-Roman-2212"/>
       <use x="83.7890625" xlink:href="#BitstreamVeraSans-Roman-35"/>
      </g>
     </g>
    </g>
    <g id="ytick_3">
     <g id="line2d_15">
      <g>
       <use style="stroke:#000000;stroke-width:0.5;" x="72.0" xlink:href="#mc6a599aceb" y="216.0"/>
      </g>
     </g>
     <g id="line2d_16">
      <g>
       <use style="stroke:#000000;stroke-width:0.5;" x="518.4" xlink:href="#m625faea496" y="216.0"/>
      </g>
     </g>
     <g id="text_8">
      <!-- 0 -->
      <g transform="translate(60.365 219.31125)scale(0.12 -0.12)">
       <use xlink:href="#BitstreamVeraSans-Roman-30"/>
      </g>
     </g>
    </g>
    <g id="ytick_4">
     <g id="line2d_17">
      <g>
       <use style="stroke:#000000;stroke-width:0.5;" x="72.0" xlink:href="#mc6a599aceb" y="129.6"/>
      </g>
     </g>
     <g id="line2d_18">
      <g>
       <use style="stroke:#000000;stroke-width:0.5;" x="518.4" xlink:href="#m625faea496" y="129.6"/>
      </g>
     </g>
     <g id="text_9">
      <!-- 5 -->
      <g transform="translate(60.365 132.91125)scale(0.12 -0.12)">
       <use xlink:href="#BitstreamVeraSans-Roman-35"/>
      </g>
     </g>
    </g>
    <g id="ytick_5">
     <g id="line2d_19">
      <g>
       <use style="stroke:#000000;stroke-width:0.5;" x="72.0" xlink:href="#mc6a599aceb" y="43.2"/>
      </g>
     </g>
     <g id="line2d_20">
      <g>
       <use style="stroke:#000000;stroke-width:0.5;" x="518.4" xlink:href="#m625faea496" y="43.2"/>
      </g>
     </g>
     <g id="text_10">
      <!-- 10 -->
      <g transform="translate(52.73 46.51125)scale(0.12 -0.12)">
       <use xlink:href="#BitstreamVeraSans-Roman-31"/>
       <use x="63.623046875" xlink:href="#BitstreamVeraSans-Roman-30"/>
      </g>
     </g>
    </g>
   </g>
  </g>
 </g>
 <defs>
  <clipPath id="pfe0c8ef3e7">
   <rect height="345.6" width="446.4" x="72.0" y="43.2"/>
  </clipPath>
 </defs>
</svg>
