<?xml version="1.0" encoding="utf-8" standalone="no"?>
<!DOCTYPE svg PUBLIC "-//W3C//DTD SVG 1.1//EN"
  "http://www.w3.org/Graphics/SVG/1.1/DTD/svg11.dtd">
<!-- Created with matplotlib (http://matplotlib.org/) -->
<svg height="432pt" version="1.1" viewBox="0 0 576 432" width="576pt" xmlns="http://www.w3.org/2000/svg" xmlns:xlink="http://www.w3.org/1999/xlink">
 <defs>
  <style type="text/css">
*{stroke-linecap:butt;stroke-linejoin:round;stroke-miterlimit:100000;}
  </style>
 </defs>
 <g id="figure_1">
  <g id="patch_1">
   <path d="M 0 432 
L 576 432 
L 576 0 
L 0 0 
z
" style="fill:#ffffff;"/>
  </g>
  <g id="axes_1">
   <g id="patch_2">
    <path d="M 72 388.8 
L 518.4 388.8 
L 518.4 43.2 
L 72 43.2 
z
" style="fill:#ffffff;"/>
   </g>
   <g id="PathCollection_1">
    <defs>
     <path d="M 0 2.236068 
C 0.593012 2.236068 1.161816 2.000462 1.581139 1.581139 
C 2.000462 1.161816 2.236068 0.593012 2.236068 0 
C 2.236068 -0.593012 2.000462 -1.161816 1.581139 -1.581139 
C 1.161816 -2.000462 0.593012 -2.236068 0 -2.236068 
C -0.593012 -2.236068 -1.161816 -2.000462 -1.581139 -1.581139 
C -2.000462 -1.161816 -2.236068 -0.593012 -2.236068 0 
C -2.236068 0.593012 -2.000462 1.161816 -1.581139 1.581139 
C -1.161816 2.000462 -0.593012 2.236068 0 2.236068 
z
" id="m774315a038" style="stroke:#000000;"/>
    </defs>
    <g clip-path="url(#p50e204c0fa)">
     <use style="fill:#0000ff;stroke:#000000;" x="379.622970831" xlink:href="#m774315a038" y="124.040484857"/>
     <use style="fill:#0000ff;stroke:#000000;" x="284.165666431" xlink:href="#m774315a038" y="98.0314477735"/>
     <use style="fill:#0000ff;stroke:#000000;" x="288.450690624" xlink:href="#m774315a038" y="139.275483966"/>
     <use style="fill:#0000ff;stroke:#000000;" x="272.56215806" xlink:href="#m774315a038" y="103.64849428"/>
     <use style="fill:#0000ff;stroke:#000000;" x="372.365914308" xlink:href="#m774315a038" y="194.501802679"/>
     <use style="fill:#0000ff;stroke:#000000;" x="343.921149028" xlink:href="#m774315a038" y="144.244395799"/>
     <use style="fill:#0000ff;stroke:#000000;" x="346.258289041" xlink:href="#m774315a038" y="163.787771452"/>
     <use style="fill:#0000ff;stroke:#000000;" x="288.041728413" xlink:href="#m774315a038" y="149.555655256"/>
     <use style="fill:#0000ff;stroke:#000000;" x="248.71570596" xlink:href="#m774315a038" y="113.275364896"/>
     <use style="fill:#0000ff;stroke:#000000;" x="342.795751686" xlink:href="#m774315a038" y="220.052449367"/>
     <use style="fill:#0000ff;stroke:#000000;" x="338.736347626" xlink:href="#m774315a038" y="215.645190814"/>
     <use style="fill:#0000ff;stroke:#000000;" x="367.471365547" xlink:href="#m774315a038" y="253.150623327"/>
     <use style="fill:#0000ff;stroke:#000000;" x="330.482707912" xlink:href="#m774315a038" y="157.026721986"/>
     <use style="fill:#0000ff;stroke:#000000;" x="278.310233611" xlink:href="#m774315a038" y="161.99388559"/>
     <use style="fill:#0000ff;stroke:#000000;" x="240.824367275" xlink:href="#m774315a038" y="118.270018685"/>
     <use style="fill:#0000ff;stroke:#000000;" x="330.24469436" xlink:href="#m774315a038" y="244.603365713"/>
     <use style="fill:#0000ff;stroke:#000000;" x="317.657282586" xlink:href="#m774315a038" y="197.951365613"/>
     <use style="fill:#0000ff;stroke:#000000;" x="322.541254539" xlink:href="#m774315a038" y="216.704791751"/>
     <use style="fill:#0000ff;stroke:#000000;" x="303.837986771" xlink:href="#m774315a038" y="168.151767261"/>
     <use style="fill:#0000ff;stroke:#000000;" x="244.026328834" xlink:href="#m774315a038" y="134.071233638"/>
     <use style="fill:#0000ff;stroke:#000000;" x="270.326954755" xlink:href="#m774315a038" y="169.793591924"/>
     <use style="fill:#0000ff;stroke:#000000;" x="174.156623623" xlink:href="#m774315a038" y="128.689952735"/>
     <use style="fill:#0000ff;stroke:#000000;" x="313.386119452" xlink:href="#m774315a038" y="206.607344705"/>
     <use style="fill:#0000ff;stroke:#000000;" x="315.283055321" xlink:href="#m774315a038" y="213.507941989"/>
     <use style="fill:#0000ff;stroke:#000000;" x="312.727306858" xlink:href="#m774315a038" y="199.167517968"/>
     <use style="fill:#0000ff;stroke:#000000;" x="279.938451932" xlink:href="#m774315a038" y="171.46879843"/>
     <use style="fill:#0000ff;stroke:#000000;" x="301.764986335" xlink:href="#m774315a038" y="195.583092588"/>
     <use style="fill:#0000ff;stroke:#000000;" x="297.11523102" xlink:href="#m774315a038" y="181.776319976"/>
     <use style="fill:#0000ff;stroke:#000000;" x="222.611444548" xlink:href="#m774315a038" y="134.352504477"/>
     <use style="fill:#0000ff;stroke:#000000;" x="243.4629936" xlink:href="#m774315a038" y="146.608659226"/>
     <use style="fill:#0000ff;stroke:#000000;" x="237.000276793" xlink:href="#m774315a038" y="171.787562451"/>
     <use style="fill:#0000ff;stroke:#000000;" x="231.200386941" xlink:href="#m774315a038" y="166.279375208"/>
     <use style="fill:#0000ff;stroke:#000000;" x="313.884150852" xlink:href="#m774315a038" y="245.83874352"/>
     <use style="fill:#0000ff;stroke:#000000;" x="294.472253998" xlink:href="#m774315a038" y="231.76550189"/>
     <use style="fill:#0000ff;stroke:#000000;" x="293.954656067" xlink:href="#m774315a038" y="190.007360486"/>
     <use style="fill:#0000ff;stroke:#000000;" x="204.734973097" xlink:href="#m774315a038" y="153.157825582"/>
     <use style="fill:#0000ff;stroke:#000000;" x="228.590508998" xlink:href="#m774315a038" y="159.065649371"/>
     <use style="fill:#0000ff;stroke:#000000;" x="187.999422891" xlink:href="#m774315a038" y="139.353711368"/>
     <use style="fill:#0000ff;stroke:#000000;" x="251.145418094" xlink:href="#m774315a038" y="190.479253488"/>
     <use style="fill:#0000ff;stroke:#000000;" x="220.039671644" xlink:href="#m774315a038" y="161.635644893"/>
     <use style="fill:#0000ff;stroke:#000000;" x="286.101481133" xlink:href="#m774315a038" y="225.303004145"/>
     <use style="fill:#0000ff;stroke:#000000;" x="277.677153318" xlink:href="#m774315a038" y="219.238600132"/>
     <use style="fill:#0000ff;stroke:#000000;" x="180.296733132" xlink:href="#m774315a038" y="147.470617576"/>
     <use style="fill:#0000ff;stroke:#000000;" x="270.932711657" xlink:href="#m774315a038" y="193.127317766"/>
     <use style="fill:#0000ff;stroke:#000000;" x="191.144514173" xlink:href="#m774315a038" y="155.727591464"/>
     <use style="fill:#0000ff;stroke:#000000;" x="183.128245868" xlink:href="#m774315a038" y="150.893297826"/>
     <use style="fill:#0000ff;stroke:#000000;" x="226.32596854" xlink:href="#m774315a038" y="161.836208492"/>
     <use style="fill:#0000ff;stroke:#000000;" x="246.181615209" xlink:href="#m774315a038" y="192.040611439"/>
     <use style="fill:#0000ff;stroke:#000000;" x="222.735811296" xlink:href="#m774315a038" y="168.658790996"/>
     <use style="fill:#0000ff;stroke:#000000;" x="285.662745905" xlink:href="#m774315a038" y="254.828925575"/>
     <use style="fill:#0000ff;stroke:#000000;" x="277.807109462" xlink:href="#m774315a038" y="229.600633031"/>
     <use style="fill:#0000ff;stroke:#000000;" x="265.494484249" xlink:href="#m774315a038" y="205.218689564"/>
     <use style="fill:#0000ff;stroke:#000000;" x="261.977904549" xlink:href="#m774315a038" y="200.168079255"/>
     <use style="fill:#0000ff;stroke:#000000;" x="224.202359467" xlink:href="#m774315a038" y="174.195106897"/>
     <use style="fill:#0000ff;stroke:#000000;" x="205.291204315" xlink:href="#m774315a038" y="163.410165282"/>
     <use style="fill:#0000ff;stroke:#000000;" x="235.141420783" xlink:href="#m774315a038" y="196.37722609"/>
     <use style="fill:#0000ff;stroke:#000000;" x="217.565412047" xlink:href="#m774315a038" y="168.708575382"/>
     <use style="fill:#0000ff;stroke:#000000;" x="231.762374929" xlink:href="#m774315a038" y="195.236169841"/>
     <use style="fill:#0000ff;stroke:#000000;" x="243.905370612" xlink:href="#m774315a038" y="207.086140582"/>
     <use style="fill:#0000ff;stroke:#000000;" x="271.887496948" xlink:href="#m774315a038" y="256.19062502"/>
     <use style="fill:#0000ff;stroke:#000000;" x="272.011136026" xlink:href="#m774315a038" y="261.002428163"/>
     <use style="fill:#0000ff;stroke:#000000;" x="278.630942882" xlink:href="#m774315a038" y="274.726757195"/>
     <use style="fill:#0000ff;stroke:#000000;" x="271.806998442" xlink:href="#m774315a038" y="240.318313662"/>
     <use style="fill:#0000ff;stroke:#000000;" x="255.156141737" xlink:href="#m774315a038" y="215.047768605"/>
     <use style="fill:#0000ff;stroke:#000000;" x="250.678719071" xlink:href="#m774315a038" y="208.100228037"/>
     <use style="fill:#0000ff;stroke:#000000;" x="263.798659344" xlink:href="#m774315a038" y="217.188608464"/>
     <use style="fill:#0000ff;stroke:#000000;" x="254.165872817" xlink:href="#m774315a038" y="210.552965472"/>
     <use style="fill:#0000ff;stroke:#000000;" x="252.50170486" xlink:href="#m774315a038" y="210.331560407"/>
     <use style="fill:#0000ff;stroke:#000000;" x="223.441357051" xlink:href="#m774315a038" y="175.312402322"/>
     <use style="fill:#0000ff;stroke:#000000;" x="225.295831752" xlink:href="#m774315a038" y="197.437491553"/>
     <use style="fill:#0000ff;stroke:#000000;" x="214.252984564" xlink:href="#m774315a038" y="169.603272733"/>
     <use style="fill:#0000ff;stroke:#000000;" x="223.161406378" xlink:href="#m774315a038" y="195.85544897"/>
     <use style="fill:#0000ff;stroke:#000000;" x="272.364805191" xlink:href="#m774315a038" y="284.18422552"/>
     <use style="fill:#0000ff;stroke:#000000;" x="272.611284451" xlink:href="#m774315a038" y="318.877187745"/>
     <use style="fill:#0000ff;stroke:#000000;" x="263.432196125" xlink:href="#m774315a038" y="250.584821275"/>
     <use style="fill:#0000ff;stroke:#000000;" x="260.327109945" xlink:href="#m774315a038" y="217.23445791"/>
     <use style="fill:#0000ff;stroke:#000000;" x="263.191042183" xlink:href="#m774315a038" y="237.324410143"/>
     <use style="fill:#0000ff;stroke:#000000;" x="260.97288659" xlink:href="#m774315a038" y="224.830606515"/>
     <use style="fill:#0000ff;stroke:#000000;" x="222.213802809" xlink:href="#m774315a038" y="184.605004844"/>
     <use style="fill:#0000ff;stroke:#000000;" x="263.076761228" xlink:href="#m774315a038" y="251.050031535"/>
     <use style="fill:#0000ff;stroke:#000000;" x="209.111088597" xlink:href="#m774315a038" y="172.069632429"/>
     <use style="fill:#0000ff;stroke:#000000;" x="252.549382865" xlink:href="#m774315a038" y="225.513116975"/>
     <use style="fill:#0000ff;stroke:#000000;" x="250.684870044" xlink:href="#m774315a038" y="223.467164815"/>
     <use style="fill:#0000ff;stroke:#000000;" x="221.593501299" xlink:href="#m774315a038" y="192.710368109"/>
     <use style="fill:#0000ff;stroke:#000000;" x="210.812754613" xlink:href="#m774315a038" y="189.962858042"/>
     <use style="fill:#0000ff;stroke:#000000;" x="260.808862196" xlink:href="#m774315a038" y="257.626600592"/>
     <use style="fill:#0000ff;stroke:#000000;" x="196.092979891" xlink:href="#m774315a038" y="172.111019573"/>
     <use style="fill:#0000ff;stroke:#000000;" x="252.803103205" xlink:href="#m774315a038" y="256.732996483"/>
     <use style="fill:#0000ff;stroke:#000000;" x="250.061916483" xlink:href="#m774315a038" y="235.635422859"/>
     <use style="fill:#0000ff;stroke:#000000;" x="249.729839264" xlink:href="#m774315a038" y="226.181905068"/>
     <use style="fill:#0000ff;stroke:#000000;" x="235.040209143" xlink:href="#m774315a038" y="225.588083168"/>
     <use style="fill:#0000ff;stroke:#000000;" x="218.493104201" xlink:href="#m774315a038" y="207.769103364"/>
     <use style="fill:#0000ff;stroke:#000000;" x="209.989250337" xlink:href="#m774315a038" y="195.86459549"/>
     <use style="fill:#0000ff;stroke:#000000;" x="208.054324923" xlink:href="#m774315a038" y="188.787713268"/>
     <use style="fill:#0000ff;stroke:#000000;" x="197.918610342" xlink:href="#m774315a038" y="173.792268442"/>
     <use style="fill:#0000ff;stroke:#000000;" x="255.366188326" xlink:href="#m774315a038" y="259.779550933"/>
     <use style="fill:#0000ff;stroke:#000000;" x="182.045914501" xlink:href="#m774315a038" y="183.547695111"/>
     <use style="fill:#0000ff;stroke:#000000;" x="232.418011365" xlink:href="#m774315a038" y="225.819687047"/>
     <use style="fill:#0000ff;stroke:#000000;" x="216.321453811" xlink:href="#m774315a038" y="221.434735747"/>
     <use style="fill:#0000ff;stroke:#000000;" x="215.085179485" xlink:href="#m774315a038" y="219.978411409"/>
    </g>
   </g>
   <g id="PathCollection_2">
    <defs>
     <path d="M 0 1.118034 
C 0.296506 1.118034 0.580908 1.000231 0.790569 0.790569 
C 1.000231 0.580908 1.118034 0.296506 1.118034 0 
C 1.118034 -0.296506 1.000231 -0.580908 0.790569 -0.790569 
C 0.580908 -1.000231 0.296506 -1.118034 0 -1.118034 
C -0.296506 -1.118034 -0.580908 -1.000231 -0.790569 -0.790569 
C -1.000231 -0.580908 -1.118034 -0.296506 -1.118034 0 
C -1.118034 0.296506 -1.000231 0.580908 -0.790569 0.790569 
C -0.580908 1.000231 -0.296506 1.118034 0 1.118034 
z
" id="m6d79b2b107" style="stroke:#000000;"/>
    </defs>
    <g clip-path="url(#p50e204c0fa)">
     <use style="stroke:#000000;" x="379.622970831" xlink:href="#m6d79b2b107" y="124.040484857"/>
     <use style="stroke:#000000;" x="284.165666431" xlink:href="#m6d79b2b107" y="98.0314477735"/>
     <use style="stroke:#000000;" x="288.450690624" xlink:href="#m6d79b2b107" y="139.275483966"/>
     <use style="stroke:#000000;" x="272.56215806" xlink:href="#m6d79b2b107" y="103.64849428"/>
     <use style="stroke:#000000;" x="372.365914308" xlink:href="#m6d79b2b107" y="194.501802679"/>
     <use style="stroke:#000000;" x="343.921149028" xlink:href="#m6d79b2b107" y="144.244395799"/>
     <use style="stroke:#000000;" x="346.258289041" xlink:href="#m6d79b2b107" y="163.787771452"/>
     <use style="stroke:#000000;" x="288.041728413" xlink:href="#m6d79b2b107" y="149.555655256"/>
     <use style="stroke:#000000;" x="248.71570596" xlink:href="#m6d79b2b107" y="113.275364896"/>
     <use style="stroke:#000000;" x="342.795751686" xlink:href="#m6d79b2b107" y="220.052449367"/>
     <use style="stroke:#000000;" x="338.736347626" xlink:href="#m6d79b2b107" y="215.645190814"/>
     <use style="stroke:#000000;" x="367.471365547" xlink:href="#m6d79b2b107" y="253.150623327"/>
     <use style="stroke:#000000;" x="330.482707912" xlink:href="#m6d79b2b107" y="157.026721986"/>
     <use style="stroke:#000000;" x="278.310233611" xlink:href="#m6d79b2b107" y="161.99388559"/>
     <use style="stroke:#000000;" x="240.824367275" xlink:href="#m6d79b2b107" y="118.270018685"/>
     <use style="stroke:#000000;" x="330.24469436" xlink:href="#m6d79b2b107" y="244.603365713"/>
     <use style="stroke:#000000;" x="317.657282586" xlink:href="#m6d79b2b107" y="197.951365613"/>
     <use style="stroke:#000000;" x="322.541254539" xlink:href="#m6d79b2b107" y="216.704791751"/>
     <use style="stroke:#000000;" x="303.837986771" xlink:href="#m6d79b2b107" y="168.151767261"/>
     <use style="stroke:#000000;" x="244.026328834" xlink:href="#m6d79b2b107" y="134.071233638"/>
     <use style="stroke:#000000;" x="270.326954755" xlink:href="#m6d79b2b107" y="169.793591924"/>
     <use style="stroke:#000000;" x="174.156623623" xlink:href="#m6d79b2b107" y="128.689952735"/>
     <use style="stroke:#000000;" x="313.386119452" xlink:href="#m6d79b2b107" y="206.607344705"/>
     <use style="stroke:#000000;" x="315.283055321" xlink:href="#m6d79b2b107" y="213.507941989"/>
     <use style="stroke:#000000;" x="312.727306858" xlink:href="#m6d79b2b107" y="199.167517968"/>
     <use style="stroke:#000000;" x="279.938451932" xlink:href="#m6d79b2b107" y="171.46879843"/>
     <use style="stroke:#000000;" x="301.764986335" xlink:href="#m6d79b2b107" y="195.583092588"/>
     <use style="stroke:#000000;" x="297.11523102" xlink:href="#m6d79b2b107" y="181.776319976"/>
     <use style="stroke:#000000;" x="222.611444548" xlink:href="#m6d79b2b107" y="134.352504477"/>
     <use style="stroke:#000000;" x="243.4629936" xlink:href="#m6d79b2b107" y="146.608659226"/>
     <use style="stroke:#000000;" x="237.000276793" xlink:href="#m6d79b2b107" y="171.787562451"/>
     <use style="stroke:#000000;" x="231.200386941" xlink:href="#m6d79b2b107" y="166.279375208"/>
     <use style="stroke:#000000;" x="313.884150852" xlink:href="#m6d79b2b107" y="245.83874352"/>
     <use style="stroke:#000000;" x="294.472253998" xlink:href="#m6d79b2b107" y="231.76550189"/>
     <use style="stroke:#000000;" x="293.954656067" xlink:href="#m6d79b2b107" y="190.007360486"/>
     <use style="stroke:#000000;" x="204.734973097" xlink:href="#m6d79b2b107" y="153.157825582"/>
     <use style="stroke:#000000;" x="228.590508998" xlink:href="#m6d79b2b107" y="159.065649371"/>
     <use style="stroke:#000000;" x="187.999422891" xlink:href="#m6d79b2b107" y="139.353711368"/>
     <use style="stroke:#000000;" x="251.145418094" xlink:href="#m6d79b2b107" y="190.479253488"/>
     <use style="stroke:#000000;" x="220.039671644" xlink:href="#m6d79b2b107" y="161.635644893"/>
     <use style="stroke:#000000;" x="286.101481133" xlink:href="#m6d79b2b107" y="225.303004145"/>
     <use style="stroke:#000000;" x="277.677153318" xlink:href="#m6d79b2b107" y="219.238600132"/>
     <use style="stroke:#000000;" x="180.296733132" xlink:href="#m6d79b2b107" y="147.470617576"/>
     <use style="stroke:#000000;" x="270.932711657" xlink:href="#m6d79b2b107" y="193.127317766"/>
     <use style="stroke:#000000;" x="191.144514173" xlink:href="#m6d79b2b107" y="155.727591464"/>
     <use style="stroke:#000000;" x="183.128245868" xlink:href="#m6d79b2b107" y="150.893297826"/>
     <use style="stroke:#000000;" x="226.32596854" xlink:href="#m6d79b2b107" y="161.836208492"/>
     <use style="stroke:#000000;" x="246.181615209" xlink:href="#m6d79b2b107" y="192.040611439"/>
     <use style="stroke:#000000;" x="222.735811296" xlink:href="#m6d79b2b107" y="168.658790996"/>
     <use style="stroke:#000000;" x="285.662745905" xlink:href="#m6d79b2b107" y="254.828925575"/>
     <use style="stroke:#000000;" x="277.807109462" xlink:href="#m6d79b2b107" y="229.600633031"/>
     <use style="stroke:#000000;" x="265.494484249" xlink:href="#m6d79b2b107" y="205.218689564"/>
     <use style="stroke:#000000;" x="261.977904549" xlink:href="#m6d79b2b107" y="200.168079255"/>
     <use style="stroke:#000000;" x="224.202359467" xlink:href="#m6d79b2b107" y="174.195106897"/>
     <use style="stroke:#000000;" x="205.291204315" xlink:href="#m6d79b2b107" y="163.410165282"/>
     <use style="stroke:#000000;" x="235.141420783" xlink:href="#m6d79b2b107" y="196.37722609"/>
     <use style="stroke:#000000;" x="217.565412047" xlink:href="#m6d79b2b107" y="168.708575382"/>
     <use style="stroke:#000000;" x="231.762374929" xlink:href="#m6d79b2b107" y="195.236169841"/>
     <use style="stroke:#000000;" x="243.905370612" xlink:href="#m6d79b2b107" y="207.086140582"/>
     <use style="stroke:#000000;" x="271.887496948" xlink:href="#m6d79b2b107" y="256.19062502"/>
     <use style="stroke:#000000;" x="272.011136026" xlink:href="#m6d79b2b107" y="261.002428163"/>
     <use style="stroke:#000000;" x="278.630942882" xlink:href="#m6d79b2b107" y="274.726757195"/>
     <use style="stroke:#000000;" x="271.806998442" xlink:href="#m6d79b2b107" y="240.318313662"/>
     <use style="stroke:#000000;" x="255.156141737" xlink:href="#m6d79b2b107" y="215.047768605"/>
     <use style="stroke:#000000;" x="250.678719071" xlink:href="#m6d79b2b107" y="208.100228037"/>
     <use style="stroke:#000000;" x="263.798659344" xlink:href="#m6d79b2b107" y="217.188608464"/>
     <use style="stroke:#000000;" x="254.165872817" xlink:href="#m6d79b2b107" y="210.552965472"/>
     <use style="stroke:#000000;" x="252.50170486" xlink:href="#m6d79b2b107" y="210.331560407"/>
     <use style="stroke:#000000;" x="223.441357051" xlink:href="#m6d79b2b107" y="175.312402322"/>
     <use style="stroke:#000000;" x="225.295831752" xlink:href="#m6d79b2b107" y="197.437491553"/>
     <use style="stroke:#000000;" x="214.252984564" xlink:href="#m6d79b2b107" y="169.603272733"/>
     <use style="stroke:#000000;" x="223.161406378" xlink:href="#m6d79b2b107" y="195.85544897"/>
     <use style="stroke:#000000;" x="272.364805191" xlink:href="#m6d79b2b107" y="284.18422552"/>
     <use style="stroke:#000000;" x="272.611284451" xlink:href="#m6d79b2b107" y="318.877187745"/>
     <use style="stroke:#000000;" x="263.432196125" xlink:href="#m6d79b2b107" y="250.584821275"/>
     <use style="stroke:#000000;" x="260.327109945" xlink:href="#m6d79b2b107" y="217.23445791"/>
     <use style="stroke:#000000;" x="263.191042183" xlink:href="#m6d79b2b107" y="237.324410143"/>
     <use style="stroke:#000000;" x="260.97288659" xlink:href="#m6d79b2b107" y="224.830606515"/>
     <use style="stroke:#000000;" x="222.213802809" xlink:href="#m6d79b2b107" y="184.605004844"/>
     <use style="stroke:#000000;" x="263.076761228" xlink:href="#m6d79b2b107" y="251.050031535"/>
     <use style="stroke:#000000;" x="209.111088597" xlink:href="#m6d79b2b107" y="172.069632429"/>
     <use style="stroke:#000000;" x="252.549382865" xlink:href="#m6d79b2b107" y="225.513116975"/>
     <use style="stroke:#000000;" x="250.684870044" xlink:href="#m6d79b2b107" y="223.467164815"/>
     <use style="stroke:#000000;" x="221.593501299" xlink:href="#m6d79b2b107" y="192.710368109"/>
     <use style="stroke:#000000;" x="210.812754613" xlink:href="#m6d79b2b107" y="189.962858042"/>
     <use style="stroke:#000000;" x="260.808862196" xlink:href="#m6d79b2b107" y="257.626600592"/>
     <use style="stroke:#000000;" x="196.092979891" xlink:href="#m6d79b2b107" y="172.111019573"/>
     <use style="stroke:#000000;" x="252.803103205" xlink:href="#m6d79b2b107" y="256.732996483"/>
     <use style="stroke:#000000;" x="250.061916483" xlink:href="#m6d79b2b107" y="235.635422859"/>
     <use style="stroke:#000000;" x="249.729839264" xlink:href="#m6d79b2b107" y="226.181905068"/>
     <use style="stroke:#000000;" x="235.040209143" xlink:href="#m6d79b2b107" y="225.588083168"/>
     <use style="stroke:#000000;" x="218.493104201" xlink:href="#m6d79b2b107" y="207.769103364"/>
     <use style="stroke:#000000;" x="209.989250337" xlink:href="#m6d79b2b107" y="195.86459549"/>
     <use style="stroke:#000000;" x="208.054324923" xlink:href="#m6d79b2b107" y="188.787713268"/>
     <use style="stroke:#000000;" x="197.918610342" xlink:href="#m6d79b2b107" y="173.792268442"/>
     <use style="stroke:#000000;" x="255.366188326" xlink:href="#m6d79b2b107" y="259.779550933"/>
     <use style="stroke:#000000;" x="182.045914501" xlink:href="#m6d79b2b107" y="183.547695111"/>
     <use style="stroke:#000000;" x="232.418011365" xlink:href="#m6d79b2b107" y="225.819687047"/>
     <use style="stroke:#000000;" x="216.321453811" xlink:href="#m6d79b2b107" y="221.434735747"/>
     <use style="stroke:#000000;" x="215.085179485" xlink:href="#m6d79b2b107" y="219.978411409"/>
     <use style="stroke:#000000;" x="207.253495798" xlink:href="#m6d79b2b107" y="217.008356565"/>
     <use style="stroke:#000000;" x="198.25902966" xlink:href="#m6d79b2b107" y="312.202738097"/>
     <use style="stroke:#000000;" x="181.779045685" xlink:href="#m6d79b2b107" y="321.666582912"/>
     <use style="stroke:#000000;" x="163.655479653" xlink:href="#m6d79b2b107" y="288.143523818"/>
     <use style="stroke:#000000;" x="172.229157246" xlink:href="#m6d79b2b107" y="390.995280178"/>
     <use style="stroke:#000000;" x="247.790479003" xlink:href="#m6d79b2b107" y="285.515572084"/>
     <use style="stroke:#000000;" x="246.892995223" xlink:href="#m6d79b2b107" y="158.132956958"/>
     <use style="stroke:#000000;" x="186.82397927" xlink:href="#m6d79b2b107" y="323.209673041"/>
     <use style="stroke:#000000;" x="192.796995795" xlink:href="#m6d79b2b107" y="215.028824517"/>
     <use style="stroke:#000000;" x="164.206485293" xlink:href="#m6d79b2b107" y="370.882442902"/>
     <use style="stroke:#000000;" x="171.425927702" xlink:href="#m6d79b2b107" y="431.939797944"/>
     <use style="stroke:#000000;" x="208.827074821" xlink:href="#m6d79b2b107" y="205.282690021"/>
     <use style="stroke:#000000;" x="179.909480775" xlink:href="#m6d79b2b107" y="297.368954667"/>
     <use style="stroke:#000000;" x="163.611635919" xlink:href="#m6d79b2b107" y="349.866393284"/>
     <use style="stroke:#000000;" x="173.929927072" xlink:href="#m6d79b2b107" y="307.614843964"/>
     <use style="stroke:#000000;" x="167.987293668" xlink:href="#m6d79b2b107" y="290.979070722"/>
     <use style="stroke:#000000;" x="179.667740548" xlink:href="#m6d79b2b107" y="218.121970586"/>
     <use style="stroke:#000000;" x="167.963335455" xlink:href="#m6d79b2b107" y="389.748731681"/>
     <use style="stroke:#000000;" x="170.000508793" xlink:href="#m6d79b2b107" y="340.569355388"/>
     <use style="stroke:#000000;" x="277.302305581" xlink:href="#m6d79b2b107" y="233.668685824"/>
     <use style="stroke:#000000;" x="167.289923665" xlink:href="#m6d79b2b107" y="280.62425466"/>
     <use style="stroke:#000000;" x="228.035628492" xlink:href="#m6d79b2b107" y="232.345532837"/>
     <use style="stroke:#000000;" x="189.575199265" xlink:href="#m6d79b2b107" y="241.572563733"/>
     <use style="stroke:#000000;" x="270.15774598" xlink:href="#m6d79b2b107" y="203.037239256"/>
     <use style="stroke:#000000;" x="181.591082348" xlink:href="#m6d79b2b107" y="352.686317625"/>
     <use style="stroke:#000000;" x="242.015991724" xlink:href="#m6d79b2b107" y="288.000394355"/>
     <use style="stroke:#000000;" x="175.873036667" xlink:href="#m6d79b2b107" y="300.895601536"/>
     <use style="stroke:#000000;" x="165.621249233" xlink:href="#m6d79b2b107" y="351.363896902"/>
     <use style="stroke:#000000;" x="183.701152127" xlink:href="#m6d79b2b107" y="170.860638368"/>
     <use style="stroke:#000000;" x="197.791369815" xlink:href="#m6d79b2b107" y="217.920143766"/>
     <use style="stroke:#000000;" x="173.885126436" xlink:href="#m6d79b2b107" y="148.869483465"/>
     <use style="stroke:#000000;" x="178.925355238" xlink:href="#m6d79b2b107" y="227.985473755"/>
     <use style="stroke:#000000;" x="253.637145624" xlink:href="#m6d79b2b107" y="206.416197738"/>
     <use style="stroke:#000000;" x="168.106943576" xlink:href="#m6d79b2b107" y="303.770844621"/>
     <use style="stroke:#000000;" x="194.345332417" xlink:href="#m6d79b2b107" y="177.278922365"/>
     <use style="stroke:#000000;" x="180.921944696" xlink:href="#m6d79b2b107" y="314.233968915"/>
     <use style="stroke:#000000;" x="187.286830144" xlink:href="#m6d79b2b107" y="215.165893821"/>
     <use style="stroke:#000000;" x="171.414975717" xlink:href="#m6d79b2b107" y="192.693513879"/>
     <use style="stroke:#000000;" x="164.813586758" xlink:href="#m6d79b2b107" y="287.917051149"/>
     <use style="stroke:#000000;" x="167.400844827" xlink:href="#m6d79b2b107" y="341.448534119"/>
     <use style="stroke:#000000;" x="173.471647259" xlink:href="#m6d79b2b107" y="336.50626956"/>
     <use style="stroke:#000000;" x="233.117845136" xlink:href="#m6d79b2b107" y="160.273042395"/>
     <use style="stroke:#000000;" x="167.64090217" xlink:href="#m6d79b2b107" y="327.780223747"/>
     <use style="stroke:#000000;" x="166.165063579" xlink:href="#m6d79b2b107" y="311.085680827"/>
     <use style="stroke:#000000;" x="197.232182142" xlink:href="#m6d79b2b107" y="270.133311695"/>
     <use style="stroke:#000000;" x="186.930750649" xlink:href="#m6d79b2b107" y="289.241743394"/>
     <use style="stroke:#000000;" x="173.685336662" xlink:href="#m6d79b2b107" y="234.931907936"/>
     <use style="stroke:#000000;" x="167.954779944" xlink:href="#m6d79b2b107" y="308.328945923"/>
     <use style="stroke:#000000;" x="183.350451643" xlink:href="#m6d79b2b107" y="277.677860125"/>
     <use style="stroke:#000000;" x="164.239478253" xlink:href="#m6d79b2b107" y="381.534003754"/>
    </g>
   </g>
   <g id="patch_3">
    <path d="M 72 388.8 
L 72 43.2 
" style="fill:none;stroke:#000000;stroke-linecap:square;stroke-linejoin:miter;"/>
   </g>
   <g id="patch_4">
    <path d="M 72 388.8 
L 518.4 388.8 
" style="fill:none;stroke:#000000;stroke-linecap:square;stroke-linejoin:miter;"/>
   </g>
   <g id="patch_5">
    <path d="M 518.4 388.8 
L 518.4 43.2 
" style="fill:none;stroke:#000000;stroke-linecap:square;stroke-linejoin:miter;"/>
   </g>
   <g id="patch_6">
    <path d="M 72 43.2 
L 518.4 43.2 
" style="fill:none;stroke:#000000;stroke-linecap:square;stroke-linejoin:miter;"/>
   </g>
   <g id="matplotlib.axis_1">
    <g id="xtick_1">
     <g id="line2d_1">
      <defs>
       <path d="M 0 0 
L 0 -4 
" id="m6f78532c9e" style="stroke:#000000;stroke-width:0.5;"/>
      </defs>
      <g>
       <use style="stroke:#000000;stroke-width:0.5;" x="72.0" xlink:href="#m6f78532c9e" y="388.8"/>
      </g>
     </g>
     <g id="line2d_2">
      <defs>
       <path d="M 0 0 
L 0 4 
" id="m4a1a3904d0" style="stroke:#000000;stroke-width:0.5;"/>
      </defs>
      <g>
       <use style="stroke:#000000;stroke-width:0.5;" x="72.0" xlink:href="#m4a1a3904d0" y="43.2"/>
      </g>
     </g>
     <g id="text_1">
      <!-- −5 -->
      <defs>
       <path d="M 10.59375 35.5 
L 73.1875 35.5 
L 73.1875 27.203125 
L 10.59375 27.203125 
z
" id="BitstreamVeraSans-Roman-2212"/>
       <path d="M 10.796875 72.90625 
L 49.515625 72.90625 
L 49.515625 64.59375 
L 19.828125 64.59375 
L 19.828125 46.734375 
Q 21.96875 47.46875 24.109375 47.828125 
Q 26.265625 48.1875 28.421875 48.1875 
Q 40.625 48.1875 47.75 41.5 
Q 54.890625 34.8125 54.890625 23.390625 
Q 54.890625 11.625 47.5625 5.09375 
Q 40.234375 -1.421875 26.90625 -1.421875 
Q 22.3125 -1.421875 17.546875 -0.640625 
Q 12.796875 0.140625 7.71875 1.703125 
L 7.71875 11.625 
Q 12.109375 9.234375 16.796875 8.0625 
Q 21.484375 6.890625 26.703125 6.890625 
Q 35.15625 6.890625 40.078125 11.328125 
Q 45.015625 15.765625 45.015625 23.390625 
Q 45.015625 31 40.078125 35.4375 
Q 35.15625 39.890625 26.703125 39.890625 
Q 22.75 39.890625 18.8125 39.015625 
Q 14.890625 38.140625 10.796875 36.28125 
z
" id="BitstreamVeraSans-Roman-35"/>
      </defs>
      <g transform="translate(63.1546875 401.918125)scale(0.12 -0.12)">
       <use xlink:href="#BitstreamVeraSans-Roman-2212"/>
       <use x="83.7890625" xlink:href="#BitstreamVeraSans-Roman-35"/>
      </g>
     </g>
    </g>
    <g id="xtick_2">
     <g id="line2d_3">
      <g>
       <use style="stroke:#000000;stroke-width:0.5;" x="161.28" xlink:href="#m6f78532c9e" y="388.8"/>
      </g>
     </g>
     <g id="line2d_4">
      <g>
       <use style="stroke:#000000;stroke-width:0.5;" x="161.28" xlink:href="#m4a1a3904d0" y="43.2"/>
      </g>
     </g>
     <g id="text_2">
      <!-- 0 -->
      <defs>
       <path d="M 31.78125 66.40625 
Q 24.171875 66.40625 20.328125 58.90625 
Q 16.5 51.421875 16.5 36.375 
Q 16.5 21.390625 20.328125 13.890625 
Q 24.171875 6.390625 31.78125 6.390625 
Q 39.453125 6.390625 43.28125 13.890625 
Q 47.125 21.390625 47.125 36.375 
Q 47.125 51.421875 43.28125 58.90625 
Q 39.453125 66.40625 31.78125 66.40625 
M 31.78125 74.21875 
Q 44.046875 74.21875 50.515625 64.515625 
Q 56.984375 54.828125 56.984375 36.375 
Q 56.984375 17.96875 50.515625 8.265625 
Q 44.046875 -1.421875 31.78125 -1.421875 
Q 19.53125 -1.421875 13.0625 8.265625 
Q 6.59375 17.96875 6.59375 36.375 
Q 6.59375 54.828125 13.0625 64.515625 
Q 19.53125 74.21875 31.78125 74.21875 
" id="BitstreamVeraSans-Roman-30"/>
      </defs>
      <g transform="translate(157.4625 401.918125)scale(0.12 -0.12)">
       <use xlink:href="#BitstreamVeraSans-Roman-30"/>
      </g>
     </g>
    </g>
    <g id="xtick_3">
     <g id="line2d_5">
      <g>
       <use style="stroke:#000000;stroke-width:0.5;" x="250.56" xlink:href="#m6f78532c9e" y="388.8"/>
      </g>
     </g>
     <g id="line2d_6">
      <g>
       <use style="stroke:#000000;stroke-width:0.5;" x="250.56" xlink:href="#m4a1a3904d0" y="43.2"/>
      </g>
     </g>
     <g id="text_3">
      <!-- 5 -->
      <g transform="translate(246.7425 401.918125)scale(0.12 -0.12)">
       <use xlink:href="#BitstreamVeraSans-Roman-35"/>
      </g>
     </g>
    </g>
    <g id="xtick_4">
     <g id="line2d_7">
      <g>
       <use style="stroke:#000000;stroke-width:0.5;" x="339.84" xlink:href="#m6f78532c9e" y="388.8"/>
      </g>
     </g>
     <g id="line2d_8">
      <g>
       <use style="stroke:#000000;stroke-width:0.5;" x="339.84" xlink:href="#m4a1a3904d0" y="43.2"/>
      </g>
     </g>
     <g id="text_4">
      <!-- 10 -->
      <defs>
       <path d="M 12.40625 8.296875 
L 28.515625 8.296875 
L 28.515625 63.921875 
L 10.984375 60.40625 
L 10.984375 69.390625 
L 28.421875 72.90625 
L 38.28125 72.90625 
L 38.28125 8.296875 
L 54.390625 8.296875 
L 54.390625 0 
L 12.40625 0 
z
" id="BitstreamVeraSans-Roman-31"/>
      </defs>
      <g transform="translate(332.205 401.918125)scale(0.12 -0.12)">
       <use xlink:href="#BitstreamVeraSans-Roman-31"/>
       <use x="63.623046875" xlink:href="#BitstreamVeraSans-Roman-30"/>
      </g>
     </g>
    </g>
    <g id="xtick_5">
     <g id="line2d_9">
      <g>
       <use style="stroke:#000000;stroke-width:0.5;" x="429.12" xlink:href="#m6f78532c9e" y="388.8"/>
      </g>
     </g>
     <g id="line2d_10">
      <g>
       <use style="stroke:#000000;stroke-width:0.5;" x="429.12" xlink:href="#m4a1a3904d0" y="43.2"/>
      </g>
     </g>
     <g id="text_5">
      <!-- 15 -->
      <g transform="translate(421.485 401.918125)scale(0.12 -0.12)">
       <use xlink:href="#BitstreamVeraSans-Roman-31"/>
       <use x="63.623046875" xlink:href="#BitstreamVeraSans-Roman-35"/>
      </g>
     </g>
    </g>
    <g id="xtick_6">
     <g id="line2d_11">
      <g>
       <use style="stroke:#000000;stroke-width:0.5;" x="518.4" xlink:href="#m6f78532c9e" y="388.8"/>
      </g>
     </g>
     <g id="line2d_12">
      <g>
       <use style="stroke:#000000;stroke-width:0.5;" x="518.4" xlink:href="#m4a1a3904d0" y="43.2"/>
      </g>
     </g>
     <g id="text_6">
      <!-- 20 -->
      <defs>
       <path d="M 19.1875 8.296875 
L 53.609375 8.296875 
L 53.609375 0 
L 7.328125 0 
L 7.328125 8.296875 
Q 12.9375 14.109375 22.625 23.890625 
Q 32.328125 33.6875 34.8125 36.53125 
Q 39.546875 41.84375 41.421875 45.53125 
Q 43.3125 49.21875 43.3125 52.78125 
Q 43.3125 58.59375 39.234375 62.25 
Q 35.15625 65.921875 28.609375 65.921875 
Q 23.96875 65.921875 18.8125 64.3125 
Q 13.671875 62.703125 7.8125 59.421875 
L 7.8125 69.390625 
Q 13.765625 71.78125 18.9375 73 
Q 24.125 74.21875 28.421875 74.21875 
Q 39.75 74.21875 46.484375 68.546875 
Q 53.21875 62.890625 53.21875 53.421875 
Q 53.21875 48.921875 51.53125 44.890625 
Q 49.859375 40.875 45.40625 35.40625 
Q 44.1875 33.984375 37.640625 27.21875 
Q 31.109375 20.453125 19.1875 8.296875 
" id="BitstreamVeraSans-Roman-32"/>
      </defs>
      <g transform="translate(510.765 401.918125)scale(0.12 -0.12)">
       <use xlink:href="#BitstreamVeraSans-Roman-32"/>
       <use x="63.623046875" xlink:href="#BitstreamVeraSans-Roman-30"/>
      </g>
     </g>
    </g>
   </g>
   <g id="matplotlib.axis_2">
    <g id="ytick_1">
     <g id="line2d_13">
      <defs>
       <path d="M 0 0 
L 4 0 
" id="m4bf9c757f1" style="stroke:#000000;stroke-width:0.5;"/>
      </defs>
      <g>
       <use style="stroke:#000000;stroke-width:0.5;" x="72.0" xlink:href="#m4bf9c757f1" y="388.8"/>
      </g>
     </g>
     <g id="line2d_14">
      <defs>
       <path d="M 0 0 
L -4 0 
" id="m5336d20346" style="stroke:#000000;stroke-width:0.5;"/>
      </defs>
      <g>
       <use style="stroke:#000000;stroke-width:0.5;" x="518.4" xlink:href="#m5336d20346" y="388.8"/>
      </g>
     </g>
     <g id="text_7">
      <!-- −30 -->
      <defs>
       <path d="M 40.578125 39.3125 
Q 47.65625 37.796875 51.625 33 
Q 55.609375 28.21875 55.609375 21.1875 
Q 55.609375 10.40625 48.1875 4.484375 
Q 40.765625 -1.421875 27.09375 -1.421875 
Q 22.515625 -1.421875 17.65625 -0.515625 
Q 12.796875 0.390625 7.625 2.203125 
L 7.625 11.71875 
Q 11.71875 9.328125 16.59375 8.109375 
Q 21.484375 6.890625 26.8125 6.890625 
Q 36.078125 6.890625 40.9375 10.546875 
Q 45.796875 14.203125 45.796875 21.1875 
Q 45.796875 27.640625 41.28125 31.265625 
Q 36.765625 34.90625 28.71875 34.90625 
L 20.21875 34.90625 
L 20.21875 43.015625 
L 29.109375 43.015625 
Q 36.375 43.015625 40.234375 45.921875 
Q 44.09375 48.828125 44.09375 54.296875 
Q 44.09375 59.90625 40.109375 62.90625 
Q 36.140625 65.921875 28.71875 65.921875 
Q 24.65625 65.921875 20.015625 65.03125 
Q 15.375 64.15625 9.8125 62.3125 
L 9.8125 71.09375 
Q 15.4375 72.65625 20.34375 73.4375 
Q 25.25 74.21875 29.59375 74.21875 
Q 40.828125 74.21875 47.359375 69.109375 
Q 53.90625 64.015625 53.90625 55.328125 
Q 53.90625 49.265625 50.4375 45.09375 
Q 46.96875 40.921875 40.578125 39.3125 
" id="BitstreamVeraSans-Roman-33"/>
      </defs>
      <g transform="translate(42.674375 392.11125)scale(0.12 -0.12)">
       <use xlink:href="#BitstreamVeraSans-Roman-2212"/>
       <use x="83.7890625" xlink:href="#BitstreamVeraSans-Roman-33"/>
       <use x="147.412109375" xlink:href="#BitstreamVeraSans-Roman-30"/>
      </g>
     </g>
    </g>
    <g id="ytick_2">
     <g id="line2d_15">
      <g>
       <use style="stroke:#000000;stroke-width:0.5;" x="72.0" xlink:href="#m4bf9c757f1" y="345.6"/>
      </g>
     </g>
     <g id="line2d_16">
      <g>
       <use style="stroke:#000000;stroke-width:0.5;" x="518.4" xlink:href="#m5336d20346" y="345.6"/>
      </g>
     </g>
     <g id="text_8">
      <!-- −25 -->
      <g transform="translate(42.674375 348.91125)scale(0.12 -0.12)">
       <use xlink:href="#BitstreamVeraSans-Roman-2212"/>
       <use x="83.7890625" xlink:href="#BitstreamVeraSans-Roman-32"/>
       <use x="147.412109375" xlink:href="#BitstreamVeraSans-Roman-35"/>
      </g>
     </g>
    </g>
    <g id="ytick_3">
     <g id="line2d_17">
      <g>
       <use style="stroke:#000000;stroke-width:0.5;" x="72.0" xlink:href="#m4bf9c757f1" y="302.4"/>
      </g>
     </g>
     <g id="line2d_18">
      <g>
       <use style="stroke:#000000;stroke-width:0.5;" x="518.4" xlink:href="#m5336d20346" y="302.4"/>
      </g>
     </g>
     <g id="text_9">
      <!-- −20 -->
      <g transform="translate(42.674375 305.71125)scale(0.12 -0.12)">
       <use xlink:href="#BitstreamVeraSans-Roman-2212"/>
       <use x="83.7890625" xlink:href="#BitstreamVeraSans-Roman-32"/>
       <use x="147.412109375" xlink:href="#BitstreamVeraSans-Roman-30"/>
      </g>
     </g>
    </g>
    <g id="ytick_4">
     <g id="line2d_19">
      <g>
       <use style="stroke:#000000;stroke-width:0.5;" x="72.0" xlink:href="#m4bf9c757f1" y="259.2"/>
      </g>
     </g>
     <g id="line2d_20">
      <g>
       <use style="stroke:#000000;stroke-width:0.5;" x="518.4" xlink:href="#m5336d20346" y="259.2"/>
      </g>
     </g>
     <g id="text_10">
      <!-- −15 -->
      <g transform="translate(42.674375 262.51125)scale(0.12 -0.12)">
       <use xlink:href="#BitstreamVeraSans-Roman-2212"/>
       <use x="83.7890625" xlink:href="#BitstreamVeraSans-Roman-31"/>
       <use x="147.412109375" xlink:href="#BitstreamVeraSans-Roman-35"/>
      </g>
     </g>
    </g>
    <g id="ytick_5">
     <g id="line2d_21">
      <g>
       <use style="stroke:#000000;stroke-width:0.5;" x="72.0" xlink:href="#m4bf9c757f1" y="216.0"/>
      </g>
     </g>
     <g id="line2d_22">
      <g>
       <use style="stroke:#000000;stroke-width:0.5;" x="518.4" xlink:href="#m5336d20346" y="216.0"/>
      </g>
     </g>
     <g id="text_11">
      <!-- −10 -->
      <g transform="translate(42.674375 219.31125)scale(0.12 -0.12)">
       <use xlink:href="#BitstreamVeraSans-Roman-2212"/>
       <use x="83.7890625" xlink:href="#BitstreamVeraSans-Roman-31"/>
       <use x="147.412109375" xlink:href="#BitstreamVeraSans-Roman-30"/>
      </g>
     </g>
    </g>
    <g id="ytick_6">
     <g id="line2d_23">
      <g>
       <use style="stroke:#000000;stroke-width:0.5;" x="72.0" xlink:href="#m4bf9c757f1" y="172.8"/>
      </g>
     </g>
     <g id="line2d_24">
      <g>
       <use style="stroke:#000000;stroke-width:0.5;" x="518.4" xlink:href="#m5336d20346" y="172.8"/>
      </g>
     </g>
     <g id="text_12">
      <!-- −5 -->
      <g transform="translate(50.309375 176.11125)scale(0.12 -0.12)">
       <use xlink:href="#BitstreamVeraSans-Roman-2212"/>
       <use x="83.7890625" xlink:href="#BitstreamVeraSans-Roman-35"/>
      </g>
     </g>
    </g>
    <g id="ytick_7">
     <g id="line2d_25">
      <g>
       <use style="stroke:#000000;stroke-width:0.5;" x="72.0" xlink:href="#m4bf9c757f1" y="129.6"/>
      </g>
     </g>
     <g id="line2d_26">
      <g>
       <use style="stroke:#000000;stroke-width:0.5;" x="518.4" xlink:href="#m5336d20346" y="129.6"/>
      </g>
     </g>
     <g id="text_13">
      <!-- 0 -->
      <g transform="translate(60.365 132.91125)scale(0.12 -0.12)">
       <use xlink:href="#BitstreamVeraSans-Roman-30"/>
      </g>
     </g>
    </g>
    <g id="ytick_8">
     <g id="line2d_27">
      <g>
       <use style="stroke:#000000;stroke-width:0.5;" x="72.0" xlink:href="#m4bf9c757f1" y="86.4"/>
      </g>
     </g>
     <g id="line2d_28">
      <g>
       <use style="stroke:#000000;stroke-width:0.5;" x="518.4" xlink:href="#m5336d20346" y="86.4"/>
      </g>
     </g>
     <g id="text_14">
      <!-- 5 -->
      <g transform="translate(60.365 89.71125)scale(0.12 -0.12)">
       <use xlink:href="#BitstreamVeraSans-Roman-35"/>
      </g>
     </g>
    </g>
    <g id="ytick_9">
     <g id="line2d_29">
      <g>
       <use style="stroke:#000000;stroke-width:0.5;" x="72.0" xlink:href="#m4bf9c757f1" y="43.2"/>
      </g>
     </g>
     <g id="line2d_30">
      <g>
       <use style="stroke:#000000;stroke-width:0.5;" x="518.4" xlink:href="#m5336d20346" y="43.2"/>
      </g>
     </g>
     <g id="text_15">
      <!-- 10 -->
      <g transform="translate(52.73 46.51125)scale(0.12 -0.12)">
       <use xlink:href="#BitstreamVeraSans-Roman-31"/>
       <use x="63.623046875" xlink:href="#BitstreamVeraSans-Roman-30"/>
      </g>
     </g>
    </g>
   </g>
  </g>
 </g>
 <defs>
  <clipPath id="p50e204c0fa">
   <rect height="345.6" width="446.4" x="72.0" y="43.2"/>
  </clipPath>
 </defs>
</svg>
