<?xml version="1.0" encoding="utf-8" standalone="no"?>
<!DOCTYPE svg PUBLIC "-//W3C//DTD SVG 1.1//EN"
  "http://www.w3.org/Graphics/SVG/1.1/DTD/svg11.dtd">
<!-- Created with matplotlib (http://matplotlib.org/) -->
<svg height="432pt" version="1.1" viewBox="0 0 576 432" width="576pt" xmlns="http://www.w3.org/2000/svg" xmlns:xlink="http://www.w3.org/1999/xlink">
 <defs>
  <style type="text/css">
*{stroke-linecap:butt;stroke-linejoin:round;stroke-miterlimit:100000;}
  </style>
 </defs>
 <g id="figure_1">
  <g id="patch_1">
   <path d="M 0 432 
L 576 432 
L 576 0 
L 0 0 
z
" style="fill:#ffffff;"/>
  </g>
  <g id="axes_1">
   <g id="patch_2">
    <path d="M 72 388.8 
L 518.4 388.8 
L 518.4 43.2 
L 72 43.2 
z
" style="fill:#ffffff;"/>
   </g>
   <g id="PathCollection_1">
    <defs>
     <path d="M 0 2.236068 
C 0.593012 2.236068 1.161816 2.000462 1.581139 1.581139 
C 2.000462 1.161816 2.236068 0.593012 2.236068 0 
C 2.236068 -0.593012 2.000462 -1.161816 1.581139 -1.581139 
C 1.161816 -2.000462 0.593012 -2.236068 0 -2.236068 
C -0.593012 -2.236068 -1.161816 -2.000462 -1.581139 -1.581139 
C -2.000462 -1.161816 -2.236068 -0.593012 -2.236068 0 
C -2.236068 0.593012 -2.000462 1.161816 -1.581139 1.581139 
C -1.161816 2.000462 -0.593012 2.236068 0 2.236068 
z
" id="m865d50a7e8" style="stroke:#000000;"/>
    </defs>
    <g clip-path="url(#p3c733e0cd1)">
     <use style="fill:#0000ff;stroke:#000000;" x="360.439027899" xlink:href="#m865d50a7e8" y="63.1575290499"/>
     <use style="fill:#0000ff;stroke:#000000;" x="481.687704617" xlink:href="#m865d50a7e8" y="122.522038152"/>
     <use style="fill:#0000ff;stroke:#000000;" x="362.032636786" xlink:href="#m865d50a7e8" y="81.9250496239"/>
     <use style="fill:#0000ff;stroke:#000000;" x="283.361093811" xlink:href="#m865d50a7e8" y="80.2847893361"/>
     <use style="fill:#0000ff;stroke:#000000;" x="426.563520407" xlink:href="#m865d50a7e8" y="183.14734481"/>
     <use style="fill:#0000ff;stroke:#000000;" x="359.768379135" xlink:href="#m865d50a7e8" y="85.7926894192"/>
     <use style="fill:#0000ff;stroke:#000000;" x="229.488606487" xlink:href="#m865d50a7e8" y="72.3142812129"/>
     <use style="fill:#0000ff;stroke:#000000;" x="359.997341781" xlink:href="#m865d50a7e8" y="140.436493223"/>
     <use style="fill:#0000ff;stroke:#000000;" x="379.710764435" xlink:href="#m865d50a7e8" y="142.894602679"/>
     <use style="fill:#0000ff;stroke:#000000;" x="431.707786245" xlink:href="#m865d50a7e8" y="206.452504392"/>
     <use style="fill:#0000ff;stroke:#000000;" x="389.249892334" xlink:href="#m865d50a7e8" y="172.956325504"/>
     <use style="fill:#0000ff;stroke:#000000;" x="273.661584723" xlink:href="#m865d50a7e8" y="102.528087886"/>
     <use style="fill:#0000ff;stroke:#000000;" x="382.082039909" xlink:href="#m865d50a7e8" y="175.81215712"/>
     <use style="fill:#0000ff;stroke:#000000;" x="289.639701662" xlink:href="#m865d50a7e8" y="147.108832779"/>
     <use style="fill:#0000ff;stroke:#000000;" x="287.958152" xlink:href="#m865d50a7e8" y="126.528376159"/>
     <use style="fill:#0000ff;stroke:#000000;" x="304.734428022" xlink:href="#m865d50a7e8" y="161.073131641"/>
     <use style="fill:#0000ff;stroke:#000000;" x="253.862397321" xlink:href="#m865d50a7e8" y="147.779748074"/>
     <use style="fill:#0000ff;stroke:#000000;" x="354.243873168" xlink:href="#m865d50a7e8" y="201.089944467"/>
     <use style="fill:#0000ff;stroke:#000000;" x="225.215097677" xlink:href="#m865d50a7e8" y="114.113506912"/>
     <use style="fill:#0000ff;stroke:#000000;" x="244.886899908" xlink:href="#m865d50a7e8" y="135.108817705"/>
     <use style="fill:#0000ff;stroke:#000000;" x="286.953186541" xlink:href="#m865d50a7e8" y="173.693618934"/>
     <use style="fill:#0000ff;stroke:#000000;" x="280.15195342" xlink:href="#m865d50a7e8" y="168.073027651"/>
     <use style="fill:#0000ff;stroke:#000000;" x="292.161075075" xlink:href="#m865d50a7e8" y="176.24067464"/>
     <use style="fill:#0000ff;stroke:#000000;" x="354.230559826" xlink:href="#m865d50a7e8" y="180.812996947"/>
     <use style="fill:#0000ff;stroke:#000000;" x="241.565107469" xlink:href="#m865d50a7e8" y="163.932156115"/>
     <use style="fill:#0000ff;stroke:#000000;" x="306.036536106" xlink:href="#m865d50a7e8" y="183.322779112"/>
     <use style="fill:#0000ff;stroke:#000000;" x="212.247878146" xlink:href="#m865d50a7e8" y="159.304406009"/>
     <use style="fill:#0000ff;stroke:#000000;" x="200.87349125" xlink:href="#m865d50a7e8" y="149.13696674"/>
     <use style="fill:#0000ff;stroke:#000000;" x="192.27854778" xlink:href="#m865d50a7e8" y="140.349372174"/>
     <use style="fill:#0000ff;stroke:#000000;" x="178.672787748" xlink:href="#m865d50a7e8" y="122.25647984"/>
     <use style="fill:#0000ff;stroke:#000000;" x="174.38415211" xlink:href="#m865d50a7e8" y="115.770976456"/>
     <use style="fill:#0000ff;stroke:#000000;" x="284.720958523" xlink:href="#m865d50a7e8" y="177.828294509"/>
     <use style="fill:#0000ff;stroke:#000000;" x="277.466553748" xlink:href="#m865d50a7e8" y="169.099005368"/>
     <use style="fill:#0000ff;stroke:#000000;" x="323.013168355" xlink:href="#m865d50a7e8" y="207.214568756"/>
     <use style="fill:#0000ff;stroke:#000000;" x="345.487342972" xlink:href="#m865d50a7e8" y="264.887404241"/>
     <use style="fill:#0000ff;stroke:#000000;" x="229.054407921" xlink:href="#m865d50a7e8" y="169.52905754"/>
     <use style="fill:#0000ff;stroke:#000000;" x="285.421727661" xlink:href="#m865d50a7e8" y="187.369592422"/>
     <use style="fill:#0000ff;stroke:#000000;" x="240.821813911" xlink:href="#m865d50a7e8" y="172.061798012"/>
     <use style="fill:#0000ff;stroke:#000000;" x="192.810712169" xlink:href="#m865d50a7e8" y="153.809397725"/>
     <use style="fill:#0000ff;stroke:#000000;" x="155.820246938" xlink:href="#m865d50a7e8" y="149.225366536"/>
     <use style="fill:#0000ff;stroke:#000000;" x="188.9952675" xlink:href="#m865d50a7e8" y="149.960741918"/>
     <use style="fill:#0000ff;stroke:#000000;" x="150.329328672" xlink:href="#m865d50a7e8" y="137.289536954"/>
     <use style="fill:#0000ff;stroke:#000000;" x="290.786663351" xlink:href="#m865d50a7e8" y="196.731399041"/>
     <use style="fill:#0000ff;stroke:#000000;" x="269.154575405" xlink:href="#m865d50a7e8" y="174.941396911"/>
     <use style="fill:#0000ff;stroke:#000000;" x="293.943775596" xlink:href="#m865d50a7e8" y="295.502377784"/>
     <use style="fill:#0000ff;stroke:#000000;" x="293.588142998" xlink:href="#m865d50a7e8" y="201.555493439"/>
     <use style="fill:#0000ff;stroke:#000000;" x="214.946365387" xlink:href="#m865d50a7e8" y="171.953837841"/>
     <use style="fill:#0000ff;stroke:#000000;" x="284.235009439" xlink:href="#m865d50a7e8" y="196.504735648"/>
     <use style="fill:#0000ff;stroke:#000000;" x="229.935370861" xlink:href="#m865d50a7e8" y="173.182797817"/>
     <use style="fill:#0000ff;stroke:#000000;" x="231.329324447" xlink:href="#m865d50a7e8" y="183.313958053"/>
     <use style="fill:#0000ff;stroke:#000000;" x="188.015713444" xlink:href="#m865d50a7e8" y="151.64729632"/>
     <use style="fill:#0000ff;stroke:#000000;" x="147.118748357" xlink:href="#m865d50a7e8" y="138.61928024"/>
     <use style="fill:#0000ff;stroke:#000000;" x="246.659842813" xlink:href="#m865d50a7e8" y="194.365923795"/>
     <use style="fill:#0000ff;stroke:#000000;" x="244.212047336" xlink:href="#m865d50a7e8" y="183.463043691"/>
     <use style="fill:#0000ff;stroke:#000000;" x="292.618839299" xlink:href="#m865d50a7e8" y="205.491660899"/>
     <use style="fill:#0000ff;stroke:#000000;" x="186.613886225" xlink:href="#m865d50a7e8" y="175.400155313"/>
     <use style="fill:#0000ff;stroke:#000000;" x="284.359575733" xlink:href="#m865d50a7e8" y="247.522247393"/>
     <use style="fill:#0000ff;stroke:#000000;" x="209.952483147" xlink:href="#m865d50a7e8" y="184.277367809"/>
     <use style="fill:#0000ff;stroke:#000000;" x="239.517098679" xlink:href="#m865d50a7e8" y="186.461478182"/>
     <use style="fill:#0000ff;stroke:#000000;" x="171.930458072" xlink:href="#m865d50a7e8" y="158.543449021"/>
     <use style="fill:#0000ff;stroke:#000000;" x="280.896902121" xlink:href="#m865d50a7e8" y="244.810924499"/>
     <use style="fill:#0000ff;stroke:#000000;" x="277.778625554" xlink:href="#m865d50a7e8" y="224.45764439"/>
     <use style="fill:#0000ff;stroke:#000000;" x="176.108811183" xlink:href="#m865d50a7e8" y="179.294378743"/>
     <use style="fill:#0000ff;stroke:#000000;" x="253.878795016" xlink:href="#m865d50a7e8" y="230.374782814"/>
     <use style="fill:#0000ff;stroke:#000000;" x="187.953870653" xlink:href="#m865d50a7e8" y="191.877964898"/>
     <use style="fill:#0000ff;stroke:#000000;" x="158.914063652" xlink:href="#m865d50a7e8" y="173.607895902"/>
     <use style="fill:#0000ff;stroke:#000000;" x="152.372221034" xlink:href="#m865d50a7e8" y="161.967026896"/>
     <use style="fill:#0000ff;stroke:#000000;" x="154.574927624" xlink:href="#m865d50a7e8" y="169.362537546"/>
     <use style="fill:#0000ff;stroke:#000000;" x="218.872522763" xlink:href="#m865d50a7e8" y="219.867871295"/>
     <use style="fill:#0000ff;stroke:#000000;" x="210.336965476" xlink:href="#m865d50a7e8" y="192.620351238"/>
     <use style="fill:#0000ff;stroke:#000000;" x="211.09038136" xlink:href="#m865d50a7e8" y="213.798956019"/>
     <use style="fill:#0000ff;stroke:#000000;" x="150.689300117" xlink:href="#m865d50a7e8" y="182.974631593"/>
     <use style="fill:#0000ff;stroke:#000000;" x="245.477586166" xlink:href="#m865d50a7e8" y="252.6666684"/>
     <use style="fill:#0000ff;stroke:#000000;" x="175.005612877" xlink:href="#m865d50a7e8" y="188.965356858"/>
     <use style="fill:#0000ff;stroke:#000000;" x="190.132012167" xlink:href="#m865d50a7e8" y="193.909801707"/>
     <use style="fill:#0000ff;stroke:#000000;" x="212.991067082" xlink:href="#m865d50a7e8" y="228.90362914"/>
     <use style="fill:#0000ff;stroke:#000000;" x="209.352099774" xlink:href="#m865d50a7e8" y="212.868060666"/>
     <use style="fill:#0000ff;stroke:#000000;" x="197.442124085" xlink:href="#m865d50a7e8" y="195.499074548"/>
     <use style="fill:#0000ff;stroke:#000000;" x="159.728454721" xlink:href="#m865d50a7e8" y="191.422179832"/>
     <use style="fill:#0000ff;stroke:#000000;" x="240.551382146" xlink:href="#m865d50a7e8" y="257.779841081"/>
     <use style="fill:#0000ff;stroke:#000000;" x="206.860135994" xlink:href="#m865d50a7e8" y="247.334694046"/>
     <use style="fill:#0000ff;stroke:#000000;" x="195.207600851" xlink:href="#m865d50a7e8" y="197.718827624"/>
     <use style="fill:#0000ff;stroke:#000000;" x="197.331510585" xlink:href="#m865d50a7e8" y="228.192600017"/>
     <use style="fill:#0000ff;stroke:#000000;" x="190.908963245" xlink:href="#m865d50a7e8" y="197.703165171"/>
     <use style="fill:#0000ff;stroke:#000000;" x="147.419119295" xlink:href="#m865d50a7e8" y="191.942444206"/>
     <use style="fill:#0000ff;stroke:#000000;" x="236.429745782" xlink:href="#m865d50a7e8" y="258.973565641"/>
     <use style="fill:#0000ff;stroke:#000000;" x="201.921246813" xlink:href="#m865d50a7e8" y="248.8241282"/>
     <use style="fill:#0000ff;stroke:#000000;" x="188.062451967" xlink:href="#m865d50a7e8" y="231.460167192"/>
     <use style="fill:#0000ff;stroke:#000000;" x="180.070518209" xlink:href="#m865d50a7e8" y="210.212550883"/>
     <use style="fill:#0000ff;stroke:#000000;" x="185.89664648" xlink:href="#m865d50a7e8" y="219.589212766"/>
     <use style="fill:#0000ff;stroke:#000000;" x="176.638558108" xlink:href="#m865d50a7e8" y="203.867837776"/>
     <use style="fill:#0000ff;stroke:#000000;" x="237.768926542" xlink:href="#m865d50a7e8" y="259.736762458"/>
     <use style="fill:#0000ff;stroke:#000000;" x="146.48662583" xlink:href="#m865d50a7e8" y="196.923324769"/>
     <use style="fill:#0000ff;stroke:#000000;" x="222.203230524" xlink:href="#m865d50a7e8" y="269.791143324"/>
     <use style="fill:#0000ff;stroke:#000000;" x="180.910471584" xlink:href="#m865d50a7e8" y="260.952405204"/>
     <use style="fill:#0000ff;stroke:#000000;" x="199.62884756" xlink:href="#m865d50a7e8" y="269.067645224"/>
     <use style="fill:#0000ff;stroke:#000000;" x="175.691759222" xlink:href="#m865d50a7e8" y="212.853648921"/>
     <use style="fill:#0000ff;stroke:#000000;" x="181.408752443" xlink:href="#m865d50a7e8" y="261.618695738"/>
     <use style="fill:#0000ff;stroke:#000000;" x="169.0536319" xlink:href="#m865d50a7e8" y="205.4546873"/>
     <use style="fill:#0000ff;stroke:#000000;" x="176.266441204" xlink:href="#m865d50a7e8" y="215.856500122"/>
    </g>
   </g>
   <g id="PathCollection_2">
    <defs>
     <path d="M 0 1.118034 
C 0.296506 1.118034 0.580908 1.000231 0.790569 0.790569 
C 1.000231 0.580908 1.118034 0.296506 1.118034 0 
C 1.118034 -0.296506 1.000231 -0.580908 0.790569 -0.790569 
C 0.580908 -1.000231 0.296506 -1.118034 0 -1.118034 
C -0.296506 -1.118034 -0.580908 -1.000231 -0.790569 -0.790569 
C -1.000231 -0.580908 -1.118034 -0.296506 -1.118034 0 
C -1.118034 0.296506 -1.000231 0.580908 -0.790569 0.790569 
C -0.580908 1.000231 -0.296506 1.118034 0 1.118034 
z
" id="md5f9c2a4cb" style="stroke:#000000;"/>
    </defs>
    <g clip-path="url(#p3c733e0cd1)">
     <use style="stroke:#000000;" x="360.439027899" xlink:href="#md5f9c2a4cb" y="63.1575290499"/>
     <use style="stroke:#000000;" x="481.687704617" xlink:href="#md5f9c2a4cb" y="122.522038152"/>
     <use style="stroke:#000000;" x="362.032636786" xlink:href="#md5f9c2a4cb" y="81.9250496239"/>
     <use style="stroke:#000000;" x="283.361093811" xlink:href="#md5f9c2a4cb" y="80.2847893361"/>
     <use style="stroke:#000000;" x="426.563520407" xlink:href="#md5f9c2a4cb" y="183.14734481"/>
     <use style="stroke:#000000;" x="359.768379135" xlink:href="#md5f9c2a4cb" y="85.7926894192"/>
     <use style="stroke:#000000;" x="229.488606487" xlink:href="#md5f9c2a4cb" y="72.3142812129"/>
     <use style="stroke:#000000;" x="359.997341781" xlink:href="#md5f9c2a4cb" y="140.436493223"/>
     <use style="stroke:#000000;" x="379.710764435" xlink:href="#md5f9c2a4cb" y="142.894602679"/>
     <use style="stroke:#000000;" x="431.707786245" xlink:href="#md5f9c2a4cb" y="206.452504392"/>
     <use style="stroke:#000000;" x="389.249892334" xlink:href="#md5f9c2a4cb" y="172.956325504"/>
     <use style="stroke:#000000;" x="273.661584723" xlink:href="#md5f9c2a4cb" y="102.528087886"/>
     <use style="stroke:#000000;" x="382.082039909" xlink:href="#md5f9c2a4cb" y="175.81215712"/>
     <use style="stroke:#000000;" x="289.639701662" xlink:href="#md5f9c2a4cb" y="147.108832779"/>
     <use style="stroke:#000000;" x="287.958152" xlink:href="#md5f9c2a4cb" y="126.528376159"/>
     <use style="stroke:#000000;" x="304.734428022" xlink:href="#md5f9c2a4cb" y="161.073131641"/>
     <use style="stroke:#000000;" x="253.862397321" xlink:href="#md5f9c2a4cb" y="147.779748074"/>
     <use style="stroke:#000000;" x="354.243873168" xlink:href="#md5f9c2a4cb" y="201.089944467"/>
     <use style="stroke:#000000;" x="225.215097677" xlink:href="#md5f9c2a4cb" y="114.113506912"/>
     <use style="stroke:#000000;" x="244.886899908" xlink:href="#md5f9c2a4cb" y="135.108817705"/>
     <use style="stroke:#000000;" x="286.953186541" xlink:href="#md5f9c2a4cb" y="173.693618934"/>
     <use style="stroke:#000000;" x="280.15195342" xlink:href="#md5f9c2a4cb" y="168.073027651"/>
     <use style="stroke:#000000;" x="292.161075075" xlink:href="#md5f9c2a4cb" y="176.24067464"/>
     <use style="stroke:#000000;" x="354.230559826" xlink:href="#md5f9c2a4cb" y="180.812996947"/>
     <use style="stroke:#000000;" x="241.565107469" xlink:href="#md5f9c2a4cb" y="163.932156115"/>
     <use style="stroke:#000000;" x="306.036536106" xlink:href="#md5f9c2a4cb" y="183.322779112"/>
     <use style="stroke:#000000;" x="212.247878146" xlink:href="#md5f9c2a4cb" y="159.304406009"/>
     <use style="stroke:#000000;" x="200.87349125" xlink:href="#md5f9c2a4cb" y="149.13696674"/>
     <use style="stroke:#000000;" x="192.27854778" xlink:href="#md5f9c2a4cb" y="140.349372174"/>
     <use style="stroke:#000000;" x="178.672787748" xlink:href="#md5f9c2a4cb" y="122.25647984"/>
     <use style="stroke:#000000;" x="174.38415211" xlink:href="#md5f9c2a4cb" y="115.770976456"/>
     <use style="stroke:#000000;" x="284.720958523" xlink:href="#md5f9c2a4cb" y="177.828294509"/>
     <use style="stroke:#000000;" x="277.466553748" xlink:href="#md5f9c2a4cb" y="169.099005368"/>
     <use style="stroke:#000000;" x="323.013168355" xlink:href="#md5f9c2a4cb" y="207.214568756"/>
     <use style="stroke:#000000;" x="345.487342972" xlink:href="#md5f9c2a4cb" y="264.887404241"/>
     <use style="stroke:#000000;" x="229.054407921" xlink:href="#md5f9c2a4cb" y="169.52905754"/>
     <use style="stroke:#000000;" x="285.421727661" xlink:href="#md5f9c2a4cb" y="187.369592422"/>
     <use style="stroke:#000000;" x="240.821813911" xlink:href="#md5f9c2a4cb" y="172.061798012"/>
     <use style="stroke:#000000;" x="192.810712169" xlink:href="#md5f9c2a4cb" y="153.809397725"/>
     <use style="stroke:#000000;" x="155.820246938" xlink:href="#md5f9c2a4cb" y="149.225366536"/>
     <use style="stroke:#000000;" x="188.9952675" xlink:href="#md5f9c2a4cb" y="149.960741918"/>
     <use style="stroke:#000000;" x="150.329328672" xlink:href="#md5f9c2a4cb" y="137.289536954"/>
     <use style="stroke:#000000;" x="290.786663351" xlink:href="#md5f9c2a4cb" y="196.731399041"/>
     <use style="stroke:#000000;" x="269.154575405" xlink:href="#md5f9c2a4cb" y="174.941396911"/>
     <use style="stroke:#000000;" x="293.943775596" xlink:href="#md5f9c2a4cb" y="295.502377784"/>
     <use style="stroke:#000000;" x="293.588142998" xlink:href="#md5f9c2a4cb" y="201.555493439"/>
     <use style="stroke:#000000;" x="214.946365387" xlink:href="#md5f9c2a4cb" y="171.953837841"/>
     <use style="stroke:#000000;" x="284.235009439" xlink:href="#md5f9c2a4cb" y="196.504735648"/>
     <use style="stroke:#000000;" x="229.935370861" xlink:href="#md5f9c2a4cb" y="173.182797817"/>
     <use style="stroke:#000000;" x="231.329324447" xlink:href="#md5f9c2a4cb" y="183.313958053"/>
     <use style="stroke:#000000;" x="188.015713444" xlink:href="#md5f9c2a4cb" y="151.64729632"/>
     <use style="stroke:#000000;" x="147.118748357" xlink:href="#md5f9c2a4cb" y="138.61928024"/>
     <use style="stroke:#000000;" x="246.659842813" xlink:href="#md5f9c2a4cb" y="194.365923795"/>
     <use style="stroke:#000000;" x="244.212047336" xlink:href="#md5f9c2a4cb" y="183.463043691"/>
     <use style="stroke:#000000;" x="292.618839299" xlink:href="#md5f9c2a4cb" y="205.491660899"/>
     <use style="stroke:#000000;" x="186.613886225" xlink:href="#md5f9c2a4cb" y="175.400155313"/>
     <use style="stroke:#000000;" x="284.359575733" xlink:href="#md5f9c2a4cb" y="247.522247393"/>
     <use style="stroke:#000000;" x="209.952483147" xlink:href="#md5f9c2a4cb" y="184.277367809"/>
     <use style="stroke:#000000;" x="239.517098679" xlink:href="#md5f9c2a4cb" y="186.461478182"/>
     <use style="stroke:#000000;" x="171.930458072" xlink:href="#md5f9c2a4cb" y="158.543449021"/>
     <use style="stroke:#000000;" x="280.896902121" xlink:href="#md5f9c2a4cb" y="244.810924499"/>
     <use style="stroke:#000000;" x="277.778625554" xlink:href="#md5f9c2a4cb" y="224.45764439"/>
     <use style="stroke:#000000;" x="176.108811183" xlink:href="#md5f9c2a4cb" y="179.294378743"/>
     <use style="stroke:#000000;" x="253.878795016" xlink:href="#md5f9c2a4cb" y="230.374782814"/>
     <use style="stroke:#000000;" x="187.953870653" xlink:href="#md5f9c2a4cb" y="191.877964898"/>
     <use style="stroke:#000000;" x="158.914063652" xlink:href="#md5f9c2a4cb" y="173.607895902"/>
     <use style="stroke:#000000;" x="152.372221034" xlink:href="#md5f9c2a4cb" y="161.967026896"/>
     <use style="stroke:#000000;" x="154.574927624" xlink:href="#md5f9c2a4cb" y="169.362537546"/>
     <use style="stroke:#000000;" x="218.872522763" xlink:href="#md5f9c2a4cb" y="219.867871295"/>
     <use style="stroke:#000000;" x="210.336965476" xlink:href="#md5f9c2a4cb" y="192.620351238"/>
     <use style="stroke:#000000;" x="211.09038136" xlink:href="#md5f9c2a4cb" y="213.798956019"/>
     <use style="stroke:#000000;" x="150.689300117" xlink:href="#md5f9c2a4cb" y="182.974631593"/>
     <use style="stroke:#000000;" x="245.477586166" xlink:href="#md5f9c2a4cb" y="252.6666684"/>
     <use style="stroke:#000000;" x="175.005612877" xlink:href="#md5f9c2a4cb" y="188.965356858"/>
     <use style="stroke:#000000;" x="190.132012167" xlink:href="#md5f9c2a4cb" y="193.909801707"/>
     <use style="stroke:#000000;" x="212.991067082" xlink:href="#md5f9c2a4cb" y="228.90362914"/>
     <use style="stroke:#000000;" x="209.352099774" xlink:href="#md5f9c2a4cb" y="212.868060666"/>
     <use style="stroke:#000000;" x="197.442124085" xlink:href="#md5f9c2a4cb" y="195.499074548"/>
     <use style="stroke:#000000;" x="159.728454721" xlink:href="#md5f9c2a4cb" y="191.422179832"/>
     <use style="stroke:#000000;" x="240.551382146" xlink:href="#md5f9c2a4cb" y="257.779841081"/>
     <use style="stroke:#000000;" x="206.860135994" xlink:href="#md5f9c2a4cb" y="247.334694046"/>
     <use style="stroke:#000000;" x="195.207600851" xlink:href="#md5f9c2a4cb" y="197.718827624"/>
     <use style="stroke:#000000;" x="197.331510585" xlink:href="#md5f9c2a4cb" y="228.192600017"/>
     <use style="stroke:#000000;" x="190.908963245" xlink:href="#md5f9c2a4cb" y="197.703165171"/>
     <use style="stroke:#000000;" x="147.419119295" xlink:href="#md5f9c2a4cb" y="191.942444206"/>
     <use style="stroke:#000000;" x="236.429745782" xlink:href="#md5f9c2a4cb" y="258.973565641"/>
     <use style="stroke:#000000;" x="201.921246813" xlink:href="#md5f9c2a4cb" y="248.8241282"/>
     <use style="stroke:#000000;" x="188.062451967" xlink:href="#md5f9c2a4cb" y="231.460167192"/>
     <use style="stroke:#000000;" x="180.070518209" xlink:href="#md5f9c2a4cb" y="210.212550883"/>
     <use style="stroke:#000000;" x="185.89664648" xlink:href="#md5f9c2a4cb" y="219.589212766"/>
     <use style="stroke:#000000;" x="176.638558108" xlink:href="#md5f9c2a4cb" y="203.867837776"/>
     <use style="stroke:#000000;" x="237.768926542" xlink:href="#md5f9c2a4cb" y="259.736762458"/>
     <use style="stroke:#000000;" x="146.48662583" xlink:href="#md5f9c2a4cb" y="196.923324769"/>
     <use style="stroke:#000000;" x="222.203230524" xlink:href="#md5f9c2a4cb" y="269.791143324"/>
     <use style="stroke:#000000;" x="180.910471584" xlink:href="#md5f9c2a4cb" y="260.952405204"/>
     <use style="stroke:#000000;" x="199.62884756" xlink:href="#md5f9c2a4cb" y="269.067645224"/>
     <use style="stroke:#000000;" x="175.691759222" xlink:href="#md5f9c2a4cb" y="212.853648921"/>
     <use style="stroke:#000000;" x="181.408752443" xlink:href="#md5f9c2a4cb" y="261.618695738"/>
     <use style="stroke:#000000;" x="169.0536319" xlink:href="#md5f9c2a4cb" y="205.4546873"/>
     <use style="stroke:#000000;" x="176.266441204" xlink:href="#md5f9c2a4cb" y="215.856500122"/>
     <use style="stroke:#000000;" x="153.498790644" xlink:href="#md5f9c2a4cb" y="312.902356294"/>
     <use style="stroke:#000000;" x="141.219631219" xlink:href="#md5f9c2a4cb" y="232.717592991"/>
     <use style="stroke:#000000;" x="211.378669257" xlink:href="#md5f9c2a4cb" y="254.735074712"/>
     <use style="stroke:#000000;" x="150.83570911" xlink:href="#md5f9c2a4cb" y="305.771340852"/>
     <use style="stroke:#000000;" x="247.912913076" xlink:href="#md5f9c2a4cb" y="181.662661814"/>
     <use style="stroke:#000000;" x="168.374350449" xlink:href="#md5f9c2a4cb" y="269.860411414"/>
     <use style="stroke:#000000;" x="224.774718579" xlink:href="#md5f9c2a4cb" y="101.509509023"/>
     <use style="stroke:#000000;" x="207.924338126" xlink:href="#md5f9c2a4cb" y="148.226576659"/>
     <use style="stroke:#000000;" x="214.869831193" xlink:href="#md5f9c2a4cb" y="209.51851849"/>
     <use style="stroke:#000000;" x="143.806324683" xlink:href="#md5f9c2a4cb" y="307.715482832"/>
     <use style="stroke:#000000;" x="149.283058192" xlink:href="#md5f9c2a4cb" y="273.715012238"/>
     <use style="stroke:#000000;" x="146.630068822" xlink:href="#md5f9c2a4cb" y="295.525606798"/>
     <use style="stroke:#000000;" x="146.869334666" xlink:href="#md5f9c2a4cb" y="251.511830313"/>
     <use style="stroke:#000000;" x="158.557181088" xlink:href="#md5f9c2a4cb" y="258.444632268"/>
     <use style="stroke:#000000;" x="236.677950785" xlink:href="#md5f9c2a4cb" y="214.437976196"/>
     <use style="stroke:#000000;" x="177.969497133" xlink:href="#md5f9c2a4cb" y="286.513850408"/>
     <use style="stroke:#000000;" x="181.048823767" xlink:href="#md5f9c2a4cb" y="194.000674644"/>
     <use style="stroke:#000000;" x="192.141898134" xlink:href="#md5f9c2a4cb" y="88.35141581"/>
     <use style="stroke:#000000;" x="223.359399342" xlink:href="#md5f9c2a4cb" y="196.21419865"/>
     <use style="stroke:#000000;" x="205.838271291" xlink:href="#md5f9c2a4cb" y="154.438602157"/>
     <use style="stroke:#000000;" x="164.460424421" xlink:href="#md5f9c2a4cb" y="219.474890661"/>
     <use style="stroke:#000000;" x="185.832307912" xlink:href="#md5f9c2a4cb" y="351.713328945"/>
     <use style="stroke:#000000;" x="175.452421496" xlink:href="#md5f9c2a4cb" y="292.052972491"/>
     <use style="stroke:#000000;" x="202.276532663" xlink:href="#md5f9c2a4cb" y="200.267821759"/>
     <use style="stroke:#000000;" x="149.073936998" xlink:href="#md5f9c2a4cb" y="306.097298095"/>
     <use style="stroke:#000000;" x="171.108388588" xlink:href="#md5f9c2a4cb" y="236.844036259"/>
     <use style="stroke:#000000;" x="199.398180514" xlink:href="#md5f9c2a4cb" y="191.627155814"/>
     <use style="stroke:#000000;" x="284.586993096" xlink:href="#md5f9c2a4cb" y="162.233133167"/>
     <use style="stroke:#000000;" x="216.649195627" xlink:href="#md5f9c2a4cb" y="278.543476355"/>
     <use style="stroke:#000000;" x="175.873538584" xlink:href="#md5f9c2a4cb" y="252.544609325"/>
     <use style="stroke:#000000;" x="146.085017738" xlink:href="#md5f9c2a4cb" y="361.01744473"/>
     <use style="stroke:#000000;" x="179.125462506" xlink:href="#md5f9c2a4cb" y="256.608521773"/>
     <use style="stroke:#000000;" x="191.9299116" xlink:href="#md5f9c2a4cb" y="193.303034959"/>
     <use style="stroke:#000000;" x="142.072985101" xlink:href="#md5f9c2a4cb" y="316.967930292"/>
     <use style="stroke:#000000;" x="143.382388019" xlink:href="#md5f9c2a4cb" y="276.854516482"/>
     <use style="stroke:#000000;" x="261.985286173" xlink:href="#md5f9c2a4cb" y="181.965644995"/>
     <use style="stroke:#000000;" x="142.668161952" xlink:href="#md5f9c2a4cb" y="271.219153033"/>
     <use style="stroke:#000000;" x="179.37843494" xlink:href="#md5f9c2a4cb" y="271.616068886"/>
     <use style="stroke:#000000;" x="172.829530481" xlink:href="#md5f9c2a4cb" y="236.607655319"/>
     <use style="stroke:#000000;" x="154.709475429" xlink:href="#md5f9c2a4cb" y="172.107024399"/>
     <use style="stroke:#000000;" x="185.783808976" xlink:href="#md5f9c2a4cb" y="246.946139442"/>
     <use style="stroke:#000000;" x="142.567141435" xlink:href="#md5f9c2a4cb" y="273.65376616"/>
     <use style="stroke:#000000;" x="263.285746764" xlink:href="#md5f9c2a4cb" y="310.008271874"/>
     <use style="stroke:#000000;" x="154.785472255" xlink:href="#md5f9c2a4cb" y="211.262042407"/>
     <use style="stroke:#000000;" x="296.46218462" xlink:href="#md5f9c2a4cb" y="278.76926554"/>
     <use style="stroke:#000000;" x="163.348947536" xlink:href="#md5f9c2a4cb" y="210.038099485"/>
     <use style="stroke:#000000;" x="181.371764048" xlink:href="#md5f9c2a4cb" y="295.605614064"/>
     <use style="stroke:#000000;" x="181.663332564" xlink:href="#md5f9c2a4cb" y="220.349942491"/>
     <use style="stroke:#000000;" x="176.129439355" xlink:href="#md5f9c2a4cb" y="207.898031501"/>
     <use style="stroke:#000000;" x="142.835626476" xlink:href="#md5f9c2a4cb" y="275.764620126"/>
    </g>
   </g>
   <g id="patch_3">
    <path d="M 72 388.8 
L 518.4 388.8 
" style="fill:none;stroke:#000000;stroke-linecap:square;stroke-linejoin:miter;"/>
   </g>
   <g id="patch_4">
    <path d="M 518.4 388.8 
L 518.4 43.2 
" style="fill:none;stroke:#000000;stroke-linecap:square;stroke-linejoin:miter;"/>
   </g>
   <g id="patch_5">
    <path d="M 72 388.8 
L 72 43.2 
" style="fill:none;stroke:#000000;stroke-linecap:square;stroke-linejoin:miter;"/>
   </g>
   <g id="patch_6">
    <path d="M 72 43.2 
L 518.4 43.2 
" style="fill:none;stroke:#000000;stroke-linecap:square;stroke-linejoin:miter;"/>
   </g>
   <g id="matplotlib.axis_1">
    <g id="xtick_1">
     <g id="line2d_1">
      <defs>
       <path d="M 0 0 
L 0 -4 
" id="m417d718d0f" style="stroke:#000000;stroke-width:0.5;"/>
      </defs>
      <g>
       <use style="stroke:#000000;stroke-width:0.5;" x="72.0" xlink:href="#m417d718d0f" y="388.8"/>
      </g>
     </g>
     <g id="line2d_2">
      <defs>
       <path d="M 0 0 
L 0 4 
" id="m39bf20522c" style="stroke:#000000;stroke-width:0.5;"/>
      </defs>
      <g>
       <use style="stroke:#000000;stroke-width:0.5;" x="72.0" xlink:href="#m39bf20522c" y="43.2"/>
      </g>
     </g>
     <g id="text_1">
      <!-- −2 -->
      <defs>
       <path d="M 19.1875 8.296875 
L 53.609375 8.296875 
L 53.609375 0 
L 7.328125 0 
L 7.328125 8.296875 
Q 12.9375 14.109375 22.625 23.890625 
Q 32.328125 33.6875 34.8125 36.53125 
Q 39.546875 41.84375 41.421875 45.53125 
Q 43.3125 49.21875 43.3125 52.78125 
Q 43.3125 58.59375 39.234375 62.25 
Q 35.15625 65.921875 28.609375 65.921875 
Q 23.96875 65.921875 18.8125 64.3125 
Q 13.671875 62.703125 7.8125 59.421875 
L 7.8125 69.390625 
Q 13.765625 71.78125 18.9375 73 
Q 24.125 74.21875 28.421875 74.21875 
Q 39.75 74.21875 46.484375 68.546875 
Q 53.21875 62.890625 53.21875 53.421875 
Q 53.21875 48.921875 51.53125 44.890625 
Q 49.859375 40.875 45.40625 35.40625 
Q 44.1875 33.984375 37.640625 27.21875 
Q 31.109375 20.453125 19.1875 8.296875 
" id="BitstreamVeraSans-Roman-32"/>
       <path d="M 10.59375 35.5 
L 73.1875 35.5 
L 73.1875 27.203125 
L 10.59375 27.203125 
z
" id="BitstreamVeraSans-Roman-2212"/>
      </defs>
      <g transform="translate(63.1546875 401.918125)scale(0.12 -0.12)">
       <use xlink:href="#BitstreamVeraSans-Roman-2212"/>
       <use x="83.7890625" xlink:href="#BitstreamVeraSans-Roman-32"/>
      </g>
     </g>
    </g>
    <g id="xtick_2">
     <g id="line2d_3">
      <g>
       <use style="stroke:#000000;stroke-width:0.5;" x="135.771428571" xlink:href="#m417d718d0f" y="388.8"/>
      </g>
     </g>
     <g id="line2d_4">
      <g>
       <use style="stroke:#000000;stroke-width:0.5;" x="135.771428571" xlink:href="#m39bf20522c" y="43.2"/>
      </g>
     </g>
     <g id="text_2">
      <!-- 0 -->
      <defs>
       <path d="M 31.78125 66.40625 
Q 24.171875 66.40625 20.328125 58.90625 
Q 16.5 51.421875 16.5 36.375 
Q 16.5 21.390625 20.328125 13.890625 
Q 24.171875 6.390625 31.78125 6.390625 
Q 39.453125 6.390625 43.28125 13.890625 
Q 47.125 21.390625 47.125 36.375 
Q 47.125 51.421875 43.28125 58.90625 
Q 39.453125 66.40625 31.78125 66.40625 
M 31.78125 74.21875 
Q 44.046875 74.21875 50.515625 64.515625 
Q 56.984375 54.828125 56.984375 36.375 
Q 56.984375 17.96875 50.515625 8.265625 
Q 44.046875 -1.421875 31.78125 -1.421875 
Q 19.53125 -1.421875 13.0625 8.265625 
Q 6.59375 17.96875 6.59375 36.375 
Q 6.59375 54.828125 13.0625 64.515625 
Q 19.53125 74.21875 31.78125 74.21875 
" id="BitstreamVeraSans-Roman-30"/>
      </defs>
      <g transform="translate(131.953928571 401.918125)scale(0.12 -0.12)">
       <use xlink:href="#BitstreamVeraSans-Roman-30"/>
      </g>
     </g>
    </g>
    <g id="xtick_3">
     <g id="line2d_5">
      <g>
       <use style="stroke:#000000;stroke-width:0.5;" x="199.542857143" xlink:href="#m417d718d0f" y="388.8"/>
      </g>
     </g>
     <g id="line2d_6">
      <g>
       <use style="stroke:#000000;stroke-width:0.5;" x="199.542857143" xlink:href="#m39bf20522c" y="43.2"/>
      </g>
     </g>
     <g id="text_3">
      <!-- 2 -->
      <g transform="translate(195.725357143 401.918125)scale(0.12 -0.12)">
       <use xlink:href="#BitstreamVeraSans-Roman-32"/>
      </g>
     </g>
    </g>
    <g id="xtick_4">
     <g id="line2d_7">
      <g>
       <use style="stroke:#000000;stroke-width:0.5;" x="263.314285714" xlink:href="#m417d718d0f" y="388.8"/>
      </g>
     </g>
     <g id="line2d_8">
      <g>
       <use style="stroke:#000000;stroke-width:0.5;" x="263.314285714" xlink:href="#m39bf20522c" y="43.2"/>
      </g>
     </g>
     <g id="text_4">
      <!-- 4 -->
      <defs>
       <path d="M 37.796875 64.3125 
L 12.890625 25.390625 
L 37.796875 25.390625 
z
M 35.203125 72.90625 
L 47.609375 72.90625 
L 47.609375 25.390625 
L 58.015625 25.390625 
L 58.015625 17.1875 
L 47.609375 17.1875 
L 47.609375 0 
L 37.796875 0 
L 37.796875 17.1875 
L 4.890625 17.1875 
L 4.890625 26.703125 
z
" id="BitstreamVeraSans-Roman-34"/>
      </defs>
      <g transform="translate(259.496785714 401.918125)scale(0.12 -0.12)">
       <use xlink:href="#BitstreamVeraSans-Roman-34"/>
      </g>
     </g>
    </g>
    <g id="xtick_5">
     <g id="line2d_9">
      <g>
       <use style="stroke:#000000;stroke-width:0.5;" x="327.085714286" xlink:href="#m417d718d0f" y="388.8"/>
      </g>
     </g>
     <g id="line2d_10">
      <g>
       <use style="stroke:#000000;stroke-width:0.5;" x="327.085714286" xlink:href="#m39bf20522c" y="43.2"/>
      </g>
     </g>
     <g id="text_5">
      <!-- 6 -->
      <defs>
       <path d="M 33.015625 40.375 
Q 26.375 40.375 22.484375 35.828125 
Q 18.609375 31.296875 18.609375 23.390625 
Q 18.609375 15.53125 22.484375 10.953125 
Q 26.375 6.390625 33.015625 6.390625 
Q 39.65625 6.390625 43.53125 10.953125 
Q 47.40625 15.53125 47.40625 23.390625 
Q 47.40625 31.296875 43.53125 35.828125 
Q 39.65625 40.375 33.015625 40.375 
M 52.59375 71.296875 
L 52.59375 62.3125 
Q 48.875 64.0625 45.09375 64.984375 
Q 41.3125 65.921875 37.59375 65.921875 
Q 27.828125 65.921875 22.671875 59.328125 
Q 17.53125 52.734375 16.796875 39.40625 
Q 19.671875 43.65625 24.015625 45.921875 
Q 28.375 48.1875 33.59375 48.1875 
Q 44.578125 48.1875 50.953125 41.515625 
Q 57.328125 34.859375 57.328125 23.390625 
Q 57.328125 12.15625 50.6875 5.359375 
Q 44.046875 -1.421875 33.015625 -1.421875 
Q 20.359375 -1.421875 13.671875 8.265625 
Q 6.984375 17.96875 6.984375 36.375 
Q 6.984375 53.65625 15.1875 63.9375 
Q 23.390625 74.21875 37.203125 74.21875 
Q 40.921875 74.21875 44.703125 73.484375 
Q 48.484375 72.75 52.59375 71.296875 
" id="BitstreamVeraSans-Roman-36"/>
      </defs>
      <g transform="translate(323.268214286 401.918125)scale(0.12 -0.12)">
       <use xlink:href="#BitstreamVeraSans-Roman-36"/>
      </g>
     </g>
    </g>
    <g id="xtick_6">
     <g id="line2d_11">
      <g>
       <use style="stroke:#000000;stroke-width:0.5;" x="390.857142857" xlink:href="#m417d718d0f" y="388.8"/>
      </g>
     </g>
     <g id="line2d_12">
      <g>
       <use style="stroke:#000000;stroke-width:0.5;" x="390.857142857" xlink:href="#m39bf20522c" y="43.2"/>
      </g>
     </g>
     <g id="text_6">
      <!-- 8 -->
      <defs>
       <path d="M 31.78125 34.625 
Q 24.75 34.625 20.71875 30.859375 
Q 16.703125 27.09375 16.703125 20.515625 
Q 16.703125 13.921875 20.71875 10.15625 
Q 24.75 6.390625 31.78125 6.390625 
Q 38.8125 6.390625 42.859375 10.171875 
Q 46.921875 13.96875 46.921875 20.515625 
Q 46.921875 27.09375 42.890625 30.859375 
Q 38.875 34.625 31.78125 34.625 
M 21.921875 38.8125 
Q 15.578125 40.375 12.03125 44.71875 
Q 8.5 49.078125 8.5 55.328125 
Q 8.5 64.0625 14.71875 69.140625 
Q 20.953125 74.21875 31.78125 74.21875 
Q 42.671875 74.21875 48.875 69.140625 
Q 55.078125 64.0625 55.078125 55.328125 
Q 55.078125 49.078125 51.53125 44.71875 
Q 48 40.375 41.703125 38.8125 
Q 48.828125 37.15625 52.796875 32.3125 
Q 56.78125 27.484375 56.78125 20.515625 
Q 56.78125 9.90625 50.3125 4.234375 
Q 43.84375 -1.421875 31.78125 -1.421875 
Q 19.734375 -1.421875 13.25 4.234375 
Q 6.78125 9.90625 6.78125 20.515625 
Q 6.78125 27.484375 10.78125 32.3125 
Q 14.796875 37.15625 21.921875 38.8125 
M 18.3125 54.390625 
Q 18.3125 48.734375 21.84375 45.5625 
Q 25.390625 42.390625 31.78125 42.390625 
Q 38.140625 42.390625 41.71875 45.5625 
Q 45.3125 48.734375 45.3125 54.390625 
Q 45.3125 60.0625 41.71875 63.234375 
Q 38.140625 66.40625 31.78125 66.40625 
Q 25.390625 66.40625 21.84375 63.234375 
Q 18.3125 60.0625 18.3125 54.390625 
" id="BitstreamVeraSans-Roman-38"/>
      </defs>
      <g transform="translate(387.039642857 401.918125)scale(0.12 -0.12)">
       <use xlink:href="#BitstreamVeraSans-Roman-38"/>
      </g>
     </g>
    </g>
    <g id="xtick_7">
     <g id="line2d_13">
      <g>
       <use style="stroke:#000000;stroke-width:0.5;" x="454.628571429" xlink:href="#m417d718d0f" y="388.8"/>
      </g>
     </g>
     <g id="line2d_14">
      <g>
       <use style="stroke:#000000;stroke-width:0.5;" x="454.628571429" xlink:href="#m39bf20522c" y="43.2"/>
      </g>
     </g>
     <g id="text_7">
      <!-- 10 -->
      <defs>
       <path d="M 12.40625 8.296875 
L 28.515625 8.296875 
L 28.515625 63.921875 
L 10.984375 60.40625 
L 10.984375 69.390625 
L 28.421875 72.90625 
L 38.28125 72.90625 
L 38.28125 8.296875 
L 54.390625 8.296875 
L 54.390625 0 
L 12.40625 0 
z
" id="BitstreamVeraSans-Roman-31"/>
      </defs>
      <g transform="translate(446.993571429 401.918125)scale(0.12 -0.12)">
       <use xlink:href="#BitstreamVeraSans-Roman-31"/>
       <use x="63.623046875" xlink:href="#BitstreamVeraSans-Roman-30"/>
      </g>
     </g>
    </g>
    <g id="xtick_8">
     <g id="line2d_15">
      <g>
       <use style="stroke:#000000;stroke-width:0.5;" x="518.4" xlink:href="#m417d718d0f" y="388.8"/>
      </g>
     </g>
     <g id="line2d_16">
      <g>
       <use style="stroke:#000000;stroke-width:0.5;" x="518.4" xlink:href="#m39bf20522c" y="43.2"/>
      </g>
     </g>
     <g id="text_8">
      <!-- 12 -->
      <g transform="translate(510.765 401.918125)scale(0.12 -0.12)">
       <use xlink:href="#BitstreamVeraSans-Roman-31"/>
       <use x="63.623046875" xlink:href="#BitstreamVeraSans-Roman-32"/>
      </g>
     </g>
    </g>
   </g>
   <g id="matplotlib.axis_2">
    <g id="ytick_1">
     <g id="line2d_17">
      <defs>
       <path d="M 0 0 
L 4 0 
" id="m6c810f9c77" style="stroke:#000000;stroke-width:0.5;"/>
      </defs>
      <g>
       <use style="stroke:#000000;stroke-width:0.5;" x="72.0" xlink:href="#m6c810f9c77" y="388.8"/>
      </g>
     </g>
     <g id="line2d_18">
      <defs>
       <path d="M 0 0 
L -4 0 
" id="m9109f14497" style="stroke:#000000;stroke-width:0.5;"/>
      </defs>
      <g>
       <use style="stroke:#000000;stroke-width:0.5;" x="518.4" xlink:href="#m9109f14497" y="388.8"/>
      </g>
     </g>
     <g id="text_9">
      <!-- −35 -->
      <defs>
       <path d="M 10.796875 72.90625 
L 49.515625 72.90625 
L 49.515625 64.59375 
L 19.828125 64.59375 
L 19.828125 46.734375 
Q 21.96875 47.46875 24.109375 47.828125 
Q 26.265625 48.1875 28.421875 48.1875 
Q 40.625 48.1875 47.75 41.5 
Q 54.890625 34.8125 54.890625 23.390625 
Q 54.890625 11.625 47.5625 5.09375 
Q 40.234375 -1.421875 26.90625 -1.421875 
Q 22.3125 -1.421875 17.546875 -0.640625 
Q 12.796875 0.140625 7.71875 1.703125 
L 7.71875 11.625 
Q 12.109375 9.234375 16.796875 8.0625 
Q 21.484375 6.890625 26.703125 6.890625 
Q 35.15625 6.890625 40.078125 11.328125 
Q 45.015625 15.765625 45.015625 23.390625 
Q 45.015625 31 40.078125 35.4375 
Q 35.15625 39.890625 26.703125 39.890625 
Q 22.75 39.890625 18.8125 39.015625 
Q 14.890625 38.140625 10.796875 36.28125 
z
" id="BitstreamVeraSans-Roman-35"/>
       <path d="M 40.578125 39.3125 
Q 47.65625 37.796875 51.625 33 
Q 55.609375 28.21875 55.609375 21.1875 
Q 55.609375 10.40625 48.1875 4.484375 
Q 40.765625 -1.421875 27.09375 -1.421875 
Q 22.515625 -1.421875 17.65625 -0.515625 
Q 12.796875 0.390625 7.625 2.203125 
L 7.625 11.71875 
Q 11.71875 9.328125 16.59375 8.109375 
Q 21.484375 6.890625 26.8125 6.890625 
Q 36.078125 6.890625 40.9375 10.546875 
Q 45.796875 14.203125 45.796875 21.1875 
Q 45.796875 27.640625 41.28125 31.265625 
Q 36.765625 34.90625 28.71875 34.90625 
L 20.21875 34.90625 
L 20.21875 43.015625 
L 29.109375 43.015625 
Q 36.375 43.015625 40.234375 45.921875 
Q 44.09375 48.828125 44.09375 54.296875 
Q 44.09375 59.90625 40.109375 62.90625 
Q 36.140625 65.921875 28.71875 65.921875 
Q 24.65625 65.921875 20.015625 65.03125 
Q 15.375 64.15625 9.8125 62.3125 
L 9.8125 71.09375 
Q 15.4375 72.65625 20.34375 73.4375 
Q 25.25 74.21875 29.59375 74.21875 
Q 40.828125 74.21875 47.359375 69.109375 
Q 53.90625 64.015625 53.90625 55.328125 
Q 53.90625 49.265625 50.4375 45.09375 
Q 46.96875 40.921875 40.578125 39.3125 
" id="BitstreamVeraSans-Roman-33"/>
      </defs>
      <g transform="translate(42.674375 392.11125)scale(0.12 -0.12)">
       <use xlink:href="#BitstreamVeraSans-Roman-2212"/>
       <use x="83.7890625" xlink:href="#BitstreamVeraSans-Roman-33"/>
       <use x="147.412109375" xlink:href="#BitstreamVeraSans-Roman-35"/>
      </g>
     </g>
    </g>
    <g id="ytick_2">
     <g id="line2d_19">
      <g>
       <use style="stroke:#000000;stroke-width:0.5;" x="72.0" xlink:href="#m6c810f9c77" y="345.6"/>
      </g>
     </g>
     <g id="line2d_20">
      <g>
       <use style="stroke:#000000;stroke-width:0.5;" x="518.4" xlink:href="#m9109f14497" y="345.6"/>
      </g>
     </g>
     <g id="text_10">
      <!-- −30 -->
      <g transform="translate(42.674375 348.91125)scale(0.12 -0.12)">
       <use xlink:href="#BitstreamVeraSans-Roman-2212"/>
       <use x="83.7890625" xlink:href="#BitstreamVeraSans-Roman-33"/>
       <use x="147.412109375" xlink:href="#BitstreamVeraSans-Roman-30"/>
      </g>
     </g>
    </g>
    <g id="ytick_3">
     <g id="line2d_21">
      <g>
       <use style="stroke:#000000;stroke-width:0.5;" x="72.0" xlink:href="#m6c810f9c77" y="302.4"/>
      </g>
     </g>
     <g id="line2d_22">
      <g>
       <use style="stroke:#000000;stroke-width:0.5;" x="518.4" xlink:href="#m9109f14497" y="302.4"/>
      </g>
     </g>
     <g id="text_11">
      <!-- −25 -->
      <g transform="translate(42.674375 305.71125)scale(0.12 -0.12)">
       <use xlink:href="#BitstreamVeraSans-Roman-2212"/>
       <use x="83.7890625" xlink:href="#BitstreamVeraSans-Roman-32"/>
       <use x="147.412109375" xlink:href="#BitstreamVeraSans-Roman-35"/>
      </g>
     </g>
    </g>
    <g id="ytick_4">
     <g id="line2d_23">
      <g>
       <use style="stroke:#000000;stroke-width:0.5;" x="72.0" xlink:href="#m6c810f9c77" y="259.2"/>
      </g>
     </g>
     <g id="line2d_24">
      <g>
       <use style="stroke:#000000;stroke-width:0.5;" x="518.4" xlink:href="#m9109f14497" y="259.2"/>
      </g>
     </g>
     <g id="text_12">
      <!-- −20 -->
      <g transform="translate(42.674375 262.51125)scale(0.12 -0.12)">
       <use xlink:href="#BitstreamVeraSans-Roman-2212"/>
       <use x="83.7890625" xlink:href="#BitstreamVeraSans-Roman-32"/>
       <use x="147.412109375" xlink:href="#BitstreamVeraSans-Roman-30"/>
      </g>
     </g>
    </g>
    <g id="ytick_5">
     <g id="line2d_25">
      <g>
       <use style="stroke:#000000;stroke-width:0.5;" x="72.0" xlink:href="#m6c810f9c77" y="216.0"/>
      </g>
     </g>
     <g id="line2d_26">
      <g>
       <use style="stroke:#000000;stroke-width:0.5;" x="518.4" xlink:href="#m9109f14497" y="216.0"/>
      </g>
     </g>
     <g id="text_13">
      <!-- −15 -->
      <g transform="translate(42.674375 219.31125)scale(0.12 -0.12)">
       <use xlink:href="#BitstreamVeraSans-Roman-2212"/>
       <use x="83.7890625" xlink:href="#BitstreamVeraSans-Roman-31"/>
       <use x="147.412109375" xlink:href="#BitstreamVeraSans-Roman-35"/>
      </g>
     </g>
    </g>
    <g id="ytick_6">
     <g id="line2d_27">
      <g>
       <use style="stroke:#000000;stroke-width:0.5;" x="72.0" xlink:href="#m6c810f9c77" y="172.8"/>
      </g>
     </g>
     <g id="line2d_28">
      <g>
       <use style="stroke:#000000;stroke-width:0.5;" x="518.4" xlink:href="#m9109f14497" y="172.8"/>
      </g>
     </g>
     <g id="text_14">
      <!-- −10 -->
      <g transform="translate(42.674375 176.11125)scale(0.12 -0.12)">
       <use xlink:href="#BitstreamVeraSans-Roman-2212"/>
       <use x="83.7890625" xlink:href="#BitstreamVeraSans-Roman-31"/>
       <use x="147.412109375" xlink:href="#BitstreamVeraSans-Roman-30"/>
      </g>
     </g>
    </g>
    <g id="ytick_7">
     <g id="line2d_29">
      <g>
       <use style="stroke:#000000;stroke-width:0.5;" x="72.0" xlink:href="#m6c810f9c77" y="129.6"/>
      </g>
     </g>
     <g id="line2d_30">
      <g>
       <use style="stroke:#000000;stroke-width:0.5;" x="518.4" xlink:href="#m9109f14497" y="129.6"/>
      </g>
     </g>
     <g id="text_15">
      <!-- −5 -->
      <g transform="translate(50.309375 132.91125)scale(0.12 -0.12)">
       <use xlink:href="#BitstreamVeraSans-Roman-2212"/>
       <use x="83.7890625" xlink:href="#BitstreamVeraSans-Roman-35"/>
      </g>
     </g>
    </g>
    <g id="ytick_8">
     <g id="line2d_31">
      <g>
       <use style="stroke:#000000;stroke-width:0.5;" x="72.0" xlink:href="#m6c810f9c77" y="86.4"/>
      </g>
     </g>
     <g id="line2d_32">
      <g>
       <use style="stroke:#000000;stroke-width:0.5;" x="518.4" xlink:href="#m9109f14497" y="86.4"/>
      </g>
     </g>
     <g id="text_16">
      <!-- 0 -->
      <g transform="translate(60.365 89.71125)scale(0.12 -0.12)">
       <use xlink:href="#BitstreamVeraSans-Roman-30"/>
      </g>
     </g>
    </g>
    <g id="ytick_9">
     <g id="line2d_33">
      <g>
       <use style="stroke:#000000;stroke-width:0.5;" x="72.0" xlink:href="#m6c810f9c77" y="43.2"/>
      </g>
     </g>
     <g id="line2d_34">
      <g>
       <use style="stroke:#000000;stroke-width:0.5;" x="518.4" xlink:href="#m9109f14497" y="43.2"/>
      </g>
     </g>
     <g id="text_17">
      <!-- 5 -->
      <g transform="translate(60.365 46.51125)scale(0.12 -0.12)">
       <use xlink:href="#BitstreamVeraSans-Roman-35"/>
      </g>
     </g>
    </g>
   </g>
  </g>
 </g>
 <defs>
  <clipPath id="p3c733e0cd1">
   <rect height="345.6" width="446.4" x="72.0" y="43.2"/>
  </clipPath>
 </defs>
</svg>
