<?xml version="1.0" encoding="utf-8" standalone="no"?>
<!DOCTYPE svg PUBLIC "-//W3C//DTD SVG 1.1//EN"
  "http://www.w3.org/Graphics/SVG/1.1/DTD/svg11.dtd">
<!-- Created with matplotlib (http://matplotlib.org/) -->
<svg height="432pt" version="1.1" viewBox="0 0 576 432" width="576pt" xmlns="http://www.w3.org/2000/svg" xmlns:xlink="http://www.w3.org/1999/xlink">
 <defs>
  <style type="text/css">
*{stroke-linecap:butt;stroke-linejoin:round;stroke-miterlimit:100000;}
  </style>
 </defs>
 <g id="figure_1">
  <g id="patch_1">
   <path d="M 0 432 
L 576 432 
L 576 0 
L 0 0 
z
" style="fill:#ffffff;"/>
  </g>
  <g id="axes_1">
   <g id="patch_2">
    <path d="M 72 388.8 
L 518.4 388.8 
L 518.4 43.2 
L 72 43.2 
z
" style="fill:#ffffff;"/>
   </g>
   <g id="PathCollection_1">
    <defs>
     <path d="M 0 2.236068 
C 0.593012 2.236068 1.161816 2.000462 1.581139 1.581139 
C 2.000462 1.161816 2.236068 0.593012 2.236068 0 
C 2.236068 -0.593012 2.000462 -1.161816 1.581139 -1.581139 
C 1.161816 -2.000462 0.593012 -2.236068 0 -2.236068 
C -0.593012 -2.236068 -1.161816 -2.000462 -1.581139 -1.581139 
C -2.000462 -1.161816 -2.236068 -0.593012 -2.236068 0 
C -2.236068 0.593012 -2.000462 1.161816 -1.581139 1.581139 
C -1.161816 2.000462 -0.593012 2.236068 0 2.236068 
z
" id="md6eb90ea40" style="stroke:#000000;"/>
    </defs>
    <g clip-path="url(#pba9508ac6f)">
     <use style="fill:#0000ff;stroke:#000000;" x="494.912375067" xlink:href="#md6eb90ea40" y="156.794045897"/>
     <use style="fill:#0000ff;stroke:#000000;" x="444.673897103" xlink:href="#md6eb90ea40" y="103.433496797"/>
     <use style="fill:#0000ff;stroke:#000000;" x="265.787592094" xlink:href="#md6eb90ea40" y="77.7281978484"/>
     <use style="fill:#0000ff;stroke:#000000;" x="383.421513553" xlink:href="#md6eb90ea40" y="92.6216901163"/>
     <use style="fill:#0000ff;stroke:#000000;" x="480.259216583" xlink:href="#md6eb90ea40" y="137.50161344"/>
     <use style="fill:#0000ff;stroke:#000000;" x="468.219664389" xlink:href="#md6eb90ea40" y="104.269419025"/>
     <use style="fill:#0000ff;stroke:#000000;" x="462.715049354" xlink:href="#md6eb90ea40" y="179.29728643"/>
     <use style="fill:#0000ff;stroke:#000000;" x="457.042039537" xlink:href="#md6eb90ea40" y="111.157323775"/>
     <use style="fill:#0000ff;stroke:#000000;" x="296.341466143" xlink:href="#md6eb90ea40" y="93.72602324"/>
     <use style="fill:#0000ff;stroke:#000000;" x="297.805163079" xlink:href="#md6eb90ea40" y="97.2402728832"/>
     <use style="fill:#0000ff;stroke:#000000;" x="351.318853212" xlink:href="#md6eb90ea40" y="100.392179246"/>
     <use style="fill:#0000ff;stroke:#000000;" x="239.783325593" xlink:href="#md6eb90ea40" y="99.6324532853"/>
     <use style="fill:#0000ff;stroke:#000000;" x="428.991492857" xlink:href="#md6eb90ea40" y="136.446785995"/>
     <use style="fill:#0000ff;stroke:#000000;" x="297.580939722" xlink:href="#md6eb90ea40" y="108.740039699"/>
     <use style="fill:#0000ff;stroke:#000000;" x="325.940413512" xlink:href="#md6eb90ea40" y="121.097325972"/>
     <use style="fill:#0000ff;stroke:#000000;" x="313.554576463" xlink:href="#md6eb90ea40" y="120.78252777"/>
     <use style="fill:#0000ff;stroke:#000000;" x="417.159857882" xlink:href="#md6eb90ea40" y="131.044801469"/>
     <use style="fill:#0000ff;stroke:#000000;" x="450.798492261" xlink:href="#md6eb90ea40" y="170.510973421"/>
     <use style="fill:#0000ff;stroke:#000000;" x="363.985629258" xlink:href="#md6eb90ea40" y="121.717946786"/>
     <use style="fill:#0000ff;stroke:#000000;" x="233.320979965" xlink:href="#md6eb90ea40" y="104.568178764"/>
     <use style="fill:#0000ff;stroke:#000000;" x="419.858208926" xlink:href="#md6eb90ea40" y="164.898779167"/>
     <use style="fill:#0000ff;stroke:#000000;" x="236.391961853" xlink:href="#md6eb90ea40" y="107.427831469"/>
     <use style="fill:#0000ff;stroke:#000000;" x="194.491138379" xlink:href="#md6eb90ea40" y="101.05142497"/>
     <use style="fill:#0000ff;stroke:#000000;" x="297.242468689" xlink:href="#md6eb90ea40" y="127.59284575"/>
     <use style="fill:#0000ff;stroke:#000000;" x="275.485821452" xlink:href="#md6eb90ea40" y="110.730639385"/>
     <use style="fill:#0000ff;stroke:#000000;" x="295.819850438" xlink:href="#md6eb90ea40" y="111.834151535"/>
     <use style="fill:#0000ff;stroke:#000000;" x="380.934751965" xlink:href="#md6eb90ea40" y="139.81402246"/>
     <use style="fill:#0000ff;stroke:#000000;" x="406.902353518" xlink:href="#md6eb90ea40" y="146.52910183"/>
     <use style="fill:#0000ff;stroke:#000000;" x="390.64599248" xlink:href="#md6eb90ea40" y="141.217630522"/>
     <use style="fill:#0000ff;stroke:#000000;" x="298.53358825" xlink:href="#md6eb90ea40" y="132.30503662"/>
     <use style="fill:#0000ff;stroke:#000000;" x="261.254619336" xlink:href="#md6eb90ea40" y="110.538897685"/>
     <use style="fill:#0000ff;stroke:#000000;" x="429.696446183" xlink:href="#md6eb90ea40" y="180.147485012"/>
     <use style="fill:#0000ff;stroke:#000000;" x="282.7739802" xlink:href="#md6eb90ea40" y="139.186425533"/>
     <use style="fill:#0000ff;stroke:#000000;" x="417.054632646" xlink:href="#md6eb90ea40" y="204.918519906"/>
     <use style="fill:#0000ff;stroke:#000000;" x="278.225214778" xlink:href="#md6eb90ea40" y="112.812064951"/>
     <use style="fill:#0000ff;stroke:#000000;" x="297.361326231" xlink:href="#md6eb90ea40" y="143.356740508"/>
     <use style="fill:#0000ff;stroke:#000000;" x="380.998599207" xlink:href="#md6eb90ea40" y="149.142726863"/>
     <use style="fill:#0000ff;stroke:#000000;" x="331.745680998" xlink:href="#md6eb90ea40" y="148.283907693"/>
     <use style="fill:#0000ff;stroke:#000000;" x="303.639086344" xlink:href="#md6eb90ea40" y="145.923204807"/>
     <use style="fill:#0000ff;stroke:#000000;" x="394.446971319" xlink:href="#md6eb90ea40" y="170.365010486"/>
     <use style="fill:#0000ff;stroke:#000000;" x="165.443698548" xlink:href="#md6eb90ea40" y="113.881132648"/>
     <use style="fill:#0000ff;stroke:#000000;" x="382.595942266" xlink:href="#md6eb90ea40" y="188.558959995"/>
     <use style="fill:#0000ff;stroke:#000000;" x="267.580609944" xlink:href="#md6eb90ea40" y="116.120206109"/>
     <use style="fill:#0000ff;stroke:#000000;" x="242.114787674" xlink:href="#md6eb90ea40" y="114.852951433"/>
     <use style="fill:#0000ff;stroke:#000000;" x="278.200081022" xlink:href="#md6eb90ea40" y="132.377692546"/>
     <use style="fill:#0000ff;stroke:#000000;" x="296.211410941" xlink:href="#md6eb90ea40" y="146.562325836"/>
     <use style="fill:#0000ff;stroke:#000000;" x="315.035944633" xlink:href="#md6eb90ea40" y="148.992735532"/>
     <use style="fill:#0000ff;stroke:#000000;" x="347.975668234" xlink:href="#md6eb90ea40" y="150.172367981"/>
     <use style="fill:#0000ff;stroke:#000000;" x="373.109526551" xlink:href="#md6eb90ea40" y="167.680618116"/>
     <use style="fill:#0000ff;stroke:#000000;" x="277.232922582" xlink:href="#md6eb90ea40" y="137.957670886"/>
     <use style="fill:#0000ff;stroke:#000000;" x="373.497455666" xlink:href="#md6eb90ea40" y="212.000708515"/>
     <use style="fill:#0000ff;stroke:#000000;" x="252.142705801" xlink:href="#md6eb90ea40" y="116.49328031"/>
     <use style="fill:#0000ff;stroke:#000000;" x="267.02130049" xlink:href="#md6eb90ea40" y="116.637593027"/>
     <use style="fill:#0000ff;stroke:#000000;" x="184.859737943" xlink:href="#md6eb90ea40" y="115.66513597"/>
     <use style="fill:#0000ff;stroke:#000000;" x="354.874835771" xlink:href="#md6eb90ea40" y="184.000331977"/>
     <use style="fill:#0000ff;stroke:#000000;" x="353.790544753" xlink:href="#md6eb90ea40" y="172.261816502"/>
     <use style="fill:#0000ff;stroke:#000000;" x="357.105545297" xlink:href="#md6eb90ea40" y="201.186824516"/>
     <use style="fill:#0000ff;stroke:#000000;" x="335.944211564" xlink:href="#md6eb90ea40" y="154.346594637"/>
     <use style="fill:#0000ff;stroke:#000000;" x="310.311689944" xlink:href="#md6eb90ea40" y="152.430043334"/>
     <use style="fill:#0000ff;stroke:#000000;" x="271.362459993" xlink:href="#md6eb90ea40" y="143.069585544"/>
     <use style="fill:#0000ff;stroke:#000000;" x="369.676493406" xlink:href="#md6eb90ea40" y="247.243375962"/>
     <use style="fill:#0000ff;stroke:#000000;" x="231.019274339" xlink:href="#md6eb90ea40" y="119.96297101"/>
     <use style="fill:#0000ff;stroke:#000000;" x="250.438418995" xlink:href="#md6eb90ea40" y="126.413901247"/>
     <use style="fill:#0000ff;stroke:#000000;" x="195.408351846" xlink:href="#md6eb90ea40" y="116.735964008"/>
     <use style="fill:#0000ff;stroke:#000000;" x="242.688529761" xlink:href="#md6eb90ea40" y="123.018416628"/>
     <use style="fill:#0000ff;stroke:#000000;" x="264.544132069" xlink:href="#md6eb90ea40" y="127.407711707"/>
     <use style="fill:#0000ff;stroke:#000000;" x="358.239182994" xlink:href="#md6eb90ea40" y="227.751976032"/>
     <use style="fill:#0000ff;stroke:#000000;" x="322.329447277" xlink:href="#md6eb90ea40" y="156.711696776"/>
     <use style="fill:#0000ff;stroke:#000000;" x="302.787141244" xlink:href="#md6eb90ea40" y="154.508407843"/>
     <use style="fill:#0000ff;stroke:#000000;" x="351.321282673" xlink:href="#md6eb90ea40" y="178.287641135"/>
     <use style="fill:#0000ff;stroke:#000000;" x="351.772722635" xlink:href="#md6eb90ea40" y="208.362003514"/>
     <use style="fill:#0000ff;stroke:#000000;" x="268.993291224" xlink:href="#md6eb90ea40" y="152.504972481"/>
     <use style="fill:#0000ff;stroke:#000000;" x="312.311296817" xlink:href="#md6eb90ea40" y="162.733337255"/>
     <use style="fill:#0000ff;stroke:#000000;" x="191.627018687" xlink:href="#md6eb90ea40" y="124.110451846"/>
     <use style="fill:#0000ff;stroke:#000000;" x="228.847899229" xlink:href="#md6eb90ea40" y="125.222470309"/>
     <use style="fill:#0000ff;stroke:#000000;" x="170.603738208" xlink:href="#md6eb90ea40" y="123.813696368"/>
     <use style="fill:#0000ff;stroke:#000000;" x="242.297786601" xlink:href="#md6eb90ea40" y="130.517468712"/>
     <use style="fill:#0000ff;stroke:#000000;" x="132.910802212" xlink:href="#md6eb90ea40" y="118.784878498"/>
     <use style="fill:#0000ff;stroke:#000000;" x="240.330195359" xlink:href="#md6eb90ea40" y="129.587725954"/>
     <use style="fill:#0000ff;stroke:#000000;" x="264.510690616" xlink:href="#md6eb90ea40" y="142.85619162"/>
     <use style="fill:#0000ff;stroke:#000000;" x="260.003823244" xlink:href="#md6eb90ea40" y="137.364702245"/>
     <use style="fill:#0000ff;stroke:#000000;" x="347.602889373" xlink:href="#md6eb90ea40" y="183.306476696"/>
     <use style="fill:#0000ff;stroke:#000000;" x="318.74991626" xlink:href="#md6eb90ea40" y="181.565060403"/>
     <use style="fill:#0000ff;stroke:#000000;" x="312.810987136" xlink:href="#md6eb90ea40" y="178.559400122"/>
     <use style="fill:#0000ff;stroke:#000000;" x="347.771626983" xlink:href="#md6eb90ea40" y="189.717875848"/>
     <use style="fill:#0000ff;stroke:#000000;" x="295.997932496" xlink:href="#md6eb90ea40" y="155.549194578"/>
     <use style="fill:#0000ff;stroke:#000000;" x="311.330594561" xlink:href="#md6eb90ea40" y="157.515682143"/>
     <use style="fill:#0000ff;stroke:#000000;" x="199.391326063" xlink:href="#md6eb90ea40" y="127.210123773"/>
     <use style="fill:#0000ff;stroke:#000000;" x="310.923537718" xlink:href="#md6eb90ea40" y="168.128230961"/>
     <use style="fill:#0000ff;stroke:#000000;" x="211.602655439" xlink:href="#md6eb90ea40" y="130.022804469"/>
     <use style="fill:#0000ff;stroke:#000000;" x="239.155205076" xlink:href="#md6eb90ea40" y="142.829832076"/>
     <use style="fill:#0000ff;stroke:#000000;" x="190.824781117" xlink:href="#md6eb90ea40" y="124.407607218"/>
     <use style="fill:#0000ff;stroke:#000000;" x="233.80239773" xlink:href="#md6eb90ea40" y="132.110790239"/>
     <use style="fill:#0000ff;stroke:#000000;" x="251.327971598" xlink:href="#md6eb90ea40" y="143.71511663"/>
     <use style="fill:#0000ff;stroke:#000000;" x="260.932965246" xlink:href="#md6eb90ea40" y="149.761422334"/>
     <use style="fill:#0000ff;stroke:#000000;" x="313.174919929" xlink:href="#md6eb90ea40" y="183.849725696"/>
     <use style="fill:#0000ff;stroke:#000000;" x="334.654480808" xlink:href="#md6eb90ea40" y="207.477335893"/>
     <use style="fill:#0000ff;stroke:#000000;" x="343.591330267" xlink:href="#md6eb90ea40" y="212.088389444"/>
     <use style="fill:#0000ff;stroke:#000000;" x="322.739713338" xlink:href="#md6eb90ea40" y="186.179240802"/>
     <use style="fill:#0000ff;stroke:#000000;" x="346.134711718" xlink:href="#md6eb90ea40" y="219.194394961"/>
    </g>
   </g>
   <g id="PathCollection_2">
    <defs>
     <path d="M 0 1.118034 
C 0.296506 1.118034 0.580908 1.000231 0.790569 0.790569 
C 1.000231 0.580908 1.118034 0.296506 1.118034 0 
C 1.118034 -0.296506 1.000231 -0.580908 0.790569 -0.790569 
C 0.580908 -1.000231 0.296506 -1.118034 0 -1.118034 
C -0.296506 -1.118034 -0.580908 -1.000231 -0.790569 -0.790569 
C -1.000231 -0.580908 -1.118034 -0.296506 -1.118034 0 
C -1.118034 0.296506 -1.000231 0.580908 -0.790569 0.790569 
C -0.580908 1.000231 -0.296506 1.118034 0 1.118034 
z
" id="m8b1f2e9c62" style="stroke:#000000;"/>
    </defs>
    <g clip-path="url(#pba9508ac6f)">
     <use style="stroke:#000000;" x="494.912375067" xlink:href="#m8b1f2e9c62" y="156.794045897"/>
     <use style="stroke:#000000;" x="444.673897103" xlink:href="#m8b1f2e9c62" y="103.433496797"/>
     <use style="stroke:#000000;" x="265.787592094" xlink:href="#m8b1f2e9c62" y="77.7281978484"/>
     <use style="stroke:#000000;" x="383.421513553" xlink:href="#m8b1f2e9c62" y="92.6216901163"/>
     <use style="stroke:#000000;" x="480.259216583" xlink:href="#m8b1f2e9c62" y="137.50161344"/>
     <use style="stroke:#000000;" x="468.219664389" xlink:href="#m8b1f2e9c62" y="104.269419025"/>
     <use style="stroke:#000000;" x="462.715049354" xlink:href="#m8b1f2e9c62" y="179.29728643"/>
     <use style="stroke:#000000;" x="457.042039537" xlink:href="#m8b1f2e9c62" y="111.157323775"/>
     <use style="stroke:#000000;" x="296.341466143" xlink:href="#m8b1f2e9c62" y="93.72602324"/>
     <use style="stroke:#000000;" x="297.805163079" xlink:href="#m8b1f2e9c62" y="97.2402728832"/>
     <use style="stroke:#000000;" x="351.318853212" xlink:href="#m8b1f2e9c62" y="100.392179246"/>
     <use style="stroke:#000000;" x="239.783325593" xlink:href="#m8b1f2e9c62" y="99.6324532853"/>
     <use style="stroke:#000000;" x="428.991492857" xlink:href="#m8b1f2e9c62" y="136.446785995"/>
     <use style="stroke:#000000;" x="297.580939722" xlink:href="#m8b1f2e9c62" y="108.740039699"/>
     <use style="stroke:#000000;" x="325.940413512" xlink:href="#m8b1f2e9c62" y="121.097325972"/>
     <use style="stroke:#000000;" x="313.554576463" xlink:href="#m8b1f2e9c62" y="120.78252777"/>
     <use style="stroke:#000000;" x="417.159857882" xlink:href="#m8b1f2e9c62" y="131.044801469"/>
     <use style="stroke:#000000;" x="450.798492261" xlink:href="#m8b1f2e9c62" y="170.510973421"/>
     <use style="stroke:#000000;" x="363.985629258" xlink:href="#m8b1f2e9c62" y="121.717946786"/>
     <use style="stroke:#000000;" x="233.320979965" xlink:href="#m8b1f2e9c62" y="104.568178764"/>
     <use style="stroke:#000000;" x="419.858208926" xlink:href="#m8b1f2e9c62" y="164.898779167"/>
     <use style="stroke:#000000;" x="236.391961853" xlink:href="#m8b1f2e9c62" y="107.427831469"/>
     <use style="stroke:#000000;" x="194.491138379" xlink:href="#m8b1f2e9c62" y="101.05142497"/>
     <use style="stroke:#000000;" x="297.242468689" xlink:href="#m8b1f2e9c62" y="127.59284575"/>
     <use style="stroke:#000000;" x="275.485821452" xlink:href="#m8b1f2e9c62" y="110.730639385"/>
     <use style="stroke:#000000;" x="295.819850438" xlink:href="#m8b1f2e9c62" y="111.834151535"/>
     <use style="stroke:#000000;" x="380.934751965" xlink:href="#m8b1f2e9c62" y="139.81402246"/>
     <use style="stroke:#000000;" x="406.902353518" xlink:href="#m8b1f2e9c62" y="146.52910183"/>
     <use style="stroke:#000000;" x="390.64599248" xlink:href="#m8b1f2e9c62" y="141.217630522"/>
     <use style="stroke:#000000;" x="298.53358825" xlink:href="#m8b1f2e9c62" y="132.30503662"/>
     <use style="stroke:#000000;" x="261.254619336" xlink:href="#m8b1f2e9c62" y="110.538897685"/>
     <use style="stroke:#000000;" x="429.696446183" xlink:href="#m8b1f2e9c62" y="180.147485012"/>
     <use style="stroke:#000000;" x="282.7739802" xlink:href="#m8b1f2e9c62" y="139.186425533"/>
     <use style="stroke:#000000;" x="417.054632646" xlink:href="#m8b1f2e9c62" y="204.918519906"/>
     <use style="stroke:#000000;" x="278.225214778" xlink:href="#m8b1f2e9c62" y="112.812064951"/>
     <use style="stroke:#000000;" x="297.361326231" xlink:href="#m8b1f2e9c62" y="143.356740508"/>
     <use style="stroke:#000000;" x="380.998599207" xlink:href="#m8b1f2e9c62" y="149.142726863"/>
     <use style="stroke:#000000;" x="331.745680998" xlink:href="#m8b1f2e9c62" y="148.283907693"/>
     <use style="stroke:#000000;" x="303.639086344" xlink:href="#m8b1f2e9c62" y="145.923204807"/>
     <use style="stroke:#000000;" x="394.446971319" xlink:href="#m8b1f2e9c62" y="170.365010486"/>
     <use style="stroke:#000000;" x="165.443698548" xlink:href="#m8b1f2e9c62" y="113.881132648"/>
     <use style="stroke:#000000;" x="382.595942266" xlink:href="#m8b1f2e9c62" y="188.558959995"/>
     <use style="stroke:#000000;" x="267.580609944" xlink:href="#m8b1f2e9c62" y="116.120206109"/>
     <use style="stroke:#000000;" x="242.114787674" xlink:href="#m8b1f2e9c62" y="114.852951433"/>
     <use style="stroke:#000000;" x="278.200081022" xlink:href="#m8b1f2e9c62" y="132.377692546"/>
     <use style="stroke:#000000;" x="296.211410941" xlink:href="#m8b1f2e9c62" y="146.562325836"/>
     <use style="stroke:#000000;" x="315.035944633" xlink:href="#m8b1f2e9c62" y="148.992735532"/>
     <use style="stroke:#000000;" x="347.975668234" xlink:href="#m8b1f2e9c62" y="150.172367981"/>
     <use style="stroke:#000000;" x="373.109526551" xlink:href="#m8b1f2e9c62" y="167.680618116"/>
     <use style="stroke:#000000;" x="277.232922582" xlink:href="#m8b1f2e9c62" y="137.957670886"/>
     <use style="stroke:#000000;" x="373.497455666" xlink:href="#m8b1f2e9c62" y="212.000708515"/>
     <use style="stroke:#000000;" x="252.142705801" xlink:href="#m8b1f2e9c62" y="116.49328031"/>
     <use style="stroke:#000000;" x="267.02130049" xlink:href="#m8b1f2e9c62" y="116.637593027"/>
     <use style="stroke:#000000;" x="184.859737943" xlink:href="#m8b1f2e9c62" y="115.66513597"/>
     <use style="stroke:#000000;" x="354.874835771" xlink:href="#m8b1f2e9c62" y="184.000331977"/>
     <use style="stroke:#000000;" x="353.790544753" xlink:href="#m8b1f2e9c62" y="172.261816502"/>
     <use style="stroke:#000000;" x="357.105545297" xlink:href="#m8b1f2e9c62" y="201.186824516"/>
     <use style="stroke:#000000;" x="335.944211564" xlink:href="#m8b1f2e9c62" y="154.346594637"/>
     <use style="stroke:#000000;" x="310.311689944" xlink:href="#m8b1f2e9c62" y="152.430043334"/>
     <use style="stroke:#000000;" x="271.362459993" xlink:href="#m8b1f2e9c62" y="143.069585544"/>
     <use style="stroke:#000000;" x="369.676493406" xlink:href="#m8b1f2e9c62" y="247.243375962"/>
     <use style="stroke:#000000;" x="231.019274339" xlink:href="#m8b1f2e9c62" y="119.96297101"/>
     <use style="stroke:#000000;" x="250.438418995" xlink:href="#m8b1f2e9c62" y="126.413901247"/>
     <use style="stroke:#000000;" x="195.408351846" xlink:href="#m8b1f2e9c62" y="116.735964008"/>
     <use style="stroke:#000000;" x="242.688529761" xlink:href="#m8b1f2e9c62" y="123.018416628"/>
     <use style="stroke:#000000;" x="264.544132069" xlink:href="#m8b1f2e9c62" y="127.407711707"/>
     <use style="stroke:#000000;" x="358.239182994" xlink:href="#m8b1f2e9c62" y="227.751976032"/>
     <use style="stroke:#000000;" x="322.329447277" xlink:href="#m8b1f2e9c62" y="156.711696776"/>
     <use style="stroke:#000000;" x="302.787141244" xlink:href="#m8b1f2e9c62" y="154.508407843"/>
     <use style="stroke:#000000;" x="351.321282673" xlink:href="#m8b1f2e9c62" y="178.287641135"/>
     <use style="stroke:#000000;" x="351.772722635" xlink:href="#m8b1f2e9c62" y="208.362003514"/>
     <use style="stroke:#000000;" x="268.993291224" xlink:href="#m8b1f2e9c62" y="152.504972481"/>
     <use style="stroke:#000000;" x="312.311296817" xlink:href="#m8b1f2e9c62" y="162.733337255"/>
     <use style="stroke:#000000;" x="191.627018687" xlink:href="#m8b1f2e9c62" y="124.110451846"/>
     <use style="stroke:#000000;" x="228.847899229" xlink:href="#m8b1f2e9c62" y="125.222470309"/>
     <use style="stroke:#000000;" x="170.603738208" xlink:href="#m8b1f2e9c62" y="123.813696368"/>
     <use style="stroke:#000000;" x="242.297786601" xlink:href="#m8b1f2e9c62" y="130.517468712"/>
     <use style="stroke:#000000;" x="132.910802212" xlink:href="#m8b1f2e9c62" y="118.784878498"/>
     <use style="stroke:#000000;" x="240.330195359" xlink:href="#m8b1f2e9c62" y="129.587725954"/>
     <use style="stroke:#000000;" x="264.510690616" xlink:href="#m8b1f2e9c62" y="142.85619162"/>
     <use style="stroke:#000000;" x="260.003823244" xlink:href="#m8b1f2e9c62" y="137.364702245"/>
     <use style="stroke:#000000;" x="347.602889373" xlink:href="#m8b1f2e9c62" y="183.306476696"/>
     <use style="stroke:#000000;" x="318.74991626" xlink:href="#m8b1f2e9c62" y="181.565060403"/>
     <use style="stroke:#000000;" x="312.810987136" xlink:href="#m8b1f2e9c62" y="178.559400122"/>
     <use style="stroke:#000000;" x="347.771626983" xlink:href="#m8b1f2e9c62" y="189.717875848"/>
     <use style="stroke:#000000;" x="295.997932496" xlink:href="#m8b1f2e9c62" y="155.549194578"/>
     <use style="stroke:#000000;" x="311.330594561" xlink:href="#m8b1f2e9c62" y="157.515682143"/>
     <use style="stroke:#000000;" x="199.391326063" xlink:href="#m8b1f2e9c62" y="127.210123773"/>
     <use style="stroke:#000000;" x="310.923537718" xlink:href="#m8b1f2e9c62" y="168.128230961"/>
     <use style="stroke:#000000;" x="211.602655439" xlink:href="#m8b1f2e9c62" y="130.022804469"/>
     <use style="stroke:#000000;" x="239.155205076" xlink:href="#m8b1f2e9c62" y="142.829832076"/>
     <use style="stroke:#000000;" x="190.824781117" xlink:href="#m8b1f2e9c62" y="124.407607218"/>
     <use style="stroke:#000000;" x="233.80239773" xlink:href="#m8b1f2e9c62" y="132.110790239"/>
     <use style="stroke:#000000;" x="251.327971598" xlink:href="#m8b1f2e9c62" y="143.71511663"/>
     <use style="stroke:#000000;" x="260.932965246" xlink:href="#m8b1f2e9c62" y="149.761422334"/>
     <use style="stroke:#000000;" x="313.174919929" xlink:href="#m8b1f2e9c62" y="183.849725696"/>
     <use style="stroke:#000000;" x="334.654480808" xlink:href="#m8b1f2e9c62" y="207.477335893"/>
     <use style="stroke:#000000;" x="343.591330267" xlink:href="#m8b1f2e9c62" y="212.088389444"/>
     <use style="stroke:#000000;" x="322.739713338" xlink:href="#m8b1f2e9c62" y="186.179240802"/>
     <use style="stroke:#000000;" x="346.134711718" xlink:href="#m8b1f2e9c62" y="219.194394961"/>
     <use style="stroke:#000000;" x="164.432012418" xlink:href="#m8b1f2e9c62" y="274.042961126"/>
     <use style="stroke:#000000;" x="126.767278703" xlink:href="#m8b1f2e9c62" y="314.638138479"/>
     <use style="stroke:#000000;" x="213.597285366" xlink:href="#m8b1f2e9c62" y="137.985942931"/>
     <use style="stroke:#000000;" x="136.485434075" xlink:href="#m8b1f2e9c62" y="270.688428961"/>
     <use style="stroke:#000000;" x="142.189259739" xlink:href="#m8b1f2e9c62" y="238.367685838"/>
     <use style="stroke:#000000;" x="142.454926454" xlink:href="#m8b1f2e9c62" y="261.913315545"/>
     <use style="stroke:#000000;" x="155.524040992" xlink:href="#m8b1f2e9c62" y="273.138137827"/>
     <use style="stroke:#000000;" x="130.469089164" xlink:href="#m8b1f2e9c62" y="211.562657165"/>
     <use style="stroke:#000000;" x="182.982850136" xlink:href="#m8b1f2e9c62" y="226.331193844"/>
     <use style="stroke:#000000;" x="189.858490667" xlink:href="#m8b1f2e9c62" y="299.823124902"/>
     <use style="stroke:#000000;" x="273.22806395" xlink:href="#m8b1f2e9c62" y="150.263373224"/>
     <use style="stroke:#000000;" x="142.010670417" xlink:href="#m8b1f2e9c62" y="246.457064036"/>
     <use style="stroke:#000000;" x="154.358056638" xlink:href="#m8b1f2e9c62" y="224.795549007"/>
     <use style="stroke:#000000;" x="158.511312545" xlink:href="#m8b1f2e9c62" y="144.236998746"/>
     <use style="stroke:#000000;" x="126.209175213" xlink:href="#m8b1f2e9c62" y="262.79747301"/>
     <use style="stroke:#000000;" x="288.99311752" xlink:href="#m8b1f2e9c62" y="194.342555375"/>
     <use style="stroke:#000000;" x="200.379707236" xlink:href="#m8b1f2e9c62" y="203.27942145"/>
     <use style="stroke:#000000;" x="134.536683495" xlink:href="#m8b1f2e9c62" y="220.491990621"/>
     <use style="stroke:#000000;" x="132.273801043" xlink:href="#m8b1f2e9c62" y="246.152056406"/>
     <use style="stroke:#000000;" x="141.424967919" xlink:href="#m8b1f2e9c62" y="209.170134819"/>
     <use style="stroke:#000000;" x="149.494943806" xlink:href="#m8b1f2e9c62" y="200.860836649"/>
     <use style="stroke:#000000;" x="125.575168612" xlink:href="#m8b1f2e9c62" y="280.989251572"/>
     <use style="stroke:#000000;" x="160.775599867" xlink:href="#m8b1f2e9c62" y="250.016714783"/>
     <use style="stroke:#000000;" x="138.513983735" xlink:href="#m8b1f2e9c62" y="315.248304296"/>
     <use style="stroke:#000000;" x="146.163330711" xlink:href="#m8b1f2e9c62" y="299.378856109"/>
     <use style="stroke:#000000;" x="132.258257957" xlink:href="#m8b1f2e9c62" y="174.909224147"/>
     <use style="stroke:#000000;" x="148.281976483" xlink:href="#m8b1f2e9c62" y="219.422463231"/>
     <use style="stroke:#000000;" x="377.141785791" xlink:href="#m8b1f2e9c62" y="141.291173907"/>
     <use style="stroke:#000000;" x="193.038691289" xlink:href="#m8b1f2e9c62" y="218.492496973"/>
     <use style="stroke:#000000;" x="143.764573246" xlink:href="#m8b1f2e9c62" y="272.484823884"/>
     <use style="stroke:#000000;" x="274.283818758" xlink:href="#m8b1f2e9c62" y="127.33353581"/>
     <use style="stroke:#000000;" x="138.036604961" xlink:href="#m8b1f2e9c62" y="227.493181399"/>
     <use style="stroke:#000000;" x="176.84844693" xlink:href="#m8b1f2e9c62" y="202.913976445"/>
     <use style="stroke:#000000;" x="130.125018004" xlink:href="#m8b1f2e9c62" y="315.34232174"/>
     <use style="stroke:#000000;" x="137.415446946" xlink:href="#m8b1f2e9c62" y="223.27407059"/>
     <use style="stroke:#000000;" x="131.952731251" xlink:href="#m8b1f2e9c62" y="240.577607522"/>
     <use style="stroke:#000000;" x="132.39936809" xlink:href="#m8b1f2e9c62" y="283.943989998"/>
     <use style="stroke:#000000;" x="136.294537917" xlink:href="#m8b1f2e9c62" y="294.373558815"/>
     <use style="stroke:#000000;" x="130.669257147" xlink:href="#m8b1f2e9c62" y="321.73275076"/>
     <use style="stroke:#000000;" x="136.27284181" xlink:href="#m8b1f2e9c62" y="178.840198311"/>
     <use style="stroke:#000000;" x="124.526736758" xlink:href="#m8b1f2e9c62" y="353.035097026"/>
     <use style="stroke:#000000;" x="177.930955024" xlink:href="#m8b1f2e9c62" y="282.219202856"/>
     <use style="stroke:#000000;" x="162.913216534" xlink:href="#m8b1f2e9c62" y="231.660370324"/>
     <use style="stroke:#000000;" x="130.352304274" xlink:href="#m8b1f2e9c62" y="206.588884675"/>
     <use style="stroke:#000000;" x="132.737571775" xlink:href="#m8b1f2e9c62" y="336.546547305"/>
     <use style="stroke:#000000;" x="186.917091311" xlink:href="#m8b1f2e9c62" y="252.052866878"/>
     <use style="stroke:#000000;" x="127.129132518" xlink:href="#m8b1f2e9c62" y="281.935124963"/>
     <use style="stroke:#000000;" x="136.440982563" xlink:href="#m8b1f2e9c62" y="187.949096363"/>
     <use style="stroke:#000000;" x="172.370204347" xlink:href="#m8b1f2e9c62" y="172.818504235"/>
     <use style="stroke:#000000;" x="156.201452078" xlink:href="#m8b1f2e9c62" y="302.121896298"/>
    </g>
   </g>
   <g id="patch_3">
    <path d="M 72 388.8 
L 518.4 388.8 
" style="fill:none;stroke:#000000;stroke-linecap:square;stroke-linejoin:miter;"/>
   </g>
   <g id="patch_4">
    <path d="M 518.4 388.8 
L 518.4 43.2 
" style="fill:none;stroke:#000000;stroke-linecap:square;stroke-linejoin:miter;"/>
   </g>
   <g id="patch_5">
    <path d="M 72 388.8 
L 72 43.2 
" style="fill:none;stroke:#000000;stroke-linecap:square;stroke-linejoin:miter;"/>
   </g>
   <g id="patch_6">
    <path d="M 72 43.2 
L 518.4 43.2 
" style="fill:none;stroke:#000000;stroke-linecap:square;stroke-linejoin:miter;"/>
   </g>
   <g id="matplotlib.axis_1">
    <g id="xtick_1">
     <g id="line2d_1">
      <defs>
       <path d="M 0 0 
L 0 -4 
" id="mfb9b79de03" style="stroke:#000000;stroke-width:0.5;"/>
      </defs>
      <g>
       <use style="stroke:#000000;stroke-width:0.5;" x="72.0" xlink:href="#mfb9b79de03" y="388.8"/>
      </g>
     </g>
     <g id="line2d_2">
      <defs>
       <path d="M 0 0 
L 0 4 
" id="md7f0b33f92" style="stroke:#000000;stroke-width:0.5;"/>
      </defs>
      <g>
       <use style="stroke:#000000;stroke-width:0.5;" x="72.0" xlink:href="#md7f0b33f92" y="43.2"/>
      </g>
     </g>
     <g id="text_1">
      <!-- −2 -->
      <defs>
       <path d="M 19.1875 8.296875 
L 53.609375 8.296875 
L 53.609375 0 
L 7.328125 0 
L 7.328125 8.296875 
Q 12.9375 14.109375 22.625 23.890625 
Q 32.328125 33.6875 34.8125 36.53125 
Q 39.546875 41.84375 41.421875 45.53125 
Q 43.3125 49.21875 43.3125 52.78125 
Q 43.3125 58.59375 39.234375 62.25 
Q 35.15625 65.921875 28.609375 65.921875 
Q 23.96875 65.921875 18.8125 64.3125 
Q 13.671875 62.703125 7.8125 59.421875 
L 7.8125 69.390625 
Q 13.765625 71.78125 18.9375 73 
Q 24.125 74.21875 28.421875 74.21875 
Q 39.75 74.21875 46.484375 68.546875 
Q 53.21875 62.890625 53.21875 53.421875 
Q 53.21875 48.921875 51.53125 44.890625 
Q 49.859375 40.875 45.40625 35.40625 
Q 44.1875 33.984375 37.640625 27.21875 
Q 31.109375 20.453125 19.1875 8.296875 
" id="BitstreamVeraSans-Roman-32"/>
       <path d="M 10.59375 35.5 
L 73.1875 35.5 
L 73.1875 27.203125 
L 10.59375 27.203125 
z
" id="BitstreamVeraSans-Roman-2212"/>
      </defs>
      <g transform="translate(63.1546875 401.918125)scale(0.12 -0.12)">
       <use xlink:href="#BitstreamVeraSans-Roman-2212"/>
       <use x="83.7890625" xlink:href="#BitstreamVeraSans-Roman-32"/>
      </g>
     </g>
    </g>
    <g id="xtick_2">
     <g id="line2d_3">
      <g>
       <use style="stroke:#000000;stroke-width:0.5;" x="121.6" xlink:href="#mfb9b79de03" y="388.8"/>
      </g>
     </g>
     <g id="line2d_4">
      <g>
       <use style="stroke:#000000;stroke-width:0.5;" x="121.6" xlink:href="#md7f0b33f92" y="43.2"/>
      </g>
     </g>
     <g id="text_2">
      <!-- 0 -->
      <defs>
       <path d="M 31.78125 66.40625 
Q 24.171875 66.40625 20.328125 58.90625 
Q 16.5 51.421875 16.5 36.375 
Q 16.5 21.390625 20.328125 13.890625 
Q 24.171875 6.390625 31.78125 6.390625 
Q 39.453125 6.390625 43.28125 13.890625 
Q 47.125 21.390625 47.125 36.375 
Q 47.125 51.421875 43.28125 58.90625 
Q 39.453125 66.40625 31.78125 66.40625 
M 31.78125 74.21875 
Q 44.046875 74.21875 50.515625 64.515625 
Q 56.984375 54.828125 56.984375 36.375 
Q 56.984375 17.96875 50.515625 8.265625 
Q 44.046875 -1.421875 31.78125 -1.421875 
Q 19.53125 -1.421875 13.0625 8.265625 
Q 6.59375 17.96875 6.59375 36.375 
Q 6.59375 54.828125 13.0625 64.515625 
Q 19.53125 74.21875 31.78125 74.21875 
" id="BitstreamVeraSans-Roman-30"/>
      </defs>
      <g transform="translate(117.7825 401.918125)scale(0.12 -0.12)">
       <use xlink:href="#BitstreamVeraSans-Roman-30"/>
      </g>
     </g>
    </g>
    <g id="xtick_3">
     <g id="line2d_5">
      <g>
       <use style="stroke:#000000;stroke-width:0.5;" x="171.2" xlink:href="#mfb9b79de03" y="388.8"/>
      </g>
     </g>
     <g id="line2d_6">
      <g>
       <use style="stroke:#000000;stroke-width:0.5;" x="171.2" xlink:href="#md7f0b33f92" y="43.2"/>
      </g>
     </g>
     <g id="text_3">
      <!-- 2 -->
      <g transform="translate(167.3825 401.918125)scale(0.12 -0.12)">
       <use xlink:href="#BitstreamVeraSans-Roman-32"/>
      </g>
     </g>
    </g>
    <g id="xtick_4">
     <g id="line2d_7">
      <g>
       <use style="stroke:#000000;stroke-width:0.5;" x="220.8" xlink:href="#mfb9b79de03" y="388.8"/>
      </g>
     </g>
     <g id="line2d_8">
      <g>
       <use style="stroke:#000000;stroke-width:0.5;" x="220.8" xlink:href="#md7f0b33f92" y="43.2"/>
      </g>
     </g>
     <g id="text_4">
      <!-- 4 -->
      <defs>
       <path d="M 37.796875 64.3125 
L 12.890625 25.390625 
L 37.796875 25.390625 
z
M 35.203125 72.90625 
L 47.609375 72.90625 
L 47.609375 25.390625 
L 58.015625 25.390625 
L 58.015625 17.1875 
L 47.609375 17.1875 
L 47.609375 0 
L 37.796875 0 
L 37.796875 17.1875 
L 4.890625 17.1875 
L 4.890625 26.703125 
z
" id="BitstreamVeraSans-Roman-34"/>
      </defs>
      <g transform="translate(216.9825 401.918125)scale(0.12 -0.12)">
       <use xlink:href="#BitstreamVeraSans-Roman-34"/>
      </g>
     </g>
    </g>
    <g id="xtick_5">
     <g id="line2d_9">
      <g>
       <use style="stroke:#000000;stroke-width:0.5;" x="270.4" xlink:href="#mfb9b79de03" y="388.8"/>
      </g>
     </g>
     <g id="line2d_10">
      <g>
       <use style="stroke:#000000;stroke-width:0.5;" x="270.4" xlink:href="#md7f0b33f92" y="43.2"/>
      </g>
     </g>
     <g id="text_5">
      <!-- 6 -->
      <defs>
       <path d="M 33.015625 40.375 
Q 26.375 40.375 22.484375 35.828125 
Q 18.609375 31.296875 18.609375 23.390625 
Q 18.609375 15.53125 22.484375 10.953125 
Q 26.375 6.390625 33.015625 6.390625 
Q 39.65625 6.390625 43.53125 10.953125 
Q 47.40625 15.53125 47.40625 23.390625 
Q 47.40625 31.296875 43.53125 35.828125 
Q 39.65625 40.375 33.015625 40.375 
M 52.59375 71.296875 
L 52.59375 62.3125 
Q 48.875 64.0625 45.09375 64.984375 
Q 41.3125 65.921875 37.59375 65.921875 
Q 27.828125 65.921875 22.671875 59.328125 
Q 17.53125 52.734375 16.796875 39.40625 
Q 19.671875 43.65625 24.015625 45.921875 
Q 28.375 48.1875 33.59375 48.1875 
Q 44.578125 48.1875 50.953125 41.515625 
Q 57.328125 34.859375 57.328125 23.390625 
Q 57.328125 12.15625 50.6875 5.359375 
Q 44.046875 -1.421875 33.015625 -1.421875 
Q 20.359375 -1.421875 13.671875 8.265625 
Q 6.984375 17.96875 6.984375 36.375 
Q 6.984375 53.65625 15.1875 63.9375 
Q 23.390625 74.21875 37.203125 74.21875 
Q 40.921875 74.21875 44.703125 73.484375 
Q 48.484375 72.75 52.59375 71.296875 
" id="BitstreamVeraSans-Roman-36"/>
      </defs>
      <g transform="translate(266.5825 401.918125)scale(0.12 -0.12)">
       <use xlink:href="#BitstreamVeraSans-Roman-36"/>
      </g>
     </g>
    </g>
    <g id="xtick_6">
     <g id="line2d_11">
      <g>
       <use style="stroke:#000000;stroke-width:0.5;" x="320.0" xlink:href="#mfb9b79de03" y="388.8"/>
      </g>
     </g>
     <g id="line2d_12">
      <g>
       <use style="stroke:#000000;stroke-width:0.5;" x="320.0" xlink:href="#md7f0b33f92" y="43.2"/>
      </g>
     </g>
     <g id="text_6">
      <!-- 8 -->
      <defs>
       <path d="M 31.78125 34.625 
Q 24.75 34.625 20.71875 30.859375 
Q 16.703125 27.09375 16.703125 20.515625 
Q 16.703125 13.921875 20.71875 10.15625 
Q 24.75 6.390625 31.78125 6.390625 
Q 38.8125 6.390625 42.859375 10.171875 
Q 46.921875 13.96875 46.921875 20.515625 
Q 46.921875 27.09375 42.890625 30.859375 
Q 38.875 34.625 31.78125 34.625 
M 21.921875 38.8125 
Q 15.578125 40.375 12.03125 44.71875 
Q 8.5 49.078125 8.5 55.328125 
Q 8.5 64.0625 14.71875 69.140625 
Q 20.953125 74.21875 31.78125 74.21875 
Q 42.671875 74.21875 48.875 69.140625 
Q 55.078125 64.0625 55.078125 55.328125 
Q 55.078125 49.078125 51.53125 44.71875 
Q 48 40.375 41.703125 38.8125 
Q 48.828125 37.15625 52.796875 32.3125 
Q 56.78125 27.484375 56.78125 20.515625 
Q 56.78125 9.90625 50.3125 4.234375 
Q 43.84375 -1.421875 31.78125 -1.421875 
Q 19.734375 -1.421875 13.25 4.234375 
Q 6.78125 9.90625 6.78125 20.515625 
Q 6.78125 27.484375 10.78125 32.3125 
Q 14.796875 37.15625 21.921875 38.8125 
M 18.3125 54.390625 
Q 18.3125 48.734375 21.84375 45.5625 
Q 25.390625 42.390625 31.78125 42.390625 
Q 38.140625 42.390625 41.71875 45.5625 
Q 45.3125 48.734375 45.3125 54.390625 
Q 45.3125 60.0625 41.71875 63.234375 
Q 38.140625 66.40625 31.78125 66.40625 
Q 25.390625 66.40625 21.84375 63.234375 
Q 18.3125 60.0625 18.3125 54.390625 
" id="BitstreamVeraSans-Roman-38"/>
      </defs>
      <g transform="translate(316.1825 401.918125)scale(0.12 -0.12)">
       <use xlink:href="#BitstreamVeraSans-Roman-38"/>
      </g>
     </g>
    </g>
    <g id="xtick_7">
     <g id="line2d_13">
      <g>
       <use style="stroke:#000000;stroke-width:0.5;" x="369.6" xlink:href="#mfb9b79de03" y="388.8"/>
      </g>
     </g>
     <g id="line2d_14">
      <g>
       <use style="stroke:#000000;stroke-width:0.5;" x="369.6" xlink:href="#md7f0b33f92" y="43.2"/>
      </g>
     </g>
     <g id="text_7">
      <!-- 10 -->
      <defs>
       <path d="M 12.40625 8.296875 
L 28.515625 8.296875 
L 28.515625 63.921875 
L 10.984375 60.40625 
L 10.984375 69.390625 
L 28.421875 72.90625 
L 38.28125 72.90625 
L 38.28125 8.296875 
L 54.390625 8.296875 
L 54.390625 0 
L 12.40625 0 
z
" id="BitstreamVeraSans-Roman-31"/>
      </defs>
      <g transform="translate(361.965 401.918125)scale(0.12 -0.12)">
       <use xlink:href="#BitstreamVeraSans-Roman-31"/>
       <use x="63.623046875" xlink:href="#BitstreamVeraSans-Roman-30"/>
      </g>
     </g>
    </g>
    <g id="xtick_8">
     <g id="line2d_15">
      <g>
       <use style="stroke:#000000;stroke-width:0.5;" x="419.2" xlink:href="#mfb9b79de03" y="388.8"/>
      </g>
     </g>
     <g id="line2d_16">
      <g>
       <use style="stroke:#000000;stroke-width:0.5;" x="419.2" xlink:href="#md7f0b33f92" y="43.2"/>
      </g>
     </g>
     <g id="text_8">
      <!-- 12 -->
      <g transform="translate(411.565 401.918125)scale(0.12 -0.12)">
       <use xlink:href="#BitstreamVeraSans-Roman-31"/>
       <use x="63.623046875" xlink:href="#BitstreamVeraSans-Roman-32"/>
      </g>
     </g>
    </g>
    <g id="xtick_9">
     <g id="line2d_17">
      <g>
       <use style="stroke:#000000;stroke-width:0.5;" x="468.8" xlink:href="#mfb9b79de03" y="388.8"/>
      </g>
     </g>
     <g id="line2d_18">
      <g>
       <use style="stroke:#000000;stroke-width:0.5;" x="468.8" xlink:href="#md7f0b33f92" y="43.2"/>
      </g>
     </g>
     <g id="text_9">
      <!-- 14 -->
      <g transform="translate(461.165 401.918125)scale(0.12 -0.12)">
       <use xlink:href="#BitstreamVeraSans-Roman-31"/>
       <use x="63.623046875" xlink:href="#BitstreamVeraSans-Roman-34"/>
      </g>
     </g>
    </g>
    <g id="xtick_10">
     <g id="line2d_19">
      <g>
       <use style="stroke:#000000;stroke-width:0.5;" x="518.4" xlink:href="#mfb9b79de03" y="388.8"/>
      </g>
     </g>
     <g id="line2d_20">
      <g>
       <use style="stroke:#000000;stroke-width:0.5;" x="518.4" xlink:href="#md7f0b33f92" y="43.2"/>
      </g>
     </g>
     <g id="text_10">
      <!-- 16 -->
      <g transform="translate(510.765 401.918125)scale(0.12 -0.12)">
       <use xlink:href="#BitstreamVeraSans-Roman-31"/>
       <use x="63.623046875" xlink:href="#BitstreamVeraSans-Roman-36"/>
      </g>
     </g>
    </g>
   </g>
   <g id="matplotlib.axis_2">
    <g id="ytick_1">
     <g id="line2d_21">
      <defs>
       <path d="M 0 0 
L 4 0 
" id="mc86a148f27" style="stroke:#000000;stroke-width:0.5;"/>
      </defs>
      <g>
       <use style="stroke:#000000;stroke-width:0.5;" x="72.0" xlink:href="#mc86a148f27" y="388.8"/>
      </g>
     </g>
     <g id="line2d_22">
      <defs>
       <path d="M 0 0 
L -4 0 
" id="m31c0803846" style="stroke:#000000;stroke-width:0.5;"/>
      </defs>
      <g>
       <use style="stroke:#000000;stroke-width:0.5;" x="518.4" xlink:href="#m31c0803846" y="388.8"/>
      </g>
     </g>
     <g id="text_11">
      <!-- −40 -->
      <g transform="translate(42.674375 392.11125)scale(0.12 -0.12)">
       <use xlink:href="#BitstreamVeraSans-Roman-2212"/>
       <use x="83.7890625" xlink:href="#BitstreamVeraSans-Roman-34"/>
       <use x="147.412109375" xlink:href="#BitstreamVeraSans-Roman-30"/>
      </g>
     </g>
    </g>
    <g id="ytick_2">
     <g id="line2d_23">
      <g>
       <use style="stroke:#000000;stroke-width:0.5;" x="72.0" xlink:href="#mc86a148f27" y="319.68"/>
      </g>
     </g>
     <g id="line2d_24">
      <g>
       <use style="stroke:#000000;stroke-width:0.5;" x="518.4" xlink:href="#m31c0803846" y="319.68"/>
      </g>
     </g>
     <g id="text_12">
      <!-- −30 -->
      <defs>
       <path d="M 40.578125 39.3125 
Q 47.65625 37.796875 51.625 33 
Q 55.609375 28.21875 55.609375 21.1875 
Q 55.609375 10.40625 48.1875 4.484375 
Q 40.765625 -1.421875 27.09375 -1.421875 
Q 22.515625 -1.421875 17.65625 -0.515625 
Q 12.796875 0.390625 7.625 2.203125 
L 7.625 11.71875 
Q 11.71875 9.328125 16.59375 8.109375 
Q 21.484375 6.890625 26.8125 6.890625 
Q 36.078125 6.890625 40.9375 10.546875 
Q 45.796875 14.203125 45.796875 21.1875 
Q 45.796875 27.640625 41.28125 31.265625 
Q 36.765625 34.90625 28.71875 34.90625 
L 20.21875 34.90625 
L 20.21875 43.015625 
L 29.109375 43.015625 
Q 36.375 43.015625 40.234375 45.921875 
Q 44.09375 48.828125 44.09375 54.296875 
Q 44.09375 59.90625 40.109375 62.90625 
Q 36.140625 65.921875 28.71875 65.921875 
Q 24.65625 65.921875 20.015625 65.03125 
Q 15.375 64.15625 9.8125 62.3125 
L 9.8125 71.09375 
Q 15.4375 72.65625 20.34375 73.4375 
Q 25.25 74.21875 29.59375 74.21875 
Q 40.828125 74.21875 47.359375 69.109375 
Q 53.90625 64.015625 53.90625 55.328125 
Q 53.90625 49.265625 50.4375 45.09375 
Q 46.96875 40.921875 40.578125 39.3125 
" id="BitstreamVeraSans-Roman-33"/>
      </defs>
      <g transform="translate(42.674375 322.99125)scale(0.12 -0.12)">
       <use xlink:href="#BitstreamVeraSans-Roman-2212"/>
       <use x="83.7890625" xlink:href="#BitstreamVeraSans-Roman-33"/>
       <use x="147.412109375" xlink:href="#BitstreamVeraSans-Roman-30"/>
      </g>
     </g>
    </g>
    <g id="ytick_3">
     <g id="line2d_25">
      <g>
       <use style="stroke:#000000;stroke-width:0.5;" x="72.0" xlink:href="#mc86a148f27" y="250.56"/>
      </g>
     </g>
     <g id="line2d_26">
      <g>
       <use style="stroke:#000000;stroke-width:0.5;" x="518.4" xlink:href="#m31c0803846" y="250.56"/>
      </g>
     </g>
     <g id="text_13">
      <!-- −20 -->
      <g transform="translate(42.674375 253.87125)scale(0.12 -0.12)">
       <use xlink:href="#BitstreamVeraSans-Roman-2212"/>
       <use x="83.7890625" xlink:href="#BitstreamVeraSans-Roman-32"/>
       <use x="147.412109375" xlink:href="#BitstreamVeraSans-Roman-30"/>
      </g>
     </g>
    </g>
    <g id="ytick_4">
     <g id="line2d_27">
      <g>
       <use style="stroke:#000000;stroke-width:0.5;" x="72.0" xlink:href="#mc86a148f27" y="181.44"/>
      </g>
     </g>
     <g id="line2d_28">
      <g>
       <use style="stroke:#000000;stroke-width:0.5;" x="518.4" xlink:href="#m31c0803846" y="181.44"/>
      </g>
     </g>
     <g id="text_14">
      <!-- −10 -->
      <g transform="translate(42.674375 184.75125)scale(0.12 -0.12)">
       <use xlink:href="#BitstreamVeraSans-Roman-2212"/>
       <use x="83.7890625" xlink:href="#BitstreamVeraSans-Roman-31"/>
       <use x="147.412109375" xlink:href="#BitstreamVeraSans-Roman-30"/>
      </g>
     </g>
    </g>
    <g id="ytick_5">
     <g id="line2d_29">
      <g>
       <use style="stroke:#000000;stroke-width:0.5;" x="72.0" xlink:href="#mc86a148f27" y="112.32"/>
      </g>
     </g>
     <g id="line2d_30">
      <g>
       <use style="stroke:#000000;stroke-width:0.5;" x="518.4" xlink:href="#m31c0803846" y="112.32"/>
      </g>
     </g>
     <g id="text_15">
      <!-- 0 -->
      <g transform="translate(60.365 115.63125)scale(0.12 -0.12)">
       <use xlink:href="#BitstreamVeraSans-Roman-30"/>
      </g>
     </g>
    </g>
    <g id="ytick_6">
     <g id="line2d_31">
      <g>
       <use style="stroke:#000000;stroke-width:0.5;" x="72.0" xlink:href="#mc86a148f27" y="43.2"/>
      </g>
     </g>
     <g id="line2d_32">
      <g>
       <use style="stroke:#000000;stroke-width:0.5;" x="518.4" xlink:href="#m31c0803846" y="43.2"/>
      </g>
     </g>
     <g id="text_16">
      <!-- 10 -->
      <g transform="translate(52.73 46.51125)scale(0.12 -0.12)">
       <use xlink:href="#BitstreamVeraSans-Roman-31"/>
       <use x="63.623046875" xlink:href="#BitstreamVeraSans-Roman-30"/>
      </g>
     </g>
    </g>
   </g>
  </g>
 </g>
 <defs>
  <clipPath id="pba9508ac6f">
   <rect height="345.6" width="446.4" x="72.0" y="43.2"/>
  </clipPath>
 </defs>
</svg>
