<?xml version="1.0" encoding="utf-8" standalone="no"?>
<!DOCTYPE svg PUBLIC "-//W3C//DTD SVG 1.1//EN"
  "http://www.w3.org/Graphics/SVG/1.1/DTD/svg11.dtd">
<!-- Created with matplotlib (http://matplotlib.org/) -->
<svg height="432pt" version="1.1" viewBox="0 0 576 432" width="576pt" xmlns="http://www.w3.org/2000/svg" xmlns:xlink="http://www.w3.org/1999/xlink">
 <defs>
  <style type="text/css">
*{stroke-linecap:butt;stroke-linejoin:round;stroke-miterlimit:100000;}
  </style>
 </defs>
 <g id="figure_1">
  <g id="patch_1">
   <path d="M 0 432 
L 576 432 
L 576 0 
L 0 0 
z
" style="fill:#ffffff;"/>
  </g>
  <g id="axes_1">
   <g id="patch_2">
    <path d="M 72 388.8 
L 518.4 388.8 
L 518.4 43.2 
L 72 43.2 
z
" style="fill:#ffffff;"/>
   </g>
   <g id="PathCollection_1">
    <defs>
     <path d="M 0 2.236068 
C 0.593012 2.236068 1.161816 2.000462 1.581139 1.581139 
C 2.000462 1.161816 2.236068 0.593012 2.236068 0 
C 2.236068 -0.593012 2.000462 -1.161816 1.581139 -1.581139 
C 1.161816 -2.000462 0.593012 -2.236068 0 -2.236068 
C -0.593012 -2.236068 -1.161816 -2.000462 -1.581139 -1.581139 
C -2.000462 -1.161816 -2.236068 -0.593012 -2.236068 0 
C -2.236068 0.593012 -2.000462 1.161816 -1.581139 1.581139 
C -1.161816 2.000462 -0.593012 2.236068 0 2.236068 
z
" id="m5e8fbca0ca" style="stroke:#000000;"/>
    </defs>
    <g clip-path="url(#p3d28465b20)">
     <use style="fill:#0000ff;stroke:#000000;" x="379.622970831" xlink:href="#m5e8fbca0ca" y="124.040484857"/>
     <use style="fill:#0000ff;stroke:#000000;" x="248.71570596" xlink:href="#m5e8fbca0ca" y="113.275364896"/>
     <use style="fill:#0000ff;stroke:#000000;" x="330.482707912" xlink:href="#m5e8fbca0ca" y="157.026721986"/>
     <use style="fill:#0000ff;stroke:#000000;" x="222.611444548" xlink:href="#m5e8fbca0ca" y="134.352504477"/>
     <use style="fill:#0000ff;stroke:#000000;" x="338.736347626" xlink:href="#m5e8fbca0ca" y="215.645190814"/>
     <use style="fill:#0000ff;stroke:#000000;" x="288.450690624" xlink:href="#m5e8fbca0ca" y="139.275483966"/>
     <use style="fill:#0000ff;stroke:#000000;" x="303.837986771" xlink:href="#m5e8fbca0ca" y="168.151767261"/>
     <use style="fill:#0000ff;stroke:#000000;" x="243.4629936" xlink:href="#m5e8fbca0ca" y="146.608659226"/>
     <use style="fill:#0000ff;stroke:#000000;" x="312.727306858" xlink:href="#m5e8fbca0ca" y="199.167517968"/>
     <use style="fill:#0000ff;stroke:#000000;" x="278.310233611" xlink:href="#m5e8fbca0ca" y="161.99388559"/>
     <use style="fill:#0000ff;stroke:#000000;" x="330.24469436" xlink:href="#m5e8fbca0ca" y="244.603365713"/>
     <use style="fill:#0000ff;stroke:#000000;" x="322.541254539" xlink:href="#m5e8fbca0ca" y="216.704791751"/>
     <use style="fill:#0000ff;stroke:#000000;" x="297.11523102" xlink:href="#m5e8fbca0ca" y="181.776319976"/>
     <use style="fill:#0000ff;stroke:#000000;" x="226.32596854" xlink:href="#m5e8fbca0ca" y="161.836208492"/>
     <use style="fill:#0000ff;stroke:#000000;" x="231.200386941" xlink:href="#m5e8fbca0ca" y="166.279375208"/>
     <use style="fill:#0000ff;stroke:#000000;" x="220.039671644" xlink:href="#m5e8fbca0ca" y="161.635644893"/>
     <use style="fill:#0000ff;stroke:#000000;" x="293.954656067" xlink:href="#m5e8fbca0ca" y="190.007360486"/>
     <use style="fill:#0000ff;stroke:#000000;" x="205.291204315" xlink:href="#m5e8fbca0ca" y="163.410165282"/>
     <use style="fill:#0000ff;stroke:#000000;" x="217.565412047" xlink:href="#m5e8fbca0ca" y="168.708575382"/>
     <use style="fill:#0000ff;stroke:#000000;" x="224.202359467" xlink:href="#m5e8fbca0ca" y="174.195106897"/>
     <use style="fill:#0000ff;stroke:#000000;" x="270.932711657" xlink:href="#m5e8fbca0ca" y="193.127317766"/>
     <use style="fill:#0000ff;stroke:#000000;" x="222.213802809" xlink:href="#m5e8fbca0ca" y="184.605004844"/>
     <use style="fill:#0000ff;stroke:#000000;" x="277.677153318" xlink:href="#m5e8fbca0ca" y="219.238600132"/>
     <use style="fill:#0000ff;stroke:#000000;" x="286.101481133" xlink:href="#m5e8fbca0ca" y="225.303004145"/>
     <use style="fill:#0000ff;stroke:#000000;" x="214.252984564" xlink:href="#m5e8fbca0ca" y="169.603272733"/>
     <use style="fill:#0000ff;stroke:#000000;" x="231.762374929" xlink:href="#m5e8fbca0ca" y="195.236169841"/>
     <use style="fill:#0000ff;stroke:#000000;" x="175.426321655" xlink:href="#m5e8fbca0ca" y="182.228316635"/>
     <use style="fill:#0000ff;stroke:#000000;" x="235.141420783" xlink:href="#m5e8fbca0ca" y="196.37722609"/>
     <use style="fill:#0000ff;stroke:#000000;" x="265.494484249" xlink:href="#m5e8fbca0ca" y="205.218689564"/>
     <use style="fill:#0000ff;stroke:#000000;" x="277.807109462" xlink:href="#m5e8fbca0ca" y="229.600633031"/>
     <use style="fill:#0000ff;stroke:#000000;" x="208.054324923" xlink:href="#m5e8fbca0ca" y="188.787713268"/>
     <use style="fill:#0000ff;stroke:#000000;" x="168.078928207" xlink:href="#m5e8fbca0ca" y="179.34024288"/>
     <use style="fill:#0000ff;stroke:#000000;" x="223.161406378" xlink:href="#m5e8fbca0ca" y="195.85544897"/>
     <use style="fill:#0000ff;stroke:#000000;" x="206.18521205" xlink:href="#m5e8fbca0ca" y="192.183844655"/>
     <use style="fill:#0000ff;stroke:#000000;" x="250.678719071" xlink:href="#m5e8fbca0ca" y="208.100228037"/>
     <use style="fill:#0000ff;stroke:#000000;" x="255.156141737" xlink:href="#m5e8fbca0ca" y="215.047768605"/>
     <use style="fill:#0000ff;stroke:#000000;" x="243.905370612" xlink:href="#m5e8fbca0ca" y="207.086140582"/>
     <use style="fill:#0000ff;stroke:#000000;" x="263.798659344" xlink:href="#m5e8fbca0ca" y="217.188608464"/>
     <use style="fill:#0000ff;stroke:#000000;" x="209.989250337" xlink:href="#m5e8fbca0ca" y="195.86459549"/>
     <use style="fill:#0000ff;stroke:#000000;" x="187.061559521" xlink:href="#m5e8fbca0ca" y="193.215042702"/>
     <use style="fill:#0000ff;stroke:#000000;" x="260.808862196" xlink:href="#m5e8fbca0ca" y="257.626600592"/>
     <use style="fill:#0000ff;stroke:#000000;" x="252.549382865" xlink:href="#m5e8fbca0ca" y="225.513116975"/>
     <use style="fill:#0000ff;stroke:#000000;" x="179.292756207" xlink:href="#m5e8fbca0ca" y="192.192223"/>
     <use style="fill:#0000ff;stroke:#000000;" x="197.780111253" xlink:href="#m5e8fbca0ca" y="197.542687611"/>
     <use style="fill:#0000ff;stroke:#000000;" x="177.507853501" xlink:href="#m5e8fbca0ca" y="195.724917678"/>
     <use style="fill:#0000ff;stroke:#000000;" x="234.16049125" xlink:href="#m5e8fbca0ca" y="257.289146025"/>
     <use style="fill:#0000ff;stroke:#000000;" x="198.562737665" xlink:href="#m5e8fbca0ca" y="203.404940009"/>
     <use style="fill:#0000ff;stroke:#000000;" x="232.418011365" xlink:href="#m5e8fbca0ca" y="225.819687047"/>
     <use style="fill:#0000ff;stroke:#000000;" x="202.711309524" xlink:href="#m5e8fbca0ca" y="222.57953436"/>
     <use style="fill:#0000ff;stroke:#000000;" x="237.89986549" xlink:href="#m5e8fbca0ca" y="259.154246326"/>
     <use style="fill:#0000ff;stroke:#000000;" x="249.573368396" xlink:href="#m5e8fbca0ca" y="273.260869071"/>
     <use style="fill:#0000ff;stroke:#000000;" x="239.366616367" xlink:href="#m5e8fbca0ca" y="260.710531735"/>
     <use style="fill:#0000ff;stroke:#000000;" x="248.289505964" xlink:href="#m5e8fbca0ca" y="268.336813992"/>
     <use style="fill:#0000ff;stroke:#000000;" x="246.087908474" xlink:href="#m5e8fbca0ca" y="262.872047776"/>
     <use style="fill:#0000ff;stroke:#000000;" x="196.368984762" xlink:href="#m5e8fbca0ca" y="226.112480916"/>
     <use style="fill:#0000ff;stroke:#000000;" x="240.824065406" xlink:href="#m5e8fbca0ca" y="272.387498384"/>
     <use style="fill:#0000ff;stroke:#000000;" x="186.508616851" xlink:href="#m5e8fbca0ca" y="214.825028309"/>
     <use style="fill:#0000ff;stroke:#000000;" x="177.39572689" xlink:href="#m5e8fbca0ca" y="200.246165797"/>
     <use style="fill:#0000ff;stroke:#000000;" x="231.072174736" xlink:href="#m5e8fbca0ca" y="252.602723803"/>
     <use style="fill:#0000ff;stroke:#000000;" x="228.925533145" xlink:href="#m5e8fbca0ca" y="240.761574476"/>
     <use style="fill:#0000ff;stroke:#000000;" x="242.704890457" xlink:href="#m5e8fbca0ca" y="304.276927838"/>
     <use style="fill:#0000ff;stroke:#000000;" x="238.508943985" xlink:href="#m5e8fbca0ca" y="271.147759576"/>
     <use style="fill:#0000ff;stroke:#000000;" x="192.130638662" xlink:href="#m5e8fbca0ca" y="246.523972894"/>
     <use style="fill:#0000ff;stroke:#000000;" x="235.326661024" xlink:href="#m5e8fbca0ca" y="351.497764053"/>
     <use style="fill:#0000ff;stroke:#000000;" x="190.567840683" xlink:href="#m5e8fbca0ca" y="229.138389815"/>
     <use style="fill:#0000ff;stroke:#000000;" x="175.045011952" xlink:href="#m5e8fbca0ca" y="202.276283954"/>
     <use style="fill:#0000ff;stroke:#000000;" x="182.024204677" xlink:href="#m5e8fbca0ca" y="220.021744461"/>
     <use style="fill:#0000ff;stroke:#000000;" x="211.09386788" xlink:href="#m5e8fbca0ca" y="254.198832788"/>
     <use style="fill:#0000ff;stroke:#000000;" x="204.387174529" xlink:href="#m5e8fbca0ca" y="251.943749971"/>
     <use style="fill:#0000ff;stroke:#000000;" x="227.229494868" xlink:href="#m5e8fbca0ca" y="267.520667999"/>
     <use style="fill:#0000ff;stroke:#000000;" x="229.770311415" xlink:href="#m5e8fbca0ca" y="286.103760727"/>
     <use style="fill:#0000ff;stroke:#000000;" x="189.646084009" xlink:href="#m5e8fbca0ca" y="250.692743163"/>
     <use style="fill:#0000ff;stroke:#000000;" x="221.088318488" xlink:href="#m5e8fbca0ca" y="271.616071969"/>
     <use style="fill:#0000ff;stroke:#000000;" x="187.482323599" xlink:href="#m5e8fbca0ca" y="229.93877246"/>
     <use style="fill:#0000ff;stroke:#000000;" x="179.804153424" xlink:href="#m5e8fbca0ca" y="224.120404374"/>
     <use style="fill:#0000ff;stroke:#000000;" x="169.210895032" xlink:href="#m5e8fbca0ca" y="216.371882865"/>
     <use style="fill:#0000ff;stroke:#000000;" x="176.853073461" xlink:href="#m5e8fbca0ca" y="221.873920567"/>
     <use style="fill:#0000ff;stroke:#000000;" x="173.700342089" xlink:href="#m5e8fbca0ca" y="219.189314967"/>
     <use style="fill:#0000ff;stroke:#000000;" x="205.967151084" xlink:href="#m5e8fbca0ca" y="270.108802948"/>
     <use style="fill:#0000ff;stroke:#000000;" x="193.287507932" xlink:href="#m5e8fbca0ca" y="268.461698324"/>
     <use style="fill:#0000ff;stroke:#000000;" x="169.267971788" xlink:href="#m5e8fbca0ca" y="216.606462062"/>
     <use style="fill:#0000ff;stroke:#000000;" x="187.670630912" xlink:href="#m5e8fbca0ca" y="256.980778334"/>
     <use style="fill:#0000ff;stroke:#000000;" x="212.826228689" xlink:href="#m5e8fbca0ca" y="298.337529881"/>
     <use style="fill:#0000ff;stroke:#000000;" x="178.817343908" xlink:href="#m5e8fbca0ca" y="231.216071777"/>
     <use style="fill:#0000ff;stroke:#000000;" x="185.768315877" xlink:href="#m5e8fbca0ca" y="245.397149016"/>
     <use style="fill:#0000ff;stroke:#000000;" x="179.203202801" xlink:href="#m5e8fbca0ca" y="243.812288529"/>
     <use style="fill:#0000ff;stroke:#000000;" x="176.193274472" xlink:href="#m5e8fbca0ca" y="227.420045391"/>
     <use style="fill:#0000ff;stroke:#000000;" x="220.91098721" xlink:href="#m5e8fbca0ca" y="348.251465555"/>
     <use style="fill:#0000ff;stroke:#000000;" x="219.665477396" xlink:href="#m5e8fbca0ca" y="320.934610436"/>
     <use style="fill:#0000ff;stroke:#000000;" x="173.615285946" xlink:href="#m5e8fbca0ca" y="227.178479044"/>
     <use style="fill:#0000ff;stroke:#000000;" x="173.233544835" xlink:href="#m5e8fbca0ca" y="223.292557418"/>
     <use style="fill:#0000ff;stroke:#000000;" x="210.277445199" xlink:href="#m5e8fbca0ca" y="277.966086477"/>
     <use style="fill:#0000ff;stroke:#000000;" x="166.095068999" xlink:href="#m5e8fbca0ca" y="218.966234474"/>
     <use style="fill:#0000ff;stroke:#000000;" x="194.508044867" xlink:href="#m5e8fbca0ca" y="270.605738427"/>
     <use style="fill:#0000ff;stroke:#000000;" x="185.425675533" xlink:href="#m5e8fbca0ca" y="267.027581532"/>
     <use style="fill:#0000ff;stroke:#000000;" x="214.867740112" xlink:href="#m5e8fbca0ca" y="339.14192486"/>
     <use style="fill:#0000ff;stroke:#000000;" x="176.267683467" xlink:href="#m5e8fbca0ca" y="243.35080685"/>
     <use style="fill:#0000ff;stroke:#000000;" x="185.32880275" xlink:href="#m5e8fbca0ca" y="248.887639084"/>
     <use style="fill:#0000ff;stroke:#000000;" x="179.924978928" xlink:href="#m5e8fbca0ca" y="247.75365467"/>
     <use style="fill:#0000ff;stroke:#000000;" x="179.003015113" xlink:href="#m5e8fbca0ca" y="246.950139221"/>
    </g>
   </g>
   <g id="PathCollection_2">
    <defs>
     <path d="M 0 1.118034 
C 0.296506 1.118034 0.580908 1.000231 0.790569 0.790569 
C 1.000231 0.580908 1.118034 0.296506 1.118034 0 
C 1.118034 -0.296506 1.000231 -0.580908 0.790569 -0.790569 
C 0.580908 -1.000231 0.296506 -1.118034 0 -1.118034 
C -0.296506 -1.118034 -0.580908 -1.000231 -0.790569 -0.790569 
C -1.000231 -0.580908 -1.118034 -0.296506 -1.118034 0 
C -1.118034 0.296506 -1.000231 0.580908 -0.790569 0.790569 
C -0.580908 1.000231 -0.296506 1.118034 0 1.118034 
z
" id="mb08e71cdee" style="stroke:#000000;"/>
    </defs>
    <g clip-path="url(#p3d28465b20)">
     <use style="stroke:#000000;" x="379.622970831" xlink:href="#mb08e71cdee" y="124.040484857"/>
     <use style="stroke:#000000;" x="248.71570596" xlink:href="#mb08e71cdee" y="113.275364896"/>
     <use style="stroke:#000000;" x="330.482707912" xlink:href="#mb08e71cdee" y="157.026721986"/>
     <use style="stroke:#000000;" x="222.611444548" xlink:href="#mb08e71cdee" y="134.352504477"/>
     <use style="stroke:#000000;" x="338.736347626" xlink:href="#mb08e71cdee" y="215.645190814"/>
     <use style="stroke:#000000;" x="288.450690624" xlink:href="#mb08e71cdee" y="139.275483966"/>
     <use style="stroke:#000000;" x="303.837986771" xlink:href="#mb08e71cdee" y="168.151767261"/>
     <use style="stroke:#000000;" x="243.4629936" xlink:href="#mb08e71cdee" y="146.608659226"/>
     <use style="stroke:#000000;" x="312.727306858" xlink:href="#mb08e71cdee" y="199.167517968"/>
     <use style="stroke:#000000;" x="278.310233611" xlink:href="#mb08e71cdee" y="161.99388559"/>
     <use style="stroke:#000000;" x="330.24469436" xlink:href="#mb08e71cdee" y="244.603365713"/>
     <use style="stroke:#000000;" x="322.541254539" xlink:href="#mb08e71cdee" y="216.704791751"/>
     <use style="stroke:#000000;" x="297.11523102" xlink:href="#mb08e71cdee" y="181.776319976"/>
     <use style="stroke:#000000;" x="226.32596854" xlink:href="#mb08e71cdee" y="161.836208492"/>
     <use style="stroke:#000000;" x="231.200386941" xlink:href="#mb08e71cdee" y="166.279375208"/>
     <use style="stroke:#000000;" x="220.039671644" xlink:href="#mb08e71cdee" y="161.635644893"/>
     <use style="stroke:#000000;" x="293.954656067" xlink:href="#mb08e71cdee" y="190.007360486"/>
     <use style="stroke:#000000;" x="205.291204315" xlink:href="#mb08e71cdee" y="163.410165282"/>
     <use style="stroke:#000000;" x="217.565412047" xlink:href="#mb08e71cdee" y="168.708575382"/>
     <use style="stroke:#000000;" x="224.202359467" xlink:href="#mb08e71cdee" y="174.195106897"/>
     <use style="stroke:#000000;" x="270.932711657" xlink:href="#mb08e71cdee" y="193.127317766"/>
     <use style="stroke:#000000;" x="222.213802809" xlink:href="#mb08e71cdee" y="184.605004844"/>
     <use style="stroke:#000000;" x="277.677153318" xlink:href="#mb08e71cdee" y="219.238600132"/>
     <use style="stroke:#000000;" x="286.101481133" xlink:href="#mb08e71cdee" y="225.303004145"/>
     <use style="stroke:#000000;" x="214.252984564" xlink:href="#mb08e71cdee" y="169.603272733"/>
     <use style="stroke:#000000;" x="231.762374929" xlink:href="#mb08e71cdee" y="195.236169841"/>
     <use style="stroke:#000000;" x="175.426321655" xlink:href="#mb08e71cdee" y="182.228316635"/>
     <use style="stroke:#000000;" x="235.141420783" xlink:href="#mb08e71cdee" y="196.37722609"/>
     <use style="stroke:#000000;" x="265.494484249" xlink:href="#mb08e71cdee" y="205.218689564"/>
     <use style="stroke:#000000;" x="277.807109462" xlink:href="#mb08e71cdee" y="229.600633031"/>
     <use style="stroke:#000000;" x="208.054324923" xlink:href="#mb08e71cdee" y="188.787713268"/>
     <use style="stroke:#000000;" x="168.078928207" xlink:href="#mb08e71cdee" y="179.34024288"/>
     <use style="stroke:#000000;" x="223.161406378" xlink:href="#mb08e71cdee" y="195.85544897"/>
     <use style="stroke:#000000;" x="206.18521205" xlink:href="#mb08e71cdee" y="192.183844655"/>
     <use style="stroke:#000000;" x="250.678719071" xlink:href="#mb08e71cdee" y="208.100228037"/>
     <use style="stroke:#000000;" x="255.156141737" xlink:href="#mb08e71cdee" y="215.047768605"/>
     <use style="stroke:#000000;" x="243.905370612" xlink:href="#mb08e71cdee" y="207.086140582"/>
     <use style="stroke:#000000;" x="263.798659344" xlink:href="#mb08e71cdee" y="217.188608464"/>
     <use style="stroke:#000000;" x="209.989250337" xlink:href="#mb08e71cdee" y="195.86459549"/>
     <use style="stroke:#000000;" x="187.061559521" xlink:href="#mb08e71cdee" y="193.215042702"/>
     <use style="stroke:#000000;" x="260.808862196" xlink:href="#mb08e71cdee" y="257.626600592"/>
     <use style="stroke:#000000;" x="252.549382865" xlink:href="#mb08e71cdee" y="225.513116975"/>
     <use style="stroke:#000000;" x="179.292756207" xlink:href="#mb08e71cdee" y="192.192223"/>
     <use style="stroke:#000000;" x="197.780111253" xlink:href="#mb08e71cdee" y="197.542687611"/>
     <use style="stroke:#000000;" x="177.507853501" xlink:href="#mb08e71cdee" y="195.724917678"/>
     <use style="stroke:#000000;" x="234.16049125" xlink:href="#mb08e71cdee" y="257.289146025"/>
     <use style="stroke:#000000;" x="198.562737665" xlink:href="#mb08e71cdee" y="203.404940009"/>
     <use style="stroke:#000000;" x="232.418011365" xlink:href="#mb08e71cdee" y="225.819687047"/>
     <use style="stroke:#000000;" x="202.711309524" xlink:href="#mb08e71cdee" y="222.57953436"/>
     <use style="stroke:#000000;" x="237.89986549" xlink:href="#mb08e71cdee" y="259.154246326"/>
     <use style="stroke:#000000;" x="249.573368396" xlink:href="#mb08e71cdee" y="273.260869071"/>
     <use style="stroke:#000000;" x="239.366616367" xlink:href="#mb08e71cdee" y="260.710531735"/>
     <use style="stroke:#000000;" x="248.289505964" xlink:href="#mb08e71cdee" y="268.336813992"/>
     <use style="stroke:#000000;" x="246.087908474" xlink:href="#mb08e71cdee" y="262.872047776"/>
     <use style="stroke:#000000;" x="196.368984762" xlink:href="#mb08e71cdee" y="226.112480916"/>
     <use style="stroke:#000000;" x="240.824065406" xlink:href="#mb08e71cdee" y="272.387498384"/>
     <use style="stroke:#000000;" x="186.508616851" xlink:href="#mb08e71cdee" y="214.825028309"/>
     <use style="stroke:#000000;" x="177.39572689" xlink:href="#mb08e71cdee" y="200.246165797"/>
     <use style="stroke:#000000;" x="231.072174736" xlink:href="#mb08e71cdee" y="252.602723803"/>
     <use style="stroke:#000000;" x="228.925533145" xlink:href="#mb08e71cdee" y="240.761574476"/>
     <use style="stroke:#000000;" x="242.704890457" xlink:href="#mb08e71cdee" y="304.276927838"/>
     <use style="stroke:#000000;" x="238.508943985" xlink:href="#mb08e71cdee" y="271.147759576"/>
     <use style="stroke:#000000;" x="192.130638662" xlink:href="#mb08e71cdee" y="246.523972894"/>
     <use style="stroke:#000000;" x="235.326661024" xlink:href="#mb08e71cdee" y="351.497764053"/>
     <use style="stroke:#000000;" x="190.567840683" xlink:href="#mb08e71cdee" y="229.138389815"/>
     <use style="stroke:#000000;" x="175.045011952" xlink:href="#mb08e71cdee" y="202.276283954"/>
     <use style="stroke:#000000;" x="182.024204677" xlink:href="#mb08e71cdee" y="220.021744461"/>
     <use style="stroke:#000000;" x="211.09386788" xlink:href="#mb08e71cdee" y="254.198832788"/>
     <use style="stroke:#000000;" x="204.387174529" xlink:href="#mb08e71cdee" y="251.943749971"/>
     <use style="stroke:#000000;" x="227.229494868" xlink:href="#mb08e71cdee" y="267.520667999"/>
     <use style="stroke:#000000;" x="229.770311415" xlink:href="#mb08e71cdee" y="286.103760727"/>
     <use style="stroke:#000000;" x="189.646084009" xlink:href="#mb08e71cdee" y="250.692743163"/>
     <use style="stroke:#000000;" x="221.088318488" xlink:href="#mb08e71cdee" y="271.616071969"/>
     <use style="stroke:#000000;" x="187.482323599" xlink:href="#mb08e71cdee" y="229.93877246"/>
     <use style="stroke:#000000;" x="179.804153424" xlink:href="#mb08e71cdee" y="224.120404374"/>
     <use style="stroke:#000000;" x="169.210895032" xlink:href="#mb08e71cdee" y="216.371882865"/>
     <use style="stroke:#000000;" x="176.853073461" xlink:href="#mb08e71cdee" y="221.873920567"/>
     <use style="stroke:#000000;" x="173.700342089" xlink:href="#mb08e71cdee" y="219.189314967"/>
     <use style="stroke:#000000;" x="205.967151084" xlink:href="#mb08e71cdee" y="270.108802948"/>
     <use style="stroke:#000000;" x="193.287507932" xlink:href="#mb08e71cdee" y="268.461698324"/>
     <use style="stroke:#000000;" x="169.267971788" xlink:href="#mb08e71cdee" y="216.606462062"/>
     <use style="stroke:#000000;" x="187.670630912" xlink:href="#mb08e71cdee" y="256.980778334"/>
     <use style="stroke:#000000;" x="212.826228689" xlink:href="#mb08e71cdee" y="298.337529881"/>
     <use style="stroke:#000000;" x="178.817343908" xlink:href="#mb08e71cdee" y="231.216071777"/>
     <use style="stroke:#000000;" x="185.768315877" xlink:href="#mb08e71cdee" y="245.397149016"/>
     <use style="stroke:#000000;" x="179.203202801" xlink:href="#mb08e71cdee" y="243.812288529"/>
     <use style="stroke:#000000;" x="176.193274472" xlink:href="#mb08e71cdee" y="227.420045391"/>
     <use style="stroke:#000000;" x="220.91098721" xlink:href="#mb08e71cdee" y="348.251465555"/>
     <use style="stroke:#000000;" x="219.665477396" xlink:href="#mb08e71cdee" y="320.934610436"/>
     <use style="stroke:#000000;" x="173.615285946" xlink:href="#mb08e71cdee" y="227.178479044"/>
     <use style="stroke:#000000;" x="173.233544835" xlink:href="#mb08e71cdee" y="223.292557418"/>
     <use style="stroke:#000000;" x="210.277445199" xlink:href="#mb08e71cdee" y="277.966086477"/>
     <use style="stroke:#000000;" x="166.095068999" xlink:href="#mb08e71cdee" y="218.966234474"/>
     <use style="stroke:#000000;" x="194.508044867" xlink:href="#mb08e71cdee" y="270.605738427"/>
     <use style="stroke:#000000;" x="185.425675533" xlink:href="#mb08e71cdee" y="267.027581532"/>
     <use style="stroke:#000000;" x="214.867740112" xlink:href="#mb08e71cdee" y="339.14192486"/>
     <use style="stroke:#000000;" x="176.267683467" xlink:href="#mb08e71cdee" y="243.35080685"/>
     <use style="stroke:#000000;" x="185.32880275" xlink:href="#mb08e71cdee" y="248.887639084"/>
     <use style="stroke:#000000;" x="179.924978928" xlink:href="#mb08e71cdee" y="247.75365467"/>
     <use style="stroke:#000000;" x="179.003015113" xlink:href="#mb08e71cdee" y="246.950139221"/>
     <use style="stroke:#000000;" x="208.635012727" xlink:href="#mb08e71cdee" y="298.42960038"/>
     <use style="stroke:#000000;" x="163.402584697" xlink:href="#mb08e71cdee" y="516.895300033"/>
     <use style="stroke:#000000;" x="175.932609675" xlink:href="#mb08e71cdee" y="342.618076454"/>
     <use style="stroke:#000000;" x="186.507556191" xlink:href="#mb08e71cdee" y="197.175679873"/>
     <use style="stroke:#000000;" x="227.656626432" xlink:href="#mb08e71cdee" y="254.034029306"/>
     <use style="stroke:#000000;" x="165.990483392" xlink:href="#mb08e71cdee" y="295.270733415"/>
     <use style="stroke:#000000;" x="272.364805191" xlink:href="#mb08e71cdee" y="284.18422552"/>
     <use style="stroke:#000000;" x="175.819535952" xlink:href="#mb08e71cdee" y="360.196890074"/>
     <use style="stroke:#000000;" x="180.93600342" xlink:href="#mb08e71cdee" y="258.069887535"/>
     <use style="stroke:#000000;" x="251.571689849" xlink:href="#mb08e71cdee" y="264.601686763"/>
     <use style="stroke:#000000;" x="199.938803817" xlink:href="#mb08e71cdee" y="220.359865835"/>
     <use style="stroke:#000000;" x="180.466452742" xlink:href="#mb08e71cdee" y="221.684195816"/>
     <use style="stroke:#000000;" x="183.662026004" xlink:href="#mb08e71cdee" y="306.630611157"/>
     <use style="stroke:#000000;" x="171.332134941" xlink:href="#mb08e71cdee" y="272.272172648"/>
     <use style="stroke:#000000;" x="166.603205358" xlink:href="#mb08e71cdee" y="360.860548248"/>
     <use style="stroke:#000000;" x="177.548132876" xlink:href="#mb08e71cdee" y="191.170331579"/>
     <use style="stroke:#000000;" x="172.756622083" xlink:href="#mb08e71cdee" y="243.262586989"/>
     <use style="stroke:#000000;" x="182.779253518" xlink:href="#mb08e71cdee" y="250.335608047"/>
     <use style="stroke:#000000;" x="232.075039183" xlink:href="#mb08e71cdee" y="288.191752927"/>
     <use style="stroke:#000000;" x="315.283055321" xlink:href="#mb08e71cdee" y="213.507941989"/>
     <use style="stroke:#000000;" x="179.069503353" xlink:href="#mb08e71cdee" y="308.928325186"/>
     <use style="stroke:#000000;" x="194.765808061" xlink:href="#mb08e71cdee" y="197.281875306"/>
     <use style="stroke:#000000;" x="260.97288659" xlink:href="#mb08e71cdee" y="224.830606515"/>
     <use style="stroke:#000000;" x="170.689357196" xlink:href="#mb08e71cdee" y="270.770232877"/>
     <use style="stroke:#000000;" x="165.334181267" xlink:href="#mb08e71cdee" y="402.157746881"/>
     <use style="stroke:#000000;" x="170.90637322" xlink:href="#mb08e71cdee" y="241.014707852"/>
     <use style="stroke:#000000;" x="164.318727401" xlink:href="#mb08e71cdee" y="273.426600895"/>
     <use style="stroke:#000000;" x="167.339526177" xlink:href="#mb08e71cdee" y="396.328141237"/>
     <use style="stroke:#000000;" x="244.026328834" xlink:href="#mb08e71cdee" y="134.071233638"/>
     <use style="stroke:#000000;" x="190.123159817" xlink:href="#mb08e71cdee" y="243.323054691"/>
     <use style="stroke:#000000;" x="166.135365268" xlink:href="#mb08e71cdee" y="384.16347028"/>
     <use style="stroke:#000000;" x="204.734973097" xlink:href="#mb08e71cdee" y="153.157825582"/>
     <use style="stroke:#000000;" x="181.031657716" xlink:href="#mb08e71cdee" y="204.2378544"/>
     <use style="stroke:#000000;" x="169.300731073" xlink:href="#mb08e71cdee" y="390.718291734"/>
     <use style="stroke:#000000;" x="171.991083283" xlink:href="#mb08e71cdee" y="330.98356548"/>
     <use style="stroke:#000000;" x="181.242006258" xlink:href="#mb08e71cdee" y="215.591286057"/>
     <use style="stroke:#000000;" x="206.632721355" xlink:href="#mb08e71cdee" y="272.356364721"/>
     <use style="stroke:#000000;" x="175.032498498" xlink:href="#mb08e71cdee" y="285.895838346"/>
     <use style="stroke:#000000;" x="210.920538137" xlink:href="#mb08e71cdee" y="247.989307632"/>
     <use style="stroke:#000000;" x="171.943570529" xlink:href="#mb08e71cdee" y="319.342350464"/>
     <use style="stroke:#000000;" x="168.100420929" xlink:href="#mb08e71cdee" y="445.706000861"/>
     <use style="stroke:#000000;" x="166.664428203" xlink:href="#mb08e71cdee" y="373.428901487"/>
     <use style="stroke:#000000;" x="284.165666431" xlink:href="#mb08e71cdee" y="98.0314477735"/>
     <use style="stroke:#000000;" x="170.964792767" xlink:href="#mb08e71cdee" y="215.991630645"/>
     <use style="stroke:#000000;" x="171.161177938" xlink:href="#mb08e71cdee" y="328.073021816"/>
     <use style="stroke:#000000;" x="190.3541252" xlink:href="#mb08e71cdee" y="321.767519124"/>
     <use style="stroke:#000000;" x="165.671567658" xlink:href="#mb08e71cdee" y="283.722615739"/>
     <use style="stroke:#000000;" x="169.104408164" xlink:href="#mb08e71cdee" y="277.123475599"/>
     <use style="stroke:#000000;" x="193.398260003" xlink:href="#mb08e71cdee" y="205.049209119"/>
     <use style="stroke:#000000;" x="186.736144324" xlink:href="#mb08e71cdee" y="372.609337201"/>
    </g>
   </g>
   <g id="patch_3">
    <path d="M 72 388.8 
L 72 43.2 
" style="fill:none;stroke:#000000;stroke-linecap:square;stroke-linejoin:miter;"/>
   </g>
   <g id="patch_4">
    <path d="M 72 388.8 
L 518.4 388.8 
" style="fill:none;stroke:#000000;stroke-linecap:square;stroke-linejoin:miter;"/>
   </g>
   <g id="patch_5">
    <path d="M 518.4 388.8 
L 518.4 43.2 
" style="fill:none;stroke:#000000;stroke-linecap:square;stroke-linejoin:miter;"/>
   </g>
   <g id="patch_6">
    <path d="M 72 43.2 
L 518.4 43.2 
" style="fill:none;stroke:#000000;stroke-linecap:square;stroke-linejoin:miter;"/>
   </g>
   <g id="matplotlib.axis_1">
    <g id="xtick_1">
     <g id="line2d_1">
      <defs>
       <path d="M 0 0 
L 0 -4 
" id="ma5d45e6cb9" style="stroke:#000000;stroke-width:0.5;"/>
      </defs>
      <g>
       <use style="stroke:#000000;stroke-width:0.5;" x="72.0" xlink:href="#ma5d45e6cb9" y="388.8"/>
      </g>
     </g>
     <g id="line2d_2">
      <defs>
       <path d="M 0 0 
L 0 4 
" id="m5bedb08cc3" style="stroke:#000000;stroke-width:0.5;"/>
      </defs>
      <g>
       <use style="stroke:#000000;stroke-width:0.5;" x="72.0" xlink:href="#m5bedb08cc3" y="43.2"/>
      </g>
     </g>
     <g id="text_1">
      <!-- −5 -->
      <defs>
       <path d="M 10.59375 35.5 
L 73.1875 35.5 
L 73.1875 27.203125 
L 10.59375 27.203125 
z
" id="BitstreamVeraSans-Roman-2212"/>
       <path d="M 10.796875 72.90625 
L 49.515625 72.90625 
L 49.515625 64.59375 
L 19.828125 64.59375 
L 19.828125 46.734375 
Q 21.96875 47.46875 24.109375 47.828125 
Q 26.265625 48.1875 28.421875 48.1875 
Q 40.625 48.1875 47.75 41.5 
Q 54.890625 34.8125 54.890625 23.390625 
Q 54.890625 11.625 47.5625 5.09375 
Q 40.234375 -1.421875 26.90625 -1.421875 
Q 22.3125 -1.421875 17.546875 -0.640625 
Q 12.796875 0.140625 7.71875 1.703125 
L 7.71875 11.625 
Q 12.109375 9.234375 16.796875 8.0625 
Q 21.484375 6.890625 26.703125 6.890625 
Q 35.15625 6.890625 40.078125 11.328125 
Q 45.015625 15.765625 45.015625 23.390625 
Q 45.015625 31 40.078125 35.4375 
Q 35.15625 39.890625 26.703125 39.890625 
Q 22.75 39.890625 18.8125 39.015625 
Q 14.890625 38.140625 10.796875 36.28125 
z
" id="BitstreamVeraSans-Roman-35"/>
      </defs>
      <g transform="translate(63.1546875 401.918125)scale(0.12 -0.12)">
       <use xlink:href="#BitstreamVeraSans-Roman-2212"/>
       <use x="83.7890625" xlink:href="#BitstreamVeraSans-Roman-35"/>
      </g>
     </g>
    </g>
    <g id="xtick_2">
     <g id="line2d_3">
      <g>
       <use style="stroke:#000000;stroke-width:0.5;" x="161.28" xlink:href="#ma5d45e6cb9" y="388.8"/>
      </g>
     </g>
     <g id="line2d_4">
      <g>
       <use style="stroke:#000000;stroke-width:0.5;" x="161.28" xlink:href="#m5bedb08cc3" y="43.2"/>
      </g>
     </g>
     <g id="text_2">
      <!-- 0 -->
      <defs>
       <path d="M 31.78125 66.40625 
Q 24.171875 66.40625 20.328125 58.90625 
Q 16.5 51.421875 16.5 36.375 
Q 16.5 21.390625 20.328125 13.890625 
Q 24.171875 6.390625 31.78125 6.390625 
Q 39.453125 6.390625 43.28125 13.890625 
Q 47.125 21.390625 47.125 36.375 
Q 47.125 51.421875 43.28125 58.90625 
Q 39.453125 66.40625 31.78125 66.40625 
M 31.78125 74.21875 
Q 44.046875 74.21875 50.515625 64.515625 
Q 56.984375 54.828125 56.984375 36.375 
Q 56.984375 17.96875 50.515625 8.265625 
Q 44.046875 -1.421875 31.78125 -1.421875 
Q 19.53125 -1.421875 13.0625 8.265625 
Q 6.59375 17.96875 6.59375 36.375 
Q 6.59375 54.828125 13.0625 64.515625 
Q 19.53125 74.21875 31.78125 74.21875 
" id="BitstreamVeraSans-Roman-30"/>
      </defs>
      <g transform="translate(157.4625 401.918125)scale(0.12 -0.12)">
       <use xlink:href="#BitstreamVeraSans-Roman-30"/>
      </g>
     </g>
    </g>
    <g id="xtick_3">
     <g id="line2d_5">
      <g>
       <use style="stroke:#000000;stroke-width:0.5;" x="250.56" xlink:href="#ma5d45e6cb9" y="388.8"/>
      </g>
     </g>
     <g id="line2d_6">
      <g>
       <use style="stroke:#000000;stroke-width:0.5;" x="250.56" xlink:href="#m5bedb08cc3" y="43.2"/>
      </g>
     </g>
     <g id="text_3">
      <!-- 5 -->
      <g transform="translate(246.7425 401.918125)scale(0.12 -0.12)">
       <use xlink:href="#BitstreamVeraSans-Roman-35"/>
      </g>
     </g>
    </g>
    <g id="xtick_4">
     <g id="line2d_7">
      <g>
       <use style="stroke:#000000;stroke-width:0.5;" x="339.84" xlink:href="#ma5d45e6cb9" y="388.8"/>
      </g>
     </g>
     <g id="line2d_8">
      <g>
       <use style="stroke:#000000;stroke-width:0.5;" x="339.84" xlink:href="#m5bedb08cc3" y="43.2"/>
      </g>
     </g>
     <g id="text_4">
      <!-- 10 -->
      <defs>
       <path d="M 12.40625 8.296875 
L 28.515625 8.296875 
L 28.515625 63.921875 
L 10.984375 60.40625 
L 10.984375 69.390625 
L 28.421875 72.90625 
L 38.28125 72.90625 
L 38.28125 8.296875 
L 54.390625 8.296875 
L 54.390625 0 
L 12.40625 0 
z
" id="BitstreamVeraSans-Roman-31"/>
      </defs>
      <g transform="translate(332.205 401.918125)scale(0.12 -0.12)">
       <use xlink:href="#BitstreamVeraSans-Roman-31"/>
       <use x="63.623046875" xlink:href="#BitstreamVeraSans-Roman-30"/>
      </g>
     </g>
    </g>
    <g id="xtick_5">
     <g id="line2d_9">
      <g>
       <use style="stroke:#000000;stroke-width:0.5;" x="429.12" xlink:href="#ma5d45e6cb9" y="388.8"/>
      </g>
     </g>
     <g id="line2d_10">
      <g>
       <use style="stroke:#000000;stroke-width:0.5;" x="429.12" xlink:href="#m5bedb08cc3" y="43.2"/>
      </g>
     </g>
     <g id="text_5">
      <!-- 15 -->
      <g transform="translate(421.485 401.918125)scale(0.12 -0.12)">
       <use xlink:href="#BitstreamVeraSans-Roman-31"/>
       <use x="63.623046875" xlink:href="#BitstreamVeraSans-Roman-35"/>
      </g>
     </g>
    </g>
    <g id="xtick_6">
     <g id="line2d_11">
      <g>
       <use style="stroke:#000000;stroke-width:0.5;" x="518.4" xlink:href="#ma5d45e6cb9" y="388.8"/>
      </g>
     </g>
     <g id="line2d_12">
      <g>
       <use style="stroke:#000000;stroke-width:0.5;" x="518.4" xlink:href="#m5bedb08cc3" y="43.2"/>
      </g>
     </g>
     <g id="text_6">
      <!-- 20 -->
      <defs>
       <path d="M 19.1875 8.296875 
L 53.609375 8.296875 
L 53.609375 0 
L 7.328125 0 
L 7.328125 8.296875 
Q 12.9375 14.109375 22.625 23.890625 
Q 32.328125 33.6875 34.8125 36.53125 
Q 39.546875 41.84375 41.421875 45.53125 
Q 43.3125 49.21875 43.3125 52.78125 
Q 43.3125 58.59375 39.234375 62.25 
Q 35.15625 65.921875 28.609375 65.921875 
Q 23.96875 65.921875 18.8125 64.3125 
Q 13.671875 62.703125 7.8125 59.421875 
L 7.8125 69.390625 
Q 13.765625 71.78125 18.9375 73 
Q 24.125 74.21875 28.421875 74.21875 
Q 39.75 74.21875 46.484375 68.546875 
Q 53.21875 62.890625 53.21875 53.421875 
Q 53.21875 48.921875 51.53125 44.890625 
Q 49.859375 40.875 45.40625 35.40625 
Q 44.1875 33.984375 37.640625 27.21875 
Q 31.109375 20.453125 19.1875 8.296875 
" id="BitstreamVeraSans-Roman-32"/>
      </defs>
      <g transform="translate(510.765 401.918125)scale(0.12 -0.12)">
       <use xlink:href="#BitstreamVeraSans-Roman-32"/>
       <use x="63.623046875" xlink:href="#BitstreamVeraSans-Roman-30"/>
      </g>
     </g>
    </g>
   </g>
   <g id="matplotlib.axis_2">
    <g id="ytick_1">
     <g id="line2d_13">
      <defs>
       <path d="M 0 0 
L 4 0 
" id="mf6bc27522b" style="stroke:#000000;stroke-width:0.5;"/>
      </defs>
      <g>
       <use style="stroke:#000000;stroke-width:0.5;" x="72.0" xlink:href="#mf6bc27522b" y="388.8"/>
      </g>
     </g>
     <g id="line2d_14">
      <defs>
       <path d="M 0 0 
L -4 0 
" id="m52a4e2df77" style="stroke:#000000;stroke-width:0.5;"/>
      </defs>
      <g>
       <use style="stroke:#000000;stroke-width:0.5;" x="518.4" xlink:href="#m52a4e2df77" y="388.8"/>
      </g>
     </g>
     <g id="text_7">
      <!-- −30 -->
      <defs>
       <path d="M 40.578125 39.3125 
Q 47.65625 37.796875 51.625 33 
Q 55.609375 28.21875 55.609375 21.1875 
Q 55.609375 10.40625 48.1875 4.484375 
Q 40.765625 -1.421875 27.09375 -1.421875 
Q 22.515625 -1.421875 17.65625 -0.515625 
Q 12.796875 0.390625 7.625 2.203125 
L 7.625 11.71875 
Q 11.71875 9.328125 16.59375 8.109375 
Q 21.484375 6.890625 26.8125 6.890625 
Q 36.078125 6.890625 40.9375 10.546875 
Q 45.796875 14.203125 45.796875 21.1875 
Q 45.796875 27.640625 41.28125 31.265625 
Q 36.765625 34.90625 28.71875 34.90625 
L 20.21875 34.90625 
L 20.21875 43.015625 
L 29.109375 43.015625 
Q 36.375 43.015625 40.234375 45.921875 
Q 44.09375 48.828125 44.09375 54.296875 
Q 44.09375 59.90625 40.109375 62.90625 
Q 36.140625 65.921875 28.71875 65.921875 
Q 24.65625 65.921875 20.015625 65.03125 
Q 15.375 64.15625 9.8125 62.3125 
L 9.8125 71.09375 
Q 15.4375 72.65625 20.34375 73.4375 
Q 25.25 74.21875 29.59375 74.21875 
Q 40.828125 74.21875 47.359375 69.109375 
Q 53.90625 64.015625 53.90625 55.328125 
Q 53.90625 49.265625 50.4375 45.09375 
Q 46.96875 40.921875 40.578125 39.3125 
" id="BitstreamVeraSans-Roman-33"/>
      </defs>
      <g transform="translate(42.674375 392.11125)scale(0.12 -0.12)">
       <use xlink:href="#BitstreamVeraSans-Roman-2212"/>
       <use x="83.7890625" xlink:href="#BitstreamVeraSans-Roman-33"/>
       <use x="147.412109375" xlink:href="#BitstreamVeraSans-Roman-30"/>
      </g>
     </g>
    </g>
    <g id="ytick_2">
     <g id="line2d_15">
      <g>
       <use style="stroke:#000000;stroke-width:0.5;" x="72.0" xlink:href="#mf6bc27522b" y="345.6"/>
      </g>
     </g>
     <g id="line2d_16">
      <g>
       <use style="stroke:#000000;stroke-width:0.5;" x="518.4" xlink:href="#m52a4e2df77" y="345.6"/>
      </g>
     </g>
     <g id="text_8">
      <!-- −25 -->
      <g transform="translate(42.674375 348.91125)scale(0.12 -0.12)">
       <use xlink:href="#BitstreamVeraSans-Roman-2212"/>
       <use x="83.7890625" xlink:href="#BitstreamVeraSans-Roman-32"/>
       <use x="147.412109375" xlink:href="#BitstreamVeraSans-Roman-35"/>
      </g>
     </g>
    </g>
    <g id="ytick_3">
     <g id="line2d_17">
      <g>
       <use style="stroke:#000000;stroke-width:0.5;" x="72.0" xlink:href="#mf6bc27522b" y="302.4"/>
      </g>
     </g>
     <g id="line2d_18">
      <g>
       <use style="stroke:#000000;stroke-width:0.5;" x="518.4" xlink:href="#m52a4e2df77" y="302.4"/>
      </g>
     </g>
     <g id="text_9">
      <!-- −20 -->
      <g transform="translate(42.674375 305.71125)scale(0.12 -0.12)">
       <use xlink:href="#BitstreamVeraSans-Roman-2212"/>
       <use x="83.7890625" xlink:href="#BitstreamVeraSans-Roman-32"/>
       <use x="147.412109375" xlink:href="#BitstreamVeraSans-Roman-30"/>
      </g>
     </g>
    </g>
    <g id="ytick_4">
     <g id="line2d_19">
      <g>
       <use style="stroke:#000000;stroke-width:0.5;" x="72.0" xlink:href="#mf6bc27522b" y="259.2"/>
      </g>
     </g>
     <g id="line2d_20">
      <g>
       <use style="stroke:#000000;stroke-width:0.5;" x="518.4" xlink:href="#m52a4e2df77" y="259.2"/>
      </g>
     </g>
     <g id="text_10">
      <!-- −15 -->
      <g transform="translate(42.674375 262.51125)scale(0.12 -0.12)">
       <use xlink:href="#BitstreamVeraSans-Roman-2212"/>
       <use x="83.7890625" xlink:href="#BitstreamVeraSans-Roman-31"/>
       <use x="147.412109375" xlink:href="#BitstreamVeraSans-Roman-35"/>
      </g>
     </g>
    </g>
    <g id="ytick_5">
     <g id="line2d_21">
      <g>
       <use style="stroke:#000000;stroke-width:0.5;" x="72.0" xlink:href="#mf6bc27522b" y="216.0"/>
      </g>
     </g>
     <g id="line2d_22">
      <g>
       <use style="stroke:#000000;stroke-width:0.5;" x="518.4" xlink:href="#m52a4e2df77" y="216.0"/>
      </g>
     </g>
     <g id="text_11">
      <!-- −10 -->
      <g transform="translate(42.674375 219.31125)scale(0.12 -0.12)">
       <use xlink:href="#BitstreamVeraSans-Roman-2212"/>
       <use x="83.7890625" xlink:href="#BitstreamVeraSans-Roman-31"/>
       <use x="147.412109375" xlink:href="#BitstreamVeraSans-Roman-30"/>
      </g>
     </g>
    </g>
    <g id="ytick_6">
     <g id="line2d_23">
      <g>
       <use style="stroke:#000000;stroke-width:0.5;" x="72.0" xlink:href="#mf6bc27522b" y="172.8"/>
      </g>
     </g>
     <g id="line2d_24">
      <g>
       <use style="stroke:#000000;stroke-width:0.5;" x="518.4" xlink:href="#m52a4e2df77" y="172.8"/>
      </g>
     </g>
     <g id="text_12">
      <!-- −5 -->
      <g transform="translate(50.309375 176.11125)scale(0.12 -0.12)">
       <use xlink:href="#BitstreamVeraSans-Roman-2212"/>
       <use x="83.7890625" xlink:href="#BitstreamVeraSans-Roman-35"/>
      </g>
     </g>
    </g>
    <g id="ytick_7">
     <g id="line2d_25">
      <g>
       <use style="stroke:#000000;stroke-width:0.5;" x="72.0" xlink:href="#mf6bc27522b" y="129.6"/>
      </g>
     </g>
     <g id="line2d_26">
      <g>
       <use style="stroke:#000000;stroke-width:0.5;" x="518.4" xlink:href="#m52a4e2df77" y="129.6"/>
      </g>
     </g>
     <g id="text_13">
      <!-- 0 -->
      <g transform="translate(60.365 132.91125)scale(0.12 -0.12)">
       <use xlink:href="#BitstreamVeraSans-Roman-30"/>
      </g>
     </g>
    </g>
    <g id="ytick_8">
     <g id="line2d_27">
      <g>
       <use style="stroke:#000000;stroke-width:0.5;" x="72.0" xlink:href="#mf6bc27522b" y="86.4"/>
      </g>
     </g>
     <g id="line2d_28">
      <g>
       <use style="stroke:#000000;stroke-width:0.5;" x="518.4" xlink:href="#m52a4e2df77" y="86.4"/>
      </g>
     </g>
     <g id="text_14">
      <!-- 5 -->
      <g transform="translate(60.365 89.71125)scale(0.12 -0.12)">
       <use xlink:href="#BitstreamVeraSans-Roman-35"/>
      </g>
     </g>
    </g>
    <g id="ytick_9">
     <g id="line2d_29">
      <g>
       <use style="stroke:#000000;stroke-width:0.5;" x="72.0" xlink:href="#mf6bc27522b" y="43.2"/>
      </g>
     </g>
     <g id="line2d_30">
      <g>
       <use style="stroke:#000000;stroke-width:0.5;" x="518.4" xlink:href="#m52a4e2df77" y="43.2"/>
      </g>
     </g>
     <g id="text_15">
      <!-- 10 -->
      <g transform="translate(52.73 46.51125)scale(0.12 -0.12)">
       <use xlink:href="#BitstreamVeraSans-Roman-31"/>
       <use x="63.623046875" xlink:href="#BitstreamVeraSans-Roman-30"/>
      </g>
     </g>
    </g>
   </g>
  </g>
 </g>
 <defs>
  <clipPath id="p3d28465b20">
   <rect height="345.6" width="446.4" x="72.0" y="43.2"/>
  </clipPath>
 </defs>
</svg>
