<?xml version="1.0" encoding="utf-8" standalone="no"?>
<!DOCTYPE svg PUBLIC "-//W3C//DTD SVG 1.1//EN"
  "http://www.w3.org/Graphics/SVG/1.1/DTD/svg11.dtd">
<!-- Created with matplotlib (http://matplotlib.org/) -->
<svg height="432pt" version="1.1" viewBox="0 0 576 432" width="576pt" xmlns="http://www.w3.org/2000/svg" xmlns:xlink="http://www.w3.org/1999/xlink">
 <defs>
  <style type="text/css">
*{stroke-linecap:butt;stroke-linejoin:round;stroke-miterlimit:100000;}
  </style>
 </defs>
 <g id="figure_1">
  <g id="patch_1">
   <path d="M 0 432 
L 576 432 
L 576 0 
L 0 0 
z
" style="fill:#ffffff;"/>
  </g>
  <g id="axes_1">
   <g id="patch_2">
    <path d="M 72 388.8 
L 518.4 388.8 
L 518.4 43.2 
L 72 43.2 
z
" style="fill:#ffffff;"/>
   </g>
   <g id="PathCollection_1">
    <defs>
     <path d="M 0 2.236068 
C 0.593012 2.236068 1.161816 2.000462 1.581139 1.581139 
C 2.000462 1.161816 2.236068 0.593012 2.236068 0 
C 2.236068 -0.593012 2.000462 -1.161816 1.581139 -1.581139 
C 1.161816 -2.000462 0.593012 -2.236068 0 -2.236068 
C -0.593012 -2.236068 -1.161816 -2.000462 -1.581139 -1.581139 
C -2.000462 -1.161816 -2.236068 -0.593012 -2.236068 0 
C -2.236068 0.593012 -2.000462 1.161816 -1.581139 1.581139 
C -1.161816 2.000462 -0.593012 2.236068 0 2.236068 
z
" id="m4a52e4db34" style="stroke:#000000;"/>
    </defs>
    <g clip-path="url(#pb7226beebb)">
     <use style="fill:#0000ff;stroke:#000000;" x="479.154777245" xlink:href="#m4a52e4db34" y="118.285522032"/>
     <use style="fill:#0000ff;stroke:#000000;" x="371.020996056" xlink:href="#m4a52e4db34" y="90.5915518445"/>
     <use style="fill:#0000ff;stroke:#000000;" x="328.225381947" xlink:href="#m4a52e4db34" y="57.7403155701"/>
     <use style="fill:#0000ff;stroke:#000000;" x="383.451877073" xlink:href="#m4a52e4db34" y="108.721107182"/>
     <use style="fill:#0000ff;stroke:#000000;" x="485.44845702" xlink:href="#m4a52e4db34" y="150.497191241"/>
     <use style="fill:#0000ff;stroke:#000000;" x="428.810026495" xlink:href="#m4a52e4db34" y="149.323722785"/>
     <use style="fill:#0000ff;stroke:#000000;" x="343.437097322" xlink:href="#m4a52e4db34" y="111.876883264"/>
     <use style="fill:#0000ff;stroke:#000000;" x="379.622970831" xlink:href="#m4a52e4db34" y="124.040484857"/>
     <use style="fill:#0000ff;stroke:#000000;" x="355.896456153" xlink:href="#m4a52e4db34" y="121.746283386"/>
     <use style="fill:#0000ff;stroke:#000000;" x="393.63889258" xlink:href="#m4a52e4db34" y="131.485205094"/>
     <use style="fill:#0000ff;stroke:#000000;" x="284.165666431" xlink:href="#m4a52e4db34" y="98.0314477735"/>
     <use style="fill:#0000ff;stroke:#000000;" x="267.860282352" xlink:href="#m4a52e4db34" y="93.3712217108"/>
     <use style="fill:#0000ff;stroke:#000000;" x="286.195665384" xlink:href="#m4a52e4db34" y="102.710954695"/>
     <use style="fill:#0000ff;stroke:#000000;" x="346.258289041" xlink:href="#m4a52e4db34" y="163.787771452"/>
     <use style="fill:#0000ff;stroke:#000000;" x="297.647389107" xlink:href="#m4a52e4db34" y="120.795390985"/>
     <use style="fill:#0000ff;stroke:#000000;" x="345.509625877" xlink:href="#m4a52e4db34" y="150.1917353"/>
     <use style="fill:#0000ff;stroke:#000000;" x="377.62662639" xlink:href="#m4a52e4db34" y="183.345885371"/>
     <use style="fill:#0000ff;stroke:#000000;" x="273.899883634" xlink:href="#m4a52e4db34" y="113.698412498"/>
     <use style="fill:#0000ff;stroke:#000000;" x="336.533071002" xlink:href="#m4a52e4db34" y="129.536956922"/>
     <use style="fill:#0000ff;stroke:#000000;" x="343.921149028" xlink:href="#m4a52e4db34" y="144.244395799"/>
     <use style="fill:#0000ff;stroke:#000000;" x="272.56215806" xlink:href="#m4a52e4db34" y="103.64849428"/>
     <use style="fill:#0000ff;stroke:#000000;" x="303.946176682" xlink:href="#m4a52e4db34" y="121.428834654"/>
     <use style="fill:#0000ff;stroke:#000000;" x="344.242605218" xlink:href="#m4a52e4db34" y="151.516606537"/>
     <use style="fill:#0000ff;stroke:#000000;" x="278.401206302" xlink:href="#m4a52e4db34" y="127.506728153"/>
     <use style="fill:#0000ff;stroke:#000000;" x="372.365914308" xlink:href="#m4a52e4db34" y="194.501802679"/>
     <use style="fill:#0000ff;stroke:#000000;" x="374.633409418" xlink:href="#m4a52e4db34" y="215.145648125"/>
     <use style="fill:#0000ff;stroke:#000000;" x="305.520234416" xlink:href="#m4a52e4db34" y="134.430614037"/>
     <use style="fill:#0000ff;stroke:#000000;" x="295.993460951" xlink:href="#m4a52e4db34" y="130.452514946"/>
     <use style="fill:#0000ff;stroke:#000000;" x="331.849426374" xlink:href="#m4a52e4db34" y="144.37572605"/>
     <use style="fill:#0000ff;stroke:#000000;" x="267.520894756" xlink:href="#m4a52e4db34" y="107.058564433"/>
     <use style="fill:#0000ff;stroke:#000000;" x="341.87492782" xlink:href="#m4a52e4db34" y="185.489099245"/>
     <use style="fill:#0000ff;stroke:#000000;" x="275.383585445" xlink:href="#m4a52e4db34" y="128.239838177"/>
     <use style="fill:#0000ff;stroke:#000000;" x="337.121627833" xlink:href="#m4a52e4db34" y="160.399355465"/>
     <use style="fill:#0000ff;stroke:#000000;" x="330.482707912" xlink:href="#m4a52e4db34" y="157.026721986"/>
     <use style="fill:#0000ff;stroke:#000000;" x="337.656808893" xlink:href="#m4a52e4db34" y="170.628494341"/>
     <use style="fill:#0000ff;stroke:#000000;" x="359.578102656" xlink:href="#m4a52e4db34" y="203.255542492"/>
     <use style="fill:#0000ff;stroke:#000000;" x="331.397267823" xlink:href="#m4a52e4db34" y="158.968343832"/>
     <use style="fill:#0000ff;stroke:#000000;" x="282.111962619" xlink:href="#m4a52e4db34" y="133.973095403"/>
     <use style="fill:#0000ff;stroke:#000000;" x="367.471365547" xlink:href="#m4a52e4db34" y="253.150623327"/>
     <use style="fill:#0000ff;stroke:#000000;" x="288.450690624" xlink:href="#m4a52e4db34" y="139.275483966"/>
     <use style="fill:#0000ff;stroke:#000000;" x="248.71570596" xlink:href="#m4a52e4db34" y="113.275364896"/>
     <use style="fill:#0000ff;stroke:#000000;" x="322.223205373" xlink:href="#m4a52e4db34" y="149.050009665"/>
     <use style="fill:#0000ff;stroke:#000000;" x="297.085436117" xlink:href="#m4a52e4db34" y="148.448196545"/>
     <use style="fill:#0000ff;stroke:#000000;" x="262.453325648" xlink:href="#m4a52e4db34" y="118.72131926"/>
     <use style="fill:#0000ff;stroke:#000000;" x="320.852117967" xlink:href="#m4a52e4db34" y="165.955861323"/>
     <use style="fill:#0000ff;stroke:#000000;" x="247.92191542" xlink:href="#m4a52e4db34" y="114.198604957"/>
     <use style="fill:#0000ff;stroke:#000000;" x="324.321331786" xlink:href="#m4a52e4db34" y="168.756484883"/>
     <use style="fill:#0000ff;stroke:#000000;" x="329.259951175" xlink:href="#m4a52e4db34" y="182.071997566"/>
     <use style="fill:#0000ff;stroke:#000000;" x="356.264185437" xlink:href="#m4a52e4db34" y="203.982427935"/>
     <use style="fill:#0000ff;stroke:#000000;" x="264.221293989" xlink:href="#m4a52e4db34" y="137.58481335"/>
     <use style="fill:#0000ff;stroke:#000000;" x="270.222573312" xlink:href="#m4a52e4db34" y="143.081966595"/>
     <use style="fill:#0000ff;stroke:#000000;" x="248.104579236" xlink:href="#m4a52e4db34" y="135.627099712"/>
     <use style="fill:#0000ff;stroke:#000000;" x="288.074940503" xlink:href="#m4a52e4db34" y="144.629085651"/>
     <use style="fill:#0000ff;stroke:#000000;" x="300.707094035" xlink:href="#m4a52e4db34" y="154.793475859"/>
     <use style="fill:#0000ff;stroke:#000000;" x="309.326740175" xlink:href="#m4a52e4db34" y="173.630408157"/>
     <use style="fill:#0000ff;stroke:#000000;" x="240.824367275" xlink:href="#m4a52e4db34" y="118.270018685"/>
     <use style="fill:#0000ff;stroke:#000000;" x="303.837986771" xlink:href="#m4a52e4db34" y="168.151767261"/>
     <use style="fill:#0000ff;stroke:#000000;" x="326.98764319" xlink:href="#m4a52e4db34" y="196.191897148"/>
     <use style="fill:#0000ff;stroke:#000000;" x="316.750762234" xlink:href="#m4a52e4db34" y="183.596589309"/>
     <use style="fill:#0000ff;stroke:#000000;" x="325.330173316" xlink:href="#m4a52e4db34" y="192.889666243"/>
     <use style="fill:#0000ff;stroke:#000000;" x="317.197825829" xlink:href="#m4a52e4db34" y="190.694043592"/>
     <use style="fill:#0000ff;stroke:#000000;" x="354.395638745" xlink:href="#m4a52e4db34" y="218.208254383"/>
     <use style="fill:#0000ff;stroke:#000000;" x="335.909217859" xlink:href="#m4a52e4db34" y="204.362571224"/>
     <use style="fill:#0000ff;stroke:#000000;" x="338.76742967" xlink:href="#m4a52e4db34" y="207.557444998"/>
     <use style="fill:#0000ff;stroke:#000000;" x="247.270094299" xlink:href="#m4a52e4db34" y="138.85202418"/>
     <use style="fill:#0000ff;stroke:#000000;" x="288.041728413" xlink:href="#m4a52e4db34" y="149.555655256"/>
     <use style="fill:#0000ff;stroke:#000000;" x="294.73091216" xlink:href="#m4a52e4db34" y="157.296162635"/>
     <use style="fill:#0000ff;stroke:#000000;" x="244.026328834" xlink:href="#m4a52e4db34" y="134.071233638"/>
     <use style="fill:#0000ff;stroke:#000000;" x="293.922879733" xlink:href="#m4a52e4db34" y="178.616994371"/>
     <use style="fill:#0000ff;stroke:#000000;" x="220.07894611" xlink:href="#m4a52e4db34" y="124.131021124"/>
     <use style="fill:#0000ff;stroke:#000000;" x="303.483608708" xlink:href="#m4a52e4db34" y="188.481765999"/>
     <use style="fill:#0000ff;stroke:#000000;" x="302.322356456" xlink:href="#m4a52e4db34" y="180.355433954"/>
     <use style="fill:#0000ff;stroke:#000000;" x="306.509740423" xlink:href="#m4a52e4db34" y="196.315148546"/>
     <use style="fill:#0000ff;stroke:#000000;" x="319.035740582" xlink:href="#m4a52e4db34" y="196.502052888"/>
     <use style="fill:#0000ff;stroke:#000000;" x="342.795751686" xlink:href="#m4a52e4db34" y="220.052449367"/>
     <use style="fill:#0000ff;stroke:#000000;" x="346.607617116" xlink:href="#m4a52e4db34" y="222.008573659"/>
     <use style="fill:#0000ff;stroke:#000000;" x="346.638310503" xlink:href="#m4a52e4db34" y="225.055554505"/>
     <use style="fill:#0000ff;stroke:#000000;" x="338.736347626" xlink:href="#m4a52e4db34" y="215.645190814"/>
     <use style="fill:#0000ff;stroke:#000000;" x="243.4629936" xlink:href="#m4a52e4db34" y="146.608659226"/>
     <use style="fill:#0000ff;stroke:#000000;" x="243.954268264" xlink:href="#m4a52e4db34" y="147.089147776"/>
     <use style="fill:#0000ff;stroke:#000000;" x="244.566215919" xlink:href="#m4a52e4db34" y="147.598240943"/>
     <use style="fill:#0000ff;stroke:#000000;" x="275.837988605" xlink:href="#m4a52e4db34" y="153.170001991"/>
     <use style="fill:#0000ff;stroke:#000000;" x="293.721549172" xlink:href="#m4a52e4db34" y="157.49412569"/>
     <use style="fill:#0000ff;stroke:#000000;" x="213.223993649" xlink:href="#m4a52e4db34" y="119.179157624"/>
     <use style="fill:#0000ff;stroke:#000000;" x="242.983067411" xlink:href="#m4a52e4db34" y="134.537343977"/>
     <use style="fill:#0000ff;stroke:#000000;" x="237.414817927" xlink:href="#m4a52e4db34" y="126.081200086"/>
     <use style="fill:#0000ff;stroke:#000000;" x="300.508546305" xlink:href="#m4a52e4db34" y="184.319010697"/>
     <use style="fill:#0000ff;stroke:#000000;" x="223.280524612" xlink:href="#m4a52e4db34" y="132.35370615"/>
     <use style="fill:#0000ff;stroke:#000000;" x="301.764986335" xlink:href="#m4a52e4db34" y="195.583092588"/>
     <use style="fill:#0000ff;stroke:#000000;" x="297.11523102" xlink:href="#m4a52e4db34" y="181.776319976"/>
     <use style="fill:#0000ff;stroke:#000000;" x="317.657282586" xlink:href="#m4a52e4db34" y="197.951365613"/>
     <use style="fill:#0000ff;stroke:#000000;" x="336.479903507" xlink:href="#m4a52e4db34" y="220.907076415"/>
     <use style="fill:#0000ff;stroke:#000000;" x="343.91361518" xlink:href="#m4a52e4db34" y="226.168880685"/>
     <use style="fill:#0000ff;stroke:#000000;" x="345.342114836" xlink:href="#m4a52e4db34" y="254.123730598"/>
     <use style="fill:#0000ff;stroke:#000000;" x="322.541254539" xlink:href="#m4a52e4db34" y="216.704791751"/>
     <use style="fill:#0000ff;stroke:#000000;" x="235.395874336" xlink:href="#m4a52e4db34" y="152.878824573"/>
     <use style="fill:#0000ff;stroke:#000000;" x="273.351074161" xlink:href="#m4a52e4db34" y="156.140826119"/>
     <use style="fill:#0000ff;stroke:#000000;" x="279.628112559" xlink:href="#m4a52e4db34" y="158.842206921"/>
     <use style="fill:#0000ff;stroke:#000000;" x="289.24241659" xlink:href="#m4a52e4db34" y="164.385780415"/>
     <use style="fill:#0000ff;stroke:#000000;" x="179.189747626" xlink:href="#m4a52e4db34" y="130.84058046"/>
    </g>
   </g>
   <g id="PathCollection_2">
    <defs>
     <path d="M 0 1.118034 
C 0.296506 1.118034 0.580908 1.000231 0.790569 0.790569 
C 1.000231 0.580908 1.118034 0.296506 1.118034 0 
C 1.118034 -0.296506 1.000231 -0.580908 0.790569 -0.790569 
C 0.580908 -1.000231 0.296506 -1.118034 0 -1.118034 
C -0.296506 -1.118034 -0.580908 -1.000231 -0.790569 -0.790569 
C -1.000231 -0.580908 -1.118034 -0.296506 -1.118034 0 
C -1.118034 0.296506 -1.000231 0.580908 -0.790569 0.790569 
C -0.580908 1.000231 -0.296506 1.118034 0 1.118034 
z
" id="m053b301bdf" style="stroke:#000000;"/>
    </defs>
    <g clip-path="url(#pb7226beebb)">
     <use style="stroke:#000000;" x="479.154777245" xlink:href="#m053b301bdf" y="118.285522032"/>
     <use style="stroke:#000000;" x="371.020996056" xlink:href="#m053b301bdf" y="90.5915518445"/>
     <use style="stroke:#000000;" x="328.225381947" xlink:href="#m053b301bdf" y="57.7403155701"/>
     <use style="stroke:#000000;" x="383.451877073" xlink:href="#m053b301bdf" y="108.721107182"/>
     <use style="stroke:#000000;" x="485.44845702" xlink:href="#m053b301bdf" y="150.497191241"/>
     <use style="stroke:#000000;" x="428.810026495" xlink:href="#m053b301bdf" y="149.323722785"/>
     <use style="stroke:#000000;" x="343.437097322" xlink:href="#m053b301bdf" y="111.876883264"/>
     <use style="stroke:#000000;" x="379.622970831" xlink:href="#m053b301bdf" y="124.040484857"/>
     <use style="stroke:#000000;" x="355.896456153" xlink:href="#m053b301bdf" y="121.746283386"/>
     <use style="stroke:#000000;" x="393.63889258" xlink:href="#m053b301bdf" y="131.485205094"/>
     <use style="stroke:#000000;" x="284.165666431" xlink:href="#m053b301bdf" y="98.0314477735"/>
     <use style="stroke:#000000;" x="267.860282352" xlink:href="#m053b301bdf" y="93.3712217108"/>
     <use style="stroke:#000000;" x="286.195665384" xlink:href="#m053b301bdf" y="102.710954695"/>
     <use style="stroke:#000000;" x="346.258289041" xlink:href="#m053b301bdf" y="163.787771452"/>
     <use style="stroke:#000000;" x="297.647389107" xlink:href="#m053b301bdf" y="120.795390985"/>
     <use style="stroke:#000000;" x="345.509625877" xlink:href="#m053b301bdf" y="150.1917353"/>
     <use style="stroke:#000000;" x="377.62662639" xlink:href="#m053b301bdf" y="183.345885371"/>
     <use style="stroke:#000000;" x="273.899883634" xlink:href="#m053b301bdf" y="113.698412498"/>
     <use style="stroke:#000000;" x="336.533071002" xlink:href="#m053b301bdf" y="129.536956922"/>
     <use style="stroke:#000000;" x="343.921149028" xlink:href="#m053b301bdf" y="144.244395799"/>
     <use style="stroke:#000000;" x="272.56215806" xlink:href="#m053b301bdf" y="103.64849428"/>
     <use style="stroke:#000000;" x="303.946176682" xlink:href="#m053b301bdf" y="121.428834654"/>
     <use style="stroke:#000000;" x="344.242605218" xlink:href="#m053b301bdf" y="151.516606537"/>
     <use style="stroke:#000000;" x="278.401206302" xlink:href="#m053b301bdf" y="127.506728153"/>
     <use style="stroke:#000000;" x="372.365914308" xlink:href="#m053b301bdf" y="194.501802679"/>
     <use style="stroke:#000000;" x="374.633409418" xlink:href="#m053b301bdf" y="215.145648125"/>
     <use style="stroke:#000000;" x="305.520234416" xlink:href="#m053b301bdf" y="134.430614037"/>
     <use style="stroke:#000000;" x="295.993460951" xlink:href="#m053b301bdf" y="130.452514946"/>
     <use style="stroke:#000000;" x="331.849426374" xlink:href="#m053b301bdf" y="144.37572605"/>
     <use style="stroke:#000000;" x="267.520894756" xlink:href="#m053b301bdf" y="107.058564433"/>
     <use style="stroke:#000000;" x="341.87492782" xlink:href="#m053b301bdf" y="185.489099245"/>
     <use style="stroke:#000000;" x="275.383585445" xlink:href="#m053b301bdf" y="128.239838177"/>
     <use style="stroke:#000000;" x="337.121627833" xlink:href="#m053b301bdf" y="160.399355465"/>
     <use style="stroke:#000000;" x="330.482707912" xlink:href="#m053b301bdf" y="157.026721986"/>
     <use style="stroke:#000000;" x="337.656808893" xlink:href="#m053b301bdf" y="170.628494341"/>
     <use style="stroke:#000000;" x="359.578102656" xlink:href="#m053b301bdf" y="203.255542492"/>
     <use style="stroke:#000000;" x="331.397267823" xlink:href="#m053b301bdf" y="158.968343832"/>
     <use style="stroke:#000000;" x="282.111962619" xlink:href="#m053b301bdf" y="133.973095403"/>
     <use style="stroke:#000000;" x="367.471365547" xlink:href="#m053b301bdf" y="253.150623327"/>
     <use style="stroke:#000000;" x="288.450690624" xlink:href="#m053b301bdf" y="139.275483966"/>
     <use style="stroke:#000000;" x="248.71570596" xlink:href="#m053b301bdf" y="113.275364896"/>
     <use style="stroke:#000000;" x="322.223205373" xlink:href="#m053b301bdf" y="149.050009665"/>
     <use style="stroke:#000000;" x="297.085436117" xlink:href="#m053b301bdf" y="148.448196545"/>
     <use style="stroke:#000000;" x="262.453325648" xlink:href="#m053b301bdf" y="118.72131926"/>
     <use style="stroke:#000000;" x="320.852117967" xlink:href="#m053b301bdf" y="165.955861323"/>
     <use style="stroke:#000000;" x="247.92191542" xlink:href="#m053b301bdf" y="114.198604957"/>
     <use style="stroke:#000000;" x="324.321331786" xlink:href="#m053b301bdf" y="168.756484883"/>
     <use style="stroke:#000000;" x="329.259951175" xlink:href="#m053b301bdf" y="182.071997566"/>
     <use style="stroke:#000000;" x="356.264185437" xlink:href="#m053b301bdf" y="203.982427935"/>
     <use style="stroke:#000000;" x="264.221293989" xlink:href="#m053b301bdf" y="137.58481335"/>
     <use style="stroke:#000000;" x="270.222573312" xlink:href="#m053b301bdf" y="143.081966595"/>
     <use style="stroke:#000000;" x="248.104579236" xlink:href="#m053b301bdf" y="135.627099712"/>
     <use style="stroke:#000000;" x="288.074940503" xlink:href="#m053b301bdf" y="144.629085651"/>
     <use style="stroke:#000000;" x="300.707094035" xlink:href="#m053b301bdf" y="154.793475859"/>
     <use style="stroke:#000000;" x="309.326740175" xlink:href="#m053b301bdf" y="173.630408157"/>
     <use style="stroke:#000000;" x="240.824367275" xlink:href="#m053b301bdf" y="118.270018685"/>
     <use style="stroke:#000000;" x="303.837986771" xlink:href="#m053b301bdf" y="168.151767261"/>
     <use style="stroke:#000000;" x="326.98764319" xlink:href="#m053b301bdf" y="196.191897148"/>
     <use style="stroke:#000000;" x="316.750762234" xlink:href="#m053b301bdf" y="183.596589309"/>
     <use style="stroke:#000000;" x="325.330173316" xlink:href="#m053b301bdf" y="192.889666243"/>
     <use style="stroke:#000000;" x="317.197825829" xlink:href="#m053b301bdf" y="190.694043592"/>
     <use style="stroke:#000000;" x="354.395638745" xlink:href="#m053b301bdf" y="218.208254383"/>
     <use style="stroke:#000000;" x="335.909217859" xlink:href="#m053b301bdf" y="204.362571224"/>
     <use style="stroke:#000000;" x="338.76742967" xlink:href="#m053b301bdf" y="207.557444998"/>
     <use style="stroke:#000000;" x="247.270094299" xlink:href="#m053b301bdf" y="138.85202418"/>
     <use style="stroke:#000000;" x="288.041728413" xlink:href="#m053b301bdf" y="149.555655256"/>
     <use style="stroke:#000000;" x="294.73091216" xlink:href="#m053b301bdf" y="157.296162635"/>
     <use style="stroke:#000000;" x="244.026328834" xlink:href="#m053b301bdf" y="134.071233638"/>
     <use style="stroke:#000000;" x="293.922879733" xlink:href="#m053b301bdf" y="178.616994371"/>
     <use style="stroke:#000000;" x="220.07894611" xlink:href="#m053b301bdf" y="124.131021124"/>
     <use style="stroke:#000000;" x="303.483608708" xlink:href="#m053b301bdf" y="188.481765999"/>
     <use style="stroke:#000000;" x="302.322356456" xlink:href="#m053b301bdf" y="180.355433954"/>
     <use style="stroke:#000000;" x="306.509740423" xlink:href="#m053b301bdf" y="196.315148546"/>
     <use style="stroke:#000000;" x="319.035740582" xlink:href="#m053b301bdf" y="196.502052888"/>
     <use style="stroke:#000000;" x="342.795751686" xlink:href="#m053b301bdf" y="220.052449367"/>
     <use style="stroke:#000000;" x="346.607617116" xlink:href="#m053b301bdf" y="222.008573659"/>
     <use style="stroke:#000000;" x="346.638310503" xlink:href="#m053b301bdf" y="225.055554505"/>
     <use style="stroke:#000000;" x="338.736347626" xlink:href="#m053b301bdf" y="215.645190814"/>
     <use style="stroke:#000000;" x="243.4629936" xlink:href="#m053b301bdf" y="146.608659226"/>
     <use style="stroke:#000000;" x="243.954268264" xlink:href="#m053b301bdf" y="147.089147776"/>
     <use style="stroke:#000000;" x="244.566215919" xlink:href="#m053b301bdf" y="147.598240943"/>
     <use style="stroke:#000000;" x="275.837988605" xlink:href="#m053b301bdf" y="153.170001991"/>
     <use style="stroke:#000000;" x="293.721549172" xlink:href="#m053b301bdf" y="157.49412569"/>
     <use style="stroke:#000000;" x="213.223993649" xlink:href="#m053b301bdf" y="119.179157624"/>
     <use style="stroke:#000000;" x="242.983067411" xlink:href="#m053b301bdf" y="134.537343977"/>
     <use style="stroke:#000000;" x="237.414817927" xlink:href="#m053b301bdf" y="126.081200086"/>
     <use style="stroke:#000000;" x="300.508546305" xlink:href="#m053b301bdf" y="184.319010697"/>
     <use style="stroke:#000000;" x="223.280524612" xlink:href="#m053b301bdf" y="132.35370615"/>
     <use style="stroke:#000000;" x="301.764986335" xlink:href="#m053b301bdf" y="195.583092588"/>
     <use style="stroke:#000000;" x="297.11523102" xlink:href="#m053b301bdf" y="181.776319976"/>
     <use style="stroke:#000000;" x="317.657282586" xlink:href="#m053b301bdf" y="197.951365613"/>
     <use style="stroke:#000000;" x="336.479903507" xlink:href="#m053b301bdf" y="220.907076415"/>
     <use style="stroke:#000000;" x="343.91361518" xlink:href="#m053b301bdf" y="226.168880685"/>
     <use style="stroke:#000000;" x="345.342114836" xlink:href="#m053b301bdf" y="254.123730598"/>
     <use style="stroke:#000000;" x="322.541254539" xlink:href="#m053b301bdf" y="216.704791751"/>
     <use style="stroke:#000000;" x="235.395874336" xlink:href="#m053b301bdf" y="152.878824573"/>
     <use style="stroke:#000000;" x="273.351074161" xlink:href="#m053b301bdf" y="156.140826119"/>
     <use style="stroke:#000000;" x="279.628112559" xlink:href="#m053b301bdf" y="158.842206921"/>
     <use style="stroke:#000000;" x="289.24241659" xlink:href="#m053b301bdf" y="164.385780415"/>
     <use style="stroke:#000000;" x="179.189747626" xlink:href="#m053b301bdf" y="130.84058046"/>
     <use style="stroke:#000000;" x="171.355290878" xlink:href="#m053b301bdf" y="198.671213375"/>
     <use style="stroke:#000000;" x="289.759700302" xlink:href="#m053b301bdf" y="190.337156035"/>
     <use style="stroke:#000000;" x="171.317224604" xlink:href="#m053b301bdf" y="438.299454697"/>
     <use style="stroke:#000000;" x="163.912170006" xlink:href="#m053b301bdf" y="349.905387916"/>
     <use style="stroke:#000000;" x="169.275084829" xlink:href="#m053b301bdf" y="363.701545782"/>
     <use style="stroke:#000000;" x="198.307909342" xlink:href="#m053b301bdf" y="195.202598749"/>
     <use style="stroke:#000000;" x="170.58144802" xlink:href="#m053b301bdf" y="274.629117119"/>
     <use style="stroke:#000000;" x="169.716620931" xlink:href="#m053b301bdf" y="413.869046205"/>
     <use style="stroke:#000000;" x="209.192972216" xlink:href="#m053b301bdf" y="375.18216112"/>
     <use style="stroke:#000000;" x="182.404319323" xlink:href="#m053b301bdf" y="336.181651445"/>
     <use style="stroke:#000000;" x="163.484804489" xlink:href="#m053b301bdf" y="405.898998179"/>
     <use style="stroke:#000000;" x="171.765291179" xlink:href="#m053b301bdf" y="406.211303396"/>
     <use style="stroke:#000000;" x="193.419377337" xlink:href="#m053b301bdf" y="248.400900866"/>
     <use style="stroke:#000000;" x="166.67848457" xlink:href="#m053b301bdf" y="274.126253838"/>
     <use style="stroke:#000000;" x="202.819997473" xlink:href="#m053b301bdf" y="256.024450062"/>
     <use style="stroke:#000000;" x="176.468171898" xlink:href="#m053b301bdf" y="370.675824946"/>
     <use style="stroke:#000000;" x="174.230126213" xlink:href="#m053b301bdf" y="322.745356775"/>
     <use style="stroke:#000000;" x="274.207253784" xlink:href="#m053b301bdf" y="231.02422117"/>
     <use style="stroke:#000000;" x="236.153688265" xlink:href="#m053b301bdf" y="203.238526369"/>
     <use style="stroke:#000000;" x="171.415916276" xlink:href="#m053b301bdf" y="305.213808347"/>
     <use style="stroke:#000000;" x="207.699257053" xlink:href="#m053b301bdf" y="232.619412186"/>
     <use style="stroke:#000000;" x="167.918711223" xlink:href="#m053b301bdf" y="251.978294152"/>
     <use style="stroke:#000000;" x="175.27274669" xlink:href="#m053b301bdf" y="292.404245943"/>
     <use style="stroke:#000000;" x="171.752995325" xlink:href="#m053b301bdf" y="350.070034364"/>
     <use style="stroke:#000000;" x="210.170878242" xlink:href="#m053b301bdf" y="227.388683243"/>
     <use style="stroke:#000000;" x="182.427364069" xlink:href="#m053b301bdf" y="344.965653079"/>
     <use style="stroke:#000000;" x="186.61941425" xlink:href="#m053b301bdf" y="349.406507407"/>
     <use style="stroke:#000000;" x="196.949731602" xlink:href="#m053b301bdf" y="125.613224532"/>
     <use style="stroke:#000000;" x="187.93717406" xlink:href="#m053b301bdf" y="307.398841053"/>
     <use style="stroke:#000000;" x="201.172053833" xlink:href="#m053b301bdf" y="179.898020467"/>
     <use style="stroke:#000000;" x="269.386275355" xlink:href="#m053b301bdf" y="206.266324477"/>
     <use style="stroke:#000000;" x="243.113409723" xlink:href="#m053b301bdf" y="236.596737952"/>
     <use style="stroke:#000000;" x="233.260454782" xlink:href="#m053b301bdf" y="268.638665973"/>
     <use style="stroke:#000000;" x="213.364595535" xlink:href="#m053b301bdf" y="281.071175949"/>
     <use style="stroke:#000000;" x="166.716324496" xlink:href="#m053b301bdf" y="241.174648774"/>
     <use style="stroke:#000000;" x="201.245809274" xlink:href="#m053b301bdf" y="213.481854288"/>
     <use style="stroke:#000000;" x="174.661816058" xlink:href="#m053b301bdf" y="340.219735822"/>
     <use style="stroke:#000000;" x="181.466930793" xlink:href="#m053b301bdf" y="392.664088537"/>
     <use style="stroke:#000000;" x="252.347256177" xlink:href="#m053b301bdf" y="233.922116378"/>
     <use style="stroke:#000000;" x="185.605119559" xlink:href="#m053b301bdf" y="296.610900088"/>
     <use style="stroke:#000000;" x="166.075568203" xlink:href="#m053b301bdf" y="302.457613101"/>
     <use style="stroke:#000000;" x="193.258878118" xlink:href="#m053b301bdf" y="229.491713444"/>
     <use style="stroke:#000000;" x="195.381959845" xlink:href="#m053b301bdf" y="259.982043455"/>
     <use style="stroke:#000000;" x="185.755376201" xlink:href="#m053b301bdf" y="296.11108836"/>
     <use style="stroke:#000000;" x="168.33924224" xlink:href="#m053b301bdf" y="367.796679492"/>
     <use style="stroke:#000000;" x="205.024838147" xlink:href="#m053b301bdf" y="310.390755395"/>
     <use style="stroke:#000000;" x="180.344567704" xlink:href="#m053b301bdf" y="215.331488329"/>
     <use style="stroke:#000000;" x="172.862091007" xlink:href="#m053b301bdf" y="247.406214724"/>
     <use style="stroke:#000000;" x="203.524607298" xlink:href="#m053b301bdf" y="131.449095492"/>
     <use style="stroke:#000000;" x="173.553645457" xlink:href="#m053b301bdf" y="369.024314598"/>
    </g>
   </g>
   <g id="patch_3">
    <path d="M 72 388.8 
L 72 43.2 
" style="fill:none;stroke:#000000;stroke-linecap:square;stroke-linejoin:miter;"/>
   </g>
   <g id="patch_4">
    <path d="M 72 388.8 
L 518.4 388.8 
" style="fill:none;stroke:#000000;stroke-linecap:square;stroke-linejoin:miter;"/>
   </g>
   <g id="patch_5">
    <path d="M 518.4 388.8 
L 518.4 43.2 
" style="fill:none;stroke:#000000;stroke-linecap:square;stroke-linejoin:miter;"/>
   </g>
   <g id="patch_6">
    <path d="M 72 43.2 
L 518.4 43.2 
" style="fill:none;stroke:#000000;stroke-linecap:square;stroke-linejoin:miter;"/>
   </g>
   <g id="matplotlib.axis_1">
    <g id="xtick_1">
     <g id="line2d_1">
      <defs>
       <path d="M 0 0 
L 0 -4 
" id="m4c437430cc" style="stroke:#000000;stroke-width:0.5;"/>
      </defs>
      <g>
       <use style="stroke:#000000;stroke-width:0.5;" x="72.0" xlink:href="#m4c437430cc" y="388.8"/>
      </g>
     </g>
     <g id="line2d_2">
      <defs>
       <path d="M 0 0 
L 0 4 
" id="m0e3e354f1a" style="stroke:#000000;stroke-width:0.5;"/>
      </defs>
      <g>
       <use style="stroke:#000000;stroke-width:0.5;" x="72.0" xlink:href="#m0e3e354f1a" y="43.2"/>
      </g>
     </g>
     <g id="text_1">
      <!-- −5 -->
      <defs>
       <path d="M 10.59375 35.5 
L 73.1875 35.5 
L 73.1875 27.203125 
L 10.59375 27.203125 
z
" id="BitstreamVeraSans-Roman-2212"/>
       <path d="M 10.796875 72.90625 
L 49.515625 72.90625 
L 49.515625 64.59375 
L 19.828125 64.59375 
L 19.828125 46.734375 
Q 21.96875 47.46875 24.109375 47.828125 
Q 26.265625 48.1875 28.421875 48.1875 
Q 40.625 48.1875 47.75 41.5 
Q 54.890625 34.8125 54.890625 23.390625 
Q 54.890625 11.625 47.5625 5.09375 
Q 40.234375 -1.421875 26.90625 -1.421875 
Q 22.3125 -1.421875 17.546875 -0.640625 
Q 12.796875 0.140625 7.71875 1.703125 
L 7.71875 11.625 
Q 12.109375 9.234375 16.796875 8.0625 
Q 21.484375 6.890625 26.703125 6.890625 
Q 35.15625 6.890625 40.078125 11.328125 
Q 45.015625 15.765625 45.015625 23.390625 
Q 45.015625 31 40.078125 35.4375 
Q 35.15625 39.890625 26.703125 39.890625 
Q 22.75 39.890625 18.8125 39.015625 
Q 14.890625 38.140625 10.796875 36.28125 
z
" id="BitstreamVeraSans-Roman-35"/>
      </defs>
      <g transform="translate(63.1546875 401.918125)scale(0.12 -0.12)">
       <use xlink:href="#BitstreamVeraSans-Roman-2212"/>
       <use x="83.7890625" xlink:href="#BitstreamVeraSans-Roman-35"/>
      </g>
     </g>
    </g>
    <g id="xtick_2">
     <g id="line2d_3">
      <g>
       <use style="stroke:#000000;stroke-width:0.5;" x="161.28" xlink:href="#m4c437430cc" y="388.8"/>
      </g>
     </g>
     <g id="line2d_4">
      <g>
       <use style="stroke:#000000;stroke-width:0.5;" x="161.28" xlink:href="#m0e3e354f1a" y="43.2"/>
      </g>
     </g>
     <g id="text_2">
      <!-- 0 -->
      <defs>
       <path d="M 31.78125 66.40625 
Q 24.171875 66.40625 20.328125 58.90625 
Q 16.5 51.421875 16.5 36.375 
Q 16.5 21.390625 20.328125 13.890625 
Q 24.171875 6.390625 31.78125 6.390625 
Q 39.453125 6.390625 43.28125 13.890625 
Q 47.125 21.390625 47.125 36.375 
Q 47.125 51.421875 43.28125 58.90625 
Q 39.453125 66.40625 31.78125 66.40625 
M 31.78125 74.21875 
Q 44.046875 74.21875 50.515625 64.515625 
Q 56.984375 54.828125 56.984375 36.375 
Q 56.984375 17.96875 50.515625 8.265625 
Q 44.046875 -1.421875 31.78125 -1.421875 
Q 19.53125 -1.421875 13.0625 8.265625 
Q 6.59375 17.96875 6.59375 36.375 
Q 6.59375 54.828125 13.0625 64.515625 
Q 19.53125 74.21875 31.78125 74.21875 
" id="BitstreamVeraSans-Roman-30"/>
      </defs>
      <g transform="translate(157.4625 401.918125)scale(0.12 -0.12)">
       <use xlink:href="#BitstreamVeraSans-Roman-30"/>
      </g>
     </g>
    </g>
    <g id="xtick_3">
     <g id="line2d_5">
      <g>
       <use style="stroke:#000000;stroke-width:0.5;" x="250.56" xlink:href="#m4c437430cc" y="388.8"/>
      </g>
     </g>
     <g id="line2d_6">
      <g>
       <use style="stroke:#000000;stroke-width:0.5;" x="250.56" xlink:href="#m0e3e354f1a" y="43.2"/>
      </g>
     </g>
     <g id="text_3">
      <!-- 5 -->
      <g transform="translate(246.7425 401.918125)scale(0.12 -0.12)">
       <use xlink:href="#BitstreamVeraSans-Roman-35"/>
      </g>
     </g>
    </g>
    <g id="xtick_4">
     <g id="line2d_7">
      <g>
       <use style="stroke:#000000;stroke-width:0.5;" x="339.84" xlink:href="#m4c437430cc" y="388.8"/>
      </g>
     </g>
     <g id="line2d_8">
      <g>
       <use style="stroke:#000000;stroke-width:0.5;" x="339.84" xlink:href="#m0e3e354f1a" y="43.2"/>
      </g>
     </g>
     <g id="text_4">
      <!-- 10 -->
      <defs>
       <path d="M 12.40625 8.296875 
L 28.515625 8.296875 
L 28.515625 63.921875 
L 10.984375 60.40625 
L 10.984375 69.390625 
L 28.421875 72.90625 
L 38.28125 72.90625 
L 38.28125 8.296875 
L 54.390625 8.296875 
L 54.390625 0 
L 12.40625 0 
z
" id="BitstreamVeraSans-Roman-31"/>
      </defs>
      <g transform="translate(332.205 401.918125)scale(0.12 -0.12)">
       <use xlink:href="#BitstreamVeraSans-Roman-31"/>
       <use x="63.623046875" xlink:href="#BitstreamVeraSans-Roman-30"/>
      </g>
     </g>
    </g>
    <g id="xtick_5">
     <g id="line2d_9">
      <g>
       <use style="stroke:#000000;stroke-width:0.5;" x="429.12" xlink:href="#m4c437430cc" y="388.8"/>
      </g>
     </g>
     <g id="line2d_10">
      <g>
       <use style="stroke:#000000;stroke-width:0.5;" x="429.12" xlink:href="#m0e3e354f1a" y="43.2"/>
      </g>
     </g>
     <g id="text_5">
      <!-- 15 -->
      <g transform="translate(421.485 401.918125)scale(0.12 -0.12)">
       <use xlink:href="#BitstreamVeraSans-Roman-31"/>
       <use x="63.623046875" xlink:href="#BitstreamVeraSans-Roman-35"/>
      </g>
     </g>
    </g>
    <g id="xtick_6">
     <g id="line2d_11">
      <g>
       <use style="stroke:#000000;stroke-width:0.5;" x="518.4" xlink:href="#m4c437430cc" y="388.8"/>
      </g>
     </g>
     <g id="line2d_12">
      <g>
       <use style="stroke:#000000;stroke-width:0.5;" x="518.4" xlink:href="#m0e3e354f1a" y="43.2"/>
      </g>
     </g>
     <g id="text_6">
      <!-- 20 -->
      <defs>
       <path d="M 19.1875 8.296875 
L 53.609375 8.296875 
L 53.609375 0 
L 7.328125 0 
L 7.328125 8.296875 
Q 12.9375 14.109375 22.625 23.890625 
Q 32.328125 33.6875 34.8125 36.53125 
Q 39.546875 41.84375 41.421875 45.53125 
Q 43.3125 49.21875 43.3125 52.78125 
Q 43.3125 58.59375 39.234375 62.25 
Q 35.15625 65.921875 28.609375 65.921875 
Q 23.96875 65.921875 18.8125 64.3125 
Q 13.671875 62.703125 7.8125 59.421875 
L 7.8125 69.390625 
Q 13.765625 71.78125 18.9375 73 
Q 24.125 74.21875 28.421875 74.21875 
Q 39.75 74.21875 46.484375 68.546875 
Q 53.21875 62.890625 53.21875 53.421875 
Q 53.21875 48.921875 51.53125 44.890625 
Q 49.859375 40.875 45.40625 35.40625 
Q 44.1875 33.984375 37.640625 27.21875 
Q 31.109375 20.453125 19.1875 8.296875 
" id="BitstreamVeraSans-Roman-32"/>
      </defs>
      <g transform="translate(510.765 401.918125)scale(0.12 -0.12)">
       <use xlink:href="#BitstreamVeraSans-Roman-32"/>
       <use x="63.623046875" xlink:href="#BitstreamVeraSans-Roman-30"/>
      </g>
     </g>
    </g>
   </g>
   <g id="matplotlib.axis_2">
    <g id="ytick_1">
     <g id="line2d_13">
      <defs>
       <path d="M 0 0 
L 4 0 
" id="m1c886e809f" style="stroke:#000000;stroke-width:0.5;"/>
      </defs>
      <g>
       <use style="stroke:#000000;stroke-width:0.5;" x="72.0" xlink:href="#m1c886e809f" y="388.8"/>
      </g>
     </g>
     <g id="line2d_14">
      <defs>
       <path d="M 0 0 
L -4 0 
" id="m28ad6a1add" style="stroke:#000000;stroke-width:0.5;"/>
      </defs>
      <g>
       <use style="stroke:#000000;stroke-width:0.5;" x="518.4" xlink:href="#m28ad6a1add" y="388.8"/>
      </g>
     </g>
     <g id="text_7">
      <!-- −30 -->
      <defs>
       <path d="M 40.578125 39.3125 
Q 47.65625 37.796875 51.625 33 
Q 55.609375 28.21875 55.609375 21.1875 
Q 55.609375 10.40625 48.1875 4.484375 
Q 40.765625 -1.421875 27.09375 -1.421875 
Q 22.515625 -1.421875 17.65625 -0.515625 
Q 12.796875 0.390625 7.625 2.203125 
L 7.625 11.71875 
Q 11.71875 9.328125 16.59375 8.109375 
Q 21.484375 6.890625 26.8125 6.890625 
Q 36.078125 6.890625 40.9375 10.546875 
Q 45.796875 14.203125 45.796875 21.1875 
Q 45.796875 27.640625 41.28125 31.265625 
Q 36.765625 34.90625 28.71875 34.90625 
L 20.21875 34.90625 
L 20.21875 43.015625 
L 29.109375 43.015625 
Q 36.375 43.015625 40.234375 45.921875 
Q 44.09375 48.828125 44.09375 54.296875 
Q 44.09375 59.90625 40.109375 62.90625 
Q 36.140625 65.921875 28.71875 65.921875 
Q 24.65625 65.921875 20.015625 65.03125 
Q 15.375 64.15625 9.8125 62.3125 
L 9.8125 71.09375 
Q 15.4375 72.65625 20.34375 73.4375 
Q 25.25 74.21875 29.59375 74.21875 
Q 40.828125 74.21875 47.359375 69.109375 
Q 53.90625 64.015625 53.90625 55.328125 
Q 53.90625 49.265625 50.4375 45.09375 
Q 46.96875 40.921875 40.578125 39.3125 
" id="BitstreamVeraSans-Roman-33"/>
      </defs>
      <g transform="translate(42.674375 392.11125)scale(0.12 -0.12)">
       <use xlink:href="#BitstreamVeraSans-Roman-2212"/>
       <use x="83.7890625" xlink:href="#BitstreamVeraSans-Roman-33"/>
       <use x="147.412109375" xlink:href="#BitstreamVeraSans-Roman-30"/>
      </g>
     </g>
    </g>
    <g id="ytick_2">
     <g id="line2d_15">
      <g>
       <use style="stroke:#000000;stroke-width:0.5;" x="72.0" xlink:href="#m1c886e809f" y="345.6"/>
      </g>
     </g>
     <g id="line2d_16">
      <g>
       <use style="stroke:#000000;stroke-width:0.5;" x="518.4" xlink:href="#m28ad6a1add" y="345.6"/>
      </g>
     </g>
     <g id="text_8">
      <!-- −25 -->
      <g transform="translate(42.674375 348.91125)scale(0.12 -0.12)">
       <use xlink:href="#BitstreamVeraSans-Roman-2212"/>
       <use x="83.7890625" xlink:href="#BitstreamVeraSans-Roman-32"/>
       <use x="147.412109375" xlink:href="#BitstreamVeraSans-Roman-35"/>
      </g>
     </g>
    </g>
    <g id="ytick_3">
     <g id="line2d_17">
      <g>
       <use style="stroke:#000000;stroke-width:0.5;" x="72.0" xlink:href="#m1c886e809f" y="302.4"/>
      </g>
     </g>
     <g id="line2d_18">
      <g>
       <use style="stroke:#000000;stroke-width:0.5;" x="518.4" xlink:href="#m28ad6a1add" y="302.4"/>
      </g>
     </g>
     <g id="text_9">
      <!-- −20 -->
      <g transform="translate(42.674375 305.71125)scale(0.12 -0.12)">
       <use xlink:href="#BitstreamVeraSans-Roman-2212"/>
       <use x="83.7890625" xlink:href="#BitstreamVeraSans-Roman-32"/>
       <use x="147.412109375" xlink:href="#BitstreamVeraSans-Roman-30"/>
      </g>
     </g>
    </g>
    <g id="ytick_4">
     <g id="line2d_19">
      <g>
       <use style="stroke:#000000;stroke-width:0.5;" x="72.0" xlink:href="#m1c886e809f" y="259.2"/>
      </g>
     </g>
     <g id="line2d_20">
      <g>
       <use style="stroke:#000000;stroke-width:0.5;" x="518.4" xlink:href="#m28ad6a1add" y="259.2"/>
      </g>
     </g>
     <g id="text_10">
      <!-- −15 -->
      <g transform="translate(42.674375 262.51125)scale(0.12 -0.12)">
       <use xlink:href="#BitstreamVeraSans-Roman-2212"/>
       <use x="83.7890625" xlink:href="#BitstreamVeraSans-Roman-31"/>
       <use x="147.412109375" xlink:href="#BitstreamVeraSans-Roman-35"/>
      </g>
     </g>
    </g>
    <g id="ytick_5">
     <g id="line2d_21">
      <g>
       <use style="stroke:#000000;stroke-width:0.5;" x="72.0" xlink:href="#m1c886e809f" y="216.0"/>
      </g>
     </g>
     <g id="line2d_22">
      <g>
       <use style="stroke:#000000;stroke-width:0.5;" x="518.4" xlink:href="#m28ad6a1add" y="216.0"/>
      </g>
     </g>
     <g id="text_11">
      <!-- −10 -->
      <g transform="translate(42.674375 219.31125)scale(0.12 -0.12)">
       <use xlink:href="#BitstreamVeraSans-Roman-2212"/>
       <use x="83.7890625" xlink:href="#BitstreamVeraSans-Roman-31"/>
       <use x="147.412109375" xlink:href="#BitstreamVeraSans-Roman-30"/>
      </g>
     </g>
    </g>
    <g id="ytick_6">
     <g id="line2d_23">
      <g>
       <use style="stroke:#000000;stroke-width:0.5;" x="72.0" xlink:href="#m1c886e809f" y="172.8"/>
      </g>
     </g>
     <g id="line2d_24">
      <g>
       <use style="stroke:#000000;stroke-width:0.5;" x="518.4" xlink:href="#m28ad6a1add" y="172.8"/>
      </g>
     </g>
     <g id="text_12">
      <!-- −5 -->
      <g transform="translate(50.309375 176.11125)scale(0.12 -0.12)">
       <use xlink:href="#BitstreamVeraSans-Roman-2212"/>
       <use x="83.7890625" xlink:href="#BitstreamVeraSans-Roman-35"/>
      </g>
     </g>
    </g>
    <g id="ytick_7">
     <g id="line2d_25">
      <g>
       <use style="stroke:#000000;stroke-width:0.5;" x="72.0" xlink:href="#m1c886e809f" y="129.6"/>
      </g>
     </g>
     <g id="line2d_26">
      <g>
       <use style="stroke:#000000;stroke-width:0.5;" x="518.4" xlink:href="#m28ad6a1add" y="129.6"/>
      </g>
     </g>
     <g id="text_13">
      <!-- 0 -->
      <g transform="translate(60.365 132.91125)scale(0.12 -0.12)">
       <use xlink:href="#BitstreamVeraSans-Roman-30"/>
      </g>
     </g>
    </g>
    <g id="ytick_8">
     <g id="line2d_27">
      <g>
       <use style="stroke:#000000;stroke-width:0.5;" x="72.0" xlink:href="#m1c886e809f" y="86.4"/>
      </g>
     </g>
     <g id="line2d_28">
      <g>
       <use style="stroke:#000000;stroke-width:0.5;" x="518.4" xlink:href="#m28ad6a1add" y="86.4"/>
      </g>
     </g>
     <g id="text_14">
      <!-- 5 -->
      <g transform="translate(60.365 89.71125)scale(0.12 -0.12)">
       <use xlink:href="#BitstreamVeraSans-Roman-35"/>
      </g>
     </g>
    </g>
    <g id="ytick_9">
     <g id="line2d_29">
      <g>
       <use style="stroke:#000000;stroke-width:0.5;" x="72.0" xlink:href="#m1c886e809f" y="43.2"/>
      </g>
     </g>
     <g id="line2d_30">
      <g>
       <use style="stroke:#000000;stroke-width:0.5;" x="518.4" xlink:href="#m28ad6a1add" y="43.2"/>
      </g>
     </g>
     <g id="text_15">
      <!-- 10 -->
      <g transform="translate(52.73 46.51125)scale(0.12 -0.12)">
       <use xlink:href="#BitstreamVeraSans-Roman-31"/>
       <use x="63.623046875" xlink:href="#BitstreamVeraSans-Roman-30"/>
      </g>
     </g>
    </g>
   </g>
  </g>
 </g>
 <defs>
  <clipPath id="pb7226beebb">
   <rect height="345.6" width="446.4" x="72.0" y="43.2"/>
  </clipPath>
 </defs>
</svg>
