<?xml version="1.0" encoding="utf-8" standalone="no"?>
<!DOCTYPE svg PUBLIC "-//W3C//DTD SVG 1.1//EN"
  "http://www.w3.org/Graphics/SVG/1.1/DTD/svg11.dtd">
<!-- Created with matplotlib (http://matplotlib.org/) -->
<svg height="432pt" version="1.1" viewBox="0 0 576 432" width="576pt" xmlns="http://www.w3.org/2000/svg" xmlns:xlink="http://www.w3.org/1999/xlink">
 <defs>
  <style type="text/css">
*{stroke-linecap:butt;stroke-linejoin:round;stroke-miterlimit:100000;}
  </style>
 </defs>
 <g id="figure_1">
  <g id="patch_1">
   <path d="M 0 432 
L 576 432 
L 576 0 
L 0 0 
z
" style="fill:#ffffff;"/>
  </g>
  <g id="axes_1">
   <g id="patch_2">
    <path d="M 72 388.8 
L 518.4 388.8 
L 518.4 43.2 
L 72 43.2 
z
" style="fill:#ffffff;"/>
   </g>
   <g id="PathCollection_1">
    <defs>
     <path d="M 0 2.236068 
C 0.593012 2.236068 1.161816 2.000462 1.581139 1.581139 
C 2.000462 1.161816 2.236068 0.593012 2.236068 0 
C 2.236068 -0.593012 2.000462 -1.161816 1.581139 -1.581139 
C 1.161816 -2.000462 0.593012 -2.236068 0 -2.236068 
C -0.593012 -2.236068 -1.161816 -2.000462 -1.581139 -1.581139 
C -2.000462 -1.161816 -2.236068 -0.593012 -2.236068 0 
C -2.236068 0.593012 -2.000462 1.161816 -1.581139 1.581139 
C -1.161816 2.000462 -0.593012 2.236068 0 2.236068 
z
" id="m303f065219" style="stroke:#000000;"/>
    </defs>
    <g clip-path="url(#pbd9d278497)">
     <use style="fill:#0000ff;stroke:#000000;" x="419.51463594" xlink:href="#m303f065219" y="159.929723885"/>
     <use style="fill:#0000ff;stroke:#000000;" x="380.347919758" xlink:href="#m303f065219" y="99.4951419238"/>
     <use style="fill:#0000ff;stroke:#000000;" x="393.893205914" xlink:href="#m303f065219" y="135.595354855"/>
     <use style="fill:#0000ff;stroke:#000000;" x="410.84615836" xlink:href="#m303f065219" y="136.192442161"/>
     <use style="fill:#0000ff;stroke:#000000;" x="456.236983347" xlink:href="#m303f065219" y="168.519124888"/>
     <use style="fill:#0000ff;stroke:#000000;" x="402.798268467" xlink:href="#m303f065219" y="141.112374125"/>
     <use style="fill:#0000ff;stroke:#000000;" x="369.0659608" xlink:href="#m303f065219" y="105.259972858"/>
     <use style="fill:#0000ff;stroke:#000000;" x="406.444580668" xlink:href="#m303f065219" y="151.596044522"/>
     <use style="fill:#0000ff;stroke:#000000;" x="430.064910048" xlink:href="#m303f065219" y="173.710032784"/>
     <use style="fill:#0000ff;stroke:#000000;" x="398.302914428" xlink:href="#m303f065219" y="183.507838158"/>
     <use style="fill:#0000ff;stroke:#000000;" x="306.122324616" xlink:href="#m303f065219" y="117.103125517"/>
     <use style="fill:#0000ff;stroke:#000000;" x="392.54697475" xlink:href="#m303f065219" y="153.903927504"/>
     <use style="fill:#0000ff;stroke:#000000;" x="396.069555408" xlink:href="#m303f065219" y="160.456187591"/>
     <use style="fill:#0000ff;stroke:#000000;" x="406.882835535" xlink:href="#m303f065219" y="189.783776021"/>
     <use style="fill:#0000ff;stroke:#000000;" x="349.791489758" xlink:href="#m303f065219" y="127.872635797"/>
     <use style="fill:#0000ff;stroke:#000000;" x="383.109441251" xlink:href="#m303f065219" y="190.391060723"/>
     <use style="fill:#0000ff;stroke:#000000;" x="281.989285655" xlink:href="#m303f065219" y="124.892750679"/>
     <use style="fill:#0000ff;stroke:#000000;" x="382.601874857" xlink:href="#m303f065219" y="159.176275711"/>
     <use style="fill:#0000ff;stroke:#000000;" x="374.083097675" xlink:href="#m303f065219" y="155.317715335"/>
     <use style="fill:#0000ff;stroke:#000000;" x="338.385027256" xlink:href="#m303f065219" y="153.244710647"/>
     <use style="fill:#0000ff;stroke:#000000;" x="328.937404625" xlink:href="#m303f065219" y="138.019434074"/>
     <use style="fill:#0000ff;stroke:#000000;" x="319.673914674" xlink:href="#m303f065219" y="131.616586869"/>
     <use style="fill:#0000ff;stroke:#000000;" x="335.797653066" xlink:href="#m303f065219" y="148.655676276"/>
     <use style="fill:#0000ff;stroke:#000000;" x="326.677574313" xlink:href="#m303f065219" y="133.422985175"/>
     <use style="fill:#0000ff;stroke:#000000;" x="288.147717417" xlink:href="#m303f065219" y="131.171623488"/>
     <use style="fill:#0000ff;stroke:#000000;" x="265.095066308" xlink:href="#m303f065219" y="117.234427035"/>
     <use style="fill:#0000ff;stroke:#000000;" x="287.093855623" xlink:href="#m303f065219" y="128.661445171"/>
     <use style="fill:#0000ff;stroke:#000000;" x="379.835802845" xlink:href="#m303f065219" y="199.556096441"/>
     <use style="fill:#0000ff;stroke:#000000;" x="235.525322401" xlink:href="#m303f065219" y="119.130192786"/>
     <use style="fill:#0000ff;stroke:#000000;" x="348.001021415" xlink:href="#m303f065219" y="161.581444614"/>
     <use style="fill:#0000ff;stroke:#000000;" x="366.697694533" xlink:href="#m303f065219" y="166.377929878"/>
     <use style="fill:#0000ff;stroke:#000000;" x="354.993114586" xlink:href="#m303f065219" y="162.584021801"/>
     <use style="fill:#0000ff;stroke:#000000;" x="308.405097729" xlink:href="#m303f065219" y="148.212375694"/>
     <use style="fill:#0000ff;stroke:#000000;" x="376.025910427" xlink:href="#m303f065219" y="179.499127977"/>
     <use style="fill:#0000ff;stroke:#000000;" x="297.417600319" xlink:href="#m303f065219" y="144.553227708"/>
     <use style="fill:#0000ff;stroke:#000000;" x="299.487295053" xlink:href="#m303f065219" y="147.987519836"/>
     <use style="fill:#0000ff;stroke:#000000;" x="287.9862766" xlink:href="#m303f065219" y="139.385742642"/>
     <use style="fill:#0000ff;stroke:#000000;" x="283.806504377" xlink:href="#m303f065219" y="129.47359069"/>
     <use style="fill:#0000ff;stroke:#000000;" x="374.007335505" xlink:href="#m303f065219" y="208.084657076"/>
     <use style="fill:#0000ff;stroke:#000000;" x="249.944777174" xlink:href="#m303f065219" y="134.04295216"/>
     <use style="fill:#0000ff;stroke:#000000;" x="363.194305491" xlink:href="#m303f065219" y="172.760405885"/>
     <use style="fill:#0000ff;stroke:#000000;" x="348.809787734" xlink:href="#m303f065219" y="166.935615731"/>
     <use style="fill:#0000ff;stroke:#000000;" x="365.129352295" xlink:href="#m303f065219" y="186.818360299"/>
     <use style="fill:#0000ff;stroke:#000000;" x="356.866185766" xlink:href="#m303f065219" y="168.287363907"/>
     <use style="fill:#0000ff;stroke:#000000;" x="345.270085769" xlink:href="#m303f065219" y="162.636552791"/>
     <use style="fill:#0000ff;stroke:#000000;" x="305.680771859" xlink:href="#m303f065219" y="150.52848938"/>
     <use style="fill:#0000ff;stroke:#000000;" x="276.756025289" xlink:href="#m303f065219" y="140.005841685"/>
     <use style="fill:#0000ff;stroke:#000000;" x="246.371994427" xlink:href="#m303f065219" y="132.880323775"/>
     <use style="fill:#0000ff;stroke:#000000;" x="286.718292315" xlink:href="#m303f065219" y="141.595822525"/>
     <use style="fill:#0000ff;stroke:#000000;" x="357.729819349" xlink:href="#m303f065219" y="183.403578919"/>
     <use style="fill:#0000ff;stroke:#000000;" x="235.324900515" xlink:href="#m303f065219" y="135.629884537"/>
     <use style="fill:#0000ff;stroke:#000000;" x="352.735101668" xlink:href="#m303f065219" y="177.043167356"/>
     <use style="fill:#0000ff;stroke:#000000;" x="348.046991429" xlink:href="#m303f065219" y="168.244804902"/>
     <use style="fill:#0000ff;stroke:#000000;" x="318.089295302" xlink:href="#m303f065219" y="164.905271778"/>
     <use style="fill:#0000ff;stroke:#000000;" x="287.742577456" xlink:href="#m303f065219" y="152.852032679"/>
     <use style="fill:#0000ff;stroke:#000000;" x="301.877207236" xlink:href="#m303f065219" y="160.430299097"/>
     <use style="fill:#0000ff;stroke:#000000;" x="293.122143688" xlink:href="#m303f065219" y="154.715385824"/>
     <use style="fill:#0000ff;stroke:#000000;" x="301.868060193" xlink:href="#m303f065219" y="158.11268952"/>
     <use style="fill:#0000ff;stroke:#000000;" x="261.831325922" xlink:href="#m303f065219" y="140.670641204"/>
     <use style="fill:#0000ff;stroke:#000000;" x="274.05015464" xlink:href="#m303f065219" y="142.294332108"/>
     <use style="fill:#0000ff;stroke:#000000;" x="272.077791445" xlink:href="#m303f065219" y="140.80759956"/>
     <use style="fill:#0000ff;stroke:#000000;" x="243.930212534" xlink:href="#m303f065219" y="138.448451049"/>
     <use style="fill:#0000ff;stroke:#000000;" x="213.761619633" xlink:href="#m303f065219" y="133.893874979"/>
     <use style="fill:#0000ff;stroke:#000000;" x="241.719105575" xlink:href="#m303f065219" y="136.405841975"/>
     <use style="fill:#0000ff;stroke:#000000;" x="349.197078431" xlink:href="#m303f065219" y="196.399257139"/>
     <use style="fill:#0000ff;stroke:#000000;" x="266.38603916" xlink:href="#m303f065219" y="144.657290078"/>
     <use style="fill:#0000ff;stroke:#000000;" x="341.406324263" xlink:href="#m303f065219" y="180.542407039"/>
     <use style="fill:#0000ff;stroke:#000000;" x="324.270481129" xlink:href="#m303f065219" y="168.980262844"/>
     <use style="fill:#0000ff;stroke:#000000;" x="342.366859117" xlink:href="#m303f065219" y="181.486155797"/>
     <use style="fill:#0000ff;stroke:#000000;" x="292.348142167" xlink:href="#m303f065219" y="165.945146291"/>
     <use style="fill:#0000ff;stroke:#000000;" x="315.291485556" xlink:href="#m303f065219" y="167.416703861"/>
     <use style="fill:#0000ff;stroke:#000000;" x="299.01369322" xlink:href="#m303f065219" y="166.596560857"/>
     <use style="fill:#0000ff;stroke:#000000;" x="285.992041716" xlink:href="#m303f065219" y="153.718143365"/>
     <use style="fill:#0000ff;stroke:#000000;" x="288.67218354" xlink:href="#m303f065219" y="156.2178833"/>
     <use style="fill:#0000ff;stroke:#000000;" x="271.212349506" xlink:href="#m303f065219" y="152.666811293"/>
     <use style="fill:#0000ff;stroke:#000000;" x="248.050647125" xlink:href="#m303f065219" y="143.752108166"/>
     <use style="fill:#0000ff;stroke:#000000;" x="196.325102723" xlink:href="#m303f065219" y="142.726816247"/>
     <use style="fill:#0000ff;stroke:#000000;" x="330.843992614" xlink:href="#m303f065219" y="205.419160369"/>
     <use style="fill:#0000ff;stroke:#000000;" x="255.270748176" xlink:href="#m303f065219" y="144.92377165"/>
     <use style="fill:#0000ff;stroke:#000000;" x="342.646168079" xlink:href="#m303f065219" y="213.143363225"/>
     <use style="fill:#0000ff;stroke:#000000;" x="327.628345561" xlink:href="#m303f065219" y="181.717358748"/>
     <use style="fill:#0000ff;stroke:#000000;" x="328.457192222" xlink:href="#m303f065219" y="184.758440359"/>
     <use style="fill:#0000ff;stroke:#000000;" x="329.237881755" xlink:href="#m303f065219" y="193.143094269"/>
     <use style="fill:#0000ff;stroke:#000000;" x="315.607832326" xlink:href="#m303f065219" y="171.961853312"/>
     <use style="fill:#0000ff;stroke:#000000;" x="312.584890319" xlink:href="#m303f065219" y="167.631362638"/>
     <use style="fill:#0000ff;stroke:#000000;" x="278.187894033" xlink:href="#m303f065219" y="156.848051865"/>
     <use style="fill:#0000ff;stroke:#000000;" x="274.032058336" xlink:href="#m303f065219" y="156.26978039"/>
     <use style="fill:#0000ff;stroke:#000000;" x="192.847462955" xlink:href="#m303f065219" y="143.057951891"/>
     <use style="fill:#0000ff;stroke:#000000;" x="206.827011319" xlink:href="#m303f065219" y="144.332239979"/>
     <use style="fill:#0000ff;stroke:#000000;" x="265.983336353" xlink:href="#m303f065219" y="145.026852162"/>
     <use style="fill:#0000ff;stroke:#000000;" x="287.828154886" xlink:href="#m303f065219" y="164.111957505"/>
     <use style="fill:#0000ff;stroke:#000000;" x="339.895075252" xlink:href="#m303f065219" y="238.316697115"/>
     <use style="fill:#0000ff;stroke:#000000;" x="238.590409932" xlink:href="#m303f065219" y="148.490464413"/>
     <use style="fill:#0000ff;stroke:#000000;" x="317.553300357" xlink:href="#m303f065219" y="187.147925748"/>
     <use style="fill:#0000ff;stroke:#000000;" x="326.679323524" xlink:href="#m303f065219" y="189.062600811"/>
     <use style="fill:#0000ff;stroke:#000000;" x="305.805202039" xlink:href="#m303f065219" y="173.651211983"/>
     <use style="fill:#0000ff;stroke:#000000;" x="303.675907101" xlink:href="#m303f065219" y="168.346441643"/>
     <use style="fill:#0000ff;stroke:#000000;" x="300.553880135" xlink:href="#m303f065219" y="168.137668237"/>
     <use style="fill:#0000ff;stroke:#000000;" x="310.824278408" xlink:href="#m303f065219" y="180.082418582"/>
     <use style="fill:#0000ff;stroke:#000000;" x="287.000215877" xlink:href="#m303f065219" y="166.401661311"/>
    </g>
   </g>
   <g id="PathCollection_2">
    <defs>
     <path d="M 0 1.118034 
C 0.296506 1.118034 0.580908 1.000231 0.790569 0.790569 
C 1.000231 0.580908 1.118034 0.296506 1.118034 0 
C 1.118034 -0.296506 1.000231 -0.580908 0.790569 -0.790569 
C 0.580908 -1.000231 0.296506 -1.118034 0 -1.118034 
C -0.296506 -1.118034 -0.580908 -1.000231 -0.790569 -0.790569 
C -1.000231 -0.580908 -1.118034 -0.296506 -1.118034 0 
C -1.118034 0.296506 -1.000231 0.580908 -0.790569 0.790569 
C -0.580908 1.000231 -0.296506 1.118034 0 1.118034 
z
" id="mdfc35a3de7" style="stroke:#000000;"/>
    </defs>
    <g clip-path="url(#pbd9d278497)">
     <use style="stroke:#000000;" x="419.51463594" xlink:href="#mdfc35a3de7" y="159.929723885"/>
     <use style="stroke:#000000;" x="380.347919758" xlink:href="#mdfc35a3de7" y="99.4951419238"/>
     <use style="stroke:#000000;" x="393.893205914" xlink:href="#mdfc35a3de7" y="135.595354855"/>
     <use style="stroke:#000000;" x="410.84615836" xlink:href="#mdfc35a3de7" y="136.192442161"/>
     <use style="stroke:#000000;" x="456.236983347" xlink:href="#mdfc35a3de7" y="168.519124888"/>
     <use style="stroke:#000000;" x="402.798268467" xlink:href="#mdfc35a3de7" y="141.112374125"/>
     <use style="stroke:#000000;" x="369.0659608" xlink:href="#mdfc35a3de7" y="105.259972858"/>
     <use style="stroke:#000000;" x="406.444580668" xlink:href="#mdfc35a3de7" y="151.596044522"/>
     <use style="stroke:#000000;" x="430.064910048" xlink:href="#mdfc35a3de7" y="173.710032784"/>
     <use style="stroke:#000000;" x="398.302914428" xlink:href="#mdfc35a3de7" y="183.507838158"/>
     <use style="stroke:#000000;" x="306.122324616" xlink:href="#mdfc35a3de7" y="117.103125517"/>
     <use style="stroke:#000000;" x="392.54697475" xlink:href="#mdfc35a3de7" y="153.903927504"/>
     <use style="stroke:#000000;" x="396.069555408" xlink:href="#mdfc35a3de7" y="160.456187591"/>
     <use style="stroke:#000000;" x="406.882835535" xlink:href="#mdfc35a3de7" y="189.783776021"/>
     <use style="stroke:#000000;" x="349.791489758" xlink:href="#mdfc35a3de7" y="127.872635797"/>
     <use style="stroke:#000000;" x="383.109441251" xlink:href="#mdfc35a3de7" y="190.391060723"/>
     <use style="stroke:#000000;" x="281.989285655" xlink:href="#mdfc35a3de7" y="124.892750679"/>
     <use style="stroke:#000000;" x="382.601874857" xlink:href="#mdfc35a3de7" y="159.176275711"/>
     <use style="stroke:#000000;" x="374.083097675" xlink:href="#mdfc35a3de7" y="155.317715335"/>
     <use style="stroke:#000000;" x="338.385027256" xlink:href="#mdfc35a3de7" y="153.244710647"/>
     <use style="stroke:#000000;" x="328.937404625" xlink:href="#mdfc35a3de7" y="138.019434074"/>
     <use style="stroke:#000000;" x="319.673914674" xlink:href="#mdfc35a3de7" y="131.616586869"/>
     <use style="stroke:#000000;" x="335.797653066" xlink:href="#mdfc35a3de7" y="148.655676276"/>
     <use style="stroke:#000000;" x="326.677574313" xlink:href="#mdfc35a3de7" y="133.422985175"/>
     <use style="stroke:#000000;" x="288.147717417" xlink:href="#mdfc35a3de7" y="131.171623488"/>
     <use style="stroke:#000000;" x="265.095066308" xlink:href="#mdfc35a3de7" y="117.234427035"/>
     <use style="stroke:#000000;" x="287.093855623" xlink:href="#mdfc35a3de7" y="128.661445171"/>
     <use style="stroke:#000000;" x="379.835802845" xlink:href="#mdfc35a3de7" y="199.556096441"/>
     <use style="stroke:#000000;" x="235.525322401" xlink:href="#mdfc35a3de7" y="119.130192786"/>
     <use style="stroke:#000000;" x="348.001021415" xlink:href="#mdfc35a3de7" y="161.581444614"/>
     <use style="stroke:#000000;" x="366.697694533" xlink:href="#mdfc35a3de7" y="166.377929878"/>
     <use style="stroke:#000000;" x="354.993114586" xlink:href="#mdfc35a3de7" y="162.584021801"/>
     <use style="stroke:#000000;" x="308.405097729" xlink:href="#mdfc35a3de7" y="148.212375694"/>
     <use style="stroke:#000000;" x="376.025910427" xlink:href="#mdfc35a3de7" y="179.499127977"/>
     <use style="stroke:#000000;" x="297.417600319" xlink:href="#mdfc35a3de7" y="144.553227708"/>
     <use style="stroke:#000000;" x="299.487295053" xlink:href="#mdfc35a3de7" y="147.987519836"/>
     <use style="stroke:#000000;" x="287.9862766" xlink:href="#mdfc35a3de7" y="139.385742642"/>
     <use style="stroke:#000000;" x="283.806504377" xlink:href="#mdfc35a3de7" y="129.47359069"/>
     <use style="stroke:#000000;" x="374.007335505" xlink:href="#mdfc35a3de7" y="208.084657076"/>
     <use style="stroke:#000000;" x="249.944777174" xlink:href="#mdfc35a3de7" y="134.04295216"/>
     <use style="stroke:#000000;" x="363.194305491" xlink:href="#mdfc35a3de7" y="172.760405885"/>
     <use style="stroke:#000000;" x="348.809787734" xlink:href="#mdfc35a3de7" y="166.935615731"/>
     <use style="stroke:#000000;" x="365.129352295" xlink:href="#mdfc35a3de7" y="186.818360299"/>
     <use style="stroke:#000000;" x="356.866185766" xlink:href="#mdfc35a3de7" y="168.287363907"/>
     <use style="stroke:#000000;" x="345.270085769" xlink:href="#mdfc35a3de7" y="162.636552791"/>
     <use style="stroke:#000000;" x="305.680771859" xlink:href="#mdfc35a3de7" y="150.52848938"/>
     <use style="stroke:#000000;" x="276.756025289" xlink:href="#mdfc35a3de7" y="140.005841685"/>
     <use style="stroke:#000000;" x="246.371994427" xlink:href="#mdfc35a3de7" y="132.880323775"/>
     <use style="stroke:#000000;" x="286.718292315" xlink:href="#mdfc35a3de7" y="141.595822525"/>
     <use style="stroke:#000000;" x="357.729819349" xlink:href="#mdfc35a3de7" y="183.403578919"/>
     <use style="stroke:#000000;" x="235.324900515" xlink:href="#mdfc35a3de7" y="135.629884537"/>
     <use style="stroke:#000000;" x="352.735101668" xlink:href="#mdfc35a3de7" y="177.043167356"/>
     <use style="stroke:#000000;" x="348.046991429" xlink:href="#mdfc35a3de7" y="168.244804902"/>
     <use style="stroke:#000000;" x="318.089295302" xlink:href="#mdfc35a3de7" y="164.905271778"/>
     <use style="stroke:#000000;" x="287.742577456" xlink:href="#mdfc35a3de7" y="152.852032679"/>
     <use style="stroke:#000000;" x="301.877207236" xlink:href="#mdfc35a3de7" y="160.430299097"/>
     <use style="stroke:#000000;" x="293.122143688" xlink:href="#mdfc35a3de7" y="154.715385824"/>
     <use style="stroke:#000000;" x="301.868060193" xlink:href="#mdfc35a3de7" y="158.11268952"/>
     <use style="stroke:#000000;" x="261.831325922" xlink:href="#mdfc35a3de7" y="140.670641204"/>
     <use style="stroke:#000000;" x="274.05015464" xlink:href="#mdfc35a3de7" y="142.294332108"/>
     <use style="stroke:#000000;" x="272.077791445" xlink:href="#mdfc35a3de7" y="140.80759956"/>
     <use style="stroke:#000000;" x="243.930212534" xlink:href="#mdfc35a3de7" y="138.448451049"/>
     <use style="stroke:#000000;" x="213.761619633" xlink:href="#mdfc35a3de7" y="133.893874979"/>
     <use style="stroke:#000000;" x="241.719105575" xlink:href="#mdfc35a3de7" y="136.405841975"/>
     <use style="stroke:#000000;" x="349.197078431" xlink:href="#mdfc35a3de7" y="196.399257139"/>
     <use style="stroke:#000000;" x="266.38603916" xlink:href="#mdfc35a3de7" y="144.657290078"/>
     <use style="stroke:#000000;" x="341.406324263" xlink:href="#mdfc35a3de7" y="180.542407039"/>
     <use style="stroke:#000000;" x="324.270481129" xlink:href="#mdfc35a3de7" y="168.980262844"/>
     <use style="stroke:#000000;" x="342.366859117" xlink:href="#mdfc35a3de7" y="181.486155797"/>
     <use style="stroke:#000000;" x="292.348142167" xlink:href="#mdfc35a3de7" y="165.945146291"/>
     <use style="stroke:#000000;" x="315.291485556" xlink:href="#mdfc35a3de7" y="167.416703861"/>
     <use style="stroke:#000000;" x="299.01369322" xlink:href="#mdfc35a3de7" y="166.596560857"/>
     <use style="stroke:#000000;" x="285.992041716" xlink:href="#mdfc35a3de7" y="153.718143365"/>
     <use style="stroke:#000000;" x="288.67218354" xlink:href="#mdfc35a3de7" y="156.2178833"/>
     <use style="stroke:#000000;" x="271.212349506" xlink:href="#mdfc35a3de7" y="152.666811293"/>
     <use style="stroke:#000000;" x="248.050647125" xlink:href="#mdfc35a3de7" y="143.752108166"/>
     <use style="stroke:#000000;" x="196.325102723" xlink:href="#mdfc35a3de7" y="142.726816247"/>
     <use style="stroke:#000000;" x="330.843992614" xlink:href="#mdfc35a3de7" y="205.419160369"/>
     <use style="stroke:#000000;" x="255.270748176" xlink:href="#mdfc35a3de7" y="144.92377165"/>
     <use style="stroke:#000000;" x="342.646168079" xlink:href="#mdfc35a3de7" y="213.143363225"/>
     <use style="stroke:#000000;" x="327.628345561" xlink:href="#mdfc35a3de7" y="181.717358748"/>
     <use style="stroke:#000000;" x="328.457192222" xlink:href="#mdfc35a3de7" y="184.758440359"/>
     <use style="stroke:#000000;" x="329.237881755" xlink:href="#mdfc35a3de7" y="193.143094269"/>
     <use style="stroke:#000000;" x="315.607832326" xlink:href="#mdfc35a3de7" y="171.961853312"/>
     <use style="stroke:#000000;" x="312.584890319" xlink:href="#mdfc35a3de7" y="167.631362638"/>
     <use style="stroke:#000000;" x="278.187894033" xlink:href="#mdfc35a3de7" y="156.848051865"/>
     <use style="stroke:#000000;" x="274.032058336" xlink:href="#mdfc35a3de7" y="156.26978039"/>
     <use style="stroke:#000000;" x="192.847462955" xlink:href="#mdfc35a3de7" y="143.057951891"/>
     <use style="stroke:#000000;" x="206.827011319" xlink:href="#mdfc35a3de7" y="144.332239979"/>
     <use style="stroke:#000000;" x="265.983336353" xlink:href="#mdfc35a3de7" y="145.026852162"/>
     <use style="stroke:#000000;" x="287.828154886" xlink:href="#mdfc35a3de7" y="164.111957505"/>
     <use style="stroke:#000000;" x="339.895075252" xlink:href="#mdfc35a3de7" y="238.316697115"/>
     <use style="stroke:#000000;" x="238.590409932" xlink:href="#mdfc35a3de7" y="148.490464413"/>
     <use style="stroke:#000000;" x="317.553300357" xlink:href="#mdfc35a3de7" y="187.147925748"/>
     <use style="stroke:#000000;" x="326.679323524" xlink:href="#mdfc35a3de7" y="189.062600811"/>
     <use style="stroke:#000000;" x="305.805202039" xlink:href="#mdfc35a3de7" y="173.651211983"/>
     <use style="stroke:#000000;" x="303.675907101" xlink:href="#mdfc35a3de7" y="168.346441643"/>
     <use style="stroke:#000000;" x="300.553880135" xlink:href="#mdfc35a3de7" y="168.137668237"/>
     <use style="stroke:#000000;" x="310.824278408" xlink:href="#mdfc35a3de7" y="180.082418582"/>
     <use style="stroke:#000000;" x="287.000215877" xlink:href="#mdfc35a3de7" y="166.401661311"/>
     <use style="stroke:#000000;" x="173.727863429" xlink:href="#mdfc35a3de7" y="169.561560718"/>
     <use style="stroke:#000000;" x="213.707832675" xlink:href="#mdfc35a3de7" y="208.888228877"/>
     <use style="stroke:#000000;" x="210.097760654" xlink:href="#mdfc35a3de7" y="153.463368545"/>
     <use style="stroke:#000000;" x="171.21348381" xlink:href="#mdfc35a3de7" y="224.913959307"/>
     <use style="stroke:#000000;" x="193.953793653" xlink:href="#mdfc35a3de7" y="244.682695462"/>
     <use style="stroke:#000000;" x="164.889878579" xlink:href="#mdfc35a3de7" y="302.897323496"/>
     <use style="stroke:#000000;" x="182.398206199" xlink:href="#mdfc35a3de7" y="283.727449723"/>
     <use style="stroke:#000000;" x="192.077423796" xlink:href="#mdfc35a3de7" y="175.482890294"/>
     <use style="stroke:#000000;" x="163.766548094" xlink:href="#mdfc35a3de7" y="275.297837509"/>
     <use style="stroke:#000000;" x="167.830626049" xlink:href="#mdfc35a3de7" y="272.442646465"/>
     <use style="stroke:#000000;" x="162.866863345" xlink:href="#mdfc35a3de7" y="310.316404952"/>
     <use style="stroke:#000000;" x="170.434163142" xlink:href="#mdfc35a3de7" y="269.212481841"/>
     <use style="stroke:#000000;" x="177.034160514" xlink:href="#mdfc35a3de7" y="248.099086114"/>
     <use style="stroke:#000000;" x="470.698921791" xlink:href="#mdfc35a3de7" y="130.639467878"/>
     <use style="stroke:#000000;" x="173.611438779" xlink:href="#mdfc35a3de7" y="253.392832137"/>
     <use style="stroke:#000000;" x="172.68487862" xlink:href="#mdfc35a3de7" y="269.386404446"/>
     <use style="stroke:#000000;" x="168.213709666" xlink:href="#mdfc35a3de7" y="297.248926382"/>
     <use style="stroke:#000000;" x="455.564731772" xlink:href="#mdfc35a3de7" y="176.14484977"/>
     <use style="stroke:#000000;" x="172.030845791" xlink:href="#mdfc35a3de7" y="251.561971273"/>
     <use style="stroke:#000000;" x="163.868080313" xlink:href="#mdfc35a3de7" y="328.424014897"/>
     <use style="stroke:#000000;" x="169.897404954" xlink:href="#mdfc35a3de7" y="225.769364281"/>
     <use style="stroke:#000000;" x="184.694580301" xlink:href="#mdfc35a3de7" y="235.997402424"/>
     <use style="stroke:#000000;" x="163.715693892" xlink:href="#mdfc35a3de7" y="216.999137099"/>
     <use style="stroke:#000000;" x="176.334980986" xlink:href="#mdfc35a3de7" y="176.455376918"/>
     <use style="stroke:#000000;" x="289.743299577" xlink:href="#mdfc35a3de7" y="222.576800876"/>
     <use style="stroke:#000000;" x="228.396763025" xlink:href="#mdfc35a3de7" y="216.657777403"/>
     <use style="stroke:#000000;" x="170.19239373" xlink:href="#mdfc35a3de7" y="242.166723507"/>
     <use style="stroke:#000000;" x="228.489051328" xlink:href="#mdfc35a3de7" y="145.441093544"/>
     <use style="stroke:#000000;" x="194.0026593" xlink:href="#mdfc35a3de7" y="225.32828647"/>
     <use style="stroke:#000000;" x="181.671716931" xlink:href="#mdfc35a3de7" y="282.444738706"/>
     <use style="stroke:#000000;" x="216.946954615" xlink:href="#mdfc35a3de7" y="221.242646176"/>
     <use style="stroke:#000000;" x="168.464572378" xlink:href="#mdfc35a3de7" y="243.876435994"/>
     <use style="stroke:#000000;" x="167.808757791" xlink:href="#mdfc35a3de7" y="296.491383495"/>
     <use style="stroke:#000000;" x="181.512652357" xlink:href="#mdfc35a3de7" y="233.760035309"/>
     <use style="stroke:#000000;" x="182.845615415" xlink:href="#mdfc35a3de7" y="225.288949232"/>
     <use style="stroke:#000000;" x="166.931605306" xlink:href="#mdfc35a3de7" y="258.347390157"/>
     <use style="stroke:#000000;" x="189.136642365" xlink:href="#mdfc35a3de7" y="237.87310392"/>
     <use style="stroke:#000000;" x="179.974071276" xlink:href="#mdfc35a3de7" y="212.651633234"/>
     <use style="stroke:#000000;" x="171.079250795" xlink:href="#mdfc35a3de7" y="273.722424022"/>
     <use style="stroke:#000000;" x="261.235460762" xlink:href="#mdfc35a3de7" y="191.841035371"/>
     <use style="stroke:#000000;" x="253.921609092" xlink:href="#mdfc35a3de7" y="188.669427795"/>
     <use style="stroke:#000000;" x="203.813884494" xlink:href="#mdfc35a3de7" y="225.50421223"/>
     <use style="stroke:#000000;" x="185.531151215" xlink:href="#mdfc35a3de7" y="243.466052687"/>
     <use style="stroke:#000000;" x="173.929180268" xlink:href="#mdfc35a3de7" y="222.46445675"/>
     <use style="stroke:#000000;" x="176.595396238" xlink:href="#mdfc35a3de7" y="201.159816295"/>
     <use style="stroke:#000000;" x="171.37728836" xlink:href="#mdfc35a3de7" y="259.672847637"/>
     <use style="stroke:#000000;" x="170.445564166" xlink:href="#mdfc35a3de7" y="282.493103183"/>
     <use style="stroke:#000000;" x="171.416668768" xlink:href="#mdfc35a3de7" y="234.921620951"/>
     <use style="stroke:#000000;" x="171.707375559" xlink:href="#mdfc35a3de7" y="243.685981433"/>
     <use style="stroke:#000000;" x="186.766147658" xlink:href="#mdfc35a3de7" y="229.931316533"/>
    </g>
   </g>
   <g id="patch_3">
    <path d="M 72 388.8 
L 518.4 388.8 
" style="fill:none;stroke:#000000;stroke-linecap:square;stroke-linejoin:miter;"/>
   </g>
   <g id="patch_4">
    <path d="M 518.4 388.8 
L 518.4 43.2 
" style="fill:none;stroke:#000000;stroke-linecap:square;stroke-linejoin:miter;"/>
   </g>
   <g id="patch_5">
    <path d="M 72 388.8 
L 72 43.2 
" style="fill:none;stroke:#000000;stroke-linecap:square;stroke-linejoin:miter;"/>
   </g>
   <g id="patch_6">
    <path d="M 72 43.2 
L 518.4 43.2 
" style="fill:none;stroke:#000000;stroke-linecap:square;stroke-linejoin:miter;"/>
   </g>
   <g id="matplotlib.axis_1">
    <g id="xtick_1">
     <g id="line2d_1">
      <defs>
       <path d="M 0 0 
L 0 -4 
" id="ma1aef2888e" style="stroke:#000000;stroke-width:0.5;"/>
      </defs>
      <g>
       <use style="stroke:#000000;stroke-width:0.5;" x="72.0" xlink:href="#ma1aef2888e" y="388.8"/>
      </g>
     </g>
     <g id="line2d_2">
      <defs>
       <path d="M 0 0 
L 0 4 
" id="m337a836e10" style="stroke:#000000;stroke-width:0.5;"/>
      </defs>
      <g>
       <use style="stroke:#000000;stroke-width:0.5;" x="72.0" xlink:href="#m337a836e10" y="43.2"/>
      </g>
     </g>
     <g id="text_1">
      <!-- −5 -->
      <defs>
       <path d="M 10.796875 72.90625 
L 49.515625 72.90625 
L 49.515625 64.59375 
L 19.828125 64.59375 
L 19.828125 46.734375 
Q 21.96875 47.46875 24.109375 47.828125 
Q 26.265625 48.1875 28.421875 48.1875 
Q 40.625 48.1875 47.75 41.5 
Q 54.890625 34.8125 54.890625 23.390625 
Q 54.890625 11.625 47.5625 5.09375 
Q 40.234375 -1.421875 26.90625 -1.421875 
Q 22.3125 -1.421875 17.546875 -0.640625 
Q 12.796875 0.140625 7.71875 1.703125 
L 7.71875 11.625 
Q 12.109375 9.234375 16.796875 8.0625 
Q 21.484375 6.890625 26.703125 6.890625 
Q 35.15625 6.890625 40.078125 11.328125 
Q 45.015625 15.765625 45.015625 23.390625 
Q 45.015625 31 40.078125 35.4375 
Q 35.15625 39.890625 26.703125 39.890625 
Q 22.75 39.890625 18.8125 39.015625 
Q 14.890625 38.140625 10.796875 36.28125 
z
" id="BitstreamVeraSans-Roman-35"/>
       <path d="M 10.59375 35.5 
L 73.1875 35.5 
L 73.1875 27.203125 
L 10.59375 27.203125 
z
" id="BitstreamVeraSans-Roman-2212"/>
      </defs>
      <g transform="translate(63.1546875 401.918125)scale(0.12 -0.12)">
       <use xlink:href="#BitstreamVeraSans-Roman-2212"/>
       <use x="83.7890625" xlink:href="#BitstreamVeraSans-Roman-35"/>
      </g>
     </g>
    </g>
    <g id="xtick_2">
     <g id="line2d_3">
      <g>
       <use style="stroke:#000000;stroke-width:0.5;" x="161.28" xlink:href="#ma1aef2888e" y="388.8"/>
      </g>
     </g>
     <g id="line2d_4">
      <g>
       <use style="stroke:#000000;stroke-width:0.5;" x="161.28" xlink:href="#m337a836e10" y="43.2"/>
      </g>
     </g>
     <g id="text_2">
      <!-- 0 -->
      <defs>
       <path d="M 31.78125 66.40625 
Q 24.171875 66.40625 20.328125 58.90625 
Q 16.5 51.421875 16.5 36.375 
Q 16.5 21.390625 20.328125 13.890625 
Q 24.171875 6.390625 31.78125 6.390625 
Q 39.453125 6.390625 43.28125 13.890625 
Q 47.125 21.390625 47.125 36.375 
Q 47.125 51.421875 43.28125 58.90625 
Q 39.453125 66.40625 31.78125 66.40625 
M 31.78125 74.21875 
Q 44.046875 74.21875 50.515625 64.515625 
Q 56.984375 54.828125 56.984375 36.375 
Q 56.984375 17.96875 50.515625 8.265625 
Q 44.046875 -1.421875 31.78125 -1.421875 
Q 19.53125 -1.421875 13.0625 8.265625 
Q 6.59375 17.96875 6.59375 36.375 
Q 6.59375 54.828125 13.0625 64.515625 
Q 19.53125 74.21875 31.78125 74.21875 
" id="BitstreamVeraSans-Roman-30"/>
      </defs>
      <g transform="translate(157.4625 401.918125)scale(0.12 -0.12)">
       <use xlink:href="#BitstreamVeraSans-Roman-30"/>
      </g>
     </g>
    </g>
    <g id="xtick_3">
     <g id="line2d_5">
      <g>
       <use style="stroke:#000000;stroke-width:0.5;" x="250.56" xlink:href="#ma1aef2888e" y="388.8"/>
      </g>
     </g>
     <g id="line2d_6">
      <g>
       <use style="stroke:#000000;stroke-width:0.5;" x="250.56" xlink:href="#m337a836e10" y="43.2"/>
      </g>
     </g>
     <g id="text_3">
      <!-- 5 -->
      <g transform="translate(246.7425 401.918125)scale(0.12 -0.12)">
       <use xlink:href="#BitstreamVeraSans-Roman-35"/>
      </g>
     </g>
    </g>
    <g id="xtick_4">
     <g id="line2d_7">
      <g>
       <use style="stroke:#000000;stroke-width:0.5;" x="339.84" xlink:href="#ma1aef2888e" y="388.8"/>
      </g>
     </g>
     <g id="line2d_8">
      <g>
       <use style="stroke:#000000;stroke-width:0.5;" x="339.84" xlink:href="#m337a836e10" y="43.2"/>
      </g>
     </g>
     <g id="text_4">
      <!-- 10 -->
      <defs>
       <path d="M 12.40625 8.296875 
L 28.515625 8.296875 
L 28.515625 63.921875 
L 10.984375 60.40625 
L 10.984375 69.390625 
L 28.421875 72.90625 
L 38.28125 72.90625 
L 38.28125 8.296875 
L 54.390625 8.296875 
L 54.390625 0 
L 12.40625 0 
z
" id="BitstreamVeraSans-Roman-31"/>
      </defs>
      <g transform="translate(332.205 401.918125)scale(0.12 -0.12)">
       <use xlink:href="#BitstreamVeraSans-Roman-31"/>
       <use x="63.623046875" xlink:href="#BitstreamVeraSans-Roman-30"/>
      </g>
     </g>
    </g>
    <g id="xtick_5">
     <g id="line2d_9">
      <g>
       <use style="stroke:#000000;stroke-width:0.5;" x="429.12" xlink:href="#ma1aef2888e" y="388.8"/>
      </g>
     </g>
     <g id="line2d_10">
      <g>
       <use style="stroke:#000000;stroke-width:0.5;" x="429.12" xlink:href="#m337a836e10" y="43.2"/>
      </g>
     </g>
     <g id="text_5">
      <!-- 15 -->
      <g transform="translate(421.485 401.918125)scale(0.12 -0.12)">
       <use xlink:href="#BitstreamVeraSans-Roman-31"/>
       <use x="63.623046875" xlink:href="#BitstreamVeraSans-Roman-35"/>
      </g>
     </g>
    </g>
    <g id="xtick_6">
     <g id="line2d_11">
      <g>
       <use style="stroke:#000000;stroke-width:0.5;" x="518.4" xlink:href="#ma1aef2888e" y="388.8"/>
      </g>
     </g>
     <g id="line2d_12">
      <g>
       <use style="stroke:#000000;stroke-width:0.5;" x="518.4" xlink:href="#m337a836e10" y="43.2"/>
      </g>
     </g>
     <g id="text_6">
      <!-- 20 -->
      <defs>
       <path d="M 19.1875 8.296875 
L 53.609375 8.296875 
L 53.609375 0 
L 7.328125 0 
L 7.328125 8.296875 
Q 12.9375 14.109375 22.625 23.890625 
Q 32.328125 33.6875 34.8125 36.53125 
Q 39.546875 41.84375 41.421875 45.53125 
Q 43.3125 49.21875 43.3125 52.78125 
Q 43.3125 58.59375 39.234375 62.25 
Q 35.15625 65.921875 28.609375 65.921875 
Q 23.96875 65.921875 18.8125 64.3125 
Q 13.671875 62.703125 7.8125 59.421875 
L 7.8125 69.390625 
Q 13.765625 71.78125 18.9375 73 
Q 24.125 74.21875 28.421875 74.21875 
Q 39.75 74.21875 46.484375 68.546875 
Q 53.21875 62.890625 53.21875 53.421875 
Q 53.21875 48.921875 51.53125 44.890625 
Q 49.859375 40.875 45.40625 35.40625 
Q 44.1875 33.984375 37.640625 27.21875 
Q 31.109375 20.453125 19.1875 8.296875 
" id="BitstreamVeraSans-Roman-32"/>
      </defs>
      <g transform="translate(510.765 401.918125)scale(0.12 -0.12)">
       <use xlink:href="#BitstreamVeraSans-Roman-32"/>
       <use x="63.623046875" xlink:href="#BitstreamVeraSans-Roman-30"/>
      </g>
     </g>
    </g>
   </g>
   <g id="matplotlib.axis_2">
    <g id="ytick_1">
     <g id="line2d_13">
      <defs>
       <path d="M 0 0 
L 4 0 
" id="m618004ddfb" style="stroke:#000000;stroke-width:0.5;"/>
      </defs>
      <g>
       <use style="stroke:#000000;stroke-width:0.5;" x="72.0" xlink:href="#m618004ddfb" y="388.8"/>
      </g>
     </g>
     <g id="line2d_14">
      <defs>
       <path d="M 0 0 
L -4 0 
" id="m04ec050423" style="stroke:#000000;stroke-width:0.5;"/>
      </defs>
      <g>
       <use style="stroke:#000000;stroke-width:0.5;" x="518.4" xlink:href="#m04ec050423" y="388.8"/>
      </g>
     </g>
     <g id="text_7">
      <!-- −50 -->
      <g transform="translate(42.674375 392.11125)scale(0.12 -0.12)">
       <use xlink:href="#BitstreamVeraSans-Roman-2212"/>
       <use x="83.7890625" xlink:href="#BitstreamVeraSans-Roman-35"/>
       <use x="147.412109375" xlink:href="#BitstreamVeraSans-Roman-30"/>
      </g>
     </g>
    </g>
    <g id="ytick_2">
     <g id="line2d_15">
      <g>
       <use style="stroke:#000000;stroke-width:0.5;" x="72.0" xlink:href="#m618004ddfb" y="339.428571429"/>
      </g>
     </g>
     <g id="line2d_16">
      <g>
       <use style="stroke:#000000;stroke-width:0.5;" x="518.4" xlink:href="#m04ec050423" y="339.428571429"/>
      </g>
     </g>
     <g id="text_8">
      <!-- −40 -->
      <defs>
       <path d="M 37.796875 64.3125 
L 12.890625 25.390625 
L 37.796875 25.390625 
z
M 35.203125 72.90625 
L 47.609375 72.90625 
L 47.609375 25.390625 
L 58.015625 25.390625 
L 58.015625 17.1875 
L 47.609375 17.1875 
L 47.609375 0 
L 37.796875 0 
L 37.796875 17.1875 
L 4.890625 17.1875 
L 4.890625 26.703125 
z
" id="BitstreamVeraSans-Roman-34"/>
      </defs>
      <g transform="translate(42.674375 342.739821429)scale(0.12 -0.12)">
       <use xlink:href="#BitstreamVeraSans-Roman-2212"/>
       <use x="83.7890625" xlink:href="#BitstreamVeraSans-Roman-34"/>
       <use x="147.412109375" xlink:href="#BitstreamVeraSans-Roman-30"/>
      </g>
     </g>
    </g>
    <g id="ytick_3">
     <g id="line2d_17">
      <g>
       <use style="stroke:#000000;stroke-width:0.5;" x="72.0" xlink:href="#m618004ddfb" y="290.057142857"/>
      </g>
     </g>
     <g id="line2d_18">
      <g>
       <use style="stroke:#000000;stroke-width:0.5;" x="518.4" xlink:href="#m04ec050423" y="290.057142857"/>
      </g>
     </g>
     <g id="text_9">
      <!-- −30 -->
      <defs>
       <path d="M 40.578125 39.3125 
Q 47.65625 37.796875 51.625 33 
Q 55.609375 28.21875 55.609375 21.1875 
Q 55.609375 10.40625 48.1875 4.484375 
Q 40.765625 -1.421875 27.09375 -1.421875 
Q 22.515625 -1.421875 17.65625 -0.515625 
Q 12.796875 0.390625 7.625 2.203125 
L 7.625 11.71875 
Q 11.71875 9.328125 16.59375 8.109375 
Q 21.484375 6.890625 26.8125 6.890625 
Q 36.078125 6.890625 40.9375 10.546875 
Q 45.796875 14.203125 45.796875 21.1875 
Q 45.796875 27.640625 41.28125 31.265625 
Q 36.765625 34.90625 28.71875 34.90625 
L 20.21875 34.90625 
L 20.21875 43.015625 
L 29.109375 43.015625 
Q 36.375 43.015625 40.234375 45.921875 
Q 44.09375 48.828125 44.09375 54.296875 
Q 44.09375 59.90625 40.109375 62.90625 
Q 36.140625 65.921875 28.71875 65.921875 
Q 24.65625 65.921875 20.015625 65.03125 
Q 15.375 64.15625 9.8125 62.3125 
L 9.8125 71.09375 
Q 15.4375 72.65625 20.34375 73.4375 
Q 25.25 74.21875 29.59375 74.21875 
Q 40.828125 74.21875 47.359375 69.109375 
Q 53.90625 64.015625 53.90625 55.328125 
Q 53.90625 49.265625 50.4375 45.09375 
Q 46.96875 40.921875 40.578125 39.3125 
" id="BitstreamVeraSans-Roman-33"/>
      </defs>
      <g transform="translate(42.674375 293.368392857)scale(0.12 -0.12)">
       <use xlink:href="#BitstreamVeraSans-Roman-2212"/>
       <use x="83.7890625" xlink:href="#BitstreamVeraSans-Roman-33"/>
       <use x="147.412109375" xlink:href="#BitstreamVeraSans-Roman-30"/>
      </g>
     </g>
    </g>
    <g id="ytick_4">
     <g id="line2d_19">
      <g>
       <use style="stroke:#000000;stroke-width:0.5;" x="72.0" xlink:href="#m618004ddfb" y="240.685714286"/>
      </g>
     </g>
     <g id="line2d_20">
      <g>
       <use style="stroke:#000000;stroke-width:0.5;" x="518.4" xlink:href="#m04ec050423" y="240.685714286"/>
      </g>
     </g>
     <g id="text_10">
      <!-- −20 -->
      <g transform="translate(42.674375 243.996964286)scale(0.12 -0.12)">
       <use xlink:href="#BitstreamVeraSans-Roman-2212"/>
       <use x="83.7890625" xlink:href="#BitstreamVeraSans-Roman-32"/>
       <use x="147.412109375" xlink:href="#BitstreamVeraSans-Roman-30"/>
      </g>
     </g>
    </g>
    <g id="ytick_5">
     <g id="line2d_21">
      <g>
       <use style="stroke:#000000;stroke-width:0.5;" x="72.0" xlink:href="#m618004ddfb" y="191.314285714"/>
      </g>
     </g>
     <g id="line2d_22">
      <g>
       <use style="stroke:#000000;stroke-width:0.5;" x="518.4" xlink:href="#m04ec050423" y="191.314285714"/>
      </g>
     </g>
     <g id="text_11">
      <!-- −10 -->
      <g transform="translate(42.674375 194.625535714)scale(0.12 -0.12)">
       <use xlink:href="#BitstreamVeraSans-Roman-2212"/>
       <use x="83.7890625" xlink:href="#BitstreamVeraSans-Roman-31"/>
       <use x="147.412109375" xlink:href="#BitstreamVeraSans-Roman-30"/>
      </g>
     </g>
    </g>
    <g id="ytick_6">
     <g id="line2d_23">
      <g>
       <use style="stroke:#000000;stroke-width:0.5;" x="72.0" xlink:href="#m618004ddfb" y="141.942857143"/>
      </g>
     </g>
     <g id="line2d_24">
      <g>
       <use style="stroke:#000000;stroke-width:0.5;" x="518.4" xlink:href="#m04ec050423" y="141.942857143"/>
      </g>
     </g>
     <g id="text_12">
      <!-- 0 -->
      <g transform="translate(60.365 145.254107143)scale(0.12 -0.12)">
       <use xlink:href="#BitstreamVeraSans-Roman-30"/>
      </g>
     </g>
    </g>
    <g id="ytick_7">
     <g id="line2d_25">
      <g>
       <use style="stroke:#000000;stroke-width:0.5;" x="72.0" xlink:href="#m618004ddfb" y="92.5714285714"/>
      </g>
     </g>
     <g id="line2d_26">
      <g>
       <use style="stroke:#000000;stroke-width:0.5;" x="518.4" xlink:href="#m04ec050423" y="92.5714285714"/>
      </g>
     </g>
     <g id="text_13">
      <!-- 10 -->
      <g transform="translate(52.73 95.8826785714)scale(0.12 -0.12)">
       <use xlink:href="#BitstreamVeraSans-Roman-31"/>
       <use x="63.623046875" xlink:href="#BitstreamVeraSans-Roman-30"/>
      </g>
     </g>
    </g>
    <g id="ytick_8">
     <g id="line2d_27">
      <g>
       <use style="stroke:#000000;stroke-width:0.5;" x="72.0" xlink:href="#m618004ddfb" y="43.2"/>
      </g>
     </g>
     <g id="line2d_28">
      <g>
       <use style="stroke:#000000;stroke-width:0.5;" x="518.4" xlink:href="#m04ec050423" y="43.2"/>
      </g>
     </g>
     <g id="text_14">
      <!-- 20 -->
      <g transform="translate(52.73 46.51125)scale(0.12 -0.12)">
       <use xlink:href="#BitstreamVeraSans-Roman-32"/>
       <use x="63.623046875" xlink:href="#BitstreamVeraSans-Roman-30"/>
      </g>
     </g>
    </g>
   </g>
  </g>
 </g>
 <defs>
  <clipPath id="pbd9d278497">
   <rect height="345.6" width="446.4" x="72.0" y="43.2"/>
  </clipPath>
 </defs>
</svg>
