<?xml version="1.0" encoding="utf-8" standalone="no"?>
<!DOCTYPE svg PUBLIC "-//W3C//DTD SVG 1.1//EN"
  "http://www.w3.org/Graphics/SVG/1.1/DTD/svg11.dtd">
<!-- Created with matplotlib (http://matplotlib.org/) -->
<svg height="432pt" version="1.1" viewBox="0 0 576 432" width="576pt" xmlns="http://www.w3.org/2000/svg" xmlns:xlink="http://www.w3.org/1999/xlink">
 <defs>
  <style type="text/css">
*{stroke-linecap:butt;stroke-linejoin:round;stroke-miterlimit:100000;}
  </style>
 </defs>
 <g id="figure_1">
  <g id="patch_1">
   <path d="M 0 432 
L 576 432 
L 576 0 
L 0 0 
z
" style="fill:#ffffff;"/>
  </g>
  <g id="axes_1">
   <g id="patch_2">
    <path d="M 72 388.8 
L 518.4 388.8 
L 518.4 43.2 
L 72 43.2 
z
" style="fill:#ffffff;"/>
   </g>
   <g id="PathCollection_1">
    <defs>
     <path d="M 0 2.236068 
C 0.593012 2.236068 1.161816 2.000462 1.581139 1.581139 
C 2.000462 1.161816 2.236068 0.593012 2.236068 0 
C 2.236068 -0.593012 2.000462 -1.161816 1.581139 -1.581139 
C 1.161816 -2.000462 0.593012 -2.236068 0 -2.236068 
C -0.593012 -2.236068 -1.161816 -2.000462 -1.581139 -1.581139 
C -2.000462 -1.161816 -2.236068 -0.593012 -2.236068 0 
C -2.236068 0.593012 -2.000462 1.161816 -1.581139 1.581139 
C -1.161816 2.000462 -0.593012 2.236068 0 2.236068 
z
" id="m5a976f585c" style="stroke:#000000;"/>
    </defs>
    <g clip-path="url(#pa9fd8f201d)">
     <use style="fill:#0000ff;stroke:#000000;" x="479.154777245" xlink:href="#m5a976f585c" y="118.285522032"/>
     <use style="fill:#0000ff;stroke:#000000;" x="371.020996056" xlink:href="#m5a976f585c" y="90.5915518445"/>
     <use style="fill:#0000ff;stroke:#000000;" x="383.451877073" xlink:href="#m5a976f585c" y="108.721107182"/>
     <use style="fill:#0000ff;stroke:#000000;" x="328.225381947" xlink:href="#m5a976f585c" y="57.7403155701"/>
     <use style="fill:#0000ff;stroke:#000000;" x="485.44845702" xlink:href="#m5a976f585c" y="150.497191241"/>
     <use style="fill:#0000ff;stroke:#000000;" x="353.688680578" xlink:href="#m5a976f585c" y="80.4785392963"/>
     <use style="fill:#0000ff;stroke:#000000;" x="377.190146913" xlink:href="#m5a976f585c" y="124.020416001"/>
     <use style="fill:#0000ff;stroke:#000000;" x="274.906030811" xlink:href="#m5a976f585c" y="92.6518206621"/>
     <use style="fill:#0000ff;stroke:#000000;" x="393.63889258" xlink:href="#m5a976f585c" y="131.485205094"/>
     <use style="fill:#0000ff;stroke:#000000;" x="379.622970831" xlink:href="#m5a976f585c" y="124.040484857"/>
     <use style="fill:#0000ff;stroke:#000000;" x="428.810026495" xlink:href="#m5a976f585c" y="149.323722785"/>
     <use style="fill:#0000ff;stroke:#000000;" x="355.896456153" xlink:href="#m5a976f585c" y="121.746283386"/>
     <use style="fill:#0000ff;stroke:#000000;" x="343.437097322" xlink:href="#m5a976f585c" y="111.876883264"/>
     <use style="fill:#0000ff;stroke:#000000;" x="249.489001543" xlink:href="#m5a976f585c" y="89.8844883292"/>
     <use style="fill:#0000ff;stroke:#000000;" x="284.165666431" xlink:href="#m5a976f585c" y="98.0314477735"/>
     <use style="fill:#0000ff;stroke:#000000;" x="286.195665384" xlink:href="#m5a976f585c" y="102.710954695"/>
     <use style="fill:#0000ff;stroke:#000000;" x="364.412635116" xlink:href="#m5a976f585c" y="144.881275144"/>
     <use style="fill:#0000ff;stroke:#000000;" x="267.860282352" xlink:href="#m5a976f585c" y="93.3712217108"/>
     <use style="fill:#0000ff;stroke:#000000;" x="336.533071002" xlink:href="#m5a976f585c" y="129.536956922"/>
     <use style="fill:#0000ff;stroke:#000000;" x="386.170019524" xlink:href="#m5a976f585c" y="174.626116462"/>
     <use style="fill:#0000ff;stroke:#000000;" x="343.921149028" xlink:href="#m5a976f585c" y="144.244395799"/>
     <use style="fill:#0000ff;stroke:#000000;" x="386.422108139" xlink:href="#m5a976f585c" y="183.297573801"/>
     <use style="fill:#0000ff;stroke:#000000;" x="277.492937415" xlink:href="#m5a976f585c" y="112.413775465"/>
     <use style="fill:#0000ff;stroke:#000000;" x="416.667148203" xlink:href="#m5a976f585c" y="197.932234694"/>
     <use style="fill:#0000ff;stroke:#000000;" x="303.946176682" xlink:href="#m5a976f585c" y="121.428834654"/>
     <use style="fill:#0000ff;stroke:#000000;" x="297.647389107" xlink:href="#m5a976f585c" y="120.795390985"/>
     <use style="fill:#0000ff;stroke:#000000;" x="276.390045952" xlink:href="#m5a976f585c" y="107.406339999"/>
     <use style="fill:#0000ff;stroke:#000000;" x="272.56215806" xlink:href="#m5a976f585c" y="103.64849428"/>
     <use style="fill:#0000ff;stroke:#000000;" x="351.390486228" xlink:href="#m5a976f585c" y="163.403728747"/>
     <use style="fill:#0000ff;stroke:#000000;" x="267.520894756" xlink:href="#m5a976f585c" y="107.058564433"/>
     <use style="fill:#0000ff;stroke:#000000;" x="345.541953893" xlink:href="#m5a976f585c" y="158.639208231"/>
     <use style="fill:#0000ff;stroke:#000000;" x="345.509625877" xlink:href="#m5a976f585c" y="150.1917353"/>
     <use style="fill:#0000ff;stroke:#000000;" x="305.520234416" xlink:href="#m5a976f585c" y="134.430614037"/>
     <use style="fill:#0000ff;stroke:#000000;" x="295.993460951" xlink:href="#m5a976f585c" y="130.452514946"/>
     <use style="fill:#0000ff;stroke:#000000;" x="315.848519222" xlink:href="#m5a976f585c" y="139.24272725"/>
     <use style="fill:#0000ff;stroke:#000000;" x="331.849426374" xlink:href="#m5a976f585c" y="144.37572605"/>
     <use style="fill:#0000ff;stroke:#000000;" x="377.62662639" xlink:href="#m5a976f585c" y="183.345885371"/>
     <use style="fill:#0000ff;stroke:#000000;" x="295.519840122" xlink:href="#m5a976f585c" y="121.73589274"/>
     <use style="fill:#0000ff;stroke:#000000;" x="273.899883634" xlink:href="#m5a976f585c" y="113.698412498"/>
     <use style="fill:#0000ff;stroke:#000000;" x="267.726048827" xlink:href="#m5a976f585c" y="110.827748733"/>
     <use style="fill:#0000ff;stroke:#000000;" x="346.258289041" xlink:href="#m5a976f585c" y="163.787771452"/>
     <use style="fill:#0000ff;stroke:#000000;" x="263.99901767" xlink:href="#m5a976f585c" y="108.149549646"/>
     <use style="fill:#0000ff;stroke:#000000;" x="344.242605218" xlink:href="#m5a976f585c" y="151.516606537"/>
     <use style="fill:#0000ff;stroke:#000000;" x="297.085436117" xlink:href="#m5a976f585c" y="148.448196545"/>
     <use style="fill:#0000ff;stroke:#000000;" x="322.223205373" xlink:href="#m5a976f585c" y="149.050009665"/>
     <use style="fill:#0000ff;stroke:#000000;" x="372.365914308" xlink:href="#m5a976f585c" y="194.501802679"/>
     <use style="fill:#0000ff;stroke:#000000;" x="363.390394053" xlink:href="#m5a976f585c" y="191.279083893"/>
     <use style="fill:#0000ff;stroke:#000000;" x="374.633409418" xlink:href="#m5a976f585c" y="215.145648125"/>
     <use style="fill:#0000ff;stroke:#000000;" x="290.152417265" xlink:href="#m5a976f585c" y="126.311015281"/>
     <use style="fill:#0000ff;stroke:#000000;" x="266.513865442" xlink:href="#m5a976f585c" y="115.563724426"/>
     <use style="fill:#0000ff;stroke:#000000;" x="341.87492782" xlink:href="#m5a976f585c" y="185.489099245"/>
     <use style="fill:#0000ff;stroke:#000000;" x="248.75179568" xlink:href="#m5a976f585c" y="112.369995136"/>
     <use style="fill:#0000ff;stroke:#000000;" x="331.397267823" xlink:href="#m5a976f585c" y="158.968343832"/>
     <use style="fill:#0000ff;stroke:#000000;" x="340.178955608" xlink:href="#m5a976f585c" y="159.030395311"/>
     <use style="fill:#0000ff;stroke:#000000;" x="311.208060632" xlink:href="#m5a976f585c" y="153.25930714"/>
     <use style="fill:#0000ff;stroke:#000000;" x="330.482707912" xlink:href="#m5a976f585c" y="157.026721986"/>
     <use style="fill:#0000ff;stroke:#000000;" x="359.578102656" xlink:href="#m5a976f585c" y="203.255542492"/>
     <use style="fill:#0000ff;stroke:#000000;" x="371.58969882" xlink:href="#m5a976f585c" y="230.908365911"/>
     <use style="fill:#0000ff;stroke:#000000;" x="262.453325648" xlink:href="#m5a976f585c" y="118.72131926"/>
     <use style="fill:#0000ff;stroke:#000000;" x="278.401206302" xlink:href="#m5a976f585c" y="127.506728153"/>
     <use style="fill:#0000ff;stroke:#000000;" x="249.911697315" xlink:href="#m5a976f585c" y="116.066212028"/>
     <use style="fill:#0000ff;stroke:#000000;" x="288.450690624" xlink:href="#m5a976f585c" y="139.275483966"/>
     <use style="fill:#0000ff;stroke:#000000;" x="282.111962619" xlink:href="#m5a976f585c" y="133.973095403"/>
     <use style="fill:#0000ff;stroke:#000000;" x="256.288890016" xlink:href="#m5a976f585c" y="117.512560315"/>
     <use style="fill:#0000ff;stroke:#000000;" x="339.836982602" xlink:href="#m5a976f585c" y="165.298696723"/>
     <use style="fill:#0000ff;stroke:#000000;" x="248.71570596" xlink:href="#m5a976f585c" y="113.275364896"/>
     <use style="fill:#0000ff;stroke:#000000;" x="337.121627833" xlink:href="#m5a976f585c" y="160.399355465"/>
     <use style="fill:#0000ff;stroke:#000000;" x="328.537960809" xlink:href="#m5a976f585c" y="158.440941859"/>
     <use style="fill:#0000ff;stroke:#000000;" x="300.707094035" xlink:href="#m5a976f585c" y="154.793475859"/>
     <use style="fill:#0000ff;stroke:#000000;" x="356.264185437" xlink:href="#m5a976f585c" y="203.982427935"/>
     <use style="fill:#0000ff;stroke:#000000;" x="367.471365547" xlink:href="#m5a976f585c" y="253.150623327"/>
     <use style="fill:#0000ff;stroke:#000000;" x="276.250418436" xlink:href="#m5a976f585c" y="133.07870489"/>
     <use style="fill:#0000ff;stroke:#000000;" x="260.975027333" xlink:href="#m5a976f585c" y="126.826831004"/>
     <use style="fill:#0000ff;stroke:#000000;" x="275.383585445" xlink:href="#m5a976f585c" y="128.239838177"/>
     <use style="fill:#0000ff;stroke:#000000;" x="288.074940503" xlink:href="#m5a976f585c" y="144.629085651"/>
     <use style="fill:#0000ff;stroke:#000000;" x="259.716303066" xlink:href="#m5a976f585c" y="126.214640474"/>
     <use style="fill:#0000ff;stroke:#000000;" x="253.528648816" xlink:href="#m5a976f585c" y="121.239195833"/>
     <use style="fill:#0000ff;stroke:#000000;" x="337.656808893" xlink:href="#m5a976f585c" y="170.628494341"/>
     <use style="fill:#0000ff;stroke:#000000;" x="247.92191542" xlink:href="#m5a976f585c" y="114.198604957"/>
     <use style="fill:#0000ff;stroke:#000000;" x="320.852117967" xlink:href="#m5a976f585c" y="165.955861323"/>
     <use style="fill:#0000ff;stroke:#000000;" x="324.321331786" xlink:href="#m5a976f585c" y="168.756484883"/>
     <use style="fill:#0000ff;stroke:#000000;" x="338.76742967" xlink:href="#m5a976f585c" y="207.557444998"/>
     <use style="fill:#0000ff;stroke:#000000;" x="294.73091216" xlink:href="#m5a976f585c" y="157.296162635"/>
     <use style="fill:#0000ff;stroke:#000000;" x="294.549088648" xlink:href="#m5a976f585c" y="155.244527227"/>
     <use style="fill:#0000ff;stroke:#000000;" x="288.041728413" xlink:href="#m5a976f585c" y="149.555655256"/>
     <use style="fill:#0000ff;stroke:#000000;" x="354.395638745" xlink:href="#m5a976f585c" y="218.208254383"/>
     <use style="fill:#0000ff;stroke:#000000;" x="273.552332524" xlink:href="#m5a976f585c" y="135.018921843"/>
     <use style="fill:#0000ff;stroke:#000000;" x="335.909217859" xlink:href="#m5a976f585c" y="204.362571224"/>
     <use style="fill:#0000ff;stroke:#000000;" x="228.310776154" xlink:href="#m5a976f585c" y="123.943173746"/>
     <use style="fill:#0000ff;stroke:#000000;" x="329.259951175" xlink:href="#m5a976f585c" y="182.071997566"/>
     <use style="fill:#0000ff;stroke:#000000;" x="305.312532288" xlink:href="#m5a976f585c" y="166.237581515"/>
     <use style="fill:#0000ff;stroke:#000000;" x="321.353579375" xlink:href="#m5a976f585c" y="171.242172416"/>
     <use style="fill:#0000ff;stroke:#000000;" x="319.828296334" xlink:href="#m5a976f585c" y="169.31562791"/>
     <use style="fill:#0000ff;stroke:#000000;" x="293.721549172" xlink:href="#m5a976f585c" y="157.49412569"/>
     <use style="fill:#0000ff;stroke:#000000;" x="342.795751686" xlink:href="#m5a976f585c" y="220.052449367"/>
     <use style="fill:#0000ff;stroke:#000000;" x="277.987725857" xlink:href="#m5a976f585c" y="150.6809761"/>
     <use style="fill:#0000ff;stroke:#000000;" x="272.794990073" xlink:href="#m5a976f585c" y="138.352379813"/>
     <use style="fill:#0000ff;stroke:#000000;" x="248.104579236" xlink:href="#m5a976f585c" y="135.627099712"/>
     <use style="fill:#0000ff;stroke:#000000;" x="283.209082604" xlink:href="#m5a976f585c" y="177.675934886"/>
     <use style="fill:#0000ff;stroke:#000000;" x="271.972781291" xlink:href="#m5a976f585c" y="144.099375849"/>
    </g>
   </g>
   <g id="PathCollection_2">
    <defs>
     <path d="M 0 1.118034 
C 0.296506 1.118034 0.580908 1.000231 0.790569 0.790569 
C 1.000231 0.580908 1.118034 0.296506 1.118034 0 
C 1.118034 -0.296506 1.000231 -0.580908 0.790569 -0.790569 
C 0.580908 -1.000231 0.296506 -1.118034 0 -1.118034 
C -0.296506 -1.118034 -0.580908 -1.000231 -0.790569 -0.790569 
C -1.000231 -0.580908 -1.118034 -0.296506 -1.118034 0 
C -1.118034 0.296506 -1.000231 0.580908 -0.790569 0.790569 
C -0.580908 1.000231 -0.296506 1.118034 0 1.118034 
z
" id="m63f6e49d88" style="stroke:#000000;"/>
    </defs>
    <g clip-path="url(#pa9fd8f201d)">
     <use style="stroke:#000000;" x="479.154777245" xlink:href="#m63f6e49d88" y="118.285522032"/>
     <use style="stroke:#000000;" x="371.020996056" xlink:href="#m63f6e49d88" y="90.5915518445"/>
     <use style="stroke:#000000;" x="383.451877073" xlink:href="#m63f6e49d88" y="108.721107182"/>
     <use style="stroke:#000000;" x="328.225381947" xlink:href="#m63f6e49d88" y="57.7403155701"/>
     <use style="stroke:#000000;" x="485.44845702" xlink:href="#m63f6e49d88" y="150.497191241"/>
     <use style="stroke:#000000;" x="353.688680578" xlink:href="#m63f6e49d88" y="80.4785392963"/>
     <use style="stroke:#000000;" x="377.190146913" xlink:href="#m63f6e49d88" y="124.020416001"/>
     <use style="stroke:#000000;" x="274.906030811" xlink:href="#m63f6e49d88" y="92.6518206621"/>
     <use style="stroke:#000000;" x="393.63889258" xlink:href="#m63f6e49d88" y="131.485205094"/>
     <use style="stroke:#000000;" x="379.622970831" xlink:href="#m63f6e49d88" y="124.040484857"/>
     <use style="stroke:#000000;" x="428.810026495" xlink:href="#m63f6e49d88" y="149.323722785"/>
     <use style="stroke:#000000;" x="355.896456153" xlink:href="#m63f6e49d88" y="121.746283386"/>
     <use style="stroke:#000000;" x="343.437097322" xlink:href="#m63f6e49d88" y="111.876883264"/>
     <use style="stroke:#000000;" x="249.489001543" xlink:href="#m63f6e49d88" y="89.8844883292"/>
     <use style="stroke:#000000;" x="284.165666431" xlink:href="#m63f6e49d88" y="98.0314477735"/>
     <use style="stroke:#000000;" x="286.195665384" xlink:href="#m63f6e49d88" y="102.710954695"/>
     <use style="stroke:#000000;" x="364.412635116" xlink:href="#m63f6e49d88" y="144.881275144"/>
     <use style="stroke:#000000;" x="267.860282352" xlink:href="#m63f6e49d88" y="93.3712217108"/>
     <use style="stroke:#000000;" x="336.533071002" xlink:href="#m63f6e49d88" y="129.536956922"/>
     <use style="stroke:#000000;" x="386.170019524" xlink:href="#m63f6e49d88" y="174.626116462"/>
     <use style="stroke:#000000;" x="343.921149028" xlink:href="#m63f6e49d88" y="144.244395799"/>
     <use style="stroke:#000000;" x="386.422108139" xlink:href="#m63f6e49d88" y="183.297573801"/>
     <use style="stroke:#000000;" x="277.492937415" xlink:href="#m63f6e49d88" y="112.413775465"/>
     <use style="stroke:#000000;" x="416.667148203" xlink:href="#m63f6e49d88" y="197.932234694"/>
     <use style="stroke:#000000;" x="303.946176682" xlink:href="#m63f6e49d88" y="121.428834654"/>
     <use style="stroke:#000000;" x="297.647389107" xlink:href="#m63f6e49d88" y="120.795390985"/>
     <use style="stroke:#000000;" x="276.390045952" xlink:href="#m63f6e49d88" y="107.406339999"/>
     <use style="stroke:#000000;" x="272.56215806" xlink:href="#m63f6e49d88" y="103.64849428"/>
     <use style="stroke:#000000;" x="351.390486228" xlink:href="#m63f6e49d88" y="163.403728747"/>
     <use style="stroke:#000000;" x="267.520894756" xlink:href="#m63f6e49d88" y="107.058564433"/>
     <use style="stroke:#000000;" x="345.541953893" xlink:href="#m63f6e49d88" y="158.639208231"/>
     <use style="stroke:#000000;" x="345.509625877" xlink:href="#m63f6e49d88" y="150.1917353"/>
     <use style="stroke:#000000;" x="305.520234416" xlink:href="#m63f6e49d88" y="134.430614037"/>
     <use style="stroke:#000000;" x="295.993460951" xlink:href="#m63f6e49d88" y="130.452514946"/>
     <use style="stroke:#000000;" x="315.848519222" xlink:href="#m63f6e49d88" y="139.24272725"/>
     <use style="stroke:#000000;" x="331.849426374" xlink:href="#m63f6e49d88" y="144.37572605"/>
     <use style="stroke:#000000;" x="377.62662639" xlink:href="#m63f6e49d88" y="183.345885371"/>
     <use style="stroke:#000000;" x="295.519840122" xlink:href="#m63f6e49d88" y="121.73589274"/>
     <use style="stroke:#000000;" x="273.899883634" xlink:href="#m63f6e49d88" y="113.698412498"/>
     <use style="stroke:#000000;" x="267.726048827" xlink:href="#m63f6e49d88" y="110.827748733"/>
     <use style="stroke:#000000;" x="346.258289041" xlink:href="#m63f6e49d88" y="163.787771452"/>
     <use style="stroke:#000000;" x="263.99901767" xlink:href="#m63f6e49d88" y="108.149549646"/>
     <use style="stroke:#000000;" x="344.242605218" xlink:href="#m63f6e49d88" y="151.516606537"/>
     <use style="stroke:#000000;" x="297.085436117" xlink:href="#m63f6e49d88" y="148.448196545"/>
     <use style="stroke:#000000;" x="322.223205373" xlink:href="#m63f6e49d88" y="149.050009665"/>
     <use style="stroke:#000000;" x="372.365914308" xlink:href="#m63f6e49d88" y="194.501802679"/>
     <use style="stroke:#000000;" x="363.390394053" xlink:href="#m63f6e49d88" y="191.279083893"/>
     <use style="stroke:#000000;" x="374.633409418" xlink:href="#m63f6e49d88" y="215.145648125"/>
     <use style="stroke:#000000;" x="290.152417265" xlink:href="#m63f6e49d88" y="126.311015281"/>
     <use style="stroke:#000000;" x="266.513865442" xlink:href="#m63f6e49d88" y="115.563724426"/>
     <use style="stroke:#000000;" x="341.87492782" xlink:href="#m63f6e49d88" y="185.489099245"/>
     <use style="stroke:#000000;" x="248.75179568" xlink:href="#m63f6e49d88" y="112.369995136"/>
     <use style="stroke:#000000;" x="331.397267823" xlink:href="#m63f6e49d88" y="158.968343832"/>
     <use style="stroke:#000000;" x="340.178955608" xlink:href="#m63f6e49d88" y="159.030395311"/>
     <use style="stroke:#000000;" x="311.208060632" xlink:href="#m63f6e49d88" y="153.25930714"/>
     <use style="stroke:#000000;" x="330.482707912" xlink:href="#m63f6e49d88" y="157.026721986"/>
     <use style="stroke:#000000;" x="359.578102656" xlink:href="#m63f6e49d88" y="203.255542492"/>
     <use style="stroke:#000000;" x="371.58969882" xlink:href="#m63f6e49d88" y="230.908365911"/>
     <use style="stroke:#000000;" x="262.453325648" xlink:href="#m63f6e49d88" y="118.72131926"/>
     <use style="stroke:#000000;" x="278.401206302" xlink:href="#m63f6e49d88" y="127.506728153"/>
     <use style="stroke:#000000;" x="249.911697315" xlink:href="#m63f6e49d88" y="116.066212028"/>
     <use style="stroke:#000000;" x="288.450690624" xlink:href="#m63f6e49d88" y="139.275483966"/>
     <use style="stroke:#000000;" x="282.111962619" xlink:href="#m63f6e49d88" y="133.973095403"/>
     <use style="stroke:#000000;" x="256.288890016" xlink:href="#m63f6e49d88" y="117.512560315"/>
     <use style="stroke:#000000;" x="339.836982602" xlink:href="#m63f6e49d88" y="165.298696723"/>
     <use style="stroke:#000000;" x="248.71570596" xlink:href="#m63f6e49d88" y="113.275364896"/>
     <use style="stroke:#000000;" x="337.121627833" xlink:href="#m63f6e49d88" y="160.399355465"/>
     <use style="stroke:#000000;" x="328.537960809" xlink:href="#m63f6e49d88" y="158.440941859"/>
     <use style="stroke:#000000;" x="300.707094035" xlink:href="#m63f6e49d88" y="154.793475859"/>
     <use style="stroke:#000000;" x="356.264185437" xlink:href="#m63f6e49d88" y="203.982427935"/>
     <use style="stroke:#000000;" x="367.471365547" xlink:href="#m63f6e49d88" y="253.150623327"/>
     <use style="stroke:#000000;" x="276.250418436" xlink:href="#m63f6e49d88" y="133.07870489"/>
     <use style="stroke:#000000;" x="260.975027333" xlink:href="#m63f6e49d88" y="126.826831004"/>
     <use style="stroke:#000000;" x="275.383585445" xlink:href="#m63f6e49d88" y="128.239838177"/>
     <use style="stroke:#000000;" x="288.074940503" xlink:href="#m63f6e49d88" y="144.629085651"/>
     <use style="stroke:#000000;" x="259.716303066" xlink:href="#m63f6e49d88" y="126.214640474"/>
     <use style="stroke:#000000;" x="253.528648816" xlink:href="#m63f6e49d88" y="121.239195833"/>
     <use style="stroke:#000000;" x="337.656808893" xlink:href="#m63f6e49d88" y="170.628494341"/>
     <use style="stroke:#000000;" x="247.92191542" xlink:href="#m63f6e49d88" y="114.198604957"/>
     <use style="stroke:#000000;" x="320.852117967" xlink:href="#m63f6e49d88" y="165.955861323"/>
     <use style="stroke:#000000;" x="324.321331786" xlink:href="#m63f6e49d88" y="168.756484883"/>
     <use style="stroke:#000000;" x="338.76742967" xlink:href="#m63f6e49d88" y="207.557444998"/>
     <use style="stroke:#000000;" x="294.73091216" xlink:href="#m63f6e49d88" y="157.296162635"/>
     <use style="stroke:#000000;" x="294.549088648" xlink:href="#m63f6e49d88" y="155.244527227"/>
     <use style="stroke:#000000;" x="288.041728413" xlink:href="#m63f6e49d88" y="149.555655256"/>
     <use style="stroke:#000000;" x="354.395638745" xlink:href="#m63f6e49d88" y="218.208254383"/>
     <use style="stroke:#000000;" x="273.552332524" xlink:href="#m63f6e49d88" y="135.018921843"/>
     <use style="stroke:#000000;" x="335.909217859" xlink:href="#m63f6e49d88" y="204.362571224"/>
     <use style="stroke:#000000;" x="228.310776154" xlink:href="#m63f6e49d88" y="123.943173746"/>
     <use style="stroke:#000000;" x="329.259951175" xlink:href="#m63f6e49d88" y="182.071997566"/>
     <use style="stroke:#000000;" x="305.312532288" xlink:href="#m63f6e49d88" y="166.237581515"/>
     <use style="stroke:#000000;" x="321.353579375" xlink:href="#m63f6e49d88" y="171.242172416"/>
     <use style="stroke:#000000;" x="319.828296334" xlink:href="#m63f6e49d88" y="169.31562791"/>
     <use style="stroke:#000000;" x="293.721549172" xlink:href="#m63f6e49d88" y="157.49412569"/>
     <use style="stroke:#000000;" x="342.795751686" xlink:href="#m63f6e49d88" y="220.052449367"/>
     <use style="stroke:#000000;" x="277.987725857" xlink:href="#m63f6e49d88" y="150.6809761"/>
     <use style="stroke:#000000;" x="272.794990073" xlink:href="#m63f6e49d88" y="138.352379813"/>
     <use style="stroke:#000000;" x="248.104579236" xlink:href="#m63f6e49d88" y="135.627099712"/>
     <use style="stroke:#000000;" x="283.209082604" xlink:href="#m63f6e49d88" y="177.675934886"/>
     <use style="stroke:#000000;" x="271.972781291" xlink:href="#m63f6e49d88" y="144.099375849"/>
     <use style="stroke:#000000;" x="243.270441262" xlink:href="#m63f6e49d88" y="173.27789424"/>
     <use style="stroke:#000000;" x="221.018320677" xlink:href="#m63f6e49d88" y="250.562217963"/>
     <use style="stroke:#000000;" x="258.157496533" xlink:href="#m63f6e49d88" y="293.744034764"/>
     <use style="stroke:#000000;" x="171.565132352" xlink:href="#m63f6e49d88" y="316.893942787"/>
     <use style="stroke:#000000;" x="191.632172543" xlink:href="#m63f6e49d88" y="233.346848845"/>
     <use style="stroke:#000000;" x="178.483740129" xlink:href="#m63f6e49d88" y="341.334903435"/>
     <use style="stroke:#000000;" x="215.107778689" xlink:href="#m63f6e49d88" y="318.351990554"/>
     <use style="stroke:#000000;" x="259.388509187" xlink:href="#m63f6e49d88" y="179.407266297"/>
     <use style="stroke:#000000;" x="191.513336444" xlink:href="#m63f6e49d88" y="315.784872948"/>
     <use style="stroke:#000000;" x="168.84787842" xlink:href="#m63f6e49d88" y="187.062725397"/>
     <use style="stroke:#000000;" x="166.692620084" xlink:href="#m63f6e49d88" y="248.733963283"/>
     <use style="stroke:#000000;" x="168.483597548" xlink:href="#m63f6e49d88" y="289.320204219"/>
     <use style="stroke:#000000;" x="177.45779415" xlink:href="#m63f6e49d88" y="219.893091909"/>
     <use style="stroke:#000000;" x="228.80259745" xlink:href="#m63f6e49d88" y="140.808926801"/>
     <use style="stroke:#000000;" x="170.953462621" xlink:href="#m63f6e49d88" y="240.113424464"/>
     <use style="stroke:#000000;" x="165.743140572" xlink:href="#m63f6e49d88" y="420.857043891"/>
     <use style="stroke:#000000;" x="204.086980845" xlink:href="#m63f6e49d88" y="226.176161821"/>
     <use style="stroke:#000000;" x="222.770777513" xlink:href="#m63f6e49d88" y="325.509915611"/>
     <use style="stroke:#000000;" x="174.726755375" xlink:href="#m63f6e49d88" y="357.084128947"/>
     <use style="stroke:#000000;" x="167.513458516" xlink:href="#m63f6e49d88" y="325.315613948"/>
     <use style="stroke:#000000;" x="189.821093722" xlink:href="#m63f6e49d88" y="297.12922171"/>
     <use style="stroke:#000000;" x="181.670270279" xlink:href="#m63f6e49d88" y="169.876047595"/>
     <use style="stroke:#000000;" x="180.190096821" xlink:href="#m63f6e49d88" y="334.556838098"/>
     <use style="stroke:#000000;" x="199.12101871" xlink:href="#m63f6e49d88" y="271.683122101"/>
     <use style="stroke:#000000;" x="165.746529499" xlink:href="#m63f6e49d88" y="289.067084636"/>
     <use style="stroke:#000000;" x="186.107841911" xlink:href="#m63f6e49d88" y="364.791587211"/>
     <use style="stroke:#000000;" x="259.412359342" xlink:href="#m63f6e49d88" y="153.045137479"/>
     <use style="stroke:#000000;" x="253.887899411" xlink:href="#m63f6e49d88" y="354.533839428"/>
     <use style="stroke:#000000;" x="184.806067923" xlink:href="#m63f6e49d88" y="226.799850976"/>
     <use style="stroke:#000000;" x="265.790165541" xlink:href="#m63f6e49d88" y="234.008377946"/>
     <use style="stroke:#000000;" x="176.429943783" xlink:href="#m63f6e49d88" y="312.111601603"/>
     <use style="stroke:#000000;" x="182.822522968" xlink:href="#m63f6e49d88" y="190.800587321"/>
     <use style="stroke:#000000;" x="176.372554653" xlink:href="#m63f6e49d88" y="205.661882966"/>
     <use style="stroke:#000000;" x="192.794079012" xlink:href="#m63f6e49d88" y="344.07731076"/>
     <use style="stroke:#000000;" x="224.169643299" xlink:href="#m63f6e49d88" y="244.374084711"/>
     <use style="stroke:#000000;" x="180.515119106" xlink:href="#m63f6e49d88" y="297.0883801"/>
     <use style="stroke:#000000;" x="197.975373749" xlink:href="#m63f6e49d88" y="269.80717568"/>
     <use style="stroke:#000000;" x="259.840661835" xlink:href="#m63f6e49d88" y="126.434649586"/>
     <use style="stroke:#000000;" x="179.192042485" xlink:href="#m63f6e49d88" y="336.599071937"/>
     <use style="stroke:#000000;" x="169.438772718" xlink:href="#m63f6e49d88" y="279.098225283"/>
     <use style="stroke:#000000;" x="171.561244156" xlink:href="#m63f6e49d88" y="336.597467404"/>
     <use style="stroke:#000000;" x="167.533311914" xlink:href="#m63f6e49d88" y="266.712793256"/>
     <use style="stroke:#000000;" x="168.225073437" xlink:href="#m63f6e49d88" y="360.061722974"/>
     <use style="stroke:#000000;" x="188.567461605" xlink:href="#m63f6e49d88" y="265.530522708"/>
     <use style="stroke:#000000;" x="195.193562455" xlink:href="#m63f6e49d88" y="249.466854563"/>
     <use style="stroke:#000000;" x="239.307556265" xlink:href="#m63f6e49d88" y="295.375462954"/>
     <use style="stroke:#000000;" x="183.330261032" xlink:href="#m63f6e49d88" y="294.426109785"/>
     <use style="stroke:#000000;" x="182.74823185" xlink:href="#m63f6e49d88" y="308.02705855"/>
     <use style="stroke:#000000;" x="280.527495324" xlink:href="#m63f6e49d88" y="293.900976688"/>
     <use style="stroke:#000000;" x="173.378075325" xlink:href="#m63f6e49d88" y="301.24714598"/>
    </g>
   </g>
   <g id="patch_3">
    <path d="M 72 388.8 
L 72 43.2 
" style="fill:none;stroke:#000000;stroke-linecap:square;stroke-linejoin:miter;"/>
   </g>
   <g id="patch_4">
    <path d="M 72 388.8 
L 518.4 388.8 
" style="fill:none;stroke:#000000;stroke-linecap:square;stroke-linejoin:miter;"/>
   </g>
   <g id="patch_5">
    <path d="M 518.4 388.8 
L 518.4 43.2 
" style="fill:none;stroke:#000000;stroke-linecap:square;stroke-linejoin:miter;"/>
   </g>
   <g id="patch_6">
    <path d="M 72 43.2 
L 518.4 43.2 
" style="fill:none;stroke:#000000;stroke-linecap:square;stroke-linejoin:miter;"/>
   </g>
   <g id="matplotlib.axis_1">
    <g id="xtick_1">
     <g id="line2d_1">
      <defs>
       <path d="M 0 0 
L 0 -4 
" id="mc028f250b2" style="stroke:#000000;stroke-width:0.5;"/>
      </defs>
      <g>
       <use style="stroke:#000000;stroke-width:0.5;" x="72.0" xlink:href="#mc028f250b2" y="388.8"/>
      </g>
     </g>
     <g id="line2d_2">
      <defs>
       <path d="M 0 0 
L 0 4 
" id="ma90dfd0c25" style="stroke:#000000;stroke-width:0.5;"/>
      </defs>
      <g>
       <use style="stroke:#000000;stroke-width:0.5;" x="72.0" xlink:href="#ma90dfd0c25" y="43.2"/>
      </g>
     </g>
     <g id="text_1">
      <!-- −5 -->
      <defs>
       <path d="M 10.59375 35.5 
L 73.1875 35.5 
L 73.1875 27.203125 
L 10.59375 27.203125 
z
" id="BitstreamVeraSans-Roman-2212"/>
       <path d="M 10.796875 72.90625 
L 49.515625 72.90625 
L 49.515625 64.59375 
L 19.828125 64.59375 
L 19.828125 46.734375 
Q 21.96875 47.46875 24.109375 47.828125 
Q 26.265625 48.1875 28.421875 48.1875 
Q 40.625 48.1875 47.75 41.5 
Q 54.890625 34.8125 54.890625 23.390625 
Q 54.890625 11.625 47.5625 5.09375 
Q 40.234375 -1.421875 26.90625 -1.421875 
Q 22.3125 -1.421875 17.546875 -0.640625 
Q 12.796875 0.140625 7.71875 1.703125 
L 7.71875 11.625 
Q 12.109375 9.234375 16.796875 8.0625 
Q 21.484375 6.890625 26.703125 6.890625 
Q 35.15625 6.890625 40.078125 11.328125 
Q 45.015625 15.765625 45.015625 23.390625 
Q 45.015625 31 40.078125 35.4375 
Q 35.15625 39.890625 26.703125 39.890625 
Q 22.75 39.890625 18.8125 39.015625 
Q 14.890625 38.140625 10.796875 36.28125 
z
" id="BitstreamVeraSans-Roman-35"/>
      </defs>
      <g transform="translate(63.1546875 401.918125)scale(0.12 -0.12)">
       <use xlink:href="#BitstreamVeraSans-Roman-2212"/>
       <use x="83.7890625" xlink:href="#BitstreamVeraSans-Roman-35"/>
      </g>
     </g>
    </g>
    <g id="xtick_2">
     <g id="line2d_3">
      <g>
       <use style="stroke:#000000;stroke-width:0.5;" x="161.28" xlink:href="#mc028f250b2" y="388.8"/>
      </g>
     </g>
     <g id="line2d_4">
      <g>
       <use style="stroke:#000000;stroke-width:0.5;" x="161.28" xlink:href="#ma90dfd0c25" y="43.2"/>
      </g>
     </g>
     <g id="text_2">
      <!-- 0 -->
      <defs>
       <path d="M 31.78125 66.40625 
Q 24.171875 66.40625 20.328125 58.90625 
Q 16.5 51.421875 16.5 36.375 
Q 16.5 21.390625 20.328125 13.890625 
Q 24.171875 6.390625 31.78125 6.390625 
Q 39.453125 6.390625 43.28125 13.890625 
Q 47.125 21.390625 47.125 36.375 
Q 47.125 51.421875 43.28125 58.90625 
Q 39.453125 66.40625 31.78125 66.40625 
M 31.78125 74.21875 
Q 44.046875 74.21875 50.515625 64.515625 
Q 56.984375 54.828125 56.984375 36.375 
Q 56.984375 17.96875 50.515625 8.265625 
Q 44.046875 -1.421875 31.78125 -1.421875 
Q 19.53125 -1.421875 13.0625 8.265625 
Q 6.59375 17.96875 6.59375 36.375 
Q 6.59375 54.828125 13.0625 64.515625 
Q 19.53125 74.21875 31.78125 74.21875 
" id="BitstreamVeraSans-Roman-30"/>
      </defs>
      <g transform="translate(157.4625 401.918125)scale(0.12 -0.12)">
       <use xlink:href="#BitstreamVeraSans-Roman-30"/>
      </g>
     </g>
    </g>
    <g id="xtick_3">
     <g id="line2d_5">
      <g>
       <use style="stroke:#000000;stroke-width:0.5;" x="250.56" xlink:href="#mc028f250b2" y="388.8"/>
      </g>
     </g>
     <g id="line2d_6">
      <g>
       <use style="stroke:#000000;stroke-width:0.5;" x="250.56" xlink:href="#ma90dfd0c25" y="43.2"/>
      </g>
     </g>
     <g id="text_3">
      <!-- 5 -->
      <g transform="translate(246.7425 401.918125)scale(0.12 -0.12)">
       <use xlink:href="#BitstreamVeraSans-Roman-35"/>
      </g>
     </g>
    </g>
    <g id="xtick_4">
     <g id="line2d_7">
      <g>
       <use style="stroke:#000000;stroke-width:0.5;" x="339.84" xlink:href="#mc028f250b2" y="388.8"/>
      </g>
     </g>
     <g id="line2d_8">
      <g>
       <use style="stroke:#000000;stroke-width:0.5;" x="339.84" xlink:href="#ma90dfd0c25" y="43.2"/>
      </g>
     </g>
     <g id="text_4">
      <!-- 10 -->
      <defs>
       <path d="M 12.40625 8.296875 
L 28.515625 8.296875 
L 28.515625 63.921875 
L 10.984375 60.40625 
L 10.984375 69.390625 
L 28.421875 72.90625 
L 38.28125 72.90625 
L 38.28125 8.296875 
L 54.390625 8.296875 
L 54.390625 0 
L 12.40625 0 
z
" id="BitstreamVeraSans-Roman-31"/>
      </defs>
      <g transform="translate(332.205 401.918125)scale(0.12 -0.12)">
       <use xlink:href="#BitstreamVeraSans-Roman-31"/>
       <use x="63.623046875" xlink:href="#BitstreamVeraSans-Roman-30"/>
      </g>
     </g>
    </g>
    <g id="xtick_5">
     <g id="line2d_9">
      <g>
       <use style="stroke:#000000;stroke-width:0.5;" x="429.12" xlink:href="#mc028f250b2" y="388.8"/>
      </g>
     </g>
     <g id="line2d_10">
      <g>
       <use style="stroke:#000000;stroke-width:0.5;" x="429.12" xlink:href="#ma90dfd0c25" y="43.2"/>
      </g>
     </g>
     <g id="text_5">
      <!-- 15 -->
      <g transform="translate(421.485 401.918125)scale(0.12 -0.12)">
       <use xlink:href="#BitstreamVeraSans-Roman-31"/>
       <use x="63.623046875" xlink:href="#BitstreamVeraSans-Roman-35"/>
      </g>
     </g>
    </g>
    <g id="xtick_6">
     <g id="line2d_11">
      <g>
       <use style="stroke:#000000;stroke-width:0.5;" x="518.4" xlink:href="#mc028f250b2" y="388.8"/>
      </g>
     </g>
     <g id="line2d_12">
      <g>
       <use style="stroke:#000000;stroke-width:0.5;" x="518.4" xlink:href="#ma90dfd0c25" y="43.2"/>
      </g>
     </g>
     <g id="text_6">
      <!-- 20 -->
      <defs>
       <path d="M 19.1875 8.296875 
L 53.609375 8.296875 
L 53.609375 0 
L 7.328125 0 
L 7.328125 8.296875 
Q 12.9375 14.109375 22.625 23.890625 
Q 32.328125 33.6875 34.8125 36.53125 
Q 39.546875 41.84375 41.421875 45.53125 
Q 43.3125 49.21875 43.3125 52.78125 
Q 43.3125 58.59375 39.234375 62.25 
Q 35.15625 65.921875 28.609375 65.921875 
Q 23.96875 65.921875 18.8125 64.3125 
Q 13.671875 62.703125 7.8125 59.421875 
L 7.8125 69.390625 
Q 13.765625 71.78125 18.9375 73 
Q 24.125 74.21875 28.421875 74.21875 
Q 39.75 74.21875 46.484375 68.546875 
Q 53.21875 62.890625 53.21875 53.421875 
Q 53.21875 48.921875 51.53125 44.890625 
Q 49.859375 40.875 45.40625 35.40625 
Q 44.1875 33.984375 37.640625 27.21875 
Q 31.109375 20.453125 19.1875 8.296875 
" id="BitstreamVeraSans-Roman-32"/>
      </defs>
      <g transform="translate(510.765 401.918125)scale(0.12 -0.12)">
       <use xlink:href="#BitstreamVeraSans-Roman-32"/>
       <use x="63.623046875" xlink:href="#BitstreamVeraSans-Roman-30"/>
      </g>
     </g>
    </g>
   </g>
   <g id="matplotlib.axis_2">
    <g id="ytick_1">
     <g id="line2d_13">
      <defs>
       <path d="M 0 0 
L 4 0 
" id="m6f07b85438" style="stroke:#000000;stroke-width:0.5;"/>
      </defs>
      <g>
       <use style="stroke:#000000;stroke-width:0.5;" x="72.0" xlink:href="#m6f07b85438" y="388.8"/>
      </g>
     </g>
     <g id="line2d_14">
      <defs>
       <path d="M 0 0 
L -4 0 
" id="m335407b4ac" style="stroke:#000000;stroke-width:0.5;"/>
      </defs>
      <g>
       <use style="stroke:#000000;stroke-width:0.5;" x="518.4" xlink:href="#m335407b4ac" y="388.8"/>
      </g>
     </g>
     <g id="text_7">
      <!-- −30 -->
      <defs>
       <path d="M 40.578125 39.3125 
Q 47.65625 37.796875 51.625 33 
Q 55.609375 28.21875 55.609375 21.1875 
Q 55.609375 10.40625 48.1875 4.484375 
Q 40.765625 -1.421875 27.09375 -1.421875 
Q 22.515625 -1.421875 17.65625 -0.515625 
Q 12.796875 0.390625 7.625 2.203125 
L 7.625 11.71875 
Q 11.71875 9.328125 16.59375 8.109375 
Q 21.484375 6.890625 26.8125 6.890625 
Q 36.078125 6.890625 40.9375 10.546875 
Q 45.796875 14.203125 45.796875 21.1875 
Q 45.796875 27.640625 41.28125 31.265625 
Q 36.765625 34.90625 28.71875 34.90625 
L 20.21875 34.90625 
L 20.21875 43.015625 
L 29.109375 43.015625 
Q 36.375 43.015625 40.234375 45.921875 
Q 44.09375 48.828125 44.09375 54.296875 
Q 44.09375 59.90625 40.109375 62.90625 
Q 36.140625 65.921875 28.71875 65.921875 
Q 24.65625 65.921875 20.015625 65.03125 
Q 15.375 64.15625 9.8125 62.3125 
L 9.8125 71.09375 
Q 15.4375 72.65625 20.34375 73.4375 
Q 25.25 74.21875 29.59375 74.21875 
Q 40.828125 74.21875 47.359375 69.109375 
Q 53.90625 64.015625 53.90625 55.328125 
Q 53.90625 49.265625 50.4375 45.09375 
Q 46.96875 40.921875 40.578125 39.3125 
" id="BitstreamVeraSans-Roman-33"/>
      </defs>
      <g transform="translate(42.674375 392.11125)scale(0.12 -0.12)">
       <use xlink:href="#BitstreamVeraSans-Roman-2212"/>
       <use x="83.7890625" xlink:href="#BitstreamVeraSans-Roman-33"/>
       <use x="147.412109375" xlink:href="#BitstreamVeraSans-Roman-30"/>
      </g>
     </g>
    </g>
    <g id="ytick_2">
     <g id="line2d_15">
      <g>
       <use style="stroke:#000000;stroke-width:0.5;" x="72.0" xlink:href="#m6f07b85438" y="345.6"/>
      </g>
     </g>
     <g id="line2d_16">
      <g>
       <use style="stroke:#000000;stroke-width:0.5;" x="518.4" xlink:href="#m335407b4ac" y="345.6"/>
      </g>
     </g>
     <g id="text_8">
      <!-- −25 -->
      <g transform="translate(42.674375 348.91125)scale(0.12 -0.12)">
       <use xlink:href="#BitstreamVeraSans-Roman-2212"/>
       <use x="83.7890625" xlink:href="#BitstreamVeraSans-Roman-32"/>
       <use x="147.412109375" xlink:href="#BitstreamVeraSans-Roman-35"/>
      </g>
     </g>
    </g>
    <g id="ytick_3">
     <g id="line2d_17">
      <g>
       <use style="stroke:#000000;stroke-width:0.5;" x="72.0" xlink:href="#m6f07b85438" y="302.4"/>
      </g>
     </g>
     <g id="line2d_18">
      <g>
       <use style="stroke:#000000;stroke-width:0.5;" x="518.4" xlink:href="#m335407b4ac" y="302.4"/>
      </g>
     </g>
     <g id="text_9">
      <!-- −20 -->
      <g transform="translate(42.674375 305.71125)scale(0.12 -0.12)">
       <use xlink:href="#BitstreamVeraSans-Roman-2212"/>
       <use x="83.7890625" xlink:href="#BitstreamVeraSans-Roman-32"/>
       <use x="147.412109375" xlink:href="#BitstreamVeraSans-Roman-30"/>
      </g>
     </g>
    </g>
    <g id="ytick_4">
     <g id="line2d_19">
      <g>
       <use style="stroke:#000000;stroke-width:0.5;" x="72.0" xlink:href="#m6f07b85438" y="259.2"/>
      </g>
     </g>
     <g id="line2d_20">
      <g>
       <use style="stroke:#000000;stroke-width:0.5;" x="518.4" xlink:href="#m335407b4ac" y="259.2"/>
      </g>
     </g>
     <g id="text_10">
      <!-- −15 -->
      <g transform="translate(42.674375 262.51125)scale(0.12 -0.12)">
       <use xlink:href="#BitstreamVeraSans-Roman-2212"/>
       <use x="83.7890625" xlink:href="#BitstreamVeraSans-Roman-31"/>
       <use x="147.412109375" xlink:href="#BitstreamVeraSans-Roman-35"/>
      </g>
     </g>
    </g>
    <g id="ytick_5">
     <g id="line2d_21">
      <g>
       <use style="stroke:#000000;stroke-width:0.5;" x="72.0" xlink:href="#m6f07b85438" y="216.0"/>
      </g>
     </g>
     <g id="line2d_22">
      <g>
       <use style="stroke:#000000;stroke-width:0.5;" x="518.4" xlink:href="#m335407b4ac" y="216.0"/>
      </g>
     </g>
     <g id="text_11">
      <!-- −10 -->
      <g transform="translate(42.674375 219.31125)scale(0.12 -0.12)">
       <use xlink:href="#BitstreamVeraSans-Roman-2212"/>
       <use x="83.7890625" xlink:href="#BitstreamVeraSans-Roman-31"/>
       <use x="147.412109375" xlink:href="#BitstreamVeraSans-Roman-30"/>
      </g>
     </g>
    </g>
    <g id="ytick_6">
     <g id="line2d_23">
      <g>
       <use style="stroke:#000000;stroke-width:0.5;" x="72.0" xlink:href="#m6f07b85438" y="172.8"/>
      </g>
     </g>
     <g id="line2d_24">
      <g>
       <use style="stroke:#000000;stroke-width:0.5;" x="518.4" xlink:href="#m335407b4ac" y="172.8"/>
      </g>
     </g>
     <g id="text_12">
      <!-- −5 -->
      <g transform="translate(50.309375 176.11125)scale(0.12 -0.12)">
       <use xlink:href="#BitstreamVeraSans-Roman-2212"/>
       <use x="83.7890625" xlink:href="#BitstreamVeraSans-Roman-35"/>
      </g>
     </g>
    </g>
    <g id="ytick_7">
     <g id="line2d_25">
      <g>
       <use style="stroke:#000000;stroke-width:0.5;" x="72.0" xlink:href="#m6f07b85438" y="129.6"/>
      </g>
     </g>
     <g id="line2d_26">
      <g>
       <use style="stroke:#000000;stroke-width:0.5;" x="518.4" xlink:href="#m335407b4ac" y="129.6"/>
      </g>
     </g>
     <g id="text_13">
      <!-- 0 -->
      <g transform="translate(60.365 132.91125)scale(0.12 -0.12)">
       <use xlink:href="#BitstreamVeraSans-Roman-30"/>
      </g>
     </g>
    </g>
    <g id="ytick_8">
     <g id="line2d_27">
      <g>
       <use style="stroke:#000000;stroke-width:0.5;" x="72.0" xlink:href="#m6f07b85438" y="86.4"/>
      </g>
     </g>
     <g id="line2d_28">
      <g>
       <use style="stroke:#000000;stroke-width:0.5;" x="518.4" xlink:href="#m335407b4ac" y="86.4"/>
      </g>
     </g>
     <g id="text_14">
      <!-- 5 -->
      <g transform="translate(60.365 89.71125)scale(0.12 -0.12)">
       <use xlink:href="#BitstreamVeraSans-Roman-35"/>
      </g>
     </g>
    </g>
    <g id="ytick_9">
     <g id="line2d_29">
      <g>
       <use style="stroke:#000000;stroke-width:0.5;" x="72.0" xlink:href="#m6f07b85438" y="43.2"/>
      </g>
     </g>
     <g id="line2d_30">
      <g>
       <use style="stroke:#000000;stroke-width:0.5;" x="518.4" xlink:href="#m335407b4ac" y="43.2"/>
      </g>
     </g>
     <g id="text_15">
      <!-- 10 -->
      <g transform="translate(52.73 46.51125)scale(0.12 -0.12)">
       <use xlink:href="#BitstreamVeraSans-Roman-31"/>
       <use x="63.623046875" xlink:href="#BitstreamVeraSans-Roman-30"/>
      </g>
     </g>
    </g>
   </g>
  </g>
 </g>
 <defs>
  <clipPath id="pa9fd8f201d">
   <rect height="345.6" width="446.4" x="72.0" y="43.2"/>
  </clipPath>
 </defs>
</svg>
