<?xml version="1.0" encoding="utf-8" standalone="no"?>
<!DOCTYPE svg PUBLIC "-//W3C//DTD SVG 1.1//EN"
  "http://www.w3.org/Graphics/SVG/1.1/DTD/svg11.dtd">
<!-- Created with matplotlib (http://matplotlib.org/) -->
<svg height="345.6pt" version="1.1" viewBox="0 0 460.8 345.6" width="460.8pt" xmlns="http://www.w3.org/2000/svg" xmlns:xlink="http://www.w3.org/1999/xlink">
 <defs>
  <style type="text/css">
*{stroke-linecap:butt;stroke-linejoin:round;}
  </style>
 </defs>
 <g id="figure_1">
  <g id="patch_1">
   <path d="M 0 345.6 
L 460.8 345.6 
L 460.8 0 
L 0 0 
z
" style="fill:#ffffff;"/>
  </g>
  <g id="axes_1">
   <g id="patch_2">
    <path d="M 57.6 307.584 
L 414.72 307.584 
L 414.72 41.472 
L 57.6 41.472 
z
" style="fill:#ffffff;"/>
   </g>
   <g id="PathCollection_1">
    <defs>
     <path d="M 0 0.612372 
C 0.162403 0.612372 0.318176 0.547849 0.433013 0.433013 
C 0.547849 0.318176 0.612372 0.162403 0.612372 0 
C 0.612372 -0.162403 0.547849 -0.318176 0.433013 -0.433013 
C 0.318176 -0.547849 0.162403 -0.612372 0 -0.612372 
C -0.162403 -0.612372 -0.318176 -0.547849 -0.433013 -0.433013 
C -0.547849 -0.318176 -0.612372 -0.162403 -0.612372 0 
C -0.612372 0.162403 -0.547849 0.318176 -0.433013 0.433013 
C -0.318176 0.547849 -0.162403 0.612372 0 0.612372 
z
" id="m783e9cb734" style="stroke:#000000;"/>
    </defs>
    <g clip-path="url(#p69a10d5568)">
     <use style="stroke:#000000;" x="236.16" xlink:href="#m783e9cb734" y="134.6112"/>
     <use style="stroke:#000000;" x="240.106143" xlink:href="#m783e9cb734" y="174.528"/>
     <use style="stroke:#000000;" x="236.16" xlink:href="#m783e9cb734" y="163.723797"/>
     <use style="stroke:#000000;" x="236.16" xlink:href="#m783e9cb734" y="174.528"/>
     <use style="stroke:#000000;" x="236.16" xlink:href="#m783e9cb734" y="147.806594"/>
     <use style="stroke:#000000;" x="236.16" xlink:href="#m783e9cb734" y="147.955218"/>
     <use style="stroke:#000000;" x="236.16" xlink:href="#m783e9cb734" y="150.313401"/>
     <use style="stroke:#000000;" x="325.44" xlink:href="#m783e9cb734" y="140.736768"/>
     <use style="stroke:#000000;" x="236.16" xlink:href="#m783e9cb734" y="170.072867"/>
     <use style="stroke:#000000;" x="236.16" xlink:href="#m783e9cb734" y="145.034124"/>
     <use style="stroke:#000000;" x="236.16" xlink:href="#m783e9cb734" y="150.935124"/>
     <use style="stroke:#000000;" x="236.16" xlink:href="#m783e9cb734" y="143.975966"/>
     <use style="stroke:#000000;" x="236.16" xlink:href="#m783e9cb734" y="142.435865"/>
     <use style="stroke:#000000;" x="325.44" xlink:href="#m783e9cb734" y="143.998845"/>
     <use style="stroke:#000000;" x="321.885286" xlink:href="#m783e9cb734" y="174.528"/>
     <use style="stroke:#000000;" x="236.16" xlink:href="#m783e9cb734" y="139.295179"/>
     <use style="stroke:#000000;" x="265.870376" xlink:href="#m783e9cb734" y="174.528"/>
     <use style="stroke:#000000;" x="236.16" xlink:href="#m783e9cb734" y="134.6112"/>
     <use style="stroke:#000000;" x="304.775217" xlink:href="#m783e9cb734" y="174.528"/>
     <use style="stroke:#000000;" x="325.44" xlink:href="#m783e9cb734" y="171.318227"/>
     <use style="stroke:#000000;" x="236.16" xlink:href="#m783e9cb734" y="134.6112"/>
     <use style="stroke:#000000;" x="236.16" xlink:href="#m783e9cb734" y="165.22391"/>
     <use style="stroke:#000000;" x="236.16" xlink:href="#m783e9cb734" y="155.877912"/>
     <use style="stroke:#000000;" x="236.16" xlink:href="#m783e9cb734" y="150.493043"/>
     <use style="stroke:#000000;" x="325.44" xlink:href="#m783e9cb734" y="158.213463"/>
     <use style="stroke:#000000;" x="325.44" xlink:href="#m783e9cb734" y="146.311296"/>
     <use style="stroke:#000000;" x="325.44" xlink:href="#m783e9cb734" y="153.300602"/>
     <use style="stroke:#000000;" x="325.44" xlink:href="#m783e9cb734" y="142.504809"/>
     <use style="stroke:#000000;" x="238.269591" xlink:href="#m783e9cb734" y="174.528"/>
     <use style="stroke:#000000;" x="325.44" xlink:href="#m783e9cb734" y="136.479949"/>
     <use style="stroke:#000000;" x="312.023915" xlink:href="#m783e9cb734" y="174.528"/>
     <use style="stroke:#000000;" x="325.44" xlink:href="#m783e9cb734" y="166.803901"/>
     <use style="stroke:#000000;" x="254.014438" xlink:href="#m783e9cb734" y="174.528"/>
     <use style="stroke:#000000;" x="236.16" xlink:href="#m783e9cb734" y="156.637806"/>
     <use style="stroke:#000000;" x="236.16" xlink:href="#m783e9cb734" y="140.54961"/>
     <use style="stroke:#000000;" x="236.16" xlink:href="#m783e9cb734" y="174.528"/>
     <use style="stroke:#000000;" x="236.16" xlink:href="#m783e9cb734" y="151.521562"/>
     <use style="stroke:#000000;" x="236.16" xlink:href="#m783e9cb734" y="141.217429"/>
     <use style="stroke:#000000;" x="236.16" xlink:href="#m783e9cb734" y="137.089388"/>
     <use style="stroke:#000000;" x="236.16" xlink:href="#m783e9cb734" y="142.945077"/>
     <use style="stroke:#000000;" x="236.16" xlink:href="#m783e9cb734" y="149.093013"/>
     <use style="stroke:#000000;" x="268.690724" xlink:href="#m783e9cb734" y="174.528"/>
     <use style="stroke:#000000;" x="248.813724" xlink:href="#m783e9cb734" y="174.528"/>
     <use style="stroke:#000000;" x="236.16" xlink:href="#m783e9cb734" y="156.755284"/>
     <use style="stroke:#000000;" x="236.16" xlink:href="#m783e9cb734" y="158.643475"/>
     <use style="stroke:#000000;" x="325.44" xlink:href="#m783e9cb734" y="136.495356"/>
     <use style="stroke:#000000;" x="236.16" xlink:href="#m783e9cb734" y="150.615954"/>
     <use style="stroke:#000000;" x="236.16" xlink:href="#m783e9cb734" y="145.567228"/>
     <use style="stroke:#000000;" x="281.496839" xlink:href="#m783e9cb734" y="174.528"/>
     <use style="stroke:#000000;" x="236.16" xlink:href="#m783e9cb734" y="154.913697"/>
     <use style="stroke:#000000;" x="290.609612" xlink:href="#m783e9cb734" y="174.528"/>
     <use style="stroke:#000000;" x="236.16" xlink:href="#m783e9cb734" y="134.6112"/>
     <use style="stroke:#000000;" x="236.16" xlink:href="#m783e9cb734" y="145.701284"/>
     <use style="stroke:#000000;" x="236.16" xlink:href="#m783e9cb734" y="148.782419"/>
     <use style="stroke:#000000;" x="236.16" xlink:href="#m783e9cb734" y="137.257464"/>
     <use style="stroke:#000000;" x="236.16" xlink:href="#m783e9cb734" y="155.127218"/>
     <use style="stroke:#000000;" x="236.16" xlink:href="#m783e9cb734" y="162.248325"/>
     <use style="stroke:#000000;" x="236.16" xlink:href="#m783e9cb734" y="169.735335"/>
     <use style="stroke:#000000;" x="236.16" xlink:href="#m783e9cb734" y="140.739699"/>
     <use style="stroke:#000000;" x="325.44" xlink:href="#m783e9cb734" y="140.895736"/>
     <use style="stroke:#000000;" x="236.16" xlink:href="#m783e9cb734" y="148.697961"/>
     <use style="stroke:#000000;" x="263.716687" xlink:href="#m783e9cb734" y="174.528"/>
     <use style="stroke:#000000;" x="325.44" xlink:href="#m783e9cb734" y="137.601035"/>
     <use style="stroke:#000000;" x="236.16" xlink:href="#m783e9cb734" y="174.528"/>
     <use style="stroke:#000000;" x="236.16" xlink:href="#m783e9cb734" y="152.95329"/>
     <use style="stroke:#000000;" x="236.16" xlink:href="#m783e9cb734" y="156.084866"/>
     <use style="stroke:#000000;" x="236.16" xlink:href="#m783e9cb734" y="174.528"/>
     <use style="stroke:#000000;" x="236.16" xlink:href="#m783e9cb734" y="170.927421"/>
     <use style="stroke:#000000;" x="236.16" xlink:href="#m783e9cb734" y="155.596752"/>
     <use style="stroke:#000000;" x="236.16" xlink:href="#m783e9cb734" y="157.546427"/>
     <use style="stroke:#000000;" x="236.16" xlink:href="#m783e9cb734" y="174.528"/>
     <use style="stroke:#000000;" x="236.16" xlink:href="#m783e9cb734" y="157.84481"/>
     <use style="stroke:#000000;" x="236.16" xlink:href="#m783e9cb734" y="163.420034"/>
     <use style="stroke:#000000;" x="236.16" xlink:href="#m783e9cb734" y="160.039007"/>
     <use style="stroke:#000000;" x="281.103514" xlink:href="#m783e9cb734" y="174.528"/>
     <use style="stroke:#000000;" x="236.16" xlink:href="#m783e9cb734" y="164.62669"/>
     <use style="stroke:#000000;" x="236.16" xlink:href="#m783e9cb734" y="170.624918"/>
     <use style="stroke:#000000;" x="325.44" xlink:href="#m783e9cb734" y="145.072229"/>
     <use style="stroke:#000000;" x="241.368307" xlink:href="#m783e9cb734" y="174.528"/>
     <use style="stroke:#000000;" x="236.16" xlink:href="#m783e9cb734" y="136.788348"/>
     <use style="stroke:#000000;" x="253.608983" xlink:href="#m783e9cb734" y="134.6112"/>
     <use style="stroke:#000000;" x="236.16" xlink:href="#m783e9cb734" y="174.528"/>
     <use style="stroke:#000000;" x="241.052731" xlink:href="#m783e9cb734" y="174.528"/>
     <use style="stroke:#000000;" x="247.628425" xlink:href="#m783e9cb734" y="174.528"/>
     <use style="stroke:#000000;" x="240.755219" xlink:href="#m783e9cb734" y="174.528"/>
     <use style="stroke:#000000;" x="236.494323" xlink:href="#m783e9cb734" y="158.686033"/>
     <use style="stroke:#000000;" x="236.16" xlink:href="#m783e9cb734" y="159.483505"/>
     <use style="stroke:#000000;" x="236.16" xlink:href="#m783e9cb734" y="159.472373"/>
     <use style="stroke:#000000;" x="252.668051" xlink:href="#m783e9cb734" y="172.120125"/>
     <use style="stroke:#000000;" x="236.267338" xlink:href="#m783e9cb734" y="174.528"/>
     <use style="stroke:#000000;" x="240.480947" xlink:href="#m783e9cb734" y="173.763597"/>
     <use style="stroke:#000000;" x="236.16" xlink:href="#m783e9cb734" y="146.612756"/>
     <use style="stroke:#000000;" x="236.16" xlink:href="#m783e9cb734" y="142.748112"/>
     <use style="stroke:#000000;" x="243.3705" xlink:href="#m783e9cb734" y="155.511951"/>
     <use style="stroke:#000000;" x="248.474546" xlink:href="#m783e9cb734" y="143.716322"/>
     <use style="stroke:#000000;" x="236.16" xlink:href="#m783e9cb734" y="150.624312"/>
     <use style="stroke:#000000;" x="236.16" xlink:href="#m783e9cb734" y="143.98136"/>
     <use style="stroke:#000000;" x="236.16" xlink:href="#m783e9cb734" y="143.990599"/>
     <use style="stroke:#000000;" x="236.16" xlink:href="#m783e9cb734" y="148.961257"/>
     <use style="stroke:#000000;" x="244.422934" xlink:href="#m783e9cb734" y="157.305615"/>
     <use style="stroke:#000000;" x="319.768087" xlink:href="#m783e9cb734" y="143.989034"/>
     <use style="stroke:#000000;" x="325.44" xlink:href="#m783e9cb734" y="140.999408"/>
     <use style="stroke:#000000;" x="325.44" xlink:href="#m783e9cb734" y="136.654015"/>
     <use style="stroke:#000000;" x="236.710515" xlink:href="#m783e9cb734" y="171.051832"/>
     <use style="stroke:#000000;" x="239.13405" xlink:href="#m783e9cb734" y="159.175333"/>
     <use style="stroke:#000000;" x="251.115452" xlink:href="#m783e9cb734" y="172.098692"/>
     <use style="stroke:#000000;" x="236.16" xlink:href="#m783e9cb734" y="146.166698"/>
     <use style="stroke:#000000;" x="255.557279" xlink:href="#m783e9cb734" y="140.505134"/>
     <use style="stroke:#000000;" x="236.16" xlink:href="#m783e9cb734" y="147.840795"/>
     <use style="stroke:#000000;" x="236.78714" xlink:href="#m783e9cb734" y="150.54329"/>
     <use style="stroke:#000000;" x="236.16" xlink:href="#m783e9cb734" y="153.201764"/>
     <use style="stroke:#000000;" x="248.718553" xlink:href="#m783e9cb734" y="149.873393"/>
     <use style="stroke:#000000;" x="236.16" xlink:href="#m783e9cb734" y="149.536731"/>
     <use style="stroke:#000000;" x="236.16" xlink:href="#m783e9cb734" y="154.666274"/>
     <use style="stroke:#000000;" x="249.351787" xlink:href="#m783e9cb734" y="145.126793"/>
     <use style="stroke:#000000;" x="236.16" xlink:href="#m783e9cb734" y="140.746877"/>
     <use style="stroke:#000000;" x="236.16" xlink:href="#m783e9cb734" y="137.983508"/>
     <use style="stroke:#000000;" x="236.16" xlink:href="#m783e9cb734" y="146.914902"/>
     <use style="stroke:#000000;" x="325.167366" xlink:href="#m783e9cb734" y="147.210422"/>
     <use style="stroke:#000000;" x="325.44" xlink:href="#m783e9cb734" y="142.312598"/>
     <use style="stroke:#000000;" x="314.329218" xlink:href="#m783e9cb734" y="141.090353"/>
     <use style="stroke:#000000;" x="308.284673" xlink:href="#m783e9cb734" y="174.528"/>
     <use style="stroke:#000000;" x="317.448917" xlink:href="#m783e9cb734" y="174.528"/>
     <use style="stroke:#000000;" x="310.11426" xlink:href="#m783e9cb734" y="174.528"/>
     <use style="stroke:#000000;" x="248.615273" xlink:href="#m783e9cb734" y="139.370272"/>
     <use style="stroke:#000000;" x="236.16" xlink:href="#m783e9cb734" y="142.704977"/>
     <use style="stroke:#000000;" x="236.529261" xlink:href="#m783e9cb734" y="146.595504"/>
     <use style="stroke:#000000;" x="269.951926" xlink:href="#m783e9cb734" y="174.528"/>
     <use style="stroke:#000000;" x="278.487334" xlink:href="#m783e9cb734" y="174.528"/>
     <use style="stroke:#000000;" x="255.213009" xlink:href="#m783e9cb734" y="174.528"/>
     <use style="stroke:#000000;" x="240.385755" xlink:href="#m783e9cb734" y="134.6112"/>
     <use style="stroke:#000000;" x="252.14831" xlink:href="#m783e9cb734" y="135.091811"/>
     <use style="stroke:#000000;" x="243.200564" xlink:href="#m783e9cb734" y="136.360074"/>
     <use style="stroke:#000000;" x="294.51226" xlink:href="#m783e9cb734" y="174.528"/>
     <use style="stroke:#000000;" x="287.783539" xlink:href="#m783e9cb734" y="174.528"/>
     <use style="stroke:#000000;" x="293.929414" xlink:href="#m783e9cb734" y="172.923017"/>
     <use style="stroke:#000000;" x="323.72166" xlink:href="#m783e9cb734" y="174.528"/>
     <use style="stroke:#000000;" x="319.967731" xlink:href="#m783e9cb734" y="172.404907"/>
     <use style="stroke:#000000;" x="319.583698" xlink:href="#m783e9cb734" y="173.015553"/>
     <use style="stroke:#000000;" x="236.16" xlink:href="#m783e9cb734" y="134.6112"/>
     <use style="stroke:#000000;" x="250.105291" xlink:href="#m783e9cb734" y="134.6112"/>
     <use style="stroke:#000000;" x="246.60446" xlink:href="#m783e9cb734" y="137.694705"/>
     <use style="stroke:#000000;" x="236.16" xlink:href="#m783e9cb734" y="166.9257"/>
     <use style="stroke:#000000;" x="236.16" xlink:href="#m783e9cb734" y="148.366574"/>
     <use style="stroke:#000000;" x="236.16" xlink:href="#m783e9cb734" y="142.054162"/>
     <use style="stroke:#000000;" x="320.322667" xlink:href="#m783e9cb734" y="172.572414"/>
     <use style="stroke:#000000;" x="325.44" xlink:href="#m783e9cb734" y="151.295556"/>
     <use style="stroke:#000000;" x="323.684045" xlink:href="#m783e9cb734" y="154.877586"/>
     <use style="stroke:#000000;" x="323.791358" xlink:href="#m783e9cb734" y="144.619989"/>
     <use style="stroke:#000000;" x="242.654707" xlink:href="#m783e9cb734" y="174.528"/>
     <use style="stroke:#000000;" x="236.16" xlink:href="#m783e9cb734" y="170.88559"/>
     <use style="stroke:#000000;" x="251.922609" xlink:href="#m783e9cb734" y="166.544321"/>
     <use style="stroke:#000000;" x="314.461576" xlink:href="#m783e9cb734" y="136.654589"/>
     <use style="stroke:#000000;" x="313.861757" xlink:href="#m783e9cb734" y="138.523776"/>
     <use style="stroke:#000000;" x="313.993169" xlink:href="#m783e9cb734" y="134.6112"/>
     <use style="stroke:#000000;" x="301.065412" xlink:href="#m783e9cb734" y="167.798377"/>
     <use style="stroke:#000000;" x="313.664302" xlink:href="#m783e9cb734" y="174.528"/>
     <use style="stroke:#000000;" x="325.44" xlink:href="#m783e9cb734" y="166.583682"/>
     <use style="stroke:#000000;" x="313.14279" xlink:href="#m783e9cb734" y="167.130135"/>
     <use style="stroke:#000000;" x="243.228824" xlink:href="#m783e9cb734" y="174.528"/>
     <use style="stroke:#000000;" x="247.190894" xlink:href="#m783e9cb734" y="154.183553"/>
     <use style="stroke:#000000;" x="236.549541" xlink:href="#m783e9cb734" y="155.452739"/>
     <use style="stroke:#000000;" x="247.532855" xlink:href="#m783e9cb734" y="152.058795"/>
     <use style="stroke:#000000;" x="238.458022" xlink:href="#m783e9cb734" y="142.843849"/>
     <use style="stroke:#000000;" x="264.55405" xlink:href="#m783e9cb734" y="134.873369"/>
     <use style="stroke:#000000;" x="237.737997" xlink:href="#m783e9cb734" y="141.285038"/>
     <use style="stroke:#000000;" x="236.16" xlink:href="#m783e9cb734" y="174.528"/>
     <use style="stroke:#000000;" x="245.696616" xlink:href="#m783e9cb734" y="150.12647"/>
     <use style="stroke:#000000;" x="236.16" xlink:href="#m783e9cb734" y="143.023748"/>
     <use style="stroke:#000000;" x="236.16" xlink:href="#m783e9cb734" y="140.718965"/>
     <use style="stroke:#000000;" x="237.894111" xlink:href="#m783e9cb734" y="142.530942"/>
     <use style="stroke:#000000;" x="236.16" xlink:href="#m783e9cb734" y="140.125083"/>
     <use style="stroke:#000000;" x="257.027984" xlink:href="#m783e9cb734" y="134.6112"/>
     <use style="stroke:#000000;" x="241.359771" xlink:href="#m783e9cb734" y="137.398638"/>
     <use style="stroke:#000000;" x="237.103287" xlink:href="#m783e9cb734" y="144.66789"/>
     <use style="stroke:#000000;" x="236.696432" xlink:href="#m783e9cb734" y="147.144131"/>
     <use style="stroke:#000000;" x="236.16" xlink:href="#m783e9cb734" y="147.016039"/>
     <use style="stroke:#000000;" x="279.063415" xlink:href="#m783e9cb734" y="173.268542"/>
     <use style="stroke:#000000;" x="271.800579" xlink:href="#m783e9cb734" y="174.528"/>
     <use style="stroke:#000000;" x="262.887418" xlink:href="#m783e9cb734" y="174.528"/>
     <use style="stroke:#000000;" x="236.16" xlink:href="#m783e9cb734" y="145.029751"/>
     <use style="stroke:#000000;" x="246.823613" xlink:href="#m783e9cb734" y="152.538206"/>
     <use style="stroke:#000000;" x="243.909478" xlink:href="#m783e9cb734" y="158.602639"/>
     <use style="stroke:#000000;" x="243.626239" xlink:href="#m783e9cb734" y="168.2058"/>
     <use style="stroke:#000000;" x="319.315042" xlink:href="#m783e9cb734" y="145.267604"/>
     <use style="stroke:#000000;" x="244.316565" xlink:href="#m783e9cb734" y="151.194118"/>
     <use style="stroke:#000000;" x="236.16" xlink:href="#m783e9cb734" y="157.087804"/>
     <use style="stroke:#000000;" x="243.841391" xlink:href="#m783e9cb734" y="144.661222"/>
     <use style="stroke:#000000;" x="236.16" xlink:href="#m783e9cb734" y="143.660771"/>
     <use style="stroke:#000000;" x="271.46156" xlink:href="#m783e9cb734" y="174.528"/>
     <use style="stroke:#000000;" x="299.618581" xlink:href="#m783e9cb734" y="166.81889"/>
     <use style="stroke:#000000;" x="236.16" xlink:href="#m783e9cb734" y="158.247341"/>
     <use style="stroke:#000000;" x="246.085535" xlink:href="#m783e9cb734" y="149.944987"/>
     <use style="stroke:#000000;" x="292.214221" xlink:href="#m783e9cb734" y="174.528"/>
     <use style="stroke:#000000;" x="300.788436" xlink:href="#m783e9cb734" y="164.218793"/>
     <use style="stroke:#000000;" x="236.16" xlink:href="#m783e9cb734" y="134.6112"/>
     <use style="stroke:#000000;" x="236.16" xlink:href="#m783e9cb734" y="136.48181"/>
     <use style="stroke:#000000;" x="236.540399" xlink:href="#m783e9cb734" y="153.566797"/>
     <use style="stroke:#000000;" x="239.927206" xlink:href="#m783e9cb734" y="143.120303"/>
     <use style="stroke:#000000;" x="246.365488" xlink:href="#m783e9cb734" y="148.510491"/>
     <use style="stroke:#000000;" x="236.16" xlink:href="#m783e9cb734" y="134.678022"/>
     <use style="stroke:#000000;" x="236.16" xlink:href="#m783e9cb734" y="138.426783"/>
     <use style="stroke:#000000;" x="236.16" xlink:href="#m783e9cb734" y="152.582712"/>
     <use style="stroke:#000000;" x="242.432157" xlink:href="#m783e9cb734" y="153.652638"/>
     <use style="stroke:#000000;" x="236.16" xlink:href="#m783e9cb734" y="164.230254"/>
     <use style="stroke:#000000;" x="236.16" xlink:href="#m783e9cb734" y="165.685166"/>
     <use style="stroke:#000000;" x="242.266614" xlink:href="#m783e9cb734" y="161.398093"/>
     <use style="stroke:#000000;" x="240.125008" xlink:href="#m783e9cb734" y="172.235215"/>
     <use style="stroke:#000000;" x="237.262852" xlink:href="#m783e9cb734" y="134.6112"/>
     <use style="stroke:#000000;" x="256.367178" xlink:href="#m783e9cb734" y="141.645217"/>
     <use style="stroke:#000000;" x="325.44" xlink:href="#m783e9cb734" y="145.4182"/>
     <use style="stroke:#000000;" x="324.159446" xlink:href="#m783e9cb734" y="139.623895"/>
     <use style="stroke:#000000;" x="244.904621" xlink:href="#m783e9cb734" y="162.938235"/>
     <use style="stroke:#000000;" x="236.16" xlink:href="#m783e9cb734" y="146.273231"/>
     <use style="stroke:#000000;" x="269.3538" xlink:href="#m783e9cb734" y="174.528"/>
     <use style="stroke:#000000;" x="287.760628" xlink:href="#m783e9cb734" y="172.465482"/>
     <use style="stroke:#000000;" x="325.44" xlink:href="#m783e9cb734" y="134.6112"/>
     <use style="stroke:#000000;" x="293.446665" xlink:href="#m783e9cb734" y="139.567831"/>
     <use style="stroke:#000000;" x="236.16" xlink:href="#m783e9cb734" y="168.212655"/>
     <use style="stroke:#000000;" x="236.16" xlink:href="#m783e9cb734" y="174.528"/>
     <use style="stroke:#000000;" x="249.138018" xlink:href="#m783e9cb734" y="142.732796"/>
     <use style="stroke:#000000;" x="236.16" xlink:href="#m783e9cb734" y="146.960937"/>
     <use style="stroke:#000000;" x="236.16" xlink:href="#m783e9cb734" y="157.821771"/>
     <use style="stroke:#000000;" x="243.871333" xlink:href="#m783e9cb734" y="173.790155"/>
     <use style="stroke:#000000;" x="245.22489" xlink:href="#m783e9cb734" y="174.528"/>
     <use style="stroke:#000000;" x="237.815812" xlink:href="#m783e9cb734" y="174.528"/>
     <use style="stroke:#000000;" x="239.416125" xlink:href="#m783e9cb734" y="167.437688"/>
     <use style="stroke:#000000;" x="236.16" xlink:href="#m783e9cb734" y="149.670174"/>
     <use style="stroke:#000000;" x="243.531693" xlink:href="#m783e9cb734" y="160.225984"/>
     <use style="stroke:#000000;" x="236.16" xlink:href="#m783e9cb734" y="173.998956"/>
     <use style="stroke:#000000;" x="236.16" xlink:href="#m783e9cb734" y="174.528"/>
     <use style="stroke:#000000;" x="236.16" xlink:href="#m783e9cb734" y="148.163785"/>
     <use style="stroke:#000000;" x="242.429072" xlink:href="#m783e9cb734" y="174.528"/>
     <use style="stroke:#000000;" x="246.410391" xlink:href="#m783e9cb734" y="156.105145"/>
     <use style="stroke:#000000;" x="236.16" xlink:href="#m783e9cb734" y="159.553081"/>
     <use style="stroke:#000000;" x="273.10932" xlink:href="#m783e9cb734" y="173.596797"/>
     <use style="stroke:#000000;" x="257.59296" xlink:href="#m783e9cb734" y="163.427112"/>
     <use style="stroke:#000000;" x="236.16" xlink:href="#m783e9cb734" y="172.762878"/>
     <use style="stroke:#000000;" x="325.44" xlink:href="#m783e9cb734" y="147.462241"/>
     <use style="stroke:#000000;" x="255.019646" xlink:href="#m783e9cb734" y="174.528"/>
     <use style="stroke:#000000;" x="237.572902" xlink:href="#m783e9cb734" y="134.6112"/>
    </g>
   </g>
   <g id="PathCollection_2">
    <defs>
     <path d="M 0 0.935414 
C 0.248075 0.935414 0.486022 0.836853 0.661438 0.661438 
C 0.836853 0.486022 0.935414 0.248075 0.935414 0 
C 0.935414 -0.248075 0.836853 -0.486022 0.661438 -0.661438 
C 0.486022 -0.836853 0.248075 -0.935414 0 -0.935414 
C -0.248075 -0.935414 -0.486022 -0.836853 -0.661438 -0.661438 
C -0.836853 -0.486022 -0.935414 -0.248075 -0.935414 0 
C -0.935414 0.248075 -0.836853 0.486022 -0.661438 0.661438 
C -0.486022 0.836853 -0.248075 0.935414 0 0.935414 
z
" id="m9b666eeb2d" style="stroke:#0000ff;"/>
    </defs>
    <g clip-path="url(#p69a10d5568)">
     <use style="fill:#0000ff;stroke:#0000ff;" x="236.16" xlink:href="#m9b666eeb2d" y="134.6112"/>
     <use style="fill:#0000ff;stroke:#0000ff;" x="240.106143" xlink:href="#m9b666eeb2d" y="174.528"/>
     <use style="fill:#0000ff;stroke:#0000ff;" x="236.16" xlink:href="#m9b666eeb2d" y="163.723797"/>
     <use style="fill:#0000ff;stroke:#0000ff;" x="236.16" xlink:href="#m9b666eeb2d" y="174.528"/>
     <use style="fill:#0000ff;stroke:#0000ff;" x="236.16" xlink:href="#m9b666eeb2d" y="147.806594"/>
     <use style="fill:#0000ff;stroke:#0000ff;" x="236.16" xlink:href="#m9b666eeb2d" y="147.955218"/>
     <use style="fill:#0000ff;stroke:#0000ff;" x="236.16" xlink:href="#m9b666eeb2d" y="150.313401"/>
     <use style="fill:#0000ff;stroke:#0000ff;" x="325.44" xlink:href="#m9b666eeb2d" y="140.736768"/>
     <use style="fill:#0000ff;stroke:#0000ff;" x="236.16" xlink:href="#m9b666eeb2d" y="170.072867"/>
     <use style="fill:#0000ff;stroke:#0000ff;" x="236.16" xlink:href="#m9b666eeb2d" y="145.034124"/>
     <use style="fill:#0000ff;stroke:#0000ff;" x="236.16" xlink:href="#m9b666eeb2d" y="150.935124"/>
     <use style="fill:#0000ff;stroke:#0000ff;" x="236.16" xlink:href="#m9b666eeb2d" y="143.975966"/>
     <use style="fill:#0000ff;stroke:#0000ff;" x="236.16" xlink:href="#m9b666eeb2d" y="142.435865"/>
     <use style="fill:#0000ff;stroke:#0000ff;" x="325.44" xlink:href="#m9b666eeb2d" y="143.998845"/>
     <use style="fill:#0000ff;stroke:#0000ff;" x="321.885286" xlink:href="#m9b666eeb2d" y="174.528"/>
     <use style="fill:#0000ff;stroke:#0000ff;" x="236.16" xlink:href="#m9b666eeb2d" y="139.295179"/>
     <use style="fill:#0000ff;stroke:#0000ff;" x="265.870376" xlink:href="#m9b666eeb2d" y="174.528"/>
     <use style="fill:#0000ff;stroke:#0000ff;" x="236.16" xlink:href="#m9b666eeb2d" y="134.6112"/>
     <use style="fill:#0000ff;stroke:#0000ff;" x="304.775217" xlink:href="#m9b666eeb2d" y="174.528"/>
     <use style="fill:#0000ff;stroke:#0000ff;" x="325.44" xlink:href="#m9b666eeb2d" y="171.318227"/>
     <use style="fill:#0000ff;stroke:#0000ff;" x="236.16" xlink:href="#m9b666eeb2d" y="134.6112"/>
     <use style="fill:#0000ff;stroke:#0000ff;" x="236.16" xlink:href="#m9b666eeb2d" y="165.22391"/>
     <use style="fill:#0000ff;stroke:#0000ff;" x="236.16" xlink:href="#m9b666eeb2d" y="155.877912"/>
     <use style="fill:#0000ff;stroke:#0000ff;" x="236.16" xlink:href="#m9b666eeb2d" y="150.493043"/>
     <use style="fill:#0000ff;stroke:#0000ff;" x="325.44" xlink:href="#m9b666eeb2d" y="158.213463"/>
     <use style="fill:#0000ff;stroke:#0000ff;" x="325.44" xlink:href="#m9b666eeb2d" y="146.311296"/>
     <use style="fill:#0000ff;stroke:#0000ff;" x="325.44" xlink:href="#m9b666eeb2d" y="153.300602"/>
     <use style="fill:#0000ff;stroke:#0000ff;" x="325.44" xlink:href="#m9b666eeb2d" y="142.504809"/>
     <use style="fill:#0000ff;stroke:#0000ff;" x="238.269591" xlink:href="#m9b666eeb2d" y="174.528"/>
     <use style="fill:#0000ff;stroke:#0000ff;" x="325.44" xlink:href="#m9b666eeb2d" y="136.479949"/>
     <use style="fill:#0000ff;stroke:#0000ff;" x="312.023915" xlink:href="#m9b666eeb2d" y="174.528"/>
     <use style="fill:#0000ff;stroke:#0000ff;" x="325.44" xlink:href="#m9b666eeb2d" y="166.803901"/>
     <use style="fill:#0000ff;stroke:#0000ff;" x="254.014438" xlink:href="#m9b666eeb2d" y="174.528"/>
     <use style="fill:#0000ff;stroke:#0000ff;" x="236.16" xlink:href="#m9b666eeb2d" y="156.637806"/>
     <use style="fill:#0000ff;stroke:#0000ff;" x="236.16" xlink:href="#m9b666eeb2d" y="140.54961"/>
     <use style="fill:#0000ff;stroke:#0000ff;" x="236.16" xlink:href="#m9b666eeb2d" y="174.528"/>
     <use style="fill:#0000ff;stroke:#0000ff;" x="236.16" xlink:href="#m9b666eeb2d" y="151.521562"/>
     <use style="fill:#0000ff;stroke:#0000ff;" x="236.16" xlink:href="#m9b666eeb2d" y="141.217429"/>
     <use style="fill:#0000ff;stroke:#0000ff;" x="236.16" xlink:href="#m9b666eeb2d" y="137.089388"/>
     <use style="fill:#0000ff;stroke:#0000ff;" x="236.16" xlink:href="#m9b666eeb2d" y="142.945077"/>
     <use style="fill:#0000ff;stroke:#0000ff;" x="236.16" xlink:href="#m9b666eeb2d" y="149.093013"/>
     <use style="fill:#0000ff;stroke:#0000ff;" x="268.690724" xlink:href="#m9b666eeb2d" y="174.528"/>
     <use style="fill:#0000ff;stroke:#0000ff;" x="248.813724" xlink:href="#m9b666eeb2d" y="174.528"/>
     <use style="fill:#0000ff;stroke:#0000ff;" x="236.16" xlink:href="#m9b666eeb2d" y="156.755284"/>
     <use style="fill:#0000ff;stroke:#0000ff;" x="236.16" xlink:href="#m9b666eeb2d" y="158.643475"/>
     <use style="fill:#0000ff;stroke:#0000ff;" x="325.44" xlink:href="#m9b666eeb2d" y="136.495356"/>
     <use style="fill:#0000ff;stroke:#0000ff;" x="236.16" xlink:href="#m9b666eeb2d" y="150.615954"/>
     <use style="fill:#0000ff;stroke:#0000ff;" x="236.16" xlink:href="#m9b666eeb2d" y="145.567228"/>
     <use style="fill:#0000ff;stroke:#0000ff;" x="281.496839" xlink:href="#m9b666eeb2d" y="174.528"/>
     <use style="fill:#0000ff;stroke:#0000ff;" x="236.16" xlink:href="#m9b666eeb2d" y="154.913697"/>
     <use style="fill:#0000ff;stroke:#0000ff;" x="290.609612" xlink:href="#m9b666eeb2d" y="174.528"/>
     <use style="fill:#0000ff;stroke:#0000ff;" x="236.16" xlink:href="#m9b666eeb2d" y="134.6112"/>
     <use style="fill:#0000ff;stroke:#0000ff;" x="236.16" xlink:href="#m9b666eeb2d" y="145.701284"/>
     <use style="fill:#0000ff;stroke:#0000ff;" x="236.16" xlink:href="#m9b666eeb2d" y="148.782419"/>
     <use style="fill:#0000ff;stroke:#0000ff;" x="236.16" xlink:href="#m9b666eeb2d" y="137.257464"/>
     <use style="fill:#0000ff;stroke:#0000ff;" x="236.16" xlink:href="#m9b666eeb2d" y="155.127218"/>
     <use style="fill:#0000ff;stroke:#0000ff;" x="236.16" xlink:href="#m9b666eeb2d" y="162.248325"/>
     <use style="fill:#0000ff;stroke:#0000ff;" x="236.16" xlink:href="#m9b666eeb2d" y="169.735335"/>
     <use style="fill:#0000ff;stroke:#0000ff;" x="236.16" xlink:href="#m9b666eeb2d" y="140.739699"/>
     <use style="fill:#0000ff;stroke:#0000ff;" x="325.44" xlink:href="#m9b666eeb2d" y="140.895736"/>
     <use style="fill:#0000ff;stroke:#0000ff;" x="236.16" xlink:href="#m9b666eeb2d" y="148.697961"/>
     <use style="fill:#0000ff;stroke:#0000ff;" x="263.716687" xlink:href="#m9b666eeb2d" y="174.528"/>
     <use style="fill:#0000ff;stroke:#0000ff;" x="325.44" xlink:href="#m9b666eeb2d" y="137.601035"/>
     <use style="fill:#0000ff;stroke:#0000ff;" x="236.16" xlink:href="#m9b666eeb2d" y="174.528"/>
     <use style="fill:#0000ff;stroke:#0000ff;" x="236.16" xlink:href="#m9b666eeb2d" y="152.95329"/>
     <use style="fill:#0000ff;stroke:#0000ff;" x="236.16" xlink:href="#m9b666eeb2d" y="156.084866"/>
     <use style="fill:#0000ff;stroke:#0000ff;" x="236.16" xlink:href="#m9b666eeb2d" y="174.528"/>
     <use style="fill:#0000ff;stroke:#0000ff;" x="236.16" xlink:href="#m9b666eeb2d" y="170.927421"/>
     <use style="fill:#0000ff;stroke:#0000ff;" x="236.16" xlink:href="#m9b666eeb2d" y="155.596752"/>
     <use style="fill:#0000ff;stroke:#0000ff;" x="236.16" xlink:href="#m9b666eeb2d" y="157.546427"/>
     <use style="fill:#0000ff;stroke:#0000ff;" x="236.16" xlink:href="#m9b666eeb2d" y="174.528"/>
     <use style="fill:#0000ff;stroke:#0000ff;" x="236.16" xlink:href="#m9b666eeb2d" y="157.84481"/>
     <use style="fill:#0000ff;stroke:#0000ff;" x="236.16" xlink:href="#m9b666eeb2d" y="163.420034"/>
     <use style="fill:#0000ff;stroke:#0000ff;" x="236.16" xlink:href="#m9b666eeb2d" y="160.039007"/>
     <use style="fill:#0000ff;stroke:#0000ff;" x="281.103514" xlink:href="#m9b666eeb2d" y="174.528"/>
     <use style="fill:#0000ff;stroke:#0000ff;" x="236.16" xlink:href="#m9b666eeb2d" y="164.62669"/>
     <use style="fill:#0000ff;stroke:#0000ff;" x="236.16" xlink:href="#m9b666eeb2d" y="170.624918"/>
     <use style="fill:#0000ff;stroke:#0000ff;" x="325.44" xlink:href="#m9b666eeb2d" y="145.072229"/>
     <use style="fill:#0000ff;stroke:#0000ff;" x="241.368307" xlink:href="#m9b666eeb2d" y="174.528"/>
     <use style="fill:#0000ff;stroke:#0000ff;" x="236.16" xlink:href="#m9b666eeb2d" y="136.788348"/>
    </g>
   </g>
   <g id="matplotlib.axis_1">
    <g id="xtick_1">
     <g id="line2d_1">
      <defs>
       <path d="M 0 0 
L 0 3.5 
" id="m4322f9bbd0" style="stroke:#000000;stroke-width:0.8;"/>
      </defs>
      <g>
       <use style="stroke:#000000;stroke-width:0.8;" x="57.6" xlink:href="#m4322f9bbd0" y="307.584"/>
      </g>
     </g>
     <g id="text_1">
      <!-- −10.0 -->
      <defs>
       <path d="M 10.59375 35.5 
L 73.1875 35.5 
L 73.1875 27.203125 
L 10.59375 27.203125 
z
" id="DejaVuSans-2212"/>
       <path d="M 12.40625 8.296875 
L 28.515625 8.296875 
L 28.515625 63.921875 
L 10.984375 60.40625 
L 10.984375 69.390625 
L 28.421875 72.90625 
L 38.28125 72.90625 
L 38.28125 8.296875 
L 54.390625 8.296875 
L 54.390625 0 
L 12.40625 0 
z
" id="DejaVuSans-31"/>
       <path d="M 31.78125 66.40625 
Q 24.171875 66.40625 20.328125 58.90625 
Q 16.5 51.421875 16.5 36.375 
Q 16.5 21.390625 20.328125 13.890625 
Q 24.171875 6.390625 31.78125 6.390625 
Q 39.453125 6.390625 43.28125 13.890625 
Q 47.125 21.390625 47.125 36.375 
Q 47.125 51.421875 43.28125 58.90625 
Q 39.453125 66.40625 31.78125 66.40625 
z
M 31.78125 74.21875 
Q 44.046875 74.21875 50.515625 64.515625 
Q 56.984375 54.828125 56.984375 36.375 
Q 56.984375 17.96875 50.515625 8.265625 
Q 44.046875 -1.421875 31.78125 -1.421875 
Q 19.53125 -1.421875 13.0625 8.265625 
Q 6.59375 17.96875 6.59375 36.375 
Q 6.59375 54.828125 13.0625 64.515625 
Q 19.53125 74.21875 31.78125 74.21875 
z
" id="DejaVuSans-30"/>
       <path d="M 10.6875 12.40625 
L 21 12.40625 
L 21 0 
L 10.6875 0 
z
" id="DejaVuSans-2e"/>
      </defs>
      <g transform="translate(42.277344 322.182437)scale(0.1 -0.1)">
       <use xlink:href="#DejaVuSans-2212"/>
       <use x="83.789062" xlink:href="#DejaVuSans-31"/>
       <use x="147.412109" xlink:href="#DejaVuSans-30"/>
       <use x="211.035156" xlink:href="#DejaVuSans-2e"/>
       <use x="242.822266" xlink:href="#DejaVuSans-30"/>
      </g>
     </g>
    </g>
    <g id="xtick_2">
     <g id="line2d_2">
      <g>
       <use style="stroke:#000000;stroke-width:0.8;" x="102.24" xlink:href="#m4322f9bbd0" y="307.584"/>
      </g>
     </g>
     <g id="text_2">
      <!-- −7.5 -->
      <defs>
       <path d="M 8.203125 72.90625 
L 55.078125 72.90625 
L 55.078125 68.703125 
L 28.609375 0 
L 18.3125 0 
L 43.21875 64.59375 
L 8.203125 64.59375 
z
" id="DejaVuSans-37"/>
       <path d="M 10.796875 72.90625 
L 49.515625 72.90625 
L 49.515625 64.59375 
L 19.828125 64.59375 
L 19.828125 46.734375 
Q 21.96875 47.46875 24.109375 47.828125 
Q 26.265625 48.1875 28.421875 48.1875 
Q 40.625 48.1875 47.75 41.5 
Q 54.890625 34.8125 54.890625 23.390625 
Q 54.890625 11.625 47.5625 5.09375 
Q 40.234375 -1.421875 26.90625 -1.421875 
Q 22.3125 -1.421875 17.546875 -0.640625 
Q 12.796875 0.140625 7.71875 1.703125 
L 7.71875 11.625 
Q 12.109375 9.234375 16.796875 8.0625 
Q 21.484375 6.890625 26.703125 6.890625 
Q 35.15625 6.890625 40.078125 11.328125 
Q 45.015625 15.765625 45.015625 23.390625 
Q 45.015625 31 40.078125 35.4375 
Q 35.15625 39.890625 26.703125 39.890625 
Q 22.75 39.890625 18.8125 39.015625 
Q 14.890625 38.140625 10.796875 36.28125 
z
" id="DejaVuSans-35"/>
      </defs>
      <g transform="translate(90.098594 322.182437)scale(0.1 -0.1)">
       <use xlink:href="#DejaVuSans-2212"/>
       <use x="83.789062" xlink:href="#DejaVuSans-37"/>
       <use x="147.412109" xlink:href="#DejaVuSans-2e"/>
       <use x="179.199219" xlink:href="#DejaVuSans-35"/>
      </g>
     </g>
    </g>
    <g id="xtick_3">
     <g id="line2d_3">
      <g>
       <use style="stroke:#000000;stroke-width:0.8;" x="146.88" xlink:href="#m4322f9bbd0" y="307.584"/>
      </g>
     </g>
     <g id="text_3">
      <!-- −5.0 -->
      <g transform="translate(134.738594 322.182437)scale(0.1 -0.1)">
       <use xlink:href="#DejaVuSans-2212"/>
       <use x="83.789062" xlink:href="#DejaVuSans-35"/>
       <use x="147.412109" xlink:href="#DejaVuSans-2e"/>
       <use x="179.199219" xlink:href="#DejaVuSans-30"/>
      </g>
     </g>
    </g>
    <g id="xtick_4">
     <g id="line2d_4">
      <g>
       <use style="stroke:#000000;stroke-width:0.8;" x="191.52" xlink:href="#m4322f9bbd0" y="307.584"/>
      </g>
     </g>
     <g id="text_4">
      <!-- −2.5 -->
      <defs>
       <path d="M 19.1875 8.296875 
L 53.609375 8.296875 
L 53.609375 0 
L 7.328125 0 
L 7.328125 8.296875 
Q 12.9375 14.109375 22.625 23.890625 
Q 32.328125 33.6875 34.8125 36.53125 
Q 39.546875 41.84375 41.421875 45.53125 
Q 43.3125 49.21875 43.3125 52.78125 
Q 43.3125 58.59375 39.234375 62.25 
Q 35.15625 65.921875 28.609375 65.921875 
Q 23.96875 65.921875 18.8125 64.3125 
Q 13.671875 62.703125 7.8125 59.421875 
L 7.8125 69.390625 
Q 13.765625 71.78125 18.9375 73 
Q 24.125 74.21875 28.421875 74.21875 
Q 39.75 74.21875 46.484375 68.546875 
Q 53.21875 62.890625 53.21875 53.421875 
Q 53.21875 48.921875 51.53125 44.890625 
Q 49.859375 40.875 45.40625 35.40625 
Q 44.1875 33.984375 37.640625 27.21875 
Q 31.109375 20.453125 19.1875 8.296875 
z
" id="DejaVuSans-32"/>
      </defs>
      <g transform="translate(179.378594 322.182437)scale(0.1 -0.1)">
       <use xlink:href="#DejaVuSans-2212"/>
       <use x="83.789062" xlink:href="#DejaVuSans-32"/>
       <use x="147.412109" xlink:href="#DejaVuSans-2e"/>
       <use x="179.199219" xlink:href="#DejaVuSans-35"/>
      </g>
     </g>
    </g>
    <g id="xtick_5">
     <g id="line2d_5">
      <g>
       <use style="stroke:#000000;stroke-width:0.8;" x="236.16" xlink:href="#m4322f9bbd0" y="307.584"/>
      </g>
     </g>
     <g id="text_5">
      <!-- 0.0 -->
      <g transform="translate(228.208438 322.182437)scale(0.1 -0.1)">
       <use xlink:href="#DejaVuSans-30"/>
       <use x="63.623047" xlink:href="#DejaVuSans-2e"/>
       <use x="95.410156" xlink:href="#DejaVuSans-30"/>
      </g>
     </g>
    </g>
    <g id="xtick_6">
     <g id="line2d_6">
      <g>
       <use style="stroke:#000000;stroke-width:0.8;" x="280.8" xlink:href="#m4322f9bbd0" y="307.584"/>
      </g>
     </g>
     <g id="text_6">
      <!-- 2.5 -->
      <g transform="translate(272.848437 322.182437)scale(0.1 -0.1)">
       <use xlink:href="#DejaVuSans-32"/>
       <use x="63.623047" xlink:href="#DejaVuSans-2e"/>
       <use x="95.410156" xlink:href="#DejaVuSans-35"/>
      </g>
     </g>
    </g>
    <g id="xtick_7">
     <g id="line2d_7">
      <g>
       <use style="stroke:#000000;stroke-width:0.8;" x="325.44" xlink:href="#m4322f9bbd0" y="307.584"/>
      </g>
     </g>
     <g id="text_7">
      <!-- 5.0 -->
      <g transform="translate(317.488437 322.182437)scale(0.1 -0.1)">
       <use xlink:href="#DejaVuSans-35"/>
       <use x="63.623047" xlink:href="#DejaVuSans-2e"/>
       <use x="95.410156" xlink:href="#DejaVuSans-30"/>
      </g>
     </g>
    </g>
    <g id="xtick_8">
     <g id="line2d_8">
      <g>
       <use style="stroke:#000000;stroke-width:0.8;" x="370.08" xlink:href="#m4322f9bbd0" y="307.584"/>
      </g>
     </g>
     <g id="text_8">
      <!-- 7.5 -->
      <g transform="translate(362.128438 322.182437)scale(0.1 -0.1)">
       <use xlink:href="#DejaVuSans-37"/>
       <use x="63.623047" xlink:href="#DejaVuSans-2e"/>
       <use x="95.410156" xlink:href="#DejaVuSans-35"/>
      </g>
     </g>
    </g>
    <g id="xtick_9">
     <g id="line2d_9">
      <g>
       <use style="stroke:#000000;stroke-width:0.8;" x="414.72" xlink:href="#m4322f9bbd0" y="307.584"/>
      </g>
     </g>
     <g id="text_9">
      <!-- 10.0 -->
      <g transform="translate(403.587188 322.182437)scale(0.1 -0.1)">
       <use xlink:href="#DejaVuSans-31"/>
       <use x="63.623047" xlink:href="#DejaVuSans-30"/>
       <use x="127.246094" xlink:href="#DejaVuSans-2e"/>
       <use x="159.033203" xlink:href="#DejaVuSans-30"/>
      </g>
     </g>
    </g>
   </g>
   <g id="matplotlib.axis_2">
    <g id="ytick_1">
     <g id="line2d_10">
      <defs>
       <path d="M 0 0 
L -3.5 0 
" id="m2678651e82" style="stroke:#000000;stroke-width:0.8;"/>
      </defs>
      <g>
       <use style="stroke:#000000;stroke-width:0.8;" x="57.6" xlink:href="#m2678651e82" y="307.584"/>
      </g>
     </g>
     <g id="text_10">
      <!-- −10.0 -->
      <g transform="translate(19.954687 311.383219)scale(0.1 -0.1)">
       <use xlink:href="#DejaVuSans-2212"/>
       <use x="83.789062" xlink:href="#DejaVuSans-31"/>
       <use x="147.412109" xlink:href="#DejaVuSans-30"/>
       <use x="211.035156" xlink:href="#DejaVuSans-2e"/>
       <use x="242.822266" xlink:href="#DejaVuSans-30"/>
      </g>
     </g>
    </g>
    <g id="ytick_2">
     <g id="line2d_11">
      <g>
       <use style="stroke:#000000;stroke-width:0.8;" x="57.6" xlink:href="#m2678651e82" y="274.32"/>
      </g>
     </g>
     <g id="text_11">
      <!-- −7.5 -->
      <g transform="translate(26.317187 278.119219)scale(0.1 -0.1)">
       <use xlink:href="#DejaVuSans-2212"/>
       <use x="83.789062" xlink:href="#DejaVuSans-37"/>
       <use x="147.412109" xlink:href="#DejaVuSans-2e"/>
       <use x="179.199219" xlink:href="#DejaVuSans-35"/>
      </g>
     </g>
    </g>
    <g id="ytick_3">
     <g id="line2d_12">
      <g>
       <use style="stroke:#000000;stroke-width:0.8;" x="57.6" xlink:href="#m2678651e82" y="241.056"/>
      </g>
     </g>
     <g id="text_12">
      <!-- −5.0 -->
      <g transform="translate(26.317187 244.855219)scale(0.1 -0.1)">
       <use xlink:href="#DejaVuSans-2212"/>
       <use x="83.789062" xlink:href="#DejaVuSans-35"/>
       <use x="147.412109" xlink:href="#DejaVuSans-2e"/>
       <use x="179.199219" xlink:href="#DejaVuSans-30"/>
      </g>
     </g>
    </g>
    <g id="ytick_4">
     <g id="line2d_13">
      <g>
       <use style="stroke:#000000;stroke-width:0.8;" x="57.6" xlink:href="#m2678651e82" y="207.792"/>
      </g>
     </g>
     <g id="text_13">
      <!-- −2.5 -->
      <g transform="translate(26.317187 211.591219)scale(0.1 -0.1)">
       <use xlink:href="#DejaVuSans-2212"/>
       <use x="83.789062" xlink:href="#DejaVuSans-32"/>
       <use x="147.412109" xlink:href="#DejaVuSans-2e"/>
       <use x="179.199219" xlink:href="#DejaVuSans-35"/>
      </g>
     </g>
    </g>
    <g id="ytick_5">
     <g id="line2d_14">
      <g>
       <use style="stroke:#000000;stroke-width:0.8;" x="57.6" xlink:href="#m2678651e82" y="174.528"/>
      </g>
     </g>
     <g id="text_14">
      <!-- 0.0 -->
      <g transform="translate(34.696875 178.327219)scale(0.1 -0.1)">
       <use xlink:href="#DejaVuSans-30"/>
       <use x="63.623047" xlink:href="#DejaVuSans-2e"/>
       <use x="95.410156" xlink:href="#DejaVuSans-30"/>
      </g>
     </g>
    </g>
    <g id="ytick_6">
     <g id="line2d_15">
      <g>
       <use style="stroke:#000000;stroke-width:0.8;" x="57.6" xlink:href="#m2678651e82" y="141.264"/>
      </g>
     </g>
     <g id="text_15">
      <!-- 2.5 -->
      <g transform="translate(34.696875 145.063219)scale(0.1 -0.1)">
       <use xlink:href="#DejaVuSans-32"/>
       <use x="63.623047" xlink:href="#DejaVuSans-2e"/>
       <use x="95.410156" xlink:href="#DejaVuSans-35"/>
      </g>
     </g>
    </g>
    <g id="ytick_7">
     <g id="line2d_16">
      <g>
       <use style="stroke:#000000;stroke-width:0.8;" x="57.6" xlink:href="#m2678651e82" y="108"/>
      </g>
     </g>
     <g id="text_16">
      <!-- 5.0 -->
      <g transform="translate(34.696875 111.799219)scale(0.1 -0.1)">
       <use xlink:href="#DejaVuSans-35"/>
       <use x="63.623047" xlink:href="#DejaVuSans-2e"/>
       <use x="95.410156" xlink:href="#DejaVuSans-30"/>
      </g>
     </g>
    </g>
    <g id="ytick_8">
     <g id="line2d_17">
      <g>
       <use style="stroke:#000000;stroke-width:0.8;" x="57.6" xlink:href="#m2678651e82" y="74.736"/>
      </g>
     </g>
     <g id="text_17">
      <!-- 7.5 -->
      <g transform="translate(34.696875 78.535219)scale(0.1 -0.1)">
       <use xlink:href="#DejaVuSans-37"/>
       <use x="63.623047" xlink:href="#DejaVuSans-2e"/>
       <use x="95.410156" xlink:href="#DejaVuSans-35"/>
      </g>
     </g>
    </g>
    <g id="ytick_9">
     <g id="line2d_18">
      <g>
       <use style="stroke:#000000;stroke-width:0.8;" x="57.6" xlink:href="#m2678651e82" y="41.472"/>
      </g>
     </g>
     <g id="text_18">
      <!-- 10.0 -->
      <g transform="translate(28.334375 45.271219)scale(0.1 -0.1)">
       <use xlink:href="#DejaVuSans-31"/>
       <use x="63.623047" xlink:href="#DejaVuSans-30"/>
       <use x="127.246094" xlink:href="#DejaVuSans-2e"/>
       <use x="159.033203" xlink:href="#DejaVuSans-30"/>
      </g>
     </g>
    </g>
   </g>
   <g id="patch_3">
    <path d="M 57.6 307.584 
L 57.6 41.472 
" style="fill:none;stroke:#000000;stroke-linecap:square;stroke-linejoin:miter;stroke-width:0.8;"/>
   </g>
   <g id="patch_4">
    <path d="M 414.72 307.584 
L 414.72 41.472 
" style="fill:none;stroke:#000000;stroke-linecap:square;stroke-linejoin:miter;stroke-width:0.8;"/>
   </g>
   <g id="patch_5">
    <path d="M 57.6 307.584 
L 414.72 307.584 
" style="fill:none;stroke:#000000;stroke-linecap:square;stroke-linejoin:miter;stroke-width:0.8;"/>
   </g>
   <g id="patch_6">
    <path d="M 57.6 41.472 
L 414.72 41.472 
" style="fill:none;stroke:#000000;stroke-linecap:square;stroke-linejoin:miter;stroke-width:0.8;"/>
   </g>
  </g>
 </g>
 <defs>
  <clipPath id="p69a10d5568">
   <rect height="266.112" width="357.12" x="57.6" y="41.472"/>
  </clipPath>
 </defs>
</svg>
