<?xml version="1.0" encoding="utf-8" standalone="no"?>
<!DOCTYPE svg PUBLIC "-//W3C//DTD SVG 1.1//EN"
  "http://www.w3.org/Graphics/SVG/1.1/DTD/svg11.dtd">
<!-- Created with matplotlib (http://matplotlib.org/) -->
<svg height="345.6pt" version="1.1" viewBox="0 0 460.8 345.6" width="460.8pt" xmlns="http://www.w3.org/2000/svg" xmlns:xlink="http://www.w3.org/1999/xlink">
 <defs>
  <style type="text/css">
*{stroke-linecap:butt;stroke-linejoin:round;}
  </style>
 </defs>
 <g id="figure_1">
  <g id="patch_1">
   <path d="M 0 345.6 
L 460.8 345.6 
L 460.8 0 
L 0 0 
z
" style="fill:#ffffff;"/>
  </g>
  <g id="axes_1">
   <g id="patch_2">
    <path d="M 57.6 307.584 
L 414.72 307.584 
L 414.72 41.472 
L 57.6 41.472 
z
" style="fill:#ffffff;"/>
   </g>
   <g id="PathCollection_1">
    <defs>
     <path d="M 0 0.612372 
C 0.162403 0.612372 0.318176 0.547849 0.433013 0.433013 
C 0.547849 0.318176 0.612372 0.162403 0.612372 0 
C 0.612372 -0.162403 0.547849 -0.318176 0.433013 -0.433013 
C 0.318176 -0.547849 0.162403 -0.612372 0 -0.612372 
C -0.162403 -0.612372 -0.318176 -0.547849 -0.433013 -0.433013 
C -0.547849 -0.318176 -0.612372 -0.162403 -0.612372 0 
C -0.612372 0.162403 -0.547849 0.318176 -0.433013 0.433013 
C -0.318176 0.547849 -0.162403 0.612372 0 0.612372 
z
" id="mb342247295" style="stroke:#000000;"/>
    </defs>
    <g clip-path="url(#p2987c38384)">
     <use style="stroke:#000000;" x="237.011535" xlink:href="#mb342247295" y="174.528"/>
     <use style="stroke:#000000;" x="239.495704" xlink:href="#mb342247295" y="174.528"/>
     <use style="stroke:#000000;" x="238.854122" xlink:href="#mb342247295" y="174.528"/>
     <use style="stroke:#000000;" x="242.69287" xlink:href="#mb342247295" y="174.528"/>
     <use style="stroke:#000000;" x="325.44" xlink:href="#mb342247295" y="140.536431"/>
     <use style="stroke:#000000;" x="278.094671" xlink:href="#mb342247295" y="174.528"/>
     <use style="stroke:#000000;" x="236.16" xlink:href="#mb342247295" y="173.129405"/>
     <use style="stroke:#000000;" x="237.159843" xlink:href="#mb342247295" y="134.6112"/>
     <use style="stroke:#000000;" x="237.070499" xlink:href="#mb342247295" y="174.528"/>
     <use style="stroke:#000000;" x="252.344463" xlink:href="#mb342247295" y="174.528"/>
     <use style="stroke:#000000;" x="236.16" xlink:href="#mb342247295" y="174.178467"/>
     <use style="stroke:#000000;" x="239.132823" xlink:href="#mb342247295" y="174.528"/>
     <use style="stroke:#000000;" x="236.16" xlink:href="#mb342247295" y="174.528"/>
     <use style="stroke:#000000;" x="240.74547" xlink:href="#mb342247295" y="174.528"/>
     <use style="stroke:#000000;" x="236.16" xlink:href="#mb342247295" y="135.233344"/>
     <use style="stroke:#000000;" x="239.222692" xlink:href="#mb342247295" y="174.528"/>
     <use style="stroke:#000000;" x="248.962468" xlink:href="#mb342247295" y="174.528"/>
     <use style="stroke:#000000;" x="236.16" xlink:href="#mb342247295" y="164.65756"/>
     <use style="stroke:#000000;" x="236.16" xlink:href="#mb342247295" y="163.435992"/>
     <use style="stroke:#000000;" x="247.433679" xlink:href="#mb342247295" y="174.528"/>
     <use style="stroke:#000000;" x="236.16" xlink:href="#mb342247295" y="174.528"/>
     <use style="stroke:#000000;" x="240.190202" xlink:href="#mb342247295" y="174.528"/>
     <use style="stroke:#000000;" x="238.054136" xlink:href="#mb342247295" y="174.528"/>
     <use style="stroke:#000000;" x="236.16" xlink:href="#mb342247295" y="174.528"/>
     <use style="stroke:#000000;" x="236.16" xlink:href="#mb342247295" y="167.527875"/>
     <use style="stroke:#000000;" x="244.266064" xlink:href="#mb342247295" y="174.518179"/>
     <use style="stroke:#000000;" x="243.97611" xlink:href="#mb342247295" y="174.528"/>
     <use style="stroke:#000000;" x="236.16" xlink:href="#mb342247295" y="167.782314"/>
     <use style="stroke:#000000;" x="238.406254" xlink:href="#mb342247295" y="174.528"/>
     <use style="stroke:#000000;" x="236.16" xlink:href="#mb342247295" y="174.098779"/>
     <use style="stroke:#000000;" x="240.443422" xlink:href="#mb342247295" y="174.528"/>
     <use style="stroke:#000000;" x="239.194066" xlink:href="#mb342247295" y="134.6112"/>
     <use style="stroke:#000000;" x="236.16" xlink:href="#mb342247295" y="148.702925"/>
     <use style="stroke:#000000;" x="239.495704" xlink:href="#mb342247295" y="174.519581"/>
     <use style="stroke:#000000;" x="255.51096" xlink:href="#mb342247295" y="174.528"/>
     <use style="stroke:#000000;" x="242.207594" xlink:href="#mb342247295" y="174.528"/>
     <use style="stroke:#000000;" x="236.16" xlink:href="#mb342247295" y="147.507806"/>
     <use style="stroke:#000000;" x="245.693508" xlink:href="#mb342247295" y="174.528"/>
     <use style="stroke:#000000;" x="236.16" xlink:href="#mb342247295" y="137.974682"/>
     <use style="stroke:#000000;" x="241.788442" xlink:href="#mb342247295" y="174.528"/>
     <use style="stroke:#000000;" x="236.16" xlink:href="#mb342247295" y="138.15234"/>
     <use style="stroke:#000000;" x="236.16" xlink:href="#mb342247295" y="173.609348"/>
     <use style="stroke:#000000;" x="237.261511" xlink:href="#mb342247295" y="174.528"/>
     <use style="stroke:#000000;" x="236.16" xlink:href="#mb342247295" y="174.528"/>
     <use style="stroke:#000000;" x="270.413654" xlink:href="#mb342247295" y="174.528"/>
     <use style="stroke:#000000;" x="236.16" xlink:href="#mb342247295" y="174.528"/>
     <use style="stroke:#000000;" x="236.16" xlink:href="#mb342247295" y="145.683454"/>
     <use style="stroke:#000000;" x="283.841878" xlink:href="#mb342247295" y="174.528"/>
     <use style="stroke:#000000;" x="278.477616" xlink:href="#mb342247295" y="174.528"/>
     <use style="stroke:#000000;" x="250.561265" xlink:href="#mb342247295" y="174.359744"/>
     <use style="stroke:#000000;" x="325.44" xlink:href="#mb342247295" y="134.6112"/>
     <use style="stroke:#000000;" x="260.67233" xlink:href="#mb342247295" y="174.528"/>
     <use style="stroke:#000000;" x="325.44" xlink:href="#mb342247295" y="134.6112"/>
     <use style="stroke:#000000;" x="236.16" xlink:href="#mb342247295" y="149.981932"/>
     <use style="stroke:#000000;" x="237.017795" xlink:href="#mb342247295" y="174.528"/>
     <use style="stroke:#000000;" x="325.44" xlink:href="#mb342247295" y="141.365205"/>
     <use style="stroke:#000000;" x="236.16" xlink:href="#mb342247295" y="149.294718"/>
     <use style="stroke:#000000;" x="241.11637" xlink:href="#mb342247295" y="174.528"/>
     <use style="stroke:#000000;" x="236.16" xlink:href="#mb342247295" y="174.528"/>
     <use style="stroke:#000000;" x="241.539926" xlink:href="#mb342247295" y="174.528"/>
     <use style="stroke:#000000;" x="260.666313" xlink:href="#mb342247295" y="173.473093"/>
     <use style="stroke:#000000;" x="243.801398" xlink:href="#mb342247295" y="174.528"/>
     <use style="stroke:#000000;" x="252.957355" xlink:href="#mb342247295" y="174.528"/>
     <use style="stroke:#000000;" x="236.16" xlink:href="#mb342247295" y="174.528"/>
     <use style="stroke:#000000;" x="236.16" xlink:href="#mb342247295" y="137.120496"/>
     <use style="stroke:#000000;" x="273.87802" xlink:href="#mb342247295" y="174.528"/>
     <use style="stroke:#000000;" x="236.16" xlink:href="#mb342247295" y="134.775163"/>
     <use style="stroke:#000000;" x="242.660782" xlink:href="#mb342247295" y="174.528"/>
     <use style="stroke:#000000;" x="236.16" xlink:href="#mb342247295" y="135.609321"/>
     <use style="stroke:#000000;" x="236.16" xlink:href="#mb342247295" y="165.509167"/>
     <use style="stroke:#000000;" x="236.16" xlink:href="#mb342247295" y="138.268154"/>
     <use style="stroke:#000000;" x="258.465254" xlink:href="#mb342247295" y="174.528"/>
     <use style="stroke:#000000;" x="236.16" xlink:href="#mb342247295" y="139.698033"/>
     <use style="stroke:#000000;" x="236.350414" xlink:href="#mb342247295" y="166.106207"/>
     <use style="stroke:#000000;" x="236.16" xlink:href="#mb342247295" y="166.769252"/>
     <use style="stroke:#000000;" x="236.16" xlink:href="#mb342247295" y="153.494359"/>
     <use style="stroke:#000000;" x="236.16" xlink:href="#mb342247295" y="153.986707"/>
     <use style="stroke:#000000;" x="236.99951" xlink:href="#mb342247295" y="174.528"/>
     <use style="stroke:#000000;" x="236.16" xlink:href="#mb342247295" y="148.096981"/>
     <use style="stroke:#000000;" x="239.213133" xlink:href="#mb342247295" y="174.528"/>
     <use style="stroke:#000000;" x="236.16" xlink:href="#mb342247295" y="174.528"/>
     <use style="stroke:#000000;" x="239.253184" xlink:href="#mb342247295" y="174.495071"/>
     <use style="stroke:#000000;" x="239.4803" xlink:href="#mb342247295" y="174.528"/>
     <use style="stroke:#000000;" x="239.669668" xlink:href="#mb342247295" y="174.528"/>
     <use style="stroke:#000000;" x="239.327152" xlink:href="#mb342247295" y="174.528"/>
     <use style="stroke:#000000;" x="238.314496" xlink:href="#mb342247295" y="174.215191"/>
     <use style="stroke:#000000;" x="239.350565" xlink:href="#mb342247295" y="174.402861"/>
     <use style="stroke:#000000;" x="238.15821" xlink:href="#mb342247295" y="174.528"/>
     <use style="stroke:#000000;" x="242.090044" xlink:href="#mb342247295" y="174.452453"/>
     <use style="stroke:#000000;" x="243.361673" xlink:href="#mb342247295" y="174.480848"/>
     <use style="stroke:#000000;" x="242.770414" xlink:href="#mb342247295" y="174.528"/>
     <use style="stroke:#000000;" x="324.785586" xlink:href="#mb342247295" y="140.596789"/>
     <use style="stroke:#000000;" x="325.44" xlink:href="#mb342247295" y="140.217215"/>
     <use style="stroke:#000000;" x="325.44" xlink:href="#mb342247295" y="140.406182"/>
     <use style="stroke:#000000;" x="277.863477" xlink:href="#mb342247295" y="174.528"/>
     <use style="stroke:#000000;" x="278.085977" xlink:href="#mb342247295" y="174.528"/>
     <use style="stroke:#000000;" x="278.134911" xlink:href="#mb342247295" y="174.291007"/>
     <use style="stroke:#000000;" x="236.16" xlink:href="#mb342247295" y="174.528"/>
     <use style="stroke:#000000;" x="236.16" xlink:href="#mb342247295" y="135.15213"/>
     <use style="stroke:#000000;" x="237.062842" xlink:href="#mb342247295" y="174.528"/>
     <use style="stroke:#000000;" x="237.150129" xlink:href="#mb342247295" y="174.528"/>
     <use style="stroke:#000000;" x="236.16" xlink:href="#mb342247295" y="174.52433"/>
     <use style="stroke:#000000;" x="251.682755" xlink:href="#mb342247295" y="174.511956"/>
     <use style="stroke:#000000;" x="252.90587" xlink:href="#mb342247295" y="174.130035"/>
     <use style="stroke:#000000;" x="253.438452" xlink:href="#mb342247295" y="174.528"/>
     <use style="stroke:#000000;" x="236.936773" xlink:href="#mb342247295" y="174.225281"/>
     <use style="stroke:#000000;" x="237.089735" xlink:href="#mb342247295" y="174.170982"/>
     <use style="stroke:#000000;" x="236.882815" xlink:href="#mb342247295" y="174.528"/>
     <use style="stroke:#000000;" x="239.401713" xlink:href="#mb342247295" y="174.528"/>
     <use style="stroke:#000000;" x="239.527473" xlink:href="#mb342247295" y="174.253945"/>
     <use style="stroke:#000000;" x="239.3971" xlink:href="#mb342247295" y="174.49632"/>
     <use style="stroke:#000000;" x="236.16" xlink:href="#mb342247295" y="174.234335"/>
     <use style="stroke:#000000;" x="236.16" xlink:href="#mb342247295" y="174.528"/>
     <use style="stroke:#000000;" x="236.319875" xlink:href="#mb342247295" y="174.528"/>
     <use style="stroke:#000000;" x="245.723072" xlink:href="#mb342247295" y="174.528"/>
     <use style="stroke:#000000;" x="236.16" xlink:href="#mb342247295" y="134.6112"/>
     <use style="stroke:#000000;" x="236.196216" xlink:href="#mb342247295" y="135.540383"/>
     <use style="stroke:#000000;" x="236.16" xlink:href="#mb342247295" y="135.151162"/>
     <use style="stroke:#000000;" x="239.053623" xlink:href="#mb342247295" y="174.528"/>
     <use style="stroke:#000000;" x="239.729123" xlink:href="#mb342247295" y="174.528"/>
     <use style="stroke:#000000;" x="239.603463" xlink:href="#mb342247295" y="174.366694"/>
     <use style="stroke:#000000;" x="246.436766" xlink:href="#mb342247295" y="174.528"/>
     <use style="stroke:#000000;" x="236.16" xlink:href="#mb342247295" y="165.014286"/>
     <use style="stroke:#000000;" x="236.16" xlink:href="#mb342247295" y="164.573593"/>
     <use style="stroke:#000000;" x="236.16" xlink:href="#mb342247295" y="164.427111"/>
     <use style="stroke:#000000;" x="236.936321" xlink:href="#mb342247295" y="162.970923"/>
     <use style="stroke:#000000;" x="237.089262" xlink:href="#mb342247295" y="163.608184"/>
     <use style="stroke:#000000;" x="236.895143" xlink:href="#mb342247295" y="163.236745"/>
     <use style="stroke:#000000;" x="249.072174" xlink:href="#mb342247295" y="174.361591"/>
     <use style="stroke:#000000;" x="247.153427" xlink:href="#mb342247295" y="174.141273"/>
     <use style="stroke:#000000;" x="247.633795" xlink:href="#mb342247295" y="174.528"/>
     <use style="stroke:#000000;" x="236.16" xlink:href="#mb342247295" y="174.116112"/>
     <use style="stroke:#000000;" x="236.16" xlink:href="#mb342247295" y="174.528"/>
     <use style="stroke:#000000;" x="236.47069" xlink:href="#mb342247295" y="174.528"/>
     <use style="stroke:#000000;" x="239.394275" xlink:href="#mb342247295" y="174.208249"/>
     <use style="stroke:#000000;" x="239.141101" xlink:href="#mb342247295" y="174.296685"/>
     <use style="stroke:#000000;" x="241.304246" xlink:href="#mb342247295" y="174.528"/>
     <use style="stroke:#000000;" x="238.011866" xlink:href="#mb342247295" y="173.899492"/>
     <use style="stroke:#000000;" x="238.063963" xlink:href="#mb342247295" y="173.945036"/>
     <use style="stroke:#000000;" x="237.96315" xlink:href="#mb342247295" y="174.528"/>
     <use style="stroke:#000000;" x="236.94538" xlink:href="#mb342247295" y="173.976746"/>
     <use style="stroke:#000000;" x="236.68688" xlink:href="#mb342247295" y="174.528"/>
     <use style="stroke:#000000;" x="236.16" xlink:href="#mb342247295" y="174.528"/>
     <use style="stroke:#000000;" x="236.16" xlink:href="#mb342247295" y="167.366255"/>
     <use style="stroke:#000000;" x="236.845589" xlink:href="#mb342247295" y="167.24604"/>
     <use style="stroke:#000000;" x="237.080261" xlink:href="#mb342247295" y="167.146727"/>
     <use style="stroke:#000000;" x="242.512971" xlink:href="#mb342247295" y="174.528"/>
     <use style="stroke:#000000;" x="245.49649" xlink:href="#mb342247295" y="174.528"/>
     <use style="stroke:#000000;" x="245.749716" xlink:href="#mb342247295" y="174.528"/>
     <use style="stroke:#000000;" x="243.224148" xlink:href="#mb342247295" y="174.528"/>
     <use style="stroke:#000000;" x="244.436709" xlink:href="#mb342247295" y="174.528"/>
     <use style="stroke:#000000;" x="243.129217" xlink:href="#mb342247295" y="174.483768"/>
     <use style="stroke:#000000;" x="236.16" xlink:href="#mb342247295" y="167.518559"/>
     <use style="stroke:#000000;" x="236.16" xlink:href="#mb342247295" y="167.577973"/>
     <use style="stroke:#000000;" x="236.528333" xlink:href="#mb342247295" y="168.49684"/>
     <use style="stroke:#000000;" x="238.023774" xlink:href="#mb342247295" y="174.152961"/>
     <use style="stroke:#000000;" x="240.680456" xlink:href="#mb342247295" y="174.528"/>
     <use style="stroke:#000000;" x="238.80039" xlink:href="#mb342247295" y="174.410653"/>
     <use style="stroke:#000000;" x="237.502331" xlink:href="#mb342247295" y="174.057319"/>
     <use style="stroke:#000000;" x="236.16" xlink:href="#mb342247295" y="174.528"/>
     <use style="stroke:#000000;" x="236.16" xlink:href="#mb342247295" y="173.795372"/>
     <use style="stroke:#000000;" x="242.586362" xlink:href="#mb342247295" y="174.528"/>
     <use style="stroke:#000000;" x="238.806033" xlink:href="#mb342247295" y="174.260017"/>
     <use style="stroke:#000000;" x="239.579657" xlink:href="#mb342247295" y="174.528"/>
     <use style="stroke:#000000;" x="242.399818" xlink:href="#mb342247295" y="135.211455"/>
     <use style="stroke:#000000;" x="239.021539" xlink:href="#mb342247295" y="134.6112"/>
     <use style="stroke:#000000;" x="238.245091" xlink:href="#mb342247295" y="134.6112"/>
     <use style="stroke:#000000;" x="237.439526" xlink:href="#mb342247295" y="147.390869"/>
     <use style="stroke:#000000;" x="236.16" xlink:href="#mb342247295" y="148.157865"/>
     <use style="stroke:#000000;" x="240.288773" xlink:href="#mb342247295" y="173.520484"/>
     <use style="stroke:#000000;" x="238.130833" xlink:href="#mb342247295" y="174.528"/>
     <use style="stroke:#000000;" x="256.534647" xlink:href="#mb342247295" y="174.528"/>
     <use style="stroke:#000000;" x="238.806479" xlink:href="#mb342247295" y="174.528"/>
     <use style="stroke:#000000;" x="236.16" xlink:href="#mb342247295" y="148.590048"/>
     <use style="stroke:#000000;" x="243.899078" xlink:href="#mb342247295" y="174.528"/>
     <use style="stroke:#000000;" x="236.16" xlink:href="#mb342247295" y="136.415547"/>
     <use style="stroke:#000000;" x="241.754633" xlink:href="#mb342247295" y="174.528"/>
     <use style="stroke:#000000;" x="236.618246" xlink:href="#mb342247295" y="138.590668"/>
     <use style="stroke:#000000;" x="236.16" xlink:href="#mb342247295" y="137.38124"/>
     <use style="stroke:#000000;" x="236.16" xlink:href="#mb342247295" y="174.528"/>
     <use style="stroke:#000000;" x="243.680278" xlink:href="#mb342247295" y="174.528"/>
     <use style="stroke:#000000;" x="236.16" xlink:href="#mb342247295" y="174.528"/>
     <use style="stroke:#000000;" x="269.42456" xlink:href="#mb342247295" y="171.817818"/>
     <use style="stroke:#000000;" x="238.375195" xlink:href="#mb342247295" y="173.474148"/>
     <use style="stroke:#000000;" x="236.16" xlink:href="#mb342247295" y="145.61324"/>
     <use style="stroke:#000000;" x="236.16" xlink:href="#mb342247295" y="145.49636"/>
     <use style="stroke:#000000;" x="280.786969" xlink:href="#mb342247295" y="174.528"/>
     <use style="stroke:#000000;" x="279.027396" xlink:href="#mb342247295" y="173.062529"/>
     <use style="stroke:#000000;" x="252.201935" xlink:href="#mb342247295" y="174.528"/>
     <use style="stroke:#000000;" x="251.728598" xlink:href="#mb342247295" y="174.528"/>
     <use style="stroke:#000000;" x="324.734723" xlink:href="#mb342247295" y="134.6112"/>
     <use style="stroke:#000000;" x="259.653594" xlink:href="#mb342247295" y="173.841093"/>
     <use style="stroke:#000000;" x="325.44" xlink:href="#mb342247295" y="135.71005"/>
     <use style="stroke:#000000;" x="324.42837" xlink:href="#mb342247295" y="134.6112"/>
     <use style="stroke:#000000;" x="236.555301" xlink:href="#mb342247295" y="149.952881"/>
     <use style="stroke:#000000;" x="236.16" xlink:href="#mb342247295" y="174.423758"/>
     <use style="stroke:#000000;" x="325.44" xlink:href="#mb342247295" y="139.760013"/>
     <use style="stroke:#000000;" x="236.16" xlink:href="#mb342247295" y="149.498027"/>
     <use style="stroke:#000000;" x="236.882479" xlink:href="#mb342247295" y="148.582513"/>
     <use style="stroke:#000000;" x="244.488449" xlink:href="#mb342247295" y="174.528"/>
     <use style="stroke:#000000;" x="242.126903" xlink:href="#mb342247295" y="174.528"/>
     <use style="stroke:#000000;" x="241.305718" xlink:href="#mb342247295" y="174.528"/>
     <use style="stroke:#000000;" x="261.628528" xlink:href="#mb342247295" y="173.040701"/>
     <use style="stroke:#000000;" x="260.565823" xlink:href="#mb342247295" y="174.471445"/>
     <use style="stroke:#000000;" x="246.91087" xlink:href="#mb342247295" y="174.528"/>
     <use style="stroke:#000000;" x="245.363596" xlink:href="#mb342247295" y="173.724139"/>
     <use style="stroke:#000000;" x="250.115952" xlink:href="#mb342247295" y="174.427939"/>
     <use style="stroke:#000000;" x="236.16" xlink:href="#mb342247295" y="174.528"/>
     <use style="stroke:#000000;" x="236.905204" xlink:href="#mb342247295" y="174.033289"/>
     <use style="stroke:#000000;" x="239.807594" xlink:href="#mb342247295" y="136.737608"/>
     <use style="stroke:#000000;" x="236.16" xlink:href="#mb342247295" y="136.476964"/>
     <use style="stroke:#000000;" x="275.843789" xlink:href="#mb342247295" y="174.528"/>
     <use style="stroke:#000000;" x="275.816297" xlink:href="#mb342247295" y="174.40126"/>
     <use style="stroke:#000000;" x="237.84432" xlink:href="#mb342247295" y="134.922246"/>
     <use style="stroke:#000000;" x="236.16" xlink:href="#mb342247295" y="134.846172"/>
     <use style="stroke:#000000;" x="242.647845" xlink:href="#mb342247295" y="173.844358"/>
     <use style="stroke:#000000;" x="242.332475" xlink:href="#mb342247295" y="173.598651"/>
     <use style="stroke:#000000;" x="236.405192" xlink:href="#mb342247295" y="134.90051"/>
     <use style="stroke:#000000;" x="236.174329" xlink:href="#mb342247295" y="135.241141"/>
     <use style="stroke:#000000;" x="236.788775" xlink:href="#mb342247295" y="165.582648"/>
     <use style="stroke:#000000;" x="236.16" xlink:href="#mb342247295" y="165.474747"/>
     <use style="stroke:#000000;" x="236.16" xlink:href="#mb342247295" y="137.536327"/>
     <use style="stroke:#000000;" x="236.572102" xlink:href="#mb342247295" y="137.196357"/>
     <use style="stroke:#000000;" x="255.184547" xlink:href="#mb342247295" y="174.326207"/>
     <use style="stroke:#000000;" x="259.418923" xlink:href="#mb342247295" y="173.301773"/>
     <use style="stroke:#000000;" x="237.055467" xlink:href="#mb342247295" y="138.294003"/>
     <use style="stroke:#000000;" x="236.16" xlink:href="#mb342247295" y="140.181987"/>
     <use style="stroke:#000000;" x="238.3868" xlink:href="#mb342247295" y="165.803444"/>
     <use style="stroke:#000000;" x="237.411193" xlink:href="#mb342247295" y="166.60283"/>
     <use style="stroke:#000000;" x="238.742976" xlink:href="#mb342247295" y="166.927052"/>
     <use style="stroke:#000000;" x="237.48963" xlink:href="#mb342247295" y="168.158543"/>
     <use style="stroke:#000000;" x="236.16" xlink:href="#mb342247295" y="153.302767"/>
     <use style="stroke:#000000;" x="237.288367" xlink:href="#mb342247295" y="153.333644"/>
     <use style="stroke:#000000;" x="236.16" xlink:href="#mb342247295" y="152.952479"/>
     <use style="stroke:#000000;" x="237.444158" xlink:href="#mb342247295" y="153.368199"/>
     <use style="stroke:#000000;" x="240.701074" xlink:href="#mb342247295" y="174.528"/>
     <use style="stroke:#000000;" x="237.447922" xlink:href="#mb342247295" y="172.457741"/>
     <use style="stroke:#000000;" x="236.16" xlink:href="#mb342247295" y="148.346603"/>
     <use style="stroke:#000000;" x="236.434115" xlink:href="#mb342247295" y="148.341422"/>
     <use style="stroke:#000000;" x="236.16" xlink:href="#mb342247295" y="174.129133"/>
     <use style="stroke:#000000;" x="238.320869" xlink:href="#mb342247295" y="174.427671"/>
    </g>
   </g>
   <g id="PathCollection_2">
    <defs>
     <path d="M 0 0.935414 
C 0.248075 0.935414 0.486022 0.836853 0.661438 0.661438 
C 0.836853 0.486022 0.935414 0.248075 0.935414 0 
C 0.935414 -0.248075 0.836853 -0.486022 0.661438 -0.661438 
C 0.486022 -0.836853 0.248075 -0.935414 0 -0.935414 
C -0.248075 -0.935414 -0.486022 -0.836853 -0.661438 -0.661438 
C -0.836853 -0.486022 -0.935414 -0.248075 -0.935414 0 
C -0.935414 0.248075 -0.836853 0.486022 -0.661438 0.661438 
C -0.486022 0.836853 -0.248075 0.935414 0 0.935414 
z
" id="mbb6ebf9a55" style="stroke:#0000ff;"/>
    </defs>
    <g clip-path="url(#p2987c38384)">
     <use style="fill:#0000ff;stroke:#0000ff;" x="237.011535" xlink:href="#mbb6ebf9a55" y="174.528"/>
     <use style="fill:#0000ff;stroke:#0000ff;" x="239.495704" xlink:href="#mbb6ebf9a55" y="174.528"/>
     <use style="fill:#0000ff;stroke:#0000ff;" x="238.854122" xlink:href="#mbb6ebf9a55" y="174.528"/>
     <use style="fill:#0000ff;stroke:#0000ff;" x="242.69287" xlink:href="#mbb6ebf9a55" y="174.528"/>
     <use style="fill:#0000ff;stroke:#0000ff;" x="325.44" xlink:href="#mbb6ebf9a55" y="140.536431"/>
     <use style="fill:#0000ff;stroke:#0000ff;" x="278.094671" xlink:href="#mbb6ebf9a55" y="174.528"/>
     <use style="fill:#0000ff;stroke:#0000ff;" x="236.16" xlink:href="#mbb6ebf9a55" y="173.129405"/>
     <use style="fill:#0000ff;stroke:#0000ff;" x="237.159843" xlink:href="#mbb6ebf9a55" y="134.6112"/>
     <use style="fill:#0000ff;stroke:#0000ff;" x="237.070499" xlink:href="#mbb6ebf9a55" y="174.528"/>
     <use style="fill:#0000ff;stroke:#0000ff;" x="252.344463" xlink:href="#mbb6ebf9a55" y="174.528"/>
     <use style="fill:#0000ff;stroke:#0000ff;" x="236.16" xlink:href="#mbb6ebf9a55" y="174.178467"/>
     <use style="fill:#0000ff;stroke:#0000ff;" x="239.132823" xlink:href="#mbb6ebf9a55" y="174.528"/>
     <use style="fill:#0000ff;stroke:#0000ff;" x="236.16" xlink:href="#mbb6ebf9a55" y="174.528"/>
     <use style="fill:#0000ff;stroke:#0000ff;" x="240.74547" xlink:href="#mbb6ebf9a55" y="174.528"/>
     <use style="fill:#0000ff;stroke:#0000ff;" x="236.16" xlink:href="#mbb6ebf9a55" y="135.233344"/>
     <use style="fill:#0000ff;stroke:#0000ff;" x="239.222692" xlink:href="#mbb6ebf9a55" y="174.528"/>
     <use style="fill:#0000ff;stroke:#0000ff;" x="248.962468" xlink:href="#mbb6ebf9a55" y="174.528"/>
     <use style="fill:#0000ff;stroke:#0000ff;" x="236.16" xlink:href="#mbb6ebf9a55" y="164.65756"/>
     <use style="fill:#0000ff;stroke:#0000ff;" x="236.16" xlink:href="#mbb6ebf9a55" y="163.435992"/>
     <use style="fill:#0000ff;stroke:#0000ff;" x="247.433679" xlink:href="#mbb6ebf9a55" y="174.528"/>
     <use style="fill:#0000ff;stroke:#0000ff;" x="236.16" xlink:href="#mbb6ebf9a55" y="174.528"/>
     <use style="fill:#0000ff;stroke:#0000ff;" x="240.190202" xlink:href="#mbb6ebf9a55" y="174.528"/>
     <use style="fill:#0000ff;stroke:#0000ff;" x="238.054136" xlink:href="#mbb6ebf9a55" y="174.528"/>
     <use style="fill:#0000ff;stroke:#0000ff;" x="236.16" xlink:href="#mbb6ebf9a55" y="174.528"/>
     <use style="fill:#0000ff;stroke:#0000ff;" x="236.16" xlink:href="#mbb6ebf9a55" y="167.527875"/>
     <use style="fill:#0000ff;stroke:#0000ff;" x="244.266064" xlink:href="#mbb6ebf9a55" y="174.518179"/>
     <use style="fill:#0000ff;stroke:#0000ff;" x="243.97611" xlink:href="#mbb6ebf9a55" y="174.528"/>
     <use style="fill:#0000ff;stroke:#0000ff;" x="236.16" xlink:href="#mbb6ebf9a55" y="167.782314"/>
     <use style="fill:#0000ff;stroke:#0000ff;" x="238.406254" xlink:href="#mbb6ebf9a55" y="174.528"/>
     <use style="fill:#0000ff;stroke:#0000ff;" x="236.16" xlink:href="#mbb6ebf9a55" y="174.098779"/>
     <use style="fill:#0000ff;stroke:#0000ff;" x="240.443422" xlink:href="#mbb6ebf9a55" y="174.528"/>
     <use style="fill:#0000ff;stroke:#0000ff;" x="239.194066" xlink:href="#mbb6ebf9a55" y="134.6112"/>
     <use style="fill:#0000ff;stroke:#0000ff;" x="236.16" xlink:href="#mbb6ebf9a55" y="148.702925"/>
     <use style="fill:#0000ff;stroke:#0000ff;" x="239.495704" xlink:href="#mbb6ebf9a55" y="174.519581"/>
     <use style="fill:#0000ff;stroke:#0000ff;" x="255.51096" xlink:href="#mbb6ebf9a55" y="174.528"/>
     <use style="fill:#0000ff;stroke:#0000ff;" x="242.207594" xlink:href="#mbb6ebf9a55" y="174.528"/>
     <use style="fill:#0000ff;stroke:#0000ff;" x="236.16" xlink:href="#mbb6ebf9a55" y="147.507806"/>
     <use style="fill:#0000ff;stroke:#0000ff;" x="245.693508" xlink:href="#mbb6ebf9a55" y="174.528"/>
     <use style="fill:#0000ff;stroke:#0000ff;" x="236.16" xlink:href="#mbb6ebf9a55" y="137.974682"/>
     <use style="fill:#0000ff;stroke:#0000ff;" x="241.788442" xlink:href="#mbb6ebf9a55" y="174.528"/>
     <use style="fill:#0000ff;stroke:#0000ff;" x="236.16" xlink:href="#mbb6ebf9a55" y="138.15234"/>
     <use style="fill:#0000ff;stroke:#0000ff;" x="236.16" xlink:href="#mbb6ebf9a55" y="173.609348"/>
     <use style="fill:#0000ff;stroke:#0000ff;" x="237.261511" xlink:href="#mbb6ebf9a55" y="174.528"/>
     <use style="fill:#0000ff;stroke:#0000ff;" x="236.16" xlink:href="#mbb6ebf9a55" y="174.528"/>
     <use style="fill:#0000ff;stroke:#0000ff;" x="270.413654" xlink:href="#mbb6ebf9a55" y="174.528"/>
     <use style="fill:#0000ff;stroke:#0000ff;" x="236.16" xlink:href="#mbb6ebf9a55" y="174.528"/>
     <use style="fill:#0000ff;stroke:#0000ff;" x="236.16" xlink:href="#mbb6ebf9a55" y="145.683454"/>
     <use style="fill:#0000ff;stroke:#0000ff;" x="283.841878" xlink:href="#mbb6ebf9a55" y="174.528"/>
     <use style="fill:#0000ff;stroke:#0000ff;" x="278.477616" xlink:href="#mbb6ebf9a55" y="174.528"/>
     <use style="fill:#0000ff;stroke:#0000ff;" x="250.561265" xlink:href="#mbb6ebf9a55" y="174.359744"/>
     <use style="fill:#0000ff;stroke:#0000ff;" x="325.44" xlink:href="#mbb6ebf9a55" y="134.6112"/>
     <use style="fill:#0000ff;stroke:#0000ff;" x="260.67233" xlink:href="#mbb6ebf9a55" y="174.528"/>
     <use style="fill:#0000ff;stroke:#0000ff;" x="325.44" xlink:href="#mbb6ebf9a55" y="134.6112"/>
     <use style="fill:#0000ff;stroke:#0000ff;" x="236.16" xlink:href="#mbb6ebf9a55" y="149.981932"/>
     <use style="fill:#0000ff;stroke:#0000ff;" x="237.017795" xlink:href="#mbb6ebf9a55" y="174.528"/>
     <use style="fill:#0000ff;stroke:#0000ff;" x="325.44" xlink:href="#mbb6ebf9a55" y="141.365205"/>
     <use style="fill:#0000ff;stroke:#0000ff;" x="236.16" xlink:href="#mbb6ebf9a55" y="149.294718"/>
     <use style="fill:#0000ff;stroke:#0000ff;" x="241.11637" xlink:href="#mbb6ebf9a55" y="174.528"/>
     <use style="fill:#0000ff;stroke:#0000ff;" x="236.16" xlink:href="#mbb6ebf9a55" y="174.528"/>
     <use style="fill:#0000ff;stroke:#0000ff;" x="241.539926" xlink:href="#mbb6ebf9a55" y="174.528"/>
     <use style="fill:#0000ff;stroke:#0000ff;" x="260.666313" xlink:href="#mbb6ebf9a55" y="173.473093"/>
     <use style="fill:#0000ff;stroke:#0000ff;" x="243.801398" xlink:href="#mbb6ebf9a55" y="174.528"/>
     <use style="fill:#0000ff;stroke:#0000ff;" x="252.957355" xlink:href="#mbb6ebf9a55" y="174.528"/>
     <use style="fill:#0000ff;stroke:#0000ff;" x="236.16" xlink:href="#mbb6ebf9a55" y="174.528"/>
     <use style="fill:#0000ff;stroke:#0000ff;" x="236.16" xlink:href="#mbb6ebf9a55" y="137.120496"/>
     <use style="fill:#0000ff;stroke:#0000ff;" x="273.87802" xlink:href="#mbb6ebf9a55" y="174.528"/>
     <use style="fill:#0000ff;stroke:#0000ff;" x="236.16" xlink:href="#mbb6ebf9a55" y="134.775163"/>
     <use style="fill:#0000ff;stroke:#0000ff;" x="242.660782" xlink:href="#mbb6ebf9a55" y="174.528"/>
     <use style="fill:#0000ff;stroke:#0000ff;" x="236.16" xlink:href="#mbb6ebf9a55" y="135.609321"/>
     <use style="fill:#0000ff;stroke:#0000ff;" x="236.16" xlink:href="#mbb6ebf9a55" y="165.509167"/>
     <use style="fill:#0000ff;stroke:#0000ff;" x="236.16" xlink:href="#mbb6ebf9a55" y="138.268154"/>
     <use style="fill:#0000ff;stroke:#0000ff;" x="258.465254" xlink:href="#mbb6ebf9a55" y="174.528"/>
     <use style="fill:#0000ff;stroke:#0000ff;" x="236.16" xlink:href="#mbb6ebf9a55" y="139.698033"/>
     <use style="fill:#0000ff;stroke:#0000ff;" x="236.350414" xlink:href="#mbb6ebf9a55" y="166.106207"/>
     <use style="fill:#0000ff;stroke:#0000ff;" x="236.16" xlink:href="#mbb6ebf9a55" y="166.769252"/>
     <use style="fill:#0000ff;stroke:#0000ff;" x="236.16" xlink:href="#mbb6ebf9a55" y="153.494359"/>
     <use style="fill:#0000ff;stroke:#0000ff;" x="236.16" xlink:href="#mbb6ebf9a55" y="153.986707"/>
     <use style="fill:#0000ff;stroke:#0000ff;" x="236.99951" xlink:href="#mbb6ebf9a55" y="174.528"/>
     <use style="fill:#0000ff;stroke:#0000ff;" x="236.16" xlink:href="#mbb6ebf9a55" y="148.096981"/>
     <use style="fill:#0000ff;stroke:#0000ff;" x="239.213133" xlink:href="#mbb6ebf9a55" y="174.528"/>
    </g>
   </g>
   <g id="matplotlib.axis_1">
    <g id="xtick_1">
     <g id="line2d_1">
      <defs>
       <path d="M 0 0 
L 0 3.5 
" id="me7691734c8" style="stroke:#000000;stroke-width:0.8;"/>
      </defs>
      <g>
       <use style="stroke:#000000;stroke-width:0.8;" x="57.6" xlink:href="#me7691734c8" y="307.584"/>
      </g>
     </g>
     <g id="text_1">
      <!-- −10.0 -->
      <defs>
       <path d="M 10.59375 35.5 
L 73.1875 35.5 
L 73.1875 27.203125 
L 10.59375 27.203125 
z
" id="DejaVuSans-2212"/>
       <path d="M 12.40625 8.296875 
L 28.515625 8.296875 
L 28.515625 63.921875 
L 10.984375 60.40625 
L 10.984375 69.390625 
L 28.421875 72.90625 
L 38.28125 72.90625 
L 38.28125 8.296875 
L 54.390625 8.296875 
L 54.390625 0 
L 12.40625 0 
z
" id="DejaVuSans-31"/>
       <path d="M 31.78125 66.40625 
Q 24.171875 66.40625 20.328125 58.90625 
Q 16.5 51.421875 16.5 36.375 
Q 16.5 21.390625 20.328125 13.890625 
Q 24.171875 6.390625 31.78125 6.390625 
Q 39.453125 6.390625 43.28125 13.890625 
Q 47.125 21.390625 47.125 36.375 
Q 47.125 51.421875 43.28125 58.90625 
Q 39.453125 66.40625 31.78125 66.40625 
z
M 31.78125 74.21875 
Q 44.046875 74.21875 50.515625 64.515625 
Q 56.984375 54.828125 56.984375 36.375 
Q 56.984375 17.96875 50.515625 8.265625 
Q 44.046875 -1.421875 31.78125 -1.421875 
Q 19.53125 -1.421875 13.0625 8.265625 
Q 6.59375 17.96875 6.59375 36.375 
Q 6.59375 54.828125 13.0625 64.515625 
Q 19.53125 74.21875 31.78125 74.21875 
z
" id="DejaVuSans-30"/>
       <path d="M 10.6875 12.40625 
L 21 12.40625 
L 21 0 
L 10.6875 0 
z
" id="DejaVuSans-2e"/>
      </defs>
      <g transform="translate(42.277344 322.182437)scale(0.1 -0.1)">
       <use xlink:href="#DejaVuSans-2212"/>
       <use x="83.789062" xlink:href="#DejaVuSans-31"/>
       <use x="147.412109" xlink:href="#DejaVuSans-30"/>
       <use x="211.035156" xlink:href="#DejaVuSans-2e"/>
       <use x="242.822266" xlink:href="#DejaVuSans-30"/>
      </g>
     </g>
    </g>
    <g id="xtick_2">
     <g id="line2d_2">
      <g>
       <use style="stroke:#000000;stroke-width:0.8;" x="102.24" xlink:href="#me7691734c8" y="307.584"/>
      </g>
     </g>
     <g id="text_2">
      <!-- −7.5 -->
      <defs>
       <path d="M 8.203125 72.90625 
L 55.078125 72.90625 
L 55.078125 68.703125 
L 28.609375 0 
L 18.3125 0 
L 43.21875 64.59375 
L 8.203125 64.59375 
z
" id="DejaVuSans-37"/>
       <path d="M 10.796875 72.90625 
L 49.515625 72.90625 
L 49.515625 64.59375 
L 19.828125 64.59375 
L 19.828125 46.734375 
Q 21.96875 47.46875 24.109375 47.828125 
Q 26.265625 48.1875 28.421875 48.1875 
Q 40.625 48.1875 47.75 41.5 
Q 54.890625 34.8125 54.890625 23.390625 
Q 54.890625 11.625 47.5625 5.09375 
Q 40.234375 -1.421875 26.90625 -1.421875 
Q 22.3125 -1.421875 17.546875 -0.640625 
Q 12.796875 0.140625 7.71875 1.703125 
L 7.71875 11.625 
Q 12.109375 9.234375 16.796875 8.0625 
Q 21.484375 6.890625 26.703125 6.890625 
Q 35.15625 6.890625 40.078125 11.328125 
Q 45.015625 15.765625 45.015625 23.390625 
Q 45.015625 31 40.078125 35.4375 
Q 35.15625 39.890625 26.703125 39.890625 
Q 22.75 39.890625 18.8125 39.015625 
Q 14.890625 38.140625 10.796875 36.28125 
z
" id="DejaVuSans-35"/>
      </defs>
      <g transform="translate(90.098594 322.182437)scale(0.1 -0.1)">
       <use xlink:href="#DejaVuSans-2212"/>
       <use x="83.789062" xlink:href="#DejaVuSans-37"/>
       <use x="147.412109" xlink:href="#DejaVuSans-2e"/>
       <use x="179.199219" xlink:href="#DejaVuSans-35"/>
      </g>
     </g>
    </g>
    <g id="xtick_3">
     <g id="line2d_3">
      <g>
       <use style="stroke:#000000;stroke-width:0.8;" x="146.88" xlink:href="#me7691734c8" y="307.584"/>
      </g>
     </g>
     <g id="text_3">
      <!-- −5.0 -->
      <g transform="translate(134.738594 322.182437)scale(0.1 -0.1)">
       <use xlink:href="#DejaVuSans-2212"/>
       <use x="83.789062" xlink:href="#DejaVuSans-35"/>
       <use x="147.412109" xlink:href="#DejaVuSans-2e"/>
       <use x="179.199219" xlink:href="#DejaVuSans-30"/>
      </g>
     </g>
    </g>
    <g id="xtick_4">
     <g id="line2d_4">
      <g>
       <use style="stroke:#000000;stroke-width:0.8;" x="191.52" xlink:href="#me7691734c8" y="307.584"/>
      </g>
     </g>
     <g id="text_4">
      <!-- −2.5 -->
      <defs>
       <path d="M 19.1875 8.296875 
L 53.609375 8.296875 
L 53.609375 0 
L 7.328125 0 
L 7.328125 8.296875 
Q 12.9375 14.109375 22.625 23.890625 
Q 32.328125 33.6875 34.8125 36.53125 
Q 39.546875 41.84375 41.421875 45.53125 
Q 43.3125 49.21875 43.3125 52.78125 
Q 43.3125 58.59375 39.234375 62.25 
Q 35.15625 65.921875 28.609375 65.921875 
Q 23.96875 65.921875 18.8125 64.3125 
Q 13.671875 62.703125 7.8125 59.421875 
L 7.8125 69.390625 
Q 13.765625 71.78125 18.9375 73 
Q 24.125 74.21875 28.421875 74.21875 
Q 39.75 74.21875 46.484375 68.546875 
Q 53.21875 62.890625 53.21875 53.421875 
Q 53.21875 48.921875 51.53125 44.890625 
Q 49.859375 40.875 45.40625 35.40625 
Q 44.1875 33.984375 37.640625 27.21875 
Q 31.109375 20.453125 19.1875 8.296875 
z
" id="DejaVuSans-32"/>
      </defs>
      <g transform="translate(179.378594 322.182437)scale(0.1 -0.1)">
       <use xlink:href="#DejaVuSans-2212"/>
       <use x="83.789062" xlink:href="#DejaVuSans-32"/>
       <use x="147.412109" xlink:href="#DejaVuSans-2e"/>
       <use x="179.199219" xlink:href="#DejaVuSans-35"/>
      </g>
     </g>
    </g>
    <g id="xtick_5">
     <g id="line2d_5">
      <g>
       <use style="stroke:#000000;stroke-width:0.8;" x="236.16" xlink:href="#me7691734c8" y="307.584"/>
      </g>
     </g>
     <g id="text_5">
      <!-- 0.0 -->
      <g transform="translate(228.208438 322.182437)scale(0.1 -0.1)">
       <use xlink:href="#DejaVuSans-30"/>
       <use x="63.623047" xlink:href="#DejaVuSans-2e"/>
       <use x="95.410156" xlink:href="#DejaVuSans-30"/>
      </g>
     </g>
    </g>
    <g id="xtick_6">
     <g id="line2d_6">
      <g>
       <use style="stroke:#000000;stroke-width:0.8;" x="280.8" xlink:href="#me7691734c8" y="307.584"/>
      </g>
     </g>
     <g id="text_6">
      <!-- 2.5 -->
      <g transform="translate(272.848437 322.182437)scale(0.1 -0.1)">
       <use xlink:href="#DejaVuSans-32"/>
       <use x="63.623047" xlink:href="#DejaVuSans-2e"/>
       <use x="95.410156" xlink:href="#DejaVuSans-35"/>
      </g>
     </g>
    </g>
    <g id="xtick_7">
     <g id="line2d_7">
      <g>
       <use style="stroke:#000000;stroke-width:0.8;" x="325.44" xlink:href="#me7691734c8" y="307.584"/>
      </g>
     </g>
     <g id="text_7">
      <!-- 5.0 -->
      <g transform="translate(317.488437 322.182437)scale(0.1 -0.1)">
       <use xlink:href="#DejaVuSans-35"/>
       <use x="63.623047" xlink:href="#DejaVuSans-2e"/>
       <use x="95.410156" xlink:href="#DejaVuSans-30"/>
      </g>
     </g>
    </g>
    <g id="xtick_8">
     <g id="line2d_8">
      <g>
       <use style="stroke:#000000;stroke-width:0.8;" x="370.08" xlink:href="#me7691734c8" y="307.584"/>
      </g>
     </g>
     <g id="text_8">
      <!-- 7.5 -->
      <g transform="translate(362.128438 322.182437)scale(0.1 -0.1)">
       <use xlink:href="#DejaVuSans-37"/>
       <use x="63.623047" xlink:href="#DejaVuSans-2e"/>
       <use x="95.410156" xlink:href="#DejaVuSans-35"/>
      </g>
     </g>
    </g>
    <g id="xtick_9">
     <g id="line2d_9">
      <g>
       <use style="stroke:#000000;stroke-width:0.8;" x="414.72" xlink:href="#me7691734c8" y="307.584"/>
      </g>
     </g>
     <g id="text_9">
      <!-- 10.0 -->
      <g transform="translate(403.587188 322.182437)scale(0.1 -0.1)">
       <use xlink:href="#DejaVuSans-31"/>
       <use x="63.623047" xlink:href="#DejaVuSans-30"/>
       <use x="127.246094" xlink:href="#DejaVuSans-2e"/>
       <use x="159.033203" xlink:href="#DejaVuSans-30"/>
      </g>
     </g>
    </g>
   </g>
   <g id="matplotlib.axis_2">
    <g id="ytick_1">
     <g id="line2d_10">
      <defs>
       <path d="M 0 0 
L -3.5 0 
" id="me2015e164a" style="stroke:#000000;stroke-width:0.8;"/>
      </defs>
      <g>
       <use style="stroke:#000000;stroke-width:0.8;" x="57.6" xlink:href="#me2015e164a" y="307.584"/>
      </g>
     </g>
     <g id="text_10">
      <!-- −10.0 -->
      <g transform="translate(19.954687 311.383219)scale(0.1 -0.1)">
       <use xlink:href="#DejaVuSans-2212"/>
       <use x="83.789062" xlink:href="#DejaVuSans-31"/>
       <use x="147.412109" xlink:href="#DejaVuSans-30"/>
       <use x="211.035156" xlink:href="#DejaVuSans-2e"/>
       <use x="242.822266" xlink:href="#DejaVuSans-30"/>
      </g>
     </g>
    </g>
    <g id="ytick_2">
     <g id="line2d_11">
      <g>
       <use style="stroke:#000000;stroke-width:0.8;" x="57.6" xlink:href="#me2015e164a" y="274.32"/>
      </g>
     </g>
     <g id="text_11">
      <!-- −7.5 -->
      <g transform="translate(26.317187 278.119219)scale(0.1 -0.1)">
       <use xlink:href="#DejaVuSans-2212"/>
       <use x="83.789062" xlink:href="#DejaVuSans-37"/>
       <use x="147.412109" xlink:href="#DejaVuSans-2e"/>
       <use x="179.199219" xlink:href="#DejaVuSans-35"/>
      </g>
     </g>
    </g>
    <g id="ytick_3">
     <g id="line2d_12">
      <g>
       <use style="stroke:#000000;stroke-width:0.8;" x="57.6" xlink:href="#me2015e164a" y="241.056"/>
      </g>
     </g>
     <g id="text_12">
      <!-- −5.0 -->
      <g transform="translate(26.317187 244.855219)scale(0.1 -0.1)">
       <use xlink:href="#DejaVuSans-2212"/>
       <use x="83.789062" xlink:href="#DejaVuSans-35"/>
       <use x="147.412109" xlink:href="#DejaVuSans-2e"/>
       <use x="179.199219" xlink:href="#DejaVuSans-30"/>
      </g>
     </g>
    </g>
    <g id="ytick_4">
     <g id="line2d_13">
      <g>
       <use style="stroke:#000000;stroke-width:0.8;" x="57.6" xlink:href="#me2015e164a" y="207.792"/>
      </g>
     </g>
     <g id="text_13">
      <!-- −2.5 -->
      <g transform="translate(26.317187 211.591219)scale(0.1 -0.1)">
       <use xlink:href="#DejaVuSans-2212"/>
       <use x="83.789062" xlink:href="#DejaVuSans-32"/>
       <use x="147.412109" xlink:href="#DejaVuSans-2e"/>
       <use x="179.199219" xlink:href="#DejaVuSans-35"/>
      </g>
     </g>
    </g>
    <g id="ytick_5">
     <g id="line2d_14">
      <g>
       <use style="stroke:#000000;stroke-width:0.8;" x="57.6" xlink:href="#me2015e164a" y="174.528"/>
      </g>
     </g>
     <g id="text_14">
      <!-- 0.0 -->
      <g transform="translate(34.696875 178.327219)scale(0.1 -0.1)">
       <use xlink:href="#DejaVuSans-30"/>
       <use x="63.623047" xlink:href="#DejaVuSans-2e"/>
       <use x="95.410156" xlink:href="#DejaVuSans-30"/>
      </g>
     </g>
    </g>
    <g id="ytick_6">
     <g id="line2d_15">
      <g>
       <use style="stroke:#000000;stroke-width:0.8;" x="57.6" xlink:href="#me2015e164a" y="141.264"/>
      </g>
     </g>
     <g id="text_15">
      <!-- 2.5 -->
      <g transform="translate(34.696875 145.063219)scale(0.1 -0.1)">
       <use xlink:href="#DejaVuSans-32"/>
       <use x="63.623047" xlink:href="#DejaVuSans-2e"/>
       <use x="95.410156" xlink:href="#DejaVuSans-35"/>
      </g>
     </g>
    </g>
    <g id="ytick_7">
     <g id="line2d_16">
      <g>
       <use style="stroke:#000000;stroke-width:0.8;" x="57.6" xlink:href="#me2015e164a" y="108"/>
      </g>
     </g>
     <g id="text_16">
      <!-- 5.0 -->
      <g transform="translate(34.696875 111.799219)scale(0.1 -0.1)">
       <use xlink:href="#DejaVuSans-35"/>
       <use x="63.623047" xlink:href="#DejaVuSans-2e"/>
       <use x="95.410156" xlink:href="#DejaVuSans-30"/>
      </g>
     </g>
    </g>
    <g id="ytick_8">
     <g id="line2d_17">
      <g>
       <use style="stroke:#000000;stroke-width:0.8;" x="57.6" xlink:href="#me2015e164a" y="74.736"/>
      </g>
     </g>
     <g id="text_17">
      <!-- 7.5 -->
      <g transform="translate(34.696875 78.535219)scale(0.1 -0.1)">
       <use xlink:href="#DejaVuSans-37"/>
       <use x="63.623047" xlink:href="#DejaVuSans-2e"/>
       <use x="95.410156" xlink:href="#DejaVuSans-35"/>
      </g>
     </g>
    </g>
    <g id="ytick_9">
     <g id="line2d_18">
      <g>
       <use style="stroke:#000000;stroke-width:0.8;" x="57.6" xlink:href="#me2015e164a" y="41.472"/>
      </g>
     </g>
     <g id="text_18">
      <!-- 10.0 -->
      <g transform="translate(28.334375 45.271219)scale(0.1 -0.1)">
       <use xlink:href="#DejaVuSans-31"/>
       <use x="63.623047" xlink:href="#DejaVuSans-30"/>
       <use x="127.246094" xlink:href="#DejaVuSans-2e"/>
       <use x="159.033203" xlink:href="#DejaVuSans-30"/>
      </g>
     </g>
    </g>
   </g>
   <g id="patch_3">
    <path d="M 57.6 307.584 
L 57.6 41.472 
" style="fill:none;stroke:#000000;stroke-linecap:square;stroke-linejoin:miter;stroke-width:0.8;"/>
   </g>
   <g id="patch_4">
    <path d="M 414.72 307.584 
L 414.72 41.472 
" style="fill:none;stroke:#000000;stroke-linecap:square;stroke-linejoin:miter;stroke-width:0.8;"/>
   </g>
   <g id="patch_5">
    <path d="M 57.6 307.584 
L 414.72 307.584 
" style="fill:none;stroke:#000000;stroke-linecap:square;stroke-linejoin:miter;stroke-width:0.8;"/>
   </g>
   <g id="patch_6">
    <path d="M 57.6 41.472 
L 414.72 41.472 
" style="fill:none;stroke:#000000;stroke-linecap:square;stroke-linejoin:miter;stroke-width:0.8;"/>
   </g>
  </g>
 </g>
 <defs>
  <clipPath id="p2987c38384">
   <rect height="266.112" width="357.12" x="57.6" y="41.472"/>
  </clipPath>
 </defs>
</svg>
