<?xml version="1.0" encoding="utf-8" standalone="no"?>
<!DOCTYPE svg PUBLIC "-//W3C//DTD SVG 1.1//EN"
  "http://www.w3.org/Graphics/SVG/1.1/DTD/svg11.dtd">
<!-- Created with matplotlib (http://matplotlib.org/) -->
<svg height="345.6pt" version="1.1" viewBox="0 0 460.8 345.6" width="460.8pt" xmlns="http://www.w3.org/2000/svg" xmlns:xlink="http://www.w3.org/1999/xlink">
 <defs>
  <style type="text/css">
*{stroke-linecap:butt;stroke-linejoin:round;}
  </style>
 </defs>
 <g id="figure_1">
  <g id="patch_1">
   <path d="M 0 345.6 
L 460.8 345.6 
L 460.8 0 
L 0 0 
z
" style="fill:#ffffff;"/>
  </g>
  <g id="axes_1">
   <g id="patch_2">
    <path d="M 57.6 307.584 
L 414.72 307.584 
L 414.72 41.472 
L 57.6 41.472 
z
" style="fill:#ffffff;"/>
   </g>
   <g id="PathCollection_1">
    <defs>
     <path d="M 0 0.612372 
C 0.162403 0.612372 0.318176 0.547849 0.433013 0.433013 
C 0.547849 0.318176 0.612372 0.162403 0.612372 0 
C 0.612372 -0.162403 0.547849 -0.318176 0.433013 -0.433013 
C 0.318176 -0.547849 0.162403 -0.612372 0 -0.612372 
C -0.162403 -0.612372 -0.318176 -0.547849 -0.433013 -0.433013 
C -0.547849 -0.318176 -0.612372 -0.162403 -0.612372 0 
C -0.612372 0.162403 -0.547849 0.318176 -0.433013 0.433013 
C -0.318176 0.547849 -0.162403 0.612372 0 0.612372 
z
" id="m8ee7b86212" style="stroke:#000000;"/>
    </defs>
    <g clip-path="url(#pd31ea51626)">
     <use style="stroke:#000000;" x="247.764409" xlink:href="#m8ee7b86212" y="174.417502"/>
     <use style="stroke:#000000;" x="239.648292" xlink:href="#m8ee7b86212" y="174.528"/>
     <use style="stroke:#000000;" x="247.728373" xlink:href="#m8ee7b86212" y="174.40189"/>
     <use style="stroke:#000000;" x="247.756301" xlink:href="#m8ee7b86212" y="174.445093"/>
     <use style="stroke:#000000;" x="247.623241" xlink:href="#m8ee7b86212" y="174.071773"/>
     <use style="stroke:#000000;" x="247.617652" xlink:href="#m8ee7b86212" y="174.108727"/>
     <use style="stroke:#000000;" x="236.970827" xlink:href="#m8ee7b86212" y="174.110499"/>
     <use style="stroke:#000000;" x="239.554674" xlink:href="#m8ee7b86212" y="174.40367"/>
     <use style="stroke:#000000;" x="237.034939" xlink:href="#m8ee7b86212" y="174.091713"/>
     <use style="stroke:#000000;" x="247.704979" xlink:href="#m8ee7b86212" y="174.107398"/>
     <use style="stroke:#000000;" x="239.659452" xlink:href="#m8ee7b86212" y="174.528"/>
     <use style="stroke:#000000;" x="247.192559" xlink:href="#m8ee7b86212" y="174.487493"/>
     <use style="stroke:#000000;" x="237.549831" xlink:href="#m8ee7b86212" y="174.528"/>
     <use style="stroke:#000000;" x="236.933877" xlink:href="#m8ee7b86212" y="174.415478"/>
     <use style="stroke:#000000;" x="236.809545" xlink:href="#m8ee7b86212" y="174.528"/>
     <use style="stroke:#000000;" x="237.518881" xlink:href="#m8ee7b86212" y="174.400696"/>
     <use style="stroke:#000000;" x="239.689896" xlink:href="#m8ee7b86212" y="174.297971"/>
     <use style="stroke:#000000;" x="239.853289" xlink:href="#m8ee7b86212" y="174.528"/>
     <use style="stroke:#000000;" x="247.575037" xlink:href="#m8ee7b86212" y="174.528"/>
     <use style="stroke:#000000;" x="239.933569" xlink:href="#m8ee7b86212" y="174.343039"/>
     <use style="stroke:#000000;" x="247.282942" xlink:href="#m8ee7b86212" y="174.528"/>
     <use style="stroke:#000000;" x="239.688674" xlink:href="#m8ee7b86212" y="174.361746"/>
     <use style="stroke:#000000;" x="247.484364" xlink:href="#m8ee7b86212" y="173.940975"/>
     <use style="stroke:#000000;" x="239.729635" xlink:href="#m8ee7b86212" y="174.380943"/>
     <use style="stroke:#000000;" x="240.807401" xlink:href="#m8ee7b86212" y="174.519851"/>
     <use style="stroke:#000000;" x="239.816514" xlink:href="#m8ee7b86212" y="174.449577"/>
     <use style="stroke:#000000;" x="239.727786" xlink:href="#m8ee7b86212" y="174.319915"/>
     <use style="stroke:#000000;" x="247.211459" xlink:href="#m8ee7b86212" y="174.454371"/>
     <use style="stroke:#000000;" x="247.309232" xlink:href="#m8ee7b86212" y="174.046118"/>
     <use style="stroke:#000000;" x="239.639441" xlink:href="#m8ee7b86212" y="174.528"/>
     <use style="stroke:#000000;" x="247.386873" xlink:href="#m8ee7b86212" y="174.528"/>
     <use style="stroke:#000000;" x="247.442857" xlink:href="#m8ee7b86212" y="174.528"/>
     <use style="stroke:#000000;" x="239.693793" xlink:href="#m8ee7b86212" y="174.304634"/>
     <use style="stroke:#000000;" x="240.413568" xlink:href="#m8ee7b86212" y="174.528"/>
     <use style="stroke:#000000;" x="247.745094" xlink:href="#m8ee7b86212" y="174.418496"/>
     <use style="stroke:#000000;" x="247.637029" xlink:href="#m8ee7b86212" y="174.104018"/>
     <use style="stroke:#000000;" x="240.030875" xlink:href="#m8ee7b86212" y="174.528"/>
     <use style="stroke:#000000;" x="239.767083" xlink:href="#m8ee7b86212" y="174.333657"/>
     <use style="stroke:#000000;" x="239.565001" xlink:href="#m8ee7b86212" y="174.528"/>
     <use style="stroke:#000000;" x="240.245611" xlink:href="#m8ee7b86212" y="174.528"/>
     <use style="stroke:#000000;" x="236.426735" xlink:href="#m8ee7b86212" y="174.269781"/>
     <use style="stroke:#000000;" x="247.54377" xlink:href="#m8ee7b86212" y="174.104593"/>
     <use style="stroke:#000000;" x="236.180286" xlink:href="#m8ee7b86212" y="174.128106"/>
     <use style="stroke:#000000;" x="247.389633" xlink:href="#m8ee7b86212" y="174.528"/>
     <use style="stroke:#000000;" x="247.582407" xlink:href="#m8ee7b86212" y="174.317388"/>
     <use style="stroke:#000000;" x="240.547511" xlink:href="#m8ee7b86212" y="174.302227"/>
     <use style="stroke:#000000;" x="240.269963" xlink:href="#m8ee7b86212" y="174.472544"/>
     <use style="stroke:#000000;" x="240.118504" xlink:href="#m8ee7b86212" y="174.528"/>
     <use style="stroke:#000000;" x="237.163575" xlink:href="#m8ee7b86212" y="174.528"/>
     <use style="stroke:#000000;" x="247.108968" xlink:href="#m8ee7b86212" y="174.404282"/>
     <use style="stroke:#000000;" x="239.82351" xlink:href="#m8ee7b86212" y="174.37567"/>
     <use style="stroke:#000000;" x="247.109529" xlink:href="#m8ee7b86212" y="174.445158"/>
     <use style="stroke:#000000;" x="237.36384" xlink:href="#m8ee7b86212" y="174.209269"/>
     <use style="stroke:#000000;" x="236.16" xlink:href="#m8ee7b86212" y="174.303798"/>
     <use style="stroke:#000000;" x="247.471268" xlink:href="#m8ee7b86212" y="174.528"/>
     <use style="stroke:#000000;" x="236.879434" xlink:href="#m8ee7b86212" y="174.073153"/>
     <use style="stroke:#000000;" x="239.652238" xlink:href="#m8ee7b86212" y="174.447561"/>
     <use style="stroke:#000000;" x="236.463872" xlink:href="#m8ee7b86212" y="174.279821"/>
     <use style="stroke:#000000;" x="247.424735" xlink:href="#m8ee7b86212" y="174.241958"/>
     <use style="stroke:#000000;" x="240.056133" xlink:href="#m8ee7b86212" y="174.430593"/>
     <use style="stroke:#000000;" x="247.765064" xlink:href="#m8ee7b86212" y="174.436051"/>
     <use style="stroke:#000000;" x="247.773021" xlink:href="#m8ee7b86212" y="174.41505"/>
     <use style="stroke:#000000;" x="247.763427" xlink:href="#m8ee7b86212" y="174.419982"/>
     <use style="stroke:#000000;" x="239.366786" xlink:href="#m8ee7b86212" y="174.528"/>
     <use style="stroke:#000000;" x="247.593238" xlink:href="#m8ee7b86212" y="173.874206"/>
     <use style="stroke:#000000;" x="247.998529" xlink:href="#m8ee7b86212" y="173.709478"/>
     <use style="stroke:#000000;" x="247.564894" xlink:href="#m8ee7b86212" y="174.101387"/>
     <use style="stroke:#000000;" x="247.780689" xlink:href="#m8ee7b86212" y="173.917139"/>
     <use style="stroke:#000000;" x="236.451542" xlink:href="#m8ee7b86212" y="174.300556"/>
     <use style="stroke:#000000;" x="239.571144" xlink:href="#m8ee7b86212" y="174.308357"/>
     <use style="stroke:#000000;" x="237.474845" xlink:href="#m8ee7b86212" y="174.523483"/>
     <use style="stroke:#000000;" x="247.863432" xlink:href="#m8ee7b86212" y="174.011264"/>
     <use style="stroke:#000000;" x="240.320144" xlink:href="#m8ee7b86212" y="174.32242"/>
     <use style="stroke:#000000;" x="247.539672" xlink:href="#m8ee7b86212" y="174.324391"/>
     <use style="stroke:#000000;" x="236.163713" xlink:href="#m8ee7b86212" y="174.528"/>
     <use style="stroke:#000000;" x="236.949718" xlink:href="#m8ee7b86212" y="174.220593"/>
     <use style="stroke:#000000;" x="236.16" xlink:href="#m8ee7b86212" y="174.528"/>
     <use style="stroke:#000000;" x="238.506146" xlink:href="#m8ee7b86212" y="174.528"/>
     <use style="stroke:#000000;" x="239.32143" xlink:href="#m8ee7b86212" y="173.929227"/>
     <use style="stroke:#000000;" x="239.845381" xlink:href="#m8ee7b86212" y="174.528"/>
     <use style="stroke:#000000;" x="247.275314" xlink:href="#m8ee7b86212" y="174.468389"/>
     <use style="stroke:#000000;" x="239.652669" xlink:href="#m8ee7b86212" y="174.394388"/>
     <use style="stroke:#000000;" x="247.210673" xlink:href="#m8ee7b86212" y="174.528"/>
     <use style="stroke:#000000;" x="240.128058" xlink:href="#m8ee7b86212" y="174.175316"/>
     <use style="stroke:#000000;" x="239.302019" xlink:href="#m8ee7b86212" y="174.34724"/>
     <use style="stroke:#000000;" x="247.060866" xlink:href="#m8ee7b86212" y="174.140281"/>
     <use style="stroke:#000000;" x="247.261223" xlink:href="#m8ee7b86212" y="173.878806"/>
     <use style="stroke:#000000;" x="239.808078" xlink:href="#m8ee7b86212" y="174.216973"/>
     <use style="stroke:#000000;" x="240.15282" xlink:href="#m8ee7b86212" y="174.402449"/>
     <use style="stroke:#000000;" x="240.996102" xlink:href="#m8ee7b86212" y="174.528"/>
     <use style="stroke:#000000;" x="240.608796" xlink:href="#m8ee7b86212" y="174.528"/>
     <use style="stroke:#000000;" x="239.547549" xlink:href="#m8ee7b86212" y="174.473848"/>
     <use style="stroke:#000000;" x="239.729278" xlink:href="#m8ee7b86212" y="174.376281"/>
     <use style="stroke:#000000;" x="239.94537" xlink:href="#m8ee7b86212" y="174.367888"/>
     <use style="stroke:#000000;" x="239.741351" xlink:href="#m8ee7b86212" y="174.331224"/>
     <use style="stroke:#000000;" x="247.285737" xlink:href="#m8ee7b86212" y="174.528"/>
     <use style="stroke:#000000;" x="247.313205" xlink:href="#m8ee7b86212" y="174.383986"/>
     <use style="stroke:#000000;" x="247.135" xlink:href="#m8ee7b86212" y="174.490195"/>
     <use style="stroke:#000000;" x="247.233378" xlink:href="#m8ee7b86212" y="173.889444"/>
     <use style="stroke:#000000;" x="247.046889" xlink:href="#m8ee7b86212" y="174.150498"/>
     <use style="stroke:#000000;" x="247.300822" xlink:href="#m8ee7b86212" y="174.217968"/>
     <use style="stroke:#000000;" x="239.655428" xlink:href="#m8ee7b86212" y="174.528"/>
     <use style="stroke:#000000;" x="239.538181" xlink:href="#m8ee7b86212" y="174.454033"/>
     <use style="stroke:#000000;" x="239.645128" xlink:href="#m8ee7b86212" y="174.450172"/>
     <use style="stroke:#000000;" x="247.426602" xlink:href="#m8ee7b86212" y="174.520175"/>
     <use style="stroke:#000000;" x="247.300211" xlink:href="#m8ee7b86212" y="174.528"/>
     <use style="stroke:#000000;" x="247.387337" xlink:href="#m8ee7b86212" y="174.505955"/>
     <use style="stroke:#000000;" x="247.508646" xlink:href="#m8ee7b86212" y="174.49482"/>
     <use style="stroke:#000000;" x="247.506549" xlink:href="#m8ee7b86212" y="174.447133"/>
     <use style="stroke:#000000;" x="247.490596" xlink:href="#m8ee7b86212" y="174.528"/>
     <use style="stroke:#000000;" x="239.705841" xlink:href="#m8ee7b86212" y="174.239949"/>
     <use style="stroke:#000000;" x="239.564577" xlink:href="#m8ee7b86212" y="174.257181"/>
     <use style="stroke:#000000;" x="239.792704" xlink:href="#m8ee7b86212" y="174.30712"/>
     <use style="stroke:#000000;" x="240.516324" xlink:href="#m8ee7b86212" y="174.528"/>
     <use style="stroke:#000000;" x="240.319906" xlink:href="#m8ee7b86212" y="174.528"/>
     <use style="stroke:#000000;" x="240.44344" xlink:href="#m8ee7b86212" y="174.449196"/>
     <use style="stroke:#000000;" x="247.717995" xlink:href="#m8ee7b86212" y="174.377552"/>
     <use style="stroke:#000000;" x="247.837283" xlink:href="#m8ee7b86212" y="174.437754"/>
     <use style="stroke:#000000;" x="247.699768" xlink:href="#m8ee7b86212" y="174.457862"/>
     <use style="stroke:#000000;" x="247.639497" xlink:href="#m8ee7b86212" y="174.129934"/>
     <use style="stroke:#000000;" x="247.664193" xlink:href="#m8ee7b86212" y="174.133628"/>
     <use style="stroke:#000000;" x="247.641324" xlink:href="#m8ee7b86212" y="174.120795"/>
     <use style="stroke:#000000;" x="240.306046" xlink:href="#m8ee7b86212" y="174.432616"/>
     <use style="stroke:#000000;" x="239.604585" xlink:href="#m8ee7b86212" y="174.363819"/>
     <use style="stroke:#000000;" x="239.920969" xlink:href="#m8ee7b86212" y="174.331286"/>
     <use style="stroke:#000000;" x="239.809368" xlink:href="#m8ee7b86212" y="174.235623"/>
     <use style="stroke:#000000;" x="239.654819" xlink:href="#m8ee7b86212" y="174.462781"/>
     <use style="stroke:#000000;" x="239.314541" xlink:href="#m8ee7b86212" y="174.510585"/>
     <use style="stroke:#000000;" x="240.085064" xlink:href="#m8ee7b86212" y="174.528"/>
     <use style="stroke:#000000;" x="240.197654" xlink:href="#m8ee7b86212" y="174.443712"/>
     <use style="stroke:#000000;" x="236.200875" xlink:href="#m8ee7b86212" y="174.305038"/>
     <use style="stroke:#000000;" x="236.16" xlink:href="#m8ee7b86212" y="174.528"/>
     <use style="stroke:#000000;" x="247.587528" xlink:href="#m8ee7b86212" y="174.1945"/>
     <use style="stroke:#000000;" x="247.577143" xlink:href="#m8ee7b86212" y="174.274417"/>
     <use style="stroke:#000000;" x="236.16" xlink:href="#m8ee7b86212" y="173.7341"/>
     <use style="stroke:#000000;" x="236.16" xlink:href="#m8ee7b86212" y="174.172601"/>
     <use style="stroke:#000000;" x="247.26476" xlink:href="#m8ee7b86212" y="174.450854"/>
     <use style="stroke:#000000;" x="247.391799" xlink:href="#m8ee7b86212" y="174.528"/>
     <use style="stroke:#000000;" x="247.654691" xlink:href="#m8ee7b86212" y="174.249093"/>
     <use style="stroke:#000000;" x="247.135737" xlink:href="#m8ee7b86212" y="174.341548"/>
     <use style="stroke:#000000;" x="240.34567" xlink:href="#m8ee7b86212" y="174.528"/>
     <use style="stroke:#000000;" x="240.653232" xlink:href="#m8ee7b86212" y="174.424921"/>
     <use style="stroke:#000000;" x="240.078839" xlink:href="#m8ee7b86212" y="174.297912"/>
     <use style="stroke:#000000;" x="240.631134" xlink:href="#m8ee7b86212" y="174.528"/>
     <use style="stroke:#000000;" x="240.173925" xlink:href="#m8ee7b86212" y="174.528"/>
     <use style="stroke:#000000;" x="240.129046" xlink:href="#m8ee7b86212" y="174.528"/>
     <use style="stroke:#000000;" x="237.121971" xlink:href="#m8ee7b86212" y="174.528"/>
     <use style="stroke:#000000;" x="237.011953" xlink:href="#m8ee7b86212" y="174.393413"/>
     <use style="stroke:#000000;" x="247.167744" xlink:href="#m8ee7b86212" y="174.417547"/>
     <use style="stroke:#000000;" x="246.830303" xlink:href="#m8ee7b86212" y="174.356674"/>
     <use style="stroke:#000000;" x="239.815061" xlink:href="#m8ee7b86212" y="174.309191"/>
     <use style="stroke:#000000;" x="239.928402" xlink:href="#m8ee7b86212" y="174.366219"/>
     <use style="stroke:#000000;" x="239.690941" xlink:href="#m8ee7b86212" y="174.344897"/>
     <use style="stroke:#000000;" x="247.085937" xlink:href="#m8ee7b86212" y="174.347742"/>
     <use style="stroke:#000000;" x="247.302216" xlink:href="#m8ee7b86212" y="174.457517"/>
     <use style="stroke:#000000;" x="246.986695" xlink:href="#m8ee7b86212" y="174.424313"/>
     <use style="stroke:#000000;" x="237.455167" xlink:href="#m8ee7b86212" y="174.212873"/>
     <use style="stroke:#000000;" x="237.280639" xlink:href="#m8ee7b86212" y="174.338451"/>
     <use style="stroke:#000000;" x="237.623906" xlink:href="#m8ee7b86212" y="174.220519"/>
     <use style="stroke:#000000;" x="236.16" xlink:href="#m8ee7b86212" y="174.278158"/>
     <use style="stroke:#000000;" x="236.258237" xlink:href="#m8ee7b86212" y="174.215801"/>
     <use style="stroke:#000000;" x="236.16" xlink:href="#m8ee7b86212" y="174.480456"/>
     <use style="stroke:#000000;" x="247.627974" xlink:href="#m8ee7b86212" y="174.528"/>
     <use style="stroke:#000000;" x="247.436364" xlink:href="#m8ee7b86212" y="174.528"/>
     <use style="stroke:#000000;" x="247.520849" xlink:href="#m8ee7b86212" y="174.528"/>
     <use style="stroke:#000000;" x="236.831864" xlink:href="#m8ee7b86212" y="174.023836"/>
     <use style="stroke:#000000;" x="236.847385" xlink:href="#m8ee7b86212" y="174.05985"/>
     <use style="stroke:#000000;" x="236.945236" xlink:href="#m8ee7b86212" y="174.152248"/>
     <use style="stroke:#000000;" x="239.659195" xlink:href="#m8ee7b86212" y="174.469104"/>
     <use style="stroke:#000000;" x="239.588128" xlink:href="#m8ee7b86212" y="174.481498"/>
     <use style="stroke:#000000;" x="239.578248" xlink:href="#m8ee7b86212" y="174.465744"/>
     <use style="stroke:#000000;" x="236.466976" xlink:href="#m8ee7b86212" y="174.282744"/>
     <use style="stroke:#000000;" x="236.478375" xlink:href="#m8ee7b86212" y="174.282776"/>
     <use style="stroke:#000000;" x="236.512856" xlink:href="#m8ee7b86212" y="174.272778"/>
     <use style="stroke:#000000;" x="247.429276" xlink:href="#m8ee7b86212" y="174.252912"/>
     <use style="stroke:#000000;" x="247.42234" xlink:href="#m8ee7b86212" y="174.245133"/>
     <use style="stroke:#000000;" x="247.371127" xlink:href="#m8ee7b86212" y="174.261588"/>
     <use style="stroke:#000000;" x="240.049633" xlink:href="#m8ee7b86212" y="174.44519"/>
     <use style="stroke:#000000;" x="240.05846" xlink:href="#m8ee7b86212" y="174.433498"/>
     <use style="stroke:#000000;" x="240.050115" xlink:href="#m8ee7b86212" y="174.410248"/>
     <use style="stroke:#000000;" x="240.071389" xlink:href="#m8ee7b86212" y="174.427693"/>
    </g>
   </g>
   <g id="PathCollection_2">
    <defs>
     <path d="M 0 0.935414 
C 0.248075 0.935414 0.486022 0.836853 0.661438 0.661438 
C 0.836853 0.486022 0.935414 0.248075 0.935414 0 
C 0.935414 -0.248075 0.836853 -0.486022 0.661438 -0.661438 
C 0.486022 -0.836853 0.248075 -0.935414 0 -0.935414 
C -0.248075 -0.935414 -0.486022 -0.836853 -0.661438 -0.661438 
C -0.836853 -0.486022 -0.935414 -0.248075 -0.935414 0 
C -0.935414 0.248075 -0.836853 0.486022 -0.661438 0.661438 
C -0.486022 0.836853 -0.248075 0.935414 0 0.935414 
z
" id="m660c9c79ea" style="stroke:#0000ff;"/>
    </defs>
    <g clip-path="url(#pd31ea51626)">
     <use style="fill:#0000ff;stroke:#0000ff;" x="247.764409" xlink:href="#m660c9c79ea" y="174.417502"/>
     <use style="fill:#0000ff;stroke:#0000ff;" x="239.648292" xlink:href="#m660c9c79ea" y="174.528"/>
     <use style="fill:#0000ff;stroke:#0000ff;" x="247.728373" xlink:href="#m660c9c79ea" y="174.40189"/>
     <use style="fill:#0000ff;stroke:#0000ff;" x="247.756301" xlink:href="#m660c9c79ea" y="174.445093"/>
     <use style="fill:#0000ff;stroke:#0000ff;" x="247.623241" xlink:href="#m660c9c79ea" y="174.071773"/>
     <use style="fill:#0000ff;stroke:#0000ff;" x="247.617652" xlink:href="#m660c9c79ea" y="174.108727"/>
     <use style="fill:#0000ff;stroke:#0000ff;" x="236.970827" xlink:href="#m660c9c79ea" y="174.110499"/>
     <use style="fill:#0000ff;stroke:#0000ff;" x="239.554674" xlink:href="#m660c9c79ea" y="174.40367"/>
     <use style="fill:#0000ff;stroke:#0000ff;" x="237.034939" xlink:href="#m660c9c79ea" y="174.091713"/>
     <use style="fill:#0000ff;stroke:#0000ff;" x="247.704979" xlink:href="#m660c9c79ea" y="174.107398"/>
     <use style="fill:#0000ff;stroke:#0000ff;" x="239.659452" xlink:href="#m660c9c79ea" y="174.528"/>
     <use style="fill:#0000ff;stroke:#0000ff;" x="247.192559" xlink:href="#m660c9c79ea" y="174.487493"/>
     <use style="fill:#0000ff;stroke:#0000ff;" x="237.549831" xlink:href="#m660c9c79ea" y="174.528"/>
     <use style="fill:#0000ff;stroke:#0000ff;" x="236.933877" xlink:href="#m660c9c79ea" y="174.415478"/>
     <use style="fill:#0000ff;stroke:#0000ff;" x="236.809545" xlink:href="#m660c9c79ea" y="174.528"/>
     <use style="fill:#0000ff;stroke:#0000ff;" x="237.518881" xlink:href="#m660c9c79ea" y="174.400696"/>
     <use style="fill:#0000ff;stroke:#0000ff;" x="239.689896" xlink:href="#m660c9c79ea" y="174.297971"/>
     <use style="fill:#0000ff;stroke:#0000ff;" x="239.853289" xlink:href="#m660c9c79ea" y="174.528"/>
     <use style="fill:#0000ff;stroke:#0000ff;" x="247.575037" xlink:href="#m660c9c79ea" y="174.528"/>
     <use style="fill:#0000ff;stroke:#0000ff;" x="239.933569" xlink:href="#m660c9c79ea" y="174.343039"/>
     <use style="fill:#0000ff;stroke:#0000ff;" x="247.282942" xlink:href="#m660c9c79ea" y="174.528"/>
     <use style="fill:#0000ff;stroke:#0000ff;" x="239.688674" xlink:href="#m660c9c79ea" y="174.361746"/>
     <use style="fill:#0000ff;stroke:#0000ff;" x="247.484364" xlink:href="#m660c9c79ea" y="173.940975"/>
     <use style="fill:#0000ff;stroke:#0000ff;" x="239.729635" xlink:href="#m660c9c79ea" y="174.380943"/>
     <use style="fill:#0000ff;stroke:#0000ff;" x="240.807401" xlink:href="#m660c9c79ea" y="174.519851"/>
     <use style="fill:#0000ff;stroke:#0000ff;" x="239.816514" xlink:href="#m660c9c79ea" y="174.449577"/>
     <use style="fill:#0000ff;stroke:#0000ff;" x="239.727786" xlink:href="#m660c9c79ea" y="174.319915"/>
     <use style="fill:#0000ff;stroke:#0000ff;" x="247.211459" xlink:href="#m660c9c79ea" y="174.454371"/>
     <use style="fill:#0000ff;stroke:#0000ff;" x="247.309232" xlink:href="#m660c9c79ea" y="174.046118"/>
     <use style="fill:#0000ff;stroke:#0000ff;" x="239.639441" xlink:href="#m660c9c79ea" y="174.528"/>
     <use style="fill:#0000ff;stroke:#0000ff;" x="247.386873" xlink:href="#m660c9c79ea" y="174.528"/>
     <use style="fill:#0000ff;stroke:#0000ff;" x="247.442857" xlink:href="#m660c9c79ea" y="174.528"/>
     <use style="fill:#0000ff;stroke:#0000ff;" x="239.693793" xlink:href="#m660c9c79ea" y="174.304634"/>
     <use style="fill:#0000ff;stroke:#0000ff;" x="240.413568" xlink:href="#m660c9c79ea" y="174.528"/>
     <use style="fill:#0000ff;stroke:#0000ff;" x="247.745094" xlink:href="#m660c9c79ea" y="174.418496"/>
     <use style="fill:#0000ff;stroke:#0000ff;" x="247.637029" xlink:href="#m660c9c79ea" y="174.104018"/>
     <use style="fill:#0000ff;stroke:#0000ff;" x="240.030875" xlink:href="#m660c9c79ea" y="174.528"/>
     <use style="fill:#0000ff;stroke:#0000ff;" x="239.767083" xlink:href="#m660c9c79ea" y="174.333657"/>
     <use style="fill:#0000ff;stroke:#0000ff;" x="239.565001" xlink:href="#m660c9c79ea" y="174.528"/>
     <use style="fill:#0000ff;stroke:#0000ff;" x="240.245611" xlink:href="#m660c9c79ea" y="174.528"/>
     <use style="fill:#0000ff;stroke:#0000ff;" x="236.426735" xlink:href="#m660c9c79ea" y="174.269781"/>
     <use style="fill:#0000ff;stroke:#0000ff;" x="247.54377" xlink:href="#m660c9c79ea" y="174.104593"/>
     <use style="fill:#0000ff;stroke:#0000ff;" x="236.180286" xlink:href="#m660c9c79ea" y="174.128106"/>
     <use style="fill:#0000ff;stroke:#0000ff;" x="247.389633" xlink:href="#m660c9c79ea" y="174.528"/>
     <use style="fill:#0000ff;stroke:#0000ff;" x="247.582407" xlink:href="#m660c9c79ea" y="174.317388"/>
     <use style="fill:#0000ff;stroke:#0000ff;" x="240.547511" xlink:href="#m660c9c79ea" y="174.302227"/>
     <use style="fill:#0000ff;stroke:#0000ff;" x="240.269963" xlink:href="#m660c9c79ea" y="174.472544"/>
     <use style="fill:#0000ff;stroke:#0000ff;" x="240.118504" xlink:href="#m660c9c79ea" y="174.528"/>
     <use style="fill:#0000ff;stroke:#0000ff;" x="237.163575" xlink:href="#m660c9c79ea" y="174.528"/>
     <use style="fill:#0000ff;stroke:#0000ff;" x="247.108968" xlink:href="#m660c9c79ea" y="174.404282"/>
     <use style="fill:#0000ff;stroke:#0000ff;" x="239.82351" xlink:href="#m660c9c79ea" y="174.37567"/>
     <use style="fill:#0000ff;stroke:#0000ff;" x="247.109529" xlink:href="#m660c9c79ea" y="174.445158"/>
     <use style="fill:#0000ff;stroke:#0000ff;" x="237.36384" xlink:href="#m660c9c79ea" y="174.209269"/>
     <use style="fill:#0000ff;stroke:#0000ff;" x="236.16" xlink:href="#m660c9c79ea" y="174.303798"/>
     <use style="fill:#0000ff;stroke:#0000ff;" x="247.471268" xlink:href="#m660c9c79ea" y="174.528"/>
     <use style="fill:#0000ff;stroke:#0000ff;" x="236.879434" xlink:href="#m660c9c79ea" y="174.073153"/>
     <use style="fill:#0000ff;stroke:#0000ff;" x="239.652238" xlink:href="#m660c9c79ea" y="174.447561"/>
     <use style="fill:#0000ff;stroke:#0000ff;" x="236.463872" xlink:href="#m660c9c79ea" y="174.279821"/>
     <use style="fill:#0000ff;stroke:#0000ff;" x="247.424735" xlink:href="#m660c9c79ea" y="174.241958"/>
     <use style="fill:#0000ff;stroke:#0000ff;" x="240.056133" xlink:href="#m660c9c79ea" y="174.430593"/>
    </g>
   </g>
   <g id="matplotlib.axis_1">
    <g id="xtick_1">
     <g id="line2d_1">
      <defs>
       <path d="M 0 0 
L 0 3.5 
" id="m5e5f3a1c1d" style="stroke:#000000;stroke-width:0.8;"/>
      </defs>
      <g>
       <use style="stroke:#000000;stroke-width:0.8;" x="57.6" xlink:href="#m5e5f3a1c1d" y="307.584"/>
      </g>
     </g>
     <g id="text_1">
      <!-- −10.0 -->
      <defs>
       <path d="M 10.59375 35.5 
L 73.1875 35.5 
L 73.1875 27.203125 
L 10.59375 27.203125 
z
" id="DejaVuSans-2212"/>
       <path d="M 12.40625 8.296875 
L 28.515625 8.296875 
L 28.515625 63.921875 
L 10.984375 60.40625 
L 10.984375 69.390625 
L 28.421875 72.90625 
L 38.28125 72.90625 
L 38.28125 8.296875 
L 54.390625 8.296875 
L 54.390625 0 
L 12.40625 0 
z
" id="DejaVuSans-31"/>
       <path d="M 31.78125 66.40625 
Q 24.171875 66.40625 20.328125 58.90625 
Q 16.5 51.421875 16.5 36.375 
Q 16.5 21.390625 20.328125 13.890625 
Q 24.171875 6.390625 31.78125 6.390625 
Q 39.453125 6.390625 43.28125 13.890625 
Q 47.125 21.390625 47.125 36.375 
Q 47.125 51.421875 43.28125 58.90625 
Q 39.453125 66.40625 31.78125 66.40625 
z
M 31.78125 74.21875 
Q 44.046875 74.21875 50.515625 64.515625 
Q 56.984375 54.828125 56.984375 36.375 
Q 56.984375 17.96875 50.515625 8.265625 
Q 44.046875 -1.421875 31.78125 -1.421875 
Q 19.53125 -1.421875 13.0625 8.265625 
Q 6.59375 17.96875 6.59375 36.375 
Q 6.59375 54.828125 13.0625 64.515625 
Q 19.53125 74.21875 31.78125 74.21875 
z
" id="DejaVuSans-30"/>
       <path d="M 10.6875 12.40625 
L 21 12.40625 
L 21 0 
L 10.6875 0 
z
" id="DejaVuSans-2e"/>
      </defs>
      <g transform="translate(42.277344 322.182437)scale(0.1 -0.1)">
       <use xlink:href="#DejaVuSans-2212"/>
       <use x="83.789062" xlink:href="#DejaVuSans-31"/>
       <use x="147.412109" xlink:href="#DejaVuSans-30"/>
       <use x="211.035156" xlink:href="#DejaVuSans-2e"/>
       <use x="242.822266" xlink:href="#DejaVuSans-30"/>
      </g>
     </g>
    </g>
    <g id="xtick_2">
     <g id="line2d_2">
      <g>
       <use style="stroke:#000000;stroke-width:0.8;" x="102.24" xlink:href="#m5e5f3a1c1d" y="307.584"/>
      </g>
     </g>
     <g id="text_2">
      <!-- −7.5 -->
      <defs>
       <path d="M 8.203125 72.90625 
L 55.078125 72.90625 
L 55.078125 68.703125 
L 28.609375 0 
L 18.3125 0 
L 43.21875 64.59375 
L 8.203125 64.59375 
z
" id="DejaVuSans-37"/>
       <path d="M 10.796875 72.90625 
L 49.515625 72.90625 
L 49.515625 64.59375 
L 19.828125 64.59375 
L 19.828125 46.734375 
Q 21.96875 47.46875 24.109375 47.828125 
Q 26.265625 48.1875 28.421875 48.1875 
Q 40.625 48.1875 47.75 41.5 
Q 54.890625 34.8125 54.890625 23.390625 
Q 54.890625 11.625 47.5625 5.09375 
Q 40.234375 -1.421875 26.90625 -1.421875 
Q 22.3125 -1.421875 17.546875 -0.640625 
Q 12.796875 0.140625 7.71875 1.703125 
L 7.71875 11.625 
Q 12.109375 9.234375 16.796875 8.0625 
Q 21.484375 6.890625 26.703125 6.890625 
Q 35.15625 6.890625 40.078125 11.328125 
Q 45.015625 15.765625 45.015625 23.390625 
Q 45.015625 31 40.078125 35.4375 
Q 35.15625 39.890625 26.703125 39.890625 
Q 22.75 39.890625 18.8125 39.015625 
Q 14.890625 38.140625 10.796875 36.28125 
z
" id="DejaVuSans-35"/>
      </defs>
      <g transform="translate(90.098594 322.182437)scale(0.1 -0.1)">
       <use xlink:href="#DejaVuSans-2212"/>
       <use x="83.789062" xlink:href="#DejaVuSans-37"/>
       <use x="147.412109" xlink:href="#DejaVuSans-2e"/>
       <use x="179.199219" xlink:href="#DejaVuSans-35"/>
      </g>
     </g>
    </g>
    <g id="xtick_3">
     <g id="line2d_3">
      <g>
       <use style="stroke:#000000;stroke-width:0.8;" x="146.88" xlink:href="#m5e5f3a1c1d" y="307.584"/>
      </g>
     </g>
     <g id="text_3">
      <!-- −5.0 -->
      <g transform="translate(134.738594 322.182437)scale(0.1 -0.1)">
       <use xlink:href="#DejaVuSans-2212"/>
       <use x="83.789062" xlink:href="#DejaVuSans-35"/>
       <use x="147.412109" xlink:href="#DejaVuSans-2e"/>
       <use x="179.199219" xlink:href="#DejaVuSans-30"/>
      </g>
     </g>
    </g>
    <g id="xtick_4">
     <g id="line2d_4">
      <g>
       <use style="stroke:#000000;stroke-width:0.8;" x="191.52" xlink:href="#m5e5f3a1c1d" y="307.584"/>
      </g>
     </g>
     <g id="text_4">
      <!-- −2.5 -->
      <defs>
       <path d="M 19.1875 8.296875 
L 53.609375 8.296875 
L 53.609375 0 
L 7.328125 0 
L 7.328125 8.296875 
Q 12.9375 14.109375 22.625 23.890625 
Q 32.328125 33.6875 34.8125 36.53125 
Q 39.546875 41.84375 41.421875 45.53125 
Q 43.3125 49.21875 43.3125 52.78125 
Q 43.3125 58.59375 39.234375 62.25 
Q 35.15625 65.921875 28.609375 65.921875 
Q 23.96875 65.921875 18.8125 64.3125 
Q 13.671875 62.703125 7.8125 59.421875 
L 7.8125 69.390625 
Q 13.765625 71.78125 18.9375 73 
Q 24.125 74.21875 28.421875 74.21875 
Q 39.75 74.21875 46.484375 68.546875 
Q 53.21875 62.890625 53.21875 53.421875 
Q 53.21875 48.921875 51.53125 44.890625 
Q 49.859375 40.875 45.40625 35.40625 
Q 44.1875 33.984375 37.640625 27.21875 
Q 31.109375 20.453125 19.1875 8.296875 
z
" id="DejaVuSans-32"/>
      </defs>
      <g transform="translate(179.378594 322.182437)scale(0.1 -0.1)">
       <use xlink:href="#DejaVuSans-2212"/>
       <use x="83.789062" xlink:href="#DejaVuSans-32"/>
       <use x="147.412109" xlink:href="#DejaVuSans-2e"/>
       <use x="179.199219" xlink:href="#DejaVuSans-35"/>
      </g>
     </g>
    </g>
    <g id="xtick_5">
     <g id="line2d_5">
      <g>
       <use style="stroke:#000000;stroke-width:0.8;" x="236.16" xlink:href="#m5e5f3a1c1d" y="307.584"/>
      </g>
     </g>
     <g id="text_5">
      <!-- 0.0 -->
      <g transform="translate(228.208438 322.182437)scale(0.1 -0.1)">
       <use xlink:href="#DejaVuSans-30"/>
       <use x="63.623047" xlink:href="#DejaVuSans-2e"/>
       <use x="95.410156" xlink:href="#DejaVuSans-30"/>
      </g>
     </g>
    </g>
    <g id="xtick_6">
     <g id="line2d_6">
      <g>
       <use style="stroke:#000000;stroke-width:0.8;" x="280.8" xlink:href="#m5e5f3a1c1d" y="307.584"/>
      </g>
     </g>
     <g id="text_6">
      <!-- 2.5 -->
      <g transform="translate(272.848437 322.182437)scale(0.1 -0.1)">
       <use xlink:href="#DejaVuSans-32"/>
       <use x="63.623047" xlink:href="#DejaVuSans-2e"/>
       <use x="95.410156" xlink:href="#DejaVuSans-35"/>
      </g>
     </g>
    </g>
    <g id="xtick_7">
     <g id="line2d_7">
      <g>
       <use style="stroke:#000000;stroke-width:0.8;" x="325.44" xlink:href="#m5e5f3a1c1d" y="307.584"/>
      </g>
     </g>
     <g id="text_7">
      <!-- 5.0 -->
      <g transform="translate(317.488437 322.182437)scale(0.1 -0.1)">
       <use xlink:href="#DejaVuSans-35"/>
       <use x="63.623047" xlink:href="#DejaVuSans-2e"/>
       <use x="95.410156" xlink:href="#DejaVuSans-30"/>
      </g>
     </g>
    </g>
    <g id="xtick_8">
     <g id="line2d_8">
      <g>
       <use style="stroke:#000000;stroke-width:0.8;" x="370.08" xlink:href="#m5e5f3a1c1d" y="307.584"/>
      </g>
     </g>
     <g id="text_8">
      <!-- 7.5 -->
      <g transform="translate(362.128438 322.182437)scale(0.1 -0.1)">
       <use xlink:href="#DejaVuSans-37"/>
       <use x="63.623047" xlink:href="#DejaVuSans-2e"/>
       <use x="95.410156" xlink:href="#DejaVuSans-35"/>
      </g>
     </g>
    </g>
    <g id="xtick_9">
     <g id="line2d_9">
      <g>
       <use style="stroke:#000000;stroke-width:0.8;" x="414.72" xlink:href="#m5e5f3a1c1d" y="307.584"/>
      </g>
     </g>
     <g id="text_9">
      <!-- 10.0 -->
      <g transform="translate(403.587188 322.182437)scale(0.1 -0.1)">
       <use xlink:href="#DejaVuSans-31"/>
       <use x="63.623047" xlink:href="#DejaVuSans-30"/>
       <use x="127.246094" xlink:href="#DejaVuSans-2e"/>
       <use x="159.033203" xlink:href="#DejaVuSans-30"/>
      </g>
     </g>
    </g>
   </g>
   <g id="matplotlib.axis_2">
    <g id="ytick_1">
     <g id="line2d_10">
      <defs>
       <path d="M 0 0 
L -3.5 0 
" id="m7078550432" style="stroke:#000000;stroke-width:0.8;"/>
      </defs>
      <g>
       <use style="stroke:#000000;stroke-width:0.8;" x="57.6" xlink:href="#m7078550432" y="307.584"/>
      </g>
     </g>
     <g id="text_10">
      <!-- −10.0 -->
      <g transform="translate(19.954687 311.383219)scale(0.1 -0.1)">
       <use xlink:href="#DejaVuSans-2212"/>
       <use x="83.789062" xlink:href="#DejaVuSans-31"/>
       <use x="147.412109" xlink:href="#DejaVuSans-30"/>
       <use x="211.035156" xlink:href="#DejaVuSans-2e"/>
       <use x="242.822266" xlink:href="#DejaVuSans-30"/>
      </g>
     </g>
    </g>
    <g id="ytick_2">
     <g id="line2d_11">
      <g>
       <use style="stroke:#000000;stroke-width:0.8;" x="57.6" xlink:href="#m7078550432" y="274.32"/>
      </g>
     </g>
     <g id="text_11">
      <!-- −7.5 -->
      <g transform="translate(26.317187 278.119219)scale(0.1 -0.1)">
       <use xlink:href="#DejaVuSans-2212"/>
       <use x="83.789062" xlink:href="#DejaVuSans-37"/>
       <use x="147.412109" xlink:href="#DejaVuSans-2e"/>
       <use x="179.199219" xlink:href="#DejaVuSans-35"/>
      </g>
     </g>
    </g>
    <g id="ytick_3">
     <g id="line2d_12">
      <g>
       <use style="stroke:#000000;stroke-width:0.8;" x="57.6" xlink:href="#m7078550432" y="241.056"/>
      </g>
     </g>
     <g id="text_12">
      <!-- −5.0 -->
      <g transform="translate(26.317187 244.855219)scale(0.1 -0.1)">
       <use xlink:href="#DejaVuSans-2212"/>
       <use x="83.789062" xlink:href="#DejaVuSans-35"/>
       <use x="147.412109" xlink:href="#DejaVuSans-2e"/>
       <use x="179.199219" xlink:href="#DejaVuSans-30"/>
      </g>
     </g>
    </g>
    <g id="ytick_4">
     <g id="line2d_13">
      <g>
       <use style="stroke:#000000;stroke-width:0.8;" x="57.6" xlink:href="#m7078550432" y="207.792"/>
      </g>
     </g>
     <g id="text_13">
      <!-- −2.5 -->
      <g transform="translate(26.317187 211.591219)scale(0.1 -0.1)">
       <use xlink:href="#DejaVuSans-2212"/>
       <use x="83.789062" xlink:href="#DejaVuSans-32"/>
       <use x="147.412109" xlink:href="#DejaVuSans-2e"/>
       <use x="179.199219" xlink:href="#DejaVuSans-35"/>
      </g>
     </g>
    </g>
    <g id="ytick_5">
     <g id="line2d_14">
      <g>
       <use style="stroke:#000000;stroke-width:0.8;" x="57.6" xlink:href="#m7078550432" y="174.528"/>
      </g>
     </g>
     <g id="text_14">
      <!-- 0.0 -->
      <g transform="translate(34.696875 178.327219)scale(0.1 -0.1)">
       <use xlink:href="#DejaVuSans-30"/>
       <use x="63.623047" xlink:href="#DejaVuSans-2e"/>
       <use x="95.410156" xlink:href="#DejaVuSans-30"/>
      </g>
     </g>
    </g>
    <g id="ytick_6">
     <g id="line2d_15">
      <g>
       <use style="stroke:#000000;stroke-width:0.8;" x="57.6" xlink:href="#m7078550432" y="141.264"/>
      </g>
     </g>
     <g id="text_15">
      <!-- 2.5 -->
      <g transform="translate(34.696875 145.063219)scale(0.1 -0.1)">
       <use xlink:href="#DejaVuSans-32"/>
       <use x="63.623047" xlink:href="#DejaVuSans-2e"/>
       <use x="95.410156" xlink:href="#DejaVuSans-35"/>
      </g>
     </g>
    </g>
    <g id="ytick_7">
     <g id="line2d_16">
      <g>
       <use style="stroke:#000000;stroke-width:0.8;" x="57.6" xlink:href="#m7078550432" y="108"/>
      </g>
     </g>
     <g id="text_16">
      <!-- 5.0 -->
      <g transform="translate(34.696875 111.799219)scale(0.1 -0.1)">
       <use xlink:href="#DejaVuSans-35"/>
       <use x="63.623047" xlink:href="#DejaVuSans-2e"/>
       <use x="95.410156" xlink:href="#DejaVuSans-30"/>
      </g>
     </g>
    </g>
    <g id="ytick_8">
     <g id="line2d_17">
      <g>
       <use style="stroke:#000000;stroke-width:0.8;" x="57.6" xlink:href="#m7078550432" y="74.736"/>
      </g>
     </g>
     <g id="text_17">
      <!-- 7.5 -->
      <g transform="translate(34.696875 78.535219)scale(0.1 -0.1)">
       <use xlink:href="#DejaVuSans-37"/>
       <use x="63.623047" xlink:href="#DejaVuSans-2e"/>
       <use x="95.410156" xlink:href="#DejaVuSans-35"/>
      </g>
     </g>
    </g>
    <g id="ytick_9">
     <g id="line2d_18">
      <g>
       <use style="stroke:#000000;stroke-width:0.8;" x="57.6" xlink:href="#m7078550432" y="41.472"/>
      </g>
     </g>
     <g id="text_18">
      <!-- 10.0 -->
      <g transform="translate(28.334375 45.271219)scale(0.1 -0.1)">
       <use xlink:href="#DejaVuSans-31"/>
       <use x="63.623047" xlink:href="#DejaVuSans-30"/>
       <use x="127.246094" xlink:href="#DejaVuSans-2e"/>
       <use x="159.033203" xlink:href="#DejaVuSans-30"/>
      </g>
     </g>
    </g>
   </g>
   <g id="patch_3">
    <path d="M 57.6 307.584 
L 57.6 41.472 
" style="fill:none;stroke:#000000;stroke-linecap:square;stroke-linejoin:miter;stroke-width:0.8;"/>
   </g>
   <g id="patch_4">
    <path d="M 414.72 307.584 
L 414.72 41.472 
" style="fill:none;stroke:#000000;stroke-linecap:square;stroke-linejoin:miter;stroke-width:0.8;"/>
   </g>
   <g id="patch_5">
    <path d="M 57.6 307.584 
L 414.72 307.584 
" style="fill:none;stroke:#000000;stroke-linecap:square;stroke-linejoin:miter;stroke-width:0.8;"/>
   </g>
   <g id="patch_6">
    <path d="M 57.6 41.472 
L 414.72 41.472 
" style="fill:none;stroke:#000000;stroke-linecap:square;stroke-linejoin:miter;stroke-width:0.8;"/>
   </g>
  </g>
 </g>
 <defs>
  <clipPath id="pd31ea51626">
   <rect height="266.112" width="357.12" x="57.6" y="41.472"/>
  </clipPath>
 </defs>
</svg>
