<?xml version="1.0" encoding="utf-8" standalone="no"?>
<!DOCTYPE svg PUBLIC "-//W3C//DTD SVG 1.1//EN"
  "http://www.w3.org/Graphics/SVG/1.1/DTD/svg11.dtd">
<!-- Created with matplotlib (http://matplotlib.org/) -->
<svg height="345.6pt" version="1.1" viewBox="0 0 460.8 345.6" width="460.8pt" xmlns="http://www.w3.org/2000/svg" xmlns:xlink="http://www.w3.org/1999/xlink">
 <defs>
  <style type="text/css">
*{stroke-linecap:butt;stroke-linejoin:round;}
  </style>
 </defs>
 <g id="figure_1">
  <g id="patch_1">
   <path d="M 0 345.6 
L 460.8 345.6 
L 460.8 0 
L 0 0 
z
" style="fill:#ffffff;"/>
  </g>
  <g id="axes_1">
   <g id="patch_2">
    <path d="M 57.6 307.584 
L 414.72 307.584 
L 414.72 41.472 
L 57.6 41.472 
z
" style="fill:#ffffff;"/>
   </g>
   <g id="PathCollection_1">
    <defs>
     <path d="M 0 0.612372 
C 0.162403 0.612372 0.318176 0.547849 0.433013 0.433013 
C 0.547849 0.318176 0.612372 0.162403 0.612372 0 
C 0.612372 -0.162403 0.547849 -0.318176 0.433013 -0.433013 
C 0.318176 -0.547849 0.162403 -0.612372 0 -0.612372 
C -0.162403 -0.612372 -0.318176 -0.547849 -0.433013 -0.433013 
C -0.547849 -0.318176 -0.612372 -0.162403 -0.612372 0 
C -0.612372 0.162403 -0.547849 0.318176 -0.433013 0.433013 
C -0.318176 0.547849 -0.162403 0.612372 0 0.612372 
z
" id="m4368e16f64" style="stroke:#000000;"/>
    </defs>
    <g clip-path="url(#p4c824f4764)">
     <use style="stroke:#000000;" x="325.44" xlink:href="#m4368e16f64" y="142.175733"/>
     <use style="stroke:#000000;" x="255.019646" xlink:href="#m4368e16f64" y="174.528"/>
     <use style="stroke:#000000;" x="236.16" xlink:href="#m4368e16f64" y="134.6112"/>
     <use style="stroke:#000000;" x="240.106143" xlink:href="#m4368e16f64" y="174.528"/>
     <use style="stroke:#000000;" x="236.16" xlink:href="#m4368e16f64" y="163.723797"/>
     <use style="stroke:#000000;" x="236.16" xlink:href="#m4368e16f64" y="174.528"/>
     <use style="stroke:#000000;" x="236.16" xlink:href="#m4368e16f64" y="147.806594"/>
     <use style="stroke:#000000;" x="236.16" xlink:href="#m4368e16f64" y="147.955218"/>
     <use style="stroke:#000000;" x="236.16" xlink:href="#m4368e16f64" y="150.313401"/>
     <use style="stroke:#000000;" x="325.44" xlink:href="#m4368e16f64" y="140.736768"/>
     <use style="stroke:#000000;" x="236.16" xlink:href="#m4368e16f64" y="170.072867"/>
     <use style="stroke:#000000;" x="236.16" xlink:href="#m4368e16f64" y="145.034124"/>
     <use style="stroke:#000000;" x="236.16" xlink:href="#m4368e16f64" y="150.935124"/>
     <use style="stroke:#000000;" x="236.16" xlink:href="#m4368e16f64" y="143.975966"/>
     <use style="stroke:#000000;" x="236.16" xlink:href="#m4368e16f64" y="142.435865"/>
     <use style="stroke:#000000;" x="325.44" xlink:href="#m4368e16f64" y="143.998845"/>
     <use style="stroke:#000000;" x="321.885286" xlink:href="#m4368e16f64" y="174.528"/>
     <use style="stroke:#000000;" x="236.16" xlink:href="#m4368e16f64" y="139.295179"/>
     <use style="stroke:#000000;" x="265.870376" xlink:href="#m4368e16f64" y="174.528"/>
     <use style="stroke:#000000;" x="236.16" xlink:href="#m4368e16f64" y="134.6112"/>
     <use style="stroke:#000000;" x="304.775217" xlink:href="#m4368e16f64" y="174.528"/>
     <use style="stroke:#000000;" x="325.44" xlink:href="#m4368e16f64" y="171.318227"/>
     <use style="stroke:#000000;" x="236.16" xlink:href="#m4368e16f64" y="134.6112"/>
     <use style="stroke:#000000;" x="236.16" xlink:href="#m4368e16f64" y="165.22391"/>
     <use style="stroke:#000000;" x="236.16" xlink:href="#m4368e16f64" y="155.877912"/>
     <use style="stroke:#000000;" x="236.16" xlink:href="#m4368e16f64" y="150.493043"/>
     <use style="stroke:#000000;" x="325.44" xlink:href="#m4368e16f64" y="158.213463"/>
     <use style="stroke:#000000;" x="325.44" xlink:href="#m4368e16f64" y="146.311296"/>
     <use style="stroke:#000000;" x="325.44" xlink:href="#m4368e16f64" y="153.300602"/>
     <use style="stroke:#000000;" x="325.44" xlink:href="#m4368e16f64" y="142.504809"/>
     <use style="stroke:#000000;" x="238.269591" xlink:href="#m4368e16f64" y="174.528"/>
     <use style="stroke:#000000;" x="325.44" xlink:href="#m4368e16f64" y="136.479949"/>
     <use style="stroke:#000000;" x="312.023915" xlink:href="#m4368e16f64" y="174.528"/>
     <use style="stroke:#000000;" x="325.44" xlink:href="#m4368e16f64" y="147.462241"/>
     <use style="stroke:#000000;" x="236.16" xlink:href="#m4368e16f64" y="141.217429"/>
     <use style="stroke:#000000;" x="236.16" xlink:href="#m4368e16f64" y="151.521562"/>
     <use style="stroke:#000000;" x="236.16" xlink:href="#m4368e16f64" y="174.528"/>
     <use style="stroke:#000000;" x="236.16" xlink:href="#m4368e16f64" y="148.163785"/>
     <use style="stroke:#000000;" x="236.16" xlink:href="#m4368e16f64" y="137.089388"/>
     <use style="stroke:#000000;" x="242.429072" xlink:href="#m4368e16f64" y="174.528"/>
     <use style="stroke:#000000;" x="236.16" xlink:href="#m4368e16f64" y="140.467999"/>
     <use style="stroke:#000000;" x="236.16" xlink:href="#m4368e16f64" y="174.528"/>
     <use style="stroke:#000000;" x="236.16" xlink:href="#m4368e16f64" y="156.637806"/>
     <use style="stroke:#000000;" x="236.16" xlink:href="#m4368e16f64" y="142.945077"/>
     <use style="stroke:#000000;" x="236.16" xlink:href="#m4368e16f64" y="159.553081"/>
     <use style="stroke:#000000;" x="254.014438" xlink:href="#m4368e16f64" y="174.528"/>
     <use style="stroke:#000000;" x="325.44" xlink:href="#m4368e16f64" y="135.835845"/>
     <use style="stroke:#000000;" x="236.16" xlink:href="#m4368e16f64" y="140.54961"/>
     <use style="stroke:#000000;" x="325.44" xlink:href="#m4368e16f64" y="166.803901"/>
     <use style="stroke:#000000;" x="236.16" xlink:href="#m4368e16f64" y="172.762878"/>
     <use style="stroke:#000000;" x="236.16" xlink:href="#m4368e16f64" y="142.419283"/>
     <use style="stroke:#000000;" x="236.16" xlink:href="#m4368e16f64" y="143.70398"/>
     <use style="stroke:#000000;" x="236.16" xlink:href="#m4368e16f64" y="145.77122"/>
     <use style="stroke:#000000;" x="236.16" xlink:href="#m4368e16f64" y="149.093013"/>
     <use style="stroke:#000000;" x="236.16" xlink:href="#m4368e16f64" y="174.528"/>
     <use style="stroke:#000000;" x="236.16" xlink:href="#m4368e16f64" y="154.169342"/>
     <use style="stroke:#000000;" x="236.16" xlink:href="#m4368e16f64" y="173.998956"/>
     <use style="stroke:#000000;" x="236.16" xlink:href="#m4368e16f64" y="149.670174"/>
     <use style="stroke:#000000;" x="236.16" xlink:href="#m4368e16f64" y="174.528"/>
     <use style="stroke:#000000;" x="236.16" xlink:href="#m4368e16f64" y="149.493502"/>
     <use style="stroke:#000000;" x="236.16" xlink:href="#m4368e16f64" y="142.23489"/>
     <use style="stroke:#000000;" x="236.16" xlink:href="#m4368e16f64" y="143.250427"/>
     <use style="stroke:#000000;" x="245.324013" xlink:href="#m4368e16f64" y="174.500883"/>
     <use style="stroke:#000000;" x="236.16" xlink:href="#m4368e16f64" y="140.66911"/>
     <use style="stroke:#000000;" x="268.690724" xlink:href="#m4368e16f64" y="174.528"/>
     <use style="stroke:#000000;" x="236.16" xlink:href="#m4368e16f64" y="152.421648"/>
     <use style="stroke:#000000;" x="236.16" xlink:href="#m4368e16f64" y="134.6112"/>
     <use style="stroke:#000000;" x="325.44" xlink:href="#m4368e16f64" y="139.321771"/>
     <use style="stroke:#000000;" x="275.817492" xlink:href="#m4368e16f64" y="174.528"/>
     <use style="stroke:#000000;" x="236.16" xlink:href="#m4368e16f64" y="147.638693"/>
     <use style="stroke:#000000;" x="268.158221" xlink:href="#m4368e16f64" y="174.528"/>
     <use style="stroke:#000000;" x="236.16" xlink:href="#m4368e16f64" y="156.268262"/>
     <use style="stroke:#000000;" x="245.22489" xlink:href="#m4368e16f64" y="174.528"/>
     <use style="stroke:#000000;" x="248.813724" xlink:href="#m4368e16f64" y="174.528"/>
     <use style="stroke:#000000;" x="240.786682" xlink:href="#m4368e16f64" y="174.528"/>
     <use style="stroke:#000000;" x="242.247621" xlink:href="#m4368e16f64" y="174.528"/>
     <use style="stroke:#000000;" x="237.815812" xlink:href="#m4368e16f64" y="174.528"/>
     <use style="stroke:#000000;" x="236.16" xlink:href="#m4368e16f64" y="174.528"/>
     <use style="stroke:#000000;" x="236.16" xlink:href="#m4368e16f64" y="168.212655"/>
     <use style="stroke:#000000;" x="236.16" xlink:href="#m4368e16f64" y="146.960937"/>
     <use style="stroke:#000000;" x="325.44" xlink:href="#m4368e16f64" y="143.744359"/>
     <use style="stroke:#000000;" x="246.049789" xlink:href="#m4368e16f64" y="171.450429"/>
     <use style="stroke:#000000;" x="247.571926" xlink:href="#m4368e16f64" y="173.520514"/>
     <use style="stroke:#000000;" x="265.44506" xlink:href="#m4368e16f64" y="171.598208"/>
     <use style="stroke:#000000;" x="238.79364" xlink:href="#m4368e16f64" y="174.528"/>
     <use style="stroke:#000000;" x="239.348563" xlink:href="#m4368e16f64" y="134.6112"/>
     <use style="stroke:#000000;" x="236.16" xlink:href="#m4368e16f64" y="134.6112"/>
     <use style="stroke:#000000;" x="236.16" xlink:href="#m4368e16f64" y="135.853413"/>
     <use style="stroke:#000000;" x="237.157712" xlink:href="#m4368e16f64" y="174.528"/>
     <use style="stroke:#000000;" x="240.84369" xlink:href="#m4368e16f64" y="174.528"/>
     <use style="stroke:#000000;" x="238.649743" xlink:href="#m4368e16f64" y="172.762479"/>
     <use style="stroke:#000000;" x="236.16" xlink:href="#m4368e16f64" y="163.600631"/>
     <use style="stroke:#000000;" x="239.253925" xlink:href="#m4368e16f64" y="161.876289"/>
     <use style="stroke:#000000;" x="245.246709" xlink:href="#m4368e16f64" y="157.636375"/>
     <use style="stroke:#000000;" x="247.610661" xlink:href="#m4368e16f64" y="172.388379"/>
     <use style="stroke:#000000;" x="236.16" xlink:href="#m4368e16f64" y="173.122794"/>
     <use style="stroke:#000000;" x="236.16" xlink:href="#m4368e16f64" y="174.528"/>
     <use style="stroke:#000000;" x="251.019114" xlink:href="#m4368e16f64" y="144.333561"/>
     <use style="stroke:#000000;" x="236.16" xlink:href="#m4368e16f64" y="152.108121"/>
     <use style="stroke:#000000;" x="237.513902" xlink:href="#m4368e16f64" y="146.773314"/>
     <use style="stroke:#000000;" x="242.44047" xlink:href="#m4368e16f64" y="142.257386"/>
     <use style="stroke:#000000;" x="236.16" xlink:href="#m4368e16f64" y="147.762841"/>
     <use style="stroke:#000000;" x="236.16" xlink:href="#m4368e16f64" y="150.061154"/>
     <use style="stroke:#000000;" x="236.16" xlink:href="#m4368e16f64" y="145.847052"/>
     <use style="stroke:#000000;" x="236.16" xlink:href="#m4368e16f64" y="149.58602"/>
     <use style="stroke:#000000;" x="236.16" xlink:href="#m4368e16f64" y="149.824374"/>
     <use style="stroke:#000000;" x="324.001202" xlink:href="#m4368e16f64" y="134.6112"/>
     <use style="stroke:#000000;" x="324.88143" xlink:href="#m4368e16f64" y="134.79782"/>
     <use style="stroke:#000000;" x="315.137399" xlink:href="#m4368e16f64" y="135.477843"/>
     <use style="stroke:#000000;" x="236.16" xlink:href="#m4368e16f64" y="171.435963"/>
     <use style="stroke:#000000;" x="236.16" xlink:href="#m4368e16f64" y="174.091171"/>
     <use style="stroke:#000000;" x="236.16" xlink:href="#m4368e16f64" y="173.310999"/>
     <use style="stroke:#000000;" x="236.16" xlink:href="#m4368e16f64" y="140.831899"/>
     <use style="stroke:#000000;" x="236.16" xlink:href="#m4368e16f64" y="146.303473"/>
     <use style="stroke:#000000;" x="241.911976" xlink:href="#m4368e16f64" y="143.189458"/>
     <use style="stroke:#000000;" x="236.16" xlink:href="#m4368e16f64" y="150.246283"/>
     <use style="stroke:#000000;" x="236.16" xlink:href="#m4368e16f64" y="158.946267"/>
     <use style="stroke:#000000;" x="241.031709" xlink:href="#m4368e16f64" y="149.165963"/>
     <use style="stroke:#000000;" x="236.16" xlink:href="#m4368e16f64" y="142.50898"/>
     <use style="stroke:#000000;" x="236.16" xlink:href="#m4368e16f64" y="134.733225"/>
     <use style="stroke:#000000;" x="239.561082" xlink:href="#m4368e16f64" y="138.342134"/>
     <use style="stroke:#000000;" x="240.398431" xlink:href="#m4368e16f64" y="147.912629"/>
     <use style="stroke:#000000;" x="242.311504" xlink:href="#m4368e16f64" y="143.257978"/>
     <use style="stroke:#000000;" x="236.16" xlink:href="#m4368e16f64" y="143.145148"/>
     <use style="stroke:#000000;" x="309.695126" xlink:href="#m4368e16f64" y="146.97033"/>
     <use style="stroke:#000000;" x="325.44" xlink:href="#m4368e16f64" y="144.256225"/>
     <use style="stroke:#000000;" x="321.11599" xlink:href="#m4368e16f64" y="143.77364"/>
     <use style="stroke:#000000;" x="311.415551" xlink:href="#m4368e16f64" y="174.528"/>
     <use style="stroke:#000000;" x="324.705787" xlink:href="#m4368e16f64" y="171.272491"/>
     <use style="stroke:#000000;" x="325.44" xlink:href="#m4368e16f64" y="174.528"/>
     <use style="stroke:#000000;" x="244.35533" xlink:href="#m4368e16f64" y="134.6112"/>
     <use style="stroke:#000000;" x="242.863755" xlink:href="#m4368e16f64" y="146.165171"/>
     <use style="stroke:#000000;" x="236.16" xlink:href="#m4368e16f64" y="134.6112"/>
     <use style="stroke:#000000;" x="275.767849" xlink:href="#m4368e16f64" y="174.528"/>
     <use style="stroke:#000000;" x="236.16" xlink:href="#m4368e16f64" y="139.172875"/>
     <use style="stroke:#000000;" x="296.928836" xlink:href="#m4368e16f64" y="174.528"/>
     <use style="stroke:#000000;" x="312.533652" xlink:href="#m4368e16f64" y="174.528"/>
     <use style="stroke:#000000;" x="311.950879" xlink:href="#m4368e16f64" y="174.528"/>
     <use style="stroke:#000000;" x="325.44" xlink:href="#m4368e16f64" y="171.16556"/>
     <use style="stroke:#000000;" x="325.44" xlink:href="#m4368e16f64" y="167.691361"/>
     <use style="stroke:#000000;" x="307.098401" xlink:href="#m4368e16f64" y="168.399247"/>
     <use style="stroke:#000000;" x="257.206779" xlink:href="#m4368e16f64" y="134.6112"/>
     <use style="stroke:#000000;" x="244.855106" xlink:href="#m4368e16f64" y="167.634166"/>
     <use style="stroke:#000000;" x="236.16" xlink:href="#m4368e16f64" y="152.131667"/>
     <use style="stroke:#000000;" x="244.073877" xlink:href="#m4368e16f64" y="160.774512"/>
     <use style="stroke:#000000;" x="321.810424" xlink:href="#m4368e16f64" y="150.839684"/>
     <use style="stroke:#000000;" x="325.44" xlink:href="#m4368e16f64" y="146.257808"/>
     <use style="stroke:#000000;" x="325.44" xlink:href="#m4368e16f64" y="146.82995"/>
     <use style="stroke:#000000;" x="317.671709" xlink:href="#m4368e16f64" y="142.186856"/>
     <use style="stroke:#000000;" x="318.507824" xlink:href="#m4368e16f64" y="159.629259"/>
     <use style="stroke:#000000;" x="311.686634" xlink:href="#m4368e16f64" y="142.742449"/>
     <use style="stroke:#000000;" x="236.16" xlink:href="#m4368e16f64" y="168.767757"/>
     <use style="stroke:#000000;" x="240.533214" xlink:href="#m4368e16f64" y="174.528"/>
     <use style="stroke:#000000;" x="236.16" xlink:href="#m4368e16f64" y="171.078579"/>
     <use style="stroke:#000000;" x="325.44" xlink:href="#m4368e16f64" y="140.036144"/>
     <use style="stroke:#000000;" x="325.44" xlink:href="#m4368e16f64" y="134.6112"/>
     <use style="stroke:#000000;" x="316.010671" xlink:href="#m4368e16f64" y="135.204424"/>
     <use style="stroke:#000000;" x="325.44" xlink:href="#m4368e16f64" y="174.528"/>
     <use style="stroke:#000000;" x="325.44" xlink:href="#m4368e16f64" y="151.912426"/>
     <use style="stroke:#000000;" x="325.44" xlink:href="#m4368e16f64" y="150.168931"/>
     <use style="stroke:#000000;" x="314.902444" xlink:href="#m4368e16f64" y="142.680744"/>
     <use style="stroke:#000000;" x="236.16" xlink:href="#m4368e16f64" y="139.289865"/>
     <use style="stroke:#000000;" x="245.814189" xlink:href="#m4368e16f64" y="147.629331"/>
     <use style="stroke:#000000;" x="246.88774" xlink:href="#m4368e16f64" y="148.270569"/>
     <use style="stroke:#000000;" x="239.214464" xlink:href="#m4368e16f64" y="159.245645"/>
     <use style="stroke:#000000;" x="236.16" xlink:href="#m4368e16f64" y="153.326291"/>
     <use style="stroke:#000000;" x="251.4078" xlink:href="#m4368e16f64" y="158.766796"/>
     <use style="stroke:#000000;" x="236.16" xlink:href="#m4368e16f64" y="172.510936"/>
     <use style="stroke:#000000;" x="241.219802" xlink:href="#m4368e16f64" y="173.181873"/>
     <use style="stroke:#000000;" x="243.995783" xlink:href="#m4368e16f64" y="150.719531"/>
     <use style="stroke:#000000;" x="236.16" xlink:href="#m4368e16f64" y="148.40372"/>
     <use style="stroke:#000000;" x="237.591439" xlink:href="#m4368e16f64" y="148.528205"/>
     <use style="stroke:#000000;" x="252.057277" xlink:href="#m4368e16f64" y="134.6112"/>
     <use style="stroke:#000000;" x="237.647246" xlink:href="#m4368e16f64" y="143.639465"/>
     <use style="stroke:#000000;" x="243.383919" xlink:href="#m4368e16f64" y="171.496993"/>
     <use style="stroke:#000000;" x="236.16" xlink:href="#m4368e16f64" y="170.406653"/>
     <use style="stroke:#000000;" x="246.399805" xlink:href="#m4368e16f64" y="174.528"/>
     <use style="stroke:#000000;" x="258.854293" xlink:href="#m4368e16f64" y="147.524178"/>
     <use style="stroke:#000000;" x="236.16" xlink:href="#m4368e16f64" y="134.6112"/>
     <use style="stroke:#000000;" x="244.591709" xlink:href="#m4368e16f64" y="174.528"/>
     <use style="stroke:#000000;" x="236.16" xlink:href="#m4368e16f64" y="154.58939"/>
     <use style="stroke:#000000;" x="236.16" xlink:href="#m4368e16f64" y="152.100011"/>
     <use style="stroke:#000000;" x="243.403188" xlink:href="#m4368e16f64" y="147.60756"/>
     <use style="stroke:#000000;" x="239.405179" xlink:href="#m4368e16f64" y="145.576476"/>
     <use style="stroke:#000000;" x="236.16" xlink:href="#m4368e16f64" y="158.53009"/>
     <use style="stroke:#000000;" x="236.16" xlink:href="#m4368e16f64" y="157.772854"/>
     <use style="stroke:#000000;" x="241.243442" xlink:href="#m4368e16f64" y="174.528"/>
     <use style="stroke:#000000;" x="256.941443" xlink:href="#m4368e16f64" y="168.153767"/>
     <use style="stroke:#000000;" x="325.44" xlink:href="#m4368e16f64" y="145.800023"/>
     <use style="stroke:#000000;" x="236.16" xlink:href="#m4368e16f64" y="140.746579"/>
     <use style="stroke:#000000;" x="318.563922" xlink:href="#m4368e16f64" y="158.28408"/>
     <use style="stroke:#000000;" x="320.172091" xlink:href="#m4368e16f64" y="167.526217"/>
     <use style="stroke:#000000;" x="245.758729" xlink:href="#m4368e16f64" y="168.383343"/>
     <use style="stroke:#000000;" x="236.16" xlink:href="#m4368e16f64" y="148.009652"/>
     <use style="stroke:#000000;" x="243.753778" xlink:href="#m4368e16f64" y="137.887052"/>
     <use style="stroke:#000000;" x="236.16" xlink:href="#m4368e16f64" y="149.839002"/>
     <use style="stroke:#000000;" x="246.828834" xlink:href="#m4368e16f64" y="146.845302"/>
     <use style="stroke:#000000;" x="240.667287" xlink:href="#m4368e16f64" y="144.501906"/>
     <use style="stroke:#000000;" x="236.16" xlink:href="#m4368e16f64" y="144.341645"/>
     <use style="stroke:#000000;" x="238.761449" xlink:href="#m4368e16f64" y="145.309867"/>
     <use style="stroke:#000000;" x="244.16683" xlink:href="#m4368e16f64" y="149.826357"/>
     <use style="stroke:#000000;" x="238.004866" xlink:href="#m4368e16f64" y="173.014344"/>
     <use style="stroke:#000000;" x="241.763055" xlink:href="#m4368e16f64" y="174.528"/>
     <use style="stroke:#000000;" x="236.16" xlink:href="#m4368e16f64" y="147.909342"/>
     <use style="stroke:#000000;" x="254.557636" xlink:href="#m4368e16f64" y="152.125703"/>
     <use style="stroke:#000000;" x="236.16" xlink:href="#m4368e16f64" y="165.01178"/>
     <use style="stroke:#000000;" x="260.325701" xlink:href="#m4368e16f64" y="168.552258"/>
     <use style="stroke:#000000;" x="236.16" xlink:href="#m4368e16f64" y="144.961923"/>
     <use style="stroke:#000000;" x="243.251377" xlink:href="#m4368e16f64" y="157.418065"/>
     <use style="stroke:#000000;" x="236.16" xlink:href="#m4368e16f64" y="174.528"/>
     <use style="stroke:#000000;" x="239.428373" xlink:href="#m4368e16f64" y="174.528"/>
     <use style="stroke:#000000;" x="239.04704" xlink:href="#m4368e16f64" y="151.178748"/>
     <use style="stroke:#000000;" x="236.16" xlink:href="#m4368e16f64" y="151.802587"/>
     <use style="stroke:#000000;" x="236.16" xlink:href="#m4368e16f64" y="144.671836"/>
     <use style="stroke:#000000;" x="249.275512" xlink:href="#m4368e16f64" y="140.364405"/>
     <use style="stroke:#000000;" x="236.16" xlink:href="#m4368e16f64" y="142.939434"/>
     <use style="stroke:#000000;" x="245.335627" xlink:href="#m4368e16f64" y="139.587937"/>
     <use style="stroke:#000000;" x="241.884661" xlink:href="#m4368e16f64" y="174.528"/>
     <use style="stroke:#000000;" x="245.483427" xlink:href="#m4368e16f64" y="173.825647"/>
     <use style="stroke:#000000;" x="238.727178" xlink:href="#m4368e16f64" y="148.756083"/>
     <use style="stroke:#000000;" x="236.16" xlink:href="#m4368e16f64" y="145.262819"/>
     <use style="stroke:#000000;" x="260.921841" xlink:href="#m4368e16f64" y="174.528"/>
     <use style="stroke:#000000;" x="281.409906" xlink:href="#m4368e16f64" y="169.107027"/>
     <use style="stroke:#000000;" x="236.16" xlink:href="#m4368e16f64" y="154.256893"/>
     <use style="stroke:#000000;" x="248.681842" xlink:href="#m4368e16f64" y="157.083336"/>
     <use style="stroke:#000000;" x="252.784344" xlink:href="#m4368e16f64" y="134.6112"/>
     <use style="stroke:#000000;" x="240.773055" xlink:href="#m4368e16f64" y="134.6112"/>
     <use style="stroke:#000000;" x="324.767202" xlink:href="#m4368e16f64" y="142.142459"/>
     <use style="stroke:#000000;" x="271.330904" xlink:href="#m4368e16f64" y="174.528"/>
     <use style="stroke:#000000;" x="270.898613" xlink:href="#m4368e16f64" y="174.528"/>
     <use style="stroke:#000000;" x="236.16" xlink:href="#m4368e16f64" y="153.161715"/>
     <use style="stroke:#000000;" x="277.863563" xlink:href="#m4368e16f64" y="174.528"/>
     <use style="stroke:#000000;" x="242.860497" xlink:href="#m4368e16f64" y="152.887736"/>
     <use style="stroke:#000000;" x="236.16" xlink:href="#m4368e16f64" y="174.528"/>
     <use style="stroke:#000000;" x="250.937296" xlink:href="#m4368e16f64" y="173.167217"/>
     <use style="stroke:#000000;" x="237.601964" xlink:href="#m4368e16f64" y="172.185182"/>
     <use style="stroke:#000000;" x="236.16" xlink:href="#m4368e16f64" y="173.968014"/>
     <use style="stroke:#000000;" x="241.079872" xlink:href="#m4368e16f64" y="172.100555"/>
     <use style="stroke:#000000;" x="236.16" xlink:href="#m4368e16f64" y="165.117908"/>
     <use style="stroke:#000000;" x="247.586523" xlink:href="#m4368e16f64" y="157.737199"/>
     <use style="stroke:#000000;" x="236.16" xlink:href="#m4368e16f64" y="141.058225"/>
    </g>
   </g>
   <g id="PathCollection_2">
    <defs>
     <path d="M 0 0.935414 
C 0.248075 0.935414 0.486022 0.836853 0.661438 0.661438 
C 0.836853 0.486022 0.935414 0.248075 0.935414 0 
C 0.935414 -0.248075 0.836853 -0.486022 0.661438 -0.661438 
C 0.486022 -0.836853 0.248075 -0.935414 0 -0.935414 
C -0.248075 -0.935414 -0.486022 -0.836853 -0.661438 -0.661438 
C -0.836853 -0.486022 -0.935414 -0.248075 -0.935414 0 
C -0.935414 0.248075 -0.836853 0.486022 -0.661438 0.661438 
C -0.486022 0.836853 -0.248075 0.935414 0 0.935414 
z
" id="m002d408697" style="stroke:#0000ff;"/>
    </defs>
    <g clip-path="url(#p4c824f4764)">
     <use style="fill:#0000ff;stroke:#0000ff;" x="325.44" xlink:href="#m002d408697" y="142.175733"/>
     <use style="fill:#0000ff;stroke:#0000ff;" x="255.019646" xlink:href="#m002d408697" y="174.528"/>
     <use style="fill:#0000ff;stroke:#0000ff;" x="236.16" xlink:href="#m002d408697" y="134.6112"/>
     <use style="fill:#0000ff;stroke:#0000ff;" x="240.106143" xlink:href="#m002d408697" y="174.528"/>
     <use style="fill:#0000ff;stroke:#0000ff;" x="236.16" xlink:href="#m002d408697" y="163.723797"/>
     <use style="fill:#0000ff;stroke:#0000ff;" x="236.16" xlink:href="#m002d408697" y="174.528"/>
     <use style="fill:#0000ff;stroke:#0000ff;" x="236.16" xlink:href="#m002d408697" y="147.806594"/>
     <use style="fill:#0000ff;stroke:#0000ff;" x="236.16" xlink:href="#m002d408697" y="147.955218"/>
     <use style="fill:#0000ff;stroke:#0000ff;" x="236.16" xlink:href="#m002d408697" y="150.313401"/>
     <use style="fill:#0000ff;stroke:#0000ff;" x="325.44" xlink:href="#m002d408697" y="140.736768"/>
     <use style="fill:#0000ff;stroke:#0000ff;" x="236.16" xlink:href="#m002d408697" y="170.072867"/>
     <use style="fill:#0000ff;stroke:#0000ff;" x="236.16" xlink:href="#m002d408697" y="145.034124"/>
     <use style="fill:#0000ff;stroke:#0000ff;" x="236.16" xlink:href="#m002d408697" y="150.935124"/>
     <use style="fill:#0000ff;stroke:#0000ff;" x="236.16" xlink:href="#m002d408697" y="143.975966"/>
     <use style="fill:#0000ff;stroke:#0000ff;" x="236.16" xlink:href="#m002d408697" y="142.435865"/>
     <use style="fill:#0000ff;stroke:#0000ff;" x="325.44" xlink:href="#m002d408697" y="143.998845"/>
     <use style="fill:#0000ff;stroke:#0000ff;" x="321.885286" xlink:href="#m002d408697" y="174.528"/>
     <use style="fill:#0000ff;stroke:#0000ff;" x="236.16" xlink:href="#m002d408697" y="139.295179"/>
     <use style="fill:#0000ff;stroke:#0000ff;" x="265.870376" xlink:href="#m002d408697" y="174.528"/>
     <use style="fill:#0000ff;stroke:#0000ff;" x="236.16" xlink:href="#m002d408697" y="134.6112"/>
     <use style="fill:#0000ff;stroke:#0000ff;" x="304.775217" xlink:href="#m002d408697" y="174.528"/>
     <use style="fill:#0000ff;stroke:#0000ff;" x="325.44" xlink:href="#m002d408697" y="171.318227"/>
     <use style="fill:#0000ff;stroke:#0000ff;" x="236.16" xlink:href="#m002d408697" y="134.6112"/>
     <use style="fill:#0000ff;stroke:#0000ff;" x="236.16" xlink:href="#m002d408697" y="165.22391"/>
     <use style="fill:#0000ff;stroke:#0000ff;" x="236.16" xlink:href="#m002d408697" y="155.877912"/>
     <use style="fill:#0000ff;stroke:#0000ff;" x="236.16" xlink:href="#m002d408697" y="150.493043"/>
     <use style="fill:#0000ff;stroke:#0000ff;" x="325.44" xlink:href="#m002d408697" y="158.213463"/>
     <use style="fill:#0000ff;stroke:#0000ff;" x="325.44" xlink:href="#m002d408697" y="146.311296"/>
     <use style="fill:#0000ff;stroke:#0000ff;" x="325.44" xlink:href="#m002d408697" y="153.300602"/>
     <use style="fill:#0000ff;stroke:#0000ff;" x="325.44" xlink:href="#m002d408697" y="142.504809"/>
     <use style="fill:#0000ff;stroke:#0000ff;" x="238.269591" xlink:href="#m002d408697" y="174.528"/>
     <use style="fill:#0000ff;stroke:#0000ff;" x="325.44" xlink:href="#m002d408697" y="136.479949"/>
     <use style="fill:#0000ff;stroke:#0000ff;" x="312.023915" xlink:href="#m002d408697" y="174.528"/>
     <use style="fill:#0000ff;stroke:#0000ff;" x="325.44" xlink:href="#m002d408697" y="147.462241"/>
     <use style="fill:#0000ff;stroke:#0000ff;" x="236.16" xlink:href="#m002d408697" y="141.217429"/>
     <use style="fill:#0000ff;stroke:#0000ff;" x="236.16" xlink:href="#m002d408697" y="151.521562"/>
     <use style="fill:#0000ff;stroke:#0000ff;" x="236.16" xlink:href="#m002d408697" y="174.528"/>
     <use style="fill:#0000ff;stroke:#0000ff;" x="236.16" xlink:href="#m002d408697" y="148.163785"/>
     <use style="fill:#0000ff;stroke:#0000ff;" x="236.16" xlink:href="#m002d408697" y="137.089388"/>
     <use style="fill:#0000ff;stroke:#0000ff;" x="242.429072" xlink:href="#m002d408697" y="174.528"/>
     <use style="fill:#0000ff;stroke:#0000ff;" x="236.16" xlink:href="#m002d408697" y="140.467999"/>
     <use style="fill:#0000ff;stroke:#0000ff;" x="236.16" xlink:href="#m002d408697" y="174.528"/>
     <use style="fill:#0000ff;stroke:#0000ff;" x="236.16" xlink:href="#m002d408697" y="156.637806"/>
     <use style="fill:#0000ff;stroke:#0000ff;" x="236.16" xlink:href="#m002d408697" y="142.945077"/>
     <use style="fill:#0000ff;stroke:#0000ff;" x="236.16" xlink:href="#m002d408697" y="159.553081"/>
     <use style="fill:#0000ff;stroke:#0000ff;" x="254.014438" xlink:href="#m002d408697" y="174.528"/>
     <use style="fill:#0000ff;stroke:#0000ff;" x="325.44" xlink:href="#m002d408697" y="135.835845"/>
     <use style="fill:#0000ff;stroke:#0000ff;" x="236.16" xlink:href="#m002d408697" y="140.54961"/>
     <use style="fill:#0000ff;stroke:#0000ff;" x="325.44" xlink:href="#m002d408697" y="166.803901"/>
     <use style="fill:#0000ff;stroke:#0000ff;" x="236.16" xlink:href="#m002d408697" y="172.762878"/>
     <use style="fill:#0000ff;stroke:#0000ff;" x="236.16" xlink:href="#m002d408697" y="142.419283"/>
     <use style="fill:#0000ff;stroke:#0000ff;" x="236.16" xlink:href="#m002d408697" y="143.70398"/>
     <use style="fill:#0000ff;stroke:#0000ff;" x="236.16" xlink:href="#m002d408697" y="145.77122"/>
     <use style="fill:#0000ff;stroke:#0000ff;" x="236.16" xlink:href="#m002d408697" y="149.093013"/>
     <use style="fill:#0000ff;stroke:#0000ff;" x="236.16" xlink:href="#m002d408697" y="174.528"/>
     <use style="fill:#0000ff;stroke:#0000ff;" x="236.16" xlink:href="#m002d408697" y="154.169342"/>
     <use style="fill:#0000ff;stroke:#0000ff;" x="236.16" xlink:href="#m002d408697" y="173.998956"/>
     <use style="fill:#0000ff;stroke:#0000ff;" x="236.16" xlink:href="#m002d408697" y="149.670174"/>
     <use style="fill:#0000ff;stroke:#0000ff;" x="236.16" xlink:href="#m002d408697" y="174.528"/>
     <use style="fill:#0000ff;stroke:#0000ff;" x="236.16" xlink:href="#m002d408697" y="149.493502"/>
     <use style="fill:#0000ff;stroke:#0000ff;" x="236.16" xlink:href="#m002d408697" y="142.23489"/>
     <use style="fill:#0000ff;stroke:#0000ff;" x="236.16" xlink:href="#m002d408697" y="143.250427"/>
     <use style="fill:#0000ff;stroke:#0000ff;" x="245.324013" xlink:href="#m002d408697" y="174.500883"/>
     <use style="fill:#0000ff;stroke:#0000ff;" x="236.16" xlink:href="#m002d408697" y="140.66911"/>
     <use style="fill:#0000ff;stroke:#0000ff;" x="268.690724" xlink:href="#m002d408697" y="174.528"/>
     <use style="fill:#0000ff;stroke:#0000ff;" x="236.16" xlink:href="#m002d408697" y="152.421648"/>
     <use style="fill:#0000ff;stroke:#0000ff;" x="236.16" xlink:href="#m002d408697" y="134.6112"/>
     <use style="fill:#0000ff;stroke:#0000ff;" x="325.44" xlink:href="#m002d408697" y="139.321771"/>
     <use style="fill:#0000ff;stroke:#0000ff;" x="275.817492" xlink:href="#m002d408697" y="174.528"/>
     <use style="fill:#0000ff;stroke:#0000ff;" x="236.16" xlink:href="#m002d408697" y="147.638693"/>
     <use style="fill:#0000ff;stroke:#0000ff;" x="268.158221" xlink:href="#m002d408697" y="174.528"/>
     <use style="fill:#0000ff;stroke:#0000ff;" x="236.16" xlink:href="#m002d408697" y="156.268262"/>
     <use style="fill:#0000ff;stroke:#0000ff;" x="245.22489" xlink:href="#m002d408697" y="174.528"/>
     <use style="fill:#0000ff;stroke:#0000ff;" x="248.813724" xlink:href="#m002d408697" y="174.528"/>
     <use style="fill:#0000ff;stroke:#0000ff;" x="240.786682" xlink:href="#m002d408697" y="174.528"/>
     <use style="fill:#0000ff;stroke:#0000ff;" x="242.247621" xlink:href="#m002d408697" y="174.528"/>
     <use style="fill:#0000ff;stroke:#0000ff;" x="237.815812" xlink:href="#m002d408697" y="174.528"/>
     <use style="fill:#0000ff;stroke:#0000ff;" x="236.16" xlink:href="#m002d408697" y="174.528"/>
     <use style="fill:#0000ff;stroke:#0000ff;" x="236.16" xlink:href="#m002d408697" y="168.212655"/>
     <use style="fill:#0000ff;stroke:#0000ff;" x="236.16" xlink:href="#m002d408697" y="146.960937"/>
    </g>
   </g>
   <g id="matplotlib.axis_1">
    <g id="xtick_1">
     <g id="line2d_1">
      <defs>
       <path d="M 0 0 
L 0 3.5 
" id="m6f797ef844" style="stroke:#000000;stroke-width:0.8;"/>
      </defs>
      <g>
       <use style="stroke:#000000;stroke-width:0.8;" x="57.6" xlink:href="#m6f797ef844" y="307.584"/>
      </g>
     </g>
     <g id="text_1">
      <!-- −10.0 -->
      <defs>
       <path d="M 10.59375 35.5 
L 73.1875 35.5 
L 73.1875 27.203125 
L 10.59375 27.203125 
z
" id="DejaVuSans-2212"/>
       <path d="M 12.40625 8.296875 
L 28.515625 8.296875 
L 28.515625 63.921875 
L 10.984375 60.40625 
L 10.984375 69.390625 
L 28.421875 72.90625 
L 38.28125 72.90625 
L 38.28125 8.296875 
L 54.390625 8.296875 
L 54.390625 0 
L 12.40625 0 
z
" id="DejaVuSans-31"/>
       <path d="M 31.78125 66.40625 
Q 24.171875 66.40625 20.328125 58.90625 
Q 16.5 51.421875 16.5 36.375 
Q 16.5 21.390625 20.328125 13.890625 
Q 24.171875 6.390625 31.78125 6.390625 
Q 39.453125 6.390625 43.28125 13.890625 
Q 47.125 21.390625 47.125 36.375 
Q 47.125 51.421875 43.28125 58.90625 
Q 39.453125 66.40625 31.78125 66.40625 
z
M 31.78125 74.21875 
Q 44.046875 74.21875 50.515625 64.515625 
Q 56.984375 54.828125 56.984375 36.375 
Q 56.984375 17.96875 50.515625 8.265625 
Q 44.046875 -1.421875 31.78125 -1.421875 
Q 19.53125 -1.421875 13.0625 8.265625 
Q 6.59375 17.96875 6.59375 36.375 
Q 6.59375 54.828125 13.0625 64.515625 
Q 19.53125 74.21875 31.78125 74.21875 
z
" id="DejaVuSans-30"/>
       <path d="M 10.6875 12.40625 
L 21 12.40625 
L 21 0 
L 10.6875 0 
z
" id="DejaVuSans-2e"/>
      </defs>
      <g transform="translate(42.277344 322.182437)scale(0.1 -0.1)">
       <use xlink:href="#DejaVuSans-2212"/>
       <use x="83.789062" xlink:href="#DejaVuSans-31"/>
       <use x="147.412109" xlink:href="#DejaVuSans-30"/>
       <use x="211.035156" xlink:href="#DejaVuSans-2e"/>
       <use x="242.822266" xlink:href="#DejaVuSans-30"/>
      </g>
     </g>
    </g>
    <g id="xtick_2">
     <g id="line2d_2">
      <g>
       <use style="stroke:#000000;stroke-width:0.8;" x="102.24" xlink:href="#m6f797ef844" y="307.584"/>
      </g>
     </g>
     <g id="text_2">
      <!-- −7.5 -->
      <defs>
       <path d="M 8.203125 72.90625 
L 55.078125 72.90625 
L 55.078125 68.703125 
L 28.609375 0 
L 18.3125 0 
L 43.21875 64.59375 
L 8.203125 64.59375 
z
" id="DejaVuSans-37"/>
       <path d="M 10.796875 72.90625 
L 49.515625 72.90625 
L 49.515625 64.59375 
L 19.828125 64.59375 
L 19.828125 46.734375 
Q 21.96875 47.46875 24.109375 47.828125 
Q 26.265625 48.1875 28.421875 48.1875 
Q 40.625 48.1875 47.75 41.5 
Q 54.890625 34.8125 54.890625 23.390625 
Q 54.890625 11.625 47.5625 5.09375 
Q 40.234375 -1.421875 26.90625 -1.421875 
Q 22.3125 -1.421875 17.546875 -0.640625 
Q 12.796875 0.140625 7.71875 1.703125 
L 7.71875 11.625 
Q 12.109375 9.234375 16.796875 8.0625 
Q 21.484375 6.890625 26.703125 6.890625 
Q 35.15625 6.890625 40.078125 11.328125 
Q 45.015625 15.765625 45.015625 23.390625 
Q 45.015625 31 40.078125 35.4375 
Q 35.15625 39.890625 26.703125 39.890625 
Q 22.75 39.890625 18.8125 39.015625 
Q 14.890625 38.140625 10.796875 36.28125 
z
" id="DejaVuSans-35"/>
      </defs>
      <g transform="translate(90.098594 322.182437)scale(0.1 -0.1)">
       <use xlink:href="#DejaVuSans-2212"/>
       <use x="83.789062" xlink:href="#DejaVuSans-37"/>
       <use x="147.412109" xlink:href="#DejaVuSans-2e"/>
       <use x="179.199219" xlink:href="#DejaVuSans-35"/>
      </g>
     </g>
    </g>
    <g id="xtick_3">
     <g id="line2d_3">
      <g>
       <use style="stroke:#000000;stroke-width:0.8;" x="146.88" xlink:href="#m6f797ef844" y="307.584"/>
      </g>
     </g>
     <g id="text_3">
      <!-- −5.0 -->
      <g transform="translate(134.738594 322.182437)scale(0.1 -0.1)">
       <use xlink:href="#DejaVuSans-2212"/>
       <use x="83.789062" xlink:href="#DejaVuSans-35"/>
       <use x="147.412109" xlink:href="#DejaVuSans-2e"/>
       <use x="179.199219" xlink:href="#DejaVuSans-30"/>
      </g>
     </g>
    </g>
    <g id="xtick_4">
     <g id="line2d_4">
      <g>
       <use style="stroke:#000000;stroke-width:0.8;" x="191.52" xlink:href="#m6f797ef844" y="307.584"/>
      </g>
     </g>
     <g id="text_4">
      <!-- −2.5 -->
      <defs>
       <path d="M 19.1875 8.296875 
L 53.609375 8.296875 
L 53.609375 0 
L 7.328125 0 
L 7.328125 8.296875 
Q 12.9375 14.109375 22.625 23.890625 
Q 32.328125 33.6875 34.8125 36.53125 
Q 39.546875 41.84375 41.421875 45.53125 
Q 43.3125 49.21875 43.3125 52.78125 
Q 43.3125 58.59375 39.234375 62.25 
Q 35.15625 65.921875 28.609375 65.921875 
Q 23.96875 65.921875 18.8125 64.3125 
Q 13.671875 62.703125 7.8125 59.421875 
L 7.8125 69.390625 
Q 13.765625 71.78125 18.9375 73 
Q 24.125 74.21875 28.421875 74.21875 
Q 39.75 74.21875 46.484375 68.546875 
Q 53.21875 62.890625 53.21875 53.421875 
Q 53.21875 48.921875 51.53125 44.890625 
Q 49.859375 40.875 45.40625 35.40625 
Q 44.1875 33.984375 37.640625 27.21875 
Q 31.109375 20.453125 19.1875 8.296875 
z
" id="DejaVuSans-32"/>
      </defs>
      <g transform="translate(179.378594 322.182437)scale(0.1 -0.1)">
       <use xlink:href="#DejaVuSans-2212"/>
       <use x="83.789062" xlink:href="#DejaVuSans-32"/>
       <use x="147.412109" xlink:href="#DejaVuSans-2e"/>
       <use x="179.199219" xlink:href="#DejaVuSans-35"/>
      </g>
     </g>
    </g>
    <g id="xtick_5">
     <g id="line2d_5">
      <g>
       <use style="stroke:#000000;stroke-width:0.8;" x="236.16" xlink:href="#m6f797ef844" y="307.584"/>
      </g>
     </g>
     <g id="text_5">
      <!-- 0.0 -->
      <g transform="translate(228.208438 322.182437)scale(0.1 -0.1)">
       <use xlink:href="#DejaVuSans-30"/>
       <use x="63.623047" xlink:href="#DejaVuSans-2e"/>
       <use x="95.410156" xlink:href="#DejaVuSans-30"/>
      </g>
     </g>
    </g>
    <g id="xtick_6">
     <g id="line2d_6">
      <g>
       <use style="stroke:#000000;stroke-width:0.8;" x="280.8" xlink:href="#m6f797ef844" y="307.584"/>
      </g>
     </g>
     <g id="text_6">
      <!-- 2.5 -->
      <g transform="translate(272.848437 322.182437)scale(0.1 -0.1)">
       <use xlink:href="#DejaVuSans-32"/>
       <use x="63.623047" xlink:href="#DejaVuSans-2e"/>
       <use x="95.410156" xlink:href="#DejaVuSans-35"/>
      </g>
     </g>
    </g>
    <g id="xtick_7">
     <g id="line2d_7">
      <g>
       <use style="stroke:#000000;stroke-width:0.8;" x="325.44" xlink:href="#m6f797ef844" y="307.584"/>
      </g>
     </g>
     <g id="text_7">
      <!-- 5.0 -->
      <g transform="translate(317.488437 322.182437)scale(0.1 -0.1)">
       <use xlink:href="#DejaVuSans-35"/>
       <use x="63.623047" xlink:href="#DejaVuSans-2e"/>
       <use x="95.410156" xlink:href="#DejaVuSans-30"/>
      </g>
     </g>
    </g>
    <g id="xtick_8">
     <g id="line2d_8">
      <g>
       <use style="stroke:#000000;stroke-width:0.8;" x="370.08" xlink:href="#m6f797ef844" y="307.584"/>
      </g>
     </g>
     <g id="text_8">
      <!-- 7.5 -->
      <g transform="translate(362.128438 322.182437)scale(0.1 -0.1)">
       <use xlink:href="#DejaVuSans-37"/>
       <use x="63.623047" xlink:href="#DejaVuSans-2e"/>
       <use x="95.410156" xlink:href="#DejaVuSans-35"/>
      </g>
     </g>
    </g>
    <g id="xtick_9">
     <g id="line2d_9">
      <g>
       <use style="stroke:#000000;stroke-width:0.8;" x="414.72" xlink:href="#m6f797ef844" y="307.584"/>
      </g>
     </g>
     <g id="text_9">
      <!-- 10.0 -->
      <g transform="translate(403.587188 322.182437)scale(0.1 -0.1)">
       <use xlink:href="#DejaVuSans-31"/>
       <use x="63.623047" xlink:href="#DejaVuSans-30"/>
       <use x="127.246094" xlink:href="#DejaVuSans-2e"/>
       <use x="159.033203" xlink:href="#DejaVuSans-30"/>
      </g>
     </g>
    </g>
   </g>
   <g id="matplotlib.axis_2">
    <g id="ytick_1">
     <g id="line2d_10">
      <defs>
       <path d="M 0 0 
L -3.5 0 
" id="m80c366fbb0" style="stroke:#000000;stroke-width:0.8;"/>
      </defs>
      <g>
       <use style="stroke:#000000;stroke-width:0.8;" x="57.6" xlink:href="#m80c366fbb0" y="307.584"/>
      </g>
     </g>
     <g id="text_10">
      <!-- −10.0 -->
      <g transform="translate(19.954687 311.383219)scale(0.1 -0.1)">
       <use xlink:href="#DejaVuSans-2212"/>
       <use x="83.789062" xlink:href="#DejaVuSans-31"/>
       <use x="147.412109" xlink:href="#DejaVuSans-30"/>
       <use x="211.035156" xlink:href="#DejaVuSans-2e"/>
       <use x="242.822266" xlink:href="#DejaVuSans-30"/>
      </g>
     </g>
    </g>
    <g id="ytick_2">
     <g id="line2d_11">
      <g>
       <use style="stroke:#000000;stroke-width:0.8;" x="57.6" xlink:href="#m80c366fbb0" y="274.32"/>
      </g>
     </g>
     <g id="text_11">
      <!-- −7.5 -->
      <g transform="translate(26.317187 278.119219)scale(0.1 -0.1)">
       <use xlink:href="#DejaVuSans-2212"/>
       <use x="83.789062" xlink:href="#DejaVuSans-37"/>
       <use x="147.412109" xlink:href="#DejaVuSans-2e"/>
       <use x="179.199219" xlink:href="#DejaVuSans-35"/>
      </g>
     </g>
    </g>
    <g id="ytick_3">
     <g id="line2d_12">
      <g>
       <use style="stroke:#000000;stroke-width:0.8;" x="57.6" xlink:href="#m80c366fbb0" y="241.056"/>
      </g>
     </g>
     <g id="text_12">
      <!-- −5.0 -->
      <g transform="translate(26.317187 244.855219)scale(0.1 -0.1)">
       <use xlink:href="#DejaVuSans-2212"/>
       <use x="83.789062" xlink:href="#DejaVuSans-35"/>
       <use x="147.412109" xlink:href="#DejaVuSans-2e"/>
       <use x="179.199219" xlink:href="#DejaVuSans-30"/>
      </g>
     </g>
    </g>
    <g id="ytick_4">
     <g id="line2d_13">
      <g>
       <use style="stroke:#000000;stroke-width:0.8;" x="57.6" xlink:href="#m80c366fbb0" y="207.792"/>
      </g>
     </g>
     <g id="text_13">
      <!-- −2.5 -->
      <g transform="translate(26.317187 211.591219)scale(0.1 -0.1)">
       <use xlink:href="#DejaVuSans-2212"/>
       <use x="83.789062" xlink:href="#DejaVuSans-32"/>
       <use x="147.412109" xlink:href="#DejaVuSans-2e"/>
       <use x="179.199219" xlink:href="#DejaVuSans-35"/>
      </g>
     </g>
    </g>
    <g id="ytick_5">
     <g id="line2d_14">
      <g>
       <use style="stroke:#000000;stroke-width:0.8;" x="57.6" xlink:href="#m80c366fbb0" y="174.528"/>
      </g>
     </g>
     <g id="text_14">
      <!-- 0.0 -->
      <g transform="translate(34.696875 178.327219)scale(0.1 -0.1)">
       <use xlink:href="#DejaVuSans-30"/>
       <use x="63.623047" xlink:href="#DejaVuSans-2e"/>
       <use x="95.410156" xlink:href="#DejaVuSans-30"/>
      </g>
     </g>
    </g>
    <g id="ytick_6">
     <g id="line2d_15">
      <g>
       <use style="stroke:#000000;stroke-width:0.8;" x="57.6" xlink:href="#m80c366fbb0" y="141.264"/>
      </g>
     </g>
     <g id="text_15">
      <!-- 2.5 -->
      <g transform="translate(34.696875 145.063219)scale(0.1 -0.1)">
       <use xlink:href="#DejaVuSans-32"/>
       <use x="63.623047" xlink:href="#DejaVuSans-2e"/>
       <use x="95.410156" xlink:href="#DejaVuSans-35"/>
      </g>
     </g>
    </g>
    <g id="ytick_7">
     <g id="line2d_16">
      <g>
       <use style="stroke:#000000;stroke-width:0.8;" x="57.6" xlink:href="#m80c366fbb0" y="108"/>
      </g>
     </g>
     <g id="text_16">
      <!-- 5.0 -->
      <g transform="translate(34.696875 111.799219)scale(0.1 -0.1)">
       <use xlink:href="#DejaVuSans-35"/>
       <use x="63.623047" xlink:href="#DejaVuSans-2e"/>
       <use x="95.410156" xlink:href="#DejaVuSans-30"/>
      </g>
     </g>
    </g>
    <g id="ytick_8">
     <g id="line2d_17">
      <g>
       <use style="stroke:#000000;stroke-width:0.8;" x="57.6" xlink:href="#m80c366fbb0" y="74.736"/>
      </g>
     </g>
     <g id="text_17">
      <!-- 7.5 -->
      <g transform="translate(34.696875 78.535219)scale(0.1 -0.1)">
       <use xlink:href="#DejaVuSans-37"/>
       <use x="63.623047" xlink:href="#DejaVuSans-2e"/>
       <use x="95.410156" xlink:href="#DejaVuSans-35"/>
      </g>
     </g>
    </g>
    <g id="ytick_9">
     <g id="line2d_18">
      <g>
       <use style="stroke:#000000;stroke-width:0.8;" x="57.6" xlink:href="#m80c366fbb0" y="41.472"/>
      </g>
     </g>
     <g id="text_18">
      <!-- 10.0 -->
      <g transform="translate(28.334375 45.271219)scale(0.1 -0.1)">
       <use xlink:href="#DejaVuSans-31"/>
       <use x="63.623047" xlink:href="#DejaVuSans-30"/>
       <use x="127.246094" xlink:href="#DejaVuSans-2e"/>
       <use x="159.033203" xlink:href="#DejaVuSans-30"/>
      </g>
     </g>
    </g>
   </g>
   <g id="patch_3">
    <path d="M 57.6 307.584 
L 57.6 41.472 
" style="fill:none;stroke:#000000;stroke-linecap:square;stroke-linejoin:miter;stroke-width:0.8;"/>
   </g>
   <g id="patch_4">
    <path d="M 414.72 307.584 
L 414.72 41.472 
" style="fill:none;stroke:#000000;stroke-linecap:square;stroke-linejoin:miter;stroke-width:0.8;"/>
   </g>
   <g id="patch_5">
    <path d="M 57.6 307.584 
L 414.72 307.584 
" style="fill:none;stroke:#000000;stroke-linecap:square;stroke-linejoin:miter;stroke-width:0.8;"/>
   </g>
   <g id="patch_6">
    <path d="M 57.6 41.472 
L 414.72 41.472 
" style="fill:none;stroke:#000000;stroke-linecap:square;stroke-linejoin:miter;stroke-width:0.8;"/>
   </g>
  </g>
 </g>
 <defs>
  <clipPath id="p4c824f4764">
   <rect height="266.112" width="357.12" x="57.6" y="41.472"/>
  </clipPath>
 </defs>
</svg>
