<?xml version="1.0" encoding="utf-8" standalone="no"?>
<!DOCTYPE svg PUBLIC "-//W3C//DTD SVG 1.1//EN"
  "http://www.w3.org/Graphics/SVG/1.1/DTD/svg11.dtd">
<!-- Created with matplotlib (http://matplotlib.org/) -->
<svg height="345.6pt" version="1.1" viewBox="0 0 460.8 345.6" width="460.8pt" xmlns="http://www.w3.org/2000/svg" xmlns:xlink="http://www.w3.org/1999/xlink">
 <defs>
  <style type="text/css">
*{stroke-linecap:butt;stroke-linejoin:round;}
  </style>
 </defs>
 <g id="figure_1">
  <g id="patch_1">
   <path d="M 0 345.6 
L 460.8 345.6 
L 460.8 0 
L 0 0 
z
" style="fill:#ffffff;"/>
  </g>
  <g id="axes_1">
   <g id="patch_2">
    <path d="M 57.6 307.584 
L 414.72 307.584 
L 414.72 41.472 
L 57.6 41.472 
z
" style="fill:#ffffff;"/>
   </g>
   <g id="PathCollection_1">
    <defs>
     <path d="M 0 0.612372 
C 0.162403 0.612372 0.318176 0.547849 0.433013 0.433013 
C 0.547849 0.318176 0.612372 0.162403 0.612372 0 
C 0.612372 -0.162403 0.547849 -0.318176 0.433013 -0.433013 
C 0.318176 -0.547849 0.162403 -0.612372 0 -0.612372 
C -0.162403 -0.612372 -0.318176 -0.547849 -0.433013 -0.433013 
C -0.547849 -0.318176 -0.612372 -0.162403 -0.612372 0 
C -0.612372 0.162403 -0.547849 0.318176 -0.433013 0.433013 
C -0.318176 0.547849 -0.162403 0.612372 0 0.612372 
z
" id="me9e9de6c69" style="stroke:#000000;"/>
    </defs>
    <g clip-path="url(#pbbc58ac6c6)">
     <use style="stroke:#000000;" x="236.431018" xlink:href="#me9e9de6c69" y="173.744067"/>
     <use style="stroke:#000000;" x="239.802626" xlink:href="#me9e9de6c69" y="172.951065"/>
     <use style="stroke:#000000;" x="237.061963" xlink:href="#me9e9de6c69" y="173.764764"/>
     <use style="stroke:#000000;" x="237.11156" xlink:href="#me9e9de6c69" y="166.609527"/>
     <use style="stroke:#000000;" x="237.332764" xlink:href="#me9e9de6c69" y="174.528"/>
     <use style="stroke:#000000;" x="251.507654" xlink:href="#me9e9de6c69" y="168.930042"/>
     <use style="stroke:#000000;" x="247.822378" xlink:href="#me9e9de6c69" y="167.20382"/>
     <use style="stroke:#000000;" x="240.325824" xlink:href="#me9e9de6c69" y="167.989149"/>
     <use style="stroke:#000000;" x="247.510128" xlink:href="#me9e9de6c69" y="169.440662"/>
     <use style="stroke:#000000;" x="251.158026" xlink:href="#me9e9de6c69" y="169.459484"/>
     <use style="stroke:#000000;" x="237.714078" xlink:href="#me9e9de6c69" y="171.580024"/>
     <use style="stroke:#000000;" x="247.288237" xlink:href="#me9e9de6c69" y="171.782796"/>
     <use style="stroke:#000000;" x="236.853045" xlink:href="#me9e9de6c69" y="170.005188"/>
     <use style="stroke:#000000;" x="239.648265" xlink:href="#me9e9de6c69" y="173.5953"/>
     <use style="stroke:#000000;" x="240.31769" xlink:href="#me9e9de6c69" y="168.864136"/>
     <use style="stroke:#000000;" x="236.16" xlink:href="#me9e9de6c69" y="174.528"/>
     <use style="stroke:#000000;" x="237.512982" xlink:href="#me9e9de6c69" y="173.521957"/>
     <use style="stroke:#000000;" x="243.171915" xlink:href="#me9e9de6c69" y="174.528"/>
     <use style="stroke:#000000;" x="251.571046" xlink:href="#me9e9de6c69" y="172.496979"/>
     <use style="stroke:#000000;" x="243.538727" xlink:href="#me9e9de6c69" y="168.291102"/>
     <use style="stroke:#000000;" x="236.295931" xlink:href="#me9e9de6c69" y="172.872091"/>
     <use style="stroke:#000000;" x="236.400507" xlink:href="#me9e9de6c69" y="171.222217"/>
     <use style="stroke:#000000;" x="243.794366" xlink:href="#me9e9de6c69" y="167.368454"/>
     <use style="stroke:#000000;" x="236.49416" xlink:href="#me9e9de6c69" y="169.776092"/>
     <use style="stroke:#000000;" x="236.536252" xlink:href="#me9e9de6c69" y="171.702412"/>
     <use style="stroke:#000000;" x="239.976658" xlink:href="#me9e9de6c69" y="168.520438"/>
     <use style="stroke:#000000;" x="236.974221" xlink:href="#me9e9de6c69" y="168.486377"/>
     <use style="stroke:#000000;" x="247.76311" xlink:href="#me9e9de6c69" y="168.496463"/>
     <use style="stroke:#000000;" x="247.713115" xlink:href="#me9e9de6c69" y="167.673977"/>
     <use style="stroke:#000000;" x="237.158113" xlink:href="#me9e9de6c69" y="173.22144"/>
     <use style="stroke:#000000;" x="243.606691" xlink:href="#me9e9de6c69" y="169.544182"/>
     <use style="stroke:#000000;" x="240.384886" xlink:href="#me9e9de6c69" y="169.160545"/>
     <use style="stroke:#000000;" x="240.490475" xlink:href="#me9e9de6c69" y="173.230701"/>
     <use style="stroke:#000000;" x="240.343374" xlink:href="#me9e9de6c69" y="168.858553"/>
     <use style="stroke:#000000;" x="247.850944" xlink:href="#me9e9de6c69" y="167.742507"/>
     <use style="stroke:#000000;" x="248.109609" xlink:href="#me9e9de6c69" y="173.456047"/>
     <use style="stroke:#000000;" x="247.877062" xlink:href="#me9e9de6c69" y="171.129844"/>
     <use style="stroke:#000000;" x="250.933129" xlink:href="#me9e9de6c69" y="171.241888"/>
     <use style="stroke:#000000;" x="251.025109" xlink:href="#me9e9de6c69" y="172.044259"/>
     <use style="stroke:#000000;" x="238.059509" xlink:href="#me9e9de6c69" y="174.306464"/>
     <use style="stroke:#000000;" x="251.570906" xlink:href="#me9e9de6c69" y="172.676478"/>
     <use style="stroke:#000000;" x="238.214969" xlink:href="#me9e9de6c69" y="174.421569"/>
     <use style="stroke:#000000;" x="247.327529" xlink:href="#me9e9de6c69" y="161.2224"/>
     <use style="stroke:#000000;" x="237.043081" xlink:href="#me9e9de6c69" y="171.032284"/>
     <use style="stroke:#000000;" x="236.16" xlink:href="#me9e9de6c69" y="171.907552"/>
     <use style="stroke:#000000;" x="243.69868" xlink:href="#me9e9de6c69" y="166.589126"/>
     <use style="stroke:#000000;" x="237.524656" xlink:href="#me9e9de6c69" y="172.392992"/>
     <use style="stroke:#000000;" x="243.691193" xlink:href="#me9e9de6c69" y="170.692616"/>
     <use style="stroke:#000000;" x="243.823861" xlink:href="#me9e9de6c69" y="170.095713"/>
     <use style="stroke:#000000;" x="236.620162" xlink:href="#me9e9de6c69" y="169.089392"/>
     <use style="stroke:#000000;" x="240.171047" xlink:href="#me9e9de6c69" y="169.936663"/>
     <use style="stroke:#000000;" x="236.624243" xlink:href="#me9e9de6c69" y="168.457336"/>
     <use style="stroke:#000000;" x="236.798693" xlink:href="#me9e9de6c69" y="171.699325"/>
     <use style="stroke:#000000;" x="237.021096" xlink:href="#me9e9de6c69" y="168.028238"/>
     <use style="stroke:#000000;" x="247.838955" xlink:href="#me9e9de6c69" y="161.2224"/>
     <use style="stroke:#000000;" x="237.180538" xlink:href="#me9e9de6c69" y="168.069729"/>
     <use style="stroke:#000000;" x="240.701988" xlink:href="#me9e9de6c69" y="172.77706"/>
     <use style="stroke:#000000;" x="240.388624" xlink:href="#me9e9de6c69" y="169.773691"/>
     <use style="stroke:#000000;" x="237.237566" xlink:href="#me9e9de6c69" y="170.426404"/>
     <use style="stroke:#000000;" x="248.092358" xlink:href="#me9e9de6c69" y="170.820048"/>
     <use style="stroke:#000000;" x="236.16" xlink:href="#me9e9de6c69" y="173.229242"/>
     <use style="stroke:#000000;" x="236.323363" xlink:href="#me9e9de6c69" y="174.528"/>
     <use style="stroke:#000000;" x="239.772962" xlink:href="#me9e9de6c69" y="173.620578"/>
     <use style="stroke:#000000;" x="240.75125" xlink:href="#me9e9de6c69" y="174.502761"/>
     <use style="stroke:#000000;" x="240.827846" xlink:href="#me9e9de6c69" y="173.205363"/>
     <use style="stroke:#000000;" x="239.523666" xlink:href="#me9e9de6c69" y="174.528"/>
     <use style="stroke:#000000;" x="236.16" xlink:href="#me9e9de6c69" y="171.956684"/>
     <use style="stroke:#000000;" x="238.836404" xlink:href="#me9e9de6c69" y="167.348013"/>
     <use style="stroke:#000000;" x="236.980464" xlink:href="#me9e9de6c69" y="167.866512"/>
     <use style="stroke:#000000;" x="236.472341" xlink:href="#me9e9de6c69" y="174.020711"/>
     <use style="stroke:#000000;" x="237.072268" xlink:href="#me9e9de6c69" y="172.427368"/>
     <use style="stroke:#000000;" x="254.016" xlink:href="#me9e9de6c69" y="169.030478"/>
     <use style="stroke:#000000;" x="253.513715" xlink:href="#me9e9de6c69" y="167.484209"/>
     <use style="stroke:#000000;" x="250.891507" xlink:href="#me9e9de6c69" y="169.122514"/>
     <use style="stroke:#000000;" x="247.199687" xlink:href="#me9e9de6c69" y="166.137522"/>
     <use style="stroke:#000000;" x="243.989345" xlink:href="#me9e9de6c69" y="165.901958"/>
     <use style="stroke:#000000;" x="247.230921" xlink:href="#me9e9de6c69" y="166.078703"/>
     <use style="stroke:#000000;" x="238.094445" xlink:href="#me9e9de6c69" y="167.846975"/>
     <use style="stroke:#000000;" x="243.87786" xlink:href="#me9e9de6c69" y="167.784757"/>
     <use style="stroke:#000000;" x="240.015348" xlink:href="#me9e9de6c69" y="167.965261"/>
     <use style="stroke:#000000;" x="244.996804" xlink:href="#me9e9de6c69" y="170.7688"/>
     <use style="stroke:#000000;" x="246.599751" xlink:href="#me9e9de6c69" y="169.841549"/>
     <use style="stroke:#000000;" x="247.26433" xlink:href="#me9e9de6c69" y="169.660272"/>
     <use style="stroke:#000000;" x="249.944467" xlink:href="#me9e9de6c69" y="170.140335"/>
     <use style="stroke:#000000;" x="246.075063" xlink:href="#me9e9de6c69" y="167.291859"/>
     <use style="stroke:#000000;" x="252.236649" xlink:href="#me9e9de6c69" y="168.560016"/>
     <use style="stroke:#000000;" x="238.292505" xlink:href="#me9e9de6c69" y="171.4888"/>
     <use style="stroke:#000000;" x="236.326932" xlink:href="#me9e9de6c69" y="171.569156"/>
     <use style="stroke:#000000;" x="239.38709" xlink:href="#me9e9de6c69" y="171.437559"/>
     <use style="stroke:#000000;" x="247.579021" xlink:href="#me9e9de6c69" y="172.871118"/>
     <use style="stroke:#000000;" x="247.249837" xlink:href="#me9e9de6c69" y="171.196813"/>
     <use style="stroke:#000000;" x="249.442313" xlink:href="#me9e9de6c69" y="172.423382"/>
     <use style="stroke:#000000;" x="238.208937" xlink:href="#me9e9de6c69" y="170.838406"/>
     <use style="stroke:#000000;" x="238.876314" xlink:href="#me9e9de6c69" y="169.911288"/>
     <use style="stroke:#000000;" x="236.16" xlink:href="#me9e9de6c69" y="169.934948"/>
     <use style="stroke:#000000;" x="242.056804" xlink:href="#me9e9de6c69" y="174.528"/>
     <use style="stroke:#000000;" x="239.58396" xlink:href="#me9e9de6c69" y="172.668844"/>
     <use style="stroke:#000000;" x="239.870256" xlink:href="#me9e9de6c69" y="170.120981"/>
     <use style="stroke:#000000;" x="240.395005" xlink:href="#me9e9de6c69" y="166.80221"/>
     <use style="stroke:#000000;" x="240.769657" xlink:href="#me9e9de6c69" y="170.382018"/>
     <use style="stroke:#000000;" x="238.93128" xlink:href="#me9e9de6c69" y="170.148224"/>
     <use style="stroke:#000000;" x="236.16" xlink:href="#me9e9de6c69" y="174.528"/>
     <use style="stroke:#000000;" x="236.16" xlink:href="#me9e9de6c69" y="173.396701"/>
     <use style="stroke:#000000;" x="237.09015" xlink:href="#me9e9de6c69" y="173.691139"/>
     <use style="stroke:#000000;" x="236.16" xlink:href="#me9e9de6c69" y="172.322437"/>
     <use style="stroke:#000000;" x="237.905837" xlink:href="#me9e9de6c69" y="172.640985"/>
     <use style="stroke:#000000;" x="238.712322" xlink:href="#me9e9de6c69" y="173.649959"/>
     <use style="stroke:#000000;" x="243.028259" xlink:href="#me9e9de6c69" y="173.464434"/>
     <use style="stroke:#000000;" x="244.016649" xlink:href="#me9e9de6c69" y="174.528"/>
     <use style="stroke:#000000;" x="245.867899" xlink:href="#me9e9de6c69" y="173.626949"/>
     <use style="stroke:#000000;" x="247.733297" xlink:href="#me9e9de6c69" y="171.996291"/>
     <use style="stroke:#000000;" x="251.858035" xlink:href="#me9e9de6c69" y="171.34924"/>
     <use style="stroke:#000000;" x="253.535042" xlink:href="#me9e9de6c69" y="172.374033"/>
     <use style="stroke:#000000;" x="243.543729" xlink:href="#me9e9de6c69" y="168.200011"/>
     <use style="stroke:#000000;" x="244.78519" xlink:href="#me9e9de6c69" y="166.149943"/>
     <use style="stroke:#000000;" x="243.299172" xlink:href="#me9e9de6c69" y="169.094048"/>
     <use style="stroke:#000000;" x="237.8685" xlink:href="#me9e9de6c69" y="171.230122"/>
     <use style="stroke:#000000;" x="236.16" xlink:href="#me9e9de6c69" y="173.229521"/>
     <use style="stroke:#000000;" x="237.358301" xlink:href="#me9e9de6c69" y="173.335929"/>
     <use style="stroke:#000000;" x="239.914986" xlink:href="#me9e9de6c69" y="170.414181"/>
     <use style="stroke:#000000;" x="236.857786" xlink:href="#me9e9de6c69" y="171.329384"/>
     <use style="stroke:#000000;" x="237.197215" xlink:href="#me9e9de6c69" y="172.963038"/>
     <use style="stroke:#000000;" x="242.420024" xlink:href="#me9e9de6c69" y="167.456188"/>
     <use style="stroke:#000000;" x="244.834913" xlink:href="#me9e9de6c69" y="165.382784"/>
     <use style="stroke:#000000;" x="247.542809" xlink:href="#me9e9de6c69" y="169.181558"/>
     <use style="stroke:#000000;" x="236.16" xlink:href="#me9e9de6c69" y="170.830426"/>
     <use style="stroke:#000000;" x="236.16" xlink:href="#me9e9de6c69" y="168.664094"/>
     <use style="stroke:#000000;" x="236.16" xlink:href="#me9e9de6c69" y="167.75349"/>
     <use style="stroke:#000000;" x="236.636837" xlink:href="#me9e9de6c69" y="168.57545"/>
     <use style="stroke:#000000;" x="236.68567" xlink:href="#me9e9de6c69" y="172.84398"/>
     <use style="stroke:#000000;" x="236.955458" xlink:href="#me9e9de6c69" y="173.620201"/>
     <use style="stroke:#000000;" x="245.808276" xlink:href="#me9e9de6c69" y="167.077175"/>
     <use style="stroke:#000000;" x="241.072454" xlink:href="#me9e9de6c69" y="166.620965"/>
     <use style="stroke:#000000;" x="238.440601" xlink:href="#me9e9de6c69" y="170.979098"/>
     <use style="stroke:#000000;" x="238.878189" xlink:href="#me9e9de6c69" y="171.222755"/>
     <use style="stroke:#000000;" x="248.480156" xlink:href="#me9e9de6c69" y="171.643648"/>
     <use style="stroke:#000000;" x="247.809266" xlink:href="#me9e9de6c69" y="169.741085"/>
     <use style="stroke:#000000;" x="249.790244" xlink:href="#me9e9de6c69" y="166.580643"/>
     <use style="stroke:#000000;" x="248.27982" xlink:href="#me9e9de6c69" y="167.180628"/>
     <use style="stroke:#000000;" x="236.16" xlink:href="#me9e9de6c69" y="174.528"/>
     <use style="stroke:#000000;" x="243.686325" xlink:href="#me9e9de6c69" y="169.182101"/>
     <use style="stroke:#000000;" x="243.703438" xlink:href="#me9e9de6c69" y="169.919361"/>
     <use style="stroke:#000000;" x="236.16" xlink:href="#me9e9de6c69" y="171.025879"/>
     <use style="stroke:#000000;" x="238.107855" xlink:href="#me9e9de6c69" y="168.570052"/>
     <use style="stroke:#000000;" x="238.483831" xlink:href="#me9e9de6c69" y="174.528"/>
     <use style="stroke:#000000;" x="236.16" xlink:href="#me9e9de6c69" y="173.177784"/>
     <use style="stroke:#000000;" x="239.299709" xlink:href="#me9e9de6c69" y="166.865086"/>
     <use style="stroke:#000000;" x="237.362403" xlink:href="#me9e9de6c69" y="169.313287"/>
     <use style="stroke:#000000;" x="246.75897" xlink:href="#me9e9de6c69" y="165.600656"/>
     <use style="stroke:#000000;" x="245.818322" xlink:href="#me9e9de6c69" y="174.090085"/>
     <use style="stroke:#000000;" x="248.555826" xlink:href="#me9e9de6c69" y="170.59745"/>
     <use style="stroke:#000000;" x="249.885428" xlink:href="#me9e9de6c69" y="172.774114"/>
     <use style="stroke:#000000;" x="250.581368" xlink:href="#me9e9de6c69" y="170.812545"/>
     <use style="stroke:#000000;" x="236.285379" xlink:href="#me9e9de6c69" y="174.528"/>
     <use style="stroke:#000000;" x="251.1873" xlink:href="#me9e9de6c69" y="172.378805"/>
     <use style="stroke:#000000;" x="238.250649" xlink:href="#me9e9de6c69" y="171.2787"/>
     <use style="stroke:#000000;" x="247.894919" xlink:href="#me9e9de6c69" y="163.887458"/>
     <use style="stroke:#000000;" x="248.284203" xlink:href="#me9e9de6c69" y="161.2224"/>
     <use style="stroke:#000000;" x="236.16" xlink:href="#me9e9de6c69" y="169.896703"/>
     <use style="stroke:#000000;" x="236.16" xlink:href="#me9e9de6c69" y="171.58571"/>
     <use style="stroke:#000000;" x="236.16" xlink:href="#me9e9de6c69" y="171.796668"/>
     <use style="stroke:#000000;" x="236.16" xlink:href="#me9e9de6c69" y="172.679247"/>
     <use style="stroke:#000000;" x="242.647206" xlink:href="#me9e9de6c69" y="168.804134"/>
     <use style="stroke:#000000;" x="246.477471" xlink:href="#me9e9de6c69" y="166.302466"/>
     <use style="stroke:#000000;" x="241.632478" xlink:href="#me9e9de6c69" y="171.522256"/>
     <use style="stroke:#000000;" x="237.083287" xlink:href="#me9e9de6c69" y="173.594549"/>
     <use style="stroke:#000000;" x="241.090398" xlink:href="#me9e9de6c69" y="168.367867"/>
     <use style="stroke:#000000;" x="243.759168" xlink:href="#me9e9de6c69" y="171.285785"/>
     <use style="stroke:#000000;" x="242.610401" xlink:href="#me9e9de6c69" y="168.838612"/>
     <use style="stroke:#000000;" x="245.737854" xlink:href="#me9e9de6c69" y="168.242284"/>
     <use style="stroke:#000000;" x="241.673337" xlink:href="#me9e9de6c69" y="171.511366"/>
     <use style="stroke:#000000;" x="242.43795" xlink:href="#me9e9de6c69" y="171.094364"/>
     <use style="stroke:#000000;" x="236.16" xlink:href="#me9e9de6c69" y="169.350942"/>
     <use style="stroke:#000000;" x="236.16" xlink:href="#me9e9de6c69" y="172.857002"/>
     <use style="stroke:#000000;" x="238.376986" xlink:href="#me9e9de6c69" y="168.040332"/>
     <use style="stroke:#000000;" x="246.102173" xlink:href="#me9e9de6c69" y="161.2224"/>
     <use style="stroke:#000000;" x="238.141354" xlink:href="#me9e9de6c69" y="167.730855"/>
     <use style="stroke:#000000;" x="243.365104" xlink:href="#me9e9de6c69" y="174.528"/>
     <use style="stroke:#000000;" x="239.943932" xlink:href="#me9e9de6c69" y="167.988027"/>
     <use style="stroke:#000000;" x="241.759572" xlink:href="#me9e9de6c69" y="171.030648"/>
     <use style="stroke:#000000;" x="248.171275" xlink:href="#me9e9de6c69" y="169.686342"/>
    </g>
   </g>
   <g id="PathCollection_2">
    <defs>
     <path d="M 0 0.935414 
C 0.248075 0.935414 0.486022 0.836853 0.661438 0.661438 
C 0.836853 0.486022 0.935414 0.248075 0.935414 0 
C 0.935414 -0.248075 0.836853 -0.486022 0.661438 -0.661438 
C 0.486022 -0.836853 0.248075 -0.935414 0 -0.935414 
C -0.248075 -0.935414 -0.486022 -0.836853 -0.661438 -0.661438 
C -0.836853 -0.486022 -0.935414 -0.248075 -0.935414 0 
C -0.935414 0.248075 -0.836853 0.486022 -0.661438 0.661438 
C -0.486022 0.836853 -0.248075 0.935414 0 0.935414 
z
" id="m134048b21c" style="stroke:#0000ff;"/>
    </defs>
    <g clip-path="url(#pbbc58ac6c6)">
     <use style="fill:#0000ff;stroke:#0000ff;" x="236.431018" xlink:href="#m134048b21c" y="173.744067"/>
     <use style="fill:#0000ff;stroke:#0000ff;" x="239.802626" xlink:href="#m134048b21c" y="172.951065"/>
     <use style="fill:#0000ff;stroke:#0000ff;" x="237.061963" xlink:href="#m134048b21c" y="173.764764"/>
     <use style="fill:#0000ff;stroke:#0000ff;" x="237.11156" xlink:href="#m134048b21c" y="166.609527"/>
     <use style="fill:#0000ff;stroke:#0000ff;" x="237.332764" xlink:href="#m134048b21c" y="174.528"/>
     <use style="fill:#0000ff;stroke:#0000ff;" x="251.507654" xlink:href="#m134048b21c" y="168.930042"/>
     <use style="fill:#0000ff;stroke:#0000ff;" x="247.822378" xlink:href="#m134048b21c" y="167.20382"/>
     <use style="fill:#0000ff;stroke:#0000ff;" x="240.325824" xlink:href="#m134048b21c" y="167.989149"/>
     <use style="fill:#0000ff;stroke:#0000ff;" x="247.510128" xlink:href="#m134048b21c" y="169.440662"/>
     <use style="fill:#0000ff;stroke:#0000ff;" x="251.158026" xlink:href="#m134048b21c" y="169.459484"/>
     <use style="fill:#0000ff;stroke:#0000ff;" x="237.714078" xlink:href="#m134048b21c" y="171.580024"/>
     <use style="fill:#0000ff;stroke:#0000ff;" x="247.288237" xlink:href="#m134048b21c" y="171.782796"/>
     <use style="fill:#0000ff;stroke:#0000ff;" x="236.853045" xlink:href="#m134048b21c" y="170.005188"/>
     <use style="fill:#0000ff;stroke:#0000ff;" x="239.648265" xlink:href="#m134048b21c" y="173.5953"/>
     <use style="fill:#0000ff;stroke:#0000ff;" x="240.31769" xlink:href="#m134048b21c" y="168.864136"/>
     <use style="fill:#0000ff;stroke:#0000ff;" x="236.16" xlink:href="#m134048b21c" y="174.528"/>
     <use style="fill:#0000ff;stroke:#0000ff;" x="237.512982" xlink:href="#m134048b21c" y="173.521957"/>
     <use style="fill:#0000ff;stroke:#0000ff;" x="243.171915" xlink:href="#m134048b21c" y="174.528"/>
     <use style="fill:#0000ff;stroke:#0000ff;" x="251.571046" xlink:href="#m134048b21c" y="172.496979"/>
     <use style="fill:#0000ff;stroke:#0000ff;" x="243.538727" xlink:href="#m134048b21c" y="168.291102"/>
     <use style="fill:#0000ff;stroke:#0000ff;" x="236.295931" xlink:href="#m134048b21c" y="172.872091"/>
     <use style="fill:#0000ff;stroke:#0000ff;" x="236.400507" xlink:href="#m134048b21c" y="171.222217"/>
     <use style="fill:#0000ff;stroke:#0000ff;" x="243.794366" xlink:href="#m134048b21c" y="167.368454"/>
     <use style="fill:#0000ff;stroke:#0000ff;" x="236.49416" xlink:href="#m134048b21c" y="169.776092"/>
     <use style="fill:#0000ff;stroke:#0000ff;" x="236.536252" xlink:href="#m134048b21c" y="171.702412"/>
     <use style="fill:#0000ff;stroke:#0000ff;" x="239.976658" xlink:href="#m134048b21c" y="168.520438"/>
     <use style="fill:#0000ff;stroke:#0000ff;" x="236.974221" xlink:href="#m134048b21c" y="168.486377"/>
     <use style="fill:#0000ff;stroke:#0000ff;" x="247.76311" xlink:href="#m134048b21c" y="168.496463"/>
     <use style="fill:#0000ff;stroke:#0000ff;" x="247.713115" xlink:href="#m134048b21c" y="167.673977"/>
     <use style="fill:#0000ff;stroke:#0000ff;" x="237.158113" xlink:href="#m134048b21c" y="173.22144"/>
     <use style="fill:#0000ff;stroke:#0000ff;" x="243.606691" xlink:href="#m134048b21c" y="169.544182"/>
     <use style="fill:#0000ff;stroke:#0000ff;" x="240.384886" xlink:href="#m134048b21c" y="169.160545"/>
     <use style="fill:#0000ff;stroke:#0000ff;" x="240.490475" xlink:href="#m134048b21c" y="173.230701"/>
     <use style="fill:#0000ff;stroke:#0000ff;" x="240.343374" xlink:href="#m134048b21c" y="168.858553"/>
     <use style="fill:#0000ff;stroke:#0000ff;" x="247.850944" xlink:href="#m134048b21c" y="167.742507"/>
     <use style="fill:#0000ff;stroke:#0000ff;" x="248.109609" xlink:href="#m134048b21c" y="173.456047"/>
     <use style="fill:#0000ff;stroke:#0000ff;" x="247.877062" xlink:href="#m134048b21c" y="171.129844"/>
     <use style="fill:#0000ff;stroke:#0000ff;" x="250.933129" xlink:href="#m134048b21c" y="171.241888"/>
     <use style="fill:#0000ff;stroke:#0000ff;" x="251.025109" xlink:href="#m134048b21c" y="172.044259"/>
     <use style="fill:#0000ff;stroke:#0000ff;" x="238.059509" xlink:href="#m134048b21c" y="174.306464"/>
     <use style="fill:#0000ff;stroke:#0000ff;" x="251.570906" xlink:href="#m134048b21c" y="172.676478"/>
     <use style="fill:#0000ff;stroke:#0000ff;" x="238.214969" xlink:href="#m134048b21c" y="174.421569"/>
     <use style="fill:#0000ff;stroke:#0000ff;" x="247.327529" xlink:href="#m134048b21c" y="161.2224"/>
     <use style="fill:#0000ff;stroke:#0000ff;" x="237.043081" xlink:href="#m134048b21c" y="171.032284"/>
     <use style="fill:#0000ff;stroke:#0000ff;" x="236.16" xlink:href="#m134048b21c" y="171.907552"/>
     <use style="fill:#0000ff;stroke:#0000ff;" x="243.69868" xlink:href="#m134048b21c" y="166.589126"/>
     <use style="fill:#0000ff;stroke:#0000ff;" x="237.524656" xlink:href="#m134048b21c" y="172.392992"/>
     <use style="fill:#0000ff;stroke:#0000ff;" x="243.691193" xlink:href="#m134048b21c" y="170.692616"/>
     <use style="fill:#0000ff;stroke:#0000ff;" x="243.823861" xlink:href="#m134048b21c" y="170.095713"/>
     <use style="fill:#0000ff;stroke:#0000ff;" x="236.620162" xlink:href="#m134048b21c" y="169.089392"/>
     <use style="fill:#0000ff;stroke:#0000ff;" x="240.171047" xlink:href="#m134048b21c" y="169.936663"/>
     <use style="fill:#0000ff;stroke:#0000ff;" x="236.624243" xlink:href="#m134048b21c" y="168.457336"/>
     <use style="fill:#0000ff;stroke:#0000ff;" x="236.798693" xlink:href="#m134048b21c" y="171.699325"/>
     <use style="fill:#0000ff;stroke:#0000ff;" x="237.021096" xlink:href="#m134048b21c" y="168.028238"/>
     <use style="fill:#0000ff;stroke:#0000ff;" x="247.838955" xlink:href="#m134048b21c" y="161.2224"/>
     <use style="fill:#0000ff;stroke:#0000ff;" x="237.180538" xlink:href="#m134048b21c" y="168.069729"/>
     <use style="fill:#0000ff;stroke:#0000ff;" x="240.701988" xlink:href="#m134048b21c" y="172.77706"/>
     <use style="fill:#0000ff;stroke:#0000ff;" x="240.388624" xlink:href="#m134048b21c" y="169.773691"/>
     <use style="fill:#0000ff;stroke:#0000ff;" x="237.237566" xlink:href="#m134048b21c" y="170.426404"/>
     <use style="fill:#0000ff;stroke:#0000ff;" x="248.092358" xlink:href="#m134048b21c" y="170.820048"/>
    </g>
   </g>
   <g id="matplotlib.axis_1">
    <g id="xtick_1">
     <g id="line2d_1">
      <defs>
       <path d="M 0 0 
L 0 3.5 
" id="md04af771f1" style="stroke:#000000;stroke-width:0.8;"/>
      </defs>
      <g>
       <use style="stroke:#000000;stroke-width:0.8;" x="57.6" xlink:href="#md04af771f1" y="307.584"/>
      </g>
     </g>
     <g id="text_1">
      <!-- −10.0 -->
      <defs>
       <path d="M 10.59375 35.5 
L 73.1875 35.5 
L 73.1875 27.203125 
L 10.59375 27.203125 
z
" id="DejaVuSans-2212"/>
       <path d="M 12.40625 8.296875 
L 28.515625 8.296875 
L 28.515625 63.921875 
L 10.984375 60.40625 
L 10.984375 69.390625 
L 28.421875 72.90625 
L 38.28125 72.90625 
L 38.28125 8.296875 
L 54.390625 8.296875 
L 54.390625 0 
L 12.40625 0 
z
" id="DejaVuSans-31"/>
       <path d="M 31.78125 66.40625 
Q 24.171875 66.40625 20.328125 58.90625 
Q 16.5 51.421875 16.5 36.375 
Q 16.5 21.390625 20.328125 13.890625 
Q 24.171875 6.390625 31.78125 6.390625 
Q 39.453125 6.390625 43.28125 13.890625 
Q 47.125 21.390625 47.125 36.375 
Q 47.125 51.421875 43.28125 58.90625 
Q 39.453125 66.40625 31.78125 66.40625 
z
M 31.78125 74.21875 
Q 44.046875 74.21875 50.515625 64.515625 
Q 56.984375 54.828125 56.984375 36.375 
Q 56.984375 17.96875 50.515625 8.265625 
Q 44.046875 -1.421875 31.78125 -1.421875 
Q 19.53125 -1.421875 13.0625 8.265625 
Q 6.59375 17.96875 6.59375 36.375 
Q 6.59375 54.828125 13.0625 64.515625 
Q 19.53125 74.21875 31.78125 74.21875 
z
" id="DejaVuSans-30"/>
       <path d="M 10.6875 12.40625 
L 21 12.40625 
L 21 0 
L 10.6875 0 
z
" id="DejaVuSans-2e"/>
      </defs>
      <g transform="translate(42.277344 322.182437)scale(0.1 -0.1)">
       <use xlink:href="#DejaVuSans-2212"/>
       <use x="83.789062" xlink:href="#DejaVuSans-31"/>
       <use x="147.412109" xlink:href="#DejaVuSans-30"/>
       <use x="211.035156" xlink:href="#DejaVuSans-2e"/>
       <use x="242.822266" xlink:href="#DejaVuSans-30"/>
      </g>
     </g>
    </g>
    <g id="xtick_2">
     <g id="line2d_2">
      <g>
       <use style="stroke:#000000;stroke-width:0.8;" x="102.24" xlink:href="#md04af771f1" y="307.584"/>
      </g>
     </g>
     <g id="text_2">
      <!-- −7.5 -->
      <defs>
       <path d="M 8.203125 72.90625 
L 55.078125 72.90625 
L 55.078125 68.703125 
L 28.609375 0 
L 18.3125 0 
L 43.21875 64.59375 
L 8.203125 64.59375 
z
" id="DejaVuSans-37"/>
       <path d="M 10.796875 72.90625 
L 49.515625 72.90625 
L 49.515625 64.59375 
L 19.828125 64.59375 
L 19.828125 46.734375 
Q 21.96875 47.46875 24.109375 47.828125 
Q 26.265625 48.1875 28.421875 48.1875 
Q 40.625 48.1875 47.75 41.5 
Q 54.890625 34.8125 54.890625 23.390625 
Q 54.890625 11.625 47.5625 5.09375 
Q 40.234375 -1.421875 26.90625 -1.421875 
Q 22.3125 -1.421875 17.546875 -0.640625 
Q 12.796875 0.140625 7.71875 1.703125 
L 7.71875 11.625 
Q 12.109375 9.234375 16.796875 8.0625 
Q 21.484375 6.890625 26.703125 6.890625 
Q 35.15625 6.890625 40.078125 11.328125 
Q 45.015625 15.765625 45.015625 23.390625 
Q 45.015625 31 40.078125 35.4375 
Q 35.15625 39.890625 26.703125 39.890625 
Q 22.75 39.890625 18.8125 39.015625 
Q 14.890625 38.140625 10.796875 36.28125 
z
" id="DejaVuSans-35"/>
      </defs>
      <g transform="translate(90.098594 322.182437)scale(0.1 -0.1)">
       <use xlink:href="#DejaVuSans-2212"/>
       <use x="83.789062" xlink:href="#DejaVuSans-37"/>
       <use x="147.412109" xlink:href="#DejaVuSans-2e"/>
       <use x="179.199219" xlink:href="#DejaVuSans-35"/>
      </g>
     </g>
    </g>
    <g id="xtick_3">
     <g id="line2d_3">
      <g>
       <use style="stroke:#000000;stroke-width:0.8;" x="146.88" xlink:href="#md04af771f1" y="307.584"/>
      </g>
     </g>
     <g id="text_3">
      <!-- −5.0 -->
      <g transform="translate(134.738594 322.182437)scale(0.1 -0.1)">
       <use xlink:href="#DejaVuSans-2212"/>
       <use x="83.789062" xlink:href="#DejaVuSans-35"/>
       <use x="147.412109" xlink:href="#DejaVuSans-2e"/>
       <use x="179.199219" xlink:href="#DejaVuSans-30"/>
      </g>
     </g>
    </g>
    <g id="xtick_4">
     <g id="line2d_4">
      <g>
       <use style="stroke:#000000;stroke-width:0.8;" x="191.52" xlink:href="#md04af771f1" y="307.584"/>
      </g>
     </g>
     <g id="text_4">
      <!-- −2.5 -->
      <defs>
       <path d="M 19.1875 8.296875 
L 53.609375 8.296875 
L 53.609375 0 
L 7.328125 0 
L 7.328125 8.296875 
Q 12.9375 14.109375 22.625 23.890625 
Q 32.328125 33.6875 34.8125 36.53125 
Q 39.546875 41.84375 41.421875 45.53125 
Q 43.3125 49.21875 43.3125 52.78125 
Q 43.3125 58.59375 39.234375 62.25 
Q 35.15625 65.921875 28.609375 65.921875 
Q 23.96875 65.921875 18.8125 64.3125 
Q 13.671875 62.703125 7.8125 59.421875 
L 7.8125 69.390625 
Q 13.765625 71.78125 18.9375 73 
Q 24.125 74.21875 28.421875 74.21875 
Q 39.75 74.21875 46.484375 68.546875 
Q 53.21875 62.890625 53.21875 53.421875 
Q 53.21875 48.921875 51.53125 44.890625 
Q 49.859375 40.875 45.40625 35.40625 
Q 44.1875 33.984375 37.640625 27.21875 
Q 31.109375 20.453125 19.1875 8.296875 
z
" id="DejaVuSans-32"/>
      </defs>
      <g transform="translate(179.378594 322.182437)scale(0.1 -0.1)">
       <use xlink:href="#DejaVuSans-2212"/>
       <use x="83.789062" xlink:href="#DejaVuSans-32"/>
       <use x="147.412109" xlink:href="#DejaVuSans-2e"/>
       <use x="179.199219" xlink:href="#DejaVuSans-35"/>
      </g>
     </g>
    </g>
    <g id="xtick_5">
     <g id="line2d_5">
      <g>
       <use style="stroke:#000000;stroke-width:0.8;" x="236.16" xlink:href="#md04af771f1" y="307.584"/>
      </g>
     </g>
     <g id="text_5">
      <!-- 0.0 -->
      <g transform="translate(228.208438 322.182437)scale(0.1 -0.1)">
       <use xlink:href="#DejaVuSans-30"/>
       <use x="63.623047" xlink:href="#DejaVuSans-2e"/>
       <use x="95.410156" xlink:href="#DejaVuSans-30"/>
      </g>
     </g>
    </g>
    <g id="xtick_6">
     <g id="line2d_6">
      <g>
       <use style="stroke:#000000;stroke-width:0.8;" x="280.8" xlink:href="#md04af771f1" y="307.584"/>
      </g>
     </g>
     <g id="text_6">
      <!-- 2.5 -->
      <g transform="translate(272.848437 322.182437)scale(0.1 -0.1)">
       <use xlink:href="#DejaVuSans-32"/>
       <use x="63.623047" xlink:href="#DejaVuSans-2e"/>
       <use x="95.410156" xlink:href="#DejaVuSans-35"/>
      </g>
     </g>
    </g>
    <g id="xtick_7">
     <g id="line2d_7">
      <g>
       <use style="stroke:#000000;stroke-width:0.8;" x="325.44" xlink:href="#md04af771f1" y="307.584"/>
      </g>
     </g>
     <g id="text_7">
      <!-- 5.0 -->
      <g transform="translate(317.488437 322.182437)scale(0.1 -0.1)">
       <use xlink:href="#DejaVuSans-35"/>
       <use x="63.623047" xlink:href="#DejaVuSans-2e"/>
       <use x="95.410156" xlink:href="#DejaVuSans-30"/>
      </g>
     </g>
    </g>
    <g id="xtick_8">
     <g id="line2d_8">
      <g>
       <use style="stroke:#000000;stroke-width:0.8;" x="370.08" xlink:href="#md04af771f1" y="307.584"/>
      </g>
     </g>
     <g id="text_8">
      <!-- 7.5 -->
      <g transform="translate(362.128438 322.182437)scale(0.1 -0.1)">
       <use xlink:href="#DejaVuSans-37"/>
       <use x="63.623047" xlink:href="#DejaVuSans-2e"/>
       <use x="95.410156" xlink:href="#DejaVuSans-35"/>
      </g>
     </g>
    </g>
    <g id="xtick_9">
     <g id="line2d_9">
      <g>
       <use style="stroke:#000000;stroke-width:0.8;" x="414.72" xlink:href="#md04af771f1" y="307.584"/>
      </g>
     </g>
     <g id="text_9">
      <!-- 10.0 -->
      <g transform="translate(403.587188 322.182437)scale(0.1 -0.1)">
       <use xlink:href="#DejaVuSans-31"/>
       <use x="63.623047" xlink:href="#DejaVuSans-30"/>
       <use x="127.246094" xlink:href="#DejaVuSans-2e"/>
       <use x="159.033203" xlink:href="#DejaVuSans-30"/>
      </g>
     </g>
    </g>
   </g>
   <g id="matplotlib.axis_2">
    <g id="ytick_1">
     <g id="line2d_10">
      <defs>
       <path d="M 0 0 
L -3.5 0 
" id="m6785d4c48a" style="stroke:#000000;stroke-width:0.8;"/>
      </defs>
      <g>
       <use style="stroke:#000000;stroke-width:0.8;" x="57.6" xlink:href="#m6785d4c48a" y="307.584"/>
      </g>
     </g>
     <g id="text_10">
      <!-- −10.0 -->
      <g transform="translate(19.954687 311.383219)scale(0.1 -0.1)">
       <use xlink:href="#DejaVuSans-2212"/>
       <use x="83.789062" xlink:href="#DejaVuSans-31"/>
       <use x="147.412109" xlink:href="#DejaVuSans-30"/>
       <use x="211.035156" xlink:href="#DejaVuSans-2e"/>
       <use x="242.822266" xlink:href="#DejaVuSans-30"/>
      </g>
     </g>
    </g>
    <g id="ytick_2">
     <g id="line2d_11">
      <g>
       <use style="stroke:#000000;stroke-width:0.8;" x="57.6" xlink:href="#m6785d4c48a" y="274.32"/>
      </g>
     </g>
     <g id="text_11">
      <!-- −7.5 -->
      <g transform="translate(26.317187 278.119219)scale(0.1 -0.1)">
       <use xlink:href="#DejaVuSans-2212"/>
       <use x="83.789062" xlink:href="#DejaVuSans-37"/>
       <use x="147.412109" xlink:href="#DejaVuSans-2e"/>
       <use x="179.199219" xlink:href="#DejaVuSans-35"/>
      </g>
     </g>
    </g>
    <g id="ytick_3">
     <g id="line2d_12">
      <g>
       <use style="stroke:#000000;stroke-width:0.8;" x="57.6" xlink:href="#m6785d4c48a" y="241.056"/>
      </g>
     </g>
     <g id="text_12">
      <!-- −5.0 -->
      <g transform="translate(26.317187 244.855219)scale(0.1 -0.1)">
       <use xlink:href="#DejaVuSans-2212"/>
       <use x="83.789062" xlink:href="#DejaVuSans-35"/>
       <use x="147.412109" xlink:href="#DejaVuSans-2e"/>
       <use x="179.199219" xlink:href="#DejaVuSans-30"/>
      </g>
     </g>
    </g>
    <g id="ytick_4">
     <g id="line2d_13">
      <g>
       <use style="stroke:#000000;stroke-width:0.8;" x="57.6" xlink:href="#m6785d4c48a" y="207.792"/>
      </g>
     </g>
     <g id="text_13">
      <!-- −2.5 -->
      <g transform="translate(26.317187 211.591219)scale(0.1 -0.1)">
       <use xlink:href="#DejaVuSans-2212"/>
       <use x="83.789062" xlink:href="#DejaVuSans-32"/>
       <use x="147.412109" xlink:href="#DejaVuSans-2e"/>
       <use x="179.199219" xlink:href="#DejaVuSans-35"/>
      </g>
     </g>
    </g>
    <g id="ytick_5">
     <g id="line2d_14">
      <g>
       <use style="stroke:#000000;stroke-width:0.8;" x="57.6" xlink:href="#m6785d4c48a" y="174.528"/>
      </g>
     </g>
     <g id="text_14">
      <!-- 0.0 -->
      <g transform="translate(34.696875 178.327219)scale(0.1 -0.1)">
       <use xlink:href="#DejaVuSans-30"/>
       <use x="63.623047" xlink:href="#DejaVuSans-2e"/>
       <use x="95.410156" xlink:href="#DejaVuSans-30"/>
      </g>
     </g>
    </g>
    <g id="ytick_6">
     <g id="line2d_15">
      <g>
       <use style="stroke:#000000;stroke-width:0.8;" x="57.6" xlink:href="#m6785d4c48a" y="141.264"/>
      </g>
     </g>
     <g id="text_15">
      <!-- 2.5 -->
      <g transform="translate(34.696875 145.063219)scale(0.1 -0.1)">
       <use xlink:href="#DejaVuSans-32"/>
       <use x="63.623047" xlink:href="#DejaVuSans-2e"/>
       <use x="95.410156" xlink:href="#DejaVuSans-35"/>
      </g>
     </g>
    </g>
    <g id="ytick_7">
     <g id="line2d_16">
      <g>
       <use style="stroke:#000000;stroke-width:0.8;" x="57.6" xlink:href="#m6785d4c48a" y="108"/>
      </g>
     </g>
     <g id="text_16">
      <!-- 5.0 -->
      <g transform="translate(34.696875 111.799219)scale(0.1 -0.1)">
       <use xlink:href="#DejaVuSans-35"/>
       <use x="63.623047" xlink:href="#DejaVuSans-2e"/>
       <use x="95.410156" xlink:href="#DejaVuSans-30"/>
      </g>
     </g>
    </g>
    <g id="ytick_8">
     <g id="line2d_17">
      <g>
       <use style="stroke:#000000;stroke-width:0.8;" x="57.6" xlink:href="#m6785d4c48a" y="74.736"/>
      </g>
     </g>
     <g id="text_17">
      <!-- 7.5 -->
      <g transform="translate(34.696875 78.535219)scale(0.1 -0.1)">
       <use xlink:href="#DejaVuSans-37"/>
       <use x="63.623047" xlink:href="#DejaVuSans-2e"/>
       <use x="95.410156" xlink:href="#DejaVuSans-35"/>
      </g>
     </g>
    </g>
    <g id="ytick_9">
     <g id="line2d_18">
      <g>
       <use style="stroke:#000000;stroke-width:0.8;" x="57.6" xlink:href="#m6785d4c48a" y="41.472"/>
      </g>
     </g>
     <g id="text_18">
      <!-- 10.0 -->
      <g transform="translate(28.334375 45.271219)scale(0.1 -0.1)">
       <use xlink:href="#DejaVuSans-31"/>
       <use x="63.623047" xlink:href="#DejaVuSans-30"/>
       <use x="127.246094" xlink:href="#DejaVuSans-2e"/>
       <use x="159.033203" xlink:href="#DejaVuSans-30"/>
      </g>
     </g>
    </g>
   </g>
   <g id="patch_3">
    <path d="M 57.6 307.584 
L 57.6 41.472 
" style="fill:none;stroke:#000000;stroke-linecap:square;stroke-linejoin:miter;stroke-width:0.8;"/>
   </g>
   <g id="patch_4">
    <path d="M 414.72 307.584 
L 414.72 41.472 
" style="fill:none;stroke:#000000;stroke-linecap:square;stroke-linejoin:miter;stroke-width:0.8;"/>
   </g>
   <g id="patch_5">
    <path d="M 57.6 307.584 
L 414.72 307.584 
" style="fill:none;stroke:#000000;stroke-linecap:square;stroke-linejoin:miter;stroke-width:0.8;"/>
   </g>
   <g id="patch_6">
    <path d="M 57.6 41.472 
L 414.72 41.472 
" style="fill:none;stroke:#000000;stroke-linecap:square;stroke-linejoin:miter;stroke-width:0.8;"/>
   </g>
  </g>
 </g>
 <defs>
  <clipPath id="pbbc58ac6c6">
   <rect height="266.112" width="357.12" x="57.6" y="41.472"/>
  </clipPath>
 </defs>
</svg>
