<?xml version="1.0" encoding="utf-8" standalone="no"?>
<!DOCTYPE svg PUBLIC "-//W3C//DTD SVG 1.1//EN"
  "http://www.w3.org/Graphics/SVG/1.1/DTD/svg11.dtd">
<!-- Created with matplotlib (http://matplotlib.org/) -->
<svg height="345.6pt" version="1.1" viewBox="0 0 460.8 345.6" width="460.8pt" xmlns="http://www.w3.org/2000/svg" xmlns:xlink="http://www.w3.org/1999/xlink">
 <defs>
  <style type="text/css">
*{stroke-linecap:butt;stroke-linejoin:round;}
  </style>
 </defs>
 <g id="figure_1">
  <g id="patch_1">
   <path d="M 0 345.6 
L 460.8 345.6 
L 460.8 0 
L 0 0 
z
" style="fill:#ffffff;"/>
  </g>
  <g id="axes_1">
   <g id="patch_2">
    <path d="M 57.6 307.584 
L 414.72 307.584 
L 414.72 41.472 
L 57.6 41.472 
z
" style="fill:#ffffff;"/>
   </g>
   <g id="PathCollection_1">
    <defs>
     <path d="M 0 0.612372 
C 0.162403 0.612372 0.318176 0.547849 0.433013 0.433013 
C 0.547849 0.318176 0.612372 0.162403 0.612372 0 
C 0.612372 -0.162403 0.547849 -0.318176 0.433013 -0.433013 
C 0.318176 -0.547849 0.162403 -0.612372 0 -0.612372 
C -0.162403 -0.612372 -0.318176 -0.547849 -0.433013 -0.433013 
C -0.547849 -0.318176 -0.612372 -0.162403 -0.612372 0 
C -0.612372 0.162403 -0.547849 0.318176 -0.433013 0.433013 
C -0.318176 0.547849 -0.162403 0.612372 0 0.612372 
z
" id="me76a500202" style="stroke:#000000;"/>
    </defs>
    <g clip-path="url(#pa2f69ce1c5)">
     <use style="stroke:#000000;" x="240.11505" xlink:href="#me76a500202" y="173.525525"/>
     <use style="stroke:#000000;" x="243.667545" xlink:href="#me76a500202" y="171.342674"/>
     <use style="stroke:#000000;" x="236.16" xlink:href="#me76a500202" y="171.947544"/>
     <use style="stroke:#000000;" x="236.85571" xlink:href="#me76a500202" y="173.272462"/>
     <use style="stroke:#000000;" x="251.374983" xlink:href="#me76a500202" y="172.585352"/>
     <use style="stroke:#000000;" x="239.497108" xlink:href="#me76a500202" y="174.528"/>
     <use style="stroke:#000000;" x="247.569959" xlink:href="#me76a500202" y="174.528"/>
     <use style="stroke:#000000;" x="239.700181" xlink:href="#me76a500202" y="174.528"/>
     <use style="stroke:#000000;" x="243.792713" xlink:href="#me76a500202" y="174.293243"/>
     <use style="stroke:#000000;" x="236.675789" xlink:href="#me76a500202" y="173.757322"/>
     <use style="stroke:#000000;" x="237.760029" xlink:href="#me76a500202" y="174.528"/>
     <use style="stroke:#000000;" x="236.922892" xlink:href="#me76a500202" y="172.415713"/>
     <use style="stroke:#000000;" x="243.449277" xlink:href="#me76a500202" y="171.21083"/>
     <use style="stroke:#000000;" x="236.933668" xlink:href="#me76a500202" y="174.117058"/>
     <use style="stroke:#000000;" x="241.077274" xlink:href="#me76a500202" y="174.209909"/>
     <use style="stroke:#000000;" x="236.372464" xlink:href="#me76a500202" y="173.839204"/>
     <use style="stroke:#000000;" x="243.557217" xlink:href="#me76a500202" y="174.334915"/>
     <use style="stroke:#000000;" x="237.012548" xlink:href="#me76a500202" y="173.962602"/>
     <use style="stroke:#000000;" x="244.00653" xlink:href="#me76a500202" y="173.167233"/>
     <use style="stroke:#000000;" x="240.02398" xlink:href="#me76a500202" y="173.959622"/>
     <use style="stroke:#000000;" x="240.432114" xlink:href="#me76a500202" y="172.187649"/>
     <use style="stroke:#000000;" x="243.788839" xlink:href="#me76a500202" y="174.528"/>
     <use style="stroke:#000000;" x="243.276591" xlink:href="#me76a500202" y="174.528"/>
     <use style="stroke:#000000;" x="240.081515" xlink:href="#me76a500202" y="172.615345"/>
     <use style="stroke:#000000;" x="240.129642" xlink:href="#me76a500202" y="170.786381"/>
     <use style="stroke:#000000;" x="236.16" xlink:href="#me76a500202" y="172.66194"/>
     <use style="stroke:#000000;" x="251.418245" xlink:href="#me76a500202" y="173.404189"/>
     <use style="stroke:#000000;" x="247.652131" xlink:href="#me76a500202" y="173.399814"/>
     <use style="stroke:#000000;" x="247.749435" xlink:href="#me76a500202" y="174.528"/>
     <use style="stroke:#000000;" x="243.731783" xlink:href="#me76a500202" y="172.588434"/>
     <use style="stroke:#000000;" x="239.714723" xlink:href="#me76a500202" y="172.836541"/>
     <use style="stroke:#000000;" x="251.151222" xlink:href="#me76a500202" y="174.11614"/>
     <use style="stroke:#000000;" x="251.358046" xlink:href="#me76a500202" y="173.373938"/>
     <use style="stroke:#000000;" x="243.822257" xlink:href="#me76a500202" y="172.200322"/>
     <use style="stroke:#000000;" x="251.32976" xlink:href="#me76a500202" y="165.887583"/>
     <use style="stroke:#000000;" x="244.101481" xlink:href="#me76a500202" y="173.489001"/>
     <use style="stroke:#000000;" x="236.737207" xlink:href="#me76a500202" y="171.865642"/>
     <use style="stroke:#000000;" x="237.990187" xlink:href="#me76a500202" y="171.049864"/>
     <use style="stroke:#000000;" x="237.930265" xlink:href="#me76a500202" y="172.151752"/>
     <use style="stroke:#000000;" x="239.214301" xlink:href="#me76a500202" y="174.528"/>
     <use style="stroke:#000000;" x="237.40082" xlink:href="#me76a500202" y="174.528"/>
     <use style="stroke:#000000;" x="237.074571" xlink:href="#me76a500202" y="171.771633"/>
     <use style="stroke:#000000;" x="237.109474" xlink:href="#me76a500202" y="174.528"/>
     <use style="stroke:#000000;" x="237.475033" xlink:href="#me76a500202" y="173.160101"/>
     <use style="stroke:#000000;" x="244.379476" xlink:href="#me76a500202" y="174.528"/>
     <use style="stroke:#000000;" x="237.39258" xlink:href="#me76a500202" y="170.206099"/>
     <use style="stroke:#000000;" x="244.477497" xlink:href="#me76a500202" y="173.742983"/>
     <use style="stroke:#000000;" x="247.28426" xlink:href="#me76a500202" y="174.528"/>
     <use style="stroke:#000000;" x="240.620771" xlink:href="#me76a500202" y="174.01999"/>
     <use style="stroke:#000000;" x="247.498505" xlink:href="#me76a500202" y="174.528"/>
     <use style="stroke:#000000;" x="240.256252" xlink:href="#me76a500202" y="174.528"/>
     <use style="stroke:#000000;" x="240.147432" xlink:href="#me76a500202" y="174.528"/>
     <use style="stroke:#000000;" x="239.978883" xlink:href="#me76a500202" y="174.528"/>
     <use style="stroke:#000000;" x="240.24198" xlink:href="#me76a500202" y="174.528"/>
     <use style="stroke:#000000;" x="243.57729" xlink:href="#me76a500202" y="172.286813"/>
     <use style="stroke:#000000;" x="240.489033" xlink:href="#me76a500202" y="174.528"/>
     <use style="stroke:#000000;" x="236.16" xlink:href="#me76a500202" y="174.528"/>
     <use style="stroke:#000000;" x="243.800721" xlink:href="#me76a500202" y="170.476207"/>
     <use style="stroke:#000000;" x="236.228948" xlink:href="#me76a500202" y="170.246163"/>
     <use style="stroke:#000000;" x="236.949981" xlink:href="#me76a500202" y="174.528"/>
     <use style="stroke:#000000;" x="251.892274" xlink:href="#me76a500202" y="172.484441"/>
     <use style="stroke:#000000;" x="250.79746" xlink:href="#me76a500202" y="173.917769"/>
     <use style="stroke:#000000;" x="247.761316" xlink:href="#me76a500202" y="174.528"/>
     <use style="stroke:#000000;" x="247.723889" xlink:href="#me76a500202" y="174.454716"/>
     <use style="stroke:#000000;" x="244.272018" xlink:href="#me76a500202" y="172.222861"/>
     <use style="stroke:#000000;" x="251.037819" xlink:href="#me76a500202" y="171.996206"/>
     <use style="stroke:#000000;" x="243.960588" xlink:href="#me76a500202" y="173.319509"/>
     <use style="stroke:#000000;" x="243.825425" xlink:href="#me76a500202" y="173.400353"/>
     <use style="stroke:#000000;" x="244.043506" xlink:href="#me76a500202" y="174.528"/>
     <use style="stroke:#000000;" x="244.091142" xlink:href="#me76a500202" y="169.997984"/>
     <use style="stroke:#000000;" x="237.073798" xlink:href="#me76a500202" y="172.860106"/>
     <use style="stroke:#000000;" x="237.003535" xlink:href="#me76a500202" y="173.471782"/>
     <use style="stroke:#000000;" x="239.235566" xlink:href="#me76a500202" y="173.608225"/>
     <use style="stroke:#000000;" x="239.329144" xlink:href="#me76a500202" y="172.999374"/>
     <use style="stroke:#000000;" x="239.513868" xlink:href="#me76a500202" y="174.528"/>
     <use style="stroke:#000000;" x="237.961277" xlink:href="#me76a500202" y="174.112667"/>
     <use style="stroke:#000000;" x="237.601082" xlink:href="#me76a500202" y="171.178389"/>
     <use style="stroke:#000000;" x="237.816172" xlink:href="#me76a500202" y="173.465506"/>
     <use style="stroke:#000000;" x="237.452713" xlink:href="#me76a500202" y="172.455491"/>
     <use style="stroke:#000000;" x="237.165336" xlink:href="#me76a500202" y="172.465352"/>
     <use style="stroke:#000000;" x="237.003721" xlink:href="#me76a500202" y="174.528"/>
     <use style="stroke:#000000;" x="241.171442" xlink:href="#me76a500202" y="173.752566"/>
     <use style="stroke:#000000;" x="242.724826" xlink:href="#me76a500202" y="174.528"/>
     <use style="stroke:#000000;" x="241.294452" xlink:href="#me76a500202" y="172.52964"/>
     <use style="stroke:#000000;" x="241.128753" xlink:href="#me76a500202" y="172.038357"/>
     <use style="stroke:#000000;" x="246.502743" xlink:href="#me76a500202" y="168.76495"/>
     <use style="stroke:#000000;" x="243.861555" xlink:href="#me76a500202" y="170.626028"/>
     <use style="stroke:#000000;" x="236.474762" xlink:href="#me76a500202" y="172.321839"/>
     <use style="stroke:#000000;" x="238.681819" xlink:href="#me76a500202" y="170.765898"/>
     <use style="stroke:#000000;" x="236.267944" xlink:href="#me76a500202" y="169.813381"/>
     <use style="stroke:#000000;" x="237.157071" xlink:href="#me76a500202" y="173.661795"/>
     <use style="stroke:#000000;" x="236.777181" xlink:href="#me76a500202" y="171.004675"/>
     <use style="stroke:#000000;" x="239.293383" xlink:href="#me76a500202" y="172.368672"/>
     <use style="stroke:#000000;" x="249.438163" xlink:href="#me76a500202" y="172.624715"/>
     <use style="stroke:#000000;" x="251.846056" xlink:href="#me76a500202" y="173.031022"/>
     <use style="stroke:#000000;" x="250.955336" xlink:href="#me76a500202" y="172.472119"/>
     <use style="stroke:#000000;" x="243.058176" xlink:href="#me76a500202" y="173.123776"/>
     <use style="stroke:#000000;" x="241.025188" xlink:href="#me76a500202" y="174.528"/>
     <use style="stroke:#000000;" x="239.23049" xlink:href="#me76a500202" y="174.528"/>
     <use style="stroke:#000000;" x="248.333286" xlink:href="#me76a500202" y="174.528"/>
     <use style="stroke:#000000;" x="247.893924" xlink:href="#me76a500202" y="174.528"/>
     <use style="stroke:#000000;" x="247.849493" xlink:href="#me76a500202" y="173.393751"/>
     <use style="stroke:#000000;" x="239.480909" xlink:href="#me76a500202" y="174.528"/>
     <use style="stroke:#000000;" x="240.476774" xlink:href="#me76a500202" y="174.528"/>
     <use style="stroke:#000000;" x="238.563445" xlink:href="#me76a500202" y="174.528"/>
     <use style="stroke:#000000;" x="246.471372" xlink:href="#me76a500202" y="172.415457"/>
     <use style="stroke:#000000;" x="244.289079" xlink:href="#me76a500202" y="174.001051"/>
     <use style="stroke:#000000;" x="246.038523" xlink:href="#me76a500202" y="172.215178"/>
     <use style="stroke:#000000;" x="236.610447" xlink:href="#me76a500202" y="174.280586"/>
     <use style="stroke:#000000;" x="237.080227" xlink:href="#me76a500202" y="172.978909"/>
     <use style="stroke:#000000;" x="237.387628" xlink:href="#me76a500202" y="173.366502"/>
     <use style="stroke:#000000;" x="236.16" xlink:href="#me76a500202" y="174.287302"/>
     <use style="stroke:#000000;" x="236.694174" xlink:href="#me76a500202" y="174.205965"/>
     <use style="stroke:#000000;" x="238.858048" xlink:href="#me76a500202" y="174.528"/>
     <use style="stroke:#000000;" x="240.223826" xlink:href="#me76a500202" y="173.453077"/>
     <use style="stroke:#000000;" x="236.16" xlink:href="#me76a500202" y="173.856995"/>
     <use style="stroke:#000000;" x="236.16" xlink:href="#me76a500202" y="172.812857"/>
     <use style="stroke:#000000;" x="242.021974" xlink:href="#me76a500202" y="170.525726"/>
     <use style="stroke:#000000;" x="243.71033" xlink:href="#me76a500202" y="170.101706"/>
     <use style="stroke:#000000;" x="245.538131" xlink:href="#me76a500202" y="170.837891"/>
     <use style="stroke:#000000;" x="238.32161" xlink:href="#me76a500202" y="174.220001"/>
     <use style="stroke:#000000;" x="238.561923" xlink:href="#me76a500202" y="174.528"/>
     <use style="stroke:#000000;" x="236.97088" xlink:href="#me76a500202" y="174.528"/>
     <use style="stroke:#000000;" x="241.029206" xlink:href="#me76a500202" y="173.221743"/>
     <use style="stroke:#000000;" x="241.71846" xlink:href="#me76a500202" y="173.705164"/>
     <use style="stroke:#000000;" x="240.634826" xlink:href="#me76a500202" y="173.896358"/>
     <use style="stroke:#000000;" x="239.420499" xlink:href="#me76a500202" y="173.105019"/>
     <use style="stroke:#000000;" x="236.497995" xlink:href="#me76a500202" y="173.582272"/>
     <use style="stroke:#000000;" x="238.4644" xlink:href="#me76a500202" y="172.38838"/>
     <use style="stroke:#000000;" x="243.082248" xlink:href="#me76a500202" y="172.398842"/>
     <use style="stroke:#000000;" x="240.634094" xlink:href="#me76a500202" y="174.528"/>
     <use style="stroke:#000000;" x="243.398565" xlink:href="#me76a500202" y="173.644678"/>
     <use style="stroke:#000000;" x="238.11703" xlink:href="#me76a500202" y="173.896008"/>
     <use style="stroke:#000000;" x="237.139002" xlink:href="#me76a500202" y="174.528"/>
     <use style="stroke:#000000;" x="236.16" xlink:href="#me76a500202" y="174.528"/>
     <use style="stroke:#000000;" x="246.34319" xlink:href="#me76a500202" y="174.182615"/>
     <use style="stroke:#000000;" x="243.326646" xlink:href="#me76a500202" y="172.408902"/>
     <use style="stroke:#000000;" x="243.207252" xlink:href="#me76a500202" y="172.017188"/>
     <use style="stroke:#000000;" x="237.531965" xlink:href="#me76a500202" y="174.528"/>
     <use style="stroke:#000000;" x="241.774553" xlink:href="#me76a500202" y="173.853315"/>
     <use style="stroke:#000000;" x="238.932224" xlink:href="#me76a500202" y="172.884653"/>
     <use style="stroke:#000000;" x="240.572992" xlink:href="#me76a500202" y="173.675949"/>
     <use style="stroke:#000000;" x="240.809599" xlink:href="#me76a500202" y="169.860733"/>
     <use style="stroke:#000000;" x="238.899982" xlink:href="#me76a500202" y="172.324002"/>
     <use style="stroke:#000000;" x="240.954314" xlink:href="#me76a500202" y="174.168648"/>
     <use style="stroke:#000000;" x="245.384071" xlink:href="#me76a500202" y="174.528"/>
     <use style="stroke:#000000;" x="244.758989" xlink:href="#me76a500202" y="173.214183"/>
     <use style="stroke:#000000;" x="241.908991" xlink:href="#me76a500202" y="174.528"/>
     <use style="stroke:#000000;" x="246.550805" xlink:href="#me76a500202" y="174.528"/>
     <use style="stroke:#000000;" x="243.25474" xlink:href="#me76a500202" y="173.71604"/>
     <use style="stroke:#000000;" x="240.148513" xlink:href="#me76a500202" y="171.738921"/>
     <use style="stroke:#000000;" x="243.261628" xlink:href="#me76a500202" y="171.613352"/>
     <use style="stroke:#000000;" x="239.416084" xlink:href="#me76a500202" y="168.697711"/>
     <use style="stroke:#000000;" x="237.1331" xlink:href="#me76a500202" y="170.489613"/>
     <use style="stroke:#000000;" x="236.16" xlink:href="#me76a500202" y="172.656711"/>
     <use style="stroke:#000000;" x="236.16" xlink:href="#me76a500202" y="171.518345"/>
     <use style="stroke:#000000;" x="249.798089" xlink:href="#me76a500202" y="174.528"/>
     <use style="stroke:#000000;" x="252.586742" xlink:href="#me76a500202" y="172.337127"/>
     <use style="stroke:#000000;" x="247.285787" xlink:href="#me76a500202" y="174.528"/>
     <use style="stroke:#000000;" x="248.147212" xlink:href="#me76a500202" y="173.712543"/>
     <use style="stroke:#000000;" x="249.580148" xlink:href="#me76a500202" y="174.121119"/>
     <use style="stroke:#000000;" x="246.916094" xlink:href="#me76a500202" y="174.528"/>
     <use style="stroke:#000000;" x="249.175412" xlink:href="#me76a500202" y="172.625532"/>
     <use style="stroke:#000000;" x="246.447376" xlink:href="#me76a500202" y="172.818393"/>
     <use style="stroke:#000000;" x="241.456891" xlink:href="#me76a500202" y="174.501689"/>
     <use style="stroke:#000000;" x="238.302703" xlink:href="#me76a500202" y="174.528"/>
     <use style="stroke:#000000;" x="251.947317" xlink:href="#me76a500202" y="173.003842"/>
     <use style="stroke:#000000;" x="250.337613" xlink:href="#me76a500202" y="171.71776"/>
     <use style="stroke:#000000;" x="249.895507" xlink:href="#me76a500202" y="173.113761"/>
     <use style="stroke:#000000;" x="252.748362" xlink:href="#me76a500202" y="173.251699"/>
     <use style="stroke:#000000;" x="244.845705" xlink:href="#me76a500202" y="174.245027"/>
     <use style="stroke:#000000;" x="244.477385" xlink:href="#me76a500202" y="172.741306"/>
     <use style="stroke:#000000;" x="252.789201" xlink:href="#me76a500202" y="165.758468"/>
     <use style="stroke:#000000;" x="248.748866" xlink:href="#me76a500202" y="166.342787"/>
     <use style="stroke:#000000;" x="243.89434" xlink:href="#me76a500202" y="172.15689"/>
     <use style="stroke:#000000;" x="243.43178" xlink:href="#me76a500202" y="172.08832"/>
     <use style="stroke:#000000;" x="237.006764" xlink:href="#me76a500202" y="174.300248"/>
     <use style="stroke:#000000;" x="239.123871" xlink:href="#me76a500202" y="171.052906"/>
     <use style="stroke:#000000;" x="237.272073" xlink:href="#me76a500202" y="168.871898"/>
     <use style="stroke:#000000;" x="237.593095" xlink:href="#me76a500202" y="173.310009"/>
     <use style="stroke:#000000;" x="237.994634" xlink:href="#me76a500202" y="173.340486"/>
     <use style="stroke:#000000;" x="236.560085" xlink:href="#me76a500202" y="172.788929"/>
     <use style="stroke:#000000;" x="241.739184" xlink:href="#me76a500202" y="170.473205"/>
     <use style="stroke:#000000;" x="244.605509" xlink:href="#me76a500202" y="174.528"/>
     <use style="stroke:#000000;" x="239.532446" xlink:href="#me76a500202" y="174.528"/>
     <use style="stroke:#000000;" x="236.16" xlink:href="#me76a500202" y="174.528"/>
     <use style="stroke:#000000;" x="237.017856" xlink:href="#me76a500202" y="171.20442"/>
     <use style="stroke:#000000;" x="237.205538" xlink:href="#me76a500202" y="170.61566"/>
     <use style="stroke:#000000;" x="236.16" xlink:href="#me76a500202" y="171.684388"/>
     <use style="stroke:#000000;" x="239.637934" xlink:href="#me76a500202" y="174.423451"/>
     <use style="stroke:#000000;" x="237.775312" xlink:href="#me76a500202" y="174.492202"/>
     <use style="stroke:#000000;" x="242.541228" xlink:href="#me76a500202" y="172.433433"/>
     <use style="stroke:#000000;" x="239.851961" xlink:href="#me76a500202" y="173.639139"/>
     <use style="stroke:#000000;" x="243.92862" xlink:href="#me76a500202" y="174.528"/>
     <use style="stroke:#000000;" x="241.39536" xlink:href="#me76a500202" y="174.528"/>
     <use style="stroke:#000000;" x="246.150619" xlink:href="#me76a500202" y="174.419833"/>
     <use style="stroke:#000000;" x="239.873701" xlink:href="#me76a500202" y="172.411398"/>
     <use style="stroke:#000000;" x="238.389061" xlink:href="#me76a500202" y="170.153693"/>
     <use style="stroke:#000000;" x="243.29125" xlink:href="#me76a500202" y="174.528"/>
     <use style="stroke:#000000;" x="244.421963" xlink:href="#me76a500202" y="174.528"/>
     <use style="stroke:#000000;" x="245.420085" xlink:href="#me76a500202" y="172.161219"/>
     <use style="stroke:#000000;" x="249.905021" xlink:href="#me76a500202" y="174.065936"/>
     <use style="stroke:#000000;" x="249.837017" xlink:href="#me76a500202" y="173.389068"/>
     <use style="stroke:#000000;" x="245.956252" xlink:href="#me76a500202" y="172.846113"/>
     <use style="stroke:#000000;" x="238.608724" xlink:href="#me76a500202" y="171.363831"/>
     <use style="stroke:#000000;" x="248.447349" xlink:href="#me76a500202" y="173.654159"/>
     <use style="stroke:#000000;" x="250.876026" xlink:href="#me76a500202" y="172.549339"/>
     <use style="stroke:#000000;" x="239.385688" xlink:href="#me76a500202" y="174.361967"/>
     <use style="stroke:#000000;" x="241.357025" xlink:href="#me76a500202" y="174.528"/>
     <use style="stroke:#000000;" x="240.708974" xlink:href="#me76a500202" y="172.981792"/>
     <use style="stroke:#000000;" x="236.85209" xlink:href="#me76a500202" y="173.357409"/>
     <use style="stroke:#000000;" x="236.224749" xlink:href="#me76a500202" y="174.528"/>
     <use style="stroke:#000000;" x="242.334408" xlink:href="#me76a500202" y="174.528"/>
     <use style="stroke:#000000;" x="245.758103" xlink:href="#me76a500202" y="170.667359"/>
     <use style="stroke:#000000;" x="240.408218" xlink:href="#me76a500202" y="174.528"/>
     <use style="stroke:#000000;" x="239.096125" xlink:href="#me76a500202" y="174.528"/>
     <use style="stroke:#000000;" x="236.16" xlink:href="#me76a500202" y="173.865114"/>
     <use style="stroke:#000000;" x="243.418517" xlink:href="#me76a500202" y="170.540982"/>
     <use style="stroke:#000000;" x="236.951659" xlink:href="#me76a500202" y="172.095817"/>
     <use style="stroke:#000000;" x="238.126166" xlink:href="#me76a500202" y="174.528"/>
     <use style="stroke:#000000;" x="254.016" xlink:href="#me76a500202" y="173.145556"/>
     <use style="stroke:#000000;" x="252.972559" xlink:href="#me76a500202" y="172.181232"/>
     <use style="stroke:#000000;" x="249.349393" xlink:href="#me76a500202" y="174.326385"/>
     <use style="stroke:#000000;" x="248.826246" xlink:href="#me76a500202" y="174.528"/>
     <use style="stroke:#000000;" x="245.316286" xlink:href="#me76a500202" y="172.510092"/>
     <use style="stroke:#000000;" x="251.209893" xlink:href="#me76a500202" y="174.528"/>
     <use style="stroke:#000000;" x="243.772753" xlink:href="#me76a500202" y="174.348647"/>
     <use style="stroke:#000000;" x="245.75765" xlink:href="#me76a500202" y="171.075411"/>
     <use style="stroke:#000000;" x="245.180437" xlink:href="#me76a500202" y="174.288483"/>
     <use style="stroke:#000000;" x="243.693753" xlink:href="#me76a500202" y="173.316244"/>
     <use style="stroke:#000000;" x="241.588758" xlink:href="#me76a500202" y="168.435865"/>
     <use style="stroke:#000000;" x="237.598596" xlink:href="#me76a500202" y="172.788478"/>
     <use style="stroke:#000000;" x="239.85634" xlink:href="#me76a500202" y="174.528"/>
     <use style="stroke:#000000;" x="239.582603" xlink:href="#me76a500202" y="172.152959"/>
     <use style="stroke:#000000;" x="244.291095" xlink:href="#me76a500202" y="173.105669"/>
     <use style="stroke:#000000;" x="240.455024" xlink:href="#me76a500202" y="172.499501"/>
     <use style="stroke:#000000;" x="238.099463" xlink:href="#me76a500202" y="174.528"/>
     <use style="stroke:#000000;" x="237.53636" xlink:href="#me76a500202" y="170.45831"/>
     <use style="stroke:#000000;" x="236.740981" xlink:href="#me76a500202" y="172.232952"/>
     <use style="stroke:#000000;" x="238.992411" xlink:href="#me76a500202" y="171.624301"/>
     <use style="stroke:#000000;" x="239.124273" xlink:href="#me76a500202" y="172.974242"/>
    </g>
   </g>
   <g id="PathCollection_2">
    <defs>
     <path d="M 0 0.935414 
C 0.248075 0.935414 0.486022 0.836853 0.661438 0.661438 
C 0.836853 0.486022 0.935414 0.248075 0.935414 0 
C 0.935414 -0.248075 0.836853 -0.486022 0.661438 -0.661438 
C 0.486022 -0.836853 0.248075 -0.935414 0 -0.935414 
C -0.248075 -0.935414 -0.486022 -0.836853 -0.661438 -0.661438 
C -0.836853 -0.486022 -0.935414 -0.248075 -0.935414 0 
C -0.935414 0.248075 -0.836853 0.486022 -0.661438 0.661438 
C -0.486022 0.836853 -0.248075 0.935414 0 0.935414 
z
" id="mbd40002cc0" style="stroke:#0000ff;"/>
    </defs>
    <g clip-path="url(#pa2f69ce1c5)">
     <use style="fill:#0000ff;stroke:#0000ff;" x="240.11505" xlink:href="#mbd40002cc0" y="173.525525"/>
     <use style="fill:#0000ff;stroke:#0000ff;" x="243.667545" xlink:href="#mbd40002cc0" y="171.342674"/>
     <use style="fill:#0000ff;stroke:#0000ff;" x="236.16" xlink:href="#mbd40002cc0" y="171.947544"/>
     <use style="fill:#0000ff;stroke:#0000ff;" x="236.85571" xlink:href="#mbd40002cc0" y="173.272462"/>
     <use style="fill:#0000ff;stroke:#0000ff;" x="251.374983" xlink:href="#mbd40002cc0" y="172.585352"/>
     <use style="fill:#0000ff;stroke:#0000ff;" x="239.497108" xlink:href="#mbd40002cc0" y="174.528"/>
     <use style="fill:#0000ff;stroke:#0000ff;" x="247.569959" xlink:href="#mbd40002cc0" y="174.528"/>
     <use style="fill:#0000ff;stroke:#0000ff;" x="239.700181" xlink:href="#mbd40002cc0" y="174.528"/>
     <use style="fill:#0000ff;stroke:#0000ff;" x="243.792713" xlink:href="#mbd40002cc0" y="174.293243"/>
     <use style="fill:#0000ff;stroke:#0000ff;" x="236.675789" xlink:href="#mbd40002cc0" y="173.757322"/>
     <use style="fill:#0000ff;stroke:#0000ff;" x="237.760029" xlink:href="#mbd40002cc0" y="174.528"/>
     <use style="fill:#0000ff;stroke:#0000ff;" x="236.922892" xlink:href="#mbd40002cc0" y="172.415713"/>
     <use style="fill:#0000ff;stroke:#0000ff;" x="243.449277" xlink:href="#mbd40002cc0" y="171.21083"/>
     <use style="fill:#0000ff;stroke:#0000ff;" x="236.933668" xlink:href="#mbd40002cc0" y="174.117058"/>
     <use style="fill:#0000ff;stroke:#0000ff;" x="241.077274" xlink:href="#mbd40002cc0" y="174.209909"/>
     <use style="fill:#0000ff;stroke:#0000ff;" x="236.372464" xlink:href="#mbd40002cc0" y="173.839204"/>
     <use style="fill:#0000ff;stroke:#0000ff;" x="243.557217" xlink:href="#mbd40002cc0" y="174.334915"/>
     <use style="fill:#0000ff;stroke:#0000ff;" x="237.012548" xlink:href="#mbd40002cc0" y="173.962602"/>
     <use style="fill:#0000ff;stroke:#0000ff;" x="244.00653" xlink:href="#mbd40002cc0" y="173.167233"/>
     <use style="fill:#0000ff;stroke:#0000ff;" x="240.02398" xlink:href="#mbd40002cc0" y="173.959622"/>
     <use style="fill:#0000ff;stroke:#0000ff;" x="240.432114" xlink:href="#mbd40002cc0" y="172.187649"/>
     <use style="fill:#0000ff;stroke:#0000ff;" x="243.788839" xlink:href="#mbd40002cc0" y="174.528"/>
     <use style="fill:#0000ff;stroke:#0000ff;" x="243.276591" xlink:href="#mbd40002cc0" y="174.528"/>
     <use style="fill:#0000ff;stroke:#0000ff;" x="240.081515" xlink:href="#mbd40002cc0" y="172.615345"/>
     <use style="fill:#0000ff;stroke:#0000ff;" x="240.129642" xlink:href="#mbd40002cc0" y="170.786381"/>
     <use style="fill:#0000ff;stroke:#0000ff;" x="236.16" xlink:href="#mbd40002cc0" y="172.66194"/>
     <use style="fill:#0000ff;stroke:#0000ff;" x="251.418245" xlink:href="#mbd40002cc0" y="173.404189"/>
     <use style="fill:#0000ff;stroke:#0000ff;" x="247.652131" xlink:href="#mbd40002cc0" y="173.399814"/>
     <use style="fill:#0000ff;stroke:#0000ff;" x="247.749435" xlink:href="#mbd40002cc0" y="174.528"/>
     <use style="fill:#0000ff;stroke:#0000ff;" x="243.731783" xlink:href="#mbd40002cc0" y="172.588434"/>
     <use style="fill:#0000ff;stroke:#0000ff;" x="239.714723" xlink:href="#mbd40002cc0" y="172.836541"/>
     <use style="fill:#0000ff;stroke:#0000ff;" x="251.151222" xlink:href="#mbd40002cc0" y="174.11614"/>
     <use style="fill:#0000ff;stroke:#0000ff;" x="251.358046" xlink:href="#mbd40002cc0" y="173.373938"/>
     <use style="fill:#0000ff;stroke:#0000ff;" x="243.822257" xlink:href="#mbd40002cc0" y="172.200322"/>
     <use style="fill:#0000ff;stroke:#0000ff;" x="251.32976" xlink:href="#mbd40002cc0" y="165.887583"/>
     <use style="fill:#0000ff;stroke:#0000ff;" x="244.101481" xlink:href="#mbd40002cc0" y="173.489001"/>
     <use style="fill:#0000ff;stroke:#0000ff;" x="236.737207" xlink:href="#mbd40002cc0" y="171.865642"/>
     <use style="fill:#0000ff;stroke:#0000ff;" x="237.990187" xlink:href="#mbd40002cc0" y="171.049864"/>
     <use style="fill:#0000ff;stroke:#0000ff;" x="237.930265" xlink:href="#mbd40002cc0" y="172.151752"/>
     <use style="fill:#0000ff;stroke:#0000ff;" x="239.214301" xlink:href="#mbd40002cc0" y="174.528"/>
     <use style="fill:#0000ff;stroke:#0000ff;" x="237.40082" xlink:href="#mbd40002cc0" y="174.528"/>
     <use style="fill:#0000ff;stroke:#0000ff;" x="237.074571" xlink:href="#mbd40002cc0" y="171.771633"/>
     <use style="fill:#0000ff;stroke:#0000ff;" x="237.109474" xlink:href="#mbd40002cc0" y="174.528"/>
     <use style="fill:#0000ff;stroke:#0000ff;" x="237.475033" xlink:href="#mbd40002cc0" y="173.160101"/>
     <use style="fill:#0000ff;stroke:#0000ff;" x="244.379476" xlink:href="#mbd40002cc0" y="174.528"/>
     <use style="fill:#0000ff;stroke:#0000ff;" x="237.39258" xlink:href="#mbd40002cc0" y="170.206099"/>
     <use style="fill:#0000ff;stroke:#0000ff;" x="244.477497" xlink:href="#mbd40002cc0" y="173.742983"/>
     <use style="fill:#0000ff;stroke:#0000ff;" x="247.28426" xlink:href="#mbd40002cc0" y="174.528"/>
     <use style="fill:#0000ff;stroke:#0000ff;" x="240.620771" xlink:href="#mbd40002cc0" y="174.01999"/>
     <use style="fill:#0000ff;stroke:#0000ff;" x="247.498505" xlink:href="#mbd40002cc0" y="174.528"/>
     <use style="fill:#0000ff;stroke:#0000ff;" x="240.256252" xlink:href="#mbd40002cc0" y="174.528"/>
     <use style="fill:#0000ff;stroke:#0000ff;" x="240.147432" xlink:href="#mbd40002cc0" y="174.528"/>
     <use style="fill:#0000ff;stroke:#0000ff;" x="239.978883" xlink:href="#mbd40002cc0" y="174.528"/>
     <use style="fill:#0000ff;stroke:#0000ff;" x="240.24198" xlink:href="#mbd40002cc0" y="174.528"/>
     <use style="fill:#0000ff;stroke:#0000ff;" x="243.57729" xlink:href="#mbd40002cc0" y="172.286813"/>
     <use style="fill:#0000ff;stroke:#0000ff;" x="240.489033" xlink:href="#mbd40002cc0" y="174.528"/>
     <use style="fill:#0000ff;stroke:#0000ff;" x="236.16" xlink:href="#mbd40002cc0" y="174.528"/>
     <use style="fill:#0000ff;stroke:#0000ff;" x="243.800721" xlink:href="#mbd40002cc0" y="170.476207"/>
     <use style="fill:#0000ff;stroke:#0000ff;" x="236.228948" xlink:href="#mbd40002cc0" y="170.246163"/>
     <use style="fill:#0000ff;stroke:#0000ff;" x="236.949981" xlink:href="#mbd40002cc0" y="174.528"/>
     <use style="fill:#0000ff;stroke:#0000ff;" x="251.892274" xlink:href="#mbd40002cc0" y="172.484441"/>
     <use style="fill:#0000ff;stroke:#0000ff;" x="250.79746" xlink:href="#mbd40002cc0" y="173.917769"/>
     <use style="fill:#0000ff;stroke:#0000ff;" x="247.761316" xlink:href="#mbd40002cc0" y="174.528"/>
     <use style="fill:#0000ff;stroke:#0000ff;" x="247.723889" xlink:href="#mbd40002cc0" y="174.454716"/>
     <use style="fill:#0000ff;stroke:#0000ff;" x="244.272018" xlink:href="#mbd40002cc0" y="172.222861"/>
     <use style="fill:#0000ff;stroke:#0000ff;" x="251.037819" xlink:href="#mbd40002cc0" y="171.996206"/>
     <use style="fill:#0000ff;stroke:#0000ff;" x="243.960588" xlink:href="#mbd40002cc0" y="173.319509"/>
     <use style="fill:#0000ff;stroke:#0000ff;" x="243.825425" xlink:href="#mbd40002cc0" y="173.400353"/>
     <use style="fill:#0000ff;stroke:#0000ff;" x="244.043506" xlink:href="#mbd40002cc0" y="174.528"/>
     <use style="fill:#0000ff;stroke:#0000ff;" x="244.091142" xlink:href="#mbd40002cc0" y="169.997984"/>
     <use style="fill:#0000ff;stroke:#0000ff;" x="237.073798" xlink:href="#mbd40002cc0" y="172.860106"/>
     <use style="fill:#0000ff;stroke:#0000ff;" x="237.003535" xlink:href="#mbd40002cc0" y="173.471782"/>
     <use style="fill:#0000ff;stroke:#0000ff;" x="239.235566" xlink:href="#mbd40002cc0" y="173.608225"/>
     <use style="fill:#0000ff;stroke:#0000ff;" x="239.329144" xlink:href="#mbd40002cc0" y="172.999374"/>
     <use style="fill:#0000ff;stroke:#0000ff;" x="239.513868" xlink:href="#mbd40002cc0" y="174.528"/>
     <use style="fill:#0000ff;stroke:#0000ff;" x="237.961277" xlink:href="#mbd40002cc0" y="174.112667"/>
     <use style="fill:#0000ff;stroke:#0000ff;" x="237.601082" xlink:href="#mbd40002cc0" y="171.178389"/>
     <use style="fill:#0000ff;stroke:#0000ff;" x="237.816172" xlink:href="#mbd40002cc0" y="173.465506"/>
     <use style="fill:#0000ff;stroke:#0000ff;" x="237.452713" xlink:href="#mbd40002cc0" y="172.455491"/>
     <use style="fill:#0000ff;stroke:#0000ff;" x="237.165336" xlink:href="#mbd40002cc0" y="172.465352"/>
    </g>
   </g>
   <g id="matplotlib.axis_1">
    <g id="xtick_1">
     <g id="line2d_1">
      <defs>
       <path d="M 0 0 
L 0 3.5 
" id="m5f95ceaed1" style="stroke:#000000;stroke-width:0.8;"/>
      </defs>
      <g>
       <use style="stroke:#000000;stroke-width:0.8;" x="57.6" xlink:href="#m5f95ceaed1" y="307.584"/>
      </g>
     </g>
     <g id="text_1">
      <!-- −10.0 -->
      <defs>
       <path d="M 10.59375 35.5 
L 73.1875 35.5 
L 73.1875 27.203125 
L 10.59375 27.203125 
z
" id="DejaVuSans-2212"/>
       <path d="M 12.40625 8.296875 
L 28.515625 8.296875 
L 28.515625 63.921875 
L 10.984375 60.40625 
L 10.984375 69.390625 
L 28.421875 72.90625 
L 38.28125 72.90625 
L 38.28125 8.296875 
L 54.390625 8.296875 
L 54.390625 0 
L 12.40625 0 
z
" id="DejaVuSans-31"/>
       <path d="M 31.78125 66.40625 
Q 24.171875 66.40625 20.328125 58.90625 
Q 16.5 51.421875 16.5 36.375 
Q 16.5 21.390625 20.328125 13.890625 
Q 24.171875 6.390625 31.78125 6.390625 
Q 39.453125 6.390625 43.28125 13.890625 
Q 47.125 21.390625 47.125 36.375 
Q 47.125 51.421875 43.28125 58.90625 
Q 39.453125 66.40625 31.78125 66.40625 
z
M 31.78125 74.21875 
Q 44.046875 74.21875 50.515625 64.515625 
Q 56.984375 54.828125 56.984375 36.375 
Q 56.984375 17.96875 50.515625 8.265625 
Q 44.046875 -1.421875 31.78125 -1.421875 
Q 19.53125 -1.421875 13.0625 8.265625 
Q 6.59375 17.96875 6.59375 36.375 
Q 6.59375 54.828125 13.0625 64.515625 
Q 19.53125 74.21875 31.78125 74.21875 
z
" id="DejaVuSans-30"/>
       <path d="M 10.6875 12.40625 
L 21 12.40625 
L 21 0 
L 10.6875 0 
z
" id="DejaVuSans-2e"/>
      </defs>
      <g transform="translate(42.277344 322.182437)scale(0.1 -0.1)">
       <use xlink:href="#DejaVuSans-2212"/>
       <use x="83.789062" xlink:href="#DejaVuSans-31"/>
       <use x="147.412109" xlink:href="#DejaVuSans-30"/>
       <use x="211.035156" xlink:href="#DejaVuSans-2e"/>
       <use x="242.822266" xlink:href="#DejaVuSans-30"/>
      </g>
     </g>
    </g>
    <g id="xtick_2">
     <g id="line2d_2">
      <g>
       <use style="stroke:#000000;stroke-width:0.8;" x="102.24" xlink:href="#m5f95ceaed1" y="307.584"/>
      </g>
     </g>
     <g id="text_2">
      <!-- −7.5 -->
      <defs>
       <path d="M 8.203125 72.90625 
L 55.078125 72.90625 
L 55.078125 68.703125 
L 28.609375 0 
L 18.3125 0 
L 43.21875 64.59375 
L 8.203125 64.59375 
z
" id="DejaVuSans-37"/>
       <path d="M 10.796875 72.90625 
L 49.515625 72.90625 
L 49.515625 64.59375 
L 19.828125 64.59375 
L 19.828125 46.734375 
Q 21.96875 47.46875 24.109375 47.828125 
Q 26.265625 48.1875 28.421875 48.1875 
Q 40.625 48.1875 47.75 41.5 
Q 54.890625 34.8125 54.890625 23.390625 
Q 54.890625 11.625 47.5625 5.09375 
Q 40.234375 -1.421875 26.90625 -1.421875 
Q 22.3125 -1.421875 17.546875 -0.640625 
Q 12.796875 0.140625 7.71875 1.703125 
L 7.71875 11.625 
Q 12.109375 9.234375 16.796875 8.0625 
Q 21.484375 6.890625 26.703125 6.890625 
Q 35.15625 6.890625 40.078125 11.328125 
Q 45.015625 15.765625 45.015625 23.390625 
Q 45.015625 31 40.078125 35.4375 
Q 35.15625 39.890625 26.703125 39.890625 
Q 22.75 39.890625 18.8125 39.015625 
Q 14.890625 38.140625 10.796875 36.28125 
z
" id="DejaVuSans-35"/>
      </defs>
      <g transform="translate(90.098594 322.182437)scale(0.1 -0.1)">
       <use xlink:href="#DejaVuSans-2212"/>
       <use x="83.789062" xlink:href="#DejaVuSans-37"/>
       <use x="147.412109" xlink:href="#DejaVuSans-2e"/>
       <use x="179.199219" xlink:href="#DejaVuSans-35"/>
      </g>
     </g>
    </g>
    <g id="xtick_3">
     <g id="line2d_3">
      <g>
       <use style="stroke:#000000;stroke-width:0.8;" x="146.88" xlink:href="#m5f95ceaed1" y="307.584"/>
      </g>
     </g>
     <g id="text_3">
      <!-- −5.0 -->
      <g transform="translate(134.738594 322.182437)scale(0.1 -0.1)">
       <use xlink:href="#DejaVuSans-2212"/>
       <use x="83.789062" xlink:href="#DejaVuSans-35"/>
       <use x="147.412109" xlink:href="#DejaVuSans-2e"/>
       <use x="179.199219" xlink:href="#DejaVuSans-30"/>
      </g>
     </g>
    </g>
    <g id="xtick_4">
     <g id="line2d_4">
      <g>
       <use style="stroke:#000000;stroke-width:0.8;" x="191.52" xlink:href="#m5f95ceaed1" y="307.584"/>
      </g>
     </g>
     <g id="text_4">
      <!-- −2.5 -->
      <defs>
       <path d="M 19.1875 8.296875 
L 53.609375 8.296875 
L 53.609375 0 
L 7.328125 0 
L 7.328125 8.296875 
Q 12.9375 14.109375 22.625 23.890625 
Q 32.328125 33.6875 34.8125 36.53125 
Q 39.546875 41.84375 41.421875 45.53125 
Q 43.3125 49.21875 43.3125 52.78125 
Q 43.3125 58.59375 39.234375 62.25 
Q 35.15625 65.921875 28.609375 65.921875 
Q 23.96875 65.921875 18.8125 64.3125 
Q 13.671875 62.703125 7.8125 59.421875 
L 7.8125 69.390625 
Q 13.765625 71.78125 18.9375 73 
Q 24.125 74.21875 28.421875 74.21875 
Q 39.75 74.21875 46.484375 68.546875 
Q 53.21875 62.890625 53.21875 53.421875 
Q 53.21875 48.921875 51.53125 44.890625 
Q 49.859375 40.875 45.40625 35.40625 
Q 44.1875 33.984375 37.640625 27.21875 
Q 31.109375 20.453125 19.1875 8.296875 
z
" id="DejaVuSans-32"/>
      </defs>
      <g transform="translate(179.378594 322.182437)scale(0.1 -0.1)">
       <use xlink:href="#DejaVuSans-2212"/>
       <use x="83.789062" xlink:href="#DejaVuSans-32"/>
       <use x="147.412109" xlink:href="#DejaVuSans-2e"/>
       <use x="179.199219" xlink:href="#DejaVuSans-35"/>
      </g>
     </g>
    </g>
    <g id="xtick_5">
     <g id="line2d_5">
      <g>
       <use style="stroke:#000000;stroke-width:0.8;" x="236.16" xlink:href="#m5f95ceaed1" y="307.584"/>
      </g>
     </g>
     <g id="text_5">
      <!-- 0.0 -->
      <g transform="translate(228.208438 322.182437)scale(0.1 -0.1)">
       <use xlink:href="#DejaVuSans-30"/>
       <use x="63.623047" xlink:href="#DejaVuSans-2e"/>
       <use x="95.410156" xlink:href="#DejaVuSans-30"/>
      </g>
     </g>
    </g>
    <g id="xtick_6">
     <g id="line2d_6">
      <g>
       <use style="stroke:#000000;stroke-width:0.8;" x="280.8" xlink:href="#m5f95ceaed1" y="307.584"/>
      </g>
     </g>
     <g id="text_6">
      <!-- 2.5 -->
      <g transform="translate(272.848437 322.182437)scale(0.1 -0.1)">
       <use xlink:href="#DejaVuSans-32"/>
       <use x="63.623047" xlink:href="#DejaVuSans-2e"/>
       <use x="95.410156" xlink:href="#DejaVuSans-35"/>
      </g>
     </g>
    </g>
    <g id="xtick_7">
     <g id="line2d_7">
      <g>
       <use style="stroke:#000000;stroke-width:0.8;" x="325.44" xlink:href="#m5f95ceaed1" y="307.584"/>
      </g>
     </g>
     <g id="text_7">
      <!-- 5.0 -->
      <g transform="translate(317.488437 322.182437)scale(0.1 -0.1)">
       <use xlink:href="#DejaVuSans-35"/>
       <use x="63.623047" xlink:href="#DejaVuSans-2e"/>
       <use x="95.410156" xlink:href="#DejaVuSans-30"/>
      </g>
     </g>
    </g>
    <g id="xtick_8">
     <g id="line2d_8">
      <g>
       <use style="stroke:#000000;stroke-width:0.8;" x="370.08" xlink:href="#m5f95ceaed1" y="307.584"/>
      </g>
     </g>
     <g id="text_8">
      <!-- 7.5 -->
      <g transform="translate(362.128438 322.182437)scale(0.1 -0.1)">
       <use xlink:href="#DejaVuSans-37"/>
       <use x="63.623047" xlink:href="#DejaVuSans-2e"/>
       <use x="95.410156" xlink:href="#DejaVuSans-35"/>
      </g>
     </g>
    </g>
    <g id="xtick_9">
     <g id="line2d_9">
      <g>
       <use style="stroke:#000000;stroke-width:0.8;" x="414.72" xlink:href="#m5f95ceaed1" y="307.584"/>
      </g>
     </g>
     <g id="text_9">
      <!-- 10.0 -->
      <g transform="translate(403.587188 322.182437)scale(0.1 -0.1)">
       <use xlink:href="#DejaVuSans-31"/>
       <use x="63.623047" xlink:href="#DejaVuSans-30"/>
       <use x="127.246094" xlink:href="#DejaVuSans-2e"/>
       <use x="159.033203" xlink:href="#DejaVuSans-30"/>
      </g>
     </g>
    </g>
   </g>
   <g id="matplotlib.axis_2">
    <g id="ytick_1">
     <g id="line2d_10">
      <defs>
       <path d="M 0 0 
L -3.5 0 
" id="m0f8daf7bab" style="stroke:#000000;stroke-width:0.8;"/>
      </defs>
      <g>
       <use style="stroke:#000000;stroke-width:0.8;" x="57.6" xlink:href="#m0f8daf7bab" y="307.584"/>
      </g>
     </g>
     <g id="text_10">
      <!-- −10.0 -->
      <g transform="translate(19.954687 311.383219)scale(0.1 -0.1)">
       <use xlink:href="#DejaVuSans-2212"/>
       <use x="83.789062" xlink:href="#DejaVuSans-31"/>
       <use x="147.412109" xlink:href="#DejaVuSans-30"/>
       <use x="211.035156" xlink:href="#DejaVuSans-2e"/>
       <use x="242.822266" xlink:href="#DejaVuSans-30"/>
      </g>
     </g>
    </g>
    <g id="ytick_2">
     <g id="line2d_11">
      <g>
       <use style="stroke:#000000;stroke-width:0.8;" x="57.6" xlink:href="#m0f8daf7bab" y="274.32"/>
      </g>
     </g>
     <g id="text_11">
      <!-- −7.5 -->
      <g transform="translate(26.317187 278.119219)scale(0.1 -0.1)">
       <use xlink:href="#DejaVuSans-2212"/>
       <use x="83.789062" xlink:href="#DejaVuSans-37"/>
       <use x="147.412109" xlink:href="#DejaVuSans-2e"/>
       <use x="179.199219" xlink:href="#DejaVuSans-35"/>
      </g>
     </g>
    </g>
    <g id="ytick_3">
     <g id="line2d_12">
      <g>
       <use style="stroke:#000000;stroke-width:0.8;" x="57.6" xlink:href="#m0f8daf7bab" y="241.056"/>
      </g>
     </g>
     <g id="text_12">
      <!-- −5.0 -->
      <g transform="translate(26.317187 244.855219)scale(0.1 -0.1)">
       <use xlink:href="#DejaVuSans-2212"/>
       <use x="83.789062" xlink:href="#DejaVuSans-35"/>
       <use x="147.412109" xlink:href="#DejaVuSans-2e"/>
       <use x="179.199219" xlink:href="#DejaVuSans-30"/>
      </g>
     </g>
    </g>
    <g id="ytick_4">
     <g id="line2d_13">
      <g>
       <use style="stroke:#000000;stroke-width:0.8;" x="57.6" xlink:href="#m0f8daf7bab" y="207.792"/>
      </g>
     </g>
     <g id="text_13">
      <!-- −2.5 -->
      <g transform="translate(26.317187 211.591219)scale(0.1 -0.1)">
       <use xlink:href="#DejaVuSans-2212"/>
       <use x="83.789062" xlink:href="#DejaVuSans-32"/>
       <use x="147.412109" xlink:href="#DejaVuSans-2e"/>
       <use x="179.199219" xlink:href="#DejaVuSans-35"/>
      </g>
     </g>
    </g>
    <g id="ytick_5">
     <g id="line2d_14">
      <g>
       <use style="stroke:#000000;stroke-width:0.8;" x="57.6" xlink:href="#m0f8daf7bab" y="174.528"/>
      </g>
     </g>
     <g id="text_14">
      <!-- 0.0 -->
      <g transform="translate(34.696875 178.327219)scale(0.1 -0.1)">
       <use xlink:href="#DejaVuSans-30"/>
       <use x="63.623047" xlink:href="#DejaVuSans-2e"/>
       <use x="95.410156" xlink:href="#DejaVuSans-30"/>
      </g>
     </g>
    </g>
    <g id="ytick_6">
     <g id="line2d_15">
      <g>
       <use style="stroke:#000000;stroke-width:0.8;" x="57.6" xlink:href="#m0f8daf7bab" y="141.264"/>
      </g>
     </g>
     <g id="text_15">
      <!-- 2.5 -->
      <g transform="translate(34.696875 145.063219)scale(0.1 -0.1)">
       <use xlink:href="#DejaVuSans-32"/>
       <use x="63.623047" xlink:href="#DejaVuSans-2e"/>
       <use x="95.410156" xlink:href="#DejaVuSans-35"/>
      </g>
     </g>
    </g>
    <g id="ytick_7">
     <g id="line2d_16">
      <g>
       <use style="stroke:#000000;stroke-width:0.8;" x="57.6" xlink:href="#m0f8daf7bab" y="108"/>
      </g>
     </g>
     <g id="text_16">
      <!-- 5.0 -->
      <g transform="translate(34.696875 111.799219)scale(0.1 -0.1)">
       <use xlink:href="#DejaVuSans-35"/>
       <use x="63.623047" xlink:href="#DejaVuSans-2e"/>
       <use x="95.410156" xlink:href="#DejaVuSans-30"/>
      </g>
     </g>
    </g>
    <g id="ytick_8">
     <g id="line2d_17">
      <g>
       <use style="stroke:#000000;stroke-width:0.8;" x="57.6" xlink:href="#m0f8daf7bab" y="74.736"/>
      </g>
     </g>
     <g id="text_17">
      <!-- 7.5 -->
      <g transform="translate(34.696875 78.535219)scale(0.1 -0.1)">
       <use xlink:href="#DejaVuSans-37"/>
       <use x="63.623047" xlink:href="#DejaVuSans-2e"/>
       <use x="95.410156" xlink:href="#DejaVuSans-35"/>
      </g>
     </g>
    </g>
    <g id="ytick_9">
     <g id="line2d_18">
      <g>
       <use style="stroke:#000000;stroke-width:0.8;" x="57.6" xlink:href="#m0f8daf7bab" y="41.472"/>
      </g>
     </g>
     <g id="text_18">
      <!-- 10.0 -->
      <g transform="translate(28.334375 45.271219)scale(0.1 -0.1)">
       <use xlink:href="#DejaVuSans-31"/>
       <use x="63.623047" xlink:href="#DejaVuSans-30"/>
       <use x="127.246094" xlink:href="#DejaVuSans-2e"/>
       <use x="159.033203" xlink:href="#DejaVuSans-30"/>
      </g>
     </g>
    </g>
   </g>
   <g id="patch_3">
    <path d="M 57.6 307.584 
L 57.6 41.472 
" style="fill:none;stroke:#000000;stroke-linecap:square;stroke-linejoin:miter;stroke-width:0.8;"/>
   </g>
   <g id="patch_4">
    <path d="M 414.72 307.584 
L 414.72 41.472 
" style="fill:none;stroke:#000000;stroke-linecap:square;stroke-linejoin:miter;stroke-width:0.8;"/>
   </g>
   <g id="patch_5">
    <path d="M 57.6 307.584 
L 414.72 307.584 
" style="fill:none;stroke:#000000;stroke-linecap:square;stroke-linejoin:miter;stroke-width:0.8;"/>
   </g>
   <g id="patch_6">
    <path d="M 57.6 41.472 
L 414.72 41.472 
" style="fill:none;stroke:#000000;stroke-linecap:square;stroke-linejoin:miter;stroke-width:0.8;"/>
   </g>
  </g>
 </g>
 <defs>
  <clipPath id="pa2f69ce1c5">
   <rect height="266.112" width="357.12" x="57.6" y="41.472"/>
  </clipPath>
 </defs>
</svg>
