<?xml version="1.0" encoding="utf-8" standalone="no"?>
<!DOCTYPE svg PUBLIC "-//W3C//DTD SVG 1.1//EN"
  "http://www.w3.org/Graphics/SVG/1.1/DTD/svg11.dtd">
<!-- Created with matplotlib (http://matplotlib.org/) -->
<svg height="345.6pt" version="1.1" viewBox="0 0 460.8 345.6" width="460.8pt" xmlns="http://www.w3.org/2000/svg" xmlns:xlink="http://www.w3.org/1999/xlink">
 <defs>
  <style type="text/css">
*{stroke-linecap:butt;stroke-linejoin:round;}
  </style>
 </defs>
 <g id="figure_1">
  <g id="patch_1">
   <path d="M 0 345.6 
L 460.8 345.6 
L 460.8 0 
L 0 0 
z
" style="fill:#ffffff;"/>
  </g>
  <g id="axes_1">
   <g id="patch_2">
    <path d="M 57.6 307.584 
L 414.72 307.584 
L 414.72 41.472 
L 57.6 41.472 
z
" style="fill:#ffffff;"/>
   </g>
   <g id="PathCollection_1">
    <defs>
     <path d="M 0 0.612372 
C 0.162403 0.612372 0.318176 0.547849 0.433013 0.433013 
C 0.547849 0.318176 0.612372 0.162403 0.612372 0 
C 0.612372 -0.162403 0.547849 -0.318176 0.433013 -0.433013 
C 0.318176 -0.547849 0.162403 -0.612372 0 -0.612372 
C -0.162403 -0.612372 -0.318176 -0.547849 -0.433013 -0.433013 
C -0.547849 -0.318176 -0.612372 -0.162403 -0.612372 0 
C -0.612372 0.162403 -0.547849 0.318176 -0.433013 0.433013 
C -0.318176 0.547849 -0.162403 0.612372 0 0.612372 
z
" id="m118466cb90" style="stroke:#000000;"/>
    </defs>
    <g clip-path="url(#p61302bd881)">
     <use style="stroke:#000000;" x="240.102219" xlink:href="#m118466cb90" y="174.215791"/>
     <use style="stroke:#000000;" x="239.637934" xlink:href="#m118466cb90" y="174.423451"/>
     <use style="stroke:#000000;" x="237.417362" xlink:href="#m118466cb90" y="174.528"/>
     <use style="stroke:#000000;" x="243.746391" xlink:href="#m118466cb90" y="174.528"/>
     <use style="stroke:#000000;" x="251.412092" xlink:href="#m118466cb90" y="170.371805"/>
     <use style="stroke:#000000;" x="247.285508" xlink:href="#m118466cb90" y="174.528"/>
     <use style="stroke:#000000;" x="243.936076" xlink:href="#m118466cb90" y="171.643242"/>
     <use style="stroke:#000000;" x="236.16" xlink:href="#m118466cb90" y="173.448775"/>
     <use style="stroke:#000000;" x="243.888299" xlink:href="#m118466cb90" y="171.620738"/>
     <use style="stroke:#000000;" x="244.103381" xlink:href="#m118466cb90" y="174.528"/>
     <use style="stroke:#000000;" x="243.753624" xlink:href="#m118466cb90" y="174.123956"/>
     <use style="stroke:#000000;" x="240.569403" xlink:href="#m118466cb90" y="174.528"/>
     <use style="stroke:#000000;" x="238.514129" xlink:href="#m118466cb90" y="174.528"/>
     <use style="stroke:#000000;" x="237.086056" xlink:href="#m118466cb90" y="174.528"/>
     <use style="stroke:#000000;" x="239.723395" xlink:href="#m118466cb90" y="174.312268"/>
     <use style="stroke:#000000;" x="251.374983" xlink:href="#m118466cb90" y="172.585352"/>
     <use style="stroke:#000000;" x="244.00653" xlink:href="#m118466cb90" y="173.167233"/>
     <use style="stroke:#000000;" x="241.171442" xlink:href="#m118466cb90" y="173.752566"/>
     <use style="stroke:#000000;" x="236.474762" xlink:href="#m118466cb90" y="172.321839"/>
     <use style="stroke:#000000;" x="250.955336" xlink:href="#m118466cb90" y="172.472119"/>
     <use style="stroke:#000000;" x="236.694174" xlink:href="#m118466cb90" y="174.205965"/>
     <use style="stroke:#000000;" x="240.194923" xlink:href="#m118466cb90" y="173.310756"/>
     <use style="stroke:#000000;" x="237.012548" xlink:href="#m118466cb90" y="173.962602"/>
     <use style="stroke:#000000;" x="251.418245" xlink:href="#m118466cb90" y="173.404189"/>
     <use style="stroke:#000000;" x="240.11505" xlink:href="#m118466cb90" y="173.525525"/>
     <use style="stroke:#000000;" x="247.569959" xlink:href="#m118466cb90" y="174.528"/>
     <use style="stroke:#000000;" x="243.861555" xlink:href="#m118466cb90" y="170.626028"/>
     <use style="stroke:#000000;" x="238.404922" xlink:href="#m118466cb90" y="172.750253"/>
     <use style="stroke:#000000;" x="239.524897" xlink:href="#m118466cb90" y="174.528"/>
     <use style="stroke:#000000;" x="237.760029" xlink:href="#m118466cb90" y="174.528"/>
     <use style="stroke:#000000;" x="244.233533" xlink:href="#m118466cb90" y="174.528"/>
     <use style="stroke:#000000;" x="236.16" xlink:href="#m118466cb90" y="172.613802"/>
     <use style="stroke:#000000;" x="239.55104" xlink:href="#m118466cb90" y="174.208762"/>
     <use style="stroke:#000000;" x="239.970525" xlink:href="#m118466cb90" y="174.528"/>
     <use style="stroke:#000000;" x="239.873701" xlink:href="#m118466cb90" y="172.411398"/>
     <use style="stroke:#000000;" x="239.700181" xlink:href="#m118466cb90" y="174.528"/>
     <use style="stroke:#000000;" x="243.135856" xlink:href="#m118466cb90" y="170.661818"/>
     <use style="stroke:#000000;" x="241.447262" xlink:href="#m118466cb90" y="174.528"/>
     <use style="stroke:#000000;" x="240.572992" xlink:href="#m118466cb90" y="173.675949"/>
     <use style="stroke:#000000;" x="237.139002" xlink:href="#m118466cb90" y="174.528"/>
     <use style="stroke:#000000;" x="243.326646" xlink:href="#m118466cb90" y="172.408902"/>
     <use style="stroke:#000000;" x="236.811989" xlink:href="#m118466cb90" y="167.561058"/>
     <use style="stroke:#000000;" x="236.497995" xlink:href="#m118466cb90" y="173.582272"/>
     <use style="stroke:#000000;" x="236.828488" xlink:href="#m118466cb90" y="170.392957"/>
     <use style="stroke:#000000;" x="240.224035" xlink:href="#m118466cb90" y="174.528"/>
     <use style="stroke:#000000;" x="236.97088" xlink:href="#m118466cb90" y="174.528"/>
     <use style="stroke:#000000;" x="240.634094" xlink:href="#m118466cb90" y="174.528"/>
     <use style="stroke:#000000;" x="251.892274" xlink:href="#m118466cb90" y="172.484441"/>
     <use style="stroke:#000000;" x="251.846056" xlink:href="#m118466cb90" y="173.031022"/>
     <use style="stroke:#000000;" x="247.749435" xlink:href="#m118466cb90" y="174.528"/>
     <use style="stroke:#000000;" x="247.652131" xlink:href="#m118466cb90" y="173.399814"/>
     <use style="stroke:#000000;" x="238.865529" xlink:href="#m118466cb90" y="173.303507"/>
     <use style="stroke:#000000;" x="250.76284" xlink:href="#m118466cb90" y="173.873734"/>
     <use style="stroke:#000000;" x="238.563445" xlink:href="#m118466cb90" y="174.528"/>
     <use style="stroke:#000000;" x="240.432114" xlink:href="#m118466cb90" y="172.187649"/>
     <use style="stroke:#000000;" x="237.92651" xlink:href="#m118466cb90" y="173.924071"/>
     <use style="stroke:#000000;" x="236.16" xlink:href="#m118466cb90" y="174.528"/>
     <use style="stroke:#000000;" x="244.291095" xlink:href="#m118466cb90" y="173.105669"/>
     <use style="stroke:#000000;" x="240.02398" xlink:href="#m118466cb90" y="173.959622"/>
     <use style="stroke:#000000;" x="243.30991" xlink:href="#m118466cb90" y="170.439703"/>
     <use style="stroke:#000000;" x="244.289079" xlink:href="#m118466cb90" y="174.001051"/>
     <use style="stroke:#000000;" x="239.851961" xlink:href="#m118466cb90" y="173.639139"/>
     <use style="stroke:#000000;" x="243.413399" xlink:href="#m118466cb90" y="173.005963"/>
     <use style="stroke:#000000;" x="243.29125" xlink:href="#m118466cb90" y="174.528"/>
     <use style="stroke:#000000;" x="243.667545" xlink:href="#m118466cb90" y="171.342674"/>
     <use style="stroke:#000000;" x="241.248236" xlink:href="#m118466cb90" y="174.306354"/>
     <use style="stroke:#000000;" x="241.077274" xlink:href="#m118466cb90" y="174.209909"/>
     <use style="stroke:#000000;" x="237.45063" xlink:href="#m118466cb90" y="169.4282"/>
     <use style="stroke:#000000;" x="243.713781" xlink:href="#m118466cb90" y="173.281888"/>
     <use style="stroke:#000000;" x="236.796335" xlink:href="#m118466cb90" y="174.528"/>
     <use style="stroke:#000000;" x="236.675789" xlink:href="#m118466cb90" y="173.757322"/>
     <use style="stroke:#000000;" x="236.933668" xlink:href="#m118466cb90" y="174.117058"/>
     <use style="stroke:#000000;" x="237.003721" xlink:href="#m118466cb90" y="174.528"/>
     <use style="stroke:#000000;" x="240.408218" xlink:href="#m118466cb90" y="174.528"/>
     <use style="stroke:#000000;" x="237.098787" xlink:href="#m118466cb90" y="174.528"/>
     <use style="stroke:#000000;" x="241.309214" xlink:href="#m118466cb90" y="172.270412"/>
     <use style="stroke:#000000;" x="240.620771" xlink:href="#m118466cb90" y="174.01999"/>
     <use style="stroke:#000000;" x="251.036686" xlink:href="#m118466cb90" y="174.236882"/>
     <use style="stroke:#000000;" x="240.489033" xlink:href="#m118466cb90" y="174.528"/>
     <use style="stroke:#000000;" x="240.634826" xlink:href="#m118466cb90" y="173.896358"/>
     <use style="stroke:#000000;" x="243.095216" xlink:href="#m118466cb90" y="174.467506"/>
     <use style="stroke:#000000;" x="239.218055" xlink:href="#m118466cb90" y="174.417745"/>
     <use style="stroke:#000000;" x="241.794492" xlink:href="#m118466cb90" y="174.528"/>
     <use style="stroke:#000000;" x="243.021731" xlink:href="#m118466cb90" y="174.528"/>
     <use style="stroke:#000000;" x="241.770102" xlink:href="#m118466cb90" y="173.090867"/>
     <use style="stroke:#000000;" x="237.947695" xlink:href="#m118466cb90" y="173.386059"/>
     <use style="stroke:#000000;" x="237.50502" xlink:href="#m118466cb90" y="174.528"/>
     <use style="stroke:#000000;" x="237.70415" xlink:href="#m118466cb90" y="174.528"/>
     <use style="stroke:#000000;" x="236.16" xlink:href="#m118466cb90" y="174.528"/>
     <use style="stroke:#000000;" x="240.94148" xlink:href="#m118466cb90" y="174.498901"/>
     <use style="stroke:#000000;" x="243.331434" xlink:href="#m118466cb90" y="174.276874"/>
     <use style="stroke:#000000;" x="243.910979" xlink:href="#m118466cb90" y="174.439186"/>
     <use style="stroke:#000000;" x="242.149577" xlink:href="#m118466cb90" y="173.621181"/>
     <use style="stroke:#000000;" x="250.366358" xlink:href="#m118466cb90" y="171.607412"/>
     <use style="stroke:#000000;" x="252.150067" xlink:href="#m118466cb90" y="170.357078"/>
     <use style="stroke:#000000;" x="249.94382" xlink:href="#m118466cb90" y="171.733877"/>
     <use style="stroke:#000000;" x="249.059133" xlink:href="#m118466cb90" y="174.152044"/>
     <use style="stroke:#000000;" x="248.888243" xlink:href="#m118466cb90" y="174.421771"/>
     <use style="stroke:#000000;" x="247.280289" xlink:href="#m118466cb90" y="172.892889"/>
     <use style="stroke:#000000;" x="242.439967" xlink:href="#m118466cb90" y="171.359203"/>
     <use style="stroke:#000000;" x="242.379652" xlink:href="#m118466cb90" y="174.266873"/>
     <use style="stroke:#000000;" x="241.494976" xlink:href="#m118466cb90" y="171.624951"/>
     <use style="stroke:#000000;" x="236.16" xlink:href="#m118466cb90" y="174.528"/>
     <use style="stroke:#000000;" x="238.119021" xlink:href="#m118466cb90" y="174.528"/>
     <use style="stroke:#000000;" x="236.16" xlink:href="#m118466cb90" y="174.528"/>
     <use style="stroke:#000000;" x="247.747259" xlink:href="#m118466cb90" y="173.457076"/>
     <use style="stroke:#000000;" x="246.204433" xlink:href="#m118466cb90" y="172.051842"/>
     <use style="stroke:#000000;" x="244.595879" xlink:href="#m118466cb90" y="172.736661"/>
     <use style="stroke:#000000;" x="242.33818" xlink:href="#m118466cb90" y="174.520716"/>
     <use style="stroke:#000000;" x="242.226703" xlink:href="#m118466cb90" y="173.471128"/>
     <use style="stroke:#000000;" x="244.67977" xlink:href="#m118466cb90" y="173.160363"/>
     <use style="stroke:#000000;" x="240.045626" xlink:href="#m118466cb90" y="174.303366"/>
     <use style="stroke:#000000;" x="246.346332" xlink:href="#m118466cb90" y="174.528"/>
     <use style="stroke:#000000;" x="245.561232" xlink:href="#m118466cb90" y="170.804452"/>
     <use style="stroke:#000000;" x="236.67065" xlink:href="#m118466cb90" y="174.528"/>
     <use style="stroke:#000000;" x="243.075435" xlink:href="#m118466cb90" y="173.05325"/>
     <use style="stroke:#000000;" x="240.292394" xlink:href="#m118466cb90" y="174.215828"/>
     <use style="stroke:#000000;" x="238.395571" xlink:href="#m118466cb90" y="172.359742"/>
     <use style="stroke:#000000;" x="237.099262" xlink:href="#m118466cb90" y="174.528"/>
     <use style="stroke:#000000;" x="239.592267" xlink:href="#m118466cb90" y="173.940341"/>
     <use style="stroke:#000000;" x="239.098567" xlink:href="#m118466cb90" y="174.377133"/>
     <use style="stroke:#000000;" x="236.16" xlink:href="#m118466cb90" y="174.528"/>
     <use style="stroke:#000000;" x="237.575429" xlink:href="#m118466cb90" y="173.332796"/>
     <use style="stroke:#000000;" x="239.028567" xlink:href="#m118466cb90" y="171.574574"/>
     <use style="stroke:#000000;" x="239.86849" xlink:href="#m118466cb90" y="173.736944"/>
     <use style="stroke:#000000;" x="239.642444" xlink:href="#m118466cb90" y="174.057984"/>
     <use style="stroke:#000000;" x="251.831218" xlink:href="#m118466cb90" y="173.504585"/>
     <use style="stroke:#000000;" x="254.016" xlink:href="#m118466cb90" y="172.635871"/>
     <use style="stroke:#000000;" x="254.016" xlink:href="#m118466cb90" y="173.73331"/>
     <use style="stroke:#000000;" x="244.408929" xlink:href="#m118466cb90" y="174.528"/>
     <use style="stroke:#000000;" x="246.375272" xlink:href="#m118466cb90" y="173.492083"/>
     <use style="stroke:#000000;" x="245.585147" xlink:href="#m118466cb90" y="173.696071"/>
     <use style="stroke:#000000;" x="238.857305" xlink:href="#m118466cb90" y="174.528"/>
     <use style="stroke:#000000;" x="242.748662" xlink:href="#m118466cb90" y="173.170938"/>
     <use style="stroke:#000000;" x="239.147416" xlink:href="#m118466cb90" y="174.528"/>
     <use style="stroke:#000000;" x="238.441387" xlink:href="#m118466cb90" y="172.909328"/>
     <use style="stroke:#000000;" x="239.142299" xlink:href="#m118466cb90" y="172.75238"/>
     <use style="stroke:#000000;" x="236.16" xlink:href="#m118466cb90" y="171.255796"/>
     <use style="stroke:#000000;" x="249.577681" xlink:href="#m118466cb90" y="172.586017"/>
     <use style="stroke:#000000;" x="250.994062" xlink:href="#m118466cb90" y="173.397241"/>
     <use style="stroke:#000000;" x="250.741282" xlink:href="#m118466cb90" y="171.655804"/>
     <use style="stroke:#000000;" x="237.024938" xlink:href="#m118466cb90" y="173.490851"/>
     <use style="stroke:#000000;" x="236.16" xlink:href="#m118466cb90" y="174.528"/>
     <use style="stroke:#000000;" x="236.16" xlink:href="#m118466cb90" y="174.528"/>
     <use style="stroke:#000000;" x="239.950487" xlink:href="#m118466cb90" y="173.365331"/>
     <use style="stroke:#000000;" x="238.045342" xlink:href="#m118466cb90" y="174.528"/>
     <use style="stroke:#000000;" x="236.16" xlink:href="#m118466cb90" y="173.204082"/>
     <use style="stroke:#000000;" x="237.229294" xlink:href="#m118466cb90" y="174.528"/>
     <use style="stroke:#000000;" x="236.16" xlink:href="#m118466cb90" y="172.961437"/>
     <use style="stroke:#000000;" x="252.233288" xlink:href="#m118466cb90" y="171.851577"/>
     <use style="stroke:#000000;" x="250.719383" xlink:href="#m118466cb90" y="174.316037"/>
     <use style="stroke:#000000;" x="250.043062" xlink:href="#m118466cb90" y="174.528"/>
     <use style="stroke:#000000;" x="241.697475" xlink:href="#m118466cb90" y="174.528"/>
     <use style="stroke:#000000;" x="242.495393" xlink:href="#m118466cb90" y="174.528"/>
     <use style="stroke:#000000;" x="246.468928" xlink:href="#m118466cb90" y="174.528"/>
     <use style="stroke:#000000;" x="249.296767" xlink:href="#m118466cb90" y="172.32219"/>
     <use style="stroke:#000000;" x="242.433808" xlink:href="#m118466cb90" y="172.868905"/>
     <use style="stroke:#000000;" x="243.623586" xlink:href="#m118466cb90" y="170.142657"/>
     <use style="stroke:#000000;" x="244.196105" xlink:href="#m118466cb90" y="170.068959"/>
     <use style="stroke:#000000;" x="237.787277" xlink:href="#m118466cb90" y="168.250802"/>
     <use style="stroke:#000000;" x="237.555533" xlink:href="#m118466cb90" y="169.49621"/>
     <use style="stroke:#000000;" x="239.535336" xlink:href="#m118466cb90" y="174.248701"/>
     <use style="stroke:#000000;" x="239.372275" xlink:href="#m118466cb90" y="172.983395"/>
     <use style="stroke:#000000;" x="239.333644" xlink:href="#m118466cb90" y="174.233813"/>
     <use style="stroke:#000000;" x="238.026036" xlink:href="#m118466cb90" y="174.528"/>
     <use style="stroke:#000000;" x="244.486674" xlink:href="#m118466cb90" y="174.093233"/>
     <use style="stroke:#000000;" x="244.019775" xlink:href="#m118466cb90" y="172.8381"/>
     <use style="stroke:#000000;" x="247.390374" xlink:href="#m118466cb90" y="173.448711"/>
     <use style="stroke:#000000;" x="236.16" xlink:href="#m118466cb90" y="173.156733"/>
     <use style="stroke:#000000;" x="237.837483" xlink:href="#m118466cb90" y="172.094037"/>
     <use style="stroke:#000000;" x="238.746806" xlink:href="#m118466cb90" y="174.528"/>
     <use style="stroke:#000000;" x="242.860291" xlink:href="#m118466cb90" y="173.147036"/>
     <use style="stroke:#000000;" x="243.055198" xlink:href="#m118466cb90" y="173.253398"/>
     <use style="stroke:#000000;" x="236.808967" xlink:href="#m118466cb90" y="173.206682"/>
     <use style="stroke:#000000;" x="238.251707" xlink:href="#m118466cb90" y="172.941149"/>
     <use style="stroke:#000000;" x="239.900625" xlink:href="#m118466cb90" y="172.23779"/>
     <use style="stroke:#000000;" x="240.120631" xlink:href="#m118466cb90" y="174.528"/>
     <use style="stroke:#000000;" x="239.866308" xlink:href="#m118466cb90" y="174.528"/>
     <use style="stroke:#000000;" x="238.053005" xlink:href="#m118466cb90" y="171.455524"/>
     <use style="stroke:#000000;" x="240.98774" xlink:href="#m118466cb90" y="169.336139"/>
     <use style="stroke:#000000;" x="242.187757" xlink:href="#m118466cb90" y="174.528"/>
     <use style="stroke:#000000;" x="239.828006" xlink:href="#m118466cb90" y="173.898393"/>
     <use style="stroke:#000000;" x="238.75761" xlink:href="#m118466cb90" y="173.71825"/>
     <use style="stroke:#000000;" x="240.504831" xlink:href="#m118466cb90" y="173.963939"/>
     <use style="stroke:#000000;" x="237.020293" xlink:href="#m118466cb90" y="173.238756"/>
     <use style="stroke:#000000;" x="236.16" xlink:href="#m118466cb90" y="171.844813"/>
     <use style="stroke:#000000;" x="240.083654" xlink:href="#m118466cb90" y="174.106635"/>
     <use style="stroke:#000000;" x="244.658911" xlink:href="#m118466cb90" y="170.210252"/>
     <use style="stroke:#000000;" x="236.16" xlink:href="#m118466cb90" y="168.119341"/>
     <use style="stroke:#000000;" x="236.16" xlink:href="#m118466cb90" y="167.294646"/>
     <use style="stroke:#000000;" x="236.16" xlink:href="#m118466cb90" y="166.775156"/>
     <use style="stroke:#000000;" x="237.633247" xlink:href="#m118466cb90" y="174.347873"/>
     <use style="stroke:#000000;" x="236.16" xlink:href="#m118466cb90" y="171.8481"/>
     <use style="stroke:#000000;" x="236.16" xlink:href="#m118466cb90" y="171.854471"/>
     <use style="stroke:#000000;" x="236.16" xlink:href="#m118466cb90" y="169.104672"/>
     <use style="stroke:#000000;" x="237.203431" xlink:href="#m118466cb90" y="169.279011"/>
     <use style="stroke:#000000;" x="240.93113" xlink:href="#m118466cb90" y="173.503582"/>
     <use style="stroke:#000000;" x="236.16" xlink:href="#m118466cb90" y="174.528"/>
     <use style="stroke:#000000;" x="236.177234" xlink:href="#m118466cb90" y="174.528"/>
     <use style="stroke:#000000;" x="237.73964" xlink:href="#m118466cb90" y="172.971301"/>
     <use style="stroke:#000000;" x="251.848646" xlink:href="#m118466cb90" y="173.247483"/>
     <use style="stroke:#000000;" x="251.367392" xlink:href="#m118466cb90" y="171.344088"/>
     <use style="stroke:#000000;" x="251.025946" xlink:href="#m118466cb90" y="174.222108"/>
     <use style="stroke:#000000;" x="247.747478" xlink:href="#m118466cb90" y="173.704234"/>
     <use style="stroke:#000000;" x="245.232756" xlink:href="#m118466cb90" y="174.528"/>
     <use style="stroke:#000000;" x="243.899319" xlink:href="#m118466cb90" y="174.191212"/>
     <use style="stroke:#000000;" x="241.426148" xlink:href="#m118466cb90" y="173.884752"/>
     <use style="stroke:#000000;" x="248.974379" xlink:href="#m118466cb90" y="174.313182"/>
     <use style="stroke:#000000;" x="238.942478" xlink:href="#m118466cb90" y="174.528"/>
     <use style="stroke:#000000;" x="239.606775" xlink:href="#m118466cb90" y="170.6478"/>
     <use style="stroke:#000000;" x="241.224153" xlink:href="#m118466cb90" y="172.587481"/>
     <use style="stroke:#000000;" x="237.071183" xlink:href="#m118466cb90" y="172.141042"/>
     <use style="stroke:#000000;" x="236.629098" xlink:href="#m118466cb90" y="170.845098"/>
     <use style="stroke:#000000;" x="245.286221" xlink:href="#m118466cb90" y="172.051978"/>
     <use style="stroke:#000000;" x="237.464912" xlink:href="#m118466cb90" y="171.663095"/>
     <use style="stroke:#000000;" x="244.321652" xlink:href="#m118466cb90" y="172.135492"/>
     <use style="stroke:#000000;" x="243.731483" xlink:href="#m118466cb90" y="171.476613"/>
     <use style="stroke:#000000;" x="239.802942" xlink:href="#m118466cb90" y="172.847046"/>
     <use style="stroke:#000000;" x="245.057331" xlink:href="#m118466cb90" y="174.281009"/>
     <use style="stroke:#000000;" x="244.750867" xlink:href="#m118466cb90" y="174.13979"/>
     <use style="stroke:#000000;" x="241.663533" xlink:href="#m118466cb90" y="171.708945"/>
     <use style="stroke:#000000;" x="239.830794" xlink:href="#m118466cb90" y="174.528"/>
     <use style="stroke:#000000;" x="243.936057" xlink:href="#m118466cb90" y="173.278596"/>
     <use style="stroke:#000000;" x="244.237876" xlink:href="#m118466cb90" y="172.747571"/>
     <use style="stroke:#000000;" x="240.861044" xlink:href="#m118466cb90" y="168.28527"/>
     <use style="stroke:#000000;" x="238.455835" xlink:href="#m118466cb90" y="170.278774"/>
     <use style="stroke:#000000;" x="242.4762" xlink:href="#m118466cb90" y="172.745204"/>
     <use style="stroke:#000000;" x="245.502667" xlink:href="#m118466cb90" y="174.528"/>
     <use style="stroke:#000000;" x="236.16" xlink:href="#m118466cb90" y="174.528"/>
     <use style="stroke:#000000;" x="236.16" xlink:href="#m118466cb90" y="173.072302"/>
     <use style="stroke:#000000;" x="239.05059" xlink:href="#m118466cb90" y="173.562019"/>
     <use style="stroke:#000000;" x="236.16" xlink:href="#m118466cb90" y="173.360255"/>
     <use style="stroke:#000000;" x="238.904716" xlink:href="#m118466cb90" y="173.508882"/>
     <use style="stroke:#000000;" x="238.421813" xlink:href="#m118466cb90" y="174.373527"/>
     <use style="stroke:#000000;" x="242.80709" xlink:href="#m118466cb90" y="172.947952"/>
     <use style="stroke:#000000;" x="238.369324" xlink:href="#m118466cb90" y="171.835976"/>
     <use style="stroke:#000000;" x="237.692266" xlink:href="#m118466cb90" y="171.26957"/>
     <use style="stroke:#000000;" x="240.069139" xlink:href="#m118466cb90" y="174.329733"/>
     <use style="stroke:#000000;" x="253.668671" xlink:href="#m118466cb90" y="174.528"/>
     <use style="stroke:#000000;" x="240.807529" xlink:href="#m118466cb90" y="173.852764"/>
     <use style="stroke:#000000;" x="236.16" xlink:href="#m118466cb90" y="174.425054"/>
    </g>
   </g>
   <g id="PathCollection_2">
    <defs>
     <path d="M 0 0.935414 
C 0.248075 0.935414 0.486022 0.836853 0.661438 0.661438 
C 0.836853 0.486022 0.935414 0.248075 0.935414 0 
C 0.935414 -0.248075 0.836853 -0.486022 0.661438 -0.661438 
C 0.486022 -0.836853 0.248075 -0.935414 0 -0.935414 
C -0.248075 -0.935414 -0.486022 -0.836853 -0.661438 -0.661438 
C -0.836853 -0.486022 -0.935414 -0.248075 -0.935414 0 
C -0.935414 0.248075 -0.836853 0.486022 -0.661438 0.661438 
C -0.486022 0.836853 -0.248075 0.935414 0 0.935414 
z
" id="md1cd54b694" style="stroke:#0000ff;"/>
    </defs>
    <g clip-path="url(#p61302bd881)">
     <use style="fill:#0000ff;stroke:#0000ff;" x="240.102219" xlink:href="#md1cd54b694" y="174.215791"/>
     <use style="fill:#0000ff;stroke:#0000ff;" x="239.637934" xlink:href="#md1cd54b694" y="174.423451"/>
     <use style="fill:#0000ff;stroke:#0000ff;" x="237.417362" xlink:href="#md1cd54b694" y="174.528"/>
     <use style="fill:#0000ff;stroke:#0000ff;" x="243.746391" xlink:href="#md1cd54b694" y="174.528"/>
     <use style="fill:#0000ff;stroke:#0000ff;" x="251.412092" xlink:href="#md1cd54b694" y="170.371805"/>
     <use style="fill:#0000ff;stroke:#0000ff;" x="247.285508" xlink:href="#md1cd54b694" y="174.528"/>
     <use style="fill:#0000ff;stroke:#0000ff;" x="243.936076" xlink:href="#md1cd54b694" y="171.643242"/>
     <use style="fill:#0000ff;stroke:#0000ff;" x="236.16" xlink:href="#md1cd54b694" y="173.448775"/>
     <use style="fill:#0000ff;stroke:#0000ff;" x="243.888299" xlink:href="#md1cd54b694" y="171.620738"/>
     <use style="fill:#0000ff;stroke:#0000ff;" x="244.103381" xlink:href="#md1cd54b694" y="174.528"/>
     <use style="fill:#0000ff;stroke:#0000ff;" x="243.753624" xlink:href="#md1cd54b694" y="174.123956"/>
     <use style="fill:#0000ff;stroke:#0000ff;" x="240.569403" xlink:href="#md1cd54b694" y="174.528"/>
     <use style="fill:#0000ff;stroke:#0000ff;" x="238.514129" xlink:href="#md1cd54b694" y="174.528"/>
     <use style="fill:#0000ff;stroke:#0000ff;" x="237.086056" xlink:href="#md1cd54b694" y="174.528"/>
     <use style="fill:#0000ff;stroke:#0000ff;" x="239.723395" xlink:href="#md1cd54b694" y="174.312268"/>
     <use style="fill:#0000ff;stroke:#0000ff;" x="251.374983" xlink:href="#md1cd54b694" y="172.585352"/>
     <use style="fill:#0000ff;stroke:#0000ff;" x="244.00653" xlink:href="#md1cd54b694" y="173.167233"/>
     <use style="fill:#0000ff;stroke:#0000ff;" x="241.171442" xlink:href="#md1cd54b694" y="173.752566"/>
     <use style="fill:#0000ff;stroke:#0000ff;" x="236.474762" xlink:href="#md1cd54b694" y="172.321839"/>
     <use style="fill:#0000ff;stroke:#0000ff;" x="250.955336" xlink:href="#md1cd54b694" y="172.472119"/>
     <use style="fill:#0000ff;stroke:#0000ff;" x="236.694174" xlink:href="#md1cd54b694" y="174.205965"/>
     <use style="fill:#0000ff;stroke:#0000ff;" x="240.194923" xlink:href="#md1cd54b694" y="173.310756"/>
     <use style="fill:#0000ff;stroke:#0000ff;" x="237.012548" xlink:href="#md1cd54b694" y="173.962602"/>
     <use style="fill:#0000ff;stroke:#0000ff;" x="251.418245" xlink:href="#md1cd54b694" y="173.404189"/>
     <use style="fill:#0000ff;stroke:#0000ff;" x="240.11505" xlink:href="#md1cd54b694" y="173.525525"/>
     <use style="fill:#0000ff;stroke:#0000ff;" x="247.569959" xlink:href="#md1cd54b694" y="174.528"/>
     <use style="fill:#0000ff;stroke:#0000ff;" x="243.861555" xlink:href="#md1cd54b694" y="170.626028"/>
     <use style="fill:#0000ff;stroke:#0000ff;" x="238.404922" xlink:href="#md1cd54b694" y="172.750253"/>
     <use style="fill:#0000ff;stroke:#0000ff;" x="239.524897" xlink:href="#md1cd54b694" y="174.528"/>
     <use style="fill:#0000ff;stroke:#0000ff;" x="237.760029" xlink:href="#md1cd54b694" y="174.528"/>
     <use style="fill:#0000ff;stroke:#0000ff;" x="244.233533" xlink:href="#md1cd54b694" y="174.528"/>
     <use style="fill:#0000ff;stroke:#0000ff;" x="236.16" xlink:href="#md1cd54b694" y="172.613802"/>
     <use style="fill:#0000ff;stroke:#0000ff;" x="239.55104" xlink:href="#md1cd54b694" y="174.208762"/>
     <use style="fill:#0000ff;stroke:#0000ff;" x="239.970525" xlink:href="#md1cd54b694" y="174.528"/>
     <use style="fill:#0000ff;stroke:#0000ff;" x="239.873701" xlink:href="#md1cd54b694" y="172.411398"/>
     <use style="fill:#0000ff;stroke:#0000ff;" x="239.700181" xlink:href="#md1cd54b694" y="174.528"/>
     <use style="fill:#0000ff;stroke:#0000ff;" x="243.135856" xlink:href="#md1cd54b694" y="170.661818"/>
     <use style="fill:#0000ff;stroke:#0000ff;" x="241.447262" xlink:href="#md1cd54b694" y="174.528"/>
     <use style="fill:#0000ff;stroke:#0000ff;" x="240.572992" xlink:href="#md1cd54b694" y="173.675949"/>
     <use style="fill:#0000ff;stroke:#0000ff;" x="237.139002" xlink:href="#md1cd54b694" y="174.528"/>
     <use style="fill:#0000ff;stroke:#0000ff;" x="243.326646" xlink:href="#md1cd54b694" y="172.408902"/>
     <use style="fill:#0000ff;stroke:#0000ff;" x="236.811989" xlink:href="#md1cd54b694" y="167.561058"/>
     <use style="fill:#0000ff;stroke:#0000ff;" x="236.497995" xlink:href="#md1cd54b694" y="173.582272"/>
     <use style="fill:#0000ff;stroke:#0000ff;" x="236.828488" xlink:href="#md1cd54b694" y="170.392957"/>
     <use style="fill:#0000ff;stroke:#0000ff;" x="240.224035" xlink:href="#md1cd54b694" y="174.528"/>
     <use style="fill:#0000ff;stroke:#0000ff;" x="236.97088" xlink:href="#md1cd54b694" y="174.528"/>
     <use style="fill:#0000ff;stroke:#0000ff;" x="240.634094" xlink:href="#md1cd54b694" y="174.528"/>
     <use style="fill:#0000ff;stroke:#0000ff;" x="251.892274" xlink:href="#md1cd54b694" y="172.484441"/>
     <use style="fill:#0000ff;stroke:#0000ff;" x="251.846056" xlink:href="#md1cd54b694" y="173.031022"/>
     <use style="fill:#0000ff;stroke:#0000ff;" x="247.749435" xlink:href="#md1cd54b694" y="174.528"/>
     <use style="fill:#0000ff;stroke:#0000ff;" x="247.652131" xlink:href="#md1cd54b694" y="173.399814"/>
     <use style="fill:#0000ff;stroke:#0000ff;" x="238.865529" xlink:href="#md1cd54b694" y="173.303507"/>
     <use style="fill:#0000ff;stroke:#0000ff;" x="250.76284" xlink:href="#md1cd54b694" y="173.873734"/>
     <use style="fill:#0000ff;stroke:#0000ff;" x="238.563445" xlink:href="#md1cd54b694" y="174.528"/>
     <use style="fill:#0000ff;stroke:#0000ff;" x="240.432114" xlink:href="#md1cd54b694" y="172.187649"/>
     <use style="fill:#0000ff;stroke:#0000ff;" x="237.92651" xlink:href="#md1cd54b694" y="173.924071"/>
     <use style="fill:#0000ff;stroke:#0000ff;" x="236.16" xlink:href="#md1cd54b694" y="174.528"/>
     <use style="fill:#0000ff;stroke:#0000ff;" x="244.291095" xlink:href="#md1cd54b694" y="173.105669"/>
     <use style="fill:#0000ff;stroke:#0000ff;" x="240.02398" xlink:href="#md1cd54b694" y="173.959622"/>
     <use style="fill:#0000ff;stroke:#0000ff;" x="243.30991" xlink:href="#md1cd54b694" y="170.439703"/>
     <use style="fill:#0000ff;stroke:#0000ff;" x="244.289079" xlink:href="#md1cd54b694" y="174.001051"/>
     <use style="fill:#0000ff;stroke:#0000ff;" x="239.851961" xlink:href="#md1cd54b694" y="173.639139"/>
     <use style="fill:#0000ff;stroke:#0000ff;" x="243.413399" xlink:href="#md1cd54b694" y="173.005963"/>
     <use style="fill:#0000ff;stroke:#0000ff;" x="243.29125" xlink:href="#md1cd54b694" y="174.528"/>
     <use style="fill:#0000ff;stroke:#0000ff;" x="243.667545" xlink:href="#md1cd54b694" y="171.342674"/>
     <use style="fill:#0000ff;stroke:#0000ff;" x="241.248236" xlink:href="#md1cd54b694" y="174.306354"/>
     <use style="fill:#0000ff;stroke:#0000ff;" x="241.077274" xlink:href="#md1cd54b694" y="174.209909"/>
     <use style="fill:#0000ff;stroke:#0000ff;" x="237.45063" xlink:href="#md1cd54b694" y="169.4282"/>
     <use style="fill:#0000ff;stroke:#0000ff;" x="243.713781" xlink:href="#md1cd54b694" y="173.281888"/>
     <use style="fill:#0000ff;stroke:#0000ff;" x="236.796335" xlink:href="#md1cd54b694" y="174.528"/>
     <use style="fill:#0000ff;stroke:#0000ff;" x="236.675789" xlink:href="#md1cd54b694" y="173.757322"/>
     <use style="fill:#0000ff;stroke:#0000ff;" x="236.933668" xlink:href="#md1cd54b694" y="174.117058"/>
     <use style="fill:#0000ff;stroke:#0000ff;" x="237.003721" xlink:href="#md1cd54b694" y="174.528"/>
     <use style="fill:#0000ff;stroke:#0000ff;" x="240.408218" xlink:href="#md1cd54b694" y="174.528"/>
     <use style="fill:#0000ff;stroke:#0000ff;" x="237.098787" xlink:href="#md1cd54b694" y="174.528"/>
     <use style="fill:#0000ff;stroke:#0000ff;" x="241.309214" xlink:href="#md1cd54b694" y="172.270412"/>
     <use style="fill:#0000ff;stroke:#0000ff;" x="240.620771" xlink:href="#md1cd54b694" y="174.01999"/>
     <use style="fill:#0000ff;stroke:#0000ff;" x="251.036686" xlink:href="#md1cd54b694" y="174.236882"/>
     <use style="fill:#0000ff;stroke:#0000ff;" x="240.489033" xlink:href="#md1cd54b694" y="174.528"/>
     <use style="fill:#0000ff;stroke:#0000ff;" x="240.634826" xlink:href="#md1cd54b694" y="173.896358"/>
    </g>
   </g>
   <g id="matplotlib.axis_1">
    <g id="xtick_1">
     <g id="line2d_1">
      <defs>
       <path d="M 0 0 
L 0 3.5 
" id="m835cda452d" style="stroke:#000000;stroke-width:0.8;"/>
      </defs>
      <g>
       <use style="stroke:#000000;stroke-width:0.8;" x="57.6" xlink:href="#m835cda452d" y="307.584"/>
      </g>
     </g>
     <g id="text_1">
      <!-- −10.0 -->
      <defs>
       <path d="M 10.59375 35.5 
L 73.1875 35.5 
L 73.1875 27.203125 
L 10.59375 27.203125 
z
" id="DejaVuSans-2212"/>
       <path d="M 12.40625 8.296875 
L 28.515625 8.296875 
L 28.515625 63.921875 
L 10.984375 60.40625 
L 10.984375 69.390625 
L 28.421875 72.90625 
L 38.28125 72.90625 
L 38.28125 8.296875 
L 54.390625 8.296875 
L 54.390625 0 
L 12.40625 0 
z
" id="DejaVuSans-31"/>
       <path d="M 31.78125 66.40625 
Q 24.171875 66.40625 20.328125 58.90625 
Q 16.5 51.421875 16.5 36.375 
Q 16.5 21.390625 20.328125 13.890625 
Q 24.171875 6.390625 31.78125 6.390625 
Q 39.453125 6.390625 43.28125 13.890625 
Q 47.125 21.390625 47.125 36.375 
Q 47.125 51.421875 43.28125 58.90625 
Q 39.453125 66.40625 31.78125 66.40625 
z
M 31.78125 74.21875 
Q 44.046875 74.21875 50.515625 64.515625 
Q 56.984375 54.828125 56.984375 36.375 
Q 56.984375 17.96875 50.515625 8.265625 
Q 44.046875 -1.421875 31.78125 -1.421875 
Q 19.53125 -1.421875 13.0625 8.265625 
Q 6.59375 17.96875 6.59375 36.375 
Q 6.59375 54.828125 13.0625 64.515625 
Q 19.53125 74.21875 31.78125 74.21875 
z
" id="DejaVuSans-30"/>
       <path d="M 10.6875 12.40625 
L 21 12.40625 
L 21 0 
L 10.6875 0 
z
" id="DejaVuSans-2e"/>
      </defs>
      <g transform="translate(42.277344 322.182437)scale(0.1 -0.1)">
       <use xlink:href="#DejaVuSans-2212"/>
       <use x="83.789062" xlink:href="#DejaVuSans-31"/>
       <use x="147.412109" xlink:href="#DejaVuSans-30"/>
       <use x="211.035156" xlink:href="#DejaVuSans-2e"/>
       <use x="242.822266" xlink:href="#DejaVuSans-30"/>
      </g>
     </g>
    </g>
    <g id="xtick_2">
     <g id="line2d_2">
      <g>
       <use style="stroke:#000000;stroke-width:0.8;" x="102.24" xlink:href="#m835cda452d" y="307.584"/>
      </g>
     </g>
     <g id="text_2">
      <!-- −7.5 -->
      <defs>
       <path d="M 8.203125 72.90625 
L 55.078125 72.90625 
L 55.078125 68.703125 
L 28.609375 0 
L 18.3125 0 
L 43.21875 64.59375 
L 8.203125 64.59375 
z
" id="DejaVuSans-37"/>
       <path d="M 10.796875 72.90625 
L 49.515625 72.90625 
L 49.515625 64.59375 
L 19.828125 64.59375 
L 19.828125 46.734375 
Q 21.96875 47.46875 24.109375 47.828125 
Q 26.265625 48.1875 28.421875 48.1875 
Q 40.625 48.1875 47.75 41.5 
Q 54.890625 34.8125 54.890625 23.390625 
Q 54.890625 11.625 47.5625 5.09375 
Q 40.234375 -1.421875 26.90625 -1.421875 
Q 22.3125 -1.421875 17.546875 -0.640625 
Q 12.796875 0.140625 7.71875 1.703125 
L 7.71875 11.625 
Q 12.109375 9.234375 16.796875 8.0625 
Q 21.484375 6.890625 26.703125 6.890625 
Q 35.15625 6.890625 40.078125 11.328125 
Q 45.015625 15.765625 45.015625 23.390625 
Q 45.015625 31 40.078125 35.4375 
Q 35.15625 39.890625 26.703125 39.890625 
Q 22.75 39.890625 18.8125 39.015625 
Q 14.890625 38.140625 10.796875 36.28125 
z
" id="DejaVuSans-35"/>
      </defs>
      <g transform="translate(90.098594 322.182437)scale(0.1 -0.1)">
       <use xlink:href="#DejaVuSans-2212"/>
       <use x="83.789062" xlink:href="#DejaVuSans-37"/>
       <use x="147.412109" xlink:href="#DejaVuSans-2e"/>
       <use x="179.199219" xlink:href="#DejaVuSans-35"/>
      </g>
     </g>
    </g>
    <g id="xtick_3">
     <g id="line2d_3">
      <g>
       <use style="stroke:#000000;stroke-width:0.8;" x="146.88" xlink:href="#m835cda452d" y="307.584"/>
      </g>
     </g>
     <g id="text_3">
      <!-- −5.0 -->
      <g transform="translate(134.738594 322.182437)scale(0.1 -0.1)">
       <use xlink:href="#DejaVuSans-2212"/>
       <use x="83.789062" xlink:href="#DejaVuSans-35"/>
       <use x="147.412109" xlink:href="#DejaVuSans-2e"/>
       <use x="179.199219" xlink:href="#DejaVuSans-30"/>
      </g>
     </g>
    </g>
    <g id="xtick_4">
     <g id="line2d_4">
      <g>
       <use style="stroke:#000000;stroke-width:0.8;" x="191.52" xlink:href="#m835cda452d" y="307.584"/>
      </g>
     </g>
     <g id="text_4">
      <!-- −2.5 -->
      <defs>
       <path d="M 19.1875 8.296875 
L 53.609375 8.296875 
L 53.609375 0 
L 7.328125 0 
L 7.328125 8.296875 
Q 12.9375 14.109375 22.625 23.890625 
Q 32.328125 33.6875 34.8125 36.53125 
Q 39.546875 41.84375 41.421875 45.53125 
Q 43.3125 49.21875 43.3125 52.78125 
Q 43.3125 58.59375 39.234375 62.25 
Q 35.15625 65.921875 28.609375 65.921875 
Q 23.96875 65.921875 18.8125 64.3125 
Q 13.671875 62.703125 7.8125 59.421875 
L 7.8125 69.390625 
Q 13.765625 71.78125 18.9375 73 
Q 24.125 74.21875 28.421875 74.21875 
Q 39.75 74.21875 46.484375 68.546875 
Q 53.21875 62.890625 53.21875 53.421875 
Q 53.21875 48.921875 51.53125 44.890625 
Q 49.859375 40.875 45.40625 35.40625 
Q 44.1875 33.984375 37.640625 27.21875 
Q 31.109375 20.453125 19.1875 8.296875 
z
" id="DejaVuSans-32"/>
      </defs>
      <g transform="translate(179.378594 322.182437)scale(0.1 -0.1)">
       <use xlink:href="#DejaVuSans-2212"/>
       <use x="83.789062" xlink:href="#DejaVuSans-32"/>
       <use x="147.412109" xlink:href="#DejaVuSans-2e"/>
       <use x="179.199219" xlink:href="#DejaVuSans-35"/>
      </g>
     </g>
    </g>
    <g id="xtick_5">
     <g id="line2d_5">
      <g>
       <use style="stroke:#000000;stroke-width:0.8;" x="236.16" xlink:href="#m835cda452d" y="307.584"/>
      </g>
     </g>
     <g id="text_5">
      <!-- 0.0 -->
      <g transform="translate(228.208438 322.182437)scale(0.1 -0.1)">
       <use xlink:href="#DejaVuSans-30"/>
       <use x="63.623047" xlink:href="#DejaVuSans-2e"/>
       <use x="95.410156" xlink:href="#DejaVuSans-30"/>
      </g>
     </g>
    </g>
    <g id="xtick_6">
     <g id="line2d_6">
      <g>
       <use style="stroke:#000000;stroke-width:0.8;" x="280.8" xlink:href="#m835cda452d" y="307.584"/>
      </g>
     </g>
     <g id="text_6">
      <!-- 2.5 -->
      <g transform="translate(272.848437 322.182437)scale(0.1 -0.1)">
       <use xlink:href="#DejaVuSans-32"/>
       <use x="63.623047" xlink:href="#DejaVuSans-2e"/>
       <use x="95.410156" xlink:href="#DejaVuSans-35"/>
      </g>
     </g>
    </g>
    <g id="xtick_7">
     <g id="line2d_7">
      <g>
       <use style="stroke:#000000;stroke-width:0.8;" x="325.44" xlink:href="#m835cda452d" y="307.584"/>
      </g>
     </g>
     <g id="text_7">
      <!-- 5.0 -->
      <g transform="translate(317.488437 322.182437)scale(0.1 -0.1)">
       <use xlink:href="#DejaVuSans-35"/>
       <use x="63.623047" xlink:href="#DejaVuSans-2e"/>
       <use x="95.410156" xlink:href="#DejaVuSans-30"/>
      </g>
     </g>
    </g>
    <g id="xtick_8">
     <g id="line2d_8">
      <g>
       <use style="stroke:#000000;stroke-width:0.8;" x="370.08" xlink:href="#m835cda452d" y="307.584"/>
      </g>
     </g>
     <g id="text_8">
      <!-- 7.5 -->
      <g transform="translate(362.128438 322.182437)scale(0.1 -0.1)">
       <use xlink:href="#DejaVuSans-37"/>
       <use x="63.623047" xlink:href="#DejaVuSans-2e"/>
       <use x="95.410156" xlink:href="#DejaVuSans-35"/>
      </g>
     </g>
    </g>
    <g id="xtick_9">
     <g id="line2d_9">
      <g>
       <use style="stroke:#000000;stroke-width:0.8;" x="414.72" xlink:href="#m835cda452d" y="307.584"/>
      </g>
     </g>
     <g id="text_9">
      <!-- 10.0 -->
      <g transform="translate(403.587188 322.182437)scale(0.1 -0.1)">
       <use xlink:href="#DejaVuSans-31"/>
       <use x="63.623047" xlink:href="#DejaVuSans-30"/>
       <use x="127.246094" xlink:href="#DejaVuSans-2e"/>
       <use x="159.033203" xlink:href="#DejaVuSans-30"/>
      </g>
     </g>
    </g>
   </g>
   <g id="matplotlib.axis_2">
    <g id="ytick_1">
     <g id="line2d_10">
      <defs>
       <path d="M 0 0 
L -3.5 0 
" id="m5385b20ff6" style="stroke:#000000;stroke-width:0.8;"/>
      </defs>
      <g>
       <use style="stroke:#000000;stroke-width:0.8;" x="57.6" xlink:href="#m5385b20ff6" y="307.584"/>
      </g>
     </g>
     <g id="text_10">
      <!-- −10.0 -->
      <g transform="translate(19.954687 311.383219)scale(0.1 -0.1)">
       <use xlink:href="#DejaVuSans-2212"/>
       <use x="83.789062" xlink:href="#DejaVuSans-31"/>
       <use x="147.412109" xlink:href="#DejaVuSans-30"/>
       <use x="211.035156" xlink:href="#DejaVuSans-2e"/>
       <use x="242.822266" xlink:href="#DejaVuSans-30"/>
      </g>
     </g>
    </g>
    <g id="ytick_2">
     <g id="line2d_11">
      <g>
       <use style="stroke:#000000;stroke-width:0.8;" x="57.6" xlink:href="#m5385b20ff6" y="274.32"/>
      </g>
     </g>
     <g id="text_11">
      <!-- −7.5 -->
      <g transform="translate(26.317187 278.119219)scale(0.1 -0.1)">
       <use xlink:href="#DejaVuSans-2212"/>
       <use x="83.789062" xlink:href="#DejaVuSans-37"/>
       <use x="147.412109" xlink:href="#DejaVuSans-2e"/>
       <use x="179.199219" xlink:href="#DejaVuSans-35"/>
      </g>
     </g>
    </g>
    <g id="ytick_3">
     <g id="line2d_12">
      <g>
       <use style="stroke:#000000;stroke-width:0.8;" x="57.6" xlink:href="#m5385b20ff6" y="241.056"/>
      </g>
     </g>
     <g id="text_12">
      <!-- −5.0 -->
      <g transform="translate(26.317187 244.855219)scale(0.1 -0.1)">
       <use xlink:href="#DejaVuSans-2212"/>
       <use x="83.789062" xlink:href="#DejaVuSans-35"/>
       <use x="147.412109" xlink:href="#DejaVuSans-2e"/>
       <use x="179.199219" xlink:href="#DejaVuSans-30"/>
      </g>
     </g>
    </g>
    <g id="ytick_4">
     <g id="line2d_13">
      <g>
       <use style="stroke:#000000;stroke-width:0.8;" x="57.6" xlink:href="#m5385b20ff6" y="207.792"/>
      </g>
     </g>
     <g id="text_13">
      <!-- −2.5 -->
      <g transform="translate(26.317187 211.591219)scale(0.1 -0.1)">
       <use xlink:href="#DejaVuSans-2212"/>
       <use x="83.789062" xlink:href="#DejaVuSans-32"/>
       <use x="147.412109" xlink:href="#DejaVuSans-2e"/>
       <use x="179.199219" xlink:href="#DejaVuSans-35"/>
      </g>
     </g>
    </g>
    <g id="ytick_5">
     <g id="line2d_14">
      <g>
       <use style="stroke:#000000;stroke-width:0.8;" x="57.6" xlink:href="#m5385b20ff6" y="174.528"/>
      </g>
     </g>
     <g id="text_14">
      <!-- 0.0 -->
      <g transform="translate(34.696875 178.327219)scale(0.1 -0.1)">
       <use xlink:href="#DejaVuSans-30"/>
       <use x="63.623047" xlink:href="#DejaVuSans-2e"/>
       <use x="95.410156" xlink:href="#DejaVuSans-30"/>
      </g>
     </g>
    </g>
    <g id="ytick_6">
     <g id="line2d_15">
      <g>
       <use style="stroke:#000000;stroke-width:0.8;" x="57.6" xlink:href="#m5385b20ff6" y="141.264"/>
      </g>
     </g>
     <g id="text_15">
      <!-- 2.5 -->
      <g transform="translate(34.696875 145.063219)scale(0.1 -0.1)">
       <use xlink:href="#DejaVuSans-32"/>
       <use x="63.623047" xlink:href="#DejaVuSans-2e"/>
       <use x="95.410156" xlink:href="#DejaVuSans-35"/>
      </g>
     </g>
    </g>
    <g id="ytick_7">
     <g id="line2d_16">
      <g>
       <use style="stroke:#000000;stroke-width:0.8;" x="57.6" xlink:href="#m5385b20ff6" y="108"/>
      </g>
     </g>
     <g id="text_16">
      <!-- 5.0 -->
      <g transform="translate(34.696875 111.799219)scale(0.1 -0.1)">
       <use xlink:href="#DejaVuSans-35"/>
       <use x="63.623047" xlink:href="#DejaVuSans-2e"/>
       <use x="95.410156" xlink:href="#DejaVuSans-30"/>
      </g>
     </g>
    </g>
    <g id="ytick_8">
     <g id="line2d_17">
      <g>
       <use style="stroke:#000000;stroke-width:0.8;" x="57.6" xlink:href="#m5385b20ff6" y="74.736"/>
      </g>
     </g>
     <g id="text_17">
      <!-- 7.5 -->
      <g transform="translate(34.696875 78.535219)scale(0.1 -0.1)">
       <use xlink:href="#DejaVuSans-37"/>
       <use x="63.623047" xlink:href="#DejaVuSans-2e"/>
       <use x="95.410156" xlink:href="#DejaVuSans-35"/>
      </g>
     </g>
    </g>
    <g id="ytick_9">
     <g id="line2d_18">
      <g>
       <use style="stroke:#000000;stroke-width:0.8;" x="57.6" xlink:href="#m5385b20ff6" y="41.472"/>
      </g>
     </g>
     <g id="text_18">
      <!-- 10.0 -->
      <g transform="translate(28.334375 45.271219)scale(0.1 -0.1)">
       <use xlink:href="#DejaVuSans-31"/>
       <use x="63.623047" xlink:href="#DejaVuSans-30"/>
       <use x="127.246094" xlink:href="#DejaVuSans-2e"/>
       <use x="159.033203" xlink:href="#DejaVuSans-30"/>
      </g>
     </g>
    </g>
   </g>
   <g id="patch_3">
    <path d="M 57.6 307.584 
L 57.6 41.472 
" style="fill:none;stroke:#000000;stroke-linecap:square;stroke-linejoin:miter;stroke-width:0.8;"/>
   </g>
   <g id="patch_4">
    <path d="M 414.72 307.584 
L 414.72 41.472 
" style="fill:none;stroke:#000000;stroke-linecap:square;stroke-linejoin:miter;stroke-width:0.8;"/>
   </g>
   <g id="patch_5">
    <path d="M 57.6 307.584 
L 414.72 307.584 
" style="fill:none;stroke:#000000;stroke-linecap:square;stroke-linejoin:miter;stroke-width:0.8;"/>
   </g>
   <g id="patch_6">
    <path d="M 57.6 41.472 
L 414.72 41.472 
" style="fill:none;stroke:#000000;stroke-linecap:square;stroke-linejoin:miter;stroke-width:0.8;"/>
   </g>
  </g>
 </g>
 <defs>
  <clipPath id="p61302bd881">
   <rect height="266.112" width="357.12" x="57.6" y="41.472"/>
  </clipPath>
 </defs>
</svg>
