<?xml version="1.0" encoding="utf-8" standalone="no"?>
<!DOCTYPE svg PUBLIC "-//W3C//DTD SVG 1.1//EN"
  "http://www.w3.org/Graphics/SVG/1.1/DTD/svg11.dtd">
<!-- Created with matplotlib (http://matplotlib.org/) -->
<svg height="345.6pt" version="1.1" viewBox="0 0 460.8 345.6" width="460.8pt" xmlns="http://www.w3.org/2000/svg" xmlns:xlink="http://www.w3.org/1999/xlink">
 <defs>
  <style type="text/css">
*{stroke-linecap:butt;stroke-linejoin:round;}
  </style>
 </defs>
 <g id="figure_1">
  <g id="patch_1">
   <path d="M 0 345.6 
L 460.8 345.6 
L 460.8 0 
L 0 0 
z
" style="fill:#ffffff;"/>
  </g>
  <g id="axes_1">
   <g id="patch_2">
    <path d="M 57.6 307.584 
L 414.72 307.584 
L 414.72 41.472 
L 57.6 41.472 
z
" style="fill:#ffffff;"/>
   </g>
   <g id="PathCollection_1">
    <defs>
     <path d="M 0 0.612372 
C 0.162403 0.612372 0.318176 0.547849 0.433013 0.433013 
C 0.547849 0.318176 0.612372 0.162403 0.612372 0 
C 0.612372 -0.162403 0.547849 -0.318176 0.433013 -0.433013 
C 0.318176 -0.547849 0.162403 -0.612372 0 -0.612372 
C -0.162403 -0.612372 -0.318176 -0.547849 -0.433013 -0.433013 
C -0.547849 -0.318176 -0.612372 -0.162403 -0.612372 0 
C -0.612372 0.162403 -0.547849 0.318176 -0.433013 0.433013 
C -0.318176 0.547849 -0.162403 0.612372 0 0.612372 
z
" id="mcdcab4f53f" style="stroke:#000000;"/>
    </defs>
    <g clip-path="url(#p5112127226)">
     <use style="stroke:#000000;" x="236.16" xlink:href="#mcdcab4f53f" y="159.526667"/>
     <use style="stroke:#000000;" x="236.16" xlink:href="#mcdcab4f53f" y="134.6112"/>
     <use style="stroke:#000000;" x="236.16" xlink:href="#mcdcab4f53f" y="172.561163"/>
     <use style="stroke:#000000;" x="236.16" xlink:href="#mcdcab4f53f" y="174.528"/>
     <use style="stroke:#000000;" x="236.16" xlink:href="#mcdcab4f53f" y="141.058225"/>
     <use style="stroke:#000000;" x="325.44" xlink:href="#mcdcab4f53f" y="142.175733"/>
     <use style="stroke:#000000;" x="255.019646" xlink:href="#mcdcab4f53f" y="174.528"/>
     <use style="stroke:#000000;" x="236.16" xlink:href="#mcdcab4f53f" y="134.6112"/>
     <use style="stroke:#000000;" x="240.106143" xlink:href="#mcdcab4f53f" y="174.528"/>
     <use style="stroke:#000000;" x="236.16" xlink:href="#mcdcab4f53f" y="163.723797"/>
     <use style="stroke:#000000;" x="236.16" xlink:href="#mcdcab4f53f" y="174.528"/>
     <use style="stroke:#000000;" x="236.16" xlink:href="#mcdcab4f53f" y="147.806594"/>
     <use style="stroke:#000000;" x="236.16" xlink:href="#mcdcab4f53f" y="147.955218"/>
     <use style="stroke:#000000;" x="236.16" xlink:href="#mcdcab4f53f" y="150.313401"/>
     <use style="stroke:#000000;" x="325.44" xlink:href="#mcdcab4f53f" y="140.736768"/>
     <use style="stroke:#000000;" x="236.16" xlink:href="#mcdcab4f53f" y="170.072867"/>
     <use style="stroke:#000000;" x="236.16" xlink:href="#mcdcab4f53f" y="145.034124"/>
     <use style="stroke:#000000;" x="236.16" xlink:href="#mcdcab4f53f" y="150.935124"/>
     <use style="stroke:#000000;" x="236.16" xlink:href="#mcdcab4f53f" y="143.975966"/>
     <use style="stroke:#000000;" x="236.16" xlink:href="#mcdcab4f53f" y="142.435865"/>
     <use style="stroke:#000000;" x="325.44" xlink:href="#mcdcab4f53f" y="143.998845"/>
     <use style="stroke:#000000;" x="321.885286" xlink:href="#mcdcab4f53f" y="174.528"/>
     <use style="stroke:#000000;" x="236.16" xlink:href="#mcdcab4f53f" y="139.295179"/>
     <use style="stroke:#000000;" x="265.870376" xlink:href="#mcdcab4f53f" y="174.528"/>
     <use style="stroke:#000000;" x="236.16" xlink:href="#mcdcab4f53f" y="134.6112"/>
     <use style="stroke:#000000;" x="304.775217" xlink:href="#mcdcab4f53f" y="174.528"/>
     <use style="stroke:#000000;" x="325.44" xlink:href="#mcdcab4f53f" y="171.318227"/>
     <use style="stroke:#000000;" x="236.16" xlink:href="#mcdcab4f53f" y="134.6112"/>
     <use style="stroke:#000000;" x="236.16" xlink:href="#mcdcab4f53f" y="165.22391"/>
     <use style="stroke:#000000;" x="236.16" xlink:href="#mcdcab4f53f" y="155.877912"/>
     <use style="stroke:#000000;" x="236.16" xlink:href="#mcdcab4f53f" y="150.493043"/>
     <use style="stroke:#000000;" x="236.16" xlink:href="#mcdcab4f53f" y="159.35726"/>
     <use style="stroke:#000000;" x="250.45418" xlink:href="#mcdcab4f53f" y="174.528"/>
     <use style="stroke:#000000;" x="236.16" xlink:href="#mcdcab4f53f" y="141.217429"/>
     <use style="stroke:#000000;" x="273.106625" xlink:href="#mcdcab4f53f" y="174.528"/>
     <use style="stroke:#000000;" x="256.911715" xlink:href="#mcdcab4f53f" y="174.528"/>
     <use style="stroke:#000000;" x="238.269591" xlink:href="#mcdcab4f53f" y="174.528"/>
     <use style="stroke:#000000;" x="325.44" xlink:href="#mcdcab4f53f" y="142.504809"/>
     <use style="stroke:#000000;" x="247.553536" xlink:href="#mcdcab4f53f" y="174.528"/>
     <use style="stroke:#000000;" x="325.44" xlink:href="#mcdcab4f53f" y="153.300602"/>
     <use style="stroke:#000000;" x="236.16" xlink:href="#mcdcab4f53f" y="134.6112"/>
     <use style="stroke:#000000;" x="325.44" xlink:href="#mcdcab4f53f" y="136.479949"/>
     <use style="stroke:#000000;" x="236.16" xlink:href="#mcdcab4f53f" y="174.528"/>
     <use style="stroke:#000000;" x="325.44" xlink:href="#mcdcab4f53f" y="146.311296"/>
     <use style="stroke:#000000;" x="236.16" xlink:href="#mcdcab4f53f" y="169.022272"/>
     <use style="stroke:#000000;" x="265.10093" xlink:href="#mcdcab4f53f" y="174.528"/>
     <use style="stroke:#000000;" x="242.429072" xlink:href="#mcdcab4f53f" y="174.528"/>
     <use style="stroke:#000000;" x="325.44" xlink:href="#mcdcab4f53f" y="158.213463"/>
     <use style="stroke:#000000;" x="312.023915" xlink:href="#mcdcab4f53f" y="174.528"/>
     <use style="stroke:#000000;" x="325.44" xlink:href="#mcdcab4f53f" y="174.528"/>
     <use style="stroke:#000000;" x="236.16" xlink:href="#mcdcab4f53f" y="173.968014"/>
     <use style="stroke:#000000;" x="236.16" xlink:href="#mcdcab4f53f" y="142.144538"/>
     <use style="stroke:#000000;" x="325.44" xlink:href="#mcdcab4f53f" y="147.462241"/>
     <use style="stroke:#000000;" x="260.515456" xlink:href="#mcdcab4f53f" y="174.454587"/>
     <use style="stroke:#000000;" x="236.16" xlink:href="#mcdcab4f53f" y="165.029518"/>
     <use style="stroke:#000000;" x="236.16" xlink:href="#mcdcab4f53f" y="141.767591"/>
     <use style="stroke:#000000;" x="236.16" xlink:href="#mcdcab4f53f" y="171.202165"/>
     <use style="stroke:#000000;" x="236.16" xlink:href="#mcdcab4f53f" y="146.633483"/>
     <use style="stroke:#000000;" x="236.16" xlink:href="#mcdcab4f53f" y="151.26883"/>
     <use style="stroke:#000000;" x="269.658741" xlink:href="#mcdcab4f53f" y="174.528"/>
     <use style="stroke:#000000;" x="236.16" xlink:href="#mcdcab4f53f" y="153.437538"/>
     <use style="stroke:#000000;" x="236.16" xlink:href="#mcdcab4f53f" y="171.365264"/>
     <use style="stroke:#000000;" x="236.176743" xlink:href="#mcdcab4f53f" y="138.007182"/>
     <use style="stroke:#000000;" x="236.16" xlink:href="#mcdcab4f53f" y="153.904449"/>
     <use style="stroke:#000000;" x="238.221028" xlink:href="#mcdcab4f53f" y="174.528"/>
     <use style="stroke:#000000;" x="236.16" xlink:href="#mcdcab4f53f" y="165.983747"/>
     <use style="stroke:#000000;" x="236.16" xlink:href="#mcdcab4f53f" y="134.6112"/>
     <use style="stroke:#000000;" x="236.16" xlink:href="#mcdcab4f53f" y="169.098713"/>
     <use style="stroke:#000000;" x="236.16" xlink:href="#mcdcab4f53f" y="135.67557"/>
     <use style="stroke:#000000;" x="236.16" xlink:href="#mcdcab4f53f" y="134.6112"/>
     <use style="stroke:#000000;" x="236.16" xlink:href="#mcdcab4f53f" y="139.411351"/>
     <use style="stroke:#000000;" x="236.16" xlink:href="#mcdcab4f53f" y="145.445302"/>
     <use style="stroke:#000000;" x="236.16" xlink:href="#mcdcab4f53f" y="137.424287"/>
     <use style="stroke:#000000;" x="236.16" xlink:href="#mcdcab4f53f" y="139.943041"/>
     <use style="stroke:#000000;" x="236.16" xlink:href="#mcdcab4f53f" y="143.298488"/>
     <use style="stroke:#000000;" x="236.16" xlink:href="#mcdcab4f53f" y="167.326467"/>
     <use style="stroke:#000000;" x="236.16" xlink:href="#mcdcab4f53f" y="134.6112"/>
     <use style="stroke:#000000;" x="236.16" xlink:href="#mcdcab4f53f" y="139.159415"/>
     <use style="stroke:#000000;" x="236.16" xlink:href="#mcdcab4f53f" y="135.858599"/>
     <use style="stroke:#000000;" x="236.16" xlink:href="#mcdcab4f53f" y="134.6112"/>
     <use style="stroke:#000000;" x="236.16" xlink:href="#mcdcab4f53f" y="153.052557"/>
     <use style="stroke:#000000;" x="236.16" xlink:href="#mcdcab4f53f" y="136.037623"/>
     <use style="stroke:#000000;" x="240.671515" xlink:href="#mcdcab4f53f" y="134.6112"/>
     <use style="stroke:#000000;" x="241.860356" xlink:href="#mcdcab4f53f" y="134.6112"/>
     <use style="stroke:#000000;" x="236.16" xlink:href="#mcdcab4f53f" y="134.6112"/>
     <use style="stroke:#000000;" x="236.16" xlink:href="#mcdcab4f53f" y="173.343873"/>
     <use style="stroke:#000000;" x="247.305201" xlink:href="#mcdcab4f53f" y="172.708261"/>
     <use style="stroke:#000000;" x="236.16" xlink:href="#mcdcab4f53f" y="174.528"/>
     <use style="stroke:#000000;" x="238.404719" xlink:href="#mcdcab4f53f" y="174.528"/>
     <use style="stroke:#000000;" x="236.16" xlink:href="#mcdcab4f53f" y="174.528"/>
     <use style="stroke:#000000;" x="244.055526" xlink:href="#mcdcab4f53f" y="174.528"/>
     <use style="stroke:#000000;" x="240.471594" xlink:href="#mcdcab4f53f" y="145.337294"/>
     <use style="stroke:#000000;" x="237.925313" xlink:href="#mcdcab4f53f" y="137.728561"/>
     <use style="stroke:#000000;" x="237.142886" xlink:href="#mcdcab4f53f" y="141.171296"/>
     <use style="stroke:#000000;" x="316.616131" xlink:href="#mcdcab4f53f" y="138.723835"/>
     <use style="stroke:#000000;" x="325.15812" xlink:href="#mcdcab4f53f" y="140.274083"/>
     <use style="stroke:#000000;" x="316.881475" xlink:href="#mcdcab4f53f" y="137.854967"/>
     <use style="stroke:#000000;" x="255.169878" xlink:href="#mcdcab4f53f" y="170.370287"/>
     <use style="stroke:#000000;" x="249.276378" xlink:href="#mcdcab4f53f" y="174.528"/>
     <use style="stroke:#000000;" x="243.152528" xlink:href="#mcdcab4f53f" y="174.528"/>
     <use style="stroke:#000000;" x="249.195645" xlink:href="#mcdcab4f53f" y="136.358926"/>
     <use style="stroke:#000000;" x="236.16" xlink:href="#mcdcab4f53f" y="135.877903"/>
     <use style="stroke:#000000;" x="242.476443" xlink:href="#mcdcab4f53f" y="134.6112"/>
     <use style="stroke:#000000;" x="243.352945" xlink:href="#mcdcab4f53f" y="174.528"/>
     <use style="stroke:#000000;" x="237.265343" xlink:href="#mcdcab4f53f" y="174.380674"/>
     <use style="stroke:#000000;" x="236.16" xlink:href="#mcdcab4f53f" y="170.439819"/>
     <use style="stroke:#000000;" x="236.16" xlink:href="#mcdcab4f53f" y="158.621526"/>
     <use style="stroke:#000000;" x="243.040377" xlink:href="#mcdcab4f53f" y="163.84936"/>
     <use style="stroke:#000000;" x="238.047845" xlink:href="#mcdcab4f53f" y="160.739403"/>
     <use style="stroke:#000000;" x="236.16" xlink:href="#mcdcab4f53f" y="174.528"/>
     <use style="stroke:#000000;" x="250.843582" xlink:href="#mcdcab4f53f" y="174.528"/>
     <use style="stroke:#000000;" x="241.446754" xlink:href="#mcdcab4f53f" y="172.75159"/>
     <use style="stroke:#000000;" x="249.424715" xlink:href="#mcdcab4f53f" y="147.56219"/>
     <use style="stroke:#000000;" x="236.972037" xlink:href="#mcdcab4f53f" y="148.582512"/>
     <use style="stroke:#000000;" x="237.844222" xlink:href="#mcdcab4f53f" y="152.570823"/>
     <use style="stroke:#000000;" x="236.16" xlink:href="#mcdcab4f53f" y="149.756153"/>
     <use style="stroke:#000000;" x="236.771161" xlink:href="#mcdcab4f53f" y="148.154787"/>
     <use style="stroke:#000000;" x="236.16" xlink:href="#mcdcab4f53f" y="145.79093"/>
     <use style="stroke:#000000;" x="238.341899" xlink:href="#mcdcab4f53f" y="154.671456"/>
     <use style="stroke:#000000;" x="236.16" xlink:href="#mcdcab4f53f" y="151.502824"/>
     <use style="stroke:#000000;" x="236.16" xlink:href="#mcdcab4f53f" y="148.487163"/>
     <use style="stroke:#000000;" x="325.44" xlink:href="#mcdcab4f53f" y="139.686035"/>
     <use style="stroke:#000000;" x="316.843871" xlink:href="#mcdcab4f53f" y="142.27687"/>
     <use style="stroke:#000000;" x="313.919186" xlink:href="#mcdcab4f53f" y="139.116323"/>
     <use style="stroke:#000000;" x="236.16" xlink:href="#mcdcab4f53f" y="174.528"/>
     <use style="stroke:#000000;" x="236.16" xlink:href="#mcdcab4f53f" y="172.490655"/>
     <use style="stroke:#000000;" x="236.16" xlink:href="#mcdcab4f53f" y="168.831943"/>
     <use style="stroke:#000000;" x="237.716233" xlink:href="#mcdcab4f53f" y="149.267115"/>
     <use style="stroke:#000000;" x="240.795372" xlink:href="#mcdcab4f53f" y="143.492324"/>
     <use style="stroke:#000000;" x="243.347428" xlink:href="#mcdcab4f53f" y="146.459922"/>
     <use style="stroke:#000000;" x="236.16" xlink:href="#mcdcab4f53f" y="149.298889"/>
     <use style="stroke:#000000;" x="238.080426" xlink:href="#mcdcab4f53f" y="155.804719"/>
     <use style="stroke:#000000;" x="236.16" xlink:href="#mcdcab4f53f" y="147.249124"/>
     <use style="stroke:#000000;" x="243.890039" xlink:href="#mcdcab4f53f" y="140.239884"/>
     <use style="stroke:#000000;" x="236.16" xlink:href="#mcdcab4f53f" y="140.99936"/>
     <use style="stroke:#000000;" x="236.16" xlink:href="#mcdcab4f53f" y="139.600634"/>
     <use style="stroke:#000000;" x="236.16" xlink:href="#mcdcab4f53f" y="142.753664"/>
     <use style="stroke:#000000;" x="325.44" xlink:href="#mcdcab4f53f" y="145.800812"/>
     <use style="stroke:#000000;" x="325.44" xlink:href="#mcdcab4f53f" y="149.245501"/>
     <use style="stroke:#000000;" x="319.688938" xlink:href="#mcdcab4f53f" y="150.623732"/>
     <use style="stroke:#000000;" x="325.44" xlink:href="#mcdcab4f53f" y="173.677198"/>
     <use style="stroke:#000000;" x="325.44" xlink:href="#mcdcab4f53f" y="174.03309"/>
     <use style="stroke:#000000;" x="311.284344" xlink:href="#mcdcab4f53f" y="174.528"/>
     <use style="stroke:#000000;" x="236.16" xlink:href="#mcdcab4f53f" y="134.6112"/>
     <use style="stroke:#000000;" x="238.032067" xlink:href="#mcdcab4f53f" y="138.248657"/>
     <use style="stroke:#000000;" x="238.552522" xlink:href="#mcdcab4f53f" y="136.686867"/>
     <use style="stroke:#000000;" x="263.029449" xlink:href="#mcdcab4f53f" y="173.385762"/>
     <use style="stroke:#000000;" x="254.116901" xlink:href="#mcdcab4f53f" y="174.528"/>
     <use style="stroke:#000000;" x="264.873535" xlink:href="#mcdcab4f53f" y="170.284102"/>
     <use style="stroke:#000000;" x="238.968424" xlink:href="#mcdcab4f53f" y="134.6112"/>
     <use style="stroke:#000000;" x="236.16" xlink:href="#mcdcab4f53f" y="134.6112"/>
     <use style="stroke:#000000;" x="250.536601" xlink:href="#mcdcab4f53f" y="134.6112"/>
     <use style="stroke:#000000;" x="306.380828" xlink:href="#mcdcab4f53f" y="174.528"/>
     <use style="stroke:#000000;" x="324.706423" xlink:href="#mcdcab4f53f" y="170.839505"/>
     <use style="stroke:#000000;" x="310.90699" xlink:href="#mcdcab4f53f" y="172.136447"/>
     <use style="stroke:#000000;" x="325.44" xlink:href="#mcdcab4f53f" y="174.528"/>
     <use style="stroke:#000000;" x="244.409297" xlink:href="#mcdcab4f53f" y="138.688865"/>
     <use style="stroke:#000000;" x="236.16" xlink:href="#mcdcab4f53f" y="162.765333"/>
     <use style="stroke:#000000;" x="236.16" xlink:href="#mcdcab4f53f" y="166.229265"/>
     <use style="stroke:#000000;" x="239.608882" xlink:href="#mcdcab4f53f" y="162.215547"/>
     <use style="stroke:#000000;" x="236.16" xlink:href="#mcdcab4f53f" y="156.802215"/>
     <use style="stroke:#000000;" x="236.16" xlink:href="#mcdcab4f53f" y="151.623741"/>
     <use style="stroke:#000000;" x="236.16" xlink:href="#mcdcab4f53f" y="162.069408"/>
     <use style="stroke:#000000;" x="236.433289" xlink:href="#mcdcab4f53f" y="169.633209"/>
     <use style="stroke:#000000;" x="236.16" xlink:href="#mcdcab4f53f" y="159.40245"/>
     <use style="stroke:#000000;" x="285.400756" xlink:href="#mcdcab4f53f" y="174.170391"/>
     <use style="stroke:#000000;" x="248.589193" xlink:href="#mcdcab4f53f" y="145.183614"/>
     <use style="stroke:#000000;" x="240.126163" xlink:href="#mcdcab4f53f" y="140.611003"/>
     <use style="stroke:#000000;" x="236.16" xlink:href="#mcdcab4f53f" y="136.676871"/>
     <use style="stroke:#000000;" x="269.26915" xlink:href="#mcdcab4f53f" y="167.926893"/>
     <use style="stroke:#000000;" x="264.087486" xlink:href="#mcdcab4f53f" y="172.238989"/>
     <use style="stroke:#000000;" x="254.576003" xlink:href="#mcdcab4f53f" y="174.528"/>
     <use style="stroke:#000000;" x="260.888855" xlink:href="#mcdcab4f53f" y="173.893133"/>
     <use style="stroke:#000000;" x="250.605309" xlink:href="#mcdcab4f53f" y="171.680574"/>
     <use style="stroke:#000000;" x="241.671865" xlink:href="#mcdcab4f53f" y="174.528"/>
     <use style="stroke:#000000;" x="323.180122" xlink:href="#mcdcab4f53f" y="145.762641"/>
     <use style="stroke:#000000;" x="238.658892" xlink:href="#mcdcab4f53f" y="174.528"/>
     <use style="stroke:#000000;" x="236.16" xlink:href="#mcdcab4f53f" y="174.528"/>
     <use style="stroke:#000000;" x="323.687004" xlink:href="#mcdcab4f53f" y="148.313275"/>
     <use style="stroke:#000000;" x="325.44" xlink:href="#mcdcab4f53f" y="162.833788"/>
     <use style="stroke:#000000;" x="236.16" xlink:href="#mcdcab4f53f" y="134.6112"/>
     <use style="stroke:#000000;" x="236.16" xlink:href="#mcdcab4f53f" y="134.6112"/>
     <use style="stroke:#000000;" x="325.44" xlink:href="#mcdcab4f53f" y="137.951377"/>
     <use style="stroke:#000000;" x="317.051115" xlink:href="#mcdcab4f53f" y="134.6112"/>
     <use style="stroke:#000000;" x="237.85318" xlink:href="#mcdcab4f53f" y="166.853575"/>
     <use style="stroke:#000000;" x="236.16" xlink:href="#mcdcab4f53f" y="168.24543"/>
     <use style="stroke:#000000;" x="325.44" xlink:href="#mcdcab4f53f" y="148.405196"/>
     <use style="stroke:#000000;" x="320.486464" xlink:href="#mcdcab4f53f" y="147.027033"/>
     <use style="stroke:#000000;" x="236.16" xlink:href="#mcdcab4f53f" y="168.421069"/>
     <use style="stroke:#000000;" x="236.16" xlink:href="#mcdcab4f53f" y="167.792485"/>
     <use style="stroke:#000000;" x="274.371864" xlink:href="#mcdcab4f53f" y="174.528"/>
     <use style="stroke:#000000;" x="238.059395" xlink:href="#mcdcab4f53f" y="163.01918"/>
     <use style="stroke:#000000;" x="251.581117" xlink:href="#mcdcab4f53f" y="173.778315"/>
     <use style="stroke:#000000;" x="309.500366" xlink:href="#mcdcab4f53f" y="159.418938"/>
     <use style="stroke:#000000;" x="320.561215" xlink:href="#mcdcab4f53f" y="155.774276"/>
     <use style="stroke:#000000;" x="296.319532" xlink:href="#mcdcab4f53f" y="174.528"/>
     <use style="stroke:#000000;" x="320.991837" xlink:href="#mcdcab4f53f" y="174.528"/>
     <use style="stroke:#000000;" x="312.650526" xlink:href="#mcdcab4f53f" y="174.528"/>
     <use style="stroke:#000000;" x="236.16" xlink:href="#mcdcab4f53f" y="173.388115"/>
     <use style="stroke:#000000;" x="237.172066" xlink:href="#mcdcab4f53f" y="134.6112"/>
     <use style="stroke:#000000;" x="240.242245" xlink:href="#mcdcab4f53f" y="143.441751"/>
     <use style="stroke:#000000;" x="311.749637" xlink:href="#mcdcab4f53f" y="143.993407"/>
     <use style="stroke:#000000;" x="267.712779" xlink:href="#mcdcab4f53f" y="167.965145"/>
     <use style="stroke:#000000;" x="253.25769" xlink:href="#mcdcab4f53f" y="174.528"/>
     <use style="stroke:#000000;" x="247.410054" xlink:href="#mcdcab4f53f" y="160.477604"/>
     <use style="stroke:#000000;" x="236.16" xlink:href="#mcdcab4f53f" y="164.601847"/>
     <use style="stroke:#000000;" x="242.894508" xlink:href="#mcdcab4f53f" y="135.632384"/>
     <use style="stroke:#000000;" x="236.581117" xlink:href="#mcdcab4f53f" y="144.683396"/>
     <use style="stroke:#000000;" x="247.900304" xlink:href="#mcdcab4f53f" y="173.196896"/>
     <use style="stroke:#000000;" x="244.386775" xlink:href="#mcdcab4f53f" y="146.884659"/>
     <use style="stroke:#000000;" x="236.16" xlink:href="#mcdcab4f53f" y="150.008286"/>
     <use style="stroke:#000000;" x="243.805838" xlink:href="#mcdcab4f53f" y="141.734836"/>
     <use style="stroke:#000000;" x="236.16" xlink:href="#mcdcab4f53f" y="153.144302"/>
     <use style="stroke:#000000;" x="261.558812" xlink:href="#mcdcab4f53f" y="174.528"/>
     <use style="stroke:#000000;" x="253.505061" xlink:href="#mcdcab4f53f" y="174.528"/>
     <use style="stroke:#000000;" x="245.31269" xlink:href="#mcdcab4f53f" y="150.975229"/>
     <use style="stroke:#000000;" x="236.16" xlink:href="#mcdcab4f53f" y="155.935068"/>
     <use style="stroke:#000000;" x="236.16" xlink:href="#mcdcab4f53f" y="165.575388"/>
     <use style="stroke:#000000;" x="249.125633" xlink:href="#mcdcab4f53f" y="169.353206"/>
     <use style="stroke:#000000;" x="241.844189" xlink:href="#mcdcab4f53f" y="134.6112"/>
     <use style="stroke:#000000;" x="236.16" xlink:href="#mcdcab4f53f" y="137.021913"/>
     <use style="stroke:#000000;" x="252.932643" xlink:href="#mcdcab4f53f" y="160.494849"/>
     <use style="stroke:#000000;" x="236.16" xlink:href="#mcdcab4f53f" y="150.176741"/>
     <use style="stroke:#000000;" x="250.89237" xlink:href="#mcdcab4f53f" y="170.926998"/>
     <use style="stroke:#000000;" x="237.549155" xlink:href="#mcdcab4f53f" y="167.151094"/>
     <use style="stroke:#000000;" x="236.16" xlink:href="#mcdcab4f53f" y="172.220009"/>
     <use style="stroke:#000000;" x="236.16" xlink:href="#mcdcab4f53f" y="163.544335"/>
     <use style="stroke:#000000;" x="236.16" xlink:href="#mcdcab4f53f" y="134.796243"/>
     <use style="stroke:#000000;" x="250.880611" xlink:href="#mcdcab4f53f" y="172.509975"/>
     <use style="stroke:#000000;" x="236.16" xlink:href="#mcdcab4f53f" y="137.726036"/>
     <use style="stroke:#000000;" x="244.075448" xlink:href="#mcdcab4f53f" y="134.6112"/>
     <use style="stroke:#000000;" x="252.62201" xlink:href="#mcdcab4f53f" y="140.313893"/>
     <use style="stroke:#000000;" x="236.672829" xlink:href="#mcdcab4f53f" y="147.335705"/>
     <use style="stroke:#000000;" x="239.462252" xlink:href="#mcdcab4f53f" y="136.268382"/>
     <use style="stroke:#000000;" x="236.16" xlink:href="#mcdcab4f53f" y="142.341553"/>
     <use style="stroke:#000000;" x="236.16" xlink:href="#mcdcab4f53f" y="137.128196"/>
     <use style="stroke:#000000;" x="236.16" xlink:href="#mcdcab4f53f" y="174.528"/>
     <use style="stroke:#000000;" x="236.16" xlink:href="#mcdcab4f53f" y="135.242911"/>
     <use style="stroke:#000000;" x="258.000394" xlink:href="#mcdcab4f53f" y="136.153414"/>
     <use style="stroke:#000000;" x="255.528942" xlink:href="#mcdcab4f53f" y="138.148057"/>
     <use style="stroke:#000000;" x="236.16" xlink:href="#mcdcab4f53f" y="134.6112"/>
    </g>
   </g>
   <g id="PathCollection_2">
    <defs>
     <path d="M 0 0.935414 
C 0.248075 0.935414 0.486022 0.836853 0.661438 0.661438 
C 0.836853 0.486022 0.935414 0.248075 0.935414 0 
C 0.935414 -0.248075 0.836853 -0.486022 0.661438 -0.661438 
C 0.486022 -0.836853 0.248075 -0.935414 0 -0.935414 
C -0.248075 -0.935414 -0.486022 -0.836853 -0.661438 -0.661438 
C -0.836853 -0.486022 -0.935414 -0.248075 -0.935414 0 
C -0.935414 0.248075 -0.836853 0.486022 -0.661438 0.661438 
C -0.486022 0.836853 -0.248075 0.935414 0 0.935414 
z
" id="mc56faa7712" style="stroke:#0000ff;"/>
    </defs>
    <g clip-path="url(#p5112127226)">
     <use style="fill:#0000ff;stroke:#0000ff;" x="236.16" xlink:href="#mc56faa7712" y="159.526667"/>
     <use style="fill:#0000ff;stroke:#0000ff;" x="236.16" xlink:href="#mc56faa7712" y="134.6112"/>
     <use style="fill:#0000ff;stroke:#0000ff;" x="236.16" xlink:href="#mc56faa7712" y="172.561163"/>
     <use style="fill:#0000ff;stroke:#0000ff;" x="236.16" xlink:href="#mc56faa7712" y="174.528"/>
     <use style="fill:#0000ff;stroke:#0000ff;" x="236.16" xlink:href="#mc56faa7712" y="141.058225"/>
     <use style="fill:#0000ff;stroke:#0000ff;" x="325.44" xlink:href="#mc56faa7712" y="142.175733"/>
     <use style="fill:#0000ff;stroke:#0000ff;" x="255.019646" xlink:href="#mc56faa7712" y="174.528"/>
     <use style="fill:#0000ff;stroke:#0000ff;" x="236.16" xlink:href="#mc56faa7712" y="134.6112"/>
     <use style="fill:#0000ff;stroke:#0000ff;" x="240.106143" xlink:href="#mc56faa7712" y="174.528"/>
     <use style="fill:#0000ff;stroke:#0000ff;" x="236.16" xlink:href="#mc56faa7712" y="163.723797"/>
     <use style="fill:#0000ff;stroke:#0000ff;" x="236.16" xlink:href="#mc56faa7712" y="174.528"/>
     <use style="fill:#0000ff;stroke:#0000ff;" x="236.16" xlink:href="#mc56faa7712" y="147.806594"/>
     <use style="fill:#0000ff;stroke:#0000ff;" x="236.16" xlink:href="#mc56faa7712" y="147.955218"/>
     <use style="fill:#0000ff;stroke:#0000ff;" x="236.16" xlink:href="#mc56faa7712" y="150.313401"/>
     <use style="fill:#0000ff;stroke:#0000ff;" x="325.44" xlink:href="#mc56faa7712" y="140.736768"/>
     <use style="fill:#0000ff;stroke:#0000ff;" x="236.16" xlink:href="#mc56faa7712" y="170.072867"/>
     <use style="fill:#0000ff;stroke:#0000ff;" x="236.16" xlink:href="#mc56faa7712" y="145.034124"/>
     <use style="fill:#0000ff;stroke:#0000ff;" x="236.16" xlink:href="#mc56faa7712" y="150.935124"/>
     <use style="fill:#0000ff;stroke:#0000ff;" x="236.16" xlink:href="#mc56faa7712" y="143.975966"/>
     <use style="fill:#0000ff;stroke:#0000ff;" x="236.16" xlink:href="#mc56faa7712" y="142.435865"/>
     <use style="fill:#0000ff;stroke:#0000ff;" x="325.44" xlink:href="#mc56faa7712" y="143.998845"/>
     <use style="fill:#0000ff;stroke:#0000ff;" x="321.885286" xlink:href="#mc56faa7712" y="174.528"/>
     <use style="fill:#0000ff;stroke:#0000ff;" x="236.16" xlink:href="#mc56faa7712" y="139.295179"/>
     <use style="fill:#0000ff;stroke:#0000ff;" x="265.870376" xlink:href="#mc56faa7712" y="174.528"/>
     <use style="fill:#0000ff;stroke:#0000ff;" x="236.16" xlink:href="#mc56faa7712" y="134.6112"/>
     <use style="fill:#0000ff;stroke:#0000ff;" x="304.775217" xlink:href="#mc56faa7712" y="174.528"/>
     <use style="fill:#0000ff;stroke:#0000ff;" x="325.44" xlink:href="#mc56faa7712" y="171.318227"/>
     <use style="fill:#0000ff;stroke:#0000ff;" x="236.16" xlink:href="#mc56faa7712" y="134.6112"/>
     <use style="fill:#0000ff;stroke:#0000ff;" x="236.16" xlink:href="#mc56faa7712" y="165.22391"/>
     <use style="fill:#0000ff;stroke:#0000ff;" x="236.16" xlink:href="#mc56faa7712" y="155.877912"/>
     <use style="fill:#0000ff;stroke:#0000ff;" x="236.16" xlink:href="#mc56faa7712" y="150.493043"/>
     <use style="fill:#0000ff;stroke:#0000ff;" x="236.16" xlink:href="#mc56faa7712" y="159.35726"/>
     <use style="fill:#0000ff;stroke:#0000ff;" x="250.45418" xlink:href="#mc56faa7712" y="174.528"/>
     <use style="fill:#0000ff;stroke:#0000ff;" x="236.16" xlink:href="#mc56faa7712" y="141.217429"/>
     <use style="fill:#0000ff;stroke:#0000ff;" x="273.106625" xlink:href="#mc56faa7712" y="174.528"/>
     <use style="fill:#0000ff;stroke:#0000ff;" x="256.911715" xlink:href="#mc56faa7712" y="174.528"/>
     <use style="fill:#0000ff;stroke:#0000ff;" x="238.269591" xlink:href="#mc56faa7712" y="174.528"/>
     <use style="fill:#0000ff;stroke:#0000ff;" x="325.44" xlink:href="#mc56faa7712" y="142.504809"/>
     <use style="fill:#0000ff;stroke:#0000ff;" x="247.553536" xlink:href="#mc56faa7712" y="174.528"/>
     <use style="fill:#0000ff;stroke:#0000ff;" x="325.44" xlink:href="#mc56faa7712" y="153.300602"/>
     <use style="fill:#0000ff;stroke:#0000ff;" x="236.16" xlink:href="#mc56faa7712" y="134.6112"/>
     <use style="fill:#0000ff;stroke:#0000ff;" x="325.44" xlink:href="#mc56faa7712" y="136.479949"/>
     <use style="fill:#0000ff;stroke:#0000ff;" x="236.16" xlink:href="#mc56faa7712" y="174.528"/>
     <use style="fill:#0000ff;stroke:#0000ff;" x="325.44" xlink:href="#mc56faa7712" y="146.311296"/>
     <use style="fill:#0000ff;stroke:#0000ff;" x="236.16" xlink:href="#mc56faa7712" y="169.022272"/>
     <use style="fill:#0000ff;stroke:#0000ff;" x="265.10093" xlink:href="#mc56faa7712" y="174.528"/>
     <use style="fill:#0000ff;stroke:#0000ff;" x="242.429072" xlink:href="#mc56faa7712" y="174.528"/>
     <use style="fill:#0000ff;stroke:#0000ff;" x="325.44" xlink:href="#mc56faa7712" y="158.213463"/>
     <use style="fill:#0000ff;stroke:#0000ff;" x="312.023915" xlink:href="#mc56faa7712" y="174.528"/>
     <use style="fill:#0000ff;stroke:#0000ff;" x="325.44" xlink:href="#mc56faa7712" y="174.528"/>
     <use style="fill:#0000ff;stroke:#0000ff;" x="236.16" xlink:href="#mc56faa7712" y="173.968014"/>
     <use style="fill:#0000ff;stroke:#0000ff;" x="236.16" xlink:href="#mc56faa7712" y="142.144538"/>
     <use style="fill:#0000ff;stroke:#0000ff;" x="325.44" xlink:href="#mc56faa7712" y="147.462241"/>
     <use style="fill:#0000ff;stroke:#0000ff;" x="260.515456" xlink:href="#mc56faa7712" y="174.454587"/>
     <use style="fill:#0000ff;stroke:#0000ff;" x="236.16" xlink:href="#mc56faa7712" y="165.029518"/>
     <use style="fill:#0000ff;stroke:#0000ff;" x="236.16" xlink:href="#mc56faa7712" y="141.767591"/>
     <use style="fill:#0000ff;stroke:#0000ff;" x="236.16" xlink:href="#mc56faa7712" y="171.202165"/>
     <use style="fill:#0000ff;stroke:#0000ff;" x="236.16" xlink:href="#mc56faa7712" y="146.633483"/>
     <use style="fill:#0000ff;stroke:#0000ff;" x="236.16" xlink:href="#mc56faa7712" y="151.26883"/>
     <use style="fill:#0000ff;stroke:#0000ff;" x="269.658741" xlink:href="#mc56faa7712" y="174.528"/>
     <use style="fill:#0000ff;stroke:#0000ff;" x="236.16" xlink:href="#mc56faa7712" y="153.437538"/>
     <use style="fill:#0000ff;stroke:#0000ff;" x="236.16" xlink:href="#mc56faa7712" y="171.365264"/>
     <use style="fill:#0000ff;stroke:#0000ff;" x="236.176743" xlink:href="#mc56faa7712" y="138.007182"/>
     <use style="fill:#0000ff;stroke:#0000ff;" x="236.16" xlink:href="#mc56faa7712" y="153.904449"/>
     <use style="fill:#0000ff;stroke:#0000ff;" x="238.221028" xlink:href="#mc56faa7712" y="174.528"/>
     <use style="fill:#0000ff;stroke:#0000ff;" x="236.16" xlink:href="#mc56faa7712" y="165.983747"/>
     <use style="fill:#0000ff;stroke:#0000ff;" x="236.16" xlink:href="#mc56faa7712" y="134.6112"/>
     <use style="fill:#0000ff;stroke:#0000ff;" x="236.16" xlink:href="#mc56faa7712" y="169.098713"/>
     <use style="fill:#0000ff;stroke:#0000ff;" x="236.16" xlink:href="#mc56faa7712" y="135.67557"/>
     <use style="fill:#0000ff;stroke:#0000ff;" x="236.16" xlink:href="#mc56faa7712" y="134.6112"/>
     <use style="fill:#0000ff;stroke:#0000ff;" x="236.16" xlink:href="#mc56faa7712" y="139.411351"/>
     <use style="fill:#0000ff;stroke:#0000ff;" x="236.16" xlink:href="#mc56faa7712" y="145.445302"/>
     <use style="fill:#0000ff;stroke:#0000ff;" x="236.16" xlink:href="#mc56faa7712" y="137.424287"/>
     <use style="fill:#0000ff;stroke:#0000ff;" x="236.16" xlink:href="#mc56faa7712" y="139.943041"/>
     <use style="fill:#0000ff;stroke:#0000ff;" x="236.16" xlink:href="#mc56faa7712" y="143.298488"/>
     <use style="fill:#0000ff;stroke:#0000ff;" x="236.16" xlink:href="#mc56faa7712" y="167.326467"/>
     <use style="fill:#0000ff;stroke:#0000ff;" x="236.16" xlink:href="#mc56faa7712" y="134.6112"/>
     <use style="fill:#0000ff;stroke:#0000ff;" x="236.16" xlink:href="#mc56faa7712" y="139.159415"/>
     <use style="fill:#0000ff;stroke:#0000ff;" x="236.16" xlink:href="#mc56faa7712" y="135.858599"/>
     <use style="fill:#0000ff;stroke:#0000ff;" x="236.16" xlink:href="#mc56faa7712" y="134.6112"/>
    </g>
   </g>
   <g id="matplotlib.axis_1">
    <g id="xtick_1">
     <g id="line2d_1">
      <defs>
       <path d="M 0 0 
L 0 3.5 
" id="m9d1cf9b5a1" style="stroke:#000000;stroke-width:0.8;"/>
      </defs>
      <g>
       <use style="stroke:#000000;stroke-width:0.8;" x="57.6" xlink:href="#m9d1cf9b5a1" y="307.584"/>
      </g>
     </g>
     <g id="text_1">
      <!-- −10.0 -->
      <defs>
       <path d="M 10.59375 35.5 
L 73.1875 35.5 
L 73.1875 27.203125 
L 10.59375 27.203125 
z
" id="DejaVuSans-2212"/>
       <path d="M 12.40625 8.296875 
L 28.515625 8.296875 
L 28.515625 63.921875 
L 10.984375 60.40625 
L 10.984375 69.390625 
L 28.421875 72.90625 
L 38.28125 72.90625 
L 38.28125 8.296875 
L 54.390625 8.296875 
L 54.390625 0 
L 12.40625 0 
z
" id="DejaVuSans-31"/>
       <path d="M 31.78125 66.40625 
Q 24.171875 66.40625 20.328125 58.90625 
Q 16.5 51.421875 16.5 36.375 
Q 16.5 21.390625 20.328125 13.890625 
Q 24.171875 6.390625 31.78125 6.390625 
Q 39.453125 6.390625 43.28125 13.890625 
Q 47.125 21.390625 47.125 36.375 
Q 47.125 51.421875 43.28125 58.90625 
Q 39.453125 66.40625 31.78125 66.40625 
z
M 31.78125 74.21875 
Q 44.046875 74.21875 50.515625 64.515625 
Q 56.984375 54.828125 56.984375 36.375 
Q 56.984375 17.96875 50.515625 8.265625 
Q 44.046875 -1.421875 31.78125 -1.421875 
Q 19.53125 -1.421875 13.0625 8.265625 
Q 6.59375 17.96875 6.59375 36.375 
Q 6.59375 54.828125 13.0625 64.515625 
Q 19.53125 74.21875 31.78125 74.21875 
z
" id="DejaVuSans-30"/>
       <path d="M 10.6875 12.40625 
L 21 12.40625 
L 21 0 
L 10.6875 0 
z
" id="DejaVuSans-2e"/>
      </defs>
      <g transform="translate(42.277344 322.182437)scale(0.1 -0.1)">
       <use xlink:href="#DejaVuSans-2212"/>
       <use x="83.789062" xlink:href="#DejaVuSans-31"/>
       <use x="147.412109" xlink:href="#DejaVuSans-30"/>
       <use x="211.035156" xlink:href="#DejaVuSans-2e"/>
       <use x="242.822266" xlink:href="#DejaVuSans-30"/>
      </g>
     </g>
    </g>
    <g id="xtick_2">
     <g id="line2d_2">
      <g>
       <use style="stroke:#000000;stroke-width:0.8;" x="102.24" xlink:href="#m9d1cf9b5a1" y="307.584"/>
      </g>
     </g>
     <g id="text_2">
      <!-- −7.5 -->
      <defs>
       <path d="M 8.203125 72.90625 
L 55.078125 72.90625 
L 55.078125 68.703125 
L 28.609375 0 
L 18.3125 0 
L 43.21875 64.59375 
L 8.203125 64.59375 
z
" id="DejaVuSans-37"/>
       <path d="M 10.796875 72.90625 
L 49.515625 72.90625 
L 49.515625 64.59375 
L 19.828125 64.59375 
L 19.828125 46.734375 
Q 21.96875 47.46875 24.109375 47.828125 
Q 26.265625 48.1875 28.421875 48.1875 
Q 40.625 48.1875 47.75 41.5 
Q 54.890625 34.8125 54.890625 23.390625 
Q 54.890625 11.625 47.5625 5.09375 
Q 40.234375 -1.421875 26.90625 -1.421875 
Q 22.3125 -1.421875 17.546875 -0.640625 
Q 12.796875 0.140625 7.71875 1.703125 
L 7.71875 11.625 
Q 12.109375 9.234375 16.796875 8.0625 
Q 21.484375 6.890625 26.703125 6.890625 
Q 35.15625 6.890625 40.078125 11.328125 
Q 45.015625 15.765625 45.015625 23.390625 
Q 45.015625 31 40.078125 35.4375 
Q 35.15625 39.890625 26.703125 39.890625 
Q 22.75 39.890625 18.8125 39.015625 
Q 14.890625 38.140625 10.796875 36.28125 
z
" id="DejaVuSans-35"/>
      </defs>
      <g transform="translate(90.098594 322.182437)scale(0.1 -0.1)">
       <use xlink:href="#DejaVuSans-2212"/>
       <use x="83.789062" xlink:href="#DejaVuSans-37"/>
       <use x="147.412109" xlink:href="#DejaVuSans-2e"/>
       <use x="179.199219" xlink:href="#DejaVuSans-35"/>
      </g>
     </g>
    </g>
    <g id="xtick_3">
     <g id="line2d_3">
      <g>
       <use style="stroke:#000000;stroke-width:0.8;" x="146.88" xlink:href="#m9d1cf9b5a1" y="307.584"/>
      </g>
     </g>
     <g id="text_3">
      <!-- −5.0 -->
      <g transform="translate(134.738594 322.182437)scale(0.1 -0.1)">
       <use xlink:href="#DejaVuSans-2212"/>
       <use x="83.789062" xlink:href="#DejaVuSans-35"/>
       <use x="147.412109" xlink:href="#DejaVuSans-2e"/>
       <use x="179.199219" xlink:href="#DejaVuSans-30"/>
      </g>
     </g>
    </g>
    <g id="xtick_4">
     <g id="line2d_4">
      <g>
       <use style="stroke:#000000;stroke-width:0.8;" x="191.52" xlink:href="#m9d1cf9b5a1" y="307.584"/>
      </g>
     </g>
     <g id="text_4">
      <!-- −2.5 -->
      <defs>
       <path d="M 19.1875 8.296875 
L 53.609375 8.296875 
L 53.609375 0 
L 7.328125 0 
L 7.328125 8.296875 
Q 12.9375 14.109375 22.625 23.890625 
Q 32.328125 33.6875 34.8125 36.53125 
Q 39.546875 41.84375 41.421875 45.53125 
Q 43.3125 49.21875 43.3125 52.78125 
Q 43.3125 58.59375 39.234375 62.25 
Q 35.15625 65.921875 28.609375 65.921875 
Q 23.96875 65.921875 18.8125 64.3125 
Q 13.671875 62.703125 7.8125 59.421875 
L 7.8125 69.390625 
Q 13.765625 71.78125 18.9375 73 
Q 24.125 74.21875 28.421875 74.21875 
Q 39.75 74.21875 46.484375 68.546875 
Q 53.21875 62.890625 53.21875 53.421875 
Q 53.21875 48.921875 51.53125 44.890625 
Q 49.859375 40.875 45.40625 35.40625 
Q 44.1875 33.984375 37.640625 27.21875 
Q 31.109375 20.453125 19.1875 8.296875 
z
" id="DejaVuSans-32"/>
      </defs>
      <g transform="translate(179.378594 322.182437)scale(0.1 -0.1)">
       <use xlink:href="#DejaVuSans-2212"/>
       <use x="83.789062" xlink:href="#DejaVuSans-32"/>
       <use x="147.412109" xlink:href="#DejaVuSans-2e"/>
       <use x="179.199219" xlink:href="#DejaVuSans-35"/>
      </g>
     </g>
    </g>
    <g id="xtick_5">
     <g id="line2d_5">
      <g>
       <use style="stroke:#000000;stroke-width:0.8;" x="236.16" xlink:href="#m9d1cf9b5a1" y="307.584"/>
      </g>
     </g>
     <g id="text_5">
      <!-- 0.0 -->
      <g transform="translate(228.208438 322.182437)scale(0.1 -0.1)">
       <use xlink:href="#DejaVuSans-30"/>
       <use x="63.623047" xlink:href="#DejaVuSans-2e"/>
       <use x="95.410156" xlink:href="#DejaVuSans-30"/>
      </g>
     </g>
    </g>
    <g id="xtick_6">
     <g id="line2d_6">
      <g>
       <use style="stroke:#000000;stroke-width:0.8;" x="280.8" xlink:href="#m9d1cf9b5a1" y="307.584"/>
      </g>
     </g>
     <g id="text_6">
      <!-- 2.5 -->
      <g transform="translate(272.848437 322.182437)scale(0.1 -0.1)">
       <use xlink:href="#DejaVuSans-32"/>
       <use x="63.623047" xlink:href="#DejaVuSans-2e"/>
       <use x="95.410156" xlink:href="#DejaVuSans-35"/>
      </g>
     </g>
    </g>
    <g id="xtick_7">
     <g id="line2d_7">
      <g>
       <use style="stroke:#000000;stroke-width:0.8;" x="325.44" xlink:href="#m9d1cf9b5a1" y="307.584"/>
      </g>
     </g>
     <g id="text_7">
      <!-- 5.0 -->
      <g transform="translate(317.488437 322.182437)scale(0.1 -0.1)">
       <use xlink:href="#DejaVuSans-35"/>
       <use x="63.623047" xlink:href="#DejaVuSans-2e"/>
       <use x="95.410156" xlink:href="#DejaVuSans-30"/>
      </g>
     </g>
    </g>
    <g id="xtick_8">
     <g id="line2d_8">
      <g>
       <use style="stroke:#000000;stroke-width:0.8;" x="370.08" xlink:href="#m9d1cf9b5a1" y="307.584"/>
      </g>
     </g>
     <g id="text_8">
      <!-- 7.5 -->
      <g transform="translate(362.128438 322.182437)scale(0.1 -0.1)">
       <use xlink:href="#DejaVuSans-37"/>
       <use x="63.623047" xlink:href="#DejaVuSans-2e"/>
       <use x="95.410156" xlink:href="#DejaVuSans-35"/>
      </g>
     </g>
    </g>
    <g id="xtick_9">
     <g id="line2d_9">
      <g>
       <use style="stroke:#000000;stroke-width:0.8;" x="414.72" xlink:href="#m9d1cf9b5a1" y="307.584"/>
      </g>
     </g>
     <g id="text_9">
      <!-- 10.0 -->
      <g transform="translate(403.587188 322.182437)scale(0.1 -0.1)">
       <use xlink:href="#DejaVuSans-31"/>
       <use x="63.623047" xlink:href="#DejaVuSans-30"/>
       <use x="127.246094" xlink:href="#DejaVuSans-2e"/>
       <use x="159.033203" xlink:href="#DejaVuSans-30"/>
      </g>
     </g>
    </g>
   </g>
   <g id="matplotlib.axis_2">
    <g id="ytick_1">
     <g id="line2d_10">
      <defs>
       <path d="M 0 0 
L -3.5 0 
" id="m5ea913015f" style="stroke:#000000;stroke-width:0.8;"/>
      </defs>
      <g>
       <use style="stroke:#000000;stroke-width:0.8;" x="57.6" xlink:href="#m5ea913015f" y="307.584"/>
      </g>
     </g>
     <g id="text_10">
      <!-- −10.0 -->
      <g transform="translate(19.954687 311.383219)scale(0.1 -0.1)">
       <use xlink:href="#DejaVuSans-2212"/>
       <use x="83.789062" xlink:href="#DejaVuSans-31"/>
       <use x="147.412109" xlink:href="#DejaVuSans-30"/>
       <use x="211.035156" xlink:href="#DejaVuSans-2e"/>
       <use x="242.822266" xlink:href="#DejaVuSans-30"/>
      </g>
     </g>
    </g>
    <g id="ytick_2">
     <g id="line2d_11">
      <g>
       <use style="stroke:#000000;stroke-width:0.8;" x="57.6" xlink:href="#m5ea913015f" y="274.32"/>
      </g>
     </g>
     <g id="text_11">
      <!-- −7.5 -->
      <g transform="translate(26.317187 278.119219)scale(0.1 -0.1)">
       <use xlink:href="#DejaVuSans-2212"/>
       <use x="83.789062" xlink:href="#DejaVuSans-37"/>
       <use x="147.412109" xlink:href="#DejaVuSans-2e"/>
       <use x="179.199219" xlink:href="#DejaVuSans-35"/>
      </g>
     </g>
    </g>
    <g id="ytick_3">
     <g id="line2d_12">
      <g>
       <use style="stroke:#000000;stroke-width:0.8;" x="57.6" xlink:href="#m5ea913015f" y="241.056"/>
      </g>
     </g>
     <g id="text_12">
      <!-- −5.0 -->
      <g transform="translate(26.317187 244.855219)scale(0.1 -0.1)">
       <use xlink:href="#DejaVuSans-2212"/>
       <use x="83.789062" xlink:href="#DejaVuSans-35"/>
       <use x="147.412109" xlink:href="#DejaVuSans-2e"/>
       <use x="179.199219" xlink:href="#DejaVuSans-30"/>
      </g>
     </g>
    </g>
    <g id="ytick_4">
     <g id="line2d_13">
      <g>
       <use style="stroke:#000000;stroke-width:0.8;" x="57.6" xlink:href="#m5ea913015f" y="207.792"/>
      </g>
     </g>
     <g id="text_13">
      <!-- −2.5 -->
      <g transform="translate(26.317187 211.591219)scale(0.1 -0.1)">
       <use xlink:href="#DejaVuSans-2212"/>
       <use x="83.789062" xlink:href="#DejaVuSans-32"/>
       <use x="147.412109" xlink:href="#DejaVuSans-2e"/>
       <use x="179.199219" xlink:href="#DejaVuSans-35"/>
      </g>
     </g>
    </g>
    <g id="ytick_5">
     <g id="line2d_14">
      <g>
       <use style="stroke:#000000;stroke-width:0.8;" x="57.6" xlink:href="#m5ea913015f" y="174.528"/>
      </g>
     </g>
     <g id="text_14">
      <!-- 0.0 -->
      <g transform="translate(34.696875 178.327219)scale(0.1 -0.1)">
       <use xlink:href="#DejaVuSans-30"/>
       <use x="63.623047" xlink:href="#DejaVuSans-2e"/>
       <use x="95.410156" xlink:href="#DejaVuSans-30"/>
      </g>
     </g>
    </g>
    <g id="ytick_6">
     <g id="line2d_15">
      <g>
       <use style="stroke:#000000;stroke-width:0.8;" x="57.6" xlink:href="#m5ea913015f" y="141.264"/>
      </g>
     </g>
     <g id="text_15">
      <!-- 2.5 -->
      <g transform="translate(34.696875 145.063219)scale(0.1 -0.1)">
       <use xlink:href="#DejaVuSans-32"/>
       <use x="63.623047" xlink:href="#DejaVuSans-2e"/>
       <use x="95.410156" xlink:href="#DejaVuSans-35"/>
      </g>
     </g>
    </g>
    <g id="ytick_7">
     <g id="line2d_16">
      <g>
       <use style="stroke:#000000;stroke-width:0.8;" x="57.6" xlink:href="#m5ea913015f" y="108"/>
      </g>
     </g>
     <g id="text_16">
      <!-- 5.0 -->
      <g transform="translate(34.696875 111.799219)scale(0.1 -0.1)">
       <use xlink:href="#DejaVuSans-35"/>
       <use x="63.623047" xlink:href="#DejaVuSans-2e"/>
       <use x="95.410156" xlink:href="#DejaVuSans-30"/>
      </g>
     </g>
    </g>
    <g id="ytick_8">
     <g id="line2d_17">
      <g>
       <use style="stroke:#000000;stroke-width:0.8;" x="57.6" xlink:href="#m5ea913015f" y="74.736"/>
      </g>
     </g>
     <g id="text_17">
      <!-- 7.5 -->
      <g transform="translate(34.696875 78.535219)scale(0.1 -0.1)">
       <use xlink:href="#DejaVuSans-37"/>
       <use x="63.623047" xlink:href="#DejaVuSans-2e"/>
       <use x="95.410156" xlink:href="#DejaVuSans-35"/>
      </g>
     </g>
    </g>
    <g id="ytick_9">
     <g id="line2d_18">
      <g>
       <use style="stroke:#000000;stroke-width:0.8;" x="57.6" xlink:href="#m5ea913015f" y="41.472"/>
      </g>
     </g>
     <g id="text_18">
      <!-- 10.0 -->
      <g transform="translate(28.334375 45.271219)scale(0.1 -0.1)">
       <use xlink:href="#DejaVuSans-31"/>
       <use x="63.623047" xlink:href="#DejaVuSans-30"/>
       <use x="127.246094" xlink:href="#DejaVuSans-2e"/>
       <use x="159.033203" xlink:href="#DejaVuSans-30"/>
      </g>
     </g>
    </g>
   </g>
   <g id="patch_3">
    <path d="M 57.6 307.584 
L 57.6 41.472 
" style="fill:none;stroke:#000000;stroke-linecap:square;stroke-linejoin:miter;stroke-width:0.8;"/>
   </g>
   <g id="patch_4">
    <path d="M 414.72 307.584 
L 414.72 41.472 
" style="fill:none;stroke:#000000;stroke-linecap:square;stroke-linejoin:miter;stroke-width:0.8;"/>
   </g>
   <g id="patch_5">
    <path d="M 57.6 307.584 
L 414.72 307.584 
" style="fill:none;stroke:#000000;stroke-linecap:square;stroke-linejoin:miter;stroke-width:0.8;"/>
   </g>
   <g id="patch_6">
    <path d="M 57.6 41.472 
L 414.72 41.472 
" style="fill:none;stroke:#000000;stroke-linecap:square;stroke-linejoin:miter;stroke-width:0.8;"/>
   </g>
  </g>
 </g>
 <defs>
  <clipPath id="p5112127226">
   <rect height="266.112" width="357.12" x="57.6" y="41.472"/>
  </clipPath>
 </defs>
</svg>
