<?xml version="1.0" encoding="utf-8" standalone="no"?>
<!DOCTYPE svg PUBLIC "-//W3C//DTD SVG 1.1//EN"
  "http://www.w3.org/Graphics/SVG/1.1/DTD/svg11.dtd">
<!-- Created with matplotlib (http://matplotlib.org/) -->
<svg height="345.6pt" version="1.1" viewBox="0 0 460.8 345.6" width="460.8pt" xmlns="http://www.w3.org/2000/svg" xmlns:xlink="http://www.w3.org/1999/xlink">
 <defs>
  <style type="text/css">
*{stroke-linecap:butt;stroke-linejoin:round;}
  </style>
 </defs>
 <g id="figure_1">
  <g id="patch_1">
   <path d="M 0 345.6 
L 460.8 345.6 
L 460.8 0 
L 0 0 
z
" style="fill:#ffffff;"/>
  </g>
  <g id="axes_1">
   <g id="patch_2">
    <path d="M 57.6 307.584 
L 414.72 307.584 
L 414.72 41.472 
L 57.6 41.472 
z
" style="fill:#ffffff;"/>
   </g>
   <g id="PathCollection_1">
    <defs>
     <path d="M 0 0.612372 
C 0.162403 0.612372 0.318176 0.547849 0.433013 0.433013 
C 0.547849 0.318176 0.612372 0.162403 0.612372 0 
C 0.612372 -0.162403 0.547849 -0.318176 0.433013 -0.433013 
C 0.318176 -0.547849 0.162403 -0.612372 0 -0.612372 
C -0.162403 -0.612372 -0.318176 -0.547849 -0.433013 -0.433013 
C -0.547849 -0.318176 -0.612372 -0.162403 -0.612372 0 
C -0.612372 0.162403 -0.547849 0.318176 -0.433013 0.433013 
C -0.318176 0.547849 -0.162403 0.612372 0 0.612372 
z
" id="mf8c639364a" style="stroke:#000000;"/>
    </defs>
    <g clip-path="url(#p79354ff3e7)">
     <use style="stroke:#000000;" x="237.418462" xlink:href="#mf8c639364a" y="171.690722"/>
     <use style="stroke:#000000;" x="240.017296" xlink:href="#mf8c639364a" y="169.64357"/>
     <use style="stroke:#000000;" x="236.416239" xlink:href="#mf8c639364a" y="171.824239"/>
     <use style="stroke:#000000;" x="237.327341" xlink:href="#mf8c639364a" y="174.528"/>
     <use style="stroke:#000000;" x="251.301648" xlink:href="#mf8c639364a" y="167.455521"/>
     <use style="stroke:#000000;" x="240.06685" xlink:href="#mf8c639364a" y="174.528"/>
     <use style="stroke:#000000;" x="243.713729" xlink:href="#mf8c639364a" y="171.1437"/>
     <use style="stroke:#000000;" x="237.411399" xlink:href="#mf8c639364a" y="174.528"/>
     <use style="stroke:#000000;" x="236.16" xlink:href="#mf8c639364a" y="174.528"/>
     <use style="stroke:#000000;" x="244.038091" xlink:href="#mf8c639364a" y="172.69623"/>
     <use style="stroke:#000000;" x="251.276951" xlink:href="#mf8c639364a" y="171.378438"/>
     <use style="stroke:#000000;" x="244.3989" xlink:href="#mf8c639364a" y="167.188067"/>
     <use style="stroke:#000000;" x="237.192717" xlink:href="#mf8c639364a" y="174.487365"/>
     <use style="stroke:#000000;" x="247.822378" xlink:href="#mf8c639364a" y="167.20382"/>
     <use style="stroke:#000000;" x="251.158026" xlink:href="#mf8c639364a" y="169.459484"/>
     <use style="stroke:#000000;" x="251.1873" xlink:href="#mf8c639364a" y="172.378805"/>
     <use style="stroke:#000000;" x="244.099508" xlink:href="#mf8c639364a" y="169.76729"/>
     <use style="stroke:#000000;" x="247.789805" xlink:href="#mf8c639364a" y="167.905341"/>
     <use style="stroke:#000000;" x="244.579865" xlink:href="#mf8c639364a" y="167.02049"/>
     <use style="stroke:#000000;" x="244.304199" xlink:href="#mf8c639364a" y="173.733806"/>
     <use style="stroke:#000000;" x="237.006556" xlink:href="#mf8c639364a" y="173.41224"/>
     <use style="stroke:#000000;" x="238.8968" xlink:href="#mf8c639364a" y="174.528"/>
     <use style="stroke:#000000;" x="237.661731" xlink:href="#mf8c639364a" y="171.115194"/>
     <use style="stroke:#000000;" x="239.075796" xlink:href="#mf8c639364a" y="174.528"/>
     <use style="stroke:#000000;" x="237.594618" xlink:href="#mf8c639364a" y="171.774074"/>
     <use style="stroke:#000000;" x="251.507654" xlink:href="#mf8c639364a" y="168.930042"/>
     <use style="stroke:#000000;" x="237.495531" xlink:href="#mf8c639364a" y="174.30803"/>
     <use style="stroke:#000000;" x="251.418365" xlink:href="#mf8c639364a" y="168.244599"/>
     <use style="stroke:#000000;" x="238.852646" xlink:href="#mf8c639364a" y="172.696062"/>
     <use style="stroke:#000000;" x="237.578628" xlink:href="#mf8c639364a" y="172.525505"/>
     <use style="stroke:#000000;" x="238.095419" xlink:href="#mf8c639364a" y="168.637322"/>
     <use style="stroke:#000000;" x="236.462927" xlink:href="#mf8c639364a" y="174.528"/>
     <use style="stroke:#000000;" x="236.839228" xlink:href="#mf8c639364a" y="172.874362"/>
     <use style="stroke:#000000;" x="251.571046" xlink:href="#mf8c639364a" y="172.496979"/>
     <use style="stroke:#000000;" x="244.016649" xlink:href="#mf8c639364a" y="174.528"/>
     <use style="stroke:#000000;" x="240.160415" xlink:href="#mf8c639364a" y="165.923906"/>
     <use style="stroke:#000000;" x="240.326751" xlink:href="#mf8c639364a" y="174.193812"/>
     <use style="stroke:#000000;" x="240.260514" xlink:href="#mf8c639364a" y="167.26571"/>
     <use style="stroke:#000000;" x="244.266738" xlink:href="#mf8c639364a" y="174.528"/>
     <use style="stroke:#000000;" x="243.496963" xlink:href="#mf8c639364a" y="167.632966"/>
     <use style="stroke:#000000;" x="236.16" xlink:href="#mf8c639364a" y="174.140558"/>
     <use style="stroke:#000000;" x="244.452343" xlink:href="#mf8c639364a" y="166.865496"/>
     <use style="stroke:#000000;" x="244.510313" xlink:href="#mf8c639364a" y="173.193401"/>
     <use style="stroke:#000000;" x="244.045084" xlink:href="#mf8c639364a" y="169.330843"/>
     <use style="stroke:#000000;" x="244.062384" xlink:href="#mf8c639364a" y="168.194688"/>
     <use style="stroke:#000000;" x="247.473345" xlink:href="#mf8c639364a" y="164.987114"/>
     <use style="stroke:#000000;" x="237.310882" xlink:href="#mf8c639364a" y="174.528"/>
     <use style="stroke:#000000;" x="244.686397" xlink:href="#mf8c639364a" y="164.568528"/>
     <use style="stroke:#000000;" x="247.977078" xlink:href="#mf8c639364a" y="168.475332"/>
     <use style="stroke:#000000;" x="247.988152" xlink:href="#mf8c639364a" y="170.071998"/>
     <use style="stroke:#000000;" x="244.289881" xlink:href="#mf8c639364a" y="167.347261"/>
     <use style="stroke:#000000;" x="247.542809" xlink:href="#mf8c639364a" y="169.181558"/>
     <use style="stroke:#000000;" x="239.034638" xlink:href="#mf8c639364a" y="174.449431"/>
     <use style="stroke:#000000;" x="237.083287" xlink:href="#mf8c639364a" y="173.594549"/>
     <use style="stroke:#000000;" x="239.399803" xlink:href="#mf8c639364a" y="174.528"/>
     <use style="stroke:#000000;" x="237.700955" xlink:href="#mf8c639364a" y="167.356707"/>
     <use style="stroke:#000000;" x="239.41246" xlink:href="#mf8c639364a" y="174.528"/>
     <use style="stroke:#000000;" x="239.137891" xlink:href="#mf8c639364a" y="169.812657"/>
     <use style="stroke:#000000;" x="236.703464" xlink:href="#mf8c639364a" y="171.324112"/>
     <use style="stroke:#000000;" x="237.585351" xlink:href="#mf8c639364a" y="172.427841"/>
     <use style="stroke:#000000;" x="236.806146" xlink:href="#mf8c639364a" y="172.043485"/>
     <use style="stroke:#000000;" x="237.528042" xlink:href="#mf8c639364a" y="172.387741"/>
     <use style="stroke:#000000;" x="239.745257" xlink:href="#mf8c639364a" y="173.384297"/>
     <use style="stroke:#000000;" x="240.037528" xlink:href="#mf8c639364a" y="168.21528"/>
     <use style="stroke:#000000;" x="239.304779" xlink:href="#mf8c639364a" y="170.540934"/>
     <use style="stroke:#000000;" x="236.58516" xlink:href="#mf8c639364a" y="171.357991"/>
     <use style="stroke:#000000;" x="237.26584" xlink:href="#mf8c639364a" y="171.033605"/>
     <use style="stroke:#000000;" x="236.16" xlink:href="#mf8c639364a" y="174.528"/>
     <use style="stroke:#000000;" x="237.086362" xlink:href="#mf8c639364a" y="173.766689"/>
     <use style="stroke:#000000;" x="240.529955" xlink:href="#mf8c639364a" y="174.528"/>
     <use style="stroke:#000000;" x="250.220777" xlink:href="#mf8c639364a" y="169.062526"/>
     <use style="stroke:#000000;" x="252.618476" xlink:href="#mf8c639364a" y="166.908574"/>
     <use style="stroke:#000000;" x="250.578069" xlink:href="#mf8c639364a" y="168.126047"/>
     <use style="stroke:#000000;" x="239.822563" xlink:href="#mf8c639364a" y="173.240083"/>
     <use style="stroke:#000000;" x="241.986067" xlink:href="#mf8c639364a" y="174.528"/>
     <use style="stroke:#000000;" x="237.95526" xlink:href="#mf8c639364a" y="174.528"/>
     <use style="stroke:#000000;" x="245.280826" xlink:href="#mf8c639364a" y="170.151265"/>
     <use style="stroke:#000000;" x="243.392382" xlink:href="#mf8c639364a" y="170.473125"/>
     <use style="stroke:#000000;" x="246.00839" xlink:href="#mf8c639364a" y="172.245951"/>
     <use style="stroke:#000000;" x="237.967329" xlink:href="#mf8c639364a" y="174.528"/>
     <use style="stroke:#000000;" x="237.100612" xlink:href="#mf8c639364a" y="174.528"/>
     <use style="stroke:#000000;" x="238.998738" xlink:href="#mf8c639364a" y="174.528"/>
     <use style="stroke:#000000;" x="236.16" xlink:href="#mf8c639364a" y="174.528"/>
     <use style="stroke:#000000;" x="236.16" xlink:href="#mf8c639364a" y="173.906403"/>
     <use style="stroke:#000000;" x="236.16" xlink:href="#mf8c639364a" y="174.471319"/>
     <use style="stroke:#000000;" x="242.890991" xlink:href="#mf8c639364a" y="173.016147"/>
     <use style="stroke:#000000;" x="243.433412" xlink:href="#mf8c639364a" y="171.496706"/>
     <use style="stroke:#000000;" x="243.38965" xlink:href="#mf8c639364a" y="172.947345"/>
     <use style="stroke:#000000;" x="252.53169" xlink:href="#mf8c639364a" y="170.844953"/>
     <use style="stroke:#000000;" x="251.504391" xlink:href="#mf8c639364a" y="171.080472"/>
     <use style="stroke:#000000;" x="250.211866" xlink:href="#mf8c639364a" y="169.609141"/>
     <use style="stroke:#000000;" x="244.993777" xlink:href="#mf8c639364a" y="167.630479"/>
     <use style="stroke:#000000;" x="242.454115" xlink:href="#mf8c639364a" y="166.32215"/>
     <use style="stroke:#000000;" x="245.169445" xlink:href="#mf8c639364a" y="167.768578"/>
     <use style="stroke:#000000;" x="237.995544" xlink:href="#mf8c639364a" y="174.504235"/>
     <use style="stroke:#000000;" x="237.326982" xlink:href="#mf8c639364a" y="174.069036"/>
     <use style="stroke:#000000;" x="240.691907" xlink:href="#mf8c639364a" y="174.528"/>
     <use style="stroke:#000000;" x="245.805585" xlink:href="#mf8c639364a" y="168.540805"/>
     <use style="stroke:#000000;" x="249.662452" xlink:href="#mf8c639364a" y="165.792952"/>
     <use style="stroke:#000000;" x="246.925989" xlink:href="#mf8c639364a" y="167.218297"/>
     <use style="stroke:#000000;" x="251.853563" xlink:href="#mf8c639364a" y="169.99511"/>
     <use style="stroke:#000000;" x="250.958391" xlink:href="#mf8c639364a" y="170.458173"/>
     <use style="stroke:#000000;" x="251.480605" xlink:href="#mf8c639364a" y="170.281482"/>
     <use style="stroke:#000000;" x="249.792524" xlink:href="#mf8c639364a" y="172.477755"/>
     <use style="stroke:#000000;" x="250.503735" xlink:href="#mf8c639364a" y="171.949365"/>
     <use style="stroke:#000000;" x="251.3632" xlink:href="#mf8c639364a" y="172.344515"/>
     <use style="stroke:#000000;" x="246.448687" xlink:href="#mf8c639364a" y="170.175868"/>
     <use style="stroke:#000000;" x="245.068958" xlink:href="#mf8c639364a" y="168.443888"/>
     <use style="stroke:#000000;" x="245.005695" xlink:href="#mf8c639364a" y="171.76455"/>
     <use style="stroke:#000000;" x="247.556911" xlink:href="#mf8c639364a" y="167.836031"/>
     <use style="stroke:#000000;" x="249.088657" xlink:href="#mf8c639364a" y="167.499125"/>
     <use style="stroke:#000000;" x="247.683816" xlink:href="#mf8c639364a" y="167.243982"/>
     <use style="stroke:#000000;" x="246.040677" xlink:href="#mf8c639364a" y="167.76462"/>
     <use style="stroke:#000000;" x="246.888061" xlink:href="#mf8c639364a" y="166.784836"/>
     <use style="stroke:#000000;" x="242.78192" xlink:href="#mf8c639364a" y="166.278864"/>
     <use style="stroke:#000000;" x="245.60837" xlink:href="#mf8c639364a" y="173.97537"/>
     <use style="stroke:#000000;" x="243.862775" xlink:href="#mf8c639364a" y="173.893412"/>
     <use style="stroke:#000000;" x="242.299068" xlink:href="#mf8c639364a" y="172.655815"/>
     <use style="stroke:#000000;" x="238.473123" xlink:href="#mf8c639364a" y="173.650005"/>
     <use style="stroke:#000000;" x="237.960215" xlink:href="#mf8c639364a" y="172.619865"/>
     <use style="stroke:#000000;" x="237.353519" xlink:href="#mf8c639364a" y="173.534314"/>
     <use style="stroke:#000000;" x="241.611796" xlink:href="#mf8c639364a" y="174.528"/>
     <use style="stroke:#000000;" x="241.139952" xlink:href="#mf8c639364a" y="174.528"/>
     <use style="stroke:#000000;" x="239.353796" xlink:href="#mf8c639364a" y="172.926282"/>
     <use style="stroke:#000000;" x="238.635434" xlink:href="#mf8c639364a" y="172.697496"/>
     <use style="stroke:#000000;" x="242.734759" xlink:href="#mf8c639364a" y="171.479763"/>
     <use style="stroke:#000000;" x="237.052027" xlink:href="#mf8c639364a" y="174.528"/>
     <use style="stroke:#000000;" x="238.889744" xlink:href="#mf8c639364a" y="174.528"/>
     <use style="stroke:#000000;" x="238.398115" xlink:href="#mf8c639364a" y="171.433292"/>
     <use style="stroke:#000000;" x="249.830774" xlink:href="#mf8c639364a" y="168.876028"/>
     <use style="stroke:#000000;" x="237.868136" xlink:href="#mf8c639364a" y="174.528"/>
     <use style="stroke:#000000;" x="238.968002" xlink:href="#mf8c639364a" y="174.528"/>
     <use style="stroke:#000000;" x="250.950038" xlink:href="#mf8c639364a" y="168.397985"/>
     <use style="stroke:#000000;" x="239.518848" xlink:href="#mf8c639364a" y="172.545734"/>
     <use style="stroke:#000000;" x="237.857214" xlink:href="#mf8c639364a" y="173.10762"/>
     <use style="stroke:#000000;" x="238.562541" xlink:href="#mf8c639364a" y="173.084506"/>
     <use style="stroke:#000000;" x="240.401452" xlink:href="#mf8c639364a" y="167.952447"/>
     <use style="stroke:#000000;" x="239.741504" xlink:href="#mf8c639364a" y="174.528"/>
     <use style="stroke:#000000;" x="237.748178" xlink:href="#mf8c639364a" y="173.091902"/>
     <use style="stroke:#000000;" x="250.786745" xlink:href="#mf8c639364a" y="172.461427"/>
     <use style="stroke:#000000;" x="242.335057" xlink:href="#mf8c639364a" y="174.528"/>
     <use style="stroke:#000000;" x="239.174038" xlink:href="#mf8c639364a" y="164.860303"/>
     <use style="stroke:#000000;" x="240.038662" xlink:href="#mf8c639364a" y="171.642624"/>
     <use style="stroke:#000000;" x="238.848982" xlink:href="#mf8c639364a" y="165.649924"/>
     <use style="stroke:#000000;" x="245.53307" xlink:href="#mf8c639364a" y="174.528"/>
     <use style="stroke:#000000;" x="244.456377" xlink:href="#mf8c639364a" y="174.333271"/>
     <use style="stroke:#000000;" x="243.062732" xlink:href="#mf8c639364a" y="167.488925"/>
     <use style="stroke:#000000;" x="236.16" xlink:href="#mf8c639364a" y="173.620465"/>
     <use style="stroke:#000000;" x="236.643592" xlink:href="#mf8c639364a" y="173.249907"/>
     <use style="stroke:#000000;" x="245.949743" xlink:href="#mf8c639364a" y="168.420433"/>
     <use style="stroke:#000000;" x="244.553403" xlink:href="#mf8c639364a" y="166.808518"/>
     <use style="stroke:#000000;" x="244.274944" xlink:href="#mf8c639364a" y="171.810508"/>
     <use style="stroke:#000000;" x="243.771495" xlink:href="#mf8c639364a" y="174.528"/>
     <use style="stroke:#000000;" x="244.273647" xlink:href="#mf8c639364a" y="168.628679"/>
     <use style="stroke:#000000;" x="242.276301" xlink:href="#mf8c639364a" y="168.19034"/>
     <use style="stroke:#000000;" x="244.639141" xlink:href="#mf8c639364a" y="167.48634"/>
     <use style="stroke:#000000;" x="245.616393" xlink:href="#mf8c639364a" y="165.432371"/>
     <use style="stroke:#000000;" x="248.294689" xlink:href="#mf8c639364a" y="166.940629"/>
     <use style="stroke:#000000;" x="239.957949" xlink:href="#mf8c639364a" y="173.905942"/>
     <use style="stroke:#000000;" x="236.16" xlink:href="#mf8c639364a" y="174.528"/>
     <use style="stroke:#000000;" x="244.381123" xlink:href="#mf8c639364a" y="164.666227"/>
     <use style="stroke:#000000;" x="244.669785" xlink:href="#mf8c639364a" y="166.370003"/>
     <use style="stroke:#000000;" x="250.339757" xlink:href="#mf8c639364a" y="167.966076"/>
     <use style="stroke:#000000;" x="245.909384" xlink:href="#mf8c639364a" y="169.36495"/>
     <use style="stroke:#000000;" x="247.541337" xlink:href="#mf8c639364a" y="167.688494"/>
     <use style="stroke:#000000;" x="246.074111" xlink:href="#mf8c639364a" y="168.198865"/>
     <use style="stroke:#000000;" x="243.117183" xlink:href="#mf8c639364a" y="167.10475"/>
     <use style="stroke:#000000;" x="245.578458" xlink:href="#mf8c639364a" y="168.018611"/>
     <use style="stroke:#000000;" x="246.287992" xlink:href="#mf8c639364a" y="170.693646"/>
     <use style="stroke:#000000;" x="247.306764" xlink:href="#mf8c639364a" y="170.881549"/>
     <use style="stroke:#000000;" x="239.320377" xlink:href="#mf8c639364a" y="173.382012"/>
     <use style="stroke:#000000;" x="238.76321" xlink:href="#mf8c639364a" y="173.41882"/>
     <use style="stroke:#000000;" x="236.881652" xlink:href="#mf8c639364a" y="174.04267"/>
     <use style="stroke:#000000;" x="238.287714" xlink:href="#mf8c639364a" y="174.517936"/>
     <use style="stroke:#000000;" x="241.990775" xlink:href="#mf8c639364a" y="174.528"/>
     <use style="stroke:#000000;" x="243.471318" xlink:href="#mf8c639364a" y="174.182866"/>
     <use style="stroke:#000000;" x="236.665896" xlink:href="#mf8c639364a" y="166.160317"/>
     <use style="stroke:#000000;" x="240.37568" xlink:href="#mf8c639364a" y="173.245608"/>
     <use style="stroke:#000000;" x="238.226824" xlink:href="#mf8c639364a" y="169.272289"/>
     <use style="stroke:#000000;" x="238.911505" xlink:href="#mf8c639364a" y="170.984677"/>
     <use style="stroke:#000000;" x="241.003289" xlink:href="#mf8c639364a" y="173.884461"/>
    </g>
   </g>
   <g id="PathCollection_2">
    <defs>
     <path d="M 0 0.935414 
C 0.248075 0.935414 0.486022 0.836853 0.661438 0.661438 
C 0.836853 0.486022 0.935414 0.248075 0.935414 0 
C 0.935414 -0.248075 0.836853 -0.486022 0.661438 -0.661438 
C 0.486022 -0.836853 0.248075 -0.935414 0 -0.935414 
C -0.248075 -0.935414 -0.486022 -0.836853 -0.661438 -0.661438 
C -0.836853 -0.486022 -0.935414 -0.248075 -0.935414 0 
C -0.935414 0.248075 -0.836853 0.486022 -0.661438 0.661438 
C -0.486022 0.836853 -0.248075 0.935414 0 0.935414 
z
" id="m52c772380a" style="stroke:#0000ff;"/>
    </defs>
    <g clip-path="url(#p79354ff3e7)">
     <use style="fill:#0000ff;stroke:#0000ff;" x="237.418462" xlink:href="#m52c772380a" y="171.690722"/>
     <use style="fill:#0000ff;stroke:#0000ff;" x="240.017296" xlink:href="#m52c772380a" y="169.64357"/>
     <use style="fill:#0000ff;stroke:#0000ff;" x="236.416239" xlink:href="#m52c772380a" y="171.824239"/>
     <use style="fill:#0000ff;stroke:#0000ff;" x="237.327341" xlink:href="#m52c772380a" y="174.528"/>
     <use style="fill:#0000ff;stroke:#0000ff;" x="251.301648" xlink:href="#m52c772380a" y="167.455521"/>
     <use style="fill:#0000ff;stroke:#0000ff;" x="240.06685" xlink:href="#m52c772380a" y="174.528"/>
     <use style="fill:#0000ff;stroke:#0000ff;" x="243.713729" xlink:href="#m52c772380a" y="171.1437"/>
     <use style="fill:#0000ff;stroke:#0000ff;" x="237.411399" xlink:href="#m52c772380a" y="174.528"/>
     <use style="fill:#0000ff;stroke:#0000ff;" x="236.16" xlink:href="#m52c772380a" y="174.528"/>
     <use style="fill:#0000ff;stroke:#0000ff;" x="244.038091" xlink:href="#m52c772380a" y="172.69623"/>
     <use style="fill:#0000ff;stroke:#0000ff;" x="251.276951" xlink:href="#m52c772380a" y="171.378438"/>
     <use style="fill:#0000ff;stroke:#0000ff;" x="244.3989" xlink:href="#m52c772380a" y="167.188067"/>
     <use style="fill:#0000ff;stroke:#0000ff;" x="237.192717" xlink:href="#m52c772380a" y="174.487365"/>
     <use style="fill:#0000ff;stroke:#0000ff;" x="247.822378" xlink:href="#m52c772380a" y="167.20382"/>
     <use style="fill:#0000ff;stroke:#0000ff;" x="251.158026" xlink:href="#m52c772380a" y="169.459484"/>
     <use style="fill:#0000ff;stroke:#0000ff;" x="251.1873" xlink:href="#m52c772380a" y="172.378805"/>
     <use style="fill:#0000ff;stroke:#0000ff;" x="244.099508" xlink:href="#m52c772380a" y="169.76729"/>
     <use style="fill:#0000ff;stroke:#0000ff;" x="247.789805" xlink:href="#m52c772380a" y="167.905341"/>
     <use style="fill:#0000ff;stroke:#0000ff;" x="244.579865" xlink:href="#m52c772380a" y="167.02049"/>
     <use style="fill:#0000ff;stroke:#0000ff;" x="244.304199" xlink:href="#m52c772380a" y="173.733806"/>
     <use style="fill:#0000ff;stroke:#0000ff;" x="237.006556" xlink:href="#m52c772380a" y="173.41224"/>
     <use style="fill:#0000ff;stroke:#0000ff;" x="238.8968" xlink:href="#m52c772380a" y="174.528"/>
     <use style="fill:#0000ff;stroke:#0000ff;" x="237.661731" xlink:href="#m52c772380a" y="171.115194"/>
     <use style="fill:#0000ff;stroke:#0000ff;" x="239.075796" xlink:href="#m52c772380a" y="174.528"/>
     <use style="fill:#0000ff;stroke:#0000ff;" x="237.594618" xlink:href="#m52c772380a" y="171.774074"/>
     <use style="fill:#0000ff;stroke:#0000ff;" x="251.507654" xlink:href="#m52c772380a" y="168.930042"/>
     <use style="fill:#0000ff;stroke:#0000ff;" x="237.495531" xlink:href="#m52c772380a" y="174.30803"/>
     <use style="fill:#0000ff;stroke:#0000ff;" x="251.418365" xlink:href="#m52c772380a" y="168.244599"/>
     <use style="fill:#0000ff;stroke:#0000ff;" x="238.852646" xlink:href="#m52c772380a" y="172.696062"/>
     <use style="fill:#0000ff;stroke:#0000ff;" x="237.578628" xlink:href="#m52c772380a" y="172.525505"/>
     <use style="fill:#0000ff;stroke:#0000ff;" x="238.095419" xlink:href="#m52c772380a" y="168.637322"/>
     <use style="fill:#0000ff;stroke:#0000ff;" x="236.462927" xlink:href="#m52c772380a" y="174.528"/>
     <use style="fill:#0000ff;stroke:#0000ff;" x="236.839228" xlink:href="#m52c772380a" y="172.874362"/>
     <use style="fill:#0000ff;stroke:#0000ff;" x="251.571046" xlink:href="#m52c772380a" y="172.496979"/>
     <use style="fill:#0000ff;stroke:#0000ff;" x="244.016649" xlink:href="#m52c772380a" y="174.528"/>
     <use style="fill:#0000ff;stroke:#0000ff;" x="240.160415" xlink:href="#m52c772380a" y="165.923906"/>
     <use style="fill:#0000ff;stroke:#0000ff;" x="240.326751" xlink:href="#m52c772380a" y="174.193812"/>
     <use style="fill:#0000ff;stroke:#0000ff;" x="240.260514" xlink:href="#m52c772380a" y="167.26571"/>
     <use style="fill:#0000ff;stroke:#0000ff;" x="244.266738" xlink:href="#m52c772380a" y="174.528"/>
     <use style="fill:#0000ff;stroke:#0000ff;" x="243.496963" xlink:href="#m52c772380a" y="167.632966"/>
     <use style="fill:#0000ff;stroke:#0000ff;" x="236.16" xlink:href="#m52c772380a" y="174.140558"/>
     <use style="fill:#0000ff;stroke:#0000ff;" x="244.452343" xlink:href="#m52c772380a" y="166.865496"/>
     <use style="fill:#0000ff;stroke:#0000ff;" x="244.510313" xlink:href="#m52c772380a" y="173.193401"/>
     <use style="fill:#0000ff;stroke:#0000ff;" x="244.045084" xlink:href="#m52c772380a" y="169.330843"/>
     <use style="fill:#0000ff;stroke:#0000ff;" x="244.062384" xlink:href="#m52c772380a" y="168.194688"/>
     <use style="fill:#0000ff;stroke:#0000ff;" x="247.473345" xlink:href="#m52c772380a" y="164.987114"/>
     <use style="fill:#0000ff;stroke:#0000ff;" x="237.310882" xlink:href="#m52c772380a" y="174.528"/>
     <use style="fill:#0000ff;stroke:#0000ff;" x="244.686397" xlink:href="#m52c772380a" y="164.568528"/>
     <use style="fill:#0000ff;stroke:#0000ff;" x="247.977078" xlink:href="#m52c772380a" y="168.475332"/>
     <use style="fill:#0000ff;stroke:#0000ff;" x="247.988152" xlink:href="#m52c772380a" y="170.071998"/>
     <use style="fill:#0000ff;stroke:#0000ff;" x="244.289881" xlink:href="#m52c772380a" y="167.347261"/>
     <use style="fill:#0000ff;stroke:#0000ff;" x="247.542809" xlink:href="#m52c772380a" y="169.181558"/>
     <use style="fill:#0000ff;stroke:#0000ff;" x="239.034638" xlink:href="#m52c772380a" y="174.449431"/>
     <use style="fill:#0000ff;stroke:#0000ff;" x="237.083287" xlink:href="#m52c772380a" y="173.594549"/>
     <use style="fill:#0000ff;stroke:#0000ff;" x="239.399803" xlink:href="#m52c772380a" y="174.528"/>
     <use style="fill:#0000ff;stroke:#0000ff;" x="237.700955" xlink:href="#m52c772380a" y="167.356707"/>
     <use style="fill:#0000ff;stroke:#0000ff;" x="239.41246" xlink:href="#m52c772380a" y="174.528"/>
     <use style="fill:#0000ff;stroke:#0000ff;" x="239.137891" xlink:href="#m52c772380a" y="169.812657"/>
     <use style="fill:#0000ff;stroke:#0000ff;" x="236.703464" xlink:href="#m52c772380a" y="171.324112"/>
     <use style="fill:#0000ff;stroke:#0000ff;" x="237.585351" xlink:href="#m52c772380a" y="172.427841"/>
    </g>
   </g>
   <g id="matplotlib.axis_1">
    <g id="xtick_1">
     <g id="line2d_1">
      <defs>
       <path d="M 0 0 
L 0 3.5 
" id="mf0d26a8f12" style="stroke:#000000;stroke-width:0.8;"/>
      </defs>
      <g>
       <use style="stroke:#000000;stroke-width:0.8;" x="57.6" xlink:href="#mf0d26a8f12" y="307.584"/>
      </g>
     </g>
     <g id="text_1">
      <!-- −10.0 -->
      <defs>
       <path d="M 10.59375 35.5 
L 73.1875 35.5 
L 73.1875 27.203125 
L 10.59375 27.203125 
z
" id="DejaVuSans-2212"/>
       <path d="M 12.40625 8.296875 
L 28.515625 8.296875 
L 28.515625 63.921875 
L 10.984375 60.40625 
L 10.984375 69.390625 
L 28.421875 72.90625 
L 38.28125 72.90625 
L 38.28125 8.296875 
L 54.390625 8.296875 
L 54.390625 0 
L 12.40625 0 
z
" id="DejaVuSans-31"/>
       <path d="M 31.78125 66.40625 
Q 24.171875 66.40625 20.328125 58.90625 
Q 16.5 51.421875 16.5 36.375 
Q 16.5 21.390625 20.328125 13.890625 
Q 24.171875 6.390625 31.78125 6.390625 
Q 39.453125 6.390625 43.28125 13.890625 
Q 47.125 21.390625 47.125 36.375 
Q 47.125 51.421875 43.28125 58.90625 
Q 39.453125 66.40625 31.78125 66.40625 
z
M 31.78125 74.21875 
Q 44.046875 74.21875 50.515625 64.515625 
Q 56.984375 54.828125 56.984375 36.375 
Q 56.984375 17.96875 50.515625 8.265625 
Q 44.046875 -1.421875 31.78125 -1.421875 
Q 19.53125 -1.421875 13.0625 8.265625 
Q 6.59375 17.96875 6.59375 36.375 
Q 6.59375 54.828125 13.0625 64.515625 
Q 19.53125 74.21875 31.78125 74.21875 
z
" id="DejaVuSans-30"/>
       <path d="M 10.6875 12.40625 
L 21 12.40625 
L 21 0 
L 10.6875 0 
z
" id="DejaVuSans-2e"/>
      </defs>
      <g transform="translate(42.277344 322.182437)scale(0.1 -0.1)">
       <use xlink:href="#DejaVuSans-2212"/>
       <use x="83.789062" xlink:href="#DejaVuSans-31"/>
       <use x="147.412109" xlink:href="#DejaVuSans-30"/>
       <use x="211.035156" xlink:href="#DejaVuSans-2e"/>
       <use x="242.822266" xlink:href="#DejaVuSans-30"/>
      </g>
     </g>
    </g>
    <g id="xtick_2">
     <g id="line2d_2">
      <g>
       <use style="stroke:#000000;stroke-width:0.8;" x="102.24" xlink:href="#mf0d26a8f12" y="307.584"/>
      </g>
     </g>
     <g id="text_2">
      <!-- −7.5 -->
      <defs>
       <path d="M 8.203125 72.90625 
L 55.078125 72.90625 
L 55.078125 68.703125 
L 28.609375 0 
L 18.3125 0 
L 43.21875 64.59375 
L 8.203125 64.59375 
z
" id="DejaVuSans-37"/>
       <path d="M 10.796875 72.90625 
L 49.515625 72.90625 
L 49.515625 64.59375 
L 19.828125 64.59375 
L 19.828125 46.734375 
Q 21.96875 47.46875 24.109375 47.828125 
Q 26.265625 48.1875 28.421875 48.1875 
Q 40.625 48.1875 47.75 41.5 
Q 54.890625 34.8125 54.890625 23.390625 
Q 54.890625 11.625 47.5625 5.09375 
Q 40.234375 -1.421875 26.90625 -1.421875 
Q 22.3125 -1.421875 17.546875 -0.640625 
Q 12.796875 0.140625 7.71875 1.703125 
L 7.71875 11.625 
Q 12.109375 9.234375 16.796875 8.0625 
Q 21.484375 6.890625 26.703125 6.890625 
Q 35.15625 6.890625 40.078125 11.328125 
Q 45.015625 15.765625 45.015625 23.390625 
Q 45.015625 31 40.078125 35.4375 
Q 35.15625 39.890625 26.703125 39.890625 
Q 22.75 39.890625 18.8125 39.015625 
Q 14.890625 38.140625 10.796875 36.28125 
z
" id="DejaVuSans-35"/>
      </defs>
      <g transform="translate(90.098594 322.182437)scale(0.1 -0.1)">
       <use xlink:href="#DejaVuSans-2212"/>
       <use x="83.789062" xlink:href="#DejaVuSans-37"/>
       <use x="147.412109" xlink:href="#DejaVuSans-2e"/>
       <use x="179.199219" xlink:href="#DejaVuSans-35"/>
      </g>
     </g>
    </g>
    <g id="xtick_3">
     <g id="line2d_3">
      <g>
       <use style="stroke:#000000;stroke-width:0.8;" x="146.88" xlink:href="#mf0d26a8f12" y="307.584"/>
      </g>
     </g>
     <g id="text_3">
      <!-- −5.0 -->
      <g transform="translate(134.738594 322.182437)scale(0.1 -0.1)">
       <use xlink:href="#DejaVuSans-2212"/>
       <use x="83.789062" xlink:href="#DejaVuSans-35"/>
       <use x="147.412109" xlink:href="#DejaVuSans-2e"/>
       <use x="179.199219" xlink:href="#DejaVuSans-30"/>
      </g>
     </g>
    </g>
    <g id="xtick_4">
     <g id="line2d_4">
      <g>
       <use style="stroke:#000000;stroke-width:0.8;" x="191.52" xlink:href="#mf0d26a8f12" y="307.584"/>
      </g>
     </g>
     <g id="text_4">
      <!-- −2.5 -->
      <defs>
       <path d="M 19.1875 8.296875 
L 53.609375 8.296875 
L 53.609375 0 
L 7.328125 0 
L 7.328125 8.296875 
Q 12.9375 14.109375 22.625 23.890625 
Q 32.328125 33.6875 34.8125 36.53125 
Q 39.546875 41.84375 41.421875 45.53125 
Q 43.3125 49.21875 43.3125 52.78125 
Q 43.3125 58.59375 39.234375 62.25 
Q 35.15625 65.921875 28.609375 65.921875 
Q 23.96875 65.921875 18.8125 64.3125 
Q 13.671875 62.703125 7.8125 59.421875 
L 7.8125 69.390625 
Q 13.765625 71.78125 18.9375 73 
Q 24.125 74.21875 28.421875 74.21875 
Q 39.75 74.21875 46.484375 68.546875 
Q 53.21875 62.890625 53.21875 53.421875 
Q 53.21875 48.921875 51.53125 44.890625 
Q 49.859375 40.875 45.40625 35.40625 
Q 44.1875 33.984375 37.640625 27.21875 
Q 31.109375 20.453125 19.1875 8.296875 
z
" id="DejaVuSans-32"/>
      </defs>
      <g transform="translate(179.378594 322.182437)scale(0.1 -0.1)">
       <use xlink:href="#DejaVuSans-2212"/>
       <use x="83.789062" xlink:href="#DejaVuSans-32"/>
       <use x="147.412109" xlink:href="#DejaVuSans-2e"/>
       <use x="179.199219" xlink:href="#DejaVuSans-35"/>
      </g>
     </g>
    </g>
    <g id="xtick_5">
     <g id="line2d_5">
      <g>
       <use style="stroke:#000000;stroke-width:0.8;" x="236.16" xlink:href="#mf0d26a8f12" y="307.584"/>
      </g>
     </g>
     <g id="text_5">
      <!-- 0.0 -->
      <g transform="translate(228.208438 322.182437)scale(0.1 -0.1)">
       <use xlink:href="#DejaVuSans-30"/>
       <use x="63.623047" xlink:href="#DejaVuSans-2e"/>
       <use x="95.410156" xlink:href="#DejaVuSans-30"/>
      </g>
     </g>
    </g>
    <g id="xtick_6">
     <g id="line2d_6">
      <g>
       <use style="stroke:#000000;stroke-width:0.8;" x="280.8" xlink:href="#mf0d26a8f12" y="307.584"/>
      </g>
     </g>
     <g id="text_6">
      <!-- 2.5 -->
      <g transform="translate(272.848437 322.182437)scale(0.1 -0.1)">
       <use xlink:href="#DejaVuSans-32"/>
       <use x="63.623047" xlink:href="#DejaVuSans-2e"/>
       <use x="95.410156" xlink:href="#DejaVuSans-35"/>
      </g>
     </g>
    </g>
    <g id="xtick_7">
     <g id="line2d_7">
      <g>
       <use style="stroke:#000000;stroke-width:0.8;" x="325.44" xlink:href="#mf0d26a8f12" y="307.584"/>
      </g>
     </g>
     <g id="text_7">
      <!-- 5.0 -->
      <g transform="translate(317.488437 322.182437)scale(0.1 -0.1)">
       <use xlink:href="#DejaVuSans-35"/>
       <use x="63.623047" xlink:href="#DejaVuSans-2e"/>
       <use x="95.410156" xlink:href="#DejaVuSans-30"/>
      </g>
     </g>
    </g>
    <g id="xtick_8">
     <g id="line2d_8">
      <g>
       <use style="stroke:#000000;stroke-width:0.8;" x="370.08" xlink:href="#mf0d26a8f12" y="307.584"/>
      </g>
     </g>
     <g id="text_8">
      <!-- 7.5 -->
      <g transform="translate(362.128438 322.182437)scale(0.1 -0.1)">
       <use xlink:href="#DejaVuSans-37"/>
       <use x="63.623047" xlink:href="#DejaVuSans-2e"/>
       <use x="95.410156" xlink:href="#DejaVuSans-35"/>
      </g>
     </g>
    </g>
    <g id="xtick_9">
     <g id="line2d_9">
      <g>
       <use style="stroke:#000000;stroke-width:0.8;" x="414.72" xlink:href="#mf0d26a8f12" y="307.584"/>
      </g>
     </g>
     <g id="text_9">
      <!-- 10.0 -->
      <g transform="translate(403.587188 322.182437)scale(0.1 -0.1)">
       <use xlink:href="#DejaVuSans-31"/>
       <use x="63.623047" xlink:href="#DejaVuSans-30"/>
       <use x="127.246094" xlink:href="#DejaVuSans-2e"/>
       <use x="159.033203" xlink:href="#DejaVuSans-30"/>
      </g>
     </g>
    </g>
   </g>
   <g id="matplotlib.axis_2">
    <g id="ytick_1">
     <g id="line2d_10">
      <defs>
       <path d="M 0 0 
L -3.5 0 
" id="m5fc1d09b3e" style="stroke:#000000;stroke-width:0.8;"/>
      </defs>
      <g>
       <use style="stroke:#000000;stroke-width:0.8;" x="57.6" xlink:href="#m5fc1d09b3e" y="307.584"/>
      </g>
     </g>
     <g id="text_10">
      <!-- −10.0 -->
      <g transform="translate(19.954687 311.383219)scale(0.1 -0.1)">
       <use xlink:href="#DejaVuSans-2212"/>
       <use x="83.789062" xlink:href="#DejaVuSans-31"/>
       <use x="147.412109" xlink:href="#DejaVuSans-30"/>
       <use x="211.035156" xlink:href="#DejaVuSans-2e"/>
       <use x="242.822266" xlink:href="#DejaVuSans-30"/>
      </g>
     </g>
    </g>
    <g id="ytick_2">
     <g id="line2d_11">
      <g>
       <use style="stroke:#000000;stroke-width:0.8;" x="57.6" xlink:href="#m5fc1d09b3e" y="274.32"/>
      </g>
     </g>
     <g id="text_11">
      <!-- −7.5 -->
      <g transform="translate(26.317187 278.119219)scale(0.1 -0.1)">
       <use xlink:href="#DejaVuSans-2212"/>
       <use x="83.789062" xlink:href="#DejaVuSans-37"/>
       <use x="147.412109" xlink:href="#DejaVuSans-2e"/>
       <use x="179.199219" xlink:href="#DejaVuSans-35"/>
      </g>
     </g>
    </g>
    <g id="ytick_3">
     <g id="line2d_12">
      <g>
       <use style="stroke:#000000;stroke-width:0.8;" x="57.6" xlink:href="#m5fc1d09b3e" y="241.056"/>
      </g>
     </g>
     <g id="text_12">
      <!-- −5.0 -->
      <g transform="translate(26.317187 244.855219)scale(0.1 -0.1)">
       <use xlink:href="#DejaVuSans-2212"/>
       <use x="83.789062" xlink:href="#DejaVuSans-35"/>
       <use x="147.412109" xlink:href="#DejaVuSans-2e"/>
       <use x="179.199219" xlink:href="#DejaVuSans-30"/>
      </g>
     </g>
    </g>
    <g id="ytick_4">
     <g id="line2d_13">
      <g>
       <use style="stroke:#000000;stroke-width:0.8;" x="57.6" xlink:href="#m5fc1d09b3e" y="207.792"/>
      </g>
     </g>
     <g id="text_13">
      <!-- −2.5 -->
      <g transform="translate(26.317187 211.591219)scale(0.1 -0.1)">
       <use xlink:href="#DejaVuSans-2212"/>
       <use x="83.789062" xlink:href="#DejaVuSans-32"/>
       <use x="147.412109" xlink:href="#DejaVuSans-2e"/>
       <use x="179.199219" xlink:href="#DejaVuSans-35"/>
      </g>
     </g>
    </g>
    <g id="ytick_5">
     <g id="line2d_14">
      <g>
       <use style="stroke:#000000;stroke-width:0.8;" x="57.6" xlink:href="#m5fc1d09b3e" y="174.528"/>
      </g>
     </g>
     <g id="text_14">
      <!-- 0.0 -->
      <g transform="translate(34.696875 178.327219)scale(0.1 -0.1)">
       <use xlink:href="#DejaVuSans-30"/>
       <use x="63.623047" xlink:href="#DejaVuSans-2e"/>
       <use x="95.410156" xlink:href="#DejaVuSans-30"/>
      </g>
     </g>
    </g>
    <g id="ytick_6">
     <g id="line2d_15">
      <g>
       <use style="stroke:#000000;stroke-width:0.8;" x="57.6" xlink:href="#m5fc1d09b3e" y="141.264"/>
      </g>
     </g>
     <g id="text_15">
      <!-- 2.5 -->
      <g transform="translate(34.696875 145.063219)scale(0.1 -0.1)">
       <use xlink:href="#DejaVuSans-32"/>
       <use x="63.623047" xlink:href="#DejaVuSans-2e"/>
       <use x="95.410156" xlink:href="#DejaVuSans-35"/>
      </g>
     </g>
    </g>
    <g id="ytick_7">
     <g id="line2d_16">
      <g>
       <use style="stroke:#000000;stroke-width:0.8;" x="57.6" xlink:href="#m5fc1d09b3e" y="108"/>
      </g>
     </g>
     <g id="text_16">
      <!-- 5.0 -->
      <g transform="translate(34.696875 111.799219)scale(0.1 -0.1)">
       <use xlink:href="#DejaVuSans-35"/>
       <use x="63.623047" xlink:href="#DejaVuSans-2e"/>
       <use x="95.410156" xlink:href="#DejaVuSans-30"/>
      </g>
     </g>
    </g>
    <g id="ytick_8">
     <g id="line2d_17">
      <g>
       <use style="stroke:#000000;stroke-width:0.8;" x="57.6" xlink:href="#m5fc1d09b3e" y="74.736"/>
      </g>
     </g>
     <g id="text_17">
      <!-- 7.5 -->
      <g transform="translate(34.696875 78.535219)scale(0.1 -0.1)">
       <use xlink:href="#DejaVuSans-37"/>
       <use x="63.623047" xlink:href="#DejaVuSans-2e"/>
       <use x="95.410156" xlink:href="#DejaVuSans-35"/>
      </g>
     </g>
    </g>
    <g id="ytick_9">
     <g id="line2d_18">
      <g>
       <use style="stroke:#000000;stroke-width:0.8;" x="57.6" xlink:href="#m5fc1d09b3e" y="41.472"/>
      </g>
     </g>
     <g id="text_18">
      <!-- 10.0 -->
      <g transform="translate(28.334375 45.271219)scale(0.1 -0.1)">
       <use xlink:href="#DejaVuSans-31"/>
       <use x="63.623047" xlink:href="#DejaVuSans-30"/>
       <use x="127.246094" xlink:href="#DejaVuSans-2e"/>
       <use x="159.033203" xlink:href="#DejaVuSans-30"/>
      </g>
     </g>
    </g>
   </g>
   <g id="patch_3">
    <path d="M 57.6 307.584 
L 57.6 41.472 
" style="fill:none;stroke:#000000;stroke-linecap:square;stroke-linejoin:miter;stroke-width:0.8;"/>
   </g>
   <g id="patch_4">
    <path d="M 414.72 307.584 
L 414.72 41.472 
" style="fill:none;stroke:#000000;stroke-linecap:square;stroke-linejoin:miter;stroke-width:0.8;"/>
   </g>
   <g id="patch_5">
    <path d="M 57.6 307.584 
L 414.72 307.584 
" style="fill:none;stroke:#000000;stroke-linecap:square;stroke-linejoin:miter;stroke-width:0.8;"/>
   </g>
   <g id="patch_6">
    <path d="M 57.6 41.472 
L 414.72 41.472 
" style="fill:none;stroke:#000000;stroke-linecap:square;stroke-linejoin:miter;stroke-width:0.8;"/>
   </g>
  </g>
 </g>
 <defs>
  <clipPath id="p79354ff3e7">
   <rect height="266.112" width="357.12" x="57.6" y="41.472"/>
  </clipPath>
 </defs>
</svg>
