<?xml version="1.0" encoding="utf-8" standalone="no"?>
<!DOCTYPE svg PUBLIC "-//W3C//DTD SVG 1.1//EN"
  "http://www.w3.org/Graphics/SVG/1.1/DTD/svg11.dtd">
<!-- Created with matplotlib (http://matplotlib.org/) -->
<svg height="345.6pt" version="1.1" viewBox="0 0 460.8 345.6" width="460.8pt" xmlns="http://www.w3.org/2000/svg" xmlns:xlink="http://www.w3.org/1999/xlink">
 <defs>
  <style type="text/css">
*{stroke-linecap:butt;stroke-linejoin:round;}
  </style>
 </defs>
 <g id="figure_1">
  <g id="patch_1">
   <path d="M 0 345.6 
L 460.8 345.6 
L 460.8 0 
L 0 0 
z
" style="fill:#ffffff;"/>
  </g>
  <g id="axes_1">
   <g id="patch_2">
    <path d="M 57.6 307.584 
L 414.72 307.584 
L 414.72 41.472 
L 57.6 41.472 
z
" style="fill:#ffffff;"/>
   </g>
   <g id="PathCollection_1">
    <defs>
     <path d="M 0 0.612372 
C 0.162403 0.612372 0.318176 0.547849 0.433013 0.433013 
C 0.547849 0.318176 0.612372 0.162403 0.612372 0 
C 0.612372 -0.162403 0.547849 -0.318176 0.433013 -0.433013 
C 0.318176 -0.547849 0.162403 -0.612372 0 -0.612372 
C -0.162403 -0.612372 -0.318176 -0.547849 -0.433013 -0.433013 
C -0.547849 -0.318176 -0.612372 -0.162403 -0.612372 0 
C -0.612372 0.162403 -0.547849 0.318176 -0.433013 0.433013 
C -0.318176 0.547849 -0.162403 0.612372 0 0.612372 
z
" id="m1c30508010" style="stroke:#000000;"/>
    </defs>
    <g clip-path="url(#p27de2f0529)">
     <use style="stroke:#000000;" x="245.442316" xlink:href="#m1c30508010" y="174.528"/>
     <use style="stroke:#000000;" x="236.16" xlink:href="#m1c30508010" y="134.6112"/>
     <use style="stroke:#000000;" x="236.16" xlink:href="#m1c30508010" y="159.526667"/>
     <use style="stroke:#000000;" x="236.16" xlink:href="#m1c30508010" y="134.6112"/>
     <use style="stroke:#000000;" x="236.16" xlink:href="#m1c30508010" y="172.561163"/>
     <use style="stroke:#000000;" x="236.16" xlink:href="#m1c30508010" y="174.528"/>
     <use style="stroke:#000000;" x="236.16" xlink:href="#m1c30508010" y="141.058225"/>
     <use style="stroke:#000000;" x="325.44" xlink:href="#m1c30508010" y="142.175733"/>
     <use style="stroke:#000000;" x="255.019646" xlink:href="#m1c30508010" y="174.528"/>
     <use style="stroke:#000000;" x="236.16" xlink:href="#m1c30508010" y="134.6112"/>
     <use style="stroke:#000000;" x="240.106143" xlink:href="#m1c30508010" y="174.528"/>
     <use style="stroke:#000000;" x="236.16" xlink:href="#m1c30508010" y="163.723797"/>
     <use style="stroke:#000000;" x="236.16" xlink:href="#m1c30508010" y="174.528"/>
     <use style="stroke:#000000;" x="236.16" xlink:href="#m1c30508010" y="147.806594"/>
     <use style="stroke:#000000;" x="236.16" xlink:href="#m1c30508010" y="147.955218"/>
     <use style="stroke:#000000;" x="236.16" xlink:href="#m1c30508010" y="150.313401"/>
     <use style="stroke:#000000;" x="325.44" xlink:href="#m1c30508010" y="140.736768"/>
     <use style="stroke:#000000;" x="236.16" xlink:href="#m1c30508010" y="170.072867"/>
     <use style="stroke:#000000;" x="236.16" xlink:href="#m1c30508010" y="145.034124"/>
     <use style="stroke:#000000;" x="236.16" xlink:href="#m1c30508010" y="150.935124"/>
     <use style="stroke:#000000;" x="236.16" xlink:href="#m1c30508010" y="143.975966"/>
     <use style="stroke:#000000;" x="236.16" xlink:href="#m1c30508010" y="142.435865"/>
     <use style="stroke:#000000;" x="325.44" xlink:href="#m1c30508010" y="143.998845"/>
     <use style="stroke:#000000;" x="321.885286" xlink:href="#m1c30508010" y="174.528"/>
     <use style="stroke:#000000;" x="236.16" xlink:href="#m1c30508010" y="139.295179"/>
     <use style="stroke:#000000;" x="265.870376" xlink:href="#m1c30508010" y="174.528"/>
     <use style="stroke:#000000;" x="236.16" xlink:href="#m1c30508010" y="134.6112"/>
     <use style="stroke:#000000;" x="304.775217" xlink:href="#m1c30508010" y="174.528"/>
     <use style="stroke:#000000;" x="325.44" xlink:href="#m1c30508010" y="171.318227"/>
     <use style="stroke:#000000;" x="236.16" xlink:href="#m1c30508010" y="134.6112"/>
     <use style="stroke:#000000;" x="236.16" xlink:href="#m1c30508010" y="165.22391"/>
     <use style="stroke:#000000;" x="236.16" xlink:href="#m1c30508010" y="135.242911"/>
     <use style="stroke:#000000;" x="236.16" xlink:href="#m1c30508010" y="159.103443"/>
     <use style="stroke:#000000;" x="236.16" xlink:href="#m1c30508010" y="134.6112"/>
     <use style="stroke:#000000;" x="238.269591" xlink:href="#m1c30508010" y="174.528"/>
     <use style="stroke:#000000;" x="236.16" xlink:href="#m1c30508010" y="169.062096"/>
     <use style="stroke:#000000;" x="265.10093" xlink:href="#m1c30508010" y="174.528"/>
     <use style="stroke:#000000;" x="236.16" xlink:href="#m1c30508010" y="174.528"/>
     <use style="stroke:#000000;" x="236.16" xlink:href="#m1c30508010" y="137.128196"/>
     <use style="stroke:#000000;" x="236.16" xlink:href="#m1c30508010" y="150.620073"/>
     <use style="stroke:#000000;" x="256.911715" xlink:href="#m1c30508010" y="174.528"/>
     <use style="stroke:#000000;" x="236.16" xlink:href="#m1c30508010" y="145.286898"/>
     <use style="stroke:#000000;" x="236.16" xlink:href="#m1c30508010" y="150.493043"/>
     <use style="stroke:#000000;" x="325.44" xlink:href="#m1c30508010" y="146.311296"/>
     <use style="stroke:#000000;" x="325.44" xlink:href="#m1c30508010" y="142.504809"/>
     <use style="stroke:#000000;" x="247.553536" xlink:href="#m1c30508010" y="174.528"/>
     <use style="stroke:#000000;" x="252.23494" xlink:href="#m1c30508010" y="174.528"/>
     <use style="stroke:#000000;" x="325.44" xlink:href="#m1c30508010" y="153.300602"/>
     <use style="stroke:#000000;" x="236.16" xlink:href="#m1c30508010" y="134.6112"/>
     <use style="stroke:#000000;" x="236.16" xlink:href="#m1c30508010" y="169.022272"/>
     <use style="stroke:#000000;" x="325.44" xlink:href="#m1c30508010" y="136.479949"/>
     <use style="stroke:#000000;" x="236.16" xlink:href="#m1c30508010" y="155.877912"/>
     <use style="stroke:#000000;" x="236.16" xlink:href="#m1c30508010" y="174.528"/>
     <use style="stroke:#000000;" x="273.106625" xlink:href="#m1c30508010" y="174.528"/>
     <use style="stroke:#000000;" x="237.369662" xlink:href="#m1c30508010" y="158.670884"/>
     <use style="stroke:#000000;" x="236.16" xlink:href="#m1c30508010" y="141.217429"/>
     <use style="stroke:#000000;" x="236.16" xlink:href="#m1c30508010" y="154.751733"/>
     <use style="stroke:#000000;" x="236.16" xlink:href="#m1c30508010" y="144.965599"/>
     <use style="stroke:#000000;" x="236.16" xlink:href="#m1c30508010" y="171.950206"/>
     <use style="stroke:#000000;" x="250.45418" xlink:href="#m1c30508010" y="174.528"/>
     <use style="stroke:#000000;" x="236.16" xlink:href="#m1c30508010" y="159.35726"/>
     <use style="stroke:#000000;" x="236.16" xlink:href="#m1c30508010" y="172.853128"/>
     <use style="stroke:#000000;" x="236.16" xlink:href="#m1c30508010" y="134.6112"/>
     <use style="stroke:#000000;" x="236.16" xlink:href="#m1c30508010" y="137.993202"/>
     <use style="stroke:#000000;" x="236.16" xlink:href="#m1c30508010" y="142.341553"/>
     <use style="stroke:#000000;" x="242.429072" xlink:href="#m1c30508010" y="174.528"/>
     <use style="stroke:#000000;" x="263.823517" xlink:href="#m1c30508010" y="174.528"/>
     <use style="stroke:#000000;" x="312.023915" xlink:href="#m1c30508010" y="174.528"/>
     <use style="stroke:#000000;" x="236.16" xlink:href="#m1c30508010" y="137.726036"/>
     <use style="stroke:#000000;" x="325.44" xlink:href="#m1c30508010" y="158.213463"/>
     <use style="stroke:#000000;" x="236.16" xlink:href="#m1c30508010" y="151.060116"/>
     <use style="stroke:#000000;" x="236.16" xlink:href="#m1c30508010" y="134.796243"/>
     <use style="stroke:#000000;" x="325.44" xlink:href="#m1c30508010" y="174.528"/>
     <use style="stroke:#000000;" x="236.16" xlink:href="#m1c30508010" y="172.220009"/>
     <use style="stroke:#000000;" x="236.16" xlink:href="#m1c30508010" y="163.544335"/>
     <use style="stroke:#000000;" x="236.16" xlink:href="#m1c30508010" y="173.968014"/>
     <use style="stroke:#000000;" x="236.16" xlink:href="#m1c30508010" y="142.144538"/>
     <use style="stroke:#000000;" x="236.16" xlink:href="#m1c30508010" y="145.036149"/>
     <use style="stroke:#000000;" x="325.44" xlink:href="#m1c30508010" y="147.462241"/>
     <use style="stroke:#000000;" x="236.16" xlink:href="#m1c30508010" y="150.176741"/>
     <use style="stroke:#000000;" x="264.686545" xlink:href="#m1c30508010" y="174.528"/>
     <use style="stroke:#000000;" x="236.16" xlink:href="#m1c30508010" y="135.064913"/>
     <use style="stroke:#000000;" x="236.16" xlink:href="#m1c30508010" y="135.333994"/>
     <use style="stroke:#000000;" x="242.49872" xlink:href="#m1c30508010" y="134.6112"/>
     <use style="stroke:#000000;" x="248.677484" xlink:href="#m1c30508010" y="134.6112"/>
     <use style="stroke:#000000;" x="243.265326" xlink:href="#m1c30508010" y="161.538763"/>
     <use style="stroke:#000000;" x="240.248353" xlink:href="#m1c30508010" y="156.965288"/>
     <use style="stroke:#000000;" x="240.097876" xlink:href="#m1c30508010" y="156.591826"/>
     <use style="stroke:#000000;" x="236.16" xlink:href="#m1c30508010" y="140.424875"/>
     <use style="stroke:#000000;" x="237.127259" xlink:href="#m1c30508010" y="134.6112"/>
     <use style="stroke:#000000;" x="236.16" xlink:href="#m1c30508010" y="137.734852"/>
     <use style="stroke:#000000;" x="236.939298" xlink:href="#m1c30508010" y="173.06435"/>
     <use style="stroke:#000000;" x="242.623511" xlink:href="#m1c30508010" y="172.059436"/>
     <use style="stroke:#000000;" x="240.141663" xlink:href="#m1c30508010" y="173.462061"/>
     <use style="stroke:#000000;" x="242.597921" xlink:href="#m1c30508010" y="174.528"/>
     <use style="stroke:#000000;" x="236.16" xlink:href="#m1c30508010" y="171.63636"/>
     <use style="stroke:#000000;" x="249.76853" xlink:href="#m1c30508010" y="174.528"/>
     <use style="stroke:#000000;" x="238.74185" xlink:href="#m1c30508010" y="145.879694"/>
     <use style="stroke:#000000;" x="236.16" xlink:href="#m1c30508010" y="136.974822"/>
     <use style="stroke:#000000;" x="236.16" xlink:href="#m1c30508010" y="143.173485"/>
     <use style="stroke:#000000;" x="322.76007" xlink:href="#m1c30508010" y="141.969349"/>
     <use style="stroke:#000000;" x="325.44" xlink:href="#m1c30508010" y="141.763043"/>
     <use style="stroke:#000000;" x="325.44" xlink:href="#m1c30508010" y="143.438444"/>
     <use style="stroke:#000000;" x="252.66793" xlink:href="#m1c30508010" y="174.528"/>
     <use style="stroke:#000000;" x="260.793554" xlink:href="#m1c30508010" y="174.146707"/>
     <use style="stroke:#000000;" x="272.531425" xlink:href="#m1c30508010" y="172.487923"/>
     <use style="stroke:#000000;" x="236.16" xlink:href="#m1c30508010" y="134.6112"/>
     <use style="stroke:#000000;" x="236.16" xlink:href="#m1c30508010" y="142.365283"/>
     <use style="stroke:#000000;" x="236.16" xlink:href="#m1c30508010" y="134.6112"/>
     <use style="stroke:#000000;" x="238.747378" xlink:href="#m1c30508010" y="173.429905"/>
     <use style="stroke:#000000;" x="240.533814" xlink:href="#m1c30508010" y="174.528"/>
     <use style="stroke:#000000;" x="236.702823" xlink:href="#m1c30508010" y="174.528"/>
     <use style="stroke:#000000;" x="241.579292" xlink:href="#m1c30508010" y="164.398171"/>
     <use style="stroke:#000000;" x="236.16" xlink:href="#m1c30508010" y="164.293351"/>
     <use style="stroke:#000000;" x="239.216843" xlink:href="#m1c30508010" y="160.730262"/>
     <use style="stroke:#000000;" x="236.16" xlink:href="#m1c30508010" y="174.528"/>
     <use style="stroke:#000000;" x="236.16" xlink:href="#m1c30508010" y="174.528"/>
     <use style="stroke:#000000;" x="236.16" xlink:href="#m1c30508010" y="169.638828"/>
     <use style="stroke:#000000;" x="236.16" xlink:href="#m1c30508010" y="154.00948"/>
     <use style="stroke:#000000;" x="236.16" xlink:href="#m1c30508010" y="144.736476"/>
     <use style="stroke:#000000;" x="236.16" xlink:href="#m1c30508010" y="143.453584"/>
     <use style="stroke:#000000;" x="236.16" xlink:href="#m1c30508010" y="151.409779"/>
     <use style="stroke:#000000;" x="236.16" xlink:href="#m1c30508010" y="145.942938"/>
     <use style="stroke:#000000;" x="236.16" xlink:href="#m1c30508010" y="152.432038"/>
     <use style="stroke:#000000;" x="240.497959" xlink:href="#m1c30508010" y="151.101195"/>
     <use style="stroke:#000000;" x="246.441592" xlink:href="#m1c30508010" y="146.543726"/>
     <use style="stroke:#000000;" x="236.16" xlink:href="#m1c30508010" y="146.171338"/>
     <use style="stroke:#000000;" x="325.44" xlink:href="#m1c30508010" y="143.854915"/>
     <use style="stroke:#000000;" x="325.44" xlink:href="#m1c30508010" y="134.6112"/>
     <use style="stroke:#000000;" x="321.855376" xlink:href="#m1c30508010" y="147.072346"/>
     <use style="stroke:#000000;" x="245.761813" xlink:href="#m1c30508010" y="167.753782"/>
     <use style="stroke:#000000;" x="238.38647" xlink:href="#m1c30508010" y="170.935978"/>
     <use style="stroke:#000000;" x="242.750074" xlink:href="#m1c30508010" y="172.661646"/>
     <use style="stroke:#000000;" x="236.16" xlink:href="#m1c30508010" y="149.487658"/>
     <use style="stroke:#000000;" x="236.16" xlink:href="#m1c30508010" y="148.691568"/>
     <use style="stroke:#000000;" x="247.688919" xlink:href="#m1c30508010" y="146.261511"/>
     <use style="stroke:#000000;" x="236.16" xlink:href="#m1c30508010" y="151.163029"/>
     <use style="stroke:#000000;" x="236.16" xlink:href="#m1c30508010" y="157.379223"/>
     <use style="stroke:#000000;" x="242.330648" xlink:href="#m1c30508010" y="151.886348"/>
     <use style="stroke:#000000;" x="236.16" xlink:href="#m1c30508010" y="143.423764"/>
     <use style="stroke:#000000;" x="250.797236" xlink:href="#m1c30508010" y="144.988601"/>
     <use style="stroke:#000000;" x="243.371872" xlink:href="#m1c30508010" y="135.692025"/>
     <use style="stroke:#000000;" x="236.16" xlink:href="#m1c30508010" y="147.56772"/>
     <use style="stroke:#000000;" x="321.084961" xlink:href="#m1c30508010" y="143.908731"/>
     <use style="stroke:#000000;" x="319.134931" xlink:href="#m1c30508010" y="147.115885"/>
     <use style="stroke:#000000;" x="319.666692" xlink:href="#m1c30508010" y="141.654142"/>
     <use style="stroke:#000000;" x="322.975507" xlink:href="#m1c30508010" y="174.469854"/>
     <use style="stroke:#000000;" x="325.44" xlink:href="#m1c30508010" y="171.500776"/>
     <use style="stroke:#000000;" x="320.785076" xlink:href="#m1c30508010" y="174.528"/>
     <use style="stroke:#000000;" x="236.16" xlink:href="#m1c30508010" y="139.767149"/>
     <use style="stroke:#000000;" x="240.172455" xlink:href="#m1c30508010" y="138.457303"/>
     <use style="stroke:#000000;" x="236.16" xlink:href="#m1c30508010" y="139.083545"/>
     <use style="stroke:#000000;" x="267.61331" xlink:href="#m1c30508010" y="174.528"/>
     <use style="stroke:#000000;" x="239.280255" xlink:href="#m1c30508010" y="134.6112"/>
     <use style="stroke:#000000;" x="299.265082" xlink:href="#m1c30508010" y="165.635294"/>
     <use style="stroke:#000000;" x="298.012442" xlink:href="#m1c30508010" y="170.354134"/>
     <use style="stroke:#000000;" x="304.754312" xlink:href="#m1c30508010" y="171.787619"/>
     <use style="stroke:#000000;" x="314.627302" xlink:href="#m1c30508010" y="168.843164"/>
     <use style="stroke:#000000;" x="236.16" xlink:href="#m1c30508010" y="134.6112"/>
     <use style="stroke:#000000;" x="238.763917" xlink:href="#m1c30508010" y="157.388221"/>
     <use style="stroke:#000000;" x="236.16" xlink:href="#m1c30508010" y="160.619936"/>
     <use style="stroke:#000000;" x="236.16" xlink:href="#m1c30508010" y="160.778805"/>
     <use style="stroke:#000000;" x="236.16" xlink:href="#m1c30508010" y="134.6112"/>
     <use style="stroke:#000000;" x="236.16" xlink:href="#m1c30508010" y="137.390342"/>
     <use style="stroke:#000000;" x="250.26781" xlink:href="#m1c30508010" y="138.795687"/>
     <use style="stroke:#000000;" x="236.16" xlink:href="#m1c30508010" y="153.037829"/>
     <use style="stroke:#000000;" x="236.329374" xlink:href="#m1c30508010" y="134.6112"/>
     <use style="stroke:#000000;" x="236.16" xlink:href="#m1c30508010" y="168.900348"/>
     <use style="stroke:#000000;" x="242.388042" xlink:href="#m1c30508010" y="171.831247"/>
     <use style="stroke:#000000;" x="236.268434" xlink:href="#m1c30508010" y="174.528"/>
     <use style="stroke:#000000;" x="236.16" xlink:href="#m1c30508010" y="169.48857"/>
     <use style="stroke:#000000;" x="236.16" xlink:href="#m1c30508010" y="161.629605"/>
     <use style="stroke:#000000;" x="273.294379" xlink:href="#m1c30508010" y="174.411858"/>
     <use style="stroke:#000000;" x="269.144776" xlink:href="#m1c30508010" y="167.731952"/>
     <use style="stroke:#000000;" x="236.16" xlink:href="#m1c30508010" y="172.658777"/>
     <use style="stroke:#000000;" x="236.16" xlink:href="#m1c30508010" y="174.528"/>
     <use style="stroke:#000000;" x="237.833748" xlink:href="#m1c30508010" y="134.6112"/>
     <use style="stroke:#000000;" x="236.16" xlink:href="#m1c30508010" y="134.6112"/>
     <use style="stroke:#000000;" x="248.617167" xlink:href="#m1c30508010" y="151.686113"/>
     <use style="stroke:#000000;" x="236.16" xlink:href="#m1c30508010" y="157.860815"/>
     <use style="stroke:#000000;" x="263.863465" xlink:href="#m1c30508010" y="174.528"/>
     <use style="stroke:#000000;" x="240.521827" xlink:href="#m1c30508010" y="139.996821"/>
     <use style="stroke:#000000;" x="236.16" xlink:href="#m1c30508010" y="152.945516"/>
     <use style="stroke:#000000;" x="239.079654" xlink:href="#m1c30508010" y="148.646769"/>
     <use style="stroke:#000000;" x="321.60925" xlink:href="#m1c30508010" y="146.746675"/>
     <use style="stroke:#000000;" x="322.409288" xlink:href="#m1c30508010" y="142.253671"/>
     <use style="stroke:#000000;" x="304.45286" xlink:href="#m1c30508010" y="145.263176"/>
     <use style="stroke:#000000;" x="324.783316" xlink:href="#m1c30508010" y="140.640012"/>
     <use style="stroke:#000000;" x="241.624289" xlink:href="#m1c30508010" y="174.528"/>
     <use style="stroke:#000000;" x="249.009849" xlink:href="#m1c30508010" y="173.609727"/>
     <use style="stroke:#000000;" x="257.792336" xlink:href="#m1c30508010" y="169.914592"/>
     <use style="stroke:#000000;" x="325.44" xlink:href="#m1c30508010" y="160.501014"/>
     <use style="stroke:#000000;" x="236.16" xlink:href="#m1c30508010" y="134.6112"/>
     <use style="stroke:#000000;" x="237.123292" xlink:href="#m1c30508010" y="136.636702"/>
     <use style="stroke:#000000;" x="237.64113" xlink:href="#m1c30508010" y="167.687351"/>
     <use style="stroke:#000000;" x="319.996573" xlink:href="#m1c30508010" y="134.692223"/>
     <use style="stroke:#000000;" x="324.75843" xlink:href="#m1c30508010" y="140.891018"/>
     <use style="stroke:#000000;" x="241.71177" xlink:href="#m1c30508010" y="155.484968"/>
     <use style="stroke:#000000;" x="236.16" xlink:href="#m1c30508010" y="151.393467"/>
     <use style="stroke:#000000;" x="236.16" xlink:href="#m1c30508010" y="174.28816"/>
     <use style="stroke:#000000;" x="236.16" xlink:href="#m1c30508010" y="174.528"/>
     <use style="stroke:#000000;" x="277.915795" xlink:href="#m1c30508010" y="170.7389"/>
     <use style="stroke:#000000;" x="277.915556" xlink:href="#m1c30508010" y="174.528"/>
     <use style="stroke:#000000;" x="236.16" xlink:href="#m1c30508010" y="155.603761"/>
     <use style="stroke:#000000;" x="238.475738" xlink:href="#m1c30508010" y="158.853023"/>
     <use style="stroke:#000000;" x="255.998303" xlink:href="#m1c30508010" y="141.386082"/>
     <use style="stroke:#000000;" x="244.890278" xlink:href="#m1c30508010" y="139.592669"/>
     <use style="stroke:#000000;" x="248.959758" xlink:href="#m1c30508010" y="152.369325"/>
     <use style="stroke:#000000;" x="236.16" xlink:href="#m1c30508010" y="156.027781"/>
     <use style="stroke:#000000;" x="237.919382" xlink:href="#m1c30508010" y="143.790254"/>
     <use style="stroke:#000000;" x="239.98957" xlink:href="#m1c30508010" y="149.066571"/>
     <use style="stroke:#000000;" x="242.514561" xlink:href="#m1c30508010" y="168.946577"/>
     <use style="stroke:#000000;" x="247.499143" xlink:href="#m1c30508010" y="166.959799"/>
     <use style="stroke:#000000;" x="255.267973" xlink:href="#m1c30508010" y="170.336377"/>
     <use style="stroke:#000000;" x="254.992123" xlink:href="#m1c30508010" y="174.528"/>
     <use style="stroke:#000000;" x="236.16" xlink:href="#m1c30508010" y="160.616289"/>
     <use style="stroke:#000000;" x="236.16" xlink:href="#m1c30508010" y="161.522151"/>
     <use style="stroke:#000000;" x="236.16" xlink:href="#m1c30508010" y="174.528"/>
     <use style="stroke:#000000;" x="241.451005" xlink:href="#m1c30508010" y="174.528"/>
     <use style="stroke:#000000;" x="246.966752" xlink:href="#m1c30508010" y="134.6112"/>
     <use style="stroke:#000000;" x="236.16" xlink:href="#m1c30508010" y="137.514306"/>
     <use style="stroke:#000000;" x="250.867005" xlink:href="#m1c30508010" y="134.6112"/>
     <use style="stroke:#000000;" x="236.16" xlink:href="#m1c30508010" y="141.314148"/>
     <use style="stroke:#000000;" x="236.16" xlink:href="#m1c30508010" y="143.495751"/>
     <use style="stroke:#000000;" x="248.616939" xlink:href="#m1c30508010" y="174.528"/>
     <use style="stroke:#000000;" x="240.46082" xlink:href="#m1c30508010" y="174.528"/>
     <use style="stroke:#000000;" x="262.291115" xlink:href="#m1c30508010" y="168.316025"/>
     <use style="stroke:#000000;" x="263.102578" xlink:href="#m1c30508010" y="174.528"/>
     <use style="stroke:#000000;" x="311.229925" xlink:href="#m1c30508010" y="174.528"/>
     <use style="stroke:#000000;" x="236.16" xlink:href="#m1c30508010" y="134.6112"/>
     <use style="stroke:#000000;" x="325.44" xlink:href="#m1c30508010" y="151.651124"/>
     <use style="stroke:#000000;" x="236.16" xlink:href="#m1c30508010" y="151.984559"/>
     <use style="stroke:#000000;" x="236.16" xlink:href="#m1c30508010" y="134.6112"/>
     <use style="stroke:#000000;" x="325.44" xlink:href="#m1c30508010" y="174.528"/>
     <use style="stroke:#000000;" x="236.16" xlink:href="#m1c30508010" y="166.88113"/>
     <use style="stroke:#000000;" x="236.16" xlink:href="#m1c30508010" y="159.709076"/>
     <use style="stroke:#000000;" x="244.895787" xlink:href="#m1c30508010" y="172.418049"/>
     <use style="stroke:#000000;" x="236.16" xlink:href="#m1c30508010" y="134.6112"/>
     <use style="stroke:#000000;" x="236.16" xlink:href="#m1c30508010" y="148.138036"/>
     <use style="stroke:#000000;" x="319.379323" xlink:href="#m1c30508010" y="147.768053"/>
     <use style="stroke:#000000;" x="243.95203" xlink:href="#m1c30508010" y="152.109568"/>
    </g>
   </g>
   <g id="PathCollection_2">
    <defs>
     <path d="M 0 0.935414 
C 0.248075 0.935414 0.486022 0.836853 0.661438 0.661438 
C 0.836853 0.486022 0.935414 0.248075 0.935414 0 
C 0.935414 -0.248075 0.836853 -0.486022 0.661438 -0.661438 
C 0.486022 -0.836853 0.248075 -0.935414 0 -0.935414 
C -0.248075 -0.935414 -0.486022 -0.836853 -0.661438 -0.661438 
C -0.836853 -0.486022 -0.935414 -0.248075 -0.935414 0 
C -0.935414 0.248075 -0.836853 0.486022 -0.661438 0.661438 
C -0.486022 0.836853 -0.248075 0.935414 0 0.935414 
z
" id="m249c6cadcb" style="stroke:#0000ff;"/>
    </defs>
    <g clip-path="url(#p27de2f0529)">
     <use style="fill:#0000ff;stroke:#0000ff;" x="245.442316" xlink:href="#m249c6cadcb" y="174.528"/>
     <use style="fill:#0000ff;stroke:#0000ff;" x="236.16" xlink:href="#m249c6cadcb" y="134.6112"/>
     <use style="fill:#0000ff;stroke:#0000ff;" x="236.16" xlink:href="#m249c6cadcb" y="159.526667"/>
     <use style="fill:#0000ff;stroke:#0000ff;" x="236.16" xlink:href="#m249c6cadcb" y="134.6112"/>
     <use style="fill:#0000ff;stroke:#0000ff;" x="236.16" xlink:href="#m249c6cadcb" y="172.561163"/>
     <use style="fill:#0000ff;stroke:#0000ff;" x="236.16" xlink:href="#m249c6cadcb" y="174.528"/>
     <use style="fill:#0000ff;stroke:#0000ff;" x="236.16" xlink:href="#m249c6cadcb" y="141.058225"/>
     <use style="fill:#0000ff;stroke:#0000ff;" x="325.44" xlink:href="#m249c6cadcb" y="142.175733"/>
     <use style="fill:#0000ff;stroke:#0000ff;" x="255.019646" xlink:href="#m249c6cadcb" y="174.528"/>
     <use style="fill:#0000ff;stroke:#0000ff;" x="236.16" xlink:href="#m249c6cadcb" y="134.6112"/>
     <use style="fill:#0000ff;stroke:#0000ff;" x="240.106143" xlink:href="#m249c6cadcb" y="174.528"/>
     <use style="fill:#0000ff;stroke:#0000ff;" x="236.16" xlink:href="#m249c6cadcb" y="163.723797"/>
     <use style="fill:#0000ff;stroke:#0000ff;" x="236.16" xlink:href="#m249c6cadcb" y="174.528"/>
     <use style="fill:#0000ff;stroke:#0000ff;" x="236.16" xlink:href="#m249c6cadcb" y="147.806594"/>
     <use style="fill:#0000ff;stroke:#0000ff;" x="236.16" xlink:href="#m249c6cadcb" y="147.955218"/>
     <use style="fill:#0000ff;stroke:#0000ff;" x="236.16" xlink:href="#m249c6cadcb" y="150.313401"/>
     <use style="fill:#0000ff;stroke:#0000ff;" x="325.44" xlink:href="#m249c6cadcb" y="140.736768"/>
     <use style="fill:#0000ff;stroke:#0000ff;" x="236.16" xlink:href="#m249c6cadcb" y="170.072867"/>
     <use style="fill:#0000ff;stroke:#0000ff;" x="236.16" xlink:href="#m249c6cadcb" y="145.034124"/>
     <use style="fill:#0000ff;stroke:#0000ff;" x="236.16" xlink:href="#m249c6cadcb" y="150.935124"/>
     <use style="fill:#0000ff;stroke:#0000ff;" x="236.16" xlink:href="#m249c6cadcb" y="143.975966"/>
     <use style="fill:#0000ff;stroke:#0000ff;" x="236.16" xlink:href="#m249c6cadcb" y="142.435865"/>
     <use style="fill:#0000ff;stroke:#0000ff;" x="325.44" xlink:href="#m249c6cadcb" y="143.998845"/>
     <use style="fill:#0000ff;stroke:#0000ff;" x="321.885286" xlink:href="#m249c6cadcb" y="174.528"/>
     <use style="fill:#0000ff;stroke:#0000ff;" x="236.16" xlink:href="#m249c6cadcb" y="139.295179"/>
     <use style="fill:#0000ff;stroke:#0000ff;" x="265.870376" xlink:href="#m249c6cadcb" y="174.528"/>
     <use style="fill:#0000ff;stroke:#0000ff;" x="236.16" xlink:href="#m249c6cadcb" y="134.6112"/>
     <use style="fill:#0000ff;stroke:#0000ff;" x="304.775217" xlink:href="#m249c6cadcb" y="174.528"/>
     <use style="fill:#0000ff;stroke:#0000ff;" x="325.44" xlink:href="#m249c6cadcb" y="171.318227"/>
     <use style="fill:#0000ff;stroke:#0000ff;" x="236.16" xlink:href="#m249c6cadcb" y="134.6112"/>
     <use style="fill:#0000ff;stroke:#0000ff;" x="236.16" xlink:href="#m249c6cadcb" y="165.22391"/>
     <use style="fill:#0000ff;stroke:#0000ff;" x="236.16" xlink:href="#m249c6cadcb" y="135.242911"/>
     <use style="fill:#0000ff;stroke:#0000ff;" x="236.16" xlink:href="#m249c6cadcb" y="159.103443"/>
     <use style="fill:#0000ff;stroke:#0000ff;" x="236.16" xlink:href="#m249c6cadcb" y="134.6112"/>
     <use style="fill:#0000ff;stroke:#0000ff;" x="238.269591" xlink:href="#m249c6cadcb" y="174.528"/>
     <use style="fill:#0000ff;stroke:#0000ff;" x="236.16" xlink:href="#m249c6cadcb" y="169.062096"/>
     <use style="fill:#0000ff;stroke:#0000ff;" x="265.10093" xlink:href="#m249c6cadcb" y="174.528"/>
     <use style="fill:#0000ff;stroke:#0000ff;" x="236.16" xlink:href="#m249c6cadcb" y="174.528"/>
     <use style="fill:#0000ff;stroke:#0000ff;" x="236.16" xlink:href="#m249c6cadcb" y="137.128196"/>
     <use style="fill:#0000ff;stroke:#0000ff;" x="236.16" xlink:href="#m249c6cadcb" y="150.620073"/>
     <use style="fill:#0000ff;stroke:#0000ff;" x="256.911715" xlink:href="#m249c6cadcb" y="174.528"/>
     <use style="fill:#0000ff;stroke:#0000ff;" x="236.16" xlink:href="#m249c6cadcb" y="145.286898"/>
     <use style="fill:#0000ff;stroke:#0000ff;" x="236.16" xlink:href="#m249c6cadcb" y="150.493043"/>
     <use style="fill:#0000ff;stroke:#0000ff;" x="325.44" xlink:href="#m249c6cadcb" y="146.311296"/>
     <use style="fill:#0000ff;stroke:#0000ff;" x="325.44" xlink:href="#m249c6cadcb" y="142.504809"/>
     <use style="fill:#0000ff;stroke:#0000ff;" x="247.553536" xlink:href="#m249c6cadcb" y="174.528"/>
     <use style="fill:#0000ff;stroke:#0000ff;" x="252.23494" xlink:href="#m249c6cadcb" y="174.528"/>
     <use style="fill:#0000ff;stroke:#0000ff;" x="325.44" xlink:href="#m249c6cadcb" y="153.300602"/>
     <use style="fill:#0000ff;stroke:#0000ff;" x="236.16" xlink:href="#m249c6cadcb" y="134.6112"/>
     <use style="fill:#0000ff;stroke:#0000ff;" x="236.16" xlink:href="#m249c6cadcb" y="169.022272"/>
     <use style="fill:#0000ff;stroke:#0000ff;" x="325.44" xlink:href="#m249c6cadcb" y="136.479949"/>
     <use style="fill:#0000ff;stroke:#0000ff;" x="236.16" xlink:href="#m249c6cadcb" y="155.877912"/>
     <use style="fill:#0000ff;stroke:#0000ff;" x="236.16" xlink:href="#m249c6cadcb" y="174.528"/>
     <use style="fill:#0000ff;stroke:#0000ff;" x="273.106625" xlink:href="#m249c6cadcb" y="174.528"/>
     <use style="fill:#0000ff;stroke:#0000ff;" x="237.369662" xlink:href="#m249c6cadcb" y="158.670884"/>
     <use style="fill:#0000ff;stroke:#0000ff;" x="236.16" xlink:href="#m249c6cadcb" y="141.217429"/>
     <use style="fill:#0000ff;stroke:#0000ff;" x="236.16" xlink:href="#m249c6cadcb" y="154.751733"/>
     <use style="fill:#0000ff;stroke:#0000ff;" x="236.16" xlink:href="#m249c6cadcb" y="144.965599"/>
     <use style="fill:#0000ff;stroke:#0000ff;" x="236.16" xlink:href="#m249c6cadcb" y="171.950206"/>
     <use style="fill:#0000ff;stroke:#0000ff;" x="250.45418" xlink:href="#m249c6cadcb" y="174.528"/>
     <use style="fill:#0000ff;stroke:#0000ff;" x="236.16" xlink:href="#m249c6cadcb" y="159.35726"/>
     <use style="fill:#0000ff;stroke:#0000ff;" x="236.16" xlink:href="#m249c6cadcb" y="172.853128"/>
     <use style="fill:#0000ff;stroke:#0000ff;" x="236.16" xlink:href="#m249c6cadcb" y="134.6112"/>
     <use style="fill:#0000ff;stroke:#0000ff;" x="236.16" xlink:href="#m249c6cadcb" y="137.993202"/>
     <use style="fill:#0000ff;stroke:#0000ff;" x="236.16" xlink:href="#m249c6cadcb" y="142.341553"/>
     <use style="fill:#0000ff;stroke:#0000ff;" x="242.429072" xlink:href="#m249c6cadcb" y="174.528"/>
     <use style="fill:#0000ff;stroke:#0000ff;" x="263.823517" xlink:href="#m249c6cadcb" y="174.528"/>
     <use style="fill:#0000ff;stroke:#0000ff;" x="312.023915" xlink:href="#m249c6cadcb" y="174.528"/>
     <use style="fill:#0000ff;stroke:#0000ff;" x="236.16" xlink:href="#m249c6cadcb" y="137.726036"/>
     <use style="fill:#0000ff;stroke:#0000ff;" x="325.44" xlink:href="#m249c6cadcb" y="158.213463"/>
     <use style="fill:#0000ff;stroke:#0000ff;" x="236.16" xlink:href="#m249c6cadcb" y="151.060116"/>
     <use style="fill:#0000ff;stroke:#0000ff;" x="236.16" xlink:href="#m249c6cadcb" y="134.796243"/>
     <use style="fill:#0000ff;stroke:#0000ff;" x="325.44" xlink:href="#m249c6cadcb" y="174.528"/>
     <use style="fill:#0000ff;stroke:#0000ff;" x="236.16" xlink:href="#m249c6cadcb" y="172.220009"/>
     <use style="fill:#0000ff;stroke:#0000ff;" x="236.16" xlink:href="#m249c6cadcb" y="163.544335"/>
     <use style="fill:#0000ff;stroke:#0000ff;" x="236.16" xlink:href="#m249c6cadcb" y="173.968014"/>
     <use style="fill:#0000ff;stroke:#0000ff;" x="236.16" xlink:href="#m249c6cadcb" y="142.144538"/>
     <use style="fill:#0000ff;stroke:#0000ff;" x="236.16" xlink:href="#m249c6cadcb" y="145.036149"/>
     <use style="fill:#0000ff;stroke:#0000ff;" x="325.44" xlink:href="#m249c6cadcb" y="147.462241"/>
     <use style="fill:#0000ff;stroke:#0000ff;" x="236.16" xlink:href="#m249c6cadcb" y="150.176741"/>
    </g>
   </g>
   <g id="matplotlib.axis_1">
    <g id="xtick_1">
     <g id="line2d_1">
      <defs>
       <path d="M 0 0 
L 0 3.5 
" id="m449878da5d" style="stroke:#000000;stroke-width:0.8;"/>
      </defs>
      <g>
       <use style="stroke:#000000;stroke-width:0.8;" x="57.6" xlink:href="#m449878da5d" y="307.584"/>
      </g>
     </g>
     <g id="text_1">
      <!-- −10.0 -->
      <defs>
       <path d="M 10.59375 35.5 
L 73.1875 35.5 
L 73.1875 27.203125 
L 10.59375 27.203125 
z
" id="DejaVuSans-2212"/>
       <path d="M 12.40625 8.296875 
L 28.515625 8.296875 
L 28.515625 63.921875 
L 10.984375 60.40625 
L 10.984375 69.390625 
L 28.421875 72.90625 
L 38.28125 72.90625 
L 38.28125 8.296875 
L 54.390625 8.296875 
L 54.390625 0 
L 12.40625 0 
z
" id="DejaVuSans-31"/>
       <path d="M 31.78125 66.40625 
Q 24.171875 66.40625 20.328125 58.90625 
Q 16.5 51.421875 16.5 36.375 
Q 16.5 21.390625 20.328125 13.890625 
Q 24.171875 6.390625 31.78125 6.390625 
Q 39.453125 6.390625 43.28125 13.890625 
Q 47.125 21.390625 47.125 36.375 
Q 47.125 51.421875 43.28125 58.90625 
Q 39.453125 66.40625 31.78125 66.40625 
z
M 31.78125 74.21875 
Q 44.046875 74.21875 50.515625 64.515625 
Q 56.984375 54.828125 56.984375 36.375 
Q 56.984375 17.96875 50.515625 8.265625 
Q 44.046875 -1.421875 31.78125 -1.421875 
Q 19.53125 -1.421875 13.0625 8.265625 
Q 6.59375 17.96875 6.59375 36.375 
Q 6.59375 54.828125 13.0625 64.515625 
Q 19.53125 74.21875 31.78125 74.21875 
z
" id="DejaVuSans-30"/>
       <path d="M 10.6875 12.40625 
L 21 12.40625 
L 21 0 
L 10.6875 0 
z
" id="DejaVuSans-2e"/>
      </defs>
      <g transform="translate(42.277344 322.182437)scale(0.1 -0.1)">
       <use xlink:href="#DejaVuSans-2212"/>
       <use x="83.789062" xlink:href="#DejaVuSans-31"/>
       <use x="147.412109" xlink:href="#DejaVuSans-30"/>
       <use x="211.035156" xlink:href="#DejaVuSans-2e"/>
       <use x="242.822266" xlink:href="#DejaVuSans-30"/>
      </g>
     </g>
    </g>
    <g id="xtick_2">
     <g id="line2d_2">
      <g>
       <use style="stroke:#000000;stroke-width:0.8;" x="102.24" xlink:href="#m449878da5d" y="307.584"/>
      </g>
     </g>
     <g id="text_2">
      <!-- −7.5 -->
      <defs>
       <path d="M 8.203125 72.90625 
L 55.078125 72.90625 
L 55.078125 68.703125 
L 28.609375 0 
L 18.3125 0 
L 43.21875 64.59375 
L 8.203125 64.59375 
z
" id="DejaVuSans-37"/>
       <path d="M 10.796875 72.90625 
L 49.515625 72.90625 
L 49.515625 64.59375 
L 19.828125 64.59375 
L 19.828125 46.734375 
Q 21.96875 47.46875 24.109375 47.828125 
Q 26.265625 48.1875 28.421875 48.1875 
Q 40.625 48.1875 47.75 41.5 
Q 54.890625 34.8125 54.890625 23.390625 
Q 54.890625 11.625 47.5625 5.09375 
Q 40.234375 -1.421875 26.90625 -1.421875 
Q 22.3125 -1.421875 17.546875 -0.640625 
Q 12.796875 0.140625 7.71875 1.703125 
L 7.71875 11.625 
Q 12.109375 9.234375 16.796875 8.0625 
Q 21.484375 6.890625 26.703125 6.890625 
Q 35.15625 6.890625 40.078125 11.328125 
Q 45.015625 15.765625 45.015625 23.390625 
Q 45.015625 31 40.078125 35.4375 
Q 35.15625 39.890625 26.703125 39.890625 
Q 22.75 39.890625 18.8125 39.015625 
Q 14.890625 38.140625 10.796875 36.28125 
z
" id="DejaVuSans-35"/>
      </defs>
      <g transform="translate(90.098594 322.182437)scale(0.1 -0.1)">
       <use xlink:href="#DejaVuSans-2212"/>
       <use x="83.789062" xlink:href="#DejaVuSans-37"/>
       <use x="147.412109" xlink:href="#DejaVuSans-2e"/>
       <use x="179.199219" xlink:href="#DejaVuSans-35"/>
      </g>
     </g>
    </g>
    <g id="xtick_3">
     <g id="line2d_3">
      <g>
       <use style="stroke:#000000;stroke-width:0.8;" x="146.88" xlink:href="#m449878da5d" y="307.584"/>
      </g>
     </g>
     <g id="text_3">
      <!-- −5.0 -->
      <g transform="translate(134.738594 322.182437)scale(0.1 -0.1)">
       <use xlink:href="#DejaVuSans-2212"/>
       <use x="83.789062" xlink:href="#DejaVuSans-35"/>
       <use x="147.412109" xlink:href="#DejaVuSans-2e"/>
       <use x="179.199219" xlink:href="#DejaVuSans-30"/>
      </g>
     </g>
    </g>
    <g id="xtick_4">
     <g id="line2d_4">
      <g>
       <use style="stroke:#000000;stroke-width:0.8;" x="191.52" xlink:href="#m449878da5d" y="307.584"/>
      </g>
     </g>
     <g id="text_4">
      <!-- −2.5 -->
      <defs>
       <path d="M 19.1875 8.296875 
L 53.609375 8.296875 
L 53.609375 0 
L 7.328125 0 
L 7.328125 8.296875 
Q 12.9375 14.109375 22.625 23.890625 
Q 32.328125 33.6875 34.8125 36.53125 
Q 39.546875 41.84375 41.421875 45.53125 
Q 43.3125 49.21875 43.3125 52.78125 
Q 43.3125 58.59375 39.234375 62.25 
Q 35.15625 65.921875 28.609375 65.921875 
Q 23.96875 65.921875 18.8125 64.3125 
Q 13.671875 62.703125 7.8125 59.421875 
L 7.8125 69.390625 
Q 13.765625 71.78125 18.9375 73 
Q 24.125 74.21875 28.421875 74.21875 
Q 39.75 74.21875 46.484375 68.546875 
Q 53.21875 62.890625 53.21875 53.421875 
Q 53.21875 48.921875 51.53125 44.890625 
Q 49.859375 40.875 45.40625 35.40625 
Q 44.1875 33.984375 37.640625 27.21875 
Q 31.109375 20.453125 19.1875 8.296875 
z
" id="DejaVuSans-32"/>
      </defs>
      <g transform="translate(179.378594 322.182437)scale(0.1 -0.1)">
       <use xlink:href="#DejaVuSans-2212"/>
       <use x="83.789062" xlink:href="#DejaVuSans-32"/>
       <use x="147.412109" xlink:href="#DejaVuSans-2e"/>
       <use x="179.199219" xlink:href="#DejaVuSans-35"/>
      </g>
     </g>
    </g>
    <g id="xtick_5">
     <g id="line2d_5">
      <g>
       <use style="stroke:#000000;stroke-width:0.8;" x="236.16" xlink:href="#m449878da5d" y="307.584"/>
      </g>
     </g>
     <g id="text_5">
      <!-- 0.0 -->
      <g transform="translate(228.208438 322.182437)scale(0.1 -0.1)">
       <use xlink:href="#DejaVuSans-30"/>
       <use x="63.623047" xlink:href="#DejaVuSans-2e"/>
       <use x="95.410156" xlink:href="#DejaVuSans-30"/>
      </g>
     </g>
    </g>
    <g id="xtick_6">
     <g id="line2d_6">
      <g>
       <use style="stroke:#000000;stroke-width:0.8;" x="280.8" xlink:href="#m449878da5d" y="307.584"/>
      </g>
     </g>
     <g id="text_6">
      <!-- 2.5 -->
      <g transform="translate(272.848437 322.182437)scale(0.1 -0.1)">
       <use xlink:href="#DejaVuSans-32"/>
       <use x="63.623047" xlink:href="#DejaVuSans-2e"/>
       <use x="95.410156" xlink:href="#DejaVuSans-35"/>
      </g>
     </g>
    </g>
    <g id="xtick_7">
     <g id="line2d_7">
      <g>
       <use style="stroke:#000000;stroke-width:0.8;" x="325.44" xlink:href="#m449878da5d" y="307.584"/>
      </g>
     </g>
     <g id="text_7">
      <!-- 5.0 -->
      <g transform="translate(317.488437 322.182437)scale(0.1 -0.1)">
       <use xlink:href="#DejaVuSans-35"/>
       <use x="63.623047" xlink:href="#DejaVuSans-2e"/>
       <use x="95.410156" xlink:href="#DejaVuSans-30"/>
      </g>
     </g>
    </g>
    <g id="xtick_8">
     <g id="line2d_8">
      <g>
       <use style="stroke:#000000;stroke-width:0.8;" x="370.08" xlink:href="#m449878da5d" y="307.584"/>
      </g>
     </g>
     <g id="text_8">
      <!-- 7.5 -->
      <g transform="translate(362.128438 322.182437)scale(0.1 -0.1)">
       <use xlink:href="#DejaVuSans-37"/>
       <use x="63.623047" xlink:href="#DejaVuSans-2e"/>
       <use x="95.410156" xlink:href="#DejaVuSans-35"/>
      </g>
     </g>
    </g>
    <g id="xtick_9">
     <g id="line2d_9">
      <g>
       <use style="stroke:#000000;stroke-width:0.8;" x="414.72" xlink:href="#m449878da5d" y="307.584"/>
      </g>
     </g>
     <g id="text_9">
      <!-- 10.0 -->
      <g transform="translate(403.587188 322.182437)scale(0.1 -0.1)">
       <use xlink:href="#DejaVuSans-31"/>
       <use x="63.623047" xlink:href="#DejaVuSans-30"/>
       <use x="127.246094" xlink:href="#DejaVuSans-2e"/>
       <use x="159.033203" xlink:href="#DejaVuSans-30"/>
      </g>
     </g>
    </g>
   </g>
   <g id="matplotlib.axis_2">
    <g id="ytick_1">
     <g id="line2d_10">
      <defs>
       <path d="M 0 0 
L -3.5 0 
" id="m313b2a8f5b" style="stroke:#000000;stroke-width:0.8;"/>
      </defs>
      <g>
       <use style="stroke:#000000;stroke-width:0.8;" x="57.6" xlink:href="#m313b2a8f5b" y="307.584"/>
      </g>
     </g>
     <g id="text_10">
      <!-- −10.0 -->
      <g transform="translate(19.954687 311.383219)scale(0.1 -0.1)">
       <use xlink:href="#DejaVuSans-2212"/>
       <use x="83.789062" xlink:href="#DejaVuSans-31"/>
       <use x="147.412109" xlink:href="#DejaVuSans-30"/>
       <use x="211.035156" xlink:href="#DejaVuSans-2e"/>
       <use x="242.822266" xlink:href="#DejaVuSans-30"/>
      </g>
     </g>
    </g>
    <g id="ytick_2">
     <g id="line2d_11">
      <g>
       <use style="stroke:#000000;stroke-width:0.8;" x="57.6" xlink:href="#m313b2a8f5b" y="274.32"/>
      </g>
     </g>
     <g id="text_11">
      <!-- −7.5 -->
      <g transform="translate(26.317187 278.119219)scale(0.1 -0.1)">
       <use xlink:href="#DejaVuSans-2212"/>
       <use x="83.789062" xlink:href="#DejaVuSans-37"/>
       <use x="147.412109" xlink:href="#DejaVuSans-2e"/>
       <use x="179.199219" xlink:href="#DejaVuSans-35"/>
      </g>
     </g>
    </g>
    <g id="ytick_3">
     <g id="line2d_12">
      <g>
       <use style="stroke:#000000;stroke-width:0.8;" x="57.6" xlink:href="#m313b2a8f5b" y="241.056"/>
      </g>
     </g>
     <g id="text_12">
      <!-- −5.0 -->
      <g transform="translate(26.317187 244.855219)scale(0.1 -0.1)">
       <use xlink:href="#DejaVuSans-2212"/>
       <use x="83.789062" xlink:href="#DejaVuSans-35"/>
       <use x="147.412109" xlink:href="#DejaVuSans-2e"/>
       <use x="179.199219" xlink:href="#DejaVuSans-30"/>
      </g>
     </g>
    </g>
    <g id="ytick_4">
     <g id="line2d_13">
      <g>
       <use style="stroke:#000000;stroke-width:0.8;" x="57.6" xlink:href="#m313b2a8f5b" y="207.792"/>
      </g>
     </g>
     <g id="text_13">
      <!-- −2.5 -->
      <g transform="translate(26.317187 211.591219)scale(0.1 -0.1)">
       <use xlink:href="#DejaVuSans-2212"/>
       <use x="83.789062" xlink:href="#DejaVuSans-32"/>
       <use x="147.412109" xlink:href="#DejaVuSans-2e"/>
       <use x="179.199219" xlink:href="#DejaVuSans-35"/>
      </g>
     </g>
    </g>
    <g id="ytick_5">
     <g id="line2d_14">
      <g>
       <use style="stroke:#000000;stroke-width:0.8;" x="57.6" xlink:href="#m313b2a8f5b" y="174.528"/>
      </g>
     </g>
     <g id="text_14">
      <!-- 0.0 -->
      <g transform="translate(34.696875 178.327219)scale(0.1 -0.1)">
       <use xlink:href="#DejaVuSans-30"/>
       <use x="63.623047" xlink:href="#DejaVuSans-2e"/>
       <use x="95.410156" xlink:href="#DejaVuSans-30"/>
      </g>
     </g>
    </g>
    <g id="ytick_6">
     <g id="line2d_15">
      <g>
       <use style="stroke:#000000;stroke-width:0.8;" x="57.6" xlink:href="#m313b2a8f5b" y="141.264"/>
      </g>
     </g>
     <g id="text_15">
      <!-- 2.5 -->
      <g transform="translate(34.696875 145.063219)scale(0.1 -0.1)">
       <use xlink:href="#DejaVuSans-32"/>
       <use x="63.623047" xlink:href="#DejaVuSans-2e"/>
       <use x="95.410156" xlink:href="#DejaVuSans-35"/>
      </g>
     </g>
    </g>
    <g id="ytick_7">
     <g id="line2d_16">
      <g>
       <use style="stroke:#000000;stroke-width:0.8;" x="57.6" xlink:href="#m313b2a8f5b" y="108"/>
      </g>
     </g>
     <g id="text_16">
      <!-- 5.0 -->
      <g transform="translate(34.696875 111.799219)scale(0.1 -0.1)">
       <use xlink:href="#DejaVuSans-35"/>
       <use x="63.623047" xlink:href="#DejaVuSans-2e"/>
       <use x="95.410156" xlink:href="#DejaVuSans-30"/>
      </g>
     </g>
    </g>
    <g id="ytick_8">
     <g id="line2d_17">
      <g>
       <use style="stroke:#000000;stroke-width:0.8;" x="57.6" xlink:href="#m313b2a8f5b" y="74.736"/>
      </g>
     </g>
     <g id="text_17">
      <!-- 7.5 -->
      <g transform="translate(34.696875 78.535219)scale(0.1 -0.1)">
       <use xlink:href="#DejaVuSans-37"/>
       <use x="63.623047" xlink:href="#DejaVuSans-2e"/>
       <use x="95.410156" xlink:href="#DejaVuSans-35"/>
      </g>
     </g>
    </g>
    <g id="ytick_9">
     <g id="line2d_18">
      <g>
       <use style="stroke:#000000;stroke-width:0.8;" x="57.6" xlink:href="#m313b2a8f5b" y="41.472"/>
      </g>
     </g>
     <g id="text_18">
      <!-- 10.0 -->
      <g transform="translate(28.334375 45.271219)scale(0.1 -0.1)">
       <use xlink:href="#DejaVuSans-31"/>
       <use x="63.623047" xlink:href="#DejaVuSans-30"/>
       <use x="127.246094" xlink:href="#DejaVuSans-2e"/>
       <use x="159.033203" xlink:href="#DejaVuSans-30"/>
      </g>
     </g>
    </g>
   </g>
   <g id="patch_3">
    <path d="M 57.6 307.584 
L 57.6 41.472 
" style="fill:none;stroke:#000000;stroke-linecap:square;stroke-linejoin:miter;stroke-width:0.8;"/>
   </g>
   <g id="patch_4">
    <path d="M 414.72 307.584 
L 414.72 41.472 
" style="fill:none;stroke:#000000;stroke-linecap:square;stroke-linejoin:miter;stroke-width:0.8;"/>
   </g>
   <g id="patch_5">
    <path d="M 57.6 307.584 
L 414.72 307.584 
" style="fill:none;stroke:#000000;stroke-linecap:square;stroke-linejoin:miter;stroke-width:0.8;"/>
   </g>
   <g id="patch_6">
    <path d="M 57.6 41.472 
L 414.72 41.472 
" style="fill:none;stroke:#000000;stroke-linecap:square;stroke-linejoin:miter;stroke-width:0.8;"/>
   </g>
  </g>
 </g>
 <defs>
  <clipPath id="p27de2f0529">
   <rect height="266.112" width="357.12" x="57.6" y="41.472"/>
  </clipPath>
 </defs>
</svg>
