<?xml version="1.0" encoding="utf-8" standalone="no"?>
<!DOCTYPE svg PUBLIC "-//W3C//DTD SVG 1.1//EN"
  "http://www.w3.org/Graphics/SVG/1.1/DTD/svg11.dtd">
<!-- Created with matplotlib (http://matplotlib.org/) -->
<svg height="345.6pt" version="1.1" viewBox="0 0 460.8 345.6" width="460.8pt" xmlns="http://www.w3.org/2000/svg" xmlns:xlink="http://www.w3.org/1999/xlink">
 <defs>
  <style type="text/css">
*{stroke-linecap:butt;stroke-linejoin:round;}
  </style>
 </defs>
 <g id="figure_1">
  <g id="patch_1">
   <path d="M 0 345.6 
L 460.8 345.6 
L 460.8 0 
L 0 0 
z
" style="fill:#ffffff;"/>
  </g>
  <g id="axes_1">
   <g id="patch_2">
    <path d="M 57.6 307.584 
L 414.72 307.584 
L 414.72 41.472 
L 57.6 41.472 
z
" style="fill:#ffffff;"/>
   </g>
   <g id="PathCollection_1">
    <defs>
     <path d="M 0 0.612372 
C 0.162403 0.612372 0.318176 0.547849 0.433013 0.433013 
C 0.547849 0.318176 0.612372 0.162403 0.612372 0 
C 0.612372 -0.162403 0.547849 -0.318176 0.433013 -0.433013 
C 0.318176 -0.547849 0.162403 -0.612372 0 -0.612372 
C -0.162403 -0.612372 -0.318176 -0.547849 -0.433013 -0.433013 
C -0.547849 -0.318176 -0.612372 -0.162403 -0.612372 0 
C -0.612372 0.162403 -0.547849 0.318176 -0.433013 0.433013 
C -0.318176 0.547849 -0.162403 0.612372 0 0.612372 
z
" id="me9368baf5c" style="stroke:#000000;"/>
    </defs>
    <g clip-path="url(#pe2407a690e)">
     <use style="stroke:#000000;" x="239.56719" xlink:href="#me9368baf5c" y="174.528"/>
     <use style="stroke:#000000;" x="247.514801" xlink:href="#me9368baf5c" y="169.236774"/>
     <use style="stroke:#000000;" x="237.133942" xlink:href="#me9368baf5c" y="174.528"/>
     <use style="stroke:#000000;" x="240.621617" xlink:href="#me9368baf5c" y="172.405109"/>
     <use style="stroke:#000000;" x="243.630621" xlink:href="#me9368baf5c" y="172.096107"/>
     <use style="stroke:#000000;" x="243.783703" xlink:href="#me9368baf5c" y="171.894742"/>
     <use style="stroke:#000000;" x="236.16" xlink:href="#me9368baf5c" y="173.906311"/>
     <use style="stroke:#000000;" x="237.217946" xlink:href="#me9368baf5c" y="172.830637"/>
     <use style="stroke:#000000;" x="240.352859" xlink:href="#me9368baf5c" y="174.528"/>
     <use style="stroke:#000000;" x="240.7216" xlink:href="#me9368baf5c" y="174.433162"/>
     <use style="stroke:#000000;" x="240.99563" xlink:href="#me9368baf5c" y="174.528"/>
     <use style="stroke:#000000;" x="243.88522" xlink:href="#me9368baf5c" y="169.501898"/>
     <use style="stroke:#000000;" x="240.127452" xlink:href="#me9368baf5c" y="172.00239"/>
     <use style="stroke:#000000;" x="247.36227" xlink:href="#me9368baf5c" y="167.662166"/>
     <use style="stroke:#000000;" x="237.882114" xlink:href="#me9368baf5c" y="174.528"/>
     <use style="stroke:#000000;" x="251.353962" xlink:href="#me9368baf5c" y="173.341596"/>
     <use style="stroke:#000000;" x="240.852628" xlink:href="#me9368baf5c" y="174.528"/>
     <use style="stroke:#000000;" x="247.57512" xlink:href="#me9368baf5c" y="173.491494"/>
     <use style="stroke:#000000;" x="240.707692" xlink:href="#me9368baf5c" y="172.875293"/>
     <use style="stroke:#000000;" x="244.119578" xlink:href="#me9368baf5c" y="168.636072"/>
     <use style="stroke:#000000;" x="236.48566" xlink:href="#me9368baf5c" y="174.528"/>
     <use style="stroke:#000000;" x="239.994458" xlink:href="#me9368baf5c" y="174.258651"/>
     <use style="stroke:#000000;" x="239.741699" xlink:href="#me9368baf5c" y="174.528"/>
     <use style="stroke:#000000;" x="247.539821" xlink:href="#me9368baf5c" y="174.528"/>
     <use style="stroke:#000000;" x="239.77732" xlink:href="#me9368baf5c" y="174.299071"/>
     <use style="stroke:#000000;" x="237.28352" xlink:href="#me9368baf5c" y="174.528"/>
     <use style="stroke:#000000;" x="240.739993" xlink:href="#me9368baf5c" y="172.047176"/>
     <use style="stroke:#000000;" x="243.669113" xlink:href="#me9368baf5c" y="169.255858"/>
     <use style="stroke:#000000;" x="243.704768" xlink:href="#me9368baf5c" y="170.706993"/>
     <use style="stroke:#000000;" x="240.665002" xlink:href="#me9368baf5c" y="173.564073"/>
     <use style="stroke:#000000;" x="237.134546" xlink:href="#me9368baf5c" y="172.151567"/>
     <use style="stroke:#000000;" x="237.144661" xlink:href="#me9368baf5c" y="174.528"/>
     <use style="stroke:#000000;" x="239.856714" xlink:href="#me9368baf5c" y="174.528"/>
     <use style="stroke:#000000;" x="237.387177" xlink:href="#me9368baf5c" y="173.822028"/>
     <use style="stroke:#000000;" x="236.598962" xlink:href="#me9368baf5c" y="174.528"/>
     <use style="stroke:#000000;" x="237.578327" xlink:href="#me9368baf5c" y="174.528"/>
     <use style="stroke:#000000;" x="236.522111" xlink:href="#me9368baf5c" y="174.528"/>
     <use style="stroke:#000000;" x="239.883319" xlink:href="#me9368baf5c" y="171.744137"/>
     <use style="stroke:#000000;" x="237.400851" xlink:href="#me9368baf5c" y="173.660662"/>
     <use style="stroke:#000000;" x="236.16" xlink:href="#me9368baf5c" y="174.528"/>
     <use style="stroke:#000000;" x="240.785468" xlink:href="#me9368baf5c" y="174.528"/>
     <use style="stroke:#000000;" x="240.394735" xlink:href="#me9368baf5c" y="173.9365"/>
     <use style="stroke:#000000;" x="240.767647" xlink:href="#me9368baf5c" y="172.937092"/>
     <use style="stroke:#000000;" x="243.931739" xlink:href="#me9368baf5c" y="174.243188"/>
     <use style="stroke:#000000;" x="240.46455" xlink:href="#me9368baf5c" y="174.528"/>
     <use style="stroke:#000000;" x="244.089095" xlink:href="#me9368baf5c" y="169.947251"/>
     <use style="stroke:#000000;" x="237.674546" xlink:href="#me9368baf5c" y="173.468549"/>
     <use style="stroke:#000000;" x="243.392723" xlink:href="#me9368baf5c" y="171.061843"/>
     <use style="stroke:#000000;" x="243.389315" xlink:href="#me9368baf5c" y="174.273097"/>
     <use style="stroke:#000000;" x="243.431926" xlink:href="#me9368baf5c" y="170.548442"/>
     <use style="stroke:#000000;" x="247.478915" xlink:href="#me9368baf5c" y="174.528"/>
     <use style="stroke:#000000;" x="251.412092" xlink:href="#me9368baf5c" y="170.371805"/>
     <use style="stroke:#000000;" x="238.330065" xlink:href="#me9368baf5c" y="174.528"/>
     <use style="stroke:#000000;" x="251.374983" xlink:href="#me9368baf5c" y="172.585352"/>
     <use style="stroke:#000000;" x="247.777677" xlink:href="#me9368baf5c" y="174.338116"/>
     <use style="stroke:#000000;" x="247.583402" xlink:href="#me9368baf5c" y="174.528"/>
     <use style="stroke:#000000;" x="251.283706" xlink:href="#me9368baf5c" y="172.59607"/>
     <use style="stroke:#000000;" x="247.624352" xlink:href="#me9368baf5c" y="169.074398"/>
     <use style="stroke:#000000;" x="236.607821" xlink:href="#me9368baf5c" y="170.895338"/>
     <use style="stroke:#000000;" x="236.798614" xlink:href="#me9368baf5c" y="174.08599"/>
     <use style="stroke:#000000;" x="244.261522" xlink:href="#me9368baf5c" y="171.232368"/>
     <use style="stroke:#000000;" x="244.431266" xlink:href="#me9368baf5c" y="169.359358"/>
     <use style="stroke:#000000;" x="240.047809" xlink:href="#me9368baf5c" y="171.217503"/>
     <use style="stroke:#000000;" x="239.93329" xlink:href="#me9368baf5c" y="173.660818"/>
     <use style="stroke:#000000;" x="240.084759" xlink:href="#me9368baf5c" y="174.263514"/>
     <use style="stroke:#000000;" x="238.198859" xlink:href="#me9368baf5c" y="173.547865"/>
     <use style="stroke:#000000;" x="237.253268" xlink:href="#me9368baf5c" y="173.055907"/>
     <use style="stroke:#000000;" x="237.256358" xlink:href="#me9368baf5c" y="173.14917"/>
     <use style="stroke:#000000;" x="243.703324" xlink:href="#me9368baf5c" y="169.420607"/>
     <use style="stroke:#000000;" x="237.242532" xlink:href="#me9368baf5c" y="172.941525"/>
     <use style="stroke:#000000;" x="240.015623" xlink:href="#me9368baf5c" y="173.365114"/>
     <use style="stroke:#000000;" x="243.820833" xlink:href="#me9368baf5c" y="174.153266"/>
     <use style="stroke:#000000;" x="237.29852" xlink:href="#me9368baf5c" y="174.528"/>
     <use style="stroke:#000000;" x="237.583071" xlink:href="#me9368baf5c" y="170.529677"/>
     <use style="stroke:#000000;" x="236.16" xlink:href="#me9368baf5c" y="173.876439"/>
     <use style="stroke:#000000;" x="236.38212" xlink:href="#me9368baf5c" y="173.80904"/>
     <use style="stroke:#000000;" x="243.413841" xlink:href="#me9368baf5c" y="168.094438"/>
     <use style="stroke:#000000;" x="240.526599" xlink:href="#me9368baf5c" y="174.528"/>
     <use style="stroke:#000000;" x="240.44862" xlink:href="#me9368baf5c" y="172.095804"/>
     <use style="stroke:#000000;" x="241.402653" xlink:href="#me9368baf5c" y="174.318491"/>
     <use style="stroke:#000000;" x="241.212224" xlink:href="#me9368baf5c" y="174.224208"/>
     <use style="stroke:#000000;" x="239.213759" xlink:href="#me9368baf5c" y="173.805759"/>
     <use style="stroke:#000000;" x="237.621317" xlink:href="#me9368baf5c" y="174.528"/>
     <use style="stroke:#000000;" x="246.497035" xlink:href="#me9368baf5c" y="168.565872"/>
     <use style="stroke:#000000;" x="248.291119" xlink:href="#me9368baf5c" y="171.237898"/>
     <use style="stroke:#000000;" x="247.372353" xlink:href="#me9368baf5c" y="168.43989"/>
     <use style="stroke:#000000;" x="249.547397" xlink:href="#me9368baf5c" y="169.755947"/>
     <use style="stroke:#000000;" x="236.175916" xlink:href="#me9368baf5c" y="174.528"/>
     <use style="stroke:#000000;" x="239.208888" xlink:href="#me9368baf5c" y="172.740201"/>
     <use style="stroke:#000000;" x="236.618453" xlink:href="#me9368baf5c" y="174.528"/>
     <use style="stroke:#000000;" x="241.457182" xlink:href="#me9368baf5c" y="172.541093"/>
     <use style="stroke:#000000;" x="239.61652" xlink:href="#me9368baf5c" y="171.098601"/>
     <use style="stroke:#000000;" x="242.856287" xlink:href="#me9368baf5c" y="172.598075"/>
     <use style="stroke:#000000;" x="242.928" xlink:href="#me9368baf5c" y="171.512586"/>
     <use style="stroke:#000000;" x="245.425463" xlink:href="#me9368baf5c" y="171.93784"/>
     <use style="stroke:#000000;" x="242.784877" xlink:href="#me9368baf5c" y="171.614759"/>
     <use style="stroke:#000000;" x="243.011149" xlink:href="#me9368baf5c" y="172.434336"/>
     <use style="stroke:#000000;" x="242.341908" xlink:href="#me9368baf5c" y="171.841249"/>
     <use style="stroke:#000000;" x="245.906065" xlink:href="#me9368baf5c" y="170.301908"/>
     <use style="stroke:#000000;" x="236.16" xlink:href="#me9368baf5c" y="173.646361"/>
     <use style="stroke:#000000;" x="236.16" xlink:href="#me9368baf5c" y="173.013152"/>
     <use style="stroke:#000000;" x="236.16" xlink:href="#me9368baf5c" y="174.528"/>
     <use style="stroke:#000000;" x="237.369269" xlink:href="#me9368baf5c" y="173.782281"/>
     <use style="stroke:#000000;" x="236.233199" xlink:href="#me9368baf5c" y="172.933843"/>
     <use style="stroke:#000000;" x="237.645214" xlink:href="#me9368baf5c" y="174.520114"/>
     <use style="stroke:#000000;" x="239.507432" xlink:href="#me9368baf5c" y="173.917354"/>
     <use style="stroke:#000000;" x="239.820864" xlink:href="#me9368baf5c" y="174.528"/>
     <use style="stroke:#000000;" x="240.219038" xlink:href="#me9368baf5c" y="174.059495"/>
     <use style="stroke:#000000;" x="241.258092" xlink:href="#me9368baf5c" y="174.528"/>
     <use style="stroke:#000000;" x="242.057323" xlink:href="#me9368baf5c" y="172.811112"/>
     <use style="stroke:#000000;" x="241.223632" xlink:href="#me9368baf5c" y="174.528"/>
     <use style="stroke:#000000;" x="241.311831" xlink:href="#me9368baf5c" y="174.528"/>
     <use style="stroke:#000000;" x="241.011631" xlink:href="#me9368baf5c" y="174.298072"/>
     <use style="stroke:#000000;" x="240.586078" xlink:href="#me9368baf5c" y="174.457835"/>
     <use style="stroke:#000000;" x="242.674578" xlink:href="#me9368baf5c" y="169.417059"/>
     <use style="stroke:#000000;" x="246.091902" xlink:href="#me9368baf5c" y="169.991062"/>
     <use style="stroke:#000000;" x="242.085078" xlink:href="#me9368baf5c" y="169.240248"/>
     <use style="stroke:#000000;" x="242.114471" xlink:href="#me9368baf5c" y="172.273517"/>
     <use style="stroke:#000000;" x="239.598366" xlink:href="#me9368baf5c" y="171.492449"/>
     <use style="stroke:#000000;" x="240.00611" xlink:href="#me9368baf5c" y="172.738317"/>
     <use style="stroke:#000000;" x="248.602691" xlink:href="#me9368baf5c" y="168.362195"/>
     <use style="stroke:#000000;" x="247.990136" xlink:href="#me9368baf5c" y="166.367158"/>
     <use style="stroke:#000000;" x="249.047899" xlink:href="#me9368baf5c" y="166.574558"/>
     <use style="stroke:#000000;" x="239.44528" xlink:href="#me9368baf5c" y="173.916515"/>
     <use style="stroke:#000000;" x="237.416876" xlink:href="#me9368baf5c" y="174.528"/>
     <use style="stroke:#000000;" x="238.439879" xlink:href="#me9368baf5c" y="174.217995"/>
     <use style="stroke:#000000;" x="249.138329" xlink:href="#me9368baf5c" y="171.653296"/>
     <use style="stroke:#000000;" x="249.171589" xlink:href="#me9368baf5c" y="173.462763"/>
     <use style="stroke:#000000;" x="250.406117" xlink:href="#me9368baf5c" y="174.407347"/>
     <use style="stroke:#000000;" x="240.939948" xlink:href="#me9368baf5c" y="174.194115"/>
     <use style="stroke:#000000;" x="240.713965" xlink:href="#me9368baf5c" y="174.416778"/>
     <use style="stroke:#000000;" x="240.393726" xlink:href="#me9368baf5c" y="174.365895"/>
     <use style="stroke:#000000;" x="248.176769" xlink:href="#me9368baf5c" y="172.467779"/>
     <use style="stroke:#000000;" x="245.275488" xlink:href="#me9368baf5c" y="174.450663"/>
     <use style="stroke:#000000;" x="247.075685" xlink:href="#me9368baf5c" y="172.203863"/>
     <use style="stroke:#000000;" x="240.076951" xlink:href="#me9368baf5c" y="173.100539"/>
     <use style="stroke:#000000;" x="240.374494" xlink:href="#me9368baf5c" y="173.231545"/>
     <use style="stroke:#000000;" x="241.536353" xlink:href="#me9368baf5c" y="171.696117"/>
     <use style="stroke:#000000;" x="244.633412" xlink:href="#me9368baf5c" y="167.789012"/>
     <use style="stroke:#000000;" x="244.243318" xlink:href="#me9368baf5c" y="169.352469"/>
     <use style="stroke:#000000;" x="243.882653" xlink:href="#me9368baf5c" y="167.960293"/>
     <use style="stroke:#000000;" x="237.619114" xlink:href="#me9368baf5c" y="172.954704"/>
     <use style="stroke:#000000;" x="236.792017" xlink:href="#me9368baf5c" y="174.528"/>
     <use style="stroke:#000000;" x="236.303736" xlink:href="#me9368baf5c" y="173.063876"/>
     <use style="stroke:#000000;" x="237.045247" xlink:href="#me9368baf5c" y="173.133228"/>
     <use style="stroke:#000000;" x="238.833907" xlink:href="#me9368baf5c" y="172.421695"/>
     <use style="stroke:#000000;" x="241.875794" xlink:href="#me9368baf5c" y="174.528"/>
     <use style="stroke:#000000;" x="239.470181" xlink:href="#me9368baf5c" y="174.528"/>
     <use style="stroke:#000000;" x="245.490231" xlink:href="#me9368baf5c" y="174.258117"/>
     <use style="stroke:#000000;" x="248.62219" xlink:href="#me9368baf5c" y="174.528"/>
     <use style="stroke:#000000;" x="244.530752" xlink:href="#me9368baf5c" y="174.528"/>
     <use style="stroke:#000000;" x="240.671439" xlink:href="#me9368baf5c" y="174.528"/>
     <use style="stroke:#000000;" x="237.187932" xlink:href="#me9368baf5c" y="174.147275"/>
     <use style="stroke:#000000;" x="241.850907" xlink:href="#me9368baf5c" y="172.280907"/>
     <use style="stroke:#000000;" x="243.228208" xlink:href="#me9368baf5c" y="170.359747"/>
     <use style="stroke:#000000;" x="242.092616" xlink:href="#me9368baf5c" y="171.514544"/>
     <use style="stroke:#000000;" x="240.623533" xlink:href="#me9368baf5c" y="173.558378"/>
     <use style="stroke:#000000;" x="236.763933" xlink:href="#me9368baf5c" y="173.361479"/>
     <use style="stroke:#000000;" x="236.247995" xlink:href="#me9368baf5c" y="172.727306"/>
     <use style="stroke:#000000;" x="240.296389" xlink:href="#me9368baf5c" y="174.528"/>
     <use style="stroke:#000000;" x="240.445752" xlink:href="#me9368baf5c" y="174.528"/>
     <use style="stroke:#000000;" x="239.38337" xlink:href="#me9368baf5c" y="174.528"/>
     <use style="stroke:#000000;" x="236.936983" xlink:href="#me9368baf5c" y="171.899035"/>
     <use style="stroke:#000000;" x="237.453926" xlink:href="#me9368baf5c" y="174.527194"/>
     <use style="stroke:#000000;" x="236.16" xlink:href="#me9368baf5c" y="174.126446"/>
     <use style="stroke:#000000;" x="237.055286" xlink:href="#me9368baf5c" y="174.528"/>
     <use style="stroke:#000000;" x="238.308995" xlink:href="#me9368baf5c" y="174.528"/>
     <use style="stroke:#000000;" x="237.412816" xlink:href="#me9368baf5c" y="174.394642"/>
     <use style="stroke:#000000;" x="236.502789" xlink:href="#me9368baf5c" y="174.136033"/>
     <use style="stroke:#000000;" x="236.600081" xlink:href="#me9368baf5c" y="174.528"/>
     <use style="stroke:#000000;" x="239.942206" xlink:href="#me9368baf5c" y="172.046042"/>
     <use style="stroke:#000000;" x="237.228522" xlink:href="#me9368baf5c" y="174.528"/>
     <use style="stroke:#000000;" x="237.091234" xlink:href="#me9368baf5c" y="172.537654"/>
     <use style="stroke:#000000;" x="236.16" xlink:href="#me9368baf5c" y="174.528"/>
     <use style="stroke:#000000;" x="237.178308" xlink:href="#me9368baf5c" y="174.528"/>
     <use style="stroke:#000000;" x="242.077366" xlink:href="#me9368baf5c" y="174.528"/>
     <use style="stroke:#000000;" x="242.641639" xlink:href="#me9368baf5c" y="173.655255"/>
     <use style="stroke:#000000;" x="239.423047" xlink:href="#me9368baf5c" y="174.302207"/>
     <use style="stroke:#000000;" x="239.374656" xlink:href="#me9368baf5c" y="172.256464"/>
     <use style="stroke:#000000;" x="241.969737" xlink:href="#me9368baf5c" y="173.194639"/>
     <use style="stroke:#000000;" x="238.309188" xlink:href="#me9368baf5c" y="172.950503"/>
     <use style="stroke:#000000;" x="240.638683" xlink:href="#me9368baf5c" y="174.264059"/>
     <use style="stroke:#000000;" x="242.080457" xlink:href="#me9368baf5c" y="174.519184"/>
     <use style="stroke:#000000;" x="245.238142" xlink:href="#me9368baf5c" y="172.572898"/>
     <use style="stroke:#000000;" x="243.265376" xlink:href="#me9368baf5c" y="174.528"/>
     <use style="stroke:#000000;" x="239.418308" xlink:href="#me9368baf5c" y="174.349052"/>
     <use style="stroke:#000000;" x="244.569422" xlink:href="#me9368baf5c" y="168.592533"/>
     <use style="stroke:#000000;" x="241.964607" xlink:href="#me9368baf5c" y="168.867955"/>
     <use style="stroke:#000000;" x="236.16" xlink:href="#me9368baf5c" y="173.676491"/>
     <use style="stroke:#000000;" x="236.510262" xlink:href="#me9368baf5c" y="174.407488"/>
     <use style="stroke:#000000;" x="243.755128" xlink:href="#me9368baf5c" y="172.327772"/>
     <use style="stroke:#000000;" x="242.375525" xlink:href="#me9368baf5c" y="170.001642"/>
     <use style="stroke:#000000;" x="244.62546" xlink:href="#me9368baf5c" y="173.183524"/>
     <use style="stroke:#000000;" x="242.302003" xlink:href="#me9368baf5c" y="174.528"/>
     <use style="stroke:#000000;" x="243.266416" xlink:href="#me9368baf5c" y="169.369472"/>
     <use style="stroke:#000000;" x="243.033872" xlink:href="#me9368baf5c" y="171.807856"/>
     <use style="stroke:#000000;" x="248.271595" xlink:href="#me9368baf5c" y="174.515542"/>
     <use style="stroke:#000000;" x="246.414239" xlink:href="#me9368baf5c" y="173.921218"/>
     <use style="stroke:#000000;" x="252.782609" xlink:href="#me9368baf5c" y="171.646299"/>
     <use style="stroke:#000000;" x="252.799311" xlink:href="#me9368baf5c" y="172.409941"/>
     <use style="stroke:#000000;" x="237.252776" xlink:href="#me9368baf5c" y="174.528"/>
     <use style="stroke:#000000;" x="238.545283" xlink:href="#me9368baf5c" y="174.528"/>
     <use style="stroke:#000000;" x="248.061263" xlink:href="#me9368baf5c" y="172.64941"/>
     <use style="stroke:#000000;" x="252.215977" xlink:href="#me9368baf5c" y="172.844467"/>
     <use style="stroke:#000000;" x="248.819962" xlink:href="#me9368baf5c" y="172.080505"/>
     <use style="stroke:#000000;" x="250.008666" xlink:href="#me9368baf5c" y="174.255446"/>
     <use style="stroke:#000000;" x="249.642009" xlink:href="#me9368baf5c" y="172.797187"/>
     <use style="stroke:#000000;" x="249.105766" xlink:href="#me9368baf5c" y="173.216431"/>
     <use style="stroke:#000000;" x="245.215409" xlink:href="#me9368baf5c" y="174.528"/>
     <use style="stroke:#000000;" x="252.960596" xlink:href="#me9368baf5c" y="171.974154"/>
     <use style="stroke:#000000;" x="250.94207" xlink:href="#me9368baf5c" y="171.615762"/>
     <use style="stroke:#000000;" x="246.004242" xlink:href="#me9368baf5c" y="171.308293"/>
     <use style="stroke:#000000;" x="247.198416" xlink:href="#me9368baf5c" y="170.059758"/>
     <use style="stroke:#000000;" x="247.808945" xlink:href="#me9368baf5c" y="169.4751"/>
     <use style="stroke:#000000;" x="236.16" xlink:href="#me9368baf5c" y="170.627334"/>
     <use style="stroke:#000000;" x="237.944462" xlink:href="#me9368baf5c" y="173.569227"/>
     <use style="stroke:#000000;" x="236.16" xlink:href="#me9368baf5c" y="173.726878"/>
     <use style="stroke:#000000;" x="237.273318" xlink:href="#me9368baf5c" y="174.528"/>
     <use style="stroke:#000000;" x="242.358051" xlink:href="#me9368baf5c" y="171.841774"/>
     <use style="stroke:#000000;" x="243.113699" xlink:href="#me9368baf5c" y="170.436337"/>
     <use style="stroke:#000000;" x="246.923028" xlink:href="#me9368baf5c" y="169.664436"/>
     <use style="stroke:#000000;" x="243.485454" xlink:href="#me9368baf5c" y="170.136017"/>
     <use style="stroke:#000000;" x="240.800943" xlink:href="#me9368baf5c" y="171.487425"/>
     <use style="stroke:#000000;" x="239.702456" xlink:href="#me9368baf5c" y="171.144949"/>
     <use style="stroke:#000000;" x="236.950824" xlink:href="#me9368baf5c" y="171.99514"/>
     <use style="stroke:#000000;" x="242.718814" xlink:href="#me9368baf5c" y="174.528"/>
     <use style="stroke:#000000;" x="237.464808" xlink:href="#me9368baf5c" y="172.860075"/>
     <use style="stroke:#000000;" x="237.368391" xlink:href="#me9368baf5c" y="173.436934"/>
     <use style="stroke:#000000;" x="239.139703" xlink:href="#me9368baf5c" y="173.010189"/>
     <use style="stroke:#000000;" x="245.226938" xlink:href="#me9368baf5c" y="170.335427"/>
     <use style="stroke:#000000;" x="236.469647" xlink:href="#me9368baf5c" y="171.543942"/>
     <use style="stroke:#000000;" x="240.029914" xlink:href="#me9368baf5c" y="171.202959"/>
     <use style="stroke:#000000;" x="241.388849" xlink:href="#me9368baf5c" y="174.528"/>
     <use style="stroke:#000000;" x="236.16" xlink:href="#me9368baf5c" y="172.994559"/>
     <use style="stroke:#000000;" x="239.042391" xlink:href="#me9368baf5c" y="169.032289"/>
     <use style="stroke:#000000;" x="237.415156" xlink:href="#me9368baf5c" y="174.207157"/>
     <use style="stroke:#000000;" x="236.16" xlink:href="#me9368baf5c" y="174.528"/>
     <use style="stroke:#000000;" x="241.245387" xlink:href="#me9368baf5c" y="170.490542"/>
     <use style="stroke:#000000;" x="239.275022" xlink:href="#me9368baf5c" y="172.715175"/>
     <use style="stroke:#000000;" x="242.918365" xlink:href="#me9368baf5c" y="173.707321"/>
     <use style="stroke:#000000;" x="241.322519" xlink:href="#me9368baf5c" y="172.221012"/>
    </g>
   </g>
   <g id="PathCollection_2">
    <defs>
     <path d="M 0 0.935414 
C 0.248075 0.935414 0.486022 0.836853 0.661438 0.661438 
C 0.836853 0.486022 0.935414 0.248075 0.935414 0 
C 0.935414 -0.248075 0.836853 -0.486022 0.661438 -0.661438 
C 0.486022 -0.836853 0.248075 -0.935414 0 -0.935414 
C -0.248075 -0.935414 -0.486022 -0.836853 -0.661438 -0.661438 
C -0.836853 -0.486022 -0.935414 -0.248075 -0.935414 0 
C -0.935414 0.248075 -0.836853 0.486022 -0.661438 0.661438 
C -0.486022 0.836853 -0.248075 0.935414 0 0.935414 
z
" id="m366838d748" style="stroke:#0000ff;"/>
    </defs>
    <g clip-path="url(#pe2407a690e)">
     <use style="fill:#0000ff;stroke:#0000ff;" x="239.56719" xlink:href="#m366838d748" y="174.528"/>
     <use style="fill:#0000ff;stroke:#0000ff;" x="247.514801" xlink:href="#m366838d748" y="169.236774"/>
     <use style="fill:#0000ff;stroke:#0000ff;" x="237.133942" xlink:href="#m366838d748" y="174.528"/>
     <use style="fill:#0000ff;stroke:#0000ff;" x="240.621617" xlink:href="#m366838d748" y="172.405109"/>
     <use style="fill:#0000ff;stroke:#0000ff;" x="243.630621" xlink:href="#m366838d748" y="172.096107"/>
     <use style="fill:#0000ff;stroke:#0000ff;" x="243.783703" xlink:href="#m366838d748" y="171.894742"/>
     <use style="fill:#0000ff;stroke:#0000ff;" x="236.16" xlink:href="#m366838d748" y="173.906311"/>
     <use style="fill:#0000ff;stroke:#0000ff;" x="237.217946" xlink:href="#m366838d748" y="172.830637"/>
     <use style="fill:#0000ff;stroke:#0000ff;" x="240.352859" xlink:href="#m366838d748" y="174.528"/>
     <use style="fill:#0000ff;stroke:#0000ff;" x="240.7216" xlink:href="#m366838d748" y="174.433162"/>
     <use style="fill:#0000ff;stroke:#0000ff;" x="240.99563" xlink:href="#m366838d748" y="174.528"/>
     <use style="fill:#0000ff;stroke:#0000ff;" x="243.88522" xlink:href="#m366838d748" y="169.501898"/>
     <use style="fill:#0000ff;stroke:#0000ff;" x="240.127452" xlink:href="#m366838d748" y="172.00239"/>
     <use style="fill:#0000ff;stroke:#0000ff;" x="247.36227" xlink:href="#m366838d748" y="167.662166"/>
     <use style="fill:#0000ff;stroke:#0000ff;" x="237.882114" xlink:href="#m366838d748" y="174.528"/>
     <use style="fill:#0000ff;stroke:#0000ff;" x="251.353962" xlink:href="#m366838d748" y="173.341596"/>
     <use style="fill:#0000ff;stroke:#0000ff;" x="240.852628" xlink:href="#m366838d748" y="174.528"/>
     <use style="fill:#0000ff;stroke:#0000ff;" x="247.57512" xlink:href="#m366838d748" y="173.491494"/>
     <use style="fill:#0000ff;stroke:#0000ff;" x="240.707692" xlink:href="#m366838d748" y="172.875293"/>
     <use style="fill:#0000ff;stroke:#0000ff;" x="244.119578" xlink:href="#m366838d748" y="168.636072"/>
     <use style="fill:#0000ff;stroke:#0000ff;" x="236.48566" xlink:href="#m366838d748" y="174.528"/>
     <use style="fill:#0000ff;stroke:#0000ff;" x="239.994458" xlink:href="#m366838d748" y="174.258651"/>
     <use style="fill:#0000ff;stroke:#0000ff;" x="239.741699" xlink:href="#m366838d748" y="174.528"/>
     <use style="fill:#0000ff;stroke:#0000ff;" x="247.539821" xlink:href="#m366838d748" y="174.528"/>
     <use style="fill:#0000ff;stroke:#0000ff;" x="239.77732" xlink:href="#m366838d748" y="174.299071"/>
     <use style="fill:#0000ff;stroke:#0000ff;" x="237.28352" xlink:href="#m366838d748" y="174.528"/>
     <use style="fill:#0000ff;stroke:#0000ff;" x="240.739993" xlink:href="#m366838d748" y="172.047176"/>
     <use style="fill:#0000ff;stroke:#0000ff;" x="243.669113" xlink:href="#m366838d748" y="169.255858"/>
     <use style="fill:#0000ff;stroke:#0000ff;" x="243.704768" xlink:href="#m366838d748" y="170.706993"/>
     <use style="fill:#0000ff;stroke:#0000ff;" x="240.665002" xlink:href="#m366838d748" y="173.564073"/>
     <use style="fill:#0000ff;stroke:#0000ff;" x="237.134546" xlink:href="#m366838d748" y="172.151567"/>
     <use style="fill:#0000ff;stroke:#0000ff;" x="237.144661" xlink:href="#m366838d748" y="174.528"/>
     <use style="fill:#0000ff;stroke:#0000ff;" x="239.856714" xlink:href="#m366838d748" y="174.528"/>
     <use style="fill:#0000ff;stroke:#0000ff;" x="237.387177" xlink:href="#m366838d748" y="173.822028"/>
     <use style="fill:#0000ff;stroke:#0000ff;" x="236.598962" xlink:href="#m366838d748" y="174.528"/>
     <use style="fill:#0000ff;stroke:#0000ff;" x="237.578327" xlink:href="#m366838d748" y="174.528"/>
     <use style="fill:#0000ff;stroke:#0000ff;" x="236.522111" xlink:href="#m366838d748" y="174.528"/>
     <use style="fill:#0000ff;stroke:#0000ff;" x="239.883319" xlink:href="#m366838d748" y="171.744137"/>
     <use style="fill:#0000ff;stroke:#0000ff;" x="237.400851" xlink:href="#m366838d748" y="173.660662"/>
     <use style="fill:#0000ff;stroke:#0000ff;" x="236.16" xlink:href="#m366838d748" y="174.528"/>
     <use style="fill:#0000ff;stroke:#0000ff;" x="240.785468" xlink:href="#m366838d748" y="174.528"/>
     <use style="fill:#0000ff;stroke:#0000ff;" x="240.394735" xlink:href="#m366838d748" y="173.9365"/>
     <use style="fill:#0000ff;stroke:#0000ff;" x="240.767647" xlink:href="#m366838d748" y="172.937092"/>
     <use style="fill:#0000ff;stroke:#0000ff;" x="243.931739" xlink:href="#m366838d748" y="174.243188"/>
     <use style="fill:#0000ff;stroke:#0000ff;" x="240.46455" xlink:href="#m366838d748" y="174.528"/>
     <use style="fill:#0000ff;stroke:#0000ff;" x="244.089095" xlink:href="#m366838d748" y="169.947251"/>
     <use style="fill:#0000ff;stroke:#0000ff;" x="237.674546" xlink:href="#m366838d748" y="173.468549"/>
     <use style="fill:#0000ff;stroke:#0000ff;" x="243.392723" xlink:href="#m366838d748" y="171.061843"/>
     <use style="fill:#0000ff;stroke:#0000ff;" x="243.389315" xlink:href="#m366838d748" y="174.273097"/>
     <use style="fill:#0000ff;stroke:#0000ff;" x="243.431926" xlink:href="#m366838d748" y="170.548442"/>
     <use style="fill:#0000ff;stroke:#0000ff;" x="247.478915" xlink:href="#m366838d748" y="174.528"/>
     <use style="fill:#0000ff;stroke:#0000ff;" x="251.412092" xlink:href="#m366838d748" y="170.371805"/>
     <use style="fill:#0000ff;stroke:#0000ff;" x="238.330065" xlink:href="#m366838d748" y="174.528"/>
     <use style="fill:#0000ff;stroke:#0000ff;" x="251.374983" xlink:href="#m366838d748" y="172.585352"/>
     <use style="fill:#0000ff;stroke:#0000ff;" x="247.777677" xlink:href="#m366838d748" y="174.338116"/>
     <use style="fill:#0000ff;stroke:#0000ff;" x="247.583402" xlink:href="#m366838d748" y="174.528"/>
     <use style="fill:#0000ff;stroke:#0000ff;" x="251.283706" xlink:href="#m366838d748" y="172.59607"/>
     <use style="fill:#0000ff;stroke:#0000ff;" x="247.624352" xlink:href="#m366838d748" y="169.074398"/>
     <use style="fill:#0000ff;stroke:#0000ff;" x="236.607821" xlink:href="#m366838d748" y="170.895338"/>
     <use style="fill:#0000ff;stroke:#0000ff;" x="236.798614" xlink:href="#m366838d748" y="174.08599"/>
     <use style="fill:#0000ff;stroke:#0000ff;" x="244.261522" xlink:href="#m366838d748" y="171.232368"/>
     <use style="fill:#0000ff;stroke:#0000ff;" x="244.431266" xlink:href="#m366838d748" y="169.359358"/>
     <use style="fill:#0000ff;stroke:#0000ff;" x="240.047809" xlink:href="#m366838d748" y="171.217503"/>
     <use style="fill:#0000ff;stroke:#0000ff;" x="239.93329" xlink:href="#m366838d748" y="173.660818"/>
     <use style="fill:#0000ff;stroke:#0000ff;" x="240.084759" xlink:href="#m366838d748" y="174.263514"/>
     <use style="fill:#0000ff;stroke:#0000ff;" x="238.198859" xlink:href="#m366838d748" y="173.547865"/>
     <use style="fill:#0000ff;stroke:#0000ff;" x="237.253268" xlink:href="#m366838d748" y="173.055907"/>
     <use style="fill:#0000ff;stroke:#0000ff;" x="237.256358" xlink:href="#m366838d748" y="173.14917"/>
     <use style="fill:#0000ff;stroke:#0000ff;" x="243.703324" xlink:href="#m366838d748" y="169.420607"/>
     <use style="fill:#0000ff;stroke:#0000ff;" x="237.242532" xlink:href="#m366838d748" y="172.941525"/>
     <use style="fill:#0000ff;stroke:#0000ff;" x="240.015623" xlink:href="#m366838d748" y="173.365114"/>
     <use style="fill:#0000ff;stroke:#0000ff;" x="243.820833" xlink:href="#m366838d748" y="174.153266"/>
     <use style="fill:#0000ff;stroke:#0000ff;" x="237.29852" xlink:href="#m366838d748" y="174.528"/>
     <use style="fill:#0000ff;stroke:#0000ff;" x="237.583071" xlink:href="#m366838d748" y="170.529677"/>
     <use style="fill:#0000ff;stroke:#0000ff;" x="236.16" xlink:href="#m366838d748" y="173.876439"/>
     <use style="fill:#0000ff;stroke:#0000ff;" x="236.38212" xlink:href="#m366838d748" y="173.80904"/>
     <use style="fill:#0000ff;stroke:#0000ff;" x="243.413841" xlink:href="#m366838d748" y="168.094438"/>
     <use style="fill:#0000ff;stroke:#0000ff;" x="240.526599" xlink:href="#m366838d748" y="174.528"/>
     <use style="fill:#0000ff;stroke:#0000ff;" x="240.44862" xlink:href="#m366838d748" y="172.095804"/>
     <use style="fill:#0000ff;stroke:#0000ff;" x="241.402653" xlink:href="#m366838d748" y="174.318491"/>
    </g>
   </g>
   <g id="matplotlib.axis_1">
    <g id="xtick_1">
     <g id="line2d_1">
      <defs>
       <path d="M 0 0 
L 0 3.5 
" id="m7af52ba0e9" style="stroke:#000000;stroke-width:0.8;"/>
      </defs>
      <g>
       <use style="stroke:#000000;stroke-width:0.8;" x="57.6" xlink:href="#m7af52ba0e9" y="307.584"/>
      </g>
     </g>
     <g id="text_1">
      <!-- −10.0 -->
      <defs>
       <path d="M 10.59375 35.5 
L 73.1875 35.5 
L 73.1875 27.203125 
L 10.59375 27.203125 
z
" id="DejaVuSans-2212"/>
       <path d="M 12.40625 8.296875 
L 28.515625 8.296875 
L 28.515625 63.921875 
L 10.984375 60.40625 
L 10.984375 69.390625 
L 28.421875 72.90625 
L 38.28125 72.90625 
L 38.28125 8.296875 
L 54.390625 8.296875 
L 54.390625 0 
L 12.40625 0 
z
" id="DejaVuSans-31"/>
       <path d="M 31.78125 66.40625 
Q 24.171875 66.40625 20.328125 58.90625 
Q 16.5 51.421875 16.5 36.375 
Q 16.5 21.390625 20.328125 13.890625 
Q 24.171875 6.390625 31.78125 6.390625 
Q 39.453125 6.390625 43.28125 13.890625 
Q 47.125 21.390625 47.125 36.375 
Q 47.125 51.421875 43.28125 58.90625 
Q 39.453125 66.40625 31.78125 66.40625 
z
M 31.78125 74.21875 
Q 44.046875 74.21875 50.515625 64.515625 
Q 56.984375 54.828125 56.984375 36.375 
Q 56.984375 17.96875 50.515625 8.265625 
Q 44.046875 -1.421875 31.78125 -1.421875 
Q 19.53125 -1.421875 13.0625 8.265625 
Q 6.59375 17.96875 6.59375 36.375 
Q 6.59375 54.828125 13.0625 64.515625 
Q 19.53125 74.21875 31.78125 74.21875 
z
" id="DejaVuSans-30"/>
       <path d="M 10.6875 12.40625 
L 21 12.40625 
L 21 0 
L 10.6875 0 
z
" id="DejaVuSans-2e"/>
      </defs>
      <g transform="translate(42.277344 322.182437)scale(0.1 -0.1)">
       <use xlink:href="#DejaVuSans-2212"/>
       <use x="83.789062" xlink:href="#DejaVuSans-31"/>
       <use x="147.412109" xlink:href="#DejaVuSans-30"/>
       <use x="211.035156" xlink:href="#DejaVuSans-2e"/>
       <use x="242.822266" xlink:href="#DejaVuSans-30"/>
      </g>
     </g>
    </g>
    <g id="xtick_2">
     <g id="line2d_2">
      <g>
       <use style="stroke:#000000;stroke-width:0.8;" x="102.24" xlink:href="#m7af52ba0e9" y="307.584"/>
      </g>
     </g>
     <g id="text_2">
      <!-- −7.5 -->
      <defs>
       <path d="M 8.203125 72.90625 
L 55.078125 72.90625 
L 55.078125 68.703125 
L 28.609375 0 
L 18.3125 0 
L 43.21875 64.59375 
L 8.203125 64.59375 
z
" id="DejaVuSans-37"/>
       <path d="M 10.796875 72.90625 
L 49.515625 72.90625 
L 49.515625 64.59375 
L 19.828125 64.59375 
L 19.828125 46.734375 
Q 21.96875 47.46875 24.109375 47.828125 
Q 26.265625 48.1875 28.421875 48.1875 
Q 40.625 48.1875 47.75 41.5 
Q 54.890625 34.8125 54.890625 23.390625 
Q 54.890625 11.625 47.5625 5.09375 
Q 40.234375 -1.421875 26.90625 -1.421875 
Q 22.3125 -1.421875 17.546875 -0.640625 
Q 12.796875 0.140625 7.71875 1.703125 
L 7.71875 11.625 
Q 12.109375 9.234375 16.796875 8.0625 
Q 21.484375 6.890625 26.703125 6.890625 
Q 35.15625 6.890625 40.078125 11.328125 
Q 45.015625 15.765625 45.015625 23.390625 
Q 45.015625 31 40.078125 35.4375 
Q 35.15625 39.890625 26.703125 39.890625 
Q 22.75 39.890625 18.8125 39.015625 
Q 14.890625 38.140625 10.796875 36.28125 
z
" id="DejaVuSans-35"/>
      </defs>
      <g transform="translate(90.098594 322.182437)scale(0.1 -0.1)">
       <use xlink:href="#DejaVuSans-2212"/>
       <use x="83.789062" xlink:href="#DejaVuSans-37"/>
       <use x="147.412109" xlink:href="#DejaVuSans-2e"/>
       <use x="179.199219" xlink:href="#DejaVuSans-35"/>
      </g>
     </g>
    </g>
    <g id="xtick_3">
     <g id="line2d_3">
      <g>
       <use style="stroke:#000000;stroke-width:0.8;" x="146.88" xlink:href="#m7af52ba0e9" y="307.584"/>
      </g>
     </g>
     <g id="text_3">
      <!-- −5.0 -->
      <g transform="translate(134.738594 322.182437)scale(0.1 -0.1)">
       <use xlink:href="#DejaVuSans-2212"/>
       <use x="83.789062" xlink:href="#DejaVuSans-35"/>
       <use x="147.412109" xlink:href="#DejaVuSans-2e"/>
       <use x="179.199219" xlink:href="#DejaVuSans-30"/>
      </g>
     </g>
    </g>
    <g id="xtick_4">
     <g id="line2d_4">
      <g>
       <use style="stroke:#000000;stroke-width:0.8;" x="191.52" xlink:href="#m7af52ba0e9" y="307.584"/>
      </g>
     </g>
     <g id="text_4">
      <!-- −2.5 -->
      <defs>
       <path d="M 19.1875 8.296875 
L 53.609375 8.296875 
L 53.609375 0 
L 7.328125 0 
L 7.328125 8.296875 
Q 12.9375 14.109375 22.625 23.890625 
Q 32.328125 33.6875 34.8125 36.53125 
Q 39.546875 41.84375 41.421875 45.53125 
Q 43.3125 49.21875 43.3125 52.78125 
Q 43.3125 58.59375 39.234375 62.25 
Q 35.15625 65.921875 28.609375 65.921875 
Q 23.96875 65.921875 18.8125 64.3125 
Q 13.671875 62.703125 7.8125 59.421875 
L 7.8125 69.390625 
Q 13.765625 71.78125 18.9375 73 
Q 24.125 74.21875 28.421875 74.21875 
Q 39.75 74.21875 46.484375 68.546875 
Q 53.21875 62.890625 53.21875 53.421875 
Q 53.21875 48.921875 51.53125 44.890625 
Q 49.859375 40.875 45.40625 35.40625 
Q 44.1875 33.984375 37.640625 27.21875 
Q 31.109375 20.453125 19.1875 8.296875 
z
" id="DejaVuSans-32"/>
      </defs>
      <g transform="translate(179.378594 322.182437)scale(0.1 -0.1)">
       <use xlink:href="#DejaVuSans-2212"/>
       <use x="83.789062" xlink:href="#DejaVuSans-32"/>
       <use x="147.412109" xlink:href="#DejaVuSans-2e"/>
       <use x="179.199219" xlink:href="#DejaVuSans-35"/>
      </g>
     </g>
    </g>
    <g id="xtick_5">
     <g id="line2d_5">
      <g>
       <use style="stroke:#000000;stroke-width:0.8;" x="236.16" xlink:href="#m7af52ba0e9" y="307.584"/>
      </g>
     </g>
     <g id="text_5">
      <!-- 0.0 -->
      <g transform="translate(228.208438 322.182437)scale(0.1 -0.1)">
       <use xlink:href="#DejaVuSans-30"/>
       <use x="63.623047" xlink:href="#DejaVuSans-2e"/>
       <use x="95.410156" xlink:href="#DejaVuSans-30"/>
      </g>
     </g>
    </g>
    <g id="xtick_6">
     <g id="line2d_6">
      <g>
       <use style="stroke:#000000;stroke-width:0.8;" x="280.8" xlink:href="#m7af52ba0e9" y="307.584"/>
      </g>
     </g>
     <g id="text_6">
      <!-- 2.5 -->
      <g transform="translate(272.848437 322.182437)scale(0.1 -0.1)">
       <use xlink:href="#DejaVuSans-32"/>
       <use x="63.623047" xlink:href="#DejaVuSans-2e"/>
       <use x="95.410156" xlink:href="#DejaVuSans-35"/>
      </g>
     </g>
    </g>
    <g id="xtick_7">
     <g id="line2d_7">
      <g>
       <use style="stroke:#000000;stroke-width:0.8;" x="325.44" xlink:href="#m7af52ba0e9" y="307.584"/>
      </g>
     </g>
     <g id="text_7">
      <!-- 5.0 -->
      <g transform="translate(317.488437 322.182437)scale(0.1 -0.1)">
       <use xlink:href="#DejaVuSans-35"/>
       <use x="63.623047" xlink:href="#DejaVuSans-2e"/>
       <use x="95.410156" xlink:href="#DejaVuSans-30"/>
      </g>
     </g>
    </g>
    <g id="xtick_8">
     <g id="line2d_8">
      <g>
       <use style="stroke:#000000;stroke-width:0.8;" x="370.08" xlink:href="#m7af52ba0e9" y="307.584"/>
      </g>
     </g>
     <g id="text_8">
      <!-- 7.5 -->
      <g transform="translate(362.128438 322.182437)scale(0.1 -0.1)">
       <use xlink:href="#DejaVuSans-37"/>
       <use x="63.623047" xlink:href="#DejaVuSans-2e"/>
       <use x="95.410156" xlink:href="#DejaVuSans-35"/>
      </g>
     </g>
    </g>
    <g id="xtick_9">
     <g id="line2d_9">
      <g>
       <use style="stroke:#000000;stroke-width:0.8;" x="414.72" xlink:href="#m7af52ba0e9" y="307.584"/>
      </g>
     </g>
     <g id="text_9">
      <!-- 10.0 -->
      <g transform="translate(403.587188 322.182437)scale(0.1 -0.1)">
       <use xlink:href="#DejaVuSans-31"/>
       <use x="63.623047" xlink:href="#DejaVuSans-30"/>
       <use x="127.246094" xlink:href="#DejaVuSans-2e"/>
       <use x="159.033203" xlink:href="#DejaVuSans-30"/>
      </g>
     </g>
    </g>
   </g>
   <g id="matplotlib.axis_2">
    <g id="ytick_1">
     <g id="line2d_10">
      <defs>
       <path d="M 0 0 
L -3.5 0 
" id="m1c25a5cf2e" style="stroke:#000000;stroke-width:0.8;"/>
      </defs>
      <g>
       <use style="stroke:#000000;stroke-width:0.8;" x="57.6" xlink:href="#m1c25a5cf2e" y="307.584"/>
      </g>
     </g>
     <g id="text_10">
      <!-- −10.0 -->
      <g transform="translate(19.954687 311.383219)scale(0.1 -0.1)">
       <use xlink:href="#DejaVuSans-2212"/>
       <use x="83.789062" xlink:href="#DejaVuSans-31"/>
       <use x="147.412109" xlink:href="#DejaVuSans-30"/>
       <use x="211.035156" xlink:href="#DejaVuSans-2e"/>
       <use x="242.822266" xlink:href="#DejaVuSans-30"/>
      </g>
     </g>
    </g>
    <g id="ytick_2">
     <g id="line2d_11">
      <g>
       <use style="stroke:#000000;stroke-width:0.8;" x="57.6" xlink:href="#m1c25a5cf2e" y="274.32"/>
      </g>
     </g>
     <g id="text_11">
      <!-- −7.5 -->
      <g transform="translate(26.317187 278.119219)scale(0.1 -0.1)">
       <use xlink:href="#DejaVuSans-2212"/>
       <use x="83.789062" xlink:href="#DejaVuSans-37"/>
       <use x="147.412109" xlink:href="#DejaVuSans-2e"/>
       <use x="179.199219" xlink:href="#DejaVuSans-35"/>
      </g>
     </g>
    </g>
    <g id="ytick_3">
     <g id="line2d_12">
      <g>
       <use style="stroke:#000000;stroke-width:0.8;" x="57.6" xlink:href="#m1c25a5cf2e" y="241.056"/>
      </g>
     </g>
     <g id="text_12">
      <!-- −5.0 -->
      <g transform="translate(26.317187 244.855219)scale(0.1 -0.1)">
       <use xlink:href="#DejaVuSans-2212"/>
       <use x="83.789062" xlink:href="#DejaVuSans-35"/>
       <use x="147.412109" xlink:href="#DejaVuSans-2e"/>
       <use x="179.199219" xlink:href="#DejaVuSans-30"/>
      </g>
     </g>
    </g>
    <g id="ytick_4">
     <g id="line2d_13">
      <g>
       <use style="stroke:#000000;stroke-width:0.8;" x="57.6" xlink:href="#m1c25a5cf2e" y="207.792"/>
      </g>
     </g>
     <g id="text_13">
      <!-- −2.5 -->
      <g transform="translate(26.317187 211.591219)scale(0.1 -0.1)">
       <use xlink:href="#DejaVuSans-2212"/>
       <use x="83.789062" xlink:href="#DejaVuSans-32"/>
       <use x="147.412109" xlink:href="#DejaVuSans-2e"/>
       <use x="179.199219" xlink:href="#DejaVuSans-35"/>
      </g>
     </g>
    </g>
    <g id="ytick_5">
     <g id="line2d_14">
      <g>
       <use style="stroke:#000000;stroke-width:0.8;" x="57.6" xlink:href="#m1c25a5cf2e" y="174.528"/>
      </g>
     </g>
     <g id="text_14">
      <!-- 0.0 -->
      <g transform="translate(34.696875 178.327219)scale(0.1 -0.1)">
       <use xlink:href="#DejaVuSans-30"/>
       <use x="63.623047" xlink:href="#DejaVuSans-2e"/>
       <use x="95.410156" xlink:href="#DejaVuSans-30"/>
      </g>
     </g>
    </g>
    <g id="ytick_6">
     <g id="line2d_15">
      <g>
       <use style="stroke:#000000;stroke-width:0.8;" x="57.6" xlink:href="#m1c25a5cf2e" y="141.264"/>
      </g>
     </g>
     <g id="text_15">
      <!-- 2.5 -->
      <g transform="translate(34.696875 145.063219)scale(0.1 -0.1)">
       <use xlink:href="#DejaVuSans-32"/>
       <use x="63.623047" xlink:href="#DejaVuSans-2e"/>
       <use x="95.410156" xlink:href="#DejaVuSans-35"/>
      </g>
     </g>
    </g>
    <g id="ytick_7">
     <g id="line2d_16">
      <g>
       <use style="stroke:#000000;stroke-width:0.8;" x="57.6" xlink:href="#m1c25a5cf2e" y="108"/>
      </g>
     </g>
     <g id="text_16">
      <!-- 5.0 -->
      <g transform="translate(34.696875 111.799219)scale(0.1 -0.1)">
       <use xlink:href="#DejaVuSans-35"/>
       <use x="63.623047" xlink:href="#DejaVuSans-2e"/>
       <use x="95.410156" xlink:href="#DejaVuSans-30"/>
      </g>
     </g>
    </g>
    <g id="ytick_8">
     <g id="line2d_17">
      <g>
       <use style="stroke:#000000;stroke-width:0.8;" x="57.6" xlink:href="#m1c25a5cf2e" y="74.736"/>
      </g>
     </g>
     <g id="text_17">
      <!-- 7.5 -->
      <g transform="translate(34.696875 78.535219)scale(0.1 -0.1)">
       <use xlink:href="#DejaVuSans-37"/>
       <use x="63.623047" xlink:href="#DejaVuSans-2e"/>
       <use x="95.410156" xlink:href="#DejaVuSans-35"/>
      </g>
     </g>
    </g>
    <g id="ytick_9">
     <g id="line2d_18">
      <g>
       <use style="stroke:#000000;stroke-width:0.8;" x="57.6" xlink:href="#m1c25a5cf2e" y="41.472"/>
      </g>
     </g>
     <g id="text_18">
      <!-- 10.0 -->
      <g transform="translate(28.334375 45.271219)scale(0.1 -0.1)">
       <use xlink:href="#DejaVuSans-31"/>
       <use x="63.623047" xlink:href="#DejaVuSans-30"/>
       <use x="127.246094" xlink:href="#DejaVuSans-2e"/>
       <use x="159.033203" xlink:href="#DejaVuSans-30"/>
      </g>
     </g>
    </g>
   </g>
   <g id="patch_3">
    <path d="M 57.6 307.584 
L 57.6 41.472 
" style="fill:none;stroke:#000000;stroke-linecap:square;stroke-linejoin:miter;stroke-width:0.8;"/>
   </g>
   <g id="patch_4">
    <path d="M 414.72 307.584 
L 414.72 41.472 
" style="fill:none;stroke:#000000;stroke-linecap:square;stroke-linejoin:miter;stroke-width:0.8;"/>
   </g>
   <g id="patch_5">
    <path d="M 57.6 307.584 
L 414.72 307.584 
" style="fill:none;stroke:#000000;stroke-linecap:square;stroke-linejoin:miter;stroke-width:0.8;"/>
   </g>
   <g id="patch_6">
    <path d="M 57.6 41.472 
L 414.72 41.472 
" style="fill:none;stroke:#000000;stroke-linecap:square;stroke-linejoin:miter;stroke-width:0.8;"/>
   </g>
  </g>
 </g>
 <defs>
  <clipPath id="pe2407a690e">
   <rect height="266.112" width="357.12" x="57.6" y="41.472"/>
  </clipPath>
 </defs>
</svg>
