<?xml version="1.0" encoding="utf-8" standalone="no"?>
<!DOCTYPE svg PUBLIC "-//W3C//DTD SVG 1.1//EN"
  "http://www.w3.org/Graphics/SVG/1.1/DTD/svg11.dtd">
<!-- Created with matplotlib (http://matplotlib.org/) -->
<svg height="345.6pt" version="1.1" viewBox="0 0 460.8 345.6" width="460.8pt" xmlns="http://www.w3.org/2000/svg" xmlns:xlink="http://www.w3.org/1999/xlink">
 <defs>
  <style type="text/css">
*{stroke-linecap:butt;stroke-linejoin:round;}
  </style>
 </defs>
 <g id="figure_1">
  <g id="patch_1">
   <path d="M 0 345.6 
L 460.8 345.6 
L 460.8 0 
L 0 0 
z
" style="fill:#ffffff;"/>
  </g>
  <g id="axes_1">
   <g id="patch_2">
    <path d="M 57.6 307.584 
L 414.72 307.584 
L 414.72 41.472 
L 57.6 41.472 
z
" style="fill:#ffffff;"/>
   </g>
   <g id="PathCollection_1">
    <defs>
     <path d="M 0 0.612372 
C 0.162403 0.612372 0.318176 0.547849 0.433013 0.433013 
C 0.547849 0.318176 0.612372 0.162403 0.612372 0 
C 0.612372 -0.162403 0.547849 -0.318176 0.433013 -0.433013 
C 0.318176 -0.547849 0.162403 -0.612372 0 -0.612372 
C -0.162403 -0.612372 -0.318176 -0.547849 -0.433013 -0.433013 
C -0.547849 -0.318176 -0.612372 -0.162403 -0.612372 0 
C -0.612372 0.162403 -0.547849 0.318176 -0.433013 0.433013 
C -0.318176 0.547849 -0.162403 0.612372 0 0.612372 
z
" id="mfff3c4bca1" style="stroke:#000000;"/>
    </defs>
    <g clip-path="url(#p0556309233)">
     <use style="stroke:#000000;" x="236.16" xlink:href="#mfff3c4bca1" y="136.436626"/>
     <use style="stroke:#000000;" x="315.516792" xlink:href="#mfff3c4bca1" y="174.528"/>
     <use style="stroke:#000000;" x="273.306726" xlink:href="#mfff3c4bca1" y="174.528"/>
     <use style="stroke:#000000;" x="236.16" xlink:href="#mfff3c4bca1" y="148.138036"/>
     <use style="stroke:#000000;" x="245.442316" xlink:href="#mfff3c4bca1" y="174.528"/>
     <use style="stroke:#000000;" x="236.16" xlink:href="#mfff3c4bca1" y="134.6112"/>
     <use style="stroke:#000000;" x="236.16" xlink:href="#mfff3c4bca1" y="159.526667"/>
     <use style="stroke:#000000;" x="236.16" xlink:href="#mfff3c4bca1" y="134.6112"/>
     <use style="stroke:#000000;" x="236.16" xlink:href="#mfff3c4bca1" y="172.561163"/>
     <use style="stroke:#000000;" x="236.16" xlink:href="#mfff3c4bca1" y="174.528"/>
     <use style="stroke:#000000;" x="236.16" xlink:href="#mfff3c4bca1" y="141.058225"/>
     <use style="stroke:#000000;" x="325.44" xlink:href="#mfff3c4bca1" y="142.175733"/>
     <use style="stroke:#000000;" x="255.019646" xlink:href="#mfff3c4bca1" y="174.528"/>
     <use style="stroke:#000000;" x="236.16" xlink:href="#mfff3c4bca1" y="134.6112"/>
     <use style="stroke:#000000;" x="240.106143" xlink:href="#mfff3c4bca1" y="174.528"/>
     <use style="stroke:#000000;" x="236.16" xlink:href="#mfff3c4bca1" y="163.723797"/>
     <use style="stroke:#000000;" x="236.16" xlink:href="#mfff3c4bca1" y="174.528"/>
     <use style="stroke:#000000;" x="236.16" xlink:href="#mfff3c4bca1" y="147.806594"/>
     <use style="stroke:#000000;" x="236.16" xlink:href="#mfff3c4bca1" y="147.955218"/>
     <use style="stroke:#000000;" x="236.16" xlink:href="#mfff3c4bca1" y="150.313401"/>
     <use style="stroke:#000000;" x="236.16" xlink:href="#mfff3c4bca1" y="170.072867"/>
     <use style="stroke:#000000;" x="325.44" xlink:href="#mfff3c4bca1" y="140.736768"/>
     <use style="stroke:#000000;" x="236.16" xlink:href="#mfff3c4bca1" y="145.034124"/>
     <use style="stroke:#000000;" x="236.16" xlink:href="#mfff3c4bca1" y="150.935124"/>
     <use style="stroke:#000000;" x="236.16" xlink:href="#mfff3c4bca1" y="143.975966"/>
     <use style="stroke:#000000;" x="236.16" xlink:href="#mfff3c4bca1" y="142.435865"/>
     <use style="stroke:#000000;" x="325.44" xlink:href="#mfff3c4bca1" y="143.998845"/>
     <use style="stroke:#000000;" x="321.885286" xlink:href="#mfff3c4bca1" y="174.528"/>
     <use style="stroke:#000000;" x="286.367574" xlink:href="#mfff3c4bca1" y="174.528"/>
     <use style="stroke:#000000;" x="236.16" xlink:href="#mfff3c4bca1" y="134.6112"/>
     <use style="stroke:#000000;" x="236.16" xlink:href="#mfff3c4bca1" y="140.500013"/>
     <use style="stroke:#000000;" x="244.494359" xlink:href="#mfff3c4bca1" y="174.528"/>
     <use style="stroke:#000000;" x="256.911715" xlink:href="#mfff3c4bca1" y="174.528"/>
     <use style="stroke:#000000;" x="236.16" xlink:href="#mfff3c4bca1" y="139.295179"/>
     <use style="stroke:#000000;" x="236.16" xlink:href="#mfff3c4bca1" y="134.6112"/>
     <use style="stroke:#000000;" x="236.16" xlink:href="#mfff3c4bca1" y="145.286898"/>
     <use style="stroke:#000000;" x="247.553536" xlink:href="#mfff3c4bca1" y="174.528"/>
     <use style="stroke:#000000;" x="238.269591" xlink:href="#mfff3c4bca1" y="174.528"/>
     <use style="stroke:#000000;" x="236.16" xlink:href="#mfff3c4bca1" y="169.062096"/>
     <use style="stroke:#000000;" x="256.302461" xlink:href="#mfff3c4bca1" y="174.528"/>
     <use style="stroke:#000000;" x="236.16" xlink:href="#mfff3c4bca1" y="139.620616"/>
     <use style="stroke:#000000;" x="236.16" xlink:href="#mfff3c4bca1" y="159.709076"/>
     <use style="stroke:#000000;" x="236.16" xlink:href="#mfff3c4bca1" y="134.6112"/>
     <use style="stroke:#000000;" x="265.10093" xlink:href="#mfff3c4bca1" y="174.528"/>
     <use style="stroke:#000000;" x="304.775217" xlink:href="#mfff3c4bca1" y="174.528"/>
     <use style="stroke:#000000;" x="252.23494" xlink:href="#mfff3c4bca1" y="174.528"/>
     <use style="stroke:#000000;" x="236.16" xlink:href="#mfff3c4bca1" y="174.528"/>
     <use style="stroke:#000000;" x="236.16" xlink:href="#mfff3c4bca1" y="134.6112"/>
     <use style="stroke:#000000;" x="325.44" xlink:href="#mfff3c4bca1" y="151.625093"/>
     <use style="stroke:#000000;" x="265.870376" xlink:href="#mfff3c4bca1" y="174.528"/>
     <use style="stroke:#000000;" x="236.16" xlink:href="#mfff3c4bca1" y="153.535214"/>
     <use style="stroke:#000000;" x="325.44" xlink:href="#mfff3c4bca1" y="146.311296"/>
     <use style="stroke:#000000;" x="236.16" xlink:href="#mfff3c4bca1" y="134.6112"/>
     <use style="stroke:#000000;" x="236.16" xlink:href="#mfff3c4bca1" y="150.620073"/>
     <use style="stroke:#000000;" x="236.16" xlink:href="#mfff3c4bca1" y="174.528"/>
     <use style="stroke:#000000;" x="325.44" xlink:href="#mfff3c4bca1" y="142.504809"/>
     <use style="stroke:#000000;" x="325.44" xlink:href="#mfff3c4bca1" y="153.300602"/>
     <use style="stroke:#000000;" x="236.16" xlink:href="#mfff3c4bca1" y="134.6112"/>
     <use style="stroke:#000000;" x="325.44" xlink:href="#mfff3c4bca1" y="134.6112"/>
     <use style="stroke:#000000;" x="236.16" xlink:href="#mfff3c4bca1" y="137.128196"/>
     <use style="stroke:#000000;" x="236.16" xlink:href="#mfff3c4bca1" y="150.493043"/>
     <use style="stroke:#000000;" x="236.16" xlink:href="#mfff3c4bca1" y="135.242911"/>
     <use style="stroke:#000000;" x="236.16" xlink:href="#mfff3c4bca1" y="157.429171"/>
     <use style="stroke:#000000;" x="322.645909" xlink:href="#mfff3c4bca1" y="174.528"/>
     <use style="stroke:#000000;" x="236.16" xlink:href="#mfff3c4bca1" y="165.22391"/>
     <use style="stroke:#000000;" x="236.16" xlink:href="#mfff3c4bca1" y="163.427654"/>
     <use style="stroke:#000000;" x="236.16" xlink:href="#mfff3c4bca1" y="159.103443"/>
     <use style="stroke:#000000;" x="236.16" xlink:href="#mfff3c4bca1" y="174.528"/>
     <use style="stroke:#000000;" x="236.16" xlink:href="#mfff3c4bca1" y="136.093523"/>
     <use style="stroke:#000000;" x="236.16" xlink:href="#mfff3c4bca1" y="155.714807"/>
     <use style="stroke:#000000;" x="254.388395" xlink:href="#mfff3c4bca1" y="174.528"/>
     <use style="stroke:#000000;" x="236.16" xlink:href="#mfff3c4bca1" y="147.88033"/>
     <use style="stroke:#000000;" x="236.16" xlink:href="#mfff3c4bca1" y="168.614063"/>
     <use style="stroke:#000000;" x="325.44" xlink:href="#mfff3c4bca1" y="171.318227"/>
     <use style="stroke:#000000;" x="236.697296" xlink:href="#mfff3c4bca1" y="174.528"/>
     <use style="stroke:#000000;" x="246.694464" xlink:href="#mfff3c4bca1" y="174.528"/>
     <use style="stroke:#000000;" x="236.16" xlink:href="#mfff3c4bca1" y="134.745072"/>
     <use style="stroke:#000000;" x="236.16" xlink:href="#mfff3c4bca1" y="136.70124"/>
     <use style="stroke:#000000;" x="236.16" xlink:href="#mfff3c4bca1" y="172.161989"/>
     <use style="stroke:#000000;" x="236.16" xlink:href="#mfff3c4bca1" y="168.014591"/>
     <use style="stroke:#000000;" x="236.16" xlink:href="#mfff3c4bca1" y="138.459798"/>
     <use style="stroke:#000000;" x="325.44" xlink:href="#mfff3c4bca1" y="174.528"/>
     <use style="stroke:#000000;" x="317.276271" xlink:href="#mfff3c4bca1" y="174.528"/>
     <use style="stroke:#000000;" x="313.413625" xlink:href="#mfff3c4bca1" y="174.528"/>
     <use style="stroke:#000000;" x="300.649899" xlink:href="#mfff3c4bca1" y="172.626909"/>
     <use style="stroke:#000000;" x="266.940254" xlink:href="#mfff3c4bca1" y="174.059382"/>
     <use style="stroke:#000000;" x="265.076749" xlink:href="#mfff3c4bca1" y="173.801198"/>
     <use style="stroke:#000000;" x="272.14459" xlink:href="#mfff3c4bca1" y="172.597889"/>
     <use style="stroke:#000000;" x="238.067436" xlink:href="#mfff3c4bca1" y="149.543117"/>
     <use style="stroke:#000000;" x="244.200747" xlink:href="#mfff3c4bca1" y="150.028497"/>
     <use style="stroke:#000000;" x="236.16" xlink:href="#mfff3c4bca1" y="148.488191"/>
     <use style="stroke:#000000;" x="249.330294" xlink:href="#mfff3c4bca1" y="166.143187"/>
     <use style="stroke:#000000;" x="250.395746" xlink:href="#mfff3c4bca1" y="174.105185"/>
     <use style="stroke:#000000;" x="249.582975" xlink:href="#mfff3c4bca1" y="171.151686"/>
     <use style="stroke:#000000;" x="238.240971" xlink:href="#mfff3c4bca1" y="134.6112"/>
     <use style="stroke:#000000;" x="236.16" xlink:href="#mfff3c4bca1" y="137.089326"/>
     <use style="stroke:#000000;" x="242.344838" xlink:href="#mfff3c4bca1" y="134.6112"/>
     <use style="stroke:#000000;" x="252.952028" xlink:href="#mfff3c4bca1" y="162.261718"/>
     <use style="stroke:#000000;" x="238.955911" xlink:href="#mfff3c4bca1" y="159.916576"/>
     <use style="stroke:#000000;" x="237.713055" xlink:href="#mfff3c4bca1" y="161.506902"/>
     <use style="stroke:#000000;" x="247.299905" xlink:href="#mfff3c4bca1" y="139.124691"/>
     <use style="stroke:#000000;" x="237.943817" xlink:href="#mfff3c4bca1" y="137.35614"/>
     <use style="stroke:#000000;" x="238.316405" xlink:href="#mfff3c4bca1" y="138.607256"/>
     <use style="stroke:#000000;" x="236.16" xlink:href="#mfff3c4bca1" y="174.506569"/>
     <use style="stroke:#000000;" x="236.16" xlink:href="#mfff3c4bca1" y="174.528"/>
     <use style="stroke:#000000;" x="236.16" xlink:href="#mfff3c4bca1" y="171.294578"/>
     <use style="stroke:#000000;" x="246.647556" xlink:href="#mfff3c4bca1" y="174.528"/>
     <use style="stroke:#000000;" x="240.792756" xlink:href="#mfff3c4bca1" y="173.755014"/>
     <use style="stroke:#000000;" x="236.16" xlink:href="#mfff3c4bca1" y="172.581001"/>
     <use style="stroke:#000000;" x="236.16" xlink:href="#mfff3c4bca1" y="139.449484"/>
     <use style="stroke:#000000;" x="236.16" xlink:href="#mfff3c4bca1" y="144.396892"/>
     <use style="stroke:#000000;" x="236.16" xlink:href="#mfff3c4bca1" y="141.836418"/>
     <use style="stroke:#000000;" x="323.107966" xlink:href="#mfff3c4bca1" y="143.351065"/>
     <use style="stroke:#000000;" x="325.44" xlink:href="#mfff3c4bca1" y="135.186541"/>
     <use style="stroke:#000000;" x="325.44" xlink:href="#mfff3c4bca1" y="139.870495"/>
     <use style="stroke:#000000;" x="256.305252" xlink:href="#mfff3c4bca1" y="174.528"/>
     <use style="stroke:#000000;" x="255.223476" xlink:href="#mfff3c4bca1" y="174.528"/>
     <use style="stroke:#000000;" x="257.150413" xlink:href="#mfff3c4bca1" y="174.528"/>
     <use style="stroke:#000000;" x="248.0155" xlink:href="#mfff3c4bca1" y="139.769649"/>
     <use style="stroke:#000000;" x="236.726852" xlink:href="#mfff3c4bca1" y="134.6112"/>
     <use style="stroke:#000000;" x="236.16" xlink:href="#mfff3c4bca1" y="134.6112"/>
     <use style="stroke:#000000;" x="238.339577" xlink:href="#mfff3c4bca1" y="174.528"/>
     <use style="stroke:#000000;" x="236.16" xlink:href="#mfff3c4bca1" y="173.365232"/>
     <use style="stroke:#000000;" x="242.813684" xlink:href="#mfff3c4bca1" y="174.528"/>
     <use style="stroke:#000000;" x="236.16" xlink:href="#mfff3c4bca1" y="165.974344"/>
     <use style="stroke:#000000;" x="236.16" xlink:href="#mfff3c4bca1" y="167.568312"/>
     <use style="stroke:#000000;" x="236.16" xlink:href="#mfff3c4bca1" y="165.546316"/>
     <use style="stroke:#000000;" x="260.659516" xlink:href="#mfff3c4bca1" y="174.528"/>
     <use style="stroke:#000000;" x="243.727644" xlink:href="#mfff3c4bca1" y="147.710652"/>
     <use style="stroke:#000000;" x="239.263085" xlink:href="#mfff3c4bca1" y="147.295272"/>
     <use style="stroke:#000000;" x="236.16" xlink:href="#mfff3c4bca1" y="147.841803"/>
     <use style="stroke:#000000;" x="237.20777" xlink:href="#mfff3c4bca1" y="147.148958"/>
     <use style="stroke:#000000;" x="236.16" xlink:href="#mfff3c4bca1" y="150.55016"/>
     <use style="stroke:#000000;" x="239.532433" xlink:href="#mfff3c4bca1" y="151.416649"/>
     <use style="stroke:#000000;" x="236.16" xlink:href="#mfff3c4bca1" y="151.215558"/>
     <use style="stroke:#000000;" x="240.349669" xlink:href="#mfff3c4bca1" y="148.606773"/>
     <use style="stroke:#000000;" x="236.16" xlink:href="#mfff3c4bca1" y="151.317856"/>
     <use style="stroke:#000000;" x="236.16" xlink:href="#mfff3c4bca1" y="172.519807"/>
     <use style="stroke:#000000;" x="250.850987" xlink:href="#mfff3c4bca1" y="169.451728"/>
     <use style="stroke:#000000;" x="236.16" xlink:href="#mfff3c4bca1" y="174.528"/>
     <use style="stroke:#000000;" x="325.44" xlink:href="#mfff3c4bca1" y="138.679302"/>
     <use style="stroke:#000000;" x="322.700311" xlink:href="#mfff3c4bca1" y="139.286267"/>
     <use style="stroke:#000000;" x="322.659212" xlink:href="#mfff3c4bca1" y="145.017504"/>
     <use style="stroke:#000000;" x="236.16" xlink:href="#mfff3c4bca1" y="140.542013"/>
     <use style="stroke:#000000;" x="237.363266" xlink:href="#mfff3c4bca1" y="147.764759"/>
     <use style="stroke:#000000;" x="238.497785" xlink:href="#mfff3c4bca1" y="147.965898"/>
     <use style="stroke:#000000;" x="236.16" xlink:href="#mfff3c4bca1" y="154.250077"/>
     <use style="stroke:#000000;" x="236.16" xlink:href="#mfff3c4bca1" y="145.456096"/>
     <use style="stroke:#000000;" x="236.359874" xlink:href="#mfff3c4bca1" y="148.684301"/>
     <use style="stroke:#000000;" x="241.681037" xlink:href="#mfff3c4bca1" y="144.697608"/>
     <use style="stroke:#000000;" x="236.16" xlink:href="#mfff3c4bca1" y="144.321438"/>
     <use style="stroke:#000000;" x="239.784813" xlink:href="#mfff3c4bca1" y="146.82559"/>
     <use style="stroke:#000000;" x="248.824145" xlink:href="#mfff3c4bca1" y="137.942214"/>
     <use style="stroke:#000000;" x="246.53214" xlink:href="#mfff3c4bca1" y="143.940114"/>
     <use style="stroke:#000000;" x="236.16" xlink:href="#mfff3c4bca1" y="144.535557"/>
     <use style="stroke:#000000;" x="325.44" xlink:href="#mfff3c4bca1" y="142.38185"/>
     <use style="stroke:#000000;" x="322.491876" xlink:href="#mfff3c4bca1" y="144.283249"/>
     <use style="stroke:#000000;" x="325.44" xlink:href="#mfff3c4bca1" y="145.081468"/>
     <use style="stroke:#000000;" x="315.843092" xlink:href="#mfff3c4bca1" y="173.30708"/>
     <use style="stroke:#000000;" x="317.558653" xlink:href="#mfff3c4bca1" y="171.490633"/>
     <use style="stroke:#000000;" x="324.211645" xlink:href="#mfff3c4bca1" y="174.528"/>
     <use style="stroke:#000000;" x="278.172898" xlink:href="#mfff3c4bca1" y="174.528"/>
     <use style="stroke:#000000;" x="281.897338" xlink:href="#mfff3c4bca1" y="173.302397"/>
     <use style="stroke:#000000;" x="295.172249" xlink:href="#mfff3c4bca1" y="171.092831"/>
     <use style="stroke:#000000;" x="238.720779" xlink:href="#mfff3c4bca1" y="134.6112"/>
     <use style="stroke:#000000;" x="236.16" xlink:href="#mfff3c4bca1" y="138.770812"/>
     <use style="stroke:#000000;" x="236.16" xlink:href="#mfff3c4bca1" y="140.237226"/>
     <use style="stroke:#000000;" x="248.146741" xlink:href="#mfff3c4bca1" y="174.528"/>
     <use style="stroke:#000000;" x="277.106441" xlink:href="#mfff3c4bca1" y="174.528"/>
     <use style="stroke:#000000;" x="236.16" xlink:href="#mfff3c4bca1" y="134.6112"/>
     <use style="stroke:#000000;" x="236.16" xlink:href="#mfff3c4bca1" y="136.010103"/>
     <use style="stroke:#000000;" x="236.16" xlink:href="#mfff3c4bca1" y="143.574288"/>
     <use style="stroke:#000000;" x="236.16" xlink:href="#mfff3c4bca1" y="142.868045"/>
     <use style="stroke:#000000;" x="252.749095" xlink:href="#mfff3c4bca1" y="174.528"/>
     <use style="stroke:#000000;" x="248.972388" xlink:href="#mfff3c4bca1" y="174.528"/>
     <use style="stroke:#000000;" x="241.074765" xlink:href="#mfff3c4bca1" y="174.354986"/>
     <use style="stroke:#000000;" x="243.614216" xlink:href="#mfff3c4bca1" y="174.528"/>
     <use style="stroke:#000000;" x="236.16" xlink:href="#mfff3c4bca1" y="164.600607"/>
     <use style="stroke:#000000;" x="236.16" xlink:href="#mfff3c4bca1" y="168.797438"/>
     <use style="stroke:#000000;" x="247.939686" xlink:href="#mfff3c4bca1" y="174.528"/>
     <use style="stroke:#000000;" x="255.154738" xlink:href="#mfff3c4bca1" y="166.940109"/>
     <use style="stroke:#000000;" x="250.386636" xlink:href="#mfff3c4bca1" y="140.876452"/>
     <use style="stroke:#000000;" x="236.16" xlink:href="#mfff3c4bca1" y="161.808182"/>
     <use style="stroke:#000000;" x="236.16" xlink:href="#mfff3c4bca1" y="154.737468"/>
     <use style="stroke:#000000;" x="236.16" xlink:href="#mfff3c4bca1" y="144.401156"/>
     <use style="stroke:#000000;" x="257.175681" xlink:href="#mfff3c4bca1" y="174.528"/>
     <use style="stroke:#000000;" x="262.894961" xlink:href="#mfff3c4bca1" y="172.415372"/>
     <use style="stroke:#000000;" x="307.196485" xlink:href="#mfff3c4bca1" y="172.86225"/>
     <use style="stroke:#000000;" x="305.24682" xlink:href="#mfff3c4bca1" y="169.203425"/>
     <use style="stroke:#000000;" x="277.235231" xlink:href="#mfff3c4bca1" y="174.528"/>
     <use style="stroke:#000000;" x="254.535288" xlink:href="#mfff3c4bca1" y="174.528"/>
     <use style="stroke:#000000;" x="236.16" xlink:href="#mfff3c4bca1" y="137.729518"/>
     <use style="stroke:#000000;" x="239.122541" xlink:href="#mfff3c4bca1" y="134.6112"/>
     <use style="stroke:#000000;" x="320.756775" xlink:href="#mfff3c4bca1" y="143.555049"/>
     <use style="stroke:#000000;" x="269.845503" xlink:href="#mfff3c4bca1" y="174.528"/>
     <use style="stroke:#000000;" x="271.274744" xlink:href="#mfff3c4bca1" y="174.528"/>
     <use style="stroke:#000000;" x="236.16" xlink:href="#mfff3c4bca1" y="153.484521"/>
     <use style="stroke:#000000;" x="237.440782" xlink:href="#mfff3c4bca1" y="157.583329"/>
     <use style="stroke:#000000;" x="325.44" xlink:href="#mfff3c4bca1" y="148.713916"/>
     <use style="stroke:#000000;" x="325.44" xlink:href="#mfff3c4bca1" y="139.629987"/>
     <use style="stroke:#000000;" x="236.16" xlink:href="#mfff3c4bca1" y="134.680407"/>
     <use style="stroke:#000000;" x="238.642545" xlink:href="#mfff3c4bca1" y="134.6112"/>
     <use style="stroke:#000000;" x="236.284663" xlink:href="#mfff3c4bca1" y="150.549126"/>
     <use style="stroke:#000000;" x="236.16" xlink:href="#mfff3c4bca1" y="150.686898"/>
     <use style="stroke:#000000;" x="251.885149" xlink:href="#mfff3c4bca1" y="174.528"/>
     <use style="stroke:#000000;" x="236.16" xlink:href="#mfff3c4bca1" y="172.699456"/>
     <use style="stroke:#000000;" x="321.365081" xlink:href="#mfff3c4bca1" y="147.801235"/>
     <use style="stroke:#000000;" x="325.44" xlink:href="#mfff3c4bca1" y="148.16547"/>
     <use style="stroke:#000000;" x="319.377443" xlink:href="#mfff3c4bca1" y="156.148057"/>
     <use style="stroke:#000000;" x="325.44" xlink:href="#mfff3c4bca1" y="152.685143"/>
     <use style="stroke:#000000;" x="236.16" xlink:href="#mfff3c4bca1" y="135.307047"/>
     <use style="stroke:#000000;" x="236.16" xlink:href="#mfff3c4bca1" y="135.14856"/>
     <use style="stroke:#000000;" x="325.44" xlink:href="#mfff3c4bca1" y="137.239876"/>
     <use style="stroke:#000000;" x="325.44" xlink:href="#mfff3c4bca1" y="134.6112"/>
     <use style="stroke:#000000;" x="236.16" xlink:href="#mfff3c4bca1" y="134.775496"/>
     <use style="stroke:#000000;" x="236.16" xlink:href="#mfff3c4bca1" y="145.165567"/>
     <use style="stroke:#000000;" x="237.098026" xlink:href="#mfff3c4bca1" y="151.058187"/>
     <use style="stroke:#000000;" x="242.882302" xlink:href="#mfff3c4bca1" y="137.692658"/>
     <use style="stroke:#000000;" x="236.16" xlink:href="#mfff3c4bca1" y="135.067886"/>
     <use style="stroke:#000000;" x="242.745703" xlink:href="#mfff3c4bca1" y="158.96036"/>
     <use style="stroke:#000000;" x="236.16" xlink:href="#mfff3c4bca1" y="163.084964"/>
     <use style="stroke:#000000;" x="325.44" xlink:href="#mfff3c4bca1" y="171.533768"/>
     <use style="stroke:#000000;" x="325.44" xlink:href="#mfff3c4bca1" y="170.073671"/>
     <use style="stroke:#000000;" x="236.16" xlink:href="#mfff3c4bca1" y="162.968792"/>
     <use style="stroke:#000000;" x="246.181774" xlink:href="#mfff3c4bca1" y="165.517065"/>
     <use style="stroke:#000000;" x="236.16" xlink:href="#mfff3c4bca1" y="167.762081"/>
     <use style="stroke:#000000;" x="238.858142" xlink:href="#mfff3c4bca1" y="154.493823"/>
     <use style="stroke:#000000;" x="236.16" xlink:href="#mfff3c4bca1" y="174.528"/>
     <use style="stroke:#000000;" x="250.695526" xlink:href="#mfff3c4bca1" y="140.926359"/>
     <use style="stroke:#000000;" x="236.16" xlink:href="#mfff3c4bca1" y="136.586696"/>
     <use style="stroke:#000000;" x="245.821095" xlink:href="#mfff3c4bca1" y="149.695995"/>
     <use style="stroke:#000000;" x="269.172551" xlink:href="#mfff3c4bca1" y="174.528"/>
     <use style="stroke:#000000;" x="236.16" xlink:href="#mfff3c4bca1" y="144.523079"/>
     <use style="stroke:#000000;" x="239.606591" xlink:href="#mfff3c4bca1" y="172.890628"/>
     <use style="stroke:#000000;" x="322.134387" xlink:href="#mfff3c4bca1" y="172.90021"/>
     <use style="stroke:#000000;" x="237.327081" xlink:href="#mfff3c4bca1" y="173.607058"/>
     <use style="stroke:#000000;" x="266.128943" xlink:href="#mfff3c4bca1" y="170.34245"/>
     <use style="stroke:#000000;" x="239.27215" xlink:href="#mfff3c4bca1" y="134.6112"/>
     <use style="stroke:#000000;" x="237.467161" xlink:href="#mfff3c4bca1" y="135.897356"/>
     <use style="stroke:#000000;" x="236.799824" xlink:href="#mfff3c4bca1" y="168.767829"/>
     <use style="stroke:#000000;" x="236.16" xlink:href="#mfff3c4bca1" y="163.545375"/>
    </g>
   </g>
   <g id="PathCollection_2">
    <defs>
     <path d="M 0 0.935414 
C 0.248075 0.935414 0.486022 0.836853 0.661438 0.661438 
C 0.836853 0.486022 0.935414 0.248075 0.935414 0 
C 0.935414 -0.248075 0.836853 -0.486022 0.661438 -0.661438 
C 0.486022 -0.836853 0.248075 -0.935414 0 -0.935414 
C -0.248075 -0.935414 -0.486022 -0.836853 -0.661438 -0.661438 
C -0.836853 -0.486022 -0.935414 -0.248075 -0.935414 0 
C -0.935414 0.248075 -0.836853 0.486022 -0.661438 0.661438 
C -0.486022 0.836853 -0.248075 0.935414 0 0.935414 
z
" id="me51e57194c" style="stroke:#0000ff;"/>
    </defs>
    <g clip-path="url(#p0556309233)">
     <use style="fill:#0000ff;stroke:#0000ff;" x="236.16" xlink:href="#me51e57194c" y="136.436626"/>
     <use style="fill:#0000ff;stroke:#0000ff;" x="315.516792" xlink:href="#me51e57194c" y="174.528"/>
     <use style="fill:#0000ff;stroke:#0000ff;" x="273.306726" xlink:href="#me51e57194c" y="174.528"/>
     <use style="fill:#0000ff;stroke:#0000ff;" x="236.16" xlink:href="#me51e57194c" y="148.138036"/>
     <use style="fill:#0000ff;stroke:#0000ff;" x="245.442316" xlink:href="#me51e57194c" y="174.528"/>
     <use style="fill:#0000ff;stroke:#0000ff;" x="236.16" xlink:href="#me51e57194c" y="134.6112"/>
     <use style="fill:#0000ff;stroke:#0000ff;" x="236.16" xlink:href="#me51e57194c" y="159.526667"/>
     <use style="fill:#0000ff;stroke:#0000ff;" x="236.16" xlink:href="#me51e57194c" y="134.6112"/>
     <use style="fill:#0000ff;stroke:#0000ff;" x="236.16" xlink:href="#me51e57194c" y="172.561163"/>
     <use style="fill:#0000ff;stroke:#0000ff;" x="236.16" xlink:href="#me51e57194c" y="174.528"/>
     <use style="fill:#0000ff;stroke:#0000ff;" x="236.16" xlink:href="#me51e57194c" y="141.058225"/>
     <use style="fill:#0000ff;stroke:#0000ff;" x="325.44" xlink:href="#me51e57194c" y="142.175733"/>
     <use style="fill:#0000ff;stroke:#0000ff;" x="255.019646" xlink:href="#me51e57194c" y="174.528"/>
     <use style="fill:#0000ff;stroke:#0000ff;" x="236.16" xlink:href="#me51e57194c" y="134.6112"/>
     <use style="fill:#0000ff;stroke:#0000ff;" x="240.106143" xlink:href="#me51e57194c" y="174.528"/>
     <use style="fill:#0000ff;stroke:#0000ff;" x="236.16" xlink:href="#me51e57194c" y="163.723797"/>
     <use style="fill:#0000ff;stroke:#0000ff;" x="236.16" xlink:href="#me51e57194c" y="174.528"/>
     <use style="fill:#0000ff;stroke:#0000ff;" x="236.16" xlink:href="#me51e57194c" y="147.806594"/>
     <use style="fill:#0000ff;stroke:#0000ff;" x="236.16" xlink:href="#me51e57194c" y="147.955218"/>
     <use style="fill:#0000ff;stroke:#0000ff;" x="236.16" xlink:href="#me51e57194c" y="150.313401"/>
     <use style="fill:#0000ff;stroke:#0000ff;" x="236.16" xlink:href="#me51e57194c" y="170.072867"/>
     <use style="fill:#0000ff;stroke:#0000ff;" x="325.44" xlink:href="#me51e57194c" y="140.736768"/>
     <use style="fill:#0000ff;stroke:#0000ff;" x="236.16" xlink:href="#me51e57194c" y="145.034124"/>
     <use style="fill:#0000ff;stroke:#0000ff;" x="236.16" xlink:href="#me51e57194c" y="150.935124"/>
     <use style="fill:#0000ff;stroke:#0000ff;" x="236.16" xlink:href="#me51e57194c" y="143.975966"/>
     <use style="fill:#0000ff;stroke:#0000ff;" x="236.16" xlink:href="#me51e57194c" y="142.435865"/>
     <use style="fill:#0000ff;stroke:#0000ff;" x="325.44" xlink:href="#me51e57194c" y="143.998845"/>
     <use style="fill:#0000ff;stroke:#0000ff;" x="321.885286" xlink:href="#me51e57194c" y="174.528"/>
     <use style="fill:#0000ff;stroke:#0000ff;" x="286.367574" xlink:href="#me51e57194c" y="174.528"/>
     <use style="fill:#0000ff;stroke:#0000ff;" x="236.16" xlink:href="#me51e57194c" y="134.6112"/>
     <use style="fill:#0000ff;stroke:#0000ff;" x="236.16" xlink:href="#me51e57194c" y="140.500013"/>
     <use style="fill:#0000ff;stroke:#0000ff;" x="244.494359" xlink:href="#me51e57194c" y="174.528"/>
     <use style="fill:#0000ff;stroke:#0000ff;" x="256.911715" xlink:href="#me51e57194c" y="174.528"/>
     <use style="fill:#0000ff;stroke:#0000ff;" x="236.16" xlink:href="#me51e57194c" y="139.295179"/>
     <use style="fill:#0000ff;stroke:#0000ff;" x="236.16" xlink:href="#me51e57194c" y="134.6112"/>
     <use style="fill:#0000ff;stroke:#0000ff;" x="236.16" xlink:href="#me51e57194c" y="145.286898"/>
     <use style="fill:#0000ff;stroke:#0000ff;" x="247.553536" xlink:href="#me51e57194c" y="174.528"/>
     <use style="fill:#0000ff;stroke:#0000ff;" x="238.269591" xlink:href="#me51e57194c" y="174.528"/>
     <use style="fill:#0000ff;stroke:#0000ff;" x="236.16" xlink:href="#me51e57194c" y="169.062096"/>
     <use style="fill:#0000ff;stroke:#0000ff;" x="256.302461" xlink:href="#me51e57194c" y="174.528"/>
     <use style="fill:#0000ff;stroke:#0000ff;" x="236.16" xlink:href="#me51e57194c" y="139.620616"/>
     <use style="fill:#0000ff;stroke:#0000ff;" x="236.16" xlink:href="#me51e57194c" y="159.709076"/>
     <use style="fill:#0000ff;stroke:#0000ff;" x="236.16" xlink:href="#me51e57194c" y="134.6112"/>
     <use style="fill:#0000ff;stroke:#0000ff;" x="265.10093" xlink:href="#me51e57194c" y="174.528"/>
     <use style="fill:#0000ff;stroke:#0000ff;" x="304.775217" xlink:href="#me51e57194c" y="174.528"/>
     <use style="fill:#0000ff;stroke:#0000ff;" x="252.23494" xlink:href="#me51e57194c" y="174.528"/>
     <use style="fill:#0000ff;stroke:#0000ff;" x="236.16" xlink:href="#me51e57194c" y="174.528"/>
     <use style="fill:#0000ff;stroke:#0000ff;" x="236.16" xlink:href="#me51e57194c" y="134.6112"/>
     <use style="fill:#0000ff;stroke:#0000ff;" x="325.44" xlink:href="#me51e57194c" y="151.625093"/>
     <use style="fill:#0000ff;stroke:#0000ff;" x="265.870376" xlink:href="#me51e57194c" y="174.528"/>
     <use style="fill:#0000ff;stroke:#0000ff;" x="236.16" xlink:href="#me51e57194c" y="153.535214"/>
     <use style="fill:#0000ff;stroke:#0000ff;" x="325.44" xlink:href="#me51e57194c" y="146.311296"/>
     <use style="fill:#0000ff;stroke:#0000ff;" x="236.16" xlink:href="#me51e57194c" y="134.6112"/>
     <use style="fill:#0000ff;stroke:#0000ff;" x="236.16" xlink:href="#me51e57194c" y="150.620073"/>
     <use style="fill:#0000ff;stroke:#0000ff;" x="236.16" xlink:href="#me51e57194c" y="174.528"/>
     <use style="fill:#0000ff;stroke:#0000ff;" x="325.44" xlink:href="#me51e57194c" y="142.504809"/>
     <use style="fill:#0000ff;stroke:#0000ff;" x="325.44" xlink:href="#me51e57194c" y="153.300602"/>
     <use style="fill:#0000ff;stroke:#0000ff;" x="236.16" xlink:href="#me51e57194c" y="134.6112"/>
     <use style="fill:#0000ff;stroke:#0000ff;" x="325.44" xlink:href="#me51e57194c" y="134.6112"/>
     <use style="fill:#0000ff;stroke:#0000ff;" x="236.16" xlink:href="#me51e57194c" y="137.128196"/>
     <use style="fill:#0000ff;stroke:#0000ff;" x="236.16" xlink:href="#me51e57194c" y="150.493043"/>
     <use style="fill:#0000ff;stroke:#0000ff;" x="236.16" xlink:href="#me51e57194c" y="135.242911"/>
     <use style="fill:#0000ff;stroke:#0000ff;" x="236.16" xlink:href="#me51e57194c" y="157.429171"/>
     <use style="fill:#0000ff;stroke:#0000ff;" x="322.645909" xlink:href="#me51e57194c" y="174.528"/>
     <use style="fill:#0000ff;stroke:#0000ff;" x="236.16" xlink:href="#me51e57194c" y="165.22391"/>
     <use style="fill:#0000ff;stroke:#0000ff;" x="236.16" xlink:href="#me51e57194c" y="163.427654"/>
     <use style="fill:#0000ff;stroke:#0000ff;" x="236.16" xlink:href="#me51e57194c" y="159.103443"/>
     <use style="fill:#0000ff;stroke:#0000ff;" x="236.16" xlink:href="#me51e57194c" y="174.528"/>
     <use style="fill:#0000ff;stroke:#0000ff;" x="236.16" xlink:href="#me51e57194c" y="136.093523"/>
     <use style="fill:#0000ff;stroke:#0000ff;" x="236.16" xlink:href="#me51e57194c" y="155.714807"/>
     <use style="fill:#0000ff;stroke:#0000ff;" x="254.388395" xlink:href="#me51e57194c" y="174.528"/>
     <use style="fill:#0000ff;stroke:#0000ff;" x="236.16" xlink:href="#me51e57194c" y="147.88033"/>
     <use style="fill:#0000ff;stroke:#0000ff;" x="236.16" xlink:href="#me51e57194c" y="168.614063"/>
     <use style="fill:#0000ff;stroke:#0000ff;" x="325.44" xlink:href="#me51e57194c" y="171.318227"/>
     <use style="fill:#0000ff;stroke:#0000ff;" x="236.697296" xlink:href="#me51e57194c" y="174.528"/>
     <use style="fill:#0000ff;stroke:#0000ff;" x="246.694464" xlink:href="#me51e57194c" y="174.528"/>
     <use style="fill:#0000ff;stroke:#0000ff;" x="236.16" xlink:href="#me51e57194c" y="134.745072"/>
     <use style="fill:#0000ff;stroke:#0000ff;" x="236.16" xlink:href="#me51e57194c" y="136.70124"/>
     <use style="fill:#0000ff;stroke:#0000ff;" x="236.16" xlink:href="#me51e57194c" y="172.161989"/>
     <use style="fill:#0000ff;stroke:#0000ff;" x="236.16" xlink:href="#me51e57194c" y="168.014591"/>
    </g>
   </g>
   <g id="matplotlib.axis_1">
    <g id="xtick_1">
     <g id="line2d_1">
      <defs>
       <path d="M 0 0 
L 0 3.5 
" id="me609d15c24" style="stroke:#000000;stroke-width:0.8;"/>
      </defs>
      <g>
       <use style="stroke:#000000;stroke-width:0.8;" x="57.6" xlink:href="#me609d15c24" y="307.584"/>
      </g>
     </g>
     <g id="text_1">
      <!-- −10.0 -->
      <defs>
       <path d="M 10.59375 35.5 
L 73.1875 35.5 
L 73.1875 27.203125 
L 10.59375 27.203125 
z
" id="DejaVuSans-2212"/>
       <path d="M 12.40625 8.296875 
L 28.515625 8.296875 
L 28.515625 63.921875 
L 10.984375 60.40625 
L 10.984375 69.390625 
L 28.421875 72.90625 
L 38.28125 72.90625 
L 38.28125 8.296875 
L 54.390625 8.296875 
L 54.390625 0 
L 12.40625 0 
z
" id="DejaVuSans-31"/>
       <path d="M 31.78125 66.40625 
Q 24.171875 66.40625 20.328125 58.90625 
Q 16.5 51.421875 16.5 36.375 
Q 16.5 21.390625 20.328125 13.890625 
Q 24.171875 6.390625 31.78125 6.390625 
Q 39.453125 6.390625 43.28125 13.890625 
Q 47.125 21.390625 47.125 36.375 
Q 47.125 51.421875 43.28125 58.90625 
Q 39.453125 66.40625 31.78125 66.40625 
z
M 31.78125 74.21875 
Q 44.046875 74.21875 50.515625 64.515625 
Q 56.984375 54.828125 56.984375 36.375 
Q 56.984375 17.96875 50.515625 8.265625 
Q 44.046875 -1.421875 31.78125 -1.421875 
Q 19.53125 -1.421875 13.0625 8.265625 
Q 6.59375 17.96875 6.59375 36.375 
Q 6.59375 54.828125 13.0625 64.515625 
Q 19.53125 74.21875 31.78125 74.21875 
z
" id="DejaVuSans-30"/>
       <path d="M 10.6875 12.40625 
L 21 12.40625 
L 21 0 
L 10.6875 0 
z
" id="DejaVuSans-2e"/>
      </defs>
      <g transform="translate(42.277344 322.182437)scale(0.1 -0.1)">
       <use xlink:href="#DejaVuSans-2212"/>
       <use x="83.789062" xlink:href="#DejaVuSans-31"/>
       <use x="147.412109" xlink:href="#DejaVuSans-30"/>
       <use x="211.035156" xlink:href="#DejaVuSans-2e"/>
       <use x="242.822266" xlink:href="#DejaVuSans-30"/>
      </g>
     </g>
    </g>
    <g id="xtick_2">
     <g id="line2d_2">
      <g>
       <use style="stroke:#000000;stroke-width:0.8;" x="102.24" xlink:href="#me609d15c24" y="307.584"/>
      </g>
     </g>
     <g id="text_2">
      <!-- −7.5 -->
      <defs>
       <path d="M 8.203125 72.90625 
L 55.078125 72.90625 
L 55.078125 68.703125 
L 28.609375 0 
L 18.3125 0 
L 43.21875 64.59375 
L 8.203125 64.59375 
z
" id="DejaVuSans-37"/>
       <path d="M 10.796875 72.90625 
L 49.515625 72.90625 
L 49.515625 64.59375 
L 19.828125 64.59375 
L 19.828125 46.734375 
Q 21.96875 47.46875 24.109375 47.828125 
Q 26.265625 48.1875 28.421875 48.1875 
Q 40.625 48.1875 47.75 41.5 
Q 54.890625 34.8125 54.890625 23.390625 
Q 54.890625 11.625 47.5625 5.09375 
Q 40.234375 -1.421875 26.90625 -1.421875 
Q 22.3125 -1.421875 17.546875 -0.640625 
Q 12.796875 0.140625 7.71875 1.703125 
L 7.71875 11.625 
Q 12.109375 9.234375 16.796875 8.0625 
Q 21.484375 6.890625 26.703125 6.890625 
Q 35.15625 6.890625 40.078125 11.328125 
Q 45.015625 15.765625 45.015625 23.390625 
Q 45.015625 31 40.078125 35.4375 
Q 35.15625 39.890625 26.703125 39.890625 
Q 22.75 39.890625 18.8125 39.015625 
Q 14.890625 38.140625 10.796875 36.28125 
z
" id="DejaVuSans-35"/>
      </defs>
      <g transform="translate(90.098594 322.182437)scale(0.1 -0.1)">
       <use xlink:href="#DejaVuSans-2212"/>
       <use x="83.789062" xlink:href="#DejaVuSans-37"/>
       <use x="147.412109" xlink:href="#DejaVuSans-2e"/>
       <use x="179.199219" xlink:href="#DejaVuSans-35"/>
      </g>
     </g>
    </g>
    <g id="xtick_3">
     <g id="line2d_3">
      <g>
       <use style="stroke:#000000;stroke-width:0.8;" x="146.88" xlink:href="#me609d15c24" y="307.584"/>
      </g>
     </g>
     <g id="text_3">
      <!-- −5.0 -->
      <g transform="translate(134.738594 322.182437)scale(0.1 -0.1)">
       <use xlink:href="#DejaVuSans-2212"/>
       <use x="83.789062" xlink:href="#DejaVuSans-35"/>
       <use x="147.412109" xlink:href="#DejaVuSans-2e"/>
       <use x="179.199219" xlink:href="#DejaVuSans-30"/>
      </g>
     </g>
    </g>
    <g id="xtick_4">
     <g id="line2d_4">
      <g>
       <use style="stroke:#000000;stroke-width:0.8;" x="191.52" xlink:href="#me609d15c24" y="307.584"/>
      </g>
     </g>
     <g id="text_4">
      <!-- −2.5 -->
      <defs>
       <path d="M 19.1875 8.296875 
L 53.609375 8.296875 
L 53.609375 0 
L 7.328125 0 
L 7.328125 8.296875 
Q 12.9375 14.109375 22.625 23.890625 
Q 32.328125 33.6875 34.8125 36.53125 
Q 39.546875 41.84375 41.421875 45.53125 
Q 43.3125 49.21875 43.3125 52.78125 
Q 43.3125 58.59375 39.234375 62.25 
Q 35.15625 65.921875 28.609375 65.921875 
Q 23.96875 65.921875 18.8125 64.3125 
Q 13.671875 62.703125 7.8125 59.421875 
L 7.8125 69.390625 
Q 13.765625 71.78125 18.9375 73 
Q 24.125 74.21875 28.421875 74.21875 
Q 39.75 74.21875 46.484375 68.546875 
Q 53.21875 62.890625 53.21875 53.421875 
Q 53.21875 48.921875 51.53125 44.890625 
Q 49.859375 40.875 45.40625 35.40625 
Q 44.1875 33.984375 37.640625 27.21875 
Q 31.109375 20.453125 19.1875 8.296875 
z
" id="DejaVuSans-32"/>
      </defs>
      <g transform="translate(179.378594 322.182437)scale(0.1 -0.1)">
       <use xlink:href="#DejaVuSans-2212"/>
       <use x="83.789062" xlink:href="#DejaVuSans-32"/>
       <use x="147.412109" xlink:href="#DejaVuSans-2e"/>
       <use x="179.199219" xlink:href="#DejaVuSans-35"/>
      </g>
     </g>
    </g>
    <g id="xtick_5">
     <g id="line2d_5">
      <g>
       <use style="stroke:#000000;stroke-width:0.8;" x="236.16" xlink:href="#me609d15c24" y="307.584"/>
      </g>
     </g>
     <g id="text_5">
      <!-- 0.0 -->
      <g transform="translate(228.208438 322.182437)scale(0.1 -0.1)">
       <use xlink:href="#DejaVuSans-30"/>
       <use x="63.623047" xlink:href="#DejaVuSans-2e"/>
       <use x="95.410156" xlink:href="#DejaVuSans-30"/>
      </g>
     </g>
    </g>
    <g id="xtick_6">
     <g id="line2d_6">
      <g>
       <use style="stroke:#000000;stroke-width:0.8;" x="280.8" xlink:href="#me609d15c24" y="307.584"/>
      </g>
     </g>
     <g id="text_6">
      <!-- 2.5 -->
      <g transform="translate(272.848437 322.182437)scale(0.1 -0.1)">
       <use xlink:href="#DejaVuSans-32"/>
       <use x="63.623047" xlink:href="#DejaVuSans-2e"/>
       <use x="95.410156" xlink:href="#DejaVuSans-35"/>
      </g>
     </g>
    </g>
    <g id="xtick_7">
     <g id="line2d_7">
      <g>
       <use style="stroke:#000000;stroke-width:0.8;" x="325.44" xlink:href="#me609d15c24" y="307.584"/>
      </g>
     </g>
     <g id="text_7">
      <!-- 5.0 -->
      <g transform="translate(317.488437 322.182437)scale(0.1 -0.1)">
       <use xlink:href="#DejaVuSans-35"/>
       <use x="63.623047" xlink:href="#DejaVuSans-2e"/>
       <use x="95.410156" xlink:href="#DejaVuSans-30"/>
      </g>
     </g>
    </g>
    <g id="xtick_8">
     <g id="line2d_8">
      <g>
       <use style="stroke:#000000;stroke-width:0.8;" x="370.08" xlink:href="#me609d15c24" y="307.584"/>
      </g>
     </g>
     <g id="text_8">
      <!-- 7.5 -->
      <g transform="translate(362.128438 322.182437)scale(0.1 -0.1)">
       <use xlink:href="#DejaVuSans-37"/>
       <use x="63.623047" xlink:href="#DejaVuSans-2e"/>
       <use x="95.410156" xlink:href="#DejaVuSans-35"/>
      </g>
     </g>
    </g>
    <g id="xtick_9">
     <g id="line2d_9">
      <g>
       <use style="stroke:#000000;stroke-width:0.8;" x="414.72" xlink:href="#me609d15c24" y="307.584"/>
      </g>
     </g>
     <g id="text_9">
      <!-- 10.0 -->
      <g transform="translate(403.587188 322.182437)scale(0.1 -0.1)">
       <use xlink:href="#DejaVuSans-31"/>
       <use x="63.623047" xlink:href="#DejaVuSans-30"/>
       <use x="127.246094" xlink:href="#DejaVuSans-2e"/>
       <use x="159.033203" xlink:href="#DejaVuSans-30"/>
      </g>
     </g>
    </g>
   </g>
   <g id="matplotlib.axis_2">
    <g id="ytick_1">
     <g id="line2d_10">
      <defs>
       <path d="M 0 0 
L -3.5 0 
" id="m817e1cc24a" style="stroke:#000000;stroke-width:0.8;"/>
      </defs>
      <g>
       <use style="stroke:#000000;stroke-width:0.8;" x="57.6" xlink:href="#m817e1cc24a" y="307.584"/>
      </g>
     </g>
     <g id="text_10">
      <!-- −10.0 -->
      <g transform="translate(19.954687 311.383219)scale(0.1 -0.1)">
       <use xlink:href="#DejaVuSans-2212"/>
       <use x="83.789062" xlink:href="#DejaVuSans-31"/>
       <use x="147.412109" xlink:href="#DejaVuSans-30"/>
       <use x="211.035156" xlink:href="#DejaVuSans-2e"/>
       <use x="242.822266" xlink:href="#DejaVuSans-30"/>
      </g>
     </g>
    </g>
    <g id="ytick_2">
     <g id="line2d_11">
      <g>
       <use style="stroke:#000000;stroke-width:0.8;" x="57.6" xlink:href="#m817e1cc24a" y="274.32"/>
      </g>
     </g>
     <g id="text_11">
      <!-- −7.5 -->
      <g transform="translate(26.317187 278.119219)scale(0.1 -0.1)">
       <use xlink:href="#DejaVuSans-2212"/>
       <use x="83.789062" xlink:href="#DejaVuSans-37"/>
       <use x="147.412109" xlink:href="#DejaVuSans-2e"/>
       <use x="179.199219" xlink:href="#DejaVuSans-35"/>
      </g>
     </g>
    </g>
    <g id="ytick_3">
     <g id="line2d_12">
      <g>
       <use style="stroke:#000000;stroke-width:0.8;" x="57.6" xlink:href="#m817e1cc24a" y="241.056"/>
      </g>
     </g>
     <g id="text_12">
      <!-- −5.0 -->
      <g transform="translate(26.317187 244.855219)scale(0.1 -0.1)">
       <use xlink:href="#DejaVuSans-2212"/>
       <use x="83.789062" xlink:href="#DejaVuSans-35"/>
       <use x="147.412109" xlink:href="#DejaVuSans-2e"/>
       <use x="179.199219" xlink:href="#DejaVuSans-30"/>
      </g>
     </g>
    </g>
    <g id="ytick_4">
     <g id="line2d_13">
      <g>
       <use style="stroke:#000000;stroke-width:0.8;" x="57.6" xlink:href="#m817e1cc24a" y="207.792"/>
      </g>
     </g>
     <g id="text_13">
      <!-- −2.5 -->
      <g transform="translate(26.317187 211.591219)scale(0.1 -0.1)">
       <use xlink:href="#DejaVuSans-2212"/>
       <use x="83.789062" xlink:href="#DejaVuSans-32"/>
       <use x="147.412109" xlink:href="#DejaVuSans-2e"/>
       <use x="179.199219" xlink:href="#DejaVuSans-35"/>
      </g>
     </g>
    </g>
    <g id="ytick_5">
     <g id="line2d_14">
      <g>
       <use style="stroke:#000000;stroke-width:0.8;" x="57.6" xlink:href="#m817e1cc24a" y="174.528"/>
      </g>
     </g>
     <g id="text_14">
      <!-- 0.0 -->
      <g transform="translate(34.696875 178.327219)scale(0.1 -0.1)">
       <use xlink:href="#DejaVuSans-30"/>
       <use x="63.623047" xlink:href="#DejaVuSans-2e"/>
       <use x="95.410156" xlink:href="#DejaVuSans-30"/>
      </g>
     </g>
    </g>
    <g id="ytick_6">
     <g id="line2d_15">
      <g>
       <use style="stroke:#000000;stroke-width:0.8;" x="57.6" xlink:href="#m817e1cc24a" y="141.264"/>
      </g>
     </g>
     <g id="text_15">
      <!-- 2.5 -->
      <g transform="translate(34.696875 145.063219)scale(0.1 -0.1)">
       <use xlink:href="#DejaVuSans-32"/>
       <use x="63.623047" xlink:href="#DejaVuSans-2e"/>
       <use x="95.410156" xlink:href="#DejaVuSans-35"/>
      </g>
     </g>
    </g>
    <g id="ytick_7">
     <g id="line2d_16">
      <g>
       <use style="stroke:#000000;stroke-width:0.8;" x="57.6" xlink:href="#m817e1cc24a" y="108"/>
      </g>
     </g>
     <g id="text_16">
      <!-- 5.0 -->
      <g transform="translate(34.696875 111.799219)scale(0.1 -0.1)">
       <use xlink:href="#DejaVuSans-35"/>
       <use x="63.623047" xlink:href="#DejaVuSans-2e"/>
       <use x="95.410156" xlink:href="#DejaVuSans-30"/>
      </g>
     </g>
    </g>
    <g id="ytick_8">
     <g id="line2d_17">
      <g>
       <use style="stroke:#000000;stroke-width:0.8;" x="57.6" xlink:href="#m817e1cc24a" y="74.736"/>
      </g>
     </g>
     <g id="text_17">
      <!-- 7.5 -->
      <g transform="translate(34.696875 78.535219)scale(0.1 -0.1)">
       <use xlink:href="#DejaVuSans-37"/>
       <use x="63.623047" xlink:href="#DejaVuSans-2e"/>
       <use x="95.410156" xlink:href="#DejaVuSans-35"/>
      </g>
     </g>
    </g>
    <g id="ytick_9">
     <g id="line2d_18">
      <g>
       <use style="stroke:#000000;stroke-width:0.8;" x="57.6" xlink:href="#m817e1cc24a" y="41.472"/>
      </g>
     </g>
     <g id="text_18">
      <!-- 10.0 -->
      <g transform="translate(28.334375 45.271219)scale(0.1 -0.1)">
       <use xlink:href="#DejaVuSans-31"/>
       <use x="63.623047" xlink:href="#DejaVuSans-30"/>
       <use x="127.246094" xlink:href="#DejaVuSans-2e"/>
       <use x="159.033203" xlink:href="#DejaVuSans-30"/>
      </g>
     </g>
    </g>
   </g>
   <g id="patch_3">
    <path d="M 57.6 307.584 
L 57.6 41.472 
" style="fill:none;stroke:#000000;stroke-linecap:square;stroke-linejoin:miter;stroke-width:0.8;"/>
   </g>
   <g id="patch_4">
    <path d="M 414.72 307.584 
L 414.72 41.472 
" style="fill:none;stroke:#000000;stroke-linecap:square;stroke-linejoin:miter;stroke-width:0.8;"/>
   </g>
   <g id="patch_5">
    <path d="M 57.6 307.584 
L 414.72 307.584 
" style="fill:none;stroke:#000000;stroke-linecap:square;stroke-linejoin:miter;stroke-width:0.8;"/>
   </g>
   <g id="patch_6">
    <path d="M 57.6 41.472 
L 414.72 41.472 
" style="fill:none;stroke:#000000;stroke-linecap:square;stroke-linejoin:miter;stroke-width:0.8;"/>
   </g>
  </g>
 </g>
 <defs>
  <clipPath id="p0556309233">
   <rect height="266.112" width="357.12" x="57.6" y="41.472"/>
  </clipPath>
 </defs>
</svg>
