<?xml version="1.0" encoding="utf-8" standalone="no"?>
<!DOCTYPE svg PUBLIC "-//W3C//DTD SVG 1.1//EN"
  "http://www.w3.org/Graphics/SVG/1.1/DTD/svg11.dtd">
<!-- Created with matplotlib (http://matplotlib.org/) -->
<svg height="345.6pt" version="1.1" viewBox="0 0 460.8 345.6" width="460.8pt" xmlns="http://www.w3.org/2000/svg" xmlns:xlink="http://www.w3.org/1999/xlink">
 <defs>
  <style type="text/css">
*{stroke-linecap:butt;stroke-linejoin:round;}
  </style>
 </defs>
 <g id="figure_1">
  <g id="patch_1">
   <path d="M 0 345.6 
L 460.8 345.6 
L 460.8 0 
L 0 0 
z
" style="fill:#ffffff;"/>
  </g>
  <g id="axes_1">
   <g id="patch_2">
    <path d="M 57.6 307.584 
L 414.72 307.584 
L 414.72 41.472 
L 57.6 41.472 
z
" style="fill:#ffffff;"/>
   </g>
   <g id="PathCollection_1">
    <defs>
     <path d="M 0 0.612372 
C 0.162403 0.612372 0.318176 0.547849 0.433013 0.433013 
C 0.547849 0.318176 0.612372 0.162403 0.612372 0 
C 0.612372 -0.162403 0.547849 -0.318176 0.433013 -0.433013 
C 0.318176 -0.547849 0.162403 -0.612372 0 -0.612372 
C -0.162403 -0.612372 -0.318176 -0.547849 -0.433013 -0.433013 
C -0.547849 -0.318176 -0.612372 -0.162403 -0.612372 0 
C -0.612372 0.162403 -0.547849 0.318176 -0.433013 0.433013 
C -0.318176 0.547849 -0.162403 0.612372 0 0.612372 
z
" id="m7b9903773e" style="stroke:#000000;"/>
    </defs>
    <g clip-path="url(#p53116ae367)">
     <use style="stroke:#000000;" x="236.16" xlink:href="#m7b9903773e" y="163.545375"/>
     <use style="stroke:#000000;" x="236.16" xlink:href="#m7b9903773e" y="136.436626"/>
     <use style="stroke:#000000;" x="315.516792" xlink:href="#m7b9903773e" y="174.528"/>
     <use style="stroke:#000000;" x="273.306726" xlink:href="#m7b9903773e" y="174.528"/>
     <use style="stroke:#000000;" x="236.16" xlink:href="#m7b9903773e" y="148.138036"/>
     <use style="stroke:#000000;" x="245.442316" xlink:href="#m7b9903773e" y="174.528"/>
     <use style="stroke:#000000;" x="236.16" xlink:href="#m7b9903773e" y="134.6112"/>
     <use style="stroke:#000000;" x="236.16" xlink:href="#m7b9903773e" y="159.526667"/>
     <use style="stroke:#000000;" x="236.16" xlink:href="#m7b9903773e" y="134.6112"/>
     <use style="stroke:#000000;" x="236.16" xlink:href="#m7b9903773e" y="172.561163"/>
     <use style="stroke:#000000;" x="236.16" xlink:href="#m7b9903773e" y="174.528"/>
     <use style="stroke:#000000;" x="236.16" xlink:href="#m7b9903773e" y="141.058225"/>
     <use style="stroke:#000000;" x="325.44" xlink:href="#m7b9903773e" y="142.175733"/>
     <use style="stroke:#000000;" x="255.019646" xlink:href="#m7b9903773e" y="174.528"/>
     <use style="stroke:#000000;" x="236.16" xlink:href="#m7b9903773e" y="134.6112"/>
     <use style="stroke:#000000;" x="240.106143" xlink:href="#m7b9903773e" y="174.528"/>
     <use style="stroke:#000000;" x="236.16" xlink:href="#m7b9903773e" y="163.723797"/>
     <use style="stroke:#000000;" x="236.16" xlink:href="#m7b9903773e" y="174.528"/>
     <use style="stroke:#000000;" x="236.16" xlink:href="#m7b9903773e" y="147.806594"/>
     <use style="stroke:#000000;" x="236.16" xlink:href="#m7b9903773e" y="147.955218"/>
     <use style="stroke:#000000;" x="236.16" xlink:href="#m7b9903773e" y="150.313401"/>
     <use style="stroke:#000000;" x="236.16" xlink:href="#m7b9903773e" y="170.072867"/>
     <use style="stroke:#000000;" x="325.44" xlink:href="#m7b9903773e" y="140.736768"/>
     <use style="stroke:#000000;" x="236.16" xlink:href="#m7b9903773e" y="145.034124"/>
     <use style="stroke:#000000;" x="236.16" xlink:href="#m7b9903773e" y="150.935124"/>
     <use style="stroke:#000000;" x="236.16" xlink:href="#m7b9903773e" y="143.975966"/>
     <use style="stroke:#000000;" x="236.16" xlink:href="#m7b9903773e" y="142.435865"/>
     <use style="stroke:#000000;" x="325.44" xlink:href="#m7b9903773e" y="143.998845"/>
     <use style="stroke:#000000;" x="321.885286" xlink:href="#m7b9903773e" y="174.528"/>
     <use style="stroke:#000000;" x="286.367574" xlink:href="#m7b9903773e" y="174.528"/>
     <use style="stroke:#000000;" x="236.16" xlink:href="#m7b9903773e" y="134.6112"/>
     <use style="stroke:#000000;" x="236.16" xlink:href="#m7b9903773e" y="140.500013"/>
     <use style="stroke:#000000;" x="239.27215" xlink:href="#m7b9903773e" y="134.6112"/>
     <use style="stroke:#000000;" x="236.16" xlink:href="#m7b9903773e" y="144.523079"/>
     <use style="stroke:#000000;" x="244.494359" xlink:href="#m7b9903773e" y="174.528"/>
     <use style="stroke:#000000;" x="236.16" xlink:href="#m7b9903773e" y="139.295179"/>
     <use style="stroke:#000000;" x="256.911715" xlink:href="#m7b9903773e" y="174.528"/>
     <use style="stroke:#000000;" x="236.16" xlink:href="#m7b9903773e" y="134.6112"/>
     <use style="stroke:#000000;" x="269.172551" xlink:href="#m7b9903773e" y="174.528"/>
     <use style="stroke:#000000;" x="236.16" xlink:href="#m7b9903773e" y="145.286898"/>
     <use style="stroke:#000000;" x="252.23494" xlink:href="#m7b9903773e" y="174.528"/>
     <use style="stroke:#000000;" x="236.16" xlink:href="#m7b9903773e" y="174.528"/>
     <use style="stroke:#000000;" x="325.44" xlink:href="#m7b9903773e" y="151.625093"/>
     <use style="stroke:#000000;" x="304.775217" xlink:href="#m7b9903773e" y="174.528"/>
     <use style="stroke:#000000;" x="236.16" xlink:href="#m7b9903773e" y="134.6112"/>
     <use style="stroke:#000000;" x="265.10093" xlink:href="#m7b9903773e" y="174.528"/>
     <use style="stroke:#000000;" x="236.16" xlink:href="#m7b9903773e" y="134.6112"/>
     <use style="stroke:#000000;" x="236.16" xlink:href="#m7b9903773e" y="153.535214"/>
     <use style="stroke:#000000;" x="236.16" xlink:href="#m7b9903773e" y="134.6112"/>
     <use style="stroke:#000000;" x="265.870376" xlink:href="#m7b9903773e" y="174.528"/>
     <use style="stroke:#000000;" x="236.16" xlink:href="#m7b9903773e" y="159.709076"/>
     <use style="stroke:#000000;" x="325.44" xlink:href="#m7b9903773e" y="146.311296"/>
     <use style="stroke:#000000;" x="247.553536" xlink:href="#m7b9903773e" y="174.528"/>
     <use style="stroke:#000000;" x="236.16" xlink:href="#m7b9903773e" y="139.620616"/>
     <use style="stroke:#000000;" x="256.302461" xlink:href="#m7b9903773e" y="174.528"/>
     <use style="stroke:#000000;" x="236.16" xlink:href="#m7b9903773e" y="169.062096"/>
     <use style="stroke:#000000;" x="238.269591" xlink:href="#m7b9903773e" y="174.528"/>
     <use style="stroke:#000000;" x="236.16" xlink:href="#m7b9903773e" y="136.586696"/>
     <use style="stroke:#000000;" x="236.16" xlink:href="#m7b9903773e" y="174.528"/>
     <use style="stroke:#000000;" x="236.16" xlink:href="#m7b9903773e" y="150.620073"/>
     <use style="stroke:#000000;" x="236.16" xlink:href="#m7b9903773e" y="174.528"/>
     <use style="stroke:#000000;" x="325.44" xlink:href="#m7b9903773e" y="142.504809"/>
     <use style="stroke:#000000;" x="325.44" xlink:href="#m7b9903773e" y="153.300602"/>
     <use style="stroke:#000000;" x="236.16" xlink:href="#m7b9903773e" y="167.762081"/>
     <use style="stroke:#000000;" x="236.16" xlink:href="#m7b9903773e" y="134.6112"/>
     <use style="stroke:#000000;" x="236.16" xlink:href="#m7b9903773e" y="162.968792"/>
     <use style="stroke:#000000;" x="325.44" xlink:href="#m7b9903773e" y="170.073671"/>
     <use style="stroke:#000000;" x="236.16" xlink:href="#m7b9903773e" y="163.084964"/>
     <use style="stroke:#000000;" x="325.44" xlink:href="#m7b9903773e" y="171.533768"/>
     <use style="stroke:#000000;" x="325.44" xlink:href="#m7b9903773e" y="134.6112"/>
     <use style="stroke:#000000;" x="236.16" xlink:href="#m7b9903773e" y="137.128196"/>
     <use style="stroke:#000000;" x="236.16" xlink:href="#m7b9903773e" y="135.067886"/>
     <use style="stroke:#000000;" x="236.16" xlink:href="#m7b9903773e" y="150.493043"/>
     <use style="stroke:#000000;" x="236.16" xlink:href="#m7b9903773e" y="145.165567"/>
     <use style="stroke:#000000;" x="236.16" xlink:href="#m7b9903773e" y="135.242911"/>
     <use style="stroke:#000000;" x="236.16" xlink:href="#m7b9903773e" y="134.775496"/>
     <use style="stroke:#000000;" x="236.16" xlink:href="#m7b9903773e" y="157.429171"/>
     <use style="stroke:#000000;" x="325.44" xlink:href="#m7b9903773e" y="134.6112"/>
     <use style="stroke:#000000;" x="322.645909" xlink:href="#m7b9903773e" y="174.528"/>
     <use style="stroke:#000000;" x="236.16" xlink:href="#m7b9903773e" y="163.427654"/>
     <use style="stroke:#000000;" x="236.370876" xlink:href="#m7b9903773e" y="166.026716"/>
     <use style="stroke:#000000;" x="236.16" xlink:href="#m7b9903773e" y="134.6112"/>
     <use style="stroke:#000000;" x="240.7517" xlink:href="#m7b9903773e" y="138.247092"/>
     <use style="stroke:#000000;" x="242.398904" xlink:href="#m7b9903773e" y="135.121215"/>
     <use style="stroke:#000000;" x="236.16" xlink:href="#m7b9903773e" y="135.056929"/>
     <use style="stroke:#000000;" x="325.44" xlink:href="#m7b9903773e" y="172.489133"/>
     <use style="stroke:#000000;" x="311.715888" xlink:href="#m7b9903773e" y="174.528"/>
     <use style="stroke:#000000;" x="308.230462" xlink:href="#m7b9903773e" y="174.528"/>
     <use style="stroke:#000000;" x="272.588952" xlink:href="#m7b9903773e" y="173.919341"/>
     <use style="stroke:#000000;" x="268.400483" xlink:href="#m7b9903773e" y="174.439779"/>
     <use style="stroke:#000000;" x="275.45445" xlink:href="#m7b9903773e" y="170.51313"/>
     <use style="stroke:#000000;" x="236.16" xlink:href="#m7b9903773e" y="150.825594"/>
     <use style="stroke:#000000;" x="245.681726" xlink:href="#m7b9903773e" y="145.684074"/>
     <use style="stroke:#000000;" x="237.146584" xlink:href="#m7b9903773e" y="151.742359"/>
     <use style="stroke:#000000;" x="242.950525" xlink:href="#m7b9903773e" y="172.853536"/>
     <use style="stroke:#000000;" x="236.16" xlink:href="#m7b9903773e" y="174.528"/>
     <use style="stroke:#000000;" x="248.838477" xlink:href="#m7b9903773e" y="174.528"/>
     <use style="stroke:#000000;" x="240.287959" xlink:href="#m7b9903773e" y="136.331773"/>
     <use style="stroke:#000000;" x="236.16" xlink:href="#m7b9903773e" y="134.6112"/>
     <use style="stroke:#000000;" x="236.16" xlink:href="#m7b9903773e" y="134.6112"/>
     <use style="stroke:#000000;" x="236.16" xlink:href="#m7b9903773e" y="158.607339"/>
     <use style="stroke:#000000;" x="236.16" xlink:href="#m7b9903773e" y="164.759302"/>
     <use style="stroke:#000000;" x="236.16" xlink:href="#m7b9903773e" y="159.4901"/>
     <use style="stroke:#000000;" x="238.7416" xlink:href="#m7b9903773e" y="134.6112"/>
     <use style="stroke:#000000;" x="239.392488" xlink:href="#m7b9903773e" y="134.6112"/>
     <use style="stroke:#000000;" x="236.16" xlink:href="#m7b9903773e" y="134.6112"/>
     <use style="stroke:#000000;" x="247.356619" xlink:href="#m7b9903773e" y="172.919091"/>
     <use style="stroke:#000000;" x="246.092147" xlink:href="#m7b9903773e" y="173.138295"/>
     <use style="stroke:#000000;" x="236.16" xlink:href="#m7b9903773e" y="173.111369"/>
     <use style="stroke:#000000;" x="236.16" xlink:href="#m7b9903773e" y="174.528"/>
     <use style="stroke:#000000;" x="236.16" xlink:href="#m7b9903773e" y="174.157941"/>
     <use style="stroke:#000000;" x="236.16" xlink:href="#m7b9903773e" y="174.528"/>
     <use style="stroke:#000000;" x="236.16" xlink:href="#m7b9903773e" y="144.028681"/>
     <use style="stroke:#000000;" x="236.16" xlink:href="#m7b9903773e" y="140.52282"/>
     <use style="stroke:#000000;" x="236.16" xlink:href="#m7b9903773e" y="145.049071"/>
     <use style="stroke:#000000;" x="310.181952" xlink:href="#m7b9903773e" y="139.897986"/>
     <use style="stroke:#000000;" x="323.783057" xlink:href="#m7b9903773e" y="143.806245"/>
     <use style="stroke:#000000;" x="325.44" xlink:href="#m7b9903773e" y="143.595105"/>
     <use style="stroke:#000000;" x="256.042819" xlink:href="#m7b9903773e" y="174.528"/>
     <use style="stroke:#000000;" x="249.568494" xlink:href="#m7b9903773e" y="174.528"/>
     <use style="stroke:#000000;" x="265.96055" xlink:href="#m7b9903773e" y="174.528"/>
     <use style="stroke:#000000;" x="236.16" xlink:href="#m7b9903773e" y="136.985756"/>
     <use style="stroke:#000000;" x="238.667364" xlink:href="#m7b9903773e" y="138.048185"/>
     <use style="stroke:#000000;" x="237.69851" xlink:href="#m7b9903773e" y="135.329297"/>
     <use style="stroke:#000000;" x="240.156962" xlink:href="#m7b9903773e" y="173.98907"/>
     <use style="stroke:#000000;" x="239.833604" xlink:href="#m7b9903773e" y="174.528"/>
     <use style="stroke:#000000;" x="236.16" xlink:href="#m7b9903773e" y="173.227072"/>
     <use style="stroke:#000000;" x="236.16" xlink:href="#m7b9903773e" y="162.520074"/>
     <use style="stroke:#000000;" x="239.789565" xlink:href="#m7b9903773e" y="166.131741"/>
     <use style="stroke:#000000;" x="241.817466" xlink:href="#m7b9903773e" y="163.01474"/>
     <use style="stroke:#000000;" x="236.16" xlink:href="#m7b9903773e" y="174.528"/>
     <use style="stroke:#000000;" x="246.287933" xlink:href="#m7b9903773e" y="168.622994"/>
     <use style="stroke:#000000;" x="237.818621" xlink:href="#m7b9903773e" y="174.528"/>
     <use style="stroke:#000000;" x="236.16" xlink:href="#m7b9903773e" y="148.994389"/>
     <use style="stroke:#000000;" x="236.16" xlink:href="#m7b9903773e" y="149.325411"/>
     <use style="stroke:#000000;" x="236.16" xlink:href="#m7b9903773e" y="151.97655"/>
     <use style="stroke:#000000;" x="244.807568" xlink:href="#m7b9903773e" y="153.262788"/>
     <use style="stroke:#000000;" x="246.120081" xlink:href="#m7b9903773e" y="154.067681"/>
     <use style="stroke:#000000;" x="236.16" xlink:href="#m7b9903773e" y="147.09519"/>
     <use style="stroke:#000000;" x="236.16" xlink:href="#m7b9903773e" y="152.66627"/>
     <use style="stroke:#000000;" x="243.843626" xlink:href="#m7b9903773e" y="149.312119"/>
     <use style="stroke:#000000;" x="240.626084" xlink:href="#m7b9903773e" y="154.036843"/>
     <use style="stroke:#000000;" x="236.16" xlink:href="#m7b9903773e" y="165.638694"/>
     <use style="stroke:#000000;" x="251.519493" xlink:href="#m7b9903773e" y="173.869834"/>
     <use style="stroke:#000000;" x="236.16" xlink:href="#m7b9903773e" y="168.148695"/>
     <use style="stroke:#000000;" x="318.294376" xlink:href="#m7b9903773e" y="141.515348"/>
     <use style="stroke:#000000;" x="322.69772" xlink:href="#m7b9903773e" y="145.000862"/>
     <use style="stroke:#000000;" x="236.16" xlink:href="#m7b9903773e" y="144.287569"/>
     <use style="stroke:#000000;" x="236.16" xlink:href="#m7b9903773e" y="140.093175"/>
     <use style="stroke:#000000;" x="236.16" xlink:href="#m7b9903773e" y="144.719348"/>
     <use style="stroke:#000000;" x="239.030119" xlink:href="#m7b9903773e" y="153.954488"/>
     <use style="stroke:#000000;" x="239.615976" xlink:href="#m7b9903773e" y="151.252765"/>
     <use style="stroke:#000000;" x="241.753442" xlink:href="#m7b9903773e" y="159.036484"/>
     <use style="stroke:#000000;" x="240.517195" xlink:href="#m7b9903773e" y="142.257318"/>
     <use style="stroke:#000000;" x="236.16" xlink:href="#m7b9903773e" y="141.915096"/>
     <use style="stroke:#000000;" x="236.16" xlink:href="#m7b9903773e" y="141.895605"/>
     <use style="stroke:#000000;" x="236.16" xlink:href="#m7b9903773e" y="148.050661"/>
     <use style="stroke:#000000;" x="236.16" xlink:href="#m7b9903773e" y="148.343574"/>
     <use style="stroke:#000000;" x="320.332783" xlink:href="#m7b9903773e" y="140.755251"/>
     <use style="stroke:#000000;" x="325.44" xlink:href="#m7b9903773e" y="143.787248"/>
     <use style="stroke:#000000;" x="319.898465" xlink:href="#m7b9903773e" y="169.726049"/>
     <use style="stroke:#000000;" x="314.599393" xlink:href="#m7b9903773e" y="174.528"/>
     <use style="stroke:#000000;" x="318.565194" xlink:href="#m7b9903773e" y="173.645384"/>
     <use style="stroke:#000000;" x="293.340117" xlink:href="#m7b9903773e" y="172.56597"/>
     <use style="stroke:#000000;" x="298.024033" xlink:href="#m7b9903773e" y="171.614502"/>
     <use style="stroke:#000000;" x="236.16" xlink:href="#m7b9903773e" y="135.335918"/>
     <use style="stroke:#000000;" x="236.16" xlink:href="#m7b9903773e" y="143.584301"/>
     <use style="stroke:#000000;" x="236.16" xlink:href="#m7b9903773e" y="139.697866"/>
     <use style="stroke:#000000;" x="236.16" xlink:href="#m7b9903773e" y="139.240949"/>
     <use style="stroke:#000000;" x="243.716423" xlink:href="#m7b9903773e" y="134.6112"/>
     <use style="stroke:#000000;" x="236.16" xlink:href="#m7b9903773e" y="145.018944"/>
     <use style="stroke:#000000;" x="236.16" xlink:href="#m7b9903773e" y="146.441236"/>
     <use style="stroke:#000000;" x="237.355296" xlink:href="#m7b9903773e" y="138.47517"/>
     <use style="stroke:#000000;" x="253.365054" xlink:href="#m7b9903773e" y="174.528"/>
     <use style="stroke:#000000;" x="244.933685" xlink:href="#m7b9903773e" y="174.528"/>
     <use style="stroke:#000000;" x="236.16" xlink:href="#m7b9903773e" y="134.6112"/>
     <use style="stroke:#000000;" x="251.181136" xlink:href="#m7b9903773e" y="173.626379"/>
     <use style="stroke:#000000;" x="242.524463" xlink:href="#m7b9903773e" y="170.404633"/>
     <use style="stroke:#000000;" x="236.16" xlink:href="#m7b9903773e" y="139.62928"/>
     <use style="stroke:#000000;" x="283.715414" xlink:href="#m7b9903773e" y="174.528"/>
     <use style="stroke:#000000;" x="236.16" xlink:href="#m7b9903773e" y="143.015569"/>
     <use style="stroke:#000000;" x="247.053158" xlink:href="#m7b9903773e" y="173.06162"/>
     <use style="stroke:#000000;" x="236.16" xlink:href="#m7b9903773e" y="172.93438"/>
     <use style="stroke:#000000;" x="241.110237" xlink:href="#m7b9903773e" y="174.528"/>
     <use style="stroke:#000000;" x="317.648483" xlink:href="#m7b9903773e" y="149.154517"/>
     <use style="stroke:#000000;" x="325.44" xlink:href="#m7b9903773e" y="150.061474"/>
     <use style="stroke:#000000;" x="303.454605" xlink:href="#m7b9903773e" y="174.528"/>
     <use style="stroke:#000000;" x="289.313446" xlink:href="#m7b9903773e" y="173.16936"/>
     <use style="stroke:#000000;" x="238.979892" xlink:href="#m7b9903773e" y="141.227894"/>
     <use style="stroke:#000000;" x="267.77964" xlink:href="#m7b9903773e" y="169.771013"/>
     <use style="stroke:#000000;" x="236.16" xlink:href="#m7b9903773e" y="134.6112"/>
     <use style="stroke:#000000;" x="236.16" xlink:href="#m7b9903773e" y="139.160827"/>
     <use style="stroke:#000000;" x="242.063851" xlink:href="#m7b9903773e" y="153.197869"/>
     <use style="stroke:#000000;" x="236.16" xlink:href="#m7b9903773e" y="157.797684"/>
     <use style="stroke:#000000;" x="237.717864" xlink:href="#m7b9903773e" y="136.376613"/>
     <use style="stroke:#000000;" x="243.379593" xlink:href="#m7b9903773e" y="137.345013"/>
     <use style="stroke:#000000;" x="266.567521" xlink:href="#m7b9903773e" y="174.528"/>
     <use style="stroke:#000000;" x="268.442251" xlink:href="#m7b9903773e" y="171.906844"/>
     <use style="stroke:#000000;" x="236.16" xlink:href="#m7b9903773e" y="158.482362"/>
     <use style="stroke:#000000;" x="236.16" xlink:href="#m7b9903773e" y="160.71705"/>
     <use style="stroke:#000000;" x="316.754176" xlink:href="#m7b9903773e" y="144.273846"/>
     <use style="stroke:#000000;" x="241.734397" xlink:href="#m7b9903773e" y="174.528"/>
     <use style="stroke:#000000;" x="237.799849" xlink:href="#m7b9903773e" y="134.690068"/>
     <use style="stroke:#000000;" x="255.449627" xlink:href="#m7b9903773e" y="174.528"/>
     <use style="stroke:#000000;" x="249.152503" xlink:href="#m7b9903773e" y="170.153906"/>
     <use style="stroke:#000000;" x="238.502287" xlink:href="#m7b9903773e" y="173.992598"/>
     <use style="stroke:#000000;" x="237.605256" xlink:href="#m7b9903773e" y="174.276661"/>
     <use style="stroke:#000000;" x="250.522466" xlink:href="#m7b9903773e" y="174.528"/>
     <use style="stroke:#000000;" x="236.16" xlink:href="#m7b9903773e" y="134.6112"/>
     <use style="stroke:#000000;" x="247.555451" xlink:href="#m7b9903773e" y="134.6112"/>
     <use style="stroke:#000000;" x="236.16" xlink:href="#m7b9903773e" y="170.964373"/>
     <use style="stroke:#000000;" x="237.073488" xlink:href="#m7b9903773e" y="174.528"/>
     <use style="stroke:#000000;" x="238.368821" xlink:href="#m7b9903773e" y="152.400479"/>
     <use style="stroke:#000000;" x="248.088337" xlink:href="#m7b9903773e" y="151.391758"/>
     <use style="stroke:#000000;" x="236.16" xlink:href="#m7b9903773e" y="172.256703"/>
     <use style="stroke:#000000;" x="236.16" xlink:href="#m7b9903773e" y="174.528"/>
     <use style="stroke:#000000;" x="321.911813" xlink:href="#m7b9903773e" y="144.192743"/>
     <use style="stroke:#000000;" x="316.486944" xlink:href="#m7b9903773e" y="138.905264"/>
     <use style="stroke:#000000;" x="319.130576" xlink:href="#m7b9903773e" y="156.65572"/>
     <use style="stroke:#000000;" x="325.44" xlink:href="#m7b9903773e" y="148.891447"/>
     <use style="stroke:#000000;" x="236.16" xlink:href="#m7b9903773e" y="163.510208"/>
     <use style="stroke:#000000;" x="241.215972" xlink:href="#m7b9903773e" y="170.672678"/>
     <use style="stroke:#000000;" x="245.833497" xlink:href="#m7b9903773e" y="137.243576"/>
     <use style="stroke:#000000;" x="239.632156" xlink:href="#m7b9903773e" y="134.6112"/>
     <use style="stroke:#000000;" x="236.16" xlink:href="#m7b9903773e" y="161.808423"/>
     <use style="stroke:#000000;" x="242.812228" xlink:href="#m7b9903773e" y="161.759356"/>
     <use style="stroke:#000000;" x="325.44" xlink:href="#m7b9903773e" y="165.945049"/>
     <use style="stroke:#000000;" x="236.16" xlink:href="#m7b9903773e" y="164.790127"/>
     <use style="stroke:#000000;" x="236.16" xlink:href="#m7b9903773e" y="162.458115"/>
     <use style="stroke:#000000;" x="325.44" xlink:href="#m7b9903773e" y="174.528"/>
     <use style="stroke:#000000;" x="324.769466" xlink:href="#m7b9903773e" y="134.6112"/>
     <use style="stroke:#000000;" x="236.16" xlink:href="#m7b9903773e" y="139.279892"/>
     <use style="stroke:#000000;" x="236.16" xlink:href="#m7b9903773e" y="142.161031"/>
     <use style="stroke:#000000;" x="251.027216" xlink:href="#m7b9903773e" y="149.25073"/>
     <use style="stroke:#000000;" x="236.16" xlink:href="#m7b9903773e" y="146.406549"/>
     <use style="stroke:#000000;" x="236.16" xlink:href="#m7b9903773e" y="134.792475"/>
     <use style="stroke:#000000;" x="236.16" xlink:href="#m7b9903773e" y="138.162058"/>
     <use style="stroke:#000000;" x="236.16" xlink:href="#m7b9903773e" y="157.420745"/>
     <use style="stroke:#000000;" x="325.44" xlink:href="#m7b9903773e" y="137.333044"/>
     <use style="stroke:#000000;" x="316.064562" xlink:href="#m7b9903773e" y="173.238787"/>
     <use style="stroke:#000000;" x="240.000318" xlink:href="#m7b9903773e" y="159.331365"/>
    </g>
   </g>
   <g id="PathCollection_2">
    <defs>
     <path d="M 0 0.935414 
C 0.248075 0.935414 0.486022 0.836853 0.661438 0.661438 
C 0.836853 0.486022 0.935414 0.248075 0.935414 0 
C 0.935414 -0.248075 0.836853 -0.486022 0.661438 -0.661438 
C 0.486022 -0.836853 0.248075 -0.935414 0 -0.935414 
C -0.248075 -0.935414 -0.486022 -0.836853 -0.661438 -0.661438 
C -0.836853 -0.486022 -0.935414 -0.248075 -0.935414 0 
C -0.935414 0.248075 -0.836853 0.486022 -0.661438 0.661438 
C -0.486022 0.836853 -0.248075 0.935414 0 0.935414 
z
" id="m8e099d67da" style="stroke:#0000ff;"/>
    </defs>
    <g clip-path="url(#p53116ae367)">
     <use style="fill:#0000ff;stroke:#0000ff;" x="236.16" xlink:href="#m8e099d67da" y="163.545375"/>
     <use style="fill:#0000ff;stroke:#0000ff;" x="236.16" xlink:href="#m8e099d67da" y="136.436626"/>
     <use style="fill:#0000ff;stroke:#0000ff;" x="315.516792" xlink:href="#m8e099d67da" y="174.528"/>
     <use style="fill:#0000ff;stroke:#0000ff;" x="273.306726" xlink:href="#m8e099d67da" y="174.528"/>
     <use style="fill:#0000ff;stroke:#0000ff;" x="236.16" xlink:href="#m8e099d67da" y="148.138036"/>
     <use style="fill:#0000ff;stroke:#0000ff;" x="245.442316" xlink:href="#m8e099d67da" y="174.528"/>
     <use style="fill:#0000ff;stroke:#0000ff;" x="236.16" xlink:href="#m8e099d67da" y="134.6112"/>
     <use style="fill:#0000ff;stroke:#0000ff;" x="236.16" xlink:href="#m8e099d67da" y="159.526667"/>
     <use style="fill:#0000ff;stroke:#0000ff;" x="236.16" xlink:href="#m8e099d67da" y="134.6112"/>
     <use style="fill:#0000ff;stroke:#0000ff;" x="236.16" xlink:href="#m8e099d67da" y="172.561163"/>
     <use style="fill:#0000ff;stroke:#0000ff;" x="236.16" xlink:href="#m8e099d67da" y="174.528"/>
     <use style="fill:#0000ff;stroke:#0000ff;" x="236.16" xlink:href="#m8e099d67da" y="141.058225"/>
     <use style="fill:#0000ff;stroke:#0000ff;" x="325.44" xlink:href="#m8e099d67da" y="142.175733"/>
     <use style="fill:#0000ff;stroke:#0000ff;" x="255.019646" xlink:href="#m8e099d67da" y="174.528"/>
     <use style="fill:#0000ff;stroke:#0000ff;" x="236.16" xlink:href="#m8e099d67da" y="134.6112"/>
     <use style="fill:#0000ff;stroke:#0000ff;" x="240.106143" xlink:href="#m8e099d67da" y="174.528"/>
     <use style="fill:#0000ff;stroke:#0000ff;" x="236.16" xlink:href="#m8e099d67da" y="163.723797"/>
     <use style="fill:#0000ff;stroke:#0000ff;" x="236.16" xlink:href="#m8e099d67da" y="174.528"/>
     <use style="fill:#0000ff;stroke:#0000ff;" x="236.16" xlink:href="#m8e099d67da" y="147.806594"/>
     <use style="fill:#0000ff;stroke:#0000ff;" x="236.16" xlink:href="#m8e099d67da" y="147.955218"/>
     <use style="fill:#0000ff;stroke:#0000ff;" x="236.16" xlink:href="#m8e099d67da" y="150.313401"/>
     <use style="fill:#0000ff;stroke:#0000ff;" x="236.16" xlink:href="#m8e099d67da" y="170.072867"/>
     <use style="fill:#0000ff;stroke:#0000ff;" x="325.44" xlink:href="#m8e099d67da" y="140.736768"/>
     <use style="fill:#0000ff;stroke:#0000ff;" x="236.16" xlink:href="#m8e099d67da" y="145.034124"/>
     <use style="fill:#0000ff;stroke:#0000ff;" x="236.16" xlink:href="#m8e099d67da" y="150.935124"/>
     <use style="fill:#0000ff;stroke:#0000ff;" x="236.16" xlink:href="#m8e099d67da" y="143.975966"/>
     <use style="fill:#0000ff;stroke:#0000ff;" x="236.16" xlink:href="#m8e099d67da" y="142.435865"/>
     <use style="fill:#0000ff;stroke:#0000ff;" x="325.44" xlink:href="#m8e099d67da" y="143.998845"/>
     <use style="fill:#0000ff;stroke:#0000ff;" x="321.885286" xlink:href="#m8e099d67da" y="174.528"/>
     <use style="fill:#0000ff;stroke:#0000ff;" x="286.367574" xlink:href="#m8e099d67da" y="174.528"/>
     <use style="fill:#0000ff;stroke:#0000ff;" x="236.16" xlink:href="#m8e099d67da" y="134.6112"/>
     <use style="fill:#0000ff;stroke:#0000ff;" x="236.16" xlink:href="#m8e099d67da" y="140.500013"/>
     <use style="fill:#0000ff;stroke:#0000ff;" x="239.27215" xlink:href="#m8e099d67da" y="134.6112"/>
     <use style="fill:#0000ff;stroke:#0000ff;" x="236.16" xlink:href="#m8e099d67da" y="144.523079"/>
     <use style="fill:#0000ff;stroke:#0000ff;" x="244.494359" xlink:href="#m8e099d67da" y="174.528"/>
     <use style="fill:#0000ff;stroke:#0000ff;" x="236.16" xlink:href="#m8e099d67da" y="139.295179"/>
     <use style="fill:#0000ff;stroke:#0000ff;" x="256.911715" xlink:href="#m8e099d67da" y="174.528"/>
     <use style="fill:#0000ff;stroke:#0000ff;" x="236.16" xlink:href="#m8e099d67da" y="134.6112"/>
     <use style="fill:#0000ff;stroke:#0000ff;" x="269.172551" xlink:href="#m8e099d67da" y="174.528"/>
     <use style="fill:#0000ff;stroke:#0000ff;" x="236.16" xlink:href="#m8e099d67da" y="145.286898"/>
     <use style="fill:#0000ff;stroke:#0000ff;" x="252.23494" xlink:href="#m8e099d67da" y="174.528"/>
     <use style="fill:#0000ff;stroke:#0000ff;" x="236.16" xlink:href="#m8e099d67da" y="174.528"/>
     <use style="fill:#0000ff;stroke:#0000ff;" x="325.44" xlink:href="#m8e099d67da" y="151.625093"/>
     <use style="fill:#0000ff;stroke:#0000ff;" x="304.775217" xlink:href="#m8e099d67da" y="174.528"/>
     <use style="fill:#0000ff;stroke:#0000ff;" x="236.16" xlink:href="#m8e099d67da" y="134.6112"/>
     <use style="fill:#0000ff;stroke:#0000ff;" x="265.10093" xlink:href="#m8e099d67da" y="174.528"/>
     <use style="fill:#0000ff;stroke:#0000ff;" x="236.16" xlink:href="#m8e099d67da" y="134.6112"/>
     <use style="fill:#0000ff;stroke:#0000ff;" x="236.16" xlink:href="#m8e099d67da" y="153.535214"/>
     <use style="fill:#0000ff;stroke:#0000ff;" x="236.16" xlink:href="#m8e099d67da" y="134.6112"/>
     <use style="fill:#0000ff;stroke:#0000ff;" x="265.870376" xlink:href="#m8e099d67da" y="174.528"/>
     <use style="fill:#0000ff;stroke:#0000ff;" x="236.16" xlink:href="#m8e099d67da" y="159.709076"/>
     <use style="fill:#0000ff;stroke:#0000ff;" x="325.44" xlink:href="#m8e099d67da" y="146.311296"/>
     <use style="fill:#0000ff;stroke:#0000ff;" x="247.553536" xlink:href="#m8e099d67da" y="174.528"/>
     <use style="fill:#0000ff;stroke:#0000ff;" x="236.16" xlink:href="#m8e099d67da" y="139.620616"/>
     <use style="fill:#0000ff;stroke:#0000ff;" x="256.302461" xlink:href="#m8e099d67da" y="174.528"/>
     <use style="fill:#0000ff;stroke:#0000ff;" x="236.16" xlink:href="#m8e099d67da" y="169.062096"/>
     <use style="fill:#0000ff;stroke:#0000ff;" x="238.269591" xlink:href="#m8e099d67da" y="174.528"/>
     <use style="fill:#0000ff;stroke:#0000ff;" x="236.16" xlink:href="#m8e099d67da" y="136.586696"/>
     <use style="fill:#0000ff;stroke:#0000ff;" x="236.16" xlink:href="#m8e099d67da" y="174.528"/>
     <use style="fill:#0000ff;stroke:#0000ff;" x="236.16" xlink:href="#m8e099d67da" y="150.620073"/>
     <use style="fill:#0000ff;stroke:#0000ff;" x="236.16" xlink:href="#m8e099d67da" y="174.528"/>
     <use style="fill:#0000ff;stroke:#0000ff;" x="325.44" xlink:href="#m8e099d67da" y="142.504809"/>
     <use style="fill:#0000ff;stroke:#0000ff;" x="325.44" xlink:href="#m8e099d67da" y="153.300602"/>
     <use style="fill:#0000ff;stroke:#0000ff;" x="236.16" xlink:href="#m8e099d67da" y="167.762081"/>
     <use style="fill:#0000ff;stroke:#0000ff;" x="236.16" xlink:href="#m8e099d67da" y="134.6112"/>
     <use style="fill:#0000ff;stroke:#0000ff;" x="236.16" xlink:href="#m8e099d67da" y="162.968792"/>
     <use style="fill:#0000ff;stroke:#0000ff;" x="325.44" xlink:href="#m8e099d67da" y="170.073671"/>
     <use style="fill:#0000ff;stroke:#0000ff;" x="236.16" xlink:href="#m8e099d67da" y="163.084964"/>
     <use style="fill:#0000ff;stroke:#0000ff;" x="325.44" xlink:href="#m8e099d67da" y="171.533768"/>
     <use style="fill:#0000ff;stroke:#0000ff;" x="325.44" xlink:href="#m8e099d67da" y="134.6112"/>
     <use style="fill:#0000ff;stroke:#0000ff;" x="236.16" xlink:href="#m8e099d67da" y="137.128196"/>
     <use style="fill:#0000ff;stroke:#0000ff;" x="236.16" xlink:href="#m8e099d67da" y="135.067886"/>
     <use style="fill:#0000ff;stroke:#0000ff;" x="236.16" xlink:href="#m8e099d67da" y="150.493043"/>
     <use style="fill:#0000ff;stroke:#0000ff;" x="236.16" xlink:href="#m8e099d67da" y="145.165567"/>
     <use style="fill:#0000ff;stroke:#0000ff;" x="236.16" xlink:href="#m8e099d67da" y="135.242911"/>
     <use style="fill:#0000ff;stroke:#0000ff;" x="236.16" xlink:href="#m8e099d67da" y="134.775496"/>
     <use style="fill:#0000ff;stroke:#0000ff;" x="236.16" xlink:href="#m8e099d67da" y="157.429171"/>
     <use style="fill:#0000ff;stroke:#0000ff;" x="325.44" xlink:href="#m8e099d67da" y="134.6112"/>
     <use style="fill:#0000ff;stroke:#0000ff;" x="322.645909" xlink:href="#m8e099d67da" y="174.528"/>
     <use style="fill:#0000ff;stroke:#0000ff;" x="236.16" xlink:href="#m8e099d67da" y="163.427654"/>
    </g>
   </g>
   <g id="matplotlib.axis_1">
    <g id="xtick_1">
     <g id="line2d_1">
      <defs>
       <path d="M 0 0 
L 0 3.5 
" id="m83cebfd86d" style="stroke:#000000;stroke-width:0.8;"/>
      </defs>
      <g>
       <use style="stroke:#000000;stroke-width:0.8;" x="57.6" xlink:href="#m83cebfd86d" y="307.584"/>
      </g>
     </g>
     <g id="text_1">
      <!-- −10.0 -->
      <defs>
       <path d="M 10.59375 35.5 
L 73.1875 35.5 
L 73.1875 27.203125 
L 10.59375 27.203125 
z
" id="DejaVuSans-2212"/>
       <path d="M 12.40625 8.296875 
L 28.515625 8.296875 
L 28.515625 63.921875 
L 10.984375 60.40625 
L 10.984375 69.390625 
L 28.421875 72.90625 
L 38.28125 72.90625 
L 38.28125 8.296875 
L 54.390625 8.296875 
L 54.390625 0 
L 12.40625 0 
z
" id="DejaVuSans-31"/>
       <path d="M 31.78125 66.40625 
Q 24.171875 66.40625 20.328125 58.90625 
Q 16.5 51.421875 16.5 36.375 
Q 16.5 21.390625 20.328125 13.890625 
Q 24.171875 6.390625 31.78125 6.390625 
Q 39.453125 6.390625 43.28125 13.890625 
Q 47.125 21.390625 47.125 36.375 
Q 47.125 51.421875 43.28125 58.90625 
Q 39.453125 66.40625 31.78125 66.40625 
z
M 31.78125 74.21875 
Q 44.046875 74.21875 50.515625 64.515625 
Q 56.984375 54.828125 56.984375 36.375 
Q 56.984375 17.96875 50.515625 8.265625 
Q 44.046875 -1.421875 31.78125 -1.421875 
Q 19.53125 -1.421875 13.0625 8.265625 
Q 6.59375 17.96875 6.59375 36.375 
Q 6.59375 54.828125 13.0625 64.515625 
Q 19.53125 74.21875 31.78125 74.21875 
z
" id="DejaVuSans-30"/>
       <path d="M 10.6875 12.40625 
L 21 12.40625 
L 21 0 
L 10.6875 0 
z
" id="DejaVuSans-2e"/>
      </defs>
      <g transform="translate(42.277344 322.182437)scale(0.1 -0.1)">
       <use xlink:href="#DejaVuSans-2212"/>
       <use x="83.789062" xlink:href="#DejaVuSans-31"/>
       <use x="147.412109" xlink:href="#DejaVuSans-30"/>
       <use x="211.035156" xlink:href="#DejaVuSans-2e"/>
       <use x="242.822266" xlink:href="#DejaVuSans-30"/>
      </g>
     </g>
    </g>
    <g id="xtick_2">
     <g id="line2d_2">
      <g>
       <use style="stroke:#000000;stroke-width:0.8;" x="102.24" xlink:href="#m83cebfd86d" y="307.584"/>
      </g>
     </g>
     <g id="text_2">
      <!-- −7.5 -->
      <defs>
       <path d="M 8.203125 72.90625 
L 55.078125 72.90625 
L 55.078125 68.703125 
L 28.609375 0 
L 18.3125 0 
L 43.21875 64.59375 
L 8.203125 64.59375 
z
" id="DejaVuSans-37"/>
       <path d="M 10.796875 72.90625 
L 49.515625 72.90625 
L 49.515625 64.59375 
L 19.828125 64.59375 
L 19.828125 46.734375 
Q 21.96875 47.46875 24.109375 47.828125 
Q 26.265625 48.1875 28.421875 48.1875 
Q 40.625 48.1875 47.75 41.5 
Q 54.890625 34.8125 54.890625 23.390625 
Q 54.890625 11.625 47.5625 5.09375 
Q 40.234375 -1.421875 26.90625 -1.421875 
Q 22.3125 -1.421875 17.546875 -0.640625 
Q 12.796875 0.140625 7.71875 1.703125 
L 7.71875 11.625 
Q 12.109375 9.234375 16.796875 8.0625 
Q 21.484375 6.890625 26.703125 6.890625 
Q 35.15625 6.890625 40.078125 11.328125 
Q 45.015625 15.765625 45.015625 23.390625 
Q 45.015625 31 40.078125 35.4375 
Q 35.15625 39.890625 26.703125 39.890625 
Q 22.75 39.890625 18.8125 39.015625 
Q 14.890625 38.140625 10.796875 36.28125 
z
" id="DejaVuSans-35"/>
      </defs>
      <g transform="translate(90.098594 322.182437)scale(0.1 -0.1)">
       <use xlink:href="#DejaVuSans-2212"/>
       <use x="83.789062" xlink:href="#DejaVuSans-37"/>
       <use x="147.412109" xlink:href="#DejaVuSans-2e"/>
       <use x="179.199219" xlink:href="#DejaVuSans-35"/>
      </g>
     </g>
    </g>
    <g id="xtick_3">
     <g id="line2d_3">
      <g>
       <use style="stroke:#000000;stroke-width:0.8;" x="146.88" xlink:href="#m83cebfd86d" y="307.584"/>
      </g>
     </g>
     <g id="text_3">
      <!-- −5.0 -->
      <g transform="translate(134.738594 322.182437)scale(0.1 -0.1)">
       <use xlink:href="#DejaVuSans-2212"/>
       <use x="83.789062" xlink:href="#DejaVuSans-35"/>
       <use x="147.412109" xlink:href="#DejaVuSans-2e"/>
       <use x="179.199219" xlink:href="#DejaVuSans-30"/>
      </g>
     </g>
    </g>
    <g id="xtick_4">
     <g id="line2d_4">
      <g>
       <use style="stroke:#000000;stroke-width:0.8;" x="191.52" xlink:href="#m83cebfd86d" y="307.584"/>
      </g>
     </g>
     <g id="text_4">
      <!-- −2.5 -->
      <defs>
       <path d="M 19.1875 8.296875 
L 53.609375 8.296875 
L 53.609375 0 
L 7.328125 0 
L 7.328125 8.296875 
Q 12.9375 14.109375 22.625 23.890625 
Q 32.328125 33.6875 34.8125 36.53125 
Q 39.546875 41.84375 41.421875 45.53125 
Q 43.3125 49.21875 43.3125 52.78125 
Q 43.3125 58.59375 39.234375 62.25 
Q 35.15625 65.921875 28.609375 65.921875 
Q 23.96875 65.921875 18.8125 64.3125 
Q 13.671875 62.703125 7.8125 59.421875 
L 7.8125 69.390625 
Q 13.765625 71.78125 18.9375 73 
Q 24.125 74.21875 28.421875 74.21875 
Q 39.75 74.21875 46.484375 68.546875 
Q 53.21875 62.890625 53.21875 53.421875 
Q 53.21875 48.921875 51.53125 44.890625 
Q 49.859375 40.875 45.40625 35.40625 
Q 44.1875 33.984375 37.640625 27.21875 
Q 31.109375 20.453125 19.1875 8.296875 
z
" id="DejaVuSans-32"/>
      </defs>
      <g transform="translate(179.378594 322.182437)scale(0.1 -0.1)">
       <use xlink:href="#DejaVuSans-2212"/>
       <use x="83.789062" xlink:href="#DejaVuSans-32"/>
       <use x="147.412109" xlink:href="#DejaVuSans-2e"/>
       <use x="179.199219" xlink:href="#DejaVuSans-35"/>
      </g>
     </g>
    </g>
    <g id="xtick_5">
     <g id="line2d_5">
      <g>
       <use style="stroke:#000000;stroke-width:0.8;" x="236.16" xlink:href="#m83cebfd86d" y="307.584"/>
      </g>
     </g>
     <g id="text_5">
      <!-- 0.0 -->
      <g transform="translate(228.208438 322.182437)scale(0.1 -0.1)">
       <use xlink:href="#DejaVuSans-30"/>
       <use x="63.623047" xlink:href="#DejaVuSans-2e"/>
       <use x="95.410156" xlink:href="#DejaVuSans-30"/>
      </g>
     </g>
    </g>
    <g id="xtick_6">
     <g id="line2d_6">
      <g>
       <use style="stroke:#000000;stroke-width:0.8;" x="280.8" xlink:href="#m83cebfd86d" y="307.584"/>
      </g>
     </g>
     <g id="text_6">
      <!-- 2.5 -->
      <g transform="translate(272.848437 322.182437)scale(0.1 -0.1)">
       <use xlink:href="#DejaVuSans-32"/>
       <use x="63.623047" xlink:href="#DejaVuSans-2e"/>
       <use x="95.410156" xlink:href="#DejaVuSans-35"/>
      </g>
     </g>
    </g>
    <g id="xtick_7">
     <g id="line2d_7">
      <g>
       <use style="stroke:#000000;stroke-width:0.8;" x="325.44" xlink:href="#m83cebfd86d" y="307.584"/>
      </g>
     </g>
     <g id="text_7">
      <!-- 5.0 -->
      <g transform="translate(317.488437 322.182437)scale(0.1 -0.1)">
       <use xlink:href="#DejaVuSans-35"/>
       <use x="63.623047" xlink:href="#DejaVuSans-2e"/>
       <use x="95.410156" xlink:href="#DejaVuSans-30"/>
      </g>
     </g>
    </g>
    <g id="xtick_8">
     <g id="line2d_8">
      <g>
       <use style="stroke:#000000;stroke-width:0.8;" x="370.08" xlink:href="#m83cebfd86d" y="307.584"/>
      </g>
     </g>
     <g id="text_8">
      <!-- 7.5 -->
      <g transform="translate(362.128438 322.182437)scale(0.1 -0.1)">
       <use xlink:href="#DejaVuSans-37"/>
       <use x="63.623047" xlink:href="#DejaVuSans-2e"/>
       <use x="95.410156" xlink:href="#DejaVuSans-35"/>
      </g>
     </g>
    </g>
    <g id="xtick_9">
     <g id="line2d_9">
      <g>
       <use style="stroke:#000000;stroke-width:0.8;" x="414.72" xlink:href="#m83cebfd86d" y="307.584"/>
      </g>
     </g>
     <g id="text_9">
      <!-- 10.0 -->
      <g transform="translate(403.587188 322.182437)scale(0.1 -0.1)">
       <use xlink:href="#DejaVuSans-31"/>
       <use x="63.623047" xlink:href="#DejaVuSans-30"/>
       <use x="127.246094" xlink:href="#DejaVuSans-2e"/>
       <use x="159.033203" xlink:href="#DejaVuSans-30"/>
      </g>
     </g>
    </g>
   </g>
   <g id="matplotlib.axis_2">
    <g id="ytick_1">
     <g id="line2d_10">
      <defs>
       <path d="M 0 0 
L -3.5 0 
" id="mc816f362d6" style="stroke:#000000;stroke-width:0.8;"/>
      </defs>
      <g>
       <use style="stroke:#000000;stroke-width:0.8;" x="57.6" xlink:href="#mc816f362d6" y="307.584"/>
      </g>
     </g>
     <g id="text_10">
      <!-- −10.0 -->
      <g transform="translate(19.954687 311.383219)scale(0.1 -0.1)">
       <use xlink:href="#DejaVuSans-2212"/>
       <use x="83.789062" xlink:href="#DejaVuSans-31"/>
       <use x="147.412109" xlink:href="#DejaVuSans-30"/>
       <use x="211.035156" xlink:href="#DejaVuSans-2e"/>
       <use x="242.822266" xlink:href="#DejaVuSans-30"/>
      </g>
     </g>
    </g>
    <g id="ytick_2">
     <g id="line2d_11">
      <g>
       <use style="stroke:#000000;stroke-width:0.8;" x="57.6" xlink:href="#mc816f362d6" y="274.32"/>
      </g>
     </g>
     <g id="text_11">
      <!-- −7.5 -->
      <g transform="translate(26.317187 278.119219)scale(0.1 -0.1)">
       <use xlink:href="#DejaVuSans-2212"/>
       <use x="83.789062" xlink:href="#DejaVuSans-37"/>
       <use x="147.412109" xlink:href="#DejaVuSans-2e"/>
       <use x="179.199219" xlink:href="#DejaVuSans-35"/>
      </g>
     </g>
    </g>
    <g id="ytick_3">
     <g id="line2d_12">
      <g>
       <use style="stroke:#000000;stroke-width:0.8;" x="57.6" xlink:href="#mc816f362d6" y="241.056"/>
      </g>
     </g>
     <g id="text_12">
      <!-- −5.0 -->
      <g transform="translate(26.317187 244.855219)scale(0.1 -0.1)">
       <use xlink:href="#DejaVuSans-2212"/>
       <use x="83.789062" xlink:href="#DejaVuSans-35"/>
       <use x="147.412109" xlink:href="#DejaVuSans-2e"/>
       <use x="179.199219" xlink:href="#DejaVuSans-30"/>
      </g>
     </g>
    </g>
    <g id="ytick_4">
     <g id="line2d_13">
      <g>
       <use style="stroke:#000000;stroke-width:0.8;" x="57.6" xlink:href="#mc816f362d6" y="207.792"/>
      </g>
     </g>
     <g id="text_13">
      <!-- −2.5 -->
      <g transform="translate(26.317187 211.591219)scale(0.1 -0.1)">
       <use xlink:href="#DejaVuSans-2212"/>
       <use x="83.789062" xlink:href="#DejaVuSans-32"/>
       <use x="147.412109" xlink:href="#DejaVuSans-2e"/>
       <use x="179.199219" xlink:href="#DejaVuSans-35"/>
      </g>
     </g>
    </g>
    <g id="ytick_5">
     <g id="line2d_14">
      <g>
       <use style="stroke:#000000;stroke-width:0.8;" x="57.6" xlink:href="#mc816f362d6" y="174.528"/>
      </g>
     </g>
     <g id="text_14">
      <!-- 0.0 -->
      <g transform="translate(34.696875 178.327219)scale(0.1 -0.1)">
       <use xlink:href="#DejaVuSans-30"/>
       <use x="63.623047" xlink:href="#DejaVuSans-2e"/>
       <use x="95.410156" xlink:href="#DejaVuSans-30"/>
      </g>
     </g>
    </g>
    <g id="ytick_6">
     <g id="line2d_15">
      <g>
       <use style="stroke:#000000;stroke-width:0.8;" x="57.6" xlink:href="#mc816f362d6" y="141.264"/>
      </g>
     </g>
     <g id="text_15">
      <!-- 2.5 -->
      <g transform="translate(34.696875 145.063219)scale(0.1 -0.1)">
       <use xlink:href="#DejaVuSans-32"/>
       <use x="63.623047" xlink:href="#DejaVuSans-2e"/>
       <use x="95.410156" xlink:href="#DejaVuSans-35"/>
      </g>
     </g>
    </g>
    <g id="ytick_7">
     <g id="line2d_16">
      <g>
       <use style="stroke:#000000;stroke-width:0.8;" x="57.6" xlink:href="#mc816f362d6" y="108"/>
      </g>
     </g>
     <g id="text_16">
      <!-- 5.0 -->
      <g transform="translate(34.696875 111.799219)scale(0.1 -0.1)">
       <use xlink:href="#DejaVuSans-35"/>
       <use x="63.623047" xlink:href="#DejaVuSans-2e"/>
       <use x="95.410156" xlink:href="#DejaVuSans-30"/>
      </g>
     </g>
    </g>
    <g id="ytick_8">
     <g id="line2d_17">
      <g>
       <use style="stroke:#000000;stroke-width:0.8;" x="57.6" xlink:href="#mc816f362d6" y="74.736"/>
      </g>
     </g>
     <g id="text_17">
      <!-- 7.5 -->
      <g transform="translate(34.696875 78.535219)scale(0.1 -0.1)">
       <use xlink:href="#DejaVuSans-37"/>
       <use x="63.623047" xlink:href="#DejaVuSans-2e"/>
       <use x="95.410156" xlink:href="#DejaVuSans-35"/>
      </g>
     </g>
    </g>
    <g id="ytick_9">
     <g id="line2d_18">
      <g>
       <use style="stroke:#000000;stroke-width:0.8;" x="57.6" xlink:href="#mc816f362d6" y="41.472"/>
      </g>
     </g>
     <g id="text_18">
      <!-- 10.0 -->
      <g transform="translate(28.334375 45.271219)scale(0.1 -0.1)">
       <use xlink:href="#DejaVuSans-31"/>
       <use x="63.623047" xlink:href="#DejaVuSans-30"/>
       <use x="127.246094" xlink:href="#DejaVuSans-2e"/>
       <use x="159.033203" xlink:href="#DejaVuSans-30"/>
      </g>
     </g>
    </g>
   </g>
   <g id="patch_3">
    <path d="M 57.6 307.584 
L 57.6 41.472 
" style="fill:none;stroke:#000000;stroke-linecap:square;stroke-linejoin:miter;stroke-width:0.8;"/>
   </g>
   <g id="patch_4">
    <path d="M 414.72 307.584 
L 414.72 41.472 
" style="fill:none;stroke:#000000;stroke-linecap:square;stroke-linejoin:miter;stroke-width:0.8;"/>
   </g>
   <g id="patch_5">
    <path d="M 57.6 307.584 
L 414.72 307.584 
" style="fill:none;stroke:#000000;stroke-linecap:square;stroke-linejoin:miter;stroke-width:0.8;"/>
   </g>
   <g id="patch_6">
    <path d="M 57.6 41.472 
L 414.72 41.472 
" style="fill:none;stroke:#000000;stroke-linecap:square;stroke-linejoin:miter;stroke-width:0.8;"/>
   </g>
  </g>
 </g>
 <defs>
  <clipPath id="p53116ae367">
   <rect height="266.112" width="357.12" x="57.6" y="41.472"/>
  </clipPath>
 </defs>
</svg>
