<?xml version="1.0" encoding="utf-8" standalone="no"?>
<!DOCTYPE svg PUBLIC "-//W3C//DTD SVG 1.1//EN"
  "http://www.w3.org/Graphics/SVG/1.1/DTD/svg11.dtd">
<!-- Created with matplotlib (http://matplotlib.org/) -->
<svg height="345.6pt" version="1.1" viewBox="0 0 460.8 345.6" width="460.8pt" xmlns="http://www.w3.org/2000/svg" xmlns:xlink="http://www.w3.org/1999/xlink">
 <defs>
  <style type="text/css">
*{stroke-linecap:butt;stroke-linejoin:round;}
  </style>
 </defs>
 <g id="figure_1">
  <g id="patch_1">
   <path d="M 0 345.6 
L 460.8 345.6 
L 460.8 0 
L 0 0 
z
" style="fill:#ffffff;"/>
  </g>
  <g id="axes_1">
   <g id="patch_2">
    <path d="M 57.6 307.584 
L 414.72 307.584 
L 414.72 41.472 
L 57.6 41.472 
z
" style="fill:#ffffff;"/>
   </g>
   <g id="PathCollection_1">
    <defs>
     <path d="M 0 0.612372 
C 0.162403 0.612372 0.318176 0.547849 0.433013 0.433013 
C 0.547849 0.318176 0.612372 0.162403 0.612372 0 
C 0.612372 -0.162403 0.547849 -0.318176 0.433013 -0.433013 
C 0.318176 -0.547849 0.162403 -0.612372 0 -0.612372 
C -0.162403 -0.612372 -0.318176 -0.547849 -0.433013 -0.433013 
C -0.547849 -0.318176 -0.612372 -0.162403 -0.612372 0 
C -0.612372 0.162403 -0.547849 0.318176 -0.433013 0.433013 
C -0.318176 0.547849 -0.162403 0.612372 0 0.612372 
z
" id="m0a3d5495af" style="stroke:#000000;"/>
    </defs>
    <g clip-path="url(#pa81999854b)">
     <use style="stroke:#000000;" x="325.44" xlink:href="#m0a3d5495af" y="137.333044"/>
     <use style="stroke:#000000;" x="236.16" xlink:href="#m0a3d5495af" y="163.545375"/>
     <use style="stroke:#000000;" x="236.16" xlink:href="#m0a3d5495af" y="136.436626"/>
     <use style="stroke:#000000;" x="315.516792" xlink:href="#m0a3d5495af" y="174.528"/>
     <use style="stroke:#000000;" x="273.306726" xlink:href="#m0a3d5495af" y="174.528"/>
     <use style="stroke:#000000;" x="236.16" xlink:href="#m0a3d5495af" y="148.138036"/>
     <use style="stroke:#000000;" x="245.442316" xlink:href="#m0a3d5495af" y="174.528"/>
     <use style="stroke:#000000;" x="236.16" xlink:href="#m0a3d5495af" y="134.6112"/>
     <use style="stroke:#000000;" x="236.16" xlink:href="#m0a3d5495af" y="159.526667"/>
     <use style="stroke:#000000;" x="236.16" xlink:href="#m0a3d5495af" y="134.6112"/>
     <use style="stroke:#000000;" x="236.16" xlink:href="#m0a3d5495af" y="172.561163"/>
     <use style="stroke:#000000;" x="236.16" xlink:href="#m0a3d5495af" y="174.528"/>
     <use style="stroke:#000000;" x="236.16" xlink:href="#m0a3d5495af" y="141.058225"/>
     <use style="stroke:#000000;" x="325.44" xlink:href="#m0a3d5495af" y="142.175733"/>
     <use style="stroke:#000000;" x="255.019646" xlink:href="#m0a3d5495af" y="174.528"/>
     <use style="stroke:#000000;" x="236.16" xlink:href="#m0a3d5495af" y="134.6112"/>
     <use style="stroke:#000000;" x="240.106143" xlink:href="#m0a3d5495af" y="174.528"/>
     <use style="stroke:#000000;" x="236.16" xlink:href="#m0a3d5495af" y="163.723797"/>
     <use style="stroke:#000000;" x="236.16" xlink:href="#m0a3d5495af" y="174.528"/>
     <use style="stroke:#000000;" x="236.16" xlink:href="#m0a3d5495af" y="147.806594"/>
     <use style="stroke:#000000;" x="236.16" xlink:href="#m0a3d5495af" y="147.955218"/>
     <use style="stroke:#000000;" x="236.16" xlink:href="#m0a3d5495af" y="150.313401"/>
     <use style="stroke:#000000;" x="236.16" xlink:href="#m0a3d5495af" y="170.072867"/>
     <use style="stroke:#000000;" x="325.44" xlink:href="#m0a3d5495af" y="140.736768"/>
     <use style="stroke:#000000;" x="236.16" xlink:href="#m0a3d5495af" y="145.034124"/>
     <use style="stroke:#000000;" x="236.16" xlink:href="#m0a3d5495af" y="150.935124"/>
     <use style="stroke:#000000;" x="236.16" xlink:href="#m0a3d5495af" y="143.975966"/>
     <use style="stroke:#000000;" x="236.16" xlink:href="#m0a3d5495af" y="142.435865"/>
     <use style="stroke:#000000;" x="325.44" xlink:href="#m0a3d5495af" y="143.998845"/>
     <use style="stroke:#000000;" x="236.16" xlink:href="#m0a3d5495af" y="157.420745"/>
     <use style="stroke:#000000;" x="321.885286" xlink:href="#m0a3d5495af" y="174.528"/>
     <use style="stroke:#000000;" x="236.16" xlink:href="#m0a3d5495af" y="138.162058"/>
     <use style="stroke:#000000;" x="286.367574" xlink:href="#m0a3d5495af" y="174.528"/>
     <use style="stroke:#000000;" x="236.16" xlink:href="#m0a3d5495af" y="144.523079"/>
     <use style="stroke:#000000;" x="236.16" xlink:href="#m0a3d5495af" y="140.500013"/>
     <use style="stroke:#000000;" x="236.16" xlink:href="#m0a3d5495af" y="134.6112"/>
     <use style="stroke:#000000;" x="239.27215" xlink:href="#m0a3d5495af" y="134.6112"/>
     <use style="stroke:#000000;" x="236.16" xlink:href="#m0a3d5495af" y="153.535214"/>
     <use style="stroke:#000000;" x="236.16" xlink:href="#m0a3d5495af" y="134.6112"/>
     <use style="stroke:#000000;" x="265.10093" xlink:href="#m0a3d5495af" y="174.528"/>
     <use style="stroke:#000000;" x="265.870376" xlink:href="#m0a3d5495af" y="174.528"/>
     <use style="stroke:#000000;" x="236.16" xlink:href="#m0a3d5495af" y="134.6112"/>
     <use style="stroke:#000000;" x="236.16" xlink:href="#m0a3d5495af" y="134.6112"/>
     <use style="stroke:#000000;" x="325.44" xlink:href="#m0a3d5495af" y="146.311296"/>
     <use style="stroke:#000000;" x="304.775217" xlink:href="#m0a3d5495af" y="174.528"/>
     <use style="stroke:#000000;" x="236.16" xlink:href="#m0a3d5495af" y="159.709076"/>
     <use style="stroke:#000000;" x="325.44" xlink:href="#m0a3d5495af" y="151.625093"/>
     <use style="stroke:#000000;" x="247.553536" xlink:href="#m0a3d5495af" y="174.528"/>
     <use style="stroke:#000000;" x="236.16" xlink:href="#m0a3d5495af" y="174.528"/>
     <use style="stroke:#000000;" x="236.16" xlink:href="#m0a3d5495af" y="139.620616"/>
     <use style="stroke:#000000;" x="252.23494" xlink:href="#m0a3d5495af" y="174.528"/>
     <use style="stroke:#000000;" x="236.16" xlink:href="#m0a3d5495af" y="134.792475"/>
     <use style="stroke:#000000;" x="236.16" xlink:href="#m0a3d5495af" y="145.286898"/>
     <use style="stroke:#000000;" x="269.172551" xlink:href="#m0a3d5495af" y="174.528"/>
     <use style="stroke:#000000;" x="236.16" xlink:href="#m0a3d5495af" y="134.6112"/>
     <use style="stroke:#000000;" x="256.911715" xlink:href="#m0a3d5495af" y="174.528"/>
     <use style="stroke:#000000;" x="236.16" xlink:href="#m0a3d5495af" y="139.295179"/>
     <use style="stroke:#000000;" x="244.494359" xlink:href="#m0a3d5495af" y="174.528"/>
     <use style="stroke:#000000;" x="236.16" xlink:href="#m0a3d5495af" y="146.406549"/>
     <use style="stroke:#000000;" x="256.302461" xlink:href="#m0a3d5495af" y="174.528"/>
     <use style="stroke:#000000;" x="236.16" xlink:href="#m0a3d5495af" y="169.062096"/>
     <use style="stroke:#000000;" x="238.269591" xlink:href="#m0a3d5495af" y="174.528"/>
     <use style="stroke:#000000;" x="236.16" xlink:href="#m0a3d5495af" y="142.161031"/>
     <use style="stroke:#000000;" x="236.16" xlink:href="#m0a3d5495af" y="136.586696"/>
     <use style="stroke:#000000;" x="236.16" xlink:href="#m0a3d5495af" y="174.528"/>
     <use style="stroke:#000000;" x="236.16" xlink:href="#m0a3d5495af" y="139.279892"/>
     <use style="stroke:#000000;" x="324.769466" xlink:href="#m0a3d5495af" y="134.6112"/>
     <use style="stroke:#000000;" x="325.44" xlink:href="#m0a3d5495af" y="174.528"/>
     <use style="stroke:#000000;" x="236.16" xlink:href="#m0a3d5495af" y="162.458115"/>
     <use style="stroke:#000000;" x="236.16" xlink:href="#m0a3d5495af" y="150.620073"/>
     <use style="stroke:#000000;" x="236.16" xlink:href="#m0a3d5495af" y="164.790127"/>
     <use style="stroke:#000000;" x="325.44" xlink:href="#m0a3d5495af" y="170.073671"/>
     <use style="stroke:#000000;" x="236.16" xlink:href="#m0a3d5495af" y="163.084964"/>
     <use style="stroke:#000000;" x="236.16" xlink:href="#m0a3d5495af" y="134.6112"/>
     <use style="stroke:#000000;" x="325.44" xlink:href="#m0a3d5495af" y="171.533768"/>
     <use style="stroke:#000000;" x="325.44" xlink:href="#m0a3d5495af" y="165.945049"/>
     <use style="stroke:#000000;" x="236.16" xlink:href="#m0a3d5495af" y="162.968792"/>
     <use style="stroke:#000000;" x="325.44" xlink:href="#m0a3d5495af" y="134.6112"/>
     <use style="stroke:#000000;" x="236.16" xlink:href="#m0a3d5495af" y="174.528"/>
     <use style="stroke:#000000;" x="236.16" xlink:href="#m0a3d5495af" y="137.128196"/>
     <use style="stroke:#000000;" x="325.44" xlink:href="#m0a3d5495af" y="141.02201"/>
     <use style="stroke:#000000;" x="246.794773" xlink:href="#m0a3d5495af" y="162.713137"/>
     <use style="stroke:#000000;" x="236.16" xlink:href="#m0a3d5495af" y="165.591032"/>
     <use style="stroke:#000000;" x="236.16" xlink:href="#m0a3d5495af" y="165.932217"/>
     <use style="stroke:#000000;" x="252.379979" xlink:href="#m0a3d5495af" y="167.290899"/>
     <use style="stroke:#000000;" x="243.617976" xlink:href="#m0a3d5495af" y="134.6112"/>
     <use style="stroke:#000000;" x="238.954165" xlink:href="#m0a3d5495af" y="134.6112"/>
     <use style="stroke:#000000;" x="236.16" xlink:href="#m0a3d5495af" y="137.244188"/>
     <use style="stroke:#000000;" x="315.701486" xlink:href="#m0a3d5495af" y="171.410395"/>
     <use style="stroke:#000000;" x="314.176011" xlink:href="#m0a3d5495af" y="174.528"/>
     <use style="stroke:#000000;" x="305.557611" xlink:href="#m0a3d5495af" y="170.895487"/>
     <use style="stroke:#000000;" x="272.429982" xlink:href="#m0a3d5495af" y="174.528"/>
     <use style="stroke:#000000;" x="268.797704" xlink:href="#m0a3d5495af" y="174.528"/>
     <use style="stroke:#000000;" x="262.35817" xlink:href="#m0a3d5495af" y="169.303904"/>
     <use style="stroke:#000000;" x="240.781677" xlink:href="#m0a3d5495af" y="153.594493"/>
     <use style="stroke:#000000;" x="240.728664" xlink:href="#m0a3d5495af" y="148.84283"/>
     <use style="stroke:#000000;" x="236.16" xlink:href="#m0a3d5495af" y="149.963014"/>
     <use style="stroke:#000000;" x="258.254789" xlink:href="#m0a3d5495af" y="174.528"/>
     <use style="stroke:#000000;" x="251.977066" xlink:href="#m0a3d5495af" y="174.528"/>
     <use style="stroke:#000000;" x="254.456623" xlink:href="#m0a3d5495af" y="174.528"/>
     <use style="stroke:#000000;" x="243.02605" xlink:href="#m0a3d5495af" y="134.6112"/>
     <use style="stroke:#000000;" x="236.16" xlink:href="#m0a3d5495af" y="135.197801"/>
     <use style="stroke:#000000;" x="237.38267" xlink:href="#m0a3d5495af" y="134.6112"/>
     <use style="stroke:#000000;" x="236.16" xlink:href="#m0a3d5495af" y="157.703741"/>
     <use style="stroke:#000000;" x="244.841312" xlink:href="#m0a3d5495af" y="163.396748"/>
     <use style="stroke:#000000;" x="241.967528" xlink:href="#m0a3d5495af" y="155.293248"/>
     <use style="stroke:#000000;" x="238.482094" xlink:href="#m0a3d5495af" y="134.6112"/>
     <use style="stroke:#000000;" x="239.959186" xlink:href="#m0a3d5495af" y="134.6112"/>
     <use style="stroke:#000000;" x="236.16" xlink:href="#m0a3d5495af" y="134.6112"/>
     <use style="stroke:#000000;" x="236.16" xlink:href="#m0a3d5495af" y="173.93191"/>
     <use style="stroke:#000000;" x="236.16" xlink:href="#m0a3d5495af" y="166.328"/>
     <use style="stroke:#000000;" x="236.16" xlink:href="#m0a3d5495af" y="172.623616"/>
     <use style="stroke:#000000;" x="236.16" xlink:href="#m0a3d5495af" y="174.333005"/>
     <use style="stroke:#000000;" x="237.353959" xlink:href="#m0a3d5495af" y="174.528"/>
     <use style="stroke:#000000;" x="243.097759" xlink:href="#m0a3d5495af" y="171.550792"/>
     <use style="stroke:#000000;" x="236.16" xlink:href="#m0a3d5495af" y="138.467266"/>
     <use style="stroke:#000000;" x="236.16" xlink:href="#m0a3d5495af" y="143.6913"/>
     <use style="stroke:#000000;" x="244.563196" xlink:href="#m0a3d5495af" y="143.903272"/>
     <use style="stroke:#000000;" x="325.44" xlink:href="#m0a3d5495af" y="143.493196"/>
     <use style="stroke:#000000;" x="325.44" xlink:href="#m0a3d5495af" y="143.724788"/>
     <use style="stroke:#000000;" x="325.44" xlink:href="#m0a3d5495af" y="147.035022"/>
     <use style="stroke:#000000;" x="254.341414" xlink:href="#m0a3d5495af" y="169.968981"/>
     <use style="stroke:#000000;" x="249.576724" xlink:href="#m0a3d5495af" y="171.923151"/>
     <use style="stroke:#000000;" x="252.881328" xlink:href="#m0a3d5495af" y="173.105826"/>
     <use style="stroke:#000000;" x="236.16" xlink:href="#m0a3d5495af" y="138.823483"/>
     <use style="stroke:#000000;" x="240.552079" xlink:href="#m0a3d5495af" y="137.263112"/>
     <use style="stroke:#000000;" x="241.810941" xlink:href="#m0a3d5495af" y="134.6112"/>
     <use style="stroke:#000000;" x="236.302781" xlink:href="#m0a3d5495af" y="174.528"/>
     <use style="stroke:#000000;" x="250.446925" xlink:href="#m0a3d5495af" y="172.956238"/>
     <use style="stroke:#000000;" x="248.745573" xlink:href="#m0a3d5495af" y="171.874499"/>
     <use style="stroke:#000000;" x="236.16" xlink:href="#m0a3d5495af" y="164.07541"/>
     <use style="stroke:#000000;" x="236.16" xlink:href="#m0a3d5495af" y="167.561768"/>
     <use style="stroke:#000000;" x="243.844013" xlink:href="#m0a3d5495af" y="161.020546"/>
     <use style="stroke:#000000;" x="236.16" xlink:href="#m0a3d5495af" y="171.950584"/>
     <use style="stroke:#000000;" x="236.16" xlink:href="#m0a3d5495af" y="174.528"/>
     <use style="stroke:#000000;" x="236.3092" xlink:href="#m0a3d5495af" y="170.801761"/>
     <use style="stroke:#000000;" x="236.16" xlink:href="#m0a3d5495af" y="148.023326"/>
     <use style="stroke:#000000;" x="236.16" xlink:href="#m0a3d5495af" y="149.902881"/>
     <use style="stroke:#000000;" x="236.16" xlink:href="#m0a3d5495af" y="147.051315"/>
     <use style="stroke:#000000;" x="236.16" xlink:href="#m0a3d5495af" y="150.594319"/>
     <use style="stroke:#000000;" x="236.16" xlink:href="#m0a3d5495af" y="148.455083"/>
     <use style="stroke:#000000;" x="236.383182" xlink:href="#m0a3d5495af" y="150.482504"/>
     <use style="stroke:#000000;" x="238.876151" xlink:href="#m0a3d5495af" y="149.549985"/>
     <use style="stroke:#000000;" x="236.16" xlink:href="#m0a3d5495af" y="152.728606"/>
     <use style="stroke:#000000;" x="240.117529" xlink:href="#m0a3d5495af" y="152.082659"/>
     <use style="stroke:#000000;" x="241.689605" xlink:href="#m0a3d5495af" y="174.496848"/>
     <use style="stroke:#000000;" x="237.697353" xlink:href="#m0a3d5495af" y="167.177"/>
     <use style="stroke:#000000;" x="236.949305" xlink:href="#m0a3d5495af" y="168.913753"/>
     <use style="stroke:#000000;" x="318.997554" xlink:href="#m0a3d5495af" y="142.886081"/>
     <use style="stroke:#000000;" x="325.44" xlink:href="#m0a3d5495af" y="144.358931"/>
     <use style="stroke:#000000;" x="323.153986" xlink:href="#m0a3d5495af" y="140.49594"/>
     <use style="stroke:#000000;" x="236.16" xlink:href="#m0a3d5495af" y="144.935737"/>
     <use style="stroke:#000000;" x="238.191237" xlink:href="#m0a3d5495af" y="152.913202"/>
     <use style="stroke:#000000;" x="236.16" xlink:href="#m0a3d5495af" y="154.679613"/>
     <use style="stroke:#000000;" x="236.16" xlink:href="#m0a3d5495af" y="149.371298"/>
     <use style="stroke:#000000;" x="236.16" xlink:href="#m0a3d5495af" y="140.889603"/>
     <use style="stroke:#000000;" x="236.230447" xlink:href="#m0a3d5495af" y="146.778334"/>
     <use style="stroke:#000000;" x="236.16" xlink:href="#m0a3d5495af" y="140.19143"/>
     <use style="stroke:#000000;" x="248.70453" xlink:href="#m0a3d5495af" y="140.803878"/>
     <use style="stroke:#000000;" x="236.16" xlink:href="#m0a3d5495af" y="142.652673"/>
     <use style="stroke:#000000;" x="322.583827" xlink:href="#m0a3d5495af" y="139.891339"/>
     <use style="stroke:#000000;" x="325.232363" xlink:href="#m0a3d5495af" y="151.343933"/>
     <use style="stroke:#000000;" x="325.44" xlink:href="#m0a3d5495af" y="140.836568"/>
     <use style="stroke:#000000;" x="236.16" xlink:href="#m0a3d5495af" y="154.379552"/>
     <use style="stroke:#000000;" x="236.16" xlink:href="#m0a3d5495af" y="158.012555"/>
     <use style="stroke:#000000;" x="236.16" xlink:href="#m0a3d5495af" y="163.991653"/>
     <use style="stroke:#000000;" x="307.082152" xlink:href="#m0a3d5495af" y="174.528"/>
     <use style="stroke:#000000;" x="239.493538" xlink:href="#m0a3d5495af" y="137.794407"/>
     <use style="stroke:#000000;" x="244.142611" xlink:href="#m0a3d5495af" y="134.763805"/>
     <use style="stroke:#000000;" x="294.285603" xlink:href="#m0a3d5495af" y="172.69794"/>
     <use style="stroke:#000000;" x="272.858877" xlink:href="#m0a3d5495af" y="174.528"/>
     <use style="stroke:#000000;" x="236.16" xlink:href="#m0a3d5495af" y="136.52913"/>
     <use style="stroke:#000000;" x="241.329318" xlink:href="#m0a3d5495af" y="136.114596"/>
     <use style="stroke:#000000;" x="238.117276" xlink:href="#m0a3d5495af" y="139.301334"/>
     <use style="stroke:#000000;" x="236.751059" xlink:href="#m0a3d5495af" y="136.775428"/>
     <use style="stroke:#000000;" x="241.350387" xlink:href="#m0a3d5495af" y="134.6112"/>
     <use style="stroke:#000000;" x="240.633175" xlink:href="#m0a3d5495af" y="134.6112"/>
     <use style="stroke:#000000;" x="236.16" xlink:href="#m0a3d5495af" y="155.14024"/>
     <use style="stroke:#000000;" x="240.990803" xlink:href="#m0a3d5495af" y="134.931996"/>
     <use style="stroke:#000000;" x="236.16" xlink:href="#m0a3d5495af" y="136.807728"/>
     <use style="stroke:#000000;" x="268.858923" xlink:href="#m0a3d5495af" y="170.606158"/>
     <use style="stroke:#000000;" x="268.152619" xlink:href="#m0a3d5495af" y="174.528"/>
     <use style="stroke:#000000;" x="272.453887" xlink:href="#m0a3d5495af" y="174.528"/>
     <use style="stroke:#000000;" x="236.16" xlink:href="#m0a3d5495af" y="134.6112"/>
     <use style="stroke:#000000;" x="245.397851" xlink:href="#m0a3d5495af" y="134.6112"/>
     <use style="stroke:#000000;" x="237.750758" xlink:href="#m0a3d5495af" y="134.6112"/>
     <use style="stroke:#000000;" x="236.16" xlink:href="#m0a3d5495af" y="135.64998"/>
     <use style="stroke:#000000;" x="314.177486" xlink:href="#m0a3d5495af" y="142.98955"/>
     <use style="stroke:#000000;" x="311.186705" xlink:href="#m0a3d5495af" y="172.652794"/>
     <use style="stroke:#000000;" x="290.631698" xlink:href="#m0a3d5495af" y="174.528"/>
     <use style="stroke:#000000;" x="238.429035" xlink:href="#m0a3d5495af" y="154.688524"/>
     <use style="stroke:#000000;" x="239.075009" xlink:href="#m0a3d5495af" y="160.782975"/>
     <use style="stroke:#000000;" x="325.44" xlink:href="#m0a3d5495af" y="150.403103"/>
     <use style="stroke:#000000;" x="250.428925" xlink:href="#m0a3d5495af" y="171.378645"/>
     <use style="stroke:#000000;" x="252.162374" xlink:href="#m0a3d5495af" y="169.764235"/>
     <use style="stroke:#000000;" x="240.457966" xlink:href="#m0a3d5495af" y="174.528"/>
     <use style="stroke:#000000;" x="242.449292" xlink:href="#m0a3d5495af" y="143.399216"/>
     <use style="stroke:#000000;" x="247.630543" xlink:href="#m0a3d5495af" y="134.919423"/>
     <use style="stroke:#000000;" x="264.235302" xlink:href="#m0a3d5495af" y="173.007924"/>
     <use style="stroke:#000000;" x="250.669993" xlink:href="#m0a3d5495af" y="174.528"/>
     <use style="stroke:#000000;" x="236.16" xlink:href="#m0a3d5495af" y="140.507939"/>
     <use style="stroke:#000000;" x="238.985784" xlink:href="#m0a3d5495af" y="146.293411"/>
     <use style="stroke:#000000;" x="236.16" xlink:href="#m0a3d5495af" y="140.924318"/>
     <use style="stroke:#000000;" x="270.583342" xlink:href="#m0a3d5495af" y="169.817178"/>
     <use style="stroke:#000000;" x="236.16" xlink:href="#m0a3d5495af" y="134.918599"/>
     <use style="stroke:#000000;" x="236.16" xlink:href="#m0a3d5495af" y="140.659135"/>
     <use style="stroke:#000000;" x="262.303989" xlink:href="#m0a3d5495af" y="174.528"/>
     <use style="stroke:#000000;" x="245.888158" xlink:href="#m0a3d5495af" y="139.860024"/>
     <use style="stroke:#000000;" x="237.655533" xlink:href="#m0a3d5495af" y="171.907625"/>
     <use style="stroke:#000000;" x="240.942191" xlink:href="#m0a3d5495af" y="174.528"/>
     <use style="stroke:#000000;" x="240.490195" xlink:href="#m0a3d5495af" y="150.074032"/>
     <use style="stroke:#000000;" x="236.16" xlink:href="#m0a3d5495af" y="154.728266"/>
     <use style="stroke:#000000;" x="257.671254" xlink:href="#m0a3d5495af" y="173.349486"/>
     <use style="stroke:#000000;" x="259.300153" xlink:href="#m0a3d5495af" y="173.951585"/>
     <use style="stroke:#000000;" x="236.16" xlink:href="#m0a3d5495af" y="173.481808"/>
     <use style="stroke:#000000;" x="240.717665" xlink:href="#m0a3d5495af" y="171.046214"/>
     <use style="stroke:#000000;" x="236.16" xlink:href="#m0a3d5495af" y="174.528"/>
     <use style="stroke:#000000;" x="238.916196" xlink:href="#m0a3d5495af" y="174.528"/>
     <use style="stroke:#000000;" x="236.16" xlink:href="#m0a3d5495af" y="137.889253"/>
     <use style="stroke:#000000;" x="238.216193" xlink:href="#m0a3d5495af" y="142.129413"/>
     <use style="stroke:#000000;" x="236.16" xlink:href="#m0a3d5495af" y="145.089027"/>
     <use style="stroke:#000000;" x="236.16" xlink:href="#m0a3d5495af" y="134.6112"/>
     <use style="stroke:#000000;" x="236.16" xlink:href="#m0a3d5495af" y="174.528"/>
     <use style="stroke:#000000;" x="236.16" xlink:href="#m0a3d5495af" y="139.089805"/>
     <use style="stroke:#000000;" x="236.16" xlink:href="#m0a3d5495af" y="143.944314"/>
     <use style="stroke:#000000;" x="325.44" xlink:href="#m0a3d5495af" y="134.6112"/>
     <use style="stroke:#000000;" x="325.44" xlink:href="#m0a3d5495af" y="134.6112"/>
     <use style="stroke:#000000;" x="321.618979" xlink:href="#m0a3d5495af" y="174.528"/>
     <use style="stroke:#000000;" x="318.688406" xlink:href="#m0a3d5495af" y="170.3213"/>
     <use style="stroke:#000000;" x="236.16" xlink:href="#m0a3d5495af" y="160.385838"/>
     <use style="stroke:#000000;" x="237.969129" xlink:href="#m0a3d5495af" y="155.299414"/>
     <use style="stroke:#000000;" x="238.968861" xlink:href="#m0a3d5495af" y="167.109571"/>
     <use style="stroke:#000000;" x="325.44" xlink:href="#m0a3d5495af" y="174.528"/>
     <use style="stroke:#000000;" x="236.16" xlink:href="#m0a3d5495af" y="161.435495"/>
     <use style="stroke:#000000;" x="236.16" xlink:href="#m0a3d5495af" y="139.103887"/>
     <use style="stroke:#000000;" x="324.964442" xlink:href="#m0a3d5495af" y="170.817754"/>
     <use style="stroke:#000000;" x="306.601574" xlink:href="#m0a3d5495af" y="167.370148"/>
     <use style="stroke:#000000;" x="239.789514" xlink:href="#m0a3d5495af" y="163.856565"/>
     <use style="stroke:#000000;" x="316.221654" xlink:href="#m0a3d5495af" y="137.136336"/>
     <use style="stroke:#000000;" x="244.061038" xlink:href="#m0a3d5495af" y="174.528"/>
     <use style="stroke:#000000;" x="243.851292" xlink:href="#m0a3d5495af" y="144.218262"/>
    </g>
   </g>
   <g id="PathCollection_2">
    <defs>
     <path d="M 0 0.935414 
C 0.248075 0.935414 0.486022 0.836853 0.661438 0.661438 
C 0.836853 0.486022 0.935414 0.248075 0.935414 0 
C 0.935414 -0.248075 0.836853 -0.486022 0.661438 -0.661438 
C 0.486022 -0.836853 0.248075 -0.935414 0 -0.935414 
C -0.248075 -0.935414 -0.486022 -0.836853 -0.661438 -0.661438 
C -0.836853 -0.486022 -0.935414 -0.248075 -0.935414 0 
C -0.935414 0.248075 -0.836853 0.486022 -0.661438 0.661438 
C -0.486022 0.836853 -0.248075 0.935414 0 0.935414 
z
" id="m0f99a93c5d" style="stroke:#0000ff;"/>
    </defs>
    <g clip-path="url(#pa81999854b)">
     <use style="fill:#0000ff;stroke:#0000ff;" x="325.44" xlink:href="#m0f99a93c5d" y="137.333044"/>
     <use style="fill:#0000ff;stroke:#0000ff;" x="236.16" xlink:href="#m0f99a93c5d" y="163.545375"/>
     <use style="fill:#0000ff;stroke:#0000ff;" x="236.16" xlink:href="#m0f99a93c5d" y="136.436626"/>
     <use style="fill:#0000ff;stroke:#0000ff;" x="315.516792" xlink:href="#m0f99a93c5d" y="174.528"/>
     <use style="fill:#0000ff;stroke:#0000ff;" x="273.306726" xlink:href="#m0f99a93c5d" y="174.528"/>
     <use style="fill:#0000ff;stroke:#0000ff;" x="236.16" xlink:href="#m0f99a93c5d" y="148.138036"/>
     <use style="fill:#0000ff;stroke:#0000ff;" x="245.442316" xlink:href="#m0f99a93c5d" y="174.528"/>
     <use style="fill:#0000ff;stroke:#0000ff;" x="236.16" xlink:href="#m0f99a93c5d" y="134.6112"/>
     <use style="fill:#0000ff;stroke:#0000ff;" x="236.16" xlink:href="#m0f99a93c5d" y="159.526667"/>
     <use style="fill:#0000ff;stroke:#0000ff;" x="236.16" xlink:href="#m0f99a93c5d" y="134.6112"/>
     <use style="fill:#0000ff;stroke:#0000ff;" x="236.16" xlink:href="#m0f99a93c5d" y="172.561163"/>
     <use style="fill:#0000ff;stroke:#0000ff;" x="236.16" xlink:href="#m0f99a93c5d" y="174.528"/>
     <use style="fill:#0000ff;stroke:#0000ff;" x="236.16" xlink:href="#m0f99a93c5d" y="141.058225"/>
     <use style="fill:#0000ff;stroke:#0000ff;" x="325.44" xlink:href="#m0f99a93c5d" y="142.175733"/>
     <use style="fill:#0000ff;stroke:#0000ff;" x="255.019646" xlink:href="#m0f99a93c5d" y="174.528"/>
     <use style="fill:#0000ff;stroke:#0000ff;" x="236.16" xlink:href="#m0f99a93c5d" y="134.6112"/>
     <use style="fill:#0000ff;stroke:#0000ff;" x="240.106143" xlink:href="#m0f99a93c5d" y="174.528"/>
     <use style="fill:#0000ff;stroke:#0000ff;" x="236.16" xlink:href="#m0f99a93c5d" y="163.723797"/>
     <use style="fill:#0000ff;stroke:#0000ff;" x="236.16" xlink:href="#m0f99a93c5d" y="174.528"/>
     <use style="fill:#0000ff;stroke:#0000ff;" x="236.16" xlink:href="#m0f99a93c5d" y="147.806594"/>
     <use style="fill:#0000ff;stroke:#0000ff;" x="236.16" xlink:href="#m0f99a93c5d" y="147.955218"/>
     <use style="fill:#0000ff;stroke:#0000ff;" x="236.16" xlink:href="#m0f99a93c5d" y="150.313401"/>
     <use style="fill:#0000ff;stroke:#0000ff;" x="236.16" xlink:href="#m0f99a93c5d" y="170.072867"/>
     <use style="fill:#0000ff;stroke:#0000ff;" x="325.44" xlink:href="#m0f99a93c5d" y="140.736768"/>
     <use style="fill:#0000ff;stroke:#0000ff;" x="236.16" xlink:href="#m0f99a93c5d" y="145.034124"/>
     <use style="fill:#0000ff;stroke:#0000ff;" x="236.16" xlink:href="#m0f99a93c5d" y="150.935124"/>
     <use style="fill:#0000ff;stroke:#0000ff;" x="236.16" xlink:href="#m0f99a93c5d" y="143.975966"/>
     <use style="fill:#0000ff;stroke:#0000ff;" x="236.16" xlink:href="#m0f99a93c5d" y="142.435865"/>
     <use style="fill:#0000ff;stroke:#0000ff;" x="325.44" xlink:href="#m0f99a93c5d" y="143.998845"/>
     <use style="fill:#0000ff;stroke:#0000ff;" x="236.16" xlink:href="#m0f99a93c5d" y="157.420745"/>
     <use style="fill:#0000ff;stroke:#0000ff;" x="321.885286" xlink:href="#m0f99a93c5d" y="174.528"/>
     <use style="fill:#0000ff;stroke:#0000ff;" x="236.16" xlink:href="#m0f99a93c5d" y="138.162058"/>
     <use style="fill:#0000ff;stroke:#0000ff;" x="286.367574" xlink:href="#m0f99a93c5d" y="174.528"/>
     <use style="fill:#0000ff;stroke:#0000ff;" x="236.16" xlink:href="#m0f99a93c5d" y="144.523079"/>
     <use style="fill:#0000ff;stroke:#0000ff;" x="236.16" xlink:href="#m0f99a93c5d" y="140.500013"/>
     <use style="fill:#0000ff;stroke:#0000ff;" x="236.16" xlink:href="#m0f99a93c5d" y="134.6112"/>
     <use style="fill:#0000ff;stroke:#0000ff;" x="239.27215" xlink:href="#m0f99a93c5d" y="134.6112"/>
     <use style="fill:#0000ff;stroke:#0000ff;" x="236.16" xlink:href="#m0f99a93c5d" y="153.535214"/>
     <use style="fill:#0000ff;stroke:#0000ff;" x="236.16" xlink:href="#m0f99a93c5d" y="134.6112"/>
     <use style="fill:#0000ff;stroke:#0000ff;" x="265.10093" xlink:href="#m0f99a93c5d" y="174.528"/>
     <use style="fill:#0000ff;stroke:#0000ff;" x="265.870376" xlink:href="#m0f99a93c5d" y="174.528"/>
     <use style="fill:#0000ff;stroke:#0000ff;" x="236.16" xlink:href="#m0f99a93c5d" y="134.6112"/>
     <use style="fill:#0000ff;stroke:#0000ff;" x="236.16" xlink:href="#m0f99a93c5d" y="134.6112"/>
     <use style="fill:#0000ff;stroke:#0000ff;" x="325.44" xlink:href="#m0f99a93c5d" y="146.311296"/>
     <use style="fill:#0000ff;stroke:#0000ff;" x="304.775217" xlink:href="#m0f99a93c5d" y="174.528"/>
     <use style="fill:#0000ff;stroke:#0000ff;" x="236.16" xlink:href="#m0f99a93c5d" y="159.709076"/>
     <use style="fill:#0000ff;stroke:#0000ff;" x="325.44" xlink:href="#m0f99a93c5d" y="151.625093"/>
     <use style="fill:#0000ff;stroke:#0000ff;" x="247.553536" xlink:href="#m0f99a93c5d" y="174.528"/>
     <use style="fill:#0000ff;stroke:#0000ff;" x="236.16" xlink:href="#m0f99a93c5d" y="174.528"/>
     <use style="fill:#0000ff;stroke:#0000ff;" x="236.16" xlink:href="#m0f99a93c5d" y="139.620616"/>
     <use style="fill:#0000ff;stroke:#0000ff;" x="252.23494" xlink:href="#m0f99a93c5d" y="174.528"/>
     <use style="fill:#0000ff;stroke:#0000ff;" x="236.16" xlink:href="#m0f99a93c5d" y="134.792475"/>
     <use style="fill:#0000ff;stroke:#0000ff;" x="236.16" xlink:href="#m0f99a93c5d" y="145.286898"/>
     <use style="fill:#0000ff;stroke:#0000ff;" x="269.172551" xlink:href="#m0f99a93c5d" y="174.528"/>
     <use style="fill:#0000ff;stroke:#0000ff;" x="236.16" xlink:href="#m0f99a93c5d" y="134.6112"/>
     <use style="fill:#0000ff;stroke:#0000ff;" x="256.911715" xlink:href="#m0f99a93c5d" y="174.528"/>
     <use style="fill:#0000ff;stroke:#0000ff;" x="236.16" xlink:href="#m0f99a93c5d" y="139.295179"/>
     <use style="fill:#0000ff;stroke:#0000ff;" x="244.494359" xlink:href="#m0f99a93c5d" y="174.528"/>
     <use style="fill:#0000ff;stroke:#0000ff;" x="236.16" xlink:href="#m0f99a93c5d" y="146.406549"/>
     <use style="fill:#0000ff;stroke:#0000ff;" x="256.302461" xlink:href="#m0f99a93c5d" y="174.528"/>
     <use style="fill:#0000ff;stroke:#0000ff;" x="236.16" xlink:href="#m0f99a93c5d" y="169.062096"/>
     <use style="fill:#0000ff;stroke:#0000ff;" x="238.269591" xlink:href="#m0f99a93c5d" y="174.528"/>
     <use style="fill:#0000ff;stroke:#0000ff;" x="236.16" xlink:href="#m0f99a93c5d" y="142.161031"/>
     <use style="fill:#0000ff;stroke:#0000ff;" x="236.16" xlink:href="#m0f99a93c5d" y="136.586696"/>
     <use style="fill:#0000ff;stroke:#0000ff;" x="236.16" xlink:href="#m0f99a93c5d" y="174.528"/>
     <use style="fill:#0000ff;stroke:#0000ff;" x="236.16" xlink:href="#m0f99a93c5d" y="139.279892"/>
     <use style="fill:#0000ff;stroke:#0000ff;" x="324.769466" xlink:href="#m0f99a93c5d" y="134.6112"/>
     <use style="fill:#0000ff;stroke:#0000ff;" x="325.44" xlink:href="#m0f99a93c5d" y="174.528"/>
     <use style="fill:#0000ff;stroke:#0000ff;" x="236.16" xlink:href="#m0f99a93c5d" y="162.458115"/>
     <use style="fill:#0000ff;stroke:#0000ff;" x="236.16" xlink:href="#m0f99a93c5d" y="150.620073"/>
     <use style="fill:#0000ff;stroke:#0000ff;" x="236.16" xlink:href="#m0f99a93c5d" y="164.790127"/>
     <use style="fill:#0000ff;stroke:#0000ff;" x="325.44" xlink:href="#m0f99a93c5d" y="170.073671"/>
     <use style="fill:#0000ff;stroke:#0000ff;" x="236.16" xlink:href="#m0f99a93c5d" y="163.084964"/>
     <use style="fill:#0000ff;stroke:#0000ff;" x="236.16" xlink:href="#m0f99a93c5d" y="134.6112"/>
     <use style="fill:#0000ff;stroke:#0000ff;" x="325.44" xlink:href="#m0f99a93c5d" y="171.533768"/>
     <use style="fill:#0000ff;stroke:#0000ff;" x="325.44" xlink:href="#m0f99a93c5d" y="165.945049"/>
     <use style="fill:#0000ff;stroke:#0000ff;" x="236.16" xlink:href="#m0f99a93c5d" y="162.968792"/>
     <use style="fill:#0000ff;stroke:#0000ff;" x="325.44" xlink:href="#m0f99a93c5d" y="134.6112"/>
     <use style="fill:#0000ff;stroke:#0000ff;" x="236.16" xlink:href="#m0f99a93c5d" y="174.528"/>
     <use style="fill:#0000ff;stroke:#0000ff;" x="236.16" xlink:href="#m0f99a93c5d" y="137.128196"/>
    </g>
   </g>
   <g id="matplotlib.axis_1">
    <g id="xtick_1">
     <g id="line2d_1">
      <defs>
       <path d="M 0 0 
L 0 3.5 
" id="m15dfa8a3db" style="stroke:#000000;stroke-width:0.8;"/>
      </defs>
      <g>
       <use style="stroke:#000000;stroke-width:0.8;" x="57.6" xlink:href="#m15dfa8a3db" y="307.584"/>
      </g>
     </g>
     <g id="text_1">
      <!-- −10.0 -->
      <defs>
       <path d="M 10.59375 35.5 
L 73.1875 35.5 
L 73.1875 27.203125 
L 10.59375 27.203125 
z
" id="DejaVuSans-2212"/>
       <path d="M 12.40625 8.296875 
L 28.515625 8.296875 
L 28.515625 63.921875 
L 10.984375 60.40625 
L 10.984375 69.390625 
L 28.421875 72.90625 
L 38.28125 72.90625 
L 38.28125 8.296875 
L 54.390625 8.296875 
L 54.390625 0 
L 12.40625 0 
z
" id="DejaVuSans-31"/>
       <path d="M 31.78125 66.40625 
Q 24.171875 66.40625 20.328125 58.90625 
Q 16.5 51.421875 16.5 36.375 
Q 16.5 21.390625 20.328125 13.890625 
Q 24.171875 6.390625 31.78125 6.390625 
Q 39.453125 6.390625 43.28125 13.890625 
Q 47.125 21.390625 47.125 36.375 
Q 47.125 51.421875 43.28125 58.90625 
Q 39.453125 66.40625 31.78125 66.40625 
z
M 31.78125 74.21875 
Q 44.046875 74.21875 50.515625 64.515625 
Q 56.984375 54.828125 56.984375 36.375 
Q 56.984375 17.96875 50.515625 8.265625 
Q 44.046875 -1.421875 31.78125 -1.421875 
Q 19.53125 -1.421875 13.0625 8.265625 
Q 6.59375 17.96875 6.59375 36.375 
Q 6.59375 54.828125 13.0625 64.515625 
Q 19.53125 74.21875 31.78125 74.21875 
z
" id="DejaVuSans-30"/>
       <path d="M 10.6875 12.40625 
L 21 12.40625 
L 21 0 
L 10.6875 0 
z
" id="DejaVuSans-2e"/>
      </defs>
      <g transform="translate(42.277344 322.182437)scale(0.1 -0.1)">
       <use xlink:href="#DejaVuSans-2212"/>
       <use x="83.789062" xlink:href="#DejaVuSans-31"/>
       <use x="147.412109" xlink:href="#DejaVuSans-30"/>
       <use x="211.035156" xlink:href="#DejaVuSans-2e"/>
       <use x="242.822266" xlink:href="#DejaVuSans-30"/>
      </g>
     </g>
    </g>
    <g id="xtick_2">
     <g id="line2d_2">
      <g>
       <use style="stroke:#000000;stroke-width:0.8;" x="102.24" xlink:href="#m15dfa8a3db" y="307.584"/>
      </g>
     </g>
     <g id="text_2">
      <!-- −7.5 -->
      <defs>
       <path d="M 8.203125 72.90625 
L 55.078125 72.90625 
L 55.078125 68.703125 
L 28.609375 0 
L 18.3125 0 
L 43.21875 64.59375 
L 8.203125 64.59375 
z
" id="DejaVuSans-37"/>
       <path d="M 10.796875 72.90625 
L 49.515625 72.90625 
L 49.515625 64.59375 
L 19.828125 64.59375 
L 19.828125 46.734375 
Q 21.96875 47.46875 24.109375 47.828125 
Q 26.265625 48.1875 28.421875 48.1875 
Q 40.625 48.1875 47.75 41.5 
Q 54.890625 34.8125 54.890625 23.390625 
Q 54.890625 11.625 47.5625 5.09375 
Q 40.234375 -1.421875 26.90625 -1.421875 
Q 22.3125 -1.421875 17.546875 -0.640625 
Q 12.796875 0.140625 7.71875 1.703125 
L 7.71875 11.625 
Q 12.109375 9.234375 16.796875 8.0625 
Q 21.484375 6.890625 26.703125 6.890625 
Q 35.15625 6.890625 40.078125 11.328125 
Q 45.015625 15.765625 45.015625 23.390625 
Q 45.015625 31 40.078125 35.4375 
Q 35.15625 39.890625 26.703125 39.890625 
Q 22.75 39.890625 18.8125 39.015625 
Q 14.890625 38.140625 10.796875 36.28125 
z
" id="DejaVuSans-35"/>
      </defs>
      <g transform="translate(90.098594 322.182437)scale(0.1 -0.1)">
       <use xlink:href="#DejaVuSans-2212"/>
       <use x="83.789062" xlink:href="#DejaVuSans-37"/>
       <use x="147.412109" xlink:href="#DejaVuSans-2e"/>
       <use x="179.199219" xlink:href="#DejaVuSans-35"/>
      </g>
     </g>
    </g>
    <g id="xtick_3">
     <g id="line2d_3">
      <g>
       <use style="stroke:#000000;stroke-width:0.8;" x="146.88" xlink:href="#m15dfa8a3db" y="307.584"/>
      </g>
     </g>
     <g id="text_3">
      <!-- −5.0 -->
      <g transform="translate(134.738594 322.182437)scale(0.1 -0.1)">
       <use xlink:href="#DejaVuSans-2212"/>
       <use x="83.789062" xlink:href="#DejaVuSans-35"/>
       <use x="147.412109" xlink:href="#DejaVuSans-2e"/>
       <use x="179.199219" xlink:href="#DejaVuSans-30"/>
      </g>
     </g>
    </g>
    <g id="xtick_4">
     <g id="line2d_4">
      <g>
       <use style="stroke:#000000;stroke-width:0.8;" x="191.52" xlink:href="#m15dfa8a3db" y="307.584"/>
      </g>
     </g>
     <g id="text_4">
      <!-- −2.5 -->
      <defs>
       <path d="M 19.1875 8.296875 
L 53.609375 8.296875 
L 53.609375 0 
L 7.328125 0 
L 7.328125 8.296875 
Q 12.9375 14.109375 22.625 23.890625 
Q 32.328125 33.6875 34.8125 36.53125 
Q 39.546875 41.84375 41.421875 45.53125 
Q 43.3125 49.21875 43.3125 52.78125 
Q 43.3125 58.59375 39.234375 62.25 
Q 35.15625 65.921875 28.609375 65.921875 
Q 23.96875 65.921875 18.8125 64.3125 
Q 13.671875 62.703125 7.8125 59.421875 
L 7.8125 69.390625 
Q 13.765625 71.78125 18.9375 73 
Q 24.125 74.21875 28.421875 74.21875 
Q 39.75 74.21875 46.484375 68.546875 
Q 53.21875 62.890625 53.21875 53.421875 
Q 53.21875 48.921875 51.53125 44.890625 
Q 49.859375 40.875 45.40625 35.40625 
Q 44.1875 33.984375 37.640625 27.21875 
Q 31.109375 20.453125 19.1875 8.296875 
z
" id="DejaVuSans-32"/>
      </defs>
      <g transform="translate(179.378594 322.182437)scale(0.1 -0.1)">
       <use xlink:href="#DejaVuSans-2212"/>
       <use x="83.789062" xlink:href="#DejaVuSans-32"/>
       <use x="147.412109" xlink:href="#DejaVuSans-2e"/>
       <use x="179.199219" xlink:href="#DejaVuSans-35"/>
      </g>
     </g>
    </g>
    <g id="xtick_5">
     <g id="line2d_5">
      <g>
       <use style="stroke:#000000;stroke-width:0.8;" x="236.16" xlink:href="#m15dfa8a3db" y="307.584"/>
      </g>
     </g>
     <g id="text_5">
      <!-- 0.0 -->
      <g transform="translate(228.208438 322.182437)scale(0.1 -0.1)">
       <use xlink:href="#DejaVuSans-30"/>
       <use x="63.623047" xlink:href="#DejaVuSans-2e"/>
       <use x="95.410156" xlink:href="#DejaVuSans-30"/>
      </g>
     </g>
    </g>
    <g id="xtick_6">
     <g id="line2d_6">
      <g>
       <use style="stroke:#000000;stroke-width:0.8;" x="280.8" xlink:href="#m15dfa8a3db" y="307.584"/>
      </g>
     </g>
     <g id="text_6">
      <!-- 2.5 -->
      <g transform="translate(272.848437 322.182437)scale(0.1 -0.1)">
       <use xlink:href="#DejaVuSans-32"/>
       <use x="63.623047" xlink:href="#DejaVuSans-2e"/>
       <use x="95.410156" xlink:href="#DejaVuSans-35"/>
      </g>
     </g>
    </g>
    <g id="xtick_7">
     <g id="line2d_7">
      <g>
       <use style="stroke:#000000;stroke-width:0.8;" x="325.44" xlink:href="#m15dfa8a3db" y="307.584"/>
      </g>
     </g>
     <g id="text_7">
      <!-- 5.0 -->
      <g transform="translate(317.488437 322.182437)scale(0.1 -0.1)">
       <use xlink:href="#DejaVuSans-35"/>
       <use x="63.623047" xlink:href="#DejaVuSans-2e"/>
       <use x="95.410156" xlink:href="#DejaVuSans-30"/>
      </g>
     </g>
    </g>
    <g id="xtick_8">
     <g id="line2d_8">
      <g>
       <use style="stroke:#000000;stroke-width:0.8;" x="370.08" xlink:href="#m15dfa8a3db" y="307.584"/>
      </g>
     </g>
     <g id="text_8">
      <!-- 7.5 -->
      <g transform="translate(362.128438 322.182437)scale(0.1 -0.1)">
       <use xlink:href="#DejaVuSans-37"/>
       <use x="63.623047" xlink:href="#DejaVuSans-2e"/>
       <use x="95.410156" xlink:href="#DejaVuSans-35"/>
      </g>
     </g>
    </g>
    <g id="xtick_9">
     <g id="line2d_9">
      <g>
       <use style="stroke:#000000;stroke-width:0.8;" x="414.72" xlink:href="#m15dfa8a3db" y="307.584"/>
      </g>
     </g>
     <g id="text_9">
      <!-- 10.0 -->
      <g transform="translate(403.587188 322.182437)scale(0.1 -0.1)">
       <use xlink:href="#DejaVuSans-31"/>
       <use x="63.623047" xlink:href="#DejaVuSans-30"/>
       <use x="127.246094" xlink:href="#DejaVuSans-2e"/>
       <use x="159.033203" xlink:href="#DejaVuSans-30"/>
      </g>
     </g>
    </g>
   </g>
   <g id="matplotlib.axis_2">
    <g id="ytick_1">
     <g id="line2d_10">
      <defs>
       <path d="M 0 0 
L -3.5 0 
" id="mc7fc2b31e6" style="stroke:#000000;stroke-width:0.8;"/>
      </defs>
      <g>
       <use style="stroke:#000000;stroke-width:0.8;" x="57.6" xlink:href="#mc7fc2b31e6" y="307.584"/>
      </g>
     </g>
     <g id="text_10">
      <!-- −10.0 -->
      <g transform="translate(19.954687 311.383219)scale(0.1 -0.1)">
       <use xlink:href="#DejaVuSans-2212"/>
       <use x="83.789062" xlink:href="#DejaVuSans-31"/>
       <use x="147.412109" xlink:href="#DejaVuSans-30"/>
       <use x="211.035156" xlink:href="#DejaVuSans-2e"/>
       <use x="242.822266" xlink:href="#DejaVuSans-30"/>
      </g>
     </g>
    </g>
    <g id="ytick_2">
     <g id="line2d_11">
      <g>
       <use style="stroke:#000000;stroke-width:0.8;" x="57.6" xlink:href="#mc7fc2b31e6" y="274.32"/>
      </g>
     </g>
     <g id="text_11">
      <!-- −7.5 -->
      <g transform="translate(26.317187 278.119219)scale(0.1 -0.1)">
       <use xlink:href="#DejaVuSans-2212"/>
       <use x="83.789062" xlink:href="#DejaVuSans-37"/>
       <use x="147.412109" xlink:href="#DejaVuSans-2e"/>
       <use x="179.199219" xlink:href="#DejaVuSans-35"/>
      </g>
     </g>
    </g>
    <g id="ytick_3">
     <g id="line2d_12">
      <g>
       <use style="stroke:#000000;stroke-width:0.8;" x="57.6" xlink:href="#mc7fc2b31e6" y="241.056"/>
      </g>
     </g>
     <g id="text_12">
      <!-- −5.0 -->
      <g transform="translate(26.317187 244.855219)scale(0.1 -0.1)">
       <use xlink:href="#DejaVuSans-2212"/>
       <use x="83.789062" xlink:href="#DejaVuSans-35"/>
       <use x="147.412109" xlink:href="#DejaVuSans-2e"/>
       <use x="179.199219" xlink:href="#DejaVuSans-30"/>
      </g>
     </g>
    </g>
    <g id="ytick_4">
     <g id="line2d_13">
      <g>
       <use style="stroke:#000000;stroke-width:0.8;" x="57.6" xlink:href="#mc7fc2b31e6" y="207.792"/>
      </g>
     </g>
     <g id="text_13">
      <!-- −2.5 -->
      <g transform="translate(26.317187 211.591219)scale(0.1 -0.1)">
       <use xlink:href="#DejaVuSans-2212"/>
       <use x="83.789062" xlink:href="#DejaVuSans-32"/>
       <use x="147.412109" xlink:href="#DejaVuSans-2e"/>
       <use x="179.199219" xlink:href="#DejaVuSans-35"/>
      </g>
     </g>
    </g>
    <g id="ytick_5">
     <g id="line2d_14">
      <g>
       <use style="stroke:#000000;stroke-width:0.8;" x="57.6" xlink:href="#mc7fc2b31e6" y="174.528"/>
      </g>
     </g>
     <g id="text_14">
      <!-- 0.0 -->
      <g transform="translate(34.696875 178.327219)scale(0.1 -0.1)">
       <use xlink:href="#DejaVuSans-30"/>
       <use x="63.623047" xlink:href="#DejaVuSans-2e"/>
       <use x="95.410156" xlink:href="#DejaVuSans-30"/>
      </g>
     </g>
    </g>
    <g id="ytick_6">
     <g id="line2d_15">
      <g>
       <use style="stroke:#000000;stroke-width:0.8;" x="57.6" xlink:href="#mc7fc2b31e6" y="141.264"/>
      </g>
     </g>
     <g id="text_15">
      <!-- 2.5 -->
      <g transform="translate(34.696875 145.063219)scale(0.1 -0.1)">
       <use xlink:href="#DejaVuSans-32"/>
       <use x="63.623047" xlink:href="#DejaVuSans-2e"/>
       <use x="95.410156" xlink:href="#DejaVuSans-35"/>
      </g>
     </g>
    </g>
    <g id="ytick_7">
     <g id="line2d_16">
      <g>
       <use style="stroke:#000000;stroke-width:0.8;" x="57.6" xlink:href="#mc7fc2b31e6" y="108"/>
      </g>
     </g>
     <g id="text_16">
      <!-- 5.0 -->
      <g transform="translate(34.696875 111.799219)scale(0.1 -0.1)">
       <use xlink:href="#DejaVuSans-35"/>
       <use x="63.623047" xlink:href="#DejaVuSans-2e"/>
       <use x="95.410156" xlink:href="#DejaVuSans-30"/>
      </g>
     </g>
    </g>
    <g id="ytick_8">
     <g id="line2d_17">
      <g>
       <use style="stroke:#000000;stroke-width:0.8;" x="57.6" xlink:href="#mc7fc2b31e6" y="74.736"/>
      </g>
     </g>
     <g id="text_17">
      <!-- 7.5 -->
      <g transform="translate(34.696875 78.535219)scale(0.1 -0.1)">
       <use xlink:href="#DejaVuSans-37"/>
       <use x="63.623047" xlink:href="#DejaVuSans-2e"/>
       <use x="95.410156" xlink:href="#DejaVuSans-35"/>
      </g>
     </g>
    </g>
    <g id="ytick_9">
     <g id="line2d_18">
      <g>
       <use style="stroke:#000000;stroke-width:0.8;" x="57.6" xlink:href="#mc7fc2b31e6" y="41.472"/>
      </g>
     </g>
     <g id="text_18">
      <!-- 10.0 -->
      <g transform="translate(28.334375 45.271219)scale(0.1 -0.1)">
       <use xlink:href="#DejaVuSans-31"/>
       <use x="63.623047" xlink:href="#DejaVuSans-30"/>
       <use x="127.246094" xlink:href="#DejaVuSans-2e"/>
       <use x="159.033203" xlink:href="#DejaVuSans-30"/>
      </g>
     </g>
    </g>
   </g>
   <g id="patch_3">
    <path d="M 57.6 307.584 
L 57.6 41.472 
" style="fill:none;stroke:#000000;stroke-linecap:square;stroke-linejoin:miter;stroke-width:0.8;"/>
   </g>
   <g id="patch_4">
    <path d="M 414.72 307.584 
L 414.72 41.472 
" style="fill:none;stroke:#000000;stroke-linecap:square;stroke-linejoin:miter;stroke-width:0.8;"/>
   </g>
   <g id="patch_5">
    <path d="M 57.6 307.584 
L 414.72 307.584 
" style="fill:none;stroke:#000000;stroke-linecap:square;stroke-linejoin:miter;stroke-width:0.8;"/>
   </g>
   <g id="patch_6">
    <path d="M 57.6 41.472 
L 414.72 41.472 
" style="fill:none;stroke:#000000;stroke-linecap:square;stroke-linejoin:miter;stroke-width:0.8;"/>
   </g>
  </g>
 </g>
 <defs>
  <clipPath id="pa81999854b">
   <rect height="266.112" width="357.12" x="57.6" y="41.472"/>
  </clipPath>
 </defs>
</svg>
