<?xml version="1.0" encoding="utf-8" standalone="no"?>
<!DOCTYPE svg PUBLIC "-//W3C//DTD SVG 1.1//EN"
  "http://www.w3.org/Graphics/SVG/1.1/DTD/svg11.dtd">
<!-- Created with matplotlib (http://matplotlib.org/) -->
<svg height="345.6pt" version="1.1" viewBox="0 0 460.8 345.6" width="460.8pt" xmlns="http://www.w3.org/2000/svg" xmlns:xlink="http://www.w3.org/1999/xlink">
 <defs>
  <style type="text/css">
*{stroke-linecap:butt;stroke-linejoin:round;}
  </style>
 </defs>
 <g id="figure_1">
  <g id="patch_1">
   <path d="M 0 345.6 
L 460.8 345.6 
L 460.8 0 
L 0 0 
z
" style="fill:#ffffff;"/>
  </g>
  <g id="axes_1">
   <g id="patch_2">
    <path d="M 57.6 307.584 
L 414.72 307.584 
L 414.72 41.472 
L 57.6 41.472 
z
" style="fill:#ffffff;"/>
   </g>
   <g id="PathCollection_1">
    <defs>
     <path d="M 0 0.612372 
C 0.162403 0.612372 0.318176 0.547849 0.433013 0.433013 
C 0.547849 0.318176 0.612372 0.162403 0.612372 0 
C 0.612372 -0.162403 0.547849 -0.318176 0.433013 -0.433013 
C 0.318176 -0.547849 0.162403 -0.612372 0 -0.612372 
C -0.162403 -0.612372 -0.318176 -0.547849 -0.433013 -0.433013 
C -0.547849 -0.318176 -0.612372 -0.162403 -0.612372 0 
C -0.612372 0.162403 -0.547849 0.318176 -0.433013 0.433013 
C -0.318176 0.547849 -0.162403 0.612372 0 0.612372 
z
" id="m070667d756" style="stroke:#000000;"/>
    </defs>
    <g clip-path="url(#p68f56b7af8)">
     <use style="stroke:#000000;" x="244.058506" xlink:href="#m070667d756" y="172.86638"/>
     <use style="stroke:#000000;" x="239.994458" xlink:href="#m070667d756" y="174.258651"/>
     <use style="stroke:#000000;" x="243.899144" xlink:href="#m070667d756" y="169.28692"/>
     <use style="stroke:#000000;" x="236.362051" xlink:href="#m070667d756" y="173.451872"/>
     <use style="stroke:#000000;" x="238.421594" xlink:href="#m070667d756" y="174.528"/>
     <use style="stroke:#000000;" x="240.028061" xlink:href="#m070667d756" y="173.311037"/>
     <use style="stroke:#000000;" x="236.16" xlink:href="#m070667d756" y="174.528"/>
     <use style="stroke:#000000;" x="240.495717" xlink:href="#m070667d756" y="173.706591"/>
     <use style="stroke:#000000;" x="247.657095" xlink:href="#m070667d756" y="166.368295"/>
     <use style="stroke:#000000;" x="236.915391" xlink:href="#m070667d756" y="173.957792"/>
     <use style="stroke:#000000;" x="240.865334" xlink:href="#m070667d756" y="173.895701"/>
     <use style="stroke:#000000;" x="244.30283" xlink:href="#m070667d756" y="169.598793"/>
     <use style="stroke:#000000;" x="247.482411" xlink:href="#m070667d756" y="166.966036"/>
     <use style="stroke:#000000;" x="247.452614" xlink:href="#m070667d756" y="168.587889"/>
     <use style="stroke:#000000;" x="243.783703" xlink:href="#m070667d756" y="171.894742"/>
     <use style="stroke:#000000;" x="243.793084" xlink:href="#m070667d756" y="169.472584"/>
     <use style="stroke:#000000;" x="236.959888" xlink:href="#m070667d756" y="173.675265"/>
     <use style="stroke:#000000;" x="243.882653" xlink:href="#m070667d756" y="167.960293"/>
     <use style="stroke:#000000;" x="240.638683" xlink:href="#m070667d756" y="174.264059"/>
     <use style="stroke:#000000;" x="243.705896" xlink:href="#m070667d756" y="169.284368"/>
     <use style="stroke:#000000;" x="244.119578" xlink:href="#m070667d756" y="168.636072"/>
     <use style="stroke:#000000;" x="243.74938" xlink:href="#m070667d756" y="171.078497"/>
     <use style="stroke:#000000;" x="244.063109" xlink:href="#m070667d756" y="168.568833"/>
     <use style="stroke:#000000;" x="238.123011" xlink:href="#m070667d756" y="172.84825"/>
     <use style="stroke:#000000;" x="236.812264" xlink:href="#m070667d756" y="174.252843"/>
     <use style="stroke:#000000;" x="240.352859" xlink:href="#m070667d756" y="174.528"/>
     <use style="stroke:#000000;" x="240.038125" xlink:href="#m070667d756" y="174.528"/>
     <use style="stroke:#000000;" x="239.82238" xlink:href="#m070667d756" y="173.217004"/>
     <use style="stroke:#000000;" x="236.792017" xlink:href="#m070667d756" y="174.528"/>
     <use style="stroke:#000000;" x="237.133942" xlink:href="#m070667d756" y="174.528"/>
     <use style="stroke:#000000;" x="240.640998" xlink:href="#m070667d756" y="173.819842"/>
     <use style="stroke:#000000;" x="243.630621" xlink:href="#m070667d756" y="172.096107"/>
     <use style="stroke:#000000;" x="236.16" xlink:href="#m070667d756" y="173.401225"/>
     <use style="stroke:#000000;" x="239.87326" xlink:href="#m070667d756" y="173.839013"/>
     <use style="stroke:#000000;" x="240.730878" xlink:href="#m070667d756" y="174.528"/>
     <use style="stroke:#000000;" x="241.208712" xlink:href="#m070667d756" y="174.528"/>
     <use style="stroke:#000000;" x="240.99563" xlink:href="#m070667d756" y="174.528"/>
     <use style="stroke:#000000;" x="247.808945" xlink:href="#m070667d756" y="169.4751"/>
     <use style="stroke:#000000;" x="251.353962" xlink:href="#m070667d756" y="173.341596"/>
     <use style="stroke:#000000;" x="240.617238" xlink:href="#m070667d756" y="174.528"/>
     <use style="stroke:#000000;" x="243.755128" xlink:href="#m070667d756" y="172.327772"/>
     <use style="stroke:#000000;" x="237.416876" xlink:href="#m070667d756" y="174.528"/>
     <use style="stroke:#000000;" x="237.882114" xlink:href="#m070667d756" y="174.528"/>
     <use style="stroke:#000000;" x="237.217946" xlink:href="#m070667d756" y="172.830637"/>
     <use style="stroke:#000000;" x="247.36227" xlink:href="#m070667d756" y="167.662166"/>
     <use style="stroke:#000000;" x="237.93155" xlink:href="#m070667d756" y="173.688518"/>
     <use style="stroke:#000000;" x="247.418132" xlink:href="#m070667d756" y="169.73809"/>
     <use style="stroke:#000000;" x="244.124776" xlink:href="#m070667d756" y="169.258259"/>
     <use style="stroke:#000000;" x="244.243318" xlink:href="#m070667d756" y="169.352469"/>
     <use style="stroke:#000000;" x="243.88522" xlink:href="#m070667d756" y="169.501898"/>
     <use style="stroke:#000000;" x="237.1906" xlink:href="#m070667d756" y="172.818117"/>
     <use style="stroke:#000000;" x="243.784347" xlink:href="#m070667d756" y="171.0382"/>
     <use style="stroke:#000000;" x="247.57512" xlink:href="#m070667d756" y="173.491494"/>
     <use style="stroke:#000000;" x="247.514801" xlink:href="#m070667d756" y="169.236774"/>
     <use style="stroke:#000000;" x="243.879192" xlink:href="#m070667d756" y="168.401643"/>
     <use style="stroke:#000000;" x="244.089095" xlink:href="#m070667d756" y="169.947251"/>
     <use style="stroke:#000000;" x="238.918656" xlink:href="#m070667d756" y="174.252467"/>
     <use style="stroke:#000000;" x="237.178308" xlink:href="#m070667d756" y="174.528"/>
     <use style="stroke:#000000;" x="240.707692" xlink:href="#m070667d756" y="172.875293"/>
     <use style="stroke:#000000;" x="240.832254" xlink:href="#m070667d756" y="173.936121"/>
     <use style="stroke:#000000;" x="240.712266" xlink:href="#m070667d756" y="173.198981"/>
     <use style="stroke:#000000;" x="240.7216" xlink:href="#m070667d756" y="174.433162"/>
     <use style="stroke:#000000;" x="239.842773" xlink:href="#m070667d756" y="174.528"/>
     <use style="stroke:#000000;" x="241.216904" xlink:href="#m070667d756" y="174.528"/>
     <use style="stroke:#000000;" x="241.353457" xlink:href="#m070667d756" y="174.002818"/>
     <use style="stroke:#000000;" x="240.076951" xlink:href="#m070667d756" y="173.100539"/>
     <use style="stroke:#000000;" x="236.84698" xlink:href="#m070667d756" y="173.277821"/>
     <use style="stroke:#000000;" x="240.509204" xlink:href="#m070667d756" y="171.878273"/>
     <use style="stroke:#000000;" x="240.437733" xlink:href="#m070667d756" y="174.24478"/>
     <use style="stroke:#000000;" x="243.530808" xlink:href="#m070667d756" y="169.785148"/>
     <use style="stroke:#000000;" x="240.586078" xlink:href="#m070667d756" y="174.457835"/>
     <use style="stroke:#000000;" x="240.127452" xlink:href="#m070667d756" y="172.00239"/>
     <use style="stroke:#000000;" x="236.16" xlink:href="#m070667d756" y="173.646361"/>
     <use style="stroke:#000000;" x="237.578327" xlink:href="#m070667d756" y="174.528"/>
     <use style="stroke:#000000;" x="240.621617" xlink:href="#m070667d756" y="172.405109"/>
     <use style="stroke:#000000;" x="237.055286" xlink:href="#m070667d756" y="174.528"/>
     <use style="stroke:#000000;" x="240.047809" xlink:href="#m070667d756" y="171.217503"/>
     <use style="stroke:#000000;" x="243.873983" xlink:href="#m070667d756" y="172.907617"/>
     <use style="stroke:#000000;" x="240.309835" xlink:href="#m070667d756" y="174.528"/>
     <use style="stroke:#000000;" x="251.181695" xlink:href="#m070667d756" y="173.519537"/>
     <use style="stroke:#000000;" x="244.254536" xlink:href="#m070667d756" y="172.784015"/>
     <use style="stroke:#000000;" x="242.769808" xlink:href="#m070667d756" y="171.796993"/>
     <use style="stroke:#000000;" x="245.192432" xlink:href="#m070667d756" y="172.859967"/>
     <use style="stroke:#000000;" x="240.581426" xlink:href="#m070667d756" y="174.528"/>
     <use style="stroke:#000000;" x="238.92178" xlink:href="#m070667d756" y="174.494283"/>
     <use style="stroke:#000000;" x="239.09505" xlink:href="#m070667d756" y="174.528"/>
     <use style="stroke:#000000;" x="239.137702" xlink:href="#m070667d756" y="173.383829"/>
     <use style="stroke:#000000;" x="243.834021" xlink:href="#m070667d756" y="169.110237"/>
     <use style="stroke:#000000;" x="242.453311" xlink:href="#m070667d756" y="170.77708"/>
     <use style="stroke:#000000;" x="244.213249" xlink:href="#m070667d756" y="169.777436"/>
     <use style="stroke:#000000;" x="239.023294" xlink:href="#m070667d756" y="172.765824"/>
     <use style="stroke:#000000;" x="237.819246" xlink:href="#m070667d756" y="173.11667"/>
     <use style="stroke:#000000;" x="236.16" xlink:href="#m070667d756" y="174.224964"/>
     <use style="stroke:#000000;" x="238.211179" xlink:href="#m070667d756" y="173.474535"/>
     <use style="stroke:#000000;" x="238.637185" xlink:href="#m070667d756" y="174.528"/>
     <use style="stroke:#000000;" x="238.39318" xlink:href="#m070667d756" y="174.528"/>
     <use style="stroke:#000000;" x="240.137261" xlink:href="#m070667d756" y="171.905806"/>
     <use style="stroke:#000000;" x="239.703734" xlink:href="#m070667d756" y="172.522285"/>
     <use style="stroke:#000000;" x="241.866959" xlink:href="#m070667d756" y="174.528"/>
     <use style="stroke:#000000;" x="236.16" xlink:href="#m070667d756" y="173.484944"/>
     <use style="stroke:#000000;" x="236.16" xlink:href="#m070667d756" y="174.528"/>
     <use style="stroke:#000000;" x="236.16" xlink:href="#m070667d756" y="174.43423"/>
     <use style="stroke:#000000;" x="239.656646" xlink:href="#m070667d756" y="173.254003"/>
     <use style="stroke:#000000;" x="241.91028" xlink:href="#m070667d756" y="174.528"/>
     <use style="stroke:#000000;" x="240.021422" xlink:href="#m070667d756" y="173.570554"/>
     <use style="stroke:#000000;" x="248.070309" xlink:href="#m070667d756" y="165.775662"/>
     <use style="stroke:#000000;" x="247.940117" xlink:href="#m070667d756" y="167.492351"/>
     <use style="stroke:#000000;" x="246.345431" xlink:href="#m070667d756" y="166.621797"/>
     <use style="stroke:#000000;" x="236.16" xlink:href="#m070667d756" y="174.528"/>
     <use style="stroke:#000000;" x="238.72812" xlink:href="#m070667d756" y="174.528"/>
     <use style="stroke:#000000;" x="239.145987" xlink:href="#m070667d756" y="174.528"/>
     <use style="stroke:#000000;" x="240.184816" xlink:href="#m070667d756" y="174.528"/>
     <use style="stroke:#000000;" x="238.560953" xlink:href="#m070667d756" y="174.446745"/>
     <use style="stroke:#000000;" x="239.906094" xlink:href="#m070667d756" y="173.79798"/>
     <use style="stroke:#000000;" x="244.946329" xlink:href="#m070667d756" y="170.776093"/>
     <use style="stroke:#000000;" x="240.980365" xlink:href="#m070667d756" y="169.878005"/>
     <use style="stroke:#000000;" x="244.891888" xlink:href="#m070667d756" y="171.206784"/>
     <use style="stroke:#000000;" x="246.406717" xlink:href="#m070667d756" y="167.83674"/>
     <use style="stroke:#000000;" x="246.770183" xlink:href="#m070667d756" y="167.858668"/>
     <use style="stroke:#000000;" x="246.051866" xlink:href="#m070667d756" y="166.77011"/>
     <use style="stroke:#000000;" x="247.440167" xlink:href="#m070667d756" y="168.611795"/>
     <use style="stroke:#000000;" x="247.219077" xlink:href="#m070667d756" y="166.648034"/>
     <use style="stroke:#000000;" x="247.350992" xlink:href="#m070667d756" y="169.758165"/>
     <use style="stroke:#000000;" x="244.775491" xlink:href="#m070667d756" y="172.822754"/>
     <use style="stroke:#000000;" x="242.402081" xlink:href="#m070667d756" y="169.968964"/>
     <use style="stroke:#000000;" x="243.151581" xlink:href="#m070667d756" y="172.353405"/>
     <use style="stroke:#000000;" x="244.022395" xlink:href="#m070667d756" y="170.187275"/>
     <use style="stroke:#000000;" x="243.200913" xlink:href="#m070667d756" y="169.763047"/>
     <use style="stroke:#000000;" x="245.369611" xlink:href="#m070667d756" y="169.352243"/>
     <use style="stroke:#000000;" x="239.06737" xlink:href="#m070667d756" y="174.310529"/>
     <use style="stroke:#000000;" x="237.701649" xlink:href="#m070667d756" y="174.528"/>
     <use style="stroke:#000000;" x="238.942663" xlink:href="#m070667d756" y="171.683881"/>
     <use style="stroke:#000000;" x="244.492059" xlink:href="#m070667d756" y="167.116839"/>
     <use style="stroke:#000000;" x="245.65062" xlink:href="#m070667d756" y="168.028838"/>
     <use style="stroke:#000000;" x="243.692971" xlink:href="#m070667d756" y="168.207689"/>
     <use style="stroke:#000000;" x="240.637862" xlink:href="#m070667d756" y="174.434146"/>
     <use style="stroke:#000000;" x="239.527695" xlink:href="#m070667d756" y="174.528"/>
     <use style="stroke:#000000;" x="239.268704" xlink:href="#m070667d756" y="174.058619"/>
     <use style="stroke:#000000;" x="243.551313" xlink:href="#m070667d756" y="169.311422"/>
     <use style="stroke:#000000;" x="242.344747" xlink:href="#m070667d756" y="168.938152"/>
     <use style="stroke:#000000;" x="245.046878" xlink:href="#m070667d756" y="168.990897"/>
     <use style="stroke:#000000;" x="242.546297" xlink:href="#m070667d756" y="167.957413"/>
     <use style="stroke:#000000;" x="244.345155" xlink:href="#m070667d756" y="169.47944"/>
     <use style="stroke:#000000;" x="242.884865" xlink:href="#m070667d756" y="169.69144"/>
     <use style="stroke:#000000;" x="244.148799" xlink:href="#m070667d756" y="171.510731"/>
     <use style="stroke:#000000;" x="244.095617" xlink:href="#m070667d756" y="171.848974"/>
     <use style="stroke:#000000;" x="244.917847" xlink:href="#m070667d756" y="171.280893"/>
     <use style="stroke:#000000;" x="242.568483" xlink:href="#m070667d756" y="168.228638"/>
     <use style="stroke:#000000;" x="242.938639" xlink:href="#m070667d756" y="169.788656"/>
     <use style="stroke:#000000;" x="239.61146" xlink:href="#m070667d756" y="172.547519"/>
     <use style="stroke:#000000;" x="239.026942" xlink:href="#m070667d756" y="170.679554"/>
     <use style="stroke:#000000;" x="238.890321" xlink:href="#m070667d756" y="173.00927"/>
     <use style="stroke:#000000;" x="238.080788" xlink:href="#m070667d756" y="173.260249"/>
     <use style="stroke:#000000;" x="236.852448" xlink:href="#m070667d756" y="174.528"/>
     <use style="stroke:#000000;" x="238.816925" xlink:href="#m070667d756" y="173.441776"/>
     <use style="stroke:#000000;" x="240.550466" xlink:href="#m070667d756" y="174.466399"/>
     <use style="stroke:#000000;" x="238.299019" xlink:href="#m070667d756" y="174.45151"/>
     <use style="stroke:#000000;" x="238.617778" xlink:href="#m070667d756" y="173.407967"/>
     <use style="stroke:#000000;" x="241.326327" xlink:href="#m070667d756" y="173.611269"/>
     <use style="stroke:#000000;" x="239.395391" xlink:href="#m070667d756" y="174.528"/>
     <use style="stroke:#000000;" x="237.672956" xlink:href="#m070667d756" y="174.528"/>
     <use style="stroke:#000000;" x="236.98714" xlink:href="#m070667d756" y="173.012039"/>
     <use style="stroke:#000000;" x="236.16" xlink:href="#m070667d756" y="173.973659"/>
     <use style="stroke:#000000;" x="238.631309" xlink:href="#m070667d756" y="174.528"/>
     <use style="stroke:#000000;" x="240.803857" xlink:href="#m070667d756" y="174.409361"/>
     <use style="stroke:#000000;" x="243.177276" xlink:href="#m070667d756" y="173.952968"/>
     <use style="stroke:#000000;" x="244.327355" xlink:href="#m070667d756" y="170.890452"/>
     <use style="stroke:#000000;" x="241.962991" xlink:href="#m070667d756" y="172.244531"/>
     <use style="stroke:#000000;" x="237.507441" xlink:href="#m070667d756" y="171.261503"/>
     <use style="stroke:#000000;" x="236.16" xlink:href="#m070667d756" y="174.528"/>
     <use style="stroke:#000000;" x="239.154844" xlink:href="#m070667d756" y="174.469071"/>
     <use style="stroke:#000000;" x="239.479793" xlink:href="#m070667d756" y="174.528"/>
     <use style="stroke:#000000;" x="241.996303" xlink:href="#m070667d756" y="174.528"/>
     <use style="stroke:#000000;" x="241.538999" xlink:href="#m070667d756" y="174.528"/>
     <use style="stroke:#000000;" x="241.487052" xlink:href="#m070667d756" y="174.144277"/>
     <use style="stroke:#000000;" x="239.624686" xlink:href="#m070667d756" y="174.26036"/>
     <use style="stroke:#000000;" x="240.558893" xlink:href="#m070667d756" y="174.528"/>
     <use style="stroke:#000000;" x="240.326614" xlink:href="#m070667d756" y="174.26517"/>
     <use style="stroke:#000000;" x="249.767912" xlink:href="#m070667d756" y="170.819617"/>
     <use style="stroke:#000000;" x="252.238864" xlink:href="#m070667d756" y="174.005944"/>
     <use style="stroke:#000000;" x="252.213798" xlink:href="#m070667d756" y="171.144691"/>
     <use style="stroke:#000000;" x="253.047775" xlink:href="#m070667d756" y="171.424774"/>
     <use style="stroke:#000000;" x="237.933633" xlink:href="#m070667d756" y="172.46942"/>
     <use style="stroke:#000000;" x="244.435107" xlink:href="#m070667d756" y="173.294454"/>
     <use style="stroke:#000000;" x="244.65253" xlink:href="#m070667d756" y="170.783707"/>
     <use style="stroke:#000000;" x="240.187094" xlink:href="#m070667d756" y="174.528"/>
     <use style="stroke:#000000;" x="238.220287" xlink:href="#m070667d756" y="172.822984"/>
     <use style="stroke:#000000;" x="236.16" xlink:href="#m070667d756" y="172.338737"/>
     <use style="stroke:#000000;" x="239.719103" xlink:href="#m070667d756" y="174.081535"/>
     <use style="stroke:#000000;" x="238.17228" xlink:href="#m070667d756" y="173.437298"/>
     <use style="stroke:#000000;" x="236.16" xlink:href="#m070667d756" y="171.653304"/>
     <use style="stroke:#000000;" x="247.018064" xlink:href="#m070667d756" y="167.190319"/>
     <use style="stroke:#000000;" x="247.239612" xlink:href="#m070667d756" y="169.001576"/>
     <use style="stroke:#000000;" x="238.956075" xlink:href="#m070667d756" y="172.796958"/>
     <use style="stroke:#000000;" x="236.402137" xlink:href="#m070667d756" y="173.666339"/>
     <use style="stroke:#000000;" x="246.898065" xlink:href="#m070667d756" y="168.626566"/>
     <use style="stroke:#000000;" x="246.139999" xlink:href="#m070667d756" y="170.047101"/>
     <use style="stroke:#000000;" x="244.646642" xlink:href="#m070667d756" y="170.362593"/>
     <use style="stroke:#000000;" x="246.85801" xlink:href="#m070667d756" y="169.899775"/>
     <use style="stroke:#000000;" x="243.520161" xlink:href="#m070667d756" y="168.75449"/>
     <use style="stroke:#000000;" x="243.774214" xlink:href="#m070667d756" y="168.730348"/>
     <use style="stroke:#000000;" x="242.88576" xlink:href="#m070667d756" y="169.550826"/>
     <use style="stroke:#000000;" x="244.296995" xlink:href="#m070667d756" y="170.493002"/>
     <use style="stroke:#000000;" x="242.540276" xlink:href="#m070667d756" y="168.452408"/>
     <use style="stroke:#000000;" x="236.16" xlink:href="#m070667d756" y="172.82971"/>
     <use style="stroke:#000000;" x="238.153529" xlink:href="#m070667d756" y="174.291204"/>
     <use style="stroke:#000000;" x="243.065917" xlink:href="#m070667d756" y="170.549863"/>
     <use style="stroke:#000000;" x="244.35811" xlink:href="#m070667d756" y="170.179715"/>
     <use style="stroke:#000000;" x="243.981483" xlink:href="#m070667d756" y="171.434571"/>
     <use style="stroke:#000000;" x="245.560028" xlink:href="#m070667d756" y="172.768361"/>
     <use style="stroke:#000000;" x="246.7349" xlink:href="#m070667d756" y="172.096904"/>
     <use style="stroke:#000000;" x="246.396081" xlink:href="#m070667d756" y="169.070055"/>
     <use style="stroke:#000000;" x="247.06354" xlink:href="#m070667d756" y="169.414152"/>
     <use style="stroke:#000000;" x="247.194938" xlink:href="#m070667d756" y="170.070994"/>
     <use style="stroke:#000000;" x="243.333195" xlink:href="#m070667d756" y="166.882444"/>
     <use style="stroke:#000000;" x="245.341754" xlink:href="#m070667d756" y="170.286107"/>
     <use style="stroke:#000000;" x="242.725913" xlink:href="#m070667d756" y="168.477103"/>
     <use style="stroke:#000000;" x="240.291528" xlink:href="#m070667d756" y="172.891382"/>
     <use style="stroke:#000000;" x="236.16" xlink:href="#m070667d756" y="174.379243"/>
     <use style="stroke:#000000;" x="237.935204" xlink:href="#m070667d756" y="171.949119"/>
     <use style="stroke:#000000;" x="241.735369" xlink:href="#m070667d756" y="174.136838"/>
     <use style="stroke:#000000;" x="241.125602" xlink:href="#m070667d756" y="171.854451"/>
     <use style="stroke:#000000;" x="240.035585" xlink:href="#m070667d756" y="174.528"/>
     <use style="stroke:#000000;" x="239.010039" xlink:href="#m070667d756" y="174.121149"/>
     <use style="stroke:#000000;" x="241.598016" xlink:href="#m070667d756" y="174.203238"/>
     <use style="stroke:#000000;" x="239.2217" xlink:href="#m070667d756" y="172.639351"/>
     <use style="stroke:#000000;" x="238.116964" xlink:href="#m070667d756" y="172.418459"/>
     <use style="stroke:#000000;" x="238.489234" xlink:href="#m070667d756" y="173.227189"/>
     <use style="stroke:#000000;" x="239.732638" xlink:href="#m070667d756" y="170.591572"/>
     <use style="stroke:#000000;" x="243.975905" xlink:href="#m070667d756" y="174.528"/>
     <use style="stroke:#000000;" x="243.979671" xlink:href="#m070667d756" y="168.076845"/>
     <use style="stroke:#000000;" x="240.135818" xlink:href="#m070667d756" y="173.191545"/>
     <use style="stroke:#000000;" x="242.761793" xlink:href="#m070667d756" y="170.334012"/>
     <use style="stroke:#000000;" x="239.062139" xlink:href="#m070667d756" y="174.528"/>
     <use style="stroke:#000000;" x="236.16" xlink:href="#m070667d756" y="174.517774"/>
     <use style="stroke:#000000;" x="238.696682" xlink:href="#m070667d756" y="173.232978"/>
     <use style="stroke:#000000;" x="238.927005" xlink:href="#m070667d756" y="174.528"/>
     <use style="stroke:#000000;" x="242.073404" xlink:href="#m070667d756" y="170.094751"/>
     <use style="stroke:#000000;" x="242.686511" xlink:href="#m070667d756" y="170.566036"/>
     <use style="stroke:#000000;" x="240.424738" xlink:href="#m070667d756" y="174.528"/>
     <use style="stroke:#000000;" x="251.398249" xlink:href="#m070667d756" y="172.974816"/>
    </g>
   </g>
   <g id="PathCollection_2">
    <defs>
     <path d="M 0 0.935414 
C 0.248075 0.935414 0.486022 0.836853 0.661438 0.661438 
C 0.836853 0.486022 0.935414 0.248075 0.935414 0 
C 0.935414 -0.248075 0.836853 -0.486022 0.661438 -0.661438 
C 0.486022 -0.836853 0.248075 -0.935414 0 -0.935414 
C -0.248075 -0.935414 -0.486022 -0.836853 -0.661438 -0.661438 
C -0.836853 -0.486022 -0.935414 -0.248075 -0.935414 0 
C -0.935414 0.248075 -0.836853 0.486022 -0.661438 0.661438 
C -0.486022 0.836853 -0.248075 0.935414 0 0.935414 
z
" id="m1156775be3" style="stroke:#0000ff;"/>
    </defs>
    <g clip-path="url(#p68f56b7af8)">
     <use style="fill:#0000ff;stroke:#0000ff;" x="244.058506" xlink:href="#m1156775be3" y="172.86638"/>
     <use style="fill:#0000ff;stroke:#0000ff;" x="239.994458" xlink:href="#m1156775be3" y="174.258651"/>
     <use style="fill:#0000ff;stroke:#0000ff;" x="243.899144" xlink:href="#m1156775be3" y="169.28692"/>
     <use style="fill:#0000ff;stroke:#0000ff;" x="236.362051" xlink:href="#m1156775be3" y="173.451872"/>
     <use style="fill:#0000ff;stroke:#0000ff;" x="238.421594" xlink:href="#m1156775be3" y="174.528"/>
     <use style="fill:#0000ff;stroke:#0000ff;" x="240.028061" xlink:href="#m1156775be3" y="173.311037"/>
     <use style="fill:#0000ff;stroke:#0000ff;" x="236.16" xlink:href="#m1156775be3" y="174.528"/>
     <use style="fill:#0000ff;stroke:#0000ff;" x="240.495717" xlink:href="#m1156775be3" y="173.706591"/>
     <use style="fill:#0000ff;stroke:#0000ff;" x="247.657095" xlink:href="#m1156775be3" y="166.368295"/>
     <use style="fill:#0000ff;stroke:#0000ff;" x="236.915391" xlink:href="#m1156775be3" y="173.957792"/>
     <use style="fill:#0000ff;stroke:#0000ff;" x="240.865334" xlink:href="#m1156775be3" y="173.895701"/>
     <use style="fill:#0000ff;stroke:#0000ff;" x="244.30283" xlink:href="#m1156775be3" y="169.598793"/>
     <use style="fill:#0000ff;stroke:#0000ff;" x="247.482411" xlink:href="#m1156775be3" y="166.966036"/>
     <use style="fill:#0000ff;stroke:#0000ff;" x="247.452614" xlink:href="#m1156775be3" y="168.587889"/>
     <use style="fill:#0000ff;stroke:#0000ff;" x="243.783703" xlink:href="#m1156775be3" y="171.894742"/>
     <use style="fill:#0000ff;stroke:#0000ff;" x="243.793084" xlink:href="#m1156775be3" y="169.472584"/>
     <use style="fill:#0000ff;stroke:#0000ff;" x="236.959888" xlink:href="#m1156775be3" y="173.675265"/>
     <use style="fill:#0000ff;stroke:#0000ff;" x="243.882653" xlink:href="#m1156775be3" y="167.960293"/>
     <use style="fill:#0000ff;stroke:#0000ff;" x="240.638683" xlink:href="#m1156775be3" y="174.264059"/>
     <use style="fill:#0000ff;stroke:#0000ff;" x="243.705896" xlink:href="#m1156775be3" y="169.284368"/>
     <use style="fill:#0000ff;stroke:#0000ff;" x="244.119578" xlink:href="#m1156775be3" y="168.636072"/>
     <use style="fill:#0000ff;stroke:#0000ff;" x="243.74938" xlink:href="#m1156775be3" y="171.078497"/>
     <use style="fill:#0000ff;stroke:#0000ff;" x="244.063109" xlink:href="#m1156775be3" y="168.568833"/>
     <use style="fill:#0000ff;stroke:#0000ff;" x="238.123011" xlink:href="#m1156775be3" y="172.84825"/>
     <use style="fill:#0000ff;stroke:#0000ff;" x="236.812264" xlink:href="#m1156775be3" y="174.252843"/>
     <use style="fill:#0000ff;stroke:#0000ff;" x="240.352859" xlink:href="#m1156775be3" y="174.528"/>
     <use style="fill:#0000ff;stroke:#0000ff;" x="240.038125" xlink:href="#m1156775be3" y="174.528"/>
     <use style="fill:#0000ff;stroke:#0000ff;" x="239.82238" xlink:href="#m1156775be3" y="173.217004"/>
     <use style="fill:#0000ff;stroke:#0000ff;" x="236.792017" xlink:href="#m1156775be3" y="174.528"/>
     <use style="fill:#0000ff;stroke:#0000ff;" x="237.133942" xlink:href="#m1156775be3" y="174.528"/>
     <use style="fill:#0000ff;stroke:#0000ff;" x="240.640998" xlink:href="#m1156775be3" y="173.819842"/>
     <use style="fill:#0000ff;stroke:#0000ff;" x="243.630621" xlink:href="#m1156775be3" y="172.096107"/>
     <use style="fill:#0000ff;stroke:#0000ff;" x="236.16" xlink:href="#m1156775be3" y="173.401225"/>
     <use style="fill:#0000ff;stroke:#0000ff;" x="239.87326" xlink:href="#m1156775be3" y="173.839013"/>
     <use style="fill:#0000ff;stroke:#0000ff;" x="240.730878" xlink:href="#m1156775be3" y="174.528"/>
     <use style="fill:#0000ff;stroke:#0000ff;" x="241.208712" xlink:href="#m1156775be3" y="174.528"/>
     <use style="fill:#0000ff;stroke:#0000ff;" x="240.99563" xlink:href="#m1156775be3" y="174.528"/>
     <use style="fill:#0000ff;stroke:#0000ff;" x="247.808945" xlink:href="#m1156775be3" y="169.4751"/>
     <use style="fill:#0000ff;stroke:#0000ff;" x="251.353962" xlink:href="#m1156775be3" y="173.341596"/>
     <use style="fill:#0000ff;stroke:#0000ff;" x="240.617238" xlink:href="#m1156775be3" y="174.528"/>
     <use style="fill:#0000ff;stroke:#0000ff;" x="243.755128" xlink:href="#m1156775be3" y="172.327772"/>
     <use style="fill:#0000ff;stroke:#0000ff;" x="237.416876" xlink:href="#m1156775be3" y="174.528"/>
     <use style="fill:#0000ff;stroke:#0000ff;" x="237.882114" xlink:href="#m1156775be3" y="174.528"/>
     <use style="fill:#0000ff;stroke:#0000ff;" x="237.217946" xlink:href="#m1156775be3" y="172.830637"/>
     <use style="fill:#0000ff;stroke:#0000ff;" x="247.36227" xlink:href="#m1156775be3" y="167.662166"/>
     <use style="fill:#0000ff;stroke:#0000ff;" x="237.93155" xlink:href="#m1156775be3" y="173.688518"/>
     <use style="fill:#0000ff;stroke:#0000ff;" x="247.418132" xlink:href="#m1156775be3" y="169.73809"/>
     <use style="fill:#0000ff;stroke:#0000ff;" x="244.124776" xlink:href="#m1156775be3" y="169.258259"/>
     <use style="fill:#0000ff;stroke:#0000ff;" x="244.243318" xlink:href="#m1156775be3" y="169.352469"/>
     <use style="fill:#0000ff;stroke:#0000ff;" x="243.88522" xlink:href="#m1156775be3" y="169.501898"/>
     <use style="fill:#0000ff;stroke:#0000ff;" x="237.1906" xlink:href="#m1156775be3" y="172.818117"/>
     <use style="fill:#0000ff;stroke:#0000ff;" x="243.784347" xlink:href="#m1156775be3" y="171.0382"/>
     <use style="fill:#0000ff;stroke:#0000ff;" x="247.57512" xlink:href="#m1156775be3" y="173.491494"/>
     <use style="fill:#0000ff;stroke:#0000ff;" x="247.514801" xlink:href="#m1156775be3" y="169.236774"/>
     <use style="fill:#0000ff;stroke:#0000ff;" x="243.879192" xlink:href="#m1156775be3" y="168.401643"/>
     <use style="fill:#0000ff;stroke:#0000ff;" x="244.089095" xlink:href="#m1156775be3" y="169.947251"/>
     <use style="fill:#0000ff;stroke:#0000ff;" x="238.918656" xlink:href="#m1156775be3" y="174.252467"/>
     <use style="fill:#0000ff;stroke:#0000ff;" x="237.178308" xlink:href="#m1156775be3" y="174.528"/>
     <use style="fill:#0000ff;stroke:#0000ff;" x="240.707692" xlink:href="#m1156775be3" y="172.875293"/>
     <use style="fill:#0000ff;stroke:#0000ff;" x="240.832254" xlink:href="#m1156775be3" y="173.936121"/>
     <use style="fill:#0000ff;stroke:#0000ff;" x="240.712266" xlink:href="#m1156775be3" y="173.198981"/>
     <use style="fill:#0000ff;stroke:#0000ff;" x="240.7216" xlink:href="#m1156775be3" y="174.433162"/>
     <use style="fill:#0000ff;stroke:#0000ff;" x="239.842773" xlink:href="#m1156775be3" y="174.528"/>
     <use style="fill:#0000ff;stroke:#0000ff;" x="241.216904" xlink:href="#m1156775be3" y="174.528"/>
     <use style="fill:#0000ff;stroke:#0000ff;" x="241.353457" xlink:href="#m1156775be3" y="174.002818"/>
     <use style="fill:#0000ff;stroke:#0000ff;" x="240.076951" xlink:href="#m1156775be3" y="173.100539"/>
     <use style="fill:#0000ff;stroke:#0000ff;" x="236.84698" xlink:href="#m1156775be3" y="173.277821"/>
     <use style="fill:#0000ff;stroke:#0000ff;" x="240.509204" xlink:href="#m1156775be3" y="171.878273"/>
     <use style="fill:#0000ff;stroke:#0000ff;" x="240.437733" xlink:href="#m1156775be3" y="174.24478"/>
     <use style="fill:#0000ff;stroke:#0000ff;" x="243.530808" xlink:href="#m1156775be3" y="169.785148"/>
     <use style="fill:#0000ff;stroke:#0000ff;" x="240.586078" xlink:href="#m1156775be3" y="174.457835"/>
     <use style="fill:#0000ff;stroke:#0000ff;" x="240.127452" xlink:href="#m1156775be3" y="172.00239"/>
     <use style="fill:#0000ff;stroke:#0000ff;" x="236.16" xlink:href="#m1156775be3" y="173.646361"/>
     <use style="fill:#0000ff;stroke:#0000ff;" x="237.578327" xlink:href="#m1156775be3" y="174.528"/>
     <use style="fill:#0000ff;stroke:#0000ff;" x="240.621617" xlink:href="#m1156775be3" y="172.405109"/>
     <use style="fill:#0000ff;stroke:#0000ff;" x="237.055286" xlink:href="#m1156775be3" y="174.528"/>
     <use style="fill:#0000ff;stroke:#0000ff;" x="240.047809" xlink:href="#m1156775be3" y="171.217503"/>
     <use style="fill:#0000ff;stroke:#0000ff;" x="243.873983" xlink:href="#m1156775be3" y="172.907617"/>
     <use style="fill:#0000ff;stroke:#0000ff;" x="240.309835" xlink:href="#m1156775be3" y="174.528"/>
     <use style="fill:#0000ff;stroke:#0000ff;" x="251.181695" xlink:href="#m1156775be3" y="173.519537"/>
    </g>
   </g>
   <g id="matplotlib.axis_1">
    <g id="xtick_1">
     <g id="line2d_1">
      <defs>
       <path d="M 0 0 
L 0 3.5 
" id="mdfe377672d" style="stroke:#000000;stroke-width:0.8;"/>
      </defs>
      <g>
       <use style="stroke:#000000;stroke-width:0.8;" x="57.6" xlink:href="#mdfe377672d" y="307.584"/>
      </g>
     </g>
     <g id="text_1">
      <!-- −10.0 -->
      <defs>
       <path d="M 10.59375 35.5 
L 73.1875 35.5 
L 73.1875 27.203125 
L 10.59375 27.203125 
z
" id="DejaVuSans-2212"/>
       <path d="M 12.40625 8.296875 
L 28.515625 8.296875 
L 28.515625 63.921875 
L 10.984375 60.40625 
L 10.984375 69.390625 
L 28.421875 72.90625 
L 38.28125 72.90625 
L 38.28125 8.296875 
L 54.390625 8.296875 
L 54.390625 0 
L 12.40625 0 
z
" id="DejaVuSans-31"/>
       <path d="M 31.78125 66.40625 
Q 24.171875 66.40625 20.328125 58.90625 
Q 16.5 51.421875 16.5 36.375 
Q 16.5 21.390625 20.328125 13.890625 
Q 24.171875 6.390625 31.78125 6.390625 
Q 39.453125 6.390625 43.28125 13.890625 
Q 47.125 21.390625 47.125 36.375 
Q 47.125 51.421875 43.28125 58.90625 
Q 39.453125 66.40625 31.78125 66.40625 
z
M 31.78125 74.21875 
Q 44.046875 74.21875 50.515625 64.515625 
Q 56.984375 54.828125 56.984375 36.375 
Q 56.984375 17.96875 50.515625 8.265625 
Q 44.046875 -1.421875 31.78125 -1.421875 
Q 19.53125 -1.421875 13.0625 8.265625 
Q 6.59375 17.96875 6.59375 36.375 
Q 6.59375 54.828125 13.0625 64.515625 
Q 19.53125 74.21875 31.78125 74.21875 
z
" id="DejaVuSans-30"/>
       <path d="M 10.6875 12.40625 
L 21 12.40625 
L 21 0 
L 10.6875 0 
z
" id="DejaVuSans-2e"/>
      </defs>
      <g transform="translate(42.277344 322.182437)scale(0.1 -0.1)">
       <use xlink:href="#DejaVuSans-2212"/>
       <use x="83.789062" xlink:href="#DejaVuSans-31"/>
       <use x="147.412109" xlink:href="#DejaVuSans-30"/>
       <use x="211.035156" xlink:href="#DejaVuSans-2e"/>
       <use x="242.822266" xlink:href="#DejaVuSans-30"/>
      </g>
     </g>
    </g>
    <g id="xtick_2">
     <g id="line2d_2">
      <g>
       <use style="stroke:#000000;stroke-width:0.8;" x="102.24" xlink:href="#mdfe377672d" y="307.584"/>
      </g>
     </g>
     <g id="text_2">
      <!-- −7.5 -->
      <defs>
       <path d="M 8.203125 72.90625 
L 55.078125 72.90625 
L 55.078125 68.703125 
L 28.609375 0 
L 18.3125 0 
L 43.21875 64.59375 
L 8.203125 64.59375 
z
" id="DejaVuSans-37"/>
       <path d="M 10.796875 72.90625 
L 49.515625 72.90625 
L 49.515625 64.59375 
L 19.828125 64.59375 
L 19.828125 46.734375 
Q 21.96875 47.46875 24.109375 47.828125 
Q 26.265625 48.1875 28.421875 48.1875 
Q 40.625 48.1875 47.75 41.5 
Q 54.890625 34.8125 54.890625 23.390625 
Q 54.890625 11.625 47.5625 5.09375 
Q 40.234375 -1.421875 26.90625 -1.421875 
Q 22.3125 -1.421875 17.546875 -0.640625 
Q 12.796875 0.140625 7.71875 1.703125 
L 7.71875 11.625 
Q 12.109375 9.234375 16.796875 8.0625 
Q 21.484375 6.890625 26.703125 6.890625 
Q 35.15625 6.890625 40.078125 11.328125 
Q 45.015625 15.765625 45.015625 23.390625 
Q 45.015625 31 40.078125 35.4375 
Q 35.15625 39.890625 26.703125 39.890625 
Q 22.75 39.890625 18.8125 39.015625 
Q 14.890625 38.140625 10.796875 36.28125 
z
" id="DejaVuSans-35"/>
      </defs>
      <g transform="translate(90.098594 322.182437)scale(0.1 -0.1)">
       <use xlink:href="#DejaVuSans-2212"/>
       <use x="83.789062" xlink:href="#DejaVuSans-37"/>
       <use x="147.412109" xlink:href="#DejaVuSans-2e"/>
       <use x="179.199219" xlink:href="#DejaVuSans-35"/>
      </g>
     </g>
    </g>
    <g id="xtick_3">
     <g id="line2d_3">
      <g>
       <use style="stroke:#000000;stroke-width:0.8;" x="146.88" xlink:href="#mdfe377672d" y="307.584"/>
      </g>
     </g>
     <g id="text_3">
      <!-- −5.0 -->
      <g transform="translate(134.738594 322.182437)scale(0.1 -0.1)">
       <use xlink:href="#DejaVuSans-2212"/>
       <use x="83.789062" xlink:href="#DejaVuSans-35"/>
       <use x="147.412109" xlink:href="#DejaVuSans-2e"/>
       <use x="179.199219" xlink:href="#DejaVuSans-30"/>
      </g>
     </g>
    </g>
    <g id="xtick_4">
     <g id="line2d_4">
      <g>
       <use style="stroke:#000000;stroke-width:0.8;" x="191.52" xlink:href="#mdfe377672d" y="307.584"/>
      </g>
     </g>
     <g id="text_4">
      <!-- −2.5 -->
      <defs>
       <path d="M 19.1875 8.296875 
L 53.609375 8.296875 
L 53.609375 0 
L 7.328125 0 
L 7.328125 8.296875 
Q 12.9375 14.109375 22.625 23.890625 
Q 32.328125 33.6875 34.8125 36.53125 
Q 39.546875 41.84375 41.421875 45.53125 
Q 43.3125 49.21875 43.3125 52.78125 
Q 43.3125 58.59375 39.234375 62.25 
Q 35.15625 65.921875 28.609375 65.921875 
Q 23.96875 65.921875 18.8125 64.3125 
Q 13.671875 62.703125 7.8125 59.421875 
L 7.8125 69.390625 
Q 13.765625 71.78125 18.9375 73 
Q 24.125 74.21875 28.421875 74.21875 
Q 39.75 74.21875 46.484375 68.546875 
Q 53.21875 62.890625 53.21875 53.421875 
Q 53.21875 48.921875 51.53125 44.890625 
Q 49.859375 40.875 45.40625 35.40625 
Q 44.1875 33.984375 37.640625 27.21875 
Q 31.109375 20.453125 19.1875 8.296875 
z
" id="DejaVuSans-32"/>
      </defs>
      <g transform="translate(179.378594 322.182437)scale(0.1 -0.1)">
       <use xlink:href="#DejaVuSans-2212"/>
       <use x="83.789062" xlink:href="#DejaVuSans-32"/>
       <use x="147.412109" xlink:href="#DejaVuSans-2e"/>
       <use x="179.199219" xlink:href="#DejaVuSans-35"/>
      </g>
     </g>
    </g>
    <g id="xtick_5">
     <g id="line2d_5">
      <g>
       <use style="stroke:#000000;stroke-width:0.8;" x="236.16" xlink:href="#mdfe377672d" y="307.584"/>
      </g>
     </g>
     <g id="text_5">
      <!-- 0.0 -->
      <g transform="translate(228.208438 322.182437)scale(0.1 -0.1)">
       <use xlink:href="#DejaVuSans-30"/>
       <use x="63.623047" xlink:href="#DejaVuSans-2e"/>
       <use x="95.410156" xlink:href="#DejaVuSans-30"/>
      </g>
     </g>
    </g>
    <g id="xtick_6">
     <g id="line2d_6">
      <g>
       <use style="stroke:#000000;stroke-width:0.8;" x="280.8" xlink:href="#mdfe377672d" y="307.584"/>
      </g>
     </g>
     <g id="text_6">
      <!-- 2.5 -->
      <g transform="translate(272.848437 322.182437)scale(0.1 -0.1)">
       <use xlink:href="#DejaVuSans-32"/>
       <use x="63.623047" xlink:href="#DejaVuSans-2e"/>
       <use x="95.410156" xlink:href="#DejaVuSans-35"/>
      </g>
     </g>
    </g>
    <g id="xtick_7">
     <g id="line2d_7">
      <g>
       <use style="stroke:#000000;stroke-width:0.8;" x="325.44" xlink:href="#mdfe377672d" y="307.584"/>
      </g>
     </g>
     <g id="text_7">
      <!-- 5.0 -->
      <g transform="translate(317.488437 322.182437)scale(0.1 -0.1)">
       <use xlink:href="#DejaVuSans-35"/>
       <use x="63.623047" xlink:href="#DejaVuSans-2e"/>
       <use x="95.410156" xlink:href="#DejaVuSans-30"/>
      </g>
     </g>
    </g>
    <g id="xtick_8">
     <g id="line2d_8">
      <g>
       <use style="stroke:#000000;stroke-width:0.8;" x="370.08" xlink:href="#mdfe377672d" y="307.584"/>
      </g>
     </g>
     <g id="text_8">
      <!-- 7.5 -->
      <g transform="translate(362.128438 322.182437)scale(0.1 -0.1)">
       <use xlink:href="#DejaVuSans-37"/>
       <use x="63.623047" xlink:href="#DejaVuSans-2e"/>
       <use x="95.410156" xlink:href="#DejaVuSans-35"/>
      </g>
     </g>
    </g>
    <g id="xtick_9">
     <g id="line2d_9">
      <g>
       <use style="stroke:#000000;stroke-width:0.8;" x="414.72" xlink:href="#mdfe377672d" y="307.584"/>
      </g>
     </g>
     <g id="text_9">
      <!-- 10.0 -->
      <g transform="translate(403.587188 322.182437)scale(0.1 -0.1)">
       <use xlink:href="#DejaVuSans-31"/>
       <use x="63.623047" xlink:href="#DejaVuSans-30"/>
       <use x="127.246094" xlink:href="#DejaVuSans-2e"/>
       <use x="159.033203" xlink:href="#DejaVuSans-30"/>
      </g>
     </g>
    </g>
   </g>
   <g id="matplotlib.axis_2">
    <g id="ytick_1">
     <g id="line2d_10">
      <defs>
       <path d="M 0 0 
L -3.5 0 
" id="m491c93a0e3" style="stroke:#000000;stroke-width:0.8;"/>
      </defs>
      <g>
       <use style="stroke:#000000;stroke-width:0.8;" x="57.6" xlink:href="#m491c93a0e3" y="307.584"/>
      </g>
     </g>
     <g id="text_10">
      <!-- −10.0 -->
      <g transform="translate(19.954687 311.383219)scale(0.1 -0.1)">
       <use xlink:href="#DejaVuSans-2212"/>
       <use x="83.789062" xlink:href="#DejaVuSans-31"/>
       <use x="147.412109" xlink:href="#DejaVuSans-30"/>
       <use x="211.035156" xlink:href="#DejaVuSans-2e"/>
       <use x="242.822266" xlink:href="#DejaVuSans-30"/>
      </g>
     </g>
    </g>
    <g id="ytick_2">
     <g id="line2d_11">
      <g>
       <use style="stroke:#000000;stroke-width:0.8;" x="57.6" xlink:href="#m491c93a0e3" y="274.32"/>
      </g>
     </g>
     <g id="text_11">
      <!-- −7.5 -->
      <g transform="translate(26.317187 278.119219)scale(0.1 -0.1)">
       <use xlink:href="#DejaVuSans-2212"/>
       <use x="83.789062" xlink:href="#DejaVuSans-37"/>
       <use x="147.412109" xlink:href="#DejaVuSans-2e"/>
       <use x="179.199219" xlink:href="#DejaVuSans-35"/>
      </g>
     </g>
    </g>
    <g id="ytick_3">
     <g id="line2d_12">
      <g>
       <use style="stroke:#000000;stroke-width:0.8;" x="57.6" xlink:href="#m491c93a0e3" y="241.056"/>
      </g>
     </g>
     <g id="text_12">
      <!-- −5.0 -->
      <g transform="translate(26.317187 244.855219)scale(0.1 -0.1)">
       <use xlink:href="#DejaVuSans-2212"/>
       <use x="83.789062" xlink:href="#DejaVuSans-35"/>
       <use x="147.412109" xlink:href="#DejaVuSans-2e"/>
       <use x="179.199219" xlink:href="#DejaVuSans-30"/>
      </g>
     </g>
    </g>
    <g id="ytick_4">
     <g id="line2d_13">
      <g>
       <use style="stroke:#000000;stroke-width:0.8;" x="57.6" xlink:href="#m491c93a0e3" y="207.792"/>
      </g>
     </g>
     <g id="text_13">
      <!-- −2.5 -->
      <g transform="translate(26.317187 211.591219)scale(0.1 -0.1)">
       <use xlink:href="#DejaVuSans-2212"/>
       <use x="83.789062" xlink:href="#DejaVuSans-32"/>
       <use x="147.412109" xlink:href="#DejaVuSans-2e"/>
       <use x="179.199219" xlink:href="#DejaVuSans-35"/>
      </g>
     </g>
    </g>
    <g id="ytick_5">
     <g id="line2d_14">
      <g>
       <use style="stroke:#000000;stroke-width:0.8;" x="57.6" xlink:href="#m491c93a0e3" y="174.528"/>
      </g>
     </g>
     <g id="text_14">
      <!-- 0.0 -->
      <g transform="translate(34.696875 178.327219)scale(0.1 -0.1)">
       <use xlink:href="#DejaVuSans-30"/>
       <use x="63.623047" xlink:href="#DejaVuSans-2e"/>
       <use x="95.410156" xlink:href="#DejaVuSans-30"/>
      </g>
     </g>
    </g>
    <g id="ytick_6">
     <g id="line2d_15">
      <g>
       <use style="stroke:#000000;stroke-width:0.8;" x="57.6" xlink:href="#m491c93a0e3" y="141.264"/>
      </g>
     </g>
     <g id="text_15">
      <!-- 2.5 -->
      <g transform="translate(34.696875 145.063219)scale(0.1 -0.1)">
       <use xlink:href="#DejaVuSans-32"/>
       <use x="63.623047" xlink:href="#DejaVuSans-2e"/>
       <use x="95.410156" xlink:href="#DejaVuSans-35"/>
      </g>
     </g>
    </g>
    <g id="ytick_7">
     <g id="line2d_16">
      <g>
       <use style="stroke:#000000;stroke-width:0.8;" x="57.6" xlink:href="#m491c93a0e3" y="108"/>
      </g>
     </g>
     <g id="text_16">
      <!-- 5.0 -->
      <g transform="translate(34.696875 111.799219)scale(0.1 -0.1)">
       <use xlink:href="#DejaVuSans-35"/>
       <use x="63.623047" xlink:href="#DejaVuSans-2e"/>
       <use x="95.410156" xlink:href="#DejaVuSans-30"/>
      </g>
     </g>
    </g>
    <g id="ytick_8">
     <g id="line2d_17">
      <g>
       <use style="stroke:#000000;stroke-width:0.8;" x="57.6" xlink:href="#m491c93a0e3" y="74.736"/>
      </g>
     </g>
     <g id="text_17">
      <!-- 7.5 -->
      <g transform="translate(34.696875 78.535219)scale(0.1 -0.1)">
       <use xlink:href="#DejaVuSans-37"/>
       <use x="63.623047" xlink:href="#DejaVuSans-2e"/>
       <use x="95.410156" xlink:href="#DejaVuSans-35"/>
      </g>
     </g>
    </g>
    <g id="ytick_9">
     <g id="line2d_18">
      <g>
       <use style="stroke:#000000;stroke-width:0.8;" x="57.6" xlink:href="#m491c93a0e3" y="41.472"/>
      </g>
     </g>
     <g id="text_18">
      <!-- 10.0 -->
      <g transform="translate(28.334375 45.271219)scale(0.1 -0.1)">
       <use xlink:href="#DejaVuSans-31"/>
       <use x="63.623047" xlink:href="#DejaVuSans-30"/>
       <use x="127.246094" xlink:href="#DejaVuSans-2e"/>
       <use x="159.033203" xlink:href="#DejaVuSans-30"/>
      </g>
     </g>
    </g>
   </g>
   <g id="patch_3">
    <path d="M 57.6 307.584 
L 57.6 41.472 
" style="fill:none;stroke:#000000;stroke-linecap:square;stroke-linejoin:miter;stroke-width:0.8;"/>
   </g>
   <g id="patch_4">
    <path d="M 414.72 307.584 
L 414.72 41.472 
" style="fill:none;stroke:#000000;stroke-linecap:square;stroke-linejoin:miter;stroke-width:0.8;"/>
   </g>
   <g id="patch_5">
    <path d="M 57.6 307.584 
L 414.72 307.584 
" style="fill:none;stroke:#000000;stroke-linecap:square;stroke-linejoin:miter;stroke-width:0.8;"/>
   </g>
   <g id="patch_6">
    <path d="M 57.6 41.472 
L 414.72 41.472 
" style="fill:none;stroke:#000000;stroke-linecap:square;stroke-linejoin:miter;stroke-width:0.8;"/>
   </g>
  </g>
 </g>
 <defs>
  <clipPath id="p68f56b7af8">
   <rect height="266.112" width="357.12" x="57.6" y="41.472"/>
  </clipPath>
 </defs>
</svg>
