<?xml version="1.0" encoding="utf-8" standalone="no"?>
<!DOCTYPE svg PUBLIC "-//W3C//DTD SVG 1.1//EN"
  "http://www.w3.org/Graphics/SVG/1.1/DTD/svg11.dtd">
<!-- Created with matplotlib (http://matplotlib.org/) -->
<svg height="345.6pt" version="1.1" viewBox="0 0 460.8 345.6" width="460.8pt" xmlns="http://www.w3.org/2000/svg" xmlns:xlink="http://www.w3.org/1999/xlink">
 <defs>
  <style type="text/css">
*{stroke-linecap:butt;stroke-linejoin:round;}
  </style>
 </defs>
 <g id="figure_1">
  <g id="patch_1">
   <path d="M 0 345.6 
L 460.8 345.6 
L 460.8 0 
L 0 0 
z
" style="fill:#ffffff;"/>
  </g>
  <g id="axes_1">
   <g id="patch_2">
    <path d="M 57.6 307.584 
L 414.72 307.584 
L 414.72 41.472 
L 57.6 41.472 
z
" style="fill:#ffffff;"/>
   </g>
   <g id="PathCollection_1">
    <defs>
     <path d="M 0 0.612372 
C 0.162403 0.612372 0.318176 0.547849 0.433013 0.433013 
C 0.547849 0.318176 0.612372 0.162403 0.612372 0 
C 0.612372 -0.162403 0.547849 -0.318176 0.433013 -0.433013 
C 0.318176 -0.547849 0.162403 -0.612372 0 -0.612372 
C -0.162403 -0.612372 -0.318176 -0.547849 -0.433013 -0.433013 
C -0.547849 -0.318176 -0.612372 -0.162403 -0.612372 0 
C -0.612372 0.162403 -0.547849 0.318176 -0.433013 0.433013 
C -0.318176 0.547849 -0.162403 0.612372 0 0.612372 
z
" id="m84f3d7f190" style="stroke:#000000;"/>
    </defs>
    <g clip-path="url(#pf1bfad4cc7)">
     <use style="stroke:#000000;" x="239.803686" xlink:href="#m84f3d7f190" y="174.528"/>
     <use style="stroke:#000000;" x="244.26792" xlink:href="#m84f3d7f190" y="172.649796"/>
     <use style="stroke:#000000;" x="247.519823" xlink:href="#m84f3d7f190" y="174.528"/>
     <use style="stroke:#000000;" x="236.701195" xlink:href="#m84f3d7f190" y="173.743225"/>
     <use style="stroke:#000000;" x="247.748126" xlink:href="#m84f3d7f190" y="174.069817"/>
     <use style="stroke:#000000;" x="236.724965" xlink:href="#m84f3d7f190" y="173.35864"/>
     <use style="stroke:#000000;" x="247.321864" xlink:href="#m84f3d7f190" y="174.478201"/>
     <use style="stroke:#000000;" x="239.881206" xlink:href="#m84f3d7f190" y="174.528"/>
     <use style="stroke:#000000;" x="236.212869" xlink:href="#m84f3d7f190" y="174.528"/>
     <use style="stroke:#000000;" x="239.79989" xlink:href="#m84f3d7f190" y="171.823656"/>
     <use style="stroke:#000000;" x="236.419659" xlink:href="#m84f3d7f190" y="173.085831"/>
     <use style="stroke:#000000;" x="236.978632" xlink:href="#m84f3d7f190" y="174.528"/>
     <use style="stroke:#000000;" x="238.125897" xlink:href="#m84f3d7f190" y="172.29133"/>
     <use style="stroke:#000000;" x="239.603498" xlink:href="#m84f3d7f190" y="174.528"/>
     <use style="stroke:#000000;" x="236.494464" xlink:href="#m84f3d7f190" y="173.930887"/>
     <use style="stroke:#000000;" x="240.557999" xlink:href="#m84f3d7f190" y="174.528"/>
     <use style="stroke:#000000;" x="240.441258" xlink:href="#m84f3d7f190" y="173.803987"/>
     <use style="stroke:#000000;" x="247.355587" xlink:href="#m84f3d7f190" y="174.528"/>
     <use style="stroke:#000000;" x="247.59296" xlink:href="#m84f3d7f190" y="173.945406"/>
     <use style="stroke:#000000;" x="236.481537" xlink:href="#m84f3d7f190" y="174.528"/>
     <use style="stroke:#000000;" x="236.434168" xlink:href="#m84f3d7f190" y="174.528"/>
     <use style="stroke:#000000;" x="236.394787" xlink:href="#m84f3d7f190" y="173.79194"/>
     <use style="stroke:#000000;" x="243.795207" xlink:href="#m84f3d7f190" y="173.467031"/>
     <use style="stroke:#000000;" x="236.16" xlink:href="#m84f3d7f190" y="174.528"/>
     <use style="stroke:#000000;" x="240.522339" xlink:href="#m84f3d7f190" y="172.793238"/>
     <use style="stroke:#000000;" x="239.683552" xlink:href="#m84f3d7f190" y="173.43054"/>
     <use style="stroke:#000000;" x="237.566165" xlink:href="#m84f3d7f190" y="174.528"/>
     <use style="stroke:#000000;" x="239.894807" xlink:href="#m84f3d7f190" y="174.528"/>
     <use style="stroke:#000000;" x="247.066928" xlink:href="#m84f3d7f190" y="174.528"/>
     <use style="stroke:#000000;" x="239.361413" xlink:href="#m84f3d7f190" y="173.022473"/>
     <use style="stroke:#000000;" x="237.477948" xlink:href="#m84f3d7f190" y="174.528"/>
     <use style="stroke:#000000;" x="240.110191" xlink:href="#m84f3d7f190" y="174.528"/>
     <use style="stroke:#000000;" x="236.427221" xlink:href="#m84f3d7f190" y="173.441926"/>
     <use style="stroke:#000000;" x="240.560338" xlink:href="#m84f3d7f190" y="174.243159"/>
     <use style="stroke:#000000;" x="239.739895" xlink:href="#m84f3d7f190" y="174.528"/>
     <use style="stroke:#000000;" x="240.284807" xlink:href="#m84f3d7f190" y="174.26035"/>
     <use style="stroke:#000000;" x="251.111911" xlink:href="#m84f3d7f190" y="167.882254"/>
     <use style="stroke:#000000;" x="236.616536" xlink:href="#m84f3d7f190" y="174.525424"/>
     <use style="stroke:#000000;" x="236.540263" xlink:href="#m84f3d7f190" y="174.528"/>
     <use style="stroke:#000000;" x="238.832153" xlink:href="#m84f3d7f190" y="173.894595"/>
     <use style="stroke:#000000;" x="239.901287" xlink:href="#m84f3d7f190" y="171.794441"/>
     <use style="stroke:#000000;" x="236.980375" xlink:href="#m84f3d7f190" y="174.528"/>
     <use style="stroke:#000000;" x="237.346048" xlink:href="#m84f3d7f190" y="174.528"/>
     <use style="stroke:#000000;" x="237.642502" xlink:href="#m84f3d7f190" y="172.418281"/>
     <use style="stroke:#000000;" x="247.543607" xlink:href="#m84f3d7f190" y="172.006677"/>
     <use style="stroke:#000000;" x="251.349548" xlink:href="#m84f3d7f190" y="168.22521"/>
     <use style="stroke:#000000;" x="251.301648" xlink:href="#m84f3d7f190" y="167.455521"/>
     <use style="stroke:#000000;" x="239.80875" xlink:href="#m84f3d7f190" y="174.528"/>
     <use style="stroke:#000000;" x="247.644322" xlink:href="#m84f3d7f190" y="172.78416"/>
     <use style="stroke:#000000;" x="247.422261" xlink:href="#m84f3d7f190" y="174.528"/>
     <use style="stroke:#000000;" x="236.257238" xlink:href="#m84f3d7f190" y="174.242882"/>
     <use style="stroke:#000000;" x="236.393284" xlink:href="#m84f3d7f190" y="174.528"/>
     <use style="stroke:#000000;" x="236.737732" xlink:href="#m84f3d7f190" y="174.528"/>
     <use style="stroke:#000000;" x="236.735096" xlink:href="#m84f3d7f190" y="174.528"/>
     <use style="stroke:#000000;" x="236.702765" xlink:href="#m84f3d7f190" y="173.231736"/>
     <use style="stroke:#000000;" x="243.951482" xlink:href="#m84f3d7f190" y="174.166401"/>
     <use style="stroke:#000000;" x="240.778096" xlink:href="#m84f3d7f190" y="174.528"/>
     <use style="stroke:#000000;" x="244.033589" xlink:href="#m84f3d7f190" y="173.397782"/>
     <use style="stroke:#000000;" x="240.827165" xlink:href="#m84f3d7f190" y="174.165685"/>
     <use style="stroke:#000000;" x="244.223715" xlink:href="#m84f3d7f190" y="174.32506"/>
     <use style="stroke:#000000;" x="239.302442" xlink:href="#m84f3d7f190" y="174.528"/>
     <use style="stroke:#000000;" x="237.238453" xlink:href="#m84f3d7f190" y="174.488251"/>
     <use style="stroke:#000000;" x="238.8301" xlink:href="#m84f3d7f190" y="174.528"/>
     <use style="stroke:#000000;" x="244.389426" xlink:href="#m84f3d7f190" y="173.255936"/>
     <use style="stroke:#000000;" x="245.070259" xlink:href="#m84f3d7f190" y="171.774927"/>
     <use style="stroke:#000000;" x="248.310894" xlink:href="#m84f3d7f190" y="174.528"/>
     <use style="stroke:#000000;" x="248.416899" xlink:href="#m84f3d7f190" y="173.363021"/>
     <use style="stroke:#000000;" x="236.930167" xlink:href="#m84f3d7f190" y="172.850945"/>
     <use style="stroke:#000000;" x="238.455268" xlink:href="#m84f3d7f190" y="173.251735"/>
     <use style="stroke:#000000;" x="248.197708" xlink:href="#m84f3d7f190" y="174.528"/>
     <use style="stroke:#000000;" x="248.263762" xlink:href="#m84f3d7f190" y="173.781941"/>
     <use style="stroke:#000000;" x="238.746379" xlink:href="#m84f3d7f190" y="171.788319"/>
     <use style="stroke:#000000;" x="237.069004" xlink:href="#m84f3d7f190" y="173.120178"/>
     <use style="stroke:#000000;" x="247.453927" xlink:href="#m84f3d7f190" y="173.637718"/>
     <use style="stroke:#000000;" x="244.787442" xlink:href="#m84f3d7f190" y="174.099072"/>
     <use style="stroke:#000000;" x="238.446631" xlink:href="#m84f3d7f190" y="174.528"/>
     <use style="stroke:#000000;" x="238.211796" xlink:href="#m84f3d7f190" y="174.032655"/>
     <use style="stroke:#000000;" x="236.17843" xlink:href="#m84f3d7f190" y="173.60211"/>
     <use style="stroke:#000000;" x="236.16" xlink:href="#m84f3d7f190" y="174.207457"/>
     <use style="stroke:#000000;" x="238.365597" xlink:href="#m84f3d7f190" y="173.608445"/>
     <use style="stroke:#000000;" x="239.017068" xlink:href="#m84f3d7f190" y="172.272573"/>
     <use style="stroke:#000000;" x="243.206509" xlink:href="#m84f3d7f190" y="172.036434"/>
     <use style="stroke:#000000;" x="239.133521" xlink:href="#m84f3d7f190" y="170.785103"/>
     <use style="stroke:#000000;" x="238.34296" xlink:href="#m84f3d7f190" y="172.531093"/>
     <use style="stroke:#000000;" x="237.006849" xlink:href="#m84f3d7f190" y="173.979294"/>
     <use style="stroke:#000000;" x="236.179379" xlink:href="#m84f3d7f190" y="173.520924"/>
     <use style="stroke:#000000;" x="236.435068" xlink:href="#m84f3d7f190" y="173.504358"/>
     <use style="stroke:#000000;" x="236.558206" xlink:href="#m84f3d7f190" y="173.206028"/>
     <use style="stroke:#000000;" x="237.305462" xlink:href="#m84f3d7f190" y="173.213488"/>
     <use style="stroke:#000000;" x="237.130187" xlink:href="#m84f3d7f190" y="171.58349"/>
     <use style="stroke:#000000;" x="237.375042" xlink:href="#m84f3d7f190" y="172.913453"/>
     <use style="stroke:#000000;" x="239.996931" xlink:href="#m84f3d7f190" y="172.446355"/>
     <use style="stroke:#000000;" x="239.099153" xlink:href="#m84f3d7f190" y="174.528"/>
     <use style="stroke:#000000;" x="238.457656" xlink:href="#m84f3d7f190" y="174.528"/>
     <use style="stroke:#000000;" x="239.92042" xlink:href="#m84f3d7f190" y="174.528"/>
     <use style="stroke:#000000;" x="236.16" xlink:href="#m84f3d7f190" y="174.528"/>
     <use style="stroke:#000000;" x="236.16" xlink:href="#m84f3d7f190" y="173.967723"/>
     <use style="stroke:#000000;" x="236.545278" xlink:href="#m84f3d7f190" y="174.528"/>
     <use style="stroke:#000000;" x="241.705443" xlink:href="#m84f3d7f190" y="174.528"/>
     <use style="stroke:#000000;" x="241.399768" xlink:href="#m84f3d7f190" y="172.902043"/>
     <use style="stroke:#000000;" x="239.378619" xlink:href="#m84f3d7f190" y="174.528"/>
     <use style="stroke:#000000;" x="239.871901" xlink:href="#m84f3d7f190" y="173.621915"/>
     <use style="stroke:#000000;" x="240.29173" xlink:href="#m84f3d7f190" y="174.502152"/>
     <use style="stroke:#000000;" x="239.109604" xlink:href="#m84f3d7f190" y="173.645491"/>
     <use style="stroke:#000000;" x="246.471123" xlink:href="#m84f3d7f190" y="174.528"/>
     <use style="stroke:#000000;" x="247.598386" xlink:href="#m84f3d7f190" y="174.528"/>
     <use style="stroke:#000000;" x="247.24054" xlink:href="#m84f3d7f190" y="174.528"/>
     <use style="stroke:#000000;" x="247.490727" xlink:href="#m84f3d7f190" y="174.528"/>
     <use style="stroke:#000000;" x="248.147371" xlink:href="#m84f3d7f190" y="173.399899"/>
     <use style="stroke:#000000;" x="248.559191" xlink:href="#m84f3d7f190" y="173.957944"/>
     <use style="stroke:#000000;" x="237.839222" xlink:href="#m84f3d7f190" y="172.669855"/>
     <use style="stroke:#000000;" x="236.16" xlink:href="#m84f3d7f190" y="174.528"/>
     <use style="stroke:#000000;" x="237.370835" xlink:href="#m84f3d7f190" y="174.522074"/>
     <use style="stroke:#000000;" x="237.57965" xlink:href="#m84f3d7f190" y="174.528"/>
     <use style="stroke:#000000;" x="236.449137" xlink:href="#m84f3d7f190" y="174.528"/>
     <use style="stroke:#000000;" x="237.127468" xlink:href="#m84f3d7f190" y="174.528"/>
     <use style="stroke:#000000;" x="236.235015" xlink:href="#m84f3d7f190" y="174.528"/>
     <use style="stroke:#000000;" x="237.525424" xlink:href="#m84f3d7f190" y="174.528"/>
     <use style="stroke:#000000;" x="237.27478" xlink:href="#m84f3d7f190" y="174.528"/>
     <use style="stroke:#000000;" x="244.728807" xlink:href="#m84f3d7f190" y="173.182445"/>
     <use style="stroke:#000000;" x="244.780063" xlink:href="#m84f3d7f190" y="174.528"/>
     <use style="stroke:#000000;" x="243.467037" xlink:href="#m84f3d7f190" y="173.872535"/>
     <use style="stroke:#000000;" x="236.846999" xlink:href="#m84f3d7f190" y="174.528"/>
     <use style="stroke:#000000;" x="236.16" xlink:href="#m84f3d7f190" y="174.528"/>
     <use style="stroke:#000000;" x="236.806037" xlink:href="#m84f3d7f190" y="174.528"/>
     <use style="stroke:#000000;" x="242.592844" xlink:href="#m84f3d7f190" y="171.908163"/>
     <use style="stroke:#000000;" x="240.597581" xlink:href="#m84f3d7f190" y="172.48095"/>
     <use style="stroke:#000000;" x="240.644872" xlink:href="#m84f3d7f190" y="171.696757"/>
     <use style="stroke:#000000;" x="238.758206" xlink:href="#m84f3d7f190" y="173.617746"/>
     <use style="stroke:#000000;" x="238.177526" xlink:href="#m84f3d7f190" y="174.267547"/>
     <use style="stroke:#000000;" x="240.470638" xlink:href="#m84f3d7f190" y="174.200006"/>
     <use style="stroke:#000000;" x="236.16" xlink:href="#m84f3d7f190" y="173.975193"/>
     <use style="stroke:#000000;" x="237.061054" xlink:href="#m84f3d7f190" y="173.460262"/>
     <use style="stroke:#000000;" x="238.299635" xlink:href="#m84f3d7f190" y="174.260862"/>
     <use style="stroke:#000000;" x="237.727516" xlink:href="#m84f3d7f190" y="173.602278"/>
     <use style="stroke:#000000;" x="240.606583" xlink:href="#m84f3d7f190" y="174.528"/>
     <use style="stroke:#000000;" x="246.506259" xlink:href="#m84f3d7f190" y="174.528"/>
     <use style="stroke:#000000;" x="237.048944" xlink:href="#m84f3d7f190" y="174.237193"/>
     <use style="stroke:#000000;" x="237.678769" xlink:href="#m84f3d7f190" y="174.021285"/>
     <use style="stroke:#000000;" x="240.335202" xlink:href="#m84f3d7f190" y="173.882692"/>
     <use style="stroke:#000000;" x="236.68451" xlink:href="#m84f3d7f190" y="174.528"/>
     <use style="stroke:#000000;" x="240.908037" xlink:href="#m84f3d7f190" y="173.72054"/>
     <use style="stroke:#000000;" x="238.901074" xlink:href="#m84f3d7f190" y="174.528"/>
     <use style="stroke:#000000;" x="237.644918" xlink:href="#m84f3d7f190" y="173.62433"/>
     <use style="stroke:#000000;" x="252.845765" xlink:href="#m84f3d7f190" y="166.932935"/>
     <use style="stroke:#000000;" x="249.293256" xlink:href="#m84f3d7f190" y="168.532569"/>
     <use style="stroke:#000000;" x="236.708551" xlink:href="#m84f3d7f190" y="174.047176"/>
     <use style="stroke:#000000;" x="237.673821" xlink:href="#m84f3d7f190" y="173.758188"/>
     <use style="stroke:#000000;" x="239.867318" xlink:href="#m84f3d7f190" y="174.16391"/>
     <use style="stroke:#000000;" x="236.721603" xlink:href="#m84f3d7f190" y="174.528"/>
     <use style="stroke:#000000;" x="238.670172" xlink:href="#m84f3d7f190" y="174.528"/>
     <use style="stroke:#000000;" x="241.018709" xlink:href="#m84f3d7f190" y="171.996238"/>
     <use style="stroke:#000000;" x="237.751839" xlink:href="#m84f3d7f190" y="174.528"/>
     <use style="stroke:#000000;" x="239.059112" xlink:href="#m84f3d7f190" y="172.986595"/>
     <use style="stroke:#000000;" x="236.909827" xlink:href="#m84f3d7f190" y="171.853126"/>
     <use style="stroke:#000000;" x="239.346509" xlink:href="#m84f3d7f190" y="170.627481"/>
     <use style="stroke:#000000;" x="249.081492" xlink:href="#m84f3d7f190" y="171.666654"/>
     <use style="stroke:#000000;" x="252.021875" xlink:href="#m84f3d7f190" y="167.077273"/>
     <use style="stroke:#000000;" x="252.373831" xlink:href="#m84f3d7f190" y="166.381271"/>
     <use style="stroke:#000000;" x="251.445746" xlink:href="#m84f3d7f190" y="167.004348"/>
     <use style="stroke:#000000;" x="239.646681" xlink:href="#m84f3d7f190" y="174.528"/>
     <use style="stroke:#000000;" x="238.569124" xlink:href="#m84f3d7f190" y="174.528"/>
     <use style="stroke:#000000;" x="249.720969" xlink:href="#m84f3d7f190" y="172.579755"/>
     <use style="stroke:#000000;" x="246.125784" xlink:href="#m84f3d7f190" y="172.958412"/>
     <use style="stroke:#000000;" x="247.894076" xlink:href="#m84f3d7f190" y="174.121124"/>
     <use style="stroke:#000000;" x="248.522924" xlink:href="#m84f3d7f190" y="174.528"/>
     <use style="stroke:#000000;" x="236.16" xlink:href="#m84f3d7f190" y="173.674736"/>
     <use style="stroke:#000000;" x="236.16" xlink:href="#m84f3d7f190" y="174.528"/>
     <use style="stroke:#000000;" x="236.16" xlink:href="#m84f3d7f190" y="174.528"/>
     <use style="stroke:#000000;" x="236.16" xlink:href="#m84f3d7f190" y="173.420838"/>
     <use style="stroke:#000000;" x="236.537433" xlink:href="#m84f3d7f190" y="172.768831"/>
     <use style="stroke:#000000;" x="243.029713" xlink:href="#m84f3d7f190" y="173.862505"/>
     <use style="stroke:#000000;" x="242.916333" xlink:href="#m84f3d7f190" y="174.457532"/>
     <use style="stroke:#000000;" x="241.434528" xlink:href="#m84f3d7f190" y="174.388286"/>
     <use style="stroke:#000000;" x="240.184596" xlink:href="#m84f3d7f190" y="174.528"/>
     <use style="stroke:#000000;" x="242.762693" xlink:href="#m84f3d7f190" y="174.528"/>
     <use style="stroke:#000000;" x="245.246948" xlink:href="#m84f3d7f190" y="173.388123"/>
     <use style="stroke:#000000;" x="241.856756" xlink:href="#m84f3d7f190" y="174.528"/>
     <use style="stroke:#000000;" x="242.496102" xlink:href="#m84f3d7f190" y="174.528"/>
     <use style="stroke:#000000;" x="241.886116" xlink:href="#m84f3d7f190" y="174.528"/>
     <use style="stroke:#000000;" x="248.555353" xlink:href="#m84f3d7f190" y="174.024351"/>
    </g>
   </g>
   <g id="PathCollection_2">
    <defs>
     <path d="M 0 0.935414 
C 0.248075 0.935414 0.486022 0.836853 0.661438 0.661438 
C 0.836853 0.486022 0.935414 0.248075 0.935414 0 
C 0.935414 -0.248075 0.836853 -0.486022 0.661438 -0.661438 
C 0.486022 -0.836853 0.248075 -0.935414 0 -0.935414 
C -0.248075 -0.935414 -0.486022 -0.836853 -0.661438 -0.661438 
C -0.836853 -0.486022 -0.935414 -0.248075 -0.935414 0 
C -0.935414 0.248075 -0.836853 0.486022 -0.661438 0.661438 
C -0.486022 0.836853 -0.248075 0.935414 0 0.935414 
z
" id="m139f5435d8" style="stroke:#0000ff;"/>
    </defs>
    <g clip-path="url(#pf1bfad4cc7)">
     <use style="fill:#0000ff;stroke:#0000ff;" x="239.803686" xlink:href="#m139f5435d8" y="174.528"/>
     <use style="fill:#0000ff;stroke:#0000ff;" x="244.26792" xlink:href="#m139f5435d8" y="172.649796"/>
     <use style="fill:#0000ff;stroke:#0000ff;" x="247.519823" xlink:href="#m139f5435d8" y="174.528"/>
     <use style="fill:#0000ff;stroke:#0000ff;" x="236.701195" xlink:href="#m139f5435d8" y="173.743225"/>
     <use style="fill:#0000ff;stroke:#0000ff;" x="247.748126" xlink:href="#m139f5435d8" y="174.069817"/>
     <use style="fill:#0000ff;stroke:#0000ff;" x="236.724965" xlink:href="#m139f5435d8" y="173.35864"/>
     <use style="fill:#0000ff;stroke:#0000ff;" x="247.321864" xlink:href="#m139f5435d8" y="174.478201"/>
     <use style="fill:#0000ff;stroke:#0000ff;" x="239.881206" xlink:href="#m139f5435d8" y="174.528"/>
     <use style="fill:#0000ff;stroke:#0000ff;" x="236.212869" xlink:href="#m139f5435d8" y="174.528"/>
     <use style="fill:#0000ff;stroke:#0000ff;" x="239.79989" xlink:href="#m139f5435d8" y="171.823656"/>
     <use style="fill:#0000ff;stroke:#0000ff;" x="236.419659" xlink:href="#m139f5435d8" y="173.085831"/>
     <use style="fill:#0000ff;stroke:#0000ff;" x="236.978632" xlink:href="#m139f5435d8" y="174.528"/>
     <use style="fill:#0000ff;stroke:#0000ff;" x="238.125897" xlink:href="#m139f5435d8" y="172.29133"/>
     <use style="fill:#0000ff;stroke:#0000ff;" x="239.603498" xlink:href="#m139f5435d8" y="174.528"/>
     <use style="fill:#0000ff;stroke:#0000ff;" x="236.494464" xlink:href="#m139f5435d8" y="173.930887"/>
     <use style="fill:#0000ff;stroke:#0000ff;" x="240.557999" xlink:href="#m139f5435d8" y="174.528"/>
     <use style="fill:#0000ff;stroke:#0000ff;" x="240.441258" xlink:href="#m139f5435d8" y="173.803987"/>
     <use style="fill:#0000ff;stroke:#0000ff;" x="247.355587" xlink:href="#m139f5435d8" y="174.528"/>
     <use style="fill:#0000ff;stroke:#0000ff;" x="247.59296" xlink:href="#m139f5435d8" y="173.945406"/>
     <use style="fill:#0000ff;stroke:#0000ff;" x="236.481537" xlink:href="#m139f5435d8" y="174.528"/>
     <use style="fill:#0000ff;stroke:#0000ff;" x="236.434168" xlink:href="#m139f5435d8" y="174.528"/>
     <use style="fill:#0000ff;stroke:#0000ff;" x="236.394787" xlink:href="#m139f5435d8" y="173.79194"/>
     <use style="fill:#0000ff;stroke:#0000ff;" x="243.795207" xlink:href="#m139f5435d8" y="173.467031"/>
     <use style="fill:#0000ff;stroke:#0000ff;" x="236.16" xlink:href="#m139f5435d8" y="174.528"/>
     <use style="fill:#0000ff;stroke:#0000ff;" x="240.522339" xlink:href="#m139f5435d8" y="172.793238"/>
     <use style="fill:#0000ff;stroke:#0000ff;" x="239.683552" xlink:href="#m139f5435d8" y="173.43054"/>
     <use style="fill:#0000ff;stroke:#0000ff;" x="237.566165" xlink:href="#m139f5435d8" y="174.528"/>
     <use style="fill:#0000ff;stroke:#0000ff;" x="239.894807" xlink:href="#m139f5435d8" y="174.528"/>
     <use style="fill:#0000ff;stroke:#0000ff;" x="247.066928" xlink:href="#m139f5435d8" y="174.528"/>
     <use style="fill:#0000ff;stroke:#0000ff;" x="239.361413" xlink:href="#m139f5435d8" y="173.022473"/>
     <use style="fill:#0000ff;stroke:#0000ff;" x="237.477948" xlink:href="#m139f5435d8" y="174.528"/>
     <use style="fill:#0000ff;stroke:#0000ff;" x="240.110191" xlink:href="#m139f5435d8" y="174.528"/>
     <use style="fill:#0000ff;stroke:#0000ff;" x="236.427221" xlink:href="#m139f5435d8" y="173.441926"/>
     <use style="fill:#0000ff;stroke:#0000ff;" x="240.560338" xlink:href="#m139f5435d8" y="174.243159"/>
     <use style="fill:#0000ff;stroke:#0000ff;" x="239.739895" xlink:href="#m139f5435d8" y="174.528"/>
     <use style="fill:#0000ff;stroke:#0000ff;" x="240.284807" xlink:href="#m139f5435d8" y="174.26035"/>
     <use style="fill:#0000ff;stroke:#0000ff;" x="251.111911" xlink:href="#m139f5435d8" y="167.882254"/>
     <use style="fill:#0000ff;stroke:#0000ff;" x="236.616536" xlink:href="#m139f5435d8" y="174.525424"/>
     <use style="fill:#0000ff;stroke:#0000ff;" x="236.540263" xlink:href="#m139f5435d8" y="174.528"/>
     <use style="fill:#0000ff;stroke:#0000ff;" x="238.832153" xlink:href="#m139f5435d8" y="173.894595"/>
     <use style="fill:#0000ff;stroke:#0000ff;" x="239.901287" xlink:href="#m139f5435d8" y="171.794441"/>
     <use style="fill:#0000ff;stroke:#0000ff;" x="236.980375" xlink:href="#m139f5435d8" y="174.528"/>
     <use style="fill:#0000ff;stroke:#0000ff;" x="237.346048" xlink:href="#m139f5435d8" y="174.528"/>
     <use style="fill:#0000ff;stroke:#0000ff;" x="237.642502" xlink:href="#m139f5435d8" y="172.418281"/>
     <use style="fill:#0000ff;stroke:#0000ff;" x="247.543607" xlink:href="#m139f5435d8" y="172.006677"/>
     <use style="fill:#0000ff;stroke:#0000ff;" x="251.349548" xlink:href="#m139f5435d8" y="168.22521"/>
     <use style="fill:#0000ff;stroke:#0000ff;" x="251.301648" xlink:href="#m139f5435d8" y="167.455521"/>
     <use style="fill:#0000ff;stroke:#0000ff;" x="239.80875" xlink:href="#m139f5435d8" y="174.528"/>
     <use style="fill:#0000ff;stroke:#0000ff;" x="247.644322" xlink:href="#m139f5435d8" y="172.78416"/>
     <use style="fill:#0000ff;stroke:#0000ff;" x="247.422261" xlink:href="#m139f5435d8" y="174.528"/>
     <use style="fill:#0000ff;stroke:#0000ff;" x="236.257238" xlink:href="#m139f5435d8" y="174.242882"/>
     <use style="fill:#0000ff;stroke:#0000ff;" x="236.393284" xlink:href="#m139f5435d8" y="174.528"/>
     <use style="fill:#0000ff;stroke:#0000ff;" x="236.737732" xlink:href="#m139f5435d8" y="174.528"/>
     <use style="fill:#0000ff;stroke:#0000ff;" x="236.735096" xlink:href="#m139f5435d8" y="174.528"/>
     <use style="fill:#0000ff;stroke:#0000ff;" x="236.702765" xlink:href="#m139f5435d8" y="173.231736"/>
     <use style="fill:#0000ff;stroke:#0000ff;" x="243.951482" xlink:href="#m139f5435d8" y="174.166401"/>
     <use style="fill:#0000ff;stroke:#0000ff;" x="240.778096" xlink:href="#m139f5435d8" y="174.528"/>
     <use style="fill:#0000ff;stroke:#0000ff;" x="244.033589" xlink:href="#m139f5435d8" y="173.397782"/>
     <use style="fill:#0000ff;stroke:#0000ff;" x="240.827165" xlink:href="#m139f5435d8" y="174.165685"/>
     <use style="fill:#0000ff;stroke:#0000ff;" x="244.223715" xlink:href="#m139f5435d8" y="174.32506"/>
    </g>
   </g>
   <g id="matplotlib.axis_1">
    <g id="xtick_1">
     <g id="line2d_1">
      <defs>
       <path d="M 0 0 
L 0 3.5 
" id="me06ecd5d16" style="stroke:#000000;stroke-width:0.8;"/>
      </defs>
      <g>
       <use style="stroke:#000000;stroke-width:0.8;" x="57.6" xlink:href="#me06ecd5d16" y="307.584"/>
      </g>
     </g>
     <g id="text_1">
      <!-- −10.0 -->
      <defs>
       <path d="M 10.59375 35.5 
L 73.1875 35.5 
L 73.1875 27.203125 
L 10.59375 27.203125 
z
" id="DejaVuSans-2212"/>
       <path d="M 12.40625 8.296875 
L 28.515625 8.296875 
L 28.515625 63.921875 
L 10.984375 60.40625 
L 10.984375 69.390625 
L 28.421875 72.90625 
L 38.28125 72.90625 
L 38.28125 8.296875 
L 54.390625 8.296875 
L 54.390625 0 
L 12.40625 0 
z
" id="DejaVuSans-31"/>
       <path d="M 31.78125 66.40625 
Q 24.171875 66.40625 20.328125 58.90625 
Q 16.5 51.421875 16.5 36.375 
Q 16.5 21.390625 20.328125 13.890625 
Q 24.171875 6.390625 31.78125 6.390625 
Q 39.453125 6.390625 43.28125 13.890625 
Q 47.125 21.390625 47.125 36.375 
Q 47.125 51.421875 43.28125 58.90625 
Q 39.453125 66.40625 31.78125 66.40625 
z
M 31.78125 74.21875 
Q 44.046875 74.21875 50.515625 64.515625 
Q 56.984375 54.828125 56.984375 36.375 
Q 56.984375 17.96875 50.515625 8.265625 
Q 44.046875 -1.421875 31.78125 -1.421875 
Q 19.53125 -1.421875 13.0625 8.265625 
Q 6.59375 17.96875 6.59375 36.375 
Q 6.59375 54.828125 13.0625 64.515625 
Q 19.53125 74.21875 31.78125 74.21875 
z
" id="DejaVuSans-30"/>
       <path d="M 10.6875 12.40625 
L 21 12.40625 
L 21 0 
L 10.6875 0 
z
" id="DejaVuSans-2e"/>
      </defs>
      <g transform="translate(42.277344 322.182437)scale(0.1 -0.1)">
       <use xlink:href="#DejaVuSans-2212"/>
       <use x="83.789062" xlink:href="#DejaVuSans-31"/>
       <use x="147.412109" xlink:href="#DejaVuSans-30"/>
       <use x="211.035156" xlink:href="#DejaVuSans-2e"/>
       <use x="242.822266" xlink:href="#DejaVuSans-30"/>
      </g>
     </g>
    </g>
    <g id="xtick_2">
     <g id="line2d_2">
      <g>
       <use style="stroke:#000000;stroke-width:0.8;" x="102.24" xlink:href="#me06ecd5d16" y="307.584"/>
      </g>
     </g>
     <g id="text_2">
      <!-- −7.5 -->
      <defs>
       <path d="M 8.203125 72.90625 
L 55.078125 72.90625 
L 55.078125 68.703125 
L 28.609375 0 
L 18.3125 0 
L 43.21875 64.59375 
L 8.203125 64.59375 
z
" id="DejaVuSans-37"/>
       <path d="M 10.796875 72.90625 
L 49.515625 72.90625 
L 49.515625 64.59375 
L 19.828125 64.59375 
L 19.828125 46.734375 
Q 21.96875 47.46875 24.109375 47.828125 
Q 26.265625 48.1875 28.421875 48.1875 
Q 40.625 48.1875 47.75 41.5 
Q 54.890625 34.8125 54.890625 23.390625 
Q 54.890625 11.625 47.5625 5.09375 
Q 40.234375 -1.421875 26.90625 -1.421875 
Q 22.3125 -1.421875 17.546875 -0.640625 
Q 12.796875 0.140625 7.71875 1.703125 
L 7.71875 11.625 
Q 12.109375 9.234375 16.796875 8.0625 
Q 21.484375 6.890625 26.703125 6.890625 
Q 35.15625 6.890625 40.078125 11.328125 
Q 45.015625 15.765625 45.015625 23.390625 
Q 45.015625 31 40.078125 35.4375 
Q 35.15625 39.890625 26.703125 39.890625 
Q 22.75 39.890625 18.8125 39.015625 
Q 14.890625 38.140625 10.796875 36.28125 
z
" id="DejaVuSans-35"/>
      </defs>
      <g transform="translate(90.098594 322.182437)scale(0.1 -0.1)">
       <use xlink:href="#DejaVuSans-2212"/>
       <use x="83.789062" xlink:href="#DejaVuSans-37"/>
       <use x="147.412109" xlink:href="#DejaVuSans-2e"/>
       <use x="179.199219" xlink:href="#DejaVuSans-35"/>
      </g>
     </g>
    </g>
    <g id="xtick_3">
     <g id="line2d_3">
      <g>
       <use style="stroke:#000000;stroke-width:0.8;" x="146.88" xlink:href="#me06ecd5d16" y="307.584"/>
      </g>
     </g>
     <g id="text_3">
      <!-- −5.0 -->
      <g transform="translate(134.738594 322.182437)scale(0.1 -0.1)">
       <use xlink:href="#DejaVuSans-2212"/>
       <use x="83.789062" xlink:href="#DejaVuSans-35"/>
       <use x="147.412109" xlink:href="#DejaVuSans-2e"/>
       <use x="179.199219" xlink:href="#DejaVuSans-30"/>
      </g>
     </g>
    </g>
    <g id="xtick_4">
     <g id="line2d_4">
      <g>
       <use style="stroke:#000000;stroke-width:0.8;" x="191.52" xlink:href="#me06ecd5d16" y="307.584"/>
      </g>
     </g>
     <g id="text_4">
      <!-- −2.5 -->
      <defs>
       <path d="M 19.1875 8.296875 
L 53.609375 8.296875 
L 53.609375 0 
L 7.328125 0 
L 7.328125 8.296875 
Q 12.9375 14.109375 22.625 23.890625 
Q 32.328125 33.6875 34.8125 36.53125 
Q 39.546875 41.84375 41.421875 45.53125 
Q 43.3125 49.21875 43.3125 52.78125 
Q 43.3125 58.59375 39.234375 62.25 
Q 35.15625 65.921875 28.609375 65.921875 
Q 23.96875 65.921875 18.8125 64.3125 
Q 13.671875 62.703125 7.8125 59.421875 
L 7.8125 69.390625 
Q 13.765625 71.78125 18.9375 73 
Q 24.125 74.21875 28.421875 74.21875 
Q 39.75 74.21875 46.484375 68.546875 
Q 53.21875 62.890625 53.21875 53.421875 
Q 53.21875 48.921875 51.53125 44.890625 
Q 49.859375 40.875 45.40625 35.40625 
Q 44.1875 33.984375 37.640625 27.21875 
Q 31.109375 20.453125 19.1875 8.296875 
z
" id="DejaVuSans-32"/>
      </defs>
      <g transform="translate(179.378594 322.182437)scale(0.1 -0.1)">
       <use xlink:href="#DejaVuSans-2212"/>
       <use x="83.789062" xlink:href="#DejaVuSans-32"/>
       <use x="147.412109" xlink:href="#DejaVuSans-2e"/>
       <use x="179.199219" xlink:href="#DejaVuSans-35"/>
      </g>
     </g>
    </g>
    <g id="xtick_5">
     <g id="line2d_5">
      <g>
       <use style="stroke:#000000;stroke-width:0.8;" x="236.16" xlink:href="#me06ecd5d16" y="307.584"/>
      </g>
     </g>
     <g id="text_5">
      <!-- 0.0 -->
      <g transform="translate(228.208438 322.182437)scale(0.1 -0.1)">
       <use xlink:href="#DejaVuSans-30"/>
       <use x="63.623047" xlink:href="#DejaVuSans-2e"/>
       <use x="95.410156" xlink:href="#DejaVuSans-30"/>
      </g>
     </g>
    </g>
    <g id="xtick_6">
     <g id="line2d_6">
      <g>
       <use style="stroke:#000000;stroke-width:0.8;" x="280.8" xlink:href="#me06ecd5d16" y="307.584"/>
      </g>
     </g>
     <g id="text_6">
      <!-- 2.5 -->
      <g transform="translate(272.848437 322.182437)scale(0.1 -0.1)">
       <use xlink:href="#DejaVuSans-32"/>
       <use x="63.623047" xlink:href="#DejaVuSans-2e"/>
       <use x="95.410156" xlink:href="#DejaVuSans-35"/>
      </g>
     </g>
    </g>
    <g id="xtick_7">
     <g id="line2d_7">
      <g>
       <use style="stroke:#000000;stroke-width:0.8;" x="325.44" xlink:href="#me06ecd5d16" y="307.584"/>
      </g>
     </g>
     <g id="text_7">
      <!-- 5.0 -->
      <g transform="translate(317.488437 322.182437)scale(0.1 -0.1)">
       <use xlink:href="#DejaVuSans-35"/>
       <use x="63.623047" xlink:href="#DejaVuSans-2e"/>
       <use x="95.410156" xlink:href="#DejaVuSans-30"/>
      </g>
     </g>
    </g>
    <g id="xtick_8">
     <g id="line2d_8">
      <g>
       <use style="stroke:#000000;stroke-width:0.8;" x="370.08" xlink:href="#me06ecd5d16" y="307.584"/>
      </g>
     </g>
     <g id="text_8">
      <!-- 7.5 -->
      <g transform="translate(362.128438 322.182437)scale(0.1 -0.1)">
       <use xlink:href="#DejaVuSans-37"/>
       <use x="63.623047" xlink:href="#DejaVuSans-2e"/>
       <use x="95.410156" xlink:href="#DejaVuSans-35"/>
      </g>
     </g>
    </g>
    <g id="xtick_9">
     <g id="line2d_9">
      <g>
       <use style="stroke:#000000;stroke-width:0.8;" x="414.72" xlink:href="#me06ecd5d16" y="307.584"/>
      </g>
     </g>
     <g id="text_9">
      <!-- 10.0 -->
      <g transform="translate(403.587188 322.182437)scale(0.1 -0.1)">
       <use xlink:href="#DejaVuSans-31"/>
       <use x="63.623047" xlink:href="#DejaVuSans-30"/>
       <use x="127.246094" xlink:href="#DejaVuSans-2e"/>
       <use x="159.033203" xlink:href="#DejaVuSans-30"/>
      </g>
     </g>
    </g>
   </g>
   <g id="matplotlib.axis_2">
    <g id="ytick_1">
     <g id="line2d_10">
      <defs>
       <path d="M 0 0 
L -3.5 0 
" id="m18684f40a6" style="stroke:#000000;stroke-width:0.8;"/>
      </defs>
      <g>
       <use style="stroke:#000000;stroke-width:0.8;" x="57.6" xlink:href="#m18684f40a6" y="307.584"/>
      </g>
     </g>
     <g id="text_10">
      <!-- −10.0 -->
      <g transform="translate(19.954687 311.383219)scale(0.1 -0.1)">
       <use xlink:href="#DejaVuSans-2212"/>
       <use x="83.789062" xlink:href="#DejaVuSans-31"/>
       <use x="147.412109" xlink:href="#DejaVuSans-30"/>
       <use x="211.035156" xlink:href="#DejaVuSans-2e"/>
       <use x="242.822266" xlink:href="#DejaVuSans-30"/>
      </g>
     </g>
    </g>
    <g id="ytick_2">
     <g id="line2d_11">
      <g>
       <use style="stroke:#000000;stroke-width:0.8;" x="57.6" xlink:href="#m18684f40a6" y="274.32"/>
      </g>
     </g>
     <g id="text_11">
      <!-- −7.5 -->
      <g transform="translate(26.317187 278.119219)scale(0.1 -0.1)">
       <use xlink:href="#DejaVuSans-2212"/>
       <use x="83.789062" xlink:href="#DejaVuSans-37"/>
       <use x="147.412109" xlink:href="#DejaVuSans-2e"/>
       <use x="179.199219" xlink:href="#DejaVuSans-35"/>
      </g>
     </g>
    </g>
    <g id="ytick_3">
     <g id="line2d_12">
      <g>
       <use style="stroke:#000000;stroke-width:0.8;" x="57.6" xlink:href="#m18684f40a6" y="241.056"/>
      </g>
     </g>
     <g id="text_12">
      <!-- −5.0 -->
      <g transform="translate(26.317187 244.855219)scale(0.1 -0.1)">
       <use xlink:href="#DejaVuSans-2212"/>
       <use x="83.789062" xlink:href="#DejaVuSans-35"/>
       <use x="147.412109" xlink:href="#DejaVuSans-2e"/>
       <use x="179.199219" xlink:href="#DejaVuSans-30"/>
      </g>
     </g>
    </g>
    <g id="ytick_4">
     <g id="line2d_13">
      <g>
       <use style="stroke:#000000;stroke-width:0.8;" x="57.6" xlink:href="#m18684f40a6" y="207.792"/>
      </g>
     </g>
     <g id="text_13">
      <!-- −2.5 -->
      <g transform="translate(26.317187 211.591219)scale(0.1 -0.1)">
       <use xlink:href="#DejaVuSans-2212"/>
       <use x="83.789062" xlink:href="#DejaVuSans-32"/>
       <use x="147.412109" xlink:href="#DejaVuSans-2e"/>
       <use x="179.199219" xlink:href="#DejaVuSans-35"/>
      </g>
     </g>
    </g>
    <g id="ytick_5">
     <g id="line2d_14">
      <g>
       <use style="stroke:#000000;stroke-width:0.8;" x="57.6" xlink:href="#m18684f40a6" y="174.528"/>
      </g>
     </g>
     <g id="text_14">
      <!-- 0.0 -->
      <g transform="translate(34.696875 178.327219)scale(0.1 -0.1)">
       <use xlink:href="#DejaVuSans-30"/>
       <use x="63.623047" xlink:href="#DejaVuSans-2e"/>
       <use x="95.410156" xlink:href="#DejaVuSans-30"/>
      </g>
     </g>
    </g>
    <g id="ytick_6">
     <g id="line2d_15">
      <g>
       <use style="stroke:#000000;stroke-width:0.8;" x="57.6" xlink:href="#m18684f40a6" y="141.264"/>
      </g>
     </g>
     <g id="text_15">
      <!-- 2.5 -->
      <g transform="translate(34.696875 145.063219)scale(0.1 -0.1)">
       <use xlink:href="#DejaVuSans-32"/>
       <use x="63.623047" xlink:href="#DejaVuSans-2e"/>
       <use x="95.410156" xlink:href="#DejaVuSans-35"/>
      </g>
     </g>
    </g>
    <g id="ytick_7">
     <g id="line2d_16">
      <g>
       <use style="stroke:#000000;stroke-width:0.8;" x="57.6" xlink:href="#m18684f40a6" y="108"/>
      </g>
     </g>
     <g id="text_16">
      <!-- 5.0 -->
      <g transform="translate(34.696875 111.799219)scale(0.1 -0.1)">
       <use xlink:href="#DejaVuSans-35"/>
       <use x="63.623047" xlink:href="#DejaVuSans-2e"/>
       <use x="95.410156" xlink:href="#DejaVuSans-30"/>
      </g>
     </g>
    </g>
    <g id="ytick_8">
     <g id="line2d_17">
      <g>
       <use style="stroke:#000000;stroke-width:0.8;" x="57.6" xlink:href="#m18684f40a6" y="74.736"/>
      </g>
     </g>
     <g id="text_17">
      <!-- 7.5 -->
      <g transform="translate(34.696875 78.535219)scale(0.1 -0.1)">
       <use xlink:href="#DejaVuSans-37"/>
       <use x="63.623047" xlink:href="#DejaVuSans-2e"/>
       <use x="95.410156" xlink:href="#DejaVuSans-35"/>
      </g>
     </g>
    </g>
    <g id="ytick_9">
     <g id="line2d_18">
      <g>
       <use style="stroke:#000000;stroke-width:0.8;" x="57.6" xlink:href="#m18684f40a6" y="41.472"/>
      </g>
     </g>
     <g id="text_18">
      <!-- 10.0 -->
      <g transform="translate(28.334375 45.271219)scale(0.1 -0.1)">
       <use xlink:href="#DejaVuSans-31"/>
       <use x="63.623047" xlink:href="#DejaVuSans-30"/>
       <use x="127.246094" xlink:href="#DejaVuSans-2e"/>
       <use x="159.033203" xlink:href="#DejaVuSans-30"/>
      </g>
     </g>
    </g>
   </g>
   <g id="patch_3">
    <path d="M 57.6 307.584 
L 57.6 41.472 
" style="fill:none;stroke:#000000;stroke-linecap:square;stroke-linejoin:miter;stroke-width:0.8;"/>
   </g>
   <g id="patch_4">
    <path d="M 414.72 307.584 
L 414.72 41.472 
" style="fill:none;stroke:#000000;stroke-linecap:square;stroke-linejoin:miter;stroke-width:0.8;"/>
   </g>
   <g id="patch_5">
    <path d="M 57.6 307.584 
L 414.72 307.584 
" style="fill:none;stroke:#000000;stroke-linecap:square;stroke-linejoin:miter;stroke-width:0.8;"/>
   </g>
   <g id="patch_6">
    <path d="M 57.6 41.472 
L 414.72 41.472 
" style="fill:none;stroke:#000000;stroke-linecap:square;stroke-linejoin:miter;stroke-width:0.8;"/>
   </g>
  </g>
 </g>
 <defs>
  <clipPath id="pf1bfad4cc7">
   <rect height="266.112" width="357.12" x="57.6" y="41.472"/>
  </clipPath>
 </defs>
</svg>
