<?xml version="1.0" encoding="utf-8" standalone="no"?>
<!DOCTYPE svg PUBLIC "-//W3C//DTD SVG 1.1//EN"
  "http://www.w3.org/Graphics/SVG/1.1/DTD/svg11.dtd">
<!-- Created with matplotlib (http://matplotlib.org/) -->
<svg height="345.6pt" version="1.1" viewBox="0 0 460.8 345.6" width="460.8pt" xmlns="http://www.w3.org/2000/svg" xmlns:xlink="http://www.w3.org/1999/xlink">
 <defs>
  <style type="text/css">
*{stroke-linecap:butt;stroke-linejoin:round;}
  </style>
 </defs>
 <g id="figure_1">
  <g id="patch_1">
   <path d="M 0 345.6 
L 460.8 345.6 
L 460.8 0 
L 0 0 
z
" style="fill:#ffffff;"/>
  </g>
  <g id="axes_1">
   <g id="patch_2">
    <path d="M 57.6 307.584 
L 414.72 307.584 
L 414.72 41.472 
L 57.6 41.472 
z
" style="fill:#ffffff;"/>
   </g>
   <g id="PathCollection_1">
    <defs>
     <path d="M 0 0.612372 
C 0.162403 0.612372 0.318176 0.547849 0.433013 0.433013 
C 0.547849 0.318176 0.612372 0.162403 0.612372 0 
C 0.612372 -0.162403 0.547849 -0.318176 0.433013 -0.433013 
C 0.318176 -0.547849 0.162403 -0.612372 0 -0.612372 
C -0.162403 -0.612372 -0.318176 -0.547849 -0.433013 -0.433013 
C -0.547849 -0.318176 -0.612372 -0.162403 -0.612372 0 
C -0.612372 0.162403 -0.547849 0.318176 -0.433013 0.433013 
C -0.318176 0.547849 -0.162403 0.612372 0 0.612372 
z
" id="meeb7eddc35" style="stroke:#000000;"/>
    </defs>
    <g clip-path="url(#p1e1c522838)">
     <use style="stroke:#000000;" x="236.16" xlink:href="#meeb7eddc35" y="162.00496"/>
     <use style="stroke:#000000;" x="244.061038" xlink:href="#meeb7eddc35" y="174.528"/>
     <use style="stroke:#000000;" x="325.44" xlink:href="#meeb7eddc35" y="137.333044"/>
     <use style="stroke:#000000;" x="236.16" xlink:href="#meeb7eddc35" y="163.545375"/>
     <use style="stroke:#000000;" x="236.16" xlink:href="#meeb7eddc35" y="136.436626"/>
     <use style="stroke:#000000;" x="315.516792" xlink:href="#meeb7eddc35" y="174.528"/>
     <use style="stroke:#000000;" x="273.306726" xlink:href="#meeb7eddc35" y="174.528"/>
     <use style="stroke:#000000;" x="236.16" xlink:href="#meeb7eddc35" y="148.138036"/>
     <use style="stroke:#000000;" x="245.442316" xlink:href="#meeb7eddc35" y="174.528"/>
     <use style="stroke:#000000;" x="236.16" xlink:href="#meeb7eddc35" y="134.6112"/>
     <use style="stroke:#000000;" x="236.16" xlink:href="#meeb7eddc35" y="159.526667"/>
     <use style="stroke:#000000;" x="236.16" xlink:href="#meeb7eddc35" y="134.6112"/>
     <use style="stroke:#000000;" x="236.16" xlink:href="#meeb7eddc35" y="172.561163"/>
     <use style="stroke:#000000;" x="236.16" xlink:href="#meeb7eddc35" y="174.528"/>
     <use style="stroke:#000000;" x="236.16" xlink:href="#meeb7eddc35" y="141.058225"/>
     <use style="stroke:#000000;" x="325.44" xlink:href="#meeb7eddc35" y="142.175733"/>
     <use style="stroke:#000000;" x="255.019646" xlink:href="#meeb7eddc35" y="174.528"/>
     <use style="stroke:#000000;" x="236.16" xlink:href="#meeb7eddc35" y="134.6112"/>
     <use style="stroke:#000000;" x="240.106143" xlink:href="#meeb7eddc35" y="174.528"/>
     <use style="stroke:#000000;" x="236.16" xlink:href="#meeb7eddc35" y="163.723797"/>
     <use style="stroke:#000000;" x="236.16" xlink:href="#meeb7eddc35" y="174.528"/>
     <use style="stroke:#000000;" x="236.16" xlink:href="#meeb7eddc35" y="147.806594"/>
     <use style="stroke:#000000;" x="236.16" xlink:href="#meeb7eddc35" y="147.955218"/>
     <use style="stroke:#000000;" x="236.16" xlink:href="#meeb7eddc35" y="150.313401"/>
     <use style="stroke:#000000;" x="236.16" xlink:href="#meeb7eddc35" y="170.072867"/>
     <use style="stroke:#000000;" x="325.44" xlink:href="#meeb7eddc35" y="140.736768"/>
     <use style="stroke:#000000;" x="236.16" xlink:href="#meeb7eddc35" y="145.034124"/>
     <use style="stroke:#000000;" x="236.16" xlink:href="#meeb7eddc35" y="150.935124"/>
     <use style="stroke:#000000;" x="236.16" xlink:href="#meeb7eddc35" y="143.975966"/>
     <use style="stroke:#000000;" x="236.16" xlink:href="#meeb7eddc35" y="142.435865"/>
     <use style="stroke:#000000;" x="325.44" xlink:href="#meeb7eddc35" y="143.998845"/>
     <use style="stroke:#000000;" x="236.16" xlink:href="#meeb7eddc35" y="139.103887"/>
     <use style="stroke:#000000;" x="236.16" xlink:href="#meeb7eddc35" y="161.435495"/>
     <use style="stroke:#000000;" x="236.16" xlink:href="#meeb7eddc35" y="157.420745"/>
     <use style="stroke:#000000;" x="325.44" xlink:href="#meeb7eddc35" y="171.432138"/>
     <use style="stroke:#000000;" x="242.369097" xlink:href="#meeb7eddc35" y="174.528"/>
     <use style="stroke:#000000;" x="236.16" xlink:href="#meeb7eddc35" y="172.396542"/>
     <use style="stroke:#000000;" x="236.16" xlink:href="#meeb7eddc35" y="142.625375"/>
     <use style="stroke:#000000;" x="236.16" xlink:href="#meeb7eddc35" y="144.523079"/>
     <use style="stroke:#000000;" x="286.367574" xlink:href="#meeb7eddc35" y="174.528"/>
     <use style="stroke:#000000;" x="304.775217" xlink:href="#meeb7eddc35" y="174.528"/>
     <use style="stroke:#000000;" x="321.885286" xlink:href="#meeb7eddc35" y="174.528"/>
     <use style="stroke:#000000;" x="236.16" xlink:href="#meeb7eddc35" y="140.500013"/>
     <use style="stroke:#000000;" x="325.44" xlink:href="#meeb7eddc35" y="146.311296"/>
     <use style="stroke:#000000;" x="236.16" xlink:href="#meeb7eddc35" y="134.6112"/>
     <use style="stroke:#000000;" x="236.16" xlink:href="#meeb7eddc35" y="160.385838"/>
     <use style="stroke:#000000;" x="236.16" xlink:href="#meeb7eddc35" y="138.162058"/>
     <use style="stroke:#000000;" x="236.16" xlink:href="#meeb7eddc35" y="153.535214"/>
     <use style="stroke:#000000;" x="236.16" xlink:href="#meeb7eddc35" y="134.6112"/>
     <use style="stroke:#000000;" x="236.16" xlink:href="#meeb7eddc35" y="134.6112"/>
     <use style="stroke:#000000;" x="325.44" xlink:href="#meeb7eddc35" y="174.528"/>
     <use style="stroke:#000000;" x="265.10093" xlink:href="#meeb7eddc35" y="174.528"/>
     <use style="stroke:#000000;" x="236.16" xlink:href="#meeb7eddc35" y="159.709076"/>
     <use style="stroke:#000000;" x="265.870376" xlink:href="#meeb7eddc35" y="174.528"/>
     <use style="stroke:#000000;" x="236.16" xlink:href="#meeb7eddc35" y="134.6112"/>
     <use style="stroke:#000000;" x="256.315166" xlink:href="#meeb7eddc35" y="174.528"/>
     <use style="stroke:#000000;" x="236.16" xlink:href="#meeb7eddc35" y="165.135377"/>
     <use style="stroke:#000000;" x="236.16" xlink:href="#meeb7eddc35" y="134.657845"/>
     <use style="stroke:#000000;" x="271.175452" xlink:href="#meeb7eddc35" y="174.528"/>
     <use style="stroke:#000000;" x="236.16" xlink:href="#meeb7eddc35" y="138.594852"/>
     <use style="stroke:#000000;" x="236.16" xlink:href="#meeb7eddc35" y="174.528"/>
     <use style="stroke:#000000;" x="248.966444" xlink:href="#meeb7eddc35" y="174.528"/>
     <use style="stroke:#000000;" x="321.618979" xlink:href="#meeb7eddc35" y="174.528"/>
     <use style="stroke:#000000;" x="240.960478" xlink:href="#meeb7eddc35" y="174.528"/>
     <use style="stroke:#000000;" x="325.44" xlink:href="#meeb7eddc35" y="151.625093"/>
     <use style="stroke:#000000;" x="236.16" xlink:href="#meeb7eddc35" y="141.4661"/>
     <use style="stroke:#000000;" x="325.44" xlink:href="#meeb7eddc35" y="138.886685"/>
     <use style="stroke:#000000;" x="236.16" xlink:href="#meeb7eddc35" y="136.669413"/>
     <use style="stroke:#000000;" x="325.44" xlink:href="#meeb7eddc35" y="134.6112"/>
     <use style="stroke:#000000;" x="236.16" xlink:href="#meeb7eddc35" y="151.407528"/>
     <use style="stroke:#000000;" x="247.553536" xlink:href="#meeb7eddc35" y="174.528"/>
     <use style="stroke:#000000;" x="236.16" xlink:href="#meeb7eddc35" y="174.528"/>
     <use style="stroke:#000000;" x="236.16" xlink:href="#meeb7eddc35" y="139.620616"/>
     <use style="stroke:#000000;" x="236.16" xlink:href="#meeb7eddc35" y="140.073126"/>
     <use style="stroke:#000000;" x="325.44" xlink:href="#meeb7eddc35" y="134.6112"/>
     <use style="stroke:#000000;" x="325.44" xlink:href="#meeb7eddc35" y="134.6112"/>
     <use style="stroke:#000000;" x="236.16" xlink:href="#meeb7eddc35" y="134.792475"/>
     <use style="stroke:#000000;" x="252.23494" xlink:href="#meeb7eddc35" y="174.528"/>
     <use style="stroke:#000000;" x="236.16" xlink:href="#meeb7eddc35" y="145.286898"/>
     <use style="stroke:#000000;" x="236.16" xlink:href="#meeb7eddc35" y="143.944314"/>
     <use style="stroke:#000000;" x="238.294775" xlink:href="#meeb7eddc35" y="165.365922"/>
     <use style="stroke:#000000;" x="242.884783" xlink:href="#meeb7eddc35" y="174.305232"/>
     <use style="stroke:#000000;" x="246.440673" xlink:href="#meeb7eddc35" y="174.528"/>
     <use style="stroke:#000000;" x="252.95746" xlink:href="#meeb7eddc35" y="174.528"/>
     <use style="stroke:#000000;" x="246.138757" xlink:href="#meeb7eddc35" y="168.400808"/>
     <use style="stroke:#000000;" x="320.793159" xlink:href="#meeb7eddc35" y="139.608889"/>
     <use style="stroke:#000000;" x="316.036335" xlink:href="#meeb7eddc35" y="138.29375"/>
     <use style="stroke:#000000;" x="325.44" xlink:href="#meeb7eddc35" y="136.432274"/>
     <use style="stroke:#000000;" x="236.16" xlink:href="#meeb7eddc35" y="166.3351"/>
     <use style="stroke:#000000;" x="236.16" xlink:href="#meeb7eddc35" y="168.2276"/>
     <use style="stroke:#000000;" x="236.16" xlink:href="#meeb7eddc35" y="161.702738"/>
     <use style="stroke:#000000;" x="241.40193" xlink:href="#meeb7eddc35" y="134.6112"/>
     <use style="stroke:#000000;" x="239.696569" xlink:href="#meeb7eddc35" y="135.484157"/>
     <use style="stroke:#000000;" x="242.969049" xlink:href="#meeb7eddc35" y="134.6112"/>
     <use style="stroke:#000000;" x="321.142075" xlink:href="#meeb7eddc35" y="171.345086"/>
     <use style="stroke:#000000;" x="309.995483" xlink:href="#meeb7eddc35" y="174.528"/>
     <use style="stroke:#000000;" x="315.588723" xlink:href="#meeb7eddc35" y="174.528"/>
     <use style="stroke:#000000;" x="266.684614" xlink:href="#meeb7eddc35" y="174.528"/>
     <use style="stroke:#000000;" x="280.660082" xlink:href="#meeb7eddc35" y="174.528"/>
     <use style="stroke:#000000;" x="271.039793" xlink:href="#meeb7eddc35" y="174.389846"/>
     <use style="stroke:#000000;" x="236.16" xlink:href="#meeb7eddc35" y="150.826668"/>
     <use style="stroke:#000000;" x="236.16" xlink:href="#meeb7eddc35" y="149.436551"/>
     <use style="stroke:#000000;" x="240.944407" xlink:href="#meeb7eddc35" y="148.517705"/>
     <use style="stroke:#000000;" x="237.947246" xlink:href="#meeb7eddc35" y="174.528"/>
     <use style="stroke:#000000;" x="244.843959" xlink:href="#meeb7eddc35" y="170.863375"/>
     <use style="stroke:#000000;" x="246.235442" xlink:href="#meeb7eddc35" y="170.645087"/>
     <use style="stroke:#000000;" x="240.207609" xlink:href="#meeb7eddc35" y="134.840447"/>
     <use style="stroke:#000000;" x="236.16" xlink:href="#meeb7eddc35" y="134.986532"/>
     <use style="stroke:#000000;" x="246.83206" xlink:href="#meeb7eddc35" y="136.870089"/>
     <use style="stroke:#000000;" x="238.764815" xlink:href="#meeb7eddc35" y="158.913912"/>
     <use style="stroke:#000000;" x="236.16" xlink:href="#meeb7eddc35" y="159.470364"/>
     <use style="stroke:#000000;" x="236.16" xlink:href="#meeb7eddc35" y="159.527626"/>
     <use style="stroke:#000000;" x="236.16" xlink:href="#meeb7eddc35" y="134.6112"/>
     <use style="stroke:#000000;" x="236.16" xlink:href="#meeb7eddc35" y="139.686229"/>
     <use style="stroke:#000000;" x="236.16" xlink:href="#meeb7eddc35" y="134.6112"/>
     <use style="stroke:#000000;" x="236.16" xlink:href="#meeb7eddc35" y="169.196442"/>
     <use style="stroke:#000000;" x="236.16" xlink:href="#meeb7eddc35" y="169.557591"/>
     <use style="stroke:#000000;" x="247.807099" xlink:href="#meeb7eddc35" y="169.098407"/>
     <use style="stroke:#000000;" x="241.677388" xlink:href="#meeb7eddc35" y="174.528"/>
     <use style="stroke:#000000;" x="239.090093" xlink:href="#meeb7eddc35" y="173.8106"/>
     <use style="stroke:#000000;" x="236.16" xlink:href="#meeb7eddc35" y="174.528"/>
     <use style="stroke:#000000;" x="236.16" xlink:href="#meeb7eddc35" y="141.017085"/>
     <use style="stroke:#000000;" x="236.16" xlink:href="#meeb7eddc35" y="140.555956"/>
     <use style="stroke:#000000;" x="236.16" xlink:href="#meeb7eddc35" y="142.993053"/>
     <use style="stroke:#000000;" x="325.44" xlink:href="#meeb7eddc35" y="142.629642"/>
     <use style="stroke:#000000;" x="325.44" xlink:href="#meeb7eddc35" y="147.641964"/>
     <use style="stroke:#000000;" x="325.44" xlink:href="#meeb7eddc35" y="146.517605"/>
     <use style="stroke:#000000;" x="258.441516" xlink:href="#meeb7eddc35" y="174.528"/>
     <use style="stroke:#000000;" x="256.553068" xlink:href="#meeb7eddc35" y="173.993837"/>
     <use style="stroke:#000000;" x="258.227999" xlink:href="#meeb7eddc35" y="174.528"/>
     <use style="stroke:#000000;" x="236.16" xlink:href="#meeb7eddc35" y="137.684208"/>
     <use style="stroke:#000000;" x="236.16" xlink:href="#meeb7eddc35" y="134.757765"/>
     <use style="stroke:#000000;" x="236.16" xlink:href="#meeb7eddc35" y="134.6112"/>
     <use style="stroke:#000000;" x="242.259583" xlink:href="#meeb7eddc35" y="171.98264"/>
     <use style="stroke:#000000;" x="236.16" xlink:href="#meeb7eddc35" y="160.954657"/>
     <use style="stroke:#000000;" x="237.955782" xlink:href="#meeb7eddc35" y="165.851023"/>
     <use style="stroke:#000000;" x="239.53755" xlink:href="#meeb7eddc35" y="163.812527"/>
     <use style="stroke:#000000;" x="236.16" xlink:href="#meeb7eddc35" y="174.528"/>
     <use style="stroke:#000000;" x="236.16" xlink:href="#meeb7eddc35" y="174.528"/>
     <use style="stroke:#000000;" x="236.807978" xlink:href="#meeb7eddc35" y="172.324622"/>
     <use style="stroke:#000000;" x="236.16" xlink:href="#meeb7eddc35" y="143.938763"/>
     <use style="stroke:#000000;" x="236.94567" xlink:href="#meeb7eddc35" y="146.520221"/>
     <use style="stroke:#000000;" x="245.124928" xlink:href="#meeb7eddc35" y="146.284685"/>
     <use style="stroke:#000000;" x="236.16" xlink:href="#meeb7eddc35" y="152.016124"/>
     <use style="stroke:#000000;" x="236.16" xlink:href="#meeb7eddc35" y="151.713896"/>
     <use style="stroke:#000000;" x="240.653732" xlink:href="#meeb7eddc35" y="154.133113"/>
     <use style="stroke:#000000;" x="236.16" xlink:href="#meeb7eddc35" y="153.459472"/>
     <use style="stroke:#000000;" x="237.079637" xlink:href="#meeb7eddc35" y="171.792894"/>
     <use style="stroke:#000000;" x="238.822784" xlink:href="#meeb7eddc35" y="167.851038"/>
     <use style="stroke:#000000;" x="242.782469" xlink:href="#meeb7eddc35" y="171.575913"/>
     <use style="stroke:#000000;" x="324.942051" xlink:href="#meeb7eddc35" y="135.230594"/>
     <use style="stroke:#000000;" x="237.448807" xlink:href="#meeb7eddc35" y="147.574314"/>
     <use style="stroke:#000000;" x="236.16" xlink:href="#meeb7eddc35" y="144.679607"/>
     <use style="stroke:#000000;" x="236.16" xlink:href="#meeb7eddc35" y="142.347899"/>
     <use style="stroke:#000000;" x="236.16" xlink:href="#meeb7eddc35" y="151.138703"/>
     <use style="stroke:#000000;" x="236.16" xlink:href="#meeb7eddc35" y="142.299829"/>
     <use style="stroke:#000000;" x="236.16" xlink:href="#meeb7eddc35" y="141.979027"/>
     <use style="stroke:#000000;" x="237.485624" xlink:href="#meeb7eddc35" y="144.559428"/>
     <use style="stroke:#000000;" x="238.828324" xlink:href="#meeb7eddc35" y="145.68525"/>
     <use style="stroke:#000000;" x="310.148192" xlink:href="#meeb7eddc35" y="143.471818"/>
     <use style="stroke:#000000;" x="325.44" xlink:href="#meeb7eddc35" y="147.971398"/>
     <use style="stroke:#000000;" x="318.979403" xlink:href="#meeb7eddc35" y="143.244106"/>
     <use style="stroke:#000000;" x="244.10695" xlink:href="#meeb7eddc35" y="139.88565"/>
     <use style="stroke:#000000;" x="240.189806" xlink:href="#meeb7eddc35" y="159.001265"/>
     <use style="stroke:#000000;" x="240.178722" xlink:href="#meeb7eddc35" y="158.537978"/>
     <use style="stroke:#000000;" x="236.30597" xlink:href="#meeb7eddc35" y="159.8757"/>
     <use style="stroke:#000000;" x="237.409973" xlink:href="#meeb7eddc35" y="157.709159"/>
     <use style="stroke:#000000;" x="236.16" xlink:href="#meeb7eddc35" y="160.823548"/>
     <use style="stroke:#000000;" x="236.16" xlink:href="#meeb7eddc35" y="154.560365"/>
     <use style="stroke:#000000;" x="323.435048" xlink:href="#meeb7eddc35" y="168.182966"/>
     <use style="stroke:#000000;" x="250.741457" xlink:href="#meeb7eddc35" y="173.484017"/>
     <use style="stroke:#000000;" x="241.516249" xlink:href="#meeb7eddc35" y="174.528"/>
     <use style="stroke:#000000;" x="237.513988" xlink:href="#meeb7eddc35" y="170.361413"/>
     <use style="stroke:#000000;" x="237.108294" xlink:href="#meeb7eddc35" y="174.323041"/>
     <use style="stroke:#000000;" x="240.883619" xlink:href="#meeb7eddc35" y="143.62748"/>
     <use style="stroke:#000000;" x="236.16" xlink:href="#meeb7eddc35" y="139.457785"/>
     <use style="stroke:#000000;" x="240.887153" xlink:href="#meeb7eddc35" y="141.257332"/>
     <use style="stroke:#000000;" x="285.032551" xlink:href="#meeb7eddc35" y="174.528"/>
     <use style="stroke:#000000;" x="284.091078" xlink:href="#meeb7eddc35" y="173.832765"/>
     <use style="stroke:#000000;" x="311.182889" xlink:href="#meeb7eddc35" y="174.184052"/>
     <use style="stroke:#000000;" x="303.168394" xlink:href="#meeb7eddc35" y="174.528"/>
     <use style="stroke:#000000;" x="325.44" xlink:href="#meeb7eddc35" y="174.528"/>
     <use style="stroke:#000000;" x="320.830385" xlink:href="#meeb7eddc35" y="168.501417"/>
     <use style="stroke:#000000;" x="245.557114" xlink:href="#meeb7eddc35" y="137.287199"/>
     <use style="stroke:#000000;" x="241.648781" xlink:href="#meeb7eddc35" y="140.767996"/>
     <use style="stroke:#000000;" x="325.44" xlink:href="#meeb7eddc35" y="146.216865"/>
     <use style="stroke:#000000;" x="317.14071" xlink:href="#meeb7eddc35" y="145.084263"/>
     <use style="stroke:#000000;" x="241.172074" xlink:href="#meeb7eddc35" y="134.6112"/>
     <use style="stroke:#000000;" x="236.16" xlink:href="#meeb7eddc35" y="161.007505"/>
     <use style="stroke:#000000;" x="236.16" xlink:href="#meeb7eddc35" y="160.601142"/>
     <use style="stroke:#000000;" x="236.16" xlink:href="#meeb7eddc35" y="134.6112"/>
     <use style="stroke:#000000;" x="236.16" xlink:href="#meeb7eddc35" y="140.732402"/>
     <use style="stroke:#000000;" x="236.16" xlink:href="#meeb7eddc35" y="147.927298"/>
     <use style="stroke:#000000;" x="242.255699" xlink:href="#meeb7eddc35" y="153.258565"/>
     <use style="stroke:#000000;" x="236.16" xlink:href="#meeb7eddc35" y="139.462933"/>
     <use style="stroke:#000000;" x="238.992823" xlink:href="#meeb7eddc35" y="135.28821"/>
     <use style="stroke:#000000;" x="236.16" xlink:href="#meeb7eddc35" y="134.6112"/>
     <use style="stroke:#000000;" x="319.475233" xlink:href="#meeb7eddc35" y="174.528"/>
     <use style="stroke:#000000;" x="325.44" xlink:href="#meeb7eddc35" y="174.404131"/>
     <use style="stroke:#000000;" x="261.241906" xlink:href="#meeb7eddc35" y="169.13084"/>
     <use style="stroke:#000000;" x="262.02877" xlink:href="#meeb7eddc35" y="171.89102"/>
     <use style="stroke:#000000;" x="241.126917" xlink:href="#meeb7eddc35" y="154.366004"/>
     <use style="stroke:#000000;" x="237.024964" xlink:href="#meeb7eddc35" y="166.204606"/>
     <use style="stroke:#000000;" x="275.686746" xlink:href="#meeb7eddc35" y="171.269814"/>
     <use style="stroke:#000000;" x="236.16" xlink:href="#meeb7eddc35" y="134.6112"/>
     <use style="stroke:#000000;" x="256.586386" xlink:href="#meeb7eddc35" y="174.528"/>
     <use style="stroke:#000000;" x="240.22691" xlink:href="#meeb7eddc35" y="164.709019"/>
     <use style="stroke:#000000;" x="236.16" xlink:href="#meeb7eddc35" y="166.65401"/>
     <use style="stroke:#000000;" x="247.300748" xlink:href="#meeb7eddc35" y="134.6112"/>
     <use style="stroke:#000000;" x="273.123617" xlink:href="#meeb7eddc35" y="174.051814"/>
     <use style="stroke:#000000;" x="274.285491" xlink:href="#meeb7eddc35" y="173.835444"/>
     <use style="stroke:#000000;" x="236.16" xlink:href="#meeb7eddc35" y="136.697008"/>
     <use style="stroke:#000000;" x="237.498144" xlink:href="#meeb7eddc35" y="140.677086"/>
     <use style="stroke:#000000;" x="241.156877" xlink:href="#meeb7eddc35" y="174.528"/>
     <use style="stroke:#000000;" x="237.148608" xlink:href="#meeb7eddc35" y="170.409541"/>
     <use style="stroke:#000000;" x="252.057819" xlink:href="#meeb7eddc35" y="174.528"/>
     <use style="stroke:#000000;" x="246.044384" xlink:href="#meeb7eddc35" y="174.528"/>
     <use style="stroke:#000000;" x="322.857854" xlink:href="#meeb7eddc35" y="171.980087"/>
     <use style="stroke:#000000;" x="325.44" xlink:href="#meeb7eddc35" y="174.528"/>
     <use style="stroke:#000000;" x="237.12167" xlink:href="#meeb7eddc35" y="173.97244"/>
     <use style="stroke:#000000;" x="236.16" xlink:href="#meeb7eddc35" y="174.293909"/>
     <use style="stroke:#000000;" x="325.44" xlink:href="#meeb7eddc35" y="154.013248"/>
     <use style="stroke:#000000;" x="243.514852" xlink:href="#meeb7eddc35" y="144.845987"/>
     <use style="stroke:#000000;" x="241.722584" xlink:href="#meeb7eddc35" y="143.026854"/>
     <use style="stroke:#000000;" x="325.44" xlink:href="#meeb7eddc35" y="139.443441"/>
     <use style="stroke:#000000;" x="325.44" xlink:href="#meeb7eddc35" y="138.836692"/>
     <use style="stroke:#000000;" x="246.587274" xlink:href="#meeb7eddc35" y="137.797832"/>
     <use style="stroke:#000000;" x="238.363432" xlink:href="#meeb7eddc35" y="138.093684"/>
     <use style="stroke:#000000;" x="325.44" xlink:href="#meeb7eddc35" y="139.968629"/>
     <use style="stroke:#000000;" x="325.44" xlink:href="#meeb7eddc35" y="134.6112"/>
     <use style="stroke:#000000;" x="248.154967" xlink:href="#meeb7eddc35" y="151.39077"/>
     <use style="stroke:#000000;" x="252.247264" xlink:href="#meeb7eddc35" y="170.236466"/>
     <use style="stroke:#000000;" x="240.728175" xlink:href="#meeb7eddc35" y="174.528"/>
     <use style="stroke:#000000;" x="237.831598" xlink:href="#meeb7eddc35" y="140.701987"/>
     <use style="stroke:#000000;" x="238.357231" xlink:href="#meeb7eddc35" y="143.455168"/>
     <use style="stroke:#000000;" x="325.128202" xlink:href="#meeb7eddc35" y="136.507761"/>
     <use style="stroke:#000000;" x="321.686821" xlink:href="#meeb7eddc35" y="134.6112"/>
     <use style="stroke:#000000;" x="236.16" xlink:href="#meeb7eddc35" y="137.418132"/>
     <use style="stroke:#000000;" x="249.100983" xlink:href="#meeb7eddc35" y="174.079281"/>
     <use style="stroke:#000000;" x="236.16" xlink:href="#meeb7eddc35" y="149.314421"/>
     <use style="stroke:#000000;" x="236.16" xlink:href="#meeb7eddc35" y="145.57558"/>
    </g>
   </g>
   <g id="PathCollection_2">
    <defs>
     <path d="M 0 0.935414 
C 0.248075 0.935414 0.486022 0.836853 0.661438 0.661438 
C 0.836853 0.486022 0.935414 0.248075 0.935414 0 
C 0.935414 -0.248075 0.836853 -0.486022 0.661438 -0.661438 
C 0.486022 -0.836853 0.248075 -0.935414 0 -0.935414 
C -0.248075 -0.935414 -0.486022 -0.836853 -0.661438 -0.661438 
C -0.836853 -0.486022 -0.935414 -0.248075 -0.935414 0 
C -0.935414 0.248075 -0.836853 0.486022 -0.661438 0.661438 
C -0.486022 0.836853 -0.248075 0.935414 0 0.935414 
z
" id="m10af469c98" style="stroke:#0000ff;"/>
    </defs>
    <g clip-path="url(#p1e1c522838)">
     <use style="fill:#0000ff;stroke:#0000ff;" x="236.16" xlink:href="#m10af469c98" y="162.00496"/>
     <use style="fill:#0000ff;stroke:#0000ff;" x="244.061038" xlink:href="#m10af469c98" y="174.528"/>
     <use style="fill:#0000ff;stroke:#0000ff;" x="325.44" xlink:href="#m10af469c98" y="137.333044"/>
     <use style="fill:#0000ff;stroke:#0000ff;" x="236.16" xlink:href="#m10af469c98" y="163.545375"/>
     <use style="fill:#0000ff;stroke:#0000ff;" x="236.16" xlink:href="#m10af469c98" y="136.436626"/>
     <use style="fill:#0000ff;stroke:#0000ff;" x="315.516792" xlink:href="#m10af469c98" y="174.528"/>
     <use style="fill:#0000ff;stroke:#0000ff;" x="273.306726" xlink:href="#m10af469c98" y="174.528"/>
     <use style="fill:#0000ff;stroke:#0000ff;" x="236.16" xlink:href="#m10af469c98" y="148.138036"/>
     <use style="fill:#0000ff;stroke:#0000ff;" x="245.442316" xlink:href="#m10af469c98" y="174.528"/>
     <use style="fill:#0000ff;stroke:#0000ff;" x="236.16" xlink:href="#m10af469c98" y="134.6112"/>
     <use style="fill:#0000ff;stroke:#0000ff;" x="236.16" xlink:href="#m10af469c98" y="159.526667"/>
     <use style="fill:#0000ff;stroke:#0000ff;" x="236.16" xlink:href="#m10af469c98" y="134.6112"/>
     <use style="fill:#0000ff;stroke:#0000ff;" x="236.16" xlink:href="#m10af469c98" y="172.561163"/>
     <use style="fill:#0000ff;stroke:#0000ff;" x="236.16" xlink:href="#m10af469c98" y="174.528"/>
     <use style="fill:#0000ff;stroke:#0000ff;" x="236.16" xlink:href="#m10af469c98" y="141.058225"/>
     <use style="fill:#0000ff;stroke:#0000ff;" x="325.44" xlink:href="#m10af469c98" y="142.175733"/>
     <use style="fill:#0000ff;stroke:#0000ff;" x="255.019646" xlink:href="#m10af469c98" y="174.528"/>
     <use style="fill:#0000ff;stroke:#0000ff;" x="236.16" xlink:href="#m10af469c98" y="134.6112"/>
     <use style="fill:#0000ff;stroke:#0000ff;" x="240.106143" xlink:href="#m10af469c98" y="174.528"/>
     <use style="fill:#0000ff;stroke:#0000ff;" x="236.16" xlink:href="#m10af469c98" y="163.723797"/>
     <use style="fill:#0000ff;stroke:#0000ff;" x="236.16" xlink:href="#m10af469c98" y="174.528"/>
     <use style="fill:#0000ff;stroke:#0000ff;" x="236.16" xlink:href="#m10af469c98" y="147.806594"/>
     <use style="fill:#0000ff;stroke:#0000ff;" x="236.16" xlink:href="#m10af469c98" y="147.955218"/>
     <use style="fill:#0000ff;stroke:#0000ff;" x="236.16" xlink:href="#m10af469c98" y="150.313401"/>
     <use style="fill:#0000ff;stroke:#0000ff;" x="236.16" xlink:href="#m10af469c98" y="170.072867"/>
     <use style="fill:#0000ff;stroke:#0000ff;" x="325.44" xlink:href="#m10af469c98" y="140.736768"/>
     <use style="fill:#0000ff;stroke:#0000ff;" x="236.16" xlink:href="#m10af469c98" y="145.034124"/>
     <use style="fill:#0000ff;stroke:#0000ff;" x="236.16" xlink:href="#m10af469c98" y="150.935124"/>
     <use style="fill:#0000ff;stroke:#0000ff;" x="236.16" xlink:href="#m10af469c98" y="143.975966"/>
     <use style="fill:#0000ff;stroke:#0000ff;" x="236.16" xlink:href="#m10af469c98" y="142.435865"/>
     <use style="fill:#0000ff;stroke:#0000ff;" x="325.44" xlink:href="#m10af469c98" y="143.998845"/>
     <use style="fill:#0000ff;stroke:#0000ff;" x="236.16" xlink:href="#m10af469c98" y="139.103887"/>
     <use style="fill:#0000ff;stroke:#0000ff;" x="236.16" xlink:href="#m10af469c98" y="161.435495"/>
     <use style="fill:#0000ff;stroke:#0000ff;" x="236.16" xlink:href="#m10af469c98" y="157.420745"/>
     <use style="fill:#0000ff;stroke:#0000ff;" x="325.44" xlink:href="#m10af469c98" y="171.432138"/>
     <use style="fill:#0000ff;stroke:#0000ff;" x="242.369097" xlink:href="#m10af469c98" y="174.528"/>
     <use style="fill:#0000ff;stroke:#0000ff;" x="236.16" xlink:href="#m10af469c98" y="172.396542"/>
     <use style="fill:#0000ff;stroke:#0000ff;" x="236.16" xlink:href="#m10af469c98" y="142.625375"/>
     <use style="fill:#0000ff;stroke:#0000ff;" x="236.16" xlink:href="#m10af469c98" y="144.523079"/>
     <use style="fill:#0000ff;stroke:#0000ff;" x="286.367574" xlink:href="#m10af469c98" y="174.528"/>
     <use style="fill:#0000ff;stroke:#0000ff;" x="304.775217" xlink:href="#m10af469c98" y="174.528"/>
     <use style="fill:#0000ff;stroke:#0000ff;" x="321.885286" xlink:href="#m10af469c98" y="174.528"/>
     <use style="fill:#0000ff;stroke:#0000ff;" x="236.16" xlink:href="#m10af469c98" y="140.500013"/>
     <use style="fill:#0000ff;stroke:#0000ff;" x="325.44" xlink:href="#m10af469c98" y="146.311296"/>
     <use style="fill:#0000ff;stroke:#0000ff;" x="236.16" xlink:href="#m10af469c98" y="134.6112"/>
     <use style="fill:#0000ff;stroke:#0000ff;" x="236.16" xlink:href="#m10af469c98" y="160.385838"/>
     <use style="fill:#0000ff;stroke:#0000ff;" x="236.16" xlink:href="#m10af469c98" y="138.162058"/>
     <use style="fill:#0000ff;stroke:#0000ff;" x="236.16" xlink:href="#m10af469c98" y="153.535214"/>
     <use style="fill:#0000ff;stroke:#0000ff;" x="236.16" xlink:href="#m10af469c98" y="134.6112"/>
     <use style="fill:#0000ff;stroke:#0000ff;" x="236.16" xlink:href="#m10af469c98" y="134.6112"/>
     <use style="fill:#0000ff;stroke:#0000ff;" x="325.44" xlink:href="#m10af469c98" y="174.528"/>
     <use style="fill:#0000ff;stroke:#0000ff;" x="265.10093" xlink:href="#m10af469c98" y="174.528"/>
     <use style="fill:#0000ff;stroke:#0000ff;" x="236.16" xlink:href="#m10af469c98" y="159.709076"/>
     <use style="fill:#0000ff;stroke:#0000ff;" x="265.870376" xlink:href="#m10af469c98" y="174.528"/>
     <use style="fill:#0000ff;stroke:#0000ff;" x="236.16" xlink:href="#m10af469c98" y="134.6112"/>
     <use style="fill:#0000ff;stroke:#0000ff;" x="256.315166" xlink:href="#m10af469c98" y="174.528"/>
     <use style="fill:#0000ff;stroke:#0000ff;" x="236.16" xlink:href="#m10af469c98" y="165.135377"/>
     <use style="fill:#0000ff;stroke:#0000ff;" x="236.16" xlink:href="#m10af469c98" y="134.657845"/>
     <use style="fill:#0000ff;stroke:#0000ff;" x="271.175452" xlink:href="#m10af469c98" y="174.528"/>
     <use style="fill:#0000ff;stroke:#0000ff;" x="236.16" xlink:href="#m10af469c98" y="138.594852"/>
     <use style="fill:#0000ff;stroke:#0000ff;" x="236.16" xlink:href="#m10af469c98" y="174.528"/>
     <use style="fill:#0000ff;stroke:#0000ff;" x="248.966444" xlink:href="#m10af469c98" y="174.528"/>
     <use style="fill:#0000ff;stroke:#0000ff;" x="321.618979" xlink:href="#m10af469c98" y="174.528"/>
     <use style="fill:#0000ff;stroke:#0000ff;" x="240.960478" xlink:href="#m10af469c98" y="174.528"/>
     <use style="fill:#0000ff;stroke:#0000ff;" x="325.44" xlink:href="#m10af469c98" y="151.625093"/>
     <use style="fill:#0000ff;stroke:#0000ff;" x="236.16" xlink:href="#m10af469c98" y="141.4661"/>
     <use style="fill:#0000ff;stroke:#0000ff;" x="325.44" xlink:href="#m10af469c98" y="138.886685"/>
     <use style="fill:#0000ff;stroke:#0000ff;" x="236.16" xlink:href="#m10af469c98" y="136.669413"/>
     <use style="fill:#0000ff;stroke:#0000ff;" x="325.44" xlink:href="#m10af469c98" y="134.6112"/>
     <use style="fill:#0000ff;stroke:#0000ff;" x="236.16" xlink:href="#m10af469c98" y="151.407528"/>
     <use style="fill:#0000ff;stroke:#0000ff;" x="247.553536" xlink:href="#m10af469c98" y="174.528"/>
     <use style="fill:#0000ff;stroke:#0000ff;" x="236.16" xlink:href="#m10af469c98" y="174.528"/>
     <use style="fill:#0000ff;stroke:#0000ff;" x="236.16" xlink:href="#m10af469c98" y="139.620616"/>
     <use style="fill:#0000ff;stroke:#0000ff;" x="236.16" xlink:href="#m10af469c98" y="140.073126"/>
     <use style="fill:#0000ff;stroke:#0000ff;" x="325.44" xlink:href="#m10af469c98" y="134.6112"/>
     <use style="fill:#0000ff;stroke:#0000ff;" x="325.44" xlink:href="#m10af469c98" y="134.6112"/>
     <use style="fill:#0000ff;stroke:#0000ff;" x="236.16" xlink:href="#m10af469c98" y="134.792475"/>
     <use style="fill:#0000ff;stroke:#0000ff;" x="252.23494" xlink:href="#m10af469c98" y="174.528"/>
     <use style="fill:#0000ff;stroke:#0000ff;" x="236.16" xlink:href="#m10af469c98" y="145.286898"/>
     <use style="fill:#0000ff;stroke:#0000ff;" x="236.16" xlink:href="#m10af469c98" y="143.944314"/>
    </g>
   </g>
   <g id="matplotlib.axis_1">
    <g id="xtick_1">
     <g id="line2d_1">
      <defs>
       <path d="M 0 0 
L 0 3.5 
" id="m55eb97c29c" style="stroke:#000000;stroke-width:0.8;"/>
      </defs>
      <g>
       <use style="stroke:#000000;stroke-width:0.8;" x="57.6" xlink:href="#m55eb97c29c" y="307.584"/>
      </g>
     </g>
     <g id="text_1">
      <!-- −10.0 -->
      <defs>
       <path d="M 10.59375 35.5 
L 73.1875 35.5 
L 73.1875 27.203125 
L 10.59375 27.203125 
z
" id="DejaVuSans-2212"/>
       <path d="M 12.40625 8.296875 
L 28.515625 8.296875 
L 28.515625 63.921875 
L 10.984375 60.40625 
L 10.984375 69.390625 
L 28.421875 72.90625 
L 38.28125 72.90625 
L 38.28125 8.296875 
L 54.390625 8.296875 
L 54.390625 0 
L 12.40625 0 
z
" id="DejaVuSans-31"/>
       <path d="M 31.78125 66.40625 
Q 24.171875 66.40625 20.328125 58.90625 
Q 16.5 51.421875 16.5 36.375 
Q 16.5 21.390625 20.328125 13.890625 
Q 24.171875 6.390625 31.78125 6.390625 
Q 39.453125 6.390625 43.28125 13.890625 
Q 47.125 21.390625 47.125 36.375 
Q 47.125 51.421875 43.28125 58.90625 
Q 39.453125 66.40625 31.78125 66.40625 
z
M 31.78125 74.21875 
Q 44.046875 74.21875 50.515625 64.515625 
Q 56.984375 54.828125 56.984375 36.375 
Q 56.984375 17.96875 50.515625 8.265625 
Q 44.046875 -1.421875 31.78125 -1.421875 
Q 19.53125 -1.421875 13.0625 8.265625 
Q 6.59375 17.96875 6.59375 36.375 
Q 6.59375 54.828125 13.0625 64.515625 
Q 19.53125 74.21875 31.78125 74.21875 
z
" id="DejaVuSans-30"/>
       <path d="M 10.6875 12.40625 
L 21 12.40625 
L 21 0 
L 10.6875 0 
z
" id="DejaVuSans-2e"/>
      </defs>
      <g transform="translate(42.277344 322.182437)scale(0.1 -0.1)">
       <use xlink:href="#DejaVuSans-2212"/>
       <use x="83.789062" xlink:href="#DejaVuSans-31"/>
       <use x="147.412109" xlink:href="#DejaVuSans-30"/>
       <use x="211.035156" xlink:href="#DejaVuSans-2e"/>
       <use x="242.822266" xlink:href="#DejaVuSans-30"/>
      </g>
     </g>
    </g>
    <g id="xtick_2">
     <g id="line2d_2">
      <g>
       <use style="stroke:#000000;stroke-width:0.8;" x="102.24" xlink:href="#m55eb97c29c" y="307.584"/>
      </g>
     </g>
     <g id="text_2">
      <!-- −7.5 -->
      <defs>
       <path d="M 8.203125 72.90625 
L 55.078125 72.90625 
L 55.078125 68.703125 
L 28.609375 0 
L 18.3125 0 
L 43.21875 64.59375 
L 8.203125 64.59375 
z
" id="DejaVuSans-37"/>
       <path d="M 10.796875 72.90625 
L 49.515625 72.90625 
L 49.515625 64.59375 
L 19.828125 64.59375 
L 19.828125 46.734375 
Q 21.96875 47.46875 24.109375 47.828125 
Q 26.265625 48.1875 28.421875 48.1875 
Q 40.625 48.1875 47.75 41.5 
Q 54.890625 34.8125 54.890625 23.390625 
Q 54.890625 11.625 47.5625 5.09375 
Q 40.234375 -1.421875 26.90625 -1.421875 
Q 22.3125 -1.421875 17.546875 -0.640625 
Q 12.796875 0.140625 7.71875 1.703125 
L 7.71875 11.625 
Q 12.109375 9.234375 16.796875 8.0625 
Q 21.484375 6.890625 26.703125 6.890625 
Q 35.15625 6.890625 40.078125 11.328125 
Q 45.015625 15.765625 45.015625 23.390625 
Q 45.015625 31 40.078125 35.4375 
Q 35.15625 39.890625 26.703125 39.890625 
Q 22.75 39.890625 18.8125 39.015625 
Q 14.890625 38.140625 10.796875 36.28125 
z
" id="DejaVuSans-35"/>
      </defs>
      <g transform="translate(90.098594 322.182437)scale(0.1 -0.1)">
       <use xlink:href="#DejaVuSans-2212"/>
       <use x="83.789062" xlink:href="#DejaVuSans-37"/>
       <use x="147.412109" xlink:href="#DejaVuSans-2e"/>
       <use x="179.199219" xlink:href="#DejaVuSans-35"/>
      </g>
     </g>
    </g>
    <g id="xtick_3">
     <g id="line2d_3">
      <g>
       <use style="stroke:#000000;stroke-width:0.8;" x="146.88" xlink:href="#m55eb97c29c" y="307.584"/>
      </g>
     </g>
     <g id="text_3">
      <!-- −5.0 -->
      <g transform="translate(134.738594 322.182437)scale(0.1 -0.1)">
       <use xlink:href="#DejaVuSans-2212"/>
       <use x="83.789062" xlink:href="#DejaVuSans-35"/>
       <use x="147.412109" xlink:href="#DejaVuSans-2e"/>
       <use x="179.199219" xlink:href="#DejaVuSans-30"/>
      </g>
     </g>
    </g>
    <g id="xtick_4">
     <g id="line2d_4">
      <g>
       <use style="stroke:#000000;stroke-width:0.8;" x="191.52" xlink:href="#m55eb97c29c" y="307.584"/>
      </g>
     </g>
     <g id="text_4">
      <!-- −2.5 -->
      <defs>
       <path d="M 19.1875 8.296875 
L 53.609375 8.296875 
L 53.609375 0 
L 7.328125 0 
L 7.328125 8.296875 
Q 12.9375 14.109375 22.625 23.890625 
Q 32.328125 33.6875 34.8125 36.53125 
Q 39.546875 41.84375 41.421875 45.53125 
Q 43.3125 49.21875 43.3125 52.78125 
Q 43.3125 58.59375 39.234375 62.25 
Q 35.15625 65.921875 28.609375 65.921875 
Q 23.96875 65.921875 18.8125 64.3125 
Q 13.671875 62.703125 7.8125 59.421875 
L 7.8125 69.390625 
Q 13.765625 71.78125 18.9375 73 
Q 24.125 74.21875 28.421875 74.21875 
Q 39.75 74.21875 46.484375 68.546875 
Q 53.21875 62.890625 53.21875 53.421875 
Q 53.21875 48.921875 51.53125 44.890625 
Q 49.859375 40.875 45.40625 35.40625 
Q 44.1875 33.984375 37.640625 27.21875 
Q 31.109375 20.453125 19.1875 8.296875 
z
" id="DejaVuSans-32"/>
      </defs>
      <g transform="translate(179.378594 322.182437)scale(0.1 -0.1)">
       <use xlink:href="#DejaVuSans-2212"/>
       <use x="83.789062" xlink:href="#DejaVuSans-32"/>
       <use x="147.412109" xlink:href="#DejaVuSans-2e"/>
       <use x="179.199219" xlink:href="#DejaVuSans-35"/>
      </g>
     </g>
    </g>
    <g id="xtick_5">
     <g id="line2d_5">
      <g>
       <use style="stroke:#000000;stroke-width:0.8;" x="236.16" xlink:href="#m55eb97c29c" y="307.584"/>
      </g>
     </g>
     <g id="text_5">
      <!-- 0.0 -->
      <g transform="translate(228.208438 322.182437)scale(0.1 -0.1)">
       <use xlink:href="#DejaVuSans-30"/>
       <use x="63.623047" xlink:href="#DejaVuSans-2e"/>
       <use x="95.410156" xlink:href="#DejaVuSans-30"/>
      </g>
     </g>
    </g>
    <g id="xtick_6">
     <g id="line2d_6">
      <g>
       <use style="stroke:#000000;stroke-width:0.8;" x="280.8" xlink:href="#m55eb97c29c" y="307.584"/>
      </g>
     </g>
     <g id="text_6">
      <!-- 2.5 -->
      <g transform="translate(272.848437 322.182437)scale(0.1 -0.1)">
       <use xlink:href="#DejaVuSans-32"/>
       <use x="63.623047" xlink:href="#DejaVuSans-2e"/>
       <use x="95.410156" xlink:href="#DejaVuSans-35"/>
      </g>
     </g>
    </g>
    <g id="xtick_7">
     <g id="line2d_7">
      <g>
       <use style="stroke:#000000;stroke-width:0.8;" x="325.44" xlink:href="#m55eb97c29c" y="307.584"/>
      </g>
     </g>
     <g id="text_7">
      <!-- 5.0 -->
      <g transform="translate(317.488437 322.182437)scale(0.1 -0.1)">
       <use xlink:href="#DejaVuSans-35"/>
       <use x="63.623047" xlink:href="#DejaVuSans-2e"/>
       <use x="95.410156" xlink:href="#DejaVuSans-30"/>
      </g>
     </g>
    </g>
    <g id="xtick_8">
     <g id="line2d_8">
      <g>
       <use style="stroke:#000000;stroke-width:0.8;" x="370.08" xlink:href="#m55eb97c29c" y="307.584"/>
      </g>
     </g>
     <g id="text_8">
      <!-- 7.5 -->
      <g transform="translate(362.128438 322.182437)scale(0.1 -0.1)">
       <use xlink:href="#DejaVuSans-37"/>
       <use x="63.623047" xlink:href="#DejaVuSans-2e"/>
       <use x="95.410156" xlink:href="#DejaVuSans-35"/>
      </g>
     </g>
    </g>
    <g id="xtick_9">
     <g id="line2d_9">
      <g>
       <use style="stroke:#000000;stroke-width:0.8;" x="414.72" xlink:href="#m55eb97c29c" y="307.584"/>
      </g>
     </g>
     <g id="text_9">
      <!-- 10.0 -->
      <g transform="translate(403.587188 322.182437)scale(0.1 -0.1)">
       <use xlink:href="#DejaVuSans-31"/>
       <use x="63.623047" xlink:href="#DejaVuSans-30"/>
       <use x="127.246094" xlink:href="#DejaVuSans-2e"/>
       <use x="159.033203" xlink:href="#DejaVuSans-30"/>
      </g>
     </g>
    </g>
   </g>
   <g id="matplotlib.axis_2">
    <g id="ytick_1">
     <g id="line2d_10">
      <defs>
       <path d="M 0 0 
L -3.5 0 
" id="m86187355d1" style="stroke:#000000;stroke-width:0.8;"/>
      </defs>
      <g>
       <use style="stroke:#000000;stroke-width:0.8;" x="57.6" xlink:href="#m86187355d1" y="307.584"/>
      </g>
     </g>
     <g id="text_10">
      <!-- −10.0 -->
      <g transform="translate(19.954687 311.383219)scale(0.1 -0.1)">
       <use xlink:href="#DejaVuSans-2212"/>
       <use x="83.789062" xlink:href="#DejaVuSans-31"/>
       <use x="147.412109" xlink:href="#DejaVuSans-30"/>
       <use x="211.035156" xlink:href="#DejaVuSans-2e"/>
       <use x="242.822266" xlink:href="#DejaVuSans-30"/>
      </g>
     </g>
    </g>
    <g id="ytick_2">
     <g id="line2d_11">
      <g>
       <use style="stroke:#000000;stroke-width:0.8;" x="57.6" xlink:href="#m86187355d1" y="274.32"/>
      </g>
     </g>
     <g id="text_11">
      <!-- −7.5 -->
      <g transform="translate(26.317187 278.119219)scale(0.1 -0.1)">
       <use xlink:href="#DejaVuSans-2212"/>
       <use x="83.789062" xlink:href="#DejaVuSans-37"/>
       <use x="147.412109" xlink:href="#DejaVuSans-2e"/>
       <use x="179.199219" xlink:href="#DejaVuSans-35"/>
      </g>
     </g>
    </g>
    <g id="ytick_3">
     <g id="line2d_12">
      <g>
       <use style="stroke:#000000;stroke-width:0.8;" x="57.6" xlink:href="#m86187355d1" y="241.056"/>
      </g>
     </g>
     <g id="text_12">
      <!-- −5.0 -->
      <g transform="translate(26.317187 244.855219)scale(0.1 -0.1)">
       <use xlink:href="#DejaVuSans-2212"/>
       <use x="83.789062" xlink:href="#DejaVuSans-35"/>
       <use x="147.412109" xlink:href="#DejaVuSans-2e"/>
       <use x="179.199219" xlink:href="#DejaVuSans-30"/>
      </g>
     </g>
    </g>
    <g id="ytick_4">
     <g id="line2d_13">
      <g>
       <use style="stroke:#000000;stroke-width:0.8;" x="57.6" xlink:href="#m86187355d1" y="207.792"/>
      </g>
     </g>
     <g id="text_13">
      <!-- −2.5 -->
      <g transform="translate(26.317187 211.591219)scale(0.1 -0.1)">
       <use xlink:href="#DejaVuSans-2212"/>
       <use x="83.789062" xlink:href="#DejaVuSans-32"/>
       <use x="147.412109" xlink:href="#DejaVuSans-2e"/>
       <use x="179.199219" xlink:href="#DejaVuSans-35"/>
      </g>
     </g>
    </g>
    <g id="ytick_5">
     <g id="line2d_14">
      <g>
       <use style="stroke:#000000;stroke-width:0.8;" x="57.6" xlink:href="#m86187355d1" y="174.528"/>
      </g>
     </g>
     <g id="text_14">
      <!-- 0.0 -->
      <g transform="translate(34.696875 178.327219)scale(0.1 -0.1)">
       <use xlink:href="#DejaVuSans-30"/>
       <use x="63.623047" xlink:href="#DejaVuSans-2e"/>
       <use x="95.410156" xlink:href="#DejaVuSans-30"/>
      </g>
     </g>
    </g>
    <g id="ytick_6">
     <g id="line2d_15">
      <g>
       <use style="stroke:#000000;stroke-width:0.8;" x="57.6" xlink:href="#m86187355d1" y="141.264"/>
      </g>
     </g>
     <g id="text_15">
      <!-- 2.5 -->
      <g transform="translate(34.696875 145.063219)scale(0.1 -0.1)">
       <use xlink:href="#DejaVuSans-32"/>
       <use x="63.623047" xlink:href="#DejaVuSans-2e"/>
       <use x="95.410156" xlink:href="#DejaVuSans-35"/>
      </g>
     </g>
    </g>
    <g id="ytick_7">
     <g id="line2d_16">
      <g>
       <use style="stroke:#000000;stroke-width:0.8;" x="57.6" xlink:href="#m86187355d1" y="108"/>
      </g>
     </g>
     <g id="text_16">
      <!-- 5.0 -->
      <g transform="translate(34.696875 111.799219)scale(0.1 -0.1)">
       <use xlink:href="#DejaVuSans-35"/>
       <use x="63.623047" xlink:href="#DejaVuSans-2e"/>
       <use x="95.410156" xlink:href="#DejaVuSans-30"/>
      </g>
     </g>
    </g>
    <g id="ytick_8">
     <g id="line2d_17">
      <g>
       <use style="stroke:#000000;stroke-width:0.8;" x="57.6" xlink:href="#m86187355d1" y="74.736"/>
      </g>
     </g>
     <g id="text_17">
      <!-- 7.5 -->
      <g transform="translate(34.696875 78.535219)scale(0.1 -0.1)">
       <use xlink:href="#DejaVuSans-37"/>
       <use x="63.623047" xlink:href="#DejaVuSans-2e"/>
       <use x="95.410156" xlink:href="#DejaVuSans-35"/>
      </g>
     </g>
    </g>
    <g id="ytick_9">
     <g id="line2d_18">
      <g>
       <use style="stroke:#000000;stroke-width:0.8;" x="57.6" xlink:href="#m86187355d1" y="41.472"/>
      </g>
     </g>
     <g id="text_18">
      <!-- 10.0 -->
      <g transform="translate(28.334375 45.271219)scale(0.1 -0.1)">
       <use xlink:href="#DejaVuSans-31"/>
       <use x="63.623047" xlink:href="#DejaVuSans-30"/>
       <use x="127.246094" xlink:href="#DejaVuSans-2e"/>
       <use x="159.033203" xlink:href="#DejaVuSans-30"/>
      </g>
     </g>
    </g>
   </g>
   <g id="patch_3">
    <path d="M 57.6 307.584 
L 57.6 41.472 
" style="fill:none;stroke:#000000;stroke-linecap:square;stroke-linejoin:miter;stroke-width:0.8;"/>
   </g>
   <g id="patch_4">
    <path d="M 414.72 307.584 
L 414.72 41.472 
" style="fill:none;stroke:#000000;stroke-linecap:square;stroke-linejoin:miter;stroke-width:0.8;"/>
   </g>
   <g id="patch_5">
    <path d="M 57.6 307.584 
L 414.72 307.584 
" style="fill:none;stroke:#000000;stroke-linecap:square;stroke-linejoin:miter;stroke-width:0.8;"/>
   </g>
   <g id="patch_6">
    <path d="M 57.6 41.472 
L 414.72 41.472 
" style="fill:none;stroke:#000000;stroke-linecap:square;stroke-linejoin:miter;stroke-width:0.8;"/>
   </g>
  </g>
 </g>
 <defs>
  <clipPath id="p1e1c522838">
   <rect height="266.112" width="357.12" x="57.6" y="41.472"/>
  </clipPath>
 </defs>
</svg>
