<?xml version="1.0" encoding="utf-8" standalone="no"?>
<!DOCTYPE svg PUBLIC "-//W3C//DTD SVG 1.1//EN"
  "http://www.w3.org/Graphics/SVG/1.1/DTD/svg11.dtd">
<!-- Created with matplotlib (http://matplotlib.org/) -->
<svg height="345.6pt" version="1.1" viewBox="0 0 460.8 345.6" width="460.8pt" xmlns="http://www.w3.org/2000/svg" xmlns:xlink="http://www.w3.org/1999/xlink">
 <defs>
  <style type="text/css">
*{stroke-linecap:butt;stroke-linejoin:round;}
  </style>
 </defs>
 <g id="figure_1">
  <g id="patch_1">
   <path d="M 0 345.6 
L 460.8 345.6 
L 460.8 0 
L 0 0 
z
" style="fill:#ffffff;"/>
  </g>
  <g id="axes_1">
   <g id="patch_2">
    <path d="M 57.6 307.584 
L 414.72 307.584 
L 414.72 41.472 
L 57.6 41.472 
z
" style="fill:#ffffff;"/>
   </g>
   <g id="PathCollection_1">
    <defs>
     <path d="M 0 0.612372 
C 0.162403 0.612372 0.318176 0.547849 0.433013 0.433013 
C 0.547849 0.318176 0.612372 0.162403 0.612372 0 
C 0.612372 -0.162403 0.547849 -0.318176 0.433013 -0.433013 
C 0.318176 -0.547849 0.162403 -0.612372 0 -0.612372 
C -0.162403 -0.612372 -0.318176 -0.547849 -0.433013 -0.433013 
C -0.547849 -0.318176 -0.612372 -0.162403 -0.612372 0 
C -0.612372 0.162403 -0.547849 0.318176 -0.433013 0.433013 
C -0.318176 0.547849 -0.162403 0.612372 0 0.612372 
z
" id="m8bc42aecd0" style="stroke:#000000;"/>
    </defs>
    <g clip-path="url(#p7761565163)">
     <use style="stroke:#000000;" x="239.792765" xlink:href="#m8bc42aecd0" y="171.883821"/>
     <use style="stroke:#000000;" x="244.309493" xlink:href="#m8bc42aecd0" y="170.841242"/>
     <use style="stroke:#000000;" x="240.1483" xlink:href="#m8bc42aecd0" y="169.342907"/>
     <use style="stroke:#000000;" x="244.279387" xlink:href="#m8bc42aecd0" y="171.051138"/>
     <use style="stroke:#000000;" x="236.744164" xlink:href="#m8bc42aecd0" y="173.029943"/>
     <use style="stroke:#000000;" x="237.033391" xlink:href="#m8bc42aecd0" y="173.56916"/>
     <use style="stroke:#000000;" x="243.99711" xlink:href="#m8bc42aecd0" y="171.719437"/>
     <use style="stroke:#000000;" x="243.824543" xlink:href="#m8bc42aecd0" y="171.304442"/>
     <use style="stroke:#000000;" x="237.511996" xlink:href="#m8bc42aecd0" y="174.528"/>
     <use style="stroke:#000000;" x="244.296995" xlink:href="#m8bc42aecd0" y="170.493002"/>
     <use style="stroke:#000000;" x="240.887797" xlink:href="#m8bc42aecd0" y="174.528"/>
     <use style="stroke:#000000;" x="240.638683" xlink:href="#m8bc42aecd0" y="174.264059"/>
     <use style="stroke:#000000;" x="240.865334" xlink:href="#m8bc42aecd0" y="173.895701"/>
     <use style="stroke:#000000;" x="247.657095" xlink:href="#m8bc42aecd0" y="166.368295"/>
     <use style="stroke:#000000;" x="240.862896" xlink:href="#m8bc42aecd0" y="173.810715"/>
     <use style="stroke:#000000;" x="236.362051" xlink:href="#m8bc42aecd0" y="173.451872"/>
     <use style="stroke:#000000;" x="236.548681" xlink:href="#m8bc42aecd0" y="172.7995"/>
     <use style="stroke:#000000;" x="247.482411" xlink:href="#m8bc42aecd0" y="166.966036"/>
     <use style="stroke:#000000;" x="236.16" xlink:href="#m8bc42aecd0" y="174.528"/>
     <use style="stroke:#000000;" x="240.047003" xlink:href="#m8bc42aecd0" y="174.134813"/>
     <use style="stroke:#000000;" x="247.3838" xlink:href="#m8bc42aecd0" y="166.823475"/>
     <use style="stroke:#000000;" x="240.021422" xlink:href="#m8bc42aecd0" y="173.570554"/>
     <use style="stroke:#000000;" x="240.445437" xlink:href="#m8bc42aecd0" y="172.983027"/>
     <use style="stroke:#000000;" x="240.369763" xlink:href="#m8bc42aecd0" y="173.558237"/>
     <use style="stroke:#000000;" x="239.888193" xlink:href="#m8bc42aecd0" y="173.181142"/>
     <use style="stroke:#000000;" x="239.877495" xlink:href="#m8bc42aecd0" y="174.528"/>
     <use style="stroke:#000000;" x="244.30283" xlink:href="#m8bc42aecd0" y="169.598793"/>
     <use style="stroke:#000000;" x="240.044662" xlink:href="#m8bc42aecd0" y="173.64643"/>
     <use style="stroke:#000000;" x="240.85066" xlink:href="#m8bc42aecd0" y="173.09933"/>
     <use style="stroke:#000000;" x="240.291528" xlink:href="#m8bc42aecd0" y="172.891382"/>
     <use style="stroke:#000000;" x="240.495717" xlink:href="#m8bc42aecd0" y="173.706591"/>
     <use style="stroke:#000000;" x="236.818292" xlink:href="#m8bc42aecd0" y="174.528"/>
     <use style="stroke:#000000;" x="244.119578" xlink:href="#m8bc42aecd0" y="168.636072"/>
     <use style="stroke:#000000;" x="244.213249" xlink:href="#m8bc42aecd0" y="169.777436"/>
     <use style="stroke:#000000;" x="244.100928" xlink:href="#m8bc42aecd0" y="168.981575"/>
     <use style="stroke:#000000;" x="244.022395" xlink:href="#m8bc42aecd0" y="170.187275"/>
     <use style="stroke:#000000;" x="243.847377" xlink:href="#m8bc42aecd0" y="170.155115"/>
     <use style="stroke:#000000;" x="237.369275" xlink:href="#m8bc42aecd0" y="169.879356"/>
     <use style="stroke:#000000;" x="243.640614" xlink:href="#m8bc42aecd0" y="169.898437"/>
     <use style="stroke:#000000;" x="240.972093" xlink:href="#m8bc42aecd0" y="174.528"/>
     <use style="stroke:#000000;" x="241.220993" xlink:href="#m8bc42aecd0" y="173.082786"/>
     <use style="stroke:#000000;" x="243.793084" xlink:href="#m8bc42aecd0" y="169.472584"/>
     <use style="stroke:#000000;" x="241.217088" xlink:href="#m8bc42aecd0" y="174.528"/>
     <use style="stroke:#000000;" x="243.70727" xlink:href="#m8bc42aecd0" y="169.83554"/>
     <use style="stroke:#000000;" x="247.363601" xlink:href="#m8bc42aecd0" y="166.020268"/>
     <use style="stroke:#000000;" x="240.878772" xlink:href="#m8bc42aecd0" y="174.239766"/>
     <use style="stroke:#000000;" x="237.819246" xlink:href="#m8bc42aecd0" y="173.11667"/>
     <use style="stroke:#000000;" x="251.353962" xlink:href="#m8bc42aecd0" y="173.341596"/>
     <use style="stroke:#000000;" x="247.57512" xlink:href="#m8bc42aecd0" y="173.491494"/>
     <use style="stroke:#000000;" x="236.16" xlink:href="#m8bc42aecd0" y="174.528"/>
     <use style="stroke:#000000;" x="236.581601" xlink:href="#m8bc42aecd0" y="174.528"/>
     <use style="stroke:#000000;" x="247.614506" xlink:href="#m8bc42aecd0" y="168.196465"/>
     <use style="stroke:#000000;" x="240.326614" xlink:href="#m8bc42aecd0" y="174.26517"/>
     <use style="stroke:#000000;" x="247.514801" xlink:href="#m8bc42aecd0" y="169.236774"/>
     <use style="stroke:#000000;" x="240.444621" xlink:href="#m8bc42aecd0" y="172.525615"/>
     <use style="stroke:#000000;" x="239.906094" xlink:href="#m8bc42aecd0" y="173.79798"/>
     <use style="stroke:#000000;" x="240.184816" xlink:href="#m8bc42aecd0" y="174.528"/>
     <use style="stroke:#000000;" x="241.043216" xlink:href="#m8bc42aecd0" y="173.853881"/>
     <use style="stroke:#000000;" x="240.473223" xlink:href="#m8bc42aecd0" y="174.301482"/>
     <use style="stroke:#000000;" x="240.637862" xlink:href="#m8bc42aecd0" y="174.434146"/>
     <use style="stroke:#000000;" x="240.61908" xlink:href="#m8bc42aecd0" y="174.288608"/>
     <use style="stroke:#000000;" x="240.581426" xlink:href="#m8bc42aecd0" y="174.528"/>
     <use style="stroke:#000000;" x="244.3335" xlink:href="#m8bc42aecd0" y="170.500223"/>
     <use style="stroke:#000000;" x="236.959888" xlink:href="#m8bc42aecd0" y="173.675265"/>
     <use style="stroke:#000000;" x="237.42025" xlink:href="#m8bc42aecd0" y="173.354366"/>
     <use style="stroke:#000000;" x="237.570691" xlink:href="#m8bc42aecd0" y="173.361966"/>
     <use style="stroke:#000000;" x="239.007056" xlink:href="#m8bc42aecd0" y="173.337835"/>
     <use style="stroke:#000000;" x="236.831237" xlink:href="#m8bc42aecd0" y="173.891678"/>
     <use style="stroke:#000000;" x="238.347931" xlink:href="#m8bc42aecd0" y="170.199751"/>
     <use style="stroke:#000000;" x="244.124776" xlink:href="#m8bc42aecd0" y="169.258259"/>
     <use style="stroke:#000000;" x="237.701649" xlink:href="#m8bc42aecd0" y="174.528"/>
     <use style="stroke:#000000;" x="244.058506" xlink:href="#m8bc42aecd0" y="172.86638"/>
     <use style="stroke:#000000;" x="244.243318" xlink:href="#m8bc42aecd0" y="169.352469"/>
     <use style="stroke:#000000;" x="243.899144" xlink:href="#m8bc42aecd0" y="169.28692"/>
     <use style="stroke:#000000;" x="243.882653" xlink:href="#m8bc42aecd0" y="167.960293"/>
     <use style="stroke:#000000;" x="241.303972" xlink:href="#m8bc42aecd0" y="174.521369"/>
     <use style="stroke:#000000;" x="241.06598" xlink:href="#m8bc42aecd0" y="174.161811"/>
     <use style="stroke:#000000;" x="247.452614" xlink:href="#m8bc42aecd0" y="168.587889"/>
     <use style="stroke:#000000;" x="236.699051" xlink:href="#m8bc42aecd0" y="173.161024"/>
     <use style="stroke:#000000;" x="243.879192" xlink:href="#m8bc42aecd0" y="168.401643"/>
     <use style="stroke:#000000;" x="238.607854" xlink:href="#m8bc42aecd0" y="172.461966"/>
     <use style="stroke:#000000;" x="239.044885" xlink:href="#m8bc42aecd0" y="171.345363"/>
     <use style="stroke:#000000;" x="241.032438" xlink:href="#m8bc42aecd0" y="172.809289"/>
     <use style="stroke:#000000;" x="244.574125" xlink:href="#m8bc42aecd0" y="170.746819"/>
     <use style="stroke:#000000;" x="245.4042" xlink:href="#m8bc42aecd0" y="172.570845"/>
     <use style="stroke:#000000;" x="243.374416" xlink:href="#m8bc42aecd0" y="170.298773"/>
     <use style="stroke:#000000;" x="245.765046" xlink:href="#m8bc42aecd0" y="170.887225"/>
     <use style="stroke:#000000;" x="240.669734" xlink:href="#m8bc42aecd0" y="169.024131"/>
     <use style="stroke:#000000;" x="241.154245" xlink:href="#m8bc42aecd0" y="168.990128"/>
     <use style="stroke:#000000;" x="240.311646" xlink:href="#m8bc42aecd0" y="168.891038"/>
     <use style="stroke:#000000;" x="244.153709" xlink:href="#m8bc42aecd0" y="170.473025"/>
     <use style="stroke:#000000;" x="244.158752" xlink:href="#m8bc42aecd0" y="169.984482"/>
     <use style="stroke:#000000;" x="243.947823" xlink:href="#m8bc42aecd0" y="170.586323"/>
     <use style="stroke:#000000;" x="236.640771" xlink:href="#m8bc42aecd0" y="174.038269"/>
     <use style="stroke:#000000;" x="239.131453" xlink:href="#m8bc42aecd0" y="173.085527"/>
     <use style="stroke:#000000;" x="236.656288" xlink:href="#m8bc42aecd0" y="173.427841"/>
     <use style="stroke:#000000;" x="237.435066" xlink:href="#m8bc42aecd0" y="174.181263"/>
     <use style="stroke:#000000;" x="236.16" xlink:href="#m8bc42aecd0" y="173.33553"/>
     <use style="stroke:#000000;" x="236.424479" xlink:href="#m8bc42aecd0" y="174.528"/>
     <use style="stroke:#000000;" x="244.341969" xlink:href="#m8bc42aecd0" y="170.257612"/>
     <use style="stroke:#000000;" x="243.893697" xlink:href="#m8bc42aecd0" y="171.335819"/>
     <use style="stroke:#000000;" x="245.640047" xlink:href="#m8bc42aecd0" y="170.549608"/>
     <use style="stroke:#000000;" x="242.844986" xlink:href="#m8bc42aecd0" y="170.882787"/>
     <use style="stroke:#000000;" x="243.793952" xlink:href="#m8bc42aecd0" y="171.319913"/>
     <use style="stroke:#000000;" x="242.636121" xlink:href="#m8bc42aecd0" y="171.430525"/>
     <use style="stroke:#000000;" x="237.191091" xlink:href="#m8bc42aecd0" y="174.528"/>
     <use style="stroke:#000000;" x="236.857626" xlink:href="#m8bc42aecd0" y="174.528"/>
     <use style="stroke:#000000;" x="237.003602" xlink:href="#m8bc42aecd0" y="174.276408"/>
     <use style="stroke:#000000;" x="244.312925" xlink:href="#m8bc42aecd0" y="171.276256"/>
     <use style="stroke:#000000;" x="244.490678" xlink:href="#m8bc42aecd0" y="169.832679"/>
     <use style="stroke:#000000;" x="244.859962" xlink:href="#m8bc42aecd0" y="170.985229"/>
     <use style="stroke:#000000;" x="241.455359" xlink:href="#m8bc42aecd0" y="174.528"/>
     <use style="stroke:#000000;" x="239.328231" xlink:href="#m8bc42aecd0" y="173.928705"/>
     <use style="stroke:#000000;" x="240.559753" xlink:href="#m8bc42aecd0" y="174.528"/>
     <use style="stroke:#000000;" x="240.926999" xlink:href="#m8bc42aecd0" y="173.294366"/>
     <use style="stroke:#000000;" x="241.005234" xlink:href="#m8bc42aecd0" y="172.886941"/>
     <use style="stroke:#000000;" x="238.659165" xlink:href="#m8bc42aecd0" y="173.657694"/>
     <use style="stroke:#000000;" x="239.091984" xlink:href="#m8bc42aecd0" y="174.528"/>
     <use style="stroke:#000000;" x="243.27743" xlink:href="#m8bc42aecd0" y="172.104304"/>
     <use style="stroke:#000000;" x="240.269314" xlink:href="#m8bc42aecd0" y="172.510561"/>
     <use style="stroke:#000000;" x="247.789073" xlink:href="#m8bc42aecd0" y="167.059614"/>
     <use style="stroke:#000000;" x="247.499818" xlink:href="#m8bc42aecd0" y="166.989425"/>
     <use style="stroke:#000000;" x="246.81966" xlink:href="#m8bc42aecd0" y="166.278054"/>
     <use style="stroke:#000000;" x="242.059862" xlink:href="#m8bc42aecd0" y="174.528"/>
     <use style="stroke:#000000;" x="241.225987" xlink:href="#m8bc42aecd0" y="172.395044"/>
     <use style="stroke:#000000;" x="240.506798" xlink:href="#m8bc42aecd0" y="173.746589"/>
     <use style="stroke:#000000;" x="236.16" xlink:href="#m8bc42aecd0" y="172.965165"/>
     <use style="stroke:#000000;" x="236.16" xlink:href="#m8bc42aecd0" y="171.374727"/>
     <use style="stroke:#000000;" x="237.406608" xlink:href="#m8bc42aecd0" y="172.996352"/>
     <use style="stroke:#000000;" x="236.16" xlink:href="#m8bc42aecd0" y="172.310894"/>
     <use style="stroke:#000000;" x="236.16" xlink:href="#m8bc42aecd0" y="173.513234"/>
     <use style="stroke:#000000;" x="237.414749" xlink:href="#m8bc42aecd0" y="172.981509"/>
     <use style="stroke:#000000;" x="248.399374" xlink:href="#m8bc42aecd0" y="167.815811"/>
     <use style="stroke:#000000;" x="246.656945" xlink:href="#m8bc42aecd0" y="165.685072"/>
     <use style="stroke:#000000;" x="247.050394" xlink:href="#m8bc42aecd0" y="168.160635"/>
     <use style="stroke:#000000;" x="236.465571" xlink:href="#m8bc42aecd0" y="172.99053"/>
     <use style="stroke:#000000;" x="236.16" xlink:href="#m8bc42aecd0" y="174.528"/>
     <use style="stroke:#000000;" x="236.16" xlink:href="#m8bc42aecd0" y="174.528"/>
     <use style="stroke:#000000;" x="241.308192" xlink:href="#m8bc42aecd0" y="173.818301"/>
     <use style="stroke:#000000;" x="239.381322" xlink:href="#m8bc42aecd0" y="173.576329"/>
     <use style="stroke:#000000;" x="246.788064" xlink:href="#m8bc42aecd0" y="168.11565"/>
     <use style="stroke:#000000;" x="246.810648" xlink:href="#m8bc42aecd0" y="168.388536"/>
     <use style="stroke:#000000;" x="248.223693" xlink:href="#m8bc42aecd0" y="165.358015"/>
     <use style="stroke:#000000;" x="240.428542" xlink:href="#m8bc42aecd0" y="174.528"/>
     <use style="stroke:#000000;" x="240.22867" xlink:href="#m8bc42aecd0" y="174.528"/>
     <use style="stroke:#000000;" x="241.006859" xlink:href="#m8bc42aecd0" y="174.528"/>
     <use style="stroke:#000000;" x="241.917716" xlink:href="#m8bc42aecd0" y="173.082123"/>
     <use style="stroke:#000000;" x="241.61799" xlink:href="#m8bc42aecd0" y="174.528"/>
     <use style="stroke:#000000;" x="240.099082" xlink:href="#m8bc42aecd0" y="172.678381"/>
     <use style="stroke:#000000;" x="237.487822" xlink:href="#m8bc42aecd0" y="174.117949"/>
     <use style="stroke:#000000;" x="239.056633" xlink:href="#m8bc42aecd0" y="171.933858"/>
     <use style="stroke:#000000;" x="240.831061" xlink:href="#m8bc42aecd0" y="174.528"/>
     <use style="stroke:#000000;" x="240.341151" xlink:href="#m8bc42aecd0" y="174.38316"/>
     <use style="stroke:#000000;" x="242.92518" xlink:href="#m8bc42aecd0" y="169.495587"/>
     <use style="stroke:#000000;" x="242.95423" xlink:href="#m8bc42aecd0" y="170.09632"/>
     <use style="stroke:#000000;" x="239.937219" xlink:href="#m8bc42aecd0" y="173.717708"/>
     <use style="stroke:#000000;" x="238.571972" xlink:href="#m8bc42aecd0" y="173.580991"/>
     <use style="stroke:#000000;" x="243.23047" xlink:href="#m8bc42aecd0" y="174.528"/>
     <use style="stroke:#000000;" x="241.100939" xlink:href="#m8bc42aecd0" y="173.199484"/>
     <use style="stroke:#000000;" x="240.831517" xlink:href="#m8bc42aecd0" y="172.285476"/>
     <use style="stroke:#000000;" x="241.246773" xlink:href="#m8bc42aecd0" y="173.131442"/>
     <use style="stroke:#000000;" x="239.470376" xlink:href="#m8bc42aecd0" y="173.687244"/>
     <use style="stroke:#000000;" x="242.884539" xlink:href="#m8bc42aecd0" y="173.011716"/>
     <use style="stroke:#000000;" x="236.16" xlink:href="#m8bc42aecd0" y="174.528"/>
     <use style="stroke:#000000;" x="237.22284" xlink:href="#m8bc42aecd0" y="174.528"/>
     <use style="stroke:#000000;" x="244.889785" xlink:href="#m8bc42aecd0" y="170.694274"/>
     <use style="stroke:#000000;" x="245.023586" xlink:href="#m8bc42aecd0" y="169.036386"/>
     <use style="stroke:#000000;" x="245.418374" xlink:href="#m8bc42aecd0" y="167.486241"/>
     <use style="stroke:#000000;" x="243.405773" xlink:href="#m8bc42aecd0" y="169.0196"/>
     <use style="stroke:#000000;" x="243.849101" xlink:href="#m8bc42aecd0" y="169.765607"/>
     <use style="stroke:#000000;" x="243.624365" xlink:href="#m8bc42aecd0" y="169.108398"/>
     <use style="stroke:#000000;" x="244.320099" xlink:href="#m8bc42aecd0" y="170.222978"/>
     <use style="stroke:#000000;" x="242.149044" xlink:href="#m8bc42aecd0" y="170.704094"/>
     <use style="stroke:#000000;" x="243.982782" xlink:href="#m8bc42aecd0" y="170.80198"/>
     <use style="stroke:#000000;" x="242.459186" xlink:href="#m8bc42aecd0" y="170.32948"/>
     <use style="stroke:#000000;" x="241.728983" xlink:href="#m8bc42aecd0" y="170.820191"/>
     <use style="stroke:#000000;" x="236.16" xlink:href="#m8bc42aecd0" y="170.108302"/>
     <use style="stroke:#000000;" x="238.049921" xlink:href="#m8bc42aecd0" y="170.951697"/>
     <use style="stroke:#000000;" x="237.525932" xlink:href="#m8bc42aecd0" y="169.964005"/>
     <use style="stroke:#000000;" x="244.28551" xlink:href="#m8bc42aecd0" y="169.110915"/>
     <use style="stroke:#000000;" x="242.0176" xlink:href="#m8bc42aecd0" y="169.515571"/>
     <use style="stroke:#000000;" x="241.58708" xlink:href="#m8bc42aecd0" y="173.201782"/>
     <use style="stroke:#000000;" x="240.859864" xlink:href="#m8bc42aecd0" y="174.528"/>
     <use style="stroke:#000000;" x="241.796054" xlink:href="#m8bc42aecd0" y="174.528"/>
     <use style="stroke:#000000;" x="240.792952" xlink:href="#m8bc42aecd0" y="173.318933"/>
     <use style="stroke:#000000;" x="243.858031" xlink:href="#m8bc42aecd0" y="169.62325"/>
     <use style="stroke:#000000;" x="243.642577" xlink:href="#m8bc42aecd0" y="168.868111"/>
     <use style="stroke:#000000;" x="240.269715" xlink:href="#m8bc42aecd0" y="173.615368"/>
     <use style="stroke:#000000;" x="242.723271" xlink:href="#m8bc42aecd0" y="174.528"/>
     <use style="stroke:#000000;" x="245.05328" xlink:href="#m8bc42aecd0" y="170.203504"/>
     <use style="stroke:#000000;" x="242.65748" xlink:href="#m8bc42aecd0" y="169.274308"/>
     <use style="stroke:#000000;" x="246.813073" xlink:href="#m8bc42aecd0" y="165.196447"/>
     <use style="stroke:#000000;" x="247.084192" xlink:href="#m8bc42aecd0" y="164.40969"/>
     <use style="stroke:#000000;" x="241.577336" xlink:href="#m8bc42aecd0" y="173.445639"/>
     <use style="stroke:#000000;" x="241.806898" xlink:href="#m8bc42aecd0" y="174.052547"/>
     <use style="stroke:#000000;" x="240.891098" xlink:href="#m8bc42aecd0" y="173.297995"/>
     <use style="stroke:#000000;" x="237.598522" xlink:href="#m8bc42aecd0" y="173.661373"/>
     <use style="stroke:#000000;" x="236.637196" xlink:href="#m8bc42aecd0" y="173.002799"/>
     <use style="stroke:#000000;" x="252.77367" xlink:href="#m8bc42aecd0" y="172.510235"/>
     <use style="stroke:#000000;" x="251.413934" xlink:href="#m8bc42aecd0" y="174.214015"/>
     <use style="stroke:#000000;" x="251.897823" xlink:href="#m8bc42aecd0" y="174.528"/>
     <use style="stroke:#000000;" x="245.750242" xlink:href="#m8bc42aecd0" y="174.528"/>
     <use style="stroke:#000000;" x="248.362501" xlink:href="#m8bc42aecd0" y="171.961373"/>
     <use style="stroke:#000000;" x="247.532089" xlink:href="#m8bc42aecd0" y="173.497695"/>
     <use style="stroke:#000000;" x="236.273422" xlink:href="#m8bc42aecd0" y="174.528"/>
     <use style="stroke:#000000;" x="237.409608" xlink:href="#m8bc42aecd0" y="174.528"/>
     <use style="stroke:#000000;" x="236.557144" xlink:href="#m8bc42aecd0" y="174.504991"/>
     <use style="stroke:#000000;" x="236.16" xlink:href="#m8bc42aecd0" y="174.513651"/>
     <use style="stroke:#000000;" x="238.705088" xlink:href="#m8bc42aecd0" y="174.528"/>
     <use style="stroke:#000000;" x="236.16" xlink:href="#m8bc42aecd0" y="173.146803"/>
     <use style="stroke:#000000;" x="248.64734" xlink:href="#m8bc42aecd0" y="167.989422"/>
     <use style="stroke:#000000;" x="247.508718" xlink:href="#m8bc42aecd0" y="167.380951"/>
     <use style="stroke:#000000;" x="238.185868" xlink:href="#m8bc42aecd0" y="174.101983"/>
     <use style="stroke:#000000;" x="246.865841" xlink:href="#m8bc42aecd0" y="169.2323"/>
     <use style="stroke:#000000;" x="241.899447" xlink:href="#m8bc42aecd0" y="173.911886"/>
     <use style="stroke:#000000;" x="241.673641" xlink:href="#m8bc42aecd0" y="174.395846"/>
     <use style="stroke:#000000;" x="239.448967" xlink:href="#m8bc42aecd0" y="172.679402"/>
     <use style="stroke:#000000;" x="239.985071" xlink:href="#m8bc42aecd0" y="174.528"/>
     <use style="stroke:#000000;" x="242.054329" xlink:href="#m8bc42aecd0" y="174.206315"/>
     <use style="stroke:#000000;" x="239.303517" xlink:href="#m8bc42aecd0" y="174.528"/>
     <use style="stroke:#000000;" x="237.92122" xlink:href="#m8bc42aecd0" y="174.320346"/>
     <use style="stroke:#000000;" x="241.324661" xlink:href="#m8bc42aecd0" y="173.724329"/>
     <use style="stroke:#000000;" x="244.397205" xlink:href="#m8bc42aecd0" y="170.675597"/>
     <use style="stroke:#000000;" x="237.053347" xlink:href="#m8bc42aecd0" y="174.528"/>
     <use style="stroke:#000000;" x="238.760549" xlink:href="#m8bc42aecd0" y="174.489223"/>
     <use style="stroke:#000000;" x="236.604051" xlink:href="#m8bc42aecd0" y="173.087093"/>
     <use style="stroke:#000000;" x="239.809767" xlink:href="#m8bc42aecd0" y="172.823935"/>
     <use style="stroke:#000000;" x="236.665632" xlink:href="#m8bc42aecd0" y="174.454245"/>
     <use style="stroke:#000000;" x="239.75202" xlink:href="#m8bc42aecd0" y="169.187153"/>
     <use style="stroke:#000000;" x="243.718948" xlink:href="#m8bc42aecd0" y="168.752801"/>
     <use style="stroke:#000000;" x="238.266053" xlink:href="#m8bc42aecd0" y="174.163502"/>
     <use style="stroke:#000000;" x="246.251705" xlink:href="#m8bc42aecd0" y="174.528"/>
     <use style="stroke:#000000;" x="242.887999" xlink:href="#m8bc42aecd0" y="170.804007"/>
     <use style="stroke:#000000;" x="244.635645" xlink:href="#m8bc42aecd0" y="167.992299"/>
     <use style="stroke:#000000;" x="244.335624" xlink:href="#m8bc42aecd0" y="167.687413"/>
     <use style="stroke:#000000;" x="244.233276" xlink:href="#m8bc42aecd0" y="174.528"/>
     <use style="stroke:#000000;" x="242.930315" xlink:href="#m8bc42aecd0" y="173.739823"/>
     <use style="stroke:#000000;" x="240.735019" xlink:href="#m8bc42aecd0" y="174.528"/>
     <use style="stroke:#000000;" x="246.788097" xlink:href="#m8bc42aecd0" y="168.474194"/>
     <use style="stroke:#000000;" x="238.597643" xlink:href="#m8bc42aecd0" y="174.213453"/>
     <use style="stroke:#000000;" x="244.252775" xlink:href="#m8bc42aecd0" y="168.283103"/>
    </g>
   </g>
   <g id="PathCollection_2">
    <defs>
     <path d="M 0 0.935414 
C 0.248075 0.935414 0.486022 0.836853 0.661438 0.661438 
C 0.836853 0.486022 0.935414 0.248075 0.935414 0 
C 0.935414 -0.248075 0.836853 -0.486022 0.661438 -0.661438 
C 0.486022 -0.836853 0.248075 -0.935414 0 -0.935414 
C -0.248075 -0.935414 -0.486022 -0.836853 -0.661438 -0.661438 
C -0.836853 -0.486022 -0.935414 -0.248075 -0.935414 0 
C -0.935414 0.248075 -0.836853 0.486022 -0.661438 0.661438 
C -0.486022 0.836853 -0.248075 0.935414 0 0.935414 
z
" id="m08c41fd657" style="stroke:#0000ff;"/>
    </defs>
    <g clip-path="url(#p7761565163)">
     <use style="fill:#0000ff;stroke:#0000ff;" x="239.792765" xlink:href="#m08c41fd657" y="171.883821"/>
     <use style="fill:#0000ff;stroke:#0000ff;" x="244.309493" xlink:href="#m08c41fd657" y="170.841242"/>
     <use style="fill:#0000ff;stroke:#0000ff;" x="240.1483" xlink:href="#m08c41fd657" y="169.342907"/>
     <use style="fill:#0000ff;stroke:#0000ff;" x="244.279387" xlink:href="#m08c41fd657" y="171.051138"/>
     <use style="fill:#0000ff;stroke:#0000ff;" x="236.744164" xlink:href="#m08c41fd657" y="173.029943"/>
     <use style="fill:#0000ff;stroke:#0000ff;" x="237.033391" xlink:href="#m08c41fd657" y="173.56916"/>
     <use style="fill:#0000ff;stroke:#0000ff;" x="243.99711" xlink:href="#m08c41fd657" y="171.719437"/>
     <use style="fill:#0000ff;stroke:#0000ff;" x="243.824543" xlink:href="#m08c41fd657" y="171.304442"/>
     <use style="fill:#0000ff;stroke:#0000ff;" x="237.511996" xlink:href="#m08c41fd657" y="174.528"/>
     <use style="fill:#0000ff;stroke:#0000ff;" x="244.296995" xlink:href="#m08c41fd657" y="170.493002"/>
     <use style="fill:#0000ff;stroke:#0000ff;" x="240.887797" xlink:href="#m08c41fd657" y="174.528"/>
     <use style="fill:#0000ff;stroke:#0000ff;" x="240.638683" xlink:href="#m08c41fd657" y="174.264059"/>
     <use style="fill:#0000ff;stroke:#0000ff;" x="240.865334" xlink:href="#m08c41fd657" y="173.895701"/>
     <use style="fill:#0000ff;stroke:#0000ff;" x="247.657095" xlink:href="#m08c41fd657" y="166.368295"/>
     <use style="fill:#0000ff;stroke:#0000ff;" x="240.862896" xlink:href="#m08c41fd657" y="173.810715"/>
     <use style="fill:#0000ff;stroke:#0000ff;" x="236.362051" xlink:href="#m08c41fd657" y="173.451872"/>
     <use style="fill:#0000ff;stroke:#0000ff;" x="236.548681" xlink:href="#m08c41fd657" y="172.7995"/>
     <use style="fill:#0000ff;stroke:#0000ff;" x="247.482411" xlink:href="#m08c41fd657" y="166.966036"/>
     <use style="fill:#0000ff;stroke:#0000ff;" x="236.16" xlink:href="#m08c41fd657" y="174.528"/>
     <use style="fill:#0000ff;stroke:#0000ff;" x="240.047003" xlink:href="#m08c41fd657" y="174.134813"/>
     <use style="fill:#0000ff;stroke:#0000ff;" x="247.3838" xlink:href="#m08c41fd657" y="166.823475"/>
     <use style="fill:#0000ff;stroke:#0000ff;" x="240.021422" xlink:href="#m08c41fd657" y="173.570554"/>
     <use style="fill:#0000ff;stroke:#0000ff;" x="240.445437" xlink:href="#m08c41fd657" y="172.983027"/>
     <use style="fill:#0000ff;stroke:#0000ff;" x="240.369763" xlink:href="#m08c41fd657" y="173.558237"/>
     <use style="fill:#0000ff;stroke:#0000ff;" x="239.888193" xlink:href="#m08c41fd657" y="173.181142"/>
     <use style="fill:#0000ff;stroke:#0000ff;" x="239.877495" xlink:href="#m08c41fd657" y="174.528"/>
     <use style="fill:#0000ff;stroke:#0000ff;" x="244.30283" xlink:href="#m08c41fd657" y="169.598793"/>
     <use style="fill:#0000ff;stroke:#0000ff;" x="240.044662" xlink:href="#m08c41fd657" y="173.64643"/>
     <use style="fill:#0000ff;stroke:#0000ff;" x="240.85066" xlink:href="#m08c41fd657" y="173.09933"/>
     <use style="fill:#0000ff;stroke:#0000ff;" x="240.291528" xlink:href="#m08c41fd657" y="172.891382"/>
     <use style="fill:#0000ff;stroke:#0000ff;" x="240.495717" xlink:href="#m08c41fd657" y="173.706591"/>
     <use style="fill:#0000ff;stroke:#0000ff;" x="236.818292" xlink:href="#m08c41fd657" y="174.528"/>
     <use style="fill:#0000ff;stroke:#0000ff;" x="244.119578" xlink:href="#m08c41fd657" y="168.636072"/>
     <use style="fill:#0000ff;stroke:#0000ff;" x="244.213249" xlink:href="#m08c41fd657" y="169.777436"/>
     <use style="fill:#0000ff;stroke:#0000ff;" x="244.100928" xlink:href="#m08c41fd657" y="168.981575"/>
     <use style="fill:#0000ff;stroke:#0000ff;" x="244.022395" xlink:href="#m08c41fd657" y="170.187275"/>
     <use style="fill:#0000ff;stroke:#0000ff;" x="243.847377" xlink:href="#m08c41fd657" y="170.155115"/>
     <use style="fill:#0000ff;stroke:#0000ff;" x="237.369275" xlink:href="#m08c41fd657" y="169.879356"/>
     <use style="fill:#0000ff;stroke:#0000ff;" x="243.640614" xlink:href="#m08c41fd657" y="169.898437"/>
     <use style="fill:#0000ff;stroke:#0000ff;" x="240.972093" xlink:href="#m08c41fd657" y="174.528"/>
     <use style="fill:#0000ff;stroke:#0000ff;" x="241.220993" xlink:href="#m08c41fd657" y="173.082786"/>
     <use style="fill:#0000ff;stroke:#0000ff;" x="243.793084" xlink:href="#m08c41fd657" y="169.472584"/>
     <use style="fill:#0000ff;stroke:#0000ff;" x="241.217088" xlink:href="#m08c41fd657" y="174.528"/>
     <use style="fill:#0000ff;stroke:#0000ff;" x="243.70727" xlink:href="#m08c41fd657" y="169.83554"/>
     <use style="fill:#0000ff;stroke:#0000ff;" x="247.363601" xlink:href="#m08c41fd657" y="166.020268"/>
     <use style="fill:#0000ff;stroke:#0000ff;" x="240.878772" xlink:href="#m08c41fd657" y="174.239766"/>
     <use style="fill:#0000ff;stroke:#0000ff;" x="237.819246" xlink:href="#m08c41fd657" y="173.11667"/>
     <use style="fill:#0000ff;stroke:#0000ff;" x="251.353962" xlink:href="#m08c41fd657" y="173.341596"/>
     <use style="fill:#0000ff;stroke:#0000ff;" x="247.57512" xlink:href="#m08c41fd657" y="173.491494"/>
     <use style="fill:#0000ff;stroke:#0000ff;" x="236.16" xlink:href="#m08c41fd657" y="174.528"/>
     <use style="fill:#0000ff;stroke:#0000ff;" x="236.581601" xlink:href="#m08c41fd657" y="174.528"/>
     <use style="fill:#0000ff;stroke:#0000ff;" x="247.614506" xlink:href="#m08c41fd657" y="168.196465"/>
     <use style="fill:#0000ff;stroke:#0000ff;" x="240.326614" xlink:href="#m08c41fd657" y="174.26517"/>
     <use style="fill:#0000ff;stroke:#0000ff;" x="247.514801" xlink:href="#m08c41fd657" y="169.236774"/>
     <use style="fill:#0000ff;stroke:#0000ff;" x="240.444621" xlink:href="#m08c41fd657" y="172.525615"/>
     <use style="fill:#0000ff;stroke:#0000ff;" x="239.906094" xlink:href="#m08c41fd657" y="173.79798"/>
     <use style="fill:#0000ff;stroke:#0000ff;" x="240.184816" xlink:href="#m08c41fd657" y="174.528"/>
     <use style="fill:#0000ff;stroke:#0000ff;" x="241.043216" xlink:href="#m08c41fd657" y="173.853881"/>
     <use style="fill:#0000ff;stroke:#0000ff;" x="240.473223" xlink:href="#m08c41fd657" y="174.301482"/>
     <use style="fill:#0000ff;stroke:#0000ff;" x="240.637862" xlink:href="#m08c41fd657" y="174.434146"/>
     <use style="fill:#0000ff;stroke:#0000ff;" x="240.61908" xlink:href="#m08c41fd657" y="174.288608"/>
     <use style="fill:#0000ff;stroke:#0000ff;" x="240.581426" xlink:href="#m08c41fd657" y="174.528"/>
     <use style="fill:#0000ff;stroke:#0000ff;" x="244.3335" xlink:href="#m08c41fd657" y="170.500223"/>
     <use style="fill:#0000ff;stroke:#0000ff;" x="236.959888" xlink:href="#m08c41fd657" y="173.675265"/>
     <use style="fill:#0000ff;stroke:#0000ff;" x="237.42025" xlink:href="#m08c41fd657" y="173.354366"/>
     <use style="fill:#0000ff;stroke:#0000ff;" x="237.570691" xlink:href="#m08c41fd657" y="173.361966"/>
     <use style="fill:#0000ff;stroke:#0000ff;" x="239.007056" xlink:href="#m08c41fd657" y="173.337835"/>
     <use style="fill:#0000ff;stroke:#0000ff;" x="236.831237" xlink:href="#m08c41fd657" y="173.891678"/>
     <use style="fill:#0000ff;stroke:#0000ff;" x="238.347931" xlink:href="#m08c41fd657" y="170.199751"/>
     <use style="fill:#0000ff;stroke:#0000ff;" x="244.124776" xlink:href="#m08c41fd657" y="169.258259"/>
     <use style="fill:#0000ff;stroke:#0000ff;" x="237.701649" xlink:href="#m08c41fd657" y="174.528"/>
     <use style="fill:#0000ff;stroke:#0000ff;" x="244.058506" xlink:href="#m08c41fd657" y="172.86638"/>
     <use style="fill:#0000ff;stroke:#0000ff;" x="244.243318" xlink:href="#m08c41fd657" y="169.352469"/>
     <use style="fill:#0000ff;stroke:#0000ff;" x="243.899144" xlink:href="#m08c41fd657" y="169.28692"/>
     <use style="fill:#0000ff;stroke:#0000ff;" x="243.882653" xlink:href="#m08c41fd657" y="167.960293"/>
     <use style="fill:#0000ff;stroke:#0000ff;" x="241.303972" xlink:href="#m08c41fd657" y="174.521369"/>
     <use style="fill:#0000ff;stroke:#0000ff;" x="241.06598" xlink:href="#m08c41fd657" y="174.161811"/>
     <use style="fill:#0000ff;stroke:#0000ff;" x="247.452614" xlink:href="#m08c41fd657" y="168.587889"/>
     <use style="fill:#0000ff;stroke:#0000ff;" x="236.699051" xlink:href="#m08c41fd657" y="173.161024"/>
     <use style="fill:#0000ff;stroke:#0000ff;" x="243.879192" xlink:href="#m08c41fd657" y="168.401643"/>
    </g>
   </g>
   <g id="matplotlib.axis_1">
    <g id="xtick_1">
     <g id="line2d_1">
      <defs>
       <path d="M 0 0 
L 0 3.5 
" id="m49780ba875" style="stroke:#000000;stroke-width:0.8;"/>
      </defs>
      <g>
       <use style="stroke:#000000;stroke-width:0.8;" x="57.6" xlink:href="#m49780ba875" y="307.584"/>
      </g>
     </g>
     <g id="text_1">
      <!-- −10.0 -->
      <defs>
       <path d="M 10.59375 35.5 
L 73.1875 35.5 
L 73.1875 27.203125 
L 10.59375 27.203125 
z
" id="DejaVuSans-2212"/>
       <path d="M 12.40625 8.296875 
L 28.515625 8.296875 
L 28.515625 63.921875 
L 10.984375 60.40625 
L 10.984375 69.390625 
L 28.421875 72.90625 
L 38.28125 72.90625 
L 38.28125 8.296875 
L 54.390625 8.296875 
L 54.390625 0 
L 12.40625 0 
z
" id="DejaVuSans-31"/>
       <path d="M 31.78125 66.40625 
Q 24.171875 66.40625 20.328125 58.90625 
Q 16.5 51.421875 16.5 36.375 
Q 16.5 21.390625 20.328125 13.890625 
Q 24.171875 6.390625 31.78125 6.390625 
Q 39.453125 6.390625 43.28125 13.890625 
Q 47.125 21.390625 47.125 36.375 
Q 47.125 51.421875 43.28125 58.90625 
Q 39.453125 66.40625 31.78125 66.40625 
z
M 31.78125 74.21875 
Q 44.046875 74.21875 50.515625 64.515625 
Q 56.984375 54.828125 56.984375 36.375 
Q 56.984375 17.96875 50.515625 8.265625 
Q 44.046875 -1.421875 31.78125 -1.421875 
Q 19.53125 -1.421875 13.0625 8.265625 
Q 6.59375 17.96875 6.59375 36.375 
Q 6.59375 54.828125 13.0625 64.515625 
Q 19.53125 74.21875 31.78125 74.21875 
z
" id="DejaVuSans-30"/>
       <path d="M 10.6875 12.40625 
L 21 12.40625 
L 21 0 
L 10.6875 0 
z
" id="DejaVuSans-2e"/>
      </defs>
      <g transform="translate(42.277344 322.182437)scale(0.1 -0.1)">
       <use xlink:href="#DejaVuSans-2212"/>
       <use x="83.789062" xlink:href="#DejaVuSans-31"/>
       <use x="147.412109" xlink:href="#DejaVuSans-30"/>
       <use x="211.035156" xlink:href="#DejaVuSans-2e"/>
       <use x="242.822266" xlink:href="#DejaVuSans-30"/>
      </g>
     </g>
    </g>
    <g id="xtick_2">
     <g id="line2d_2">
      <g>
       <use style="stroke:#000000;stroke-width:0.8;" x="102.24" xlink:href="#m49780ba875" y="307.584"/>
      </g>
     </g>
     <g id="text_2">
      <!-- −7.5 -->
      <defs>
       <path d="M 8.203125 72.90625 
L 55.078125 72.90625 
L 55.078125 68.703125 
L 28.609375 0 
L 18.3125 0 
L 43.21875 64.59375 
L 8.203125 64.59375 
z
" id="DejaVuSans-37"/>
       <path d="M 10.796875 72.90625 
L 49.515625 72.90625 
L 49.515625 64.59375 
L 19.828125 64.59375 
L 19.828125 46.734375 
Q 21.96875 47.46875 24.109375 47.828125 
Q 26.265625 48.1875 28.421875 48.1875 
Q 40.625 48.1875 47.75 41.5 
Q 54.890625 34.8125 54.890625 23.390625 
Q 54.890625 11.625 47.5625 5.09375 
Q 40.234375 -1.421875 26.90625 -1.421875 
Q 22.3125 -1.421875 17.546875 -0.640625 
Q 12.796875 0.140625 7.71875 1.703125 
L 7.71875 11.625 
Q 12.109375 9.234375 16.796875 8.0625 
Q 21.484375 6.890625 26.703125 6.890625 
Q 35.15625 6.890625 40.078125 11.328125 
Q 45.015625 15.765625 45.015625 23.390625 
Q 45.015625 31 40.078125 35.4375 
Q 35.15625 39.890625 26.703125 39.890625 
Q 22.75 39.890625 18.8125 39.015625 
Q 14.890625 38.140625 10.796875 36.28125 
z
" id="DejaVuSans-35"/>
      </defs>
      <g transform="translate(90.098594 322.182437)scale(0.1 -0.1)">
       <use xlink:href="#DejaVuSans-2212"/>
       <use x="83.789062" xlink:href="#DejaVuSans-37"/>
       <use x="147.412109" xlink:href="#DejaVuSans-2e"/>
       <use x="179.199219" xlink:href="#DejaVuSans-35"/>
      </g>
     </g>
    </g>
    <g id="xtick_3">
     <g id="line2d_3">
      <g>
       <use style="stroke:#000000;stroke-width:0.8;" x="146.88" xlink:href="#m49780ba875" y="307.584"/>
      </g>
     </g>
     <g id="text_3">
      <!-- −5.0 -->
      <g transform="translate(134.738594 322.182437)scale(0.1 -0.1)">
       <use xlink:href="#DejaVuSans-2212"/>
       <use x="83.789062" xlink:href="#DejaVuSans-35"/>
       <use x="147.412109" xlink:href="#DejaVuSans-2e"/>
       <use x="179.199219" xlink:href="#DejaVuSans-30"/>
      </g>
     </g>
    </g>
    <g id="xtick_4">
     <g id="line2d_4">
      <g>
       <use style="stroke:#000000;stroke-width:0.8;" x="191.52" xlink:href="#m49780ba875" y="307.584"/>
      </g>
     </g>
     <g id="text_4">
      <!-- −2.5 -->
      <defs>
       <path d="M 19.1875 8.296875 
L 53.609375 8.296875 
L 53.609375 0 
L 7.328125 0 
L 7.328125 8.296875 
Q 12.9375 14.109375 22.625 23.890625 
Q 32.328125 33.6875 34.8125 36.53125 
Q 39.546875 41.84375 41.421875 45.53125 
Q 43.3125 49.21875 43.3125 52.78125 
Q 43.3125 58.59375 39.234375 62.25 
Q 35.15625 65.921875 28.609375 65.921875 
Q 23.96875 65.921875 18.8125 64.3125 
Q 13.671875 62.703125 7.8125 59.421875 
L 7.8125 69.390625 
Q 13.765625 71.78125 18.9375 73 
Q 24.125 74.21875 28.421875 74.21875 
Q 39.75 74.21875 46.484375 68.546875 
Q 53.21875 62.890625 53.21875 53.421875 
Q 53.21875 48.921875 51.53125 44.890625 
Q 49.859375 40.875 45.40625 35.40625 
Q 44.1875 33.984375 37.640625 27.21875 
Q 31.109375 20.453125 19.1875 8.296875 
z
" id="DejaVuSans-32"/>
      </defs>
      <g transform="translate(179.378594 322.182437)scale(0.1 -0.1)">
       <use xlink:href="#DejaVuSans-2212"/>
       <use x="83.789062" xlink:href="#DejaVuSans-32"/>
       <use x="147.412109" xlink:href="#DejaVuSans-2e"/>
       <use x="179.199219" xlink:href="#DejaVuSans-35"/>
      </g>
     </g>
    </g>
    <g id="xtick_5">
     <g id="line2d_5">
      <g>
       <use style="stroke:#000000;stroke-width:0.8;" x="236.16" xlink:href="#m49780ba875" y="307.584"/>
      </g>
     </g>
     <g id="text_5">
      <!-- 0.0 -->
      <g transform="translate(228.208438 322.182437)scale(0.1 -0.1)">
       <use xlink:href="#DejaVuSans-30"/>
       <use x="63.623047" xlink:href="#DejaVuSans-2e"/>
       <use x="95.410156" xlink:href="#DejaVuSans-30"/>
      </g>
     </g>
    </g>
    <g id="xtick_6">
     <g id="line2d_6">
      <g>
       <use style="stroke:#000000;stroke-width:0.8;" x="280.8" xlink:href="#m49780ba875" y="307.584"/>
      </g>
     </g>
     <g id="text_6">
      <!-- 2.5 -->
      <g transform="translate(272.848437 322.182437)scale(0.1 -0.1)">
       <use xlink:href="#DejaVuSans-32"/>
       <use x="63.623047" xlink:href="#DejaVuSans-2e"/>
       <use x="95.410156" xlink:href="#DejaVuSans-35"/>
      </g>
     </g>
    </g>
    <g id="xtick_7">
     <g id="line2d_7">
      <g>
       <use style="stroke:#000000;stroke-width:0.8;" x="325.44" xlink:href="#m49780ba875" y="307.584"/>
      </g>
     </g>
     <g id="text_7">
      <!-- 5.0 -->
      <g transform="translate(317.488437 322.182437)scale(0.1 -0.1)">
       <use xlink:href="#DejaVuSans-35"/>
       <use x="63.623047" xlink:href="#DejaVuSans-2e"/>
       <use x="95.410156" xlink:href="#DejaVuSans-30"/>
      </g>
     </g>
    </g>
    <g id="xtick_8">
     <g id="line2d_8">
      <g>
       <use style="stroke:#000000;stroke-width:0.8;" x="370.08" xlink:href="#m49780ba875" y="307.584"/>
      </g>
     </g>
     <g id="text_8">
      <!-- 7.5 -->
      <g transform="translate(362.128438 322.182437)scale(0.1 -0.1)">
       <use xlink:href="#DejaVuSans-37"/>
       <use x="63.623047" xlink:href="#DejaVuSans-2e"/>
       <use x="95.410156" xlink:href="#DejaVuSans-35"/>
      </g>
     </g>
    </g>
    <g id="xtick_9">
     <g id="line2d_9">
      <g>
       <use style="stroke:#000000;stroke-width:0.8;" x="414.72" xlink:href="#m49780ba875" y="307.584"/>
      </g>
     </g>
     <g id="text_9">
      <!-- 10.0 -->
      <g transform="translate(403.587188 322.182437)scale(0.1 -0.1)">
       <use xlink:href="#DejaVuSans-31"/>
       <use x="63.623047" xlink:href="#DejaVuSans-30"/>
       <use x="127.246094" xlink:href="#DejaVuSans-2e"/>
       <use x="159.033203" xlink:href="#DejaVuSans-30"/>
      </g>
     </g>
    </g>
   </g>
   <g id="matplotlib.axis_2">
    <g id="ytick_1">
     <g id="line2d_10">
      <defs>
       <path d="M 0 0 
L -3.5 0 
" id="m7a22994df3" style="stroke:#000000;stroke-width:0.8;"/>
      </defs>
      <g>
       <use style="stroke:#000000;stroke-width:0.8;" x="57.6" xlink:href="#m7a22994df3" y="307.584"/>
      </g>
     </g>
     <g id="text_10">
      <!-- −10.0 -->
      <g transform="translate(19.954687 311.383219)scale(0.1 -0.1)">
       <use xlink:href="#DejaVuSans-2212"/>
       <use x="83.789062" xlink:href="#DejaVuSans-31"/>
       <use x="147.412109" xlink:href="#DejaVuSans-30"/>
       <use x="211.035156" xlink:href="#DejaVuSans-2e"/>
       <use x="242.822266" xlink:href="#DejaVuSans-30"/>
      </g>
     </g>
    </g>
    <g id="ytick_2">
     <g id="line2d_11">
      <g>
       <use style="stroke:#000000;stroke-width:0.8;" x="57.6" xlink:href="#m7a22994df3" y="274.32"/>
      </g>
     </g>
     <g id="text_11">
      <!-- −7.5 -->
      <g transform="translate(26.317187 278.119219)scale(0.1 -0.1)">
       <use xlink:href="#DejaVuSans-2212"/>
       <use x="83.789062" xlink:href="#DejaVuSans-37"/>
       <use x="147.412109" xlink:href="#DejaVuSans-2e"/>
       <use x="179.199219" xlink:href="#DejaVuSans-35"/>
      </g>
     </g>
    </g>
    <g id="ytick_3">
     <g id="line2d_12">
      <g>
       <use style="stroke:#000000;stroke-width:0.8;" x="57.6" xlink:href="#m7a22994df3" y="241.056"/>
      </g>
     </g>
     <g id="text_12">
      <!-- −5.0 -->
      <g transform="translate(26.317187 244.855219)scale(0.1 -0.1)">
       <use xlink:href="#DejaVuSans-2212"/>
       <use x="83.789062" xlink:href="#DejaVuSans-35"/>
       <use x="147.412109" xlink:href="#DejaVuSans-2e"/>
       <use x="179.199219" xlink:href="#DejaVuSans-30"/>
      </g>
     </g>
    </g>
    <g id="ytick_4">
     <g id="line2d_13">
      <g>
       <use style="stroke:#000000;stroke-width:0.8;" x="57.6" xlink:href="#m7a22994df3" y="207.792"/>
      </g>
     </g>
     <g id="text_13">
      <!-- −2.5 -->
      <g transform="translate(26.317187 211.591219)scale(0.1 -0.1)">
       <use xlink:href="#DejaVuSans-2212"/>
       <use x="83.789062" xlink:href="#DejaVuSans-32"/>
       <use x="147.412109" xlink:href="#DejaVuSans-2e"/>
       <use x="179.199219" xlink:href="#DejaVuSans-35"/>
      </g>
     </g>
    </g>
    <g id="ytick_5">
     <g id="line2d_14">
      <g>
       <use style="stroke:#000000;stroke-width:0.8;" x="57.6" xlink:href="#m7a22994df3" y="174.528"/>
      </g>
     </g>
     <g id="text_14">
      <!-- 0.0 -->
      <g transform="translate(34.696875 178.327219)scale(0.1 -0.1)">
       <use xlink:href="#DejaVuSans-30"/>
       <use x="63.623047" xlink:href="#DejaVuSans-2e"/>
       <use x="95.410156" xlink:href="#DejaVuSans-30"/>
      </g>
     </g>
    </g>
    <g id="ytick_6">
     <g id="line2d_15">
      <g>
       <use style="stroke:#000000;stroke-width:0.8;" x="57.6" xlink:href="#m7a22994df3" y="141.264"/>
      </g>
     </g>
     <g id="text_15">
      <!-- 2.5 -->
      <g transform="translate(34.696875 145.063219)scale(0.1 -0.1)">
       <use xlink:href="#DejaVuSans-32"/>
       <use x="63.623047" xlink:href="#DejaVuSans-2e"/>
       <use x="95.410156" xlink:href="#DejaVuSans-35"/>
      </g>
     </g>
    </g>
    <g id="ytick_7">
     <g id="line2d_16">
      <g>
       <use style="stroke:#000000;stroke-width:0.8;" x="57.6" xlink:href="#m7a22994df3" y="108"/>
      </g>
     </g>
     <g id="text_16">
      <!-- 5.0 -->
      <g transform="translate(34.696875 111.799219)scale(0.1 -0.1)">
       <use xlink:href="#DejaVuSans-35"/>
       <use x="63.623047" xlink:href="#DejaVuSans-2e"/>
       <use x="95.410156" xlink:href="#DejaVuSans-30"/>
      </g>
     </g>
    </g>
    <g id="ytick_8">
     <g id="line2d_17">
      <g>
       <use style="stroke:#000000;stroke-width:0.8;" x="57.6" xlink:href="#m7a22994df3" y="74.736"/>
      </g>
     </g>
     <g id="text_17">
      <!-- 7.5 -->
      <g transform="translate(34.696875 78.535219)scale(0.1 -0.1)">
       <use xlink:href="#DejaVuSans-37"/>
       <use x="63.623047" xlink:href="#DejaVuSans-2e"/>
       <use x="95.410156" xlink:href="#DejaVuSans-35"/>
      </g>
     </g>
    </g>
    <g id="ytick_9">
     <g id="line2d_18">
      <g>
       <use style="stroke:#000000;stroke-width:0.8;" x="57.6" xlink:href="#m7a22994df3" y="41.472"/>
      </g>
     </g>
     <g id="text_18">
      <!-- 10.0 -->
      <g transform="translate(28.334375 45.271219)scale(0.1 -0.1)">
       <use xlink:href="#DejaVuSans-31"/>
       <use x="63.623047" xlink:href="#DejaVuSans-30"/>
       <use x="127.246094" xlink:href="#DejaVuSans-2e"/>
       <use x="159.033203" xlink:href="#DejaVuSans-30"/>
      </g>
     </g>
    </g>
   </g>
   <g id="patch_3">
    <path d="M 57.6 307.584 
L 57.6 41.472 
" style="fill:none;stroke:#000000;stroke-linecap:square;stroke-linejoin:miter;stroke-width:0.8;"/>
   </g>
   <g id="patch_4">
    <path d="M 414.72 307.584 
L 414.72 41.472 
" style="fill:none;stroke:#000000;stroke-linecap:square;stroke-linejoin:miter;stroke-width:0.8;"/>
   </g>
   <g id="patch_5">
    <path d="M 57.6 307.584 
L 414.72 307.584 
" style="fill:none;stroke:#000000;stroke-linecap:square;stroke-linejoin:miter;stroke-width:0.8;"/>
   </g>
   <g id="patch_6">
    <path d="M 57.6 41.472 
L 414.72 41.472 
" style="fill:none;stroke:#000000;stroke-linecap:square;stroke-linejoin:miter;stroke-width:0.8;"/>
   </g>
  </g>
 </g>
 <defs>
  <clipPath id="p7761565163">
   <rect height="266.112" width="357.12" x="57.6" y="41.472"/>
  </clipPath>
 </defs>
</svg>
