<?xml version="1.0" encoding="utf-8" standalone="no"?>
<!DOCTYPE svg PUBLIC "-//W3C//DTD SVG 1.1//EN"
  "http://www.w3.org/Graphics/SVG/1.1/DTD/svg11.dtd">
<!-- Created with matplotlib (http://matplotlib.org/) -->
<svg height="345.6pt" version="1.1" viewBox="0 0 460.8 345.6" width="460.8pt" xmlns="http://www.w3.org/2000/svg" xmlns:xlink="http://www.w3.org/1999/xlink">
 <defs>
  <style type="text/css">
*{stroke-linecap:butt;stroke-linejoin:round;}
  </style>
 </defs>
 <g id="figure_1">
  <g id="patch_1">
   <path d="M 0 345.6 
L 460.8 345.6 
L 460.8 0 
L 0 0 
z
" style="fill:#ffffff;"/>
  </g>
  <g id="axes_1">
   <g id="patch_2">
    <path d="M 57.6 307.584 
L 414.72 307.584 
L 414.72 41.472 
L 57.6 41.472 
z
" style="fill:#ffffff;"/>
   </g>
   <g id="PathCollection_1">
    <defs>
     <path d="M 0 0.612372 
C 0.162403 0.612372 0.318176 0.547849 0.433013 0.433013 
C 0.547849 0.318176 0.612372 0.162403 0.612372 0 
C 0.612372 -0.162403 0.547849 -0.318176 0.433013 -0.433013 
C 0.318176 -0.547849 0.162403 -0.612372 0 -0.612372 
C -0.162403 -0.612372 -0.318176 -0.547849 -0.433013 -0.433013 
C -0.547849 -0.318176 -0.612372 -0.162403 -0.612372 0 
C -0.612372 0.162403 -0.547849 0.318176 -0.433013 0.433013 
C -0.318176 0.547849 -0.162403 0.612372 0 0.612372 
z
" id="md263ad58fe" style="stroke:#000000;"/>
    </defs>
    <g clip-path="url(#p9499fdc135)">
     <use style="stroke:#000000;" x="236.16" xlink:href="#md263ad58fe" y="145.57558"/>
     <use style="stroke:#000000;" x="236.16" xlink:href="#md263ad58fe" y="162.00496"/>
     <use style="stroke:#000000;" x="325.44" xlink:href="#md263ad58fe" y="137.333044"/>
     <use style="stroke:#000000;" x="244.061038" xlink:href="#md263ad58fe" y="174.528"/>
     <use style="stroke:#000000;" x="236.16" xlink:href="#md263ad58fe" y="163.545375"/>
     <use style="stroke:#000000;" x="236.16" xlink:href="#md263ad58fe" y="136.436626"/>
     <use style="stroke:#000000;" x="315.516792" xlink:href="#md263ad58fe" y="174.528"/>
     <use style="stroke:#000000;" x="273.306726" xlink:href="#md263ad58fe" y="174.528"/>
     <use style="stroke:#000000;" x="236.16" xlink:href="#md263ad58fe" y="148.138036"/>
     <use style="stroke:#000000;" x="245.442316" xlink:href="#md263ad58fe" y="174.528"/>
     <use style="stroke:#000000;" x="236.16" xlink:href="#md263ad58fe" y="134.6112"/>
     <use style="stroke:#000000;" x="236.16" xlink:href="#md263ad58fe" y="159.526667"/>
     <use style="stroke:#000000;" x="236.16" xlink:href="#md263ad58fe" y="134.6112"/>
     <use style="stroke:#000000;" x="236.16" xlink:href="#md263ad58fe" y="172.561163"/>
     <use style="stroke:#000000;" x="236.16" xlink:href="#md263ad58fe" y="174.528"/>
     <use style="stroke:#000000;" x="236.16" xlink:href="#md263ad58fe" y="141.058225"/>
     <use style="stroke:#000000;" x="325.44" xlink:href="#md263ad58fe" y="142.175733"/>
     <use style="stroke:#000000;" x="255.019646" xlink:href="#md263ad58fe" y="174.528"/>
     <use style="stroke:#000000;" x="236.16" xlink:href="#md263ad58fe" y="134.6112"/>
     <use style="stroke:#000000;" x="240.106143" xlink:href="#md263ad58fe" y="174.528"/>
     <use style="stroke:#000000;" x="236.16" xlink:href="#md263ad58fe" y="163.723797"/>
     <use style="stroke:#000000;" x="236.16" xlink:href="#md263ad58fe" y="174.528"/>
     <use style="stroke:#000000;" x="236.16" xlink:href="#md263ad58fe" y="147.806594"/>
     <use style="stroke:#000000;" x="236.16" xlink:href="#md263ad58fe" y="147.955218"/>
     <use style="stroke:#000000;" x="236.16" xlink:href="#md263ad58fe" y="150.313401"/>
     <use style="stroke:#000000;" x="236.16" xlink:href="#md263ad58fe" y="170.072867"/>
     <use style="stroke:#000000;" x="325.44" xlink:href="#md263ad58fe" y="140.736768"/>
     <use style="stroke:#000000;" x="236.16" xlink:href="#md263ad58fe" y="145.034124"/>
     <use style="stroke:#000000;" x="236.16" xlink:href="#md263ad58fe" y="150.935124"/>
     <use style="stroke:#000000;" x="236.16" xlink:href="#md263ad58fe" y="143.975966"/>
     <use style="stroke:#000000;" x="236.16" xlink:href="#md263ad58fe" y="142.435865"/>
     <use style="stroke:#000000;" x="325.44" xlink:href="#md263ad58fe" y="143.998845"/>
     <use style="stroke:#000000;" x="236.16" xlink:href="#md263ad58fe" y="139.103887"/>
     <use style="stroke:#000000;" x="236.16" xlink:href="#md263ad58fe" y="161.435495"/>
     <use style="stroke:#000000;" x="236.16" xlink:href="#md263ad58fe" y="157.420745"/>
     <use style="stroke:#000000;" x="325.44" xlink:href="#md263ad58fe" y="171.432138"/>
     <use style="stroke:#000000;" x="242.369097" xlink:href="#md263ad58fe" y="174.528"/>
     <use style="stroke:#000000;" x="236.16" xlink:href="#md263ad58fe" y="172.396542"/>
     <use style="stroke:#000000;" x="236.16" xlink:href="#md263ad58fe" y="142.625375"/>
     <use style="stroke:#000000;" x="236.16" xlink:href="#md263ad58fe" y="134.6112"/>
     <use style="stroke:#000000;" x="236.16" xlink:href="#md263ad58fe" y="134.6112"/>
     <use style="stroke:#000000;" x="236.16" xlink:href="#md263ad58fe" y="153.535214"/>
     <use style="stroke:#000000;" x="325.44" xlink:href="#md263ad58fe" y="174.528"/>
     <use style="stroke:#000000;" x="236.16" xlink:href="#md263ad58fe" y="149.314421"/>
     <use style="stroke:#000000;" x="249.100983" xlink:href="#md263ad58fe" y="174.079281"/>
     <use style="stroke:#000000;" x="265.10093" xlink:href="#md263ad58fe" y="174.528"/>
     <use style="stroke:#000000;" x="236.16" xlink:href="#md263ad58fe" y="138.162058"/>
     <use style="stroke:#000000;" x="236.16" xlink:href="#md263ad58fe" y="137.418132"/>
     <use style="stroke:#000000;" x="236.16" xlink:href="#md263ad58fe" y="160.385838"/>
     <use style="stroke:#000000;" x="325.128202" xlink:href="#md263ad58fe" y="136.507761"/>
     <use style="stroke:#000000;" x="236.16" xlink:href="#md263ad58fe" y="159.709076"/>
     <use style="stroke:#000000;" x="236.16" xlink:href="#md263ad58fe" y="134.6112"/>
     <use style="stroke:#000000;" x="325.44" xlink:href="#md263ad58fe" y="146.311296"/>
     <use style="stroke:#000000;" x="236.16" xlink:href="#md263ad58fe" y="140.500013"/>
     <use style="stroke:#000000;" x="321.885286" xlink:href="#md263ad58fe" y="174.528"/>
     <use style="stroke:#000000;" x="304.775217" xlink:href="#md263ad58fe" y="174.528"/>
     <use style="stroke:#000000;" x="286.367574" xlink:href="#md263ad58fe" y="174.528"/>
     <use style="stroke:#000000;" x="240.728175" xlink:href="#md263ad58fe" y="174.528"/>
     <use style="stroke:#000000;" x="236.16" xlink:href="#md263ad58fe" y="144.523079"/>
     <use style="stroke:#000000;" x="325.44" xlink:href="#md263ad58fe" y="138.836692"/>
     <use style="stroke:#000000;" x="325.44" xlink:href="#md263ad58fe" y="139.968629"/>
     <use style="stroke:#000000;" x="325.44" xlink:href="#md263ad58fe" y="134.6112"/>
     <use style="stroke:#000000;" x="325.44" xlink:href="#md263ad58fe" y="154.013248"/>
     <use style="stroke:#000000;" x="236.16" xlink:href="#md263ad58fe" y="174.293909"/>
     <use style="stroke:#000000;" x="237.12167" xlink:href="#md263ad58fe" y="173.97244"/>
     <use style="stroke:#000000;" x="325.44" xlink:href="#md263ad58fe" y="139.443441"/>
     <use style="stroke:#000000;" x="325.44" xlink:href="#md263ad58fe" y="174.528"/>
     <use style="stroke:#000000;" x="265.870376" xlink:href="#md263ad58fe" y="174.528"/>
     <use style="stroke:#000000;" x="246.044384" xlink:href="#md263ad58fe" y="174.528"/>
     <use style="stroke:#000000;" x="236.16" xlink:href="#md263ad58fe" y="134.6112"/>
     <use style="stroke:#000000;" x="252.057819" xlink:href="#md263ad58fe" y="174.528"/>
     <use style="stroke:#000000;" x="256.315166" xlink:href="#md263ad58fe" y="174.528"/>
     <use style="stroke:#000000;" x="241.156877" xlink:href="#md263ad58fe" y="174.528"/>
     <use style="stroke:#000000;" x="236.16" xlink:href="#md263ad58fe" y="165.135377"/>
     <use style="stroke:#000000;" x="236.16" xlink:href="#md263ad58fe" y="166.65401"/>
     <use style="stroke:#000000;" x="236.16" xlink:href="#md263ad58fe" y="136.697008"/>
     <use style="stroke:#000000;" x="256.586386" xlink:href="#md263ad58fe" y="174.528"/>
     <use style="stroke:#000000;" x="236.16" xlink:href="#md263ad58fe" y="134.657845"/>
     <use style="stroke:#000000;" x="236.16" xlink:href="#md263ad58fe" y="174.528"/>
     <use style="stroke:#000000;" x="271.175452" xlink:href="#md263ad58fe" y="174.528"/>
     <use style="stroke:#000000;" x="247.057415" xlink:href="#md263ad58fe" y="150.122596"/>
     <use style="stroke:#000000;" x="240.072823" xlink:href="#md263ad58fe" y="161.296855"/>
     <use style="stroke:#000000;" x="236.16" xlink:href="#md263ad58fe" y="163.39951"/>
     <use style="stroke:#000000;" x="236.16" xlink:href="#md263ad58fe" y="159.783188"/>
     <use style="stroke:#000000;" x="238.472787" xlink:href="#md263ad58fe" y="161.253284"/>
     <use style="stroke:#000000;" x="325.2172" xlink:href="#md263ad58fe" y="140.595632"/>
     <use style="stroke:#000000;" x="322.693747" xlink:href="#md263ad58fe" y="134.6112"/>
     <use style="stroke:#000000;" x="320.3155" xlink:href="#md263ad58fe" y="137.45706"/>
     <use style="stroke:#000000;" x="252.460101" xlink:href="#md263ad58fe" y="171.786436"/>
     <use style="stroke:#000000;" x="247.433378" xlink:href="#md263ad58fe" y="172.699903"/>
     <use style="stroke:#000000;" x="251.099025" xlink:href="#md263ad58fe" y="174.528"/>
     <use style="stroke:#000000;" x="248.450922" xlink:href="#md263ad58fe" y="165.264598"/>
     <use style="stroke:#000000;" x="236.20859" xlink:href="#md263ad58fe" y="162.595321"/>
     <use style="stroke:#000000;" x="236.16" xlink:href="#md263ad58fe" y="159.783102"/>
     <use style="stroke:#000000;" x="236.16" xlink:href="#md263ad58fe" y="136.200286"/>
     <use style="stroke:#000000;" x="238.380246" xlink:href="#md263ad58fe" y="134.6112"/>
     <use style="stroke:#000000;" x="243.57485" xlink:href="#md263ad58fe" y="140.752423"/>
     <use style="stroke:#000000;" x="315.92773" xlink:href="#md263ad58fe" y="174.528"/>
     <use style="stroke:#000000;" x="317.846623" xlink:href="#md263ad58fe" y="174.528"/>
     <use style="stroke:#000000;" x="321.260817" xlink:href="#md263ad58fe" y="173.801426"/>
     <use style="stroke:#000000;" x="276.785255" xlink:href="#md263ad58fe" y="174.318532"/>
     <use style="stroke:#000000;" x="273.12291" xlink:href="#md263ad58fe" y="172.712131"/>
     <use style="stroke:#000000;" x="267.969805" xlink:href="#md263ad58fe" y="174.528"/>
     <use style="stroke:#000000;" x="238.151952" xlink:href="#md263ad58fe" y="145.758212"/>
     <use style="stroke:#000000;" x="236.16" xlink:href="#md263ad58fe" y="150.8182"/>
     <use style="stroke:#000000;" x="248.640857" xlink:href="#md263ad58fe" y="143.002679"/>
     <use style="stroke:#000000;" x="246.037815" xlink:href="#md263ad58fe" y="170.900934"/>
     <use style="stroke:#000000;" x="251.42049" xlink:href="#md263ad58fe" y="174.528"/>
     <use style="stroke:#000000;" x="245.299486" xlink:href="#md263ad58fe" y="171.25666"/>
     <use style="stroke:#000000;" x="237.283744" xlink:href="#md263ad58fe" y="134.6112"/>
     <use style="stroke:#000000;" x="236.16" xlink:href="#md263ad58fe" y="137.644054"/>
     <use style="stroke:#000000;" x="236.16" xlink:href="#md263ad58fe" y="134.6112"/>
     <use style="stroke:#000000;" x="238.388543" xlink:href="#md263ad58fe" y="160.477126"/>
     <use style="stroke:#000000;" x="236.16" xlink:href="#md263ad58fe" y="159.485407"/>
     <use style="stroke:#000000;" x="240.769284" xlink:href="#md263ad58fe" y="158.630232"/>
     <use style="stroke:#000000;" x="236.16" xlink:href="#md263ad58fe" y="137.645808"/>
     <use style="stroke:#000000;" x="242.706185" xlink:href="#md263ad58fe" y="136.005012"/>
     <use style="stroke:#000000;" x="236.16" xlink:href="#md263ad58fe" y="134.6112"/>
     <use style="stroke:#000000;" x="238.12128" xlink:href="#md263ad58fe" y="172.333888"/>
     <use style="stroke:#000000;" x="236.16" xlink:href="#md263ad58fe" y="174.528"/>
     <use style="stroke:#000000;" x="236.16" xlink:href="#md263ad58fe" y="173.373292"/>
     <use style="stroke:#000000;" x="236.16" xlink:href="#md263ad58fe" y="173.207814"/>
     <use style="stroke:#000000;" x="237.630389" xlink:href="#md263ad58fe" y="174.183684"/>
     <use style="stroke:#000000;" x="250.722108" xlink:href="#md263ad58fe" y="174.528"/>
     <use style="stroke:#000000;" x="236.16" xlink:href="#md263ad58fe" y="141.942009"/>
     <use style="stroke:#000000;" x="240.856029" xlink:href="#md263ad58fe" y="136.813834"/>
     <use style="stroke:#000000;" x="236.16" xlink:href="#md263ad58fe" y="144.261535"/>
     <use style="stroke:#000000;" x="325.44" xlink:href="#md263ad58fe" y="142.42193"/>
     <use style="stroke:#000000;" x="318.765276" xlink:href="#md263ad58fe" y="141.613013"/>
     <use style="stroke:#000000;" x="324.005531" xlink:href="#md263ad58fe" y="139.044512"/>
     <use style="stroke:#000000;" x="254.610831" xlink:href="#md263ad58fe" y="174.528"/>
     <use style="stroke:#000000;" x="247.596027" xlink:href="#md263ad58fe" y="174.528"/>
     <use style="stroke:#000000;" x="258.202227" xlink:href="#md263ad58fe" y="173.748444"/>
     <use style="stroke:#000000;" x="236.16" xlink:href="#md263ad58fe" y="135.713678"/>
     <use style="stroke:#000000;" x="243.851035" xlink:href="#md263ad58fe" y="135.823767"/>
     <use style="stroke:#000000;" x="241.745282" xlink:href="#md263ad58fe" y="135.970474"/>
     <use style="stroke:#000000;" x="254.29298" xlink:href="#md263ad58fe" y="171.245738"/>
     <use style="stroke:#000000;" x="238.784013" xlink:href="#md263ad58fe" y="169.807449"/>
     <use style="stroke:#000000;" x="244.172902" xlink:href="#md263ad58fe" y="174.528"/>
     <use style="stroke:#000000;" x="236.16" xlink:href="#md263ad58fe" y="163.815188"/>
     <use style="stroke:#000000;" x="239.517216" xlink:href="#md263ad58fe" y="163.795204"/>
     <use style="stroke:#000000;" x="236.889037" xlink:href="#md263ad58fe" y="161.70058"/>
     <use style="stroke:#000000;" x="237.967516" xlink:href="#md263ad58fe" y="173.590103"/>
     <use style="stroke:#000000;" x="244.703051" xlink:href="#md263ad58fe" y="145.233666"/>
     <use style="stroke:#000000;" x="243.123856" xlink:href="#md263ad58fe" y="145.14165"/>
     <use style="stroke:#000000;" x="236.16" xlink:href="#md263ad58fe" y="146.627226"/>
     <use style="stroke:#000000;" x="236.16" xlink:href="#md263ad58fe" y="144.094708"/>
     <use style="stroke:#000000;" x="240.808467" xlink:href="#md263ad58fe" y="148.056218"/>
     <use style="stroke:#000000;" x="240.113625" xlink:href="#md263ad58fe" y="150.793983"/>
     <use style="stroke:#000000;" x="238.072357" xlink:href="#md263ad58fe" y="151.387247"/>
     <use style="stroke:#000000;" x="244.018054" xlink:href="#md263ad58fe" y="148.907526"/>
     <use style="stroke:#000000;" x="248.141236" xlink:href="#md263ad58fe" y="143.196994"/>
     <use style="stroke:#000000;" x="236.16" xlink:href="#md263ad58fe" y="174.528"/>
     <use style="stroke:#000000;" x="325.44" xlink:href="#md263ad58fe" y="146.471057"/>
     <use style="stroke:#000000;" x="323.696687" xlink:href="#md263ad58fe" y="142.167099"/>
     <use style="stroke:#000000;" x="317.628446" xlink:href="#md263ad58fe" y="138.783283"/>
     <use style="stroke:#000000;" x="240.50029" xlink:href="#md263ad58fe" y="147.574192"/>
     <use style="stroke:#000000;" x="243.449513" xlink:href="#md263ad58fe" y="152.58803"/>
     <use style="stroke:#000000;" x="255.808203" xlink:href="#md263ad58fe" y="143.746115"/>
     <use style="stroke:#000000;" x="236.16" xlink:href="#md263ad58fe" y="145.926408"/>
     <use style="stroke:#000000;" x="323.07112" xlink:href="#md263ad58fe" y="140.793502"/>
     <use style="stroke:#000000;" x="236.16" xlink:href="#md263ad58fe" y="139.878004"/>
     <use style="stroke:#000000;" x="236.16" xlink:href="#md263ad58fe" y="162.4926"/>
     <use style="stroke:#000000;" x="236.241212" xlink:href="#md263ad58fe" y="161.295512"/>
     <use style="stroke:#000000;" x="243.362912" xlink:href="#md263ad58fe" y="160.970064"/>
     <use style="stroke:#000000;" x="238.76611" xlink:href="#md263ad58fe" y="158.776956"/>
     <use style="stroke:#000000;" x="244.770398" xlink:href="#md263ad58fe" y="161.185583"/>
     <use style="stroke:#000000;" x="236.16" xlink:href="#md263ad58fe" y="158.687531"/>
     <use style="stroke:#000000;" x="325.267798" xlink:href="#md263ad58fe" y="174.478958"/>
     <use style="stroke:#000000;" x="244.157977" xlink:href="#md263ad58fe" y="172.183493"/>
     <use style="stroke:#000000;" x="247.722707" xlink:href="#md263ad58fe" y="173.487469"/>
     <use style="stroke:#000000;" x="236.16" xlink:href="#md263ad58fe" y="174.528"/>
     <use style="stroke:#000000;" x="238.151091" xlink:href="#md263ad58fe" y="167.007635"/>
     <use style="stroke:#000000;" x="236.799029" xlink:href="#md263ad58fe" y="174.528"/>
     <use style="stroke:#000000;" x="236.16" xlink:href="#md263ad58fe" y="141.05736"/>
     <use style="stroke:#000000;" x="237.357437" xlink:href="#md263ad58fe" y="144.200926"/>
     <use style="stroke:#000000;" x="241.066113" xlink:href="#md263ad58fe" y="134.6112"/>
     <use style="stroke:#000000;" x="240.645765" xlink:href="#md263ad58fe" y="134.6112"/>
     <use style="stroke:#000000;" x="242.528181" xlink:href="#md263ad58fe" y="135.12545"/>
     <use style="stroke:#000000;" x="236.16" xlink:href="#md263ad58fe" y="136.602353"/>
     <use style="stroke:#000000;" x="239.549" xlink:href="#md263ad58fe" y="156.45769"/>
     <use style="stroke:#000000;" x="236.16" xlink:href="#md263ad58fe" y="149.719744"/>
     <use style="stroke:#000000;" x="317.308336" xlink:href="#md263ad58fe" y="168.691701"/>
     <use style="stroke:#000000;" x="236.16" xlink:href="#md263ad58fe" y="151.843816"/>
     <use style="stroke:#000000;" x="238.381036" xlink:href="#md263ad58fe" y="150.030562"/>
     <use style="stroke:#000000;" x="242.020994" xlink:href="#md263ad58fe" y="173.073116"/>
     <use style="stroke:#000000;" x="251.930582" xlink:href="#md263ad58fe" y="168.287672"/>
     <use style="stroke:#000000;" x="259.305284" xlink:href="#md263ad58fe" y="174.528"/>
     <use style="stroke:#000000;" x="236.16" xlink:href="#md263ad58fe" y="136.927014"/>
     <use style="stroke:#000000;" x="238.363132" xlink:href="#md263ad58fe" y="136.667435"/>
     <use style="stroke:#000000;" x="236.16" xlink:href="#md263ad58fe" y="138.008258"/>
     <use style="stroke:#000000;" x="236.16" xlink:href="#md263ad58fe" y="162.526098"/>
     <use style="stroke:#000000;" x="236.16" xlink:href="#md263ad58fe" y="161.233064"/>
     <use style="stroke:#000000;" x="319.419582" xlink:href="#md263ad58fe" y="134.6112"/>
     <use style="stroke:#000000;" x="237.201544" xlink:href="#md263ad58fe" y="161.359704"/>
     <use style="stroke:#000000;" x="244.179232" xlink:href="#md263ad58fe" y="159.456962"/>
     <use style="stroke:#000000;" x="245.074118" xlink:href="#md263ad58fe" y="137.295766"/>
     <use style="stroke:#000000;" x="325.44" xlink:href="#md263ad58fe" y="144.135289"/>
     <use style="stroke:#000000;" x="324.484701" xlink:href="#md263ad58fe" y="143.922419"/>
     <use style="stroke:#000000;" x="236.16" xlink:href="#md263ad58fe" y="138.104425"/>
     <use style="stroke:#000000;" x="325.273347" xlink:href="#md263ad58fe" y="174.484915"/>
     <use style="stroke:#000000;" x="321.909221" xlink:href="#md263ad58fe" y="174.528"/>
     <use style="stroke:#000000;" x="307.092122" xlink:href="#md263ad58fe" y="169.029932"/>
     <use style="stroke:#000000;" x="305.159926" xlink:href="#md263ad58fe" y="172.324924"/>
     <use style="stroke:#000000;" x="286.562068" xlink:href="#md263ad58fe" y="173.869074"/>
     <use style="stroke:#000000;" x="290.95323" xlink:href="#md263ad58fe" y="173.211736"/>
     <use style="stroke:#000000;" x="250.758481" xlink:href="#md263ad58fe" y="174.528"/>
     <use style="stroke:#000000;" x="243.230219" xlink:href="#md263ad58fe" y="171.336143"/>
     <use style="stroke:#000000;" x="240.461392" xlink:href="#md263ad58fe" y="144.450551"/>
     <use style="stroke:#000000;" x="236.16" xlink:href="#md263ad58fe" y="146.707556"/>
     <use style="stroke:#000000;" x="325.44" xlink:href="#md263ad58fe" y="139.373499"/>
     <use style="stroke:#000000;" x="323.837764" xlink:href="#md263ad58fe" y="143.185623"/>
     <use style="stroke:#000000;" x="318.739575" xlink:href="#md263ad58fe" y="137.309007"/>
     <use style="stroke:#000000;" x="325.44" xlink:href="#md263ad58fe" y="138.656969"/>
     <use style="stroke:#000000;" x="325.44" xlink:href="#md263ad58fe" y="134.6112"/>
     <use style="stroke:#000000;" x="325.44" xlink:href="#md263ad58fe" y="151.359056"/>
     <use style="stroke:#000000;" x="323.990743" xlink:href="#md263ad58fe" y="150.600834"/>
     <use style="stroke:#000000;" x="237.963479" xlink:href="#md263ad58fe" y="174.528"/>
     <use style="stroke:#000000;" x="239.725991" xlink:href="#md263ad58fe" y="170.685933"/>
     <use style="stroke:#000000;" x="244.422562" xlink:href="#md263ad58fe" y="172.582796"/>
     <use style="stroke:#000000;" x="236.16" xlink:href="#md263ad58fe" y="172.988372"/>
     <use style="stroke:#000000;" x="325.44" xlink:href="#md263ad58fe" y="137.033963"/>
     <use style="stroke:#000000;" x="325.44" xlink:href="#md263ad58fe" y="137.654668"/>
     <use style="stroke:#000000;" x="313.538508" xlink:href="#md263ad58fe" y="169.800291"/>
     <use style="stroke:#000000;" x="325.44" xlink:href="#md263ad58fe" y="174.528"/>
     <use style="stroke:#000000;" x="257.054072" xlink:href="#md263ad58fe" y="174.528"/>
     <use style="stroke:#000000;" x="246.299621" xlink:href="#md263ad58fe" y="174.528"/>
     <use style="stroke:#000000;" x="242.0694" xlink:href="#md263ad58fe" y="173.999783"/>
     <use style="stroke:#000000;" x="237.431769" xlink:href="#md263ad58fe" y="136.840035"/>
     <use style="stroke:#000000;" x="237.930739" xlink:href="#md263ad58fe" y="134.6112"/>
     <use style="stroke:#000000;" x="249.585081" xlink:href="#md263ad58fe" y="172.993936"/>
     <use style="stroke:#000000;" x="250.459939" xlink:href="#md263ad58fe" y="174.528"/>
     <use style="stroke:#000000;" x="236.16" xlink:href="#md263ad58fe" y="174.528"/>
     <use style="stroke:#000000;" x="236.16" xlink:href="#md263ad58fe" y="174.528"/>
     <use style="stroke:#000000;" x="236.16" xlink:href="#md263ad58fe" y="162.022645"/>
     <use style="stroke:#000000;" x="239.018774" xlink:href="#md263ad58fe" y="167.169876"/>
     <use style="stroke:#000000;" x="237.315197" xlink:href="#md263ad58fe" y="136.045398"/>
     <use style="stroke:#000000;" x="251.860651" xlink:href="#md263ad58fe" y="171.934422"/>
     <use style="stroke:#000000;" x="236.16" xlink:href="#md263ad58fe" y="135.992017"/>
     <use style="stroke:#000000;" x="238.479745" xlink:href="#md263ad58fe" y="174.528"/>
     <use style="stroke:#000000;" x="276.928275" xlink:href="#md263ad58fe" y="174.528"/>
    </g>
   </g>
   <g id="PathCollection_2">
    <defs>
     <path d="M 0 0.935414 
C 0.248075 0.935414 0.486022 0.836853 0.661438 0.661438 
C 0.836853 0.486022 0.935414 0.248075 0.935414 0 
C 0.935414 -0.248075 0.836853 -0.486022 0.661438 -0.661438 
C 0.486022 -0.836853 0.248075 -0.935414 0 -0.935414 
C -0.248075 -0.935414 -0.486022 -0.836853 -0.661438 -0.661438 
C -0.836853 -0.486022 -0.935414 -0.248075 -0.935414 0 
C -0.935414 0.248075 -0.836853 0.486022 -0.661438 0.661438 
C -0.486022 0.836853 -0.248075 0.935414 0 0.935414 
z
" id="ma23412e127" style="stroke:#0000ff;"/>
    </defs>
    <g clip-path="url(#p9499fdc135)">
     <use style="fill:#0000ff;stroke:#0000ff;" x="236.16" xlink:href="#ma23412e127" y="145.57558"/>
     <use style="fill:#0000ff;stroke:#0000ff;" x="236.16" xlink:href="#ma23412e127" y="162.00496"/>
     <use style="fill:#0000ff;stroke:#0000ff;" x="325.44" xlink:href="#ma23412e127" y="137.333044"/>
     <use style="fill:#0000ff;stroke:#0000ff;" x="244.061038" xlink:href="#ma23412e127" y="174.528"/>
     <use style="fill:#0000ff;stroke:#0000ff;" x="236.16" xlink:href="#ma23412e127" y="163.545375"/>
     <use style="fill:#0000ff;stroke:#0000ff;" x="236.16" xlink:href="#ma23412e127" y="136.436626"/>
     <use style="fill:#0000ff;stroke:#0000ff;" x="315.516792" xlink:href="#ma23412e127" y="174.528"/>
     <use style="fill:#0000ff;stroke:#0000ff;" x="273.306726" xlink:href="#ma23412e127" y="174.528"/>
     <use style="fill:#0000ff;stroke:#0000ff;" x="236.16" xlink:href="#ma23412e127" y="148.138036"/>
     <use style="fill:#0000ff;stroke:#0000ff;" x="245.442316" xlink:href="#ma23412e127" y="174.528"/>
     <use style="fill:#0000ff;stroke:#0000ff;" x="236.16" xlink:href="#ma23412e127" y="134.6112"/>
     <use style="fill:#0000ff;stroke:#0000ff;" x="236.16" xlink:href="#ma23412e127" y="159.526667"/>
     <use style="fill:#0000ff;stroke:#0000ff;" x="236.16" xlink:href="#ma23412e127" y="134.6112"/>
     <use style="fill:#0000ff;stroke:#0000ff;" x="236.16" xlink:href="#ma23412e127" y="172.561163"/>
     <use style="fill:#0000ff;stroke:#0000ff;" x="236.16" xlink:href="#ma23412e127" y="174.528"/>
     <use style="fill:#0000ff;stroke:#0000ff;" x="236.16" xlink:href="#ma23412e127" y="141.058225"/>
     <use style="fill:#0000ff;stroke:#0000ff;" x="325.44" xlink:href="#ma23412e127" y="142.175733"/>
     <use style="fill:#0000ff;stroke:#0000ff;" x="255.019646" xlink:href="#ma23412e127" y="174.528"/>
     <use style="fill:#0000ff;stroke:#0000ff;" x="236.16" xlink:href="#ma23412e127" y="134.6112"/>
     <use style="fill:#0000ff;stroke:#0000ff;" x="240.106143" xlink:href="#ma23412e127" y="174.528"/>
     <use style="fill:#0000ff;stroke:#0000ff;" x="236.16" xlink:href="#ma23412e127" y="163.723797"/>
     <use style="fill:#0000ff;stroke:#0000ff;" x="236.16" xlink:href="#ma23412e127" y="174.528"/>
     <use style="fill:#0000ff;stroke:#0000ff;" x="236.16" xlink:href="#ma23412e127" y="147.806594"/>
     <use style="fill:#0000ff;stroke:#0000ff;" x="236.16" xlink:href="#ma23412e127" y="147.955218"/>
     <use style="fill:#0000ff;stroke:#0000ff;" x="236.16" xlink:href="#ma23412e127" y="150.313401"/>
     <use style="fill:#0000ff;stroke:#0000ff;" x="236.16" xlink:href="#ma23412e127" y="170.072867"/>
     <use style="fill:#0000ff;stroke:#0000ff;" x="325.44" xlink:href="#ma23412e127" y="140.736768"/>
     <use style="fill:#0000ff;stroke:#0000ff;" x="236.16" xlink:href="#ma23412e127" y="145.034124"/>
     <use style="fill:#0000ff;stroke:#0000ff;" x="236.16" xlink:href="#ma23412e127" y="150.935124"/>
     <use style="fill:#0000ff;stroke:#0000ff;" x="236.16" xlink:href="#ma23412e127" y="143.975966"/>
     <use style="fill:#0000ff;stroke:#0000ff;" x="236.16" xlink:href="#ma23412e127" y="142.435865"/>
     <use style="fill:#0000ff;stroke:#0000ff;" x="325.44" xlink:href="#ma23412e127" y="143.998845"/>
     <use style="fill:#0000ff;stroke:#0000ff;" x="236.16" xlink:href="#ma23412e127" y="139.103887"/>
     <use style="fill:#0000ff;stroke:#0000ff;" x="236.16" xlink:href="#ma23412e127" y="161.435495"/>
     <use style="fill:#0000ff;stroke:#0000ff;" x="236.16" xlink:href="#ma23412e127" y="157.420745"/>
     <use style="fill:#0000ff;stroke:#0000ff;" x="325.44" xlink:href="#ma23412e127" y="171.432138"/>
     <use style="fill:#0000ff;stroke:#0000ff;" x="242.369097" xlink:href="#ma23412e127" y="174.528"/>
     <use style="fill:#0000ff;stroke:#0000ff;" x="236.16" xlink:href="#ma23412e127" y="172.396542"/>
     <use style="fill:#0000ff;stroke:#0000ff;" x="236.16" xlink:href="#ma23412e127" y="142.625375"/>
     <use style="fill:#0000ff;stroke:#0000ff;" x="236.16" xlink:href="#ma23412e127" y="134.6112"/>
     <use style="fill:#0000ff;stroke:#0000ff;" x="236.16" xlink:href="#ma23412e127" y="134.6112"/>
     <use style="fill:#0000ff;stroke:#0000ff;" x="236.16" xlink:href="#ma23412e127" y="153.535214"/>
     <use style="fill:#0000ff;stroke:#0000ff;" x="325.44" xlink:href="#ma23412e127" y="174.528"/>
     <use style="fill:#0000ff;stroke:#0000ff;" x="236.16" xlink:href="#ma23412e127" y="149.314421"/>
     <use style="fill:#0000ff;stroke:#0000ff;" x="249.100983" xlink:href="#ma23412e127" y="174.079281"/>
     <use style="fill:#0000ff;stroke:#0000ff;" x="265.10093" xlink:href="#ma23412e127" y="174.528"/>
     <use style="fill:#0000ff;stroke:#0000ff;" x="236.16" xlink:href="#ma23412e127" y="138.162058"/>
     <use style="fill:#0000ff;stroke:#0000ff;" x="236.16" xlink:href="#ma23412e127" y="137.418132"/>
     <use style="fill:#0000ff;stroke:#0000ff;" x="236.16" xlink:href="#ma23412e127" y="160.385838"/>
     <use style="fill:#0000ff;stroke:#0000ff;" x="325.128202" xlink:href="#ma23412e127" y="136.507761"/>
     <use style="fill:#0000ff;stroke:#0000ff;" x="236.16" xlink:href="#ma23412e127" y="159.709076"/>
     <use style="fill:#0000ff;stroke:#0000ff;" x="236.16" xlink:href="#ma23412e127" y="134.6112"/>
     <use style="fill:#0000ff;stroke:#0000ff;" x="325.44" xlink:href="#ma23412e127" y="146.311296"/>
     <use style="fill:#0000ff;stroke:#0000ff;" x="236.16" xlink:href="#ma23412e127" y="140.500013"/>
     <use style="fill:#0000ff;stroke:#0000ff;" x="321.885286" xlink:href="#ma23412e127" y="174.528"/>
     <use style="fill:#0000ff;stroke:#0000ff;" x="304.775217" xlink:href="#ma23412e127" y="174.528"/>
     <use style="fill:#0000ff;stroke:#0000ff;" x="286.367574" xlink:href="#ma23412e127" y="174.528"/>
     <use style="fill:#0000ff;stroke:#0000ff;" x="240.728175" xlink:href="#ma23412e127" y="174.528"/>
     <use style="fill:#0000ff;stroke:#0000ff;" x="236.16" xlink:href="#ma23412e127" y="144.523079"/>
     <use style="fill:#0000ff;stroke:#0000ff;" x="325.44" xlink:href="#ma23412e127" y="138.836692"/>
     <use style="fill:#0000ff;stroke:#0000ff;" x="325.44" xlink:href="#ma23412e127" y="139.968629"/>
     <use style="fill:#0000ff;stroke:#0000ff;" x="325.44" xlink:href="#ma23412e127" y="134.6112"/>
     <use style="fill:#0000ff;stroke:#0000ff;" x="325.44" xlink:href="#ma23412e127" y="154.013248"/>
     <use style="fill:#0000ff;stroke:#0000ff;" x="236.16" xlink:href="#ma23412e127" y="174.293909"/>
     <use style="fill:#0000ff;stroke:#0000ff;" x="237.12167" xlink:href="#ma23412e127" y="173.97244"/>
     <use style="fill:#0000ff;stroke:#0000ff;" x="325.44" xlink:href="#ma23412e127" y="139.443441"/>
     <use style="fill:#0000ff;stroke:#0000ff;" x="325.44" xlink:href="#ma23412e127" y="174.528"/>
     <use style="fill:#0000ff;stroke:#0000ff;" x="265.870376" xlink:href="#ma23412e127" y="174.528"/>
     <use style="fill:#0000ff;stroke:#0000ff;" x="246.044384" xlink:href="#ma23412e127" y="174.528"/>
     <use style="fill:#0000ff;stroke:#0000ff;" x="236.16" xlink:href="#ma23412e127" y="134.6112"/>
     <use style="fill:#0000ff;stroke:#0000ff;" x="252.057819" xlink:href="#ma23412e127" y="174.528"/>
     <use style="fill:#0000ff;stroke:#0000ff;" x="256.315166" xlink:href="#ma23412e127" y="174.528"/>
     <use style="fill:#0000ff;stroke:#0000ff;" x="241.156877" xlink:href="#ma23412e127" y="174.528"/>
     <use style="fill:#0000ff;stroke:#0000ff;" x="236.16" xlink:href="#ma23412e127" y="165.135377"/>
     <use style="fill:#0000ff;stroke:#0000ff;" x="236.16" xlink:href="#ma23412e127" y="166.65401"/>
     <use style="fill:#0000ff;stroke:#0000ff;" x="236.16" xlink:href="#ma23412e127" y="136.697008"/>
     <use style="fill:#0000ff;stroke:#0000ff;" x="256.586386" xlink:href="#ma23412e127" y="174.528"/>
     <use style="fill:#0000ff;stroke:#0000ff;" x="236.16" xlink:href="#ma23412e127" y="134.657845"/>
     <use style="fill:#0000ff;stroke:#0000ff;" x="236.16" xlink:href="#ma23412e127" y="174.528"/>
     <use style="fill:#0000ff;stroke:#0000ff;" x="271.175452" xlink:href="#ma23412e127" y="174.528"/>
    </g>
   </g>
   <g id="matplotlib.axis_1">
    <g id="xtick_1">
     <g id="line2d_1">
      <defs>
       <path d="M 0 0 
L 0 3.5 
" id="mf765f4eb5c" style="stroke:#000000;stroke-width:0.8;"/>
      </defs>
      <g>
       <use style="stroke:#000000;stroke-width:0.8;" x="57.6" xlink:href="#mf765f4eb5c" y="307.584"/>
      </g>
     </g>
     <g id="text_1">
      <!-- −10.0 -->
      <defs>
       <path d="M 10.59375 35.5 
L 73.1875 35.5 
L 73.1875 27.203125 
L 10.59375 27.203125 
z
" id="DejaVuSans-2212"/>
       <path d="M 12.40625 8.296875 
L 28.515625 8.296875 
L 28.515625 63.921875 
L 10.984375 60.40625 
L 10.984375 69.390625 
L 28.421875 72.90625 
L 38.28125 72.90625 
L 38.28125 8.296875 
L 54.390625 8.296875 
L 54.390625 0 
L 12.40625 0 
z
" id="DejaVuSans-31"/>
       <path d="M 31.78125 66.40625 
Q 24.171875 66.40625 20.328125 58.90625 
Q 16.5 51.421875 16.5 36.375 
Q 16.5 21.390625 20.328125 13.890625 
Q 24.171875 6.390625 31.78125 6.390625 
Q 39.453125 6.390625 43.28125 13.890625 
Q 47.125 21.390625 47.125 36.375 
Q 47.125 51.421875 43.28125 58.90625 
Q 39.453125 66.40625 31.78125 66.40625 
z
M 31.78125 74.21875 
Q 44.046875 74.21875 50.515625 64.515625 
Q 56.984375 54.828125 56.984375 36.375 
Q 56.984375 17.96875 50.515625 8.265625 
Q 44.046875 -1.421875 31.78125 -1.421875 
Q 19.53125 -1.421875 13.0625 8.265625 
Q 6.59375 17.96875 6.59375 36.375 
Q 6.59375 54.828125 13.0625 64.515625 
Q 19.53125 74.21875 31.78125 74.21875 
z
" id="DejaVuSans-30"/>
       <path d="M 10.6875 12.40625 
L 21 12.40625 
L 21 0 
L 10.6875 0 
z
" id="DejaVuSans-2e"/>
      </defs>
      <g transform="translate(42.277344 322.182437)scale(0.1 -0.1)">
       <use xlink:href="#DejaVuSans-2212"/>
       <use x="83.789062" xlink:href="#DejaVuSans-31"/>
       <use x="147.412109" xlink:href="#DejaVuSans-30"/>
       <use x="211.035156" xlink:href="#DejaVuSans-2e"/>
       <use x="242.822266" xlink:href="#DejaVuSans-30"/>
      </g>
     </g>
    </g>
    <g id="xtick_2">
     <g id="line2d_2">
      <g>
       <use style="stroke:#000000;stroke-width:0.8;" x="102.24" xlink:href="#mf765f4eb5c" y="307.584"/>
      </g>
     </g>
     <g id="text_2">
      <!-- −7.5 -->
      <defs>
       <path d="M 8.203125 72.90625 
L 55.078125 72.90625 
L 55.078125 68.703125 
L 28.609375 0 
L 18.3125 0 
L 43.21875 64.59375 
L 8.203125 64.59375 
z
" id="DejaVuSans-37"/>
       <path d="M 10.796875 72.90625 
L 49.515625 72.90625 
L 49.515625 64.59375 
L 19.828125 64.59375 
L 19.828125 46.734375 
Q 21.96875 47.46875 24.109375 47.828125 
Q 26.265625 48.1875 28.421875 48.1875 
Q 40.625 48.1875 47.75 41.5 
Q 54.890625 34.8125 54.890625 23.390625 
Q 54.890625 11.625 47.5625 5.09375 
Q 40.234375 -1.421875 26.90625 -1.421875 
Q 22.3125 -1.421875 17.546875 -0.640625 
Q 12.796875 0.140625 7.71875 1.703125 
L 7.71875 11.625 
Q 12.109375 9.234375 16.796875 8.0625 
Q 21.484375 6.890625 26.703125 6.890625 
Q 35.15625 6.890625 40.078125 11.328125 
Q 45.015625 15.765625 45.015625 23.390625 
Q 45.015625 31 40.078125 35.4375 
Q 35.15625 39.890625 26.703125 39.890625 
Q 22.75 39.890625 18.8125 39.015625 
Q 14.890625 38.140625 10.796875 36.28125 
z
" id="DejaVuSans-35"/>
      </defs>
      <g transform="translate(90.098594 322.182437)scale(0.1 -0.1)">
       <use xlink:href="#DejaVuSans-2212"/>
       <use x="83.789062" xlink:href="#DejaVuSans-37"/>
       <use x="147.412109" xlink:href="#DejaVuSans-2e"/>
       <use x="179.199219" xlink:href="#DejaVuSans-35"/>
      </g>
     </g>
    </g>
    <g id="xtick_3">
     <g id="line2d_3">
      <g>
       <use style="stroke:#000000;stroke-width:0.8;" x="146.88" xlink:href="#mf765f4eb5c" y="307.584"/>
      </g>
     </g>
     <g id="text_3">
      <!-- −5.0 -->
      <g transform="translate(134.738594 322.182437)scale(0.1 -0.1)">
       <use xlink:href="#DejaVuSans-2212"/>
       <use x="83.789062" xlink:href="#DejaVuSans-35"/>
       <use x="147.412109" xlink:href="#DejaVuSans-2e"/>
       <use x="179.199219" xlink:href="#DejaVuSans-30"/>
      </g>
     </g>
    </g>
    <g id="xtick_4">
     <g id="line2d_4">
      <g>
       <use style="stroke:#000000;stroke-width:0.8;" x="191.52" xlink:href="#mf765f4eb5c" y="307.584"/>
      </g>
     </g>
     <g id="text_4">
      <!-- −2.5 -->
      <defs>
       <path d="M 19.1875 8.296875 
L 53.609375 8.296875 
L 53.609375 0 
L 7.328125 0 
L 7.328125 8.296875 
Q 12.9375 14.109375 22.625 23.890625 
Q 32.328125 33.6875 34.8125 36.53125 
Q 39.546875 41.84375 41.421875 45.53125 
Q 43.3125 49.21875 43.3125 52.78125 
Q 43.3125 58.59375 39.234375 62.25 
Q 35.15625 65.921875 28.609375 65.921875 
Q 23.96875 65.921875 18.8125 64.3125 
Q 13.671875 62.703125 7.8125 59.421875 
L 7.8125 69.390625 
Q 13.765625 71.78125 18.9375 73 
Q 24.125 74.21875 28.421875 74.21875 
Q 39.75 74.21875 46.484375 68.546875 
Q 53.21875 62.890625 53.21875 53.421875 
Q 53.21875 48.921875 51.53125 44.890625 
Q 49.859375 40.875 45.40625 35.40625 
Q 44.1875 33.984375 37.640625 27.21875 
Q 31.109375 20.453125 19.1875 8.296875 
z
" id="DejaVuSans-32"/>
      </defs>
      <g transform="translate(179.378594 322.182437)scale(0.1 -0.1)">
       <use xlink:href="#DejaVuSans-2212"/>
       <use x="83.789062" xlink:href="#DejaVuSans-32"/>
       <use x="147.412109" xlink:href="#DejaVuSans-2e"/>
       <use x="179.199219" xlink:href="#DejaVuSans-35"/>
      </g>
     </g>
    </g>
    <g id="xtick_5">
     <g id="line2d_5">
      <g>
       <use style="stroke:#000000;stroke-width:0.8;" x="236.16" xlink:href="#mf765f4eb5c" y="307.584"/>
      </g>
     </g>
     <g id="text_5">
      <!-- 0.0 -->
      <g transform="translate(228.208438 322.182437)scale(0.1 -0.1)">
       <use xlink:href="#DejaVuSans-30"/>
       <use x="63.623047" xlink:href="#DejaVuSans-2e"/>
       <use x="95.410156" xlink:href="#DejaVuSans-30"/>
      </g>
     </g>
    </g>
    <g id="xtick_6">
     <g id="line2d_6">
      <g>
       <use style="stroke:#000000;stroke-width:0.8;" x="280.8" xlink:href="#mf765f4eb5c" y="307.584"/>
      </g>
     </g>
     <g id="text_6">
      <!-- 2.5 -->
      <g transform="translate(272.848437 322.182437)scale(0.1 -0.1)">
       <use xlink:href="#DejaVuSans-32"/>
       <use x="63.623047" xlink:href="#DejaVuSans-2e"/>
       <use x="95.410156" xlink:href="#DejaVuSans-35"/>
      </g>
     </g>
    </g>
    <g id="xtick_7">
     <g id="line2d_7">
      <g>
       <use style="stroke:#000000;stroke-width:0.8;" x="325.44" xlink:href="#mf765f4eb5c" y="307.584"/>
      </g>
     </g>
     <g id="text_7">
      <!-- 5.0 -->
      <g transform="translate(317.488437 322.182437)scale(0.1 -0.1)">
       <use xlink:href="#DejaVuSans-35"/>
       <use x="63.623047" xlink:href="#DejaVuSans-2e"/>
       <use x="95.410156" xlink:href="#DejaVuSans-30"/>
      </g>
     </g>
    </g>
    <g id="xtick_8">
     <g id="line2d_8">
      <g>
       <use style="stroke:#000000;stroke-width:0.8;" x="370.08" xlink:href="#mf765f4eb5c" y="307.584"/>
      </g>
     </g>
     <g id="text_8">
      <!-- 7.5 -->
      <g transform="translate(362.128438 322.182437)scale(0.1 -0.1)">
       <use xlink:href="#DejaVuSans-37"/>
       <use x="63.623047" xlink:href="#DejaVuSans-2e"/>
       <use x="95.410156" xlink:href="#DejaVuSans-35"/>
      </g>
     </g>
    </g>
    <g id="xtick_9">
     <g id="line2d_9">
      <g>
       <use style="stroke:#000000;stroke-width:0.8;" x="414.72" xlink:href="#mf765f4eb5c" y="307.584"/>
      </g>
     </g>
     <g id="text_9">
      <!-- 10.0 -->
      <g transform="translate(403.587188 322.182437)scale(0.1 -0.1)">
       <use xlink:href="#DejaVuSans-31"/>
       <use x="63.623047" xlink:href="#DejaVuSans-30"/>
       <use x="127.246094" xlink:href="#DejaVuSans-2e"/>
       <use x="159.033203" xlink:href="#DejaVuSans-30"/>
      </g>
     </g>
    </g>
   </g>
   <g id="matplotlib.axis_2">
    <g id="ytick_1">
     <g id="line2d_10">
      <defs>
       <path d="M 0 0 
L -3.5 0 
" id="m92bcaa67bb" style="stroke:#000000;stroke-width:0.8;"/>
      </defs>
      <g>
       <use style="stroke:#000000;stroke-width:0.8;" x="57.6" xlink:href="#m92bcaa67bb" y="307.584"/>
      </g>
     </g>
     <g id="text_10">
      <!-- −10.0 -->
      <g transform="translate(19.954687 311.383219)scale(0.1 -0.1)">
       <use xlink:href="#DejaVuSans-2212"/>
       <use x="83.789062" xlink:href="#DejaVuSans-31"/>
       <use x="147.412109" xlink:href="#DejaVuSans-30"/>
       <use x="211.035156" xlink:href="#DejaVuSans-2e"/>
       <use x="242.822266" xlink:href="#DejaVuSans-30"/>
      </g>
     </g>
    </g>
    <g id="ytick_2">
     <g id="line2d_11">
      <g>
       <use style="stroke:#000000;stroke-width:0.8;" x="57.6" xlink:href="#m92bcaa67bb" y="274.32"/>
      </g>
     </g>
     <g id="text_11">
      <!-- −7.5 -->
      <g transform="translate(26.317187 278.119219)scale(0.1 -0.1)">
       <use xlink:href="#DejaVuSans-2212"/>
       <use x="83.789062" xlink:href="#DejaVuSans-37"/>
       <use x="147.412109" xlink:href="#DejaVuSans-2e"/>
       <use x="179.199219" xlink:href="#DejaVuSans-35"/>
      </g>
     </g>
    </g>
    <g id="ytick_3">
     <g id="line2d_12">
      <g>
       <use style="stroke:#000000;stroke-width:0.8;" x="57.6" xlink:href="#m92bcaa67bb" y="241.056"/>
      </g>
     </g>
     <g id="text_12">
      <!-- −5.0 -->
      <g transform="translate(26.317187 244.855219)scale(0.1 -0.1)">
       <use xlink:href="#DejaVuSans-2212"/>
       <use x="83.789062" xlink:href="#DejaVuSans-35"/>
       <use x="147.412109" xlink:href="#DejaVuSans-2e"/>
       <use x="179.199219" xlink:href="#DejaVuSans-30"/>
      </g>
     </g>
    </g>
    <g id="ytick_4">
     <g id="line2d_13">
      <g>
       <use style="stroke:#000000;stroke-width:0.8;" x="57.6" xlink:href="#m92bcaa67bb" y="207.792"/>
      </g>
     </g>
     <g id="text_13">
      <!-- −2.5 -->
      <g transform="translate(26.317187 211.591219)scale(0.1 -0.1)">
       <use xlink:href="#DejaVuSans-2212"/>
       <use x="83.789062" xlink:href="#DejaVuSans-32"/>
       <use x="147.412109" xlink:href="#DejaVuSans-2e"/>
       <use x="179.199219" xlink:href="#DejaVuSans-35"/>
      </g>
     </g>
    </g>
    <g id="ytick_5">
     <g id="line2d_14">
      <g>
       <use style="stroke:#000000;stroke-width:0.8;" x="57.6" xlink:href="#m92bcaa67bb" y="174.528"/>
      </g>
     </g>
     <g id="text_14">
      <!-- 0.0 -->
      <g transform="translate(34.696875 178.327219)scale(0.1 -0.1)">
       <use xlink:href="#DejaVuSans-30"/>
       <use x="63.623047" xlink:href="#DejaVuSans-2e"/>
       <use x="95.410156" xlink:href="#DejaVuSans-30"/>
      </g>
     </g>
    </g>
    <g id="ytick_6">
     <g id="line2d_15">
      <g>
       <use style="stroke:#000000;stroke-width:0.8;" x="57.6" xlink:href="#m92bcaa67bb" y="141.264"/>
      </g>
     </g>
     <g id="text_15">
      <!-- 2.5 -->
      <g transform="translate(34.696875 145.063219)scale(0.1 -0.1)">
       <use xlink:href="#DejaVuSans-32"/>
       <use x="63.623047" xlink:href="#DejaVuSans-2e"/>
       <use x="95.410156" xlink:href="#DejaVuSans-35"/>
      </g>
     </g>
    </g>
    <g id="ytick_7">
     <g id="line2d_16">
      <g>
       <use style="stroke:#000000;stroke-width:0.8;" x="57.6" xlink:href="#m92bcaa67bb" y="108"/>
      </g>
     </g>
     <g id="text_16">
      <!-- 5.0 -->
      <g transform="translate(34.696875 111.799219)scale(0.1 -0.1)">
       <use xlink:href="#DejaVuSans-35"/>
       <use x="63.623047" xlink:href="#DejaVuSans-2e"/>
       <use x="95.410156" xlink:href="#DejaVuSans-30"/>
      </g>
     </g>
    </g>
    <g id="ytick_8">
     <g id="line2d_17">
      <g>
       <use style="stroke:#000000;stroke-width:0.8;" x="57.6" xlink:href="#m92bcaa67bb" y="74.736"/>
      </g>
     </g>
     <g id="text_17">
      <!-- 7.5 -->
      <g transform="translate(34.696875 78.535219)scale(0.1 -0.1)">
       <use xlink:href="#DejaVuSans-37"/>
       <use x="63.623047" xlink:href="#DejaVuSans-2e"/>
       <use x="95.410156" xlink:href="#DejaVuSans-35"/>
      </g>
     </g>
    </g>
    <g id="ytick_9">
     <g id="line2d_18">
      <g>
       <use style="stroke:#000000;stroke-width:0.8;" x="57.6" xlink:href="#m92bcaa67bb" y="41.472"/>
      </g>
     </g>
     <g id="text_18">
      <!-- 10.0 -->
      <g transform="translate(28.334375 45.271219)scale(0.1 -0.1)">
       <use xlink:href="#DejaVuSans-31"/>
       <use x="63.623047" xlink:href="#DejaVuSans-30"/>
       <use x="127.246094" xlink:href="#DejaVuSans-2e"/>
       <use x="159.033203" xlink:href="#DejaVuSans-30"/>
      </g>
     </g>
    </g>
   </g>
   <g id="patch_3">
    <path d="M 57.6 307.584 
L 57.6 41.472 
" style="fill:none;stroke:#000000;stroke-linecap:square;stroke-linejoin:miter;stroke-width:0.8;"/>
   </g>
   <g id="patch_4">
    <path d="M 414.72 307.584 
L 414.72 41.472 
" style="fill:none;stroke:#000000;stroke-linecap:square;stroke-linejoin:miter;stroke-width:0.8;"/>
   </g>
   <g id="patch_5">
    <path d="M 57.6 307.584 
L 414.72 307.584 
" style="fill:none;stroke:#000000;stroke-linecap:square;stroke-linejoin:miter;stroke-width:0.8;"/>
   </g>
   <g id="patch_6">
    <path d="M 57.6 41.472 
L 414.72 41.472 
" style="fill:none;stroke:#000000;stroke-linecap:square;stroke-linejoin:miter;stroke-width:0.8;"/>
   </g>
  </g>
 </g>
 <defs>
  <clipPath id="p9499fdc135">
   <rect height="266.112" width="357.12" x="57.6" y="41.472"/>
  </clipPath>
 </defs>
</svg>
