<?xml version="1.0" encoding="utf-8" standalone="no"?>
<!DOCTYPE svg PUBLIC "-//W3C//DTD SVG 1.1//EN"
  "http://www.w3.org/Graphics/SVG/1.1/DTD/svg11.dtd">
<!-- Created with matplotlib (http://matplotlib.org/) -->
<svg height="345.6pt" version="1.1" viewBox="0 0 460.8 345.6" width="460.8pt" xmlns="http://www.w3.org/2000/svg" xmlns:xlink="http://www.w3.org/1999/xlink">
 <defs>
  <style type="text/css">
*{stroke-linecap:butt;stroke-linejoin:round;}
  </style>
 </defs>
 <g id="figure_1">
  <g id="patch_1">
   <path d="M 0 345.6 
L 460.8 345.6 
L 460.8 0 
L 0 0 
z
" style="fill:#ffffff;"/>
  </g>
  <g id="axes_1">
   <g id="patch_2">
    <path d="M 57.6 307.584 
L 414.72 307.584 
L 414.72 41.472 
L 57.6 41.472 
z
" style="fill:#ffffff;"/>
   </g>
   <g id="PathCollection_1">
    <defs>
     <path d="M 0 0.612372 
C 0.162403 0.612372 0.318176 0.547849 0.433013 0.433013 
C 0.547849 0.318176 0.612372 0.162403 0.612372 0 
C 0.612372 -0.162403 0.547849 -0.318176 0.433013 -0.433013 
C 0.318176 -0.547849 0.162403 -0.612372 0 -0.612372 
C -0.162403 -0.612372 -0.318176 -0.547849 -0.433013 -0.433013 
C -0.547849 -0.318176 -0.612372 -0.162403 -0.612372 0 
C -0.612372 0.162403 -0.547849 0.318176 -0.433013 0.433013 
C -0.318176 0.547849 -0.162403 0.612372 0 0.612372 
z
" id="m3b6b56e4a7" style="stroke:#000000;"/>
    </defs>
    <g clip-path="url(#pd017a765e0)">
     <use style="stroke:#000000;" x="244.233276" xlink:href="#m3b6b56e4a7" y="174.528"/>
     <use style="stroke:#000000;" x="239.792765" xlink:href="#m3b6b56e4a7" y="171.883821"/>
     <use style="stroke:#000000;" x="243.893697" xlink:href="#m3b6b56e4a7" y="171.335819"/>
     <use style="stroke:#000000;" x="237.191091" xlink:href="#m3b6b56e4a7" y="174.528"/>
     <use style="stroke:#000000;" x="236.273422" xlink:href="#m3b6b56e4a7" y="174.528"/>
     <use style="stroke:#000000;" x="240.559753" xlink:href="#m3b6b56e4a7" y="174.528"/>
     <use style="stroke:#000000;" x="239.75202" xlink:href="#m3b6b56e4a7" y="169.187153"/>
     <use style="stroke:#000000;" x="236.637196" xlink:href="#m3b6b56e4a7" y="173.002799"/>
     <use style="stroke:#000000;" x="240.22867" xlink:href="#m3b6b56e4a7" y="174.528"/>
     <use style="stroke:#000000;" x="247.789073" xlink:href="#m3b6b56e4a7" y="167.059614"/>
     <use style="stroke:#000000;" x="237.435066" xlink:href="#m3b6b56e4a7" y="174.181263"/>
     <use style="stroke:#000000;" x="236.424479" xlink:href="#m3b6b56e4a7" y="174.528"/>
     <use style="stroke:#000000;" x="236.16" xlink:href="#m3b6b56e4a7" y="174.528"/>
     <use style="stroke:#000000;" x="244.158752" xlink:href="#m3b6b56e4a7" y="169.984482"/>
     <use style="stroke:#000000;" x="236.640771" xlink:href="#m3b6b56e4a7" y="174.038269"/>
     <use style="stroke:#000000;" x="243.99711" xlink:href="#m3b6b56e4a7" y="171.719437"/>
     <use style="stroke:#000000;" x="243.824543" xlink:href="#m3b6b56e4a7" y="171.304442"/>
     <use style="stroke:#000000;" x="240.1483" xlink:href="#m3b6b56e4a7" y="169.342907"/>
     <use style="stroke:#000000;" x="237.033391" xlink:href="#m3b6b56e4a7" y="173.56916"/>
     <use style="stroke:#000000;" x="244.252775" xlink:href="#m3b6b56e4a7" y="168.283103"/>
     <use style="stroke:#000000;" x="244.119578" xlink:href="#m3b6b56e4a7" y="168.636072"/>
     <use style="stroke:#000000;" x="247.482411" xlink:href="#m3b6b56e4a7" y="166.966036"/>
     <use style="stroke:#000000;" x="244.296995" xlink:href="#m3b6b56e4a7" y="170.493002"/>
     <use style="stroke:#000000;" x="244.279387" xlink:href="#m3b6b56e4a7" y="171.051138"/>
     <use style="stroke:#000000;" x="244.309493" xlink:href="#m3b6b56e4a7" y="170.841242"/>
     <use style="stroke:#000000;" x="247.657095" xlink:href="#m3b6b56e4a7" y="166.368295"/>
     <use style="stroke:#000000;" x="239.937219" xlink:href="#m3b6b56e4a7" y="173.717708"/>
     <use style="stroke:#000000;" x="240.044662" xlink:href="#m3b6b56e4a7" y="173.64643"/>
     <use style="stroke:#000000;" x="240.506798" xlink:href="#m3b6b56e4a7" y="173.746589"/>
     <use style="stroke:#000000;" x="240.021422" xlink:href="#m3b6b56e4a7" y="173.570554"/>
     <use style="stroke:#000000;" x="240.269314" xlink:href="#m3b6b56e4a7" y="172.510561"/>
     <use style="stroke:#000000;" x="243.793952" xlink:href="#m3b6b56e4a7" y="171.319913"/>
     <use style="stroke:#000000;" x="240.495717" xlink:href="#m3b6b56e4a7" y="173.706591"/>
     <use style="stroke:#000000;" x="240.735019" xlink:href="#m3b6b56e4a7" y="174.528"/>
     <use style="stroke:#000000;" x="240.792952" xlink:href="#m3b6b56e4a7" y="173.318933"/>
     <use style="stroke:#000000;" x="240.047003" xlink:href="#m3b6b56e4a7" y="174.134813"/>
     <use style="stroke:#000000;" x="240.269715" xlink:href="#m3b6b56e4a7" y="173.615368"/>
     <use style="stroke:#000000;" x="236.362051" xlink:href="#m3b6b56e4a7" y="173.451872"/>
     <use style="stroke:#000000;" x="240.638683" xlink:href="#m3b6b56e4a7" y="174.264059"/>
     <use style="stroke:#000000;" x="240.887797" xlink:href="#m3b6b56e4a7" y="174.528"/>
     <use style="stroke:#000000;" x="237.369275" xlink:href="#m3b6b56e4a7" y="169.879356"/>
     <use style="stroke:#000000;" x="244.022395" xlink:href="#m3b6b56e4a7" y="170.187275"/>
     <use style="stroke:#000000;" x="236.744164" xlink:href="#m3b6b56e4a7" y="173.029943"/>
     <use style="stroke:#000000;" x="237.511996" xlink:href="#m3b6b56e4a7" y="174.528"/>
     <use style="stroke:#000000;" x="237.003602" xlink:href="#m3b6b56e4a7" y="174.276408"/>
     <use style="stroke:#000000;" x="236.656288" xlink:href="#m3b6b56e4a7" y="173.427841"/>
     <use style="stroke:#000000;" x="244.153709" xlink:href="#m3b6b56e4a7" y="170.473025"/>
     <use style="stroke:#000000;" x="236.16" xlink:href="#m3b6b56e4a7" y="174.528"/>
     <use style="stroke:#000000;" x="239.131453" xlink:href="#m3b6b56e4a7" y="173.085527"/>
     <use style="stroke:#000000;" x="244.100928" xlink:href="#m3b6b56e4a7" y="168.981575"/>
     <use style="stroke:#000000;" x="236.548681" xlink:href="#m3b6b56e4a7" y="172.7995"/>
     <use style="stroke:#000000;" x="247.499818" xlink:href="#m3b6b56e4a7" y="166.989425"/>
     <use style="stroke:#000000;" x="244.213249" xlink:href="#m3b6b56e4a7" y="169.777436"/>
     <use style="stroke:#000000;" x="247.57512" xlink:href="#m3b6b56e4a7" y="173.491494"/>
     <use style="stroke:#000000;" x="244.28551" xlink:href="#m3b6b56e4a7" y="169.110915"/>
     <use style="stroke:#000000;" x="247.614506" xlink:href="#m3b6b56e4a7" y="168.196465"/>
     <use style="stroke:#000000;" x="244.320099" xlink:href="#m3b6b56e4a7" y="170.222978"/>
     <use style="stroke:#000000;" x="247.3838" xlink:href="#m3b6b56e4a7" y="166.823475"/>
     <use style="stroke:#000000;" x="240.184816" xlink:href="#m3b6b56e4a7" y="174.528"/>
     <use style="stroke:#000000;" x="244.312925" xlink:href="#m3b6b56e4a7" y="171.276256"/>
     <use style="stroke:#000000;" x="251.353962" xlink:href="#m3b6b56e4a7" y="173.341596"/>
     <use style="stroke:#000000;" x="236.465571" xlink:href="#m3b6b56e4a7" y="172.99053"/>
     <use style="stroke:#000000;" x="247.363601" xlink:href="#m3b6b56e4a7" y="166.020268"/>
     <use style="stroke:#000000;" x="240.341151" xlink:href="#m3b6b56e4a7" y="174.38316"/>
     <use style="stroke:#000000;" x="240.311646" xlink:href="#m3b6b56e4a7" y="168.891038"/>
     <use style="stroke:#000000;" x="243.793084" xlink:href="#m3b6b56e4a7" y="169.472584"/>
     <use style="stroke:#000000;" x="241.032438" xlink:href="#m3b6b56e4a7" y="172.809289"/>
     <use style="stroke:#000000;" x="243.70727" xlink:href="#m3b6b56e4a7" y="169.83554"/>
     <use style="stroke:#000000;" x="240.291528" xlink:href="#m3b6b56e4a7" y="172.891382"/>
     <use style="stroke:#000000;" x="240.61908" xlink:href="#m3b6b56e4a7" y="174.288608"/>
     <use style="stroke:#000000;" x="243.642577" xlink:href="#m3b6b56e4a7" y="168.868111"/>
     <use style="stroke:#000000;" x="240.862896" xlink:href="#m3b6b56e4a7" y="173.810715"/>
     <use style="stroke:#000000;" x="240.865334" xlink:href="#m3b6b56e4a7" y="173.895701"/>
     <use style="stroke:#000000;" x="240.637862" xlink:href="#m3b6b56e4a7" y="174.434146"/>
     <use style="stroke:#000000;" x="243.640614" xlink:href="#m3b6b56e4a7" y="169.898437"/>
     <use style="stroke:#000000;" x="240.669734" xlink:href="#m3b6b56e4a7" y="169.024131"/>
     <use style="stroke:#000000;" x="243.847377" xlink:href="#m3b6b56e4a7" y="170.155115"/>
     <use style="stroke:#000000;" x="236.557144" xlink:href="#m3b6b56e4a7" y="174.504991"/>
     <use style="stroke:#000000;" x="236.581601" xlink:href="#m3b6b56e4a7" y="174.528"/>
     <use style="stroke:#000000;" x="237.598522" xlink:href="#m3b6b56e4a7" y="173.661373"/>
     <use style="stroke:#000000;" x="244.703911" xlink:href="#m3b6b56e4a7" y="174.201212"/>
     <use style="stroke:#000000;" x="242.077957" xlink:href="#m3b6b56e4a7" y="174.528"/>
     <use style="stroke:#000000;" x="244.516786" xlink:href="#m3b6b56e4a7" y="174.121853"/>
     <use style="stroke:#000000;" x="239.01515" xlink:href="#m3b6b56e4a7" y="172.395038"/>
     <use style="stroke:#000000;" x="239.86421" xlink:href="#m3b6b56e4a7" y="171.031324"/>
     <use style="stroke:#000000;" x="239.66084" xlink:href="#m3b6b56e4a7" y="171.308309"/>
     <use style="stroke:#000000;" x="239.741182" xlink:href="#m3b6b56e4a7" y="171.960011"/>
     <use style="stroke:#000000;" x="242.831424" xlink:href="#m3b6b56e4a7" y="171.957106"/>
     <use style="stroke:#000000;" x="242.745739" xlink:href="#m3b6b56e4a7" y="171.20021"/>
     <use style="stroke:#000000;" x="242.237981" xlink:href="#m3b6b56e4a7" y="173.065149"/>
     <use style="stroke:#000000;" x="237.582924" xlink:href="#m3b6b56e4a7" y="174.528"/>
     <use style="stroke:#000000;" x="237.548147" xlink:href="#m3b6b56e4a7" y="174.097131"/>
     <use style="stroke:#000000;" x="237.011162" xlink:href="#m3b6b56e4a7" y="172.803308"/>
     <use style="stroke:#000000;" x="236.782768" xlink:href="#m3b6b56e4a7" y="174.246153"/>
     <use style="stroke:#000000;" x="236.612755" xlink:href="#m3b6b56e4a7" y="174.528"/>
     <use style="stroke:#000000;" x="236.239267" xlink:href="#m3b6b56e4a7" y="173.845912"/>
     <use style="stroke:#000000;" x="241.791713" xlink:href="#m3b6b56e4a7" y="174.528"/>
     <use style="stroke:#000000;" x="240.931074" xlink:href="#m3b6b56e4a7" y="174.333364"/>
     <use style="stroke:#000000;" x="240.326773" xlink:href="#m3b6b56e4a7" y="174.528"/>
     <use style="stroke:#000000;" x="237.365863" xlink:href="#m3b6b56e4a7" y="169.831743"/>
     <use style="stroke:#000000;" x="241.973406" xlink:href="#m3b6b56e4a7" y="167.962933"/>
     <use style="stroke:#000000;" x="239.311744" xlink:href="#m3b6b56e4a7" y="169.162417"/>
     <use style="stroke:#000000;" x="237.210006" xlink:href="#m3b6b56e4a7" y="172.317394"/>
     <use style="stroke:#000000;" x="238.315651" xlink:href="#m3b6b56e4a7" y="173.254587"/>
     <use style="stroke:#000000;" x="236.369726" xlink:href="#m3b6b56e4a7" y="172.791063"/>
     <use style="stroke:#000000;" x="243.054" xlink:href="#m3b6b56e4a7" y="174.073772"/>
     <use style="stroke:#000000;" x="241.81087" xlink:href="#m3b6b56e4a7" y="174.224528"/>
     <use style="stroke:#000000;" x="240.042479" xlink:href="#m3b6b56e4a7" y="174.015022"/>
     <use style="stroke:#000000;" x="247.716659" xlink:href="#m3b6b56e4a7" y="168.121635"/>
     <use style="stroke:#000000;" x="246.642848" xlink:href="#m3b6b56e4a7" y="167.60614"/>
     <use style="stroke:#000000;" x="245.820425" xlink:href="#m3b6b56e4a7" y="167.961564"/>
     <use style="stroke:#000000;" x="238.330145" xlink:href="#m3b6b56e4a7" y="174.528"/>
     <use style="stroke:#000000;" x="237.532706" xlink:href="#m3b6b56e4a7" y="173.323896"/>
     <use style="stroke:#000000;" x="237.049456" xlink:href="#m3b6b56e4a7" y="174.528"/>
     <use style="stroke:#000000;" x="236.906127" xlink:href="#m3b6b56e4a7" y="174.443713"/>
     <use style="stroke:#000000;" x="236.16" xlink:href="#m3b6b56e4a7" y="174.528"/>
     <use style="stroke:#000000;" x="237.793865" xlink:href="#m3b6b56e4a7" y="174.528"/>
     <use style="stroke:#000000;" x="236.343975" xlink:href="#m3b6b56e4a7" y="174.451391"/>
     <use style="stroke:#000000;" x="236.424773" xlink:href="#m3b6b56e4a7" y="174.485086"/>
     <use style="stroke:#000000;" x="236.16" xlink:href="#m3b6b56e4a7" y="174.249149"/>
     <use style="stroke:#000000;" x="244.34166" xlink:href="#m3b6b56e4a7" y="169.857825"/>
     <use style="stroke:#000000;" x="242.26676" xlink:href="#m3b6b56e4a7" y="170.816006"/>
     <use style="stroke:#000000;" x="244.388382" xlink:href="#m3b6b56e4a7" y="170.015984"/>
     <use style="stroke:#000000;" x="237.055448" xlink:href="#m3b6b56e4a7" y="173.375097"/>
     <use style="stroke:#000000;" x="236.162869" xlink:href="#m3b6b56e4a7" y="172.64418"/>
     <use style="stroke:#000000;" x="237.142844" xlink:href="#m3b6b56e4a7" y="173.262324"/>
     <use style="stroke:#000000;" x="243.168543" xlink:href="#m3b6b56e4a7" y="172.288463"/>
     <use style="stroke:#000000;" x="244.991231" xlink:href="#m3b6b56e4a7" y="172.037442"/>
     <use style="stroke:#000000;" x="241.850075" xlink:href="#m3b6b56e4a7" y="172.091525"/>
     <use style="stroke:#000000;" x="244.627854" xlink:href="#m3b6b56e4a7" y="170.558928"/>
     <use style="stroke:#000000;" x="243.07856" xlink:href="#m3b6b56e4a7" y="171.521785"/>
     <use style="stroke:#000000;" x="243.379301" xlink:href="#m3b6b56e4a7" y="172.136037"/>
     <use style="stroke:#000000;" x="238.124816" xlink:href="#m3b6b56e4a7" y="169.623666"/>
     <use style="stroke:#000000;" x="238.732871" xlink:href="#m3b6b56e4a7" y="168.908488"/>
     <use style="stroke:#000000;" x="241.296046" xlink:href="#m3b6b56e4a7" y="168.854567"/>
     <use style="stroke:#000000;" x="237.322808" xlink:href="#m3b6b56e4a7" y="172.957857"/>
     <use style="stroke:#000000;" x="236.829058" xlink:href="#m3b6b56e4a7" y="172.562395"/>
     <use style="stroke:#000000;" x="236.16" xlink:href="#m3b6b56e4a7" y="173.054195"/>
     <use style="stroke:#000000;" x="244.427511" xlink:href="#m3b6b56e4a7" y="168.662058"/>
     <use style="stroke:#000000;" x="240.821346" xlink:href="#m3b6b56e4a7" y="169.025011"/>
     <use style="stroke:#000000;" x="245.025115" xlink:href="#m3b6b56e4a7" y="168.156314"/>
     <use style="stroke:#000000;" x="244.481177" xlink:href="#m3b6b56e4a7" y="168.420638"/>
     <use style="stroke:#000000;" x="244.362989" xlink:href="#m3b6b56e4a7" y="168.490077"/>
     <use style="stroke:#000000;" x="248.191171" xlink:href="#m3b6b56e4a7" y="166.559337"/>
     <use style="stroke:#000000;" x="247.402566" xlink:href="#m3b6b56e4a7" y="166.934396"/>
     <use style="stroke:#000000;" x="245.124618" xlink:href="#m3b6b56e4a7" y="170.292851"/>
     <use style="stroke:#000000;" x="243.669002" xlink:href="#m3b6b56e4a7" y="170.779745"/>
     <use style="stroke:#000000;" x="244.43041" xlink:href="#m3b6b56e4a7" y="170.692863"/>
     <use style="stroke:#000000;" x="246.058829" xlink:href="#m3b6b56e4a7" y="170.130879"/>
     <use style="stroke:#000000;" x="246.055329" xlink:href="#m3b6b56e4a7" y="170.483349"/>
     <use style="stroke:#000000;" x="244.548502" xlink:href="#m3b6b56e4a7" y="171.86173"/>
     <use style="stroke:#000000;" x="246.587598" xlink:href="#m3b6b56e4a7" y="166.483012"/>
     <use style="stroke:#000000;" x="247.604505" xlink:href="#m3b6b56e4a7" y="166.49557"/>
     <use style="stroke:#000000;" x="240.670112" xlink:href="#m3b6b56e4a7" y="174.413867"/>
     <use style="stroke:#000000;" x="239.123853" xlink:href="#m3b6b56e4a7" y="174.528"/>
     <use style="stroke:#000000;" x="241.07871" xlink:href="#m3b6b56e4a7" y="174.505908"/>
     <use style="stroke:#000000;" x="242.1236" xlink:href="#m3b6b56e4a7" y="173.082468"/>
     <use style="stroke:#000000;" x="241.847376" xlink:href="#m3b6b56e4a7" y="174.11558"/>
     <use style="stroke:#000000;" x="238.07779" xlink:href="#m3b6b56e4a7" y="174.528"/>
     <use style="stroke:#000000;" x="237.546144" xlink:href="#m3b6b56e4a7" y="172.273605"/>
     <use style="stroke:#000000;" x="240.346067" xlink:href="#m3b6b56e4a7" y="172.842458"/>
     <use style="stroke:#000000;" x="239.909057" xlink:href="#m3b6b56e4a7" y="174.528"/>
     <use style="stroke:#000000;" x="239.252648" xlink:href="#m3b6b56e4a7" y="174.367062"/>
     <use style="stroke:#000000;" x="240.668085" xlink:href="#m3b6b56e4a7" y="173.68076"/>
     <use style="stroke:#000000;" x="238.837535" xlink:href="#m3b6b56e4a7" y="171.82215"/>
     <use style="stroke:#000000;" x="244.801393" xlink:href="#m3b6b56e4a7" y="170.724173"/>
     <use style="stroke:#000000;" x="245.005255" xlink:href="#m3b6b56e4a7" y="169.805705"/>
     <use style="stroke:#000000;" x="241.436984" xlink:href="#m3b6b56e4a7" y="172.921418"/>
     <use style="stroke:#000000;" x="239.524969" xlink:href="#m3b6b56e4a7" y="172.570475"/>
     <use style="stroke:#000000;" x="241.989756" xlink:href="#m3b6b56e4a7" y="174.528"/>
     <use style="stroke:#000000;" x="240.803936" xlink:href="#m3b6b56e4a7" y="174.528"/>
     <use style="stroke:#000000;" x="240.245351" xlink:href="#m3b6b56e4a7" y="173.257029"/>
     <use style="stroke:#000000;" x="240.649969" xlink:href="#m3b6b56e4a7" y="172.277558"/>
     <use style="stroke:#000000;" x="239.196556" xlink:href="#m3b6b56e4a7" y="174.528"/>
     <use style="stroke:#000000;" x="239.305694" xlink:href="#m3b6b56e4a7" y="173.786141"/>
     <use style="stroke:#000000;" x="240.896989" xlink:href="#m3b6b56e4a7" y="174.528"/>
     <use style="stroke:#000000;" x="240.179239" xlink:href="#m3b6b56e4a7" y="174.164482"/>
     <use style="stroke:#000000;" x="240.453355" xlink:href="#m3b6b56e4a7" y="173.329361"/>
     <use style="stroke:#000000;" x="236.16" xlink:href="#m3b6b56e4a7" y="172.568652"/>
     <use style="stroke:#000000;" x="236.48869" xlink:href="#m3b6b56e4a7" y="173.116492"/>
     <use style="stroke:#000000;" x="240.332453" xlink:href="#m3b6b56e4a7" y="173.467472"/>
     <use style="stroke:#000000;" x="240.720562" xlink:href="#m3b6b56e4a7" y="174.528"/>
     <use style="stroke:#000000;" x="241.603934" xlink:href="#m3b6b56e4a7" y="174.295569"/>
     <use style="stroke:#000000;" x="241.352792" xlink:href="#m3b6b56e4a7" y="174.528"/>
     <use style="stroke:#000000;" x="236.16" xlink:href="#m3b6b56e4a7" y="168.87355"/>
     <use style="stroke:#000000;" x="237.794996" xlink:href="#m3b6b56e4a7" y="170.551695"/>
     <use style="stroke:#000000;" x="245.770849" xlink:href="#m3b6b56e4a7" y="171.513002"/>
     <use style="stroke:#000000;" x="243.106535" xlink:href="#m3b6b56e4a7" y="170.195672"/>
     <use style="stroke:#000000;" x="243.15937" xlink:href="#m3b6b56e4a7" y="170.357218"/>
     <use style="stroke:#000000;" x="236.361316" xlink:href="#m3b6b56e4a7" y="173.219736"/>
     <use style="stroke:#000000;" x="238.176346" xlink:href="#m3b6b56e4a7" y="172.565797"/>
     <use style="stroke:#000000;" x="236.312538" xlink:href="#m3b6b56e4a7" y="174.085156"/>
     <use style="stroke:#000000;" x="237.800392" xlink:href="#m3b6b56e4a7" y="174.528"/>
     <use style="stroke:#000000;" x="237.622155" xlink:href="#m3b6b56e4a7" y="173.079601"/>
     <use style="stroke:#000000;" x="236.16" xlink:href="#m3b6b56e4a7" y="174.528"/>
     <use style="stroke:#000000;" x="238.172943" xlink:href="#m3b6b56e4a7" y="174.528"/>
     <use style="stroke:#000000;" x="236.674044" xlink:href="#m3b6b56e4a7" y="172.846252"/>
     <use style="stroke:#000000;" x="236.435482" xlink:href="#m3b6b56e4a7" y="173.786719"/>
     <use style="stroke:#000000;" x="244.920752" xlink:href="#m3b6b56e4a7" y="171.092969"/>
     <use style="stroke:#000000;" x="242.42325" xlink:href="#m3b6b56e4a7" y="168.997255"/>
     <use style="stroke:#000000;" x="243.461911" xlink:href="#m3b6b56e4a7" y="170.978409"/>
     <use style="stroke:#000000;" x="236.44134" xlink:href="#m3b6b56e4a7" y="173.338498"/>
     <use style="stroke:#000000;" x="236.16" xlink:href="#m3b6b56e4a7" y="174.528"/>
     <use style="stroke:#000000;" x="237.093459" xlink:href="#m3b6b56e4a7" y="174.528"/>
     <use style="stroke:#000000;" x="237.396276" xlink:href="#m3b6b56e4a7" y="173.43596"/>
     <use style="stroke:#000000;" x="238.380243" xlink:href="#m3b6b56e4a7" y="172.855857"/>
     <use style="stroke:#000000;" x="244.259991" xlink:href="#m3b6b56e4a7" y="168.191689"/>
     <use style="stroke:#000000;" x="243.351166" xlink:href="#m3b6b56e4a7" y="168.187332"/>
     <use style="stroke:#000000;" x="236.16" xlink:href="#m3b6b56e4a7" y="172.391947"/>
     <use style="stroke:#000000;" x="236.16" xlink:href="#m3b6b56e4a7" y="173.329051"/>
     <use style="stroke:#000000;" x="245.91832" xlink:href="#m3b6b56e4a7" y="168.448464"/>
     <use style="stroke:#000000;" x="243.938966" xlink:href="#m3b6b56e4a7" y="169.881513"/>
     <use style="stroke:#000000;" x="243.453598" xlink:href="#m3b6b56e4a7" y="169.831495"/>
     <use style="stroke:#000000;" x="247.861143" xlink:href="#m3b6b56e4a7" y="174.048113"/>
     <use style="stroke:#000000;" x="243.781805" xlink:href="#m3b6b56e4a7" y="170.170087"/>
     <use style="stroke:#000000;" x="246.831845" xlink:href="#m3b6b56e4a7" y="167.534585"/>
     <use style="stroke:#000000;" x="244.562201" xlink:href="#m3b6b56e4a7" y="171.288747"/>
     <use style="stroke:#000000;" x="248.626418" xlink:href="#m3b6b56e4a7" y="166.086949"/>
     <use style="stroke:#000000;" x="239.49892" xlink:href="#m3b6b56e4a7" y="173.231651"/>
     <use style="stroke:#000000;" x="244.545298" xlink:href="#m3b6b56e4a7" y="169.8082"/>
     <use style="stroke:#000000;" x="252.75019" xlink:href="#m3b6b56e4a7" y="173.2612"/>
     <use style="stroke:#000000;" x="236.16" xlink:href="#m3b6b56e4a7" y="173.43803"/>
     <use style="stroke:#000000;" x="247.781295" xlink:href="#m3b6b56e4a7" y="163.880223"/>
     <use style="stroke:#000000;" x="247.401454" xlink:href="#m3b6b56e4a7" y="165.360606"/>
     <use style="stroke:#000000;" x="238.343679" xlink:href="#m3b6b56e4a7" y="174.528"/>
     <use style="stroke:#000000;" x="239.04198" xlink:href="#m3b6b56e4a7" y="167.762006"/>
     <use style="stroke:#000000;" x="243.256354" xlink:href="#m3b6b56e4a7" y="167.780906"/>
     <use style="stroke:#000000;" x="242.871051" xlink:href="#m3b6b56e4a7" y="172.851748"/>
     <use style="stroke:#000000;" x="243.57273" xlink:href="#m3b6b56e4a7" y="170.362963"/>
     <use style="stroke:#000000;" x="240.996611" xlink:href="#m3b6b56e4a7" y="171.749327"/>
     <use style="stroke:#000000;" x="239.554363" xlink:href="#m3b6b56e4a7" y="174.528"/>
     <use style="stroke:#000000;" x="244.534586" xlink:href="#m3b6b56e4a7" y="168.093638"/>
     <use style="stroke:#000000;" x="241.934643" xlink:href="#m3b6b56e4a7" y="174.528"/>
     <use style="stroke:#000000;" x="240.073977" xlink:href="#m3b6b56e4a7" y="173.798369"/>
     <use style="stroke:#000000;" x="240.959071" xlink:href="#m3b6b56e4a7" y="174.528"/>
     <use style="stroke:#000000;" x="243.959247" xlink:href="#m3b6b56e4a7" y="169.493516"/>
     <use style="stroke:#000000;" x="239.365182" xlink:href="#m3b6b56e4a7" y="167.92553"/>
     <use style="stroke:#000000;" x="242.960304" xlink:href="#m3b6b56e4a7" y="170.037481"/>
     <use style="stroke:#000000;" x="236.16" xlink:href="#m3b6b56e4a7" y="174.528"/>
     <use style="stroke:#000000;" x="236.16" xlink:href="#m3b6b56e4a7" y="174.528"/>
     <use style="stroke:#000000;" x="236.532143" xlink:href="#m3b6b56e4a7" y="173.715256"/>
    </g>
   </g>
   <g id="PathCollection_2">
    <defs>
     <path d="M 0 0.935414 
C 0.248075 0.935414 0.486022 0.836853 0.661438 0.661438 
C 0.836853 0.486022 0.935414 0.248075 0.935414 0 
C 0.935414 -0.248075 0.836853 -0.486022 0.661438 -0.661438 
C 0.486022 -0.836853 0.248075 -0.935414 0 -0.935414 
C -0.248075 -0.935414 -0.486022 -0.836853 -0.661438 -0.661438 
C -0.836853 -0.486022 -0.935414 -0.248075 -0.935414 0 
C -0.935414 0.248075 -0.836853 0.486022 -0.661438 0.661438 
C -0.486022 0.836853 -0.248075 0.935414 0 0.935414 
z
" id="m5b7f5d3511" style="stroke:#0000ff;"/>
    </defs>
    <g clip-path="url(#pd017a765e0)">
     <use style="fill:#0000ff;stroke:#0000ff;" x="244.233276" xlink:href="#m5b7f5d3511" y="174.528"/>
     <use style="fill:#0000ff;stroke:#0000ff;" x="239.792765" xlink:href="#m5b7f5d3511" y="171.883821"/>
     <use style="fill:#0000ff;stroke:#0000ff;" x="243.893697" xlink:href="#m5b7f5d3511" y="171.335819"/>
     <use style="fill:#0000ff;stroke:#0000ff;" x="237.191091" xlink:href="#m5b7f5d3511" y="174.528"/>
     <use style="fill:#0000ff;stroke:#0000ff;" x="236.273422" xlink:href="#m5b7f5d3511" y="174.528"/>
     <use style="fill:#0000ff;stroke:#0000ff;" x="240.559753" xlink:href="#m5b7f5d3511" y="174.528"/>
     <use style="fill:#0000ff;stroke:#0000ff;" x="239.75202" xlink:href="#m5b7f5d3511" y="169.187153"/>
     <use style="fill:#0000ff;stroke:#0000ff;" x="236.637196" xlink:href="#m5b7f5d3511" y="173.002799"/>
     <use style="fill:#0000ff;stroke:#0000ff;" x="240.22867" xlink:href="#m5b7f5d3511" y="174.528"/>
     <use style="fill:#0000ff;stroke:#0000ff;" x="247.789073" xlink:href="#m5b7f5d3511" y="167.059614"/>
     <use style="fill:#0000ff;stroke:#0000ff;" x="237.435066" xlink:href="#m5b7f5d3511" y="174.181263"/>
     <use style="fill:#0000ff;stroke:#0000ff;" x="236.424479" xlink:href="#m5b7f5d3511" y="174.528"/>
     <use style="fill:#0000ff;stroke:#0000ff;" x="236.16" xlink:href="#m5b7f5d3511" y="174.528"/>
     <use style="fill:#0000ff;stroke:#0000ff;" x="244.158752" xlink:href="#m5b7f5d3511" y="169.984482"/>
     <use style="fill:#0000ff;stroke:#0000ff;" x="236.640771" xlink:href="#m5b7f5d3511" y="174.038269"/>
     <use style="fill:#0000ff;stroke:#0000ff;" x="243.99711" xlink:href="#m5b7f5d3511" y="171.719437"/>
     <use style="fill:#0000ff;stroke:#0000ff;" x="243.824543" xlink:href="#m5b7f5d3511" y="171.304442"/>
     <use style="fill:#0000ff;stroke:#0000ff;" x="240.1483" xlink:href="#m5b7f5d3511" y="169.342907"/>
     <use style="fill:#0000ff;stroke:#0000ff;" x="237.033391" xlink:href="#m5b7f5d3511" y="173.56916"/>
     <use style="fill:#0000ff;stroke:#0000ff;" x="244.252775" xlink:href="#m5b7f5d3511" y="168.283103"/>
     <use style="fill:#0000ff;stroke:#0000ff;" x="244.119578" xlink:href="#m5b7f5d3511" y="168.636072"/>
     <use style="fill:#0000ff;stroke:#0000ff;" x="247.482411" xlink:href="#m5b7f5d3511" y="166.966036"/>
     <use style="fill:#0000ff;stroke:#0000ff;" x="244.296995" xlink:href="#m5b7f5d3511" y="170.493002"/>
     <use style="fill:#0000ff;stroke:#0000ff;" x="244.279387" xlink:href="#m5b7f5d3511" y="171.051138"/>
     <use style="fill:#0000ff;stroke:#0000ff;" x="244.309493" xlink:href="#m5b7f5d3511" y="170.841242"/>
     <use style="fill:#0000ff;stroke:#0000ff;" x="247.657095" xlink:href="#m5b7f5d3511" y="166.368295"/>
     <use style="fill:#0000ff;stroke:#0000ff;" x="239.937219" xlink:href="#m5b7f5d3511" y="173.717708"/>
     <use style="fill:#0000ff;stroke:#0000ff;" x="240.044662" xlink:href="#m5b7f5d3511" y="173.64643"/>
     <use style="fill:#0000ff;stroke:#0000ff;" x="240.506798" xlink:href="#m5b7f5d3511" y="173.746589"/>
     <use style="fill:#0000ff;stroke:#0000ff;" x="240.021422" xlink:href="#m5b7f5d3511" y="173.570554"/>
     <use style="fill:#0000ff;stroke:#0000ff;" x="240.269314" xlink:href="#m5b7f5d3511" y="172.510561"/>
     <use style="fill:#0000ff;stroke:#0000ff;" x="243.793952" xlink:href="#m5b7f5d3511" y="171.319913"/>
     <use style="fill:#0000ff;stroke:#0000ff;" x="240.495717" xlink:href="#m5b7f5d3511" y="173.706591"/>
     <use style="fill:#0000ff;stroke:#0000ff;" x="240.735019" xlink:href="#m5b7f5d3511" y="174.528"/>
     <use style="fill:#0000ff;stroke:#0000ff;" x="240.792952" xlink:href="#m5b7f5d3511" y="173.318933"/>
     <use style="fill:#0000ff;stroke:#0000ff;" x="240.047003" xlink:href="#m5b7f5d3511" y="174.134813"/>
     <use style="fill:#0000ff;stroke:#0000ff;" x="240.269715" xlink:href="#m5b7f5d3511" y="173.615368"/>
     <use style="fill:#0000ff;stroke:#0000ff;" x="236.362051" xlink:href="#m5b7f5d3511" y="173.451872"/>
     <use style="fill:#0000ff;stroke:#0000ff;" x="240.638683" xlink:href="#m5b7f5d3511" y="174.264059"/>
     <use style="fill:#0000ff;stroke:#0000ff;" x="240.887797" xlink:href="#m5b7f5d3511" y="174.528"/>
     <use style="fill:#0000ff;stroke:#0000ff;" x="237.369275" xlink:href="#m5b7f5d3511" y="169.879356"/>
     <use style="fill:#0000ff;stroke:#0000ff;" x="244.022395" xlink:href="#m5b7f5d3511" y="170.187275"/>
     <use style="fill:#0000ff;stroke:#0000ff;" x="236.744164" xlink:href="#m5b7f5d3511" y="173.029943"/>
     <use style="fill:#0000ff;stroke:#0000ff;" x="237.511996" xlink:href="#m5b7f5d3511" y="174.528"/>
     <use style="fill:#0000ff;stroke:#0000ff;" x="237.003602" xlink:href="#m5b7f5d3511" y="174.276408"/>
     <use style="fill:#0000ff;stroke:#0000ff;" x="236.656288" xlink:href="#m5b7f5d3511" y="173.427841"/>
     <use style="fill:#0000ff;stroke:#0000ff;" x="244.153709" xlink:href="#m5b7f5d3511" y="170.473025"/>
     <use style="fill:#0000ff;stroke:#0000ff;" x="236.16" xlink:href="#m5b7f5d3511" y="174.528"/>
     <use style="fill:#0000ff;stroke:#0000ff;" x="239.131453" xlink:href="#m5b7f5d3511" y="173.085527"/>
     <use style="fill:#0000ff;stroke:#0000ff;" x="244.100928" xlink:href="#m5b7f5d3511" y="168.981575"/>
     <use style="fill:#0000ff;stroke:#0000ff;" x="236.548681" xlink:href="#m5b7f5d3511" y="172.7995"/>
     <use style="fill:#0000ff;stroke:#0000ff;" x="247.499818" xlink:href="#m5b7f5d3511" y="166.989425"/>
     <use style="fill:#0000ff;stroke:#0000ff;" x="244.213249" xlink:href="#m5b7f5d3511" y="169.777436"/>
     <use style="fill:#0000ff;stroke:#0000ff;" x="247.57512" xlink:href="#m5b7f5d3511" y="173.491494"/>
     <use style="fill:#0000ff;stroke:#0000ff;" x="244.28551" xlink:href="#m5b7f5d3511" y="169.110915"/>
     <use style="fill:#0000ff;stroke:#0000ff;" x="247.614506" xlink:href="#m5b7f5d3511" y="168.196465"/>
     <use style="fill:#0000ff;stroke:#0000ff;" x="244.320099" xlink:href="#m5b7f5d3511" y="170.222978"/>
     <use style="fill:#0000ff;stroke:#0000ff;" x="247.3838" xlink:href="#m5b7f5d3511" y="166.823475"/>
     <use style="fill:#0000ff;stroke:#0000ff;" x="240.184816" xlink:href="#m5b7f5d3511" y="174.528"/>
     <use style="fill:#0000ff;stroke:#0000ff;" x="244.312925" xlink:href="#m5b7f5d3511" y="171.276256"/>
     <use style="fill:#0000ff;stroke:#0000ff;" x="251.353962" xlink:href="#m5b7f5d3511" y="173.341596"/>
     <use style="fill:#0000ff;stroke:#0000ff;" x="236.465571" xlink:href="#m5b7f5d3511" y="172.99053"/>
     <use style="fill:#0000ff;stroke:#0000ff;" x="247.363601" xlink:href="#m5b7f5d3511" y="166.020268"/>
     <use style="fill:#0000ff;stroke:#0000ff;" x="240.341151" xlink:href="#m5b7f5d3511" y="174.38316"/>
     <use style="fill:#0000ff;stroke:#0000ff;" x="240.311646" xlink:href="#m5b7f5d3511" y="168.891038"/>
     <use style="fill:#0000ff;stroke:#0000ff;" x="243.793084" xlink:href="#m5b7f5d3511" y="169.472584"/>
     <use style="fill:#0000ff;stroke:#0000ff;" x="241.032438" xlink:href="#m5b7f5d3511" y="172.809289"/>
     <use style="fill:#0000ff;stroke:#0000ff;" x="243.70727" xlink:href="#m5b7f5d3511" y="169.83554"/>
     <use style="fill:#0000ff;stroke:#0000ff;" x="240.291528" xlink:href="#m5b7f5d3511" y="172.891382"/>
     <use style="fill:#0000ff;stroke:#0000ff;" x="240.61908" xlink:href="#m5b7f5d3511" y="174.288608"/>
     <use style="fill:#0000ff;stroke:#0000ff;" x="243.642577" xlink:href="#m5b7f5d3511" y="168.868111"/>
     <use style="fill:#0000ff;stroke:#0000ff;" x="240.862896" xlink:href="#m5b7f5d3511" y="173.810715"/>
     <use style="fill:#0000ff;stroke:#0000ff;" x="240.865334" xlink:href="#m5b7f5d3511" y="173.895701"/>
     <use style="fill:#0000ff;stroke:#0000ff;" x="240.637862" xlink:href="#m5b7f5d3511" y="174.434146"/>
     <use style="fill:#0000ff;stroke:#0000ff;" x="243.640614" xlink:href="#m5b7f5d3511" y="169.898437"/>
     <use style="fill:#0000ff;stroke:#0000ff;" x="240.669734" xlink:href="#m5b7f5d3511" y="169.024131"/>
     <use style="fill:#0000ff;stroke:#0000ff;" x="243.847377" xlink:href="#m5b7f5d3511" y="170.155115"/>
     <use style="fill:#0000ff;stroke:#0000ff;" x="236.557144" xlink:href="#m5b7f5d3511" y="174.504991"/>
     <use style="fill:#0000ff;stroke:#0000ff;" x="236.581601" xlink:href="#m5b7f5d3511" y="174.528"/>
     <use style="fill:#0000ff;stroke:#0000ff;" x="237.598522" xlink:href="#m5b7f5d3511" y="173.661373"/>
    </g>
   </g>
   <g id="matplotlib.axis_1">
    <g id="xtick_1">
     <g id="line2d_1">
      <defs>
       <path d="M 0 0 
L 0 3.5 
" id="m3ac05edbfc" style="stroke:#000000;stroke-width:0.8;"/>
      </defs>
      <g>
       <use style="stroke:#000000;stroke-width:0.8;" x="57.6" xlink:href="#m3ac05edbfc" y="307.584"/>
      </g>
     </g>
     <g id="text_1">
      <!-- −10.0 -->
      <defs>
       <path d="M 10.59375 35.5 
L 73.1875 35.5 
L 73.1875 27.203125 
L 10.59375 27.203125 
z
" id="DejaVuSans-2212"/>
       <path d="M 12.40625 8.296875 
L 28.515625 8.296875 
L 28.515625 63.921875 
L 10.984375 60.40625 
L 10.984375 69.390625 
L 28.421875 72.90625 
L 38.28125 72.90625 
L 38.28125 8.296875 
L 54.390625 8.296875 
L 54.390625 0 
L 12.40625 0 
z
" id="DejaVuSans-31"/>
       <path d="M 31.78125 66.40625 
Q 24.171875 66.40625 20.328125 58.90625 
Q 16.5 51.421875 16.5 36.375 
Q 16.5 21.390625 20.328125 13.890625 
Q 24.171875 6.390625 31.78125 6.390625 
Q 39.453125 6.390625 43.28125 13.890625 
Q 47.125 21.390625 47.125 36.375 
Q 47.125 51.421875 43.28125 58.90625 
Q 39.453125 66.40625 31.78125 66.40625 
z
M 31.78125 74.21875 
Q 44.046875 74.21875 50.515625 64.515625 
Q 56.984375 54.828125 56.984375 36.375 
Q 56.984375 17.96875 50.515625 8.265625 
Q 44.046875 -1.421875 31.78125 -1.421875 
Q 19.53125 -1.421875 13.0625 8.265625 
Q 6.59375 17.96875 6.59375 36.375 
Q 6.59375 54.828125 13.0625 64.515625 
Q 19.53125 74.21875 31.78125 74.21875 
z
" id="DejaVuSans-30"/>
       <path d="M 10.6875 12.40625 
L 21 12.40625 
L 21 0 
L 10.6875 0 
z
" id="DejaVuSans-2e"/>
      </defs>
      <g transform="translate(42.277344 322.182437)scale(0.1 -0.1)">
       <use xlink:href="#DejaVuSans-2212"/>
       <use x="83.789062" xlink:href="#DejaVuSans-31"/>
       <use x="147.412109" xlink:href="#DejaVuSans-30"/>
       <use x="211.035156" xlink:href="#DejaVuSans-2e"/>
       <use x="242.822266" xlink:href="#DejaVuSans-30"/>
      </g>
     </g>
    </g>
    <g id="xtick_2">
     <g id="line2d_2">
      <g>
       <use style="stroke:#000000;stroke-width:0.8;" x="102.24" xlink:href="#m3ac05edbfc" y="307.584"/>
      </g>
     </g>
     <g id="text_2">
      <!-- −7.5 -->
      <defs>
       <path d="M 8.203125 72.90625 
L 55.078125 72.90625 
L 55.078125 68.703125 
L 28.609375 0 
L 18.3125 0 
L 43.21875 64.59375 
L 8.203125 64.59375 
z
" id="DejaVuSans-37"/>
       <path d="M 10.796875 72.90625 
L 49.515625 72.90625 
L 49.515625 64.59375 
L 19.828125 64.59375 
L 19.828125 46.734375 
Q 21.96875 47.46875 24.109375 47.828125 
Q 26.265625 48.1875 28.421875 48.1875 
Q 40.625 48.1875 47.75 41.5 
Q 54.890625 34.8125 54.890625 23.390625 
Q 54.890625 11.625 47.5625 5.09375 
Q 40.234375 -1.421875 26.90625 -1.421875 
Q 22.3125 -1.421875 17.546875 -0.640625 
Q 12.796875 0.140625 7.71875 1.703125 
L 7.71875 11.625 
Q 12.109375 9.234375 16.796875 8.0625 
Q 21.484375 6.890625 26.703125 6.890625 
Q 35.15625 6.890625 40.078125 11.328125 
Q 45.015625 15.765625 45.015625 23.390625 
Q 45.015625 31 40.078125 35.4375 
Q 35.15625 39.890625 26.703125 39.890625 
Q 22.75 39.890625 18.8125 39.015625 
Q 14.890625 38.140625 10.796875 36.28125 
z
" id="DejaVuSans-35"/>
      </defs>
      <g transform="translate(90.098594 322.182437)scale(0.1 -0.1)">
       <use xlink:href="#DejaVuSans-2212"/>
       <use x="83.789062" xlink:href="#DejaVuSans-37"/>
       <use x="147.412109" xlink:href="#DejaVuSans-2e"/>
       <use x="179.199219" xlink:href="#DejaVuSans-35"/>
      </g>
     </g>
    </g>
    <g id="xtick_3">
     <g id="line2d_3">
      <g>
       <use style="stroke:#000000;stroke-width:0.8;" x="146.88" xlink:href="#m3ac05edbfc" y="307.584"/>
      </g>
     </g>
     <g id="text_3">
      <!-- −5.0 -->
      <g transform="translate(134.738594 322.182437)scale(0.1 -0.1)">
       <use xlink:href="#DejaVuSans-2212"/>
       <use x="83.789062" xlink:href="#DejaVuSans-35"/>
       <use x="147.412109" xlink:href="#DejaVuSans-2e"/>
       <use x="179.199219" xlink:href="#DejaVuSans-30"/>
      </g>
     </g>
    </g>
    <g id="xtick_4">
     <g id="line2d_4">
      <g>
       <use style="stroke:#000000;stroke-width:0.8;" x="191.52" xlink:href="#m3ac05edbfc" y="307.584"/>
      </g>
     </g>
     <g id="text_4">
      <!-- −2.5 -->
      <defs>
       <path d="M 19.1875 8.296875 
L 53.609375 8.296875 
L 53.609375 0 
L 7.328125 0 
L 7.328125 8.296875 
Q 12.9375 14.109375 22.625 23.890625 
Q 32.328125 33.6875 34.8125 36.53125 
Q 39.546875 41.84375 41.421875 45.53125 
Q 43.3125 49.21875 43.3125 52.78125 
Q 43.3125 58.59375 39.234375 62.25 
Q 35.15625 65.921875 28.609375 65.921875 
Q 23.96875 65.921875 18.8125 64.3125 
Q 13.671875 62.703125 7.8125 59.421875 
L 7.8125 69.390625 
Q 13.765625 71.78125 18.9375 73 
Q 24.125 74.21875 28.421875 74.21875 
Q 39.75 74.21875 46.484375 68.546875 
Q 53.21875 62.890625 53.21875 53.421875 
Q 53.21875 48.921875 51.53125 44.890625 
Q 49.859375 40.875 45.40625 35.40625 
Q 44.1875 33.984375 37.640625 27.21875 
Q 31.109375 20.453125 19.1875 8.296875 
z
" id="DejaVuSans-32"/>
      </defs>
      <g transform="translate(179.378594 322.182437)scale(0.1 -0.1)">
       <use xlink:href="#DejaVuSans-2212"/>
       <use x="83.789062" xlink:href="#DejaVuSans-32"/>
       <use x="147.412109" xlink:href="#DejaVuSans-2e"/>
       <use x="179.199219" xlink:href="#DejaVuSans-35"/>
      </g>
     </g>
    </g>
    <g id="xtick_5">
     <g id="line2d_5">
      <g>
       <use style="stroke:#000000;stroke-width:0.8;" x="236.16" xlink:href="#m3ac05edbfc" y="307.584"/>
      </g>
     </g>
     <g id="text_5">
      <!-- 0.0 -->
      <g transform="translate(228.208438 322.182437)scale(0.1 -0.1)">
       <use xlink:href="#DejaVuSans-30"/>
       <use x="63.623047" xlink:href="#DejaVuSans-2e"/>
       <use x="95.410156" xlink:href="#DejaVuSans-30"/>
      </g>
     </g>
    </g>
    <g id="xtick_6">
     <g id="line2d_6">
      <g>
       <use style="stroke:#000000;stroke-width:0.8;" x="280.8" xlink:href="#m3ac05edbfc" y="307.584"/>
      </g>
     </g>
     <g id="text_6">
      <!-- 2.5 -->
      <g transform="translate(272.848437 322.182437)scale(0.1 -0.1)">
       <use xlink:href="#DejaVuSans-32"/>
       <use x="63.623047" xlink:href="#DejaVuSans-2e"/>
       <use x="95.410156" xlink:href="#DejaVuSans-35"/>
      </g>
     </g>
    </g>
    <g id="xtick_7">
     <g id="line2d_7">
      <g>
       <use style="stroke:#000000;stroke-width:0.8;" x="325.44" xlink:href="#m3ac05edbfc" y="307.584"/>
      </g>
     </g>
     <g id="text_7">
      <!-- 5.0 -->
      <g transform="translate(317.488437 322.182437)scale(0.1 -0.1)">
       <use xlink:href="#DejaVuSans-35"/>
       <use x="63.623047" xlink:href="#DejaVuSans-2e"/>
       <use x="95.410156" xlink:href="#DejaVuSans-30"/>
      </g>
     </g>
    </g>
    <g id="xtick_8">
     <g id="line2d_8">
      <g>
       <use style="stroke:#000000;stroke-width:0.8;" x="370.08" xlink:href="#m3ac05edbfc" y="307.584"/>
      </g>
     </g>
     <g id="text_8">
      <!-- 7.5 -->
      <g transform="translate(362.128438 322.182437)scale(0.1 -0.1)">
       <use xlink:href="#DejaVuSans-37"/>
       <use x="63.623047" xlink:href="#DejaVuSans-2e"/>
       <use x="95.410156" xlink:href="#DejaVuSans-35"/>
      </g>
     </g>
    </g>
    <g id="xtick_9">
     <g id="line2d_9">
      <g>
       <use style="stroke:#000000;stroke-width:0.8;" x="414.72" xlink:href="#m3ac05edbfc" y="307.584"/>
      </g>
     </g>
     <g id="text_9">
      <!-- 10.0 -->
      <g transform="translate(403.587188 322.182437)scale(0.1 -0.1)">
       <use xlink:href="#DejaVuSans-31"/>
       <use x="63.623047" xlink:href="#DejaVuSans-30"/>
       <use x="127.246094" xlink:href="#DejaVuSans-2e"/>
       <use x="159.033203" xlink:href="#DejaVuSans-30"/>
      </g>
     </g>
    </g>
   </g>
   <g id="matplotlib.axis_2">
    <g id="ytick_1">
     <g id="line2d_10">
      <defs>
       <path d="M 0 0 
L -3.5 0 
" id="m1b1e6cff3a" style="stroke:#000000;stroke-width:0.8;"/>
      </defs>
      <g>
       <use style="stroke:#000000;stroke-width:0.8;" x="57.6" xlink:href="#m1b1e6cff3a" y="307.584"/>
      </g>
     </g>
     <g id="text_10">
      <!-- −10.0 -->
      <g transform="translate(19.954687 311.383219)scale(0.1 -0.1)">
       <use xlink:href="#DejaVuSans-2212"/>
       <use x="83.789062" xlink:href="#DejaVuSans-31"/>
       <use x="147.412109" xlink:href="#DejaVuSans-30"/>
       <use x="211.035156" xlink:href="#DejaVuSans-2e"/>
       <use x="242.822266" xlink:href="#DejaVuSans-30"/>
      </g>
     </g>
    </g>
    <g id="ytick_2">
     <g id="line2d_11">
      <g>
       <use style="stroke:#000000;stroke-width:0.8;" x="57.6" xlink:href="#m1b1e6cff3a" y="274.32"/>
      </g>
     </g>
     <g id="text_11">
      <!-- −7.5 -->
      <g transform="translate(26.317187 278.119219)scale(0.1 -0.1)">
       <use xlink:href="#DejaVuSans-2212"/>
       <use x="83.789062" xlink:href="#DejaVuSans-37"/>
       <use x="147.412109" xlink:href="#DejaVuSans-2e"/>
       <use x="179.199219" xlink:href="#DejaVuSans-35"/>
      </g>
     </g>
    </g>
    <g id="ytick_3">
     <g id="line2d_12">
      <g>
       <use style="stroke:#000000;stroke-width:0.8;" x="57.6" xlink:href="#m1b1e6cff3a" y="241.056"/>
      </g>
     </g>
     <g id="text_12">
      <!-- −5.0 -->
      <g transform="translate(26.317187 244.855219)scale(0.1 -0.1)">
       <use xlink:href="#DejaVuSans-2212"/>
       <use x="83.789062" xlink:href="#DejaVuSans-35"/>
       <use x="147.412109" xlink:href="#DejaVuSans-2e"/>
       <use x="179.199219" xlink:href="#DejaVuSans-30"/>
      </g>
     </g>
    </g>
    <g id="ytick_4">
     <g id="line2d_13">
      <g>
       <use style="stroke:#000000;stroke-width:0.8;" x="57.6" xlink:href="#m1b1e6cff3a" y="207.792"/>
      </g>
     </g>
     <g id="text_13">
      <!-- −2.5 -->
      <g transform="translate(26.317187 211.591219)scale(0.1 -0.1)">
       <use xlink:href="#DejaVuSans-2212"/>
       <use x="83.789062" xlink:href="#DejaVuSans-32"/>
       <use x="147.412109" xlink:href="#DejaVuSans-2e"/>
       <use x="179.199219" xlink:href="#DejaVuSans-35"/>
      </g>
     </g>
    </g>
    <g id="ytick_5">
     <g id="line2d_14">
      <g>
       <use style="stroke:#000000;stroke-width:0.8;" x="57.6" xlink:href="#m1b1e6cff3a" y="174.528"/>
      </g>
     </g>
     <g id="text_14">
      <!-- 0.0 -->
      <g transform="translate(34.696875 178.327219)scale(0.1 -0.1)">
       <use xlink:href="#DejaVuSans-30"/>
       <use x="63.623047" xlink:href="#DejaVuSans-2e"/>
       <use x="95.410156" xlink:href="#DejaVuSans-30"/>
      </g>
     </g>
    </g>
    <g id="ytick_6">
     <g id="line2d_15">
      <g>
       <use style="stroke:#000000;stroke-width:0.8;" x="57.6" xlink:href="#m1b1e6cff3a" y="141.264"/>
      </g>
     </g>
     <g id="text_15">
      <!-- 2.5 -->
      <g transform="translate(34.696875 145.063219)scale(0.1 -0.1)">
       <use xlink:href="#DejaVuSans-32"/>
       <use x="63.623047" xlink:href="#DejaVuSans-2e"/>
       <use x="95.410156" xlink:href="#DejaVuSans-35"/>
      </g>
     </g>
    </g>
    <g id="ytick_7">
     <g id="line2d_16">
      <g>
       <use style="stroke:#000000;stroke-width:0.8;" x="57.6" xlink:href="#m1b1e6cff3a" y="108"/>
      </g>
     </g>
     <g id="text_16">
      <!-- 5.0 -->
      <g transform="translate(34.696875 111.799219)scale(0.1 -0.1)">
       <use xlink:href="#DejaVuSans-35"/>
       <use x="63.623047" xlink:href="#DejaVuSans-2e"/>
       <use x="95.410156" xlink:href="#DejaVuSans-30"/>
      </g>
     </g>
    </g>
    <g id="ytick_8">
     <g id="line2d_17">
      <g>
       <use style="stroke:#000000;stroke-width:0.8;" x="57.6" xlink:href="#m1b1e6cff3a" y="74.736"/>
      </g>
     </g>
     <g id="text_17">
      <!-- 7.5 -->
      <g transform="translate(34.696875 78.535219)scale(0.1 -0.1)">
       <use xlink:href="#DejaVuSans-37"/>
       <use x="63.623047" xlink:href="#DejaVuSans-2e"/>
       <use x="95.410156" xlink:href="#DejaVuSans-35"/>
      </g>
     </g>
    </g>
    <g id="ytick_9">
     <g id="line2d_18">
      <g>
       <use style="stroke:#000000;stroke-width:0.8;" x="57.6" xlink:href="#m1b1e6cff3a" y="41.472"/>
      </g>
     </g>
     <g id="text_18">
      <!-- 10.0 -->
      <g transform="translate(28.334375 45.271219)scale(0.1 -0.1)">
       <use xlink:href="#DejaVuSans-31"/>
       <use x="63.623047" xlink:href="#DejaVuSans-30"/>
       <use x="127.246094" xlink:href="#DejaVuSans-2e"/>
       <use x="159.033203" xlink:href="#DejaVuSans-30"/>
      </g>
     </g>
    </g>
   </g>
   <g id="patch_3">
    <path d="M 57.6 307.584 
L 57.6 41.472 
" style="fill:none;stroke:#000000;stroke-linecap:square;stroke-linejoin:miter;stroke-width:0.8;"/>
   </g>
   <g id="patch_4">
    <path d="M 414.72 307.584 
L 414.72 41.472 
" style="fill:none;stroke:#000000;stroke-linecap:square;stroke-linejoin:miter;stroke-width:0.8;"/>
   </g>
   <g id="patch_5">
    <path d="M 57.6 307.584 
L 414.72 307.584 
" style="fill:none;stroke:#000000;stroke-linecap:square;stroke-linejoin:miter;stroke-width:0.8;"/>
   </g>
   <g id="patch_6">
    <path d="M 57.6 41.472 
L 414.72 41.472 
" style="fill:none;stroke:#000000;stroke-linecap:square;stroke-linejoin:miter;stroke-width:0.8;"/>
   </g>
  </g>
 </g>
 <defs>
  <clipPath id="pd017a765e0">
   <rect height="266.112" width="357.12" x="57.6" y="41.472"/>
  </clipPath>
 </defs>
</svg>
