<?xml version="1.0" encoding="utf-8" standalone="no"?>
<!DOCTYPE svg PUBLIC "-//W3C//DTD SVG 1.1//EN"
  "http://www.w3.org/Graphics/SVG/1.1/DTD/svg11.dtd">
<!-- Created with matplotlib (http://matplotlib.org/) -->
<svg height="345.6pt" version="1.1" viewBox="0 0 460.8 345.6" width="460.8pt" xmlns="http://www.w3.org/2000/svg" xmlns:xlink="http://www.w3.org/1999/xlink">
 <defs>
  <style type="text/css">
*{stroke-linecap:butt;stroke-linejoin:round;}
  </style>
 </defs>
 <g id="figure_1">
  <g id="patch_1">
   <path d="M 0 345.6 
L 460.8 345.6 
L 460.8 0 
L 0 0 
z
" style="fill:#ffffff;"/>
  </g>
  <g id="axes_1">
   <g id="patch_2">
    <path d="M 57.6 307.584 
L 414.72 307.584 
L 414.72 41.472 
L 57.6 41.472 
z
" style="fill:#ffffff;"/>
   </g>
   <g id="PathCollection_1">
    <defs>
     <path d="M 0 0.612372 
C 0.162403 0.612372 0.318176 0.547849 0.433013 0.433013 
C 0.547849 0.318176 0.612372 0.162403 0.612372 0 
C 0.612372 -0.162403 0.547849 -0.318176 0.433013 -0.433013 
C 0.318176 -0.547849 0.162403 -0.612372 0 -0.612372 
C -0.162403 -0.612372 -0.318176 -0.547849 -0.433013 -0.433013 
C -0.547849 -0.318176 -0.612372 -0.162403 -0.612372 0 
C -0.612372 0.162403 -0.547849 0.318176 -0.433013 0.433013 
C -0.318176 0.547849 -0.162403 0.612372 0 0.612372 
z
" id="md9cd4a0c2e" style="stroke:#000000;"/>
    </defs>
    <g clip-path="url(#p798ee9a974)">
     <use style="stroke:#000000;" x="240.471912" xlink:href="#md9cd4a0c2e" y="174.528"/>
     <use style="stroke:#000000;" x="236.366317" xlink:href="#md9cd4a0c2e" y="174.528"/>
     <use style="stroke:#000000;" x="239.772565" xlink:href="#md9cd4a0c2e" y="174.438703"/>
     <use style="stroke:#000000;" x="237.180473" xlink:href="#md9cd4a0c2e" y="172.622211"/>
     <use style="stroke:#000000;" x="240.315433" xlink:href="#md9cd4a0c2e" y="174.013145"/>
     <use style="stroke:#000000;" x="239.683552" xlink:href="#md9cd4a0c2e" y="173.43054"/>
     <use style="stroke:#000000;" x="236.976888" xlink:href="#md9cd4a0c2e" y="173.562749"/>
     <use style="stroke:#000000;" x="237.253743" xlink:href="#md9cd4a0c2e" y="173.414107"/>
     <use style="stroke:#000000;" x="243.795207" xlink:href="#md9cd4a0c2e" y="173.467031"/>
     <use style="stroke:#000000;" x="239.803686" xlink:href="#md9cd4a0c2e" y="174.528"/>
     <use style="stroke:#000000;" x="236.599136" xlink:href="#md9cd4a0c2e" y="174.528"/>
     <use style="stroke:#000000;" x="247.748076" xlink:href="#md9cd4a0c2e" y="174.528"/>
     <use style="stroke:#000000;" x="236.452014" xlink:href="#md9cd4a0c2e" y="173.559369"/>
     <use style="stroke:#000000;" x="247.59296" xlink:href="#md9cd4a0c2e" y="173.945406"/>
     <use style="stroke:#000000;" x="239.871901" xlink:href="#md9cd4a0c2e" y="173.621915"/>
     <use style="stroke:#000000;" x="240.441258" xlink:href="#md9cd4a0c2e" y="173.803987"/>
     <use style="stroke:#000000;" x="247.598386" xlink:href="#md9cd4a0c2e" y="174.528"/>
     <use style="stroke:#000000;" x="236.978632" xlink:href="#md9cd4a0c2e" y="174.528"/>
     <use style="stroke:#000000;" x="247.355587" xlink:href="#md9cd4a0c2e" y="174.528"/>
     <use style="stroke:#000000;" x="239.881206" xlink:href="#md9cd4a0c2e" y="174.528"/>
     <use style="stroke:#000000;" x="247.321864" xlink:href="#md9cd4a0c2e" y="174.478201"/>
     <use style="stroke:#000000;" x="236.251926" xlink:href="#md9cd4a0c2e" y="174.339957"/>
     <use style="stroke:#000000;" x="247.395508" xlink:href="#md9cd4a0c2e" y="174.528"/>
     <use style="stroke:#000000;" x="236.443482" xlink:href="#md9cd4a0c2e" y="174.528"/>
     <use style="stroke:#000000;" x="247.795972" xlink:href="#md9cd4a0c2e" y="172.457217"/>
     <use style="stroke:#000000;" x="247.519823" xlink:href="#md9cd4a0c2e" y="174.528"/>
     <use style="stroke:#000000;" x="244.26792" xlink:href="#md9cd4a0c2e" y="172.649796"/>
     <use style="stroke:#000000;" x="236.88322" xlink:href="#md9cd4a0c2e" y="174.48263"/>
     <use style="stroke:#000000;" x="240.069864" xlink:href="#md9cd4a0c2e" y="171.75088"/>
     <use style="stroke:#000000;" x="244.064341" xlink:href="#md9cd4a0c2e" y="173.264708"/>
     <use style="stroke:#000000;" x="236.16" xlink:href="#md9cd4a0c2e" y="174.528"/>
     <use style="stroke:#000000;" x="240.470638" xlink:href="#md9cd4a0c2e" y="174.200006"/>
     <use style="stroke:#000000;" x="240.483168" xlink:href="#md9cd4a0c2e" y="173.283826"/>
     <use style="stroke:#000000;" x="236.438362" xlink:href="#md9cd4a0c2e" y="174.528"/>
     <use style="stroke:#000000;" x="237.209606" xlink:href="#md9cd4a0c2e" y="173.928285"/>
     <use style="stroke:#000000;" x="236.782073" xlink:href="#md9cd4a0c2e" y="173.944052"/>
     <use style="stroke:#000000;" x="240.557999" xlink:href="#md9cd4a0c2e" y="174.528"/>
     <use style="stroke:#000000;" x="236.701195" xlink:href="#md9cd4a0c2e" y="173.743225"/>
     <use style="stroke:#000000;" x="247.748126" xlink:href="#md9cd4a0c2e" y="174.069817"/>
     <use style="stroke:#000000;" x="237.130187" xlink:href="#md9cd4a0c2e" y="171.58349"/>
     <use style="stroke:#000000;" x="236.724965" xlink:href="#md9cd4a0c2e" y="173.35864"/>
     <use style="stroke:#000000;" x="239.894807" xlink:href="#md9cd4a0c2e" y="174.528"/>
     <use style="stroke:#000000;" x="236.977839" xlink:href="#md9cd4a0c2e" y="174.528"/>
     <use style="stroke:#000000;" x="247.775635" xlink:href="#md9cd4a0c2e" y="174.528"/>
     <use style="stroke:#000000;" x="237.048944" xlink:href="#md9cd4a0c2e" y="174.237193"/>
     <use style="stroke:#000000;" x="239.702481" xlink:href="#md9cd4a0c2e" y="174.528"/>
     <use style="stroke:#000000;" x="237.70404" xlink:href="#md9cd4a0c2e" y="172.891147"/>
     <use style="stroke:#000000;" x="239.79989" xlink:href="#md9cd4a0c2e" y="171.823656"/>
     <use style="stroke:#000000;" x="237.375042" xlink:href="#md9cd4a0c2e" y="172.913453"/>
     <use style="stroke:#000000;" x="236.545278" xlink:href="#md9cd4a0c2e" y="174.528"/>
     <use style="stroke:#000000;" x="236.470702" xlink:href="#md9cd4a0c2e" y="174.528"/>
     <use style="stroke:#000000;" x="239.894927" xlink:href="#md9cd4a0c2e" y="174.299829"/>
     <use style="stroke:#000000;" x="244.033589" xlink:href="#md9cd4a0c2e" y="173.397782"/>
     <use style="stroke:#000000;" x="247.667781" xlink:href="#md9cd4a0c2e" y="173.620241"/>
     <use style="stroke:#000000;" x="247.490727" xlink:href="#md9cd4a0c2e" y="174.528"/>
     <use style="stroke:#000000;" x="247.396631" xlink:href="#md9cd4a0c2e" y="173.46594"/>
     <use style="stroke:#000000;" x="247.453927" xlink:href="#md9cd4a0c2e" y="173.637718"/>
     <use style="stroke:#000000;" x="239.916108" xlink:href="#md9cd4a0c2e" y="174.528"/>
     <use style="stroke:#000000;" x="240.29173" xlink:href="#md9cd4a0c2e" y="174.502152"/>
     <use style="stroke:#000000;" x="247.578484" xlink:href="#md9cd4a0c2e" y="174.191397"/>
     <use style="stroke:#000000;" x="239.427079" xlink:href="#md9cd4a0c2e" y="173.761877"/>
     <use style="stroke:#000000;" x="240.573461" xlink:href="#md9cd4a0c2e" y="174.313567"/>
     <use style="stroke:#000000;" x="240.150274" xlink:href="#md9cd4a0c2e" y="173.883405"/>
     <use style="stroke:#000000;" x="236.16" xlink:href="#md9cd4a0c2e" y="172.978724"/>
     <use style="stroke:#000000;" x="238.099896" xlink:href="#md9cd4a0c2e" y="174.528"/>
     <use style="stroke:#000000;" x="238.505938" xlink:href="#md9cd4a0c2e" y="173.887178"/>
     <use style="stroke:#000000;" x="239.988444" xlink:href="#md9cd4a0c2e" y="174.528"/>
     <use style="stroke:#000000;" x="236.16" xlink:href="#md9cd4a0c2e" y="172.794566"/>
     <use style="stroke:#000000;" x="237.714486" xlink:href="#md9cd4a0c2e" y="172.975182"/>
     <use style="stroke:#000000;" x="241.418336" xlink:href="#md9cd4a0c2e" y="174.528"/>
     <use style="stroke:#000000;" x="239.895853" xlink:href="#md9cd4a0c2e" y="173.743495"/>
     <use style="stroke:#000000;" x="239.894098" xlink:href="#md9cd4a0c2e" y="173.638474"/>
     <use style="stroke:#000000;" x="237.800533" xlink:href="#md9cd4a0c2e" y="172.841717"/>
     <use style="stroke:#000000;" x="239.005761" xlink:href="#md9cd4a0c2e" y="172.832594"/>
     <use style="stroke:#000000;" x="236.691974" xlink:href="#md9cd4a0c2e" y="174.528"/>
     <use style="stroke:#000000;" x="237.992571" xlink:href="#md9cd4a0c2e" y="172.900809"/>
     <use style="stroke:#000000;" x="238.670312" xlink:href="#md9cd4a0c2e" y="171.882341"/>
     <use style="stroke:#000000;" x="243.330229" xlink:href="#md9cd4a0c2e" y="173.45932"/>
     <use style="stroke:#000000;" x="242.680634" xlink:href="#md9cd4a0c2e" y="173.043978"/>
     <use style="stroke:#000000;" x="240.536784" xlink:href="#md9cd4a0c2e" y="173.563896"/>
     <use style="stroke:#000000;" x="239.62789" xlink:href="#md9cd4a0c2e" y="173.263489"/>
     <use style="stroke:#000000;" x="236.51002" xlink:href="#md9cd4a0c2e" y="174.528"/>
     <use style="stroke:#000000;" x="236.808745" xlink:href="#md9cd4a0c2e" y="174.291628"/>
     <use style="stroke:#000000;" x="249.303777" xlink:href="#md9cd4a0c2e" y="174.528"/>
     <use style="stroke:#000000;" x="246.696766" xlink:href="#md9cd4a0c2e" y="174.174086"/>
     <use style="stroke:#000000;" x="237.686441" xlink:href="#md9cd4a0c2e" y="172.444757"/>
     <use style="stroke:#000000;" x="236.398362" xlink:href="#md9cd4a0c2e" y="174.110897"/>
     <use style="stroke:#000000;" x="237.116118" xlink:href="#md9cd4a0c2e" y="174.443937"/>
     <use style="stroke:#000000;" x="248.095427" xlink:href="#md9cd4a0c2e" y="173.879411"/>
     <use style="stroke:#000000;" x="248.383182" xlink:href="#md9cd4a0c2e" y="174.528"/>
     <use style="stroke:#000000;" x="240.187616" xlink:href="#md9cd4a0c2e" y="172.581371"/>
     <use style="stroke:#000000;" x="239.381078" xlink:href="#md9cd4a0c2e" y="172.763063"/>
     <use style="stroke:#000000;" x="240.026794" xlink:href="#md9cd4a0c2e" y="171.957388"/>
     <use style="stroke:#000000;" x="240.993791" xlink:href="#md9cd4a0c2e" y="172.789369"/>
     <use style="stroke:#000000;" x="241.601632" xlink:href="#md9cd4a0c2e" y="174.019493"/>
     <use style="stroke:#000000;" x="240.483532" xlink:href="#md9cd4a0c2e" y="172.855427"/>
     <use style="stroke:#000000;" x="249.068837" xlink:href="#md9cd4a0c2e" y="174.528"/>
     <use style="stroke:#000000;" x="247.329701" xlink:href="#md9cd4a0c2e" y="173.867949"/>
     <use style="stroke:#000000;" x="248.42733" xlink:href="#md9cd4a0c2e" y="173.810007"/>
     <use style="stroke:#000000;" x="236.548381" xlink:href="#md9cd4a0c2e" y="173.943357"/>
     <use style="stroke:#000000;" x="237.112099" xlink:href="#md9cd4a0c2e" y="174.528"/>
     <use style="stroke:#000000;" x="238.151753" xlink:href="#md9cd4a0c2e" y="174.528"/>
     <use style="stroke:#000000;" x="247.089189" xlink:href="#md9cd4a0c2e" y="173.99804"/>
     <use style="stroke:#000000;" x="248.966778" xlink:href="#md9cd4a0c2e" y="174.250009"/>
     <use style="stroke:#000000;" x="247.465486" xlink:href="#md9cd4a0c2e" y="173.360692"/>
     <use style="stroke:#000000;" x="240.370064" xlink:href="#md9cd4a0c2e" y="173.322353"/>
     <use style="stroke:#000000;" x="241.215143" xlink:href="#md9cd4a0c2e" y="174.528"/>
     <use style="stroke:#000000;" x="241.024532" xlink:href="#md9cd4a0c2e" y="174.528"/>
     <use style="stroke:#000000;" x="246.346081" xlink:href="#md9cd4a0c2e" y="174.056251"/>
     <use style="stroke:#000000;" x="247.06787" xlink:href="#md9cd4a0c2e" y="174.260191"/>
     <use style="stroke:#000000;" x="248.041743" xlink:href="#md9cd4a0c2e" y="174.528"/>
     <use style="stroke:#000000;" x="236.16" xlink:href="#md9cd4a0c2e" y="174.528"/>
     <use style="stroke:#000000;" x="237.714914" xlink:href="#md9cd4a0c2e" y="174.528"/>
     <use style="stroke:#000000;" x="236.500344" xlink:href="#md9cd4a0c2e" y="174.420548"/>
     <use style="stroke:#000000;" x="248.681511" xlink:href="#md9cd4a0c2e" y="173.86769"/>
     <use style="stroke:#000000;" x="248.270676" xlink:href="#md9cd4a0c2e" y="174.528"/>
     <use style="stroke:#000000;" x="245.673654" xlink:href="#md9cd4a0c2e" y="174.122886"/>
     <use style="stroke:#000000;" x="236.16" xlink:href="#md9cd4a0c2e" y="173.799111"/>
     <use style="stroke:#000000;" x="236.724269" xlink:href="#md9cd4a0c2e" y="174.029241"/>
     <use style="stroke:#000000;" x="237.834447" xlink:href="#md9cd4a0c2e" y="173.677711"/>
     <use style="stroke:#000000;" x="245.32378" xlink:href="#md9cd4a0c2e" y="172.987663"/>
     <use style="stroke:#000000;" x="247.816747" xlink:href="#md9cd4a0c2e" y="172.066778"/>
     <use style="stroke:#000000;" x="247.764621" xlink:href="#md9cd4a0c2e" y="173.711793"/>
     <use style="stroke:#000000;" x="249.013583" xlink:href="#md9cd4a0c2e" y="173.994586"/>
     <use style="stroke:#000000;" x="246.85472" xlink:href="#md9cd4a0c2e" y="174.410224"/>
     <use style="stroke:#000000;" x="246.918952" xlink:href="#md9cd4a0c2e" y="173.899687"/>
     <use style="stroke:#000000;" x="243.454495" xlink:href="#md9cd4a0c2e" y="171.825551"/>
     <use style="stroke:#000000;" x="244.885565" xlink:href="#md9cd4a0c2e" y="173.331702"/>
     <use style="stroke:#000000;" x="244.258492" xlink:href="#md9cd4a0c2e" y="172.067847"/>
     <use style="stroke:#000000;" x="238.323202" xlink:href="#md9cd4a0c2e" y="174.528"/>
     <use style="stroke:#000000;" x="237.545687" xlink:href="#md9cd4a0c2e" y="172.737208"/>
     <use style="stroke:#000000;" x="236.561033" xlink:href="#md9cd4a0c2e" y="173.768182"/>
     <use style="stroke:#000000;" x="240.454163" xlink:href="#md9cd4a0c2e" y="171.81613"/>
     <use style="stroke:#000000;" x="240.558531" xlink:href="#md9cd4a0c2e" y="171.03243"/>
     <use style="stroke:#000000;" x="241.214941" xlink:href="#md9cd4a0c2e" y="170.415817"/>
     <use style="stroke:#000000;" x="244.75991" xlink:href="#md9cd4a0c2e" y="174.315923"/>
     <use style="stroke:#000000;" x="244.734553" xlink:href="#md9cd4a0c2e" y="173.235431"/>
     <use style="stroke:#000000;" x="244.640371" xlink:href="#md9cd4a0c2e" y="173.512535"/>
     <use style="stroke:#000000;" x="236.16" xlink:href="#md9cd4a0c2e" y="174.528"/>
     <use style="stroke:#000000;" x="237.720173" xlink:href="#md9cd4a0c2e" y="174.528"/>
     <use style="stroke:#000000;" x="236.16" xlink:href="#md9cd4a0c2e" y="173.409775"/>
     <use style="stroke:#000000;" x="240.393038" xlink:href="#md9cd4a0c2e" y="173.847392"/>
     <use style="stroke:#000000;" x="240.25851" xlink:href="#md9cd4a0c2e" y="173.968246"/>
     <use style="stroke:#000000;" x="240.125294" xlink:href="#md9cd4a0c2e" y="174.222932"/>
     <use style="stroke:#000000;" x="239.953245" xlink:href="#md9cd4a0c2e" y="174.528"/>
     <use style="stroke:#000000;" x="239.439681" xlink:href="#md9cd4a0c2e" y="173.409304"/>
     <use style="stroke:#000000;" x="240.650897" xlink:href="#md9cd4a0c2e" y="173.443378"/>
     <use style="stroke:#000000;" x="237.000197" xlink:href="#md9cd4a0c2e" y="173.847491"/>
     <use style="stroke:#000000;" x="238.326433" xlink:href="#md9cd4a0c2e" y="174.528"/>
     <use style="stroke:#000000;" x="236.16" xlink:href="#md9cd4a0c2e" y="174.528"/>
     <use style="stroke:#000000;" x="239.548809" xlink:href="#md9cd4a0c2e" y="173.683241"/>
     <use style="stroke:#000000;" x="238.925404" xlink:href="#md9cd4a0c2e" y="173.191807"/>
     <use style="stroke:#000000;" x="236.647124" xlink:href="#md9cd4a0c2e" y="173.533044"/>
     <use style="stroke:#000000;" x="247.622737" xlink:href="#md9cd4a0c2e" y="172.68725"/>
     <use style="stroke:#000000;" x="239.367195" xlink:href="#md9cd4a0c2e" y="173.389467"/>
     <use style="stroke:#000000;" x="237.311694" xlink:href="#md9cd4a0c2e" y="170.155917"/>
     <use style="stroke:#000000;" x="236.217107" xlink:href="#md9cd4a0c2e" y="174.528"/>
     <use style="stroke:#000000;" x="238.759657" xlink:href="#md9cd4a0c2e" y="174.419076"/>
     <use style="stroke:#000000;" x="239.08252" xlink:href="#md9cd4a0c2e" y="173.348009"/>
     <use style="stroke:#000000;" x="237.670816" xlink:href="#md9cd4a0c2e" y="174.116353"/>
     <use style="stroke:#000000;" x="248.084743" xlink:href="#md9cd4a0c2e" y="174.500614"/>
     <use style="stroke:#000000;" x="238.229852" xlink:href="#md9cd4a0c2e" y="174.172914"/>
     <use style="stroke:#000000;" x="236.719597" xlink:href="#md9cd4a0c2e" y="173.722842"/>
     <use style="stroke:#000000;" x="241.320914" xlink:href="#md9cd4a0c2e" y="173.833607"/>
     <use style="stroke:#000000;" x="236.223732" xlink:href="#md9cd4a0c2e" y="170.935223"/>
     <use style="stroke:#000000;" x="244.249813" xlink:href="#md9cd4a0c2e" y="171.542837"/>
     <use style="stroke:#000000;" x="236.16" xlink:href="#md9cd4a0c2e" y="171.686094"/>
     <use style="stroke:#000000;" x="237.165194" xlink:href="#md9cd4a0c2e" y="173.713107"/>
     <use style="stroke:#000000;" x="236.739322" xlink:href="#md9cd4a0c2e" y="174.337762"/>
     <use style="stroke:#000000;" x="236.501018" xlink:href="#md9cd4a0c2e" y="173.556609"/>
     <use style="stroke:#000000;" x="239.417134" xlink:href="#md9cd4a0c2e" y="172.944798"/>
     <use style="stroke:#000000;" x="243.72056" xlink:href="#md9cd4a0c2e" y="173.950572"/>
     <use style="stroke:#000000;" x="247.25815" xlink:href="#md9cd4a0c2e" y="173.805129"/>
     <use style="stroke:#000000;" x="247.711737" xlink:href="#md9cd4a0c2e" y="172.518869"/>
     <use style="stroke:#000000;" x="248.98222" xlink:href="#md9cd4a0c2e" y="173.859888"/>
     <use style="stroke:#000000;" x="248.131692" xlink:href="#md9cd4a0c2e" y="174.528"/>
     <use style="stroke:#000000;" x="247.718866" xlink:href="#md9cd4a0c2e" y="171.432451"/>
     <use style="stroke:#000000;" x="248.96272" xlink:href="#md9cd4a0c2e" y="174.459317"/>
     <use style="stroke:#000000;" x="238.775667" xlink:href="#md9cd4a0c2e" y="174.389319"/>
     <use style="stroke:#000000;" x="238.465867" xlink:href="#md9cd4a0c2e" y="174.383864"/>
     <use style="stroke:#000000;" x="247.518318" xlink:href="#md9cd4a0c2e" y="174.012193"/>
    </g>
   </g>
   <g id="PathCollection_2">
    <defs>
     <path d="M 0 0.935414 
C 0.248075 0.935414 0.486022 0.836853 0.661438 0.661438 
C 0.836853 0.486022 0.935414 0.248075 0.935414 0 
C 0.935414 -0.248075 0.836853 -0.486022 0.661438 -0.661438 
C 0.486022 -0.836853 0.248075 -0.935414 0 -0.935414 
C -0.248075 -0.935414 -0.486022 -0.836853 -0.661438 -0.661438 
C -0.836853 -0.486022 -0.935414 -0.248075 -0.935414 0 
C -0.935414 0.248075 -0.836853 0.486022 -0.661438 0.661438 
C -0.486022 0.836853 -0.248075 0.935414 0 0.935414 
z
" id="maee66aaebe" style="stroke:#0000ff;"/>
    </defs>
    <g clip-path="url(#p798ee9a974)">
     <use style="fill:#0000ff;stroke:#0000ff;" x="240.471912" xlink:href="#maee66aaebe" y="174.528"/>
     <use style="fill:#0000ff;stroke:#0000ff;" x="236.366317" xlink:href="#maee66aaebe" y="174.528"/>
     <use style="fill:#0000ff;stroke:#0000ff;" x="239.772565" xlink:href="#maee66aaebe" y="174.438703"/>
     <use style="fill:#0000ff;stroke:#0000ff;" x="237.180473" xlink:href="#maee66aaebe" y="172.622211"/>
     <use style="fill:#0000ff;stroke:#0000ff;" x="240.315433" xlink:href="#maee66aaebe" y="174.013145"/>
     <use style="fill:#0000ff;stroke:#0000ff;" x="239.683552" xlink:href="#maee66aaebe" y="173.43054"/>
     <use style="fill:#0000ff;stroke:#0000ff;" x="236.976888" xlink:href="#maee66aaebe" y="173.562749"/>
     <use style="fill:#0000ff;stroke:#0000ff;" x="237.253743" xlink:href="#maee66aaebe" y="173.414107"/>
     <use style="fill:#0000ff;stroke:#0000ff;" x="243.795207" xlink:href="#maee66aaebe" y="173.467031"/>
     <use style="fill:#0000ff;stroke:#0000ff;" x="239.803686" xlink:href="#maee66aaebe" y="174.528"/>
     <use style="fill:#0000ff;stroke:#0000ff;" x="236.599136" xlink:href="#maee66aaebe" y="174.528"/>
     <use style="fill:#0000ff;stroke:#0000ff;" x="247.748076" xlink:href="#maee66aaebe" y="174.528"/>
     <use style="fill:#0000ff;stroke:#0000ff;" x="236.452014" xlink:href="#maee66aaebe" y="173.559369"/>
     <use style="fill:#0000ff;stroke:#0000ff;" x="247.59296" xlink:href="#maee66aaebe" y="173.945406"/>
     <use style="fill:#0000ff;stroke:#0000ff;" x="239.871901" xlink:href="#maee66aaebe" y="173.621915"/>
     <use style="fill:#0000ff;stroke:#0000ff;" x="240.441258" xlink:href="#maee66aaebe" y="173.803987"/>
     <use style="fill:#0000ff;stroke:#0000ff;" x="247.598386" xlink:href="#maee66aaebe" y="174.528"/>
     <use style="fill:#0000ff;stroke:#0000ff;" x="236.978632" xlink:href="#maee66aaebe" y="174.528"/>
     <use style="fill:#0000ff;stroke:#0000ff;" x="247.355587" xlink:href="#maee66aaebe" y="174.528"/>
     <use style="fill:#0000ff;stroke:#0000ff;" x="239.881206" xlink:href="#maee66aaebe" y="174.528"/>
     <use style="fill:#0000ff;stroke:#0000ff;" x="247.321864" xlink:href="#maee66aaebe" y="174.478201"/>
     <use style="fill:#0000ff;stroke:#0000ff;" x="236.251926" xlink:href="#maee66aaebe" y="174.339957"/>
     <use style="fill:#0000ff;stroke:#0000ff;" x="247.395508" xlink:href="#maee66aaebe" y="174.528"/>
     <use style="fill:#0000ff;stroke:#0000ff;" x="236.443482" xlink:href="#maee66aaebe" y="174.528"/>
     <use style="fill:#0000ff;stroke:#0000ff;" x="247.795972" xlink:href="#maee66aaebe" y="172.457217"/>
     <use style="fill:#0000ff;stroke:#0000ff;" x="247.519823" xlink:href="#maee66aaebe" y="174.528"/>
     <use style="fill:#0000ff;stroke:#0000ff;" x="244.26792" xlink:href="#maee66aaebe" y="172.649796"/>
     <use style="fill:#0000ff;stroke:#0000ff;" x="236.88322" xlink:href="#maee66aaebe" y="174.48263"/>
     <use style="fill:#0000ff;stroke:#0000ff;" x="240.069864" xlink:href="#maee66aaebe" y="171.75088"/>
     <use style="fill:#0000ff;stroke:#0000ff;" x="244.064341" xlink:href="#maee66aaebe" y="173.264708"/>
     <use style="fill:#0000ff;stroke:#0000ff;" x="236.16" xlink:href="#maee66aaebe" y="174.528"/>
     <use style="fill:#0000ff;stroke:#0000ff;" x="240.470638" xlink:href="#maee66aaebe" y="174.200006"/>
     <use style="fill:#0000ff;stroke:#0000ff;" x="240.483168" xlink:href="#maee66aaebe" y="173.283826"/>
     <use style="fill:#0000ff;stroke:#0000ff;" x="236.438362" xlink:href="#maee66aaebe" y="174.528"/>
     <use style="fill:#0000ff;stroke:#0000ff;" x="237.209606" xlink:href="#maee66aaebe" y="173.928285"/>
     <use style="fill:#0000ff;stroke:#0000ff;" x="236.782073" xlink:href="#maee66aaebe" y="173.944052"/>
     <use style="fill:#0000ff;stroke:#0000ff;" x="240.557999" xlink:href="#maee66aaebe" y="174.528"/>
     <use style="fill:#0000ff;stroke:#0000ff;" x="236.701195" xlink:href="#maee66aaebe" y="173.743225"/>
     <use style="fill:#0000ff;stroke:#0000ff;" x="247.748126" xlink:href="#maee66aaebe" y="174.069817"/>
     <use style="fill:#0000ff;stroke:#0000ff;" x="237.130187" xlink:href="#maee66aaebe" y="171.58349"/>
     <use style="fill:#0000ff;stroke:#0000ff;" x="236.724965" xlink:href="#maee66aaebe" y="173.35864"/>
     <use style="fill:#0000ff;stroke:#0000ff;" x="239.894807" xlink:href="#maee66aaebe" y="174.528"/>
     <use style="fill:#0000ff;stroke:#0000ff;" x="236.977839" xlink:href="#maee66aaebe" y="174.528"/>
     <use style="fill:#0000ff;stroke:#0000ff;" x="247.775635" xlink:href="#maee66aaebe" y="174.528"/>
     <use style="fill:#0000ff;stroke:#0000ff;" x="237.048944" xlink:href="#maee66aaebe" y="174.237193"/>
     <use style="fill:#0000ff;stroke:#0000ff;" x="239.702481" xlink:href="#maee66aaebe" y="174.528"/>
     <use style="fill:#0000ff;stroke:#0000ff;" x="237.70404" xlink:href="#maee66aaebe" y="172.891147"/>
     <use style="fill:#0000ff;stroke:#0000ff;" x="239.79989" xlink:href="#maee66aaebe" y="171.823656"/>
     <use style="fill:#0000ff;stroke:#0000ff;" x="237.375042" xlink:href="#maee66aaebe" y="172.913453"/>
     <use style="fill:#0000ff;stroke:#0000ff;" x="236.545278" xlink:href="#maee66aaebe" y="174.528"/>
     <use style="fill:#0000ff;stroke:#0000ff;" x="236.470702" xlink:href="#maee66aaebe" y="174.528"/>
     <use style="fill:#0000ff;stroke:#0000ff;" x="239.894927" xlink:href="#maee66aaebe" y="174.299829"/>
     <use style="fill:#0000ff;stroke:#0000ff;" x="244.033589" xlink:href="#maee66aaebe" y="173.397782"/>
     <use style="fill:#0000ff;stroke:#0000ff;" x="247.667781" xlink:href="#maee66aaebe" y="173.620241"/>
     <use style="fill:#0000ff;stroke:#0000ff;" x="247.490727" xlink:href="#maee66aaebe" y="174.528"/>
     <use style="fill:#0000ff;stroke:#0000ff;" x="247.396631" xlink:href="#maee66aaebe" y="173.46594"/>
     <use style="fill:#0000ff;stroke:#0000ff;" x="247.453927" xlink:href="#maee66aaebe" y="173.637718"/>
     <use style="fill:#0000ff;stroke:#0000ff;" x="239.916108" xlink:href="#maee66aaebe" y="174.528"/>
     <use style="fill:#0000ff;stroke:#0000ff;" x="240.29173" xlink:href="#maee66aaebe" y="174.502152"/>
     <use style="fill:#0000ff;stroke:#0000ff;" x="247.578484" xlink:href="#maee66aaebe" y="174.191397"/>
    </g>
   </g>
   <g id="matplotlib.axis_1">
    <g id="xtick_1">
     <g id="line2d_1">
      <defs>
       <path d="M 0 0 
L 0 3.5 
" id="m465a95d2a3" style="stroke:#000000;stroke-width:0.8;"/>
      </defs>
      <g>
       <use style="stroke:#000000;stroke-width:0.8;" x="57.6" xlink:href="#m465a95d2a3" y="307.584"/>
      </g>
     </g>
     <g id="text_1">
      <!-- −10.0 -->
      <defs>
       <path d="M 10.59375 35.5 
L 73.1875 35.5 
L 73.1875 27.203125 
L 10.59375 27.203125 
z
" id="DejaVuSans-2212"/>
       <path d="M 12.40625 8.296875 
L 28.515625 8.296875 
L 28.515625 63.921875 
L 10.984375 60.40625 
L 10.984375 69.390625 
L 28.421875 72.90625 
L 38.28125 72.90625 
L 38.28125 8.296875 
L 54.390625 8.296875 
L 54.390625 0 
L 12.40625 0 
z
" id="DejaVuSans-31"/>
       <path d="M 31.78125 66.40625 
Q 24.171875 66.40625 20.328125 58.90625 
Q 16.5 51.421875 16.5 36.375 
Q 16.5 21.390625 20.328125 13.890625 
Q 24.171875 6.390625 31.78125 6.390625 
Q 39.453125 6.390625 43.28125 13.890625 
Q 47.125 21.390625 47.125 36.375 
Q 47.125 51.421875 43.28125 58.90625 
Q 39.453125 66.40625 31.78125 66.40625 
z
M 31.78125 74.21875 
Q 44.046875 74.21875 50.515625 64.515625 
Q 56.984375 54.828125 56.984375 36.375 
Q 56.984375 17.96875 50.515625 8.265625 
Q 44.046875 -1.421875 31.78125 -1.421875 
Q 19.53125 -1.421875 13.0625 8.265625 
Q 6.59375 17.96875 6.59375 36.375 
Q 6.59375 54.828125 13.0625 64.515625 
Q 19.53125 74.21875 31.78125 74.21875 
z
" id="DejaVuSans-30"/>
       <path d="M 10.6875 12.40625 
L 21 12.40625 
L 21 0 
L 10.6875 0 
z
" id="DejaVuSans-2e"/>
      </defs>
      <g transform="translate(42.277344 322.182437)scale(0.1 -0.1)">
       <use xlink:href="#DejaVuSans-2212"/>
       <use x="83.789062" xlink:href="#DejaVuSans-31"/>
       <use x="147.412109" xlink:href="#DejaVuSans-30"/>
       <use x="211.035156" xlink:href="#DejaVuSans-2e"/>
       <use x="242.822266" xlink:href="#DejaVuSans-30"/>
      </g>
     </g>
    </g>
    <g id="xtick_2">
     <g id="line2d_2">
      <g>
       <use style="stroke:#000000;stroke-width:0.8;" x="102.24" xlink:href="#m465a95d2a3" y="307.584"/>
      </g>
     </g>
     <g id="text_2">
      <!-- −7.5 -->
      <defs>
       <path d="M 8.203125 72.90625 
L 55.078125 72.90625 
L 55.078125 68.703125 
L 28.609375 0 
L 18.3125 0 
L 43.21875 64.59375 
L 8.203125 64.59375 
z
" id="DejaVuSans-37"/>
       <path d="M 10.796875 72.90625 
L 49.515625 72.90625 
L 49.515625 64.59375 
L 19.828125 64.59375 
L 19.828125 46.734375 
Q 21.96875 47.46875 24.109375 47.828125 
Q 26.265625 48.1875 28.421875 48.1875 
Q 40.625 48.1875 47.75 41.5 
Q 54.890625 34.8125 54.890625 23.390625 
Q 54.890625 11.625 47.5625 5.09375 
Q 40.234375 -1.421875 26.90625 -1.421875 
Q 22.3125 -1.421875 17.546875 -0.640625 
Q 12.796875 0.140625 7.71875 1.703125 
L 7.71875 11.625 
Q 12.109375 9.234375 16.796875 8.0625 
Q 21.484375 6.890625 26.703125 6.890625 
Q 35.15625 6.890625 40.078125 11.328125 
Q 45.015625 15.765625 45.015625 23.390625 
Q 45.015625 31 40.078125 35.4375 
Q 35.15625 39.890625 26.703125 39.890625 
Q 22.75 39.890625 18.8125 39.015625 
Q 14.890625 38.140625 10.796875 36.28125 
z
" id="DejaVuSans-35"/>
      </defs>
      <g transform="translate(90.098594 322.182437)scale(0.1 -0.1)">
       <use xlink:href="#DejaVuSans-2212"/>
       <use x="83.789062" xlink:href="#DejaVuSans-37"/>
       <use x="147.412109" xlink:href="#DejaVuSans-2e"/>
       <use x="179.199219" xlink:href="#DejaVuSans-35"/>
      </g>
     </g>
    </g>
    <g id="xtick_3">
     <g id="line2d_3">
      <g>
       <use style="stroke:#000000;stroke-width:0.8;" x="146.88" xlink:href="#m465a95d2a3" y="307.584"/>
      </g>
     </g>
     <g id="text_3">
      <!-- −5.0 -->
      <g transform="translate(134.738594 322.182437)scale(0.1 -0.1)">
       <use xlink:href="#DejaVuSans-2212"/>
       <use x="83.789062" xlink:href="#DejaVuSans-35"/>
       <use x="147.412109" xlink:href="#DejaVuSans-2e"/>
       <use x="179.199219" xlink:href="#DejaVuSans-30"/>
      </g>
     </g>
    </g>
    <g id="xtick_4">
     <g id="line2d_4">
      <g>
       <use style="stroke:#000000;stroke-width:0.8;" x="191.52" xlink:href="#m465a95d2a3" y="307.584"/>
      </g>
     </g>
     <g id="text_4">
      <!-- −2.5 -->
      <defs>
       <path d="M 19.1875 8.296875 
L 53.609375 8.296875 
L 53.609375 0 
L 7.328125 0 
L 7.328125 8.296875 
Q 12.9375 14.109375 22.625 23.890625 
Q 32.328125 33.6875 34.8125 36.53125 
Q 39.546875 41.84375 41.421875 45.53125 
Q 43.3125 49.21875 43.3125 52.78125 
Q 43.3125 58.59375 39.234375 62.25 
Q 35.15625 65.921875 28.609375 65.921875 
Q 23.96875 65.921875 18.8125 64.3125 
Q 13.671875 62.703125 7.8125 59.421875 
L 7.8125 69.390625 
Q 13.765625 71.78125 18.9375 73 
Q 24.125 74.21875 28.421875 74.21875 
Q 39.75 74.21875 46.484375 68.546875 
Q 53.21875 62.890625 53.21875 53.421875 
Q 53.21875 48.921875 51.53125 44.890625 
Q 49.859375 40.875 45.40625 35.40625 
Q 44.1875 33.984375 37.640625 27.21875 
Q 31.109375 20.453125 19.1875 8.296875 
z
" id="DejaVuSans-32"/>
      </defs>
      <g transform="translate(179.378594 322.182437)scale(0.1 -0.1)">
       <use xlink:href="#DejaVuSans-2212"/>
       <use x="83.789062" xlink:href="#DejaVuSans-32"/>
       <use x="147.412109" xlink:href="#DejaVuSans-2e"/>
       <use x="179.199219" xlink:href="#DejaVuSans-35"/>
      </g>
     </g>
    </g>
    <g id="xtick_5">
     <g id="line2d_5">
      <g>
       <use style="stroke:#000000;stroke-width:0.8;" x="236.16" xlink:href="#m465a95d2a3" y="307.584"/>
      </g>
     </g>
     <g id="text_5">
      <!-- 0.0 -->
      <g transform="translate(228.208438 322.182437)scale(0.1 -0.1)">
       <use xlink:href="#DejaVuSans-30"/>
       <use x="63.623047" xlink:href="#DejaVuSans-2e"/>
       <use x="95.410156" xlink:href="#DejaVuSans-30"/>
      </g>
     </g>
    </g>
    <g id="xtick_6">
     <g id="line2d_6">
      <g>
       <use style="stroke:#000000;stroke-width:0.8;" x="280.8" xlink:href="#m465a95d2a3" y="307.584"/>
      </g>
     </g>
     <g id="text_6">
      <!-- 2.5 -->
      <g transform="translate(272.848437 322.182437)scale(0.1 -0.1)">
       <use xlink:href="#DejaVuSans-32"/>
       <use x="63.623047" xlink:href="#DejaVuSans-2e"/>
       <use x="95.410156" xlink:href="#DejaVuSans-35"/>
      </g>
     </g>
    </g>
    <g id="xtick_7">
     <g id="line2d_7">
      <g>
       <use style="stroke:#000000;stroke-width:0.8;" x="325.44" xlink:href="#m465a95d2a3" y="307.584"/>
      </g>
     </g>
     <g id="text_7">
      <!-- 5.0 -->
      <g transform="translate(317.488437 322.182437)scale(0.1 -0.1)">
       <use xlink:href="#DejaVuSans-35"/>
       <use x="63.623047" xlink:href="#DejaVuSans-2e"/>
       <use x="95.410156" xlink:href="#DejaVuSans-30"/>
      </g>
     </g>
    </g>
    <g id="xtick_8">
     <g id="line2d_8">
      <g>
       <use style="stroke:#000000;stroke-width:0.8;" x="370.08" xlink:href="#m465a95d2a3" y="307.584"/>
      </g>
     </g>
     <g id="text_8">
      <!-- 7.5 -->
      <g transform="translate(362.128438 322.182437)scale(0.1 -0.1)">
       <use xlink:href="#DejaVuSans-37"/>
       <use x="63.623047" xlink:href="#DejaVuSans-2e"/>
       <use x="95.410156" xlink:href="#DejaVuSans-35"/>
      </g>
     </g>
    </g>
    <g id="xtick_9">
     <g id="line2d_9">
      <g>
       <use style="stroke:#000000;stroke-width:0.8;" x="414.72" xlink:href="#m465a95d2a3" y="307.584"/>
      </g>
     </g>
     <g id="text_9">
      <!-- 10.0 -->
      <g transform="translate(403.587188 322.182437)scale(0.1 -0.1)">
       <use xlink:href="#DejaVuSans-31"/>
       <use x="63.623047" xlink:href="#DejaVuSans-30"/>
       <use x="127.246094" xlink:href="#DejaVuSans-2e"/>
       <use x="159.033203" xlink:href="#DejaVuSans-30"/>
      </g>
     </g>
    </g>
   </g>
   <g id="matplotlib.axis_2">
    <g id="ytick_1">
     <g id="line2d_10">
      <defs>
       <path d="M 0 0 
L -3.5 0 
" id="mda43b65898" style="stroke:#000000;stroke-width:0.8;"/>
      </defs>
      <g>
       <use style="stroke:#000000;stroke-width:0.8;" x="57.6" xlink:href="#mda43b65898" y="307.584"/>
      </g>
     </g>
     <g id="text_10">
      <!-- −10.0 -->
      <g transform="translate(19.954687 311.383219)scale(0.1 -0.1)">
       <use xlink:href="#DejaVuSans-2212"/>
       <use x="83.789062" xlink:href="#DejaVuSans-31"/>
       <use x="147.412109" xlink:href="#DejaVuSans-30"/>
       <use x="211.035156" xlink:href="#DejaVuSans-2e"/>
       <use x="242.822266" xlink:href="#DejaVuSans-30"/>
      </g>
     </g>
    </g>
    <g id="ytick_2">
     <g id="line2d_11">
      <g>
       <use style="stroke:#000000;stroke-width:0.8;" x="57.6" xlink:href="#mda43b65898" y="274.32"/>
      </g>
     </g>
     <g id="text_11">
      <!-- −7.5 -->
      <g transform="translate(26.317187 278.119219)scale(0.1 -0.1)">
       <use xlink:href="#DejaVuSans-2212"/>
       <use x="83.789062" xlink:href="#DejaVuSans-37"/>
       <use x="147.412109" xlink:href="#DejaVuSans-2e"/>
       <use x="179.199219" xlink:href="#DejaVuSans-35"/>
      </g>
     </g>
    </g>
    <g id="ytick_3">
     <g id="line2d_12">
      <g>
       <use style="stroke:#000000;stroke-width:0.8;" x="57.6" xlink:href="#mda43b65898" y="241.056"/>
      </g>
     </g>
     <g id="text_12">
      <!-- −5.0 -->
      <g transform="translate(26.317187 244.855219)scale(0.1 -0.1)">
       <use xlink:href="#DejaVuSans-2212"/>
       <use x="83.789062" xlink:href="#DejaVuSans-35"/>
       <use x="147.412109" xlink:href="#DejaVuSans-2e"/>
       <use x="179.199219" xlink:href="#DejaVuSans-30"/>
      </g>
     </g>
    </g>
    <g id="ytick_4">
     <g id="line2d_13">
      <g>
       <use style="stroke:#000000;stroke-width:0.8;" x="57.6" xlink:href="#mda43b65898" y="207.792"/>
      </g>
     </g>
     <g id="text_13">
      <!-- −2.5 -->
      <g transform="translate(26.317187 211.591219)scale(0.1 -0.1)">
       <use xlink:href="#DejaVuSans-2212"/>
       <use x="83.789062" xlink:href="#DejaVuSans-32"/>
       <use x="147.412109" xlink:href="#DejaVuSans-2e"/>
       <use x="179.199219" xlink:href="#DejaVuSans-35"/>
      </g>
     </g>
    </g>
    <g id="ytick_5">
     <g id="line2d_14">
      <g>
       <use style="stroke:#000000;stroke-width:0.8;" x="57.6" xlink:href="#mda43b65898" y="174.528"/>
      </g>
     </g>
     <g id="text_14">
      <!-- 0.0 -->
      <g transform="translate(34.696875 178.327219)scale(0.1 -0.1)">
       <use xlink:href="#DejaVuSans-30"/>
       <use x="63.623047" xlink:href="#DejaVuSans-2e"/>
       <use x="95.410156" xlink:href="#DejaVuSans-30"/>
      </g>
     </g>
    </g>
    <g id="ytick_6">
     <g id="line2d_15">
      <g>
       <use style="stroke:#000000;stroke-width:0.8;" x="57.6" xlink:href="#mda43b65898" y="141.264"/>
      </g>
     </g>
     <g id="text_15">
      <!-- 2.5 -->
      <g transform="translate(34.696875 145.063219)scale(0.1 -0.1)">
       <use xlink:href="#DejaVuSans-32"/>
       <use x="63.623047" xlink:href="#DejaVuSans-2e"/>
       <use x="95.410156" xlink:href="#DejaVuSans-35"/>
      </g>
     </g>
    </g>
    <g id="ytick_7">
     <g id="line2d_16">
      <g>
       <use style="stroke:#000000;stroke-width:0.8;" x="57.6" xlink:href="#mda43b65898" y="108"/>
      </g>
     </g>
     <g id="text_16">
      <!-- 5.0 -->
      <g transform="translate(34.696875 111.799219)scale(0.1 -0.1)">
       <use xlink:href="#DejaVuSans-35"/>
       <use x="63.623047" xlink:href="#DejaVuSans-2e"/>
       <use x="95.410156" xlink:href="#DejaVuSans-30"/>
      </g>
     </g>
    </g>
    <g id="ytick_8">
     <g id="line2d_17">
      <g>
       <use style="stroke:#000000;stroke-width:0.8;" x="57.6" xlink:href="#mda43b65898" y="74.736"/>
      </g>
     </g>
     <g id="text_17">
      <!-- 7.5 -->
      <g transform="translate(34.696875 78.535219)scale(0.1 -0.1)">
       <use xlink:href="#DejaVuSans-37"/>
       <use x="63.623047" xlink:href="#DejaVuSans-2e"/>
       <use x="95.410156" xlink:href="#DejaVuSans-35"/>
      </g>
     </g>
    </g>
    <g id="ytick_9">
     <g id="line2d_18">
      <g>
       <use style="stroke:#000000;stroke-width:0.8;" x="57.6" xlink:href="#mda43b65898" y="41.472"/>
      </g>
     </g>
     <g id="text_18">
      <!-- 10.0 -->
      <g transform="translate(28.334375 45.271219)scale(0.1 -0.1)">
       <use xlink:href="#DejaVuSans-31"/>
       <use x="63.623047" xlink:href="#DejaVuSans-30"/>
       <use x="127.246094" xlink:href="#DejaVuSans-2e"/>
       <use x="159.033203" xlink:href="#DejaVuSans-30"/>
      </g>
     </g>
    </g>
   </g>
   <g id="patch_3">
    <path d="M 57.6 307.584 
L 57.6 41.472 
" style="fill:none;stroke:#000000;stroke-linecap:square;stroke-linejoin:miter;stroke-width:0.8;"/>
   </g>
   <g id="patch_4">
    <path d="M 414.72 307.584 
L 414.72 41.472 
" style="fill:none;stroke:#000000;stroke-linecap:square;stroke-linejoin:miter;stroke-width:0.8;"/>
   </g>
   <g id="patch_5">
    <path d="M 57.6 307.584 
L 414.72 307.584 
" style="fill:none;stroke:#000000;stroke-linecap:square;stroke-linejoin:miter;stroke-width:0.8;"/>
   </g>
   <g id="patch_6">
    <path d="M 57.6 41.472 
L 414.72 41.472 
" style="fill:none;stroke:#000000;stroke-linecap:square;stroke-linejoin:miter;stroke-width:0.8;"/>
   </g>
  </g>
 </g>
 <defs>
  <clipPath id="p798ee9a974">
   <rect height="266.112" width="357.12" x="57.6" y="41.472"/>
  </clipPath>
 </defs>
</svg>
