<?xml version="1.0" encoding="utf-8" standalone="no"?>
<!DOCTYPE svg PUBLIC "-//W3C//DTD SVG 1.1//EN"
  "http://www.w3.org/Graphics/SVG/1.1/DTD/svg11.dtd">
<!-- Created with matplotlib (http://matplotlib.org/) -->
<svg height="345.6pt" version="1.1" viewBox="0 0 460.8 345.6" width="460.8pt" xmlns="http://www.w3.org/2000/svg" xmlns:xlink="http://www.w3.org/1999/xlink">
 <defs>
  <style type="text/css">
*{stroke-linecap:butt;stroke-linejoin:round;}
  </style>
 </defs>
 <g id="figure_1">
  <g id="patch_1">
   <path d="M 0 345.6 
L 460.8 345.6 
L 460.8 0 
L 0 0 
z
" style="fill:#ffffff;"/>
  </g>
  <g id="axes_1">
   <g id="patch_2">
    <path d="M 57.6 307.584 
L 414.72 307.584 
L 414.72 41.472 
L 57.6 41.472 
z
" style="fill:#ffffff;"/>
   </g>
   <g id="PathCollection_1">
    <defs>
     <path d="M 0 0.612372 
C 0.162403 0.612372 0.318176 0.547849 0.433013 0.433013 
C 0.547849 0.318176 0.612372 0.162403 0.612372 0 
C 0.612372 -0.162403 0.547849 -0.318176 0.433013 -0.433013 
C 0.318176 -0.547849 0.162403 -0.612372 0 -0.612372 
C -0.162403 -0.612372 -0.318176 -0.547849 -0.433013 -0.433013 
C -0.547849 -0.318176 -0.612372 -0.162403 -0.612372 0 
C -0.612372 0.162403 -0.547849 0.318176 -0.433013 0.433013 
C -0.318176 0.547849 -0.162403 0.612372 0 0.612372 
z
" id="m6c3824addf" style="stroke:#000000;"/>
    </defs>
    <g clip-path="url(#p668c0c532d)">
     <use style="stroke:#000000;" x="243.959247" xlink:href="#m6c3824addf" y="169.493516"/>
     <use style="stroke:#000000;" x="244.233276" xlink:href="#m6c3824addf" y="174.528"/>
     <use style="stroke:#000000;" x="237.582924" xlink:href="#m6c3824addf" y="174.528"/>
     <use style="stroke:#000000;" x="236.343975" xlink:href="#m6c3824addf" y="174.451391"/>
     <use style="stroke:#000000;" x="236.424773" xlink:href="#m6c3824addf" y="174.485086"/>
     <use style="stroke:#000000;" x="240.326773" xlink:href="#m6c3824addf" y="174.528"/>
     <use style="stroke:#000000;" x="237.142844" xlink:href="#m6c3824addf" y="173.262324"/>
     <use style="stroke:#000000;" x="237.033391" xlink:href="#m6c3824addf" y="173.56916"/>
     <use style="stroke:#000000;" x="240.931074" xlink:href="#m6c3824addf" y="174.333364"/>
     <use style="stroke:#000000;" x="240.1483" xlink:href="#m6c3824addf" y="169.342907"/>
     <use style="stroke:#000000;" x="243.99711" xlink:href="#m6c3824addf" y="171.719437"/>
     <use style="stroke:#000000;" x="236.640771" xlink:href="#m6c3824addf" y="174.038269"/>
     <use style="stroke:#000000;" x="244.158752" xlink:href="#m6c3824addf" y="169.984482"/>
     <use style="stroke:#000000;" x="247.789073" xlink:href="#m6c3824addf" y="167.059614"/>
     <use style="stroke:#000000;" x="236.16" xlink:href="#m6c3824addf" y="174.528"/>
     <use style="stroke:#000000;" x="236.424479" xlink:href="#m6c3824addf" y="174.528"/>
     <use style="stroke:#000000;" x="240.22867" xlink:href="#m6c3824addf" y="174.528"/>
     <use style="stroke:#000000;" x="236.637196" xlink:href="#m6c3824addf" y="173.002799"/>
     <use style="stroke:#000000;" x="236.273422" xlink:href="#m6c3824addf" y="174.528"/>
     <use style="stroke:#000000;" x="240.559753" xlink:href="#m6c3824addf" y="174.528"/>
     <use style="stroke:#000000;" x="244.119578" xlink:href="#m6c3824addf" y="168.636072"/>
     <use style="stroke:#000000;" x="244.296995" xlink:href="#m6c3824addf" y="170.493002"/>
     <use style="stroke:#000000;" x="237.800392" xlink:href="#m6c3824addf" y="174.528"/>
     <use style="stroke:#000000;" x="237.396276" xlink:href="#m6c3824addf" y="173.43596"/>
     <use style="stroke:#000000;" x="237.435066" xlink:href="#m6c3824addf" y="174.181263"/>
     <use style="stroke:#000000;" x="240.506798" xlink:href="#m6c3824addf" y="173.746589"/>
     <use style="stroke:#000000;" x="236.435482" xlink:href="#m6c3824addf" y="173.786719"/>
     <use style="stroke:#000000;" x="237.191091" xlink:href="#m6c3824addf" y="174.528"/>
     <use style="stroke:#000000;" x="236.548681" xlink:href="#m6c3824addf" y="172.7995"/>
     <use style="stroke:#000000;" x="236.369726" xlink:href="#m6c3824addf" y="172.791063"/>
     <use style="stroke:#000000;" x="243.793952" xlink:href="#m6c3824addf" y="171.319913"/>
     <use style="stroke:#000000;" x="243.824543" xlink:href="#m6c3824addf" y="171.304442"/>
     <use style="stroke:#000000;" x="240.638683" xlink:href="#m6c3824addf" y="174.264059"/>
     <use style="stroke:#000000;" x="243.893697" xlink:href="#m6c3824addf" y="171.335819"/>
     <use style="stroke:#000000;" x="240.735019" xlink:href="#m6c3824addf" y="174.528"/>
     <use style="stroke:#000000;" x="240.495717" xlink:href="#m6c3824addf" y="173.706591"/>
     <use style="stroke:#000000;" x="240.245351" xlink:href="#m6c3824addf" y="173.257029"/>
     <use style="stroke:#000000;" x="239.741182" xlink:href="#m6c3824addf" y="171.960011"/>
     <use style="stroke:#000000;" x="237.055448" xlink:href="#m6c3824addf" y="173.375097"/>
     <use style="stroke:#000000;" x="237.049456" xlink:href="#m6c3824addf" y="174.528"/>
     <use style="stroke:#000000;" x="244.252775" xlink:href="#m6c3824addf" y="168.283103"/>
     <use style="stroke:#000000;" x="244.153709" xlink:href="#m6c3824addf" y="170.473025"/>
     <use style="stroke:#000000;" x="236.656288" xlink:href="#m6c3824addf" y="173.427841"/>
     <use style="stroke:#000000;" x="237.003602" xlink:href="#m6c3824addf" y="174.276408"/>
     <use style="stroke:#000000;" x="240.887797" xlink:href="#m6c3824addf" y="174.528"/>
     <use style="stroke:#000000;" x="240.792952" xlink:href="#m6c3824addf" y="173.318933"/>
     <use style="stroke:#000000;" x="236.312538" xlink:href="#m6c3824addf" y="174.085156"/>
     <use style="stroke:#000000;" x="244.279387" xlink:href="#m6c3824addf" y="171.051138"/>
     <use style="stroke:#000000;" x="236.744164" xlink:href="#m6c3824addf" y="173.029943"/>
     <use style="stroke:#000000;" x="244.516786" xlink:href="#m6c3824addf" y="174.121853"/>
     <use style="stroke:#000000;" x="236.16" xlink:href="#m6c3824addf" y="174.528"/>
     <use style="stroke:#000000;" x="244.309493" xlink:href="#m6c3824addf" y="170.841242"/>
     <use style="stroke:#000000;" x="238.176346" xlink:href="#m6c3824addf" y="172.565797"/>
     <use style="stroke:#000000;" x="247.482411" xlink:href="#m6c3824addf" y="166.966036"/>
     <use style="stroke:#000000;" x="237.622155" xlink:href="#m6c3824addf" y="173.079601"/>
     <use style="stroke:#000000;" x="237.369275" xlink:href="#m6c3824addf" y="169.879356"/>
     <use style="stroke:#000000;" x="237.511996" xlink:href="#m6c3824addf" y="174.528"/>
     <use style="stroke:#000000;" x="239.75202" xlink:href="#m6c3824addf" y="169.187153"/>
     <use style="stroke:#000000;" x="236.581601" xlink:href="#m6c3824addf" y="174.528"/>
     <use style="stroke:#000000;" x="236.557144" xlink:href="#m6c3824addf" y="174.504991"/>
     <use style="stroke:#000000;" x="240.720562" xlink:href="#m6c3824addf" y="174.528"/>
     <use style="stroke:#000000;" x="240.649969" xlink:href="#m6c3824addf" y="172.277558"/>
     <use style="stroke:#000000;" x="240.669734" xlink:href="#m6c3824addf" y="169.024131"/>
     <use style="stroke:#000000;" x="240.637862" xlink:href="#m6c3824addf" y="174.434146"/>
     <use style="stroke:#000000;" x="240.61908" xlink:href="#m6c3824addf" y="174.288608"/>
     <use style="stroke:#000000;" x="243.847377" xlink:href="#m6c3824addf" y="170.155115"/>
     <use style="stroke:#000000;" x="244.100928" xlink:href="#m6c3824addf" y="168.981575"/>
     <use style="stroke:#000000;" x="237.093459" xlink:href="#m6c3824addf" y="174.528"/>
     <use style="stroke:#000000;" x="240.269715" xlink:href="#m6c3824addf" y="173.615368"/>
     <use style="stroke:#000000;" x="236.674044" xlink:href="#m6c3824addf" y="172.846252"/>
     <use style="stroke:#000000;" x="237.011162" xlink:href="#m6c3824addf" y="172.803308"/>
     <use style="stroke:#000000;" x="236.829058" xlink:href="#m6c3824addf" y="172.562395"/>
     <use style="stroke:#000000;" x="244.213249" xlink:href="#m6c3824addf" y="169.777436"/>
     <use style="stroke:#000000;" x="239.792765" xlink:href="#m6c3824addf" y="171.883821"/>
     <use style="stroke:#000000;" x="244.022395" xlink:href="#m6c3824addf" y="170.187275"/>
     <use style="stroke:#000000;" x="244.28551" xlink:href="#m6c3824addf" y="169.110915"/>
     <use style="stroke:#000000;" x="244.320099" xlink:href="#m6c3824addf" y="170.222978"/>
     <use style="stroke:#000000;" x="244.312925" xlink:href="#m6c3824addf" y="171.276256"/>
     <use style="stroke:#000000;" x="240.862896" xlink:href="#m6c3824addf" y="173.810715"/>
     <use style="stroke:#000000;" x="236.361316" xlink:href="#m6c3824addf" y="173.219736"/>
     <use style="stroke:#000000;" x="242.130838" xlink:href="#m6c3824addf" y="168.434026"/>
     <use style="stroke:#000000;" x="243.984123" xlink:href="#m6c3824addf" y="168.903742"/>
     <use style="stroke:#000000;" x="244.071953" xlink:href="#m6c3824addf" y="170.357287"/>
     <use style="stroke:#000000;" x="245.293286" xlink:href="#m6c3824addf" y="174.391006"/>
     <use style="stroke:#000000;" x="243.501839" xlink:href="#m6c3824addf" y="173.69947"/>
     <use style="stroke:#000000;" x="244.550141" xlink:href="#m6c3824addf" y="174.528"/>
     <use style="stroke:#000000;" x="246.045582" xlink:href="#m6c3824addf" y="174.528"/>
     <use style="stroke:#000000;" x="237.266834" xlink:href="#m6c3824addf" y="173.426603"/>
     <use style="stroke:#000000;" x="238.024896" xlink:href="#m6c3824addf" y="174.528"/>
     <use style="stroke:#000000;" x="238.376655" xlink:href="#m6c3824addf" y="173.768863"/>
     <use style="stroke:#000000;" x="236.597862" xlink:href="#m6c3824addf" y="174.098985"/>
     <use style="stroke:#000000;" x="236.206388" xlink:href="#m6c3824addf" y="174.528"/>
     <use style="stroke:#000000;" x="237.726317" xlink:href="#m6c3824addf" y="174.528"/>
     <use style="stroke:#000000;" x="237.074505" xlink:href="#m6c3824addf" y="174.528"/>
     <use style="stroke:#000000;" x="236.834686" xlink:href="#m6c3824addf" y="173.428375"/>
     <use style="stroke:#000000;" x="236.744333" xlink:href="#m6c3824addf" y="173.520725"/>
     <use style="stroke:#000000;" x="241.775736" xlink:href="#m6c3824addf" y="174.528"/>
     <use style="stroke:#000000;" x="240.19081" xlink:href="#m6c3824addf" y="174.369991"/>
     <use style="stroke:#000000;" x="240.316724" xlink:href="#m6c3824addf" y="174.157965"/>
     <use style="stroke:#000000;" x="237.735451" xlink:href="#m6c3824addf" y="172.918396"/>
     <use style="stroke:#000000;" x="237.524624" xlink:href="#m6c3824addf" y="173.535863"/>
     <use style="stroke:#000000;" x="237.709018" xlink:href="#m6c3824addf" y="174.528"/>
     <use style="stroke:#000000;" x="236.422572" xlink:href="#m6c3824addf" y="173.640334"/>
     <use style="stroke:#000000;" x="236.486239" xlink:href="#m6c3824addf" y="174.438732"/>
     <use style="stroke:#000000;" x="236.16" xlink:href="#m6c3824addf" y="173.248665"/>
     <use style="stroke:#000000;" x="241.323946" xlink:href="#m6c3824addf" y="174.528"/>
     <use style="stroke:#000000;" x="239.369487" xlink:href="#m6c3824addf" y="174.528"/>
     <use style="stroke:#000000;" x="241.069642" xlink:href="#m6c3824addf" y="174.425175"/>
     <use style="stroke:#000000;" x="240.498787" xlink:href="#m6c3824addf" y="169.988012"/>
     <use style="stroke:#000000;" x="238.499607" xlink:href="#m6c3824addf" y="169.613066"/>
     <use style="stroke:#000000;" x="237.929511" xlink:href="#m6c3824addf" y="169.770109"/>
     <use style="stroke:#000000;" x="245.479632" xlink:href="#m6c3824addf" y="172.267627"/>
     <use style="stroke:#000000;" x="243.845501" xlink:href="#m6c3824addf" y="170.172512"/>
     <use style="stroke:#000000;" x="244.732393" xlink:href="#m6c3824addf" y="171.281688"/>
     <use style="stroke:#000000;" x="236.16" xlink:href="#m6c3824addf" y="173.185855"/>
     <use style="stroke:#000000;" x="237.03591" xlink:href="#m6c3824addf" y="174.474423"/>
     <use style="stroke:#000000;" x="237.378821" xlink:href="#m6c3824addf" y="173.905177"/>
     <use style="stroke:#000000;" x="244.681423" xlink:href="#m6c3824addf" y="169.741932"/>
     <use style="stroke:#000000;" x="242.801439" xlink:href="#m6c3824addf" y="169.922095"/>
     <use style="stroke:#000000;" x="244.361379" xlink:href="#m6c3824addf" y="170.270269"/>
     <use style="stroke:#000000;" x="247.465087" xlink:href="#m6c3824addf" y="165.902696"/>
     <use style="stroke:#000000;" x="247.36342" xlink:href="#m6c3824addf" y="166.1922"/>
     <use style="stroke:#000000;" x="247.349339" xlink:href="#m6c3824addf" y="167.209827"/>
     <use style="stroke:#000000;" x="236.16" xlink:href="#m6c3824addf" y="173.953504"/>
     <use style="stroke:#000000;" x="236.16" xlink:href="#m6c3824addf" y="173.960077"/>
     <use style="stroke:#000000;" x="237.099758" xlink:href="#m6c3824addf" y="174.528"/>
     <use style="stroke:#000000;" x="237.034996" xlink:href="#m6c3824addf" y="173.742451"/>
     <use style="stroke:#000000;" x="236.91164" xlink:href="#m6c3824addf" y="174.528"/>
     <use style="stroke:#000000;" x="237.627216" xlink:href="#m6c3824addf" y="173.81632"/>
     <use style="stroke:#000000;" x="239.951561" xlink:href="#m6c3824addf" y="174.004889"/>
     <use style="stroke:#000000;" x="239.043823" xlink:href="#m6c3824addf" y="174.528"/>
     <use style="stroke:#000000;" x="239.091962" xlink:href="#m6c3824addf" y="174.528"/>
     <use style="stroke:#000000;" x="236.615797" xlink:href="#m6c3824addf" y="173.390847"/>
     <use style="stroke:#000000;" x="236.992714" xlink:href="#m6c3824addf" y="172.802032"/>
     <use style="stroke:#000000;" x="236.16" xlink:href="#m6c3824addf" y="172.96671"/>
     <use style="stroke:#000000;" x="236.16" xlink:href="#m6c3824addf" y="174.528"/>
     <use style="stroke:#000000;" x="237.703789" xlink:href="#m6c3824addf" y="174.528"/>
     <use style="stroke:#000000;" x="236.734276" xlink:href="#m6c3824addf" y="174.072868"/>
     <use style="stroke:#000000;" x="240.160195" xlink:href="#m6c3824addf" y="174.528"/>
     <use style="stroke:#000000;" x="241.377651" xlink:href="#m6c3824addf" y="174.528"/>
     <use style="stroke:#000000;" x="238.111357" xlink:href="#m6c3824addf" y="174.254618"/>
     <use style="stroke:#000000;" x="242.141732" xlink:href="#m6c3824addf" y="167.432269"/>
     <use style="stroke:#000000;" x="241.827252" xlink:href="#m6c3824addf" y="169.742132"/>
     <use style="stroke:#000000;" x="243.146942" xlink:href="#m6c3824addf" y="170.784636"/>
     <use style="stroke:#000000;" x="243.585575" xlink:href="#m6c3824addf" y="170.034157"/>
     <use style="stroke:#000000;" x="244.084161" xlink:href="#m6c3824addf" y="171.004007"/>
     <use style="stroke:#000000;" x="239.203429" xlink:href="#m6c3824addf" y="174.075542"/>
     <use style="stroke:#000000;" x="237.407089" xlink:href="#m6c3824addf" y="174.528"/>
     <use style="stroke:#000000;" x="236.16" xlink:href="#m6c3824addf" y="173.887942"/>
     <use style="stroke:#000000;" x="236.282549" xlink:href="#m6c3824addf" y="172.976073"/>
     <use style="stroke:#000000;" x="238.290254" xlink:href="#m6c3824addf" y="174.528"/>
     <use style="stroke:#000000;" x="239.019513" xlink:href="#m6c3824addf" y="173.623299"/>
     <use style="stroke:#000000;" x="239.548621" xlink:href="#m6c3824addf" y="173.762029"/>
     <use style="stroke:#000000;" x="241.203776" xlink:href="#m6c3824addf" y="173.535439"/>
     <use style="stroke:#000000;" x="239.49469" xlink:href="#m6c3824addf" y="173.67768"/>
     <use style="stroke:#000000;" x="236.16" xlink:href="#m6c3824addf" y="173.76552"/>
     <use style="stroke:#000000;" x="236.16" xlink:href="#m6c3824addf" y="172.532605"/>
     <use style="stroke:#000000;" x="237.834056" xlink:href="#m6c3824addf" y="172.762473"/>
     <use style="stroke:#000000;" x="236.177043" xlink:href="#m6c3824addf" y="174.528"/>
     <use style="stroke:#000000;" x="236.16" xlink:href="#m6c3824addf" y="172.412082"/>
     <use style="stroke:#000000;" x="238.307713" xlink:href="#m6c3824addf" y="172.227962"/>
     <use style="stroke:#000000;" x="236.16" xlink:href="#m6c3824addf" y="174.161446"/>
     <use style="stroke:#000000;" x="236.768071" xlink:href="#m6c3824addf" y="173.063697"/>
     <use style="stroke:#000000;" x="245.274812" xlink:href="#m6c3824addf" y="172.203776"/>
     <use style="stroke:#000000;" x="244.902857" xlink:href="#m6c3824addf" y="170.311359"/>
     <use style="stroke:#000000;" x="244.234312" xlink:href="#m6c3824addf" y="172.547069"/>
     <use style="stroke:#000000;" x="245.157176" xlink:href="#m6c3824addf" y="171.711418"/>
     <use style="stroke:#000000;" x="241.310075" xlink:href="#m6c3824addf" y="174.528"/>
     <use style="stroke:#000000;" x="241.699645" xlink:href="#m6c3824addf" y="174.51369"/>
     <use style="stroke:#000000;" x="243.999847" xlink:href="#m6c3824addf" y="172.078113"/>
     <use style="stroke:#000000;" x="244.89423" xlink:href="#m6c3824addf" y="171.713902"/>
     <use style="stroke:#000000;" x="244.554114" xlink:href="#m6c3824addf" y="170.880689"/>
     <use style="stroke:#000000;" x="240.698169" xlink:href="#m6c3824addf" y="174.528"/>
     <use style="stroke:#000000;" x="241.374886" xlink:href="#m6c3824addf" y="172.937252"/>
     <use style="stroke:#000000;" x="239.542381" xlink:href="#m6c3824addf" y="171.906581"/>
     <use style="stroke:#000000;" x="240.049999" xlink:href="#m6c3824addf" y="173.1293"/>
     <use style="stroke:#000000;" x="240.259725" xlink:href="#m6c3824addf" y="172.974646"/>
     <use style="stroke:#000000;" x="240.874608" xlink:href="#m6c3824addf" y="174.19476"/>
     <use style="stroke:#000000;" x="239.24093" xlink:href="#m6c3824addf" y="171.230433"/>
     <use style="stroke:#000000;" x="240.446936" xlink:href="#m6c3824addf" y="171.799236"/>
     <use style="stroke:#000000;" x="236.932692" xlink:href="#m6c3824addf" y="174.528"/>
     <use style="stroke:#000000;" x="237.817834" xlink:href="#m6c3824addf" y="173.74326"/>
     <use style="stroke:#000000;" x="237.748515" xlink:href="#m6c3824addf" y="173.866739"/>
     <use style="stroke:#000000;" x="236.16" xlink:href="#m6c3824addf" y="174.528"/>
     <use style="stroke:#000000;" x="243.738797" xlink:href="#m6c3824addf" y="170.454826"/>
     <use style="stroke:#000000;" x="244.099106" xlink:href="#m6c3824addf" y="167.192032"/>
     <use style="stroke:#000000;" x="243.592647" xlink:href="#m6c3824addf" y="168.337662"/>
     <use style="stroke:#000000;" x="242.998131" xlink:href="#m6c3824addf" y="170.795922"/>
     <use style="stroke:#000000;" x="242.415826" xlink:href="#m6c3824addf" y="171.445973"/>
     <use style="stroke:#000000;" x="236.16" xlink:href="#m6c3824addf" y="172.854186"/>
     <use style="stroke:#000000;" x="236.436159" xlink:href="#m6c3824addf" y="172.880626"/>
     <use style="stroke:#000000;" x="237.673089" xlink:href="#m6c3824addf" y="174.528"/>
     <use style="stroke:#000000;" x="236.16" xlink:href="#m6c3824addf" y="173.432323"/>
     <use style="stroke:#000000;" x="241.136045" xlink:href="#m6c3824addf" y="174.528"/>
     <use style="stroke:#000000;" x="240.470334" xlink:href="#m6c3824addf" y="174.528"/>
     <use style="stroke:#000000;" x="241.259085" xlink:href="#m6c3824addf" y="174.528"/>
     <use style="stroke:#000000;" x="240.413252" xlink:href="#m6c3824addf" y="172.351391"/>
     <use style="stroke:#000000;" x="238.925524" xlink:href="#m6c3824addf" y="173.84813"/>
     <use style="stroke:#000000;" x="240.896051" xlink:href="#m6c3824addf" y="174.048094"/>
     <use style="stroke:#000000;" x="237.361595" xlink:href="#m6c3824addf" y="173.657271"/>
     <use style="stroke:#000000;" x="236.16" xlink:href="#m6c3824addf" y="173.535617"/>
     <use style="stroke:#000000;" x="244.124966" xlink:href="#m6c3824addf" y="170.066422"/>
     <use style="stroke:#000000;" x="245.317266" xlink:href="#m6c3824addf" y="170.728232"/>
     <use style="stroke:#000000;" x="237.951149" xlink:href="#m6c3824addf" y="172.828894"/>
     <use style="stroke:#000000;" x="237.278932" xlink:href="#m6c3824addf" y="171.662454"/>
     <use style="stroke:#000000;" x="242.810704" xlink:href="#m6c3824addf" y="173.14965"/>
     <use style="stroke:#000000;" x="244.788286" xlink:href="#m6c3824addf" y="172.956891"/>
     <use style="stroke:#000000;" x="237.338559" xlink:href="#m6c3824addf" y="174.528"/>
     <use style="stroke:#000000;" x="237.749238" xlink:href="#m6c3824addf" y="174.528"/>
     <use style="stroke:#000000;" x="236.372436" xlink:href="#m6c3824addf" y="174.528"/>
     <use style="stroke:#000000;" x="243.192454" xlink:href="#m6c3824addf" y="171.38374"/>
     <use style="stroke:#000000;" x="246.334716" xlink:href="#m6c3824addf" y="169.206537"/>
     <use style="stroke:#000000;" x="237.352918" xlink:href="#m6c3824addf" y="173.814408"/>
     <use style="stroke:#000000;" x="250.183623" xlink:href="#m6c3824addf" y="166.062917"/>
     <use style="stroke:#000000;" x="237.545625" xlink:href="#m6c3824addf" y="173.315435"/>
     <use style="stroke:#000000;" x="240.336701" xlink:href="#m6c3824addf" y="167.817813"/>
     <use style="stroke:#000000;" x="238.989087" xlink:href="#m6c3824addf" y="172.777181"/>
     <use style="stroke:#000000;" x="240.45066" xlink:href="#m6c3824addf" y="170.877633"/>
     <use style="stroke:#000000;" x="237.521468" xlink:href="#m6c3824addf" y="174.528"/>
     <use style="stroke:#000000;" x="236.16" xlink:href="#m6c3824addf" y="173.969936"/>
     <use style="stroke:#000000;" x="243.668594" xlink:href="#m6c3824addf" y="174.528"/>
     <use style="stroke:#000000;" x="239.887874" xlink:href="#m6c3824addf" y="170.095989"/>
     <use style="stroke:#000000;" x="242.240739" xlink:href="#m6c3824addf" y="169.102974"/>
     <use style="stroke:#000000;" x="238.966006" xlink:href="#m6c3824addf" y="172.397583"/>
     <use style="stroke:#000000;" x="238.516724" xlink:href="#m6c3824addf" y="174.528"/>
     <use style="stroke:#000000;" x="243.350176" xlink:href="#m6c3824addf" y="168.852738"/>
     <use style="stroke:#000000;" x="244.982584" xlink:href="#m6c3824addf" y="169.69999"/>
     <use style="stroke:#000000;" x="238.11426" xlink:href="#m6c3824addf" y="174.350698"/>
     <use style="stroke:#000000;" x="240.332318" xlink:href="#m6c3824addf" y="174.528"/>
     <use style="stroke:#000000;" x="236.16" xlink:href="#m6c3824addf" y="174.147315"/>
     <use style="stroke:#000000;" x="236.16" xlink:href="#m6c3824addf" y="173.492453"/>
     <use style="stroke:#000000;" x="236.700359" xlink:href="#m6c3824addf" y="172.896784"/>
     <use style="stroke:#000000;" x="244.843908" xlink:href="#m6c3824addf" y="170.751597"/>
     <use style="stroke:#000000;" x="239.058366" xlink:href="#m6c3824addf" y="170.778413"/>
     <use style="stroke:#000000;" x="243.916192" xlink:href="#m6c3824addf" y="169.159947"/>
     <use style="stroke:#000000;" x="246.201085" xlink:href="#m6c3824addf" y="168.893715"/>
     <use style="stroke:#000000;" x="243.963789" xlink:href="#m6c3824addf" y="168.69276"/>
     <use style="stroke:#000000;" x="243.052194" xlink:href="#m6c3824addf" y="169.762702"/>
     <use style="stroke:#000000;" x="244.778054" xlink:href="#m6c3824addf" y="171.683946"/>
     <use style="stroke:#000000;" x="240.210725" xlink:href="#m6c3824addf" y="173.105313"/>
     <use style="stroke:#000000;" x="236.473604" xlink:href="#m6c3824addf" y="173.041866"/>
    </g>
   </g>
   <g id="PathCollection_2">
    <defs>
     <path d="M 0 0.935414 
C 0.248075 0.935414 0.486022 0.836853 0.661438 0.661438 
C 0.836853 0.486022 0.935414 0.248075 0.935414 0 
C 0.935414 -0.248075 0.836853 -0.486022 0.661438 -0.661438 
C 0.486022 -0.836853 0.248075 -0.935414 0 -0.935414 
C -0.248075 -0.935414 -0.486022 -0.836853 -0.661438 -0.661438 
C -0.836853 -0.486022 -0.935414 -0.248075 -0.935414 0 
C -0.935414 0.248075 -0.836853 0.486022 -0.661438 0.661438 
C -0.486022 0.836853 -0.248075 0.935414 0 0.935414 
z
" id="ma05f0b2e4e" style="stroke:#0000ff;"/>
    </defs>
    <g clip-path="url(#p668c0c532d)">
     <use style="fill:#0000ff;stroke:#0000ff;" x="243.959247" xlink:href="#ma05f0b2e4e" y="169.493516"/>
     <use style="fill:#0000ff;stroke:#0000ff;" x="244.233276" xlink:href="#ma05f0b2e4e" y="174.528"/>
     <use style="fill:#0000ff;stroke:#0000ff;" x="237.582924" xlink:href="#ma05f0b2e4e" y="174.528"/>
     <use style="fill:#0000ff;stroke:#0000ff;" x="236.343975" xlink:href="#ma05f0b2e4e" y="174.451391"/>
     <use style="fill:#0000ff;stroke:#0000ff;" x="236.424773" xlink:href="#ma05f0b2e4e" y="174.485086"/>
     <use style="fill:#0000ff;stroke:#0000ff;" x="240.326773" xlink:href="#ma05f0b2e4e" y="174.528"/>
     <use style="fill:#0000ff;stroke:#0000ff;" x="237.142844" xlink:href="#ma05f0b2e4e" y="173.262324"/>
     <use style="fill:#0000ff;stroke:#0000ff;" x="237.033391" xlink:href="#ma05f0b2e4e" y="173.56916"/>
     <use style="fill:#0000ff;stroke:#0000ff;" x="240.931074" xlink:href="#ma05f0b2e4e" y="174.333364"/>
     <use style="fill:#0000ff;stroke:#0000ff;" x="240.1483" xlink:href="#ma05f0b2e4e" y="169.342907"/>
     <use style="fill:#0000ff;stroke:#0000ff;" x="243.99711" xlink:href="#ma05f0b2e4e" y="171.719437"/>
     <use style="fill:#0000ff;stroke:#0000ff;" x="236.640771" xlink:href="#ma05f0b2e4e" y="174.038269"/>
     <use style="fill:#0000ff;stroke:#0000ff;" x="244.158752" xlink:href="#ma05f0b2e4e" y="169.984482"/>
     <use style="fill:#0000ff;stroke:#0000ff;" x="247.789073" xlink:href="#ma05f0b2e4e" y="167.059614"/>
     <use style="fill:#0000ff;stroke:#0000ff;" x="236.16" xlink:href="#ma05f0b2e4e" y="174.528"/>
     <use style="fill:#0000ff;stroke:#0000ff;" x="236.424479" xlink:href="#ma05f0b2e4e" y="174.528"/>
     <use style="fill:#0000ff;stroke:#0000ff;" x="240.22867" xlink:href="#ma05f0b2e4e" y="174.528"/>
     <use style="fill:#0000ff;stroke:#0000ff;" x="236.637196" xlink:href="#ma05f0b2e4e" y="173.002799"/>
     <use style="fill:#0000ff;stroke:#0000ff;" x="236.273422" xlink:href="#ma05f0b2e4e" y="174.528"/>
     <use style="fill:#0000ff;stroke:#0000ff;" x="240.559753" xlink:href="#ma05f0b2e4e" y="174.528"/>
     <use style="fill:#0000ff;stroke:#0000ff;" x="244.119578" xlink:href="#ma05f0b2e4e" y="168.636072"/>
     <use style="fill:#0000ff;stroke:#0000ff;" x="244.296995" xlink:href="#ma05f0b2e4e" y="170.493002"/>
     <use style="fill:#0000ff;stroke:#0000ff;" x="237.800392" xlink:href="#ma05f0b2e4e" y="174.528"/>
     <use style="fill:#0000ff;stroke:#0000ff;" x="237.396276" xlink:href="#ma05f0b2e4e" y="173.43596"/>
     <use style="fill:#0000ff;stroke:#0000ff;" x="237.435066" xlink:href="#ma05f0b2e4e" y="174.181263"/>
     <use style="fill:#0000ff;stroke:#0000ff;" x="240.506798" xlink:href="#ma05f0b2e4e" y="173.746589"/>
     <use style="fill:#0000ff;stroke:#0000ff;" x="236.435482" xlink:href="#ma05f0b2e4e" y="173.786719"/>
     <use style="fill:#0000ff;stroke:#0000ff;" x="237.191091" xlink:href="#ma05f0b2e4e" y="174.528"/>
     <use style="fill:#0000ff;stroke:#0000ff;" x="236.548681" xlink:href="#ma05f0b2e4e" y="172.7995"/>
     <use style="fill:#0000ff;stroke:#0000ff;" x="236.369726" xlink:href="#ma05f0b2e4e" y="172.791063"/>
     <use style="fill:#0000ff;stroke:#0000ff;" x="243.793952" xlink:href="#ma05f0b2e4e" y="171.319913"/>
     <use style="fill:#0000ff;stroke:#0000ff;" x="243.824543" xlink:href="#ma05f0b2e4e" y="171.304442"/>
     <use style="fill:#0000ff;stroke:#0000ff;" x="240.638683" xlink:href="#ma05f0b2e4e" y="174.264059"/>
     <use style="fill:#0000ff;stroke:#0000ff;" x="243.893697" xlink:href="#ma05f0b2e4e" y="171.335819"/>
     <use style="fill:#0000ff;stroke:#0000ff;" x="240.735019" xlink:href="#ma05f0b2e4e" y="174.528"/>
     <use style="fill:#0000ff;stroke:#0000ff;" x="240.495717" xlink:href="#ma05f0b2e4e" y="173.706591"/>
     <use style="fill:#0000ff;stroke:#0000ff;" x="240.245351" xlink:href="#ma05f0b2e4e" y="173.257029"/>
     <use style="fill:#0000ff;stroke:#0000ff;" x="239.741182" xlink:href="#ma05f0b2e4e" y="171.960011"/>
     <use style="fill:#0000ff;stroke:#0000ff;" x="237.055448" xlink:href="#ma05f0b2e4e" y="173.375097"/>
     <use style="fill:#0000ff;stroke:#0000ff;" x="237.049456" xlink:href="#ma05f0b2e4e" y="174.528"/>
     <use style="fill:#0000ff;stroke:#0000ff;" x="244.252775" xlink:href="#ma05f0b2e4e" y="168.283103"/>
     <use style="fill:#0000ff;stroke:#0000ff;" x="244.153709" xlink:href="#ma05f0b2e4e" y="170.473025"/>
     <use style="fill:#0000ff;stroke:#0000ff;" x="236.656288" xlink:href="#ma05f0b2e4e" y="173.427841"/>
     <use style="fill:#0000ff;stroke:#0000ff;" x="237.003602" xlink:href="#ma05f0b2e4e" y="174.276408"/>
     <use style="fill:#0000ff;stroke:#0000ff;" x="240.887797" xlink:href="#ma05f0b2e4e" y="174.528"/>
     <use style="fill:#0000ff;stroke:#0000ff;" x="240.792952" xlink:href="#ma05f0b2e4e" y="173.318933"/>
     <use style="fill:#0000ff;stroke:#0000ff;" x="236.312538" xlink:href="#ma05f0b2e4e" y="174.085156"/>
     <use style="fill:#0000ff;stroke:#0000ff;" x="244.279387" xlink:href="#ma05f0b2e4e" y="171.051138"/>
     <use style="fill:#0000ff;stroke:#0000ff;" x="236.744164" xlink:href="#ma05f0b2e4e" y="173.029943"/>
     <use style="fill:#0000ff;stroke:#0000ff;" x="244.516786" xlink:href="#ma05f0b2e4e" y="174.121853"/>
     <use style="fill:#0000ff;stroke:#0000ff;" x="236.16" xlink:href="#ma05f0b2e4e" y="174.528"/>
     <use style="fill:#0000ff;stroke:#0000ff;" x="244.309493" xlink:href="#ma05f0b2e4e" y="170.841242"/>
     <use style="fill:#0000ff;stroke:#0000ff;" x="238.176346" xlink:href="#ma05f0b2e4e" y="172.565797"/>
     <use style="fill:#0000ff;stroke:#0000ff;" x="247.482411" xlink:href="#ma05f0b2e4e" y="166.966036"/>
     <use style="fill:#0000ff;stroke:#0000ff;" x="237.622155" xlink:href="#ma05f0b2e4e" y="173.079601"/>
     <use style="fill:#0000ff;stroke:#0000ff;" x="237.369275" xlink:href="#ma05f0b2e4e" y="169.879356"/>
     <use style="fill:#0000ff;stroke:#0000ff;" x="237.511996" xlink:href="#ma05f0b2e4e" y="174.528"/>
     <use style="fill:#0000ff;stroke:#0000ff;" x="239.75202" xlink:href="#ma05f0b2e4e" y="169.187153"/>
     <use style="fill:#0000ff;stroke:#0000ff;" x="236.581601" xlink:href="#ma05f0b2e4e" y="174.528"/>
     <use style="fill:#0000ff;stroke:#0000ff;" x="236.557144" xlink:href="#ma05f0b2e4e" y="174.504991"/>
     <use style="fill:#0000ff;stroke:#0000ff;" x="240.720562" xlink:href="#ma05f0b2e4e" y="174.528"/>
     <use style="fill:#0000ff;stroke:#0000ff;" x="240.649969" xlink:href="#ma05f0b2e4e" y="172.277558"/>
     <use style="fill:#0000ff;stroke:#0000ff;" x="240.669734" xlink:href="#ma05f0b2e4e" y="169.024131"/>
     <use style="fill:#0000ff;stroke:#0000ff;" x="240.637862" xlink:href="#ma05f0b2e4e" y="174.434146"/>
     <use style="fill:#0000ff;stroke:#0000ff;" x="240.61908" xlink:href="#ma05f0b2e4e" y="174.288608"/>
     <use style="fill:#0000ff;stroke:#0000ff;" x="243.847377" xlink:href="#ma05f0b2e4e" y="170.155115"/>
     <use style="fill:#0000ff;stroke:#0000ff;" x="244.100928" xlink:href="#ma05f0b2e4e" y="168.981575"/>
     <use style="fill:#0000ff;stroke:#0000ff;" x="237.093459" xlink:href="#ma05f0b2e4e" y="174.528"/>
     <use style="fill:#0000ff;stroke:#0000ff;" x="240.269715" xlink:href="#ma05f0b2e4e" y="173.615368"/>
     <use style="fill:#0000ff;stroke:#0000ff;" x="236.674044" xlink:href="#ma05f0b2e4e" y="172.846252"/>
     <use style="fill:#0000ff;stroke:#0000ff;" x="237.011162" xlink:href="#ma05f0b2e4e" y="172.803308"/>
     <use style="fill:#0000ff;stroke:#0000ff;" x="236.829058" xlink:href="#ma05f0b2e4e" y="172.562395"/>
     <use style="fill:#0000ff;stroke:#0000ff;" x="244.213249" xlink:href="#ma05f0b2e4e" y="169.777436"/>
     <use style="fill:#0000ff;stroke:#0000ff;" x="239.792765" xlink:href="#ma05f0b2e4e" y="171.883821"/>
     <use style="fill:#0000ff;stroke:#0000ff;" x="244.022395" xlink:href="#ma05f0b2e4e" y="170.187275"/>
     <use style="fill:#0000ff;stroke:#0000ff;" x="244.28551" xlink:href="#ma05f0b2e4e" y="169.110915"/>
     <use style="fill:#0000ff;stroke:#0000ff;" x="244.320099" xlink:href="#ma05f0b2e4e" y="170.222978"/>
     <use style="fill:#0000ff;stroke:#0000ff;" x="244.312925" xlink:href="#ma05f0b2e4e" y="171.276256"/>
     <use style="fill:#0000ff;stroke:#0000ff;" x="240.862896" xlink:href="#ma05f0b2e4e" y="173.810715"/>
     <use style="fill:#0000ff;stroke:#0000ff;" x="236.361316" xlink:href="#ma05f0b2e4e" y="173.219736"/>
    </g>
   </g>
   <g id="matplotlib.axis_1">
    <g id="xtick_1">
     <g id="line2d_1">
      <defs>
       <path d="M 0 0 
L 0 3.5 
" id="m731c4f5318" style="stroke:#000000;stroke-width:0.8;"/>
      </defs>
      <g>
       <use style="stroke:#000000;stroke-width:0.8;" x="57.6" xlink:href="#m731c4f5318" y="307.584"/>
      </g>
     </g>
     <g id="text_1">
      <!-- −10.0 -->
      <defs>
       <path d="M 10.59375 35.5 
L 73.1875 35.5 
L 73.1875 27.203125 
L 10.59375 27.203125 
z
" id="DejaVuSans-2212"/>
       <path d="M 12.40625 8.296875 
L 28.515625 8.296875 
L 28.515625 63.921875 
L 10.984375 60.40625 
L 10.984375 69.390625 
L 28.421875 72.90625 
L 38.28125 72.90625 
L 38.28125 8.296875 
L 54.390625 8.296875 
L 54.390625 0 
L 12.40625 0 
z
" id="DejaVuSans-31"/>
       <path d="M 31.78125 66.40625 
Q 24.171875 66.40625 20.328125 58.90625 
Q 16.5 51.421875 16.5 36.375 
Q 16.5 21.390625 20.328125 13.890625 
Q 24.171875 6.390625 31.78125 6.390625 
Q 39.453125 6.390625 43.28125 13.890625 
Q 47.125 21.390625 47.125 36.375 
Q 47.125 51.421875 43.28125 58.90625 
Q 39.453125 66.40625 31.78125 66.40625 
z
M 31.78125 74.21875 
Q 44.046875 74.21875 50.515625 64.515625 
Q 56.984375 54.828125 56.984375 36.375 
Q 56.984375 17.96875 50.515625 8.265625 
Q 44.046875 -1.421875 31.78125 -1.421875 
Q 19.53125 -1.421875 13.0625 8.265625 
Q 6.59375 17.96875 6.59375 36.375 
Q 6.59375 54.828125 13.0625 64.515625 
Q 19.53125 74.21875 31.78125 74.21875 
z
" id="DejaVuSans-30"/>
       <path d="M 10.6875 12.40625 
L 21 12.40625 
L 21 0 
L 10.6875 0 
z
" id="DejaVuSans-2e"/>
      </defs>
      <g transform="translate(42.277344 322.182437)scale(0.1 -0.1)">
       <use xlink:href="#DejaVuSans-2212"/>
       <use x="83.789062" xlink:href="#DejaVuSans-31"/>
       <use x="147.412109" xlink:href="#DejaVuSans-30"/>
       <use x="211.035156" xlink:href="#DejaVuSans-2e"/>
       <use x="242.822266" xlink:href="#DejaVuSans-30"/>
      </g>
     </g>
    </g>
    <g id="xtick_2">
     <g id="line2d_2">
      <g>
       <use style="stroke:#000000;stroke-width:0.8;" x="102.24" xlink:href="#m731c4f5318" y="307.584"/>
      </g>
     </g>
     <g id="text_2">
      <!-- −7.5 -->
      <defs>
       <path d="M 8.203125 72.90625 
L 55.078125 72.90625 
L 55.078125 68.703125 
L 28.609375 0 
L 18.3125 0 
L 43.21875 64.59375 
L 8.203125 64.59375 
z
" id="DejaVuSans-37"/>
       <path d="M 10.796875 72.90625 
L 49.515625 72.90625 
L 49.515625 64.59375 
L 19.828125 64.59375 
L 19.828125 46.734375 
Q 21.96875 47.46875 24.109375 47.828125 
Q 26.265625 48.1875 28.421875 48.1875 
Q 40.625 48.1875 47.75 41.5 
Q 54.890625 34.8125 54.890625 23.390625 
Q 54.890625 11.625 47.5625 5.09375 
Q 40.234375 -1.421875 26.90625 -1.421875 
Q 22.3125 -1.421875 17.546875 -0.640625 
Q 12.796875 0.140625 7.71875 1.703125 
L 7.71875 11.625 
Q 12.109375 9.234375 16.796875 8.0625 
Q 21.484375 6.890625 26.703125 6.890625 
Q 35.15625 6.890625 40.078125 11.328125 
Q 45.015625 15.765625 45.015625 23.390625 
Q 45.015625 31 40.078125 35.4375 
Q 35.15625 39.890625 26.703125 39.890625 
Q 22.75 39.890625 18.8125 39.015625 
Q 14.890625 38.140625 10.796875 36.28125 
z
" id="DejaVuSans-35"/>
      </defs>
      <g transform="translate(90.098594 322.182437)scale(0.1 -0.1)">
       <use xlink:href="#DejaVuSans-2212"/>
       <use x="83.789062" xlink:href="#DejaVuSans-37"/>
       <use x="147.412109" xlink:href="#DejaVuSans-2e"/>
       <use x="179.199219" xlink:href="#DejaVuSans-35"/>
      </g>
     </g>
    </g>
    <g id="xtick_3">
     <g id="line2d_3">
      <g>
       <use style="stroke:#000000;stroke-width:0.8;" x="146.88" xlink:href="#m731c4f5318" y="307.584"/>
      </g>
     </g>
     <g id="text_3">
      <!-- −5.0 -->
      <g transform="translate(134.738594 322.182437)scale(0.1 -0.1)">
       <use xlink:href="#DejaVuSans-2212"/>
       <use x="83.789062" xlink:href="#DejaVuSans-35"/>
       <use x="147.412109" xlink:href="#DejaVuSans-2e"/>
       <use x="179.199219" xlink:href="#DejaVuSans-30"/>
      </g>
     </g>
    </g>
    <g id="xtick_4">
     <g id="line2d_4">
      <g>
       <use style="stroke:#000000;stroke-width:0.8;" x="191.52" xlink:href="#m731c4f5318" y="307.584"/>
      </g>
     </g>
     <g id="text_4">
      <!-- −2.5 -->
      <defs>
       <path d="M 19.1875 8.296875 
L 53.609375 8.296875 
L 53.609375 0 
L 7.328125 0 
L 7.328125 8.296875 
Q 12.9375 14.109375 22.625 23.890625 
Q 32.328125 33.6875 34.8125 36.53125 
Q 39.546875 41.84375 41.421875 45.53125 
Q 43.3125 49.21875 43.3125 52.78125 
Q 43.3125 58.59375 39.234375 62.25 
Q 35.15625 65.921875 28.609375 65.921875 
Q 23.96875 65.921875 18.8125 64.3125 
Q 13.671875 62.703125 7.8125 59.421875 
L 7.8125 69.390625 
Q 13.765625 71.78125 18.9375 73 
Q 24.125 74.21875 28.421875 74.21875 
Q 39.75 74.21875 46.484375 68.546875 
Q 53.21875 62.890625 53.21875 53.421875 
Q 53.21875 48.921875 51.53125 44.890625 
Q 49.859375 40.875 45.40625 35.40625 
Q 44.1875 33.984375 37.640625 27.21875 
Q 31.109375 20.453125 19.1875 8.296875 
z
" id="DejaVuSans-32"/>
      </defs>
      <g transform="translate(179.378594 322.182437)scale(0.1 -0.1)">
       <use xlink:href="#DejaVuSans-2212"/>
       <use x="83.789062" xlink:href="#DejaVuSans-32"/>
       <use x="147.412109" xlink:href="#DejaVuSans-2e"/>
       <use x="179.199219" xlink:href="#DejaVuSans-35"/>
      </g>
     </g>
    </g>
    <g id="xtick_5">
     <g id="line2d_5">
      <g>
       <use style="stroke:#000000;stroke-width:0.8;" x="236.16" xlink:href="#m731c4f5318" y="307.584"/>
      </g>
     </g>
     <g id="text_5">
      <!-- 0.0 -->
      <g transform="translate(228.208438 322.182437)scale(0.1 -0.1)">
       <use xlink:href="#DejaVuSans-30"/>
       <use x="63.623047" xlink:href="#DejaVuSans-2e"/>
       <use x="95.410156" xlink:href="#DejaVuSans-30"/>
      </g>
     </g>
    </g>
    <g id="xtick_6">
     <g id="line2d_6">
      <g>
       <use style="stroke:#000000;stroke-width:0.8;" x="280.8" xlink:href="#m731c4f5318" y="307.584"/>
      </g>
     </g>
     <g id="text_6">
      <!-- 2.5 -->
      <g transform="translate(272.848437 322.182437)scale(0.1 -0.1)">
       <use xlink:href="#DejaVuSans-32"/>
       <use x="63.623047" xlink:href="#DejaVuSans-2e"/>
       <use x="95.410156" xlink:href="#DejaVuSans-35"/>
      </g>
     </g>
    </g>
    <g id="xtick_7">
     <g id="line2d_7">
      <g>
       <use style="stroke:#000000;stroke-width:0.8;" x="325.44" xlink:href="#m731c4f5318" y="307.584"/>
      </g>
     </g>
     <g id="text_7">
      <!-- 5.0 -->
      <g transform="translate(317.488437 322.182437)scale(0.1 -0.1)">
       <use xlink:href="#DejaVuSans-35"/>
       <use x="63.623047" xlink:href="#DejaVuSans-2e"/>
       <use x="95.410156" xlink:href="#DejaVuSans-30"/>
      </g>
     </g>
    </g>
    <g id="xtick_8">
     <g id="line2d_8">
      <g>
       <use style="stroke:#000000;stroke-width:0.8;" x="370.08" xlink:href="#m731c4f5318" y="307.584"/>
      </g>
     </g>
     <g id="text_8">
      <!-- 7.5 -->
      <g transform="translate(362.128438 322.182437)scale(0.1 -0.1)">
       <use xlink:href="#DejaVuSans-37"/>
       <use x="63.623047" xlink:href="#DejaVuSans-2e"/>
       <use x="95.410156" xlink:href="#DejaVuSans-35"/>
      </g>
     </g>
    </g>
    <g id="xtick_9">
     <g id="line2d_9">
      <g>
       <use style="stroke:#000000;stroke-width:0.8;" x="414.72" xlink:href="#m731c4f5318" y="307.584"/>
      </g>
     </g>
     <g id="text_9">
      <!-- 10.0 -->
      <g transform="translate(403.587188 322.182437)scale(0.1 -0.1)">
       <use xlink:href="#DejaVuSans-31"/>
       <use x="63.623047" xlink:href="#DejaVuSans-30"/>
       <use x="127.246094" xlink:href="#DejaVuSans-2e"/>
       <use x="159.033203" xlink:href="#DejaVuSans-30"/>
      </g>
     </g>
    </g>
   </g>
   <g id="matplotlib.axis_2">
    <g id="ytick_1">
     <g id="line2d_10">
      <defs>
       <path d="M 0 0 
L -3.5 0 
" id="m27f661d44e" style="stroke:#000000;stroke-width:0.8;"/>
      </defs>
      <g>
       <use style="stroke:#000000;stroke-width:0.8;" x="57.6" xlink:href="#m27f661d44e" y="307.584"/>
      </g>
     </g>
     <g id="text_10">
      <!-- −10.0 -->
      <g transform="translate(19.954687 311.383219)scale(0.1 -0.1)">
       <use xlink:href="#DejaVuSans-2212"/>
       <use x="83.789062" xlink:href="#DejaVuSans-31"/>
       <use x="147.412109" xlink:href="#DejaVuSans-30"/>
       <use x="211.035156" xlink:href="#DejaVuSans-2e"/>
       <use x="242.822266" xlink:href="#DejaVuSans-30"/>
      </g>
     </g>
    </g>
    <g id="ytick_2">
     <g id="line2d_11">
      <g>
       <use style="stroke:#000000;stroke-width:0.8;" x="57.6" xlink:href="#m27f661d44e" y="274.32"/>
      </g>
     </g>
     <g id="text_11">
      <!-- −7.5 -->
      <g transform="translate(26.317187 278.119219)scale(0.1 -0.1)">
       <use xlink:href="#DejaVuSans-2212"/>
       <use x="83.789062" xlink:href="#DejaVuSans-37"/>
       <use x="147.412109" xlink:href="#DejaVuSans-2e"/>
       <use x="179.199219" xlink:href="#DejaVuSans-35"/>
      </g>
     </g>
    </g>
    <g id="ytick_3">
     <g id="line2d_12">
      <g>
       <use style="stroke:#000000;stroke-width:0.8;" x="57.6" xlink:href="#m27f661d44e" y="241.056"/>
      </g>
     </g>
     <g id="text_12">
      <!-- −5.0 -->
      <g transform="translate(26.317187 244.855219)scale(0.1 -0.1)">
       <use xlink:href="#DejaVuSans-2212"/>
       <use x="83.789062" xlink:href="#DejaVuSans-35"/>
       <use x="147.412109" xlink:href="#DejaVuSans-2e"/>
       <use x="179.199219" xlink:href="#DejaVuSans-30"/>
      </g>
     </g>
    </g>
    <g id="ytick_4">
     <g id="line2d_13">
      <g>
       <use style="stroke:#000000;stroke-width:0.8;" x="57.6" xlink:href="#m27f661d44e" y="207.792"/>
      </g>
     </g>
     <g id="text_13">
      <!-- −2.5 -->
      <g transform="translate(26.317187 211.591219)scale(0.1 -0.1)">
       <use xlink:href="#DejaVuSans-2212"/>
       <use x="83.789062" xlink:href="#DejaVuSans-32"/>
       <use x="147.412109" xlink:href="#DejaVuSans-2e"/>
       <use x="179.199219" xlink:href="#DejaVuSans-35"/>
      </g>
     </g>
    </g>
    <g id="ytick_5">
     <g id="line2d_14">
      <g>
       <use style="stroke:#000000;stroke-width:0.8;" x="57.6" xlink:href="#m27f661d44e" y="174.528"/>
      </g>
     </g>
     <g id="text_14">
      <!-- 0.0 -->
      <g transform="translate(34.696875 178.327219)scale(0.1 -0.1)">
       <use xlink:href="#DejaVuSans-30"/>
       <use x="63.623047" xlink:href="#DejaVuSans-2e"/>
       <use x="95.410156" xlink:href="#DejaVuSans-30"/>
      </g>
     </g>
    </g>
    <g id="ytick_6">
     <g id="line2d_15">
      <g>
       <use style="stroke:#000000;stroke-width:0.8;" x="57.6" xlink:href="#m27f661d44e" y="141.264"/>
      </g>
     </g>
     <g id="text_15">
      <!-- 2.5 -->
      <g transform="translate(34.696875 145.063219)scale(0.1 -0.1)">
       <use xlink:href="#DejaVuSans-32"/>
       <use x="63.623047" xlink:href="#DejaVuSans-2e"/>
       <use x="95.410156" xlink:href="#DejaVuSans-35"/>
      </g>
     </g>
    </g>
    <g id="ytick_7">
     <g id="line2d_16">
      <g>
       <use style="stroke:#000000;stroke-width:0.8;" x="57.6" xlink:href="#m27f661d44e" y="108"/>
      </g>
     </g>
     <g id="text_16">
      <!-- 5.0 -->
      <g transform="translate(34.696875 111.799219)scale(0.1 -0.1)">
       <use xlink:href="#DejaVuSans-35"/>
       <use x="63.623047" xlink:href="#DejaVuSans-2e"/>
       <use x="95.410156" xlink:href="#DejaVuSans-30"/>
      </g>
     </g>
    </g>
    <g id="ytick_8">
     <g id="line2d_17">
      <g>
       <use style="stroke:#000000;stroke-width:0.8;" x="57.6" xlink:href="#m27f661d44e" y="74.736"/>
      </g>
     </g>
     <g id="text_17">
      <!-- 7.5 -->
      <g transform="translate(34.696875 78.535219)scale(0.1 -0.1)">
       <use xlink:href="#DejaVuSans-37"/>
       <use x="63.623047" xlink:href="#DejaVuSans-2e"/>
       <use x="95.410156" xlink:href="#DejaVuSans-35"/>
      </g>
     </g>
    </g>
    <g id="ytick_9">
     <g id="line2d_18">
      <g>
       <use style="stroke:#000000;stroke-width:0.8;" x="57.6" xlink:href="#m27f661d44e" y="41.472"/>
      </g>
     </g>
     <g id="text_18">
      <!-- 10.0 -->
      <g transform="translate(28.334375 45.271219)scale(0.1 -0.1)">
       <use xlink:href="#DejaVuSans-31"/>
       <use x="63.623047" xlink:href="#DejaVuSans-30"/>
       <use x="127.246094" xlink:href="#DejaVuSans-2e"/>
       <use x="159.033203" xlink:href="#DejaVuSans-30"/>
      </g>
     </g>
    </g>
   </g>
   <g id="patch_3">
    <path d="M 57.6 307.584 
L 57.6 41.472 
" style="fill:none;stroke:#000000;stroke-linecap:square;stroke-linejoin:miter;stroke-width:0.8;"/>
   </g>
   <g id="patch_4">
    <path d="M 414.72 307.584 
L 414.72 41.472 
" style="fill:none;stroke:#000000;stroke-linecap:square;stroke-linejoin:miter;stroke-width:0.8;"/>
   </g>
   <g id="patch_5">
    <path d="M 57.6 307.584 
L 414.72 307.584 
" style="fill:none;stroke:#000000;stroke-linecap:square;stroke-linejoin:miter;stroke-width:0.8;"/>
   </g>
   <g id="patch_6">
    <path d="M 57.6 41.472 
L 414.72 41.472 
" style="fill:none;stroke:#000000;stroke-linecap:square;stroke-linejoin:miter;stroke-width:0.8;"/>
   </g>
  </g>
 </g>
 <defs>
  <clipPath id="p668c0c532d">
   <rect height="266.112" width="357.12" x="57.6" y="41.472"/>
  </clipPath>
 </defs>
</svg>
