<?xml version="1.0" encoding="utf-8" standalone="no"?>
<!DOCTYPE svg PUBLIC "-//W3C//DTD SVG 1.1//EN"
  "http://www.w3.org/Graphics/SVG/1.1/DTD/svg11.dtd">
<!-- Created with matplotlib (http://matplotlib.org/) -->
<svg height="345.6pt" version="1.1" viewBox="0 0 460.8 345.6" width="460.8pt" xmlns="http://www.w3.org/2000/svg" xmlns:xlink="http://www.w3.org/1999/xlink">
 <defs>
  <style type="text/css">
*{stroke-linecap:butt;stroke-linejoin:round;}
  </style>
 </defs>
 <g id="figure_1">
  <g id="patch_1">
   <path d="M 0 345.6 
L 460.8 345.6 
L 460.8 0 
L 0 0 
z
" style="fill:#ffffff;"/>
  </g>
  <g id="axes_1">
   <g id="patch_2">
    <path d="M 57.6 307.584 
L 414.72 307.584 
L 414.72 41.472 
L 57.6 41.472 
z
" style="fill:#ffffff;"/>
   </g>
   <g id="PathCollection_1">
    <defs>
     <path d="M 0 0.612372 
C 0.162403 0.612372 0.318176 0.547849 0.433013 0.433013 
C 0.547849 0.318176 0.612372 0.162403 0.612372 0 
C 0.612372 -0.162403 0.547849 -0.318176 0.433013 -0.433013 
C 0.318176 -0.547849 0.162403 -0.612372 0 -0.612372 
C -0.162403 -0.612372 -0.318176 -0.547849 -0.433013 -0.433013 
C -0.547849 -0.318176 -0.612372 -0.162403 -0.612372 0 
C -0.612372 0.162403 -0.547849 0.318176 -0.433013 0.433013 
C -0.318176 0.547849 -0.162403 0.612372 0 0.612372 
z
" id="m76d847370d" style="stroke:#000000;"/>
    </defs>
    <g clip-path="url(#pfd5dae9fdc)">
     <use style="stroke:#000000;" x="240.413252" xlink:href="#m76d847370d" y="172.351391"/>
     <use style="stroke:#000000;" x="243.959247" xlink:href="#m76d847370d" y="169.493516"/>
     <use style="stroke:#000000;" x="236.744333" xlink:href="#m76d847370d" y="173.520725"/>
     <use style="stroke:#000000;" x="236.273422" xlink:href="#m76d847370d" y="174.528"/>
     <use style="stroke:#000000;" x="236.834686" xlink:href="#m76d847370d" y="173.428375"/>
     <use style="stroke:#000000;" x="236.637196" xlink:href="#m76d847370d" y="173.002799"/>
     <use style="stroke:#000000;" x="240.446936" xlink:href="#m76d847370d" y="171.799236"/>
     <use style="stroke:#000000;" x="240.160195" xlink:href="#m76d847370d" y="174.528"/>
     <use style="stroke:#000000;" x="236.486239" xlink:href="#m76d847370d" y="174.438732"/>
     <use style="stroke:#000000;" x="236.615797" xlink:href="#m76d847370d" y="173.390847"/>
     <use style="stroke:#000000;" x="244.158752" xlink:href="#m76d847370d" y="169.984482"/>
     <use style="stroke:#000000;" x="236.16" xlink:href="#m76d847370d" y="173.432323"/>
     <use style="stroke:#000000;" x="236.640771" xlink:href="#m76d847370d" y="174.038269"/>
     <use style="stroke:#000000;" x="236.424479" xlink:href="#m76d847370d" y="174.528"/>
     <use style="stroke:#000000;" x="247.789073" xlink:href="#m76d847370d" y="167.059614"/>
     <use style="stroke:#000000;" x="240.1483" xlink:href="#m76d847370d" y="169.342907"/>
     <use style="stroke:#000000;" x="243.99711" xlink:href="#m76d847370d" y="171.719437"/>
     <use style="stroke:#000000;" x="240.931074" xlink:href="#m76d847370d" y="174.333364"/>
     <use style="stroke:#000000;" x="240.326773" xlink:href="#m76d847370d" y="174.528"/>
     <use style="stroke:#000000;" x="237.142844" xlink:href="#m76d847370d" y="173.262324"/>
     <use style="stroke:#000000;" x="236.424773" xlink:href="#m76d847370d" y="174.485086"/>
     <use style="stroke:#000000;" x="236.343975" xlink:href="#m76d847370d" y="174.451391"/>
     <use style="stroke:#000000;" x="244.233276" xlink:href="#m76d847370d" y="174.528"/>
     <use style="stroke:#000000;" x="237.582924" xlink:href="#m76d847370d" y="174.528"/>
     <use style="stroke:#000000;" x="240.45066" xlink:href="#m76d847370d" y="170.877633"/>
     <use style="stroke:#000000;" x="244.296995" xlink:href="#m76d847370d" y="170.493002"/>
     <use style="stroke:#000000;" x="241.069642" xlink:href="#m76d847370d" y="174.425175"/>
     <use style="stroke:#000000;" x="236.16" xlink:href="#m76d847370d" y="172.854186"/>
     <use style="stroke:#000000;" x="240.559753" xlink:href="#m76d847370d" y="174.528"/>
     <use style="stroke:#000000;" x="240.336701" xlink:href="#m76d847370d" y="167.817813"/>
     <use style="stroke:#000000;" x="237.033391" xlink:href="#m76d847370d" y="173.56916"/>
     <use style="stroke:#000000;" x="236.992714" xlink:href="#m76d847370d" y="172.802032"/>
     <use style="stroke:#000000;" x="240.19081" xlink:href="#m76d847370d" y="174.369991"/>
     <use style="stroke:#000000;" x="240.22867" xlink:href="#m76d847370d" y="174.528"/>
     <use style="stroke:#000000;" x="236.282549" xlink:href="#m76d847370d" y="172.976073"/>
     <use style="stroke:#000000;" x="236.312538" xlink:href="#m76d847370d" y="174.085156"/>
     <use style="stroke:#000000;" x="236.369726" xlink:href="#m76d847370d" y="172.791063"/>
     <use style="stroke:#000000;" x="236.744164" xlink:href="#m76d847370d" y="173.029943"/>
     <use style="stroke:#000000;" x="244.279387" xlink:href="#m76d847370d" y="171.051138"/>
     <use style="stroke:#000000;" x="236.597862" xlink:href="#m76d847370d" y="174.098985"/>
     <use style="stroke:#000000;" x="243.999847" xlink:href="#m76d847370d" y="172.078113"/>
     <use style="stroke:#000000;" x="243.893697" xlink:href="#m76d847370d" y="171.335819"/>
     <use style="stroke:#000000;" x="236.656288" xlink:href="#m76d847370d" y="173.427841"/>
     <use style="stroke:#000000;" x="243.824543" xlink:href="#m76d847370d" y="171.304442"/>
     <use style="stroke:#000000;" x="237.191091" xlink:href="#m76d847370d" y="174.528"/>
     <use style="stroke:#000000;" x="237.524624" xlink:href="#m76d847370d" y="173.535863"/>
     <use style="stroke:#000000;" x="237.378821" xlink:href="#m76d847370d" y="173.905177"/>
     <use style="stroke:#000000;" x="237.266834" xlink:href="#m76d847370d" y="173.426603"/>
     <use style="stroke:#000000;" x="239.369487" xlink:href="#m76d847370d" y="174.528"/>
     <use style="stroke:#000000;" x="236.422572" xlink:href="#m76d847370d" y="173.640334"/>
     <use style="stroke:#000000;" x="239.741182" xlink:href="#m76d847370d" y="171.960011"/>
     <use style="stroke:#000000;" x="244.309493" xlink:href="#m76d847370d" y="170.841242"/>
     <use style="stroke:#000000;" x="244.516786" xlink:href="#m76d847370d" y="174.121853"/>
     <use style="stroke:#000000;" x="240.470334" xlink:href="#m76d847370d" y="174.528"/>
     <use style="stroke:#000000;" x="247.482411" xlink:href="#m76d847370d" y="166.966036"/>
     <use style="stroke:#000000;" x="244.022395" xlink:href="#m76d847370d" y="170.187275"/>
     <use style="stroke:#000000;" x="243.793952" xlink:href="#m76d847370d" y="171.319913"/>
     <use style="stroke:#000000;" x="240.792952" xlink:href="#m76d847370d" y="173.318933"/>
     <use style="stroke:#000000;" x="236.16" xlink:href="#m76d847370d" y="174.528"/>
     <use style="stroke:#000000;" x="240.887797" xlink:href="#m76d847370d" y="174.528"/>
     <use style="stroke:#000000;" x="237.055448" xlink:href="#m76d847370d" y="173.375097"/>
     <use style="stroke:#000000;" x="244.312925" xlink:href="#m76d847370d" y="171.276256"/>
     <use style="stroke:#000000;" x="244.320099" xlink:href="#m76d847370d" y="170.222978"/>
     <use style="stroke:#000000;" x="237.074505" xlink:href="#m76d847370d" y="174.528"/>
     <use style="stroke:#000000;" x="236.361316" xlink:href="#m76d847370d" y="173.219736"/>
     <use style="stroke:#000000;" x="240.316724" xlink:href="#m76d847370d" y="174.157965"/>
     <use style="stroke:#000000;" x="240.245351" xlink:href="#m76d847370d" y="173.257029"/>
     <use style="stroke:#000000;" x="244.28551" xlink:href="#m76d847370d" y="169.110915"/>
     <use style="stroke:#000000;" x="237.034996" xlink:href="#m76d847370d" y="173.742451"/>
     <use style="stroke:#000000;" x="236.674044" xlink:href="#m76d847370d" y="172.846252"/>
     <use style="stroke:#000000;" x="236.734276" xlink:href="#m76d847370d" y="174.072868"/>
     <use style="stroke:#000000;" x="236.829058" xlink:href="#m76d847370d" y="172.562395"/>
     <use style="stroke:#000000;" x="237.003602" xlink:href="#m76d847370d" y="174.276408"/>
     <use style="stroke:#000000;" x="244.071953" xlink:href="#m76d847370d" y="170.357287"/>
     <use style="stroke:#000000;" x="244.252775" xlink:href="#m76d847370d" y="168.283103"/>
     <use style="stroke:#000000;" x="244.153709" xlink:href="#m76d847370d" y="170.473025"/>
     <use style="stroke:#000000;" x="237.709018" xlink:href="#m76d847370d" y="174.528"/>
     <use style="stroke:#000000;" x="237.435066" xlink:href="#m76d847370d" y="174.181263"/>
     <use style="stroke:#000000;" x="236.548681" xlink:href="#m76d847370d" y="172.7995"/>
     <use style="stroke:#000000;" x="237.352918" xlink:href="#m76d847370d" y="173.814408"/>
     <use style="stroke:#000000;" x="241.846484" xlink:href="#m76d847370d" y="172.51552"/>
     <use style="stroke:#000000;" x="242.102812" xlink:href="#m76d847370d" y="171.819441"/>
     <use style="stroke:#000000;" x="240.977163" xlink:href="#m76d847370d" y="171.564112"/>
     <use style="stroke:#000000;" x="246.560142" xlink:href="#m76d847370d" y="169.867367"/>
     <use style="stroke:#000000;" x="241.782636" xlink:href="#m76d847370d" y="168.891391"/>
     <use style="stroke:#000000;" x="243.813941" xlink:href="#m76d847370d" y="169.830652"/>
     <use style="stroke:#000000;" x="243.279293" xlink:href="#m76d847370d" y="169.614224"/>
     <use style="stroke:#000000;" x="237.659587" xlink:href="#m76d847370d" y="172.69047"/>
     <use style="stroke:#000000;" x="236.16" xlink:href="#m76d847370d" y="174.2009"/>
     <use style="stroke:#000000;" x="236.860395" xlink:href="#m76d847370d" y="174.528"/>
     <use style="stroke:#000000;" x="236.16" xlink:href="#m76d847370d" y="174.528"/>
     <use style="stroke:#000000;" x="236.16" xlink:href="#m76d847370d" y="174.016751"/>
     <use style="stroke:#000000;" x="236.16" xlink:href="#m76d847370d" y="174.528"/>
     <use style="stroke:#000000;" x="236.817221" xlink:href="#m76d847370d" y="173.001829"/>
     <use style="stroke:#000000;" x="236.160068" xlink:href="#m76d847370d" y="172.689293"/>
     <use style="stroke:#000000;" x="238.632706" xlink:href="#m76d847370d" y="172.66127"/>
     <use style="stroke:#000000;" x="236.16" xlink:href="#m76d847370d" y="172.234872"/>
     <use style="stroke:#000000;" x="236.16" xlink:href="#m76d847370d" y="172.572524"/>
     <use style="stroke:#000000;" x="237.607082" xlink:href="#m76d847370d" y="173.042537"/>
     <use style="stroke:#000000;" x="240.115523" xlink:href="#m76d847370d" y="171.252382"/>
     <use style="stroke:#000000;" x="241.008117" xlink:href="#m76d847370d" y="171.192205"/>
     <use style="stroke:#000000;" x="238.388596" xlink:href="#m76d847370d" y="171.811953"/>
     <use style="stroke:#000000;" x="240.687384" xlink:href="#m76d847370d" y="172.980678"/>
     <use style="stroke:#000000;" x="241.1211" xlink:href="#m76d847370d" y="174.528"/>
     <use style="stroke:#000000;" x="240.274286" xlink:href="#m76d847370d" y="174.446655"/>
     <use style="stroke:#000000;" x="237.15092" xlink:href="#m76d847370d" y="174.528"/>
     <use style="stroke:#000000;" x="238.204834" xlink:href="#m76d847370d" y="174.206836"/>
     <use style="stroke:#000000;" x="236.187632" xlink:href="#m76d847370d" y="172.449643"/>
     <use style="stroke:#000000;" x="238.21561" xlink:href="#m76d847370d" y="173.859049"/>
     <use style="stroke:#000000;" x="238.216765" xlink:href="#m76d847370d" y="171.035754"/>
     <use style="stroke:#000000;" x="236.313478" xlink:href="#m76d847370d" y="173.968458"/>
     <use style="stroke:#000000;" x="242.983773" xlink:href="#m76d847370d" y="171.39539"/>
     <use style="stroke:#000000;" x="244.832871" xlink:href="#m76d847370d" y="170.113873"/>
     <use style="stroke:#000000;" x="245.392411" xlink:href="#m76d847370d" y="169.712463"/>
     <use style="stroke:#000000;" x="236.784488" xlink:href="#m76d847370d" y="172.910201"/>
     <use style="stroke:#000000;" x="236.26295" xlink:href="#m76d847370d" y="173.901183"/>
     <use style="stroke:#000000;" x="236.16" xlink:href="#m76d847370d" y="173.133626"/>
     <use style="stroke:#000000;" x="236.16" xlink:href="#m76d847370d" y="173.905037"/>
     <use style="stroke:#000000;" x="236.638265" xlink:href="#m76d847370d" y="174.528"/>
     <use style="stroke:#000000;" x="236.16" xlink:href="#m76d847370d" y="174.17867"/>
     <use style="stroke:#000000;" x="236.16" xlink:href="#m76d847370d" y="174.528"/>
     <use style="stroke:#000000;" x="236.16" xlink:href="#m76d847370d" y="174.528"/>
     <use style="stroke:#000000;" x="236.586989" xlink:href="#m76d847370d" y="174.528"/>
     <use style="stroke:#000000;" x="246.098477" xlink:href="#m76d847370d" y="168.448203"/>
     <use style="stroke:#000000;" x="248.328728" xlink:href="#m76d847370d" y="168.153542"/>
     <use style="stroke:#000000;" x="247.149703" xlink:href="#m76d847370d" y="167.481779"/>
     <use style="stroke:#000000;" x="242.486239" xlink:href="#m76d847370d" y="169.148281"/>
     <use style="stroke:#000000;" x="240.92161" xlink:href="#m76d847370d" y="169.635273"/>
     <use style="stroke:#000000;" x="240.306289" xlink:href="#m76d847370d" y="169.58026"/>
     <use style="stroke:#000000;" x="243.545714" xlink:href="#m76d847370d" y="171.628915"/>
     <use style="stroke:#000000;" x="243.981435" xlink:href="#m76d847370d" y="171.596147"/>
     <use style="stroke:#000000;" x="242.241447" xlink:href="#m76d847370d" y="171.601717"/>
     <use style="stroke:#000000;" x="241.761485" xlink:href="#m76d847370d" y="174.27287"/>
     <use style="stroke:#000000;" x="239.93602" xlink:href="#m76d847370d" y="174.528"/>
     <use style="stroke:#000000;" x="240.119771" xlink:href="#m76d847370d" y="174.528"/>
     <use style="stroke:#000000;" x="241.925745" xlink:href="#m76d847370d" y="174.310734"/>
     <use style="stroke:#000000;" x="240.940145" xlink:href="#m76d847370d" y="174.475475"/>
     <use style="stroke:#000000;" x="240.81148" xlink:href="#m76d847370d" y="174.459202"/>
     <use style="stroke:#000000;" x="237.673438" xlink:href="#m76d847370d" y="173.328276"/>
     <use style="stroke:#000000;" x="238.785946" xlink:href="#m76d847370d" y="172.010785"/>
     <use style="stroke:#000000;" x="237.179283" xlink:href="#m76d847370d" y="172.313325"/>
     <use style="stroke:#000000;" x="236.16" xlink:href="#m76d847370d" y="174.528"/>
     <use style="stroke:#000000;" x="236.72715" xlink:href="#m76d847370d" y="173.428212"/>
     <use style="stroke:#000000;" x="236.16" xlink:href="#m76d847370d" y="174.528"/>
     <use style="stroke:#000000;" x="238.459629" xlink:href="#m76d847370d" y="174.528"/>
     <use style="stroke:#000000;" x="236.783114" xlink:href="#m76d847370d" y="174.477919"/>
     <use style="stroke:#000000;" x="236.16" xlink:href="#m76d847370d" y="174.528"/>
     <use style="stroke:#000000;" x="245.727206" xlink:href="#m76d847370d" y="174.411712"/>
     <use style="stroke:#000000;" x="245.689037" xlink:href="#m76d847370d" y="173.926278"/>
     <use style="stroke:#000000;" x="243.589146" xlink:href="#m76d847370d" y="174.528"/>
     <use style="stroke:#000000;" x="236.16" xlink:href="#m76d847370d" y="174.145512"/>
     <use style="stroke:#000000;" x="237.187899" xlink:href="#m76d847370d" y="173.211264"/>
     <use style="stroke:#000000;" x="237.167519" xlink:href="#m76d847370d" y="174.528"/>
     <use style="stroke:#000000;" x="242.351434" xlink:href="#m76d847370d" y="170.0558"/>
     <use style="stroke:#000000;" x="239.869336" xlink:href="#m76d847370d" y="171.450173"/>
     <use style="stroke:#000000;" x="243.024093" xlink:href="#m76d847370d" y="170.276036"/>
     <use style="stroke:#000000;" x="244.745261" xlink:href="#m76d847370d" y="168.851133"/>
     <use style="stroke:#000000;" x="241.761755" xlink:href="#m76d847370d" y="173.54375"/>
     <use style="stroke:#000000;" x="240.127913" xlink:href="#m76d847370d" y="174.226038"/>
     <use style="stroke:#000000;" x="236.455346" xlink:href="#m76d847370d" y="173.585605"/>
     <use style="stroke:#000000;" x="236.16" xlink:href="#m76d847370d" y="174.528"/>
     <use style="stroke:#000000;" x="237.522293" xlink:href="#m76d847370d" y="174.179993"/>
     <use style="stroke:#000000;" x="238.89129" xlink:href="#m76d847370d" y="174.103852"/>
     <use style="stroke:#000000;" x="240.477803" xlink:href="#m76d847370d" y="167.402734"/>
     <use style="stroke:#000000;" x="239.070608" xlink:href="#m76d847370d" y="168.799996"/>
     <use style="stroke:#000000;" x="237.9607" xlink:href="#m76d847370d" y="173.843835"/>
     <use style="stroke:#000000;" x="238.050603" xlink:href="#m76d847370d" y="174.494059"/>
     <use style="stroke:#000000;" x="238.863883" xlink:href="#m76d847370d" y="173.155013"/>
     <use style="stroke:#000000;" x="238.48121" xlink:href="#m76d847370d" y="172.189475"/>
     <use style="stroke:#000000;" x="240.684406" xlink:href="#m76d847370d" y="174.528"/>
     <use style="stroke:#000000;" x="239.924286" xlink:href="#m76d847370d" y="174.528"/>
     <use style="stroke:#000000;" x="240.639999" xlink:href="#m76d847370d" y="174.528"/>
     <use style="stroke:#000000;" x="239.772246" xlink:href="#m76d847370d" y="174.528"/>
     <use style="stroke:#000000;" x="241.220175" xlink:href="#m76d847370d" y="174.528"/>
     <use style="stroke:#000000;" x="237.736229" xlink:href="#m76d847370d" y="173.018949"/>
     <use style="stroke:#000000;" x="236.476945" xlink:href="#m76d847370d" y="172.89481"/>
     <use style="stroke:#000000;" x="236.16" xlink:href="#m76d847370d" y="174.438086"/>
     <use style="stroke:#000000;" x="236.252697" xlink:href="#m76d847370d" y="173.601732"/>
     <use style="stroke:#000000;" x="237.862417" xlink:href="#m76d847370d" y="172.520871"/>
     <use style="stroke:#000000;" x="236.931464" xlink:href="#m76d847370d" y="172.442664"/>
     <use style="stroke:#000000;" x="236.794266" xlink:href="#m76d847370d" y="173.056724"/>
     <use style="stroke:#000000;" x="236.16" xlink:href="#m76d847370d" y="172.447192"/>
     <use style="stroke:#000000;" x="238.414441" xlink:href="#m76d847370d" y="174.24122"/>
     <use style="stroke:#000000;" x="243.094844" xlink:href="#m76d847370d" y="170.330343"/>
     <use style="stroke:#000000;" x="245.414807" xlink:href="#m76d847370d" y="170.706234"/>
     <use style="stroke:#000000;" x="236.790187" xlink:href="#m76d847370d" y="173.352626"/>
     <use style="stroke:#000000;" x="236.72304" xlink:href="#m76d847370d" y="173.058031"/>
     <use style="stroke:#000000;" x="243.468885" xlink:href="#m76d847370d" y="171.659215"/>
     <use style="stroke:#000000;" x="244.547367" xlink:href="#m76d847370d" y="172.392867"/>
     <use style="stroke:#000000;" x="243.955808" xlink:href="#m76d847370d" y="170.912775"/>
     <use style="stroke:#000000;" x="244.668461" xlink:href="#m76d847370d" y="171.388709"/>
     <use style="stroke:#000000;" x="244.088611" xlink:href="#m76d847370d" y="170.125921"/>
     <use style="stroke:#000000;" x="236.16" xlink:href="#m76d847370d" y="173.133984"/>
     <use style="stroke:#000000;" x="236.16" xlink:href="#m76d847370d" y="174.482084"/>
     <use style="stroke:#000000;" x="243.689342" xlink:href="#m76d847370d" y="169.704805"/>
     <use style="stroke:#000000;" x="242.305267" xlink:href="#m76d847370d" y="170.913376"/>
     <use style="stroke:#000000;" x="238.125436" xlink:href="#m76d847370d" y="174.528"/>
     <use style="stroke:#000000;" x="236.354058" xlink:href="#m76d847370d" y="174.528"/>
     <use style="stroke:#000000;" x="237.497759" xlink:href="#m76d847370d" y="173.711435"/>
     <use style="stroke:#000000;" x="238.033488" xlink:href="#m76d847370d" y="173.872284"/>
     <use style="stroke:#000000;" x="236.16" xlink:href="#m76d847370d" y="174.103656"/>
     <use style="stroke:#000000;" x="236.172627" xlink:href="#m76d847370d" y="173.900763"/>
     <use style="stroke:#000000;" x="239.262334" xlink:href="#m76d847370d" y="173.694832"/>
     <use style="stroke:#000000;" x="236.843215" xlink:href="#m76d847370d" y="173.380147"/>
     <use style="stroke:#000000;" x="238.492557" xlink:href="#m76d847370d" y="174.528"/>
     <use style="stroke:#000000;" x="237.873074" xlink:href="#m76d847370d" y="173.126454"/>
     <use style="stroke:#000000;" x="236.30169" xlink:href="#m76d847370d" y="173.158372"/>
     <use style="stroke:#000000;" x="237.605987" xlink:href="#m76d847370d" y="174.130824"/>
     <use style="stroke:#000000;" x="238.759391" xlink:href="#m76d847370d" y="172.780324"/>
     <use style="stroke:#000000;" x="240.865006" xlink:href="#m76d847370d" y="171.572096"/>
     <use style="stroke:#000000;" x="242.39713" xlink:href="#m76d847370d" y="171.322362"/>
     <use style="stroke:#000000;" x="245.787959" xlink:href="#m76d847370d" y="170.283594"/>
     <use style="stroke:#000000;" x="246.774147" xlink:href="#m76d847370d" y="172.918519"/>
     <use style="stroke:#000000;" x="243.032433" xlink:href="#m76d847370d" y="174.528"/>
     <use style="stroke:#000000;" x="241.820152" xlink:href="#m76d847370d" y="174.528"/>
     <use style="stroke:#000000;" x="248.719926" xlink:href="#m76d847370d" y="165.827781"/>
     <use style="stroke:#000000;" x="245.129909" xlink:href="#m76d847370d" y="170.457932"/>
     <use style="stroke:#000000;" x="243.769632" xlink:href="#m76d847370d" y="170.579547"/>
     <use style="stroke:#000000;" x="241.687575" xlink:href="#m76d847370d" y="172.044964"/>
     <use style="stroke:#000000;" x="237.950064" xlink:href="#m76d847370d" y="172.957496"/>
     <use style="stroke:#000000;" x="241.271624" xlink:href="#m76d847370d" y="174.165321"/>
     <use style="stroke:#000000;" x="237.716328" xlink:href="#m76d847370d" y="174.464959"/>
     <use style="stroke:#000000;" x="244.416879" xlink:href="#m76d847370d" y="171.007998"/>
     <use style="stroke:#000000;" x="240.692837" xlink:href="#m76d847370d" y="170.059981"/>
     <use style="stroke:#000000;" x="236.16" xlink:href="#m76d847370d" y="174.528"/>
     <use style="stroke:#000000;" x="236.16" xlink:href="#m76d847370d" y="174.167303"/>
     <use style="stroke:#000000;" x="241.395844" xlink:href="#m76d847370d" y="174.081152"/>
     <use style="stroke:#000000;" x="241.141964" xlink:href="#m76d847370d" y="173.072778"/>
     <use style="stroke:#000000;" x="245.139447" xlink:href="#m76d847370d" y="168.720764"/>
     <use style="stroke:#000000;" x="237.66046" xlink:href="#m76d847370d" y="173.994914"/>
     <use style="stroke:#000000;" x="236.16" xlink:href="#m76d847370d" y="172.311779"/>
     <use style="stroke:#000000;" x="236.16" xlink:href="#m76d847370d" y="174.020357"/>
     <use style="stroke:#000000;" x="237.084354" xlink:href="#m76d847370d" y="171.805393"/>
     <use style="stroke:#000000;" x="237.069615" xlink:href="#m76d847370d" y="171.734434"/>
     <use style="stroke:#000000;" x="242.341733" xlink:href="#m76d847370d" y="169.92675"/>
     <use style="stroke:#000000;" x="241.484515" xlink:href="#m76d847370d" y="169.148357"/>
     <use style="stroke:#000000;" x="244.313277" xlink:href="#m76d847370d" y="171.046728"/>
     <use style="stroke:#000000;" x="236.891877" xlink:href="#m76d847370d" y="174.528"/>
     <use style="stroke:#000000;" x="238.80358" xlink:href="#m76d847370d" y="174.528"/>
     <use style="stroke:#000000;" x="236.16" xlink:href="#m76d847370d" y="172.039293"/>
     <use style="stroke:#000000;" x="238.740539" xlink:href="#m76d847370d" y="174.194838"/>
    </g>
   </g>
   <g id="PathCollection_2">
    <defs>
     <path d="M 0 0.935414 
C 0.248075 0.935414 0.486022 0.836853 0.661438 0.661438 
C 0.836853 0.486022 0.935414 0.248075 0.935414 0 
C 0.935414 -0.248075 0.836853 -0.486022 0.661438 -0.661438 
C 0.486022 -0.836853 0.248075 -0.935414 0 -0.935414 
C -0.248075 -0.935414 -0.486022 -0.836853 -0.661438 -0.661438 
C -0.836853 -0.486022 -0.935414 -0.248075 -0.935414 0 
C -0.935414 0.248075 -0.836853 0.486022 -0.661438 0.661438 
C -0.486022 0.836853 -0.248075 0.935414 0 0.935414 
z
" id="m9c8fe97ad1" style="stroke:#0000ff;"/>
    </defs>
    <g clip-path="url(#pfd5dae9fdc)">
     <use style="fill:#0000ff;stroke:#0000ff;" x="240.413252" xlink:href="#m9c8fe97ad1" y="172.351391"/>
     <use style="fill:#0000ff;stroke:#0000ff;" x="243.959247" xlink:href="#m9c8fe97ad1" y="169.493516"/>
     <use style="fill:#0000ff;stroke:#0000ff;" x="236.744333" xlink:href="#m9c8fe97ad1" y="173.520725"/>
     <use style="fill:#0000ff;stroke:#0000ff;" x="236.273422" xlink:href="#m9c8fe97ad1" y="174.528"/>
     <use style="fill:#0000ff;stroke:#0000ff;" x="236.834686" xlink:href="#m9c8fe97ad1" y="173.428375"/>
     <use style="fill:#0000ff;stroke:#0000ff;" x="236.637196" xlink:href="#m9c8fe97ad1" y="173.002799"/>
     <use style="fill:#0000ff;stroke:#0000ff;" x="240.446936" xlink:href="#m9c8fe97ad1" y="171.799236"/>
     <use style="fill:#0000ff;stroke:#0000ff;" x="240.160195" xlink:href="#m9c8fe97ad1" y="174.528"/>
     <use style="fill:#0000ff;stroke:#0000ff;" x="236.486239" xlink:href="#m9c8fe97ad1" y="174.438732"/>
     <use style="fill:#0000ff;stroke:#0000ff;" x="236.615797" xlink:href="#m9c8fe97ad1" y="173.390847"/>
     <use style="fill:#0000ff;stroke:#0000ff;" x="244.158752" xlink:href="#m9c8fe97ad1" y="169.984482"/>
     <use style="fill:#0000ff;stroke:#0000ff;" x="236.16" xlink:href="#m9c8fe97ad1" y="173.432323"/>
     <use style="fill:#0000ff;stroke:#0000ff;" x="236.640771" xlink:href="#m9c8fe97ad1" y="174.038269"/>
     <use style="fill:#0000ff;stroke:#0000ff;" x="236.424479" xlink:href="#m9c8fe97ad1" y="174.528"/>
     <use style="fill:#0000ff;stroke:#0000ff;" x="247.789073" xlink:href="#m9c8fe97ad1" y="167.059614"/>
     <use style="fill:#0000ff;stroke:#0000ff;" x="240.1483" xlink:href="#m9c8fe97ad1" y="169.342907"/>
     <use style="fill:#0000ff;stroke:#0000ff;" x="243.99711" xlink:href="#m9c8fe97ad1" y="171.719437"/>
     <use style="fill:#0000ff;stroke:#0000ff;" x="240.931074" xlink:href="#m9c8fe97ad1" y="174.333364"/>
     <use style="fill:#0000ff;stroke:#0000ff;" x="240.326773" xlink:href="#m9c8fe97ad1" y="174.528"/>
     <use style="fill:#0000ff;stroke:#0000ff;" x="237.142844" xlink:href="#m9c8fe97ad1" y="173.262324"/>
     <use style="fill:#0000ff;stroke:#0000ff;" x="236.424773" xlink:href="#m9c8fe97ad1" y="174.485086"/>
     <use style="fill:#0000ff;stroke:#0000ff;" x="236.343975" xlink:href="#m9c8fe97ad1" y="174.451391"/>
     <use style="fill:#0000ff;stroke:#0000ff;" x="244.233276" xlink:href="#m9c8fe97ad1" y="174.528"/>
     <use style="fill:#0000ff;stroke:#0000ff;" x="237.582924" xlink:href="#m9c8fe97ad1" y="174.528"/>
     <use style="fill:#0000ff;stroke:#0000ff;" x="240.45066" xlink:href="#m9c8fe97ad1" y="170.877633"/>
     <use style="fill:#0000ff;stroke:#0000ff;" x="244.296995" xlink:href="#m9c8fe97ad1" y="170.493002"/>
     <use style="fill:#0000ff;stroke:#0000ff;" x="241.069642" xlink:href="#m9c8fe97ad1" y="174.425175"/>
     <use style="fill:#0000ff;stroke:#0000ff;" x="236.16" xlink:href="#m9c8fe97ad1" y="172.854186"/>
     <use style="fill:#0000ff;stroke:#0000ff;" x="240.559753" xlink:href="#m9c8fe97ad1" y="174.528"/>
     <use style="fill:#0000ff;stroke:#0000ff;" x="240.336701" xlink:href="#m9c8fe97ad1" y="167.817813"/>
     <use style="fill:#0000ff;stroke:#0000ff;" x="237.033391" xlink:href="#m9c8fe97ad1" y="173.56916"/>
     <use style="fill:#0000ff;stroke:#0000ff;" x="236.992714" xlink:href="#m9c8fe97ad1" y="172.802032"/>
     <use style="fill:#0000ff;stroke:#0000ff;" x="240.19081" xlink:href="#m9c8fe97ad1" y="174.369991"/>
     <use style="fill:#0000ff;stroke:#0000ff;" x="240.22867" xlink:href="#m9c8fe97ad1" y="174.528"/>
     <use style="fill:#0000ff;stroke:#0000ff;" x="236.282549" xlink:href="#m9c8fe97ad1" y="172.976073"/>
     <use style="fill:#0000ff;stroke:#0000ff;" x="236.312538" xlink:href="#m9c8fe97ad1" y="174.085156"/>
     <use style="fill:#0000ff;stroke:#0000ff;" x="236.369726" xlink:href="#m9c8fe97ad1" y="172.791063"/>
     <use style="fill:#0000ff;stroke:#0000ff;" x="236.744164" xlink:href="#m9c8fe97ad1" y="173.029943"/>
     <use style="fill:#0000ff;stroke:#0000ff;" x="244.279387" xlink:href="#m9c8fe97ad1" y="171.051138"/>
     <use style="fill:#0000ff;stroke:#0000ff;" x="236.597862" xlink:href="#m9c8fe97ad1" y="174.098985"/>
     <use style="fill:#0000ff;stroke:#0000ff;" x="243.999847" xlink:href="#m9c8fe97ad1" y="172.078113"/>
     <use style="fill:#0000ff;stroke:#0000ff;" x="243.893697" xlink:href="#m9c8fe97ad1" y="171.335819"/>
     <use style="fill:#0000ff;stroke:#0000ff;" x="236.656288" xlink:href="#m9c8fe97ad1" y="173.427841"/>
     <use style="fill:#0000ff;stroke:#0000ff;" x="243.824543" xlink:href="#m9c8fe97ad1" y="171.304442"/>
     <use style="fill:#0000ff;stroke:#0000ff;" x="237.191091" xlink:href="#m9c8fe97ad1" y="174.528"/>
     <use style="fill:#0000ff;stroke:#0000ff;" x="237.524624" xlink:href="#m9c8fe97ad1" y="173.535863"/>
     <use style="fill:#0000ff;stroke:#0000ff;" x="237.378821" xlink:href="#m9c8fe97ad1" y="173.905177"/>
     <use style="fill:#0000ff;stroke:#0000ff;" x="237.266834" xlink:href="#m9c8fe97ad1" y="173.426603"/>
     <use style="fill:#0000ff;stroke:#0000ff;" x="239.369487" xlink:href="#m9c8fe97ad1" y="174.528"/>
     <use style="fill:#0000ff;stroke:#0000ff;" x="236.422572" xlink:href="#m9c8fe97ad1" y="173.640334"/>
     <use style="fill:#0000ff;stroke:#0000ff;" x="239.741182" xlink:href="#m9c8fe97ad1" y="171.960011"/>
     <use style="fill:#0000ff;stroke:#0000ff;" x="244.309493" xlink:href="#m9c8fe97ad1" y="170.841242"/>
     <use style="fill:#0000ff;stroke:#0000ff;" x="244.516786" xlink:href="#m9c8fe97ad1" y="174.121853"/>
     <use style="fill:#0000ff;stroke:#0000ff;" x="240.470334" xlink:href="#m9c8fe97ad1" y="174.528"/>
     <use style="fill:#0000ff;stroke:#0000ff;" x="247.482411" xlink:href="#m9c8fe97ad1" y="166.966036"/>
     <use style="fill:#0000ff;stroke:#0000ff;" x="244.022395" xlink:href="#m9c8fe97ad1" y="170.187275"/>
     <use style="fill:#0000ff;stroke:#0000ff;" x="243.793952" xlink:href="#m9c8fe97ad1" y="171.319913"/>
     <use style="fill:#0000ff;stroke:#0000ff;" x="240.792952" xlink:href="#m9c8fe97ad1" y="173.318933"/>
     <use style="fill:#0000ff;stroke:#0000ff;" x="236.16" xlink:href="#m9c8fe97ad1" y="174.528"/>
     <use style="fill:#0000ff;stroke:#0000ff;" x="240.887797" xlink:href="#m9c8fe97ad1" y="174.528"/>
     <use style="fill:#0000ff;stroke:#0000ff;" x="237.055448" xlink:href="#m9c8fe97ad1" y="173.375097"/>
     <use style="fill:#0000ff;stroke:#0000ff;" x="244.312925" xlink:href="#m9c8fe97ad1" y="171.276256"/>
     <use style="fill:#0000ff;stroke:#0000ff;" x="244.320099" xlink:href="#m9c8fe97ad1" y="170.222978"/>
     <use style="fill:#0000ff;stroke:#0000ff;" x="237.074505" xlink:href="#m9c8fe97ad1" y="174.528"/>
     <use style="fill:#0000ff;stroke:#0000ff;" x="236.361316" xlink:href="#m9c8fe97ad1" y="173.219736"/>
     <use style="fill:#0000ff;stroke:#0000ff;" x="240.316724" xlink:href="#m9c8fe97ad1" y="174.157965"/>
     <use style="fill:#0000ff;stroke:#0000ff;" x="240.245351" xlink:href="#m9c8fe97ad1" y="173.257029"/>
     <use style="fill:#0000ff;stroke:#0000ff;" x="244.28551" xlink:href="#m9c8fe97ad1" y="169.110915"/>
     <use style="fill:#0000ff;stroke:#0000ff;" x="237.034996" xlink:href="#m9c8fe97ad1" y="173.742451"/>
     <use style="fill:#0000ff;stroke:#0000ff;" x="236.674044" xlink:href="#m9c8fe97ad1" y="172.846252"/>
     <use style="fill:#0000ff;stroke:#0000ff;" x="236.734276" xlink:href="#m9c8fe97ad1" y="174.072868"/>
     <use style="fill:#0000ff;stroke:#0000ff;" x="236.829058" xlink:href="#m9c8fe97ad1" y="172.562395"/>
     <use style="fill:#0000ff;stroke:#0000ff;" x="237.003602" xlink:href="#m9c8fe97ad1" y="174.276408"/>
     <use style="fill:#0000ff;stroke:#0000ff;" x="244.071953" xlink:href="#m9c8fe97ad1" y="170.357287"/>
     <use style="fill:#0000ff;stroke:#0000ff;" x="244.252775" xlink:href="#m9c8fe97ad1" y="168.283103"/>
     <use style="fill:#0000ff;stroke:#0000ff;" x="244.153709" xlink:href="#m9c8fe97ad1" y="170.473025"/>
     <use style="fill:#0000ff;stroke:#0000ff;" x="237.709018" xlink:href="#m9c8fe97ad1" y="174.528"/>
     <use style="fill:#0000ff;stroke:#0000ff;" x="237.435066" xlink:href="#m9c8fe97ad1" y="174.181263"/>
     <use style="fill:#0000ff;stroke:#0000ff;" x="236.548681" xlink:href="#m9c8fe97ad1" y="172.7995"/>
     <use style="fill:#0000ff;stroke:#0000ff;" x="237.352918" xlink:href="#m9c8fe97ad1" y="173.814408"/>
    </g>
   </g>
   <g id="matplotlib.axis_1">
    <g id="xtick_1">
     <g id="line2d_1">
      <defs>
       <path d="M 0 0 
L 0 3.5 
" id="mce36caea31" style="stroke:#000000;stroke-width:0.8;"/>
      </defs>
      <g>
       <use style="stroke:#000000;stroke-width:0.8;" x="57.6" xlink:href="#mce36caea31" y="307.584"/>
      </g>
     </g>
     <g id="text_1">
      <!-- −10.0 -->
      <defs>
       <path d="M 10.59375 35.5 
L 73.1875 35.5 
L 73.1875 27.203125 
L 10.59375 27.203125 
z
" id="DejaVuSans-2212"/>
       <path d="M 12.40625 8.296875 
L 28.515625 8.296875 
L 28.515625 63.921875 
L 10.984375 60.40625 
L 10.984375 69.390625 
L 28.421875 72.90625 
L 38.28125 72.90625 
L 38.28125 8.296875 
L 54.390625 8.296875 
L 54.390625 0 
L 12.40625 0 
z
" id="DejaVuSans-31"/>
       <path d="M 31.78125 66.40625 
Q 24.171875 66.40625 20.328125 58.90625 
Q 16.5 51.421875 16.5 36.375 
Q 16.5 21.390625 20.328125 13.890625 
Q 24.171875 6.390625 31.78125 6.390625 
Q 39.453125 6.390625 43.28125 13.890625 
Q 47.125 21.390625 47.125 36.375 
Q 47.125 51.421875 43.28125 58.90625 
Q 39.453125 66.40625 31.78125 66.40625 
z
M 31.78125 74.21875 
Q 44.046875 74.21875 50.515625 64.515625 
Q 56.984375 54.828125 56.984375 36.375 
Q 56.984375 17.96875 50.515625 8.265625 
Q 44.046875 -1.421875 31.78125 -1.421875 
Q 19.53125 -1.421875 13.0625 8.265625 
Q 6.59375 17.96875 6.59375 36.375 
Q 6.59375 54.828125 13.0625 64.515625 
Q 19.53125 74.21875 31.78125 74.21875 
z
" id="DejaVuSans-30"/>
       <path d="M 10.6875 12.40625 
L 21 12.40625 
L 21 0 
L 10.6875 0 
z
" id="DejaVuSans-2e"/>
      </defs>
      <g transform="translate(42.277344 322.182437)scale(0.1 -0.1)">
       <use xlink:href="#DejaVuSans-2212"/>
       <use x="83.789062" xlink:href="#DejaVuSans-31"/>
       <use x="147.412109" xlink:href="#DejaVuSans-30"/>
       <use x="211.035156" xlink:href="#DejaVuSans-2e"/>
       <use x="242.822266" xlink:href="#DejaVuSans-30"/>
      </g>
     </g>
    </g>
    <g id="xtick_2">
     <g id="line2d_2">
      <g>
       <use style="stroke:#000000;stroke-width:0.8;" x="102.24" xlink:href="#mce36caea31" y="307.584"/>
      </g>
     </g>
     <g id="text_2">
      <!-- −7.5 -->
      <defs>
       <path d="M 8.203125 72.90625 
L 55.078125 72.90625 
L 55.078125 68.703125 
L 28.609375 0 
L 18.3125 0 
L 43.21875 64.59375 
L 8.203125 64.59375 
z
" id="DejaVuSans-37"/>
       <path d="M 10.796875 72.90625 
L 49.515625 72.90625 
L 49.515625 64.59375 
L 19.828125 64.59375 
L 19.828125 46.734375 
Q 21.96875 47.46875 24.109375 47.828125 
Q 26.265625 48.1875 28.421875 48.1875 
Q 40.625 48.1875 47.75 41.5 
Q 54.890625 34.8125 54.890625 23.390625 
Q 54.890625 11.625 47.5625 5.09375 
Q 40.234375 -1.421875 26.90625 -1.421875 
Q 22.3125 -1.421875 17.546875 -0.640625 
Q 12.796875 0.140625 7.71875 1.703125 
L 7.71875 11.625 
Q 12.109375 9.234375 16.796875 8.0625 
Q 21.484375 6.890625 26.703125 6.890625 
Q 35.15625 6.890625 40.078125 11.328125 
Q 45.015625 15.765625 45.015625 23.390625 
Q 45.015625 31 40.078125 35.4375 
Q 35.15625 39.890625 26.703125 39.890625 
Q 22.75 39.890625 18.8125 39.015625 
Q 14.890625 38.140625 10.796875 36.28125 
z
" id="DejaVuSans-35"/>
      </defs>
      <g transform="translate(90.098594 322.182437)scale(0.1 -0.1)">
       <use xlink:href="#DejaVuSans-2212"/>
       <use x="83.789062" xlink:href="#DejaVuSans-37"/>
       <use x="147.412109" xlink:href="#DejaVuSans-2e"/>
       <use x="179.199219" xlink:href="#DejaVuSans-35"/>
      </g>
     </g>
    </g>
    <g id="xtick_3">
     <g id="line2d_3">
      <g>
       <use style="stroke:#000000;stroke-width:0.8;" x="146.88" xlink:href="#mce36caea31" y="307.584"/>
      </g>
     </g>
     <g id="text_3">
      <!-- −5.0 -->
      <g transform="translate(134.738594 322.182437)scale(0.1 -0.1)">
       <use xlink:href="#DejaVuSans-2212"/>
       <use x="83.789062" xlink:href="#DejaVuSans-35"/>
       <use x="147.412109" xlink:href="#DejaVuSans-2e"/>
       <use x="179.199219" xlink:href="#DejaVuSans-30"/>
      </g>
     </g>
    </g>
    <g id="xtick_4">
     <g id="line2d_4">
      <g>
       <use style="stroke:#000000;stroke-width:0.8;" x="191.52" xlink:href="#mce36caea31" y="307.584"/>
      </g>
     </g>
     <g id="text_4">
      <!-- −2.5 -->
      <defs>
       <path d="M 19.1875 8.296875 
L 53.609375 8.296875 
L 53.609375 0 
L 7.328125 0 
L 7.328125 8.296875 
Q 12.9375 14.109375 22.625 23.890625 
Q 32.328125 33.6875 34.8125 36.53125 
Q 39.546875 41.84375 41.421875 45.53125 
Q 43.3125 49.21875 43.3125 52.78125 
Q 43.3125 58.59375 39.234375 62.25 
Q 35.15625 65.921875 28.609375 65.921875 
Q 23.96875 65.921875 18.8125 64.3125 
Q 13.671875 62.703125 7.8125 59.421875 
L 7.8125 69.390625 
Q 13.765625 71.78125 18.9375 73 
Q 24.125 74.21875 28.421875 74.21875 
Q 39.75 74.21875 46.484375 68.546875 
Q 53.21875 62.890625 53.21875 53.421875 
Q 53.21875 48.921875 51.53125 44.890625 
Q 49.859375 40.875 45.40625 35.40625 
Q 44.1875 33.984375 37.640625 27.21875 
Q 31.109375 20.453125 19.1875 8.296875 
z
" id="DejaVuSans-32"/>
      </defs>
      <g transform="translate(179.378594 322.182437)scale(0.1 -0.1)">
       <use xlink:href="#DejaVuSans-2212"/>
       <use x="83.789062" xlink:href="#DejaVuSans-32"/>
       <use x="147.412109" xlink:href="#DejaVuSans-2e"/>
       <use x="179.199219" xlink:href="#DejaVuSans-35"/>
      </g>
     </g>
    </g>
    <g id="xtick_5">
     <g id="line2d_5">
      <g>
       <use style="stroke:#000000;stroke-width:0.8;" x="236.16" xlink:href="#mce36caea31" y="307.584"/>
      </g>
     </g>
     <g id="text_5">
      <!-- 0.0 -->
      <g transform="translate(228.208438 322.182437)scale(0.1 -0.1)">
       <use xlink:href="#DejaVuSans-30"/>
       <use x="63.623047" xlink:href="#DejaVuSans-2e"/>
       <use x="95.410156" xlink:href="#DejaVuSans-30"/>
      </g>
     </g>
    </g>
    <g id="xtick_6">
     <g id="line2d_6">
      <g>
       <use style="stroke:#000000;stroke-width:0.8;" x="280.8" xlink:href="#mce36caea31" y="307.584"/>
      </g>
     </g>
     <g id="text_6">
      <!-- 2.5 -->
      <g transform="translate(272.848437 322.182437)scale(0.1 -0.1)">
       <use xlink:href="#DejaVuSans-32"/>
       <use x="63.623047" xlink:href="#DejaVuSans-2e"/>
       <use x="95.410156" xlink:href="#DejaVuSans-35"/>
      </g>
     </g>
    </g>
    <g id="xtick_7">
     <g id="line2d_7">
      <g>
       <use style="stroke:#000000;stroke-width:0.8;" x="325.44" xlink:href="#mce36caea31" y="307.584"/>
      </g>
     </g>
     <g id="text_7">
      <!-- 5.0 -->
      <g transform="translate(317.488437 322.182437)scale(0.1 -0.1)">
       <use xlink:href="#DejaVuSans-35"/>
       <use x="63.623047" xlink:href="#DejaVuSans-2e"/>
       <use x="95.410156" xlink:href="#DejaVuSans-30"/>
      </g>
     </g>
    </g>
    <g id="xtick_8">
     <g id="line2d_8">
      <g>
       <use style="stroke:#000000;stroke-width:0.8;" x="370.08" xlink:href="#mce36caea31" y="307.584"/>
      </g>
     </g>
     <g id="text_8">
      <!-- 7.5 -->
      <g transform="translate(362.128438 322.182437)scale(0.1 -0.1)">
       <use xlink:href="#DejaVuSans-37"/>
       <use x="63.623047" xlink:href="#DejaVuSans-2e"/>
       <use x="95.410156" xlink:href="#DejaVuSans-35"/>
      </g>
     </g>
    </g>
    <g id="xtick_9">
     <g id="line2d_9">
      <g>
       <use style="stroke:#000000;stroke-width:0.8;" x="414.72" xlink:href="#mce36caea31" y="307.584"/>
      </g>
     </g>
     <g id="text_9">
      <!-- 10.0 -->
      <g transform="translate(403.587188 322.182437)scale(0.1 -0.1)">
       <use xlink:href="#DejaVuSans-31"/>
       <use x="63.623047" xlink:href="#DejaVuSans-30"/>
       <use x="127.246094" xlink:href="#DejaVuSans-2e"/>
       <use x="159.033203" xlink:href="#DejaVuSans-30"/>
      </g>
     </g>
    </g>
   </g>
   <g id="matplotlib.axis_2">
    <g id="ytick_1">
     <g id="line2d_10">
      <defs>
       <path d="M 0 0 
L -3.5 0 
" id="mc322cf32b9" style="stroke:#000000;stroke-width:0.8;"/>
      </defs>
      <g>
       <use style="stroke:#000000;stroke-width:0.8;" x="57.6" xlink:href="#mc322cf32b9" y="307.584"/>
      </g>
     </g>
     <g id="text_10">
      <!-- −10.0 -->
      <g transform="translate(19.954687 311.383219)scale(0.1 -0.1)">
       <use xlink:href="#DejaVuSans-2212"/>
       <use x="83.789062" xlink:href="#DejaVuSans-31"/>
       <use x="147.412109" xlink:href="#DejaVuSans-30"/>
       <use x="211.035156" xlink:href="#DejaVuSans-2e"/>
       <use x="242.822266" xlink:href="#DejaVuSans-30"/>
      </g>
     </g>
    </g>
    <g id="ytick_2">
     <g id="line2d_11">
      <g>
       <use style="stroke:#000000;stroke-width:0.8;" x="57.6" xlink:href="#mc322cf32b9" y="274.32"/>
      </g>
     </g>
     <g id="text_11">
      <!-- −7.5 -->
      <g transform="translate(26.317187 278.119219)scale(0.1 -0.1)">
       <use xlink:href="#DejaVuSans-2212"/>
       <use x="83.789062" xlink:href="#DejaVuSans-37"/>
       <use x="147.412109" xlink:href="#DejaVuSans-2e"/>
       <use x="179.199219" xlink:href="#DejaVuSans-35"/>
      </g>
     </g>
    </g>
    <g id="ytick_3">
     <g id="line2d_12">
      <g>
       <use style="stroke:#000000;stroke-width:0.8;" x="57.6" xlink:href="#mc322cf32b9" y="241.056"/>
      </g>
     </g>
     <g id="text_12">
      <!-- −5.0 -->
      <g transform="translate(26.317187 244.855219)scale(0.1 -0.1)">
       <use xlink:href="#DejaVuSans-2212"/>
       <use x="83.789062" xlink:href="#DejaVuSans-35"/>
       <use x="147.412109" xlink:href="#DejaVuSans-2e"/>
       <use x="179.199219" xlink:href="#DejaVuSans-30"/>
      </g>
     </g>
    </g>
    <g id="ytick_4">
     <g id="line2d_13">
      <g>
       <use style="stroke:#000000;stroke-width:0.8;" x="57.6" xlink:href="#mc322cf32b9" y="207.792"/>
      </g>
     </g>
     <g id="text_13">
      <!-- −2.5 -->
      <g transform="translate(26.317187 211.591219)scale(0.1 -0.1)">
       <use xlink:href="#DejaVuSans-2212"/>
       <use x="83.789062" xlink:href="#DejaVuSans-32"/>
       <use x="147.412109" xlink:href="#DejaVuSans-2e"/>
       <use x="179.199219" xlink:href="#DejaVuSans-35"/>
      </g>
     </g>
    </g>
    <g id="ytick_5">
     <g id="line2d_14">
      <g>
       <use style="stroke:#000000;stroke-width:0.8;" x="57.6" xlink:href="#mc322cf32b9" y="174.528"/>
      </g>
     </g>
     <g id="text_14">
      <!-- 0.0 -->
      <g transform="translate(34.696875 178.327219)scale(0.1 -0.1)">
       <use xlink:href="#DejaVuSans-30"/>
       <use x="63.623047" xlink:href="#DejaVuSans-2e"/>
       <use x="95.410156" xlink:href="#DejaVuSans-30"/>
      </g>
     </g>
    </g>
    <g id="ytick_6">
     <g id="line2d_15">
      <g>
       <use style="stroke:#000000;stroke-width:0.8;" x="57.6" xlink:href="#mc322cf32b9" y="141.264"/>
      </g>
     </g>
     <g id="text_15">
      <!-- 2.5 -->
      <g transform="translate(34.696875 145.063219)scale(0.1 -0.1)">
       <use xlink:href="#DejaVuSans-32"/>
       <use x="63.623047" xlink:href="#DejaVuSans-2e"/>
       <use x="95.410156" xlink:href="#DejaVuSans-35"/>
      </g>
     </g>
    </g>
    <g id="ytick_7">
     <g id="line2d_16">
      <g>
       <use style="stroke:#000000;stroke-width:0.8;" x="57.6" xlink:href="#mc322cf32b9" y="108"/>
      </g>
     </g>
     <g id="text_16">
      <!-- 5.0 -->
      <g transform="translate(34.696875 111.799219)scale(0.1 -0.1)">
       <use xlink:href="#DejaVuSans-35"/>
       <use x="63.623047" xlink:href="#DejaVuSans-2e"/>
       <use x="95.410156" xlink:href="#DejaVuSans-30"/>
      </g>
     </g>
    </g>
    <g id="ytick_8">
     <g id="line2d_17">
      <g>
       <use style="stroke:#000000;stroke-width:0.8;" x="57.6" xlink:href="#mc322cf32b9" y="74.736"/>
      </g>
     </g>
     <g id="text_17">
      <!-- 7.5 -->
      <g transform="translate(34.696875 78.535219)scale(0.1 -0.1)">
       <use xlink:href="#DejaVuSans-37"/>
       <use x="63.623047" xlink:href="#DejaVuSans-2e"/>
       <use x="95.410156" xlink:href="#DejaVuSans-35"/>
      </g>
     </g>
    </g>
    <g id="ytick_9">
     <g id="line2d_18">
      <g>
       <use style="stroke:#000000;stroke-width:0.8;" x="57.6" xlink:href="#mc322cf32b9" y="41.472"/>
      </g>
     </g>
     <g id="text_18">
      <!-- 10.0 -->
      <g transform="translate(28.334375 45.271219)scale(0.1 -0.1)">
       <use xlink:href="#DejaVuSans-31"/>
       <use x="63.623047" xlink:href="#DejaVuSans-30"/>
       <use x="127.246094" xlink:href="#DejaVuSans-2e"/>
       <use x="159.033203" xlink:href="#DejaVuSans-30"/>
      </g>
     </g>
    </g>
   </g>
   <g id="patch_3">
    <path d="M 57.6 307.584 
L 57.6 41.472 
" style="fill:none;stroke:#000000;stroke-linecap:square;stroke-linejoin:miter;stroke-width:0.8;"/>
   </g>
   <g id="patch_4">
    <path d="M 414.72 307.584 
L 414.72 41.472 
" style="fill:none;stroke:#000000;stroke-linecap:square;stroke-linejoin:miter;stroke-width:0.8;"/>
   </g>
   <g id="patch_5">
    <path d="M 57.6 307.584 
L 414.72 307.584 
" style="fill:none;stroke:#000000;stroke-linecap:square;stroke-linejoin:miter;stroke-width:0.8;"/>
   </g>
   <g id="patch_6">
    <path d="M 57.6 41.472 
L 414.72 41.472 
" style="fill:none;stroke:#000000;stroke-linecap:square;stroke-linejoin:miter;stroke-width:0.8;"/>
   </g>
  </g>
 </g>
 <defs>
  <clipPath id="pfd5dae9fdc">
   <rect height="266.112" width="357.12" x="57.6" y="41.472"/>
  </clipPath>
 </defs>
</svg>
