<?xml version="1.0" encoding="utf-8" standalone="no"?>
<!DOCTYPE svg PUBLIC "-//W3C//DTD SVG 1.1//EN"
  "http://www.w3.org/Graphics/SVG/1.1/DTD/svg11.dtd">
<!-- Created with matplotlib (http://matplotlib.org/) -->
<svg height="345.6pt" version="1.1" viewBox="0 0 460.8 345.6" width="460.8pt" xmlns="http://www.w3.org/2000/svg" xmlns:xlink="http://www.w3.org/1999/xlink">
 <defs>
  <style type="text/css">
*{stroke-linecap:butt;stroke-linejoin:round;}
  </style>
 </defs>
 <g id="figure_1">
  <g id="patch_1">
   <path d="M 0 345.6 
L 460.8 345.6 
L 460.8 0 
L 0 0 
z
" style="fill:#ffffff;"/>
  </g>
  <g id="axes_1">
   <g id="patch_2">
    <path d="M 57.6 307.584 
L 414.72 307.584 
L 414.72 41.472 
L 57.6 41.472 
z
" style="fill:#ffffff;"/>
   </g>
   <g id="PathCollection_1">
    <defs>
     <path d="M 0 0.612372 
C 0.162403 0.612372 0.318176 0.547849 0.433013 0.433013 
C 0.547849 0.318176 0.612372 0.162403 0.612372 0 
C 0.612372 -0.162403 0.547849 -0.318176 0.433013 -0.433013 
C 0.318176 -0.547849 0.162403 -0.612372 0 -0.612372 
C -0.162403 -0.612372 -0.318176 -0.547849 -0.433013 -0.433013 
C -0.547849 -0.318176 -0.612372 -0.162403 -0.612372 0 
C -0.612372 0.162403 -0.547849 0.318176 -0.433013 0.433013 
C -0.318176 0.547849 -0.162403 0.612372 0 0.612372 
z
" id="mc9ba89e380" style="stroke:#000000;"/>
    </defs>
    <g clip-path="url(#pa41cced1e4)">
     <use style="stroke:#000000;" x="240.014039" xlink:href="#mc9ba89e380" y="174.528"/>
     <use style="stroke:#000000;" x="239.633325" xlink:href="#mc9ba89e380" y="173.091562"/>
     <use style="stroke:#000000;" x="239.539479" xlink:href="#mc9ba89e380" y="174.528"/>
     <use style="stroke:#000000;" x="247.728751" xlink:href="#mc9ba89e380" y="173.215976"/>
     <use style="stroke:#000000;" x="237.09898" xlink:href="#mc9ba89e380" y="174.528"/>
     <use style="stroke:#000000;" x="237.844663" xlink:href="#mc9ba89e380" y="173.253558"/>
     <use style="stroke:#000000;" x="236.7996" xlink:href="#mc9ba89e380" y="174.528"/>
     <use style="stroke:#000000;" x="240.262405" xlink:href="#mc9ba89e380" y="174.304851"/>
     <use style="stroke:#000000;" x="237.930995" xlink:href="#mc9ba89e380" y="174.528"/>
     <use style="stroke:#000000;" x="236.439358" xlink:href="#mc9ba89e380" y="173.633038"/>
     <use style="stroke:#000000;" x="247.598386" xlink:href="#mc9ba89e380" y="174.528"/>
     <use style="stroke:#000000;" x="240.452065" xlink:href="#mc9ba89e380" y="174.528"/>
     <use style="stroke:#000000;" x="247.52623" xlink:href="#mc9ba89e380" y="173.588449"/>
     <use style="stroke:#000000;" x="247.395508" xlink:href="#mc9ba89e380" y="174.528"/>
     <use style="stroke:#000000;" x="236.16" xlink:href="#mc9ba89e380" y="174.528"/>
     <use style="stroke:#000000;" x="244.444884" xlink:href="#mc9ba89e380" y="171.67025"/>
     <use style="stroke:#000000;" x="244.064341" xlink:href="#mc9ba89e380" y="173.264708"/>
     <use style="stroke:#000000;" x="247.329701" xlink:href="#mc9ba89e380" y="173.867949"/>
     <use style="stroke:#000000;" x="240.052351" xlink:href="#mc9ba89e380" y="174.528"/>
     <use style="stroke:#000000;" x="247.764621" xlink:href="#mc9ba89e380" y="173.711793"/>
     <use style="stroke:#000000;" x="236.435281" xlink:href="#mc9ba89e380" y="174.035011"/>
     <use style="stroke:#000000;" x="247.373896" xlink:href="#mc9ba89e380" y="173.372221"/>
     <use style="stroke:#000000;" x="240.425937" xlink:href="#mc9ba89e380" y="174.084807"/>
     <use style="stroke:#000000;" x="247.436616" xlink:href="#mc9ba89e380" y="173.50035"/>
     <use style="stroke:#000000;" x="239.85549" xlink:href="#mc9ba89e380" y="174.528"/>
     <use style="stroke:#000000;" x="247.60217" xlink:href="#mc9ba89e380" y="174.528"/>
     <use style="stroke:#000000;" x="236.351936" xlink:href="#mc9ba89e380" y="174.528"/>
     <use style="stroke:#000000;" x="251.042935" xlink:href="#mc9ba89e380" y="173.535222"/>
     <use style="stroke:#000000;" x="244.249813" xlink:href="#mc9ba89e380" y="171.542837"/>
     <use style="stroke:#000000;" x="240.1014" xlink:href="#mc9ba89e380" y="174.528"/>
     <use style="stroke:#000000;" x="239.953245" xlink:href="#mc9ba89e380" y="174.528"/>
     <use style="stroke:#000000;" x="247.748076" xlink:href="#mc9ba89e380" y="174.528"/>
     <use style="stroke:#000000;" x="237.194305" xlink:href="#mc9ba89e380" y="172.971115"/>
     <use style="stroke:#000000;" x="252.002046" xlink:href="#mc9ba89e380" y="174.350195"/>
     <use style="stroke:#000000;" x="237.14708" xlink:href="#mc9ba89e380" y="173.471404"/>
     <use style="stroke:#000000;" x="236.922946" xlink:href="#mc9ba89e380" y="174.368141"/>
     <use style="stroke:#000000;" x="236.955802" xlink:href="#mc9ba89e380" y="172.486058"/>
     <use style="stroke:#000000;" x="237.991728" xlink:href="#mc9ba89e380" y="173.225233"/>
     <use style="stroke:#000000;" x="240.41409" xlink:href="#mc9ba89e380" y="174.528"/>
     <use style="stroke:#000000;" x="240.471912" xlink:href="#mc9ba89e380" y="174.528"/>
     <use style="stroke:#000000;" x="240.069864" xlink:href="#mc9ba89e380" y="171.75088"/>
     <use style="stroke:#000000;" x="240.470638" xlink:href="#mc9ba89e380" y="174.200006"/>
     <use style="stroke:#000000;" x="238.177087" xlink:href="#mc9ba89e380" y="174.528"/>
     <use style="stroke:#000000;" x="236.593211" xlink:href="#mc9ba89e380" y="172.82207"/>
     <use style="stroke:#000000;" x="236.619401" xlink:href="#mc9ba89e380" y="173.535743"/>
     <use style="stroke:#000000;" x="236.561033" xlink:href="#mc9ba89e380" y="173.768182"/>
     <use style="stroke:#000000;" x="236.16" xlink:href="#mc9ba89e380" y="174.520553"/>
     <use style="stroke:#000000;" x="236.207754" xlink:href="#mc9ba89e380" y="174.528"/>
     <use style="stroke:#000000;" x="247.214939" xlink:href="#mc9ba89e380" y="173.536802"/>
     <use style="stroke:#000000;" x="247.141847" xlink:href="#mc9ba89e380" y="174.474888"/>
     <use style="stroke:#000000;" x="247.219338" xlink:href="#mc9ba89e380" y="174.528"/>
     <use style="stroke:#000000;" x="247.068785" xlink:href="#mc9ba89e380" y="174.528"/>
     <use style="stroke:#000000;" x="240.591465" xlink:href="#mc9ba89e380" y="171.55173"/>
     <use style="stroke:#000000;" x="240.639908" xlink:href="#mc9ba89e380" y="174.528"/>
     <use style="stroke:#000000;" x="240.789253" xlink:href="#mc9ba89e380" y="174.528"/>
     <use style="stroke:#000000;" x="243.795207" xlink:href="#mc9ba89e380" y="173.467031"/>
     <use style="stroke:#000000;" x="247.549441" xlink:href="#mc9ba89e380" y="174.528"/>
     <use style="stroke:#000000;" x="244.194156" xlink:href="#mc9ba89e380" y="172.979027"/>
     <use style="stroke:#000000;" x="239.881206" xlink:href="#mc9ba89e380" y="174.528"/>
     <use style="stroke:#000000;" x="240.150274" xlink:href="#mc9ba89e380" y="173.883405"/>
     <use style="stroke:#000000;" x="239.225352" xlink:href="#mc9ba89e380" y="174.15611"/>
     <use style="stroke:#000000;" x="240.225731" xlink:href="#mc9ba89e380" y="174.528"/>
     <use style="stroke:#000000;" x="238.562191" xlink:href="#mc9ba89e380" y="174.20415"/>
     <use style="stroke:#000000;" x="238.690752" xlink:href="#mc9ba89e380" y="171.761568"/>
     <use style="stroke:#000000;" x="238.412249" xlink:href="#mc9ba89e380" y="172.848674"/>
     <use style="stroke:#000000;" x="240.498299" xlink:href="#mc9ba89e380" y="174.528"/>
     <use style="stroke:#000000;" x="238.637427" xlink:href="#mc9ba89e380" y="174.528"/>
     <use style="stroke:#000000;" x="247.182872" xlink:href="#mc9ba89e380" y="172.668702"/>
     <use style="stroke:#000000;" x="248.60142" xlink:href="#mc9ba89e380" y="173.775874"/>
     <use style="stroke:#000000;" x="236.16" xlink:href="#mc9ba89e380" y="173.643163"/>
     <use style="stroke:#000000;" x="238.082493" xlink:href="#mc9ba89e380" y="174.528"/>
     <use style="stroke:#000000;" x="236.917231" xlink:href="#mc9ba89e380" y="173.643802"/>
     <use style="stroke:#000000;" x="238.794144" xlink:href="#mc9ba89e380" y="172.602309"/>
     <use style="stroke:#000000;" x="236.16" xlink:href="#mc9ba89e380" y="172.904429"/>
     <use style="stroke:#000000;" x="236.16" xlink:href="#mc9ba89e380" y="174.528"/>
     <use style="stroke:#000000;" x="240.373766" xlink:href="#mc9ba89e380" y="173.946917"/>
     <use style="stroke:#000000;" x="240.357282" xlink:href="#mc9ba89e380" y="174.492384"/>
     <use style="stroke:#000000;" x="238.403297" xlink:href="#mc9ba89e380" y="174.528"/>
     <use style="stroke:#000000;" x="237.22413" xlink:href="#mc9ba89e380" y="174.528"/>
     <use style="stroke:#000000;" x="236.16" xlink:href="#mc9ba89e380" y="174.528"/>
     <use style="stroke:#000000;" x="236.16" xlink:href="#mc9ba89e380" y="173.200385"/>
     <use style="stroke:#000000;" x="247.231769" xlink:href="#mc9ba89e380" y="173.301901"/>
     <use style="stroke:#000000;" x="246.146664" xlink:href="#mc9ba89e380" y="174.350981"/>
     <use style="stroke:#000000;" x="248.183637" xlink:href="#mc9ba89e380" y="174.330464"/>
     <use style="stroke:#000000;" x="241.601048" xlink:href="#mc9ba89e380" y="174.528"/>
     <use style="stroke:#000000;" x="239.997449" xlink:href="#mc9ba89e380" y="174.528"/>
     <use style="stroke:#000000;" x="239.245335" xlink:href="#mc9ba89e380" y="174.127231"/>
     <use style="stroke:#000000;" x="245.736266" xlink:href="#mc9ba89e380" y="173.474856"/>
     <use style="stroke:#000000;" x="247.982217" xlink:href="#mc9ba89e380" y="173.40288"/>
     <use style="stroke:#000000;" x="249.20942" xlink:href="#mc9ba89e380" y="173.576727"/>
     <use style="stroke:#000000;" x="247.132198" xlink:href="#mc9ba89e380" y="174.528"/>
     <use style="stroke:#000000;" x="246.785339" xlink:href="#mc9ba89e380" y="174.528"/>
     <use style="stroke:#000000;" x="248.285504" xlink:href="#mc9ba89e380" y="174.528"/>
     <use style="stroke:#000000;" x="236.16" xlink:href="#mc9ba89e380" y="174.528"/>
     <use style="stroke:#000000;" x="236.16" xlink:href="#mc9ba89e380" y="174.528"/>
     <use style="stroke:#000000;" x="236.16" xlink:href="#mc9ba89e380" y="174.528"/>
     <use style="stroke:#000000;" x="244.811991" xlink:href="#mc9ba89e380" y="171.133282"/>
     <use style="stroke:#000000;" x="243.983047" xlink:href="#mc9ba89e380" y="172.042879"/>
     <use style="stroke:#000000;" x="244.579505" xlink:href="#mc9ba89e380" y="170.965494"/>
     <use style="stroke:#000000;" x="243.925944" xlink:href="#mc9ba89e380" y="172.143859"/>
     <use style="stroke:#000000;" x="244.892816" xlink:href="#mc9ba89e380" y="173.614149"/>
     <use style="stroke:#000000;" x="243.377401" xlink:href="#mc9ba89e380" y="173.566157"/>
     <use style="stroke:#000000;" x="247.054561" xlink:href="#mc9ba89e380" y="173.032991"/>
     <use style="stroke:#000000;" x="246.685081" xlink:href="#mc9ba89e380" y="173.170468"/>
     <use style="stroke:#000000;" x="248.111035" xlink:href="#mc9ba89e380" y="174.528"/>
     <use style="stroke:#000000;" x="241.727857" xlink:href="#mc9ba89e380" y="174.400185"/>
     <use style="stroke:#000000;" x="239.626455" xlink:href="#mc9ba89e380" y="174.154399"/>
     <use style="stroke:#000000;" x="239.293598" xlink:href="#mc9ba89e380" y="174.258411"/>
     <use style="stroke:#000000;" x="247.673248" xlink:href="#mc9ba89e380" y="174.528"/>
     <use style="stroke:#000000;" x="247.682371" xlink:href="#mc9ba89e380" y="173.935589"/>
     <use style="stroke:#000000;" x="247.787732" xlink:href="#mc9ba89e380" y="174.528"/>
     <use style="stroke:#000000;" x="237.011591" xlink:href="#mc9ba89e380" y="174.016431"/>
     <use style="stroke:#000000;" x="236.598896" xlink:href="#mc9ba89e380" y="174.132856"/>
     <use style="stroke:#000000;" x="237.529249" xlink:href="#mc9ba89e380" y="174.051104"/>
     <use style="stroke:#000000;" x="248.266371" xlink:href="#mc9ba89e380" y="173.01673"/>
     <use style="stroke:#000000;" x="246.049441" xlink:href="#mc9ba89e380" y="173.91893"/>
     <use style="stroke:#000000;" x="246.68733" xlink:href="#mc9ba89e380" y="172.700901"/>
     <use style="stroke:#000000;" x="240.340554" xlink:href="#mc9ba89e380" y="174.008448"/>
     <use style="stroke:#000000;" x="240.397283" xlink:href="#mc9ba89e380" y="174.361708"/>
     <use style="stroke:#000000;" x="239.700103" xlink:href="#mc9ba89e380" y="173.705869"/>
     <use style="stroke:#000000;" x="247.738857" xlink:href="#mc9ba89e380" y="173.01264"/>
     <use style="stroke:#000000;" x="248.093918" xlink:href="#mc9ba89e380" y="173.664036"/>
     <use style="stroke:#000000;" x="247.706184" xlink:href="#mc9ba89e380" y="173.596581"/>
     <use style="stroke:#000000;" x="239.814518" xlink:href="#mc9ba89e380" y="174.528"/>
     <use style="stroke:#000000;" x="238.513807" xlink:href="#mc9ba89e380" y="173.900496"/>
     <use style="stroke:#000000;" x="242.304687" xlink:href="#mc9ba89e380" y="174.425295"/>
     <use style="stroke:#000000;" x="248.672147" xlink:href="#mc9ba89e380" y="174.528"/>
     <use style="stroke:#000000;" x="247.495924" xlink:href="#mc9ba89e380" y="174.094723"/>
     <use style="stroke:#000000;" x="247.915559" xlink:href="#mc9ba89e380" y="174.528"/>
     <use style="stroke:#000000;" x="236.16" xlink:href="#mc9ba89e380" y="174.528"/>
     <use style="stroke:#000000;" x="236.954595" xlink:href="#mc9ba89e380" y="174.528"/>
     <use style="stroke:#000000;" x="236.414911" xlink:href="#mc9ba89e380" y="174.528"/>
     <use style="stroke:#000000;" x="250.961886" xlink:href="#mc9ba89e380" y="174.159604"/>
     <use style="stroke:#000000;" x="250.364206" xlink:href="#mc9ba89e380" y="172.108143"/>
     <use style="stroke:#000000;" x="252.623465" xlink:href="#mc9ba89e380" y="173.678475"/>
     <use style="stroke:#000000;" x="244.549119" xlink:href="#mc9ba89e380" y="171.37679"/>
     <use style="stroke:#000000;" x="242.391054" xlink:href="#mc9ba89e380" y="172.178847"/>
     <use style="stroke:#000000;" x="245.342625" xlink:href="#mc9ba89e380" y="171.302161"/>
     <use style="stroke:#000000;" x="244.682579" xlink:href="#mc9ba89e380" y="172.016859"/>
     <use style="stroke:#000000;" x="240.052325" xlink:href="#mc9ba89e380" y="173.229518"/>
     <use style="stroke:#000000;" x="238.286928" xlink:href="#mc9ba89e380" y="173.91357"/>
     <use style="stroke:#000000;" x="240.608784" xlink:href="#mc9ba89e380" y="174.528"/>
     <use style="stroke:#000000;" x="247.107364" xlink:href="#mc9ba89e380" y="174.528"/>
     <use style="stroke:#000000;" x="248.765652" xlink:href="#mc9ba89e380" y="174.528"/>
     <use style="stroke:#000000;" x="237.368997" xlink:href="#mc9ba89e380" y="173.055977"/>
     <use style="stroke:#000000;" x="236.493328" xlink:href="#mc9ba89e380" y="173.405789"/>
     <use style="stroke:#000000;" x="252.952232" xlink:href="#mc9ba89e380" y="173.568447"/>
     <use style="stroke:#000000;" x="252.208976" xlink:href="#mc9ba89e380" y="174.528"/>
     <use style="stroke:#000000;" x="236.88781" xlink:href="#mc9ba89e380" y="174.057413"/>
     <use style="stroke:#000000;" x="237.777673" xlink:href="#mc9ba89e380" y="174.528"/>
     <use style="stroke:#000000;" x="238.47049" xlink:href="#mc9ba89e380" y="173.533589"/>
     <use style="stroke:#000000;" x="240.411447" xlink:href="#mc9ba89e380" y="171.804024"/>
     <use style="stroke:#000000;" x="240.412294" xlink:href="#mc9ba89e380" y="174.130821"/>
     <use style="stroke:#000000;" x="240.408253" xlink:href="#mc9ba89e380" y="174.528"/>
     <use style="stroke:#000000;" x="240.05056" xlink:href="#mc9ba89e380" y="171.936951"/>
     <use style="stroke:#000000;" x="239.524949" xlink:href="#mc9ba89e380" y="170.946781"/>
     <use style="stroke:#000000;" x="239.864951" xlink:href="#mc9ba89e380" y="174.528"/>
     <use style="stroke:#000000;" x="241.354507" xlink:href="#mc9ba89e380" y="174.528"/>
     <use style="stroke:#000000;" x="236.16" xlink:href="#mc9ba89e380" y="173.745819"/>
     <use style="stroke:#000000;" x="237.227676" xlink:href="#mc9ba89e380" y="174.179071"/>
     <use style="stroke:#000000;" x="238.977873" xlink:href="#mc9ba89e380" y="172.628655"/>
     <use style="stroke:#000000;" x="237.172983" xlink:href="#mc9ba89e380" y="174.528"/>
     <use style="stroke:#000000;" x="236.16" xlink:href="#mc9ba89e380" y="173.375082"/>
     <use style="stroke:#000000;" x="236.16" xlink:href="#mc9ba89e380" y="174.255053"/>
     <use style="stroke:#000000;" x="245.686973" xlink:href="#mc9ba89e380" y="173.494574"/>
     <use style="stroke:#000000;" x="247.903415" xlink:href="#mc9ba89e380" y="173.19667"/>
     <use style="stroke:#000000;" x="247.725776" xlink:href="#mc9ba89e380" y="174.528"/>
     <use style="stroke:#000000;" x="247.461533" xlink:href="#mc9ba89e380" y="174.528"/>
     <use style="stroke:#000000;" x="245.238801" xlink:href="#mc9ba89e380" y="172.4297"/>
     <use style="stroke:#000000;" x="245.743324" xlink:href="#mc9ba89e380" y="174.528"/>
     <use style="stroke:#000000;" x="246.801717" xlink:href="#mc9ba89e380" y="174.299518"/>
     <use style="stroke:#000000;" x="239.397653" xlink:href="#mc9ba89e380" y="170.864417"/>
     <use style="stroke:#000000;" x="239.82845" xlink:href="#mc9ba89e380" y="171.451335"/>
     <use style="stroke:#000000;" x="240.498113" xlink:href="#mc9ba89e380" y="174.194406"/>
     <use style="stroke:#000000;" x="238.230723" xlink:href="#mc9ba89e380" y="172.540493"/>
     <use style="stroke:#000000;" x="241.150699" xlink:href="#mc9ba89e380" y="173.874281"/>
     <use style="stroke:#000000;" x="244.281422" xlink:href="#mc9ba89e380" y="173.603512"/>
     <use style="stroke:#000000;" x="247.94122" xlink:href="#mc9ba89e380" y="174.26146"/>
     <use style="stroke:#000000;" x="243.679708" xlink:href="#mc9ba89e380" y="174.168717"/>
     <use style="stroke:#000000;" x="241.241889" xlink:href="#mc9ba89e380" y="174.463378"/>
     <use style="stroke:#000000;" x="239.599369" xlink:href="#mc9ba89e380" y="173.731378"/>
    </g>
   </g>
   <g id="PathCollection_2">
    <defs>
     <path d="M 0 0.935414 
C 0.248075 0.935414 0.486022 0.836853 0.661438 0.661438 
C 0.836853 0.486022 0.935414 0.248075 0.935414 0 
C 0.935414 -0.248075 0.836853 -0.486022 0.661438 -0.661438 
C 0.486022 -0.836853 0.248075 -0.935414 0 -0.935414 
C -0.248075 -0.935414 -0.486022 -0.836853 -0.661438 -0.661438 
C -0.836853 -0.486022 -0.935414 -0.248075 -0.935414 0 
C -0.935414 0.248075 -0.836853 0.486022 -0.661438 0.661438 
C -0.486022 0.836853 -0.248075 0.935414 0 0.935414 
z
" id="md20e6e0335" style="stroke:#0000ff;"/>
    </defs>
    <g clip-path="url(#pa41cced1e4)">
     <use style="fill:#0000ff;stroke:#0000ff;" x="240.014039" xlink:href="#md20e6e0335" y="174.528"/>
     <use style="fill:#0000ff;stroke:#0000ff;" x="239.633325" xlink:href="#md20e6e0335" y="173.091562"/>
     <use style="fill:#0000ff;stroke:#0000ff;" x="239.539479" xlink:href="#md20e6e0335" y="174.528"/>
     <use style="fill:#0000ff;stroke:#0000ff;" x="247.728751" xlink:href="#md20e6e0335" y="173.215976"/>
     <use style="fill:#0000ff;stroke:#0000ff;" x="237.09898" xlink:href="#md20e6e0335" y="174.528"/>
     <use style="fill:#0000ff;stroke:#0000ff;" x="237.844663" xlink:href="#md20e6e0335" y="173.253558"/>
     <use style="fill:#0000ff;stroke:#0000ff;" x="236.7996" xlink:href="#md20e6e0335" y="174.528"/>
     <use style="fill:#0000ff;stroke:#0000ff;" x="240.262405" xlink:href="#md20e6e0335" y="174.304851"/>
     <use style="fill:#0000ff;stroke:#0000ff;" x="237.930995" xlink:href="#md20e6e0335" y="174.528"/>
     <use style="fill:#0000ff;stroke:#0000ff;" x="236.439358" xlink:href="#md20e6e0335" y="173.633038"/>
     <use style="fill:#0000ff;stroke:#0000ff;" x="247.598386" xlink:href="#md20e6e0335" y="174.528"/>
     <use style="fill:#0000ff;stroke:#0000ff;" x="240.452065" xlink:href="#md20e6e0335" y="174.528"/>
     <use style="fill:#0000ff;stroke:#0000ff;" x="247.52623" xlink:href="#md20e6e0335" y="173.588449"/>
     <use style="fill:#0000ff;stroke:#0000ff;" x="247.395508" xlink:href="#md20e6e0335" y="174.528"/>
     <use style="fill:#0000ff;stroke:#0000ff;" x="236.16" xlink:href="#md20e6e0335" y="174.528"/>
     <use style="fill:#0000ff;stroke:#0000ff;" x="244.444884" xlink:href="#md20e6e0335" y="171.67025"/>
     <use style="fill:#0000ff;stroke:#0000ff;" x="244.064341" xlink:href="#md20e6e0335" y="173.264708"/>
     <use style="fill:#0000ff;stroke:#0000ff;" x="247.329701" xlink:href="#md20e6e0335" y="173.867949"/>
     <use style="fill:#0000ff;stroke:#0000ff;" x="240.052351" xlink:href="#md20e6e0335" y="174.528"/>
     <use style="fill:#0000ff;stroke:#0000ff;" x="247.764621" xlink:href="#md20e6e0335" y="173.711793"/>
     <use style="fill:#0000ff;stroke:#0000ff;" x="236.435281" xlink:href="#md20e6e0335" y="174.035011"/>
     <use style="fill:#0000ff;stroke:#0000ff;" x="247.373896" xlink:href="#md20e6e0335" y="173.372221"/>
     <use style="fill:#0000ff;stroke:#0000ff;" x="240.425937" xlink:href="#md20e6e0335" y="174.084807"/>
     <use style="fill:#0000ff;stroke:#0000ff;" x="247.436616" xlink:href="#md20e6e0335" y="173.50035"/>
     <use style="fill:#0000ff;stroke:#0000ff;" x="239.85549" xlink:href="#md20e6e0335" y="174.528"/>
     <use style="fill:#0000ff;stroke:#0000ff;" x="247.60217" xlink:href="#md20e6e0335" y="174.528"/>
     <use style="fill:#0000ff;stroke:#0000ff;" x="236.351936" xlink:href="#md20e6e0335" y="174.528"/>
     <use style="fill:#0000ff;stroke:#0000ff;" x="251.042935" xlink:href="#md20e6e0335" y="173.535222"/>
     <use style="fill:#0000ff;stroke:#0000ff;" x="244.249813" xlink:href="#md20e6e0335" y="171.542837"/>
     <use style="fill:#0000ff;stroke:#0000ff;" x="240.1014" xlink:href="#md20e6e0335" y="174.528"/>
     <use style="fill:#0000ff;stroke:#0000ff;" x="239.953245" xlink:href="#md20e6e0335" y="174.528"/>
     <use style="fill:#0000ff;stroke:#0000ff;" x="247.748076" xlink:href="#md20e6e0335" y="174.528"/>
     <use style="fill:#0000ff;stroke:#0000ff;" x="237.194305" xlink:href="#md20e6e0335" y="172.971115"/>
     <use style="fill:#0000ff;stroke:#0000ff;" x="252.002046" xlink:href="#md20e6e0335" y="174.350195"/>
     <use style="fill:#0000ff;stroke:#0000ff;" x="237.14708" xlink:href="#md20e6e0335" y="173.471404"/>
     <use style="fill:#0000ff;stroke:#0000ff;" x="236.922946" xlink:href="#md20e6e0335" y="174.368141"/>
     <use style="fill:#0000ff;stroke:#0000ff;" x="236.955802" xlink:href="#md20e6e0335" y="172.486058"/>
     <use style="fill:#0000ff;stroke:#0000ff;" x="237.991728" xlink:href="#md20e6e0335" y="173.225233"/>
     <use style="fill:#0000ff;stroke:#0000ff;" x="240.41409" xlink:href="#md20e6e0335" y="174.528"/>
     <use style="fill:#0000ff;stroke:#0000ff;" x="240.471912" xlink:href="#md20e6e0335" y="174.528"/>
     <use style="fill:#0000ff;stroke:#0000ff;" x="240.069864" xlink:href="#md20e6e0335" y="171.75088"/>
     <use style="fill:#0000ff;stroke:#0000ff;" x="240.470638" xlink:href="#md20e6e0335" y="174.200006"/>
     <use style="fill:#0000ff;stroke:#0000ff;" x="238.177087" xlink:href="#md20e6e0335" y="174.528"/>
     <use style="fill:#0000ff;stroke:#0000ff;" x="236.593211" xlink:href="#md20e6e0335" y="172.82207"/>
     <use style="fill:#0000ff;stroke:#0000ff;" x="236.619401" xlink:href="#md20e6e0335" y="173.535743"/>
     <use style="fill:#0000ff;stroke:#0000ff;" x="236.561033" xlink:href="#md20e6e0335" y="173.768182"/>
     <use style="fill:#0000ff;stroke:#0000ff;" x="236.16" xlink:href="#md20e6e0335" y="174.520553"/>
     <use style="fill:#0000ff;stroke:#0000ff;" x="236.207754" xlink:href="#md20e6e0335" y="174.528"/>
     <use style="fill:#0000ff;stroke:#0000ff;" x="247.214939" xlink:href="#md20e6e0335" y="173.536802"/>
     <use style="fill:#0000ff;stroke:#0000ff;" x="247.141847" xlink:href="#md20e6e0335" y="174.474888"/>
     <use style="fill:#0000ff;stroke:#0000ff;" x="247.219338" xlink:href="#md20e6e0335" y="174.528"/>
     <use style="fill:#0000ff;stroke:#0000ff;" x="247.068785" xlink:href="#md20e6e0335" y="174.528"/>
     <use style="fill:#0000ff;stroke:#0000ff;" x="240.591465" xlink:href="#md20e6e0335" y="171.55173"/>
     <use style="fill:#0000ff;stroke:#0000ff;" x="240.639908" xlink:href="#md20e6e0335" y="174.528"/>
     <use style="fill:#0000ff;stroke:#0000ff;" x="240.789253" xlink:href="#md20e6e0335" y="174.528"/>
     <use style="fill:#0000ff;stroke:#0000ff;" x="243.795207" xlink:href="#md20e6e0335" y="173.467031"/>
     <use style="fill:#0000ff;stroke:#0000ff;" x="247.549441" xlink:href="#md20e6e0335" y="174.528"/>
     <use style="fill:#0000ff;stroke:#0000ff;" x="244.194156" xlink:href="#md20e6e0335" y="172.979027"/>
     <use style="fill:#0000ff;stroke:#0000ff;" x="239.881206" xlink:href="#md20e6e0335" y="174.528"/>
     <use style="fill:#0000ff;stroke:#0000ff;" x="240.150274" xlink:href="#md20e6e0335" y="173.883405"/>
    </g>
   </g>
   <g id="matplotlib.axis_1">
    <g id="xtick_1">
     <g id="line2d_1">
      <defs>
       <path d="M 0 0 
L 0 3.5 
" id="m74e4b5956e" style="stroke:#000000;stroke-width:0.8;"/>
      </defs>
      <g>
       <use style="stroke:#000000;stroke-width:0.8;" x="57.6" xlink:href="#m74e4b5956e" y="307.584"/>
      </g>
     </g>
     <g id="text_1">
      <!-- −10.0 -->
      <defs>
       <path d="M 10.59375 35.5 
L 73.1875 35.5 
L 73.1875 27.203125 
L 10.59375 27.203125 
z
" id="DejaVuSans-2212"/>
       <path d="M 12.40625 8.296875 
L 28.515625 8.296875 
L 28.515625 63.921875 
L 10.984375 60.40625 
L 10.984375 69.390625 
L 28.421875 72.90625 
L 38.28125 72.90625 
L 38.28125 8.296875 
L 54.390625 8.296875 
L 54.390625 0 
L 12.40625 0 
z
" id="DejaVuSans-31"/>
       <path d="M 31.78125 66.40625 
Q 24.171875 66.40625 20.328125 58.90625 
Q 16.5 51.421875 16.5 36.375 
Q 16.5 21.390625 20.328125 13.890625 
Q 24.171875 6.390625 31.78125 6.390625 
Q 39.453125 6.390625 43.28125 13.890625 
Q 47.125 21.390625 47.125 36.375 
Q 47.125 51.421875 43.28125 58.90625 
Q 39.453125 66.40625 31.78125 66.40625 
z
M 31.78125 74.21875 
Q 44.046875 74.21875 50.515625 64.515625 
Q 56.984375 54.828125 56.984375 36.375 
Q 56.984375 17.96875 50.515625 8.265625 
Q 44.046875 -1.421875 31.78125 -1.421875 
Q 19.53125 -1.421875 13.0625 8.265625 
Q 6.59375 17.96875 6.59375 36.375 
Q 6.59375 54.828125 13.0625 64.515625 
Q 19.53125 74.21875 31.78125 74.21875 
z
" id="DejaVuSans-30"/>
       <path d="M 10.6875 12.40625 
L 21 12.40625 
L 21 0 
L 10.6875 0 
z
" id="DejaVuSans-2e"/>
      </defs>
      <g transform="translate(42.277344 322.182437)scale(0.1 -0.1)">
       <use xlink:href="#DejaVuSans-2212"/>
       <use x="83.789062" xlink:href="#DejaVuSans-31"/>
       <use x="147.412109" xlink:href="#DejaVuSans-30"/>
       <use x="211.035156" xlink:href="#DejaVuSans-2e"/>
       <use x="242.822266" xlink:href="#DejaVuSans-30"/>
      </g>
     </g>
    </g>
    <g id="xtick_2">
     <g id="line2d_2">
      <g>
       <use style="stroke:#000000;stroke-width:0.8;" x="102.24" xlink:href="#m74e4b5956e" y="307.584"/>
      </g>
     </g>
     <g id="text_2">
      <!-- −7.5 -->
      <defs>
       <path d="M 8.203125 72.90625 
L 55.078125 72.90625 
L 55.078125 68.703125 
L 28.609375 0 
L 18.3125 0 
L 43.21875 64.59375 
L 8.203125 64.59375 
z
" id="DejaVuSans-37"/>
       <path d="M 10.796875 72.90625 
L 49.515625 72.90625 
L 49.515625 64.59375 
L 19.828125 64.59375 
L 19.828125 46.734375 
Q 21.96875 47.46875 24.109375 47.828125 
Q 26.265625 48.1875 28.421875 48.1875 
Q 40.625 48.1875 47.75 41.5 
Q 54.890625 34.8125 54.890625 23.390625 
Q 54.890625 11.625 47.5625 5.09375 
Q 40.234375 -1.421875 26.90625 -1.421875 
Q 22.3125 -1.421875 17.546875 -0.640625 
Q 12.796875 0.140625 7.71875 1.703125 
L 7.71875 11.625 
Q 12.109375 9.234375 16.796875 8.0625 
Q 21.484375 6.890625 26.703125 6.890625 
Q 35.15625 6.890625 40.078125 11.328125 
Q 45.015625 15.765625 45.015625 23.390625 
Q 45.015625 31 40.078125 35.4375 
Q 35.15625 39.890625 26.703125 39.890625 
Q 22.75 39.890625 18.8125 39.015625 
Q 14.890625 38.140625 10.796875 36.28125 
z
" id="DejaVuSans-35"/>
      </defs>
      <g transform="translate(90.098594 322.182437)scale(0.1 -0.1)">
       <use xlink:href="#DejaVuSans-2212"/>
       <use x="83.789062" xlink:href="#DejaVuSans-37"/>
       <use x="147.412109" xlink:href="#DejaVuSans-2e"/>
       <use x="179.199219" xlink:href="#DejaVuSans-35"/>
      </g>
     </g>
    </g>
    <g id="xtick_3">
     <g id="line2d_3">
      <g>
       <use style="stroke:#000000;stroke-width:0.8;" x="146.88" xlink:href="#m74e4b5956e" y="307.584"/>
      </g>
     </g>
     <g id="text_3">
      <!-- −5.0 -->
      <g transform="translate(134.738594 322.182437)scale(0.1 -0.1)">
       <use xlink:href="#DejaVuSans-2212"/>
       <use x="83.789062" xlink:href="#DejaVuSans-35"/>
       <use x="147.412109" xlink:href="#DejaVuSans-2e"/>
       <use x="179.199219" xlink:href="#DejaVuSans-30"/>
      </g>
     </g>
    </g>
    <g id="xtick_4">
     <g id="line2d_4">
      <g>
       <use style="stroke:#000000;stroke-width:0.8;" x="191.52" xlink:href="#m74e4b5956e" y="307.584"/>
      </g>
     </g>
     <g id="text_4">
      <!-- −2.5 -->
      <defs>
       <path d="M 19.1875 8.296875 
L 53.609375 8.296875 
L 53.609375 0 
L 7.328125 0 
L 7.328125 8.296875 
Q 12.9375 14.109375 22.625 23.890625 
Q 32.328125 33.6875 34.8125 36.53125 
Q 39.546875 41.84375 41.421875 45.53125 
Q 43.3125 49.21875 43.3125 52.78125 
Q 43.3125 58.59375 39.234375 62.25 
Q 35.15625 65.921875 28.609375 65.921875 
Q 23.96875 65.921875 18.8125 64.3125 
Q 13.671875 62.703125 7.8125 59.421875 
L 7.8125 69.390625 
Q 13.765625 71.78125 18.9375 73 
Q 24.125 74.21875 28.421875 74.21875 
Q 39.75 74.21875 46.484375 68.546875 
Q 53.21875 62.890625 53.21875 53.421875 
Q 53.21875 48.921875 51.53125 44.890625 
Q 49.859375 40.875 45.40625 35.40625 
Q 44.1875 33.984375 37.640625 27.21875 
Q 31.109375 20.453125 19.1875 8.296875 
z
" id="DejaVuSans-32"/>
      </defs>
      <g transform="translate(179.378594 322.182437)scale(0.1 -0.1)">
       <use xlink:href="#DejaVuSans-2212"/>
       <use x="83.789062" xlink:href="#DejaVuSans-32"/>
       <use x="147.412109" xlink:href="#DejaVuSans-2e"/>
       <use x="179.199219" xlink:href="#DejaVuSans-35"/>
      </g>
     </g>
    </g>
    <g id="xtick_5">
     <g id="line2d_5">
      <g>
       <use style="stroke:#000000;stroke-width:0.8;" x="236.16" xlink:href="#m74e4b5956e" y="307.584"/>
      </g>
     </g>
     <g id="text_5">
      <!-- 0.0 -->
      <g transform="translate(228.208438 322.182437)scale(0.1 -0.1)">
       <use xlink:href="#DejaVuSans-30"/>
       <use x="63.623047" xlink:href="#DejaVuSans-2e"/>
       <use x="95.410156" xlink:href="#DejaVuSans-30"/>
      </g>
     </g>
    </g>
    <g id="xtick_6">
     <g id="line2d_6">
      <g>
       <use style="stroke:#000000;stroke-width:0.8;" x="280.8" xlink:href="#m74e4b5956e" y="307.584"/>
      </g>
     </g>
     <g id="text_6">
      <!-- 2.5 -->
      <g transform="translate(272.848437 322.182437)scale(0.1 -0.1)">
       <use xlink:href="#DejaVuSans-32"/>
       <use x="63.623047" xlink:href="#DejaVuSans-2e"/>
       <use x="95.410156" xlink:href="#DejaVuSans-35"/>
      </g>
     </g>
    </g>
    <g id="xtick_7">
     <g id="line2d_7">
      <g>
       <use style="stroke:#000000;stroke-width:0.8;" x="325.44" xlink:href="#m74e4b5956e" y="307.584"/>
      </g>
     </g>
     <g id="text_7">
      <!-- 5.0 -->
      <g transform="translate(317.488437 322.182437)scale(0.1 -0.1)">
       <use xlink:href="#DejaVuSans-35"/>
       <use x="63.623047" xlink:href="#DejaVuSans-2e"/>
       <use x="95.410156" xlink:href="#DejaVuSans-30"/>
      </g>
     </g>
    </g>
    <g id="xtick_8">
     <g id="line2d_8">
      <g>
       <use style="stroke:#000000;stroke-width:0.8;" x="370.08" xlink:href="#m74e4b5956e" y="307.584"/>
      </g>
     </g>
     <g id="text_8">
      <!-- 7.5 -->
      <g transform="translate(362.128438 322.182437)scale(0.1 -0.1)">
       <use xlink:href="#DejaVuSans-37"/>
       <use x="63.623047" xlink:href="#DejaVuSans-2e"/>
       <use x="95.410156" xlink:href="#DejaVuSans-35"/>
      </g>
     </g>
    </g>
    <g id="xtick_9">
     <g id="line2d_9">
      <g>
       <use style="stroke:#000000;stroke-width:0.8;" x="414.72" xlink:href="#m74e4b5956e" y="307.584"/>
      </g>
     </g>
     <g id="text_9">
      <!-- 10.0 -->
      <g transform="translate(403.587188 322.182437)scale(0.1 -0.1)">
       <use xlink:href="#DejaVuSans-31"/>
       <use x="63.623047" xlink:href="#DejaVuSans-30"/>
       <use x="127.246094" xlink:href="#DejaVuSans-2e"/>
       <use x="159.033203" xlink:href="#DejaVuSans-30"/>
      </g>
     </g>
    </g>
   </g>
   <g id="matplotlib.axis_2">
    <g id="ytick_1">
     <g id="line2d_10">
      <defs>
       <path d="M 0 0 
L -3.5 0 
" id="m4fdbe22123" style="stroke:#000000;stroke-width:0.8;"/>
      </defs>
      <g>
       <use style="stroke:#000000;stroke-width:0.8;" x="57.6" xlink:href="#m4fdbe22123" y="307.584"/>
      </g>
     </g>
     <g id="text_10">
      <!-- −10.0 -->
      <g transform="translate(19.954687 311.383219)scale(0.1 -0.1)">
       <use xlink:href="#DejaVuSans-2212"/>
       <use x="83.789062" xlink:href="#DejaVuSans-31"/>
       <use x="147.412109" xlink:href="#DejaVuSans-30"/>
       <use x="211.035156" xlink:href="#DejaVuSans-2e"/>
       <use x="242.822266" xlink:href="#DejaVuSans-30"/>
      </g>
     </g>
    </g>
    <g id="ytick_2">
     <g id="line2d_11">
      <g>
       <use style="stroke:#000000;stroke-width:0.8;" x="57.6" xlink:href="#m4fdbe22123" y="274.32"/>
      </g>
     </g>
     <g id="text_11">
      <!-- −7.5 -->
      <g transform="translate(26.317187 278.119219)scale(0.1 -0.1)">
       <use xlink:href="#DejaVuSans-2212"/>
       <use x="83.789062" xlink:href="#DejaVuSans-37"/>
       <use x="147.412109" xlink:href="#DejaVuSans-2e"/>
       <use x="179.199219" xlink:href="#DejaVuSans-35"/>
      </g>
     </g>
    </g>
    <g id="ytick_3">
     <g id="line2d_12">
      <g>
       <use style="stroke:#000000;stroke-width:0.8;" x="57.6" xlink:href="#m4fdbe22123" y="241.056"/>
      </g>
     </g>
     <g id="text_12">
      <!-- −5.0 -->
      <g transform="translate(26.317187 244.855219)scale(0.1 -0.1)">
       <use xlink:href="#DejaVuSans-2212"/>
       <use x="83.789062" xlink:href="#DejaVuSans-35"/>
       <use x="147.412109" xlink:href="#DejaVuSans-2e"/>
       <use x="179.199219" xlink:href="#DejaVuSans-30"/>
      </g>
     </g>
    </g>
    <g id="ytick_4">
     <g id="line2d_13">
      <g>
       <use style="stroke:#000000;stroke-width:0.8;" x="57.6" xlink:href="#m4fdbe22123" y="207.792"/>
      </g>
     </g>
     <g id="text_13">
      <!-- −2.5 -->
      <g transform="translate(26.317187 211.591219)scale(0.1 -0.1)">
       <use xlink:href="#DejaVuSans-2212"/>
       <use x="83.789062" xlink:href="#DejaVuSans-32"/>
       <use x="147.412109" xlink:href="#DejaVuSans-2e"/>
       <use x="179.199219" xlink:href="#DejaVuSans-35"/>
      </g>
     </g>
    </g>
    <g id="ytick_5">
     <g id="line2d_14">
      <g>
       <use style="stroke:#000000;stroke-width:0.8;" x="57.6" xlink:href="#m4fdbe22123" y="174.528"/>
      </g>
     </g>
     <g id="text_14">
      <!-- 0.0 -->
      <g transform="translate(34.696875 178.327219)scale(0.1 -0.1)">
       <use xlink:href="#DejaVuSans-30"/>
       <use x="63.623047" xlink:href="#DejaVuSans-2e"/>
       <use x="95.410156" xlink:href="#DejaVuSans-30"/>
      </g>
     </g>
    </g>
    <g id="ytick_6">
     <g id="line2d_15">
      <g>
       <use style="stroke:#000000;stroke-width:0.8;" x="57.6" xlink:href="#m4fdbe22123" y="141.264"/>
      </g>
     </g>
     <g id="text_15">
      <!-- 2.5 -->
      <g transform="translate(34.696875 145.063219)scale(0.1 -0.1)">
       <use xlink:href="#DejaVuSans-32"/>
       <use x="63.623047" xlink:href="#DejaVuSans-2e"/>
       <use x="95.410156" xlink:href="#DejaVuSans-35"/>
      </g>
     </g>
    </g>
    <g id="ytick_7">
     <g id="line2d_16">
      <g>
       <use style="stroke:#000000;stroke-width:0.8;" x="57.6" xlink:href="#m4fdbe22123" y="108"/>
      </g>
     </g>
     <g id="text_16">
      <!-- 5.0 -->
      <g transform="translate(34.696875 111.799219)scale(0.1 -0.1)">
       <use xlink:href="#DejaVuSans-35"/>
       <use x="63.623047" xlink:href="#DejaVuSans-2e"/>
       <use x="95.410156" xlink:href="#DejaVuSans-30"/>
      </g>
     </g>
    </g>
    <g id="ytick_8">
     <g id="line2d_17">
      <g>
       <use style="stroke:#000000;stroke-width:0.8;" x="57.6" xlink:href="#m4fdbe22123" y="74.736"/>
      </g>
     </g>
     <g id="text_17">
      <!-- 7.5 -->
      <g transform="translate(34.696875 78.535219)scale(0.1 -0.1)">
       <use xlink:href="#DejaVuSans-37"/>
       <use x="63.623047" xlink:href="#DejaVuSans-2e"/>
       <use x="95.410156" xlink:href="#DejaVuSans-35"/>
      </g>
     </g>
    </g>
    <g id="ytick_9">
     <g id="line2d_18">
      <g>
       <use style="stroke:#000000;stroke-width:0.8;" x="57.6" xlink:href="#m4fdbe22123" y="41.472"/>
      </g>
     </g>
     <g id="text_18">
      <!-- 10.0 -->
      <g transform="translate(28.334375 45.271219)scale(0.1 -0.1)">
       <use xlink:href="#DejaVuSans-31"/>
       <use x="63.623047" xlink:href="#DejaVuSans-30"/>
       <use x="127.246094" xlink:href="#DejaVuSans-2e"/>
       <use x="159.033203" xlink:href="#DejaVuSans-30"/>
      </g>
     </g>
    </g>
   </g>
   <g id="patch_3">
    <path d="M 57.6 307.584 
L 57.6 41.472 
" style="fill:none;stroke:#000000;stroke-linecap:square;stroke-linejoin:miter;stroke-width:0.8;"/>
   </g>
   <g id="patch_4">
    <path d="M 414.72 307.584 
L 414.72 41.472 
" style="fill:none;stroke:#000000;stroke-linecap:square;stroke-linejoin:miter;stroke-width:0.8;"/>
   </g>
   <g id="patch_5">
    <path d="M 57.6 307.584 
L 414.72 307.584 
" style="fill:none;stroke:#000000;stroke-linecap:square;stroke-linejoin:miter;stroke-width:0.8;"/>
   </g>
   <g id="patch_6">
    <path d="M 57.6 41.472 
L 414.72 41.472 
" style="fill:none;stroke:#000000;stroke-linecap:square;stroke-linejoin:miter;stroke-width:0.8;"/>
   </g>
  </g>
 </g>
 <defs>
  <clipPath id="pa41cced1e4">
   <rect height="266.112" width="357.12" x="57.6" y="41.472"/>
  </clipPath>
 </defs>
</svg>
