<?xml version="1.0" encoding="utf-8" standalone="no"?>
<!DOCTYPE svg PUBLIC "-//W3C//DTD SVG 1.1//EN"
  "http://www.w3.org/Graphics/SVG/1.1/DTD/svg11.dtd">
<!-- Created with matplotlib (http://matplotlib.org/) -->
<svg height="345.6pt" version="1.1" viewBox="0 0 460.8 345.6" width="460.8pt" xmlns="http://www.w3.org/2000/svg" xmlns:xlink="http://www.w3.org/1999/xlink">
 <defs>
  <style type="text/css">
*{stroke-linecap:butt;stroke-linejoin:round;}
  </style>
 </defs>
 <g id="figure_1">
  <g id="patch_1">
   <path d="M 0 345.6 
L 460.8 345.6 
L 460.8 0 
L 0 0 
z
" style="fill:#ffffff;"/>
  </g>
  <g id="axes_1">
   <g id="patch_2">
    <path d="M 57.6 307.584 
L 414.72 307.584 
L 414.72 41.472 
L 57.6 41.472 
z
" style="fill:#ffffff;"/>
   </g>
   <g id="PathCollection_1">
    <defs>
     <path d="M 0 0.612372 
C 0.162403 0.612372 0.318176 0.547849 0.433013 0.433013 
C 0.547849 0.318176 0.612372 0.162403 0.612372 0 
C 0.612372 -0.162403 0.547849 -0.318176 0.433013 -0.433013 
C 0.318176 -0.547849 0.162403 -0.612372 0 -0.612372 
C -0.162403 -0.612372 -0.318176 -0.547849 -0.433013 -0.433013 
C -0.547849 -0.318176 -0.612372 -0.162403 -0.612372 0 
C -0.612372 0.162403 -0.547849 0.318176 -0.433013 0.433013 
C -0.318176 0.547849 -0.162403 0.612372 0 0.612372 
z
" id="m5e053f9d16" style="stroke:#000000;"/>
    </defs>
    <g clip-path="url(#p879023c2bb)">
     <use style="stroke:#000000;" x="325.44" xlink:href="#m5e053f9d16" y="142.468331"/>
     <use style="stroke:#000000;" x="249.892558" xlink:href="#m5e053f9d16" y="174.528"/>
     <use style="stroke:#000000;" x="236.16" xlink:href="#m5e053f9d16" y="143.334051"/>
     <use style="stroke:#000000;" x="325.44" xlink:href="#m5e053f9d16" y="139.273754"/>
     <use style="stroke:#000000;" x="276.928275" xlink:href="#m5e053f9d16" y="174.528"/>
     <use style="stroke:#000000;" x="236.16" xlink:href="#m5e053f9d16" y="145.57558"/>
     <use style="stroke:#000000;" x="236.16" xlink:href="#m5e053f9d16" y="162.00496"/>
     <use style="stroke:#000000;" x="325.44" xlink:href="#m5e053f9d16" y="137.333044"/>
     <use style="stroke:#000000;" x="244.061038" xlink:href="#m5e053f9d16" y="174.528"/>
     <use style="stroke:#000000;" x="236.16" xlink:href="#m5e053f9d16" y="163.545375"/>
     <use style="stroke:#000000;" x="236.16" xlink:href="#m5e053f9d16" y="136.436626"/>
     <use style="stroke:#000000;" x="315.516792" xlink:href="#m5e053f9d16" y="174.528"/>
     <use style="stroke:#000000;" x="236.16" xlink:href="#m5e053f9d16" y="148.138036"/>
     <use style="stroke:#000000;" x="273.306726" xlink:href="#m5e053f9d16" y="174.528"/>
     <use style="stroke:#000000;" x="245.442316" xlink:href="#m5e053f9d16" y="174.528"/>
     <use style="stroke:#000000;" x="236.16" xlink:href="#m5e053f9d16" y="134.6112"/>
     <use style="stroke:#000000;" x="236.16" xlink:href="#m5e053f9d16" y="159.526667"/>
     <use style="stroke:#000000;" x="236.16" xlink:href="#m5e053f9d16" y="134.6112"/>
     <use style="stroke:#000000;" x="236.16" xlink:href="#m5e053f9d16" y="172.561163"/>
     <use style="stroke:#000000;" x="236.16" xlink:href="#m5e053f9d16" y="174.528"/>
     <use style="stroke:#000000;" x="236.16" xlink:href="#m5e053f9d16" y="141.058225"/>
     <use style="stroke:#000000;" x="325.44" xlink:href="#m5e053f9d16" y="142.175733"/>
     <use style="stroke:#000000;" x="255.019646" xlink:href="#m5e053f9d16" y="174.528"/>
     <use style="stroke:#000000;" x="236.16" xlink:href="#m5e053f9d16" y="134.6112"/>
     <use style="stroke:#000000;" x="236.16" xlink:href="#m5e053f9d16" y="174.528"/>
     <use style="stroke:#000000;" x="236.16" xlink:href="#m5e053f9d16" y="163.723797"/>
     <use style="stroke:#000000;" x="240.106143" xlink:href="#m5e053f9d16" y="174.528"/>
     <use style="stroke:#000000;" x="236.16" xlink:href="#m5e053f9d16" y="147.806594"/>
     <use style="stroke:#000000;" x="236.16" xlink:href="#m5e053f9d16" y="145.034124"/>
     <use style="stroke:#000000;" x="236.16" xlink:href="#m5e053f9d16" y="170.072867"/>
     <use style="stroke:#000000;" x="236.16" xlink:href="#m5e053f9d16" y="150.313401"/>
     <use style="stroke:#000000;" x="236.16" xlink:href="#m5e053f9d16" y="147.955218"/>
     <use style="stroke:#000000;" x="325.44" xlink:href="#m5e053f9d16" y="140.736768"/>
     <use style="stroke:#000000;" x="236.16" xlink:href="#m5e053f9d16" y="150.935124"/>
     <use style="stroke:#000000;" x="236.16" xlink:href="#m5e053f9d16" y="142.435865"/>
     <use style="stroke:#000000;" x="245.47372" xlink:href="#m5e053f9d16" y="174.528"/>
     <use style="stroke:#000000;" x="236.16" xlink:href="#m5e053f9d16" y="143.975966"/>
     <use style="stroke:#000000;" x="325.44" xlink:href="#m5e053f9d16" y="143.998845"/>
     <use style="stroke:#000000;" x="239.195443" xlink:href="#m5e053f9d16" y="174.528"/>
     <use style="stroke:#000000;" x="236.16" xlink:href="#m5e053f9d16" y="158.932175"/>
     <use style="stroke:#000000;" x="236.16" xlink:href="#m5e053f9d16" y="139.103887"/>
     <use style="stroke:#000000;" x="236.16" xlink:href="#m5e053f9d16" y="172.396542"/>
     <use style="stroke:#000000;" x="325.44" xlink:href="#m5e053f9d16" y="165.283288"/>
     <use style="stroke:#000000;" x="238.410176" xlink:href="#m5e053f9d16" y="174.528"/>
     <use style="stroke:#000000;" x="236.16" xlink:href="#m5e053f9d16" y="174.528"/>
     <use style="stroke:#000000;" x="236.16" xlink:href="#m5e053f9d16" y="135.992017"/>
     <use style="stroke:#000000;" x="238.479745" xlink:href="#m5e053f9d16" y="174.528"/>
     <use style="stroke:#000000;" x="236.16" xlink:href="#m5e053f9d16" y="146.035746"/>
     <use style="stroke:#000000;" x="236.16" xlink:href="#m5e053f9d16" y="134.6112"/>
     <use style="stroke:#000000;" x="236.16" xlink:href="#m5e053f9d16" y="136.771415"/>
     <use style="stroke:#000000;" x="325.44" xlink:href="#m5e053f9d16" y="136.835386"/>
     <use style="stroke:#000000;" x="325.44" xlink:href="#m5e053f9d16" y="174.528"/>
     <use style="stroke:#000000;" x="236.16" xlink:href="#m5e053f9d16" y="142.625375"/>
     <use style="stroke:#000000;" x="325.44" xlink:href="#m5e053f9d16" y="136.603015"/>
     <use style="stroke:#000000;" x="236.16" xlink:href="#m5e053f9d16" y="174.528"/>
     <use style="stroke:#000000;" x="236.16" xlink:href="#m5e053f9d16" y="153.535214"/>
     <use style="stroke:#000000;" x="246.522846" xlink:href="#m5e053f9d16" y="174.528"/>
     <use style="stroke:#000000;" x="236.16" xlink:href="#m5e053f9d16" y="161.435495"/>
     <use style="stroke:#000000;" x="252.030848" xlink:href="#m5e053f9d16" y="174.528"/>
     <use style="stroke:#000000;" x="260.584299" xlink:href="#m5e053f9d16" y="174.528"/>
     <use style="stroke:#000000;" x="236.16" xlink:href="#m5e053f9d16" y="139.632293"/>
     <use style="stroke:#000000;" x="236.16" xlink:href="#m5e053f9d16" y="134.6112"/>
     <use style="stroke:#000000;" x="249.166782" xlink:href="#m5e053f9d16" y="174.528"/>
     <use style="stroke:#000000;" x="325.44" xlink:href="#m5e053f9d16" y="174.528"/>
     <use style="stroke:#000000;" x="325.44" xlink:href="#m5e053f9d16" y="174.528"/>
     <use style="stroke:#000000;" x="236.16" xlink:href="#m5e053f9d16" y="172.970904"/>
     <use style="stroke:#000000;" x="325.44" xlink:href="#m5e053f9d16" y="144.696459"/>
     <use style="stroke:#000000;" x="241.476651" xlink:href="#m5e053f9d16" y="174.528"/>
     <use style="stroke:#000000;" x="238.995365" xlink:href="#m5e053f9d16" y="134.6112"/>
     <use style="stroke:#000000;" x="324.660626" xlink:href="#m5e053f9d16" y="174.528"/>
     <use style="stroke:#000000;" x="236.16" xlink:href="#m5e053f9d16" y="138.942719"/>
     <use style="stroke:#000000;" x="236.16" xlink:href="#m5e053f9d16" y="157.420745"/>
     <use style="stroke:#000000;" x="298.217298" xlink:href="#m5e053f9d16" y="174.528"/>
     <use style="stroke:#000000;" x="240.900265" xlink:href="#m5e053f9d16" y="174.528"/>
     <use style="stroke:#000000;" x="236.16" xlink:href="#m5e053f9d16" y="134.6112"/>
     <use style="stroke:#000000;" x="238.713566" xlink:href="#m5e053f9d16" y="134.6112"/>
     <use style="stroke:#000000;" x="236.16" xlink:href="#m5e053f9d16" y="135.664907"/>
     <use style="stroke:#000000;" x="236.16" xlink:href="#m5e053f9d16" y="143.282015"/>
     <use style="stroke:#000000;" x="236.368016" xlink:href="#m5e053f9d16" y="134.6112"/>
     <use style="stroke:#000000;" x="236.561646" xlink:href="#m5e053f9d16" y="134.6112"/>
     <use style="stroke:#000000;" x="307.754533" xlink:href="#m5e053f9d16" y="140.182861"/>
     <use style="stroke:#000000;" x="256.949853" xlink:href="#m5e053f9d16" y="174.528"/>
     <use style="stroke:#000000;" x="247.609316" xlink:href="#m5e053f9d16" y="174.528"/>
     <use style="stroke:#000000;" x="251.318646" xlink:href="#m5e053f9d16" y="173.686406"/>
     <use style="stroke:#000000;" x="251.850385" xlink:href="#m5e053f9d16" y="172.494026"/>
     <use style="stroke:#000000;" x="236.16" xlink:href="#m5e053f9d16" y="141.277084"/>
     <use style="stroke:#000000;" x="236.16" xlink:href="#m5e053f9d16" y="145.491153"/>
     <use style="stroke:#000000;" x="236.754047" xlink:href="#m5e053f9d16" y="139.539713"/>
     <use style="stroke:#000000;" x="325.44" xlink:href="#m5e053f9d16" y="138.460982"/>
     <use style="stroke:#000000;" x="325.44" xlink:href="#m5e053f9d16" y="138.584203"/>
     <use style="stroke:#000000;" x="325.44" xlink:href="#m5e053f9d16" y="139.158626"/>
     <use style="stroke:#000000;" x="283.269846" xlink:href="#m5e053f9d16" y="174.528"/>
     <use style="stroke:#000000;" x="271.0249" xlink:href="#m5e053f9d16" y="174.528"/>
     <use style="stroke:#000000;" x="282.705255" xlink:href="#m5e053f9d16" y="172.955391"/>
     <use style="stroke:#000000;" x="237.387329" xlink:href="#m5e053f9d16" y="146.864204"/>
     <use style="stroke:#000000;" x="236.16" xlink:href="#m5e053f9d16" y="147.871632"/>
     <use style="stroke:#000000;" x="242.602921" xlink:href="#m5e053f9d16" y="144.543914"/>
     <use style="stroke:#000000;" x="236.16" xlink:href="#m5e053f9d16" y="161.099079"/>
     <use style="stroke:#000000;" x="236.16" xlink:href="#m5e053f9d16" y="161.812137"/>
     <use style="stroke:#000000;" x="236.16" xlink:href="#m5e053f9d16" y="165.010636"/>
     <use style="stroke:#000000;" x="321.092177" xlink:href="#m5e053f9d16" y="136.079519"/>
     <use style="stroke:#000000;" x="322.882762" xlink:href="#m5e053f9d16" y="134.6112"/>
     <use style="stroke:#000000;" x="325.393051" xlink:href="#m5e053f9d16" y="137.706481"/>
     <use style="stroke:#000000;" x="246.191612" xlink:href="#m5e053f9d16" y="174.528"/>
     <use style="stroke:#000000;" x="241.298011" xlink:href="#m5e053f9d16" y="172.117979"/>
     <use style="stroke:#000000;" x="247.54256" xlink:href="#m5e053f9d16" y="171.941491"/>
     <use style="stroke:#000000;" x="236.16" xlink:href="#m5e053f9d16" y="165.155849"/>
     <use style="stroke:#000000;" x="236.16" xlink:href="#m5e053f9d16" y="162.355842"/>
     <use style="stroke:#000000;" x="240.788823" xlink:href="#m5e053f9d16" y="161.790762"/>
     <use style="stroke:#000000;" x="241.132345" xlink:href="#m5e053f9d16" y="136.421892"/>
     <use style="stroke:#000000;" x="236.16" xlink:href="#m5e053f9d16" y="139.461161"/>
     <use style="stroke:#000000;" x="236.866577" xlink:href="#m5e053f9d16" y="135.836575"/>
     <use style="stroke:#000000;" x="314.632746" xlink:href="#m5e053f9d16" y="168.859799"/>
     <use style="stroke:#000000;" x="313.303048" xlink:href="#m5e053f9d16" y="172.428793"/>
     <use style="stroke:#000000;" x="312.134035" xlink:href="#m5e053f9d16" y="172.120151"/>
     <use style="stroke:#000000;" x="237.67227" xlink:href="#m5e053f9d16" y="150.851133"/>
     <use style="stroke:#000000;" x="236.16" xlink:href="#m5e053f9d16" y="149.124401"/>
     <use style="stroke:#000000;" x="244.228291" xlink:href="#m5e053f9d16" y="147.784834"/>
     <use style="stroke:#000000;" x="275.311146" xlink:href="#m5e053f9d16" y="174.528"/>
     <use style="stroke:#000000;" x="278.124008" xlink:href="#m5e053f9d16" y="174.528"/>
     <use style="stroke:#000000;" x="277.351469" xlink:href="#m5e053f9d16" y="174.159053"/>
     <use style="stroke:#000000;" x="240.932379" xlink:href="#m5e053f9d16" y="174.528"/>
     <use style="stroke:#000000;" x="239.685523" xlink:href="#m5e053f9d16" y="172.319404"/>
     <use style="stroke:#000000;" x="240.179629" xlink:href="#m5e053f9d16" y="174.528"/>
     <use style="stroke:#000000;" x="236.16" xlink:href="#m5e053f9d16" y="134.6112"/>
     <use style="stroke:#000000;" x="239.974348" xlink:href="#m5e053f9d16" y="134.6112"/>
     <use style="stroke:#000000;" x="240.105613" xlink:href="#m5e053f9d16" y="134.6112"/>
     <use style="stroke:#000000;" x="236.16" xlink:href="#m5e053f9d16" y="158.560399"/>
     <use style="stroke:#000000;" x="236.369083" xlink:href="#m5e053f9d16" y="162.570992"/>
     <use style="stroke:#000000;" x="236.16" xlink:href="#m5e053f9d16" y="160.088466"/>
     <use style="stroke:#000000;" x="236.16" xlink:href="#m5e053f9d16" y="134.6112"/>
     <use style="stroke:#000000;" x="246.050127" xlink:href="#m5e053f9d16" y="139.394737"/>
     <use style="stroke:#000000;" x="236.16" xlink:href="#m5e053f9d16" y="134.6112"/>
     <use style="stroke:#000000;" x="236.16" xlink:href="#m5e053f9d16" y="170.929021"/>
     <use style="stroke:#000000;" x="236.16" xlink:href="#m5e053f9d16" y="173.267662"/>
     <use style="stroke:#000000;" x="236.16" xlink:href="#m5e053f9d16" y="174.030148"/>
     <use style="stroke:#000000;" x="239.607306" xlink:href="#m5e053f9d16" y="173.147182"/>
     <use style="stroke:#000000;" x="236.16" xlink:href="#m5e053f9d16" y="142.4472"/>
     <use style="stroke:#000000;" x="245.616996" xlink:href="#m5e053f9d16" y="140.316789"/>
     <use style="stroke:#000000;" x="236.16" xlink:href="#m5e053f9d16" y="140.619657"/>
     <use style="stroke:#000000;" x="323.260188" xlink:href="#m5e053f9d16" y="141.160866"/>
     <use style="stroke:#000000;" x="325.44" xlink:href="#m5e053f9d16" y="143.676925"/>
     <use style="stroke:#000000;" x="322.47045" xlink:href="#m5e053f9d16" y="145.673947"/>
     <use style="stroke:#000000;" x="261.424308" xlink:href="#m5e053f9d16" y="174.528"/>
     <use style="stroke:#000000;" x="251.491397" xlink:href="#m5e053f9d16" y="174.528"/>
     <use style="stroke:#000000;" x="253.696014" xlink:href="#m5e053f9d16" y="174.528"/>
     <use style="stroke:#000000;" x="249.836743" xlink:href="#m5e053f9d16" y="139.385969"/>
     <use style="stroke:#000000;" x="236.16" xlink:href="#m5e053f9d16" y="173.086381"/>
     <use style="stroke:#000000;" x="236.16" xlink:href="#m5e053f9d16" y="174.528"/>
     <use style="stroke:#000000;" x="237.720935" xlink:href="#m5e053f9d16" y="172.317563"/>
     <use style="stroke:#000000;" x="238.262392" xlink:href="#m5e053f9d16" y="164.505663"/>
     <use style="stroke:#000000;" x="236.16" xlink:href="#m5e053f9d16" y="163.202485"/>
     <use style="stroke:#000000;" x="244.145782" xlink:href="#m5e053f9d16" y="164.00593"/>
     <use style="stroke:#000000;" x="237.498324" xlink:href="#m5e053f9d16" y="174.528"/>
     <use style="stroke:#000000;" x="244.494142" xlink:href="#m5e053f9d16" y="172.000777"/>
     <use style="stroke:#000000;" x="249.052856" xlink:href="#m5e053f9d16" y="172.642344"/>
     <use style="stroke:#000000;" x="236.16" xlink:href="#m5e053f9d16" y="152.02472"/>
     <use style="stroke:#000000;" x="236.16" xlink:href="#m5e053f9d16" y="143.006578"/>
     <use style="stroke:#000000;" x="240.254543" xlink:href="#m5e053f9d16" y="146.651814"/>
     <use style="stroke:#000000;" x="236.16" xlink:href="#m5e053f9d16" y="142.513911"/>
     <use style="stroke:#000000;" x="241.270553" xlink:href="#m5e053f9d16" y="168.942652"/>
     <use style="stroke:#000000;" x="236.16" xlink:href="#m5e053f9d16" y="151.094502"/>
     <use style="stroke:#000000;" x="242.279742" xlink:href="#m5e053f9d16" y="150.067634"/>
     <use style="stroke:#000000;" x="236.798263" xlink:href="#m5e053f9d16" y="148.561357"/>
     <use style="stroke:#000000;" x="236.16" xlink:href="#m5e053f9d16" y="145.995556"/>
     <use style="stroke:#000000;" x="236.16" xlink:href="#m5e053f9d16" y="148.121568"/>
     <use style="stroke:#000000;" x="236.16" xlink:href="#m5e053f9d16" y="146.792282"/>
     <use style="stroke:#000000;" x="321.500362" xlink:href="#m5e053f9d16" y="134.6112"/>
     <use style="stroke:#000000;" x="238.110035" xlink:href="#m5e053f9d16" y="153.416217"/>
     <use style="stroke:#000000;" x="245.276441" xlink:href="#m5e053f9d16" y="146.283436"/>
     <use style="stroke:#000000;" x="239.102237" xlink:href="#m5e053f9d16" y="141.1892"/>
     <use style="stroke:#000000;" x="242.837468" xlink:href="#m5e053f9d16" y="143.899712"/>
     <use style="stroke:#000000;" x="245.88822" xlink:href="#m5e053f9d16" y="169.325607"/>
     <use style="stroke:#000000;" x="244.7007" xlink:href="#m5e053f9d16" y="139.695217"/>
     <use style="stroke:#000000;" x="325.44" xlink:href="#m5e053f9d16" y="144.337677"/>
     <use style="stroke:#000000;" x="322.238328" xlink:href="#m5e053f9d16" y="144.68664"/>
     <use style="stroke:#000000;" x="242.516285" xlink:href="#m5e053f9d16" y="174.528"/>
     <use style="stroke:#000000;" x="236.16" xlink:href="#m5e053f9d16" y="174.528"/>
     <use style="stroke:#000000;" x="237.987022" xlink:href="#m5e053f9d16" y="156.251695"/>
     <use style="stroke:#000000;" x="240.497137" xlink:href="#m5e053f9d16" y="159.505588"/>
     <use style="stroke:#000000;" x="236.16" xlink:href="#m5e053f9d16" y="138.818914"/>
     <use style="stroke:#000000;" x="239.528109" xlink:href="#m5e053f9d16" y="137.818963"/>
     <use style="stroke:#000000;" x="247.370668" xlink:href="#m5e053f9d16" y="169.883533"/>
     <use style="stroke:#000000;" x="325.44" xlink:href="#m5e053f9d16" y="165.451074"/>
     <use style="stroke:#000000;" x="318.633303" xlink:href="#m5e053f9d16" y="164.873725"/>
     <use style="stroke:#000000;" x="236.16" xlink:href="#m5e053f9d16" y="174.528"/>
     <use style="stroke:#000000;" x="242.240149" xlink:href="#m5e053f9d16" y="174.059394"/>
     <use style="stroke:#000000;" x="236.16" xlink:href="#m5e053f9d16" y="174.528"/>
     <use style="stroke:#000000;" x="241.821925" xlink:href="#m5e053f9d16" y="174.528"/>
     <use style="stroke:#000000;" x="236.16" xlink:href="#m5e053f9d16" y="136.955848"/>
     <use style="stroke:#000000;" x="243.312857" xlink:href="#m5e053f9d16" y="174.390896"/>
     <use style="stroke:#000000;" x="237.915143" xlink:href="#m5e053f9d16" y="174.528"/>
     <use style="stroke:#000000;" x="236.16" xlink:href="#m5e053f9d16" y="146.108339"/>
     <use style="stroke:#000000;" x="236.16" xlink:href="#m5e053f9d16" y="144.231648"/>
     <use style="stroke:#000000;" x="236.16" xlink:href="#m5e053f9d16" y="136.048652"/>
     <use style="stroke:#000000;" x="236.16" xlink:href="#m5e053f9d16" y="138.04065"/>
     <use style="stroke:#000000;" x="236.16" xlink:href="#m5e053f9d16" y="137.75171"/>
     <use style="stroke:#000000;" x="236.16" xlink:href="#m5e053f9d16" y="135.318044"/>
     <use style="stroke:#000000;" x="319.556625" xlink:href="#m5e053f9d16" y="138.460825"/>
     <use style="stroke:#000000;" x="325.44" xlink:href="#m5e053f9d16" y="139.565007"/>
     <use style="stroke:#000000;" x="325.44" xlink:href="#m5e053f9d16" y="174.528"/>
     <use style="stroke:#000000;" x="324.44599" xlink:href="#m5e053f9d16" y="173.213955"/>
     <use style="stroke:#000000;" x="236.16" xlink:href="#m5e053f9d16" y="143.959827"/>
     <use style="stroke:#000000;" x="237.463973" xlink:href="#m5e053f9d16" y="140.11046"/>
     <use style="stroke:#000000;" x="325.44" xlink:href="#m5e053f9d16" y="135.219375"/>
     <use style="stroke:#000000;" x="237.864858" xlink:href="#m5e053f9d16" y="171.351997"/>
     <use style="stroke:#000000;" x="236.16" xlink:href="#m5e053f9d16" y="173.419931"/>
     <use style="stroke:#000000;" x="236.16" xlink:href="#m5e053f9d16" y="153.773975"/>
     <use style="stroke:#000000;" x="246.986174" xlink:href="#m5e053f9d16" y="174.528"/>
     <use style="stroke:#000000;" x="249.474357" xlink:href="#m5e053f9d16" y="173.222027"/>
     <use style="stroke:#000000;" x="236.16" xlink:href="#m5e053f9d16" y="165.112698"/>
     <use style="stroke:#000000;" x="237.325848" xlink:href="#m5e053f9d16" y="161.684457"/>
     <use style="stroke:#000000;" x="250.1981" xlink:href="#m5e053f9d16" y="171.773817"/>
     <use style="stroke:#000000;" x="265.272392" xlink:href="#m5e053f9d16" y="171.581421"/>
     <use style="stroke:#000000;" x="236.16" xlink:href="#m5e053f9d16" y="143.203921"/>
     <use style="stroke:#000000;" x="236.16" xlink:href="#m5e053f9d16" y="134.6112"/>
     <use style="stroke:#000000;" x="242.376074" xlink:href="#m5e053f9d16" y="134.6112"/>
     <use style="stroke:#000000;" x="257.843563" xlink:href="#m5e053f9d16" y="169.865006"/>
     <use style="stroke:#000000;" x="254.145858" xlink:href="#m5e053f9d16" y="174.528"/>
     <use style="stroke:#000000;" x="322.909085" xlink:href="#m5e053f9d16" y="173.53267"/>
     <use style="stroke:#000000;" x="325.44" xlink:href="#m5e053f9d16" y="174.121369"/>
     <use style="stroke:#000000;" x="325.44" xlink:href="#m5e053f9d16" y="174.528"/>
     <use style="stroke:#000000;" x="236.16" xlink:href="#m5e053f9d16" y="171.978037"/>
     <use style="stroke:#000000;" x="245.316931" xlink:href="#m5e053f9d16" y="173.23108"/>
     <use style="stroke:#000000;" x="325.44" xlink:href="#m5e053f9d16" y="143.682145"/>
     <use style="stroke:#000000;" x="319.535049" xlink:href="#m5e053f9d16" y="143.5774"/>
     <use style="stroke:#000000;" x="240.187997" xlink:href="#m5e053f9d16" y="173.59407"/>
     <use style="stroke:#000000;" x="240.404067" xlink:href="#m5e053f9d16" y="174.062535"/>
     <use style="stroke:#000000;" x="241.253407" xlink:href="#m5e053f9d16" y="134.6112"/>
     <use style="stroke:#000000;" x="236.16" xlink:href="#m5e053f9d16" y="134.6112"/>
     <use style="stroke:#000000;" x="325.44" xlink:href="#m5e053f9d16" y="172.825778"/>
     <use style="stroke:#000000;" x="236.16" xlink:href="#m5e053f9d16" y="138.314464"/>
     <use style="stroke:#000000;" x="236.16" xlink:href="#m5e053f9d16" y="154.853823"/>
     <use style="stroke:#000000;" x="293.369187" xlink:href="#m5e053f9d16" y="174.528"/>
     <use style="stroke:#000000;" x="237.132315" xlink:href="#m5e053f9d16" y="174.528"/>
     <use style="stroke:#000000;" x="242.862708" xlink:href="#m5e053f9d16" y="134.6112"/>
     <use style="stroke:#000000;" x="237.056459" xlink:href="#m5e053f9d16" y="134.998657"/>
     <use style="stroke:#000000;" x="236.16" xlink:href="#m5e053f9d16" y="134.6112"/>
     <use style="stroke:#000000;" x="239.878281" xlink:href="#m5e053f9d16" y="140.605804"/>
     <use style="stroke:#000000;" x="251.366406" xlink:href="#m5e053f9d16" y="137.97421"/>
     <use style="stroke:#000000;" x="242.760828" xlink:href="#m5e053f9d16" y="135.90301"/>
    </g>
   </g>
   <g id="PathCollection_2">
    <defs>
     <path d="M 0 0.935414 
C 0.248075 0.935414 0.486022 0.836853 0.661438 0.661438 
C 0.836853 0.486022 0.935414 0.248075 0.935414 0 
C 0.935414 -0.248075 0.836853 -0.486022 0.661438 -0.661438 
C 0.486022 -0.836853 0.248075 -0.935414 0 -0.935414 
C -0.248075 -0.935414 -0.486022 -0.836853 -0.661438 -0.661438 
C -0.836853 -0.486022 -0.935414 -0.248075 -0.935414 0 
C -0.935414 0.248075 -0.836853 0.486022 -0.661438 0.661438 
C -0.486022 0.836853 -0.248075 0.935414 0 0.935414 
z
" id="m594afb7f85" style="stroke:#0000ff;"/>
    </defs>
    <g clip-path="url(#p879023c2bb)">
     <use style="fill:#0000ff;stroke:#0000ff;" x="325.44" xlink:href="#m594afb7f85" y="142.468331"/>
     <use style="fill:#0000ff;stroke:#0000ff;" x="249.892558" xlink:href="#m594afb7f85" y="174.528"/>
     <use style="fill:#0000ff;stroke:#0000ff;" x="236.16" xlink:href="#m594afb7f85" y="143.334051"/>
     <use style="fill:#0000ff;stroke:#0000ff;" x="325.44" xlink:href="#m594afb7f85" y="139.273754"/>
     <use style="fill:#0000ff;stroke:#0000ff;" x="276.928275" xlink:href="#m594afb7f85" y="174.528"/>
     <use style="fill:#0000ff;stroke:#0000ff;" x="236.16" xlink:href="#m594afb7f85" y="145.57558"/>
     <use style="fill:#0000ff;stroke:#0000ff;" x="236.16" xlink:href="#m594afb7f85" y="162.00496"/>
     <use style="fill:#0000ff;stroke:#0000ff;" x="325.44" xlink:href="#m594afb7f85" y="137.333044"/>
     <use style="fill:#0000ff;stroke:#0000ff;" x="244.061038" xlink:href="#m594afb7f85" y="174.528"/>
     <use style="fill:#0000ff;stroke:#0000ff;" x="236.16" xlink:href="#m594afb7f85" y="163.545375"/>
     <use style="fill:#0000ff;stroke:#0000ff;" x="236.16" xlink:href="#m594afb7f85" y="136.436626"/>
     <use style="fill:#0000ff;stroke:#0000ff;" x="315.516792" xlink:href="#m594afb7f85" y="174.528"/>
     <use style="fill:#0000ff;stroke:#0000ff;" x="236.16" xlink:href="#m594afb7f85" y="148.138036"/>
     <use style="fill:#0000ff;stroke:#0000ff;" x="273.306726" xlink:href="#m594afb7f85" y="174.528"/>
     <use style="fill:#0000ff;stroke:#0000ff;" x="245.442316" xlink:href="#m594afb7f85" y="174.528"/>
     <use style="fill:#0000ff;stroke:#0000ff;" x="236.16" xlink:href="#m594afb7f85" y="134.6112"/>
     <use style="fill:#0000ff;stroke:#0000ff;" x="236.16" xlink:href="#m594afb7f85" y="159.526667"/>
     <use style="fill:#0000ff;stroke:#0000ff;" x="236.16" xlink:href="#m594afb7f85" y="134.6112"/>
     <use style="fill:#0000ff;stroke:#0000ff;" x="236.16" xlink:href="#m594afb7f85" y="172.561163"/>
     <use style="fill:#0000ff;stroke:#0000ff;" x="236.16" xlink:href="#m594afb7f85" y="174.528"/>
     <use style="fill:#0000ff;stroke:#0000ff;" x="236.16" xlink:href="#m594afb7f85" y="141.058225"/>
     <use style="fill:#0000ff;stroke:#0000ff;" x="325.44" xlink:href="#m594afb7f85" y="142.175733"/>
     <use style="fill:#0000ff;stroke:#0000ff;" x="255.019646" xlink:href="#m594afb7f85" y="174.528"/>
     <use style="fill:#0000ff;stroke:#0000ff;" x="236.16" xlink:href="#m594afb7f85" y="134.6112"/>
     <use style="fill:#0000ff;stroke:#0000ff;" x="236.16" xlink:href="#m594afb7f85" y="174.528"/>
     <use style="fill:#0000ff;stroke:#0000ff;" x="236.16" xlink:href="#m594afb7f85" y="163.723797"/>
     <use style="fill:#0000ff;stroke:#0000ff;" x="240.106143" xlink:href="#m594afb7f85" y="174.528"/>
     <use style="fill:#0000ff;stroke:#0000ff;" x="236.16" xlink:href="#m594afb7f85" y="147.806594"/>
     <use style="fill:#0000ff;stroke:#0000ff;" x="236.16" xlink:href="#m594afb7f85" y="145.034124"/>
     <use style="fill:#0000ff;stroke:#0000ff;" x="236.16" xlink:href="#m594afb7f85" y="170.072867"/>
     <use style="fill:#0000ff;stroke:#0000ff;" x="236.16" xlink:href="#m594afb7f85" y="150.313401"/>
     <use style="fill:#0000ff;stroke:#0000ff;" x="236.16" xlink:href="#m594afb7f85" y="147.955218"/>
     <use style="fill:#0000ff;stroke:#0000ff;" x="325.44" xlink:href="#m594afb7f85" y="140.736768"/>
     <use style="fill:#0000ff;stroke:#0000ff;" x="236.16" xlink:href="#m594afb7f85" y="150.935124"/>
     <use style="fill:#0000ff;stroke:#0000ff;" x="236.16" xlink:href="#m594afb7f85" y="142.435865"/>
     <use style="fill:#0000ff;stroke:#0000ff;" x="245.47372" xlink:href="#m594afb7f85" y="174.528"/>
     <use style="fill:#0000ff;stroke:#0000ff;" x="236.16" xlink:href="#m594afb7f85" y="143.975966"/>
     <use style="fill:#0000ff;stroke:#0000ff;" x="325.44" xlink:href="#m594afb7f85" y="143.998845"/>
     <use style="fill:#0000ff;stroke:#0000ff;" x="239.195443" xlink:href="#m594afb7f85" y="174.528"/>
     <use style="fill:#0000ff;stroke:#0000ff;" x="236.16" xlink:href="#m594afb7f85" y="158.932175"/>
     <use style="fill:#0000ff;stroke:#0000ff;" x="236.16" xlink:href="#m594afb7f85" y="139.103887"/>
     <use style="fill:#0000ff;stroke:#0000ff;" x="236.16" xlink:href="#m594afb7f85" y="172.396542"/>
     <use style="fill:#0000ff;stroke:#0000ff;" x="325.44" xlink:href="#m594afb7f85" y="165.283288"/>
     <use style="fill:#0000ff;stroke:#0000ff;" x="238.410176" xlink:href="#m594afb7f85" y="174.528"/>
     <use style="fill:#0000ff;stroke:#0000ff;" x="236.16" xlink:href="#m594afb7f85" y="174.528"/>
     <use style="fill:#0000ff;stroke:#0000ff;" x="236.16" xlink:href="#m594afb7f85" y="135.992017"/>
     <use style="fill:#0000ff;stroke:#0000ff;" x="238.479745" xlink:href="#m594afb7f85" y="174.528"/>
     <use style="fill:#0000ff;stroke:#0000ff;" x="236.16" xlink:href="#m594afb7f85" y="146.035746"/>
     <use style="fill:#0000ff;stroke:#0000ff;" x="236.16" xlink:href="#m594afb7f85" y="134.6112"/>
     <use style="fill:#0000ff;stroke:#0000ff;" x="236.16" xlink:href="#m594afb7f85" y="136.771415"/>
     <use style="fill:#0000ff;stroke:#0000ff;" x="325.44" xlink:href="#m594afb7f85" y="136.835386"/>
     <use style="fill:#0000ff;stroke:#0000ff;" x="325.44" xlink:href="#m594afb7f85" y="174.528"/>
     <use style="fill:#0000ff;stroke:#0000ff;" x="236.16" xlink:href="#m594afb7f85" y="142.625375"/>
     <use style="fill:#0000ff;stroke:#0000ff;" x="325.44" xlink:href="#m594afb7f85" y="136.603015"/>
     <use style="fill:#0000ff;stroke:#0000ff;" x="236.16" xlink:href="#m594afb7f85" y="174.528"/>
     <use style="fill:#0000ff;stroke:#0000ff;" x="236.16" xlink:href="#m594afb7f85" y="153.535214"/>
     <use style="fill:#0000ff;stroke:#0000ff;" x="246.522846" xlink:href="#m594afb7f85" y="174.528"/>
     <use style="fill:#0000ff;stroke:#0000ff;" x="236.16" xlink:href="#m594afb7f85" y="161.435495"/>
     <use style="fill:#0000ff;stroke:#0000ff;" x="252.030848" xlink:href="#m594afb7f85" y="174.528"/>
     <use style="fill:#0000ff;stroke:#0000ff;" x="260.584299" xlink:href="#m594afb7f85" y="174.528"/>
     <use style="fill:#0000ff;stroke:#0000ff;" x="236.16" xlink:href="#m594afb7f85" y="139.632293"/>
     <use style="fill:#0000ff;stroke:#0000ff;" x="236.16" xlink:href="#m594afb7f85" y="134.6112"/>
     <use style="fill:#0000ff;stroke:#0000ff;" x="249.166782" xlink:href="#m594afb7f85" y="174.528"/>
     <use style="fill:#0000ff;stroke:#0000ff;" x="325.44" xlink:href="#m594afb7f85" y="174.528"/>
     <use style="fill:#0000ff;stroke:#0000ff;" x="325.44" xlink:href="#m594afb7f85" y="174.528"/>
     <use style="fill:#0000ff;stroke:#0000ff;" x="236.16" xlink:href="#m594afb7f85" y="172.970904"/>
     <use style="fill:#0000ff;stroke:#0000ff;" x="325.44" xlink:href="#m594afb7f85" y="144.696459"/>
     <use style="fill:#0000ff;stroke:#0000ff;" x="241.476651" xlink:href="#m594afb7f85" y="174.528"/>
     <use style="fill:#0000ff;stroke:#0000ff;" x="238.995365" xlink:href="#m594afb7f85" y="134.6112"/>
     <use style="fill:#0000ff;stroke:#0000ff;" x="324.660626" xlink:href="#m594afb7f85" y="174.528"/>
     <use style="fill:#0000ff;stroke:#0000ff;" x="236.16" xlink:href="#m594afb7f85" y="138.942719"/>
     <use style="fill:#0000ff;stroke:#0000ff;" x="236.16" xlink:href="#m594afb7f85" y="157.420745"/>
     <use style="fill:#0000ff;stroke:#0000ff;" x="298.217298" xlink:href="#m594afb7f85" y="174.528"/>
     <use style="fill:#0000ff;stroke:#0000ff;" x="240.900265" xlink:href="#m594afb7f85" y="174.528"/>
     <use style="fill:#0000ff;stroke:#0000ff;" x="236.16" xlink:href="#m594afb7f85" y="134.6112"/>
     <use style="fill:#0000ff;stroke:#0000ff;" x="238.713566" xlink:href="#m594afb7f85" y="134.6112"/>
     <use style="fill:#0000ff;stroke:#0000ff;" x="236.16" xlink:href="#m594afb7f85" y="135.664907"/>
     <use style="fill:#0000ff;stroke:#0000ff;" x="236.16" xlink:href="#m594afb7f85" y="143.282015"/>
     <use style="fill:#0000ff;stroke:#0000ff;" x="236.368016" xlink:href="#m594afb7f85" y="134.6112"/>
     <use style="fill:#0000ff;stroke:#0000ff;" x="236.561646" xlink:href="#m594afb7f85" y="134.6112"/>
    </g>
   </g>
   <g id="matplotlib.axis_1">
    <g id="xtick_1">
     <g id="line2d_1">
      <defs>
       <path d="M 0 0 
L 0 3.5 
" id="me2625c4791" style="stroke:#000000;stroke-width:0.8;"/>
      </defs>
      <g>
       <use style="stroke:#000000;stroke-width:0.8;" x="57.6" xlink:href="#me2625c4791" y="307.584"/>
      </g>
     </g>
     <g id="text_1">
      <!-- −10.0 -->
      <defs>
       <path d="M 10.59375 35.5 
L 73.1875 35.5 
L 73.1875 27.203125 
L 10.59375 27.203125 
z
" id="DejaVuSans-2212"/>
       <path d="M 12.40625 8.296875 
L 28.515625 8.296875 
L 28.515625 63.921875 
L 10.984375 60.40625 
L 10.984375 69.390625 
L 28.421875 72.90625 
L 38.28125 72.90625 
L 38.28125 8.296875 
L 54.390625 8.296875 
L 54.390625 0 
L 12.40625 0 
z
" id="DejaVuSans-31"/>
       <path d="M 31.78125 66.40625 
Q 24.171875 66.40625 20.328125 58.90625 
Q 16.5 51.421875 16.5 36.375 
Q 16.5 21.390625 20.328125 13.890625 
Q 24.171875 6.390625 31.78125 6.390625 
Q 39.453125 6.390625 43.28125 13.890625 
Q 47.125 21.390625 47.125 36.375 
Q 47.125 51.421875 43.28125 58.90625 
Q 39.453125 66.40625 31.78125 66.40625 
z
M 31.78125 74.21875 
Q 44.046875 74.21875 50.515625 64.515625 
Q 56.984375 54.828125 56.984375 36.375 
Q 56.984375 17.96875 50.515625 8.265625 
Q 44.046875 -1.421875 31.78125 -1.421875 
Q 19.53125 -1.421875 13.0625 8.265625 
Q 6.59375 17.96875 6.59375 36.375 
Q 6.59375 54.828125 13.0625 64.515625 
Q 19.53125 74.21875 31.78125 74.21875 
z
" id="DejaVuSans-30"/>
       <path d="M 10.6875 12.40625 
L 21 12.40625 
L 21 0 
L 10.6875 0 
z
" id="DejaVuSans-2e"/>
      </defs>
      <g transform="translate(42.277344 322.182437)scale(0.1 -0.1)">
       <use xlink:href="#DejaVuSans-2212"/>
       <use x="83.789062" xlink:href="#DejaVuSans-31"/>
       <use x="147.412109" xlink:href="#DejaVuSans-30"/>
       <use x="211.035156" xlink:href="#DejaVuSans-2e"/>
       <use x="242.822266" xlink:href="#DejaVuSans-30"/>
      </g>
     </g>
    </g>
    <g id="xtick_2">
     <g id="line2d_2">
      <g>
       <use style="stroke:#000000;stroke-width:0.8;" x="102.24" xlink:href="#me2625c4791" y="307.584"/>
      </g>
     </g>
     <g id="text_2">
      <!-- −7.5 -->
      <defs>
       <path d="M 8.203125 72.90625 
L 55.078125 72.90625 
L 55.078125 68.703125 
L 28.609375 0 
L 18.3125 0 
L 43.21875 64.59375 
L 8.203125 64.59375 
z
" id="DejaVuSans-37"/>
       <path d="M 10.796875 72.90625 
L 49.515625 72.90625 
L 49.515625 64.59375 
L 19.828125 64.59375 
L 19.828125 46.734375 
Q 21.96875 47.46875 24.109375 47.828125 
Q 26.265625 48.1875 28.421875 48.1875 
Q 40.625 48.1875 47.75 41.5 
Q 54.890625 34.8125 54.890625 23.390625 
Q 54.890625 11.625 47.5625 5.09375 
Q 40.234375 -1.421875 26.90625 -1.421875 
Q 22.3125 -1.421875 17.546875 -0.640625 
Q 12.796875 0.140625 7.71875 1.703125 
L 7.71875 11.625 
Q 12.109375 9.234375 16.796875 8.0625 
Q 21.484375 6.890625 26.703125 6.890625 
Q 35.15625 6.890625 40.078125 11.328125 
Q 45.015625 15.765625 45.015625 23.390625 
Q 45.015625 31 40.078125 35.4375 
Q 35.15625 39.890625 26.703125 39.890625 
Q 22.75 39.890625 18.8125 39.015625 
Q 14.890625 38.140625 10.796875 36.28125 
z
" id="DejaVuSans-35"/>
      </defs>
      <g transform="translate(90.098594 322.182437)scale(0.1 -0.1)">
       <use xlink:href="#DejaVuSans-2212"/>
       <use x="83.789062" xlink:href="#DejaVuSans-37"/>
       <use x="147.412109" xlink:href="#DejaVuSans-2e"/>
       <use x="179.199219" xlink:href="#DejaVuSans-35"/>
      </g>
     </g>
    </g>
    <g id="xtick_3">
     <g id="line2d_3">
      <g>
       <use style="stroke:#000000;stroke-width:0.8;" x="146.88" xlink:href="#me2625c4791" y="307.584"/>
      </g>
     </g>
     <g id="text_3">
      <!-- −5.0 -->
      <g transform="translate(134.738594 322.182437)scale(0.1 -0.1)">
       <use xlink:href="#DejaVuSans-2212"/>
       <use x="83.789062" xlink:href="#DejaVuSans-35"/>
       <use x="147.412109" xlink:href="#DejaVuSans-2e"/>
       <use x="179.199219" xlink:href="#DejaVuSans-30"/>
      </g>
     </g>
    </g>
    <g id="xtick_4">
     <g id="line2d_4">
      <g>
       <use style="stroke:#000000;stroke-width:0.8;" x="191.52" xlink:href="#me2625c4791" y="307.584"/>
      </g>
     </g>
     <g id="text_4">
      <!-- −2.5 -->
      <defs>
       <path d="M 19.1875 8.296875 
L 53.609375 8.296875 
L 53.609375 0 
L 7.328125 0 
L 7.328125 8.296875 
Q 12.9375 14.109375 22.625 23.890625 
Q 32.328125 33.6875 34.8125 36.53125 
Q 39.546875 41.84375 41.421875 45.53125 
Q 43.3125 49.21875 43.3125 52.78125 
Q 43.3125 58.59375 39.234375 62.25 
Q 35.15625 65.921875 28.609375 65.921875 
Q 23.96875 65.921875 18.8125 64.3125 
Q 13.671875 62.703125 7.8125 59.421875 
L 7.8125 69.390625 
Q 13.765625 71.78125 18.9375 73 
Q 24.125 74.21875 28.421875 74.21875 
Q 39.75 74.21875 46.484375 68.546875 
Q 53.21875 62.890625 53.21875 53.421875 
Q 53.21875 48.921875 51.53125 44.890625 
Q 49.859375 40.875 45.40625 35.40625 
Q 44.1875 33.984375 37.640625 27.21875 
Q 31.109375 20.453125 19.1875 8.296875 
z
" id="DejaVuSans-32"/>
      </defs>
      <g transform="translate(179.378594 322.182437)scale(0.1 -0.1)">
       <use xlink:href="#DejaVuSans-2212"/>
       <use x="83.789062" xlink:href="#DejaVuSans-32"/>
       <use x="147.412109" xlink:href="#DejaVuSans-2e"/>
       <use x="179.199219" xlink:href="#DejaVuSans-35"/>
      </g>
     </g>
    </g>
    <g id="xtick_5">
     <g id="line2d_5">
      <g>
       <use style="stroke:#000000;stroke-width:0.8;" x="236.16" xlink:href="#me2625c4791" y="307.584"/>
      </g>
     </g>
     <g id="text_5">
      <!-- 0.0 -->
      <g transform="translate(228.208438 322.182437)scale(0.1 -0.1)">
       <use xlink:href="#DejaVuSans-30"/>
       <use x="63.623047" xlink:href="#DejaVuSans-2e"/>
       <use x="95.410156" xlink:href="#DejaVuSans-30"/>
      </g>
     </g>
    </g>
    <g id="xtick_6">
     <g id="line2d_6">
      <g>
       <use style="stroke:#000000;stroke-width:0.8;" x="280.8" xlink:href="#me2625c4791" y="307.584"/>
      </g>
     </g>
     <g id="text_6">
      <!-- 2.5 -->
      <g transform="translate(272.848437 322.182437)scale(0.1 -0.1)">
       <use xlink:href="#DejaVuSans-32"/>
       <use x="63.623047" xlink:href="#DejaVuSans-2e"/>
       <use x="95.410156" xlink:href="#DejaVuSans-35"/>
      </g>
     </g>
    </g>
    <g id="xtick_7">
     <g id="line2d_7">
      <g>
       <use style="stroke:#000000;stroke-width:0.8;" x="325.44" xlink:href="#me2625c4791" y="307.584"/>
      </g>
     </g>
     <g id="text_7">
      <!-- 5.0 -->
      <g transform="translate(317.488437 322.182437)scale(0.1 -0.1)">
       <use xlink:href="#DejaVuSans-35"/>
       <use x="63.623047" xlink:href="#DejaVuSans-2e"/>
       <use x="95.410156" xlink:href="#DejaVuSans-30"/>
      </g>
     </g>
    </g>
    <g id="xtick_8">
     <g id="line2d_8">
      <g>
       <use style="stroke:#000000;stroke-width:0.8;" x="370.08" xlink:href="#me2625c4791" y="307.584"/>
      </g>
     </g>
     <g id="text_8">
      <!-- 7.5 -->
      <g transform="translate(362.128438 322.182437)scale(0.1 -0.1)">
       <use xlink:href="#DejaVuSans-37"/>
       <use x="63.623047" xlink:href="#DejaVuSans-2e"/>
       <use x="95.410156" xlink:href="#DejaVuSans-35"/>
      </g>
     </g>
    </g>
    <g id="xtick_9">
     <g id="line2d_9">
      <g>
       <use style="stroke:#000000;stroke-width:0.8;" x="414.72" xlink:href="#me2625c4791" y="307.584"/>
      </g>
     </g>
     <g id="text_9">
      <!-- 10.0 -->
      <g transform="translate(403.587188 322.182437)scale(0.1 -0.1)">
       <use xlink:href="#DejaVuSans-31"/>
       <use x="63.623047" xlink:href="#DejaVuSans-30"/>
       <use x="127.246094" xlink:href="#DejaVuSans-2e"/>
       <use x="159.033203" xlink:href="#DejaVuSans-30"/>
      </g>
     </g>
    </g>
   </g>
   <g id="matplotlib.axis_2">
    <g id="ytick_1">
     <g id="line2d_10">
      <defs>
       <path d="M 0 0 
L -3.5 0 
" id="m03ad267074" style="stroke:#000000;stroke-width:0.8;"/>
      </defs>
      <g>
       <use style="stroke:#000000;stroke-width:0.8;" x="57.6" xlink:href="#m03ad267074" y="307.584"/>
      </g>
     </g>
     <g id="text_10">
      <!-- −10.0 -->
      <g transform="translate(19.954687 311.383219)scale(0.1 -0.1)">
       <use xlink:href="#DejaVuSans-2212"/>
       <use x="83.789062" xlink:href="#DejaVuSans-31"/>
       <use x="147.412109" xlink:href="#DejaVuSans-30"/>
       <use x="211.035156" xlink:href="#DejaVuSans-2e"/>
       <use x="242.822266" xlink:href="#DejaVuSans-30"/>
      </g>
     </g>
    </g>
    <g id="ytick_2">
     <g id="line2d_11">
      <g>
       <use style="stroke:#000000;stroke-width:0.8;" x="57.6" xlink:href="#m03ad267074" y="274.32"/>
      </g>
     </g>
     <g id="text_11">
      <!-- −7.5 -->
      <g transform="translate(26.317187 278.119219)scale(0.1 -0.1)">
       <use xlink:href="#DejaVuSans-2212"/>
       <use x="83.789062" xlink:href="#DejaVuSans-37"/>
       <use x="147.412109" xlink:href="#DejaVuSans-2e"/>
       <use x="179.199219" xlink:href="#DejaVuSans-35"/>
      </g>
     </g>
    </g>
    <g id="ytick_3">
     <g id="line2d_12">
      <g>
       <use style="stroke:#000000;stroke-width:0.8;" x="57.6" xlink:href="#m03ad267074" y="241.056"/>
      </g>
     </g>
     <g id="text_12">
      <!-- −5.0 -->
      <g transform="translate(26.317187 244.855219)scale(0.1 -0.1)">
       <use xlink:href="#DejaVuSans-2212"/>
       <use x="83.789062" xlink:href="#DejaVuSans-35"/>
       <use x="147.412109" xlink:href="#DejaVuSans-2e"/>
       <use x="179.199219" xlink:href="#DejaVuSans-30"/>
      </g>
     </g>
    </g>
    <g id="ytick_4">
     <g id="line2d_13">
      <g>
       <use style="stroke:#000000;stroke-width:0.8;" x="57.6" xlink:href="#m03ad267074" y="207.792"/>
      </g>
     </g>
     <g id="text_13">
      <!-- −2.5 -->
      <g transform="translate(26.317187 211.591219)scale(0.1 -0.1)">
       <use xlink:href="#DejaVuSans-2212"/>
       <use x="83.789062" xlink:href="#DejaVuSans-32"/>
       <use x="147.412109" xlink:href="#DejaVuSans-2e"/>
       <use x="179.199219" xlink:href="#DejaVuSans-35"/>
      </g>
     </g>
    </g>
    <g id="ytick_5">
     <g id="line2d_14">
      <g>
       <use style="stroke:#000000;stroke-width:0.8;" x="57.6" xlink:href="#m03ad267074" y="174.528"/>
      </g>
     </g>
     <g id="text_14">
      <!-- 0.0 -->
      <g transform="translate(34.696875 178.327219)scale(0.1 -0.1)">
       <use xlink:href="#DejaVuSans-30"/>
       <use x="63.623047" xlink:href="#DejaVuSans-2e"/>
       <use x="95.410156" xlink:href="#DejaVuSans-30"/>
      </g>
     </g>
    </g>
    <g id="ytick_6">
     <g id="line2d_15">
      <g>
       <use style="stroke:#000000;stroke-width:0.8;" x="57.6" xlink:href="#m03ad267074" y="141.264"/>
      </g>
     </g>
     <g id="text_15">
      <!-- 2.5 -->
      <g transform="translate(34.696875 145.063219)scale(0.1 -0.1)">
       <use xlink:href="#DejaVuSans-32"/>
       <use x="63.623047" xlink:href="#DejaVuSans-2e"/>
       <use x="95.410156" xlink:href="#DejaVuSans-35"/>
      </g>
     </g>
    </g>
    <g id="ytick_7">
     <g id="line2d_16">
      <g>
       <use style="stroke:#000000;stroke-width:0.8;" x="57.6" xlink:href="#m03ad267074" y="108"/>
      </g>
     </g>
     <g id="text_16">
      <!-- 5.0 -->
      <g transform="translate(34.696875 111.799219)scale(0.1 -0.1)">
       <use xlink:href="#DejaVuSans-35"/>
       <use x="63.623047" xlink:href="#DejaVuSans-2e"/>
       <use x="95.410156" xlink:href="#DejaVuSans-30"/>
      </g>
     </g>
    </g>
    <g id="ytick_8">
     <g id="line2d_17">
      <g>
       <use style="stroke:#000000;stroke-width:0.8;" x="57.6" xlink:href="#m03ad267074" y="74.736"/>
      </g>
     </g>
     <g id="text_17">
      <!-- 7.5 -->
      <g transform="translate(34.696875 78.535219)scale(0.1 -0.1)">
       <use xlink:href="#DejaVuSans-37"/>
       <use x="63.623047" xlink:href="#DejaVuSans-2e"/>
       <use x="95.410156" xlink:href="#DejaVuSans-35"/>
      </g>
     </g>
    </g>
    <g id="ytick_9">
     <g id="line2d_18">
      <g>
       <use style="stroke:#000000;stroke-width:0.8;" x="57.6" xlink:href="#m03ad267074" y="41.472"/>
      </g>
     </g>
     <g id="text_18">
      <!-- 10.0 -->
      <g transform="translate(28.334375 45.271219)scale(0.1 -0.1)">
       <use xlink:href="#DejaVuSans-31"/>
       <use x="63.623047" xlink:href="#DejaVuSans-30"/>
       <use x="127.246094" xlink:href="#DejaVuSans-2e"/>
       <use x="159.033203" xlink:href="#DejaVuSans-30"/>
      </g>
     </g>
    </g>
   </g>
   <g id="patch_3">
    <path d="M 57.6 307.584 
L 57.6 41.472 
" style="fill:none;stroke:#000000;stroke-linecap:square;stroke-linejoin:miter;stroke-width:0.8;"/>
   </g>
   <g id="patch_4">
    <path d="M 414.72 307.584 
L 414.72 41.472 
" style="fill:none;stroke:#000000;stroke-linecap:square;stroke-linejoin:miter;stroke-width:0.8;"/>
   </g>
   <g id="patch_5">
    <path d="M 57.6 307.584 
L 414.72 307.584 
" style="fill:none;stroke:#000000;stroke-linecap:square;stroke-linejoin:miter;stroke-width:0.8;"/>
   </g>
   <g id="patch_6">
    <path d="M 57.6 41.472 
L 414.72 41.472 
" style="fill:none;stroke:#000000;stroke-linecap:square;stroke-linejoin:miter;stroke-width:0.8;"/>
   </g>
  </g>
 </g>
 <defs>
  <clipPath id="p879023c2bb">
   <rect height="266.112" width="357.12" x="57.6" y="41.472"/>
  </clipPath>
 </defs>
</svg>
