<?xml version="1.0" encoding="utf-8" standalone="no"?>
<!DOCTYPE svg PUBLIC "-//W3C//DTD SVG 1.1//EN"
  "http://www.w3.org/Graphics/SVG/1.1/DTD/svg11.dtd">
<!-- Created with matplotlib (http://matplotlib.org/) -->
<svg height="345.6pt" version="1.1" viewBox="0 0 460.8 345.6" width="460.8pt" xmlns="http://www.w3.org/2000/svg" xmlns:xlink="http://www.w3.org/1999/xlink">
 <defs>
  <style type="text/css">
*{stroke-linecap:butt;stroke-linejoin:round;}
  </style>
 </defs>
 <g id="figure_1">
  <g id="patch_1">
   <path d="M 0 345.6 
L 460.8 345.6 
L 460.8 0 
L 0 0 
z
" style="fill:#ffffff;"/>
  </g>
  <g id="axes_1">
   <g id="patch_2">
    <path d="M 57.6 307.584 
L 414.72 307.584 
L 414.72 41.472 
L 57.6 41.472 
z
" style="fill:#ffffff;"/>
   </g>
   <g id="PathCollection_1">
    <defs>
     <path d="M 0 0.612372 
C 0.162403 0.612372 0.318176 0.547849 0.433013 0.433013 
C 0.547849 0.318176 0.612372 0.162403 0.612372 0 
C 0.612372 -0.162403 0.547849 -0.318176 0.433013 -0.433013 
C 0.318176 -0.547849 0.162403 -0.612372 0 -0.612372 
C -0.162403 -0.612372 -0.318176 -0.547849 -0.433013 -0.433013 
C -0.547849 -0.318176 -0.612372 -0.162403 -0.612372 0 
C -0.612372 0.162403 -0.547849 0.318176 -0.433013 0.433013 
C -0.318176 0.547849 -0.162403 0.612372 0 0.612372 
z
" id="md518a3de79" style="stroke:#000000;"/>
    </defs>
    <g clip-path="url(#p0c9b3deaa6)">
     <use style="stroke:#000000;" x="236.16" xlink:href="#md518a3de79" y="173.601343"/>
     <use style="stroke:#000000;" x="236.613209" xlink:href="#md518a3de79" y="170.825063"/>
     <use style="stroke:#000000;" x="240.04619" xlink:href="#md518a3de79" y="174.425273"/>
     <use style="stroke:#000000;" x="240.179225" xlink:href="#md518a3de79" y="173.305755"/>
     <use style="stroke:#000000;" x="240.022429" xlink:href="#md518a3de79" y="174.528"/>
     <use style="stroke:#000000;" x="239.017639" xlink:href="#md518a3de79" y="174.302949"/>
     <use style="stroke:#000000;" x="239.609902" xlink:href="#md518a3de79" y="174.196081"/>
     <use style="stroke:#000000;" x="239.748203" xlink:href="#md518a3de79" y="174.528"/>
     <use style="stroke:#000000;" x="236.197088" xlink:href="#md518a3de79" y="173.663577"/>
     <use style="stroke:#000000;" x="239.602265" xlink:href="#md518a3de79" y="174.225786"/>
     <use style="stroke:#000000;" x="236.647557" xlink:href="#md518a3de79" y="173.288715"/>
     <use style="stroke:#000000;" x="243.899559" xlink:href="#md518a3de79" y="173.443135"/>
     <use style="stroke:#000000;" x="236.43879" xlink:href="#md518a3de79" y="171.736151"/>
     <use style="stroke:#000000;" x="237.673438" xlink:href="#md518a3de79" y="173.328276"/>
     <use style="stroke:#000000;" x="237.142844" xlink:href="#md518a3de79" y="173.262324"/>
     <use style="stroke:#000000;" x="240.119771" xlink:href="#md518a3de79" y="174.528"/>
     <use style="stroke:#000000;" x="244.233276" xlink:href="#md518a3de79" y="174.528"/>
     <use style="stroke:#000000;" x="239.576467" xlink:href="#md518a3de79" y="174.080214"/>
     <use style="stroke:#000000;" x="240.55215" xlink:href="#md518a3de79" y="173.75553"/>
     <use style="stroke:#000000;" x="247.612884" xlink:href="#md518a3de79" y="168.637781"/>
     <use style="stroke:#000000;" x="238.470281" xlink:href="#md518a3de79" y="173.955936"/>
     <use style="stroke:#000000;" x="239.857447" xlink:href="#md518a3de79" y="174.528"/>
     <use style="stroke:#000000;" x="237.547892" xlink:href="#md518a3de79" y="173.066558"/>
     <use style="stroke:#000000;" x="244.319484" xlink:href="#md518a3de79" y="173.323285"/>
     <use style="stroke:#000000;" x="237.82809" xlink:href="#md518a3de79" y="173.029856"/>
     <use style="stroke:#000000;" x="236.16" xlink:href="#md518a3de79" y="174.528"/>
     <use style="stroke:#000000;" x="236.640771" xlink:href="#md518a3de79" y="174.038269"/>
     <use style="stroke:#000000;" x="236.62165" xlink:href="#md518a3de79" y="174.528"/>
     <use style="stroke:#000000;" x="236.204724" xlink:href="#md518a3de79" y="174.528"/>
     <use style="stroke:#000000;" x="240.20839" xlink:href="#md518a3de79" y="174.213925"/>
     <use style="stroke:#000000;" x="243.902988" xlink:href="#md518a3de79" y="171.699385"/>
     <use style="stroke:#000000;" x="236.525536" xlink:href="#md518a3de79" y="174.528"/>
     <use style="stroke:#000000;" x="240.034389" xlink:href="#md518a3de79" y="171.924825"/>
     <use style="stroke:#000000;" x="240.227821" xlink:href="#md518a3de79" y="173.49964"/>
     <use style="stroke:#000000;" x="239.93602" xlink:href="#md518a3de79" y="174.528"/>
     <use style="stroke:#000000;" x="239.262334" xlink:href="#md518a3de79" y="173.694832"/>
     <use style="stroke:#000000;" x="236.850972" xlink:href="#md518a3de79" y="172.660765"/>
     <use style="stroke:#000000;" x="236.744333" xlink:href="#md518a3de79" y="173.520725"/>
     <use style="stroke:#000000;" x="243.914212" xlink:href="#md518a3de79" y="174.363064"/>
     <use style="stroke:#000000;" x="240.058061" xlink:href="#md518a3de79" y="171.611153"/>
     <use style="stroke:#000000;" x="236.548089" xlink:href="#md518a3de79" y="174.528"/>
     <use style="stroke:#000000;" x="236.795341" xlink:href="#md518a3de79" y="173.537977"/>
     <use style="stroke:#000000;" x="237.062122" xlink:href="#md518a3de79" y="173.906131"/>
     <use style="stroke:#000000;" x="240.127913" xlink:href="#md518a3de79" y="174.226038"/>
     <use style="stroke:#000000;" x="237.795322" xlink:href="#md518a3de79" y="174.140019"/>
     <use style="stroke:#000000;" x="244.516786" xlink:href="#md518a3de79" y="174.121853"/>
     <use style="stroke:#000000;" x="237.229948" xlink:href="#md518a3de79" y="173.666234"/>
     <use style="stroke:#000000;" x="237.167519" xlink:href="#md518a3de79" y="174.528"/>
     <use style="stroke:#000000;" x="237.524624" xlink:href="#md518a3de79" y="173.535863"/>
     <use style="stroke:#000000;" x="237.378821" xlink:href="#md518a3de79" y="173.905177"/>
     <use style="stroke:#000000;" x="243.768245" xlink:href="#md518a3de79" y="174.528"/>
     <use style="stroke:#000000;" x="243.892482" xlink:href="#md518a3de79" y="174.528"/>
     <use style="stroke:#000000;" x="237.582924" xlink:href="#md518a3de79" y="174.528"/>
     <use style="stroke:#000000;" x="247.789073" xlink:href="#md518a3de79" y="167.059614"/>
     <use style="stroke:#000000;" x="236.239417" xlink:href="#md518a3de79" y="172.062281"/>
     <use style="stroke:#000000;" x="237.718177" xlink:href="#md518a3de79" y="174.528"/>
     <use style="stroke:#000000;" x="236.596619" xlink:href="#md518a3de79" y="171.992625"/>
     <use style="stroke:#000000;" x="236.638265" xlink:href="#md518a3de79" y="174.528"/>
     <use style="stroke:#000000;" x="236.656288" xlink:href="#md518a3de79" y="173.427841"/>
     <use style="stroke:#000000;" x="236.538988" xlink:href="#md518a3de79" y="172.514734"/>
     <use style="stroke:#000000;" x="236.559499" xlink:href="#md518a3de79" y="173.311613"/>
     <use style="stroke:#000000;" x="236.680654" xlink:href="#md518a3de79" y="172.571692"/>
     <use style="stroke:#000000;" x="240.397549" xlink:href="#md518a3de79" y="174.528"/>
     <use style="stroke:#000000;" x="239.50003" xlink:href="#md518a3de79" y="173.544145"/>
     <use style="stroke:#000000;" x="240.577252" xlink:href="#md518a3de79" y="174.528"/>
     <use style="stroke:#000000;" x="240.367646" xlink:href="#md518a3de79" y="174.528"/>
     <use style="stroke:#000000;" x="240.446936" xlink:href="#md518a3de79" y="171.799236"/>
     <use style="stroke:#000000;" x="239.677904" xlink:href="#md518a3de79" y="174.310363"/>
     <use style="stroke:#000000;" x="236.941752" xlink:href="#md518a3de79" y="174.290565"/>
     <use style="stroke:#000000;" x="240.076231" xlink:href="#md518a3de79" y="173.831328"/>
     <use style="stroke:#000000;" x="236.834686" xlink:href="#md518a3de79" y="173.428375"/>
     <use style="stroke:#000000;" x="236.26295" xlink:href="#md518a3de79" y="173.901183"/>
     <use style="stroke:#000000;" x="237.103937" xlink:href="#md518a3de79" y="172.752219"/>
     <use style="stroke:#000000;" x="236.16" xlink:href="#md518a3de79" y="170.529645"/>
     <use style="stroke:#000000;" x="236.486239" xlink:href="#md518a3de79" y="174.438732"/>
     <use style="stroke:#000000;" x="243.987113" xlink:href="#md518a3de79" y="172.233737"/>
     <use style="stroke:#000000;" x="244.096295" xlink:href="#md518a3de79" y="173.738543"/>
     <use style="stroke:#000000;" x="244.309493" xlink:href="#md518a3de79" y="170.841242"/>
     <use style="stroke:#000000;" x="239.14656" xlink:href="#md518a3de79" y="173.756048"/>
     <use style="stroke:#000000;" x="247.906039" xlink:href="#md518a3de79" y="167.669157"/>
     <use style="stroke:#000000;" x="236.534492" xlink:href="#md518a3de79" y="174.528"/>
     <use style="stroke:#000000;" x="237.299704" xlink:href="#md518a3de79" y="174.528"/>
     <use style="stroke:#000000;" x="236.270713" xlink:href="#md518a3de79" y="173.508976"/>
     <use style="stroke:#000000;" x="236.16" xlink:href="#md518a3de79" y="170.67923"/>
     <use style="stroke:#000000;" x="236.16" xlink:href="#md518a3de79" y="172.351755"/>
     <use style="stroke:#000000;" x="236.16" xlink:href="#md518a3de79" y="170.326349"/>
     <use style="stroke:#000000;" x="236.16" xlink:href="#md518a3de79" y="171.450085"/>
     <use style="stroke:#000000;" x="239.483197" xlink:href="#md518a3de79" y="173.739862"/>
     <use style="stroke:#000000;" x="239.486208" xlink:href="#md518a3de79" y="174.528"/>
     <use style="stroke:#000000;" x="239.898479" xlink:href="#md518a3de79" y="174.058637"/>
     <use style="stroke:#000000;" x="240.298019" xlink:href="#md518a3de79" y="173.134988"/>
     <use style="stroke:#000000;" x="240.410906" xlink:href="#md518a3de79" y="174.174326"/>
     <use style="stroke:#000000;" x="240.554062" xlink:href="#md518a3de79" y="172.539153"/>
     <use style="stroke:#000000;" x="240.26542" xlink:href="#md518a3de79" y="173.829738"/>
     <use style="stroke:#000000;" x="239.593896" xlink:href="#md518a3de79" y="173.676032"/>
     <use style="stroke:#000000;" x="239.388495" xlink:href="#md518a3de79" y="173.967786"/>
     <use style="stroke:#000000;" x="239.917608" xlink:href="#md518a3de79" y="173.545244"/>
     <use style="stroke:#000000;" x="238.988365" xlink:href="#md518a3de79" y="174.528"/>
     <use style="stroke:#000000;" x="238.011655" xlink:href="#md518a3de79" y="174.528"/>
     <use style="stroke:#000000;" x="240.327334" xlink:href="#md518a3de79" y="174.528"/>
     <use style="stroke:#000000;" x="238.274283" xlink:href="#md518a3de79" y="174.528"/>
     <use style="stroke:#000000;" x="239.21317" xlink:href="#md518a3de79" y="172.634369"/>
     <use style="stroke:#000000;" x="240.725358" xlink:href="#md518a3de79" y="174.34508"/>
     <use style="stroke:#000000;" x="240.43925" xlink:href="#md518a3de79" y="174.192567"/>
     <use style="stroke:#000000;" x="238.858802" xlink:href="#md518a3de79" y="173.783966"/>
     <use style="stroke:#000000;" x="236.16" xlink:href="#md518a3de79" y="173.042651"/>
     <use style="stroke:#000000;" x="236.68798" xlink:href="#md518a3de79" y="173.191419"/>
     <use style="stroke:#000000;" x="236.515219" xlink:href="#md518a3de79" y="174.528"/>
     <use style="stroke:#000000;" x="238.73545" xlink:href="#md518a3de79" y="174.383152"/>
     <use style="stroke:#000000;" x="239.527189" xlink:href="#md518a3de79" y="174.528"/>
     <use style="stroke:#000000;" x="240.743603" xlink:href="#md518a3de79" y="174.528"/>
     <use style="stroke:#000000;" x="237.281111" xlink:href="#md518a3de79" y="172.4568"/>
     <use style="stroke:#000000;" x="236.16" xlink:href="#md518a3de79" y="172.20058"/>
     <use style="stroke:#000000;" x="236.16" xlink:href="#md518a3de79" y="173.954808"/>
     <use style="stroke:#000000;" x="242.253212" xlink:href="#md518a3de79" y="173.240854"/>
     <use style="stroke:#000000;" x="242.937072" xlink:href="#md518a3de79" y="172.712925"/>
     <use style="stroke:#000000;" x="243.56211" xlink:href="#md518a3de79" y="173.367229"/>
     <use style="stroke:#000000;" x="237.315362" xlink:href="#md518a3de79" y="171.145043"/>
     <use style="stroke:#000000;" x="236.493475" xlink:href="#md518a3de79" y="172.065552"/>
     <use style="stroke:#000000;" x="236.16" xlink:href="#md518a3de79" y="172.145355"/>
     <use style="stroke:#000000;" x="239.163948" xlink:href="#md518a3de79" y="173.480527"/>
     <use style="stroke:#000000;" x="237.461532" xlink:href="#md518a3de79" y="173.031501"/>
     <use style="stroke:#000000;" x="239.405552" xlink:href="#md518a3de79" y="173.236454"/>
     <use style="stroke:#000000;" x="237.661891" xlink:href="#md518a3de79" y="172.691186"/>
     <use style="stroke:#000000;" x="236.16" xlink:href="#md518a3de79" y="171.698918"/>
     <use style="stroke:#000000;" x="236.796737" xlink:href="#md518a3de79" y="173.596225"/>
     <use style="stroke:#000000;" x="239.848815" xlink:href="#md518a3de79" y="174.528"/>
     <use style="stroke:#000000;" x="240.263027" xlink:href="#md518a3de79" y="174.528"/>
     <use style="stroke:#000000;" x="240.898229" xlink:href="#md518a3de79" y="174.528"/>
     <use style="stroke:#000000;" x="243.900001" xlink:href="#md518a3de79" y="174.528"/>
     <use style="stroke:#000000;" x="244.606972" xlink:href="#md518a3de79" y="174.528"/>
     <use style="stroke:#000000;" x="243.62009" xlink:href="#md518a3de79" y="173.807833"/>
     <use style="stroke:#000000;" x="238.767393" xlink:href="#md518a3de79" y="174.126768"/>
     <use style="stroke:#000000;" x="239.431451" xlink:href="#md518a3de79" y="172.956036"/>
     <use style="stroke:#000000;" x="239.627337" xlink:href="#md518a3de79" y="174.260701"/>
     <use style="stroke:#000000;" x="242.028711" xlink:href="#md518a3de79" y="173.628841"/>
     <use style="stroke:#000000;" x="241.650631" xlink:href="#md518a3de79" y="172.809238"/>
     <use style="stroke:#000000;" x="240.125224" xlink:href="#md518a3de79" y="173.804474"/>
     <use style="stroke:#000000;" x="247.990385" xlink:href="#md518a3de79" y="169.723718"/>
     <use style="stroke:#000000;" x="246.513064" xlink:href="#md518a3de79" y="168.590951"/>
     <use style="stroke:#000000;" x="247.142495" xlink:href="#md518a3de79" y="166.958853"/>
     <use style="stroke:#000000;" x="238.408689" xlink:href="#md518a3de79" y="173.800856"/>
     <use style="stroke:#000000;" x="237.711843" xlink:href="#md518a3de79" y="174.12972"/>
     <use style="stroke:#000000;" x="238.304882" xlink:href="#md518a3de79" y="173.041761"/>
     <use style="stroke:#000000;" x="239.45728" xlink:href="#md518a3de79" y="174.250192"/>
     <use style="stroke:#000000;" x="240.200087" xlink:href="#md518a3de79" y="173.639972"/>
     <use style="stroke:#000000;" x="239.752009" xlink:href="#md518a3de79" y="174.528"/>
     <use style="stroke:#000000;" x="237.380154" xlink:href="#md518a3de79" y="172.255827"/>
     <use style="stroke:#000000;" x="236.749479" xlink:href="#md518a3de79" y="173.17786"/>
     <use style="stroke:#000000;" x="238.569657" xlink:href="#md518a3de79" y="172.78423"/>
     <use style="stroke:#000000;" x="244.29082" xlink:href="#md518a3de79" y="173.950404"/>
     <use style="stroke:#000000;" x="244.111049" xlink:href="#md518a3de79" y="173.390366"/>
     <use style="stroke:#000000;" x="242.264905" xlink:href="#md518a3de79" y="172.843504"/>
     <use style="stroke:#000000;" x="236.662884" xlink:href="#md518a3de79" y="173.350592"/>
     <use style="stroke:#000000;" x="238.083699" xlink:href="#md518a3de79" y="172.22966"/>
     <use style="stroke:#000000;" x="237.858543" xlink:href="#md518a3de79" y="173.883027"/>
     <use style="stroke:#000000;" x="236.37567" xlink:href="#md518a3de79" y="174.528"/>
     <use style="stroke:#000000;" x="236.16" xlink:href="#md518a3de79" y="172.941089"/>
     <use style="stroke:#000000;" x="237.237419" xlink:href="#md518a3de79" y="174.423075"/>
     <use style="stroke:#000000;" x="236.16" xlink:href="#md518a3de79" y="174.528"/>
     <use style="stroke:#000000;" x="237.556963" xlink:href="#md518a3de79" y="174.528"/>
     <use style="stroke:#000000;" x="236.16" xlink:href="#md518a3de79" y="174.36628"/>
     <use style="stroke:#000000;" x="236.16" xlink:href="#md518a3de79" y="174.528"/>
     <use style="stroke:#000000;" x="236.16" xlink:href="#md518a3de79" y="174.528"/>
     <use style="stroke:#000000;" x="240.547591" xlink:href="#md518a3de79" y="174.14862"/>
     <use style="stroke:#000000;" x="239.844589" xlink:href="#md518a3de79" y="174.119492"/>
     <use style="stroke:#000000;" x="242.912548" xlink:href="#md518a3de79" y="172.136004"/>
     <use style="stroke:#000000;" x="244.521958" xlink:href="#md518a3de79" y="171.155245"/>
     <use style="stroke:#000000;" x="236.854968" xlink:href="#md518a3de79" y="172.914625"/>
     <use style="stroke:#000000;" x="236.16" xlink:href="#md518a3de79" y="174.528"/>
     <use style="stroke:#000000;" x="240.583967" xlink:href="#md518a3de79" y="171.287229"/>
     <use style="stroke:#000000;" x="241.176219" xlink:href="#md518a3de79" y="172.569333"/>
     <use style="stroke:#000000;" x="239.909672" xlink:href="#md518a3de79" y="172.983512"/>
     <use style="stroke:#000000;" x="239.219358" xlink:href="#md518a3de79" y="173.070713"/>
     <use style="stroke:#000000;" x="239.038623" xlink:href="#md518a3de79" y="174.528"/>
     <use style="stroke:#000000;" x="241.397326" xlink:href="#md518a3de79" y="173.900994"/>
     <use style="stroke:#000000;" x="238.764151" xlink:href="#md518a3de79" y="174.528"/>
     <use style="stroke:#000000;" x="238.663891" xlink:href="#md518a3de79" y="174.396643"/>
     <use style="stroke:#000000;" x="238.21438" xlink:href="#md518a3de79" y="172.511188"/>
     <use style="stroke:#000000;" x="236.16" xlink:href="#md518a3de79" y="171.934128"/>
     <use style="stroke:#000000;" x="236.98167" xlink:href="#md518a3de79" y="174.528"/>
     <use style="stroke:#000000;" x="236.464048" xlink:href="#md518a3de79" y="173.508943"/>
     <use style="stroke:#000000;" x="244.163382" xlink:href="#md518a3de79" y="174.528"/>
     <use style="stroke:#000000;" x="243.949711" xlink:href="#md518a3de79" y="174.528"/>
     <use style="stroke:#000000;" x="240.601441" xlink:href="#md518a3de79" y="171.305626"/>
     <use style="stroke:#000000;" x="241.802334" xlink:href="#md518a3de79" y="172.561329"/>
     <use style="stroke:#000000;" x="237.747286" xlink:href="#md518a3de79" y="174.528"/>
     <use style="stroke:#000000;" x="237.77324" xlink:href="#md518a3de79" y="174.528"/>
     <use style="stroke:#000000;" x="237.28341" xlink:href="#md518a3de79" y="173.667859"/>
     <use style="stroke:#000000;" x="236.744821" xlink:href="#md518a3de79" y="173.546837"/>
     <use style="stroke:#000000;" x="236.738086" xlink:href="#md518a3de79" y="174.528"/>
     <use style="stroke:#000000;" x="236.762388" xlink:href="#md518a3de79" y="171.621473"/>
     <use style="stroke:#000000;" x="241.420482" xlink:href="#md518a3de79" y="173.335933"/>
     <use style="stroke:#000000;" x="239.037786" xlink:href="#md518a3de79" y="172.950417"/>
     <use style="stroke:#000000;" x="238.895304" xlink:href="#md518a3de79" y="173.361945"/>
     <use style="stroke:#000000;" x="239.274985" xlink:href="#md518a3de79" y="174.522161"/>
     <use style="stroke:#000000;" x="244.521493" xlink:href="#md518a3de79" y="173.500488"/>
     <use style="stroke:#000000;" x="246.098668" xlink:href="#md518a3de79" y="174.528"/>
     <use style="stroke:#000000;" x="237.703776" xlink:href="#md518a3de79" y="174.192129"/>
     <use style="stroke:#000000;" x="237.565997" xlink:href="#md518a3de79" y="173.413757"/>
     <use style="stroke:#000000;" x="237.833837" xlink:href="#md518a3de79" y="174.528"/>
     <use style="stroke:#000000;" x="237.678061" xlink:href="#md518a3de79" y="174.528"/>
     <use style="stroke:#000000;" x="236.44469" xlink:href="#md518a3de79" y="174.528"/>
     <use style="stroke:#000000;" x="239.366418" xlink:href="#md518a3de79" y="173.06553"/>
     <use style="stroke:#000000;" x="238.209164" xlink:href="#md518a3de79" y="173.864115"/>
     <use style="stroke:#000000;" x="236.820688" xlink:href="#md518a3de79" y="173.812598"/>
     <use style="stroke:#000000;" x="245.446965" xlink:href="#md518a3de79" y="174.047528"/>
     <use style="stroke:#000000;" x="243.602803" xlink:href="#md518a3de79" y="174.528"/>
     <use style="stroke:#000000;" x="242.491737" xlink:href="#md518a3de79" y="173.759236"/>
     <use style="stroke:#000000;" x="245.460435" xlink:href="#md518a3de79" y="174.528"/>
     <use style="stroke:#000000;" x="237.500669" xlink:href="#md518a3de79" y="174.528"/>
     <use style="stroke:#000000;" x="237.311964" xlink:href="#md518a3de79" y="173.612953"/>
     <use style="stroke:#000000;" x="237.761027" xlink:href="#md518a3de79" y="174.528"/>
     <use style="stroke:#000000;" x="246.874349" xlink:href="#md518a3de79" y="165.84569"/>
     <use style="stroke:#000000;" x="247.686146" xlink:href="#md518a3de79" y="167.065884"/>
     <use style="stroke:#000000;" x="238.973073" xlink:href="#md518a3de79" y="170.243995"/>
     <use style="stroke:#000000;" x="236.16" xlink:href="#md518a3de79" y="174.453006"/>
     <use style="stroke:#000000;" x="236.16" xlink:href="#md518a3de79" y="172.998395"/>
     <use style="stroke:#000000;" x="238.490789" xlink:href="#md518a3de79" y="174.528"/>
     <use style="stroke:#000000;" x="236.52516" xlink:href="#md518a3de79" y="173.447172"/>
     <use style="stroke:#000000;" x="237.950486" xlink:href="#md518a3de79" y="173.723539"/>
     <use style="stroke:#000000;" x="236.697797" xlink:href="#md518a3de79" y="172.740406"/>
     <use style="stroke:#000000;" x="236.16" xlink:href="#md518a3de79" y="173.133732"/>
     <use style="stroke:#000000;" x="242.501691" xlink:href="#md518a3de79" y="174.508246"/>
     <use style="stroke:#000000;" x="239.370047" xlink:href="#md518a3de79" y="174.528"/>
     <use style="stroke:#000000;" x="240.436242" xlink:href="#md518a3de79" y="174.528"/>
     <use style="stroke:#000000;" x="239.683749" xlink:href="#md518a3de79" y="174.43063"/>
     <use style="stroke:#000000;" x="238.497907" xlink:href="#md518a3de79" y="171.782499"/>
     <use style="stroke:#000000;" x="241.163248" xlink:href="#md518a3de79" y="174.528"/>
     <use style="stroke:#000000;" x="236.710418" xlink:href="#md518a3de79" y="174.528"/>
     <use style="stroke:#000000;" x="238.125518" xlink:href="#md518a3de79" y="173.814022"/>
     <use style="stroke:#000000;" x="236.16" xlink:href="#md518a3de79" y="174.023114"/>
     <use style="stroke:#000000;" x="236.16" xlink:href="#md518a3de79" y="173.346943"/>
     <use style="stroke:#000000;" x="238.094718" xlink:href="#md518a3de79" y="171.073348"/>
     <use style="stroke:#000000;" x="236.16" xlink:href="#md518a3de79" y="170.7049"/>
     <use style="stroke:#000000;" x="236.16" xlink:href="#md518a3de79" y="173.152932"/>
     <use style="stroke:#000000;" x="247.21925" xlink:href="#md518a3de79" y="172.237108"/>
     <use style="stroke:#000000;" x="245.672365" xlink:href="#md518a3de79" y="173.72435"/>
     <use style="stroke:#000000;" x="245.359771" xlink:href="#md518a3de79" y="169.858442"/>
     <use style="stroke:#000000;" x="237.364343" xlink:href="#md518a3de79" y="174.261337"/>
     <use style="stroke:#000000;" x="247.550342" xlink:href="#md518a3de79" y="168.085455"/>
    </g>
   </g>
   <g id="PathCollection_2">
    <defs>
     <path d="M 0 0.935414 
C 0.248075 0.935414 0.486022 0.836853 0.661438 0.661438 
C 0.836853 0.486022 0.935414 0.248075 0.935414 0 
C 0.935414 -0.248075 0.836853 -0.486022 0.661438 -0.661438 
C 0.486022 -0.836853 0.248075 -0.935414 0 -0.935414 
C -0.248075 -0.935414 -0.486022 -0.836853 -0.661438 -0.661438 
C -0.836853 -0.486022 -0.935414 -0.248075 -0.935414 0 
C -0.935414 0.248075 -0.836853 0.486022 -0.661438 0.661438 
C -0.486022 0.836853 -0.248075 0.935414 0 0.935414 
z
" id="m4cc09ba015" style="stroke:#0000ff;"/>
    </defs>
    <g clip-path="url(#p0c9b3deaa6)">
     <use style="fill:#0000ff;stroke:#0000ff;" x="236.16" xlink:href="#m4cc09ba015" y="173.601343"/>
     <use style="fill:#0000ff;stroke:#0000ff;" x="236.613209" xlink:href="#m4cc09ba015" y="170.825063"/>
     <use style="fill:#0000ff;stroke:#0000ff;" x="240.04619" xlink:href="#m4cc09ba015" y="174.425273"/>
     <use style="fill:#0000ff;stroke:#0000ff;" x="240.179225" xlink:href="#m4cc09ba015" y="173.305755"/>
     <use style="fill:#0000ff;stroke:#0000ff;" x="240.022429" xlink:href="#m4cc09ba015" y="174.528"/>
     <use style="fill:#0000ff;stroke:#0000ff;" x="239.017639" xlink:href="#m4cc09ba015" y="174.302949"/>
     <use style="fill:#0000ff;stroke:#0000ff;" x="239.609902" xlink:href="#m4cc09ba015" y="174.196081"/>
     <use style="fill:#0000ff;stroke:#0000ff;" x="239.748203" xlink:href="#m4cc09ba015" y="174.528"/>
     <use style="fill:#0000ff;stroke:#0000ff;" x="236.197088" xlink:href="#m4cc09ba015" y="173.663577"/>
     <use style="fill:#0000ff;stroke:#0000ff;" x="239.602265" xlink:href="#m4cc09ba015" y="174.225786"/>
     <use style="fill:#0000ff;stroke:#0000ff;" x="236.647557" xlink:href="#m4cc09ba015" y="173.288715"/>
     <use style="fill:#0000ff;stroke:#0000ff;" x="243.899559" xlink:href="#m4cc09ba015" y="173.443135"/>
     <use style="fill:#0000ff;stroke:#0000ff;" x="236.43879" xlink:href="#m4cc09ba015" y="171.736151"/>
     <use style="fill:#0000ff;stroke:#0000ff;" x="237.673438" xlink:href="#m4cc09ba015" y="173.328276"/>
     <use style="fill:#0000ff;stroke:#0000ff;" x="237.142844" xlink:href="#m4cc09ba015" y="173.262324"/>
     <use style="fill:#0000ff;stroke:#0000ff;" x="240.119771" xlink:href="#m4cc09ba015" y="174.528"/>
     <use style="fill:#0000ff;stroke:#0000ff;" x="244.233276" xlink:href="#m4cc09ba015" y="174.528"/>
     <use style="fill:#0000ff;stroke:#0000ff;" x="239.576467" xlink:href="#m4cc09ba015" y="174.080214"/>
     <use style="fill:#0000ff;stroke:#0000ff;" x="240.55215" xlink:href="#m4cc09ba015" y="173.75553"/>
     <use style="fill:#0000ff;stroke:#0000ff;" x="247.612884" xlink:href="#m4cc09ba015" y="168.637781"/>
     <use style="fill:#0000ff;stroke:#0000ff;" x="238.470281" xlink:href="#m4cc09ba015" y="173.955936"/>
     <use style="fill:#0000ff;stroke:#0000ff;" x="239.857447" xlink:href="#m4cc09ba015" y="174.528"/>
     <use style="fill:#0000ff;stroke:#0000ff;" x="237.547892" xlink:href="#m4cc09ba015" y="173.066558"/>
     <use style="fill:#0000ff;stroke:#0000ff;" x="244.319484" xlink:href="#m4cc09ba015" y="173.323285"/>
     <use style="fill:#0000ff;stroke:#0000ff;" x="237.82809" xlink:href="#m4cc09ba015" y="173.029856"/>
     <use style="fill:#0000ff;stroke:#0000ff;" x="236.16" xlink:href="#m4cc09ba015" y="174.528"/>
     <use style="fill:#0000ff;stroke:#0000ff;" x="236.640771" xlink:href="#m4cc09ba015" y="174.038269"/>
     <use style="fill:#0000ff;stroke:#0000ff;" x="236.62165" xlink:href="#m4cc09ba015" y="174.528"/>
     <use style="fill:#0000ff;stroke:#0000ff;" x="236.204724" xlink:href="#m4cc09ba015" y="174.528"/>
     <use style="fill:#0000ff;stroke:#0000ff;" x="240.20839" xlink:href="#m4cc09ba015" y="174.213925"/>
     <use style="fill:#0000ff;stroke:#0000ff;" x="243.902988" xlink:href="#m4cc09ba015" y="171.699385"/>
     <use style="fill:#0000ff;stroke:#0000ff;" x="236.525536" xlink:href="#m4cc09ba015" y="174.528"/>
     <use style="fill:#0000ff;stroke:#0000ff;" x="240.034389" xlink:href="#m4cc09ba015" y="171.924825"/>
     <use style="fill:#0000ff;stroke:#0000ff;" x="240.227821" xlink:href="#m4cc09ba015" y="173.49964"/>
     <use style="fill:#0000ff;stroke:#0000ff;" x="239.93602" xlink:href="#m4cc09ba015" y="174.528"/>
     <use style="fill:#0000ff;stroke:#0000ff;" x="239.262334" xlink:href="#m4cc09ba015" y="173.694832"/>
     <use style="fill:#0000ff;stroke:#0000ff;" x="236.850972" xlink:href="#m4cc09ba015" y="172.660765"/>
     <use style="fill:#0000ff;stroke:#0000ff;" x="236.744333" xlink:href="#m4cc09ba015" y="173.520725"/>
     <use style="fill:#0000ff;stroke:#0000ff;" x="243.914212" xlink:href="#m4cc09ba015" y="174.363064"/>
     <use style="fill:#0000ff;stroke:#0000ff;" x="240.058061" xlink:href="#m4cc09ba015" y="171.611153"/>
     <use style="fill:#0000ff;stroke:#0000ff;" x="236.548089" xlink:href="#m4cc09ba015" y="174.528"/>
     <use style="fill:#0000ff;stroke:#0000ff;" x="236.795341" xlink:href="#m4cc09ba015" y="173.537977"/>
     <use style="fill:#0000ff;stroke:#0000ff;" x="237.062122" xlink:href="#m4cc09ba015" y="173.906131"/>
     <use style="fill:#0000ff;stroke:#0000ff;" x="240.127913" xlink:href="#m4cc09ba015" y="174.226038"/>
     <use style="fill:#0000ff;stroke:#0000ff;" x="237.795322" xlink:href="#m4cc09ba015" y="174.140019"/>
     <use style="fill:#0000ff;stroke:#0000ff;" x="244.516786" xlink:href="#m4cc09ba015" y="174.121853"/>
     <use style="fill:#0000ff;stroke:#0000ff;" x="237.229948" xlink:href="#m4cc09ba015" y="173.666234"/>
     <use style="fill:#0000ff;stroke:#0000ff;" x="237.167519" xlink:href="#m4cc09ba015" y="174.528"/>
     <use style="fill:#0000ff;stroke:#0000ff;" x="237.524624" xlink:href="#m4cc09ba015" y="173.535863"/>
     <use style="fill:#0000ff;stroke:#0000ff;" x="237.378821" xlink:href="#m4cc09ba015" y="173.905177"/>
     <use style="fill:#0000ff;stroke:#0000ff;" x="243.768245" xlink:href="#m4cc09ba015" y="174.528"/>
     <use style="fill:#0000ff;stroke:#0000ff;" x="243.892482" xlink:href="#m4cc09ba015" y="174.528"/>
     <use style="fill:#0000ff;stroke:#0000ff;" x="237.582924" xlink:href="#m4cc09ba015" y="174.528"/>
     <use style="fill:#0000ff;stroke:#0000ff;" x="247.789073" xlink:href="#m4cc09ba015" y="167.059614"/>
     <use style="fill:#0000ff;stroke:#0000ff;" x="236.239417" xlink:href="#m4cc09ba015" y="172.062281"/>
     <use style="fill:#0000ff;stroke:#0000ff;" x="237.718177" xlink:href="#m4cc09ba015" y="174.528"/>
     <use style="fill:#0000ff;stroke:#0000ff;" x="236.596619" xlink:href="#m4cc09ba015" y="171.992625"/>
     <use style="fill:#0000ff;stroke:#0000ff;" x="236.638265" xlink:href="#m4cc09ba015" y="174.528"/>
     <use style="fill:#0000ff;stroke:#0000ff;" x="236.656288" xlink:href="#m4cc09ba015" y="173.427841"/>
     <use style="fill:#0000ff;stroke:#0000ff;" x="236.538988" xlink:href="#m4cc09ba015" y="172.514734"/>
     <use style="fill:#0000ff;stroke:#0000ff;" x="236.559499" xlink:href="#m4cc09ba015" y="173.311613"/>
     <use style="fill:#0000ff;stroke:#0000ff;" x="236.680654" xlink:href="#m4cc09ba015" y="172.571692"/>
     <use style="fill:#0000ff;stroke:#0000ff;" x="240.397549" xlink:href="#m4cc09ba015" y="174.528"/>
     <use style="fill:#0000ff;stroke:#0000ff;" x="239.50003" xlink:href="#m4cc09ba015" y="173.544145"/>
     <use style="fill:#0000ff;stroke:#0000ff;" x="240.577252" xlink:href="#m4cc09ba015" y="174.528"/>
     <use style="fill:#0000ff;stroke:#0000ff;" x="240.367646" xlink:href="#m4cc09ba015" y="174.528"/>
     <use style="fill:#0000ff;stroke:#0000ff;" x="240.446936" xlink:href="#m4cc09ba015" y="171.799236"/>
     <use style="fill:#0000ff;stroke:#0000ff;" x="239.677904" xlink:href="#m4cc09ba015" y="174.310363"/>
     <use style="fill:#0000ff;stroke:#0000ff;" x="236.941752" xlink:href="#m4cc09ba015" y="174.290565"/>
     <use style="fill:#0000ff;stroke:#0000ff;" x="240.076231" xlink:href="#m4cc09ba015" y="173.831328"/>
     <use style="fill:#0000ff;stroke:#0000ff;" x="236.834686" xlink:href="#m4cc09ba015" y="173.428375"/>
     <use style="fill:#0000ff;stroke:#0000ff;" x="236.26295" xlink:href="#m4cc09ba015" y="173.901183"/>
     <use style="fill:#0000ff;stroke:#0000ff;" x="237.103937" xlink:href="#m4cc09ba015" y="172.752219"/>
     <use style="fill:#0000ff;stroke:#0000ff;" x="236.16" xlink:href="#m4cc09ba015" y="170.529645"/>
     <use style="fill:#0000ff;stroke:#0000ff;" x="236.486239" xlink:href="#m4cc09ba015" y="174.438732"/>
     <use style="fill:#0000ff;stroke:#0000ff;" x="243.987113" xlink:href="#m4cc09ba015" y="172.233737"/>
     <use style="fill:#0000ff;stroke:#0000ff;" x="244.096295" xlink:href="#m4cc09ba015" y="173.738543"/>
     <use style="fill:#0000ff;stroke:#0000ff;" x="244.309493" xlink:href="#m4cc09ba015" y="170.841242"/>
     <use style="fill:#0000ff;stroke:#0000ff;" x="239.14656" xlink:href="#m4cc09ba015" y="173.756048"/>
     <use style="fill:#0000ff;stroke:#0000ff;" x="247.906039" xlink:href="#m4cc09ba015" y="167.669157"/>
    </g>
   </g>
   <g id="matplotlib.axis_1">
    <g id="xtick_1">
     <g id="line2d_1">
      <defs>
       <path d="M 0 0 
L 0 3.5 
" id="m2f5952e214" style="stroke:#000000;stroke-width:0.8;"/>
      </defs>
      <g>
       <use style="stroke:#000000;stroke-width:0.8;" x="57.6" xlink:href="#m2f5952e214" y="307.584"/>
      </g>
     </g>
     <g id="text_1">
      <!-- −10.0 -->
      <defs>
       <path d="M 10.59375 35.5 
L 73.1875 35.5 
L 73.1875 27.203125 
L 10.59375 27.203125 
z
" id="DejaVuSans-2212"/>
       <path d="M 12.40625 8.296875 
L 28.515625 8.296875 
L 28.515625 63.921875 
L 10.984375 60.40625 
L 10.984375 69.390625 
L 28.421875 72.90625 
L 38.28125 72.90625 
L 38.28125 8.296875 
L 54.390625 8.296875 
L 54.390625 0 
L 12.40625 0 
z
" id="DejaVuSans-31"/>
       <path d="M 31.78125 66.40625 
Q 24.171875 66.40625 20.328125 58.90625 
Q 16.5 51.421875 16.5 36.375 
Q 16.5 21.390625 20.328125 13.890625 
Q 24.171875 6.390625 31.78125 6.390625 
Q 39.453125 6.390625 43.28125 13.890625 
Q 47.125 21.390625 47.125 36.375 
Q 47.125 51.421875 43.28125 58.90625 
Q 39.453125 66.40625 31.78125 66.40625 
z
M 31.78125 74.21875 
Q 44.046875 74.21875 50.515625 64.515625 
Q 56.984375 54.828125 56.984375 36.375 
Q 56.984375 17.96875 50.515625 8.265625 
Q 44.046875 -1.421875 31.78125 -1.421875 
Q 19.53125 -1.421875 13.0625 8.265625 
Q 6.59375 17.96875 6.59375 36.375 
Q 6.59375 54.828125 13.0625 64.515625 
Q 19.53125 74.21875 31.78125 74.21875 
z
" id="DejaVuSans-30"/>
       <path d="M 10.6875 12.40625 
L 21 12.40625 
L 21 0 
L 10.6875 0 
z
" id="DejaVuSans-2e"/>
      </defs>
      <g transform="translate(42.277344 322.182437)scale(0.1 -0.1)">
       <use xlink:href="#DejaVuSans-2212"/>
       <use x="83.789062" xlink:href="#DejaVuSans-31"/>
       <use x="147.412109" xlink:href="#DejaVuSans-30"/>
       <use x="211.035156" xlink:href="#DejaVuSans-2e"/>
       <use x="242.822266" xlink:href="#DejaVuSans-30"/>
      </g>
     </g>
    </g>
    <g id="xtick_2">
     <g id="line2d_2">
      <g>
       <use style="stroke:#000000;stroke-width:0.8;" x="102.24" xlink:href="#m2f5952e214" y="307.584"/>
      </g>
     </g>
     <g id="text_2">
      <!-- −7.5 -->
      <defs>
       <path d="M 8.203125 72.90625 
L 55.078125 72.90625 
L 55.078125 68.703125 
L 28.609375 0 
L 18.3125 0 
L 43.21875 64.59375 
L 8.203125 64.59375 
z
" id="DejaVuSans-37"/>
       <path d="M 10.796875 72.90625 
L 49.515625 72.90625 
L 49.515625 64.59375 
L 19.828125 64.59375 
L 19.828125 46.734375 
Q 21.96875 47.46875 24.109375 47.828125 
Q 26.265625 48.1875 28.421875 48.1875 
Q 40.625 48.1875 47.75 41.5 
Q 54.890625 34.8125 54.890625 23.390625 
Q 54.890625 11.625 47.5625 5.09375 
Q 40.234375 -1.421875 26.90625 -1.421875 
Q 22.3125 -1.421875 17.546875 -0.640625 
Q 12.796875 0.140625 7.71875 1.703125 
L 7.71875 11.625 
Q 12.109375 9.234375 16.796875 8.0625 
Q 21.484375 6.890625 26.703125 6.890625 
Q 35.15625 6.890625 40.078125 11.328125 
Q 45.015625 15.765625 45.015625 23.390625 
Q 45.015625 31 40.078125 35.4375 
Q 35.15625 39.890625 26.703125 39.890625 
Q 22.75 39.890625 18.8125 39.015625 
Q 14.890625 38.140625 10.796875 36.28125 
z
" id="DejaVuSans-35"/>
      </defs>
      <g transform="translate(90.098594 322.182437)scale(0.1 -0.1)">
       <use xlink:href="#DejaVuSans-2212"/>
       <use x="83.789062" xlink:href="#DejaVuSans-37"/>
       <use x="147.412109" xlink:href="#DejaVuSans-2e"/>
       <use x="179.199219" xlink:href="#DejaVuSans-35"/>
      </g>
     </g>
    </g>
    <g id="xtick_3">
     <g id="line2d_3">
      <g>
       <use style="stroke:#000000;stroke-width:0.8;" x="146.88" xlink:href="#m2f5952e214" y="307.584"/>
      </g>
     </g>
     <g id="text_3">
      <!-- −5.0 -->
      <g transform="translate(134.738594 322.182437)scale(0.1 -0.1)">
       <use xlink:href="#DejaVuSans-2212"/>
       <use x="83.789062" xlink:href="#DejaVuSans-35"/>
       <use x="147.412109" xlink:href="#DejaVuSans-2e"/>
       <use x="179.199219" xlink:href="#DejaVuSans-30"/>
      </g>
     </g>
    </g>
    <g id="xtick_4">
     <g id="line2d_4">
      <g>
       <use style="stroke:#000000;stroke-width:0.8;" x="191.52" xlink:href="#m2f5952e214" y="307.584"/>
      </g>
     </g>
     <g id="text_4">
      <!-- −2.5 -->
      <defs>
       <path d="M 19.1875 8.296875 
L 53.609375 8.296875 
L 53.609375 0 
L 7.328125 0 
L 7.328125 8.296875 
Q 12.9375 14.109375 22.625 23.890625 
Q 32.328125 33.6875 34.8125 36.53125 
Q 39.546875 41.84375 41.421875 45.53125 
Q 43.3125 49.21875 43.3125 52.78125 
Q 43.3125 58.59375 39.234375 62.25 
Q 35.15625 65.921875 28.609375 65.921875 
Q 23.96875 65.921875 18.8125 64.3125 
Q 13.671875 62.703125 7.8125 59.421875 
L 7.8125 69.390625 
Q 13.765625 71.78125 18.9375 73 
Q 24.125 74.21875 28.421875 74.21875 
Q 39.75 74.21875 46.484375 68.546875 
Q 53.21875 62.890625 53.21875 53.421875 
Q 53.21875 48.921875 51.53125 44.890625 
Q 49.859375 40.875 45.40625 35.40625 
Q 44.1875 33.984375 37.640625 27.21875 
Q 31.109375 20.453125 19.1875 8.296875 
z
" id="DejaVuSans-32"/>
      </defs>
      <g transform="translate(179.378594 322.182437)scale(0.1 -0.1)">
       <use xlink:href="#DejaVuSans-2212"/>
       <use x="83.789062" xlink:href="#DejaVuSans-32"/>
       <use x="147.412109" xlink:href="#DejaVuSans-2e"/>
       <use x="179.199219" xlink:href="#DejaVuSans-35"/>
      </g>
     </g>
    </g>
    <g id="xtick_5">
     <g id="line2d_5">
      <g>
       <use style="stroke:#000000;stroke-width:0.8;" x="236.16" xlink:href="#m2f5952e214" y="307.584"/>
      </g>
     </g>
     <g id="text_5">
      <!-- 0.0 -->
      <g transform="translate(228.208438 322.182437)scale(0.1 -0.1)">
       <use xlink:href="#DejaVuSans-30"/>
       <use x="63.623047" xlink:href="#DejaVuSans-2e"/>
       <use x="95.410156" xlink:href="#DejaVuSans-30"/>
      </g>
     </g>
    </g>
    <g id="xtick_6">
     <g id="line2d_6">
      <g>
       <use style="stroke:#000000;stroke-width:0.8;" x="280.8" xlink:href="#m2f5952e214" y="307.584"/>
      </g>
     </g>
     <g id="text_6">
      <!-- 2.5 -->
      <g transform="translate(272.848437 322.182437)scale(0.1 -0.1)">
       <use xlink:href="#DejaVuSans-32"/>
       <use x="63.623047" xlink:href="#DejaVuSans-2e"/>
       <use x="95.410156" xlink:href="#DejaVuSans-35"/>
      </g>
     </g>
    </g>
    <g id="xtick_7">
     <g id="line2d_7">
      <g>
       <use style="stroke:#000000;stroke-width:0.8;" x="325.44" xlink:href="#m2f5952e214" y="307.584"/>
      </g>
     </g>
     <g id="text_7">
      <!-- 5.0 -->
      <g transform="translate(317.488437 322.182437)scale(0.1 -0.1)">
       <use xlink:href="#DejaVuSans-35"/>
       <use x="63.623047" xlink:href="#DejaVuSans-2e"/>
       <use x="95.410156" xlink:href="#DejaVuSans-30"/>
      </g>
     </g>
    </g>
    <g id="xtick_8">
     <g id="line2d_8">
      <g>
       <use style="stroke:#000000;stroke-width:0.8;" x="370.08" xlink:href="#m2f5952e214" y="307.584"/>
      </g>
     </g>
     <g id="text_8">
      <!-- 7.5 -->
      <g transform="translate(362.128438 322.182437)scale(0.1 -0.1)">
       <use xlink:href="#DejaVuSans-37"/>
       <use x="63.623047" xlink:href="#DejaVuSans-2e"/>
       <use x="95.410156" xlink:href="#DejaVuSans-35"/>
      </g>
     </g>
    </g>
    <g id="xtick_9">
     <g id="line2d_9">
      <g>
       <use style="stroke:#000000;stroke-width:0.8;" x="414.72" xlink:href="#m2f5952e214" y="307.584"/>
      </g>
     </g>
     <g id="text_9">
      <!-- 10.0 -->
      <g transform="translate(403.587188 322.182437)scale(0.1 -0.1)">
       <use xlink:href="#DejaVuSans-31"/>
       <use x="63.623047" xlink:href="#DejaVuSans-30"/>
       <use x="127.246094" xlink:href="#DejaVuSans-2e"/>
       <use x="159.033203" xlink:href="#DejaVuSans-30"/>
      </g>
     </g>
    </g>
   </g>
   <g id="matplotlib.axis_2">
    <g id="ytick_1">
     <g id="line2d_10">
      <defs>
       <path d="M 0 0 
L -3.5 0 
" id="md2d4348b69" style="stroke:#000000;stroke-width:0.8;"/>
      </defs>
      <g>
       <use style="stroke:#000000;stroke-width:0.8;" x="57.6" xlink:href="#md2d4348b69" y="307.584"/>
      </g>
     </g>
     <g id="text_10">
      <!-- −10.0 -->
      <g transform="translate(19.954687 311.383219)scale(0.1 -0.1)">
       <use xlink:href="#DejaVuSans-2212"/>
       <use x="83.789062" xlink:href="#DejaVuSans-31"/>
       <use x="147.412109" xlink:href="#DejaVuSans-30"/>
       <use x="211.035156" xlink:href="#DejaVuSans-2e"/>
       <use x="242.822266" xlink:href="#DejaVuSans-30"/>
      </g>
     </g>
    </g>
    <g id="ytick_2">
     <g id="line2d_11">
      <g>
       <use style="stroke:#000000;stroke-width:0.8;" x="57.6" xlink:href="#md2d4348b69" y="274.32"/>
      </g>
     </g>
     <g id="text_11">
      <!-- −7.5 -->
      <g transform="translate(26.317187 278.119219)scale(0.1 -0.1)">
       <use xlink:href="#DejaVuSans-2212"/>
       <use x="83.789062" xlink:href="#DejaVuSans-37"/>
       <use x="147.412109" xlink:href="#DejaVuSans-2e"/>
       <use x="179.199219" xlink:href="#DejaVuSans-35"/>
      </g>
     </g>
    </g>
    <g id="ytick_3">
     <g id="line2d_12">
      <g>
       <use style="stroke:#000000;stroke-width:0.8;" x="57.6" xlink:href="#md2d4348b69" y="241.056"/>
      </g>
     </g>
     <g id="text_12">
      <!-- −5.0 -->
      <g transform="translate(26.317187 244.855219)scale(0.1 -0.1)">
       <use xlink:href="#DejaVuSans-2212"/>
       <use x="83.789062" xlink:href="#DejaVuSans-35"/>
       <use x="147.412109" xlink:href="#DejaVuSans-2e"/>
       <use x="179.199219" xlink:href="#DejaVuSans-30"/>
      </g>
     </g>
    </g>
    <g id="ytick_4">
     <g id="line2d_13">
      <g>
       <use style="stroke:#000000;stroke-width:0.8;" x="57.6" xlink:href="#md2d4348b69" y="207.792"/>
      </g>
     </g>
     <g id="text_13">
      <!-- −2.5 -->
      <g transform="translate(26.317187 211.591219)scale(0.1 -0.1)">
       <use xlink:href="#DejaVuSans-2212"/>
       <use x="83.789062" xlink:href="#DejaVuSans-32"/>
       <use x="147.412109" xlink:href="#DejaVuSans-2e"/>
       <use x="179.199219" xlink:href="#DejaVuSans-35"/>
      </g>
     </g>
    </g>
    <g id="ytick_5">
     <g id="line2d_14">
      <g>
       <use style="stroke:#000000;stroke-width:0.8;" x="57.6" xlink:href="#md2d4348b69" y="174.528"/>
      </g>
     </g>
     <g id="text_14">
      <!-- 0.0 -->
      <g transform="translate(34.696875 178.327219)scale(0.1 -0.1)">
       <use xlink:href="#DejaVuSans-30"/>
       <use x="63.623047" xlink:href="#DejaVuSans-2e"/>
       <use x="95.410156" xlink:href="#DejaVuSans-30"/>
      </g>
     </g>
    </g>
    <g id="ytick_6">
     <g id="line2d_15">
      <g>
       <use style="stroke:#000000;stroke-width:0.8;" x="57.6" xlink:href="#md2d4348b69" y="141.264"/>
      </g>
     </g>
     <g id="text_15">
      <!-- 2.5 -->
      <g transform="translate(34.696875 145.063219)scale(0.1 -0.1)">
       <use xlink:href="#DejaVuSans-32"/>
       <use x="63.623047" xlink:href="#DejaVuSans-2e"/>
       <use x="95.410156" xlink:href="#DejaVuSans-35"/>
      </g>
     </g>
    </g>
    <g id="ytick_7">
     <g id="line2d_16">
      <g>
       <use style="stroke:#000000;stroke-width:0.8;" x="57.6" xlink:href="#md2d4348b69" y="108"/>
      </g>
     </g>
     <g id="text_16">
      <!-- 5.0 -->
      <g transform="translate(34.696875 111.799219)scale(0.1 -0.1)">
       <use xlink:href="#DejaVuSans-35"/>
       <use x="63.623047" xlink:href="#DejaVuSans-2e"/>
       <use x="95.410156" xlink:href="#DejaVuSans-30"/>
      </g>
     </g>
    </g>
    <g id="ytick_8">
     <g id="line2d_17">
      <g>
       <use style="stroke:#000000;stroke-width:0.8;" x="57.6" xlink:href="#md2d4348b69" y="74.736"/>
      </g>
     </g>
     <g id="text_17">
      <!-- 7.5 -->
      <g transform="translate(34.696875 78.535219)scale(0.1 -0.1)">
       <use xlink:href="#DejaVuSans-37"/>
       <use x="63.623047" xlink:href="#DejaVuSans-2e"/>
       <use x="95.410156" xlink:href="#DejaVuSans-35"/>
      </g>
     </g>
    </g>
    <g id="ytick_9">
     <g id="line2d_18">
      <g>
       <use style="stroke:#000000;stroke-width:0.8;" x="57.6" xlink:href="#md2d4348b69" y="41.472"/>
      </g>
     </g>
     <g id="text_18">
      <!-- 10.0 -->
      <g transform="translate(28.334375 45.271219)scale(0.1 -0.1)">
       <use xlink:href="#DejaVuSans-31"/>
       <use x="63.623047" xlink:href="#DejaVuSans-30"/>
       <use x="127.246094" xlink:href="#DejaVuSans-2e"/>
       <use x="159.033203" xlink:href="#DejaVuSans-30"/>
      </g>
     </g>
    </g>
   </g>
   <g id="patch_3">
    <path d="M 57.6 307.584 
L 57.6 41.472 
" style="fill:none;stroke:#000000;stroke-linecap:square;stroke-linejoin:miter;stroke-width:0.8;"/>
   </g>
   <g id="patch_4">
    <path d="M 414.72 307.584 
L 414.72 41.472 
" style="fill:none;stroke:#000000;stroke-linecap:square;stroke-linejoin:miter;stroke-width:0.8;"/>
   </g>
   <g id="patch_5">
    <path d="M 57.6 307.584 
L 414.72 307.584 
" style="fill:none;stroke:#000000;stroke-linecap:square;stroke-linejoin:miter;stroke-width:0.8;"/>
   </g>
   <g id="patch_6">
    <path d="M 57.6 41.472 
L 414.72 41.472 
" style="fill:none;stroke:#000000;stroke-linecap:square;stroke-linejoin:miter;stroke-width:0.8;"/>
   </g>
  </g>
 </g>
 <defs>
  <clipPath id="p0c9b3deaa6">
   <rect height="266.112" width="357.12" x="57.6" y="41.472"/>
  </clipPath>
 </defs>
</svg>
