<?xml version="1.0" encoding="utf-8" standalone="no"?>
<!DOCTYPE svg PUBLIC "-//W3C//DTD SVG 1.1//EN"
  "http://www.w3.org/Graphics/SVG/1.1/DTD/svg11.dtd">
<!-- Created with matplotlib (http://matplotlib.org/) -->
<svg height="345.6pt" version="1.1" viewBox="0 0 460.8 345.6" width="460.8pt" xmlns="http://www.w3.org/2000/svg" xmlns:xlink="http://www.w3.org/1999/xlink">
 <defs>
  <style type="text/css">
*{stroke-linecap:butt;stroke-linejoin:round;}
  </style>
 </defs>
 <g id="figure_1">
  <g id="patch_1">
   <path d="M 0 345.6 
L 460.8 345.6 
L 460.8 0 
L 0 0 
z
" style="fill:#ffffff;"/>
  </g>
  <g id="axes_1">
   <g id="patch_2">
    <path d="M 57.6 307.584 
L 414.72 307.584 
L 414.72 41.472 
L 57.6 41.472 
z
" style="fill:#ffffff;"/>
   </g>
   <g id="PathCollection_1">
    <defs>
     <path d="M 0 0.612372 
C 0.162403 0.612372 0.318176 0.547849 0.433013 0.433013 
C 0.547849 0.318176 0.612372 0.162403 0.612372 0 
C 0.612372 -0.162403 0.547849 -0.318176 0.433013 -0.433013 
C 0.318176 -0.547849 0.162403 -0.612372 0 -0.612372 
C -0.162403 -0.612372 -0.318176 -0.547849 -0.433013 -0.433013 
C -0.547849 -0.318176 -0.612372 -0.162403 -0.612372 0 
C -0.612372 0.162403 -0.547849 0.318176 -0.433013 0.433013 
C -0.318176 0.547849 -0.162403 0.612372 0 0.612372 
z
" id="mab17c95ae3" style="stroke:#000000;"/>
    </defs>
    <g clip-path="url(#p43d6d34aa6)">
     <use style="stroke:#000000;" x="241.578144" xlink:href="#mab17c95ae3" y="174.528"/>
     <use style="stroke:#000000;" x="236.16" xlink:href="#mab17c95ae3" y="134.6112"/>
     <use style="stroke:#000000;" x="325.44" xlink:href="#mab17c95ae3" y="142.468331"/>
     <use style="stroke:#000000;" x="249.892558" xlink:href="#mab17c95ae3" y="174.528"/>
     <use style="stroke:#000000;" x="236.16" xlink:href="#mab17c95ae3" y="143.334051"/>
     <use style="stroke:#000000;" x="325.44" xlink:href="#mab17c95ae3" y="139.273754"/>
     <use style="stroke:#000000;" x="276.928275" xlink:href="#mab17c95ae3" y="174.528"/>
     <use style="stroke:#000000;" x="236.16" xlink:href="#mab17c95ae3" y="145.57558"/>
     <use style="stroke:#000000;" x="236.16" xlink:href="#mab17c95ae3" y="162.00496"/>
     <use style="stroke:#000000;" x="325.44" xlink:href="#mab17c95ae3" y="137.333044"/>
     <use style="stroke:#000000;" x="244.061038" xlink:href="#mab17c95ae3" y="174.528"/>
     <use style="stroke:#000000;" x="236.16" xlink:href="#mab17c95ae3" y="163.545375"/>
     <use style="stroke:#000000;" x="236.16" xlink:href="#mab17c95ae3" y="136.436626"/>
     <use style="stroke:#000000;" x="315.516792" xlink:href="#mab17c95ae3" y="174.528"/>
     <use style="stroke:#000000;" x="236.16" xlink:href="#mab17c95ae3" y="148.138036"/>
     <use style="stroke:#000000;" x="273.306726" xlink:href="#mab17c95ae3" y="174.528"/>
     <use style="stroke:#000000;" x="245.442316" xlink:href="#mab17c95ae3" y="174.528"/>
     <use style="stroke:#000000;" x="236.16" xlink:href="#mab17c95ae3" y="134.6112"/>
     <use style="stroke:#000000;" x="236.16" xlink:href="#mab17c95ae3" y="159.526667"/>
     <use style="stroke:#000000;" x="236.16" xlink:href="#mab17c95ae3" y="134.6112"/>
     <use style="stroke:#000000;" x="236.16" xlink:href="#mab17c95ae3" y="172.561163"/>
     <use style="stroke:#000000;" x="236.16" xlink:href="#mab17c95ae3" y="174.528"/>
     <use style="stroke:#000000;" x="236.16" xlink:href="#mab17c95ae3" y="141.058225"/>
     <use style="stroke:#000000;" x="325.44" xlink:href="#mab17c95ae3" y="142.175733"/>
     <use style="stroke:#000000;" x="255.019646" xlink:href="#mab17c95ae3" y="174.528"/>
     <use style="stroke:#000000;" x="236.16" xlink:href="#mab17c95ae3" y="134.6112"/>
     <use style="stroke:#000000;" x="236.16" xlink:href="#mab17c95ae3" y="174.528"/>
     <use style="stroke:#000000;" x="236.16" xlink:href="#mab17c95ae3" y="147.806594"/>
     <use style="stroke:#000000;" x="240.106143" xlink:href="#mab17c95ae3" y="174.528"/>
     <use style="stroke:#000000;" x="236.16" xlink:href="#mab17c95ae3" y="163.723797"/>
     <use style="stroke:#000000;" x="236.16" xlink:href="#mab17c95ae3" y="145.034124"/>
     <use style="stroke:#000000;" x="236.16" xlink:href="#mab17c95ae3" y="170.072867"/>
     <use style="stroke:#000000;" x="236.16" xlink:href="#mab17c95ae3" y="150.313401"/>
     <use style="stroke:#000000;" x="236.16" xlink:href="#mab17c95ae3" y="147.955218"/>
     <use style="stroke:#000000;" x="237.132315" xlink:href="#mab17c95ae3" y="174.528"/>
     <use style="stroke:#000000;" x="293.369187" xlink:href="#mab17c95ae3" y="174.528"/>
     <use style="stroke:#000000;" x="236.16" xlink:href="#mab17c95ae3" y="135.992017"/>
     <use style="stroke:#000000;" x="239.33171" xlink:href="#mab17c95ae3" y="174.528"/>
     <use style="stroke:#000000;" x="325.44" xlink:href="#mab17c95ae3" y="138.957388"/>
     <use style="stroke:#000000;" x="236.16" xlink:href="#mab17c95ae3" y="146.671974"/>
     <use style="stroke:#000000;" x="324.091489" xlink:href="#mab17c95ae3" y="174.528"/>
     <use style="stroke:#000000;" x="325.44" xlink:href="#mab17c95ae3" y="135.270757"/>
     <use style="stroke:#000000;" x="236.16" xlink:href="#mab17c95ae3" y="151.299129"/>
     <use style="stroke:#000000;" x="236.16" xlink:href="#mab17c95ae3" y="165.866127"/>
     <use style="stroke:#000000;" x="236.16" xlink:href="#mab17c95ae3" y="164.104677"/>
     <use style="stroke:#000000;" x="236.16" xlink:href="#mab17c95ae3" y="174.316099"/>
     <use style="stroke:#000000;" x="252.958643" xlink:href="#mab17c95ae3" y="174.528"/>
     <use style="stroke:#000000;" x="247.147914" xlink:href="#mab17c95ae3" y="174.528"/>
     <use style="stroke:#000000;" x="325.44" xlink:href="#mab17c95ae3" y="136.14802"/>
     <use style="stroke:#000000;" x="325.44" xlink:href="#mab17c95ae3" y="140.736768"/>
     <use style="stroke:#000000;" x="236.16" xlink:href="#mab17c95ae3" y="158.932175"/>
     <use style="stroke:#000000;" x="325.44" xlink:href="#mab17c95ae3" y="137.190685"/>
     <use style="stroke:#000000;" x="236.16" xlink:href="#mab17c95ae3" y="139.103887"/>
     <use style="stroke:#000000;" x="236.16" xlink:href="#mab17c95ae3" y="172.396542"/>
     <use style="stroke:#000000;" x="236.16" xlink:href="#mab17c95ae3" y="138.314464"/>
     <use style="stroke:#000000;" x="236.16" xlink:href="#mab17c95ae3" y="154.853823"/>
     <use style="stroke:#000000;" x="325.44" xlink:href="#mab17c95ae3" y="165.283288"/>
     <use style="stroke:#000000;" x="238.410176" xlink:href="#mab17c95ae3" y="174.528"/>
     <use style="stroke:#000000;" x="325.44" xlink:href="#mab17c95ae3" y="172.825778"/>
     <use style="stroke:#000000;" x="236.16" xlink:href="#mab17c95ae3" y="141.621915"/>
     <use style="stroke:#000000;" x="236.16" xlink:href="#mab17c95ae3" y="174.528"/>
     <use style="stroke:#000000;" x="236.16" xlink:href="#mab17c95ae3" y="141.442234"/>
     <use style="stroke:#000000;" x="236.16" xlink:href="#mab17c95ae3" y="134.6112"/>
     <use style="stroke:#000000;" x="239.195443" xlink:href="#mab17c95ae3" y="174.528"/>
     <use style="stroke:#000000;" x="236.16" xlink:href="#mab17c95ae3" y="138.225446"/>
     <use style="stroke:#000000;" x="236.16" xlink:href="#mab17c95ae3" y="134.6112"/>
     <use style="stroke:#000000;" x="236.16" xlink:href="#mab17c95ae3" y="150.935124"/>
     <use style="stroke:#000000;" x="325.44" xlink:href="#mab17c95ae3" y="174.528"/>
     <use style="stroke:#000000;" x="254.877265" xlink:href="#mab17c95ae3" y="174.528"/>
     <use style="stroke:#000000;" x="325.44" xlink:href="#mab17c95ae3" y="143.682145"/>
     <use style="stroke:#000000;" x="325.44" xlink:href="#mab17c95ae3" y="143.998845"/>
     <use style="stroke:#000000;" x="236.16" xlink:href="#mab17c95ae3" y="171.978037"/>
     <use style="stroke:#000000;" x="236.16" xlink:href="#mab17c95ae3" y="142.435865"/>
     <use style="stroke:#000000;" x="238.479745" xlink:href="#mab17c95ae3" y="174.528"/>
     <use style="stroke:#000000;" x="236.16" xlink:href="#mab17c95ae3" y="143.975966"/>
     <use style="stroke:#000000;" x="236.16" xlink:href="#mab17c95ae3" y="134.6112"/>
     <use style="stroke:#000000;" x="236.16" xlink:href="#mab17c95ae3" y="145.892195"/>
     <use style="stroke:#000000;" x="325.44" xlink:href="#mab17c95ae3" y="174.528"/>
     <use style="stroke:#000000;" x="325.44" xlink:href="#mab17c95ae3" y="174.121369"/>
     <use style="stroke:#000000;" x="245.47372" xlink:href="#mab17c95ae3" y="174.528"/>
     <use style="stroke:#000000;" x="259.374959" xlink:href="#mab17c95ae3" y="172.250055"/>
     <use style="stroke:#000000;" x="242.48218" xlink:href="#mab17c95ae3" y="137.676033"/>
     <use style="stroke:#000000;" x="238.674363" xlink:href="#mab17c95ae3" y="134.6112"/>
     <use style="stroke:#000000;" x="239.765513" xlink:href="#mab17c95ae3" y="135.621183"/>
     <use style="stroke:#000000;" x="236.16" xlink:href="#mab17c95ae3" y="136.179251"/>
     <use style="stroke:#000000;" x="325.44" xlink:href="#mab17c95ae3" y="138.304547"/>
     <use style="stroke:#000000;" x="325.44" xlink:href="#mab17c95ae3" y="142.499729"/>
     <use style="stroke:#000000;" x="325.44" xlink:href="#mab17c95ae3" y="144.55688"/>
     <use style="stroke:#000000;" x="244.179308" xlink:href="#mab17c95ae3" y="174.528"/>
     <use style="stroke:#000000;" x="247.284533" xlink:href="#mab17c95ae3" y="172.309324"/>
     <use style="stroke:#000000;" x="249.828699" xlink:href="#mab17c95ae3" y="171.168323"/>
     <use style="stroke:#000000;" x="239.534489" xlink:href="#mab17c95ae3" y="143.676066"/>
     <use style="stroke:#000000;" x="240.852563" xlink:href="#mab17c95ae3" y="143.926127"/>
     <use style="stroke:#000000;" x="236.16" xlink:href="#mab17c95ae3" y="145.517341"/>
     <use style="stroke:#000000;" x="325.44" xlink:href="#mab17c95ae3" y="137.722646"/>
     <use style="stroke:#000000;" x="325.44" xlink:href="#mab17c95ae3" y="140.179581"/>
     <use style="stroke:#000000;" x="322.503946" xlink:href="#mab17c95ae3" y="140.841059"/>
     <use style="stroke:#000000;" x="276.904377" xlink:href="#mab17c95ae3" y="174.528"/>
     <use style="stroke:#000000;" x="277.521271" xlink:href="#mab17c95ae3" y="174.528"/>
     <use style="stroke:#000000;" x="275.067723" xlink:href="#mab17c95ae3" y="174.528"/>
     <use style="stroke:#000000;" x="236.16" xlink:href="#mab17c95ae3" y="148.962147"/>
     <use style="stroke:#000000;" x="237.410803" xlink:href="#mab17c95ae3" y="146.299169"/>
     <use style="stroke:#000000;" x="244.925451" xlink:href="#mab17c95ae3" y="144.832783"/>
     <use style="stroke:#000000;" x="236.16" xlink:href="#mab17c95ae3" y="161.179485"/>
     <use style="stroke:#000000;" x="236.16" xlink:href="#mab17c95ae3" y="163.124163"/>
     <use style="stroke:#000000;" x="242.503609" xlink:href="#mab17c95ae3" y="162.873895"/>
     <use style="stroke:#000000;" x="325.44" xlink:href="#mab17c95ae3" y="136.120375"/>
     <use style="stroke:#000000;" x="320.192226" xlink:href="#mab17c95ae3" y="136.866456"/>
     <use style="stroke:#000000;" x="325.44" xlink:href="#mab17c95ae3" y="140.303417"/>
     <use style="stroke:#000000;" x="237.749056" xlink:href="#mab17c95ae3" y="174.528"/>
     <use style="stroke:#000000;" x="241.932327" xlink:href="#mab17c95ae3" y="174.528"/>
     <use style="stroke:#000000;" x="240.438168" xlink:href="#mab17c95ae3" y="174.528"/>
     <use style="stroke:#000000;" x="236.16" xlink:href="#mab17c95ae3" y="162.934271"/>
     <use style="stroke:#000000;" x="236.16" xlink:href="#mab17c95ae3" y="163.425765"/>
     <use style="stroke:#000000;" x="236.16" xlink:href="#mab17c95ae3" y="163.709596"/>
     <use style="stroke:#000000;" x="237.703228" xlink:href="#mab17c95ae3" y="137.064541"/>
     <use style="stroke:#000000;" x="238.839738" xlink:href="#mab17c95ae3" y="134.977573"/>
     <use style="stroke:#000000;" x="242.060868" xlink:href="#mab17c95ae3" y="134.6112"/>
     <use style="stroke:#000000;" x="313.193486" xlink:href="#mab17c95ae3" y="174.528"/>
     <use style="stroke:#000000;" x="306.901943" xlink:href="#mab17c95ae3" y="174.528"/>
     <use style="stroke:#000000;" x="317.393033" xlink:href="#mab17c95ae3" y="174.528"/>
     <use style="stroke:#000000;" x="238.832105" xlink:href="#mab17c95ae3" y="148.926892"/>
     <use style="stroke:#000000;" x="237.871789" xlink:href="#mab17c95ae3" y="146.117379"/>
     <use style="stroke:#000000;" x="236.16" xlink:href="#mab17c95ae3" y="147.388815"/>
     <use style="stroke:#000000;" x="275.206262" xlink:href="#mab17c95ae3" y="174.528"/>
     <use style="stroke:#000000;" x="265.786232" xlink:href="#mab17c95ae3" y="174.528"/>
     <use style="stroke:#000000;" x="270.131642" xlink:href="#mab17c95ae3" y="174.528"/>
     <use style="stroke:#000000;" x="243.685655" xlink:href="#mab17c95ae3" y="174.528"/>
     <use style="stroke:#000000;" x="247.484778" xlink:href="#mab17c95ae3" y="174.528"/>
     <use style="stroke:#000000;" x="240.95056" xlink:href="#mab17c95ae3" y="170.672281"/>
     <use style="stroke:#000000;" x="236.16" xlink:href="#mab17c95ae3" y="134.6112"/>
     <use style="stroke:#000000;" x="236.16" xlink:href="#mab17c95ae3" y="134.6112"/>
     <use style="stroke:#000000;" x="236.16" xlink:href="#mab17c95ae3" y="135.418574"/>
     <use style="stroke:#000000;" x="236.16" xlink:href="#mab17c95ae3" y="157.595594"/>
     <use style="stroke:#000000;" x="236.16" xlink:href="#mab17c95ae3" y="158.717932"/>
     <use style="stroke:#000000;" x="236.342326" xlink:href="#mab17c95ae3" y="159.676208"/>
     <use style="stroke:#000000;" x="238.237428" xlink:href="#mab17c95ae3" y="135.005007"/>
     <use style="stroke:#000000;" x="237.325584" xlink:href="#mab17c95ae3" y="136.872837"/>
     <use style="stroke:#000000;" x="236.16" xlink:href="#mab17c95ae3" y="134.811851"/>
     <use style="stroke:#000000;" x="237.433788" xlink:href="#mab17c95ae3" y="172.48632"/>
     <use style="stroke:#000000;" x="236.16" xlink:href="#mab17c95ae3" y="170.38491"/>
     <use style="stroke:#000000;" x="239.681833" xlink:href="#mab17c95ae3" y="144.296463"/>
     <use style="stroke:#000000;" x="236.16" xlink:href="#mab17c95ae3" y="142.431728"/>
     <use style="stroke:#000000;" x="236.16" xlink:href="#mab17c95ae3" y="137.821488"/>
     <use style="stroke:#000000;" x="324.107817" xlink:href="#mab17c95ae3" y="143.420739"/>
     <use style="stroke:#000000;" x="259.817968" xlink:href="#mab17c95ae3" y="173.450916"/>
     <use style="stroke:#000000;" x="257.583112" xlink:href="#mab17c95ae3" y="174.528"/>
     <use style="stroke:#000000;" x="259.149328" xlink:href="#mab17c95ae3" y="174.528"/>
     <use style="stroke:#000000;" x="236.16" xlink:href="#mab17c95ae3" y="134.6112"/>
     <use style="stroke:#000000;" x="236.16" xlink:href="#mab17c95ae3" y="136.874292"/>
     <use style="stroke:#000000;" x="236.16" xlink:href="#mab17c95ae3" y="134.854411"/>
     <use style="stroke:#000000;" x="236.16" xlink:href="#mab17c95ae3" y="174.528"/>
     <use style="stroke:#000000;" x="236.16" xlink:href="#mab17c95ae3" y="173.261177"/>
     <use style="stroke:#000000;" x="236.16" xlink:href="#mab17c95ae3" y="174.528"/>
     <use style="stroke:#000000;" x="236.16" xlink:href="#mab17c95ae3" y="143.915506"/>
     <use style="stroke:#000000;" x="236.16" xlink:href="#mab17c95ae3" y="174.528"/>
     <use style="stroke:#000000;" x="242.340855" xlink:href="#mab17c95ae3" y="174.528"/>
     <use style="stroke:#000000;" x="236.16" xlink:href="#mab17c95ae3" y="174.528"/>
     <use style="stroke:#000000;" x="236.16" xlink:href="#mab17c95ae3" y="166.659065"/>
     <use style="stroke:#000000;" x="238.300717" xlink:href="#mab17c95ae3" y="143.424963"/>
     <use style="stroke:#000000;" x="236.270703" xlink:href="#mab17c95ae3" y="147.077495"/>
     <use style="stroke:#000000;" x="236.16" xlink:href="#mab17c95ae3" y="145.472958"/>
     <use style="stroke:#000000;" x="241.861117" xlink:href="#mab17c95ae3" y="170.828919"/>
     <use style="stroke:#000000;" x="238.770178" xlink:href="#mab17c95ae3" y="153.382543"/>
     <use style="stroke:#000000;" x="236.16" xlink:href="#mab17c95ae3" y="146.97688"/>
     <use style="stroke:#000000;" x="236.16" xlink:href="#mab17c95ae3" y="147.149386"/>
     <use style="stroke:#000000;" x="236.16" xlink:href="#mab17c95ae3" y="146.94495"/>
     <use style="stroke:#000000;" x="236.16" xlink:href="#mab17c95ae3" y="174.528"/>
     <use style="stroke:#000000;" x="289.624154" xlink:href="#mab17c95ae3" y="174.528"/>
     <use style="stroke:#000000;" x="236.686321" xlink:href="#mab17c95ae3" y="134.744033"/>
     <use style="stroke:#000000;" x="236.16" xlink:href="#mab17c95ae3" y="134.6112"/>
     <use style="stroke:#000000;" x="236.16" xlink:href="#mab17c95ae3" y="134.6112"/>
     <use style="stroke:#000000;" x="236.16" xlink:href="#mab17c95ae3" y="173.378435"/>
     <use style="stroke:#000000;" x="249.343695" xlink:href="#mab17c95ae3" y="173.055921"/>
     <use style="stroke:#000000;" x="325.44" xlink:href="#mab17c95ae3" y="137.367786"/>
     <use style="stroke:#000000;" x="325.03089" xlink:href="#mab17c95ae3" y="140.061439"/>
     <use style="stroke:#000000;" x="238.537493" xlink:href="#mab17c95ae3" y="148.029022"/>
     <use style="stroke:#000000;" x="236.16" xlink:href="#mab17c95ae3" y="146.165862"/>
     <use style="stroke:#000000;" x="324.670562" xlink:href="#mab17c95ae3" y="169.810073"/>
     <use style="stroke:#000000;" x="325.44" xlink:href="#mab17c95ae3" y="134.82751"/>
     <use style="stroke:#000000;" x="325.44" xlink:href="#mab17c95ae3" y="135.571175"/>
     <use style="stroke:#000000;" x="236.16" xlink:href="#mab17c95ae3" y="149.455509"/>
     <use style="stroke:#000000;" x="236.16" xlink:href="#mab17c95ae3" y="151.777523"/>
     <use style="stroke:#000000;" x="240.910737" xlink:href="#mab17c95ae3" y="166.450079"/>
     <use style="stroke:#000000;" x="236.16" xlink:href="#mab17c95ae3" y="166.635341"/>
     <use style="stroke:#000000;" x="236.16" xlink:href="#mab17c95ae3" y="160.023521"/>
     <use style="stroke:#000000;" x="240.845936" xlink:href="#mab17c95ae3" y="172.672648"/>
     <use style="stroke:#000000;" x="242.236993" xlink:href="#mab17c95ae3" y="172.745394"/>
     <use style="stroke:#000000;" x="254.461067" xlink:href="#mab17c95ae3" y="173.029287"/>
     <use style="stroke:#000000;" x="252.115663" xlink:href="#mab17c95ae3" y="173.497613"/>
     <use style="stroke:#000000;" x="248.582865" xlink:href="#mab17c95ae3" y="173.653861"/>
     <use style="stroke:#000000;" x="251.003562" xlink:href="#mab17c95ae3" y="174.528"/>
     <use style="stroke:#000000;" x="322.203586" xlink:href="#mab17c95ae3" y="136.020502"/>
     <use style="stroke:#000000;" x="322.414114" xlink:href="#mab17c95ae3" y="136.873084"/>
     <use style="stroke:#000000;" x="325.44" xlink:href="#mab17c95ae3" y="140.491402"/>
     <use style="stroke:#000000;" x="325.44" xlink:href="#mab17c95ae3" y="138.735195"/>
     <use style="stroke:#000000;" x="240.827078" xlink:href="#mab17c95ae3" y="160.694215"/>
     <use style="stroke:#000000;" x="236.16" xlink:href="#mab17c95ae3" y="158.056006"/>
     <use style="stroke:#000000;" x="323.581306" xlink:href="#mab17c95ae3" y="136.671887"/>
     <use style="stroke:#000000;" x="236.951353" xlink:href="#mab17c95ae3" y="139.302559"/>
     <use style="stroke:#000000;" x="242.910986" xlink:href="#mab17c95ae3" y="169.583397"/>
     <use style="stroke:#000000;" x="236.16" xlink:href="#mab17c95ae3" y="173.695166"/>
     <use style="stroke:#000000;" x="244.145784" xlink:href="#mab17c95ae3" y="138.136098"/>
     <use style="stroke:#000000;" x="236.16" xlink:href="#mab17c95ae3" y="153.922867"/>
     <use style="stroke:#000000;" x="236.16" xlink:href="#mab17c95ae3" y="157.878828"/>
     <use style="stroke:#000000;" x="325.037897" xlink:href="#mab17c95ae3" y="166.841062"/>
     <use style="stroke:#000000;" x="243.694943" xlink:href="#mab17c95ae3" y="174.528"/>
     <use style="stroke:#000000;" x="240.701451" xlink:href="#mab17c95ae3" y="174.528"/>
     <use style="stroke:#000000;" x="325.44" xlink:href="#mab17c95ae3" y="174.13073"/>
     <use style="stroke:#000000;" x="238.897837" xlink:href="#mab17c95ae3" y="144.228388"/>
     <use style="stroke:#000000;" x="239.132049" xlink:href="#mab17c95ae3" y="174.528"/>
     <use style="stroke:#000000;" x="236.16" xlink:href="#mab17c95ae3" y="172.912693"/>
     <use style="stroke:#000000;" x="236.16" xlink:href="#mab17c95ae3" y="141.728873"/>
     <use style="stroke:#000000;" x="236.16" xlink:href="#mab17c95ae3" y="141.421473"/>
     <use style="stroke:#000000;" x="236.16" xlink:href="#mab17c95ae3" y="134.6112"/>
     <use style="stroke:#000000;" x="236.16" xlink:href="#mab17c95ae3" y="138.257308"/>
     <use style="stroke:#000000;" x="236.16" xlink:href="#mab17c95ae3" y="170.461109"/>
     <use style="stroke:#000000;" x="244.078715" xlink:href="#mab17c95ae3" y="173.446385"/>
     <use style="stroke:#000000;" x="236.16" xlink:href="#mab17c95ae3" y="138.109298"/>
     <use style="stroke:#000000;" x="236.16" xlink:href="#mab17c95ae3" y="137.544146"/>
     <use style="stroke:#000000;" x="239.512293" xlink:href="#mab17c95ae3" y="138.044522"/>
     <use style="stroke:#000000;" x="237.750706" xlink:href="#mab17c95ae3" y="134.6112"/>
     <use style="stroke:#000000;" x="244.201822" xlink:href="#mab17c95ae3" y="150.767218"/>
     <use style="stroke:#000000;" x="325.44" xlink:href="#mab17c95ae3" y="173.459803"/>
     <use style="stroke:#000000;" x="323.582975" xlink:href="#mab17c95ae3" y="169.718863"/>
     <use style="stroke:#000000;" x="247.837792" xlink:href="#mab17c95ae3" y="174.528"/>
     <use style="stroke:#000000;" x="251.76988" xlink:href="#mab17c95ae3" y="174.528"/>
     <use style="stroke:#000000;" x="319.96172" xlink:href="#mab17c95ae3" y="140.854053"/>
     <use style="stroke:#000000;" x="325.44" xlink:href="#mab17c95ae3" y="142.703236"/>
     <use style="stroke:#000000;" x="317.663837" xlink:href="#mab17c95ae3" y="142.606973"/>
     <use style="stroke:#000000;" x="325.44" xlink:href="#mab17c95ae3" y="146.514119"/>
     <use style="stroke:#000000;" x="236.16" xlink:href="#mab17c95ae3" y="174.528"/>
     <use style="stroke:#000000;" x="237.68311" xlink:href="#mab17c95ae3" y="170.352953"/>
     <use style="stroke:#000000;" x="240.16501" xlink:href="#mab17c95ae3" y="144.037764"/>
     <use style="stroke:#000000;" x="236.16" xlink:href="#mab17c95ae3" y="174.528"/>
     <use style="stroke:#000000;" x="236.835107" xlink:href="#mab17c95ae3" y="142.754605"/>
     <use style="stroke:#000000;" x="236.608409" xlink:href="#mab17c95ae3" y="138.095206"/>
     <use style="stroke:#000000;" x="236.16" xlink:href="#mab17c95ae3" y="145.813641"/>
     <use style="stroke:#000000;" x="325.44" xlink:href="#mab17c95ae3" y="171.086319"/>
     <use style="stroke:#000000;" x="325.44" xlink:href="#mab17c95ae3" y="174.528"/>
     <use style="stroke:#000000;" x="242.856911" xlink:href="#mab17c95ae3" y="174.528"/>
    </g>
   </g>
   <g id="PathCollection_2">
    <defs>
     <path d="M 0 0.935414 
C 0.248075 0.935414 0.486022 0.836853 0.661438 0.661438 
C 0.836853 0.486022 0.935414 0.248075 0.935414 0 
C 0.935414 -0.248075 0.836853 -0.486022 0.661438 -0.661438 
C 0.486022 -0.836853 0.248075 -0.935414 0 -0.935414 
C -0.248075 -0.935414 -0.486022 -0.836853 -0.661438 -0.661438 
C -0.836853 -0.486022 -0.935414 -0.248075 -0.935414 0 
C -0.935414 0.248075 -0.836853 0.486022 -0.661438 0.661438 
C -0.486022 0.836853 -0.248075 0.935414 0 0.935414 
z
" id="m238eaa802f" style="stroke:#0000ff;"/>
    </defs>
    <g clip-path="url(#p43d6d34aa6)">
     <use style="fill:#0000ff;stroke:#0000ff;" x="241.578144" xlink:href="#m238eaa802f" y="174.528"/>
     <use style="fill:#0000ff;stroke:#0000ff;" x="236.16" xlink:href="#m238eaa802f" y="134.6112"/>
     <use style="fill:#0000ff;stroke:#0000ff;" x="325.44" xlink:href="#m238eaa802f" y="142.468331"/>
     <use style="fill:#0000ff;stroke:#0000ff;" x="249.892558" xlink:href="#m238eaa802f" y="174.528"/>
     <use style="fill:#0000ff;stroke:#0000ff;" x="236.16" xlink:href="#m238eaa802f" y="143.334051"/>
     <use style="fill:#0000ff;stroke:#0000ff;" x="325.44" xlink:href="#m238eaa802f" y="139.273754"/>
     <use style="fill:#0000ff;stroke:#0000ff;" x="276.928275" xlink:href="#m238eaa802f" y="174.528"/>
     <use style="fill:#0000ff;stroke:#0000ff;" x="236.16" xlink:href="#m238eaa802f" y="145.57558"/>
     <use style="fill:#0000ff;stroke:#0000ff;" x="236.16" xlink:href="#m238eaa802f" y="162.00496"/>
     <use style="fill:#0000ff;stroke:#0000ff;" x="325.44" xlink:href="#m238eaa802f" y="137.333044"/>
     <use style="fill:#0000ff;stroke:#0000ff;" x="244.061038" xlink:href="#m238eaa802f" y="174.528"/>
     <use style="fill:#0000ff;stroke:#0000ff;" x="236.16" xlink:href="#m238eaa802f" y="163.545375"/>
     <use style="fill:#0000ff;stroke:#0000ff;" x="236.16" xlink:href="#m238eaa802f" y="136.436626"/>
     <use style="fill:#0000ff;stroke:#0000ff;" x="315.516792" xlink:href="#m238eaa802f" y="174.528"/>
     <use style="fill:#0000ff;stroke:#0000ff;" x="236.16" xlink:href="#m238eaa802f" y="148.138036"/>
     <use style="fill:#0000ff;stroke:#0000ff;" x="273.306726" xlink:href="#m238eaa802f" y="174.528"/>
     <use style="fill:#0000ff;stroke:#0000ff;" x="245.442316" xlink:href="#m238eaa802f" y="174.528"/>
     <use style="fill:#0000ff;stroke:#0000ff;" x="236.16" xlink:href="#m238eaa802f" y="134.6112"/>
     <use style="fill:#0000ff;stroke:#0000ff;" x="236.16" xlink:href="#m238eaa802f" y="159.526667"/>
     <use style="fill:#0000ff;stroke:#0000ff;" x="236.16" xlink:href="#m238eaa802f" y="134.6112"/>
     <use style="fill:#0000ff;stroke:#0000ff;" x="236.16" xlink:href="#m238eaa802f" y="172.561163"/>
     <use style="fill:#0000ff;stroke:#0000ff;" x="236.16" xlink:href="#m238eaa802f" y="174.528"/>
     <use style="fill:#0000ff;stroke:#0000ff;" x="236.16" xlink:href="#m238eaa802f" y="141.058225"/>
     <use style="fill:#0000ff;stroke:#0000ff;" x="325.44" xlink:href="#m238eaa802f" y="142.175733"/>
     <use style="fill:#0000ff;stroke:#0000ff;" x="255.019646" xlink:href="#m238eaa802f" y="174.528"/>
     <use style="fill:#0000ff;stroke:#0000ff;" x="236.16" xlink:href="#m238eaa802f" y="134.6112"/>
     <use style="fill:#0000ff;stroke:#0000ff;" x="236.16" xlink:href="#m238eaa802f" y="174.528"/>
     <use style="fill:#0000ff;stroke:#0000ff;" x="236.16" xlink:href="#m238eaa802f" y="147.806594"/>
     <use style="fill:#0000ff;stroke:#0000ff;" x="240.106143" xlink:href="#m238eaa802f" y="174.528"/>
     <use style="fill:#0000ff;stroke:#0000ff;" x="236.16" xlink:href="#m238eaa802f" y="163.723797"/>
     <use style="fill:#0000ff;stroke:#0000ff;" x="236.16" xlink:href="#m238eaa802f" y="145.034124"/>
     <use style="fill:#0000ff;stroke:#0000ff;" x="236.16" xlink:href="#m238eaa802f" y="170.072867"/>
     <use style="fill:#0000ff;stroke:#0000ff;" x="236.16" xlink:href="#m238eaa802f" y="150.313401"/>
     <use style="fill:#0000ff;stroke:#0000ff;" x="236.16" xlink:href="#m238eaa802f" y="147.955218"/>
     <use style="fill:#0000ff;stroke:#0000ff;" x="237.132315" xlink:href="#m238eaa802f" y="174.528"/>
     <use style="fill:#0000ff;stroke:#0000ff;" x="293.369187" xlink:href="#m238eaa802f" y="174.528"/>
     <use style="fill:#0000ff;stroke:#0000ff;" x="236.16" xlink:href="#m238eaa802f" y="135.992017"/>
     <use style="fill:#0000ff;stroke:#0000ff;" x="239.33171" xlink:href="#m238eaa802f" y="174.528"/>
     <use style="fill:#0000ff;stroke:#0000ff;" x="325.44" xlink:href="#m238eaa802f" y="138.957388"/>
     <use style="fill:#0000ff;stroke:#0000ff;" x="236.16" xlink:href="#m238eaa802f" y="146.671974"/>
     <use style="fill:#0000ff;stroke:#0000ff;" x="324.091489" xlink:href="#m238eaa802f" y="174.528"/>
     <use style="fill:#0000ff;stroke:#0000ff;" x="325.44" xlink:href="#m238eaa802f" y="135.270757"/>
     <use style="fill:#0000ff;stroke:#0000ff;" x="236.16" xlink:href="#m238eaa802f" y="151.299129"/>
     <use style="fill:#0000ff;stroke:#0000ff;" x="236.16" xlink:href="#m238eaa802f" y="165.866127"/>
     <use style="fill:#0000ff;stroke:#0000ff;" x="236.16" xlink:href="#m238eaa802f" y="164.104677"/>
     <use style="fill:#0000ff;stroke:#0000ff;" x="236.16" xlink:href="#m238eaa802f" y="174.316099"/>
     <use style="fill:#0000ff;stroke:#0000ff;" x="252.958643" xlink:href="#m238eaa802f" y="174.528"/>
     <use style="fill:#0000ff;stroke:#0000ff;" x="247.147914" xlink:href="#m238eaa802f" y="174.528"/>
     <use style="fill:#0000ff;stroke:#0000ff;" x="325.44" xlink:href="#m238eaa802f" y="136.14802"/>
     <use style="fill:#0000ff;stroke:#0000ff;" x="325.44" xlink:href="#m238eaa802f" y="140.736768"/>
     <use style="fill:#0000ff;stroke:#0000ff;" x="236.16" xlink:href="#m238eaa802f" y="158.932175"/>
     <use style="fill:#0000ff;stroke:#0000ff;" x="325.44" xlink:href="#m238eaa802f" y="137.190685"/>
     <use style="fill:#0000ff;stroke:#0000ff;" x="236.16" xlink:href="#m238eaa802f" y="139.103887"/>
     <use style="fill:#0000ff;stroke:#0000ff;" x="236.16" xlink:href="#m238eaa802f" y="172.396542"/>
     <use style="fill:#0000ff;stroke:#0000ff;" x="236.16" xlink:href="#m238eaa802f" y="138.314464"/>
     <use style="fill:#0000ff;stroke:#0000ff;" x="236.16" xlink:href="#m238eaa802f" y="154.853823"/>
     <use style="fill:#0000ff;stroke:#0000ff;" x="325.44" xlink:href="#m238eaa802f" y="165.283288"/>
     <use style="fill:#0000ff;stroke:#0000ff;" x="238.410176" xlink:href="#m238eaa802f" y="174.528"/>
     <use style="fill:#0000ff;stroke:#0000ff;" x="325.44" xlink:href="#m238eaa802f" y="172.825778"/>
     <use style="fill:#0000ff;stroke:#0000ff;" x="236.16" xlink:href="#m238eaa802f" y="141.621915"/>
     <use style="fill:#0000ff;stroke:#0000ff;" x="236.16" xlink:href="#m238eaa802f" y="174.528"/>
     <use style="fill:#0000ff;stroke:#0000ff;" x="236.16" xlink:href="#m238eaa802f" y="141.442234"/>
     <use style="fill:#0000ff;stroke:#0000ff;" x="236.16" xlink:href="#m238eaa802f" y="134.6112"/>
     <use style="fill:#0000ff;stroke:#0000ff;" x="239.195443" xlink:href="#m238eaa802f" y="174.528"/>
     <use style="fill:#0000ff;stroke:#0000ff;" x="236.16" xlink:href="#m238eaa802f" y="138.225446"/>
     <use style="fill:#0000ff;stroke:#0000ff;" x="236.16" xlink:href="#m238eaa802f" y="134.6112"/>
     <use style="fill:#0000ff;stroke:#0000ff;" x="236.16" xlink:href="#m238eaa802f" y="150.935124"/>
     <use style="fill:#0000ff;stroke:#0000ff;" x="325.44" xlink:href="#m238eaa802f" y="174.528"/>
     <use style="fill:#0000ff;stroke:#0000ff;" x="254.877265" xlink:href="#m238eaa802f" y="174.528"/>
     <use style="fill:#0000ff;stroke:#0000ff;" x="325.44" xlink:href="#m238eaa802f" y="143.682145"/>
     <use style="fill:#0000ff;stroke:#0000ff;" x="325.44" xlink:href="#m238eaa802f" y="143.998845"/>
     <use style="fill:#0000ff;stroke:#0000ff;" x="236.16" xlink:href="#m238eaa802f" y="171.978037"/>
     <use style="fill:#0000ff;stroke:#0000ff;" x="236.16" xlink:href="#m238eaa802f" y="142.435865"/>
     <use style="fill:#0000ff;stroke:#0000ff;" x="238.479745" xlink:href="#m238eaa802f" y="174.528"/>
     <use style="fill:#0000ff;stroke:#0000ff;" x="236.16" xlink:href="#m238eaa802f" y="143.975966"/>
     <use style="fill:#0000ff;stroke:#0000ff;" x="236.16" xlink:href="#m238eaa802f" y="134.6112"/>
     <use style="fill:#0000ff;stroke:#0000ff;" x="236.16" xlink:href="#m238eaa802f" y="145.892195"/>
     <use style="fill:#0000ff;stroke:#0000ff;" x="325.44" xlink:href="#m238eaa802f" y="174.528"/>
     <use style="fill:#0000ff;stroke:#0000ff;" x="325.44" xlink:href="#m238eaa802f" y="174.121369"/>
     <use style="fill:#0000ff;stroke:#0000ff;" x="245.47372" xlink:href="#m238eaa802f" y="174.528"/>
    </g>
   </g>
   <g id="matplotlib.axis_1">
    <g id="xtick_1">
     <g id="line2d_1">
      <defs>
       <path d="M 0 0 
L 0 3.5 
" id="meb61e02a09" style="stroke:#000000;stroke-width:0.8;"/>
      </defs>
      <g>
       <use style="stroke:#000000;stroke-width:0.8;" x="57.6" xlink:href="#meb61e02a09" y="307.584"/>
      </g>
     </g>
     <g id="text_1">
      <!-- −10.0 -->
      <defs>
       <path d="M 10.59375 35.5 
L 73.1875 35.5 
L 73.1875 27.203125 
L 10.59375 27.203125 
z
" id="DejaVuSans-2212"/>
       <path d="M 12.40625 8.296875 
L 28.515625 8.296875 
L 28.515625 63.921875 
L 10.984375 60.40625 
L 10.984375 69.390625 
L 28.421875 72.90625 
L 38.28125 72.90625 
L 38.28125 8.296875 
L 54.390625 8.296875 
L 54.390625 0 
L 12.40625 0 
z
" id="DejaVuSans-31"/>
       <path d="M 31.78125 66.40625 
Q 24.171875 66.40625 20.328125 58.90625 
Q 16.5 51.421875 16.5 36.375 
Q 16.5 21.390625 20.328125 13.890625 
Q 24.171875 6.390625 31.78125 6.390625 
Q 39.453125 6.390625 43.28125 13.890625 
Q 47.125 21.390625 47.125 36.375 
Q 47.125 51.421875 43.28125 58.90625 
Q 39.453125 66.40625 31.78125 66.40625 
z
M 31.78125 74.21875 
Q 44.046875 74.21875 50.515625 64.515625 
Q 56.984375 54.828125 56.984375 36.375 
Q 56.984375 17.96875 50.515625 8.265625 
Q 44.046875 -1.421875 31.78125 -1.421875 
Q 19.53125 -1.421875 13.0625 8.265625 
Q 6.59375 17.96875 6.59375 36.375 
Q 6.59375 54.828125 13.0625 64.515625 
Q 19.53125 74.21875 31.78125 74.21875 
z
" id="DejaVuSans-30"/>
       <path d="M 10.6875 12.40625 
L 21 12.40625 
L 21 0 
L 10.6875 0 
z
" id="DejaVuSans-2e"/>
      </defs>
      <g transform="translate(42.277344 322.182437)scale(0.1 -0.1)">
       <use xlink:href="#DejaVuSans-2212"/>
       <use x="83.789062" xlink:href="#DejaVuSans-31"/>
       <use x="147.412109" xlink:href="#DejaVuSans-30"/>
       <use x="211.035156" xlink:href="#DejaVuSans-2e"/>
       <use x="242.822266" xlink:href="#DejaVuSans-30"/>
      </g>
     </g>
    </g>
    <g id="xtick_2">
     <g id="line2d_2">
      <g>
       <use style="stroke:#000000;stroke-width:0.8;" x="102.24" xlink:href="#meb61e02a09" y="307.584"/>
      </g>
     </g>
     <g id="text_2">
      <!-- −7.5 -->
      <defs>
       <path d="M 8.203125 72.90625 
L 55.078125 72.90625 
L 55.078125 68.703125 
L 28.609375 0 
L 18.3125 0 
L 43.21875 64.59375 
L 8.203125 64.59375 
z
" id="DejaVuSans-37"/>
       <path d="M 10.796875 72.90625 
L 49.515625 72.90625 
L 49.515625 64.59375 
L 19.828125 64.59375 
L 19.828125 46.734375 
Q 21.96875 47.46875 24.109375 47.828125 
Q 26.265625 48.1875 28.421875 48.1875 
Q 40.625 48.1875 47.75 41.5 
Q 54.890625 34.8125 54.890625 23.390625 
Q 54.890625 11.625 47.5625 5.09375 
Q 40.234375 -1.421875 26.90625 -1.421875 
Q 22.3125 -1.421875 17.546875 -0.640625 
Q 12.796875 0.140625 7.71875 1.703125 
L 7.71875 11.625 
Q 12.109375 9.234375 16.796875 8.0625 
Q 21.484375 6.890625 26.703125 6.890625 
Q 35.15625 6.890625 40.078125 11.328125 
Q 45.015625 15.765625 45.015625 23.390625 
Q 45.015625 31 40.078125 35.4375 
Q 35.15625 39.890625 26.703125 39.890625 
Q 22.75 39.890625 18.8125 39.015625 
Q 14.890625 38.140625 10.796875 36.28125 
z
" id="DejaVuSans-35"/>
      </defs>
      <g transform="translate(90.098594 322.182437)scale(0.1 -0.1)">
       <use xlink:href="#DejaVuSans-2212"/>
       <use x="83.789062" xlink:href="#DejaVuSans-37"/>
       <use x="147.412109" xlink:href="#DejaVuSans-2e"/>
       <use x="179.199219" xlink:href="#DejaVuSans-35"/>
      </g>
     </g>
    </g>
    <g id="xtick_3">
     <g id="line2d_3">
      <g>
       <use style="stroke:#000000;stroke-width:0.8;" x="146.88" xlink:href="#meb61e02a09" y="307.584"/>
      </g>
     </g>
     <g id="text_3">
      <!-- −5.0 -->
      <g transform="translate(134.738594 322.182437)scale(0.1 -0.1)">
       <use xlink:href="#DejaVuSans-2212"/>
       <use x="83.789062" xlink:href="#DejaVuSans-35"/>
       <use x="147.412109" xlink:href="#DejaVuSans-2e"/>
       <use x="179.199219" xlink:href="#DejaVuSans-30"/>
      </g>
     </g>
    </g>
    <g id="xtick_4">
     <g id="line2d_4">
      <g>
       <use style="stroke:#000000;stroke-width:0.8;" x="191.52" xlink:href="#meb61e02a09" y="307.584"/>
      </g>
     </g>
     <g id="text_4">
      <!-- −2.5 -->
      <defs>
       <path d="M 19.1875 8.296875 
L 53.609375 8.296875 
L 53.609375 0 
L 7.328125 0 
L 7.328125 8.296875 
Q 12.9375 14.109375 22.625 23.890625 
Q 32.328125 33.6875 34.8125 36.53125 
Q 39.546875 41.84375 41.421875 45.53125 
Q 43.3125 49.21875 43.3125 52.78125 
Q 43.3125 58.59375 39.234375 62.25 
Q 35.15625 65.921875 28.609375 65.921875 
Q 23.96875 65.921875 18.8125 64.3125 
Q 13.671875 62.703125 7.8125 59.421875 
L 7.8125 69.390625 
Q 13.765625 71.78125 18.9375 73 
Q 24.125 74.21875 28.421875 74.21875 
Q 39.75 74.21875 46.484375 68.546875 
Q 53.21875 62.890625 53.21875 53.421875 
Q 53.21875 48.921875 51.53125 44.890625 
Q 49.859375 40.875 45.40625 35.40625 
Q 44.1875 33.984375 37.640625 27.21875 
Q 31.109375 20.453125 19.1875 8.296875 
z
" id="DejaVuSans-32"/>
      </defs>
      <g transform="translate(179.378594 322.182437)scale(0.1 -0.1)">
       <use xlink:href="#DejaVuSans-2212"/>
       <use x="83.789062" xlink:href="#DejaVuSans-32"/>
       <use x="147.412109" xlink:href="#DejaVuSans-2e"/>
       <use x="179.199219" xlink:href="#DejaVuSans-35"/>
      </g>
     </g>
    </g>
    <g id="xtick_5">
     <g id="line2d_5">
      <g>
       <use style="stroke:#000000;stroke-width:0.8;" x="236.16" xlink:href="#meb61e02a09" y="307.584"/>
      </g>
     </g>
     <g id="text_5">
      <!-- 0.0 -->
      <g transform="translate(228.208438 322.182437)scale(0.1 -0.1)">
       <use xlink:href="#DejaVuSans-30"/>
       <use x="63.623047" xlink:href="#DejaVuSans-2e"/>
       <use x="95.410156" xlink:href="#DejaVuSans-30"/>
      </g>
     </g>
    </g>
    <g id="xtick_6">
     <g id="line2d_6">
      <g>
       <use style="stroke:#000000;stroke-width:0.8;" x="280.8" xlink:href="#meb61e02a09" y="307.584"/>
      </g>
     </g>
     <g id="text_6">
      <!-- 2.5 -->
      <g transform="translate(272.848437 322.182437)scale(0.1 -0.1)">
       <use xlink:href="#DejaVuSans-32"/>
       <use x="63.623047" xlink:href="#DejaVuSans-2e"/>
       <use x="95.410156" xlink:href="#DejaVuSans-35"/>
      </g>
     </g>
    </g>
    <g id="xtick_7">
     <g id="line2d_7">
      <g>
       <use style="stroke:#000000;stroke-width:0.8;" x="325.44" xlink:href="#meb61e02a09" y="307.584"/>
      </g>
     </g>
     <g id="text_7">
      <!-- 5.0 -->
      <g transform="translate(317.488437 322.182437)scale(0.1 -0.1)">
       <use xlink:href="#DejaVuSans-35"/>
       <use x="63.623047" xlink:href="#DejaVuSans-2e"/>
       <use x="95.410156" xlink:href="#DejaVuSans-30"/>
      </g>
     </g>
    </g>
    <g id="xtick_8">
     <g id="line2d_8">
      <g>
       <use style="stroke:#000000;stroke-width:0.8;" x="370.08" xlink:href="#meb61e02a09" y="307.584"/>
      </g>
     </g>
     <g id="text_8">
      <!-- 7.5 -->
      <g transform="translate(362.128438 322.182437)scale(0.1 -0.1)">
       <use xlink:href="#DejaVuSans-37"/>
       <use x="63.623047" xlink:href="#DejaVuSans-2e"/>
       <use x="95.410156" xlink:href="#DejaVuSans-35"/>
      </g>
     </g>
    </g>
    <g id="xtick_9">
     <g id="line2d_9">
      <g>
       <use style="stroke:#000000;stroke-width:0.8;" x="414.72" xlink:href="#meb61e02a09" y="307.584"/>
      </g>
     </g>
     <g id="text_9">
      <!-- 10.0 -->
      <g transform="translate(403.587188 322.182437)scale(0.1 -0.1)">
       <use xlink:href="#DejaVuSans-31"/>
       <use x="63.623047" xlink:href="#DejaVuSans-30"/>
       <use x="127.246094" xlink:href="#DejaVuSans-2e"/>
       <use x="159.033203" xlink:href="#DejaVuSans-30"/>
      </g>
     </g>
    </g>
   </g>
   <g id="matplotlib.axis_2">
    <g id="ytick_1">
     <g id="line2d_10">
      <defs>
       <path d="M 0 0 
L -3.5 0 
" id="m23b84bdeaf" style="stroke:#000000;stroke-width:0.8;"/>
      </defs>
      <g>
       <use style="stroke:#000000;stroke-width:0.8;" x="57.6" xlink:href="#m23b84bdeaf" y="307.584"/>
      </g>
     </g>
     <g id="text_10">
      <!-- −10.0 -->
      <g transform="translate(19.954687 311.383219)scale(0.1 -0.1)">
       <use xlink:href="#DejaVuSans-2212"/>
       <use x="83.789062" xlink:href="#DejaVuSans-31"/>
       <use x="147.412109" xlink:href="#DejaVuSans-30"/>
       <use x="211.035156" xlink:href="#DejaVuSans-2e"/>
       <use x="242.822266" xlink:href="#DejaVuSans-30"/>
      </g>
     </g>
    </g>
    <g id="ytick_2">
     <g id="line2d_11">
      <g>
       <use style="stroke:#000000;stroke-width:0.8;" x="57.6" xlink:href="#m23b84bdeaf" y="274.32"/>
      </g>
     </g>
     <g id="text_11">
      <!-- −7.5 -->
      <g transform="translate(26.317187 278.119219)scale(0.1 -0.1)">
       <use xlink:href="#DejaVuSans-2212"/>
       <use x="83.789062" xlink:href="#DejaVuSans-37"/>
       <use x="147.412109" xlink:href="#DejaVuSans-2e"/>
       <use x="179.199219" xlink:href="#DejaVuSans-35"/>
      </g>
     </g>
    </g>
    <g id="ytick_3">
     <g id="line2d_12">
      <g>
       <use style="stroke:#000000;stroke-width:0.8;" x="57.6" xlink:href="#m23b84bdeaf" y="241.056"/>
      </g>
     </g>
     <g id="text_12">
      <!-- −5.0 -->
      <g transform="translate(26.317187 244.855219)scale(0.1 -0.1)">
       <use xlink:href="#DejaVuSans-2212"/>
       <use x="83.789062" xlink:href="#DejaVuSans-35"/>
       <use x="147.412109" xlink:href="#DejaVuSans-2e"/>
       <use x="179.199219" xlink:href="#DejaVuSans-30"/>
      </g>
     </g>
    </g>
    <g id="ytick_4">
     <g id="line2d_13">
      <g>
       <use style="stroke:#000000;stroke-width:0.8;" x="57.6" xlink:href="#m23b84bdeaf" y="207.792"/>
      </g>
     </g>
     <g id="text_13">
      <!-- −2.5 -->
      <g transform="translate(26.317187 211.591219)scale(0.1 -0.1)">
       <use xlink:href="#DejaVuSans-2212"/>
       <use x="83.789062" xlink:href="#DejaVuSans-32"/>
       <use x="147.412109" xlink:href="#DejaVuSans-2e"/>
       <use x="179.199219" xlink:href="#DejaVuSans-35"/>
      </g>
     </g>
    </g>
    <g id="ytick_5">
     <g id="line2d_14">
      <g>
       <use style="stroke:#000000;stroke-width:0.8;" x="57.6" xlink:href="#m23b84bdeaf" y="174.528"/>
      </g>
     </g>
     <g id="text_14">
      <!-- 0.0 -->
      <g transform="translate(34.696875 178.327219)scale(0.1 -0.1)">
       <use xlink:href="#DejaVuSans-30"/>
       <use x="63.623047" xlink:href="#DejaVuSans-2e"/>
       <use x="95.410156" xlink:href="#DejaVuSans-30"/>
      </g>
     </g>
    </g>
    <g id="ytick_6">
     <g id="line2d_15">
      <g>
       <use style="stroke:#000000;stroke-width:0.8;" x="57.6" xlink:href="#m23b84bdeaf" y="141.264"/>
      </g>
     </g>
     <g id="text_15">
      <!-- 2.5 -->
      <g transform="translate(34.696875 145.063219)scale(0.1 -0.1)">
       <use xlink:href="#DejaVuSans-32"/>
       <use x="63.623047" xlink:href="#DejaVuSans-2e"/>
       <use x="95.410156" xlink:href="#DejaVuSans-35"/>
      </g>
     </g>
    </g>
    <g id="ytick_7">
     <g id="line2d_16">
      <g>
       <use style="stroke:#000000;stroke-width:0.8;" x="57.6" xlink:href="#m23b84bdeaf" y="108"/>
      </g>
     </g>
     <g id="text_16">
      <!-- 5.0 -->
      <g transform="translate(34.696875 111.799219)scale(0.1 -0.1)">
       <use xlink:href="#DejaVuSans-35"/>
       <use x="63.623047" xlink:href="#DejaVuSans-2e"/>
       <use x="95.410156" xlink:href="#DejaVuSans-30"/>
      </g>
     </g>
    </g>
    <g id="ytick_8">
     <g id="line2d_17">
      <g>
       <use style="stroke:#000000;stroke-width:0.8;" x="57.6" xlink:href="#m23b84bdeaf" y="74.736"/>
      </g>
     </g>
     <g id="text_17">
      <!-- 7.5 -->
      <g transform="translate(34.696875 78.535219)scale(0.1 -0.1)">
       <use xlink:href="#DejaVuSans-37"/>
       <use x="63.623047" xlink:href="#DejaVuSans-2e"/>
       <use x="95.410156" xlink:href="#DejaVuSans-35"/>
      </g>
     </g>
    </g>
    <g id="ytick_9">
     <g id="line2d_18">
      <g>
       <use style="stroke:#000000;stroke-width:0.8;" x="57.6" xlink:href="#m23b84bdeaf" y="41.472"/>
      </g>
     </g>
     <g id="text_18">
      <!-- 10.0 -->
      <g transform="translate(28.334375 45.271219)scale(0.1 -0.1)">
       <use xlink:href="#DejaVuSans-31"/>
       <use x="63.623047" xlink:href="#DejaVuSans-30"/>
       <use x="127.246094" xlink:href="#DejaVuSans-2e"/>
       <use x="159.033203" xlink:href="#DejaVuSans-30"/>
      </g>
     </g>
    </g>
   </g>
   <g id="patch_3">
    <path d="M 57.6 307.584 
L 57.6 41.472 
" style="fill:none;stroke:#000000;stroke-linecap:square;stroke-linejoin:miter;stroke-width:0.8;"/>
   </g>
   <g id="patch_4">
    <path d="M 414.72 307.584 
L 414.72 41.472 
" style="fill:none;stroke:#000000;stroke-linecap:square;stroke-linejoin:miter;stroke-width:0.8;"/>
   </g>
   <g id="patch_5">
    <path d="M 57.6 307.584 
L 414.72 307.584 
" style="fill:none;stroke:#000000;stroke-linecap:square;stroke-linejoin:miter;stroke-width:0.8;"/>
   </g>
   <g id="patch_6">
    <path d="M 57.6 41.472 
L 414.72 41.472 
" style="fill:none;stroke:#000000;stroke-linecap:square;stroke-linejoin:miter;stroke-width:0.8;"/>
   </g>
  </g>
 </g>
 <defs>
  <clipPath id="p43d6d34aa6">
   <rect height="266.112" width="357.12" x="57.6" y="41.472"/>
  </clipPath>
 </defs>
</svg>
