<?xml version="1.0" encoding="utf-8" standalone="no"?>
<!DOCTYPE svg PUBLIC "-//W3C//DTD SVG 1.1//EN"
  "http://www.w3.org/Graphics/SVG/1.1/DTD/svg11.dtd">
<!-- Created with matplotlib (http://matplotlib.org/) -->
<svg height="345.6pt" version="1.1" viewBox="0 0 460.8 345.6" width="460.8pt" xmlns="http://www.w3.org/2000/svg" xmlns:xlink="http://www.w3.org/1999/xlink">
 <defs>
  <style type="text/css">
*{stroke-linecap:butt;stroke-linejoin:round;}
  </style>
 </defs>
 <g id="figure_1">
  <g id="patch_1">
   <path d="M 0 345.6 
L 460.8 345.6 
L 460.8 0 
L 0 0 
z
" style="fill:#ffffff;"/>
  </g>
  <g id="axes_1">
   <g id="patch_2">
    <path d="M 57.6 307.584 
L 414.72 307.584 
L 414.72 41.472 
L 57.6 41.472 
z
" style="fill:#ffffff;"/>
   </g>
   <g id="PathCollection_1">
    <defs>
     <path d="M 0 0.612372 
C 0.162403 0.612372 0.318176 0.547849 0.433013 0.433013 
C 0.547849 0.318176 0.612372 0.162403 0.612372 0 
C 0.612372 -0.162403 0.547849 -0.318176 0.433013 -0.433013 
C 0.318176 -0.547849 0.162403 -0.612372 0 -0.612372 
C -0.162403 -0.612372 -0.318176 -0.547849 -0.433013 -0.433013 
C -0.547849 -0.318176 -0.612372 -0.162403 -0.612372 0 
C -0.612372 0.162403 -0.547849 0.318176 -0.433013 0.433013 
C -0.318176 0.547849 -0.162403 0.612372 0 0.612372 
z
" id="mb84256d3cf" style="stroke:#000000;"/>
    </defs>
    <g clip-path="url(#pf9286d6144)">
     <use style="stroke:#000000;" x="236.16" xlink:href="#mb84256d3cf" y="174.453006"/>
     <use style="stroke:#000000;" x="240.04619" xlink:href="#mb84256d3cf" y="174.425273"/>
     <use style="stroke:#000000;" x="236.515219" xlink:href="#mb84256d3cf" y="174.528"/>
     <use style="stroke:#000000;" x="238.274283" xlink:href="#mb84256d3cf" y="174.528"/>
     <use style="stroke:#000000;" x="240.298019" xlink:href="#mb84256d3cf" y="173.134988"/>
     <use style="stroke:#000000;" x="236.270713" xlink:href="#mb84256d3cf" y="173.508976"/>
     <use style="stroke:#000000;" x="247.686146" xlink:href="#mb84256d3cf" y="167.065884"/>
     <use style="stroke:#000000;" x="237.380154" xlink:href="#mb84256d3cf" y="172.255827"/>
     <use style="stroke:#000000;" x="244.111049" xlink:href="#mb84256d3cf" y="173.390366"/>
     <use style="stroke:#000000;" x="237.711843" xlink:href="#mb84256d3cf" y="174.12972"/>
     <use style="stroke:#000000;" x="239.848815" xlink:href="#mb84256d3cf" y="174.528"/>
     <use style="stroke:#000000;" x="236.534492" xlink:href="#mb84256d3cf" y="174.528"/>
     <use style="stroke:#000000;" x="236.796737" xlink:href="#mb84256d3cf" y="173.596225"/>
     <use style="stroke:#000000;" x="247.612884" xlink:href="#mb84256d3cf" y="168.637781"/>
     <use style="stroke:#000000;" x="244.319484" xlink:href="#mb84256d3cf" y="173.323285"/>
     <use style="stroke:#000000;" x="239.576467" xlink:href="#mb84256d3cf" y="174.080214"/>
     <use style="stroke:#000000;" x="244.233276" xlink:href="#mb84256d3cf" y="174.528"/>
     <use style="stroke:#000000;" x="240.119771" xlink:href="#mb84256d3cf" y="174.528"/>
     <use style="stroke:#000000;" x="237.142844" xlink:href="#mb84256d3cf" y="173.262324"/>
     <use style="stroke:#000000;" x="243.899559" xlink:href="#mb84256d3cf" y="173.443135"/>
     <use style="stroke:#000000;" x="236.647557" xlink:href="#mb84256d3cf" y="173.288715"/>
     <use style="stroke:#000000;" x="239.602265" xlink:href="#mb84256d3cf" y="174.225786"/>
     <use style="stroke:#000000;" x="236.197088" xlink:href="#mb84256d3cf" y="173.663577"/>
     <use style="stroke:#000000;" x="239.748203" xlink:href="#mb84256d3cf" y="174.528"/>
     <use style="stroke:#000000;" x="239.609902" xlink:href="#mb84256d3cf" y="174.196081"/>
     <use style="stroke:#000000;" x="240.179225" xlink:href="#mb84256d3cf" y="173.305755"/>
     <use style="stroke:#000000;" x="236.16" xlink:href="#mb84256d3cf" y="170.7049"/>
     <use style="stroke:#000000;" x="240.058061" xlink:href="#mb84256d3cf" y="171.611153"/>
     <use style="stroke:#000000;" x="239.909672" xlink:href="#mb84256d3cf" y="172.983512"/>
     <use style="stroke:#000000;" x="243.900001" xlink:href="#mb84256d3cf" y="174.528"/>
     <use style="stroke:#000000;" x="240.410906" xlink:href="#mb84256d3cf" y="174.174326"/>
     <use style="stroke:#000000;" x="237.661891" xlink:href="#mb84256d3cf" y="172.691186"/>
     <use style="stroke:#000000;" x="240.554062" xlink:href="#mb84256d3cf" y="172.539153"/>
     <use style="stroke:#000000;" x="239.857447" xlink:href="#mb84256d3cf" y="174.528"/>
     <use style="stroke:#000000;" x="237.062122" xlink:href="#mb84256d3cf" y="173.906131"/>
     <use style="stroke:#000000;" x="239.017639" xlink:href="#mb84256d3cf" y="174.302949"/>
     <use style="stroke:#000000;" x="237.461532" xlink:href="#mb84256d3cf" y="173.031501"/>
     <use style="stroke:#000000;" x="243.914212" xlink:href="#mb84256d3cf" y="174.363064"/>
     <use style="stroke:#000000;" x="237.524624" xlink:href="#mb84256d3cf" y="173.535863"/>
     <use style="stroke:#000000;" x="238.011655" xlink:href="#mb84256d3cf" y="174.528"/>
     <use style="stroke:#000000;" x="238.470281" xlink:href="#mb84256d3cf" y="173.955936"/>
     <use style="stroke:#000000;" x="247.990385" xlink:href="#mb84256d3cf" y="169.723718"/>
     <use style="stroke:#000000;" x="247.789073" xlink:href="#mb84256d3cf" y="167.059614"/>
     <use style="stroke:#000000;" x="237.547892" xlink:href="#mb84256d3cf" y="173.066558"/>
     <use style="stroke:#000000;" x="240.55215" xlink:href="#mb84256d3cf" y="173.75553"/>
     <use style="stroke:#000000;" x="236.37567" xlink:href="#mb84256d3cf" y="174.528"/>
     <use style="stroke:#000000;" x="236.43879" xlink:href="#mb84256d3cf" y="171.736151"/>
     <use style="stroke:#000000;" x="236.662884" xlink:href="#mb84256d3cf" y="173.350592"/>
     <use style="stroke:#000000;" x="236.68798" xlink:href="#mb84256d3cf" y="173.191419"/>
     <use style="stroke:#000000;" x="236.613209" xlink:href="#mb84256d3cf" y="170.825063"/>
     <use style="stroke:#000000;" x="244.516786" xlink:href="#mb84256d3cf" y="174.121853"/>
     <use style="stroke:#000000;" x="239.627337" xlink:href="#mb84256d3cf" y="174.260701"/>
     <use style="stroke:#000000;" x="237.167519" xlink:href="#mb84256d3cf" y="174.528"/>
     <use style="stroke:#000000;" x="240.125224" xlink:href="#mb84256d3cf" y="173.804474"/>
     <use style="stroke:#000000;" x="237.364343" xlink:href="#mb84256d3cf" y="174.261337"/>
     <use style="stroke:#000000;" x="244.29082" xlink:href="#mb84256d3cf" y="173.950404"/>
     <use style="stroke:#000000;" x="237.229948" xlink:href="#mb84256d3cf" y="173.666234"/>
     <use style="stroke:#000000;" x="239.844589" xlink:href="#mb84256d3cf" y="174.119492"/>
     <use style="stroke:#000000;" x="239.683749" xlink:href="#mb84256d3cf" y="174.43063"/>
     <use style="stroke:#000000;" x="240.227821" xlink:href="#mb84256d3cf" y="173.49964"/>
     <use style="stroke:#000000;" x="236.204724" xlink:href="#mb84256d3cf" y="174.528"/>
     <use style="stroke:#000000;" x="240.076231" xlink:href="#mb84256d3cf" y="173.831328"/>
     <use style="stroke:#000000;" x="237.103937" xlink:href="#mb84256d3cf" y="172.752219"/>
     <use style="stroke:#000000;" x="237.82809" xlink:href="#mb84256d3cf" y="173.029856"/>
     <use style="stroke:#000000;" x="239.898479" xlink:href="#mb84256d3cf" y="174.058637"/>
     <use style="stroke:#000000;" x="237.500669" xlink:href="#mb84256d3cf" y="174.528"/>
     <use style="stroke:#000000;" x="237.673438" xlink:href="#mb84256d3cf" y="173.328276"/>
     <use style="stroke:#000000;" x="244.163382" xlink:href="#mb84256d3cf" y="174.528"/>
     <use style="stroke:#000000;" x="243.949711" xlink:href="#mb84256d3cf" y="174.528"/>
     <use style="stroke:#000000;" x="243.902988" xlink:href="#mb84256d3cf" y="171.699385"/>
     <use style="stroke:#000000;" x="243.892482" xlink:href="#mb84256d3cf" y="174.528"/>
     <use style="stroke:#000000;" x="243.768245" xlink:href="#mb84256d3cf" y="174.528"/>
     <use style="stroke:#000000;" x="236.16" xlink:href="#mb84256d3cf" y="173.601343"/>
     <use style="stroke:#000000;" x="236.548089" xlink:href="#mb84256d3cf" y="174.528"/>
     <use style="stroke:#000000;" x="236.44469" xlink:href="#mb84256d3cf" y="174.528"/>
     <use style="stroke:#000000;" x="247.906039" xlink:href="#mb84256d3cf" y="167.669157"/>
     <use style="stroke:#000000;" x="240.022429" xlink:href="#mb84256d3cf" y="174.528"/>
     <use style="stroke:#000000;" x="237.582924" xlink:href="#mb84256d3cf" y="174.528"/>
     <use style="stroke:#000000;" x="239.262334" xlink:href="#mb84256d3cf" y="173.694832"/>
     <use style="stroke:#000000;" x="240.725358" xlink:href="#mb84256d3cf" y="174.34508"/>
     <use style="stroke:#000000;" x="236.16" xlink:href="#mb84256d3cf" y="174.056625"/>
     <use style="stroke:#000000;" x="236.455433" xlink:href="#mb84256d3cf" y="173.748382"/>
     <use style="stroke:#000000;" x="236.16" xlink:href="#mb84256d3cf" y="174.528"/>
     <use style="stroke:#000000;" x="239.88031" xlink:href="#mb84256d3cf" y="174.528"/>
     <use style="stroke:#000000;" x="240.112727" xlink:href="#mb84256d3cf" y="173.966607"/>
     <use style="stroke:#000000;" x="240.568839" xlink:href="#mb84256d3cf" y="174.528"/>
     <use style="stroke:#000000;" x="240.20658" xlink:href="#mb84256d3cf" y="174.504314"/>
     <use style="stroke:#000000;" x="238.426881" xlink:href="#mb84256d3cf" y="173.932026"/>
     <use style="stroke:#000000;" x="236.16" xlink:href="#mb84256d3cf" y="174.528"/>
     <use style="stroke:#000000;" x="236.16" xlink:href="#mb84256d3cf" y="173.396197"/>
     <use style="stroke:#000000;" x="238.745547" xlink:href="#mb84256d3cf" y="174.51182"/>
     <use style="stroke:#000000;" x="239.073915" xlink:href="#mb84256d3cf" y="174.528"/>
     <use style="stroke:#000000;" x="236.953753" xlink:href="#mb84256d3cf" y="174.528"/>
     <use style="stroke:#000000;" x="239.71007" xlink:href="#mb84256d3cf" y="172.194527"/>
     <use style="stroke:#000000;" x="240.793849" xlink:href="#mb84256d3cf" y="173.561406"/>
     <use style="stroke:#000000;" x="239.202507" xlink:href="#mb84256d3cf" y="172.363879"/>
     <use style="stroke:#000000;" x="236.16" xlink:href="#mb84256d3cf" y="174.101196"/>
     <use style="stroke:#000000;" x="236.16" xlink:href="#mb84256d3cf" y="173.016788"/>
     <use style="stroke:#000000;" x="236.428449" xlink:href="#mb84256d3cf" y="173.500366"/>
     <use style="stroke:#000000;" x="248.100455" xlink:href="#mb84256d3cf" y="165.420864"/>
     <use style="stroke:#000000;" x="247.817724" xlink:href="#mb84256d3cf" y="166.759573"/>
     <use style="stroke:#000000;" x="248.170159" xlink:href="#mb84256d3cf" y="168.323287"/>
     <use style="stroke:#000000;" x="238.027181" xlink:href="#mb84256d3cf" y="172.805003"/>
     <use style="stroke:#000000;" x="236.747673" xlink:href="#mb84256d3cf" y="173.502476"/>
     <use style="stroke:#000000;" x="237.444268" xlink:href="#mb84256d3cf" y="172.019729"/>
     <use style="stroke:#000000;" x="244.675904" xlink:href="#mb84256d3cf" y="173.199846"/>
     <use style="stroke:#000000;" x="242.544398" xlink:href="#mb84256d3cf" y="174.199022"/>
     <use style="stroke:#000000;" x="244.841457" xlink:href="#mb84256d3cf" y="173.341391"/>
     <use style="stroke:#000000;" x="237.147115" xlink:href="#mb84256d3cf" y="174.102756"/>
     <use style="stroke:#000000;" x="237.250416" xlink:href="#mb84256d3cf" y="174.104694"/>
     <use style="stroke:#000000;" x="236.937655" xlink:href="#mb84256d3cf" y="173.641483"/>
     <use style="stroke:#000000;" x="239.743701" xlink:href="#mb84256d3cf" y="174.284729"/>
     <use style="stroke:#000000;" x="239.279641" xlink:href="#mb84256d3cf" y="174.528"/>
     <use style="stroke:#000000;" x="240.055998" xlink:href="#mb84256d3cf" y="174.528"/>
     <use style="stroke:#000000;" x="236.16" xlink:href="#mb84256d3cf" y="174.528"/>
     <use style="stroke:#000000;" x="236.16" xlink:href="#mb84256d3cf" y="174.171105"/>
     <use style="stroke:#000000;" x="236.967351" xlink:href="#mb84256d3cf" y="174.528"/>
     <use style="stroke:#000000;" x="236.16" xlink:href="#mb84256d3cf" y="173.752144"/>
     <use style="stroke:#000000;" x="236.74541" xlink:href="#mb84256d3cf" y="174.252533"/>
     <use style="stroke:#000000;" x="237.381701" xlink:href="#mb84256d3cf" y="173.391672"/>
     <use style="stroke:#000000;" x="249.799186" xlink:href="#mb84256d3cf" y="167.776552"/>
     <use style="stroke:#000000;" x="247.041716" xlink:href="#mb84256d3cf" y="169.162686"/>
     <use style="stroke:#000000;" x="249.107137" xlink:href="#mb84256d3cf" y="168.691407"/>
     <use style="stroke:#000000;" x="245.865483" xlink:href="#mb84256d3cf" y="174.528"/>
     <use style="stroke:#000000;" x="245.716557" xlink:href="#mb84256d3cf" y="173.928273"/>
     <use style="stroke:#000000;" x="244.334033" xlink:href="#mb84256d3cf" y="172.593525"/>
     <use style="stroke:#000000;" x="239.169239" xlink:href="#mb84256d3cf" y="173.498144"/>
     <use style="stroke:#000000;" x="239.508573" xlink:href="#mb84256d3cf" y="174.528"/>
     <use style="stroke:#000000;" x="239.417267" xlink:href="#mb84256d3cf" y="174.528"/>
     <use style="stroke:#000000;" x="243.142313" xlink:href="#mb84256d3cf" y="173.65935"/>
     <use style="stroke:#000000;" x="244.224356" xlink:href="#mb84256d3cf" y="174.528"/>
     <use style="stroke:#000000;" x="244.485451" xlink:href="#mb84256d3cf" y="174.358025"/>
     <use style="stroke:#000000;" x="239.642096" xlink:href="#mb84256d3cf" y="174.353938"/>
     <use style="stroke:#000000;" x="240.462338" xlink:href="#mb84256d3cf" y="174.528"/>
     <use style="stroke:#000000;" x="241.162192" xlink:href="#mb84256d3cf" y="173.581502"/>
     <use style="stroke:#000000;" x="237.192533" xlink:href="#mb84256d3cf" y="173.116979"/>
     <use style="stroke:#000000;" x="237.371024" xlink:href="#mb84256d3cf" y="173.440784"/>
     <use style="stroke:#000000;" x="238.69716" xlink:href="#mb84256d3cf" y="173.493915"/>
     <use style="stroke:#000000;" x="244.579709" xlink:href="#mb84256d3cf" y="173.871408"/>
     <use style="stroke:#000000;" x="243.937484" xlink:href="#mb84256d3cf" y="174.134883"/>
     <use style="stroke:#000000;" x="242.617324" xlink:href="#mb84256d3cf" y="173.765632"/>
     <use style="stroke:#000000;" x="236.16" xlink:href="#mb84256d3cf" y="173.193206"/>
     <use style="stroke:#000000;" x="236.510687" xlink:href="#mb84256d3cf" y="173.822675"/>
     <use style="stroke:#000000;" x="236.16" xlink:href="#mb84256d3cf" y="173.645054"/>
     <use style="stroke:#000000;" x="238.956263" xlink:href="#mb84256d3cf" y="174.320877"/>
     <use style="stroke:#000000;" x="239.914883" xlink:href="#mb84256d3cf" y="173.924504"/>
     <use style="stroke:#000000;" x="239.541191" xlink:href="#mb84256d3cf" y="174.528"/>
     <use style="stroke:#000000;" x="236.16" xlink:href="#mb84256d3cf" y="173.461891"/>
     <use style="stroke:#000000;" x="236.383357" xlink:href="#mb84256d3cf" y="173.596845"/>
     <use style="stroke:#000000;" x="236.16" xlink:href="#mb84256d3cf" y="173.103904"/>
     <use style="stroke:#000000;" x="237.998177" xlink:href="#mb84256d3cf" y="174.528"/>
     <use style="stroke:#000000;" x="240.067685" xlink:href="#mb84256d3cf" y="174.456036"/>
     <use style="stroke:#000000;" x="240.476553" xlink:href="#mb84256d3cf" y="174.498663"/>
     <use style="stroke:#000000;" x="239.459935" xlink:href="#mb84256d3cf" y="174.139817"/>
     <use style="stroke:#000000;" x="239.603104" xlink:href="#mb84256d3cf" y="174.438377"/>
     <use style="stroke:#000000;" x="239.298624" xlink:href="#mb84256d3cf" y="173.998127"/>
     <use style="stroke:#000000;" x="239.940824" xlink:href="#mb84256d3cf" y="173.230653"/>
     <use style="stroke:#000000;" x="239.240866" xlink:href="#mb84256d3cf" y="173.111869"/>
     <use style="stroke:#000000;" x="241.441404" xlink:href="#mb84256d3cf" y="173.224834"/>
     <use style="stroke:#000000;" x="238.033848" xlink:href="#mb84256d3cf" y="170.091816"/>
     <use style="stroke:#000000;" x="239.926573" xlink:href="#mb84256d3cf" y="171.982975"/>
     <use style="stroke:#000000;" x="239.475331" xlink:href="#mb84256d3cf" y="171.592112"/>
     <use style="stroke:#000000;" x="238.40184" xlink:href="#mb84256d3cf" y="170.987787"/>
     <use style="stroke:#000000;" x="239.818065" xlink:href="#mb84256d3cf" y="171.802059"/>
     <use style="stroke:#000000;" x="245.192664" xlink:href="#mb84256d3cf" y="174.129149"/>
     <use style="stroke:#000000;" x="243.612013" xlink:href="#mb84256d3cf" y="174.267205"/>
     <use style="stroke:#000000;" x="240.9786" xlink:href="#mb84256d3cf" y="174.499577"/>
     <use style="stroke:#000000;" x="236.770892" xlink:href="#mb84256d3cf" y="172.28778"/>
     <use style="stroke:#000000;" x="238.90233" xlink:href="#mb84256d3cf" y="171.795863"/>
     <use style="stroke:#000000;" x="240.193784" xlink:href="#mb84256d3cf" y="172.987932"/>
     <use style="stroke:#000000;" x="241.277701" xlink:href="#mb84256d3cf" y="174.528"/>
     <use style="stroke:#000000;" x="239.523331" xlink:href="#mb84256d3cf" y="174.528"/>
     <use style="stroke:#000000;" x="238.474244" xlink:href="#mb84256d3cf" y="172.537644"/>
     <use style="stroke:#000000;" x="236.258853" xlink:href="#mb84256d3cf" y="173.184873"/>
     <use style="stroke:#000000;" x="238.120204" xlink:href="#mb84256d3cf" y="174.528"/>
     <use style="stroke:#000000;" x="237.409147" xlink:href="#mb84256d3cf" y="172.968227"/>
     <use style="stroke:#000000;" x="237.196214" xlink:href="#mb84256d3cf" y="172.606449"/>
     <use style="stroke:#000000;" x="243.314278" xlink:href="#mb84256d3cf" y="173.268883"/>
     <use style="stroke:#000000;" x="243.281008" xlink:href="#mb84256d3cf" y="174.528"/>
     <use style="stroke:#000000;" x="239.317611" xlink:href="#mb84256d3cf" y="174.528"/>
     <use style="stroke:#000000;" x="236.250261" xlink:href="#mb84256d3cf" y="173.308064"/>
     <use style="stroke:#000000;" x="237.839482" xlink:href="#mb84256d3cf" y="174.528"/>
     <use style="stroke:#000000;" x="238.556035" xlink:href="#mb84256d3cf" y="173.966763"/>
     <use style="stroke:#000000;" x="237.715754" xlink:href="#mb84256d3cf" y="174.528"/>
     <use style="stroke:#000000;" x="238.948896" xlink:href="#mb84256d3cf" y="174.475409"/>
     <use style="stroke:#000000;" x="246.70297" xlink:href="#mb84256d3cf" y="169.879598"/>
     <use style="stroke:#000000;" x="246.859268" xlink:href="#mb84256d3cf" y="169.813992"/>
     <use style="stroke:#000000;" x="246.317646" xlink:href="#mb84256d3cf" y="166.368662"/>
     <use style="stroke:#000000;" x="247.963817" xlink:href="#mb84256d3cf" y="167.294606"/>
     <use style="stroke:#000000;" x="238.208619" xlink:href="#mb84256d3cf" y="173.674503"/>
     <use style="stroke:#000000;" x="237.361609" xlink:href="#mb84256d3cf" y="173.087875"/>
     <use style="stroke:#000000;" x="241.48806" xlink:href="#mb84256d3cf" y="173.945337"/>
     <use style="stroke:#000000;" x="240.145139" xlink:href="#mb84256d3cf" y="173.696402"/>
     <use style="stroke:#000000;" x="236.445625" xlink:href="#mb84256d3cf" y="174.528"/>
     <use style="stroke:#000000;" x="236.16" xlink:href="#mb84256d3cf" y="174.528"/>
     <use style="stroke:#000000;" x="236.54897" xlink:href="#mb84256d3cf" y="172.248327"/>
     <use style="stroke:#000000;" x="237.454783" xlink:href="#mb84256d3cf" y="172.381073"/>
     <use style="stroke:#000000;" x="236.16" xlink:href="#mb84256d3cf" y="173.283465"/>
     <use style="stroke:#000000;" x="236.423961" xlink:href="#mb84256d3cf" y="173.208622"/>
     <use style="stroke:#000000;" x="236.16" xlink:href="#mb84256d3cf" y="171.026701"/>
     <use style="stroke:#000000;" x="236.16" xlink:href="#mb84256d3cf" y="169.96149"/>
     <use style="stroke:#000000;" x="245.825104" xlink:href="#mb84256d3cf" y="174.528"/>
     <use style="stroke:#000000;" x="246.722755" xlink:href="#mb84256d3cf" y="173.272717"/>
     <use style="stroke:#000000;" x="238.194941" xlink:href="#mb84256d3cf" y="174.528"/>
     <use style="stroke:#000000;" x="242.088253" xlink:href="#mb84256d3cf" y="174.528"/>
     <use style="stroke:#000000;" x="237.645172" xlink:href="#mb84256d3cf" y="173.930089"/>
     <use style="stroke:#000000;" x="236.969944" xlink:href="#mb84256d3cf" y="174.113072"/>
     <use style="stroke:#000000;" x="237.907896" xlink:href="#mb84256d3cf" y="173.67725"/>
     <use style="stroke:#000000;" x="238.980683" xlink:href="#mb84256d3cf" y="173.173681"/>
     <use style="stroke:#000000;" x="237.632914" xlink:href="#mb84256d3cf" y="174.528"/>
     <use style="stroke:#000000;" x="237.140903" xlink:href="#mb84256d3cf" y="174.452405"/>
     <use style="stroke:#000000;" x="245.428521" xlink:href="#mb84256d3cf" y="174.528"/>
     <use style="stroke:#000000;" x="244.207837" xlink:href="#mb84256d3cf" y="173.581685"/>
     <use style="stroke:#000000;" x="236.16" xlink:href="#mb84256d3cf" y="174.0754"/>
     <use style="stroke:#000000;" x="236.386175" xlink:href="#mb84256d3cf" y="173.605651"/>
     <use style="stroke:#000000;" x="241.067616" xlink:href="#mb84256d3cf" y="172.921614"/>
     <use style="stroke:#000000;" x="240.541925" xlink:href="#mb84256d3cf" y="174.528"/>
     <use style="stroke:#000000;" x="239.003016" xlink:href="#mb84256d3cf" y="173.248513"/>
     <use style="stroke:#000000;" x="240.606119" xlink:href="#mb84256d3cf" y="173.019541"/>
     <use style="stroke:#000000;" x="241.475464" xlink:href="#mb84256d3cf" y="173.657038"/>
     <use style="stroke:#000000;" x="239.464934" xlink:href="#mb84256d3cf" y="174.322489"/>
     <use style="stroke:#000000;" x="236.303887" xlink:href="#mb84256d3cf" y="174.132641"/>
     <use style="stroke:#000000;" x="239.39115" xlink:href="#mb84256d3cf" y="173.621915"/>
     <use style="stroke:#000000;" x="237.277843" xlink:href="#mb84256d3cf" y="171.733538"/>
     <use style="stroke:#000000;" x="237.172614" xlink:href="#mb84256d3cf" y="174.528"/>
     <use style="stroke:#000000;" x="240.647534" xlink:href="#mb84256d3cf" y="173.932013"/>
     <use style="stroke:#000000;" x="237.490008" xlink:href="#mb84256d3cf" y="174.528"/>
     <use style="stroke:#000000;" x="237.494791" xlink:href="#mb84256d3cf" y="171.994899"/>
     <use style="stroke:#000000;" x="243.218945" xlink:href="#mb84256d3cf" y="173.891405"/>
     <use style="stroke:#000000;" x="244.608536" xlink:href="#mb84256d3cf" y="172.871943"/>
     <use style="stroke:#000000;" x="244.190366" xlink:href="#mb84256d3cf" y="171.279824"/>
     <use style="stroke:#000000;" x="242.527354" xlink:href="#mb84256d3cf" y="173.078107"/>
     <use style="stroke:#000000;" x="244.838155" xlink:href="#mb84256d3cf" y="173.254787"/>
     <use style="stroke:#000000;" x="237.148198" xlink:href="#mb84256d3cf" y="173.927488"/>
     <use style="stroke:#000000;" x="236.16" xlink:href="#mb84256d3cf" y="174.528"/>
     <use style="stroke:#000000;" x="236.16" xlink:href="#mb84256d3cf" y="174.038347"/>
     <use style="stroke:#000000;" x="249.979272" xlink:href="#mb84256d3cf" y="167.277927"/>
     <use style="stroke:#000000;" x="240.16316" xlink:href="#mb84256d3cf" y="173.403095"/>
     <use style="stroke:#000000;" x="236.214725" xlink:href="#mb84256d3cf" y="173.780002"/>
     <use style="stroke:#000000;" x="238.223287" xlink:href="#mb84256d3cf" y="173.046066"/>
     <use style="stroke:#000000;" x="239.248471" xlink:href="#mb84256d3cf" y="173.62054"/>
    </g>
   </g>
   <g id="PathCollection_2">
    <defs>
     <path d="M 0 0.935414 
C 0.248075 0.935414 0.486022 0.836853 0.661438 0.661438 
C 0.836853 0.486022 0.935414 0.248075 0.935414 0 
C 0.935414 -0.248075 0.836853 -0.486022 0.661438 -0.661438 
C 0.486022 -0.836853 0.248075 -0.935414 0 -0.935414 
C -0.248075 -0.935414 -0.486022 -0.836853 -0.661438 -0.661438 
C -0.836853 -0.486022 -0.935414 -0.248075 -0.935414 0 
C -0.935414 0.248075 -0.836853 0.486022 -0.661438 0.661438 
C -0.486022 0.836853 -0.248075 0.935414 0 0.935414 
z
" id="mea9addf416" style="stroke:#0000ff;"/>
    </defs>
    <g clip-path="url(#pf9286d6144)">
     <use style="fill:#0000ff;stroke:#0000ff;" x="236.16" xlink:href="#mea9addf416" y="174.453006"/>
     <use style="fill:#0000ff;stroke:#0000ff;" x="240.04619" xlink:href="#mea9addf416" y="174.425273"/>
     <use style="fill:#0000ff;stroke:#0000ff;" x="236.515219" xlink:href="#mea9addf416" y="174.528"/>
     <use style="fill:#0000ff;stroke:#0000ff;" x="238.274283" xlink:href="#mea9addf416" y="174.528"/>
     <use style="fill:#0000ff;stroke:#0000ff;" x="240.298019" xlink:href="#mea9addf416" y="173.134988"/>
     <use style="fill:#0000ff;stroke:#0000ff;" x="236.270713" xlink:href="#mea9addf416" y="173.508976"/>
     <use style="fill:#0000ff;stroke:#0000ff;" x="247.686146" xlink:href="#mea9addf416" y="167.065884"/>
     <use style="fill:#0000ff;stroke:#0000ff;" x="237.380154" xlink:href="#mea9addf416" y="172.255827"/>
     <use style="fill:#0000ff;stroke:#0000ff;" x="244.111049" xlink:href="#mea9addf416" y="173.390366"/>
     <use style="fill:#0000ff;stroke:#0000ff;" x="237.711843" xlink:href="#mea9addf416" y="174.12972"/>
     <use style="fill:#0000ff;stroke:#0000ff;" x="239.848815" xlink:href="#mea9addf416" y="174.528"/>
     <use style="fill:#0000ff;stroke:#0000ff;" x="236.534492" xlink:href="#mea9addf416" y="174.528"/>
     <use style="fill:#0000ff;stroke:#0000ff;" x="236.796737" xlink:href="#mea9addf416" y="173.596225"/>
     <use style="fill:#0000ff;stroke:#0000ff;" x="247.612884" xlink:href="#mea9addf416" y="168.637781"/>
     <use style="fill:#0000ff;stroke:#0000ff;" x="244.319484" xlink:href="#mea9addf416" y="173.323285"/>
     <use style="fill:#0000ff;stroke:#0000ff;" x="239.576467" xlink:href="#mea9addf416" y="174.080214"/>
     <use style="fill:#0000ff;stroke:#0000ff;" x="244.233276" xlink:href="#mea9addf416" y="174.528"/>
     <use style="fill:#0000ff;stroke:#0000ff;" x="240.119771" xlink:href="#mea9addf416" y="174.528"/>
     <use style="fill:#0000ff;stroke:#0000ff;" x="237.142844" xlink:href="#mea9addf416" y="173.262324"/>
     <use style="fill:#0000ff;stroke:#0000ff;" x="243.899559" xlink:href="#mea9addf416" y="173.443135"/>
     <use style="fill:#0000ff;stroke:#0000ff;" x="236.647557" xlink:href="#mea9addf416" y="173.288715"/>
     <use style="fill:#0000ff;stroke:#0000ff;" x="239.602265" xlink:href="#mea9addf416" y="174.225786"/>
     <use style="fill:#0000ff;stroke:#0000ff;" x="236.197088" xlink:href="#mea9addf416" y="173.663577"/>
     <use style="fill:#0000ff;stroke:#0000ff;" x="239.748203" xlink:href="#mea9addf416" y="174.528"/>
     <use style="fill:#0000ff;stroke:#0000ff;" x="239.609902" xlink:href="#mea9addf416" y="174.196081"/>
     <use style="fill:#0000ff;stroke:#0000ff;" x="240.179225" xlink:href="#mea9addf416" y="173.305755"/>
     <use style="fill:#0000ff;stroke:#0000ff;" x="236.16" xlink:href="#mea9addf416" y="170.7049"/>
     <use style="fill:#0000ff;stroke:#0000ff;" x="240.058061" xlink:href="#mea9addf416" y="171.611153"/>
     <use style="fill:#0000ff;stroke:#0000ff;" x="239.909672" xlink:href="#mea9addf416" y="172.983512"/>
     <use style="fill:#0000ff;stroke:#0000ff;" x="243.900001" xlink:href="#mea9addf416" y="174.528"/>
     <use style="fill:#0000ff;stroke:#0000ff;" x="240.410906" xlink:href="#mea9addf416" y="174.174326"/>
     <use style="fill:#0000ff;stroke:#0000ff;" x="237.661891" xlink:href="#mea9addf416" y="172.691186"/>
     <use style="fill:#0000ff;stroke:#0000ff;" x="240.554062" xlink:href="#mea9addf416" y="172.539153"/>
     <use style="fill:#0000ff;stroke:#0000ff;" x="239.857447" xlink:href="#mea9addf416" y="174.528"/>
     <use style="fill:#0000ff;stroke:#0000ff;" x="237.062122" xlink:href="#mea9addf416" y="173.906131"/>
     <use style="fill:#0000ff;stroke:#0000ff;" x="239.017639" xlink:href="#mea9addf416" y="174.302949"/>
     <use style="fill:#0000ff;stroke:#0000ff;" x="237.461532" xlink:href="#mea9addf416" y="173.031501"/>
     <use style="fill:#0000ff;stroke:#0000ff;" x="243.914212" xlink:href="#mea9addf416" y="174.363064"/>
     <use style="fill:#0000ff;stroke:#0000ff;" x="237.524624" xlink:href="#mea9addf416" y="173.535863"/>
     <use style="fill:#0000ff;stroke:#0000ff;" x="238.011655" xlink:href="#mea9addf416" y="174.528"/>
     <use style="fill:#0000ff;stroke:#0000ff;" x="238.470281" xlink:href="#mea9addf416" y="173.955936"/>
     <use style="fill:#0000ff;stroke:#0000ff;" x="247.990385" xlink:href="#mea9addf416" y="169.723718"/>
     <use style="fill:#0000ff;stroke:#0000ff;" x="247.789073" xlink:href="#mea9addf416" y="167.059614"/>
     <use style="fill:#0000ff;stroke:#0000ff;" x="237.547892" xlink:href="#mea9addf416" y="173.066558"/>
     <use style="fill:#0000ff;stroke:#0000ff;" x="240.55215" xlink:href="#mea9addf416" y="173.75553"/>
     <use style="fill:#0000ff;stroke:#0000ff;" x="236.37567" xlink:href="#mea9addf416" y="174.528"/>
     <use style="fill:#0000ff;stroke:#0000ff;" x="236.43879" xlink:href="#mea9addf416" y="171.736151"/>
     <use style="fill:#0000ff;stroke:#0000ff;" x="236.662884" xlink:href="#mea9addf416" y="173.350592"/>
     <use style="fill:#0000ff;stroke:#0000ff;" x="236.68798" xlink:href="#mea9addf416" y="173.191419"/>
     <use style="fill:#0000ff;stroke:#0000ff;" x="236.613209" xlink:href="#mea9addf416" y="170.825063"/>
     <use style="fill:#0000ff;stroke:#0000ff;" x="244.516786" xlink:href="#mea9addf416" y="174.121853"/>
     <use style="fill:#0000ff;stroke:#0000ff;" x="239.627337" xlink:href="#mea9addf416" y="174.260701"/>
     <use style="fill:#0000ff;stroke:#0000ff;" x="237.167519" xlink:href="#mea9addf416" y="174.528"/>
     <use style="fill:#0000ff;stroke:#0000ff;" x="240.125224" xlink:href="#mea9addf416" y="173.804474"/>
     <use style="fill:#0000ff;stroke:#0000ff;" x="237.364343" xlink:href="#mea9addf416" y="174.261337"/>
     <use style="fill:#0000ff;stroke:#0000ff;" x="244.29082" xlink:href="#mea9addf416" y="173.950404"/>
     <use style="fill:#0000ff;stroke:#0000ff;" x="237.229948" xlink:href="#mea9addf416" y="173.666234"/>
     <use style="fill:#0000ff;stroke:#0000ff;" x="239.844589" xlink:href="#mea9addf416" y="174.119492"/>
     <use style="fill:#0000ff;stroke:#0000ff;" x="239.683749" xlink:href="#mea9addf416" y="174.43063"/>
     <use style="fill:#0000ff;stroke:#0000ff;" x="240.227821" xlink:href="#mea9addf416" y="173.49964"/>
     <use style="fill:#0000ff;stroke:#0000ff;" x="236.204724" xlink:href="#mea9addf416" y="174.528"/>
     <use style="fill:#0000ff;stroke:#0000ff;" x="240.076231" xlink:href="#mea9addf416" y="173.831328"/>
     <use style="fill:#0000ff;stroke:#0000ff;" x="237.103937" xlink:href="#mea9addf416" y="172.752219"/>
     <use style="fill:#0000ff;stroke:#0000ff;" x="237.82809" xlink:href="#mea9addf416" y="173.029856"/>
     <use style="fill:#0000ff;stroke:#0000ff;" x="239.898479" xlink:href="#mea9addf416" y="174.058637"/>
     <use style="fill:#0000ff;stroke:#0000ff;" x="237.500669" xlink:href="#mea9addf416" y="174.528"/>
     <use style="fill:#0000ff;stroke:#0000ff;" x="237.673438" xlink:href="#mea9addf416" y="173.328276"/>
     <use style="fill:#0000ff;stroke:#0000ff;" x="244.163382" xlink:href="#mea9addf416" y="174.528"/>
     <use style="fill:#0000ff;stroke:#0000ff;" x="243.949711" xlink:href="#mea9addf416" y="174.528"/>
     <use style="fill:#0000ff;stroke:#0000ff;" x="243.902988" xlink:href="#mea9addf416" y="171.699385"/>
     <use style="fill:#0000ff;stroke:#0000ff;" x="243.892482" xlink:href="#mea9addf416" y="174.528"/>
     <use style="fill:#0000ff;stroke:#0000ff;" x="243.768245" xlink:href="#mea9addf416" y="174.528"/>
     <use style="fill:#0000ff;stroke:#0000ff;" x="236.16" xlink:href="#mea9addf416" y="173.601343"/>
     <use style="fill:#0000ff;stroke:#0000ff;" x="236.548089" xlink:href="#mea9addf416" y="174.528"/>
     <use style="fill:#0000ff;stroke:#0000ff;" x="236.44469" xlink:href="#mea9addf416" y="174.528"/>
     <use style="fill:#0000ff;stroke:#0000ff;" x="247.906039" xlink:href="#mea9addf416" y="167.669157"/>
     <use style="fill:#0000ff;stroke:#0000ff;" x="240.022429" xlink:href="#mea9addf416" y="174.528"/>
     <use style="fill:#0000ff;stroke:#0000ff;" x="237.582924" xlink:href="#mea9addf416" y="174.528"/>
     <use style="fill:#0000ff;stroke:#0000ff;" x="239.262334" xlink:href="#mea9addf416" y="173.694832"/>
     <use style="fill:#0000ff;stroke:#0000ff;" x="240.725358" xlink:href="#mea9addf416" y="174.34508"/>
    </g>
   </g>
   <g id="matplotlib.axis_1">
    <g id="xtick_1">
     <g id="line2d_1">
      <defs>
       <path d="M 0 0 
L 0 3.5 
" id="mac8fd2c799" style="stroke:#000000;stroke-width:0.8;"/>
      </defs>
      <g>
       <use style="stroke:#000000;stroke-width:0.8;" x="57.6" xlink:href="#mac8fd2c799" y="307.584"/>
      </g>
     </g>
     <g id="text_1">
      <!-- −10.0 -->
      <defs>
       <path d="M 10.59375 35.5 
L 73.1875 35.5 
L 73.1875 27.203125 
L 10.59375 27.203125 
z
" id="DejaVuSans-2212"/>
       <path d="M 12.40625 8.296875 
L 28.515625 8.296875 
L 28.515625 63.921875 
L 10.984375 60.40625 
L 10.984375 69.390625 
L 28.421875 72.90625 
L 38.28125 72.90625 
L 38.28125 8.296875 
L 54.390625 8.296875 
L 54.390625 0 
L 12.40625 0 
z
" id="DejaVuSans-31"/>
       <path d="M 31.78125 66.40625 
Q 24.171875 66.40625 20.328125 58.90625 
Q 16.5 51.421875 16.5 36.375 
Q 16.5 21.390625 20.328125 13.890625 
Q 24.171875 6.390625 31.78125 6.390625 
Q 39.453125 6.390625 43.28125 13.890625 
Q 47.125 21.390625 47.125 36.375 
Q 47.125 51.421875 43.28125 58.90625 
Q 39.453125 66.40625 31.78125 66.40625 
z
M 31.78125 74.21875 
Q 44.046875 74.21875 50.515625 64.515625 
Q 56.984375 54.828125 56.984375 36.375 
Q 56.984375 17.96875 50.515625 8.265625 
Q 44.046875 -1.421875 31.78125 -1.421875 
Q 19.53125 -1.421875 13.0625 8.265625 
Q 6.59375 17.96875 6.59375 36.375 
Q 6.59375 54.828125 13.0625 64.515625 
Q 19.53125 74.21875 31.78125 74.21875 
z
" id="DejaVuSans-30"/>
       <path d="M 10.6875 12.40625 
L 21 12.40625 
L 21 0 
L 10.6875 0 
z
" id="DejaVuSans-2e"/>
      </defs>
      <g transform="translate(42.277344 322.182437)scale(0.1 -0.1)">
       <use xlink:href="#DejaVuSans-2212"/>
       <use x="83.789062" xlink:href="#DejaVuSans-31"/>
       <use x="147.412109" xlink:href="#DejaVuSans-30"/>
       <use x="211.035156" xlink:href="#DejaVuSans-2e"/>
       <use x="242.822266" xlink:href="#DejaVuSans-30"/>
      </g>
     </g>
    </g>
    <g id="xtick_2">
     <g id="line2d_2">
      <g>
       <use style="stroke:#000000;stroke-width:0.8;" x="102.24" xlink:href="#mac8fd2c799" y="307.584"/>
      </g>
     </g>
     <g id="text_2">
      <!-- −7.5 -->
      <defs>
       <path d="M 8.203125 72.90625 
L 55.078125 72.90625 
L 55.078125 68.703125 
L 28.609375 0 
L 18.3125 0 
L 43.21875 64.59375 
L 8.203125 64.59375 
z
" id="DejaVuSans-37"/>
       <path d="M 10.796875 72.90625 
L 49.515625 72.90625 
L 49.515625 64.59375 
L 19.828125 64.59375 
L 19.828125 46.734375 
Q 21.96875 47.46875 24.109375 47.828125 
Q 26.265625 48.1875 28.421875 48.1875 
Q 40.625 48.1875 47.75 41.5 
Q 54.890625 34.8125 54.890625 23.390625 
Q 54.890625 11.625 47.5625 5.09375 
Q 40.234375 -1.421875 26.90625 -1.421875 
Q 22.3125 -1.421875 17.546875 -0.640625 
Q 12.796875 0.140625 7.71875 1.703125 
L 7.71875 11.625 
Q 12.109375 9.234375 16.796875 8.0625 
Q 21.484375 6.890625 26.703125 6.890625 
Q 35.15625 6.890625 40.078125 11.328125 
Q 45.015625 15.765625 45.015625 23.390625 
Q 45.015625 31 40.078125 35.4375 
Q 35.15625 39.890625 26.703125 39.890625 
Q 22.75 39.890625 18.8125 39.015625 
Q 14.890625 38.140625 10.796875 36.28125 
z
" id="DejaVuSans-35"/>
      </defs>
      <g transform="translate(90.098594 322.182437)scale(0.1 -0.1)">
       <use xlink:href="#DejaVuSans-2212"/>
       <use x="83.789062" xlink:href="#DejaVuSans-37"/>
       <use x="147.412109" xlink:href="#DejaVuSans-2e"/>
       <use x="179.199219" xlink:href="#DejaVuSans-35"/>
      </g>
     </g>
    </g>
    <g id="xtick_3">
     <g id="line2d_3">
      <g>
       <use style="stroke:#000000;stroke-width:0.8;" x="146.88" xlink:href="#mac8fd2c799" y="307.584"/>
      </g>
     </g>
     <g id="text_3">
      <!-- −5.0 -->
      <g transform="translate(134.738594 322.182437)scale(0.1 -0.1)">
       <use xlink:href="#DejaVuSans-2212"/>
       <use x="83.789062" xlink:href="#DejaVuSans-35"/>
       <use x="147.412109" xlink:href="#DejaVuSans-2e"/>
       <use x="179.199219" xlink:href="#DejaVuSans-30"/>
      </g>
     </g>
    </g>
    <g id="xtick_4">
     <g id="line2d_4">
      <g>
       <use style="stroke:#000000;stroke-width:0.8;" x="191.52" xlink:href="#mac8fd2c799" y="307.584"/>
      </g>
     </g>
     <g id="text_4">
      <!-- −2.5 -->
      <defs>
       <path d="M 19.1875 8.296875 
L 53.609375 8.296875 
L 53.609375 0 
L 7.328125 0 
L 7.328125 8.296875 
Q 12.9375 14.109375 22.625 23.890625 
Q 32.328125 33.6875 34.8125 36.53125 
Q 39.546875 41.84375 41.421875 45.53125 
Q 43.3125 49.21875 43.3125 52.78125 
Q 43.3125 58.59375 39.234375 62.25 
Q 35.15625 65.921875 28.609375 65.921875 
Q 23.96875 65.921875 18.8125 64.3125 
Q 13.671875 62.703125 7.8125 59.421875 
L 7.8125 69.390625 
Q 13.765625 71.78125 18.9375 73 
Q 24.125 74.21875 28.421875 74.21875 
Q 39.75 74.21875 46.484375 68.546875 
Q 53.21875 62.890625 53.21875 53.421875 
Q 53.21875 48.921875 51.53125 44.890625 
Q 49.859375 40.875 45.40625 35.40625 
Q 44.1875 33.984375 37.640625 27.21875 
Q 31.109375 20.453125 19.1875 8.296875 
z
" id="DejaVuSans-32"/>
      </defs>
      <g transform="translate(179.378594 322.182437)scale(0.1 -0.1)">
       <use xlink:href="#DejaVuSans-2212"/>
       <use x="83.789062" xlink:href="#DejaVuSans-32"/>
       <use x="147.412109" xlink:href="#DejaVuSans-2e"/>
       <use x="179.199219" xlink:href="#DejaVuSans-35"/>
      </g>
     </g>
    </g>
    <g id="xtick_5">
     <g id="line2d_5">
      <g>
       <use style="stroke:#000000;stroke-width:0.8;" x="236.16" xlink:href="#mac8fd2c799" y="307.584"/>
      </g>
     </g>
     <g id="text_5">
      <!-- 0.0 -->
      <g transform="translate(228.208438 322.182437)scale(0.1 -0.1)">
       <use xlink:href="#DejaVuSans-30"/>
       <use x="63.623047" xlink:href="#DejaVuSans-2e"/>
       <use x="95.410156" xlink:href="#DejaVuSans-30"/>
      </g>
     </g>
    </g>
    <g id="xtick_6">
     <g id="line2d_6">
      <g>
       <use style="stroke:#000000;stroke-width:0.8;" x="280.8" xlink:href="#mac8fd2c799" y="307.584"/>
      </g>
     </g>
     <g id="text_6">
      <!-- 2.5 -->
      <g transform="translate(272.848437 322.182437)scale(0.1 -0.1)">
       <use xlink:href="#DejaVuSans-32"/>
       <use x="63.623047" xlink:href="#DejaVuSans-2e"/>
       <use x="95.410156" xlink:href="#DejaVuSans-35"/>
      </g>
     </g>
    </g>
    <g id="xtick_7">
     <g id="line2d_7">
      <g>
       <use style="stroke:#000000;stroke-width:0.8;" x="325.44" xlink:href="#mac8fd2c799" y="307.584"/>
      </g>
     </g>
     <g id="text_7">
      <!-- 5.0 -->
      <g transform="translate(317.488437 322.182437)scale(0.1 -0.1)">
       <use xlink:href="#DejaVuSans-35"/>
       <use x="63.623047" xlink:href="#DejaVuSans-2e"/>
       <use x="95.410156" xlink:href="#DejaVuSans-30"/>
      </g>
     </g>
    </g>
    <g id="xtick_8">
     <g id="line2d_8">
      <g>
       <use style="stroke:#000000;stroke-width:0.8;" x="370.08" xlink:href="#mac8fd2c799" y="307.584"/>
      </g>
     </g>
     <g id="text_8">
      <!-- 7.5 -->
      <g transform="translate(362.128438 322.182437)scale(0.1 -0.1)">
       <use xlink:href="#DejaVuSans-37"/>
       <use x="63.623047" xlink:href="#DejaVuSans-2e"/>
       <use x="95.410156" xlink:href="#DejaVuSans-35"/>
      </g>
     </g>
    </g>
    <g id="xtick_9">
     <g id="line2d_9">
      <g>
       <use style="stroke:#000000;stroke-width:0.8;" x="414.72" xlink:href="#mac8fd2c799" y="307.584"/>
      </g>
     </g>
     <g id="text_9">
      <!-- 10.0 -->
      <g transform="translate(403.587188 322.182437)scale(0.1 -0.1)">
       <use xlink:href="#DejaVuSans-31"/>
       <use x="63.623047" xlink:href="#DejaVuSans-30"/>
       <use x="127.246094" xlink:href="#DejaVuSans-2e"/>
       <use x="159.033203" xlink:href="#DejaVuSans-30"/>
      </g>
     </g>
    </g>
   </g>
   <g id="matplotlib.axis_2">
    <g id="ytick_1">
     <g id="line2d_10">
      <defs>
       <path d="M 0 0 
L -3.5 0 
" id="m268e74c226" style="stroke:#000000;stroke-width:0.8;"/>
      </defs>
      <g>
       <use style="stroke:#000000;stroke-width:0.8;" x="57.6" xlink:href="#m268e74c226" y="307.584"/>
      </g>
     </g>
     <g id="text_10">
      <!-- −10.0 -->
      <g transform="translate(19.954687 311.383219)scale(0.1 -0.1)">
       <use xlink:href="#DejaVuSans-2212"/>
       <use x="83.789062" xlink:href="#DejaVuSans-31"/>
       <use x="147.412109" xlink:href="#DejaVuSans-30"/>
       <use x="211.035156" xlink:href="#DejaVuSans-2e"/>
       <use x="242.822266" xlink:href="#DejaVuSans-30"/>
      </g>
     </g>
    </g>
    <g id="ytick_2">
     <g id="line2d_11">
      <g>
       <use style="stroke:#000000;stroke-width:0.8;" x="57.6" xlink:href="#m268e74c226" y="274.32"/>
      </g>
     </g>
     <g id="text_11">
      <!-- −7.5 -->
      <g transform="translate(26.317187 278.119219)scale(0.1 -0.1)">
       <use xlink:href="#DejaVuSans-2212"/>
       <use x="83.789062" xlink:href="#DejaVuSans-37"/>
       <use x="147.412109" xlink:href="#DejaVuSans-2e"/>
       <use x="179.199219" xlink:href="#DejaVuSans-35"/>
      </g>
     </g>
    </g>
    <g id="ytick_3">
     <g id="line2d_12">
      <g>
       <use style="stroke:#000000;stroke-width:0.8;" x="57.6" xlink:href="#m268e74c226" y="241.056"/>
      </g>
     </g>
     <g id="text_12">
      <!-- −5.0 -->
      <g transform="translate(26.317187 244.855219)scale(0.1 -0.1)">
       <use xlink:href="#DejaVuSans-2212"/>
       <use x="83.789062" xlink:href="#DejaVuSans-35"/>
       <use x="147.412109" xlink:href="#DejaVuSans-2e"/>
       <use x="179.199219" xlink:href="#DejaVuSans-30"/>
      </g>
     </g>
    </g>
    <g id="ytick_4">
     <g id="line2d_13">
      <g>
       <use style="stroke:#000000;stroke-width:0.8;" x="57.6" xlink:href="#m268e74c226" y="207.792"/>
      </g>
     </g>
     <g id="text_13">
      <!-- −2.5 -->
      <g transform="translate(26.317187 211.591219)scale(0.1 -0.1)">
       <use xlink:href="#DejaVuSans-2212"/>
       <use x="83.789062" xlink:href="#DejaVuSans-32"/>
       <use x="147.412109" xlink:href="#DejaVuSans-2e"/>
       <use x="179.199219" xlink:href="#DejaVuSans-35"/>
      </g>
     </g>
    </g>
    <g id="ytick_5">
     <g id="line2d_14">
      <g>
       <use style="stroke:#000000;stroke-width:0.8;" x="57.6" xlink:href="#m268e74c226" y="174.528"/>
      </g>
     </g>
     <g id="text_14">
      <!-- 0.0 -->
      <g transform="translate(34.696875 178.327219)scale(0.1 -0.1)">
       <use xlink:href="#DejaVuSans-30"/>
       <use x="63.623047" xlink:href="#DejaVuSans-2e"/>
       <use x="95.410156" xlink:href="#DejaVuSans-30"/>
      </g>
     </g>
    </g>
    <g id="ytick_6">
     <g id="line2d_15">
      <g>
       <use style="stroke:#000000;stroke-width:0.8;" x="57.6" xlink:href="#m268e74c226" y="141.264"/>
      </g>
     </g>
     <g id="text_15">
      <!-- 2.5 -->
      <g transform="translate(34.696875 145.063219)scale(0.1 -0.1)">
       <use xlink:href="#DejaVuSans-32"/>
       <use x="63.623047" xlink:href="#DejaVuSans-2e"/>
       <use x="95.410156" xlink:href="#DejaVuSans-35"/>
      </g>
     </g>
    </g>
    <g id="ytick_7">
     <g id="line2d_16">
      <g>
       <use style="stroke:#000000;stroke-width:0.8;" x="57.6" xlink:href="#m268e74c226" y="108"/>
      </g>
     </g>
     <g id="text_16">
      <!-- 5.0 -->
      <g transform="translate(34.696875 111.799219)scale(0.1 -0.1)">
       <use xlink:href="#DejaVuSans-35"/>
       <use x="63.623047" xlink:href="#DejaVuSans-2e"/>
       <use x="95.410156" xlink:href="#DejaVuSans-30"/>
      </g>
     </g>
    </g>
    <g id="ytick_8">
     <g id="line2d_17">
      <g>
       <use style="stroke:#000000;stroke-width:0.8;" x="57.6" xlink:href="#m268e74c226" y="74.736"/>
      </g>
     </g>
     <g id="text_17">
      <!-- 7.5 -->
      <g transform="translate(34.696875 78.535219)scale(0.1 -0.1)">
       <use xlink:href="#DejaVuSans-37"/>
       <use x="63.623047" xlink:href="#DejaVuSans-2e"/>
       <use x="95.410156" xlink:href="#DejaVuSans-35"/>
      </g>
     </g>
    </g>
    <g id="ytick_9">
     <g id="line2d_18">
      <g>
       <use style="stroke:#000000;stroke-width:0.8;" x="57.6" xlink:href="#m268e74c226" y="41.472"/>
      </g>
     </g>
     <g id="text_18">
      <!-- 10.0 -->
      <g transform="translate(28.334375 45.271219)scale(0.1 -0.1)">
       <use xlink:href="#DejaVuSans-31"/>
       <use x="63.623047" xlink:href="#DejaVuSans-30"/>
       <use x="127.246094" xlink:href="#DejaVuSans-2e"/>
       <use x="159.033203" xlink:href="#DejaVuSans-30"/>
      </g>
     </g>
    </g>
   </g>
   <g id="patch_3">
    <path d="M 57.6 307.584 
L 57.6 41.472 
" style="fill:none;stroke:#000000;stroke-linecap:square;stroke-linejoin:miter;stroke-width:0.8;"/>
   </g>
   <g id="patch_4">
    <path d="M 414.72 307.584 
L 414.72 41.472 
" style="fill:none;stroke:#000000;stroke-linecap:square;stroke-linejoin:miter;stroke-width:0.8;"/>
   </g>
   <g id="patch_5">
    <path d="M 57.6 307.584 
L 414.72 307.584 
" style="fill:none;stroke:#000000;stroke-linecap:square;stroke-linejoin:miter;stroke-width:0.8;"/>
   </g>
   <g id="patch_6">
    <path d="M 57.6 41.472 
L 414.72 41.472 
" style="fill:none;stroke:#000000;stroke-linecap:square;stroke-linejoin:miter;stroke-width:0.8;"/>
   </g>
  </g>
 </g>
 <defs>
  <clipPath id="pf9286d6144">
   <rect height="266.112" width="357.12" x="57.6" y="41.472"/>
  </clipPath>
 </defs>
</svg>
