<?xml version="1.0" encoding="utf-8" standalone="no"?>
<!DOCTYPE svg PUBLIC "-//W3C//DTD SVG 1.1//EN"
  "http://www.w3.org/Graphics/SVG/1.1/DTD/svg11.dtd">
<!-- Created with matplotlib (http://matplotlib.org/) -->
<svg height="345.6pt" version="1.1" viewBox="0 0 460.8 345.6" width="460.8pt" xmlns="http://www.w3.org/2000/svg" xmlns:xlink="http://www.w3.org/1999/xlink">
 <defs>
  <style type="text/css">
*{stroke-linecap:butt;stroke-linejoin:round;}
  </style>
 </defs>
 <g id="figure_1">
  <g id="patch_1">
   <path d="M 0 345.6 
L 460.8 345.6 
L 460.8 0 
L 0 0 
z
" style="fill:#ffffff;"/>
  </g>
  <g id="axes_1">
   <g id="patch_2">
    <path d="M 57.6 307.584 
L 414.72 307.584 
L 414.72 41.472 
L 57.6 41.472 
z
" style="fill:#ffffff;"/>
   </g>
   <g id="PathCollection_1">
    <defs>
     <path d="M 0 0.612372 
C 0.162403 0.612372 0.318176 0.547849 0.433013 0.433013 
C 0.547849 0.318176 0.612372 0.162403 0.612372 0 
C 0.612372 -0.162403 0.547849 -0.318176 0.433013 -0.433013 
C 0.318176 -0.547849 0.162403 -0.612372 0 -0.612372 
C -0.162403 -0.612372 -0.318176 -0.547849 -0.433013 -0.433013 
C -0.547849 -0.318176 -0.612372 -0.162403 -0.612372 0 
C -0.612372 0.162403 -0.547849 0.318176 -0.433013 0.433013 
C -0.318176 0.547849 -0.162403 0.612372 0 0.612372 
z
" id="m9faab2d84d" style="stroke:#000000;"/>
    </defs>
    <g clip-path="url(#pa71f331618)">
     <use style="stroke:#000000;" x="325.44" xlink:href="#m9faab2d84d" y="172.936098"/>
     <use style="stroke:#000000;" x="242.856911" xlink:href="#m9faab2d84d" y="174.528"/>
     <use style="stroke:#000000;" x="241.578144" xlink:href="#m9faab2d84d" y="174.528"/>
     <use style="stroke:#000000;" x="236.16" xlink:href="#m9faab2d84d" y="134.6112"/>
     <use style="stroke:#000000;" x="325.44" xlink:href="#m9faab2d84d" y="142.468331"/>
     <use style="stroke:#000000;" x="249.892558" xlink:href="#m9faab2d84d" y="174.528"/>
     <use style="stroke:#000000;" x="236.16" xlink:href="#m9faab2d84d" y="143.334051"/>
     <use style="stroke:#000000;" x="325.44" xlink:href="#m9faab2d84d" y="139.273754"/>
     <use style="stroke:#000000;" x="276.928275" xlink:href="#m9faab2d84d" y="174.528"/>
     <use style="stroke:#000000;" x="236.16" xlink:href="#m9faab2d84d" y="145.57558"/>
     <use style="stroke:#000000;" x="236.16" xlink:href="#m9faab2d84d" y="162.00496"/>
     <use style="stroke:#000000;" x="325.44" xlink:href="#m9faab2d84d" y="137.333044"/>
     <use style="stroke:#000000;" x="244.061038" xlink:href="#m9faab2d84d" y="174.528"/>
     <use style="stroke:#000000;" x="236.16" xlink:href="#m9faab2d84d" y="163.545375"/>
     <use style="stroke:#000000;" x="236.16" xlink:href="#m9faab2d84d" y="136.436626"/>
     <use style="stroke:#000000;" x="315.516792" xlink:href="#m9faab2d84d" y="174.528"/>
     <use style="stroke:#000000;" x="236.16" xlink:href="#m9faab2d84d" y="148.138036"/>
     <use style="stroke:#000000;" x="273.306726" xlink:href="#m9faab2d84d" y="174.528"/>
     <use style="stroke:#000000;" x="245.442316" xlink:href="#m9faab2d84d" y="174.528"/>
     <use style="stroke:#000000;" x="236.16" xlink:href="#m9faab2d84d" y="134.6112"/>
     <use style="stroke:#000000;" x="236.16" xlink:href="#m9faab2d84d" y="159.526667"/>
     <use style="stroke:#000000;" x="236.16" xlink:href="#m9faab2d84d" y="134.6112"/>
     <use style="stroke:#000000;" x="236.16" xlink:href="#m9faab2d84d" y="172.561163"/>
     <use style="stroke:#000000;" x="236.16" xlink:href="#m9faab2d84d" y="174.528"/>
     <use style="stroke:#000000;" x="236.16" xlink:href="#m9faab2d84d" y="141.058225"/>
     <use style="stroke:#000000;" x="325.44" xlink:href="#m9faab2d84d" y="142.175733"/>
     <use style="stroke:#000000;" x="236.16" xlink:href="#m9faab2d84d" y="134.6112"/>
     <use style="stroke:#000000;" x="255.019646" xlink:href="#m9faab2d84d" y="174.528"/>
     <use style="stroke:#000000;" x="236.16" xlink:href="#m9faab2d84d" y="174.528"/>
     <use style="stroke:#000000;" x="236.16" xlink:href="#m9faab2d84d" y="147.806594"/>
     <use style="stroke:#000000;" x="240.106143" xlink:href="#m9faab2d84d" y="174.528"/>
     <use style="stroke:#000000;" x="236.16" xlink:href="#m9faab2d84d" y="163.723797"/>
     <use style="stroke:#000000;" x="236.16" xlink:href="#m9faab2d84d" y="145.034124"/>
     <use style="stroke:#000000;" x="236.16" xlink:href="#m9faab2d84d" y="150.313401"/>
     <use style="stroke:#000000;" x="236.16" xlink:href="#m9faab2d84d" y="170.072867"/>
     <use style="stroke:#000000;" x="236.16" xlink:href="#m9faab2d84d" y="147.955218"/>
     <use style="stroke:#000000;" x="237.132315" xlink:href="#m9faab2d84d" y="174.528"/>
     <use style="stroke:#000000;" x="293.369187" xlink:href="#m9faab2d84d" y="174.528"/>
     <use style="stroke:#000000;" x="236.16" xlink:href="#m9faab2d84d" y="135.992017"/>
     <use style="stroke:#000000;" x="239.33171" xlink:href="#m9faab2d84d" y="174.528"/>
     <use style="stroke:#000000;" x="325.44" xlink:href="#m9faab2d84d" y="167.409635"/>
     <use style="stroke:#000000;" x="325.44" xlink:href="#m9faab2d84d" y="138.957388"/>
     <use style="stroke:#000000;" x="238.845305" xlink:href="#m9faab2d84d" y="174.528"/>
     <use style="stroke:#000000;" x="236.16" xlink:href="#m9faab2d84d" y="142.159179"/>
     <use style="stroke:#000000;" x="236.16" xlink:href="#m9faab2d84d" y="172.396542"/>
     <use style="stroke:#000000;" x="236.16" xlink:href="#m9faab2d84d" y="158.932175"/>
     <use style="stroke:#000000;" x="236.16" xlink:href="#m9faab2d84d" y="146.671974"/>
     <use style="stroke:#000000;" x="236.16" xlink:href="#m9faab2d84d" y="144.483119"/>
     <use style="stroke:#000000;" x="325.44" xlink:href="#m9faab2d84d" y="137.190685"/>
     <use style="stroke:#000000;" x="324.091489" xlink:href="#m9faab2d84d" y="174.528"/>
     <use style="stroke:#000000;" x="236.16" xlink:href="#m9faab2d84d" y="138.946525"/>
     <use style="stroke:#000000;" x="236.16" xlink:href="#m9faab2d84d" y="138.543655"/>
     <use style="stroke:#000000;" x="236.16" xlink:href="#m9faab2d84d" y="174.528"/>
     <use style="stroke:#000000;" x="236.16" xlink:href="#m9faab2d84d" y="139.103887"/>
     <use style="stroke:#000000;" x="236.16" xlink:href="#m9faab2d84d" y="145.813641"/>
     <use style="stroke:#000000;" x="325.44" xlink:href="#m9faab2d84d" y="171.086319"/>
     <use style="stroke:#000000;" x="236.16" xlink:href="#m9faab2d84d" y="137.31995"/>
     <use style="stroke:#000000;" x="325.44" xlink:href="#m9faab2d84d" y="174.528"/>
     <use style="stroke:#000000;" x="325.44" xlink:href="#m9faab2d84d" y="171.905501"/>
     <use style="stroke:#000000;" x="236.16" xlink:href="#m9faab2d84d" y="167.080175"/>
     <use style="stroke:#000000;" x="248.422621" xlink:href="#m9faab2d84d" y="174.318414"/>
     <use style="stroke:#000000;" x="236.16" xlink:href="#m9faab2d84d" y="163.527981"/>
     <use style="stroke:#000000;" x="236.16" xlink:href="#m9faab2d84d" y="174.528"/>
     <use style="stroke:#000000;" x="236.16" xlink:href="#m9faab2d84d" y="162.613276"/>
     <use style="stroke:#000000;" x="236.16" xlink:href="#m9faab2d84d" y="174.528"/>
     <use style="stroke:#000000;" x="250.238364" xlink:href="#m9faab2d84d" y="174.528"/>
     <use style="stroke:#000000;" x="236.16" xlink:href="#m9faab2d84d" y="172.987234"/>
     <use style="stroke:#000000;" x="323.137871" xlink:href="#m9faab2d84d" y="147.079047"/>
     <use style="stroke:#000000;" x="325.44" xlink:href="#m9faab2d84d" y="140.736768"/>
     <use style="stroke:#000000;" x="256.238006" xlink:href="#m9faab2d84d" y="174.528"/>
     <use style="stroke:#000000;" x="325.44" xlink:href="#m9faab2d84d" y="136.14802"/>
     <use style="stroke:#000000;" x="236.16" xlink:href="#m9faab2d84d" y="138.314464"/>
     <use style="stroke:#000000;" x="236.16" xlink:href="#m9faab2d84d" y="154.853823"/>
     <use style="stroke:#000000;" x="325.44" xlink:href="#m9faab2d84d" y="135.270757"/>
     <use style="stroke:#000000;" x="247.147914" xlink:href="#m9faab2d84d" y="174.528"/>
     <use style="stroke:#000000;" x="252.958643" xlink:href="#m9faab2d84d" y="174.528"/>
     <use style="stroke:#000000;" x="325.44" xlink:href="#m9faab2d84d" y="146.514119"/>
     <use style="stroke:#000000;" x="325.44" xlink:href="#m9faab2d84d" y="142.703236"/>
     <use style="stroke:#000000;" x="251.76988" xlink:href="#m9faab2d84d" y="174.528"/>
     <use style="stroke:#000000;" x="236.16" xlink:href="#m9faab2d84d" y="174.316099"/>
     <use style="stroke:#000000;" x="318.282792" xlink:href="#m9faab2d84d" y="172.628128"/>
     <use style="stroke:#000000;" x="249.518176" xlink:href="#m9faab2d84d" y="174.528"/>
     <use style="stroke:#000000;" x="238.71497" xlink:href="#m9faab2d84d" y="173.783023"/>
     <use style="stroke:#000000;" x="246.725328" xlink:href="#m9faab2d84d" y="173.776893"/>
     <use style="stroke:#000000;" x="250.579399" xlink:href="#m9faab2d84d" y="173.336955"/>
     <use style="stroke:#000000;" x="245.203535" xlink:href="#m9faab2d84d" y="173.781429"/>
     <use style="stroke:#000000;" x="244.31938" xlink:href="#m9faab2d84d" y="174.528"/>
     <use style="stroke:#000000;" x="246.739552" xlink:href="#m9faab2d84d" y="173.553407"/>
     <use style="stroke:#000000;" x="241.768009" xlink:href="#m9faab2d84d" y="134.6112"/>
     <use style="stroke:#000000;" x="236.16" xlink:href="#m9faab2d84d" y="134.903656"/>
     <use style="stroke:#000000;" x="236.16" xlink:href="#m9faab2d84d" y="134.684613"/>
     <use style="stroke:#000000;" x="325.44" xlink:href="#m9faab2d84d" y="144.118453"/>
     <use style="stroke:#000000;" x="321.363476" xlink:href="#m9faab2d84d" y="140.019709"/>
     <use style="stroke:#000000;" x="325.44" xlink:href="#m9faab2d84d" y="141.727786"/>
     <use style="stroke:#000000;" x="252.93636" xlink:href="#m9faab2d84d" y="174.528"/>
     <use style="stroke:#000000;" x="256.665644" xlink:href="#m9faab2d84d" y="174.528"/>
     <use style="stroke:#000000;" x="250.55094" xlink:href="#m9faab2d84d" y="173.526702"/>
     <use style="stroke:#000000;" x="237.574902" xlink:href="#m9faab2d84d" y="140.686831"/>
     <use style="stroke:#000000;" x="241.821775" xlink:href="#m9faab2d84d" y="143.470181"/>
     <use style="stroke:#000000;" x="236.16" xlink:href="#m9faab2d84d" y="143.948204"/>
     <use style="stroke:#000000;" x="322.179078" xlink:href="#m9faab2d84d" y="141.022861"/>
     <use style="stroke:#000000;" x="325.44" xlink:href="#m9faab2d84d" y="138.793783"/>
     <use style="stroke:#000000;" x="325.44" xlink:href="#m9faab2d84d" y="135.771029"/>
     <use style="stroke:#000000;" x="282.544696" xlink:href="#m9faab2d84d" y="169.944828"/>
     <use style="stroke:#000000;" x="274.28674" xlink:href="#m9faab2d84d" y="174.528"/>
     <use style="stroke:#000000;" x="281.689654" xlink:href="#m9faab2d84d" y="174.528"/>
     <use style="stroke:#000000;" x="236.16" xlink:href="#m9faab2d84d" y="143.860794"/>
     <use style="stroke:#000000;" x="237.722789" xlink:href="#m9faab2d84d" y="146.665863"/>
     <use style="stroke:#000000;" x="236.570092" xlink:href="#m9faab2d84d" y="143.230338"/>
     <use style="stroke:#000000;" x="236.16" xlink:href="#m9faab2d84d" y="163.99065"/>
     <use style="stroke:#000000;" x="236.16" xlink:href="#m9faab2d84d" y="163.384475"/>
     <use style="stroke:#000000;" x="241.56727" xlink:href="#m9faab2d84d" y="161.892044"/>
     <use style="stroke:#000000;" x="320.991983" xlink:href="#m9faab2d84d" y="134.853923"/>
     <use style="stroke:#000000;" x="325.44" xlink:href="#m9faab2d84d" y="141.787405"/>
     <use style="stroke:#000000;" x="319.64104" xlink:href="#m9faab2d84d" y="139.437017"/>
     <use style="stroke:#000000;" x="242.297364" xlink:href="#m9faab2d84d" y="174.516174"/>
     <use style="stroke:#000000;" x="242.592344" xlink:href="#m9faab2d84d" y="170.747842"/>
     <use style="stroke:#000000;" x="243.769482" xlink:href="#m9faab2d84d" y="173.316485"/>
     <use style="stroke:#000000;" x="237.631628" xlink:href="#m9faab2d84d" y="166.543499"/>
     <use style="stroke:#000000;" x="236.16" xlink:href="#m9faab2d84d" y="166.10932"/>
     <use style="stroke:#000000;" x="237.656701" xlink:href="#m9faab2d84d" y="164.048268"/>
     <use style="stroke:#000000;" x="236.16" xlink:href="#m9faab2d84d" y="137.209245"/>
     <use style="stroke:#000000;" x="236.16" xlink:href="#m9faab2d84d" y="140.707844"/>
     <use style="stroke:#000000;" x="236.16" xlink:href="#m9faab2d84d" y="139.450845"/>
     <use style="stroke:#000000;" x="317.395791" xlink:href="#m9faab2d84d" y="174.528"/>
     <use style="stroke:#000000;" x="318.332598" xlink:href="#m9faab2d84d" y="174.528"/>
     <use style="stroke:#000000;" x="309.47671" xlink:href="#m9faab2d84d" y="174.220645"/>
     <use style="stroke:#000000;" x="236.16" xlink:href="#m9faab2d84d" y="147.565539"/>
     <use style="stroke:#000000;" x="236.16" xlink:href="#m9faab2d84d" y="147.028373"/>
     <use style="stroke:#000000;" x="239.987325" xlink:href="#m9faab2d84d" y="149.425564"/>
     <use style="stroke:#000000;" x="273.686354" xlink:href="#m9faab2d84d" y="173.633393"/>
     <use style="stroke:#000000;" x="272.568888" xlink:href="#m9faab2d84d" y="174.528"/>
     <use style="stroke:#000000;" x="275.238671" xlink:href="#m9faab2d84d" y="174.528"/>
     <use style="stroke:#000000;" x="252.687669" xlink:href="#m9faab2d84d" y="174.303941"/>
     <use style="stroke:#000000;" x="240.325589" xlink:href="#m9faab2d84d" y="174.528"/>
     <use style="stroke:#000000;" x="244.507014" xlink:href="#m9faab2d84d" y="174.528"/>
     <use style="stroke:#000000;" x="237.854189" xlink:href="#m9faab2d84d" y="134.6112"/>
     <use style="stroke:#000000;" x="236.16" xlink:href="#m9faab2d84d" y="134.6112"/>
     <use style="stroke:#000000;" x="236.16" xlink:href="#m9faab2d84d" y="134.6112"/>
     <use style="stroke:#000000;" x="236.16" xlink:href="#m9faab2d84d" y="161.062973"/>
     <use style="stroke:#000000;" x="244.958689" xlink:href="#m9faab2d84d" y="160.053974"/>
     <use style="stroke:#000000;" x="240.625432" xlink:href="#m9faab2d84d" y="159.093522"/>
     <use style="stroke:#000000;" x="236.16" xlink:href="#m9faab2d84d" y="134.6112"/>
     <use style="stroke:#000000;" x="236.16" xlink:href="#m9faab2d84d" y="173.556392"/>
     <use style="stroke:#000000;" x="236.16" xlink:href="#m9faab2d84d" y="174.528"/>
     <use style="stroke:#000000;" x="236.16" xlink:href="#m9faab2d84d" y="174.528"/>
     <use style="stroke:#000000;" x="238.289161" xlink:href="#m9faab2d84d" y="174.528"/>
     <use style="stroke:#000000;" x="240.504631" xlink:href="#m9faab2d84d" y="141.473809"/>
     <use style="stroke:#000000;" x="236.16" xlink:href="#m9faab2d84d" y="139.043815"/>
     <use style="stroke:#000000;" x="241.115108" xlink:href="#m9faab2d84d" y="140.376687"/>
     <use style="stroke:#000000;" x="325.44" xlink:href="#m9faab2d84d" y="142.151744"/>
     <use style="stroke:#000000;" x="325.44" xlink:href="#m9faab2d84d" y="140.889654"/>
     <use style="stroke:#000000;" x="319.774705" xlink:href="#m9faab2d84d" y="140.384828"/>
     <use style="stroke:#000000;" x="239.638436" xlink:href="#m9faab2d84d" y="138.448719"/>
     <use style="stroke:#000000;" x="255.50707" xlink:href="#m9faab2d84d" y="174.528"/>
     <use style="stroke:#000000;" x="243.976605" xlink:href="#m9faab2d84d" y="172.901918"/>
     <use style="stroke:#000000;" x="236.16" xlink:href="#m9faab2d84d" y="150.094808"/>
     <use style="stroke:#000000;" x="236.16" xlink:href="#m9faab2d84d" y="174.528"/>
     <use style="stroke:#000000;" x="236.16" xlink:href="#m9faab2d84d" y="164.776759"/>
     <use style="stroke:#000000;" x="237.82582" xlink:href="#m9faab2d84d" y="143.359298"/>
     <use style="stroke:#000000;" x="248.544554" xlink:href="#m9faab2d84d" y="142.693336"/>
     <use style="stroke:#000000;" x="239.729575" xlink:href="#m9faab2d84d" y="145.24233"/>
     <use style="stroke:#000000;" x="240.371169" xlink:href="#m9faab2d84d" y="145.580867"/>
     <use style="stroke:#000000;" x="236.16" xlink:href="#m9faab2d84d" y="166.71061"/>
     <use style="stroke:#000000;" x="237.328907" xlink:href="#m9faab2d84d" y="151.046161"/>
     <use style="stroke:#000000;" x="237.1228" xlink:href="#m9faab2d84d" y="149.857474"/>
     <use style="stroke:#000000;" x="236.16" xlink:href="#m9faab2d84d" y="149.15905"/>
     <use style="stroke:#000000;" x="242.98623" xlink:href="#m9faab2d84d" y="174.528"/>
     <use style="stroke:#000000;" x="236.16" xlink:href="#m9faab2d84d" y="174.528"/>
     <use style="stroke:#000000;" x="243.496735" xlink:href="#m9faab2d84d" y="174.048855"/>
     <use style="stroke:#000000;" x="291.796689" xlink:href="#m9faab2d84d" y="173.24934"/>
     <use style="stroke:#000000;" x="288.660667" xlink:href="#m9faab2d84d" y="174.528"/>
     <use style="stroke:#000000;" x="291.550903" xlink:href="#m9faab2d84d" y="174.528"/>
     <use style="stroke:#000000;" x="236.16" xlink:href="#m9faab2d84d" y="136.659605"/>
     <use style="stroke:#000000;" x="236.16" xlink:href="#m9faab2d84d" y="136.763271"/>
     <use style="stroke:#000000;" x="244.336707" xlink:href="#m9faab2d84d" y="174.528"/>
     <use style="stroke:#000000;" x="239.872788" xlink:href="#m9faab2d84d" y="170.601149"/>
     <use style="stroke:#000000;" x="322.913733" xlink:href="#m9faab2d84d" y="168.803048"/>
     <use style="stroke:#000000;" x="325.44" xlink:href="#m9faab2d84d" y="137.769824"/>
     <use style="stroke:#000000;" x="325.44" xlink:href="#m9faab2d84d" y="140.255837"/>
     <use style="stroke:#000000;" x="239.090634" xlink:href="#m9faab2d84d" y="174.528"/>
     <use style="stroke:#000000;" x="238.224314" xlink:href="#m9faab2d84d" y="140.923122"/>
     <use style="stroke:#000000;" x="237.030659" xlink:href="#m9faab2d84d" y="137.464148"/>
     <use style="stroke:#000000;" x="241.174573" xlink:href="#m9faab2d84d" y="166.564384"/>
     <use style="stroke:#000000;" x="236.16" xlink:href="#m9faab2d84d" y="159.186436"/>
     <use style="stroke:#000000;" x="236.16" xlink:href="#m9faab2d84d" y="155.187331"/>
     <use style="stroke:#000000;" x="237.698793" xlink:href="#m9faab2d84d" y="145.826341"/>
     <use style="stroke:#000000;" x="236.587544" xlink:href="#m9faab2d84d" y="145.870978"/>
     <use style="stroke:#000000;" x="325.44" xlink:href="#m9faab2d84d" y="135.902223"/>
     <use style="stroke:#000000;" x="325.44" xlink:href="#m9faab2d84d" y="174.528"/>
     <use style="stroke:#000000;" x="238.24782" xlink:href="#m9faab2d84d" y="143.980635"/>
     <use style="stroke:#000000;" x="236.470841" xlink:href="#m9faab2d84d" y="139.65633"/>
     <use style="stroke:#000000;" x="244.224769" xlink:href="#m9faab2d84d" y="138.791035"/>
     <use style="stroke:#000000;" x="238.032448" xlink:href="#m9faab2d84d" y="173.24616"/>
     <use style="stroke:#000000;" x="236.16" xlink:href="#m9faab2d84d" y="172.639084"/>
     <use style="stroke:#000000;" x="236.429635" xlink:href="#m9faab2d84d" y="140.312271"/>
     <use style="stroke:#000000;" x="236.16" xlink:href="#m9faab2d84d" y="137.061271"/>
     <use style="stroke:#000000;" x="238.432492" xlink:href="#m9faab2d84d" y="145.232794"/>
     <use style="stroke:#000000;" x="238.572475" xlink:href="#m9faab2d84d" y="143.82285"/>
     <use style="stroke:#000000;" x="323.806511" xlink:href="#m9faab2d84d" y="174.182561"/>
     <use style="stroke:#000000;" x="325.44" xlink:href="#m9faab2d84d" y="174.528"/>
     <use style="stroke:#000000;" x="236.16" xlink:href="#m9faab2d84d" y="137.978466"/>
     <use style="stroke:#000000;" x="236.16" xlink:href="#m9faab2d84d" y="135.208513"/>
     <use style="stroke:#000000;" x="325.44" xlink:href="#m9faab2d84d" y="174.528"/>
     <use style="stroke:#000000;" x="325.44" xlink:href="#m9faab2d84d" y="172.079294"/>
     <use style="stroke:#000000;" x="325.082175" xlink:href="#m9faab2d84d" y="172.999362"/>
     <use style="stroke:#000000;" x="319.457234" xlink:href="#m9faab2d84d" y="170.784859"/>
     <use style="stroke:#000000;" x="236.16" xlink:href="#m9faab2d84d" y="165.683167"/>
     <use style="stroke:#000000;" x="236.16" xlink:href="#m9faab2d84d" y="166.152919"/>
     <use style="stroke:#000000;" x="254.437537" xlink:href="#m9faab2d84d" y="171.023935"/>
     <use style="stroke:#000000;" x="251.688706" xlink:href="#m9faab2d84d" y="174.528"/>
     <use style="stroke:#000000;" x="236.16" xlink:href="#m9faab2d84d" y="164.958435"/>
     <use style="stroke:#000000;" x="242.412246" xlink:href="#m9faab2d84d" y="157.723314"/>
     <use style="stroke:#000000;" x="236.16" xlink:href="#m9faab2d84d" y="174.528"/>
     <use style="stroke:#000000;" x="236.16" xlink:href="#m9faab2d84d" y="174.168434"/>
     <use style="stroke:#000000;" x="236.16" xlink:href="#m9faab2d84d" y="162.945945"/>
     <use style="stroke:#000000;" x="236.16" xlink:href="#m9faab2d84d" y="171.428349"/>
     <use style="stroke:#000000;" x="237.006326" xlink:href="#m9faab2d84d" y="172.668674"/>
     <use style="stroke:#000000;" x="244.474869" xlink:href="#m9faab2d84d" y="173.478833"/>
     <use style="stroke:#000000;" x="249.799491" xlink:href="#m9faab2d84d" y="173.174635"/>
     <use style="stroke:#000000;" x="236.16" xlink:href="#m9faab2d84d" y="172.787181"/>
     <use style="stroke:#000000;" x="236.16" xlink:href="#m9faab2d84d" y="171.486405"/>
     <use style="stroke:#000000;" x="321.872187" xlink:href="#m9faab2d84d" y="145.948009"/>
     <use style="stroke:#000000;" x="325.289612" xlink:href="#m9faab2d84d" y="150.383154"/>
     <use style="stroke:#000000;" x="324.103759" xlink:href="#m9faab2d84d" y="139.658177"/>
     <use style="stroke:#000000;" x="325.44" xlink:href="#m9faab2d84d" y="141.589962"/>
     <use style="stroke:#000000;" x="253.359743" xlink:href="#m9faab2d84d" y="174.006309"/>
     <use style="stroke:#000000;" x="319.952783" xlink:href="#m9faab2d84d" y="136.68448"/>
     <use style="stroke:#000000;" x="325.44" xlink:href="#m9faab2d84d" y="138.840374"/>
     <use style="stroke:#000000;" x="240.931892" xlink:href="#m9faab2d84d" y="137.571908"/>
     <use style="stroke:#000000;" x="236.16" xlink:href="#m9faab2d84d" y="139.491113"/>
     <use style="stroke:#000000;" x="241.451795" xlink:href="#m9faab2d84d" y="157.78635"/>
     <use style="stroke:#000000;" x="325.44" xlink:href="#m9faab2d84d" y="138.726501"/>
     <use style="stroke:#000000;" x="238.86803" xlink:href="#m9faab2d84d" y="174.302269"/>
     <use style="stroke:#000000;" x="253.459701" xlink:href="#m9faab2d84d" y="174.528"/>
     <use style="stroke:#000000;" x="325.44" xlink:href="#m9faab2d84d" y="148.80469"/>
     <use style="stroke:#000000;" x="325.44" xlink:href="#m9faab2d84d" y="148.118346"/>
     <use style="stroke:#000000;" x="325.44" xlink:href="#m9faab2d84d" y="144.453722"/>
     <use style="stroke:#000000;" x="243.166422" xlink:href="#m9faab2d84d" y="172.13237"/>
     <use style="stroke:#000000;" x="236.421784" xlink:href="#m9faab2d84d" y="174.528"/>
     <use style="stroke:#000000;" x="236.16" xlink:href="#m9faab2d84d" y="174.528"/>
    </g>
   </g>
   <g id="PathCollection_2">
    <defs>
     <path d="M 0 0.935414 
C 0.248075 0.935414 0.486022 0.836853 0.661438 0.661438 
C 0.836853 0.486022 0.935414 0.248075 0.935414 0 
C 0.935414 -0.248075 0.836853 -0.486022 0.661438 -0.661438 
C 0.486022 -0.836853 0.248075 -0.935414 0 -0.935414 
C -0.248075 -0.935414 -0.486022 -0.836853 -0.661438 -0.661438 
C -0.836853 -0.486022 -0.935414 -0.248075 -0.935414 0 
C -0.935414 0.248075 -0.836853 0.486022 -0.661438 0.661438 
C -0.486022 0.836853 -0.248075 0.935414 0 0.935414 
z
" id="m7529e3ad4a" style="stroke:#0000ff;"/>
    </defs>
    <g clip-path="url(#pa71f331618)">
     <use style="fill:#0000ff;stroke:#0000ff;" x="325.44" xlink:href="#m7529e3ad4a" y="172.936098"/>
     <use style="fill:#0000ff;stroke:#0000ff;" x="242.856911" xlink:href="#m7529e3ad4a" y="174.528"/>
     <use style="fill:#0000ff;stroke:#0000ff;" x="241.578144" xlink:href="#m7529e3ad4a" y="174.528"/>
     <use style="fill:#0000ff;stroke:#0000ff;" x="236.16" xlink:href="#m7529e3ad4a" y="134.6112"/>
     <use style="fill:#0000ff;stroke:#0000ff;" x="325.44" xlink:href="#m7529e3ad4a" y="142.468331"/>
     <use style="fill:#0000ff;stroke:#0000ff;" x="249.892558" xlink:href="#m7529e3ad4a" y="174.528"/>
     <use style="fill:#0000ff;stroke:#0000ff;" x="236.16" xlink:href="#m7529e3ad4a" y="143.334051"/>
     <use style="fill:#0000ff;stroke:#0000ff;" x="325.44" xlink:href="#m7529e3ad4a" y="139.273754"/>
     <use style="fill:#0000ff;stroke:#0000ff;" x="276.928275" xlink:href="#m7529e3ad4a" y="174.528"/>
     <use style="fill:#0000ff;stroke:#0000ff;" x="236.16" xlink:href="#m7529e3ad4a" y="145.57558"/>
     <use style="fill:#0000ff;stroke:#0000ff;" x="236.16" xlink:href="#m7529e3ad4a" y="162.00496"/>
     <use style="fill:#0000ff;stroke:#0000ff;" x="325.44" xlink:href="#m7529e3ad4a" y="137.333044"/>
     <use style="fill:#0000ff;stroke:#0000ff;" x="244.061038" xlink:href="#m7529e3ad4a" y="174.528"/>
     <use style="fill:#0000ff;stroke:#0000ff;" x="236.16" xlink:href="#m7529e3ad4a" y="163.545375"/>
     <use style="fill:#0000ff;stroke:#0000ff;" x="236.16" xlink:href="#m7529e3ad4a" y="136.436626"/>
     <use style="fill:#0000ff;stroke:#0000ff;" x="315.516792" xlink:href="#m7529e3ad4a" y="174.528"/>
     <use style="fill:#0000ff;stroke:#0000ff;" x="236.16" xlink:href="#m7529e3ad4a" y="148.138036"/>
     <use style="fill:#0000ff;stroke:#0000ff;" x="273.306726" xlink:href="#m7529e3ad4a" y="174.528"/>
     <use style="fill:#0000ff;stroke:#0000ff;" x="245.442316" xlink:href="#m7529e3ad4a" y="174.528"/>
     <use style="fill:#0000ff;stroke:#0000ff;" x="236.16" xlink:href="#m7529e3ad4a" y="134.6112"/>
     <use style="fill:#0000ff;stroke:#0000ff;" x="236.16" xlink:href="#m7529e3ad4a" y="159.526667"/>
     <use style="fill:#0000ff;stroke:#0000ff;" x="236.16" xlink:href="#m7529e3ad4a" y="134.6112"/>
     <use style="fill:#0000ff;stroke:#0000ff;" x="236.16" xlink:href="#m7529e3ad4a" y="172.561163"/>
     <use style="fill:#0000ff;stroke:#0000ff;" x="236.16" xlink:href="#m7529e3ad4a" y="174.528"/>
     <use style="fill:#0000ff;stroke:#0000ff;" x="236.16" xlink:href="#m7529e3ad4a" y="141.058225"/>
     <use style="fill:#0000ff;stroke:#0000ff;" x="325.44" xlink:href="#m7529e3ad4a" y="142.175733"/>
     <use style="fill:#0000ff;stroke:#0000ff;" x="236.16" xlink:href="#m7529e3ad4a" y="134.6112"/>
     <use style="fill:#0000ff;stroke:#0000ff;" x="255.019646" xlink:href="#m7529e3ad4a" y="174.528"/>
     <use style="fill:#0000ff;stroke:#0000ff;" x="236.16" xlink:href="#m7529e3ad4a" y="174.528"/>
     <use style="fill:#0000ff;stroke:#0000ff;" x="236.16" xlink:href="#m7529e3ad4a" y="147.806594"/>
     <use style="fill:#0000ff;stroke:#0000ff;" x="240.106143" xlink:href="#m7529e3ad4a" y="174.528"/>
     <use style="fill:#0000ff;stroke:#0000ff;" x="236.16" xlink:href="#m7529e3ad4a" y="163.723797"/>
     <use style="fill:#0000ff;stroke:#0000ff;" x="236.16" xlink:href="#m7529e3ad4a" y="145.034124"/>
     <use style="fill:#0000ff;stroke:#0000ff;" x="236.16" xlink:href="#m7529e3ad4a" y="150.313401"/>
     <use style="fill:#0000ff;stroke:#0000ff;" x="236.16" xlink:href="#m7529e3ad4a" y="170.072867"/>
     <use style="fill:#0000ff;stroke:#0000ff;" x="236.16" xlink:href="#m7529e3ad4a" y="147.955218"/>
     <use style="fill:#0000ff;stroke:#0000ff;" x="237.132315" xlink:href="#m7529e3ad4a" y="174.528"/>
     <use style="fill:#0000ff;stroke:#0000ff;" x="293.369187" xlink:href="#m7529e3ad4a" y="174.528"/>
     <use style="fill:#0000ff;stroke:#0000ff;" x="236.16" xlink:href="#m7529e3ad4a" y="135.992017"/>
     <use style="fill:#0000ff;stroke:#0000ff;" x="239.33171" xlink:href="#m7529e3ad4a" y="174.528"/>
     <use style="fill:#0000ff;stroke:#0000ff;" x="325.44" xlink:href="#m7529e3ad4a" y="167.409635"/>
     <use style="fill:#0000ff;stroke:#0000ff;" x="325.44" xlink:href="#m7529e3ad4a" y="138.957388"/>
     <use style="fill:#0000ff;stroke:#0000ff;" x="238.845305" xlink:href="#m7529e3ad4a" y="174.528"/>
     <use style="fill:#0000ff;stroke:#0000ff;" x="236.16" xlink:href="#m7529e3ad4a" y="142.159179"/>
     <use style="fill:#0000ff;stroke:#0000ff;" x="236.16" xlink:href="#m7529e3ad4a" y="172.396542"/>
     <use style="fill:#0000ff;stroke:#0000ff;" x="236.16" xlink:href="#m7529e3ad4a" y="158.932175"/>
     <use style="fill:#0000ff;stroke:#0000ff;" x="236.16" xlink:href="#m7529e3ad4a" y="146.671974"/>
     <use style="fill:#0000ff;stroke:#0000ff;" x="236.16" xlink:href="#m7529e3ad4a" y="144.483119"/>
     <use style="fill:#0000ff;stroke:#0000ff;" x="325.44" xlink:href="#m7529e3ad4a" y="137.190685"/>
     <use style="fill:#0000ff;stroke:#0000ff;" x="324.091489" xlink:href="#m7529e3ad4a" y="174.528"/>
     <use style="fill:#0000ff;stroke:#0000ff;" x="236.16" xlink:href="#m7529e3ad4a" y="138.946525"/>
     <use style="fill:#0000ff;stroke:#0000ff;" x="236.16" xlink:href="#m7529e3ad4a" y="138.543655"/>
     <use style="fill:#0000ff;stroke:#0000ff;" x="236.16" xlink:href="#m7529e3ad4a" y="174.528"/>
     <use style="fill:#0000ff;stroke:#0000ff;" x="236.16" xlink:href="#m7529e3ad4a" y="139.103887"/>
     <use style="fill:#0000ff;stroke:#0000ff;" x="236.16" xlink:href="#m7529e3ad4a" y="145.813641"/>
     <use style="fill:#0000ff;stroke:#0000ff;" x="325.44" xlink:href="#m7529e3ad4a" y="171.086319"/>
     <use style="fill:#0000ff;stroke:#0000ff;" x="236.16" xlink:href="#m7529e3ad4a" y="137.31995"/>
     <use style="fill:#0000ff;stroke:#0000ff;" x="325.44" xlink:href="#m7529e3ad4a" y="174.528"/>
     <use style="fill:#0000ff;stroke:#0000ff;" x="325.44" xlink:href="#m7529e3ad4a" y="171.905501"/>
     <use style="fill:#0000ff;stroke:#0000ff;" x="236.16" xlink:href="#m7529e3ad4a" y="167.080175"/>
     <use style="fill:#0000ff;stroke:#0000ff;" x="248.422621" xlink:href="#m7529e3ad4a" y="174.318414"/>
     <use style="fill:#0000ff;stroke:#0000ff;" x="236.16" xlink:href="#m7529e3ad4a" y="163.527981"/>
     <use style="fill:#0000ff;stroke:#0000ff;" x="236.16" xlink:href="#m7529e3ad4a" y="174.528"/>
     <use style="fill:#0000ff;stroke:#0000ff;" x="236.16" xlink:href="#m7529e3ad4a" y="162.613276"/>
     <use style="fill:#0000ff;stroke:#0000ff;" x="236.16" xlink:href="#m7529e3ad4a" y="174.528"/>
     <use style="fill:#0000ff;stroke:#0000ff;" x="250.238364" xlink:href="#m7529e3ad4a" y="174.528"/>
     <use style="fill:#0000ff;stroke:#0000ff;" x="236.16" xlink:href="#m7529e3ad4a" y="172.987234"/>
     <use style="fill:#0000ff;stroke:#0000ff;" x="323.137871" xlink:href="#m7529e3ad4a" y="147.079047"/>
     <use style="fill:#0000ff;stroke:#0000ff;" x="325.44" xlink:href="#m7529e3ad4a" y="140.736768"/>
     <use style="fill:#0000ff;stroke:#0000ff;" x="256.238006" xlink:href="#m7529e3ad4a" y="174.528"/>
     <use style="fill:#0000ff;stroke:#0000ff;" x="325.44" xlink:href="#m7529e3ad4a" y="136.14802"/>
     <use style="fill:#0000ff;stroke:#0000ff;" x="236.16" xlink:href="#m7529e3ad4a" y="138.314464"/>
     <use style="fill:#0000ff;stroke:#0000ff;" x="236.16" xlink:href="#m7529e3ad4a" y="154.853823"/>
     <use style="fill:#0000ff;stroke:#0000ff;" x="325.44" xlink:href="#m7529e3ad4a" y="135.270757"/>
     <use style="fill:#0000ff;stroke:#0000ff;" x="247.147914" xlink:href="#m7529e3ad4a" y="174.528"/>
     <use style="fill:#0000ff;stroke:#0000ff;" x="252.958643" xlink:href="#m7529e3ad4a" y="174.528"/>
     <use style="fill:#0000ff;stroke:#0000ff;" x="325.44" xlink:href="#m7529e3ad4a" y="146.514119"/>
     <use style="fill:#0000ff;stroke:#0000ff;" x="325.44" xlink:href="#m7529e3ad4a" y="142.703236"/>
     <use style="fill:#0000ff;stroke:#0000ff;" x="251.76988" xlink:href="#m7529e3ad4a" y="174.528"/>
     <use style="fill:#0000ff;stroke:#0000ff;" x="236.16" xlink:href="#m7529e3ad4a" y="174.316099"/>
    </g>
   </g>
   <g id="matplotlib.axis_1">
    <g id="xtick_1">
     <g id="line2d_1">
      <defs>
       <path d="M 0 0 
L 0 3.5 
" id="mdb621295aa" style="stroke:#000000;stroke-width:0.8;"/>
      </defs>
      <g>
       <use style="stroke:#000000;stroke-width:0.8;" x="57.6" xlink:href="#mdb621295aa" y="307.584"/>
      </g>
     </g>
     <g id="text_1">
      <!-- −10.0 -->
      <defs>
       <path d="M 10.59375 35.5 
L 73.1875 35.5 
L 73.1875 27.203125 
L 10.59375 27.203125 
z
" id="DejaVuSans-2212"/>
       <path d="M 12.40625 8.296875 
L 28.515625 8.296875 
L 28.515625 63.921875 
L 10.984375 60.40625 
L 10.984375 69.390625 
L 28.421875 72.90625 
L 38.28125 72.90625 
L 38.28125 8.296875 
L 54.390625 8.296875 
L 54.390625 0 
L 12.40625 0 
z
" id="DejaVuSans-31"/>
       <path d="M 31.78125 66.40625 
Q 24.171875 66.40625 20.328125 58.90625 
Q 16.5 51.421875 16.5 36.375 
Q 16.5 21.390625 20.328125 13.890625 
Q 24.171875 6.390625 31.78125 6.390625 
Q 39.453125 6.390625 43.28125 13.890625 
Q 47.125 21.390625 47.125 36.375 
Q 47.125 51.421875 43.28125 58.90625 
Q 39.453125 66.40625 31.78125 66.40625 
z
M 31.78125 74.21875 
Q 44.046875 74.21875 50.515625 64.515625 
Q 56.984375 54.828125 56.984375 36.375 
Q 56.984375 17.96875 50.515625 8.265625 
Q 44.046875 -1.421875 31.78125 -1.421875 
Q 19.53125 -1.421875 13.0625 8.265625 
Q 6.59375 17.96875 6.59375 36.375 
Q 6.59375 54.828125 13.0625 64.515625 
Q 19.53125 74.21875 31.78125 74.21875 
z
" id="DejaVuSans-30"/>
       <path d="M 10.6875 12.40625 
L 21 12.40625 
L 21 0 
L 10.6875 0 
z
" id="DejaVuSans-2e"/>
      </defs>
      <g transform="translate(42.277344 322.182437)scale(0.1 -0.1)">
       <use xlink:href="#DejaVuSans-2212"/>
       <use x="83.789062" xlink:href="#DejaVuSans-31"/>
       <use x="147.412109" xlink:href="#DejaVuSans-30"/>
       <use x="211.035156" xlink:href="#DejaVuSans-2e"/>
       <use x="242.822266" xlink:href="#DejaVuSans-30"/>
      </g>
     </g>
    </g>
    <g id="xtick_2">
     <g id="line2d_2">
      <g>
       <use style="stroke:#000000;stroke-width:0.8;" x="102.24" xlink:href="#mdb621295aa" y="307.584"/>
      </g>
     </g>
     <g id="text_2">
      <!-- −7.5 -->
      <defs>
       <path d="M 8.203125 72.90625 
L 55.078125 72.90625 
L 55.078125 68.703125 
L 28.609375 0 
L 18.3125 0 
L 43.21875 64.59375 
L 8.203125 64.59375 
z
" id="DejaVuSans-37"/>
       <path d="M 10.796875 72.90625 
L 49.515625 72.90625 
L 49.515625 64.59375 
L 19.828125 64.59375 
L 19.828125 46.734375 
Q 21.96875 47.46875 24.109375 47.828125 
Q 26.265625 48.1875 28.421875 48.1875 
Q 40.625 48.1875 47.75 41.5 
Q 54.890625 34.8125 54.890625 23.390625 
Q 54.890625 11.625 47.5625 5.09375 
Q 40.234375 -1.421875 26.90625 -1.421875 
Q 22.3125 -1.421875 17.546875 -0.640625 
Q 12.796875 0.140625 7.71875 1.703125 
L 7.71875 11.625 
Q 12.109375 9.234375 16.796875 8.0625 
Q 21.484375 6.890625 26.703125 6.890625 
Q 35.15625 6.890625 40.078125 11.328125 
Q 45.015625 15.765625 45.015625 23.390625 
Q 45.015625 31 40.078125 35.4375 
Q 35.15625 39.890625 26.703125 39.890625 
Q 22.75 39.890625 18.8125 39.015625 
Q 14.890625 38.140625 10.796875 36.28125 
z
" id="DejaVuSans-35"/>
      </defs>
      <g transform="translate(90.098594 322.182437)scale(0.1 -0.1)">
       <use xlink:href="#DejaVuSans-2212"/>
       <use x="83.789062" xlink:href="#DejaVuSans-37"/>
       <use x="147.412109" xlink:href="#DejaVuSans-2e"/>
       <use x="179.199219" xlink:href="#DejaVuSans-35"/>
      </g>
     </g>
    </g>
    <g id="xtick_3">
     <g id="line2d_3">
      <g>
       <use style="stroke:#000000;stroke-width:0.8;" x="146.88" xlink:href="#mdb621295aa" y="307.584"/>
      </g>
     </g>
     <g id="text_3">
      <!-- −5.0 -->
      <g transform="translate(134.738594 322.182437)scale(0.1 -0.1)">
       <use xlink:href="#DejaVuSans-2212"/>
       <use x="83.789062" xlink:href="#DejaVuSans-35"/>
       <use x="147.412109" xlink:href="#DejaVuSans-2e"/>
       <use x="179.199219" xlink:href="#DejaVuSans-30"/>
      </g>
     </g>
    </g>
    <g id="xtick_4">
     <g id="line2d_4">
      <g>
       <use style="stroke:#000000;stroke-width:0.8;" x="191.52" xlink:href="#mdb621295aa" y="307.584"/>
      </g>
     </g>
     <g id="text_4">
      <!-- −2.5 -->
      <defs>
       <path d="M 19.1875 8.296875 
L 53.609375 8.296875 
L 53.609375 0 
L 7.328125 0 
L 7.328125 8.296875 
Q 12.9375 14.109375 22.625 23.890625 
Q 32.328125 33.6875 34.8125 36.53125 
Q 39.546875 41.84375 41.421875 45.53125 
Q 43.3125 49.21875 43.3125 52.78125 
Q 43.3125 58.59375 39.234375 62.25 
Q 35.15625 65.921875 28.609375 65.921875 
Q 23.96875 65.921875 18.8125 64.3125 
Q 13.671875 62.703125 7.8125 59.421875 
L 7.8125 69.390625 
Q 13.765625 71.78125 18.9375 73 
Q 24.125 74.21875 28.421875 74.21875 
Q 39.75 74.21875 46.484375 68.546875 
Q 53.21875 62.890625 53.21875 53.421875 
Q 53.21875 48.921875 51.53125 44.890625 
Q 49.859375 40.875 45.40625 35.40625 
Q 44.1875 33.984375 37.640625 27.21875 
Q 31.109375 20.453125 19.1875 8.296875 
z
" id="DejaVuSans-32"/>
      </defs>
      <g transform="translate(179.378594 322.182437)scale(0.1 -0.1)">
       <use xlink:href="#DejaVuSans-2212"/>
       <use x="83.789062" xlink:href="#DejaVuSans-32"/>
       <use x="147.412109" xlink:href="#DejaVuSans-2e"/>
       <use x="179.199219" xlink:href="#DejaVuSans-35"/>
      </g>
     </g>
    </g>
    <g id="xtick_5">
     <g id="line2d_5">
      <g>
       <use style="stroke:#000000;stroke-width:0.8;" x="236.16" xlink:href="#mdb621295aa" y="307.584"/>
      </g>
     </g>
     <g id="text_5">
      <!-- 0.0 -->
      <g transform="translate(228.208438 322.182437)scale(0.1 -0.1)">
       <use xlink:href="#DejaVuSans-30"/>
       <use x="63.623047" xlink:href="#DejaVuSans-2e"/>
       <use x="95.410156" xlink:href="#DejaVuSans-30"/>
      </g>
     </g>
    </g>
    <g id="xtick_6">
     <g id="line2d_6">
      <g>
       <use style="stroke:#000000;stroke-width:0.8;" x="280.8" xlink:href="#mdb621295aa" y="307.584"/>
      </g>
     </g>
     <g id="text_6">
      <!-- 2.5 -->
      <g transform="translate(272.848437 322.182437)scale(0.1 -0.1)">
       <use xlink:href="#DejaVuSans-32"/>
       <use x="63.623047" xlink:href="#DejaVuSans-2e"/>
       <use x="95.410156" xlink:href="#DejaVuSans-35"/>
      </g>
     </g>
    </g>
    <g id="xtick_7">
     <g id="line2d_7">
      <g>
       <use style="stroke:#000000;stroke-width:0.8;" x="325.44" xlink:href="#mdb621295aa" y="307.584"/>
      </g>
     </g>
     <g id="text_7">
      <!-- 5.0 -->
      <g transform="translate(317.488437 322.182437)scale(0.1 -0.1)">
       <use xlink:href="#DejaVuSans-35"/>
       <use x="63.623047" xlink:href="#DejaVuSans-2e"/>
       <use x="95.410156" xlink:href="#DejaVuSans-30"/>
      </g>
     </g>
    </g>
    <g id="xtick_8">
     <g id="line2d_8">
      <g>
       <use style="stroke:#000000;stroke-width:0.8;" x="370.08" xlink:href="#mdb621295aa" y="307.584"/>
      </g>
     </g>
     <g id="text_8">
      <!-- 7.5 -->
      <g transform="translate(362.128438 322.182437)scale(0.1 -0.1)">
       <use xlink:href="#DejaVuSans-37"/>
       <use x="63.623047" xlink:href="#DejaVuSans-2e"/>
       <use x="95.410156" xlink:href="#DejaVuSans-35"/>
      </g>
     </g>
    </g>
    <g id="xtick_9">
     <g id="line2d_9">
      <g>
       <use style="stroke:#000000;stroke-width:0.8;" x="414.72" xlink:href="#mdb621295aa" y="307.584"/>
      </g>
     </g>
     <g id="text_9">
      <!-- 10.0 -->
      <g transform="translate(403.587188 322.182437)scale(0.1 -0.1)">
       <use xlink:href="#DejaVuSans-31"/>
       <use x="63.623047" xlink:href="#DejaVuSans-30"/>
       <use x="127.246094" xlink:href="#DejaVuSans-2e"/>
       <use x="159.033203" xlink:href="#DejaVuSans-30"/>
      </g>
     </g>
    </g>
   </g>
   <g id="matplotlib.axis_2">
    <g id="ytick_1">
     <g id="line2d_10">
      <defs>
       <path d="M 0 0 
L -3.5 0 
" id="mc6287ca432" style="stroke:#000000;stroke-width:0.8;"/>
      </defs>
      <g>
       <use style="stroke:#000000;stroke-width:0.8;" x="57.6" xlink:href="#mc6287ca432" y="307.584"/>
      </g>
     </g>
     <g id="text_10">
      <!-- −10.0 -->
      <g transform="translate(19.954687 311.383219)scale(0.1 -0.1)">
       <use xlink:href="#DejaVuSans-2212"/>
       <use x="83.789062" xlink:href="#DejaVuSans-31"/>
       <use x="147.412109" xlink:href="#DejaVuSans-30"/>
       <use x="211.035156" xlink:href="#DejaVuSans-2e"/>
       <use x="242.822266" xlink:href="#DejaVuSans-30"/>
      </g>
     </g>
    </g>
    <g id="ytick_2">
     <g id="line2d_11">
      <g>
       <use style="stroke:#000000;stroke-width:0.8;" x="57.6" xlink:href="#mc6287ca432" y="274.32"/>
      </g>
     </g>
     <g id="text_11">
      <!-- −7.5 -->
      <g transform="translate(26.317187 278.119219)scale(0.1 -0.1)">
       <use xlink:href="#DejaVuSans-2212"/>
       <use x="83.789062" xlink:href="#DejaVuSans-37"/>
       <use x="147.412109" xlink:href="#DejaVuSans-2e"/>
       <use x="179.199219" xlink:href="#DejaVuSans-35"/>
      </g>
     </g>
    </g>
    <g id="ytick_3">
     <g id="line2d_12">
      <g>
       <use style="stroke:#000000;stroke-width:0.8;" x="57.6" xlink:href="#mc6287ca432" y="241.056"/>
      </g>
     </g>
     <g id="text_12">
      <!-- −5.0 -->
      <g transform="translate(26.317187 244.855219)scale(0.1 -0.1)">
       <use xlink:href="#DejaVuSans-2212"/>
       <use x="83.789062" xlink:href="#DejaVuSans-35"/>
       <use x="147.412109" xlink:href="#DejaVuSans-2e"/>
       <use x="179.199219" xlink:href="#DejaVuSans-30"/>
      </g>
     </g>
    </g>
    <g id="ytick_4">
     <g id="line2d_13">
      <g>
       <use style="stroke:#000000;stroke-width:0.8;" x="57.6" xlink:href="#mc6287ca432" y="207.792"/>
      </g>
     </g>
     <g id="text_13">
      <!-- −2.5 -->
      <g transform="translate(26.317187 211.591219)scale(0.1 -0.1)">
       <use xlink:href="#DejaVuSans-2212"/>
       <use x="83.789062" xlink:href="#DejaVuSans-32"/>
       <use x="147.412109" xlink:href="#DejaVuSans-2e"/>
       <use x="179.199219" xlink:href="#DejaVuSans-35"/>
      </g>
     </g>
    </g>
    <g id="ytick_5">
     <g id="line2d_14">
      <g>
       <use style="stroke:#000000;stroke-width:0.8;" x="57.6" xlink:href="#mc6287ca432" y="174.528"/>
      </g>
     </g>
     <g id="text_14">
      <!-- 0.0 -->
      <g transform="translate(34.696875 178.327219)scale(0.1 -0.1)">
       <use xlink:href="#DejaVuSans-30"/>
       <use x="63.623047" xlink:href="#DejaVuSans-2e"/>
       <use x="95.410156" xlink:href="#DejaVuSans-30"/>
      </g>
     </g>
    </g>
    <g id="ytick_6">
     <g id="line2d_15">
      <g>
       <use style="stroke:#000000;stroke-width:0.8;" x="57.6" xlink:href="#mc6287ca432" y="141.264"/>
      </g>
     </g>
     <g id="text_15">
      <!-- 2.5 -->
      <g transform="translate(34.696875 145.063219)scale(0.1 -0.1)">
       <use xlink:href="#DejaVuSans-32"/>
       <use x="63.623047" xlink:href="#DejaVuSans-2e"/>
       <use x="95.410156" xlink:href="#DejaVuSans-35"/>
      </g>
     </g>
    </g>
    <g id="ytick_7">
     <g id="line2d_16">
      <g>
       <use style="stroke:#000000;stroke-width:0.8;" x="57.6" xlink:href="#mc6287ca432" y="108"/>
      </g>
     </g>
     <g id="text_16">
      <!-- 5.0 -->
      <g transform="translate(34.696875 111.799219)scale(0.1 -0.1)">
       <use xlink:href="#DejaVuSans-35"/>
       <use x="63.623047" xlink:href="#DejaVuSans-2e"/>
       <use x="95.410156" xlink:href="#DejaVuSans-30"/>
      </g>
     </g>
    </g>
    <g id="ytick_8">
     <g id="line2d_17">
      <g>
       <use style="stroke:#000000;stroke-width:0.8;" x="57.6" xlink:href="#mc6287ca432" y="74.736"/>
      </g>
     </g>
     <g id="text_17">
      <!-- 7.5 -->
      <g transform="translate(34.696875 78.535219)scale(0.1 -0.1)">
       <use xlink:href="#DejaVuSans-37"/>
       <use x="63.623047" xlink:href="#DejaVuSans-2e"/>
       <use x="95.410156" xlink:href="#DejaVuSans-35"/>
      </g>
     </g>
    </g>
    <g id="ytick_9">
     <g id="line2d_18">
      <g>
       <use style="stroke:#000000;stroke-width:0.8;" x="57.6" xlink:href="#mc6287ca432" y="41.472"/>
      </g>
     </g>
     <g id="text_18">
      <!-- 10.0 -->
      <g transform="translate(28.334375 45.271219)scale(0.1 -0.1)">
       <use xlink:href="#DejaVuSans-31"/>
       <use x="63.623047" xlink:href="#DejaVuSans-30"/>
       <use x="127.246094" xlink:href="#DejaVuSans-2e"/>
       <use x="159.033203" xlink:href="#DejaVuSans-30"/>
      </g>
     </g>
    </g>
   </g>
   <g id="patch_3">
    <path d="M 57.6 307.584 
L 57.6 41.472 
" style="fill:none;stroke:#000000;stroke-linecap:square;stroke-linejoin:miter;stroke-width:0.8;"/>
   </g>
   <g id="patch_4">
    <path d="M 414.72 307.584 
L 414.72 41.472 
" style="fill:none;stroke:#000000;stroke-linecap:square;stroke-linejoin:miter;stroke-width:0.8;"/>
   </g>
   <g id="patch_5">
    <path d="M 57.6 307.584 
L 414.72 307.584 
" style="fill:none;stroke:#000000;stroke-linecap:square;stroke-linejoin:miter;stroke-width:0.8;"/>
   </g>
   <g id="patch_6">
    <path d="M 57.6 41.472 
L 414.72 41.472 
" style="fill:none;stroke:#000000;stroke-linecap:square;stroke-linejoin:miter;stroke-width:0.8;"/>
   </g>
  </g>
 </g>
 <defs>
  <clipPath id="pa71f331618">
   <rect height="266.112" width="357.12" x="57.6" y="41.472"/>
  </clipPath>
 </defs>
</svg>
