<?xml version="1.0" encoding="utf-8" standalone="no"?>
<!DOCTYPE svg PUBLIC "-//W3C//DTD SVG 1.1//EN"
  "http://www.w3.org/Graphics/SVG/1.1/DTD/svg11.dtd">
<!-- Created with matplotlib (http://matplotlib.org/) -->
<svg height="345.6pt" version="1.1" viewBox="0 0 460.8 345.6" width="460.8pt" xmlns="http://www.w3.org/2000/svg" xmlns:xlink="http://www.w3.org/1999/xlink">
 <defs>
  <style type="text/css">
*{stroke-linecap:butt;stroke-linejoin:round;}
  </style>
 </defs>
 <g id="figure_1">
  <g id="patch_1">
   <path d="M 0 345.6 
L 460.8 345.6 
L 460.8 0 
L 0 0 
z
" style="fill:#ffffff;"/>
  </g>
  <g id="axes_1">
   <g id="patch_2">
    <path d="M 57.6 307.584 
L 414.72 307.584 
L 414.72 41.472 
L 57.6 41.472 
z
" style="fill:#ffffff;"/>
   </g>
   <g id="PathCollection_1">
    <defs>
     <path d="M 0 0.612372 
C 0.162403 0.612372 0.318176 0.547849 0.433013 0.433013 
C 0.547849 0.318176 0.612372 0.162403 0.612372 0 
C 0.612372 -0.162403 0.547849 -0.318176 0.433013 -0.433013 
C 0.318176 -0.547849 0.162403 -0.612372 0 -0.612372 
C -0.162403 -0.612372 -0.318176 -0.547849 -0.433013 -0.433013 
C -0.547849 -0.318176 -0.612372 -0.162403 -0.612372 0 
C -0.612372 0.162403 -0.547849 0.318176 -0.433013 0.433013 
C -0.318176 0.547849 -0.162403 0.612372 0 0.612372 
z
" id="m57528fbd93" style="stroke:#000000;"/>
    </defs>
    <g clip-path="url(#pfc8587b7b5)">
     <use style="stroke:#000000;" x="240.023419" xlink:href="#m57528fbd93" y="174.253616"/>
     <use style="stroke:#000000;" x="240.302502" xlink:href="#m57528fbd93" y="174.515962"/>
     <use style="stroke:#000000;" x="247.750504" xlink:href="#m57528fbd93" y="171.843605"/>
     <use style="stroke:#000000;" x="240.80637" xlink:href="#m57528fbd93" y="174.437003"/>
     <use style="stroke:#000000;" x="237.291722" xlink:href="#m57528fbd93" y="174.528"/>
     <use style="stroke:#000000;" x="239.821286" xlink:href="#m57528fbd93" y="174.448823"/>
     <use style="stroke:#000000;" x="237.627936" xlink:href="#m57528fbd93" y="174.528"/>
     <use style="stroke:#000000;" x="240.583533" xlink:href="#m57528fbd93" y="174.528"/>
     <use style="stroke:#000000;" x="240.354867" xlink:href="#m57528fbd93" y="173.995129"/>
     <use style="stroke:#000000;" x="240.156972" xlink:href="#m57528fbd93" y="174.524875"/>
     <use style="stroke:#000000;" x="247.799997" xlink:href="#m57528fbd93" y="174.528"/>
     <use style="stroke:#000000;" x="240.412441" xlink:href="#m57528fbd93" y="174.528"/>
     <use style="stroke:#000000;" x="247.434111" xlink:href="#m57528fbd93" y="172.451898"/>
     <use style="stroke:#000000;" x="251.342222" xlink:href="#m57528fbd93" y="173.723876"/>
     <use style="stroke:#000000;" x="240.437276" xlink:href="#m57528fbd93" y="174.528"/>
     <use style="stroke:#000000;" x="247.749534" xlink:href="#m57528fbd93" y="173.952133"/>
     <use style="stroke:#000000;" x="240.5883" xlink:href="#m57528fbd93" y="173.937791"/>
     <use style="stroke:#000000;" x="243.800006" xlink:href="#m57528fbd93" y="171.707548"/>
     <use style="stroke:#000000;" x="244.285007" xlink:href="#m57528fbd93" y="173.16126"/>
     <use style="stroke:#000000;" x="240.618618" xlink:href="#m57528fbd93" y="174.528"/>
     <use style="stroke:#000000;" x="237.127391" xlink:href="#m57528fbd93" y="174.528"/>
     <use style="stroke:#000000;" x="237.228867" xlink:href="#m57528fbd93" y="173.288427"/>
     <use style="stroke:#000000;" x="244.128632" xlink:href="#m57528fbd93" y="172.403164"/>
     <use style="stroke:#000000;" x="236.60193" xlink:href="#m57528fbd93" y="174.528"/>
     <use style="stroke:#000000;" x="247.48064" xlink:href="#m57528fbd93" y="174.528"/>
     <use style="stroke:#000000;" x="240.184617" xlink:href="#m57528fbd93" y="174.528"/>
     <use style="stroke:#000000;" x="237.162049" xlink:href="#m57528fbd93" y="174.528"/>
     <use style="stroke:#000000;" x="247.757266" xlink:href="#m57528fbd93" y="172.117554"/>
     <use style="stroke:#000000;" x="237.50306" xlink:href="#m57528fbd93" y="174.227974"/>
     <use style="stroke:#000000;" x="237.596865" xlink:href="#m57528fbd93" y="174.528"/>
     <use style="stroke:#000000;" x="251.136154" xlink:href="#m57528fbd93" y="173.942026"/>
     <use style="stroke:#000000;" x="236.696108" xlink:href="#m57528fbd93" y="173.44238"/>
     <use style="stroke:#000000;" x="247.897973" xlink:href="#m57528fbd93" y="174.030282"/>
     <use style="stroke:#000000;" x="236.600481" xlink:href="#m57528fbd93" y="174.528"/>
     <use style="stroke:#000000;" x="240.175911" xlink:href="#m57528fbd93" y="174.393234"/>
     <use style="stroke:#000000;" x="247.461533" xlink:href="#m57528fbd93" y="174.528"/>
     <use style="stroke:#000000;" x="247.498431" xlink:href="#m57528fbd93" y="174.427732"/>
     <use style="stroke:#000000;" x="247.461537" xlink:href="#m57528fbd93" y="174.528"/>
     <use style="stroke:#000000;" x="236.16" xlink:href="#m57528fbd93" y="172.062163"/>
     <use style="stroke:#000000;" x="236.383681" xlink:href="#m57528fbd93" y="172.989408"/>
     <use style="stroke:#000000;" x="247.553764" xlink:href="#m57528fbd93" y="172.231076"/>
     <use style="stroke:#000000;" x="247.673248" xlink:href="#m57528fbd93" y="174.528"/>
     <use style="stroke:#000000;" x="236.787275" xlink:href="#m57528fbd93" y="174.528"/>
     <use style="stroke:#000000;" x="251.042935" xlink:href="#m57528fbd93" y="173.535222"/>
     <use style="stroke:#000000;" x="236.314698" xlink:href="#m57528fbd93" y="174.528"/>
     <use style="stroke:#000000;" x="244.118609" xlink:href="#m57528fbd93" y="171.455083"/>
     <use style="stroke:#000000;" x="239.944786" xlink:href="#m57528fbd93" y="174.528"/>
     <use style="stroke:#000000;" x="243.864958" xlink:href="#m57528fbd93" y="173.056699"/>
     <use style="stroke:#000000;" x="240.091259" xlink:href="#m57528fbd93" y="174.528"/>
     <use style="stroke:#000000;" x="239.996892" xlink:href="#m57528fbd93" y="174.528"/>
     <use style="stroke:#000000;" x="247.940611" xlink:href="#m57528fbd93" y="172.294271"/>
     <use style="stroke:#000000;" x="237.624585" xlink:href="#m57528fbd93" y="173.291914"/>
     <use style="stroke:#000000;" x="240.872053" xlink:href="#m57528fbd93" y="174.528"/>
     <use style="stroke:#000000;" x="240.174071" xlink:href="#m57528fbd93" y="173.936534"/>
     <use style="stroke:#000000;" x="247.826667" xlink:href="#m57528fbd93" y="174.528"/>
     <use style="stroke:#000000;" x="238.185034" xlink:href="#m57528fbd93" y="174.528"/>
     <use style="stroke:#000000;" x="243.653498" xlink:href="#m57528fbd93" y="173.735416"/>
     <use style="stroke:#000000;" x="239.752544" xlink:href="#m57528fbd93" y="174.528"/>
     <use style="stroke:#000000;" x="240.110679" xlink:href="#m57528fbd93" y="173.611753"/>
     <use style="stroke:#000000;" x="239.907784" xlink:href="#m57528fbd93" y="174.528"/>
     <use style="stroke:#000000;" x="239.457328" xlink:href="#m57528fbd93" y="174.528"/>
     <use style="stroke:#000000;" x="239.837795" xlink:href="#m57528fbd93" y="174.311945"/>
     <use style="stroke:#000000;" x="239.610538" xlink:href="#m57528fbd93" y="173.868452"/>
     <use style="stroke:#000000;" x="239.793463" xlink:href="#m57528fbd93" y="173.936002"/>
     <use style="stroke:#000000;" x="248.467728" xlink:href="#m57528fbd93" y="172.691974"/>
     <use style="stroke:#000000;" x="239.825819" xlink:href="#m57528fbd93" y="174.35871"/>
     <use style="stroke:#000000;" x="237.462987" xlink:href="#m57528fbd93" y="174.528"/>
     <use style="stroke:#000000;" x="237.939128" xlink:href="#m57528fbd93" y="174.412246"/>
     <use style="stroke:#000000;" x="240.764401" xlink:href="#m57528fbd93" y="174.528"/>
     <use style="stroke:#000000;" x="241.300134" xlink:href="#m57528fbd93" y="174.528"/>
     <use style="stroke:#000000;" x="237.84592" xlink:href="#m57528fbd93" y="173.462829"/>
     <use style="stroke:#000000;" x="237.758877" xlink:href="#m57528fbd93" y="173.536819"/>
     <use style="stroke:#000000;" x="241.739287" xlink:href="#m57528fbd93" y="173.887507"/>
     <use style="stroke:#000000;" x="239.525919" xlink:href="#m57528fbd93" y="174.528"/>
     <use style="stroke:#000000;" x="239.624356" xlink:href="#m57528fbd93" y="174.528"/>
     <use style="stroke:#000000;" x="249.418806" xlink:href="#m57528fbd93" y="174.528"/>
     <use style="stroke:#000000;" x="241.407849" xlink:href="#m57528fbd93" y="174.528"/>
     <use style="stroke:#000000;" x="240.054149" xlink:href="#m57528fbd93" y="173.513503"/>
     <use style="stroke:#000000;" x="246.533747" xlink:href="#m57528fbd93" y="173.122665"/>
     <use style="stroke:#000000;" x="248.850833" xlink:href="#m57528fbd93" y="171.753162"/>
     <use style="stroke:#000000;" x="251.217876" xlink:href="#m57528fbd93" y="172.895244"/>
     <use style="stroke:#000000;" x="240.13419" xlink:href="#m57528fbd93" y="173.830655"/>
     <use style="stroke:#000000;" x="240.513069" xlink:href="#m57528fbd93" y="174.528"/>
     <use style="stroke:#000000;" x="247.242993" xlink:href="#m57528fbd93" y="174.05828"/>
     <use style="stroke:#000000;" x="247.329367" xlink:href="#m57528fbd93" y="173.436819"/>
     <use style="stroke:#000000;" x="239.854027" xlink:href="#m57528fbd93" y="173.863809"/>
     <use style="stroke:#000000;" x="239.018802" xlink:href="#m57528fbd93" y="174.029181"/>
     <use style="stroke:#000000;" x="244.483689" xlink:href="#m57528fbd93" y="171.682209"/>
     <use style="stroke:#000000;" x="243.769192" xlink:href="#m57528fbd93" y="171.929818"/>
     <use style="stroke:#000000;" x="245.134216" xlink:href="#m57528fbd93" y="173.053223"/>
     <use style="stroke:#000000;" x="243.807018" xlink:href="#m57528fbd93" y="172.709267"/>
     <use style="stroke:#000000;" x="239.402124" xlink:href="#m57528fbd93" y="174.528"/>
     <use style="stroke:#000000;" x="241.933686" xlink:href="#m57528fbd93" y="173.869365"/>
     <use style="stroke:#000000;" x="236.16" xlink:href="#m57528fbd93" y="174.439892"/>
     <use style="stroke:#000000;" x="237.587743" xlink:href="#m57528fbd93" y="173.739943"/>
     <use style="stroke:#000000;" x="237.418596" xlink:href="#m57528fbd93" y="173.265153"/>
     <use style="stroke:#000000;" x="237.879261" xlink:href="#m57528fbd93" y="172.642026"/>
     <use style="stroke:#000000;" x="242.639289" xlink:href="#m57528fbd93" y="173.19342"/>
     <use style="stroke:#000000;" x="243.852979" xlink:href="#m57528fbd93" y="172.932414"/>
     <use style="stroke:#000000;" x="243.966464" xlink:href="#m57528fbd93" y="172.762846"/>
     <use style="stroke:#000000;" x="236.588038" xlink:href="#m57528fbd93" y="174.528"/>
     <use style="stroke:#000000;" x="237.248123" xlink:href="#m57528fbd93" y="174.517706"/>
     <use style="stroke:#000000;" x="238.154842" xlink:href="#m57528fbd93" y="174.356833"/>
     <use style="stroke:#000000;" x="247.793753" xlink:href="#m57528fbd93" y="174.528"/>
     <use style="stroke:#000000;" x="248.419721" xlink:href="#m57528fbd93" y="174.232079"/>
     <use style="stroke:#000000;" x="247.977959" xlink:href="#m57528fbd93" y="173.99505"/>
     <use style="stroke:#000000;" x="239.164733" xlink:href="#m57528fbd93" y="174.241839"/>
     <use style="stroke:#000000;" x="238.776444" xlink:href="#m57528fbd93" y="174.528"/>
     <use style="stroke:#000000;" x="241.195367" xlink:href="#m57528fbd93" y="174.418148"/>
     <use style="stroke:#000000;" x="237.381313" xlink:href="#m57528fbd93" y="174.528"/>
     <use style="stroke:#000000;" x="236.852299" xlink:href="#m57528fbd93" y="174.528"/>
     <use style="stroke:#000000;" x="236.501031" xlink:href="#m57528fbd93" y="174.219778"/>
     <use style="stroke:#000000;" x="246.885984" xlink:href="#m57528fbd93" y="172.555963"/>
     <use style="stroke:#000000;" x="247.675843" xlink:href="#m57528fbd93" y="170.879448"/>
     <use style="stroke:#000000;" x="237.885438" xlink:href="#m57528fbd93" y="174.528"/>
     <use style="stroke:#000000;" x="237.722947" xlink:href="#m57528fbd93" y="174.424694"/>
     <use style="stroke:#000000;" x="239.859474" xlink:href="#m57528fbd93" y="174.044382"/>
     <use style="stroke:#000000;" x="237.43509" xlink:href="#m57528fbd93" y="174.528"/>
     <use style="stroke:#000000;" x="251.720178" xlink:href="#m57528fbd93" y="174.528"/>
     <use style="stroke:#000000;" x="251.518196" xlink:href="#m57528fbd93" y="174.273721"/>
     <use style="stroke:#000000;" x="236.16" xlink:href="#m57528fbd93" y="173.337418"/>
     <use style="stroke:#000000;" x="236.179561" xlink:href="#m57528fbd93" y="173.293878"/>
     <use style="stroke:#000000;" x="249.235979" xlink:href="#m57528fbd93" y="172.860142"/>
     <use style="stroke:#000000;" x="247.713351" xlink:href="#m57528fbd93" y="174.528"/>
     <use style="stroke:#000000;" x="237.070037" xlink:href="#m57528fbd93" y="174.528"/>
     <use style="stroke:#000000;" x="236.429702" xlink:href="#m57528fbd93" y="174.528"/>
     <use style="stroke:#000000;" x="240.370487" xlink:href="#m57528fbd93" y="174.528"/>
     <use style="stroke:#000000;" x="240.559723" xlink:href="#m57528fbd93" y="174.528"/>
     <use style="stroke:#000000;" x="240.851738" xlink:href="#m57528fbd93" y="174.410515"/>
     <use style="stroke:#000000;" x="248.185109" xlink:href="#m57528fbd93" y="174.005149"/>
     <use style="stroke:#000000;" x="247.879895" xlink:href="#m57528fbd93" y="174.395135"/>
     <use style="stroke:#000000;" x="247.356623" xlink:href="#m57528fbd93" y="174.528"/>
     <use style="stroke:#000000;" x="247.154135" xlink:href="#m57528fbd93" y="174.528"/>
     <use style="stroke:#000000;" x="246.964665" xlink:href="#m57528fbd93" y="174.264452"/>
     <use style="stroke:#000000;" x="247.689846" xlink:href="#m57528fbd93" y="174.528"/>
     <use style="stroke:#000000;" x="246.829293" xlink:href="#m57528fbd93" y="173.981139"/>
     <use style="stroke:#000000;" x="247.41562" xlink:href="#m57528fbd93" y="174.528"/>
     <use style="stroke:#000000;" x="247.810903" xlink:href="#m57528fbd93" y="174.528"/>
     <use style="stroke:#000000;" x="237.3427" xlink:href="#m57528fbd93" y="171.396354"/>
     <use style="stroke:#000000;" x="236.651234" xlink:href="#m57528fbd93" y="171.796092"/>
     <use style="stroke:#000000;" x="236.61715" xlink:href="#m57528fbd93" y="172.673903"/>
     <use style="stroke:#000000;" x="236.16" xlink:href="#m57528fbd93" y="173.234841"/>
     <use style="stroke:#000000;" x="236.16" xlink:href="#m57528fbd93" y="173.183384"/>
     <use style="stroke:#000000;" x="236.16" xlink:href="#m57528fbd93" y="172.237414"/>
     <use style="stroke:#000000;" x="247.498983" xlink:href="#m57528fbd93" y="170.946592"/>
     <use style="stroke:#000000;" x="248.388228" xlink:href="#m57528fbd93" y="172.46512"/>
     <use style="stroke:#000000;" x="248.355652" xlink:href="#m57528fbd93" y="172.624379"/>
     <use style="stroke:#000000;" x="248.572101" xlink:href="#m57528fbd93" y="174.095693"/>
     <use style="stroke:#000000;" x="247.41296" xlink:href="#m57528fbd93" y="174.528"/>
     <use style="stroke:#000000;" x="248.101713" xlink:href="#m57528fbd93" y="174.025125"/>
     <use style="stroke:#000000;" x="236.336084" xlink:href="#m57528fbd93" y="174.235479"/>
     <use style="stroke:#000000;" x="236.950182" xlink:href="#m57528fbd93" y="174.528"/>
     <use style="stroke:#000000;" x="236.16" xlink:href="#m57528fbd93" y="174.145678"/>
     <use style="stroke:#000000;" x="251.564521" xlink:href="#m57528fbd93" y="173.464687"/>
     <use style="stroke:#000000;" x="250.995131" xlink:href="#m57528fbd93" y="173.590372"/>
     <use style="stroke:#000000;" x="251.594441" xlink:href="#m57528fbd93" y="173.643792"/>
     <use style="stroke:#000000;" x="236.16" xlink:href="#m57528fbd93" y="174.069513"/>
     <use style="stroke:#000000;" x="236.199623" xlink:href="#m57528fbd93" y="174.528"/>
     <use style="stroke:#000000;" x="237.161183" xlink:href="#m57528fbd93" y="174.296036"/>
     <use style="stroke:#000000;" x="243.244386" xlink:href="#m57528fbd93" y="171.004029"/>
     <use style="stroke:#000000;" x="244.817029" xlink:href="#m57528fbd93" y="171.564416"/>
     <use style="stroke:#000000;" x="244.129565" xlink:href="#m57528fbd93" y="172.344105"/>
     <use style="stroke:#000000;" x="240.360341" xlink:href="#m57528fbd93" y="174.518372"/>
     <use style="stroke:#000000;" x="239.408351" xlink:href="#m57528fbd93" y="174.528"/>
     <use style="stroke:#000000;" x="239.3584" xlink:href="#m57528fbd93" y="174.249137"/>
     <use style="stroke:#000000;" x="243.55361" xlink:href="#m57528fbd93" y="172.891835"/>
     <use style="stroke:#000000;" x="243.598513" xlink:href="#m57528fbd93" y="172.836885"/>
     <use style="stroke:#000000;" x="243.845648" xlink:href="#m57528fbd93" y="173.254882"/>
     <use style="stroke:#000000;" x="244.71404" xlink:href="#m57528fbd93" y="173.567412"/>
     <use style="stroke:#000000;" x="241.305749" xlink:href="#m57528fbd93" y="174.528"/>
     <use style="stroke:#000000;" x="238.831818" xlink:href="#m57528fbd93" y="173.422217"/>
     <use style="stroke:#000000;" x="247.284086" xlink:href="#m57528fbd93" y="171.943716"/>
     <use style="stroke:#000000;" x="239.109478" xlink:href="#m57528fbd93" y="173.121577"/>
     <use style="stroke:#000000;" x="241.714582" xlink:href="#m57528fbd93" y="173.863181"/>
     <use style="stroke:#000000;" x="238.772209" xlink:href="#m57528fbd93" y="172.785461"/>
     <use style="stroke:#000000;" x="248.327275" xlink:href="#m57528fbd93" y="174.528"/>
     <use style="stroke:#000000;" x="237.006084" xlink:href="#m57528fbd93" y="174.528"/>
     <use style="stroke:#000000;" x="244.668519" xlink:href="#m57528fbd93" y="174.528"/>
     <use style="stroke:#000000;" x="238.554101" xlink:href="#m57528fbd93" y="174.528"/>
     <use style="stroke:#000000;" x="239.949411" xlink:href="#m57528fbd93" y="174.528"/>
     <use style="stroke:#000000;" x="241.455595" xlink:href="#m57528fbd93" y="173.904318"/>
    </g>
   </g>
   <g id="PathCollection_2">
    <defs>
     <path d="M 0 0.935414 
C 0.248075 0.935414 0.486022 0.836853 0.661438 0.661438 
C 0.836853 0.486022 0.935414 0.248075 0.935414 0 
C 0.935414 -0.248075 0.836853 -0.486022 0.661438 -0.661438 
C 0.486022 -0.836853 0.248075 -0.935414 0 -0.935414 
C -0.248075 -0.935414 -0.486022 -0.836853 -0.661438 -0.661438 
C -0.836853 -0.486022 -0.935414 -0.248075 -0.935414 0 
C -0.935414 0.248075 -0.836853 0.486022 -0.661438 0.661438 
C -0.486022 0.836853 -0.248075 0.935414 0 0.935414 
z
" id="m5aaf07c9bf" style="stroke:#0000ff;"/>
    </defs>
    <g clip-path="url(#pfc8587b7b5)">
     <use style="fill:#0000ff;stroke:#0000ff;" x="240.023419" xlink:href="#m5aaf07c9bf" y="174.253616"/>
     <use style="fill:#0000ff;stroke:#0000ff;" x="240.302502" xlink:href="#m5aaf07c9bf" y="174.515962"/>
     <use style="fill:#0000ff;stroke:#0000ff;" x="247.750504" xlink:href="#m5aaf07c9bf" y="171.843605"/>
     <use style="fill:#0000ff;stroke:#0000ff;" x="240.80637" xlink:href="#m5aaf07c9bf" y="174.437003"/>
     <use style="fill:#0000ff;stroke:#0000ff;" x="237.291722" xlink:href="#m5aaf07c9bf" y="174.528"/>
     <use style="fill:#0000ff;stroke:#0000ff;" x="239.821286" xlink:href="#m5aaf07c9bf" y="174.448823"/>
     <use style="fill:#0000ff;stroke:#0000ff;" x="237.627936" xlink:href="#m5aaf07c9bf" y="174.528"/>
     <use style="fill:#0000ff;stroke:#0000ff;" x="240.583533" xlink:href="#m5aaf07c9bf" y="174.528"/>
     <use style="fill:#0000ff;stroke:#0000ff;" x="240.354867" xlink:href="#m5aaf07c9bf" y="173.995129"/>
     <use style="fill:#0000ff;stroke:#0000ff;" x="240.156972" xlink:href="#m5aaf07c9bf" y="174.524875"/>
     <use style="fill:#0000ff;stroke:#0000ff;" x="247.799997" xlink:href="#m5aaf07c9bf" y="174.528"/>
     <use style="fill:#0000ff;stroke:#0000ff;" x="240.412441" xlink:href="#m5aaf07c9bf" y="174.528"/>
     <use style="fill:#0000ff;stroke:#0000ff;" x="247.434111" xlink:href="#m5aaf07c9bf" y="172.451898"/>
     <use style="fill:#0000ff;stroke:#0000ff;" x="251.342222" xlink:href="#m5aaf07c9bf" y="173.723876"/>
     <use style="fill:#0000ff;stroke:#0000ff;" x="240.437276" xlink:href="#m5aaf07c9bf" y="174.528"/>
     <use style="fill:#0000ff;stroke:#0000ff;" x="247.749534" xlink:href="#m5aaf07c9bf" y="173.952133"/>
     <use style="fill:#0000ff;stroke:#0000ff;" x="240.5883" xlink:href="#m5aaf07c9bf" y="173.937791"/>
     <use style="fill:#0000ff;stroke:#0000ff;" x="243.800006" xlink:href="#m5aaf07c9bf" y="171.707548"/>
     <use style="fill:#0000ff;stroke:#0000ff;" x="244.285007" xlink:href="#m5aaf07c9bf" y="173.16126"/>
     <use style="fill:#0000ff;stroke:#0000ff;" x="240.618618" xlink:href="#m5aaf07c9bf" y="174.528"/>
     <use style="fill:#0000ff;stroke:#0000ff;" x="237.127391" xlink:href="#m5aaf07c9bf" y="174.528"/>
     <use style="fill:#0000ff;stroke:#0000ff;" x="237.228867" xlink:href="#m5aaf07c9bf" y="173.288427"/>
     <use style="fill:#0000ff;stroke:#0000ff;" x="244.128632" xlink:href="#m5aaf07c9bf" y="172.403164"/>
     <use style="fill:#0000ff;stroke:#0000ff;" x="236.60193" xlink:href="#m5aaf07c9bf" y="174.528"/>
     <use style="fill:#0000ff;stroke:#0000ff;" x="247.48064" xlink:href="#m5aaf07c9bf" y="174.528"/>
     <use style="fill:#0000ff;stroke:#0000ff;" x="240.184617" xlink:href="#m5aaf07c9bf" y="174.528"/>
     <use style="fill:#0000ff;stroke:#0000ff;" x="237.162049" xlink:href="#m5aaf07c9bf" y="174.528"/>
     <use style="fill:#0000ff;stroke:#0000ff;" x="247.757266" xlink:href="#m5aaf07c9bf" y="172.117554"/>
     <use style="fill:#0000ff;stroke:#0000ff;" x="237.50306" xlink:href="#m5aaf07c9bf" y="174.227974"/>
     <use style="fill:#0000ff;stroke:#0000ff;" x="237.596865" xlink:href="#m5aaf07c9bf" y="174.528"/>
     <use style="fill:#0000ff;stroke:#0000ff;" x="251.136154" xlink:href="#m5aaf07c9bf" y="173.942026"/>
     <use style="fill:#0000ff;stroke:#0000ff;" x="236.696108" xlink:href="#m5aaf07c9bf" y="173.44238"/>
     <use style="fill:#0000ff;stroke:#0000ff;" x="247.897973" xlink:href="#m5aaf07c9bf" y="174.030282"/>
     <use style="fill:#0000ff;stroke:#0000ff;" x="236.600481" xlink:href="#m5aaf07c9bf" y="174.528"/>
     <use style="fill:#0000ff;stroke:#0000ff;" x="240.175911" xlink:href="#m5aaf07c9bf" y="174.393234"/>
     <use style="fill:#0000ff;stroke:#0000ff;" x="247.461533" xlink:href="#m5aaf07c9bf" y="174.528"/>
     <use style="fill:#0000ff;stroke:#0000ff;" x="247.498431" xlink:href="#m5aaf07c9bf" y="174.427732"/>
     <use style="fill:#0000ff;stroke:#0000ff;" x="247.461537" xlink:href="#m5aaf07c9bf" y="174.528"/>
     <use style="fill:#0000ff;stroke:#0000ff;" x="236.16" xlink:href="#m5aaf07c9bf" y="172.062163"/>
     <use style="fill:#0000ff;stroke:#0000ff;" x="236.383681" xlink:href="#m5aaf07c9bf" y="172.989408"/>
     <use style="fill:#0000ff;stroke:#0000ff;" x="247.553764" xlink:href="#m5aaf07c9bf" y="172.231076"/>
     <use style="fill:#0000ff;stroke:#0000ff;" x="247.673248" xlink:href="#m5aaf07c9bf" y="174.528"/>
     <use style="fill:#0000ff;stroke:#0000ff;" x="236.787275" xlink:href="#m5aaf07c9bf" y="174.528"/>
     <use style="fill:#0000ff;stroke:#0000ff;" x="251.042935" xlink:href="#m5aaf07c9bf" y="173.535222"/>
     <use style="fill:#0000ff;stroke:#0000ff;" x="236.314698" xlink:href="#m5aaf07c9bf" y="174.528"/>
     <use style="fill:#0000ff;stroke:#0000ff;" x="244.118609" xlink:href="#m5aaf07c9bf" y="171.455083"/>
     <use style="fill:#0000ff;stroke:#0000ff;" x="239.944786" xlink:href="#m5aaf07c9bf" y="174.528"/>
     <use style="fill:#0000ff;stroke:#0000ff;" x="243.864958" xlink:href="#m5aaf07c9bf" y="173.056699"/>
     <use style="fill:#0000ff;stroke:#0000ff;" x="240.091259" xlink:href="#m5aaf07c9bf" y="174.528"/>
     <use style="fill:#0000ff;stroke:#0000ff;" x="239.996892" xlink:href="#m5aaf07c9bf" y="174.528"/>
     <use style="fill:#0000ff;stroke:#0000ff;" x="247.940611" xlink:href="#m5aaf07c9bf" y="172.294271"/>
     <use style="fill:#0000ff;stroke:#0000ff;" x="237.624585" xlink:href="#m5aaf07c9bf" y="173.291914"/>
     <use style="fill:#0000ff;stroke:#0000ff;" x="240.872053" xlink:href="#m5aaf07c9bf" y="174.528"/>
     <use style="fill:#0000ff;stroke:#0000ff;" x="240.174071" xlink:href="#m5aaf07c9bf" y="173.936534"/>
     <use style="fill:#0000ff;stroke:#0000ff;" x="247.826667" xlink:href="#m5aaf07c9bf" y="174.528"/>
     <use style="fill:#0000ff;stroke:#0000ff;" x="238.185034" xlink:href="#m5aaf07c9bf" y="174.528"/>
     <use style="fill:#0000ff;stroke:#0000ff;" x="243.653498" xlink:href="#m5aaf07c9bf" y="173.735416"/>
     <use style="fill:#0000ff;stroke:#0000ff;" x="239.752544" xlink:href="#m5aaf07c9bf" y="174.528"/>
     <use style="fill:#0000ff;stroke:#0000ff;" x="240.110679" xlink:href="#m5aaf07c9bf" y="173.611753"/>
     <use style="fill:#0000ff;stroke:#0000ff;" x="239.907784" xlink:href="#m5aaf07c9bf" y="174.528"/>
    </g>
   </g>
   <g id="matplotlib.axis_1">
    <g id="xtick_1">
     <g id="line2d_1">
      <defs>
       <path d="M 0 0 
L 0 3.5 
" id="m00dc341e93" style="stroke:#000000;stroke-width:0.8;"/>
      </defs>
      <g>
       <use style="stroke:#000000;stroke-width:0.8;" x="57.6" xlink:href="#m00dc341e93" y="307.584"/>
      </g>
     </g>
     <g id="text_1">
      <!-- −10.0 -->
      <defs>
       <path d="M 10.59375 35.5 
L 73.1875 35.5 
L 73.1875 27.203125 
L 10.59375 27.203125 
z
" id="DejaVuSans-2212"/>
       <path d="M 12.40625 8.296875 
L 28.515625 8.296875 
L 28.515625 63.921875 
L 10.984375 60.40625 
L 10.984375 69.390625 
L 28.421875 72.90625 
L 38.28125 72.90625 
L 38.28125 8.296875 
L 54.390625 8.296875 
L 54.390625 0 
L 12.40625 0 
z
" id="DejaVuSans-31"/>
       <path d="M 31.78125 66.40625 
Q 24.171875 66.40625 20.328125 58.90625 
Q 16.5 51.421875 16.5 36.375 
Q 16.5 21.390625 20.328125 13.890625 
Q 24.171875 6.390625 31.78125 6.390625 
Q 39.453125 6.390625 43.28125 13.890625 
Q 47.125 21.390625 47.125 36.375 
Q 47.125 51.421875 43.28125 58.90625 
Q 39.453125 66.40625 31.78125 66.40625 
z
M 31.78125 74.21875 
Q 44.046875 74.21875 50.515625 64.515625 
Q 56.984375 54.828125 56.984375 36.375 
Q 56.984375 17.96875 50.515625 8.265625 
Q 44.046875 -1.421875 31.78125 -1.421875 
Q 19.53125 -1.421875 13.0625 8.265625 
Q 6.59375 17.96875 6.59375 36.375 
Q 6.59375 54.828125 13.0625 64.515625 
Q 19.53125 74.21875 31.78125 74.21875 
z
" id="DejaVuSans-30"/>
       <path d="M 10.6875 12.40625 
L 21 12.40625 
L 21 0 
L 10.6875 0 
z
" id="DejaVuSans-2e"/>
      </defs>
      <g transform="translate(42.277344 322.182437)scale(0.1 -0.1)">
       <use xlink:href="#DejaVuSans-2212"/>
       <use x="83.789062" xlink:href="#DejaVuSans-31"/>
       <use x="147.412109" xlink:href="#DejaVuSans-30"/>
       <use x="211.035156" xlink:href="#DejaVuSans-2e"/>
       <use x="242.822266" xlink:href="#DejaVuSans-30"/>
      </g>
     </g>
    </g>
    <g id="xtick_2">
     <g id="line2d_2">
      <g>
       <use style="stroke:#000000;stroke-width:0.8;" x="102.24" xlink:href="#m00dc341e93" y="307.584"/>
      </g>
     </g>
     <g id="text_2">
      <!-- −7.5 -->
      <defs>
       <path d="M 8.203125 72.90625 
L 55.078125 72.90625 
L 55.078125 68.703125 
L 28.609375 0 
L 18.3125 0 
L 43.21875 64.59375 
L 8.203125 64.59375 
z
" id="DejaVuSans-37"/>
       <path d="M 10.796875 72.90625 
L 49.515625 72.90625 
L 49.515625 64.59375 
L 19.828125 64.59375 
L 19.828125 46.734375 
Q 21.96875 47.46875 24.109375 47.828125 
Q 26.265625 48.1875 28.421875 48.1875 
Q 40.625 48.1875 47.75 41.5 
Q 54.890625 34.8125 54.890625 23.390625 
Q 54.890625 11.625 47.5625 5.09375 
Q 40.234375 -1.421875 26.90625 -1.421875 
Q 22.3125 -1.421875 17.546875 -0.640625 
Q 12.796875 0.140625 7.71875 1.703125 
L 7.71875 11.625 
Q 12.109375 9.234375 16.796875 8.0625 
Q 21.484375 6.890625 26.703125 6.890625 
Q 35.15625 6.890625 40.078125 11.328125 
Q 45.015625 15.765625 45.015625 23.390625 
Q 45.015625 31 40.078125 35.4375 
Q 35.15625 39.890625 26.703125 39.890625 
Q 22.75 39.890625 18.8125 39.015625 
Q 14.890625 38.140625 10.796875 36.28125 
z
" id="DejaVuSans-35"/>
      </defs>
      <g transform="translate(90.098594 322.182437)scale(0.1 -0.1)">
       <use xlink:href="#DejaVuSans-2212"/>
       <use x="83.789062" xlink:href="#DejaVuSans-37"/>
       <use x="147.412109" xlink:href="#DejaVuSans-2e"/>
       <use x="179.199219" xlink:href="#DejaVuSans-35"/>
      </g>
     </g>
    </g>
    <g id="xtick_3">
     <g id="line2d_3">
      <g>
       <use style="stroke:#000000;stroke-width:0.8;" x="146.88" xlink:href="#m00dc341e93" y="307.584"/>
      </g>
     </g>
     <g id="text_3">
      <!-- −5.0 -->
      <g transform="translate(134.738594 322.182437)scale(0.1 -0.1)">
       <use xlink:href="#DejaVuSans-2212"/>
       <use x="83.789062" xlink:href="#DejaVuSans-35"/>
       <use x="147.412109" xlink:href="#DejaVuSans-2e"/>
       <use x="179.199219" xlink:href="#DejaVuSans-30"/>
      </g>
     </g>
    </g>
    <g id="xtick_4">
     <g id="line2d_4">
      <g>
       <use style="stroke:#000000;stroke-width:0.8;" x="191.52" xlink:href="#m00dc341e93" y="307.584"/>
      </g>
     </g>
     <g id="text_4">
      <!-- −2.5 -->
      <defs>
       <path d="M 19.1875 8.296875 
L 53.609375 8.296875 
L 53.609375 0 
L 7.328125 0 
L 7.328125 8.296875 
Q 12.9375 14.109375 22.625 23.890625 
Q 32.328125 33.6875 34.8125 36.53125 
Q 39.546875 41.84375 41.421875 45.53125 
Q 43.3125 49.21875 43.3125 52.78125 
Q 43.3125 58.59375 39.234375 62.25 
Q 35.15625 65.921875 28.609375 65.921875 
Q 23.96875 65.921875 18.8125 64.3125 
Q 13.671875 62.703125 7.8125 59.421875 
L 7.8125 69.390625 
Q 13.765625 71.78125 18.9375 73 
Q 24.125 74.21875 28.421875 74.21875 
Q 39.75 74.21875 46.484375 68.546875 
Q 53.21875 62.890625 53.21875 53.421875 
Q 53.21875 48.921875 51.53125 44.890625 
Q 49.859375 40.875 45.40625 35.40625 
Q 44.1875 33.984375 37.640625 27.21875 
Q 31.109375 20.453125 19.1875 8.296875 
z
" id="DejaVuSans-32"/>
      </defs>
      <g transform="translate(179.378594 322.182437)scale(0.1 -0.1)">
       <use xlink:href="#DejaVuSans-2212"/>
       <use x="83.789062" xlink:href="#DejaVuSans-32"/>
       <use x="147.412109" xlink:href="#DejaVuSans-2e"/>
       <use x="179.199219" xlink:href="#DejaVuSans-35"/>
      </g>
     </g>
    </g>
    <g id="xtick_5">
     <g id="line2d_5">
      <g>
       <use style="stroke:#000000;stroke-width:0.8;" x="236.16" xlink:href="#m00dc341e93" y="307.584"/>
      </g>
     </g>
     <g id="text_5">
      <!-- 0.0 -->
      <g transform="translate(228.208438 322.182437)scale(0.1 -0.1)">
       <use xlink:href="#DejaVuSans-30"/>
       <use x="63.623047" xlink:href="#DejaVuSans-2e"/>
       <use x="95.410156" xlink:href="#DejaVuSans-30"/>
      </g>
     </g>
    </g>
    <g id="xtick_6">
     <g id="line2d_6">
      <g>
       <use style="stroke:#000000;stroke-width:0.8;" x="280.8" xlink:href="#m00dc341e93" y="307.584"/>
      </g>
     </g>
     <g id="text_6">
      <!-- 2.5 -->
      <g transform="translate(272.848437 322.182437)scale(0.1 -0.1)">
       <use xlink:href="#DejaVuSans-32"/>
       <use x="63.623047" xlink:href="#DejaVuSans-2e"/>
       <use x="95.410156" xlink:href="#DejaVuSans-35"/>
      </g>
     </g>
    </g>
    <g id="xtick_7">
     <g id="line2d_7">
      <g>
       <use style="stroke:#000000;stroke-width:0.8;" x="325.44" xlink:href="#m00dc341e93" y="307.584"/>
      </g>
     </g>
     <g id="text_7">
      <!-- 5.0 -->
      <g transform="translate(317.488437 322.182437)scale(0.1 -0.1)">
       <use xlink:href="#DejaVuSans-35"/>
       <use x="63.623047" xlink:href="#DejaVuSans-2e"/>
       <use x="95.410156" xlink:href="#DejaVuSans-30"/>
      </g>
     </g>
    </g>
    <g id="xtick_8">
     <g id="line2d_8">
      <g>
       <use style="stroke:#000000;stroke-width:0.8;" x="370.08" xlink:href="#m00dc341e93" y="307.584"/>
      </g>
     </g>
     <g id="text_8">
      <!-- 7.5 -->
      <g transform="translate(362.128438 322.182437)scale(0.1 -0.1)">
       <use xlink:href="#DejaVuSans-37"/>
       <use x="63.623047" xlink:href="#DejaVuSans-2e"/>
       <use x="95.410156" xlink:href="#DejaVuSans-35"/>
      </g>
     </g>
    </g>
    <g id="xtick_9">
     <g id="line2d_9">
      <g>
       <use style="stroke:#000000;stroke-width:0.8;" x="414.72" xlink:href="#m00dc341e93" y="307.584"/>
      </g>
     </g>
     <g id="text_9">
      <!-- 10.0 -->
      <g transform="translate(403.587188 322.182437)scale(0.1 -0.1)">
       <use xlink:href="#DejaVuSans-31"/>
       <use x="63.623047" xlink:href="#DejaVuSans-30"/>
       <use x="127.246094" xlink:href="#DejaVuSans-2e"/>
       <use x="159.033203" xlink:href="#DejaVuSans-30"/>
      </g>
     </g>
    </g>
   </g>
   <g id="matplotlib.axis_2">
    <g id="ytick_1">
     <g id="line2d_10">
      <defs>
       <path d="M 0 0 
L -3.5 0 
" id="m2f62762526" style="stroke:#000000;stroke-width:0.8;"/>
      </defs>
      <g>
       <use style="stroke:#000000;stroke-width:0.8;" x="57.6" xlink:href="#m2f62762526" y="307.584"/>
      </g>
     </g>
     <g id="text_10">
      <!-- −10.0 -->
      <g transform="translate(19.954687 311.383219)scale(0.1 -0.1)">
       <use xlink:href="#DejaVuSans-2212"/>
       <use x="83.789062" xlink:href="#DejaVuSans-31"/>
       <use x="147.412109" xlink:href="#DejaVuSans-30"/>
       <use x="211.035156" xlink:href="#DejaVuSans-2e"/>
       <use x="242.822266" xlink:href="#DejaVuSans-30"/>
      </g>
     </g>
    </g>
    <g id="ytick_2">
     <g id="line2d_11">
      <g>
       <use style="stroke:#000000;stroke-width:0.8;" x="57.6" xlink:href="#m2f62762526" y="274.32"/>
      </g>
     </g>
     <g id="text_11">
      <!-- −7.5 -->
      <g transform="translate(26.317187 278.119219)scale(0.1 -0.1)">
       <use xlink:href="#DejaVuSans-2212"/>
       <use x="83.789062" xlink:href="#DejaVuSans-37"/>
       <use x="147.412109" xlink:href="#DejaVuSans-2e"/>
       <use x="179.199219" xlink:href="#DejaVuSans-35"/>
      </g>
     </g>
    </g>
    <g id="ytick_3">
     <g id="line2d_12">
      <g>
       <use style="stroke:#000000;stroke-width:0.8;" x="57.6" xlink:href="#m2f62762526" y="241.056"/>
      </g>
     </g>
     <g id="text_12">
      <!-- −5.0 -->
      <g transform="translate(26.317187 244.855219)scale(0.1 -0.1)">
       <use xlink:href="#DejaVuSans-2212"/>
       <use x="83.789062" xlink:href="#DejaVuSans-35"/>
       <use x="147.412109" xlink:href="#DejaVuSans-2e"/>
       <use x="179.199219" xlink:href="#DejaVuSans-30"/>
      </g>
     </g>
    </g>
    <g id="ytick_4">
     <g id="line2d_13">
      <g>
       <use style="stroke:#000000;stroke-width:0.8;" x="57.6" xlink:href="#m2f62762526" y="207.792"/>
      </g>
     </g>
     <g id="text_13">
      <!-- −2.5 -->
      <g transform="translate(26.317187 211.591219)scale(0.1 -0.1)">
       <use xlink:href="#DejaVuSans-2212"/>
       <use x="83.789062" xlink:href="#DejaVuSans-32"/>
       <use x="147.412109" xlink:href="#DejaVuSans-2e"/>
       <use x="179.199219" xlink:href="#DejaVuSans-35"/>
      </g>
     </g>
    </g>
    <g id="ytick_5">
     <g id="line2d_14">
      <g>
       <use style="stroke:#000000;stroke-width:0.8;" x="57.6" xlink:href="#m2f62762526" y="174.528"/>
      </g>
     </g>
     <g id="text_14">
      <!-- 0.0 -->
      <g transform="translate(34.696875 178.327219)scale(0.1 -0.1)">
       <use xlink:href="#DejaVuSans-30"/>
       <use x="63.623047" xlink:href="#DejaVuSans-2e"/>
       <use x="95.410156" xlink:href="#DejaVuSans-30"/>
      </g>
     </g>
    </g>
    <g id="ytick_6">
     <g id="line2d_15">
      <g>
       <use style="stroke:#000000;stroke-width:0.8;" x="57.6" xlink:href="#m2f62762526" y="141.264"/>
      </g>
     </g>
     <g id="text_15">
      <!-- 2.5 -->
      <g transform="translate(34.696875 145.063219)scale(0.1 -0.1)">
       <use xlink:href="#DejaVuSans-32"/>
       <use x="63.623047" xlink:href="#DejaVuSans-2e"/>
       <use x="95.410156" xlink:href="#DejaVuSans-35"/>
      </g>
     </g>
    </g>
    <g id="ytick_7">
     <g id="line2d_16">
      <g>
       <use style="stroke:#000000;stroke-width:0.8;" x="57.6" xlink:href="#m2f62762526" y="108"/>
      </g>
     </g>
     <g id="text_16">
      <!-- 5.0 -->
      <g transform="translate(34.696875 111.799219)scale(0.1 -0.1)">
       <use xlink:href="#DejaVuSans-35"/>
       <use x="63.623047" xlink:href="#DejaVuSans-2e"/>
       <use x="95.410156" xlink:href="#DejaVuSans-30"/>
      </g>
     </g>
    </g>
    <g id="ytick_8">
     <g id="line2d_17">
      <g>
       <use style="stroke:#000000;stroke-width:0.8;" x="57.6" xlink:href="#m2f62762526" y="74.736"/>
      </g>
     </g>
     <g id="text_17">
      <!-- 7.5 -->
      <g transform="translate(34.696875 78.535219)scale(0.1 -0.1)">
       <use xlink:href="#DejaVuSans-37"/>
       <use x="63.623047" xlink:href="#DejaVuSans-2e"/>
       <use x="95.410156" xlink:href="#DejaVuSans-35"/>
      </g>
     </g>
    </g>
    <g id="ytick_9">
     <g id="line2d_18">
      <g>
       <use style="stroke:#000000;stroke-width:0.8;" x="57.6" xlink:href="#m2f62762526" y="41.472"/>
      </g>
     </g>
     <g id="text_18">
      <!-- 10.0 -->
      <g transform="translate(28.334375 45.271219)scale(0.1 -0.1)">
       <use xlink:href="#DejaVuSans-31"/>
       <use x="63.623047" xlink:href="#DejaVuSans-30"/>
       <use x="127.246094" xlink:href="#DejaVuSans-2e"/>
       <use x="159.033203" xlink:href="#DejaVuSans-30"/>
      </g>
     </g>
    </g>
   </g>
   <g id="patch_3">
    <path d="M 57.6 307.584 
L 57.6 41.472 
" style="fill:none;stroke:#000000;stroke-linecap:square;stroke-linejoin:miter;stroke-width:0.8;"/>
   </g>
   <g id="patch_4">
    <path d="M 414.72 307.584 
L 414.72 41.472 
" style="fill:none;stroke:#000000;stroke-linecap:square;stroke-linejoin:miter;stroke-width:0.8;"/>
   </g>
   <g id="patch_5">
    <path d="M 57.6 307.584 
L 414.72 307.584 
" style="fill:none;stroke:#000000;stroke-linecap:square;stroke-linejoin:miter;stroke-width:0.8;"/>
   </g>
   <g id="patch_6">
    <path d="M 57.6 41.472 
L 414.72 41.472 
" style="fill:none;stroke:#000000;stroke-linecap:square;stroke-linejoin:miter;stroke-width:0.8;"/>
   </g>
  </g>
 </g>
 <defs>
  <clipPath id="pfc8587b7b5">
   <rect height="266.112" width="357.12" x="57.6" y="41.472"/>
  </clipPath>
 </defs>
</svg>
