<?xml version="1.0" encoding="utf-8" standalone="no"?>
<!DOCTYPE svg PUBLIC "-//W3C//DTD SVG 1.1//EN"
  "http://www.w3.org/Graphics/SVG/1.1/DTD/svg11.dtd">
<!-- Created with matplotlib (http://matplotlib.org/) -->
<svg height="345.6pt" version="1.1" viewBox="0 0 460.8 345.6" width="460.8pt" xmlns="http://www.w3.org/2000/svg" xmlns:xlink="http://www.w3.org/1999/xlink">
 <defs>
  <style type="text/css">
*{stroke-linecap:butt;stroke-linejoin:round;}
  </style>
 </defs>
 <g id="figure_1">
  <g id="patch_1">
   <path d="M 0 345.6 
L 460.8 345.6 
L 460.8 0 
L 0 0 
z
" style="fill:#ffffff;"/>
  </g>
  <g id="axes_1">
   <g id="patch_2">
    <path d="M 57.6 307.584 
L 414.72 307.584 
L 414.72 41.472 
L 57.6 41.472 
z
" style="fill:#ffffff;"/>
   </g>
   <g id="PathCollection_1">
    <defs>
     <path d="M 0 0.612372 
C 0.162403 0.612372 0.318176 0.547849 0.433013 0.433013 
C 0.547849 0.318176 0.612372 0.162403 0.612372 0 
C 0.612372 -0.162403 0.547849 -0.318176 0.433013 -0.433013 
C 0.318176 -0.547849 0.162403 -0.612372 0 -0.612372 
C -0.162403 -0.612372 -0.318176 -0.547849 -0.433013 -0.433013 
C -0.547849 -0.318176 -0.612372 -0.162403 -0.612372 0 
C -0.612372 0.162403 -0.547849 0.318176 -0.433013 0.433013 
C -0.318176 0.547849 -0.162403 0.612372 0 0.612372 
z
" id="m0b1b50d36d" style="stroke:#000000;"/>
    </defs>
    <g clip-path="url(#p6242db2c39)">
     <use style="stroke:#000000;" x="325.44" xlink:href="#m0b1b50d36d" y="152.411876"/>
     <use style="stroke:#000000;" x="243.809483" xlink:href="#m0b1b50d36d" y="174.526063"/>
     <use style="stroke:#000000;" x="236.16" xlink:href="#m0b1b50d36d" y="146.419474"/>
     <use style="stroke:#000000;" x="236.16" xlink:href="#m0b1b50d36d" y="174.528"/>
     <use style="stroke:#000000;" x="325.44" xlink:href="#m0b1b50d36d" y="172.936098"/>
     <use style="stroke:#000000;" x="242.856911" xlink:href="#m0b1b50d36d" y="174.528"/>
     <use style="stroke:#000000;" x="241.578144" xlink:href="#m0b1b50d36d" y="174.528"/>
     <use style="stroke:#000000;" x="236.16" xlink:href="#m0b1b50d36d" y="134.6112"/>
     <use style="stroke:#000000;" x="325.44" xlink:href="#m0b1b50d36d" y="142.468331"/>
     <use style="stroke:#000000;" x="249.892558" xlink:href="#m0b1b50d36d" y="174.528"/>
     <use style="stroke:#000000;" x="236.16" xlink:href="#m0b1b50d36d" y="143.334051"/>
     <use style="stroke:#000000;" x="325.44" xlink:href="#m0b1b50d36d" y="139.273754"/>
     <use style="stroke:#000000;" x="276.928275" xlink:href="#m0b1b50d36d" y="174.528"/>
     <use style="stroke:#000000;" x="236.16" xlink:href="#m0b1b50d36d" y="145.57558"/>
     <use style="stroke:#000000;" x="236.16" xlink:href="#m0b1b50d36d" y="162.00496"/>
     <use style="stroke:#000000;" x="325.44" xlink:href="#m0b1b50d36d" y="137.333044"/>
     <use style="stroke:#000000;" x="244.061038" xlink:href="#m0b1b50d36d" y="174.528"/>
     <use style="stroke:#000000;" x="236.16" xlink:href="#m0b1b50d36d" y="163.545375"/>
     <use style="stroke:#000000;" x="236.16" xlink:href="#m0b1b50d36d" y="136.436626"/>
     <use style="stroke:#000000;" x="315.516792" xlink:href="#m0b1b50d36d" y="174.528"/>
     <use style="stroke:#000000;" x="236.16" xlink:href="#m0b1b50d36d" y="148.138036"/>
     <use style="stroke:#000000;" x="273.306726" xlink:href="#m0b1b50d36d" y="174.528"/>
     <use style="stroke:#000000;" x="245.442316" xlink:href="#m0b1b50d36d" y="174.528"/>
     <use style="stroke:#000000;" x="236.16" xlink:href="#m0b1b50d36d" y="134.6112"/>
     <use style="stroke:#000000;" x="236.16" xlink:href="#m0b1b50d36d" y="159.526667"/>
     <use style="stroke:#000000;" x="236.16" xlink:href="#m0b1b50d36d" y="134.6112"/>
     <use style="stroke:#000000;" x="236.16" xlink:href="#m0b1b50d36d" y="172.561163"/>
     <use style="stroke:#000000;" x="236.16" xlink:href="#m0b1b50d36d" y="174.528"/>
     <use style="stroke:#000000;" x="236.16" xlink:href="#m0b1b50d36d" y="141.058225"/>
     <use style="stroke:#000000;" x="325.44" xlink:href="#m0b1b50d36d" y="142.175733"/>
     <use style="stroke:#000000;" x="236.16" xlink:href="#m0b1b50d36d" y="134.6112"/>
     <use style="stroke:#000000;" x="255.019646" xlink:href="#m0b1b50d36d" y="174.528"/>
     <use style="stroke:#000000;" x="236.16" xlink:href="#m0b1b50d36d" y="174.528"/>
     <use style="stroke:#000000;" x="236.16" xlink:href="#m0b1b50d36d" y="147.806594"/>
     <use style="stroke:#000000;" x="240.106143" xlink:href="#m0b1b50d36d" y="174.528"/>
     <use style="stroke:#000000;" x="236.16" xlink:href="#m0b1b50d36d" y="145.034124"/>
     <use style="stroke:#000000;" x="236.16" xlink:href="#m0b1b50d36d" y="163.723797"/>
     <use style="stroke:#000000;" x="236.16" xlink:href="#m0b1b50d36d" y="150.313401"/>
     <use style="stroke:#000000;" x="236.16" xlink:href="#m0b1b50d36d" y="147.955218"/>
     <use style="stroke:#000000;" x="236.16" xlink:href="#m0b1b50d36d" y="170.072867"/>
     <use style="stroke:#000000;" x="237.132315" xlink:href="#m0b1b50d36d" y="174.528"/>
     <use style="stroke:#000000;" x="325.44" xlink:href="#m0b1b50d36d" y="136.890216"/>
     <use style="stroke:#000000;" x="236.16" xlink:href="#m0b1b50d36d" y="136.116637"/>
     <use style="stroke:#000000;" x="236.16" xlink:href="#m0b1b50d36d" y="139.978526"/>
     <use style="stroke:#000000;" x="325.44" xlink:href="#m0b1b50d36d" y="146.438941"/>
     <use style="stroke:#000000;" x="236.16" xlink:href="#m0b1b50d36d" y="144.035121"/>
     <use style="stroke:#000000;" x="325.44" xlink:href="#m0b1b50d36d" y="143.287664"/>
     <use style="stroke:#000000;" x="325.44" xlink:href="#m0b1b50d36d" y="174.528"/>
     <use style="stroke:#000000;" x="325.44" xlink:href="#m0b1b50d36d" y="138.957388"/>
     <use style="stroke:#000000;" x="325.44" xlink:href="#m0b1b50d36d" y="170.225426"/>
     <use style="stroke:#000000;" x="325.435549" xlink:href="#m0b1b50d36d" y="174.528"/>
     <use style="stroke:#000000;" x="257.102774" xlink:href="#m0b1b50d36d" y="174.528"/>
     <use style="stroke:#000000;" x="236.16" xlink:href="#m0b1b50d36d" y="135.992017"/>
     <use style="stroke:#000000;" x="238.845305" xlink:href="#m0b1b50d36d" y="174.528"/>
     <use style="stroke:#000000;" x="236.16" xlink:href="#m0b1b50d36d" y="141.863275"/>
     <use style="stroke:#000000;" x="293.369187" xlink:href="#m0b1b50d36d" y="174.528"/>
     <use style="stroke:#000000;" x="236.16" xlink:href="#m0b1b50d36d" y="141.738551"/>
     <use style="stroke:#000000;" x="236.16" xlink:href="#m0b1b50d36d" y="148.036614"/>
     <use style="stroke:#000000;" x="236.16" xlink:href="#m0b1b50d36d" y="142.272656"/>
     <use style="stroke:#000000;" x="325.44" xlink:href="#m0b1b50d36d" y="174.528"/>
     <use style="stroke:#000000;" x="236.16" xlink:href="#m0b1b50d36d" y="143.342825"/>
     <use style="stroke:#000000;" x="236.16" xlink:href="#m0b1b50d36d" y="139.249431"/>
     <use style="stroke:#000000;" x="236.16" xlink:href="#m0b1b50d36d" y="162.329587"/>
     <use style="stroke:#000000;" x="236.16" xlink:href="#m0b1b50d36d" y="163.849831"/>
     <use style="stroke:#000000;" x="236.16" xlink:href="#m0b1b50d36d" y="134.6112"/>
     <use style="stroke:#000000;" x="236.16" xlink:href="#m0b1b50d36d" y="136.773924"/>
     <use style="stroke:#000000;" x="236.16" xlink:href="#m0b1b50d36d" y="164.186283"/>
     <use style="stroke:#000000;" x="236.16" xlink:href="#m0b1b50d36d" y="165.267068"/>
     <use style="stroke:#000000;" x="240.172024" xlink:href="#m0b1b50d36d" y="174.528"/>
     <use style="stroke:#000000;" x="325.44" xlink:href="#m0b1b50d36d" y="138.38726"/>
     <use style="stroke:#000000;" x="325.44" xlink:href="#m0b1b50d36d" y="167.409635"/>
     <use style="stroke:#000000;" x="325.44" xlink:href="#m0b1b50d36d" y="140.341776"/>
     <use style="stroke:#000000;" x="236.421784" xlink:href="#m0b1b50d36d" y="174.528"/>
     <use style="stroke:#000000;" x="239.33171" xlink:href="#m0b1b50d36d" y="174.528"/>
     <use style="stroke:#000000;" x="236.16" xlink:href="#m0b1b50d36d" y="172.266797"/>
     <use style="stroke:#000000;" x="236.16" xlink:href="#m0b1b50d36d" y="153.180937"/>
     <use style="stroke:#000000;" x="236.16" xlink:href="#m0b1b50d36d" y="174.528"/>
     <use style="stroke:#000000;" x="238.47459" xlink:href="#m0b1b50d36d" y="174.528"/>
     <use style="stroke:#000000;" x="325.44" xlink:href="#m0b1b50d36d" y="138.612321"/>
     <use style="stroke:#000000;" x="325.44" xlink:href="#m0b1b50d36d" y="136.660937"/>
     <use style="stroke:#000000;" x="325.44" xlink:href="#m0b1b50d36d" y="147.192669"/>
     <use style="stroke:#000000;" x="246.249838" xlink:href="#m0b1b50d36d" y="174.528"/>
     <use style="stroke:#000000;" x="240.239044" xlink:href="#m0b1b50d36d" y="174.528"/>
     <use style="stroke:#000000;" x="240.049595" xlink:href="#m0b1b50d36d" y="174.038959"/>
     <use style="stroke:#000000;" x="239.88588" xlink:href="#m0b1b50d36d" y="174.528"/>
     <use style="stroke:#000000;" x="236.16" xlink:href="#m0b1b50d36d" y="147.557723"/>
     <use style="stroke:#000000;" x="239.052379" xlink:href="#m0b1b50d36d" y="145.870113"/>
     <use style="stroke:#000000;" x="239.641473" xlink:href="#m0b1b50d36d" y="147.515216"/>
     <use style="stroke:#000000;" x="236.16" xlink:href="#m0b1b50d36d" y="174.358481"/>
     <use style="stroke:#000000;" x="241.896328" xlink:href="#m0b1b50d36d" y="174.528"/>
     <use style="stroke:#000000;" x="237.145258" xlink:href="#m0b1b50d36d" y="174.528"/>
     <use style="stroke:#000000;" x="323.861669" xlink:href="#m0b1b50d36d" y="170.59759"/>
     <use style="stroke:#000000;" x="325.44" xlink:href="#m0b1b50d36d" y="174.528"/>
     <use style="stroke:#000000;" x="323.06589" xlink:href="#m0b1b50d36d" y="172.471321"/>
     <use style="stroke:#000000;" x="237.137234" xlink:href="#m0b1b50d36d" y="174.528"/>
     <use style="stroke:#000000;" x="248.038925" xlink:href="#m0b1b50d36d" y="173.812656"/>
     <use style="stroke:#000000;" x="241.975959" xlink:href="#m0b1b50d36d" y="172.639889"/>
     <use style="stroke:#000000;" x="241.445214" xlink:href="#m0b1b50d36d" y="171.224489"/>
     <use style="stroke:#000000;" x="237.601699" xlink:href="#m0b1b50d36d" y="174.528"/>
     <use style="stroke:#000000;" x="243.515108" xlink:href="#m0b1b50d36d" y="174.528"/>
     <use style="stroke:#000000;" x="238.458063" xlink:href="#m0b1b50d36d" y="134.6112"/>
     <use style="stroke:#000000;" x="236.16" xlink:href="#m0b1b50d36d" y="134.6112"/>
     <use style="stroke:#000000;" x="236.16" xlink:href="#m0b1b50d36d" y="134.651304"/>
     <use style="stroke:#000000;" x="325.44" xlink:href="#m0b1b50d36d" y="140.18246"/>
     <use style="stroke:#000000;" x="325.44" xlink:href="#m0b1b50d36d" y="143.318182"/>
     <use style="stroke:#000000;" x="325.44" xlink:href="#m0b1b50d36d" y="143.182841"/>
     <use style="stroke:#000000;" x="250.964953" xlink:href="#m0b1b50d36d" y="174.528"/>
     <use style="stroke:#000000;" x="251.639118" xlink:href="#m0b1b50d36d" y="174.065983"/>
     <use style="stroke:#000000;" x="242.240024" xlink:href="#m0b1b50d36d" y="173.819168"/>
     <use style="stroke:#000000;" x="236.16" xlink:href="#m0b1b50d36d" y="142.52059"/>
     <use style="stroke:#000000;" x="236.16" xlink:href="#m0b1b50d36d" y="143.155663"/>
     <use style="stroke:#000000;" x="236.16" xlink:href="#m0b1b50d36d" y="142.600196"/>
     <use style="stroke:#000000;" x="323.63444" xlink:href="#m0b1b50d36d" y="138.594475"/>
     <use style="stroke:#000000;" x="325.44" xlink:href="#m0b1b50d36d" y="140.358486"/>
     <use style="stroke:#000000;" x="325.340384" xlink:href="#m0b1b50d36d" y="138.577817"/>
     <use style="stroke:#000000;" x="287.549603" xlink:href="#m0b1b50d36d" y="172.909828"/>
     <use style="stroke:#000000;" x="278.097148" xlink:href="#m0b1b50d36d" y="174.528"/>
     <use style="stroke:#000000;" x="276.595596" xlink:href="#m0b1b50d36d" y="174.528"/>
     <use style="stroke:#000000;" x="236.16" xlink:href="#m0b1b50d36d" y="145.019476"/>
     <use style="stroke:#000000;" x="236.834492" xlink:href="#m0b1b50d36d" y="147.113507"/>
     <use style="stroke:#000000;" x="236.16" xlink:href="#m0b1b50d36d" y="148.233486"/>
     <use style="stroke:#000000;" x="236.16" xlink:href="#m0b1b50d36d" y="160.076457"/>
     <use style="stroke:#000000;" x="236.594281" xlink:href="#m0b1b50d36d" y="159.53785"/>
     <use style="stroke:#000000;" x="236.16" xlink:href="#m0b1b50d36d" y="161.699702"/>
     <use style="stroke:#000000;" x="321.784552" xlink:href="#m0b1b50d36d" y="137.731084"/>
     <use style="stroke:#000000;" x="320.437243" xlink:href="#m0b1b50d36d" y="137.197458"/>
     <use style="stroke:#000000;" x="325.44" xlink:href="#m0b1b50d36d" y="135.911969"/>
     <use style="stroke:#000000;" x="237.644456" xlink:href="#m0b1b50d36d" y="174.528"/>
     <use style="stroke:#000000;" x="248.81373" xlink:href="#m0b1b50d36d" y="174.528"/>
     <use style="stroke:#000000;" x="245.281184" xlink:href="#m0b1b50d36d" y="174.528"/>
     <use style="stroke:#000000;" x="236.16" xlink:href="#m0b1b50d36d" y="167.146059"/>
     <use style="stroke:#000000;" x="238.946839" xlink:href="#m0b1b50d36d" y="162.294883"/>
     <use style="stroke:#000000;" x="238.119944" xlink:href="#m0b1b50d36d" y="164.512478"/>
     <use style="stroke:#000000;" x="239.480334" xlink:href="#m0b1b50d36d" y="134.877464"/>
     <use style="stroke:#000000;" x="236.723277" xlink:href="#m0b1b50d36d" y="137.341968"/>
     <use style="stroke:#000000;" x="239.981336" xlink:href="#m0b1b50d36d" y="137.405573"/>
     <use style="stroke:#000000;" x="311.358387" xlink:href="#m0b1b50d36d" y="174.528"/>
     <use style="stroke:#000000;" x="317.841266" xlink:href="#m0b1b50d36d" y="174.454358"/>
     <use style="stroke:#000000;" x="314.035341" xlink:href="#m0b1b50d36d" y="173.022982"/>
     <use style="stroke:#000000;" x="246.25576" xlink:href="#m0b1b50d36d" y="147.976396"/>
     <use style="stroke:#000000;" x="236.16" xlink:href="#m0b1b50d36d" y="145.969045"/>
     <use style="stroke:#000000;" x="236.16" xlink:href="#m0b1b50d36d" y="148.099015"/>
     <use style="stroke:#000000;" x="273.818237" xlink:href="#m0b1b50d36d" y="174.528"/>
     <use style="stroke:#000000;" x="274.248824" xlink:href="#m0b1b50d36d" y="174.528"/>
     <use style="stroke:#000000;" x="267.997244" xlink:href="#m0b1b50d36d" y="172.624256"/>
     <use style="stroke:#000000;" x="251.510411" xlink:href="#m0b1b50d36d" y="174.329628"/>
     <use style="stroke:#000000;" x="241.927055" xlink:href="#m0b1b50d36d" y="172.71038"/>
     <use style="stroke:#000000;" x="244.63768" xlink:href="#m0b1b50d36d" y="174.528"/>
     <use style="stroke:#000000;" x="248.270696" xlink:href="#m0b1b50d36d" y="136.053034"/>
     <use style="stroke:#000000;" x="244.852229" xlink:href="#m0b1b50d36d" y="159.243095"/>
     <use style="stroke:#000000;" x="236.16" xlink:href="#m0b1b50d36d" y="135.095647"/>
     <use style="stroke:#000000;" x="240.092787" xlink:href="#m0b1b50d36d" y="135.758595"/>
     <use style="stroke:#000000;" x="236.16" xlink:href="#m0b1b50d36d" y="134.6112"/>
     <use style="stroke:#000000;" x="249.107351" xlink:href="#m0b1b50d36d" y="172.882092"/>
     <use style="stroke:#000000;" x="237.774527" xlink:href="#m0b1b50d36d" y="174.528"/>
     <use style="stroke:#000000;" x="236.846947" xlink:href="#m0b1b50d36d" y="142.041709"/>
     <use style="stroke:#000000;" x="243.558266" xlink:href="#m0b1b50d36d" y="140.952073"/>
     <use style="stroke:#000000;" x="236.16" xlink:href="#m0b1b50d36d" y="142.279187"/>
     <use style="stroke:#000000;" x="325.44" xlink:href="#m0b1b50d36d" y="142.952103"/>
     <use style="stroke:#000000;" x="236.16" xlink:href="#m0b1b50d36d" y="134.6112"/>
     <use style="stroke:#000000;" x="239.113584" xlink:href="#m0b1b50d36d" y="134.6112"/>
     <use style="stroke:#000000;" x="241.224952" xlink:href="#m0b1b50d36d" y="134.6112"/>
     <use style="stroke:#000000;" x="252.21167" xlink:href="#m0b1b50d36d" y="174.528"/>
     <use style="stroke:#000000;" x="236.16" xlink:href="#m0b1b50d36d" y="173.783325"/>
     <use style="stroke:#000000;" x="243.104212" xlink:href="#m0b1b50d36d" y="147.942575"/>
     <use style="stroke:#000000;" x="236.708525" xlink:href="#m0b1b50d36d" y="173.883345"/>
     <use style="stroke:#000000;" x="236.16" xlink:href="#m0b1b50d36d" y="143.844322"/>
     <use style="stroke:#000000;" x="236.16" xlink:href="#m0b1b50d36d" y="165.729639"/>
     <use style="stroke:#000000;" x="236.16" xlink:href="#m0b1b50d36d" y="164.322487"/>
     <use style="stroke:#000000;" x="236.16" xlink:href="#m0b1b50d36d" y="161.987218"/>
     <use style="stroke:#000000;" x="238.904109" xlink:href="#m0b1b50d36d" y="150.515174"/>
     <use style="stroke:#000000;" x="236.16" xlink:href="#m0b1b50d36d" y="151.132709"/>
     <use style="stroke:#000000;" x="238.545059" xlink:href="#m0b1b50d36d" y="149.804453"/>
     <use style="stroke:#000000;" x="236.16" xlink:href="#m0b1b50d36d" y="148.811306"/>
     <use style="stroke:#000000;" x="236.966201" xlink:href="#m0b1b50d36d" y="148.162829"/>
     <use style="stroke:#000000;" x="239.443594" xlink:href="#m0b1b50d36d" y="169.683934"/>
     <use style="stroke:#000000;" x="236.16" xlink:href="#m0b1b50d36d" y="168.494089"/>
     <use style="stroke:#000000;" x="246.350405" xlink:href="#m0b1b50d36d" y="171.296993"/>
     <use style="stroke:#000000;" x="325.44" xlink:href="#m0b1b50d36d" y="137.904721"/>
     <use style="stroke:#000000;" x="325.44" xlink:href="#m0b1b50d36d" y="134.6112"/>
     <use style="stroke:#000000;" x="236.16" xlink:href="#m0b1b50d36d" y="134.6112"/>
     <use style="stroke:#000000;" x="239.859696" xlink:href="#m0b1b50d36d" y="134.6112"/>
     <use style="stroke:#000000;" x="236.16" xlink:href="#m0b1b50d36d" y="138.110732"/>
     <use style="stroke:#000000;" x="236.16" xlink:href="#m0b1b50d36d" y="141.410456"/>
     <use style="stroke:#000000;" x="325.44" xlink:href="#m0b1b50d36d" y="146.190925"/>
     <use style="stroke:#000000;" x="325.44" xlink:href="#m0b1b50d36d" y="145.708953"/>
     <use style="stroke:#000000;" x="236.16" xlink:href="#m0b1b50d36d" y="144.579361"/>
     <use style="stroke:#000000;" x="236.16" xlink:href="#m0b1b50d36d" y="146.508482"/>
     <use style="stroke:#000000;" x="325.44" xlink:href="#m0b1b50d36d" y="146.619726"/>
     <use style="stroke:#000000;" x="324.503451" xlink:href="#m0b1b50d36d" y="174.528"/>
     <use style="stroke:#000000;" x="325.407462" xlink:href="#m0b1b50d36d" y="173.573716"/>
     <use style="stroke:#000000;" x="325.44" xlink:href="#m0b1b50d36d" y="137.526584"/>
     <use style="stroke:#000000;" x="325.44" xlink:href="#m0b1b50d36d" y="138.691445"/>
     <use style="stroke:#000000;" x="325.44" xlink:href="#m0b1b50d36d" y="169.028232"/>
     <use style="stroke:#000000;" x="323.164786" xlink:href="#m0b1b50d36d" y="167.443474"/>
     <use style="stroke:#000000;" x="325.44" xlink:href="#m0b1b50d36d" y="174.528"/>
     <use style="stroke:#000000;" x="325.44" xlink:href="#m0b1b50d36d" y="174.528"/>
     <use style="stroke:#000000;" x="262.991899" xlink:href="#m0b1b50d36d" y="172.350695"/>
     <use style="stroke:#000000;" x="236.16" xlink:href="#m0b1b50d36d" y="135.183376"/>
     <use style="stroke:#000000;" x="239.212564" xlink:href="#m0b1b50d36d" y="135.830892"/>
     <use style="stroke:#000000;" x="236.177089" xlink:href="#m0b1b50d36d" y="173.911836"/>
     <use style="stroke:#000000;" x="237.473345" xlink:href="#m0b1b50d36d" y="174.528"/>
     <use style="stroke:#000000;" x="236.16" xlink:href="#m0b1b50d36d" y="141.700761"/>
     <use style="stroke:#000000;" x="295.807254" xlink:href="#m0b1b50d36d" y="174.091572"/>
     <use style="stroke:#000000;" x="246.016897" xlink:href="#m0b1b50d36d" y="139.93517"/>
     <use style="stroke:#000000;" x="236.16" xlink:href="#m0b1b50d36d" y="143.128837"/>
     <use style="stroke:#000000;" x="241.441126" xlink:href="#m0b1b50d36d" y="151.021059"/>
     <use style="stroke:#000000;" x="237.649966" xlink:href="#m0b1b50d36d" y="147.50435"/>
     <use style="stroke:#000000;" x="236.16" xlink:href="#m0b1b50d36d" y="143.643609"/>
     <use style="stroke:#000000;" x="325.44" xlink:href="#m0b1b50d36d" y="174.350172"/>
     <use style="stroke:#000000;" x="315.793122" xlink:href="#m0b1b50d36d" y="173.178032"/>
     <use style="stroke:#000000;" x="236.16" xlink:href="#m0b1b50d36d" y="146.091814"/>
     <use style="stroke:#000000;" x="239.733957" xlink:href="#m0b1b50d36d" y="139.290372"/>
     <use style="stroke:#000000;" x="236.246905" xlink:href="#m0b1b50d36d" y="158.420146"/>
     <use style="stroke:#000000;" x="245.856442" xlink:href="#m0b1b50d36d" y="164.9284"/>
     <use style="stroke:#000000;" x="236.16" xlink:href="#m0b1b50d36d" y="163.893862"/>
     <use style="stroke:#000000;" x="236.16" xlink:href="#m0b1b50d36d" y="135.080763"/>
     <use style="stroke:#000000;" x="236.428268" xlink:href="#m0b1b50d36d" y="138.588905"/>
     <use style="stroke:#000000;" x="237.95798" xlink:href="#m0b1b50d36d" y="136.020025"/>
     <use style="stroke:#000000;" x="236.16" xlink:href="#m0b1b50d36d" y="137.980884"/>
     <use style="stroke:#000000;" x="241.04727" xlink:href="#m0b1b50d36d" y="163.426229"/>
     <use style="stroke:#000000;" x="236.16" xlink:href="#m0b1b50d36d" y="166.057829"/>
     <use style="stroke:#000000;" x="239.347664" xlink:href="#m0b1b50d36d" y="165.49262"/>
     <use style="stroke:#000000;" x="240.803492" xlink:href="#m0b1b50d36d" y="168.395655"/>
     <use style="stroke:#000000;" x="243.32873" xlink:href="#m0b1b50d36d" y="173.984763"/>
     <use style="stroke:#000000;" x="325.44" xlink:href="#m0b1b50d36d" y="140.028339"/>
     <use style="stroke:#000000;" x="320.807484" xlink:href="#m0b1b50d36d" y="139.29952"/>
     <use style="stroke:#000000;" x="325.44" xlink:href="#m0b1b50d36d" y="164.432529"/>
     <use style="stroke:#000000;" x="321.873689" xlink:href="#m0b1b50d36d" y="168.4736"/>
     <use style="stroke:#000000;" x="324.690536" xlink:href="#m0b1b50d36d" y="137.951863"/>
     <use style="stroke:#000000;" x="325.44" xlink:href="#m0b1b50d36d" y="140.801756"/>
     <use style="stroke:#000000;" x="236.16" xlink:href="#m0b1b50d36d" y="174.528"/>
     <use style="stroke:#000000;" x="240.026733" xlink:href="#m0b1b50d36d" y="174.528"/>
     <use style="stroke:#000000;" x="237.927272" xlink:href="#m0b1b50d36d" y="174.052867"/>
     <use style="stroke:#000000;" x="236.16" xlink:href="#m0b1b50d36d" y="168.519008"/>
     <use style="stroke:#000000;" x="241.908017" xlink:href="#m0b1b50d36d" y="172.85634"/>
     <use style="stroke:#000000;" x="236.16" xlink:href="#m0b1b50d36d" y="152.692187"/>
     <use style="stroke:#000000;" x="239.475235" xlink:href="#m0b1b50d36d" y="174.528"/>
     <use style="stroke:#000000;" x="236.16" xlink:href="#m0b1b50d36d" y="174.528"/>
     <use style="stroke:#000000;" x="325.44" xlink:href="#m0b1b50d36d" y="141.566209"/>
     <use style="stroke:#000000;" x="325.44" xlink:href="#m0b1b50d36d" y="134.6112"/>
    </g>
   </g>
   <g id="PathCollection_2">
    <defs>
     <path d="M 0 0.935414 
C 0.248075 0.935414 0.486022 0.836853 0.661438 0.661438 
C 0.836853 0.486022 0.935414 0.248075 0.935414 0 
C 0.935414 -0.248075 0.836853 -0.486022 0.661438 -0.661438 
C 0.486022 -0.836853 0.248075 -0.935414 0 -0.935414 
C -0.248075 -0.935414 -0.486022 -0.836853 -0.661438 -0.661438 
C -0.836853 -0.486022 -0.935414 -0.248075 -0.935414 0 
C -0.935414 0.248075 -0.836853 0.486022 -0.661438 0.661438 
C -0.486022 0.836853 -0.248075 0.935414 0 0.935414 
z
" id="m9be46fd57a" style="stroke:#0000ff;"/>
    </defs>
    <g clip-path="url(#p6242db2c39)">
     <use style="fill:#0000ff;stroke:#0000ff;" x="325.44" xlink:href="#m9be46fd57a" y="152.411876"/>
     <use style="fill:#0000ff;stroke:#0000ff;" x="243.809483" xlink:href="#m9be46fd57a" y="174.526063"/>
     <use style="fill:#0000ff;stroke:#0000ff;" x="236.16" xlink:href="#m9be46fd57a" y="146.419474"/>
     <use style="fill:#0000ff;stroke:#0000ff;" x="236.16" xlink:href="#m9be46fd57a" y="174.528"/>
     <use style="fill:#0000ff;stroke:#0000ff;" x="325.44" xlink:href="#m9be46fd57a" y="172.936098"/>
     <use style="fill:#0000ff;stroke:#0000ff;" x="242.856911" xlink:href="#m9be46fd57a" y="174.528"/>
     <use style="fill:#0000ff;stroke:#0000ff;" x="241.578144" xlink:href="#m9be46fd57a" y="174.528"/>
     <use style="fill:#0000ff;stroke:#0000ff;" x="236.16" xlink:href="#m9be46fd57a" y="134.6112"/>
     <use style="fill:#0000ff;stroke:#0000ff;" x="325.44" xlink:href="#m9be46fd57a" y="142.468331"/>
     <use style="fill:#0000ff;stroke:#0000ff;" x="249.892558" xlink:href="#m9be46fd57a" y="174.528"/>
     <use style="fill:#0000ff;stroke:#0000ff;" x="236.16" xlink:href="#m9be46fd57a" y="143.334051"/>
     <use style="fill:#0000ff;stroke:#0000ff;" x="325.44" xlink:href="#m9be46fd57a" y="139.273754"/>
     <use style="fill:#0000ff;stroke:#0000ff;" x="276.928275" xlink:href="#m9be46fd57a" y="174.528"/>
     <use style="fill:#0000ff;stroke:#0000ff;" x="236.16" xlink:href="#m9be46fd57a" y="145.57558"/>
     <use style="fill:#0000ff;stroke:#0000ff;" x="236.16" xlink:href="#m9be46fd57a" y="162.00496"/>
     <use style="fill:#0000ff;stroke:#0000ff;" x="325.44" xlink:href="#m9be46fd57a" y="137.333044"/>
     <use style="fill:#0000ff;stroke:#0000ff;" x="244.061038" xlink:href="#m9be46fd57a" y="174.528"/>
     <use style="fill:#0000ff;stroke:#0000ff;" x="236.16" xlink:href="#m9be46fd57a" y="163.545375"/>
     <use style="fill:#0000ff;stroke:#0000ff;" x="236.16" xlink:href="#m9be46fd57a" y="136.436626"/>
     <use style="fill:#0000ff;stroke:#0000ff;" x="315.516792" xlink:href="#m9be46fd57a" y="174.528"/>
     <use style="fill:#0000ff;stroke:#0000ff;" x="236.16" xlink:href="#m9be46fd57a" y="148.138036"/>
     <use style="fill:#0000ff;stroke:#0000ff;" x="273.306726" xlink:href="#m9be46fd57a" y="174.528"/>
     <use style="fill:#0000ff;stroke:#0000ff;" x="245.442316" xlink:href="#m9be46fd57a" y="174.528"/>
     <use style="fill:#0000ff;stroke:#0000ff;" x="236.16" xlink:href="#m9be46fd57a" y="134.6112"/>
     <use style="fill:#0000ff;stroke:#0000ff;" x="236.16" xlink:href="#m9be46fd57a" y="159.526667"/>
     <use style="fill:#0000ff;stroke:#0000ff;" x="236.16" xlink:href="#m9be46fd57a" y="134.6112"/>
     <use style="fill:#0000ff;stroke:#0000ff;" x="236.16" xlink:href="#m9be46fd57a" y="172.561163"/>
     <use style="fill:#0000ff;stroke:#0000ff;" x="236.16" xlink:href="#m9be46fd57a" y="174.528"/>
     <use style="fill:#0000ff;stroke:#0000ff;" x="236.16" xlink:href="#m9be46fd57a" y="141.058225"/>
     <use style="fill:#0000ff;stroke:#0000ff;" x="325.44" xlink:href="#m9be46fd57a" y="142.175733"/>
     <use style="fill:#0000ff;stroke:#0000ff;" x="236.16" xlink:href="#m9be46fd57a" y="134.6112"/>
     <use style="fill:#0000ff;stroke:#0000ff;" x="255.019646" xlink:href="#m9be46fd57a" y="174.528"/>
     <use style="fill:#0000ff;stroke:#0000ff;" x="236.16" xlink:href="#m9be46fd57a" y="174.528"/>
     <use style="fill:#0000ff;stroke:#0000ff;" x="236.16" xlink:href="#m9be46fd57a" y="147.806594"/>
     <use style="fill:#0000ff;stroke:#0000ff;" x="240.106143" xlink:href="#m9be46fd57a" y="174.528"/>
     <use style="fill:#0000ff;stroke:#0000ff;" x="236.16" xlink:href="#m9be46fd57a" y="145.034124"/>
     <use style="fill:#0000ff;stroke:#0000ff;" x="236.16" xlink:href="#m9be46fd57a" y="163.723797"/>
     <use style="fill:#0000ff;stroke:#0000ff;" x="236.16" xlink:href="#m9be46fd57a" y="150.313401"/>
     <use style="fill:#0000ff;stroke:#0000ff;" x="236.16" xlink:href="#m9be46fd57a" y="147.955218"/>
     <use style="fill:#0000ff;stroke:#0000ff;" x="236.16" xlink:href="#m9be46fd57a" y="170.072867"/>
     <use style="fill:#0000ff;stroke:#0000ff;" x="237.132315" xlink:href="#m9be46fd57a" y="174.528"/>
     <use style="fill:#0000ff;stroke:#0000ff;" x="325.44" xlink:href="#m9be46fd57a" y="136.890216"/>
     <use style="fill:#0000ff;stroke:#0000ff;" x="236.16" xlink:href="#m9be46fd57a" y="136.116637"/>
     <use style="fill:#0000ff;stroke:#0000ff;" x="236.16" xlink:href="#m9be46fd57a" y="139.978526"/>
     <use style="fill:#0000ff;stroke:#0000ff;" x="325.44" xlink:href="#m9be46fd57a" y="146.438941"/>
     <use style="fill:#0000ff;stroke:#0000ff;" x="236.16" xlink:href="#m9be46fd57a" y="144.035121"/>
     <use style="fill:#0000ff;stroke:#0000ff;" x="325.44" xlink:href="#m9be46fd57a" y="143.287664"/>
     <use style="fill:#0000ff;stroke:#0000ff;" x="325.44" xlink:href="#m9be46fd57a" y="174.528"/>
     <use style="fill:#0000ff;stroke:#0000ff;" x="325.44" xlink:href="#m9be46fd57a" y="138.957388"/>
     <use style="fill:#0000ff;stroke:#0000ff;" x="325.44" xlink:href="#m9be46fd57a" y="170.225426"/>
     <use style="fill:#0000ff;stroke:#0000ff;" x="325.435549" xlink:href="#m9be46fd57a" y="174.528"/>
     <use style="fill:#0000ff;stroke:#0000ff;" x="257.102774" xlink:href="#m9be46fd57a" y="174.528"/>
     <use style="fill:#0000ff;stroke:#0000ff;" x="236.16" xlink:href="#m9be46fd57a" y="135.992017"/>
     <use style="fill:#0000ff;stroke:#0000ff;" x="238.845305" xlink:href="#m9be46fd57a" y="174.528"/>
     <use style="fill:#0000ff;stroke:#0000ff;" x="236.16" xlink:href="#m9be46fd57a" y="141.863275"/>
     <use style="fill:#0000ff;stroke:#0000ff;" x="293.369187" xlink:href="#m9be46fd57a" y="174.528"/>
     <use style="fill:#0000ff;stroke:#0000ff;" x="236.16" xlink:href="#m9be46fd57a" y="141.738551"/>
     <use style="fill:#0000ff;stroke:#0000ff;" x="236.16" xlink:href="#m9be46fd57a" y="148.036614"/>
     <use style="fill:#0000ff;stroke:#0000ff;" x="236.16" xlink:href="#m9be46fd57a" y="142.272656"/>
     <use style="fill:#0000ff;stroke:#0000ff;" x="325.44" xlink:href="#m9be46fd57a" y="174.528"/>
     <use style="fill:#0000ff;stroke:#0000ff;" x="236.16" xlink:href="#m9be46fd57a" y="143.342825"/>
     <use style="fill:#0000ff;stroke:#0000ff;" x="236.16" xlink:href="#m9be46fd57a" y="139.249431"/>
     <use style="fill:#0000ff;stroke:#0000ff;" x="236.16" xlink:href="#m9be46fd57a" y="162.329587"/>
     <use style="fill:#0000ff;stroke:#0000ff;" x="236.16" xlink:href="#m9be46fd57a" y="163.849831"/>
     <use style="fill:#0000ff;stroke:#0000ff;" x="236.16" xlink:href="#m9be46fd57a" y="134.6112"/>
     <use style="fill:#0000ff;stroke:#0000ff;" x="236.16" xlink:href="#m9be46fd57a" y="136.773924"/>
     <use style="fill:#0000ff;stroke:#0000ff;" x="236.16" xlink:href="#m9be46fd57a" y="164.186283"/>
     <use style="fill:#0000ff;stroke:#0000ff;" x="236.16" xlink:href="#m9be46fd57a" y="165.267068"/>
     <use style="fill:#0000ff;stroke:#0000ff;" x="240.172024" xlink:href="#m9be46fd57a" y="174.528"/>
     <use style="fill:#0000ff;stroke:#0000ff;" x="325.44" xlink:href="#m9be46fd57a" y="138.38726"/>
     <use style="fill:#0000ff;stroke:#0000ff;" x="325.44" xlink:href="#m9be46fd57a" y="167.409635"/>
     <use style="fill:#0000ff;stroke:#0000ff;" x="325.44" xlink:href="#m9be46fd57a" y="140.341776"/>
     <use style="fill:#0000ff;stroke:#0000ff;" x="236.421784" xlink:href="#m9be46fd57a" y="174.528"/>
     <use style="fill:#0000ff;stroke:#0000ff;" x="239.33171" xlink:href="#m9be46fd57a" y="174.528"/>
     <use style="fill:#0000ff;stroke:#0000ff;" x="236.16" xlink:href="#m9be46fd57a" y="172.266797"/>
     <use style="fill:#0000ff;stroke:#0000ff;" x="236.16" xlink:href="#m9be46fd57a" y="153.180937"/>
     <use style="fill:#0000ff;stroke:#0000ff;" x="236.16" xlink:href="#m9be46fd57a" y="174.528"/>
     <use style="fill:#0000ff;stroke:#0000ff;" x="238.47459" xlink:href="#m9be46fd57a" y="174.528"/>
     <use style="fill:#0000ff;stroke:#0000ff;" x="325.44" xlink:href="#m9be46fd57a" y="138.612321"/>
     <use style="fill:#0000ff;stroke:#0000ff;" x="325.44" xlink:href="#m9be46fd57a" y="136.660937"/>
    </g>
   </g>
   <g id="matplotlib.axis_1">
    <g id="xtick_1">
     <g id="line2d_1">
      <defs>
       <path d="M 0 0 
L 0 3.5 
" id="m49b027050c" style="stroke:#000000;stroke-width:0.8;"/>
      </defs>
      <g>
       <use style="stroke:#000000;stroke-width:0.8;" x="57.6" xlink:href="#m49b027050c" y="307.584"/>
      </g>
     </g>
     <g id="text_1">
      <!-- −10.0 -->
      <defs>
       <path d="M 10.59375 35.5 
L 73.1875 35.5 
L 73.1875 27.203125 
L 10.59375 27.203125 
z
" id="DejaVuSans-2212"/>
       <path d="M 12.40625 8.296875 
L 28.515625 8.296875 
L 28.515625 63.921875 
L 10.984375 60.40625 
L 10.984375 69.390625 
L 28.421875 72.90625 
L 38.28125 72.90625 
L 38.28125 8.296875 
L 54.390625 8.296875 
L 54.390625 0 
L 12.40625 0 
z
" id="DejaVuSans-31"/>
       <path d="M 31.78125 66.40625 
Q 24.171875 66.40625 20.328125 58.90625 
Q 16.5 51.421875 16.5 36.375 
Q 16.5 21.390625 20.328125 13.890625 
Q 24.171875 6.390625 31.78125 6.390625 
Q 39.453125 6.390625 43.28125 13.890625 
Q 47.125 21.390625 47.125 36.375 
Q 47.125 51.421875 43.28125 58.90625 
Q 39.453125 66.40625 31.78125 66.40625 
z
M 31.78125 74.21875 
Q 44.046875 74.21875 50.515625 64.515625 
Q 56.984375 54.828125 56.984375 36.375 
Q 56.984375 17.96875 50.515625 8.265625 
Q 44.046875 -1.421875 31.78125 -1.421875 
Q 19.53125 -1.421875 13.0625 8.265625 
Q 6.59375 17.96875 6.59375 36.375 
Q 6.59375 54.828125 13.0625 64.515625 
Q 19.53125 74.21875 31.78125 74.21875 
z
" id="DejaVuSans-30"/>
       <path d="M 10.6875 12.40625 
L 21 12.40625 
L 21 0 
L 10.6875 0 
z
" id="DejaVuSans-2e"/>
      </defs>
      <g transform="translate(42.277344 322.182437)scale(0.1 -0.1)">
       <use xlink:href="#DejaVuSans-2212"/>
       <use x="83.789062" xlink:href="#DejaVuSans-31"/>
       <use x="147.412109" xlink:href="#DejaVuSans-30"/>
       <use x="211.035156" xlink:href="#DejaVuSans-2e"/>
       <use x="242.822266" xlink:href="#DejaVuSans-30"/>
      </g>
     </g>
    </g>
    <g id="xtick_2">
     <g id="line2d_2">
      <g>
       <use style="stroke:#000000;stroke-width:0.8;" x="102.24" xlink:href="#m49b027050c" y="307.584"/>
      </g>
     </g>
     <g id="text_2">
      <!-- −7.5 -->
      <defs>
       <path d="M 8.203125 72.90625 
L 55.078125 72.90625 
L 55.078125 68.703125 
L 28.609375 0 
L 18.3125 0 
L 43.21875 64.59375 
L 8.203125 64.59375 
z
" id="DejaVuSans-37"/>
       <path d="M 10.796875 72.90625 
L 49.515625 72.90625 
L 49.515625 64.59375 
L 19.828125 64.59375 
L 19.828125 46.734375 
Q 21.96875 47.46875 24.109375 47.828125 
Q 26.265625 48.1875 28.421875 48.1875 
Q 40.625 48.1875 47.75 41.5 
Q 54.890625 34.8125 54.890625 23.390625 
Q 54.890625 11.625 47.5625 5.09375 
Q 40.234375 -1.421875 26.90625 -1.421875 
Q 22.3125 -1.421875 17.546875 -0.640625 
Q 12.796875 0.140625 7.71875 1.703125 
L 7.71875 11.625 
Q 12.109375 9.234375 16.796875 8.0625 
Q 21.484375 6.890625 26.703125 6.890625 
Q 35.15625 6.890625 40.078125 11.328125 
Q 45.015625 15.765625 45.015625 23.390625 
Q 45.015625 31 40.078125 35.4375 
Q 35.15625 39.890625 26.703125 39.890625 
Q 22.75 39.890625 18.8125 39.015625 
Q 14.890625 38.140625 10.796875 36.28125 
z
" id="DejaVuSans-35"/>
      </defs>
      <g transform="translate(90.098594 322.182437)scale(0.1 -0.1)">
       <use xlink:href="#DejaVuSans-2212"/>
       <use x="83.789062" xlink:href="#DejaVuSans-37"/>
       <use x="147.412109" xlink:href="#DejaVuSans-2e"/>
       <use x="179.199219" xlink:href="#DejaVuSans-35"/>
      </g>
     </g>
    </g>
    <g id="xtick_3">
     <g id="line2d_3">
      <g>
       <use style="stroke:#000000;stroke-width:0.8;" x="146.88" xlink:href="#m49b027050c" y="307.584"/>
      </g>
     </g>
     <g id="text_3">
      <!-- −5.0 -->
      <g transform="translate(134.738594 322.182437)scale(0.1 -0.1)">
       <use xlink:href="#DejaVuSans-2212"/>
       <use x="83.789062" xlink:href="#DejaVuSans-35"/>
       <use x="147.412109" xlink:href="#DejaVuSans-2e"/>
       <use x="179.199219" xlink:href="#DejaVuSans-30"/>
      </g>
     </g>
    </g>
    <g id="xtick_4">
     <g id="line2d_4">
      <g>
       <use style="stroke:#000000;stroke-width:0.8;" x="191.52" xlink:href="#m49b027050c" y="307.584"/>
      </g>
     </g>
     <g id="text_4">
      <!-- −2.5 -->
      <defs>
       <path d="M 19.1875 8.296875 
L 53.609375 8.296875 
L 53.609375 0 
L 7.328125 0 
L 7.328125 8.296875 
Q 12.9375 14.109375 22.625 23.890625 
Q 32.328125 33.6875 34.8125 36.53125 
Q 39.546875 41.84375 41.421875 45.53125 
Q 43.3125 49.21875 43.3125 52.78125 
Q 43.3125 58.59375 39.234375 62.25 
Q 35.15625 65.921875 28.609375 65.921875 
Q 23.96875 65.921875 18.8125 64.3125 
Q 13.671875 62.703125 7.8125 59.421875 
L 7.8125 69.390625 
Q 13.765625 71.78125 18.9375 73 
Q 24.125 74.21875 28.421875 74.21875 
Q 39.75 74.21875 46.484375 68.546875 
Q 53.21875 62.890625 53.21875 53.421875 
Q 53.21875 48.921875 51.53125 44.890625 
Q 49.859375 40.875 45.40625 35.40625 
Q 44.1875 33.984375 37.640625 27.21875 
Q 31.109375 20.453125 19.1875 8.296875 
z
" id="DejaVuSans-32"/>
      </defs>
      <g transform="translate(179.378594 322.182437)scale(0.1 -0.1)">
       <use xlink:href="#DejaVuSans-2212"/>
       <use x="83.789062" xlink:href="#DejaVuSans-32"/>
       <use x="147.412109" xlink:href="#DejaVuSans-2e"/>
       <use x="179.199219" xlink:href="#DejaVuSans-35"/>
      </g>
     </g>
    </g>
    <g id="xtick_5">
     <g id="line2d_5">
      <g>
       <use style="stroke:#000000;stroke-width:0.8;" x="236.16" xlink:href="#m49b027050c" y="307.584"/>
      </g>
     </g>
     <g id="text_5">
      <!-- 0.0 -->
      <g transform="translate(228.208438 322.182437)scale(0.1 -0.1)">
       <use xlink:href="#DejaVuSans-30"/>
       <use x="63.623047" xlink:href="#DejaVuSans-2e"/>
       <use x="95.410156" xlink:href="#DejaVuSans-30"/>
      </g>
     </g>
    </g>
    <g id="xtick_6">
     <g id="line2d_6">
      <g>
       <use style="stroke:#000000;stroke-width:0.8;" x="280.8" xlink:href="#m49b027050c" y="307.584"/>
      </g>
     </g>
     <g id="text_6">
      <!-- 2.5 -->
      <g transform="translate(272.848437 322.182437)scale(0.1 -0.1)">
       <use xlink:href="#DejaVuSans-32"/>
       <use x="63.623047" xlink:href="#DejaVuSans-2e"/>
       <use x="95.410156" xlink:href="#DejaVuSans-35"/>
      </g>
     </g>
    </g>
    <g id="xtick_7">
     <g id="line2d_7">
      <g>
       <use style="stroke:#000000;stroke-width:0.8;" x="325.44" xlink:href="#m49b027050c" y="307.584"/>
      </g>
     </g>
     <g id="text_7">
      <!-- 5.0 -->
      <g transform="translate(317.488437 322.182437)scale(0.1 -0.1)">
       <use xlink:href="#DejaVuSans-35"/>
       <use x="63.623047" xlink:href="#DejaVuSans-2e"/>
       <use x="95.410156" xlink:href="#DejaVuSans-30"/>
      </g>
     </g>
    </g>
    <g id="xtick_8">
     <g id="line2d_8">
      <g>
       <use style="stroke:#000000;stroke-width:0.8;" x="370.08" xlink:href="#m49b027050c" y="307.584"/>
      </g>
     </g>
     <g id="text_8">
      <!-- 7.5 -->
      <g transform="translate(362.128438 322.182437)scale(0.1 -0.1)">
       <use xlink:href="#DejaVuSans-37"/>
       <use x="63.623047" xlink:href="#DejaVuSans-2e"/>
       <use x="95.410156" xlink:href="#DejaVuSans-35"/>
      </g>
     </g>
    </g>
    <g id="xtick_9">
     <g id="line2d_9">
      <g>
       <use style="stroke:#000000;stroke-width:0.8;" x="414.72" xlink:href="#m49b027050c" y="307.584"/>
      </g>
     </g>
     <g id="text_9">
      <!-- 10.0 -->
      <g transform="translate(403.587188 322.182437)scale(0.1 -0.1)">
       <use xlink:href="#DejaVuSans-31"/>
       <use x="63.623047" xlink:href="#DejaVuSans-30"/>
       <use x="127.246094" xlink:href="#DejaVuSans-2e"/>
       <use x="159.033203" xlink:href="#DejaVuSans-30"/>
      </g>
     </g>
    </g>
   </g>
   <g id="matplotlib.axis_2">
    <g id="ytick_1">
     <g id="line2d_10">
      <defs>
       <path d="M 0 0 
L -3.5 0 
" id="mca84632da7" style="stroke:#000000;stroke-width:0.8;"/>
      </defs>
      <g>
       <use style="stroke:#000000;stroke-width:0.8;" x="57.6" xlink:href="#mca84632da7" y="307.584"/>
      </g>
     </g>
     <g id="text_10">
      <!-- −10.0 -->
      <g transform="translate(19.954687 311.383219)scale(0.1 -0.1)">
       <use xlink:href="#DejaVuSans-2212"/>
       <use x="83.789062" xlink:href="#DejaVuSans-31"/>
       <use x="147.412109" xlink:href="#DejaVuSans-30"/>
       <use x="211.035156" xlink:href="#DejaVuSans-2e"/>
       <use x="242.822266" xlink:href="#DejaVuSans-30"/>
      </g>
     </g>
    </g>
    <g id="ytick_2">
     <g id="line2d_11">
      <g>
       <use style="stroke:#000000;stroke-width:0.8;" x="57.6" xlink:href="#mca84632da7" y="274.32"/>
      </g>
     </g>
     <g id="text_11">
      <!-- −7.5 -->
      <g transform="translate(26.317187 278.119219)scale(0.1 -0.1)">
       <use xlink:href="#DejaVuSans-2212"/>
       <use x="83.789062" xlink:href="#DejaVuSans-37"/>
       <use x="147.412109" xlink:href="#DejaVuSans-2e"/>
       <use x="179.199219" xlink:href="#DejaVuSans-35"/>
      </g>
     </g>
    </g>
    <g id="ytick_3">
     <g id="line2d_12">
      <g>
       <use style="stroke:#000000;stroke-width:0.8;" x="57.6" xlink:href="#mca84632da7" y="241.056"/>
      </g>
     </g>
     <g id="text_12">
      <!-- −5.0 -->
      <g transform="translate(26.317187 244.855219)scale(0.1 -0.1)">
       <use xlink:href="#DejaVuSans-2212"/>
       <use x="83.789062" xlink:href="#DejaVuSans-35"/>
       <use x="147.412109" xlink:href="#DejaVuSans-2e"/>
       <use x="179.199219" xlink:href="#DejaVuSans-30"/>
      </g>
     </g>
    </g>
    <g id="ytick_4">
     <g id="line2d_13">
      <g>
       <use style="stroke:#000000;stroke-width:0.8;" x="57.6" xlink:href="#mca84632da7" y="207.792"/>
      </g>
     </g>
     <g id="text_13">
      <!-- −2.5 -->
      <g transform="translate(26.317187 211.591219)scale(0.1 -0.1)">
       <use xlink:href="#DejaVuSans-2212"/>
       <use x="83.789062" xlink:href="#DejaVuSans-32"/>
       <use x="147.412109" xlink:href="#DejaVuSans-2e"/>
       <use x="179.199219" xlink:href="#DejaVuSans-35"/>
      </g>
     </g>
    </g>
    <g id="ytick_5">
     <g id="line2d_14">
      <g>
       <use style="stroke:#000000;stroke-width:0.8;" x="57.6" xlink:href="#mca84632da7" y="174.528"/>
      </g>
     </g>
     <g id="text_14">
      <!-- 0.0 -->
      <g transform="translate(34.696875 178.327219)scale(0.1 -0.1)">
       <use xlink:href="#DejaVuSans-30"/>
       <use x="63.623047" xlink:href="#DejaVuSans-2e"/>
       <use x="95.410156" xlink:href="#DejaVuSans-30"/>
      </g>
     </g>
    </g>
    <g id="ytick_6">
     <g id="line2d_15">
      <g>
       <use style="stroke:#000000;stroke-width:0.8;" x="57.6" xlink:href="#mca84632da7" y="141.264"/>
      </g>
     </g>
     <g id="text_15">
      <!-- 2.5 -->
      <g transform="translate(34.696875 145.063219)scale(0.1 -0.1)">
       <use xlink:href="#DejaVuSans-32"/>
       <use x="63.623047" xlink:href="#DejaVuSans-2e"/>
       <use x="95.410156" xlink:href="#DejaVuSans-35"/>
      </g>
     </g>
    </g>
    <g id="ytick_7">
     <g id="line2d_16">
      <g>
       <use style="stroke:#000000;stroke-width:0.8;" x="57.6" xlink:href="#mca84632da7" y="108"/>
      </g>
     </g>
     <g id="text_16">
      <!-- 5.0 -->
      <g transform="translate(34.696875 111.799219)scale(0.1 -0.1)">
       <use xlink:href="#DejaVuSans-35"/>
       <use x="63.623047" xlink:href="#DejaVuSans-2e"/>
       <use x="95.410156" xlink:href="#DejaVuSans-30"/>
      </g>
     </g>
    </g>
    <g id="ytick_8">
     <g id="line2d_17">
      <g>
       <use style="stroke:#000000;stroke-width:0.8;" x="57.6" xlink:href="#mca84632da7" y="74.736"/>
      </g>
     </g>
     <g id="text_17">
      <!-- 7.5 -->
      <g transform="translate(34.696875 78.535219)scale(0.1 -0.1)">
       <use xlink:href="#DejaVuSans-37"/>
       <use x="63.623047" xlink:href="#DejaVuSans-2e"/>
       <use x="95.410156" xlink:href="#DejaVuSans-35"/>
      </g>
     </g>
    </g>
    <g id="ytick_9">
     <g id="line2d_18">
      <g>
       <use style="stroke:#000000;stroke-width:0.8;" x="57.6" xlink:href="#mca84632da7" y="41.472"/>
      </g>
     </g>
     <g id="text_18">
      <!-- 10.0 -->
      <g transform="translate(28.334375 45.271219)scale(0.1 -0.1)">
       <use xlink:href="#DejaVuSans-31"/>
       <use x="63.623047" xlink:href="#DejaVuSans-30"/>
       <use x="127.246094" xlink:href="#DejaVuSans-2e"/>
       <use x="159.033203" xlink:href="#DejaVuSans-30"/>
      </g>
     </g>
    </g>
   </g>
   <g id="patch_3">
    <path d="M 57.6 307.584 
L 57.6 41.472 
" style="fill:none;stroke:#000000;stroke-linecap:square;stroke-linejoin:miter;stroke-width:0.8;"/>
   </g>
   <g id="patch_4">
    <path d="M 414.72 307.584 
L 414.72 41.472 
" style="fill:none;stroke:#000000;stroke-linecap:square;stroke-linejoin:miter;stroke-width:0.8;"/>
   </g>
   <g id="patch_5">
    <path d="M 57.6 307.584 
L 414.72 307.584 
" style="fill:none;stroke:#000000;stroke-linecap:square;stroke-linejoin:miter;stroke-width:0.8;"/>
   </g>
   <g id="patch_6">
    <path d="M 57.6 41.472 
L 414.72 41.472 
" style="fill:none;stroke:#000000;stroke-linecap:square;stroke-linejoin:miter;stroke-width:0.8;"/>
   </g>
  </g>
 </g>
 <defs>
  <clipPath id="p6242db2c39">
   <rect height="266.112" width="357.12" x="57.6" y="41.472"/>
  </clipPath>
 </defs>
</svg>
