<?xml version="1.0" encoding="utf-8" standalone="no"?>
<!DOCTYPE svg PUBLIC "-//W3C//DTD SVG 1.1//EN"
  "http://www.w3.org/Graphics/SVG/1.1/DTD/svg11.dtd">
<!-- Created with matplotlib (http://matplotlib.org/) -->
<svg height="345.6pt" version="1.1" viewBox="0 0 460.8 345.6" width="460.8pt" xmlns="http://www.w3.org/2000/svg" xmlns:xlink="http://www.w3.org/1999/xlink">
 <defs>
  <style type="text/css">
*{stroke-linecap:butt;stroke-linejoin:round;}
  </style>
 </defs>
 <g id="figure_1">
  <g id="patch_1">
   <path d="M 0 345.6 
L 460.8 345.6 
L 460.8 0 
L 0 0 
z
" style="fill:#ffffff;"/>
  </g>
  <g id="axes_1">
   <g id="patch_2">
    <path d="M 57.6 307.584 
L 414.72 307.584 
L 414.72 41.472 
L 57.6 41.472 
z
" style="fill:#ffffff;"/>
   </g>
   <g id="PathCollection_1">
    <defs>
     <path d="M 0 0.612372 
C 0.162403 0.612372 0.318176 0.547849 0.433013 0.433013 
C 0.547849 0.318176 0.612372 0.162403 0.612372 0 
C 0.612372 -0.162403 0.547849 -0.318176 0.433013 -0.433013 
C 0.318176 -0.547849 0.162403 -0.612372 0 -0.612372 
C -0.162403 -0.612372 -0.318176 -0.547849 -0.433013 -0.433013 
C -0.547849 -0.318176 -0.612372 -0.162403 -0.612372 0 
C -0.612372 0.162403 -0.547849 0.318176 -0.433013 0.433013 
C -0.318176 0.547849 -0.162403 0.612372 0 0.612372 
z
" id="m508c20f020" style="stroke:#000000;"/>
    </defs>
    <g clip-path="url(#peb66a0f918)">
     <use style="stroke:#000000;" x="240.353567" xlink:href="#m508c20f020" y="174.352188"/>
     <use style="stroke:#000000;" x="236.323585" xlink:href="#m508c20f020" y="174.185502"/>
     <use style="stroke:#000000;" x="240.553647" xlink:href="#m508c20f020" y="174.471548"/>
     <use style="stroke:#000000;" x="240.099432" xlink:href="#m508c20f020" y="174.528"/>
     <use style="stroke:#000000;" x="243.990662" xlink:href="#m508c20f020" y="173.565682"/>
     <use style="stroke:#000000;" x="244.220199" xlink:href="#m508c20f020" y="173.32036"/>
     <use style="stroke:#000000;" x="244.170051" xlink:href="#m508c20f020" y="174.381286"/>
     <use style="stroke:#000000;" x="247.596997" xlink:href="#m508c20f020" y="173.934745"/>
     <use style="stroke:#000000;" x="240.336025" xlink:href="#m508c20f020" y="174.254521"/>
     <use style="stroke:#000000;" x="236.284601" xlink:href="#m508c20f020" y="172.901185"/>
     <use style="stroke:#000000;" x="236.16" xlink:href="#m508c20f020" y="174.528"/>
     <use style="stroke:#000000;" x="239.715203" xlink:href="#m508c20f020" y="173.991163"/>
     <use style="stroke:#000000;" x="236.839265" xlink:href="#m508c20f020" y="174.39525"/>
     <use style="stroke:#000000;" x="239.857954" xlink:href="#m508c20f020" y="174.290453"/>
     <use style="stroke:#000000;" x="251.1221" xlink:href="#m508c20f020" y="173.803948"/>
     <use style="stroke:#000000;" x="251.404312" xlink:href="#m508c20f020" y="173.141318"/>
     <use style="stroke:#000000;" x="240.244038" xlink:href="#m508c20f020" y="174.276958"/>
     <use style="stroke:#000000;" x="239.743726" xlink:href="#m508c20f020" y="174.528"/>
     <use style="stroke:#000000;" x="236.844109" xlink:href="#m508c20f020" y="174.528"/>
     <use style="stroke:#000000;" x="247.935697" xlink:href="#m508c20f020" y="174.290334"/>
     <use style="stroke:#000000;" x="236.209176" xlink:href="#m508c20f020" y="174.484926"/>
     <use style="stroke:#000000;" x="240.051127" xlink:href="#m508c20f020" y="174.528"/>
     <use style="stroke:#000000;" x="239.869455" xlink:href="#m508c20f020" y="174.231238"/>
     <use style="stroke:#000000;" x="239.868592" xlink:href="#m508c20f020" y="174.528"/>
     <use style="stroke:#000000;" x="251.213187" xlink:href="#m508c20f020" y="172.881716"/>
     <use style="stroke:#000000;" x="236.435773" xlink:href="#m508c20f020" y="172.472809"/>
     <use style="stroke:#000000;" x="247.704731" xlink:href="#m508c20f020" y="173.752301"/>
     <use style="stroke:#000000;" x="244.167159" xlink:href="#m508c20f020" y="172.322123"/>
     <use style="stroke:#000000;" x="239.71252" xlink:href="#m508c20f020" y="173.482677"/>
     <use style="stroke:#000000;" x="251.169912" xlink:href="#m508c20f020" y="173.447839"/>
     <use style="stroke:#000000;" x="251.017682" xlink:href="#m508c20f020" y="173.620724"/>
     <use style="stroke:#000000;" x="237.920016" xlink:href="#m508c20f020" y="174.528"/>
     <use style="stroke:#000000;" x="243.845648" xlink:href="#m508c20f020" y="173.254882"/>
     <use style="stroke:#000000;" x="244.095571" xlink:href="#m508c20f020" y="172.770558"/>
     <use style="stroke:#000000;" x="243.852979" xlink:href="#m508c20f020" y="172.932414"/>
     <use style="stroke:#000000;" x="236.537533" xlink:href="#m508c20f020" y="174.528"/>
     <use style="stroke:#000000;" x="247.553764" xlink:href="#m508c20f020" y="172.231076"/>
     <use style="stroke:#000000;" x="251.099245" xlink:href="#m508c20f020" y="173.905953"/>
     <use style="stroke:#000000;" x="239.693334" xlink:href="#m508c20f020" y="173.757733"/>
     <use style="stroke:#000000;" x="243.943656" xlink:href="#m508c20f020" y="173.175998"/>
     <use style="stroke:#000000;" x="247.905089" xlink:href="#m508c20f020" y="173.885197"/>
     <use style="stroke:#000000;" x="247.621622" xlink:href="#m508c20f020" y="173.945544"/>
     <use style="stroke:#000000;" x="251.167155" xlink:href="#m508c20f020" y="174.171325"/>
     <use style="stroke:#000000;" x="243.713239" xlink:href="#m508c20f020" y="172.729585"/>
     <use style="stroke:#000000;" x="243.885751" xlink:href="#m508c20f020" y="173.20078"/>
     <use style="stroke:#000000;" x="251.216887" xlink:href="#m508c20f020" y="174.091994"/>
     <use style="stroke:#000000;" x="237.22773" xlink:href="#m508c20f020" y="174.46403"/>
     <use style="stroke:#000000;" x="236.578616" xlink:href="#m508c20f020" y="174.377963"/>
     <use style="stroke:#000000;" x="237.317417" xlink:href="#m508c20f020" y="173.032729"/>
     <use style="stroke:#000000;" x="247.362336" xlink:href="#m508c20f020" y="173.4015"/>
     <use style="stroke:#000000;" x="236.618468" xlink:href="#m508c20f020" y="173.046935"/>
     <use style="stroke:#000000;" x="240.328805" xlink:href="#m508c20f020" y="174.528"/>
     <use style="stroke:#000000;" x="236.192134" xlink:href="#m508c20f020" y="174.2633"/>
     <use style="stroke:#000000;" x="236.659946" xlink:href="#m508c20f020" y="174.48392"/>
     <use style="stroke:#000000;" x="240.749076" xlink:href="#m508c20f020" y="174.22308"/>
     <use style="stroke:#000000;" x="239.880706" xlink:href="#m508c20f020" y="174.453291"/>
     <use style="stroke:#000000;" x="240.293975" xlink:href="#m508c20f020" y="174.261373"/>
     <use style="stroke:#000000;" x="240.436078" xlink:href="#m508c20f020" y="174.385387"/>
     <use style="stroke:#000000;" x="236.362747" xlink:href="#m508c20f020" y="172.047566"/>
     <use style="stroke:#000000;" x="244.432054" xlink:href="#m508c20f020" y="173.531019"/>
     <use style="stroke:#000000;" x="240.122173" xlink:href="#m508c20f020" y="174.528"/>
     <use style="stroke:#000000;" x="240.37373" xlink:href="#m508c20f020" y="174.528"/>
     <use style="stroke:#000000;" x="239.883968" xlink:href="#m508c20f020" y="174.49509"/>
     <use style="stroke:#000000;" x="237.147938" xlink:href="#m508c20f020" y="173.645157"/>
     <use style="stroke:#000000;" x="237.979036" xlink:href="#m508c20f020" y="173.962345"/>
     <use style="stroke:#000000;" x="240.135464" xlink:href="#m508c20f020" y="174.528"/>
     <use style="stroke:#000000;" x="242.987358" xlink:href="#m508c20f020" y="173.695643"/>
     <use style="stroke:#000000;" x="244.162135" xlink:href="#m508c20f020" y="173.51622"/>
     <use style="stroke:#000000;" x="244.186689" xlink:href="#m508c20f020" y="172.797204"/>
     <use style="stroke:#000000;" x="248.584622" xlink:href="#m508c20f020" y="173.518955"/>
     <use style="stroke:#000000;" x="239.896707" xlink:href="#m508c20f020" y="173.530228"/>
     <use style="stroke:#000000;" x="236.16" xlink:href="#m508c20f020" y="172.970723"/>
     <use style="stroke:#000000;" x="236.626324" xlink:href="#m508c20f020" y="173.721713"/>
     <use style="stroke:#000000;" x="240.018488" xlink:href="#m508c20f020" y="173.971197"/>
     <use style="stroke:#000000;" x="236.887921" xlink:href="#m508c20f020" y="173.781919"/>
     <use style="stroke:#000000;" x="240.349824" xlink:href="#m508c20f020" y="173.712034"/>
     <use style="stroke:#000000;" x="250.691871" xlink:href="#m508c20f020" y="174.528"/>
     <use style="stroke:#000000;" x="251.911609" xlink:href="#m508c20f020" y="172.590201"/>
     <use style="stroke:#000000;" x="239.938662" xlink:href="#m508c20f020" y="174.096768"/>
     <use style="stroke:#000000;" x="238.444524" xlink:href="#m508c20f020" y="174.147413"/>
     <use style="stroke:#000000;" x="236.16" xlink:href="#m508c20f020" y="174.528"/>
     <use style="stroke:#000000;" x="236.563976" xlink:href="#m508c20f020" y="174.523403"/>
     <use style="stroke:#000000;" x="248.289194" xlink:href="#m508c20f020" y="174.528"/>
     <use style="stroke:#000000;" x="247.961569" xlink:href="#m508c20f020" y="173.866555"/>
     <use style="stroke:#000000;" x="237.983945" xlink:href="#m508c20f020" y="173.273244"/>
     <use style="stroke:#000000;" x="237.232879" xlink:href="#m508c20f020" y="174.528"/>
     <use style="stroke:#000000;" x="239.919344" xlink:href="#m508c20f020" y="174.501946"/>
     <use style="stroke:#000000;" x="240.300763" xlink:href="#m508c20f020" y="174.528"/>
     <use style="stroke:#000000;" x="241.12585" xlink:href="#m508c20f020" y="174.528"/>
     <use style="stroke:#000000;" x="239.714508" xlink:href="#m508c20f020" y="174.079916"/>
     <use style="stroke:#000000;" x="239.59544" xlink:href="#m508c20f020" y="174.425971"/>
     <use style="stroke:#000000;" x="239.859664" xlink:href="#m508c20f020" y="174.439792"/>
     <use style="stroke:#000000;" x="250.79713" xlink:href="#m508c20f020" y="173.625139"/>
     <use style="stroke:#000000;" x="251.697883" xlink:href="#m508c20f020" y="172.665201"/>
     <use style="stroke:#000000;" x="236.16" xlink:href="#m508c20f020" y="172.737958"/>
     <use style="stroke:#000000;" x="236.16" xlink:href="#m508c20f020" y="172.590756"/>
     <use style="stroke:#000000;" x="248.132299" xlink:href="#m508c20f020" y="173.564054"/>
     <use style="stroke:#000000;" x="249.1183" xlink:href="#m508c20f020" y="173.605706"/>
     <use style="stroke:#000000;" x="243.64826" xlink:href="#m508c20f020" y="172.028325"/>
     <use style="stroke:#000000;" x="244.530099" xlink:href="#m508c20f020" y="172.684745"/>
     <use style="stroke:#000000;" x="240.058843" xlink:href="#m508c20f020" y="174.162344"/>
     <use style="stroke:#000000;" x="239.414921" xlink:href="#m508c20f020" y="173.620829"/>
     <use style="stroke:#000000;" x="250.65201" xlink:href="#m508c20f020" y="173.603859"/>
     <use style="stroke:#000000;" x="251.30557" xlink:href="#m508c20f020" y="173.594847"/>
     <use style="stroke:#000000;" x="250.476554" xlink:href="#m508c20f020" y="172.565546"/>
     <use style="stroke:#000000;" x="251.678512" xlink:href="#m508c20f020" y="172.855693"/>
     <use style="stroke:#000000;" x="238.644042" xlink:href="#m508c20f020" y="174.492038"/>
     <use style="stroke:#000000;" x="237.682164" xlink:href="#m508c20f020" y="174.517629"/>
     <use style="stroke:#000000;" x="243.848479" xlink:href="#m508c20f020" y="173.298205"/>
     <use style="stroke:#000000;" x="242.747496" xlink:href="#m508c20f020" y="173.691658"/>
     <use style="stroke:#000000;" x="244.202808" xlink:href="#m508c20f020" y="172.783697"/>
     <use style="stroke:#000000;" x="243.704252" xlink:href="#m508c20f020" y="172.422885"/>
     <use style="stroke:#000000;" x="243.385953" xlink:href="#m508c20f020" y="172.587253"/>
     <use style="stroke:#000000;" x="244.034046" xlink:href="#m508c20f020" y="173.513602"/>
     <use style="stroke:#000000;" x="236.488694" xlink:href="#m508c20f020" y="174.066451"/>
     <use style="stroke:#000000;" x="236.364163" xlink:href="#m508c20f020" y="174.528"/>
     <use style="stroke:#000000;" x="247.639738" xlink:href="#m508c20f020" y="171.593807"/>
     <use style="stroke:#000000;" x="246.928859" xlink:href="#m508c20f020" y="172.61534"/>
     <use style="stroke:#000000;" x="247.959903" xlink:href="#m508c20f020" y="172.11914"/>
     <use style="stroke:#000000;" x="250.891366" xlink:href="#m508c20f020" y="173.467924"/>
     <use style="stroke:#000000;" x="251.189735" xlink:href="#m508c20f020" y="174.05623"/>
     <use style="stroke:#000000;" x="251.902978" xlink:href="#m508c20f020" y="174.0813"/>
     <use style="stroke:#000000;" x="240.497498" xlink:href="#m508c20f020" y="173.267269"/>
     <use style="stroke:#000000;" x="239.402649" xlink:href="#m508c20f020" y="174.185176"/>
     <use style="stroke:#000000;" x="245.042707" xlink:href="#m508c20f020" y="172.895001"/>
     <use style="stroke:#000000;" x="243.33982" xlink:href="#m508c20f020" y="172.826135"/>
     <use style="stroke:#000000;" x="243.670121" xlink:href="#m508c20f020" y="173.222801"/>
     <use style="stroke:#000000;" x="247.174405" xlink:href="#m508c20f020" y="173.975776"/>
     <use style="stroke:#000000;" x="248.061965" xlink:href="#m508c20f020" y="173.68382"/>
     <use style="stroke:#000000;" x="247.323836" xlink:href="#m508c20f020" y="174.174233"/>
     <use style="stroke:#000000;" x="247.28838" xlink:href="#m508c20f020" y="173.504228"/>
     <use style="stroke:#000000;" x="247.20646" xlink:href="#m508c20f020" y="174.264752"/>
     <use style="stroke:#000000;" x="247.777804" xlink:href="#m508c20f020" y="174.400317"/>
     <use style="stroke:#000000;" x="250.405649" xlink:href="#m508c20f020" y="174.528"/>
     <use style="stroke:#000000;" x="250.915787" xlink:href="#m508c20f020" y="174.341148"/>
     <use style="stroke:#000000;" x="251.62844" xlink:href="#m508c20f020" y="174.238513"/>
     <use style="stroke:#000000;" x="243.637587" xlink:href="#m508c20f020" y="172.57487"/>
     <use style="stroke:#000000;" x="243.531051" xlink:href="#m508c20f020" y="172.170197"/>
     <use style="stroke:#000000;" x="244.215681" xlink:href="#m508c20f020" y="172.431462"/>
     <use style="stroke:#000000;" x="243.621957" xlink:href="#m508c20f020" y="173.031"/>
     <use style="stroke:#000000;" x="243.705656" xlink:href="#m508c20f020" y="173.991045"/>
     <use style="stroke:#000000;" x="244.220937" xlink:href="#m508c20f020" y="173.395026"/>
     <use style="stroke:#000000;" x="250.663726" xlink:href="#m508c20f020" y="173.819128"/>
     <use style="stroke:#000000;" x="251.668654" xlink:href="#m508c20f020" y="174.423364"/>
     <use style="stroke:#000000;" x="251.281424" xlink:href="#m508c20f020" y="174.528"/>
     <use style="stroke:#000000;" x="237.199831" xlink:href="#m508c20f020" y="174.172514"/>
     <use style="stroke:#000000;" x="238.255033" xlink:href="#m508c20f020" y="174.528"/>
     <use style="stroke:#000000;" x="237.342716" xlink:href="#m508c20f020" y="174.473332"/>
     <use style="stroke:#000000;" x="236.512343" xlink:href="#m508c20f020" y="174.476401"/>
     <use style="stroke:#000000;" x="236.357929" xlink:href="#m508c20f020" y="174.157772"/>
     <use style="stroke:#000000;" x="236.16" xlink:href="#m508c20f020" y="174.289797"/>
     <use style="stroke:#000000;" x="236.811133" xlink:href="#m508c20f020" y="173.118892"/>
     <use style="stroke:#000000;" x="237.115481" xlink:href="#m508c20f020" y="173.849586"/>
     <use style="stroke:#000000;" x="246.754626" xlink:href="#m508c20f020" y="173.911314"/>
     <use style="stroke:#000000;" x="247.657516" xlink:href="#m508c20f020" y="173.693889"/>
     <use style="stroke:#000000;" x="247.706545" xlink:href="#m508c20f020" y="173.320519"/>
     <use style="stroke:#000000;" x="236.16" xlink:href="#m508c20f020" y="172.723813"/>
     <use style="stroke:#000000;" x="236.97896" xlink:href="#m508c20f020" y="173.165527"/>
     <use style="stroke:#000000;" x="236.218072" xlink:href="#m508c20f020" y="173.208654"/>
     <use style="stroke:#000000;" x="240.812146" xlink:href="#m508c20f020" y="174.528"/>
     <use style="stroke:#000000;" x="240.210756" xlink:href="#m508c20f020" y="174.528"/>
     <use style="stroke:#000000;" x="241.077459" xlink:href="#m508c20f020" y="174.528"/>
     <use style="stroke:#000000;" x="236.856764" xlink:href="#m508c20f020" y="174.528"/>
     <use style="stroke:#000000;" x="236.16" xlink:href="#m508c20f020" y="174.187211"/>
     <use style="stroke:#000000;" x="236.16" xlink:href="#m508c20f020" y="174.233139"/>
     <use style="stroke:#000000;" x="237.003596" xlink:href="#m508c20f020" y="174.35336"/>
     <use style="stroke:#000000;" x="236.219899" xlink:href="#m508c20f020" y="174.352882"/>
     <use style="stroke:#000000;" x="237.150615" xlink:href="#m508c20f020" y="174.528"/>
     <use style="stroke:#000000;" x="240.71227" xlink:href="#m508c20f020" y="174.462009"/>
     <use style="stroke:#000000;" x="241.128061" xlink:href="#m508c20f020" y="174.209301"/>
     <use style="stroke:#000000;" x="240.866589" xlink:href="#m508c20f020" y="174.380577"/>
     <use style="stroke:#000000;" x="239.218283" xlink:href="#m508c20f020" y="174.511986"/>
     <use style="stroke:#000000;" x="239.424073" xlink:href="#m508c20f020" y="174.528"/>
     <use style="stroke:#000000;" x="240.344145" xlink:href="#m508c20f020" y="174.506804"/>
     <use style="stroke:#000000;" x="240.411609" xlink:href="#m508c20f020" y="174.053612"/>
     <use style="stroke:#000000;" x="240.575041" xlink:href="#m508c20f020" y="174.528"/>
     <use style="stroke:#000000;" x="240.268692" xlink:href="#m508c20f020" y="174.328119"/>
     <use style="stroke:#000000;" x="240.636426" xlink:href="#m508c20f020" y="174.528"/>
     <use style="stroke:#000000;" x="241.070207" xlink:href="#m508c20f020" y="174.528"/>
     <use style="stroke:#000000;" x="236.16" xlink:href="#m508c20f020" y="173.427574"/>
     <use style="stroke:#000000;" x="245.077764" xlink:href="#m508c20f020" y="174.528"/>
    </g>
   </g>
   <g id="PathCollection_2">
    <defs>
     <path d="M 0 0.935414 
C 0.248075 0.935414 0.486022 0.836853 0.661438 0.661438 
C 0.836853 0.486022 0.935414 0.248075 0.935414 0 
C 0.935414 -0.248075 0.836853 -0.486022 0.661438 -0.661438 
C 0.486022 -0.836853 0.248075 -0.935414 0 -0.935414 
C -0.248075 -0.935414 -0.486022 -0.836853 -0.661438 -0.661438 
C -0.836853 -0.486022 -0.935414 -0.248075 -0.935414 0 
C -0.935414 0.248075 -0.836853 0.486022 -0.661438 0.661438 
C -0.486022 0.836853 -0.248075 0.935414 0 0.935414 
z
" id="m0f0bf2947f" style="stroke:#0000ff;"/>
    </defs>
    <g clip-path="url(#peb66a0f918)">
     <use style="fill:#0000ff;stroke:#0000ff;" x="240.353567" xlink:href="#m0f0bf2947f" y="174.352188"/>
     <use style="fill:#0000ff;stroke:#0000ff;" x="236.323585" xlink:href="#m0f0bf2947f" y="174.185502"/>
     <use style="fill:#0000ff;stroke:#0000ff;" x="240.553647" xlink:href="#m0f0bf2947f" y="174.471548"/>
     <use style="fill:#0000ff;stroke:#0000ff;" x="240.099432" xlink:href="#m0f0bf2947f" y="174.528"/>
     <use style="fill:#0000ff;stroke:#0000ff;" x="243.990662" xlink:href="#m0f0bf2947f" y="173.565682"/>
     <use style="fill:#0000ff;stroke:#0000ff;" x="244.220199" xlink:href="#m0f0bf2947f" y="173.32036"/>
     <use style="fill:#0000ff;stroke:#0000ff;" x="244.170051" xlink:href="#m0f0bf2947f" y="174.381286"/>
     <use style="fill:#0000ff;stroke:#0000ff;" x="247.596997" xlink:href="#m0f0bf2947f" y="173.934745"/>
     <use style="fill:#0000ff;stroke:#0000ff;" x="240.336025" xlink:href="#m0f0bf2947f" y="174.254521"/>
     <use style="fill:#0000ff;stroke:#0000ff;" x="236.284601" xlink:href="#m0f0bf2947f" y="172.901185"/>
     <use style="fill:#0000ff;stroke:#0000ff;" x="236.16" xlink:href="#m0f0bf2947f" y="174.528"/>
     <use style="fill:#0000ff;stroke:#0000ff;" x="239.715203" xlink:href="#m0f0bf2947f" y="173.991163"/>
     <use style="fill:#0000ff;stroke:#0000ff;" x="236.839265" xlink:href="#m0f0bf2947f" y="174.39525"/>
     <use style="fill:#0000ff;stroke:#0000ff;" x="239.857954" xlink:href="#m0f0bf2947f" y="174.290453"/>
     <use style="fill:#0000ff;stroke:#0000ff;" x="251.1221" xlink:href="#m0f0bf2947f" y="173.803948"/>
     <use style="fill:#0000ff;stroke:#0000ff;" x="251.404312" xlink:href="#m0f0bf2947f" y="173.141318"/>
     <use style="fill:#0000ff;stroke:#0000ff;" x="240.244038" xlink:href="#m0f0bf2947f" y="174.276958"/>
     <use style="fill:#0000ff;stroke:#0000ff;" x="239.743726" xlink:href="#m0f0bf2947f" y="174.528"/>
     <use style="fill:#0000ff;stroke:#0000ff;" x="236.844109" xlink:href="#m0f0bf2947f" y="174.528"/>
     <use style="fill:#0000ff;stroke:#0000ff;" x="247.935697" xlink:href="#m0f0bf2947f" y="174.290334"/>
     <use style="fill:#0000ff;stroke:#0000ff;" x="236.209176" xlink:href="#m0f0bf2947f" y="174.484926"/>
     <use style="fill:#0000ff;stroke:#0000ff;" x="240.051127" xlink:href="#m0f0bf2947f" y="174.528"/>
     <use style="fill:#0000ff;stroke:#0000ff;" x="239.869455" xlink:href="#m0f0bf2947f" y="174.231238"/>
     <use style="fill:#0000ff;stroke:#0000ff;" x="239.868592" xlink:href="#m0f0bf2947f" y="174.528"/>
     <use style="fill:#0000ff;stroke:#0000ff;" x="251.213187" xlink:href="#m0f0bf2947f" y="172.881716"/>
     <use style="fill:#0000ff;stroke:#0000ff;" x="236.435773" xlink:href="#m0f0bf2947f" y="172.472809"/>
     <use style="fill:#0000ff;stroke:#0000ff;" x="247.704731" xlink:href="#m0f0bf2947f" y="173.752301"/>
     <use style="fill:#0000ff;stroke:#0000ff;" x="244.167159" xlink:href="#m0f0bf2947f" y="172.322123"/>
     <use style="fill:#0000ff;stroke:#0000ff;" x="239.71252" xlink:href="#m0f0bf2947f" y="173.482677"/>
     <use style="fill:#0000ff;stroke:#0000ff;" x="251.169912" xlink:href="#m0f0bf2947f" y="173.447839"/>
     <use style="fill:#0000ff;stroke:#0000ff;" x="251.017682" xlink:href="#m0f0bf2947f" y="173.620724"/>
     <use style="fill:#0000ff;stroke:#0000ff;" x="237.920016" xlink:href="#m0f0bf2947f" y="174.528"/>
     <use style="fill:#0000ff;stroke:#0000ff;" x="243.845648" xlink:href="#m0f0bf2947f" y="173.254882"/>
     <use style="fill:#0000ff;stroke:#0000ff;" x="244.095571" xlink:href="#m0f0bf2947f" y="172.770558"/>
     <use style="fill:#0000ff;stroke:#0000ff;" x="243.852979" xlink:href="#m0f0bf2947f" y="172.932414"/>
     <use style="fill:#0000ff;stroke:#0000ff;" x="236.537533" xlink:href="#m0f0bf2947f" y="174.528"/>
     <use style="fill:#0000ff;stroke:#0000ff;" x="247.553764" xlink:href="#m0f0bf2947f" y="172.231076"/>
     <use style="fill:#0000ff;stroke:#0000ff;" x="251.099245" xlink:href="#m0f0bf2947f" y="173.905953"/>
     <use style="fill:#0000ff;stroke:#0000ff;" x="239.693334" xlink:href="#m0f0bf2947f" y="173.757733"/>
     <use style="fill:#0000ff;stroke:#0000ff;" x="243.943656" xlink:href="#m0f0bf2947f" y="173.175998"/>
     <use style="fill:#0000ff;stroke:#0000ff;" x="247.905089" xlink:href="#m0f0bf2947f" y="173.885197"/>
     <use style="fill:#0000ff;stroke:#0000ff;" x="247.621622" xlink:href="#m0f0bf2947f" y="173.945544"/>
     <use style="fill:#0000ff;stroke:#0000ff;" x="251.167155" xlink:href="#m0f0bf2947f" y="174.171325"/>
     <use style="fill:#0000ff;stroke:#0000ff;" x="243.713239" xlink:href="#m0f0bf2947f" y="172.729585"/>
     <use style="fill:#0000ff;stroke:#0000ff;" x="243.885751" xlink:href="#m0f0bf2947f" y="173.20078"/>
     <use style="fill:#0000ff;stroke:#0000ff;" x="251.216887" xlink:href="#m0f0bf2947f" y="174.091994"/>
     <use style="fill:#0000ff;stroke:#0000ff;" x="237.22773" xlink:href="#m0f0bf2947f" y="174.46403"/>
     <use style="fill:#0000ff;stroke:#0000ff;" x="236.578616" xlink:href="#m0f0bf2947f" y="174.377963"/>
     <use style="fill:#0000ff;stroke:#0000ff;" x="237.317417" xlink:href="#m0f0bf2947f" y="173.032729"/>
     <use style="fill:#0000ff;stroke:#0000ff;" x="247.362336" xlink:href="#m0f0bf2947f" y="173.4015"/>
     <use style="fill:#0000ff;stroke:#0000ff;" x="236.618468" xlink:href="#m0f0bf2947f" y="173.046935"/>
     <use style="fill:#0000ff;stroke:#0000ff;" x="240.328805" xlink:href="#m0f0bf2947f" y="174.528"/>
     <use style="fill:#0000ff;stroke:#0000ff;" x="236.192134" xlink:href="#m0f0bf2947f" y="174.2633"/>
     <use style="fill:#0000ff;stroke:#0000ff;" x="236.659946" xlink:href="#m0f0bf2947f" y="174.48392"/>
     <use style="fill:#0000ff;stroke:#0000ff;" x="240.749076" xlink:href="#m0f0bf2947f" y="174.22308"/>
     <use style="fill:#0000ff;stroke:#0000ff;" x="239.880706" xlink:href="#m0f0bf2947f" y="174.453291"/>
     <use style="fill:#0000ff;stroke:#0000ff;" x="240.293975" xlink:href="#m0f0bf2947f" y="174.261373"/>
     <use style="fill:#0000ff;stroke:#0000ff;" x="240.436078" xlink:href="#m0f0bf2947f" y="174.385387"/>
     <use style="fill:#0000ff;stroke:#0000ff;" x="236.362747" xlink:href="#m0f0bf2947f" y="172.047566"/>
     <use style="fill:#0000ff;stroke:#0000ff;" x="244.432054" xlink:href="#m0f0bf2947f" y="173.531019"/>
    </g>
   </g>
   <g id="matplotlib.axis_1">
    <g id="xtick_1">
     <g id="line2d_1">
      <defs>
       <path d="M 0 0 
L 0 3.5 
" id="m3118e85da3" style="stroke:#000000;stroke-width:0.8;"/>
      </defs>
      <g>
       <use style="stroke:#000000;stroke-width:0.8;" x="57.6" xlink:href="#m3118e85da3" y="307.584"/>
      </g>
     </g>
     <g id="text_1">
      <!-- −10.0 -->
      <defs>
       <path d="M 10.59375 35.5 
L 73.1875 35.5 
L 73.1875 27.203125 
L 10.59375 27.203125 
z
" id="DejaVuSans-2212"/>
       <path d="M 12.40625 8.296875 
L 28.515625 8.296875 
L 28.515625 63.921875 
L 10.984375 60.40625 
L 10.984375 69.390625 
L 28.421875 72.90625 
L 38.28125 72.90625 
L 38.28125 8.296875 
L 54.390625 8.296875 
L 54.390625 0 
L 12.40625 0 
z
" id="DejaVuSans-31"/>
       <path d="M 31.78125 66.40625 
Q 24.171875 66.40625 20.328125 58.90625 
Q 16.5 51.421875 16.5 36.375 
Q 16.5 21.390625 20.328125 13.890625 
Q 24.171875 6.390625 31.78125 6.390625 
Q 39.453125 6.390625 43.28125 13.890625 
Q 47.125 21.390625 47.125 36.375 
Q 47.125 51.421875 43.28125 58.90625 
Q 39.453125 66.40625 31.78125 66.40625 
z
M 31.78125 74.21875 
Q 44.046875 74.21875 50.515625 64.515625 
Q 56.984375 54.828125 56.984375 36.375 
Q 56.984375 17.96875 50.515625 8.265625 
Q 44.046875 -1.421875 31.78125 -1.421875 
Q 19.53125 -1.421875 13.0625 8.265625 
Q 6.59375 17.96875 6.59375 36.375 
Q 6.59375 54.828125 13.0625 64.515625 
Q 19.53125 74.21875 31.78125 74.21875 
z
" id="DejaVuSans-30"/>
       <path d="M 10.6875 12.40625 
L 21 12.40625 
L 21 0 
L 10.6875 0 
z
" id="DejaVuSans-2e"/>
      </defs>
      <g transform="translate(42.277344 322.182437)scale(0.1 -0.1)">
       <use xlink:href="#DejaVuSans-2212"/>
       <use x="83.789062" xlink:href="#DejaVuSans-31"/>
       <use x="147.412109" xlink:href="#DejaVuSans-30"/>
       <use x="211.035156" xlink:href="#DejaVuSans-2e"/>
       <use x="242.822266" xlink:href="#DejaVuSans-30"/>
      </g>
     </g>
    </g>
    <g id="xtick_2">
     <g id="line2d_2">
      <g>
       <use style="stroke:#000000;stroke-width:0.8;" x="102.24" xlink:href="#m3118e85da3" y="307.584"/>
      </g>
     </g>
     <g id="text_2">
      <!-- −7.5 -->
      <defs>
       <path d="M 8.203125 72.90625 
L 55.078125 72.90625 
L 55.078125 68.703125 
L 28.609375 0 
L 18.3125 0 
L 43.21875 64.59375 
L 8.203125 64.59375 
z
" id="DejaVuSans-37"/>
       <path d="M 10.796875 72.90625 
L 49.515625 72.90625 
L 49.515625 64.59375 
L 19.828125 64.59375 
L 19.828125 46.734375 
Q 21.96875 47.46875 24.109375 47.828125 
Q 26.265625 48.1875 28.421875 48.1875 
Q 40.625 48.1875 47.75 41.5 
Q 54.890625 34.8125 54.890625 23.390625 
Q 54.890625 11.625 47.5625 5.09375 
Q 40.234375 -1.421875 26.90625 -1.421875 
Q 22.3125 -1.421875 17.546875 -0.640625 
Q 12.796875 0.140625 7.71875 1.703125 
L 7.71875 11.625 
Q 12.109375 9.234375 16.796875 8.0625 
Q 21.484375 6.890625 26.703125 6.890625 
Q 35.15625 6.890625 40.078125 11.328125 
Q 45.015625 15.765625 45.015625 23.390625 
Q 45.015625 31 40.078125 35.4375 
Q 35.15625 39.890625 26.703125 39.890625 
Q 22.75 39.890625 18.8125 39.015625 
Q 14.890625 38.140625 10.796875 36.28125 
z
" id="DejaVuSans-35"/>
      </defs>
      <g transform="translate(90.098594 322.182437)scale(0.1 -0.1)">
       <use xlink:href="#DejaVuSans-2212"/>
       <use x="83.789062" xlink:href="#DejaVuSans-37"/>
       <use x="147.412109" xlink:href="#DejaVuSans-2e"/>
       <use x="179.199219" xlink:href="#DejaVuSans-35"/>
      </g>
     </g>
    </g>
    <g id="xtick_3">
     <g id="line2d_3">
      <g>
       <use style="stroke:#000000;stroke-width:0.8;" x="146.88" xlink:href="#m3118e85da3" y="307.584"/>
      </g>
     </g>
     <g id="text_3">
      <!-- −5.0 -->
      <g transform="translate(134.738594 322.182437)scale(0.1 -0.1)">
       <use xlink:href="#DejaVuSans-2212"/>
       <use x="83.789062" xlink:href="#DejaVuSans-35"/>
       <use x="147.412109" xlink:href="#DejaVuSans-2e"/>
       <use x="179.199219" xlink:href="#DejaVuSans-30"/>
      </g>
     </g>
    </g>
    <g id="xtick_4">
     <g id="line2d_4">
      <g>
       <use style="stroke:#000000;stroke-width:0.8;" x="191.52" xlink:href="#m3118e85da3" y="307.584"/>
      </g>
     </g>
     <g id="text_4">
      <!-- −2.5 -->
      <defs>
       <path d="M 19.1875 8.296875 
L 53.609375 8.296875 
L 53.609375 0 
L 7.328125 0 
L 7.328125 8.296875 
Q 12.9375 14.109375 22.625 23.890625 
Q 32.328125 33.6875 34.8125 36.53125 
Q 39.546875 41.84375 41.421875 45.53125 
Q 43.3125 49.21875 43.3125 52.78125 
Q 43.3125 58.59375 39.234375 62.25 
Q 35.15625 65.921875 28.609375 65.921875 
Q 23.96875 65.921875 18.8125 64.3125 
Q 13.671875 62.703125 7.8125 59.421875 
L 7.8125 69.390625 
Q 13.765625 71.78125 18.9375 73 
Q 24.125 74.21875 28.421875 74.21875 
Q 39.75 74.21875 46.484375 68.546875 
Q 53.21875 62.890625 53.21875 53.421875 
Q 53.21875 48.921875 51.53125 44.890625 
Q 49.859375 40.875 45.40625 35.40625 
Q 44.1875 33.984375 37.640625 27.21875 
Q 31.109375 20.453125 19.1875 8.296875 
z
" id="DejaVuSans-32"/>
      </defs>
      <g transform="translate(179.378594 322.182437)scale(0.1 -0.1)">
       <use xlink:href="#DejaVuSans-2212"/>
       <use x="83.789062" xlink:href="#DejaVuSans-32"/>
       <use x="147.412109" xlink:href="#DejaVuSans-2e"/>
       <use x="179.199219" xlink:href="#DejaVuSans-35"/>
      </g>
     </g>
    </g>
    <g id="xtick_5">
     <g id="line2d_5">
      <g>
       <use style="stroke:#000000;stroke-width:0.8;" x="236.16" xlink:href="#m3118e85da3" y="307.584"/>
      </g>
     </g>
     <g id="text_5">
      <!-- 0.0 -->
      <g transform="translate(228.208438 322.182437)scale(0.1 -0.1)">
       <use xlink:href="#DejaVuSans-30"/>
       <use x="63.623047" xlink:href="#DejaVuSans-2e"/>
       <use x="95.410156" xlink:href="#DejaVuSans-30"/>
      </g>
     </g>
    </g>
    <g id="xtick_6">
     <g id="line2d_6">
      <g>
       <use style="stroke:#000000;stroke-width:0.8;" x="280.8" xlink:href="#m3118e85da3" y="307.584"/>
      </g>
     </g>
     <g id="text_6">
      <!-- 2.5 -->
      <g transform="translate(272.848437 322.182437)scale(0.1 -0.1)">
       <use xlink:href="#DejaVuSans-32"/>
       <use x="63.623047" xlink:href="#DejaVuSans-2e"/>
       <use x="95.410156" xlink:href="#DejaVuSans-35"/>
      </g>
     </g>
    </g>
    <g id="xtick_7">
     <g id="line2d_7">
      <g>
       <use style="stroke:#000000;stroke-width:0.8;" x="325.44" xlink:href="#m3118e85da3" y="307.584"/>
      </g>
     </g>
     <g id="text_7">
      <!-- 5.0 -->
      <g transform="translate(317.488437 322.182437)scale(0.1 -0.1)">
       <use xlink:href="#DejaVuSans-35"/>
       <use x="63.623047" xlink:href="#DejaVuSans-2e"/>
       <use x="95.410156" xlink:href="#DejaVuSans-30"/>
      </g>
     </g>
    </g>
    <g id="xtick_8">
     <g id="line2d_8">
      <g>
       <use style="stroke:#000000;stroke-width:0.8;" x="370.08" xlink:href="#m3118e85da3" y="307.584"/>
      </g>
     </g>
     <g id="text_8">
      <!-- 7.5 -->
      <g transform="translate(362.128438 322.182437)scale(0.1 -0.1)">
       <use xlink:href="#DejaVuSans-37"/>
       <use x="63.623047" xlink:href="#DejaVuSans-2e"/>
       <use x="95.410156" xlink:href="#DejaVuSans-35"/>
      </g>
     </g>
    </g>
    <g id="xtick_9">
     <g id="line2d_9">
      <g>
       <use style="stroke:#000000;stroke-width:0.8;" x="414.72" xlink:href="#m3118e85da3" y="307.584"/>
      </g>
     </g>
     <g id="text_9">
      <!-- 10.0 -->
      <g transform="translate(403.587188 322.182437)scale(0.1 -0.1)">
       <use xlink:href="#DejaVuSans-31"/>
       <use x="63.623047" xlink:href="#DejaVuSans-30"/>
       <use x="127.246094" xlink:href="#DejaVuSans-2e"/>
       <use x="159.033203" xlink:href="#DejaVuSans-30"/>
      </g>
     </g>
    </g>
   </g>
   <g id="matplotlib.axis_2">
    <g id="ytick_1">
     <g id="line2d_10">
      <defs>
       <path d="M 0 0 
L -3.5 0 
" id="m257fc254ed" style="stroke:#000000;stroke-width:0.8;"/>
      </defs>
      <g>
       <use style="stroke:#000000;stroke-width:0.8;" x="57.6" xlink:href="#m257fc254ed" y="307.584"/>
      </g>
     </g>
     <g id="text_10">
      <!-- −10.0 -->
      <g transform="translate(19.954687 311.383219)scale(0.1 -0.1)">
       <use xlink:href="#DejaVuSans-2212"/>
       <use x="83.789062" xlink:href="#DejaVuSans-31"/>
       <use x="147.412109" xlink:href="#DejaVuSans-30"/>
       <use x="211.035156" xlink:href="#DejaVuSans-2e"/>
       <use x="242.822266" xlink:href="#DejaVuSans-30"/>
      </g>
     </g>
    </g>
    <g id="ytick_2">
     <g id="line2d_11">
      <g>
       <use style="stroke:#000000;stroke-width:0.8;" x="57.6" xlink:href="#m257fc254ed" y="274.32"/>
      </g>
     </g>
     <g id="text_11">
      <!-- −7.5 -->
      <g transform="translate(26.317187 278.119219)scale(0.1 -0.1)">
       <use xlink:href="#DejaVuSans-2212"/>
       <use x="83.789062" xlink:href="#DejaVuSans-37"/>
       <use x="147.412109" xlink:href="#DejaVuSans-2e"/>
       <use x="179.199219" xlink:href="#DejaVuSans-35"/>
      </g>
     </g>
    </g>
    <g id="ytick_3">
     <g id="line2d_12">
      <g>
       <use style="stroke:#000000;stroke-width:0.8;" x="57.6" xlink:href="#m257fc254ed" y="241.056"/>
      </g>
     </g>
     <g id="text_12">
      <!-- −5.0 -->
      <g transform="translate(26.317187 244.855219)scale(0.1 -0.1)">
       <use xlink:href="#DejaVuSans-2212"/>
       <use x="83.789062" xlink:href="#DejaVuSans-35"/>
       <use x="147.412109" xlink:href="#DejaVuSans-2e"/>
       <use x="179.199219" xlink:href="#DejaVuSans-30"/>
      </g>
     </g>
    </g>
    <g id="ytick_4">
     <g id="line2d_13">
      <g>
       <use style="stroke:#000000;stroke-width:0.8;" x="57.6" xlink:href="#m257fc254ed" y="207.792"/>
      </g>
     </g>
     <g id="text_13">
      <!-- −2.5 -->
      <g transform="translate(26.317187 211.591219)scale(0.1 -0.1)">
       <use xlink:href="#DejaVuSans-2212"/>
       <use x="83.789062" xlink:href="#DejaVuSans-32"/>
       <use x="147.412109" xlink:href="#DejaVuSans-2e"/>
       <use x="179.199219" xlink:href="#DejaVuSans-35"/>
      </g>
     </g>
    </g>
    <g id="ytick_5">
     <g id="line2d_14">
      <g>
       <use style="stroke:#000000;stroke-width:0.8;" x="57.6" xlink:href="#m257fc254ed" y="174.528"/>
      </g>
     </g>
     <g id="text_14">
      <!-- 0.0 -->
      <g transform="translate(34.696875 178.327219)scale(0.1 -0.1)">
       <use xlink:href="#DejaVuSans-30"/>
       <use x="63.623047" xlink:href="#DejaVuSans-2e"/>
       <use x="95.410156" xlink:href="#DejaVuSans-30"/>
      </g>
     </g>
    </g>
    <g id="ytick_6">
     <g id="line2d_15">
      <g>
       <use style="stroke:#000000;stroke-width:0.8;" x="57.6" xlink:href="#m257fc254ed" y="141.264"/>
      </g>
     </g>
     <g id="text_15">
      <!-- 2.5 -->
      <g transform="translate(34.696875 145.063219)scale(0.1 -0.1)">
       <use xlink:href="#DejaVuSans-32"/>
       <use x="63.623047" xlink:href="#DejaVuSans-2e"/>
       <use x="95.410156" xlink:href="#DejaVuSans-35"/>
      </g>
     </g>
    </g>
    <g id="ytick_7">
     <g id="line2d_16">
      <g>
       <use style="stroke:#000000;stroke-width:0.8;" x="57.6" xlink:href="#m257fc254ed" y="108"/>
      </g>
     </g>
     <g id="text_16">
      <!-- 5.0 -->
      <g transform="translate(34.696875 111.799219)scale(0.1 -0.1)">
       <use xlink:href="#DejaVuSans-35"/>
       <use x="63.623047" xlink:href="#DejaVuSans-2e"/>
       <use x="95.410156" xlink:href="#DejaVuSans-30"/>
      </g>
     </g>
    </g>
    <g id="ytick_8">
     <g id="line2d_17">
      <g>
       <use style="stroke:#000000;stroke-width:0.8;" x="57.6" xlink:href="#m257fc254ed" y="74.736"/>
      </g>
     </g>
     <g id="text_17">
      <!-- 7.5 -->
      <g transform="translate(34.696875 78.535219)scale(0.1 -0.1)">
       <use xlink:href="#DejaVuSans-37"/>
       <use x="63.623047" xlink:href="#DejaVuSans-2e"/>
       <use x="95.410156" xlink:href="#DejaVuSans-35"/>
      </g>
     </g>
    </g>
    <g id="ytick_9">
     <g id="line2d_18">
      <g>
       <use style="stroke:#000000;stroke-width:0.8;" x="57.6" xlink:href="#m257fc254ed" y="41.472"/>
      </g>
     </g>
     <g id="text_18">
      <!-- 10.0 -->
      <g transform="translate(28.334375 45.271219)scale(0.1 -0.1)">
       <use xlink:href="#DejaVuSans-31"/>
       <use x="63.623047" xlink:href="#DejaVuSans-30"/>
       <use x="127.246094" xlink:href="#DejaVuSans-2e"/>
       <use x="159.033203" xlink:href="#DejaVuSans-30"/>
      </g>
     </g>
    </g>
   </g>
   <g id="patch_3">
    <path d="M 57.6 307.584 
L 57.6 41.472 
" style="fill:none;stroke:#000000;stroke-linecap:square;stroke-linejoin:miter;stroke-width:0.8;"/>
   </g>
   <g id="patch_4">
    <path d="M 414.72 307.584 
L 414.72 41.472 
" style="fill:none;stroke:#000000;stroke-linecap:square;stroke-linejoin:miter;stroke-width:0.8;"/>
   </g>
   <g id="patch_5">
    <path d="M 57.6 307.584 
L 414.72 307.584 
" style="fill:none;stroke:#000000;stroke-linecap:square;stroke-linejoin:miter;stroke-width:0.8;"/>
   </g>
   <g id="patch_6">
    <path d="M 57.6 41.472 
L 414.72 41.472 
" style="fill:none;stroke:#000000;stroke-linecap:square;stroke-linejoin:miter;stroke-width:0.8;"/>
   </g>
  </g>
 </g>
 <defs>
  <clipPath id="peb66a0f918">
   <rect height="266.112" width="357.12" x="57.6" y="41.472"/>
  </clipPath>
 </defs>
</svg>
