<?xml version="1.0" encoding="utf-8" standalone="no"?>
<!DOCTYPE svg PUBLIC "-//W3C//DTD SVG 1.1//EN"
  "http://www.w3.org/Graphics/SVG/1.1/DTD/svg11.dtd">
<!-- Created with matplotlib (http://matplotlib.org/) -->
<svg height="345.6pt" version="1.1" viewBox="0 0 460.8 345.6" width="460.8pt" xmlns="http://www.w3.org/2000/svg" xmlns:xlink="http://www.w3.org/1999/xlink">
 <defs>
  <style type="text/css">
*{stroke-linecap:butt;stroke-linejoin:round;}
  </style>
 </defs>
 <g id="figure_1">
  <g id="patch_1">
   <path d="M 0 345.6 
L 460.8 345.6 
L 460.8 0 
L 0 0 
z
" style="fill:#ffffff;"/>
  </g>
  <g id="axes_1">
   <g id="patch_2">
    <path d="M 57.6 307.584 
L 414.72 307.584 
L 414.72 41.472 
L 57.6 41.472 
z
" style="fill:#ffffff;"/>
   </g>
   <g id="PathCollection_1">
    <defs>
     <path d="M 0 0.612372 
C 0.162403 0.612372 0.318176 0.547849 0.433013 0.433013 
C 0.547849 0.318176 0.612372 0.162403 0.612372 0 
C 0.612372 -0.162403 0.547849 -0.318176 0.433013 -0.433013 
C 0.318176 -0.547849 0.162403 -0.612372 0 -0.612372 
C -0.162403 -0.612372 -0.318176 -0.547849 -0.433013 -0.433013 
C -0.547849 -0.318176 -0.612372 -0.162403 -0.612372 0 
C -0.612372 0.162403 -0.547849 0.318176 -0.433013 0.433013 
C -0.318176 0.547849 -0.162403 0.612372 0 0.612372 
z
" id="m61313c44d7" style="stroke:#000000;"/>
    </defs>
    <g clip-path="url(#pd949172376)">
     <use style="stroke:#000000;" x="236.16" xlink:href="#m61313c44d7" y="147.955218"/>
     <use style="stroke:#000000;" x="236.16" xlink:href="#m61313c44d7" y="150.313401"/>
     <use style="stroke:#000000;" x="325.44" xlink:href="#m61313c44d7" y="140.736768"/>
     <use style="stroke:#000000;" x="236.16" xlink:href="#m61313c44d7" y="170.072867"/>
     <use style="stroke:#000000;" x="236.16" xlink:href="#m61313c44d7" y="145.034124"/>
     <use style="stroke:#000000;" x="236.16" xlink:href="#m61313c44d7" y="150.935124"/>
     <use style="stroke:#000000;" x="236.16" xlink:href="#m61313c44d7" y="143.975966"/>
     <use style="stroke:#000000;" x="236.16" xlink:href="#m61313c44d7" y="142.435865"/>
     <use style="stroke:#000000;" x="321.885286" xlink:href="#m61313c44d7" y="174.528"/>
     <use style="stroke:#000000;" x="325.44" xlink:href="#m61313c44d7" y="143.998845"/>
     <use style="stroke:#000000;" x="236.16" xlink:href="#m61313c44d7" y="139.295179"/>
     <use style="stroke:#000000;" x="265.870376" xlink:href="#m61313c44d7" y="174.528"/>
     <use style="stroke:#000000;" x="236.16" xlink:href="#m61313c44d7" y="134.6112"/>
     <use style="stroke:#000000;" x="304.775217" xlink:href="#m61313c44d7" y="174.528"/>
     <use style="stroke:#000000;" x="325.44" xlink:href="#m61313c44d7" y="171.318227"/>
     <use style="stroke:#000000;" x="236.16" xlink:href="#m61313c44d7" y="134.6112"/>
     <use style="stroke:#000000;" x="236.16" xlink:href="#m61313c44d7" y="165.22391"/>
     <use style="stroke:#000000;" x="236.16" xlink:href="#m61313c44d7" y="155.877912"/>
     <use style="stroke:#000000;" x="236.16" xlink:href="#m61313c44d7" y="150.493043"/>
     <use style="stroke:#000000;" x="325.44" xlink:href="#m61313c44d7" y="146.311296"/>
     <use style="stroke:#000000;" x="325.44" xlink:href="#m61313c44d7" y="158.213463"/>
     <use style="stroke:#000000;" x="325.44" xlink:href="#m61313c44d7" y="153.300602"/>
     <use style="stroke:#000000;" x="325.44" xlink:href="#m61313c44d7" y="142.504809"/>
     <use style="stroke:#000000;" x="238.269591" xlink:href="#m61313c44d7" y="174.528"/>
     <use style="stroke:#000000;" x="325.44" xlink:href="#m61313c44d7" y="136.479949"/>
     <use style="stroke:#000000;" x="312.023915" xlink:href="#m61313c44d7" y="174.528"/>
     <use style="stroke:#000000;" x="325.44" xlink:href="#m61313c44d7" y="166.803901"/>
     <use style="stroke:#000000;" x="254.014438" xlink:href="#m61313c44d7" y="174.528"/>
     <use style="stroke:#000000;" x="236.16" xlink:href="#m61313c44d7" y="156.637806"/>
     <use style="stroke:#000000;" x="236.16" xlink:href="#m61313c44d7" y="155.127218"/>
     <use style="stroke:#000000;" x="236.481752" xlink:href="#m61313c44d7" y="155.8661"/>
     <use style="stroke:#000000;" x="236.16" xlink:href="#m61313c44d7" y="174.528"/>
     <use style="stroke:#000000;" x="236.16" xlink:href="#m61313c44d7" y="142.945077"/>
     <use style="stroke:#000000;" x="236.16" xlink:href="#m61313c44d7" y="149.093013"/>
     <use style="stroke:#000000;" x="236.16" xlink:href="#m61313c44d7" y="156.755284"/>
     <use style="stroke:#000000;" x="236.16" xlink:href="#m61313c44d7" y="152.962391"/>
     <use style="stroke:#000000;" x="236.16" xlink:href="#m61313c44d7" y="151.521562"/>
     <use style="stroke:#000000;" x="236.16" xlink:href="#m61313c44d7" y="139.55979"/>
     <use style="stroke:#000000;" x="236.16" xlink:href="#m61313c44d7" y="154.499179"/>
     <use style="stroke:#000000;" x="325.44" xlink:href="#m61313c44d7" y="145.072229"/>
     <use style="stroke:#000000;" x="281.496839" xlink:href="#m61313c44d7" y="174.528"/>
     <use style="stroke:#000000;" x="281.103514" xlink:href="#m61313c44d7" y="174.528"/>
     <use style="stroke:#000000;" x="268.690724" xlink:href="#m61313c44d7" y="174.528"/>
     <use style="stroke:#000000;" x="236.16" xlink:href="#m61313c44d7" y="140.54961"/>
     <use style="stroke:#000000;" x="236.16" xlink:href="#m61313c44d7" y="137.089388"/>
     <use style="stroke:#000000;" x="272.282534" xlink:href="#m61313c44d7" y="174.528"/>
     <use style="stroke:#000000;" x="236.16" xlink:href="#m61313c44d7" y="134.6112"/>
     <use style="stroke:#000000;" x="236.16" xlink:href="#m61313c44d7" y="159.705955"/>
     <use style="stroke:#000000;" x="325.44" xlink:href="#m61313c44d7" y="141.744987"/>
     <use style="stroke:#000000;" x="236.16" xlink:href="#m61313c44d7" y="154.623157"/>
     <use style="stroke:#000000;" x="236.16" xlink:href="#m61313c44d7" y="137.801787"/>
     <use style="stroke:#000000;" x="236.16" xlink:href="#m61313c44d7" y="144.010688"/>
     <use style="stroke:#000000;" x="236.16" xlink:href="#m61313c44d7" y="162.569183"/>
     <use style="stroke:#000000;" x="236.16" xlink:href="#m61313c44d7" y="141.987485"/>
     <use style="stroke:#000000;" x="237.261255" xlink:href="#m61313c44d7" y="174.528"/>
     <use style="stroke:#000000;" x="236.16" xlink:href="#m61313c44d7" y="136.3664"/>
     <use style="stroke:#000000;" x="236.16" xlink:href="#m61313c44d7" y="164.301248"/>
     <use style="stroke:#000000;" x="312.351856" xlink:href="#m61313c44d7" y="174.528"/>
     <use style="stroke:#000000;" x="236.16" xlink:href="#m61313c44d7" y="174.528"/>
     <use style="stroke:#000000;" x="236.16" xlink:href="#m61313c44d7" y="163.31587"/>
     <use style="stroke:#000000;" x="325.44" xlink:href="#m61313c44d7" y="144.597535"/>
     <use style="stroke:#000000;" x="246.523956" xlink:href="#m61313c44d7" y="174.528"/>
     <use style="stroke:#000000;" x="236.16" xlink:href="#m61313c44d7" y="152.827366"/>
     <use style="stroke:#000000;" x="236.16" xlink:href="#m61313c44d7" y="134.6112"/>
     <use style="stroke:#000000;" x="236.16" xlink:href="#m61313c44d7" y="160.130216"/>
     <use style="stroke:#000000;" x="236.16" xlink:href="#m61313c44d7" y="150.005816"/>
     <use style="stroke:#000000;" x="236.16" xlink:href="#m61313c44d7" y="174.528"/>
     <use style="stroke:#000000;" x="325.44" xlink:href="#m61313c44d7" y="153.981258"/>
     <use style="stroke:#000000;" x="236.16" xlink:href="#m61313c44d7" y="172.065495"/>
     <use style="stroke:#000000;" x="236.16" xlink:href="#m61313c44d7" y="149.586834"/>
     <use style="stroke:#000000;" x="236.16" xlink:href="#m61313c44d7" y="134.6112"/>
     <use style="stroke:#000000;" x="236.16" xlink:href="#m61313c44d7" y="149.273192"/>
     <use style="stroke:#000000;" x="325.44" xlink:href="#m61313c44d7" y="138.290575"/>
     <use style="stroke:#000000;" x="237.137622" xlink:href="#m61313c44d7" y="169.933645"/>
     <use style="stroke:#000000;" x="236.16" xlink:href="#m61313c44d7" y="156.845574"/>
     <use style="stroke:#000000;" x="236.16" xlink:href="#m61313c44d7" y="167.026029"/>
     <use style="stroke:#000000;" x="236.16" xlink:href="#m61313c44d7" y="155.342869"/>
     <use style="stroke:#000000;" x="325.44" xlink:href="#m61313c44d7" y="142.496633"/>
     <use style="stroke:#000000;" x="236.16" xlink:href="#m61313c44d7" y="167.084631"/>
     <use style="stroke:#000000;" x="236.16" xlink:href="#m61313c44d7" y="156.493805"/>
     <use style="stroke:#000000;" x="236.16" xlink:href="#m61313c44d7" y="152.624833"/>
     <use style="stroke:#000000;" x="244.458361" xlink:href="#m61313c44d7" y="149.542106"/>
     <use style="stroke:#000000;" x="236.16" xlink:href="#m61313c44d7" y="144.145214"/>
     <use style="stroke:#000000;" x="236.16" xlink:href="#m61313c44d7" y="154.512493"/>
     <use style="stroke:#000000;" x="236.901427" xlink:href="#m61313c44d7" y="146.993786"/>
     <use style="stroke:#000000;" x="311.730573" xlink:href="#m61313c44d7" y="134.6112"/>
     <use style="stroke:#000000;" x="319.868557" xlink:href="#m61313c44d7" y="136.198226"/>
     <use style="stroke:#000000;" x="307.466056" xlink:href="#m61313c44d7" y="149.298532"/>
     <use style="stroke:#000000;" x="240.173959" xlink:href="#m61313c44d7" y="167.064057"/>
     <use style="stroke:#000000;" x="236.16" xlink:href="#m61313c44d7" y="169.132413"/>
     <use style="stroke:#000000;" x="254.042018" xlink:href="#m61313c44d7" y="164.464013"/>
     <use style="stroke:#000000;" x="240.1015" xlink:href="#m61313c44d7" y="145.735487"/>
     <use style="stroke:#000000;" x="236.16" xlink:href="#m61313c44d7" y="139.273088"/>
     <use style="stroke:#000000;" x="236.16" xlink:href="#m61313c44d7" y="146.175534"/>
     <use style="stroke:#000000;" x="243.679927" xlink:href="#m61313c44d7" y="155.172304"/>
     <use style="stroke:#000000;" x="236.16" xlink:href="#m61313c44d7" y="150.717041"/>
     <use style="stroke:#000000;" x="236.16" xlink:href="#m61313c44d7" y="155.245596"/>
     <use style="stroke:#000000;" x="239.142404" xlink:href="#m61313c44d7" y="138.685073"/>
     <use style="stroke:#000000;" x="236.16" xlink:href="#m61313c44d7" y="150.725527"/>
     <use style="stroke:#000000;" x="236.16" xlink:href="#m61313c44d7" y="137.523302"/>
     <use style="stroke:#000000;" x="239.457085" xlink:href="#m61313c44d7" y="134.6112"/>
     <use style="stroke:#000000;" x="236.836919" xlink:href="#m61313c44d7" y="138.246062"/>
     <use style="stroke:#000000;" x="254.285557" xlink:href="#m61313c44d7" y="135.252001"/>
     <use style="stroke:#000000;" x="325.44" xlink:href="#m61313c44d7" y="174.528"/>
     <use style="stroke:#000000;" x="325.44" xlink:href="#m61313c44d7" y="166.283623"/>
     <use style="stroke:#000000;" x="323.566937" xlink:href="#m61313c44d7" y="174.528"/>
     <use style="stroke:#000000;" x="315.643226" xlink:href="#m61313c44d7" y="146.253526"/>
     <use style="stroke:#000000;" x="325.44" xlink:href="#m61313c44d7" y="134.6112"/>
     <use style="stroke:#000000;" x="319.930426" xlink:href="#m61313c44d7" y="143.573684"/>
     <use style="stroke:#000000;" x="245.684634" xlink:href="#m61313c44d7" y="136.097737"/>
     <use style="stroke:#000000;" x="236.16" xlink:href="#m61313c44d7" y="134.6112"/>
     <use style="stroke:#000000;" x="245.724228" xlink:href="#m61313c44d7" y="147.124151"/>
     <use style="stroke:#000000;" x="268.32975" xlink:href="#m61313c44d7" y="174.528"/>
     <use style="stroke:#000000;" x="243.922004" xlink:href="#m61313c44d7" y="166.822308"/>
     <use style="stroke:#000000;" x="274.354901" xlink:href="#m61313c44d7" y="170.717213"/>
     <use style="stroke:#000000;" x="236.16" xlink:href="#m61313c44d7" y="134.6112"/>
     <use style="stroke:#000000;" x="243.901618" xlink:href="#m61313c44d7" y="138.10684"/>
     <use style="stroke:#000000;" x="244.377079" xlink:href="#m61313c44d7" y="138.228656"/>
     <use style="stroke:#000000;" x="298.282189" xlink:href="#m61313c44d7" y="172.682425"/>
     <use style="stroke:#000000;" x="286.71101" xlink:href="#m61313c44d7" y="174.528"/>
     <use style="stroke:#000000;" x="311.979387" xlink:href="#m61313c44d7" y="170.127312"/>
     <use style="stroke:#000000;" x="321.57091" xlink:href="#m61313c44d7" y="171.205662"/>
     <use style="stroke:#000000;" x="325.44" xlink:href="#m61313c44d7" y="173.68792"/>
     <use style="stroke:#000000;" x="312.964249" xlink:href="#m61313c44d7" y="174.528"/>
     <use style="stroke:#000000;" x="251.622226" xlink:href="#m61313c44d7" y="141.507025"/>
     <use style="stroke:#000000;" x="236.772601" xlink:href="#m61313c44d7" y="134.6112"/>
     <use style="stroke:#000000;" x="236.16" xlink:href="#m61313c44d7" y="134.6112"/>
     <use style="stroke:#000000;" x="245.109979" xlink:href="#m61313c44d7" y="163.909726"/>
     <use style="stroke:#000000;" x="241.782941" xlink:href="#m61313c44d7" y="162.908973"/>
     <use style="stroke:#000000;" x="249.510204" xlink:href="#m61313c44d7" y="166.338121"/>
     <use style="stroke:#000000;" x="236.16" xlink:href="#m61313c44d7" y="156.829067"/>
     <use style="stroke:#000000;" x="236.16" xlink:href="#m61313c44d7" y="153.382185"/>
     <use style="stroke:#000000;" x="236.16" xlink:href="#m61313c44d7" y="158.368293"/>
     <use style="stroke:#000000;" x="248.154902" xlink:href="#m61313c44d7" y="149.456293"/>
     <use style="stroke:#000000;" x="245.980657" xlink:href="#m61313c44d7" y="147.454815"/>
     <use style="stroke:#000000;" x="236.16" xlink:href="#m61313c44d7" y="151.921998"/>
     <use style="stroke:#000000;" x="317.288226" xlink:href="#m61313c44d7" y="156.331999"/>
     <use style="stroke:#000000;" x="321.923979" xlink:href="#m61313c44d7" y="146.673057"/>
     <use style="stroke:#000000;" x="323.411005" xlink:href="#m61313c44d7" y="149.710478"/>
     <use style="stroke:#000000;" x="325.44" xlink:href="#m61313c44d7" y="159.435482"/>
     <use style="stroke:#000000;" x="325.44" xlink:href="#m61313c44d7" y="161.157425"/>
     <use style="stroke:#000000;" x="312.830516" xlink:href="#m61313c44d7" y="160.901996"/>
     <use style="stroke:#000000;" x="319.748352" xlink:href="#m61313c44d7" y="152.322077"/>
     <use style="stroke:#000000;" x="320.895424" xlink:href="#m61313c44d7" y="161.462866"/>
     <use style="stroke:#000000;" x="325.44" xlink:href="#m61313c44d7" y="155.216072"/>
     <use style="stroke:#000000;" x="300.223103" xlink:href="#m61313c44d7" y="146.328779"/>
     <use style="stroke:#000000;" x="325.44" xlink:href="#m61313c44d7" y="141.650941"/>
     <use style="stroke:#000000;" x="323.155875" xlink:href="#m61313c44d7" y="141.269273"/>
     <use style="stroke:#000000;" x="250.266009" xlink:href="#m61313c44d7" y="173.454423"/>
     <use style="stroke:#000000;" x="241.566881" xlink:href="#m61313c44d7" y="174.528"/>
     <use style="stroke:#000000;" x="244.113472" xlink:href="#m61313c44d7" y="174.528"/>
     <use style="stroke:#000000;" x="325.44" xlink:href="#m61313c44d7" y="134.6112"/>
     <use style="stroke:#000000;" x="295.009497" xlink:href="#m61313c44d7" y="174.528"/>
     <use style="stroke:#000000;" x="287.797783" xlink:href="#m61313c44d7" y="166.931635"/>
     <use style="stroke:#000000;" x="258.8139" xlink:href="#m61313c44d7" y="164.895636"/>
     <use style="stroke:#000000;" x="277.767935" xlink:href="#m61313c44d7" y="167.894222"/>
     <use style="stroke:#000000;" x="258.463961" xlink:href="#m61313c44d7" y="174.528"/>
     <use style="stroke:#000000;" x="236.16" xlink:href="#m61313c44d7" y="141.594824"/>
     <use style="stroke:#000000;" x="236.16" xlink:href="#m61313c44d7" y="156.018381"/>
     <use style="stroke:#000000;" x="236.16" xlink:href="#m61313c44d7" y="152.092112"/>
     <use style="stroke:#000000;" x="240.486392" xlink:href="#m61313c44d7" y="174.528"/>
     <use style="stroke:#000000;" x="236.16" xlink:href="#m61313c44d7" y="146.45555"/>
     <use style="stroke:#000000;" x="241.971172" xlink:href="#m61313c44d7" y="153.138574"/>
     <use style="stroke:#000000;" x="236.16" xlink:href="#m61313c44d7" y="141.993674"/>
     <use style="stroke:#000000;" x="241.449857" xlink:href="#m61313c44d7" y="151.94844"/>
     <use style="stroke:#000000;" x="236.16" xlink:href="#m61313c44d7" y="149.522416"/>
     <use style="stroke:#000000;" x="236.16" xlink:href="#m61313c44d7" y="148.17885"/>
     <use style="stroke:#000000;" x="252.949685" xlink:href="#m61313c44d7" y="147.691566"/>
     <use style="stroke:#000000;" x="239.228854" xlink:href="#m61313c44d7" y="143.403574"/>
     <use style="stroke:#000000;" x="237.299573" xlink:href="#m61313c44d7" y="134.785012"/>
     <use style="stroke:#000000;" x="256.369362" xlink:href="#m61313c44d7" y="141.258927"/>
     <use style="stroke:#000000;" x="236.16" xlink:href="#m61313c44d7" y="151.939695"/>
     <use style="stroke:#000000;" x="325.44" xlink:href="#m61313c44d7" y="152.527773"/>
     <use style="stroke:#000000;" x="277.13549" xlink:href="#m61313c44d7" y="172.243461"/>
     <use style="stroke:#000000;" x="277.233419" xlink:href="#m61313c44d7" y="174.528"/>
     <use style="stroke:#000000;" x="290.282227" xlink:href="#m61313c44d7" y="174.528"/>
     <use style="stroke:#000000;" x="278.10153" xlink:href="#m61313c44d7" y="170.851565"/>
     <use style="stroke:#000000;" x="286.591359" xlink:href="#m61313c44d7" y="174.528"/>
     <use style="stroke:#000000;" x="261.350356" xlink:href="#m61313c44d7" y="174.528"/>
     <use style="stroke:#000000;" x="236.16" xlink:href="#m61313c44d7" y="144.505679"/>
     <use style="stroke:#000000;" x="243.483336" xlink:href="#m61313c44d7" y="135.159584"/>
     <use style="stroke:#000000;" x="244.852842" xlink:href="#m61313c44d7" y="174.528"/>
     <use style="stroke:#000000;" x="260.527071" xlink:href="#m61313c44d7" y="169.720213"/>
     <use style="stroke:#000000;" x="248.109608" xlink:href="#m61313c44d7" y="134.6112"/>
     <use style="stroke:#000000;" x="243.763653" xlink:href="#m61313c44d7" y="137.635328"/>
     <use style="stroke:#000000;" x="236.16" xlink:href="#m61313c44d7" y="162.508158"/>
     <use style="stroke:#000000;" x="236.16" xlink:href="#m61313c44d7" y="166.058811"/>
     <use style="stroke:#000000;" x="317.751311" xlink:href="#m61313c44d7" y="153.041828"/>
     <use style="stroke:#000000;" x="325.44" xlink:href="#m61313c44d7" y="138.175708"/>
     <use style="stroke:#000000;" x="236.16" xlink:href="#m61313c44d7" y="154.954259"/>
     <use style="stroke:#000000;" x="236.16" xlink:href="#m61313c44d7" y="160.070588"/>
     <use style="stroke:#000000;" x="241.222693" xlink:href="#m61313c44d7" y="134.6112"/>
     <use style="stroke:#000000;" x="247.387279" xlink:href="#m61313c44d7" y="139.708952"/>
     <use style="stroke:#000000;" x="239.802487" xlink:href="#m61313c44d7" y="142.377257"/>
     <use style="stroke:#000000;" x="236.16" xlink:href="#m61313c44d7" y="161.91834"/>
     <use style="stroke:#000000;" x="248.549983" xlink:href="#m61313c44d7" y="163.197535"/>
     <use style="stroke:#000000;" x="247.298749" xlink:href="#m61313c44d7" y="146.874562"/>
     <use style="stroke:#000000;" x="239.199734" xlink:href="#m61313c44d7" y="143.899756"/>
     <use style="stroke:#000000;" x="275.424965" xlink:href="#m61313c44d7" y="174.528"/>
     <use style="stroke:#000000;" x="236.16" xlink:href="#m61313c44d7" y="142.302775"/>
     <use style="stroke:#000000;" x="236.16" xlink:href="#m61313c44d7" y="134.6112"/>
     <use style="stroke:#000000;" x="238.649638" xlink:href="#m61313c44d7" y="169.531886"/>
     <use style="stroke:#000000;" x="314.643903" xlink:href="#m61313c44d7" y="174.528"/>
     <use style="stroke:#000000;" x="281.876738" xlink:href="#m61313c44d7" y="174.528"/>
     <use style="stroke:#000000;" x="250.478074" xlink:href="#m61313c44d7" y="174.528"/>
     <use style="stroke:#000000;" x="239.756776" xlink:href="#m61313c44d7" y="171.440155"/>
     <use style="stroke:#000000;" x="243.28603" xlink:href="#m61313c44d7" y="170.707166"/>
     <use style="stroke:#000000;" x="236.16" xlink:href="#m61313c44d7" y="168.611378"/>
     <use style="stroke:#000000;" x="318.687214" xlink:href="#m61313c44d7" y="139.946963"/>
     <use style="stroke:#000000;" x="324.764737" xlink:href="#m61313c44d7" y="145.338955"/>
     <use style="stroke:#000000;" x="250.872786" xlink:href="#m61313c44d7" y="170.701606"/>
     <use style="stroke:#000000;" x="249.218514" xlink:href="#m61313c44d7" y="173.908489"/>
     <use style="stroke:#000000;" x="236.16" xlink:href="#m61313c44d7" y="146.783019"/>
     <use style="stroke:#000000;" x="236.16" xlink:href="#m61313c44d7" y="142.634171"/>
     <use style="stroke:#000000;" x="236.258006" xlink:href="#m61313c44d7" y="134.6112"/>
     <use style="stroke:#000000;" x="250.089182" xlink:href="#m61313c44d7" y="139.0052"/>
     <use style="stroke:#000000;" x="236.16" xlink:href="#m61313c44d7" y="155.962376"/>
     <use style="stroke:#000000;" x="236.16" xlink:href="#m61313c44d7" y="159.2004"/>
     <use style="stroke:#000000;" x="252.944499" xlink:href="#m61313c44d7" y="149.038746"/>
     <use style="stroke:#000000;" x="239.055628" xlink:href="#m61313c44d7" y="160.169427"/>
     <use style="stroke:#000000;" x="241.565641" xlink:href="#m61313c44d7" y="174.528"/>
     <use style="stroke:#000000;" x="259.521995" xlink:href="#m61313c44d7" y="174.387692"/>
     <use style="stroke:#000000;" x="311.357687" xlink:href="#m61313c44d7" y="158.988832"/>
     <use style="stroke:#000000;" x="298.409424" xlink:href="#m61313c44d7" y="157.827062"/>
     <use style="stroke:#000000;" x="236.16" xlink:href="#m61313c44d7" y="174.528"/>
     <use style="stroke:#000000;" x="239.787702" xlink:href="#m61313c44d7" y="174.528"/>
     <use style="stroke:#000000;" x="236.16" xlink:href="#m61313c44d7" y="148.24495"/>
     <use style="stroke:#000000;" x="266.612968" xlink:href="#m61313c44d7" y="153.764792"/>
     <use style="stroke:#000000;" x="236.16" xlink:href="#m61313c44d7" y="134.6112"/>
     <use style="stroke:#000000;" x="255.623004" xlink:href="#m61313c44d7" y="139.924339"/>
     <use style="stroke:#000000;" x="236.16" xlink:href="#m61313c44d7" y="151.870456"/>
     <use style="stroke:#000000;" x="236.16" xlink:href="#m61313c44d7" y="146.919423"/>
     <use style="stroke:#000000;" x="325.44" xlink:href="#m61313c44d7" y="136.123806"/>
     <use style="stroke:#000000;" x="236.16" xlink:href="#m61313c44d7" y="170.150636"/>
     <use style="stroke:#000000;" x="236.16" xlink:href="#m61313c44d7" y="155.769557"/>
     <use style="stroke:#000000;" x="236.16" xlink:href="#m61313c44d7" y="171.883362"/>
     <use style="stroke:#000000;" x="236.16" xlink:href="#m61313c44d7" y="158.052009"/>
     <use style="stroke:#000000;" x="242.352296" xlink:href="#m61313c44d7" y="162.070229"/>
     <use style="stroke:#000000;" x="311.226175" xlink:href="#m61313c44d7" y="137.7782"/>
     <use style="stroke:#000000;" x="236.16" xlink:href="#m61313c44d7" y="161.517015"/>
     <use style="stroke:#000000;" x="236.16" xlink:href="#m61313c44d7" y="147.806594"/>
    </g>
   </g>
   <g id="PathCollection_2">
    <defs>
     <path d="M 0 0.935414 
C 0.248075 0.935414 0.486022 0.836853 0.661438 0.661438 
C 0.836853 0.486022 0.935414 0.248075 0.935414 0 
C 0.935414 -0.248075 0.836853 -0.486022 0.661438 -0.661438 
C 0.486022 -0.836853 0.248075 -0.935414 0 -0.935414 
C -0.248075 -0.935414 -0.486022 -0.836853 -0.661438 -0.661438 
C -0.836853 -0.486022 -0.935414 -0.248075 -0.935414 0 
C -0.935414 0.248075 -0.836853 0.486022 -0.661438 0.661438 
C -0.486022 0.836853 -0.248075 0.935414 0 0.935414 
z
" id="me7a2134e35" style="stroke:#0000ff;"/>
    </defs>
    <g clip-path="url(#pd949172376)">
     <use style="fill:#0000ff;stroke:#0000ff;" x="236.16" xlink:href="#me7a2134e35" y="147.955218"/>
     <use style="fill:#0000ff;stroke:#0000ff;" x="236.16" xlink:href="#me7a2134e35" y="150.313401"/>
     <use style="fill:#0000ff;stroke:#0000ff;" x="325.44" xlink:href="#me7a2134e35" y="140.736768"/>
     <use style="fill:#0000ff;stroke:#0000ff;" x="236.16" xlink:href="#me7a2134e35" y="170.072867"/>
     <use style="fill:#0000ff;stroke:#0000ff;" x="236.16" xlink:href="#me7a2134e35" y="145.034124"/>
     <use style="fill:#0000ff;stroke:#0000ff;" x="236.16" xlink:href="#me7a2134e35" y="150.935124"/>
     <use style="fill:#0000ff;stroke:#0000ff;" x="236.16" xlink:href="#me7a2134e35" y="143.975966"/>
     <use style="fill:#0000ff;stroke:#0000ff;" x="236.16" xlink:href="#me7a2134e35" y="142.435865"/>
     <use style="fill:#0000ff;stroke:#0000ff;" x="321.885286" xlink:href="#me7a2134e35" y="174.528"/>
     <use style="fill:#0000ff;stroke:#0000ff;" x="325.44" xlink:href="#me7a2134e35" y="143.998845"/>
     <use style="fill:#0000ff;stroke:#0000ff;" x="236.16" xlink:href="#me7a2134e35" y="139.295179"/>
     <use style="fill:#0000ff;stroke:#0000ff;" x="265.870376" xlink:href="#me7a2134e35" y="174.528"/>
     <use style="fill:#0000ff;stroke:#0000ff;" x="236.16" xlink:href="#me7a2134e35" y="134.6112"/>
     <use style="fill:#0000ff;stroke:#0000ff;" x="304.775217" xlink:href="#me7a2134e35" y="174.528"/>
     <use style="fill:#0000ff;stroke:#0000ff;" x="325.44" xlink:href="#me7a2134e35" y="171.318227"/>
     <use style="fill:#0000ff;stroke:#0000ff;" x="236.16" xlink:href="#me7a2134e35" y="134.6112"/>
     <use style="fill:#0000ff;stroke:#0000ff;" x="236.16" xlink:href="#me7a2134e35" y="165.22391"/>
     <use style="fill:#0000ff;stroke:#0000ff;" x="236.16" xlink:href="#me7a2134e35" y="155.877912"/>
     <use style="fill:#0000ff;stroke:#0000ff;" x="236.16" xlink:href="#me7a2134e35" y="150.493043"/>
     <use style="fill:#0000ff;stroke:#0000ff;" x="325.44" xlink:href="#me7a2134e35" y="146.311296"/>
     <use style="fill:#0000ff;stroke:#0000ff;" x="325.44" xlink:href="#me7a2134e35" y="158.213463"/>
     <use style="fill:#0000ff;stroke:#0000ff;" x="325.44" xlink:href="#me7a2134e35" y="153.300602"/>
     <use style="fill:#0000ff;stroke:#0000ff;" x="325.44" xlink:href="#me7a2134e35" y="142.504809"/>
     <use style="fill:#0000ff;stroke:#0000ff;" x="238.269591" xlink:href="#me7a2134e35" y="174.528"/>
     <use style="fill:#0000ff;stroke:#0000ff;" x="325.44" xlink:href="#me7a2134e35" y="136.479949"/>
     <use style="fill:#0000ff;stroke:#0000ff;" x="312.023915" xlink:href="#me7a2134e35" y="174.528"/>
     <use style="fill:#0000ff;stroke:#0000ff;" x="325.44" xlink:href="#me7a2134e35" y="166.803901"/>
     <use style="fill:#0000ff;stroke:#0000ff;" x="254.014438" xlink:href="#me7a2134e35" y="174.528"/>
     <use style="fill:#0000ff;stroke:#0000ff;" x="236.16" xlink:href="#me7a2134e35" y="156.637806"/>
     <use style="fill:#0000ff;stroke:#0000ff;" x="236.16" xlink:href="#me7a2134e35" y="155.127218"/>
     <use style="fill:#0000ff;stroke:#0000ff;" x="236.481752" xlink:href="#me7a2134e35" y="155.8661"/>
     <use style="fill:#0000ff;stroke:#0000ff;" x="236.16" xlink:href="#me7a2134e35" y="174.528"/>
     <use style="fill:#0000ff;stroke:#0000ff;" x="236.16" xlink:href="#me7a2134e35" y="142.945077"/>
     <use style="fill:#0000ff;stroke:#0000ff;" x="236.16" xlink:href="#me7a2134e35" y="149.093013"/>
     <use style="fill:#0000ff;stroke:#0000ff;" x="236.16" xlink:href="#me7a2134e35" y="156.755284"/>
     <use style="fill:#0000ff;stroke:#0000ff;" x="236.16" xlink:href="#me7a2134e35" y="152.962391"/>
     <use style="fill:#0000ff;stroke:#0000ff;" x="236.16" xlink:href="#me7a2134e35" y="151.521562"/>
     <use style="fill:#0000ff;stroke:#0000ff;" x="236.16" xlink:href="#me7a2134e35" y="139.55979"/>
     <use style="fill:#0000ff;stroke:#0000ff;" x="236.16" xlink:href="#me7a2134e35" y="154.499179"/>
     <use style="fill:#0000ff;stroke:#0000ff;" x="325.44" xlink:href="#me7a2134e35" y="145.072229"/>
     <use style="fill:#0000ff;stroke:#0000ff;" x="281.496839" xlink:href="#me7a2134e35" y="174.528"/>
     <use style="fill:#0000ff;stroke:#0000ff;" x="281.103514" xlink:href="#me7a2134e35" y="174.528"/>
     <use style="fill:#0000ff;stroke:#0000ff;" x="268.690724" xlink:href="#me7a2134e35" y="174.528"/>
     <use style="fill:#0000ff;stroke:#0000ff;" x="236.16" xlink:href="#me7a2134e35" y="140.54961"/>
     <use style="fill:#0000ff;stroke:#0000ff;" x="236.16" xlink:href="#me7a2134e35" y="137.089388"/>
     <use style="fill:#0000ff;stroke:#0000ff;" x="272.282534" xlink:href="#me7a2134e35" y="174.528"/>
     <use style="fill:#0000ff;stroke:#0000ff;" x="236.16" xlink:href="#me7a2134e35" y="134.6112"/>
     <use style="fill:#0000ff;stroke:#0000ff;" x="236.16" xlink:href="#me7a2134e35" y="159.705955"/>
     <use style="fill:#0000ff;stroke:#0000ff;" x="325.44" xlink:href="#me7a2134e35" y="141.744987"/>
     <use style="fill:#0000ff;stroke:#0000ff;" x="236.16" xlink:href="#me7a2134e35" y="154.623157"/>
     <use style="fill:#0000ff;stroke:#0000ff;" x="236.16" xlink:href="#me7a2134e35" y="137.801787"/>
     <use style="fill:#0000ff;stroke:#0000ff;" x="236.16" xlink:href="#me7a2134e35" y="144.010688"/>
     <use style="fill:#0000ff;stroke:#0000ff;" x="236.16" xlink:href="#me7a2134e35" y="162.569183"/>
     <use style="fill:#0000ff;stroke:#0000ff;" x="236.16" xlink:href="#me7a2134e35" y="141.987485"/>
     <use style="fill:#0000ff;stroke:#0000ff;" x="237.261255" xlink:href="#me7a2134e35" y="174.528"/>
     <use style="fill:#0000ff;stroke:#0000ff;" x="236.16" xlink:href="#me7a2134e35" y="136.3664"/>
     <use style="fill:#0000ff;stroke:#0000ff;" x="236.16" xlink:href="#me7a2134e35" y="164.301248"/>
     <use style="fill:#0000ff;stroke:#0000ff;" x="312.351856" xlink:href="#me7a2134e35" y="174.528"/>
     <use style="fill:#0000ff;stroke:#0000ff;" x="236.16" xlink:href="#me7a2134e35" y="174.528"/>
     <use style="fill:#0000ff;stroke:#0000ff;" x="236.16" xlink:href="#me7a2134e35" y="163.31587"/>
     <use style="fill:#0000ff;stroke:#0000ff;" x="325.44" xlink:href="#me7a2134e35" y="144.597535"/>
     <use style="fill:#0000ff;stroke:#0000ff;" x="246.523956" xlink:href="#me7a2134e35" y="174.528"/>
     <use style="fill:#0000ff;stroke:#0000ff;" x="236.16" xlink:href="#me7a2134e35" y="152.827366"/>
     <use style="fill:#0000ff;stroke:#0000ff;" x="236.16" xlink:href="#me7a2134e35" y="134.6112"/>
     <use style="fill:#0000ff;stroke:#0000ff;" x="236.16" xlink:href="#me7a2134e35" y="160.130216"/>
     <use style="fill:#0000ff;stroke:#0000ff;" x="236.16" xlink:href="#me7a2134e35" y="150.005816"/>
     <use style="fill:#0000ff;stroke:#0000ff;" x="236.16" xlink:href="#me7a2134e35" y="174.528"/>
     <use style="fill:#0000ff;stroke:#0000ff;" x="325.44" xlink:href="#me7a2134e35" y="153.981258"/>
     <use style="fill:#0000ff;stroke:#0000ff;" x="236.16" xlink:href="#me7a2134e35" y="172.065495"/>
     <use style="fill:#0000ff;stroke:#0000ff;" x="236.16" xlink:href="#me7a2134e35" y="149.586834"/>
     <use style="fill:#0000ff;stroke:#0000ff;" x="236.16" xlink:href="#me7a2134e35" y="134.6112"/>
     <use style="fill:#0000ff;stroke:#0000ff;" x="236.16" xlink:href="#me7a2134e35" y="149.273192"/>
     <use style="fill:#0000ff;stroke:#0000ff;" x="325.44" xlink:href="#me7a2134e35" y="138.290575"/>
     <use style="fill:#0000ff;stroke:#0000ff;" x="237.137622" xlink:href="#me7a2134e35" y="169.933645"/>
     <use style="fill:#0000ff;stroke:#0000ff;" x="236.16" xlink:href="#me7a2134e35" y="156.845574"/>
     <use style="fill:#0000ff;stroke:#0000ff;" x="236.16" xlink:href="#me7a2134e35" y="167.026029"/>
     <use style="fill:#0000ff;stroke:#0000ff;" x="236.16" xlink:href="#me7a2134e35" y="155.342869"/>
     <use style="fill:#0000ff;stroke:#0000ff;" x="325.44" xlink:href="#me7a2134e35" y="142.496633"/>
     <use style="fill:#0000ff;stroke:#0000ff;" x="236.16" xlink:href="#me7a2134e35" y="167.084631"/>
     <use style="fill:#0000ff;stroke:#0000ff;" x="236.16" xlink:href="#me7a2134e35" y="156.493805"/>
    </g>
   </g>
   <g id="matplotlib.axis_1">
    <g id="xtick_1">
     <g id="line2d_1">
      <defs>
       <path d="M 0 0 
L 0 3.5 
" id="m3483be3f6c" style="stroke:#000000;stroke-width:0.8;"/>
      </defs>
      <g>
       <use style="stroke:#000000;stroke-width:0.8;" x="57.6" xlink:href="#m3483be3f6c" y="307.584"/>
      </g>
     </g>
     <g id="text_1">
      <!-- −10.0 -->
      <defs>
       <path d="M 10.59375 35.5 
L 73.1875 35.5 
L 73.1875 27.203125 
L 10.59375 27.203125 
z
" id="DejaVuSans-2212"/>
       <path d="M 12.40625 8.296875 
L 28.515625 8.296875 
L 28.515625 63.921875 
L 10.984375 60.40625 
L 10.984375 69.390625 
L 28.421875 72.90625 
L 38.28125 72.90625 
L 38.28125 8.296875 
L 54.390625 8.296875 
L 54.390625 0 
L 12.40625 0 
z
" id="DejaVuSans-31"/>
       <path d="M 31.78125 66.40625 
Q 24.171875 66.40625 20.328125 58.90625 
Q 16.5 51.421875 16.5 36.375 
Q 16.5 21.390625 20.328125 13.890625 
Q 24.171875 6.390625 31.78125 6.390625 
Q 39.453125 6.390625 43.28125 13.890625 
Q 47.125 21.390625 47.125 36.375 
Q 47.125 51.421875 43.28125 58.90625 
Q 39.453125 66.40625 31.78125 66.40625 
z
M 31.78125 74.21875 
Q 44.046875 74.21875 50.515625 64.515625 
Q 56.984375 54.828125 56.984375 36.375 
Q 56.984375 17.96875 50.515625 8.265625 
Q 44.046875 -1.421875 31.78125 -1.421875 
Q 19.53125 -1.421875 13.0625 8.265625 
Q 6.59375 17.96875 6.59375 36.375 
Q 6.59375 54.828125 13.0625 64.515625 
Q 19.53125 74.21875 31.78125 74.21875 
z
" id="DejaVuSans-30"/>
       <path d="M 10.6875 12.40625 
L 21 12.40625 
L 21 0 
L 10.6875 0 
z
" id="DejaVuSans-2e"/>
      </defs>
      <g transform="translate(42.277344 322.182437)scale(0.1 -0.1)">
       <use xlink:href="#DejaVuSans-2212"/>
       <use x="83.789062" xlink:href="#DejaVuSans-31"/>
       <use x="147.412109" xlink:href="#DejaVuSans-30"/>
       <use x="211.035156" xlink:href="#DejaVuSans-2e"/>
       <use x="242.822266" xlink:href="#DejaVuSans-30"/>
      </g>
     </g>
    </g>
    <g id="xtick_2">
     <g id="line2d_2">
      <g>
       <use style="stroke:#000000;stroke-width:0.8;" x="102.24" xlink:href="#m3483be3f6c" y="307.584"/>
      </g>
     </g>
     <g id="text_2">
      <!-- −7.5 -->
      <defs>
       <path d="M 8.203125 72.90625 
L 55.078125 72.90625 
L 55.078125 68.703125 
L 28.609375 0 
L 18.3125 0 
L 43.21875 64.59375 
L 8.203125 64.59375 
z
" id="DejaVuSans-37"/>
       <path d="M 10.796875 72.90625 
L 49.515625 72.90625 
L 49.515625 64.59375 
L 19.828125 64.59375 
L 19.828125 46.734375 
Q 21.96875 47.46875 24.109375 47.828125 
Q 26.265625 48.1875 28.421875 48.1875 
Q 40.625 48.1875 47.75 41.5 
Q 54.890625 34.8125 54.890625 23.390625 
Q 54.890625 11.625 47.5625 5.09375 
Q 40.234375 -1.421875 26.90625 -1.421875 
Q 22.3125 -1.421875 17.546875 -0.640625 
Q 12.796875 0.140625 7.71875 1.703125 
L 7.71875 11.625 
Q 12.109375 9.234375 16.796875 8.0625 
Q 21.484375 6.890625 26.703125 6.890625 
Q 35.15625 6.890625 40.078125 11.328125 
Q 45.015625 15.765625 45.015625 23.390625 
Q 45.015625 31 40.078125 35.4375 
Q 35.15625 39.890625 26.703125 39.890625 
Q 22.75 39.890625 18.8125 39.015625 
Q 14.890625 38.140625 10.796875 36.28125 
z
" id="DejaVuSans-35"/>
      </defs>
      <g transform="translate(90.098594 322.182437)scale(0.1 -0.1)">
       <use xlink:href="#DejaVuSans-2212"/>
       <use x="83.789062" xlink:href="#DejaVuSans-37"/>
       <use x="147.412109" xlink:href="#DejaVuSans-2e"/>
       <use x="179.199219" xlink:href="#DejaVuSans-35"/>
      </g>
     </g>
    </g>
    <g id="xtick_3">
     <g id="line2d_3">
      <g>
       <use style="stroke:#000000;stroke-width:0.8;" x="146.88" xlink:href="#m3483be3f6c" y="307.584"/>
      </g>
     </g>
     <g id="text_3">
      <!-- −5.0 -->
      <g transform="translate(134.738594 322.182437)scale(0.1 -0.1)">
       <use xlink:href="#DejaVuSans-2212"/>
       <use x="83.789062" xlink:href="#DejaVuSans-35"/>
       <use x="147.412109" xlink:href="#DejaVuSans-2e"/>
       <use x="179.199219" xlink:href="#DejaVuSans-30"/>
      </g>
     </g>
    </g>
    <g id="xtick_4">
     <g id="line2d_4">
      <g>
       <use style="stroke:#000000;stroke-width:0.8;" x="191.52" xlink:href="#m3483be3f6c" y="307.584"/>
      </g>
     </g>
     <g id="text_4">
      <!-- −2.5 -->
      <defs>
       <path d="M 19.1875 8.296875 
L 53.609375 8.296875 
L 53.609375 0 
L 7.328125 0 
L 7.328125 8.296875 
Q 12.9375 14.109375 22.625 23.890625 
Q 32.328125 33.6875 34.8125 36.53125 
Q 39.546875 41.84375 41.421875 45.53125 
Q 43.3125 49.21875 43.3125 52.78125 
Q 43.3125 58.59375 39.234375 62.25 
Q 35.15625 65.921875 28.609375 65.921875 
Q 23.96875 65.921875 18.8125 64.3125 
Q 13.671875 62.703125 7.8125 59.421875 
L 7.8125 69.390625 
Q 13.765625 71.78125 18.9375 73 
Q 24.125 74.21875 28.421875 74.21875 
Q 39.75 74.21875 46.484375 68.546875 
Q 53.21875 62.890625 53.21875 53.421875 
Q 53.21875 48.921875 51.53125 44.890625 
Q 49.859375 40.875 45.40625 35.40625 
Q 44.1875 33.984375 37.640625 27.21875 
Q 31.109375 20.453125 19.1875 8.296875 
z
" id="DejaVuSans-32"/>
      </defs>
      <g transform="translate(179.378594 322.182437)scale(0.1 -0.1)">
       <use xlink:href="#DejaVuSans-2212"/>
       <use x="83.789062" xlink:href="#DejaVuSans-32"/>
       <use x="147.412109" xlink:href="#DejaVuSans-2e"/>
       <use x="179.199219" xlink:href="#DejaVuSans-35"/>
      </g>
     </g>
    </g>
    <g id="xtick_5">
     <g id="line2d_5">
      <g>
       <use style="stroke:#000000;stroke-width:0.8;" x="236.16" xlink:href="#m3483be3f6c" y="307.584"/>
      </g>
     </g>
     <g id="text_5">
      <!-- 0.0 -->
      <g transform="translate(228.208438 322.182437)scale(0.1 -0.1)">
       <use xlink:href="#DejaVuSans-30"/>
       <use x="63.623047" xlink:href="#DejaVuSans-2e"/>
       <use x="95.410156" xlink:href="#DejaVuSans-30"/>
      </g>
     </g>
    </g>
    <g id="xtick_6">
     <g id="line2d_6">
      <g>
       <use style="stroke:#000000;stroke-width:0.8;" x="280.8" xlink:href="#m3483be3f6c" y="307.584"/>
      </g>
     </g>
     <g id="text_6">
      <!-- 2.5 -->
      <g transform="translate(272.848437 322.182437)scale(0.1 -0.1)">
       <use xlink:href="#DejaVuSans-32"/>
       <use x="63.623047" xlink:href="#DejaVuSans-2e"/>
       <use x="95.410156" xlink:href="#DejaVuSans-35"/>
      </g>
     </g>
    </g>
    <g id="xtick_7">
     <g id="line2d_7">
      <g>
       <use style="stroke:#000000;stroke-width:0.8;" x="325.44" xlink:href="#m3483be3f6c" y="307.584"/>
      </g>
     </g>
     <g id="text_7">
      <!-- 5.0 -->
      <g transform="translate(317.488437 322.182437)scale(0.1 -0.1)">
       <use xlink:href="#DejaVuSans-35"/>
       <use x="63.623047" xlink:href="#DejaVuSans-2e"/>
       <use x="95.410156" xlink:href="#DejaVuSans-30"/>
      </g>
     </g>
    </g>
    <g id="xtick_8">
     <g id="line2d_8">
      <g>
       <use style="stroke:#000000;stroke-width:0.8;" x="370.08" xlink:href="#m3483be3f6c" y="307.584"/>
      </g>
     </g>
     <g id="text_8">
      <!-- 7.5 -->
      <g transform="translate(362.128438 322.182437)scale(0.1 -0.1)">
       <use xlink:href="#DejaVuSans-37"/>
       <use x="63.623047" xlink:href="#DejaVuSans-2e"/>
       <use x="95.410156" xlink:href="#DejaVuSans-35"/>
      </g>
     </g>
    </g>
    <g id="xtick_9">
     <g id="line2d_9">
      <g>
       <use style="stroke:#000000;stroke-width:0.8;" x="414.72" xlink:href="#m3483be3f6c" y="307.584"/>
      </g>
     </g>
     <g id="text_9">
      <!-- 10.0 -->
      <g transform="translate(403.587188 322.182437)scale(0.1 -0.1)">
       <use xlink:href="#DejaVuSans-31"/>
       <use x="63.623047" xlink:href="#DejaVuSans-30"/>
       <use x="127.246094" xlink:href="#DejaVuSans-2e"/>
       <use x="159.033203" xlink:href="#DejaVuSans-30"/>
      </g>
     </g>
    </g>
   </g>
   <g id="matplotlib.axis_2">
    <g id="ytick_1">
     <g id="line2d_10">
      <defs>
       <path d="M 0 0 
L -3.5 0 
" id="m60307ae9b8" style="stroke:#000000;stroke-width:0.8;"/>
      </defs>
      <g>
       <use style="stroke:#000000;stroke-width:0.8;" x="57.6" xlink:href="#m60307ae9b8" y="307.584"/>
      </g>
     </g>
     <g id="text_10">
      <!-- −10.0 -->
      <g transform="translate(19.954687 311.383219)scale(0.1 -0.1)">
       <use xlink:href="#DejaVuSans-2212"/>
       <use x="83.789062" xlink:href="#DejaVuSans-31"/>
       <use x="147.412109" xlink:href="#DejaVuSans-30"/>
       <use x="211.035156" xlink:href="#DejaVuSans-2e"/>
       <use x="242.822266" xlink:href="#DejaVuSans-30"/>
      </g>
     </g>
    </g>
    <g id="ytick_2">
     <g id="line2d_11">
      <g>
       <use style="stroke:#000000;stroke-width:0.8;" x="57.6" xlink:href="#m60307ae9b8" y="274.32"/>
      </g>
     </g>
     <g id="text_11">
      <!-- −7.5 -->
      <g transform="translate(26.317187 278.119219)scale(0.1 -0.1)">
       <use xlink:href="#DejaVuSans-2212"/>
       <use x="83.789062" xlink:href="#DejaVuSans-37"/>
       <use x="147.412109" xlink:href="#DejaVuSans-2e"/>
       <use x="179.199219" xlink:href="#DejaVuSans-35"/>
      </g>
     </g>
    </g>
    <g id="ytick_3">
     <g id="line2d_12">
      <g>
       <use style="stroke:#000000;stroke-width:0.8;" x="57.6" xlink:href="#m60307ae9b8" y="241.056"/>
      </g>
     </g>
     <g id="text_12">
      <!-- −5.0 -->
      <g transform="translate(26.317187 244.855219)scale(0.1 -0.1)">
       <use xlink:href="#DejaVuSans-2212"/>
       <use x="83.789062" xlink:href="#DejaVuSans-35"/>
       <use x="147.412109" xlink:href="#DejaVuSans-2e"/>
       <use x="179.199219" xlink:href="#DejaVuSans-30"/>
      </g>
     </g>
    </g>
    <g id="ytick_4">
     <g id="line2d_13">
      <g>
       <use style="stroke:#000000;stroke-width:0.8;" x="57.6" xlink:href="#m60307ae9b8" y="207.792"/>
      </g>
     </g>
     <g id="text_13">
      <!-- −2.5 -->
      <g transform="translate(26.317187 211.591219)scale(0.1 -0.1)">
       <use xlink:href="#DejaVuSans-2212"/>
       <use x="83.789062" xlink:href="#DejaVuSans-32"/>
       <use x="147.412109" xlink:href="#DejaVuSans-2e"/>
       <use x="179.199219" xlink:href="#DejaVuSans-35"/>
      </g>
     </g>
    </g>
    <g id="ytick_5">
     <g id="line2d_14">
      <g>
       <use style="stroke:#000000;stroke-width:0.8;" x="57.6" xlink:href="#m60307ae9b8" y="174.528"/>
      </g>
     </g>
     <g id="text_14">
      <!-- 0.0 -->
      <g transform="translate(34.696875 178.327219)scale(0.1 -0.1)">
       <use xlink:href="#DejaVuSans-30"/>
       <use x="63.623047" xlink:href="#DejaVuSans-2e"/>
       <use x="95.410156" xlink:href="#DejaVuSans-30"/>
      </g>
     </g>
    </g>
    <g id="ytick_6">
     <g id="line2d_15">
      <g>
       <use style="stroke:#000000;stroke-width:0.8;" x="57.6" xlink:href="#m60307ae9b8" y="141.264"/>
      </g>
     </g>
     <g id="text_15">
      <!-- 2.5 -->
      <g transform="translate(34.696875 145.063219)scale(0.1 -0.1)">
       <use xlink:href="#DejaVuSans-32"/>
       <use x="63.623047" xlink:href="#DejaVuSans-2e"/>
       <use x="95.410156" xlink:href="#DejaVuSans-35"/>
      </g>
     </g>
    </g>
    <g id="ytick_7">
     <g id="line2d_16">
      <g>
       <use style="stroke:#000000;stroke-width:0.8;" x="57.6" xlink:href="#m60307ae9b8" y="108"/>
      </g>
     </g>
     <g id="text_16">
      <!-- 5.0 -->
      <g transform="translate(34.696875 111.799219)scale(0.1 -0.1)">
       <use xlink:href="#DejaVuSans-35"/>
       <use x="63.623047" xlink:href="#DejaVuSans-2e"/>
       <use x="95.410156" xlink:href="#DejaVuSans-30"/>
      </g>
     </g>
    </g>
    <g id="ytick_8">
     <g id="line2d_17">
      <g>
       <use style="stroke:#000000;stroke-width:0.8;" x="57.6" xlink:href="#m60307ae9b8" y="74.736"/>
      </g>
     </g>
     <g id="text_17">
      <!-- 7.5 -->
      <g transform="translate(34.696875 78.535219)scale(0.1 -0.1)">
       <use xlink:href="#DejaVuSans-37"/>
       <use x="63.623047" xlink:href="#DejaVuSans-2e"/>
       <use x="95.410156" xlink:href="#DejaVuSans-35"/>
      </g>
     </g>
    </g>
    <g id="ytick_9">
     <g id="line2d_18">
      <g>
       <use style="stroke:#000000;stroke-width:0.8;" x="57.6" xlink:href="#m60307ae9b8" y="41.472"/>
      </g>
     </g>
     <g id="text_18">
      <!-- 10.0 -->
      <g transform="translate(28.334375 45.271219)scale(0.1 -0.1)">
       <use xlink:href="#DejaVuSans-31"/>
       <use x="63.623047" xlink:href="#DejaVuSans-30"/>
       <use x="127.246094" xlink:href="#DejaVuSans-2e"/>
       <use x="159.033203" xlink:href="#DejaVuSans-30"/>
      </g>
     </g>
    </g>
   </g>
   <g id="patch_3">
    <path d="M 57.6 307.584 
L 57.6 41.472 
" style="fill:none;stroke:#000000;stroke-linecap:square;stroke-linejoin:miter;stroke-width:0.8;"/>
   </g>
   <g id="patch_4">
    <path d="M 414.72 307.584 
L 414.72 41.472 
" style="fill:none;stroke:#000000;stroke-linecap:square;stroke-linejoin:miter;stroke-width:0.8;"/>
   </g>
   <g id="patch_5">
    <path d="M 57.6 307.584 
L 414.72 307.584 
" style="fill:none;stroke:#000000;stroke-linecap:square;stroke-linejoin:miter;stroke-width:0.8;"/>
   </g>
   <g id="patch_6">
    <path d="M 57.6 41.472 
L 414.72 41.472 
" style="fill:none;stroke:#000000;stroke-linecap:square;stroke-linejoin:miter;stroke-width:0.8;"/>
   </g>
  </g>
 </g>
 <defs>
  <clipPath id="pd949172376">
   <rect height="266.112" width="357.12" x="57.6" y="41.472"/>
  </clipPath>
 </defs>
</svg>
