<?xml version="1.0" encoding="utf-8" standalone="no"?>
<!DOCTYPE svg PUBLIC "-//W3C//DTD SVG 1.1//EN"
  "http://www.w3.org/Graphics/SVG/1.1/DTD/svg11.dtd">
<!-- Created with matplotlib (http://matplotlib.org/) -->
<svg height="345.6pt" version="1.1" viewBox="0 0 460.8 345.6" width="460.8pt" xmlns="http://www.w3.org/2000/svg" xmlns:xlink="http://www.w3.org/1999/xlink">
 <defs>
  <style type="text/css">
*{stroke-linecap:butt;stroke-linejoin:round;}
  </style>
 </defs>
 <g id="figure_1">
  <g id="patch_1">
   <path d="M 0 345.6 
L 460.8 345.6 
L 460.8 0 
L 0 0 
z
" style="fill:#ffffff;"/>
  </g>
  <g id="axes_1">
   <g id="patch_2">
    <path d="M 57.6 307.584 
L 414.72 307.584 
L 414.72 41.472 
L 57.6 41.472 
z
" style="fill:#ffffff;"/>
   </g>
   <g id="PathCollection_1">
    <defs>
     <path d="M 0 0.612372 
C 0.162403 0.612372 0.318176 0.547849 0.433013 0.433013 
C 0.547849 0.318176 0.612372 0.162403 0.612372 0 
C 0.612372 -0.162403 0.547849 -0.318176 0.433013 -0.433013 
C 0.318176 -0.547849 0.162403 -0.612372 0 -0.612372 
C -0.162403 -0.612372 -0.318176 -0.547849 -0.433013 -0.433013 
C -0.547849 -0.318176 -0.612372 -0.162403 -0.612372 0 
C -0.612372 0.162403 -0.547849 0.318176 -0.433013 0.433013 
C -0.318176 0.547849 -0.162403 0.612372 0 0.612372 
z
" id="mac8b94fc47" style="stroke:#000000;"/>
    </defs>
    <g clip-path="url(#p2c7abb73b3)">
     <use style="stroke:#000000;" x="236.16" xlink:href="#mac8b94fc47" y="167.248278"/>
     <use style="stroke:#000000;" x="257.389036" xlink:href="#mac8b94fc47" y="174.528"/>
     <use style="stroke:#000000;" x="236.16" xlink:href="#mac8b94fc47" y="171.416918"/>
     <use style="stroke:#000000;" x="257.830491" xlink:href="#mac8b94fc47" y="174.528"/>
     <use style="stroke:#000000;" x="236.16" xlink:href="#mac8b94fc47" y="152.649947"/>
     <use style="stroke:#000000;" x="325.44" xlink:href="#mac8b94fc47" y="139.749424"/>
     <use style="stroke:#000000;" x="240.21076" xlink:href="#mac8b94fc47" y="174.528"/>
     <use style="stroke:#000000;" x="236.16" xlink:href="#mac8b94fc47" y="174.528"/>
     <use style="stroke:#000000;" x="236.16" xlink:href="#mac8b94fc47" y="162.469091"/>
     <use style="stroke:#000000;" x="325.44" xlink:href="#mac8b94fc47" y="134.6112"/>
     <use style="stroke:#000000;" x="325.44" xlink:href="#mac8b94fc47" y="152.411876"/>
     <use style="stroke:#000000;" x="243.809483" xlink:href="#mac8b94fc47" y="174.526063"/>
     <use style="stroke:#000000;" x="236.16" xlink:href="#mac8b94fc47" y="146.419474"/>
     <use style="stroke:#000000;" x="236.16" xlink:href="#mac8b94fc47" y="174.528"/>
     <use style="stroke:#000000;" x="325.44" xlink:href="#mac8b94fc47" y="172.936098"/>
     <use style="stroke:#000000;" x="242.856911" xlink:href="#mac8b94fc47" y="174.528"/>
     <use style="stroke:#000000;" x="241.578144" xlink:href="#mac8b94fc47" y="174.528"/>
     <use style="stroke:#000000;" x="236.16" xlink:href="#mac8b94fc47" y="134.6112"/>
     <use style="stroke:#000000;" x="249.892558" xlink:href="#mac8b94fc47" y="174.528"/>
     <use style="stroke:#000000;" x="325.44" xlink:href="#mac8b94fc47" y="142.468331"/>
     <use style="stroke:#000000;" x="325.44" xlink:href="#mac8b94fc47" y="139.273754"/>
     <use style="stroke:#000000;" x="236.16" xlink:href="#mac8b94fc47" y="143.334051"/>
     <use style="stroke:#000000;" x="236.16" xlink:href="#mac8b94fc47" y="145.57558"/>
     <use style="stroke:#000000;" x="276.928275" xlink:href="#mac8b94fc47" y="174.528"/>
     <use style="stroke:#000000;" x="236.16" xlink:href="#mac8b94fc47" y="162.00496"/>
     <use style="stroke:#000000;" x="325.44" xlink:href="#mac8b94fc47" y="137.333044"/>
     <use style="stroke:#000000;" x="244.061038" xlink:href="#mac8b94fc47" y="174.528"/>
     <use style="stroke:#000000;" x="236.16" xlink:href="#mac8b94fc47" y="163.545375"/>
     <use style="stroke:#000000;" x="236.16" xlink:href="#mac8b94fc47" y="136.436626"/>
     <use style="stroke:#000000;" x="315.516792" xlink:href="#mac8b94fc47" y="174.528"/>
     <use style="stroke:#000000;" x="236.16" xlink:href="#mac8b94fc47" y="148.138036"/>
     <use style="stroke:#000000;" x="273.306726" xlink:href="#mac8b94fc47" y="174.528"/>
     <use style="stroke:#000000;" x="245.442316" xlink:href="#mac8b94fc47" y="174.528"/>
     <use style="stroke:#000000;" x="236.16" xlink:href="#mac8b94fc47" y="134.6112"/>
     <use style="stroke:#000000;" x="236.16" xlink:href="#mac8b94fc47" y="159.526667"/>
     <use style="stroke:#000000;" x="236.16" xlink:href="#mac8b94fc47" y="134.6112"/>
     <use style="stroke:#000000;" x="236.16" xlink:href="#mac8b94fc47" y="172.561163"/>
     <use style="stroke:#000000;" x="236.16" xlink:href="#mac8b94fc47" y="172.632221"/>
     <use style="stroke:#000000;" x="236.16" xlink:href="#mac8b94fc47" y="174.528"/>
     <use style="stroke:#000000;" x="236.16" xlink:href="#mac8b94fc47" y="174.528"/>
     <use style="stroke:#000000;" x="236.16" xlink:href="#mac8b94fc47" y="168.352222"/>
     <use style="stroke:#000000;" x="325.44" xlink:href="#mac8b94fc47" y="140.367414"/>
     <use style="stroke:#000000;" x="236.16" xlink:href="#mac8b94fc47" y="139.409159"/>
     <use style="stroke:#000000;" x="236.16" xlink:href="#mac8b94fc47" y="135.343851"/>
     <use style="stroke:#000000;" x="247.173272" xlink:href="#mac8b94fc47" y="174.528"/>
     <use style="stroke:#000000;" x="236.16" xlink:href="#mac8b94fc47" y="174.528"/>
     <use style="stroke:#000000;" x="236.16" xlink:href="#mac8b94fc47" y="173.318306"/>
     <use style="stroke:#000000;" x="236.16" xlink:href="#mac8b94fc47" y="174.528"/>
     <use style="stroke:#000000;" x="236.16" xlink:href="#mac8b94fc47" y="134.6112"/>
     <use style="stroke:#000000;" x="262.808737" xlink:href="#mac8b94fc47" y="174.528"/>
     <use style="stroke:#000000;" x="242.052635" xlink:href="#mac8b94fc47" y="174.528"/>
     <use style="stroke:#000000;" x="236.16" xlink:href="#mac8b94fc47" y="168.956125"/>
     <use style="stroke:#000000;" x="236.16" xlink:href="#mac8b94fc47" y="145.830962"/>
     <use style="stroke:#000000;" x="236.16" xlink:href="#mac8b94fc47" y="174.371057"/>
     <use style="stroke:#000000;" x="236.16" xlink:href="#mac8b94fc47" y="141.74357"/>
     <use style="stroke:#000000;" x="255.019646" xlink:href="#mac8b94fc47" y="174.528"/>
     <use style="stroke:#000000;" x="236.16" xlink:href="#mac8b94fc47" y="171.226364"/>
     <use style="stroke:#000000;" x="236.16" xlink:href="#mac8b94fc47" y="147.588594"/>
     <use style="stroke:#000000;" x="325.44" xlink:href="#mac8b94fc47" y="141.733146"/>
     <use style="stroke:#000000;" x="244.13015" xlink:href="#mac8b94fc47" y="174.528"/>
     <use style="stroke:#000000;" x="252.447103" xlink:href="#mac8b94fc47" y="174.528"/>
     <use style="stroke:#000000;" x="236.16" xlink:href="#mac8b94fc47" y="173.31719"/>
     <use style="stroke:#000000;" x="236.16" xlink:href="#mac8b94fc47" y="141.058225"/>
     <use style="stroke:#000000;" x="325.44" xlink:href="#mac8b94fc47" y="143.478762"/>
     <use style="stroke:#000000;" x="236.16" xlink:href="#mac8b94fc47" y="139.918438"/>
     <use style="stroke:#000000;" x="236.16" xlink:href="#mac8b94fc47" y="172.661966"/>
     <use style="stroke:#000000;" x="243.355916" xlink:href="#mac8b94fc47" y="174.528"/>
     <use style="stroke:#000000;" x="236.322131" xlink:href="#mac8b94fc47" y="148.933054"/>
     <use style="stroke:#000000;" x="249.675908" xlink:href="#mac8b94fc47" y="174.528"/>
     <use style="stroke:#000000;" x="237.598342" xlink:href="#mac8b94fc47" y="174.528"/>
     <use style="stroke:#000000;" x="325.44" xlink:href="#mac8b94fc47" y="142.175733"/>
     <use style="stroke:#000000;" x="325.44" xlink:href="#mac8b94fc47" y="142.88959"/>
     <use style="stroke:#000000;" x="236.173539" xlink:href="#mac8b94fc47" y="144.675284"/>
     <use style="stroke:#000000;" x="236.16" xlink:href="#mac8b94fc47" y="174.528"/>
     <use style="stroke:#000000;" x="236.16" xlink:href="#mac8b94fc47" y="141.266211"/>
     <use style="stroke:#000000;" x="236.16" xlink:href="#mac8b94fc47" y="142.879841"/>
     <use style="stroke:#000000;" x="236.16" xlink:href="#mac8b94fc47" y="169.243469"/>
     <use style="stroke:#000000;" x="241.156146" xlink:href="#mac8b94fc47" y="174.528"/>
     <use style="stroke:#000000;" x="325.44" xlink:href="#mac8b94fc47" y="136.598382"/>
     <use style="stroke:#000000;" x="236.323505" xlink:href="#mac8b94fc47" y="174.528"/>
     <use style="stroke:#000000;" x="236.16" xlink:href="#mac8b94fc47" y="172.864547"/>
     <use style="stroke:#000000;" x="254.508272" xlink:href="#mac8b94fc47" y="174.528"/>
     <use style="stroke:#000000;" x="257.708293" xlink:href="#mac8b94fc47" y="174.528"/>
     <use style="stroke:#000000;" x="257.834789" xlink:href="#mac8b94fc47" y="174.528"/>
     <use style="stroke:#000000;" x="257.050225" xlink:href="#mac8b94fc47" y="174.528"/>
     <use style="stroke:#000000;" x="236.16" xlink:href="#mac8b94fc47" y="171.578656"/>
     <use style="stroke:#000000;" x="238.21363" xlink:href="#mac8b94fc47" y="170.908938"/>
     <use style="stroke:#000000;" x="238.716211" xlink:href="#mac8b94fc47" y="170.739393"/>
     <use style="stroke:#000000;" x="257.215688" xlink:href="#mac8b94fc47" y="173.729785"/>
     <use style="stroke:#000000;" x="261.104876" xlink:href="#mac8b94fc47" y="174.528"/>
     <use style="stroke:#000000;" x="258.477353" xlink:href="#mac8b94fc47" y="174.528"/>
     <use style="stroke:#000000;" x="236.16" xlink:href="#mac8b94fc47" y="152.743475"/>
     <use style="stroke:#000000;" x="236.86096" xlink:href="#mac8b94fc47" y="152.647486"/>
     <use style="stroke:#000000;" x="236.16" xlink:href="#mac8b94fc47" y="151.337493"/>
     <use style="stroke:#000000;" x="325.44" xlink:href="#mac8b94fc47" y="139.920703"/>
     <use style="stroke:#000000;" x="324.523387" xlink:href="#mac8b94fc47" y="139.634853"/>
     <use style="stroke:#000000;" x="325.44" xlink:href="#mac8b94fc47" y="140.059493"/>
     <use style="stroke:#000000;" x="239.113936" xlink:href="#mac8b94fc47" y="174.528"/>
     <use style="stroke:#000000;" x="237.957775" xlink:href="#mac8b94fc47" y="173.772919"/>
     <use style="stroke:#000000;" x="239.318622" xlink:href="#mac8b94fc47" y="172.976244"/>
     <use style="stroke:#000000;" x="236.16" xlink:href="#mac8b94fc47" y="173.597541"/>
     <use style="stroke:#000000;" x="236.16" xlink:href="#mac8b94fc47" y="174.528"/>
     <use style="stroke:#000000;" x="239.573485" xlink:href="#mac8b94fc47" y="174.174803"/>
     <use style="stroke:#000000;" x="236.16" xlink:href="#mac8b94fc47" y="162.717722"/>
     <use style="stroke:#000000;" x="240.099705" xlink:href="#mac8b94fc47" y="162.161135"/>
     <use style="stroke:#000000;" x="236.765517" xlink:href="#mac8b94fc47" y="162.131457"/>
     <use style="stroke:#000000;" x="324.36203" xlink:href="#mac8b94fc47" y="134.990341"/>
     <use style="stroke:#000000;" x="322.868818" xlink:href="#mac8b94fc47" y="135.513801"/>
     <use style="stroke:#000000;" x="325.407508" xlink:href="#mac8b94fc47" y="135.079158"/>
     <use style="stroke:#000000;" x="325.44" xlink:href="#mac8b94fc47" y="152.259202"/>
     <use style="stroke:#000000;" x="325.44" xlink:href="#mac8b94fc47" y="152.634186"/>
     <use style="stroke:#000000;" x="325.200103" xlink:href="#mac8b94fc47" y="152.306998"/>
     <use style="stroke:#000000;" x="240.232241" xlink:href="#mac8b94fc47" y="174.528"/>
     <use style="stroke:#000000;" x="242.305191" xlink:href="#mac8b94fc47" y="174.528"/>
     <use style="stroke:#000000;" x="246.97177" xlink:href="#mac8b94fc47" y="173.274666"/>
     <use style="stroke:#000000;" x="240.097436" xlink:href="#mac8b94fc47" y="147.744417"/>
     <use style="stroke:#000000;" x="236.16" xlink:href="#mac8b94fc47" y="145.586306"/>
     <use style="stroke:#000000;" x="237.254642" xlink:href="#mac8b94fc47" y="145.126952"/>
     <use style="stroke:#000000;" x="239.360981" xlink:href="#mac8b94fc47" y="174.528"/>
     <use style="stroke:#000000;" x="239.326937" xlink:href="#mac8b94fc47" y="174.528"/>
     <use style="stroke:#000000;" x="236.16" xlink:href="#mac8b94fc47" y="174.528"/>
     <use style="stroke:#000000;" x="325.405345" xlink:href="#mac8b94fc47" y="173.359259"/>
     <use style="stroke:#000000;" x="325.44" xlink:href="#mac8b94fc47" y="172.395176"/>
     <use style="stroke:#000000;" x="324.301007" xlink:href="#mac8b94fc47" y="172.090986"/>
     <use style="stroke:#000000;" x="241.564236" xlink:href="#mac8b94fc47" y="171.28426"/>
     <use style="stroke:#000000;" x="240.601505" xlink:href="#mac8b94fc47" y="174.255413"/>
     <use style="stroke:#000000;" x="242.710921" xlink:href="#mac8b94fc47" y="172.96044"/>
     <use style="stroke:#000000;" x="244.012932" xlink:href="#mac8b94fc47" y="174.528"/>
     <use style="stroke:#000000;" x="236.16" xlink:href="#mac8b94fc47" y="136.025306"/>
     <use style="stroke:#000000;" x="242.000924" xlink:href="#mac8b94fc47" y="174.528"/>
     <use style="stroke:#000000;" x="325.44" xlink:href="#mac8b94fc47" y="139.052711"/>
     <use style="stroke:#000000;" x="325.260387" xlink:href="#mac8b94fc47" y="138.409849"/>
     <use style="stroke:#000000;" x="321.056156" xlink:href="#mac8b94fc47" y="139.502552"/>
     <use style="stroke:#000000;" x="325.44" xlink:href="#mac8b94fc47" y="140.951663"/>
     <use style="stroke:#000000;" x="237.710697" xlink:href="#mac8b94fc47" y="145.523327"/>
     <use style="stroke:#000000;" x="236.568599" xlink:href="#mac8b94fc47" y="146.237598"/>
     <use style="stroke:#000000;" x="237.728506" xlink:href="#mac8b94fc47" y="146.816388"/>
     <use style="stroke:#000000;" x="236.16" xlink:href="#mac8b94fc47" y="146.20464"/>
     <use style="stroke:#000000;" x="273.286368" xlink:href="#mac8b94fc47" y="173.724653"/>
     <use style="stroke:#000000;" x="236.16" xlink:href="#mac8b94fc47" y="162.888903"/>
     <use style="stroke:#000000;" x="325.44" xlink:href="#mac8b94fc47" y="139.876955"/>
     <use style="stroke:#000000;" x="245.804049" xlink:href="#mac8b94fc47" y="170.915368"/>
     <use style="stroke:#000000;" x="240.20561" xlink:href="#mac8b94fc47" y="163.037738"/>
     <use style="stroke:#000000;" x="238.774923" xlink:href="#mac8b94fc47" y="163.586559"/>
     <use style="stroke:#000000;" x="236.16" xlink:href="#mac8b94fc47" y="162.468783"/>
     <use style="stroke:#000000;" x="240.219853" xlink:href="#mac8b94fc47" y="138.376765"/>
     <use style="stroke:#000000;" x="314.653155" xlink:href="#mac8b94fc47" y="174.528"/>
     <use style="stroke:#000000;" x="317.631626" xlink:href="#mac8b94fc47" y="174.528"/>
     <use style="stroke:#000000;" x="317.133918" xlink:href="#mac8b94fc47" y="173.424747"/>
     <use style="stroke:#000000;" x="244.969194" xlink:href="#mac8b94fc47" y="150.744434"/>
     <use style="stroke:#000000;" x="274.785777" xlink:href="#mac8b94fc47" y="174.528"/>
     <use style="stroke:#000000;" x="269.147992" xlink:href="#mac8b94fc47" y="174.318156"/>
     <use style="stroke:#000000;" x="273.926774" xlink:href="#mac8b94fc47" y="174.500998"/>
     <use style="stroke:#000000;" x="245.578183" xlink:href="#mac8b94fc47" y="174.00441"/>
     <use style="stroke:#000000;" x="245.837899" xlink:href="#mac8b94fc47" y="174.528"/>
     <use style="stroke:#000000;" x="244.525312" xlink:href="#mac8b94fc47" y="174.053"/>
     <use style="stroke:#000000;" x="236.16" xlink:href="#mac8b94fc47" y="136.478543"/>
     <use style="stroke:#000000;" x="236.16" xlink:href="#mac8b94fc47" y="160.776418"/>
     <use style="stroke:#000000;" x="238.757323" xlink:href="#mac8b94fc47" y="160.903481"/>
     <use style="stroke:#000000;" x="236.740739" xlink:href="#mac8b94fc47" y="158.910151"/>
     <use style="stroke:#000000;" x="237.677286" xlink:href="#mac8b94fc47" y="135.755195"/>
     <use style="stroke:#000000;" x="236.16" xlink:href="#mac8b94fc47" y="134.6112"/>
     <use style="stroke:#000000;" x="238.547776" xlink:href="#mac8b94fc47" y="134.6112"/>
     <use style="stroke:#000000;" x="240.630232" xlink:href="#mac8b94fc47" y="171.797582"/>
     <use style="stroke:#000000;" x="236.16" xlink:href="#mac8b94fc47" y="173.439166"/>
     <use style="stroke:#000000;" x="236.16" xlink:href="#mac8b94fc47" y="170.551112"/>
     <use style="stroke:#000000;" x="236.16" xlink:href="#mac8b94fc47" y="174.528"/>
     <use style="stroke:#000000;" x="236.16" xlink:href="#mac8b94fc47" y="172.628309"/>
     <use style="stroke:#000000;" x="237.835027" xlink:href="#mac8b94fc47" y="173.189336"/>
     <use style="stroke:#000000;" x="236.59689" xlink:href="#mac8b94fc47" y="173.131658"/>
     <use style="stroke:#000000;" x="238.258932" xlink:href="#mac8b94fc47" y="173.322831"/>
     <use style="stroke:#000000;" x="236.16" xlink:href="#mac8b94fc47" y="174.167103"/>
     <use style="stroke:#000000;" x="237.976366" xlink:href="#mac8b94fc47" y="174.528"/>
     <use style="stroke:#000000;" x="236.16" xlink:href="#mac8b94fc47" y="168.433592"/>
     <use style="stroke:#000000;" x="238.093492" xlink:href="#mac8b94fc47" y="168.487872"/>
     <use style="stroke:#000000;" x="236.16" xlink:href="#mac8b94fc47" y="167.887719"/>
     <use style="stroke:#000000;" x="325.44" xlink:href="#mac8b94fc47" y="139.472281"/>
     <use style="stroke:#000000;" x="325.44" xlink:href="#mac8b94fc47" y="141.548781"/>
     <use style="stroke:#000000;" x="236.175546" xlink:href="#mac8b94fc47" y="140.551038"/>
     <use style="stroke:#000000;" x="236.16" xlink:href="#mac8b94fc47" y="136.605324"/>
     <use style="stroke:#000000;" x="236.16" xlink:href="#mac8b94fc47" y="135.439574"/>
     <use style="stroke:#000000;" x="236.28484" xlink:href="#mac8b94fc47" y="136.446255"/>
     <use style="stroke:#000000;" x="243.14692" xlink:href="#mac8b94fc47" y="173.507243"/>
     <use style="stroke:#000000;" x="248.395126" xlink:href="#mac8b94fc47" y="174.528"/>
     <use style="stroke:#000000;" x="236.16" xlink:href="#mac8b94fc47" y="174.528"/>
     <use style="stroke:#000000;" x="237.879856" xlink:href="#mac8b94fc47" y="174.492931"/>
     <use style="stroke:#000000;" x="236.16" xlink:href="#mac8b94fc47" y="169.215231"/>
     <use style="stroke:#000000;" x="236.16" xlink:href="#mac8b94fc47" y="173.052567"/>
     <use style="stroke:#000000;" x="238.157432" xlink:href="#mac8b94fc47" y="171.641836"/>
     <use style="stroke:#000000;" x="236.16" xlink:href="#mac8b94fc47" y="135.966095"/>
     <use style="stroke:#000000;" x="239.094905" xlink:href="#mac8b94fc47" y="134.6112"/>
     <use style="stroke:#000000;" x="265.360875" xlink:href="#mac8b94fc47" y="174.175149"/>
     <use style="stroke:#000000;" x="259.137974" xlink:href="#mac8b94fc47" y="174.528"/>
     <use style="stroke:#000000;" x="238.880632" xlink:href="#mac8b94fc47" y="174.528"/>
     <use style="stroke:#000000;" x="242.804098" xlink:href="#mac8b94fc47" y="174.528"/>
     <use style="stroke:#000000;" x="238.396168" xlink:href="#mac8b94fc47" y="169.601966"/>
     <use style="stroke:#000000;" x="236.16" xlink:href="#mac8b94fc47" y="169.680942"/>
     <use style="stroke:#000000;" x="238.030825" xlink:href="#mac8b94fc47" y="147.284628"/>
     <use style="stroke:#000000;" x="236.16" xlink:href="#mac8b94fc47" y="146.809129"/>
     <use style="stroke:#000000;" x="248.654964" xlink:href="#mac8b94fc47" y="174.528"/>
     <use style="stroke:#000000;" x="238.671116" xlink:href="#mac8b94fc47" y="174.528"/>
     <use style="stroke:#000000;" x="236.16" xlink:href="#mac8b94fc47" y="145.5123"/>
     <use style="stroke:#000000;" x="259.029967" xlink:href="#mac8b94fc47" y="174.528"/>
     <use style="stroke:#000000;" x="236.564622" xlink:href="#mac8b94fc47" y="174.112439"/>
     <use style="stroke:#000000;" x="242.107722" xlink:href="#mac8b94fc47" y="146.475594"/>
     <use style="stroke:#000000;" x="325.44" xlink:href="#mac8b94fc47" y="140.812422"/>
     <use style="stroke:#000000;" x="246.877816" xlink:href="#mac8b94fc47" y="174.528"/>
     <use style="stroke:#000000;" x="253.671288" xlink:href="#mac8b94fc47" y="174.528"/>
     <use style="stroke:#000000;" x="257.426807" xlink:href="#mac8b94fc47" y="174.528"/>
     <use style="stroke:#000000;" x="236.16" xlink:href="#mac8b94fc47" y="174.035485"/>
     <use style="stroke:#000000;" x="236.450086" xlink:href="#mac8b94fc47" y="174.407966"/>
     <use style="stroke:#000000;" x="240.097794" xlink:href="#mac8b94fc47" y="139.584638"/>
     <use style="stroke:#000000;" x="236.16" xlink:href="#mac8b94fc47" y="138.474098"/>
     <use style="stroke:#000000;" x="324.83237" xlink:href="#mac8b94fc47" y="141.941955"/>
     <use style="stroke:#000000;" x="320.787089" xlink:href="#mac8b94fc47" y="141.599102"/>
     <use style="stroke:#000000;" x="237.096508" xlink:href="#mac8b94fc47" y="139.785964"/>
     <use style="stroke:#000000;" x="236.16" xlink:href="#mac8b94fc47" y="143.128422"/>
     <use style="stroke:#000000;" x="240.430857" xlink:href="#mac8b94fc47" y="171.305271"/>
     <use style="stroke:#000000;" x="239.983518" xlink:href="#mac8b94fc47" y="173.467973"/>
     <use style="stroke:#000000;" x="240.217932" xlink:href="#mac8b94fc47" y="172.568013"/>
     <use style="stroke:#000000;" x="242.892082" xlink:href="#mac8b94fc47" y="174.528"/>
     <use style="stroke:#000000;" x="238.456115" xlink:href="#mac8b94fc47" y="150.864337"/>
     <use style="stroke:#000000;" x="236.16" xlink:href="#mac8b94fc47" y="148.765163"/>
     <use style="stroke:#000000;" x="253.840292" xlink:href="#mac8b94fc47" y="174.528"/>
     <use style="stroke:#000000;" x="248.073764" xlink:href="#mac8b94fc47" y="174.528"/>
     <use style="stroke:#000000;" x="236.16" xlink:href="#mac8b94fc47" y="174.016672"/>
     <use style="stroke:#000000;" x="325.44" xlink:href="#mac8b94fc47" y="139.692252"/>
     <use style="stroke:#000000;" x="325.44" xlink:href="#mac8b94fc47" y="142.652462"/>
     <use style="stroke:#000000;" x="325.44" xlink:href="#mac8b94fc47" y="144.331742"/>
     <use style="stroke:#000000;" x="236.16" xlink:href="#mac8b94fc47" y="143.648677"/>
     <use style="stroke:#000000;" x="236.16" xlink:href="#mac8b94fc47" y="174.528"/>
     <use style="stroke:#000000;" x="236.16" xlink:href="#mac8b94fc47" y="142.058736"/>
     <use style="stroke:#000000;" x="241.310431" xlink:href="#mac8b94fc47" y="142.415158"/>
     <use style="stroke:#000000;" x="239.610037" xlink:href="#mac8b94fc47" y="145.937877"/>
     <use style="stroke:#000000;" x="237.328474" xlink:href="#mac8b94fc47" y="169.73775"/>
     <use style="stroke:#000000;" x="237.934152" xlink:href="#mac8b94fc47" y="171.441269"/>
     <use style="stroke:#000000;" x="241.128335" xlink:href="#mac8b94fc47" y="174.528"/>
     <use style="stroke:#000000;" x="325.44" xlink:href="#mac8b94fc47" y="136.97181"/>
     <use style="stroke:#000000;" x="325.44" xlink:href="#mac8b94fc47" y="138.109228"/>
     <use style="stroke:#000000;" x="243.481051" xlink:href="#mac8b94fc47" y="174.528"/>
     <use style="stroke:#000000;" x="237.198369" xlink:href="#mac8b94fc47" y="174.385163"/>
    </g>
   </g>
   <g id="PathCollection_2">
    <defs>
     <path d="M 0 0.935414 
C 0.248075 0.935414 0.486022 0.836853 0.661438 0.661438 
C 0.836853 0.486022 0.935414 0.248075 0.935414 0 
C 0.935414 -0.248075 0.836853 -0.486022 0.661438 -0.661438 
C 0.486022 -0.836853 0.248075 -0.935414 0 -0.935414 
C -0.248075 -0.935414 -0.486022 -0.836853 -0.661438 -0.661438 
C -0.836853 -0.486022 -0.935414 -0.248075 -0.935414 0 
C -0.935414 0.248075 -0.836853 0.486022 -0.661438 0.661438 
C -0.486022 0.836853 -0.248075 0.935414 0 0.935414 
z
" id="m0b9906964c" style="stroke:#0000ff;"/>
    </defs>
    <g clip-path="url(#p2c7abb73b3)">
     <use style="fill:#0000ff;stroke:#0000ff;" x="236.16" xlink:href="#m0b9906964c" y="167.248278"/>
     <use style="fill:#0000ff;stroke:#0000ff;" x="257.389036" xlink:href="#m0b9906964c" y="174.528"/>
     <use style="fill:#0000ff;stroke:#0000ff;" x="236.16" xlink:href="#m0b9906964c" y="171.416918"/>
     <use style="fill:#0000ff;stroke:#0000ff;" x="257.830491" xlink:href="#m0b9906964c" y="174.528"/>
     <use style="fill:#0000ff;stroke:#0000ff;" x="236.16" xlink:href="#m0b9906964c" y="152.649947"/>
     <use style="fill:#0000ff;stroke:#0000ff;" x="325.44" xlink:href="#m0b9906964c" y="139.749424"/>
     <use style="fill:#0000ff;stroke:#0000ff;" x="240.21076" xlink:href="#m0b9906964c" y="174.528"/>
     <use style="fill:#0000ff;stroke:#0000ff;" x="236.16" xlink:href="#m0b9906964c" y="174.528"/>
     <use style="fill:#0000ff;stroke:#0000ff;" x="236.16" xlink:href="#m0b9906964c" y="162.469091"/>
     <use style="fill:#0000ff;stroke:#0000ff;" x="325.44" xlink:href="#m0b9906964c" y="134.6112"/>
     <use style="fill:#0000ff;stroke:#0000ff;" x="325.44" xlink:href="#m0b9906964c" y="152.411876"/>
     <use style="fill:#0000ff;stroke:#0000ff;" x="243.809483" xlink:href="#m0b9906964c" y="174.526063"/>
     <use style="fill:#0000ff;stroke:#0000ff;" x="236.16" xlink:href="#m0b9906964c" y="146.419474"/>
     <use style="fill:#0000ff;stroke:#0000ff;" x="236.16" xlink:href="#m0b9906964c" y="174.528"/>
     <use style="fill:#0000ff;stroke:#0000ff;" x="325.44" xlink:href="#m0b9906964c" y="172.936098"/>
     <use style="fill:#0000ff;stroke:#0000ff;" x="242.856911" xlink:href="#m0b9906964c" y="174.528"/>
     <use style="fill:#0000ff;stroke:#0000ff;" x="241.578144" xlink:href="#m0b9906964c" y="174.528"/>
     <use style="fill:#0000ff;stroke:#0000ff;" x="236.16" xlink:href="#m0b9906964c" y="134.6112"/>
     <use style="fill:#0000ff;stroke:#0000ff;" x="249.892558" xlink:href="#m0b9906964c" y="174.528"/>
     <use style="fill:#0000ff;stroke:#0000ff;" x="325.44" xlink:href="#m0b9906964c" y="142.468331"/>
     <use style="fill:#0000ff;stroke:#0000ff;" x="325.44" xlink:href="#m0b9906964c" y="139.273754"/>
     <use style="fill:#0000ff;stroke:#0000ff;" x="236.16" xlink:href="#m0b9906964c" y="143.334051"/>
     <use style="fill:#0000ff;stroke:#0000ff;" x="236.16" xlink:href="#m0b9906964c" y="145.57558"/>
     <use style="fill:#0000ff;stroke:#0000ff;" x="276.928275" xlink:href="#m0b9906964c" y="174.528"/>
     <use style="fill:#0000ff;stroke:#0000ff;" x="236.16" xlink:href="#m0b9906964c" y="162.00496"/>
     <use style="fill:#0000ff;stroke:#0000ff;" x="325.44" xlink:href="#m0b9906964c" y="137.333044"/>
     <use style="fill:#0000ff;stroke:#0000ff;" x="244.061038" xlink:href="#m0b9906964c" y="174.528"/>
     <use style="fill:#0000ff;stroke:#0000ff;" x="236.16" xlink:href="#m0b9906964c" y="163.545375"/>
     <use style="fill:#0000ff;stroke:#0000ff;" x="236.16" xlink:href="#m0b9906964c" y="136.436626"/>
     <use style="fill:#0000ff;stroke:#0000ff;" x="315.516792" xlink:href="#m0b9906964c" y="174.528"/>
     <use style="fill:#0000ff;stroke:#0000ff;" x="236.16" xlink:href="#m0b9906964c" y="148.138036"/>
     <use style="fill:#0000ff;stroke:#0000ff;" x="273.306726" xlink:href="#m0b9906964c" y="174.528"/>
     <use style="fill:#0000ff;stroke:#0000ff;" x="245.442316" xlink:href="#m0b9906964c" y="174.528"/>
     <use style="fill:#0000ff;stroke:#0000ff;" x="236.16" xlink:href="#m0b9906964c" y="134.6112"/>
     <use style="fill:#0000ff;stroke:#0000ff;" x="236.16" xlink:href="#m0b9906964c" y="159.526667"/>
     <use style="fill:#0000ff;stroke:#0000ff;" x="236.16" xlink:href="#m0b9906964c" y="134.6112"/>
     <use style="fill:#0000ff;stroke:#0000ff;" x="236.16" xlink:href="#m0b9906964c" y="172.561163"/>
     <use style="fill:#0000ff;stroke:#0000ff;" x="236.16" xlink:href="#m0b9906964c" y="172.632221"/>
     <use style="fill:#0000ff;stroke:#0000ff;" x="236.16" xlink:href="#m0b9906964c" y="174.528"/>
     <use style="fill:#0000ff;stroke:#0000ff;" x="236.16" xlink:href="#m0b9906964c" y="174.528"/>
     <use style="fill:#0000ff;stroke:#0000ff;" x="236.16" xlink:href="#m0b9906964c" y="168.352222"/>
     <use style="fill:#0000ff;stroke:#0000ff;" x="325.44" xlink:href="#m0b9906964c" y="140.367414"/>
     <use style="fill:#0000ff;stroke:#0000ff;" x="236.16" xlink:href="#m0b9906964c" y="139.409159"/>
     <use style="fill:#0000ff;stroke:#0000ff;" x="236.16" xlink:href="#m0b9906964c" y="135.343851"/>
     <use style="fill:#0000ff;stroke:#0000ff;" x="247.173272" xlink:href="#m0b9906964c" y="174.528"/>
     <use style="fill:#0000ff;stroke:#0000ff;" x="236.16" xlink:href="#m0b9906964c" y="174.528"/>
     <use style="fill:#0000ff;stroke:#0000ff;" x="236.16" xlink:href="#m0b9906964c" y="173.318306"/>
     <use style="fill:#0000ff;stroke:#0000ff;" x="236.16" xlink:href="#m0b9906964c" y="174.528"/>
     <use style="fill:#0000ff;stroke:#0000ff;" x="236.16" xlink:href="#m0b9906964c" y="134.6112"/>
     <use style="fill:#0000ff;stroke:#0000ff;" x="262.808737" xlink:href="#m0b9906964c" y="174.528"/>
     <use style="fill:#0000ff;stroke:#0000ff;" x="242.052635" xlink:href="#m0b9906964c" y="174.528"/>
     <use style="fill:#0000ff;stroke:#0000ff;" x="236.16" xlink:href="#m0b9906964c" y="168.956125"/>
     <use style="fill:#0000ff;stroke:#0000ff;" x="236.16" xlink:href="#m0b9906964c" y="145.830962"/>
     <use style="fill:#0000ff;stroke:#0000ff;" x="236.16" xlink:href="#m0b9906964c" y="174.371057"/>
     <use style="fill:#0000ff;stroke:#0000ff;" x="236.16" xlink:href="#m0b9906964c" y="141.74357"/>
     <use style="fill:#0000ff;stroke:#0000ff;" x="255.019646" xlink:href="#m0b9906964c" y="174.528"/>
     <use style="fill:#0000ff;stroke:#0000ff;" x="236.16" xlink:href="#m0b9906964c" y="171.226364"/>
     <use style="fill:#0000ff;stroke:#0000ff;" x="236.16" xlink:href="#m0b9906964c" y="147.588594"/>
     <use style="fill:#0000ff;stroke:#0000ff;" x="325.44" xlink:href="#m0b9906964c" y="141.733146"/>
     <use style="fill:#0000ff;stroke:#0000ff;" x="244.13015" xlink:href="#m0b9906964c" y="174.528"/>
     <use style="fill:#0000ff;stroke:#0000ff;" x="252.447103" xlink:href="#m0b9906964c" y="174.528"/>
     <use style="fill:#0000ff;stroke:#0000ff;" x="236.16" xlink:href="#m0b9906964c" y="173.31719"/>
     <use style="fill:#0000ff;stroke:#0000ff;" x="236.16" xlink:href="#m0b9906964c" y="141.058225"/>
     <use style="fill:#0000ff;stroke:#0000ff;" x="325.44" xlink:href="#m0b9906964c" y="143.478762"/>
     <use style="fill:#0000ff;stroke:#0000ff;" x="236.16" xlink:href="#m0b9906964c" y="139.918438"/>
     <use style="fill:#0000ff;stroke:#0000ff;" x="236.16" xlink:href="#m0b9906964c" y="172.661966"/>
     <use style="fill:#0000ff;stroke:#0000ff;" x="243.355916" xlink:href="#m0b9906964c" y="174.528"/>
     <use style="fill:#0000ff;stroke:#0000ff;" x="236.322131" xlink:href="#m0b9906964c" y="148.933054"/>
     <use style="fill:#0000ff;stroke:#0000ff;" x="249.675908" xlink:href="#m0b9906964c" y="174.528"/>
     <use style="fill:#0000ff;stroke:#0000ff;" x="237.598342" xlink:href="#m0b9906964c" y="174.528"/>
     <use style="fill:#0000ff;stroke:#0000ff;" x="325.44" xlink:href="#m0b9906964c" y="142.175733"/>
     <use style="fill:#0000ff;stroke:#0000ff;" x="325.44" xlink:href="#m0b9906964c" y="142.88959"/>
     <use style="fill:#0000ff;stroke:#0000ff;" x="236.173539" xlink:href="#m0b9906964c" y="144.675284"/>
     <use style="fill:#0000ff;stroke:#0000ff;" x="236.16" xlink:href="#m0b9906964c" y="174.528"/>
     <use style="fill:#0000ff;stroke:#0000ff;" x="236.16" xlink:href="#m0b9906964c" y="141.266211"/>
     <use style="fill:#0000ff;stroke:#0000ff;" x="236.16" xlink:href="#m0b9906964c" y="142.879841"/>
     <use style="fill:#0000ff;stroke:#0000ff;" x="236.16" xlink:href="#m0b9906964c" y="169.243469"/>
     <use style="fill:#0000ff;stroke:#0000ff;" x="241.156146" xlink:href="#m0b9906964c" y="174.528"/>
     <use style="fill:#0000ff;stroke:#0000ff;" x="325.44" xlink:href="#m0b9906964c" y="136.598382"/>
     <use style="fill:#0000ff;stroke:#0000ff;" x="236.323505" xlink:href="#m0b9906964c" y="174.528"/>
    </g>
   </g>
   <g id="matplotlib.axis_1">
    <g id="xtick_1">
     <g id="line2d_1">
      <defs>
       <path d="M 0 0 
L 0 3.5 
" id="m911c8e5901" style="stroke:#000000;stroke-width:0.8;"/>
      </defs>
      <g>
       <use style="stroke:#000000;stroke-width:0.8;" x="57.6" xlink:href="#m911c8e5901" y="307.584"/>
      </g>
     </g>
     <g id="text_1">
      <!-- −10.0 -->
      <defs>
       <path d="M 10.59375 35.5 
L 73.1875 35.5 
L 73.1875 27.203125 
L 10.59375 27.203125 
z
" id="DejaVuSans-2212"/>
       <path d="M 12.40625 8.296875 
L 28.515625 8.296875 
L 28.515625 63.921875 
L 10.984375 60.40625 
L 10.984375 69.390625 
L 28.421875 72.90625 
L 38.28125 72.90625 
L 38.28125 8.296875 
L 54.390625 8.296875 
L 54.390625 0 
L 12.40625 0 
z
" id="DejaVuSans-31"/>
       <path d="M 31.78125 66.40625 
Q 24.171875 66.40625 20.328125 58.90625 
Q 16.5 51.421875 16.5 36.375 
Q 16.5 21.390625 20.328125 13.890625 
Q 24.171875 6.390625 31.78125 6.390625 
Q 39.453125 6.390625 43.28125 13.890625 
Q 47.125 21.390625 47.125 36.375 
Q 47.125 51.421875 43.28125 58.90625 
Q 39.453125 66.40625 31.78125 66.40625 
z
M 31.78125 74.21875 
Q 44.046875 74.21875 50.515625 64.515625 
Q 56.984375 54.828125 56.984375 36.375 
Q 56.984375 17.96875 50.515625 8.265625 
Q 44.046875 -1.421875 31.78125 -1.421875 
Q 19.53125 -1.421875 13.0625 8.265625 
Q 6.59375 17.96875 6.59375 36.375 
Q 6.59375 54.828125 13.0625 64.515625 
Q 19.53125 74.21875 31.78125 74.21875 
z
" id="DejaVuSans-30"/>
       <path d="M 10.6875 12.40625 
L 21 12.40625 
L 21 0 
L 10.6875 0 
z
" id="DejaVuSans-2e"/>
      </defs>
      <g transform="translate(42.277344 322.182437)scale(0.1 -0.1)">
       <use xlink:href="#DejaVuSans-2212"/>
       <use x="83.789062" xlink:href="#DejaVuSans-31"/>
       <use x="147.412109" xlink:href="#DejaVuSans-30"/>
       <use x="211.035156" xlink:href="#DejaVuSans-2e"/>
       <use x="242.822266" xlink:href="#DejaVuSans-30"/>
      </g>
     </g>
    </g>
    <g id="xtick_2">
     <g id="line2d_2">
      <g>
       <use style="stroke:#000000;stroke-width:0.8;" x="102.24" xlink:href="#m911c8e5901" y="307.584"/>
      </g>
     </g>
     <g id="text_2">
      <!-- −7.5 -->
      <defs>
       <path d="M 8.203125 72.90625 
L 55.078125 72.90625 
L 55.078125 68.703125 
L 28.609375 0 
L 18.3125 0 
L 43.21875 64.59375 
L 8.203125 64.59375 
z
" id="DejaVuSans-37"/>
       <path d="M 10.796875 72.90625 
L 49.515625 72.90625 
L 49.515625 64.59375 
L 19.828125 64.59375 
L 19.828125 46.734375 
Q 21.96875 47.46875 24.109375 47.828125 
Q 26.265625 48.1875 28.421875 48.1875 
Q 40.625 48.1875 47.75 41.5 
Q 54.890625 34.8125 54.890625 23.390625 
Q 54.890625 11.625 47.5625 5.09375 
Q 40.234375 -1.421875 26.90625 -1.421875 
Q 22.3125 -1.421875 17.546875 -0.640625 
Q 12.796875 0.140625 7.71875 1.703125 
L 7.71875 11.625 
Q 12.109375 9.234375 16.796875 8.0625 
Q 21.484375 6.890625 26.703125 6.890625 
Q 35.15625 6.890625 40.078125 11.328125 
Q 45.015625 15.765625 45.015625 23.390625 
Q 45.015625 31 40.078125 35.4375 
Q 35.15625 39.890625 26.703125 39.890625 
Q 22.75 39.890625 18.8125 39.015625 
Q 14.890625 38.140625 10.796875 36.28125 
z
" id="DejaVuSans-35"/>
      </defs>
      <g transform="translate(90.098594 322.182437)scale(0.1 -0.1)">
       <use xlink:href="#DejaVuSans-2212"/>
       <use x="83.789062" xlink:href="#DejaVuSans-37"/>
       <use x="147.412109" xlink:href="#DejaVuSans-2e"/>
       <use x="179.199219" xlink:href="#DejaVuSans-35"/>
      </g>
     </g>
    </g>
    <g id="xtick_3">
     <g id="line2d_3">
      <g>
       <use style="stroke:#000000;stroke-width:0.8;" x="146.88" xlink:href="#m911c8e5901" y="307.584"/>
      </g>
     </g>
     <g id="text_3">
      <!-- −5.0 -->
      <g transform="translate(134.738594 322.182437)scale(0.1 -0.1)">
       <use xlink:href="#DejaVuSans-2212"/>
       <use x="83.789062" xlink:href="#DejaVuSans-35"/>
       <use x="147.412109" xlink:href="#DejaVuSans-2e"/>
       <use x="179.199219" xlink:href="#DejaVuSans-30"/>
      </g>
     </g>
    </g>
    <g id="xtick_4">
     <g id="line2d_4">
      <g>
       <use style="stroke:#000000;stroke-width:0.8;" x="191.52" xlink:href="#m911c8e5901" y="307.584"/>
      </g>
     </g>
     <g id="text_4">
      <!-- −2.5 -->
      <defs>
       <path d="M 19.1875 8.296875 
L 53.609375 8.296875 
L 53.609375 0 
L 7.328125 0 
L 7.328125 8.296875 
Q 12.9375 14.109375 22.625 23.890625 
Q 32.328125 33.6875 34.8125 36.53125 
Q 39.546875 41.84375 41.421875 45.53125 
Q 43.3125 49.21875 43.3125 52.78125 
Q 43.3125 58.59375 39.234375 62.25 
Q 35.15625 65.921875 28.609375 65.921875 
Q 23.96875 65.921875 18.8125 64.3125 
Q 13.671875 62.703125 7.8125 59.421875 
L 7.8125 69.390625 
Q 13.765625 71.78125 18.9375 73 
Q 24.125 74.21875 28.421875 74.21875 
Q 39.75 74.21875 46.484375 68.546875 
Q 53.21875 62.890625 53.21875 53.421875 
Q 53.21875 48.921875 51.53125 44.890625 
Q 49.859375 40.875 45.40625 35.40625 
Q 44.1875 33.984375 37.640625 27.21875 
Q 31.109375 20.453125 19.1875 8.296875 
z
" id="DejaVuSans-32"/>
      </defs>
      <g transform="translate(179.378594 322.182437)scale(0.1 -0.1)">
       <use xlink:href="#DejaVuSans-2212"/>
       <use x="83.789062" xlink:href="#DejaVuSans-32"/>
       <use x="147.412109" xlink:href="#DejaVuSans-2e"/>
       <use x="179.199219" xlink:href="#DejaVuSans-35"/>
      </g>
     </g>
    </g>
    <g id="xtick_5">
     <g id="line2d_5">
      <g>
       <use style="stroke:#000000;stroke-width:0.8;" x="236.16" xlink:href="#m911c8e5901" y="307.584"/>
      </g>
     </g>
     <g id="text_5">
      <!-- 0.0 -->
      <g transform="translate(228.208438 322.182437)scale(0.1 -0.1)">
       <use xlink:href="#DejaVuSans-30"/>
       <use x="63.623047" xlink:href="#DejaVuSans-2e"/>
       <use x="95.410156" xlink:href="#DejaVuSans-30"/>
      </g>
     </g>
    </g>
    <g id="xtick_6">
     <g id="line2d_6">
      <g>
       <use style="stroke:#000000;stroke-width:0.8;" x="280.8" xlink:href="#m911c8e5901" y="307.584"/>
      </g>
     </g>
     <g id="text_6">
      <!-- 2.5 -->
      <g transform="translate(272.848437 322.182437)scale(0.1 -0.1)">
       <use xlink:href="#DejaVuSans-32"/>
       <use x="63.623047" xlink:href="#DejaVuSans-2e"/>
       <use x="95.410156" xlink:href="#DejaVuSans-35"/>
      </g>
     </g>
    </g>
    <g id="xtick_7">
     <g id="line2d_7">
      <g>
       <use style="stroke:#000000;stroke-width:0.8;" x="325.44" xlink:href="#m911c8e5901" y="307.584"/>
      </g>
     </g>
     <g id="text_7">
      <!-- 5.0 -->
      <g transform="translate(317.488437 322.182437)scale(0.1 -0.1)">
       <use xlink:href="#DejaVuSans-35"/>
       <use x="63.623047" xlink:href="#DejaVuSans-2e"/>
       <use x="95.410156" xlink:href="#DejaVuSans-30"/>
      </g>
     </g>
    </g>
    <g id="xtick_8">
     <g id="line2d_8">
      <g>
       <use style="stroke:#000000;stroke-width:0.8;" x="370.08" xlink:href="#m911c8e5901" y="307.584"/>
      </g>
     </g>
     <g id="text_8">
      <!-- 7.5 -->
      <g transform="translate(362.128438 322.182437)scale(0.1 -0.1)">
       <use xlink:href="#DejaVuSans-37"/>
       <use x="63.623047" xlink:href="#DejaVuSans-2e"/>
       <use x="95.410156" xlink:href="#DejaVuSans-35"/>
      </g>
     </g>
    </g>
    <g id="xtick_9">
     <g id="line2d_9">
      <g>
       <use style="stroke:#000000;stroke-width:0.8;" x="414.72" xlink:href="#m911c8e5901" y="307.584"/>
      </g>
     </g>
     <g id="text_9">
      <!-- 10.0 -->
      <g transform="translate(403.587188 322.182437)scale(0.1 -0.1)">
       <use xlink:href="#DejaVuSans-31"/>
       <use x="63.623047" xlink:href="#DejaVuSans-30"/>
       <use x="127.246094" xlink:href="#DejaVuSans-2e"/>
       <use x="159.033203" xlink:href="#DejaVuSans-30"/>
      </g>
     </g>
    </g>
   </g>
   <g id="matplotlib.axis_2">
    <g id="ytick_1">
     <g id="line2d_10">
      <defs>
       <path d="M 0 0 
L -3.5 0 
" id="mee2d97f429" style="stroke:#000000;stroke-width:0.8;"/>
      </defs>
      <g>
       <use style="stroke:#000000;stroke-width:0.8;" x="57.6" xlink:href="#mee2d97f429" y="307.584"/>
      </g>
     </g>
     <g id="text_10">
      <!-- −10.0 -->
      <g transform="translate(19.954687 311.383219)scale(0.1 -0.1)">
       <use xlink:href="#DejaVuSans-2212"/>
       <use x="83.789062" xlink:href="#DejaVuSans-31"/>
       <use x="147.412109" xlink:href="#DejaVuSans-30"/>
       <use x="211.035156" xlink:href="#DejaVuSans-2e"/>
       <use x="242.822266" xlink:href="#DejaVuSans-30"/>
      </g>
     </g>
    </g>
    <g id="ytick_2">
     <g id="line2d_11">
      <g>
       <use style="stroke:#000000;stroke-width:0.8;" x="57.6" xlink:href="#mee2d97f429" y="274.32"/>
      </g>
     </g>
     <g id="text_11">
      <!-- −7.5 -->
      <g transform="translate(26.317187 278.119219)scale(0.1 -0.1)">
       <use xlink:href="#DejaVuSans-2212"/>
       <use x="83.789062" xlink:href="#DejaVuSans-37"/>
       <use x="147.412109" xlink:href="#DejaVuSans-2e"/>
       <use x="179.199219" xlink:href="#DejaVuSans-35"/>
      </g>
     </g>
    </g>
    <g id="ytick_3">
     <g id="line2d_12">
      <g>
       <use style="stroke:#000000;stroke-width:0.8;" x="57.6" xlink:href="#mee2d97f429" y="241.056"/>
      </g>
     </g>
     <g id="text_12">
      <!-- −5.0 -->
      <g transform="translate(26.317187 244.855219)scale(0.1 -0.1)">
       <use xlink:href="#DejaVuSans-2212"/>
       <use x="83.789062" xlink:href="#DejaVuSans-35"/>
       <use x="147.412109" xlink:href="#DejaVuSans-2e"/>
       <use x="179.199219" xlink:href="#DejaVuSans-30"/>
      </g>
     </g>
    </g>
    <g id="ytick_4">
     <g id="line2d_13">
      <g>
       <use style="stroke:#000000;stroke-width:0.8;" x="57.6" xlink:href="#mee2d97f429" y="207.792"/>
      </g>
     </g>
     <g id="text_13">
      <!-- −2.5 -->
      <g transform="translate(26.317187 211.591219)scale(0.1 -0.1)">
       <use xlink:href="#DejaVuSans-2212"/>
       <use x="83.789062" xlink:href="#DejaVuSans-32"/>
       <use x="147.412109" xlink:href="#DejaVuSans-2e"/>
       <use x="179.199219" xlink:href="#DejaVuSans-35"/>
      </g>
     </g>
    </g>
    <g id="ytick_5">
     <g id="line2d_14">
      <g>
       <use style="stroke:#000000;stroke-width:0.8;" x="57.6" xlink:href="#mee2d97f429" y="174.528"/>
      </g>
     </g>
     <g id="text_14">
      <!-- 0.0 -->
      <g transform="translate(34.696875 178.327219)scale(0.1 -0.1)">
       <use xlink:href="#DejaVuSans-30"/>
       <use x="63.623047" xlink:href="#DejaVuSans-2e"/>
       <use x="95.410156" xlink:href="#DejaVuSans-30"/>
      </g>
     </g>
    </g>
    <g id="ytick_6">
     <g id="line2d_15">
      <g>
       <use style="stroke:#000000;stroke-width:0.8;" x="57.6" xlink:href="#mee2d97f429" y="141.264"/>
      </g>
     </g>
     <g id="text_15">
      <!-- 2.5 -->
      <g transform="translate(34.696875 145.063219)scale(0.1 -0.1)">
       <use xlink:href="#DejaVuSans-32"/>
       <use x="63.623047" xlink:href="#DejaVuSans-2e"/>
       <use x="95.410156" xlink:href="#DejaVuSans-35"/>
      </g>
     </g>
    </g>
    <g id="ytick_7">
     <g id="line2d_16">
      <g>
       <use style="stroke:#000000;stroke-width:0.8;" x="57.6" xlink:href="#mee2d97f429" y="108"/>
      </g>
     </g>
     <g id="text_16">
      <!-- 5.0 -->
      <g transform="translate(34.696875 111.799219)scale(0.1 -0.1)">
       <use xlink:href="#DejaVuSans-35"/>
       <use x="63.623047" xlink:href="#DejaVuSans-2e"/>
       <use x="95.410156" xlink:href="#DejaVuSans-30"/>
      </g>
     </g>
    </g>
    <g id="ytick_8">
     <g id="line2d_17">
      <g>
       <use style="stroke:#000000;stroke-width:0.8;" x="57.6" xlink:href="#mee2d97f429" y="74.736"/>
      </g>
     </g>
     <g id="text_17">
      <!-- 7.5 -->
      <g transform="translate(34.696875 78.535219)scale(0.1 -0.1)">
       <use xlink:href="#DejaVuSans-37"/>
       <use x="63.623047" xlink:href="#DejaVuSans-2e"/>
       <use x="95.410156" xlink:href="#DejaVuSans-35"/>
      </g>
     </g>
    </g>
    <g id="ytick_9">
     <g id="line2d_18">
      <g>
       <use style="stroke:#000000;stroke-width:0.8;" x="57.6" xlink:href="#mee2d97f429" y="41.472"/>
      </g>
     </g>
     <g id="text_18">
      <!-- 10.0 -->
      <g transform="translate(28.334375 45.271219)scale(0.1 -0.1)">
       <use xlink:href="#DejaVuSans-31"/>
       <use x="63.623047" xlink:href="#DejaVuSans-30"/>
       <use x="127.246094" xlink:href="#DejaVuSans-2e"/>
       <use x="159.033203" xlink:href="#DejaVuSans-30"/>
      </g>
     </g>
    </g>
   </g>
   <g id="patch_3">
    <path d="M 57.6 307.584 
L 57.6 41.472 
" style="fill:none;stroke:#000000;stroke-linecap:square;stroke-linejoin:miter;stroke-width:0.8;"/>
   </g>
   <g id="patch_4">
    <path d="M 414.72 307.584 
L 414.72 41.472 
" style="fill:none;stroke:#000000;stroke-linecap:square;stroke-linejoin:miter;stroke-width:0.8;"/>
   </g>
   <g id="patch_5">
    <path d="M 57.6 307.584 
L 414.72 307.584 
" style="fill:none;stroke:#000000;stroke-linecap:square;stroke-linejoin:miter;stroke-width:0.8;"/>
   </g>
   <g id="patch_6">
    <path d="M 57.6 41.472 
L 414.72 41.472 
" style="fill:none;stroke:#000000;stroke-linecap:square;stroke-linejoin:miter;stroke-width:0.8;"/>
   </g>
  </g>
 </g>
 <defs>
  <clipPath id="p2c7abb73b3">
   <rect height="266.112" width="357.12" x="57.6" y="41.472"/>
  </clipPath>
 </defs>
</svg>
