<?xml version="1.0" encoding="utf-8" standalone="no"?>
<!DOCTYPE svg PUBLIC "-//W3C//DTD SVG 1.1//EN"
  "http://www.w3.org/Graphics/SVG/1.1/DTD/svg11.dtd">
<!-- Created with matplotlib (http://matplotlib.org/) -->
<svg height="345.6pt" version="1.1" viewBox="0 0 460.8 345.6" width="460.8pt" xmlns="http://www.w3.org/2000/svg" xmlns:xlink="http://www.w3.org/1999/xlink">
 <defs>
  <style type="text/css">
*{stroke-linecap:butt;stroke-linejoin:round;}
  </style>
 </defs>
 <g id="figure_1">
  <g id="patch_1">
   <path d="M 0 345.6 
L 460.8 345.6 
L 460.8 0 
L 0 0 
z
" style="fill:#ffffff;"/>
  </g>
  <g id="axes_1">
   <g id="patch_2">
    <path d="M 57.6 307.584 
L 414.72 307.584 
L 414.72 41.472 
L 57.6 41.472 
z
" style="fill:#ffffff;"/>
   </g>
   <g id="PathCollection_1">
    <defs>
     <path d="M 0 0.612372 
C 0.162403 0.612372 0.318176 0.547849 0.433013 0.433013 
C 0.547849 0.318176 0.612372 0.162403 0.612372 0 
C 0.612372 -0.162403 0.547849 -0.318176 0.433013 -0.433013 
C 0.318176 -0.547849 0.162403 -0.612372 0 -0.612372 
C -0.162403 -0.612372 -0.318176 -0.547849 -0.433013 -0.433013 
C -0.547849 -0.318176 -0.612372 -0.162403 -0.612372 0 
C -0.612372 0.162403 -0.547849 0.318176 -0.433013 0.433013 
C -0.318176 0.547849 -0.162403 0.612372 0 0.612372 
z
" id="m5c91281a3f" style="stroke:#000000;"/>
    </defs>
    <g clip-path="url(#p5f62685980)">
     <use style="stroke:#000000;" x="240.020435" xlink:href="#m5c91281a3f" y="174.461319"/>
     <use style="stroke:#000000;" x="240.06288" xlink:href="#m5c91281a3f" y="174.329694"/>
     <use style="stroke:#000000;" x="237.54281" xlink:href="#m5c91281a3f" y="174.528"/>
     <use style="stroke:#000000;" x="237.2222" xlink:href="#m5c91281a3f" y="174.184755"/>
     <use style="stroke:#000000;" x="240.426033" xlink:href="#m5c91281a3f" y="173.284231"/>
     <use style="stroke:#000000;" x="240.308229" xlink:href="#m5c91281a3f" y="174.528"/>
     <use style="stroke:#000000;" x="243.794541" xlink:href="#m5c91281a3f" y="174.41789"/>
     <use style="stroke:#000000;" x="240.332551" xlink:href="#m5c91281a3f" y="173.258971"/>
     <use style="stroke:#000000;" x="240.195628" xlink:href="#m5c91281a3f" y="172.236382"/>
     <use style="stroke:#000000;" x="236.279807" xlink:href="#m5c91281a3f" y="174.528"/>
     <use style="stroke:#000000;" x="236.44117" xlink:href="#m5c91281a3f" y="174.528"/>
     <use style="stroke:#000000;" x="237.164206" xlink:href="#m5c91281a3f" y="173.766972"/>
     <use style="stroke:#000000;" x="236.229153" xlink:href="#m5c91281a3f" y="174.2853"/>
     <use style="stroke:#000000;" x="243.833337" xlink:href="#m5c91281a3f" y="173.123873"/>
     <use style="stroke:#000000;" x="240.226949" xlink:href="#m5c91281a3f" y="173.481338"/>
     <use style="stroke:#000000;" x="243.678029" xlink:href="#m5c91281a3f" y="173.74881"/>
     <use style="stroke:#000000;" x="237.436606" xlink:href="#m5c91281a3f" y="174.528"/>
     <use style="stroke:#000000;" x="236.528243" xlink:href="#m5c91281a3f" y="174.528"/>
     <use style="stroke:#000000;" x="236.834556" xlink:href="#m5c91281a3f" y="174.028134"/>
     <use style="stroke:#000000;" x="240.20781" xlink:href="#m5c91281a3f" y="174.358187"/>
     <use style="stroke:#000000;" x="236.851478" xlink:href="#m5c91281a3f" y="174.017193"/>
     <use style="stroke:#000000;" x="244.072394" xlink:href="#m5c91281a3f" y="174.507401"/>
     <use style="stroke:#000000;" x="240.387111" xlink:href="#m5c91281a3f" y="173.21758"/>
     <use style="stroke:#000000;" x="244.082238" xlink:href="#m5c91281a3f" y="173.667011"/>
     <use style="stroke:#000000;" x="236.256262" xlink:href="#m5c91281a3f" y="174.528"/>
     <use style="stroke:#000000;" x="239.976501" xlink:href="#m5c91281a3f" y="173.168004"/>
     <use style="stroke:#000000;" x="236.16" xlink:href="#m5c91281a3f" y="174.528"/>
     <use style="stroke:#000000;" x="243.976544" xlink:href="#m5c91281a3f" y="173.683779"/>
     <use style="stroke:#000000;" x="244.104721" xlink:href="#m5c91281a3f" y="173.752018"/>
     <use style="stroke:#000000;" x="244.002206" xlink:href="#m5c91281a3f" y="173.931833"/>
     <use style="stroke:#000000;" x="240.731786" xlink:href="#m5c91281a3f" y="172.453177"/>
     <use style="stroke:#000000;" x="240.132499" xlink:href="#m5c91281a3f" y="172.175379"/>
     <use style="stroke:#000000;" x="237.063266" xlink:href="#m5c91281a3f" y="174.528"/>
     <use style="stroke:#000000;" x="240.209176" xlink:href="#m5c91281a3f" y="172.45388"/>
     <use style="stroke:#000000;" x="236.280159" xlink:href="#m5c91281a3f" y="174.528"/>
     <use style="stroke:#000000;" x="236.701085" xlink:href="#m5c91281a3f" y="174.528"/>
     <use style="stroke:#000000;" x="240.667549" xlink:href="#m5c91281a3f" y="172.783916"/>
     <use style="stroke:#000000;" x="243.814691" xlink:href="#m5c91281a3f" y="173.674062"/>
     <use style="stroke:#000000;" x="239.896258" xlink:href="#m5c91281a3f" y="174.183063"/>
     <use style="stroke:#000000;" x="243.926377" xlink:href="#m5c91281a3f" y="173.851495"/>
     <use style="stroke:#000000;" x="236.927452" xlink:href="#m5c91281a3f" y="174.528"/>
     <use style="stroke:#000000;" x="236.162011" xlink:href="#m5c91281a3f" y="174.528"/>
     <use style="stroke:#000000;" x="236.214753" xlink:href="#m5c91281a3f" y="174.306833"/>
     <use style="stroke:#000000;" x="236.7661" xlink:href="#m5c91281a3f" y="174.440553"/>
     <use style="stroke:#000000;" x="243.819586" xlink:href="#m5c91281a3f" y="173.75413"/>
     <use style="stroke:#000000;" x="243.830488" xlink:href="#m5c91281a3f" y="173.907818"/>
     <use style="stroke:#000000;" x="240.892364" xlink:href="#m5c91281a3f" y="172.35424"/>
     <use style="stroke:#000000;" x="240.711887" xlink:href="#m5c91281a3f" y="172.986315"/>
     <use style="stroke:#000000;" x="236.77455" xlink:href="#m5c91281a3f" y="174.528"/>
     <use style="stroke:#000000;" x="240.04307" xlink:href="#m5c91281a3f" y="174.162165"/>
     <use style="stroke:#000000;" x="240.080404" xlink:href="#m5c91281a3f" y="174.528"/>
     <use style="stroke:#000000;" x="240.055049" xlink:href="#m5c91281a3f" y="174.528"/>
     <use style="stroke:#000000;" x="237.231144" xlink:href="#m5c91281a3f" y="174.528"/>
     <use style="stroke:#000000;" x="237.225806" xlink:href="#m5c91281a3f" y="174.118743"/>
     <use style="stroke:#000000;" x="237.34263" xlink:href="#m5c91281a3f" y="174.474671"/>
     <use style="stroke:#000000;" x="239.671793" xlink:href="#m5c91281a3f" y="173.737"/>
     <use style="stroke:#000000;" x="239.922797" xlink:href="#m5c91281a3f" y="172.917583"/>
     <use style="stroke:#000000;" x="236.246809" xlink:href="#m5c91281a3f" y="174.30994"/>
     <use style="stroke:#000000;" x="236.230575" xlink:href="#m5c91281a3f" y="174.204304"/>
     <use style="stroke:#000000;" x="243.768724" xlink:href="#m5c91281a3f" y="174.226324"/>
     <use style="stroke:#000000;" x="243.808632" xlink:href="#m5c91281a3f" y="174.087599"/>
     <use style="stroke:#000000;" x="243.679091" xlink:href="#m5c91281a3f" y="173.775507"/>
     <use style="stroke:#000000;" x="243.709185" xlink:href="#m5c91281a3f" y="173.365329"/>
     <use style="stroke:#000000;" x="236.478806" xlink:href="#m5c91281a3f" y="174.528"/>
     <use style="stroke:#000000;" x="240.312436" xlink:href="#m5c91281a3f" y="174.528"/>
     <use style="stroke:#000000;" x="239.894244" xlink:href="#m5c91281a3f" y="174.528"/>
     <use style="stroke:#000000;" x="236.529881" xlink:href="#m5c91281a3f" y="174.514533"/>
     <use style="stroke:#000000;" x="243.805938" xlink:href="#m5c91281a3f" y="174.045828"/>
     <use style="stroke:#000000;" x="237.666877" xlink:href="#m5c91281a3f" y="174.510313"/>
     <use style="stroke:#000000;" x="240.474355" xlink:href="#m5c91281a3f" y="173.092643"/>
     <use style="stroke:#000000;" x="240.379958" xlink:href="#m5c91281a3f" y="173.622374"/>
     <use style="stroke:#000000;" x="240.34703" xlink:href="#m5c91281a3f" y="174.333833"/>
     <use style="stroke:#000000;" x="236.542444" xlink:href="#m5c91281a3f" y="174.528"/>
     <use style="stroke:#000000;" x="243.856638" xlink:href="#m5c91281a3f" y="174.009766"/>
     <use style="stroke:#000000;" x="236.798359" xlink:href="#m5c91281a3f" y="174.497942"/>
     <use style="stroke:#000000;" x="240.199121" xlink:href="#m5c91281a3f" y="174.528"/>
     <use style="stroke:#000000;" x="237.48779" xlink:href="#m5c91281a3f" y="174.528"/>
     <use style="stroke:#000000;" x="237.480589" xlink:href="#m5c91281a3f" y="174.474236"/>
     <use style="stroke:#000000;" x="243.875101" xlink:href="#m5c91281a3f" y="174.014772"/>
     <use style="stroke:#000000;" x="243.854044" xlink:href="#m5c91281a3f" y="173.86271"/>
     <use style="stroke:#000000;" x="240.055081" xlink:href="#m5c91281a3f" y="174.528"/>
     <use style="stroke:#000000;" x="239.886834" xlink:href="#m5c91281a3f" y="174.528"/>
     <use style="stroke:#000000;" x="240.236107" xlink:href="#m5c91281a3f" y="174.034674"/>
     <use style="stroke:#000000;" x="240.493914" xlink:href="#m5c91281a3f" y="174.528"/>
     <use style="stroke:#000000;" x="240.382307" xlink:href="#m5c91281a3f" y="174.348452"/>
     <use style="stroke:#000000;" x="240.370417" xlink:href="#m5c91281a3f" y="174.320294"/>
     <use style="stroke:#000000;" x="238.113118" xlink:href="#m5c91281a3f" y="174.528"/>
     <use style="stroke:#000000;" x="237.954983" xlink:href="#m5c91281a3f" y="174.528"/>
     <use style="stroke:#000000;" x="237.930982" xlink:href="#m5c91281a3f" y="173.532818"/>
     <use style="stroke:#000000;" x="237.320038" xlink:href="#m5c91281a3f" y="173.971867"/>
     <use style="stroke:#000000;" x="240.842108" xlink:href="#m5c91281a3f" y="173.7733"/>
     <use style="stroke:#000000;" x="239.788909" xlink:href="#m5c91281a3f" y="173.113304"/>
     <use style="stroke:#000000;" x="240.312517" xlink:href="#m5c91281a3f" y="173.449444"/>
     <use style="stroke:#000000;" x="240.081941" xlink:href="#m5c91281a3f" y="174.528"/>
     <use style="stroke:#000000;" x="243.728354" xlink:href="#m5c91281a3f" y="174.528"/>
     <use style="stroke:#000000;" x="243.633845" xlink:href="#m5c91281a3f" y="174.528"/>
     <use style="stroke:#000000;" x="240.805894" xlink:href="#m5c91281a3f" y="173.050834"/>
     <use style="stroke:#000000;" x="239.456217" xlink:href="#m5c91281a3f" y="173.11195"/>
     <use style="stroke:#000000;" x="240.549928" xlink:href="#m5c91281a3f" y="172.188305"/>
     <use style="stroke:#000000;" x="240.219331" xlink:href="#m5c91281a3f" y="171.756348"/>
     <use style="stroke:#000000;" x="236.350487" xlink:href="#m5c91281a3f" y="174.142202"/>
     <use style="stroke:#000000;" x="236.874228" xlink:href="#m5c91281a3f" y="174.528"/>
     <use style="stroke:#000000;" x="236.16" xlink:href="#m5c91281a3f" y="173.598111"/>
     <use style="stroke:#000000;" x="237.233206" xlink:href="#m5c91281a3f" y="174.528"/>
     <use style="stroke:#000000;" x="236.749438" xlink:href="#m5c91281a3f" y="173.007973"/>
     <use style="stroke:#000000;" x="237.048305" xlink:href="#m5c91281a3f" y="173.963661"/>
     <use style="stroke:#000000;" x="236.16" xlink:href="#m5c91281a3f" y="174.528"/>
     <use style="stroke:#000000;" x="236.801034" xlink:href="#m5c91281a3f" y="174.006617"/>
     <use style="stroke:#000000;" x="242.88385" xlink:href="#m5c91281a3f" y="173.175451"/>
     <use style="stroke:#000000;" x="244.159575" xlink:href="#m5c91281a3f" y="172.830844"/>
     <use style="stroke:#000000;" x="240.318031" xlink:href="#m5c91281a3f" y="172.908712"/>
     <use style="stroke:#000000;" x="239.648308" xlink:href="#m5c91281a3f" y="174.071767"/>
     <use style="stroke:#000000;" x="243.254632" xlink:href="#m5c91281a3f" y="173.704705"/>
     <use style="stroke:#000000;" x="244.269409" xlink:href="#m5c91281a3f" y="174.528"/>
     <use style="stroke:#000000;" x="237.498991" xlink:href="#m5c91281a3f" y="174.51279"/>
     <use style="stroke:#000000;" x="237.134918" xlink:href="#m5c91281a3f" y="174.528"/>
     <use style="stroke:#000000;" x="237.320858" xlink:href="#m5c91281a3f" y="173.6851"/>
     <use style="stroke:#000000;" x="237.21817" xlink:href="#m5c91281a3f" y="174.528"/>
     <use style="stroke:#000000;" x="237.813229" xlink:href="#m5c91281a3f" y="173.756052"/>
     <use style="stroke:#000000;" x="237.02039" xlink:href="#m5c91281a3f" y="174.097248"/>
     <use style="stroke:#000000;" x="240.154022" xlink:href="#m5c91281a3f" y="174.528"/>
     <use style="stroke:#000000;" x="240.49999" xlink:href="#m5c91281a3f" y="174.528"/>
     <use style="stroke:#000000;" x="236.679645" xlink:href="#m5c91281a3f" y="174.117909"/>
     <use style="stroke:#000000;" x="237.51616" xlink:href="#m5c91281a3f" y="173.863488"/>
     <use style="stroke:#000000;" x="243.897996" xlink:href="#m5c91281a3f" y="174.528"/>
     <use style="stroke:#000000;" x="243.601235" xlink:href="#m5c91281a3f" y="174.198668"/>
     <use style="stroke:#000000;" x="239.576301" xlink:href="#m5c91281a3f" y="172.985619"/>
     <use style="stroke:#000000;" x="240.315141" xlink:href="#m5c91281a3f" y="173.097622"/>
     <use style="stroke:#000000;" x="243.989091" xlink:href="#m5c91281a3f" y="174.27456"/>
     <use style="stroke:#000000;" x="244.355205" xlink:href="#m5c91281a3f" y="174.528"/>
     <use style="stroke:#000000;" x="243.895931" xlink:href="#m5c91281a3f" y="173.250144"/>
     <use style="stroke:#000000;" x="236.617009" xlink:href="#m5c91281a3f" y="174.203164"/>
     <use style="stroke:#000000;" x="236.591323" xlink:href="#m5c91281a3f" y="174.528"/>
     <use style="stroke:#000000;" x="236.16" xlink:href="#m5c91281a3f" y="174.528"/>
     <use style="stroke:#000000;" x="239.078936" xlink:href="#m5c91281a3f" y="172.852857"/>
     <use style="stroke:#000000;" x="239.49918" xlink:href="#m5c91281a3f" y="172.986431"/>
     <use style="stroke:#000000;" x="238.97019" xlink:href="#m5c91281a3f" y="173.330986"/>
     <use style="stroke:#000000;" x="236.16" xlink:href="#m5c91281a3f" y="174.138628"/>
     <use style="stroke:#000000;" x="236.16" xlink:href="#m5c91281a3f" y="174.528"/>
     <use style="stroke:#000000;" x="236.318182" xlink:href="#m5c91281a3f" y="174.498343"/>
     <use style="stroke:#000000;" x="244.106593" xlink:href="#m5c91281a3f" y="174.086474"/>
     <use style="stroke:#000000;" x="243.954763" xlink:href="#m5c91281a3f" y="173.896875"/>
     <use style="stroke:#000000;" x="243.829686" xlink:href="#m5c91281a3f" y="173.495017"/>
     <use style="stroke:#000000;" x="243.892863" xlink:href="#m5c91281a3f" y="174.096618"/>
     <use style="stroke:#000000;" x="244.123459" xlink:href="#m5c91281a3f" y="173.725047"/>
     <use style="stroke:#000000;" x="243.9667" xlink:href="#m5c91281a3f" y="173.854667"/>
     <use style="stroke:#000000;" x="243.891363" xlink:href="#m5c91281a3f" y="173.835919"/>
     <use style="stroke:#000000;" x="244.110589" xlink:href="#m5c91281a3f" y="174.135521"/>
     <use style="stroke:#000000;" x="244.447214" xlink:href="#m5c91281a3f" y="173.968953"/>
     <use style="stroke:#000000;" x="240.250242" xlink:href="#m5c91281a3f" y="172.332359"/>
     <use style="stroke:#000000;" x="240.62026" xlink:href="#m5c91281a3f" y="172.280363"/>
     <use style="stroke:#000000;" x="240.721798" xlink:href="#m5c91281a3f" y="172.287962"/>
     <use style="stroke:#000000;" x="240.622369" xlink:href="#m5c91281a3f" y="172.216855"/>
     <use style="stroke:#000000;" x="240.087503" xlink:href="#m5c91281a3f" y="171.952166"/>
     <use style="stroke:#000000;" x="240.960531" xlink:href="#m5c91281a3f" y="172.651327"/>
     <use style="stroke:#000000;" x="237.190524" xlink:href="#m5c91281a3f" y="174.528"/>
     <use style="stroke:#000000;" x="237.072487" xlink:href="#m5c91281a3f" y="174.290761"/>
     <use style="stroke:#000000;" x="236.798899" xlink:href="#m5c91281a3f" y="174.528"/>
     <use style="stroke:#000000;" x="240.89012" xlink:href="#m5c91281a3f" y="172.420053"/>
     <use style="stroke:#000000;" x="240.506251" xlink:href="#m5c91281a3f" y="172.248863"/>
     <use style="stroke:#000000;" x="240.212997" xlink:href="#m5c91281a3f" y="172.698381"/>
     <use style="stroke:#000000;" x="236.8862" xlink:href="#m5c91281a3f" y="174.528"/>
     <use style="stroke:#000000;" x="236.16" xlink:href="#m5c91281a3f" y="174.089396"/>
     <use style="stroke:#000000;" x="236.178659" xlink:href="#m5c91281a3f" y="174.528"/>
     <use style="stroke:#000000;" x="236.373364" xlink:href="#m5c91281a3f" y="174.34922"/>
     <use style="stroke:#000000;" x="237.258877" xlink:href="#m5c91281a3f" y="174.528"/>
     <use style="stroke:#000000;" x="237.416681" xlink:href="#m5c91281a3f" y="174.528"/>
     <use style="stroke:#000000;" x="240.572799" xlink:href="#m5c91281a3f" y="173.266877"/>
     <use style="stroke:#000000;" x="240.593259" xlink:href="#m5c91281a3f" y="172.931121"/>
     <use style="stroke:#000000;" x="241.916762" xlink:href="#m5c91281a3f" y="172.694934"/>
     <use style="stroke:#000000;" x="243.841077" xlink:href="#m5c91281a3f" y="173.725338"/>
     <use style="stroke:#000000;" x="243.607125" xlink:href="#m5c91281a3f" y="174.160605"/>
     <use style="stroke:#000000;" x="244.252027" xlink:href="#m5c91281a3f" y="173.867548"/>
     <use style="stroke:#000000;" x="240.057262" xlink:href="#m5c91281a3f" y="174.193108"/>
     <use style="stroke:#000000;" x="239.317978" xlink:href="#m5c91281a3f" y="174.320493"/>
     <use style="stroke:#000000;" x="240.285999" xlink:href="#m5c91281a3f" y="173.904579"/>
     <use style="stroke:#000000;" x="243.991543" xlink:href="#m5c91281a3f" y="174.147776"/>
     <use style="stroke:#000000;" x="244.693771" xlink:href="#m5c91281a3f" y="173.816416"/>
     <use style="stroke:#000000;" x="243.583554" xlink:href="#m5c91281a3f" y="173.623051"/>
     <use style="stroke:#000000;" x="237.062646" xlink:href="#m5c91281a3f" y="174.494582"/>
     <use style="stroke:#000000;" x="237.639697" xlink:href="#m5c91281a3f" y="174.426739"/>
     <use style="stroke:#000000;" x="236.718886" xlink:href="#m5c91281a3f" y="174.489362"/>
     <use style="stroke:#000000;" x="236.434424" xlink:href="#m5c91281a3f" y="174.436643"/>
     <use style="stroke:#000000;" x="236.16" xlink:href="#m5c91281a3f" y="174.528"/>
     <use style="stroke:#000000;" x="236.16" xlink:href="#m5c91281a3f" y="174.528"/>
     <use style="stroke:#000000;" x="236.411558" xlink:href="#m5c91281a3f" y="174.462705"/>
     <use style="stroke:#000000;" x="236.16" xlink:href="#m5c91281a3f" y="174.528"/>
     <use style="stroke:#000000;" x="236.310635" xlink:href="#m5c91281a3f" y="173.561373"/>
     <use style="stroke:#000000;" x="236.52693" xlink:href="#m5c91281a3f" y="174.063583"/>
     <use style="stroke:#000000;" x="236.951167" xlink:href="#m5c91281a3f" y="174.528"/>
     <use style="stroke:#000000;" x="237.114245" xlink:href="#m5c91281a3f" y="174.251401"/>
     <use style="stroke:#000000;" x="243.874934" xlink:href="#m5c91281a3f" y="173.442048"/>
     <use style="stroke:#000000;" x="243.766322" xlink:href="#m5c91281a3f" y="174.021494"/>
     <use style="stroke:#000000;" x="243.540407" xlink:href="#m5c91281a3f" y="174.155831"/>
     <use style="stroke:#000000;" x="243.339499" xlink:href="#m5c91281a3f" y="173.795584"/>
     <use style="stroke:#000000;" x="243.907562" xlink:href="#m5c91281a3f" y="173.646618"/>
     <use style="stroke:#000000;" x="243.871673" xlink:href="#m5c91281a3f" y="173.840111"/>
     <use style="stroke:#000000;" x="241.459091" xlink:href="#m5c91281a3f" y="172.24015"/>
     <use style="stroke:#000000;" x="240.798459" xlink:href="#m5c91281a3f" y="171.992341"/>
     <use style="stroke:#000000;" x="240.84329" xlink:href="#m5c91281a3f" y="172.247137"/>
     <use style="stroke:#000000;" x="241.126094" xlink:href="#m5c91281a3f" y="172.813337"/>
     <use style="stroke:#000000;" x="240.401397" xlink:href="#m5c91281a3f" y="172.887389"/>
     <use style="stroke:#000000;" x="240.734822" xlink:href="#m5c91281a3f" y="173.059845"/>
     <use style="stroke:#000000;" x="236.985656" xlink:href="#m5c91281a3f" y="174.528"/>
     <use style="stroke:#000000;" x="237.003981" xlink:href="#m5c91281a3f" y="174.426104"/>
     <use style="stroke:#000000;" x="236.709138" xlink:href="#m5c91281a3f" y="174.528"/>
     <use style="stroke:#000000;" x="240.695557" xlink:href="#m5c91281a3f" y="174.528"/>
     <use style="stroke:#000000;" x="241.087939" xlink:href="#m5c91281a3f" y="174.162007"/>
     <use style="stroke:#000000;" x="241.317724" xlink:href="#m5c91281a3f" y="173.766208"/>
     <use style="stroke:#000000;" x="241.894063" xlink:href="#m5c91281a3f" y="174.528"/>
     <use style="stroke:#000000;" x="237.696884" xlink:href="#m5c91281a3f" y="174.528"/>
     <use style="stroke:#000000;" x="236.744988" xlink:href="#m5c91281a3f" y="174.167083"/>
     <use style="stroke:#000000;" x="236.16" xlink:href="#m5c91281a3f" y="174.172266"/>
     <use style="stroke:#000000;" x="239.925057" xlink:href="#m5c91281a3f" y="173.742019"/>
     <use style="stroke:#000000;" x="241.393589" xlink:href="#m5c91281a3f" y="172.739033"/>
     <use style="stroke:#000000;" x="237.820135" xlink:href="#m5c91281a3f" y="173.038298"/>
     <use style="stroke:#000000;" x="236.16" xlink:href="#m5c91281a3f" y="174.188635"/>
     <use style="stroke:#000000;" x="243.904093" xlink:href="#m5c91281a3f" y="173.941573"/>
     <use style="stroke:#000000;" x="243.274566" xlink:href="#m5c91281a3f" y="174.141645"/>
     <use style="stroke:#000000;" x="242.762845" xlink:href="#m5c91281a3f" y="173.060925"/>
     <use style="stroke:#000000;" x="243.613693" xlink:href="#m5c91281a3f" y="173.785947"/>
     <use style="stroke:#000000;" x="236.16" xlink:href="#m5c91281a3f" y="173.609139"/>
     <use style="stroke:#000000;" x="236.16" xlink:href="#m5c91281a3f" y="174.358526"/>
     <use style="stroke:#000000;" x="239.728524" xlink:href="#m5c91281a3f" y="174.528"/>
     <use style="stroke:#000000;" x="241.314577" xlink:href="#m5c91281a3f" y="174.468092"/>
     <use style="stroke:#000000;" x="236.390791" xlink:href="#m5c91281a3f" y="174.266962"/>
     <use style="stroke:#000000;" x="244.745353" xlink:href="#m5c91281a3f" y="173.421539"/>
     <use style="stroke:#000000;" x="237.779814" xlink:href="#m5c91281a3f" y="174.012003"/>
     <use style="stroke:#000000;" x="240.901086" xlink:href="#m5c91281a3f" y="172.47047"/>
     <use style="stroke:#000000;" x="240.22854" xlink:href="#m5c91281a3f" y="173.590283"/>
     <use style="stroke:#000000;" x="241.369553" xlink:href="#m5c91281a3f" y="174.528"/>
     <use style="stroke:#000000;" x="236.961093" xlink:href="#m5c91281a3f" y="174.528"/>
     <use style="stroke:#000000;" x="243.773836" xlink:href="#m5c91281a3f" y="173.8539"/>
     <use style="stroke:#000000;" x="236.16" xlink:href="#m5c91281a3f" y="174.399038"/>
     <use style="stroke:#000000;" x="240.782832" xlink:href="#m5c91281a3f" y="174.528"/>
     <use style="stroke:#000000;" x="237.313613" xlink:href="#m5c91281a3f" y="174.306867"/>
     <use style="stroke:#000000;" x="236.982285" xlink:href="#m5c91281a3f" y="174.528"/>
     <use style="stroke:#000000;" x="238.559345" xlink:href="#m5c91281a3f" y="174.528"/>
     <use style="stroke:#000000;" x="243.745848" xlink:href="#m5c91281a3f" y="173.124344"/>
     <use style="stroke:#000000;" x="244.225717" xlink:href="#m5c91281a3f" y="174.493177"/>
     <use style="stroke:#000000;" x="244.037517" xlink:href="#m5c91281a3f" y="172.932852"/>
    </g>
   </g>
   <g id="PathCollection_2">
    <defs>
     <path d="M 0 0.935414 
C 0.248075 0.935414 0.486022 0.836853 0.661438 0.661438 
C 0.836853 0.486022 0.935414 0.248075 0.935414 0 
C 0.935414 -0.248075 0.836853 -0.486022 0.661438 -0.661438 
C 0.486022 -0.836853 0.248075 -0.935414 0 -0.935414 
C -0.248075 -0.935414 -0.486022 -0.836853 -0.661438 -0.661438 
C -0.836853 -0.486022 -0.935414 -0.248075 -0.935414 0 
C -0.935414 0.248075 -0.836853 0.486022 -0.661438 0.661438 
C -0.486022 0.836853 -0.248075 0.935414 0 0.935414 
z
" id="m9a704a2ce2" style="stroke:#0000ff;"/>
    </defs>
    <g clip-path="url(#p5f62685980)">
     <use style="fill:#0000ff;stroke:#0000ff;" x="240.020435" xlink:href="#m9a704a2ce2" y="174.461319"/>
     <use style="fill:#0000ff;stroke:#0000ff;" x="240.06288" xlink:href="#m9a704a2ce2" y="174.329694"/>
     <use style="fill:#0000ff;stroke:#0000ff;" x="237.54281" xlink:href="#m9a704a2ce2" y="174.528"/>
     <use style="fill:#0000ff;stroke:#0000ff;" x="237.2222" xlink:href="#m9a704a2ce2" y="174.184755"/>
     <use style="fill:#0000ff;stroke:#0000ff;" x="240.426033" xlink:href="#m9a704a2ce2" y="173.284231"/>
     <use style="fill:#0000ff;stroke:#0000ff;" x="240.308229" xlink:href="#m9a704a2ce2" y="174.528"/>
     <use style="fill:#0000ff;stroke:#0000ff;" x="243.794541" xlink:href="#m9a704a2ce2" y="174.41789"/>
     <use style="fill:#0000ff;stroke:#0000ff;" x="240.332551" xlink:href="#m9a704a2ce2" y="173.258971"/>
     <use style="fill:#0000ff;stroke:#0000ff;" x="240.195628" xlink:href="#m9a704a2ce2" y="172.236382"/>
     <use style="fill:#0000ff;stroke:#0000ff;" x="236.279807" xlink:href="#m9a704a2ce2" y="174.528"/>
     <use style="fill:#0000ff;stroke:#0000ff;" x="236.44117" xlink:href="#m9a704a2ce2" y="174.528"/>
     <use style="fill:#0000ff;stroke:#0000ff;" x="237.164206" xlink:href="#m9a704a2ce2" y="173.766972"/>
     <use style="fill:#0000ff;stroke:#0000ff;" x="236.229153" xlink:href="#m9a704a2ce2" y="174.2853"/>
     <use style="fill:#0000ff;stroke:#0000ff;" x="243.833337" xlink:href="#m9a704a2ce2" y="173.123873"/>
     <use style="fill:#0000ff;stroke:#0000ff;" x="240.226949" xlink:href="#m9a704a2ce2" y="173.481338"/>
     <use style="fill:#0000ff;stroke:#0000ff;" x="243.678029" xlink:href="#m9a704a2ce2" y="173.74881"/>
     <use style="fill:#0000ff;stroke:#0000ff;" x="237.436606" xlink:href="#m9a704a2ce2" y="174.528"/>
     <use style="fill:#0000ff;stroke:#0000ff;" x="236.528243" xlink:href="#m9a704a2ce2" y="174.528"/>
     <use style="fill:#0000ff;stroke:#0000ff;" x="236.834556" xlink:href="#m9a704a2ce2" y="174.028134"/>
     <use style="fill:#0000ff;stroke:#0000ff;" x="240.20781" xlink:href="#m9a704a2ce2" y="174.358187"/>
     <use style="fill:#0000ff;stroke:#0000ff;" x="236.851478" xlink:href="#m9a704a2ce2" y="174.017193"/>
     <use style="fill:#0000ff;stroke:#0000ff;" x="244.072394" xlink:href="#m9a704a2ce2" y="174.507401"/>
     <use style="fill:#0000ff;stroke:#0000ff;" x="240.387111" xlink:href="#m9a704a2ce2" y="173.21758"/>
     <use style="fill:#0000ff;stroke:#0000ff;" x="244.082238" xlink:href="#m9a704a2ce2" y="173.667011"/>
     <use style="fill:#0000ff;stroke:#0000ff;" x="236.256262" xlink:href="#m9a704a2ce2" y="174.528"/>
     <use style="fill:#0000ff;stroke:#0000ff;" x="239.976501" xlink:href="#m9a704a2ce2" y="173.168004"/>
     <use style="fill:#0000ff;stroke:#0000ff;" x="236.16" xlink:href="#m9a704a2ce2" y="174.528"/>
     <use style="fill:#0000ff;stroke:#0000ff;" x="243.976544" xlink:href="#m9a704a2ce2" y="173.683779"/>
     <use style="fill:#0000ff;stroke:#0000ff;" x="244.104721" xlink:href="#m9a704a2ce2" y="173.752018"/>
     <use style="fill:#0000ff;stroke:#0000ff;" x="244.002206" xlink:href="#m9a704a2ce2" y="173.931833"/>
     <use style="fill:#0000ff;stroke:#0000ff;" x="240.731786" xlink:href="#m9a704a2ce2" y="172.453177"/>
     <use style="fill:#0000ff;stroke:#0000ff;" x="240.132499" xlink:href="#m9a704a2ce2" y="172.175379"/>
     <use style="fill:#0000ff;stroke:#0000ff;" x="237.063266" xlink:href="#m9a704a2ce2" y="174.528"/>
     <use style="fill:#0000ff;stroke:#0000ff;" x="240.209176" xlink:href="#m9a704a2ce2" y="172.45388"/>
     <use style="fill:#0000ff;stroke:#0000ff;" x="236.280159" xlink:href="#m9a704a2ce2" y="174.528"/>
     <use style="fill:#0000ff;stroke:#0000ff;" x="236.701085" xlink:href="#m9a704a2ce2" y="174.528"/>
     <use style="fill:#0000ff;stroke:#0000ff;" x="240.667549" xlink:href="#m9a704a2ce2" y="172.783916"/>
     <use style="fill:#0000ff;stroke:#0000ff;" x="243.814691" xlink:href="#m9a704a2ce2" y="173.674062"/>
     <use style="fill:#0000ff;stroke:#0000ff;" x="239.896258" xlink:href="#m9a704a2ce2" y="174.183063"/>
     <use style="fill:#0000ff;stroke:#0000ff;" x="243.926377" xlink:href="#m9a704a2ce2" y="173.851495"/>
     <use style="fill:#0000ff;stroke:#0000ff;" x="236.927452" xlink:href="#m9a704a2ce2" y="174.528"/>
     <use style="fill:#0000ff;stroke:#0000ff;" x="236.162011" xlink:href="#m9a704a2ce2" y="174.528"/>
     <use style="fill:#0000ff;stroke:#0000ff;" x="236.214753" xlink:href="#m9a704a2ce2" y="174.306833"/>
     <use style="fill:#0000ff;stroke:#0000ff;" x="236.7661" xlink:href="#m9a704a2ce2" y="174.440553"/>
     <use style="fill:#0000ff;stroke:#0000ff;" x="243.819586" xlink:href="#m9a704a2ce2" y="173.75413"/>
     <use style="fill:#0000ff;stroke:#0000ff;" x="243.830488" xlink:href="#m9a704a2ce2" y="173.907818"/>
     <use style="fill:#0000ff;stroke:#0000ff;" x="240.892364" xlink:href="#m9a704a2ce2" y="172.35424"/>
     <use style="fill:#0000ff;stroke:#0000ff;" x="240.711887" xlink:href="#m9a704a2ce2" y="172.986315"/>
     <use style="fill:#0000ff;stroke:#0000ff;" x="236.77455" xlink:href="#m9a704a2ce2" y="174.528"/>
     <use style="fill:#0000ff;stroke:#0000ff;" x="240.04307" xlink:href="#m9a704a2ce2" y="174.162165"/>
     <use style="fill:#0000ff;stroke:#0000ff;" x="240.080404" xlink:href="#m9a704a2ce2" y="174.528"/>
     <use style="fill:#0000ff;stroke:#0000ff;" x="240.055049" xlink:href="#m9a704a2ce2" y="174.528"/>
     <use style="fill:#0000ff;stroke:#0000ff;" x="237.231144" xlink:href="#m9a704a2ce2" y="174.528"/>
     <use style="fill:#0000ff;stroke:#0000ff;" x="237.225806" xlink:href="#m9a704a2ce2" y="174.118743"/>
     <use style="fill:#0000ff;stroke:#0000ff;" x="237.34263" xlink:href="#m9a704a2ce2" y="174.474671"/>
     <use style="fill:#0000ff;stroke:#0000ff;" x="239.671793" xlink:href="#m9a704a2ce2" y="173.737"/>
     <use style="fill:#0000ff;stroke:#0000ff;" x="239.922797" xlink:href="#m9a704a2ce2" y="172.917583"/>
     <use style="fill:#0000ff;stroke:#0000ff;" x="236.246809" xlink:href="#m9a704a2ce2" y="174.30994"/>
     <use style="fill:#0000ff;stroke:#0000ff;" x="236.230575" xlink:href="#m9a704a2ce2" y="174.204304"/>
     <use style="fill:#0000ff;stroke:#0000ff;" x="243.768724" xlink:href="#m9a704a2ce2" y="174.226324"/>
     <use style="fill:#0000ff;stroke:#0000ff;" x="243.808632" xlink:href="#m9a704a2ce2" y="174.087599"/>
     <use style="fill:#0000ff;stroke:#0000ff;" x="243.679091" xlink:href="#m9a704a2ce2" y="173.775507"/>
     <use style="fill:#0000ff;stroke:#0000ff;" x="243.709185" xlink:href="#m9a704a2ce2" y="173.365329"/>
     <use style="fill:#0000ff;stroke:#0000ff;" x="236.478806" xlink:href="#m9a704a2ce2" y="174.528"/>
     <use style="fill:#0000ff;stroke:#0000ff;" x="240.312436" xlink:href="#m9a704a2ce2" y="174.528"/>
     <use style="fill:#0000ff;stroke:#0000ff;" x="239.894244" xlink:href="#m9a704a2ce2" y="174.528"/>
     <use style="fill:#0000ff;stroke:#0000ff;" x="236.529881" xlink:href="#m9a704a2ce2" y="174.514533"/>
     <use style="fill:#0000ff;stroke:#0000ff;" x="243.805938" xlink:href="#m9a704a2ce2" y="174.045828"/>
     <use style="fill:#0000ff;stroke:#0000ff;" x="237.666877" xlink:href="#m9a704a2ce2" y="174.510313"/>
     <use style="fill:#0000ff;stroke:#0000ff;" x="240.474355" xlink:href="#m9a704a2ce2" y="173.092643"/>
     <use style="fill:#0000ff;stroke:#0000ff;" x="240.379958" xlink:href="#m9a704a2ce2" y="173.622374"/>
     <use style="fill:#0000ff;stroke:#0000ff;" x="240.34703" xlink:href="#m9a704a2ce2" y="174.333833"/>
     <use style="fill:#0000ff;stroke:#0000ff;" x="236.542444" xlink:href="#m9a704a2ce2" y="174.528"/>
     <use style="fill:#0000ff;stroke:#0000ff;" x="243.856638" xlink:href="#m9a704a2ce2" y="174.009766"/>
     <use style="fill:#0000ff;stroke:#0000ff;" x="236.798359" xlink:href="#m9a704a2ce2" y="174.497942"/>
     <use style="fill:#0000ff;stroke:#0000ff;" x="240.199121" xlink:href="#m9a704a2ce2" y="174.528"/>
     <use style="fill:#0000ff;stroke:#0000ff;" x="237.48779" xlink:href="#m9a704a2ce2" y="174.528"/>
     <use style="fill:#0000ff;stroke:#0000ff;" x="237.480589" xlink:href="#m9a704a2ce2" y="174.474236"/>
     <use style="fill:#0000ff;stroke:#0000ff;" x="243.875101" xlink:href="#m9a704a2ce2" y="174.014772"/>
     <use style="fill:#0000ff;stroke:#0000ff;" x="243.854044" xlink:href="#m9a704a2ce2" y="173.86271"/>
    </g>
   </g>
   <g id="matplotlib.axis_1">
    <g id="xtick_1">
     <g id="line2d_1">
      <defs>
       <path d="M 0 0 
L 0 3.5 
" id="m426e738a6f" style="stroke:#000000;stroke-width:0.8;"/>
      </defs>
      <g>
       <use style="stroke:#000000;stroke-width:0.8;" x="57.6" xlink:href="#m426e738a6f" y="307.584"/>
      </g>
     </g>
     <g id="text_1">
      <!-- −10.0 -->
      <defs>
       <path d="M 10.59375 35.5 
L 73.1875 35.5 
L 73.1875 27.203125 
L 10.59375 27.203125 
z
" id="DejaVuSans-2212"/>
       <path d="M 12.40625 8.296875 
L 28.515625 8.296875 
L 28.515625 63.921875 
L 10.984375 60.40625 
L 10.984375 69.390625 
L 28.421875 72.90625 
L 38.28125 72.90625 
L 38.28125 8.296875 
L 54.390625 8.296875 
L 54.390625 0 
L 12.40625 0 
z
" id="DejaVuSans-31"/>
       <path d="M 31.78125 66.40625 
Q 24.171875 66.40625 20.328125 58.90625 
Q 16.5 51.421875 16.5 36.375 
Q 16.5 21.390625 20.328125 13.890625 
Q 24.171875 6.390625 31.78125 6.390625 
Q 39.453125 6.390625 43.28125 13.890625 
Q 47.125 21.390625 47.125 36.375 
Q 47.125 51.421875 43.28125 58.90625 
Q 39.453125 66.40625 31.78125 66.40625 
z
M 31.78125 74.21875 
Q 44.046875 74.21875 50.515625 64.515625 
Q 56.984375 54.828125 56.984375 36.375 
Q 56.984375 17.96875 50.515625 8.265625 
Q 44.046875 -1.421875 31.78125 -1.421875 
Q 19.53125 -1.421875 13.0625 8.265625 
Q 6.59375 17.96875 6.59375 36.375 
Q 6.59375 54.828125 13.0625 64.515625 
Q 19.53125 74.21875 31.78125 74.21875 
z
" id="DejaVuSans-30"/>
       <path d="M 10.6875 12.40625 
L 21 12.40625 
L 21 0 
L 10.6875 0 
z
" id="DejaVuSans-2e"/>
      </defs>
      <g transform="translate(42.277344 322.182437)scale(0.1 -0.1)">
       <use xlink:href="#DejaVuSans-2212"/>
       <use x="83.789062" xlink:href="#DejaVuSans-31"/>
       <use x="147.412109" xlink:href="#DejaVuSans-30"/>
       <use x="211.035156" xlink:href="#DejaVuSans-2e"/>
       <use x="242.822266" xlink:href="#DejaVuSans-30"/>
      </g>
     </g>
    </g>
    <g id="xtick_2">
     <g id="line2d_2">
      <g>
       <use style="stroke:#000000;stroke-width:0.8;" x="102.24" xlink:href="#m426e738a6f" y="307.584"/>
      </g>
     </g>
     <g id="text_2">
      <!-- −7.5 -->
      <defs>
       <path d="M 8.203125 72.90625 
L 55.078125 72.90625 
L 55.078125 68.703125 
L 28.609375 0 
L 18.3125 0 
L 43.21875 64.59375 
L 8.203125 64.59375 
z
" id="DejaVuSans-37"/>
       <path d="M 10.796875 72.90625 
L 49.515625 72.90625 
L 49.515625 64.59375 
L 19.828125 64.59375 
L 19.828125 46.734375 
Q 21.96875 47.46875 24.109375 47.828125 
Q 26.265625 48.1875 28.421875 48.1875 
Q 40.625 48.1875 47.75 41.5 
Q 54.890625 34.8125 54.890625 23.390625 
Q 54.890625 11.625 47.5625 5.09375 
Q 40.234375 -1.421875 26.90625 -1.421875 
Q 22.3125 -1.421875 17.546875 -0.640625 
Q 12.796875 0.140625 7.71875 1.703125 
L 7.71875 11.625 
Q 12.109375 9.234375 16.796875 8.0625 
Q 21.484375 6.890625 26.703125 6.890625 
Q 35.15625 6.890625 40.078125 11.328125 
Q 45.015625 15.765625 45.015625 23.390625 
Q 45.015625 31 40.078125 35.4375 
Q 35.15625 39.890625 26.703125 39.890625 
Q 22.75 39.890625 18.8125 39.015625 
Q 14.890625 38.140625 10.796875 36.28125 
z
" id="DejaVuSans-35"/>
      </defs>
      <g transform="translate(90.098594 322.182437)scale(0.1 -0.1)">
       <use xlink:href="#DejaVuSans-2212"/>
       <use x="83.789062" xlink:href="#DejaVuSans-37"/>
       <use x="147.412109" xlink:href="#DejaVuSans-2e"/>
       <use x="179.199219" xlink:href="#DejaVuSans-35"/>
      </g>
     </g>
    </g>
    <g id="xtick_3">
     <g id="line2d_3">
      <g>
       <use style="stroke:#000000;stroke-width:0.8;" x="146.88" xlink:href="#m426e738a6f" y="307.584"/>
      </g>
     </g>
     <g id="text_3">
      <!-- −5.0 -->
      <g transform="translate(134.738594 322.182437)scale(0.1 -0.1)">
       <use xlink:href="#DejaVuSans-2212"/>
       <use x="83.789062" xlink:href="#DejaVuSans-35"/>
       <use x="147.412109" xlink:href="#DejaVuSans-2e"/>
       <use x="179.199219" xlink:href="#DejaVuSans-30"/>
      </g>
     </g>
    </g>
    <g id="xtick_4">
     <g id="line2d_4">
      <g>
       <use style="stroke:#000000;stroke-width:0.8;" x="191.52" xlink:href="#m426e738a6f" y="307.584"/>
      </g>
     </g>
     <g id="text_4">
      <!-- −2.5 -->
      <defs>
       <path d="M 19.1875 8.296875 
L 53.609375 8.296875 
L 53.609375 0 
L 7.328125 0 
L 7.328125 8.296875 
Q 12.9375 14.109375 22.625 23.890625 
Q 32.328125 33.6875 34.8125 36.53125 
Q 39.546875 41.84375 41.421875 45.53125 
Q 43.3125 49.21875 43.3125 52.78125 
Q 43.3125 58.59375 39.234375 62.25 
Q 35.15625 65.921875 28.609375 65.921875 
Q 23.96875 65.921875 18.8125 64.3125 
Q 13.671875 62.703125 7.8125 59.421875 
L 7.8125 69.390625 
Q 13.765625 71.78125 18.9375 73 
Q 24.125 74.21875 28.421875 74.21875 
Q 39.75 74.21875 46.484375 68.546875 
Q 53.21875 62.890625 53.21875 53.421875 
Q 53.21875 48.921875 51.53125 44.890625 
Q 49.859375 40.875 45.40625 35.40625 
Q 44.1875 33.984375 37.640625 27.21875 
Q 31.109375 20.453125 19.1875 8.296875 
z
" id="DejaVuSans-32"/>
      </defs>
      <g transform="translate(179.378594 322.182437)scale(0.1 -0.1)">
       <use xlink:href="#DejaVuSans-2212"/>
       <use x="83.789062" xlink:href="#DejaVuSans-32"/>
       <use x="147.412109" xlink:href="#DejaVuSans-2e"/>
       <use x="179.199219" xlink:href="#DejaVuSans-35"/>
      </g>
     </g>
    </g>
    <g id="xtick_5">
     <g id="line2d_5">
      <g>
       <use style="stroke:#000000;stroke-width:0.8;" x="236.16" xlink:href="#m426e738a6f" y="307.584"/>
      </g>
     </g>
     <g id="text_5">
      <!-- 0.0 -->
      <g transform="translate(228.208438 322.182437)scale(0.1 -0.1)">
       <use xlink:href="#DejaVuSans-30"/>
       <use x="63.623047" xlink:href="#DejaVuSans-2e"/>
       <use x="95.410156" xlink:href="#DejaVuSans-30"/>
      </g>
     </g>
    </g>
    <g id="xtick_6">
     <g id="line2d_6">
      <g>
       <use style="stroke:#000000;stroke-width:0.8;" x="280.8" xlink:href="#m426e738a6f" y="307.584"/>
      </g>
     </g>
     <g id="text_6">
      <!-- 2.5 -->
      <g transform="translate(272.848437 322.182437)scale(0.1 -0.1)">
       <use xlink:href="#DejaVuSans-32"/>
       <use x="63.623047" xlink:href="#DejaVuSans-2e"/>
       <use x="95.410156" xlink:href="#DejaVuSans-35"/>
      </g>
     </g>
    </g>
    <g id="xtick_7">
     <g id="line2d_7">
      <g>
       <use style="stroke:#000000;stroke-width:0.8;" x="325.44" xlink:href="#m426e738a6f" y="307.584"/>
      </g>
     </g>
     <g id="text_7">
      <!-- 5.0 -->
      <g transform="translate(317.488437 322.182437)scale(0.1 -0.1)">
       <use xlink:href="#DejaVuSans-35"/>
       <use x="63.623047" xlink:href="#DejaVuSans-2e"/>
       <use x="95.410156" xlink:href="#DejaVuSans-30"/>
      </g>
     </g>
    </g>
    <g id="xtick_8">
     <g id="line2d_8">
      <g>
       <use style="stroke:#000000;stroke-width:0.8;" x="370.08" xlink:href="#m426e738a6f" y="307.584"/>
      </g>
     </g>
     <g id="text_8">
      <!-- 7.5 -->
      <g transform="translate(362.128438 322.182437)scale(0.1 -0.1)">
       <use xlink:href="#DejaVuSans-37"/>
       <use x="63.623047" xlink:href="#DejaVuSans-2e"/>
       <use x="95.410156" xlink:href="#DejaVuSans-35"/>
      </g>
     </g>
    </g>
    <g id="xtick_9">
     <g id="line2d_9">
      <g>
       <use style="stroke:#000000;stroke-width:0.8;" x="414.72" xlink:href="#m426e738a6f" y="307.584"/>
      </g>
     </g>
     <g id="text_9">
      <!-- 10.0 -->
      <g transform="translate(403.587188 322.182437)scale(0.1 -0.1)">
       <use xlink:href="#DejaVuSans-31"/>
       <use x="63.623047" xlink:href="#DejaVuSans-30"/>
       <use x="127.246094" xlink:href="#DejaVuSans-2e"/>
       <use x="159.033203" xlink:href="#DejaVuSans-30"/>
      </g>
     </g>
    </g>
   </g>
   <g id="matplotlib.axis_2">
    <g id="ytick_1">
     <g id="line2d_10">
      <defs>
       <path d="M 0 0 
L -3.5 0 
" id="m7d7eb588f4" style="stroke:#000000;stroke-width:0.8;"/>
      </defs>
      <g>
       <use style="stroke:#000000;stroke-width:0.8;" x="57.6" xlink:href="#m7d7eb588f4" y="307.584"/>
      </g>
     </g>
     <g id="text_10">
      <!-- −10.0 -->
      <g transform="translate(19.954687 311.383219)scale(0.1 -0.1)">
       <use xlink:href="#DejaVuSans-2212"/>
       <use x="83.789062" xlink:href="#DejaVuSans-31"/>
       <use x="147.412109" xlink:href="#DejaVuSans-30"/>
       <use x="211.035156" xlink:href="#DejaVuSans-2e"/>
       <use x="242.822266" xlink:href="#DejaVuSans-30"/>
      </g>
     </g>
    </g>
    <g id="ytick_2">
     <g id="line2d_11">
      <g>
       <use style="stroke:#000000;stroke-width:0.8;" x="57.6" xlink:href="#m7d7eb588f4" y="274.32"/>
      </g>
     </g>
     <g id="text_11">
      <!-- −7.5 -->
      <g transform="translate(26.317187 278.119219)scale(0.1 -0.1)">
       <use xlink:href="#DejaVuSans-2212"/>
       <use x="83.789062" xlink:href="#DejaVuSans-37"/>
       <use x="147.412109" xlink:href="#DejaVuSans-2e"/>
       <use x="179.199219" xlink:href="#DejaVuSans-35"/>
      </g>
     </g>
    </g>
    <g id="ytick_3">
     <g id="line2d_12">
      <g>
       <use style="stroke:#000000;stroke-width:0.8;" x="57.6" xlink:href="#m7d7eb588f4" y="241.056"/>
      </g>
     </g>
     <g id="text_12">
      <!-- −5.0 -->
      <g transform="translate(26.317187 244.855219)scale(0.1 -0.1)">
       <use xlink:href="#DejaVuSans-2212"/>
       <use x="83.789062" xlink:href="#DejaVuSans-35"/>
       <use x="147.412109" xlink:href="#DejaVuSans-2e"/>
       <use x="179.199219" xlink:href="#DejaVuSans-30"/>
      </g>
     </g>
    </g>
    <g id="ytick_4">
     <g id="line2d_13">
      <g>
       <use style="stroke:#000000;stroke-width:0.8;" x="57.6" xlink:href="#m7d7eb588f4" y="207.792"/>
      </g>
     </g>
     <g id="text_13">
      <!-- −2.5 -->
      <g transform="translate(26.317187 211.591219)scale(0.1 -0.1)">
       <use xlink:href="#DejaVuSans-2212"/>
       <use x="83.789062" xlink:href="#DejaVuSans-32"/>
       <use x="147.412109" xlink:href="#DejaVuSans-2e"/>
       <use x="179.199219" xlink:href="#DejaVuSans-35"/>
      </g>
     </g>
    </g>
    <g id="ytick_5">
     <g id="line2d_14">
      <g>
       <use style="stroke:#000000;stroke-width:0.8;" x="57.6" xlink:href="#m7d7eb588f4" y="174.528"/>
      </g>
     </g>
     <g id="text_14">
      <!-- 0.0 -->
      <g transform="translate(34.696875 178.327219)scale(0.1 -0.1)">
       <use xlink:href="#DejaVuSans-30"/>
       <use x="63.623047" xlink:href="#DejaVuSans-2e"/>
       <use x="95.410156" xlink:href="#DejaVuSans-30"/>
      </g>
     </g>
    </g>
    <g id="ytick_6">
     <g id="line2d_15">
      <g>
       <use style="stroke:#000000;stroke-width:0.8;" x="57.6" xlink:href="#m7d7eb588f4" y="141.264"/>
      </g>
     </g>
     <g id="text_15">
      <!-- 2.5 -->
      <g transform="translate(34.696875 145.063219)scale(0.1 -0.1)">
       <use xlink:href="#DejaVuSans-32"/>
       <use x="63.623047" xlink:href="#DejaVuSans-2e"/>
       <use x="95.410156" xlink:href="#DejaVuSans-35"/>
      </g>
     </g>
    </g>
    <g id="ytick_7">
     <g id="line2d_16">
      <g>
       <use style="stroke:#000000;stroke-width:0.8;" x="57.6" xlink:href="#m7d7eb588f4" y="108"/>
      </g>
     </g>
     <g id="text_16">
      <!-- 5.0 -->
      <g transform="translate(34.696875 111.799219)scale(0.1 -0.1)">
       <use xlink:href="#DejaVuSans-35"/>
       <use x="63.623047" xlink:href="#DejaVuSans-2e"/>
       <use x="95.410156" xlink:href="#DejaVuSans-30"/>
      </g>
     </g>
    </g>
    <g id="ytick_8">
     <g id="line2d_17">
      <g>
       <use style="stroke:#000000;stroke-width:0.8;" x="57.6" xlink:href="#m7d7eb588f4" y="74.736"/>
      </g>
     </g>
     <g id="text_17">
      <!-- 7.5 -->
      <g transform="translate(34.696875 78.535219)scale(0.1 -0.1)">
       <use xlink:href="#DejaVuSans-37"/>
       <use x="63.623047" xlink:href="#DejaVuSans-2e"/>
       <use x="95.410156" xlink:href="#DejaVuSans-35"/>
      </g>
     </g>
    </g>
    <g id="ytick_9">
     <g id="line2d_18">
      <g>
       <use style="stroke:#000000;stroke-width:0.8;" x="57.6" xlink:href="#m7d7eb588f4" y="41.472"/>
      </g>
     </g>
     <g id="text_18">
      <!-- 10.0 -->
      <g transform="translate(28.334375 45.271219)scale(0.1 -0.1)">
       <use xlink:href="#DejaVuSans-31"/>
       <use x="63.623047" xlink:href="#DejaVuSans-30"/>
       <use x="127.246094" xlink:href="#DejaVuSans-2e"/>
       <use x="159.033203" xlink:href="#DejaVuSans-30"/>
      </g>
     </g>
    </g>
   </g>
   <g id="patch_3">
    <path d="M 57.6 307.584 
L 57.6 41.472 
" style="fill:none;stroke:#000000;stroke-linecap:square;stroke-linejoin:miter;stroke-width:0.8;"/>
   </g>
   <g id="patch_4">
    <path d="M 414.72 307.584 
L 414.72 41.472 
" style="fill:none;stroke:#000000;stroke-linecap:square;stroke-linejoin:miter;stroke-width:0.8;"/>
   </g>
   <g id="patch_5">
    <path d="M 57.6 307.584 
L 414.72 307.584 
" style="fill:none;stroke:#000000;stroke-linecap:square;stroke-linejoin:miter;stroke-width:0.8;"/>
   </g>
   <g id="patch_6">
    <path d="M 57.6 41.472 
L 414.72 41.472 
" style="fill:none;stroke:#000000;stroke-linecap:square;stroke-linejoin:miter;stroke-width:0.8;"/>
   </g>
  </g>
 </g>
 <defs>
  <clipPath id="p5f62685980">
   <rect height="266.112" width="357.12" x="57.6" y="41.472"/>
  </clipPath>
 </defs>
</svg>
