<?xml version="1.0" encoding="utf-8" standalone="no"?>
<!DOCTYPE svg PUBLIC "-//W3C//DTD SVG 1.1//EN"
  "http://www.w3.org/Graphics/SVG/1.1/DTD/svg11.dtd">
<!-- Created with matplotlib (http://matplotlib.org/) -->
<svg height="345.6pt" version="1.1" viewBox="0 0 460.8 345.6" width="460.8pt" xmlns="http://www.w3.org/2000/svg" xmlns:xlink="http://www.w3.org/1999/xlink">
 <defs>
  <style type="text/css">
*{stroke-linecap:butt;stroke-linejoin:round;}
  </style>
 </defs>
 <g id="figure_1">
  <g id="patch_1">
   <path d="M 0 345.6 
L 460.8 345.6 
L 460.8 0 
L 0 0 
z
" style="fill:#ffffff;"/>
  </g>
  <g id="axes_1">
   <g id="patch_2">
    <path d="M 57.6 307.584 
L 414.72 307.584 
L 414.72 41.472 
L 57.6 41.472 
z
" style="fill:#ffffff;"/>
   </g>
   <g id="PathCollection_1">
    <defs>
     <path d="M 0 0.612372 
C 0.162403 0.612372 0.318176 0.547849 0.433013 0.433013 
C 0.547849 0.318176 0.612372 0.162403 0.612372 0 
C 0.612372 -0.162403 0.547849 -0.318176 0.433013 -0.433013 
C 0.318176 -0.547849 0.162403 -0.612372 0 -0.612372 
C -0.162403 -0.612372 -0.318176 -0.547849 -0.433013 -0.433013 
C -0.547849 -0.318176 -0.612372 -0.162403 -0.612372 0 
C -0.612372 0.162403 -0.547849 0.318176 -0.433013 0.433013 
C -0.318176 0.547849 -0.162403 0.612372 0 0.612372 
z
" id="m1e9fb140da" style="stroke:#000000;"/>
    </defs>
    <g clip-path="url(#pa09477c72a)">
     <use style="stroke:#000000;" x="244.098742" xlink:href="#m1e9fb140da" y="173.351727"/>
     <use style="stroke:#000000;" x="240.83997" xlink:href="#m1e9fb140da" y="174.528"/>
     <use style="stroke:#000000;" x="239.812074" xlink:href="#m1e9fb140da" y="174.28358"/>
     <use style="stroke:#000000;" x="240.611188" xlink:href="#m1e9fb140da" y="173.714973"/>
     <use style="stroke:#000000;" x="240.005563" xlink:href="#m1e9fb140da" y="174.528"/>
     <use style="stroke:#000000;" x="236.328014" xlink:href="#m1e9fb140da" y="172.833433"/>
     <use style="stroke:#000000;" x="244.220199" xlink:href="#m1e9fb140da" y="173.32036"/>
     <use style="stroke:#000000;" x="239.842311" xlink:href="#m1e9fb140da" y="174.528"/>
     <use style="stroke:#000000;" x="240.336025" xlink:href="#m1e9fb140da" y="174.254521"/>
     <use style="stroke:#000000;" x="247.644438" xlink:href="#m1e9fb140da" y="173.731952"/>
     <use style="stroke:#000000;" x="251.432797" xlink:href="#m1e9fb140da" y="173.385155"/>
     <use style="stroke:#000000;" x="239.790388" xlink:href="#m1e9fb140da" y="174.085641"/>
     <use style="stroke:#000000;" x="236.219899" xlink:href="#m1e9fb140da" y="174.352882"/>
     <use style="stroke:#000000;" x="251.177729" xlink:href="#m1e9fb140da" y="172.576801"/>
     <use style="stroke:#000000;" x="251.213187" xlink:href="#m1e9fb140da" y="172.881716"/>
     <use style="stroke:#000000;" x="251.033444" xlink:href="#m1e9fb140da" y="174.016096"/>
     <use style="stroke:#000000;" x="243.907923" xlink:href="#m1e9fb140da" y="173.959847"/>
     <use style="stroke:#000000;" x="243.630486" xlink:href="#m1e9fb140da" y="174.528"/>
     <use style="stroke:#000000;" x="236.600854" xlink:href="#m1e9fb140da" y="174.009277"/>
     <use style="stroke:#000000;" x="237.394266" xlink:href="#m1e9fb140da" y="174.460278"/>
     <use style="stroke:#000000;" x="236.16" xlink:href="#m1e9fb140da" y="174.528"/>
     <use style="stroke:#000000;" x="236.250524" xlink:href="#m1e9fb140da" y="173.85105"/>
     <use style="stroke:#000000;" x="251.246233" xlink:href="#m1e9fb140da" y="173.891329"/>
     <use style="stroke:#000000;" x="239.765395" xlink:href="#m1e9fb140da" y="174.241789"/>
     <use style="stroke:#000000;" x="251.118979" xlink:href="#m1e9fb140da" y="173.821655"/>
     <use style="stroke:#000000;" x="251.216887" xlink:href="#m1e9fb140da" y="174.091994"/>
     <use style="stroke:#000000;" x="251.221218" xlink:href="#m1e9fb140da" y="173.804283"/>
     <use style="stroke:#000000;" x="239.976274" xlink:href="#m1e9fb140da" y="174.528"/>
     <use style="stroke:#000000;" x="240.628291" xlink:href="#m1e9fb140da" y="173.208593"/>
     <use style="stroke:#000000;" x="239.810772" xlink:href="#m1e9fb140da" y="174.291023"/>
     <use style="stroke:#000000;" x="239.751004" xlink:href="#m1e9fb140da" y="174.528"/>
     <use style="stroke:#000000;" x="240.705349" xlink:href="#m1e9fb140da" y="173.894587"/>
     <use style="stroke:#000000;" x="251.311422" xlink:href="#m1e9fb140da" y="174.451464"/>
     <use style="stroke:#000000;" x="240.40719" xlink:href="#m1e9fb140da" y="173.926899"/>
     <use style="stroke:#000000;" x="240.55522" xlink:href="#m1e9fb140da" y="174.472428"/>
     <use style="stroke:#000000;" x="240.810841" xlink:href="#m1e9fb140da" y="174.510488"/>
     <use style="stroke:#000000;" x="240.272741" xlink:href="#m1e9fb140da" y="174.385706"/>
     <use style="stroke:#000000;" x="244.298996" xlink:href="#m1e9fb140da" y="173.607346"/>
     <use style="stroke:#000000;" x="236.777069" xlink:href="#m1e9fb140da" y="174.528"/>
     <use style="stroke:#000000;" x="240.398237" xlink:href="#m1e9fb140da" y="174.429339"/>
     <use style="stroke:#000000;" x="251.099245" xlink:href="#m1e9fb140da" y="173.905953"/>
     <use style="stroke:#000000;" x="247.657767" xlink:href="#m1e9fb140da" y="173.994767"/>
     <use style="stroke:#000000;" x="236.941621" xlink:href="#m1e9fb140da" y="174.04672"/>
     <use style="stroke:#000000;" x="240.37373" xlink:href="#m1e9fb140da" y="174.528"/>
     <use style="stroke:#000000;" x="243.80685" xlink:href="#m1e9fb140da" y="174.244518"/>
     <use style="stroke:#000000;" x="240.34247" xlink:href="#m1e9fb140da" y="172.931427"/>
     <use style="stroke:#000000;" x="236.904672" xlink:href="#m1e9fb140da" y="174.144482"/>
     <use style="stroke:#000000;" x="240.077799" xlink:href="#m1e9fb140da" y="174.528"/>
     <use style="stroke:#000000;" x="251.280722" xlink:href="#m1e9fb140da" y="173.482346"/>
     <use style="stroke:#000000;" x="237.37819" xlink:href="#m1e9fb140da" y="174.252885"/>
     <use style="stroke:#000000;" x="239.937377" xlink:href="#m1e9fb140da" y="174.528"/>
     <use style="stroke:#000000;" x="240.557907" xlink:href="#m1e9fb140da" y="174.233608"/>
     <use style="stroke:#000000;" x="247.477169" xlink:href="#m1e9fb140da" y="174.205322"/>
     <use style="stroke:#000000;" x="239.883968" xlink:href="#m1e9fb140da" y="174.49509"/>
     <use style="stroke:#000000;" x="244.170051" xlink:href="#m1e9fb140da" y="174.381286"/>
     <use style="stroke:#000000;" x="236.986097" xlink:href="#m1e9fb140da" y="173.795336"/>
     <use style="stroke:#000000;" x="240.273804" xlink:href="#m1e9fb140da" y="174.238682"/>
     <use style="stroke:#000000;" x="251.339137" xlink:href="#m1e9fb140da" y="173.225684"/>
     <use style="stroke:#000000;" x="240.314053" xlink:href="#m1e9fb140da" y="174.372301"/>
     <use style="stroke:#000000;" x="251.401621" xlink:href="#m1e9fb140da" y="173.532184"/>
     <use style="stroke:#000000;" x="243.862582" xlink:href="#m1e9fb140da" y="173.429109"/>
     <use style="stroke:#000000;" x="243.834246" xlink:href="#m1e9fb140da" y="173.319492"/>
     <use style="stroke:#000000;" x="243.806758" xlink:href="#m1e9fb140da" y="173.288942"/>
     <use style="stroke:#000000;" x="240.745744" xlink:href="#m1e9fb140da" y="174.528"/>
     <use style="stroke:#000000;" x="240.468381" xlink:href="#m1e9fb140da" y="173.078603"/>
     <use style="stroke:#000000;" x="240.795978" xlink:href="#m1e9fb140da" y="174.206661"/>
     <use style="stroke:#000000;" x="240.696688" xlink:href="#m1e9fb140da" y="174.061574"/>
     <use style="stroke:#000000;" x="236.41718" xlink:href="#m1e9fb140da" y="172.987376"/>
     <use style="stroke:#000000;" x="244.412514" xlink:href="#m1e9fb140da" y="171.99619"/>
     <use style="stroke:#000000;" x="240.275918" xlink:href="#m1e9fb140da" y="174.528"/>
     <use style="stroke:#000000;" x="240.068794" xlink:href="#m1e9fb140da" y="173.912695"/>
     <use style="stroke:#000000;" x="247.453391" xlink:href="#m1e9fb140da" y="173.290765"/>
     <use style="stroke:#000000;" x="251.775573" xlink:href="#m1e9fb140da" y="172.94825"/>
     <use style="stroke:#000000;" x="239.334161" xlink:href="#m1e9fb140da" y="174.130794"/>
     <use style="stroke:#000000;" x="236.694749" xlink:href="#m1e9fb140da" y="173.789333"/>
     <use style="stroke:#000000;" x="251.111756" xlink:href="#m1e9fb140da" y="172.239073"/>
     <use style="stroke:#000000;" x="250.550832" xlink:href="#m1e9fb140da" y="173.333677"/>
     <use style="stroke:#000000;" x="251.028175" xlink:href="#m1e9fb140da" y="174.528"/>
     <use style="stroke:#000000;" x="251.018248" xlink:href="#m1e9fb140da" y="173.31581"/>
     <use style="stroke:#000000;" x="243.590007" xlink:href="#m1e9fb140da" y="174.168687"/>
     <use style="stroke:#000000;" x="242.77622" xlink:href="#m1e9fb140da" y="173.922814"/>
     <use style="stroke:#000000;" x="243.758117" xlink:href="#m1e9fb140da" y="174.454734"/>
     <use style="stroke:#000000;" x="242.661731" xlink:href="#m1e9fb140da" y="173.706467"/>
     <use style="stroke:#000000;" x="236.443082" xlink:href="#m1e9fb140da" y="174.528"/>
     <use style="stroke:#000000;" x="236.846244" xlink:href="#m1e9fb140da" y="174.528"/>
     <use style="stroke:#000000;" x="236.380514" xlink:href="#m1e9fb140da" y="174.246455"/>
     <use style="stroke:#000000;" x="236.791483" xlink:href="#m1e9fb140da" y="174.528"/>
     <use style="stroke:#000000;" x="236.922013" xlink:href="#m1e9fb140da" y="173.771005"/>
     <use style="stroke:#000000;" x="236.16" xlink:href="#m1e9fb140da" y="173.941147"/>
     <use style="stroke:#000000;" x="236.16" xlink:href="#m1e9fb140da" y="174.122954"/>
     <use style="stroke:#000000;" x="236.16" xlink:href="#m1e9fb140da" y="173.379656"/>
     <use style="stroke:#000000;" x="236.16" xlink:href="#m1e9fb140da" y="173.728272"/>
     <use style="stroke:#000000;" x="251.138279" xlink:href="#m1e9fb140da" y="173.563842"/>
     <use style="stroke:#000000;" x="251.504898" xlink:href="#m1e9fb140da" y="174.01077"/>
     <use style="stroke:#000000;" x="251.51908" xlink:href="#m1e9fb140da" y="173.966263"/>
     <use style="stroke:#000000;" x="239.359835" xlink:href="#m1e9fb140da" y="174.43474"/>
     <use style="stroke:#000000;" x="239.773939" xlink:href="#m1e9fb140da" y="174.528"/>
     <use style="stroke:#000000;" x="239.816147" xlink:href="#m1e9fb140da" y="173.884191"/>
     <use style="stroke:#000000;" x="251.044582" xlink:href="#m1e9fb140da" y="173.593719"/>
     <use style="stroke:#000000;" x="251.252128" xlink:href="#m1e9fb140da" y="173.669432"/>
     <use style="stroke:#000000;" x="251.20082" xlink:href="#m1e9fb140da" y="174.147812"/>
     <use style="stroke:#000000;" x="251.24848" xlink:href="#m1e9fb140da" y="174.094283"/>
     <use style="stroke:#000000;" x="250.930226" xlink:href="#m1e9fb140da" y="174.238765"/>
     <use style="stroke:#000000;" x="250.833384" xlink:href="#m1e9fb140da" y="174.121553"/>
     <use style="stroke:#000000;" x="251.278869" xlink:href="#m1e9fb140da" y="173.837191"/>
     <use style="stroke:#000000;" x="250.744205" xlink:href="#m1e9fb140da" y="173.865357"/>
     <use style="stroke:#000000;" x="252.035113" xlink:href="#m1e9fb140da" y="174.288077"/>
     <use style="stroke:#000000;" x="239.91497" xlink:href="#m1e9fb140da" y="174.528"/>
     <use style="stroke:#000000;" x="240.191452" xlink:href="#m1e9fb140da" y="174.379334"/>
     <use style="stroke:#000000;" x="239.746696" xlink:href="#m1e9fb140da" y="174.528"/>
     <use style="stroke:#000000;" x="240.822801" xlink:href="#m1e9fb140da" y="173.213793"/>
     <use style="stroke:#000000;" x="240.271877" xlink:href="#m1e9fb140da" y="172.893711"/>
     <use style="stroke:#000000;" x="240.165504" xlink:href="#m1e9fb140da" y="173.051412"/>
     <use style="stroke:#000000;" x="239.723565" xlink:href="#m1e9fb140da" y="174.520682"/>
     <use style="stroke:#000000;" x="239.888134" xlink:href="#m1e9fb140da" y="174.311067"/>
     <use style="stroke:#000000;" x="239.681472" xlink:href="#m1e9fb140da" y="174.353647"/>
     <use style="stroke:#000000;" x="239.459018" xlink:href="#m1e9fb140da" y="174.43054"/>
     <use style="stroke:#000000;" x="240.276643" xlink:href="#m1e9fb140da" y="174.528"/>
     <use style="stroke:#000000;" x="240.084827" xlink:href="#m1e9fb140da" y="174.523475"/>
     <use style="stroke:#000000;" x="240.681398" xlink:href="#m1e9fb140da" y="173.934825"/>
     <use style="stroke:#000000;" x="240.519978" xlink:href="#m1e9fb140da" y="173.514264"/>
     <use style="stroke:#000000;" x="240.691906" xlink:href="#m1e9fb140da" y="173.822542"/>
     <use style="stroke:#000000;" x="251.188813" xlink:href="#m1e9fb140da" y="174.473609"/>
     <use style="stroke:#000000;" x="251.049992" xlink:href="#m1e9fb140da" y="174.318712"/>
     <use style="stroke:#000000;" x="250.714513" xlink:href="#m1e9fb140da" y="174.528"/>
     <use style="stroke:#000000;" x="239.978627" xlink:href="#m1e9fb140da" y="173.733326"/>
     <use style="stroke:#000000;" x="240.038979" xlink:href="#m1e9fb140da" y="174.001599"/>
     <use style="stroke:#000000;" x="240.355652" xlink:href="#m1e9fb140da" y="174.341119"/>
     <use style="stroke:#000000;" x="240.489595" xlink:href="#m1e9fb140da" y="174.528"/>
     <use style="stroke:#000000;" x="240.204387" xlink:href="#m1e9fb140da" y="174.528"/>
     <use style="stroke:#000000;" x="239.90861" xlink:href="#m1e9fb140da" y="174.213384"/>
     <use style="stroke:#000000;" x="240.552706" xlink:href="#m1e9fb140da" y="174.528"/>
     <use style="stroke:#000000;" x="240.374725" xlink:href="#m1e9fb140da" y="174.506228"/>
     <use style="stroke:#000000;" x="240.898513" xlink:href="#m1e9fb140da" y="174.528"/>
     <use style="stroke:#000000;" x="240.233577" xlink:href="#m1e9fb140da" y="174.472809"/>
     <use style="stroke:#000000;" x="240.449509" xlink:href="#m1e9fb140da" y="174.528"/>
     <use style="stroke:#000000;" x="240.60914" xlink:href="#m1e9fb140da" y="174.328558"/>
     <use style="stroke:#000000;" x="244.56565" xlink:href="#m1e9fb140da" y="173.811863"/>
     <use style="stroke:#000000;" x="243.514594" xlink:href="#m1e9fb140da" y="173.352817"/>
     <use style="stroke:#000000;" x="236.49277" xlink:href="#m1e9fb140da" y="174.289524"/>
     <use style="stroke:#000000;" x="236.907339" xlink:href="#m1e9fb140da" y="174.528"/>
     <use style="stroke:#000000;" x="240.933448" xlink:href="#m1e9fb140da" y="173.123663"/>
     <use style="stroke:#000000;" x="240.774732" xlink:href="#m1e9fb140da" y="174.528"/>
     <use style="stroke:#000000;" x="251.521016" xlink:href="#m1e9fb140da" y="174.212503"/>
     <use style="stroke:#000000;" x="250.459861" xlink:href="#m1e9fb140da" y="173.802635"/>
     <use style="stroke:#000000;" x="246.166518" xlink:href="#m1e9fb140da" y="173.633807"/>
     <use style="stroke:#000000;" x="247.801883" xlink:href="#m1e9fb140da" y="173.588724"/>
     <use style="stroke:#000000;" x="236.659434" xlink:href="#m1e9fb140da" y="174.501264"/>
     <use style="stroke:#000000;" x="236.818491" xlink:href="#m1e9fb140da" y="174.062222"/>
     <use style="stroke:#000000;" x="240.135954" xlink:href="#m1e9fb140da" y="174.528"/>
     <use style="stroke:#000000;" x="240.468618" xlink:href="#m1e9fb140da" y="174.528"/>
     <use style="stroke:#000000;" x="243.307983" xlink:href="#m1e9fb140da" y="174.528"/>
     <use style="stroke:#000000;" x="243.935563" xlink:href="#m1e9fb140da" y="174.153348"/>
     <use style="stroke:#000000;" x="240.597222" xlink:href="#m1e9fb140da" y="172.795469"/>
     <use style="stroke:#000000;" x="241.536936" xlink:href="#m1e9fb140da" y="173.960023"/>
     <use style="stroke:#000000;" x="236.875542" xlink:href="#m1e9fb140da" y="174.135322"/>
     <use style="stroke:#000000;" x="237.129573" xlink:href="#m1e9fb140da" y="173.869387"/>
     <use style="stroke:#000000;" x="240.466316" xlink:href="#m1e9fb140da" y="174.528"/>
     <use style="stroke:#000000;" x="240.482999" xlink:href="#m1e9fb140da" y="174.528"/>
     <use style="stroke:#000000;" x="251.584601" xlink:href="#m1e9fb140da" y="173.37378"/>
     <use style="stroke:#000000;" x="250.788586" xlink:href="#m1e9fb140da" y="173.202677"/>
     <use style="stroke:#000000;" x="237.312957" xlink:href="#m1e9fb140da" y="174.075086"/>
     <use style="stroke:#000000;" x="237.425394" xlink:href="#m1e9fb140da" y="174.206584"/>
     <use style="stroke:#000000;" x="239.549665" xlink:href="#m1e9fb140da" y="174.528"/>
     <use style="stroke:#000000;" x="240.232478" xlink:href="#m1e9fb140da" y="174.261539"/>
     <use style="stroke:#000000;" x="240.25803" xlink:href="#m1e9fb140da" y="174.471415"/>
     <use style="stroke:#000000;" x="240.621799" xlink:href="#m1e9fb140da" y="174.528"/>
     <use style="stroke:#000000;" x="240.78699" xlink:href="#m1e9fb140da" y="174.519325"/>
     <use style="stroke:#000000;" x="247.942715" xlink:href="#m1e9fb140da" y="174.425922"/>
     <use style="stroke:#000000;" x="247.388512" xlink:href="#m1e9fb140da" y="174.305716"/>
     <use style="stroke:#000000;" x="247.586056" xlink:href="#m1e9fb140da" y="174.205179"/>
     <use style="stroke:#000000;" x="239.826219" xlink:href="#m1e9fb140da" y="174.528"/>
     <use style="stroke:#000000;" x="240.289234" xlink:href="#m1e9fb140da" y="174.38274"/>
     <use style="stroke:#000000;" x="239.832098" xlink:href="#m1e9fb140da" y="174.528"/>
     <use style="stroke:#000000;" x="239.542346" xlink:href="#m1e9fb140da" y="174.215949"/>
     <use style="stroke:#000000;" x="243.821241" xlink:href="#m1e9fb140da" y="174.528"/>
     <use style="stroke:#000000;" x="237.122823" xlink:href="#m1e9fb140da" y="173.815914"/>
     <use style="stroke:#000000;" x="240.029432" xlink:href="#m1e9fb140da" y="174.528"/>
     <use style="stroke:#000000;" x="251.091192" xlink:href="#m1e9fb140da" y="173.955833"/>
     <use style="stroke:#000000;" x="241.376228" xlink:href="#m1e9fb140da" y="174.07495"/>
     <use style="stroke:#000000;" x="251.261154" xlink:href="#m1e9fb140da" y="174.135687"/>
    </g>
   </g>
   <g id="PathCollection_2">
    <defs>
     <path d="M 0 0.935414 
C 0.248075 0.935414 0.486022 0.836853 0.661438 0.661438 
C 0.836853 0.486022 0.935414 0.248075 0.935414 0 
C 0.935414 -0.248075 0.836853 -0.486022 0.661438 -0.661438 
C 0.486022 -0.836853 0.248075 -0.935414 0 -0.935414 
C -0.248075 -0.935414 -0.486022 -0.836853 -0.661438 -0.661438 
C -0.836853 -0.486022 -0.935414 -0.248075 -0.935414 0 
C -0.935414 0.248075 -0.836853 0.486022 -0.661438 0.661438 
C -0.486022 0.836853 -0.248075 0.935414 0 0.935414 
z
" id="mab32d6d142" style="stroke:#0000ff;"/>
    </defs>
    <g clip-path="url(#pa09477c72a)">
     <use style="fill:#0000ff;stroke:#0000ff;" x="244.098742" xlink:href="#mab32d6d142" y="173.351727"/>
     <use style="fill:#0000ff;stroke:#0000ff;" x="240.83997" xlink:href="#mab32d6d142" y="174.528"/>
     <use style="fill:#0000ff;stroke:#0000ff;" x="239.812074" xlink:href="#mab32d6d142" y="174.28358"/>
     <use style="fill:#0000ff;stroke:#0000ff;" x="240.611188" xlink:href="#mab32d6d142" y="173.714973"/>
     <use style="fill:#0000ff;stroke:#0000ff;" x="240.005563" xlink:href="#mab32d6d142" y="174.528"/>
     <use style="fill:#0000ff;stroke:#0000ff;" x="236.328014" xlink:href="#mab32d6d142" y="172.833433"/>
     <use style="fill:#0000ff;stroke:#0000ff;" x="244.220199" xlink:href="#mab32d6d142" y="173.32036"/>
     <use style="fill:#0000ff;stroke:#0000ff;" x="239.842311" xlink:href="#mab32d6d142" y="174.528"/>
     <use style="fill:#0000ff;stroke:#0000ff;" x="240.336025" xlink:href="#mab32d6d142" y="174.254521"/>
     <use style="fill:#0000ff;stroke:#0000ff;" x="247.644438" xlink:href="#mab32d6d142" y="173.731952"/>
     <use style="fill:#0000ff;stroke:#0000ff;" x="251.432797" xlink:href="#mab32d6d142" y="173.385155"/>
     <use style="fill:#0000ff;stroke:#0000ff;" x="239.790388" xlink:href="#mab32d6d142" y="174.085641"/>
     <use style="fill:#0000ff;stroke:#0000ff;" x="236.219899" xlink:href="#mab32d6d142" y="174.352882"/>
     <use style="fill:#0000ff;stroke:#0000ff;" x="251.177729" xlink:href="#mab32d6d142" y="172.576801"/>
     <use style="fill:#0000ff;stroke:#0000ff;" x="251.213187" xlink:href="#mab32d6d142" y="172.881716"/>
     <use style="fill:#0000ff;stroke:#0000ff;" x="251.033444" xlink:href="#mab32d6d142" y="174.016096"/>
     <use style="fill:#0000ff;stroke:#0000ff;" x="243.907923" xlink:href="#mab32d6d142" y="173.959847"/>
     <use style="fill:#0000ff;stroke:#0000ff;" x="243.630486" xlink:href="#mab32d6d142" y="174.528"/>
     <use style="fill:#0000ff;stroke:#0000ff;" x="236.600854" xlink:href="#mab32d6d142" y="174.009277"/>
     <use style="fill:#0000ff;stroke:#0000ff;" x="237.394266" xlink:href="#mab32d6d142" y="174.460278"/>
     <use style="fill:#0000ff;stroke:#0000ff;" x="236.16" xlink:href="#mab32d6d142" y="174.528"/>
     <use style="fill:#0000ff;stroke:#0000ff;" x="236.250524" xlink:href="#mab32d6d142" y="173.85105"/>
     <use style="fill:#0000ff;stroke:#0000ff;" x="251.246233" xlink:href="#mab32d6d142" y="173.891329"/>
     <use style="fill:#0000ff;stroke:#0000ff;" x="239.765395" xlink:href="#mab32d6d142" y="174.241789"/>
     <use style="fill:#0000ff;stroke:#0000ff;" x="251.118979" xlink:href="#mab32d6d142" y="173.821655"/>
     <use style="fill:#0000ff;stroke:#0000ff;" x="251.216887" xlink:href="#mab32d6d142" y="174.091994"/>
     <use style="fill:#0000ff;stroke:#0000ff;" x="251.221218" xlink:href="#mab32d6d142" y="173.804283"/>
     <use style="fill:#0000ff;stroke:#0000ff;" x="239.976274" xlink:href="#mab32d6d142" y="174.528"/>
     <use style="fill:#0000ff;stroke:#0000ff;" x="240.628291" xlink:href="#mab32d6d142" y="173.208593"/>
     <use style="fill:#0000ff;stroke:#0000ff;" x="239.810772" xlink:href="#mab32d6d142" y="174.291023"/>
     <use style="fill:#0000ff;stroke:#0000ff;" x="239.751004" xlink:href="#mab32d6d142" y="174.528"/>
     <use style="fill:#0000ff;stroke:#0000ff;" x="240.705349" xlink:href="#mab32d6d142" y="173.894587"/>
     <use style="fill:#0000ff;stroke:#0000ff;" x="251.311422" xlink:href="#mab32d6d142" y="174.451464"/>
     <use style="fill:#0000ff;stroke:#0000ff;" x="240.40719" xlink:href="#mab32d6d142" y="173.926899"/>
     <use style="fill:#0000ff;stroke:#0000ff;" x="240.55522" xlink:href="#mab32d6d142" y="174.472428"/>
     <use style="fill:#0000ff;stroke:#0000ff;" x="240.810841" xlink:href="#mab32d6d142" y="174.510488"/>
     <use style="fill:#0000ff;stroke:#0000ff;" x="240.272741" xlink:href="#mab32d6d142" y="174.385706"/>
     <use style="fill:#0000ff;stroke:#0000ff;" x="244.298996" xlink:href="#mab32d6d142" y="173.607346"/>
     <use style="fill:#0000ff;stroke:#0000ff;" x="236.777069" xlink:href="#mab32d6d142" y="174.528"/>
     <use style="fill:#0000ff;stroke:#0000ff;" x="240.398237" xlink:href="#mab32d6d142" y="174.429339"/>
     <use style="fill:#0000ff;stroke:#0000ff;" x="251.099245" xlink:href="#mab32d6d142" y="173.905953"/>
     <use style="fill:#0000ff;stroke:#0000ff;" x="247.657767" xlink:href="#mab32d6d142" y="173.994767"/>
     <use style="fill:#0000ff;stroke:#0000ff;" x="236.941621" xlink:href="#mab32d6d142" y="174.04672"/>
     <use style="fill:#0000ff;stroke:#0000ff;" x="240.37373" xlink:href="#mab32d6d142" y="174.528"/>
     <use style="fill:#0000ff;stroke:#0000ff;" x="243.80685" xlink:href="#mab32d6d142" y="174.244518"/>
     <use style="fill:#0000ff;stroke:#0000ff;" x="240.34247" xlink:href="#mab32d6d142" y="172.931427"/>
     <use style="fill:#0000ff;stroke:#0000ff;" x="236.904672" xlink:href="#mab32d6d142" y="174.144482"/>
     <use style="fill:#0000ff;stroke:#0000ff;" x="240.077799" xlink:href="#mab32d6d142" y="174.528"/>
     <use style="fill:#0000ff;stroke:#0000ff;" x="251.280722" xlink:href="#mab32d6d142" y="173.482346"/>
     <use style="fill:#0000ff;stroke:#0000ff;" x="237.37819" xlink:href="#mab32d6d142" y="174.252885"/>
     <use style="fill:#0000ff;stroke:#0000ff;" x="239.937377" xlink:href="#mab32d6d142" y="174.528"/>
     <use style="fill:#0000ff;stroke:#0000ff;" x="240.557907" xlink:href="#mab32d6d142" y="174.233608"/>
     <use style="fill:#0000ff;stroke:#0000ff;" x="247.477169" xlink:href="#mab32d6d142" y="174.205322"/>
     <use style="fill:#0000ff;stroke:#0000ff;" x="239.883968" xlink:href="#mab32d6d142" y="174.49509"/>
     <use style="fill:#0000ff;stroke:#0000ff;" x="244.170051" xlink:href="#mab32d6d142" y="174.381286"/>
     <use style="fill:#0000ff;stroke:#0000ff;" x="236.986097" xlink:href="#mab32d6d142" y="173.795336"/>
     <use style="fill:#0000ff;stroke:#0000ff;" x="240.273804" xlink:href="#mab32d6d142" y="174.238682"/>
     <use style="fill:#0000ff;stroke:#0000ff;" x="251.339137" xlink:href="#mab32d6d142" y="173.225684"/>
     <use style="fill:#0000ff;stroke:#0000ff;" x="240.314053" xlink:href="#mab32d6d142" y="174.372301"/>
     <use style="fill:#0000ff;stroke:#0000ff;" x="251.401621" xlink:href="#mab32d6d142" y="173.532184"/>
    </g>
   </g>
   <g id="matplotlib.axis_1">
    <g id="xtick_1">
     <g id="line2d_1">
      <defs>
       <path d="M 0 0 
L 0 3.5 
" id="m3ff13d1462" style="stroke:#000000;stroke-width:0.8;"/>
      </defs>
      <g>
       <use style="stroke:#000000;stroke-width:0.8;" x="57.6" xlink:href="#m3ff13d1462" y="307.584"/>
      </g>
     </g>
     <g id="text_1">
      <!-- −10.0 -->
      <defs>
       <path d="M 10.59375 35.5 
L 73.1875 35.5 
L 73.1875 27.203125 
L 10.59375 27.203125 
z
" id="DejaVuSans-2212"/>
       <path d="M 12.40625 8.296875 
L 28.515625 8.296875 
L 28.515625 63.921875 
L 10.984375 60.40625 
L 10.984375 69.390625 
L 28.421875 72.90625 
L 38.28125 72.90625 
L 38.28125 8.296875 
L 54.390625 8.296875 
L 54.390625 0 
L 12.40625 0 
z
" id="DejaVuSans-31"/>
       <path d="M 31.78125 66.40625 
Q 24.171875 66.40625 20.328125 58.90625 
Q 16.5 51.421875 16.5 36.375 
Q 16.5 21.390625 20.328125 13.890625 
Q 24.171875 6.390625 31.78125 6.390625 
Q 39.453125 6.390625 43.28125 13.890625 
Q 47.125 21.390625 47.125 36.375 
Q 47.125 51.421875 43.28125 58.90625 
Q 39.453125 66.40625 31.78125 66.40625 
z
M 31.78125 74.21875 
Q 44.046875 74.21875 50.515625 64.515625 
Q 56.984375 54.828125 56.984375 36.375 
Q 56.984375 17.96875 50.515625 8.265625 
Q 44.046875 -1.421875 31.78125 -1.421875 
Q 19.53125 -1.421875 13.0625 8.265625 
Q 6.59375 17.96875 6.59375 36.375 
Q 6.59375 54.828125 13.0625 64.515625 
Q 19.53125 74.21875 31.78125 74.21875 
z
" id="DejaVuSans-30"/>
       <path d="M 10.6875 12.40625 
L 21 12.40625 
L 21 0 
L 10.6875 0 
z
" id="DejaVuSans-2e"/>
      </defs>
      <g transform="translate(42.277344 322.182437)scale(0.1 -0.1)">
       <use xlink:href="#DejaVuSans-2212"/>
       <use x="83.789062" xlink:href="#DejaVuSans-31"/>
       <use x="147.412109" xlink:href="#DejaVuSans-30"/>
       <use x="211.035156" xlink:href="#DejaVuSans-2e"/>
       <use x="242.822266" xlink:href="#DejaVuSans-30"/>
      </g>
     </g>
    </g>
    <g id="xtick_2">
     <g id="line2d_2">
      <g>
       <use style="stroke:#000000;stroke-width:0.8;" x="102.24" xlink:href="#m3ff13d1462" y="307.584"/>
      </g>
     </g>
     <g id="text_2">
      <!-- −7.5 -->
      <defs>
       <path d="M 8.203125 72.90625 
L 55.078125 72.90625 
L 55.078125 68.703125 
L 28.609375 0 
L 18.3125 0 
L 43.21875 64.59375 
L 8.203125 64.59375 
z
" id="DejaVuSans-37"/>
       <path d="M 10.796875 72.90625 
L 49.515625 72.90625 
L 49.515625 64.59375 
L 19.828125 64.59375 
L 19.828125 46.734375 
Q 21.96875 47.46875 24.109375 47.828125 
Q 26.265625 48.1875 28.421875 48.1875 
Q 40.625 48.1875 47.75 41.5 
Q 54.890625 34.8125 54.890625 23.390625 
Q 54.890625 11.625 47.5625 5.09375 
Q 40.234375 -1.421875 26.90625 -1.421875 
Q 22.3125 -1.421875 17.546875 -0.640625 
Q 12.796875 0.140625 7.71875 1.703125 
L 7.71875 11.625 
Q 12.109375 9.234375 16.796875 8.0625 
Q 21.484375 6.890625 26.703125 6.890625 
Q 35.15625 6.890625 40.078125 11.328125 
Q 45.015625 15.765625 45.015625 23.390625 
Q 45.015625 31 40.078125 35.4375 
Q 35.15625 39.890625 26.703125 39.890625 
Q 22.75 39.890625 18.8125 39.015625 
Q 14.890625 38.140625 10.796875 36.28125 
z
" id="DejaVuSans-35"/>
      </defs>
      <g transform="translate(90.098594 322.182437)scale(0.1 -0.1)">
       <use xlink:href="#DejaVuSans-2212"/>
       <use x="83.789062" xlink:href="#DejaVuSans-37"/>
       <use x="147.412109" xlink:href="#DejaVuSans-2e"/>
       <use x="179.199219" xlink:href="#DejaVuSans-35"/>
      </g>
     </g>
    </g>
    <g id="xtick_3">
     <g id="line2d_3">
      <g>
       <use style="stroke:#000000;stroke-width:0.8;" x="146.88" xlink:href="#m3ff13d1462" y="307.584"/>
      </g>
     </g>
     <g id="text_3">
      <!-- −5.0 -->
      <g transform="translate(134.738594 322.182437)scale(0.1 -0.1)">
       <use xlink:href="#DejaVuSans-2212"/>
       <use x="83.789062" xlink:href="#DejaVuSans-35"/>
       <use x="147.412109" xlink:href="#DejaVuSans-2e"/>
       <use x="179.199219" xlink:href="#DejaVuSans-30"/>
      </g>
     </g>
    </g>
    <g id="xtick_4">
     <g id="line2d_4">
      <g>
       <use style="stroke:#000000;stroke-width:0.8;" x="191.52" xlink:href="#m3ff13d1462" y="307.584"/>
      </g>
     </g>
     <g id="text_4">
      <!-- −2.5 -->
      <defs>
       <path d="M 19.1875 8.296875 
L 53.609375 8.296875 
L 53.609375 0 
L 7.328125 0 
L 7.328125 8.296875 
Q 12.9375 14.109375 22.625 23.890625 
Q 32.328125 33.6875 34.8125 36.53125 
Q 39.546875 41.84375 41.421875 45.53125 
Q 43.3125 49.21875 43.3125 52.78125 
Q 43.3125 58.59375 39.234375 62.25 
Q 35.15625 65.921875 28.609375 65.921875 
Q 23.96875 65.921875 18.8125 64.3125 
Q 13.671875 62.703125 7.8125 59.421875 
L 7.8125 69.390625 
Q 13.765625 71.78125 18.9375 73 
Q 24.125 74.21875 28.421875 74.21875 
Q 39.75 74.21875 46.484375 68.546875 
Q 53.21875 62.890625 53.21875 53.421875 
Q 53.21875 48.921875 51.53125 44.890625 
Q 49.859375 40.875 45.40625 35.40625 
Q 44.1875 33.984375 37.640625 27.21875 
Q 31.109375 20.453125 19.1875 8.296875 
z
" id="DejaVuSans-32"/>
      </defs>
      <g transform="translate(179.378594 322.182437)scale(0.1 -0.1)">
       <use xlink:href="#DejaVuSans-2212"/>
       <use x="83.789062" xlink:href="#DejaVuSans-32"/>
       <use x="147.412109" xlink:href="#DejaVuSans-2e"/>
       <use x="179.199219" xlink:href="#DejaVuSans-35"/>
      </g>
     </g>
    </g>
    <g id="xtick_5">
     <g id="line2d_5">
      <g>
       <use style="stroke:#000000;stroke-width:0.8;" x="236.16" xlink:href="#m3ff13d1462" y="307.584"/>
      </g>
     </g>
     <g id="text_5">
      <!-- 0.0 -->
      <g transform="translate(228.208438 322.182437)scale(0.1 -0.1)">
       <use xlink:href="#DejaVuSans-30"/>
       <use x="63.623047" xlink:href="#DejaVuSans-2e"/>
       <use x="95.410156" xlink:href="#DejaVuSans-30"/>
      </g>
     </g>
    </g>
    <g id="xtick_6">
     <g id="line2d_6">
      <g>
       <use style="stroke:#000000;stroke-width:0.8;" x="280.8" xlink:href="#m3ff13d1462" y="307.584"/>
      </g>
     </g>
     <g id="text_6">
      <!-- 2.5 -->
      <g transform="translate(272.848437 322.182437)scale(0.1 -0.1)">
       <use xlink:href="#DejaVuSans-32"/>
       <use x="63.623047" xlink:href="#DejaVuSans-2e"/>
       <use x="95.410156" xlink:href="#DejaVuSans-35"/>
      </g>
     </g>
    </g>
    <g id="xtick_7">
     <g id="line2d_7">
      <g>
       <use style="stroke:#000000;stroke-width:0.8;" x="325.44" xlink:href="#m3ff13d1462" y="307.584"/>
      </g>
     </g>
     <g id="text_7">
      <!-- 5.0 -->
      <g transform="translate(317.488437 322.182437)scale(0.1 -0.1)">
       <use xlink:href="#DejaVuSans-35"/>
       <use x="63.623047" xlink:href="#DejaVuSans-2e"/>
       <use x="95.410156" xlink:href="#DejaVuSans-30"/>
      </g>
     </g>
    </g>
    <g id="xtick_8">
     <g id="line2d_8">
      <g>
       <use style="stroke:#000000;stroke-width:0.8;" x="370.08" xlink:href="#m3ff13d1462" y="307.584"/>
      </g>
     </g>
     <g id="text_8">
      <!-- 7.5 -->
      <g transform="translate(362.128438 322.182437)scale(0.1 -0.1)">
       <use xlink:href="#DejaVuSans-37"/>
       <use x="63.623047" xlink:href="#DejaVuSans-2e"/>
       <use x="95.410156" xlink:href="#DejaVuSans-35"/>
      </g>
     </g>
    </g>
    <g id="xtick_9">
     <g id="line2d_9">
      <g>
       <use style="stroke:#000000;stroke-width:0.8;" x="414.72" xlink:href="#m3ff13d1462" y="307.584"/>
      </g>
     </g>
     <g id="text_9">
      <!-- 10.0 -->
      <g transform="translate(403.587188 322.182437)scale(0.1 -0.1)">
       <use xlink:href="#DejaVuSans-31"/>
       <use x="63.623047" xlink:href="#DejaVuSans-30"/>
       <use x="127.246094" xlink:href="#DejaVuSans-2e"/>
       <use x="159.033203" xlink:href="#DejaVuSans-30"/>
      </g>
     </g>
    </g>
   </g>
   <g id="matplotlib.axis_2">
    <g id="ytick_1">
     <g id="line2d_10">
      <defs>
       <path d="M 0 0 
L -3.5 0 
" id="m284a544806" style="stroke:#000000;stroke-width:0.8;"/>
      </defs>
      <g>
       <use style="stroke:#000000;stroke-width:0.8;" x="57.6" xlink:href="#m284a544806" y="307.584"/>
      </g>
     </g>
     <g id="text_10">
      <!-- −10.0 -->
      <g transform="translate(19.954687 311.383219)scale(0.1 -0.1)">
       <use xlink:href="#DejaVuSans-2212"/>
       <use x="83.789062" xlink:href="#DejaVuSans-31"/>
       <use x="147.412109" xlink:href="#DejaVuSans-30"/>
       <use x="211.035156" xlink:href="#DejaVuSans-2e"/>
       <use x="242.822266" xlink:href="#DejaVuSans-30"/>
      </g>
     </g>
    </g>
    <g id="ytick_2">
     <g id="line2d_11">
      <g>
       <use style="stroke:#000000;stroke-width:0.8;" x="57.6" xlink:href="#m284a544806" y="274.32"/>
      </g>
     </g>
     <g id="text_11">
      <!-- −7.5 -->
      <g transform="translate(26.317187 278.119219)scale(0.1 -0.1)">
       <use xlink:href="#DejaVuSans-2212"/>
       <use x="83.789062" xlink:href="#DejaVuSans-37"/>
       <use x="147.412109" xlink:href="#DejaVuSans-2e"/>
       <use x="179.199219" xlink:href="#DejaVuSans-35"/>
      </g>
     </g>
    </g>
    <g id="ytick_3">
     <g id="line2d_12">
      <g>
       <use style="stroke:#000000;stroke-width:0.8;" x="57.6" xlink:href="#m284a544806" y="241.056"/>
      </g>
     </g>
     <g id="text_12">
      <!-- −5.0 -->
      <g transform="translate(26.317187 244.855219)scale(0.1 -0.1)">
       <use xlink:href="#DejaVuSans-2212"/>
       <use x="83.789062" xlink:href="#DejaVuSans-35"/>
       <use x="147.412109" xlink:href="#DejaVuSans-2e"/>
       <use x="179.199219" xlink:href="#DejaVuSans-30"/>
      </g>
     </g>
    </g>
    <g id="ytick_4">
     <g id="line2d_13">
      <g>
       <use style="stroke:#000000;stroke-width:0.8;" x="57.6" xlink:href="#m284a544806" y="207.792"/>
      </g>
     </g>
     <g id="text_13">
      <!-- −2.5 -->
      <g transform="translate(26.317187 211.591219)scale(0.1 -0.1)">
       <use xlink:href="#DejaVuSans-2212"/>
       <use x="83.789062" xlink:href="#DejaVuSans-32"/>
       <use x="147.412109" xlink:href="#DejaVuSans-2e"/>
       <use x="179.199219" xlink:href="#DejaVuSans-35"/>
      </g>
     </g>
    </g>
    <g id="ytick_5">
     <g id="line2d_14">
      <g>
       <use style="stroke:#000000;stroke-width:0.8;" x="57.6" xlink:href="#m284a544806" y="174.528"/>
      </g>
     </g>
     <g id="text_14">
      <!-- 0.0 -->
      <g transform="translate(34.696875 178.327219)scale(0.1 -0.1)">
       <use xlink:href="#DejaVuSans-30"/>
       <use x="63.623047" xlink:href="#DejaVuSans-2e"/>
       <use x="95.410156" xlink:href="#DejaVuSans-30"/>
      </g>
     </g>
    </g>
    <g id="ytick_6">
     <g id="line2d_15">
      <g>
       <use style="stroke:#000000;stroke-width:0.8;" x="57.6" xlink:href="#m284a544806" y="141.264"/>
      </g>
     </g>
     <g id="text_15">
      <!-- 2.5 -->
      <g transform="translate(34.696875 145.063219)scale(0.1 -0.1)">
       <use xlink:href="#DejaVuSans-32"/>
       <use x="63.623047" xlink:href="#DejaVuSans-2e"/>
       <use x="95.410156" xlink:href="#DejaVuSans-35"/>
      </g>
     </g>
    </g>
    <g id="ytick_7">
     <g id="line2d_16">
      <g>
       <use style="stroke:#000000;stroke-width:0.8;" x="57.6" xlink:href="#m284a544806" y="108"/>
      </g>
     </g>
     <g id="text_16">
      <!-- 5.0 -->
      <g transform="translate(34.696875 111.799219)scale(0.1 -0.1)">
       <use xlink:href="#DejaVuSans-35"/>
       <use x="63.623047" xlink:href="#DejaVuSans-2e"/>
       <use x="95.410156" xlink:href="#DejaVuSans-30"/>
      </g>
     </g>
    </g>
    <g id="ytick_8">
     <g id="line2d_17">
      <g>
       <use style="stroke:#000000;stroke-width:0.8;" x="57.6" xlink:href="#m284a544806" y="74.736"/>
      </g>
     </g>
     <g id="text_17">
      <!-- 7.5 -->
      <g transform="translate(34.696875 78.535219)scale(0.1 -0.1)">
       <use xlink:href="#DejaVuSans-37"/>
       <use x="63.623047" xlink:href="#DejaVuSans-2e"/>
       <use x="95.410156" xlink:href="#DejaVuSans-35"/>
      </g>
     </g>
    </g>
    <g id="ytick_9">
     <g id="line2d_18">
      <g>
       <use style="stroke:#000000;stroke-width:0.8;" x="57.6" xlink:href="#m284a544806" y="41.472"/>
      </g>
     </g>
     <g id="text_18">
      <!-- 10.0 -->
      <g transform="translate(28.334375 45.271219)scale(0.1 -0.1)">
       <use xlink:href="#DejaVuSans-31"/>
       <use x="63.623047" xlink:href="#DejaVuSans-30"/>
       <use x="127.246094" xlink:href="#DejaVuSans-2e"/>
       <use x="159.033203" xlink:href="#DejaVuSans-30"/>
      </g>
     </g>
    </g>
   </g>
   <g id="patch_3">
    <path d="M 57.6 307.584 
L 57.6 41.472 
" style="fill:none;stroke:#000000;stroke-linecap:square;stroke-linejoin:miter;stroke-width:0.8;"/>
   </g>
   <g id="patch_4">
    <path d="M 414.72 307.584 
L 414.72 41.472 
" style="fill:none;stroke:#000000;stroke-linecap:square;stroke-linejoin:miter;stroke-width:0.8;"/>
   </g>
   <g id="patch_5">
    <path d="M 57.6 307.584 
L 414.72 307.584 
" style="fill:none;stroke:#000000;stroke-linecap:square;stroke-linejoin:miter;stroke-width:0.8;"/>
   </g>
   <g id="patch_6">
    <path d="M 57.6 41.472 
L 414.72 41.472 
" style="fill:none;stroke:#000000;stroke-linecap:square;stroke-linejoin:miter;stroke-width:0.8;"/>
   </g>
  </g>
 </g>
 <defs>
  <clipPath id="pa09477c72a">
   <rect height="266.112" width="357.12" x="57.6" y="41.472"/>
  </clipPath>
 </defs>
</svg>
