<?xml version="1.0" encoding="utf-8" standalone="no"?>
<!DOCTYPE svg PUBLIC "-//W3C//DTD SVG 1.1//EN"
  "http://www.w3.org/Graphics/SVG/1.1/DTD/svg11.dtd">
<!-- Created with matplotlib (http://matplotlib.org/) -->
<svg height="345.6pt" version="1.1" viewBox="0 0 460.8 345.6" width="460.8pt" xmlns="http://www.w3.org/2000/svg" xmlns:xlink="http://www.w3.org/1999/xlink">
 <defs>
  <style type="text/css">
*{stroke-linecap:butt;stroke-linejoin:round;}
  </style>
 </defs>
 <g id="figure_1">
  <g id="patch_1">
   <path d="M 0 345.6 
L 460.8 345.6 
L 460.8 0 
L 0 0 
z
" style="fill:#ffffff;"/>
  </g>
  <g id="axes_1">
   <g id="patch_2">
    <path d="M 57.6 307.584 
L 414.72 307.584 
L 414.72 41.472 
L 57.6 41.472 
z
" style="fill:#ffffff;"/>
   </g>
   <g id="PathCollection_1">
    <defs>
     <path d="M 0 0.612372 
C 0.162403 0.612372 0.318176 0.547849 0.433013 0.433013 
C 0.547849 0.318176 0.612372 0.162403 0.612372 0 
C 0.612372 -0.162403 0.547849 -0.318176 0.433013 -0.433013 
C 0.318176 -0.547849 0.162403 -0.612372 0 -0.612372 
C -0.162403 -0.612372 -0.318176 -0.547849 -0.433013 -0.433013 
C -0.547849 -0.318176 -0.612372 -0.162403 -0.612372 0 
C -0.612372 0.162403 -0.547849 0.318176 -0.433013 0.433013 
C -0.318176 0.547849 -0.162403 0.612372 0 0.612372 
z
" id="m72723aff74" style="stroke:#000000;"/>
    </defs>
    <g clip-path="url(#p283558817e)">
     <use style="stroke:#000000;" x="236.16" xlink:href="#m72723aff74" y="148.083228"/>
     <use style="stroke:#000000;" x="236.16" xlink:href="#m72723aff74" y="134.6112"/>
     <use style="stroke:#000000;" x="236.16" xlink:href="#m72723aff74" y="148.184735"/>
     <use style="stroke:#000000;" x="246.140601" xlink:href="#m72723aff74" y="174.528"/>
     <use style="stroke:#000000;" x="236.16" xlink:href="#m72723aff74" y="167.248278"/>
     <use style="stroke:#000000;" x="257.389036" xlink:href="#m72723aff74" y="174.528"/>
     <use style="stroke:#000000;" x="236.16" xlink:href="#m72723aff74" y="171.416918"/>
     <use style="stroke:#000000;" x="257.830491" xlink:href="#m72723aff74" y="174.528"/>
     <use style="stroke:#000000;" x="236.16" xlink:href="#m72723aff74" y="152.649947"/>
     <use style="stroke:#000000;" x="325.44" xlink:href="#m72723aff74" y="139.749424"/>
     <use style="stroke:#000000;" x="240.21076" xlink:href="#m72723aff74" y="174.528"/>
     <use style="stroke:#000000;" x="236.16" xlink:href="#m72723aff74" y="174.528"/>
     <use style="stroke:#000000;" x="236.16" xlink:href="#m72723aff74" y="162.469091"/>
     <use style="stroke:#000000;" x="325.44" xlink:href="#m72723aff74" y="134.6112"/>
     <use style="stroke:#000000;" x="325.44" xlink:href="#m72723aff74" y="152.411876"/>
     <use style="stroke:#000000;" x="243.809483" xlink:href="#m72723aff74" y="174.526063"/>
     <use style="stroke:#000000;" x="236.16" xlink:href="#m72723aff74" y="146.419474"/>
     <use style="stroke:#000000;" x="236.16" xlink:href="#m72723aff74" y="174.528"/>
     <use style="stroke:#000000;" x="325.44" xlink:href="#m72723aff74" y="172.936098"/>
     <use style="stroke:#000000;" x="242.856911" xlink:href="#m72723aff74" y="174.528"/>
     <use style="stroke:#000000;" x="241.578144" xlink:href="#m72723aff74" y="174.528"/>
     <use style="stroke:#000000;" x="236.16" xlink:href="#m72723aff74" y="134.6112"/>
     <use style="stroke:#000000;" x="249.892558" xlink:href="#m72723aff74" y="174.528"/>
     <use style="stroke:#000000;" x="325.44" xlink:href="#m72723aff74" y="142.468331"/>
     <use style="stroke:#000000;" x="325.44" xlink:href="#m72723aff74" y="139.273754"/>
     <use style="stroke:#000000;" x="236.16" xlink:href="#m72723aff74" y="143.334051"/>
     <use style="stroke:#000000;" x="236.16" xlink:href="#m72723aff74" y="145.57558"/>
     <use style="stroke:#000000;" x="276.928275" xlink:href="#m72723aff74" y="174.528"/>
     <use style="stroke:#000000;" x="236.16" xlink:href="#m72723aff74" y="162.00496"/>
     <use style="stroke:#000000;" x="236.16" xlink:href="#m72723aff74" y="149.121968"/>
     <use style="stroke:#000000;" x="325.44" xlink:href="#m72723aff74" y="137.333044"/>
     <use style="stroke:#000000;" x="237.105824" xlink:href="#m72723aff74" y="174.528"/>
     <use style="stroke:#000000;" x="244.061038" xlink:href="#m72723aff74" y="174.528"/>
     <use style="stroke:#000000;" x="236.16" xlink:href="#m72723aff74" y="173.428659"/>
     <use style="stroke:#000000;" x="236.16" xlink:href="#m72723aff74" y="174.528"/>
     <use style="stroke:#000000;" x="236.16" xlink:href="#m72723aff74" y="174.528"/>
     <use style="stroke:#000000;" x="236.16" xlink:href="#m72723aff74" y="172.45149"/>
     <use style="stroke:#000000;" x="236.16" xlink:href="#m72723aff74" y="163.545375"/>
     <use style="stroke:#000000;" x="236.16" xlink:href="#m72723aff74" y="136.436626"/>
     <use style="stroke:#000000;" x="236.16" xlink:href="#m72723aff74" y="174.528"/>
     <use style="stroke:#000000;" x="236.16" xlink:href="#m72723aff74" y="134.6112"/>
     <use style="stroke:#000000;" x="236.16" xlink:href="#m72723aff74" y="138.121396"/>
     <use style="stroke:#000000;" x="236.16" xlink:href="#m72723aff74" y="174.29451"/>
     <use style="stroke:#000000;" x="236.765267" xlink:href="#m72723aff74" y="174.528"/>
     <use style="stroke:#000000;" x="236.16" xlink:href="#m72723aff74" y="173.511736"/>
     <use style="stroke:#000000;" x="236.16" xlink:href="#m72723aff74" y="140.673667"/>
     <use style="stroke:#000000;" x="236.16" xlink:href="#m72723aff74" y="174.528"/>
     <use style="stroke:#000000;" x="236.16" xlink:href="#m72723aff74" y="174.528"/>
     <use style="stroke:#000000;" x="236.16" xlink:href="#m72723aff74" y="135.036168"/>
     <use style="stroke:#000000;" x="236.309418" xlink:href="#m72723aff74" y="134.6112"/>
     <use style="stroke:#000000;" x="241.321433" xlink:href="#m72723aff74" y="174.528"/>
     <use style="stroke:#000000;" x="236.16" xlink:href="#m72723aff74" y="140.114782"/>
     <use style="stroke:#000000;" x="244.698591" xlink:href="#m72723aff74" y="174.528"/>
     <use style="stroke:#000000;" x="236.16" xlink:href="#m72723aff74" y="134.984422"/>
     <use style="stroke:#000000;" x="236.16" xlink:href="#m72723aff74" y="137.677876"/>
     <use style="stroke:#000000;" x="243.084906" xlink:href="#m72723aff74" y="174.528"/>
     <use style="stroke:#000000;" x="243.235326" xlink:href="#m72723aff74" y="174.528"/>
     <use style="stroke:#000000;" x="239.614967" xlink:href="#m72723aff74" y="174.528"/>
     <use style="stroke:#000000;" x="244.69597" xlink:href="#m72723aff74" y="174.528"/>
     <use style="stroke:#000000;" x="236.16" xlink:href="#m72723aff74" y="135.416422"/>
     <use style="stroke:#000000;" x="236.800952" xlink:href="#m72723aff74" y="134.6112"/>
     <use style="stroke:#000000;" x="239.526113" xlink:href="#m72723aff74" y="134.6112"/>
     <use style="stroke:#000000;" x="246.819762" xlink:href="#m72723aff74" y="174.528"/>
     <use style="stroke:#000000;" x="325.44" xlink:href="#m72723aff74" y="144.782137"/>
     <use style="stroke:#000000;" x="324.717614" xlink:href="#m72723aff74" y="146.126613"/>
     <use style="stroke:#000000;" x="236.16" xlink:href="#m72723aff74" y="148.266783"/>
     <use style="stroke:#000000;" x="325.44" xlink:href="#m72723aff74" y="141.004225"/>
     <use style="stroke:#000000;" x="236.16" xlink:href="#m72723aff74" y="174.528"/>
     <use style="stroke:#000000;" x="272.930254" xlink:href="#m72723aff74" y="174.528"/>
     <use style="stroke:#000000;" x="236.16" xlink:href="#m72723aff74" y="136.95104"/>
     <use style="stroke:#000000;" x="311.143347" xlink:href="#m72723aff74" y="174.528"/>
     <use style="stroke:#000000;" x="256.279682" xlink:href="#m72723aff74" y="174.528"/>
     <use style="stroke:#000000;" x="236.16" xlink:href="#m72723aff74" y="135.107898"/>
     <use style="stroke:#000000;" x="236.16" xlink:href="#m72723aff74" y="171.849927"/>
     <use style="stroke:#000000;" x="249.113707" xlink:href="#m72723aff74" y="174.528"/>
     <use style="stroke:#000000;" x="325.44" xlink:href="#m72723aff74" y="139.984861"/>
     <use style="stroke:#000000;" x="255.366668" xlink:href="#m72723aff74" y="174.528"/>
     <use style="stroke:#000000;" x="325.44" xlink:href="#m72723aff74" y="139.977787"/>
     <use style="stroke:#000000;" x="325.44" xlink:href="#m72723aff74" y="137.113171"/>
     <use style="stroke:#000000;" x="242.122339" xlink:href="#m72723aff74" y="174.410819"/>
     <use style="stroke:#000000;" x="239.430705" xlink:href="#m72723aff74" y="145.177091"/>
     <use style="stroke:#000000;" x="236.512221" xlink:href="#m72723aff74" y="135.524147"/>
     <use style="stroke:#000000;" x="238.081224" xlink:href="#m72723aff74" y="134.625541"/>
     <use style="stroke:#000000;" x="236.16" xlink:href="#m72723aff74" y="134.73846"/>
     <use style="stroke:#000000;" x="237.617914" xlink:href="#m72723aff74" y="134.704186"/>
     <use style="stroke:#000000;" x="236.16" xlink:href="#m72723aff74" y="148.511259"/>
     <use style="stroke:#000000;" x="236.16" xlink:href="#m72723aff74" y="147.709258"/>
     <use style="stroke:#000000;" x="236.16" xlink:href="#m72723aff74" y="147.742134"/>
     <use style="stroke:#000000;" x="247.471578" xlink:href="#m72723aff74" y="174.528"/>
     <use style="stroke:#000000;" x="248.089632" xlink:href="#m72723aff74" y="173.472946"/>
     <use style="stroke:#000000;" x="247.192848" xlink:href="#m72723aff74" y="174.02823"/>
     <use style="stroke:#000000;" x="236.499819" xlink:href="#m72723aff74" y="167.641134"/>
     <use style="stroke:#000000;" x="236.162718" xlink:href="#m72723aff74" y="166.740716"/>
     <use style="stroke:#000000;" x="236.16" xlink:href="#m72723aff74" y="166.706382"/>
     <use style="stroke:#000000;" x="257.795968" xlink:href="#m72723aff74" y="174.528"/>
     <use style="stroke:#000000;" x="258.185996" xlink:href="#m72723aff74" y="174.528"/>
     <use style="stroke:#000000;" x="257.615671" xlink:href="#m72723aff74" y="174.301723"/>
     <use style="stroke:#000000;" x="237.012187" xlink:href="#m72723aff74" y="171.699537"/>
     <use style="stroke:#000000;" x="238.665843" xlink:href="#m72723aff74" y="171.974731"/>
     <use style="stroke:#000000;" x="236.16" xlink:href="#m72723aff74" y="171.334736"/>
     <use style="stroke:#000000;" x="257.201681" xlink:href="#m72723aff74" y="174.339163"/>
     <use style="stroke:#000000;" x="260.686447" xlink:href="#m72723aff74" y="173.338534"/>
     <use style="stroke:#000000;" x="258.772944" xlink:href="#m72723aff74" y="174.528"/>
     <use style="stroke:#000000;" x="236.16" xlink:href="#m72723aff74" y="151.598468"/>
     <use style="stroke:#000000;" x="236.16" xlink:href="#m72723aff74" y="151.279438"/>
     <use style="stroke:#000000;" x="236.16" xlink:href="#m72723aff74" y="152.516671"/>
     <use style="stroke:#000000;" x="324.246944" xlink:href="#m72723aff74" y="139.431356"/>
     <use style="stroke:#000000;" x="323.582163" xlink:href="#m72723aff74" y="139.370331"/>
     <use style="stroke:#000000;" x="323.012294" xlink:href="#m72723aff74" y="138.88588"/>
     <use style="stroke:#000000;" x="239.320797" xlink:href="#m72723aff74" y="174.528"/>
     <use style="stroke:#000000;" x="239.137325" xlink:href="#m72723aff74" y="173.491102"/>
     <use style="stroke:#000000;" x="238.236051" xlink:href="#m72723aff74" y="173.951837"/>
     <use style="stroke:#000000;" x="236.16" xlink:href="#m72723aff74" y="174.028882"/>
     <use style="stroke:#000000;" x="236.182142" xlink:href="#m72723aff74" y="174.117992"/>
     <use style="stroke:#000000;" x="236.861789" xlink:href="#m72723aff74" y="174.102322"/>
     <use style="stroke:#000000;" x="236.16" xlink:href="#m72723aff74" y="162.732158"/>
     <use style="stroke:#000000;" x="236.16" xlink:href="#m72723aff74" y="160.933693"/>
     <use style="stroke:#000000;" x="236.16" xlink:href="#m72723aff74" y="162.253623"/>
     <use style="stroke:#000000;" x="325.44" xlink:href="#m72723aff74" y="134.6112"/>
     <use style="stroke:#000000;" x="325.44" xlink:href="#m72723aff74" y="134.700051"/>
     <use style="stroke:#000000;" x="324.835939" xlink:href="#m72723aff74" y="134.6112"/>
     <use style="stroke:#000000;" x="325.437649" xlink:href="#m72723aff74" y="153.304347"/>
     <use style="stroke:#000000;" x="325.44" xlink:href="#m72723aff74" y="153.735824"/>
     <use style="stroke:#000000;" x="325.164589" xlink:href="#m72723aff74" y="152.912275"/>
     <use style="stroke:#000000;" x="251.010128" xlink:href="#m72723aff74" y="174.528"/>
     <use style="stroke:#000000;" x="236.16" xlink:href="#m72723aff74" y="146.977765"/>
     <use style="stroke:#000000;" x="236.16" xlink:href="#m72723aff74" y="145.601942"/>
     <use style="stroke:#000000;" x="236.16" xlink:href="#m72723aff74" y="146.52588"/>
     <use style="stroke:#000000;" x="236.260775" xlink:href="#m72723aff74" y="174.528"/>
     <use style="stroke:#000000;" x="323.883288" xlink:href="#m72723aff74" y="173.854506"/>
     <use style="stroke:#000000;" x="320.782117" xlink:href="#m72723aff74" y="173.027625"/>
     <use style="stroke:#000000;" x="325.44" xlink:href="#m72723aff74" y="173.965546"/>
     <use style="stroke:#000000;" x="236.16" xlink:href="#m72723aff74" y="174.528"/>
     <use style="stroke:#000000;" x="241.329928" xlink:href="#m72723aff74" y="174.528"/>
     <use style="stroke:#000000;" x="241.235073" xlink:href="#m72723aff74" y="134.6112"/>
     <use style="stroke:#000000;" x="237.899928" xlink:href="#m72723aff74" y="135.544605"/>
     <use style="stroke:#000000;" x="237.195439" xlink:href="#m72723aff74" y="135.032459"/>
     <use style="stroke:#000000;" x="251.707465" xlink:href="#m72723aff74" y="173.249822"/>
     <use style="stroke:#000000;" x="325.44" xlink:href="#m72723aff74" y="141.979473"/>
     <use style="stroke:#000000;" x="325.44" xlink:href="#m72723aff74" y="143.366308"/>
     <use style="stroke:#000000;" x="325.44" xlink:href="#m72723aff74" y="141.520042"/>
     <use style="stroke:#000000;" x="321.794075" xlink:href="#m72723aff74" y="138.940072"/>
     <use style="stroke:#000000;" x="322.899329" xlink:href="#m72723aff74" y="139.626398"/>
     <use style="stroke:#000000;" x="325.44" xlink:href="#m72723aff74" y="139.891721"/>
     <use style="stroke:#000000;" x="236.16" xlink:href="#m72723aff74" y="144.568899"/>
     <use style="stroke:#000000;" x="237.947363" xlink:href="#m72723aff74" y="147.895462"/>
     <use style="stroke:#000000;" x="277.162176" xlink:href="#m72723aff74" y="174.528"/>
     <use style="stroke:#000000;" x="274.734078" xlink:href="#m72723aff74" y="174.528"/>
     <use style="stroke:#000000;" x="279.53613" xlink:href="#m72723aff74" y="174.200026"/>
     <use style="stroke:#000000;" x="236.16" xlink:href="#m72723aff74" y="160.334466"/>
     <use style="stroke:#000000;" x="237.428247" xlink:href="#m72723aff74" y="162.81811"/>
     <use style="stroke:#000000;" x="236.16" xlink:href="#m72723aff74" y="162.705714"/>
     <use style="stroke:#000000;" x="237.767372" xlink:href="#m72723aff74" y="149.286814"/>
     <use style="stroke:#000000;" x="237.362713" xlink:href="#m72723aff74" y="150.328891"/>
     <use style="stroke:#000000;" x="236.63931" xlink:href="#m72723aff74" y="149.633783"/>
     <use style="stroke:#000000;" x="316.886671" xlink:href="#m72723aff74" y="136.401551"/>
     <use style="stroke:#000000;" x="238.517595" xlink:href="#m72723aff74" y="174.483999"/>
     <use style="stroke:#000000;" x="238.070255" xlink:href="#m72723aff74" y="174.528"/>
     <use style="stroke:#000000;" x="237.846977" xlink:href="#m72723aff74" y="174.528"/>
     <use style="stroke:#000000;" x="249.838202" xlink:href="#m72723aff74" y="174.528"/>
     <use style="stroke:#000000;" x="236.16" xlink:href="#m72723aff74" y="173.718381"/>
     <use style="stroke:#000000;" x="236.248669" xlink:href="#m72723aff74" y="172.934322"/>
     <use style="stroke:#000000;" x="236.16" xlink:href="#m72723aff74" y="174.454453"/>
     <use style="stroke:#000000;" x="236.16" xlink:href="#m72723aff74" y="170.176989"/>
     <use style="stroke:#000000;" x="236.16" xlink:href="#m72723aff74" y="174.528"/>
     <use style="stroke:#000000;" x="236.803184" xlink:href="#m72723aff74" y="174.528"/>
     <use style="stroke:#000000;" x="237.941644" xlink:href="#m72723aff74" y="174.025373"/>
     <use style="stroke:#000000;" x="238.876326" xlink:href="#m72723aff74" y="172.616247"/>
     <use style="stroke:#000000;" x="239.664243" xlink:href="#m72723aff74" y="172.538654"/>
     <use style="stroke:#000000;" x="236.16" xlink:href="#m72723aff74" y="171.995533"/>
     <use style="stroke:#000000;" x="236.16" xlink:href="#m72723aff74" y="163.434299"/>
     <use style="stroke:#000000;" x="237.167761" xlink:href="#m72723aff74" y="163.677615"/>
     <use style="stroke:#000000;" x="236.407172" xlink:href="#m72723aff74" y="165.195491"/>
     <use style="stroke:#000000;" x="236.16" xlink:href="#m72723aff74" y="136.525204"/>
     <use style="stroke:#000000;" x="238.60409" xlink:href="#m72723aff74" y="174.528"/>
     <use style="stroke:#000000;" x="236.16" xlink:href="#m72723aff74" y="174.528"/>
     <use style="stroke:#000000;" x="238.893205" xlink:href="#m72723aff74" y="134.6112"/>
     <use style="stroke:#000000;" x="237.080852" xlink:href="#m72723aff74" y="134.6112"/>
     <use style="stroke:#000000;" x="239.777983" xlink:href="#m72723aff74" y="135.853785"/>
     <use style="stroke:#000000;" x="236.16" xlink:href="#m72723aff74" y="174.528"/>
     <use style="stroke:#000000;" x="237.509935" xlink:href="#m72723aff74" y="174.528"/>
     <use style="stroke:#000000;" x="236.16" xlink:href="#m72723aff74" y="173.061371"/>
     <use style="stroke:#000000;" x="236.16" xlink:href="#m72723aff74" y="173.125346"/>
     <use style="stroke:#000000;" x="236.16" xlink:href="#m72723aff74" y="173.985553"/>
     <use style="stroke:#000000;" x="238.010695" xlink:href="#m72723aff74" y="139.716549"/>
     <use style="stroke:#000000;" x="236.16" xlink:href="#m72723aff74" y="140.582162"/>
     <use style="stroke:#000000;" x="239.76582" xlink:href="#m72723aff74" y="174.443876"/>
     <use style="stroke:#000000;" x="236.16" xlink:href="#m72723aff74" y="174.528"/>
     <use style="stroke:#000000;" x="237.654262" xlink:href="#m72723aff74" y="174.528"/>
     <use style="stroke:#000000;" x="238.434336" xlink:href="#m72723aff74" y="173.203246"/>
     <use style="stroke:#000000;" x="236.16" xlink:href="#m72723aff74" y="134.6112"/>
     <use style="stroke:#000000;" x="236.16" xlink:href="#m72723aff74" y="136.318573"/>
     <use style="stroke:#000000;" x="240.396113" xlink:href="#m72723aff74" y="135.062125"/>
     <use style="stroke:#000000;" x="236.16" xlink:href="#m72723aff74" y="135.820628"/>
     <use style="stroke:#000000;" x="239.012604" xlink:href="#m72723aff74" y="174.201531"/>
     <use style="stroke:#000000;" x="236.767743" xlink:href="#m72723aff74" y="174.528"/>
     <use style="stroke:#000000;" x="236.16" xlink:href="#m72723aff74" y="138.594447"/>
     <use style="stroke:#000000;" x="236.16" xlink:href="#m72723aff74" y="141.290229"/>
     <use style="stroke:#000000;" x="241.981994" xlink:href="#m72723aff74" y="174.528"/>
     <use style="stroke:#000000;" x="237.971313" xlink:href="#m72723aff74" y="135.549816"/>
     <use style="stroke:#000000;" x="236.16" xlink:href="#m72723aff74" y="134.987514"/>
     <use style="stroke:#000000;" x="237.058249" xlink:href="#m72723aff74" y="137.921788"/>
     <use style="stroke:#000000;" x="237.242843" xlink:href="#m72723aff74" y="135.671839"/>
     <use style="stroke:#000000;" x="241.30242" xlink:href="#m72723aff74" y="174.409689"/>
     <use style="stroke:#000000;" x="241.83411" xlink:href="#m72723aff74" y="174.528"/>
     <use style="stroke:#000000;" x="241.609536" xlink:href="#m72723aff74" y="174.528"/>
     <use style="stroke:#000000;" x="241.899201" xlink:href="#m72723aff74" y="174.528"/>
     <use style="stroke:#000000;" x="236.16" xlink:href="#m72723aff74" y="174.528"/>
     <use style="stroke:#000000;" x="239.694405" xlink:href="#m72723aff74" y="173.195432"/>
     <use style="stroke:#000000;" x="249.224369" xlink:href="#m72723aff74" y="174.528"/>
     <use style="stroke:#000000;" x="240.546481" xlink:href="#m72723aff74" y="174.528"/>
     <use style="stroke:#000000;" x="236.232629" xlink:href="#m72723aff74" y="136.10739"/>
     <use style="stroke:#000000;" x="237.505833" xlink:href="#m72723aff74" y="134.762401"/>
     <use style="stroke:#000000;" x="236.16" xlink:href="#m72723aff74" y="135.444743"/>
     <use style="stroke:#000000;" x="244.218133" xlink:href="#m72723aff74" y="134.6112"/>
     <use style="stroke:#000000;" x="248.696928" xlink:href="#m72723aff74" y="172.457996"/>
     <use style="stroke:#000000;" x="324.196546" xlink:href="#m72723aff74" y="145.554047"/>
     <use style="stroke:#000000;" x="325.44" xlink:href="#m72723aff74" y="144.775893"/>
     <use style="stroke:#000000;" x="236.16" xlink:href="#m72723aff74" y="149.767207"/>
     <use style="stroke:#000000;" x="320.953787" xlink:href="#m72723aff74" y="140.384776"/>
     <use style="stroke:#000000;" x="322.790918" xlink:href="#m72723aff74" y="141.23729"/>
     <use style="stroke:#000000;" x="236.16" xlink:href="#m72723aff74" y="174.528"/>
     <use style="stroke:#000000;" x="270.917456" xlink:href="#m72723aff74" y="174.528"/>
     <use style="stroke:#000000;" x="236.16" xlink:href="#m72723aff74" y="137.433438"/>
     <use style="stroke:#000000;" x="236.594195" xlink:href="#m72723aff74" y="139.137566"/>
     <use style="stroke:#000000;" x="318.05096" xlink:href="#m72723aff74" y="174.252199"/>
     <use style="stroke:#000000;" x="310.040577" xlink:href="#m72723aff74" y="171.85145"/>
     <use style="stroke:#000000;" x="256.860709" xlink:href="#m72723aff74" y="173.173013"/>
     <use style="stroke:#000000;" x="253.894497" xlink:href="#m72723aff74" y="173.959096"/>
     <use style="stroke:#000000;" x="236.16" xlink:href="#m72723aff74" y="134.854676"/>
     <use style="stroke:#000000;" x="237.562033" xlink:href="#m72723aff74" y="134.6112"/>
     <use style="stroke:#000000;" x="237.079296" xlink:href="#m72723aff74" y="171.070862"/>
     <use style="stroke:#000000;" x="249.258476" xlink:href="#m72723aff74" y="174.528"/>
     <use style="stroke:#000000;" x="252.620896" xlink:href="#m72723aff74" y="174.528"/>
     <use style="stroke:#000000;" x="325.409646" xlink:href="#m72723aff74" y="141.572851"/>
     <use style="stroke:#000000;" x="257.097921" xlink:href="#m72723aff74" y="174.528"/>
     <use style="stroke:#000000;" x="254.724178" xlink:href="#m72723aff74" y="174.528"/>
     <use style="stroke:#000000;" x="320.964456" xlink:href="#m72723aff74" y="139.611342"/>
     <use style="stroke:#000000;" x="321.732758" xlink:href="#m72723aff74" y="135.778889"/>
     <use style="stroke:#000000;" x="241.664981" xlink:href="#m72723aff74" y="173.105478"/>
     <use style="stroke:#000000;" x="245.320941" xlink:href="#m72723aff74" y="174.528"/>
    </g>
   </g>
   <g id="PathCollection_2">
    <defs>
     <path d="M 0 0.935414 
C 0.248075 0.935414 0.486022 0.836853 0.661438 0.661438 
C 0.836853 0.486022 0.935414 0.248075 0.935414 0 
C 0.935414 -0.248075 0.836853 -0.486022 0.661438 -0.661438 
C 0.486022 -0.836853 0.248075 -0.935414 0 -0.935414 
C -0.248075 -0.935414 -0.486022 -0.836853 -0.661438 -0.661438 
C -0.836853 -0.486022 -0.935414 -0.248075 -0.935414 0 
C -0.935414 0.248075 -0.836853 0.486022 -0.661438 0.661438 
C -0.486022 0.836853 -0.248075 0.935414 0 0.935414 
z
" id="mbdf11f3e39" style="stroke:#0000ff;"/>
    </defs>
    <g clip-path="url(#p283558817e)">
     <use style="fill:#0000ff;stroke:#0000ff;" x="236.16" xlink:href="#mbdf11f3e39" y="148.083228"/>
     <use style="fill:#0000ff;stroke:#0000ff;" x="236.16" xlink:href="#mbdf11f3e39" y="134.6112"/>
     <use style="fill:#0000ff;stroke:#0000ff;" x="236.16" xlink:href="#mbdf11f3e39" y="148.184735"/>
     <use style="fill:#0000ff;stroke:#0000ff;" x="246.140601" xlink:href="#mbdf11f3e39" y="174.528"/>
     <use style="fill:#0000ff;stroke:#0000ff;" x="236.16" xlink:href="#mbdf11f3e39" y="167.248278"/>
     <use style="fill:#0000ff;stroke:#0000ff;" x="257.389036" xlink:href="#mbdf11f3e39" y="174.528"/>
     <use style="fill:#0000ff;stroke:#0000ff;" x="236.16" xlink:href="#mbdf11f3e39" y="171.416918"/>
     <use style="fill:#0000ff;stroke:#0000ff;" x="257.830491" xlink:href="#mbdf11f3e39" y="174.528"/>
     <use style="fill:#0000ff;stroke:#0000ff;" x="236.16" xlink:href="#mbdf11f3e39" y="152.649947"/>
     <use style="fill:#0000ff;stroke:#0000ff;" x="325.44" xlink:href="#mbdf11f3e39" y="139.749424"/>
     <use style="fill:#0000ff;stroke:#0000ff;" x="240.21076" xlink:href="#mbdf11f3e39" y="174.528"/>
     <use style="fill:#0000ff;stroke:#0000ff;" x="236.16" xlink:href="#mbdf11f3e39" y="174.528"/>
     <use style="fill:#0000ff;stroke:#0000ff;" x="236.16" xlink:href="#mbdf11f3e39" y="162.469091"/>
     <use style="fill:#0000ff;stroke:#0000ff;" x="325.44" xlink:href="#mbdf11f3e39" y="134.6112"/>
     <use style="fill:#0000ff;stroke:#0000ff;" x="325.44" xlink:href="#mbdf11f3e39" y="152.411876"/>
     <use style="fill:#0000ff;stroke:#0000ff;" x="243.809483" xlink:href="#mbdf11f3e39" y="174.526063"/>
     <use style="fill:#0000ff;stroke:#0000ff;" x="236.16" xlink:href="#mbdf11f3e39" y="146.419474"/>
     <use style="fill:#0000ff;stroke:#0000ff;" x="236.16" xlink:href="#mbdf11f3e39" y="174.528"/>
     <use style="fill:#0000ff;stroke:#0000ff;" x="325.44" xlink:href="#mbdf11f3e39" y="172.936098"/>
     <use style="fill:#0000ff;stroke:#0000ff;" x="242.856911" xlink:href="#mbdf11f3e39" y="174.528"/>
     <use style="fill:#0000ff;stroke:#0000ff;" x="241.578144" xlink:href="#mbdf11f3e39" y="174.528"/>
     <use style="fill:#0000ff;stroke:#0000ff;" x="236.16" xlink:href="#mbdf11f3e39" y="134.6112"/>
     <use style="fill:#0000ff;stroke:#0000ff;" x="249.892558" xlink:href="#mbdf11f3e39" y="174.528"/>
     <use style="fill:#0000ff;stroke:#0000ff;" x="325.44" xlink:href="#mbdf11f3e39" y="142.468331"/>
     <use style="fill:#0000ff;stroke:#0000ff;" x="325.44" xlink:href="#mbdf11f3e39" y="139.273754"/>
     <use style="fill:#0000ff;stroke:#0000ff;" x="236.16" xlink:href="#mbdf11f3e39" y="143.334051"/>
     <use style="fill:#0000ff;stroke:#0000ff;" x="236.16" xlink:href="#mbdf11f3e39" y="145.57558"/>
     <use style="fill:#0000ff;stroke:#0000ff;" x="276.928275" xlink:href="#mbdf11f3e39" y="174.528"/>
     <use style="fill:#0000ff;stroke:#0000ff;" x="236.16" xlink:href="#mbdf11f3e39" y="162.00496"/>
     <use style="fill:#0000ff;stroke:#0000ff;" x="236.16" xlink:href="#mbdf11f3e39" y="149.121968"/>
     <use style="fill:#0000ff;stroke:#0000ff;" x="325.44" xlink:href="#mbdf11f3e39" y="137.333044"/>
     <use style="fill:#0000ff;stroke:#0000ff;" x="237.105824" xlink:href="#mbdf11f3e39" y="174.528"/>
     <use style="fill:#0000ff;stroke:#0000ff;" x="244.061038" xlink:href="#mbdf11f3e39" y="174.528"/>
     <use style="fill:#0000ff;stroke:#0000ff;" x="236.16" xlink:href="#mbdf11f3e39" y="173.428659"/>
     <use style="fill:#0000ff;stroke:#0000ff;" x="236.16" xlink:href="#mbdf11f3e39" y="174.528"/>
     <use style="fill:#0000ff;stroke:#0000ff;" x="236.16" xlink:href="#mbdf11f3e39" y="174.528"/>
     <use style="fill:#0000ff;stroke:#0000ff;" x="236.16" xlink:href="#mbdf11f3e39" y="172.45149"/>
     <use style="fill:#0000ff;stroke:#0000ff;" x="236.16" xlink:href="#mbdf11f3e39" y="163.545375"/>
     <use style="fill:#0000ff;stroke:#0000ff;" x="236.16" xlink:href="#mbdf11f3e39" y="136.436626"/>
     <use style="fill:#0000ff;stroke:#0000ff;" x="236.16" xlink:href="#mbdf11f3e39" y="174.528"/>
     <use style="fill:#0000ff;stroke:#0000ff;" x="236.16" xlink:href="#mbdf11f3e39" y="134.6112"/>
     <use style="fill:#0000ff;stroke:#0000ff;" x="236.16" xlink:href="#mbdf11f3e39" y="138.121396"/>
     <use style="fill:#0000ff;stroke:#0000ff;" x="236.16" xlink:href="#mbdf11f3e39" y="174.29451"/>
     <use style="fill:#0000ff;stroke:#0000ff;" x="236.765267" xlink:href="#mbdf11f3e39" y="174.528"/>
     <use style="fill:#0000ff;stroke:#0000ff;" x="236.16" xlink:href="#mbdf11f3e39" y="173.511736"/>
     <use style="fill:#0000ff;stroke:#0000ff;" x="236.16" xlink:href="#mbdf11f3e39" y="140.673667"/>
     <use style="fill:#0000ff;stroke:#0000ff;" x="236.16" xlink:href="#mbdf11f3e39" y="174.528"/>
     <use style="fill:#0000ff;stroke:#0000ff;" x="236.16" xlink:href="#mbdf11f3e39" y="174.528"/>
     <use style="fill:#0000ff;stroke:#0000ff;" x="236.16" xlink:href="#mbdf11f3e39" y="135.036168"/>
     <use style="fill:#0000ff;stroke:#0000ff;" x="236.309418" xlink:href="#mbdf11f3e39" y="134.6112"/>
     <use style="fill:#0000ff;stroke:#0000ff;" x="241.321433" xlink:href="#mbdf11f3e39" y="174.528"/>
     <use style="fill:#0000ff;stroke:#0000ff;" x="236.16" xlink:href="#mbdf11f3e39" y="140.114782"/>
     <use style="fill:#0000ff;stroke:#0000ff;" x="244.698591" xlink:href="#mbdf11f3e39" y="174.528"/>
     <use style="fill:#0000ff;stroke:#0000ff;" x="236.16" xlink:href="#mbdf11f3e39" y="134.984422"/>
     <use style="fill:#0000ff;stroke:#0000ff;" x="236.16" xlink:href="#mbdf11f3e39" y="137.677876"/>
     <use style="fill:#0000ff;stroke:#0000ff;" x="243.084906" xlink:href="#mbdf11f3e39" y="174.528"/>
     <use style="fill:#0000ff;stroke:#0000ff;" x="243.235326" xlink:href="#mbdf11f3e39" y="174.528"/>
     <use style="fill:#0000ff;stroke:#0000ff;" x="239.614967" xlink:href="#mbdf11f3e39" y="174.528"/>
     <use style="fill:#0000ff;stroke:#0000ff;" x="244.69597" xlink:href="#mbdf11f3e39" y="174.528"/>
     <use style="fill:#0000ff;stroke:#0000ff;" x="236.16" xlink:href="#mbdf11f3e39" y="135.416422"/>
     <use style="fill:#0000ff;stroke:#0000ff;" x="236.800952" xlink:href="#mbdf11f3e39" y="134.6112"/>
     <use style="fill:#0000ff;stroke:#0000ff;" x="239.526113" xlink:href="#mbdf11f3e39" y="134.6112"/>
     <use style="fill:#0000ff;stroke:#0000ff;" x="246.819762" xlink:href="#mbdf11f3e39" y="174.528"/>
     <use style="fill:#0000ff;stroke:#0000ff;" x="325.44" xlink:href="#mbdf11f3e39" y="144.782137"/>
     <use style="fill:#0000ff;stroke:#0000ff;" x="324.717614" xlink:href="#mbdf11f3e39" y="146.126613"/>
     <use style="fill:#0000ff;stroke:#0000ff;" x="236.16" xlink:href="#mbdf11f3e39" y="148.266783"/>
     <use style="fill:#0000ff;stroke:#0000ff;" x="325.44" xlink:href="#mbdf11f3e39" y="141.004225"/>
     <use style="fill:#0000ff;stroke:#0000ff;" x="236.16" xlink:href="#mbdf11f3e39" y="174.528"/>
     <use style="fill:#0000ff;stroke:#0000ff;" x="272.930254" xlink:href="#mbdf11f3e39" y="174.528"/>
     <use style="fill:#0000ff;stroke:#0000ff;" x="236.16" xlink:href="#mbdf11f3e39" y="136.95104"/>
     <use style="fill:#0000ff;stroke:#0000ff;" x="311.143347" xlink:href="#mbdf11f3e39" y="174.528"/>
     <use style="fill:#0000ff;stroke:#0000ff;" x="256.279682" xlink:href="#mbdf11f3e39" y="174.528"/>
     <use style="fill:#0000ff;stroke:#0000ff;" x="236.16" xlink:href="#mbdf11f3e39" y="135.107898"/>
     <use style="fill:#0000ff;stroke:#0000ff;" x="236.16" xlink:href="#mbdf11f3e39" y="171.849927"/>
     <use style="fill:#0000ff;stroke:#0000ff;" x="249.113707" xlink:href="#mbdf11f3e39" y="174.528"/>
     <use style="fill:#0000ff;stroke:#0000ff;" x="325.44" xlink:href="#mbdf11f3e39" y="139.984861"/>
     <use style="fill:#0000ff;stroke:#0000ff;" x="255.366668" xlink:href="#mbdf11f3e39" y="174.528"/>
     <use style="fill:#0000ff;stroke:#0000ff;" x="325.44" xlink:href="#mbdf11f3e39" y="139.977787"/>
     <use style="fill:#0000ff;stroke:#0000ff;" x="325.44" xlink:href="#mbdf11f3e39" y="137.113171"/>
     <use style="fill:#0000ff;stroke:#0000ff;" x="242.122339" xlink:href="#mbdf11f3e39" y="174.410819"/>
    </g>
   </g>
   <g id="matplotlib.axis_1">
    <g id="xtick_1">
     <g id="line2d_1">
      <defs>
       <path d="M 0 0 
L 0 3.5 
" id="m577b06096e" style="stroke:#000000;stroke-width:0.8;"/>
      </defs>
      <g>
       <use style="stroke:#000000;stroke-width:0.8;" x="57.6" xlink:href="#m577b06096e" y="307.584"/>
      </g>
     </g>
     <g id="text_1">
      <!-- −10.0 -->
      <defs>
       <path d="M 10.59375 35.5 
L 73.1875 35.5 
L 73.1875 27.203125 
L 10.59375 27.203125 
z
" id="DejaVuSans-2212"/>
       <path d="M 12.40625 8.296875 
L 28.515625 8.296875 
L 28.515625 63.921875 
L 10.984375 60.40625 
L 10.984375 69.390625 
L 28.421875 72.90625 
L 38.28125 72.90625 
L 38.28125 8.296875 
L 54.390625 8.296875 
L 54.390625 0 
L 12.40625 0 
z
" id="DejaVuSans-31"/>
       <path d="M 31.78125 66.40625 
Q 24.171875 66.40625 20.328125 58.90625 
Q 16.5 51.421875 16.5 36.375 
Q 16.5 21.390625 20.328125 13.890625 
Q 24.171875 6.390625 31.78125 6.390625 
Q 39.453125 6.390625 43.28125 13.890625 
Q 47.125 21.390625 47.125 36.375 
Q 47.125 51.421875 43.28125 58.90625 
Q 39.453125 66.40625 31.78125 66.40625 
z
M 31.78125 74.21875 
Q 44.046875 74.21875 50.515625 64.515625 
Q 56.984375 54.828125 56.984375 36.375 
Q 56.984375 17.96875 50.515625 8.265625 
Q 44.046875 -1.421875 31.78125 -1.421875 
Q 19.53125 -1.421875 13.0625 8.265625 
Q 6.59375 17.96875 6.59375 36.375 
Q 6.59375 54.828125 13.0625 64.515625 
Q 19.53125 74.21875 31.78125 74.21875 
z
" id="DejaVuSans-30"/>
       <path d="M 10.6875 12.40625 
L 21 12.40625 
L 21 0 
L 10.6875 0 
z
" id="DejaVuSans-2e"/>
      </defs>
      <g transform="translate(42.277344 322.182437)scale(0.1 -0.1)">
       <use xlink:href="#DejaVuSans-2212"/>
       <use x="83.789062" xlink:href="#DejaVuSans-31"/>
       <use x="147.412109" xlink:href="#DejaVuSans-30"/>
       <use x="211.035156" xlink:href="#DejaVuSans-2e"/>
       <use x="242.822266" xlink:href="#DejaVuSans-30"/>
      </g>
     </g>
    </g>
    <g id="xtick_2">
     <g id="line2d_2">
      <g>
       <use style="stroke:#000000;stroke-width:0.8;" x="102.24" xlink:href="#m577b06096e" y="307.584"/>
      </g>
     </g>
     <g id="text_2">
      <!-- −7.5 -->
      <defs>
       <path d="M 8.203125 72.90625 
L 55.078125 72.90625 
L 55.078125 68.703125 
L 28.609375 0 
L 18.3125 0 
L 43.21875 64.59375 
L 8.203125 64.59375 
z
" id="DejaVuSans-37"/>
       <path d="M 10.796875 72.90625 
L 49.515625 72.90625 
L 49.515625 64.59375 
L 19.828125 64.59375 
L 19.828125 46.734375 
Q 21.96875 47.46875 24.109375 47.828125 
Q 26.265625 48.1875 28.421875 48.1875 
Q 40.625 48.1875 47.75 41.5 
Q 54.890625 34.8125 54.890625 23.390625 
Q 54.890625 11.625 47.5625 5.09375 
Q 40.234375 -1.421875 26.90625 -1.421875 
Q 22.3125 -1.421875 17.546875 -0.640625 
Q 12.796875 0.140625 7.71875 1.703125 
L 7.71875 11.625 
Q 12.109375 9.234375 16.796875 8.0625 
Q 21.484375 6.890625 26.703125 6.890625 
Q 35.15625 6.890625 40.078125 11.328125 
Q 45.015625 15.765625 45.015625 23.390625 
Q 45.015625 31 40.078125 35.4375 
Q 35.15625 39.890625 26.703125 39.890625 
Q 22.75 39.890625 18.8125 39.015625 
Q 14.890625 38.140625 10.796875 36.28125 
z
" id="DejaVuSans-35"/>
      </defs>
      <g transform="translate(90.098594 322.182437)scale(0.1 -0.1)">
       <use xlink:href="#DejaVuSans-2212"/>
       <use x="83.789062" xlink:href="#DejaVuSans-37"/>
       <use x="147.412109" xlink:href="#DejaVuSans-2e"/>
       <use x="179.199219" xlink:href="#DejaVuSans-35"/>
      </g>
     </g>
    </g>
    <g id="xtick_3">
     <g id="line2d_3">
      <g>
       <use style="stroke:#000000;stroke-width:0.8;" x="146.88" xlink:href="#m577b06096e" y="307.584"/>
      </g>
     </g>
     <g id="text_3">
      <!-- −5.0 -->
      <g transform="translate(134.738594 322.182437)scale(0.1 -0.1)">
       <use xlink:href="#DejaVuSans-2212"/>
       <use x="83.789062" xlink:href="#DejaVuSans-35"/>
       <use x="147.412109" xlink:href="#DejaVuSans-2e"/>
       <use x="179.199219" xlink:href="#DejaVuSans-30"/>
      </g>
     </g>
    </g>
    <g id="xtick_4">
     <g id="line2d_4">
      <g>
       <use style="stroke:#000000;stroke-width:0.8;" x="191.52" xlink:href="#m577b06096e" y="307.584"/>
      </g>
     </g>
     <g id="text_4">
      <!-- −2.5 -->
      <defs>
       <path d="M 19.1875 8.296875 
L 53.609375 8.296875 
L 53.609375 0 
L 7.328125 0 
L 7.328125 8.296875 
Q 12.9375 14.109375 22.625 23.890625 
Q 32.328125 33.6875 34.8125 36.53125 
Q 39.546875 41.84375 41.421875 45.53125 
Q 43.3125 49.21875 43.3125 52.78125 
Q 43.3125 58.59375 39.234375 62.25 
Q 35.15625 65.921875 28.609375 65.921875 
Q 23.96875 65.921875 18.8125 64.3125 
Q 13.671875 62.703125 7.8125 59.421875 
L 7.8125 69.390625 
Q 13.765625 71.78125 18.9375 73 
Q 24.125 74.21875 28.421875 74.21875 
Q 39.75 74.21875 46.484375 68.546875 
Q 53.21875 62.890625 53.21875 53.421875 
Q 53.21875 48.921875 51.53125 44.890625 
Q 49.859375 40.875 45.40625 35.40625 
Q 44.1875 33.984375 37.640625 27.21875 
Q 31.109375 20.453125 19.1875 8.296875 
z
" id="DejaVuSans-32"/>
      </defs>
      <g transform="translate(179.378594 322.182437)scale(0.1 -0.1)">
       <use xlink:href="#DejaVuSans-2212"/>
       <use x="83.789062" xlink:href="#DejaVuSans-32"/>
       <use x="147.412109" xlink:href="#DejaVuSans-2e"/>
       <use x="179.199219" xlink:href="#DejaVuSans-35"/>
      </g>
     </g>
    </g>
    <g id="xtick_5">
     <g id="line2d_5">
      <g>
       <use style="stroke:#000000;stroke-width:0.8;" x="236.16" xlink:href="#m577b06096e" y="307.584"/>
      </g>
     </g>
     <g id="text_5">
      <!-- 0.0 -->
      <g transform="translate(228.208438 322.182437)scale(0.1 -0.1)">
       <use xlink:href="#DejaVuSans-30"/>
       <use x="63.623047" xlink:href="#DejaVuSans-2e"/>
       <use x="95.410156" xlink:href="#DejaVuSans-30"/>
      </g>
     </g>
    </g>
    <g id="xtick_6">
     <g id="line2d_6">
      <g>
       <use style="stroke:#000000;stroke-width:0.8;" x="280.8" xlink:href="#m577b06096e" y="307.584"/>
      </g>
     </g>
     <g id="text_6">
      <!-- 2.5 -->
      <g transform="translate(272.848437 322.182437)scale(0.1 -0.1)">
       <use xlink:href="#DejaVuSans-32"/>
       <use x="63.623047" xlink:href="#DejaVuSans-2e"/>
       <use x="95.410156" xlink:href="#DejaVuSans-35"/>
      </g>
     </g>
    </g>
    <g id="xtick_7">
     <g id="line2d_7">
      <g>
       <use style="stroke:#000000;stroke-width:0.8;" x="325.44" xlink:href="#m577b06096e" y="307.584"/>
      </g>
     </g>
     <g id="text_7">
      <!-- 5.0 -->
      <g transform="translate(317.488437 322.182437)scale(0.1 -0.1)">
       <use xlink:href="#DejaVuSans-35"/>
       <use x="63.623047" xlink:href="#DejaVuSans-2e"/>
       <use x="95.410156" xlink:href="#DejaVuSans-30"/>
      </g>
     </g>
    </g>
    <g id="xtick_8">
     <g id="line2d_8">
      <g>
       <use style="stroke:#000000;stroke-width:0.8;" x="370.08" xlink:href="#m577b06096e" y="307.584"/>
      </g>
     </g>
     <g id="text_8">
      <!-- 7.5 -->
      <g transform="translate(362.128438 322.182437)scale(0.1 -0.1)">
       <use xlink:href="#DejaVuSans-37"/>
       <use x="63.623047" xlink:href="#DejaVuSans-2e"/>
       <use x="95.410156" xlink:href="#DejaVuSans-35"/>
      </g>
     </g>
    </g>
    <g id="xtick_9">
     <g id="line2d_9">
      <g>
       <use style="stroke:#000000;stroke-width:0.8;" x="414.72" xlink:href="#m577b06096e" y="307.584"/>
      </g>
     </g>
     <g id="text_9">
      <!-- 10.0 -->
      <g transform="translate(403.587188 322.182437)scale(0.1 -0.1)">
       <use xlink:href="#DejaVuSans-31"/>
       <use x="63.623047" xlink:href="#DejaVuSans-30"/>
       <use x="127.246094" xlink:href="#DejaVuSans-2e"/>
       <use x="159.033203" xlink:href="#DejaVuSans-30"/>
      </g>
     </g>
    </g>
   </g>
   <g id="matplotlib.axis_2">
    <g id="ytick_1">
     <g id="line2d_10">
      <defs>
       <path d="M 0 0 
L -3.5 0 
" id="m894230d86b" style="stroke:#000000;stroke-width:0.8;"/>
      </defs>
      <g>
       <use style="stroke:#000000;stroke-width:0.8;" x="57.6" xlink:href="#m894230d86b" y="307.584"/>
      </g>
     </g>
     <g id="text_10">
      <!-- −10.0 -->
      <g transform="translate(19.954687 311.383219)scale(0.1 -0.1)">
       <use xlink:href="#DejaVuSans-2212"/>
       <use x="83.789062" xlink:href="#DejaVuSans-31"/>
       <use x="147.412109" xlink:href="#DejaVuSans-30"/>
       <use x="211.035156" xlink:href="#DejaVuSans-2e"/>
       <use x="242.822266" xlink:href="#DejaVuSans-30"/>
      </g>
     </g>
    </g>
    <g id="ytick_2">
     <g id="line2d_11">
      <g>
       <use style="stroke:#000000;stroke-width:0.8;" x="57.6" xlink:href="#m894230d86b" y="274.32"/>
      </g>
     </g>
     <g id="text_11">
      <!-- −7.5 -->
      <g transform="translate(26.317187 278.119219)scale(0.1 -0.1)">
       <use xlink:href="#DejaVuSans-2212"/>
       <use x="83.789062" xlink:href="#DejaVuSans-37"/>
       <use x="147.412109" xlink:href="#DejaVuSans-2e"/>
       <use x="179.199219" xlink:href="#DejaVuSans-35"/>
      </g>
     </g>
    </g>
    <g id="ytick_3">
     <g id="line2d_12">
      <g>
       <use style="stroke:#000000;stroke-width:0.8;" x="57.6" xlink:href="#m894230d86b" y="241.056"/>
      </g>
     </g>
     <g id="text_12">
      <!-- −5.0 -->
      <g transform="translate(26.317187 244.855219)scale(0.1 -0.1)">
       <use xlink:href="#DejaVuSans-2212"/>
       <use x="83.789062" xlink:href="#DejaVuSans-35"/>
       <use x="147.412109" xlink:href="#DejaVuSans-2e"/>
       <use x="179.199219" xlink:href="#DejaVuSans-30"/>
      </g>
     </g>
    </g>
    <g id="ytick_4">
     <g id="line2d_13">
      <g>
       <use style="stroke:#000000;stroke-width:0.8;" x="57.6" xlink:href="#m894230d86b" y="207.792"/>
      </g>
     </g>
     <g id="text_13">
      <!-- −2.5 -->
      <g transform="translate(26.317187 211.591219)scale(0.1 -0.1)">
       <use xlink:href="#DejaVuSans-2212"/>
       <use x="83.789062" xlink:href="#DejaVuSans-32"/>
       <use x="147.412109" xlink:href="#DejaVuSans-2e"/>
       <use x="179.199219" xlink:href="#DejaVuSans-35"/>
      </g>
     </g>
    </g>
    <g id="ytick_5">
     <g id="line2d_14">
      <g>
       <use style="stroke:#000000;stroke-width:0.8;" x="57.6" xlink:href="#m894230d86b" y="174.528"/>
      </g>
     </g>
     <g id="text_14">
      <!-- 0.0 -->
      <g transform="translate(34.696875 178.327219)scale(0.1 -0.1)">
       <use xlink:href="#DejaVuSans-30"/>
       <use x="63.623047" xlink:href="#DejaVuSans-2e"/>
       <use x="95.410156" xlink:href="#DejaVuSans-30"/>
      </g>
     </g>
    </g>
    <g id="ytick_6">
     <g id="line2d_15">
      <g>
       <use style="stroke:#000000;stroke-width:0.8;" x="57.6" xlink:href="#m894230d86b" y="141.264"/>
      </g>
     </g>
     <g id="text_15">
      <!-- 2.5 -->
      <g transform="translate(34.696875 145.063219)scale(0.1 -0.1)">
       <use xlink:href="#DejaVuSans-32"/>
       <use x="63.623047" xlink:href="#DejaVuSans-2e"/>
       <use x="95.410156" xlink:href="#DejaVuSans-35"/>
      </g>
     </g>
    </g>
    <g id="ytick_7">
     <g id="line2d_16">
      <g>
       <use style="stroke:#000000;stroke-width:0.8;" x="57.6" xlink:href="#m894230d86b" y="108"/>
      </g>
     </g>
     <g id="text_16">
      <!-- 5.0 -->
      <g transform="translate(34.696875 111.799219)scale(0.1 -0.1)">
       <use xlink:href="#DejaVuSans-35"/>
       <use x="63.623047" xlink:href="#DejaVuSans-2e"/>
       <use x="95.410156" xlink:href="#DejaVuSans-30"/>
      </g>
     </g>
    </g>
    <g id="ytick_8">
     <g id="line2d_17">
      <g>
       <use style="stroke:#000000;stroke-width:0.8;" x="57.6" xlink:href="#m894230d86b" y="74.736"/>
      </g>
     </g>
     <g id="text_17">
      <!-- 7.5 -->
      <g transform="translate(34.696875 78.535219)scale(0.1 -0.1)">
       <use xlink:href="#DejaVuSans-37"/>
       <use x="63.623047" xlink:href="#DejaVuSans-2e"/>
       <use x="95.410156" xlink:href="#DejaVuSans-35"/>
      </g>
     </g>
    </g>
    <g id="ytick_9">
     <g id="line2d_18">
      <g>
       <use style="stroke:#000000;stroke-width:0.8;" x="57.6" xlink:href="#m894230d86b" y="41.472"/>
      </g>
     </g>
     <g id="text_18">
      <!-- 10.0 -->
      <g transform="translate(28.334375 45.271219)scale(0.1 -0.1)">
       <use xlink:href="#DejaVuSans-31"/>
       <use x="63.623047" xlink:href="#DejaVuSans-30"/>
       <use x="127.246094" xlink:href="#DejaVuSans-2e"/>
       <use x="159.033203" xlink:href="#DejaVuSans-30"/>
      </g>
     </g>
    </g>
   </g>
   <g id="patch_3">
    <path d="M 57.6 307.584 
L 57.6 41.472 
" style="fill:none;stroke:#000000;stroke-linecap:square;stroke-linejoin:miter;stroke-width:0.8;"/>
   </g>
   <g id="patch_4">
    <path d="M 414.72 307.584 
L 414.72 41.472 
" style="fill:none;stroke:#000000;stroke-linecap:square;stroke-linejoin:miter;stroke-width:0.8;"/>
   </g>
   <g id="patch_5">
    <path d="M 57.6 307.584 
L 414.72 307.584 
" style="fill:none;stroke:#000000;stroke-linecap:square;stroke-linejoin:miter;stroke-width:0.8;"/>
   </g>
   <g id="patch_6">
    <path d="M 57.6 41.472 
L 414.72 41.472 
" style="fill:none;stroke:#000000;stroke-linecap:square;stroke-linejoin:miter;stroke-width:0.8;"/>
   </g>
  </g>
 </g>
 <defs>
  <clipPath id="p283558817e">
   <rect height="266.112" width="357.12" x="57.6" y="41.472"/>
  </clipPath>
 </defs>
</svg>
