<?xml version="1.0" encoding="utf-8" standalone="no"?>
<!DOCTYPE svg PUBLIC "-//W3C//DTD SVG 1.1//EN"
  "http://www.w3.org/Graphics/SVG/1.1/DTD/svg11.dtd">
<!-- Created with matplotlib (http://matplotlib.org/) -->
<svg height="345.6pt" version="1.1" viewBox="0 0 460.8 345.6" width="460.8pt" xmlns="http://www.w3.org/2000/svg" xmlns:xlink="http://www.w3.org/1999/xlink">
 <defs>
  <style type="text/css">
*{stroke-linecap:butt;stroke-linejoin:round;}
  </style>
 </defs>
 <g id="figure_1">
  <g id="patch_1">
   <path d="M 0 345.6 
L 460.8 345.6 
L 460.8 0 
L 0 0 
z
" style="fill:#ffffff;"/>
  </g>
  <g id="axes_1">
   <g id="patch_2">
    <path d="M 57.6 307.584 
L 414.72 307.584 
L 414.72 41.472 
L 57.6 41.472 
z
" style="fill:#ffffff;"/>
   </g>
   <g id="PathCollection_1">
    <defs>
     <path d="M 0 0.612372 
C 0.162403 0.612372 0.318176 0.547849 0.433013 0.433013 
C 0.547849 0.318176 0.612372 0.162403 0.612372 0 
C 0.612372 -0.162403 0.547849 -0.318176 0.433013 -0.433013 
C 0.318176 -0.547849 0.162403 -0.612372 0 -0.612372 
C -0.162403 -0.612372 -0.318176 -0.547849 -0.433013 -0.433013 
C -0.547849 -0.318176 -0.612372 -0.162403 -0.612372 0 
C -0.612372 0.162403 -0.547849 0.318176 -0.433013 0.433013 
C -0.318176 0.547849 -0.162403 0.612372 0 0.612372 
z
" id="m861c1fb30a" style="stroke:#000000;"/>
    </defs>
    <g clip-path="url(#p62e536f166)">
     <use style="stroke:#000000;" x="236.16" xlink:href="#m861c1fb30a" y="170.185396"/>
     <use style="stroke:#000000;" x="247.208194" xlink:href="#m861c1fb30a" y="166.162313"/>
     <use style="stroke:#000000;" x="236.798693" xlink:href="#m861c1fb30a" y="171.699325"/>
     <use style="stroke:#000000;" x="239.798008" xlink:href="#m861c1fb30a" y="163.195555"/>
     <use style="stroke:#000000;" x="236.486791" xlink:href="#m861c1fb30a" y="161.701745"/>
     <use style="stroke:#000000;" x="240.908866" xlink:href="#m861c1fb30a" y="171.922628"/>
     <use style="stroke:#000000;" x="240.586124" xlink:href="#m861c1fb30a" y="163.109517"/>
     <use style="stroke:#000000;" x="244.169341" xlink:href="#m861c1fb30a" y="163.539433"/>
     <use style="stroke:#000000;" x="251.117061" xlink:href="#m861c1fb30a" y="171.369472"/>
     <use style="stroke:#000000;" x="247.261104" xlink:href="#m861c1fb30a" y="164.205267"/>
     <use style="stroke:#000000;" x="250.891151" xlink:href="#m861c1fb30a" y="167.386348"/>
     <use style="stroke:#000000;" x="237.180538" xlink:href="#m861c1fb30a" y="168.069729"/>
     <use style="stroke:#000000;" x="243.695527" xlink:href="#m861c1fb30a" y="161.724413"/>
     <use style="stroke:#000000;" x="247.854221" xlink:href="#m861c1fb30a" y="165.46771"/>
     <use style="stroke:#000000;" x="244.040255" xlink:href="#m861c1fb30a" y="161.723105"/>
     <use style="stroke:#000000;" x="247.603621" xlink:href="#m861c1fb30a" y="162.918316"/>
     <use style="stroke:#000000;" x="243.832043" xlink:href="#m861c1fb30a" y="169.860944"/>
     <use style="stroke:#000000;" x="240.749909" xlink:href="#m861c1fb30a" y="166.851046"/>
     <use style="stroke:#000000;" x="240.711635" xlink:href="#m861c1fb30a" y="161.431423"/>
     <use style="stroke:#000000;" x="236.16" xlink:href="#m861c1fb30a" y="169.595999"/>
     <use style="stroke:#000000;" x="243.962667" xlink:href="#m861c1fb30a" y="165.772562"/>
     <use style="stroke:#000000;" x="237.380739" xlink:href="#m861c1fb30a" y="169.629912"/>
     <use style="stroke:#000000;" x="237.75448" xlink:href="#m861c1fb30a" y="168.242421"/>
     <use style="stroke:#000000;" x="240.31078" xlink:href="#m861c1fb30a" y="171.052703"/>
     <use style="stroke:#000000;" x="237.214075" xlink:href="#m861c1fb30a" y="166.764916"/>
     <use style="stroke:#000000;" x="241.778739" xlink:href="#m861c1fb30a" y="171.270235"/>
     <use style="stroke:#000000;" x="240.310013" xlink:href="#m861c1fb30a" y="161.2224"/>
     <use style="stroke:#000000;" x="241.233404" xlink:href="#m861c1fb30a" y="166.218834"/>
     <use style="stroke:#000000;" x="243.915152" xlink:href="#m861c1fb30a" y="164.54256"/>
     <use style="stroke:#000000;" x="241.161864" xlink:href="#m861c1fb30a" y="165.904679"/>
     <use style="stroke:#000000;" x="244.28697" xlink:href="#m861c1fb30a" y="167.292136"/>
     <use style="stroke:#000000;" x="247.619632" xlink:href="#m861c1fb30a" y="172.821508"/>
     <use style="stroke:#000000;" x="247.476553" xlink:href="#m861c1fb30a" y="165.576031"/>
     <use style="stroke:#000000;" x="251.225129" xlink:href="#m861c1fb30a" y="170.728587"/>
     <use style="stroke:#000000;" x="251.250071" xlink:href="#m861c1fb30a" y="170.880541"/>
     <use style="stroke:#000000;" x="251.272087" xlink:href="#m861c1fb30a" y="169.310186"/>
     <use style="stroke:#000000;" x="237.852669" xlink:href="#m861c1fb30a" y="167.806395"/>
     <use style="stroke:#000000;" x="248.242736" xlink:href="#m861c1fb30a" y="165.595239"/>
     <use style="stroke:#000000;" x="237.857927" xlink:href="#m861c1fb30a" y="166.667064"/>
     <use style="stroke:#000000;" x="247.64349" xlink:href="#m861c1fb30a" y="167.071918"/>
     <use style="stroke:#000000;" x="236.731181" xlink:href="#m861c1fb30a" y="166.831599"/>
     <use style="stroke:#000000;" x="244.13468" xlink:href="#m861c1fb30a" y="168.454263"/>
     <use style="stroke:#000000;" x="236.16" xlink:href="#m861c1fb30a" y="169.693712"/>
     <use style="stroke:#000000;" x="237.870871" xlink:href="#m861c1fb30a" y="162.891811"/>
     <use style="stroke:#000000;" x="237.623698" xlink:href="#m861c1fb30a" y="161.480984"/>
     <use style="stroke:#000000;" x="240.940789" xlink:href="#m861c1fb30a" y="166.548138"/>
     <use style="stroke:#000000;" x="240.782342" xlink:href="#m861c1fb30a" y="165.78125"/>
     <use style="stroke:#000000;" x="237.345221" xlink:href="#m861c1fb30a" y="168.009925"/>
     <use style="stroke:#000000;" x="243.821589" xlink:href="#m861c1fb30a" y="165.15697"/>
     <use style="stroke:#000000;" x="240.440242" xlink:href="#m861c1fb30a" y="169.921517"/>
     <use style="stroke:#000000;" x="243.504483" xlink:href="#m861c1fb30a" y="166.293933"/>
     <use style="stroke:#000000;" x="243.585809" xlink:href="#m861c1fb30a" y="163.572958"/>
     <use style="stroke:#000000;" x="243.433756" xlink:href="#m861c1fb30a" y="161.853379"/>
     <use style="stroke:#000000;" x="241.720112" xlink:href="#m861c1fb30a" y="170.60006"/>
     <use style="stroke:#000000;" x="244.529117" xlink:href="#m861c1fb30a" y="171.545737"/>
     <use style="stroke:#000000;" x="244.789439" xlink:href="#m861c1fb30a" y="161.2224"/>
     <use style="stroke:#000000;" x="247.654996" xlink:href="#m861c1fb30a" y="164.173262"/>
     <use style="stroke:#000000;" x="251.406275" xlink:href="#m861c1fb30a" y="168.710555"/>
     <use style="stroke:#000000;" x="251.375506" xlink:href="#m861c1fb30a" y="170.090356"/>
     <use style="stroke:#000000;" x="239.681375" xlink:href="#m861c1fb30a" y="169.862392"/>
     <use style="stroke:#000000;" x="238.390258" xlink:href="#m861c1fb30a" y="171.544805"/>
     <use style="stroke:#000000;" x="236.16" xlink:href="#m861c1fb30a" y="170.153827"/>
     <use style="stroke:#000000;" x="236.727088" xlink:href="#m861c1fb30a" y="170.657284"/>
     <use style="stroke:#000000;" x="250.444964" xlink:href="#m861c1fb30a" y="165.888415"/>
     <use style="stroke:#000000;" x="246.639168" xlink:href="#m861c1fb30a" y="169.06376"/>
     <use style="stroke:#000000;" x="243.308538" xlink:href="#m861c1fb30a" y="165.4975"/>
     <use style="stroke:#000000;" x="236.16" xlink:href="#m861c1fb30a" y="171.600664"/>
     <use style="stroke:#000000;" x="236.16" xlink:href="#m861c1fb30a" y="173.218161"/>
     <use style="stroke:#000000;" x="236.16" xlink:href="#m861c1fb30a" y="171.336125"/>
     <use style="stroke:#000000;" x="238.677871" xlink:href="#m861c1fb30a" y="162.456399"/>
     <use style="stroke:#000000;" x="238.594728" xlink:href="#m861c1fb30a" y="161.2224"/>
     <use style="stroke:#000000;" x="239.983082" xlink:href="#m861c1fb30a" y="164.932702"/>
     <use style="stroke:#000000;" x="239.128413" xlink:href="#m861c1fb30a" y="161.646554"/>
     <use style="stroke:#000000;" x="236.16" xlink:href="#m861c1fb30a" y="161.2224"/>
     <use style="stroke:#000000;" x="238.707394" xlink:href="#m861c1fb30a" y="162.018031"/>
     <use style="stroke:#000000;" x="240.858919" xlink:href="#m861c1fb30a" y="172.745199"/>
     <use style="stroke:#000000;" x="239.534061" xlink:href="#m861c1fb30a" y="168.576818"/>
     <use style="stroke:#000000;" x="239.643001" xlink:href="#m861c1fb30a" y="173.417932"/>
     <use style="stroke:#000000;" x="237.513753" xlink:href="#m861c1fb30a" y="161.658588"/>
     <use style="stroke:#000000;" x="240.614315" xlink:href="#m861c1fb30a" y="162.782445"/>
     <use style="stroke:#000000;" x="237.75814" xlink:href="#m861c1fb30a" y="164.052152"/>
     <use style="stroke:#000000;" x="239.733426" xlink:href="#m861c1fb30a" y="165.404991"/>
     <use style="stroke:#000000;" x="244.77425" xlink:href="#m861c1fb30a" y="165.113379"/>
     <use style="stroke:#000000;" x="239.751294" xlink:href="#m861c1fb30a" y="163.340514"/>
     <use style="stroke:#000000;" x="250.947103" xlink:href="#m861c1fb30a" y="171.588394"/>
     <use style="stroke:#000000;" x="253.643977" xlink:href="#m861c1fb30a" y="171.069901"/>
     <use style="stroke:#000000;" x="254.016" xlink:href="#m861c1fb30a" y="170.712383"/>
     <use style="stroke:#000000;" x="249.45337" xlink:href="#m861c1fb30a" y="163.218817"/>
     <use style="stroke:#000000;" x="246.941069" xlink:href="#m861c1fb30a" y="161.606786"/>
     <use style="stroke:#000000;" x="247.303438" xlink:href="#m861c1fb30a" y="164.109639"/>
     <use style="stroke:#000000;" x="249.13018" xlink:href="#m861c1fb30a" y="164.958366"/>
     <use style="stroke:#000000;" x="252.654806" xlink:href="#m861c1fb30a" y="165.249784"/>
     <use style="stroke:#000000;" x="249.908811" xlink:href="#m861c1fb30a" y="165.255272"/>
     <use style="stroke:#000000;" x="236.392569" xlink:href="#m861c1fb30a" y="169.330486"/>
     <use style="stroke:#000000;" x="241.486716" xlink:href="#m861c1fb30a" y="172.333804"/>
     <use style="stroke:#000000;" x="236.16" xlink:href="#m861c1fb30a" y="166.408077"/>
     <use style="stroke:#000000;" x="241.625683" xlink:href="#m861c1fb30a" y="162.911208"/>
     <use style="stroke:#000000;" x="245.661063" xlink:href="#m861c1fb30a" y="161.447575"/>
     <use style="stroke:#000000;" x="244.176365" xlink:href="#m861c1fb30a" y="161.2224"/>
     <use style="stroke:#000000;" x="248.924885" xlink:href="#m861c1fb30a" y="164.695338"/>
     <use style="stroke:#000000;" x="246.060164" xlink:href="#m861c1fb30a" y="162.411711"/>
     <use style="stroke:#000000;" x="246.857561" xlink:href="#m861c1fb30a" y="164.790684"/>
     <use style="stroke:#000000;" x="248.433358" xlink:href="#m861c1fb30a" y="161.2224"/>
     <use style="stroke:#000000;" x="242.561332" xlink:href="#m861c1fb30a" y="165.082639"/>
     <use style="stroke:#000000;" x="245.293407" xlink:href="#m861c1fb30a" y="161.2224"/>
     <use style="stroke:#000000;" x="247.066491" xlink:href="#m861c1fb30a" y="161.286482"/>
     <use style="stroke:#000000;" x="247.504735" xlink:href="#m861c1fb30a" y="162.08727"/>
     <use style="stroke:#000000;" x="250.923305" xlink:href="#m861c1fb30a" y="161.2224"/>
     <use style="stroke:#000000;" x="241.113727" xlink:href="#m861c1fb30a" y="169.249788"/>
     <use style="stroke:#000000;" x="243.900002" xlink:href="#m861c1fb30a" y="170.263621"/>
     <use style="stroke:#000000;" x="241.45366" xlink:href="#m861c1fb30a" y="172.748464"/>
     <use style="stroke:#000000;" x="242.458026" xlink:href="#m861c1fb30a" y="166.002116"/>
     <use style="stroke:#000000;" x="240.105876" xlink:href="#m861c1fb30a" y="168.007048"/>
     <use style="stroke:#000000;" x="239.71335" xlink:href="#m861c1fb30a" y="168.626688"/>
     <use style="stroke:#000000;" x="239.825367" xlink:href="#m861c1fb30a" y="163.123522"/>
     <use style="stroke:#000000;" x="237.293063" xlink:href="#m861c1fb30a" y="161.2224"/>
     <use style="stroke:#000000;" x="242.374866" xlink:href="#m861c1fb30a" y="162.764647"/>
     <use style="stroke:#000000;" x="242.873985" xlink:href="#m861c1fb30a" y="162.433387"/>
     <use style="stroke:#000000;" x="239.347506" xlink:href="#m861c1fb30a" y="172.329924"/>
     <use style="stroke:#000000;" x="236.16" xlink:href="#m861c1fb30a" y="167.961419"/>
     <use style="stroke:#000000;" x="243.913323" xlink:href="#m861c1fb30a" y="168.811602"/>
     <use style="stroke:#000000;" x="242.154345" xlink:href="#m861c1fb30a" y="165.745211"/>
     <use style="stroke:#000000;" x="236.397895" xlink:href="#m861c1fb30a" y="171.673817"/>
     <use style="stroke:#000000;" x="236.16" xlink:href="#m861c1fb30a" y="168.524086"/>
     <use style="stroke:#000000;" x="236.16" xlink:href="#m861c1fb30a" y="168.716252"/>
     <use style="stroke:#000000;" x="237.069201" xlink:href="#m861c1fb30a" y="169.448258"/>
     <use style="stroke:#000000;" x="238.97615" xlink:href="#m861c1fb30a" y="168.920238"/>
     <use style="stroke:#000000;" x="243.740793" xlink:href="#m861c1fb30a" y="170.194509"/>
     <use style="stroke:#000000;" x="238.549894" xlink:href="#m861c1fb30a" y="166.358114"/>
     <use style="stroke:#000000;" x="236.16" xlink:href="#m861c1fb30a" y="165.75938"/>
     <use style="stroke:#000000;" x="246.004606" xlink:href="#m861c1fb30a" y="173.470096"/>
     <use style="stroke:#000000;" x="241.901748" xlink:href="#m861c1fb30a" y="172.47444"/>
     <use style="stroke:#000000;" x="240.543647" xlink:href="#m861c1fb30a" y="161.2224"/>
     <use style="stroke:#000000;" x="236.16" xlink:href="#m861c1fb30a" y="161.2224"/>
     <use style="stroke:#000000;" x="238.520571" xlink:href="#m861c1fb30a" y="170.924112"/>
     <use style="stroke:#000000;" x="240.821183" xlink:href="#m861c1fb30a" y="167.631569"/>
     <use style="stroke:#000000;" x="246.215379" xlink:href="#m861c1fb30a" y="161.781185"/>
     <use style="stroke:#000000;" x="243.899036" xlink:href="#m861c1fb30a" y="165.888391"/>
     <use style="stroke:#000000;" x="241.690984" xlink:href="#m861c1fb30a" y="167.385487"/>
     <use style="stroke:#000000;" x="238.426663" xlink:href="#m861c1fb30a" y="168.484237"/>
     <use style="stroke:#000000;" x="236.475937" xlink:href="#m861c1fb30a" y="164.443394"/>
     <use style="stroke:#000000;" x="246.136421" xlink:href="#m861c1fb30a" y="166.941106"/>
     <use style="stroke:#000000;" x="247.197687" xlink:href="#m861c1fb30a" y="168.461893"/>
     <use style="stroke:#000000;" x="246.039169" xlink:href="#m861c1fb30a" y="172.76381"/>
     <use style="stroke:#000000;" x="249.331826" xlink:href="#m861c1fb30a" y="174.288124"/>
     <use style="stroke:#000000;" x="246.545736" xlink:href="#m861c1fb30a" y="167.422964"/>
     <use style="stroke:#000000;" x="246.296575" xlink:href="#m861c1fb30a" y="167.037986"/>
     <use style="stroke:#000000;" x="248.217193" xlink:href="#m861c1fb30a" y="170.797729"/>
     <use style="stroke:#000000;" x="252.176438" xlink:href="#m861c1fb30a" y="170.389091"/>
     <use style="stroke:#000000;" x="252.456627" xlink:href="#m861c1fb30a" y="171.259153"/>
     <use style="stroke:#000000;" x="245.618774" xlink:href="#m861c1fb30a" y="173.967898"/>
     <use style="stroke:#000000;" x="248.057415" xlink:href="#m861c1fb30a" y="169.917491"/>
     <use style="stroke:#000000;" x="254.016" xlink:href="#m861c1fb30a" y="165.404002"/>
     <use style="stroke:#000000;" x="236.16" xlink:href="#m861c1fb30a" y="169.157538"/>
     <use style="stroke:#000000;" x="238.45436" xlink:href="#m861c1fb30a" y="167.912319"/>
     <use style="stroke:#000000;" x="248.936224" xlink:href="#m861c1fb30a" y="166.111053"/>
     <use style="stroke:#000000;" x="248.770329" xlink:href="#m861c1fb30a" y="165.022956"/>
     <use style="stroke:#000000;" x="236.451923" xlink:href="#m861c1fb30a" y="168.367733"/>
     <use style="stroke:#000000;" x="236.502596" xlink:href="#m861c1fb30a" y="169.529232"/>
     <use style="stroke:#000000;" x="247.064299" xlink:href="#m861c1fb30a" y="169.167645"/>
     <use style="stroke:#000000;" x="251.36023" xlink:href="#m861c1fb30a" y="163.686414"/>
     <use style="stroke:#000000;" x="236.16" xlink:href="#m861c1fb30a" y="169.520147"/>
     <use style="stroke:#000000;" x="238.91015" xlink:href="#m861c1fb30a" y="169.516895"/>
     <use style="stroke:#000000;" x="239.473814" xlink:href="#m861c1fb30a" y="170.087531"/>
     <use style="stroke:#000000;" x="236.16" xlink:href="#m861c1fb30a" y="163.430172"/>
     <use style="stroke:#000000;" x="236.16" xlink:href="#m861c1fb30a" y="161.2224"/>
     <use style="stroke:#000000;" x="242.377088" xlink:href="#m861c1fb30a" y="166.662492"/>
     <use style="stroke:#000000;" x="238.50119" xlink:href="#m861c1fb30a" y="161.857748"/>
     <use style="stroke:#000000;" x="237.996499" xlink:href="#m861c1fb30a" y="169.995186"/>
     <use style="stroke:#000000;" x="243.58661" xlink:href="#m861c1fb30a" y="161.2224"/>
     <use style="stroke:#000000;" x="243.47926" xlink:href="#m861c1fb30a" y="168.441066"/>
     <use style="stroke:#000000;" x="243.180028" xlink:href="#m861c1fb30a" y="168.386037"/>
     <use style="stroke:#000000;" x="245.175764" xlink:href="#m861c1fb30a" y="161.26334"/>
     <use style="stroke:#000000;" x="243.522607" xlink:href="#m861c1fb30a" y="161.2224"/>
     <use style="stroke:#000000;" x="246.256735" xlink:href="#m861c1fb30a" y="167.774893"/>
     <use style="stroke:#000000;" x="238.160953" xlink:href="#m861c1fb30a" y="170.165578"/>
     <use style="stroke:#000000;" x="242.385249" xlink:href="#m861c1fb30a" y="161.2224"/>
     <use style="stroke:#000000;" x="249.11169" xlink:href="#m861c1fb30a" y="167.176451"/>
     <use style="stroke:#000000;" x="246.977837" xlink:href="#m861c1fb30a" y="169.693076"/>
     <use style="stroke:#000000;" x="252.46476" xlink:href="#m861c1fb30a" y="169.12455"/>
     <use style="stroke:#000000;" x="245.039598" xlink:href="#m861c1fb30a" y="167.946974"/>
    </g>
   </g>
   <g id="PathCollection_2">
    <defs>
     <path d="M 0 0.935414 
C 0.248075 0.935414 0.486022 0.836853 0.661438 0.661438 
C 0.836853 0.486022 0.935414 0.248075 0.935414 0 
C 0.935414 -0.248075 0.836853 -0.486022 0.661438 -0.661438 
C 0.486022 -0.836853 0.248075 -0.935414 0 -0.935414 
C -0.248075 -0.935414 -0.486022 -0.836853 -0.661438 -0.661438 
C -0.836853 -0.486022 -0.935414 -0.248075 -0.935414 0 
C -0.935414 0.248075 -0.836853 0.486022 -0.661438 0.661438 
C -0.486022 0.836853 -0.248075 0.935414 0 0.935414 
z
" id="m3e218dbea9" style="stroke:#0000ff;"/>
    </defs>
    <g clip-path="url(#p62e536f166)">
     <use style="fill:#0000ff;stroke:#0000ff;" x="236.16" xlink:href="#m3e218dbea9" y="170.185396"/>
     <use style="fill:#0000ff;stroke:#0000ff;" x="247.208194" xlink:href="#m3e218dbea9" y="166.162313"/>
     <use style="fill:#0000ff;stroke:#0000ff;" x="236.798693" xlink:href="#m3e218dbea9" y="171.699325"/>
     <use style="fill:#0000ff;stroke:#0000ff;" x="239.798008" xlink:href="#m3e218dbea9" y="163.195555"/>
     <use style="fill:#0000ff;stroke:#0000ff;" x="236.486791" xlink:href="#m3e218dbea9" y="161.701745"/>
     <use style="fill:#0000ff;stroke:#0000ff;" x="240.908866" xlink:href="#m3e218dbea9" y="171.922628"/>
     <use style="fill:#0000ff;stroke:#0000ff;" x="240.586124" xlink:href="#m3e218dbea9" y="163.109517"/>
     <use style="fill:#0000ff;stroke:#0000ff;" x="244.169341" xlink:href="#m3e218dbea9" y="163.539433"/>
     <use style="fill:#0000ff;stroke:#0000ff;" x="251.117061" xlink:href="#m3e218dbea9" y="171.369472"/>
     <use style="fill:#0000ff;stroke:#0000ff;" x="247.261104" xlink:href="#m3e218dbea9" y="164.205267"/>
     <use style="fill:#0000ff;stroke:#0000ff;" x="250.891151" xlink:href="#m3e218dbea9" y="167.386348"/>
     <use style="fill:#0000ff;stroke:#0000ff;" x="237.180538" xlink:href="#m3e218dbea9" y="168.069729"/>
     <use style="fill:#0000ff;stroke:#0000ff;" x="243.695527" xlink:href="#m3e218dbea9" y="161.724413"/>
     <use style="fill:#0000ff;stroke:#0000ff;" x="247.854221" xlink:href="#m3e218dbea9" y="165.46771"/>
     <use style="fill:#0000ff;stroke:#0000ff;" x="244.040255" xlink:href="#m3e218dbea9" y="161.723105"/>
     <use style="fill:#0000ff;stroke:#0000ff;" x="247.603621" xlink:href="#m3e218dbea9" y="162.918316"/>
     <use style="fill:#0000ff;stroke:#0000ff;" x="243.832043" xlink:href="#m3e218dbea9" y="169.860944"/>
     <use style="fill:#0000ff;stroke:#0000ff;" x="240.749909" xlink:href="#m3e218dbea9" y="166.851046"/>
     <use style="fill:#0000ff;stroke:#0000ff;" x="240.711635" xlink:href="#m3e218dbea9" y="161.431423"/>
     <use style="fill:#0000ff;stroke:#0000ff;" x="236.16" xlink:href="#m3e218dbea9" y="169.595999"/>
     <use style="fill:#0000ff;stroke:#0000ff;" x="243.962667" xlink:href="#m3e218dbea9" y="165.772562"/>
     <use style="fill:#0000ff;stroke:#0000ff;" x="237.380739" xlink:href="#m3e218dbea9" y="169.629912"/>
     <use style="fill:#0000ff;stroke:#0000ff;" x="237.75448" xlink:href="#m3e218dbea9" y="168.242421"/>
     <use style="fill:#0000ff;stroke:#0000ff;" x="240.31078" xlink:href="#m3e218dbea9" y="171.052703"/>
     <use style="fill:#0000ff;stroke:#0000ff;" x="237.214075" xlink:href="#m3e218dbea9" y="166.764916"/>
     <use style="fill:#0000ff;stroke:#0000ff;" x="241.778739" xlink:href="#m3e218dbea9" y="171.270235"/>
     <use style="fill:#0000ff;stroke:#0000ff;" x="240.310013" xlink:href="#m3e218dbea9" y="161.2224"/>
     <use style="fill:#0000ff;stroke:#0000ff;" x="241.233404" xlink:href="#m3e218dbea9" y="166.218834"/>
     <use style="fill:#0000ff;stroke:#0000ff;" x="243.915152" xlink:href="#m3e218dbea9" y="164.54256"/>
     <use style="fill:#0000ff;stroke:#0000ff;" x="241.161864" xlink:href="#m3e218dbea9" y="165.904679"/>
     <use style="fill:#0000ff;stroke:#0000ff;" x="244.28697" xlink:href="#m3e218dbea9" y="167.292136"/>
     <use style="fill:#0000ff;stroke:#0000ff;" x="247.619632" xlink:href="#m3e218dbea9" y="172.821508"/>
     <use style="fill:#0000ff;stroke:#0000ff;" x="247.476553" xlink:href="#m3e218dbea9" y="165.576031"/>
     <use style="fill:#0000ff;stroke:#0000ff;" x="251.225129" xlink:href="#m3e218dbea9" y="170.728587"/>
     <use style="fill:#0000ff;stroke:#0000ff;" x="251.250071" xlink:href="#m3e218dbea9" y="170.880541"/>
     <use style="fill:#0000ff;stroke:#0000ff;" x="251.272087" xlink:href="#m3e218dbea9" y="169.310186"/>
     <use style="fill:#0000ff;stroke:#0000ff;" x="237.852669" xlink:href="#m3e218dbea9" y="167.806395"/>
     <use style="fill:#0000ff;stroke:#0000ff;" x="248.242736" xlink:href="#m3e218dbea9" y="165.595239"/>
     <use style="fill:#0000ff;stroke:#0000ff;" x="237.857927" xlink:href="#m3e218dbea9" y="166.667064"/>
     <use style="fill:#0000ff;stroke:#0000ff;" x="247.64349" xlink:href="#m3e218dbea9" y="167.071918"/>
     <use style="fill:#0000ff;stroke:#0000ff;" x="236.731181" xlink:href="#m3e218dbea9" y="166.831599"/>
     <use style="fill:#0000ff;stroke:#0000ff;" x="244.13468" xlink:href="#m3e218dbea9" y="168.454263"/>
     <use style="fill:#0000ff;stroke:#0000ff;" x="236.16" xlink:href="#m3e218dbea9" y="169.693712"/>
     <use style="fill:#0000ff;stroke:#0000ff;" x="237.870871" xlink:href="#m3e218dbea9" y="162.891811"/>
     <use style="fill:#0000ff;stroke:#0000ff;" x="237.623698" xlink:href="#m3e218dbea9" y="161.480984"/>
     <use style="fill:#0000ff;stroke:#0000ff;" x="240.940789" xlink:href="#m3e218dbea9" y="166.548138"/>
     <use style="fill:#0000ff;stroke:#0000ff;" x="240.782342" xlink:href="#m3e218dbea9" y="165.78125"/>
     <use style="fill:#0000ff;stroke:#0000ff;" x="237.345221" xlink:href="#m3e218dbea9" y="168.009925"/>
     <use style="fill:#0000ff;stroke:#0000ff;" x="243.821589" xlink:href="#m3e218dbea9" y="165.15697"/>
     <use style="fill:#0000ff;stroke:#0000ff;" x="240.440242" xlink:href="#m3e218dbea9" y="169.921517"/>
     <use style="fill:#0000ff;stroke:#0000ff;" x="243.504483" xlink:href="#m3e218dbea9" y="166.293933"/>
     <use style="fill:#0000ff;stroke:#0000ff;" x="243.585809" xlink:href="#m3e218dbea9" y="163.572958"/>
     <use style="fill:#0000ff;stroke:#0000ff;" x="243.433756" xlink:href="#m3e218dbea9" y="161.853379"/>
     <use style="fill:#0000ff;stroke:#0000ff;" x="241.720112" xlink:href="#m3e218dbea9" y="170.60006"/>
     <use style="fill:#0000ff;stroke:#0000ff;" x="244.529117" xlink:href="#m3e218dbea9" y="171.545737"/>
     <use style="fill:#0000ff;stroke:#0000ff;" x="244.789439" xlink:href="#m3e218dbea9" y="161.2224"/>
     <use style="fill:#0000ff;stroke:#0000ff;" x="247.654996" xlink:href="#m3e218dbea9" y="164.173262"/>
     <use style="fill:#0000ff;stroke:#0000ff;" x="251.406275" xlink:href="#m3e218dbea9" y="168.710555"/>
     <use style="fill:#0000ff;stroke:#0000ff;" x="251.375506" xlink:href="#m3e218dbea9" y="170.090356"/>
     <use style="fill:#0000ff;stroke:#0000ff;" x="239.681375" xlink:href="#m3e218dbea9" y="169.862392"/>
    </g>
   </g>
   <g id="matplotlib.axis_1">
    <g id="xtick_1">
     <g id="line2d_1">
      <defs>
       <path d="M 0 0 
L 0 3.5 
" id="m92ea0e7638" style="stroke:#000000;stroke-width:0.8;"/>
      </defs>
      <g>
       <use style="stroke:#000000;stroke-width:0.8;" x="57.6" xlink:href="#m92ea0e7638" y="307.584"/>
      </g>
     </g>
     <g id="text_1">
      <!-- −10.0 -->
      <defs>
       <path d="M 10.59375 35.5 
L 73.1875 35.5 
L 73.1875 27.203125 
L 10.59375 27.203125 
z
" id="DejaVuSans-2212"/>
       <path d="M 12.40625 8.296875 
L 28.515625 8.296875 
L 28.515625 63.921875 
L 10.984375 60.40625 
L 10.984375 69.390625 
L 28.421875 72.90625 
L 38.28125 72.90625 
L 38.28125 8.296875 
L 54.390625 8.296875 
L 54.390625 0 
L 12.40625 0 
z
" id="DejaVuSans-31"/>
       <path d="M 31.78125 66.40625 
Q 24.171875 66.40625 20.328125 58.90625 
Q 16.5 51.421875 16.5 36.375 
Q 16.5 21.390625 20.328125 13.890625 
Q 24.171875 6.390625 31.78125 6.390625 
Q 39.453125 6.390625 43.28125 13.890625 
Q 47.125 21.390625 47.125 36.375 
Q 47.125 51.421875 43.28125 58.90625 
Q 39.453125 66.40625 31.78125 66.40625 
z
M 31.78125 74.21875 
Q 44.046875 74.21875 50.515625 64.515625 
Q 56.984375 54.828125 56.984375 36.375 
Q 56.984375 17.96875 50.515625 8.265625 
Q 44.046875 -1.421875 31.78125 -1.421875 
Q 19.53125 -1.421875 13.0625 8.265625 
Q 6.59375 17.96875 6.59375 36.375 
Q 6.59375 54.828125 13.0625 64.515625 
Q 19.53125 74.21875 31.78125 74.21875 
z
" id="DejaVuSans-30"/>
       <path d="M 10.6875 12.40625 
L 21 12.40625 
L 21 0 
L 10.6875 0 
z
" id="DejaVuSans-2e"/>
      </defs>
      <g transform="translate(42.277344 322.182437)scale(0.1 -0.1)">
       <use xlink:href="#DejaVuSans-2212"/>
       <use x="83.789062" xlink:href="#DejaVuSans-31"/>
       <use x="147.412109" xlink:href="#DejaVuSans-30"/>
       <use x="211.035156" xlink:href="#DejaVuSans-2e"/>
       <use x="242.822266" xlink:href="#DejaVuSans-30"/>
      </g>
     </g>
    </g>
    <g id="xtick_2">
     <g id="line2d_2">
      <g>
       <use style="stroke:#000000;stroke-width:0.8;" x="102.24" xlink:href="#m92ea0e7638" y="307.584"/>
      </g>
     </g>
     <g id="text_2">
      <!-- −7.5 -->
      <defs>
       <path d="M 8.203125 72.90625 
L 55.078125 72.90625 
L 55.078125 68.703125 
L 28.609375 0 
L 18.3125 0 
L 43.21875 64.59375 
L 8.203125 64.59375 
z
" id="DejaVuSans-37"/>
       <path d="M 10.796875 72.90625 
L 49.515625 72.90625 
L 49.515625 64.59375 
L 19.828125 64.59375 
L 19.828125 46.734375 
Q 21.96875 47.46875 24.109375 47.828125 
Q 26.265625 48.1875 28.421875 48.1875 
Q 40.625 48.1875 47.75 41.5 
Q 54.890625 34.8125 54.890625 23.390625 
Q 54.890625 11.625 47.5625 5.09375 
Q 40.234375 -1.421875 26.90625 -1.421875 
Q 22.3125 -1.421875 17.546875 -0.640625 
Q 12.796875 0.140625 7.71875 1.703125 
L 7.71875 11.625 
Q 12.109375 9.234375 16.796875 8.0625 
Q 21.484375 6.890625 26.703125 6.890625 
Q 35.15625 6.890625 40.078125 11.328125 
Q 45.015625 15.765625 45.015625 23.390625 
Q 45.015625 31 40.078125 35.4375 
Q 35.15625 39.890625 26.703125 39.890625 
Q 22.75 39.890625 18.8125 39.015625 
Q 14.890625 38.140625 10.796875 36.28125 
z
" id="DejaVuSans-35"/>
      </defs>
      <g transform="translate(90.098594 322.182437)scale(0.1 -0.1)">
       <use xlink:href="#DejaVuSans-2212"/>
       <use x="83.789062" xlink:href="#DejaVuSans-37"/>
       <use x="147.412109" xlink:href="#DejaVuSans-2e"/>
       <use x="179.199219" xlink:href="#DejaVuSans-35"/>
      </g>
     </g>
    </g>
    <g id="xtick_3">
     <g id="line2d_3">
      <g>
       <use style="stroke:#000000;stroke-width:0.8;" x="146.88" xlink:href="#m92ea0e7638" y="307.584"/>
      </g>
     </g>
     <g id="text_3">
      <!-- −5.0 -->
      <g transform="translate(134.738594 322.182437)scale(0.1 -0.1)">
       <use xlink:href="#DejaVuSans-2212"/>
       <use x="83.789062" xlink:href="#DejaVuSans-35"/>
       <use x="147.412109" xlink:href="#DejaVuSans-2e"/>
       <use x="179.199219" xlink:href="#DejaVuSans-30"/>
      </g>
     </g>
    </g>
    <g id="xtick_4">
     <g id="line2d_4">
      <g>
       <use style="stroke:#000000;stroke-width:0.8;" x="191.52" xlink:href="#m92ea0e7638" y="307.584"/>
      </g>
     </g>
     <g id="text_4">
      <!-- −2.5 -->
      <defs>
       <path d="M 19.1875 8.296875 
L 53.609375 8.296875 
L 53.609375 0 
L 7.328125 0 
L 7.328125 8.296875 
Q 12.9375 14.109375 22.625 23.890625 
Q 32.328125 33.6875 34.8125 36.53125 
Q 39.546875 41.84375 41.421875 45.53125 
Q 43.3125 49.21875 43.3125 52.78125 
Q 43.3125 58.59375 39.234375 62.25 
Q 35.15625 65.921875 28.609375 65.921875 
Q 23.96875 65.921875 18.8125 64.3125 
Q 13.671875 62.703125 7.8125 59.421875 
L 7.8125 69.390625 
Q 13.765625 71.78125 18.9375 73 
Q 24.125 74.21875 28.421875 74.21875 
Q 39.75 74.21875 46.484375 68.546875 
Q 53.21875 62.890625 53.21875 53.421875 
Q 53.21875 48.921875 51.53125 44.890625 
Q 49.859375 40.875 45.40625 35.40625 
Q 44.1875 33.984375 37.640625 27.21875 
Q 31.109375 20.453125 19.1875 8.296875 
z
" id="DejaVuSans-32"/>
      </defs>
      <g transform="translate(179.378594 322.182437)scale(0.1 -0.1)">
       <use xlink:href="#DejaVuSans-2212"/>
       <use x="83.789062" xlink:href="#DejaVuSans-32"/>
       <use x="147.412109" xlink:href="#DejaVuSans-2e"/>
       <use x="179.199219" xlink:href="#DejaVuSans-35"/>
      </g>
     </g>
    </g>
    <g id="xtick_5">
     <g id="line2d_5">
      <g>
       <use style="stroke:#000000;stroke-width:0.8;" x="236.16" xlink:href="#m92ea0e7638" y="307.584"/>
      </g>
     </g>
     <g id="text_5">
      <!-- 0.0 -->
      <g transform="translate(228.208438 322.182437)scale(0.1 -0.1)">
       <use xlink:href="#DejaVuSans-30"/>
       <use x="63.623047" xlink:href="#DejaVuSans-2e"/>
       <use x="95.410156" xlink:href="#DejaVuSans-30"/>
      </g>
     </g>
    </g>
    <g id="xtick_6">
     <g id="line2d_6">
      <g>
       <use style="stroke:#000000;stroke-width:0.8;" x="280.8" xlink:href="#m92ea0e7638" y="307.584"/>
      </g>
     </g>
     <g id="text_6">
      <!-- 2.5 -->
      <g transform="translate(272.848437 322.182437)scale(0.1 -0.1)">
       <use xlink:href="#DejaVuSans-32"/>
       <use x="63.623047" xlink:href="#DejaVuSans-2e"/>
       <use x="95.410156" xlink:href="#DejaVuSans-35"/>
      </g>
     </g>
    </g>
    <g id="xtick_7">
     <g id="line2d_7">
      <g>
       <use style="stroke:#000000;stroke-width:0.8;" x="325.44" xlink:href="#m92ea0e7638" y="307.584"/>
      </g>
     </g>
     <g id="text_7">
      <!-- 5.0 -->
      <g transform="translate(317.488437 322.182437)scale(0.1 -0.1)">
       <use xlink:href="#DejaVuSans-35"/>
       <use x="63.623047" xlink:href="#DejaVuSans-2e"/>
       <use x="95.410156" xlink:href="#DejaVuSans-30"/>
      </g>
     </g>
    </g>
    <g id="xtick_8">
     <g id="line2d_8">
      <g>
       <use style="stroke:#000000;stroke-width:0.8;" x="370.08" xlink:href="#m92ea0e7638" y="307.584"/>
      </g>
     </g>
     <g id="text_8">
      <!-- 7.5 -->
      <g transform="translate(362.128438 322.182437)scale(0.1 -0.1)">
       <use xlink:href="#DejaVuSans-37"/>
       <use x="63.623047" xlink:href="#DejaVuSans-2e"/>
       <use x="95.410156" xlink:href="#DejaVuSans-35"/>
      </g>
     </g>
    </g>
    <g id="xtick_9">
     <g id="line2d_9">
      <g>
       <use style="stroke:#000000;stroke-width:0.8;" x="414.72" xlink:href="#m92ea0e7638" y="307.584"/>
      </g>
     </g>
     <g id="text_9">
      <!-- 10.0 -->
      <g transform="translate(403.587188 322.182437)scale(0.1 -0.1)">
       <use xlink:href="#DejaVuSans-31"/>
       <use x="63.623047" xlink:href="#DejaVuSans-30"/>
       <use x="127.246094" xlink:href="#DejaVuSans-2e"/>
       <use x="159.033203" xlink:href="#DejaVuSans-30"/>
      </g>
     </g>
    </g>
   </g>
   <g id="matplotlib.axis_2">
    <g id="ytick_1">
     <g id="line2d_10">
      <defs>
       <path d="M 0 0 
L -3.5 0 
" id="m943b21865c" style="stroke:#000000;stroke-width:0.8;"/>
      </defs>
      <g>
       <use style="stroke:#000000;stroke-width:0.8;" x="57.6" xlink:href="#m943b21865c" y="307.584"/>
      </g>
     </g>
     <g id="text_10">
      <!-- −10.0 -->
      <g transform="translate(19.954687 311.383219)scale(0.1 -0.1)">
       <use xlink:href="#DejaVuSans-2212"/>
       <use x="83.789062" xlink:href="#DejaVuSans-31"/>
       <use x="147.412109" xlink:href="#DejaVuSans-30"/>
       <use x="211.035156" xlink:href="#DejaVuSans-2e"/>
       <use x="242.822266" xlink:href="#DejaVuSans-30"/>
      </g>
     </g>
    </g>
    <g id="ytick_2">
     <g id="line2d_11">
      <g>
       <use style="stroke:#000000;stroke-width:0.8;" x="57.6" xlink:href="#m943b21865c" y="274.32"/>
      </g>
     </g>
     <g id="text_11">
      <!-- −7.5 -->
      <g transform="translate(26.317187 278.119219)scale(0.1 -0.1)">
       <use xlink:href="#DejaVuSans-2212"/>
       <use x="83.789062" xlink:href="#DejaVuSans-37"/>
       <use x="147.412109" xlink:href="#DejaVuSans-2e"/>
       <use x="179.199219" xlink:href="#DejaVuSans-35"/>
      </g>
     </g>
    </g>
    <g id="ytick_3">
     <g id="line2d_12">
      <g>
       <use style="stroke:#000000;stroke-width:0.8;" x="57.6" xlink:href="#m943b21865c" y="241.056"/>
      </g>
     </g>
     <g id="text_12">
      <!-- −5.0 -->
      <g transform="translate(26.317187 244.855219)scale(0.1 -0.1)">
       <use xlink:href="#DejaVuSans-2212"/>
       <use x="83.789062" xlink:href="#DejaVuSans-35"/>
       <use x="147.412109" xlink:href="#DejaVuSans-2e"/>
       <use x="179.199219" xlink:href="#DejaVuSans-30"/>
      </g>
     </g>
    </g>
    <g id="ytick_4">
     <g id="line2d_13">
      <g>
       <use style="stroke:#000000;stroke-width:0.8;" x="57.6" xlink:href="#m943b21865c" y="207.792"/>
      </g>
     </g>
     <g id="text_13">
      <!-- −2.5 -->
      <g transform="translate(26.317187 211.591219)scale(0.1 -0.1)">
       <use xlink:href="#DejaVuSans-2212"/>
       <use x="83.789062" xlink:href="#DejaVuSans-32"/>
       <use x="147.412109" xlink:href="#DejaVuSans-2e"/>
       <use x="179.199219" xlink:href="#DejaVuSans-35"/>
      </g>
     </g>
    </g>
    <g id="ytick_5">
     <g id="line2d_14">
      <g>
       <use style="stroke:#000000;stroke-width:0.8;" x="57.6" xlink:href="#m943b21865c" y="174.528"/>
      </g>
     </g>
     <g id="text_14">
      <!-- 0.0 -->
      <g transform="translate(34.696875 178.327219)scale(0.1 -0.1)">
       <use xlink:href="#DejaVuSans-30"/>
       <use x="63.623047" xlink:href="#DejaVuSans-2e"/>
       <use x="95.410156" xlink:href="#DejaVuSans-30"/>
      </g>
     </g>
    </g>
    <g id="ytick_6">
     <g id="line2d_15">
      <g>
       <use style="stroke:#000000;stroke-width:0.8;" x="57.6" xlink:href="#m943b21865c" y="141.264"/>
      </g>
     </g>
     <g id="text_15">
      <!-- 2.5 -->
      <g transform="translate(34.696875 145.063219)scale(0.1 -0.1)">
       <use xlink:href="#DejaVuSans-32"/>
       <use x="63.623047" xlink:href="#DejaVuSans-2e"/>
       <use x="95.410156" xlink:href="#DejaVuSans-35"/>
      </g>
     </g>
    </g>
    <g id="ytick_7">
     <g id="line2d_16">
      <g>
       <use style="stroke:#000000;stroke-width:0.8;" x="57.6" xlink:href="#m943b21865c" y="108"/>
      </g>
     </g>
     <g id="text_16">
      <!-- 5.0 -->
      <g transform="translate(34.696875 111.799219)scale(0.1 -0.1)">
       <use xlink:href="#DejaVuSans-35"/>
       <use x="63.623047" xlink:href="#DejaVuSans-2e"/>
       <use x="95.410156" xlink:href="#DejaVuSans-30"/>
      </g>
     </g>
    </g>
    <g id="ytick_8">
     <g id="line2d_17">
      <g>
       <use style="stroke:#000000;stroke-width:0.8;" x="57.6" xlink:href="#m943b21865c" y="74.736"/>
      </g>
     </g>
     <g id="text_17">
      <!-- 7.5 -->
      <g transform="translate(34.696875 78.535219)scale(0.1 -0.1)">
       <use xlink:href="#DejaVuSans-37"/>
       <use x="63.623047" xlink:href="#DejaVuSans-2e"/>
       <use x="95.410156" xlink:href="#DejaVuSans-35"/>
      </g>
     </g>
    </g>
    <g id="ytick_9">
     <g id="line2d_18">
      <g>
       <use style="stroke:#000000;stroke-width:0.8;" x="57.6" xlink:href="#m943b21865c" y="41.472"/>
      </g>
     </g>
     <g id="text_18">
      <!-- 10.0 -->
      <g transform="translate(28.334375 45.271219)scale(0.1 -0.1)">
       <use xlink:href="#DejaVuSans-31"/>
       <use x="63.623047" xlink:href="#DejaVuSans-30"/>
       <use x="127.246094" xlink:href="#DejaVuSans-2e"/>
       <use x="159.033203" xlink:href="#DejaVuSans-30"/>
      </g>
     </g>
    </g>
   </g>
   <g id="patch_3">
    <path d="M 57.6 307.584 
L 57.6 41.472 
" style="fill:none;stroke:#000000;stroke-linecap:square;stroke-linejoin:miter;stroke-width:0.8;"/>
   </g>
   <g id="patch_4">
    <path d="M 414.72 307.584 
L 414.72 41.472 
" style="fill:none;stroke:#000000;stroke-linecap:square;stroke-linejoin:miter;stroke-width:0.8;"/>
   </g>
   <g id="patch_5">
    <path d="M 57.6 307.584 
L 414.72 307.584 
" style="fill:none;stroke:#000000;stroke-linecap:square;stroke-linejoin:miter;stroke-width:0.8;"/>
   </g>
   <g id="patch_6">
    <path d="M 57.6 41.472 
L 414.72 41.472 
" style="fill:none;stroke:#000000;stroke-linecap:square;stroke-linejoin:miter;stroke-width:0.8;"/>
   </g>
  </g>
 </g>
 <defs>
  <clipPath id="p62e536f166">
   <rect height="266.112" width="357.12" x="57.6" y="41.472"/>
  </clipPath>
 </defs>
</svg>
