<?xml version="1.0" encoding="utf-8" standalone="no"?>
<!DOCTYPE svg PUBLIC "-//W3C//DTD SVG 1.1//EN"
  "http://www.w3.org/Graphics/SVG/1.1/DTD/svg11.dtd">
<!-- Created with matplotlib (http://matplotlib.org/) -->
<svg height="345.6pt" version="1.1" viewBox="0 0 460.8 345.6" width="460.8pt" xmlns="http://www.w3.org/2000/svg" xmlns:xlink="http://www.w3.org/1999/xlink">
 <defs>
  <style type="text/css">
*{stroke-linecap:butt;stroke-linejoin:round;}
  </style>
 </defs>
 <g id="figure_1">
  <g id="patch_1">
   <path d="M 0 345.6 
L 460.8 345.6 
L 460.8 0 
L 0 0 
z
" style="fill:#ffffff;"/>
  </g>
  <g id="axes_1">
   <g id="patch_2">
    <path d="M 57.6 307.584 
L 414.72 307.584 
L 414.72 41.472 
L 57.6 41.472 
z
" style="fill:#ffffff;"/>
   </g>
   <g id="PathCollection_1">
    <defs>
     <path d="M 0 0.612372 
C 0.162403 0.612372 0.318176 0.547849 0.433013 0.433013 
C 0.547849 0.318176 0.612372 0.162403 0.612372 0 
C 0.612372 -0.162403 0.547849 -0.318176 0.433013 -0.433013 
C 0.318176 -0.547849 0.162403 -0.612372 0 -0.612372 
C -0.162403 -0.612372 -0.318176 -0.547849 -0.433013 -0.433013 
C -0.547849 -0.318176 -0.612372 -0.162403 -0.612372 0 
C -0.612372 0.162403 -0.547849 0.318176 -0.433013 0.433013 
C -0.318176 0.547849 -0.162403 0.612372 0 0.612372 
z
" id="mbf21eeb1a0" style="stroke:#000000;"/>
    </defs>
    <g clip-path="url(#pcd09f14121)">
     <use style="stroke:#000000;" x="236.16" xlink:href="#mbf21eeb1a0" y="147.806594"/>
     <use style="stroke:#000000;" x="236.16" xlink:href="#mbf21eeb1a0" y="147.955218"/>
     <use style="stroke:#000000;" x="236.16" xlink:href="#mbf21eeb1a0" y="150.313401"/>
     <use style="stroke:#000000;" x="325.44" xlink:href="#mbf21eeb1a0" y="140.736768"/>
     <use style="stroke:#000000;" x="236.16" xlink:href="#mbf21eeb1a0" y="170.072867"/>
     <use style="stroke:#000000;" x="236.16" xlink:href="#mbf21eeb1a0" y="145.034124"/>
     <use style="stroke:#000000;" x="236.16" xlink:href="#mbf21eeb1a0" y="150.935124"/>
     <use style="stroke:#000000;" x="236.16" xlink:href="#mbf21eeb1a0" y="143.975966"/>
     <use style="stroke:#000000;" x="236.16" xlink:href="#mbf21eeb1a0" y="142.435865"/>
     <use style="stroke:#000000;" x="325.44" xlink:href="#mbf21eeb1a0" y="143.998845"/>
     <use style="stroke:#000000;" x="321.885286" xlink:href="#mbf21eeb1a0" y="174.528"/>
     <use style="stroke:#000000;" x="236.16" xlink:href="#mbf21eeb1a0" y="139.295179"/>
     <use style="stroke:#000000;" x="265.870376" xlink:href="#mbf21eeb1a0" y="174.528"/>
     <use style="stroke:#000000;" x="236.16" xlink:href="#mbf21eeb1a0" y="134.6112"/>
     <use style="stroke:#000000;" x="304.775217" xlink:href="#mbf21eeb1a0" y="174.528"/>
     <use style="stroke:#000000;" x="325.44" xlink:href="#mbf21eeb1a0" y="171.318227"/>
     <use style="stroke:#000000;" x="236.16" xlink:href="#mbf21eeb1a0" y="134.6112"/>
     <use style="stroke:#000000;" x="236.16" xlink:href="#mbf21eeb1a0" y="165.22391"/>
     <use style="stroke:#000000;" x="236.16" xlink:href="#mbf21eeb1a0" y="155.877912"/>
     <use style="stroke:#000000;" x="236.16" xlink:href="#mbf21eeb1a0" y="150.493043"/>
     <use style="stroke:#000000;" x="325.44" xlink:href="#mbf21eeb1a0" y="146.311296"/>
     <use style="stroke:#000000;" x="325.44" xlink:href="#mbf21eeb1a0" y="158.213463"/>
     <use style="stroke:#000000;" x="325.44" xlink:href="#mbf21eeb1a0" y="153.300602"/>
     <use style="stroke:#000000;" x="325.44" xlink:href="#mbf21eeb1a0" y="142.504809"/>
     <use style="stroke:#000000;" x="238.269591" xlink:href="#mbf21eeb1a0" y="174.528"/>
     <use style="stroke:#000000;" x="325.44" xlink:href="#mbf21eeb1a0" y="136.479949"/>
     <use style="stroke:#000000;" x="312.023915" xlink:href="#mbf21eeb1a0" y="174.528"/>
     <use style="stroke:#000000;" x="325.44" xlink:href="#mbf21eeb1a0" y="166.803901"/>
     <use style="stroke:#000000;" x="254.014438" xlink:href="#mbf21eeb1a0" y="174.528"/>
     <use style="stroke:#000000;" x="236.16" xlink:href="#mbf21eeb1a0" y="156.637806"/>
     <use style="stroke:#000000;" x="236.16" xlink:href="#mbf21eeb1a0" y="155.127218"/>
     <use style="stroke:#000000;" x="236.16" xlink:href="#mbf21eeb1a0" y="174.528"/>
     <use style="stroke:#000000;" x="236.16" xlink:href="#mbf21eeb1a0" y="142.945077"/>
     <use style="stroke:#000000;" x="236.16" xlink:href="#mbf21eeb1a0" y="149.093013"/>
     <use style="stroke:#000000;" x="236.16" xlink:href="#mbf21eeb1a0" y="156.755284"/>
     <use style="stroke:#000000;" x="236.16" xlink:href="#mbf21eeb1a0" y="152.962391"/>
     <use style="stroke:#000000;" x="236.16" xlink:href="#mbf21eeb1a0" y="134.6112"/>
     <use style="stroke:#000000;" x="272.282534" xlink:href="#mbf21eeb1a0" y="174.528"/>
     <use style="stroke:#000000;" x="236.16" xlink:href="#mbf21eeb1a0" y="151.521562"/>
     <use style="stroke:#000000;" x="236.16" xlink:href="#mbf21eeb1a0" y="137.089388"/>
     <use style="stroke:#000000;" x="236.16" xlink:href="#mbf21eeb1a0" y="140.54961"/>
     <use style="stroke:#000000;" x="268.690724" xlink:href="#mbf21eeb1a0" y="174.528"/>
     <use style="stroke:#000000;" x="281.103514" xlink:href="#mbf21eeb1a0" y="174.528"/>
     <use style="stroke:#000000;" x="281.496839" xlink:href="#mbf21eeb1a0" y="174.528"/>
     <use style="stroke:#000000;" x="325.44" xlink:href="#mbf21eeb1a0" y="145.072229"/>
     <use style="stroke:#000000;" x="236.16" xlink:href="#mbf21eeb1a0" y="154.499179"/>
     <use style="stroke:#000000;" x="236.16" xlink:href="#mbf21eeb1a0" y="139.55979"/>
     <use style="stroke:#000000;" x="236.16" xlink:href="#mbf21eeb1a0" y="161.517015"/>
     <use style="stroke:#000000;" x="236.16" xlink:href="#mbf21eeb1a0" y="158.052009"/>
     <use style="stroke:#000000;" x="236.16" xlink:href="#mbf21eeb1a0" y="155.769557"/>
     <use style="stroke:#000000;" x="236.16" xlink:href="#mbf21eeb1a0" y="171.883362"/>
     <use style="stroke:#000000;" x="236.16" xlink:href="#mbf21eeb1a0" y="170.150636"/>
     <use style="stroke:#000000;" x="236.16" xlink:href="#mbf21eeb1a0" y="159.705955"/>
     <use style="stroke:#000000;" x="325.44" xlink:href="#mbf21eeb1a0" y="136.123806"/>
     <use style="stroke:#000000;" x="325.44" xlink:href="#mbf21eeb1a0" y="141.744987"/>
     <use style="stroke:#000000;" x="236.16" xlink:href="#mbf21eeb1a0" y="134.6112"/>
     <use style="stroke:#000000;" x="239.787702" xlink:href="#mbf21eeb1a0" y="174.528"/>
     <use style="stroke:#000000;" x="236.16" xlink:href="#mbf21eeb1a0" y="146.919423"/>
     <use style="stroke:#000000;" x="236.16" xlink:href="#mbf21eeb1a0" y="148.24495"/>
     <use style="stroke:#000000;" x="236.16" xlink:href="#mbf21eeb1a0" y="151.870456"/>
     <use style="stroke:#000000;" x="236.16" xlink:href="#mbf21eeb1a0" y="154.623157"/>
     <use style="stroke:#000000;" x="259.521995" xlink:href="#mbf21eeb1a0" y="174.387692"/>
     <use style="stroke:#000000;" x="236.16" xlink:href="#mbf21eeb1a0" y="137.801787"/>
     <use style="stroke:#000000;" x="236.16" xlink:href="#mbf21eeb1a0" y="174.528"/>
     <use style="stroke:#000000;" x="236.16" xlink:href="#mbf21eeb1a0" y="144.010688"/>
     <use style="stroke:#000000;" x="241.565641" xlink:href="#mbf21eeb1a0" y="174.528"/>
     <use style="stroke:#000000;" x="236.16" xlink:href="#mbf21eeb1a0" y="162.569183"/>
     <use style="stroke:#000000;" x="236.16" xlink:href="#mbf21eeb1a0" y="159.2004"/>
     <use style="stroke:#000000;" x="236.258006" xlink:href="#mbf21eeb1a0" y="134.6112"/>
     <use style="stroke:#000000;" x="236.16" xlink:href="#mbf21eeb1a0" y="155.962376"/>
     <use style="stroke:#000000;" x="236.16" xlink:href="#mbf21eeb1a0" y="141.987485"/>
     <use style="stroke:#000000;" x="237.261255" xlink:href="#mbf21eeb1a0" y="174.528"/>
     <use style="stroke:#000000;" x="236.16" xlink:href="#mbf21eeb1a0" y="142.634171"/>
     <use style="stroke:#000000;" x="236.16" xlink:href="#mbf21eeb1a0" y="146.783019"/>
     <use style="stroke:#000000;" x="236.16" xlink:href="#mbf21eeb1a0" y="136.3664"/>
     <use style="stroke:#000000;" x="236.16" xlink:href="#mbf21eeb1a0" y="168.611378"/>
     <use style="stroke:#000000;" x="281.876738" xlink:href="#mbf21eeb1a0" y="174.528"/>
     <use style="stroke:#000000;" x="236.16" xlink:href="#mbf21eeb1a0" y="161.91834"/>
     <use style="stroke:#000000;" x="250.478074" xlink:href="#mbf21eeb1a0" y="174.528"/>
     <use style="stroke:#000000;" x="312.351856" xlink:href="#mbf21eeb1a0" y="174.528"/>
     <use style="stroke:#000000;" x="237.18274" xlink:href="#mbf21eeb1a0" y="157.938139"/>
     <use style="stroke:#000000;" x="245.779812" xlink:href="#mbf21eeb1a0" y="153.413024"/>
     <use style="stroke:#000000;" x="236.16" xlink:href="#mbf21eeb1a0" y="143.67974"/>
     <use style="stroke:#000000;" x="236.16" xlink:href="#mbf21eeb1a0" y="145.778275"/>
     <use style="stroke:#000000;" x="236.16" xlink:href="#mbf21eeb1a0" y="150.461727"/>
     <use style="stroke:#000000;" x="236.812306" xlink:href="#mbf21eeb1a0" y="149.281652"/>
     <use style="stroke:#000000;" x="236.16" xlink:href="#mbf21eeb1a0" y="153.3075"/>
     <use style="stroke:#000000;" x="236.367954" xlink:href="#mbf21eeb1a0" y="152.704717"/>
     <use style="stroke:#000000;" x="318.54368" xlink:href="#mbf21eeb1a0" y="134.6112"/>
     <use style="stroke:#000000;" x="325.44" xlink:href="#mbf21eeb1a0" y="150.310441"/>
     <use style="stroke:#000000;" x="325.44" xlink:href="#mbf21eeb1a0" y="140.923224"/>
     <use style="stroke:#000000;" x="252.146348" xlink:href="#mbf21eeb1a0" y="164.825338"/>
     <use style="stroke:#000000;" x="243.091794" xlink:href="#mbf21eeb1a0" y="166.58719"/>
     <use style="stroke:#000000;" x="257.598944" xlink:href="#mbf21eeb1a0" y="171.671505"/>
     <use style="stroke:#000000;" x="236.16" xlink:href="#mbf21eeb1a0" y="143.370661"/>
     <use style="stroke:#000000;" x="245.051184" xlink:href="#mbf21eeb1a0" y="145.93296"/>
     <use style="stroke:#000000;" x="236.16" xlink:href="#mbf21eeb1a0" y="149.55197"/>
     <use style="stroke:#000000;" x="236.17917" xlink:href="#mbf21eeb1a0" y="154.392634"/>
     <use style="stroke:#000000;" x="236.669171" xlink:href="#mbf21eeb1a0" y="145.603099"/>
     <use style="stroke:#000000;" x="236.16" xlink:href="#mbf21eeb1a0" y="149.39099"/>
     <use style="stroke:#000000;" x="249.194354" xlink:href="#mbf21eeb1a0" y="138.321109"/>
     <use style="stroke:#000000;" x="236.16" xlink:href="#mbf21eeb1a0" y="147.973996"/>
     <use style="stroke:#000000;" x="236.16" xlink:href="#mbf21eeb1a0" y="148.225671"/>
     <use style="stroke:#000000;" x="251.693611" xlink:href="#mbf21eeb1a0" y="134.6112"/>
     <use style="stroke:#000000;" x="242.410521" xlink:href="#mbf21eeb1a0" y="146.610762"/>
     <use style="stroke:#000000;" x="246.873394" xlink:href="#mbf21eeb1a0" y="142.942986"/>
     <use style="stroke:#000000;" x="325.44" xlink:href="#mbf21eeb1a0" y="141.359363"/>
     <use style="stroke:#000000;" x="301.99876" xlink:href="#mbf21eeb1a0" y="139.090931"/>
     <use style="stroke:#000000;" x="316.580206" xlink:href="#mbf21eeb1a0" y="148.209914"/>
     <use style="stroke:#000000;" x="311.754201" xlink:href="#mbf21eeb1a0" y="174.528"/>
     <use style="stroke:#000000;" x="311.846257" xlink:href="#mbf21eeb1a0" y="174.528"/>
     <use style="stroke:#000000;" x="321.761244" xlink:href="#mbf21eeb1a0" y="172.539606"/>
     <use style="stroke:#000000;" x="237.175809" xlink:href="#mbf21eeb1a0" y="134.6112"/>
     <use style="stroke:#000000;" x="236.16" xlink:href="#mbf21eeb1a0" y="137.445054"/>
     <use style="stroke:#000000;" x="237.292525" xlink:href="#mbf21eeb1a0" y="135.512921"/>
     <use style="stroke:#000000;" x="275.418319" xlink:href="#mbf21eeb1a0" y="174.528"/>
     <use style="stroke:#000000;" x="283.132115" xlink:href="#mbf21eeb1a0" y="173.185706"/>
     <use style="stroke:#000000;" x="254.779437" xlink:href="#mbf21eeb1a0" y="171.562608"/>
     <use style="stroke:#000000;" x="236.16" xlink:href="#mbf21eeb1a0" y="134.6112"/>
     <use style="stroke:#000000;" x="236.16" xlink:href="#mbf21eeb1a0" y="135.021726"/>
     <use style="stroke:#000000;" x="244.964207" xlink:href="#mbf21eeb1a0" y="134.6112"/>
     <use style="stroke:#000000;" x="301.576636" xlink:href="#mbf21eeb1a0" y="168.446226"/>
     <use style="stroke:#000000;" x="308.50991" xlink:href="#mbf21eeb1a0" y="173.371748"/>
     <use style="stroke:#000000;" x="309.117919" xlink:href="#mbf21eeb1a0" y="167.099098"/>
     <use style="stroke:#000000;" x="325.44" xlink:href="#mbf21eeb1a0" y="174.528"/>
     <use style="stroke:#000000;" x="325.44" xlink:href="#mbf21eeb1a0" y="170.479033"/>
     <use style="stroke:#000000;" x="316.487405" xlink:href="#mbf21eeb1a0" y="168.138503"/>
     <use style="stroke:#000000;" x="236.16" xlink:href="#mbf21eeb1a0" y="134.6112"/>
     <use style="stroke:#000000;" x="236.16" xlink:href="#mbf21eeb1a0" y="135.070668"/>
     <use style="stroke:#000000;" x="251.407872" xlink:href="#mbf21eeb1a0" y="136.710427"/>
     <use style="stroke:#000000;" x="236.504906" xlink:href="#mbf21eeb1a0" y="163.534939"/>
     <use style="stroke:#000000;" x="245.281388" xlink:href="#mbf21eeb1a0" y="172.247474"/>
     <use style="stroke:#000000;" x="251.789245" xlink:href="#mbf21eeb1a0" y="161.283888"/>
     <use style="stroke:#000000;" x="236.16" xlink:href="#mbf21eeb1a0" y="157.471986"/>
     <use style="stroke:#000000;" x="236.16" xlink:href="#mbf21eeb1a0" y="147.912095"/>
     <use style="stroke:#000000;" x="271.09256" xlink:href="#mbf21eeb1a0" y="160.760497"/>
     <use style="stroke:#000000;" x="236.16" xlink:href="#mbf21eeb1a0" y="153.097742"/>
     <use style="stroke:#000000;" x="254.041528" xlink:href="#mbf21eeb1a0" y="138.124417"/>
     <use style="stroke:#000000;" x="236.16" xlink:href="#mbf21eeb1a0" y="155.779862"/>
     <use style="stroke:#000000;" x="322.0876" xlink:href="#mbf21eeb1a0" y="145.222572"/>
     <use style="stroke:#000000;" x="301.555219" xlink:href="#mbf21eeb1a0" y="137.765106"/>
     <use style="stroke:#000000;" x="325.44" xlink:href="#mbf21eeb1a0" y="148.43404"/>
     <use style="stroke:#000000;" x="325.44" xlink:href="#mbf21eeb1a0" y="172.484095"/>
     <use style="stroke:#000000;" x="325.44" xlink:href="#mbf21eeb1a0" y="157.648924"/>
     <use style="stroke:#000000;" x="322.367261" xlink:href="#mbf21eeb1a0" y="144.968174"/>
     <use style="stroke:#000000;" x="307.42947" xlink:href="#mbf21eeb1a0" y="144.893294"/>
     <use style="stroke:#000000;" x="316.475684" xlink:href="#mbf21eeb1a0" y="150.129118"/>
     <use style="stroke:#000000;" x="236.16" xlink:href="#mbf21eeb1a0" y="172.793375"/>
     <use style="stroke:#000000;" x="325.44" xlink:href="#mbf21eeb1a0" y="134.6112"/>
     <use style="stroke:#000000;" x="325.44" xlink:href="#mbf21eeb1a0" y="174.528"/>
     <use style="stroke:#000000;" x="295.528859" xlink:href="#mbf21eeb1a0" y="174.528"/>
     <use style="stroke:#000000;" x="296.959974" xlink:href="#mbf21eeb1a0" y="173.338297"/>
     <use style="stroke:#000000;" x="302.947387" xlink:href="#mbf21eeb1a0" y="163.097377"/>
     <use style="stroke:#000000;" x="246.636057" xlink:href="#mbf21eeb1a0" y="170.171131"/>
     <use style="stroke:#000000;" x="236.16" xlink:href="#mbf21eeb1a0" y="159.914538"/>
     <use style="stroke:#000000;" x="238.652268" xlink:href="#mbf21eeb1a0" y="156.750827"/>
     <use style="stroke:#000000;" x="237.170625" xlink:href="#mbf21eeb1a0" y="165.296618"/>
     <use style="stroke:#000000;" x="236.16" xlink:href="#mbf21eeb1a0" y="157.113593"/>
     <use style="stroke:#000000;" x="247.785697" xlink:href="#mbf21eeb1a0" y="166.087486"/>
     <use style="stroke:#000000;" x="254.907592" xlink:href="#mbf21eeb1a0" y="144.9973"/>
     <use style="stroke:#000000;" x="236.16" xlink:href="#mbf21eeb1a0" y="134.6112"/>
     <use style="stroke:#000000;" x="236.16" xlink:href="#mbf21eeb1a0" y="146.508749"/>
     <use style="stroke:#000000;" x="236.16" xlink:href="#mbf21eeb1a0" y="149.281956"/>
     <use style="stroke:#000000;" x="240.523792" xlink:href="#mbf21eeb1a0" y="152.941257"/>
     <use style="stroke:#000000;" x="246.185756" xlink:href="#mbf21eeb1a0" y="161.422471"/>
     <use style="stroke:#000000;" x="236.16" xlink:href="#mbf21eeb1a0" y="153.063059"/>
     <use style="stroke:#000000;" x="247.089834" xlink:href="#mbf21eeb1a0" y="148.335447"/>
     <use style="stroke:#000000;" x="236.16" xlink:href="#mbf21eeb1a0" y="134.6112"/>
     <use style="stroke:#000000;" x="280.963063" xlink:href="#mbf21eeb1a0" y="169.094902"/>
     <use style="stroke:#000000;" x="236.16" xlink:href="#mbf21eeb1a0" y="150.576519"/>
     <use style="stroke:#000000;" x="236.16" xlink:href="#mbf21eeb1a0" y="162.420238"/>
     <use style="stroke:#000000;" x="249.052725" xlink:href="#mbf21eeb1a0" y="146.970791"/>
     <use style="stroke:#000000;" x="236.16" xlink:href="#mbf21eeb1a0" y="142.922056"/>
     <use style="stroke:#000000;" x="236.16" xlink:href="#mbf21eeb1a0" y="137.937533"/>
     <use style="stroke:#000000;" x="236.16" xlink:href="#mbf21eeb1a0" y="138.884238"/>
     <use style="stroke:#000000;" x="236.16" xlink:href="#mbf21eeb1a0" y="134.717209"/>
     <use style="stroke:#000000;" x="252.000207" xlink:href="#mbf21eeb1a0" y="142.568642"/>
     <use style="stroke:#000000;" x="262.618751" xlink:href="#mbf21eeb1a0" y="174.528"/>
     <use style="stroke:#000000;" x="272.077624" xlink:href="#mbf21eeb1a0" y="169.987983"/>
     <use style="stroke:#000000;" x="259.552262" xlink:href="#mbf21eeb1a0" y="174.528"/>
     <use style="stroke:#000000;" x="263.469346" xlink:href="#mbf21eeb1a0" y="174.528"/>
     <use style="stroke:#000000;" x="265.459142" xlink:href="#mbf21eeb1a0" y="169.413597"/>
     <use style="stroke:#000000;" x="325.44" xlink:href="#mbf21eeb1a0" y="143.149838"/>
     <use style="stroke:#000000;" x="325.44" xlink:href="#mbf21eeb1a0" y="142.930381"/>
     <use style="stroke:#000000;" x="237.458379" xlink:href="#mbf21eeb1a0" y="168.041297"/>
     <use style="stroke:#000000;" x="236.16" xlink:href="#mbf21eeb1a0" y="155.443904"/>
     <use style="stroke:#000000;" x="236.16" xlink:href="#mbf21eeb1a0" y="134.6112"/>
     <use style="stroke:#000000;" x="241.67635" xlink:href="#mbf21eeb1a0" y="151.343313"/>
     <use style="stroke:#000000;" x="249.716649" xlink:href="#mbf21eeb1a0" y="164.802104"/>
     <use style="stroke:#000000;" x="236.16" xlink:href="#mbf21eeb1a0" y="166.705758"/>
     <use style="stroke:#000000;" x="246.12251" xlink:href="#mbf21eeb1a0" y="160.020091"/>
     <use style="stroke:#000000;" x="243.415589" xlink:href="#mbf21eeb1a0" y="156.735406"/>
     <use style="stroke:#000000;" x="236.16" xlink:href="#mbf21eeb1a0" y="151.602968"/>
     <use style="stroke:#000000;" x="254.255286" xlink:href="#mbf21eeb1a0" y="156.677659"/>
     <use style="stroke:#000000;" x="236.16" xlink:href="#mbf21eeb1a0" y="174.528"/>
     <use style="stroke:#000000;" x="236.16" xlink:href="#mbf21eeb1a0" y="166.090776"/>
     <use style="stroke:#000000;" x="241.802577" xlink:href="#mbf21eeb1a0" y="159.572258"/>
     <use style="stroke:#000000;" x="236.16" xlink:href="#mbf21eeb1a0" y="157.578534"/>
     <use style="stroke:#000000;" x="324.976537" xlink:href="#mbf21eeb1a0" y="134.6112"/>
     <use style="stroke:#000000;" x="313.433429" xlink:href="#mbf21eeb1a0" y="134.6112"/>
     <use style="stroke:#000000;" x="312.425586" xlink:href="#mbf21eeb1a0" y="141.695714"/>
     <use style="stroke:#000000;" x="312.821646" xlink:href="#mbf21eeb1a0" y="144.923521"/>
     <use style="stroke:#000000;" x="236.16" xlink:href="#mbf21eeb1a0" y="135.946039"/>
     <use style="stroke:#000000;" x="247.484738" xlink:href="#mbf21eeb1a0" y="138.627601"/>
     <use style="stroke:#000000;" x="246.850597" xlink:href="#mbf21eeb1a0" y="171.141314"/>
     <use style="stroke:#000000;" x="236.16" xlink:href="#mbf21eeb1a0" y="168.277393"/>
     <use style="stroke:#000000;" x="249.489473" xlink:href="#mbf21eeb1a0" y="152.926179"/>
     <use style="stroke:#000000;" x="239.686988" xlink:href="#mbf21eeb1a0" y="144.88602"/>
     <use style="stroke:#000000;" x="236.16" xlink:href="#mbf21eeb1a0" y="150.104903"/>
     <use style="stroke:#000000;" x="236.16" xlink:href="#mbf21eeb1a0" y="163.846866"/>
     <use style="stroke:#000000;" x="242.75755" xlink:href="#mbf21eeb1a0" y="140.73682"/>
     <use style="stroke:#000000;" x="236.16" xlink:href="#mbf21eeb1a0" y="148.728379"/>
     <use style="stroke:#000000;" x="236.16" xlink:href="#mbf21eeb1a0" y="152.128534"/>
     <use style="stroke:#000000;" x="253.004519" xlink:href="#mbf21eeb1a0" y="153.695986"/>
     <use style="stroke:#000000;" x="274.035269" xlink:href="#mbf21eeb1a0" y="166.374681"/>
     <use style="stroke:#000000;" x="273.745147" xlink:href="#mbf21eeb1a0" y="174.528"/>
     <use style="stroke:#000000;" x="236.16" xlink:href="#mbf21eeb1a0" y="143.829964"/>
     <use style="stroke:#000000;" x="236.16" xlink:href="#mbf21eeb1a0" y="168.50811"/>
     <use style="stroke:#000000;" x="253.156328" xlink:href="#mbf21eeb1a0" y="174.528"/>
     <use style="stroke:#000000;" x="252.729145" xlink:href="#mbf21eeb1a0" y="138.037038"/>
     <use style="stroke:#000000;" x="236.16" xlink:href="#mbf21eeb1a0" y="145.124354"/>
     <use style="stroke:#000000;" x="254.162895" xlink:href="#mbf21eeb1a0" y="174.431675"/>
     <use style="stroke:#000000;" x="275.437694" xlink:href="#mbf21eeb1a0" y="174.528"/>
     <use style="stroke:#000000;" x="236.16" xlink:href="#mbf21eeb1a0" y="169.284827"/>
     <use style="stroke:#000000;" x="236.498765" xlink:href="#mbf21eeb1a0" y="158.052058"/>
     <use style="stroke:#000000;" x="236.16" xlink:href="#mbf21eeb1a0" y="144.821955"/>
     <use style="stroke:#000000;" x="236.323177" xlink:href="#mbf21eeb1a0" y="156.541778"/>
     <use style="stroke:#000000;" x="236.16" xlink:href="#mbf21eeb1a0" y="134.6112"/>
     <use style="stroke:#000000;" x="236.16" xlink:href="#mbf21eeb1a0" y="159.581229"/>
     <use style="stroke:#000000;" x="238.287677" xlink:href="#mbf21eeb1a0" y="158.949677"/>
     <use style="stroke:#000000;" x="236.16" xlink:href="#mbf21eeb1a0" y="147.894263"/>
     <use style="stroke:#000000;" x="236.16" xlink:href="#mbf21eeb1a0" y="151.386754"/>
     <use style="stroke:#000000;" x="236.16" xlink:href="#mbf21eeb1a0" y="174.528"/>
     <use style="stroke:#000000;" x="237.874581" xlink:href="#mbf21eeb1a0" y="139.99371"/>
     <use style="stroke:#000000;" x="245.578462" xlink:href="#mbf21eeb1a0" y="134.6112"/>
     <use style="stroke:#000000;" x="237.089063" xlink:href="#mbf21eeb1a0" y="138.072514"/>
     <use style="stroke:#000000;" x="236.16" xlink:href="#mbf21eeb1a0" y="174.528"/>
     <use style="stroke:#000000;" x="285.036463" xlink:href="#mbf21eeb1a0" y="166.717107"/>
     <use style="stroke:#000000;" x="264.437302" xlink:href="#mbf21eeb1a0" y="158.332158"/>
     <use style="stroke:#000000;" x="245.593765" xlink:href="#mbf21eeb1a0" y="172.325033"/>
     <use style="stroke:#000000;" x="311.818006" xlink:href="#mbf21eeb1a0" y="174.138577"/>
    </g>
   </g>
   <g id="PathCollection_2">
    <defs>
     <path d="M 0 0.935414 
C 0.248075 0.935414 0.486022 0.836853 0.661438 0.661438 
C 0.836853 0.486022 0.935414 0.248075 0.935414 0 
C 0.935414 -0.248075 0.836853 -0.486022 0.661438 -0.661438 
C 0.486022 -0.836853 0.248075 -0.935414 0 -0.935414 
C -0.248075 -0.935414 -0.486022 -0.836853 -0.661438 -0.661438 
C -0.836853 -0.486022 -0.935414 -0.248075 -0.935414 0 
C -0.935414 0.248075 -0.836853 0.486022 -0.661438 0.661438 
C -0.486022 0.836853 -0.248075 0.935414 0 0.935414 
z
" id="m78e118cea7" style="stroke:#0000ff;"/>
    </defs>
    <g clip-path="url(#pcd09f14121)">
     <use style="fill:#0000ff;stroke:#0000ff;" x="236.16" xlink:href="#m78e118cea7" y="147.806594"/>
     <use style="fill:#0000ff;stroke:#0000ff;" x="236.16" xlink:href="#m78e118cea7" y="147.955218"/>
     <use style="fill:#0000ff;stroke:#0000ff;" x="236.16" xlink:href="#m78e118cea7" y="150.313401"/>
     <use style="fill:#0000ff;stroke:#0000ff;" x="325.44" xlink:href="#m78e118cea7" y="140.736768"/>
     <use style="fill:#0000ff;stroke:#0000ff;" x="236.16" xlink:href="#m78e118cea7" y="170.072867"/>
     <use style="fill:#0000ff;stroke:#0000ff;" x="236.16" xlink:href="#m78e118cea7" y="145.034124"/>
     <use style="fill:#0000ff;stroke:#0000ff;" x="236.16" xlink:href="#m78e118cea7" y="150.935124"/>
     <use style="fill:#0000ff;stroke:#0000ff;" x="236.16" xlink:href="#m78e118cea7" y="143.975966"/>
     <use style="fill:#0000ff;stroke:#0000ff;" x="236.16" xlink:href="#m78e118cea7" y="142.435865"/>
     <use style="fill:#0000ff;stroke:#0000ff;" x="325.44" xlink:href="#m78e118cea7" y="143.998845"/>
     <use style="fill:#0000ff;stroke:#0000ff;" x="321.885286" xlink:href="#m78e118cea7" y="174.528"/>
     <use style="fill:#0000ff;stroke:#0000ff;" x="236.16" xlink:href="#m78e118cea7" y="139.295179"/>
     <use style="fill:#0000ff;stroke:#0000ff;" x="265.870376" xlink:href="#m78e118cea7" y="174.528"/>
     <use style="fill:#0000ff;stroke:#0000ff;" x="236.16" xlink:href="#m78e118cea7" y="134.6112"/>
     <use style="fill:#0000ff;stroke:#0000ff;" x="304.775217" xlink:href="#m78e118cea7" y="174.528"/>
     <use style="fill:#0000ff;stroke:#0000ff;" x="325.44" xlink:href="#m78e118cea7" y="171.318227"/>
     <use style="fill:#0000ff;stroke:#0000ff;" x="236.16" xlink:href="#m78e118cea7" y="134.6112"/>
     <use style="fill:#0000ff;stroke:#0000ff;" x="236.16" xlink:href="#m78e118cea7" y="165.22391"/>
     <use style="fill:#0000ff;stroke:#0000ff;" x="236.16" xlink:href="#m78e118cea7" y="155.877912"/>
     <use style="fill:#0000ff;stroke:#0000ff;" x="236.16" xlink:href="#m78e118cea7" y="150.493043"/>
     <use style="fill:#0000ff;stroke:#0000ff;" x="325.44" xlink:href="#m78e118cea7" y="146.311296"/>
     <use style="fill:#0000ff;stroke:#0000ff;" x="325.44" xlink:href="#m78e118cea7" y="158.213463"/>
     <use style="fill:#0000ff;stroke:#0000ff;" x="325.44" xlink:href="#m78e118cea7" y="153.300602"/>
     <use style="fill:#0000ff;stroke:#0000ff;" x="325.44" xlink:href="#m78e118cea7" y="142.504809"/>
     <use style="fill:#0000ff;stroke:#0000ff;" x="238.269591" xlink:href="#m78e118cea7" y="174.528"/>
     <use style="fill:#0000ff;stroke:#0000ff;" x="325.44" xlink:href="#m78e118cea7" y="136.479949"/>
     <use style="fill:#0000ff;stroke:#0000ff;" x="312.023915" xlink:href="#m78e118cea7" y="174.528"/>
     <use style="fill:#0000ff;stroke:#0000ff;" x="325.44" xlink:href="#m78e118cea7" y="166.803901"/>
     <use style="fill:#0000ff;stroke:#0000ff;" x="254.014438" xlink:href="#m78e118cea7" y="174.528"/>
     <use style="fill:#0000ff;stroke:#0000ff;" x="236.16" xlink:href="#m78e118cea7" y="156.637806"/>
     <use style="fill:#0000ff;stroke:#0000ff;" x="236.16" xlink:href="#m78e118cea7" y="155.127218"/>
     <use style="fill:#0000ff;stroke:#0000ff;" x="236.16" xlink:href="#m78e118cea7" y="174.528"/>
     <use style="fill:#0000ff;stroke:#0000ff;" x="236.16" xlink:href="#m78e118cea7" y="142.945077"/>
     <use style="fill:#0000ff;stroke:#0000ff;" x="236.16" xlink:href="#m78e118cea7" y="149.093013"/>
     <use style="fill:#0000ff;stroke:#0000ff;" x="236.16" xlink:href="#m78e118cea7" y="156.755284"/>
     <use style="fill:#0000ff;stroke:#0000ff;" x="236.16" xlink:href="#m78e118cea7" y="152.962391"/>
     <use style="fill:#0000ff;stroke:#0000ff;" x="236.16" xlink:href="#m78e118cea7" y="134.6112"/>
     <use style="fill:#0000ff;stroke:#0000ff;" x="272.282534" xlink:href="#m78e118cea7" y="174.528"/>
     <use style="fill:#0000ff;stroke:#0000ff;" x="236.16" xlink:href="#m78e118cea7" y="151.521562"/>
     <use style="fill:#0000ff;stroke:#0000ff;" x="236.16" xlink:href="#m78e118cea7" y="137.089388"/>
     <use style="fill:#0000ff;stroke:#0000ff;" x="236.16" xlink:href="#m78e118cea7" y="140.54961"/>
     <use style="fill:#0000ff;stroke:#0000ff;" x="268.690724" xlink:href="#m78e118cea7" y="174.528"/>
     <use style="fill:#0000ff;stroke:#0000ff;" x="281.103514" xlink:href="#m78e118cea7" y="174.528"/>
     <use style="fill:#0000ff;stroke:#0000ff;" x="281.496839" xlink:href="#m78e118cea7" y="174.528"/>
     <use style="fill:#0000ff;stroke:#0000ff;" x="325.44" xlink:href="#m78e118cea7" y="145.072229"/>
     <use style="fill:#0000ff;stroke:#0000ff;" x="236.16" xlink:href="#m78e118cea7" y="154.499179"/>
     <use style="fill:#0000ff;stroke:#0000ff;" x="236.16" xlink:href="#m78e118cea7" y="139.55979"/>
     <use style="fill:#0000ff;stroke:#0000ff;" x="236.16" xlink:href="#m78e118cea7" y="161.517015"/>
     <use style="fill:#0000ff;stroke:#0000ff;" x="236.16" xlink:href="#m78e118cea7" y="158.052009"/>
     <use style="fill:#0000ff;stroke:#0000ff;" x="236.16" xlink:href="#m78e118cea7" y="155.769557"/>
     <use style="fill:#0000ff;stroke:#0000ff;" x="236.16" xlink:href="#m78e118cea7" y="171.883362"/>
     <use style="fill:#0000ff;stroke:#0000ff;" x="236.16" xlink:href="#m78e118cea7" y="170.150636"/>
     <use style="fill:#0000ff;stroke:#0000ff;" x="236.16" xlink:href="#m78e118cea7" y="159.705955"/>
     <use style="fill:#0000ff;stroke:#0000ff;" x="325.44" xlink:href="#m78e118cea7" y="136.123806"/>
     <use style="fill:#0000ff;stroke:#0000ff;" x="325.44" xlink:href="#m78e118cea7" y="141.744987"/>
     <use style="fill:#0000ff;stroke:#0000ff;" x="236.16" xlink:href="#m78e118cea7" y="134.6112"/>
     <use style="fill:#0000ff;stroke:#0000ff;" x="239.787702" xlink:href="#m78e118cea7" y="174.528"/>
     <use style="fill:#0000ff;stroke:#0000ff;" x="236.16" xlink:href="#m78e118cea7" y="146.919423"/>
     <use style="fill:#0000ff;stroke:#0000ff;" x="236.16" xlink:href="#m78e118cea7" y="148.24495"/>
     <use style="fill:#0000ff;stroke:#0000ff;" x="236.16" xlink:href="#m78e118cea7" y="151.870456"/>
     <use style="fill:#0000ff;stroke:#0000ff;" x="236.16" xlink:href="#m78e118cea7" y="154.623157"/>
     <use style="fill:#0000ff;stroke:#0000ff;" x="259.521995" xlink:href="#m78e118cea7" y="174.387692"/>
     <use style="fill:#0000ff;stroke:#0000ff;" x="236.16" xlink:href="#m78e118cea7" y="137.801787"/>
     <use style="fill:#0000ff;stroke:#0000ff;" x="236.16" xlink:href="#m78e118cea7" y="174.528"/>
     <use style="fill:#0000ff;stroke:#0000ff;" x="236.16" xlink:href="#m78e118cea7" y="144.010688"/>
     <use style="fill:#0000ff;stroke:#0000ff;" x="241.565641" xlink:href="#m78e118cea7" y="174.528"/>
     <use style="fill:#0000ff;stroke:#0000ff;" x="236.16" xlink:href="#m78e118cea7" y="162.569183"/>
     <use style="fill:#0000ff;stroke:#0000ff;" x="236.16" xlink:href="#m78e118cea7" y="159.2004"/>
     <use style="fill:#0000ff;stroke:#0000ff;" x="236.258006" xlink:href="#m78e118cea7" y="134.6112"/>
     <use style="fill:#0000ff;stroke:#0000ff;" x="236.16" xlink:href="#m78e118cea7" y="155.962376"/>
     <use style="fill:#0000ff;stroke:#0000ff;" x="236.16" xlink:href="#m78e118cea7" y="141.987485"/>
     <use style="fill:#0000ff;stroke:#0000ff;" x="237.261255" xlink:href="#m78e118cea7" y="174.528"/>
     <use style="fill:#0000ff;stroke:#0000ff;" x="236.16" xlink:href="#m78e118cea7" y="142.634171"/>
     <use style="fill:#0000ff;stroke:#0000ff;" x="236.16" xlink:href="#m78e118cea7" y="146.783019"/>
     <use style="fill:#0000ff;stroke:#0000ff;" x="236.16" xlink:href="#m78e118cea7" y="136.3664"/>
     <use style="fill:#0000ff;stroke:#0000ff;" x="236.16" xlink:href="#m78e118cea7" y="168.611378"/>
     <use style="fill:#0000ff;stroke:#0000ff;" x="281.876738" xlink:href="#m78e118cea7" y="174.528"/>
     <use style="fill:#0000ff;stroke:#0000ff;" x="236.16" xlink:href="#m78e118cea7" y="161.91834"/>
     <use style="fill:#0000ff;stroke:#0000ff;" x="250.478074" xlink:href="#m78e118cea7" y="174.528"/>
     <use style="fill:#0000ff;stroke:#0000ff;" x="312.351856" xlink:href="#m78e118cea7" y="174.528"/>
    </g>
   </g>
   <g id="matplotlib.axis_1">
    <g id="xtick_1">
     <g id="line2d_1">
      <defs>
       <path d="M 0 0 
L 0 3.5 
" id="m36a147078b" style="stroke:#000000;stroke-width:0.8;"/>
      </defs>
      <g>
       <use style="stroke:#000000;stroke-width:0.8;" x="57.6" xlink:href="#m36a147078b" y="307.584"/>
      </g>
     </g>
     <g id="text_1">
      <!-- −10.0 -->
      <defs>
       <path d="M 10.59375 35.5 
L 73.1875 35.5 
L 73.1875 27.203125 
L 10.59375 27.203125 
z
" id="DejaVuSans-2212"/>
       <path d="M 12.40625 8.296875 
L 28.515625 8.296875 
L 28.515625 63.921875 
L 10.984375 60.40625 
L 10.984375 69.390625 
L 28.421875 72.90625 
L 38.28125 72.90625 
L 38.28125 8.296875 
L 54.390625 8.296875 
L 54.390625 0 
L 12.40625 0 
z
" id="DejaVuSans-31"/>
       <path d="M 31.78125 66.40625 
Q 24.171875 66.40625 20.328125 58.90625 
Q 16.5 51.421875 16.5 36.375 
Q 16.5 21.390625 20.328125 13.890625 
Q 24.171875 6.390625 31.78125 6.390625 
Q 39.453125 6.390625 43.28125 13.890625 
Q 47.125 21.390625 47.125 36.375 
Q 47.125 51.421875 43.28125 58.90625 
Q 39.453125 66.40625 31.78125 66.40625 
z
M 31.78125 74.21875 
Q 44.046875 74.21875 50.515625 64.515625 
Q 56.984375 54.828125 56.984375 36.375 
Q 56.984375 17.96875 50.515625 8.265625 
Q 44.046875 -1.421875 31.78125 -1.421875 
Q 19.53125 -1.421875 13.0625 8.265625 
Q 6.59375 17.96875 6.59375 36.375 
Q 6.59375 54.828125 13.0625 64.515625 
Q 19.53125 74.21875 31.78125 74.21875 
z
" id="DejaVuSans-30"/>
       <path d="M 10.6875 12.40625 
L 21 12.40625 
L 21 0 
L 10.6875 0 
z
" id="DejaVuSans-2e"/>
      </defs>
      <g transform="translate(42.277344 322.182437)scale(0.1 -0.1)">
       <use xlink:href="#DejaVuSans-2212"/>
       <use x="83.789062" xlink:href="#DejaVuSans-31"/>
       <use x="147.412109" xlink:href="#DejaVuSans-30"/>
       <use x="211.035156" xlink:href="#DejaVuSans-2e"/>
       <use x="242.822266" xlink:href="#DejaVuSans-30"/>
      </g>
     </g>
    </g>
    <g id="xtick_2">
     <g id="line2d_2">
      <g>
       <use style="stroke:#000000;stroke-width:0.8;" x="102.24" xlink:href="#m36a147078b" y="307.584"/>
      </g>
     </g>
     <g id="text_2">
      <!-- −7.5 -->
      <defs>
       <path d="M 8.203125 72.90625 
L 55.078125 72.90625 
L 55.078125 68.703125 
L 28.609375 0 
L 18.3125 0 
L 43.21875 64.59375 
L 8.203125 64.59375 
z
" id="DejaVuSans-37"/>
       <path d="M 10.796875 72.90625 
L 49.515625 72.90625 
L 49.515625 64.59375 
L 19.828125 64.59375 
L 19.828125 46.734375 
Q 21.96875 47.46875 24.109375 47.828125 
Q 26.265625 48.1875 28.421875 48.1875 
Q 40.625 48.1875 47.75 41.5 
Q 54.890625 34.8125 54.890625 23.390625 
Q 54.890625 11.625 47.5625 5.09375 
Q 40.234375 -1.421875 26.90625 -1.421875 
Q 22.3125 -1.421875 17.546875 -0.640625 
Q 12.796875 0.140625 7.71875 1.703125 
L 7.71875 11.625 
Q 12.109375 9.234375 16.796875 8.0625 
Q 21.484375 6.890625 26.703125 6.890625 
Q 35.15625 6.890625 40.078125 11.328125 
Q 45.015625 15.765625 45.015625 23.390625 
Q 45.015625 31 40.078125 35.4375 
Q 35.15625 39.890625 26.703125 39.890625 
Q 22.75 39.890625 18.8125 39.015625 
Q 14.890625 38.140625 10.796875 36.28125 
z
" id="DejaVuSans-35"/>
      </defs>
      <g transform="translate(90.098594 322.182437)scale(0.1 -0.1)">
       <use xlink:href="#DejaVuSans-2212"/>
       <use x="83.789062" xlink:href="#DejaVuSans-37"/>
       <use x="147.412109" xlink:href="#DejaVuSans-2e"/>
       <use x="179.199219" xlink:href="#DejaVuSans-35"/>
      </g>
     </g>
    </g>
    <g id="xtick_3">
     <g id="line2d_3">
      <g>
       <use style="stroke:#000000;stroke-width:0.8;" x="146.88" xlink:href="#m36a147078b" y="307.584"/>
      </g>
     </g>
     <g id="text_3">
      <!-- −5.0 -->
      <g transform="translate(134.738594 322.182437)scale(0.1 -0.1)">
       <use xlink:href="#DejaVuSans-2212"/>
       <use x="83.789062" xlink:href="#DejaVuSans-35"/>
       <use x="147.412109" xlink:href="#DejaVuSans-2e"/>
       <use x="179.199219" xlink:href="#DejaVuSans-30"/>
      </g>
     </g>
    </g>
    <g id="xtick_4">
     <g id="line2d_4">
      <g>
       <use style="stroke:#000000;stroke-width:0.8;" x="191.52" xlink:href="#m36a147078b" y="307.584"/>
      </g>
     </g>
     <g id="text_4">
      <!-- −2.5 -->
      <defs>
       <path d="M 19.1875 8.296875 
L 53.609375 8.296875 
L 53.609375 0 
L 7.328125 0 
L 7.328125 8.296875 
Q 12.9375 14.109375 22.625 23.890625 
Q 32.328125 33.6875 34.8125 36.53125 
Q 39.546875 41.84375 41.421875 45.53125 
Q 43.3125 49.21875 43.3125 52.78125 
Q 43.3125 58.59375 39.234375 62.25 
Q 35.15625 65.921875 28.609375 65.921875 
Q 23.96875 65.921875 18.8125 64.3125 
Q 13.671875 62.703125 7.8125 59.421875 
L 7.8125 69.390625 
Q 13.765625 71.78125 18.9375 73 
Q 24.125 74.21875 28.421875 74.21875 
Q 39.75 74.21875 46.484375 68.546875 
Q 53.21875 62.890625 53.21875 53.421875 
Q 53.21875 48.921875 51.53125 44.890625 
Q 49.859375 40.875 45.40625 35.40625 
Q 44.1875 33.984375 37.640625 27.21875 
Q 31.109375 20.453125 19.1875 8.296875 
z
" id="DejaVuSans-32"/>
      </defs>
      <g transform="translate(179.378594 322.182437)scale(0.1 -0.1)">
       <use xlink:href="#DejaVuSans-2212"/>
       <use x="83.789062" xlink:href="#DejaVuSans-32"/>
       <use x="147.412109" xlink:href="#DejaVuSans-2e"/>
       <use x="179.199219" xlink:href="#DejaVuSans-35"/>
      </g>
     </g>
    </g>
    <g id="xtick_5">
     <g id="line2d_5">
      <g>
       <use style="stroke:#000000;stroke-width:0.8;" x="236.16" xlink:href="#m36a147078b" y="307.584"/>
      </g>
     </g>
     <g id="text_5">
      <!-- 0.0 -->
      <g transform="translate(228.208438 322.182437)scale(0.1 -0.1)">
       <use xlink:href="#DejaVuSans-30"/>
       <use x="63.623047" xlink:href="#DejaVuSans-2e"/>
       <use x="95.410156" xlink:href="#DejaVuSans-30"/>
      </g>
     </g>
    </g>
    <g id="xtick_6">
     <g id="line2d_6">
      <g>
       <use style="stroke:#000000;stroke-width:0.8;" x="280.8" xlink:href="#m36a147078b" y="307.584"/>
      </g>
     </g>
     <g id="text_6">
      <!-- 2.5 -->
      <g transform="translate(272.848437 322.182437)scale(0.1 -0.1)">
       <use xlink:href="#DejaVuSans-32"/>
       <use x="63.623047" xlink:href="#DejaVuSans-2e"/>
       <use x="95.410156" xlink:href="#DejaVuSans-35"/>
      </g>
     </g>
    </g>
    <g id="xtick_7">
     <g id="line2d_7">
      <g>
       <use style="stroke:#000000;stroke-width:0.8;" x="325.44" xlink:href="#m36a147078b" y="307.584"/>
      </g>
     </g>
     <g id="text_7">
      <!-- 5.0 -->
      <g transform="translate(317.488437 322.182437)scale(0.1 -0.1)">
       <use xlink:href="#DejaVuSans-35"/>
       <use x="63.623047" xlink:href="#DejaVuSans-2e"/>
       <use x="95.410156" xlink:href="#DejaVuSans-30"/>
      </g>
     </g>
    </g>
    <g id="xtick_8">
     <g id="line2d_8">
      <g>
       <use style="stroke:#000000;stroke-width:0.8;" x="370.08" xlink:href="#m36a147078b" y="307.584"/>
      </g>
     </g>
     <g id="text_8">
      <!-- 7.5 -->
      <g transform="translate(362.128438 322.182437)scale(0.1 -0.1)">
       <use xlink:href="#DejaVuSans-37"/>
       <use x="63.623047" xlink:href="#DejaVuSans-2e"/>
       <use x="95.410156" xlink:href="#DejaVuSans-35"/>
      </g>
     </g>
    </g>
    <g id="xtick_9">
     <g id="line2d_9">
      <g>
       <use style="stroke:#000000;stroke-width:0.8;" x="414.72" xlink:href="#m36a147078b" y="307.584"/>
      </g>
     </g>
     <g id="text_9">
      <!-- 10.0 -->
      <g transform="translate(403.587188 322.182437)scale(0.1 -0.1)">
       <use xlink:href="#DejaVuSans-31"/>
       <use x="63.623047" xlink:href="#DejaVuSans-30"/>
       <use x="127.246094" xlink:href="#DejaVuSans-2e"/>
       <use x="159.033203" xlink:href="#DejaVuSans-30"/>
      </g>
     </g>
    </g>
   </g>
   <g id="matplotlib.axis_2">
    <g id="ytick_1">
     <g id="line2d_10">
      <defs>
       <path d="M 0 0 
L -3.5 0 
" id="m7b3206efe8" style="stroke:#000000;stroke-width:0.8;"/>
      </defs>
      <g>
       <use style="stroke:#000000;stroke-width:0.8;" x="57.6" xlink:href="#m7b3206efe8" y="307.584"/>
      </g>
     </g>
     <g id="text_10">
      <!-- −10.0 -->
      <g transform="translate(19.954687 311.383219)scale(0.1 -0.1)">
       <use xlink:href="#DejaVuSans-2212"/>
       <use x="83.789062" xlink:href="#DejaVuSans-31"/>
       <use x="147.412109" xlink:href="#DejaVuSans-30"/>
       <use x="211.035156" xlink:href="#DejaVuSans-2e"/>
       <use x="242.822266" xlink:href="#DejaVuSans-30"/>
      </g>
     </g>
    </g>
    <g id="ytick_2">
     <g id="line2d_11">
      <g>
       <use style="stroke:#000000;stroke-width:0.8;" x="57.6" xlink:href="#m7b3206efe8" y="274.32"/>
      </g>
     </g>
     <g id="text_11">
      <!-- −7.5 -->
      <g transform="translate(26.317187 278.119219)scale(0.1 -0.1)">
       <use xlink:href="#DejaVuSans-2212"/>
       <use x="83.789062" xlink:href="#DejaVuSans-37"/>
       <use x="147.412109" xlink:href="#DejaVuSans-2e"/>
       <use x="179.199219" xlink:href="#DejaVuSans-35"/>
      </g>
     </g>
    </g>
    <g id="ytick_3">
     <g id="line2d_12">
      <g>
       <use style="stroke:#000000;stroke-width:0.8;" x="57.6" xlink:href="#m7b3206efe8" y="241.056"/>
      </g>
     </g>
     <g id="text_12">
      <!-- −5.0 -->
      <g transform="translate(26.317187 244.855219)scale(0.1 -0.1)">
       <use xlink:href="#DejaVuSans-2212"/>
       <use x="83.789062" xlink:href="#DejaVuSans-35"/>
       <use x="147.412109" xlink:href="#DejaVuSans-2e"/>
       <use x="179.199219" xlink:href="#DejaVuSans-30"/>
      </g>
     </g>
    </g>
    <g id="ytick_4">
     <g id="line2d_13">
      <g>
       <use style="stroke:#000000;stroke-width:0.8;" x="57.6" xlink:href="#m7b3206efe8" y="207.792"/>
      </g>
     </g>
     <g id="text_13">
      <!-- −2.5 -->
      <g transform="translate(26.317187 211.591219)scale(0.1 -0.1)">
       <use xlink:href="#DejaVuSans-2212"/>
       <use x="83.789062" xlink:href="#DejaVuSans-32"/>
       <use x="147.412109" xlink:href="#DejaVuSans-2e"/>
       <use x="179.199219" xlink:href="#DejaVuSans-35"/>
      </g>
     </g>
    </g>
    <g id="ytick_5">
     <g id="line2d_14">
      <g>
       <use style="stroke:#000000;stroke-width:0.8;" x="57.6" xlink:href="#m7b3206efe8" y="174.528"/>
      </g>
     </g>
     <g id="text_14">
      <!-- 0.0 -->
      <g transform="translate(34.696875 178.327219)scale(0.1 -0.1)">
       <use xlink:href="#DejaVuSans-30"/>
       <use x="63.623047" xlink:href="#DejaVuSans-2e"/>
       <use x="95.410156" xlink:href="#DejaVuSans-30"/>
      </g>
     </g>
    </g>
    <g id="ytick_6">
     <g id="line2d_15">
      <g>
       <use style="stroke:#000000;stroke-width:0.8;" x="57.6" xlink:href="#m7b3206efe8" y="141.264"/>
      </g>
     </g>
     <g id="text_15">
      <!-- 2.5 -->
      <g transform="translate(34.696875 145.063219)scale(0.1 -0.1)">
       <use xlink:href="#DejaVuSans-32"/>
       <use x="63.623047" xlink:href="#DejaVuSans-2e"/>
       <use x="95.410156" xlink:href="#DejaVuSans-35"/>
      </g>
     </g>
    </g>
    <g id="ytick_7">
     <g id="line2d_16">
      <g>
       <use style="stroke:#000000;stroke-width:0.8;" x="57.6" xlink:href="#m7b3206efe8" y="108"/>
      </g>
     </g>
     <g id="text_16">
      <!-- 5.0 -->
      <g transform="translate(34.696875 111.799219)scale(0.1 -0.1)">
       <use xlink:href="#DejaVuSans-35"/>
       <use x="63.623047" xlink:href="#DejaVuSans-2e"/>
       <use x="95.410156" xlink:href="#DejaVuSans-30"/>
      </g>
     </g>
    </g>
    <g id="ytick_8">
     <g id="line2d_17">
      <g>
       <use style="stroke:#000000;stroke-width:0.8;" x="57.6" xlink:href="#m7b3206efe8" y="74.736"/>
      </g>
     </g>
     <g id="text_17">
      <!-- 7.5 -->
      <g transform="translate(34.696875 78.535219)scale(0.1 -0.1)">
       <use xlink:href="#DejaVuSans-37"/>
       <use x="63.623047" xlink:href="#DejaVuSans-2e"/>
       <use x="95.410156" xlink:href="#DejaVuSans-35"/>
      </g>
     </g>
    </g>
    <g id="ytick_9">
     <g id="line2d_18">
      <g>
       <use style="stroke:#000000;stroke-width:0.8;" x="57.6" xlink:href="#m7b3206efe8" y="41.472"/>
      </g>
     </g>
     <g id="text_18">
      <!-- 10.0 -->
      <g transform="translate(28.334375 45.271219)scale(0.1 -0.1)">
       <use xlink:href="#DejaVuSans-31"/>
       <use x="63.623047" xlink:href="#DejaVuSans-30"/>
       <use x="127.246094" xlink:href="#DejaVuSans-2e"/>
       <use x="159.033203" xlink:href="#DejaVuSans-30"/>
      </g>
     </g>
    </g>
   </g>
   <g id="patch_3">
    <path d="M 57.6 307.584 
L 57.6 41.472 
" style="fill:none;stroke:#000000;stroke-linecap:square;stroke-linejoin:miter;stroke-width:0.8;"/>
   </g>
   <g id="patch_4">
    <path d="M 414.72 307.584 
L 414.72 41.472 
" style="fill:none;stroke:#000000;stroke-linecap:square;stroke-linejoin:miter;stroke-width:0.8;"/>
   </g>
   <g id="patch_5">
    <path d="M 57.6 307.584 
L 414.72 307.584 
" style="fill:none;stroke:#000000;stroke-linecap:square;stroke-linejoin:miter;stroke-width:0.8;"/>
   </g>
   <g id="patch_6">
    <path d="M 57.6 41.472 
L 414.72 41.472 
" style="fill:none;stroke:#000000;stroke-linecap:square;stroke-linejoin:miter;stroke-width:0.8;"/>
   </g>
  </g>
 </g>
 <defs>
  <clipPath id="pcd09f14121">
   <rect height="266.112" width="357.12" x="57.6" y="41.472"/>
  </clipPath>
 </defs>
</svg>
