<?xml version="1.0" encoding="utf-8" standalone="no"?>
<!DOCTYPE svg PUBLIC "-//W3C//DTD SVG 1.1//EN"
  "http://www.w3.org/Graphics/SVG/1.1/DTD/svg11.dtd">
<!-- Created with matplotlib (http://matplotlib.org/) -->
<svg height="345.6pt" version="1.1" viewBox="0 0 460.8 345.6" width="460.8pt" xmlns="http://www.w3.org/2000/svg" xmlns:xlink="http://www.w3.org/1999/xlink">
 <defs>
  <style type="text/css">
*{stroke-linecap:butt;stroke-linejoin:round;}
  </style>
 </defs>
 <g id="figure_1">
  <g id="patch_1">
   <path d="M 0 345.6 
L 460.8 345.6 
L 460.8 0 
L 0 0 
z
" style="fill:#ffffff;"/>
  </g>
  <g id="axes_1">
   <g id="patch_2">
    <path d="M 57.6 307.584 
L 414.72 307.584 
L 414.72 41.472 
L 57.6 41.472 
z
" style="fill:#ffffff;"/>
   </g>
   <g id="PathCollection_1">
    <defs>
     <path d="M 0 0.612372 
C 0.162403 0.612372 0.318176 0.547849 0.433013 0.433013 
C 0.547849 0.318176 0.612372 0.162403 0.612372 0 
C 0.612372 -0.162403 0.547849 -0.318176 0.433013 -0.433013 
C 0.318176 -0.547849 0.162403 -0.612372 0 -0.612372 
C -0.162403 -0.612372 -0.318176 -0.547849 -0.433013 -0.433013 
C -0.547849 -0.318176 -0.612372 -0.162403 -0.612372 0 
C -0.612372 0.162403 -0.547849 0.318176 -0.433013 0.433013 
C -0.318176 0.547849 -0.162403 0.612372 0 0.612372 
z
" id="mc3ced5de99" style="stroke:#000000;"/>
    </defs>
    <g clip-path="url(#pad9823bd8c)">
     <use style="stroke:#000000;" x="240.212781" xlink:href="#mc3ced5de99" y="172.701116"/>
     <use style="stroke:#000000;" x="243.755898" xlink:href="#mc3ced5de99" y="173.796627"/>
     <use style="stroke:#000000;" x="240.421746" xlink:href="#mc3ced5de99" y="174.116777"/>
     <use style="stroke:#000000;" x="236.77833" xlink:href="#mc3ced5de99" y="174.517298"/>
     <use style="stroke:#000000;" x="239.891847" xlink:href="#mc3ced5de99" y="174.528"/>
     <use style="stroke:#000000;" x="236.336175" xlink:href="#mc3ced5de99" y="172.775135"/>
     <use style="stroke:#000000;" x="244.010797" xlink:href="#mc3ced5de99" y="173.376595"/>
     <use style="stroke:#000000;" x="243.684727" xlink:href="#mc3ced5de99" y="173.782193"/>
     <use style="stroke:#000000;" x="236.986376" xlink:href="#mc3ced5de99" y="174.271552"/>
     <use style="stroke:#000000;" x="236.19169" xlink:href="#mc3ced5de99" y="172.878187"/>
     <use style="stroke:#000000;" x="240.03334" xlink:href="#mc3ced5de99" y="174.518784"/>
     <use style="stroke:#000000;" x="239.936357" xlink:href="#mc3ced5de99" y="174.443698"/>
     <use style="stroke:#000000;" x="243.801457" xlink:href="#mc3ced5de99" y="173.717329"/>
     <use style="stroke:#000000;" x="243.878768" xlink:href="#mc3ced5de99" y="173.724326"/>
     <use style="stroke:#000000;" x="247.543367" xlink:href="#mc3ced5de99" y="174.40909"/>
     <use style="stroke:#000000;" x="237.389982" xlink:href="#mc3ced5de99" y="174.192855"/>
     <use style="stroke:#000000;" x="251.14117" xlink:href="#mc3ced5de99" y="173.056083"/>
     <use style="stroke:#000000;" x="240.01473" xlink:href="#mc3ced5de99" y="172.762037"/>
     <use style="stroke:#000000;" x="239.960632" xlink:href="#mc3ced5de99" y="174.39858"/>
     <use style="stroke:#000000;" x="239.983846" xlink:href="#mc3ced5de99" y="174.491758"/>
     <use style="stroke:#000000;" x="236.492893" xlink:href="#mc3ced5de99" y="172.96526"/>
     <use style="stroke:#000000;" x="240.038765" xlink:href="#mc3ced5de99" y="172.803428"/>
     <use style="stroke:#000000;" x="251.253188" xlink:href="#mc3ced5de99" y="173.587788"/>
     <use style="stroke:#000000;" x="237.510659" xlink:href="#mc3ced5de99" y="174.364929"/>
     <use style="stroke:#000000;" x="240.389682" xlink:href="#mc3ced5de99" y="174.528"/>
     <use style="stroke:#000000;" x="251.121979" xlink:href="#mc3ced5de99" y="173.427835"/>
     <use style="stroke:#000000;" x="237.641053" xlink:href="#mc3ced5de99" y="174.290645"/>
     <use style="stroke:#000000;" x="236.370974" xlink:href="#mc3ced5de99" y="174.528"/>
     <use style="stroke:#000000;" x="240.523452" xlink:href="#mc3ced5de99" y="174.528"/>
     <use style="stroke:#000000;" x="240.122962" xlink:href="#mc3ced5de99" y="172.656587"/>
     <use style="stroke:#000000;" x="247.613305" xlink:href="#mc3ced5de99" y="173.858424"/>
     <use style="stroke:#000000;" x="236.399634" xlink:href="#mc3ced5de99" y="174.473349"/>
     <use style="stroke:#000000;" x="236.45327" xlink:href="#mc3ced5de99" y="174.36676"/>
     <use style="stroke:#000000;" x="237.446423" xlink:href="#mc3ced5de99" y="174.005539"/>
     <use style="stroke:#000000;" x="237.587904" xlink:href="#mc3ced5de99" y="173.991459"/>
     <use style="stroke:#000000;" x="243.700988" xlink:href="#mc3ced5de99" y="173.826779"/>
     <use style="stroke:#000000;" x="239.707017" xlink:href="#mc3ced5de99" y="174.528"/>
     <use style="stroke:#000000;" x="240.37601" xlink:href="#mc3ced5de99" y="174.29062"/>
     <use style="stroke:#000000;" x="247.528351" xlink:href="#mc3ced5de99" y="174.385072"/>
     <use style="stroke:#000000;" x="244.014252" xlink:href="#mc3ced5de99" y="173.643827"/>
     <use style="stroke:#000000;" x="243.819265" xlink:href="#mc3ced5de99" y="173.720847"/>
     <use style="stroke:#000000;" x="240.030405" xlink:href="#mc3ced5de99" y="174.474163"/>
     <use style="stroke:#000000;" x="236.328014" xlink:href="#mc3ced5de99" y="172.833433"/>
     <use style="stroke:#000000;" x="244.354419" xlink:href="#mc3ced5de99" y="174.142192"/>
     <use style="stroke:#000000;" x="240.253687" xlink:href="#mc3ced5de99" y="172.907679"/>
     <use style="stroke:#000000;" x="247.664501" xlink:href="#mc3ced5de99" y="173.877845"/>
     <use style="stroke:#000000;" x="236.65866" xlink:href="#mc3ced5de99" y="174.291014"/>
     <use style="stroke:#000000;" x="240.14081" xlink:href="#mc3ced5de99" y="172.900097"/>
     <use style="stroke:#000000;" x="236.160514" xlink:href="#mc3ced5de99" y="172.932598"/>
     <use style="stroke:#000000;" x="236.787594" xlink:href="#mc3ced5de99" y="173.531416"/>
     <use style="stroke:#000000;" x="236.16" xlink:href="#mc3ced5de99" y="173.319309"/>
     <use style="stroke:#000000;" x="240.364425" xlink:href="#mc3ced5de99" y="172.752738"/>
     <use style="stroke:#000000;" x="251.041519" xlink:href="#mc3ced5de99" y="173.375251"/>
     <use style="stroke:#000000;" x="239.760105" xlink:href="#mc3ced5de99" y="174.528"/>
     <use style="stroke:#000000;" x="251.096415" xlink:href="#mc3ced5de99" y="173.300187"/>
     <use style="stroke:#000000;" x="247.504251" xlink:href="#mc3ced5de99" y="174.430327"/>
     <use style="stroke:#000000;" x="251.266086" xlink:href="#mc3ced5de99" y="173.104694"/>
     <use style="stroke:#000000;" x="240.125606" xlink:href="#mc3ced5de99" y="172.765776"/>
     <use style="stroke:#000000;" x="237.010785" xlink:href="#mc3ced5de99" y="174.436141"/>
     <use style="stroke:#000000;" x="247.635262" xlink:href="#mc3ced5de99" y="174.264387"/>
     <use style="stroke:#000000;" x="240.391522" xlink:href="#mc3ced5de99" y="172.627875"/>
     <use style="stroke:#000000;" x="240.186524" xlink:href="#mc3ced5de99" y="172.86848"/>
     <use style="stroke:#000000;" x="240.093786" xlink:href="#mc3ced5de99" y="172.708656"/>
     <use style="stroke:#000000;" x="242.927445" xlink:href="#mc3ced5de99" y="173.925646"/>
     <use style="stroke:#000000;" x="241.405208" xlink:href="#mc3ced5de99" y="174.46708"/>
     <use style="stroke:#000000;" x="237.382723" xlink:href="#mc3ced5de99" y="174.528"/>
     <use style="stroke:#000000;" x="240.20778" xlink:href="#mc3ced5de99" y="174.528"/>
     <use style="stroke:#000000;" x="236.498255" xlink:href="#mc3ced5de99" y="173.300505"/>
     <use style="stroke:#000000;" x="245.136643" xlink:href="#mc3ced5de99" y="173.541115"/>
     <use style="stroke:#000000;" x="243.827655" xlink:href="#mc3ced5de99" y="173.732672"/>
     <use style="stroke:#000000;" x="237.099726" xlink:href="#mc3ced5de99" y="174.528"/>
     <use style="stroke:#000000;" x="236.516513" xlink:href="#mc3ced5de99" y="172.676587"/>
     <use style="stroke:#000000;" x="240.185534" xlink:href="#mc3ced5de99" y="174.528"/>
     <use style="stroke:#000000;" x="239.524709" xlink:href="#mc3ced5de99" y="174.528"/>
     <use style="stroke:#000000;" x="243.766295" xlink:href="#mc3ced5de99" y="174.045046"/>
     <use style="stroke:#000000;" x="243.277381" xlink:href="#mc3ced5de99" y="174.260359"/>
     <use style="stroke:#000000;" x="248.004106" xlink:href="#mc3ced5de99" y="174.456895"/>
     <use style="stroke:#000000;" x="236.699441" xlink:href="#mc3ced5de99" y="173.8857"/>
     <use style="stroke:#000000;" x="251.180376" xlink:href="#mc3ced5de99" y="173.80183"/>
     <use style="stroke:#000000;" x="240.482585" xlink:href="#mc3ced5de99" y="173.105649"/>
     <use style="stroke:#000000;" x="239.717559" xlink:href="#mc3ced5de99" y="174.265135"/>
     <use style="stroke:#000000;" x="240.29955" xlink:href="#mc3ced5de99" y="173.555247"/>
     <use style="stroke:#000000;" x="236.16" xlink:href="#mc3ced5de99" y="173.367235"/>
     <use style="stroke:#000000;" x="239.691574" xlink:href="#mc3ced5de99" y="172.680541"/>
     <use style="stroke:#000000;" x="241.039389" xlink:href="#mc3ced5de99" y="173.022588"/>
     <use style="stroke:#000000;" x="251.534929" xlink:href="#mc3ced5de99" y="173.346828"/>
     <use style="stroke:#000000;" x="250.935368" xlink:href="#mc3ced5de99" y="173.981955"/>
     <use style="stroke:#000000;" x="237.185946" xlink:href="#mc3ced5de99" y="174.243632"/>
     <use style="stroke:#000000;" x="238.230097" xlink:href="#mc3ced5de99" y="174.528"/>
     <use style="stroke:#000000;" x="241.096611" xlink:href="#mc3ced5de99" y="174.528"/>
     <use style="stroke:#000000;" x="240.122507" xlink:href="#mc3ced5de99" y="174.528"/>
     <use style="stroke:#000000;" x="251.218759" xlink:href="#mc3ced5de99" y="173.720072"/>
     <use style="stroke:#000000;" x="250.946981" xlink:href="#mc3ced5de99" y="173.440351"/>
     <use style="stroke:#000000;" x="237.296595" xlink:href="#mc3ced5de99" y="174.528"/>
     <use style="stroke:#000000;" x="237.920628" xlink:href="#mc3ced5de99" y="174.463159"/>
     <use style="stroke:#000000;" x="236.404653" xlink:href="#mc3ced5de99" y="174.528"/>
     <use style="stroke:#000000;" x="236.16" xlink:href="#mc3ced5de99" y="174.528"/>
     <use style="stroke:#000000;" x="240.442924" xlink:href="#mc3ced5de99" y="174.511575"/>
     <use style="stroke:#000000;" x="239.893662" xlink:href="#mc3ced5de99" y="174.466948"/>
     <use style="stroke:#000000;" x="240.09778" xlink:href="#mc3ced5de99" y="172.64201"/>
     <use style="stroke:#000000;" x="240.599632" xlink:href="#mc3ced5de99" y="172.204898"/>
     <use style="stroke:#000000;" x="248.193802" xlink:href="#mc3ced5de99" y="173.624701"/>
     <use style="stroke:#000000;" x="248.264666" xlink:href="#mc3ced5de99" y="174.281558"/>
     <use style="stroke:#000000;" x="236.484987" xlink:href="#mc3ced5de99" y="174.528"/>
     <use style="stroke:#000000;" x="236.392446" xlink:href="#mc3ced5de99" y="174.528"/>
     <use style="stroke:#000000;" x="236.16" xlink:href="#mc3ced5de99" y="174.232529"/>
     <use style="stroke:#000000;" x="236.282372" xlink:href="#mc3ced5de99" y="174.474662"/>
     <use style="stroke:#000000;" x="236.198058" xlink:href="#mc3ced5de99" y="174.366136"/>
     <use style="stroke:#000000;" x="237.489576" xlink:href="#mc3ced5de99" y="173.977567"/>
     <use style="stroke:#000000;" x="237.798734" xlink:href="#mc3ced5de99" y="174.275849"/>
     <use style="stroke:#000000;" x="237.757396" xlink:href="#mc3ced5de99" y="173.988313"/>
     <use style="stroke:#000000;" x="237.951036" xlink:href="#mc3ced5de99" y="174.023583"/>
     <use style="stroke:#000000;" x="237.646608" xlink:href="#mc3ced5de99" y="173.808132"/>
     <use style="stroke:#000000;" x="237.631645" xlink:href="#mc3ced5de99" y="173.927119"/>
     <use style="stroke:#000000;" x="243.858228" xlink:href="#mc3ced5de99" y="173.986114"/>
     <use style="stroke:#000000;" x="244.060345" xlink:href="#mc3ced5de99" y="173.945034"/>
     <use style="stroke:#000000;" x="244.091542" xlink:href="#mc3ced5de99" y="173.830598"/>
     <use style="stroke:#000000;" x="239.608596" xlink:href="#mc3ced5de99" y="174.528"/>
     <use style="stroke:#000000;" x="239.642626" xlink:href="#mc3ced5de99" y="174.528"/>
     <use style="stroke:#000000;" x="239.689188" xlink:href="#mc3ced5de99" y="174.528"/>
     <use style="stroke:#000000;" x="241.007561" xlink:href="#mc3ced5de99" y="174.01447"/>
     <use style="stroke:#000000;" x="240.118965" xlink:href="#mc3ced5de99" y="174.284581"/>
     <use style="stroke:#000000;" x="240.656044" xlink:href="#mc3ced5de99" y="174.290959"/>
     <use style="stroke:#000000;" x="247.826698" xlink:href="#mc3ced5de99" y="174.528"/>
     <use style="stroke:#000000;" x="247.705811" xlink:href="#mc3ced5de99" y="174.51762"/>
     <use style="stroke:#000000;" x="244.388804" xlink:href="#mc3ced5de99" y="173.926574"/>
     <use style="stroke:#000000;" x="243.908824" xlink:href="#mc3ced5de99" y="173.820945"/>
     <use style="stroke:#000000;" x="243.751504" xlink:href="#mc3ced5de99" y="173.706549"/>
     <use style="stroke:#000000;" x="243.884901" xlink:href="#mc3ced5de99" y="173.697984"/>
     <use style="stroke:#000000;" x="243.957038" xlink:href="#mc3ced5de99" y="173.719476"/>
     <use style="stroke:#000000;" x="240.074617" xlink:href="#mc3ced5de99" y="174.166799"/>
     <use style="stroke:#000000;" x="239.965501" xlink:href="#mc3ced5de99" y="174.528"/>
     <use style="stroke:#000000;" x="240.076285" xlink:href="#mc3ced5de99" y="174.437337"/>
     <use style="stroke:#000000;" x="236.493014" xlink:href="#mc3ced5de99" y="172.693571"/>
     <use style="stroke:#000000;" x="236.470282" xlink:href="#mc3ced5de99" y="172.688265"/>
     <use style="stroke:#000000;" x="236.265123" xlink:href="#mc3ced5de99" y="172.657806"/>
     <use style="stroke:#000000;" x="244.404536" xlink:href="#mc3ced5de99" y="174.15685"/>
     <use style="stroke:#000000;" x="244.344053" xlink:href="#mc3ced5de99" y="174.1324"/>
     <use style="stroke:#000000;" x="244.179483" xlink:href="#mc3ced5de99" y="174.177887"/>
     <use style="stroke:#000000;" x="240.141777" xlink:href="#mc3ced5de99" y="173.017008"/>
     <use style="stroke:#000000;" x="240.23206" xlink:href="#mc3ced5de99" y="173.060773"/>
     <use style="stroke:#000000;" x="240.094647" xlink:href="#mc3ced5de99" y="172.876605"/>
     <use style="stroke:#000000;" x="247.667349" xlink:href="#mc3ced5de99" y="174.054813"/>
     <use style="stroke:#000000;" x="247.635597" xlink:href="#mc3ced5de99" y="173.913997"/>
     <use style="stroke:#000000;" x="247.737987" xlink:href="#mc3ced5de99" y="173.823893"/>
     <use style="stroke:#000000;" x="236.592998" xlink:href="#mc3ced5de99" y="174.491864"/>
     <use style="stroke:#000000;" x="236.57131" xlink:href="#mc3ced5de99" y="174.330673"/>
     <use style="stroke:#000000;" x="236.595492" xlink:href="#mc3ced5de99" y="174.336357"/>
     <use style="stroke:#000000;" x="240.275203" xlink:href="#mc3ced5de99" y="172.837715"/>
     <use style="stroke:#000000;" x="240.346372" xlink:href="#mc3ced5de99" y="172.813783"/>
     <use style="stroke:#000000;" x="236.596976" xlink:href="#mc3ced5de99" y="172.462733"/>
     <use style="stroke:#000000;" x="236.804379" xlink:href="#mc3ced5de99" y="172.72329"/>
     <use style="stroke:#000000;" x="236.880309" xlink:href="#mc3ced5de99" y="173.601224"/>
     <use style="stroke:#000000;" x="236.604823" xlink:href="#mc3ced5de99" y="173.472511"/>
     <use style="stroke:#000000;" x="236.588905" xlink:href="#mc3ced5de99" y="173.789824"/>
     <use style="stroke:#000000;" x="236.276351" xlink:href="#mc3ced5de99" y="173.055072"/>
     <use style="stroke:#000000;" x="236.171125" xlink:href="#mc3ced5de99" y="173.303203"/>
     <use style="stroke:#000000;" x="236.287915" xlink:href="#mc3ced5de99" y="173.549457"/>
     <use style="stroke:#000000;" x="240.365892" xlink:href="#mc3ced5de99" y="172.760865"/>
     <use style="stroke:#000000;" x="240.52758" xlink:href="#mc3ced5de99" y="172.806103"/>
     <use style="stroke:#000000;" x="240.104564" xlink:href="#mc3ced5de99" y="172.599337"/>
     <use style="stroke:#000000;" x="251.210328" xlink:href="#mc3ced5de99" y="173.36169"/>
     <use style="stroke:#000000;" x="251.008483" xlink:href="#mc3ced5de99" y="173.479196"/>
     <use style="stroke:#000000;" x="250.992186" xlink:href="#mc3ced5de99" y="173.275845"/>
     <use style="stroke:#000000;" x="239.644939" xlink:href="#mc3ced5de99" y="174.509893"/>
     <use style="stroke:#000000;" x="239.628816" xlink:href="#mc3ced5de99" y="174.528"/>
     <use style="stroke:#000000;" x="251.084004" xlink:href="#mc3ced5de99" y="173.456184"/>
     <use style="stroke:#000000;" x="250.842437" xlink:href="#mc3ced5de99" y="173.023037"/>
     <use style="stroke:#000000;" x="247.855799" xlink:href="#mc3ced5de99" y="174.278742"/>
     <use style="stroke:#000000;" x="248.254403" xlink:href="#mc3ced5de99" y="174.528"/>
     <use style="stroke:#000000;" x="251.784563" xlink:href="#mc3ced5de99" y="173.204728"/>
     <use style="stroke:#000000;" x="250.213179" xlink:href="#mc3ced5de99" y="173.261368"/>
     <use style="stroke:#000000;" x="239.81167" xlink:href="#mc3ced5de99" y="172.897979"/>
     <use style="stroke:#000000;" x="239.516465" xlink:href="#mc3ced5de99" y="172.838606"/>
     <use style="stroke:#000000;" x="236.721197" xlink:href="#mc3ced5de99" y="173.884262"/>
     <use style="stroke:#000000;" x="237.155249" xlink:href="#mc3ced5de99" y="174.282475"/>
     <use style="stroke:#000000;" x="236.850691" xlink:href="#mc3ced5de99" y="174.278333"/>
     <use style="stroke:#000000;" x="247.796607" xlink:href="#mc3ced5de99" y="174.341484"/>
     <use style="stroke:#000000;" x="247.650531" xlink:href="#mc3ced5de99" y="174.504113"/>
     <use style="stroke:#000000;" x="247.944186" xlink:href="#mc3ced5de99" y="174.18876"/>
     <use style="stroke:#000000;" x="247.476654" xlink:href="#mc3ced5de99" y="174.34438"/>
    </g>
   </g>
   <g id="PathCollection_2">
    <defs>
     <path d="M 0 0.935414 
C 0.248075 0.935414 0.486022 0.836853 0.661438 0.661438 
C 0.836853 0.486022 0.935414 0.248075 0.935414 0 
C 0.935414 -0.248075 0.836853 -0.486022 0.661438 -0.661438 
C 0.486022 -0.836853 0.248075 -0.935414 0 -0.935414 
C -0.248075 -0.935414 -0.486022 -0.836853 -0.661438 -0.661438 
C -0.836853 -0.486022 -0.935414 -0.248075 -0.935414 0 
C -0.935414 0.248075 -0.836853 0.486022 -0.661438 0.661438 
C -0.486022 0.836853 -0.248075 0.935414 0 0.935414 
z
" id="m89a15ff308" style="stroke:#0000ff;"/>
    </defs>
    <g clip-path="url(#pad9823bd8c)">
     <use style="fill:#0000ff;stroke:#0000ff;" x="240.212781" xlink:href="#m89a15ff308" y="172.701116"/>
     <use style="fill:#0000ff;stroke:#0000ff;" x="243.755898" xlink:href="#m89a15ff308" y="173.796627"/>
     <use style="fill:#0000ff;stroke:#0000ff;" x="240.421746" xlink:href="#m89a15ff308" y="174.116777"/>
     <use style="fill:#0000ff;stroke:#0000ff;" x="236.77833" xlink:href="#m89a15ff308" y="174.517298"/>
     <use style="fill:#0000ff;stroke:#0000ff;" x="239.891847" xlink:href="#m89a15ff308" y="174.528"/>
     <use style="fill:#0000ff;stroke:#0000ff;" x="236.336175" xlink:href="#m89a15ff308" y="172.775135"/>
     <use style="fill:#0000ff;stroke:#0000ff;" x="244.010797" xlink:href="#m89a15ff308" y="173.376595"/>
     <use style="fill:#0000ff;stroke:#0000ff;" x="243.684727" xlink:href="#m89a15ff308" y="173.782193"/>
     <use style="fill:#0000ff;stroke:#0000ff;" x="236.986376" xlink:href="#m89a15ff308" y="174.271552"/>
     <use style="fill:#0000ff;stroke:#0000ff;" x="236.19169" xlink:href="#m89a15ff308" y="172.878187"/>
     <use style="fill:#0000ff;stroke:#0000ff;" x="240.03334" xlink:href="#m89a15ff308" y="174.518784"/>
     <use style="fill:#0000ff;stroke:#0000ff;" x="239.936357" xlink:href="#m89a15ff308" y="174.443698"/>
     <use style="fill:#0000ff;stroke:#0000ff;" x="243.801457" xlink:href="#m89a15ff308" y="173.717329"/>
     <use style="fill:#0000ff;stroke:#0000ff;" x="243.878768" xlink:href="#m89a15ff308" y="173.724326"/>
     <use style="fill:#0000ff;stroke:#0000ff;" x="247.543367" xlink:href="#m89a15ff308" y="174.40909"/>
     <use style="fill:#0000ff;stroke:#0000ff;" x="237.389982" xlink:href="#m89a15ff308" y="174.192855"/>
     <use style="fill:#0000ff;stroke:#0000ff;" x="251.14117" xlink:href="#m89a15ff308" y="173.056083"/>
     <use style="fill:#0000ff;stroke:#0000ff;" x="240.01473" xlink:href="#m89a15ff308" y="172.762037"/>
     <use style="fill:#0000ff;stroke:#0000ff;" x="239.960632" xlink:href="#m89a15ff308" y="174.39858"/>
     <use style="fill:#0000ff;stroke:#0000ff;" x="239.983846" xlink:href="#m89a15ff308" y="174.491758"/>
     <use style="fill:#0000ff;stroke:#0000ff;" x="236.492893" xlink:href="#m89a15ff308" y="172.96526"/>
     <use style="fill:#0000ff;stroke:#0000ff;" x="240.038765" xlink:href="#m89a15ff308" y="172.803428"/>
     <use style="fill:#0000ff;stroke:#0000ff;" x="251.253188" xlink:href="#m89a15ff308" y="173.587788"/>
     <use style="fill:#0000ff;stroke:#0000ff;" x="237.510659" xlink:href="#m89a15ff308" y="174.364929"/>
     <use style="fill:#0000ff;stroke:#0000ff;" x="240.389682" xlink:href="#m89a15ff308" y="174.528"/>
     <use style="fill:#0000ff;stroke:#0000ff;" x="251.121979" xlink:href="#m89a15ff308" y="173.427835"/>
     <use style="fill:#0000ff;stroke:#0000ff;" x="237.641053" xlink:href="#m89a15ff308" y="174.290645"/>
     <use style="fill:#0000ff;stroke:#0000ff;" x="236.370974" xlink:href="#m89a15ff308" y="174.528"/>
     <use style="fill:#0000ff;stroke:#0000ff;" x="240.523452" xlink:href="#m89a15ff308" y="174.528"/>
     <use style="fill:#0000ff;stroke:#0000ff;" x="240.122962" xlink:href="#m89a15ff308" y="172.656587"/>
     <use style="fill:#0000ff;stroke:#0000ff;" x="247.613305" xlink:href="#m89a15ff308" y="173.858424"/>
     <use style="fill:#0000ff;stroke:#0000ff;" x="236.399634" xlink:href="#m89a15ff308" y="174.473349"/>
     <use style="fill:#0000ff;stroke:#0000ff;" x="236.45327" xlink:href="#m89a15ff308" y="174.36676"/>
     <use style="fill:#0000ff;stroke:#0000ff;" x="237.446423" xlink:href="#m89a15ff308" y="174.005539"/>
     <use style="fill:#0000ff;stroke:#0000ff;" x="237.587904" xlink:href="#m89a15ff308" y="173.991459"/>
     <use style="fill:#0000ff;stroke:#0000ff;" x="243.700988" xlink:href="#m89a15ff308" y="173.826779"/>
     <use style="fill:#0000ff;stroke:#0000ff;" x="239.707017" xlink:href="#m89a15ff308" y="174.528"/>
     <use style="fill:#0000ff;stroke:#0000ff;" x="240.37601" xlink:href="#m89a15ff308" y="174.29062"/>
     <use style="fill:#0000ff;stroke:#0000ff;" x="247.528351" xlink:href="#m89a15ff308" y="174.385072"/>
     <use style="fill:#0000ff;stroke:#0000ff;" x="244.014252" xlink:href="#m89a15ff308" y="173.643827"/>
     <use style="fill:#0000ff;stroke:#0000ff;" x="243.819265" xlink:href="#m89a15ff308" y="173.720847"/>
     <use style="fill:#0000ff;stroke:#0000ff;" x="240.030405" xlink:href="#m89a15ff308" y="174.474163"/>
     <use style="fill:#0000ff;stroke:#0000ff;" x="236.328014" xlink:href="#m89a15ff308" y="172.833433"/>
     <use style="fill:#0000ff;stroke:#0000ff;" x="244.354419" xlink:href="#m89a15ff308" y="174.142192"/>
     <use style="fill:#0000ff;stroke:#0000ff;" x="240.253687" xlink:href="#m89a15ff308" y="172.907679"/>
     <use style="fill:#0000ff;stroke:#0000ff;" x="247.664501" xlink:href="#m89a15ff308" y="173.877845"/>
     <use style="fill:#0000ff;stroke:#0000ff;" x="236.65866" xlink:href="#m89a15ff308" y="174.291014"/>
     <use style="fill:#0000ff;stroke:#0000ff;" x="240.14081" xlink:href="#m89a15ff308" y="172.900097"/>
     <use style="fill:#0000ff;stroke:#0000ff;" x="236.160514" xlink:href="#m89a15ff308" y="172.932598"/>
     <use style="fill:#0000ff;stroke:#0000ff;" x="236.787594" xlink:href="#m89a15ff308" y="173.531416"/>
     <use style="fill:#0000ff;stroke:#0000ff;" x="236.16" xlink:href="#m89a15ff308" y="173.319309"/>
     <use style="fill:#0000ff;stroke:#0000ff;" x="240.364425" xlink:href="#m89a15ff308" y="172.752738"/>
     <use style="fill:#0000ff;stroke:#0000ff;" x="251.041519" xlink:href="#m89a15ff308" y="173.375251"/>
     <use style="fill:#0000ff;stroke:#0000ff;" x="239.760105" xlink:href="#m89a15ff308" y="174.528"/>
     <use style="fill:#0000ff;stroke:#0000ff;" x="251.096415" xlink:href="#m89a15ff308" y="173.300187"/>
     <use style="fill:#0000ff;stroke:#0000ff;" x="247.504251" xlink:href="#m89a15ff308" y="174.430327"/>
     <use style="fill:#0000ff;stroke:#0000ff;" x="251.266086" xlink:href="#m89a15ff308" y="173.104694"/>
     <use style="fill:#0000ff;stroke:#0000ff;" x="240.125606" xlink:href="#m89a15ff308" y="172.765776"/>
     <use style="fill:#0000ff;stroke:#0000ff;" x="237.010785" xlink:href="#m89a15ff308" y="174.436141"/>
     <use style="fill:#0000ff;stroke:#0000ff;" x="247.635262" xlink:href="#m89a15ff308" y="174.264387"/>
    </g>
   </g>
   <g id="matplotlib.axis_1">
    <g id="xtick_1">
     <g id="line2d_1">
      <defs>
       <path d="M 0 0 
L 0 3.5 
" id="m3f9c39e48d" style="stroke:#000000;stroke-width:0.8;"/>
      </defs>
      <g>
       <use style="stroke:#000000;stroke-width:0.8;" x="57.6" xlink:href="#m3f9c39e48d" y="307.584"/>
      </g>
     </g>
     <g id="text_1">
      <!-- −10.0 -->
      <defs>
       <path d="M 10.59375 35.5 
L 73.1875 35.5 
L 73.1875 27.203125 
L 10.59375 27.203125 
z
" id="DejaVuSans-2212"/>
       <path d="M 12.40625 8.296875 
L 28.515625 8.296875 
L 28.515625 63.921875 
L 10.984375 60.40625 
L 10.984375 69.390625 
L 28.421875 72.90625 
L 38.28125 72.90625 
L 38.28125 8.296875 
L 54.390625 8.296875 
L 54.390625 0 
L 12.40625 0 
z
" id="DejaVuSans-31"/>
       <path d="M 31.78125 66.40625 
Q 24.171875 66.40625 20.328125 58.90625 
Q 16.5 51.421875 16.5 36.375 
Q 16.5 21.390625 20.328125 13.890625 
Q 24.171875 6.390625 31.78125 6.390625 
Q 39.453125 6.390625 43.28125 13.890625 
Q 47.125 21.390625 47.125 36.375 
Q 47.125 51.421875 43.28125 58.90625 
Q 39.453125 66.40625 31.78125 66.40625 
z
M 31.78125 74.21875 
Q 44.046875 74.21875 50.515625 64.515625 
Q 56.984375 54.828125 56.984375 36.375 
Q 56.984375 17.96875 50.515625 8.265625 
Q 44.046875 -1.421875 31.78125 -1.421875 
Q 19.53125 -1.421875 13.0625 8.265625 
Q 6.59375 17.96875 6.59375 36.375 
Q 6.59375 54.828125 13.0625 64.515625 
Q 19.53125 74.21875 31.78125 74.21875 
z
" id="DejaVuSans-30"/>
       <path d="M 10.6875 12.40625 
L 21 12.40625 
L 21 0 
L 10.6875 0 
z
" id="DejaVuSans-2e"/>
      </defs>
      <g transform="translate(42.277344 322.182437)scale(0.1 -0.1)">
       <use xlink:href="#DejaVuSans-2212"/>
       <use x="83.789062" xlink:href="#DejaVuSans-31"/>
       <use x="147.412109" xlink:href="#DejaVuSans-30"/>
       <use x="211.035156" xlink:href="#DejaVuSans-2e"/>
       <use x="242.822266" xlink:href="#DejaVuSans-30"/>
      </g>
     </g>
    </g>
    <g id="xtick_2">
     <g id="line2d_2">
      <g>
       <use style="stroke:#000000;stroke-width:0.8;" x="102.24" xlink:href="#m3f9c39e48d" y="307.584"/>
      </g>
     </g>
     <g id="text_2">
      <!-- −7.5 -->
      <defs>
       <path d="M 8.203125 72.90625 
L 55.078125 72.90625 
L 55.078125 68.703125 
L 28.609375 0 
L 18.3125 0 
L 43.21875 64.59375 
L 8.203125 64.59375 
z
" id="DejaVuSans-37"/>
       <path d="M 10.796875 72.90625 
L 49.515625 72.90625 
L 49.515625 64.59375 
L 19.828125 64.59375 
L 19.828125 46.734375 
Q 21.96875 47.46875 24.109375 47.828125 
Q 26.265625 48.1875 28.421875 48.1875 
Q 40.625 48.1875 47.75 41.5 
Q 54.890625 34.8125 54.890625 23.390625 
Q 54.890625 11.625 47.5625 5.09375 
Q 40.234375 -1.421875 26.90625 -1.421875 
Q 22.3125 -1.421875 17.546875 -0.640625 
Q 12.796875 0.140625 7.71875 1.703125 
L 7.71875 11.625 
Q 12.109375 9.234375 16.796875 8.0625 
Q 21.484375 6.890625 26.703125 6.890625 
Q 35.15625 6.890625 40.078125 11.328125 
Q 45.015625 15.765625 45.015625 23.390625 
Q 45.015625 31 40.078125 35.4375 
Q 35.15625 39.890625 26.703125 39.890625 
Q 22.75 39.890625 18.8125 39.015625 
Q 14.890625 38.140625 10.796875 36.28125 
z
" id="DejaVuSans-35"/>
      </defs>
      <g transform="translate(90.098594 322.182437)scale(0.1 -0.1)">
       <use xlink:href="#DejaVuSans-2212"/>
       <use x="83.789062" xlink:href="#DejaVuSans-37"/>
       <use x="147.412109" xlink:href="#DejaVuSans-2e"/>
       <use x="179.199219" xlink:href="#DejaVuSans-35"/>
      </g>
     </g>
    </g>
    <g id="xtick_3">
     <g id="line2d_3">
      <g>
       <use style="stroke:#000000;stroke-width:0.8;" x="146.88" xlink:href="#m3f9c39e48d" y="307.584"/>
      </g>
     </g>
     <g id="text_3">
      <!-- −5.0 -->
      <g transform="translate(134.738594 322.182437)scale(0.1 -0.1)">
       <use xlink:href="#DejaVuSans-2212"/>
       <use x="83.789062" xlink:href="#DejaVuSans-35"/>
       <use x="147.412109" xlink:href="#DejaVuSans-2e"/>
       <use x="179.199219" xlink:href="#DejaVuSans-30"/>
      </g>
     </g>
    </g>
    <g id="xtick_4">
     <g id="line2d_4">
      <g>
       <use style="stroke:#000000;stroke-width:0.8;" x="191.52" xlink:href="#m3f9c39e48d" y="307.584"/>
      </g>
     </g>
     <g id="text_4">
      <!-- −2.5 -->
      <defs>
       <path d="M 19.1875 8.296875 
L 53.609375 8.296875 
L 53.609375 0 
L 7.328125 0 
L 7.328125 8.296875 
Q 12.9375 14.109375 22.625 23.890625 
Q 32.328125 33.6875 34.8125 36.53125 
Q 39.546875 41.84375 41.421875 45.53125 
Q 43.3125 49.21875 43.3125 52.78125 
Q 43.3125 58.59375 39.234375 62.25 
Q 35.15625 65.921875 28.609375 65.921875 
Q 23.96875 65.921875 18.8125 64.3125 
Q 13.671875 62.703125 7.8125 59.421875 
L 7.8125 69.390625 
Q 13.765625 71.78125 18.9375 73 
Q 24.125 74.21875 28.421875 74.21875 
Q 39.75 74.21875 46.484375 68.546875 
Q 53.21875 62.890625 53.21875 53.421875 
Q 53.21875 48.921875 51.53125 44.890625 
Q 49.859375 40.875 45.40625 35.40625 
Q 44.1875 33.984375 37.640625 27.21875 
Q 31.109375 20.453125 19.1875 8.296875 
z
" id="DejaVuSans-32"/>
      </defs>
      <g transform="translate(179.378594 322.182437)scale(0.1 -0.1)">
       <use xlink:href="#DejaVuSans-2212"/>
       <use x="83.789062" xlink:href="#DejaVuSans-32"/>
       <use x="147.412109" xlink:href="#DejaVuSans-2e"/>
       <use x="179.199219" xlink:href="#DejaVuSans-35"/>
      </g>
     </g>
    </g>
    <g id="xtick_5">
     <g id="line2d_5">
      <g>
       <use style="stroke:#000000;stroke-width:0.8;" x="236.16" xlink:href="#m3f9c39e48d" y="307.584"/>
      </g>
     </g>
     <g id="text_5">
      <!-- 0.0 -->
      <g transform="translate(228.208438 322.182437)scale(0.1 -0.1)">
       <use xlink:href="#DejaVuSans-30"/>
       <use x="63.623047" xlink:href="#DejaVuSans-2e"/>
       <use x="95.410156" xlink:href="#DejaVuSans-30"/>
      </g>
     </g>
    </g>
    <g id="xtick_6">
     <g id="line2d_6">
      <g>
       <use style="stroke:#000000;stroke-width:0.8;" x="280.8" xlink:href="#m3f9c39e48d" y="307.584"/>
      </g>
     </g>
     <g id="text_6">
      <!-- 2.5 -->
      <g transform="translate(272.848437 322.182437)scale(0.1 -0.1)">
       <use xlink:href="#DejaVuSans-32"/>
       <use x="63.623047" xlink:href="#DejaVuSans-2e"/>
       <use x="95.410156" xlink:href="#DejaVuSans-35"/>
      </g>
     </g>
    </g>
    <g id="xtick_7">
     <g id="line2d_7">
      <g>
       <use style="stroke:#000000;stroke-width:0.8;" x="325.44" xlink:href="#m3f9c39e48d" y="307.584"/>
      </g>
     </g>
     <g id="text_7">
      <!-- 5.0 -->
      <g transform="translate(317.488437 322.182437)scale(0.1 -0.1)">
       <use xlink:href="#DejaVuSans-35"/>
       <use x="63.623047" xlink:href="#DejaVuSans-2e"/>
       <use x="95.410156" xlink:href="#DejaVuSans-30"/>
      </g>
     </g>
    </g>
    <g id="xtick_8">
     <g id="line2d_8">
      <g>
       <use style="stroke:#000000;stroke-width:0.8;" x="370.08" xlink:href="#m3f9c39e48d" y="307.584"/>
      </g>
     </g>
     <g id="text_8">
      <!-- 7.5 -->
      <g transform="translate(362.128438 322.182437)scale(0.1 -0.1)">
       <use xlink:href="#DejaVuSans-37"/>
       <use x="63.623047" xlink:href="#DejaVuSans-2e"/>
       <use x="95.410156" xlink:href="#DejaVuSans-35"/>
      </g>
     </g>
    </g>
    <g id="xtick_9">
     <g id="line2d_9">
      <g>
       <use style="stroke:#000000;stroke-width:0.8;" x="414.72" xlink:href="#m3f9c39e48d" y="307.584"/>
      </g>
     </g>
     <g id="text_9">
      <!-- 10.0 -->
      <g transform="translate(403.587188 322.182437)scale(0.1 -0.1)">
       <use xlink:href="#DejaVuSans-31"/>
       <use x="63.623047" xlink:href="#DejaVuSans-30"/>
       <use x="127.246094" xlink:href="#DejaVuSans-2e"/>
       <use x="159.033203" xlink:href="#DejaVuSans-30"/>
      </g>
     </g>
    </g>
   </g>
   <g id="matplotlib.axis_2">
    <g id="ytick_1">
     <g id="line2d_10">
      <defs>
       <path d="M 0 0 
L -3.5 0 
" id="me197b0f5a4" style="stroke:#000000;stroke-width:0.8;"/>
      </defs>
      <g>
       <use style="stroke:#000000;stroke-width:0.8;" x="57.6" xlink:href="#me197b0f5a4" y="307.584"/>
      </g>
     </g>
     <g id="text_10">
      <!-- −10.0 -->
      <g transform="translate(19.954687 311.383219)scale(0.1 -0.1)">
       <use xlink:href="#DejaVuSans-2212"/>
       <use x="83.789062" xlink:href="#DejaVuSans-31"/>
       <use x="147.412109" xlink:href="#DejaVuSans-30"/>
       <use x="211.035156" xlink:href="#DejaVuSans-2e"/>
       <use x="242.822266" xlink:href="#DejaVuSans-30"/>
      </g>
     </g>
    </g>
    <g id="ytick_2">
     <g id="line2d_11">
      <g>
       <use style="stroke:#000000;stroke-width:0.8;" x="57.6" xlink:href="#me197b0f5a4" y="274.32"/>
      </g>
     </g>
     <g id="text_11">
      <!-- −7.5 -->
      <g transform="translate(26.317187 278.119219)scale(0.1 -0.1)">
       <use xlink:href="#DejaVuSans-2212"/>
       <use x="83.789062" xlink:href="#DejaVuSans-37"/>
       <use x="147.412109" xlink:href="#DejaVuSans-2e"/>
       <use x="179.199219" xlink:href="#DejaVuSans-35"/>
      </g>
     </g>
    </g>
    <g id="ytick_3">
     <g id="line2d_12">
      <g>
       <use style="stroke:#000000;stroke-width:0.8;" x="57.6" xlink:href="#me197b0f5a4" y="241.056"/>
      </g>
     </g>
     <g id="text_12">
      <!-- −5.0 -->
      <g transform="translate(26.317187 244.855219)scale(0.1 -0.1)">
       <use xlink:href="#DejaVuSans-2212"/>
       <use x="83.789062" xlink:href="#DejaVuSans-35"/>
       <use x="147.412109" xlink:href="#DejaVuSans-2e"/>
       <use x="179.199219" xlink:href="#DejaVuSans-30"/>
      </g>
     </g>
    </g>
    <g id="ytick_4">
     <g id="line2d_13">
      <g>
       <use style="stroke:#000000;stroke-width:0.8;" x="57.6" xlink:href="#me197b0f5a4" y="207.792"/>
      </g>
     </g>
     <g id="text_13">
      <!-- −2.5 -->
      <g transform="translate(26.317187 211.591219)scale(0.1 -0.1)">
       <use xlink:href="#DejaVuSans-2212"/>
       <use x="83.789062" xlink:href="#DejaVuSans-32"/>
       <use x="147.412109" xlink:href="#DejaVuSans-2e"/>
       <use x="179.199219" xlink:href="#DejaVuSans-35"/>
      </g>
     </g>
    </g>
    <g id="ytick_5">
     <g id="line2d_14">
      <g>
       <use style="stroke:#000000;stroke-width:0.8;" x="57.6" xlink:href="#me197b0f5a4" y="174.528"/>
      </g>
     </g>
     <g id="text_14">
      <!-- 0.0 -->
      <g transform="translate(34.696875 178.327219)scale(0.1 -0.1)">
       <use xlink:href="#DejaVuSans-30"/>
       <use x="63.623047" xlink:href="#DejaVuSans-2e"/>
       <use x="95.410156" xlink:href="#DejaVuSans-30"/>
      </g>
     </g>
    </g>
    <g id="ytick_6">
     <g id="line2d_15">
      <g>
       <use style="stroke:#000000;stroke-width:0.8;" x="57.6" xlink:href="#me197b0f5a4" y="141.264"/>
      </g>
     </g>
     <g id="text_15">
      <!-- 2.5 -->
      <g transform="translate(34.696875 145.063219)scale(0.1 -0.1)">
       <use xlink:href="#DejaVuSans-32"/>
       <use x="63.623047" xlink:href="#DejaVuSans-2e"/>
       <use x="95.410156" xlink:href="#DejaVuSans-35"/>
      </g>
     </g>
    </g>
    <g id="ytick_7">
     <g id="line2d_16">
      <g>
       <use style="stroke:#000000;stroke-width:0.8;" x="57.6" xlink:href="#me197b0f5a4" y="108"/>
      </g>
     </g>
     <g id="text_16">
      <!-- 5.0 -->
      <g transform="translate(34.696875 111.799219)scale(0.1 -0.1)">
       <use xlink:href="#DejaVuSans-35"/>
       <use x="63.623047" xlink:href="#DejaVuSans-2e"/>
       <use x="95.410156" xlink:href="#DejaVuSans-30"/>
      </g>
     </g>
    </g>
    <g id="ytick_8">
     <g id="line2d_17">
      <g>
       <use style="stroke:#000000;stroke-width:0.8;" x="57.6" xlink:href="#me197b0f5a4" y="74.736"/>
      </g>
     </g>
     <g id="text_17">
      <!-- 7.5 -->
      <g transform="translate(34.696875 78.535219)scale(0.1 -0.1)">
       <use xlink:href="#DejaVuSans-37"/>
       <use x="63.623047" xlink:href="#DejaVuSans-2e"/>
       <use x="95.410156" xlink:href="#DejaVuSans-35"/>
      </g>
     </g>
    </g>
    <g id="ytick_9">
     <g id="line2d_18">
      <g>
       <use style="stroke:#000000;stroke-width:0.8;" x="57.6" xlink:href="#me197b0f5a4" y="41.472"/>
      </g>
     </g>
     <g id="text_18">
      <!-- 10.0 -->
      <g transform="translate(28.334375 45.271219)scale(0.1 -0.1)">
       <use xlink:href="#DejaVuSans-31"/>
       <use x="63.623047" xlink:href="#DejaVuSans-30"/>
       <use x="127.246094" xlink:href="#DejaVuSans-2e"/>
       <use x="159.033203" xlink:href="#DejaVuSans-30"/>
      </g>
     </g>
    </g>
   </g>
   <g id="patch_3">
    <path d="M 57.6 307.584 
L 57.6 41.472 
" style="fill:none;stroke:#000000;stroke-linecap:square;stroke-linejoin:miter;stroke-width:0.8;"/>
   </g>
   <g id="patch_4">
    <path d="M 414.72 307.584 
L 414.72 41.472 
" style="fill:none;stroke:#000000;stroke-linecap:square;stroke-linejoin:miter;stroke-width:0.8;"/>
   </g>
   <g id="patch_5">
    <path d="M 57.6 307.584 
L 414.72 307.584 
" style="fill:none;stroke:#000000;stroke-linecap:square;stroke-linejoin:miter;stroke-width:0.8;"/>
   </g>
   <g id="patch_6">
    <path d="M 57.6 41.472 
L 414.72 41.472 
" style="fill:none;stroke:#000000;stroke-linecap:square;stroke-linejoin:miter;stroke-width:0.8;"/>
   </g>
  </g>
 </g>
 <defs>
  <clipPath id="pad9823bd8c">
   <rect height="266.112" width="357.12" x="57.6" y="41.472"/>
  </clipPath>
 </defs>
</svg>
