<?xml version="1.0" encoding="utf-8" standalone="no"?>
<!DOCTYPE svg PUBLIC "-//W3C//DTD SVG 1.1//EN"
  "http://www.w3.org/Graphics/SVG/1.1/DTD/svg11.dtd">
<!-- Created with matplotlib (http://matplotlib.org/) -->
<svg height="345.6pt" version="1.1" viewBox="0 0 460.8 345.6" width="460.8pt" xmlns="http://www.w3.org/2000/svg" xmlns:xlink="http://www.w3.org/1999/xlink">
 <defs>
  <style type="text/css">
*{stroke-linecap:butt;stroke-linejoin:round;}
  </style>
 </defs>
 <g id="figure_1">
  <g id="patch_1">
   <path d="M 0 345.6 
L 460.8 345.6 
L 460.8 0 
L 0 0 
z
" style="fill:#ffffff;"/>
  </g>
  <g id="axes_1">
   <g id="patch_2">
    <path d="M 57.6 307.584 
L 414.72 307.584 
L 414.72 41.472 
L 57.6 41.472 
z
" style="fill:#ffffff;"/>
   </g>
   <g id="PathCollection_1">
    <defs>
     <path d="M 0 0.612372 
C 0.162403 0.612372 0.318176 0.547849 0.433013 0.433013 
C 0.547849 0.318176 0.612372 0.162403 0.612372 0 
C 0.612372 -0.162403 0.547849 -0.318176 0.433013 -0.433013 
C 0.318176 -0.547849 0.162403 -0.612372 0 -0.612372 
C -0.162403 -0.612372 -0.318176 -0.547849 -0.433013 -0.433013 
C -0.547849 -0.318176 -0.612372 -0.162403 -0.612372 0 
C -0.612372 0.162403 -0.547849 0.318176 -0.433013 0.433013 
C -0.318176 0.547849 -0.162403 0.612372 0 0.612372 
z
" id="mc980461461" style="stroke:#000000;"/>
    </defs>
    <g clip-path="url(#p6b96498e73)">
     <use style="stroke:#000000;" x="251.073564" xlink:href="#mc980461461" y="173.848316"/>
     <use style="stroke:#000000;" x="236.623819" xlink:href="#mc980461461" y="173.717818"/>
     <use style="stroke:#000000;" x="251.037925" xlink:href="#mc980461461" y="173.928992"/>
     <use style="stroke:#000000;" x="251.129562" xlink:href="#mc980461461" y="172.723804"/>
     <use style="stroke:#000000;" x="247.577493" xlink:href="#mc980461461" y="174.436895"/>
     <use style="stroke:#000000;" x="236.603857" xlink:href="#mc980461461" y="173.716007"/>
     <use style="stroke:#000000;" x="251.180376" xlink:href="#mc980461461" y="173.80183"/>
     <use style="stroke:#000000;" x="243.74658" xlink:href="#mc980461461" y="173.645056"/>
     <use style="stroke:#000000;" x="236.332949" xlink:href="#mc980461461" y="174.403881"/>
     <use style="stroke:#000000;" x="240.160615" xlink:href="#mc980461461" y="174.386815"/>
     <use style="stroke:#000000;" x="251.09122" xlink:href="#mc980461461" y="173.833121"/>
     <use style="stroke:#000000;" x="251.154779" xlink:href="#mc980461461" y="173.347444"/>
     <use style="stroke:#000000;" x="250.995131" xlink:href="#mc980461461" y="173.055004"/>
     <use style="stroke:#000000;" x="244.060345" xlink:href="#mc980461461" y="173.945034"/>
     <use style="stroke:#000000;" x="250.967982" xlink:href="#mc980461461" y="173.990474"/>
     <use style="stroke:#000000;" x="247.528351" xlink:href="#mc980461461" y="174.385072"/>
     <use style="stroke:#000000;" x="243.819265" xlink:href="#mc980461461" y="173.720847"/>
     <use style="stroke:#000000;" x="239.976617" xlink:href="#mc980461461" y="173.992341"/>
     <use style="stroke:#000000;" x="236.198058" xlink:href="#mc980461461" y="174.366136"/>
     <use style="stroke:#000000;" x="239.705864" xlink:href="#mc980461461" y="172.770586"/>
     <use style="stroke:#000000;" x="244.272644" xlink:href="#mc980461461" y="174.211495"/>
     <use style="stroke:#000000;" x="237.008528" xlink:href="#mc980461461" y="174.364604"/>
     <use style="stroke:#000000;" x="239.74899" xlink:href="#mc980461461" y="174.335116"/>
     <use style="stroke:#000000;" x="251.026052" xlink:href="#mc980461461" y="172.870829"/>
     <use style="stroke:#000000;" x="236.885084" xlink:href="#mc980461461" y="174.509473"/>
     <use style="stroke:#000000;" x="236.564734" xlink:href="#mc980461461" y="174.345169"/>
     <use style="stroke:#000000;" x="237.389289" xlink:href="#mc980461461" y="174.376836"/>
     <use style="stroke:#000000;" x="251.325182" xlink:href="#mc980461461" y="173.924331"/>
     <use style="stroke:#000000;" x="240.030217" xlink:href="#mc980461461" y="174.528"/>
     <use style="stroke:#000000;" x="239.802139" xlink:href="#mc980461461" y="174.48449"/>
     <use style="stroke:#000000;" x="236.705068" xlink:href="#mc980461461" y="174.48193"/>
     <use style="stroke:#000000;" x="239.759905" xlink:href="#mc980461461" y="172.985135"/>
     <use style="stroke:#000000;" x="251.261564" xlink:href="#mc980461461" y="173.958126"/>
     <use style="stroke:#000000;" x="240.368833" xlink:href="#mc980461461" y="174.528"/>
     <use style="stroke:#000000;" x="251.045032" xlink:href="#mc980461461" y="173.826547"/>
     <use style="stroke:#000000;" x="236.705628" xlink:href="#mc980461461" y="174.348941"/>
     <use style="stroke:#000000;" x="251.120892" xlink:href="#mc980461461" y="173.551879"/>
     <use style="stroke:#000000;" x="247.815081" xlink:href="#mc980461461" y="174.048725"/>
     <use style="stroke:#000000;" x="236.5482" xlink:href="#mc980461461" y="174.459991"/>
     <use style="stroke:#000000;" x="247.607312" xlink:href="#mc980461461" y="174.158875"/>
     <use style="stroke:#000000;" x="247.578913" xlink:href="#mc980461461" y="174.228988"/>
     <use style="stroke:#000000;" x="247.633444" xlink:href="#mc980461461" y="174.140176"/>
     <use style="stroke:#000000;" x="240.421055" xlink:href="#mc980461461" y="172.810029"/>
     <use style="stroke:#000000;" x="237.635801" xlink:href="#mc980461461" y="174.339224"/>
     <use style="stroke:#000000;" x="237.741544" xlink:href="#mc980461461" y="174.528"/>
     <use style="stroke:#000000;" x="236.434957" xlink:href="#mc980461461" y="174.466525"/>
     <use style="stroke:#000000;" x="240.281218" xlink:href="#mc980461461" y="172.800524"/>
     <use style="stroke:#000000;" x="240.321285" xlink:href="#mc980461461" y="172.762455"/>
     <use style="stroke:#000000;" x="239.689188" xlink:href="#mc980461461" y="174.528"/>
     <use style="stroke:#000000;" x="236.16" xlink:href="#mc980461461" y="174.528"/>
     <use style="stroke:#000000;" x="251.111496" xlink:href="#mc980461461" y="173.516831"/>
     <use style="stroke:#000000;" x="240.442924" xlink:href="#mc980461461" y="174.511575"/>
     <use style="stroke:#000000;" x="236.27725" xlink:href="#mc980461461" y="174.361797"/>
     <use style="stroke:#000000;" x="237.010785" xlink:href="#mc980461461" y="174.436141"/>
     <use style="stroke:#000000;" x="236.196769" xlink:href="#mc980461461" y="174.528"/>
     <use style="stroke:#000000;" x="251.218571" xlink:href="#mc980461461" y="173.106447"/>
     <use style="stroke:#000000;" x="239.728517" xlink:href="#mc980461461" y="173.171993"/>
     <use style="stroke:#000000;" x="236.572074" xlink:href="#mc980461461" y="173.785246"/>
     <use style="stroke:#000000;" x="240.474317" xlink:href="#mc980461461" y="174.419013"/>
     <use style="stroke:#000000;" x="240.14081" xlink:href="#mc980461461" y="172.900097"/>
     <use style="stroke:#000000;" x="250.981676" xlink:href="#mc980461461" y="173.746787"/>
     <use style="stroke:#000000;" x="251.040009" xlink:href="#mc980461461" y="173.888098"/>
     <use style="stroke:#000000;" x="251.011488" xlink:href="#mc980461461" y="173.891333"/>
     <use style="stroke:#000000;" x="236.16" xlink:href="#mc980461461" y="173.691414"/>
     <use style="stroke:#000000;" x="250.908663" xlink:href="#mc980461461" y="173.897272"/>
     <use style="stroke:#000000;" x="251.115152" xlink:href="#mc980461461" y="172.72468"/>
     <use style="stroke:#000000;" x="247.925419" xlink:href="#mc980461461" y="174.484388"/>
     <use style="stroke:#000000;" x="237.402984" xlink:href="#mc980461461" y="173.691735"/>
     <use style="stroke:#000000;" x="252.666748" xlink:href="#mc980461461" y="174.452155"/>
     <use style="stroke:#000000;" x="242.37212" xlink:href="#mc980461461" y="173.104393"/>
     <use style="stroke:#000000;" x="236.794191" xlink:href="#mc980461461" y="174.528"/>
     <use style="stroke:#000000;" x="240.141094" xlink:href="#mc980461461" y="174.031667"/>
     <use style="stroke:#000000;" x="250.845356" xlink:href="#mc980461461" y="173.42682"/>
     <use style="stroke:#000000;" x="251.385906" xlink:href="#mc980461461" y="173.434083"/>
     <use style="stroke:#000000;" x="251.300139" xlink:href="#mc980461461" y="172.967099"/>
     <use style="stroke:#000000;" x="243.439113" xlink:href="#mc980461461" y="173.712137"/>
     <use style="stroke:#000000;" x="251.031412" xlink:href="#mc980461461" y="174.287195"/>
     <use style="stroke:#000000;" x="246.382741" xlink:href="#mc980461461" y="174.528"/>
     <use style="stroke:#000000;" x="243.978887" xlink:href="#mc980461461" y="173.337161"/>
     <use style="stroke:#000000;" x="239.560492" xlink:href="#mc980461461" y="173.846678"/>
     <use style="stroke:#000000;" x="236.585138" xlink:href="#mc980461461" y="174.267097"/>
     <use style="stroke:#000000;" x="239.631019" xlink:href="#mc980461461" y="172.701596"/>
     <use style="stroke:#000000;" x="244.468597" xlink:href="#mc980461461" y="174.52402"/>
     <use style="stroke:#000000;" x="237.041234" xlink:href="#mc980461461" y="174.528"/>
     <use style="stroke:#000000;" x="236.61184" xlink:href="#mc980461461" y="174.127772"/>
     <use style="stroke:#000000;" x="239.404321" xlink:href="#mc980461461" y="174.467353"/>
     <use style="stroke:#000000;" x="239.520851" xlink:href="#mc980461461" y="173.942966"/>
     <use style="stroke:#000000;" x="250.435738" xlink:href="#mc980461461" y="172.740627"/>
     <use style="stroke:#000000;" x="251.093908" xlink:href="#mc980461461" y="172.945744"/>
     <use style="stroke:#000000;" x="236.636955" xlink:href="#mc980461461" y="174.528"/>
     <use style="stroke:#000000;" x="236.933946" xlink:href="#mc980461461" y="174.175698"/>
     <use style="stroke:#000000;" x="236.928251" xlink:href="#mc980461461" y="174.277809"/>
     <use style="stroke:#000000;" x="236.789107" xlink:href="#mc980461461" y="174.472031"/>
     <use style="stroke:#000000;" x="236.535554" xlink:href="#mc980461461" y="174.452633"/>
     <use style="stroke:#000000;" x="237.381555" xlink:href="#mc980461461" y="174.297345"/>
     <use style="stroke:#000000;" x="237.408867" xlink:href="#mc980461461" y="174.281645"/>
     <use style="stroke:#000000;" x="237.323421" xlink:href="#mc980461461" y="174.432151"/>
     <use style="stroke:#000000;" x="251.299876" xlink:href="#mc980461461" y="173.940132"/>
     <use style="stroke:#000000;" x="251.40051" xlink:href="#mc980461461" y="173.985896"/>
     <use style="stroke:#000000;" x="251.380249" xlink:href="#mc980461461" y="173.98965"/>
     <use style="stroke:#000000;" x="240.149011" xlink:href="#mc980461461" y="174.480656"/>
     <use style="stroke:#000000;" x="240.263589" xlink:href="#mc980461461" y="174.528"/>
     <use style="stroke:#000000;" x="240.053293" xlink:href="#mc980461461" y="174.504477"/>
     <use style="stroke:#000000;" x="239.518606" xlink:href="#mc980461461" y="174.412938"/>
     <use style="stroke:#000000;" x="239.73422" xlink:href="#mc980461461" y="174.528"/>
     <use style="stroke:#000000;" x="239.807048" xlink:href="#mc980461461" y="174.528"/>
     <use style="stroke:#000000;" x="236.487618" xlink:href="#mc980461461" y="174.528"/>
     <use style="stroke:#000000;" x="236.63284" xlink:href="#mc980461461" y="174.528"/>
     <use style="stroke:#000000;" x="236.800794" xlink:href="#mc980461461" y="174.510194"/>
     <use style="stroke:#000000;" x="239.8592" xlink:href="#mc980461461" y="172.975345"/>
     <use style="stroke:#000000;" x="239.87616" xlink:href="#mc980461461" y="173.009488"/>
     <use style="stroke:#000000;" x="239.831645" xlink:href="#mc980461461" y="173.009149"/>
     <use style="stroke:#000000;" x="251.128475" xlink:href="#mc980461461" y="174.070397"/>
     <use style="stroke:#000000;" x="251.169899" xlink:href="#mc980461461" y="173.894987"/>
     <use style="stroke:#000000;" x="251.100366" xlink:href="#mc980461461" y="173.924896"/>
     <use style="stroke:#000000;" x="240.47535" xlink:href="#mc980461461" y="174.528"/>
     <use style="stroke:#000000;" x="240.458311" xlink:href="#mc980461461" y="174.413668"/>
     <use style="stroke:#000000;" x="240.252279" xlink:href="#mc980461461" y="174.528"/>
     <use style="stroke:#000000;" x="251.136568" xlink:href="#mc980461461" y="173.941899"/>
     <use style="stroke:#000000;" x="251.389042" xlink:href="#mc980461461" y="173.918632"/>
     <use style="stroke:#000000;" x="251.254343" xlink:href="#mc980461461" y="173.825125"/>
     <use style="stroke:#000000;" x="236.564511" xlink:href="#mc980461461" y="174.278971"/>
     <use style="stroke:#000000;" x="236.826952" xlink:href="#mc980461461" y="174.442453"/>
     <use style="stroke:#000000;" x="236.765606" xlink:href="#mc980461461" y="174.323697"/>
     <use style="stroke:#000000;" x="251.216626" xlink:href="#mc980461461" y="173.696712"/>
     <use style="stroke:#000000;" x="250.84819" xlink:href="#mc980461461" y="173.239635"/>
     <use style="stroke:#000000;" x="251.180235" xlink:href="#mc980461461" y="173.493854"/>
     <use style="stroke:#000000;" x="247.645889" xlink:href="#mc980461461" y="174.110764"/>
     <use style="stroke:#000000;" x="247.713293" xlink:href="#mc980461461" y="173.856922"/>
     <use style="stroke:#000000;" x="247.756723" xlink:href="#mc980461461" y="173.744445"/>
     <use style="stroke:#000000;" x="236.16" xlink:href="#mc980461461" y="174.478954"/>
     <use style="stroke:#000000;" x="236.16" xlink:href="#mc980461461" y="174.528"/>
     <use style="stroke:#000000;" x="248.226791" xlink:href="#mc980461461" y="174.459854"/>
     <use style="stroke:#000000;" x="247.63574" xlink:href="#mc980461461" y="174.528"/>
     <use style="stroke:#000000;" x="247.426368" xlink:href="#mc980461461" y="173.813333"/>
     <use style="stroke:#000000;" x="248.109331" xlink:href="#mc980461461" y="174.484172"/>
     <use style="stroke:#000000;" x="247.779055" xlink:href="#mc980461461" y="174.4857"/>
     <use style="stroke:#000000;" x="247.597209" xlink:href="#mc980461461" y="174.211814"/>
     <use style="stroke:#000000;" x="240.477621" xlink:href="#mc980461461" y="172.374493"/>
     <use style="stroke:#000000;" x="240.372861" xlink:href="#mc980461461" y="173.324293"/>
     <use style="stroke:#000000;" x="237.603662" xlink:href="#mc980461461" y="173.900924"/>
     <use style="stroke:#000000;" x="237.249554" xlink:href="#mc980461461" y="174.349553"/>
     <use style="stroke:#000000;" x="237.775732" xlink:href="#mc980461461" y="174.528"/>
     <use style="stroke:#000000;" x="237.681071" xlink:href="#mc980461461" y="174.528"/>
     <use style="stroke:#000000;" x="236.218981" xlink:href="#mc980461461" y="174.413838"/>
     <use style="stroke:#000000;" x="236.344378" xlink:href="#mc980461461" y="174.528"/>
     <use style="stroke:#000000;" x="239.806427" xlink:href="#mc980461461" y="172.516426"/>
     <use style="stroke:#000000;" x="240.059537" xlink:href="#mc980461461" y="173.035162"/>
     <use style="stroke:#000000;" x="240.2392" xlink:href="#mc980461461" y="172.735932"/>
     <use style="stroke:#000000;" x="240.068571" xlink:href="#mc980461461" y="172.803317"/>
     <use style="stroke:#000000;" x="239.424196" xlink:href="#mc980461461" y="174.320701"/>
     <use style="stroke:#000000;" x="239.79895" xlink:href="#mc980461461" y="174.528"/>
     <use style="stroke:#000000;" x="236.16" xlink:href="#mc980461461" y="174.528"/>
     <use style="stroke:#000000;" x="236.429443" xlink:href="#mc980461461" y="174.528"/>
     <use style="stroke:#000000;" x="251.286612" xlink:href="#mc980461461" y="173.262363"/>
     <use style="stroke:#000000;" x="250.641364" xlink:href="#mc980461461" y="173.714567"/>
     <use style="stroke:#000000;" x="240.483485" xlink:href="#mc980461461" y="174.487726"/>
     <use style="stroke:#000000;" x="239.985237" xlink:href="#mc980461461" y="174.528"/>
     <use style="stroke:#000000;" x="236.245559" xlink:href="#mc980461461" y="174.119238"/>
     <use style="stroke:#000000;" x="236.660853" xlink:href="#mc980461461" y="174.386288"/>
     <use style="stroke:#000000;" x="236.904967" xlink:href="#mc980461461" y="174.505083"/>
     <use style="stroke:#000000;" x="237.271039" xlink:href="#mc980461461" y="174.384042"/>
     <use style="stroke:#000000;" x="236.346485" xlink:href="#mc980461461" y="174.528"/>
     <use style="stroke:#000000;" x="236.16" xlink:href="#mc980461461" y="174.255479"/>
     <use style="stroke:#000000;" x="236.424081" xlink:href="#mc980461461" y="174.528"/>
     <use style="stroke:#000000;" x="251.161345" xlink:href="#mc980461461" y="173.230298"/>
     <use style="stroke:#000000;" x="251.518629" xlink:href="#mc980461461" y="173.249675"/>
     <use style="stroke:#000000;" x="251.131158" xlink:href="#mc980461461" y="172.949778"/>
     <use style="stroke:#000000;" x="239.737428" xlink:href="#mc980461461" y="173.278966"/>
     <use style="stroke:#000000;" x="239.69314" xlink:href="#mc980461461" y="173.24674"/>
     <use style="stroke:#000000;" x="239.841337" xlink:href="#mc980461461" y="173.173956"/>
     <use style="stroke:#000000;" x="236.550974" xlink:href="#mc980461461" y="173.894309"/>
     <use style="stroke:#000000;" x="236.432228" xlink:href="#mc980461461" y="173.754895"/>
     <use style="stroke:#000000;" x="236.51611" xlink:href="#mc980461461" y="173.981352"/>
     <use style="stroke:#000000;" x="240.556461" xlink:href="#mc980461461" y="174.395356"/>
     <use style="stroke:#000000;" x="240.504434" xlink:href="#mc980461461" y="174.254844"/>
     <use style="stroke:#000000;" x="240.394995" xlink:href="#mc980461461" y="174.422407"/>
     <use style="stroke:#000000;" x="240.3194" xlink:href="#mc980461461" y="172.982134"/>
     <use style="stroke:#000000;" x="240.168015" xlink:href="#mc980461461" y="172.874639"/>
     <use style="stroke:#000000;" x="240.07679" xlink:href="#mc980461461" y="172.963723"/>
     <use style="stroke:#000000;" x="240.062254" xlink:href="#mc980461461" y="172.823984"/>
    </g>
   </g>
   <g id="PathCollection_2">
    <defs>
     <path d="M 0 0.935414 
C 0.248075 0.935414 0.486022 0.836853 0.661438 0.661438 
C 0.836853 0.486022 0.935414 0.248075 0.935414 0 
C 0.935414 -0.248075 0.836853 -0.486022 0.661438 -0.661438 
C 0.486022 -0.836853 0.248075 -0.935414 0 -0.935414 
C -0.248075 -0.935414 -0.486022 -0.836853 -0.661438 -0.661438 
C -0.836853 -0.486022 -0.935414 -0.248075 -0.935414 0 
C -0.935414 0.248075 -0.836853 0.486022 -0.661438 0.661438 
C -0.486022 0.836853 -0.248075 0.935414 0 0.935414 
z
" id="ma794bd193f" style="stroke:#0000ff;"/>
    </defs>
    <g clip-path="url(#p6b96498e73)">
     <use style="fill:#0000ff;stroke:#0000ff;" x="251.073564" xlink:href="#ma794bd193f" y="173.848316"/>
     <use style="fill:#0000ff;stroke:#0000ff;" x="236.623819" xlink:href="#ma794bd193f" y="173.717818"/>
     <use style="fill:#0000ff;stroke:#0000ff;" x="251.037925" xlink:href="#ma794bd193f" y="173.928992"/>
     <use style="fill:#0000ff;stroke:#0000ff;" x="251.129562" xlink:href="#ma794bd193f" y="172.723804"/>
     <use style="fill:#0000ff;stroke:#0000ff;" x="247.577493" xlink:href="#ma794bd193f" y="174.436895"/>
     <use style="fill:#0000ff;stroke:#0000ff;" x="236.603857" xlink:href="#ma794bd193f" y="173.716007"/>
     <use style="fill:#0000ff;stroke:#0000ff;" x="251.180376" xlink:href="#ma794bd193f" y="173.80183"/>
     <use style="fill:#0000ff;stroke:#0000ff;" x="243.74658" xlink:href="#ma794bd193f" y="173.645056"/>
     <use style="fill:#0000ff;stroke:#0000ff;" x="236.332949" xlink:href="#ma794bd193f" y="174.403881"/>
     <use style="fill:#0000ff;stroke:#0000ff;" x="240.160615" xlink:href="#ma794bd193f" y="174.386815"/>
     <use style="fill:#0000ff;stroke:#0000ff;" x="251.09122" xlink:href="#ma794bd193f" y="173.833121"/>
     <use style="fill:#0000ff;stroke:#0000ff;" x="251.154779" xlink:href="#ma794bd193f" y="173.347444"/>
     <use style="fill:#0000ff;stroke:#0000ff;" x="250.995131" xlink:href="#ma794bd193f" y="173.055004"/>
     <use style="fill:#0000ff;stroke:#0000ff;" x="244.060345" xlink:href="#ma794bd193f" y="173.945034"/>
     <use style="fill:#0000ff;stroke:#0000ff;" x="250.967982" xlink:href="#ma794bd193f" y="173.990474"/>
     <use style="fill:#0000ff;stroke:#0000ff;" x="247.528351" xlink:href="#ma794bd193f" y="174.385072"/>
     <use style="fill:#0000ff;stroke:#0000ff;" x="243.819265" xlink:href="#ma794bd193f" y="173.720847"/>
     <use style="fill:#0000ff;stroke:#0000ff;" x="239.976617" xlink:href="#ma794bd193f" y="173.992341"/>
     <use style="fill:#0000ff;stroke:#0000ff;" x="236.198058" xlink:href="#ma794bd193f" y="174.366136"/>
     <use style="fill:#0000ff;stroke:#0000ff;" x="239.705864" xlink:href="#ma794bd193f" y="172.770586"/>
     <use style="fill:#0000ff;stroke:#0000ff;" x="244.272644" xlink:href="#ma794bd193f" y="174.211495"/>
     <use style="fill:#0000ff;stroke:#0000ff;" x="237.008528" xlink:href="#ma794bd193f" y="174.364604"/>
     <use style="fill:#0000ff;stroke:#0000ff;" x="239.74899" xlink:href="#ma794bd193f" y="174.335116"/>
     <use style="fill:#0000ff;stroke:#0000ff;" x="251.026052" xlink:href="#ma794bd193f" y="172.870829"/>
     <use style="fill:#0000ff;stroke:#0000ff;" x="236.885084" xlink:href="#ma794bd193f" y="174.509473"/>
     <use style="fill:#0000ff;stroke:#0000ff;" x="236.564734" xlink:href="#ma794bd193f" y="174.345169"/>
     <use style="fill:#0000ff;stroke:#0000ff;" x="237.389289" xlink:href="#ma794bd193f" y="174.376836"/>
     <use style="fill:#0000ff;stroke:#0000ff;" x="251.325182" xlink:href="#ma794bd193f" y="173.924331"/>
     <use style="fill:#0000ff;stroke:#0000ff;" x="240.030217" xlink:href="#ma794bd193f" y="174.528"/>
     <use style="fill:#0000ff;stroke:#0000ff;" x="239.802139" xlink:href="#ma794bd193f" y="174.48449"/>
     <use style="fill:#0000ff;stroke:#0000ff;" x="236.705068" xlink:href="#ma794bd193f" y="174.48193"/>
     <use style="fill:#0000ff;stroke:#0000ff;" x="239.759905" xlink:href="#ma794bd193f" y="172.985135"/>
     <use style="fill:#0000ff;stroke:#0000ff;" x="251.261564" xlink:href="#ma794bd193f" y="173.958126"/>
     <use style="fill:#0000ff;stroke:#0000ff;" x="240.368833" xlink:href="#ma794bd193f" y="174.528"/>
     <use style="fill:#0000ff;stroke:#0000ff;" x="251.045032" xlink:href="#ma794bd193f" y="173.826547"/>
     <use style="fill:#0000ff;stroke:#0000ff;" x="236.705628" xlink:href="#ma794bd193f" y="174.348941"/>
     <use style="fill:#0000ff;stroke:#0000ff;" x="251.120892" xlink:href="#ma794bd193f" y="173.551879"/>
     <use style="fill:#0000ff;stroke:#0000ff;" x="247.815081" xlink:href="#ma794bd193f" y="174.048725"/>
     <use style="fill:#0000ff;stroke:#0000ff;" x="236.5482" xlink:href="#ma794bd193f" y="174.459991"/>
     <use style="fill:#0000ff;stroke:#0000ff;" x="247.607312" xlink:href="#ma794bd193f" y="174.158875"/>
     <use style="fill:#0000ff;stroke:#0000ff;" x="247.578913" xlink:href="#ma794bd193f" y="174.228988"/>
     <use style="fill:#0000ff;stroke:#0000ff;" x="247.633444" xlink:href="#ma794bd193f" y="174.140176"/>
     <use style="fill:#0000ff;stroke:#0000ff;" x="240.421055" xlink:href="#ma794bd193f" y="172.810029"/>
     <use style="fill:#0000ff;stroke:#0000ff;" x="237.635801" xlink:href="#ma794bd193f" y="174.339224"/>
     <use style="fill:#0000ff;stroke:#0000ff;" x="237.741544" xlink:href="#ma794bd193f" y="174.528"/>
     <use style="fill:#0000ff;stroke:#0000ff;" x="236.434957" xlink:href="#ma794bd193f" y="174.466525"/>
     <use style="fill:#0000ff;stroke:#0000ff;" x="240.281218" xlink:href="#ma794bd193f" y="172.800524"/>
     <use style="fill:#0000ff;stroke:#0000ff;" x="240.321285" xlink:href="#ma794bd193f" y="172.762455"/>
     <use style="fill:#0000ff;stroke:#0000ff;" x="239.689188" xlink:href="#ma794bd193f" y="174.528"/>
     <use style="fill:#0000ff;stroke:#0000ff;" x="236.16" xlink:href="#ma794bd193f" y="174.528"/>
     <use style="fill:#0000ff;stroke:#0000ff;" x="251.111496" xlink:href="#ma794bd193f" y="173.516831"/>
     <use style="fill:#0000ff;stroke:#0000ff;" x="240.442924" xlink:href="#ma794bd193f" y="174.511575"/>
     <use style="fill:#0000ff;stroke:#0000ff;" x="236.27725" xlink:href="#ma794bd193f" y="174.361797"/>
     <use style="fill:#0000ff;stroke:#0000ff;" x="237.010785" xlink:href="#ma794bd193f" y="174.436141"/>
     <use style="fill:#0000ff;stroke:#0000ff;" x="236.196769" xlink:href="#ma794bd193f" y="174.528"/>
     <use style="fill:#0000ff;stroke:#0000ff;" x="251.218571" xlink:href="#ma794bd193f" y="173.106447"/>
     <use style="fill:#0000ff;stroke:#0000ff;" x="239.728517" xlink:href="#ma794bd193f" y="173.171993"/>
     <use style="fill:#0000ff;stroke:#0000ff;" x="236.572074" xlink:href="#ma794bd193f" y="173.785246"/>
     <use style="fill:#0000ff;stroke:#0000ff;" x="240.474317" xlink:href="#ma794bd193f" y="174.419013"/>
     <use style="fill:#0000ff;stroke:#0000ff;" x="240.14081" xlink:href="#ma794bd193f" y="172.900097"/>
    </g>
   </g>
   <g id="matplotlib.axis_1">
    <g id="xtick_1">
     <g id="line2d_1">
      <defs>
       <path d="M 0 0 
L 0 3.5 
" id="m872717c0be" style="stroke:#000000;stroke-width:0.8;"/>
      </defs>
      <g>
       <use style="stroke:#000000;stroke-width:0.8;" x="57.6" xlink:href="#m872717c0be" y="307.584"/>
      </g>
     </g>
     <g id="text_1">
      <!-- −10.0 -->
      <defs>
       <path d="M 10.59375 35.5 
L 73.1875 35.5 
L 73.1875 27.203125 
L 10.59375 27.203125 
z
" id="DejaVuSans-2212"/>
       <path d="M 12.40625 8.296875 
L 28.515625 8.296875 
L 28.515625 63.921875 
L 10.984375 60.40625 
L 10.984375 69.390625 
L 28.421875 72.90625 
L 38.28125 72.90625 
L 38.28125 8.296875 
L 54.390625 8.296875 
L 54.390625 0 
L 12.40625 0 
z
" id="DejaVuSans-31"/>
       <path d="M 31.78125 66.40625 
Q 24.171875 66.40625 20.328125 58.90625 
Q 16.5 51.421875 16.5 36.375 
Q 16.5 21.390625 20.328125 13.890625 
Q 24.171875 6.390625 31.78125 6.390625 
Q 39.453125 6.390625 43.28125 13.890625 
Q 47.125 21.390625 47.125 36.375 
Q 47.125 51.421875 43.28125 58.90625 
Q 39.453125 66.40625 31.78125 66.40625 
z
M 31.78125 74.21875 
Q 44.046875 74.21875 50.515625 64.515625 
Q 56.984375 54.828125 56.984375 36.375 
Q 56.984375 17.96875 50.515625 8.265625 
Q 44.046875 -1.421875 31.78125 -1.421875 
Q 19.53125 -1.421875 13.0625 8.265625 
Q 6.59375 17.96875 6.59375 36.375 
Q 6.59375 54.828125 13.0625 64.515625 
Q 19.53125 74.21875 31.78125 74.21875 
z
" id="DejaVuSans-30"/>
       <path d="M 10.6875 12.40625 
L 21 12.40625 
L 21 0 
L 10.6875 0 
z
" id="DejaVuSans-2e"/>
      </defs>
      <g transform="translate(42.277344 322.182437)scale(0.1 -0.1)">
       <use xlink:href="#DejaVuSans-2212"/>
       <use x="83.789062" xlink:href="#DejaVuSans-31"/>
       <use x="147.412109" xlink:href="#DejaVuSans-30"/>
       <use x="211.035156" xlink:href="#DejaVuSans-2e"/>
       <use x="242.822266" xlink:href="#DejaVuSans-30"/>
      </g>
     </g>
    </g>
    <g id="xtick_2">
     <g id="line2d_2">
      <g>
       <use style="stroke:#000000;stroke-width:0.8;" x="102.24" xlink:href="#m872717c0be" y="307.584"/>
      </g>
     </g>
     <g id="text_2">
      <!-- −7.5 -->
      <defs>
       <path d="M 8.203125 72.90625 
L 55.078125 72.90625 
L 55.078125 68.703125 
L 28.609375 0 
L 18.3125 0 
L 43.21875 64.59375 
L 8.203125 64.59375 
z
" id="DejaVuSans-37"/>
       <path d="M 10.796875 72.90625 
L 49.515625 72.90625 
L 49.515625 64.59375 
L 19.828125 64.59375 
L 19.828125 46.734375 
Q 21.96875 47.46875 24.109375 47.828125 
Q 26.265625 48.1875 28.421875 48.1875 
Q 40.625 48.1875 47.75 41.5 
Q 54.890625 34.8125 54.890625 23.390625 
Q 54.890625 11.625 47.5625 5.09375 
Q 40.234375 -1.421875 26.90625 -1.421875 
Q 22.3125 -1.421875 17.546875 -0.640625 
Q 12.796875 0.140625 7.71875 1.703125 
L 7.71875 11.625 
Q 12.109375 9.234375 16.796875 8.0625 
Q 21.484375 6.890625 26.703125 6.890625 
Q 35.15625 6.890625 40.078125 11.328125 
Q 45.015625 15.765625 45.015625 23.390625 
Q 45.015625 31 40.078125 35.4375 
Q 35.15625 39.890625 26.703125 39.890625 
Q 22.75 39.890625 18.8125 39.015625 
Q 14.890625 38.140625 10.796875 36.28125 
z
" id="DejaVuSans-35"/>
      </defs>
      <g transform="translate(90.098594 322.182437)scale(0.1 -0.1)">
       <use xlink:href="#DejaVuSans-2212"/>
       <use x="83.789062" xlink:href="#DejaVuSans-37"/>
       <use x="147.412109" xlink:href="#DejaVuSans-2e"/>
       <use x="179.199219" xlink:href="#DejaVuSans-35"/>
      </g>
     </g>
    </g>
    <g id="xtick_3">
     <g id="line2d_3">
      <g>
       <use style="stroke:#000000;stroke-width:0.8;" x="146.88" xlink:href="#m872717c0be" y="307.584"/>
      </g>
     </g>
     <g id="text_3">
      <!-- −5.0 -->
      <g transform="translate(134.738594 322.182437)scale(0.1 -0.1)">
       <use xlink:href="#DejaVuSans-2212"/>
       <use x="83.789062" xlink:href="#DejaVuSans-35"/>
       <use x="147.412109" xlink:href="#DejaVuSans-2e"/>
       <use x="179.199219" xlink:href="#DejaVuSans-30"/>
      </g>
     </g>
    </g>
    <g id="xtick_4">
     <g id="line2d_4">
      <g>
       <use style="stroke:#000000;stroke-width:0.8;" x="191.52" xlink:href="#m872717c0be" y="307.584"/>
      </g>
     </g>
     <g id="text_4">
      <!-- −2.5 -->
      <defs>
       <path d="M 19.1875 8.296875 
L 53.609375 8.296875 
L 53.609375 0 
L 7.328125 0 
L 7.328125 8.296875 
Q 12.9375 14.109375 22.625 23.890625 
Q 32.328125 33.6875 34.8125 36.53125 
Q 39.546875 41.84375 41.421875 45.53125 
Q 43.3125 49.21875 43.3125 52.78125 
Q 43.3125 58.59375 39.234375 62.25 
Q 35.15625 65.921875 28.609375 65.921875 
Q 23.96875 65.921875 18.8125 64.3125 
Q 13.671875 62.703125 7.8125 59.421875 
L 7.8125 69.390625 
Q 13.765625 71.78125 18.9375 73 
Q 24.125 74.21875 28.421875 74.21875 
Q 39.75 74.21875 46.484375 68.546875 
Q 53.21875 62.890625 53.21875 53.421875 
Q 53.21875 48.921875 51.53125 44.890625 
Q 49.859375 40.875 45.40625 35.40625 
Q 44.1875 33.984375 37.640625 27.21875 
Q 31.109375 20.453125 19.1875 8.296875 
z
" id="DejaVuSans-32"/>
      </defs>
      <g transform="translate(179.378594 322.182437)scale(0.1 -0.1)">
       <use xlink:href="#DejaVuSans-2212"/>
       <use x="83.789062" xlink:href="#DejaVuSans-32"/>
       <use x="147.412109" xlink:href="#DejaVuSans-2e"/>
       <use x="179.199219" xlink:href="#DejaVuSans-35"/>
      </g>
     </g>
    </g>
    <g id="xtick_5">
     <g id="line2d_5">
      <g>
       <use style="stroke:#000000;stroke-width:0.8;" x="236.16" xlink:href="#m872717c0be" y="307.584"/>
      </g>
     </g>
     <g id="text_5">
      <!-- 0.0 -->
      <g transform="translate(228.208438 322.182437)scale(0.1 -0.1)">
       <use xlink:href="#DejaVuSans-30"/>
       <use x="63.623047" xlink:href="#DejaVuSans-2e"/>
       <use x="95.410156" xlink:href="#DejaVuSans-30"/>
      </g>
     </g>
    </g>
    <g id="xtick_6">
     <g id="line2d_6">
      <g>
       <use style="stroke:#000000;stroke-width:0.8;" x="280.8" xlink:href="#m872717c0be" y="307.584"/>
      </g>
     </g>
     <g id="text_6">
      <!-- 2.5 -->
      <g transform="translate(272.848437 322.182437)scale(0.1 -0.1)">
       <use xlink:href="#DejaVuSans-32"/>
       <use x="63.623047" xlink:href="#DejaVuSans-2e"/>
       <use x="95.410156" xlink:href="#DejaVuSans-35"/>
      </g>
     </g>
    </g>
    <g id="xtick_7">
     <g id="line2d_7">
      <g>
       <use style="stroke:#000000;stroke-width:0.8;" x="325.44" xlink:href="#m872717c0be" y="307.584"/>
      </g>
     </g>
     <g id="text_7">
      <!-- 5.0 -->
      <g transform="translate(317.488437 322.182437)scale(0.1 -0.1)">
       <use xlink:href="#DejaVuSans-35"/>
       <use x="63.623047" xlink:href="#DejaVuSans-2e"/>
       <use x="95.410156" xlink:href="#DejaVuSans-30"/>
      </g>
     </g>
    </g>
    <g id="xtick_8">
     <g id="line2d_8">
      <g>
       <use style="stroke:#000000;stroke-width:0.8;" x="370.08" xlink:href="#m872717c0be" y="307.584"/>
      </g>
     </g>
     <g id="text_8">
      <!-- 7.5 -->
      <g transform="translate(362.128438 322.182437)scale(0.1 -0.1)">
       <use xlink:href="#DejaVuSans-37"/>
       <use x="63.623047" xlink:href="#DejaVuSans-2e"/>
       <use x="95.410156" xlink:href="#DejaVuSans-35"/>
      </g>
     </g>
    </g>
    <g id="xtick_9">
     <g id="line2d_9">
      <g>
       <use style="stroke:#000000;stroke-width:0.8;" x="414.72" xlink:href="#m872717c0be" y="307.584"/>
      </g>
     </g>
     <g id="text_9">
      <!-- 10.0 -->
      <g transform="translate(403.587188 322.182437)scale(0.1 -0.1)">
       <use xlink:href="#DejaVuSans-31"/>
       <use x="63.623047" xlink:href="#DejaVuSans-30"/>
       <use x="127.246094" xlink:href="#DejaVuSans-2e"/>
       <use x="159.033203" xlink:href="#DejaVuSans-30"/>
      </g>
     </g>
    </g>
   </g>
   <g id="matplotlib.axis_2">
    <g id="ytick_1">
     <g id="line2d_10">
      <defs>
       <path d="M 0 0 
L -3.5 0 
" id="mb84a7c305d" style="stroke:#000000;stroke-width:0.8;"/>
      </defs>
      <g>
       <use style="stroke:#000000;stroke-width:0.8;" x="57.6" xlink:href="#mb84a7c305d" y="307.584"/>
      </g>
     </g>
     <g id="text_10">
      <!-- −10.0 -->
      <g transform="translate(19.954687 311.383219)scale(0.1 -0.1)">
       <use xlink:href="#DejaVuSans-2212"/>
       <use x="83.789062" xlink:href="#DejaVuSans-31"/>
       <use x="147.412109" xlink:href="#DejaVuSans-30"/>
       <use x="211.035156" xlink:href="#DejaVuSans-2e"/>
       <use x="242.822266" xlink:href="#DejaVuSans-30"/>
      </g>
     </g>
    </g>
    <g id="ytick_2">
     <g id="line2d_11">
      <g>
       <use style="stroke:#000000;stroke-width:0.8;" x="57.6" xlink:href="#mb84a7c305d" y="274.32"/>
      </g>
     </g>
     <g id="text_11">
      <!-- −7.5 -->
      <g transform="translate(26.317187 278.119219)scale(0.1 -0.1)">
       <use xlink:href="#DejaVuSans-2212"/>
       <use x="83.789062" xlink:href="#DejaVuSans-37"/>
       <use x="147.412109" xlink:href="#DejaVuSans-2e"/>
       <use x="179.199219" xlink:href="#DejaVuSans-35"/>
      </g>
     </g>
    </g>
    <g id="ytick_3">
     <g id="line2d_12">
      <g>
       <use style="stroke:#000000;stroke-width:0.8;" x="57.6" xlink:href="#mb84a7c305d" y="241.056"/>
      </g>
     </g>
     <g id="text_12">
      <!-- −5.0 -->
      <g transform="translate(26.317187 244.855219)scale(0.1 -0.1)">
       <use xlink:href="#DejaVuSans-2212"/>
       <use x="83.789062" xlink:href="#DejaVuSans-35"/>
       <use x="147.412109" xlink:href="#DejaVuSans-2e"/>
       <use x="179.199219" xlink:href="#DejaVuSans-30"/>
      </g>
     </g>
    </g>
    <g id="ytick_4">
     <g id="line2d_13">
      <g>
       <use style="stroke:#000000;stroke-width:0.8;" x="57.6" xlink:href="#mb84a7c305d" y="207.792"/>
      </g>
     </g>
     <g id="text_13">
      <!-- −2.5 -->
      <g transform="translate(26.317187 211.591219)scale(0.1 -0.1)">
       <use xlink:href="#DejaVuSans-2212"/>
       <use x="83.789062" xlink:href="#DejaVuSans-32"/>
       <use x="147.412109" xlink:href="#DejaVuSans-2e"/>
       <use x="179.199219" xlink:href="#DejaVuSans-35"/>
      </g>
     </g>
    </g>
    <g id="ytick_5">
     <g id="line2d_14">
      <g>
       <use style="stroke:#000000;stroke-width:0.8;" x="57.6" xlink:href="#mb84a7c305d" y="174.528"/>
      </g>
     </g>
     <g id="text_14">
      <!-- 0.0 -->
      <g transform="translate(34.696875 178.327219)scale(0.1 -0.1)">
       <use xlink:href="#DejaVuSans-30"/>
       <use x="63.623047" xlink:href="#DejaVuSans-2e"/>
       <use x="95.410156" xlink:href="#DejaVuSans-30"/>
      </g>
     </g>
    </g>
    <g id="ytick_6">
     <g id="line2d_15">
      <g>
       <use style="stroke:#000000;stroke-width:0.8;" x="57.6" xlink:href="#mb84a7c305d" y="141.264"/>
      </g>
     </g>
     <g id="text_15">
      <!-- 2.5 -->
      <g transform="translate(34.696875 145.063219)scale(0.1 -0.1)">
       <use xlink:href="#DejaVuSans-32"/>
       <use x="63.623047" xlink:href="#DejaVuSans-2e"/>
       <use x="95.410156" xlink:href="#DejaVuSans-35"/>
      </g>
     </g>
    </g>
    <g id="ytick_7">
     <g id="line2d_16">
      <g>
       <use style="stroke:#000000;stroke-width:0.8;" x="57.6" xlink:href="#mb84a7c305d" y="108"/>
      </g>
     </g>
     <g id="text_16">
      <!-- 5.0 -->
      <g transform="translate(34.696875 111.799219)scale(0.1 -0.1)">
       <use xlink:href="#DejaVuSans-35"/>
       <use x="63.623047" xlink:href="#DejaVuSans-2e"/>
       <use x="95.410156" xlink:href="#DejaVuSans-30"/>
      </g>
     </g>
    </g>
    <g id="ytick_8">
     <g id="line2d_17">
      <g>
       <use style="stroke:#000000;stroke-width:0.8;" x="57.6" xlink:href="#mb84a7c305d" y="74.736"/>
      </g>
     </g>
     <g id="text_17">
      <!-- 7.5 -->
      <g transform="translate(34.696875 78.535219)scale(0.1 -0.1)">
       <use xlink:href="#DejaVuSans-37"/>
       <use x="63.623047" xlink:href="#DejaVuSans-2e"/>
       <use x="95.410156" xlink:href="#DejaVuSans-35"/>
      </g>
     </g>
    </g>
    <g id="ytick_9">
     <g id="line2d_18">
      <g>
       <use style="stroke:#000000;stroke-width:0.8;" x="57.6" xlink:href="#mb84a7c305d" y="41.472"/>
      </g>
     </g>
     <g id="text_18">
      <!-- 10.0 -->
      <g transform="translate(28.334375 45.271219)scale(0.1 -0.1)">
       <use xlink:href="#DejaVuSans-31"/>
       <use x="63.623047" xlink:href="#DejaVuSans-30"/>
       <use x="127.246094" xlink:href="#DejaVuSans-2e"/>
       <use x="159.033203" xlink:href="#DejaVuSans-30"/>
      </g>
     </g>
    </g>
   </g>
   <g id="patch_3">
    <path d="M 57.6 307.584 
L 57.6 41.472 
" style="fill:none;stroke:#000000;stroke-linecap:square;stroke-linejoin:miter;stroke-width:0.8;"/>
   </g>
   <g id="patch_4">
    <path d="M 414.72 307.584 
L 414.72 41.472 
" style="fill:none;stroke:#000000;stroke-linecap:square;stroke-linejoin:miter;stroke-width:0.8;"/>
   </g>
   <g id="patch_5">
    <path d="M 57.6 307.584 
L 414.72 307.584 
" style="fill:none;stroke:#000000;stroke-linecap:square;stroke-linejoin:miter;stroke-width:0.8;"/>
   </g>
   <g id="patch_6">
    <path d="M 57.6 41.472 
L 414.72 41.472 
" style="fill:none;stroke:#000000;stroke-linecap:square;stroke-linejoin:miter;stroke-width:0.8;"/>
   </g>
  </g>
 </g>
 <defs>
  <clipPath id="p6b96498e73">
   <rect height="266.112" width="357.12" x="57.6" y="41.472"/>
  </clipPath>
 </defs>
</svg>
