<?xml version="1.0" encoding="utf-8" standalone="no"?>
<!DOCTYPE svg PUBLIC "-//W3C//DTD SVG 1.1//EN"
  "http://www.w3.org/Graphics/SVG/1.1/DTD/svg11.dtd">
<!-- Created with matplotlib (http://matplotlib.org/) -->
<svg height="345.6pt" version="1.1" viewBox="0 0 460.8 345.6" width="460.8pt" xmlns="http://www.w3.org/2000/svg" xmlns:xlink="http://www.w3.org/1999/xlink">
 <defs>
  <style type="text/css">
*{stroke-linecap:butt;stroke-linejoin:round;}
  </style>
 </defs>
 <g id="figure_1">
  <g id="patch_1">
   <path d="M 0 345.6 
L 460.8 345.6 
L 460.8 0 
L 0 0 
z
" style="fill:#ffffff;"/>
  </g>
  <g id="axes_1">
   <g id="patch_2">
    <path d="M 57.6 307.584 
L 414.72 307.584 
L 414.72 41.472 
L 57.6 41.472 
z
" style="fill:#ffffff;"/>
   </g>
   <g id="PathCollection_1">
    <defs>
     <path d="M 0 0.612372 
C 0.162403 0.612372 0.318176 0.547849 0.433013 0.433013 
C 0.547849 0.318176 0.612372 0.162403 0.612372 0 
C 0.612372 -0.162403 0.547849 -0.318176 0.433013 -0.433013 
C 0.318176 -0.547849 0.162403 -0.612372 0 -0.612372 
C -0.162403 -0.612372 -0.318176 -0.547849 -0.433013 -0.433013 
C -0.547849 -0.318176 -0.612372 -0.162403 -0.612372 0 
C -0.612372 0.162403 -0.547849 0.318176 -0.433013 0.433013 
C -0.318176 0.547849 -0.162403 0.612372 0 0.612372 
z
" id="mea22a57ef7" style="stroke:#000000;"/>
    </defs>
    <g clip-path="url(#p48ee5fc69e)">
     <use style="stroke:#000000;" x="240.637166" xlink:href="#mea22a57ef7" y="174.528"/>
     <use style="stroke:#000000;" x="236.774386" xlink:href="#mea22a57ef7" y="174.528"/>
     <use style="stroke:#000000;" x="247.442513" xlink:href="#mea22a57ef7" y="174.215555"/>
     <use style="stroke:#000000;" x="247.420414" xlink:href="#mea22a57ef7" y="173.90972"/>
     <use style="stroke:#000000;" x="247.401399" xlink:href="#mea22a57ef7" y="173.96813"/>
     <use style="stroke:#000000;" x="247.543604" xlink:href="#mea22a57ef7" y="174.159019"/>
     <use style="stroke:#000000;" x="247.758211" xlink:href="#mea22a57ef7" y="174.170053"/>
     <use style="stroke:#000000;" x="236.432776" xlink:href="#mea22a57ef7" y="174.150822"/>
     <use style="stroke:#000000;" x="247.820877" xlink:href="#mea22a57ef7" y="174.528"/>
     <use style="stroke:#000000;" x="240.650066" xlink:href="#mea22a57ef7" y="174.528"/>
     <use style="stroke:#000000;" x="240.044469" xlink:href="#mea22a57ef7" y="174.505072"/>
     <use style="stroke:#000000;" x="240.655799" xlink:href="#mea22a57ef7" y="173.932825"/>
     <use style="stroke:#000000;" x="240.175738" xlink:href="#mea22a57ef7" y="174.528"/>
     <use style="stroke:#000000;" x="237.147104" xlink:href="#mea22a57ef7" y="174.394333"/>
     <use style="stroke:#000000;" x="236.826952" xlink:href="#mea22a57ef7" y="174.442453"/>
     <use style="stroke:#000000;" x="251.200368" xlink:href="#mea22a57ef7" y="173.775312"/>
     <use style="stroke:#000000;" x="250.985285" xlink:href="#mea22a57ef7" y="173.946038"/>
     <use style="stroke:#000000;" x="236.70384" xlink:href="#mea22a57ef7" y="174.416038"/>
     <use style="stroke:#000000;" x="239.823707" xlink:href="#mea22a57ef7" y="173.190279"/>
     <use style="stroke:#000000;" x="236.757282" xlink:href="#mea22a57ef7" y="174.490606"/>
     <use style="stroke:#000000;" x="237.010032" xlink:href="#mea22a57ef7" y="174.528"/>
     <use style="stroke:#000000;" x="237.659481" xlink:href="#mea22a57ef7" y="174.507124"/>
     <use style="stroke:#000000;" x="251.378674" xlink:href="#mea22a57ef7" y="173.777096"/>
     <use style="stroke:#000000;" x="236.777077" xlink:href="#mea22a57ef7" y="174.528"/>
     <use style="stroke:#000000;" x="236.352473" xlink:href="#mea22a57ef7" y="174.3116"/>
     <use style="stroke:#000000;" x="239.667413" xlink:href="#mea22a57ef7" y="173.379665"/>
     <use style="stroke:#000000;" x="247.777017" xlink:href="#mea22a57ef7" y="174.472748"/>
     <use style="stroke:#000000;" x="240.138256" xlink:href="#mea22a57ef7" y="173.02393"/>
     <use style="stroke:#000000;" x="251.132093" xlink:href="#mea22a57ef7" y="173.958609"/>
     <use style="stroke:#000000;" x="251.113451" xlink:href="#mea22a57ef7" y="174.00548"/>
     <use style="stroke:#000000;" x="247.538682" xlink:href="#mea22a57ef7" y="174.407875"/>
     <use style="stroke:#000000;" x="236.263845" xlink:href="#mea22a57ef7" y="174.528"/>
     <use style="stroke:#000000;" x="239.915099" xlink:href="#mea22a57ef7" y="174.528"/>
     <use style="stroke:#000000;" x="239.902852" xlink:href="#mea22a57ef7" y="174.387082"/>
     <use style="stroke:#000000;" x="240.001973" xlink:href="#mea22a57ef7" y="174.528"/>
     <use style="stroke:#000000;" x="236.876079" xlink:href="#mea22a57ef7" y="174.528"/>
     <use style="stroke:#000000;" x="236.844951" xlink:href="#mea22a57ef7" y="174.528"/>
     <use style="stroke:#000000;" x="251.12318" xlink:href="#mea22a57ef7" y="173.877282"/>
     <use style="stroke:#000000;" x="240.316867" xlink:href="#mea22a57ef7" y="174.267042"/>
     <use style="stroke:#000000;" x="247.743608" xlink:href="#mea22a57ef7" y="174.455174"/>
     <use style="stroke:#000000;" x="236.349925" xlink:href="#mea22a57ef7" y="174.528"/>
     <use style="stroke:#000000;" x="247.501227" xlink:href="#mea22a57ef7" y="174.528"/>
     <use style="stroke:#000000;" x="236.346005" xlink:href="#mea22a57ef7" y="174.433249"/>
     <use style="stroke:#000000;" x="240.219251" xlink:href="#mea22a57ef7" y="174.247289"/>
     <use style="stroke:#000000;" x="240.395101" xlink:href="#mea22a57ef7" y="174.195112"/>
     <use style="stroke:#000000;" x="240.062762" xlink:href="#mea22a57ef7" y="174.528"/>
     <use style="stroke:#000000;" x="240.055668" xlink:href="#mea22a57ef7" y="174.528"/>
     <use style="stroke:#000000;" x="237.029018" xlink:href="#mea22a57ef7" y="174.528"/>
     <use style="stroke:#000000;" x="237.264897" xlink:href="#mea22a57ef7" y="174.371621"/>
     <use style="stroke:#000000;" x="237.243242" xlink:href="#mea22a57ef7" y="174.508337"/>
     <use style="stroke:#000000;" x="240.273884" xlink:href="#mea22a57ef7" y="174.197241"/>
     <use style="stroke:#000000;" x="251.284198" xlink:href="#mea22a57ef7" y="173.645796"/>
     <use style="stroke:#000000;" x="236.882583" xlink:href="#mea22a57ef7" y="174.460528"/>
     <use style="stroke:#000000;" x="236.653414" xlink:href="#mea22a57ef7" y="174.499912"/>
     <use style="stroke:#000000;" x="236.551695" xlink:href="#mea22a57ef7" y="174.452456"/>
     <use style="stroke:#000000;" x="236.660036" xlink:href="#mea22a57ef7" y="174.451546"/>
     <use style="stroke:#000000;" x="251.399431" xlink:href="#mea22a57ef7" y="173.891173"/>
     <use style="stroke:#000000;" x="251.234121" xlink:href="#mea22a57ef7" y="174.037952"/>
     <use style="stroke:#000000;" x="239.73422" xlink:href="#mea22a57ef7" y="174.528"/>
     <use style="stroke:#000000;" x="237.01802" xlink:href="#mea22a57ef7" y="174.528"/>
     <use style="stroke:#000000;" x="240.600717" xlink:href="#mea22a57ef7" y="174.528"/>
     <use style="stroke:#000000;" x="240.586652" xlink:href="#mea22a57ef7" y="174.425324"/>
     <use style="stroke:#000000;" x="240.568754" xlink:href="#mea22a57ef7" y="174.528"/>
     <use style="stroke:#000000;" x="237.428436" xlink:href="#mea22a57ef7" y="174.528"/>
     <use style="stroke:#000000;" x="248.431549" xlink:href="#mea22a57ef7" y="174.528"/>
     <use style="stroke:#000000;" x="246.278187" xlink:href="#mea22a57ef7" y="174.314396"/>
     <use style="stroke:#000000;" x="246.096619" xlink:href="#mea22a57ef7" y="173.64408"/>
     <use style="stroke:#000000;" x="245.436677" xlink:href="#mea22a57ef7" y="174.528"/>
     <use style="stroke:#000000;" x="247.551801" xlink:href="#mea22a57ef7" y="174.528"/>
     <use style="stroke:#000000;" x="236.904683" xlink:href="#mea22a57ef7" y="174.528"/>
     <use style="stroke:#000000;" x="248.145668" xlink:href="#mea22a57ef7" y="174.528"/>
     <use style="stroke:#000000;" x="239.656955" xlink:href="#mea22a57ef7" y="174.528"/>
     <use style="stroke:#000000;" x="240.142073" xlink:href="#mea22a57ef7" y="173.451285"/>
     <use style="stroke:#000000;" x="241.193926" xlink:href="#mea22a57ef7" y="174.169193"/>
     <use style="stroke:#000000;" x="239.532464" xlink:href="#mea22a57ef7" y="174.367034"/>
     <use style="stroke:#000000;" x="237.473316" xlink:href="#mea22a57ef7" y="174.528"/>
     <use style="stroke:#000000;" x="237.26801" xlink:href="#mea22a57ef7" y="174.507219"/>
     <use style="stroke:#000000;" x="251.815372" xlink:href="#mea22a57ef7" y="173.874703"/>
     <use style="stroke:#000000;" x="250.848976" xlink:href="#mea22a57ef7" y="174.528"/>
     <use style="stroke:#000000;" x="236.178198" xlink:href="#mea22a57ef7" y="174.375307"/>
     <use style="stroke:#000000;" x="239.255364" xlink:href="#mea22a57ef7" y="172.897494"/>
     <use style="stroke:#000000;" x="239.598976" xlink:href="#mea22a57ef7" y="173.463837"/>
     <use style="stroke:#000000;" x="236.69706" xlink:href="#mea22a57ef7" y="174.080171"/>
     <use style="stroke:#000000;" x="236.603562" xlink:href="#mea22a57ef7" y="174.528"/>
     <use style="stroke:#000000;" x="237.197817" xlink:href="#mea22a57ef7" y="174.229927"/>
     <use style="stroke:#000000;" x="237.059798" xlink:href="#mea22a57ef7" y="174.241218"/>
     <use style="stroke:#000000;" x="236.579523" xlink:href="#mea22a57ef7" y="174.460446"/>
     <use style="stroke:#000000;" x="237.772463" xlink:href="#mea22a57ef7" y="174.528"/>
     <use style="stroke:#000000;" x="237.747808" xlink:href="#mea22a57ef7" y="174.528"/>
     <use style="stroke:#000000;" x="237.576639" xlink:href="#mea22a57ef7" y="174.474801"/>
     <use style="stroke:#000000;" x="251.508871" xlink:href="#mea22a57ef7" y="173.783579"/>
     <use style="stroke:#000000;" x="251.797166" xlink:href="#mea22a57ef7" y="173.768167"/>
     <use style="stroke:#000000;" x="236.807989" xlink:href="#mea22a57ef7" y="174.528"/>
     <use style="stroke:#000000;" x="236.840531" xlink:href="#mea22a57ef7" y="174.4544"/>
     <use style="stroke:#000000;" x="236.361469" xlink:href="#mea22a57ef7" y="174.262895"/>
     <use style="stroke:#000000;" x="236.290195" xlink:href="#mea22a57ef7" y="174.498333"/>
     <use style="stroke:#000000;" x="236.641085" xlink:href="#mea22a57ef7" y="174.391385"/>
     <use style="stroke:#000000;" x="239.459988" xlink:href="#mea22a57ef7" y="173.517293"/>
     <use style="stroke:#000000;" x="239.709456" xlink:href="#mea22a57ef7" y="173.444148"/>
     <use style="stroke:#000000;" x="239.776627" xlink:href="#mea22a57ef7" y="173.521615"/>
     <use style="stroke:#000000;" x="247.51651" xlink:href="#mea22a57ef7" y="174.401104"/>
     <use style="stroke:#000000;" x="247.797158" xlink:href="#mea22a57ef7" y="174.528"/>
     <use style="stroke:#000000;" x="247.692397" xlink:href="#mea22a57ef7" y="174.513948"/>
     <use style="stroke:#000000;" x="240.279817" xlink:href="#mea22a57ef7" y="172.996575"/>
     <use style="stroke:#000000;" x="239.976257" xlink:href="#mea22a57ef7" y="172.864005"/>
     <use style="stroke:#000000;" x="251.173294" xlink:href="#mea22a57ef7" y="173.914731"/>
     <use style="stroke:#000000;" x="250.732906" xlink:href="#mea22a57ef7" y="174.09196"/>
     <use style="stroke:#000000;" x="251.17881" xlink:href="#mea22a57ef7" y="174.078911"/>
     <use style="stroke:#000000;" x="250.999495" xlink:href="#mea22a57ef7" y="174.115032"/>
     <use style="stroke:#000000;" x="251.256317" xlink:href="#mea22a57ef7" y="174.03349"/>
     <use style="stroke:#000000;" x="247.596691" xlink:href="#mea22a57ef7" y="174.476659"/>
     <use style="stroke:#000000;" x="247.597296" xlink:href="#mea22a57ef7" y="174.455803"/>
     <use style="stroke:#000000;" x="247.890361" xlink:href="#mea22a57ef7" y="174.193584"/>
     <use style="stroke:#000000;" x="236.160792" xlink:href="#mea22a57ef7" y="174.515867"/>
     <use style="stroke:#000000;" x="236.16" xlink:href="#mea22a57ef7" y="174.429181"/>
     <use style="stroke:#000000;" x="236.323705" xlink:href="#mea22a57ef7" y="174.528"/>
     <use style="stroke:#000000;" x="239.739848" xlink:href="#mea22a57ef7" y="174.324767"/>
     <use style="stroke:#000000;" x="240.040335" xlink:href="#mea22a57ef7" y="174.528"/>
     <use style="stroke:#000000;" x="239.691611" xlink:href="#mea22a57ef7" y="174.528"/>
     <use style="stroke:#000000;" x="239.918231" xlink:href="#mea22a57ef7" y="174.393397"/>
     <use style="stroke:#000000;" x="239.936372" xlink:href="#mea22a57ef7" y="174.378512"/>
     <use style="stroke:#000000;" x="239.73251" xlink:href="#mea22a57ef7" y="174.436555"/>
     <use style="stroke:#000000;" x="239.922126" xlink:href="#mea22a57ef7" y="174.528"/>
     <use style="stroke:#000000;" x="240.031784" xlink:href="#mea22a57ef7" y="174.528"/>
     <use style="stroke:#000000;" x="239.968396" xlink:href="#mea22a57ef7" y="174.392772"/>
     <use style="stroke:#000000;" x="236.870203" xlink:href="#mea22a57ef7" y="174.289516"/>
     <use style="stroke:#000000;" x="236.873136" xlink:href="#mea22a57ef7" y="174.440527"/>
     <use style="stroke:#000000;" x="236.725083" xlink:href="#mea22a57ef7" y="174.500102"/>
     <use style="stroke:#000000;" x="236.926811" xlink:href="#mea22a57ef7" y="174.500591"/>
     <use style="stroke:#000000;" x="236.934671" xlink:href="#mea22a57ef7" y="174.528"/>
     <use style="stroke:#000000;" x="236.808071" xlink:href="#mea22a57ef7" y="174.528"/>
     <use style="stroke:#000000;" x="251.177665" xlink:href="#mea22a57ef7" y="173.903502"/>
     <use style="stroke:#000000;" x="251.027834" xlink:href="#mea22a57ef7" y="173.884179"/>
     <use style="stroke:#000000;" x="251.015267" xlink:href="#mea22a57ef7" y="173.908191"/>
     <use style="stroke:#000000;" x="240.334442" xlink:href="#mea22a57ef7" y="174.341536"/>
     <use style="stroke:#000000;" x="240.212154" xlink:href="#mea22a57ef7" y="174.276404"/>
     <use style="stroke:#000000;" x="240.300541" xlink:href="#mea22a57ef7" y="174.242916"/>
     <use style="stroke:#000000;" x="247.719329" xlink:href="#mea22a57ef7" y="174.479521"/>
     <use style="stroke:#000000;" x="247.635575" xlink:href="#mea22a57ef7" y="174.457571"/>
     <use style="stroke:#000000;" x="247.792428" xlink:href="#mea22a57ef7" y="174.399828"/>
     <use style="stroke:#000000;" x="236.532217" xlink:href="#mea22a57ef7" y="174.373909"/>
     <use style="stroke:#000000;" x="236.271393" xlink:href="#mea22a57ef7" y="174.526136"/>
     <use style="stroke:#000000;" x="236.207524" xlink:href="#mea22a57ef7" y="174.528"/>
     <use style="stroke:#000000;" x="247.655485" xlink:href="#mea22a57ef7" y="174.528"/>
     <use style="stroke:#000000;" x="247.681474" xlink:href="#mea22a57ef7" y="174.500344"/>
     <use style="stroke:#000000;" x="247.318463" xlink:href="#mea22a57ef7" y="174.528"/>
     <use style="stroke:#000000;" x="236.795446" xlink:href="#mea22a57ef7" y="174.528"/>
     <use style="stroke:#000000;" x="236.551993" xlink:href="#mea22a57ef7" y="174.481942"/>
     <use style="stroke:#000000;" x="240.070853" xlink:href="#mea22a57ef7" y="174.032811"/>
     <use style="stroke:#000000;" x="239.983496" xlink:href="#mea22a57ef7" y="174.143764"/>
     <use style="stroke:#000000;" x="240.403714" xlink:href="#mea22a57ef7" y="174.325211"/>
     <use style="stroke:#000000;" x="239.933785" xlink:href="#mea22a57ef7" y="174.325749"/>
     <use style="stroke:#000000;" x="240.383806" xlink:href="#mea22a57ef7" y="174.528"/>
     <use style="stroke:#000000;" x="239.310841" xlink:href="#mea22a57ef7" y="174.528"/>
     <use style="stroke:#000000;" x="239.54847" xlink:href="#mea22a57ef7" y="174.526878"/>
     <use style="stroke:#000000;" x="240.194999" xlink:href="#mea22a57ef7" y="174.513025"/>
     <use style="stroke:#000000;" x="236.8535" xlink:href="#mea22a57ef7" y="174.472716"/>
     <use style="stroke:#000000;" x="237.35233" xlink:href="#mea22a57ef7" y="174.466777"/>
     <use style="stroke:#000000;" x="237.571665" xlink:href="#mea22a57ef7" y="174.528"/>
     <use style="stroke:#000000;" x="237.66462" xlink:href="#mea22a57ef7" y="173.987241"/>
     <use style="stroke:#000000;" x="237.076862" xlink:href="#mea22a57ef7" y="174.528"/>
     <use style="stroke:#000000;" x="237.067087" xlink:href="#mea22a57ef7" y="174.528"/>
     <use style="stroke:#000000;" x="240.217405" xlink:href="#mea22a57ef7" y="174.051511"/>
     <use style="stroke:#000000;" x="240.503451" xlink:href="#mea22a57ef7" y="174.174612"/>
     <use style="stroke:#000000;" x="251.550466" xlink:href="#mea22a57ef7" y="173.789828"/>
     <use style="stroke:#000000;" x="250.863116" xlink:href="#mea22a57ef7" y="173.503264"/>
     <use style="stroke:#000000;" x="236.16" xlink:href="#mea22a57ef7" y="174.528"/>
     <use style="stroke:#000000;" x="237.114496" xlink:href="#mea22a57ef7" y="174.528"/>
     <use style="stroke:#000000;" x="236.446472" xlink:href="#mea22a57ef7" y="174.503073"/>
     <use style="stroke:#000000;" x="236.286428" xlink:href="#mea22a57ef7" y="174.528"/>
     <use style="stroke:#000000;" x="236.559449" xlink:href="#mea22a57ef7" y="174.528"/>
     <use style="stroke:#000000;" x="236.798579" xlink:href="#mea22a57ef7" y="174.443458"/>
     <use style="stroke:#000000;" x="251.458486" xlink:href="#mea22a57ef7" y="173.921184"/>
     <use style="stroke:#000000;" x="250.849133" xlink:href="#mea22a57ef7" y="174.021033"/>
     <use style="stroke:#000000;" x="251.077788" xlink:href="#mea22a57ef7" y="174.129643"/>
     <use style="stroke:#000000;" x="239.493798" xlink:href="#mea22a57ef7" y="174.528"/>
     <use style="stroke:#000000;" x="239.840017" xlink:href="#mea22a57ef7" y="174.161265"/>
     <use style="stroke:#000000;" x="236.960434" xlink:href="#mea22a57ef7" y="174.528"/>
     <use style="stroke:#000000;" x="236.94977" xlink:href="#mea22a57ef7" y="174.528"/>
     <use style="stroke:#000000;" x="236.932564" xlink:href="#mea22a57ef7" y="174.528"/>
     <use style="stroke:#000000;" x="236.975796" xlink:href="#mea22a57ef7" y="174.52355"/>
    </g>
   </g>
   <g id="PathCollection_2">
    <defs>
     <path d="M 0 0.935414 
C 0.248075 0.935414 0.486022 0.836853 0.661438 0.661438 
C 0.836853 0.486022 0.935414 0.248075 0.935414 0 
C 0.935414 -0.248075 0.836853 -0.486022 0.661438 -0.661438 
C 0.486022 -0.836853 0.248075 -0.935414 0 -0.935414 
C -0.248075 -0.935414 -0.486022 -0.836853 -0.661438 -0.661438 
C -0.836853 -0.486022 -0.935414 -0.248075 -0.935414 0 
C -0.935414 0.248075 -0.836853 0.486022 -0.661438 0.661438 
C -0.486022 0.836853 -0.248075 0.935414 0 0.935414 
z
" id="m42f56c1409" style="stroke:#0000ff;"/>
    </defs>
    <g clip-path="url(#p48ee5fc69e)">
     <use style="fill:#0000ff;stroke:#0000ff;" x="240.637166" xlink:href="#m42f56c1409" y="174.528"/>
     <use style="fill:#0000ff;stroke:#0000ff;" x="236.774386" xlink:href="#m42f56c1409" y="174.528"/>
     <use style="fill:#0000ff;stroke:#0000ff;" x="247.442513" xlink:href="#m42f56c1409" y="174.215555"/>
     <use style="fill:#0000ff;stroke:#0000ff;" x="247.420414" xlink:href="#m42f56c1409" y="173.90972"/>
     <use style="fill:#0000ff;stroke:#0000ff;" x="247.401399" xlink:href="#m42f56c1409" y="173.96813"/>
     <use style="fill:#0000ff;stroke:#0000ff;" x="247.543604" xlink:href="#m42f56c1409" y="174.159019"/>
     <use style="fill:#0000ff;stroke:#0000ff;" x="247.758211" xlink:href="#m42f56c1409" y="174.170053"/>
     <use style="fill:#0000ff;stroke:#0000ff;" x="236.432776" xlink:href="#m42f56c1409" y="174.150822"/>
     <use style="fill:#0000ff;stroke:#0000ff;" x="247.820877" xlink:href="#m42f56c1409" y="174.528"/>
     <use style="fill:#0000ff;stroke:#0000ff;" x="240.650066" xlink:href="#m42f56c1409" y="174.528"/>
     <use style="fill:#0000ff;stroke:#0000ff;" x="240.044469" xlink:href="#m42f56c1409" y="174.505072"/>
     <use style="fill:#0000ff;stroke:#0000ff;" x="240.655799" xlink:href="#m42f56c1409" y="173.932825"/>
     <use style="fill:#0000ff;stroke:#0000ff;" x="240.175738" xlink:href="#m42f56c1409" y="174.528"/>
     <use style="fill:#0000ff;stroke:#0000ff;" x="237.147104" xlink:href="#m42f56c1409" y="174.394333"/>
     <use style="fill:#0000ff;stroke:#0000ff;" x="236.826952" xlink:href="#m42f56c1409" y="174.442453"/>
     <use style="fill:#0000ff;stroke:#0000ff;" x="251.200368" xlink:href="#m42f56c1409" y="173.775312"/>
     <use style="fill:#0000ff;stroke:#0000ff;" x="250.985285" xlink:href="#m42f56c1409" y="173.946038"/>
     <use style="fill:#0000ff;stroke:#0000ff;" x="236.70384" xlink:href="#m42f56c1409" y="174.416038"/>
     <use style="fill:#0000ff;stroke:#0000ff;" x="239.823707" xlink:href="#m42f56c1409" y="173.190279"/>
     <use style="fill:#0000ff;stroke:#0000ff;" x="236.757282" xlink:href="#m42f56c1409" y="174.490606"/>
     <use style="fill:#0000ff;stroke:#0000ff;" x="237.010032" xlink:href="#m42f56c1409" y="174.528"/>
     <use style="fill:#0000ff;stroke:#0000ff;" x="237.659481" xlink:href="#m42f56c1409" y="174.507124"/>
     <use style="fill:#0000ff;stroke:#0000ff;" x="251.378674" xlink:href="#m42f56c1409" y="173.777096"/>
     <use style="fill:#0000ff;stroke:#0000ff;" x="236.777077" xlink:href="#m42f56c1409" y="174.528"/>
     <use style="fill:#0000ff;stroke:#0000ff;" x="236.352473" xlink:href="#m42f56c1409" y="174.3116"/>
     <use style="fill:#0000ff;stroke:#0000ff;" x="239.667413" xlink:href="#m42f56c1409" y="173.379665"/>
     <use style="fill:#0000ff;stroke:#0000ff;" x="247.777017" xlink:href="#m42f56c1409" y="174.472748"/>
     <use style="fill:#0000ff;stroke:#0000ff;" x="240.138256" xlink:href="#m42f56c1409" y="173.02393"/>
     <use style="fill:#0000ff;stroke:#0000ff;" x="251.132093" xlink:href="#m42f56c1409" y="173.958609"/>
     <use style="fill:#0000ff;stroke:#0000ff;" x="251.113451" xlink:href="#m42f56c1409" y="174.00548"/>
     <use style="fill:#0000ff;stroke:#0000ff;" x="247.538682" xlink:href="#m42f56c1409" y="174.407875"/>
     <use style="fill:#0000ff;stroke:#0000ff;" x="236.263845" xlink:href="#m42f56c1409" y="174.528"/>
     <use style="fill:#0000ff;stroke:#0000ff;" x="239.915099" xlink:href="#m42f56c1409" y="174.528"/>
     <use style="fill:#0000ff;stroke:#0000ff;" x="239.902852" xlink:href="#m42f56c1409" y="174.387082"/>
     <use style="fill:#0000ff;stroke:#0000ff;" x="240.001973" xlink:href="#m42f56c1409" y="174.528"/>
     <use style="fill:#0000ff;stroke:#0000ff;" x="236.876079" xlink:href="#m42f56c1409" y="174.528"/>
     <use style="fill:#0000ff;stroke:#0000ff;" x="236.844951" xlink:href="#m42f56c1409" y="174.528"/>
     <use style="fill:#0000ff;stroke:#0000ff;" x="251.12318" xlink:href="#m42f56c1409" y="173.877282"/>
     <use style="fill:#0000ff;stroke:#0000ff;" x="240.316867" xlink:href="#m42f56c1409" y="174.267042"/>
     <use style="fill:#0000ff;stroke:#0000ff;" x="247.743608" xlink:href="#m42f56c1409" y="174.455174"/>
     <use style="fill:#0000ff;stroke:#0000ff;" x="236.349925" xlink:href="#m42f56c1409" y="174.528"/>
     <use style="fill:#0000ff;stroke:#0000ff;" x="247.501227" xlink:href="#m42f56c1409" y="174.528"/>
     <use style="fill:#0000ff;stroke:#0000ff;" x="236.346005" xlink:href="#m42f56c1409" y="174.433249"/>
     <use style="fill:#0000ff;stroke:#0000ff;" x="240.219251" xlink:href="#m42f56c1409" y="174.247289"/>
     <use style="fill:#0000ff;stroke:#0000ff;" x="240.395101" xlink:href="#m42f56c1409" y="174.195112"/>
     <use style="fill:#0000ff;stroke:#0000ff;" x="240.062762" xlink:href="#m42f56c1409" y="174.528"/>
     <use style="fill:#0000ff;stroke:#0000ff;" x="240.055668" xlink:href="#m42f56c1409" y="174.528"/>
     <use style="fill:#0000ff;stroke:#0000ff;" x="237.029018" xlink:href="#m42f56c1409" y="174.528"/>
     <use style="fill:#0000ff;stroke:#0000ff;" x="237.264897" xlink:href="#m42f56c1409" y="174.371621"/>
     <use style="fill:#0000ff;stroke:#0000ff;" x="237.243242" xlink:href="#m42f56c1409" y="174.508337"/>
     <use style="fill:#0000ff;stroke:#0000ff;" x="240.273884" xlink:href="#m42f56c1409" y="174.197241"/>
     <use style="fill:#0000ff;stroke:#0000ff;" x="251.284198" xlink:href="#m42f56c1409" y="173.645796"/>
     <use style="fill:#0000ff;stroke:#0000ff;" x="236.882583" xlink:href="#m42f56c1409" y="174.460528"/>
     <use style="fill:#0000ff;stroke:#0000ff;" x="236.653414" xlink:href="#m42f56c1409" y="174.499912"/>
     <use style="fill:#0000ff;stroke:#0000ff;" x="236.551695" xlink:href="#m42f56c1409" y="174.452456"/>
     <use style="fill:#0000ff;stroke:#0000ff;" x="236.660036" xlink:href="#m42f56c1409" y="174.451546"/>
     <use style="fill:#0000ff;stroke:#0000ff;" x="251.399431" xlink:href="#m42f56c1409" y="173.891173"/>
     <use style="fill:#0000ff;stroke:#0000ff;" x="251.234121" xlink:href="#m42f56c1409" y="174.037952"/>
     <use style="fill:#0000ff;stroke:#0000ff;" x="239.73422" xlink:href="#m42f56c1409" y="174.528"/>
     <use style="fill:#0000ff;stroke:#0000ff;" x="237.01802" xlink:href="#m42f56c1409" y="174.528"/>
    </g>
   </g>
   <g id="matplotlib.axis_1">
    <g id="xtick_1">
     <g id="line2d_1">
      <defs>
       <path d="M 0 0 
L 0 3.5 
" id="m3c013bdf9b" style="stroke:#000000;stroke-width:0.8;"/>
      </defs>
      <g>
       <use style="stroke:#000000;stroke-width:0.8;" x="57.6" xlink:href="#m3c013bdf9b" y="307.584"/>
      </g>
     </g>
     <g id="text_1">
      <!-- −10.0 -->
      <defs>
       <path d="M 10.59375 35.5 
L 73.1875 35.5 
L 73.1875 27.203125 
L 10.59375 27.203125 
z
" id="DejaVuSans-2212"/>
       <path d="M 12.40625 8.296875 
L 28.515625 8.296875 
L 28.515625 63.921875 
L 10.984375 60.40625 
L 10.984375 69.390625 
L 28.421875 72.90625 
L 38.28125 72.90625 
L 38.28125 8.296875 
L 54.390625 8.296875 
L 54.390625 0 
L 12.40625 0 
z
" id="DejaVuSans-31"/>
       <path d="M 31.78125 66.40625 
Q 24.171875 66.40625 20.328125 58.90625 
Q 16.5 51.421875 16.5 36.375 
Q 16.5 21.390625 20.328125 13.890625 
Q 24.171875 6.390625 31.78125 6.390625 
Q 39.453125 6.390625 43.28125 13.890625 
Q 47.125 21.390625 47.125 36.375 
Q 47.125 51.421875 43.28125 58.90625 
Q 39.453125 66.40625 31.78125 66.40625 
z
M 31.78125 74.21875 
Q 44.046875 74.21875 50.515625 64.515625 
Q 56.984375 54.828125 56.984375 36.375 
Q 56.984375 17.96875 50.515625 8.265625 
Q 44.046875 -1.421875 31.78125 -1.421875 
Q 19.53125 -1.421875 13.0625 8.265625 
Q 6.59375 17.96875 6.59375 36.375 
Q 6.59375 54.828125 13.0625 64.515625 
Q 19.53125 74.21875 31.78125 74.21875 
z
" id="DejaVuSans-30"/>
       <path d="M 10.6875 12.40625 
L 21 12.40625 
L 21 0 
L 10.6875 0 
z
" id="DejaVuSans-2e"/>
      </defs>
      <g transform="translate(42.277344 322.182437)scale(0.1 -0.1)">
       <use xlink:href="#DejaVuSans-2212"/>
       <use x="83.789062" xlink:href="#DejaVuSans-31"/>
       <use x="147.412109" xlink:href="#DejaVuSans-30"/>
       <use x="211.035156" xlink:href="#DejaVuSans-2e"/>
       <use x="242.822266" xlink:href="#DejaVuSans-30"/>
      </g>
     </g>
    </g>
    <g id="xtick_2">
     <g id="line2d_2">
      <g>
       <use style="stroke:#000000;stroke-width:0.8;" x="102.24" xlink:href="#m3c013bdf9b" y="307.584"/>
      </g>
     </g>
     <g id="text_2">
      <!-- −7.5 -->
      <defs>
       <path d="M 8.203125 72.90625 
L 55.078125 72.90625 
L 55.078125 68.703125 
L 28.609375 0 
L 18.3125 0 
L 43.21875 64.59375 
L 8.203125 64.59375 
z
" id="DejaVuSans-37"/>
       <path d="M 10.796875 72.90625 
L 49.515625 72.90625 
L 49.515625 64.59375 
L 19.828125 64.59375 
L 19.828125 46.734375 
Q 21.96875 47.46875 24.109375 47.828125 
Q 26.265625 48.1875 28.421875 48.1875 
Q 40.625 48.1875 47.75 41.5 
Q 54.890625 34.8125 54.890625 23.390625 
Q 54.890625 11.625 47.5625 5.09375 
Q 40.234375 -1.421875 26.90625 -1.421875 
Q 22.3125 -1.421875 17.546875 -0.640625 
Q 12.796875 0.140625 7.71875 1.703125 
L 7.71875 11.625 
Q 12.109375 9.234375 16.796875 8.0625 
Q 21.484375 6.890625 26.703125 6.890625 
Q 35.15625 6.890625 40.078125 11.328125 
Q 45.015625 15.765625 45.015625 23.390625 
Q 45.015625 31 40.078125 35.4375 
Q 35.15625 39.890625 26.703125 39.890625 
Q 22.75 39.890625 18.8125 39.015625 
Q 14.890625 38.140625 10.796875 36.28125 
z
" id="DejaVuSans-35"/>
      </defs>
      <g transform="translate(90.098594 322.182437)scale(0.1 -0.1)">
       <use xlink:href="#DejaVuSans-2212"/>
       <use x="83.789062" xlink:href="#DejaVuSans-37"/>
       <use x="147.412109" xlink:href="#DejaVuSans-2e"/>
       <use x="179.199219" xlink:href="#DejaVuSans-35"/>
      </g>
     </g>
    </g>
    <g id="xtick_3">
     <g id="line2d_3">
      <g>
       <use style="stroke:#000000;stroke-width:0.8;" x="146.88" xlink:href="#m3c013bdf9b" y="307.584"/>
      </g>
     </g>
     <g id="text_3">
      <!-- −5.0 -->
      <g transform="translate(134.738594 322.182437)scale(0.1 -0.1)">
       <use xlink:href="#DejaVuSans-2212"/>
       <use x="83.789062" xlink:href="#DejaVuSans-35"/>
       <use x="147.412109" xlink:href="#DejaVuSans-2e"/>
       <use x="179.199219" xlink:href="#DejaVuSans-30"/>
      </g>
     </g>
    </g>
    <g id="xtick_4">
     <g id="line2d_4">
      <g>
       <use style="stroke:#000000;stroke-width:0.8;" x="191.52" xlink:href="#m3c013bdf9b" y="307.584"/>
      </g>
     </g>
     <g id="text_4">
      <!-- −2.5 -->
      <defs>
       <path d="M 19.1875 8.296875 
L 53.609375 8.296875 
L 53.609375 0 
L 7.328125 0 
L 7.328125 8.296875 
Q 12.9375 14.109375 22.625 23.890625 
Q 32.328125 33.6875 34.8125 36.53125 
Q 39.546875 41.84375 41.421875 45.53125 
Q 43.3125 49.21875 43.3125 52.78125 
Q 43.3125 58.59375 39.234375 62.25 
Q 35.15625 65.921875 28.609375 65.921875 
Q 23.96875 65.921875 18.8125 64.3125 
Q 13.671875 62.703125 7.8125 59.421875 
L 7.8125 69.390625 
Q 13.765625 71.78125 18.9375 73 
Q 24.125 74.21875 28.421875 74.21875 
Q 39.75 74.21875 46.484375 68.546875 
Q 53.21875 62.890625 53.21875 53.421875 
Q 53.21875 48.921875 51.53125 44.890625 
Q 49.859375 40.875 45.40625 35.40625 
Q 44.1875 33.984375 37.640625 27.21875 
Q 31.109375 20.453125 19.1875 8.296875 
z
" id="DejaVuSans-32"/>
      </defs>
      <g transform="translate(179.378594 322.182437)scale(0.1 -0.1)">
       <use xlink:href="#DejaVuSans-2212"/>
       <use x="83.789062" xlink:href="#DejaVuSans-32"/>
       <use x="147.412109" xlink:href="#DejaVuSans-2e"/>
       <use x="179.199219" xlink:href="#DejaVuSans-35"/>
      </g>
     </g>
    </g>
    <g id="xtick_5">
     <g id="line2d_5">
      <g>
       <use style="stroke:#000000;stroke-width:0.8;" x="236.16" xlink:href="#m3c013bdf9b" y="307.584"/>
      </g>
     </g>
     <g id="text_5">
      <!-- 0.0 -->
      <g transform="translate(228.208438 322.182437)scale(0.1 -0.1)">
       <use xlink:href="#DejaVuSans-30"/>
       <use x="63.623047" xlink:href="#DejaVuSans-2e"/>
       <use x="95.410156" xlink:href="#DejaVuSans-30"/>
      </g>
     </g>
    </g>
    <g id="xtick_6">
     <g id="line2d_6">
      <g>
       <use style="stroke:#000000;stroke-width:0.8;" x="280.8" xlink:href="#m3c013bdf9b" y="307.584"/>
      </g>
     </g>
     <g id="text_6">
      <!-- 2.5 -->
      <g transform="translate(272.848437 322.182437)scale(0.1 -0.1)">
       <use xlink:href="#DejaVuSans-32"/>
       <use x="63.623047" xlink:href="#DejaVuSans-2e"/>
       <use x="95.410156" xlink:href="#DejaVuSans-35"/>
      </g>
     </g>
    </g>
    <g id="xtick_7">
     <g id="line2d_7">
      <g>
       <use style="stroke:#000000;stroke-width:0.8;" x="325.44" xlink:href="#m3c013bdf9b" y="307.584"/>
      </g>
     </g>
     <g id="text_7">
      <!-- 5.0 -->
      <g transform="translate(317.488437 322.182437)scale(0.1 -0.1)">
       <use xlink:href="#DejaVuSans-35"/>
       <use x="63.623047" xlink:href="#DejaVuSans-2e"/>
       <use x="95.410156" xlink:href="#DejaVuSans-30"/>
      </g>
     </g>
    </g>
    <g id="xtick_8">
     <g id="line2d_8">
      <g>
       <use style="stroke:#000000;stroke-width:0.8;" x="370.08" xlink:href="#m3c013bdf9b" y="307.584"/>
      </g>
     </g>
     <g id="text_8">
      <!-- 7.5 -->
      <g transform="translate(362.128438 322.182437)scale(0.1 -0.1)">
       <use xlink:href="#DejaVuSans-37"/>
       <use x="63.623047" xlink:href="#DejaVuSans-2e"/>
       <use x="95.410156" xlink:href="#DejaVuSans-35"/>
      </g>
     </g>
    </g>
    <g id="xtick_9">
     <g id="line2d_9">
      <g>
       <use style="stroke:#000000;stroke-width:0.8;" x="414.72" xlink:href="#m3c013bdf9b" y="307.584"/>
      </g>
     </g>
     <g id="text_9">
      <!-- 10.0 -->
      <g transform="translate(403.587188 322.182437)scale(0.1 -0.1)">
       <use xlink:href="#DejaVuSans-31"/>
       <use x="63.623047" xlink:href="#DejaVuSans-30"/>
       <use x="127.246094" xlink:href="#DejaVuSans-2e"/>
       <use x="159.033203" xlink:href="#DejaVuSans-30"/>
      </g>
     </g>
    </g>
   </g>
   <g id="matplotlib.axis_2">
    <g id="ytick_1">
     <g id="line2d_10">
      <defs>
       <path d="M 0 0 
L -3.5 0 
" id="m7f84f72bf2" style="stroke:#000000;stroke-width:0.8;"/>
      </defs>
      <g>
       <use style="stroke:#000000;stroke-width:0.8;" x="57.6" xlink:href="#m7f84f72bf2" y="307.584"/>
      </g>
     </g>
     <g id="text_10">
      <!-- −10.0 -->
      <g transform="translate(19.954687 311.383219)scale(0.1 -0.1)">
       <use xlink:href="#DejaVuSans-2212"/>
       <use x="83.789062" xlink:href="#DejaVuSans-31"/>
       <use x="147.412109" xlink:href="#DejaVuSans-30"/>
       <use x="211.035156" xlink:href="#DejaVuSans-2e"/>
       <use x="242.822266" xlink:href="#DejaVuSans-30"/>
      </g>
     </g>
    </g>
    <g id="ytick_2">
     <g id="line2d_11">
      <g>
       <use style="stroke:#000000;stroke-width:0.8;" x="57.6" xlink:href="#m7f84f72bf2" y="274.32"/>
      </g>
     </g>
     <g id="text_11">
      <!-- −7.5 -->
      <g transform="translate(26.317187 278.119219)scale(0.1 -0.1)">
       <use xlink:href="#DejaVuSans-2212"/>
       <use x="83.789062" xlink:href="#DejaVuSans-37"/>
       <use x="147.412109" xlink:href="#DejaVuSans-2e"/>
       <use x="179.199219" xlink:href="#DejaVuSans-35"/>
      </g>
     </g>
    </g>
    <g id="ytick_3">
     <g id="line2d_12">
      <g>
       <use style="stroke:#000000;stroke-width:0.8;" x="57.6" xlink:href="#m7f84f72bf2" y="241.056"/>
      </g>
     </g>
     <g id="text_12">
      <!-- −5.0 -->
      <g transform="translate(26.317187 244.855219)scale(0.1 -0.1)">
       <use xlink:href="#DejaVuSans-2212"/>
       <use x="83.789062" xlink:href="#DejaVuSans-35"/>
       <use x="147.412109" xlink:href="#DejaVuSans-2e"/>
       <use x="179.199219" xlink:href="#DejaVuSans-30"/>
      </g>
     </g>
    </g>
    <g id="ytick_4">
     <g id="line2d_13">
      <g>
       <use style="stroke:#000000;stroke-width:0.8;" x="57.6" xlink:href="#m7f84f72bf2" y="207.792"/>
      </g>
     </g>
     <g id="text_13">
      <!-- −2.5 -->
      <g transform="translate(26.317187 211.591219)scale(0.1 -0.1)">
       <use xlink:href="#DejaVuSans-2212"/>
       <use x="83.789062" xlink:href="#DejaVuSans-32"/>
       <use x="147.412109" xlink:href="#DejaVuSans-2e"/>
       <use x="179.199219" xlink:href="#DejaVuSans-35"/>
      </g>
     </g>
    </g>
    <g id="ytick_5">
     <g id="line2d_14">
      <g>
       <use style="stroke:#000000;stroke-width:0.8;" x="57.6" xlink:href="#m7f84f72bf2" y="174.528"/>
      </g>
     </g>
     <g id="text_14">
      <!-- 0.0 -->
      <g transform="translate(34.696875 178.327219)scale(0.1 -0.1)">
       <use xlink:href="#DejaVuSans-30"/>
       <use x="63.623047" xlink:href="#DejaVuSans-2e"/>
       <use x="95.410156" xlink:href="#DejaVuSans-30"/>
      </g>
     </g>
    </g>
    <g id="ytick_6">
     <g id="line2d_15">
      <g>
       <use style="stroke:#000000;stroke-width:0.8;" x="57.6" xlink:href="#m7f84f72bf2" y="141.264"/>
      </g>
     </g>
     <g id="text_15">
      <!-- 2.5 -->
      <g transform="translate(34.696875 145.063219)scale(0.1 -0.1)">
       <use xlink:href="#DejaVuSans-32"/>
       <use x="63.623047" xlink:href="#DejaVuSans-2e"/>
       <use x="95.410156" xlink:href="#DejaVuSans-35"/>
      </g>
     </g>
    </g>
    <g id="ytick_7">
     <g id="line2d_16">
      <g>
       <use style="stroke:#000000;stroke-width:0.8;" x="57.6" xlink:href="#m7f84f72bf2" y="108"/>
      </g>
     </g>
     <g id="text_16">
      <!-- 5.0 -->
      <g transform="translate(34.696875 111.799219)scale(0.1 -0.1)">
       <use xlink:href="#DejaVuSans-35"/>
       <use x="63.623047" xlink:href="#DejaVuSans-2e"/>
       <use x="95.410156" xlink:href="#DejaVuSans-30"/>
      </g>
     </g>
    </g>
    <g id="ytick_8">
     <g id="line2d_17">
      <g>
       <use style="stroke:#000000;stroke-width:0.8;" x="57.6" xlink:href="#m7f84f72bf2" y="74.736"/>
      </g>
     </g>
     <g id="text_17">
      <!-- 7.5 -->
      <g transform="translate(34.696875 78.535219)scale(0.1 -0.1)">
       <use xlink:href="#DejaVuSans-37"/>
       <use x="63.623047" xlink:href="#DejaVuSans-2e"/>
       <use x="95.410156" xlink:href="#DejaVuSans-35"/>
      </g>
     </g>
    </g>
    <g id="ytick_9">
     <g id="line2d_18">
      <g>
       <use style="stroke:#000000;stroke-width:0.8;" x="57.6" xlink:href="#m7f84f72bf2" y="41.472"/>
      </g>
     </g>
     <g id="text_18">
      <!-- 10.0 -->
      <g transform="translate(28.334375 45.271219)scale(0.1 -0.1)">
       <use xlink:href="#DejaVuSans-31"/>
       <use x="63.623047" xlink:href="#DejaVuSans-30"/>
       <use x="127.246094" xlink:href="#DejaVuSans-2e"/>
       <use x="159.033203" xlink:href="#DejaVuSans-30"/>
      </g>
     </g>
    </g>
   </g>
   <g id="patch_3">
    <path d="M 57.6 307.584 
L 57.6 41.472 
" style="fill:none;stroke:#000000;stroke-linecap:square;stroke-linejoin:miter;stroke-width:0.8;"/>
   </g>
   <g id="patch_4">
    <path d="M 414.72 307.584 
L 414.72 41.472 
" style="fill:none;stroke:#000000;stroke-linecap:square;stroke-linejoin:miter;stroke-width:0.8;"/>
   </g>
   <g id="patch_5">
    <path d="M 57.6 307.584 
L 414.72 307.584 
" style="fill:none;stroke:#000000;stroke-linecap:square;stroke-linejoin:miter;stroke-width:0.8;"/>
   </g>
   <g id="patch_6">
    <path d="M 57.6 41.472 
L 414.72 41.472 
" style="fill:none;stroke:#000000;stroke-linecap:square;stroke-linejoin:miter;stroke-width:0.8;"/>
   </g>
  </g>
 </g>
 <defs>
  <clipPath id="p48ee5fc69e">
   <rect height="266.112" width="357.12" x="57.6" y="41.472"/>
  </clipPath>
 </defs>
</svg>
