<?xml version="1.0" encoding="utf-8" standalone="no"?>
<!DOCTYPE svg PUBLIC "-//W3C//DTD SVG 1.1//EN"
  "http://www.w3.org/Graphics/SVG/1.1/DTD/svg11.dtd">
<!-- Created with matplotlib (http://matplotlib.org/) -->
<svg height="345.6pt" version="1.1" viewBox="0 0 460.8 345.6" width="460.8pt" xmlns="http://www.w3.org/2000/svg" xmlns:xlink="http://www.w3.org/1999/xlink">
 <defs>
  <style type="text/css">
*{stroke-linecap:butt;stroke-linejoin:round;}
  </style>
 </defs>
 <g id="figure_1">
  <g id="patch_1">
   <path d="M 0 345.6 
L 460.8 345.6 
L 460.8 0 
L 0 0 
z
" style="fill:#ffffff;"/>
  </g>
  <g id="axes_1">
   <g id="patch_2">
    <path d="M 57.6 307.584 
L 414.72 307.584 
L 414.72 41.472 
L 57.6 41.472 
z
" style="fill:#ffffff;"/>
   </g>
   <g id="PathCollection_1">
    <defs>
     <path d="M 0 0.612372 
C 0.162403 0.612372 0.318176 0.547849 0.433013 0.433013 
C 0.547849 0.318176 0.612372 0.162403 0.612372 0 
C 0.612372 -0.162403 0.547849 -0.318176 0.433013 -0.433013 
C 0.318176 -0.547849 0.162403 -0.612372 0 -0.612372 
C -0.162403 -0.612372 -0.318176 -0.547849 -0.433013 -0.433013 
C -0.547849 -0.318176 -0.612372 -0.162403 -0.612372 0 
C -0.612372 0.162403 -0.547849 0.318176 -0.433013 0.433013 
C -0.318176 0.547849 -0.162403 0.612372 0 0.612372 
z
" id="mcd4d72efff" style="stroke:#000000;"/>
    </defs>
    <g clip-path="url(#p9de6a7bee2)">
     <use style="stroke:#000000;" x="325.44" xlink:href="#mcd4d72efff" y="134.6112"/>
     <use style="stroke:#000000;" x="236.16" xlink:href="#mcd4d72efff" y="174.528"/>
     <use style="stroke:#000000;" x="236.16" xlink:href="#mcd4d72efff" y="162.675876"/>
     <use style="stroke:#000000;" x="236.16" xlink:href="#mcd4d72efff" y="136.150065"/>
     <use style="stroke:#000000;" x="242.637057" xlink:href="#mcd4d72efff" y="174.528"/>
     <use style="stroke:#000000;" x="237.831439" xlink:href="#mcd4d72efff" y="174.528"/>
     <use style="stroke:#000000;" x="250.158838" xlink:href="#mcd4d72efff" y="174.528"/>
     <use style="stroke:#000000;" x="236.16" xlink:href="#mcd4d72efff" y="134.825984"/>
     <use style="stroke:#000000;" x="244.271901" xlink:href="#mcd4d72efff" y="174.528"/>
     <use style="stroke:#000000;" x="237.725947" xlink:href="#mcd4d72efff" y="174.528"/>
     <use style="stroke:#000000;" x="236.16" xlink:href="#mcd4d72efff" y="134.6112"/>
     <use style="stroke:#000000;" x="240.709652" xlink:href="#mcd4d72efff" y="174.528"/>
     <use style="stroke:#000000;" x="236.16" xlink:href="#mcd4d72efff" y="173.445206"/>
     <use style="stroke:#000000;" x="246.878073" xlink:href="#mcd4d72efff" y="174.528"/>
     <use style="stroke:#000000;" x="246.161321" xlink:href="#mcd4d72efff" y="174.528"/>
     <use style="stroke:#000000;" x="236.16" xlink:href="#mcd4d72efff" y="162.13111"/>
     <use style="stroke:#000000;" x="256.171105" xlink:href="#mcd4d72efff" y="174.528"/>
     <use style="stroke:#000000;" x="236.542571" xlink:href="#mcd4d72efff" y="150.556603"/>
     <use style="stroke:#000000;" x="261.287402" xlink:href="#mcd4d72efff" y="174.528"/>
     <use style="stroke:#000000;" x="236.16" xlink:href="#mcd4d72efff" y="174.528"/>
     <use style="stroke:#000000;" x="236.16" xlink:href="#mcd4d72efff" y="172.994832"/>
     <use style="stroke:#000000;" x="251.389414" xlink:href="#mcd4d72efff" y="174.528"/>
     <use style="stroke:#000000;" x="236.16" xlink:href="#mcd4d72efff" y="141.821472"/>
     <use style="stroke:#000000;" x="236.16" xlink:href="#mcd4d72efff" y="173.122876"/>
     <use style="stroke:#000000;" x="236.16" xlink:href="#mcd4d72efff" y="148.502471"/>
     <use style="stroke:#000000;" x="236.16" xlink:href="#mcd4d72efff" y="172.0473"/>
     <use style="stroke:#000000;" x="236.16" xlink:href="#mcd4d72efff" y="146.449317"/>
     <use style="stroke:#000000;" x="236.16" xlink:href="#mcd4d72efff" y="134.656174"/>
     <use style="stroke:#000000;" x="258.495977" xlink:href="#mcd4d72efff" y="174.528"/>
     <use style="stroke:#000000;" x="243.448102" xlink:href="#mcd4d72efff" y="174.528"/>
     <use style="stroke:#000000;" x="236.16" xlink:href="#mcd4d72efff" y="146.281146"/>
     <use style="stroke:#000000;" x="242.064813" xlink:href="#mcd4d72efff" y="174.528"/>
     <use style="stroke:#000000;" x="236.16" xlink:href="#mcd4d72efff" y="148.083228"/>
     <use style="stroke:#000000;" x="245.320941" xlink:href="#mcd4d72efff" y="174.528"/>
     <use style="stroke:#000000;" x="238.184095" xlink:href="#mcd4d72efff" y="174.528"/>
     <use style="stroke:#000000;" x="236.16" xlink:href="#mcd4d72efff" y="135.017559"/>
     <use style="stroke:#000000;" x="237.387688" xlink:href="#mcd4d72efff" y="174.528"/>
     <use style="stroke:#000000;" x="325.44" xlink:href="#mcd4d72efff" y="138.310533"/>
     <use style="stroke:#000000;" x="236.16" xlink:href="#mcd4d72efff" y="171.869261"/>
     <use style="stroke:#000000;" x="236.16" xlink:href="#mcd4d72efff" y="174.528"/>
     <use style="stroke:#000000;" x="248.046627" xlink:href="#mcd4d72efff" y="174.528"/>
     <use style="stroke:#000000;" x="251.253069" xlink:href="#mcd4d72efff" y="174.528"/>
     <use style="stroke:#000000;" x="249.836413" xlink:href="#mcd4d72efff" y="174.528"/>
     <use style="stroke:#000000;" x="236.16" xlink:href="#mcd4d72efff" y="174.528"/>
     <use style="stroke:#000000;" x="236.16" xlink:href="#mcd4d72efff" y="136.72315"/>
     <use style="stroke:#000000;" x="236.16" xlink:href="#mcd4d72efff" y="147.126008"/>
     <use style="stroke:#000000;" x="238.402037" xlink:href="#mcd4d72efff" y="134.6112"/>
     <use style="stroke:#000000;" x="236.240311" xlink:href="#mcd4d72efff" y="174.528"/>
     <use style="stroke:#000000;" x="236.685088" xlink:href="#mcd4d72efff" y="134.6112"/>
     <use style="stroke:#000000;" x="236.16" xlink:href="#mcd4d72efff" y="173.859459"/>
     <use style="stroke:#000000;" x="237.596597" xlink:href="#mcd4d72efff" y="174.528"/>
     <use style="stroke:#000000;" x="243.022742" xlink:href="#mcd4d72efff" y="174.528"/>
     <use style="stroke:#000000;" x="236.16" xlink:href="#mcd4d72efff" y="139.092942"/>
     <use style="stroke:#000000;" x="242.388537" xlink:href="#mcd4d72efff" y="174.528"/>
     <use style="stroke:#000000;" x="236.16" xlink:href="#mcd4d72efff" y="134.962501"/>
     <use style="stroke:#000000;" x="325.44" xlink:href="#mcd4d72efff" y="139.496649"/>
     <use style="stroke:#000000;" x="256.32988" xlink:href="#mcd4d72efff" y="174.528"/>
     <use style="stroke:#000000;" x="236.16" xlink:href="#mcd4d72efff" y="151.343823"/>
     <use style="stroke:#000000;" x="236.16" xlink:href="#mcd4d72efff" y="153.175427"/>
     <use style="stroke:#000000;" x="236.16" xlink:href="#mcd4d72efff" y="134.6112"/>
     <use style="stroke:#000000;" x="243.794645" xlink:href="#mcd4d72efff" y="174.528"/>
     <use style="stroke:#000000;" x="246.140601" xlink:href="#mcd4d72efff" y="174.528"/>
     <use style="stroke:#000000;" x="236.16" xlink:href="#mcd4d72efff" y="148.184735"/>
     <use style="stroke:#000000;" x="236.16" xlink:href="#mcd4d72efff" y="174.136971"/>
     <use style="stroke:#000000;" x="236.16" xlink:href="#mcd4d72efff" y="167.248278"/>
     <use style="stroke:#000000;" x="236.16" xlink:href="#mcd4d72efff" y="136.108592"/>
     <use style="stroke:#000000;" x="246.398397" xlink:href="#mcd4d72efff" y="174.528"/>
     <use style="stroke:#000000;" x="280.040172" xlink:href="#mcd4d72efff" y="174.528"/>
     <use style="stroke:#000000;" x="242.111589" xlink:href="#mcd4d72efff" y="174.528"/>
     <use style="stroke:#000000;" x="246.268331" xlink:href="#mcd4d72efff" y="174.528"/>
     <use style="stroke:#000000;" x="277.693906" xlink:href="#mcd4d72efff" y="174.528"/>
     <use style="stroke:#000000;" x="236.16" xlink:href="#mcd4d72efff" y="137.664119"/>
     <use style="stroke:#000000;" x="236.275133" xlink:href="#mcd4d72efff" y="154.34593"/>
     <use style="stroke:#000000;" x="236.16" xlink:href="#mcd4d72efff" y="174.293596"/>
     <use style="stroke:#000000;" x="279.138939" xlink:href="#mcd4d72efff" y="174.528"/>
     <use style="stroke:#000000;" x="236.545217" xlink:href="#mcd4d72efff" y="151.070108"/>
     <use style="stroke:#000000;" x="236.16" xlink:href="#mcd4d72efff" y="134.6112"/>
     <use style="stroke:#000000;" x="275.760379" xlink:href="#mcd4d72efff" y="174.258346"/>
     <use style="stroke:#000000;" x="324.676795" xlink:href="#mcd4d72efff" y="139.888841"/>
     <use style="stroke:#000000;" x="242.587663" xlink:href="#mcd4d72efff" y="174.528"/>
     <use style="stroke:#000000;" x="325.44" xlink:href="#mcd4d72efff" y="135.413741"/>
     <use style="stroke:#000000;" x="237.014327" xlink:href="#mcd4d72efff" y="174.528"/>
     <use style="stroke:#000000;" x="236.608231" xlink:href="#mcd4d72efff" y="174.528"/>
     <use style="stroke:#000000;" x="236.617393" xlink:href="#mcd4d72efff" y="174.083976"/>
     <use style="stroke:#000000;" x="236.16" xlink:href="#mcd4d72efff" y="174.489978"/>
     <use style="stroke:#000000;" x="236.546153" xlink:href="#mcd4d72efff" y="163.087523"/>
     <use style="stroke:#000000;" x="236.16" xlink:href="#mcd4d72efff" y="162.423079"/>
     <use style="stroke:#000000;" x="236.16" xlink:href="#mcd4d72efff" y="162.255123"/>
     <use style="stroke:#000000;" x="236.16" xlink:href="#mcd4d72efff" y="135.899838"/>
     <use style="stroke:#000000;" x="236.242458" xlink:href="#mcd4d72efff" y="136.11488"/>
     <use style="stroke:#000000;" x="236.16" xlink:href="#mcd4d72efff" y="136.24164"/>
     <use style="stroke:#000000;" x="242.703322" xlink:href="#mcd4d72efff" y="174.528"/>
     <use style="stroke:#000000;" x="243.973972" xlink:href="#mcd4d72efff" y="174.528"/>
     <use style="stroke:#000000;" x="242.266853" xlink:href="#mcd4d72efff" y="174.528"/>
     <use style="stroke:#000000;" x="238.758007" xlink:href="#mcd4d72efff" y="174.528"/>
     <use style="stroke:#000000;" x="237.647216" xlink:href="#mcd4d72efff" y="174.445711"/>
     <use style="stroke:#000000;" x="237.245162" xlink:href="#mcd4d72efff" y="174.345959"/>
     <use style="stroke:#000000;" x="250.560961" xlink:href="#mcd4d72efff" y="173.659413"/>
     <use style="stroke:#000000;" x="237.621947" xlink:href="#mcd4d72efff" y="134.6112"/>
     <use style="stroke:#000000;" x="243.105288" xlink:href="#mcd4d72efff" y="174.463284"/>
     <use style="stroke:#000000;" x="245.80271" xlink:href="#mcd4d72efff" y="174.21865"/>
     <use style="stroke:#000000;" x="244.354576" xlink:href="#mcd4d72efff" y="174.406072"/>
     <use style="stroke:#000000;" x="237.928219" xlink:href="#mcd4d72efff" y="174.22557"/>
     <use style="stroke:#000000;" x="237.456106" xlink:href="#mcd4d72efff" y="174.180174"/>
     <use style="stroke:#000000;" x="236.190831" xlink:href="#mcd4d72efff" y="174.326252"/>
     <use style="stroke:#000000;" x="236.16" xlink:href="#mcd4d72efff" y="134.710579"/>
     <use style="stroke:#000000;" x="237.116255" xlink:href="#mcd4d72efff" y="134.622071"/>
     <use style="stroke:#000000;" x="236.947216" xlink:href="#mcd4d72efff" y="134.765615"/>
     <use style="stroke:#000000;" x="241.136743" xlink:href="#mcd4d72efff" y="174.102804"/>
     <use style="stroke:#000000;" x="239.290647" xlink:href="#mcd4d72efff" y="174.528"/>
     <use style="stroke:#000000;" x="241.041731" xlink:href="#mcd4d72efff" y="174.505134"/>
     <use style="stroke:#000000;" x="236.533995" xlink:href="#mcd4d72efff" y="173.036469"/>
     <use style="stroke:#000000;" x="236.16" xlink:href="#mcd4d72efff" y="173.934156"/>
     <use style="stroke:#000000;" x="236.360974" xlink:href="#mcd4d72efff" y="173.363571"/>
     <use style="stroke:#000000;" x="246.384842" xlink:href="#mcd4d72efff" y="174.528"/>
     <use style="stroke:#000000;" x="246.969384" xlink:href="#mcd4d72efff" y="173.852796"/>
     <use style="stroke:#000000;" x="248.256503" xlink:href="#mcd4d72efff" y="174.163718"/>
     <use style="stroke:#000000;" x="246.912647" xlink:href="#mcd4d72efff" y="174.528"/>
     <use style="stroke:#000000;" x="246.484886" xlink:href="#mcd4d72efff" y="173.975921"/>
     <use style="stroke:#000000;" x="246.322844" xlink:href="#mcd4d72efff" y="174.528"/>
     <use style="stroke:#000000;" x="236.16" xlink:href="#mcd4d72efff" y="162.525241"/>
     <use style="stroke:#000000;" x="236.16" xlink:href="#mcd4d72efff" y="162.035334"/>
     <use style="stroke:#000000;" x="236.49519" xlink:href="#mcd4d72efff" y="162.468183"/>
     <use style="stroke:#000000;" x="255.502078" xlink:href="#mcd4d72efff" y="174.528"/>
     <use style="stroke:#000000;" x="255.507784" xlink:href="#mcd4d72efff" y="174.528"/>
     <use style="stroke:#000000;" x="256.532519" xlink:href="#mcd4d72efff" y="174.528"/>
     <use style="stroke:#000000;" x="237.80831" xlink:href="#mcd4d72efff" y="150.754381"/>
     <use style="stroke:#000000;" x="238.276231" xlink:href="#mcd4d72efff" y="150.373657"/>
     <use style="stroke:#000000;" x="237.920052" xlink:href="#mcd4d72efff" y="150.427627"/>
     <use style="stroke:#000000;" x="260.414576" xlink:href="#mcd4d72efff" y="174.528"/>
     <use style="stroke:#000000;" x="259.556207" xlink:href="#mcd4d72efff" y="174.528"/>
     <use style="stroke:#000000;" x="262.176912" xlink:href="#mcd4d72efff" y="174.114834"/>
     <use style="stroke:#000000;" x="236.16" xlink:href="#mcd4d72efff" y="174.528"/>
     <use style="stroke:#000000;" x="236.265283" xlink:href="#mcd4d72efff" y="172.306716"/>
     <use style="stroke:#000000;" x="251.536669" xlink:href="#mcd4d72efff" y="174.528"/>
     <use style="stroke:#000000;" x="251.58462" xlink:href="#mcd4d72efff" y="174.528"/>
     <use style="stroke:#000000;" x="250.596497" xlink:href="#mcd4d72efff" y="174.031394"/>
     <use style="stroke:#000000;" x="236.16" xlink:href="#mcd4d72efff" y="141.50398"/>
     <use style="stroke:#000000;" x="236.16" xlink:href="#mcd4d72efff" y="141.954554"/>
     <use style="stroke:#000000;" x="236.172226" xlink:href="#mcd4d72efff" y="141.422369"/>
     <use style="stroke:#000000;" x="236.16" xlink:href="#mcd4d72efff" y="173.094309"/>
     <use style="stroke:#000000;" x="238.622853" xlink:href="#mcd4d72efff" y="173.287186"/>
     <use style="stroke:#000000;" x="236.16" xlink:href="#mcd4d72efff" y="173.538451"/>
     <use style="stroke:#000000;" x="237.783601" xlink:href="#mcd4d72efff" y="148.516325"/>
     <use style="stroke:#000000;" x="236.16" xlink:href="#mcd4d72efff" y="148.301665"/>
     <use style="stroke:#000000;" x="237.245666" xlink:href="#mcd4d72efff" y="149.488989"/>
     <use style="stroke:#000000;" x="237.136964" xlink:href="#mcd4d72efff" y="171.071356"/>
     <use style="stroke:#000000;" x="236.203746" xlink:href="#mcd4d72efff" y="172.049401"/>
     <use style="stroke:#000000;" x="237.093496" xlink:href="#mcd4d72efff" y="172.25758"/>
     <use style="stroke:#000000;" x="238.714048" xlink:href="#mcd4d72efff" y="145.830249"/>
     <use style="stroke:#000000;" x="236.20036" xlink:href="#mcd4d72efff" y="146.779898"/>
     <use style="stroke:#000000;" x="236.16" xlink:href="#mcd4d72efff" y="146.096032"/>
     <use style="stroke:#000000;" x="236.16" xlink:href="#mcd4d72efff" y="134.924853"/>
     <use style="stroke:#000000;" x="236.276438" xlink:href="#mcd4d72efff" y="134.6112"/>
     <use style="stroke:#000000;" x="236.16" xlink:href="#mcd4d72efff" y="134.6112"/>
     <use style="stroke:#000000;" x="256.81197" xlink:href="#mcd4d72efff" y="174.440374"/>
     <use style="stroke:#000000;" x="258.818479" xlink:href="#mcd4d72efff" y="174.193424"/>
     <use style="stroke:#000000;" x="258.13232" xlink:href="#mcd4d72efff" y="174.528"/>
     <use style="stroke:#000000;" x="245.784589" xlink:href="#mcd4d72efff" y="174.528"/>
     <use style="stroke:#000000;" x="244.273934" xlink:href="#mcd4d72efff" y="174.145562"/>
     <use style="stroke:#000000;" x="242.110735" xlink:href="#mcd4d72efff" y="174.528"/>
     <use style="stroke:#000000;" x="237.676332" xlink:href="#mcd4d72efff" y="145.953759"/>
     <use style="stroke:#000000;" x="239.474616" xlink:href="#mcd4d72efff" y="146.198688"/>
     <use style="stroke:#000000;" x="236.889697" xlink:href="#mcd4d72efff" y="146.480506"/>
     <use style="stroke:#000000;" x="240.310308" xlink:href="#mcd4d72efff" y="174.171314"/>
     <use style="stroke:#000000;" x="243.625284" xlink:href="#mcd4d72efff" y="173.962816"/>
     <use style="stroke:#000000;" x="241.06526" xlink:href="#mcd4d72efff" y="174.354536"/>
     <use style="stroke:#000000;" x="236.16" xlink:href="#mcd4d72efff" y="148.751413"/>
     <use style="stroke:#000000;" x="236.16" xlink:href="#mcd4d72efff" y="148.657747"/>
     <use style="stroke:#000000;" x="246.735438" xlink:href="#mcd4d72efff" y="174.528"/>
     <use style="stroke:#000000;" x="245.236781" xlink:href="#mcd4d72efff" y="174.315319"/>
     <use style="stroke:#000000;" x="237.45155" xlink:href="#mcd4d72efff" y="174.219461"/>
     <use style="stroke:#000000;" x="239.822312" xlink:href="#mcd4d72efff" y="173.685141"/>
     <use style="stroke:#000000;" x="239.568813" xlink:href="#mcd4d72efff" y="134.849604"/>
     <use style="stroke:#000000;" x="236.16" xlink:href="#mcd4d72efff" y="135.100533"/>
     <use style="stroke:#000000;" x="236.16" xlink:href="#mcd4d72efff" y="174.443256"/>
     <use style="stroke:#000000;" x="236.980903" xlink:href="#mcd4d72efff" y="174.455512"/>
     <use style="stroke:#000000;" x="325.44" xlink:href="#mcd4d72efff" y="138.252457"/>
     <use style="stroke:#000000;" x="325.44" xlink:href="#mcd4d72efff" y="138.568049"/>
     <use style="stroke:#000000;" x="237.186784" xlink:href="#mcd4d72efff" y="172.279022"/>
     <use style="stroke:#000000;" x="236.16" xlink:href="#mcd4d72efff" y="171.276403"/>
     <use style="stroke:#000000;" x="236.16" xlink:href="#mcd4d72efff" y="173.482985"/>
     <use style="stroke:#000000;" x="236.16" xlink:href="#mcd4d72efff" y="174.528"/>
     <use style="stroke:#000000;" x="249.554125" xlink:href="#mcd4d72efff" y="174.528"/>
     <use style="stroke:#000000;" x="255.628492" xlink:href="#mcd4d72efff" y="174.528"/>
     <use style="stroke:#000000;" x="249.898733" xlink:href="#mcd4d72efff" y="174.528"/>
     <use style="stroke:#000000;" x="240.269586" xlink:href="#mcd4d72efff" y="173.489354"/>
     <use style="stroke:#000000;" x="237.812408" xlink:href="#mcd4d72efff" y="135.402107"/>
     <use style="stroke:#000000;" x="241.947213" xlink:href="#mcd4d72efff" y="147.608123"/>
     <use style="stroke:#000000;" x="243.762771" xlink:href="#mcd4d72efff" y="134.6112"/>
     <use style="stroke:#000000;" x="236.16" xlink:href="#mcd4d72efff" y="174.528"/>
     <use style="stroke:#000000;" x="237.468586" xlink:href="#mcd4d72efff" y="134.6112"/>
     <use style="stroke:#000000;" x="238.007775" xlink:href="#mcd4d72efff" y="134.766064"/>
     <use style="stroke:#000000;" x="240.150859" xlink:href="#mcd4d72efff" y="174.528"/>
     <use style="stroke:#000000;" x="236.16" xlink:href="#mcd4d72efff" y="174.528"/>
     <use style="stroke:#000000;" x="240.632086" xlink:href="#mcd4d72efff" y="174.528"/>
     <use style="stroke:#000000;" x="236.16" xlink:href="#mcd4d72efff" y="138.740598"/>
     <use style="stroke:#000000;" x="239.286134" xlink:href="#mcd4d72efff" y="174.528"/>
     <use style="stroke:#000000;" x="236.16" xlink:href="#mcd4d72efff" y="134.6112"/>
     <use style="stroke:#000000;" x="325.44" xlink:href="#mcd4d72efff" y="138.70829"/>
     <use style="stroke:#000000;" x="325.44" xlink:href="#mcd4d72efff" y="139.846137"/>
     <use style="stroke:#000000;" x="255.454466" xlink:href="#mcd4d72efff" y="174.528"/>
     <use style="stroke:#000000;" x="236.16" xlink:href="#mcd4d72efff" y="151.015736"/>
     <use style="stroke:#000000;" x="236.292221" xlink:href="#mcd4d72efff" y="153.578017"/>
     <use style="stroke:#000000;" x="237.061571" xlink:href="#mcd4d72efff" y="134.6112"/>
     <use style="stroke:#000000;" x="243.235247" xlink:href="#mcd4d72efff" y="174.528"/>
     <use style="stroke:#000000;" x="244.707539" xlink:href="#mcd4d72efff" y="174.528"/>
     <use style="stroke:#000000;" x="246.585948" xlink:href="#mcd4d72efff" y="174.514637"/>
     <use style="stroke:#000000;" x="244.358864" xlink:href="#mcd4d72efff" y="173.276035"/>
     <use style="stroke:#000000;" x="236.16" xlink:href="#mcd4d72efff" y="148.246649"/>
     <use style="stroke:#000000;" x="236.16" xlink:href="#mcd4d72efff" y="174.528"/>
     <use style="stroke:#000000;" x="236.16" xlink:href="#mcd4d72efff" y="173.238916"/>
     <use style="stroke:#000000;" x="237.940411" xlink:href="#mcd4d72efff" y="167.651038"/>
     <use style="stroke:#000000;" x="238.919884" xlink:href="#mcd4d72efff" y="166.698458"/>
     <use style="stroke:#000000;" x="236.16" xlink:href="#mcd4d72efff" y="137.476793"/>
     <use style="stroke:#000000;" x="238.774756" xlink:href="#mcd4d72efff" y="136.347506"/>
     <use style="stroke:#000000;" x="249.893803" xlink:href="#mcd4d72efff" y="174.528"/>
     <use style="stroke:#000000;" x="281.37656" xlink:href="#mcd4d72efff" y="174.528"/>
     <use style="stroke:#000000;" x="241.003817" xlink:href="#mcd4d72efff" y="174.528"/>
     <use style="stroke:#000000;" x="245.902001" xlink:href="#mcd4d72efff" y="174.528"/>
     <use style="stroke:#000000;" x="247.561057" xlink:href="#mcd4d72efff" y="174.051814"/>
     <use style="stroke:#000000;" x="277.823723" xlink:href="#mcd4d72efff" y="172.482358"/>
     <use style="stroke:#000000;" x="274.200146" xlink:href="#mcd4d72efff" y="174.27257"/>
     <use style="stroke:#000000;" x="236.16" xlink:href="#mcd4d72efff" y="138.080031"/>
     <use style="stroke:#000000;" x="236.16" xlink:href="#mcd4d72efff" y="138.222006"/>
     <use style="stroke:#000000;" x="236.16" xlink:href="#mcd4d72efff" y="155.467627"/>
     <use style="stroke:#000000;" x="236.498905" xlink:href="#mcd4d72efff" y="153.694248"/>
     <use style="stroke:#000000;" x="237.467194" xlink:href="#mcd4d72efff" y="173.607932"/>
     <use style="stroke:#000000;" x="237.234649" xlink:href="#mcd4d72efff" y="174.046094"/>
     <use style="stroke:#000000;" x="277.850752" xlink:href="#mcd4d72efff" y="174.045908"/>
     <use style="stroke:#000000;" x="279.229357" xlink:href="#mcd4d72efff" y="174.320096"/>
     <use style="stroke:#000000;" x="239.89419" xlink:href="#mcd4d72efff" y="151.477308"/>
     <use style="stroke:#000000;" x="236.852605" xlink:href="#mcd4d72efff" y="151.949895"/>
     <use style="stroke:#000000;" x="236.16" xlink:href="#mcd4d72efff" y="134.631255"/>
     <use style="stroke:#000000;" x="237.346383" xlink:href="#mcd4d72efff" y="134.6112"/>
     <use style="stroke:#000000;" x="277.015973" xlink:href="#mcd4d72efff" y="174.152952"/>
     <use style="stroke:#000000;" x="274.302948" xlink:href="#mcd4d72efff" y="174.528"/>
     <use style="stroke:#000000;" x="325.182914" xlink:href="#mcd4d72efff" y="137.409037"/>
     <use style="stroke:#000000;" x="325.44" xlink:href="#mcd4d72efff" y="140.880048"/>
     <use style="stroke:#000000;" x="240.957596" xlink:href="#mcd4d72efff" y="174.528"/>
     <use style="stroke:#000000;" x="243.004558" xlink:href="#mcd4d72efff" y="174.528"/>
    </g>
   </g>
   <g id="PathCollection_2">
    <defs>
     <path d="M 0 0.935414 
C 0.248075 0.935414 0.486022 0.836853 0.661438 0.661438 
C 0.836853 0.486022 0.935414 0.248075 0.935414 0 
C 0.935414 -0.248075 0.836853 -0.486022 0.661438 -0.661438 
C 0.486022 -0.836853 0.248075 -0.935414 0 -0.935414 
C -0.248075 -0.935414 -0.486022 -0.836853 -0.661438 -0.661438 
C -0.836853 -0.486022 -0.935414 -0.248075 -0.935414 0 
C -0.935414 0.248075 -0.836853 0.486022 -0.661438 0.661438 
C -0.486022 0.836853 -0.248075 0.935414 0 0.935414 
z
" id="m927417ac9c" style="stroke:#0000ff;"/>
    </defs>
    <g clip-path="url(#p9de6a7bee2)">
     <use style="fill:#0000ff;stroke:#0000ff;" x="325.44" xlink:href="#m927417ac9c" y="134.6112"/>
     <use style="fill:#0000ff;stroke:#0000ff;" x="236.16" xlink:href="#m927417ac9c" y="174.528"/>
     <use style="fill:#0000ff;stroke:#0000ff;" x="236.16" xlink:href="#m927417ac9c" y="162.675876"/>
     <use style="fill:#0000ff;stroke:#0000ff;" x="236.16" xlink:href="#m927417ac9c" y="136.150065"/>
     <use style="fill:#0000ff;stroke:#0000ff;" x="242.637057" xlink:href="#m927417ac9c" y="174.528"/>
     <use style="fill:#0000ff;stroke:#0000ff;" x="237.831439" xlink:href="#m927417ac9c" y="174.528"/>
     <use style="fill:#0000ff;stroke:#0000ff;" x="250.158838" xlink:href="#m927417ac9c" y="174.528"/>
     <use style="fill:#0000ff;stroke:#0000ff;" x="236.16" xlink:href="#m927417ac9c" y="134.825984"/>
     <use style="fill:#0000ff;stroke:#0000ff;" x="244.271901" xlink:href="#m927417ac9c" y="174.528"/>
     <use style="fill:#0000ff;stroke:#0000ff;" x="237.725947" xlink:href="#m927417ac9c" y="174.528"/>
     <use style="fill:#0000ff;stroke:#0000ff;" x="236.16" xlink:href="#m927417ac9c" y="134.6112"/>
     <use style="fill:#0000ff;stroke:#0000ff;" x="240.709652" xlink:href="#m927417ac9c" y="174.528"/>
     <use style="fill:#0000ff;stroke:#0000ff;" x="236.16" xlink:href="#m927417ac9c" y="173.445206"/>
     <use style="fill:#0000ff;stroke:#0000ff;" x="246.878073" xlink:href="#m927417ac9c" y="174.528"/>
     <use style="fill:#0000ff;stroke:#0000ff;" x="246.161321" xlink:href="#m927417ac9c" y="174.528"/>
     <use style="fill:#0000ff;stroke:#0000ff;" x="236.16" xlink:href="#m927417ac9c" y="162.13111"/>
     <use style="fill:#0000ff;stroke:#0000ff;" x="256.171105" xlink:href="#m927417ac9c" y="174.528"/>
     <use style="fill:#0000ff;stroke:#0000ff;" x="236.542571" xlink:href="#m927417ac9c" y="150.556603"/>
     <use style="fill:#0000ff;stroke:#0000ff;" x="261.287402" xlink:href="#m927417ac9c" y="174.528"/>
     <use style="fill:#0000ff;stroke:#0000ff;" x="236.16" xlink:href="#m927417ac9c" y="174.528"/>
     <use style="fill:#0000ff;stroke:#0000ff;" x="236.16" xlink:href="#m927417ac9c" y="172.994832"/>
     <use style="fill:#0000ff;stroke:#0000ff;" x="251.389414" xlink:href="#m927417ac9c" y="174.528"/>
     <use style="fill:#0000ff;stroke:#0000ff;" x="236.16" xlink:href="#m927417ac9c" y="141.821472"/>
     <use style="fill:#0000ff;stroke:#0000ff;" x="236.16" xlink:href="#m927417ac9c" y="173.122876"/>
     <use style="fill:#0000ff;stroke:#0000ff;" x="236.16" xlink:href="#m927417ac9c" y="148.502471"/>
     <use style="fill:#0000ff;stroke:#0000ff;" x="236.16" xlink:href="#m927417ac9c" y="172.0473"/>
     <use style="fill:#0000ff;stroke:#0000ff;" x="236.16" xlink:href="#m927417ac9c" y="146.449317"/>
     <use style="fill:#0000ff;stroke:#0000ff;" x="236.16" xlink:href="#m927417ac9c" y="134.656174"/>
     <use style="fill:#0000ff;stroke:#0000ff;" x="258.495977" xlink:href="#m927417ac9c" y="174.528"/>
     <use style="fill:#0000ff;stroke:#0000ff;" x="243.448102" xlink:href="#m927417ac9c" y="174.528"/>
     <use style="fill:#0000ff;stroke:#0000ff;" x="236.16" xlink:href="#m927417ac9c" y="146.281146"/>
     <use style="fill:#0000ff;stroke:#0000ff;" x="242.064813" xlink:href="#m927417ac9c" y="174.528"/>
     <use style="fill:#0000ff;stroke:#0000ff;" x="236.16" xlink:href="#m927417ac9c" y="148.083228"/>
     <use style="fill:#0000ff;stroke:#0000ff;" x="245.320941" xlink:href="#m927417ac9c" y="174.528"/>
     <use style="fill:#0000ff;stroke:#0000ff;" x="238.184095" xlink:href="#m927417ac9c" y="174.528"/>
     <use style="fill:#0000ff;stroke:#0000ff;" x="236.16" xlink:href="#m927417ac9c" y="135.017559"/>
     <use style="fill:#0000ff;stroke:#0000ff;" x="237.387688" xlink:href="#m927417ac9c" y="174.528"/>
     <use style="fill:#0000ff;stroke:#0000ff;" x="325.44" xlink:href="#m927417ac9c" y="138.310533"/>
     <use style="fill:#0000ff;stroke:#0000ff;" x="236.16" xlink:href="#m927417ac9c" y="171.869261"/>
     <use style="fill:#0000ff;stroke:#0000ff;" x="236.16" xlink:href="#m927417ac9c" y="174.528"/>
     <use style="fill:#0000ff;stroke:#0000ff;" x="248.046627" xlink:href="#m927417ac9c" y="174.528"/>
     <use style="fill:#0000ff;stroke:#0000ff;" x="251.253069" xlink:href="#m927417ac9c" y="174.528"/>
     <use style="fill:#0000ff;stroke:#0000ff;" x="249.836413" xlink:href="#m927417ac9c" y="174.528"/>
     <use style="fill:#0000ff;stroke:#0000ff;" x="236.16" xlink:href="#m927417ac9c" y="174.528"/>
     <use style="fill:#0000ff;stroke:#0000ff;" x="236.16" xlink:href="#m927417ac9c" y="136.72315"/>
     <use style="fill:#0000ff;stroke:#0000ff;" x="236.16" xlink:href="#m927417ac9c" y="147.126008"/>
     <use style="fill:#0000ff;stroke:#0000ff;" x="238.402037" xlink:href="#m927417ac9c" y="134.6112"/>
     <use style="fill:#0000ff;stroke:#0000ff;" x="236.240311" xlink:href="#m927417ac9c" y="174.528"/>
     <use style="fill:#0000ff;stroke:#0000ff;" x="236.685088" xlink:href="#m927417ac9c" y="134.6112"/>
     <use style="fill:#0000ff;stroke:#0000ff;" x="236.16" xlink:href="#m927417ac9c" y="173.859459"/>
     <use style="fill:#0000ff;stroke:#0000ff;" x="237.596597" xlink:href="#m927417ac9c" y="174.528"/>
     <use style="fill:#0000ff;stroke:#0000ff;" x="243.022742" xlink:href="#m927417ac9c" y="174.528"/>
     <use style="fill:#0000ff;stroke:#0000ff;" x="236.16" xlink:href="#m927417ac9c" y="139.092942"/>
     <use style="fill:#0000ff;stroke:#0000ff;" x="242.388537" xlink:href="#m927417ac9c" y="174.528"/>
     <use style="fill:#0000ff;stroke:#0000ff;" x="236.16" xlink:href="#m927417ac9c" y="134.962501"/>
     <use style="fill:#0000ff;stroke:#0000ff;" x="325.44" xlink:href="#m927417ac9c" y="139.496649"/>
     <use style="fill:#0000ff;stroke:#0000ff;" x="256.32988" xlink:href="#m927417ac9c" y="174.528"/>
     <use style="fill:#0000ff;stroke:#0000ff;" x="236.16" xlink:href="#m927417ac9c" y="151.343823"/>
     <use style="fill:#0000ff;stroke:#0000ff;" x="236.16" xlink:href="#m927417ac9c" y="153.175427"/>
     <use style="fill:#0000ff;stroke:#0000ff;" x="236.16" xlink:href="#m927417ac9c" y="134.6112"/>
     <use style="fill:#0000ff;stroke:#0000ff;" x="243.794645" xlink:href="#m927417ac9c" y="174.528"/>
     <use style="fill:#0000ff;stroke:#0000ff;" x="246.140601" xlink:href="#m927417ac9c" y="174.528"/>
     <use style="fill:#0000ff;stroke:#0000ff;" x="236.16" xlink:href="#m927417ac9c" y="148.184735"/>
     <use style="fill:#0000ff;stroke:#0000ff;" x="236.16" xlink:href="#m927417ac9c" y="174.136971"/>
     <use style="fill:#0000ff;stroke:#0000ff;" x="236.16" xlink:href="#m927417ac9c" y="167.248278"/>
     <use style="fill:#0000ff;stroke:#0000ff;" x="236.16" xlink:href="#m927417ac9c" y="136.108592"/>
     <use style="fill:#0000ff;stroke:#0000ff;" x="246.398397" xlink:href="#m927417ac9c" y="174.528"/>
     <use style="fill:#0000ff;stroke:#0000ff;" x="280.040172" xlink:href="#m927417ac9c" y="174.528"/>
     <use style="fill:#0000ff;stroke:#0000ff;" x="242.111589" xlink:href="#m927417ac9c" y="174.528"/>
     <use style="fill:#0000ff;stroke:#0000ff;" x="246.268331" xlink:href="#m927417ac9c" y="174.528"/>
     <use style="fill:#0000ff;stroke:#0000ff;" x="277.693906" xlink:href="#m927417ac9c" y="174.528"/>
     <use style="fill:#0000ff;stroke:#0000ff;" x="236.16" xlink:href="#m927417ac9c" y="137.664119"/>
     <use style="fill:#0000ff;stroke:#0000ff;" x="236.275133" xlink:href="#m927417ac9c" y="154.34593"/>
     <use style="fill:#0000ff;stroke:#0000ff;" x="236.16" xlink:href="#m927417ac9c" y="174.293596"/>
     <use style="fill:#0000ff;stroke:#0000ff;" x="279.138939" xlink:href="#m927417ac9c" y="174.528"/>
     <use style="fill:#0000ff;stroke:#0000ff;" x="236.545217" xlink:href="#m927417ac9c" y="151.070108"/>
     <use style="fill:#0000ff;stroke:#0000ff;" x="236.16" xlink:href="#m927417ac9c" y="134.6112"/>
     <use style="fill:#0000ff;stroke:#0000ff;" x="275.760379" xlink:href="#m927417ac9c" y="174.258346"/>
     <use style="fill:#0000ff;stroke:#0000ff;" x="324.676795" xlink:href="#m927417ac9c" y="139.888841"/>
     <use style="fill:#0000ff;stroke:#0000ff;" x="242.587663" xlink:href="#m927417ac9c" y="174.528"/>
    </g>
   </g>
   <g id="matplotlib.axis_1">
    <g id="xtick_1">
     <g id="line2d_1">
      <defs>
       <path d="M 0 0 
L 0 3.5 
" id="m57cc1e24b2" style="stroke:#000000;stroke-width:0.8;"/>
      </defs>
      <g>
       <use style="stroke:#000000;stroke-width:0.8;" x="57.6" xlink:href="#m57cc1e24b2" y="307.584"/>
      </g>
     </g>
     <g id="text_1">
      <!-- −10.0 -->
      <defs>
       <path d="M 10.59375 35.5 
L 73.1875 35.5 
L 73.1875 27.203125 
L 10.59375 27.203125 
z
" id="DejaVuSans-2212"/>
       <path d="M 12.40625 8.296875 
L 28.515625 8.296875 
L 28.515625 63.921875 
L 10.984375 60.40625 
L 10.984375 69.390625 
L 28.421875 72.90625 
L 38.28125 72.90625 
L 38.28125 8.296875 
L 54.390625 8.296875 
L 54.390625 0 
L 12.40625 0 
z
" id="DejaVuSans-31"/>
       <path d="M 31.78125 66.40625 
Q 24.171875 66.40625 20.328125 58.90625 
Q 16.5 51.421875 16.5 36.375 
Q 16.5 21.390625 20.328125 13.890625 
Q 24.171875 6.390625 31.78125 6.390625 
Q 39.453125 6.390625 43.28125 13.890625 
Q 47.125 21.390625 47.125 36.375 
Q 47.125 51.421875 43.28125 58.90625 
Q 39.453125 66.40625 31.78125 66.40625 
z
M 31.78125 74.21875 
Q 44.046875 74.21875 50.515625 64.515625 
Q 56.984375 54.828125 56.984375 36.375 
Q 56.984375 17.96875 50.515625 8.265625 
Q 44.046875 -1.421875 31.78125 -1.421875 
Q 19.53125 -1.421875 13.0625 8.265625 
Q 6.59375 17.96875 6.59375 36.375 
Q 6.59375 54.828125 13.0625 64.515625 
Q 19.53125 74.21875 31.78125 74.21875 
z
" id="DejaVuSans-30"/>
       <path d="M 10.6875 12.40625 
L 21 12.40625 
L 21 0 
L 10.6875 0 
z
" id="DejaVuSans-2e"/>
      </defs>
      <g transform="translate(42.277344 322.182437)scale(0.1 -0.1)">
       <use xlink:href="#DejaVuSans-2212"/>
       <use x="83.789062" xlink:href="#DejaVuSans-31"/>
       <use x="147.412109" xlink:href="#DejaVuSans-30"/>
       <use x="211.035156" xlink:href="#DejaVuSans-2e"/>
       <use x="242.822266" xlink:href="#DejaVuSans-30"/>
      </g>
     </g>
    </g>
    <g id="xtick_2">
     <g id="line2d_2">
      <g>
       <use style="stroke:#000000;stroke-width:0.8;" x="102.24" xlink:href="#m57cc1e24b2" y="307.584"/>
      </g>
     </g>
     <g id="text_2">
      <!-- −7.5 -->
      <defs>
       <path d="M 8.203125 72.90625 
L 55.078125 72.90625 
L 55.078125 68.703125 
L 28.609375 0 
L 18.3125 0 
L 43.21875 64.59375 
L 8.203125 64.59375 
z
" id="DejaVuSans-37"/>
       <path d="M 10.796875 72.90625 
L 49.515625 72.90625 
L 49.515625 64.59375 
L 19.828125 64.59375 
L 19.828125 46.734375 
Q 21.96875 47.46875 24.109375 47.828125 
Q 26.265625 48.1875 28.421875 48.1875 
Q 40.625 48.1875 47.75 41.5 
Q 54.890625 34.8125 54.890625 23.390625 
Q 54.890625 11.625 47.5625 5.09375 
Q 40.234375 -1.421875 26.90625 -1.421875 
Q 22.3125 -1.421875 17.546875 -0.640625 
Q 12.796875 0.140625 7.71875 1.703125 
L 7.71875 11.625 
Q 12.109375 9.234375 16.796875 8.0625 
Q 21.484375 6.890625 26.703125 6.890625 
Q 35.15625 6.890625 40.078125 11.328125 
Q 45.015625 15.765625 45.015625 23.390625 
Q 45.015625 31 40.078125 35.4375 
Q 35.15625 39.890625 26.703125 39.890625 
Q 22.75 39.890625 18.8125 39.015625 
Q 14.890625 38.140625 10.796875 36.28125 
z
" id="DejaVuSans-35"/>
      </defs>
      <g transform="translate(90.098594 322.182437)scale(0.1 -0.1)">
       <use xlink:href="#DejaVuSans-2212"/>
       <use x="83.789062" xlink:href="#DejaVuSans-37"/>
       <use x="147.412109" xlink:href="#DejaVuSans-2e"/>
       <use x="179.199219" xlink:href="#DejaVuSans-35"/>
      </g>
     </g>
    </g>
    <g id="xtick_3">
     <g id="line2d_3">
      <g>
       <use style="stroke:#000000;stroke-width:0.8;" x="146.88" xlink:href="#m57cc1e24b2" y="307.584"/>
      </g>
     </g>
     <g id="text_3">
      <!-- −5.0 -->
      <g transform="translate(134.738594 322.182437)scale(0.1 -0.1)">
       <use xlink:href="#DejaVuSans-2212"/>
       <use x="83.789062" xlink:href="#DejaVuSans-35"/>
       <use x="147.412109" xlink:href="#DejaVuSans-2e"/>
       <use x="179.199219" xlink:href="#DejaVuSans-30"/>
      </g>
     </g>
    </g>
    <g id="xtick_4">
     <g id="line2d_4">
      <g>
       <use style="stroke:#000000;stroke-width:0.8;" x="191.52" xlink:href="#m57cc1e24b2" y="307.584"/>
      </g>
     </g>
     <g id="text_4">
      <!-- −2.5 -->
      <defs>
       <path d="M 19.1875 8.296875 
L 53.609375 8.296875 
L 53.609375 0 
L 7.328125 0 
L 7.328125 8.296875 
Q 12.9375 14.109375 22.625 23.890625 
Q 32.328125 33.6875 34.8125 36.53125 
Q 39.546875 41.84375 41.421875 45.53125 
Q 43.3125 49.21875 43.3125 52.78125 
Q 43.3125 58.59375 39.234375 62.25 
Q 35.15625 65.921875 28.609375 65.921875 
Q 23.96875 65.921875 18.8125 64.3125 
Q 13.671875 62.703125 7.8125 59.421875 
L 7.8125 69.390625 
Q 13.765625 71.78125 18.9375 73 
Q 24.125 74.21875 28.421875 74.21875 
Q 39.75 74.21875 46.484375 68.546875 
Q 53.21875 62.890625 53.21875 53.421875 
Q 53.21875 48.921875 51.53125 44.890625 
Q 49.859375 40.875 45.40625 35.40625 
Q 44.1875 33.984375 37.640625 27.21875 
Q 31.109375 20.453125 19.1875 8.296875 
z
" id="DejaVuSans-32"/>
      </defs>
      <g transform="translate(179.378594 322.182437)scale(0.1 -0.1)">
       <use xlink:href="#DejaVuSans-2212"/>
       <use x="83.789062" xlink:href="#DejaVuSans-32"/>
       <use x="147.412109" xlink:href="#DejaVuSans-2e"/>
       <use x="179.199219" xlink:href="#DejaVuSans-35"/>
      </g>
     </g>
    </g>
    <g id="xtick_5">
     <g id="line2d_5">
      <g>
       <use style="stroke:#000000;stroke-width:0.8;" x="236.16" xlink:href="#m57cc1e24b2" y="307.584"/>
      </g>
     </g>
     <g id="text_5">
      <!-- 0.0 -->
      <g transform="translate(228.208438 322.182437)scale(0.1 -0.1)">
       <use xlink:href="#DejaVuSans-30"/>
       <use x="63.623047" xlink:href="#DejaVuSans-2e"/>
       <use x="95.410156" xlink:href="#DejaVuSans-30"/>
      </g>
     </g>
    </g>
    <g id="xtick_6">
     <g id="line2d_6">
      <g>
       <use style="stroke:#000000;stroke-width:0.8;" x="280.8" xlink:href="#m57cc1e24b2" y="307.584"/>
      </g>
     </g>
     <g id="text_6">
      <!-- 2.5 -->
      <g transform="translate(272.848437 322.182437)scale(0.1 -0.1)">
       <use xlink:href="#DejaVuSans-32"/>
       <use x="63.623047" xlink:href="#DejaVuSans-2e"/>
       <use x="95.410156" xlink:href="#DejaVuSans-35"/>
      </g>
     </g>
    </g>
    <g id="xtick_7">
     <g id="line2d_7">
      <g>
       <use style="stroke:#000000;stroke-width:0.8;" x="325.44" xlink:href="#m57cc1e24b2" y="307.584"/>
      </g>
     </g>
     <g id="text_7">
      <!-- 5.0 -->
      <g transform="translate(317.488437 322.182437)scale(0.1 -0.1)">
       <use xlink:href="#DejaVuSans-35"/>
       <use x="63.623047" xlink:href="#DejaVuSans-2e"/>
       <use x="95.410156" xlink:href="#DejaVuSans-30"/>
      </g>
     </g>
    </g>
    <g id="xtick_8">
     <g id="line2d_8">
      <g>
       <use style="stroke:#000000;stroke-width:0.8;" x="370.08" xlink:href="#m57cc1e24b2" y="307.584"/>
      </g>
     </g>
     <g id="text_8">
      <!-- 7.5 -->
      <g transform="translate(362.128438 322.182437)scale(0.1 -0.1)">
       <use xlink:href="#DejaVuSans-37"/>
       <use x="63.623047" xlink:href="#DejaVuSans-2e"/>
       <use x="95.410156" xlink:href="#DejaVuSans-35"/>
      </g>
     </g>
    </g>
    <g id="xtick_9">
     <g id="line2d_9">
      <g>
       <use style="stroke:#000000;stroke-width:0.8;" x="414.72" xlink:href="#m57cc1e24b2" y="307.584"/>
      </g>
     </g>
     <g id="text_9">
      <!-- 10.0 -->
      <g transform="translate(403.587188 322.182437)scale(0.1 -0.1)">
       <use xlink:href="#DejaVuSans-31"/>
       <use x="63.623047" xlink:href="#DejaVuSans-30"/>
       <use x="127.246094" xlink:href="#DejaVuSans-2e"/>
       <use x="159.033203" xlink:href="#DejaVuSans-30"/>
      </g>
     </g>
    </g>
   </g>
   <g id="matplotlib.axis_2">
    <g id="ytick_1">
     <g id="line2d_10">
      <defs>
       <path d="M 0 0 
L -3.5 0 
" id="m385c923635" style="stroke:#000000;stroke-width:0.8;"/>
      </defs>
      <g>
       <use style="stroke:#000000;stroke-width:0.8;" x="57.6" xlink:href="#m385c923635" y="307.584"/>
      </g>
     </g>
     <g id="text_10">
      <!-- −10.0 -->
      <g transform="translate(19.954687 311.383219)scale(0.1 -0.1)">
       <use xlink:href="#DejaVuSans-2212"/>
       <use x="83.789062" xlink:href="#DejaVuSans-31"/>
       <use x="147.412109" xlink:href="#DejaVuSans-30"/>
       <use x="211.035156" xlink:href="#DejaVuSans-2e"/>
       <use x="242.822266" xlink:href="#DejaVuSans-30"/>
      </g>
     </g>
    </g>
    <g id="ytick_2">
     <g id="line2d_11">
      <g>
       <use style="stroke:#000000;stroke-width:0.8;" x="57.6" xlink:href="#m385c923635" y="274.32"/>
      </g>
     </g>
     <g id="text_11">
      <!-- −7.5 -->
      <g transform="translate(26.317187 278.119219)scale(0.1 -0.1)">
       <use xlink:href="#DejaVuSans-2212"/>
       <use x="83.789062" xlink:href="#DejaVuSans-37"/>
       <use x="147.412109" xlink:href="#DejaVuSans-2e"/>
       <use x="179.199219" xlink:href="#DejaVuSans-35"/>
      </g>
     </g>
    </g>
    <g id="ytick_3">
     <g id="line2d_12">
      <g>
       <use style="stroke:#000000;stroke-width:0.8;" x="57.6" xlink:href="#m385c923635" y="241.056"/>
      </g>
     </g>
     <g id="text_12">
      <!-- −5.0 -->
      <g transform="translate(26.317187 244.855219)scale(0.1 -0.1)">
       <use xlink:href="#DejaVuSans-2212"/>
       <use x="83.789062" xlink:href="#DejaVuSans-35"/>
       <use x="147.412109" xlink:href="#DejaVuSans-2e"/>
       <use x="179.199219" xlink:href="#DejaVuSans-30"/>
      </g>
     </g>
    </g>
    <g id="ytick_4">
     <g id="line2d_13">
      <g>
       <use style="stroke:#000000;stroke-width:0.8;" x="57.6" xlink:href="#m385c923635" y="207.792"/>
      </g>
     </g>
     <g id="text_13">
      <!-- −2.5 -->
      <g transform="translate(26.317187 211.591219)scale(0.1 -0.1)">
       <use xlink:href="#DejaVuSans-2212"/>
       <use x="83.789062" xlink:href="#DejaVuSans-32"/>
       <use x="147.412109" xlink:href="#DejaVuSans-2e"/>
       <use x="179.199219" xlink:href="#DejaVuSans-35"/>
      </g>
     </g>
    </g>
    <g id="ytick_5">
     <g id="line2d_14">
      <g>
       <use style="stroke:#000000;stroke-width:0.8;" x="57.6" xlink:href="#m385c923635" y="174.528"/>
      </g>
     </g>
     <g id="text_14">
      <!-- 0.0 -->
      <g transform="translate(34.696875 178.327219)scale(0.1 -0.1)">
       <use xlink:href="#DejaVuSans-30"/>
       <use x="63.623047" xlink:href="#DejaVuSans-2e"/>
       <use x="95.410156" xlink:href="#DejaVuSans-30"/>
      </g>
     </g>
    </g>
    <g id="ytick_6">
     <g id="line2d_15">
      <g>
       <use style="stroke:#000000;stroke-width:0.8;" x="57.6" xlink:href="#m385c923635" y="141.264"/>
      </g>
     </g>
     <g id="text_15">
      <!-- 2.5 -->
      <g transform="translate(34.696875 145.063219)scale(0.1 -0.1)">
       <use xlink:href="#DejaVuSans-32"/>
       <use x="63.623047" xlink:href="#DejaVuSans-2e"/>
       <use x="95.410156" xlink:href="#DejaVuSans-35"/>
      </g>
     </g>
    </g>
    <g id="ytick_7">
     <g id="line2d_16">
      <g>
       <use style="stroke:#000000;stroke-width:0.8;" x="57.6" xlink:href="#m385c923635" y="108"/>
      </g>
     </g>
     <g id="text_16">
      <!-- 5.0 -->
      <g transform="translate(34.696875 111.799219)scale(0.1 -0.1)">
       <use xlink:href="#DejaVuSans-35"/>
       <use x="63.623047" xlink:href="#DejaVuSans-2e"/>
       <use x="95.410156" xlink:href="#DejaVuSans-30"/>
      </g>
     </g>
    </g>
    <g id="ytick_8">
     <g id="line2d_17">
      <g>
       <use style="stroke:#000000;stroke-width:0.8;" x="57.6" xlink:href="#m385c923635" y="74.736"/>
      </g>
     </g>
     <g id="text_17">
      <!-- 7.5 -->
      <g transform="translate(34.696875 78.535219)scale(0.1 -0.1)">
       <use xlink:href="#DejaVuSans-37"/>
       <use x="63.623047" xlink:href="#DejaVuSans-2e"/>
       <use x="95.410156" xlink:href="#DejaVuSans-35"/>
      </g>
     </g>
    </g>
    <g id="ytick_9">
     <g id="line2d_18">
      <g>
       <use style="stroke:#000000;stroke-width:0.8;" x="57.6" xlink:href="#m385c923635" y="41.472"/>
      </g>
     </g>
     <g id="text_18">
      <!-- 10.0 -->
      <g transform="translate(28.334375 45.271219)scale(0.1 -0.1)">
       <use xlink:href="#DejaVuSans-31"/>
       <use x="63.623047" xlink:href="#DejaVuSans-30"/>
       <use x="127.246094" xlink:href="#DejaVuSans-2e"/>
       <use x="159.033203" xlink:href="#DejaVuSans-30"/>
      </g>
     </g>
    </g>
   </g>
   <g id="patch_3">
    <path d="M 57.6 307.584 
L 57.6 41.472 
" style="fill:none;stroke:#000000;stroke-linecap:square;stroke-linejoin:miter;stroke-width:0.8;"/>
   </g>
   <g id="patch_4">
    <path d="M 414.72 307.584 
L 414.72 41.472 
" style="fill:none;stroke:#000000;stroke-linecap:square;stroke-linejoin:miter;stroke-width:0.8;"/>
   </g>
   <g id="patch_5">
    <path d="M 57.6 307.584 
L 414.72 307.584 
" style="fill:none;stroke:#000000;stroke-linecap:square;stroke-linejoin:miter;stroke-width:0.8;"/>
   </g>
   <g id="patch_6">
    <path d="M 57.6 41.472 
L 414.72 41.472 
" style="fill:none;stroke:#000000;stroke-linecap:square;stroke-linejoin:miter;stroke-width:0.8;"/>
   </g>
  </g>
 </g>
 <defs>
  <clipPath id="p9de6a7bee2">
   <rect height="266.112" width="357.12" x="57.6" y="41.472"/>
  </clipPath>
 </defs>
</svg>
