<?xml version="1.0" encoding="utf-8" standalone="no"?>
<!DOCTYPE svg PUBLIC "-//W3C//DTD SVG 1.1//EN"
  "http://www.w3.org/Graphics/SVG/1.1/DTD/svg11.dtd">
<!-- Created with matplotlib (http://matplotlib.org/) -->
<svg height="345.6pt" version="1.1" viewBox="0 0 460.8 345.6" width="460.8pt" xmlns="http://www.w3.org/2000/svg" xmlns:xlink="http://www.w3.org/1999/xlink">
 <defs>
  <style type="text/css">
*{stroke-linecap:butt;stroke-linejoin:round;}
  </style>
 </defs>
 <g id="figure_1">
  <g id="patch_1">
   <path d="M 0 345.6 
L 460.8 345.6 
L 460.8 0 
L 0 0 
z
" style="fill:#ffffff;"/>
  </g>
  <g id="axes_1">
   <g id="patch_2">
    <path d="M 57.6 307.584 
L 414.72 307.584 
L 414.72 41.472 
L 57.6 41.472 
z
" style="fill:#ffffff;"/>
   </g>
   <g id="PathCollection_1">
    <defs>
     <path d="M 0 0.612372 
C 0.162403 0.612372 0.318176 0.547849 0.433013 0.433013 
C 0.547849 0.318176 0.612372 0.162403 0.612372 0 
C 0.612372 -0.162403 0.547849 -0.318176 0.433013 -0.433013 
C 0.318176 -0.547849 0.162403 -0.612372 0 -0.612372 
C -0.162403 -0.612372 -0.318176 -0.547849 -0.433013 -0.433013 
C -0.547849 -0.318176 -0.612372 -0.162403 -0.612372 0 
C -0.612372 0.162403 -0.547849 0.318176 -0.433013 0.433013 
C -0.318176 0.547849 -0.162403 0.612372 0 0.612372 
z
" id="m8d864125ee" style="stroke:#000000;"/>
    </defs>
    <g clip-path="url(#pa4b0f2e76e)">
     <use style="stroke:#000000;" x="236.975796" xlink:href="#m8d864125ee" y="174.52355"/>
     <use style="stroke:#000000;" x="247.442513" xlink:href="#m8d864125ee" y="174.215555"/>
     <use style="stroke:#000000;" x="239.709456" xlink:href="#m8d864125ee" y="173.444148"/>
     <use style="stroke:#000000;" x="236.807989" xlink:href="#m8d864125ee" y="174.528"/>
     <use style="stroke:#000000;" x="236.641085" xlink:href="#m8d864125ee" y="174.391385"/>
     <use style="stroke:#000000;" x="236.579523" xlink:href="#m8d864125ee" y="174.460446"/>
     <use style="stroke:#000000;" x="251.173294" xlink:href="#m8d864125ee" y="173.914731"/>
     <use style="stroke:#000000;" x="239.776627" xlink:href="#m8d864125ee" y="173.521615"/>
     <use style="stroke:#000000;" x="240.568754" xlink:href="#m8d864125ee" y="174.528"/>
     <use style="stroke:#000000;" x="240.600717" xlink:href="#m8d864125ee" y="174.528"/>
     <use style="stroke:#000000;" x="237.01802" xlink:href="#m8d864125ee" y="174.528"/>
     <use style="stroke:#000000;" x="247.597296" xlink:href="#m8d864125ee" y="174.455803"/>
     <use style="stroke:#000000;" x="239.739848" xlink:href="#m8d864125ee" y="174.324767"/>
     <use style="stroke:#000000;" x="236.323705" xlink:href="#m8d864125ee" y="174.528"/>
     <use style="stroke:#000000;" x="240.040335" xlink:href="#m8d864125ee" y="174.528"/>
     <use style="stroke:#000000;" x="251.399431" xlink:href="#m8d864125ee" y="173.891173"/>
     <use style="stroke:#000000;" x="251.234121" xlink:href="#m8d864125ee" y="174.037952"/>
     <use style="stroke:#000000;" x="236.725083" xlink:href="#m8d864125ee" y="174.500102"/>
     <use style="stroke:#000000;" x="251.177665" xlink:href="#m8d864125ee" y="173.903502"/>
     <use style="stroke:#000000;" x="251.027834" xlink:href="#m8d864125ee" y="173.884179"/>
     <use style="stroke:#000000;" x="251.12318" xlink:href="#m8d864125ee" y="173.877282"/>
     <use style="stroke:#000000;" x="236.808071" xlink:href="#m8d864125ee" y="174.528"/>
     <use style="stroke:#000000;" x="240.031784" xlink:href="#m8d864125ee" y="174.528"/>
     <use style="stroke:#000000;" x="236.660036" xlink:href="#m8d864125ee" y="174.451546"/>
     <use style="stroke:#000000;" x="236.551695" xlink:href="#m8d864125ee" y="174.452456"/>
     <use style="stroke:#000000;" x="236.844951" xlink:href="#m8d864125ee" y="174.528"/>
     <use style="stroke:#000000;" x="236.653414" xlink:href="#m8d864125ee" y="174.499912"/>
     <use style="stroke:#000000;" x="236.882583" xlink:href="#m8d864125ee" y="174.460528"/>
     <use style="stroke:#000000;" x="247.501227" xlink:href="#m8d864125ee" y="174.528"/>
     <use style="stroke:#000000;" x="240.395101" xlink:href="#m8d864125ee" y="174.195112"/>
     <use style="stroke:#000000;" x="251.284198" xlink:href="#m8d864125ee" y="173.645796"/>
     <use style="stroke:#000000;" x="240.062762" xlink:href="#m8d864125ee" y="174.528"/>
     <use style="stroke:#000000;" x="240.273884" xlink:href="#m8d864125ee" y="174.197241"/>
     <use style="stroke:#000000;" x="237.243242" xlink:href="#m8d864125ee" y="174.508337"/>
     <use style="stroke:#000000;" x="240.055668" xlink:href="#m8d864125ee" y="174.528"/>
     <use style="stroke:#000000;" x="236.932564" xlink:href="#m8d864125ee" y="174.528"/>
     <use style="stroke:#000000;" x="236.349925" xlink:href="#m8d864125ee" y="174.528"/>
     <use style="stroke:#000000;" x="237.029018" xlink:href="#m8d864125ee" y="174.528"/>
     <use style="stroke:#000000;" x="240.316867" xlink:href="#m8d864125ee" y="174.267042"/>
     <use style="stroke:#000000;" x="240.217405" xlink:href="#m8d864125ee" y="174.051511"/>
     <use style="stroke:#000000;" x="251.077788" xlink:href="#m8d864125ee" y="174.129643"/>
     <use style="stroke:#000000;" x="237.264897" xlink:href="#m8d864125ee" y="174.371621"/>
     <use style="stroke:#000000;" x="236.16" xlink:href="#m8d864125ee" y="174.528"/>
     <use style="stroke:#000000;" x="236.207524" xlink:href="#m8d864125ee" y="174.528"/>
     <use style="stroke:#000000;" x="251.015267" xlink:href="#m8d864125ee" y="173.908191"/>
     <use style="stroke:#000000;" x="247.635575" xlink:href="#m8d864125ee" y="174.457571"/>
     <use style="stroke:#000000;" x="240.334442" xlink:href="#m8d864125ee" y="174.341536"/>
     <use style="stroke:#000000;" x="247.318463" xlink:href="#m8d864125ee" y="174.528"/>
     <use style="stroke:#000000;" x="240.383806" xlink:href="#m8d864125ee" y="174.528"/>
     <use style="stroke:#000000;" x="237.571665" xlink:href="#m8d864125ee" y="174.528"/>
     <use style="stroke:#000000;" x="247.655485" xlink:href="#m8d864125ee" y="174.528"/>
     <use style="stroke:#000000;" x="240.300541" xlink:href="#m8d864125ee" y="174.242916"/>
     <use style="stroke:#000000;" x="240.212154" xlink:href="#m8d864125ee" y="174.276404"/>
     <use style="stroke:#000000;" x="236.876079" xlink:href="#m8d864125ee" y="174.528"/>
     <use style="stroke:#000000;" x="240.001973" xlink:href="#m8d864125ee" y="174.528"/>
     <use style="stroke:#000000;" x="239.902852" xlink:href="#m8d864125ee" y="174.387082"/>
     <use style="stroke:#000000;" x="239.915099" xlink:href="#m8d864125ee" y="174.528"/>
     <use style="stroke:#000000;" x="247.538682" xlink:href="#m8d864125ee" y="174.407875"/>
     <use style="stroke:#000000;" x="236.263845" xlink:href="#m8d864125ee" y="174.528"/>
     <use style="stroke:#000000;" x="251.113451" xlink:href="#m8d864125ee" y="174.00548"/>
     <use style="stroke:#000000;" x="236.964325" xlink:href="#m8d864125ee" y="174.528"/>
     <use style="stroke:#000000;" x="236.979308" xlink:href="#m8d864125ee" y="174.523852"/>
     <use style="stroke:#000000;" x="236.991246" xlink:href="#m8d864125ee" y="174.528"/>
     <use style="stroke:#000000;" x="247.496055" xlink:href="#m8d864125ee" y="174.504108"/>
     <use style="stroke:#000000;" x="240.242152" xlink:href="#m8d864125ee" y="173.798231"/>
     <use style="stroke:#000000;" x="237.050274" xlink:href="#m8d864125ee" y="174.528"/>
     <use style="stroke:#000000;" x="237.261183" xlink:href="#m8d864125ee" y="174.070809"/>
     <use style="stroke:#000000;" x="236.393406" xlink:href="#m8d864125ee" y="174.383944"/>
     <use style="stroke:#000000;" x="250.518218" xlink:href="#m8d864125ee" y="173.605633"/>
     <use style="stroke:#000000;" x="239.350134" xlink:href="#m8d864125ee" y="173.855462"/>
     <use style="stroke:#000000;" x="240.870596" xlink:href="#m8d864125ee" y="174.448885"/>
     <use style="stroke:#000000;" x="241.050796" xlink:href="#m8d864125ee" y="174.307282"/>
     <use style="stroke:#000000;" x="237.509446" xlink:href="#m8d864125ee" y="173.859458"/>
     <use style="stroke:#000000;" x="247.641669" xlink:href="#m8d864125ee" y="174.276354"/>
     <use style="stroke:#000000;" x="238.982157" xlink:href="#m8d864125ee" y="174.324194"/>
     <use style="stroke:#000000;" x="236.16" xlink:href="#m8d864125ee" y="174.38952"/>
     <use style="stroke:#000000;" x="238.996347" xlink:href="#m8d864125ee" y="174.281678"/>
     <use style="stroke:#000000;" x="251.150785" xlink:href="#m8d864125ee" y="174.343958"/>
     <use style="stroke:#000000;" x="251.289992" xlink:href="#m8d864125ee" y="174.328257"/>
     <use style="stroke:#000000;" x="251.799214" xlink:href="#m8d864125ee" y="174.528"/>
     <use style="stroke:#000000;" x="236.944562" xlink:href="#m8d864125ee" y="174.528"/>
     <use style="stroke:#000000;" x="237.021517" xlink:href="#m8d864125ee" y="174.516374"/>
     <use style="stroke:#000000;" x="251.020492" xlink:href="#m8d864125ee" y="173.932928"/>
     <use style="stroke:#000000;" x="251.170771" xlink:href="#m8d864125ee" y="173.694954"/>
     <use style="stroke:#000000;" x="251.387546" xlink:href="#m8d864125ee" y="173.768876"/>
     <use style="stroke:#000000;" x="250.91424" xlink:href="#m8d864125ee" y="173.933661"/>
     <use style="stroke:#000000;" x="251.023216" xlink:href="#m8d864125ee" y="173.945058"/>
     <use style="stroke:#000000;" x="251.150437" xlink:href="#m8d864125ee" y="173.824363"/>
     <use style="stroke:#000000;" x="251.21668" xlink:href="#m8d864125ee" y="173.844084"/>
     <use style="stroke:#000000;" x="251.049357" xlink:href="#m8d864125ee" y="173.740331"/>
     <use style="stroke:#000000;" x="251.110268" xlink:href="#m8d864125ee" y="173.833012"/>
     <use style="stroke:#000000;" x="236.776552" xlink:href="#m8d864125ee" y="174.528"/>
     <use style="stroke:#000000;" x="236.978526" xlink:href="#m8d864125ee" y="174.528"/>
     <use style="stroke:#000000;" x="236.609337" xlink:href="#m8d864125ee" y="174.502774"/>
     <use style="stroke:#000000;" x="239.990777" xlink:href="#m8d864125ee" y="174.528"/>
     <use style="stroke:#000000;" x="239.994807" xlink:href="#m8d864125ee" y="174.528"/>
     <use style="stroke:#000000;" x="236.794649" xlink:href="#m8d864125ee" y="174.227389"/>
     <use style="stroke:#000000;" x="236.818023" xlink:href="#m8d864125ee" y="174.523103"/>
     <use style="stroke:#000000;" x="236.16" xlink:href="#m8d864125ee" y="174.528"/>
     <use style="stroke:#000000;" x="236.459494" xlink:href="#m8d864125ee" y="174.236467"/>
     <use style="stroke:#000000;" x="236.81423" xlink:href="#m8d864125ee" y="174.205359"/>
     <use style="stroke:#000000;" x="236.669354" xlink:href="#m8d864125ee" y="174.528"/>
     <use style="stroke:#000000;" x="236.775126" xlink:href="#m8d864125ee" y="174.528"/>
     <use style="stroke:#000000;" x="236.718957" xlink:href="#m8d864125ee" y="174.528"/>
     <use style="stroke:#000000;" x="237.551074" xlink:href="#m8d864125ee" y="174.528"/>
     <use style="stroke:#000000;" x="236.903571" xlink:href="#m8d864125ee" y="174.331405"/>
     <use style="stroke:#000000;" x="247.488608" xlink:href="#m8d864125ee" y="174.528"/>
     <use style="stroke:#000000;" x="247.454478" xlink:href="#m8d864125ee" y="174.528"/>
     <use style="stroke:#000000;" x="240.445229" xlink:href="#m8d864125ee" y="174.370938"/>
     <use style="stroke:#000000;" x="240.879856" xlink:href="#m8d864125ee" y="174.184135"/>
     <use style="stroke:#000000;" x="250.942851" xlink:href="#m8d864125ee" y="173.977543"/>
     <use style="stroke:#000000;" x="251.251687" xlink:href="#m8d864125ee" y="173.882693"/>
     <use style="stroke:#000000;" x="251.528176" xlink:href="#m8d864125ee" y="173.710698"/>
     <use style="stroke:#000000;" x="240.396427" xlink:href="#m8d864125ee" y="174.528"/>
     <use style="stroke:#000000;" x="239.944566" xlink:href="#m8d864125ee" y="174.528"/>
     <use style="stroke:#000000;" x="240.579485" xlink:href="#m8d864125ee" y="174.528"/>
     <use style="stroke:#000000;" x="239.97055" xlink:href="#m8d864125ee" y="174.528"/>
     <use style="stroke:#000000;" x="240.095715" xlink:href="#m8d864125ee" y="174.254528"/>
     <use style="stroke:#000000;" x="240.292746" xlink:href="#m8d864125ee" y="174.490483"/>
     <use style="stroke:#000000;" x="237.311367" xlink:href="#m8d864125ee" y="174.410819"/>
     <use style="stroke:#000000;" x="237.099913" xlink:href="#m8d864125ee" y="174.510777"/>
     <use style="stroke:#000000;" x="237.215456" xlink:href="#m8d864125ee" y="174.476588"/>
     <use style="stroke:#000000;" x="240.216444" xlink:href="#m8d864125ee" y="174.303756"/>
     <use style="stroke:#000000;" x="240.218768" xlink:href="#m8d864125ee" y="174.528"/>
     <use style="stroke:#000000;" x="240.156072" xlink:href="#m8d864125ee" y="174.515224"/>
     <use style="stroke:#000000;" x="236.690476" xlink:href="#m8d864125ee" y="174.528"/>
     <use style="stroke:#000000;" x="236.480817" xlink:href="#m8d864125ee" y="174.469058"/>
     <use style="stroke:#000000;" x="236.993064" xlink:href="#m8d864125ee" y="174.357068"/>
     <use style="stroke:#000000;" x="236.183175" xlink:href="#m8d864125ee" y="174.518365"/>
     <use style="stroke:#000000;" x="236.441415" xlink:href="#m8d864125ee" y="174.41193"/>
     <use style="stroke:#000000;" x="236.416386" xlink:href="#m8d864125ee" y="174.528"/>
     <use style="stroke:#000000;" x="236.936311" xlink:href="#m8d864125ee" y="174.459901"/>
     <use style="stroke:#000000;" x="237.089246" xlink:href="#m8d864125ee" y="174.528"/>
     <use style="stroke:#000000;" x="236.846043" xlink:href="#m8d864125ee" y="174.528"/>
     <use style="stroke:#000000;" x="240.369576" xlink:href="#m8d864125ee" y="174.316653"/>
     <use style="stroke:#000000;" x="240.402068" xlink:href="#m8d864125ee" y="174.248928"/>
     <use style="stroke:#000000;" x="240.259603" xlink:href="#m8d864125ee" y="174.209099"/>
     <use style="stroke:#000000;" x="240.255428" xlink:href="#m8d864125ee" y="173.871494"/>
     <use style="stroke:#000000;" x="240.176619" xlink:href="#m8d864125ee" y="174.137617"/>
     <use style="stroke:#000000;" x="240.20779" xlink:href="#m8d864125ee" y="173.992565"/>
     <use style="stroke:#000000;" x="251.093868" xlink:href="#m8d864125ee" y="174.163073"/>
     <use style="stroke:#000000;" x="250.995524" xlink:href="#m8d864125ee" y="174.261147"/>
     <use style="stroke:#000000;" x="251.063076" xlink:href="#m8d864125ee" y="174.110169"/>
     <use style="stroke:#000000;" x="237.274643" xlink:href="#m8d864125ee" y="174.317414"/>
     <use style="stroke:#000000;" x="237.328645" xlink:href="#m8d864125ee" y="174.390456"/>
     <use style="stroke:#000000;" x="237.364332" xlink:href="#m8d864125ee" y="174.268518"/>
     <use style="stroke:#000000;" x="236.16" xlink:href="#m8d864125ee" y="174.528"/>
     <use style="stroke:#000000;" x="236.289068" xlink:href="#m8d864125ee" y="174.405008"/>
     <use style="stroke:#000000;" x="236.290125" xlink:href="#m8d864125ee" y="174.484906"/>
     <use style="stroke:#000000;" x="236.273341" xlink:href="#m8d864125ee" y="174.528"/>
     <use style="stroke:#000000;" x="236.225648" xlink:href="#m8d864125ee" y="174.511433"/>
     <use style="stroke:#000000;" x="236.16" xlink:href="#m8d864125ee" y="174.515902"/>
     <use style="stroke:#000000;" x="250.665797" xlink:href="#m8d864125ee" y="173.693606"/>
     <use style="stroke:#000000;" x="250.696747" xlink:href="#m8d864125ee" y="173.742761"/>
     <use style="stroke:#000000;" x="247.904802" xlink:href="#m8d864125ee" y="174.150885"/>
     <use style="stroke:#000000;" x="248.173899" xlink:href="#m8d864125ee" y="174.498457"/>
     <use style="stroke:#000000;" x="239.740693" xlink:href="#m8d864125ee" y="174.186699"/>
     <use style="stroke:#000000;" x="240.418484" xlink:href="#m8d864125ee" y="174.043362"/>
     <use style="stroke:#000000;" x="247.090251" xlink:href="#m8d864125ee" y="174.410041"/>
     <use style="stroke:#000000;" x="247.711385" xlink:href="#m8d864125ee" y="174.528"/>
     <use style="stroke:#000000;" x="240.114826" xlink:href="#m8d864125ee" y="174.498836"/>
     <use style="stroke:#000000;" x="240.788763" xlink:href="#m8d864125ee" y="174.528"/>
     <use style="stroke:#000000;" x="237.182285" xlink:href="#m8d864125ee" y="174.228188"/>
     <use style="stroke:#000000;" x="238.00733" xlink:href="#m8d864125ee" y="174.31145"/>
     <use style="stroke:#000000;" x="247.318494" xlink:href="#m8d864125ee" y="174.528"/>
     <use style="stroke:#000000;" x="247.958851" xlink:href="#m8d864125ee" y="174.497741"/>
     <use style="stroke:#000000;" x="239.428986" xlink:href="#m8d864125ee" y="174.072316"/>
     <use style="stroke:#000000;" x="240.089907" xlink:href="#m8d864125ee" y="174.327218"/>
     <use style="stroke:#000000;" x="237.895235" xlink:href="#m8d864125ee" y="173.838122"/>
     <use style="stroke:#000000;" x="240.196905" xlink:href="#m8d864125ee" y="174.528"/>
     <use style="stroke:#000000;" x="240.507125" xlink:href="#m8d864125ee" y="174.528"/>
     <use style="stroke:#000000;" x="240.053277" xlink:href="#m8d864125ee" y="174.339052"/>
     <use style="stroke:#000000;" x="239.313184" xlink:href="#m8d864125ee" y="174.528"/>
     <use style="stroke:#000000;" x="247.916777" xlink:href="#m8d864125ee" y="174.528"/>
     <use style="stroke:#000000;" x="247.385197" xlink:href="#m8d864125ee" y="174.321841"/>
     <use style="stroke:#000000;" x="236.16" xlink:href="#m8d864125ee" y="174.528"/>
     <use style="stroke:#000000;" x="236.16" xlink:href="#m8d864125ee" y="174.528"/>
     <use style="stroke:#000000;" x="251.115898" xlink:href="#m8d864125ee" y="173.930108"/>
     <use style="stroke:#000000;" x="251.136819" xlink:href="#m8d864125ee" y="174.009545"/>
     <use style="stroke:#000000;" x="251.116477" xlink:href="#m8d864125ee" y="173.901227"/>
     <use style="stroke:#000000;" x="251.17146" xlink:href="#m8d864125ee" y="174.037471"/>
    </g>
   </g>
   <g id="PathCollection_2">
    <defs>
     <path d="M 0 0.935414 
C 0.248075 0.935414 0.486022 0.836853 0.661438 0.661438 
C 0.836853 0.486022 0.935414 0.248075 0.935414 0 
C 0.935414 -0.248075 0.836853 -0.486022 0.661438 -0.661438 
C 0.486022 -0.836853 0.248075 -0.935414 0 -0.935414 
C -0.248075 -0.935414 -0.486022 -0.836853 -0.661438 -0.661438 
C -0.836853 -0.486022 -0.935414 -0.248075 -0.935414 0 
C -0.935414 0.248075 -0.836853 0.486022 -0.661438 0.661438 
C -0.486022 0.836853 -0.248075 0.935414 0 0.935414 
z
" id="md263503cce" style="stroke:#0000ff;"/>
    </defs>
    <g clip-path="url(#pa4b0f2e76e)">
     <use style="fill:#0000ff;stroke:#0000ff;" x="236.975796" xlink:href="#md263503cce" y="174.52355"/>
     <use style="fill:#0000ff;stroke:#0000ff;" x="247.442513" xlink:href="#md263503cce" y="174.215555"/>
     <use style="fill:#0000ff;stroke:#0000ff;" x="239.709456" xlink:href="#md263503cce" y="173.444148"/>
     <use style="fill:#0000ff;stroke:#0000ff;" x="236.807989" xlink:href="#md263503cce" y="174.528"/>
     <use style="fill:#0000ff;stroke:#0000ff;" x="236.641085" xlink:href="#md263503cce" y="174.391385"/>
     <use style="fill:#0000ff;stroke:#0000ff;" x="236.579523" xlink:href="#md263503cce" y="174.460446"/>
     <use style="fill:#0000ff;stroke:#0000ff;" x="251.173294" xlink:href="#md263503cce" y="173.914731"/>
     <use style="fill:#0000ff;stroke:#0000ff;" x="239.776627" xlink:href="#md263503cce" y="173.521615"/>
     <use style="fill:#0000ff;stroke:#0000ff;" x="240.568754" xlink:href="#md263503cce" y="174.528"/>
     <use style="fill:#0000ff;stroke:#0000ff;" x="240.600717" xlink:href="#md263503cce" y="174.528"/>
     <use style="fill:#0000ff;stroke:#0000ff;" x="237.01802" xlink:href="#md263503cce" y="174.528"/>
     <use style="fill:#0000ff;stroke:#0000ff;" x="247.597296" xlink:href="#md263503cce" y="174.455803"/>
     <use style="fill:#0000ff;stroke:#0000ff;" x="239.739848" xlink:href="#md263503cce" y="174.324767"/>
     <use style="fill:#0000ff;stroke:#0000ff;" x="236.323705" xlink:href="#md263503cce" y="174.528"/>
     <use style="fill:#0000ff;stroke:#0000ff;" x="240.040335" xlink:href="#md263503cce" y="174.528"/>
     <use style="fill:#0000ff;stroke:#0000ff;" x="251.399431" xlink:href="#md263503cce" y="173.891173"/>
     <use style="fill:#0000ff;stroke:#0000ff;" x="251.234121" xlink:href="#md263503cce" y="174.037952"/>
     <use style="fill:#0000ff;stroke:#0000ff;" x="236.725083" xlink:href="#md263503cce" y="174.500102"/>
     <use style="fill:#0000ff;stroke:#0000ff;" x="251.177665" xlink:href="#md263503cce" y="173.903502"/>
     <use style="fill:#0000ff;stroke:#0000ff;" x="251.027834" xlink:href="#md263503cce" y="173.884179"/>
     <use style="fill:#0000ff;stroke:#0000ff;" x="251.12318" xlink:href="#md263503cce" y="173.877282"/>
     <use style="fill:#0000ff;stroke:#0000ff;" x="236.808071" xlink:href="#md263503cce" y="174.528"/>
     <use style="fill:#0000ff;stroke:#0000ff;" x="240.031784" xlink:href="#md263503cce" y="174.528"/>
     <use style="fill:#0000ff;stroke:#0000ff;" x="236.660036" xlink:href="#md263503cce" y="174.451546"/>
     <use style="fill:#0000ff;stroke:#0000ff;" x="236.551695" xlink:href="#md263503cce" y="174.452456"/>
     <use style="fill:#0000ff;stroke:#0000ff;" x="236.844951" xlink:href="#md263503cce" y="174.528"/>
     <use style="fill:#0000ff;stroke:#0000ff;" x="236.653414" xlink:href="#md263503cce" y="174.499912"/>
     <use style="fill:#0000ff;stroke:#0000ff;" x="236.882583" xlink:href="#md263503cce" y="174.460528"/>
     <use style="fill:#0000ff;stroke:#0000ff;" x="247.501227" xlink:href="#md263503cce" y="174.528"/>
     <use style="fill:#0000ff;stroke:#0000ff;" x="240.395101" xlink:href="#md263503cce" y="174.195112"/>
     <use style="fill:#0000ff;stroke:#0000ff;" x="251.284198" xlink:href="#md263503cce" y="173.645796"/>
     <use style="fill:#0000ff;stroke:#0000ff;" x="240.062762" xlink:href="#md263503cce" y="174.528"/>
     <use style="fill:#0000ff;stroke:#0000ff;" x="240.273884" xlink:href="#md263503cce" y="174.197241"/>
     <use style="fill:#0000ff;stroke:#0000ff;" x="237.243242" xlink:href="#md263503cce" y="174.508337"/>
     <use style="fill:#0000ff;stroke:#0000ff;" x="240.055668" xlink:href="#md263503cce" y="174.528"/>
     <use style="fill:#0000ff;stroke:#0000ff;" x="236.932564" xlink:href="#md263503cce" y="174.528"/>
     <use style="fill:#0000ff;stroke:#0000ff;" x="236.349925" xlink:href="#md263503cce" y="174.528"/>
     <use style="fill:#0000ff;stroke:#0000ff;" x="237.029018" xlink:href="#md263503cce" y="174.528"/>
     <use style="fill:#0000ff;stroke:#0000ff;" x="240.316867" xlink:href="#md263503cce" y="174.267042"/>
     <use style="fill:#0000ff;stroke:#0000ff;" x="240.217405" xlink:href="#md263503cce" y="174.051511"/>
     <use style="fill:#0000ff;stroke:#0000ff;" x="251.077788" xlink:href="#md263503cce" y="174.129643"/>
     <use style="fill:#0000ff;stroke:#0000ff;" x="237.264897" xlink:href="#md263503cce" y="174.371621"/>
     <use style="fill:#0000ff;stroke:#0000ff;" x="236.16" xlink:href="#md263503cce" y="174.528"/>
     <use style="fill:#0000ff;stroke:#0000ff;" x="236.207524" xlink:href="#md263503cce" y="174.528"/>
     <use style="fill:#0000ff;stroke:#0000ff;" x="251.015267" xlink:href="#md263503cce" y="173.908191"/>
     <use style="fill:#0000ff;stroke:#0000ff;" x="247.635575" xlink:href="#md263503cce" y="174.457571"/>
     <use style="fill:#0000ff;stroke:#0000ff;" x="240.334442" xlink:href="#md263503cce" y="174.341536"/>
     <use style="fill:#0000ff;stroke:#0000ff;" x="247.318463" xlink:href="#md263503cce" y="174.528"/>
     <use style="fill:#0000ff;stroke:#0000ff;" x="240.383806" xlink:href="#md263503cce" y="174.528"/>
     <use style="fill:#0000ff;stroke:#0000ff;" x="237.571665" xlink:href="#md263503cce" y="174.528"/>
     <use style="fill:#0000ff;stroke:#0000ff;" x="247.655485" xlink:href="#md263503cce" y="174.528"/>
     <use style="fill:#0000ff;stroke:#0000ff;" x="240.300541" xlink:href="#md263503cce" y="174.242916"/>
     <use style="fill:#0000ff;stroke:#0000ff;" x="240.212154" xlink:href="#md263503cce" y="174.276404"/>
     <use style="fill:#0000ff;stroke:#0000ff;" x="236.876079" xlink:href="#md263503cce" y="174.528"/>
     <use style="fill:#0000ff;stroke:#0000ff;" x="240.001973" xlink:href="#md263503cce" y="174.528"/>
     <use style="fill:#0000ff;stroke:#0000ff;" x="239.902852" xlink:href="#md263503cce" y="174.387082"/>
     <use style="fill:#0000ff;stroke:#0000ff;" x="239.915099" xlink:href="#md263503cce" y="174.528"/>
     <use style="fill:#0000ff;stroke:#0000ff;" x="247.538682" xlink:href="#md263503cce" y="174.407875"/>
     <use style="fill:#0000ff;stroke:#0000ff;" x="236.263845" xlink:href="#md263503cce" y="174.528"/>
     <use style="fill:#0000ff;stroke:#0000ff;" x="251.113451" xlink:href="#md263503cce" y="174.00548"/>
    </g>
   </g>
   <g id="matplotlib.axis_1">
    <g id="xtick_1">
     <g id="line2d_1">
      <defs>
       <path d="M 0 0 
L 0 3.5 
" id="m53ad765187" style="stroke:#000000;stroke-width:0.8;"/>
      </defs>
      <g>
       <use style="stroke:#000000;stroke-width:0.8;" x="57.6" xlink:href="#m53ad765187" y="307.584"/>
      </g>
     </g>
     <g id="text_1">
      <!-- −10.0 -->
      <defs>
       <path d="M 10.59375 35.5 
L 73.1875 35.5 
L 73.1875 27.203125 
L 10.59375 27.203125 
z
" id="DejaVuSans-2212"/>
       <path d="M 12.40625 8.296875 
L 28.515625 8.296875 
L 28.515625 63.921875 
L 10.984375 60.40625 
L 10.984375 69.390625 
L 28.421875 72.90625 
L 38.28125 72.90625 
L 38.28125 8.296875 
L 54.390625 8.296875 
L 54.390625 0 
L 12.40625 0 
z
" id="DejaVuSans-31"/>
       <path d="M 31.78125 66.40625 
Q 24.171875 66.40625 20.328125 58.90625 
Q 16.5 51.421875 16.5 36.375 
Q 16.5 21.390625 20.328125 13.890625 
Q 24.171875 6.390625 31.78125 6.390625 
Q 39.453125 6.390625 43.28125 13.890625 
Q 47.125 21.390625 47.125 36.375 
Q 47.125 51.421875 43.28125 58.90625 
Q 39.453125 66.40625 31.78125 66.40625 
z
M 31.78125 74.21875 
Q 44.046875 74.21875 50.515625 64.515625 
Q 56.984375 54.828125 56.984375 36.375 
Q 56.984375 17.96875 50.515625 8.265625 
Q 44.046875 -1.421875 31.78125 -1.421875 
Q 19.53125 -1.421875 13.0625 8.265625 
Q 6.59375 17.96875 6.59375 36.375 
Q 6.59375 54.828125 13.0625 64.515625 
Q 19.53125 74.21875 31.78125 74.21875 
z
" id="DejaVuSans-30"/>
       <path d="M 10.6875 12.40625 
L 21 12.40625 
L 21 0 
L 10.6875 0 
z
" id="DejaVuSans-2e"/>
      </defs>
      <g transform="translate(42.277344 322.182437)scale(0.1 -0.1)">
       <use xlink:href="#DejaVuSans-2212"/>
       <use x="83.789062" xlink:href="#DejaVuSans-31"/>
       <use x="147.412109" xlink:href="#DejaVuSans-30"/>
       <use x="211.035156" xlink:href="#DejaVuSans-2e"/>
       <use x="242.822266" xlink:href="#DejaVuSans-30"/>
      </g>
     </g>
    </g>
    <g id="xtick_2">
     <g id="line2d_2">
      <g>
       <use style="stroke:#000000;stroke-width:0.8;" x="102.24" xlink:href="#m53ad765187" y="307.584"/>
      </g>
     </g>
     <g id="text_2">
      <!-- −7.5 -->
      <defs>
       <path d="M 8.203125 72.90625 
L 55.078125 72.90625 
L 55.078125 68.703125 
L 28.609375 0 
L 18.3125 0 
L 43.21875 64.59375 
L 8.203125 64.59375 
z
" id="DejaVuSans-37"/>
       <path d="M 10.796875 72.90625 
L 49.515625 72.90625 
L 49.515625 64.59375 
L 19.828125 64.59375 
L 19.828125 46.734375 
Q 21.96875 47.46875 24.109375 47.828125 
Q 26.265625 48.1875 28.421875 48.1875 
Q 40.625 48.1875 47.75 41.5 
Q 54.890625 34.8125 54.890625 23.390625 
Q 54.890625 11.625 47.5625 5.09375 
Q 40.234375 -1.421875 26.90625 -1.421875 
Q 22.3125 -1.421875 17.546875 -0.640625 
Q 12.796875 0.140625 7.71875 1.703125 
L 7.71875 11.625 
Q 12.109375 9.234375 16.796875 8.0625 
Q 21.484375 6.890625 26.703125 6.890625 
Q 35.15625 6.890625 40.078125 11.328125 
Q 45.015625 15.765625 45.015625 23.390625 
Q 45.015625 31 40.078125 35.4375 
Q 35.15625 39.890625 26.703125 39.890625 
Q 22.75 39.890625 18.8125 39.015625 
Q 14.890625 38.140625 10.796875 36.28125 
z
" id="DejaVuSans-35"/>
      </defs>
      <g transform="translate(90.098594 322.182437)scale(0.1 -0.1)">
       <use xlink:href="#DejaVuSans-2212"/>
       <use x="83.789062" xlink:href="#DejaVuSans-37"/>
       <use x="147.412109" xlink:href="#DejaVuSans-2e"/>
       <use x="179.199219" xlink:href="#DejaVuSans-35"/>
      </g>
     </g>
    </g>
    <g id="xtick_3">
     <g id="line2d_3">
      <g>
       <use style="stroke:#000000;stroke-width:0.8;" x="146.88" xlink:href="#m53ad765187" y="307.584"/>
      </g>
     </g>
     <g id="text_3">
      <!-- −5.0 -->
      <g transform="translate(134.738594 322.182437)scale(0.1 -0.1)">
       <use xlink:href="#DejaVuSans-2212"/>
       <use x="83.789062" xlink:href="#DejaVuSans-35"/>
       <use x="147.412109" xlink:href="#DejaVuSans-2e"/>
       <use x="179.199219" xlink:href="#DejaVuSans-30"/>
      </g>
     </g>
    </g>
    <g id="xtick_4">
     <g id="line2d_4">
      <g>
       <use style="stroke:#000000;stroke-width:0.8;" x="191.52" xlink:href="#m53ad765187" y="307.584"/>
      </g>
     </g>
     <g id="text_4">
      <!-- −2.5 -->
      <defs>
       <path d="M 19.1875 8.296875 
L 53.609375 8.296875 
L 53.609375 0 
L 7.328125 0 
L 7.328125 8.296875 
Q 12.9375 14.109375 22.625 23.890625 
Q 32.328125 33.6875 34.8125 36.53125 
Q 39.546875 41.84375 41.421875 45.53125 
Q 43.3125 49.21875 43.3125 52.78125 
Q 43.3125 58.59375 39.234375 62.25 
Q 35.15625 65.921875 28.609375 65.921875 
Q 23.96875 65.921875 18.8125 64.3125 
Q 13.671875 62.703125 7.8125 59.421875 
L 7.8125 69.390625 
Q 13.765625 71.78125 18.9375 73 
Q 24.125 74.21875 28.421875 74.21875 
Q 39.75 74.21875 46.484375 68.546875 
Q 53.21875 62.890625 53.21875 53.421875 
Q 53.21875 48.921875 51.53125 44.890625 
Q 49.859375 40.875 45.40625 35.40625 
Q 44.1875 33.984375 37.640625 27.21875 
Q 31.109375 20.453125 19.1875 8.296875 
z
" id="DejaVuSans-32"/>
      </defs>
      <g transform="translate(179.378594 322.182437)scale(0.1 -0.1)">
       <use xlink:href="#DejaVuSans-2212"/>
       <use x="83.789062" xlink:href="#DejaVuSans-32"/>
       <use x="147.412109" xlink:href="#DejaVuSans-2e"/>
       <use x="179.199219" xlink:href="#DejaVuSans-35"/>
      </g>
     </g>
    </g>
    <g id="xtick_5">
     <g id="line2d_5">
      <g>
       <use style="stroke:#000000;stroke-width:0.8;" x="236.16" xlink:href="#m53ad765187" y="307.584"/>
      </g>
     </g>
     <g id="text_5">
      <!-- 0.0 -->
      <g transform="translate(228.208438 322.182437)scale(0.1 -0.1)">
       <use xlink:href="#DejaVuSans-30"/>
       <use x="63.623047" xlink:href="#DejaVuSans-2e"/>
       <use x="95.410156" xlink:href="#DejaVuSans-30"/>
      </g>
     </g>
    </g>
    <g id="xtick_6">
     <g id="line2d_6">
      <g>
       <use style="stroke:#000000;stroke-width:0.8;" x="280.8" xlink:href="#m53ad765187" y="307.584"/>
      </g>
     </g>
     <g id="text_6">
      <!-- 2.5 -->
      <g transform="translate(272.848437 322.182437)scale(0.1 -0.1)">
       <use xlink:href="#DejaVuSans-32"/>
       <use x="63.623047" xlink:href="#DejaVuSans-2e"/>
       <use x="95.410156" xlink:href="#DejaVuSans-35"/>
      </g>
     </g>
    </g>
    <g id="xtick_7">
     <g id="line2d_7">
      <g>
       <use style="stroke:#000000;stroke-width:0.8;" x="325.44" xlink:href="#m53ad765187" y="307.584"/>
      </g>
     </g>
     <g id="text_7">
      <!-- 5.0 -->
      <g transform="translate(317.488437 322.182437)scale(0.1 -0.1)">
       <use xlink:href="#DejaVuSans-35"/>
       <use x="63.623047" xlink:href="#DejaVuSans-2e"/>
       <use x="95.410156" xlink:href="#DejaVuSans-30"/>
      </g>
     </g>
    </g>
    <g id="xtick_8">
     <g id="line2d_8">
      <g>
       <use style="stroke:#000000;stroke-width:0.8;" x="370.08" xlink:href="#m53ad765187" y="307.584"/>
      </g>
     </g>
     <g id="text_8">
      <!-- 7.5 -->
      <g transform="translate(362.128438 322.182437)scale(0.1 -0.1)">
       <use xlink:href="#DejaVuSans-37"/>
       <use x="63.623047" xlink:href="#DejaVuSans-2e"/>
       <use x="95.410156" xlink:href="#DejaVuSans-35"/>
      </g>
     </g>
    </g>
    <g id="xtick_9">
     <g id="line2d_9">
      <g>
       <use style="stroke:#000000;stroke-width:0.8;" x="414.72" xlink:href="#m53ad765187" y="307.584"/>
      </g>
     </g>
     <g id="text_9">
      <!-- 10.0 -->
      <g transform="translate(403.587188 322.182437)scale(0.1 -0.1)">
       <use xlink:href="#DejaVuSans-31"/>
       <use x="63.623047" xlink:href="#DejaVuSans-30"/>
       <use x="127.246094" xlink:href="#DejaVuSans-2e"/>
       <use x="159.033203" xlink:href="#DejaVuSans-30"/>
      </g>
     </g>
    </g>
   </g>
   <g id="matplotlib.axis_2">
    <g id="ytick_1">
     <g id="line2d_10">
      <defs>
       <path d="M 0 0 
L -3.5 0 
" id="m3a05f03e2f" style="stroke:#000000;stroke-width:0.8;"/>
      </defs>
      <g>
       <use style="stroke:#000000;stroke-width:0.8;" x="57.6" xlink:href="#m3a05f03e2f" y="307.584"/>
      </g>
     </g>
     <g id="text_10">
      <!-- −10.0 -->
      <g transform="translate(19.954687 311.383219)scale(0.1 -0.1)">
       <use xlink:href="#DejaVuSans-2212"/>
       <use x="83.789062" xlink:href="#DejaVuSans-31"/>
       <use x="147.412109" xlink:href="#DejaVuSans-30"/>
       <use x="211.035156" xlink:href="#DejaVuSans-2e"/>
       <use x="242.822266" xlink:href="#DejaVuSans-30"/>
      </g>
     </g>
    </g>
    <g id="ytick_2">
     <g id="line2d_11">
      <g>
       <use style="stroke:#000000;stroke-width:0.8;" x="57.6" xlink:href="#m3a05f03e2f" y="274.32"/>
      </g>
     </g>
     <g id="text_11">
      <!-- −7.5 -->
      <g transform="translate(26.317187 278.119219)scale(0.1 -0.1)">
       <use xlink:href="#DejaVuSans-2212"/>
       <use x="83.789062" xlink:href="#DejaVuSans-37"/>
       <use x="147.412109" xlink:href="#DejaVuSans-2e"/>
       <use x="179.199219" xlink:href="#DejaVuSans-35"/>
      </g>
     </g>
    </g>
    <g id="ytick_3">
     <g id="line2d_12">
      <g>
       <use style="stroke:#000000;stroke-width:0.8;" x="57.6" xlink:href="#m3a05f03e2f" y="241.056"/>
      </g>
     </g>
     <g id="text_12">
      <!-- −5.0 -->
      <g transform="translate(26.317187 244.855219)scale(0.1 -0.1)">
       <use xlink:href="#DejaVuSans-2212"/>
       <use x="83.789062" xlink:href="#DejaVuSans-35"/>
       <use x="147.412109" xlink:href="#DejaVuSans-2e"/>
       <use x="179.199219" xlink:href="#DejaVuSans-30"/>
      </g>
     </g>
    </g>
    <g id="ytick_4">
     <g id="line2d_13">
      <g>
       <use style="stroke:#000000;stroke-width:0.8;" x="57.6" xlink:href="#m3a05f03e2f" y="207.792"/>
      </g>
     </g>
     <g id="text_13">
      <!-- −2.5 -->
      <g transform="translate(26.317187 211.591219)scale(0.1 -0.1)">
       <use xlink:href="#DejaVuSans-2212"/>
       <use x="83.789062" xlink:href="#DejaVuSans-32"/>
       <use x="147.412109" xlink:href="#DejaVuSans-2e"/>
       <use x="179.199219" xlink:href="#DejaVuSans-35"/>
      </g>
     </g>
    </g>
    <g id="ytick_5">
     <g id="line2d_14">
      <g>
       <use style="stroke:#000000;stroke-width:0.8;" x="57.6" xlink:href="#m3a05f03e2f" y="174.528"/>
      </g>
     </g>
     <g id="text_14">
      <!-- 0.0 -->
      <g transform="translate(34.696875 178.327219)scale(0.1 -0.1)">
       <use xlink:href="#DejaVuSans-30"/>
       <use x="63.623047" xlink:href="#DejaVuSans-2e"/>
       <use x="95.410156" xlink:href="#DejaVuSans-30"/>
      </g>
     </g>
    </g>
    <g id="ytick_6">
     <g id="line2d_15">
      <g>
       <use style="stroke:#000000;stroke-width:0.8;" x="57.6" xlink:href="#m3a05f03e2f" y="141.264"/>
      </g>
     </g>
     <g id="text_15">
      <!-- 2.5 -->
      <g transform="translate(34.696875 145.063219)scale(0.1 -0.1)">
       <use xlink:href="#DejaVuSans-32"/>
       <use x="63.623047" xlink:href="#DejaVuSans-2e"/>
       <use x="95.410156" xlink:href="#DejaVuSans-35"/>
      </g>
     </g>
    </g>
    <g id="ytick_7">
     <g id="line2d_16">
      <g>
       <use style="stroke:#000000;stroke-width:0.8;" x="57.6" xlink:href="#m3a05f03e2f" y="108"/>
      </g>
     </g>
     <g id="text_16">
      <!-- 5.0 -->
      <g transform="translate(34.696875 111.799219)scale(0.1 -0.1)">
       <use xlink:href="#DejaVuSans-35"/>
       <use x="63.623047" xlink:href="#DejaVuSans-2e"/>
       <use x="95.410156" xlink:href="#DejaVuSans-30"/>
      </g>
     </g>
    </g>
    <g id="ytick_8">
     <g id="line2d_17">
      <g>
       <use style="stroke:#000000;stroke-width:0.8;" x="57.6" xlink:href="#m3a05f03e2f" y="74.736"/>
      </g>
     </g>
     <g id="text_17">
      <!-- 7.5 -->
      <g transform="translate(34.696875 78.535219)scale(0.1 -0.1)">
       <use xlink:href="#DejaVuSans-37"/>
       <use x="63.623047" xlink:href="#DejaVuSans-2e"/>
       <use x="95.410156" xlink:href="#DejaVuSans-35"/>
      </g>
     </g>
    </g>
    <g id="ytick_9">
     <g id="line2d_18">
      <g>
       <use style="stroke:#000000;stroke-width:0.8;" x="57.6" xlink:href="#m3a05f03e2f" y="41.472"/>
      </g>
     </g>
     <g id="text_18">
      <!-- 10.0 -->
      <g transform="translate(28.334375 45.271219)scale(0.1 -0.1)">
       <use xlink:href="#DejaVuSans-31"/>
       <use x="63.623047" xlink:href="#DejaVuSans-30"/>
       <use x="127.246094" xlink:href="#DejaVuSans-2e"/>
       <use x="159.033203" xlink:href="#DejaVuSans-30"/>
      </g>
     </g>
    </g>
   </g>
   <g id="patch_3">
    <path d="M 57.6 307.584 
L 57.6 41.472 
" style="fill:none;stroke:#000000;stroke-linecap:square;stroke-linejoin:miter;stroke-width:0.8;"/>
   </g>
   <g id="patch_4">
    <path d="M 414.72 307.584 
L 414.72 41.472 
" style="fill:none;stroke:#000000;stroke-linecap:square;stroke-linejoin:miter;stroke-width:0.8;"/>
   </g>
   <g id="patch_5">
    <path d="M 57.6 307.584 
L 414.72 307.584 
" style="fill:none;stroke:#000000;stroke-linecap:square;stroke-linejoin:miter;stroke-width:0.8;"/>
   </g>
   <g id="patch_6">
    <path d="M 57.6 41.472 
L 414.72 41.472 
" style="fill:none;stroke:#000000;stroke-linecap:square;stroke-linejoin:miter;stroke-width:0.8;"/>
   </g>
  </g>
 </g>
 <defs>
  <clipPath id="pa4b0f2e76e">
   <rect height="266.112" width="357.12" x="57.6" y="41.472"/>
  </clipPath>
 </defs>
</svg>
