<?xml version="1.0" encoding="utf-8" standalone="no"?>
<!DOCTYPE svg PUBLIC "-//W3C//DTD SVG 1.1//EN"
  "http://www.w3.org/Graphics/SVG/1.1/DTD/svg11.dtd">
<!-- Created with matplotlib (http://matplotlib.org/) -->
<svg height="345.6pt" version="1.1" viewBox="0 0 460.8 345.6" width="460.8pt" xmlns="http://www.w3.org/2000/svg" xmlns:xlink="http://www.w3.org/1999/xlink">
 <defs>
  <style type="text/css">
*{stroke-linecap:butt;stroke-linejoin:round;}
  </style>
 </defs>
 <g id="figure_1">
  <g id="patch_1">
   <path d="M 0 345.6 
L 460.8 345.6 
L 460.8 0 
L 0 0 
z
" style="fill:#ffffff;"/>
  </g>
  <g id="axes_1">
   <g id="patch_2">
    <path d="M 57.6 307.584 
L 414.72 307.584 
L 414.72 41.472 
L 57.6 41.472 
z
" style="fill:#ffffff;"/>
   </g>
   <g id="PathCollection_1">
    <defs>
     <path d="M 0 0.612372 
C 0.162403 0.612372 0.318176 0.547849 0.433013 0.433013 
C 0.547849 0.318176 0.612372 0.162403 0.612372 0 
C 0.612372 -0.162403 0.547849 -0.318176 0.433013 -0.433013 
C 0.318176 -0.547849 0.162403 -0.612372 0 -0.612372 
C -0.162403 -0.612372 -0.318176 -0.547849 -0.433013 -0.433013 
C -0.547849 -0.318176 -0.612372 -0.162403 -0.612372 0 
C -0.612372 0.162403 -0.547849 0.318176 -0.433013 0.433013 
C -0.318176 0.547849 -0.162403 0.612372 0 0.612372 
z
" id="mcef98b98ef" style="stroke:#000000;"/>
    </defs>
    <g clip-path="url(#p05e21e3886)">
     <use style="stroke:#000000;" x="247.964229" xlink:href="#mcef98b98ef" y="174.528"/>
     <use style="stroke:#000000;" x="251.139507" xlink:href="#mcef98b98ef" y="173.803952"/>
     <use style="stroke:#000000;" x="247.376934" xlink:href="#mcef98b98ef" y="174.19039"/>
     <use style="stroke:#000000;" x="237.216269" xlink:href="#mcef98b98ef" y="174.41931"/>
     <use style="stroke:#000000;" x="240.132417" xlink:href="#mcef98b98ef" y="174.528"/>
     <use style="stroke:#000000;" x="237.285189" xlink:href="#mcef98b98ef" y="174.500155"/>
     <use style="stroke:#000000;" x="247.958851" xlink:href="#mcef98b98ef" y="174.497741"/>
     <use style="stroke:#000000;" x="251.078172" xlink:href="#mcef98b98ef" y="174.224288"/>
     <use style="stroke:#000000;" x="247.711385" xlink:href="#mcef98b98ef" y="174.528"/>
     <use style="stroke:#000000;" x="239.909888" xlink:href="#mcef98b98ef" y="174.387386"/>
     <use style="stroke:#000000;" x="250.997676" xlink:href="#mcef98b98ef" y="173.833042"/>
     <use style="stroke:#000000;" x="251.031196" xlink:href="#mcef98b98ef" y="174.021506"/>
     <use style="stroke:#000000;" x="239.896816" xlink:href="#mcef98b98ef" y="174.334892"/>
     <use style="stroke:#000000;" x="250.926243" xlink:href="#mcef98b98ef" y="173.924898"/>
     <use style="stroke:#000000;" x="240.013283" xlink:href="#mcef98b98ef" y="174.411278"/>
     <use style="stroke:#000000;" x="239.997423" xlink:href="#mcef98b98ef" y="174.405139"/>
     <use style="stroke:#000000;" x="251.089032" xlink:href="#mcef98b98ef" y="173.88267"/>
     <use style="stroke:#000000;" x="239.864378" xlink:href="#mcef98b98ef" y="174.528"/>
     <use style="stroke:#000000;" x="239.819093" xlink:href="#mcef98b98ef" y="174.334711"/>
     <use style="stroke:#000000;" x="237.201602" xlink:href="#mcef98b98ef" y="174.373338"/>
     <use style="stroke:#000000;" x="251.065955" xlink:href="#mcef98b98ef" y="173.988478"/>
     <use style="stroke:#000000;" x="237.172956" xlink:href="#mcef98b98ef" y="174.307467"/>
     <use style="stroke:#000000;" x="247.42096" xlink:href="#mcef98b98ef" y="174.528"/>
     <use style="stroke:#000000;" x="247.452611" xlink:href="#mcef98b98ef" y="174.528"/>
     <use style="stroke:#000000;" x="240.259516" xlink:href="#mcef98b98ef" y="174.120458"/>
     <use style="stroke:#000000;" x="239.990514" xlink:href="#mcef98b98ef" y="174.308221"/>
     <use style="stroke:#000000;" x="239.861647" xlink:href="#mcef98b98ef" y="173.719688"/>
     <use style="stroke:#000000;" x="251.00206" xlink:href="#mcef98b98ef" y="173.810521"/>
     <use style="stroke:#000000;" x="240.521153" xlink:href="#mcef98b98ef" y="174.464087"/>
     <use style="stroke:#000000;" x="236.976104" xlink:href="#mcef98b98ef" y="174.528"/>
     <use style="stroke:#000000;" x="237.096049" xlink:href="#mcef98b98ef" y="174.439259"/>
     <use style="stroke:#000000;" x="251.177615" xlink:href="#mcef98b98ef" y="173.747841"/>
     <use style="stroke:#000000;" x="251.318459" xlink:href="#mcef98b98ef" y="174.363988"/>
     <use style="stroke:#000000;" x="247.565417" xlink:href="#mcef98b98ef" y="174.351484"/>
     <use style="stroke:#000000;" x="236.3896" xlink:href="#mcef98b98ef" y="174.392883"/>
     <use style="stroke:#000000;" x="239.901339" xlink:href="#mcef98b98ef" y="174.296025"/>
     <use style="stroke:#000000;" x="237.568464" xlink:href="#mcef98b98ef" y="174.150442"/>
     <use style="stroke:#000000;" x="250.909052" xlink:href="#mcef98b98ef" y="173.940573"/>
     <use style="stroke:#000000;" x="247.304799" xlink:href="#mcef98b98ef" y="174.528"/>
     <use style="stroke:#000000;" x="247.606592" xlink:href="#mcef98b98ef" y="174.463344"/>
     <use style="stroke:#000000;" x="240.123153" xlink:href="#mcef98b98ef" y="174.272858"/>
     <use style="stroke:#000000;" x="236.361164" xlink:href="#mcef98b98ef" y="174.325065"/>
     <use style="stroke:#000000;" x="247.174558" xlink:href="#mcef98b98ef" y="174.528"/>
     <use style="stroke:#000000;" x="236.203479" xlink:href="#mcef98b98ef" y="174.507132"/>
     <use style="stroke:#000000;" x="240.504163" xlink:href="#mcef98b98ef" y="174.528"/>
     <use style="stroke:#000000;" x="236.222976" xlink:href="#mcef98b98ef" y="174.407544"/>
     <use style="stroke:#000000;" x="240.215793" xlink:href="#mcef98b98ef" y="174.430315"/>
     <use style="stroke:#000000;" x="240.301373" xlink:href="#mcef98b98ef" y="174.444171"/>
     <use style="stroke:#000000;" x="236.806624" xlink:href="#mcef98b98ef" y="174.517394"/>
     <use style="stroke:#000000;" x="236.485523" xlink:href="#mcef98b98ef" y="174.246121"/>
     <use style="stroke:#000000;" x="236.344108" xlink:href="#mcef98b98ef" y="174.427555"/>
     <use style="stroke:#000000;" x="236.935606" xlink:href="#mcef98b98ef" y="174.50025"/>
     <use style="stroke:#000000;" x="236.910961" xlink:href="#mcef98b98ef" y="174.462612"/>
     <use style="stroke:#000000;" x="236.192955" xlink:href="#mcef98b98ef" y="174.528"/>
     <use style="stroke:#000000;" x="237.058908" xlink:href="#mcef98b98ef" y="174.468354"/>
     <use style="stroke:#000000;" x="236.922982" xlink:href="#mcef98b98ef" y="174.497941"/>
     <use style="stroke:#000000;" x="240.092893" xlink:href="#mcef98b98ef" y="174.344531"/>
     <use style="stroke:#000000;" x="240.502028" xlink:href="#mcef98b98ef" y="174.528"/>
     <use style="stroke:#000000;" x="236.290125" xlink:href="#mcef98b98ef" y="174.484906"/>
     <use style="stroke:#000000;" x="236.289068" xlink:href="#mcef98b98ef" y="174.405008"/>
     <use style="stroke:#000000;" x="247.996523" xlink:href="#mcef98b98ef" y="174.458298"/>
     <use style="stroke:#000000;" x="247.912047" xlink:href="#mcef98b98ef" y="174.528"/>
     <use style="stroke:#000000;" x="248.07548" xlink:href="#mcef98b98ef" y="174.528"/>
     <use style="stroke:#000000;" x="250.618173" xlink:href="#mcef98b98ef" y="172.108089"/>
     <use style="stroke:#000000;" x="248.028823" xlink:href="#mcef98b98ef" y="174.528"/>
     <use style="stroke:#000000;" x="236.551791" xlink:href="#mcef98b98ef" y="173.592584"/>
     <use style="stroke:#000000;" x="240.040645" xlink:href="#mcef98b98ef" y="174.519048"/>
     <use style="stroke:#000000;" x="237.648594" xlink:href="#mcef98b98ef" y="173.693635"/>
     <use style="stroke:#000000;" x="247.637836" xlink:href="#mcef98b98ef" y="174.528"/>
     <use style="stroke:#000000;" x="251.335387" xlink:href="#mcef98b98ef" y="174.528"/>
     <use style="stroke:#000000;" x="247.470674" xlink:href="#mcef98b98ef" y="174.393247"/>
     <use style="stroke:#000000;" x="239.044601" xlink:href="#mcef98b98ef" y="174.164264"/>
     <use style="stroke:#000000;" x="251.011628" xlink:href="#mcef98b98ef" y="174.528"/>
     <use style="stroke:#000000;" x="251.426853" xlink:href="#mcef98b98ef" y="173.810154"/>
     <use style="stroke:#000000;" x="239.951349" xlink:href="#mcef98b98ef" y="173.736318"/>
     <use style="stroke:#000000;" x="250.941092" xlink:href="#mcef98b98ef" y="173.929363"/>
     <use style="stroke:#000000;" x="240.148186" xlink:href="#mcef98b98ef" y="174.423389"/>
     <use style="stroke:#000000;" x="240.194306" xlink:href="#mcef98b98ef" y="174.528"/>
     <use style="stroke:#000000;" x="251.200957" xlink:href="#mcef98b98ef" y="174.057255"/>
     <use style="stroke:#000000;" x="239.687235" xlink:href="#mcef98b98ef" y="174.475203"/>
     <use style="stroke:#000000;" x="239.926236" xlink:href="#mcef98b98ef" y="174.528"/>
     <use style="stroke:#000000;" x="237.423135" xlink:href="#mcef98b98ef" y="174.528"/>
     <use style="stroke:#000000;" x="250.839562" xlink:href="#mcef98b98ef" y="174.287674"/>
     <use style="stroke:#000000;" x="250.66707" xlink:href="#mcef98b98ef" y="173.923924"/>
     <use style="stroke:#000000;" x="237.329137" xlink:href="#mcef98b98ef" y="174.349552"/>
     <use style="stroke:#000000;" x="237.136272" xlink:href="#mcef98b98ef" y="174.528"/>
     <use style="stroke:#000000;" x="247.114545" xlink:href="#mcef98b98ef" y="174.528"/>
     <use style="stroke:#000000;" x="247.33715" xlink:href="#mcef98b98ef" y="174.364356"/>
     <use style="stroke:#000000;" x="247.312116" xlink:href="#mcef98b98ef" y="174.528"/>
     <use style="stroke:#000000;" x="247.48315" xlink:href="#mcef98b98ef" y="174.518058"/>
     <use style="stroke:#000000;" x="247.558199" xlink:href="#mcef98b98ef" y="174.284316"/>
     <use style="stroke:#000000;" x="240.317228" xlink:href="#mcef98b98ef" y="174.07696"/>
     <use style="stroke:#000000;" x="240.406659" xlink:href="#mcef98b98ef" y="173.973257"/>
     <use style="stroke:#000000;" x="240.08761" xlink:href="#mcef98b98ef" y="174.131701"/>
     <use style="stroke:#000000;" x="239.991686" xlink:href="#mcef98b98ef" y="174.29915"/>
     <use style="stroke:#000000;" x="239.958646" xlink:href="#mcef98b98ef" y="174.400421"/>
     <use style="stroke:#000000;" x="240.168772" xlink:href="#mcef98b98ef" y="174.229461"/>
     <use style="stroke:#000000;" x="239.691307" xlink:href="#mcef98b98ef" y="173.772022"/>
     <use style="stroke:#000000;" x="239.895408" xlink:href="#mcef98b98ef" y="173.587644"/>
     <use style="stroke:#000000;" x="240.005036" xlink:href="#mcef98b98ef" y="173.623328"/>
     <use style="stroke:#000000;" x="251.133671" xlink:href="#mcef98b98ef" y="173.811767"/>
     <use style="stroke:#000000;" x="250.818998" xlink:href="#mcef98b98ef" y="173.866295"/>
     <use style="stroke:#000000;" x="251.0228" xlink:href="#mcef98b98ef" y="173.869801"/>
     <use style="stroke:#000000;" x="240.703029" xlink:href="#mcef98b98ef" y="174.528"/>
     <use style="stroke:#000000;" x="240.215373" xlink:href="#mcef98b98ef" y="174.528"/>
     <use style="stroke:#000000;" x="240.321171" xlink:href="#mcef98b98ef" y="174.528"/>
     <use style="stroke:#000000;" x="236.934996" xlink:href="#mcef98b98ef" y="174.409362"/>
     <use style="stroke:#000000;" x="236.823409" xlink:href="#mcef98b98ef" y="174.528"/>
     <use style="stroke:#000000;" x="237.201608" xlink:href="#mcef98b98ef" y="174.458877"/>
     <use style="stroke:#000000;" x="237.090183" xlink:href="#mcef98b98ef" y="174.528"/>
     <use style="stroke:#000000;" x="237.086484" xlink:href="#mcef98b98ef" y="174.528"/>
     <use style="stroke:#000000;" x="237.020191" xlink:href="#mcef98b98ef" y="174.448103"/>
     <use style="stroke:#000000;" x="251.166856" xlink:href="#mcef98b98ef" y="173.711667"/>
     <use style="stroke:#000000;" x="251.166098" xlink:href="#mcef98b98ef" y="173.678711"/>
     <use style="stroke:#000000;" x="251.166827" xlink:href="#mcef98b98ef" y="173.768685"/>
     <use style="stroke:#000000;" x="251.361932" xlink:href="#mcef98b98ef" y="174.350109"/>
     <use style="stroke:#000000;" x="251.308899" xlink:href="#mcef98b98ef" y="174.332143"/>
     <use style="stroke:#000000;" x="251.348146" xlink:href="#mcef98b98ef" y="174.361105"/>
     <use style="stroke:#000000;" x="247.582592" xlink:href="#mcef98b98ef" y="174.397806"/>
     <use style="stroke:#000000;" x="247.526484" xlink:href="#mcef98b98ef" y="174.333883"/>
     <use style="stroke:#000000;" x="247.532931" xlink:href="#mcef98b98ef" y="174.304585"/>
     <use style="stroke:#000000;" x="236.582754" xlink:href="#mcef98b98ef" y="174.447034"/>
     <use style="stroke:#000000;" x="236.594579" xlink:href="#mcef98b98ef" y="174.358879"/>
     <use style="stroke:#000000;" x="236.16" xlink:href="#mcef98b98ef" y="174.273904"/>
     <use style="stroke:#000000;" x="239.846336" xlink:href="#mcef98b98ef" y="174.220951"/>
     <use style="stroke:#000000;" x="239.811822" xlink:href="#mcef98b98ef" y="174.302847"/>
     <use style="stroke:#000000;" x="239.733287" xlink:href="#mcef98b98ef" y="174.361792"/>
     <use style="stroke:#000000;" x="237.541643" xlink:href="#mcef98b98ef" y="174.125156"/>
     <use style="stroke:#000000;" x="237.739436" xlink:href="#mcef98b98ef" y="174.079734"/>
     <use style="stroke:#000000;" x="237.423616" xlink:href="#mcef98b98ef" y="174.099756"/>
     <use style="stroke:#000000;" x="251.084231" xlink:href="#mcef98b98ef" y="173.84449"/>
     <use style="stroke:#000000;" x="250.833369" xlink:href="#mcef98b98ef" y="174.038817"/>
     <use style="stroke:#000000;" x="251.010829" xlink:href="#mcef98b98ef" y="173.935579"/>
     <use style="stroke:#000000;" x="247.221602" xlink:href="#mcef98b98ef" y="174.319521"/>
     <use style="stroke:#000000;" x="247.074291" xlink:href="#mcef98b98ef" y="174.528"/>
     <use style="stroke:#000000;" x="247.343539" xlink:href="#mcef98b98ef" y="174.528"/>
     <use style="stroke:#000000;" x="247.789579" xlink:href="#mcef98b98ef" y="174.528"/>
     <use style="stroke:#000000;" x="247.484746" xlink:href="#mcef98b98ef" y="174.367377"/>
     <use style="stroke:#000000;" x="247.869394" xlink:href="#mcef98b98ef" y="174.338206"/>
     <use style="stroke:#000000;" x="240.086015" xlink:href="#mcef98b98ef" y="174.354523"/>
     <use style="stroke:#000000;" x="240.059849" xlink:href="#mcef98b98ef" y="174.262615"/>
     <use style="stroke:#000000;" x="240.15453" xlink:href="#mcef98b98ef" y="174.202128"/>
     <use style="stroke:#000000;" x="236.495841" xlink:href="#mcef98b98ef" y="174.422429"/>
     <use style="stroke:#000000;" x="236.250508" xlink:href="#mcef98b98ef" y="174.173851"/>
     <use style="stroke:#000000;" x="247.028547" xlink:href="#mcef98b98ef" y="174.528"/>
     <use style="stroke:#000000;" x="247.263424" xlink:href="#mcef98b98ef" y="174.528"/>
     <use style="stroke:#000000;" x="236.270868" xlink:href="#mcef98b98ef" y="174.528"/>
     <use style="stroke:#000000;" x="236.16" xlink:href="#mcef98b98ef" y="174.273604"/>
     <use style="stroke:#000000;" x="240.671317" xlink:href="#mcef98b98ef" y="174.528"/>
     <use style="stroke:#000000;" x="240.694465" xlink:href="#mcef98b98ef" y="174.528"/>
     <use style="stroke:#000000;" x="236.16" xlink:href="#mcef98b98ef" y="174.310088"/>
     <use style="stroke:#000000;" x="236.398529" xlink:href="#mcef98b98ef" y="174.528"/>
     <use style="stroke:#000000;" x="240.214237" xlink:href="#mcef98b98ef" y="174.086732"/>
     <use style="stroke:#000000;" x="239.906654" xlink:href="#mcef98b98ef" y="174.446748"/>
     <use style="stroke:#000000;" x="239.862311" xlink:href="#mcef98b98ef" y="174.528"/>
     <use style="stroke:#000000;" x="239.876598" xlink:href="#mcef98b98ef" y="174.528"/>
     <use style="stroke:#000000;" x="237.008782" xlink:href="#mcef98b98ef" y="174.528"/>
     <use style="stroke:#000000;" x="236.16" xlink:href="#mcef98b98ef" y="174.243896"/>
     <use style="stroke:#000000;" x="236.673693" xlink:href="#mcef98b98ef" y="174.469382"/>
     <use style="stroke:#000000;" x="236.574552" xlink:href="#mcef98b98ef" y="174.063272"/>
     <use style="stroke:#000000;" x="236.575776" xlink:href="#mcef98b98ef" y="174.528"/>
     <use style="stroke:#000000;" x="236.490159" xlink:href="#mcef98b98ef" y="173.701692"/>
     <use style="stroke:#000000;" x="237.628953" xlink:href="#mcef98b98ef" y="174.274508"/>
     <use style="stroke:#000000;" x="236.859057" xlink:href="#mcef98b98ef" y="174.407911"/>
     <use style="stroke:#000000;" x="237.07135" xlink:href="#mcef98b98ef" y="174.380644"/>
     <use style="stroke:#000000;" x="236.16" xlink:href="#mcef98b98ef" y="174.389744"/>
     <use style="stroke:#000000;" x="236.16" xlink:href="#mcef98b98ef" y="174.528"/>
     <use style="stroke:#000000;" x="237.186763" xlink:href="#mcef98b98ef" y="174.241056"/>
     <use style="stroke:#000000;" x="237.301478" xlink:href="#mcef98b98ef" y="174.442907"/>
     <use style="stroke:#000000;" x="236.455491" xlink:href="#mcef98b98ef" y="174.528"/>
     <use style="stroke:#000000;" x="236.815831" xlink:href="#mcef98b98ef" y="174.528"/>
     <use style="stroke:#000000;" x="239.914244" xlink:href="#mcef98b98ef" y="174.528"/>
     <use style="stroke:#000000;" x="240.042016" xlink:href="#mcef98b98ef" y="174.161551"/>
     <use style="stroke:#000000;" x="240.834764" xlink:href="#mcef98b98ef" y="174.528"/>
     <use style="stroke:#000000;" x="240.260671" xlink:href="#mcef98b98ef" y="174.502453"/>
     <use style="stroke:#000000;" x="236.260514" xlink:href="#mcef98b98ef" y="174.361292"/>
     <use style="stroke:#000000;" x="236.629123" xlink:href="#mcef98b98ef" y="174.528"/>
     <use style="stroke:#000000;" x="236.276436" xlink:href="#mcef98b98ef" y="174.402645"/>
     <use style="stroke:#000000;" x="236.322238" xlink:href="#mcef98b98ef" y="174.463342"/>
     <use style="stroke:#000000;" x="236.177703" xlink:href="#mcef98b98ef" y="174.409886"/>
     <use style="stroke:#000000;" x="236.337264" xlink:href="#mcef98b98ef" y="174.422495"/>
    </g>
   </g>
   <g id="PathCollection_2">
    <defs>
     <path d="M 0 0.935414 
C 0.248075 0.935414 0.486022 0.836853 0.661438 0.661438 
C 0.836853 0.486022 0.935414 0.248075 0.935414 0 
C 0.935414 -0.248075 0.836853 -0.486022 0.661438 -0.661438 
C 0.486022 -0.836853 0.248075 -0.935414 0 -0.935414 
C -0.248075 -0.935414 -0.486022 -0.836853 -0.661438 -0.661438 
C -0.836853 -0.486022 -0.935414 -0.248075 -0.935414 0 
C -0.935414 0.248075 -0.836853 0.486022 -0.661438 0.661438 
C -0.486022 0.836853 -0.248075 0.935414 0 0.935414 
z
" id="m987708fcd9" style="stroke:#0000ff;"/>
    </defs>
    <g clip-path="url(#p05e21e3886)">
     <use style="fill:#0000ff;stroke:#0000ff;" x="247.964229" xlink:href="#m987708fcd9" y="174.528"/>
     <use style="fill:#0000ff;stroke:#0000ff;" x="251.139507" xlink:href="#m987708fcd9" y="173.803952"/>
     <use style="fill:#0000ff;stroke:#0000ff;" x="247.376934" xlink:href="#m987708fcd9" y="174.19039"/>
     <use style="fill:#0000ff;stroke:#0000ff;" x="237.216269" xlink:href="#m987708fcd9" y="174.41931"/>
     <use style="fill:#0000ff;stroke:#0000ff;" x="240.132417" xlink:href="#m987708fcd9" y="174.528"/>
     <use style="fill:#0000ff;stroke:#0000ff;" x="237.285189" xlink:href="#m987708fcd9" y="174.500155"/>
     <use style="fill:#0000ff;stroke:#0000ff;" x="247.958851" xlink:href="#m987708fcd9" y="174.497741"/>
     <use style="fill:#0000ff;stroke:#0000ff;" x="251.078172" xlink:href="#m987708fcd9" y="174.224288"/>
     <use style="fill:#0000ff;stroke:#0000ff;" x="247.711385" xlink:href="#m987708fcd9" y="174.528"/>
     <use style="fill:#0000ff;stroke:#0000ff;" x="239.909888" xlink:href="#m987708fcd9" y="174.387386"/>
     <use style="fill:#0000ff;stroke:#0000ff;" x="250.997676" xlink:href="#m987708fcd9" y="173.833042"/>
     <use style="fill:#0000ff;stroke:#0000ff;" x="251.031196" xlink:href="#m987708fcd9" y="174.021506"/>
     <use style="fill:#0000ff;stroke:#0000ff;" x="239.896816" xlink:href="#m987708fcd9" y="174.334892"/>
     <use style="fill:#0000ff;stroke:#0000ff;" x="250.926243" xlink:href="#m987708fcd9" y="173.924898"/>
     <use style="fill:#0000ff;stroke:#0000ff;" x="240.013283" xlink:href="#m987708fcd9" y="174.411278"/>
     <use style="fill:#0000ff;stroke:#0000ff;" x="239.997423" xlink:href="#m987708fcd9" y="174.405139"/>
     <use style="fill:#0000ff;stroke:#0000ff;" x="251.089032" xlink:href="#m987708fcd9" y="173.88267"/>
     <use style="fill:#0000ff;stroke:#0000ff;" x="239.864378" xlink:href="#m987708fcd9" y="174.528"/>
     <use style="fill:#0000ff;stroke:#0000ff;" x="239.819093" xlink:href="#m987708fcd9" y="174.334711"/>
     <use style="fill:#0000ff;stroke:#0000ff;" x="237.201602" xlink:href="#m987708fcd9" y="174.373338"/>
     <use style="fill:#0000ff;stroke:#0000ff;" x="251.065955" xlink:href="#m987708fcd9" y="173.988478"/>
     <use style="fill:#0000ff;stroke:#0000ff;" x="237.172956" xlink:href="#m987708fcd9" y="174.307467"/>
     <use style="fill:#0000ff;stroke:#0000ff;" x="247.42096" xlink:href="#m987708fcd9" y="174.528"/>
     <use style="fill:#0000ff;stroke:#0000ff;" x="247.452611" xlink:href="#m987708fcd9" y="174.528"/>
     <use style="fill:#0000ff;stroke:#0000ff;" x="240.259516" xlink:href="#m987708fcd9" y="174.120458"/>
     <use style="fill:#0000ff;stroke:#0000ff;" x="239.990514" xlink:href="#m987708fcd9" y="174.308221"/>
     <use style="fill:#0000ff;stroke:#0000ff;" x="239.861647" xlink:href="#m987708fcd9" y="173.719688"/>
     <use style="fill:#0000ff;stroke:#0000ff;" x="251.00206" xlink:href="#m987708fcd9" y="173.810521"/>
     <use style="fill:#0000ff;stroke:#0000ff;" x="240.521153" xlink:href="#m987708fcd9" y="174.464087"/>
     <use style="fill:#0000ff;stroke:#0000ff;" x="236.976104" xlink:href="#m987708fcd9" y="174.528"/>
     <use style="fill:#0000ff;stroke:#0000ff;" x="237.096049" xlink:href="#m987708fcd9" y="174.439259"/>
     <use style="fill:#0000ff;stroke:#0000ff;" x="251.177615" xlink:href="#m987708fcd9" y="173.747841"/>
     <use style="fill:#0000ff;stroke:#0000ff;" x="251.318459" xlink:href="#m987708fcd9" y="174.363988"/>
     <use style="fill:#0000ff;stroke:#0000ff;" x="247.565417" xlink:href="#m987708fcd9" y="174.351484"/>
     <use style="fill:#0000ff;stroke:#0000ff;" x="236.3896" xlink:href="#m987708fcd9" y="174.392883"/>
     <use style="fill:#0000ff;stroke:#0000ff;" x="239.901339" xlink:href="#m987708fcd9" y="174.296025"/>
     <use style="fill:#0000ff;stroke:#0000ff;" x="237.568464" xlink:href="#m987708fcd9" y="174.150442"/>
     <use style="fill:#0000ff;stroke:#0000ff;" x="250.909052" xlink:href="#m987708fcd9" y="173.940573"/>
     <use style="fill:#0000ff;stroke:#0000ff;" x="247.304799" xlink:href="#m987708fcd9" y="174.528"/>
     <use style="fill:#0000ff;stroke:#0000ff;" x="247.606592" xlink:href="#m987708fcd9" y="174.463344"/>
     <use style="fill:#0000ff;stroke:#0000ff;" x="240.123153" xlink:href="#m987708fcd9" y="174.272858"/>
     <use style="fill:#0000ff;stroke:#0000ff;" x="236.361164" xlink:href="#m987708fcd9" y="174.325065"/>
     <use style="fill:#0000ff;stroke:#0000ff;" x="247.174558" xlink:href="#m987708fcd9" y="174.528"/>
     <use style="fill:#0000ff;stroke:#0000ff;" x="236.203479" xlink:href="#m987708fcd9" y="174.507132"/>
     <use style="fill:#0000ff;stroke:#0000ff;" x="240.504163" xlink:href="#m987708fcd9" y="174.528"/>
     <use style="fill:#0000ff;stroke:#0000ff;" x="236.222976" xlink:href="#m987708fcd9" y="174.407544"/>
     <use style="fill:#0000ff;stroke:#0000ff;" x="240.215793" xlink:href="#m987708fcd9" y="174.430315"/>
     <use style="fill:#0000ff;stroke:#0000ff;" x="240.301373" xlink:href="#m987708fcd9" y="174.444171"/>
     <use style="fill:#0000ff;stroke:#0000ff;" x="236.806624" xlink:href="#m987708fcd9" y="174.517394"/>
     <use style="fill:#0000ff;stroke:#0000ff;" x="236.485523" xlink:href="#m987708fcd9" y="174.246121"/>
     <use style="fill:#0000ff;stroke:#0000ff;" x="236.344108" xlink:href="#m987708fcd9" y="174.427555"/>
     <use style="fill:#0000ff;stroke:#0000ff;" x="236.935606" xlink:href="#m987708fcd9" y="174.50025"/>
     <use style="fill:#0000ff;stroke:#0000ff;" x="236.910961" xlink:href="#m987708fcd9" y="174.462612"/>
     <use style="fill:#0000ff;stroke:#0000ff;" x="236.192955" xlink:href="#m987708fcd9" y="174.528"/>
     <use style="fill:#0000ff;stroke:#0000ff;" x="237.058908" xlink:href="#m987708fcd9" y="174.468354"/>
     <use style="fill:#0000ff;stroke:#0000ff;" x="236.922982" xlink:href="#m987708fcd9" y="174.497941"/>
     <use style="fill:#0000ff;stroke:#0000ff;" x="240.092893" xlink:href="#m987708fcd9" y="174.344531"/>
     <use style="fill:#0000ff;stroke:#0000ff;" x="240.502028" xlink:href="#m987708fcd9" y="174.528"/>
     <use style="fill:#0000ff;stroke:#0000ff;" x="236.290125" xlink:href="#m987708fcd9" y="174.484906"/>
     <use style="fill:#0000ff;stroke:#0000ff;" x="236.289068" xlink:href="#m987708fcd9" y="174.405008"/>
    </g>
   </g>
   <g id="matplotlib.axis_1">
    <g id="xtick_1">
     <g id="line2d_1">
      <defs>
       <path d="M 0 0 
L 0 3.5 
" id="m411a5f48c9" style="stroke:#000000;stroke-width:0.8;"/>
      </defs>
      <g>
       <use style="stroke:#000000;stroke-width:0.8;" x="57.6" xlink:href="#m411a5f48c9" y="307.584"/>
      </g>
     </g>
     <g id="text_1">
      <!-- −10.0 -->
      <defs>
       <path d="M 10.59375 35.5 
L 73.1875 35.5 
L 73.1875 27.203125 
L 10.59375 27.203125 
z
" id="DejaVuSans-2212"/>
       <path d="M 12.40625 8.296875 
L 28.515625 8.296875 
L 28.515625 63.921875 
L 10.984375 60.40625 
L 10.984375 69.390625 
L 28.421875 72.90625 
L 38.28125 72.90625 
L 38.28125 8.296875 
L 54.390625 8.296875 
L 54.390625 0 
L 12.40625 0 
z
" id="DejaVuSans-31"/>
       <path d="M 31.78125 66.40625 
Q 24.171875 66.40625 20.328125 58.90625 
Q 16.5 51.421875 16.5 36.375 
Q 16.5 21.390625 20.328125 13.890625 
Q 24.171875 6.390625 31.78125 6.390625 
Q 39.453125 6.390625 43.28125 13.890625 
Q 47.125 21.390625 47.125 36.375 
Q 47.125 51.421875 43.28125 58.90625 
Q 39.453125 66.40625 31.78125 66.40625 
z
M 31.78125 74.21875 
Q 44.046875 74.21875 50.515625 64.515625 
Q 56.984375 54.828125 56.984375 36.375 
Q 56.984375 17.96875 50.515625 8.265625 
Q 44.046875 -1.421875 31.78125 -1.421875 
Q 19.53125 -1.421875 13.0625 8.265625 
Q 6.59375 17.96875 6.59375 36.375 
Q 6.59375 54.828125 13.0625 64.515625 
Q 19.53125 74.21875 31.78125 74.21875 
z
" id="DejaVuSans-30"/>
       <path d="M 10.6875 12.40625 
L 21 12.40625 
L 21 0 
L 10.6875 0 
z
" id="DejaVuSans-2e"/>
      </defs>
      <g transform="translate(42.277344 322.182437)scale(0.1 -0.1)">
       <use xlink:href="#DejaVuSans-2212"/>
       <use x="83.789062" xlink:href="#DejaVuSans-31"/>
       <use x="147.412109" xlink:href="#DejaVuSans-30"/>
       <use x="211.035156" xlink:href="#DejaVuSans-2e"/>
       <use x="242.822266" xlink:href="#DejaVuSans-30"/>
      </g>
     </g>
    </g>
    <g id="xtick_2">
     <g id="line2d_2">
      <g>
       <use style="stroke:#000000;stroke-width:0.8;" x="102.24" xlink:href="#m411a5f48c9" y="307.584"/>
      </g>
     </g>
     <g id="text_2">
      <!-- −7.5 -->
      <defs>
       <path d="M 8.203125 72.90625 
L 55.078125 72.90625 
L 55.078125 68.703125 
L 28.609375 0 
L 18.3125 0 
L 43.21875 64.59375 
L 8.203125 64.59375 
z
" id="DejaVuSans-37"/>
       <path d="M 10.796875 72.90625 
L 49.515625 72.90625 
L 49.515625 64.59375 
L 19.828125 64.59375 
L 19.828125 46.734375 
Q 21.96875 47.46875 24.109375 47.828125 
Q 26.265625 48.1875 28.421875 48.1875 
Q 40.625 48.1875 47.75 41.5 
Q 54.890625 34.8125 54.890625 23.390625 
Q 54.890625 11.625 47.5625 5.09375 
Q 40.234375 -1.421875 26.90625 -1.421875 
Q 22.3125 -1.421875 17.546875 -0.640625 
Q 12.796875 0.140625 7.71875 1.703125 
L 7.71875 11.625 
Q 12.109375 9.234375 16.796875 8.0625 
Q 21.484375 6.890625 26.703125 6.890625 
Q 35.15625 6.890625 40.078125 11.328125 
Q 45.015625 15.765625 45.015625 23.390625 
Q 45.015625 31 40.078125 35.4375 
Q 35.15625 39.890625 26.703125 39.890625 
Q 22.75 39.890625 18.8125 39.015625 
Q 14.890625 38.140625 10.796875 36.28125 
z
" id="DejaVuSans-35"/>
      </defs>
      <g transform="translate(90.098594 322.182437)scale(0.1 -0.1)">
       <use xlink:href="#DejaVuSans-2212"/>
       <use x="83.789062" xlink:href="#DejaVuSans-37"/>
       <use x="147.412109" xlink:href="#DejaVuSans-2e"/>
       <use x="179.199219" xlink:href="#DejaVuSans-35"/>
      </g>
     </g>
    </g>
    <g id="xtick_3">
     <g id="line2d_3">
      <g>
       <use style="stroke:#000000;stroke-width:0.8;" x="146.88" xlink:href="#m411a5f48c9" y="307.584"/>
      </g>
     </g>
     <g id="text_3">
      <!-- −5.0 -->
      <g transform="translate(134.738594 322.182437)scale(0.1 -0.1)">
       <use xlink:href="#DejaVuSans-2212"/>
       <use x="83.789062" xlink:href="#DejaVuSans-35"/>
       <use x="147.412109" xlink:href="#DejaVuSans-2e"/>
       <use x="179.199219" xlink:href="#DejaVuSans-30"/>
      </g>
     </g>
    </g>
    <g id="xtick_4">
     <g id="line2d_4">
      <g>
       <use style="stroke:#000000;stroke-width:0.8;" x="191.52" xlink:href="#m411a5f48c9" y="307.584"/>
      </g>
     </g>
     <g id="text_4">
      <!-- −2.5 -->
      <defs>
       <path d="M 19.1875 8.296875 
L 53.609375 8.296875 
L 53.609375 0 
L 7.328125 0 
L 7.328125 8.296875 
Q 12.9375 14.109375 22.625 23.890625 
Q 32.328125 33.6875 34.8125 36.53125 
Q 39.546875 41.84375 41.421875 45.53125 
Q 43.3125 49.21875 43.3125 52.78125 
Q 43.3125 58.59375 39.234375 62.25 
Q 35.15625 65.921875 28.609375 65.921875 
Q 23.96875 65.921875 18.8125 64.3125 
Q 13.671875 62.703125 7.8125 59.421875 
L 7.8125 69.390625 
Q 13.765625 71.78125 18.9375 73 
Q 24.125 74.21875 28.421875 74.21875 
Q 39.75 74.21875 46.484375 68.546875 
Q 53.21875 62.890625 53.21875 53.421875 
Q 53.21875 48.921875 51.53125 44.890625 
Q 49.859375 40.875 45.40625 35.40625 
Q 44.1875 33.984375 37.640625 27.21875 
Q 31.109375 20.453125 19.1875 8.296875 
z
" id="DejaVuSans-32"/>
      </defs>
      <g transform="translate(179.378594 322.182437)scale(0.1 -0.1)">
       <use xlink:href="#DejaVuSans-2212"/>
       <use x="83.789062" xlink:href="#DejaVuSans-32"/>
       <use x="147.412109" xlink:href="#DejaVuSans-2e"/>
       <use x="179.199219" xlink:href="#DejaVuSans-35"/>
      </g>
     </g>
    </g>
    <g id="xtick_5">
     <g id="line2d_5">
      <g>
       <use style="stroke:#000000;stroke-width:0.8;" x="236.16" xlink:href="#m411a5f48c9" y="307.584"/>
      </g>
     </g>
     <g id="text_5">
      <!-- 0.0 -->
      <g transform="translate(228.208438 322.182437)scale(0.1 -0.1)">
       <use xlink:href="#DejaVuSans-30"/>
       <use x="63.623047" xlink:href="#DejaVuSans-2e"/>
       <use x="95.410156" xlink:href="#DejaVuSans-30"/>
      </g>
     </g>
    </g>
    <g id="xtick_6">
     <g id="line2d_6">
      <g>
       <use style="stroke:#000000;stroke-width:0.8;" x="280.8" xlink:href="#m411a5f48c9" y="307.584"/>
      </g>
     </g>
     <g id="text_6">
      <!-- 2.5 -->
      <g transform="translate(272.848437 322.182437)scale(0.1 -0.1)">
       <use xlink:href="#DejaVuSans-32"/>
       <use x="63.623047" xlink:href="#DejaVuSans-2e"/>
       <use x="95.410156" xlink:href="#DejaVuSans-35"/>
      </g>
     </g>
    </g>
    <g id="xtick_7">
     <g id="line2d_7">
      <g>
       <use style="stroke:#000000;stroke-width:0.8;" x="325.44" xlink:href="#m411a5f48c9" y="307.584"/>
      </g>
     </g>
     <g id="text_7">
      <!-- 5.0 -->
      <g transform="translate(317.488437 322.182437)scale(0.1 -0.1)">
       <use xlink:href="#DejaVuSans-35"/>
       <use x="63.623047" xlink:href="#DejaVuSans-2e"/>
       <use x="95.410156" xlink:href="#DejaVuSans-30"/>
      </g>
     </g>
    </g>
    <g id="xtick_8">
     <g id="line2d_8">
      <g>
       <use style="stroke:#000000;stroke-width:0.8;" x="370.08" xlink:href="#m411a5f48c9" y="307.584"/>
      </g>
     </g>
     <g id="text_8">
      <!-- 7.5 -->
      <g transform="translate(362.128438 322.182437)scale(0.1 -0.1)">
       <use xlink:href="#DejaVuSans-37"/>
       <use x="63.623047" xlink:href="#DejaVuSans-2e"/>
       <use x="95.410156" xlink:href="#DejaVuSans-35"/>
      </g>
     </g>
    </g>
    <g id="xtick_9">
     <g id="line2d_9">
      <g>
       <use style="stroke:#000000;stroke-width:0.8;" x="414.72" xlink:href="#m411a5f48c9" y="307.584"/>
      </g>
     </g>
     <g id="text_9">
      <!-- 10.0 -->
      <g transform="translate(403.587188 322.182437)scale(0.1 -0.1)">
       <use xlink:href="#DejaVuSans-31"/>
       <use x="63.623047" xlink:href="#DejaVuSans-30"/>
       <use x="127.246094" xlink:href="#DejaVuSans-2e"/>
       <use x="159.033203" xlink:href="#DejaVuSans-30"/>
      </g>
     </g>
    </g>
   </g>
   <g id="matplotlib.axis_2">
    <g id="ytick_1">
     <g id="line2d_10">
      <defs>
       <path d="M 0 0 
L -3.5 0 
" id="m29e443c7c2" style="stroke:#000000;stroke-width:0.8;"/>
      </defs>
      <g>
       <use style="stroke:#000000;stroke-width:0.8;" x="57.6" xlink:href="#m29e443c7c2" y="307.584"/>
      </g>
     </g>
     <g id="text_10">
      <!-- −10.0 -->
      <g transform="translate(19.954687 311.383219)scale(0.1 -0.1)">
       <use xlink:href="#DejaVuSans-2212"/>
       <use x="83.789062" xlink:href="#DejaVuSans-31"/>
       <use x="147.412109" xlink:href="#DejaVuSans-30"/>
       <use x="211.035156" xlink:href="#DejaVuSans-2e"/>
       <use x="242.822266" xlink:href="#DejaVuSans-30"/>
      </g>
     </g>
    </g>
    <g id="ytick_2">
     <g id="line2d_11">
      <g>
       <use style="stroke:#000000;stroke-width:0.8;" x="57.6" xlink:href="#m29e443c7c2" y="274.32"/>
      </g>
     </g>
     <g id="text_11">
      <!-- −7.5 -->
      <g transform="translate(26.317187 278.119219)scale(0.1 -0.1)">
       <use xlink:href="#DejaVuSans-2212"/>
       <use x="83.789062" xlink:href="#DejaVuSans-37"/>
       <use x="147.412109" xlink:href="#DejaVuSans-2e"/>
       <use x="179.199219" xlink:href="#DejaVuSans-35"/>
      </g>
     </g>
    </g>
    <g id="ytick_3">
     <g id="line2d_12">
      <g>
       <use style="stroke:#000000;stroke-width:0.8;" x="57.6" xlink:href="#m29e443c7c2" y="241.056"/>
      </g>
     </g>
     <g id="text_12">
      <!-- −5.0 -->
      <g transform="translate(26.317187 244.855219)scale(0.1 -0.1)">
       <use xlink:href="#DejaVuSans-2212"/>
       <use x="83.789062" xlink:href="#DejaVuSans-35"/>
       <use x="147.412109" xlink:href="#DejaVuSans-2e"/>
       <use x="179.199219" xlink:href="#DejaVuSans-30"/>
      </g>
     </g>
    </g>
    <g id="ytick_4">
     <g id="line2d_13">
      <g>
       <use style="stroke:#000000;stroke-width:0.8;" x="57.6" xlink:href="#m29e443c7c2" y="207.792"/>
      </g>
     </g>
     <g id="text_13">
      <!-- −2.5 -->
      <g transform="translate(26.317187 211.591219)scale(0.1 -0.1)">
       <use xlink:href="#DejaVuSans-2212"/>
       <use x="83.789062" xlink:href="#DejaVuSans-32"/>
       <use x="147.412109" xlink:href="#DejaVuSans-2e"/>
       <use x="179.199219" xlink:href="#DejaVuSans-35"/>
      </g>
     </g>
    </g>
    <g id="ytick_5">
     <g id="line2d_14">
      <g>
       <use style="stroke:#000000;stroke-width:0.8;" x="57.6" xlink:href="#m29e443c7c2" y="174.528"/>
      </g>
     </g>
     <g id="text_14">
      <!-- 0.0 -->
      <g transform="translate(34.696875 178.327219)scale(0.1 -0.1)">
       <use xlink:href="#DejaVuSans-30"/>
       <use x="63.623047" xlink:href="#DejaVuSans-2e"/>
       <use x="95.410156" xlink:href="#DejaVuSans-30"/>
      </g>
     </g>
    </g>
    <g id="ytick_6">
     <g id="line2d_15">
      <g>
       <use style="stroke:#000000;stroke-width:0.8;" x="57.6" xlink:href="#m29e443c7c2" y="141.264"/>
      </g>
     </g>
     <g id="text_15">
      <!-- 2.5 -->
      <g transform="translate(34.696875 145.063219)scale(0.1 -0.1)">
       <use xlink:href="#DejaVuSans-32"/>
       <use x="63.623047" xlink:href="#DejaVuSans-2e"/>
       <use x="95.410156" xlink:href="#DejaVuSans-35"/>
      </g>
     </g>
    </g>
    <g id="ytick_7">
     <g id="line2d_16">
      <g>
       <use style="stroke:#000000;stroke-width:0.8;" x="57.6" xlink:href="#m29e443c7c2" y="108"/>
      </g>
     </g>
     <g id="text_16">
      <!-- 5.0 -->
      <g transform="translate(34.696875 111.799219)scale(0.1 -0.1)">
       <use xlink:href="#DejaVuSans-35"/>
       <use x="63.623047" xlink:href="#DejaVuSans-2e"/>
       <use x="95.410156" xlink:href="#DejaVuSans-30"/>
      </g>
     </g>
    </g>
    <g id="ytick_8">
     <g id="line2d_17">
      <g>
       <use style="stroke:#000000;stroke-width:0.8;" x="57.6" xlink:href="#m29e443c7c2" y="74.736"/>
      </g>
     </g>
     <g id="text_17">
      <!-- 7.5 -->
      <g transform="translate(34.696875 78.535219)scale(0.1 -0.1)">
       <use xlink:href="#DejaVuSans-37"/>
       <use x="63.623047" xlink:href="#DejaVuSans-2e"/>
       <use x="95.410156" xlink:href="#DejaVuSans-35"/>
      </g>
     </g>
    </g>
    <g id="ytick_9">
     <g id="line2d_18">
      <g>
       <use style="stroke:#000000;stroke-width:0.8;" x="57.6" xlink:href="#m29e443c7c2" y="41.472"/>
      </g>
     </g>
     <g id="text_18">
      <!-- 10.0 -->
      <g transform="translate(28.334375 45.271219)scale(0.1 -0.1)">
       <use xlink:href="#DejaVuSans-31"/>
       <use x="63.623047" xlink:href="#DejaVuSans-30"/>
       <use x="127.246094" xlink:href="#DejaVuSans-2e"/>
       <use x="159.033203" xlink:href="#DejaVuSans-30"/>
      </g>
     </g>
    </g>
   </g>
   <g id="patch_3">
    <path d="M 57.6 307.584 
L 57.6 41.472 
" style="fill:none;stroke:#000000;stroke-linecap:square;stroke-linejoin:miter;stroke-width:0.8;"/>
   </g>
   <g id="patch_4">
    <path d="M 414.72 307.584 
L 414.72 41.472 
" style="fill:none;stroke:#000000;stroke-linecap:square;stroke-linejoin:miter;stroke-width:0.8;"/>
   </g>
   <g id="patch_5">
    <path d="M 57.6 307.584 
L 414.72 307.584 
" style="fill:none;stroke:#000000;stroke-linecap:square;stroke-linejoin:miter;stroke-width:0.8;"/>
   </g>
   <g id="patch_6">
    <path d="M 57.6 41.472 
L 414.72 41.472 
" style="fill:none;stroke:#000000;stroke-linecap:square;stroke-linejoin:miter;stroke-width:0.8;"/>
   </g>
  </g>
 </g>
 <defs>
  <clipPath id="p05e21e3886">
   <rect height="266.112" width="357.12" x="57.6" y="41.472"/>
  </clipPath>
 </defs>
</svg>
