<?xml version="1.0" encoding="utf-8" standalone="no"?>
<!DOCTYPE svg PUBLIC "-//W3C//DTD SVG 1.1//EN"
  "http://www.w3.org/Graphics/SVG/1.1/DTD/svg11.dtd">
<!-- Created with matplotlib (http://matplotlib.org/) -->
<svg height="345.6pt" version="1.1" viewBox="0 0 460.8 345.6" width="460.8pt" xmlns="http://www.w3.org/2000/svg" xmlns:xlink="http://www.w3.org/1999/xlink">
 <defs>
  <style type="text/css">
*{stroke-linecap:butt;stroke-linejoin:round;}
  </style>
 </defs>
 <g id="figure_1">
  <g id="patch_1">
   <path d="M 0 345.6 
L 460.8 345.6 
L 460.8 0 
L 0 0 
z
" style="fill:#ffffff;"/>
  </g>
  <g id="axes_1">
   <g id="patch_2">
    <path d="M 57.6 307.584 
L 414.72 307.584 
L 414.72 41.472 
L 57.6 41.472 
z
" style="fill:#ffffff;"/>
   </g>
   <g id="PathCollection_1">
    <defs>
     <path d="M 0 0.612372 
C 0.162403 0.612372 0.318176 0.547849 0.433013 0.433013 
C 0.547849 0.318176 0.612372 0.162403 0.612372 0 
C 0.612372 -0.162403 0.547849 -0.318176 0.433013 -0.433013 
C 0.318176 -0.547849 0.162403 -0.612372 0 -0.612372 
C -0.162403 -0.612372 -0.318176 -0.547849 -0.433013 -0.433013 
C -0.547849 -0.318176 -0.612372 -0.162403 -0.612372 0 
C -0.612372 0.162403 -0.547849 0.318176 -0.433013 0.433013 
C -0.318176 0.547849 -0.162403 0.612372 0 0.612372 
z
" id="mcf0ff2f6cd" style="stroke:#000000;"/>
    </defs>
    <g clip-path="url(#p0b4728de26)">
     <use style="stroke:#000000;" x="251.042047" xlink:href="#mcf0ff2f6cd" y="162.222861"/>
     <use style="stroke:#000000;" x="239.473814" xlink:href="#mcf0ff2f6cd" y="170.087531"/>
     <use style="stroke:#000000;" x="240.009824" xlink:href="#mcf0ff2f6cd" y="161.2224"/>
     <use style="stroke:#000000;" x="251.389452" xlink:href="#mcf0ff2f6cd" y="171.176652"/>
     <use style="stroke:#000000;" x="240.384886" xlink:href="#mcf0ff2f6cd" y="169.160545"/>
     <use style="stroke:#000000;" x="244.449833" xlink:href="#mcf0ff2f6cd" y="161.2224"/>
     <use style="stroke:#000000;" x="244.501713" xlink:href="#mcf0ff2f6cd" y="173.883836"/>
     <use style="stroke:#000000;" x="247.522239" xlink:href="#mcf0ff2f6cd" y="161.2224"/>
     <use style="stroke:#000000;" x="236.16" xlink:href="#mcf0ff2f6cd" y="170.605876"/>
     <use style="stroke:#000000;" x="236.796744" xlink:href="#mcf0ff2f6cd" y="171.350072"/>
     <use style="stroke:#000000;" x="238.691489" xlink:href="#mcf0ff2f6cd" y="170.357692"/>
     <use style="stroke:#000000;" x="240.354166" xlink:href="#mcf0ff2f6cd" y="169.452963"/>
     <use style="stroke:#000000;" x="251.117061" xlink:href="#mcf0ff2f6cd" y="171.369472"/>
     <use style="stroke:#000000;" x="237.377208" xlink:href="#mcf0ff2f6cd" y="169.289187"/>
     <use style="stroke:#000000;" x="247.261104" xlink:href="#mcf0ff2f6cd" y="164.205267"/>
     <use style="stroke:#000000;" x="250.891151" xlink:href="#mcf0ff2f6cd" y="167.386348"/>
     <use style="stroke:#000000;" x="237.180538" xlink:href="#mcf0ff2f6cd" y="168.069729"/>
     <use style="stroke:#000000;" x="247.854221" xlink:href="#mcf0ff2f6cd" y="165.46771"/>
     <use style="stroke:#000000;" x="236.392569" xlink:href="#mcf0ff2f6cd" y="169.330486"/>
     <use style="stroke:#000000;" x="243.913323" xlink:href="#mcf0ff2f6cd" y="168.811602"/>
     <use style="stroke:#000000;" x="237.069201" xlink:href="#mcf0ff2f6cd" y="169.448258"/>
     <use style="stroke:#000000;" x="236.798693" xlink:href="#mcf0ff2f6cd" y="171.699325"/>
     <use style="stroke:#000000;" x="251.250071" xlink:href="#mcf0ff2f6cd" y="170.880541"/>
     <use style="stroke:#000000;" x="239.798008" xlink:href="#mcf0ff2f6cd" y="163.195555"/>
     <use style="stroke:#000000;" x="251.225129" xlink:href="#mcf0ff2f6cd" y="170.728587"/>
     <use style="stroke:#000000;" x="251.272087" xlink:href="#mcf0ff2f6cd" y="169.310186"/>
     <use style="stroke:#000000;" x="241.111256" xlink:href="#mcf0ff2f6cd" y="174.331726"/>
     <use style="stroke:#000000;" x="244.169341" xlink:href="#mcf0ff2f6cd" y="163.539433"/>
     <use style="stroke:#000000;" x="240.749909" xlink:href="#mcf0ff2f6cd" y="166.851046"/>
     <use style="stroke:#000000;" x="244.040255" xlink:href="#mcf0ff2f6cd" y="161.723105"/>
     <use style="stroke:#000000;" x="240.908866" xlink:href="#mcf0ff2f6cd" y="171.922628"/>
     <use style="stroke:#000000;" x="243.832043" xlink:href="#mcf0ff2f6cd" y="169.860944"/>
     <use style="stroke:#000000;" x="240.067746" xlink:href="#mcf0ff2f6cd" y="172.665868"/>
     <use style="stroke:#000000;" x="244.478074" xlink:href="#mcf0ff2f6cd" y="172.282328"/>
     <use style="stroke:#000000;" x="247.303438" xlink:href="#mcf0ff2f6cd" y="164.109639"/>
     <use style="stroke:#000000;" x="247.197687" xlink:href="#mcf0ff2f6cd" y="168.461893"/>
     <use style="stroke:#000000;" x="247.603621" xlink:href="#mcf0ff2f6cd" y="162.918316"/>
     <use style="stroke:#000000;" x="236.16" xlink:href="#mcf0ff2f6cd" y="169.157538"/>
     <use style="stroke:#000000;" x="239.720423" xlink:href="#mcf0ff2f6cd" y="170.930304"/>
     <use style="stroke:#000000;" x="239.643001" xlink:href="#mcf0ff2f6cd" y="173.417932"/>
     <use style="stroke:#000000;" x="239.347506" xlink:href="#mcf0ff2f6cd" y="172.329924"/>
     <use style="stroke:#000000;" x="237.520439" xlink:href="#mcf0ff2f6cd" y="170.233158"/>
     <use style="stroke:#000000;" x="240.374047" xlink:href="#mcf0ff2f6cd" y="172.853203"/>
     <use style="stroke:#000000;" x="250.903017" xlink:href="#mcf0ff2f6cd" y="165.23782"/>
     <use style="stroke:#000000;" x="250.923305" xlink:href="#mcf0ff2f6cd" y="161.2224"/>
     <use style="stroke:#000000;" x="250.947103" xlink:href="#mcf0ff2f6cd" y="171.588394"/>
     <use style="stroke:#000000;" x="236.502596" xlink:href="#mcf0ff2f6cd" y="169.529232"/>
     <use style="stroke:#000000;" x="248.057415" xlink:href="#mcf0ff2f6cd" y="169.917491"/>
     <use style="stroke:#000000;" x="248.242736" xlink:href="#mcf0ff2f6cd" y="165.595239"/>
     <use style="stroke:#000000;" x="237.361164" xlink:href="#mcf0ff2f6cd" y="172.384309"/>
     <use style="stroke:#000000;" x="251.406275" xlink:href="#mcf0ff2f6cd" y="168.710555"/>
     <use style="stroke:#000000;" x="236.930265" xlink:href="#mcf0ff2f6cd" y="167.022775"/>
     <use style="stroke:#000000;" x="244.24573" xlink:href="#mcf0ff2f6cd" y="173.291592"/>
     <use style="stroke:#000000;" x="243.695527" xlink:href="#mcf0ff2f6cd" y="161.724413"/>
     <use style="stroke:#000000;" x="245.185246" xlink:href="#mcf0ff2f6cd" y="171.095811"/>
     <use style="stroke:#000000;" x="240.951564" xlink:href="#mcf0ff2f6cd" y="169.845048"/>
     <use style="stroke:#000000;" x="240.858919" xlink:href="#mcf0ff2f6cd" y="172.745199"/>
     <use style="stroke:#000000;" x="243.962667" xlink:href="#mcf0ff2f6cd" y="165.772562"/>
     <use style="stroke:#000000;" x="240.230257" xlink:href="#mcf0ff2f6cd" y="165.069734"/>
     <use style="stroke:#000000;" x="247.375765" xlink:href="#mcf0ff2f6cd" y="168.268217"/>
     <use style="stroke:#000000;" x="251.702255" xlink:href="#mcf0ff2f6cd" y="162.054593"/>
     <use style="stroke:#000000;" x="250.48327" xlink:href="#mcf0ff2f6cd" y="162.297644"/>
     <use style="stroke:#000000;" x="250.768135" xlink:href="#mcf0ff2f6cd" y="162.28929"/>
     <use style="stroke:#000000;" x="241.653028" xlink:href="#mcf0ff2f6cd" y="168.769634"/>
     <use style="stroke:#000000;" x="241.051796" xlink:href="#mcf0ff2f6cd" y="168.341741"/>
     <use style="stroke:#000000;" x="243.033169" xlink:href="#mcf0ff2f6cd" y="161.308626"/>
     <use style="stroke:#000000;" x="238.795451" xlink:href="#mcf0ff2f6cd" y="161.2224"/>
     <use style="stroke:#000000;" x="251.025109" xlink:href="#mcf0ff2f6cd" y="172.044259"/>
     <use style="stroke:#000000;" x="250.933129" xlink:href="#mcf0ff2f6cd" y="171.241888"/>
     <use style="stroke:#000000;" x="252.634652" xlink:href="#mcf0ff2f6cd" y="172.273788"/>
     <use style="stroke:#000000;" x="241.27209" xlink:href="#mcf0ff2f6cd" y="170.550012"/>
     <use style="stroke:#000000;" x="240.573132" xlink:href="#mcf0ff2f6cd" y="169.513327"/>
     <use style="stroke:#000000;" x="242.441054" xlink:href="#mcf0ff2f6cd" y="167.748131"/>
     <use style="stroke:#000000;" x="242.379142" xlink:href="#mcf0ff2f6cd" y="163.072451"/>
     <use style="stroke:#000000;" x="241.060711" xlink:href="#mcf0ff2f6cd" y="161.2224"/>
     <use style="stroke:#000000;" x="241.423138" xlink:href="#mcf0ff2f6cd" y="164.394266"/>
     <use style="stroke:#000000;" x="245.525376" xlink:href="#mcf0ff2f6cd" y="173.660094"/>
     <use style="stroke:#000000;" x="248.154087" xlink:href="#mcf0ff2f6cd" y="174.528"/>
     <use style="stroke:#000000;" x="241.763838" xlink:href="#mcf0ff2f6cd" y="174.528"/>
     <use style="stroke:#000000;" x="249.590096" xlink:href="#mcf0ff2f6cd" y="161.267506"/>
     <use style="stroke:#000000;" x="248.703039" xlink:href="#mcf0ff2f6cd" y="161.2224"/>
     <use style="stroke:#000000;" x="249.42438" xlink:href="#mcf0ff2f6cd" y="161.3012"/>
     <use style="stroke:#000000;" x="236.16" xlink:href="#mcf0ff2f6cd" y="173.766896"/>
     <use style="stroke:#000000;" x="236.536252" xlink:href="#mcf0ff2f6cd" y="171.702412"/>
     <use style="stroke:#000000;" x="236.634256" xlink:href="#mcf0ff2f6cd" y="169.659851"/>
     <use style="stroke:#000000;" x="237.759593" xlink:href="#mcf0ff2f6cd" y="166.740937"/>
     <use style="stroke:#000000;" x="236.16" xlink:href="#mcf0ff2f6cd" y="170.795641"/>
     <use style="stroke:#000000;" x="236.16" xlink:href="#mcf0ff2f6cd" y="171.150637"/>
     <use style="stroke:#000000;" x="237.570112" xlink:href="#mcf0ff2f6cd" y="172.311813"/>
     <use style="stroke:#000000;" x="238.445831" xlink:href="#mcf0ff2f6cd" y="169.127191"/>
     <use style="stroke:#000000;" x="239.419507" xlink:href="#mcf0ff2f6cd" y="172.089974"/>
     <use style="stroke:#000000;" x="236.906417" xlink:href="#mcf0ff2f6cd" y="169.06459"/>
     <use style="stroke:#000000;" x="239.656166" xlink:href="#mcf0ff2f6cd" y="167.778085"/>
     <use style="stroke:#000000;" x="239.950368" xlink:href="#mcf0ff2f6cd" y="170.315999"/>
     <use style="stroke:#000000;" x="250.320196" xlink:href="#mcf0ff2f6cd" y="172.018662"/>
     <use style="stroke:#000000;" x="250.024548" xlink:href="#mcf0ff2f6cd" y="170.869306"/>
     <use style="stroke:#000000;" x="252.076956" xlink:href="#mcf0ff2f6cd" y="170.006587"/>
     <use style="stroke:#000000;" x="239.190116" xlink:href="#mcf0ff2f6cd" y="168.109645"/>
     <use style="stroke:#000000;" x="240.381628" xlink:href="#mcf0ff2f6cd" y="169.010071"/>
     <use style="stroke:#000000;" x="238.38716" xlink:href="#mcf0ff2f6cd" y="166.298025"/>
     <use style="stroke:#000000;" x="249.298728" xlink:href="#mcf0ff2f6cd" y="164.791176"/>
     <use style="stroke:#000000;" x="249.655081" xlink:href="#mcf0ff2f6cd" y="161.879497"/>
     <use style="stroke:#000000;" x="249.091452" xlink:href="#mcf0ff2f6cd" y="163.702757"/>
     <use style="stroke:#000000;" x="254.016" xlink:href="#mcf0ff2f6cd" y="168.249566"/>
     <use style="stroke:#000000;" x="254.016" xlink:href="#mcf0ff2f6cd" y="167.473437"/>
     <use style="stroke:#000000;" x="254.016" xlink:href="#mcf0ff2f6cd" y="168.97016"/>
     <use style="stroke:#000000;" x="237.012069" xlink:href="#mcf0ff2f6cd" y="168.465664"/>
     <use style="stroke:#000000;" x="236.16" xlink:href="#mcf0ff2f6cd" y="166.040898"/>
     <use style="stroke:#000000;" x="237.946973" xlink:href="#mcf0ff2f6cd" y="169.536444"/>
     <use style="stroke:#000000;" x="247.909615" xlink:href="#mcf0ff2f6cd" y="169.875782"/>
     <use style="stroke:#000000;" x="251.096749" xlink:href="#mcf0ff2f6cd" y="164.281191"/>
     <use style="stroke:#000000;" x="246.260328" xlink:href="#mcf0ff2f6cd" y="165.281358"/>
     <use style="stroke:#000000;" x="236.16" xlink:href="#mcf0ff2f6cd" y="170.261103"/>
     <use style="stroke:#000000;" x="239.409221" xlink:href="#mcf0ff2f6cd" y="171.065925"/>
     <use style="stroke:#000000;" x="236.16" xlink:href="#mcf0ff2f6cd" y="169.385119"/>
     <use style="stroke:#000000;" x="244.975256" xlink:href="#mcf0ff2f6cd" y="171.743655"/>
     <use style="stroke:#000000;" x="247.208354" xlink:href="#mcf0ff2f6cd" y="167.290966"/>
     <use style="stroke:#000000;" x="244.484822" xlink:href="#mcf0ff2f6cd" y="167.800286"/>
     <use style="stroke:#000000;" x="238.015335" xlink:href="#mcf0ff2f6cd" y="169.928524"/>
     <use style="stroke:#000000;" x="239.302729" xlink:href="#mcf0ff2f6cd" y="167.870071"/>
     <use style="stroke:#000000;" x="238.003673" xlink:href="#mcf0ff2f6cd" y="169.67276"/>
     <use style="stroke:#000000;" x="237.457406" xlink:href="#mcf0ff2f6cd" y="171.588049"/>
     <use style="stroke:#000000;" x="240.170704" xlink:href="#mcf0ff2f6cd" y="174.528"/>
     <use style="stroke:#000000;" x="236.16" xlink:href="#mcf0ff2f6cd" y="169.382539"/>
     <use style="stroke:#000000;" x="238.66513" xlink:href="#mcf0ff2f6cd" y="172.438723"/>
     <use style="stroke:#000000;" x="253.052605" xlink:href="#mcf0ff2f6cd" y="171.662517"/>
     <use style="stroke:#000000;" x="253.098447" xlink:href="#mcf0ff2f6cd" y="171.989797"/>
     <use style="stroke:#000000;" x="240.334002" xlink:href="#mcf0ff2f6cd" y="163.291394"/>
     <use style="stroke:#000000;" x="238.957223" xlink:href="#mcf0ff2f6cd" y="166.282294"/>
     <use style="stroke:#000000;" x="250.632604" xlink:href="#mcf0ff2f6cd" y="173.476323"/>
     <use style="stroke:#000000;" x="248.672372" xlink:href="#mcf0ff2f6cd" y="170.513415"/>
     <use style="stroke:#000000;" x="251.46994" xlink:href="#mcf0ff2f6cd" y="168.952715"/>
     <use style="stroke:#000000;" x="253.380046" xlink:href="#mcf0ff2f6cd" y="168.649648"/>
     <use style="stroke:#000000;" x="239.977792" xlink:href="#mcf0ff2f6cd" y="174.528"/>
     <use style="stroke:#000000;" x="241.817872" xlink:href="#mcf0ff2f6cd" y="163.388313"/>
     <use style="stroke:#000000;" x="245.013804" xlink:href="#mcf0ff2f6cd" y="161.2224"/>
     <use style="stroke:#000000;" x="243.027344" xlink:href="#mcf0ff2f6cd" y="168.141525"/>
     <use style="stroke:#000000;" x="245.391146" xlink:href="#mcf0ff2f6cd" y="161.353499"/>
     <use style="stroke:#000000;" x="245.802424" xlink:href="#mcf0ff2f6cd" y="161.2224"/>
     <use style="stroke:#000000;" x="242.172459" xlink:href="#mcf0ff2f6cd" y="171.33174"/>
     <use style="stroke:#000000;" x="245.215088" xlink:href="#mcf0ff2f6cd" y="169.042167"/>
     <use style="stroke:#000000;" x="241.565775" xlink:href="#mcf0ff2f6cd" y="171.472846"/>
     <use style="stroke:#000000;" x="244.836294" xlink:href="#mcf0ff2f6cd" y="172.439535"/>
     <use style="stroke:#000000;" x="243.428454" xlink:href="#mcf0ff2f6cd" y="173.158229"/>
     <use style="stroke:#000000;" x="245.580377" xlink:href="#mcf0ff2f6cd" y="166.065578"/>
     <use style="stroke:#000000;" x="246.683514" xlink:href="#mcf0ff2f6cd" y="165.119321"/>
     <use style="stroke:#000000;" x="247.16567" xlink:href="#mcf0ff2f6cd" y="168.71971"/>
     <use style="stroke:#000000;" x="244.945407" xlink:href="#mcf0ff2f6cd" y="163.949019"/>
     <use style="stroke:#000000;" x="236.16" xlink:href="#mcf0ff2f6cd" y="172.277133"/>
     <use style="stroke:#000000;" x="239.153529" xlink:href="#mcf0ff2f6cd" y="170.246677"/>
     <use style="stroke:#000000;" x="239.166043" xlink:href="#mcf0ff2f6cd" y="174.427522"/>
     <use style="stroke:#000000;" x="236.196983" xlink:href="#mcf0ff2f6cd" y="172.779413"/>
     <use style="stroke:#000000;" x="240.141986" xlink:href="#mcf0ff2f6cd" y="168.964043"/>
     <use style="stroke:#000000;" x="236.16" xlink:href="#mcf0ff2f6cd" y="168.620926"/>
     <use style="stroke:#000000;" x="238.479668" xlink:href="#mcf0ff2f6cd" y="170.558107"/>
     <use style="stroke:#000000;" x="238.555125" xlink:href="#mcf0ff2f6cd" y="173.686257"/>
     <use style="stroke:#000000;" x="238.992611" xlink:href="#mcf0ff2f6cd" y="173.261735"/>
     <use style="stroke:#000000;" x="252.0947" xlink:href="#mcf0ff2f6cd" y="165.760598"/>
     <use style="stroke:#000000;" x="252.851971" xlink:href="#mcf0ff2f6cd" y="167.68565"/>
     <use style="stroke:#000000;" x="250.652193" xlink:href="#mcf0ff2f6cd" y="163.773877"/>
     <use style="stroke:#000000;" x="254.016" xlink:href="#mcf0ff2f6cd" y="161.2224"/>
     <use style="stroke:#000000;" x="248.499112" xlink:href="#mcf0ff2f6cd" y="173.141554"/>
     <use style="stroke:#000000;" x="250.285787" xlink:href="#mcf0ff2f6cd" y="173.638745"/>
     <use style="stroke:#000000;" x="238.203449" xlink:href="#mcf0ff2f6cd" y="168.595829"/>
     <use style="stroke:#000000;" x="236.16" xlink:href="#mcf0ff2f6cd" y="171.41142"/>
     <use style="stroke:#000000;" x="249.7203" xlink:href="#mcf0ff2f6cd" y="166.97686"/>
     <use style="stroke:#000000;" x="247.491731" xlink:href="#mcf0ff2f6cd" y="171.528504"/>
     <use style="stroke:#000000;" x="247.966897" xlink:href="#mcf0ff2f6cd" y="165.478967"/>
     <use style="stroke:#000000;" x="247.659291" xlink:href="#mcf0ff2f6cd" y="164.841936"/>
     <use style="stroke:#000000;" x="237.187343" xlink:href="#mcf0ff2f6cd" y="174.252055"/>
     <use style="stroke:#000000;" x="237.606486" xlink:href="#mcf0ff2f6cd" y="172.700072"/>
     <use style="stroke:#000000;" x="249.943236" xlink:href="#mcf0ff2f6cd" y="170.591935"/>
     <use style="stroke:#000000;" x="240.665715" xlink:href="#mcf0ff2f6cd" y="166.304595"/>
     <use style="stroke:#000000;" x="244.068674" xlink:href="#mcf0ff2f6cd" y="173.985025"/>
     <use style="stroke:#000000;" x="245.912672" xlink:href="#mcf0ff2f6cd" y="163.561262"/>
     <use style="stroke:#000000;" x="245.08797" xlink:href="#mcf0ff2f6cd" y="169.004109"/>
     <use style="stroke:#000000;" x="240.591182" xlink:href="#mcf0ff2f6cd" y="169.241563"/>
     <use style="stroke:#000000;" x="243.414658" xlink:href="#mcf0ff2f6cd" y="171.915426"/>
     <use style="stroke:#000000;" x="246.659569" xlink:href="#mcf0ff2f6cd" y="167.593702"/>
     <use style="stroke:#000000;" x="240.763865" xlink:href="#mcf0ff2f6cd" y="165.972854"/>
     <use style="stroke:#000000;" x="245.091309" xlink:href="#mcf0ff2f6cd" y="170.407151"/>
    </g>
   </g>
   <g id="PathCollection_2">
    <defs>
     <path d="M 0 0.935414 
C 0.248075 0.935414 0.486022 0.836853 0.661438 0.661438 
C 0.836853 0.486022 0.935414 0.248075 0.935414 0 
C 0.935414 -0.248075 0.836853 -0.486022 0.661438 -0.661438 
C 0.486022 -0.836853 0.248075 -0.935414 0 -0.935414 
C -0.248075 -0.935414 -0.486022 -0.836853 -0.661438 -0.661438 
C -0.836853 -0.486022 -0.935414 -0.248075 -0.935414 0 
C -0.935414 0.248075 -0.836853 0.486022 -0.661438 0.661438 
C -0.486022 0.836853 -0.248075 0.935414 0 0.935414 
z
" id="mcbca0b95fc" style="stroke:#0000ff;"/>
    </defs>
    <g clip-path="url(#p0b4728de26)">
     <use style="fill:#0000ff;stroke:#0000ff;" x="251.042047" xlink:href="#mcbca0b95fc" y="162.222861"/>
     <use style="fill:#0000ff;stroke:#0000ff;" x="239.473814" xlink:href="#mcbca0b95fc" y="170.087531"/>
     <use style="fill:#0000ff;stroke:#0000ff;" x="240.009824" xlink:href="#mcbca0b95fc" y="161.2224"/>
     <use style="fill:#0000ff;stroke:#0000ff;" x="251.389452" xlink:href="#mcbca0b95fc" y="171.176652"/>
     <use style="fill:#0000ff;stroke:#0000ff;" x="240.384886" xlink:href="#mcbca0b95fc" y="169.160545"/>
     <use style="fill:#0000ff;stroke:#0000ff;" x="244.449833" xlink:href="#mcbca0b95fc" y="161.2224"/>
     <use style="fill:#0000ff;stroke:#0000ff;" x="244.501713" xlink:href="#mcbca0b95fc" y="173.883836"/>
     <use style="fill:#0000ff;stroke:#0000ff;" x="247.522239" xlink:href="#mcbca0b95fc" y="161.2224"/>
     <use style="fill:#0000ff;stroke:#0000ff;" x="236.16" xlink:href="#mcbca0b95fc" y="170.605876"/>
     <use style="fill:#0000ff;stroke:#0000ff;" x="236.796744" xlink:href="#mcbca0b95fc" y="171.350072"/>
     <use style="fill:#0000ff;stroke:#0000ff;" x="238.691489" xlink:href="#mcbca0b95fc" y="170.357692"/>
     <use style="fill:#0000ff;stroke:#0000ff;" x="240.354166" xlink:href="#mcbca0b95fc" y="169.452963"/>
     <use style="fill:#0000ff;stroke:#0000ff;" x="251.117061" xlink:href="#mcbca0b95fc" y="171.369472"/>
     <use style="fill:#0000ff;stroke:#0000ff;" x="237.377208" xlink:href="#mcbca0b95fc" y="169.289187"/>
     <use style="fill:#0000ff;stroke:#0000ff;" x="247.261104" xlink:href="#mcbca0b95fc" y="164.205267"/>
     <use style="fill:#0000ff;stroke:#0000ff;" x="250.891151" xlink:href="#mcbca0b95fc" y="167.386348"/>
     <use style="fill:#0000ff;stroke:#0000ff;" x="237.180538" xlink:href="#mcbca0b95fc" y="168.069729"/>
     <use style="fill:#0000ff;stroke:#0000ff;" x="247.854221" xlink:href="#mcbca0b95fc" y="165.46771"/>
     <use style="fill:#0000ff;stroke:#0000ff;" x="236.392569" xlink:href="#mcbca0b95fc" y="169.330486"/>
     <use style="fill:#0000ff;stroke:#0000ff;" x="243.913323" xlink:href="#mcbca0b95fc" y="168.811602"/>
     <use style="fill:#0000ff;stroke:#0000ff;" x="237.069201" xlink:href="#mcbca0b95fc" y="169.448258"/>
     <use style="fill:#0000ff;stroke:#0000ff;" x="236.798693" xlink:href="#mcbca0b95fc" y="171.699325"/>
     <use style="fill:#0000ff;stroke:#0000ff;" x="251.250071" xlink:href="#mcbca0b95fc" y="170.880541"/>
     <use style="fill:#0000ff;stroke:#0000ff;" x="239.798008" xlink:href="#mcbca0b95fc" y="163.195555"/>
     <use style="fill:#0000ff;stroke:#0000ff;" x="251.225129" xlink:href="#mcbca0b95fc" y="170.728587"/>
     <use style="fill:#0000ff;stroke:#0000ff;" x="251.272087" xlink:href="#mcbca0b95fc" y="169.310186"/>
     <use style="fill:#0000ff;stroke:#0000ff;" x="241.111256" xlink:href="#mcbca0b95fc" y="174.331726"/>
     <use style="fill:#0000ff;stroke:#0000ff;" x="244.169341" xlink:href="#mcbca0b95fc" y="163.539433"/>
     <use style="fill:#0000ff;stroke:#0000ff;" x="240.749909" xlink:href="#mcbca0b95fc" y="166.851046"/>
     <use style="fill:#0000ff;stroke:#0000ff;" x="244.040255" xlink:href="#mcbca0b95fc" y="161.723105"/>
     <use style="fill:#0000ff;stroke:#0000ff;" x="240.908866" xlink:href="#mcbca0b95fc" y="171.922628"/>
     <use style="fill:#0000ff;stroke:#0000ff;" x="243.832043" xlink:href="#mcbca0b95fc" y="169.860944"/>
     <use style="fill:#0000ff;stroke:#0000ff;" x="240.067746" xlink:href="#mcbca0b95fc" y="172.665868"/>
     <use style="fill:#0000ff;stroke:#0000ff;" x="244.478074" xlink:href="#mcbca0b95fc" y="172.282328"/>
     <use style="fill:#0000ff;stroke:#0000ff;" x="247.303438" xlink:href="#mcbca0b95fc" y="164.109639"/>
     <use style="fill:#0000ff;stroke:#0000ff;" x="247.197687" xlink:href="#mcbca0b95fc" y="168.461893"/>
     <use style="fill:#0000ff;stroke:#0000ff;" x="247.603621" xlink:href="#mcbca0b95fc" y="162.918316"/>
     <use style="fill:#0000ff;stroke:#0000ff;" x="236.16" xlink:href="#mcbca0b95fc" y="169.157538"/>
     <use style="fill:#0000ff;stroke:#0000ff;" x="239.720423" xlink:href="#mcbca0b95fc" y="170.930304"/>
     <use style="fill:#0000ff;stroke:#0000ff;" x="239.643001" xlink:href="#mcbca0b95fc" y="173.417932"/>
     <use style="fill:#0000ff;stroke:#0000ff;" x="239.347506" xlink:href="#mcbca0b95fc" y="172.329924"/>
     <use style="fill:#0000ff;stroke:#0000ff;" x="237.520439" xlink:href="#mcbca0b95fc" y="170.233158"/>
     <use style="fill:#0000ff;stroke:#0000ff;" x="240.374047" xlink:href="#mcbca0b95fc" y="172.853203"/>
     <use style="fill:#0000ff;stroke:#0000ff;" x="250.903017" xlink:href="#mcbca0b95fc" y="165.23782"/>
     <use style="fill:#0000ff;stroke:#0000ff;" x="250.923305" xlink:href="#mcbca0b95fc" y="161.2224"/>
     <use style="fill:#0000ff;stroke:#0000ff;" x="250.947103" xlink:href="#mcbca0b95fc" y="171.588394"/>
     <use style="fill:#0000ff;stroke:#0000ff;" x="236.502596" xlink:href="#mcbca0b95fc" y="169.529232"/>
     <use style="fill:#0000ff;stroke:#0000ff;" x="248.057415" xlink:href="#mcbca0b95fc" y="169.917491"/>
     <use style="fill:#0000ff;stroke:#0000ff;" x="248.242736" xlink:href="#mcbca0b95fc" y="165.595239"/>
     <use style="fill:#0000ff;stroke:#0000ff;" x="237.361164" xlink:href="#mcbca0b95fc" y="172.384309"/>
     <use style="fill:#0000ff;stroke:#0000ff;" x="251.406275" xlink:href="#mcbca0b95fc" y="168.710555"/>
     <use style="fill:#0000ff;stroke:#0000ff;" x="236.930265" xlink:href="#mcbca0b95fc" y="167.022775"/>
     <use style="fill:#0000ff;stroke:#0000ff;" x="244.24573" xlink:href="#mcbca0b95fc" y="173.291592"/>
     <use style="fill:#0000ff;stroke:#0000ff;" x="243.695527" xlink:href="#mcbca0b95fc" y="161.724413"/>
     <use style="fill:#0000ff;stroke:#0000ff;" x="245.185246" xlink:href="#mcbca0b95fc" y="171.095811"/>
     <use style="fill:#0000ff;stroke:#0000ff;" x="240.951564" xlink:href="#mcbca0b95fc" y="169.845048"/>
     <use style="fill:#0000ff;stroke:#0000ff;" x="240.858919" xlink:href="#mcbca0b95fc" y="172.745199"/>
     <use style="fill:#0000ff;stroke:#0000ff;" x="243.962667" xlink:href="#mcbca0b95fc" y="165.772562"/>
     <use style="fill:#0000ff;stroke:#0000ff;" x="240.230257" xlink:href="#mcbca0b95fc" y="165.069734"/>
     <use style="fill:#0000ff;stroke:#0000ff;" x="247.375765" xlink:href="#mcbca0b95fc" y="168.268217"/>
    </g>
   </g>
   <g id="matplotlib.axis_1">
    <g id="xtick_1">
     <g id="line2d_1">
      <defs>
       <path d="M 0 0 
L 0 3.5 
" id="m9151a07853" style="stroke:#000000;stroke-width:0.8;"/>
      </defs>
      <g>
       <use style="stroke:#000000;stroke-width:0.8;" x="57.6" xlink:href="#m9151a07853" y="307.584"/>
      </g>
     </g>
     <g id="text_1">
      <!-- −10.0 -->
      <defs>
       <path d="M 10.59375 35.5 
L 73.1875 35.5 
L 73.1875 27.203125 
L 10.59375 27.203125 
z
" id="DejaVuSans-2212"/>
       <path d="M 12.40625 8.296875 
L 28.515625 8.296875 
L 28.515625 63.921875 
L 10.984375 60.40625 
L 10.984375 69.390625 
L 28.421875 72.90625 
L 38.28125 72.90625 
L 38.28125 8.296875 
L 54.390625 8.296875 
L 54.390625 0 
L 12.40625 0 
z
" id="DejaVuSans-31"/>
       <path d="M 31.78125 66.40625 
Q 24.171875 66.40625 20.328125 58.90625 
Q 16.5 51.421875 16.5 36.375 
Q 16.5 21.390625 20.328125 13.890625 
Q 24.171875 6.390625 31.78125 6.390625 
Q 39.453125 6.390625 43.28125 13.890625 
Q 47.125 21.390625 47.125 36.375 
Q 47.125 51.421875 43.28125 58.90625 
Q 39.453125 66.40625 31.78125 66.40625 
z
M 31.78125 74.21875 
Q 44.046875 74.21875 50.515625 64.515625 
Q 56.984375 54.828125 56.984375 36.375 
Q 56.984375 17.96875 50.515625 8.265625 
Q 44.046875 -1.421875 31.78125 -1.421875 
Q 19.53125 -1.421875 13.0625 8.265625 
Q 6.59375 17.96875 6.59375 36.375 
Q 6.59375 54.828125 13.0625 64.515625 
Q 19.53125 74.21875 31.78125 74.21875 
z
" id="DejaVuSans-30"/>
       <path d="M 10.6875 12.40625 
L 21 12.40625 
L 21 0 
L 10.6875 0 
z
" id="DejaVuSans-2e"/>
      </defs>
      <g transform="translate(42.277344 322.182437)scale(0.1 -0.1)">
       <use xlink:href="#DejaVuSans-2212"/>
       <use x="83.789062" xlink:href="#DejaVuSans-31"/>
       <use x="147.412109" xlink:href="#DejaVuSans-30"/>
       <use x="211.035156" xlink:href="#DejaVuSans-2e"/>
       <use x="242.822266" xlink:href="#DejaVuSans-30"/>
      </g>
     </g>
    </g>
    <g id="xtick_2">
     <g id="line2d_2">
      <g>
       <use style="stroke:#000000;stroke-width:0.8;" x="102.24" xlink:href="#m9151a07853" y="307.584"/>
      </g>
     </g>
     <g id="text_2">
      <!-- −7.5 -->
      <defs>
       <path d="M 8.203125 72.90625 
L 55.078125 72.90625 
L 55.078125 68.703125 
L 28.609375 0 
L 18.3125 0 
L 43.21875 64.59375 
L 8.203125 64.59375 
z
" id="DejaVuSans-37"/>
       <path d="M 10.796875 72.90625 
L 49.515625 72.90625 
L 49.515625 64.59375 
L 19.828125 64.59375 
L 19.828125 46.734375 
Q 21.96875 47.46875 24.109375 47.828125 
Q 26.265625 48.1875 28.421875 48.1875 
Q 40.625 48.1875 47.75 41.5 
Q 54.890625 34.8125 54.890625 23.390625 
Q 54.890625 11.625 47.5625 5.09375 
Q 40.234375 -1.421875 26.90625 -1.421875 
Q 22.3125 -1.421875 17.546875 -0.640625 
Q 12.796875 0.140625 7.71875 1.703125 
L 7.71875 11.625 
Q 12.109375 9.234375 16.796875 8.0625 
Q 21.484375 6.890625 26.703125 6.890625 
Q 35.15625 6.890625 40.078125 11.328125 
Q 45.015625 15.765625 45.015625 23.390625 
Q 45.015625 31 40.078125 35.4375 
Q 35.15625 39.890625 26.703125 39.890625 
Q 22.75 39.890625 18.8125 39.015625 
Q 14.890625 38.140625 10.796875 36.28125 
z
" id="DejaVuSans-35"/>
      </defs>
      <g transform="translate(90.098594 322.182437)scale(0.1 -0.1)">
       <use xlink:href="#DejaVuSans-2212"/>
       <use x="83.789062" xlink:href="#DejaVuSans-37"/>
       <use x="147.412109" xlink:href="#DejaVuSans-2e"/>
       <use x="179.199219" xlink:href="#DejaVuSans-35"/>
      </g>
     </g>
    </g>
    <g id="xtick_3">
     <g id="line2d_3">
      <g>
       <use style="stroke:#000000;stroke-width:0.8;" x="146.88" xlink:href="#m9151a07853" y="307.584"/>
      </g>
     </g>
     <g id="text_3">
      <!-- −5.0 -->
      <g transform="translate(134.738594 322.182437)scale(0.1 -0.1)">
       <use xlink:href="#DejaVuSans-2212"/>
       <use x="83.789062" xlink:href="#DejaVuSans-35"/>
       <use x="147.412109" xlink:href="#DejaVuSans-2e"/>
       <use x="179.199219" xlink:href="#DejaVuSans-30"/>
      </g>
     </g>
    </g>
    <g id="xtick_4">
     <g id="line2d_4">
      <g>
       <use style="stroke:#000000;stroke-width:0.8;" x="191.52" xlink:href="#m9151a07853" y="307.584"/>
      </g>
     </g>
     <g id="text_4">
      <!-- −2.5 -->
      <defs>
       <path d="M 19.1875 8.296875 
L 53.609375 8.296875 
L 53.609375 0 
L 7.328125 0 
L 7.328125 8.296875 
Q 12.9375 14.109375 22.625 23.890625 
Q 32.328125 33.6875 34.8125 36.53125 
Q 39.546875 41.84375 41.421875 45.53125 
Q 43.3125 49.21875 43.3125 52.78125 
Q 43.3125 58.59375 39.234375 62.25 
Q 35.15625 65.921875 28.609375 65.921875 
Q 23.96875 65.921875 18.8125 64.3125 
Q 13.671875 62.703125 7.8125 59.421875 
L 7.8125 69.390625 
Q 13.765625 71.78125 18.9375 73 
Q 24.125 74.21875 28.421875 74.21875 
Q 39.75 74.21875 46.484375 68.546875 
Q 53.21875 62.890625 53.21875 53.421875 
Q 53.21875 48.921875 51.53125 44.890625 
Q 49.859375 40.875 45.40625 35.40625 
Q 44.1875 33.984375 37.640625 27.21875 
Q 31.109375 20.453125 19.1875 8.296875 
z
" id="DejaVuSans-32"/>
      </defs>
      <g transform="translate(179.378594 322.182437)scale(0.1 -0.1)">
       <use xlink:href="#DejaVuSans-2212"/>
       <use x="83.789062" xlink:href="#DejaVuSans-32"/>
       <use x="147.412109" xlink:href="#DejaVuSans-2e"/>
       <use x="179.199219" xlink:href="#DejaVuSans-35"/>
      </g>
     </g>
    </g>
    <g id="xtick_5">
     <g id="line2d_5">
      <g>
       <use style="stroke:#000000;stroke-width:0.8;" x="236.16" xlink:href="#m9151a07853" y="307.584"/>
      </g>
     </g>
     <g id="text_5">
      <!-- 0.0 -->
      <g transform="translate(228.208438 322.182437)scale(0.1 -0.1)">
       <use xlink:href="#DejaVuSans-30"/>
       <use x="63.623047" xlink:href="#DejaVuSans-2e"/>
       <use x="95.410156" xlink:href="#DejaVuSans-30"/>
      </g>
     </g>
    </g>
    <g id="xtick_6">
     <g id="line2d_6">
      <g>
       <use style="stroke:#000000;stroke-width:0.8;" x="280.8" xlink:href="#m9151a07853" y="307.584"/>
      </g>
     </g>
     <g id="text_6">
      <!-- 2.5 -->
      <g transform="translate(272.848437 322.182437)scale(0.1 -0.1)">
       <use xlink:href="#DejaVuSans-32"/>
       <use x="63.623047" xlink:href="#DejaVuSans-2e"/>
       <use x="95.410156" xlink:href="#DejaVuSans-35"/>
      </g>
     </g>
    </g>
    <g id="xtick_7">
     <g id="line2d_7">
      <g>
       <use style="stroke:#000000;stroke-width:0.8;" x="325.44" xlink:href="#m9151a07853" y="307.584"/>
      </g>
     </g>
     <g id="text_7">
      <!-- 5.0 -->
      <g transform="translate(317.488437 322.182437)scale(0.1 -0.1)">
       <use xlink:href="#DejaVuSans-35"/>
       <use x="63.623047" xlink:href="#DejaVuSans-2e"/>
       <use x="95.410156" xlink:href="#DejaVuSans-30"/>
      </g>
     </g>
    </g>
    <g id="xtick_8">
     <g id="line2d_8">
      <g>
       <use style="stroke:#000000;stroke-width:0.8;" x="370.08" xlink:href="#m9151a07853" y="307.584"/>
      </g>
     </g>
     <g id="text_8">
      <!-- 7.5 -->
      <g transform="translate(362.128438 322.182437)scale(0.1 -0.1)">
       <use xlink:href="#DejaVuSans-37"/>
       <use x="63.623047" xlink:href="#DejaVuSans-2e"/>
       <use x="95.410156" xlink:href="#DejaVuSans-35"/>
      </g>
     </g>
    </g>
    <g id="xtick_9">
     <g id="line2d_9">
      <g>
       <use style="stroke:#000000;stroke-width:0.8;" x="414.72" xlink:href="#m9151a07853" y="307.584"/>
      </g>
     </g>
     <g id="text_9">
      <!-- 10.0 -->
      <g transform="translate(403.587188 322.182437)scale(0.1 -0.1)">
       <use xlink:href="#DejaVuSans-31"/>
       <use x="63.623047" xlink:href="#DejaVuSans-30"/>
       <use x="127.246094" xlink:href="#DejaVuSans-2e"/>
       <use x="159.033203" xlink:href="#DejaVuSans-30"/>
      </g>
     </g>
    </g>
   </g>
   <g id="matplotlib.axis_2">
    <g id="ytick_1">
     <g id="line2d_10">
      <defs>
       <path d="M 0 0 
L -3.5 0 
" id="m78f0bc88bf" style="stroke:#000000;stroke-width:0.8;"/>
      </defs>
      <g>
       <use style="stroke:#000000;stroke-width:0.8;" x="57.6" xlink:href="#m78f0bc88bf" y="307.584"/>
      </g>
     </g>
     <g id="text_10">
      <!-- −10.0 -->
      <g transform="translate(19.954687 311.383219)scale(0.1 -0.1)">
       <use xlink:href="#DejaVuSans-2212"/>
       <use x="83.789062" xlink:href="#DejaVuSans-31"/>
       <use x="147.412109" xlink:href="#DejaVuSans-30"/>
       <use x="211.035156" xlink:href="#DejaVuSans-2e"/>
       <use x="242.822266" xlink:href="#DejaVuSans-30"/>
      </g>
     </g>
    </g>
    <g id="ytick_2">
     <g id="line2d_11">
      <g>
       <use style="stroke:#000000;stroke-width:0.8;" x="57.6" xlink:href="#m78f0bc88bf" y="274.32"/>
      </g>
     </g>
     <g id="text_11">
      <!-- −7.5 -->
      <g transform="translate(26.317187 278.119219)scale(0.1 -0.1)">
       <use xlink:href="#DejaVuSans-2212"/>
       <use x="83.789062" xlink:href="#DejaVuSans-37"/>
       <use x="147.412109" xlink:href="#DejaVuSans-2e"/>
       <use x="179.199219" xlink:href="#DejaVuSans-35"/>
      </g>
     </g>
    </g>
    <g id="ytick_3">
     <g id="line2d_12">
      <g>
       <use style="stroke:#000000;stroke-width:0.8;" x="57.6" xlink:href="#m78f0bc88bf" y="241.056"/>
      </g>
     </g>
     <g id="text_12">
      <!-- −5.0 -->
      <g transform="translate(26.317187 244.855219)scale(0.1 -0.1)">
       <use xlink:href="#DejaVuSans-2212"/>
       <use x="83.789062" xlink:href="#DejaVuSans-35"/>
       <use x="147.412109" xlink:href="#DejaVuSans-2e"/>
       <use x="179.199219" xlink:href="#DejaVuSans-30"/>
      </g>
     </g>
    </g>
    <g id="ytick_4">
     <g id="line2d_13">
      <g>
       <use style="stroke:#000000;stroke-width:0.8;" x="57.6" xlink:href="#m78f0bc88bf" y="207.792"/>
      </g>
     </g>
     <g id="text_13">
      <!-- −2.5 -->
      <g transform="translate(26.317187 211.591219)scale(0.1 -0.1)">
       <use xlink:href="#DejaVuSans-2212"/>
       <use x="83.789062" xlink:href="#DejaVuSans-32"/>
       <use x="147.412109" xlink:href="#DejaVuSans-2e"/>
       <use x="179.199219" xlink:href="#DejaVuSans-35"/>
      </g>
     </g>
    </g>
    <g id="ytick_5">
     <g id="line2d_14">
      <g>
       <use style="stroke:#000000;stroke-width:0.8;" x="57.6" xlink:href="#m78f0bc88bf" y="174.528"/>
      </g>
     </g>
     <g id="text_14">
      <!-- 0.0 -->
      <g transform="translate(34.696875 178.327219)scale(0.1 -0.1)">
       <use xlink:href="#DejaVuSans-30"/>
       <use x="63.623047" xlink:href="#DejaVuSans-2e"/>
       <use x="95.410156" xlink:href="#DejaVuSans-30"/>
      </g>
     </g>
    </g>
    <g id="ytick_6">
     <g id="line2d_15">
      <g>
       <use style="stroke:#000000;stroke-width:0.8;" x="57.6" xlink:href="#m78f0bc88bf" y="141.264"/>
      </g>
     </g>
     <g id="text_15">
      <!-- 2.5 -->
      <g transform="translate(34.696875 145.063219)scale(0.1 -0.1)">
       <use xlink:href="#DejaVuSans-32"/>
       <use x="63.623047" xlink:href="#DejaVuSans-2e"/>
       <use x="95.410156" xlink:href="#DejaVuSans-35"/>
      </g>
     </g>
    </g>
    <g id="ytick_7">
     <g id="line2d_16">
      <g>
       <use style="stroke:#000000;stroke-width:0.8;" x="57.6" xlink:href="#m78f0bc88bf" y="108"/>
      </g>
     </g>
     <g id="text_16">
      <!-- 5.0 -->
      <g transform="translate(34.696875 111.799219)scale(0.1 -0.1)">
       <use xlink:href="#DejaVuSans-35"/>
       <use x="63.623047" xlink:href="#DejaVuSans-2e"/>
       <use x="95.410156" xlink:href="#DejaVuSans-30"/>
      </g>
     </g>
    </g>
    <g id="ytick_8">
     <g id="line2d_17">
      <g>
       <use style="stroke:#000000;stroke-width:0.8;" x="57.6" xlink:href="#m78f0bc88bf" y="74.736"/>
      </g>
     </g>
     <g id="text_17">
      <!-- 7.5 -->
      <g transform="translate(34.696875 78.535219)scale(0.1 -0.1)">
       <use xlink:href="#DejaVuSans-37"/>
       <use x="63.623047" xlink:href="#DejaVuSans-2e"/>
       <use x="95.410156" xlink:href="#DejaVuSans-35"/>
      </g>
     </g>
    </g>
    <g id="ytick_9">
     <g id="line2d_18">
      <g>
       <use style="stroke:#000000;stroke-width:0.8;" x="57.6" xlink:href="#m78f0bc88bf" y="41.472"/>
      </g>
     </g>
     <g id="text_18">
      <!-- 10.0 -->
      <g transform="translate(28.334375 45.271219)scale(0.1 -0.1)">
       <use xlink:href="#DejaVuSans-31"/>
       <use x="63.623047" xlink:href="#DejaVuSans-30"/>
       <use x="127.246094" xlink:href="#DejaVuSans-2e"/>
       <use x="159.033203" xlink:href="#DejaVuSans-30"/>
      </g>
     </g>
    </g>
   </g>
   <g id="patch_3">
    <path d="M 57.6 307.584 
L 57.6 41.472 
" style="fill:none;stroke:#000000;stroke-linecap:square;stroke-linejoin:miter;stroke-width:0.8;"/>
   </g>
   <g id="patch_4">
    <path d="M 414.72 307.584 
L 414.72 41.472 
" style="fill:none;stroke:#000000;stroke-linecap:square;stroke-linejoin:miter;stroke-width:0.8;"/>
   </g>
   <g id="patch_5">
    <path d="M 57.6 307.584 
L 414.72 307.584 
" style="fill:none;stroke:#000000;stroke-linecap:square;stroke-linejoin:miter;stroke-width:0.8;"/>
   </g>
   <g id="patch_6">
    <path d="M 57.6 41.472 
L 414.72 41.472 
" style="fill:none;stroke:#000000;stroke-linecap:square;stroke-linejoin:miter;stroke-width:0.8;"/>
   </g>
  </g>
 </g>
 <defs>
  <clipPath id="p0b4728de26">
   <rect height="266.112" width="357.12" x="57.6" y="41.472"/>
  </clipPath>
 </defs>
</svg>
