<?xml version="1.0" encoding="utf-8" standalone="no"?>
<!DOCTYPE svg PUBLIC "-//W3C//DTD SVG 1.1//EN"
  "http://www.w3.org/Graphics/SVG/1.1/DTD/svg11.dtd">
<!-- Created with matplotlib (http://matplotlib.org/) -->
<svg height="345.6pt" version="1.1" viewBox="0 0 460.8 345.6" width="460.8pt" xmlns="http://www.w3.org/2000/svg" xmlns:xlink="http://www.w3.org/1999/xlink">
 <defs>
  <style type="text/css">
*{stroke-linecap:butt;stroke-linejoin:round;}
  </style>
 </defs>
 <g id="figure_1">
  <g id="patch_1">
   <path d="M 0 345.6 
L 460.8 345.6 
L 460.8 0 
L 0 0 
z
" style="fill:#ffffff;"/>
  </g>
  <g id="axes_1">
   <g id="patch_2">
    <path d="M 57.6 307.584 
L 414.72 307.584 
L 414.72 41.472 
L 57.6 41.472 
z
" style="fill:#ffffff;"/>
   </g>
   <g id="PathCollection_1">
    <defs>
     <path d="M 0 0.612372 
C 0.162403 0.612372 0.318176 0.547849 0.433013 0.433013 
C 0.547849 0.318176 0.612372 0.162403 0.612372 0 
C 0.612372 -0.162403 0.547849 -0.318176 0.433013 -0.433013 
C 0.318176 -0.547849 0.162403 -0.612372 0 -0.612372 
C -0.162403 -0.612372 -0.318176 -0.547849 -0.433013 -0.433013 
C -0.547849 -0.318176 -0.612372 -0.162403 -0.612372 0 
C -0.612372 0.162403 -0.547849 0.318176 -0.433013 0.433013 
C -0.318176 0.547849 -0.162403 0.612372 0 0.612372 
z
" id="mc77995da6b" style="stroke:#000000;"/>
    </defs>
    <g clip-path="url(#p6f9b600b14)">
     <use style="stroke:#000000;" x="237.425124" xlink:href="#mc77995da6b" y="174.404878"/>
     <use style="stroke:#000000;" x="247.28426" xlink:href="#mc77995da6b" y="174.528"/>
     <use style="stroke:#000000;" x="239.809489" xlink:href="#mc77995da6b" y="172.851023"/>
     <use style="stroke:#000000;" x="240.604465" xlink:href="#mc77995da6b" y="172.736268"/>
     <use style="stroke:#000000;" x="236.16" xlink:href="#mc77995da6b" y="173.040784"/>
     <use style="stroke:#000000;" x="240.005261" xlink:href="#mc77995da6b" y="174.528"/>
     <use style="stroke:#000000;" x="241.228075" xlink:href="#mc77995da6b" y="173.592509"/>
     <use style="stroke:#000000;" x="238.180229" xlink:href="#mc77995da6b" y="174.528"/>
     <use style="stroke:#000000;" x="236.46779" xlink:href="#mc77995da6b" y="171.908648"/>
     <use style="stroke:#000000;" x="243.788839" xlink:href="#mc77995da6b" y="174.528"/>
     <use style="stroke:#000000;" x="247.778052" xlink:href="#mc77995da6b" y="174.265376"/>
     <use style="stroke:#000000;" x="237.890987" xlink:href="#mc77995da6b" y="172.238074"/>
     <use style="stroke:#000000;" x="251.037819" xlink:href="#mc77995da6b" y="171.996206"/>
     <use style="stroke:#000000;" x="236.571805" xlink:href="#mc77995da6b" y="173.649427"/>
     <use style="stroke:#000000;" x="236.81469" xlink:href="#mc77995da6b" y="171.720872"/>
     <use style="stroke:#000000;" x="237.331283" xlink:href="#mc77995da6b" y="174.228473"/>
     <use style="stroke:#000000;" x="237.778943" xlink:href="#mc77995da6b" y="174.420746"/>
     <use style="stroke:#000000;" x="247.747673" xlink:href="#mc77995da6b" y="174.528"/>
     <use style="stroke:#000000;" x="237.56302" xlink:href="#mc77995da6b" y="171.990373"/>
     <use style="stroke:#000000;" x="237.764291" xlink:href="#mc77995da6b" y="174.528"/>
     <use style="stroke:#000000;" x="240.207231" xlink:href="#mc77995da6b" y="170.578983"/>
     <use style="stroke:#000000;" x="240.329655" xlink:href="#mc77995da6b" y="174.528"/>
     <use style="stroke:#000000;" x="240.06596" xlink:href="#mc77995da6b" y="168.926807"/>
     <use style="stroke:#000000;" x="241.173123" xlink:href="#mc77995da6b" y="173.998408"/>
     <use style="stroke:#000000;" x="236.16" xlink:href="#mc77995da6b" y="173.763376"/>
     <use style="stroke:#000000;" x="239.846629" xlink:href="#mc77995da6b" y="174.001841"/>
     <use style="stroke:#000000;" x="238.819586" xlink:href="#mc77995da6b" y="174.33084"/>
     <use style="stroke:#000000;" x="239.932584" xlink:href="#mc77995da6b" y="172.017584"/>
     <use style="stroke:#000000;" x="239.37488" xlink:href="#mc77995da6b" y="174.528"/>
     <use style="stroke:#000000;" x="236.714128" xlink:href="#mc77995da6b" y="170.309609"/>
     <use style="stroke:#000000;" x="244.197782" xlink:href="#mc77995da6b" y="174.528"/>
     <use style="stroke:#000000;" x="236.753497" xlink:href="#mc77995da6b" y="174.528"/>
     <use style="stroke:#000000;" x="247.465191" xlink:href="#mc77995da6b" y="173.990538"/>
     <use style="stroke:#000000;" x="247.070702" xlink:href="#mc77995da6b" y="174.528"/>
     <use style="stroke:#000000;" x="244.139837" xlink:href="#mc77995da6b" y="171.260507"/>
     <use style="stroke:#000000;" x="244.053721" xlink:href="#mc77995da6b" y="172.33814"/>
     <use style="stroke:#000000;" x="243.896365" xlink:href="#mc77995da6b" y="173.237373"/>
     <use style="stroke:#000000;" x="244.171443" xlink:href="#mc77995da6b" y="172.523997"/>
     <use style="stroke:#000000;" x="250.930178" xlink:href="#mc77995da6b" y="172.853316"/>
     <use style="stroke:#000000;" x="247.838557" xlink:href="#mc77995da6b" y="172.102391"/>
     <use style="stroke:#000000;" x="247.503788" xlink:href="#mc77995da6b" y="168.282059"/>
     <use style="stroke:#000000;" x="236.89519" xlink:href="#mc77995da6b" y="174.528"/>
     <use style="stroke:#000000;" x="236.772251" xlink:href="#mc77995da6b" y="174.528"/>
     <use style="stroke:#000000;" x="237.154639" xlink:href="#mc77995da6b" y="173.77099"/>
     <use style="stroke:#000000;" x="247.72794" xlink:href="#mc77995da6b" y="172.891046"/>
     <use style="stroke:#000000;" x="247.531345" xlink:href="#mc77995da6b" y="172.269015"/>
     <use style="stroke:#000000;" x="237.852714" xlink:href="#mc77995da6b" y="173.532986"/>
     <use style="stroke:#000000;" x="237.358923" xlink:href="#mc77995da6b" y="173.21193"/>
     <use style="stroke:#000000;" x="238.040344" xlink:href="#mc77995da6b" y="174.528"/>
     <use style="stroke:#000000;" x="240.158781" xlink:href="#mc77995da6b" y="167.227826"/>
     <use style="stroke:#000000;" x="244.065603" xlink:href="#mc77995da6b" y="170.081977"/>
     <use style="stroke:#000000;" x="236.16" xlink:href="#mc77995da6b" y="172.636808"/>
     <use style="stroke:#000000;" x="237.626835" xlink:href="#mc77995da6b" y="173.523995"/>
     <use style="stroke:#000000;" x="240.410577" xlink:href="#mc77995da6b" y="163.98431"/>
     <use style="stroke:#000000;" x="240.229267" xlink:href="#mc77995da6b" y="173.718572"/>
     <use style="stroke:#000000;" x="243.843983" xlink:href="#mc77995da6b" y="170.72794"/>
     <use style="stroke:#000000;" x="239.965568" xlink:href="#mc77995da6b" y="174.528"/>
     <use style="stroke:#000000;" x="239.516102" xlink:href="#mc77995da6b" y="173.69647"/>
     <use style="stroke:#000000;" x="238.915979" xlink:href="#mc77995da6b" y="174.528"/>
     <use style="stroke:#000000;" x="239.202875" xlink:href="#mc77995da6b" y="174.528"/>
     <use style="stroke:#000000;" x="236.98364" xlink:href="#mc77995da6b" y="171.329707"/>
     <use style="stroke:#000000;" x="236.972374" xlink:href="#mc77995da6b" y="174.528"/>
     <use style="stroke:#000000;" x="244.313688" xlink:href="#mc77995da6b" y="174.347258"/>
     <use style="stroke:#000000;" x="244.275708" xlink:href="#mc77995da6b" y="174.520775"/>
     <use style="stroke:#000000;" x="247.639956" xlink:href="#mc77995da6b" y="164.696255"/>
     <use style="stroke:#000000;" x="250.904755" xlink:href="#mc77995da6b" y="164.89167"/>
     <use style="stroke:#000000;" x="247.966479" xlink:href="#mc77995da6b" y="171.963716"/>
     <use style="stroke:#000000;" x="250.946639" xlink:href="#mc77995da6b" y="171.377551"/>
     <use style="stroke:#000000;" x="251.36767" xlink:href="#mc77995da6b" y="166.119552"/>
     <use style="stroke:#000000;" x="237.495609" xlink:href="#mc77995da6b" y="174.528"/>
     <use style="stroke:#000000;" x="238.03863" xlink:href="#mc77995da6b" y="174.528"/>
     <use style="stroke:#000000;" x="237.612917" xlink:href="#mc77995da6b" y="171.754341"/>
     <use style="stroke:#000000;" x="240.401143" xlink:href="#mc77995da6b" y="166.635603"/>
     <use style="stroke:#000000;" x="237.636584" xlink:href="#mc77995da6b" y="173.570376"/>
     <use style="stroke:#000000;" x="238.709424" xlink:href="#mc77995da6b" y="174.528"/>
     <use style="stroke:#000000;" x="238.091197" xlink:href="#mc77995da6b" y="173.678623"/>
     <use style="stroke:#000000;" x="244.199027" xlink:href="#mc77995da6b" y="169.915591"/>
     <use style="stroke:#000000;" x="240.337365" xlink:href="#mc77995da6b" y="173.111463"/>
     <use style="stroke:#000000;" x="236.16" xlink:href="#mc77995da6b" y="174.528"/>
     <use style="stroke:#000000;" x="240.697984" xlink:href="#mc77995da6b" y="173.412471"/>
     <use style="stroke:#000000;" x="242.050248" xlink:href="#mc77995da6b" y="174.313642"/>
     <use style="stroke:#000000;" x="236.574784" xlink:href="#mc77995da6b" y="172.796912"/>
     <use style="stroke:#000000;" x="237.95474" xlink:href="#mc77995da6b" y="174.528"/>
     <use style="stroke:#000000;" x="249.89063" xlink:href="#mc77995da6b" y="174.528"/>
     <use style="stroke:#000000;" x="247.327767" xlink:href="#mc77995da6b" y="173.711299"/>
     <use style="stroke:#000000;" x="249.938541" xlink:href="#mc77995da6b" y="173.734314"/>
     <use style="stroke:#000000;" x="249.231704" xlink:href="#mc77995da6b" y="174.508987"/>
     <use style="stroke:#000000;" x="242.249203" xlink:href="#mc77995da6b" y="169.80181"/>
     <use style="stroke:#000000;" x="240.081515" xlink:href="#mc77995da6b" y="172.615345"/>
     <use style="stroke:#000000;" x="239.794939" xlink:href="#mc77995da6b" y="171.387762"/>
     <use style="stroke:#000000;" x="241.75383" xlink:href="#mc77995da6b" y="170.560409"/>
     <use style="stroke:#000000;" x="242.348125" xlink:href="#mc77995da6b" y="172.228232"/>
     <use style="stroke:#000000;" x="241.049414" xlink:href="#mc77995da6b" y="172.518391"/>
     <use style="stroke:#000000;" x="237.939233" xlink:href="#mc77995da6b" y="171.479445"/>
     <use style="stroke:#000000;" x="236.16" xlink:href="#mc77995da6b" y="174.029575"/>
     <use style="stroke:#000000;" x="236.16" xlink:href="#mc77995da6b" y="173.210356"/>
     <use style="stroke:#000000;" x="243.290564" xlink:href="#mc77995da6b" y="173.892321"/>
     <use style="stroke:#000000;" x="236.772713" xlink:href="#mc77995da6b" y="174.528"/>
     <use style="stroke:#000000;" x="241.647772" xlink:href="#mc77995da6b" y="174.528"/>
     <use style="stroke:#000000;" x="243.700746" xlink:href="#mc77995da6b" y="173.351294"/>
     <use style="stroke:#000000;" x="243.686893" xlink:href="#mc77995da6b" y="174.379314"/>
     <use style="stroke:#000000;" x="241.89563" xlink:href="#mc77995da6b" y="174.528"/>
     <use style="stroke:#000000;" x="238.376242" xlink:href="#mc77995da6b" y="173.455252"/>
     <use style="stroke:#000000;" x="240.489033" xlink:href="#mc77995da6b" y="174.528"/>
     <use style="stroke:#000000;" x="237.402252" xlink:href="#mc77995da6b" y="174.528"/>
     <use style="stroke:#000000;" x="236.16" xlink:href="#mc77995da6b" y="171.681104"/>
     <use style="stroke:#000000;" x="236.16" xlink:href="#mc77995da6b" y="173.819459"/>
     <use style="stroke:#000000;" x="236.16" xlink:href="#mc77995da6b" y="173.998337"/>
     <use style="stroke:#000000;" x="246.456316" xlink:href="#mc77995da6b" y="173.049243"/>
     <use style="stroke:#000000;" x="242.619504" xlink:href="#mc77995da6b" y="174.528"/>
     <use style="stroke:#000000;" x="238.674207" xlink:href="#mc77995da6b" y="174.528"/>
     <use style="stroke:#000000;" x="244.279092" xlink:href="#mc77995da6b" y="173.604806"/>
     <use style="stroke:#000000;" x="249.450148" xlink:href="#mc77995da6b" y="173.224168"/>
     <use style="stroke:#000000;" x="249.114606" xlink:href="#mc77995da6b" y="174.528"/>
     <use style="stroke:#000000;" x="236.847202" xlink:href="#mc77995da6b" y="169.793858"/>
     <use style="stroke:#000000;" x="238.506287" xlink:href="#mc77995da6b" y="173.30649"/>
     <use style="stroke:#000000;" x="238.31334" xlink:href="#mc77995da6b" y="170.817486"/>
     <use style="stroke:#000000;" x="252.316684" xlink:href="#mc77995da6b" y="172.740771"/>
     <use style="stroke:#000000;" x="249.321031" xlink:href="#mc77995da6b" y="172.814997"/>
     <use style="stroke:#000000;" x="249.570847" xlink:href="#mc77995da6b" y="171.229944"/>
     <use style="stroke:#000000;" x="240.404513" xlink:href="#mc77995da6b" y="170.480517"/>
     <use style="stroke:#000000;" x="237.856922" xlink:href="#mc77995da6b" y="174.528"/>
     <use style="stroke:#000000;" x="236.16" xlink:href="#mc77995da6b" y="170.718624"/>
     <use style="stroke:#000000;" x="237.26906" xlink:href="#mc77995da6b" y="172.307111"/>
     <use style="stroke:#000000;" x="236.16" xlink:href="#mc77995da6b" y="169.576697"/>
     <use style="stroke:#000000;" x="237.56747" xlink:href="#mc77995da6b" y="170.475383"/>
     <use style="stroke:#000000;" x="236.16" xlink:href="#mc77995da6b" y="173.803238"/>
     <use style="stroke:#000000;" x="238.988233" xlink:href="#mc77995da6b" y="173.871414"/>
     <use style="stroke:#000000;" x="236.16" xlink:href="#mc77995da6b" y="174.528"/>
     <use style="stroke:#000000;" x="237.617083" xlink:href="#mc77995da6b" y="174.135273"/>
     <use style="stroke:#000000;" x="238.182675" xlink:href="#mc77995da6b" y="173.93067"/>
     <use style="stroke:#000000;" x="238.267314" xlink:href="#mc77995da6b" y="174.528"/>
     <use style="stroke:#000000;" x="250.024074" xlink:href="#mc77995da6b" y="173.086693"/>
     <use style="stroke:#000000;" x="249.482727" xlink:href="#mc77995da6b" y="173.430731"/>
     <use style="stroke:#000000;" x="249.048271" xlink:href="#mc77995da6b" y="171.349696"/>
     <use style="stroke:#000000;" x="236.16" xlink:href="#mc77995da6b" y="170.39926"/>
     <use style="stroke:#000000;" x="241.66264" xlink:href="#mc77995da6b" y="168.258151"/>
     <use style="stroke:#000000;" x="241.464659" xlink:href="#mc77995da6b" y="172.767451"/>
     <use style="stroke:#000000;" x="237.23009" xlink:href="#mc77995da6b" y="174.528"/>
     <use style="stroke:#000000;" x="242.606164" xlink:href="#mc77995da6b" y="171.624137"/>
     <use style="stroke:#000000;" x="239.420088" xlink:href="#mc77995da6b" y="169.019521"/>
     <use style="stroke:#000000;" x="240.16356" xlink:href="#mc77995da6b" y="174.528"/>
     <use style="stroke:#000000;" x="241.399813" xlink:href="#mc77995da6b" y="174.222935"/>
     <use style="stroke:#000000;" x="244.064344" xlink:href="#mc77995da6b" y="168.562402"/>
     <use style="stroke:#000000;" x="240.058568" xlink:href="#mc77995da6b" y="169.575247"/>
     <use style="stroke:#000000;" x="239.864787" xlink:href="#mc77995da6b" y="174.468159"/>
     <use style="stroke:#000000;" x="241.261532" xlink:href="#mc77995da6b" y="174.528"/>
     <use style="stroke:#000000;" x="237.102253" xlink:href="#mc77995da6b" y="173.877978"/>
     <use style="stroke:#000000;" x="236.16" xlink:href="#mc77995da6b" y="172.530254"/>
     <use style="stroke:#000000;" x="238.148615" xlink:href="#mc77995da6b" y="171.655634"/>
     <use style="stroke:#000000;" x="238.024387" xlink:href="#mc77995da6b" y="174.528"/>
     <use style="stroke:#000000;" x="236.482055" xlink:href="#mc77995da6b" y="174.477745"/>
     <use style="stroke:#000000;" x="239.408207" xlink:href="#mc77995da6b" y="174.528"/>
     <use style="stroke:#000000;" x="241.124312" xlink:href="#mc77995da6b" y="170.84569"/>
     <use style="stroke:#000000;" x="240.081377" xlink:href="#mc77995da6b" y="168.764808"/>
     <use style="stroke:#000000;" x="243.78637" xlink:href="#mc77995da6b" y="174.528"/>
     <use style="stroke:#000000;" x="240.476489" xlink:href="#mc77995da6b" y="174.528"/>
     <use style="stroke:#000000;" x="236.16" xlink:href="#mc77995da6b" y="171.049375"/>
     <use style="stroke:#000000;" x="236.16" xlink:href="#mc77995da6b" y="171.040825"/>
     <use style="stroke:#000000;" x="243.492394" xlink:href="#mc77995da6b" y="174.080052"/>
     <use style="stroke:#000000;" x="243.06795" xlink:href="#mc77995da6b" y="174.528"/>
     <use style="stroke:#000000;" x="236.16" xlink:href="#mc77995da6b" y="173.845549"/>
     <use style="stroke:#000000;" x="238.423929" xlink:href="#mc77995da6b" y="174.528"/>
     <use style="stroke:#000000;" x="249.417634" xlink:href="#mc77995da6b" y="174.528"/>
     <use style="stroke:#000000;" x="246.981384" xlink:href="#mc77995da6b" y="173.793745"/>
     <use style="stroke:#000000;" x="247.652131" xlink:href="#mc77995da6b" y="173.399814"/>
     <use style="stroke:#000000;" x="249.868674" xlink:href="#mc77995da6b" y="174.528"/>
     <use style="stroke:#000000;" x="244.15443" xlink:href="#mc77995da6b" y="172.353931"/>
     <use style="stroke:#000000;" x="240.668449" xlink:href="#mc77995da6b" y="170.879301"/>
     <use style="stroke:#000000;" x="244.915554" xlink:href="#mc77995da6b" y="172.257082"/>
     <use style="stroke:#000000;" x="244.272464" xlink:href="#mc77995da6b" y="173.132955"/>
     <use style="stroke:#000000;" x="245.083791" xlink:href="#mc77995da6b" y="173.666297"/>
     <use style="stroke:#000000;" x="245.71001" xlink:href="#mc77995da6b" y="171.587409"/>
     <use style="stroke:#000000;" x="244.448825" xlink:href="#mc77995da6b" y="172.677567"/>
     <use style="stroke:#000000;" x="245.403209" xlink:href="#mc77995da6b" y="170.951928"/>
     <use style="stroke:#000000;" x="243.338232" xlink:href="#mc77995da6b" y="172.056482"/>
     <use style="stroke:#000000;" x="245.425205" xlink:href="#mc77995da6b" y="171.343275"/>
     <use style="stroke:#000000;" x="246.247339" xlink:href="#mc77995da6b" y="172.17802"/>
     <use style="stroke:#000000;" x="247.239183" xlink:href="#mc77995da6b" y="173.971901"/>
     <use style="stroke:#000000;" x="251.049746" xlink:href="#mc77995da6b" y="171.183859"/>
     <use style="stroke:#000000;" x="248.846338" xlink:href="#mc77995da6b" y="172.108073"/>
     <use style="stroke:#000000;" x="253.90346" xlink:href="#mc77995da6b" y="170.467565"/>
     <use style="stroke:#000000;" x="249.142174" xlink:href="#mc77995da6b" y="171.756539"/>
     <use style="stroke:#000000;" x="245.697058" xlink:href="#mc77995da6b" y="172.273458"/>
     <use style="stroke:#000000;" x="246.022296" xlink:href="#mc77995da6b" y="171.429884"/>
     <use style="stroke:#000000;" x="249.593216" xlink:href="#mc77995da6b" y="168.022732"/>
     <use style="stroke:#000000;" x="247.72642" xlink:href="#mc77995da6b" y="167.410341"/>
     <use style="stroke:#000000;" x="236.16" xlink:href="#mc77995da6b" y="174.528"/>
     <use style="stroke:#000000;" x="237.845755" xlink:href="#mc77995da6b" y="174.528"/>
     <use style="stroke:#000000;" x="236.16" xlink:href="#mc77995da6b" y="174.433024"/>
     <use style="stroke:#000000;" x="237.294895" xlink:href="#mc77995da6b" y="173.964579"/>
     <use style="stroke:#000000;" x="236.776123" xlink:href="#mc77995da6b" y="174.528"/>
     <use style="stroke:#000000;" x="236.16" xlink:href="#mc77995da6b" y="173.656958"/>
     <use style="stroke:#000000;" x="236.16" xlink:href="#mc77995da6b" y="173.158433"/>
     <use style="stroke:#000000;" x="247.566136" xlink:href="#mc77995da6b" y="170.033892"/>
     <use style="stroke:#000000;" x="246.029228" xlink:href="#mc77995da6b" y="172.649331"/>
     <use style="stroke:#000000;" x="244.066225" xlink:href="#mc77995da6b" y="171.594085"/>
     <use style="stroke:#000000;" x="247.076815" xlink:href="#mc77995da6b" y="171.105526"/>
     <use style="stroke:#000000;" x="243.710929" xlink:href="#mc77995da6b" y="171.634187"/>
     <use style="stroke:#000000;" x="246.264476" xlink:href="#mc77995da6b" y="173.799103"/>
     <use style="stroke:#000000;" x="236.16" xlink:href="#mc77995da6b" y="172.745777"/>
     <use style="stroke:#000000;" x="237.479693" xlink:href="#mc77995da6b" y="173.944016"/>
     <use style="stroke:#000000;" x="237.175734" xlink:href="#mc77995da6b" y="171.936794"/>
     <use style="stroke:#000000;" x="238.520778" xlink:href="#mc77995da6b" y="174.035479"/>
     <use style="stroke:#000000;" x="236.16" xlink:href="#mc77995da6b" y="172.705885"/>
     <use style="stroke:#000000;" x="240.714025" xlink:href="#mc77995da6b" y="170.660534"/>
     <use style="stroke:#000000;" x="246.506617" xlink:href="#mc77995da6b" y="170.429984"/>
     <use style="stroke:#000000;" x="236.576405" xlink:href="#mc77995da6b" y="169.449596"/>
     <use style="stroke:#000000;" x="236.16" xlink:href="#mc77995da6b" y="172.752329"/>
     <use style="stroke:#000000;" x="239.721214" xlink:href="#mc77995da6b" y="172.282663"/>
     <use style="stroke:#000000;" x="240.105381" xlink:href="#mc77995da6b" y="166.636396"/>
     <use style="stroke:#000000;" x="241.462599" xlink:href="#mc77995da6b" y="174.528"/>
     <use style="stroke:#000000;" x="242.552054" xlink:href="#mc77995da6b" y="170.071816"/>
     <use style="stroke:#000000;" x="241.267174" xlink:href="#mc77995da6b" y="172.982217"/>
     <use style="stroke:#000000;" x="238.977926" xlink:href="#mc77995da6b" y="173.813321"/>
     <use style="stroke:#000000;" x="238.342035" xlink:href="#mc77995da6b" y="174.528"/>
     <use style="stroke:#000000;" x="236.16" xlink:href="#mc77995da6b" y="174.085182"/>
     <use style="stroke:#000000;" x="238.618461" xlink:href="#mc77995da6b" y="173.331243"/>
     <use style="stroke:#000000;" x="240.34075" xlink:href="#mc77995da6b" y="174.528"/>
     <use style="stroke:#000000;" x="236.16" xlink:href="#mc77995da6b" y="167.579301"/>
     <use style="stroke:#000000;" x="238.873781" xlink:href="#mc77995da6b" y="174.528"/>
     <use style="stroke:#000000;" x="244.172611" xlink:href="#mc77995da6b" y="171.120182"/>
     <use style="stroke:#000000;" x="245.641843" xlink:href="#mc77995da6b" y="174.528"/>
     <use style="stroke:#000000;" x="246.399365" xlink:href="#mc77995da6b" y="165.981374"/>
     <use style="stroke:#000000;" x="249.322377" xlink:href="#mc77995da6b" y="163.110148"/>
     <use style="stroke:#000000;" x="254.016" xlink:href="#mc77995da6b" y="171.876193"/>
     <use style="stroke:#000000;" x="246.96089" xlink:href="#mc77995da6b" y="173.786441"/>
     <use style="stroke:#000000;" x="248.5451" xlink:href="#mc77995da6b" y="172.825968"/>
     <use style="stroke:#000000;" x="250.258767" xlink:href="#mc77995da6b" y="164.861239"/>
     <use style="stroke:#000000;" x="238.220092" xlink:href="#mc77995da6b" y="174.528"/>
     <use style="stroke:#000000;" x="238.210858" xlink:href="#mc77995da6b" y="174.528"/>
     <use style="stroke:#000000;" x="239.004369" xlink:href="#mc77995da6b" y="174.528"/>
     <use style="stroke:#000000;" x="241.312535" xlink:href="#mc77995da6b" y="170.65544"/>
     <use style="stroke:#000000;" x="239.426983" xlink:href="#mc77995da6b" y="163.783972"/>
     <use style="stroke:#000000;" x="238.312177" xlink:href="#mc77995da6b" y="174.528"/>
     <use style="stroke:#000000;" x="237.669067" xlink:href="#mc77995da6b" y="172.712613"/>
     <use style="stroke:#000000;" x="236.902731" xlink:href="#mc77995da6b" y="171.959429"/>
     <use style="stroke:#000000;" x="245.302348" xlink:href="#mc77995da6b" y="171.623994"/>
     <use style="stroke:#000000;" x="238.05418" xlink:href="#mc77995da6b" y="174.528"/>
     <use style="stroke:#000000;" x="237.39752" xlink:href="#mc77995da6b" y="174.399609"/>
     <use style="stroke:#000000;" x="242.491146" xlink:href="#mc77995da6b" y="171.027334"/>
    </g>
   </g>
   <g id="PathCollection_2">
    <defs>
     <path d="M 0 0.935414 
C 0.248075 0.935414 0.486022 0.836853 0.661438 0.661438 
C 0.836853 0.486022 0.935414 0.248075 0.935414 0 
C 0.935414 -0.248075 0.836853 -0.486022 0.661438 -0.661438 
C 0.486022 -0.836853 0.248075 -0.935414 0 -0.935414 
C -0.248075 -0.935414 -0.486022 -0.836853 -0.661438 -0.661438 
C -0.836853 -0.486022 -0.935414 -0.248075 -0.935414 0 
C -0.935414 0.248075 -0.836853 0.486022 -0.661438 0.661438 
C -0.486022 0.836853 -0.248075 0.935414 0 0.935414 
z
" id="mfc2b0c6504" style="stroke:#0000ff;"/>
    </defs>
    <g clip-path="url(#p6f9b600b14)">
     <use style="fill:#0000ff;stroke:#0000ff;" x="237.425124" xlink:href="#mfc2b0c6504" y="174.404878"/>
     <use style="fill:#0000ff;stroke:#0000ff;" x="247.28426" xlink:href="#mfc2b0c6504" y="174.528"/>
     <use style="fill:#0000ff;stroke:#0000ff;" x="239.809489" xlink:href="#mfc2b0c6504" y="172.851023"/>
     <use style="fill:#0000ff;stroke:#0000ff;" x="240.604465" xlink:href="#mfc2b0c6504" y="172.736268"/>
     <use style="fill:#0000ff;stroke:#0000ff;" x="236.16" xlink:href="#mfc2b0c6504" y="173.040784"/>
     <use style="fill:#0000ff;stroke:#0000ff;" x="240.005261" xlink:href="#mfc2b0c6504" y="174.528"/>
     <use style="fill:#0000ff;stroke:#0000ff;" x="241.228075" xlink:href="#mfc2b0c6504" y="173.592509"/>
     <use style="fill:#0000ff;stroke:#0000ff;" x="238.180229" xlink:href="#mfc2b0c6504" y="174.528"/>
     <use style="fill:#0000ff;stroke:#0000ff;" x="236.46779" xlink:href="#mfc2b0c6504" y="171.908648"/>
     <use style="fill:#0000ff;stroke:#0000ff;" x="243.788839" xlink:href="#mfc2b0c6504" y="174.528"/>
     <use style="fill:#0000ff;stroke:#0000ff;" x="247.778052" xlink:href="#mfc2b0c6504" y="174.265376"/>
     <use style="fill:#0000ff;stroke:#0000ff;" x="237.890987" xlink:href="#mfc2b0c6504" y="172.238074"/>
     <use style="fill:#0000ff;stroke:#0000ff;" x="251.037819" xlink:href="#mfc2b0c6504" y="171.996206"/>
     <use style="fill:#0000ff;stroke:#0000ff;" x="236.571805" xlink:href="#mfc2b0c6504" y="173.649427"/>
     <use style="fill:#0000ff;stroke:#0000ff;" x="236.81469" xlink:href="#mfc2b0c6504" y="171.720872"/>
     <use style="fill:#0000ff;stroke:#0000ff;" x="237.331283" xlink:href="#mfc2b0c6504" y="174.228473"/>
     <use style="fill:#0000ff;stroke:#0000ff;" x="237.778943" xlink:href="#mfc2b0c6504" y="174.420746"/>
     <use style="fill:#0000ff;stroke:#0000ff;" x="247.747673" xlink:href="#mfc2b0c6504" y="174.528"/>
     <use style="fill:#0000ff;stroke:#0000ff;" x="237.56302" xlink:href="#mfc2b0c6504" y="171.990373"/>
     <use style="fill:#0000ff;stroke:#0000ff;" x="237.764291" xlink:href="#mfc2b0c6504" y="174.528"/>
     <use style="fill:#0000ff;stroke:#0000ff;" x="240.207231" xlink:href="#mfc2b0c6504" y="170.578983"/>
     <use style="fill:#0000ff;stroke:#0000ff;" x="240.329655" xlink:href="#mfc2b0c6504" y="174.528"/>
     <use style="fill:#0000ff;stroke:#0000ff;" x="240.06596" xlink:href="#mfc2b0c6504" y="168.926807"/>
     <use style="fill:#0000ff;stroke:#0000ff;" x="241.173123" xlink:href="#mfc2b0c6504" y="173.998408"/>
     <use style="fill:#0000ff;stroke:#0000ff;" x="236.16" xlink:href="#mfc2b0c6504" y="173.763376"/>
     <use style="fill:#0000ff;stroke:#0000ff;" x="239.846629" xlink:href="#mfc2b0c6504" y="174.001841"/>
     <use style="fill:#0000ff;stroke:#0000ff;" x="238.819586" xlink:href="#mfc2b0c6504" y="174.33084"/>
     <use style="fill:#0000ff;stroke:#0000ff;" x="239.932584" xlink:href="#mfc2b0c6504" y="172.017584"/>
     <use style="fill:#0000ff;stroke:#0000ff;" x="239.37488" xlink:href="#mfc2b0c6504" y="174.528"/>
     <use style="fill:#0000ff;stroke:#0000ff;" x="236.714128" xlink:href="#mfc2b0c6504" y="170.309609"/>
     <use style="fill:#0000ff;stroke:#0000ff;" x="244.197782" xlink:href="#mfc2b0c6504" y="174.528"/>
     <use style="fill:#0000ff;stroke:#0000ff;" x="236.753497" xlink:href="#mfc2b0c6504" y="174.528"/>
     <use style="fill:#0000ff;stroke:#0000ff;" x="247.465191" xlink:href="#mfc2b0c6504" y="173.990538"/>
     <use style="fill:#0000ff;stroke:#0000ff;" x="247.070702" xlink:href="#mfc2b0c6504" y="174.528"/>
     <use style="fill:#0000ff;stroke:#0000ff;" x="244.139837" xlink:href="#mfc2b0c6504" y="171.260507"/>
     <use style="fill:#0000ff;stroke:#0000ff;" x="244.053721" xlink:href="#mfc2b0c6504" y="172.33814"/>
     <use style="fill:#0000ff;stroke:#0000ff;" x="243.896365" xlink:href="#mfc2b0c6504" y="173.237373"/>
     <use style="fill:#0000ff;stroke:#0000ff;" x="244.171443" xlink:href="#mfc2b0c6504" y="172.523997"/>
     <use style="fill:#0000ff;stroke:#0000ff;" x="250.930178" xlink:href="#mfc2b0c6504" y="172.853316"/>
     <use style="fill:#0000ff;stroke:#0000ff;" x="247.838557" xlink:href="#mfc2b0c6504" y="172.102391"/>
     <use style="fill:#0000ff;stroke:#0000ff;" x="247.503788" xlink:href="#mfc2b0c6504" y="168.282059"/>
     <use style="fill:#0000ff;stroke:#0000ff;" x="236.89519" xlink:href="#mfc2b0c6504" y="174.528"/>
     <use style="fill:#0000ff;stroke:#0000ff;" x="236.772251" xlink:href="#mfc2b0c6504" y="174.528"/>
     <use style="fill:#0000ff;stroke:#0000ff;" x="237.154639" xlink:href="#mfc2b0c6504" y="173.77099"/>
     <use style="fill:#0000ff;stroke:#0000ff;" x="247.72794" xlink:href="#mfc2b0c6504" y="172.891046"/>
     <use style="fill:#0000ff;stroke:#0000ff;" x="247.531345" xlink:href="#mfc2b0c6504" y="172.269015"/>
     <use style="fill:#0000ff;stroke:#0000ff;" x="237.852714" xlink:href="#mfc2b0c6504" y="173.532986"/>
     <use style="fill:#0000ff;stroke:#0000ff;" x="237.358923" xlink:href="#mfc2b0c6504" y="173.21193"/>
     <use style="fill:#0000ff;stroke:#0000ff;" x="238.040344" xlink:href="#mfc2b0c6504" y="174.528"/>
     <use style="fill:#0000ff;stroke:#0000ff;" x="240.158781" xlink:href="#mfc2b0c6504" y="167.227826"/>
     <use style="fill:#0000ff;stroke:#0000ff;" x="244.065603" xlink:href="#mfc2b0c6504" y="170.081977"/>
     <use style="fill:#0000ff;stroke:#0000ff;" x="236.16" xlink:href="#mfc2b0c6504" y="172.636808"/>
     <use style="fill:#0000ff;stroke:#0000ff;" x="237.626835" xlink:href="#mfc2b0c6504" y="173.523995"/>
     <use style="fill:#0000ff;stroke:#0000ff;" x="240.410577" xlink:href="#mfc2b0c6504" y="163.98431"/>
     <use style="fill:#0000ff;stroke:#0000ff;" x="240.229267" xlink:href="#mfc2b0c6504" y="173.718572"/>
     <use style="fill:#0000ff;stroke:#0000ff;" x="243.843983" xlink:href="#mfc2b0c6504" y="170.72794"/>
     <use style="fill:#0000ff;stroke:#0000ff;" x="239.965568" xlink:href="#mfc2b0c6504" y="174.528"/>
     <use style="fill:#0000ff;stroke:#0000ff;" x="239.516102" xlink:href="#mfc2b0c6504" y="173.69647"/>
     <use style="fill:#0000ff;stroke:#0000ff;" x="238.915979" xlink:href="#mfc2b0c6504" y="174.528"/>
     <use style="fill:#0000ff;stroke:#0000ff;" x="239.202875" xlink:href="#mfc2b0c6504" y="174.528"/>
     <use style="fill:#0000ff;stroke:#0000ff;" x="236.98364" xlink:href="#mfc2b0c6504" y="171.329707"/>
     <use style="fill:#0000ff;stroke:#0000ff;" x="236.972374" xlink:href="#mfc2b0c6504" y="174.528"/>
     <use style="fill:#0000ff;stroke:#0000ff;" x="244.313688" xlink:href="#mfc2b0c6504" y="174.347258"/>
     <use style="fill:#0000ff;stroke:#0000ff;" x="244.275708" xlink:href="#mfc2b0c6504" y="174.520775"/>
     <use style="fill:#0000ff;stroke:#0000ff;" x="247.639956" xlink:href="#mfc2b0c6504" y="164.696255"/>
     <use style="fill:#0000ff;stroke:#0000ff;" x="250.904755" xlink:href="#mfc2b0c6504" y="164.89167"/>
     <use style="fill:#0000ff;stroke:#0000ff;" x="247.966479" xlink:href="#mfc2b0c6504" y="171.963716"/>
     <use style="fill:#0000ff;stroke:#0000ff;" x="250.946639" xlink:href="#mfc2b0c6504" y="171.377551"/>
     <use style="fill:#0000ff;stroke:#0000ff;" x="251.36767" xlink:href="#mfc2b0c6504" y="166.119552"/>
     <use style="fill:#0000ff;stroke:#0000ff;" x="237.495609" xlink:href="#mfc2b0c6504" y="174.528"/>
     <use style="fill:#0000ff;stroke:#0000ff;" x="238.03863" xlink:href="#mfc2b0c6504" y="174.528"/>
     <use style="fill:#0000ff;stroke:#0000ff;" x="237.612917" xlink:href="#mfc2b0c6504" y="171.754341"/>
     <use style="fill:#0000ff;stroke:#0000ff;" x="240.401143" xlink:href="#mfc2b0c6504" y="166.635603"/>
     <use style="fill:#0000ff;stroke:#0000ff;" x="237.636584" xlink:href="#mfc2b0c6504" y="173.570376"/>
     <use style="fill:#0000ff;stroke:#0000ff;" x="238.709424" xlink:href="#mfc2b0c6504" y="174.528"/>
     <use style="fill:#0000ff;stroke:#0000ff;" x="238.091197" xlink:href="#mfc2b0c6504" y="173.678623"/>
     <use style="fill:#0000ff;stroke:#0000ff;" x="244.199027" xlink:href="#mfc2b0c6504" y="169.915591"/>
     <use style="fill:#0000ff;stroke:#0000ff;" x="240.337365" xlink:href="#mfc2b0c6504" y="173.111463"/>
     <use style="fill:#0000ff;stroke:#0000ff;" x="236.16" xlink:href="#mfc2b0c6504" y="174.528"/>
     <use style="fill:#0000ff;stroke:#0000ff;" x="240.697984" xlink:href="#mfc2b0c6504" y="173.412471"/>
    </g>
   </g>
   <g id="matplotlib.axis_1">
    <g id="xtick_1">
     <g id="line2d_1">
      <defs>
       <path d="M 0 0 
L 0 3.5 
" id="m7e9051c7bf" style="stroke:#000000;stroke-width:0.8;"/>
      </defs>
      <g>
       <use style="stroke:#000000;stroke-width:0.8;" x="57.6" xlink:href="#m7e9051c7bf" y="307.584"/>
      </g>
     </g>
     <g id="text_1">
      <!-- −10.0 -->
      <defs>
       <path d="M 10.59375 35.5 
L 73.1875 35.5 
L 73.1875 27.203125 
L 10.59375 27.203125 
z
" id="DejaVuSans-2212"/>
       <path d="M 12.40625 8.296875 
L 28.515625 8.296875 
L 28.515625 63.921875 
L 10.984375 60.40625 
L 10.984375 69.390625 
L 28.421875 72.90625 
L 38.28125 72.90625 
L 38.28125 8.296875 
L 54.390625 8.296875 
L 54.390625 0 
L 12.40625 0 
z
" id="DejaVuSans-31"/>
       <path d="M 31.78125 66.40625 
Q 24.171875 66.40625 20.328125 58.90625 
Q 16.5 51.421875 16.5 36.375 
Q 16.5 21.390625 20.328125 13.890625 
Q 24.171875 6.390625 31.78125 6.390625 
Q 39.453125 6.390625 43.28125 13.890625 
Q 47.125 21.390625 47.125 36.375 
Q 47.125 51.421875 43.28125 58.90625 
Q 39.453125 66.40625 31.78125 66.40625 
z
M 31.78125 74.21875 
Q 44.046875 74.21875 50.515625 64.515625 
Q 56.984375 54.828125 56.984375 36.375 
Q 56.984375 17.96875 50.515625 8.265625 
Q 44.046875 -1.421875 31.78125 -1.421875 
Q 19.53125 -1.421875 13.0625 8.265625 
Q 6.59375 17.96875 6.59375 36.375 
Q 6.59375 54.828125 13.0625 64.515625 
Q 19.53125 74.21875 31.78125 74.21875 
z
" id="DejaVuSans-30"/>
       <path d="M 10.6875 12.40625 
L 21 12.40625 
L 21 0 
L 10.6875 0 
z
" id="DejaVuSans-2e"/>
      </defs>
      <g transform="translate(42.277344 322.182437)scale(0.1 -0.1)">
       <use xlink:href="#DejaVuSans-2212"/>
       <use x="83.789062" xlink:href="#DejaVuSans-31"/>
       <use x="147.412109" xlink:href="#DejaVuSans-30"/>
       <use x="211.035156" xlink:href="#DejaVuSans-2e"/>
       <use x="242.822266" xlink:href="#DejaVuSans-30"/>
      </g>
     </g>
    </g>
    <g id="xtick_2">
     <g id="line2d_2">
      <g>
       <use style="stroke:#000000;stroke-width:0.8;" x="102.24" xlink:href="#m7e9051c7bf" y="307.584"/>
      </g>
     </g>
     <g id="text_2">
      <!-- −7.5 -->
      <defs>
       <path d="M 8.203125 72.90625 
L 55.078125 72.90625 
L 55.078125 68.703125 
L 28.609375 0 
L 18.3125 0 
L 43.21875 64.59375 
L 8.203125 64.59375 
z
" id="DejaVuSans-37"/>
       <path d="M 10.796875 72.90625 
L 49.515625 72.90625 
L 49.515625 64.59375 
L 19.828125 64.59375 
L 19.828125 46.734375 
Q 21.96875 47.46875 24.109375 47.828125 
Q 26.265625 48.1875 28.421875 48.1875 
Q 40.625 48.1875 47.75 41.5 
Q 54.890625 34.8125 54.890625 23.390625 
Q 54.890625 11.625 47.5625 5.09375 
Q 40.234375 -1.421875 26.90625 -1.421875 
Q 22.3125 -1.421875 17.546875 -0.640625 
Q 12.796875 0.140625 7.71875 1.703125 
L 7.71875 11.625 
Q 12.109375 9.234375 16.796875 8.0625 
Q 21.484375 6.890625 26.703125 6.890625 
Q 35.15625 6.890625 40.078125 11.328125 
Q 45.015625 15.765625 45.015625 23.390625 
Q 45.015625 31 40.078125 35.4375 
Q 35.15625 39.890625 26.703125 39.890625 
Q 22.75 39.890625 18.8125 39.015625 
Q 14.890625 38.140625 10.796875 36.28125 
z
" id="DejaVuSans-35"/>
      </defs>
      <g transform="translate(90.098594 322.182437)scale(0.1 -0.1)">
       <use xlink:href="#DejaVuSans-2212"/>
       <use x="83.789062" xlink:href="#DejaVuSans-37"/>
       <use x="147.412109" xlink:href="#DejaVuSans-2e"/>
       <use x="179.199219" xlink:href="#DejaVuSans-35"/>
      </g>
     </g>
    </g>
    <g id="xtick_3">
     <g id="line2d_3">
      <g>
       <use style="stroke:#000000;stroke-width:0.8;" x="146.88" xlink:href="#m7e9051c7bf" y="307.584"/>
      </g>
     </g>
     <g id="text_3">
      <!-- −5.0 -->
      <g transform="translate(134.738594 322.182437)scale(0.1 -0.1)">
       <use xlink:href="#DejaVuSans-2212"/>
       <use x="83.789062" xlink:href="#DejaVuSans-35"/>
       <use x="147.412109" xlink:href="#DejaVuSans-2e"/>
       <use x="179.199219" xlink:href="#DejaVuSans-30"/>
      </g>
     </g>
    </g>
    <g id="xtick_4">
     <g id="line2d_4">
      <g>
       <use style="stroke:#000000;stroke-width:0.8;" x="191.52" xlink:href="#m7e9051c7bf" y="307.584"/>
      </g>
     </g>
     <g id="text_4">
      <!-- −2.5 -->
      <defs>
       <path d="M 19.1875 8.296875 
L 53.609375 8.296875 
L 53.609375 0 
L 7.328125 0 
L 7.328125 8.296875 
Q 12.9375 14.109375 22.625 23.890625 
Q 32.328125 33.6875 34.8125 36.53125 
Q 39.546875 41.84375 41.421875 45.53125 
Q 43.3125 49.21875 43.3125 52.78125 
Q 43.3125 58.59375 39.234375 62.25 
Q 35.15625 65.921875 28.609375 65.921875 
Q 23.96875 65.921875 18.8125 64.3125 
Q 13.671875 62.703125 7.8125 59.421875 
L 7.8125 69.390625 
Q 13.765625 71.78125 18.9375 73 
Q 24.125 74.21875 28.421875 74.21875 
Q 39.75 74.21875 46.484375 68.546875 
Q 53.21875 62.890625 53.21875 53.421875 
Q 53.21875 48.921875 51.53125 44.890625 
Q 49.859375 40.875 45.40625 35.40625 
Q 44.1875 33.984375 37.640625 27.21875 
Q 31.109375 20.453125 19.1875 8.296875 
z
" id="DejaVuSans-32"/>
      </defs>
      <g transform="translate(179.378594 322.182437)scale(0.1 -0.1)">
       <use xlink:href="#DejaVuSans-2212"/>
       <use x="83.789062" xlink:href="#DejaVuSans-32"/>
       <use x="147.412109" xlink:href="#DejaVuSans-2e"/>
       <use x="179.199219" xlink:href="#DejaVuSans-35"/>
      </g>
     </g>
    </g>
    <g id="xtick_5">
     <g id="line2d_5">
      <g>
       <use style="stroke:#000000;stroke-width:0.8;" x="236.16" xlink:href="#m7e9051c7bf" y="307.584"/>
      </g>
     </g>
     <g id="text_5">
      <!-- 0.0 -->
      <g transform="translate(228.208438 322.182437)scale(0.1 -0.1)">
       <use xlink:href="#DejaVuSans-30"/>
       <use x="63.623047" xlink:href="#DejaVuSans-2e"/>
       <use x="95.410156" xlink:href="#DejaVuSans-30"/>
      </g>
     </g>
    </g>
    <g id="xtick_6">
     <g id="line2d_6">
      <g>
       <use style="stroke:#000000;stroke-width:0.8;" x="280.8" xlink:href="#m7e9051c7bf" y="307.584"/>
      </g>
     </g>
     <g id="text_6">
      <!-- 2.5 -->
      <g transform="translate(272.848437 322.182437)scale(0.1 -0.1)">
       <use xlink:href="#DejaVuSans-32"/>
       <use x="63.623047" xlink:href="#DejaVuSans-2e"/>
       <use x="95.410156" xlink:href="#DejaVuSans-35"/>
      </g>
     </g>
    </g>
    <g id="xtick_7">
     <g id="line2d_7">
      <g>
       <use style="stroke:#000000;stroke-width:0.8;" x="325.44" xlink:href="#m7e9051c7bf" y="307.584"/>
      </g>
     </g>
     <g id="text_7">
      <!-- 5.0 -->
      <g transform="translate(317.488437 322.182437)scale(0.1 -0.1)">
       <use xlink:href="#DejaVuSans-35"/>
       <use x="63.623047" xlink:href="#DejaVuSans-2e"/>
       <use x="95.410156" xlink:href="#DejaVuSans-30"/>
      </g>
     </g>
    </g>
    <g id="xtick_8">
     <g id="line2d_8">
      <g>
       <use style="stroke:#000000;stroke-width:0.8;" x="370.08" xlink:href="#m7e9051c7bf" y="307.584"/>
      </g>
     </g>
     <g id="text_8">
      <!-- 7.5 -->
      <g transform="translate(362.128438 322.182437)scale(0.1 -0.1)">
       <use xlink:href="#DejaVuSans-37"/>
       <use x="63.623047" xlink:href="#DejaVuSans-2e"/>
       <use x="95.410156" xlink:href="#DejaVuSans-35"/>
      </g>
     </g>
    </g>
    <g id="xtick_9">
     <g id="line2d_9">
      <g>
       <use style="stroke:#000000;stroke-width:0.8;" x="414.72" xlink:href="#m7e9051c7bf" y="307.584"/>
      </g>
     </g>
     <g id="text_9">
      <!-- 10.0 -->
      <g transform="translate(403.587188 322.182437)scale(0.1 -0.1)">
       <use xlink:href="#DejaVuSans-31"/>
       <use x="63.623047" xlink:href="#DejaVuSans-30"/>
       <use x="127.246094" xlink:href="#DejaVuSans-2e"/>
       <use x="159.033203" xlink:href="#DejaVuSans-30"/>
      </g>
     </g>
    </g>
   </g>
   <g id="matplotlib.axis_2">
    <g id="ytick_1">
     <g id="line2d_10">
      <defs>
       <path d="M 0 0 
L -3.5 0 
" id="m573a1adee8" style="stroke:#000000;stroke-width:0.8;"/>
      </defs>
      <g>
       <use style="stroke:#000000;stroke-width:0.8;" x="57.6" xlink:href="#m573a1adee8" y="307.584"/>
      </g>
     </g>
     <g id="text_10">
      <!-- −10.0 -->
      <g transform="translate(19.954687 311.383219)scale(0.1 -0.1)">
       <use xlink:href="#DejaVuSans-2212"/>
       <use x="83.789062" xlink:href="#DejaVuSans-31"/>
       <use x="147.412109" xlink:href="#DejaVuSans-30"/>
       <use x="211.035156" xlink:href="#DejaVuSans-2e"/>
       <use x="242.822266" xlink:href="#DejaVuSans-30"/>
      </g>
     </g>
    </g>
    <g id="ytick_2">
     <g id="line2d_11">
      <g>
       <use style="stroke:#000000;stroke-width:0.8;" x="57.6" xlink:href="#m573a1adee8" y="274.32"/>
      </g>
     </g>
     <g id="text_11">
      <!-- −7.5 -->
      <g transform="translate(26.317187 278.119219)scale(0.1 -0.1)">
       <use xlink:href="#DejaVuSans-2212"/>
       <use x="83.789062" xlink:href="#DejaVuSans-37"/>
       <use x="147.412109" xlink:href="#DejaVuSans-2e"/>
       <use x="179.199219" xlink:href="#DejaVuSans-35"/>
      </g>
     </g>
    </g>
    <g id="ytick_3">
     <g id="line2d_12">
      <g>
       <use style="stroke:#000000;stroke-width:0.8;" x="57.6" xlink:href="#m573a1adee8" y="241.056"/>
      </g>
     </g>
     <g id="text_12">
      <!-- −5.0 -->
      <g transform="translate(26.317187 244.855219)scale(0.1 -0.1)">
       <use xlink:href="#DejaVuSans-2212"/>
       <use x="83.789062" xlink:href="#DejaVuSans-35"/>
       <use x="147.412109" xlink:href="#DejaVuSans-2e"/>
       <use x="179.199219" xlink:href="#DejaVuSans-30"/>
      </g>
     </g>
    </g>
    <g id="ytick_4">
     <g id="line2d_13">
      <g>
       <use style="stroke:#000000;stroke-width:0.8;" x="57.6" xlink:href="#m573a1adee8" y="207.792"/>
      </g>
     </g>
     <g id="text_13">
      <!-- −2.5 -->
      <g transform="translate(26.317187 211.591219)scale(0.1 -0.1)">
       <use xlink:href="#DejaVuSans-2212"/>
       <use x="83.789062" xlink:href="#DejaVuSans-32"/>
       <use x="147.412109" xlink:href="#DejaVuSans-2e"/>
       <use x="179.199219" xlink:href="#DejaVuSans-35"/>
      </g>
     </g>
    </g>
    <g id="ytick_5">
     <g id="line2d_14">
      <g>
       <use style="stroke:#000000;stroke-width:0.8;" x="57.6" xlink:href="#m573a1adee8" y="174.528"/>
      </g>
     </g>
     <g id="text_14">
      <!-- 0.0 -->
      <g transform="translate(34.696875 178.327219)scale(0.1 -0.1)">
       <use xlink:href="#DejaVuSans-30"/>
       <use x="63.623047" xlink:href="#DejaVuSans-2e"/>
       <use x="95.410156" xlink:href="#DejaVuSans-30"/>
      </g>
     </g>
    </g>
    <g id="ytick_6">
     <g id="line2d_15">
      <g>
       <use style="stroke:#000000;stroke-width:0.8;" x="57.6" xlink:href="#m573a1adee8" y="141.264"/>
      </g>
     </g>
     <g id="text_15">
      <!-- 2.5 -->
      <g transform="translate(34.696875 145.063219)scale(0.1 -0.1)">
       <use xlink:href="#DejaVuSans-32"/>
       <use x="63.623047" xlink:href="#DejaVuSans-2e"/>
       <use x="95.410156" xlink:href="#DejaVuSans-35"/>
      </g>
     </g>
    </g>
    <g id="ytick_7">
     <g id="line2d_16">
      <g>
       <use style="stroke:#000000;stroke-width:0.8;" x="57.6" xlink:href="#m573a1adee8" y="108"/>
      </g>
     </g>
     <g id="text_16">
      <!-- 5.0 -->
      <g transform="translate(34.696875 111.799219)scale(0.1 -0.1)">
       <use xlink:href="#DejaVuSans-35"/>
       <use x="63.623047" xlink:href="#DejaVuSans-2e"/>
       <use x="95.410156" xlink:href="#DejaVuSans-30"/>
      </g>
     </g>
    </g>
    <g id="ytick_8">
     <g id="line2d_17">
      <g>
       <use style="stroke:#000000;stroke-width:0.8;" x="57.6" xlink:href="#m573a1adee8" y="74.736"/>
      </g>
     </g>
     <g id="text_17">
      <!-- 7.5 -->
      <g transform="translate(34.696875 78.535219)scale(0.1 -0.1)">
       <use xlink:href="#DejaVuSans-37"/>
       <use x="63.623047" xlink:href="#DejaVuSans-2e"/>
       <use x="95.410156" xlink:href="#DejaVuSans-35"/>
      </g>
     </g>
    </g>
    <g id="ytick_9">
     <g id="line2d_18">
      <g>
       <use style="stroke:#000000;stroke-width:0.8;" x="57.6" xlink:href="#m573a1adee8" y="41.472"/>
      </g>
     </g>
     <g id="text_18">
      <!-- 10.0 -->
      <g transform="translate(28.334375 45.271219)scale(0.1 -0.1)">
       <use xlink:href="#DejaVuSans-31"/>
       <use x="63.623047" xlink:href="#DejaVuSans-30"/>
       <use x="127.246094" xlink:href="#DejaVuSans-2e"/>
       <use x="159.033203" xlink:href="#DejaVuSans-30"/>
      </g>
     </g>
    </g>
   </g>
   <g id="patch_3">
    <path d="M 57.6 307.584 
L 57.6 41.472 
" style="fill:none;stroke:#000000;stroke-linecap:square;stroke-linejoin:miter;stroke-width:0.8;"/>
   </g>
   <g id="patch_4">
    <path d="M 414.72 307.584 
L 414.72 41.472 
" style="fill:none;stroke:#000000;stroke-linecap:square;stroke-linejoin:miter;stroke-width:0.8;"/>
   </g>
   <g id="patch_5">
    <path d="M 57.6 307.584 
L 414.72 307.584 
" style="fill:none;stroke:#000000;stroke-linecap:square;stroke-linejoin:miter;stroke-width:0.8;"/>
   </g>
   <g id="patch_6">
    <path d="M 57.6 41.472 
L 414.72 41.472 
" style="fill:none;stroke:#000000;stroke-linecap:square;stroke-linejoin:miter;stroke-width:0.8;"/>
   </g>
  </g>
 </g>
 <defs>
  <clipPath id="p6f9b600b14">
   <rect height="266.112" width="357.12" x="57.6" y="41.472"/>
  </clipPath>
 </defs>
</svg>
