<?xml version="1.0" encoding="utf-8" standalone="no"?>
<!DOCTYPE svg PUBLIC "-//W3C//DTD SVG 1.1//EN"
  "http://www.w3.org/Graphics/SVG/1.1/DTD/svg11.dtd">
<!-- Created with matplotlib (http://matplotlib.org/) -->
<svg height="345.6pt" version="1.1" viewBox="0 0 460.8 345.6" width="460.8pt" xmlns="http://www.w3.org/2000/svg" xmlns:xlink="http://www.w3.org/1999/xlink">
 <defs>
  <style type="text/css">
*{stroke-linecap:butt;stroke-linejoin:round;}
  </style>
 </defs>
 <g id="figure_1">
  <g id="patch_1">
   <path d="M 0 345.6 
L 460.8 345.6 
L 460.8 0 
L 0 0 
z
" style="fill:#ffffff;"/>
  </g>
  <g id="axes_1">
   <g id="patch_2">
    <path d="M 57.6 307.584 
L 414.72 307.584 
L 414.72 41.472 
L 57.6 41.472 
z
" style="fill:#ffffff;"/>
   </g>
   <g id="PathCollection_1">
    <defs>
     <path d="M 0 0.612372 
C 0.162403 0.612372 0.318176 0.547849 0.433013 0.433013 
C 0.547849 0.318176 0.612372 0.162403 0.612372 0 
C 0.612372 -0.162403 0.547849 -0.318176 0.433013 -0.433013 
C 0.318176 -0.547849 0.162403 -0.612372 0 -0.612372 
C -0.162403 -0.612372 -0.318176 -0.547849 -0.433013 -0.433013 
C -0.547849 -0.318176 -0.612372 -0.162403 -0.612372 0 
C -0.612372 0.162403 -0.547849 0.318176 -0.433013 0.433013 
C -0.318176 0.547849 -0.162403 0.612372 0 0.612372 
z
" id="mc493bd029f" style="stroke:#000000;"/>
    </defs>
    <g clip-path="url(#p25786b98ce)">
     <use style="stroke:#000000;" x="236.16" xlink:href="#mc493bd029f" y="163.723797"/>
     <use style="stroke:#000000;" x="236.16" xlink:href="#mc493bd029f" y="174.528"/>
     <use style="stroke:#000000;" x="236.16" xlink:href="#mc493bd029f" y="147.806594"/>
     <use style="stroke:#000000;" x="236.16" xlink:href="#mc493bd029f" y="147.955218"/>
     <use style="stroke:#000000;" x="236.16" xlink:href="#mc493bd029f" y="150.313401"/>
     <use style="stroke:#000000;" x="325.44" xlink:href="#mc493bd029f" y="140.736768"/>
     <use style="stroke:#000000;" x="236.16" xlink:href="#mc493bd029f" y="170.072867"/>
     <use style="stroke:#000000;" x="236.16" xlink:href="#mc493bd029f" y="145.034124"/>
     <use style="stroke:#000000;" x="236.16" xlink:href="#mc493bd029f" y="150.935124"/>
     <use style="stroke:#000000;" x="236.16" xlink:href="#mc493bd029f" y="143.975966"/>
     <use style="stroke:#000000;" x="236.16" xlink:href="#mc493bd029f" y="142.435865"/>
     <use style="stroke:#000000;" x="325.44" xlink:href="#mc493bd029f" y="143.998845"/>
     <use style="stroke:#000000;" x="321.885286" xlink:href="#mc493bd029f" y="174.528"/>
     <use style="stroke:#000000;" x="236.16" xlink:href="#mc493bd029f" y="139.295179"/>
     <use style="stroke:#000000;" x="265.870376" xlink:href="#mc493bd029f" y="174.528"/>
     <use style="stroke:#000000;" x="236.16" xlink:href="#mc493bd029f" y="134.6112"/>
     <use style="stroke:#000000;" x="304.775217" xlink:href="#mc493bd029f" y="174.528"/>
     <use style="stroke:#000000;" x="325.44" xlink:href="#mc493bd029f" y="171.318227"/>
     <use style="stroke:#000000;" x="236.16" xlink:href="#mc493bd029f" y="134.6112"/>
     <use style="stroke:#000000;" x="236.16" xlink:href="#mc493bd029f" y="165.22391"/>
     <use style="stroke:#000000;" x="236.16" xlink:href="#mc493bd029f" y="155.877912"/>
     <use style="stroke:#000000;" x="236.16" xlink:href="#mc493bd029f" y="150.493043"/>
     <use style="stroke:#000000;" x="325.44" xlink:href="#mc493bd029f" y="158.213463"/>
     <use style="stroke:#000000;" x="325.44" xlink:href="#mc493bd029f" y="146.311296"/>
     <use style="stroke:#000000;" x="325.44" xlink:href="#mc493bd029f" y="153.300602"/>
     <use style="stroke:#000000;" x="325.44" xlink:href="#mc493bd029f" y="142.504809"/>
     <use style="stroke:#000000;" x="238.269591" xlink:href="#mc493bd029f" y="174.528"/>
     <use style="stroke:#000000;" x="325.44" xlink:href="#mc493bd029f" y="136.479949"/>
     <use style="stroke:#000000;" x="312.023915" xlink:href="#mc493bd029f" y="174.528"/>
     <use style="stroke:#000000;" x="325.44" xlink:href="#mc493bd029f" y="166.803901"/>
     <use style="stroke:#000000;" x="254.014438" xlink:href="#mc493bd029f" y="174.528"/>
     <use style="stroke:#000000;" x="236.16" xlink:href="#mc493bd029f" y="156.637806"/>
     <use style="stroke:#000000;" x="236.16" xlink:href="#mc493bd029f" y="155.127218"/>
     <use style="stroke:#000000;" x="236.16" xlink:href="#mc493bd029f" y="174.528"/>
     <use style="stroke:#000000;" x="236.16" xlink:href="#mc493bd029f" y="151.521562"/>
     <use style="stroke:#000000;" x="236.16" xlink:href="#mc493bd029f" y="137.089388"/>
     <use style="stroke:#000000;" x="236.16" xlink:href="#mc493bd029f" y="142.945077"/>
     <use style="stroke:#000000;" x="236.16" xlink:href="#mc493bd029f" y="156.755284"/>
     <use style="stroke:#000000;" x="236.16" xlink:href="#mc493bd029f" y="140.54961"/>
     <use style="stroke:#000000;" x="268.690724" xlink:href="#mc493bd029f" y="174.528"/>
     <use style="stroke:#000000;" x="236.16" xlink:href="#mc493bd029f" y="149.093013"/>
     <use style="stroke:#000000;" x="281.496839" xlink:href="#mc493bd029f" y="174.528"/>
     <use style="stroke:#000000;" x="281.103514" xlink:href="#mc493bd029f" y="174.528"/>
     <use style="stroke:#000000;" x="325.44" xlink:href="#mc493bd029f" y="145.072229"/>
     <use style="stroke:#000000;" x="236.16" xlink:href="#mc493bd029f" y="137.638865"/>
     <use style="stroke:#000000;" x="236.16" xlink:href="#mc493bd029f" y="154.499179"/>
     <use style="stroke:#000000;" x="238.07955" xlink:href="#mc493bd029f" y="174.528"/>
     <use style="stroke:#000000;" x="325.44" xlink:href="#mc493bd029f" y="147.390838"/>
     <use style="stroke:#000000;" x="236.234493" xlink:href="#mc493bd029f" y="174.528"/>
     <use style="stroke:#000000;" x="236.16" xlink:href="#mc493bd029f" y="134.6112"/>
     <use style="stroke:#000000;" x="272.282534" xlink:href="#mc493bd029f" y="174.528"/>
     <use style="stroke:#000000;" x="236.16" xlink:href="#mc493bd029f" y="139.55979"/>
     <use style="stroke:#000000;" x="236.16" xlink:href="#mc493bd029f" y="134.6112"/>
     <use style="stroke:#000000;" x="236.16" xlink:href="#mc493bd029f" y="152.962391"/>
     <use style="stroke:#000000;" x="236.16" xlink:href="#mc493bd029f" y="154.896177"/>
     <use style="stroke:#000000;" x="236.16" xlink:href="#mc493bd029f" y="145.967857"/>
     <use style="stroke:#000000;" x="325.44" xlink:href="#mc493bd029f" y="136.519949"/>
     <use style="stroke:#000000;" x="236.16" xlink:href="#mc493bd029f" y="158.572615"/>
     <use style="stroke:#000000;" x="236.16" xlink:href="#mc493bd029f" y="137.7382"/>
     <use style="stroke:#000000;" x="236.16" xlink:href="#mc493bd029f" y="173.06439"/>
     <use style="stroke:#000000;" x="236.16" xlink:href="#mc493bd029f" y="174.528"/>
     <use style="stroke:#000000;" x="236.16" xlink:href="#mc493bd029f" y="156.19164"/>
     <use style="stroke:#000000;" x="236.16" xlink:href="#mc493bd029f" y="161.517015"/>
     <use style="stroke:#000000;" x="236.16" xlink:href="#mc493bd029f" y="134.6112"/>
     <use style="stroke:#000000;" x="236.16" xlink:href="#mc493bd029f" y="173.986158"/>
     <use style="stroke:#000000;" x="236.16" xlink:href="#mc493bd029f" y="171.23554"/>
     <use style="stroke:#000000;" x="236.16" xlink:href="#mc493bd029f" y="151.386754"/>
     <use style="stroke:#000000;" x="236.16" xlink:href="#mc493bd029f" y="158.052009"/>
     <use style="stroke:#000000;" x="236.16" xlink:href="#mc493bd029f" y="159.581229"/>
     <use style="stroke:#000000;" x="236.16" xlink:href="#mc493bd029f" y="147.894263"/>
     <use style="stroke:#000000;" x="236.16" xlink:href="#mc493bd029f" y="155.769557"/>
     <use style="stroke:#000000;" x="266.101502" xlink:href="#mc493bd029f" y="174.528"/>
     <use style="stroke:#000000;" x="236.16" xlink:href="#mc493bd029f" y="169.284827"/>
     <use style="stroke:#000000;" x="236.16" xlink:href="#mc493bd029f" y="145.124354"/>
     <use style="stroke:#000000;" x="253.156328" xlink:href="#mc493bd029f" y="174.528"/>
     <use style="stroke:#000000;" x="236.16" xlink:href="#mc493bd029f" y="144.821955"/>
     <use style="stroke:#000000;" x="275.437694" xlink:href="#mc493bd029f" y="174.528"/>
     <use style="stroke:#000000;" x="249.504296" xlink:href="#mc493bd029f" y="174.528"/>
     <use style="stroke:#000000;" x="236.16" xlink:href="#mc493bd029f" y="167.779657"/>
     <use style="stroke:#000000;" x="236.16" xlink:href="#mc493bd029f" y="163.981089"/>
     <use style="stroke:#000000;" x="236.16" xlink:href="#mc493bd029f" y="160.916963"/>
     <use style="stroke:#000000;" x="236.16" xlink:href="#mc493bd029f" y="167.675385"/>
     <use style="stroke:#000000;" x="242.814866" xlink:href="#mc493bd029f" y="173.447765"/>
     <use style="stroke:#000000;" x="236.16" xlink:href="#mc493bd029f" y="174.528"/>
     <use style="stroke:#000000;" x="236.16" xlink:href="#mc493bd029f" y="174.528"/>
     <use style="stroke:#000000;" x="236.16" xlink:href="#mc493bd029f" y="139.376243"/>
     <use style="stroke:#000000;" x="236.750934" xlink:href="#mc493bd029f" y="148.5394"/>
     <use style="stroke:#000000;" x="258.510417" xlink:href="#mc493bd029f" y="146.767732"/>
     <use style="stroke:#000000;" x="236.16" xlink:href="#mc493bd029f" y="143.323514"/>
     <use style="stroke:#000000;" x="236.16" xlink:href="#mc493bd029f" y="154.129616"/>
     <use style="stroke:#000000;" x="239.092103" xlink:href="#mc493bd029f" y="152.688302"/>
     <use style="stroke:#000000;" x="243.235336" xlink:href="#mc493bd029f" y="144.601206"/>
     <use style="stroke:#000000;" x="236.16" xlink:href="#mc493bd029f" y="157.732003"/>
     <use style="stroke:#000000;" x="236.16" xlink:href="#mc493bd029f" y="157.406968"/>
     <use style="stroke:#000000;" x="325.44" xlink:href="#mc493bd029f" y="145.755915"/>
     <use style="stroke:#000000;" x="318.933456" xlink:href="#mc493bd029f" y="135.522606"/>
     <use style="stroke:#000000;" x="320.632114" xlink:href="#mc493bd029f" y="134.6112"/>
     <use style="stroke:#000000;" x="236.16" xlink:href="#mc493bd029f" y="162.12429"/>
     <use style="stroke:#000000;" x="236.16" xlink:href="#mc493bd029f" y="174.528"/>
     <use style="stroke:#000000;" x="241.060266" xlink:href="#mc493bd029f" y="163.393916"/>
     <use style="stroke:#000000;" x="244.829736" xlink:href="#mc493bd029f" y="150.677396"/>
     <use style="stroke:#000000;" x="251.64883" xlink:href="#mc493bd029f" y="139.645535"/>
     <use style="stroke:#000000;" x="245.032019" xlink:href="#mc493bd029f" y="143.805232"/>
     <use style="stroke:#000000;" x="236.358113" xlink:href="#mc493bd029f" y="149.108286"/>
     <use style="stroke:#000000;" x="236.16" xlink:href="#mc493bd029f" y="148.450988"/>
     <use style="stroke:#000000;" x="236.16" xlink:href="#mc493bd029f" y="149.810131"/>
     <use style="stroke:#000000;" x="236.16" xlink:href="#mc493bd029f" y="147.27744"/>
     <use style="stroke:#000000;" x="236.16" xlink:href="#mc493bd029f" y="141.40425"/>
     <use style="stroke:#000000;" x="236.16" xlink:href="#mc493bd029f" y="151.243748"/>
     <use style="stroke:#000000;" x="236.16" xlink:href="#mc493bd029f" y="137.648647"/>
     <use style="stroke:#000000;" x="236.16" xlink:href="#mc493bd029f" y="134.88376"/>
     <use style="stroke:#000000;" x="257.260134" xlink:href="#mc493bd029f" y="140.64699"/>
     <use style="stroke:#000000;" x="325.44" xlink:href="#mc493bd029f" y="140.713974"/>
     <use style="stroke:#000000;" x="325.44" xlink:href="#mc493bd029f" y="142.707453"/>
     <use style="stroke:#000000;" x="325.44" xlink:href="#mc493bd029f" y="139.553574"/>
     <use style="stroke:#000000;" x="325.44" xlink:href="#mc493bd029f" y="170.781289"/>
     <use style="stroke:#000000;" x="312.52954" xlink:href="#mc493bd029f" y="168.723922"/>
     <use style="stroke:#000000;" x="322.44971" xlink:href="#mc493bd029f" y="170.448258"/>
     <use style="stroke:#000000;" x="259.870017" xlink:href="#mc493bd029f" y="138.470525"/>
     <use style="stroke:#000000;" x="236.16" xlink:href="#mc493bd029f" y="145.639573"/>
     <use style="stroke:#000000;" x="236.16" xlink:href="#mc493bd029f" y="134.974506"/>
     <use style="stroke:#000000;" x="257.317026" xlink:href="#mc493bd029f" y="174.528"/>
     <use style="stroke:#000000;" x="274.075462" xlink:href="#mc493bd029f" y="174.528"/>
     <use style="stroke:#000000;" x="259.954417" xlink:href="#mc493bd029f" y="167.280536"/>
     <use style="stroke:#000000;" x="236.16" xlink:href="#mc493bd029f" y="137.107632"/>
     <use style="stroke:#000000;" x="236.16" xlink:href="#mc493bd029f" y="134.6112"/>
     <use style="stroke:#000000;" x="243.406334" xlink:href="#mc493bd029f" y="142.66296"/>
     <use style="stroke:#000000;" x="297.01371" xlink:href="#mc493bd029f" y="174.528"/>
     <use style="stroke:#000000;" x="308.341541" xlink:href="#mc493bd029f" y="174.528"/>
     <use style="stroke:#000000;" x="305.592053" xlink:href="#mc493bd029f" y="172.39148"/>
     <use style="stroke:#000000;" x="317.867226" xlink:href="#mc493bd029f" y="171.438537"/>
     <use style="stroke:#000000;" x="325.44" xlink:href="#mc493bd029f" y="172.499322"/>
     <use style="stroke:#000000;" x="323.238009" xlink:href="#mc493bd029f" y="174.528"/>
     <use style="stroke:#000000;" x="236.210707" xlink:href="#mc493bd029f" y="135.374213"/>
     <use style="stroke:#000000;" x="236.16" xlink:href="#mc493bd029f" y="134.6112"/>
     <use style="stroke:#000000;" x="241.059965" xlink:href="#mc493bd029f" y="135.384024"/>
     <use style="stroke:#000000;" x="236.16" xlink:href="#mc493bd029f" y="164.70496"/>
     <use style="stroke:#000000;" x="236.16" xlink:href="#mc493bd029f" y="167.805799"/>
     <use style="stroke:#000000;" x="248.82837" xlink:href="#mc493bd029f" y="157.193288"/>
     <use style="stroke:#000000;" x="236.16" xlink:href="#mc493bd029f" y="145.56502"/>
     <use style="stroke:#000000;" x="252.08334" xlink:href="#mc493bd029f" y="147.297604"/>
     <use style="stroke:#000000;" x="317.626994" xlink:href="#mc493bd029f" y="153.092406"/>
     <use style="stroke:#000000;" x="325.44" xlink:href="#mc493bd029f" y="140.711791"/>
     <use style="stroke:#000000;" x="325.44" xlink:href="#mc493bd029f" y="144.668003"/>
     <use style="stroke:#000000;" x="325.44" xlink:href="#mc493bd029f" y="141.578954"/>
     <use style="stroke:#000000;" x="325.44" xlink:href="#mc493bd029f" y="158.424682"/>
     <use style="stroke:#000000;" x="320.713943" xlink:href="#mc493bd029f" y="145.50503"/>
     <use style="stroke:#000000;" x="305.181831" xlink:href="#mc493bd029f" y="142.475466"/>
     <use style="stroke:#000000;" x="321.441784" xlink:href="#mc493bd029f" y="143.385354"/>
     <use style="stroke:#000000;" x="237.776245" xlink:href="#mc493bd029f" y="174.528"/>
     <use style="stroke:#000000;" x="260.088155" xlink:href="#mc493bd029f" y="172.468306"/>
     <use style="stroke:#000000;" x="244.590587" xlink:href="#mc493bd029f" y="174.528"/>
     <use style="stroke:#000000;" x="299.927017" xlink:href="#mc493bd029f" y="135.296603"/>
     <use style="stroke:#000000;" x="318.179644" xlink:href="#mc493bd029f" y="167.924514"/>
     <use style="stroke:#000000;" x="307.47185" xlink:href="#mc493bd029f" y="173.442099"/>
     <use style="stroke:#000000;" x="264.376527" xlink:href="#mc493bd029f" y="174.528"/>
     <use style="stroke:#000000;" x="236.16" xlink:href="#mc493bd029f" y="151.605277"/>
     <use style="stroke:#000000;" x="242.697387" xlink:href="#mc493bd029f" y="168.070221"/>
     <use style="stroke:#000000;" x="243.242647" xlink:href="#mc493bd029f" y="158.916643"/>
     <use style="stroke:#000000;" x="236.16" xlink:href="#mc493bd029f" y="159.246815"/>
     <use style="stroke:#000000;" x="236.16" xlink:href="#mc493bd029f" y="151.119765"/>
     <use style="stroke:#000000;" x="236.16" xlink:href="#mc493bd029f" y="159.837417"/>
     <use style="stroke:#000000;" x="245.47794" xlink:href="#mc493bd029f" y="172.761819"/>
     <use style="stroke:#000000;" x="236.992848" xlink:href="#mc493bd029f" y="173.869831"/>
     <use style="stroke:#000000;" x="236.16" xlink:href="#mc493bd029f" y="174.528"/>
     <use style="stroke:#000000;" x="243.616934" xlink:href="#mc493bd029f" y="152.332943"/>
     <use style="stroke:#000000;" x="236.16" xlink:href="#mc493bd029f" y="136.949416"/>
     <use style="stroke:#000000;" x="241.120251" xlink:href="#mc493bd029f" y="138.645489"/>
     <use style="stroke:#000000;" x="240.838099" xlink:href="#mc493bd029f" y="143.998546"/>
     <use style="stroke:#000000;" x="244.920224" xlink:href="#mc493bd029f" y="140.197348"/>
     <use style="stroke:#000000;" x="247.055294" xlink:href="#mc493bd029f" y="150.28789"/>
     <use style="stroke:#000000;" x="253.736002" xlink:href="#mc493bd029f" y="143.304078"/>
     <use style="stroke:#000000;" x="236.16" xlink:href="#mc493bd029f" y="155.978048"/>
     <use style="stroke:#000000;" x="236.16" xlink:href="#mc493bd029f" y="144.817344"/>
     <use style="stroke:#000000;" x="264.668286" xlink:href="#mc493bd029f" y="171.218496"/>
     <use style="stroke:#000000;" x="236.16" xlink:href="#mc493bd029f" y="146.987133"/>
     <use style="stroke:#000000;" x="236.16" xlink:href="#mc493bd029f" y="154.791889"/>
     <use style="stroke:#000000;" x="257.574789" xlink:href="#mc493bd029f" y="174.528"/>
     <use style="stroke:#000000;" x="304.093555" xlink:href="#mc493bd029f" y="170.55195"/>
     <use style="stroke:#000000;" x="274.67136" xlink:href="#mc493bd029f" y="174.528"/>
     <use style="stroke:#000000;" x="322.138672" xlink:href="#mc493bd029f" y="138.482924"/>
     <use style="stroke:#000000;" x="325.44" xlink:href="#mc493bd029f" y="145.219364"/>
     <use style="stroke:#000000;" x="248.649874" xlink:href="#mc493bd029f" y="148.40909"/>
     <use style="stroke:#000000;" x="236.16" xlink:href="#mc493bd029f" y="143.212241"/>
     <use style="stroke:#000000;" x="236.16" xlink:href="#mc493bd029f" y="161.132434"/>
     <use style="stroke:#000000;" x="246.804036" xlink:href="#mc493bd029f" y="142.662799"/>
     <use style="stroke:#000000;" x="242.127228" xlink:href="#mc493bd029f" y="168.881888"/>
     <use style="stroke:#000000;" x="236.16" xlink:href="#mc493bd029f" y="174.528"/>
     <use style="stroke:#000000;" x="311.771673" xlink:href="#mc493bd029f" y="147.647949"/>
     <use style="stroke:#000000;" x="325.44" xlink:href="#mc493bd029f" y="146.949328"/>
     <use style="stroke:#000000;" x="236.16" xlink:href="#mc493bd029f" y="174.528"/>
     <use style="stroke:#000000;" x="241.477655" xlink:href="#mc493bd029f" y="174.528"/>
     <use style="stroke:#000000;" x="236.16" xlink:href="#mc493bd029f" y="134.6112"/>
     <use style="stroke:#000000;" x="236.16" xlink:href="#mc493bd029f" y="136.923621"/>
     <use style="stroke:#000000;" x="256.577954" xlink:href="#mc493bd029f" y="172.044711"/>
     <use style="stroke:#000000;" x="275.478225" xlink:href="#mc493bd029f" y="168.690852"/>
     <use style="stroke:#000000;" x="246.760515" xlink:href="#mc493bd029f" y="138.473696"/>
     <use style="stroke:#000000;" x="236.16" xlink:href="#mc493bd029f" y="141.940154"/>
     <use style="stroke:#000000;" x="236.16" xlink:href="#mc493bd029f" y="134.6112"/>
     <use style="stroke:#000000;" x="257.98566" xlink:href="#mc493bd029f" y="135.143631"/>
     <use style="stroke:#000000;" x="236.16" xlink:href="#mc493bd029f" y="150.138179"/>
     <use style="stroke:#000000;" x="243.871317" xlink:href="#mc493bd029f" y="153.998312"/>
     <use style="stroke:#000000;" x="236.16" xlink:href="#mc493bd029f" y="158.83269"/>
     <use style="stroke:#000000;" x="244.494789" xlink:href="#mc493bd029f" y="143.694425"/>
     <use style="stroke:#000000;" x="236.16" xlink:href="#mc493bd029f" y="146.308147"/>
     <use style="stroke:#000000;" x="310.185883" xlink:href="#mc493bd029f" y="134.6112"/>
     <use style="stroke:#000000;" x="325.44" xlink:href="#mc493bd029f" y="148.056117"/>
     <use style="stroke:#000000;" x="236.16" xlink:href="#mc493bd029f" y="159.377005"/>
     <use style="stroke:#000000;" x="267.21324" xlink:href="#mc493bd029f" y="152.429545"/>
     <use style="stroke:#000000;" x="239.134757" xlink:href="#mc493bd029f" y="141.645443"/>
     <use style="stroke:#000000;" x="263.299337" xlink:href="#mc493bd029f" y="134.6112"/>
     <use style="stroke:#000000;" x="236.16" xlink:href="#mc493bd029f" y="165.513391"/>
     <use style="stroke:#000000;" x="239.326587" xlink:href="#mc493bd029f" y="174.528"/>
     <use style="stroke:#000000;" x="236.16" xlink:href="#mc493bd029f" y="171.315854"/>
     <use style="stroke:#000000;" x="252.095623" xlink:href="#mc493bd029f" y="168.651552"/>
     <use style="stroke:#000000;" x="236.16" xlink:href="#mc493bd029f" y="166.323404"/>
     <use style="stroke:#000000;" x="236.16" xlink:href="#mc493bd029f" y="161.230323"/>
     <use style="stroke:#000000;" x="239.990264" xlink:href="#mc493bd029f" y="156.187298"/>
     <use style="stroke:#000000;" x="236.16" xlink:href="#mc493bd029f" y="136.788348"/>
     <use style="stroke:#000000;" x="251.00263" xlink:href="#mc493bd029f" y="141.383128"/>
     <use style="stroke:#000000;" x="236.16" xlink:href="#mc493bd029f" y="170.624918"/>
     <use style="stroke:#000000;" x="241.368307" xlink:href="#mc493bd029f" y="174.528"/>
     <use style="stroke:#000000;" x="236.16" xlink:href="#mc493bd029f" y="160.039007"/>
     <use style="stroke:#000000;" x="249.89273" xlink:href="#mc493bd029f" y="166.025126"/>
     <use style="stroke:#000000;" x="236.16" xlink:href="#mc493bd029f" y="157.84481"/>
     <use style="stroke:#000000;" x="252.937742" xlink:href="#mc493bd029f" y="146.129842"/>
     <use style="stroke:#000000;" x="236.16" xlink:href="#mc493bd029f" y="157.546427"/>
     <use style="stroke:#000000;" x="237.604639" xlink:href="#mc493bd029f" y="161.225459"/>
     <use style="stroke:#000000;" x="237.46776" xlink:href="#mc493bd029f" y="153.136227"/>
     <use style="stroke:#000000;" x="236.16" xlink:href="#mc493bd029f" y="155.596752"/>
     <use style="stroke:#000000;" x="236.16" xlink:href="#mc493bd029f" y="148.697961"/>
     <use style="stroke:#000000;" x="268.202251" xlink:href="#mc493bd029f" y="168.933468"/>
     <use style="stroke:#000000;" x="253.565119" xlink:href="#mc493bd029f" y="170.695222"/>
     <use style="stroke:#000000;" x="248.813724" xlink:href="#mc493bd029f" y="174.528"/>
     <use style="stroke:#000000;" x="236.16" xlink:href="#mc493bd029f" y="141.217429"/>
     <use style="stroke:#000000;" x="267.396303" xlink:href="#mc493bd029f" y="171.167401"/>
     <use style="stroke:#000000;" x="262.441477" xlink:href="#mc493bd029f" y="141.506682"/>
     <use style="stroke:#000000;" x="285.778651" xlink:href="#mc493bd029f" y="163.363227"/>
     <use style="stroke:#000000;" x="240.106143" xlink:href="#mc493bd029f" y="174.528"/>
     <use style="stroke:#000000;" x="247.267513" xlink:href="#mc493bd029f" y="173.308331"/>
     <use style="stroke:#000000;" x="263.39398" xlink:href="#mc493bd029f" y="162.959879"/>
    </g>
   </g>
   <g id="PathCollection_2">
    <defs>
     <path d="M 0 0.935414 
C 0.248075 0.935414 0.486022 0.836853 0.661438 0.661438 
C 0.836853 0.486022 0.935414 0.248075 0.935414 0 
C 0.935414 -0.248075 0.836853 -0.486022 0.661438 -0.661438 
C 0.486022 -0.836853 0.248075 -0.935414 0 -0.935414 
C -0.248075 -0.935414 -0.486022 -0.836853 -0.661438 -0.661438 
C -0.836853 -0.486022 -0.935414 -0.248075 -0.935414 0 
C -0.935414 0.248075 -0.836853 0.486022 -0.661438 0.661438 
C -0.486022 0.836853 -0.248075 0.935414 0 0.935414 
z
" id="m0fe30734a4" style="stroke:#0000ff;"/>
    </defs>
    <g clip-path="url(#p25786b98ce)">
     <use style="fill:#0000ff;stroke:#0000ff;" x="236.16" xlink:href="#m0fe30734a4" y="163.723797"/>
     <use style="fill:#0000ff;stroke:#0000ff;" x="236.16" xlink:href="#m0fe30734a4" y="174.528"/>
     <use style="fill:#0000ff;stroke:#0000ff;" x="236.16" xlink:href="#m0fe30734a4" y="147.806594"/>
     <use style="fill:#0000ff;stroke:#0000ff;" x="236.16" xlink:href="#m0fe30734a4" y="147.955218"/>
     <use style="fill:#0000ff;stroke:#0000ff;" x="236.16" xlink:href="#m0fe30734a4" y="150.313401"/>
     <use style="fill:#0000ff;stroke:#0000ff;" x="325.44" xlink:href="#m0fe30734a4" y="140.736768"/>
     <use style="fill:#0000ff;stroke:#0000ff;" x="236.16" xlink:href="#m0fe30734a4" y="170.072867"/>
     <use style="fill:#0000ff;stroke:#0000ff;" x="236.16" xlink:href="#m0fe30734a4" y="145.034124"/>
     <use style="fill:#0000ff;stroke:#0000ff;" x="236.16" xlink:href="#m0fe30734a4" y="150.935124"/>
     <use style="fill:#0000ff;stroke:#0000ff;" x="236.16" xlink:href="#m0fe30734a4" y="143.975966"/>
     <use style="fill:#0000ff;stroke:#0000ff;" x="236.16" xlink:href="#m0fe30734a4" y="142.435865"/>
     <use style="fill:#0000ff;stroke:#0000ff;" x="325.44" xlink:href="#m0fe30734a4" y="143.998845"/>
     <use style="fill:#0000ff;stroke:#0000ff;" x="321.885286" xlink:href="#m0fe30734a4" y="174.528"/>
     <use style="fill:#0000ff;stroke:#0000ff;" x="236.16" xlink:href="#m0fe30734a4" y="139.295179"/>
     <use style="fill:#0000ff;stroke:#0000ff;" x="265.870376" xlink:href="#m0fe30734a4" y="174.528"/>
     <use style="fill:#0000ff;stroke:#0000ff;" x="236.16" xlink:href="#m0fe30734a4" y="134.6112"/>
     <use style="fill:#0000ff;stroke:#0000ff;" x="304.775217" xlink:href="#m0fe30734a4" y="174.528"/>
     <use style="fill:#0000ff;stroke:#0000ff;" x="325.44" xlink:href="#m0fe30734a4" y="171.318227"/>
     <use style="fill:#0000ff;stroke:#0000ff;" x="236.16" xlink:href="#m0fe30734a4" y="134.6112"/>
     <use style="fill:#0000ff;stroke:#0000ff;" x="236.16" xlink:href="#m0fe30734a4" y="165.22391"/>
     <use style="fill:#0000ff;stroke:#0000ff;" x="236.16" xlink:href="#m0fe30734a4" y="155.877912"/>
     <use style="fill:#0000ff;stroke:#0000ff;" x="236.16" xlink:href="#m0fe30734a4" y="150.493043"/>
     <use style="fill:#0000ff;stroke:#0000ff;" x="325.44" xlink:href="#m0fe30734a4" y="158.213463"/>
     <use style="fill:#0000ff;stroke:#0000ff;" x="325.44" xlink:href="#m0fe30734a4" y="146.311296"/>
     <use style="fill:#0000ff;stroke:#0000ff;" x="325.44" xlink:href="#m0fe30734a4" y="153.300602"/>
     <use style="fill:#0000ff;stroke:#0000ff;" x="325.44" xlink:href="#m0fe30734a4" y="142.504809"/>
     <use style="fill:#0000ff;stroke:#0000ff;" x="238.269591" xlink:href="#m0fe30734a4" y="174.528"/>
     <use style="fill:#0000ff;stroke:#0000ff;" x="325.44" xlink:href="#m0fe30734a4" y="136.479949"/>
     <use style="fill:#0000ff;stroke:#0000ff;" x="312.023915" xlink:href="#m0fe30734a4" y="174.528"/>
     <use style="fill:#0000ff;stroke:#0000ff;" x="325.44" xlink:href="#m0fe30734a4" y="166.803901"/>
     <use style="fill:#0000ff;stroke:#0000ff;" x="254.014438" xlink:href="#m0fe30734a4" y="174.528"/>
     <use style="fill:#0000ff;stroke:#0000ff;" x="236.16" xlink:href="#m0fe30734a4" y="156.637806"/>
     <use style="fill:#0000ff;stroke:#0000ff;" x="236.16" xlink:href="#m0fe30734a4" y="155.127218"/>
     <use style="fill:#0000ff;stroke:#0000ff;" x="236.16" xlink:href="#m0fe30734a4" y="174.528"/>
     <use style="fill:#0000ff;stroke:#0000ff;" x="236.16" xlink:href="#m0fe30734a4" y="151.521562"/>
     <use style="fill:#0000ff;stroke:#0000ff;" x="236.16" xlink:href="#m0fe30734a4" y="137.089388"/>
     <use style="fill:#0000ff;stroke:#0000ff;" x="236.16" xlink:href="#m0fe30734a4" y="142.945077"/>
     <use style="fill:#0000ff;stroke:#0000ff;" x="236.16" xlink:href="#m0fe30734a4" y="156.755284"/>
     <use style="fill:#0000ff;stroke:#0000ff;" x="236.16" xlink:href="#m0fe30734a4" y="140.54961"/>
     <use style="fill:#0000ff;stroke:#0000ff;" x="268.690724" xlink:href="#m0fe30734a4" y="174.528"/>
     <use style="fill:#0000ff;stroke:#0000ff;" x="236.16" xlink:href="#m0fe30734a4" y="149.093013"/>
     <use style="fill:#0000ff;stroke:#0000ff;" x="281.496839" xlink:href="#m0fe30734a4" y="174.528"/>
     <use style="fill:#0000ff;stroke:#0000ff;" x="281.103514" xlink:href="#m0fe30734a4" y="174.528"/>
     <use style="fill:#0000ff;stroke:#0000ff;" x="325.44" xlink:href="#m0fe30734a4" y="145.072229"/>
     <use style="fill:#0000ff;stroke:#0000ff;" x="236.16" xlink:href="#m0fe30734a4" y="137.638865"/>
     <use style="fill:#0000ff;stroke:#0000ff;" x="236.16" xlink:href="#m0fe30734a4" y="154.499179"/>
     <use style="fill:#0000ff;stroke:#0000ff;" x="238.07955" xlink:href="#m0fe30734a4" y="174.528"/>
     <use style="fill:#0000ff;stroke:#0000ff;" x="325.44" xlink:href="#m0fe30734a4" y="147.390838"/>
     <use style="fill:#0000ff;stroke:#0000ff;" x="236.234493" xlink:href="#m0fe30734a4" y="174.528"/>
     <use style="fill:#0000ff;stroke:#0000ff;" x="236.16" xlink:href="#m0fe30734a4" y="134.6112"/>
     <use style="fill:#0000ff;stroke:#0000ff;" x="272.282534" xlink:href="#m0fe30734a4" y="174.528"/>
     <use style="fill:#0000ff;stroke:#0000ff;" x="236.16" xlink:href="#m0fe30734a4" y="139.55979"/>
     <use style="fill:#0000ff;stroke:#0000ff;" x="236.16" xlink:href="#m0fe30734a4" y="134.6112"/>
     <use style="fill:#0000ff;stroke:#0000ff;" x="236.16" xlink:href="#m0fe30734a4" y="152.962391"/>
     <use style="fill:#0000ff;stroke:#0000ff;" x="236.16" xlink:href="#m0fe30734a4" y="154.896177"/>
     <use style="fill:#0000ff;stroke:#0000ff;" x="236.16" xlink:href="#m0fe30734a4" y="145.967857"/>
     <use style="fill:#0000ff;stroke:#0000ff;" x="325.44" xlink:href="#m0fe30734a4" y="136.519949"/>
     <use style="fill:#0000ff;stroke:#0000ff;" x="236.16" xlink:href="#m0fe30734a4" y="158.572615"/>
     <use style="fill:#0000ff;stroke:#0000ff;" x="236.16" xlink:href="#m0fe30734a4" y="137.7382"/>
     <use style="fill:#0000ff;stroke:#0000ff;" x="236.16" xlink:href="#m0fe30734a4" y="173.06439"/>
     <use style="fill:#0000ff;stroke:#0000ff;" x="236.16" xlink:href="#m0fe30734a4" y="174.528"/>
     <use style="fill:#0000ff;stroke:#0000ff;" x="236.16" xlink:href="#m0fe30734a4" y="156.19164"/>
     <use style="fill:#0000ff;stroke:#0000ff;" x="236.16" xlink:href="#m0fe30734a4" y="161.517015"/>
     <use style="fill:#0000ff;stroke:#0000ff;" x="236.16" xlink:href="#m0fe30734a4" y="134.6112"/>
     <use style="fill:#0000ff;stroke:#0000ff;" x="236.16" xlink:href="#m0fe30734a4" y="173.986158"/>
     <use style="fill:#0000ff;stroke:#0000ff;" x="236.16" xlink:href="#m0fe30734a4" y="171.23554"/>
     <use style="fill:#0000ff;stroke:#0000ff;" x="236.16" xlink:href="#m0fe30734a4" y="151.386754"/>
     <use style="fill:#0000ff;stroke:#0000ff;" x="236.16" xlink:href="#m0fe30734a4" y="158.052009"/>
     <use style="fill:#0000ff;stroke:#0000ff;" x="236.16" xlink:href="#m0fe30734a4" y="159.581229"/>
     <use style="fill:#0000ff;stroke:#0000ff;" x="236.16" xlink:href="#m0fe30734a4" y="147.894263"/>
     <use style="fill:#0000ff;stroke:#0000ff;" x="236.16" xlink:href="#m0fe30734a4" y="155.769557"/>
     <use style="fill:#0000ff;stroke:#0000ff;" x="266.101502" xlink:href="#m0fe30734a4" y="174.528"/>
     <use style="fill:#0000ff;stroke:#0000ff;" x="236.16" xlink:href="#m0fe30734a4" y="169.284827"/>
     <use style="fill:#0000ff;stroke:#0000ff;" x="236.16" xlink:href="#m0fe30734a4" y="145.124354"/>
     <use style="fill:#0000ff;stroke:#0000ff;" x="253.156328" xlink:href="#m0fe30734a4" y="174.528"/>
     <use style="fill:#0000ff;stroke:#0000ff;" x="236.16" xlink:href="#m0fe30734a4" y="144.821955"/>
     <use style="fill:#0000ff;stroke:#0000ff;" x="275.437694" xlink:href="#m0fe30734a4" y="174.528"/>
     <use style="fill:#0000ff;stroke:#0000ff;" x="249.504296" xlink:href="#m0fe30734a4" y="174.528"/>
     <use style="fill:#0000ff;stroke:#0000ff;" x="236.16" xlink:href="#m0fe30734a4" y="167.779657"/>
     <use style="fill:#0000ff;stroke:#0000ff;" x="236.16" xlink:href="#m0fe30734a4" y="163.981089"/>
    </g>
   </g>
   <g id="matplotlib.axis_1">
    <g id="xtick_1">
     <g id="line2d_1">
      <defs>
       <path d="M 0 0 
L 0 3.5 
" id="maea464142a" style="stroke:#000000;stroke-width:0.8;"/>
      </defs>
      <g>
       <use style="stroke:#000000;stroke-width:0.8;" x="57.6" xlink:href="#maea464142a" y="307.584"/>
      </g>
     </g>
     <g id="text_1">
      <!-- −10.0 -->
      <defs>
       <path d="M 10.59375 35.5 
L 73.1875 35.5 
L 73.1875 27.203125 
L 10.59375 27.203125 
z
" id="DejaVuSans-2212"/>
       <path d="M 12.40625 8.296875 
L 28.515625 8.296875 
L 28.515625 63.921875 
L 10.984375 60.40625 
L 10.984375 69.390625 
L 28.421875 72.90625 
L 38.28125 72.90625 
L 38.28125 8.296875 
L 54.390625 8.296875 
L 54.390625 0 
L 12.40625 0 
z
" id="DejaVuSans-31"/>
       <path d="M 31.78125 66.40625 
Q 24.171875 66.40625 20.328125 58.90625 
Q 16.5 51.421875 16.5 36.375 
Q 16.5 21.390625 20.328125 13.890625 
Q 24.171875 6.390625 31.78125 6.390625 
Q 39.453125 6.390625 43.28125 13.890625 
Q 47.125 21.390625 47.125 36.375 
Q 47.125 51.421875 43.28125 58.90625 
Q 39.453125 66.40625 31.78125 66.40625 
z
M 31.78125 74.21875 
Q 44.046875 74.21875 50.515625 64.515625 
Q 56.984375 54.828125 56.984375 36.375 
Q 56.984375 17.96875 50.515625 8.265625 
Q 44.046875 -1.421875 31.78125 -1.421875 
Q 19.53125 -1.421875 13.0625 8.265625 
Q 6.59375 17.96875 6.59375 36.375 
Q 6.59375 54.828125 13.0625 64.515625 
Q 19.53125 74.21875 31.78125 74.21875 
z
" id="DejaVuSans-30"/>
       <path d="M 10.6875 12.40625 
L 21 12.40625 
L 21 0 
L 10.6875 0 
z
" id="DejaVuSans-2e"/>
      </defs>
      <g transform="translate(42.277344 322.182437)scale(0.1 -0.1)">
       <use xlink:href="#DejaVuSans-2212"/>
       <use x="83.789062" xlink:href="#DejaVuSans-31"/>
       <use x="147.412109" xlink:href="#DejaVuSans-30"/>
       <use x="211.035156" xlink:href="#DejaVuSans-2e"/>
       <use x="242.822266" xlink:href="#DejaVuSans-30"/>
      </g>
     </g>
    </g>
    <g id="xtick_2">
     <g id="line2d_2">
      <g>
       <use style="stroke:#000000;stroke-width:0.8;" x="102.24" xlink:href="#maea464142a" y="307.584"/>
      </g>
     </g>
     <g id="text_2">
      <!-- −7.5 -->
      <defs>
       <path d="M 8.203125 72.90625 
L 55.078125 72.90625 
L 55.078125 68.703125 
L 28.609375 0 
L 18.3125 0 
L 43.21875 64.59375 
L 8.203125 64.59375 
z
" id="DejaVuSans-37"/>
       <path d="M 10.796875 72.90625 
L 49.515625 72.90625 
L 49.515625 64.59375 
L 19.828125 64.59375 
L 19.828125 46.734375 
Q 21.96875 47.46875 24.109375 47.828125 
Q 26.265625 48.1875 28.421875 48.1875 
Q 40.625 48.1875 47.75 41.5 
Q 54.890625 34.8125 54.890625 23.390625 
Q 54.890625 11.625 47.5625 5.09375 
Q 40.234375 -1.421875 26.90625 -1.421875 
Q 22.3125 -1.421875 17.546875 -0.640625 
Q 12.796875 0.140625 7.71875 1.703125 
L 7.71875 11.625 
Q 12.109375 9.234375 16.796875 8.0625 
Q 21.484375 6.890625 26.703125 6.890625 
Q 35.15625 6.890625 40.078125 11.328125 
Q 45.015625 15.765625 45.015625 23.390625 
Q 45.015625 31 40.078125 35.4375 
Q 35.15625 39.890625 26.703125 39.890625 
Q 22.75 39.890625 18.8125 39.015625 
Q 14.890625 38.140625 10.796875 36.28125 
z
" id="DejaVuSans-35"/>
      </defs>
      <g transform="translate(90.098594 322.182437)scale(0.1 -0.1)">
       <use xlink:href="#DejaVuSans-2212"/>
       <use x="83.789062" xlink:href="#DejaVuSans-37"/>
       <use x="147.412109" xlink:href="#DejaVuSans-2e"/>
       <use x="179.199219" xlink:href="#DejaVuSans-35"/>
      </g>
     </g>
    </g>
    <g id="xtick_3">
     <g id="line2d_3">
      <g>
       <use style="stroke:#000000;stroke-width:0.8;" x="146.88" xlink:href="#maea464142a" y="307.584"/>
      </g>
     </g>
     <g id="text_3">
      <!-- −5.0 -->
      <g transform="translate(134.738594 322.182437)scale(0.1 -0.1)">
       <use xlink:href="#DejaVuSans-2212"/>
       <use x="83.789062" xlink:href="#DejaVuSans-35"/>
       <use x="147.412109" xlink:href="#DejaVuSans-2e"/>
       <use x="179.199219" xlink:href="#DejaVuSans-30"/>
      </g>
     </g>
    </g>
    <g id="xtick_4">
     <g id="line2d_4">
      <g>
       <use style="stroke:#000000;stroke-width:0.8;" x="191.52" xlink:href="#maea464142a" y="307.584"/>
      </g>
     </g>
     <g id="text_4">
      <!-- −2.5 -->
      <defs>
       <path d="M 19.1875 8.296875 
L 53.609375 8.296875 
L 53.609375 0 
L 7.328125 0 
L 7.328125 8.296875 
Q 12.9375 14.109375 22.625 23.890625 
Q 32.328125 33.6875 34.8125 36.53125 
Q 39.546875 41.84375 41.421875 45.53125 
Q 43.3125 49.21875 43.3125 52.78125 
Q 43.3125 58.59375 39.234375 62.25 
Q 35.15625 65.921875 28.609375 65.921875 
Q 23.96875 65.921875 18.8125 64.3125 
Q 13.671875 62.703125 7.8125 59.421875 
L 7.8125 69.390625 
Q 13.765625 71.78125 18.9375 73 
Q 24.125 74.21875 28.421875 74.21875 
Q 39.75 74.21875 46.484375 68.546875 
Q 53.21875 62.890625 53.21875 53.421875 
Q 53.21875 48.921875 51.53125 44.890625 
Q 49.859375 40.875 45.40625 35.40625 
Q 44.1875 33.984375 37.640625 27.21875 
Q 31.109375 20.453125 19.1875 8.296875 
z
" id="DejaVuSans-32"/>
      </defs>
      <g transform="translate(179.378594 322.182437)scale(0.1 -0.1)">
       <use xlink:href="#DejaVuSans-2212"/>
       <use x="83.789062" xlink:href="#DejaVuSans-32"/>
       <use x="147.412109" xlink:href="#DejaVuSans-2e"/>
       <use x="179.199219" xlink:href="#DejaVuSans-35"/>
      </g>
     </g>
    </g>
    <g id="xtick_5">
     <g id="line2d_5">
      <g>
       <use style="stroke:#000000;stroke-width:0.8;" x="236.16" xlink:href="#maea464142a" y="307.584"/>
      </g>
     </g>
     <g id="text_5">
      <!-- 0.0 -->
      <g transform="translate(228.208438 322.182437)scale(0.1 -0.1)">
       <use xlink:href="#DejaVuSans-30"/>
       <use x="63.623047" xlink:href="#DejaVuSans-2e"/>
       <use x="95.410156" xlink:href="#DejaVuSans-30"/>
      </g>
     </g>
    </g>
    <g id="xtick_6">
     <g id="line2d_6">
      <g>
       <use style="stroke:#000000;stroke-width:0.8;" x="280.8" xlink:href="#maea464142a" y="307.584"/>
      </g>
     </g>
     <g id="text_6">
      <!-- 2.5 -->
      <g transform="translate(272.848437 322.182437)scale(0.1 -0.1)">
       <use xlink:href="#DejaVuSans-32"/>
       <use x="63.623047" xlink:href="#DejaVuSans-2e"/>
       <use x="95.410156" xlink:href="#DejaVuSans-35"/>
      </g>
     </g>
    </g>
    <g id="xtick_7">
     <g id="line2d_7">
      <g>
       <use style="stroke:#000000;stroke-width:0.8;" x="325.44" xlink:href="#maea464142a" y="307.584"/>
      </g>
     </g>
     <g id="text_7">
      <!-- 5.0 -->
      <g transform="translate(317.488437 322.182437)scale(0.1 -0.1)">
       <use xlink:href="#DejaVuSans-35"/>
       <use x="63.623047" xlink:href="#DejaVuSans-2e"/>
       <use x="95.410156" xlink:href="#DejaVuSans-30"/>
      </g>
     </g>
    </g>
    <g id="xtick_8">
     <g id="line2d_8">
      <g>
       <use style="stroke:#000000;stroke-width:0.8;" x="370.08" xlink:href="#maea464142a" y="307.584"/>
      </g>
     </g>
     <g id="text_8">
      <!-- 7.5 -->
      <g transform="translate(362.128438 322.182437)scale(0.1 -0.1)">
       <use xlink:href="#DejaVuSans-37"/>
       <use x="63.623047" xlink:href="#DejaVuSans-2e"/>
       <use x="95.410156" xlink:href="#DejaVuSans-35"/>
      </g>
     </g>
    </g>
    <g id="xtick_9">
     <g id="line2d_9">
      <g>
       <use style="stroke:#000000;stroke-width:0.8;" x="414.72" xlink:href="#maea464142a" y="307.584"/>
      </g>
     </g>
     <g id="text_9">
      <!-- 10.0 -->
      <g transform="translate(403.587188 322.182437)scale(0.1 -0.1)">
       <use xlink:href="#DejaVuSans-31"/>
       <use x="63.623047" xlink:href="#DejaVuSans-30"/>
       <use x="127.246094" xlink:href="#DejaVuSans-2e"/>
       <use x="159.033203" xlink:href="#DejaVuSans-30"/>
      </g>
     </g>
    </g>
   </g>
   <g id="matplotlib.axis_2">
    <g id="ytick_1">
     <g id="line2d_10">
      <defs>
       <path d="M 0 0 
L -3.5 0 
" id="mf4e2e0b880" style="stroke:#000000;stroke-width:0.8;"/>
      </defs>
      <g>
       <use style="stroke:#000000;stroke-width:0.8;" x="57.6" xlink:href="#mf4e2e0b880" y="307.584"/>
      </g>
     </g>
     <g id="text_10">
      <!-- −10.0 -->
      <g transform="translate(19.954687 311.383219)scale(0.1 -0.1)">
       <use xlink:href="#DejaVuSans-2212"/>
       <use x="83.789062" xlink:href="#DejaVuSans-31"/>
       <use x="147.412109" xlink:href="#DejaVuSans-30"/>
       <use x="211.035156" xlink:href="#DejaVuSans-2e"/>
       <use x="242.822266" xlink:href="#DejaVuSans-30"/>
      </g>
     </g>
    </g>
    <g id="ytick_2">
     <g id="line2d_11">
      <g>
       <use style="stroke:#000000;stroke-width:0.8;" x="57.6" xlink:href="#mf4e2e0b880" y="274.32"/>
      </g>
     </g>
     <g id="text_11">
      <!-- −7.5 -->
      <g transform="translate(26.317187 278.119219)scale(0.1 -0.1)">
       <use xlink:href="#DejaVuSans-2212"/>
       <use x="83.789062" xlink:href="#DejaVuSans-37"/>
       <use x="147.412109" xlink:href="#DejaVuSans-2e"/>
       <use x="179.199219" xlink:href="#DejaVuSans-35"/>
      </g>
     </g>
    </g>
    <g id="ytick_3">
     <g id="line2d_12">
      <g>
       <use style="stroke:#000000;stroke-width:0.8;" x="57.6" xlink:href="#mf4e2e0b880" y="241.056"/>
      </g>
     </g>
     <g id="text_12">
      <!-- −5.0 -->
      <g transform="translate(26.317187 244.855219)scale(0.1 -0.1)">
       <use xlink:href="#DejaVuSans-2212"/>
       <use x="83.789062" xlink:href="#DejaVuSans-35"/>
       <use x="147.412109" xlink:href="#DejaVuSans-2e"/>
       <use x="179.199219" xlink:href="#DejaVuSans-30"/>
      </g>
     </g>
    </g>
    <g id="ytick_4">
     <g id="line2d_13">
      <g>
       <use style="stroke:#000000;stroke-width:0.8;" x="57.6" xlink:href="#mf4e2e0b880" y="207.792"/>
      </g>
     </g>
     <g id="text_13">
      <!-- −2.5 -->
      <g transform="translate(26.317187 211.591219)scale(0.1 -0.1)">
       <use xlink:href="#DejaVuSans-2212"/>
       <use x="83.789062" xlink:href="#DejaVuSans-32"/>
       <use x="147.412109" xlink:href="#DejaVuSans-2e"/>
       <use x="179.199219" xlink:href="#DejaVuSans-35"/>
      </g>
     </g>
    </g>
    <g id="ytick_5">
     <g id="line2d_14">
      <g>
       <use style="stroke:#000000;stroke-width:0.8;" x="57.6" xlink:href="#mf4e2e0b880" y="174.528"/>
      </g>
     </g>
     <g id="text_14">
      <!-- 0.0 -->
      <g transform="translate(34.696875 178.327219)scale(0.1 -0.1)">
       <use xlink:href="#DejaVuSans-30"/>
       <use x="63.623047" xlink:href="#DejaVuSans-2e"/>
       <use x="95.410156" xlink:href="#DejaVuSans-30"/>
      </g>
     </g>
    </g>
    <g id="ytick_6">
     <g id="line2d_15">
      <g>
       <use style="stroke:#000000;stroke-width:0.8;" x="57.6" xlink:href="#mf4e2e0b880" y="141.264"/>
      </g>
     </g>
     <g id="text_15">
      <!-- 2.5 -->
      <g transform="translate(34.696875 145.063219)scale(0.1 -0.1)">
       <use xlink:href="#DejaVuSans-32"/>
       <use x="63.623047" xlink:href="#DejaVuSans-2e"/>
       <use x="95.410156" xlink:href="#DejaVuSans-35"/>
      </g>
     </g>
    </g>
    <g id="ytick_7">
     <g id="line2d_16">
      <g>
       <use style="stroke:#000000;stroke-width:0.8;" x="57.6" xlink:href="#mf4e2e0b880" y="108"/>
      </g>
     </g>
     <g id="text_16">
      <!-- 5.0 -->
      <g transform="translate(34.696875 111.799219)scale(0.1 -0.1)">
       <use xlink:href="#DejaVuSans-35"/>
       <use x="63.623047" xlink:href="#DejaVuSans-2e"/>
       <use x="95.410156" xlink:href="#DejaVuSans-30"/>
      </g>
     </g>
    </g>
    <g id="ytick_8">
     <g id="line2d_17">
      <g>
       <use style="stroke:#000000;stroke-width:0.8;" x="57.6" xlink:href="#mf4e2e0b880" y="74.736"/>
      </g>
     </g>
     <g id="text_17">
      <!-- 7.5 -->
      <g transform="translate(34.696875 78.535219)scale(0.1 -0.1)">
       <use xlink:href="#DejaVuSans-37"/>
       <use x="63.623047" xlink:href="#DejaVuSans-2e"/>
       <use x="95.410156" xlink:href="#DejaVuSans-35"/>
      </g>
     </g>
    </g>
    <g id="ytick_9">
     <g id="line2d_18">
      <g>
       <use style="stroke:#000000;stroke-width:0.8;" x="57.6" xlink:href="#mf4e2e0b880" y="41.472"/>
      </g>
     </g>
     <g id="text_18">
      <!-- 10.0 -->
      <g transform="translate(28.334375 45.271219)scale(0.1 -0.1)">
       <use xlink:href="#DejaVuSans-31"/>
       <use x="63.623047" xlink:href="#DejaVuSans-30"/>
       <use x="127.246094" xlink:href="#DejaVuSans-2e"/>
       <use x="159.033203" xlink:href="#DejaVuSans-30"/>
      </g>
     </g>
    </g>
   </g>
   <g id="patch_3">
    <path d="M 57.6 307.584 
L 57.6 41.472 
" style="fill:none;stroke:#000000;stroke-linecap:square;stroke-linejoin:miter;stroke-width:0.8;"/>
   </g>
   <g id="patch_4">
    <path d="M 414.72 307.584 
L 414.72 41.472 
" style="fill:none;stroke:#000000;stroke-linecap:square;stroke-linejoin:miter;stroke-width:0.8;"/>
   </g>
   <g id="patch_5">
    <path d="M 57.6 307.584 
L 414.72 307.584 
" style="fill:none;stroke:#000000;stroke-linecap:square;stroke-linejoin:miter;stroke-width:0.8;"/>
   </g>
   <g id="patch_6">
    <path d="M 57.6 41.472 
L 414.72 41.472 
" style="fill:none;stroke:#000000;stroke-linecap:square;stroke-linejoin:miter;stroke-width:0.8;"/>
   </g>
  </g>
 </g>
 <defs>
  <clipPath id="p25786b98ce">
   <rect height="266.112" width="357.12" x="57.6" y="41.472"/>
  </clipPath>
 </defs>
</svg>
