<?xml version="1.0" encoding="utf-8" standalone="no"?>
<!DOCTYPE svg PUBLIC "-//W3C//DTD SVG 1.1//EN"
  "http://www.w3.org/Graphics/SVG/1.1/DTD/svg11.dtd">
<!-- Created with matplotlib (http://matplotlib.org/) -->
<svg height="345.6pt" version="1.1" viewBox="0 0 460.8 345.6" width="460.8pt" xmlns="http://www.w3.org/2000/svg" xmlns:xlink="http://www.w3.org/1999/xlink">
 <defs>
  <style type="text/css">
*{stroke-linecap:butt;stroke-linejoin:round;}
  </style>
 </defs>
 <g id="figure_1">
  <g id="patch_1">
   <path d="M 0 345.6 
L 460.8 345.6 
L 460.8 0 
L 0 0 
z
" style="fill:#ffffff;"/>
  </g>
  <g id="axes_1">
   <g id="patch_2">
    <path d="M 57.6 307.584 
L 414.72 307.584 
L 414.72 41.472 
L 57.6 41.472 
z
" style="fill:#ffffff;"/>
   </g>
   <g id="PathCollection_1">
    <defs>
     <path d="M 0 0.612372 
C 0.162403 0.612372 0.318176 0.547849 0.433013 0.433013 
C 0.547849 0.318176 0.612372 0.162403 0.612372 0 
C 0.612372 -0.162403 0.547849 -0.318176 0.433013 -0.433013 
C 0.318176 -0.547849 0.162403 -0.612372 0 -0.612372 
C -0.162403 -0.612372 -0.318176 -0.547849 -0.433013 -0.433013 
C -0.547849 -0.318176 -0.612372 -0.162403 -0.612372 0 
C -0.612372 0.162403 -0.547849 0.318176 -0.433013 0.433013 
C -0.318176 0.547849 -0.162403 0.612372 0 0.612372 
z
" id="md0e4c610d3" style="stroke:#000000;"/>
    </defs>
    <g clip-path="url(#p6e8afbe162)">
     <use style="stroke:#000000;" x="218.367844" xlink:href="#md0e4c610d3" y="174.909916"/>
     <use style="stroke:#000000;" x="219.288968" xlink:href="#md0e4c610d3" y="174.454302"/>
     <use style="stroke:#000000;" x="218.443811" xlink:href="#md0e4c610d3" y="173.540465"/>
     <use style="stroke:#000000;" x="216.516171" xlink:href="#md0e4c610d3" y="185.178454"/>
     <use style="stroke:#000000;" x="215.475326" xlink:href="#md0e4c610d3" y="175.367019"/>
     <use style="stroke:#000000;" x="225.924139" xlink:href="#md0e4c610d3" y="174.423863"/>
     <use style="stroke:#000000;" x="216.93787" xlink:href="#md0e4c610d3" y="187.250961"/>
     <use style="stroke:#000000;" x="217.302882" xlink:href="#md0e4c610d3" y="175.027338"/>
     <use style="stroke:#000000;" x="217.938138" xlink:href="#md0e4c610d3" y="173.269152"/>
     <use style="stroke:#000000;" x="214.962101" xlink:href="#md0e4c610d3" y="185.929437"/>
     <use style="stroke:#000000;" x="217.662378" xlink:href="#md0e4c610d3" y="184.951992"/>
     <use style="stroke:#000000;" x="217.024336" xlink:href="#md0e4c610d3" y="186.567259"/>
     <use style="stroke:#000000;" x="218.077982" xlink:href="#md0e4c610d3" y="184.56665"/>
     <use style="stroke:#000000;" x="216.216066" xlink:href="#md0e4c610d3" y="184.341853"/>
     <use style="stroke:#000000;" x="217.497211" xlink:href="#md0e4c610d3" y="185.060115"/>
     <use style="stroke:#000000;" x="215.642664" xlink:href="#md0e4c610d3" y="174.956401"/>
     <use style="stroke:#000000;" x="216.94276" xlink:href="#md0e4c610d3" y="174.441331"/>
     <use style="stroke:#000000;" x="219.034866" xlink:href="#md0e4c610d3" y="174.106516"/>
     <use style="stroke:#000000;" x="216.479065" xlink:href="#md0e4c610d3" y="174.209333"/>
     <use style="stroke:#000000;" x="216.174685" xlink:href="#md0e4c610d3" y="173.281269"/>
     <use style="stroke:#000000;" x="215.708932" xlink:href="#md0e4c610d3" y="189.902124"/>
     <use style="stroke:#000000;" x="235.416581" xlink:href="#md0e4c610d3" y="174.941853"/>
     <use style="stroke:#000000;" x="230.786949" xlink:href="#md0e4c610d3" y="174.461746"/>
     <use style="stroke:#000000;" x="219.054393" xlink:href="#md0e4c610d3" y="173.664413"/>
     <use style="stroke:#000000;" x="218.093377" xlink:href="#md0e4c610d3" y="174.058892"/>
     <use style="stroke:#000000;" x="217.977411" xlink:href="#md0e4c610d3" y="174.600304"/>
     <use style="stroke:#000000;" x="219.947322" xlink:href="#md0e4c610d3" y="174.769682"/>
     <use style="stroke:#000000;" x="215.585862" xlink:href="#md0e4c610d3" y="184.132279"/>
     <use style="stroke:#000000;" x="218.433605" xlink:href="#md0e4c610d3" y="173.482654"/>
     <use style="stroke:#000000;" x="225.247959" xlink:href="#md0e4c610d3" y="174.429369"/>
     <use style="stroke:#000000;" x="220.77061" xlink:href="#md0e4c610d3" y="174.294865"/>
     <use style="stroke:#000000;" x="217.700047" xlink:href="#md0e4c610d3" y="188.054838"/>
     <use style="stroke:#000000;" x="219.016696" xlink:href="#md0e4c610d3" y="174.892453"/>
     <use style="stroke:#000000;" x="216.065234" xlink:href="#md0e4c610d3" y="186.358682"/>
     <use style="stroke:#000000;" x="217.933666" xlink:href="#md0e4c610d3" y="185.255424"/>
     <use style="stroke:#000000;" x="218.814694" xlink:href="#md0e4c610d3" y="174.629467"/>
     <use style="stroke:#000000;" x="215.71148" xlink:href="#md0e4c610d3" y="188.127336"/>
     <use style="stroke:#000000;" x="218.368404" xlink:href="#md0e4c610d3" y="174.180055"/>
     <use style="stroke:#000000;" x="216.534192" xlink:href="#md0e4c610d3" y="174.66054"/>
     <use style="stroke:#000000;" x="217.561753" xlink:href="#md0e4c610d3" y="174.056415"/>
     <use style="stroke:#000000;" x="217.376296" xlink:href="#md0e4c610d3" y="186.538817"/>
     <use style="stroke:#000000;" x="224.051687" xlink:href="#md0e4c610d3" y="174.154651"/>
     <use style="stroke:#000000;" x="219.217936" xlink:href="#md0e4c610d3" y="174.62053"/>
     <use style="stroke:#000000;" x="215.571234" xlink:href="#md0e4c610d3" y="173.981433"/>
     <use style="stroke:#000000;" x="226.13666" xlink:href="#md0e4c610d3" y="175.253416"/>
     <use style="stroke:#000000;" x="216.402106" xlink:href="#md0e4c610d3" y="174.615682"/>
     <use style="stroke:#000000;" x="216.60478" xlink:href="#md0e4c610d3" y="187.939347"/>
     <use style="stroke:#000000;" x="215.495748" xlink:href="#md0e4c610d3" y="188.2501"/>
     <use style="stroke:#000000;" x="216.341319" xlink:href="#md0e4c610d3" y="189.613782"/>
     <use style="stroke:#000000;" x="215.979213" xlink:href="#md0e4c610d3" y="175.049799"/>
     <use style="stroke:#000000;" x="217.463936" xlink:href="#md0e4c610d3" y="174.29962"/>
     <use style="stroke:#000000;" x="217.280891" xlink:href="#md0e4c610d3" y="174.56065"/>
     <use style="stroke:#000000;" x="216.182449" xlink:href="#md0e4c610d3" y="189.686583"/>
     <use style="stroke:#000000;" x="215.854163" xlink:href="#md0e4c610d3" y="187.925819"/>
     <use style="stroke:#000000;" x="217.200968" xlink:href="#md0e4c610d3" y="174.190619"/>
     <use style="stroke:#000000;" x="226.626046" xlink:href="#md0e4c610d3" y="174.608612"/>
     <use style="stroke:#000000;" x="235.410811" xlink:href="#md0e4c610d3" y="175.104192"/>
     <use style="stroke:#000000;" x="216.326305" xlink:href="#md0e4c610d3" y="184.718325"/>
     <use style="stroke:#000000;" x="226.75638" xlink:href="#md0e4c610d3" y="174.394427"/>
     <use style="stroke:#000000;" x="217.300291" xlink:href="#md0e4c610d3" y="184.72304"/>
     <use style="stroke:#000000;" x="189.285881" xlink:href="#md0e4c610d3" y="188.240781"/>
     <use style="stroke:#000000;" x="218.530004" xlink:href="#md0e4c610d3" y="175.215585"/>
     <use style="stroke:#000000;" x="219.006811" xlink:href="#md0e4c610d3" y="173.11645"/>
     <use style="stroke:#000000;" x="219.302328" xlink:href="#md0e4c610d3" y="174.556533"/>
     <use style="stroke:#000000;" x="219.142694" xlink:href="#md0e4c610d3" y="176.291822"/>
     <use style="stroke:#000000;" x="229.74023" xlink:href="#md0e4c610d3" y="167.278757"/>
     <use style="stroke:#000000;" x="197.463276" xlink:href="#md0e4c610d3" y="178.573225"/>
     <use style="stroke:#000000;" x="224.424125" xlink:href="#md0e4c610d3" y="169.439597"/>
     <use style="stroke:#000000;" x="231.748211" xlink:href="#md0e4c610d3" y="182.658887"/>
     <use style="stroke:#000000;" x="204.965848" xlink:href="#md0e4c610d3" y="202.338696"/>
     <use style="stroke:#000000;" x="234.058791" xlink:href="#md0e4c610d3" y="182.339111"/>
     <use style="stroke:#000000;" x="211.919286" xlink:href="#md0e4c610d3" y="156.04663"/>
     <use style="stroke:#000000;" x="214.017988" xlink:href="#md0e4c610d3" y="197.126304"/>
     <use style="stroke:#000000;" x="206.140497" xlink:href="#md0e4c610d3" y="189.64866"/>
     <use style="stroke:#000000;" x="212.329163" xlink:href="#md0e4c610d3" y="179.738138"/>
     <use style="stroke:#000000;" x="225.218045" xlink:href="#md0e4c610d3" y="186.205516"/>
     <use style="stroke:#000000;" x="215.796859" xlink:href="#md0e4c610d3" y="179.366515"/>
     <use style="stroke:#000000;" x="216.721931" xlink:href="#md0e4c610d3" y="189.39705"/>
     <use style="stroke:#000000;" x="217.23536" xlink:href="#md0e4c610d3" y="175.292516"/>
     <use style="stroke:#000000;" x="213.76649" xlink:href="#md0e4c610d3" y="185.902792"/>
     <use style="stroke:#000000;" x="231.287386" xlink:href="#md0e4c610d3" y="171.374766"/>
     <use style="stroke:#000000;" x="213.096583" xlink:href="#md0e4c610d3" y="180.561561"/>
     <use style="stroke:#000000;" x="212.387139" xlink:href="#md0e4c610d3" y="175.647015"/>
     <use style="stroke:#000000;" x="210.354953" xlink:href="#md0e4c610d3" y="199.040879"/>
     <use style="stroke:#000000;" x="238.741541" xlink:href="#md0e4c610d3" y="172.851696"/>
     <use style="stroke:#000000;" x="237.673637" xlink:href="#md0e4c610d3" y="180.973646"/>
     <use style="stroke:#000000;" x="237.173161" xlink:href="#md0e4c610d3" y="173.586231"/>
     <use style="stroke:#000000;" x="217.905528" xlink:href="#md0e4c610d3" y="178.176291"/>
     <use style="stroke:#000000;" x="212.799064" xlink:href="#md0e4c610d3" y="172.518881"/>
     <use style="stroke:#000000;" x="227.389662" xlink:href="#md0e4c610d3" y="173.70734"/>
     <use style="stroke:#000000;" x="224.979569" xlink:href="#md0e4c610d3" y="177.908719"/>
     <use style="stroke:#000000;" x="223.239951" xlink:href="#md0e4c610d3" y="166.842142"/>
     <use style="stroke:#000000;" x="217.386074" xlink:href="#md0e4c610d3" y="176.850155"/>
     <use style="stroke:#000000;" x="203.754196" xlink:href="#md0e4c610d3" y="173.908444"/>
     <use style="stroke:#000000;" x="220.786838" xlink:href="#md0e4c610d3" y="178.488944"/>
     <use style="stroke:#000000;" x="211.364542" xlink:href="#md0e4c610d3" y="172.016495"/>
     <use style="stroke:#000000;" x="220.670563" xlink:href="#md0e4c610d3" y="187.037332"/>
     <use style="stroke:#000000;" x="217.324097" xlink:href="#md0e4c610d3" y="186.300332"/>
     <use style="stroke:#000000;" x="214.095832" xlink:href="#md0e4c610d3" y="178.376349"/>
     <use style="stroke:#000000;" x="224.81831" xlink:href="#md0e4c610d3" y="168.619787"/>
     <use style="stroke:#000000;" x="224.032183" xlink:href="#md0e4c610d3" y="170.81553"/>
     <use style="stroke:#000000;" x="226.636669" xlink:href="#md0e4c610d3" y="173.155476"/>
     <use style="stroke:#000000;" x="221.798087" xlink:href="#md0e4c610d3" y="175.05568"/>
     <use style="stroke:#000000;" x="221.031703" xlink:href="#md0e4c610d3" y="182.216292"/>
     <use style="stroke:#000000;" x="220.856854" xlink:href="#md0e4c610d3" y="178.612772"/>
     <use style="stroke:#000000;" x="212.55883" xlink:href="#md0e4c610d3" y="191.574616"/>
     <use style="stroke:#000000;" x="216.608512" xlink:href="#md0e4c610d3" y="178.501475"/>
     <use style="stroke:#000000;" x="217.830118" xlink:href="#md0e4c610d3" y="176.152765"/>
     <use style="stroke:#000000;" x="211.699458" xlink:href="#md0e4c610d3" y="184.392011"/>
     <use style="stroke:#000000;" x="217.011964" xlink:href="#md0e4c610d3" y="191.318398"/>
     <use style="stroke:#000000;" x="215.399124" xlink:href="#md0e4c610d3" y="186.130062"/>
     <use style="stroke:#000000;" x="207.522433" xlink:href="#md0e4c610d3" y="186.059027"/>
     <use style="stroke:#000000;" x="217.316152" xlink:href="#md0e4c610d3" y="176.194074"/>
     <use style="stroke:#000000;" x="217.635044" xlink:href="#md0e4c610d3" y="174.972502"/>
     <use style="stroke:#000000;" x="214.955892" xlink:href="#md0e4c610d3" y="194.838558"/>
     <use style="stroke:#000000;" x="210.091725" xlink:href="#md0e4c610d3" y="185.980536"/>
     <use style="stroke:#000000;" x="212.211856" xlink:href="#md0e4c610d3" y="171.863804"/>
     <use style="stroke:#000000;" x="218.331114" xlink:href="#md0e4c610d3" y="175.012765"/>
     <use style="stroke:#000000;" x="211.589607" xlink:href="#md0e4c610d3" y="175.270345"/>
     <use style="stroke:#000000;" x="209.403315" xlink:href="#md0e4c610d3" y="174.648163"/>
     <use style="stroke:#000000;" x="218.701331" xlink:href="#md0e4c610d3" y="177.84364"/>
     <use style="stroke:#000000;" x="220.896865" xlink:href="#md0e4c610d3" y="177.505116"/>
     <use style="stroke:#000000;" x="215.215129" xlink:href="#md0e4c610d3" y="186.043156"/>
     <use style="stroke:#000000;" x="218.073282" xlink:href="#md0e4c610d3" y="187.142122"/>
     <use style="stroke:#000000;" x="219.695285" xlink:href="#md0e4c610d3" y="188.486333"/>
     <use style="stroke:#000000;" x="218.896833" xlink:href="#md0e4c610d3" y="175.225039"/>
     <use style="stroke:#000000;" x="222.487285" xlink:href="#md0e4c610d3" y="176.008916"/>
     <use style="stroke:#000000;" x="219.28281" xlink:href="#md0e4c610d3" y="176.574344"/>
     <use style="stroke:#000000;" x="220.904712" xlink:href="#md0e4c610d3" y="173.767573"/>
     <use style="stroke:#000000;" x="220.739402" xlink:href="#md0e4c610d3" y="175.70358"/>
     <use style="stroke:#000000;" x="220.806925" xlink:href="#md0e4c610d3" y="174.272867"/>
     <use style="stroke:#000000;" x="218.021654" xlink:href="#md0e4c610d3" y="174.668615"/>
     <use style="stroke:#000000;" x="212.868306" xlink:href="#md0e4c610d3" y="178.301895"/>
     <use style="stroke:#000000;" x="217.421474" xlink:href="#md0e4c610d3" y="173.586494"/>
     <use style="stroke:#000000;" x="228.568395" xlink:href="#md0e4c610d3" y="178.406923"/>
     <use style="stroke:#000000;" x="223.224174" xlink:href="#md0e4c610d3" y="175.93357"/>
     <use style="stroke:#000000;" x="224.372592" xlink:href="#md0e4c610d3" y="177.634294"/>
     <use style="stroke:#000000;" x="212.062236" xlink:href="#md0e4c610d3" y="174.924902"/>
     <use style="stroke:#000000;" x="215.704394" xlink:href="#md0e4c610d3" y="174.473527"/>
     <use style="stroke:#000000;" x="213.260264" xlink:href="#md0e4c610d3" y="189.557527"/>
     <use style="stroke:#000000;" x="219.607462" xlink:href="#md0e4c610d3" y="189.045322"/>
     <use style="stroke:#000000;" x="214.919476" xlink:href="#md0e4c610d3" y="188.997751"/>
     <use style="stroke:#000000;" x="213.452818" xlink:href="#md0e4c610d3" y="188.9589"/>
     <use style="stroke:#000000;" x="216.179259" xlink:href="#md0e4c610d3" y="187.156031"/>
     <use style="stroke:#000000;" x="216.140979" xlink:href="#md0e4c610d3" y="188.602276"/>
     <use style="stroke:#000000;" x="217.735791" xlink:href="#md0e4c610d3" y="190.082536"/>
     <use style="stroke:#000000;" x="217.521416" xlink:href="#md0e4c610d3" y="190.256466"/>
     <use style="stroke:#000000;" x="213.995634" xlink:href="#md0e4c610d3" y="189.205471"/>
     <use style="stroke:#000000;" x="214.664459" xlink:href="#md0e4c610d3" y="174.268666"/>
     <use style="stroke:#000000;" x="215.841858" xlink:href="#md0e4c610d3" y="174.298197"/>
     <use style="stroke:#000000;" x="217.466548" xlink:href="#md0e4c610d3" y="174.18578"/>
     <use style="stroke:#000000;" x="214.322206" xlink:href="#md0e4c610d3" y="174.483743"/>
     <use style="stroke:#000000;" x="215.450771" xlink:href="#md0e4c610d3" y="171.808942"/>
     <use style="stroke:#000000;" x="217.787933" xlink:href="#md0e4c610d3" y="173.474157"/>
     <use style="stroke:#000000;" x="214.921794" xlink:href="#md0e4c610d3" y="172.020206"/>
     <use style="stroke:#000000;" x="216.071383" xlink:href="#md0e4c610d3" y="173.363449"/>
     <use style="stroke:#000000;" x="219.639759" xlink:href="#md0e4c610d3" y="174.514795"/>
     <use style="stroke:#000000;" x="213.387058" xlink:href="#md0e4c610d3" y="190.703616"/>
     <use style="stroke:#000000;" x="218.628358" xlink:href="#md0e4c610d3" y="188.617897"/>
     <use style="stroke:#000000;" x="215.818983" xlink:href="#md0e4c610d3" y="191.023101"/>
     <use style="stroke:#000000;" x="215.883787" xlink:href="#md0e4c610d3" y="186.562316"/>
     <use style="stroke:#000000;" x="216.635644" xlink:href="#md0e4c610d3" y="186.17748"/>
     <use style="stroke:#000000;" x="217.135426" xlink:href="#md0e4c610d3" y="190.430238"/>
     <use style="stroke:#000000;" x="213.189803" xlink:href="#md0e4c610d3" y="176.244759"/>
     <use style="stroke:#000000;" x="219.845113" xlink:href="#md0e4c610d3" y="173.95832"/>
     <use style="stroke:#000000;" x="221.202872" xlink:href="#md0e4c610d3" y="173.668866"/>
     <use style="stroke:#000000;" x="224.350683" xlink:href="#md0e4c610d3" y="173.685761"/>
     <use style="stroke:#000000;" x="225.28255" xlink:href="#md0e4c610d3" y="172.911826"/>
     <use style="stroke:#000000;" x="226.375154" xlink:href="#md0e4c610d3" y="174.651243"/>
     <use style="stroke:#000000;" x="234.868365" xlink:href="#md0e4c610d3" y="173.379249"/>
     <use style="stroke:#000000;" x="235.701493" xlink:href="#md0e4c610d3" y="175.950559"/>
     <use style="stroke:#000000;" x="234.746176" xlink:href="#md0e4c610d3" y="174.078529"/>
     <use style="stroke:#000000;" x="217.203235" xlink:href="#md0e4c610d3" y="186.422568"/>
     <use style="stroke:#000000;" x="216.201862" xlink:href="#md0e4c610d3" y="184.979596"/>
     <use style="stroke:#000000;" x="211.905731" xlink:href="#md0e4c610d3" y="184.340607"/>
     <use style="stroke:#000000;" x="225.662584" xlink:href="#md0e4c610d3" y="174.181918"/>
     <use style="stroke:#000000;" x="226.26067" xlink:href="#md0e4c610d3" y="173.976447"/>
     <use style="stroke:#000000;" x="226.14329" xlink:href="#md0e4c610d3" y="174.509679"/>
     <use style="stroke:#000000;" x="217.659977" xlink:href="#md0e4c610d3" y="184.779992"/>
     <use style="stroke:#000000;" x="217.538792" xlink:href="#md0e4c610d3" y="185.872439"/>
     <use style="stroke:#000000;" x="220.318106" xlink:href="#md0e4c610d3" y="185.59435"/>
    </g>
   </g>
   <g id="PathCollection_2">
    <defs>
     <path d="M 0 0.935414 
C 0.248075 0.935414 0.486022 0.836853 0.661438 0.661438 
C 0.836853 0.486022 0.935414 0.248075 0.935414 0 
C 0.935414 -0.248075 0.836853 -0.486022 0.661438 -0.661438 
C 0.486022 -0.836853 0.248075 -0.935414 0 -0.935414 
C -0.248075 -0.935414 -0.486022 -0.836853 -0.661438 -0.661438 
C -0.836853 -0.486022 -0.935414 -0.248075 -0.935414 0 
C -0.935414 0.248075 -0.836853 0.486022 -0.661438 0.661438 
C -0.486022 0.836853 -0.248075 0.935414 0 0.935414 
z
" id="m7151d5bdc6" style="stroke:#0000ff;"/>
    </defs>
    <g clip-path="url(#p6e8afbe162)">
     <use style="fill:#0000ff;stroke:#0000ff;" x="218.367844" xlink:href="#m7151d5bdc6" y="174.909916"/>
     <use style="fill:#0000ff;stroke:#0000ff;" x="219.288968" xlink:href="#m7151d5bdc6" y="174.454302"/>
     <use style="fill:#0000ff;stroke:#0000ff;" x="218.443811" xlink:href="#m7151d5bdc6" y="173.540465"/>
     <use style="fill:#0000ff;stroke:#0000ff;" x="216.516171" xlink:href="#m7151d5bdc6" y="185.178454"/>
     <use style="fill:#0000ff;stroke:#0000ff;" x="215.475326" xlink:href="#m7151d5bdc6" y="175.367019"/>
     <use style="fill:#0000ff;stroke:#0000ff;" x="225.924139" xlink:href="#m7151d5bdc6" y="174.423863"/>
     <use style="fill:#0000ff;stroke:#0000ff;" x="216.93787" xlink:href="#m7151d5bdc6" y="187.250961"/>
     <use style="fill:#0000ff;stroke:#0000ff;" x="217.302882" xlink:href="#m7151d5bdc6" y="175.027338"/>
     <use style="fill:#0000ff;stroke:#0000ff;" x="217.938138" xlink:href="#m7151d5bdc6" y="173.269152"/>
     <use style="fill:#0000ff;stroke:#0000ff;" x="214.962101" xlink:href="#m7151d5bdc6" y="185.929437"/>
     <use style="fill:#0000ff;stroke:#0000ff;" x="217.662378" xlink:href="#m7151d5bdc6" y="184.951992"/>
     <use style="fill:#0000ff;stroke:#0000ff;" x="217.024336" xlink:href="#m7151d5bdc6" y="186.567259"/>
     <use style="fill:#0000ff;stroke:#0000ff;" x="218.077982" xlink:href="#m7151d5bdc6" y="184.56665"/>
     <use style="fill:#0000ff;stroke:#0000ff;" x="216.216066" xlink:href="#m7151d5bdc6" y="184.341853"/>
     <use style="fill:#0000ff;stroke:#0000ff;" x="217.497211" xlink:href="#m7151d5bdc6" y="185.060115"/>
     <use style="fill:#0000ff;stroke:#0000ff;" x="215.642664" xlink:href="#m7151d5bdc6" y="174.956401"/>
     <use style="fill:#0000ff;stroke:#0000ff;" x="216.94276" xlink:href="#m7151d5bdc6" y="174.441331"/>
     <use style="fill:#0000ff;stroke:#0000ff;" x="219.034866" xlink:href="#m7151d5bdc6" y="174.106516"/>
     <use style="fill:#0000ff;stroke:#0000ff;" x="216.479065" xlink:href="#m7151d5bdc6" y="174.209333"/>
     <use style="fill:#0000ff;stroke:#0000ff;" x="216.174685" xlink:href="#m7151d5bdc6" y="173.281269"/>
     <use style="fill:#0000ff;stroke:#0000ff;" x="215.708932" xlink:href="#m7151d5bdc6" y="189.902124"/>
     <use style="fill:#0000ff;stroke:#0000ff;" x="235.416581" xlink:href="#m7151d5bdc6" y="174.941853"/>
     <use style="fill:#0000ff;stroke:#0000ff;" x="230.786949" xlink:href="#m7151d5bdc6" y="174.461746"/>
     <use style="fill:#0000ff;stroke:#0000ff;" x="219.054393" xlink:href="#m7151d5bdc6" y="173.664413"/>
     <use style="fill:#0000ff;stroke:#0000ff;" x="218.093377" xlink:href="#m7151d5bdc6" y="174.058892"/>
     <use style="fill:#0000ff;stroke:#0000ff;" x="217.977411" xlink:href="#m7151d5bdc6" y="174.600304"/>
     <use style="fill:#0000ff;stroke:#0000ff;" x="219.947322" xlink:href="#m7151d5bdc6" y="174.769682"/>
     <use style="fill:#0000ff;stroke:#0000ff;" x="215.585862" xlink:href="#m7151d5bdc6" y="184.132279"/>
     <use style="fill:#0000ff;stroke:#0000ff;" x="218.433605" xlink:href="#m7151d5bdc6" y="173.482654"/>
     <use style="fill:#0000ff;stroke:#0000ff;" x="225.247959" xlink:href="#m7151d5bdc6" y="174.429369"/>
     <use style="fill:#0000ff;stroke:#0000ff;" x="220.77061" xlink:href="#m7151d5bdc6" y="174.294865"/>
     <use style="fill:#0000ff;stroke:#0000ff;" x="217.700047" xlink:href="#m7151d5bdc6" y="188.054838"/>
     <use style="fill:#0000ff;stroke:#0000ff;" x="219.016696" xlink:href="#m7151d5bdc6" y="174.892453"/>
     <use style="fill:#0000ff;stroke:#0000ff;" x="216.065234" xlink:href="#m7151d5bdc6" y="186.358682"/>
     <use style="fill:#0000ff;stroke:#0000ff;" x="217.933666" xlink:href="#m7151d5bdc6" y="185.255424"/>
     <use style="fill:#0000ff;stroke:#0000ff;" x="218.814694" xlink:href="#m7151d5bdc6" y="174.629467"/>
     <use style="fill:#0000ff;stroke:#0000ff;" x="215.71148" xlink:href="#m7151d5bdc6" y="188.127336"/>
     <use style="fill:#0000ff;stroke:#0000ff;" x="218.368404" xlink:href="#m7151d5bdc6" y="174.180055"/>
     <use style="fill:#0000ff;stroke:#0000ff;" x="216.534192" xlink:href="#m7151d5bdc6" y="174.66054"/>
     <use style="fill:#0000ff;stroke:#0000ff;" x="217.561753" xlink:href="#m7151d5bdc6" y="174.056415"/>
     <use style="fill:#0000ff;stroke:#0000ff;" x="217.376296" xlink:href="#m7151d5bdc6" y="186.538817"/>
     <use style="fill:#0000ff;stroke:#0000ff;" x="224.051687" xlink:href="#m7151d5bdc6" y="174.154651"/>
     <use style="fill:#0000ff;stroke:#0000ff;" x="219.217936" xlink:href="#m7151d5bdc6" y="174.62053"/>
     <use style="fill:#0000ff;stroke:#0000ff;" x="215.571234" xlink:href="#m7151d5bdc6" y="173.981433"/>
     <use style="fill:#0000ff;stroke:#0000ff;" x="226.13666" xlink:href="#m7151d5bdc6" y="175.253416"/>
     <use style="fill:#0000ff;stroke:#0000ff;" x="216.402106" xlink:href="#m7151d5bdc6" y="174.615682"/>
     <use style="fill:#0000ff;stroke:#0000ff;" x="216.60478" xlink:href="#m7151d5bdc6" y="187.939347"/>
     <use style="fill:#0000ff;stroke:#0000ff;" x="215.495748" xlink:href="#m7151d5bdc6" y="188.2501"/>
     <use style="fill:#0000ff;stroke:#0000ff;" x="216.341319" xlink:href="#m7151d5bdc6" y="189.613782"/>
     <use style="fill:#0000ff;stroke:#0000ff;" x="215.979213" xlink:href="#m7151d5bdc6" y="175.049799"/>
     <use style="fill:#0000ff;stroke:#0000ff;" x="217.463936" xlink:href="#m7151d5bdc6" y="174.29962"/>
     <use style="fill:#0000ff;stroke:#0000ff;" x="217.280891" xlink:href="#m7151d5bdc6" y="174.56065"/>
     <use style="fill:#0000ff;stroke:#0000ff;" x="216.182449" xlink:href="#m7151d5bdc6" y="189.686583"/>
     <use style="fill:#0000ff;stroke:#0000ff;" x="215.854163" xlink:href="#m7151d5bdc6" y="187.925819"/>
     <use style="fill:#0000ff;stroke:#0000ff;" x="217.200968" xlink:href="#m7151d5bdc6" y="174.190619"/>
     <use style="fill:#0000ff;stroke:#0000ff;" x="226.626046" xlink:href="#m7151d5bdc6" y="174.608612"/>
     <use style="fill:#0000ff;stroke:#0000ff;" x="235.410811" xlink:href="#m7151d5bdc6" y="175.104192"/>
     <use style="fill:#0000ff;stroke:#0000ff;" x="216.326305" xlink:href="#m7151d5bdc6" y="184.718325"/>
     <use style="fill:#0000ff;stroke:#0000ff;" x="226.75638" xlink:href="#m7151d5bdc6" y="174.394427"/>
     <use style="fill:#0000ff;stroke:#0000ff;" x="217.300291" xlink:href="#m7151d5bdc6" y="184.72304"/>
    </g>
   </g>
   <g id="matplotlib.axis_1">
    <g id="xtick_1">
     <g id="line2d_1">
      <defs>
       <path d="M 0 0 
L 0 3.5 
" id="maf1f7eedae" style="stroke:#000000;stroke-width:0.8;"/>
      </defs>
      <g>
       <use style="stroke:#000000;stroke-width:0.8;" x="57.6" xlink:href="#maf1f7eedae" y="307.584"/>
      </g>
     </g>
     <g id="text_1">
      <!-- −10.0 -->
      <defs>
       <path d="M 10.59375 35.5 
L 73.1875 35.5 
L 73.1875 27.203125 
L 10.59375 27.203125 
z
" id="DejaVuSans-2212"/>
       <path d="M 12.40625 8.296875 
L 28.515625 8.296875 
L 28.515625 63.921875 
L 10.984375 60.40625 
L 10.984375 69.390625 
L 28.421875 72.90625 
L 38.28125 72.90625 
L 38.28125 8.296875 
L 54.390625 8.296875 
L 54.390625 0 
L 12.40625 0 
z
" id="DejaVuSans-31"/>
       <path d="M 31.78125 66.40625 
Q 24.171875 66.40625 20.328125 58.90625 
Q 16.5 51.421875 16.5 36.375 
Q 16.5 21.390625 20.328125 13.890625 
Q 24.171875 6.390625 31.78125 6.390625 
Q 39.453125 6.390625 43.28125 13.890625 
Q 47.125 21.390625 47.125 36.375 
Q 47.125 51.421875 43.28125 58.90625 
Q 39.453125 66.40625 31.78125 66.40625 
z
M 31.78125 74.21875 
Q 44.046875 74.21875 50.515625 64.515625 
Q 56.984375 54.828125 56.984375 36.375 
Q 56.984375 17.96875 50.515625 8.265625 
Q 44.046875 -1.421875 31.78125 -1.421875 
Q 19.53125 -1.421875 13.0625 8.265625 
Q 6.59375 17.96875 6.59375 36.375 
Q 6.59375 54.828125 13.0625 64.515625 
Q 19.53125 74.21875 31.78125 74.21875 
z
" id="DejaVuSans-30"/>
       <path d="M 10.6875 12.40625 
L 21 12.40625 
L 21 0 
L 10.6875 0 
z
" id="DejaVuSans-2e"/>
      </defs>
      <g transform="translate(42.277344 322.182437)scale(0.1 -0.1)">
       <use xlink:href="#DejaVuSans-2212"/>
       <use x="83.789062" xlink:href="#DejaVuSans-31"/>
       <use x="147.412109" xlink:href="#DejaVuSans-30"/>
       <use x="211.035156" xlink:href="#DejaVuSans-2e"/>
       <use x="242.822266" xlink:href="#DejaVuSans-30"/>
      </g>
     </g>
    </g>
    <g id="xtick_2">
     <g id="line2d_2">
      <g>
       <use style="stroke:#000000;stroke-width:0.8;" x="102.24" xlink:href="#maf1f7eedae" y="307.584"/>
      </g>
     </g>
     <g id="text_2">
      <!-- −7.5 -->
      <defs>
       <path d="M 8.203125 72.90625 
L 55.078125 72.90625 
L 55.078125 68.703125 
L 28.609375 0 
L 18.3125 0 
L 43.21875 64.59375 
L 8.203125 64.59375 
z
" id="DejaVuSans-37"/>
       <path d="M 10.796875 72.90625 
L 49.515625 72.90625 
L 49.515625 64.59375 
L 19.828125 64.59375 
L 19.828125 46.734375 
Q 21.96875 47.46875 24.109375 47.828125 
Q 26.265625 48.1875 28.421875 48.1875 
Q 40.625 48.1875 47.75 41.5 
Q 54.890625 34.8125 54.890625 23.390625 
Q 54.890625 11.625 47.5625 5.09375 
Q 40.234375 -1.421875 26.90625 -1.421875 
Q 22.3125 -1.421875 17.546875 -0.640625 
Q 12.796875 0.140625 7.71875 1.703125 
L 7.71875 11.625 
Q 12.109375 9.234375 16.796875 8.0625 
Q 21.484375 6.890625 26.703125 6.890625 
Q 35.15625 6.890625 40.078125 11.328125 
Q 45.015625 15.765625 45.015625 23.390625 
Q 45.015625 31 40.078125 35.4375 
Q 35.15625 39.890625 26.703125 39.890625 
Q 22.75 39.890625 18.8125 39.015625 
Q 14.890625 38.140625 10.796875 36.28125 
z
" id="DejaVuSans-35"/>
      </defs>
      <g transform="translate(90.098594 322.182437)scale(0.1 -0.1)">
       <use xlink:href="#DejaVuSans-2212"/>
       <use x="83.789062" xlink:href="#DejaVuSans-37"/>
       <use x="147.412109" xlink:href="#DejaVuSans-2e"/>
       <use x="179.199219" xlink:href="#DejaVuSans-35"/>
      </g>
     </g>
    </g>
    <g id="xtick_3">
     <g id="line2d_3">
      <g>
       <use style="stroke:#000000;stroke-width:0.8;" x="146.88" xlink:href="#maf1f7eedae" y="307.584"/>
      </g>
     </g>
     <g id="text_3">
      <!-- −5.0 -->
      <g transform="translate(134.738594 322.182437)scale(0.1 -0.1)">
       <use xlink:href="#DejaVuSans-2212"/>
       <use x="83.789062" xlink:href="#DejaVuSans-35"/>
       <use x="147.412109" xlink:href="#DejaVuSans-2e"/>
       <use x="179.199219" xlink:href="#DejaVuSans-30"/>
      </g>
     </g>
    </g>
    <g id="xtick_4">
     <g id="line2d_4">
      <g>
       <use style="stroke:#000000;stroke-width:0.8;" x="191.52" xlink:href="#maf1f7eedae" y="307.584"/>
      </g>
     </g>
     <g id="text_4">
      <!-- −2.5 -->
      <defs>
       <path d="M 19.1875 8.296875 
L 53.609375 8.296875 
L 53.609375 0 
L 7.328125 0 
L 7.328125 8.296875 
Q 12.9375 14.109375 22.625 23.890625 
Q 32.328125 33.6875 34.8125 36.53125 
Q 39.546875 41.84375 41.421875 45.53125 
Q 43.3125 49.21875 43.3125 52.78125 
Q 43.3125 58.59375 39.234375 62.25 
Q 35.15625 65.921875 28.609375 65.921875 
Q 23.96875 65.921875 18.8125 64.3125 
Q 13.671875 62.703125 7.8125 59.421875 
L 7.8125 69.390625 
Q 13.765625 71.78125 18.9375 73 
Q 24.125 74.21875 28.421875 74.21875 
Q 39.75 74.21875 46.484375 68.546875 
Q 53.21875 62.890625 53.21875 53.421875 
Q 53.21875 48.921875 51.53125 44.890625 
Q 49.859375 40.875 45.40625 35.40625 
Q 44.1875 33.984375 37.640625 27.21875 
Q 31.109375 20.453125 19.1875 8.296875 
z
" id="DejaVuSans-32"/>
      </defs>
      <g transform="translate(179.378594 322.182437)scale(0.1 -0.1)">
       <use xlink:href="#DejaVuSans-2212"/>
       <use x="83.789062" xlink:href="#DejaVuSans-32"/>
       <use x="147.412109" xlink:href="#DejaVuSans-2e"/>
       <use x="179.199219" xlink:href="#DejaVuSans-35"/>
      </g>
     </g>
    </g>
    <g id="xtick_5">
     <g id="line2d_5">
      <g>
       <use style="stroke:#000000;stroke-width:0.8;" x="236.16" xlink:href="#maf1f7eedae" y="307.584"/>
      </g>
     </g>
     <g id="text_5">
      <!-- 0.0 -->
      <g transform="translate(228.208438 322.182437)scale(0.1 -0.1)">
       <use xlink:href="#DejaVuSans-30"/>
       <use x="63.623047" xlink:href="#DejaVuSans-2e"/>
       <use x="95.410156" xlink:href="#DejaVuSans-30"/>
      </g>
     </g>
    </g>
    <g id="xtick_6">
     <g id="line2d_6">
      <g>
       <use style="stroke:#000000;stroke-width:0.8;" x="280.8" xlink:href="#maf1f7eedae" y="307.584"/>
      </g>
     </g>
     <g id="text_6">
      <!-- 2.5 -->
      <g transform="translate(272.848437 322.182437)scale(0.1 -0.1)">
       <use xlink:href="#DejaVuSans-32"/>
       <use x="63.623047" xlink:href="#DejaVuSans-2e"/>
       <use x="95.410156" xlink:href="#DejaVuSans-35"/>
      </g>
     </g>
    </g>
    <g id="xtick_7">
     <g id="line2d_7">
      <g>
       <use style="stroke:#000000;stroke-width:0.8;" x="325.44" xlink:href="#maf1f7eedae" y="307.584"/>
      </g>
     </g>
     <g id="text_7">
      <!-- 5.0 -->
      <g transform="translate(317.488437 322.182437)scale(0.1 -0.1)">
       <use xlink:href="#DejaVuSans-35"/>
       <use x="63.623047" xlink:href="#DejaVuSans-2e"/>
       <use x="95.410156" xlink:href="#DejaVuSans-30"/>
      </g>
     </g>
    </g>
    <g id="xtick_8">
     <g id="line2d_8">
      <g>
       <use style="stroke:#000000;stroke-width:0.8;" x="370.08" xlink:href="#maf1f7eedae" y="307.584"/>
      </g>
     </g>
     <g id="text_8">
      <!-- 7.5 -->
      <g transform="translate(362.128438 322.182437)scale(0.1 -0.1)">
       <use xlink:href="#DejaVuSans-37"/>
       <use x="63.623047" xlink:href="#DejaVuSans-2e"/>
       <use x="95.410156" xlink:href="#DejaVuSans-35"/>
      </g>
     </g>
    </g>
    <g id="xtick_9">
     <g id="line2d_9">
      <g>
       <use style="stroke:#000000;stroke-width:0.8;" x="414.72" xlink:href="#maf1f7eedae" y="307.584"/>
      </g>
     </g>
     <g id="text_9">
      <!-- 10.0 -->
      <g transform="translate(403.587188 322.182437)scale(0.1 -0.1)">
       <use xlink:href="#DejaVuSans-31"/>
       <use x="63.623047" xlink:href="#DejaVuSans-30"/>
       <use x="127.246094" xlink:href="#DejaVuSans-2e"/>
       <use x="159.033203" xlink:href="#DejaVuSans-30"/>
      </g>
     </g>
    </g>
   </g>
   <g id="matplotlib.axis_2">
    <g id="ytick_1">
     <g id="line2d_10">
      <defs>
       <path d="M 0 0 
L -3.5 0 
" id="m098fc2faf9" style="stroke:#000000;stroke-width:0.8;"/>
      </defs>
      <g>
       <use style="stroke:#000000;stroke-width:0.8;" x="57.6" xlink:href="#m098fc2faf9" y="307.584"/>
      </g>
     </g>
     <g id="text_10">
      <!-- −10.0 -->
      <g transform="translate(19.954687 311.383219)scale(0.1 -0.1)">
       <use xlink:href="#DejaVuSans-2212"/>
       <use x="83.789062" xlink:href="#DejaVuSans-31"/>
       <use x="147.412109" xlink:href="#DejaVuSans-30"/>
       <use x="211.035156" xlink:href="#DejaVuSans-2e"/>
       <use x="242.822266" xlink:href="#DejaVuSans-30"/>
      </g>
     </g>
    </g>
    <g id="ytick_2">
     <g id="line2d_11">
      <g>
       <use style="stroke:#000000;stroke-width:0.8;" x="57.6" xlink:href="#m098fc2faf9" y="274.32"/>
      </g>
     </g>
     <g id="text_11">
      <!-- −7.5 -->
      <g transform="translate(26.317187 278.119219)scale(0.1 -0.1)">
       <use xlink:href="#DejaVuSans-2212"/>
       <use x="83.789062" xlink:href="#DejaVuSans-37"/>
       <use x="147.412109" xlink:href="#DejaVuSans-2e"/>
       <use x="179.199219" xlink:href="#DejaVuSans-35"/>
      </g>
     </g>
    </g>
    <g id="ytick_3">
     <g id="line2d_12">
      <g>
       <use style="stroke:#000000;stroke-width:0.8;" x="57.6" xlink:href="#m098fc2faf9" y="241.056"/>
      </g>
     </g>
     <g id="text_12">
      <!-- −5.0 -->
      <g transform="translate(26.317187 244.855219)scale(0.1 -0.1)">
       <use xlink:href="#DejaVuSans-2212"/>
       <use x="83.789062" xlink:href="#DejaVuSans-35"/>
       <use x="147.412109" xlink:href="#DejaVuSans-2e"/>
       <use x="179.199219" xlink:href="#DejaVuSans-30"/>
      </g>
     </g>
    </g>
    <g id="ytick_4">
     <g id="line2d_13">
      <g>
       <use style="stroke:#000000;stroke-width:0.8;" x="57.6" xlink:href="#m098fc2faf9" y="207.792"/>
      </g>
     </g>
     <g id="text_13">
      <!-- −2.5 -->
      <g transform="translate(26.317187 211.591219)scale(0.1 -0.1)">
       <use xlink:href="#DejaVuSans-2212"/>
       <use x="83.789062" xlink:href="#DejaVuSans-32"/>
       <use x="147.412109" xlink:href="#DejaVuSans-2e"/>
       <use x="179.199219" xlink:href="#DejaVuSans-35"/>
      </g>
     </g>
    </g>
    <g id="ytick_5">
     <g id="line2d_14">
      <g>
       <use style="stroke:#000000;stroke-width:0.8;" x="57.6" xlink:href="#m098fc2faf9" y="174.528"/>
      </g>
     </g>
     <g id="text_14">
      <!-- 0.0 -->
      <g transform="translate(34.696875 178.327219)scale(0.1 -0.1)">
       <use xlink:href="#DejaVuSans-30"/>
       <use x="63.623047" xlink:href="#DejaVuSans-2e"/>
       <use x="95.410156" xlink:href="#DejaVuSans-30"/>
      </g>
     </g>
    </g>
    <g id="ytick_6">
     <g id="line2d_15">
      <g>
       <use style="stroke:#000000;stroke-width:0.8;" x="57.6" xlink:href="#m098fc2faf9" y="141.264"/>
      </g>
     </g>
     <g id="text_15">
      <!-- 2.5 -->
      <g transform="translate(34.696875 145.063219)scale(0.1 -0.1)">
       <use xlink:href="#DejaVuSans-32"/>
       <use x="63.623047" xlink:href="#DejaVuSans-2e"/>
       <use x="95.410156" xlink:href="#DejaVuSans-35"/>
      </g>
     </g>
    </g>
    <g id="ytick_7">
     <g id="line2d_16">
      <g>
       <use style="stroke:#000000;stroke-width:0.8;" x="57.6" xlink:href="#m098fc2faf9" y="108"/>
      </g>
     </g>
     <g id="text_16">
      <!-- 5.0 -->
      <g transform="translate(34.696875 111.799219)scale(0.1 -0.1)">
       <use xlink:href="#DejaVuSans-35"/>
       <use x="63.623047" xlink:href="#DejaVuSans-2e"/>
       <use x="95.410156" xlink:href="#DejaVuSans-30"/>
      </g>
     </g>
    </g>
    <g id="ytick_8">
     <g id="line2d_17">
      <g>
       <use style="stroke:#000000;stroke-width:0.8;" x="57.6" xlink:href="#m098fc2faf9" y="74.736"/>
      </g>
     </g>
     <g id="text_17">
      <!-- 7.5 -->
      <g transform="translate(34.696875 78.535219)scale(0.1 -0.1)">
       <use xlink:href="#DejaVuSans-37"/>
       <use x="63.623047" xlink:href="#DejaVuSans-2e"/>
       <use x="95.410156" xlink:href="#DejaVuSans-35"/>
      </g>
     </g>
    </g>
    <g id="ytick_9">
     <g id="line2d_18">
      <g>
       <use style="stroke:#000000;stroke-width:0.8;" x="57.6" xlink:href="#m098fc2faf9" y="41.472"/>
      </g>
     </g>
     <g id="text_18">
      <!-- 10.0 -->
      <g transform="translate(28.334375 45.271219)scale(0.1 -0.1)">
       <use xlink:href="#DejaVuSans-31"/>
       <use x="63.623047" xlink:href="#DejaVuSans-30"/>
       <use x="127.246094" xlink:href="#DejaVuSans-2e"/>
       <use x="159.033203" xlink:href="#DejaVuSans-30"/>
      </g>
     </g>
    </g>
   </g>
   <g id="patch_3">
    <path d="M 57.6 307.584 
L 57.6 41.472 
" style="fill:none;stroke:#000000;stroke-linecap:square;stroke-linejoin:miter;stroke-width:0.8;"/>
   </g>
   <g id="patch_4">
    <path d="M 414.72 307.584 
L 414.72 41.472 
" style="fill:none;stroke:#000000;stroke-linecap:square;stroke-linejoin:miter;stroke-width:0.8;"/>
   </g>
   <g id="patch_5">
    <path d="M 57.6 307.584 
L 414.72 307.584 
" style="fill:none;stroke:#000000;stroke-linecap:square;stroke-linejoin:miter;stroke-width:0.8;"/>
   </g>
   <g id="patch_6">
    <path d="M 57.6 41.472 
L 414.72 41.472 
" style="fill:none;stroke:#000000;stroke-linecap:square;stroke-linejoin:miter;stroke-width:0.8;"/>
   </g>
  </g>
 </g>
 <defs>
  <clipPath id="p6e8afbe162">
   <rect height="266.112" width="357.12" x="57.6" y="41.472"/>
  </clipPath>
 </defs>
</svg>
