<?xml version="1.0" encoding="utf-8" standalone="no"?>
<!DOCTYPE svg PUBLIC "-//W3C//DTD SVG 1.1//EN"
  "http://www.w3.org/Graphics/SVG/1.1/DTD/svg11.dtd">
<!-- Created with matplotlib (http://matplotlib.org/) -->
<svg height="345.6pt" version="1.1" viewBox="0 0 460.8 345.6" width="460.8pt" xmlns="http://www.w3.org/2000/svg" xmlns:xlink="http://www.w3.org/1999/xlink">
 <defs>
  <style type="text/css">
*{stroke-linecap:butt;stroke-linejoin:round;}
  </style>
 </defs>
 <g id="figure_1">
  <g id="patch_1">
   <path d="M 0 345.6 
L 460.8 345.6 
L 460.8 0 
L 0 0 
z
" style="fill:#ffffff;"/>
  </g>
  <g id="axes_1">
   <g id="patch_2">
    <path d="M 57.6 307.584 
L 414.72 307.584 
L 414.72 41.472 
L 57.6 41.472 
z
" style="fill:#ffffff;"/>
   </g>
   <g id="PathCollection_1">
    <defs>
     <path d="M 0 0.612372 
C 0.162403 0.612372 0.318176 0.547849 0.433013 0.433013 
C 0.547849 0.318176 0.612372 0.162403 0.612372 0 
C 0.612372 -0.162403 0.547849 -0.318176 0.433013 -0.433013 
C 0.318176 -0.547849 0.162403 -0.612372 0 -0.612372 
C -0.162403 -0.612372 -0.318176 -0.547849 -0.433013 -0.433013 
C -0.547849 -0.318176 -0.612372 -0.162403 -0.612372 0 
C -0.612372 0.162403 -0.547849 0.318176 -0.433013 0.433013 
C -0.318176 0.547849 -0.162403 0.612372 0 0.612372 
z
" id="m0eb9c2a26d" style="stroke:#000000;"/>
    </defs>
    <g clip-path="url(#p2f32f0f902)">
     <use style="stroke:#000000;" x="236.16" xlink:href="#m0eb9c2a26d" y="174.528"/>
     <use style="stroke:#000000;" x="236.16" xlink:href="#m0eb9c2a26d" y="137.120496"/>
     <use style="stroke:#000000;" x="236.16" xlink:href="#m0eb9c2a26d" y="134.775163"/>
     <use style="stroke:#000000;" x="236.16" xlink:href="#m0eb9c2a26d" y="147.107858"/>
     <use style="stroke:#000000;" x="236.16" xlink:href="#m0eb9c2a26d" y="172.976043"/>
     <use style="stroke:#000000;" x="263.763706" xlink:href="#m0eb9c2a26d" y="174.528"/>
     <use style="stroke:#000000;" x="236.16" xlink:href="#m0eb9c2a26d" y="148.676381"/>
     <use style="stroke:#000000;" x="236.16" xlink:href="#m0eb9c2a26d" y="147.478832"/>
     <use style="stroke:#000000;" x="250.474383" xlink:href="#m0eb9c2a26d" y="174.249639"/>
     <use style="stroke:#000000;" x="249.472091" xlink:href="#m0eb9c2a26d" y="174.528"/>
     <use style="stroke:#000000;" x="236.16" xlink:href="#m0eb9c2a26d" y="174.528"/>
     <use style="stroke:#000000;" x="236.16" xlink:href="#m0eb9c2a26d" y="174.528"/>
     <use style="stroke:#000000;" x="236.16" xlink:href="#m0eb9c2a26d" y="137.333376"/>
     <use style="stroke:#000000;" x="242.615761" xlink:href="#m0eb9c2a26d" y="174.528"/>
     <use style="stroke:#000000;" x="237.096272" xlink:href="#m0eb9c2a26d" y="174.528"/>
     <use style="stroke:#000000;" x="236.16" xlink:href="#m0eb9c2a26d" y="173.889978"/>
     <use style="stroke:#000000;" x="236.16" xlink:href="#m0eb9c2a26d" y="173.524601"/>
     <use style="stroke:#000000;" x="252.759304" xlink:href="#m0eb9c2a26d" y="174.528"/>
     <use style="stroke:#000000;" x="242.861745" xlink:href="#m0eb9c2a26d" y="174.528"/>
     <use style="stroke:#000000;" x="243.004558" xlink:href="#m0eb9c2a26d" y="174.528"/>
     <use style="stroke:#000000;" x="280.856808" xlink:href="#m0eb9c2a26d" y="174.528"/>
     <use style="stroke:#000000;" x="238.329221" xlink:href="#m0eb9c2a26d" y="174.528"/>
     <use style="stroke:#000000;" x="271.839491" xlink:href="#m0eb9c2a26d" y="174.528"/>
     <use style="stroke:#000000;" x="277.790538" xlink:href="#m0eb9c2a26d" y="174.528"/>
     <use style="stroke:#000000;" x="241.839357" xlink:href="#m0eb9c2a26d" y="134.6112"/>
     <use style="stroke:#000000;" x="240.207628" xlink:href="#m0eb9c2a26d" y="174.528"/>
     <use style="stroke:#000000;" x="247.73432" xlink:href="#m0eb9c2a26d" y="174.528"/>
     <use style="stroke:#000000;" x="325.44" xlink:href="#m0eb9c2a26d" y="134.6112"/>
     <use style="stroke:#000000;" x="277.907415" xlink:href="#m0eb9c2a26d" y="174.528"/>
     <use style="stroke:#000000;" x="236.16" xlink:href="#m0eb9c2a26d" y="136.682462"/>
     <use style="stroke:#000000;" x="236.16" xlink:href="#m0eb9c2a26d" y="167.360606"/>
     <use style="stroke:#000000;" x="256.73345" xlink:href="#m0eb9c2a26d" y="174.528"/>
     <use style="stroke:#000000;" x="236.16" xlink:href="#m0eb9c2a26d" y="166.035554"/>
     <use style="stroke:#000000;" x="236.16" xlink:href="#m0eb9c2a26d" y="148.740035"/>
     <use style="stroke:#000000;" x="260.360849" xlink:href="#m0eb9c2a26d" y="174.528"/>
     <use style="stroke:#000000;" x="236.16" xlink:href="#m0eb9c2a26d" y="172.414157"/>
     <use style="stroke:#000000;" x="236.16" xlink:href="#m0eb9c2a26d" y="174.528"/>
     <use style="stroke:#000000;" x="275.599417" xlink:href="#m0eb9c2a26d" y="174.528"/>
     <use style="stroke:#000000;" x="325.379627" xlink:href="#m0eb9c2a26d" y="140.090174"/>
     <use style="stroke:#000000;" x="236.16" xlink:href="#m0eb9c2a26d" y="147.870207"/>
     <use style="stroke:#000000;" x="247.400187" xlink:href="#m0eb9c2a26d" y="174.528"/>
     <use style="stroke:#000000;" x="236.16" xlink:href="#m0eb9c2a26d" y="147.533675"/>
     <use style="stroke:#000000;" x="236.16" xlink:href="#m0eb9c2a26d" y="171.574583"/>
     <use style="stroke:#000000;" x="236.16" xlink:href="#m0eb9c2a26d" y="162.675876"/>
     <use style="stroke:#000000;" x="241.906725" xlink:href="#m0eb9c2a26d" y="174.528"/>
     <use style="stroke:#000000;" x="236.16" xlink:href="#m0eb9c2a26d" y="140.318148"/>
     <use style="stroke:#000000;" x="246.811448" xlink:href="#m0eb9c2a26d" y="174.528"/>
     <use style="stroke:#000000;" x="236.16" xlink:href="#m0eb9c2a26d" y="136.150065"/>
     <use style="stroke:#000000;" x="244.01136" xlink:href="#m0eb9c2a26d" y="174.528"/>
     <use style="stroke:#000000;" x="243.37401" xlink:href="#m0eb9c2a26d" y="174.528"/>
     <use style="stroke:#000000;" x="259.412785" xlink:href="#m0eb9c2a26d" y="174.528"/>
     <use style="stroke:#000000;" x="236.16" xlink:href="#m0eb9c2a26d" y="173.320981"/>
     <use style="stroke:#000000;" x="236.16" xlink:href="#m0eb9c2a26d" y="146.108782"/>
     <use style="stroke:#000000;" x="236.16" xlink:href="#m0eb9c2a26d" y="172.781685"/>
     <use style="stroke:#000000;" x="252.49237" xlink:href="#m0eb9c2a26d" y="174.528"/>
     <use style="stroke:#000000;" x="242.637057" xlink:href="#m0eb9c2a26d" y="174.528"/>
     <use style="stroke:#000000;" x="236.16" xlink:href="#m0eb9c2a26d" y="135.245705"/>
     <use style="stroke:#000000;" x="246.100356" xlink:href="#m0eb9c2a26d" y="174.528"/>
     <use style="stroke:#000000;" x="236.16" xlink:href="#m0eb9c2a26d" y="174.267376"/>
     <use style="stroke:#000000;" x="237.884249" xlink:href="#m0eb9c2a26d" y="134.6112"/>
     <use style="stroke:#000000;" x="236.16" xlink:href="#m0eb9c2a26d" y="174.528"/>
     <use style="stroke:#000000;" x="250.158838" xlink:href="#m0eb9c2a26d" y="174.528"/>
     <use style="stroke:#000000;" x="238.848271" xlink:href="#m0eb9c2a26d" y="174.528"/>
     <use style="stroke:#000000;" x="237.831439" xlink:href="#m0eb9c2a26d" y="174.528"/>
     <use style="stroke:#000000;" x="236.16" xlink:href="#m0eb9c2a26d" y="147.156346"/>
     <use style="stroke:#000000;" x="236.16" xlink:href="#m0eb9c2a26d" y="134.825984"/>
     <use style="stroke:#000000;" x="236.389968" xlink:href="#m0eb9c2a26d" y="174.528"/>
     <use style="stroke:#000000;" x="250.941219" xlink:href="#m0eb9c2a26d" y="174.528"/>
     <use style="stroke:#000000;" x="245.693732" xlink:href="#m0eb9c2a26d" y="174.528"/>
     <use style="stroke:#000000;" x="276.772072" xlink:href="#m0eb9c2a26d" y="174.528"/>
     <use style="stroke:#000000;" x="244.271901" xlink:href="#m0eb9c2a26d" y="174.528"/>
     <use style="stroke:#000000;" x="243.916632" xlink:href="#m0eb9c2a26d" y="174.528"/>
     <use style="stroke:#000000;" x="251.50264" xlink:href="#m0eb9c2a26d" y="174.528"/>
     <use style="stroke:#000000;" x="236.16" xlink:href="#m0eb9c2a26d" y="134.6112"/>
     <use style="stroke:#000000;" x="237.725947" xlink:href="#m0eb9c2a26d" y="174.528"/>
     <use style="stroke:#000000;" x="236.16" xlink:href="#m0eb9c2a26d" y="137.286523"/>
     <use style="stroke:#000000;" x="236.16" xlink:href="#m0eb9c2a26d" y="151.985964"/>
     <use style="stroke:#000000;" x="237.325888" xlink:href="#m0eb9c2a26d" y="174.528"/>
     <use style="stroke:#000000;" x="236.16" xlink:href="#m0eb9c2a26d" y="152.026306"/>
     <use style="stroke:#000000;" x="240.957596" xlink:href="#m0eb9c2a26d" y="174.528"/>
     <use style="stroke:#000000;" x="241.713613" xlink:href="#m0eb9c2a26d" y="173.59699"/>
     <use style="stroke:#000000;" x="236.16" xlink:href="#m0eb9c2a26d" y="136.741114"/>
     <use style="stroke:#000000;" x="236.16" xlink:href="#m0eb9c2a26d" y="137.261537"/>
     <use style="stroke:#000000;" x="236.315069" xlink:href="#m0eb9c2a26d" y="137.150889"/>
     <use style="stroke:#000000;" x="236.16" xlink:href="#m0eb9c2a26d" y="137.125591"/>
     <use style="stroke:#000000;" x="236.16" xlink:href="#m0eb9c2a26d" y="134.917346"/>
     <use style="stroke:#000000;" x="236.16" xlink:href="#m0eb9c2a26d" y="134.733407"/>
     <use style="stroke:#000000;" x="236.212932" xlink:href="#m0eb9c2a26d" y="135.47506"/>
     <use style="stroke:#000000;" x="236.16" xlink:href="#m0eb9c2a26d" y="146.627014"/>
     <use style="stroke:#000000;" x="236.625958" xlink:href="#m0eb9c2a26d" y="147.105142"/>
     <use style="stroke:#000000;" x="236.983766" xlink:href="#m0eb9c2a26d" y="147.162925"/>
     <use style="stroke:#000000;" x="236.417483" xlink:href="#m0eb9c2a26d" y="173.157197"/>
     <use style="stroke:#000000;" x="236.16" xlink:href="#m0eb9c2a26d" y="173.182837"/>
     <use style="stroke:#000000;" x="236.351517" xlink:href="#m0eb9c2a26d" y="173.141419"/>
     <use style="stroke:#000000;" x="263.341763" xlink:href="#m0eb9c2a26d" y="174.528"/>
     <use style="stroke:#000000;" x="264.101897" xlink:href="#m0eb9c2a26d" y="174.346597"/>
     <use style="stroke:#000000;" x="262.591537" xlink:href="#m0eb9c2a26d" y="174.316572"/>
     <use style="stroke:#000000;" x="236.16" xlink:href="#m0eb9c2a26d" y="149.1534"/>
     <use style="stroke:#000000;" x="236.559601" xlink:href="#m0eb9c2a26d" y="149.200298"/>
     <use style="stroke:#000000;" x="236.16" xlink:href="#m0eb9c2a26d" y="148.755023"/>
     <use style="stroke:#000000;" x="236.16" xlink:href="#m0eb9c2a26d" y="147.261353"/>
     <use style="stroke:#000000;" x="236.537866" xlink:href="#m0eb9c2a26d" y="147.694469"/>
     <use style="stroke:#000000;" x="236.16" xlink:href="#m0eb9c2a26d" y="147.565636"/>
     <use style="stroke:#000000;" x="251.239007" xlink:href="#m0eb9c2a26d" y="174.411807"/>
     <use style="stroke:#000000;" x="251.099035" xlink:href="#m0eb9c2a26d" y="174.2034"/>
     <use style="stroke:#000000;" x="251.141145" xlink:href="#m0eb9c2a26d" y="174.272825"/>
     <use style="stroke:#000000;" x="250.384585" xlink:href="#m0eb9c2a26d" y="173.405781"/>
     <use style="stroke:#000000;" x="236.16" xlink:href="#m0eb9c2a26d" y="174.186426"/>
     <use style="stroke:#000000;" x="236.16" xlink:href="#m0eb9c2a26d" y="174.528"/>
     <use style="stroke:#000000;" x="236.16" xlink:href="#m0eb9c2a26d" y="174.101394"/>
     <use style="stroke:#000000;" x="236.595375" xlink:href="#m0eb9c2a26d" y="174.509593"/>
     <use style="stroke:#000000;" x="236.16" xlink:href="#m0eb9c2a26d" y="174.528"/>
     <use style="stroke:#000000;" x="236.899795" xlink:href="#m0eb9c2a26d" y="174.528"/>
     <use style="stroke:#000000;" x="237.462583" xlink:href="#m0eb9c2a26d" y="137.052892"/>
     <use style="stroke:#000000;" x="236.16" xlink:href="#m0eb9c2a26d" y="137.401004"/>
     <use style="stroke:#000000;" x="236.956769" xlink:href="#m0eb9c2a26d" y="137.707404"/>
     <use style="stroke:#000000;" x="242.784332" xlink:href="#m0eb9c2a26d" y="174.528"/>
     <use style="stroke:#000000;" x="242.380729" xlink:href="#m0eb9c2a26d" y="174.528"/>
     <use style="stroke:#000000;" x="244.289223" xlink:href="#m0eb9c2a26d" y="174.528"/>
     <use style="stroke:#000000;" x="237.392229" xlink:href="#m0eb9c2a26d" y="171.555144"/>
     <use style="stroke:#000000;" x="236.16" xlink:href="#m0eb9c2a26d" y="174.003215"/>
     <use style="stroke:#000000;" x="236.16" xlink:href="#m0eb9c2a26d" y="173.087277"/>
     <use style="stroke:#000000;" x="236.475317" xlink:href="#m0eb9c2a26d" y="174.012257"/>
     <use style="stroke:#000000;" x="236.16" xlink:href="#m0eb9c2a26d" y="173.408519"/>
     <use style="stroke:#000000;" x="237.173228" xlink:href="#m0eb9c2a26d" y="173.478632"/>
     <use style="stroke:#000000;" x="236.16" xlink:href="#m0eb9c2a26d" y="173.768747"/>
     <use style="stroke:#000000;" x="253.695172" xlink:href="#m0eb9c2a26d" y="174.528"/>
     <use style="stroke:#000000;" x="252.603731" xlink:href="#m0eb9c2a26d" y="174.436559"/>
     <use style="stroke:#000000;" x="252.207558" xlink:href="#m0eb9c2a26d" y="174.528"/>
     <use style="stroke:#000000;" x="244.62066" xlink:href="#m0eb9c2a26d" y="174.528"/>
     <use style="stroke:#000000;" x="241.323686" xlink:href="#m0eb9c2a26d" y="174.168774"/>
     <use style="stroke:#000000;" x="243.096239" xlink:href="#m0eb9c2a26d" y="173.821007"/>
     <use style="stroke:#000000;" x="243.277694" xlink:href="#m0eb9c2a26d" y="174.130239"/>
     <use style="stroke:#000000;" x="243.687203" xlink:href="#m0eb9c2a26d" y="174.504115"/>
     <use style="stroke:#000000;" x="244.613253" xlink:href="#m0eb9c2a26d" y="174.528"/>
     <use style="stroke:#000000;" x="280.358588" xlink:href="#m0eb9c2a26d" y="174.476687"/>
     <use style="stroke:#000000;" x="281.357892" xlink:href="#m0eb9c2a26d" y="174.528"/>
     <use style="stroke:#000000;" x="280.849899" xlink:href="#m0eb9c2a26d" y="174.528"/>
     <use style="stroke:#000000;" x="237.902641" xlink:href="#m0eb9c2a26d" y="174.528"/>
     <use style="stroke:#000000;" x="238.412887" xlink:href="#m0eb9c2a26d" y="174.51968"/>
     <use style="stroke:#000000;" x="239.324362" xlink:href="#m0eb9c2a26d" y="174.528"/>
     <use style="stroke:#000000;" x="273.063943" xlink:href="#m0eb9c2a26d" y="174.528"/>
     <use style="stroke:#000000;" x="272.468619" xlink:href="#m0eb9c2a26d" y="173.834808"/>
     <use style="stroke:#000000;" x="270.41318" xlink:href="#m0eb9c2a26d" y="174.152005"/>
     <use style="stroke:#000000;" x="278.641483" xlink:href="#m0eb9c2a26d" y="174.528"/>
     <use style="stroke:#000000;" x="277.721417" xlink:href="#m0eb9c2a26d" y="174.078832"/>
     <use style="stroke:#000000;" x="278.892575" xlink:href="#m0eb9c2a26d" y="174.528"/>
     <use style="stroke:#000000;" x="242.806977" xlink:href="#m0eb9c2a26d" y="134.6112"/>
     <use style="stroke:#000000;" x="242.147359" xlink:href="#m0eb9c2a26d" y="134.6112"/>
     <use style="stroke:#000000;" x="241.440842" xlink:href="#m0eb9c2a26d" y="134.6112"/>
     <use style="stroke:#000000;" x="240.692681" xlink:href="#m0eb9c2a26d" y="174.320584"/>
     <use style="stroke:#000000;" x="240.8686" xlink:href="#m0eb9c2a26d" y="174.038466"/>
     <use style="stroke:#000000;" x="240.535891" xlink:href="#m0eb9c2a26d" y="174.215292"/>
     <use style="stroke:#000000;" x="249.781085" xlink:href="#m0eb9c2a26d" y="174.322193"/>
     <use style="stroke:#000000;" x="248.020874" xlink:href="#m0eb9c2a26d" y="174.528"/>
     <use style="stroke:#000000;" x="246.945876" xlink:href="#m0eb9c2a26d" y="174.163999"/>
     <use style="stroke:#000000;" x="323.573888" xlink:href="#m0eb9c2a26d" y="134.6112"/>
     <use style="stroke:#000000;" x="325.44" xlink:href="#m0eb9c2a26d" y="134.6112"/>
     <use style="stroke:#000000;" x="325.44" xlink:href="#m0eb9c2a26d" y="134.787015"/>
     <use style="stroke:#000000;" x="277.01979" xlink:href="#m0eb9c2a26d" y="174.233253"/>
     <use style="stroke:#000000;" x="278.055597" xlink:href="#m0eb9c2a26d" y="173.374629"/>
     <use style="stroke:#000000;" x="278.699955" xlink:href="#m0eb9c2a26d" y="173.112308"/>
     <use style="stroke:#000000;" x="236.16" xlink:href="#m0eb9c2a26d" y="136.886916"/>
     <use style="stroke:#000000;" x="237.034219" xlink:href="#m0eb9c2a26d" y="136.461141"/>
     <use style="stroke:#000000;" x="236.171765" xlink:href="#m0eb9c2a26d" y="136.965296"/>
     <use style="stroke:#000000;" x="236.928659" xlink:href="#m0eb9c2a26d" y="167.358891"/>
     <use style="stroke:#000000;" x="237.603421" xlink:href="#m0eb9c2a26d" y="167.676299"/>
     <use style="stroke:#000000;" x="257.62859" xlink:href="#m0eb9c2a26d" y="174.528"/>
     <use style="stroke:#000000;" x="255.120555" xlink:href="#m0eb9c2a26d" y="174.528"/>
     <use style="stroke:#000000;" x="238.045289" xlink:href="#m0eb9c2a26d" y="165.565066"/>
     <use style="stroke:#000000;" x="237.036909" xlink:href="#m0eb9c2a26d" y="165.911204"/>
     <use style="stroke:#000000;" x="237.542048" xlink:href="#m0eb9c2a26d" y="149.3369"/>
     <use style="stroke:#000000;" x="236.701181" xlink:href="#m0eb9c2a26d" y="149.087752"/>
     <use style="stroke:#000000;" x="261.90691" xlink:href="#m0eb9c2a26d" y="174.059238"/>
     <use style="stroke:#000000;" x="261.041466" xlink:href="#m0eb9c2a26d" y="174.202137"/>
     <use style="stroke:#000000;" x="236.16" xlink:href="#m0eb9c2a26d" y="171.229385"/>
     <use style="stroke:#000000;" x="239.031571" xlink:href="#m0eb9c2a26d" y="172.868642"/>
     <use style="stroke:#000000;" x="281.133037" xlink:href="#m0eb9c2a26d" y="174.528"/>
     <use style="stroke:#000000;" x="325.44" xlink:href="#m0eb9c2a26d" y="141.721012"/>
     <use style="stroke:#000000;" x="238.12237" xlink:href="#m0eb9c2a26d" y="150.420032"/>
     <use style="stroke:#000000;" x="247.297365" xlink:href="#m0eb9c2a26d" y="174.528"/>
     <use style="stroke:#000000;" x="236.16" xlink:href="#m0eb9c2a26d" y="146.838085"/>
     <use style="stroke:#000000;" x="237.016674" xlink:href="#m0eb9c2a26d" y="147.002703"/>
     <use style="stroke:#000000;" x="239.101389" xlink:href="#m0eb9c2a26d" y="171.387919"/>
     <use style="stroke:#000000;" x="236.16" xlink:href="#m0eb9c2a26d" y="164.161825"/>
     <use style="stroke:#000000;" x="245.86903" xlink:href="#m0eb9c2a26d" y="173.862833"/>
     <use style="stroke:#000000;" x="236.16" xlink:href="#m0eb9c2a26d" y="138.069995"/>
     <use style="stroke:#000000;" x="246.28234" xlink:href="#m0eb9c2a26d" y="174.528"/>
     <use style="stroke:#000000;" x="238.464511" xlink:href="#m0eb9c2a26d" y="136.531579"/>
     <use style="stroke:#000000;" x="236.16" xlink:href="#m0eb9c2a26d" y="135.4865"/>
     <use style="stroke:#000000;" x="244.173586" xlink:href="#m0eb9c2a26d" y="173.954499"/>
     <use style="stroke:#000000;" x="243.866098" xlink:href="#m0eb9c2a26d" y="174.528"/>
     <use style="stroke:#000000;" x="256.936787" xlink:href="#m0eb9c2a26d" y="174.528"/>
     <use style="stroke:#000000;" x="261.200127" xlink:href="#m0eb9c2a26d" y="174.528"/>
     <use style="stroke:#000000;" x="236.16" xlink:href="#m0eb9c2a26d" y="172.734887"/>
     <use style="stroke:#000000;" x="236.16" xlink:href="#m0eb9c2a26d" y="145.019778"/>
     <use style="stroke:#000000;" x="236.16" xlink:href="#m0eb9c2a26d" y="172.442418"/>
     <use style="stroke:#000000;" x="253.135674" xlink:href="#m0eb9c2a26d" y="174.528"/>
     <use style="stroke:#000000;" x="241.770309" xlink:href="#m0eb9c2a26d" y="174.528"/>
     <use style="stroke:#000000;" x="236.16" xlink:href="#m0eb9c2a26d" y="135.044756"/>
     <use style="stroke:#000000;" x="246.107498" xlink:href="#m0eb9c2a26d" y="174.301856"/>
     <use style="stroke:#000000;" x="236.988945" xlink:href="#m0eb9c2a26d" y="173.460541"/>
     <use style="stroke:#000000;" x="237.021143" xlink:href="#m0eb9c2a26d" y="134.918251"/>
     <use style="stroke:#000000;" x="237.818939" xlink:href="#m0eb9c2a26d" y="134.77509"/>
     <use style="stroke:#000000;" x="236.522286" xlink:href="#m0eb9c2a26d" y="173.853496"/>
     <use style="stroke:#000000;" x="236.259138" xlink:href="#m0eb9c2a26d" y="172.668751"/>
     <use style="stroke:#000000;" x="249.639827" xlink:href="#m0eb9c2a26d" y="173.562176"/>
     <use style="stroke:#000000;" x="242.499205" xlink:href="#m0eb9c2a26d" y="172.906546"/>
     <use style="stroke:#000000;" x="241.953651" xlink:href="#m0eb9c2a26d" y="174.528"/>
     <use style="stroke:#000000;" x="237.528472" xlink:href="#m0eb9c2a26d" y="147.832372"/>
     <use style="stroke:#000000;" x="236.16" xlink:href="#m0eb9c2a26d" y="147.803714"/>
     <use style="stroke:#000000;" x="237.617339" xlink:href="#m0eb9c2a26d" y="134.901017"/>
     <use style="stroke:#000000;" x="236.16" xlink:href="#m0eb9c2a26d" y="136.703341"/>
     <use style="stroke:#000000;" x="236.16" xlink:href="#m0eb9c2a26d" y="174.528"/>
     <use style="stroke:#000000;" x="237.104457" xlink:href="#m0eb9c2a26d" y="174.528"/>
     <use style="stroke:#000000;" x="249.635255" xlink:href="#m0eb9c2a26d" y="173.021422"/>
     <use style="stroke:#000000;" x="252.031652" xlink:href="#m0eb9c2a26d" y="174.034343"/>
     <use style="stroke:#000000;" x="245.962895" xlink:href="#m0eb9c2a26d" y="173.570054"/>
     <use style="stroke:#000000;" x="245.946617" xlink:href="#m0eb9c2a26d" y="172.858179"/>
     <use style="stroke:#000000;" x="277.950493" xlink:href="#m0eb9c2a26d" y="174.528"/>
     <use style="stroke:#000000;" x="278.873086" xlink:href="#m0eb9c2a26d" y="172.734412"/>
     <use style="stroke:#000000;" x="243.557422" xlink:href="#m0eb9c2a26d" y="174.528"/>
     <use style="stroke:#000000;" x="244.432158" xlink:href="#m0eb9c2a26d" y="174.528"/>
     <use style="stroke:#000000;" x="241.806814" xlink:href="#m0eb9c2a26d" y="174.005767"/>
     <use style="stroke:#000000;" x="243.431173" xlink:href="#m0eb9c2a26d" y="174.528"/>
     <use style="stroke:#000000;" x="253.174748" xlink:href="#m0eb9c2a26d" y="174.029146"/>
     <use style="stroke:#000000;" x="252.419195" xlink:href="#m0eb9c2a26d" y="174.528"/>
     <use style="stroke:#000000;" x="237.109869" xlink:href="#m0eb9c2a26d" y="134.6112"/>
     <use style="stroke:#000000;" x="236.16" xlink:href="#m0eb9c2a26d" y="135.038975"/>
     <use style="stroke:#000000;" x="238.632467" xlink:href="#m0eb9c2a26d" y="174.528"/>
     <use style="stroke:#000000;" x="238.805054" xlink:href="#m0eb9c2a26d" y="174.528"/>
     <use style="stroke:#000000;" x="236.16" xlink:href="#m0eb9c2a26d" y="139.057018"/>
     <use style="stroke:#000000;" x="236.16" xlink:href="#m0eb9c2a26d" y="136.516748"/>
     <use style="stroke:#000000;" x="236.16" xlink:href="#m0eb9c2a26d" y="152.710539"/>
     <use style="stroke:#000000;" x="238.249076" xlink:href="#m0eb9c2a26d" y="152.331636"/>
     <use style="stroke:#000000;" x="238.94278" xlink:href="#m0eb9c2a26d" y="174.528"/>
     <use style="stroke:#000000;" x="236.720128" xlink:href="#m0eb9c2a26d" y="174.528"/>
     <use style="stroke:#000000;" x="236.842459" xlink:href="#m0eb9c2a26d" y="151.317278"/>
     <use style="stroke:#000000;" x="236.16" xlink:href="#m0eb9c2a26d" y="151.091296"/>
     <use style="stroke:#000000;" x="241.239846" xlink:href="#m0eb9c2a26d" y="174.528"/>
     <use style="stroke:#000000;" x="239.222692" xlink:href="#m0eb9c2a26d" y="174.528"/>
    </g>
   </g>
   <g id="PathCollection_2">
    <defs>
     <path d="M 0 0.935414 
C 0.248075 0.935414 0.486022 0.836853 0.661438 0.661438 
C 0.836853 0.486022 0.935414 0.248075 0.935414 0 
C 0.935414 -0.248075 0.836853 -0.486022 0.661438 -0.661438 
C 0.486022 -0.836853 0.248075 -0.935414 0 -0.935414 
C -0.248075 -0.935414 -0.486022 -0.836853 -0.661438 -0.661438 
C -0.836853 -0.486022 -0.935414 -0.248075 -0.935414 0 
C -0.935414 0.248075 -0.836853 0.486022 -0.661438 0.661438 
C -0.486022 0.836853 -0.248075 0.935414 0 0.935414 
z
" id="me3fef664d7" style="stroke:#0000ff;"/>
    </defs>
    <g clip-path="url(#p2f32f0f902)">
     <use style="fill:#0000ff;stroke:#0000ff;" x="236.16" xlink:href="#me3fef664d7" y="174.528"/>
     <use style="fill:#0000ff;stroke:#0000ff;" x="236.16" xlink:href="#me3fef664d7" y="137.120496"/>
     <use style="fill:#0000ff;stroke:#0000ff;" x="236.16" xlink:href="#me3fef664d7" y="134.775163"/>
     <use style="fill:#0000ff;stroke:#0000ff;" x="236.16" xlink:href="#me3fef664d7" y="147.107858"/>
     <use style="fill:#0000ff;stroke:#0000ff;" x="236.16" xlink:href="#me3fef664d7" y="172.976043"/>
     <use style="fill:#0000ff;stroke:#0000ff;" x="263.763706" xlink:href="#me3fef664d7" y="174.528"/>
     <use style="fill:#0000ff;stroke:#0000ff;" x="236.16" xlink:href="#me3fef664d7" y="148.676381"/>
     <use style="fill:#0000ff;stroke:#0000ff;" x="236.16" xlink:href="#me3fef664d7" y="147.478832"/>
     <use style="fill:#0000ff;stroke:#0000ff;" x="250.474383" xlink:href="#me3fef664d7" y="174.249639"/>
     <use style="fill:#0000ff;stroke:#0000ff;" x="249.472091" xlink:href="#me3fef664d7" y="174.528"/>
     <use style="fill:#0000ff;stroke:#0000ff;" x="236.16" xlink:href="#me3fef664d7" y="174.528"/>
     <use style="fill:#0000ff;stroke:#0000ff;" x="236.16" xlink:href="#me3fef664d7" y="174.528"/>
     <use style="fill:#0000ff;stroke:#0000ff;" x="236.16" xlink:href="#me3fef664d7" y="137.333376"/>
     <use style="fill:#0000ff;stroke:#0000ff;" x="242.615761" xlink:href="#me3fef664d7" y="174.528"/>
     <use style="fill:#0000ff;stroke:#0000ff;" x="237.096272" xlink:href="#me3fef664d7" y="174.528"/>
     <use style="fill:#0000ff;stroke:#0000ff;" x="236.16" xlink:href="#me3fef664d7" y="173.889978"/>
     <use style="fill:#0000ff;stroke:#0000ff;" x="236.16" xlink:href="#me3fef664d7" y="173.524601"/>
     <use style="fill:#0000ff;stroke:#0000ff;" x="252.759304" xlink:href="#me3fef664d7" y="174.528"/>
     <use style="fill:#0000ff;stroke:#0000ff;" x="242.861745" xlink:href="#me3fef664d7" y="174.528"/>
     <use style="fill:#0000ff;stroke:#0000ff;" x="243.004558" xlink:href="#me3fef664d7" y="174.528"/>
     <use style="fill:#0000ff;stroke:#0000ff;" x="280.856808" xlink:href="#me3fef664d7" y="174.528"/>
     <use style="fill:#0000ff;stroke:#0000ff;" x="238.329221" xlink:href="#me3fef664d7" y="174.528"/>
     <use style="fill:#0000ff;stroke:#0000ff;" x="271.839491" xlink:href="#me3fef664d7" y="174.528"/>
     <use style="fill:#0000ff;stroke:#0000ff;" x="277.790538" xlink:href="#me3fef664d7" y="174.528"/>
     <use style="fill:#0000ff;stroke:#0000ff;" x="241.839357" xlink:href="#me3fef664d7" y="134.6112"/>
     <use style="fill:#0000ff;stroke:#0000ff;" x="240.207628" xlink:href="#me3fef664d7" y="174.528"/>
     <use style="fill:#0000ff;stroke:#0000ff;" x="247.73432" xlink:href="#me3fef664d7" y="174.528"/>
     <use style="fill:#0000ff;stroke:#0000ff;" x="325.44" xlink:href="#me3fef664d7" y="134.6112"/>
     <use style="fill:#0000ff;stroke:#0000ff;" x="277.907415" xlink:href="#me3fef664d7" y="174.528"/>
     <use style="fill:#0000ff;stroke:#0000ff;" x="236.16" xlink:href="#me3fef664d7" y="136.682462"/>
     <use style="fill:#0000ff;stroke:#0000ff;" x="236.16" xlink:href="#me3fef664d7" y="167.360606"/>
     <use style="fill:#0000ff;stroke:#0000ff;" x="256.73345" xlink:href="#me3fef664d7" y="174.528"/>
     <use style="fill:#0000ff;stroke:#0000ff;" x="236.16" xlink:href="#me3fef664d7" y="166.035554"/>
     <use style="fill:#0000ff;stroke:#0000ff;" x="236.16" xlink:href="#me3fef664d7" y="148.740035"/>
     <use style="fill:#0000ff;stroke:#0000ff;" x="260.360849" xlink:href="#me3fef664d7" y="174.528"/>
     <use style="fill:#0000ff;stroke:#0000ff;" x="236.16" xlink:href="#me3fef664d7" y="172.414157"/>
     <use style="fill:#0000ff;stroke:#0000ff;" x="236.16" xlink:href="#me3fef664d7" y="174.528"/>
     <use style="fill:#0000ff;stroke:#0000ff;" x="275.599417" xlink:href="#me3fef664d7" y="174.528"/>
     <use style="fill:#0000ff;stroke:#0000ff;" x="325.379627" xlink:href="#me3fef664d7" y="140.090174"/>
     <use style="fill:#0000ff;stroke:#0000ff;" x="236.16" xlink:href="#me3fef664d7" y="147.870207"/>
     <use style="fill:#0000ff;stroke:#0000ff;" x="247.400187" xlink:href="#me3fef664d7" y="174.528"/>
     <use style="fill:#0000ff;stroke:#0000ff;" x="236.16" xlink:href="#me3fef664d7" y="147.533675"/>
     <use style="fill:#0000ff;stroke:#0000ff;" x="236.16" xlink:href="#me3fef664d7" y="171.574583"/>
     <use style="fill:#0000ff;stroke:#0000ff;" x="236.16" xlink:href="#me3fef664d7" y="162.675876"/>
     <use style="fill:#0000ff;stroke:#0000ff;" x="241.906725" xlink:href="#me3fef664d7" y="174.528"/>
     <use style="fill:#0000ff;stroke:#0000ff;" x="236.16" xlink:href="#me3fef664d7" y="140.318148"/>
     <use style="fill:#0000ff;stroke:#0000ff;" x="246.811448" xlink:href="#me3fef664d7" y="174.528"/>
     <use style="fill:#0000ff;stroke:#0000ff;" x="236.16" xlink:href="#me3fef664d7" y="136.150065"/>
     <use style="fill:#0000ff;stroke:#0000ff;" x="244.01136" xlink:href="#me3fef664d7" y="174.528"/>
     <use style="fill:#0000ff;stroke:#0000ff;" x="243.37401" xlink:href="#me3fef664d7" y="174.528"/>
     <use style="fill:#0000ff;stroke:#0000ff;" x="259.412785" xlink:href="#me3fef664d7" y="174.528"/>
     <use style="fill:#0000ff;stroke:#0000ff;" x="236.16" xlink:href="#me3fef664d7" y="173.320981"/>
     <use style="fill:#0000ff;stroke:#0000ff;" x="236.16" xlink:href="#me3fef664d7" y="146.108782"/>
     <use style="fill:#0000ff;stroke:#0000ff;" x="236.16" xlink:href="#me3fef664d7" y="172.781685"/>
     <use style="fill:#0000ff;stroke:#0000ff;" x="252.49237" xlink:href="#me3fef664d7" y="174.528"/>
     <use style="fill:#0000ff;stroke:#0000ff;" x="242.637057" xlink:href="#me3fef664d7" y="174.528"/>
     <use style="fill:#0000ff;stroke:#0000ff;" x="236.16" xlink:href="#me3fef664d7" y="135.245705"/>
     <use style="fill:#0000ff;stroke:#0000ff;" x="246.100356" xlink:href="#me3fef664d7" y="174.528"/>
     <use style="fill:#0000ff;stroke:#0000ff;" x="236.16" xlink:href="#me3fef664d7" y="174.267376"/>
     <use style="fill:#0000ff;stroke:#0000ff;" x="237.884249" xlink:href="#me3fef664d7" y="134.6112"/>
     <use style="fill:#0000ff;stroke:#0000ff;" x="236.16" xlink:href="#me3fef664d7" y="174.528"/>
     <use style="fill:#0000ff;stroke:#0000ff;" x="250.158838" xlink:href="#me3fef664d7" y="174.528"/>
     <use style="fill:#0000ff;stroke:#0000ff;" x="238.848271" xlink:href="#me3fef664d7" y="174.528"/>
     <use style="fill:#0000ff;stroke:#0000ff;" x="237.831439" xlink:href="#me3fef664d7" y="174.528"/>
     <use style="fill:#0000ff;stroke:#0000ff;" x="236.16" xlink:href="#me3fef664d7" y="147.156346"/>
     <use style="fill:#0000ff;stroke:#0000ff;" x="236.16" xlink:href="#me3fef664d7" y="134.825984"/>
     <use style="fill:#0000ff;stroke:#0000ff;" x="236.389968" xlink:href="#me3fef664d7" y="174.528"/>
     <use style="fill:#0000ff;stroke:#0000ff;" x="250.941219" xlink:href="#me3fef664d7" y="174.528"/>
     <use style="fill:#0000ff;stroke:#0000ff;" x="245.693732" xlink:href="#me3fef664d7" y="174.528"/>
     <use style="fill:#0000ff;stroke:#0000ff;" x="276.772072" xlink:href="#me3fef664d7" y="174.528"/>
     <use style="fill:#0000ff;stroke:#0000ff;" x="244.271901" xlink:href="#me3fef664d7" y="174.528"/>
     <use style="fill:#0000ff;stroke:#0000ff;" x="243.916632" xlink:href="#me3fef664d7" y="174.528"/>
     <use style="fill:#0000ff;stroke:#0000ff;" x="251.50264" xlink:href="#me3fef664d7" y="174.528"/>
     <use style="fill:#0000ff;stroke:#0000ff;" x="236.16" xlink:href="#me3fef664d7" y="134.6112"/>
     <use style="fill:#0000ff;stroke:#0000ff;" x="237.725947" xlink:href="#me3fef664d7" y="174.528"/>
     <use style="fill:#0000ff;stroke:#0000ff;" x="236.16" xlink:href="#me3fef664d7" y="137.286523"/>
     <use style="fill:#0000ff;stroke:#0000ff;" x="236.16" xlink:href="#me3fef664d7" y="151.985964"/>
     <use style="fill:#0000ff;stroke:#0000ff;" x="237.325888" xlink:href="#me3fef664d7" y="174.528"/>
     <use style="fill:#0000ff;stroke:#0000ff;" x="236.16" xlink:href="#me3fef664d7" y="152.026306"/>
     <use style="fill:#0000ff;stroke:#0000ff;" x="240.957596" xlink:href="#me3fef664d7" y="174.528"/>
    </g>
   </g>
   <g id="matplotlib.axis_1">
    <g id="xtick_1">
     <g id="line2d_1">
      <defs>
       <path d="M 0 0 
L 0 3.5 
" id="m56774011ea" style="stroke:#000000;stroke-width:0.8;"/>
      </defs>
      <g>
       <use style="stroke:#000000;stroke-width:0.8;" x="57.6" xlink:href="#m56774011ea" y="307.584"/>
      </g>
     </g>
     <g id="text_1">
      <!-- −10.0 -->
      <defs>
       <path d="M 10.59375 35.5 
L 73.1875 35.5 
L 73.1875 27.203125 
L 10.59375 27.203125 
z
" id="DejaVuSans-2212"/>
       <path d="M 12.40625 8.296875 
L 28.515625 8.296875 
L 28.515625 63.921875 
L 10.984375 60.40625 
L 10.984375 69.390625 
L 28.421875 72.90625 
L 38.28125 72.90625 
L 38.28125 8.296875 
L 54.390625 8.296875 
L 54.390625 0 
L 12.40625 0 
z
" id="DejaVuSans-31"/>
       <path d="M 31.78125 66.40625 
Q 24.171875 66.40625 20.328125 58.90625 
Q 16.5 51.421875 16.5 36.375 
Q 16.5 21.390625 20.328125 13.890625 
Q 24.171875 6.390625 31.78125 6.390625 
Q 39.453125 6.390625 43.28125 13.890625 
Q 47.125 21.390625 47.125 36.375 
Q 47.125 51.421875 43.28125 58.90625 
Q 39.453125 66.40625 31.78125 66.40625 
z
M 31.78125 74.21875 
Q 44.046875 74.21875 50.515625 64.515625 
Q 56.984375 54.828125 56.984375 36.375 
Q 56.984375 17.96875 50.515625 8.265625 
Q 44.046875 -1.421875 31.78125 -1.421875 
Q 19.53125 -1.421875 13.0625 8.265625 
Q 6.59375 17.96875 6.59375 36.375 
Q 6.59375 54.828125 13.0625 64.515625 
Q 19.53125 74.21875 31.78125 74.21875 
z
" id="DejaVuSans-30"/>
       <path d="M 10.6875 12.40625 
L 21 12.40625 
L 21 0 
L 10.6875 0 
z
" id="DejaVuSans-2e"/>
      </defs>
      <g transform="translate(42.277344 322.182437)scale(0.1 -0.1)">
       <use xlink:href="#DejaVuSans-2212"/>
       <use x="83.789062" xlink:href="#DejaVuSans-31"/>
       <use x="147.412109" xlink:href="#DejaVuSans-30"/>
       <use x="211.035156" xlink:href="#DejaVuSans-2e"/>
       <use x="242.822266" xlink:href="#DejaVuSans-30"/>
      </g>
     </g>
    </g>
    <g id="xtick_2">
     <g id="line2d_2">
      <g>
       <use style="stroke:#000000;stroke-width:0.8;" x="102.24" xlink:href="#m56774011ea" y="307.584"/>
      </g>
     </g>
     <g id="text_2">
      <!-- −7.5 -->
      <defs>
       <path d="M 8.203125 72.90625 
L 55.078125 72.90625 
L 55.078125 68.703125 
L 28.609375 0 
L 18.3125 0 
L 43.21875 64.59375 
L 8.203125 64.59375 
z
" id="DejaVuSans-37"/>
       <path d="M 10.796875 72.90625 
L 49.515625 72.90625 
L 49.515625 64.59375 
L 19.828125 64.59375 
L 19.828125 46.734375 
Q 21.96875 47.46875 24.109375 47.828125 
Q 26.265625 48.1875 28.421875 48.1875 
Q 40.625 48.1875 47.75 41.5 
Q 54.890625 34.8125 54.890625 23.390625 
Q 54.890625 11.625 47.5625 5.09375 
Q 40.234375 -1.421875 26.90625 -1.421875 
Q 22.3125 -1.421875 17.546875 -0.640625 
Q 12.796875 0.140625 7.71875 1.703125 
L 7.71875 11.625 
Q 12.109375 9.234375 16.796875 8.0625 
Q 21.484375 6.890625 26.703125 6.890625 
Q 35.15625 6.890625 40.078125 11.328125 
Q 45.015625 15.765625 45.015625 23.390625 
Q 45.015625 31 40.078125 35.4375 
Q 35.15625 39.890625 26.703125 39.890625 
Q 22.75 39.890625 18.8125 39.015625 
Q 14.890625 38.140625 10.796875 36.28125 
z
" id="DejaVuSans-35"/>
      </defs>
      <g transform="translate(90.098594 322.182437)scale(0.1 -0.1)">
       <use xlink:href="#DejaVuSans-2212"/>
       <use x="83.789062" xlink:href="#DejaVuSans-37"/>
       <use x="147.412109" xlink:href="#DejaVuSans-2e"/>
       <use x="179.199219" xlink:href="#DejaVuSans-35"/>
      </g>
     </g>
    </g>
    <g id="xtick_3">
     <g id="line2d_3">
      <g>
       <use style="stroke:#000000;stroke-width:0.8;" x="146.88" xlink:href="#m56774011ea" y="307.584"/>
      </g>
     </g>
     <g id="text_3">
      <!-- −5.0 -->
      <g transform="translate(134.738594 322.182437)scale(0.1 -0.1)">
       <use xlink:href="#DejaVuSans-2212"/>
       <use x="83.789062" xlink:href="#DejaVuSans-35"/>
       <use x="147.412109" xlink:href="#DejaVuSans-2e"/>
       <use x="179.199219" xlink:href="#DejaVuSans-30"/>
      </g>
     </g>
    </g>
    <g id="xtick_4">
     <g id="line2d_4">
      <g>
       <use style="stroke:#000000;stroke-width:0.8;" x="191.52" xlink:href="#m56774011ea" y="307.584"/>
      </g>
     </g>
     <g id="text_4">
      <!-- −2.5 -->
      <defs>
       <path d="M 19.1875 8.296875 
L 53.609375 8.296875 
L 53.609375 0 
L 7.328125 0 
L 7.328125 8.296875 
Q 12.9375 14.109375 22.625 23.890625 
Q 32.328125 33.6875 34.8125 36.53125 
Q 39.546875 41.84375 41.421875 45.53125 
Q 43.3125 49.21875 43.3125 52.78125 
Q 43.3125 58.59375 39.234375 62.25 
Q 35.15625 65.921875 28.609375 65.921875 
Q 23.96875 65.921875 18.8125 64.3125 
Q 13.671875 62.703125 7.8125 59.421875 
L 7.8125 69.390625 
Q 13.765625 71.78125 18.9375 73 
Q 24.125 74.21875 28.421875 74.21875 
Q 39.75 74.21875 46.484375 68.546875 
Q 53.21875 62.890625 53.21875 53.421875 
Q 53.21875 48.921875 51.53125 44.890625 
Q 49.859375 40.875 45.40625 35.40625 
Q 44.1875 33.984375 37.640625 27.21875 
Q 31.109375 20.453125 19.1875 8.296875 
z
" id="DejaVuSans-32"/>
      </defs>
      <g transform="translate(179.378594 322.182437)scale(0.1 -0.1)">
       <use xlink:href="#DejaVuSans-2212"/>
       <use x="83.789062" xlink:href="#DejaVuSans-32"/>
       <use x="147.412109" xlink:href="#DejaVuSans-2e"/>
       <use x="179.199219" xlink:href="#DejaVuSans-35"/>
      </g>
     </g>
    </g>
    <g id="xtick_5">
     <g id="line2d_5">
      <g>
       <use style="stroke:#000000;stroke-width:0.8;" x="236.16" xlink:href="#m56774011ea" y="307.584"/>
      </g>
     </g>
     <g id="text_5">
      <!-- 0.0 -->
      <g transform="translate(228.208438 322.182437)scale(0.1 -0.1)">
       <use xlink:href="#DejaVuSans-30"/>
       <use x="63.623047" xlink:href="#DejaVuSans-2e"/>
       <use x="95.410156" xlink:href="#DejaVuSans-30"/>
      </g>
     </g>
    </g>
    <g id="xtick_6">
     <g id="line2d_6">
      <g>
       <use style="stroke:#000000;stroke-width:0.8;" x="280.8" xlink:href="#m56774011ea" y="307.584"/>
      </g>
     </g>
     <g id="text_6">
      <!-- 2.5 -->
      <g transform="translate(272.848437 322.182437)scale(0.1 -0.1)">
       <use xlink:href="#DejaVuSans-32"/>
       <use x="63.623047" xlink:href="#DejaVuSans-2e"/>
       <use x="95.410156" xlink:href="#DejaVuSans-35"/>
      </g>
     </g>
    </g>
    <g id="xtick_7">
     <g id="line2d_7">
      <g>
       <use style="stroke:#000000;stroke-width:0.8;" x="325.44" xlink:href="#m56774011ea" y="307.584"/>
      </g>
     </g>
     <g id="text_7">
      <!-- 5.0 -->
      <g transform="translate(317.488437 322.182437)scale(0.1 -0.1)">
       <use xlink:href="#DejaVuSans-35"/>
       <use x="63.623047" xlink:href="#DejaVuSans-2e"/>
       <use x="95.410156" xlink:href="#DejaVuSans-30"/>
      </g>
     </g>
    </g>
    <g id="xtick_8">
     <g id="line2d_8">
      <g>
       <use style="stroke:#000000;stroke-width:0.8;" x="370.08" xlink:href="#m56774011ea" y="307.584"/>
      </g>
     </g>
     <g id="text_8">
      <!-- 7.5 -->
      <g transform="translate(362.128438 322.182437)scale(0.1 -0.1)">
       <use xlink:href="#DejaVuSans-37"/>
       <use x="63.623047" xlink:href="#DejaVuSans-2e"/>
       <use x="95.410156" xlink:href="#DejaVuSans-35"/>
      </g>
     </g>
    </g>
    <g id="xtick_9">
     <g id="line2d_9">
      <g>
       <use style="stroke:#000000;stroke-width:0.8;" x="414.72" xlink:href="#m56774011ea" y="307.584"/>
      </g>
     </g>
     <g id="text_9">
      <!-- 10.0 -->
      <g transform="translate(403.587188 322.182437)scale(0.1 -0.1)">
       <use xlink:href="#DejaVuSans-31"/>
       <use x="63.623047" xlink:href="#DejaVuSans-30"/>
       <use x="127.246094" xlink:href="#DejaVuSans-2e"/>
       <use x="159.033203" xlink:href="#DejaVuSans-30"/>
      </g>
     </g>
    </g>
   </g>
   <g id="matplotlib.axis_2">
    <g id="ytick_1">
     <g id="line2d_10">
      <defs>
       <path d="M 0 0 
L -3.5 0 
" id="m2ba3c5d535" style="stroke:#000000;stroke-width:0.8;"/>
      </defs>
      <g>
       <use style="stroke:#000000;stroke-width:0.8;" x="57.6" xlink:href="#m2ba3c5d535" y="307.584"/>
      </g>
     </g>
     <g id="text_10">
      <!-- −10.0 -->
      <g transform="translate(19.954687 311.383219)scale(0.1 -0.1)">
       <use xlink:href="#DejaVuSans-2212"/>
       <use x="83.789062" xlink:href="#DejaVuSans-31"/>
       <use x="147.412109" xlink:href="#DejaVuSans-30"/>
       <use x="211.035156" xlink:href="#DejaVuSans-2e"/>
       <use x="242.822266" xlink:href="#DejaVuSans-30"/>
      </g>
     </g>
    </g>
    <g id="ytick_2">
     <g id="line2d_11">
      <g>
       <use style="stroke:#000000;stroke-width:0.8;" x="57.6" xlink:href="#m2ba3c5d535" y="274.32"/>
      </g>
     </g>
     <g id="text_11">
      <!-- −7.5 -->
      <g transform="translate(26.317187 278.119219)scale(0.1 -0.1)">
       <use xlink:href="#DejaVuSans-2212"/>
       <use x="83.789062" xlink:href="#DejaVuSans-37"/>
       <use x="147.412109" xlink:href="#DejaVuSans-2e"/>
       <use x="179.199219" xlink:href="#DejaVuSans-35"/>
      </g>
     </g>
    </g>
    <g id="ytick_3">
     <g id="line2d_12">
      <g>
       <use style="stroke:#000000;stroke-width:0.8;" x="57.6" xlink:href="#m2ba3c5d535" y="241.056"/>
      </g>
     </g>
     <g id="text_12">
      <!-- −5.0 -->
      <g transform="translate(26.317187 244.855219)scale(0.1 -0.1)">
       <use xlink:href="#DejaVuSans-2212"/>
       <use x="83.789062" xlink:href="#DejaVuSans-35"/>
       <use x="147.412109" xlink:href="#DejaVuSans-2e"/>
       <use x="179.199219" xlink:href="#DejaVuSans-30"/>
      </g>
     </g>
    </g>
    <g id="ytick_4">
     <g id="line2d_13">
      <g>
       <use style="stroke:#000000;stroke-width:0.8;" x="57.6" xlink:href="#m2ba3c5d535" y="207.792"/>
      </g>
     </g>
     <g id="text_13">
      <!-- −2.5 -->
      <g transform="translate(26.317187 211.591219)scale(0.1 -0.1)">
       <use xlink:href="#DejaVuSans-2212"/>
       <use x="83.789062" xlink:href="#DejaVuSans-32"/>
       <use x="147.412109" xlink:href="#DejaVuSans-2e"/>
       <use x="179.199219" xlink:href="#DejaVuSans-35"/>
      </g>
     </g>
    </g>
    <g id="ytick_5">
     <g id="line2d_14">
      <g>
       <use style="stroke:#000000;stroke-width:0.8;" x="57.6" xlink:href="#m2ba3c5d535" y="174.528"/>
      </g>
     </g>
     <g id="text_14">
      <!-- 0.0 -->
      <g transform="translate(34.696875 178.327219)scale(0.1 -0.1)">
       <use xlink:href="#DejaVuSans-30"/>
       <use x="63.623047" xlink:href="#DejaVuSans-2e"/>
       <use x="95.410156" xlink:href="#DejaVuSans-30"/>
      </g>
     </g>
    </g>
    <g id="ytick_6">
     <g id="line2d_15">
      <g>
       <use style="stroke:#000000;stroke-width:0.8;" x="57.6" xlink:href="#m2ba3c5d535" y="141.264"/>
      </g>
     </g>
     <g id="text_15">
      <!-- 2.5 -->
      <g transform="translate(34.696875 145.063219)scale(0.1 -0.1)">
       <use xlink:href="#DejaVuSans-32"/>
       <use x="63.623047" xlink:href="#DejaVuSans-2e"/>
       <use x="95.410156" xlink:href="#DejaVuSans-35"/>
      </g>
     </g>
    </g>
    <g id="ytick_7">
     <g id="line2d_16">
      <g>
       <use style="stroke:#000000;stroke-width:0.8;" x="57.6" xlink:href="#m2ba3c5d535" y="108"/>
      </g>
     </g>
     <g id="text_16">
      <!-- 5.0 -->
      <g transform="translate(34.696875 111.799219)scale(0.1 -0.1)">
       <use xlink:href="#DejaVuSans-35"/>
       <use x="63.623047" xlink:href="#DejaVuSans-2e"/>
       <use x="95.410156" xlink:href="#DejaVuSans-30"/>
      </g>
     </g>
    </g>
    <g id="ytick_8">
     <g id="line2d_17">
      <g>
       <use style="stroke:#000000;stroke-width:0.8;" x="57.6" xlink:href="#m2ba3c5d535" y="74.736"/>
      </g>
     </g>
     <g id="text_17">
      <!-- 7.5 -->
      <g transform="translate(34.696875 78.535219)scale(0.1 -0.1)">
       <use xlink:href="#DejaVuSans-37"/>
       <use x="63.623047" xlink:href="#DejaVuSans-2e"/>
       <use x="95.410156" xlink:href="#DejaVuSans-35"/>
      </g>
     </g>
    </g>
    <g id="ytick_9">
     <g id="line2d_18">
      <g>
       <use style="stroke:#000000;stroke-width:0.8;" x="57.6" xlink:href="#m2ba3c5d535" y="41.472"/>
      </g>
     </g>
     <g id="text_18">
      <!-- 10.0 -->
      <g transform="translate(28.334375 45.271219)scale(0.1 -0.1)">
       <use xlink:href="#DejaVuSans-31"/>
       <use x="63.623047" xlink:href="#DejaVuSans-30"/>
       <use x="127.246094" xlink:href="#DejaVuSans-2e"/>
       <use x="159.033203" xlink:href="#DejaVuSans-30"/>
      </g>
     </g>
    </g>
   </g>
   <g id="patch_3">
    <path d="M 57.6 307.584 
L 57.6 41.472 
" style="fill:none;stroke:#000000;stroke-linecap:square;stroke-linejoin:miter;stroke-width:0.8;"/>
   </g>
   <g id="patch_4">
    <path d="M 414.72 307.584 
L 414.72 41.472 
" style="fill:none;stroke:#000000;stroke-linecap:square;stroke-linejoin:miter;stroke-width:0.8;"/>
   </g>
   <g id="patch_5">
    <path d="M 57.6 307.584 
L 414.72 307.584 
" style="fill:none;stroke:#000000;stroke-linecap:square;stroke-linejoin:miter;stroke-width:0.8;"/>
   </g>
   <g id="patch_6">
    <path d="M 57.6 41.472 
L 414.72 41.472 
" style="fill:none;stroke:#000000;stroke-linecap:square;stroke-linejoin:miter;stroke-width:0.8;"/>
   </g>
  </g>
 </g>
 <defs>
  <clipPath id="p2f32f0f902">
   <rect height="266.112" width="357.12" x="57.6" y="41.472"/>
  </clipPath>
 </defs>
</svg>
