<?xml version="1.0" encoding="utf-8" standalone="no"?>
<!DOCTYPE svg PUBLIC "-//W3C//DTD SVG 1.1//EN"
  "http://www.w3.org/Graphics/SVG/1.1/DTD/svg11.dtd">
<!-- Created with matplotlib (http://matplotlib.org/) -->
<svg height="345.6pt" version="1.1" viewBox="0 0 460.8 345.6" width="460.8pt" xmlns="http://www.w3.org/2000/svg" xmlns:xlink="http://www.w3.org/1999/xlink">
 <defs>
  <style type="text/css">
*{stroke-linecap:butt;stroke-linejoin:round;}
  </style>
 </defs>
 <g id="figure_1">
  <g id="patch_1">
   <path d="M 0 345.6 
L 460.8 345.6 
L 460.8 0 
L 0 0 
z
" style="fill:#ffffff;"/>
  </g>
  <g id="axes_1">
   <g id="patch_2">
    <path d="M 57.6 307.584 
L 414.72 307.584 
L 414.72 41.472 
L 57.6 41.472 
z
" style="fill:#ffffff;"/>
   </g>
   <g id="PathCollection_1">
    <defs>
     <path d="M 0 0.612372 
C 0.162403 0.612372 0.318176 0.547849 0.433013 0.433013 
C 0.547849 0.318176 0.612372 0.162403 0.612372 0 
C 0.612372 -0.162403 0.547849 -0.318176 0.433013 -0.433013 
C 0.318176 -0.547849 0.162403 -0.612372 0 -0.612372 
C -0.162403 -0.612372 -0.318176 -0.547849 -0.433013 -0.433013 
C -0.547849 -0.318176 -0.612372 -0.162403 -0.612372 0 
C -0.612372 0.162403 -0.547849 0.318176 -0.433013 0.433013 
C -0.318176 0.547849 -0.162403 0.612372 0 0.612372 
z
" id="m517b98af27" style="stroke:#000000;"/>
    </defs>
    <g clip-path="url(#pb91b6476df)">
     <use style="stroke:#000000;" x="239.222692" xlink:href="#m517b98af27" y="174.528"/>
     <use style="stroke:#000000;" x="236.16" xlink:href="#m517b98af27" y="174.528"/>
     <use style="stroke:#000000;" x="236.16" xlink:href="#m517b98af27" y="137.120496"/>
     <use style="stroke:#000000;" x="236.16" xlink:href="#m517b98af27" y="134.775163"/>
     <use style="stroke:#000000;" x="236.16" xlink:href="#m517b98af27" y="147.107858"/>
     <use style="stroke:#000000;" x="236.16" xlink:href="#m517b98af27" y="172.976043"/>
     <use style="stroke:#000000;" x="263.763706" xlink:href="#m517b98af27" y="174.528"/>
     <use style="stroke:#000000;" x="241.239846" xlink:href="#m517b98af27" y="174.528"/>
     <use style="stroke:#000000;" x="236.16" xlink:href="#m517b98af27" y="148.676381"/>
     <use style="stroke:#000000;" x="236.16" xlink:href="#m517b98af27" y="151.091296"/>
     <use style="stroke:#000000;" x="236.720128" xlink:href="#m517b98af27" y="174.528"/>
     <use style="stroke:#000000;" x="236.16" xlink:href="#m517b98af27" y="147.478832"/>
     <use style="stroke:#000000;" x="250.474383" xlink:href="#m517b98af27" y="174.249639"/>
     <use style="stroke:#000000;" x="249.472091" xlink:href="#m517b98af27" y="174.528"/>
     <use style="stroke:#000000;" x="236.16" xlink:href="#m517b98af27" y="174.528"/>
     <use style="stroke:#000000;" x="236.16" xlink:href="#m517b98af27" y="174.528"/>
     <use style="stroke:#000000;" x="236.16" xlink:href="#m517b98af27" y="137.333376"/>
     <use style="stroke:#000000;" x="242.615761" xlink:href="#m517b98af27" y="174.528"/>
     <use style="stroke:#000000;" x="237.096272" xlink:href="#m517b98af27" y="174.528"/>
     <use style="stroke:#000000;" x="236.16" xlink:href="#m517b98af27" y="173.889978"/>
     <use style="stroke:#000000;" x="236.16" xlink:href="#m517b98af27" y="173.524601"/>
     <use style="stroke:#000000;" x="252.759304" xlink:href="#m517b98af27" y="174.528"/>
     <use style="stroke:#000000;" x="242.861745" xlink:href="#m517b98af27" y="174.528"/>
     <use style="stroke:#000000;" x="243.004558" xlink:href="#m517b98af27" y="174.528"/>
     <use style="stroke:#000000;" x="280.856808" xlink:href="#m517b98af27" y="174.528"/>
     <use style="stroke:#000000;" x="238.329221" xlink:href="#m517b98af27" y="174.528"/>
     <use style="stroke:#000000;" x="271.839491" xlink:href="#m517b98af27" y="174.528"/>
     <use style="stroke:#000000;" x="277.790538" xlink:href="#m517b98af27" y="174.528"/>
     <use style="stroke:#000000;" x="241.839357" xlink:href="#m517b98af27" y="134.6112"/>
     <use style="stroke:#000000;" x="240.207628" xlink:href="#m517b98af27" y="174.528"/>
     <use style="stroke:#000000;" x="247.73432" xlink:href="#m517b98af27" y="174.528"/>
     <use style="stroke:#000000;" x="325.44" xlink:href="#m517b98af27" y="134.6112"/>
     <use style="stroke:#000000;" x="277.907415" xlink:href="#m517b98af27" y="174.528"/>
     <use style="stroke:#000000;" x="236.16" xlink:href="#m517b98af27" y="136.682462"/>
     <use style="stroke:#000000;" x="236.16" xlink:href="#m517b98af27" y="167.360606"/>
     <use style="stroke:#000000;" x="256.73345" xlink:href="#m517b98af27" y="174.528"/>
     <use style="stroke:#000000;" x="236.16" xlink:href="#m517b98af27" y="166.035554"/>
     <use style="stroke:#000000;" x="238.94278" xlink:href="#m517b98af27" y="174.528"/>
     <use style="stroke:#000000;" x="236.16" xlink:href="#m517b98af27" y="148.740035"/>
     <use style="stroke:#000000;" x="236.16" xlink:href="#m517b98af27" y="152.710539"/>
     <use style="stroke:#000000;" x="260.360849" xlink:href="#m517b98af27" y="174.528"/>
     <use style="stroke:#000000;" x="236.16" xlink:href="#m517b98af27" y="172.414157"/>
     <use style="stroke:#000000;" x="236.16" xlink:href="#m517b98af27" y="174.528"/>
     <use style="stroke:#000000;" x="275.599417" xlink:href="#m517b98af27" y="174.528"/>
     <use style="stroke:#000000;" x="325.379627" xlink:href="#m517b98af27" y="140.090174"/>
     <use style="stroke:#000000;" x="236.16" xlink:href="#m517b98af27" y="147.870207"/>
     <use style="stroke:#000000;" x="247.400187" xlink:href="#m517b98af27" y="174.528"/>
     <use style="stroke:#000000;" x="236.16" xlink:href="#m517b98af27" y="147.533675"/>
     <use style="stroke:#000000;" x="236.16" xlink:href="#m517b98af27" y="171.574583"/>
     <use style="stroke:#000000;" x="236.16" xlink:href="#m517b98af27" y="162.675876"/>
     <use style="stroke:#000000;" x="241.906725" xlink:href="#m517b98af27" y="174.528"/>
     <use style="stroke:#000000;" x="236.16" xlink:href="#m517b98af27" y="140.318148"/>
     <use style="stroke:#000000;" x="246.811448" xlink:href="#m517b98af27" y="174.528"/>
     <use style="stroke:#000000;" x="236.16" xlink:href="#m517b98af27" y="136.150065"/>
     <use style="stroke:#000000;" x="244.01136" xlink:href="#m517b98af27" y="174.528"/>
     <use style="stroke:#000000;" x="243.37401" xlink:href="#m517b98af27" y="174.528"/>
     <use style="stroke:#000000;" x="259.412785" xlink:href="#m517b98af27" y="174.528"/>
     <use style="stroke:#000000;" x="236.16" xlink:href="#m517b98af27" y="173.320981"/>
     <use style="stroke:#000000;" x="236.16" xlink:href="#m517b98af27" y="146.108782"/>
     <use style="stroke:#000000;" x="236.16" xlink:href="#m517b98af27" y="172.781685"/>
     <use style="stroke:#000000;" x="252.49237" xlink:href="#m517b98af27" y="174.528"/>
     <use style="stroke:#000000;" x="242.637057" xlink:href="#m517b98af27" y="174.528"/>
     <use style="stroke:#000000;" x="236.16" xlink:href="#m517b98af27" y="135.245705"/>
     <use style="stroke:#000000;" x="246.100356" xlink:href="#m517b98af27" y="174.528"/>
     <use style="stroke:#000000;" x="236.16" xlink:href="#m517b98af27" y="174.267376"/>
     <use style="stroke:#000000;" x="237.884249" xlink:href="#m517b98af27" y="134.6112"/>
     <use style="stroke:#000000;" x="236.16" xlink:href="#m517b98af27" y="174.528"/>
     <use style="stroke:#000000;" x="250.158838" xlink:href="#m517b98af27" y="174.528"/>
     <use style="stroke:#000000;" x="238.848271" xlink:href="#m517b98af27" y="174.528"/>
     <use style="stroke:#000000;" x="237.831439" xlink:href="#m517b98af27" y="174.528"/>
     <use style="stroke:#000000;" x="236.16" xlink:href="#m517b98af27" y="147.156346"/>
     <use style="stroke:#000000;" x="236.16" xlink:href="#m517b98af27" y="134.825984"/>
     <use style="stroke:#000000;" x="236.389968" xlink:href="#m517b98af27" y="174.528"/>
     <use style="stroke:#000000;" x="250.941219" xlink:href="#m517b98af27" y="174.528"/>
     <use style="stroke:#000000;" x="245.693732" xlink:href="#m517b98af27" y="174.528"/>
     <use style="stroke:#000000;" x="276.772072" xlink:href="#m517b98af27" y="174.528"/>
     <use style="stroke:#000000;" x="244.271901" xlink:href="#m517b98af27" y="174.528"/>
     <use style="stroke:#000000;" x="243.916632" xlink:href="#m517b98af27" y="174.528"/>
     <use style="stroke:#000000;" x="251.50264" xlink:href="#m517b98af27" y="174.528"/>
     <use style="stroke:#000000;" x="236.16" xlink:href="#m517b98af27" y="134.6112"/>
     <use style="stroke:#000000;" x="245.229476" xlink:href="#m517b98af27" y="174.528"/>
     <use style="stroke:#000000;" x="236.16" xlink:href="#m517b98af27" y="174.528"/>
     <use style="stroke:#000000;" x="236.16" xlink:href="#m517b98af27" y="174.128331"/>
     <use style="stroke:#000000;" x="236.16" xlink:href="#m517b98af27" y="174.357209"/>
     <use style="stroke:#000000;" x="236.475595" xlink:href="#m517b98af27" y="174.528"/>
     <use style="stroke:#000000;" x="236.16" xlink:href="#m517b98af27" y="136.917219"/>
     <use style="stroke:#000000;" x="236.16" xlink:href="#m517b98af27" y="136.986338"/>
     <use style="stroke:#000000;" x="236.16" xlink:href="#m517b98af27" y="137.241358"/>
     <use style="stroke:#000000;" x="236.626215" xlink:href="#m517b98af27" y="134.6112"/>
     <use style="stroke:#000000;" x="236.16" xlink:href="#m517b98af27" y="134.692583"/>
     <use style="stroke:#000000;" x="236.303755" xlink:href="#m517b98af27" y="134.6112"/>
     <use style="stroke:#000000;" x="236.16" xlink:href="#m517b98af27" y="147.138691"/>
     <use style="stroke:#000000;" x="236.16" xlink:href="#m517b98af27" y="147.444581"/>
     <use style="stroke:#000000;" x="237.072374" xlink:href="#m517b98af27" y="147.132329"/>
     <use style="stroke:#000000;" x="236.208156" xlink:href="#m517b98af27" y="172.692891"/>
     <use style="stroke:#000000;" x="236.16" xlink:href="#m517b98af27" y="172.856558"/>
     <use style="stroke:#000000;" x="236.973651" xlink:href="#m517b98af27" y="173.15434"/>
     <use style="stroke:#000000;" x="263.458126" xlink:href="#m517b98af27" y="174.356176"/>
     <use style="stroke:#000000;" x="263.752985" xlink:href="#m517b98af27" y="174.397863"/>
     <use style="stroke:#000000;" x="263.208265" xlink:href="#m517b98af27" y="174.010918"/>
     <use style="stroke:#000000;" x="241.229813" xlink:href="#m517b98af27" y="174.528"/>
     <use style="stroke:#000000;" x="240.669946" xlink:href="#m517b98af27" y="174.528"/>
     <use style="stroke:#000000;" x="240.898136" xlink:href="#m517b98af27" y="174.528"/>
     <use style="stroke:#000000;" x="236.16" xlink:href="#m517b98af27" y="148.234479"/>
     <use style="stroke:#000000;" x="236.16" xlink:href="#m517b98af27" y="148.954987"/>
     <use style="stroke:#000000;" x="236.16" xlink:href="#m517b98af27" y="148.649427"/>
     <use style="stroke:#000000;" x="236.16" xlink:href="#m517b98af27" y="154.643399"/>
     <use style="stroke:#000000;" x="236.391537" xlink:href="#m517b98af27" y="174.528"/>
     <use style="stroke:#000000;" x="237.267919" xlink:href="#m517b98af27" y="174.528"/>
     <use style="stroke:#000000;" x="236.252686" xlink:href="#m517b98af27" y="174.528"/>
     <use style="stroke:#000000;" x="236.16" xlink:href="#m517b98af27" y="147.41916"/>
     <use style="stroke:#000000;" x="236.16" xlink:href="#m517b98af27" y="147.490564"/>
     <use style="stroke:#000000;" x="236.16" xlink:href="#m517b98af27" y="147.085781"/>
     <use style="stroke:#000000;" x="250.444943" xlink:href="#m517b98af27" y="174.210774"/>
     <use style="stroke:#000000;" x="249.801668" xlink:href="#m517b98af27" y="173.76579"/>
     <use style="stroke:#000000;" x="250.205615" xlink:href="#m517b98af27" y="174.506426"/>
     <use style="stroke:#000000;" x="254.629508" xlink:href="#m517b98af27" y="171.560687"/>
     <use style="stroke:#000000;" x="236.16" xlink:href="#m517b98af27" y="174.528"/>
     <use style="stroke:#000000;" x="236.16" xlink:href="#m517b98af27" y="174.47429"/>
     <use style="stroke:#000000;" x="236.16" xlink:href="#m517b98af27" y="174.418676"/>
     <use style="stroke:#000000;" x="236.26911" xlink:href="#m517b98af27" y="174.133669"/>
     <use style="stroke:#000000;" x="236.16" xlink:href="#m517b98af27" y="174.196746"/>
     <use style="stroke:#000000;" x="236.16" xlink:href="#m517b98af27" y="174.528"/>
     <use style="stroke:#000000;" x="236.447176" xlink:href="#m517b98af27" y="137.09386"/>
     <use style="stroke:#000000;" x="236.691742" xlink:href="#m517b98af27" y="137.135912"/>
     <use style="stroke:#000000;" x="236.16" xlink:href="#m517b98af27" y="137.574405"/>
     <use style="stroke:#000000;" x="242.430086" xlink:href="#m517b98af27" y="174.414488"/>
     <use style="stroke:#000000;" x="242.106916" xlink:href="#m517b98af27" y="174.528"/>
     <use style="stroke:#000000;" x="242.233901" xlink:href="#m517b98af27" y="174.528"/>
     <use style="stroke:#000000;" x="237.663527" xlink:href="#m517b98af27" y="174.528"/>
     <use style="stroke:#000000;" x="237.502702" xlink:href="#m517b98af27" y="174.418697"/>
     <use style="stroke:#000000;" x="236.699339" xlink:href="#m517b98af27" y="174.528"/>
     <use style="stroke:#000000;" x="236.16" xlink:href="#m517b98af27" y="174.221073"/>
     <use style="stroke:#000000;" x="236.407825" xlink:href="#m517b98af27" y="173.939434"/>
     <use style="stroke:#000000;" x="236.16" xlink:href="#m517b98af27" y="173.453721"/>
     <use style="stroke:#000000;" x="236.16" xlink:href="#m517b98af27" y="173.79306"/>
     <use style="stroke:#000000;" x="236.16" xlink:href="#m517b98af27" y="173.433549"/>
     <use style="stroke:#000000;" x="236.16" xlink:href="#m517b98af27" y="172.683195"/>
     <use style="stroke:#000000;" x="253.376595" xlink:href="#m517b98af27" y="173.959808"/>
     <use style="stroke:#000000;" x="253.6233" xlink:href="#m517b98af27" y="174.431611"/>
     <use style="stroke:#000000;" x="252.203963" xlink:href="#m517b98af27" y="174.528"/>
     <use style="stroke:#000000;" x="243.231206" xlink:href="#m517b98af27" y="174.528"/>
     <use style="stroke:#000000;" x="242.096525" xlink:href="#m517b98af27" y="174.528"/>
     <use style="stroke:#000000;" x="244.525416" xlink:href="#m517b98af27" y="174.254958"/>
     <use style="stroke:#000000;" x="243.1965" xlink:href="#m517b98af27" y="174.528"/>
     <use style="stroke:#000000;" x="244.093293" xlink:href="#m517b98af27" y="174.528"/>
     <use style="stroke:#000000;" x="241.802103" xlink:href="#m517b98af27" y="174.528"/>
     <use style="stroke:#000000;" x="279.461484" xlink:href="#m517b98af27" y="174.528"/>
     <use style="stroke:#000000;" x="280.675319" xlink:href="#m517b98af27" y="173.928079"/>
     <use style="stroke:#000000;" x="281.50169" xlink:href="#m517b98af27" y="174.528"/>
     <use style="stroke:#000000;" x="238.630648" xlink:href="#m517b98af27" y="174.048835"/>
     <use style="stroke:#000000;" x="240.405605" xlink:href="#m517b98af27" y="174.528"/>
     <use style="stroke:#000000;" x="237.307051" xlink:href="#m517b98af27" y="174.528"/>
     <use style="stroke:#000000;" x="271.62746" xlink:href="#m517b98af27" y="173.986429"/>
     <use style="stroke:#000000;" x="270.993833" xlink:href="#m517b98af27" y="174.036359"/>
     <use style="stroke:#000000;" x="272.154337" xlink:href="#m517b98af27" y="174.191683"/>
     <use style="stroke:#000000;" x="277.041118" xlink:href="#m517b98af27" y="174.528"/>
     <use style="stroke:#000000;" x="277.042467" xlink:href="#m517b98af27" y="174.397577"/>
     <use style="stroke:#000000;" x="277.506461" xlink:href="#m517b98af27" y="174.528"/>
     <use style="stroke:#000000;" x="240.846688" xlink:href="#m517b98af27" y="134.865094"/>
     <use style="stroke:#000000;" x="242.153684" xlink:href="#m517b98af27" y="134.6112"/>
     <use style="stroke:#000000;" x="243.576211" xlink:href="#m517b98af27" y="134.6112"/>
     <use style="stroke:#000000;" x="237.961653" xlink:href="#m517b98af27" y="174.189827"/>
     <use style="stroke:#000000;" x="240.427391" xlink:href="#m517b98af27" y="174.439495"/>
     <use style="stroke:#000000;" x="239.915721" xlink:href="#m517b98af27" y="174.528"/>
     <use style="stroke:#000000;" x="248.493085" xlink:href="#m517b98af27" y="174.08247"/>
     <use style="stroke:#000000;" x="248.270854" xlink:href="#m517b98af27" y="174.157512"/>
     <use style="stroke:#000000;" x="325.44" xlink:href="#m517b98af27" y="134.6112"/>
     <use style="stroke:#000000;" x="325.44" xlink:href="#m517b98af27" y="134.813922"/>
     <use style="stroke:#000000;" x="277.649273" xlink:href="#m517b98af27" y="174.528"/>
     <use style="stroke:#000000;" x="278.400176" xlink:href="#m517b98af27" y="174.528"/>
     <use style="stroke:#000000;" x="236.16" xlink:href="#m517b98af27" y="136.58281"/>
     <use style="stroke:#000000;" x="236.720892" xlink:href="#m517b98af27" y="137.396481"/>
     <use style="stroke:#000000;" x="236.95625" xlink:href="#m517b98af27" y="169.299719"/>
     <use style="stroke:#000000;" x="256.801446" xlink:href="#m517b98af27" y="174.528"/>
     <use style="stroke:#000000;" x="236.16" xlink:href="#m517b98af27" y="165.823027"/>
     <use style="stroke:#000000;" x="238.999387" xlink:href="#m517b98af27" y="174.528"/>
     <use style="stroke:#000000;" x="240.068863" xlink:href="#m517b98af27" y="150.933508"/>
     <use style="stroke:#000000;" x="244.306715" xlink:href="#m517b98af27" y="152.411132"/>
     <use style="stroke:#000000;" x="256.999249" xlink:href="#m517b98af27" y="174.528"/>
     <use style="stroke:#000000;" x="236.16" xlink:href="#m517b98af27" y="171.514096"/>
     <use style="stroke:#000000;" x="236.16" xlink:href="#m517b98af27" y="173.103421"/>
     <use style="stroke:#000000;" x="236.16" xlink:href="#m517b98af27" y="174.528"/>
     <use style="stroke:#000000;" x="277.255324" xlink:href="#m517b98af27" y="173.503743"/>
     <use style="stroke:#000000;" x="325.44" xlink:href="#m517b98af27" y="140.920201"/>
     <use style="stroke:#000000;" x="236.16" xlink:href="#m517b98af27" y="148.02753"/>
     <use style="stroke:#000000;" x="237.84804" xlink:href="#m517b98af27" y="147.102561"/>
     <use style="stroke:#000000;" x="245.954109" xlink:href="#m517b98af27" y="174.528"/>
     <use style="stroke:#000000;" x="236.16" xlink:href="#m517b98af27" y="149.399152"/>
     <use style="stroke:#000000;" x="238.631622" xlink:href="#m517b98af27" y="172.51555"/>
     <use style="stroke:#000000;" x="236.16" xlink:href="#m517b98af27" y="171.80548"/>
     <use style="stroke:#000000;" x="236.16" xlink:href="#m517b98af27" y="163.444557"/>
     <use style="stroke:#000000;" x="239.746824" xlink:href="#m517b98af27" y="174.528"/>
     <use style="stroke:#000000;" x="236.16" xlink:href="#m517b98af27" y="140.803611"/>
     <use style="stroke:#000000;" x="244.511443" xlink:href="#m517b98af27" y="173.796554"/>
     <use style="stroke:#000000;" x="236.16" xlink:href="#m517b98af27" y="134.6112"/>
     <use style="stroke:#000000;" x="242.08473" xlink:href="#m517b98af27" y="173.910517"/>
     <use style="stroke:#000000;" x="244.093043" xlink:href="#m517b98af27" y="174.528"/>
     <use style="stroke:#000000;" x="260.725901" xlink:href="#m517b98af27" y="173.661997"/>
     <use style="stroke:#000000;" x="237.757684" xlink:href="#m517b98af27" y="173.669622"/>
     <use style="stroke:#000000;" x="240.98042" xlink:href="#m517b98af27" y="173.876331"/>
     <use style="stroke:#000000;" x="236.16" xlink:href="#m517b98af27" y="145.057478"/>
     <use style="stroke:#000000;" x="239.09722" xlink:href="#m517b98af27" y="172.839123"/>
     <use style="stroke:#000000;" x="254.460207" xlink:href="#m517b98af27" y="173.379752"/>
     <use style="stroke:#000000;" x="241.752239" xlink:href="#m517b98af27" y="174.338666"/>
     <use style="stroke:#000000;" x="240.755202" xlink:href="#m517b98af27" y="174.528"/>
     <use style="stroke:#000000;" x="236.71116" xlink:href="#m517b98af27" y="135.986795"/>
     <use style="stroke:#000000;" x="238.040967" xlink:href="#m517b98af27" y="134.6112"/>
     <use style="stroke:#000000;" x="243.720474" xlink:href="#m517b98af27" y="173.965727"/>
     <use style="stroke:#000000;" x="236.16" xlink:href="#m517b98af27" y="174.397002"/>
     <use style="stroke:#000000;" x="238.692717" xlink:href="#m517b98af27" y="174.528"/>
     <use style="stroke:#000000;" x="238.92989" xlink:href="#m517b98af27" y="134.6112"/>
     <use style="stroke:#000000;" x="239.298515" xlink:href="#m517b98af27" y="134.655918"/>
     <use style="stroke:#000000;" x="236.16" xlink:href="#m517b98af27" y="174.528"/>
     <use style="stroke:#000000;" x="237.086364" xlink:href="#m517b98af27" y="174.528"/>
     <use style="stroke:#000000;" x="250.224758" xlink:href="#m517b98af27" y="174.528"/>
     <use style="stroke:#000000;" x="251.689318" xlink:href="#m517b98af27" y="174.187216"/>
     <use style="stroke:#000000;" x="240.815786" xlink:href="#m517b98af27" y="174.528"/>
     <use style="stroke:#000000;" x="239.263788" xlink:href="#m517b98af27" y="173.870828"/>
     <use style="stroke:#000000;" x="236.426176" xlink:href="#m517b98af27" y="173.991317"/>
     <use style="stroke:#000000;" x="236.367128" xlink:href="#m517b98af27" y="174.414391"/>
     <use style="stroke:#000000;" x="236.16" xlink:href="#m517b98af27" y="147.195643"/>
     <use style="stroke:#000000;" x="236.16" xlink:href="#m517b98af27" y="148.162079"/>
     <use style="stroke:#000000;" x="236.518319" xlink:href="#m517b98af27" y="134.6112"/>
     <use style="stroke:#000000;" x="236.16" xlink:href="#m517b98af27" y="134.969542"/>
     <use style="stroke:#000000;" x="237.202849" xlink:href="#m517b98af27" y="174.528"/>
     <use style="stroke:#000000;" x="236.16" xlink:href="#m517b98af27" y="174.528"/>
     <use style="stroke:#000000;" x="248.79999" xlink:href="#m517b98af27" y="174.528"/>
     <use style="stroke:#000000;" x="249.509166" xlink:href="#m517b98af27" y="174.528"/>
     <use style="stroke:#000000;" x="245.309821" xlink:href="#m517b98af27" y="174.528"/>
     <use style="stroke:#000000;" x="244.956565" xlink:href="#m517b98af27" y="174.528"/>
     <use style="stroke:#000000;" x="273.256516" xlink:href="#m517b98af27" y="174.4562"/>
     <use style="stroke:#000000;" x="280.062903" xlink:href="#m517b98af27" y="174.528"/>
     <use style="stroke:#000000;" x="243.532536" xlink:href="#m517b98af27" y="173.780063"/>
     <use style="stroke:#000000;" x="245.561815" xlink:href="#m517b98af27" y="174.379363"/>
     <use style="stroke:#000000;" x="242.732781" xlink:href="#m517b98af27" y="174.528"/>
     <use style="stroke:#000000;" x="243.223749" xlink:href="#m517b98af27" y="174.528"/>
     <use style="stroke:#000000;" x="253.301676" xlink:href="#m517b98af27" y="174.391653"/>
     <use style="stroke:#000000;" x="248.917047" xlink:href="#m517b98af27" y="174.313264"/>
     <use style="stroke:#000000;" x="239.885536" xlink:href="#m517b98af27" y="134.6112"/>
     <use style="stroke:#000000;" x="236.16" xlink:href="#m517b98af27" y="135.233344"/>
    </g>
   </g>
   <g id="PathCollection_2">
    <defs>
     <path d="M 0 0.935414 
C 0.248075 0.935414 0.486022 0.836853 0.661438 0.661438 
C 0.836853 0.486022 0.935414 0.248075 0.935414 0 
C 0.935414 -0.248075 0.836853 -0.486022 0.661438 -0.661438 
C 0.486022 -0.836853 0.248075 -0.935414 0 -0.935414 
C -0.248075 -0.935414 -0.486022 -0.836853 -0.661438 -0.661438 
C -0.836853 -0.486022 -0.935414 -0.248075 -0.935414 0 
C -0.935414 0.248075 -0.836853 0.486022 -0.661438 0.661438 
C -0.486022 0.836853 -0.248075 0.935414 0 0.935414 
z
" id="mbbde2a8f57" style="stroke:#0000ff;"/>
    </defs>
    <g clip-path="url(#pb91b6476df)">
     <use style="fill:#0000ff;stroke:#0000ff;" x="239.222692" xlink:href="#mbbde2a8f57" y="174.528"/>
     <use style="fill:#0000ff;stroke:#0000ff;" x="236.16" xlink:href="#mbbde2a8f57" y="174.528"/>
     <use style="fill:#0000ff;stroke:#0000ff;" x="236.16" xlink:href="#mbbde2a8f57" y="137.120496"/>
     <use style="fill:#0000ff;stroke:#0000ff;" x="236.16" xlink:href="#mbbde2a8f57" y="134.775163"/>
     <use style="fill:#0000ff;stroke:#0000ff;" x="236.16" xlink:href="#mbbde2a8f57" y="147.107858"/>
     <use style="fill:#0000ff;stroke:#0000ff;" x="236.16" xlink:href="#mbbde2a8f57" y="172.976043"/>
     <use style="fill:#0000ff;stroke:#0000ff;" x="263.763706" xlink:href="#mbbde2a8f57" y="174.528"/>
     <use style="fill:#0000ff;stroke:#0000ff;" x="241.239846" xlink:href="#mbbde2a8f57" y="174.528"/>
     <use style="fill:#0000ff;stroke:#0000ff;" x="236.16" xlink:href="#mbbde2a8f57" y="148.676381"/>
     <use style="fill:#0000ff;stroke:#0000ff;" x="236.16" xlink:href="#mbbde2a8f57" y="151.091296"/>
     <use style="fill:#0000ff;stroke:#0000ff;" x="236.720128" xlink:href="#mbbde2a8f57" y="174.528"/>
     <use style="fill:#0000ff;stroke:#0000ff;" x="236.16" xlink:href="#mbbde2a8f57" y="147.478832"/>
     <use style="fill:#0000ff;stroke:#0000ff;" x="250.474383" xlink:href="#mbbde2a8f57" y="174.249639"/>
     <use style="fill:#0000ff;stroke:#0000ff;" x="249.472091" xlink:href="#mbbde2a8f57" y="174.528"/>
     <use style="fill:#0000ff;stroke:#0000ff;" x="236.16" xlink:href="#mbbde2a8f57" y="174.528"/>
     <use style="fill:#0000ff;stroke:#0000ff;" x="236.16" xlink:href="#mbbde2a8f57" y="174.528"/>
     <use style="fill:#0000ff;stroke:#0000ff;" x="236.16" xlink:href="#mbbde2a8f57" y="137.333376"/>
     <use style="fill:#0000ff;stroke:#0000ff;" x="242.615761" xlink:href="#mbbde2a8f57" y="174.528"/>
     <use style="fill:#0000ff;stroke:#0000ff;" x="237.096272" xlink:href="#mbbde2a8f57" y="174.528"/>
     <use style="fill:#0000ff;stroke:#0000ff;" x="236.16" xlink:href="#mbbde2a8f57" y="173.889978"/>
     <use style="fill:#0000ff;stroke:#0000ff;" x="236.16" xlink:href="#mbbde2a8f57" y="173.524601"/>
     <use style="fill:#0000ff;stroke:#0000ff;" x="252.759304" xlink:href="#mbbde2a8f57" y="174.528"/>
     <use style="fill:#0000ff;stroke:#0000ff;" x="242.861745" xlink:href="#mbbde2a8f57" y="174.528"/>
     <use style="fill:#0000ff;stroke:#0000ff;" x="243.004558" xlink:href="#mbbde2a8f57" y="174.528"/>
     <use style="fill:#0000ff;stroke:#0000ff;" x="280.856808" xlink:href="#mbbde2a8f57" y="174.528"/>
     <use style="fill:#0000ff;stroke:#0000ff;" x="238.329221" xlink:href="#mbbde2a8f57" y="174.528"/>
     <use style="fill:#0000ff;stroke:#0000ff;" x="271.839491" xlink:href="#mbbde2a8f57" y="174.528"/>
     <use style="fill:#0000ff;stroke:#0000ff;" x="277.790538" xlink:href="#mbbde2a8f57" y="174.528"/>
     <use style="fill:#0000ff;stroke:#0000ff;" x="241.839357" xlink:href="#mbbde2a8f57" y="134.6112"/>
     <use style="fill:#0000ff;stroke:#0000ff;" x="240.207628" xlink:href="#mbbde2a8f57" y="174.528"/>
     <use style="fill:#0000ff;stroke:#0000ff;" x="247.73432" xlink:href="#mbbde2a8f57" y="174.528"/>
     <use style="fill:#0000ff;stroke:#0000ff;" x="325.44" xlink:href="#mbbde2a8f57" y="134.6112"/>
     <use style="fill:#0000ff;stroke:#0000ff;" x="277.907415" xlink:href="#mbbde2a8f57" y="174.528"/>
     <use style="fill:#0000ff;stroke:#0000ff;" x="236.16" xlink:href="#mbbde2a8f57" y="136.682462"/>
     <use style="fill:#0000ff;stroke:#0000ff;" x="236.16" xlink:href="#mbbde2a8f57" y="167.360606"/>
     <use style="fill:#0000ff;stroke:#0000ff;" x="256.73345" xlink:href="#mbbde2a8f57" y="174.528"/>
     <use style="fill:#0000ff;stroke:#0000ff;" x="236.16" xlink:href="#mbbde2a8f57" y="166.035554"/>
     <use style="fill:#0000ff;stroke:#0000ff;" x="238.94278" xlink:href="#mbbde2a8f57" y="174.528"/>
     <use style="fill:#0000ff;stroke:#0000ff;" x="236.16" xlink:href="#mbbde2a8f57" y="148.740035"/>
     <use style="fill:#0000ff;stroke:#0000ff;" x="236.16" xlink:href="#mbbde2a8f57" y="152.710539"/>
     <use style="fill:#0000ff;stroke:#0000ff;" x="260.360849" xlink:href="#mbbde2a8f57" y="174.528"/>
     <use style="fill:#0000ff;stroke:#0000ff;" x="236.16" xlink:href="#mbbde2a8f57" y="172.414157"/>
     <use style="fill:#0000ff;stroke:#0000ff;" x="236.16" xlink:href="#mbbde2a8f57" y="174.528"/>
     <use style="fill:#0000ff;stroke:#0000ff;" x="275.599417" xlink:href="#mbbde2a8f57" y="174.528"/>
     <use style="fill:#0000ff;stroke:#0000ff;" x="325.379627" xlink:href="#mbbde2a8f57" y="140.090174"/>
     <use style="fill:#0000ff;stroke:#0000ff;" x="236.16" xlink:href="#mbbde2a8f57" y="147.870207"/>
     <use style="fill:#0000ff;stroke:#0000ff;" x="247.400187" xlink:href="#mbbde2a8f57" y="174.528"/>
     <use style="fill:#0000ff;stroke:#0000ff;" x="236.16" xlink:href="#mbbde2a8f57" y="147.533675"/>
     <use style="fill:#0000ff;stroke:#0000ff;" x="236.16" xlink:href="#mbbde2a8f57" y="171.574583"/>
     <use style="fill:#0000ff;stroke:#0000ff;" x="236.16" xlink:href="#mbbde2a8f57" y="162.675876"/>
     <use style="fill:#0000ff;stroke:#0000ff;" x="241.906725" xlink:href="#mbbde2a8f57" y="174.528"/>
     <use style="fill:#0000ff;stroke:#0000ff;" x="236.16" xlink:href="#mbbde2a8f57" y="140.318148"/>
     <use style="fill:#0000ff;stroke:#0000ff;" x="246.811448" xlink:href="#mbbde2a8f57" y="174.528"/>
     <use style="fill:#0000ff;stroke:#0000ff;" x="236.16" xlink:href="#mbbde2a8f57" y="136.150065"/>
     <use style="fill:#0000ff;stroke:#0000ff;" x="244.01136" xlink:href="#mbbde2a8f57" y="174.528"/>
     <use style="fill:#0000ff;stroke:#0000ff;" x="243.37401" xlink:href="#mbbde2a8f57" y="174.528"/>
     <use style="fill:#0000ff;stroke:#0000ff;" x="259.412785" xlink:href="#mbbde2a8f57" y="174.528"/>
     <use style="fill:#0000ff;stroke:#0000ff;" x="236.16" xlink:href="#mbbde2a8f57" y="173.320981"/>
     <use style="fill:#0000ff;stroke:#0000ff;" x="236.16" xlink:href="#mbbde2a8f57" y="146.108782"/>
     <use style="fill:#0000ff;stroke:#0000ff;" x="236.16" xlink:href="#mbbde2a8f57" y="172.781685"/>
     <use style="fill:#0000ff;stroke:#0000ff;" x="252.49237" xlink:href="#mbbde2a8f57" y="174.528"/>
     <use style="fill:#0000ff;stroke:#0000ff;" x="242.637057" xlink:href="#mbbde2a8f57" y="174.528"/>
     <use style="fill:#0000ff;stroke:#0000ff;" x="236.16" xlink:href="#mbbde2a8f57" y="135.245705"/>
     <use style="fill:#0000ff;stroke:#0000ff;" x="246.100356" xlink:href="#mbbde2a8f57" y="174.528"/>
     <use style="fill:#0000ff;stroke:#0000ff;" x="236.16" xlink:href="#mbbde2a8f57" y="174.267376"/>
     <use style="fill:#0000ff;stroke:#0000ff;" x="237.884249" xlink:href="#mbbde2a8f57" y="134.6112"/>
     <use style="fill:#0000ff;stroke:#0000ff;" x="236.16" xlink:href="#mbbde2a8f57" y="174.528"/>
     <use style="fill:#0000ff;stroke:#0000ff;" x="250.158838" xlink:href="#mbbde2a8f57" y="174.528"/>
     <use style="fill:#0000ff;stroke:#0000ff;" x="238.848271" xlink:href="#mbbde2a8f57" y="174.528"/>
     <use style="fill:#0000ff;stroke:#0000ff;" x="237.831439" xlink:href="#mbbde2a8f57" y="174.528"/>
     <use style="fill:#0000ff;stroke:#0000ff;" x="236.16" xlink:href="#mbbde2a8f57" y="147.156346"/>
     <use style="fill:#0000ff;stroke:#0000ff;" x="236.16" xlink:href="#mbbde2a8f57" y="134.825984"/>
     <use style="fill:#0000ff;stroke:#0000ff;" x="236.389968" xlink:href="#mbbde2a8f57" y="174.528"/>
     <use style="fill:#0000ff;stroke:#0000ff;" x="250.941219" xlink:href="#mbbde2a8f57" y="174.528"/>
     <use style="fill:#0000ff;stroke:#0000ff;" x="245.693732" xlink:href="#mbbde2a8f57" y="174.528"/>
     <use style="fill:#0000ff;stroke:#0000ff;" x="276.772072" xlink:href="#mbbde2a8f57" y="174.528"/>
     <use style="fill:#0000ff;stroke:#0000ff;" x="244.271901" xlink:href="#mbbde2a8f57" y="174.528"/>
     <use style="fill:#0000ff;stroke:#0000ff;" x="243.916632" xlink:href="#mbbde2a8f57" y="174.528"/>
     <use style="fill:#0000ff;stroke:#0000ff;" x="251.50264" xlink:href="#mbbde2a8f57" y="174.528"/>
     <use style="fill:#0000ff;stroke:#0000ff;" x="236.16" xlink:href="#mbbde2a8f57" y="134.6112"/>
    </g>
   </g>
   <g id="matplotlib.axis_1">
    <g id="xtick_1">
     <g id="line2d_1">
      <defs>
       <path d="M 0 0 
L 0 3.5 
" id="mc7dc7f848b" style="stroke:#000000;stroke-width:0.8;"/>
      </defs>
      <g>
       <use style="stroke:#000000;stroke-width:0.8;" x="57.6" xlink:href="#mc7dc7f848b" y="307.584"/>
      </g>
     </g>
     <g id="text_1">
      <!-- −10.0 -->
      <defs>
       <path d="M 10.59375 35.5 
L 73.1875 35.5 
L 73.1875 27.203125 
L 10.59375 27.203125 
z
" id="DejaVuSans-2212"/>
       <path d="M 12.40625 8.296875 
L 28.515625 8.296875 
L 28.515625 63.921875 
L 10.984375 60.40625 
L 10.984375 69.390625 
L 28.421875 72.90625 
L 38.28125 72.90625 
L 38.28125 8.296875 
L 54.390625 8.296875 
L 54.390625 0 
L 12.40625 0 
z
" id="DejaVuSans-31"/>
       <path d="M 31.78125 66.40625 
Q 24.171875 66.40625 20.328125 58.90625 
Q 16.5 51.421875 16.5 36.375 
Q 16.5 21.390625 20.328125 13.890625 
Q 24.171875 6.390625 31.78125 6.390625 
Q 39.453125 6.390625 43.28125 13.890625 
Q 47.125 21.390625 47.125 36.375 
Q 47.125 51.421875 43.28125 58.90625 
Q 39.453125 66.40625 31.78125 66.40625 
z
M 31.78125 74.21875 
Q 44.046875 74.21875 50.515625 64.515625 
Q 56.984375 54.828125 56.984375 36.375 
Q 56.984375 17.96875 50.515625 8.265625 
Q 44.046875 -1.421875 31.78125 -1.421875 
Q 19.53125 -1.421875 13.0625 8.265625 
Q 6.59375 17.96875 6.59375 36.375 
Q 6.59375 54.828125 13.0625 64.515625 
Q 19.53125 74.21875 31.78125 74.21875 
z
" id="DejaVuSans-30"/>
       <path d="M 10.6875 12.40625 
L 21 12.40625 
L 21 0 
L 10.6875 0 
z
" id="DejaVuSans-2e"/>
      </defs>
      <g transform="translate(42.277344 322.182437)scale(0.1 -0.1)">
       <use xlink:href="#DejaVuSans-2212"/>
       <use x="83.789062" xlink:href="#DejaVuSans-31"/>
       <use x="147.412109" xlink:href="#DejaVuSans-30"/>
       <use x="211.035156" xlink:href="#DejaVuSans-2e"/>
       <use x="242.822266" xlink:href="#DejaVuSans-30"/>
      </g>
     </g>
    </g>
    <g id="xtick_2">
     <g id="line2d_2">
      <g>
       <use style="stroke:#000000;stroke-width:0.8;" x="102.24" xlink:href="#mc7dc7f848b" y="307.584"/>
      </g>
     </g>
     <g id="text_2">
      <!-- −7.5 -->
      <defs>
       <path d="M 8.203125 72.90625 
L 55.078125 72.90625 
L 55.078125 68.703125 
L 28.609375 0 
L 18.3125 0 
L 43.21875 64.59375 
L 8.203125 64.59375 
z
" id="DejaVuSans-37"/>
       <path d="M 10.796875 72.90625 
L 49.515625 72.90625 
L 49.515625 64.59375 
L 19.828125 64.59375 
L 19.828125 46.734375 
Q 21.96875 47.46875 24.109375 47.828125 
Q 26.265625 48.1875 28.421875 48.1875 
Q 40.625 48.1875 47.75 41.5 
Q 54.890625 34.8125 54.890625 23.390625 
Q 54.890625 11.625 47.5625 5.09375 
Q 40.234375 -1.421875 26.90625 -1.421875 
Q 22.3125 -1.421875 17.546875 -0.640625 
Q 12.796875 0.140625 7.71875 1.703125 
L 7.71875 11.625 
Q 12.109375 9.234375 16.796875 8.0625 
Q 21.484375 6.890625 26.703125 6.890625 
Q 35.15625 6.890625 40.078125 11.328125 
Q 45.015625 15.765625 45.015625 23.390625 
Q 45.015625 31 40.078125 35.4375 
Q 35.15625 39.890625 26.703125 39.890625 
Q 22.75 39.890625 18.8125 39.015625 
Q 14.890625 38.140625 10.796875 36.28125 
z
" id="DejaVuSans-35"/>
      </defs>
      <g transform="translate(90.098594 322.182437)scale(0.1 -0.1)">
       <use xlink:href="#DejaVuSans-2212"/>
       <use x="83.789062" xlink:href="#DejaVuSans-37"/>
       <use x="147.412109" xlink:href="#DejaVuSans-2e"/>
       <use x="179.199219" xlink:href="#DejaVuSans-35"/>
      </g>
     </g>
    </g>
    <g id="xtick_3">
     <g id="line2d_3">
      <g>
       <use style="stroke:#000000;stroke-width:0.8;" x="146.88" xlink:href="#mc7dc7f848b" y="307.584"/>
      </g>
     </g>
     <g id="text_3">
      <!-- −5.0 -->
      <g transform="translate(134.738594 322.182437)scale(0.1 -0.1)">
       <use xlink:href="#DejaVuSans-2212"/>
       <use x="83.789062" xlink:href="#DejaVuSans-35"/>
       <use x="147.412109" xlink:href="#DejaVuSans-2e"/>
       <use x="179.199219" xlink:href="#DejaVuSans-30"/>
      </g>
     </g>
    </g>
    <g id="xtick_4">
     <g id="line2d_4">
      <g>
       <use style="stroke:#000000;stroke-width:0.8;" x="191.52" xlink:href="#mc7dc7f848b" y="307.584"/>
      </g>
     </g>
     <g id="text_4">
      <!-- −2.5 -->
      <defs>
       <path d="M 19.1875 8.296875 
L 53.609375 8.296875 
L 53.609375 0 
L 7.328125 0 
L 7.328125 8.296875 
Q 12.9375 14.109375 22.625 23.890625 
Q 32.328125 33.6875 34.8125 36.53125 
Q 39.546875 41.84375 41.421875 45.53125 
Q 43.3125 49.21875 43.3125 52.78125 
Q 43.3125 58.59375 39.234375 62.25 
Q 35.15625 65.921875 28.609375 65.921875 
Q 23.96875 65.921875 18.8125 64.3125 
Q 13.671875 62.703125 7.8125 59.421875 
L 7.8125 69.390625 
Q 13.765625 71.78125 18.9375 73 
Q 24.125 74.21875 28.421875 74.21875 
Q 39.75 74.21875 46.484375 68.546875 
Q 53.21875 62.890625 53.21875 53.421875 
Q 53.21875 48.921875 51.53125 44.890625 
Q 49.859375 40.875 45.40625 35.40625 
Q 44.1875 33.984375 37.640625 27.21875 
Q 31.109375 20.453125 19.1875 8.296875 
z
" id="DejaVuSans-32"/>
      </defs>
      <g transform="translate(179.378594 322.182437)scale(0.1 -0.1)">
       <use xlink:href="#DejaVuSans-2212"/>
       <use x="83.789062" xlink:href="#DejaVuSans-32"/>
       <use x="147.412109" xlink:href="#DejaVuSans-2e"/>
       <use x="179.199219" xlink:href="#DejaVuSans-35"/>
      </g>
     </g>
    </g>
    <g id="xtick_5">
     <g id="line2d_5">
      <g>
       <use style="stroke:#000000;stroke-width:0.8;" x="236.16" xlink:href="#mc7dc7f848b" y="307.584"/>
      </g>
     </g>
     <g id="text_5">
      <!-- 0.0 -->
      <g transform="translate(228.208438 322.182437)scale(0.1 -0.1)">
       <use xlink:href="#DejaVuSans-30"/>
       <use x="63.623047" xlink:href="#DejaVuSans-2e"/>
       <use x="95.410156" xlink:href="#DejaVuSans-30"/>
      </g>
     </g>
    </g>
    <g id="xtick_6">
     <g id="line2d_6">
      <g>
       <use style="stroke:#000000;stroke-width:0.8;" x="280.8" xlink:href="#mc7dc7f848b" y="307.584"/>
      </g>
     </g>
     <g id="text_6">
      <!-- 2.5 -->
      <g transform="translate(272.848437 322.182437)scale(0.1 -0.1)">
       <use xlink:href="#DejaVuSans-32"/>
       <use x="63.623047" xlink:href="#DejaVuSans-2e"/>
       <use x="95.410156" xlink:href="#DejaVuSans-35"/>
      </g>
     </g>
    </g>
    <g id="xtick_7">
     <g id="line2d_7">
      <g>
       <use style="stroke:#000000;stroke-width:0.8;" x="325.44" xlink:href="#mc7dc7f848b" y="307.584"/>
      </g>
     </g>
     <g id="text_7">
      <!-- 5.0 -->
      <g transform="translate(317.488437 322.182437)scale(0.1 -0.1)">
       <use xlink:href="#DejaVuSans-35"/>
       <use x="63.623047" xlink:href="#DejaVuSans-2e"/>
       <use x="95.410156" xlink:href="#DejaVuSans-30"/>
      </g>
     </g>
    </g>
    <g id="xtick_8">
     <g id="line2d_8">
      <g>
       <use style="stroke:#000000;stroke-width:0.8;" x="370.08" xlink:href="#mc7dc7f848b" y="307.584"/>
      </g>
     </g>
     <g id="text_8">
      <!-- 7.5 -->
      <g transform="translate(362.128438 322.182437)scale(0.1 -0.1)">
       <use xlink:href="#DejaVuSans-37"/>
       <use x="63.623047" xlink:href="#DejaVuSans-2e"/>
       <use x="95.410156" xlink:href="#DejaVuSans-35"/>
      </g>
     </g>
    </g>
    <g id="xtick_9">
     <g id="line2d_9">
      <g>
       <use style="stroke:#000000;stroke-width:0.8;" x="414.72" xlink:href="#mc7dc7f848b" y="307.584"/>
      </g>
     </g>
     <g id="text_9">
      <!-- 10.0 -->
      <g transform="translate(403.587188 322.182437)scale(0.1 -0.1)">
       <use xlink:href="#DejaVuSans-31"/>
       <use x="63.623047" xlink:href="#DejaVuSans-30"/>
       <use x="127.246094" xlink:href="#DejaVuSans-2e"/>
       <use x="159.033203" xlink:href="#DejaVuSans-30"/>
      </g>
     </g>
    </g>
   </g>
   <g id="matplotlib.axis_2">
    <g id="ytick_1">
     <g id="line2d_10">
      <defs>
       <path d="M 0 0 
L -3.5 0 
" id="mdc88086d85" style="stroke:#000000;stroke-width:0.8;"/>
      </defs>
      <g>
       <use style="stroke:#000000;stroke-width:0.8;" x="57.6" xlink:href="#mdc88086d85" y="307.584"/>
      </g>
     </g>
     <g id="text_10">
      <!-- −10.0 -->
      <g transform="translate(19.954687 311.383219)scale(0.1 -0.1)">
       <use xlink:href="#DejaVuSans-2212"/>
       <use x="83.789062" xlink:href="#DejaVuSans-31"/>
       <use x="147.412109" xlink:href="#DejaVuSans-30"/>
       <use x="211.035156" xlink:href="#DejaVuSans-2e"/>
       <use x="242.822266" xlink:href="#DejaVuSans-30"/>
      </g>
     </g>
    </g>
    <g id="ytick_2">
     <g id="line2d_11">
      <g>
       <use style="stroke:#000000;stroke-width:0.8;" x="57.6" xlink:href="#mdc88086d85" y="274.32"/>
      </g>
     </g>
     <g id="text_11">
      <!-- −7.5 -->
      <g transform="translate(26.317187 278.119219)scale(0.1 -0.1)">
       <use xlink:href="#DejaVuSans-2212"/>
       <use x="83.789062" xlink:href="#DejaVuSans-37"/>
       <use x="147.412109" xlink:href="#DejaVuSans-2e"/>
       <use x="179.199219" xlink:href="#DejaVuSans-35"/>
      </g>
     </g>
    </g>
    <g id="ytick_3">
     <g id="line2d_12">
      <g>
       <use style="stroke:#000000;stroke-width:0.8;" x="57.6" xlink:href="#mdc88086d85" y="241.056"/>
      </g>
     </g>
     <g id="text_12">
      <!-- −5.0 -->
      <g transform="translate(26.317187 244.855219)scale(0.1 -0.1)">
       <use xlink:href="#DejaVuSans-2212"/>
       <use x="83.789062" xlink:href="#DejaVuSans-35"/>
       <use x="147.412109" xlink:href="#DejaVuSans-2e"/>
       <use x="179.199219" xlink:href="#DejaVuSans-30"/>
      </g>
     </g>
    </g>
    <g id="ytick_4">
     <g id="line2d_13">
      <g>
       <use style="stroke:#000000;stroke-width:0.8;" x="57.6" xlink:href="#mdc88086d85" y="207.792"/>
      </g>
     </g>
     <g id="text_13">
      <!-- −2.5 -->
      <g transform="translate(26.317187 211.591219)scale(0.1 -0.1)">
       <use xlink:href="#DejaVuSans-2212"/>
       <use x="83.789062" xlink:href="#DejaVuSans-32"/>
       <use x="147.412109" xlink:href="#DejaVuSans-2e"/>
       <use x="179.199219" xlink:href="#DejaVuSans-35"/>
      </g>
     </g>
    </g>
    <g id="ytick_5">
     <g id="line2d_14">
      <g>
       <use style="stroke:#000000;stroke-width:0.8;" x="57.6" xlink:href="#mdc88086d85" y="174.528"/>
      </g>
     </g>
     <g id="text_14">
      <!-- 0.0 -->
      <g transform="translate(34.696875 178.327219)scale(0.1 -0.1)">
       <use xlink:href="#DejaVuSans-30"/>
       <use x="63.623047" xlink:href="#DejaVuSans-2e"/>
       <use x="95.410156" xlink:href="#DejaVuSans-30"/>
      </g>
     </g>
    </g>
    <g id="ytick_6">
     <g id="line2d_15">
      <g>
       <use style="stroke:#000000;stroke-width:0.8;" x="57.6" xlink:href="#mdc88086d85" y="141.264"/>
      </g>
     </g>
     <g id="text_15">
      <!-- 2.5 -->
      <g transform="translate(34.696875 145.063219)scale(0.1 -0.1)">
       <use xlink:href="#DejaVuSans-32"/>
       <use x="63.623047" xlink:href="#DejaVuSans-2e"/>
       <use x="95.410156" xlink:href="#DejaVuSans-35"/>
      </g>
     </g>
    </g>
    <g id="ytick_7">
     <g id="line2d_16">
      <g>
       <use style="stroke:#000000;stroke-width:0.8;" x="57.6" xlink:href="#mdc88086d85" y="108"/>
      </g>
     </g>
     <g id="text_16">
      <!-- 5.0 -->
      <g transform="translate(34.696875 111.799219)scale(0.1 -0.1)">
       <use xlink:href="#DejaVuSans-35"/>
       <use x="63.623047" xlink:href="#DejaVuSans-2e"/>
       <use x="95.410156" xlink:href="#DejaVuSans-30"/>
      </g>
     </g>
    </g>
    <g id="ytick_8">
     <g id="line2d_17">
      <g>
       <use style="stroke:#000000;stroke-width:0.8;" x="57.6" xlink:href="#mdc88086d85" y="74.736"/>
      </g>
     </g>
     <g id="text_17">
      <!-- 7.5 -->
      <g transform="translate(34.696875 78.535219)scale(0.1 -0.1)">
       <use xlink:href="#DejaVuSans-37"/>
       <use x="63.623047" xlink:href="#DejaVuSans-2e"/>
       <use x="95.410156" xlink:href="#DejaVuSans-35"/>
      </g>
     </g>
    </g>
    <g id="ytick_9">
     <g id="line2d_18">
      <g>
       <use style="stroke:#000000;stroke-width:0.8;" x="57.6" xlink:href="#mdc88086d85" y="41.472"/>
      </g>
     </g>
     <g id="text_18">
      <!-- 10.0 -->
      <g transform="translate(28.334375 45.271219)scale(0.1 -0.1)">
       <use xlink:href="#DejaVuSans-31"/>
       <use x="63.623047" xlink:href="#DejaVuSans-30"/>
       <use x="127.246094" xlink:href="#DejaVuSans-2e"/>
       <use x="159.033203" xlink:href="#DejaVuSans-30"/>
      </g>
     </g>
    </g>
   </g>
   <g id="patch_3">
    <path d="M 57.6 307.584 
L 57.6 41.472 
" style="fill:none;stroke:#000000;stroke-linecap:square;stroke-linejoin:miter;stroke-width:0.8;"/>
   </g>
   <g id="patch_4">
    <path d="M 414.72 307.584 
L 414.72 41.472 
" style="fill:none;stroke:#000000;stroke-linecap:square;stroke-linejoin:miter;stroke-width:0.8;"/>
   </g>
   <g id="patch_5">
    <path d="M 57.6 307.584 
L 414.72 307.584 
" style="fill:none;stroke:#000000;stroke-linecap:square;stroke-linejoin:miter;stroke-width:0.8;"/>
   </g>
   <g id="patch_6">
    <path d="M 57.6 41.472 
L 414.72 41.472 
" style="fill:none;stroke:#000000;stroke-linecap:square;stroke-linejoin:miter;stroke-width:0.8;"/>
   </g>
  </g>
 </g>
 <defs>
  <clipPath id="pb91b6476df">
   <rect height="266.112" width="357.12" x="57.6" y="41.472"/>
  </clipPath>
 </defs>
</svg>
