<?xml version="1.0" encoding="utf-8" standalone="no"?>
<!DOCTYPE svg PUBLIC "-//W3C//DTD SVG 1.1//EN"
  "http://www.w3.org/Graphics/SVG/1.1/DTD/svg11.dtd">
<!-- Created with matplotlib (http://matplotlib.org/) -->
<svg height="345.6pt" version="1.1" viewBox="0 0 460.8 345.6" width="460.8pt" xmlns="http://www.w3.org/2000/svg" xmlns:xlink="http://www.w3.org/1999/xlink">
 <defs>
  <style type="text/css">
*{stroke-linecap:butt;stroke-linejoin:round;}
  </style>
 </defs>
 <g id="figure_1">
  <g id="patch_1">
   <path d="M 0 345.6 
L 460.8 345.6 
L 460.8 0 
L 0 0 
z
" style="fill:#ffffff;"/>
  </g>
  <g id="axes_1">
   <g id="patch_2">
    <path d="M 57.6 307.584 
L 414.72 307.584 
L 414.72 41.472 
L 57.6 41.472 
z
" style="fill:#ffffff;"/>
   </g>
   <g id="PathCollection_1">
    <defs>
     <path d="M 0 0.612372 
C 0.162403 0.612372 0.318176 0.547849 0.433013 0.433013 
C 0.547849 0.318176 0.612372 0.162403 0.612372 0 
C 0.612372 -0.162403 0.547849 -0.318176 0.433013 -0.433013 
C 0.318176 -0.547849 0.162403 -0.612372 0 -0.612372 
C -0.162403 -0.612372 -0.318176 -0.547849 -0.433013 -0.433013 
C -0.547849 -0.318176 -0.612372 -0.162403 -0.612372 0 
C -0.612372 0.162403 -0.547849 0.318176 -0.433013 0.433013 
C -0.318176 0.547849 -0.162403 0.612372 0 0.612372 
z
" id="m48700b3d64" style="stroke:#000000;"/>
    </defs>
    <g clip-path="url(#pe19268a4b6)">
     <use style="stroke:#000000;" x="216.9724" xlink:href="#m48700b3d64" y="173.850149"/>
     <use style="stroke:#000000;" x="217.531684" xlink:href="#m48700b3d64" y="173.953791"/>
     <use style="stroke:#000000;" x="216.846498" xlink:href="#m48700b3d64" y="184.553558"/>
     <use style="stroke:#000000;" x="218.827672" xlink:href="#m48700b3d64" y="174.881226"/>
     <use style="stroke:#000000;" x="218.519637" xlink:href="#m48700b3d64" y="174.739153"/>
     <use style="stroke:#000000;" x="215.487832" xlink:href="#m48700b3d64" y="189.383317"/>
     <use style="stroke:#000000;" x="214.787534" xlink:href="#m48700b3d64" y="184.927072"/>
     <use style="stroke:#000000;" x="219.123791" xlink:href="#m48700b3d64" y="185.826684"/>
     <use style="stroke:#000000;" x="216.483363" xlink:href="#m48700b3d64" y="186.791872"/>
     <use style="stroke:#000000;" x="218.714066" xlink:href="#m48700b3d64" y="173.703021"/>
     <use style="stroke:#000000;" x="221.735491" xlink:href="#m48700b3d64" y="174.133674"/>
     <use style="stroke:#000000;" x="220.017015" xlink:href="#m48700b3d64" y="174.445565"/>
     <use style="stroke:#000000;" x="216.721157" xlink:href="#m48700b3d64" y="174.482962"/>
     <use style="stroke:#000000;" x="216.535688" xlink:href="#m48700b3d64" y="187.40151"/>
     <use style="stroke:#000000;" x="227.564516" xlink:href="#m48700b3d64" y="174.651717"/>
     <use style="stroke:#000000;" x="226.779308" xlink:href="#m48700b3d64" y="175.173195"/>
     <use style="stroke:#000000;" x="216.809012" xlink:href="#m48700b3d64" y="175.527974"/>
     <use style="stroke:#000000;" x="217.973415" xlink:href="#m48700b3d64" y="173.91616"/>
     <use style="stroke:#000000;" x="216.479065" xlink:href="#m48700b3d64" y="174.209333"/>
     <use style="stroke:#000000;" x="216.683624" xlink:href="#m48700b3d64" y="184.478416"/>
     <use style="stroke:#000000;" x="217.108727" xlink:href="#m48700b3d64" y="173.819488"/>
     <use style="stroke:#000000;" x="217.977411" xlink:href="#m48700b3d64" y="174.600304"/>
     <use style="stroke:#000000;" x="218.286295" xlink:href="#m48700b3d64" y="174.323605"/>
     <use style="stroke:#000000;" x="218.093377" xlink:href="#m48700b3d64" y="174.058892"/>
     <use style="stroke:#000000;" x="218.472864" xlink:href="#m48700b3d64" y="174.890659"/>
     <use style="stroke:#000000;" x="219.947322" xlink:href="#m48700b3d64" y="174.769682"/>
     <use style="stroke:#000000;" x="216.858294" xlink:href="#m48700b3d64" y="174.702607"/>
     <use style="stroke:#000000;" x="218.778151" xlink:href="#m48700b3d64" y="174.39362"/>
     <use style="stroke:#000000;" x="215.708932" xlink:href="#m48700b3d64" y="189.902124"/>
     <use style="stroke:#000000;" x="215.585862" xlink:href="#m48700b3d64" y="184.132279"/>
     <use style="stroke:#000000;" x="220.77061" xlink:href="#m48700b3d64" y="174.294865"/>
     <use style="stroke:#000000;" x="216.065234" xlink:href="#m48700b3d64" y="186.358682"/>
     <use style="stroke:#000000;" x="217.700047" xlink:href="#m48700b3d64" y="188.054838"/>
     <use style="stroke:#000000;" x="225.247959" xlink:href="#m48700b3d64" y="174.429369"/>
     <use style="stroke:#000000;" x="224.051687" xlink:href="#m48700b3d64" y="174.154651"/>
     <use style="stroke:#000000;" x="217.933666" xlink:href="#m48700b3d64" y="185.255424"/>
     <use style="stroke:#000000;" x="217.561753" xlink:href="#m48700b3d64" y="174.056415"/>
     <use style="stroke:#000000;" x="218.368404" xlink:href="#m48700b3d64" y="174.180055"/>
     <use style="stroke:#000000;" x="215.71148" xlink:href="#m48700b3d64" y="188.127336"/>
     <use style="stroke:#000000;" x="218.814694" xlink:href="#m48700b3d64" y="174.629467"/>
     <use style="stroke:#000000;" x="232.427255" xlink:href="#m48700b3d64" y="173.718923"/>
     <use style="stroke:#000000;" x="228.095492" xlink:href="#m48700b3d64" y="174.532053"/>
     <use style="stroke:#000000;" x="222.849643" xlink:href="#m48700b3d64" y="174.726609"/>
     <use style="stroke:#000000;" x="217.376296" xlink:href="#m48700b3d64" y="186.538817"/>
     <use style="stroke:#000000;" x="219.217936" xlink:href="#m48700b3d64" y="174.62053"/>
     <use style="stroke:#000000;" x="215.975395" xlink:href="#m48700b3d64" y="188.721951"/>
     <use style="stroke:#000000;" x="217.016931" xlink:href="#m48700b3d64" y="175.067263"/>
     <use style="stroke:#000000;" x="216.402106" xlink:href="#m48700b3d64" y="174.615682"/>
     <use style="stroke:#000000;" x="216.659095" xlink:href="#m48700b3d64" y="175.436849"/>
     <use style="stroke:#000000;" x="216.534192" xlink:href="#m48700b3d64" y="174.66054"/>
     <use style="stroke:#000000;" x="217.463936" xlink:href="#m48700b3d64" y="174.29962"/>
     <use style="stroke:#000000;" x="217.258887" xlink:href="#m48700b3d64" y="188.204104"/>
     <use style="stroke:#000000;" x="215.979213" xlink:href="#m48700b3d64" y="175.049799"/>
     <use style="stroke:#000000;" x="226.13666" xlink:href="#m48700b3d64" y="175.253416"/>
     <use style="stroke:#000000;" x="215.079292" xlink:href="#m48700b3d64" y="186.069983"/>
     <use style="stroke:#000000;" x="215.495748" xlink:href="#m48700b3d64" y="188.2501"/>
     <use style="stroke:#000000;" x="216.182449" xlink:href="#m48700b3d64" y="189.686583"/>
     <use style="stroke:#000000;" x="216.60478" xlink:href="#m48700b3d64" y="187.939347"/>
     <use style="stroke:#000000;" x="216.621169" xlink:href="#m48700b3d64" y="188.803553"/>
     <use style="stroke:#000000;" x="215.953054" xlink:href="#m48700b3d64" y="188.725471"/>
     <use style="stroke:#000000;" x="216.355435" xlink:href="#m48700b3d64" y="169.01523"/>
     <use style="stroke:#000000;" x="215.085189" xlink:href="#m48700b3d64" y="173.106334"/>
     <use style="stroke:#000000;" x="217.944458" xlink:href="#m48700b3d64" y="174.582663"/>
     <use style="stroke:#000000;" x="217.735637" xlink:href="#m48700b3d64" y="174.135909"/>
     <use style="stroke:#000000;" x="217.374874" xlink:href="#m48700b3d64" y="173.792068"/>
     <use style="stroke:#000000;" x="204.654887" xlink:href="#m48700b3d64" y="185.648858"/>
     <use style="stroke:#000000;" x="208.366439" xlink:href="#m48700b3d64" y="172.931606"/>
     <use style="stroke:#000000;" x="220.461325" xlink:href="#m48700b3d64" y="164.443982"/>
     <use style="stroke:#000000;" x="224.267051" xlink:href="#m48700b3d64" y="195.421635"/>
     <use style="stroke:#000000;" x="203.694816" xlink:href="#m48700b3d64" y="177.970766"/>
     <use style="stroke:#000000;" x="229.493995" xlink:href="#m48700b3d64" y="191.61081"/>
     <use style="stroke:#000000;" x="222.515244" xlink:href="#m48700b3d64" y="186.458253"/>
     <use style="stroke:#000000;" x="201.409343" xlink:href="#m48700b3d64" y="169.645108"/>
     <use style="stroke:#000000;" x="222.90552" xlink:href="#m48700b3d64" y="181.948408"/>
     <use style="stroke:#000000;" x="212.263346" xlink:href="#m48700b3d64" y="163.977558"/>
     <use style="stroke:#000000;" x="217.326513" xlink:href="#m48700b3d64" y="172.090795"/>
     <use style="stroke:#000000;" x="207.951247" xlink:href="#m48700b3d64" y="181.960447"/>
     <use style="stroke:#000000;" x="225.251827" xlink:href="#m48700b3d64" y="173.044007"/>
     <use style="stroke:#000000;" x="222.24548" xlink:href="#m48700b3d64" y="173.541974"/>
     <use style="stroke:#000000;" x="205.70855" xlink:href="#m48700b3d64" y="171.975919"/>
     <use style="stroke:#000000;" x="218.67679" xlink:href="#m48700b3d64" y="171.368945"/>
     <use style="stroke:#000000;" x="205.857032" xlink:href="#m48700b3d64" y="167.694552"/>
     <use style="stroke:#000000;" x="224.891802" xlink:href="#m48700b3d64" y="184.635115"/>
     <use style="stroke:#000000;" x="218.741111" xlink:href="#m48700b3d64" y="164.787637"/>
     <use style="stroke:#000000;" x="223.264095" xlink:href="#m48700b3d64" y="173.556172"/>
     <use style="stroke:#000000;" x="219.989586" xlink:href="#m48700b3d64" y="177.819272"/>
     <use style="stroke:#000000;" x="224.314438" xlink:href="#m48700b3d64" y="172.692988"/>
     <use style="stroke:#000000;" x="208.795074" xlink:href="#m48700b3d64" y="164.103728"/>
     <use style="stroke:#000000;" x="217.926351" xlink:href="#m48700b3d64" y="176.237547"/>
     <use style="stroke:#000000;" x="222.378033" xlink:href="#m48700b3d64" y="170.763658"/>
     <use style="stroke:#000000;" x="216.364171" xlink:href="#m48700b3d64" y="171.748839"/>
     <use style="stroke:#000000;" x="218.438602" xlink:href="#m48700b3d64" y="179.113634"/>
     <use style="stroke:#000000;" x="223.42293" xlink:href="#m48700b3d64" y="170.178871"/>
     <use style="stroke:#000000;" x="212.308922" xlink:href="#m48700b3d64" y="173.324154"/>
     <use style="stroke:#000000;" x="215.298855" xlink:href="#m48700b3d64" y="173.561025"/>
     <use style="stroke:#000000;" x="220.298162" xlink:href="#m48700b3d64" y="175.87386"/>
     <use style="stroke:#000000;" x="223.098413" xlink:href="#m48700b3d64" y="181.101521"/>
     <use style="stroke:#000000;" x="219.287826" xlink:href="#m48700b3d64" y="175.878319"/>
     <use style="stroke:#000000;" x="218.377455" xlink:href="#m48700b3d64" y="193.249976"/>
     <use style="stroke:#000000;" x="227.674965" xlink:href="#m48700b3d64" y="185.268267"/>
     <use style="stroke:#000000;" x="215.892174" xlink:href="#m48700b3d64" y="183.421703"/>
     <use style="stroke:#000000;" x="203.455352" xlink:href="#m48700b3d64" y="180.12015"/>
     <use style="stroke:#000000;" x="227.837287" xlink:href="#m48700b3d64" y="177.268922"/>
     <use style="stroke:#000000;" x="221.275897" xlink:href="#m48700b3d64" y="174.851117"/>
     <use style="stroke:#000000;" x="212.672958" xlink:href="#m48700b3d64" y="187.137309"/>
     <use style="stroke:#000000;" x="214.210211" xlink:href="#m48700b3d64" y="186.765626"/>
     <use style="stroke:#000000;" x="210.529024" xlink:href="#m48700b3d64" y="184.275189"/>
     <use style="stroke:#000000;" x="224.365578" xlink:href="#m48700b3d64" y="186.488186"/>
     <use style="stroke:#000000;" x="219.950502" xlink:href="#m48700b3d64" y="176.887151"/>
     <use style="stroke:#000000;" x="222.665817" xlink:href="#m48700b3d64" y="168.860715"/>
     <use style="stroke:#000000;" x="232.688814" xlink:href="#m48700b3d64" y="170.86032"/>
     <use style="stroke:#000000;" x="222.691195" xlink:href="#m48700b3d64" y="176.952654"/>
     <use style="stroke:#000000;" x="220.705321" xlink:href="#m48700b3d64" y="187.025708"/>
     <use style="stroke:#000000;" x="222.96313" xlink:href="#m48700b3d64" y="184.189229"/>
     <use style="stroke:#000000;" x="218.982559" xlink:href="#m48700b3d64" y="171.855395"/>
     <use style="stroke:#000000;" x="218.384677" xlink:href="#m48700b3d64" y="175.855537"/>
     <use style="stroke:#000000;" x="220.98777" xlink:href="#m48700b3d64" y="177.983294"/>
     <use style="stroke:#000000;" x="216.03701" xlink:href="#m48700b3d64" y="174.213606"/>
     <use style="stroke:#000000;" x="215.517854" xlink:href="#m48700b3d64" y="191.01606"/>
     <use style="stroke:#000000;" x="219.564459" xlink:href="#m48700b3d64" y="187.178495"/>
     <use style="stroke:#000000;" x="223.412996" xlink:href="#m48700b3d64" y="173.657644"/>
     <use style="stroke:#000000;" x="218.988492" xlink:href="#m48700b3d64" y="174.754033"/>
     <use style="stroke:#000000;" x="225.192496" xlink:href="#m48700b3d64" y="174.860457"/>
     <use style="stroke:#000000;" x="231.130222" xlink:href="#m48700b3d64" y="170.347342"/>
     <use style="stroke:#000000;" x="228.948117" xlink:href="#m48700b3d64" y="174.665584"/>
     <use style="stroke:#000000;" x="227.327293" xlink:href="#m48700b3d64" y="172.742439"/>
     <use style="stroke:#000000;" x="231.925127" xlink:href="#m48700b3d64" y="173.482199"/>
     <use style="stroke:#000000;" x="221.946906" xlink:href="#m48700b3d64" y="172.559687"/>
     <use style="stroke:#000000;" x="220.02087" xlink:href="#m48700b3d64" y="178.042276"/>
     <use style="stroke:#000000;" x="220.785318" xlink:href="#m48700b3d64" y="173.552136"/>
     <use style="stroke:#000000;" x="215.109975" xlink:href="#m48700b3d64" y="189.09277"/>
     <use style="stroke:#000000;" x="213.013072" xlink:href="#m48700b3d64" y="185.006835"/>
     <use style="stroke:#000000;" x="219.120308" xlink:href="#m48700b3d64" y="185.98835"/>
     <use style="stroke:#000000;" x="217.365645" xlink:href="#m48700b3d64" y="174.764796"/>
     <use style="stroke:#000000;" x="219.765902" xlink:href="#m48700b3d64" y="173.470441"/>
     <use style="stroke:#000000;" x="219.701222" xlink:href="#m48700b3d64" y="173.676086"/>
     <use style="stroke:#000000;" x="216.293355" xlink:href="#m48700b3d64" y="185.657415"/>
     <use style="stroke:#000000;" x="217.543139" xlink:href="#m48700b3d64" y="188.966344"/>
     <use style="stroke:#000000;" x="215.498534" xlink:href="#m48700b3d64" y="189.925722"/>
     <use style="stroke:#000000;" x="217.759467" xlink:href="#m48700b3d64" y="176.196246"/>
     <use style="stroke:#000000;" x="217.824154" xlink:href="#m48700b3d64" y="175.683027"/>
     <use style="stroke:#000000;" x="218.849705" xlink:href="#m48700b3d64" y="176.009202"/>
     <use style="stroke:#000000;" x="217.262975" xlink:href="#m48700b3d64" y="174.958334"/>
     <use style="stroke:#000000;" x="216.44172" xlink:href="#m48700b3d64" y="174.942779"/>
     <use style="stroke:#000000;" x="217.959304" xlink:href="#m48700b3d64" y="174.415585"/>
     <use style="stroke:#000000;" x="216.954138" xlink:href="#m48700b3d64" y="175.390561"/>
     <use style="stroke:#000000;" x="218.435723" xlink:href="#m48700b3d64" y="175.822064"/>
     <use style="stroke:#000000;" x="216.385394" xlink:href="#m48700b3d64" y="175.23708"/>
     <use style="stroke:#000000;" x="217.420765" xlink:href="#m48700b3d64" y="175.253257"/>
     <use style="stroke:#000000;" x="219.465565" xlink:href="#m48700b3d64" y="176.906514"/>
     <use style="stroke:#000000;" x="220.197424" xlink:href="#m48700b3d64" y="177.479044"/>
     <use style="stroke:#000000;" x="218.542292" xlink:href="#m48700b3d64" y="171.684184"/>
     <use style="stroke:#000000;" x="219.898602" xlink:href="#m48700b3d64" y="174.277535"/>
     <use style="stroke:#000000;" x="217.319394" xlink:href="#m48700b3d64" y="173.4301"/>
     <use style="stroke:#000000;" x="214.0824" xlink:href="#m48700b3d64" y="190.285166"/>
     <use style="stroke:#000000;" x="217.659953" xlink:href="#m48700b3d64" y="185.846084"/>
     <use style="stroke:#000000;" x="217.712002" xlink:href="#m48700b3d64" y="186.012311"/>
     <use style="stroke:#000000;" x="217.443691" xlink:href="#m48700b3d64" y="172.916773"/>
     <use style="stroke:#000000;" x="215.470782" xlink:href="#m48700b3d64" y="177.623299"/>
     <use style="stroke:#000000;" x="215.443117" xlink:href="#m48700b3d64" y="173.852791"/>
     <use style="stroke:#000000;" x="227.132138" xlink:href="#m48700b3d64" y="172.651238"/>
     <use style="stroke:#000000;" x="226.638261" xlink:href="#m48700b3d64" y="177.828518"/>
     <use style="stroke:#000000;" x="228.039615" xlink:href="#m48700b3d64" y="173.289095"/>
     <use style="stroke:#000000;" x="217.477922" xlink:href="#m48700b3d64" y="187.416465"/>
     <use style="stroke:#000000;" x="210.208188" xlink:href="#m48700b3d64" y="182.701892"/>
     <use style="stroke:#000000;" x="217.094781" xlink:href="#m48700b3d64" y="186.265615"/>
     <use style="stroke:#000000;" x="212.890608" xlink:href="#m48700b3d64" y="188.822985"/>
     <use style="stroke:#000000;" x="216.506553" xlink:href="#m48700b3d64" y="189.926804"/>
     <use style="stroke:#000000;" x="216.818151" xlink:href="#m48700b3d64" y="187.872125"/>
     <use style="stroke:#000000;" x="214.782038" xlink:href="#m48700b3d64" y="187.67972"/>
     <use style="stroke:#000000;" x="217.194498" xlink:href="#m48700b3d64" y="187.537719"/>
     <use style="stroke:#000000;" x="218.325917" xlink:href="#m48700b3d64" y="189.329694"/>
     <use style="stroke:#000000;" x="212.705431" xlink:href="#m48700b3d64" y="185.380204"/>
     <use style="stroke:#000000;" x="218.839496" xlink:href="#m48700b3d64" y="187.766556"/>
     <use style="stroke:#000000;" x="217.724634" xlink:href="#m48700b3d64" y="185.845063"/>
     <use style="stroke:#000000;" x="217.626819" xlink:href="#m48700b3d64" y="188.604462"/>
     <use style="stroke:#000000;" x="214.601195" xlink:href="#m48700b3d64" y="187.723618"/>
     <use style="stroke:#000000;" x="215.227794" xlink:href="#m48700b3d64" y="189.291073"/>
     <use style="stroke:#000000;" x="213.36575" xlink:href="#m48700b3d64" y="189.211543"/>
     <use style="stroke:#000000;" x="215.46208" xlink:href="#m48700b3d64" y="188.601031"/>
     <use style="stroke:#000000;" x="216.18949" xlink:href="#m48700b3d64" y="189.83734"/>
    </g>
   </g>
   <g id="PathCollection_2">
    <defs>
     <path d="M 0 0.935414 
C 0.248075 0.935414 0.486022 0.836853 0.661438 0.661438 
C 0.836853 0.486022 0.935414 0.248075 0.935414 0 
C 0.935414 -0.248075 0.836853 -0.486022 0.661438 -0.661438 
C 0.486022 -0.836853 0.248075 -0.935414 0 -0.935414 
C -0.248075 -0.935414 -0.486022 -0.836853 -0.661438 -0.661438 
C -0.836853 -0.486022 -0.935414 -0.248075 -0.935414 0 
C -0.935414 0.248075 -0.836853 0.486022 -0.661438 0.661438 
C -0.486022 0.836853 -0.248075 0.935414 0 0.935414 
z
" id="ma068021c8c" style="stroke:#0000ff;"/>
    </defs>
    <g clip-path="url(#pe19268a4b6)">
     <use style="fill:#0000ff;stroke:#0000ff;" x="216.9724" xlink:href="#ma068021c8c" y="173.850149"/>
     <use style="fill:#0000ff;stroke:#0000ff;" x="217.531684" xlink:href="#ma068021c8c" y="173.953791"/>
     <use style="fill:#0000ff;stroke:#0000ff;" x="216.846498" xlink:href="#ma068021c8c" y="184.553558"/>
     <use style="fill:#0000ff;stroke:#0000ff;" x="218.827672" xlink:href="#ma068021c8c" y="174.881226"/>
     <use style="fill:#0000ff;stroke:#0000ff;" x="218.519637" xlink:href="#ma068021c8c" y="174.739153"/>
     <use style="fill:#0000ff;stroke:#0000ff;" x="215.487832" xlink:href="#ma068021c8c" y="189.383317"/>
     <use style="fill:#0000ff;stroke:#0000ff;" x="214.787534" xlink:href="#ma068021c8c" y="184.927072"/>
     <use style="fill:#0000ff;stroke:#0000ff;" x="219.123791" xlink:href="#ma068021c8c" y="185.826684"/>
     <use style="fill:#0000ff;stroke:#0000ff;" x="216.483363" xlink:href="#ma068021c8c" y="186.791872"/>
     <use style="fill:#0000ff;stroke:#0000ff;" x="218.714066" xlink:href="#ma068021c8c" y="173.703021"/>
     <use style="fill:#0000ff;stroke:#0000ff;" x="221.735491" xlink:href="#ma068021c8c" y="174.133674"/>
     <use style="fill:#0000ff;stroke:#0000ff;" x="220.017015" xlink:href="#ma068021c8c" y="174.445565"/>
     <use style="fill:#0000ff;stroke:#0000ff;" x="216.721157" xlink:href="#ma068021c8c" y="174.482962"/>
     <use style="fill:#0000ff;stroke:#0000ff;" x="216.535688" xlink:href="#ma068021c8c" y="187.40151"/>
     <use style="fill:#0000ff;stroke:#0000ff;" x="227.564516" xlink:href="#ma068021c8c" y="174.651717"/>
     <use style="fill:#0000ff;stroke:#0000ff;" x="226.779308" xlink:href="#ma068021c8c" y="175.173195"/>
     <use style="fill:#0000ff;stroke:#0000ff;" x="216.809012" xlink:href="#ma068021c8c" y="175.527974"/>
     <use style="fill:#0000ff;stroke:#0000ff;" x="217.973415" xlink:href="#ma068021c8c" y="173.91616"/>
     <use style="fill:#0000ff;stroke:#0000ff;" x="216.479065" xlink:href="#ma068021c8c" y="174.209333"/>
     <use style="fill:#0000ff;stroke:#0000ff;" x="216.683624" xlink:href="#ma068021c8c" y="184.478416"/>
     <use style="fill:#0000ff;stroke:#0000ff;" x="217.108727" xlink:href="#ma068021c8c" y="173.819488"/>
     <use style="fill:#0000ff;stroke:#0000ff;" x="217.977411" xlink:href="#ma068021c8c" y="174.600304"/>
     <use style="fill:#0000ff;stroke:#0000ff;" x="218.286295" xlink:href="#ma068021c8c" y="174.323605"/>
     <use style="fill:#0000ff;stroke:#0000ff;" x="218.093377" xlink:href="#ma068021c8c" y="174.058892"/>
     <use style="fill:#0000ff;stroke:#0000ff;" x="218.472864" xlink:href="#ma068021c8c" y="174.890659"/>
     <use style="fill:#0000ff;stroke:#0000ff;" x="219.947322" xlink:href="#ma068021c8c" y="174.769682"/>
     <use style="fill:#0000ff;stroke:#0000ff;" x="216.858294" xlink:href="#ma068021c8c" y="174.702607"/>
     <use style="fill:#0000ff;stroke:#0000ff;" x="218.778151" xlink:href="#ma068021c8c" y="174.39362"/>
     <use style="fill:#0000ff;stroke:#0000ff;" x="215.708932" xlink:href="#ma068021c8c" y="189.902124"/>
     <use style="fill:#0000ff;stroke:#0000ff;" x="215.585862" xlink:href="#ma068021c8c" y="184.132279"/>
     <use style="fill:#0000ff;stroke:#0000ff;" x="220.77061" xlink:href="#ma068021c8c" y="174.294865"/>
     <use style="fill:#0000ff;stroke:#0000ff;" x="216.065234" xlink:href="#ma068021c8c" y="186.358682"/>
     <use style="fill:#0000ff;stroke:#0000ff;" x="217.700047" xlink:href="#ma068021c8c" y="188.054838"/>
     <use style="fill:#0000ff;stroke:#0000ff;" x="225.247959" xlink:href="#ma068021c8c" y="174.429369"/>
     <use style="fill:#0000ff;stroke:#0000ff;" x="224.051687" xlink:href="#ma068021c8c" y="174.154651"/>
     <use style="fill:#0000ff;stroke:#0000ff;" x="217.933666" xlink:href="#ma068021c8c" y="185.255424"/>
     <use style="fill:#0000ff;stroke:#0000ff;" x="217.561753" xlink:href="#ma068021c8c" y="174.056415"/>
     <use style="fill:#0000ff;stroke:#0000ff;" x="218.368404" xlink:href="#ma068021c8c" y="174.180055"/>
     <use style="fill:#0000ff;stroke:#0000ff;" x="215.71148" xlink:href="#ma068021c8c" y="188.127336"/>
     <use style="fill:#0000ff;stroke:#0000ff;" x="218.814694" xlink:href="#ma068021c8c" y="174.629467"/>
     <use style="fill:#0000ff;stroke:#0000ff;" x="232.427255" xlink:href="#ma068021c8c" y="173.718923"/>
     <use style="fill:#0000ff;stroke:#0000ff;" x="228.095492" xlink:href="#ma068021c8c" y="174.532053"/>
     <use style="fill:#0000ff;stroke:#0000ff;" x="222.849643" xlink:href="#ma068021c8c" y="174.726609"/>
     <use style="fill:#0000ff;stroke:#0000ff;" x="217.376296" xlink:href="#ma068021c8c" y="186.538817"/>
     <use style="fill:#0000ff;stroke:#0000ff;" x="219.217936" xlink:href="#ma068021c8c" y="174.62053"/>
     <use style="fill:#0000ff;stroke:#0000ff;" x="215.975395" xlink:href="#ma068021c8c" y="188.721951"/>
     <use style="fill:#0000ff;stroke:#0000ff;" x="217.016931" xlink:href="#ma068021c8c" y="175.067263"/>
     <use style="fill:#0000ff;stroke:#0000ff;" x="216.402106" xlink:href="#ma068021c8c" y="174.615682"/>
     <use style="fill:#0000ff;stroke:#0000ff;" x="216.659095" xlink:href="#ma068021c8c" y="175.436849"/>
     <use style="fill:#0000ff;stroke:#0000ff;" x="216.534192" xlink:href="#ma068021c8c" y="174.66054"/>
     <use style="fill:#0000ff;stroke:#0000ff;" x="217.463936" xlink:href="#ma068021c8c" y="174.29962"/>
     <use style="fill:#0000ff;stroke:#0000ff;" x="217.258887" xlink:href="#ma068021c8c" y="188.204104"/>
     <use style="fill:#0000ff;stroke:#0000ff;" x="215.979213" xlink:href="#ma068021c8c" y="175.049799"/>
     <use style="fill:#0000ff;stroke:#0000ff;" x="226.13666" xlink:href="#ma068021c8c" y="175.253416"/>
     <use style="fill:#0000ff;stroke:#0000ff;" x="215.079292" xlink:href="#ma068021c8c" y="186.069983"/>
     <use style="fill:#0000ff;stroke:#0000ff;" x="215.495748" xlink:href="#ma068021c8c" y="188.2501"/>
     <use style="fill:#0000ff;stroke:#0000ff;" x="216.182449" xlink:href="#ma068021c8c" y="189.686583"/>
     <use style="fill:#0000ff;stroke:#0000ff;" x="216.60478" xlink:href="#ma068021c8c" y="187.939347"/>
     <use style="fill:#0000ff;stroke:#0000ff;" x="216.621169" xlink:href="#ma068021c8c" y="188.803553"/>
     <use style="fill:#0000ff;stroke:#0000ff;" x="215.953054" xlink:href="#ma068021c8c" y="188.725471"/>
    </g>
   </g>
   <g id="matplotlib.axis_1">
    <g id="xtick_1">
     <g id="line2d_1">
      <defs>
       <path d="M 0 0 
L 0 3.5 
" id="m8494251b7b" style="stroke:#000000;stroke-width:0.8;"/>
      </defs>
      <g>
       <use style="stroke:#000000;stroke-width:0.8;" x="57.6" xlink:href="#m8494251b7b" y="307.584"/>
      </g>
     </g>
     <g id="text_1">
      <!-- −10.0 -->
      <defs>
       <path d="M 10.59375 35.5 
L 73.1875 35.5 
L 73.1875 27.203125 
L 10.59375 27.203125 
z
" id="DejaVuSans-2212"/>
       <path d="M 12.40625 8.296875 
L 28.515625 8.296875 
L 28.515625 63.921875 
L 10.984375 60.40625 
L 10.984375 69.390625 
L 28.421875 72.90625 
L 38.28125 72.90625 
L 38.28125 8.296875 
L 54.390625 8.296875 
L 54.390625 0 
L 12.40625 0 
z
" id="DejaVuSans-31"/>
       <path d="M 31.78125 66.40625 
Q 24.171875 66.40625 20.328125 58.90625 
Q 16.5 51.421875 16.5 36.375 
Q 16.5 21.390625 20.328125 13.890625 
Q 24.171875 6.390625 31.78125 6.390625 
Q 39.453125 6.390625 43.28125 13.890625 
Q 47.125 21.390625 47.125 36.375 
Q 47.125 51.421875 43.28125 58.90625 
Q 39.453125 66.40625 31.78125 66.40625 
z
M 31.78125 74.21875 
Q 44.046875 74.21875 50.515625 64.515625 
Q 56.984375 54.828125 56.984375 36.375 
Q 56.984375 17.96875 50.515625 8.265625 
Q 44.046875 -1.421875 31.78125 -1.421875 
Q 19.53125 -1.421875 13.0625 8.265625 
Q 6.59375 17.96875 6.59375 36.375 
Q 6.59375 54.828125 13.0625 64.515625 
Q 19.53125 74.21875 31.78125 74.21875 
z
" id="DejaVuSans-30"/>
       <path d="M 10.6875 12.40625 
L 21 12.40625 
L 21 0 
L 10.6875 0 
z
" id="DejaVuSans-2e"/>
      </defs>
      <g transform="translate(42.277344 322.182437)scale(0.1 -0.1)">
       <use xlink:href="#DejaVuSans-2212"/>
       <use x="83.789062" xlink:href="#DejaVuSans-31"/>
       <use x="147.412109" xlink:href="#DejaVuSans-30"/>
       <use x="211.035156" xlink:href="#DejaVuSans-2e"/>
       <use x="242.822266" xlink:href="#DejaVuSans-30"/>
      </g>
     </g>
    </g>
    <g id="xtick_2">
     <g id="line2d_2">
      <g>
       <use style="stroke:#000000;stroke-width:0.8;" x="102.24" xlink:href="#m8494251b7b" y="307.584"/>
      </g>
     </g>
     <g id="text_2">
      <!-- −7.5 -->
      <defs>
       <path d="M 8.203125 72.90625 
L 55.078125 72.90625 
L 55.078125 68.703125 
L 28.609375 0 
L 18.3125 0 
L 43.21875 64.59375 
L 8.203125 64.59375 
z
" id="DejaVuSans-37"/>
       <path d="M 10.796875 72.90625 
L 49.515625 72.90625 
L 49.515625 64.59375 
L 19.828125 64.59375 
L 19.828125 46.734375 
Q 21.96875 47.46875 24.109375 47.828125 
Q 26.265625 48.1875 28.421875 48.1875 
Q 40.625 48.1875 47.75 41.5 
Q 54.890625 34.8125 54.890625 23.390625 
Q 54.890625 11.625 47.5625 5.09375 
Q 40.234375 -1.421875 26.90625 -1.421875 
Q 22.3125 -1.421875 17.546875 -0.640625 
Q 12.796875 0.140625 7.71875 1.703125 
L 7.71875 11.625 
Q 12.109375 9.234375 16.796875 8.0625 
Q 21.484375 6.890625 26.703125 6.890625 
Q 35.15625 6.890625 40.078125 11.328125 
Q 45.015625 15.765625 45.015625 23.390625 
Q 45.015625 31 40.078125 35.4375 
Q 35.15625 39.890625 26.703125 39.890625 
Q 22.75 39.890625 18.8125 39.015625 
Q 14.890625 38.140625 10.796875 36.28125 
z
" id="DejaVuSans-35"/>
      </defs>
      <g transform="translate(90.098594 322.182437)scale(0.1 -0.1)">
       <use xlink:href="#DejaVuSans-2212"/>
       <use x="83.789062" xlink:href="#DejaVuSans-37"/>
       <use x="147.412109" xlink:href="#DejaVuSans-2e"/>
       <use x="179.199219" xlink:href="#DejaVuSans-35"/>
      </g>
     </g>
    </g>
    <g id="xtick_3">
     <g id="line2d_3">
      <g>
       <use style="stroke:#000000;stroke-width:0.8;" x="146.88" xlink:href="#m8494251b7b" y="307.584"/>
      </g>
     </g>
     <g id="text_3">
      <!-- −5.0 -->
      <g transform="translate(134.738594 322.182437)scale(0.1 -0.1)">
       <use xlink:href="#DejaVuSans-2212"/>
       <use x="83.789062" xlink:href="#DejaVuSans-35"/>
       <use x="147.412109" xlink:href="#DejaVuSans-2e"/>
       <use x="179.199219" xlink:href="#DejaVuSans-30"/>
      </g>
     </g>
    </g>
    <g id="xtick_4">
     <g id="line2d_4">
      <g>
       <use style="stroke:#000000;stroke-width:0.8;" x="191.52" xlink:href="#m8494251b7b" y="307.584"/>
      </g>
     </g>
     <g id="text_4">
      <!-- −2.5 -->
      <defs>
       <path d="M 19.1875 8.296875 
L 53.609375 8.296875 
L 53.609375 0 
L 7.328125 0 
L 7.328125 8.296875 
Q 12.9375 14.109375 22.625 23.890625 
Q 32.328125 33.6875 34.8125 36.53125 
Q 39.546875 41.84375 41.421875 45.53125 
Q 43.3125 49.21875 43.3125 52.78125 
Q 43.3125 58.59375 39.234375 62.25 
Q 35.15625 65.921875 28.609375 65.921875 
Q 23.96875 65.921875 18.8125 64.3125 
Q 13.671875 62.703125 7.8125 59.421875 
L 7.8125 69.390625 
Q 13.765625 71.78125 18.9375 73 
Q 24.125 74.21875 28.421875 74.21875 
Q 39.75 74.21875 46.484375 68.546875 
Q 53.21875 62.890625 53.21875 53.421875 
Q 53.21875 48.921875 51.53125 44.890625 
Q 49.859375 40.875 45.40625 35.40625 
Q 44.1875 33.984375 37.640625 27.21875 
Q 31.109375 20.453125 19.1875 8.296875 
z
" id="DejaVuSans-32"/>
      </defs>
      <g transform="translate(179.378594 322.182437)scale(0.1 -0.1)">
       <use xlink:href="#DejaVuSans-2212"/>
       <use x="83.789062" xlink:href="#DejaVuSans-32"/>
       <use x="147.412109" xlink:href="#DejaVuSans-2e"/>
       <use x="179.199219" xlink:href="#DejaVuSans-35"/>
      </g>
     </g>
    </g>
    <g id="xtick_5">
     <g id="line2d_5">
      <g>
       <use style="stroke:#000000;stroke-width:0.8;" x="236.16" xlink:href="#m8494251b7b" y="307.584"/>
      </g>
     </g>
     <g id="text_5">
      <!-- 0.0 -->
      <g transform="translate(228.208438 322.182437)scale(0.1 -0.1)">
       <use xlink:href="#DejaVuSans-30"/>
       <use x="63.623047" xlink:href="#DejaVuSans-2e"/>
       <use x="95.410156" xlink:href="#DejaVuSans-30"/>
      </g>
     </g>
    </g>
    <g id="xtick_6">
     <g id="line2d_6">
      <g>
       <use style="stroke:#000000;stroke-width:0.8;" x="280.8" xlink:href="#m8494251b7b" y="307.584"/>
      </g>
     </g>
     <g id="text_6">
      <!-- 2.5 -->
      <g transform="translate(272.848437 322.182437)scale(0.1 -0.1)">
       <use xlink:href="#DejaVuSans-32"/>
       <use x="63.623047" xlink:href="#DejaVuSans-2e"/>
       <use x="95.410156" xlink:href="#DejaVuSans-35"/>
      </g>
     </g>
    </g>
    <g id="xtick_7">
     <g id="line2d_7">
      <g>
       <use style="stroke:#000000;stroke-width:0.8;" x="325.44" xlink:href="#m8494251b7b" y="307.584"/>
      </g>
     </g>
     <g id="text_7">
      <!-- 5.0 -->
      <g transform="translate(317.488437 322.182437)scale(0.1 -0.1)">
       <use xlink:href="#DejaVuSans-35"/>
       <use x="63.623047" xlink:href="#DejaVuSans-2e"/>
       <use x="95.410156" xlink:href="#DejaVuSans-30"/>
      </g>
     </g>
    </g>
    <g id="xtick_8">
     <g id="line2d_8">
      <g>
       <use style="stroke:#000000;stroke-width:0.8;" x="370.08" xlink:href="#m8494251b7b" y="307.584"/>
      </g>
     </g>
     <g id="text_8">
      <!-- 7.5 -->
      <g transform="translate(362.128438 322.182437)scale(0.1 -0.1)">
       <use xlink:href="#DejaVuSans-37"/>
       <use x="63.623047" xlink:href="#DejaVuSans-2e"/>
       <use x="95.410156" xlink:href="#DejaVuSans-35"/>
      </g>
     </g>
    </g>
    <g id="xtick_9">
     <g id="line2d_9">
      <g>
       <use style="stroke:#000000;stroke-width:0.8;" x="414.72" xlink:href="#m8494251b7b" y="307.584"/>
      </g>
     </g>
     <g id="text_9">
      <!-- 10.0 -->
      <g transform="translate(403.587188 322.182437)scale(0.1 -0.1)">
       <use xlink:href="#DejaVuSans-31"/>
       <use x="63.623047" xlink:href="#DejaVuSans-30"/>
       <use x="127.246094" xlink:href="#DejaVuSans-2e"/>
       <use x="159.033203" xlink:href="#DejaVuSans-30"/>
      </g>
     </g>
    </g>
   </g>
   <g id="matplotlib.axis_2">
    <g id="ytick_1">
     <g id="line2d_10">
      <defs>
       <path d="M 0 0 
L -3.5 0 
" id="ma85e5aab63" style="stroke:#000000;stroke-width:0.8;"/>
      </defs>
      <g>
       <use style="stroke:#000000;stroke-width:0.8;" x="57.6" xlink:href="#ma85e5aab63" y="307.584"/>
      </g>
     </g>
     <g id="text_10">
      <!-- −10.0 -->
      <g transform="translate(19.954687 311.383219)scale(0.1 -0.1)">
       <use xlink:href="#DejaVuSans-2212"/>
       <use x="83.789062" xlink:href="#DejaVuSans-31"/>
       <use x="147.412109" xlink:href="#DejaVuSans-30"/>
       <use x="211.035156" xlink:href="#DejaVuSans-2e"/>
       <use x="242.822266" xlink:href="#DejaVuSans-30"/>
      </g>
     </g>
    </g>
    <g id="ytick_2">
     <g id="line2d_11">
      <g>
       <use style="stroke:#000000;stroke-width:0.8;" x="57.6" xlink:href="#ma85e5aab63" y="274.32"/>
      </g>
     </g>
     <g id="text_11">
      <!-- −7.5 -->
      <g transform="translate(26.317187 278.119219)scale(0.1 -0.1)">
       <use xlink:href="#DejaVuSans-2212"/>
       <use x="83.789062" xlink:href="#DejaVuSans-37"/>
       <use x="147.412109" xlink:href="#DejaVuSans-2e"/>
       <use x="179.199219" xlink:href="#DejaVuSans-35"/>
      </g>
     </g>
    </g>
    <g id="ytick_3">
     <g id="line2d_12">
      <g>
       <use style="stroke:#000000;stroke-width:0.8;" x="57.6" xlink:href="#ma85e5aab63" y="241.056"/>
      </g>
     </g>
     <g id="text_12">
      <!-- −5.0 -->
      <g transform="translate(26.317187 244.855219)scale(0.1 -0.1)">
       <use xlink:href="#DejaVuSans-2212"/>
       <use x="83.789062" xlink:href="#DejaVuSans-35"/>
       <use x="147.412109" xlink:href="#DejaVuSans-2e"/>
       <use x="179.199219" xlink:href="#DejaVuSans-30"/>
      </g>
     </g>
    </g>
    <g id="ytick_4">
     <g id="line2d_13">
      <g>
       <use style="stroke:#000000;stroke-width:0.8;" x="57.6" xlink:href="#ma85e5aab63" y="207.792"/>
      </g>
     </g>
     <g id="text_13">
      <!-- −2.5 -->
      <g transform="translate(26.317187 211.591219)scale(0.1 -0.1)">
       <use xlink:href="#DejaVuSans-2212"/>
       <use x="83.789062" xlink:href="#DejaVuSans-32"/>
       <use x="147.412109" xlink:href="#DejaVuSans-2e"/>
       <use x="179.199219" xlink:href="#DejaVuSans-35"/>
      </g>
     </g>
    </g>
    <g id="ytick_5">
     <g id="line2d_14">
      <g>
       <use style="stroke:#000000;stroke-width:0.8;" x="57.6" xlink:href="#ma85e5aab63" y="174.528"/>
      </g>
     </g>
     <g id="text_14">
      <!-- 0.0 -->
      <g transform="translate(34.696875 178.327219)scale(0.1 -0.1)">
       <use xlink:href="#DejaVuSans-30"/>
       <use x="63.623047" xlink:href="#DejaVuSans-2e"/>
       <use x="95.410156" xlink:href="#DejaVuSans-30"/>
      </g>
     </g>
    </g>
    <g id="ytick_6">
     <g id="line2d_15">
      <g>
       <use style="stroke:#000000;stroke-width:0.8;" x="57.6" xlink:href="#ma85e5aab63" y="141.264"/>
      </g>
     </g>
     <g id="text_15">
      <!-- 2.5 -->
      <g transform="translate(34.696875 145.063219)scale(0.1 -0.1)">
       <use xlink:href="#DejaVuSans-32"/>
       <use x="63.623047" xlink:href="#DejaVuSans-2e"/>
       <use x="95.410156" xlink:href="#DejaVuSans-35"/>
      </g>
     </g>
    </g>
    <g id="ytick_7">
     <g id="line2d_16">
      <g>
       <use style="stroke:#000000;stroke-width:0.8;" x="57.6" xlink:href="#ma85e5aab63" y="108"/>
      </g>
     </g>
     <g id="text_16">
      <!-- 5.0 -->
      <g transform="translate(34.696875 111.799219)scale(0.1 -0.1)">
       <use xlink:href="#DejaVuSans-35"/>
       <use x="63.623047" xlink:href="#DejaVuSans-2e"/>
       <use x="95.410156" xlink:href="#DejaVuSans-30"/>
      </g>
     </g>
    </g>
    <g id="ytick_8">
     <g id="line2d_17">
      <g>
       <use style="stroke:#000000;stroke-width:0.8;" x="57.6" xlink:href="#ma85e5aab63" y="74.736"/>
      </g>
     </g>
     <g id="text_17">
      <!-- 7.5 -->
      <g transform="translate(34.696875 78.535219)scale(0.1 -0.1)">
       <use xlink:href="#DejaVuSans-37"/>
       <use x="63.623047" xlink:href="#DejaVuSans-2e"/>
       <use x="95.410156" xlink:href="#DejaVuSans-35"/>
      </g>
     </g>
    </g>
    <g id="ytick_9">
     <g id="line2d_18">
      <g>
       <use style="stroke:#000000;stroke-width:0.8;" x="57.6" xlink:href="#ma85e5aab63" y="41.472"/>
      </g>
     </g>
     <g id="text_18">
      <!-- 10.0 -->
      <g transform="translate(28.334375 45.271219)scale(0.1 -0.1)">
       <use xlink:href="#DejaVuSans-31"/>
       <use x="63.623047" xlink:href="#DejaVuSans-30"/>
       <use x="127.246094" xlink:href="#DejaVuSans-2e"/>
       <use x="159.033203" xlink:href="#DejaVuSans-30"/>
      </g>
     </g>
    </g>
   </g>
   <g id="patch_3">
    <path d="M 57.6 307.584 
L 57.6 41.472 
" style="fill:none;stroke:#000000;stroke-linecap:square;stroke-linejoin:miter;stroke-width:0.8;"/>
   </g>
   <g id="patch_4">
    <path d="M 414.72 307.584 
L 414.72 41.472 
" style="fill:none;stroke:#000000;stroke-linecap:square;stroke-linejoin:miter;stroke-width:0.8;"/>
   </g>
   <g id="patch_5">
    <path d="M 57.6 307.584 
L 414.72 307.584 
" style="fill:none;stroke:#000000;stroke-linecap:square;stroke-linejoin:miter;stroke-width:0.8;"/>
   </g>
   <g id="patch_6">
    <path d="M 57.6 41.472 
L 414.72 41.472 
" style="fill:none;stroke:#000000;stroke-linecap:square;stroke-linejoin:miter;stroke-width:0.8;"/>
   </g>
  </g>
 </g>
 <defs>
  <clipPath id="pe19268a4b6">
   <rect height="266.112" width="357.12" x="57.6" y="41.472"/>
  </clipPath>
 </defs>
</svg>
