<?xml version="1.0" encoding="utf-8" standalone="no"?>
<!DOCTYPE svg PUBLIC "-//W3C//DTD SVG 1.1//EN"
  "http://www.w3.org/Graphics/SVG/1.1/DTD/svg11.dtd">
<!-- Created with matplotlib (http://matplotlib.org/) -->
<svg height="345.6pt" version="1.1" viewBox="0 0 460.8 345.6" width="460.8pt" xmlns="http://www.w3.org/2000/svg" xmlns:xlink="http://www.w3.org/1999/xlink">
 <defs>
  <style type="text/css">
*{stroke-linecap:butt;stroke-linejoin:round;}
  </style>
 </defs>
 <g id="figure_1">
  <g id="patch_1">
   <path d="M 0 345.6 
L 460.8 345.6 
L 460.8 0 
L 0 0 
z
" style="fill:#ffffff;"/>
  </g>
  <g id="axes_1">
   <g id="patch_2">
    <path d="M 57.6 307.584 
L 414.72 307.584 
L 414.72 41.472 
L 57.6 41.472 
z
" style="fill:#ffffff;"/>
   </g>
   <g id="PathCollection_1">
    <defs>
     <path d="M 0 0.612372 
C 0.162403 0.612372 0.318176 0.547849 0.433013 0.433013 
C 0.547849 0.318176 0.612372 0.162403 0.612372 0 
C 0.612372 -0.162403 0.547849 -0.318176 0.433013 -0.433013 
C 0.318176 -0.547849 0.162403 -0.612372 0 -0.612372 
C -0.162403 -0.612372 -0.318176 -0.547849 -0.433013 -0.433013 
C -0.547849 -0.318176 -0.612372 -0.162403 -0.612372 0 
C -0.612372 0.162403 -0.547849 0.318176 -0.433013 0.433013 
C -0.318176 0.547849 -0.162403 0.612372 0 0.612372 
z
" id="m2f1c8efba5" style="stroke:#000000;"/>
    </defs>
    <g clip-path="url(#p9972f2fa9f)">
     <use style="stroke:#000000;" x="247.12699" xlink:href="#m2f1c8efba5" y="174.373269"/>
     <use style="stroke:#000000;" x="236.995584" xlink:href="#m2f1c8efba5" y="174.510189"/>
     <use style="stroke:#000000;" x="251.003309" xlink:href="#m2f1c8efba5" y="174.528"/>
     <use style="stroke:#000000;" x="251.141996" xlink:href="#m2f1c8efba5" y="174.528"/>
     <use style="stroke:#000000;" x="247.200178" xlink:href="#m2f1c8efba5" y="174.443949"/>
     <use style="stroke:#000000;" x="251.342737" xlink:href="#m2f1c8efba5" y="173.956388"/>
     <use style="stroke:#000000;" x="247.07633" xlink:href="#m2f1c8efba5" y="174.528"/>
     <use style="stroke:#000000;" x="236.390971" xlink:href="#m2f1c8efba5" y="174.518694"/>
     <use style="stroke:#000000;" x="251.446715" xlink:href="#m2f1c8efba5" y="173.993748"/>
     <use style="stroke:#000000;" x="251.080346" xlink:href="#m2f1c8efba5" y="174.528"/>
     <use style="stroke:#000000;" x="236.897072" xlink:href="#m2f1c8efba5" y="174.528"/>
     <use style="stroke:#000000;" x="250.978939" xlink:href="#m2f1c8efba5" y="174.207247"/>
     <use style="stroke:#000000;" x="251.102325" xlink:href="#m2f1c8efba5" y="174.528"/>
     <use style="stroke:#000000;" x="247.445939" xlink:href="#m2f1c8efba5" y="174.528"/>
     <use style="stroke:#000000;" x="247.308121" xlink:href="#m2f1c8efba5" y="174.432607"/>
     <use style="stroke:#000000;" x="237.003559" xlink:href="#m2f1c8efba5" y="174.508088"/>
     <use style="stroke:#000000;" x="240.053199" xlink:href="#m2f1c8efba5" y="174.528"/>
     <use style="stroke:#000000;" x="240.035931" xlink:href="#m2f1c8efba5" y="174.528"/>
     <use style="stroke:#000000;" x="247.461014" xlink:href="#m2f1c8efba5" y="174.528"/>
     <use style="stroke:#000000;" x="239.906489" xlink:href="#m2f1c8efba5" y="174.313971"/>
     <use style="stroke:#000000;" x="236.328832" xlink:href="#m2f1c8efba5" y="174.528"/>
     <use style="stroke:#000000;" x="236.510527" xlink:href="#m2f1c8efba5" y="174.528"/>
     <use style="stroke:#000000;" x="236.341063" xlink:href="#m2f1c8efba5" y="174.528"/>
     <use style="stroke:#000000;" x="247.626386" xlink:href="#m2f1c8efba5" y="174.250754"/>
     <use style="stroke:#000000;" x="247.395167" xlink:href="#m2f1c8efba5" y="174.327451"/>
     <use style="stroke:#000000;" x="247.322774" xlink:href="#m2f1c8efba5" y="174.30923"/>
     <use style="stroke:#000000;" x="237.338693" xlink:href="#m2f1c8efba5" y="174.242282"/>
     <use style="stroke:#000000;" x="247.130148" xlink:href="#m2f1c8efba5" y="174.403559"/>
     <use style="stroke:#000000;" x="247.118705" xlink:href="#m2f1c8efba5" y="174.400608"/>
     <use style="stroke:#000000;" x="240.619826" xlink:href="#m2f1c8efba5" y="174.222312"/>
     <use style="stroke:#000000;" x="240.217207" xlink:href="#m2f1c8efba5" y="174.412849"/>
     <use style="stroke:#000000;" x="239.757782" xlink:href="#m2f1c8efba5" y="174.094327"/>
     <use style="stroke:#000000;" x="236.335651" xlink:href="#m2f1c8efba5" y="174.528"/>
     <use style="stroke:#000000;" x="236.633114" xlink:href="#m2f1c8efba5" y="174.488094"/>
     <use style="stroke:#000000;" x="236.498523" xlink:href="#m2f1c8efba5" y="174.528"/>
     <use style="stroke:#000000;" x="237.341825" xlink:href="#m2f1c8efba5" y="174.260325"/>
     <use style="stroke:#000000;" x="240.730493" xlink:href="#m2f1c8efba5" y="174.282267"/>
     <use style="stroke:#000000;" x="247.387105" xlink:href="#m2f1c8efba5" y="174.30119"/>
     <use style="stroke:#000000;" x="247.581897" xlink:href="#m2f1c8efba5" y="174.528"/>
     <use style="stroke:#000000;" x="247.22948" xlink:href="#m2f1c8efba5" y="174.528"/>
     <use style="stroke:#000000;" x="236.762574" xlink:href="#m2f1c8efba5" y="174.528"/>
     <use style="stroke:#000000;" x="236.16" xlink:href="#m2f1c8efba5" y="174.31093"/>
     <use style="stroke:#000000;" x="239.700732" xlink:href="#m2f1c8efba5" y="174.438094"/>
     <use style="stroke:#000000;" x="240.692692" xlink:href="#m2f1c8efba5" y="174.528"/>
     <use style="stroke:#000000;" x="236.653517" xlink:href="#m2f1c8efba5" y="174.387126"/>
     <use style="stroke:#000000;" x="236.903943" xlink:href="#m2f1c8efba5" y="174.528"/>
     <use style="stroke:#000000;" x="247.168942" xlink:href="#m2f1c8efba5" y="174.513405"/>
     <use style="stroke:#000000;" x="240.118504" xlink:href="#m2f1c8efba5" y="174.528"/>
     <use style="stroke:#000000;" x="239.86423" xlink:href="#m2f1c8efba5" y="174.528"/>
     <use style="stroke:#000000;" x="237.262864" xlink:href="#m2f1c8efba5" y="174.420415"/>
     <use style="stroke:#000000;" x="236.975168" xlink:href="#m2f1c8efba5" y="174.503293"/>
     <use style="stroke:#000000;" x="247.093617" xlink:href="#m2f1c8efba5" y="174.396467"/>
     <use style="stroke:#000000;" x="236.394515" xlink:href="#m2f1c8efba5" y="174.410079"/>
     <use style="stroke:#000000;" x="236.28948" xlink:href="#m2f1c8efba5" y="174.291916"/>
     <use style="stroke:#000000;" x="236.199337" xlink:href="#m2f1c8efba5" y="174.366628"/>
     <use style="stroke:#000000;" x="240.517661" xlink:href="#m2f1c8efba5" y="174.337309"/>
     <use style="stroke:#000000;" x="239.613504" xlink:href="#m2f1c8efba5" y="174.455625"/>
     <use style="stroke:#000000;" x="247.298944" xlink:href="#m2f1c8efba5" y="174.165927"/>
     <use style="stroke:#000000;" x="237.299097" xlink:href="#m2f1c8efba5" y="174.440603"/>
     <use style="stroke:#000000;" x="247.249171" xlink:href="#m2f1c8efba5" y="174.528"/>
     <use style="stroke:#000000;" x="247.132438" xlink:href="#m2f1c8efba5" y="174.385646"/>
     <use style="stroke:#000000;" x="247.14039" xlink:href="#m2f1c8efba5" y="174.397437"/>
     <use style="stroke:#000000;" x="247.110746" xlink:href="#m2f1c8efba5" y="174.348435"/>
     <use style="stroke:#000000;" x="237.054163" xlink:href="#m2f1c8efba5" y="173.829067"/>
     <use style="stroke:#000000;" x="249.877295" xlink:href="#m2f1c8efba5" y="174.528"/>
     <use style="stroke:#000000;" x="250.344497" xlink:href="#m2f1c8efba5" y="173.391816"/>
     <use style="stroke:#000000;" x="247.099394" xlink:href="#m2f1c8efba5" y="174.299036"/>
     <use style="stroke:#000000;" x="251.396721" xlink:href="#m2f1c8efba5" y="172.972751"/>
     <use style="stroke:#000000;" x="248.086735" xlink:href="#m2f1c8efba5" y="173.92356"/>
     <use style="stroke:#000000;" x="236.61806" xlink:href="#m2f1c8efba5" y="173.711174"/>
     <use style="stroke:#000000;" x="251.18122" xlink:href="#m2f1c8efba5" y="174.435809"/>
     <use style="stroke:#000000;" x="251.065558" xlink:href="#m2f1c8efba5" y="174.372505"/>
     <use style="stroke:#000000;" x="236.533508" xlink:href="#m2f1c8efba5" y="174.528"/>
     <use style="stroke:#000000;" x="250.936584" xlink:href="#m2f1c8efba5" y="174.528"/>
     <use style="stroke:#000000;" x="251.120961" xlink:href="#m2f1c8efba5" y="174.509659"/>
     <use style="stroke:#000000;" x="247.254602" xlink:href="#m2f1c8efba5" y="174.528"/>
     <use style="stroke:#000000;" x="246.778708" xlink:href="#m2f1c8efba5" y="174.399029"/>
     <use style="stroke:#000000;" x="236.563312" xlink:href="#m2f1c8efba5" y="174.318642"/>
     <use style="stroke:#000000;" x="239.686504" xlink:href="#m2f1c8efba5" y="174.528"/>
     <use style="stroke:#000000;" x="240.393653" xlink:href="#m2f1c8efba5" y="174.528"/>
     <use style="stroke:#000000;" x="246.955194" xlink:href="#m2f1c8efba5" y="174.351152"/>
     <use style="stroke:#000000;" x="239.985008" xlink:href="#m2f1c8efba5" y="174.51387"/>
     <use style="stroke:#000000;" x="239.890743" xlink:href="#m2f1c8efba5" y="174.152307"/>
     <use style="stroke:#000000;" x="236.679892" xlink:href="#m2f1c8efba5" y="174.528"/>
     <use style="stroke:#000000;" x="236.16" xlink:href="#m2f1c8efba5" y="174.528"/>
     <use style="stroke:#000000;" x="236.827834" xlink:href="#m2f1c8efba5" y="174.348464"/>
     <use style="stroke:#000000;" x="236.223841" xlink:href="#m2f1c8efba5" y="173.880979"/>
     <use style="stroke:#000000;" x="236.400013" xlink:href="#m2f1c8efba5" y="174.528"/>
     <use style="stroke:#000000;" x="247.625189" xlink:href="#m2f1c8efba5" y="174.38315"/>
     <use style="stroke:#000000;" x="247.093946" xlink:href="#m2f1c8efba5" y="174.115688"/>
     <use style="stroke:#000000;" x="247.38018" xlink:href="#m2f1c8efba5" y="174.528"/>
     <use style="stroke:#000000;" x="247.75294" xlink:href="#m2f1c8efba5" y="174.405216"/>
     <use style="stroke:#000000;" x="247.672805" xlink:href="#m2f1c8efba5" y="174.493093"/>
     <use style="stroke:#000000;" x="237.470286" xlink:href="#m2f1c8efba5" y="174.528"/>
     <use style="stroke:#000000;" x="237.308739" xlink:href="#m2f1c8efba5" y="174.513283"/>
     <use style="stroke:#000000;" x="247.020957" xlink:href="#m2f1c8efba5" y="174.415004"/>
     <use style="stroke:#000000;" x="247.141399" xlink:href="#m2f1c8efba5" y="174.280563"/>
     <use style="stroke:#000000;" x="247.377705" xlink:href="#m2f1c8efba5" y="174.293789"/>
     <use style="stroke:#000000;" x="247.297069" xlink:href="#m2f1c8efba5" y="174.329483"/>
     <use style="stroke:#000000;" x="240.745114" xlink:href="#m2f1c8efba5" y="174.210884"/>
     <use style="stroke:#000000;" x="240.478739" xlink:href="#m2f1c8efba5" y="174.11602"/>
     <use style="stroke:#000000;" x="239.887576" xlink:href="#m2f1c8efba5" y="174.433898"/>
     <use style="stroke:#000000;" x="240.016787" xlink:href="#m2f1c8efba5" y="174.476782"/>
     <use style="stroke:#000000;" x="239.659342" xlink:href="#m2f1c8efba5" y="174.14977"/>
     <use style="stroke:#000000;" x="239.605473" xlink:href="#m2f1c8efba5" y="174.15149"/>
     <use style="stroke:#000000;" x="236.648858" xlink:href="#m2f1c8efba5" y="174.528"/>
     <use style="stroke:#000000;" x="236.16" xlink:href="#m2f1c8efba5" y="174.366284"/>
     <use style="stroke:#000000;" x="236.718413" xlink:href="#m2f1c8efba5" y="174.518706"/>
     <use style="stroke:#000000;" x="237.021325" xlink:href="#m2f1c8efba5" y="174.528"/>
     <use style="stroke:#000000;" x="236.671993" xlink:href="#m2f1c8efba5" y="174.382723"/>
     <use style="stroke:#000000;" x="236.374425" xlink:href="#m2f1c8efba5" y="174.528"/>
     <use style="stroke:#000000;" x="237.408332" xlink:href="#m2f1c8efba5" y="174.122928"/>
     <use style="stroke:#000000;" x="237.531964" xlink:href="#m2f1c8efba5" y="173.953767"/>
     <use style="stroke:#000000;" x="240.930136" xlink:href="#m2f1c8efba5" y="174.301392"/>
     <use style="stroke:#000000;" x="240.547511" xlink:href="#m2f1c8efba5" y="174.302227"/>
     <use style="stroke:#000000;" x="247.258047" xlink:href="#m2f1c8efba5" y="174.211858"/>
     <use style="stroke:#000000;" x="247.361511" xlink:href="#m2f1c8efba5" y="174.29934"/>
     <use style="stroke:#000000;" x="247.591152" xlink:href="#m2f1c8efba5" y="174.094575"/>
     <use style="stroke:#000000;" x="247.618849" xlink:href="#m2f1c8efba5" y="174.46928"/>
     <use style="stroke:#000000;" x="247.793086" xlink:href="#m2f1c8efba5" y="174.528"/>
     <use style="stroke:#000000;" x="247.322084" xlink:href="#m2f1c8efba5" y="174.528"/>
     <use style="stroke:#000000;" x="247.216342" xlink:href="#m2f1c8efba5" y="174.528"/>
     <use style="stroke:#000000;" x="247.210005" xlink:href="#m2f1c8efba5" y="174.489961"/>
     <use style="stroke:#000000;" x="247.217594" xlink:href="#m2f1c8efba5" y="174.528"/>
     <use style="stroke:#000000;" x="236.761512" xlink:href="#m2f1c8efba5" y="174.528"/>
     <use style="stroke:#000000;" x="236.82798" xlink:href="#m2f1c8efba5" y="174.479285"/>
     <use style="stroke:#000000;" x="236.781063" xlink:href="#m2f1c8efba5" y="174.493863"/>
     <use style="stroke:#000000;" x="236.16" xlink:href="#m2f1c8efba5" y="174.305696"/>
     <use style="stroke:#000000;" x="236.169637" xlink:href="#m2f1c8efba5" y="174.255631"/>
     <use style="stroke:#000000;" x="236.16" xlink:href="#m2f1c8efba5" y="174.321722"/>
     <use style="stroke:#000000;" x="239.798974" xlink:href="#m2f1c8efba5" y="174.528"/>
     <use style="stroke:#000000;" x="239.610699" xlink:href="#m2f1c8efba5" y="174.524805"/>
     <use style="stroke:#000000;" x="239.584446" xlink:href="#m2f1c8efba5" y="174.399561"/>
     <use style="stroke:#000000;" x="240.524194" xlink:href="#m2f1c8efba5" y="174.479801"/>
     <use style="stroke:#000000;" x="240.809627" xlink:href="#m2f1c8efba5" y="174.477958"/>
     <use style="stroke:#000000;" x="240.57626" xlink:href="#m2f1c8efba5" y="174.437203"/>
     <use style="stroke:#000000;" x="236.697084" xlink:href="#m2f1c8efba5" y="174.380263"/>
     <use style="stroke:#000000;" x="236.562496" xlink:href="#m2f1c8efba5" y="174.39609"/>
     <use style="stroke:#000000;" x="236.710056" xlink:href="#m2f1c8efba5" y="174.398115"/>
     <use style="stroke:#000000;" x="236.811052" xlink:href="#m2f1c8efba5" y="174.364641"/>
     <use style="stroke:#000000;" x="236.929506" xlink:href="#m2f1c8efba5" y="174.528"/>
     <use style="stroke:#000000;" x="237.000158" xlink:href="#m2f1c8efba5" y="174.470381"/>
     <use style="stroke:#000000;" x="247.129802" xlink:href="#m2f1c8efba5" y="174.528"/>
     <use style="stroke:#000000;" x="247.156614" xlink:href="#m2f1c8efba5" y="174.440976"/>
     <use style="stroke:#000000;" x="247.189156" xlink:href="#m2f1c8efba5" y="174.528"/>
     <use style="stroke:#000000;" x="240.173628" xlink:href="#m2f1c8efba5" y="174.528"/>
     <use style="stroke:#000000;" x="240.114546" xlink:href="#m2f1c8efba5" y="174.486029"/>
     <use style="stroke:#000000;" x="240.084343" xlink:href="#m2f1c8efba5" y="174.527088"/>
     <use style="stroke:#000000;" x="239.837615" xlink:href="#m2f1c8efba5" y="174.528"/>
     <use style="stroke:#000000;" x="239.858375" xlink:href="#m2f1c8efba5" y="174.528"/>
     <use style="stroke:#000000;" x="239.777383" xlink:href="#m2f1c8efba5" y="174.528"/>
     <use style="stroke:#000000;" x="237.317777" xlink:href="#m2f1c8efba5" y="174.457804"/>
     <use style="stroke:#000000;" x="237.205357" xlink:href="#m2f1c8efba5" y="174.408282"/>
     <use style="stroke:#000000;" x="237.254251" xlink:href="#m2f1c8efba5" y="174.427266"/>
     <use style="stroke:#000000;" x="237.007599" xlink:href="#m2f1c8efba5" y="174.485823"/>
     <use style="stroke:#000000;" x="236.970426" xlink:href="#m2f1c8efba5" y="174.464328"/>
     <use style="stroke:#000000;" x="237.028852" xlink:href="#m2f1c8efba5" y="174.461951"/>
     <use style="stroke:#000000;" x="247.110244" xlink:href="#m2f1c8efba5" y="174.432141"/>
     <use style="stroke:#000000;" x="247.095968" xlink:href="#m2f1c8efba5" y="174.362196"/>
     <use style="stroke:#000000;" x="247.047127" xlink:href="#m2f1c8efba5" y="174.415391"/>
     <use style="stroke:#000000;" x="236.191077" xlink:href="#m2f1c8efba5" y="174.528"/>
     <use style="stroke:#000000;" x="236.62476" xlink:href="#m2f1c8efba5" y="174.45442"/>
     <use style="stroke:#000000;" x="236.591255" xlink:href="#m2f1c8efba5" y="174.321815"/>
     <use style="stroke:#000000;" x="236.211208" xlink:href="#m2f1c8efba5" y="174.189983"/>
     <use style="stroke:#000000;" x="236.16" xlink:href="#m2f1c8efba5" y="174.243916"/>
     <use style="stroke:#000000;" x="236.291017" xlink:href="#m2f1c8efba5" y="174.193097"/>
     <use style="stroke:#000000;" x="236.16" xlink:href="#m2f1c8efba5" y="174.258368"/>
     <use style="stroke:#000000;" x="236.16" xlink:href="#m2f1c8efba5" y="174.289696"/>
     <use style="stroke:#000000;" x="236.16" xlink:href="#m2f1c8efba5" y="174.425257"/>
     <use style="stroke:#000000;" x="240.458259" xlink:href="#m2f1c8efba5" y="174.327755"/>
     <use style="stroke:#000000;" x="240.637627" xlink:href="#m2f1c8efba5" y="174.322848"/>
     <use style="stroke:#000000;" x="239.853531" xlink:href="#m2f1c8efba5" y="174.417216"/>
     <use style="stroke:#000000;" x="239.690853" xlink:href="#m2f1c8efba5" y="174.397671"/>
     <use style="stroke:#000000;" x="247.339402" xlink:href="#m2f1c8efba5" y="174.036336"/>
     <use style="stroke:#000000;" x="247.285743" xlink:href="#m2f1c8efba5" y="174.023584"/>
     <use style="stroke:#000000;" x="237.374084" xlink:href="#m2f1c8efba5" y="174.483944"/>
     <use style="stroke:#000000;" x="237.153115" xlink:href="#m2f1c8efba5" y="174.485917"/>
     <use style="stroke:#000000;" x="247.232339" xlink:href="#m2f1c8efba5" y="174.496571"/>
     <use style="stroke:#000000;" x="247.25663" xlink:href="#m2f1c8efba5" y="174.528"/>
     <use style="stroke:#000000;" x="247.216125" xlink:href="#m2f1c8efba5" y="174.528"/>
     <use style="stroke:#000000;" x="247.245712" xlink:href="#m2f1c8efba5" y="174.528"/>
    </g>
   </g>
   <g id="PathCollection_2">
    <defs>
     <path d="M 0 0.935414 
C 0.248075 0.935414 0.486022 0.836853 0.661438 0.661438 
C 0.836853 0.486022 0.935414 0.248075 0.935414 0 
C 0.935414 -0.248075 0.836853 -0.486022 0.661438 -0.661438 
C 0.486022 -0.836853 0.248075 -0.935414 0 -0.935414 
C -0.248075 -0.935414 -0.486022 -0.836853 -0.661438 -0.661438 
C -0.836853 -0.486022 -0.935414 -0.248075 -0.935414 0 
C -0.935414 0.248075 -0.836853 0.486022 -0.661438 0.661438 
C -0.486022 0.836853 -0.248075 0.935414 0 0.935414 
z
" id="md69acd8352" style="stroke:#0000ff;"/>
    </defs>
    <g clip-path="url(#p9972f2fa9f)">
     <use style="fill:#0000ff;stroke:#0000ff;" x="247.12699" xlink:href="#md69acd8352" y="174.373269"/>
     <use style="fill:#0000ff;stroke:#0000ff;" x="236.995584" xlink:href="#md69acd8352" y="174.510189"/>
     <use style="fill:#0000ff;stroke:#0000ff;" x="251.003309" xlink:href="#md69acd8352" y="174.528"/>
     <use style="fill:#0000ff;stroke:#0000ff;" x="251.141996" xlink:href="#md69acd8352" y="174.528"/>
     <use style="fill:#0000ff;stroke:#0000ff;" x="247.200178" xlink:href="#md69acd8352" y="174.443949"/>
     <use style="fill:#0000ff;stroke:#0000ff;" x="251.342737" xlink:href="#md69acd8352" y="173.956388"/>
     <use style="fill:#0000ff;stroke:#0000ff;" x="247.07633" xlink:href="#md69acd8352" y="174.528"/>
     <use style="fill:#0000ff;stroke:#0000ff;" x="236.390971" xlink:href="#md69acd8352" y="174.518694"/>
     <use style="fill:#0000ff;stroke:#0000ff;" x="251.446715" xlink:href="#md69acd8352" y="173.993748"/>
     <use style="fill:#0000ff;stroke:#0000ff;" x="251.080346" xlink:href="#md69acd8352" y="174.528"/>
     <use style="fill:#0000ff;stroke:#0000ff;" x="236.897072" xlink:href="#md69acd8352" y="174.528"/>
     <use style="fill:#0000ff;stroke:#0000ff;" x="250.978939" xlink:href="#md69acd8352" y="174.207247"/>
     <use style="fill:#0000ff;stroke:#0000ff;" x="251.102325" xlink:href="#md69acd8352" y="174.528"/>
     <use style="fill:#0000ff;stroke:#0000ff;" x="247.445939" xlink:href="#md69acd8352" y="174.528"/>
     <use style="fill:#0000ff;stroke:#0000ff;" x="247.308121" xlink:href="#md69acd8352" y="174.432607"/>
     <use style="fill:#0000ff;stroke:#0000ff;" x="237.003559" xlink:href="#md69acd8352" y="174.508088"/>
     <use style="fill:#0000ff;stroke:#0000ff;" x="240.053199" xlink:href="#md69acd8352" y="174.528"/>
     <use style="fill:#0000ff;stroke:#0000ff;" x="240.035931" xlink:href="#md69acd8352" y="174.528"/>
     <use style="fill:#0000ff;stroke:#0000ff;" x="247.461014" xlink:href="#md69acd8352" y="174.528"/>
     <use style="fill:#0000ff;stroke:#0000ff;" x="239.906489" xlink:href="#md69acd8352" y="174.313971"/>
     <use style="fill:#0000ff;stroke:#0000ff;" x="236.328832" xlink:href="#md69acd8352" y="174.528"/>
     <use style="fill:#0000ff;stroke:#0000ff;" x="236.510527" xlink:href="#md69acd8352" y="174.528"/>
     <use style="fill:#0000ff;stroke:#0000ff;" x="236.341063" xlink:href="#md69acd8352" y="174.528"/>
     <use style="fill:#0000ff;stroke:#0000ff;" x="247.626386" xlink:href="#md69acd8352" y="174.250754"/>
     <use style="fill:#0000ff;stroke:#0000ff;" x="247.395167" xlink:href="#md69acd8352" y="174.327451"/>
     <use style="fill:#0000ff;stroke:#0000ff;" x="247.322774" xlink:href="#md69acd8352" y="174.30923"/>
     <use style="fill:#0000ff;stroke:#0000ff;" x="237.338693" xlink:href="#md69acd8352" y="174.242282"/>
     <use style="fill:#0000ff;stroke:#0000ff;" x="247.130148" xlink:href="#md69acd8352" y="174.403559"/>
     <use style="fill:#0000ff;stroke:#0000ff;" x="247.118705" xlink:href="#md69acd8352" y="174.400608"/>
     <use style="fill:#0000ff;stroke:#0000ff;" x="240.619826" xlink:href="#md69acd8352" y="174.222312"/>
     <use style="fill:#0000ff;stroke:#0000ff;" x="240.217207" xlink:href="#md69acd8352" y="174.412849"/>
     <use style="fill:#0000ff;stroke:#0000ff;" x="239.757782" xlink:href="#md69acd8352" y="174.094327"/>
     <use style="fill:#0000ff;stroke:#0000ff;" x="236.335651" xlink:href="#md69acd8352" y="174.528"/>
     <use style="fill:#0000ff;stroke:#0000ff;" x="236.633114" xlink:href="#md69acd8352" y="174.488094"/>
     <use style="fill:#0000ff;stroke:#0000ff;" x="236.498523" xlink:href="#md69acd8352" y="174.528"/>
     <use style="fill:#0000ff;stroke:#0000ff;" x="237.341825" xlink:href="#md69acd8352" y="174.260325"/>
     <use style="fill:#0000ff;stroke:#0000ff;" x="240.730493" xlink:href="#md69acd8352" y="174.282267"/>
     <use style="fill:#0000ff;stroke:#0000ff;" x="247.387105" xlink:href="#md69acd8352" y="174.30119"/>
     <use style="fill:#0000ff;stroke:#0000ff;" x="247.581897" xlink:href="#md69acd8352" y="174.528"/>
     <use style="fill:#0000ff;stroke:#0000ff;" x="247.22948" xlink:href="#md69acd8352" y="174.528"/>
     <use style="fill:#0000ff;stroke:#0000ff;" x="236.762574" xlink:href="#md69acd8352" y="174.528"/>
     <use style="fill:#0000ff;stroke:#0000ff;" x="236.16" xlink:href="#md69acd8352" y="174.31093"/>
     <use style="fill:#0000ff;stroke:#0000ff;" x="239.700732" xlink:href="#md69acd8352" y="174.438094"/>
     <use style="fill:#0000ff;stroke:#0000ff;" x="240.692692" xlink:href="#md69acd8352" y="174.528"/>
     <use style="fill:#0000ff;stroke:#0000ff;" x="236.653517" xlink:href="#md69acd8352" y="174.387126"/>
     <use style="fill:#0000ff;stroke:#0000ff;" x="236.903943" xlink:href="#md69acd8352" y="174.528"/>
     <use style="fill:#0000ff;stroke:#0000ff;" x="247.168942" xlink:href="#md69acd8352" y="174.513405"/>
     <use style="fill:#0000ff;stroke:#0000ff;" x="240.118504" xlink:href="#md69acd8352" y="174.528"/>
     <use style="fill:#0000ff;stroke:#0000ff;" x="239.86423" xlink:href="#md69acd8352" y="174.528"/>
     <use style="fill:#0000ff;stroke:#0000ff;" x="237.262864" xlink:href="#md69acd8352" y="174.420415"/>
     <use style="fill:#0000ff;stroke:#0000ff;" x="236.975168" xlink:href="#md69acd8352" y="174.503293"/>
     <use style="fill:#0000ff;stroke:#0000ff;" x="247.093617" xlink:href="#md69acd8352" y="174.396467"/>
     <use style="fill:#0000ff;stroke:#0000ff;" x="236.394515" xlink:href="#md69acd8352" y="174.410079"/>
     <use style="fill:#0000ff;stroke:#0000ff;" x="236.28948" xlink:href="#md69acd8352" y="174.291916"/>
     <use style="fill:#0000ff;stroke:#0000ff;" x="236.199337" xlink:href="#md69acd8352" y="174.366628"/>
     <use style="fill:#0000ff;stroke:#0000ff;" x="240.517661" xlink:href="#md69acd8352" y="174.337309"/>
     <use style="fill:#0000ff;stroke:#0000ff;" x="239.613504" xlink:href="#md69acd8352" y="174.455625"/>
     <use style="fill:#0000ff;stroke:#0000ff;" x="247.298944" xlink:href="#md69acd8352" y="174.165927"/>
     <use style="fill:#0000ff;stroke:#0000ff;" x="237.299097" xlink:href="#md69acd8352" y="174.440603"/>
     <use style="fill:#0000ff;stroke:#0000ff;" x="247.249171" xlink:href="#md69acd8352" y="174.528"/>
    </g>
   </g>
   <g id="matplotlib.axis_1">
    <g id="xtick_1">
     <g id="line2d_1">
      <defs>
       <path d="M 0 0 
L 0 3.5 
" id="m35b4f92e30" style="stroke:#000000;stroke-width:0.8;"/>
      </defs>
      <g>
       <use style="stroke:#000000;stroke-width:0.8;" x="57.6" xlink:href="#m35b4f92e30" y="307.584"/>
      </g>
     </g>
     <g id="text_1">
      <!-- −10.0 -->
      <defs>
       <path d="M 10.59375 35.5 
L 73.1875 35.5 
L 73.1875 27.203125 
L 10.59375 27.203125 
z
" id="DejaVuSans-2212"/>
       <path d="M 12.40625 8.296875 
L 28.515625 8.296875 
L 28.515625 63.921875 
L 10.984375 60.40625 
L 10.984375 69.390625 
L 28.421875 72.90625 
L 38.28125 72.90625 
L 38.28125 8.296875 
L 54.390625 8.296875 
L 54.390625 0 
L 12.40625 0 
z
" id="DejaVuSans-31"/>
       <path d="M 31.78125 66.40625 
Q 24.171875 66.40625 20.328125 58.90625 
Q 16.5 51.421875 16.5 36.375 
Q 16.5 21.390625 20.328125 13.890625 
Q 24.171875 6.390625 31.78125 6.390625 
Q 39.453125 6.390625 43.28125 13.890625 
Q 47.125 21.390625 47.125 36.375 
Q 47.125 51.421875 43.28125 58.90625 
Q 39.453125 66.40625 31.78125 66.40625 
z
M 31.78125 74.21875 
Q 44.046875 74.21875 50.515625 64.515625 
Q 56.984375 54.828125 56.984375 36.375 
Q 56.984375 17.96875 50.515625 8.265625 
Q 44.046875 -1.421875 31.78125 -1.421875 
Q 19.53125 -1.421875 13.0625 8.265625 
Q 6.59375 17.96875 6.59375 36.375 
Q 6.59375 54.828125 13.0625 64.515625 
Q 19.53125 74.21875 31.78125 74.21875 
z
" id="DejaVuSans-30"/>
       <path d="M 10.6875 12.40625 
L 21 12.40625 
L 21 0 
L 10.6875 0 
z
" id="DejaVuSans-2e"/>
      </defs>
      <g transform="translate(42.277344 322.182437)scale(0.1 -0.1)">
       <use xlink:href="#DejaVuSans-2212"/>
       <use x="83.789062" xlink:href="#DejaVuSans-31"/>
       <use x="147.412109" xlink:href="#DejaVuSans-30"/>
       <use x="211.035156" xlink:href="#DejaVuSans-2e"/>
       <use x="242.822266" xlink:href="#DejaVuSans-30"/>
      </g>
     </g>
    </g>
    <g id="xtick_2">
     <g id="line2d_2">
      <g>
       <use style="stroke:#000000;stroke-width:0.8;" x="102.24" xlink:href="#m35b4f92e30" y="307.584"/>
      </g>
     </g>
     <g id="text_2">
      <!-- −7.5 -->
      <defs>
       <path d="M 8.203125 72.90625 
L 55.078125 72.90625 
L 55.078125 68.703125 
L 28.609375 0 
L 18.3125 0 
L 43.21875 64.59375 
L 8.203125 64.59375 
z
" id="DejaVuSans-37"/>
       <path d="M 10.796875 72.90625 
L 49.515625 72.90625 
L 49.515625 64.59375 
L 19.828125 64.59375 
L 19.828125 46.734375 
Q 21.96875 47.46875 24.109375 47.828125 
Q 26.265625 48.1875 28.421875 48.1875 
Q 40.625 48.1875 47.75 41.5 
Q 54.890625 34.8125 54.890625 23.390625 
Q 54.890625 11.625 47.5625 5.09375 
Q 40.234375 -1.421875 26.90625 -1.421875 
Q 22.3125 -1.421875 17.546875 -0.640625 
Q 12.796875 0.140625 7.71875 1.703125 
L 7.71875 11.625 
Q 12.109375 9.234375 16.796875 8.0625 
Q 21.484375 6.890625 26.703125 6.890625 
Q 35.15625 6.890625 40.078125 11.328125 
Q 45.015625 15.765625 45.015625 23.390625 
Q 45.015625 31 40.078125 35.4375 
Q 35.15625 39.890625 26.703125 39.890625 
Q 22.75 39.890625 18.8125 39.015625 
Q 14.890625 38.140625 10.796875 36.28125 
z
" id="DejaVuSans-35"/>
      </defs>
      <g transform="translate(90.098594 322.182437)scale(0.1 -0.1)">
       <use xlink:href="#DejaVuSans-2212"/>
       <use x="83.789062" xlink:href="#DejaVuSans-37"/>
       <use x="147.412109" xlink:href="#DejaVuSans-2e"/>
       <use x="179.199219" xlink:href="#DejaVuSans-35"/>
      </g>
     </g>
    </g>
    <g id="xtick_3">
     <g id="line2d_3">
      <g>
       <use style="stroke:#000000;stroke-width:0.8;" x="146.88" xlink:href="#m35b4f92e30" y="307.584"/>
      </g>
     </g>
     <g id="text_3">
      <!-- −5.0 -->
      <g transform="translate(134.738594 322.182437)scale(0.1 -0.1)">
       <use xlink:href="#DejaVuSans-2212"/>
       <use x="83.789062" xlink:href="#DejaVuSans-35"/>
       <use x="147.412109" xlink:href="#DejaVuSans-2e"/>
       <use x="179.199219" xlink:href="#DejaVuSans-30"/>
      </g>
     </g>
    </g>
    <g id="xtick_4">
     <g id="line2d_4">
      <g>
       <use style="stroke:#000000;stroke-width:0.8;" x="191.52" xlink:href="#m35b4f92e30" y="307.584"/>
      </g>
     </g>
     <g id="text_4">
      <!-- −2.5 -->
      <defs>
       <path d="M 19.1875 8.296875 
L 53.609375 8.296875 
L 53.609375 0 
L 7.328125 0 
L 7.328125 8.296875 
Q 12.9375 14.109375 22.625 23.890625 
Q 32.328125 33.6875 34.8125 36.53125 
Q 39.546875 41.84375 41.421875 45.53125 
Q 43.3125 49.21875 43.3125 52.78125 
Q 43.3125 58.59375 39.234375 62.25 
Q 35.15625 65.921875 28.609375 65.921875 
Q 23.96875 65.921875 18.8125 64.3125 
Q 13.671875 62.703125 7.8125 59.421875 
L 7.8125 69.390625 
Q 13.765625 71.78125 18.9375 73 
Q 24.125 74.21875 28.421875 74.21875 
Q 39.75 74.21875 46.484375 68.546875 
Q 53.21875 62.890625 53.21875 53.421875 
Q 53.21875 48.921875 51.53125 44.890625 
Q 49.859375 40.875 45.40625 35.40625 
Q 44.1875 33.984375 37.640625 27.21875 
Q 31.109375 20.453125 19.1875 8.296875 
z
" id="DejaVuSans-32"/>
      </defs>
      <g transform="translate(179.378594 322.182437)scale(0.1 -0.1)">
       <use xlink:href="#DejaVuSans-2212"/>
       <use x="83.789062" xlink:href="#DejaVuSans-32"/>
       <use x="147.412109" xlink:href="#DejaVuSans-2e"/>
       <use x="179.199219" xlink:href="#DejaVuSans-35"/>
      </g>
     </g>
    </g>
    <g id="xtick_5">
     <g id="line2d_5">
      <g>
       <use style="stroke:#000000;stroke-width:0.8;" x="236.16" xlink:href="#m35b4f92e30" y="307.584"/>
      </g>
     </g>
     <g id="text_5">
      <!-- 0.0 -->
      <g transform="translate(228.208438 322.182437)scale(0.1 -0.1)">
       <use xlink:href="#DejaVuSans-30"/>
       <use x="63.623047" xlink:href="#DejaVuSans-2e"/>
       <use x="95.410156" xlink:href="#DejaVuSans-30"/>
      </g>
     </g>
    </g>
    <g id="xtick_6">
     <g id="line2d_6">
      <g>
       <use style="stroke:#000000;stroke-width:0.8;" x="280.8" xlink:href="#m35b4f92e30" y="307.584"/>
      </g>
     </g>
     <g id="text_6">
      <!-- 2.5 -->
      <g transform="translate(272.848437 322.182437)scale(0.1 -0.1)">
       <use xlink:href="#DejaVuSans-32"/>
       <use x="63.623047" xlink:href="#DejaVuSans-2e"/>
       <use x="95.410156" xlink:href="#DejaVuSans-35"/>
      </g>
     </g>
    </g>
    <g id="xtick_7">
     <g id="line2d_7">
      <g>
       <use style="stroke:#000000;stroke-width:0.8;" x="325.44" xlink:href="#m35b4f92e30" y="307.584"/>
      </g>
     </g>
     <g id="text_7">
      <!-- 5.0 -->
      <g transform="translate(317.488437 322.182437)scale(0.1 -0.1)">
       <use xlink:href="#DejaVuSans-35"/>
       <use x="63.623047" xlink:href="#DejaVuSans-2e"/>
       <use x="95.410156" xlink:href="#DejaVuSans-30"/>
      </g>
     </g>
    </g>
    <g id="xtick_8">
     <g id="line2d_8">
      <g>
       <use style="stroke:#000000;stroke-width:0.8;" x="370.08" xlink:href="#m35b4f92e30" y="307.584"/>
      </g>
     </g>
     <g id="text_8">
      <!-- 7.5 -->
      <g transform="translate(362.128438 322.182437)scale(0.1 -0.1)">
       <use xlink:href="#DejaVuSans-37"/>
       <use x="63.623047" xlink:href="#DejaVuSans-2e"/>
       <use x="95.410156" xlink:href="#DejaVuSans-35"/>
      </g>
     </g>
    </g>
    <g id="xtick_9">
     <g id="line2d_9">
      <g>
       <use style="stroke:#000000;stroke-width:0.8;" x="414.72" xlink:href="#m35b4f92e30" y="307.584"/>
      </g>
     </g>
     <g id="text_9">
      <!-- 10.0 -->
      <g transform="translate(403.587188 322.182437)scale(0.1 -0.1)">
       <use xlink:href="#DejaVuSans-31"/>
       <use x="63.623047" xlink:href="#DejaVuSans-30"/>
       <use x="127.246094" xlink:href="#DejaVuSans-2e"/>
       <use x="159.033203" xlink:href="#DejaVuSans-30"/>
      </g>
     </g>
    </g>
   </g>
   <g id="matplotlib.axis_2">
    <g id="ytick_1">
     <g id="line2d_10">
      <defs>
       <path d="M 0 0 
L -3.5 0 
" id="m38a18c0d49" style="stroke:#000000;stroke-width:0.8;"/>
      </defs>
      <g>
       <use style="stroke:#000000;stroke-width:0.8;" x="57.6" xlink:href="#m38a18c0d49" y="307.584"/>
      </g>
     </g>
     <g id="text_10">
      <!-- −10.0 -->
      <g transform="translate(19.954687 311.383219)scale(0.1 -0.1)">
       <use xlink:href="#DejaVuSans-2212"/>
       <use x="83.789062" xlink:href="#DejaVuSans-31"/>
       <use x="147.412109" xlink:href="#DejaVuSans-30"/>
       <use x="211.035156" xlink:href="#DejaVuSans-2e"/>
       <use x="242.822266" xlink:href="#DejaVuSans-30"/>
      </g>
     </g>
    </g>
    <g id="ytick_2">
     <g id="line2d_11">
      <g>
       <use style="stroke:#000000;stroke-width:0.8;" x="57.6" xlink:href="#m38a18c0d49" y="274.32"/>
      </g>
     </g>
     <g id="text_11">
      <!-- −7.5 -->
      <g transform="translate(26.317187 278.119219)scale(0.1 -0.1)">
       <use xlink:href="#DejaVuSans-2212"/>
       <use x="83.789062" xlink:href="#DejaVuSans-37"/>
       <use x="147.412109" xlink:href="#DejaVuSans-2e"/>
       <use x="179.199219" xlink:href="#DejaVuSans-35"/>
      </g>
     </g>
    </g>
    <g id="ytick_3">
     <g id="line2d_12">
      <g>
       <use style="stroke:#000000;stroke-width:0.8;" x="57.6" xlink:href="#m38a18c0d49" y="241.056"/>
      </g>
     </g>
     <g id="text_12">
      <!-- −5.0 -->
      <g transform="translate(26.317187 244.855219)scale(0.1 -0.1)">
       <use xlink:href="#DejaVuSans-2212"/>
       <use x="83.789062" xlink:href="#DejaVuSans-35"/>
       <use x="147.412109" xlink:href="#DejaVuSans-2e"/>
       <use x="179.199219" xlink:href="#DejaVuSans-30"/>
      </g>
     </g>
    </g>
    <g id="ytick_4">
     <g id="line2d_13">
      <g>
       <use style="stroke:#000000;stroke-width:0.8;" x="57.6" xlink:href="#m38a18c0d49" y="207.792"/>
      </g>
     </g>
     <g id="text_13">
      <!-- −2.5 -->
      <g transform="translate(26.317187 211.591219)scale(0.1 -0.1)">
       <use xlink:href="#DejaVuSans-2212"/>
       <use x="83.789062" xlink:href="#DejaVuSans-32"/>
       <use x="147.412109" xlink:href="#DejaVuSans-2e"/>
       <use x="179.199219" xlink:href="#DejaVuSans-35"/>
      </g>
     </g>
    </g>
    <g id="ytick_5">
     <g id="line2d_14">
      <g>
       <use style="stroke:#000000;stroke-width:0.8;" x="57.6" xlink:href="#m38a18c0d49" y="174.528"/>
      </g>
     </g>
     <g id="text_14">
      <!-- 0.0 -->
      <g transform="translate(34.696875 178.327219)scale(0.1 -0.1)">
       <use xlink:href="#DejaVuSans-30"/>
       <use x="63.623047" xlink:href="#DejaVuSans-2e"/>
       <use x="95.410156" xlink:href="#DejaVuSans-30"/>
      </g>
     </g>
    </g>
    <g id="ytick_6">
     <g id="line2d_15">
      <g>
       <use style="stroke:#000000;stroke-width:0.8;" x="57.6" xlink:href="#m38a18c0d49" y="141.264"/>
      </g>
     </g>
     <g id="text_15">
      <!-- 2.5 -->
      <g transform="translate(34.696875 145.063219)scale(0.1 -0.1)">
       <use xlink:href="#DejaVuSans-32"/>
       <use x="63.623047" xlink:href="#DejaVuSans-2e"/>
       <use x="95.410156" xlink:href="#DejaVuSans-35"/>
      </g>
     </g>
    </g>
    <g id="ytick_7">
     <g id="line2d_16">
      <g>
       <use style="stroke:#000000;stroke-width:0.8;" x="57.6" xlink:href="#m38a18c0d49" y="108"/>
      </g>
     </g>
     <g id="text_16">
      <!-- 5.0 -->
      <g transform="translate(34.696875 111.799219)scale(0.1 -0.1)">
       <use xlink:href="#DejaVuSans-35"/>
       <use x="63.623047" xlink:href="#DejaVuSans-2e"/>
       <use x="95.410156" xlink:href="#DejaVuSans-30"/>
      </g>
     </g>
    </g>
    <g id="ytick_8">
     <g id="line2d_17">
      <g>
       <use style="stroke:#000000;stroke-width:0.8;" x="57.6" xlink:href="#m38a18c0d49" y="74.736"/>
      </g>
     </g>
     <g id="text_17">
      <!-- 7.5 -->
      <g transform="translate(34.696875 78.535219)scale(0.1 -0.1)">
       <use xlink:href="#DejaVuSans-37"/>
       <use x="63.623047" xlink:href="#DejaVuSans-2e"/>
       <use x="95.410156" xlink:href="#DejaVuSans-35"/>
      </g>
     </g>
    </g>
    <g id="ytick_9">
     <g id="line2d_18">
      <g>
       <use style="stroke:#000000;stroke-width:0.8;" x="57.6" xlink:href="#m38a18c0d49" y="41.472"/>
      </g>
     </g>
     <g id="text_18">
      <!-- 10.0 -->
      <g transform="translate(28.334375 45.271219)scale(0.1 -0.1)">
       <use xlink:href="#DejaVuSans-31"/>
       <use x="63.623047" xlink:href="#DejaVuSans-30"/>
       <use x="127.246094" xlink:href="#DejaVuSans-2e"/>
       <use x="159.033203" xlink:href="#DejaVuSans-30"/>
      </g>
     </g>
    </g>
   </g>
   <g id="patch_3">
    <path d="M 57.6 307.584 
L 57.6 41.472 
" style="fill:none;stroke:#000000;stroke-linecap:square;stroke-linejoin:miter;stroke-width:0.8;"/>
   </g>
   <g id="patch_4">
    <path d="M 414.72 307.584 
L 414.72 41.472 
" style="fill:none;stroke:#000000;stroke-linecap:square;stroke-linejoin:miter;stroke-width:0.8;"/>
   </g>
   <g id="patch_5">
    <path d="M 57.6 307.584 
L 414.72 307.584 
" style="fill:none;stroke:#000000;stroke-linecap:square;stroke-linejoin:miter;stroke-width:0.8;"/>
   </g>
   <g id="patch_6">
    <path d="M 57.6 41.472 
L 414.72 41.472 
" style="fill:none;stroke:#000000;stroke-linecap:square;stroke-linejoin:miter;stroke-width:0.8;"/>
   </g>
  </g>
 </g>
 <defs>
  <clipPath id="p9972f2fa9f">
   <rect height="266.112" width="357.12" x="57.6" y="41.472"/>
  </clipPath>
 </defs>
</svg>
