<?xml version="1.0" encoding="utf-8" standalone="no"?>
<!DOCTYPE svg PUBLIC "-//W3C//DTD SVG 1.1//EN"
  "http://www.w3.org/Graphics/SVG/1.1/DTD/svg11.dtd">
<!-- Created with matplotlib (http://matplotlib.org/) -->
<svg height="345.6pt" version="1.1" viewBox="0 0 460.8 345.6" width="460.8pt" xmlns="http://www.w3.org/2000/svg" xmlns:xlink="http://www.w3.org/1999/xlink">
 <defs>
  <style type="text/css">
*{stroke-linecap:butt;stroke-linejoin:round;}
  </style>
 </defs>
 <g id="figure_1">
  <g id="patch_1">
   <path d="M 0 345.6 
L 460.8 345.6 
L 460.8 0 
L 0 0 
z
" style="fill:#ffffff;"/>
  </g>
  <g id="axes_1">
   <g id="patch_2">
    <path d="M 57.6 307.584 
L 414.72 307.584 
L 414.72 41.472 
L 57.6 41.472 
z
" style="fill:#ffffff;"/>
   </g>
   <g id="PathCollection_1">
    <defs>
     <path d="M 0 0.612372 
C 0.162403 0.612372 0.318176 0.547849 0.433013 0.433013 
C 0.547849 0.318176 0.612372 0.162403 0.612372 0 
C 0.612372 -0.162403 0.547849 -0.318176 0.433013 -0.433013 
C 0.318176 -0.547849 0.162403 -0.612372 0 -0.612372 
C -0.162403 -0.612372 -0.318176 -0.547849 -0.433013 -0.433013 
C -0.547849 -0.318176 -0.612372 -0.162403 -0.612372 0 
C -0.612372 0.162403 -0.547849 0.318176 -0.433013 0.433013 
C -0.318176 0.547849 -0.162403 0.612372 0 0.612372 
z
" id="mc41b3676b7" style="stroke:#000000;"/>
    </defs>
    <g clip-path="url(#pf1f8efd0bb)">
     <use style="stroke:#000000;" x="239.856738" xlink:href="#mc41b3676b7" y="174.528"/>
     <use style="stroke:#000000;" x="247.245712" xlink:href="#mc41b3676b7" y="174.528"/>
     <use style="stroke:#000000;" x="236.188871" xlink:href="#mc41b3676b7" y="174.333894"/>
     <use style="stroke:#000000;" x="247.289073" xlink:href="#mc41b3676b7" y="174.526384"/>
     <use style="stroke:#000000;" x="240.438503" xlink:href="#mc41b3676b7" y="174.492014"/>
     <use style="stroke:#000000;" x="236.248745" xlink:href="#mc41b3676b7" y="174.366178"/>
     <use style="stroke:#000000;" x="236.188348" xlink:href="#mc41b3676b7" y="174.338912"/>
     <use style="stroke:#000000;" x="247.580538" xlink:href="#mc41b3676b7" y="174.146261"/>
     <use style="stroke:#000000;" x="236.793386" xlink:href="#mc41b3676b7" y="174.528"/>
     <use style="stroke:#000000;" x="237.125559" xlink:href="#mc41b3676b7" y="174.528"/>
     <use style="stroke:#000000;" x="236.830287" xlink:href="#mc41b3676b7" y="174.528"/>
     <use style="stroke:#000000;" x="247.24373" xlink:href="#mc41b3676b7" y="174.522616"/>
     <use style="stroke:#000000;" x="247.090751" xlink:href="#mc41b3676b7" y="174.316954"/>
     <use style="stroke:#000000;" x="247.065964" xlink:href="#mc41b3676b7" y="173.998905"/>
     <use style="stroke:#000000;" x="251.025869" xlink:href="#mc41b3676b7" y="174.336601"/>
     <use style="stroke:#000000;" x="251.087932" xlink:href="#mc41b3676b7" y="174.369309"/>
     <use style="stroke:#000000;" x="239.672714" xlink:href="#mc41b3676b7" y="174.475074"/>
     <use style="stroke:#000000;" x="251.101306" xlink:href="#mc41b3676b7" y="174.305757"/>
     <use style="stroke:#000000;" x="236.893823" xlink:href="#mc41b3676b7" y="174.504901"/>
     <use style="stroke:#000000;" x="239.656022" xlink:href="#mc41b3676b7" y="174.528"/>
     <use style="stroke:#000000;" x="240.173388" xlink:href="#mc41b3676b7" y="174.528"/>
     <use style="stroke:#000000;" x="240.300559" xlink:href="#mc41b3676b7" y="174.528"/>
     <use style="stroke:#000000;" x="237.29318" xlink:href="#mc41b3676b7" y="174.528"/>
     <use style="stroke:#000000;" x="247.196618" xlink:href="#mc41b3676b7" y="174.502731"/>
     <use style="stroke:#000000;" x="239.88528" xlink:href="#mc41b3676b7" y="174.499354"/>
     <use style="stroke:#000000;" x="236.521508" xlink:href="#mc41b3676b7" y="174.499266"/>
     <use style="stroke:#000000;" x="239.868479" xlink:href="#mc41b3676b7" y="174.528"/>
     <use style="stroke:#000000;" x="240.271753" xlink:href="#mc41b3676b7" y="174.528"/>
     <use style="stroke:#000000;" x="247.343367" xlink:href="#mc41b3676b7" y="174.425429"/>
     <use style="stroke:#000000;" x="247.411389" xlink:href="#mc41b3676b7" y="174.528"/>
     <use style="stroke:#000000;" x="247.764187" xlink:href="#mc41b3676b7" y="174.357159"/>
     <use style="stroke:#000000;" x="239.566968" xlink:href="#mc41b3676b7" y="174.473659"/>
     <use style="stroke:#000000;" x="240.096513" xlink:href="#mc41b3676b7" y="174.464529"/>
     <use style="stroke:#000000;" x="239.713035" xlink:href="#mc41b3676b7" y="174.528"/>
     <use style="stroke:#000000;" x="239.910464" xlink:href="#mc41b3676b7" y="174.522962"/>
     <use style="stroke:#000000;" x="237.645337" xlink:href="#mc41b3676b7" y="174.528"/>
     <use style="stroke:#000000;" x="236.556013" xlink:href="#mc41b3676b7" y="174.528"/>
     <use style="stroke:#000000;" x="237.032478" xlink:href="#mc41b3676b7" y="174.472106"/>
     <use style="stroke:#000000;" x="236.394515" xlink:href="#mc41b3676b7" y="174.410079"/>
     <use style="stroke:#000000;" x="239.86423" xlink:href="#mc41b3676b7" y="174.528"/>
     <use style="stroke:#000000;" x="247.270781" xlink:href="#mc41b3676b7" y="174.528"/>
     <use style="stroke:#000000;" x="240.118504" xlink:href="#mc41b3676b7" y="174.528"/>
     <use style="stroke:#000000;" x="239.55007" xlink:href="#mc41b3676b7" y="174.528"/>
     <use style="stroke:#000000;" x="236.975168" xlink:href="#mc41b3676b7" y="174.503293"/>
     <use style="stroke:#000000;" x="247.25663" xlink:href="#mc41b3676b7" y="174.528"/>
     <use style="stroke:#000000;" x="236.16" xlink:href="#mc41b3676b7" y="174.366284"/>
     <use style="stroke:#000000;" x="236.992674" xlink:href="#mc41b3676b7" y="174.484134"/>
     <use style="stroke:#000000;" x="236.199337" xlink:href="#mc41b3676b7" y="174.366628"/>
     <use style="stroke:#000000;" x="240.637627" xlink:href="#mc41b3676b7" y="174.322848"/>
     <use style="stroke:#000000;" x="236.551879" xlink:href="#mc41b3676b7" y="174.528"/>
     <use style="stroke:#000000;" x="247.313559" xlink:href="#mc41b3676b7" y="174.327538"/>
     <use style="stroke:#000000;" x="247.425403" xlink:href="#mc41b3676b7" y="174.528"/>
     <use style="stroke:#000000;" x="240.517661" xlink:href="#mc41b3676b7" y="174.337309"/>
     <use style="stroke:#000000;" x="240.458259" xlink:href="#mc41b3676b7" y="174.327755"/>
     <use style="stroke:#000000;" x="236.62476" xlink:href="#mc41b3676b7" y="174.45442"/>
     <use style="stroke:#000000;" x="247.249171" xlink:href="#mc41b3676b7" y="174.528"/>
     <use style="stroke:#000000;" x="239.686504" xlink:href="#mc41b3676b7" y="174.528"/>
     <use style="stroke:#000000;" x="247.672805" xlink:href="#mc41b3676b7" y="174.493093"/>
     <use style="stroke:#000000;" x="247.75294" xlink:href="#mc41b3676b7" y="174.405216"/>
     <use style="stroke:#000000;" x="240.547511" xlink:href="#mc41b3676b7" y="174.302227"/>
     <use style="stroke:#000000;" x="239.86967" xlink:href="#mc41b3676b7" y="174.527015"/>
     <use style="stroke:#000000;" x="239.862929" xlink:href="#mc41b3676b7" y="174.528"/>
     <use style="stroke:#000000;" x="239.851545" xlink:href="#mc41b3676b7" y="174.528"/>
     <use style="stroke:#000000;" x="247.232216" xlink:href="#mc41b3676b7" y="174.528"/>
     <use style="stroke:#000000;" x="236.16" xlink:href="#mc41b3676b7" y="174.055567"/>
     <use style="stroke:#000000;" x="246.763512" xlink:href="#mc41b3676b7" y="174.528"/>
     <use style="stroke:#000000;" x="240.774968" xlink:href="#mc41b3676b7" y="174.528"/>
     <use style="stroke:#000000;" x="236.16" xlink:href="#mc41b3676b7" y="174.095066"/>
     <use style="stroke:#000000;" x="236.16" xlink:href="#mc41b3676b7" y="174.528"/>
     <use style="stroke:#000000;" x="246.632869" xlink:href="#mc41b3676b7" y="173.42154"/>
     <use style="stroke:#000000;" x="237.088226" xlink:href="#mc41b3676b7" y="174.528"/>
     <use style="stroke:#000000;" x="236.940046" xlink:href="#mc41b3676b7" y="174.528"/>
     <use style="stroke:#000000;" x="237.444375" xlink:href="#mc41b3676b7" y="174.528"/>
     <use style="stroke:#000000;" x="246.868797" xlink:href="#mc41b3676b7" y="174.528"/>
     <use style="stroke:#000000;" x="247.027691" xlink:href="#mc41b3676b7" y="174.201351"/>
     <use style="stroke:#000000;" x="247.54377" xlink:href="#mc41b3676b7" y="174.104593"/>
     <use style="stroke:#000000;" x="251.140761" xlink:href="#mc41b3676b7" y="174.123763"/>
     <use style="stroke:#000000;" x="251.937243" xlink:href="#mc41b3676b7" y="174.528"/>
     <use style="stroke:#000000;" x="239.60733" xlink:href="#mc41b3676b7" y="174.448209"/>
     <use style="stroke:#000000;" x="250.828029" xlink:href="#mc41b3676b7" y="174.499489"/>
     <use style="stroke:#000000;" x="236.589377" xlink:href="#mc41b3676b7" y="174.528"/>
     <use style="stroke:#000000;" x="239.362077" xlink:href="#mc41b3676b7" y="174.528"/>
     <use style="stroke:#000000;" x="240.143636" xlink:href="#mc41b3676b7" y="174.484901"/>
     <use style="stroke:#000000;" x="240.631087" xlink:href="#mc41b3676b7" y="174.143897"/>
     <use style="stroke:#000000;" x="240.208566" xlink:href="#mc41b3676b7" y="174.141613"/>
     <use style="stroke:#000000;" x="240.030875" xlink:href="#mc41b3676b7" y="174.528"/>
     <use style="stroke:#000000;" x="237.380815" xlink:href="#mc41b3676b7" y="174.154347"/>
     <use style="stroke:#000000;" x="236.85802" xlink:href="#mc41b3676b7" y="174.454972"/>
     <use style="stroke:#000000;" x="246.927149" xlink:href="#mc41b3676b7" y="174.14515"/>
     <use style="stroke:#000000;" x="247.281751" xlink:href="#mc41b3676b7" y="174.387008"/>
     <use style="stroke:#000000;" x="240.11644" xlink:href="#mc41b3676b7" y="174.528"/>
     <use style="stroke:#000000;" x="239.491275" xlink:href="#mc41b3676b7" y="174.379742"/>
     <use style="stroke:#000000;" x="236.781766" xlink:href="#mc41b3676b7" y="174.189649"/>
     <use style="stroke:#000000;" x="236.447667" xlink:href="#mc41b3676b7" y="174.528"/>
     <use style="stroke:#000000;" x="239.323812" xlink:href="#mc41b3676b7" y="174.28069"/>
     <use style="stroke:#000000;" x="239.728656" xlink:href="#mc41b3676b7" y="174.528"/>
     <use style="stroke:#000000;" x="240.094367" xlink:href="#mc41b3676b7" y="174.528"/>
     <use style="stroke:#000000;" x="239.805779" xlink:href="#mc41b3676b7" y="174.461377"/>
     <use style="stroke:#000000;" x="247.06565" xlink:href="#mc41b3676b7" y="174.482649"/>
     <use style="stroke:#000000;" x="247.420373" xlink:href="#mc41b3676b7" y="174.501723"/>
     <use style="stroke:#000000;" x="247.190108" xlink:href="#mc41b3676b7" y="174.448017"/>
     <use style="stroke:#000000;" x="247.155043" xlink:href="#mc41b3676b7" y="174.528"/>
     <use style="stroke:#000000;" x="247.9817" xlink:href="#mc41b3676b7" y="174.473154"/>
     <use style="stroke:#000000;" x="247.745094" xlink:href="#mc41b3676b7" y="174.418496"/>
     <use style="stroke:#000000;" x="239.726356" xlink:href="#mc41b3676b7" y="174.42616"/>
     <use style="stroke:#000000;" x="239.693793" xlink:href="#mc41b3676b7" y="174.304634"/>
     <use style="stroke:#000000;" x="240.269963" xlink:href="#mc41b3676b7" y="174.472544"/>
     <use style="stroke:#000000;" x="239.94328" xlink:href="#mc41b3676b7" y="174.528"/>
     <use style="stroke:#000000;" x="240.293677" xlink:href="#mc41b3676b7" y="174.400288"/>
     <use style="stroke:#000000;" x="239.828795" xlink:href="#mc41b3676b7" y="174.473864"/>
     <use style="stroke:#000000;" x="239.779498" xlink:href="#mc41b3676b7" y="174.528"/>
     <use style="stroke:#000000;" x="239.696617" xlink:href="#mc41b3676b7" y="174.388178"/>
     <use style="stroke:#000000;" x="240.014133" xlink:href="#mc41b3676b7" y="174.474067"/>
     <use style="stroke:#000000;" x="240.027121" xlink:href="#mc41b3676b7" y="174.476825"/>
     <use style="stroke:#000000;" x="237.577053" xlink:href="#mc41b3676b7" y="174.492001"/>
     <use style="stroke:#000000;" x="237.654067" xlink:href="#mc41b3676b7" y="174.528"/>
     <use style="stroke:#000000;" x="236.572267" xlink:href="#mc41b3676b7" y="174.528"/>
     <use style="stroke:#000000;" x="236.581041" xlink:href="#mc41b3676b7" y="174.518365"/>
     <use style="stroke:#000000;" x="236.583655" xlink:href="#mc41b3676b7" y="174.524535"/>
     <use style="stroke:#000000;" x="237.020295" xlink:href="#mc41b3676b7" y="174.439699"/>
     <use style="stroke:#000000;" x="236.963473" xlink:href="#mc41b3676b7" y="174.432508"/>
     <use style="stroke:#000000;" x="237.105012" xlink:href="#mc41b3676b7" y="174.493232"/>
     <use style="stroke:#000000;" x="236.424722" xlink:href="#mc41b3676b7" y="174.4597"/>
     <use style="stroke:#000000;" x="236.421987" xlink:href="#mc41b3676b7" y="174.433941"/>
     <use style="stroke:#000000;" x="236.388239" xlink:href="#mc41b3676b7" y="174.410669"/>
     <use style="stroke:#000000;" x="239.606569" xlink:href="#mc41b3676b7" y="174.130111"/>
     <use style="stroke:#000000;" x="247.23335" xlink:href="#mc41b3676b7" y="174.509659"/>
     <use style="stroke:#000000;" x="246.967179" xlink:href="#mc41b3676b7" y="174.528"/>
     <use style="stroke:#000000;" x="239.990873" xlink:href="#mc41b3676b7" y="174.528"/>
     <use style="stroke:#000000;" x="239.951623" xlink:href="#mc41b3676b7" y="174.46828"/>
     <use style="stroke:#000000;" x="239.624097" xlink:href="#mc41b3676b7" y="174.528"/>
     <use style="stroke:#000000;" x="239.323072" xlink:href="#mc41b3676b7" y="174.528"/>
     <use style="stroke:#000000;" x="236.954654" xlink:href="#mc41b3676b7" y="174.500257"/>
     <use style="stroke:#000000;" x="236.746966" xlink:href="#mc41b3676b7" y="174.528"/>
     <use style="stroke:#000000;" x="236.997157" xlink:href="#mc41b3676b7" y="174.383588"/>
     <use style="stroke:#000000;" x="247.272942" xlink:href="#mc41b3676b7" y="174.528"/>
     <use style="stroke:#000000;" x="247.300871" xlink:href="#mc41b3676b7" y="174.528"/>
     <use style="stroke:#000000;" x="247.302852" xlink:href="#mc41b3676b7" y="174.364234"/>
     <use style="stroke:#000000;" x="236.247303" xlink:href="#mc41b3676b7" y="174.397473"/>
     <use style="stroke:#000000;" x="236.191811" xlink:href="#mc41b3676b7" y="174.303948"/>
     <use style="stroke:#000000;" x="236.34801" xlink:href="#mc41b3676b7" y="174.35446"/>
     <use style="stroke:#000000;" x="236.943439" xlink:href="#mc41b3676b7" y="174.45862"/>
     <use style="stroke:#000000;" x="236.958599" xlink:href="#mc41b3676b7" y="174.482299"/>
     <use style="stroke:#000000;" x="237.102394" xlink:href="#mc41b3676b7" y="174.496907"/>
     <use style="stroke:#000000;" x="236.16" xlink:href="#mc41b3676b7" y="174.373049"/>
     <use style="stroke:#000000;" x="236.188612" xlink:href="#mc41b3676b7" y="174.347956"/>
     <use style="stroke:#000000;" x="236.170026" xlink:href="#mc41b3676b7" y="174.247914"/>
     <use style="stroke:#000000;" x="240.578437" xlink:href="#mc41b3676b7" y="174.290256"/>
     <use style="stroke:#000000;" x="240.648882" xlink:href="#mc41b3676b7" y="174.30748"/>
     <use style="stroke:#000000;" x="240.549474" xlink:href="#mc41b3676b7" y="174.299424"/>
     <use style="stroke:#000000;" x="236.600967" xlink:href="#mc41b3676b7" y="174.523879"/>
     <use style="stroke:#000000;" x="236.518276" xlink:href="#mc41b3676b7" y="174.513026"/>
     <use style="stroke:#000000;" x="236.569291" xlink:href="#mc41b3676b7" y="174.528"/>
     <use style="stroke:#000000;" x="247.304518" xlink:href="#mc41b3676b7" y="174.35993"/>
     <use style="stroke:#000000;" x="247.279348" xlink:href="#mc41b3676b7" y="174.293333"/>
     <use style="stroke:#000000;" x="247.344828" xlink:href="#mc41b3676b7" y="174.255995"/>
     <use style="stroke:#000000;" x="247.412882" xlink:href="#mc41b3676b7" y="174.523492"/>
     <use style="stroke:#000000;" x="247.416392" xlink:href="#mc41b3676b7" y="174.528"/>
     <use style="stroke:#000000;" x="247.433953" xlink:href="#mc41b3676b7" y="174.528"/>
     <use style="stroke:#000000;" x="240.377122" xlink:href="#mc41b3676b7" y="174.266524"/>
     <use style="stroke:#000000;" x="240.474419" xlink:href="#mc41b3676b7" y="174.32346"/>
     <use style="stroke:#000000;" x="240.574445" xlink:href="#mc41b3676b7" y="174.286239"/>
     <use style="stroke:#000000;" x="240.423727" xlink:href="#mc41b3676b7" y="174.296625"/>
     <use style="stroke:#000000;" x="240.395527" xlink:href="#mc41b3676b7" y="174.355311"/>
     <use style="stroke:#000000;" x="240.458598" xlink:href="#mc41b3676b7" y="174.312973"/>
     <use style="stroke:#000000;" x="236.517655" xlink:href="#mc41b3676b7" y="174.528"/>
     <use style="stroke:#000000;" x="236.884208" xlink:href="#mc41b3676b7" y="174.484051"/>
     <use style="stroke:#000000;" x="236.581008" xlink:href="#mc41b3676b7" y="174.304225"/>
     <use style="stroke:#000000;" x="247.346725" xlink:href="#mc41b3676b7" y="174.47229"/>
     <use style="stroke:#000000;" x="247.396102" xlink:href="#mc41b3676b7" y="174.528"/>
     <use style="stroke:#000000;" x="247.320307" xlink:href="#mc41b3676b7" y="174.459547"/>
     <use style="stroke:#000000;" x="239.79368" xlink:href="#mc41b3676b7" y="174.528"/>
     <use style="stroke:#000000;" x="239.879002" xlink:href="#mc41b3676b7" y="174.528"/>
     <use style="stroke:#000000;" x="247.389633" xlink:href="#mc41b3676b7" y="174.528"/>
     <use style="stroke:#000000;" x="247.503847" xlink:href="#mc41b3676b7" y="174.515963"/>
     <use style="stroke:#000000;" x="247.691057" xlink:href="#mc41b3676b7" y="174.528"/>
     <use style="stroke:#000000;" x="247.862591" xlink:href="#mc41b3676b7" y="174.288423"/>
     <use style="stroke:#000000;" x="240.56508" xlink:href="#mc41b3676b7" y="174.322385"/>
     <use style="stroke:#000000;" x="240.535064" xlink:href="#mc41b3676b7" y="174.297041"/>
     <use style="stroke:#000000;" x="240.546507" xlink:href="#mc41b3676b7" y="174.285428"/>
     <use style="stroke:#000000;" x="240.548585" xlink:href="#mc41b3676b7" y="174.305608"/>
    </g>
   </g>
   <g id="PathCollection_2">
    <defs>
     <path d="M 0 0.935414 
C 0.248075 0.935414 0.486022 0.836853 0.661438 0.661438 
C 0.836853 0.486022 0.935414 0.248075 0.935414 0 
C 0.935414 -0.248075 0.836853 -0.486022 0.661438 -0.661438 
C 0.486022 -0.836853 0.248075 -0.935414 0 -0.935414 
C -0.248075 -0.935414 -0.486022 -0.836853 -0.661438 -0.661438 
C -0.836853 -0.486022 -0.935414 -0.248075 -0.935414 0 
C -0.935414 0.248075 -0.836853 0.486022 -0.661438 0.661438 
C -0.486022 0.836853 -0.248075 0.935414 0 0.935414 
z
" id="m9e1eb3a831" style="stroke:#0000ff;"/>
    </defs>
    <g clip-path="url(#pf1f8efd0bb)">
     <use style="fill:#0000ff;stroke:#0000ff;" x="239.856738" xlink:href="#m9e1eb3a831" y="174.528"/>
     <use style="fill:#0000ff;stroke:#0000ff;" x="247.245712" xlink:href="#m9e1eb3a831" y="174.528"/>
     <use style="fill:#0000ff;stroke:#0000ff;" x="236.188871" xlink:href="#m9e1eb3a831" y="174.333894"/>
     <use style="fill:#0000ff;stroke:#0000ff;" x="247.289073" xlink:href="#m9e1eb3a831" y="174.526384"/>
     <use style="fill:#0000ff;stroke:#0000ff;" x="240.438503" xlink:href="#m9e1eb3a831" y="174.492014"/>
     <use style="fill:#0000ff;stroke:#0000ff;" x="236.248745" xlink:href="#m9e1eb3a831" y="174.366178"/>
     <use style="fill:#0000ff;stroke:#0000ff;" x="236.188348" xlink:href="#m9e1eb3a831" y="174.338912"/>
     <use style="fill:#0000ff;stroke:#0000ff;" x="247.580538" xlink:href="#m9e1eb3a831" y="174.146261"/>
     <use style="fill:#0000ff;stroke:#0000ff;" x="236.793386" xlink:href="#m9e1eb3a831" y="174.528"/>
     <use style="fill:#0000ff;stroke:#0000ff;" x="237.125559" xlink:href="#m9e1eb3a831" y="174.528"/>
     <use style="fill:#0000ff;stroke:#0000ff;" x="236.830287" xlink:href="#m9e1eb3a831" y="174.528"/>
     <use style="fill:#0000ff;stroke:#0000ff;" x="247.24373" xlink:href="#m9e1eb3a831" y="174.522616"/>
     <use style="fill:#0000ff;stroke:#0000ff;" x="247.090751" xlink:href="#m9e1eb3a831" y="174.316954"/>
     <use style="fill:#0000ff;stroke:#0000ff;" x="247.065964" xlink:href="#m9e1eb3a831" y="173.998905"/>
     <use style="fill:#0000ff;stroke:#0000ff;" x="251.025869" xlink:href="#m9e1eb3a831" y="174.336601"/>
     <use style="fill:#0000ff;stroke:#0000ff;" x="251.087932" xlink:href="#m9e1eb3a831" y="174.369309"/>
     <use style="fill:#0000ff;stroke:#0000ff;" x="239.672714" xlink:href="#m9e1eb3a831" y="174.475074"/>
     <use style="fill:#0000ff;stroke:#0000ff;" x="251.101306" xlink:href="#m9e1eb3a831" y="174.305757"/>
     <use style="fill:#0000ff;stroke:#0000ff;" x="236.893823" xlink:href="#m9e1eb3a831" y="174.504901"/>
     <use style="fill:#0000ff;stroke:#0000ff;" x="239.656022" xlink:href="#m9e1eb3a831" y="174.528"/>
     <use style="fill:#0000ff;stroke:#0000ff;" x="240.173388" xlink:href="#m9e1eb3a831" y="174.528"/>
     <use style="fill:#0000ff;stroke:#0000ff;" x="240.300559" xlink:href="#m9e1eb3a831" y="174.528"/>
     <use style="fill:#0000ff;stroke:#0000ff;" x="237.29318" xlink:href="#m9e1eb3a831" y="174.528"/>
     <use style="fill:#0000ff;stroke:#0000ff;" x="247.196618" xlink:href="#m9e1eb3a831" y="174.502731"/>
     <use style="fill:#0000ff;stroke:#0000ff;" x="239.88528" xlink:href="#m9e1eb3a831" y="174.499354"/>
     <use style="fill:#0000ff;stroke:#0000ff;" x="236.521508" xlink:href="#m9e1eb3a831" y="174.499266"/>
     <use style="fill:#0000ff;stroke:#0000ff;" x="239.868479" xlink:href="#m9e1eb3a831" y="174.528"/>
     <use style="fill:#0000ff;stroke:#0000ff;" x="240.271753" xlink:href="#m9e1eb3a831" y="174.528"/>
     <use style="fill:#0000ff;stroke:#0000ff;" x="247.343367" xlink:href="#m9e1eb3a831" y="174.425429"/>
     <use style="fill:#0000ff;stroke:#0000ff;" x="247.411389" xlink:href="#m9e1eb3a831" y="174.528"/>
     <use style="fill:#0000ff;stroke:#0000ff;" x="247.764187" xlink:href="#m9e1eb3a831" y="174.357159"/>
     <use style="fill:#0000ff;stroke:#0000ff;" x="239.566968" xlink:href="#m9e1eb3a831" y="174.473659"/>
     <use style="fill:#0000ff;stroke:#0000ff;" x="240.096513" xlink:href="#m9e1eb3a831" y="174.464529"/>
     <use style="fill:#0000ff;stroke:#0000ff;" x="239.713035" xlink:href="#m9e1eb3a831" y="174.528"/>
     <use style="fill:#0000ff;stroke:#0000ff;" x="239.910464" xlink:href="#m9e1eb3a831" y="174.522962"/>
     <use style="fill:#0000ff;stroke:#0000ff;" x="237.645337" xlink:href="#m9e1eb3a831" y="174.528"/>
     <use style="fill:#0000ff;stroke:#0000ff;" x="236.556013" xlink:href="#m9e1eb3a831" y="174.528"/>
     <use style="fill:#0000ff;stroke:#0000ff;" x="237.032478" xlink:href="#m9e1eb3a831" y="174.472106"/>
     <use style="fill:#0000ff;stroke:#0000ff;" x="236.394515" xlink:href="#m9e1eb3a831" y="174.410079"/>
     <use style="fill:#0000ff;stroke:#0000ff;" x="239.86423" xlink:href="#m9e1eb3a831" y="174.528"/>
     <use style="fill:#0000ff;stroke:#0000ff;" x="247.270781" xlink:href="#m9e1eb3a831" y="174.528"/>
     <use style="fill:#0000ff;stroke:#0000ff;" x="240.118504" xlink:href="#m9e1eb3a831" y="174.528"/>
     <use style="fill:#0000ff;stroke:#0000ff;" x="239.55007" xlink:href="#m9e1eb3a831" y="174.528"/>
     <use style="fill:#0000ff;stroke:#0000ff;" x="236.975168" xlink:href="#m9e1eb3a831" y="174.503293"/>
     <use style="fill:#0000ff;stroke:#0000ff;" x="247.25663" xlink:href="#m9e1eb3a831" y="174.528"/>
     <use style="fill:#0000ff;stroke:#0000ff;" x="236.16" xlink:href="#m9e1eb3a831" y="174.366284"/>
     <use style="fill:#0000ff;stroke:#0000ff;" x="236.992674" xlink:href="#m9e1eb3a831" y="174.484134"/>
     <use style="fill:#0000ff;stroke:#0000ff;" x="236.199337" xlink:href="#m9e1eb3a831" y="174.366628"/>
     <use style="fill:#0000ff;stroke:#0000ff;" x="240.637627" xlink:href="#m9e1eb3a831" y="174.322848"/>
     <use style="fill:#0000ff;stroke:#0000ff;" x="236.551879" xlink:href="#m9e1eb3a831" y="174.528"/>
     <use style="fill:#0000ff;stroke:#0000ff;" x="247.313559" xlink:href="#m9e1eb3a831" y="174.327538"/>
     <use style="fill:#0000ff;stroke:#0000ff;" x="247.425403" xlink:href="#m9e1eb3a831" y="174.528"/>
     <use style="fill:#0000ff;stroke:#0000ff;" x="240.517661" xlink:href="#m9e1eb3a831" y="174.337309"/>
     <use style="fill:#0000ff;stroke:#0000ff;" x="240.458259" xlink:href="#m9e1eb3a831" y="174.327755"/>
     <use style="fill:#0000ff;stroke:#0000ff;" x="236.62476" xlink:href="#m9e1eb3a831" y="174.45442"/>
     <use style="fill:#0000ff;stroke:#0000ff;" x="247.249171" xlink:href="#m9e1eb3a831" y="174.528"/>
     <use style="fill:#0000ff;stroke:#0000ff;" x="239.686504" xlink:href="#m9e1eb3a831" y="174.528"/>
     <use style="fill:#0000ff;stroke:#0000ff;" x="247.672805" xlink:href="#m9e1eb3a831" y="174.493093"/>
     <use style="fill:#0000ff;stroke:#0000ff;" x="247.75294" xlink:href="#m9e1eb3a831" y="174.405216"/>
     <use style="fill:#0000ff;stroke:#0000ff;" x="240.547511" xlink:href="#m9e1eb3a831" y="174.302227"/>
    </g>
   </g>
   <g id="matplotlib.axis_1">
    <g id="xtick_1">
     <g id="line2d_1">
      <defs>
       <path d="M 0 0 
L 0 3.5 
" id="mba91337ed7" style="stroke:#000000;stroke-width:0.8;"/>
      </defs>
      <g>
       <use style="stroke:#000000;stroke-width:0.8;" x="57.6" xlink:href="#mba91337ed7" y="307.584"/>
      </g>
     </g>
     <g id="text_1">
      <!-- −10.0 -->
      <defs>
       <path d="M 10.59375 35.5 
L 73.1875 35.5 
L 73.1875 27.203125 
L 10.59375 27.203125 
z
" id="DejaVuSans-2212"/>
       <path d="M 12.40625 8.296875 
L 28.515625 8.296875 
L 28.515625 63.921875 
L 10.984375 60.40625 
L 10.984375 69.390625 
L 28.421875 72.90625 
L 38.28125 72.90625 
L 38.28125 8.296875 
L 54.390625 8.296875 
L 54.390625 0 
L 12.40625 0 
z
" id="DejaVuSans-31"/>
       <path d="M 31.78125 66.40625 
Q 24.171875 66.40625 20.328125 58.90625 
Q 16.5 51.421875 16.5 36.375 
Q 16.5 21.390625 20.328125 13.890625 
Q 24.171875 6.390625 31.78125 6.390625 
Q 39.453125 6.390625 43.28125 13.890625 
Q 47.125 21.390625 47.125 36.375 
Q 47.125 51.421875 43.28125 58.90625 
Q 39.453125 66.40625 31.78125 66.40625 
z
M 31.78125 74.21875 
Q 44.046875 74.21875 50.515625 64.515625 
Q 56.984375 54.828125 56.984375 36.375 
Q 56.984375 17.96875 50.515625 8.265625 
Q 44.046875 -1.421875 31.78125 -1.421875 
Q 19.53125 -1.421875 13.0625 8.265625 
Q 6.59375 17.96875 6.59375 36.375 
Q 6.59375 54.828125 13.0625 64.515625 
Q 19.53125 74.21875 31.78125 74.21875 
z
" id="DejaVuSans-30"/>
       <path d="M 10.6875 12.40625 
L 21 12.40625 
L 21 0 
L 10.6875 0 
z
" id="DejaVuSans-2e"/>
      </defs>
      <g transform="translate(42.277344 322.182437)scale(0.1 -0.1)">
       <use xlink:href="#DejaVuSans-2212"/>
       <use x="83.789062" xlink:href="#DejaVuSans-31"/>
       <use x="147.412109" xlink:href="#DejaVuSans-30"/>
       <use x="211.035156" xlink:href="#DejaVuSans-2e"/>
       <use x="242.822266" xlink:href="#DejaVuSans-30"/>
      </g>
     </g>
    </g>
    <g id="xtick_2">
     <g id="line2d_2">
      <g>
       <use style="stroke:#000000;stroke-width:0.8;" x="102.24" xlink:href="#mba91337ed7" y="307.584"/>
      </g>
     </g>
     <g id="text_2">
      <!-- −7.5 -->
      <defs>
       <path d="M 8.203125 72.90625 
L 55.078125 72.90625 
L 55.078125 68.703125 
L 28.609375 0 
L 18.3125 0 
L 43.21875 64.59375 
L 8.203125 64.59375 
z
" id="DejaVuSans-37"/>
       <path d="M 10.796875 72.90625 
L 49.515625 72.90625 
L 49.515625 64.59375 
L 19.828125 64.59375 
L 19.828125 46.734375 
Q 21.96875 47.46875 24.109375 47.828125 
Q 26.265625 48.1875 28.421875 48.1875 
Q 40.625 48.1875 47.75 41.5 
Q 54.890625 34.8125 54.890625 23.390625 
Q 54.890625 11.625 47.5625 5.09375 
Q 40.234375 -1.421875 26.90625 -1.421875 
Q 22.3125 -1.421875 17.546875 -0.640625 
Q 12.796875 0.140625 7.71875 1.703125 
L 7.71875 11.625 
Q 12.109375 9.234375 16.796875 8.0625 
Q 21.484375 6.890625 26.703125 6.890625 
Q 35.15625 6.890625 40.078125 11.328125 
Q 45.015625 15.765625 45.015625 23.390625 
Q 45.015625 31 40.078125 35.4375 
Q 35.15625 39.890625 26.703125 39.890625 
Q 22.75 39.890625 18.8125 39.015625 
Q 14.890625 38.140625 10.796875 36.28125 
z
" id="DejaVuSans-35"/>
      </defs>
      <g transform="translate(90.098594 322.182437)scale(0.1 -0.1)">
       <use xlink:href="#DejaVuSans-2212"/>
       <use x="83.789062" xlink:href="#DejaVuSans-37"/>
       <use x="147.412109" xlink:href="#DejaVuSans-2e"/>
       <use x="179.199219" xlink:href="#DejaVuSans-35"/>
      </g>
     </g>
    </g>
    <g id="xtick_3">
     <g id="line2d_3">
      <g>
       <use style="stroke:#000000;stroke-width:0.8;" x="146.88" xlink:href="#mba91337ed7" y="307.584"/>
      </g>
     </g>
     <g id="text_3">
      <!-- −5.0 -->
      <g transform="translate(134.738594 322.182437)scale(0.1 -0.1)">
       <use xlink:href="#DejaVuSans-2212"/>
       <use x="83.789062" xlink:href="#DejaVuSans-35"/>
       <use x="147.412109" xlink:href="#DejaVuSans-2e"/>
       <use x="179.199219" xlink:href="#DejaVuSans-30"/>
      </g>
     </g>
    </g>
    <g id="xtick_4">
     <g id="line2d_4">
      <g>
       <use style="stroke:#000000;stroke-width:0.8;" x="191.52" xlink:href="#mba91337ed7" y="307.584"/>
      </g>
     </g>
     <g id="text_4">
      <!-- −2.5 -->
      <defs>
       <path d="M 19.1875 8.296875 
L 53.609375 8.296875 
L 53.609375 0 
L 7.328125 0 
L 7.328125 8.296875 
Q 12.9375 14.109375 22.625 23.890625 
Q 32.328125 33.6875 34.8125 36.53125 
Q 39.546875 41.84375 41.421875 45.53125 
Q 43.3125 49.21875 43.3125 52.78125 
Q 43.3125 58.59375 39.234375 62.25 
Q 35.15625 65.921875 28.609375 65.921875 
Q 23.96875 65.921875 18.8125 64.3125 
Q 13.671875 62.703125 7.8125 59.421875 
L 7.8125 69.390625 
Q 13.765625 71.78125 18.9375 73 
Q 24.125 74.21875 28.421875 74.21875 
Q 39.75 74.21875 46.484375 68.546875 
Q 53.21875 62.890625 53.21875 53.421875 
Q 53.21875 48.921875 51.53125 44.890625 
Q 49.859375 40.875 45.40625 35.40625 
Q 44.1875 33.984375 37.640625 27.21875 
Q 31.109375 20.453125 19.1875 8.296875 
z
" id="DejaVuSans-32"/>
      </defs>
      <g transform="translate(179.378594 322.182437)scale(0.1 -0.1)">
       <use xlink:href="#DejaVuSans-2212"/>
       <use x="83.789062" xlink:href="#DejaVuSans-32"/>
       <use x="147.412109" xlink:href="#DejaVuSans-2e"/>
       <use x="179.199219" xlink:href="#DejaVuSans-35"/>
      </g>
     </g>
    </g>
    <g id="xtick_5">
     <g id="line2d_5">
      <g>
       <use style="stroke:#000000;stroke-width:0.8;" x="236.16" xlink:href="#mba91337ed7" y="307.584"/>
      </g>
     </g>
     <g id="text_5">
      <!-- 0.0 -->
      <g transform="translate(228.208438 322.182437)scale(0.1 -0.1)">
       <use xlink:href="#DejaVuSans-30"/>
       <use x="63.623047" xlink:href="#DejaVuSans-2e"/>
       <use x="95.410156" xlink:href="#DejaVuSans-30"/>
      </g>
     </g>
    </g>
    <g id="xtick_6">
     <g id="line2d_6">
      <g>
       <use style="stroke:#000000;stroke-width:0.8;" x="280.8" xlink:href="#mba91337ed7" y="307.584"/>
      </g>
     </g>
     <g id="text_6">
      <!-- 2.5 -->
      <g transform="translate(272.848437 322.182437)scale(0.1 -0.1)">
       <use xlink:href="#DejaVuSans-32"/>
       <use x="63.623047" xlink:href="#DejaVuSans-2e"/>
       <use x="95.410156" xlink:href="#DejaVuSans-35"/>
      </g>
     </g>
    </g>
    <g id="xtick_7">
     <g id="line2d_7">
      <g>
       <use style="stroke:#000000;stroke-width:0.8;" x="325.44" xlink:href="#mba91337ed7" y="307.584"/>
      </g>
     </g>
     <g id="text_7">
      <!-- 5.0 -->
      <g transform="translate(317.488437 322.182437)scale(0.1 -0.1)">
       <use xlink:href="#DejaVuSans-35"/>
       <use x="63.623047" xlink:href="#DejaVuSans-2e"/>
       <use x="95.410156" xlink:href="#DejaVuSans-30"/>
      </g>
     </g>
    </g>
    <g id="xtick_8">
     <g id="line2d_8">
      <g>
       <use style="stroke:#000000;stroke-width:0.8;" x="370.08" xlink:href="#mba91337ed7" y="307.584"/>
      </g>
     </g>
     <g id="text_8">
      <!-- 7.5 -->
      <g transform="translate(362.128438 322.182437)scale(0.1 -0.1)">
       <use xlink:href="#DejaVuSans-37"/>
       <use x="63.623047" xlink:href="#DejaVuSans-2e"/>
       <use x="95.410156" xlink:href="#DejaVuSans-35"/>
      </g>
     </g>
    </g>
    <g id="xtick_9">
     <g id="line2d_9">
      <g>
       <use style="stroke:#000000;stroke-width:0.8;" x="414.72" xlink:href="#mba91337ed7" y="307.584"/>
      </g>
     </g>
     <g id="text_9">
      <!-- 10.0 -->
      <g transform="translate(403.587188 322.182437)scale(0.1 -0.1)">
       <use xlink:href="#DejaVuSans-31"/>
       <use x="63.623047" xlink:href="#DejaVuSans-30"/>
       <use x="127.246094" xlink:href="#DejaVuSans-2e"/>
       <use x="159.033203" xlink:href="#DejaVuSans-30"/>
      </g>
     </g>
    </g>
   </g>
   <g id="matplotlib.axis_2">
    <g id="ytick_1">
     <g id="line2d_10">
      <defs>
       <path d="M 0 0 
L -3.5 0 
" id="m829cb67351" style="stroke:#000000;stroke-width:0.8;"/>
      </defs>
      <g>
       <use style="stroke:#000000;stroke-width:0.8;" x="57.6" xlink:href="#m829cb67351" y="307.584"/>
      </g>
     </g>
     <g id="text_10">
      <!-- −10.0 -->
      <g transform="translate(19.954687 311.383219)scale(0.1 -0.1)">
       <use xlink:href="#DejaVuSans-2212"/>
       <use x="83.789062" xlink:href="#DejaVuSans-31"/>
       <use x="147.412109" xlink:href="#DejaVuSans-30"/>
       <use x="211.035156" xlink:href="#DejaVuSans-2e"/>
       <use x="242.822266" xlink:href="#DejaVuSans-30"/>
      </g>
     </g>
    </g>
    <g id="ytick_2">
     <g id="line2d_11">
      <g>
       <use style="stroke:#000000;stroke-width:0.8;" x="57.6" xlink:href="#m829cb67351" y="274.32"/>
      </g>
     </g>
     <g id="text_11">
      <!-- −7.5 -->
      <g transform="translate(26.317187 278.119219)scale(0.1 -0.1)">
       <use xlink:href="#DejaVuSans-2212"/>
       <use x="83.789062" xlink:href="#DejaVuSans-37"/>
       <use x="147.412109" xlink:href="#DejaVuSans-2e"/>
       <use x="179.199219" xlink:href="#DejaVuSans-35"/>
      </g>
     </g>
    </g>
    <g id="ytick_3">
     <g id="line2d_12">
      <g>
       <use style="stroke:#000000;stroke-width:0.8;" x="57.6" xlink:href="#m829cb67351" y="241.056"/>
      </g>
     </g>
     <g id="text_12">
      <!-- −5.0 -->
      <g transform="translate(26.317187 244.855219)scale(0.1 -0.1)">
       <use xlink:href="#DejaVuSans-2212"/>
       <use x="83.789062" xlink:href="#DejaVuSans-35"/>
       <use x="147.412109" xlink:href="#DejaVuSans-2e"/>
       <use x="179.199219" xlink:href="#DejaVuSans-30"/>
      </g>
     </g>
    </g>
    <g id="ytick_4">
     <g id="line2d_13">
      <g>
       <use style="stroke:#000000;stroke-width:0.8;" x="57.6" xlink:href="#m829cb67351" y="207.792"/>
      </g>
     </g>
     <g id="text_13">
      <!-- −2.5 -->
      <g transform="translate(26.317187 211.591219)scale(0.1 -0.1)">
       <use xlink:href="#DejaVuSans-2212"/>
       <use x="83.789062" xlink:href="#DejaVuSans-32"/>
       <use x="147.412109" xlink:href="#DejaVuSans-2e"/>
       <use x="179.199219" xlink:href="#DejaVuSans-35"/>
      </g>
     </g>
    </g>
    <g id="ytick_5">
     <g id="line2d_14">
      <g>
       <use style="stroke:#000000;stroke-width:0.8;" x="57.6" xlink:href="#m829cb67351" y="174.528"/>
      </g>
     </g>
     <g id="text_14">
      <!-- 0.0 -->
      <g transform="translate(34.696875 178.327219)scale(0.1 -0.1)">
       <use xlink:href="#DejaVuSans-30"/>
       <use x="63.623047" xlink:href="#DejaVuSans-2e"/>
       <use x="95.410156" xlink:href="#DejaVuSans-30"/>
      </g>
     </g>
    </g>
    <g id="ytick_6">
     <g id="line2d_15">
      <g>
       <use style="stroke:#000000;stroke-width:0.8;" x="57.6" xlink:href="#m829cb67351" y="141.264"/>
      </g>
     </g>
     <g id="text_15">
      <!-- 2.5 -->
      <g transform="translate(34.696875 145.063219)scale(0.1 -0.1)">
       <use xlink:href="#DejaVuSans-32"/>
       <use x="63.623047" xlink:href="#DejaVuSans-2e"/>
       <use x="95.410156" xlink:href="#DejaVuSans-35"/>
      </g>
     </g>
    </g>
    <g id="ytick_7">
     <g id="line2d_16">
      <g>
       <use style="stroke:#000000;stroke-width:0.8;" x="57.6" xlink:href="#m829cb67351" y="108"/>
      </g>
     </g>
     <g id="text_16">
      <!-- 5.0 -->
      <g transform="translate(34.696875 111.799219)scale(0.1 -0.1)">
       <use xlink:href="#DejaVuSans-35"/>
       <use x="63.623047" xlink:href="#DejaVuSans-2e"/>
       <use x="95.410156" xlink:href="#DejaVuSans-30"/>
      </g>
     </g>
    </g>
    <g id="ytick_8">
     <g id="line2d_17">
      <g>
       <use style="stroke:#000000;stroke-width:0.8;" x="57.6" xlink:href="#m829cb67351" y="74.736"/>
      </g>
     </g>
     <g id="text_17">
      <!-- 7.5 -->
      <g transform="translate(34.696875 78.535219)scale(0.1 -0.1)">
       <use xlink:href="#DejaVuSans-37"/>
       <use x="63.623047" xlink:href="#DejaVuSans-2e"/>
       <use x="95.410156" xlink:href="#DejaVuSans-35"/>
      </g>
     </g>
    </g>
    <g id="ytick_9">
     <g id="line2d_18">
      <g>
       <use style="stroke:#000000;stroke-width:0.8;" x="57.6" xlink:href="#m829cb67351" y="41.472"/>
      </g>
     </g>
     <g id="text_18">
      <!-- 10.0 -->
      <g transform="translate(28.334375 45.271219)scale(0.1 -0.1)">
       <use xlink:href="#DejaVuSans-31"/>
       <use x="63.623047" xlink:href="#DejaVuSans-30"/>
       <use x="127.246094" xlink:href="#DejaVuSans-2e"/>
       <use x="159.033203" xlink:href="#DejaVuSans-30"/>
      </g>
     </g>
    </g>
   </g>
   <g id="patch_3">
    <path d="M 57.6 307.584 
L 57.6 41.472 
" style="fill:none;stroke:#000000;stroke-linecap:square;stroke-linejoin:miter;stroke-width:0.8;"/>
   </g>
   <g id="patch_4">
    <path d="M 414.72 307.584 
L 414.72 41.472 
" style="fill:none;stroke:#000000;stroke-linecap:square;stroke-linejoin:miter;stroke-width:0.8;"/>
   </g>
   <g id="patch_5">
    <path d="M 57.6 307.584 
L 414.72 307.584 
" style="fill:none;stroke:#000000;stroke-linecap:square;stroke-linejoin:miter;stroke-width:0.8;"/>
   </g>
   <g id="patch_6">
    <path d="M 57.6 41.472 
L 414.72 41.472 
" style="fill:none;stroke:#000000;stroke-linecap:square;stroke-linejoin:miter;stroke-width:0.8;"/>
   </g>
  </g>
 </g>
 <defs>
  <clipPath id="pf1f8efd0bb">
   <rect height="266.112" width="357.12" x="57.6" y="41.472"/>
  </clipPath>
 </defs>
</svg>
