<?xml version="1.0" encoding="utf-8" standalone="no"?>
<!DOCTYPE svg PUBLIC "-//W3C//DTD SVG 1.1//EN"
  "http://www.w3.org/Graphics/SVG/1.1/DTD/svg11.dtd">
<!-- Created with matplotlib (http://matplotlib.org/) -->
<svg height="345.6pt" version="1.1" viewBox="0 0 460.8 345.6" width="460.8pt" xmlns="http://www.w3.org/2000/svg" xmlns:xlink="http://www.w3.org/1999/xlink">
 <defs>
  <style type="text/css">
*{stroke-linecap:butt;stroke-linejoin:round;}
  </style>
 </defs>
 <g id="figure_1">
  <g id="patch_1">
   <path d="M 0 345.6 
L 460.8 345.6 
L 460.8 0 
L 0 0 
z
" style="fill:#ffffff;"/>
  </g>
  <g id="axes_1">
   <g id="patch_2">
    <path d="M 57.6 307.584 
L 414.72 307.584 
L 414.72 41.472 
L 57.6 41.472 
z
" style="fill:#ffffff;"/>
   </g>
   <g id="PathCollection_1">
    <defs>
     <path d="M 0 0.612372 
C 0.162403 0.612372 0.318176 0.547849 0.433013 0.433013 
C 0.547849 0.318176 0.612372 0.162403 0.612372 0 
C 0.612372 -0.162403 0.547849 -0.318176 0.433013 -0.433013 
C 0.318176 -0.547849 0.162403 -0.612372 0 -0.612372 
C -0.162403 -0.612372 -0.318176 -0.547849 -0.433013 -0.433013 
C -0.547849 -0.318176 -0.612372 -0.162403 -0.612372 0 
C -0.612372 0.162403 -0.547849 0.318176 -0.433013 0.433013 
C -0.318176 0.547849 -0.162403 0.612372 0 0.612372 
z
" id="m2baaec0142" style="stroke:#000000;"/>
    </defs>
    <g clip-path="url(#pd9f44b9342)">
     <use style="stroke:#000000;" x="81.61609" xlink:href="#m2baaec0142" y="85.024467"/>
     <use style="stroke:#000000;" x="81.408" xlink:href="#m2baaec0142" y="79.488"/>
     <use style="stroke:#000000;" x="141.666673" xlink:href="#m2baaec0142" y="151.061055"/>
     <use style="stroke:#000000;" x="375.789947" xlink:href="#m2baaec0142" y="244.487675"/>
     <use style="stroke:#000000;" x="92.031843" xlink:href="#m2baaec0142" y="115.399825"/>
     <use style="stroke:#000000;" x="167.1168" xlink:href="#m2baaec0142" y="159.3216"/>
     <use style="stroke:#000000;" x="81.873115" xlink:href="#m2baaec0142" y="87.703795"/>
     <use style="stroke:#000000;" x="87.68713" xlink:href="#m2baaec0142" y="107.850563"/>
     <use style="stroke:#000000;" x="81.408" xlink:href="#m2baaec0142" y="79.488"/>
     <use style="stroke:#000000;" x="119.816963" xlink:href="#m2baaec0142" y="140.502263"/>
     <use style="stroke:#000000;" x="119.390893" xlink:href="#m2baaec0142" y="140.247709"/>
     <use style="stroke:#000000;" x="112.948497" xlink:href="#m2baaec0142" y="136.081805"/>
     <use style="stroke:#000000;" x="380.909729" xlink:href="#m2baaec0142" y="246.55522"/>
     <use style="stroke:#000000;" x="82.475666" xlink:href="#m2baaec0142" y="91.790747"/>
     <use style="stroke:#000000;" x="128.200653" xlink:href="#m2baaec0142" y="145.076891"/>
     <use style="stroke:#000000;" x="111.349651" xlink:href="#m2baaec0142" y="134.943703"/>
     <use style="stroke:#000000;" x="131.618463" xlink:href="#m2baaec0142" y="146.735832"/>
     <use style="stroke:#000000;" x="136.808183" xlink:href="#m2baaec0142" y="149.064419"/>
     <use style="stroke:#000000;" x="369.623292" xlink:href="#m2baaec0142" y="241.740472"/>
     <use style="stroke:#000000;" x="300.906946" xlink:href="#m2baaec0142" y="174.377337"/>
     <use style="stroke:#000000;" x="148.18222" xlink:href="#m2baaec0142" y="153.497366"/>
     <use style="stroke:#000000;" x="107.773186" xlink:href="#m2baaec0142" y="132.217536"/>
     <use style="stroke:#000000;" x="167.1168" xlink:href="#m2baaec0142" y="159.3216"/>
     <use style="stroke:#000000;" x="222.030701" xlink:href="#m2baaec0142" y="169.436336"/>
     <use style="stroke:#000000;" x="320.042195" xlink:href="#m2baaec0142" y="183.477548"/>
     <use style="stroke:#000000;" x="167.1168" xlink:href="#m2baaec0142" y="159.3216"/>
     <use style="stroke:#000000;" x="86.064523" xlink:href="#m2baaec0142" y="104.212259"/>
     <use style="stroke:#000000;" x="100.118084" xlink:href="#m2baaec0142" y="125.30502"/>
     <use style="stroke:#000000;" x="112.482251" xlink:href="#m2baaec0142" y="135.754664"/>
     <use style="stroke:#000000;" x="333.805378" xlink:href="#m2baaec0142" y="215.425558"/>
     <use style="stroke:#000000;" x="362.315878" xlink:href="#m2baaec0142" y="238.050543"/>
     <use style="stroke:#000000;" x="343.726598" xlink:href="#m2baaec0142" y="225.501816"/>
     <use style="stroke:#000000;" x="374.650403" xlink:href="#m2baaec0142" y="244.002355"/>
     <use style="stroke:#000000;" x="81.540926" xlink:href="#m2baaec0142" y="83.926325"/>
     <use style="stroke:#000000;" x="94.270416" xlink:href="#m2baaec0142" y="118.534477"/>
     <use style="stroke:#000000;" x="85.28532" xlink:href="#m2baaec0142" y="102.197405"/>
     <use style="stroke:#000000;" x="397.359549" xlink:href="#m2baaec0142" y="252.150898"/>
     <use style="stroke:#000000;" x="81.408" xlink:href="#m2baaec0142" y="79.488"/>
     <use style="stroke:#000000;" x="106.425247" xlink:href="#m2baaec0142" y="131.11745"/>
     <use style="stroke:#000000;" x="82.581873" xlink:href="#m2baaec0142" y="92.366454"/>
     <use style="stroke:#000000;" x="253.311631" xlink:href="#m2baaec0142" y="172.381901"/>
     <use style="stroke:#000000;" x="81.424868" xlink:href="#m2baaec0142" y="81.081228"/>
     <use style="stroke:#000000;" x="122.180194" xlink:href="#m2baaec0142" y="141.872559"/>
     <use style="stroke:#000000;" x="141.094776" xlink:href="#m2baaec0142" y="150.834483"/>
     <use style="stroke:#000000;" x="358.893278" xlink:href="#m2baaec0142" y="236.128407"/>
     <use style="stroke:#000000;" x="319.488" xlink:href="#m2baaec0142" y="174.528"/>
     <use style="stroke:#000000;" x="105.334884" xlink:href="#m2baaec0142" y="130.195004"/>
     <use style="stroke:#000000;" x="88.737719" xlink:href="#m2baaec0142" y="109.913773"/>
     <use style="stroke:#000000;" x="81.891188" xlink:href="#m2baaec0142" y="87.858251"/>
     <use style="stroke:#000000;" x="81.632646" xlink:href="#m2baaec0142" y="85.23713"/>
     <use style="stroke:#000000;" x="86.171232" xlink:href="#m2baaec0142" y="104.472526"/>
     <use style="stroke:#000000;" x="116.870625" xlink:href="#m2baaec0142" y="138.691732"/>
     <use style="stroke:#000000;" x="138.18307" xlink:href="#m2baaec0142" y="149.646375"/>
     <use style="stroke:#000000;" x="94.225476" xlink:href="#m2baaec0142" y="118.475167"/>
     <use style="stroke:#000000;" x="85.710046" xlink:href="#m2baaec0142" y="103.321921"/>
     <use style="stroke:#000000;" x="141.394232" xlink:href="#m2baaec0142" y="150.953391"/>
     <use style="stroke:#000000;" x="86.509928" xlink:href="#m2baaec0142" y="105.27679"/>
     <use style="stroke:#000000;" x="94.247218" xlink:href="#m2baaec0142" y="118.503879"/>
     <use style="stroke:#000000;" x="82.028198" xlink:href="#m2baaec0142" y="88.941947"/>
     <use style="stroke:#000000;" x="167.1168" xlink:href="#m2baaec0142" y="159.3216"/>
     <use style="stroke:#000000;" x="139.230121" xlink:href="#m2baaec0142" y="150.08041"/>
     <use style="stroke:#000000;" x="106.976312" xlink:href="#m2baaec0142" y="131.572394"/>
     <use style="stroke:#000000;" x="138.740193" xlink:href="#m2baaec0142" y="149.878288"/>
     <use style="stroke:#000000;" x="124.801552" xlink:href="#m2baaec0142" y="143.315395"/>
     <use style="stroke:#000000;" x="167.528359" xlink:href="#m2baaec0142" y="167.060287"/>
     <use style="stroke:#000000;" x="167.1168" xlink:href="#m2baaec0142" y="159.3216"/>
     <use style="stroke:#000000;" x="167.1168" xlink:href="#m2baaec0142" y="159.3216"/>
     <use style="stroke:#000000;" x="116.369593" xlink:href="#m2baaec0142" y="138.371664"/>
     <use style="stroke:#000000;" x="81.557261" xlink:href="#m2baaec0142" y="84.187767"/>
     <use style="stroke:#000000;" x="167.1168" xlink:href="#m2baaec0142" y="159.3216"/>
     <use style="stroke:#000000;" x="143.810689" xlink:href="#m2baaec0142" y="151.891539"/>
     <use style="stroke:#000000;" x="129.028398" xlink:href="#m2baaec0142" y="145.48853"/>
     <use style="stroke:#000000;" x="83.484016" xlink:href="#m2baaec0142" y="96.620719"/>
     <use style="stroke:#000000;" x="81.408" xlink:href="#m2baaec0142" y="79.488"/>
     <use style="stroke:#000000;" x="110.96312" xlink:href="#m2baaec0142" y="134.661488"/>
     <use style="stroke:#000000;" x="81.509749" xlink:href="#m2baaec0142" y="83.376913"/>
     <use style="stroke:#000000;" x="83.093563" xlink:href="#m2baaec0142" y="94.80878"/>
     <use style="stroke:#000000;" x="101.271856" xlink:href="#m2baaec0142" y="126.462826"/>
     <use style="stroke:#000000;" x="146.877166" xlink:href="#m2baaec0142" y="153.029767"/>
     <use style="stroke:#000000;" x="105.827663" xlink:href="#m2baaec0142" y="130.615644"/>
     <use style="stroke:#000000;" x="82.675207" xlink:href="#m2baaec0142" y="92.849659"/>
     <use style="stroke:#000000;" x="82.185811" xlink:href="#m2baaec0142" y="90.042062"/>
     <use style="stroke:#000000;" x="83.202066" xlink:href="#m2baaec0142" y="101.612666"/>
     <use style="stroke:#000000;" x="81.609881" xlink:href="#m2baaec0142" y="87.21859"/>
     <use style="stroke:#000000;" x="82.391961" xlink:href="#m2baaec0142" y="91.315006"/>
     <use style="stroke:#000000;" x="126.49309" xlink:href="#m2baaec0142" y="144.206687"/>
     <use style="stroke:#000000;" x="132.477413" xlink:href="#m2baaec0142" y="151.684643"/>
     <use style="stroke:#000000;" x="144.882314" xlink:href="#m2baaec0142" y="152.295773"/>
     <use style="stroke:#000000;" x="350.362147" xlink:href="#m2baaec0142" y="239.706468"/>
     <use style="stroke:#000000;" x="364.487451" xlink:href="#m2baaec0142" y="239.202277"/>
     <use style="stroke:#000000;" x="364.31117" xlink:href="#m2baaec0142" y="243.30631"/>
     <use style="stroke:#000000;" x="91.488217" xlink:href="#m2baaec0142" y="125.868699"/>
     <use style="stroke:#000000;" x="82.057518" xlink:href="#m2baaec0142" y="89.15692"/>
     <use style="stroke:#000000;" x="84.437612" xlink:href="#m2baaec0142" y="99.720756"/>
     <use style="stroke:#000000;" x="166.308134" xlink:href="#m2baaec0142" y="159.105115"/>
     <use style="stroke:#000000;" x="167.150267" xlink:href="#m2baaec0142" y="161.561864"/>
     <use style="stroke:#000000;" x="167.1168" xlink:href="#m2baaec0142" y="159.3216"/>
     <use style="stroke:#000000;" x="81.408" xlink:href="#m2baaec0142" y="79.488"/>
     <use style="stroke:#000000;" x="81.408" xlink:href="#m2baaec0142" y="79.488"/>
     <use style="stroke:#000000;" x="94.085336" xlink:href="#m2baaec0142" y="118.289343"/>
     <use style="stroke:#000000;" x="84.883629" xlink:href="#m2baaec0142" y="106.847208"/>
     <use style="stroke:#000000;" x="88.900013" xlink:href="#m2baaec0142" y="110.216201"/>
     <use style="stroke:#000000;" x="87.589239" xlink:href="#m2baaec0142" y="117.706267"/>
     <use style="stroke:#000000;" x="84.73236" xlink:href="#m2baaec0142" y="100.621933"/>
     <use style="stroke:#000000;" x="81.683416" xlink:href="#m2baaec0142" y="85.843069"/>
     <use style="stroke:#000000;" x="91.100844" xlink:href="#m2baaec0142" y="113.971789"/>
     <use style="stroke:#000000;" x="117.320678" xlink:href="#m2baaec0142" y="148.56901"/>
     <use style="stroke:#000000;" x="131.406285" xlink:href="#m2baaec0142" y="146.635899"/>
     <use style="stroke:#000000;" x="124.201012" xlink:href="#m2baaec0142" y="148.611601"/>
     <use style="stroke:#000000;" x="139.1141" xlink:href="#m2baaec0142" y="154.744607"/>
     <use style="stroke:#000000;" x="126.738991" xlink:href="#m2baaec0142" y="144.333792"/>
     <use style="stroke:#000000;" x="124.962391" xlink:href="#m2baaec0142" y="158.35639"/>
     <use style="stroke:#000000;" x="98.238956" xlink:href="#m2baaec0142" y="123.308507"/>
     <use style="stroke:#000000;" x="121.457319" xlink:href="#m2baaec0142" y="141.460696"/>
     <use style="stroke:#000000;" x="117.98401" xlink:href="#m2baaec0142" y="151.701247"/>
     <use style="stroke:#000000;" x="392.932983" xlink:href="#m2baaec0142" y="250.783008"/>
     <use style="stroke:#000000;" x="364.185205" xlink:href="#m2baaec0142" y="245.303568"/>
     <use style="stroke:#000000;" x="308.447156" xlink:href="#m2baaec0142" y="244.982606"/>
     <use style="stroke:#000000;" x="81.40823" xlink:href="#m2baaec0142" y="79.674783"/>
     <use style="stroke:#000000;" x="81.816106" xlink:href="#m2baaec0142" y="89.479554"/>
     <use style="stroke:#000000;" x="91.382974" xlink:href="#m2baaec0142" y="130.528853"/>
     <use style="stroke:#000000;" x="121.149255" xlink:href="#m2baaec0142" y="141.283256"/>
     <use style="stroke:#000000;" x="130.113392" xlink:href="#m2baaec0142" y="146.0184"/>
     <use style="stroke:#000000;" x="149.356228" xlink:href="#m2baaec0142" y="153.909789"/>
     <use style="stroke:#000000;" x="102.369304" xlink:href="#m2baaec0142" y="127.521033"/>
     <use style="stroke:#000000;" x="112.470987" xlink:href="#m2baaec0142" y="135.746713"/>
     <use style="stroke:#000000;" x="93.399858" xlink:href="#m2baaec0142" y="122.37152"/>
     <use style="stroke:#000000;" x="141.339547" xlink:href="#m2baaec0142" y="150.931721"/>
     <use style="stroke:#000000;" x="130.923466" xlink:href="#m2baaec0142" y="165.748891"/>
     <use style="stroke:#000000;" x="121.458598" xlink:href="#m2baaec0142" y="141.461431"/>
     <use style="stroke:#000000;" x="147.602894" xlink:href="#m2baaec0142" y="153.62554"/>
     <use style="stroke:#000000;" x="360.619543" xlink:href="#m2baaec0142" y="237.114989"/>
     <use style="stroke:#000000;" x="350.291792" xlink:href="#m2baaec0142" y="230.603132"/>
     <use style="stroke:#000000;" x="340.46798" xlink:href="#m2baaec0142" y="239.349237"/>
     <use style="stroke:#000000;" x="319.676646" xlink:href="#m2baaec0142" y="179.803254"/>
     <use style="stroke:#000000;" x="319.488" xlink:href="#m2baaec0142" y="174.528"/>
     <use style="stroke:#000000;" x="315.425443" xlink:href="#m2baaec0142" y="174.521022"/>
     <use style="stroke:#000000;" x="158.788435" xlink:href="#m2baaec0142" y="164.330496"/>
     <use style="stroke:#000000;" x="133.361864" xlink:href="#m2baaec0142" y="170.795223"/>
     <use style="stroke:#000000;" x="128.079333" xlink:href="#m2baaec0142" y="145.016009"/>
     <use style="stroke:#000000;" x="125.016026" xlink:href="#m2baaec0142" y="143.430074"/>
     <use style="stroke:#000000;" x="123.77144" xlink:href="#m2baaec0142" y="142.757623"/>
     <use style="stroke:#000000;" x="111.000711" xlink:href="#m2baaec0142" y="134.689059"/>
     <use style="stroke:#000000;" x="167.1168" xlink:href="#m2baaec0142" y="159.3216"/>
     <use style="stroke:#000000;" x="150.70863" xlink:href="#m2baaec0142" y="170.193432"/>
     <use style="stroke:#000000;" x="167.299596" xlink:href="#m2baaec0142" y="164.515573"/>
     <use style="stroke:#000000;" x="301.576388" xlink:href="#m2baaec0142" y="174.388206"/>
     <use style="stroke:#000000;" x="320.242377" xlink:href="#m2baaec0142" y="184.926496"/>
     <use style="stroke:#000000;" x="149.831037" xlink:href="#m2baaec0142" y="154.074424"/>
     <use style="stroke:#000000;" x="87.652773" xlink:href="#m2baaec0142" y="119.369515"/>
     <use style="stroke:#000000;" x="89.623219" xlink:href="#m2baaec0142" y="111.517466"/>
     <use style="stroke:#000000;" x="137.575308" xlink:href="#m2baaec0142" y="170.929252"/>
     <use style="stroke:#000000;" x="327.147989" xlink:href="#m2baaec0142" y="205.565052"/>
     <use style="stroke:#000000;" x="342.580953" xlink:href="#m2baaec0142" y="228.513748"/>
     <use style="stroke:#000000;" x="296.63618" xlink:href="#m2baaec0142" y="204.13237"/>
     <use style="stroke:#000000;" x="364.420614" xlink:href="#m2baaec0142" y="239.167564"/>
     <use style="stroke:#000000;" x="370.967036" xlink:href="#m2baaec0142" y="242.365262"/>
     <use style="stroke:#000000;" x="356.989291" xlink:href="#m2baaec0142" y="242.317883"/>
     <use style="stroke:#000000;" x="283.340869" xlink:href="#m2baaec0142" y="230.973332"/>
     <use style="stroke:#000000;" x="242.449449" xlink:href="#m2baaec0142" y="212.843924"/>
     <use style="stroke:#000000;" x="307.756103" xlink:href="#m2baaec0142" y="236.375753"/>
     <use style="stroke:#000000;" x="360.580534" xlink:href="#m2baaec0142" y="244.69813"/>
     <use style="stroke:#000000;" x="369.728882" xlink:href="#m2baaec0142" y="242.738902"/>
     <use style="stroke:#000000;" x="82.086306" xlink:href="#m2baaec0142" y="89.363059"/>
     <use style="stroke:#000000;" x="81.408" xlink:href="#m2baaec0142" y="79.488"/>
     <use style="stroke:#000000;" x="87.174334" xlink:href="#m2baaec0142" y="115.725333"/>
     <use style="stroke:#000000;" x="94.508477" xlink:href="#m2baaec0142" y="118.846429"/>
     <use style="stroke:#000000;" x="85.909848" xlink:href="#m2baaec0142" y="114.459925"/>
     <use style="stroke:#000000;" x="85.955501" xlink:href="#m2baaec0142" y="109.357407"/>
     <use style="stroke:#000000;" x="93.123018" xlink:href="#m2baaec0142" y="116.975891"/>
     <use style="stroke:#000000;" x="356.490689" xlink:href="#m2baaec0142" y="248.178606"/>
     <use style="stroke:#000000;" x="239.227383" xlink:href="#m2baaec0142" y="228.973333"/>
     <use style="stroke:#000000;" x="374.704224" xlink:href="#m2baaec0142" y="253.944692"/>
     <use style="stroke:#000000;" x="84.10173" xlink:href="#m2baaec0142" y="98.631325"/>
     <use style="stroke:#000000;" x="81.685664" xlink:href="#m2baaec0142" y="85.868509"/>
     <use style="stroke:#000000;" x="86.899803" xlink:href="#m2baaec0142" y="118.122075"/>
     <use style="stroke:#000000;" x="93.014395" xlink:href="#m2baaec0142" y="118.570927"/>
     <use style="stroke:#000000;" x="102.187859" xlink:href="#m2baaec0142" y="149.825997"/>
     <use style="stroke:#000000;" x="88.917457" xlink:href="#m2baaec0142" y="110.24847"/>
     <use style="stroke:#000000;" x="180.593495" xlink:href="#m2baaec0142" y="162.580932"/>
     <use style="stroke:#000000;" x="240.290049" xlink:href="#m2baaec0142" y="191.373403"/>
     <use style="stroke:#000000;" x="82.075295" xlink:href="#m2baaec0142" y="89.284768"/>
     <use style="stroke:#000000;" x="161.245607" xlink:href="#m2baaec0142" y="157.689815"/>
     <use style="stroke:#000000;" x="114.217397" xlink:href="#m2baaec0142" y="149.125671"/>
     <use style="stroke:#000000;" x="162.557806" xlink:href="#m2baaec0142" y="182.534474"/>
     <use style="stroke:#000000;" x="144.070242" xlink:href="#m2baaec0142" y="176.314959"/>
     <use style="stroke:#000000;" x="350.268776" xlink:href="#m2baaec0142" y="230.586772"/>
     <use style="stroke:#000000;" x="319.602515" xlink:href="#m2baaec0142" y="178.651037"/>
     <use style="stroke:#000000;" x="119.415487" xlink:href="#m2baaec0142" y="140.262468"/>
     <use style="stroke:#000000;" x="104.859223" xlink:href="#m2baaec0142" y="129.782915"/>
     <use style="stroke:#000000;" x="94.073348" xlink:href="#m2baaec0142" y="135.808875"/>
     <use style="stroke:#000000;" x="118.005195" xlink:href="#m2baaec0142" y="170.181206"/>
     <use style="stroke:#000000;" x="82.103193" xlink:href="#m2baaec0142" y="90.916527"/>
     <use style="stroke:#000000;" x="81.752856" xlink:href="#m2baaec0142" y="86.584591"/>
     <use style="stroke:#000000;" x="85.038317" xlink:href="#m2baaec0142" y="110.171495"/>
     <use style="stroke:#000000;" x="85.100471" xlink:href="#m2baaec0142" y="110.785434"/>
     <use style="stroke:#000000;" x="82.442884" xlink:href="#m2baaec0142" y="91.606894"/>
     <use style="stroke:#000000;" x="115.260054" xlink:href="#m2baaec0142" y="158.505422"/>
     <use style="stroke:#000000;" x="135.267339" xlink:href="#m2baaec0142" y="159.663631"/>
     <use style="stroke:#000000;" x="134.098185" xlink:href="#m2baaec0142" y="147.875481"/>
     <use style="stroke:#000000;" x="187.825728" xlink:href="#m2baaec0142" y="164.08812"/>
     <use style="stroke:#000000;" x="110.835927" xlink:href="#m2baaec0142" y="140.789544"/>
     <use style="stroke:#000000;" x="84.78049" xlink:href="#m2baaec0142" y="100.764729"/>
     <use style="stroke:#000000;" x="92.910149" xlink:href="#m2baaec0142" y="116.676034"/>
     <use style="stroke:#000000;" x="90.559903" xlink:href="#m2baaec0142" y="128.405037"/>
     <use style="stroke:#000000;" x="155.011368" xlink:href="#m2baaec0142" y="155.793555"/>
     <use style="stroke:#000000;" x="113.513663" xlink:href="#m2baaec0142" y="147.762364"/>
     <use style="stroke:#000000;" x="97.83486" xlink:href="#m2baaec0142" y="129.688568"/>
     <use style="stroke:#000000;" x="83.23565" xlink:href="#m2baaec0142" y="95.412524"/>
     <use style="stroke:#000000;" x="100.641039" xlink:href="#m2baaec0142" y="125.835811"/>
     <use style="stroke:#000000;" x="98.147167" xlink:href="#m2baaec0142" y="123.20715"/>
     <use style="stroke:#000000;" x="83.901312" xlink:href="#m2baaec0142" y="99.460036"/>
     <use style="stroke:#000000;" x="85.611831" xlink:href="#m2baaec0142" y="103.067778"/>
     <use style="stroke:#000000;" x="167.1168" xlink:href="#m2baaec0142" y="159.3216"/>
     <use style="stroke:#000000;" x="138.896791" xlink:href="#m2baaec0142" y="164.636412"/>
     <use style="stroke:#000000;" x="145.314395" xlink:href="#m2baaec0142" y="152.456772"/>
     <use style="stroke:#000000;" x="144.027958" xlink:href="#m2baaec0142" y="174.304571"/>
     <use style="stroke:#000000;" x="88.646435" xlink:href="#m2baaec0142" y="109.741883"/>
     <use style="stroke:#000000;" x="103.364873" xlink:href="#m2baaec0142" y="145.419751"/>
     <use style="stroke:#000000;" x="125.540267" xlink:href="#m2baaec0142" y="155.780219"/>
     <use style="stroke:#000000;" x="122.827131" xlink:href="#m2baaec0142" y="161.843126"/>
     <use style="stroke:#000000;" x="124.993713" xlink:href="#m2baaec0142" y="160.713845"/>
     <use style="stroke:#000000;" x="167.1168" xlink:href="#m2baaec0142" y="159.3216"/>
     <use style="stroke:#000000;" x="128.948569" xlink:href="#m2baaec0142" y="174.066917"/>
     <use style="stroke:#000000;" x="161.843703" xlink:href="#m2baaec0142" y="157.862588"/>
     <use style="stroke:#000000;" x="167.1168" xlink:href="#m2baaec0142" y="159.3216"/>
     <use style="stroke:#000000;" x="167.1168" xlink:href="#m2baaec0142" y="159.3216"/>
     <use style="stroke:#000000;" x="132.923564" xlink:href="#m2baaec0142" y="151.216575"/>
     <use style="stroke:#000000;" x="112.883187" xlink:href="#m2baaec0142" y="144.089828"/>
     <use style="stroke:#000000;" x="84.197741" xlink:href="#m2baaec0142" y="98.950163"/>
     <use style="stroke:#000000;" x="155.462033" xlink:href="#m2baaec0142" y="155.936715"/>
     <use style="stroke:#000000;" x="133.869943" xlink:href="#m2baaec0142" y="147.772708"/>
     <use style="stroke:#000000;" x="147.7426" xlink:href="#m2baaec0142" y="153.340939"/>
     <use style="stroke:#000000;" x="92.04032" xlink:href="#m2baaec0142" y="125.061858"/>
     <use style="stroke:#000000;" x="86.364159" xlink:href="#m2baaec0142" y="106.364493"/>
     <use style="stroke:#000000;" x="104.287203" xlink:href="#m2baaec0142" y="129.279202"/>
     <use style="stroke:#000000;" x="83.038585" xlink:href="#m2baaec0142" y="94.567733"/>
     <use style="stroke:#000000;" x="87.510855" xlink:href="#m2baaec0142" y="107.484549"/>
     <use style="stroke:#000000;" x="93.788196" xlink:href="#m2baaec0142" y="117.890878"/>
     <use style="stroke:#000000;" x="167.1168" xlink:href="#m2baaec0142" y="159.3216"/>
     <use style="stroke:#000000;" x="112.995347" xlink:href="#m2baaec0142" y="148.430345"/>
    </g>
   </g>
   <g id="PathCollection_2">
    <defs>
     <path d="M 0 0.935414 
C 0.248075 0.935414 0.486022 0.836853 0.661438 0.661438 
C 0.836853 0.486022 0.935414 0.248075 0.935414 0 
C 0.935414 -0.248075 0.836853 -0.486022 0.661438 -0.661438 
C 0.486022 -0.836853 0.248075 -0.935414 0 -0.935414 
C -0.248075 -0.935414 -0.486022 -0.836853 -0.661438 -0.661438 
C -0.836853 -0.486022 -0.935414 -0.248075 -0.935414 0 
C -0.935414 0.248075 -0.836853 0.486022 -0.661438 0.661438 
C -0.486022 0.836853 -0.248075 0.935414 0 0.935414 
z
" id="ma2a7d397ad" style="stroke:#0000ff;"/>
    </defs>
    <g clip-path="url(#pd9f44b9342)">
     <use style="fill:#0000ff;stroke:#0000ff;" x="81.61609" xlink:href="#ma2a7d397ad" y="85.024467"/>
     <use style="fill:#0000ff;stroke:#0000ff;" x="81.408" xlink:href="#ma2a7d397ad" y="79.488"/>
     <use style="fill:#0000ff;stroke:#0000ff;" x="141.666673" xlink:href="#ma2a7d397ad" y="151.061055"/>
     <use style="fill:#0000ff;stroke:#0000ff;" x="375.789947" xlink:href="#ma2a7d397ad" y="244.487675"/>
     <use style="fill:#0000ff;stroke:#0000ff;" x="92.031843" xlink:href="#ma2a7d397ad" y="115.399825"/>
     <use style="fill:#0000ff;stroke:#0000ff;" x="167.1168" xlink:href="#ma2a7d397ad" y="159.3216"/>
     <use style="fill:#0000ff;stroke:#0000ff;" x="81.873115" xlink:href="#ma2a7d397ad" y="87.703795"/>
     <use style="fill:#0000ff;stroke:#0000ff;" x="87.68713" xlink:href="#ma2a7d397ad" y="107.850563"/>
     <use style="fill:#0000ff;stroke:#0000ff;" x="81.408" xlink:href="#ma2a7d397ad" y="79.488"/>
     <use style="fill:#0000ff;stroke:#0000ff;" x="119.816963" xlink:href="#ma2a7d397ad" y="140.502263"/>
     <use style="fill:#0000ff;stroke:#0000ff;" x="119.390893" xlink:href="#ma2a7d397ad" y="140.247709"/>
     <use style="fill:#0000ff;stroke:#0000ff;" x="112.948497" xlink:href="#ma2a7d397ad" y="136.081805"/>
     <use style="fill:#0000ff;stroke:#0000ff;" x="380.909729" xlink:href="#ma2a7d397ad" y="246.55522"/>
     <use style="fill:#0000ff;stroke:#0000ff;" x="82.475666" xlink:href="#ma2a7d397ad" y="91.790747"/>
     <use style="fill:#0000ff;stroke:#0000ff;" x="128.200653" xlink:href="#ma2a7d397ad" y="145.076891"/>
     <use style="fill:#0000ff;stroke:#0000ff;" x="111.349651" xlink:href="#ma2a7d397ad" y="134.943703"/>
     <use style="fill:#0000ff;stroke:#0000ff;" x="131.618463" xlink:href="#ma2a7d397ad" y="146.735832"/>
     <use style="fill:#0000ff;stroke:#0000ff;" x="136.808183" xlink:href="#ma2a7d397ad" y="149.064419"/>
     <use style="fill:#0000ff;stroke:#0000ff;" x="369.623292" xlink:href="#ma2a7d397ad" y="241.740472"/>
     <use style="fill:#0000ff;stroke:#0000ff;" x="300.906946" xlink:href="#ma2a7d397ad" y="174.377337"/>
     <use style="fill:#0000ff;stroke:#0000ff;" x="148.18222" xlink:href="#ma2a7d397ad" y="153.497366"/>
     <use style="fill:#0000ff;stroke:#0000ff;" x="107.773186" xlink:href="#ma2a7d397ad" y="132.217536"/>
     <use style="fill:#0000ff;stroke:#0000ff;" x="167.1168" xlink:href="#ma2a7d397ad" y="159.3216"/>
     <use style="fill:#0000ff;stroke:#0000ff;" x="222.030701" xlink:href="#ma2a7d397ad" y="169.436336"/>
     <use style="fill:#0000ff;stroke:#0000ff;" x="320.042195" xlink:href="#ma2a7d397ad" y="183.477548"/>
     <use style="fill:#0000ff;stroke:#0000ff;" x="167.1168" xlink:href="#ma2a7d397ad" y="159.3216"/>
     <use style="fill:#0000ff;stroke:#0000ff;" x="86.064523" xlink:href="#ma2a7d397ad" y="104.212259"/>
     <use style="fill:#0000ff;stroke:#0000ff;" x="100.118084" xlink:href="#ma2a7d397ad" y="125.30502"/>
     <use style="fill:#0000ff;stroke:#0000ff;" x="112.482251" xlink:href="#ma2a7d397ad" y="135.754664"/>
     <use style="fill:#0000ff;stroke:#0000ff;" x="333.805378" xlink:href="#ma2a7d397ad" y="215.425558"/>
     <use style="fill:#0000ff;stroke:#0000ff;" x="362.315878" xlink:href="#ma2a7d397ad" y="238.050543"/>
     <use style="fill:#0000ff;stroke:#0000ff;" x="343.726598" xlink:href="#ma2a7d397ad" y="225.501816"/>
     <use style="fill:#0000ff;stroke:#0000ff;" x="374.650403" xlink:href="#ma2a7d397ad" y="244.002355"/>
     <use style="fill:#0000ff;stroke:#0000ff;" x="81.540926" xlink:href="#ma2a7d397ad" y="83.926325"/>
     <use style="fill:#0000ff;stroke:#0000ff;" x="94.270416" xlink:href="#ma2a7d397ad" y="118.534477"/>
     <use style="fill:#0000ff;stroke:#0000ff;" x="85.28532" xlink:href="#ma2a7d397ad" y="102.197405"/>
     <use style="fill:#0000ff;stroke:#0000ff;" x="397.359549" xlink:href="#ma2a7d397ad" y="252.150898"/>
     <use style="fill:#0000ff;stroke:#0000ff;" x="81.408" xlink:href="#ma2a7d397ad" y="79.488"/>
     <use style="fill:#0000ff;stroke:#0000ff;" x="106.425247" xlink:href="#ma2a7d397ad" y="131.11745"/>
     <use style="fill:#0000ff;stroke:#0000ff;" x="82.581873" xlink:href="#ma2a7d397ad" y="92.366454"/>
     <use style="fill:#0000ff;stroke:#0000ff;" x="253.311631" xlink:href="#ma2a7d397ad" y="172.381901"/>
     <use style="fill:#0000ff;stroke:#0000ff;" x="81.424868" xlink:href="#ma2a7d397ad" y="81.081228"/>
     <use style="fill:#0000ff;stroke:#0000ff;" x="122.180194" xlink:href="#ma2a7d397ad" y="141.872559"/>
     <use style="fill:#0000ff;stroke:#0000ff;" x="141.094776" xlink:href="#ma2a7d397ad" y="150.834483"/>
     <use style="fill:#0000ff;stroke:#0000ff;" x="358.893278" xlink:href="#ma2a7d397ad" y="236.128407"/>
     <use style="fill:#0000ff;stroke:#0000ff;" x="319.488" xlink:href="#ma2a7d397ad" y="174.528"/>
     <use style="fill:#0000ff;stroke:#0000ff;" x="105.334884" xlink:href="#ma2a7d397ad" y="130.195004"/>
     <use style="fill:#0000ff;stroke:#0000ff;" x="88.737719" xlink:href="#ma2a7d397ad" y="109.913773"/>
     <use style="fill:#0000ff;stroke:#0000ff;" x="81.891188" xlink:href="#ma2a7d397ad" y="87.858251"/>
     <use style="fill:#0000ff;stroke:#0000ff;" x="81.632646" xlink:href="#ma2a7d397ad" y="85.23713"/>
     <use style="fill:#0000ff;stroke:#0000ff;" x="86.171232" xlink:href="#ma2a7d397ad" y="104.472526"/>
     <use style="fill:#0000ff;stroke:#0000ff;" x="116.870625" xlink:href="#ma2a7d397ad" y="138.691732"/>
     <use style="fill:#0000ff;stroke:#0000ff;" x="138.18307" xlink:href="#ma2a7d397ad" y="149.646375"/>
     <use style="fill:#0000ff;stroke:#0000ff;" x="94.225476" xlink:href="#ma2a7d397ad" y="118.475167"/>
     <use style="fill:#0000ff;stroke:#0000ff;" x="85.710046" xlink:href="#ma2a7d397ad" y="103.321921"/>
     <use style="fill:#0000ff;stroke:#0000ff;" x="141.394232" xlink:href="#ma2a7d397ad" y="150.953391"/>
     <use style="fill:#0000ff;stroke:#0000ff;" x="86.509928" xlink:href="#ma2a7d397ad" y="105.27679"/>
     <use style="fill:#0000ff;stroke:#0000ff;" x="94.247218" xlink:href="#ma2a7d397ad" y="118.503879"/>
     <use style="fill:#0000ff;stroke:#0000ff;" x="82.028198" xlink:href="#ma2a7d397ad" y="88.941947"/>
     <use style="fill:#0000ff;stroke:#0000ff;" x="167.1168" xlink:href="#ma2a7d397ad" y="159.3216"/>
     <use style="fill:#0000ff;stroke:#0000ff;" x="139.230121" xlink:href="#ma2a7d397ad" y="150.08041"/>
     <use style="fill:#0000ff;stroke:#0000ff;" x="106.976312" xlink:href="#ma2a7d397ad" y="131.572394"/>
     <use style="fill:#0000ff;stroke:#0000ff;" x="138.740193" xlink:href="#ma2a7d397ad" y="149.878288"/>
     <use style="fill:#0000ff;stroke:#0000ff;" x="124.801552" xlink:href="#ma2a7d397ad" y="143.315395"/>
     <use style="fill:#0000ff;stroke:#0000ff;" x="167.528359" xlink:href="#ma2a7d397ad" y="167.060287"/>
     <use style="fill:#0000ff;stroke:#0000ff;" x="167.1168" xlink:href="#ma2a7d397ad" y="159.3216"/>
     <use style="fill:#0000ff;stroke:#0000ff;" x="167.1168" xlink:href="#ma2a7d397ad" y="159.3216"/>
     <use style="fill:#0000ff;stroke:#0000ff;" x="116.369593" xlink:href="#ma2a7d397ad" y="138.371664"/>
     <use style="fill:#0000ff;stroke:#0000ff;" x="81.557261" xlink:href="#ma2a7d397ad" y="84.187767"/>
     <use style="fill:#0000ff;stroke:#0000ff;" x="167.1168" xlink:href="#ma2a7d397ad" y="159.3216"/>
     <use style="fill:#0000ff;stroke:#0000ff;" x="143.810689" xlink:href="#ma2a7d397ad" y="151.891539"/>
     <use style="fill:#0000ff;stroke:#0000ff;" x="129.028398" xlink:href="#ma2a7d397ad" y="145.48853"/>
     <use style="fill:#0000ff;stroke:#0000ff;" x="83.484016" xlink:href="#ma2a7d397ad" y="96.620719"/>
     <use style="fill:#0000ff;stroke:#0000ff;" x="81.408" xlink:href="#ma2a7d397ad" y="79.488"/>
     <use style="fill:#0000ff;stroke:#0000ff;" x="110.96312" xlink:href="#ma2a7d397ad" y="134.661488"/>
     <use style="fill:#0000ff;stroke:#0000ff;" x="81.509749" xlink:href="#ma2a7d397ad" y="83.376913"/>
     <use style="fill:#0000ff;stroke:#0000ff;" x="83.093563" xlink:href="#ma2a7d397ad" y="94.80878"/>
     <use style="fill:#0000ff;stroke:#0000ff;" x="101.271856" xlink:href="#ma2a7d397ad" y="126.462826"/>
     <use style="fill:#0000ff;stroke:#0000ff;" x="146.877166" xlink:href="#ma2a7d397ad" y="153.029767"/>
     <use style="fill:#0000ff;stroke:#0000ff;" x="105.827663" xlink:href="#ma2a7d397ad" y="130.615644"/>
    </g>
   </g>
   <g id="matplotlib.axis_1">
    <g id="xtick_1">
     <g id="line2d_1">
      <defs>
       <path d="M 0 0 
L 0 3.5 
" id="m85a12da355" style="stroke:#000000;stroke-width:0.8;"/>
      </defs>
      <g>
       <use style="stroke:#000000;stroke-width:0.8;" x="81.408" xlink:href="#m85a12da355" y="307.584"/>
      </g>
     </g>
     <g id="text_1">
      <!-- 0 -->
      <defs>
       <path d="M 31.78125 66.40625 
Q 24.171875 66.40625 20.328125 58.90625 
Q 16.5 51.421875 16.5 36.375 
Q 16.5 21.390625 20.328125 13.890625 
Q 24.171875 6.390625 31.78125 6.390625 
Q 39.453125 6.390625 43.28125 13.890625 
Q 47.125 21.390625 47.125 36.375 
Q 47.125 51.421875 43.28125 58.90625 
Q 39.453125 66.40625 31.78125 66.40625 
z
M 31.78125 74.21875 
Q 44.046875 74.21875 50.515625 64.515625 
Q 56.984375 54.828125 56.984375 36.375 
Q 56.984375 17.96875 50.515625 8.265625 
Q 44.046875 -1.421875 31.78125 -1.421875 
Q 19.53125 -1.421875 13.0625 8.265625 
Q 6.59375 17.96875 6.59375 36.375 
Q 6.59375 54.828125 13.0625 64.515625 
Q 19.53125 74.21875 31.78125 74.21875 
z
" id="DejaVuSans-30"/>
      </defs>
      <g transform="translate(78.22675 322.182437)scale(0.1 -0.1)">
       <use xlink:href="#DejaVuSans-30"/>
      </g>
     </g>
    </g>
    <g id="xtick_2">
     <g id="line2d_2">
      <g>
       <use style="stroke:#000000;stroke-width:0.8;" x="129.024" xlink:href="#m85a12da355" y="307.584"/>
      </g>
     </g>
     <g id="text_2">
      <!-- 20 -->
      <defs>
       <path d="M 19.1875 8.296875 
L 53.609375 8.296875 
L 53.609375 0 
L 7.328125 0 
L 7.328125 8.296875 
Q 12.9375 14.109375 22.625 23.890625 
Q 32.328125 33.6875 34.8125 36.53125 
Q 39.546875 41.84375 41.421875 45.53125 
Q 43.3125 49.21875 43.3125 52.78125 
Q 43.3125 58.59375 39.234375 62.25 
Q 35.15625 65.921875 28.609375 65.921875 
Q 23.96875 65.921875 18.8125 64.3125 
Q 13.671875 62.703125 7.8125 59.421875 
L 7.8125 69.390625 
Q 13.765625 71.78125 18.9375 73 
Q 24.125 74.21875 28.421875 74.21875 
Q 39.75 74.21875 46.484375 68.546875 
Q 53.21875 62.890625 53.21875 53.421875 
Q 53.21875 48.921875 51.53125 44.890625 
Q 49.859375 40.875 45.40625 35.40625 
Q 44.1875 33.984375 37.640625 27.21875 
Q 31.109375 20.453125 19.1875 8.296875 
z
" id="DejaVuSans-32"/>
      </defs>
      <g transform="translate(122.6615 322.182437)scale(0.1 -0.1)">
       <use xlink:href="#DejaVuSans-32"/>
       <use x="63.623047" xlink:href="#DejaVuSans-30"/>
      </g>
     </g>
    </g>
    <g id="xtick_3">
     <g id="line2d_3">
      <g>
       <use style="stroke:#000000;stroke-width:0.8;" x="176.64" xlink:href="#m85a12da355" y="307.584"/>
      </g>
     </g>
     <g id="text_3">
      <!-- 40 -->
      <defs>
       <path d="M 37.796875 64.3125 
L 12.890625 25.390625 
L 37.796875 25.390625 
z
M 35.203125 72.90625 
L 47.609375 72.90625 
L 47.609375 25.390625 
L 58.015625 25.390625 
L 58.015625 17.1875 
L 47.609375 17.1875 
L 47.609375 0 
L 37.796875 0 
L 37.796875 17.1875 
L 4.890625 17.1875 
L 4.890625 26.703125 
z
" id="DejaVuSans-34"/>
      </defs>
      <g transform="translate(170.2775 322.182437)scale(0.1 -0.1)">
       <use xlink:href="#DejaVuSans-34"/>
       <use x="63.623047" xlink:href="#DejaVuSans-30"/>
      </g>
     </g>
    </g>
    <g id="xtick_4">
     <g id="line2d_4">
      <g>
       <use style="stroke:#000000;stroke-width:0.8;" x="224.256" xlink:href="#m85a12da355" y="307.584"/>
      </g>
     </g>
     <g id="text_4">
      <!-- 60 -->
      <defs>
       <path d="M 33.015625 40.375 
Q 26.375 40.375 22.484375 35.828125 
Q 18.609375 31.296875 18.609375 23.390625 
Q 18.609375 15.53125 22.484375 10.953125 
Q 26.375 6.390625 33.015625 6.390625 
Q 39.65625 6.390625 43.53125 10.953125 
Q 47.40625 15.53125 47.40625 23.390625 
Q 47.40625 31.296875 43.53125 35.828125 
Q 39.65625 40.375 33.015625 40.375 
z
M 52.59375 71.296875 
L 52.59375 62.3125 
Q 48.875 64.0625 45.09375 64.984375 
Q 41.3125 65.921875 37.59375 65.921875 
Q 27.828125 65.921875 22.671875 59.328125 
Q 17.53125 52.734375 16.796875 39.40625 
Q 19.671875 43.65625 24.015625 45.921875 
Q 28.375 48.1875 33.59375 48.1875 
Q 44.578125 48.1875 50.953125 41.515625 
Q 57.328125 34.859375 57.328125 23.390625 
Q 57.328125 12.15625 50.6875 5.359375 
Q 44.046875 -1.421875 33.015625 -1.421875 
Q 20.359375 -1.421875 13.671875 8.265625 
Q 6.984375 17.96875 6.984375 36.375 
Q 6.984375 53.65625 15.1875 63.9375 
Q 23.390625 74.21875 37.203125 74.21875 
Q 40.921875 74.21875 44.703125 73.484375 
Q 48.484375 72.75 52.59375 71.296875 
z
" id="DejaVuSans-36"/>
      </defs>
      <g transform="translate(217.8935 322.182437)scale(0.1 -0.1)">
       <use xlink:href="#DejaVuSans-36"/>
       <use x="63.623047" xlink:href="#DejaVuSans-30"/>
      </g>
     </g>
    </g>
    <g id="xtick_5">
     <g id="line2d_5">
      <g>
       <use style="stroke:#000000;stroke-width:0.8;" x="271.872" xlink:href="#m85a12da355" y="307.584"/>
      </g>
     </g>
     <g id="text_5">
      <!-- 80 -->
      <defs>
       <path d="M 31.78125 34.625 
Q 24.75 34.625 20.71875 30.859375 
Q 16.703125 27.09375 16.703125 20.515625 
Q 16.703125 13.921875 20.71875 10.15625 
Q 24.75 6.390625 31.78125 6.390625 
Q 38.8125 6.390625 42.859375 10.171875 
Q 46.921875 13.96875 46.921875 20.515625 
Q 46.921875 27.09375 42.890625 30.859375 
Q 38.875 34.625 31.78125 34.625 
z
M 21.921875 38.8125 
Q 15.578125 40.375 12.03125 44.71875 
Q 8.5 49.078125 8.5 55.328125 
Q 8.5 64.0625 14.71875 69.140625 
Q 20.953125 74.21875 31.78125 74.21875 
Q 42.671875 74.21875 48.875 69.140625 
Q 55.078125 64.0625 55.078125 55.328125 
Q 55.078125 49.078125 51.53125 44.71875 
Q 48 40.375 41.703125 38.8125 
Q 48.828125 37.15625 52.796875 32.3125 
Q 56.78125 27.484375 56.78125 20.515625 
Q 56.78125 9.90625 50.3125 4.234375 
Q 43.84375 -1.421875 31.78125 -1.421875 
Q 19.734375 -1.421875 13.25 4.234375 
Q 6.78125 9.90625 6.78125 20.515625 
Q 6.78125 27.484375 10.78125 32.3125 
Q 14.796875 37.15625 21.921875 38.8125 
z
M 18.3125 54.390625 
Q 18.3125 48.734375 21.84375 45.5625 
Q 25.390625 42.390625 31.78125 42.390625 
Q 38.140625 42.390625 41.71875 45.5625 
Q 45.3125 48.734375 45.3125 54.390625 
Q 45.3125 60.0625 41.71875 63.234375 
Q 38.140625 66.40625 31.78125 66.40625 
Q 25.390625 66.40625 21.84375 63.234375 
Q 18.3125 60.0625 18.3125 54.390625 
z
" id="DejaVuSans-38"/>
      </defs>
      <g transform="translate(265.5095 322.182437)scale(0.1 -0.1)">
       <use xlink:href="#DejaVuSans-38"/>
       <use x="63.623047" xlink:href="#DejaVuSans-30"/>
      </g>
     </g>
    </g>
    <g id="xtick_6">
     <g id="line2d_6">
      <g>
       <use style="stroke:#000000;stroke-width:0.8;" x="319.488" xlink:href="#m85a12da355" y="307.584"/>
      </g>
     </g>
     <g id="text_6">
      <!-- 100 -->
      <defs>
       <path d="M 12.40625 8.296875 
L 28.515625 8.296875 
L 28.515625 63.921875 
L 10.984375 60.40625 
L 10.984375 69.390625 
L 28.421875 72.90625 
L 38.28125 72.90625 
L 38.28125 8.296875 
L 54.390625 8.296875 
L 54.390625 0 
L 12.40625 0 
z
" id="DejaVuSans-31"/>
      </defs>
      <g transform="translate(309.94425 322.182437)scale(0.1 -0.1)">
       <use xlink:href="#DejaVuSans-31"/>
       <use x="63.623047" xlink:href="#DejaVuSans-30"/>
       <use x="127.246094" xlink:href="#DejaVuSans-30"/>
      </g>
     </g>
    </g>
    <g id="xtick_7">
     <g id="line2d_7">
      <g>
       <use style="stroke:#000000;stroke-width:0.8;" x="367.104" xlink:href="#m85a12da355" y="307.584"/>
      </g>
     </g>
     <g id="text_7">
      <!-- 120 -->
      <g transform="translate(357.56025 322.182437)scale(0.1 -0.1)">
       <use xlink:href="#DejaVuSans-31"/>
       <use x="63.623047" xlink:href="#DejaVuSans-32"/>
       <use x="127.246094" xlink:href="#DejaVuSans-30"/>
      </g>
     </g>
    </g>
    <g id="xtick_8">
     <g id="line2d_8">
      <g>
       <use style="stroke:#000000;stroke-width:0.8;" x="414.72" xlink:href="#m85a12da355" y="307.584"/>
      </g>
     </g>
     <g id="text_8">
      <!-- 140 -->
      <g transform="translate(405.17625 322.182437)scale(0.1 -0.1)">
       <use xlink:href="#DejaVuSans-31"/>
       <use x="63.623047" xlink:href="#DejaVuSans-34"/>
       <use x="127.246094" xlink:href="#DejaVuSans-30"/>
      </g>
     </g>
    </g>
   </g>
   <g id="matplotlib.axis_2">
    <g id="ytick_1">
     <g id="line2d_9">
      <defs>
       <path d="M 0 0 
L -3.5 0 
" id="m15daece0d9" style="stroke:#000000;stroke-width:0.8;"/>
      </defs>
      <g>
       <use style="stroke:#000000;stroke-width:0.8;" x="57.6" xlink:href="#m15daece0d9" y="307.584"/>
      </g>
     </g>
     <g id="text_9">
      <!-- −10 -->
      <defs>
       <path d="M 10.59375 35.5 
L 73.1875 35.5 
L 73.1875 27.203125 
L 10.59375 27.203125 
z
" id="DejaVuSans-2212"/>
      </defs>
      <g transform="translate(29.495313 311.383219)scale(0.1 -0.1)">
       <use xlink:href="#DejaVuSans-2212"/>
       <use x="83.789062" xlink:href="#DejaVuSans-31"/>
       <use x="147.412109" xlink:href="#DejaVuSans-30"/>
      </g>
     </g>
    </g>
    <g id="ytick_2">
     <g id="line2d_10">
      <g>
       <use style="stroke:#000000;stroke-width:0.8;" x="57.6" xlink:href="#m15daece0d9" y="269.568"/>
      </g>
     </g>
     <g id="text_10">
      <!-- 0 -->
      <g transform="translate(44.2375 273.367219)scale(0.1 -0.1)">
       <use xlink:href="#DejaVuSans-30"/>
      </g>
     </g>
    </g>
    <g id="ytick_3">
     <g id="line2d_11">
      <g>
       <use style="stroke:#000000;stroke-width:0.8;" x="57.6" xlink:href="#m15daece0d9" y="231.552"/>
      </g>
     </g>
     <g id="text_11">
      <!-- 10 -->
      <g transform="translate(37.875 235.351219)scale(0.1 -0.1)">
       <use xlink:href="#DejaVuSans-31"/>
       <use x="63.623047" xlink:href="#DejaVuSans-30"/>
      </g>
     </g>
    </g>
    <g id="ytick_4">
     <g id="line2d_12">
      <g>
       <use style="stroke:#000000;stroke-width:0.8;" x="57.6" xlink:href="#m15daece0d9" y="193.536"/>
      </g>
     </g>
     <g id="text_12">
      <!-- 20 -->
      <g transform="translate(37.875 197.335219)scale(0.1 -0.1)">
       <use xlink:href="#DejaVuSans-32"/>
       <use x="63.623047" xlink:href="#DejaVuSans-30"/>
      </g>
     </g>
    </g>
    <g id="ytick_5">
     <g id="line2d_13">
      <g>
       <use style="stroke:#000000;stroke-width:0.8;" x="57.6" xlink:href="#m15daece0d9" y="155.52"/>
      </g>
     </g>
     <g id="text_13">
      <!-- 30 -->
      <defs>
       <path d="M 40.578125 39.3125 
Q 47.65625 37.796875 51.625 33 
Q 55.609375 28.21875 55.609375 21.1875 
Q 55.609375 10.40625 48.1875 4.484375 
Q 40.765625 -1.421875 27.09375 -1.421875 
Q 22.515625 -1.421875 17.65625 -0.515625 
Q 12.796875 0.390625 7.625 2.203125 
L 7.625 11.71875 
Q 11.71875 9.328125 16.59375 8.109375 
Q 21.484375 6.890625 26.8125 6.890625 
Q 36.078125 6.890625 40.9375 10.546875 
Q 45.796875 14.203125 45.796875 21.1875 
Q 45.796875 27.640625 41.28125 31.265625 
Q 36.765625 34.90625 28.71875 34.90625 
L 20.21875 34.90625 
L 20.21875 43.015625 
L 29.109375 43.015625 
Q 36.375 43.015625 40.234375 45.921875 
Q 44.09375 48.828125 44.09375 54.296875 
Q 44.09375 59.90625 40.109375 62.90625 
Q 36.140625 65.921875 28.71875 65.921875 
Q 24.65625 65.921875 20.015625 65.03125 
Q 15.375 64.15625 9.8125 62.3125 
L 9.8125 71.09375 
Q 15.4375 72.65625 20.34375 73.4375 
Q 25.25 74.21875 29.59375 74.21875 
Q 40.828125 74.21875 47.359375 69.109375 
Q 53.90625 64.015625 53.90625 55.328125 
Q 53.90625 49.265625 50.4375 45.09375 
Q 46.96875 40.921875 40.578125 39.3125 
z
" id="DejaVuSans-33"/>
      </defs>
      <g transform="translate(37.875 159.319219)scale(0.1 -0.1)">
       <use xlink:href="#DejaVuSans-33"/>
       <use x="63.623047" xlink:href="#DejaVuSans-30"/>
      </g>
     </g>
    </g>
    <g id="ytick_6">
     <g id="line2d_14">
      <g>
       <use style="stroke:#000000;stroke-width:0.8;" x="57.6" xlink:href="#m15daece0d9" y="117.504"/>
      </g>
     </g>
     <g id="text_14">
      <!-- 40 -->
      <g transform="translate(37.875 121.303219)scale(0.1 -0.1)">
       <use xlink:href="#DejaVuSans-34"/>
       <use x="63.623047" xlink:href="#DejaVuSans-30"/>
      </g>
     </g>
    </g>
    <g id="ytick_7">
     <g id="line2d_15">
      <g>
       <use style="stroke:#000000;stroke-width:0.8;" x="57.6" xlink:href="#m15daece0d9" y="79.488"/>
      </g>
     </g>
     <g id="text_15">
      <!-- 50 -->
      <defs>
       <path d="M 10.796875 72.90625 
L 49.515625 72.90625 
L 49.515625 64.59375 
L 19.828125 64.59375 
L 19.828125 46.734375 
Q 21.96875 47.46875 24.109375 47.828125 
Q 26.265625 48.1875 28.421875 48.1875 
Q 40.625 48.1875 47.75 41.5 
Q 54.890625 34.8125 54.890625 23.390625 
Q 54.890625 11.625 47.5625 5.09375 
Q 40.234375 -1.421875 26.90625 -1.421875 
Q 22.3125 -1.421875 17.546875 -0.640625 
Q 12.796875 0.140625 7.71875 1.703125 
L 7.71875 11.625 
Q 12.109375 9.234375 16.796875 8.0625 
Q 21.484375 6.890625 26.703125 6.890625 
Q 35.15625 6.890625 40.078125 11.328125 
Q 45.015625 15.765625 45.015625 23.390625 
Q 45.015625 31 40.078125 35.4375 
Q 35.15625 39.890625 26.703125 39.890625 
Q 22.75 39.890625 18.8125 39.015625 
Q 14.890625 38.140625 10.796875 36.28125 
z
" id="DejaVuSans-35"/>
      </defs>
      <g transform="translate(37.875 83.287219)scale(0.1 -0.1)">
       <use xlink:href="#DejaVuSans-35"/>
       <use x="63.623047" xlink:href="#DejaVuSans-30"/>
      </g>
     </g>
    </g>
    <g id="ytick_8">
     <g id="line2d_16">
      <g>
       <use style="stroke:#000000;stroke-width:0.8;" x="57.6" xlink:href="#m15daece0d9" y="41.472"/>
      </g>
     </g>
     <g id="text_16">
      <!-- 60 -->
      <g transform="translate(37.875 45.271219)scale(0.1 -0.1)">
       <use xlink:href="#DejaVuSans-36"/>
       <use x="63.623047" xlink:href="#DejaVuSans-30"/>
      </g>
     </g>
    </g>
   </g>
   <g id="patch_3">
    <path d="M 57.6 307.584 
L 57.6 41.472 
" style="fill:none;stroke:#000000;stroke-linecap:square;stroke-linejoin:miter;stroke-width:0.8;"/>
   </g>
   <g id="patch_4">
    <path d="M 414.72 307.584 
L 414.72 41.472 
" style="fill:none;stroke:#000000;stroke-linecap:square;stroke-linejoin:miter;stroke-width:0.8;"/>
   </g>
   <g id="patch_5">
    <path d="M 57.6 307.584 
L 414.72 307.584 
" style="fill:none;stroke:#000000;stroke-linecap:square;stroke-linejoin:miter;stroke-width:0.8;"/>
   </g>
   <g id="patch_6">
    <path d="M 57.6 41.472 
L 414.72 41.472 
" style="fill:none;stroke:#000000;stroke-linecap:square;stroke-linejoin:miter;stroke-width:0.8;"/>
   </g>
  </g>
 </g>
 <defs>
  <clipPath id="pd9f44b9342">
   <rect height="266.112" width="357.12" x="57.6" y="41.472"/>
  </clipPath>
 </defs>
</svg>
