<?xml version="1.0" encoding="utf-8" standalone="no"?>
<!DOCTYPE svg PUBLIC "-//W3C//DTD SVG 1.1//EN"
  "http://www.w3.org/Graphics/SVG/1.1/DTD/svg11.dtd">
<!-- Created with matplotlib (http://matplotlib.org/) -->
<svg height="345.6pt" version="1.1" viewBox="0 0 460.8 345.6" width="460.8pt" xmlns="http://www.w3.org/2000/svg" xmlns:xlink="http://www.w3.org/1999/xlink">
 <defs>
  <style type="text/css">
*{stroke-linecap:butt;stroke-linejoin:round;}
  </style>
 </defs>
 <g id="figure_1">
  <g id="patch_1">
   <path d="M 0 345.6 
L 460.8 345.6 
L 460.8 0 
L 0 0 
z
" style="fill:#ffffff;"/>
  </g>
  <g id="axes_1">
   <g id="patch_2">
    <path d="M 57.6 307.584 
L 414.72 307.584 
L 414.72 41.472 
L 57.6 41.472 
z
" style="fill:#ffffff;"/>
   </g>
   <g id="PathCollection_1">
    <defs>
     <path d="M 0 0.612372 
C 0.162403 0.612372 0.318176 0.547849 0.433013 0.433013 
C 0.547849 0.318176 0.612372 0.162403 0.612372 0 
C 0.612372 -0.162403 0.547849 -0.318176 0.433013 -0.433013 
C 0.318176 -0.547849 0.162403 -0.612372 0 -0.612372 
C -0.162403 -0.612372 -0.318176 -0.547849 -0.433013 -0.433013 
C -0.547849 -0.318176 -0.612372 -0.162403 -0.612372 0 
C -0.612372 0.162403 -0.547849 0.318176 -0.433013 0.433013 
C -0.318176 0.547849 -0.162403 0.612372 0 0.612372 
z
" id="m6f82dda379" style="stroke:#000000;"/>
    </defs>
    <g clip-path="url(#pcc94418355)">
     <use style="stroke:#000000;" x="118.870053" xlink:href="#m6f82dda379" y="139.933287"/>
     <use style="stroke:#000000;" x="83.981518" xlink:href="#m6f82dda379" y="98.223018"/>
     <use style="stroke:#000000;" x="167.1168" xlink:href="#m6f82dda379" y="159.3216"/>
     <use style="stroke:#000000;" x="93.513248" xlink:href="#m6f82dda379" y="117.516615"/>
     <use style="stroke:#000000;" x="167.1168" xlink:href="#m6f82dda379" y="159.3216"/>
     <use style="stroke:#000000;" x="81.61609" xlink:href="#m6f82dda379" y="85.024467"/>
     <use style="stroke:#000000;" x="81.408" xlink:href="#m6f82dda379" y="79.488"/>
     <use style="stroke:#000000;" x="141.666673" xlink:href="#m6f82dda379" y="151.061055"/>
     <use style="stroke:#000000;" x="375.789947" xlink:href="#m6f82dda379" y="244.487675"/>
     <use style="stroke:#000000;" x="92.031843" xlink:href="#m6f82dda379" y="115.399825"/>
     <use style="stroke:#000000;" x="167.1168" xlink:href="#m6f82dda379" y="159.3216"/>
     <use style="stroke:#000000;" x="81.873115" xlink:href="#m6f82dda379" y="87.703795"/>
     <use style="stroke:#000000;" x="87.68713" xlink:href="#m6f82dda379" y="107.850563"/>
     <use style="stroke:#000000;" x="81.408" xlink:href="#m6f82dda379" y="79.488"/>
     <use style="stroke:#000000;" x="119.816963" xlink:href="#m6f82dda379" y="140.502263"/>
     <use style="stroke:#000000;" x="119.390893" xlink:href="#m6f82dda379" y="140.247709"/>
     <use style="stroke:#000000;" x="112.948497" xlink:href="#m6f82dda379" y="136.081805"/>
     <use style="stroke:#000000;" x="380.909729" xlink:href="#m6f82dda379" y="246.55522"/>
     <use style="stroke:#000000;" x="82.475666" xlink:href="#m6f82dda379" y="91.790747"/>
     <use style="stroke:#000000;" x="128.200653" xlink:href="#m6f82dda379" y="145.076891"/>
     <use style="stroke:#000000;" x="111.349651" xlink:href="#m6f82dda379" y="134.943703"/>
     <use style="stroke:#000000;" x="131.618463" xlink:href="#m6f82dda379" y="146.735832"/>
     <use style="stroke:#000000;" x="136.808183" xlink:href="#m6f82dda379" y="149.064419"/>
     <use style="stroke:#000000;" x="369.623292" xlink:href="#m6f82dda379" y="241.740472"/>
     <use style="stroke:#000000;" x="300.906946" xlink:href="#m6f82dda379" y="174.377337"/>
     <use style="stroke:#000000;" x="167.1168" xlink:href="#m6f82dda379" y="159.3216"/>
     <use style="stroke:#000000;" x="148.18222" xlink:href="#m6f82dda379" y="153.497366"/>
     <use style="stroke:#000000;" x="362.315878" xlink:href="#m6f82dda379" y="238.050543"/>
     <use style="stroke:#000000;" x="374.650403" xlink:href="#m6f82dda379" y="244.002355"/>
     <use style="stroke:#000000;" x="112.482251" xlink:href="#m6f82dda379" y="135.754664"/>
     <use style="stroke:#000000;" x="127.402029" xlink:href="#m6f82dda379" y="144.673486"/>
     <use style="stroke:#000000;" x="85.28532" xlink:href="#m6f82dda379" y="102.197405"/>
     <use style="stroke:#000000;" x="94.270416" xlink:href="#m6f82dda379" y="118.534477"/>
     <use style="stroke:#000000;" x="112.15465" xlink:href="#m6f82dda379" y="135.522497"/>
     <use style="stroke:#000000;" x="89.126151" xlink:href="#m6f82dda379" y="110.631029"/>
     <use style="stroke:#000000;" x="343.726598" xlink:href="#m6f82dda379" y="225.501816"/>
     <use style="stroke:#000000;" x="156.648664" xlink:href="#m6f82dda379" y="156.308994"/>
     <use style="stroke:#000000;" x="81.408" xlink:href="#m6f82dda379" y="79.488"/>
     <use style="stroke:#000000;" x="107.773186" xlink:href="#m6f82dda379" y="132.217536"/>
     <use style="stroke:#000000;" x="106.425247" xlink:href="#m6f82dda379" y="131.11745"/>
     <use style="stroke:#000000;" x="93.22065" xlink:href="#m6f82dda379" y="117.11225"/>
     <use style="stroke:#000000;" x="83.015082" xlink:href="#m6f82dda379" y="94.463332"/>
     <use style="stroke:#000000;" x="81.540926" xlink:href="#m6f82dda379" y="83.926325"/>
     <use style="stroke:#000000;" x="167.1168" xlink:href="#m6f82dda379" y="159.3216"/>
     <use style="stroke:#000000;" x="222.030701" xlink:href="#m6f82dda379" y="169.436336"/>
     <use style="stroke:#000000;" x="167.1168" xlink:href="#m6f82dda379" y="159.3216"/>
     <use style="stroke:#000000;" x="94.20592" xlink:href="#m6f82dda379" y="118.449316"/>
     <use style="stroke:#000000;" x="164.425465" xlink:href="#m6f82dda379" y="158.591076"/>
     <use style="stroke:#000000;" x="320.042195" xlink:href="#m6f82dda379" y="183.477548"/>
     <use style="stroke:#000000;" x="86.064523" xlink:href="#m6f82dda379" y="104.212259"/>
     <use style="stroke:#000000;" x="167.1168" xlink:href="#m6f82dda379" y="159.3216"/>
     <use style="stroke:#000000;" x="167.1168" xlink:href="#m6f82dda379" y="159.3216"/>
     <use style="stroke:#000000;" x="84.55344" xlink:href="#m6f82dda379" y="100.08056"/>
     <use style="stroke:#000000;" x="83.038585" xlink:href="#m6f82dda379" y="94.567733"/>
     <use style="stroke:#000000;" x="319.488" xlink:href="#m6f82dda379" y="174.528"/>
     <use style="stroke:#000000;" x="167.1168" xlink:href="#m6f82dda379" y="159.3216"/>
     <use style="stroke:#000000;" x="108.745223" xlink:href="#m6f82dda379" y="132.984988"/>
     <use style="stroke:#000000;" x="397.359549" xlink:href="#m6f82dda379" y="252.150898"/>
     <use style="stroke:#000000;" x="100.118084" xlink:href="#m6f82dda379" y="125.30502"/>
     <use style="stroke:#000000;" x="122.180194" xlink:href="#m6f82dda379" y="141.872559"/>
     <use style="stroke:#000000;" x="347.639881" xlink:href="#m6f82dda379" y="228.652454"/>
     <use style="stroke:#000000;" x="81.408" xlink:href="#m6f82dda379" y="79.488"/>
     <use style="stroke:#000000;" x="141.094776" xlink:href="#m6f82dda379" y="150.834483"/>
     <use style="stroke:#000000;" x="167.1168" xlink:href="#m6f82dda379" y="159.3216"/>
     <use style="stroke:#000000;" x="249.732184" xlink:href="#m6f82dda379" y="172.120364"/>
     <use style="stroke:#000000;" x="102.445911" xlink:href="#m6f82dda379" y="127.593422"/>
     <use style="stroke:#000000;" x="128.418339" xlink:href="#m6f82dda379" y="145.185779"/>
     <use style="stroke:#000000;" x="103.089677" xlink:href="#m6f82dda379" y="128.194433"/>
     <use style="stroke:#000000;" x="81.960481" xlink:href="#m6f82dda379" y="88.424037"/>
     <use style="stroke:#000000;" x="81.765446" xlink:href="#m6f82dda379" y="86.710435"/>
     <use style="stroke:#000000;" x="87.510855" xlink:href="#m6f82dda379" y="107.484549"/>
     <use style="stroke:#000000;" x="86.042866" xlink:href="#m6f82dda379" y="104.159015"/>
     <use style="stroke:#000000;" x="93.788196" xlink:href="#m6f82dda379" y="117.890878"/>
     <use style="stroke:#000000;" x="81.558896" xlink:href="#m6f82dda379" y="84.213112"/>
     <use style="stroke:#000000;" x="167.1168" xlink:href="#m6f82dda379" y="159.3216"/>
     <use style="stroke:#000000;" x="133.209278" xlink:href="#m6f82dda379" y="147.472832"/>
     <use style="stroke:#000000;" x="153.208488" xlink:href="#m6f82dda379" y="155.210845"/>
     <use style="stroke:#000000;" x="137.134281" xlink:href="#m6f82dda379" y="149.203706"/>
     <use style="stroke:#000000;" x="82.581873" xlink:href="#m6f82dda379" y="92.366454"/>
     <use style="stroke:#000000;" x="104.265532" xlink:href="#m6f82dda379" y="129.259941"/>
     <use style="stroke:#000000;" x="111.860712" xlink:href="#m6f82dda379" y="135.312537"/>
     <use style="stroke:#000000;" x="82.732827" xlink:href="#m6f82dda379" y="93.13843"/>
     <use style="stroke:#000000;" x="95.630416" xlink:href="#m6f82dda379" y="120.268626"/>
     <use style="stroke:#000000;" x="82.195452" xlink:href="#m6f82dda379" y="90.105336"/>
     <use style="stroke:#000000;" x="81.583841" xlink:href="#m6f82dda379" y="84.583582"/>
     <use style="stroke:#000000;" x="170.553018" xlink:href="#m6f82dda379" y="180.785636"/>
     <use style="stroke:#000000;" x="167.1168" xlink:href="#m6f82dda379" y="159.3216"/>
     <use style="stroke:#000000;" x="168.244649" xlink:href="#m6f82dda379" y="171.95416"/>
     <use style="stroke:#000000;" x="97.556598" xlink:href="#m6f82dda379" y="135.759644"/>
     <use style="stroke:#000000;" x="100.984856" xlink:href="#m6f82dda379" y="126.179313"/>
     <use style="stroke:#000000;" x="85.895507" xlink:href="#m6f82dda379" y="103.792832"/>
     <use style="stroke:#000000;" x="167.1168" xlink:href="#m6f82dda379" y="159.3216"/>
     <use style="stroke:#000000;" x="167.1168" xlink:href="#m6f82dda379" y="159.3216"/>
     <use style="stroke:#000000;" x="167.1168" xlink:href="#m6f82dda379" y="159.3216"/>
     <use style="stroke:#000000;" x="81.663477" xlink:href="#m6f82dda379" y="85.61261"/>
     <use style="stroke:#000000;" x="81.633774" xlink:href="#m6f82dda379" y="87.495123"/>
     <use style="stroke:#000000;" x="81.408" xlink:href="#m6f82dda379" y="79.488"/>
     <use style="stroke:#000000;" x="82.274288" xlink:href="#m6f82dda379" y="90.608033"/>
     <use style="stroke:#000000;" x="81.408105" xlink:href="#m6f82dda379" y="79.614018"/>
     <use style="stroke:#000000;" x="81.885581" xlink:href="#m6f82dda379" y="87.810665"/>
     <use style="stroke:#000000;" x="125.359169" xlink:href="#m6f82dda379" y="143.61253"/>
     <use style="stroke:#000000;" x="145.650074" xlink:href="#m6f82dda379" y="152.581073"/>
     <use style="stroke:#000000;" x="153.588541" xlink:href="#m6f82dda379" y="155.335031"/>
     <use style="stroke:#000000;" x="376.911675" xlink:href="#m6f82dda379" y="244.956158"/>
     <use style="stroke:#000000;" x="324.199254" xlink:href="#m6f82dda379" y="242.196651"/>
     <use style="stroke:#000000;" x="359.975196" xlink:href="#m6f82dda379" y="244.204433"/>
     <use style="stroke:#000000;" x="82.629338" xlink:href="#m6f82dda379" y="92.614673"/>
     <use style="stroke:#000000;" x="99.028097" xlink:href="#m6f82dda379" y="129.705393"/>
     <use style="stroke:#000000;" x="104.561517" xlink:href="#m6f82dda379" y="129.521888"/>
     <use style="stroke:#000000;" x="161.070868" xlink:href="#m6f82dda379" y="157.639047"/>
     <use style="stroke:#000000;" x="167.1168" xlink:href="#m6f82dda379" y="159.3216"/>
     <use style="stroke:#000000;" x="152.77344" xlink:href="#m6f82dda379" y="155.067792"/>
     <use style="stroke:#000000;" x="81.668093" xlink:href="#m6f82dda379" y="86.746181"/>
     <use style="stroke:#000000;" x="81.730627" xlink:href="#m6f82dda379" y="89.15393"/>
     <use style="stroke:#000000;" x="81.885949" xlink:href="#m6f82dda379" y="87.813797"/>
     <use style="stroke:#000000;" x="94.90611" xlink:href="#m6f82dda379" y="128.66783"/>
     <use style="stroke:#000000;" x="91.220127" xlink:href="#m6f82dda379" y="114.159443"/>
     <use style="stroke:#000000;" x="92.293399" xlink:href="#m6f82dda379" y="115.786685"/>
     <use style="stroke:#000000;" x="81.663695" xlink:href="#m6f82dda379" y="88.023249"/>
     <use style="stroke:#000000;" x="81.495754" xlink:href="#m6f82dda379" y="83.102259"/>
     <use style="stroke:#000000;" x="86.011539" xlink:href="#m6f82dda379" y="111.10228"/>
     <use style="stroke:#000000;" x="122.736206" xlink:href="#m6f82dda379" y="144.357919"/>
     <use style="stroke:#000000;" x="139.216753" xlink:href="#m6f82dda379" y="150.074917"/>
     <use style="stroke:#000000;" x="123.148675" xlink:href="#m6f82dda379" y="142.414695"/>
     <use style="stroke:#000000;" x="136.217723" xlink:href="#m6f82dda379" y="152.540475"/>
     <use style="stroke:#000000;" x="104.042818" xlink:href="#m6f82dda379" y="129.061213"/>
     <use style="stroke:#000000;" x="122.035915" xlink:href="#m6f82dda379" y="141.790854"/>
     <use style="stroke:#000000;" x="123.796648" xlink:href="#m6f82dda379" y="147.732157"/>
     <use style="stroke:#000000;" x="117.38754" xlink:href="#m6f82dda379" y="164.112086"/>
     <use style="stroke:#000000;" x="110.316261" xlink:href="#m6f82dda379" y="136.627771"/>
     <use style="stroke:#000000;" x="349.356298" xlink:href="#m6f82dda379" y="244.980432"/>
     <use style="stroke:#000000;" x="344.767902" xlink:href="#m6f82dda379" y="243.193578"/>
     <use style="stroke:#000000;" x="384.826231" xlink:href="#m6f82dda379" y="254.179792"/>
     <use style="stroke:#000000;" x="81.681288" xlink:href="#m6f82dda379" y="85.818894"/>
     <use style="stroke:#000000;" x="82.202228" xlink:href="#m6f82dda379" y="94.69311"/>
     <use style="stroke:#000000;" x="81.65475" xlink:href="#m6f82dda379" y="85.508828"/>
     <use style="stroke:#000000;" x="131.480946" xlink:href="#m6f82dda379" y="146.671108"/>
     <use style="stroke:#000000;" x="115.53629" xlink:href="#m6f82dda379" y="137.831013"/>
     <use style="stroke:#000000;" x="128.23147" xlink:href="#m6f82dda379" y="150.895366"/>
     <use style="stroke:#000000;" x="113.987272" xlink:href="#m6f82dda379" y="136.797188"/>
     <use style="stroke:#000000;" x="130.287582" xlink:href="#m6f82dda379" y="157.848905"/>
     <use style="stroke:#000000;" x="141.600934" xlink:href="#m6f82dda379" y="153.837795"/>
     <use style="stroke:#000000;" x="160.3774" xlink:href="#m6f82dda379" y="157.436261"/>
     <use style="stroke:#000000;" x="136.485694" xlink:href="#m6f82dda379" y="148.925892"/>
     <use style="stroke:#000000;" x="149.623163" xlink:href="#m6f82dda379" y="182.194882"/>
     <use style="stroke:#000000;" x="135.535075" xlink:href="#m6f82dda379" y="148.512963"/>
     <use style="stroke:#000000;" x="382.076604" xlink:href="#m6f82dda379" y="247.002178"/>
     <use style="stroke:#000000;" x="302.576315" xlink:href="#m6f82dda379" y="237.065762"/>
     <use style="stroke:#000000;" x="359.691264" xlink:href="#m6f82dda379" y="249.273867"/>
     <use style="stroke:#000000;" x="262.723231" xlink:href="#m6f82dda379" y="172.987398"/>
     <use style="stroke:#000000;" x="319.488" xlink:href="#m6f82dda379" y="174.528"/>
     <use style="stroke:#000000;" x="223.903173" xlink:href="#m6f82dda379" y="173.023028"/>
     <use style="stroke:#000000;" x="157.591016" xlink:href="#m6f82dda379" y="174.393467"/>
     <use style="stroke:#000000;" x="168.630594" xlink:href="#m6f82dda379" y="173.874131"/>
     <use style="stroke:#000000;" x="161.673998" xlink:href="#m6f82dda379" y="157.813721"/>
     <use style="stroke:#000000;" x="128.875089" xlink:href="#m6f82dda379" y="145.412779"/>
     <use style="stroke:#000000;" x="322.257453" xlink:href="#m6f82dda379" y="248.393443"/>
     <use style="stroke:#000000;" x="350.06819" xlink:href="#m6f82dda379" y="249.155096"/>
     <use style="stroke:#000000;" x="361.233221" xlink:href="#m6f82dda379" y="248.990428"/>
     <use style="stroke:#000000;" x="380.670389" xlink:href="#m6f82dda379" y="246.462475"/>
     <use style="stroke:#000000;" x="97.277554" xlink:href="#m6f82dda379" y="122.227639"/>
     <use style="stroke:#000000;" x="137.452932" xlink:href="#m6f82dda379" y="151.626491"/>
     <use style="stroke:#000000;" x="83.223353" xlink:href="#m6f82dda379" y="100.951811"/>
     <use style="stroke:#000000;" x="91.094377" xlink:href="#m6f82dda379" y="114.508394"/>
     <use style="stroke:#000000;" x="93.607237" xlink:href="#m6f82dda379" y="117.645167"/>
     <use style="stroke:#000000;" x="101.508751" xlink:href="#m6f82dda379" y="133.609428"/>
     <use style="stroke:#000000;" x="114.544866" xlink:href="#m6f82dda379" y="158.38037"/>
     <use style="stroke:#000000;" x="116.750496" xlink:href="#m6f82dda379" y="138.615328"/>
     <use style="stroke:#000000;" x="127.303085" xlink:href="#m6f82dda379" y="161.165011"/>
     <use style="stroke:#000000;" x="95.726025" xlink:href="#m6f82dda379" y="125.271702"/>
     <use style="stroke:#000000;" x="87.131467" xlink:href="#m6f82dda379" y="106.674887"/>
     <use style="stroke:#000000;" x="279.4003" xlink:href="#m6f82dda379" y="210.393527"/>
     <use style="stroke:#000000;" x="350.98162" xlink:href="#m6f82dda379" y="231.089086"/>
     <use style="stroke:#000000;" x="167.1168" xlink:href="#m6f82dda379" y="159.3216"/>
     <use style="stroke:#000000;" x="83.666149" xlink:href="#m6f82dda379" y="97.098473"/>
     <use style="stroke:#000000;" x="81.534006" xlink:href="#m6f82dda379" y="83.810614"/>
     <use style="stroke:#000000;" x="115.116573" xlink:href="#m6f82dda379" y="137.554661"/>
     <use style="stroke:#000000;" x="97.608161" xlink:href="#m6f82dda379" y="122.604209"/>
     <use style="stroke:#000000;" x="121.501809" xlink:href="#m6f82dda379" y="143.27541"/>
     <use style="stroke:#000000;" x="91.080884" xlink:href="#m6f82dda379" y="113.940247"/>
     <use style="stroke:#000000;" x="86.370381" xlink:href="#m6f82dda379" y="106.421355"/>
     <use style="stroke:#000000;" x="86.314259" xlink:href="#m6f82dda379" y="106.037343"/>
     <use style="stroke:#000000;" x="83.137453" xlink:href="#m6f82dda379" y="94.998147"/>
     <use style="stroke:#000000;" x="83.362976" xlink:href="#m6f82dda379" y="102.974655"/>
     <use style="stroke:#000000;" x="81.441019" xlink:href="#m6f82dda379" y="81.71332"/>
     <use style="stroke:#000000;" x="145.541214" xlink:href="#m6f82dda379" y="168.38353"/>
     <use style="stroke:#000000;" x="244.052132" xlink:href="#m6f82dda379" y="171.668016"/>
     <use style="stroke:#000000;" x="199.628849" xlink:href="#m6f82dda379" y="167.058893"/>
     <use style="stroke:#000000;" x="151.880041" xlink:href="#m6f82dda379" y="154.770981"/>
     <use style="stroke:#000000;" x="91.258168" xlink:href="#m6f82dda379" y="117.514384"/>
     <use style="stroke:#000000;" x="98.027054" xlink:href="#m6f82dda379" y="123.073944"/>
     <use style="stroke:#000000;" x="153.623616" xlink:href="#m6f82dda379" y="155.346455"/>
     <use style="stroke:#000000;" x="291.329732" xlink:href="#m6f82dda379" y="185.609749"/>
     <use style="stroke:#000000;" x="321.70476" xlink:href="#m6f82dda379" y="191.984562"/>
     <use style="stroke:#000000;" x="88.211266" xlink:href="#m6f82dda379" y="112.382861"/>
     <use style="stroke:#000000;" x="85.835543" xlink:href="#m6f82dda379" y="103.641829"/>
     <use style="stroke:#000000;" x="152.224852" xlink:href="#m6f82dda379" y="160.486888"/>
     <use style="stroke:#000000;" x="167.665515" xlink:href="#m6f82dda379" y="168.227884"/>
     <use style="stroke:#000000;" x="151.852583" xlink:href="#m6f82dda379" y="154.761794"/>
     <use style="stroke:#000000;" x="157.387745" xlink:href="#m6f82dda379" y="165.198246"/>
     <use style="stroke:#000000;" x="84.999524" xlink:href="#m6f82dda379" y="101.776268"/>
     <use style="stroke:#000000;" x="87.622247" xlink:href="#m6f82dda379" y="117.786013"/>
     <use style="stroke:#000000;" x="82.344168" xlink:href="#m6f82dda379" y="91.977973"/>
     <use style="stroke:#000000;" x="86.699625" xlink:href="#m6f82dda379" y="116.984207"/>
     <use style="stroke:#000000;" x="319.488" xlink:href="#m6f82dda379" y="174.528"/>
     <use style="stroke:#000000;" x="319.488" xlink:href="#m6f82dda379" y="174.528"/>
     <use style="stroke:#000000;" x="167.1168" xlink:href="#m6f82dda379" y="159.3216"/>
     <use style="stroke:#000000;" x="167.230693" xlink:href="#m6f82dda379" y="163.433557"/>
     <use style="stroke:#000000;" x="116.688502" xlink:href="#m6f82dda379" y="138.575817"/>
     <use style="stroke:#000000;" x="112.225241" xlink:href="#m6f82dda379" y="135.572687"/>
     <use style="stroke:#000000;" x="376.863728" xlink:href="#m6f82dda379" y="244.936318"/>
     <use style="stroke:#000000;" x="405.1968" xlink:href="#m6f82dda379" y="254.3616"/>
     <use style="stroke:#000000;" x="103.58256" xlink:href="#m6f82dda379" y="128.646006"/>
     <use style="stroke:#000000;" x="92.571971" xlink:href="#m6f82dda379" y="116.192264"/>
     <use style="stroke:#000000;" x="118.582486" xlink:href="#m6f82dda379" y="139.758132"/>
     <use style="stroke:#000000;" x="121.423396" xlink:href="#m6f82dda379" y="154.942343"/>
     <use style="stroke:#000000;" x="330.00935" xlink:href="#m6f82dda379" y="231.526738"/>
     <use style="stroke:#000000;" x="320.827211" xlink:href="#m6f82dda379" y="226.536891"/>
     <use style="stroke:#000000;" x="97.234852" xlink:href="#m6f82dda379" y="122.178616"/>
     <use style="stroke:#000000;" x="81.489924" xlink:href="#m6f82dda379" y="82.981285"/>
     <use style="stroke:#000000;" x="125.817261" xlink:href="#m6f82dda379" y="170.847283"/>
     <use style="stroke:#000000;" x="164.44056" xlink:href="#m6f82dda379" y="158.595254"/>
     <use style="stroke:#000000;" x="169.764665" xlink:href="#m6f82dda379" y="178.310365"/>
     <use style="stroke:#000000;" x="217.521759" xlink:href="#m6f82dda379" y="171.959511"/>
     <use style="stroke:#000000;" x="97.468323" xlink:href="#m6f82dda379" y="124.398278"/>
     <use style="stroke:#000000;" x="121.55055" xlink:href="#m6f82dda379" y="141.514168"/>
     <use style="stroke:#000000;" x="106.46946" xlink:href="#m6f82dda379" y="131.154224"/>
     <use style="stroke:#000000;" x="101.758164" xlink:href="#m6f82dda379" y="140.189228"/>
     <use style="stroke:#000000;" x="105.687211" xlink:href="#m6f82dda379" y="147.845622"/>
     <use style="stroke:#000000;" x="81.709126" xlink:href="#m6f82dda379" y="86.127825"/>
     <use style="stroke:#000000;" x="83.572144" xlink:href="#m6f82dda379" y="102.491848"/>
     <use style="stroke:#000000;" x="113.012503" xlink:href="#m6f82dda379" y="146.45061"/>
     <use style="stroke:#000000;" x="82.831589" xlink:href="#m6f82dda379" y="93.61802"/>
     <use style="stroke:#000000;" x="106.521764" xlink:href="#m6f82dda379" y="150.323744"/>
     <use style="stroke:#000000;" x="81.416623" xlink:href="#m6f82dda379" y="80.628479"/>
     <use style="stroke:#000000;" x="127.505657" xlink:href="#m6f82dda379" y="144.726184"/>
     <use style="stroke:#000000;" x="161.655752" xlink:href="#m6f82dda379" y="181.373824"/>
     <use style="stroke:#000000;" x="160.869347" xlink:href="#m6f82dda379" y="157.580333"/>
     <use style="stroke:#000000;" x="146.954362" xlink:href="#m6f82dda379" y="153.057699"/>
     <use style="stroke:#000000;" x="83.482717" xlink:href="#m6f82dda379" y="96.403904"/>
     <use style="stroke:#000000;" x="122.623032" xlink:href="#m6f82dda379" y="142.121804"/>
    </g>
   </g>
   <g id="PathCollection_2">
    <defs>
     <path d="M 0 0.935414 
C 0.248075 0.935414 0.486022 0.836853 0.661438 0.661438 
C 0.836853 0.486022 0.935414 0.248075 0.935414 0 
C 0.935414 -0.248075 0.836853 -0.486022 0.661438 -0.661438 
C 0.486022 -0.836853 0.248075 -0.935414 0 -0.935414 
C -0.248075 -0.935414 -0.486022 -0.836853 -0.661438 -0.661438 
C -0.836853 -0.486022 -0.935414 -0.248075 -0.935414 0 
C -0.935414 0.248075 -0.836853 0.486022 -0.661438 0.661438 
C -0.486022 0.836853 -0.248075 0.935414 0 0.935414 
z
" id="m88ba724f52" style="stroke:#0000ff;"/>
    </defs>
    <g clip-path="url(#pcc94418355)">
     <use style="fill:#0000ff;stroke:#0000ff;" x="118.870053" xlink:href="#m88ba724f52" y="139.933287"/>
     <use style="fill:#0000ff;stroke:#0000ff;" x="83.981518" xlink:href="#m88ba724f52" y="98.223018"/>
     <use style="fill:#0000ff;stroke:#0000ff;" x="167.1168" xlink:href="#m88ba724f52" y="159.3216"/>
     <use style="fill:#0000ff;stroke:#0000ff;" x="93.513248" xlink:href="#m88ba724f52" y="117.516615"/>
     <use style="fill:#0000ff;stroke:#0000ff;" x="167.1168" xlink:href="#m88ba724f52" y="159.3216"/>
     <use style="fill:#0000ff;stroke:#0000ff;" x="81.61609" xlink:href="#m88ba724f52" y="85.024467"/>
     <use style="fill:#0000ff;stroke:#0000ff;" x="81.408" xlink:href="#m88ba724f52" y="79.488"/>
     <use style="fill:#0000ff;stroke:#0000ff;" x="141.666673" xlink:href="#m88ba724f52" y="151.061055"/>
     <use style="fill:#0000ff;stroke:#0000ff;" x="375.789947" xlink:href="#m88ba724f52" y="244.487675"/>
     <use style="fill:#0000ff;stroke:#0000ff;" x="92.031843" xlink:href="#m88ba724f52" y="115.399825"/>
     <use style="fill:#0000ff;stroke:#0000ff;" x="167.1168" xlink:href="#m88ba724f52" y="159.3216"/>
     <use style="fill:#0000ff;stroke:#0000ff;" x="81.873115" xlink:href="#m88ba724f52" y="87.703795"/>
     <use style="fill:#0000ff;stroke:#0000ff;" x="87.68713" xlink:href="#m88ba724f52" y="107.850563"/>
     <use style="fill:#0000ff;stroke:#0000ff;" x="81.408" xlink:href="#m88ba724f52" y="79.488"/>
     <use style="fill:#0000ff;stroke:#0000ff;" x="119.816963" xlink:href="#m88ba724f52" y="140.502263"/>
     <use style="fill:#0000ff;stroke:#0000ff;" x="119.390893" xlink:href="#m88ba724f52" y="140.247709"/>
     <use style="fill:#0000ff;stroke:#0000ff;" x="112.948497" xlink:href="#m88ba724f52" y="136.081805"/>
     <use style="fill:#0000ff;stroke:#0000ff;" x="380.909729" xlink:href="#m88ba724f52" y="246.55522"/>
     <use style="fill:#0000ff;stroke:#0000ff;" x="82.475666" xlink:href="#m88ba724f52" y="91.790747"/>
     <use style="fill:#0000ff;stroke:#0000ff;" x="128.200653" xlink:href="#m88ba724f52" y="145.076891"/>
     <use style="fill:#0000ff;stroke:#0000ff;" x="111.349651" xlink:href="#m88ba724f52" y="134.943703"/>
     <use style="fill:#0000ff;stroke:#0000ff;" x="131.618463" xlink:href="#m88ba724f52" y="146.735832"/>
     <use style="fill:#0000ff;stroke:#0000ff;" x="136.808183" xlink:href="#m88ba724f52" y="149.064419"/>
     <use style="fill:#0000ff;stroke:#0000ff;" x="369.623292" xlink:href="#m88ba724f52" y="241.740472"/>
     <use style="fill:#0000ff;stroke:#0000ff;" x="300.906946" xlink:href="#m88ba724f52" y="174.377337"/>
     <use style="fill:#0000ff;stroke:#0000ff;" x="167.1168" xlink:href="#m88ba724f52" y="159.3216"/>
     <use style="fill:#0000ff;stroke:#0000ff;" x="148.18222" xlink:href="#m88ba724f52" y="153.497366"/>
     <use style="fill:#0000ff;stroke:#0000ff;" x="362.315878" xlink:href="#m88ba724f52" y="238.050543"/>
     <use style="fill:#0000ff;stroke:#0000ff;" x="374.650403" xlink:href="#m88ba724f52" y="244.002355"/>
     <use style="fill:#0000ff;stroke:#0000ff;" x="112.482251" xlink:href="#m88ba724f52" y="135.754664"/>
     <use style="fill:#0000ff;stroke:#0000ff;" x="127.402029" xlink:href="#m88ba724f52" y="144.673486"/>
     <use style="fill:#0000ff;stroke:#0000ff;" x="85.28532" xlink:href="#m88ba724f52" y="102.197405"/>
     <use style="fill:#0000ff;stroke:#0000ff;" x="94.270416" xlink:href="#m88ba724f52" y="118.534477"/>
     <use style="fill:#0000ff;stroke:#0000ff;" x="112.15465" xlink:href="#m88ba724f52" y="135.522497"/>
     <use style="fill:#0000ff;stroke:#0000ff;" x="89.126151" xlink:href="#m88ba724f52" y="110.631029"/>
     <use style="fill:#0000ff;stroke:#0000ff;" x="343.726598" xlink:href="#m88ba724f52" y="225.501816"/>
     <use style="fill:#0000ff;stroke:#0000ff;" x="156.648664" xlink:href="#m88ba724f52" y="156.308994"/>
     <use style="fill:#0000ff;stroke:#0000ff;" x="81.408" xlink:href="#m88ba724f52" y="79.488"/>
     <use style="fill:#0000ff;stroke:#0000ff;" x="107.773186" xlink:href="#m88ba724f52" y="132.217536"/>
     <use style="fill:#0000ff;stroke:#0000ff;" x="106.425247" xlink:href="#m88ba724f52" y="131.11745"/>
     <use style="fill:#0000ff;stroke:#0000ff;" x="93.22065" xlink:href="#m88ba724f52" y="117.11225"/>
     <use style="fill:#0000ff;stroke:#0000ff;" x="83.015082" xlink:href="#m88ba724f52" y="94.463332"/>
     <use style="fill:#0000ff;stroke:#0000ff;" x="81.540926" xlink:href="#m88ba724f52" y="83.926325"/>
     <use style="fill:#0000ff;stroke:#0000ff;" x="167.1168" xlink:href="#m88ba724f52" y="159.3216"/>
     <use style="fill:#0000ff;stroke:#0000ff;" x="222.030701" xlink:href="#m88ba724f52" y="169.436336"/>
     <use style="fill:#0000ff;stroke:#0000ff;" x="167.1168" xlink:href="#m88ba724f52" y="159.3216"/>
     <use style="fill:#0000ff;stroke:#0000ff;" x="94.20592" xlink:href="#m88ba724f52" y="118.449316"/>
     <use style="fill:#0000ff;stroke:#0000ff;" x="164.425465" xlink:href="#m88ba724f52" y="158.591076"/>
     <use style="fill:#0000ff;stroke:#0000ff;" x="320.042195" xlink:href="#m88ba724f52" y="183.477548"/>
     <use style="fill:#0000ff;stroke:#0000ff;" x="86.064523" xlink:href="#m88ba724f52" y="104.212259"/>
     <use style="fill:#0000ff;stroke:#0000ff;" x="167.1168" xlink:href="#m88ba724f52" y="159.3216"/>
     <use style="fill:#0000ff;stroke:#0000ff;" x="167.1168" xlink:href="#m88ba724f52" y="159.3216"/>
     <use style="fill:#0000ff;stroke:#0000ff;" x="84.55344" xlink:href="#m88ba724f52" y="100.08056"/>
     <use style="fill:#0000ff;stroke:#0000ff;" x="83.038585" xlink:href="#m88ba724f52" y="94.567733"/>
     <use style="fill:#0000ff;stroke:#0000ff;" x="319.488" xlink:href="#m88ba724f52" y="174.528"/>
     <use style="fill:#0000ff;stroke:#0000ff;" x="167.1168" xlink:href="#m88ba724f52" y="159.3216"/>
     <use style="fill:#0000ff;stroke:#0000ff;" x="108.745223" xlink:href="#m88ba724f52" y="132.984988"/>
     <use style="fill:#0000ff;stroke:#0000ff;" x="397.359549" xlink:href="#m88ba724f52" y="252.150898"/>
     <use style="fill:#0000ff;stroke:#0000ff;" x="100.118084" xlink:href="#m88ba724f52" y="125.30502"/>
     <use style="fill:#0000ff;stroke:#0000ff;" x="122.180194" xlink:href="#m88ba724f52" y="141.872559"/>
     <use style="fill:#0000ff;stroke:#0000ff;" x="347.639881" xlink:href="#m88ba724f52" y="228.652454"/>
     <use style="fill:#0000ff;stroke:#0000ff;" x="81.408" xlink:href="#m88ba724f52" y="79.488"/>
     <use style="fill:#0000ff;stroke:#0000ff;" x="141.094776" xlink:href="#m88ba724f52" y="150.834483"/>
     <use style="fill:#0000ff;stroke:#0000ff;" x="167.1168" xlink:href="#m88ba724f52" y="159.3216"/>
     <use style="fill:#0000ff;stroke:#0000ff;" x="249.732184" xlink:href="#m88ba724f52" y="172.120364"/>
     <use style="fill:#0000ff;stroke:#0000ff;" x="102.445911" xlink:href="#m88ba724f52" y="127.593422"/>
     <use style="fill:#0000ff;stroke:#0000ff;" x="128.418339" xlink:href="#m88ba724f52" y="145.185779"/>
     <use style="fill:#0000ff;stroke:#0000ff;" x="103.089677" xlink:href="#m88ba724f52" y="128.194433"/>
     <use style="fill:#0000ff;stroke:#0000ff;" x="81.960481" xlink:href="#m88ba724f52" y="88.424037"/>
     <use style="fill:#0000ff;stroke:#0000ff;" x="81.765446" xlink:href="#m88ba724f52" y="86.710435"/>
     <use style="fill:#0000ff;stroke:#0000ff;" x="87.510855" xlink:href="#m88ba724f52" y="107.484549"/>
     <use style="fill:#0000ff;stroke:#0000ff;" x="86.042866" xlink:href="#m88ba724f52" y="104.159015"/>
     <use style="fill:#0000ff;stroke:#0000ff;" x="93.788196" xlink:href="#m88ba724f52" y="117.890878"/>
     <use style="fill:#0000ff;stroke:#0000ff;" x="81.558896" xlink:href="#m88ba724f52" y="84.213112"/>
     <use style="fill:#0000ff;stroke:#0000ff;" x="167.1168" xlink:href="#m88ba724f52" y="159.3216"/>
     <use style="fill:#0000ff;stroke:#0000ff;" x="133.209278" xlink:href="#m88ba724f52" y="147.472832"/>
     <use style="fill:#0000ff;stroke:#0000ff;" x="153.208488" xlink:href="#m88ba724f52" y="155.210845"/>
     <use style="fill:#0000ff;stroke:#0000ff;" x="137.134281" xlink:href="#m88ba724f52" y="149.203706"/>
     <use style="fill:#0000ff;stroke:#0000ff;" x="82.581873" xlink:href="#m88ba724f52" y="92.366454"/>
     <use style="fill:#0000ff;stroke:#0000ff;" x="104.265532" xlink:href="#m88ba724f52" y="129.259941"/>
    </g>
   </g>
   <g id="matplotlib.axis_1">
    <g id="xtick_1">
     <g id="line2d_1">
      <defs>
       <path d="M 0 0 
L 0 3.5 
" id="mcf283b78d0" style="stroke:#000000;stroke-width:0.8;"/>
      </defs>
      <g>
       <use style="stroke:#000000;stroke-width:0.8;" x="81.408" xlink:href="#mcf283b78d0" y="307.584"/>
      </g>
     </g>
     <g id="text_1">
      <!-- 0 -->
      <defs>
       <path d="M 31.78125 66.40625 
Q 24.171875 66.40625 20.328125 58.90625 
Q 16.5 51.421875 16.5 36.375 
Q 16.5 21.390625 20.328125 13.890625 
Q 24.171875 6.390625 31.78125 6.390625 
Q 39.453125 6.390625 43.28125 13.890625 
Q 47.125 21.390625 47.125 36.375 
Q 47.125 51.421875 43.28125 58.90625 
Q 39.453125 66.40625 31.78125 66.40625 
z
M 31.78125 74.21875 
Q 44.046875 74.21875 50.515625 64.515625 
Q 56.984375 54.828125 56.984375 36.375 
Q 56.984375 17.96875 50.515625 8.265625 
Q 44.046875 -1.421875 31.78125 -1.421875 
Q 19.53125 -1.421875 13.0625 8.265625 
Q 6.59375 17.96875 6.59375 36.375 
Q 6.59375 54.828125 13.0625 64.515625 
Q 19.53125 74.21875 31.78125 74.21875 
z
" id="DejaVuSans-30"/>
      </defs>
      <g transform="translate(78.22675 322.182437)scale(0.1 -0.1)">
       <use xlink:href="#DejaVuSans-30"/>
      </g>
     </g>
    </g>
    <g id="xtick_2">
     <g id="line2d_2">
      <g>
       <use style="stroke:#000000;stroke-width:0.8;" x="129.024" xlink:href="#mcf283b78d0" y="307.584"/>
      </g>
     </g>
     <g id="text_2">
      <!-- 20 -->
      <defs>
       <path d="M 19.1875 8.296875 
L 53.609375 8.296875 
L 53.609375 0 
L 7.328125 0 
L 7.328125 8.296875 
Q 12.9375 14.109375 22.625 23.890625 
Q 32.328125 33.6875 34.8125 36.53125 
Q 39.546875 41.84375 41.421875 45.53125 
Q 43.3125 49.21875 43.3125 52.78125 
Q 43.3125 58.59375 39.234375 62.25 
Q 35.15625 65.921875 28.609375 65.921875 
Q 23.96875 65.921875 18.8125 64.3125 
Q 13.671875 62.703125 7.8125 59.421875 
L 7.8125 69.390625 
Q 13.765625 71.78125 18.9375 73 
Q 24.125 74.21875 28.421875 74.21875 
Q 39.75 74.21875 46.484375 68.546875 
Q 53.21875 62.890625 53.21875 53.421875 
Q 53.21875 48.921875 51.53125 44.890625 
Q 49.859375 40.875 45.40625 35.40625 
Q 44.1875 33.984375 37.640625 27.21875 
Q 31.109375 20.453125 19.1875 8.296875 
z
" id="DejaVuSans-32"/>
      </defs>
      <g transform="translate(122.6615 322.182437)scale(0.1 -0.1)">
       <use xlink:href="#DejaVuSans-32"/>
       <use x="63.623047" xlink:href="#DejaVuSans-30"/>
      </g>
     </g>
    </g>
    <g id="xtick_3">
     <g id="line2d_3">
      <g>
       <use style="stroke:#000000;stroke-width:0.8;" x="176.64" xlink:href="#mcf283b78d0" y="307.584"/>
      </g>
     </g>
     <g id="text_3">
      <!-- 40 -->
      <defs>
       <path d="M 37.796875 64.3125 
L 12.890625 25.390625 
L 37.796875 25.390625 
z
M 35.203125 72.90625 
L 47.609375 72.90625 
L 47.609375 25.390625 
L 58.015625 25.390625 
L 58.015625 17.1875 
L 47.609375 17.1875 
L 47.609375 0 
L 37.796875 0 
L 37.796875 17.1875 
L 4.890625 17.1875 
L 4.890625 26.703125 
z
" id="DejaVuSans-34"/>
      </defs>
      <g transform="translate(170.2775 322.182437)scale(0.1 -0.1)">
       <use xlink:href="#DejaVuSans-34"/>
       <use x="63.623047" xlink:href="#DejaVuSans-30"/>
      </g>
     </g>
    </g>
    <g id="xtick_4">
     <g id="line2d_4">
      <g>
       <use style="stroke:#000000;stroke-width:0.8;" x="224.256" xlink:href="#mcf283b78d0" y="307.584"/>
      </g>
     </g>
     <g id="text_4">
      <!-- 60 -->
      <defs>
       <path d="M 33.015625 40.375 
Q 26.375 40.375 22.484375 35.828125 
Q 18.609375 31.296875 18.609375 23.390625 
Q 18.609375 15.53125 22.484375 10.953125 
Q 26.375 6.390625 33.015625 6.390625 
Q 39.65625 6.390625 43.53125 10.953125 
Q 47.40625 15.53125 47.40625 23.390625 
Q 47.40625 31.296875 43.53125 35.828125 
Q 39.65625 40.375 33.015625 40.375 
z
M 52.59375 71.296875 
L 52.59375 62.3125 
Q 48.875 64.0625 45.09375 64.984375 
Q 41.3125 65.921875 37.59375 65.921875 
Q 27.828125 65.921875 22.671875 59.328125 
Q 17.53125 52.734375 16.796875 39.40625 
Q 19.671875 43.65625 24.015625 45.921875 
Q 28.375 48.1875 33.59375 48.1875 
Q 44.578125 48.1875 50.953125 41.515625 
Q 57.328125 34.859375 57.328125 23.390625 
Q 57.328125 12.15625 50.6875 5.359375 
Q 44.046875 -1.421875 33.015625 -1.421875 
Q 20.359375 -1.421875 13.671875 8.265625 
Q 6.984375 17.96875 6.984375 36.375 
Q 6.984375 53.65625 15.1875 63.9375 
Q 23.390625 74.21875 37.203125 74.21875 
Q 40.921875 74.21875 44.703125 73.484375 
Q 48.484375 72.75 52.59375 71.296875 
z
" id="DejaVuSans-36"/>
      </defs>
      <g transform="translate(217.8935 322.182437)scale(0.1 -0.1)">
       <use xlink:href="#DejaVuSans-36"/>
       <use x="63.623047" xlink:href="#DejaVuSans-30"/>
      </g>
     </g>
    </g>
    <g id="xtick_5">
     <g id="line2d_5">
      <g>
       <use style="stroke:#000000;stroke-width:0.8;" x="271.872" xlink:href="#mcf283b78d0" y="307.584"/>
      </g>
     </g>
     <g id="text_5">
      <!-- 80 -->
      <defs>
       <path d="M 31.78125 34.625 
Q 24.75 34.625 20.71875 30.859375 
Q 16.703125 27.09375 16.703125 20.515625 
Q 16.703125 13.921875 20.71875 10.15625 
Q 24.75 6.390625 31.78125 6.390625 
Q 38.8125 6.390625 42.859375 10.171875 
Q 46.921875 13.96875 46.921875 20.515625 
Q 46.921875 27.09375 42.890625 30.859375 
Q 38.875 34.625 31.78125 34.625 
z
M 21.921875 38.8125 
Q 15.578125 40.375 12.03125 44.71875 
Q 8.5 49.078125 8.5 55.328125 
Q 8.5 64.0625 14.71875 69.140625 
Q 20.953125 74.21875 31.78125 74.21875 
Q 42.671875 74.21875 48.875 69.140625 
Q 55.078125 64.0625 55.078125 55.328125 
Q 55.078125 49.078125 51.53125 44.71875 
Q 48 40.375 41.703125 38.8125 
Q 48.828125 37.15625 52.796875 32.3125 
Q 56.78125 27.484375 56.78125 20.515625 
Q 56.78125 9.90625 50.3125 4.234375 
Q 43.84375 -1.421875 31.78125 -1.421875 
Q 19.734375 -1.421875 13.25 4.234375 
Q 6.78125 9.90625 6.78125 20.515625 
Q 6.78125 27.484375 10.78125 32.3125 
Q 14.796875 37.15625 21.921875 38.8125 
z
M 18.3125 54.390625 
Q 18.3125 48.734375 21.84375 45.5625 
Q 25.390625 42.390625 31.78125 42.390625 
Q 38.140625 42.390625 41.71875 45.5625 
Q 45.3125 48.734375 45.3125 54.390625 
Q 45.3125 60.0625 41.71875 63.234375 
Q 38.140625 66.40625 31.78125 66.40625 
Q 25.390625 66.40625 21.84375 63.234375 
Q 18.3125 60.0625 18.3125 54.390625 
z
" id="DejaVuSans-38"/>
      </defs>
      <g transform="translate(265.5095 322.182437)scale(0.1 -0.1)">
       <use xlink:href="#DejaVuSans-38"/>
       <use x="63.623047" xlink:href="#DejaVuSans-30"/>
      </g>
     </g>
    </g>
    <g id="xtick_6">
     <g id="line2d_6">
      <g>
       <use style="stroke:#000000;stroke-width:0.8;" x="319.488" xlink:href="#mcf283b78d0" y="307.584"/>
      </g>
     </g>
     <g id="text_6">
      <!-- 100 -->
      <defs>
       <path d="M 12.40625 8.296875 
L 28.515625 8.296875 
L 28.515625 63.921875 
L 10.984375 60.40625 
L 10.984375 69.390625 
L 28.421875 72.90625 
L 38.28125 72.90625 
L 38.28125 8.296875 
L 54.390625 8.296875 
L 54.390625 0 
L 12.40625 0 
z
" id="DejaVuSans-31"/>
      </defs>
      <g transform="translate(309.94425 322.182437)scale(0.1 -0.1)">
       <use xlink:href="#DejaVuSans-31"/>
       <use x="63.623047" xlink:href="#DejaVuSans-30"/>
       <use x="127.246094" xlink:href="#DejaVuSans-30"/>
      </g>
     </g>
    </g>
    <g id="xtick_7">
     <g id="line2d_7">
      <g>
       <use style="stroke:#000000;stroke-width:0.8;" x="367.104" xlink:href="#mcf283b78d0" y="307.584"/>
      </g>
     </g>
     <g id="text_7">
      <!-- 120 -->
      <g transform="translate(357.56025 322.182437)scale(0.1 -0.1)">
       <use xlink:href="#DejaVuSans-31"/>
       <use x="63.623047" xlink:href="#DejaVuSans-32"/>
       <use x="127.246094" xlink:href="#DejaVuSans-30"/>
      </g>
     </g>
    </g>
    <g id="xtick_8">
     <g id="line2d_8">
      <g>
       <use style="stroke:#000000;stroke-width:0.8;" x="414.72" xlink:href="#mcf283b78d0" y="307.584"/>
      </g>
     </g>
     <g id="text_8">
      <!-- 140 -->
      <g transform="translate(405.17625 322.182437)scale(0.1 -0.1)">
       <use xlink:href="#DejaVuSans-31"/>
       <use x="63.623047" xlink:href="#DejaVuSans-34"/>
       <use x="127.246094" xlink:href="#DejaVuSans-30"/>
      </g>
     </g>
    </g>
   </g>
   <g id="matplotlib.axis_2">
    <g id="ytick_1">
     <g id="line2d_9">
      <defs>
       <path d="M 0 0 
L -3.5 0 
" id="m1455247da5" style="stroke:#000000;stroke-width:0.8;"/>
      </defs>
      <g>
       <use style="stroke:#000000;stroke-width:0.8;" x="57.6" xlink:href="#m1455247da5" y="307.584"/>
      </g>
     </g>
     <g id="text_9">
      <!-- −10 -->
      <defs>
       <path d="M 10.59375 35.5 
L 73.1875 35.5 
L 73.1875 27.203125 
L 10.59375 27.203125 
z
" id="DejaVuSans-2212"/>
      </defs>
      <g transform="translate(29.495313 311.383219)scale(0.1 -0.1)">
       <use xlink:href="#DejaVuSans-2212"/>
       <use x="83.789062" xlink:href="#DejaVuSans-31"/>
       <use x="147.412109" xlink:href="#DejaVuSans-30"/>
      </g>
     </g>
    </g>
    <g id="ytick_2">
     <g id="line2d_10">
      <g>
       <use style="stroke:#000000;stroke-width:0.8;" x="57.6" xlink:href="#m1455247da5" y="269.568"/>
      </g>
     </g>
     <g id="text_10">
      <!-- 0 -->
      <g transform="translate(44.2375 273.367219)scale(0.1 -0.1)">
       <use xlink:href="#DejaVuSans-30"/>
      </g>
     </g>
    </g>
    <g id="ytick_3">
     <g id="line2d_11">
      <g>
       <use style="stroke:#000000;stroke-width:0.8;" x="57.6" xlink:href="#m1455247da5" y="231.552"/>
      </g>
     </g>
     <g id="text_11">
      <!-- 10 -->
      <g transform="translate(37.875 235.351219)scale(0.1 -0.1)">
       <use xlink:href="#DejaVuSans-31"/>
       <use x="63.623047" xlink:href="#DejaVuSans-30"/>
      </g>
     </g>
    </g>
    <g id="ytick_4">
     <g id="line2d_12">
      <g>
       <use style="stroke:#000000;stroke-width:0.8;" x="57.6" xlink:href="#m1455247da5" y="193.536"/>
      </g>
     </g>
     <g id="text_12">
      <!-- 20 -->
      <g transform="translate(37.875 197.335219)scale(0.1 -0.1)">
       <use xlink:href="#DejaVuSans-32"/>
       <use x="63.623047" xlink:href="#DejaVuSans-30"/>
      </g>
     </g>
    </g>
    <g id="ytick_5">
     <g id="line2d_13">
      <g>
       <use style="stroke:#000000;stroke-width:0.8;" x="57.6" xlink:href="#m1455247da5" y="155.52"/>
      </g>
     </g>
     <g id="text_13">
      <!-- 30 -->
      <defs>
       <path d="M 40.578125 39.3125 
Q 47.65625 37.796875 51.625 33 
Q 55.609375 28.21875 55.609375 21.1875 
Q 55.609375 10.40625 48.1875 4.484375 
Q 40.765625 -1.421875 27.09375 -1.421875 
Q 22.515625 -1.421875 17.65625 -0.515625 
Q 12.796875 0.390625 7.625 2.203125 
L 7.625 11.71875 
Q 11.71875 9.328125 16.59375 8.109375 
Q 21.484375 6.890625 26.8125 6.890625 
Q 36.078125 6.890625 40.9375 10.546875 
Q 45.796875 14.203125 45.796875 21.1875 
Q 45.796875 27.640625 41.28125 31.265625 
Q 36.765625 34.90625 28.71875 34.90625 
L 20.21875 34.90625 
L 20.21875 43.015625 
L 29.109375 43.015625 
Q 36.375 43.015625 40.234375 45.921875 
Q 44.09375 48.828125 44.09375 54.296875 
Q 44.09375 59.90625 40.109375 62.90625 
Q 36.140625 65.921875 28.71875 65.921875 
Q 24.65625 65.921875 20.015625 65.03125 
Q 15.375 64.15625 9.8125 62.3125 
L 9.8125 71.09375 
Q 15.4375 72.65625 20.34375 73.4375 
Q 25.25 74.21875 29.59375 74.21875 
Q 40.828125 74.21875 47.359375 69.109375 
Q 53.90625 64.015625 53.90625 55.328125 
Q 53.90625 49.265625 50.4375 45.09375 
Q 46.96875 40.921875 40.578125 39.3125 
z
" id="DejaVuSans-33"/>
      </defs>
      <g transform="translate(37.875 159.319219)scale(0.1 -0.1)">
       <use xlink:href="#DejaVuSans-33"/>
       <use x="63.623047" xlink:href="#DejaVuSans-30"/>
      </g>
     </g>
    </g>
    <g id="ytick_6">
     <g id="line2d_14">
      <g>
       <use style="stroke:#000000;stroke-width:0.8;" x="57.6" xlink:href="#m1455247da5" y="117.504"/>
      </g>
     </g>
     <g id="text_14">
      <!-- 40 -->
      <g transform="translate(37.875 121.303219)scale(0.1 -0.1)">
       <use xlink:href="#DejaVuSans-34"/>
       <use x="63.623047" xlink:href="#DejaVuSans-30"/>
      </g>
     </g>
    </g>
    <g id="ytick_7">
     <g id="line2d_15">
      <g>
       <use style="stroke:#000000;stroke-width:0.8;" x="57.6" xlink:href="#m1455247da5" y="79.488"/>
      </g>
     </g>
     <g id="text_15">
      <!-- 50 -->
      <defs>
       <path d="M 10.796875 72.90625 
L 49.515625 72.90625 
L 49.515625 64.59375 
L 19.828125 64.59375 
L 19.828125 46.734375 
Q 21.96875 47.46875 24.109375 47.828125 
Q 26.265625 48.1875 28.421875 48.1875 
Q 40.625 48.1875 47.75 41.5 
Q 54.890625 34.8125 54.890625 23.390625 
Q 54.890625 11.625 47.5625 5.09375 
Q 40.234375 -1.421875 26.90625 -1.421875 
Q 22.3125 -1.421875 17.546875 -0.640625 
Q 12.796875 0.140625 7.71875 1.703125 
L 7.71875 11.625 
Q 12.109375 9.234375 16.796875 8.0625 
Q 21.484375 6.890625 26.703125 6.890625 
Q 35.15625 6.890625 40.078125 11.328125 
Q 45.015625 15.765625 45.015625 23.390625 
Q 45.015625 31 40.078125 35.4375 
Q 35.15625 39.890625 26.703125 39.890625 
Q 22.75 39.890625 18.8125 39.015625 
Q 14.890625 38.140625 10.796875 36.28125 
z
" id="DejaVuSans-35"/>
      </defs>
      <g transform="translate(37.875 83.287219)scale(0.1 -0.1)">
       <use xlink:href="#DejaVuSans-35"/>
       <use x="63.623047" xlink:href="#DejaVuSans-30"/>
      </g>
     </g>
    </g>
    <g id="ytick_8">
     <g id="line2d_16">
      <g>
       <use style="stroke:#000000;stroke-width:0.8;" x="57.6" xlink:href="#m1455247da5" y="41.472"/>
      </g>
     </g>
     <g id="text_16">
      <!-- 60 -->
      <g transform="translate(37.875 45.271219)scale(0.1 -0.1)">
       <use xlink:href="#DejaVuSans-36"/>
       <use x="63.623047" xlink:href="#DejaVuSans-30"/>
      </g>
     </g>
    </g>
   </g>
   <g id="patch_3">
    <path d="M 57.6 307.584 
L 57.6 41.472 
" style="fill:none;stroke:#000000;stroke-linecap:square;stroke-linejoin:miter;stroke-width:0.8;"/>
   </g>
   <g id="patch_4">
    <path d="M 414.72 307.584 
L 414.72 41.472 
" style="fill:none;stroke:#000000;stroke-linecap:square;stroke-linejoin:miter;stroke-width:0.8;"/>
   </g>
   <g id="patch_5">
    <path d="M 57.6 307.584 
L 414.72 307.584 
" style="fill:none;stroke:#000000;stroke-linecap:square;stroke-linejoin:miter;stroke-width:0.8;"/>
   </g>
   <g id="patch_6">
    <path d="M 57.6 41.472 
L 414.72 41.472 
" style="fill:none;stroke:#000000;stroke-linecap:square;stroke-linejoin:miter;stroke-width:0.8;"/>
   </g>
  </g>
 </g>
 <defs>
  <clipPath id="pcc94418355">
   <rect height="266.112" width="357.12" x="57.6" y="41.472"/>
  </clipPath>
 </defs>
</svg>
