<?xml version="1.0" encoding="utf-8" standalone="no"?>
<!DOCTYPE svg PUBLIC "-//W3C//DTD SVG 1.1//EN"
  "http://www.w3.org/Graphics/SVG/1.1/DTD/svg11.dtd">
<!-- Created with matplotlib (http://matplotlib.org/) -->
<svg height="345.6pt" version="1.1" viewBox="0 0 460.8 345.6" width="460.8pt" xmlns="http://www.w3.org/2000/svg" xmlns:xlink="http://www.w3.org/1999/xlink">
 <defs>
  <style type="text/css">
*{stroke-linecap:butt;stroke-linejoin:round;}
  </style>
 </defs>
 <g id="figure_1">
  <g id="patch_1">
   <path d="M 0 345.6 
L 460.8 345.6 
L 460.8 0 
L 0 0 
z
" style="fill:#ffffff;"/>
  </g>
  <g id="axes_1">
   <g id="patch_2">
    <path d="M 57.6 307.584 
L 414.72 307.584 
L 414.72 41.472 
L 57.6 41.472 
z
" style="fill:#ffffff;"/>
   </g>
   <g id="PathCollection_1">
    <defs>
     <path d="M 0 0.612372 
C 0.162403 0.612372 0.318176 0.547849 0.433013 0.433013 
C 0.547849 0.318176 0.612372 0.162403 0.612372 0 
C 0.612372 -0.162403 0.547849 -0.318176 0.433013 -0.433013 
C 0.318176 -0.547849 0.162403 -0.612372 0 -0.612372 
C -0.162403 -0.612372 -0.318176 -0.547849 -0.433013 -0.433013 
C -0.547849 -0.318176 -0.612372 -0.162403 -0.612372 0 
C -0.612372 0.162403 -0.547849 0.318176 -0.433013 0.433013 
C -0.318176 0.547849 -0.162403 0.612372 0 0.612372 
z
" id="m8b12e51c8c" style="stroke:#000000;"/>
    </defs>
    <g clip-path="url(#p1852ce9062)">
     <use style="stroke:#000000;" x="386.343453" xlink:href="#m8b12e51c8c" y="248.566151"/>
     <use style="stroke:#000000;" x="131.051138" xlink:href="#m8b12e51c8c" y="146.467753"/>
     <use style="stroke:#000000;" x="126.498361" xlink:href="#m8b12e51c8c" y="144.209418"/>
     <use style="stroke:#000000;" x="89.843941" xlink:href="#m8b12e51c8c" y="111.900542"/>
     <use style="stroke:#000000;" x="393.906702" xlink:href="#m8b12e51c8c" y="251.091839"/>
     <use style="stroke:#000000;" x="83.272588" xlink:href="#m8b12e51c8c" y="95.565233"/>
     <use style="stroke:#000000;" x="87.896231" xlink:href="#m8b12e51c8c" y="108.276869"/>
     <use style="stroke:#000000;" x="159.456985" xlink:href="#m8b12e51c8c" y="157.163846"/>
     <use style="stroke:#000000;" x="269.505386" xlink:href="#m8b12e51c8c" y="173.353908"/>
     <use style="stroke:#000000;" x="122.623032" xlink:href="#m8b12e51c8c" y="142.121804"/>
     <use style="stroke:#000000;" x="118.870053" xlink:href="#m8b12e51c8c" y="139.933287"/>
     <use style="stroke:#000000;" x="83.981518" xlink:href="#m8b12e51c8c" y="98.223018"/>
     <use style="stroke:#000000;" x="167.1168" xlink:href="#m8b12e51c8c" y="159.3216"/>
     <use style="stroke:#000000;" x="93.513248" xlink:href="#m8b12e51c8c" y="117.516615"/>
     <use style="stroke:#000000;" x="167.1168" xlink:href="#m8b12e51c8c" y="159.3216"/>
     <use style="stroke:#000000;" x="81.61609" xlink:href="#m8b12e51c8c" y="85.024467"/>
     <use style="stroke:#000000;" x="81.408" xlink:href="#m8b12e51c8c" y="79.488"/>
     <use style="stroke:#000000;" x="141.666673" xlink:href="#m8b12e51c8c" y="151.061055"/>
     <use style="stroke:#000000;" x="375.789947" xlink:href="#m8b12e51c8c" y="244.487675"/>
     <use style="stroke:#000000;" x="92.031843" xlink:href="#m8b12e51c8c" y="115.399825"/>
     <use style="stroke:#000000;" x="167.1168" xlink:href="#m8b12e51c8c" y="159.3216"/>
     <use style="stroke:#000000;" x="81.873115" xlink:href="#m8b12e51c8c" y="87.703795"/>
     <use style="stroke:#000000;" x="87.68713" xlink:href="#m8b12e51c8c" y="107.850563"/>
     <use style="stroke:#000000;" x="81.408" xlink:href="#m8b12e51c8c" y="79.488"/>
     <use style="stroke:#000000;" x="119.816963" xlink:href="#m8b12e51c8c" y="140.502263"/>
     <use style="stroke:#000000;" x="112.948497" xlink:href="#m8b12e51c8c" y="136.081805"/>
     <use style="stroke:#000000;" x="119.390893" xlink:href="#m8b12e51c8c" y="140.247709"/>
     <use style="stroke:#000000;" x="82.475666" xlink:href="#m8b12e51c8c" y="91.790747"/>
     <use style="stroke:#000000;" x="380.909729" xlink:href="#m8b12e51c8c" y="246.55522"/>
     <use style="stroke:#000000;" x="128.200653" xlink:href="#m8b12e51c8c" y="145.076891"/>
     <use style="stroke:#000000;" x="111.349651" xlink:href="#m8b12e51c8c" y="134.943703"/>
     <use style="stroke:#000000;" x="136.808183" xlink:href="#m8b12e51c8c" y="149.064419"/>
     <use style="stroke:#000000;" x="131.618463" xlink:href="#m8b12e51c8c" y="146.735832"/>
     <use style="stroke:#000000;" x="148.909271" xlink:href="#m8b12e51c8c" y="153.75368"/>
     <use style="stroke:#000000;" x="369.623292" xlink:href="#m8b12e51c8c" y="241.740472"/>
     <use style="stroke:#000000;" x="90.628606" xlink:href="#m8b12e51c8c" y="113.214351"/>
     <use style="stroke:#000000;" x="81.568729" xlink:href="#m8b12e51c8c" y="84.362649"/>
     <use style="stroke:#000000;" x="161.289621" xlink:href="#m8b12e51c8c" y="157.702582"/>
     <use style="stroke:#000000;" x="97.150534" xlink:href="#m8b12e51c8c" y="122.081553"/>
     <use style="stroke:#000000;" x="105.113773" xlink:href="#m8b12e51c8c" y="130.004196"/>
     <use style="stroke:#000000;" x="319.488" xlink:href="#m8b12e51c8c" y="174.528"/>
     <use style="stroke:#000000;" x="167.1168" xlink:href="#m8b12e51c8c" y="159.3216"/>
     <use style="stroke:#000000;" x="167.1168" xlink:href="#m8b12e51c8c" y="159.3216"/>
     <use style="stroke:#000000;" x="81.408" xlink:href="#m8b12e51c8c" y="79.488"/>
     <use style="stroke:#000000;" x="196.435129" xlink:href="#m8b12e51c8c" y="165.691902"/>
     <use style="stroke:#000000;" x="136.15582" xlink:href="#m8b12e51c8c" y="148.783382"/>
     <use style="stroke:#000000;" x="81.652381" xlink:href="#m8b12e51c8c" y="85.480324"/>
     <use style="stroke:#000000;" x="319.488" xlink:href="#m8b12e51c8c" y="174.528"/>
     <use style="stroke:#000000;" x="94.447494" xlink:href="#m8b12e51c8c" y="118.766872"/>
     <use style="stroke:#000000;" x="87.515773" xlink:href="#m8b12e51c8c" y="107.494847"/>
     <use style="stroke:#000000;" x="82.55952" xlink:href="#m8b12e51c8c" y="92.247689"/>
     <use style="stroke:#000000;" x="320.003557" xlink:href="#m8b12e51c8c" y="183.167512"/>
     <use style="stroke:#000000;" x="81.408" xlink:href="#m8b12e51c8c" y="79.488"/>
     <use style="stroke:#000000;" x="319.488" xlink:href="#m8b12e51c8c" y="174.528"/>
     <use style="stroke:#000000;" x="81.408" xlink:href="#m8b12e51c8c" y="79.488"/>
     <use style="stroke:#000000;" x="115.604602" xlink:href="#m8b12e51c8c" y="137.875733"/>
     <use style="stroke:#000000;" x="89.820131" xlink:href="#m8b12e51c8c" y="111.859518"/>
     <use style="stroke:#000000;" x="84.478846" xlink:href="#m8b12e51c8c" y="99.849719"/>
     <use style="stroke:#000000;" x="152.404384" xlink:href="#m8b12e51c8c" y="154.94568"/>
     <use style="stroke:#000000;" x="167.210453" xlink:href="#m8b12e51c8c" y="163.054174"/>
     <use style="stroke:#000000;" x="349.00029" xlink:href="#m8b12e51c8c" y="229.670042"/>
     <use style="stroke:#000000;" x="319.739886" xlink:href="#m8b12e51c8c" y="180.610132"/>
     <use style="stroke:#000000;" x="378.374475" xlink:href="#m8b12e51c8c" y="245.553748"/>
     <use style="stroke:#000000;" x="392.625272" xlink:href="#m8b12e51c8c" y="250.684451"/>
     <use style="stroke:#000000;" x="342.668719" xlink:href="#m8b12e51c8c" y="224.58584"/>
     <use style="stroke:#000000;" x="392.888421" xlink:href="#m8b12e51c8c" y="250.768764"/>
     <use style="stroke:#000000;" x="142.609972" xlink:href="#m8b12e51c8c" y="151.430077"/>
     <use style="stroke:#000000;" x="371.027692" xlink:href="#m8b12e51c8c" y="242.393105"/>
     <use style="stroke:#000000;" x="399.242818" xlink:href="#m8b12e51c8c" y="254.346551"/>
     <use style="stroke:#000000;" x="90.680297" xlink:href="#m8b12e51c8c" y="113.298422"/>
     <use style="stroke:#000000;" x="395.108296" xlink:href="#m8b12e51c8c" y="251.466684"/>
     <use style="stroke:#000000;" x="105.024081" xlink:href="#m8b12e51c8c" y="129.926425"/>
     <use style="stroke:#000000;" x="157.183631" xlink:href="#m8b12e51c8c" y="156.474645"/>
     <use style="stroke:#000000;" x="106.425247" xlink:href="#m8b12e51c8c" y="131.11745"/>
     <use style="stroke:#000000;" x="81.665201" xlink:href="#m8b12e51c8c" y="85.632902"/>
     <use style="stroke:#000000;" x="81.505149" xlink:href="#m8b12e51c8c" y="83.288884"/>
     <use style="stroke:#000000;" x="148.478483" xlink:href="#m8b12e51c8c" y="153.602168"/>
     <use style="stroke:#000000;" x="81.448601" xlink:href="#m8b12e51c8c" y="81.954025"/>
     <use style="stroke:#000000;" x="82.351148" xlink:href="#m8b12e51c8c" y="91.075187"/>
     <use style="stroke:#000000;" x="151.448583" xlink:href="#m8b12e51c8c" y="154.626157"/>
     <use style="stroke:#000000;" x="357.892929" xlink:href="#m8b12e51c8c" y="235.539865"/>
     <use style="stroke:#000000;" x="115.900992" xlink:href="#m8b12e51c8c" y="138.068931"/>
     <use style="stroke:#000000;" x="135.244072" xlink:href="#m8b12e51c8c" y="148.385169"/>
     <use style="stroke:#000000;" x="165.613002" xlink:href="#m8b12e51c8c" y="158.916968"/>
     <use style="stroke:#000000;" x="131.360631" xlink:href="#m8b12e51c8c" y="153.458157"/>
     <use style="stroke:#000000;" x="122.172836" xlink:href="#m8b12e51c8c" y="141.868398"/>
     <use style="stroke:#000000;" x="121.025046" xlink:href="#m8b12e51c8c" y="145.603602"/>
     <use style="stroke:#000000;" x="135.397936" xlink:href="#m8b12e51c8c" y="148.452821"/>
     <use style="stroke:#000000;" x="88.528533" xlink:href="#m8b12e51c8c" y="109.517915"/>
     <use style="stroke:#000000;" x="91.568422" xlink:href="#m8b12e51c8c" y="114.699307"/>
     <use style="stroke:#000000;" x="87.46964" xlink:href="#m8b12e51c8c" y="107.398066"/>
     <use style="stroke:#000000;" x="343.623618" xlink:href="#m8b12e51c8c" y="247.873533"/>
     <use style="stroke:#000000;" x="398.939978" xlink:href="#m8b12e51c8c" y="254.344971"/>
     <use style="stroke:#000000;" x="405.1968" xlink:href="#m8b12e51c8c" y="254.3616"/>
     <use style="stroke:#000000;" x="90.868532" xlink:href="#m8b12e51c8c" y="113.602126"/>
     <use style="stroke:#000000;" x="82.479904" xlink:href="#m8b12e51c8c" y="91.814293"/>
     <use style="stroke:#000000;" x="83.299165" xlink:href="#m8b12e51c8c" y="95.674085"/>
     <use style="stroke:#000000;" x="87.238038" xlink:href="#m8b12e51c8c" y="107.864471"/>
     <use style="stroke:#000000;" x="87.422853" xlink:href="#m8b12e51c8c" y="107.299466"/>
     <use style="stroke:#000000;" x="86.408637" xlink:href="#m8b12e51c8c" y="105.039623"/>
     <use style="stroke:#000000;" x="160.751807" xlink:href="#m8b12e51c8c" y="157.546006"/>
     <use style="stroke:#000000;" x="152.212403" xlink:href="#m8b12e51c8c" y="154.881882"/>
     <use style="stroke:#000000;" x="167.444267" xlink:href="#m8b12e51c8c" y="166.240389"/>
     <use style="stroke:#000000;" x="279.203529" xlink:href="#m8b12e51c8c" y="182.406091"/>
     <use style="stroke:#000000;" x="244.60496" xlink:href="#m8b12e51c8c" y="171.714107"/>
     <use style="stroke:#000000;" x="280.828581" xlink:href="#m8b12e51c8c" y="173.844819"/>
     <use style="stroke:#000000;" x="129.335736" xlink:href="#m8b12e51c8c" y="146.090635"/>
     <use style="stroke:#000000;" x="125.66046" xlink:href="#m8b12e51c8c" y="143.771707"/>
     <use style="stroke:#000000;" x="131.007893" xlink:href="#m8b12e51c8c" y="146.447202"/>
     <use style="stroke:#000000;" x="141.718728" xlink:href="#m8b12e51c8c" y="151.08157"/>
     <use style="stroke:#000000;" x="119.949437" xlink:href="#m8b12e51c8c" y="151.354782"/>
     <use style="stroke:#000000;" x="124.551356" xlink:href="#m8b12e51c8c" y="143.180989"/>
     <use style="stroke:#000000;" x="90.462547" xlink:href="#m8b12e51c8c" y="113.949793"/>
     <use style="stroke:#000000;" x="84.161277" xlink:href="#m8b12e51c8c" y="98.829804"/>
     <use style="stroke:#000000;" x="83.759972" xlink:href="#m8b12e51c8c" y="98.828184"/>
     <use style="stroke:#000000;" x="154.00738" xlink:href="#m8b12e51c8c" y="155.952239"/>
     <use style="stroke:#000000;" x="166.938007" xlink:href="#m8b12e51c8c" y="159.273956"/>
     <use style="stroke:#000000;" x="150.125879" xlink:href="#m8b12e51c8c" y="165.861324"/>
     <use style="stroke:#000000;" x="97.968346" xlink:href="#m8b12e51c8c" y="126.524408"/>
     <use style="stroke:#000000;" x="87.477069" xlink:href="#m8b12e51c8c" y="110.08764"/>
     <use style="stroke:#000000;" x="89.053956" xlink:href="#m8b12e51c8c" y="110.499408"/>
     <use style="stroke:#000000;" x="167.251258" xlink:href="#m8b12e51c8c" y="163.785117"/>
     <use style="stroke:#000000;" x="167.1168" xlink:href="#m8b12e51c8c" y="159.3216"/>
     <use style="stroke:#000000;" x="168.840006" xlink:href="#m8b12e51c8c" y="174.804955"/>
     <use style="stroke:#000000;" x="83.013481" xlink:href="#m8b12e51c8c" y="100.557436"/>
     <use style="stroke:#000000;" x="82.007195" xlink:href="#m8b12e51c8c" y="92.053903"/>
     <use style="stroke:#000000;" x="83.923566" xlink:href="#m8b12e51c8c" y="105.749055"/>
     <use style="stroke:#000000;" x="81.8874" xlink:href="#m8b12e51c8c" y="87.826132"/>
     <use style="stroke:#000000;" x="81.93747" xlink:href="#m8b12e51c8c" y="88.240513"/>
     <use style="stroke:#000000;" x="84.880874" xlink:href="#m8b12e51c8c" y="101.05888"/>
     <use style="stroke:#000000;" x="153.076032" xlink:href="#m8b12e51c8c" y="183.222327"/>
     <use style="stroke:#000000;" x="148.364666" xlink:href="#m8b12e51c8c" y="153.561964"/>
     <use style="stroke:#000000;" x="150.377427" xlink:href="#m8b12e51c8c" y="182.09879"/>
     <use style="stroke:#000000;" x="345.086602" xlink:href="#m8b12e51c8c" y="238.289757"/>
     <use style="stroke:#000000;" x="393.792222" xlink:href="#m8b12e51c8c" y="251.055767"/>
     <use style="stroke:#000000;" x="382.29131" xlink:href="#m8b12e51c8c" y="247.083489"/>
     <use style="stroke:#000000;" x="102.909679" xlink:href="#m8b12e51c8c" y="135.459795"/>
     <use style="stroke:#000000;" x="90.381709" xlink:href="#m8b12e51c8c" y="112.808692"/>
     <use style="stroke:#000000;" x="92.983021" xlink:href="#m8b12e51c8c" y="117.955078"/>
     <use style="stroke:#000000;" x="165.599812" xlink:href="#m8b12e51c8c" y="166.224242"/>
     <use style="stroke:#000000;" x="155.314527" xlink:href="#m8b12e51c8c" y="155.889967"/>
     <use style="stroke:#000000;" x="157.23928" xlink:href="#m8b12e51c8c" y="162.849237"/>
     <use style="stroke:#000000;" x="82.239857" xlink:href="#m8b12e51c8c" y="90.391609"/>
     <use style="stroke:#000000;" x="82.638777" xlink:href="#m8b12e51c8c" y="92.663414"/>
     <use style="stroke:#000000;" x="84.470114" xlink:href="#m8b12e51c8c" y="99.822491"/>
     <use style="stroke:#000000;" x="88.319848" xlink:href="#m8b12e51c8c" y="113.055148"/>
     <use style="stroke:#000000;" x="89.444594" xlink:href="#m8b12e51c8c" y="120.330643"/>
     <use style="stroke:#000000;" x="88.041347" xlink:href="#m8b12e51c8c" y="108.56791"/>
     <use style="stroke:#000000;" x="81.947882" xlink:href="#m8b12e51c8c" y="92.073235"/>
     <use style="stroke:#000000;" x="81.82487" xlink:href="#m8b12e51c8c" y="87.275398"/>
     <use style="stroke:#000000;" x="81.456185" xlink:href="#m8b12e51c8c" y="82.904698"/>
     <use style="stroke:#000000;" x="92.809423" xlink:href="#m8b12e51c8c" y="123.835143"/>
     <use style="stroke:#000000;" x="115.661547" xlink:href="#m8b12e51c8c" y="151.481196"/>
     <use style="stroke:#000000;" x="110.493514" xlink:href="#m8b12e51c8c" y="134.314759"/>
     <use style="stroke:#000000;" x="123.420418" xlink:href="#m8b12e51c8c" y="142.56487"/>
     <use style="stroke:#000000;" x="116.126446" xlink:href="#m8b12e51c8c" y="143.165635"/>
     <use style="stroke:#000000;" x="128.27964" xlink:href="#m8b12e51c8c" y="148.000314"/>
     <use style="stroke:#000000;" x="112.223287" xlink:href="#m8b12e51c8c" y="135.571299"/>
     <use style="stroke:#000000;" x="81.812708" xlink:href="#m8b12e51c8c" y="87.163371"/>
     <use style="stroke:#000000;" x="358.574203" xlink:href="#m8b12e51c8c" y="238.537825"/>
     <use style="stroke:#000000;" x="123.402887" xlink:href="#m8b12e51c8c" y="147.136574"/>
     <use style="stroke:#000000;" x="123.342812" xlink:href="#m8b12e51c8c" y="150.875507"/>
     <use style="stroke:#000000;" x="137.672836" xlink:href="#m8b12e51c8c" y="149.43202"/>
     <use style="stroke:#000000;" x="127.000746" xlink:href="#m8b12e51c8c" y="144.468422"/>
     <use style="stroke:#000000;" x="140.987008" xlink:href="#m8b12e51c8c" y="150.791544"/>
     <use style="stroke:#000000;" x="361.13072" xlink:href="#m8b12e51c8c" y="237.400355"/>
     <use style="stroke:#000000;" x="342.07509" xlink:href="#m8b12e51c8c" y="241.186966"/>
     <use style="stroke:#000000;" x="376.853" xlink:href="#m8b12e51c8c" y="244.931876"/>
     <use style="stroke:#000000;" x="94.812437" xlink:href="#m8b12e51c8c" y="119.239394"/>
     <use style="stroke:#000000;" x="82.229615" xlink:href="#m8b12e51c8c" y="90.528135"/>
     <use style="stroke:#000000;" x="81.408" xlink:href="#m8b12e51c8c" y="79.488"/>
     <use style="stroke:#000000;" x="82.313926" xlink:href="#m8b12e51c8c" y="90.851591"/>
     <use style="stroke:#000000;" x="167.1168" xlink:href="#m8b12e51c8c" y="159.3216"/>
     <use style="stroke:#000000;" x="160.47881" xlink:href="#m8b12e51c8c" y="157.466047"/>
     <use style="stroke:#000000;" x="88.290115" xlink:href="#m8b12e51c8c" y="109.058067"/>
     <use style="stroke:#000000;" x="116.802003" xlink:href="#m8b12e51c8c" y="166.510016"/>
     <use style="stroke:#000000;" x="319.488" xlink:href="#m8b12e51c8c" y="174.528"/>
     <use style="stroke:#000000;" x="300.800295" xlink:href="#m8b12e51c8c" y="179.014276"/>
     <use style="stroke:#000000;" x="168.70306" xlink:href="#m8b12e51c8c" y="174.203747"/>
     <use style="stroke:#000000;" x="167.831267" xlink:href="#m8b12e51c8c" y="169.449155"/>
     <use style="stroke:#000000;" x="148.745029" xlink:href="#m8b12e51c8c" y="153.696037"/>
     <use style="stroke:#000000;" x="152.707806" xlink:href="#m8b12e51c8c" y="167.104434"/>
     <use style="stroke:#000000;" x="82.705301" xlink:href="#m8b12e51c8c" y="96.024742"/>
     <use style="stroke:#000000;" x="83.668578" xlink:href="#m8b12e51c8c" y="97.107455"/>
     <use style="stroke:#000000;" x="177.986241" xlink:href="#m8b12e51c8c" y="169.076434"/>
     <use style="stroke:#000000;" x="154.456388" xlink:href="#m8b12e51c8c" y="155.615896"/>
     <use style="stroke:#000000;" x="138.135072" xlink:href="#m8b12e51c8c" y="167.136689"/>
     <use style="stroke:#000000;" x="134.55984" xlink:href="#m8b12e51c8c" y="151.172587"/>
     <use style="stroke:#000000;" x="82.071184" xlink:href="#m8b12e51c8c" y="92.198086"/>
     <use style="stroke:#000000;" x="81.408" xlink:href="#m8b12e51c8c" y="79.488"/>
     <use style="stroke:#000000;" x="316.260362" xlink:href="#m8b12e51c8c" y="174.523603"/>
     <use style="stroke:#000000;" x="306.622427" xlink:href="#m8b12e51c8c" y="174.456676"/>
     <use style="stroke:#000000;" x="118.28838" xlink:href="#m8b12e51c8c" y="155.477066"/>
     <use style="stroke:#000000;" x="86.647512" xlink:href="#m8b12e51c8c" y="105.594555"/>
     <use style="stroke:#000000;" x="81.408" xlink:href="#m8b12e51c8c" y="79.488"/>
     <use style="stroke:#000000;" x="305.430372" xlink:href="#m8b12e51c8c" y="193.942819"/>
     <use style="stroke:#000000;" x="81.408" xlink:href="#m8b12e51c8c" y="79.488"/>
     <use style="stroke:#000000;" x="81.906116" xlink:href="#m8b12e51c8c" y="91.333722"/>
     <use style="stroke:#000000;" x="265.216519" xlink:href="#m8b12e51c8c" y="177.536767"/>
     <use style="stroke:#000000;" x="303.634065" xlink:href="#m8b12e51c8c" y="174.418979"/>
     <use style="stroke:#000000;" x="83.695593" xlink:href="#m8b12e51c8c" y="97.93533"/>
     <use style="stroke:#000000;" x="81.483301" xlink:href="#m8b12e51c8c" y="82.838406"/>
     <use style="stroke:#000000;" x="101.228036" xlink:href="#m8b12e51c8c" y="132.047174"/>
     <use style="stroke:#000000;" x="89.787866" xlink:href="#m8b12e51c8c" y="120.491862"/>
     <use style="stroke:#000000;" x="92.081499" xlink:href="#m8b12e51c8c" y="115.473732"/>
     <use style="stroke:#000000;" x="90.513208" xlink:href="#m8b12e51c8c" y="113.0256"/>
     <use style="stroke:#000000;" x="142.427295" xlink:href="#m8b12e51c8c" y="151.359064"/>
     <use style="stroke:#000000;" x="163.769274" xlink:href="#m8b12e51c8c" y="158.408544"/>
     <use style="stroke:#000000;" x="167.1168" xlink:href="#m8b12e51c8c" y="159.3216"/>
     <use style="stroke:#000000;" x="348.647377" xlink:href="#m8b12e51c8c" y="229.40958"/>
     <use style="stroke:#000000;" x="316.977512" xlink:href="#m8b12e51c8c" y="231.058092"/>
     <use style="stroke:#000000;" x="292.976067" xlink:href="#m8b12e51c8c" y="177.399934"/>
     <use style="stroke:#000000;" x="321.706174" xlink:href="#m8b12e51c8c" y="191.989845"/>
     <use style="stroke:#000000;" x="375.364906" xlink:href="#m8b12e51c8c" y="244.307777"/>
     <use style="stroke:#000000;" x="340.501485" xlink:href="#m8b12e51c8c" y="247.827119"/>
     <use style="stroke:#000000;" x="376.115212" xlink:href="#m8b12e51c8c" y="252.346761"/>
     <use style="stroke:#000000;" x="364.571686" xlink:href="#m8b12e51c8c" y="251.324262"/>
     <use style="stroke:#000000;" x="323.327382" xlink:href="#m8b12e51c8c" y="221.047386"/>
     <use style="stroke:#000000;" x="364.238568" xlink:href="#m8b12e51c8c" y="243.051702"/>
     <use style="stroke:#000000;" x="367.484575" xlink:href="#m8b12e51c8c" y="252.022727"/>
     <use style="stroke:#000000;" x="127.441451" xlink:href="#m8b12e51c8c" y="148.264975"/>
     <use style="stroke:#000000;" x="150.835915" xlink:href="#m8b12e51c8c" y="158.103606"/>
     <use style="stroke:#000000;" x="380.857057" xlink:href="#m8b12e51c8c" y="246.534841"/>
     <use style="stroke:#000000;" x="330.103978" xlink:href="#m8b12e51c8c" y="239.614664"/>
     <use style="stroke:#000000;" x="387.977781" xlink:href="#m8b12e51c8c" y="253.048188"/>
     <use style="stroke:#000000;" x="405.1968" xlink:href="#m8b12e51c8c" y="254.3616"/>
     <use style="stroke:#000000;" x="92.687681" xlink:href="#m8b12e51c8c" y="116.35883"/>
     <use style="stroke:#000000;" x="101.844324" xlink:href="#m8b12e51c8c" y="138.754721"/>
     <use style="stroke:#000000;" x="400.260851" xlink:href="#m8b12e51c8c" y="252.999307"/>
     <use style="stroke:#000000;" x="387.055836" xlink:href="#m8b12e51c8c" y="254.21813"/>
     <use style="stroke:#000000;" x="107.959613" xlink:href="#m8b12e51c8c" y="141.746879"/>
     <use style="stroke:#000000;" x="101.211266" xlink:href="#m8b12e51c8c" y="126.403213"/>
     <use style="stroke:#000000;" x="154.042967" xlink:href="#m8b12e51c8c" y="155.482566"/>
     <use style="stroke:#000000;" x="99.732207" xlink:href="#m8b12e51c8c" y="128.644535"/>
     <use style="stroke:#000000;" x="106.833839" xlink:href="#m8b12e51c8c" y="138.828296"/>
     <use style="stroke:#000000;" x="81.683207" xlink:href="#m8b12e51c8c" y="85.840696"/>
     <use style="stroke:#000000;" x="88.980294" xlink:href="#m8b12e51c8c" y="116.22898"/>
     <use style="stroke:#000000;" x="149.524885" xlink:href="#m8b12e51c8c" y="153.96841"/>
     <use style="stroke:#000000;" x="82.252288" xlink:href="#m8b12e51c8c" y="90.470286"/>
     <use style="stroke:#000000;" x="81.732963" xlink:href="#m8b12e51c8c" y="89.24379"/>
     <use style="stroke:#000000;" x="133.750529" xlink:href="#m8b12e51c8c" y="147.718769"/>
    </g>
   </g>
   <g id="PathCollection_2">
    <defs>
     <path d="M 0 0.935414 
C 0.248075 0.935414 0.486022 0.836853 0.661438 0.661438 
C 0.836853 0.486022 0.935414 0.248075 0.935414 0 
C 0.935414 -0.248075 0.836853 -0.486022 0.661438 -0.661438 
C 0.486022 -0.836853 0.248075 -0.935414 0 -0.935414 
C -0.248075 -0.935414 -0.486022 -0.836853 -0.661438 -0.661438 
C -0.836853 -0.486022 -0.935414 -0.248075 -0.935414 0 
C -0.935414 0.248075 -0.836853 0.486022 -0.661438 0.661438 
C -0.486022 0.836853 -0.248075 0.935414 0 0.935414 
z
" id="m2752c646d4" style="stroke:#0000ff;"/>
    </defs>
    <g clip-path="url(#p1852ce9062)">
     <use style="fill:#0000ff;stroke:#0000ff;" x="386.343453" xlink:href="#m2752c646d4" y="248.566151"/>
     <use style="fill:#0000ff;stroke:#0000ff;" x="131.051138" xlink:href="#m2752c646d4" y="146.467753"/>
     <use style="fill:#0000ff;stroke:#0000ff;" x="126.498361" xlink:href="#m2752c646d4" y="144.209418"/>
     <use style="fill:#0000ff;stroke:#0000ff;" x="89.843941" xlink:href="#m2752c646d4" y="111.900542"/>
     <use style="fill:#0000ff;stroke:#0000ff;" x="393.906702" xlink:href="#m2752c646d4" y="251.091839"/>
     <use style="fill:#0000ff;stroke:#0000ff;" x="83.272588" xlink:href="#m2752c646d4" y="95.565233"/>
     <use style="fill:#0000ff;stroke:#0000ff;" x="87.896231" xlink:href="#m2752c646d4" y="108.276869"/>
     <use style="fill:#0000ff;stroke:#0000ff;" x="159.456985" xlink:href="#m2752c646d4" y="157.163846"/>
     <use style="fill:#0000ff;stroke:#0000ff;" x="269.505386" xlink:href="#m2752c646d4" y="173.353908"/>
     <use style="fill:#0000ff;stroke:#0000ff;" x="122.623032" xlink:href="#m2752c646d4" y="142.121804"/>
     <use style="fill:#0000ff;stroke:#0000ff;" x="118.870053" xlink:href="#m2752c646d4" y="139.933287"/>
     <use style="fill:#0000ff;stroke:#0000ff;" x="83.981518" xlink:href="#m2752c646d4" y="98.223018"/>
     <use style="fill:#0000ff;stroke:#0000ff;" x="167.1168" xlink:href="#m2752c646d4" y="159.3216"/>
     <use style="fill:#0000ff;stroke:#0000ff;" x="93.513248" xlink:href="#m2752c646d4" y="117.516615"/>
     <use style="fill:#0000ff;stroke:#0000ff;" x="167.1168" xlink:href="#m2752c646d4" y="159.3216"/>
     <use style="fill:#0000ff;stroke:#0000ff;" x="81.61609" xlink:href="#m2752c646d4" y="85.024467"/>
     <use style="fill:#0000ff;stroke:#0000ff;" x="81.408" xlink:href="#m2752c646d4" y="79.488"/>
     <use style="fill:#0000ff;stroke:#0000ff;" x="141.666673" xlink:href="#m2752c646d4" y="151.061055"/>
     <use style="fill:#0000ff;stroke:#0000ff;" x="375.789947" xlink:href="#m2752c646d4" y="244.487675"/>
     <use style="fill:#0000ff;stroke:#0000ff;" x="92.031843" xlink:href="#m2752c646d4" y="115.399825"/>
     <use style="fill:#0000ff;stroke:#0000ff;" x="167.1168" xlink:href="#m2752c646d4" y="159.3216"/>
     <use style="fill:#0000ff;stroke:#0000ff;" x="81.873115" xlink:href="#m2752c646d4" y="87.703795"/>
     <use style="fill:#0000ff;stroke:#0000ff;" x="87.68713" xlink:href="#m2752c646d4" y="107.850563"/>
     <use style="fill:#0000ff;stroke:#0000ff;" x="81.408" xlink:href="#m2752c646d4" y="79.488"/>
     <use style="fill:#0000ff;stroke:#0000ff;" x="119.816963" xlink:href="#m2752c646d4" y="140.502263"/>
     <use style="fill:#0000ff;stroke:#0000ff;" x="112.948497" xlink:href="#m2752c646d4" y="136.081805"/>
     <use style="fill:#0000ff;stroke:#0000ff;" x="119.390893" xlink:href="#m2752c646d4" y="140.247709"/>
     <use style="fill:#0000ff;stroke:#0000ff;" x="82.475666" xlink:href="#m2752c646d4" y="91.790747"/>
     <use style="fill:#0000ff;stroke:#0000ff;" x="380.909729" xlink:href="#m2752c646d4" y="246.55522"/>
     <use style="fill:#0000ff;stroke:#0000ff;" x="128.200653" xlink:href="#m2752c646d4" y="145.076891"/>
     <use style="fill:#0000ff;stroke:#0000ff;" x="111.349651" xlink:href="#m2752c646d4" y="134.943703"/>
     <use style="fill:#0000ff;stroke:#0000ff;" x="136.808183" xlink:href="#m2752c646d4" y="149.064419"/>
     <use style="fill:#0000ff;stroke:#0000ff;" x="131.618463" xlink:href="#m2752c646d4" y="146.735832"/>
     <use style="fill:#0000ff;stroke:#0000ff;" x="148.909271" xlink:href="#m2752c646d4" y="153.75368"/>
     <use style="fill:#0000ff;stroke:#0000ff;" x="369.623292" xlink:href="#m2752c646d4" y="241.740472"/>
     <use style="fill:#0000ff;stroke:#0000ff;" x="90.628606" xlink:href="#m2752c646d4" y="113.214351"/>
     <use style="fill:#0000ff;stroke:#0000ff;" x="81.568729" xlink:href="#m2752c646d4" y="84.362649"/>
     <use style="fill:#0000ff;stroke:#0000ff;" x="161.289621" xlink:href="#m2752c646d4" y="157.702582"/>
     <use style="fill:#0000ff;stroke:#0000ff;" x="97.150534" xlink:href="#m2752c646d4" y="122.081553"/>
     <use style="fill:#0000ff;stroke:#0000ff;" x="105.113773" xlink:href="#m2752c646d4" y="130.004196"/>
     <use style="fill:#0000ff;stroke:#0000ff;" x="319.488" xlink:href="#m2752c646d4" y="174.528"/>
     <use style="fill:#0000ff;stroke:#0000ff;" x="167.1168" xlink:href="#m2752c646d4" y="159.3216"/>
     <use style="fill:#0000ff;stroke:#0000ff;" x="167.1168" xlink:href="#m2752c646d4" y="159.3216"/>
     <use style="fill:#0000ff;stroke:#0000ff;" x="81.408" xlink:href="#m2752c646d4" y="79.488"/>
     <use style="fill:#0000ff;stroke:#0000ff;" x="196.435129" xlink:href="#m2752c646d4" y="165.691902"/>
     <use style="fill:#0000ff;stroke:#0000ff;" x="136.15582" xlink:href="#m2752c646d4" y="148.783382"/>
     <use style="fill:#0000ff;stroke:#0000ff;" x="81.652381" xlink:href="#m2752c646d4" y="85.480324"/>
     <use style="fill:#0000ff;stroke:#0000ff;" x="319.488" xlink:href="#m2752c646d4" y="174.528"/>
     <use style="fill:#0000ff;stroke:#0000ff;" x="94.447494" xlink:href="#m2752c646d4" y="118.766872"/>
     <use style="fill:#0000ff;stroke:#0000ff;" x="87.515773" xlink:href="#m2752c646d4" y="107.494847"/>
     <use style="fill:#0000ff;stroke:#0000ff;" x="82.55952" xlink:href="#m2752c646d4" y="92.247689"/>
     <use style="fill:#0000ff;stroke:#0000ff;" x="320.003557" xlink:href="#m2752c646d4" y="183.167512"/>
     <use style="fill:#0000ff;stroke:#0000ff;" x="81.408" xlink:href="#m2752c646d4" y="79.488"/>
     <use style="fill:#0000ff;stroke:#0000ff;" x="319.488" xlink:href="#m2752c646d4" y="174.528"/>
     <use style="fill:#0000ff;stroke:#0000ff;" x="81.408" xlink:href="#m2752c646d4" y="79.488"/>
     <use style="fill:#0000ff;stroke:#0000ff;" x="115.604602" xlink:href="#m2752c646d4" y="137.875733"/>
     <use style="fill:#0000ff;stroke:#0000ff;" x="89.820131" xlink:href="#m2752c646d4" y="111.859518"/>
     <use style="fill:#0000ff;stroke:#0000ff;" x="84.478846" xlink:href="#m2752c646d4" y="99.849719"/>
     <use style="fill:#0000ff;stroke:#0000ff;" x="152.404384" xlink:href="#m2752c646d4" y="154.94568"/>
     <use style="fill:#0000ff;stroke:#0000ff;" x="167.210453" xlink:href="#m2752c646d4" y="163.054174"/>
     <use style="fill:#0000ff;stroke:#0000ff;" x="349.00029" xlink:href="#m2752c646d4" y="229.670042"/>
     <use style="fill:#0000ff;stroke:#0000ff;" x="319.739886" xlink:href="#m2752c646d4" y="180.610132"/>
     <use style="fill:#0000ff;stroke:#0000ff;" x="378.374475" xlink:href="#m2752c646d4" y="245.553748"/>
     <use style="fill:#0000ff;stroke:#0000ff;" x="392.625272" xlink:href="#m2752c646d4" y="250.684451"/>
     <use style="fill:#0000ff;stroke:#0000ff;" x="342.668719" xlink:href="#m2752c646d4" y="224.58584"/>
     <use style="fill:#0000ff;stroke:#0000ff;" x="392.888421" xlink:href="#m2752c646d4" y="250.768764"/>
     <use style="fill:#0000ff;stroke:#0000ff;" x="142.609972" xlink:href="#m2752c646d4" y="151.430077"/>
     <use style="fill:#0000ff;stroke:#0000ff;" x="371.027692" xlink:href="#m2752c646d4" y="242.393105"/>
     <use style="fill:#0000ff;stroke:#0000ff;" x="399.242818" xlink:href="#m2752c646d4" y="254.346551"/>
     <use style="fill:#0000ff;stroke:#0000ff;" x="90.680297" xlink:href="#m2752c646d4" y="113.298422"/>
     <use style="fill:#0000ff;stroke:#0000ff;" x="395.108296" xlink:href="#m2752c646d4" y="251.466684"/>
     <use style="fill:#0000ff;stroke:#0000ff;" x="105.024081" xlink:href="#m2752c646d4" y="129.926425"/>
     <use style="fill:#0000ff;stroke:#0000ff;" x="157.183631" xlink:href="#m2752c646d4" y="156.474645"/>
     <use style="fill:#0000ff;stroke:#0000ff;" x="106.425247" xlink:href="#m2752c646d4" y="131.11745"/>
     <use style="fill:#0000ff;stroke:#0000ff;" x="81.665201" xlink:href="#m2752c646d4" y="85.632902"/>
     <use style="fill:#0000ff;stroke:#0000ff;" x="81.505149" xlink:href="#m2752c646d4" y="83.288884"/>
     <use style="fill:#0000ff;stroke:#0000ff;" x="148.478483" xlink:href="#m2752c646d4" y="153.602168"/>
     <use style="fill:#0000ff;stroke:#0000ff;" x="81.448601" xlink:href="#m2752c646d4" y="81.954025"/>
     <use style="fill:#0000ff;stroke:#0000ff;" x="82.351148" xlink:href="#m2752c646d4" y="91.075187"/>
     <use style="fill:#0000ff;stroke:#0000ff;" x="151.448583" xlink:href="#m2752c646d4" y="154.626157"/>
    </g>
   </g>
   <g id="matplotlib.axis_1">
    <g id="xtick_1">
     <g id="line2d_1">
      <defs>
       <path d="M 0 0 
L 0 3.5 
" id="mb9e7ec2f83" style="stroke:#000000;stroke-width:0.8;"/>
      </defs>
      <g>
       <use style="stroke:#000000;stroke-width:0.8;" x="81.408" xlink:href="#mb9e7ec2f83" y="307.584"/>
      </g>
     </g>
     <g id="text_1">
      <!-- 0 -->
      <defs>
       <path d="M 31.78125 66.40625 
Q 24.171875 66.40625 20.328125 58.90625 
Q 16.5 51.421875 16.5 36.375 
Q 16.5 21.390625 20.328125 13.890625 
Q 24.171875 6.390625 31.78125 6.390625 
Q 39.453125 6.390625 43.28125 13.890625 
Q 47.125 21.390625 47.125 36.375 
Q 47.125 51.421875 43.28125 58.90625 
Q 39.453125 66.40625 31.78125 66.40625 
z
M 31.78125 74.21875 
Q 44.046875 74.21875 50.515625 64.515625 
Q 56.984375 54.828125 56.984375 36.375 
Q 56.984375 17.96875 50.515625 8.265625 
Q 44.046875 -1.421875 31.78125 -1.421875 
Q 19.53125 -1.421875 13.0625 8.265625 
Q 6.59375 17.96875 6.59375 36.375 
Q 6.59375 54.828125 13.0625 64.515625 
Q 19.53125 74.21875 31.78125 74.21875 
z
" id="DejaVuSans-30"/>
      </defs>
      <g transform="translate(78.22675 322.182437)scale(0.1 -0.1)">
       <use xlink:href="#DejaVuSans-30"/>
      </g>
     </g>
    </g>
    <g id="xtick_2">
     <g id="line2d_2">
      <g>
       <use style="stroke:#000000;stroke-width:0.8;" x="129.024" xlink:href="#mb9e7ec2f83" y="307.584"/>
      </g>
     </g>
     <g id="text_2">
      <!-- 20 -->
      <defs>
       <path d="M 19.1875 8.296875 
L 53.609375 8.296875 
L 53.609375 0 
L 7.328125 0 
L 7.328125 8.296875 
Q 12.9375 14.109375 22.625 23.890625 
Q 32.328125 33.6875 34.8125 36.53125 
Q 39.546875 41.84375 41.421875 45.53125 
Q 43.3125 49.21875 43.3125 52.78125 
Q 43.3125 58.59375 39.234375 62.25 
Q 35.15625 65.921875 28.609375 65.921875 
Q 23.96875 65.921875 18.8125 64.3125 
Q 13.671875 62.703125 7.8125 59.421875 
L 7.8125 69.390625 
Q 13.765625 71.78125 18.9375 73 
Q 24.125 74.21875 28.421875 74.21875 
Q 39.75 74.21875 46.484375 68.546875 
Q 53.21875 62.890625 53.21875 53.421875 
Q 53.21875 48.921875 51.53125 44.890625 
Q 49.859375 40.875 45.40625 35.40625 
Q 44.1875 33.984375 37.640625 27.21875 
Q 31.109375 20.453125 19.1875 8.296875 
z
" id="DejaVuSans-32"/>
      </defs>
      <g transform="translate(122.6615 322.182437)scale(0.1 -0.1)">
       <use xlink:href="#DejaVuSans-32"/>
       <use x="63.623047" xlink:href="#DejaVuSans-30"/>
      </g>
     </g>
    </g>
    <g id="xtick_3">
     <g id="line2d_3">
      <g>
       <use style="stroke:#000000;stroke-width:0.8;" x="176.64" xlink:href="#mb9e7ec2f83" y="307.584"/>
      </g>
     </g>
     <g id="text_3">
      <!-- 40 -->
      <defs>
       <path d="M 37.796875 64.3125 
L 12.890625 25.390625 
L 37.796875 25.390625 
z
M 35.203125 72.90625 
L 47.609375 72.90625 
L 47.609375 25.390625 
L 58.015625 25.390625 
L 58.015625 17.1875 
L 47.609375 17.1875 
L 47.609375 0 
L 37.796875 0 
L 37.796875 17.1875 
L 4.890625 17.1875 
L 4.890625 26.703125 
z
" id="DejaVuSans-34"/>
      </defs>
      <g transform="translate(170.2775 322.182437)scale(0.1 -0.1)">
       <use xlink:href="#DejaVuSans-34"/>
       <use x="63.623047" xlink:href="#DejaVuSans-30"/>
      </g>
     </g>
    </g>
    <g id="xtick_4">
     <g id="line2d_4">
      <g>
       <use style="stroke:#000000;stroke-width:0.8;" x="224.256" xlink:href="#mb9e7ec2f83" y="307.584"/>
      </g>
     </g>
     <g id="text_4">
      <!-- 60 -->
      <defs>
       <path d="M 33.015625 40.375 
Q 26.375 40.375 22.484375 35.828125 
Q 18.609375 31.296875 18.609375 23.390625 
Q 18.609375 15.53125 22.484375 10.953125 
Q 26.375 6.390625 33.015625 6.390625 
Q 39.65625 6.390625 43.53125 10.953125 
Q 47.40625 15.53125 47.40625 23.390625 
Q 47.40625 31.296875 43.53125 35.828125 
Q 39.65625 40.375 33.015625 40.375 
z
M 52.59375 71.296875 
L 52.59375 62.3125 
Q 48.875 64.0625 45.09375 64.984375 
Q 41.3125 65.921875 37.59375 65.921875 
Q 27.828125 65.921875 22.671875 59.328125 
Q 17.53125 52.734375 16.796875 39.40625 
Q 19.671875 43.65625 24.015625 45.921875 
Q 28.375 48.1875 33.59375 48.1875 
Q 44.578125 48.1875 50.953125 41.515625 
Q 57.328125 34.859375 57.328125 23.390625 
Q 57.328125 12.15625 50.6875 5.359375 
Q 44.046875 -1.421875 33.015625 -1.421875 
Q 20.359375 -1.421875 13.671875 8.265625 
Q 6.984375 17.96875 6.984375 36.375 
Q 6.984375 53.65625 15.1875 63.9375 
Q 23.390625 74.21875 37.203125 74.21875 
Q 40.921875 74.21875 44.703125 73.484375 
Q 48.484375 72.75 52.59375 71.296875 
z
" id="DejaVuSans-36"/>
      </defs>
      <g transform="translate(217.8935 322.182437)scale(0.1 -0.1)">
       <use xlink:href="#DejaVuSans-36"/>
       <use x="63.623047" xlink:href="#DejaVuSans-30"/>
      </g>
     </g>
    </g>
    <g id="xtick_5">
     <g id="line2d_5">
      <g>
       <use style="stroke:#000000;stroke-width:0.8;" x="271.872" xlink:href="#mb9e7ec2f83" y="307.584"/>
      </g>
     </g>
     <g id="text_5">
      <!-- 80 -->
      <defs>
       <path d="M 31.78125 34.625 
Q 24.75 34.625 20.71875 30.859375 
Q 16.703125 27.09375 16.703125 20.515625 
Q 16.703125 13.921875 20.71875 10.15625 
Q 24.75 6.390625 31.78125 6.390625 
Q 38.8125 6.390625 42.859375 10.171875 
Q 46.921875 13.96875 46.921875 20.515625 
Q 46.921875 27.09375 42.890625 30.859375 
Q 38.875 34.625 31.78125 34.625 
z
M 21.921875 38.8125 
Q 15.578125 40.375 12.03125 44.71875 
Q 8.5 49.078125 8.5 55.328125 
Q 8.5 64.0625 14.71875 69.140625 
Q 20.953125 74.21875 31.78125 74.21875 
Q 42.671875 74.21875 48.875 69.140625 
Q 55.078125 64.0625 55.078125 55.328125 
Q 55.078125 49.078125 51.53125 44.71875 
Q 48 40.375 41.703125 38.8125 
Q 48.828125 37.15625 52.796875 32.3125 
Q 56.78125 27.484375 56.78125 20.515625 
Q 56.78125 9.90625 50.3125 4.234375 
Q 43.84375 -1.421875 31.78125 -1.421875 
Q 19.734375 -1.421875 13.25 4.234375 
Q 6.78125 9.90625 6.78125 20.515625 
Q 6.78125 27.484375 10.78125 32.3125 
Q 14.796875 37.15625 21.921875 38.8125 
z
M 18.3125 54.390625 
Q 18.3125 48.734375 21.84375 45.5625 
Q 25.390625 42.390625 31.78125 42.390625 
Q 38.140625 42.390625 41.71875 45.5625 
Q 45.3125 48.734375 45.3125 54.390625 
Q 45.3125 60.0625 41.71875 63.234375 
Q 38.140625 66.40625 31.78125 66.40625 
Q 25.390625 66.40625 21.84375 63.234375 
Q 18.3125 60.0625 18.3125 54.390625 
z
" id="DejaVuSans-38"/>
      </defs>
      <g transform="translate(265.5095 322.182437)scale(0.1 -0.1)">
       <use xlink:href="#DejaVuSans-38"/>
       <use x="63.623047" xlink:href="#DejaVuSans-30"/>
      </g>
     </g>
    </g>
    <g id="xtick_6">
     <g id="line2d_6">
      <g>
       <use style="stroke:#000000;stroke-width:0.8;" x="319.488" xlink:href="#mb9e7ec2f83" y="307.584"/>
      </g>
     </g>
     <g id="text_6">
      <!-- 100 -->
      <defs>
       <path d="M 12.40625 8.296875 
L 28.515625 8.296875 
L 28.515625 63.921875 
L 10.984375 60.40625 
L 10.984375 69.390625 
L 28.421875 72.90625 
L 38.28125 72.90625 
L 38.28125 8.296875 
L 54.390625 8.296875 
L 54.390625 0 
L 12.40625 0 
z
" id="DejaVuSans-31"/>
      </defs>
      <g transform="translate(309.94425 322.182437)scale(0.1 -0.1)">
       <use xlink:href="#DejaVuSans-31"/>
       <use x="63.623047" xlink:href="#DejaVuSans-30"/>
       <use x="127.246094" xlink:href="#DejaVuSans-30"/>
      </g>
     </g>
    </g>
    <g id="xtick_7">
     <g id="line2d_7">
      <g>
       <use style="stroke:#000000;stroke-width:0.8;" x="367.104" xlink:href="#mb9e7ec2f83" y="307.584"/>
      </g>
     </g>
     <g id="text_7">
      <!-- 120 -->
      <g transform="translate(357.56025 322.182437)scale(0.1 -0.1)">
       <use xlink:href="#DejaVuSans-31"/>
       <use x="63.623047" xlink:href="#DejaVuSans-32"/>
       <use x="127.246094" xlink:href="#DejaVuSans-30"/>
      </g>
     </g>
    </g>
    <g id="xtick_8">
     <g id="line2d_8">
      <g>
       <use style="stroke:#000000;stroke-width:0.8;" x="414.72" xlink:href="#mb9e7ec2f83" y="307.584"/>
      </g>
     </g>
     <g id="text_8">
      <!-- 140 -->
      <g transform="translate(405.17625 322.182437)scale(0.1 -0.1)">
       <use xlink:href="#DejaVuSans-31"/>
       <use x="63.623047" xlink:href="#DejaVuSans-34"/>
       <use x="127.246094" xlink:href="#DejaVuSans-30"/>
      </g>
     </g>
    </g>
   </g>
   <g id="matplotlib.axis_2">
    <g id="ytick_1">
     <g id="line2d_9">
      <defs>
       <path d="M 0 0 
L -3.5 0 
" id="mca1129dee2" style="stroke:#000000;stroke-width:0.8;"/>
      </defs>
      <g>
       <use style="stroke:#000000;stroke-width:0.8;" x="57.6" xlink:href="#mca1129dee2" y="307.584"/>
      </g>
     </g>
     <g id="text_9">
      <!-- −10 -->
      <defs>
       <path d="M 10.59375 35.5 
L 73.1875 35.5 
L 73.1875 27.203125 
L 10.59375 27.203125 
z
" id="DejaVuSans-2212"/>
      </defs>
      <g transform="translate(29.495313 311.383219)scale(0.1 -0.1)">
       <use xlink:href="#DejaVuSans-2212"/>
       <use x="83.789062" xlink:href="#DejaVuSans-31"/>
       <use x="147.412109" xlink:href="#DejaVuSans-30"/>
      </g>
     </g>
    </g>
    <g id="ytick_2">
     <g id="line2d_10">
      <g>
       <use style="stroke:#000000;stroke-width:0.8;" x="57.6" xlink:href="#mca1129dee2" y="269.568"/>
      </g>
     </g>
     <g id="text_10">
      <!-- 0 -->
      <g transform="translate(44.2375 273.367219)scale(0.1 -0.1)">
       <use xlink:href="#DejaVuSans-30"/>
      </g>
     </g>
    </g>
    <g id="ytick_3">
     <g id="line2d_11">
      <g>
       <use style="stroke:#000000;stroke-width:0.8;" x="57.6" xlink:href="#mca1129dee2" y="231.552"/>
      </g>
     </g>
     <g id="text_11">
      <!-- 10 -->
      <g transform="translate(37.875 235.351219)scale(0.1 -0.1)">
       <use xlink:href="#DejaVuSans-31"/>
       <use x="63.623047" xlink:href="#DejaVuSans-30"/>
      </g>
     </g>
    </g>
    <g id="ytick_4">
     <g id="line2d_12">
      <g>
       <use style="stroke:#000000;stroke-width:0.8;" x="57.6" xlink:href="#mca1129dee2" y="193.536"/>
      </g>
     </g>
     <g id="text_12">
      <!-- 20 -->
      <g transform="translate(37.875 197.335219)scale(0.1 -0.1)">
       <use xlink:href="#DejaVuSans-32"/>
       <use x="63.623047" xlink:href="#DejaVuSans-30"/>
      </g>
     </g>
    </g>
    <g id="ytick_5">
     <g id="line2d_13">
      <g>
       <use style="stroke:#000000;stroke-width:0.8;" x="57.6" xlink:href="#mca1129dee2" y="155.52"/>
      </g>
     </g>
     <g id="text_13">
      <!-- 30 -->
      <defs>
       <path d="M 40.578125 39.3125 
Q 47.65625 37.796875 51.625 33 
Q 55.609375 28.21875 55.609375 21.1875 
Q 55.609375 10.40625 48.1875 4.484375 
Q 40.765625 -1.421875 27.09375 -1.421875 
Q 22.515625 -1.421875 17.65625 -0.515625 
Q 12.796875 0.390625 7.625 2.203125 
L 7.625 11.71875 
Q 11.71875 9.328125 16.59375 8.109375 
Q 21.484375 6.890625 26.8125 6.890625 
Q 36.078125 6.890625 40.9375 10.546875 
Q 45.796875 14.203125 45.796875 21.1875 
Q 45.796875 27.640625 41.28125 31.265625 
Q 36.765625 34.90625 28.71875 34.90625 
L 20.21875 34.90625 
L 20.21875 43.015625 
L 29.109375 43.015625 
Q 36.375 43.015625 40.234375 45.921875 
Q 44.09375 48.828125 44.09375 54.296875 
Q 44.09375 59.90625 40.109375 62.90625 
Q 36.140625 65.921875 28.71875 65.921875 
Q 24.65625 65.921875 20.015625 65.03125 
Q 15.375 64.15625 9.8125 62.3125 
L 9.8125 71.09375 
Q 15.4375 72.65625 20.34375 73.4375 
Q 25.25 74.21875 29.59375 74.21875 
Q 40.828125 74.21875 47.359375 69.109375 
Q 53.90625 64.015625 53.90625 55.328125 
Q 53.90625 49.265625 50.4375 45.09375 
Q 46.96875 40.921875 40.578125 39.3125 
z
" id="DejaVuSans-33"/>
      </defs>
      <g transform="translate(37.875 159.319219)scale(0.1 -0.1)">
       <use xlink:href="#DejaVuSans-33"/>
       <use x="63.623047" xlink:href="#DejaVuSans-30"/>
      </g>
     </g>
    </g>
    <g id="ytick_6">
     <g id="line2d_14">
      <g>
       <use style="stroke:#000000;stroke-width:0.8;" x="57.6" xlink:href="#mca1129dee2" y="117.504"/>
      </g>
     </g>
     <g id="text_14">
      <!-- 40 -->
      <g transform="translate(37.875 121.303219)scale(0.1 -0.1)">
       <use xlink:href="#DejaVuSans-34"/>
       <use x="63.623047" xlink:href="#DejaVuSans-30"/>
      </g>
     </g>
    </g>
    <g id="ytick_7">
     <g id="line2d_15">
      <g>
       <use style="stroke:#000000;stroke-width:0.8;" x="57.6" xlink:href="#mca1129dee2" y="79.488"/>
      </g>
     </g>
     <g id="text_15">
      <!-- 50 -->
      <defs>
       <path d="M 10.796875 72.90625 
L 49.515625 72.90625 
L 49.515625 64.59375 
L 19.828125 64.59375 
L 19.828125 46.734375 
Q 21.96875 47.46875 24.109375 47.828125 
Q 26.265625 48.1875 28.421875 48.1875 
Q 40.625 48.1875 47.75 41.5 
Q 54.890625 34.8125 54.890625 23.390625 
Q 54.890625 11.625 47.5625 5.09375 
Q 40.234375 -1.421875 26.90625 -1.421875 
Q 22.3125 -1.421875 17.546875 -0.640625 
Q 12.796875 0.140625 7.71875 1.703125 
L 7.71875 11.625 
Q 12.109375 9.234375 16.796875 8.0625 
Q 21.484375 6.890625 26.703125 6.890625 
Q 35.15625 6.890625 40.078125 11.328125 
Q 45.015625 15.765625 45.015625 23.390625 
Q 45.015625 31 40.078125 35.4375 
Q 35.15625 39.890625 26.703125 39.890625 
Q 22.75 39.890625 18.8125 39.015625 
Q 14.890625 38.140625 10.796875 36.28125 
z
" id="DejaVuSans-35"/>
      </defs>
      <g transform="translate(37.875 83.287219)scale(0.1 -0.1)">
       <use xlink:href="#DejaVuSans-35"/>
       <use x="63.623047" xlink:href="#DejaVuSans-30"/>
      </g>
     </g>
    </g>
    <g id="ytick_8">
     <g id="line2d_16">
      <g>
       <use style="stroke:#000000;stroke-width:0.8;" x="57.6" xlink:href="#mca1129dee2" y="41.472"/>
      </g>
     </g>
     <g id="text_16">
      <!-- 60 -->
      <g transform="translate(37.875 45.271219)scale(0.1 -0.1)">
       <use xlink:href="#DejaVuSans-36"/>
       <use x="63.623047" xlink:href="#DejaVuSans-30"/>
      </g>
     </g>
    </g>
   </g>
   <g id="patch_3">
    <path d="M 57.6 307.584 
L 57.6 41.472 
" style="fill:none;stroke:#000000;stroke-linecap:square;stroke-linejoin:miter;stroke-width:0.8;"/>
   </g>
   <g id="patch_4">
    <path d="M 414.72 307.584 
L 414.72 41.472 
" style="fill:none;stroke:#000000;stroke-linecap:square;stroke-linejoin:miter;stroke-width:0.8;"/>
   </g>
   <g id="patch_5">
    <path d="M 57.6 307.584 
L 414.72 307.584 
" style="fill:none;stroke:#000000;stroke-linecap:square;stroke-linejoin:miter;stroke-width:0.8;"/>
   </g>
   <g id="patch_6">
    <path d="M 57.6 41.472 
L 414.72 41.472 
" style="fill:none;stroke:#000000;stroke-linecap:square;stroke-linejoin:miter;stroke-width:0.8;"/>
   </g>
  </g>
 </g>
 <defs>
  <clipPath id="p1852ce9062">
   <rect height="266.112" width="357.12" x="57.6" y="41.472"/>
  </clipPath>
 </defs>
</svg>
