<?xml version="1.0" encoding="utf-8" standalone="no"?>
<!DOCTYPE svg PUBLIC "-//W3C//DTD SVG 1.1//EN"
  "http://www.w3.org/Graphics/SVG/1.1/DTD/svg11.dtd">
<!-- Created with matplotlib (http://matplotlib.org/) -->
<svg height="345.6pt" version="1.1" viewBox="0 0 460.8 345.6" width="460.8pt" xmlns="http://www.w3.org/2000/svg" xmlns:xlink="http://www.w3.org/1999/xlink">
 <defs>
  <style type="text/css">
*{stroke-linecap:butt;stroke-linejoin:round;}
  </style>
 </defs>
 <g id="figure_1">
  <g id="patch_1">
   <path d="M 0 345.6 
L 460.8 345.6 
L 460.8 0 
L 0 0 
z
" style="fill:#ffffff;"/>
  </g>
  <g id="axes_1">
   <g id="patch_2">
    <path d="M 57.6 307.584 
L 414.72 307.584 
L 414.72 41.472 
L 57.6 41.472 
z
" style="fill:#ffffff;"/>
   </g>
   <g id="PathCollection_1">
    <defs>
     <path d="M 0 0.612372 
C 0.162403 0.612372 0.318176 0.547849 0.433013 0.433013 
C 0.547849 0.318176 0.612372 0.162403 0.612372 0 
C 0.612372 -0.162403 0.547849 -0.318176 0.433013 -0.433013 
C 0.318176 -0.547849 0.162403 -0.612372 0 -0.612372 
C -0.162403 -0.612372 -0.318176 -0.547849 -0.433013 -0.433013 
C -0.547849 -0.318176 -0.612372 -0.162403 -0.612372 0 
C -0.612372 0.162403 -0.547849 0.318176 -0.433013 0.433013 
C -0.318176 0.547849 -0.162403 0.612372 0 0.612372 
z
" id="mb31aee1841" style="stroke:#000000;"/>
    </defs>
    <g clip-path="url(#p3c5d3ea415)">
     <use style="stroke:#000000;" x="374.776147" xlink:href="#mb31aee1841" y="244.056381"/>
     <use style="stroke:#000000;" x="87.04071" xlink:href="#mb31aee1841" y="106.476517"/>
     <use style="stroke:#000000;" x="133.750529" xlink:href="#mb31aee1841" y="147.718769"/>
     <use style="stroke:#000000;" x="386.343453" xlink:href="#mb31aee1841" y="248.566151"/>
     <use style="stroke:#000000;" x="131.051138" xlink:href="#mb31aee1841" y="146.467753"/>
     <use style="stroke:#000000;" x="126.498361" xlink:href="#mb31aee1841" y="144.209418"/>
     <use style="stroke:#000000;" x="89.843941" xlink:href="#mb31aee1841" y="111.900542"/>
     <use style="stroke:#000000;" x="393.906702" xlink:href="#mb31aee1841" y="251.091839"/>
     <use style="stroke:#000000;" x="83.272588" xlink:href="#mb31aee1841" y="95.565233"/>
     <use style="stroke:#000000;" x="87.896231" xlink:href="#mb31aee1841" y="108.276869"/>
     <use style="stroke:#000000;" x="159.456985" xlink:href="#mb31aee1841" y="157.163846"/>
     <use style="stroke:#000000;" x="269.505386" xlink:href="#mb31aee1841" y="173.353908"/>
     <use style="stroke:#000000;" x="118.870053" xlink:href="#mb31aee1841" y="139.933287"/>
     <use style="stroke:#000000;" x="122.623032" xlink:href="#mb31aee1841" y="142.121804"/>
     <use style="stroke:#000000;" x="83.981518" xlink:href="#mb31aee1841" y="98.223018"/>
     <use style="stroke:#000000;" x="167.1168" xlink:href="#mb31aee1841" y="159.3216"/>
     <use style="stroke:#000000;" x="93.513248" xlink:href="#mb31aee1841" y="117.516615"/>
     <use style="stroke:#000000;" x="167.1168" xlink:href="#mb31aee1841" y="159.3216"/>
     <use style="stroke:#000000;" x="81.61609" xlink:href="#mb31aee1841" y="85.024467"/>
     <use style="stroke:#000000;" x="81.408" xlink:href="#mb31aee1841" y="79.488"/>
     <use style="stroke:#000000;" x="141.666673" xlink:href="#mb31aee1841" y="151.061055"/>
     <use style="stroke:#000000;" x="375.789947" xlink:href="#mb31aee1841" y="244.487675"/>
     <use style="stroke:#000000;" x="92.031843" xlink:href="#mb31aee1841" y="115.399825"/>
     <use style="stroke:#000000;" x="167.1168" xlink:href="#mb31aee1841" y="159.3216"/>
     <use style="stroke:#000000;" x="81.408" xlink:href="#mb31aee1841" y="79.488"/>
     <use style="stroke:#000000;" x="87.68713" xlink:href="#mb31aee1841" y="107.850563"/>
     <use style="stroke:#000000;" x="81.873115" xlink:href="#mb31aee1841" y="87.703795"/>
     <use style="stroke:#000000;" x="119.816963" xlink:href="#mb31aee1841" y="140.502263"/>
     <use style="stroke:#000000;" x="128.200653" xlink:href="#mb31aee1841" y="145.076891"/>
     <use style="stroke:#000000;" x="82.475666" xlink:href="#mb31aee1841" y="91.790747"/>
     <use style="stroke:#000000;" x="112.948497" xlink:href="#mb31aee1841" y="136.081805"/>
     <use style="stroke:#000000;" x="119.390893" xlink:href="#mb31aee1841" y="140.247709"/>
     <use style="stroke:#000000;" x="380.909729" xlink:href="#mb31aee1841" y="246.55522"/>
     <use style="stroke:#000000;" x="111.349651" xlink:href="#mb31aee1841" y="134.943703"/>
     <use style="stroke:#000000;" x="136.808183" xlink:href="#mb31aee1841" y="149.064419"/>
     <use style="stroke:#000000;" x="83.998961" xlink:href="#mb31aee1841" y="98.282915"/>
     <use style="stroke:#000000;" x="131.618463" xlink:href="#mb31aee1841" y="146.735832"/>
     <use style="stroke:#000000;" x="369.623292" xlink:href="#mb31aee1841" y="241.740472"/>
     <use style="stroke:#000000;" x="81.683207" xlink:href="#mb31aee1841" y="85.840696"/>
     <use style="stroke:#000000;" x="94.491704" xlink:href="#mb31aee1841" y="118.824571"/>
     <use style="stroke:#000000;" x="148.909271" xlink:href="#mb31aee1841" y="153.75368"/>
     <use style="stroke:#000000;" x="81.652381" xlink:href="#mb31aee1841" y="85.480324"/>
     <use style="stroke:#000000;" x="324.085278" xlink:href="#mb31aee1841" y="199.106259"/>
     <use style="stroke:#000000;" x="81.559233" xlink:href="#mb31aee1841" y="84.218325"/>
     <use style="stroke:#000000;" x="81.408" xlink:href="#mb31aee1841" y="79.488"/>
     <use style="stroke:#000000;" x="161.289621" xlink:href="#mb31aee1841" y="157.702582"/>
     <use style="stroke:#000000;" x="81.568729" xlink:href="#mb31aee1841" y="84.362649"/>
     <use style="stroke:#000000;" x="125.076431" xlink:href="#mb31aee1841" y="143.462284"/>
     <use style="stroke:#000000;" x="167.1168" xlink:href="#mb31aee1841" y="159.3216"/>
     <use style="stroke:#000000;" x="158.091054" xlink:href="#mb31aee1841" y="156.752578"/>
     <use style="stroke:#000000;" x="395.911424" xlink:href="#mb31aee1841" y="251.713445"/>
     <use style="stroke:#000000;" x="319.488" xlink:href="#mb31aee1841" y="174.528"/>
     <use style="stroke:#000000;" x="136.15582" xlink:href="#mb31aee1841" y="148.783382"/>
     <use style="stroke:#000000;" x="396.856614" xlink:href="#mb31aee1841" y="252.000049"/>
     <use style="stroke:#000000;" x="81.408" xlink:href="#mb31aee1841" y="79.488"/>
     <use style="stroke:#000000;" x="105.113773" xlink:href="#mb31aee1841" y="130.004196"/>
     <use style="stroke:#000000;" x="84.615544" xlink:href="#mb31aee1841" y="100.270402"/>
     <use style="stroke:#000000;" x="90.628606" xlink:href="#mb31aee1841" y="113.214351"/>
     <use style="stroke:#000000;" x="88.931412" xlink:href="#mb31aee1841" y="110.27425"/>
     <use style="stroke:#000000;" x="99.225993" xlink:href="#mb31aee1841" y="124.375293"/>
     <use style="stroke:#000000;" x="146.910516" xlink:href="#mb31aee1841" y="153.041838"/>
     <use style="stroke:#000000;" x="167.1168" xlink:href="#mb31aee1841" y="159.3216"/>
     <use style="stroke:#000000;" x="86.461058" xlink:href="#mb31aee1841" y="105.162709"/>
     <use style="stroke:#000000;" x="319.488" xlink:href="#mb31aee1841" y="174.528"/>
     <use style="stroke:#000000;" x="319.488" xlink:href="#mb31aee1841" y="174.528"/>
     <use style="stroke:#000000;" x="81.53842" xlink:href="#mb31aee1841" y="83.884782"/>
     <use style="stroke:#000000;" x="367.358213" xlink:href="#mb31aee1841" y="240.651494"/>
     <use style="stroke:#000000;" x="82.252288" xlink:href="#mb31aee1841" y="90.470286"/>
     <use style="stroke:#000000;" x="167.356922" xlink:href="#mb31aee1841" y="165.262329"/>
     <use style="stroke:#000000;" x="315.349483" xlink:href="#mb31aee1841" y="174.520757"/>
     <use style="stroke:#000000;" x="149.524885" xlink:href="#mb31aee1841" y="153.96841"/>
     <use style="stroke:#000000;" x="97.150534" xlink:href="#mb31aee1841" y="122.081553"/>
     <use style="stroke:#000000;" x="196.435129" xlink:href="#mb31aee1841" y="165.691902"/>
     <use style="stroke:#000000;" x="82.07915" xlink:href="#mb31aee1841" y="89.312258"/>
     <use style="stroke:#000000;" x="167.1168" xlink:href="#mb31aee1841" y="159.3216"/>
     <use style="stroke:#000000;" x="167.311564" xlink:href="#mb31aee1841" y="164.680477"/>
     <use style="stroke:#000000;" x="162.651513" xlink:href="#mb31aee1841" y="158.093521"/>
     <use style="stroke:#000000;" x="133.925303" xlink:href="#mb31aee1841" y="147.797674"/>
     <use style="stroke:#000000;" x="167.118092" xlink:href="#mb31aee1841" y="159.763956"/>
     <use style="stroke:#000000;" x="167.121618" xlink:href="#mb31aee1841" y="160.174794"/>
     <use style="stroke:#000000;" x="297.959562" xlink:href="#mb31aee1841" y="243.598052"/>
     <use style="stroke:#000000;" x="94.317737" xlink:href="#mb31aee1841" y="118.596784"/>
     <use style="stroke:#000000;" x="85.323378" xlink:href="#mb31aee1841" y="102.30097"/>
     <use style="stroke:#000000;" x="88.309437" xlink:href="#mb31aee1841" y="111.410792"/>
     <use style="stroke:#000000;" x="88.983829" xlink:href="#mb31aee1841" y="115.680467"/>
     <use style="stroke:#000000;" x="140.881186" xlink:href="#mb31aee1841" y="150.749305"/>
     <use style="stroke:#000000;" x="126.761717" xlink:href="#mb31aee1841" y="144.345508"/>
     <use style="stroke:#000000;" x="147.269082" xlink:href="#mb31aee1841" y="154.427961"/>
     <use style="stroke:#000000;" x="389.461638" xlink:href="#mb31aee1841" y="249.643598"/>
     <use style="stroke:#000000;" x="388.984333" xlink:href="#mb31aee1841" y="249.482076"/>
     <use style="stroke:#000000;" x="386.78082" xlink:href="#mb31aee1841" y="248.720495"/>
     <use style="stroke:#000000;" x="147.696459" xlink:href="#mb31aee1841" y="153.324457"/>
     <use style="stroke:#000000;" x="117.715086" xlink:href="#mb31aee1841" y="139.222942"/>
     <use style="stroke:#000000;" x="146.250134" xlink:href="#mb31aee1841" y="157.192955"/>
     <use style="stroke:#000000;" x="122.618882" xlink:href="#mb31aee1841" y="144.68932"/>
     <use style="stroke:#000000;" x="119.630221" xlink:href="#mb31aee1841" y="140.390987"/>
     <use style="stroke:#000000;" x="131.00892" xlink:href="#mb31aee1841" y="159.073637"/>
     <use style="stroke:#000000;" x="91.108547" xlink:href="#mb31aee1841" y="113.98395"/>
     <use style="stroke:#000000;" x="90.105724" xlink:href="#mb31aee1841" y="112.346961"/>
     <use style="stroke:#000000;" x="86.280449" xlink:href="#mb31aee1841" y="104.735418"/>
     <use style="stroke:#000000;" x="376.383497" xlink:href="#mb31aee1841" y="252.411832"/>
     <use style="stroke:#000000;" x="391.75352" xlink:href="#mb31aee1841" y="254.283628"/>
     <use style="stroke:#000000;" x="392.169546" xlink:href="#mb31aee1841" y="250.61838"/>
     <use style="stroke:#000000;" x="84.413772" xlink:href="#mb31aee1841" y="99.645741"/>
     <use style="stroke:#000000;" x="82.508937" xlink:href="#mb31aee1841" y="96.873278"/>
     <use style="stroke:#000000;" x="85.637719" xlink:href="#mb31aee1841" y="109.423385"/>
     <use style="stroke:#000000;" x="86.132899" xlink:href="#mb31aee1841" y="104.379425"/>
     <use style="stroke:#000000;" x="89.377831" xlink:href="#mb31aee1841" y="111.084088"/>
     <use style="stroke:#000000;" x="90.774955" xlink:href="#mb31aee1841" y="121.995794"/>
     <use style="stroke:#000000;" x="160.255854" xlink:href="#mb31aee1841" y="167.473324"/>
     <use style="stroke:#000000;" x="147.554553" xlink:href="#mb31aee1841" y="153.273691"/>
     <use style="stroke:#000000;" x="161.950265" xlink:href="#mb31aee1841" y="159.387301"/>
     <use style="stroke:#000000;" x="267.066105" xlink:href="#mb31aee1841" y="188.640349"/>
     <use style="stroke:#000000;" x="259.394441" xlink:href="#mb31aee1841" y="178.674734"/>
     <use style="stroke:#000000;" x="254.122916" xlink:href="#mb31aee1841" y="179.172059"/>
     <use style="stroke:#000000;" x="111.631524" xlink:href="#mb31aee1841" y="138.290826"/>
     <use style="stroke:#000000;" x="116.121985" xlink:href="#mb31aee1841" y="138.212112"/>
     <use style="stroke:#000000;" x="121.823909" xlink:href="#mb31aee1841" y="156.940928"/>
     <use style="stroke:#000000;" x="127.190922" xlink:href="#mb31aee1841" y="144.565806"/>
     <use style="stroke:#000000;" x="134.005908" xlink:href="#mb31aee1841" y="147.833981"/>
     <use style="stroke:#000000;" x="132.094447" xlink:href="#mb31aee1841" y="148.006398"/>
     <use style="stroke:#000000;" x="82.088275" xlink:href="#mb31aee1841" y="89.376988"/>
     <use style="stroke:#000000;" x="82.041635" xlink:href="#mb31aee1841" y="93.051284"/>
     <use style="stroke:#000000;" x="81.890599" xlink:href="#mb31aee1841" y="87.853268"/>
     <use style="stroke:#000000;" x="167.1168" xlink:href="#mb31aee1841" y="159.3216"/>
     <use style="stroke:#000000;" x="167.551365" xlink:href="#mb31aee1841" y="167.268994"/>
     <use style="stroke:#000000;" x="167.58179" xlink:href="#mb31aee1841" y="167.536315"/>
     <use style="stroke:#000000;" x="95.122921" xlink:href="#mb31aee1841" y="119.634809"/>
     <use style="stroke:#000000;" x="89.099884" xlink:href="#mb31aee1841" y="111.025472"/>
     <use style="stroke:#000000;" x="92.623544" xlink:href="#mb31aee1841" y="116.26664"/>
     <use style="stroke:#000000;" x="167.1168" xlink:href="#mb31aee1841" y="159.3216"/>
     <use style="stroke:#000000;" x="150.726965" xlink:href="#mb31aee1841" y="173.253467"/>
     <use style="stroke:#000000;" x="167.1168" xlink:href="#mb31aee1841" y="159.3216"/>
     <use style="stroke:#000000;" x="82.104743" xlink:href="#mb31aee1841" y="89.492662"/>
     <use style="stroke:#000000;" x="81.493445" xlink:href="#mb31aee1841" y="83.054856"/>
     <use style="stroke:#000000;" x="81.421333" xlink:href="#mb31aee1841" y="80.905113"/>
     <use style="stroke:#000000;" x="81.865518" xlink:href="#mb31aee1841" y="90.589982"/>
     <use style="stroke:#000000;" x="136.769055" xlink:href="#mb31aee1841" y="149.047653"/>
     <use style="stroke:#000000;" x="147.037283" xlink:href="#mb31aee1841" y="171.169781"/>
     <use style="stroke:#000000;" x="143.256208" xlink:href="#mb31aee1841" y="151.679575"/>
     <use style="stroke:#000000;" x="367.893909" xlink:href="#mb31aee1841" y="245.898451"/>
     <use style="stroke:#000000;" x="370.686186" xlink:href="#mb31aee1841" y="242.235942"/>
     <use style="stroke:#000000;" x="348.69828" xlink:href="#mb31aee1841" y="238.98533"/>
     <use style="stroke:#000000;" x="100.472673" xlink:href="#mb31aee1841" y="125.666032"/>
     <use style="stroke:#000000;" x="88.428661" xlink:href="#mb31aee1841" y="109.326437"/>
     <use style="stroke:#000000;" x="90.59294" xlink:href="#mb31aee1841" y="113.15617"/>
     <use style="stroke:#000000;" x="153.425541" xlink:href="#mb31aee1841" y="180.263091"/>
     <use style="stroke:#000000;" x="81.519793" xlink:href="#mb31aee1841" y="83.562284"/>
     <use style="stroke:#000000;" x="81.408" xlink:href="#mb31aee1841" y="79.488"/>
     <use style="stroke:#000000;" x="81.743602" xlink:href="#mb31aee1841" y="88.992843"/>
     <use style="stroke:#000000;" x="86.943232" xlink:href="#mb31aee1841" y="110.389678"/>
     <use style="stroke:#000000;" x="88.307695" xlink:href="#mb31aee1841" y="109.0923"/>
     <use style="stroke:#000000;" x="89.268274" xlink:href="#mb31aee1841" y="123.415272"/>
     <use style="stroke:#000000;" x="81.461498" xlink:href="#mb31aee1841" y="82.315978"/>
     <use style="stroke:#000000;" x="83.826168" xlink:href="#mb31aee1841" y="103.486976"/>
     <use style="stroke:#000000;" x="86.564193" xlink:href="#mb31aee1841" y="110.266576"/>
     <use style="stroke:#000000;" x="108.647907" xlink:href="#mb31aee1841" y="132.90909"/>
     <use style="stroke:#000000;" x="134.855276" xlink:href="#mb31aee1841" y="148.213397"/>
     <use style="stroke:#000000;" x="123.70918" xlink:href="#mb31aee1841" y="150.965303"/>
     <use style="stroke:#000000;" x="136.539051" xlink:href="#mb31aee1841" y="148.948865"/>
     <use style="stroke:#000000;" x="83.866187" xlink:href="#mb31aee1841" y="105.345378"/>
     <use style="stroke:#000000;" x="110.946487" xlink:href="#mb31aee1841" y="134.649279"/>
     <use style="stroke:#000000;" x="114.710604" xlink:href="#mb31aee1841" y="149.109702"/>
     <use style="stroke:#000000;" x="117.690004" xlink:href="#mb31aee1841" y="140.553748"/>
     <use style="stroke:#000000;" x="125.199712" xlink:href="#mb31aee1841" y="143.527899"/>
     <use style="stroke:#000000;" x="118.916823" xlink:href="#mb31aee1841" y="139.961669"/>
     <use style="stroke:#000000;" x="122.788222" xlink:href="#mb31aee1841" y="142.214192"/>
     <use style="stroke:#000000;" x="384.648978" xlink:href="#mb31aee1841" y="254.176541"/>
     <use style="stroke:#000000;" x="105.496867" xlink:href="#mb31aee1841" y="134.342948"/>
     <use style="stroke:#000000;" x="126.802853" xlink:href="#mb31aee1841" y="161.474618"/>
     <use style="stroke:#000000;" x="141.454549" xlink:href="#mb31aee1841" y="157.035638"/>
     <use style="stroke:#000000;" x="133.201214" xlink:href="#mb31aee1841" y="160.538423"/>
     <use style="stroke:#000000;" x="85.690572" xlink:href="#mb31aee1841" y="113.354097"/>
     <use style="stroke:#000000;" x="148.853222" xlink:href="#mb31aee1841" y="170.269966"/>
     <use style="stroke:#000000;" x="368.516602" xlink:href="#mb31aee1841" y="241.214165"/>
     <use style="stroke:#000000;" x="350.620321" xlink:href="#mb31aee1841" y="240.544743"/>
     <use style="stroke:#000000;" x="82.614761" xlink:href="#mb31aee1841" y="92.539005"/>
     <use style="stroke:#000000;" x="81.408" xlink:href="#mb31aee1841" y="79.488"/>
     <use style="stroke:#000000;" x="99.475331" xlink:href="#mb31aee1841" y="128.383441"/>
     <use style="stroke:#000000;" x="94.109141" xlink:href="#mb31aee1841" y="126.572868"/>
     <use style="stroke:#000000;" x="149.999682" xlink:href="#mb31aee1841" y="154.132604"/>
     <use style="stroke:#000000;" x="154.233808" xlink:href="#mb31aee1841" y="162.470185"/>
     <use style="stroke:#000000;" x="86.322196" xlink:href="#mb31aee1841" y="114.664064"/>
     <use style="stroke:#000000;" x="323.919916" xlink:href="#mb31aee1841" y="198.692881"/>
     <use style="stroke:#000000;" x="289.583102" xlink:href="#mb31aee1841" y="199.557806"/>
     <use style="stroke:#000000;" x="81.408" xlink:href="#mb31aee1841" y="79.488"/>
     <use style="stroke:#000000;" x="82.524" xlink:href="#mb31aee1841" y="93.326207"/>
     <use style="stroke:#000000;" x="81.408" xlink:href="#mb31aee1841" y="79.488"/>
     <use style="stroke:#000000;" x="82.365509" xlink:href="#mb31aee1841" y="91.16019"/>
     <use style="stroke:#000000;" x="157.343719" xlink:href="#mb31aee1841" y="156.523955"/>
     <use style="stroke:#000000;" x="82.937188" xlink:href="#mb31aee1841" y="94.497948"/>
     <use style="stroke:#000000;" x="81.500011" xlink:href="#mb31aee1841" y="83.188027"/>
     <use style="stroke:#000000;" x="124.854197" xlink:href="#mb31aee1841" y="143.34359"/>
     <use style="stroke:#000000;" x="130.781584" xlink:href="#mb31aee1841" y="146.339389"/>
     <use style="stroke:#000000;" x="161.054992" xlink:href="#mb31aee1841" y="157.634428"/>
     <use style="stroke:#000000;" x="153.022115" xlink:href="#mb31aee1841" y="155.149679"/>
     <use style="stroke:#000000;" x="154.160815" xlink:href="#mb31aee1841" y="155.520659"/>
     <use style="stroke:#000000;" x="164.108225" xlink:href="#mb31aee1841" y="158.50305"/>
     <use style="stroke:#000000;" x="359.118122" xlink:href="#mb31aee1841" y="249.231088"/>
     <use style="stroke:#000000;" x="385.243362" xlink:href="#mb31aee1841" y="248.173148"/>
     <use style="stroke:#000000;" x="319.488" xlink:href="#mb31aee1841" y="174.528"/>
     <use style="stroke:#000000;" x="314.30901" xlink:href="#mb31aee1841" y="178.233555"/>
     <use style="stroke:#000000;" x="131.671525" xlink:href="#mb31aee1841" y="146.760762"/>
     <use style="stroke:#000000;" x="145.178472" xlink:href="#mb31aee1841" y="155.143267"/>
     <use style="stroke:#000000;" x="402.604964" xlink:href="#mb31aee1841" y="253.6586"/>
     <use style="stroke:#000000;" x="82.037409" xlink:href="#mb31aee1841" y="91.940735"/>
     <use style="stroke:#000000;" x="81.474046" xlink:href="#mb31aee1841" y="82.627548"/>
     <use style="stroke:#000000;" x="104.577605" xlink:href="#mb31aee1841" y="129.536056"/>
     <use style="stroke:#000000;" x="84.908778" xlink:href="#mb31aee1841" y="101.139786"/>
     <use style="stroke:#000000;" x="86.79461" xlink:href="#mb31aee1841" y="109.415745"/>
     <use style="stroke:#000000;" x="86.176507" xlink:href="#mb31aee1841" y="104.485304"/>
     <use style="stroke:#000000;" x="90.321866" xlink:href="#mb31aee1841" y="115.107607"/>
     <use style="stroke:#000000;" x="87.702186" xlink:href="#mb31aee1841" y="114.732065"/>
     <use style="stroke:#000000;" x="107.189594" xlink:href="#mb31aee1841" y="139.596175"/>
     <use style="stroke:#000000;" x="134.188149" xlink:href="#mb31aee1841" y="147.915875"/>
     <use style="stroke:#000000;" x="167.1168" xlink:href="#mb31aee1841" y="159.3216"/>
     <use style="stroke:#000000;" x="168.270909" xlink:href="#mb31aee1841" y="172.095109"/>
     <use style="stroke:#000000;" x="96.621133" xlink:href="#mb31aee1841" y="132.902861"/>
     <use style="stroke:#000000;" x="91.070219" xlink:href="#mb31aee1841" y="113.923376"/>
     <use style="stroke:#000000;" x="306.234403" xlink:href="#mb31aee1841" y="177.274151"/>
     <use style="stroke:#000000;" x="319.496894" xlink:href="#mb31aee1841" y="175.686252"/>
     <use style="stroke:#000000;" x="319.488" xlink:href="#mb31aee1841" y="174.528"/>
     <use style="stroke:#000000;" x="81.757769" xlink:href="#mb31aee1841" y="86.633983"/>
     <use style="stroke:#000000;" x="84.002939" xlink:href="#mb31aee1841" y="101.653004"/>
     <use style="stroke:#000000;" x="370.668864" xlink:href="#mb31aee1841" y="242.227945"/>
     <use style="stroke:#000000;" x="340.565449" xlink:href="#mb31aee1841" y="241.972474"/>
     <use style="stroke:#000000;" x="81.939529" xlink:href="#mb31aee1841" y="90.519925"/>
     <use style="stroke:#000000;" x="81.95765" xlink:href="#mb31aee1841" y="89.634239"/>
     <use style="stroke:#000000;" x="167.891674" xlink:href="#mb31aee1841" y="169.856303"/>
     <use style="stroke:#000000;" x="167.1168" xlink:href="#mb31aee1841" y="159.3216"/>
     <use style="stroke:#000000;" x="319.643864" xlink:href="#mb31aee1841" y="179.329273"/>
     <use style="stroke:#000000;" x="151.951312" xlink:href="#mb31aee1841" y="154.794811"/>
     <use style="stroke:#000000;" x="102.229266" xlink:href="#mb31aee1841" y="127.38822"/>
     <use style="stroke:#000000;" x="179.164603" xlink:href="#mb31aee1841" y="162.264399"/>
     <use style="stroke:#000000;" x="81.436238" xlink:href="#mb31aee1841" y="81.546817"/>
     <use style="stroke:#000000;" x="168.458685" xlink:href="#mb31aee1841" y="173.05621"/>
     <use style="stroke:#000000;" x="165.484993" xlink:href="#mb31aee1841" y="160.774575"/>
     <use style="stroke:#000000;" x="167.1168" xlink:href="#mb31aee1841" y="159.3216"/>
     <use style="stroke:#000000;" x="143.719704" xlink:href="#mb31aee1841" y="159.45047"/>
     <use style="stroke:#000000;" x="160.189811" xlink:href="#mb31aee1841" y="184.853138"/>
     <use style="stroke:#000000;" x="162.960455" xlink:href="#mb31aee1841" y="171.343276"/>
    </g>
   </g>
   <g id="PathCollection_2">
    <defs>
     <path d="M 0 0.935414 
C 0.248075 0.935414 0.486022 0.836853 0.661438 0.661438 
C 0.836853 0.486022 0.935414 0.248075 0.935414 0 
C 0.935414 -0.248075 0.836853 -0.486022 0.661438 -0.661438 
C 0.486022 -0.836853 0.248075 -0.935414 0 -0.935414 
C -0.248075 -0.935414 -0.486022 -0.836853 -0.661438 -0.661438 
C -0.836853 -0.486022 -0.935414 -0.248075 -0.935414 0 
C -0.935414 0.248075 -0.836853 0.486022 -0.661438 0.661438 
C -0.486022 0.836853 -0.248075 0.935414 0 0.935414 
z
" id="m7ff1a93c22" style="stroke:#0000ff;"/>
    </defs>
    <g clip-path="url(#p3c5d3ea415)">
     <use style="fill:#0000ff;stroke:#0000ff;" x="374.776147" xlink:href="#m7ff1a93c22" y="244.056381"/>
     <use style="fill:#0000ff;stroke:#0000ff;" x="87.04071" xlink:href="#m7ff1a93c22" y="106.476517"/>
     <use style="fill:#0000ff;stroke:#0000ff;" x="133.750529" xlink:href="#m7ff1a93c22" y="147.718769"/>
     <use style="fill:#0000ff;stroke:#0000ff;" x="386.343453" xlink:href="#m7ff1a93c22" y="248.566151"/>
     <use style="fill:#0000ff;stroke:#0000ff;" x="131.051138" xlink:href="#m7ff1a93c22" y="146.467753"/>
     <use style="fill:#0000ff;stroke:#0000ff;" x="126.498361" xlink:href="#m7ff1a93c22" y="144.209418"/>
     <use style="fill:#0000ff;stroke:#0000ff;" x="89.843941" xlink:href="#m7ff1a93c22" y="111.900542"/>
     <use style="fill:#0000ff;stroke:#0000ff;" x="393.906702" xlink:href="#m7ff1a93c22" y="251.091839"/>
     <use style="fill:#0000ff;stroke:#0000ff;" x="83.272588" xlink:href="#m7ff1a93c22" y="95.565233"/>
     <use style="fill:#0000ff;stroke:#0000ff;" x="87.896231" xlink:href="#m7ff1a93c22" y="108.276869"/>
     <use style="fill:#0000ff;stroke:#0000ff;" x="159.456985" xlink:href="#m7ff1a93c22" y="157.163846"/>
     <use style="fill:#0000ff;stroke:#0000ff;" x="269.505386" xlink:href="#m7ff1a93c22" y="173.353908"/>
     <use style="fill:#0000ff;stroke:#0000ff;" x="118.870053" xlink:href="#m7ff1a93c22" y="139.933287"/>
     <use style="fill:#0000ff;stroke:#0000ff;" x="122.623032" xlink:href="#m7ff1a93c22" y="142.121804"/>
     <use style="fill:#0000ff;stroke:#0000ff;" x="83.981518" xlink:href="#m7ff1a93c22" y="98.223018"/>
     <use style="fill:#0000ff;stroke:#0000ff;" x="167.1168" xlink:href="#m7ff1a93c22" y="159.3216"/>
     <use style="fill:#0000ff;stroke:#0000ff;" x="93.513248" xlink:href="#m7ff1a93c22" y="117.516615"/>
     <use style="fill:#0000ff;stroke:#0000ff;" x="167.1168" xlink:href="#m7ff1a93c22" y="159.3216"/>
     <use style="fill:#0000ff;stroke:#0000ff;" x="81.61609" xlink:href="#m7ff1a93c22" y="85.024467"/>
     <use style="fill:#0000ff;stroke:#0000ff;" x="81.408" xlink:href="#m7ff1a93c22" y="79.488"/>
     <use style="fill:#0000ff;stroke:#0000ff;" x="141.666673" xlink:href="#m7ff1a93c22" y="151.061055"/>
     <use style="fill:#0000ff;stroke:#0000ff;" x="375.789947" xlink:href="#m7ff1a93c22" y="244.487675"/>
     <use style="fill:#0000ff;stroke:#0000ff;" x="92.031843" xlink:href="#m7ff1a93c22" y="115.399825"/>
     <use style="fill:#0000ff;stroke:#0000ff;" x="167.1168" xlink:href="#m7ff1a93c22" y="159.3216"/>
     <use style="fill:#0000ff;stroke:#0000ff;" x="81.408" xlink:href="#m7ff1a93c22" y="79.488"/>
     <use style="fill:#0000ff;stroke:#0000ff;" x="87.68713" xlink:href="#m7ff1a93c22" y="107.850563"/>
     <use style="fill:#0000ff;stroke:#0000ff;" x="81.873115" xlink:href="#m7ff1a93c22" y="87.703795"/>
     <use style="fill:#0000ff;stroke:#0000ff;" x="119.816963" xlink:href="#m7ff1a93c22" y="140.502263"/>
     <use style="fill:#0000ff;stroke:#0000ff;" x="128.200653" xlink:href="#m7ff1a93c22" y="145.076891"/>
     <use style="fill:#0000ff;stroke:#0000ff;" x="82.475666" xlink:href="#m7ff1a93c22" y="91.790747"/>
     <use style="fill:#0000ff;stroke:#0000ff;" x="112.948497" xlink:href="#m7ff1a93c22" y="136.081805"/>
     <use style="fill:#0000ff;stroke:#0000ff;" x="119.390893" xlink:href="#m7ff1a93c22" y="140.247709"/>
     <use style="fill:#0000ff;stroke:#0000ff;" x="380.909729" xlink:href="#m7ff1a93c22" y="246.55522"/>
     <use style="fill:#0000ff;stroke:#0000ff;" x="111.349651" xlink:href="#m7ff1a93c22" y="134.943703"/>
     <use style="fill:#0000ff;stroke:#0000ff;" x="136.808183" xlink:href="#m7ff1a93c22" y="149.064419"/>
     <use style="fill:#0000ff;stroke:#0000ff;" x="83.998961" xlink:href="#m7ff1a93c22" y="98.282915"/>
     <use style="fill:#0000ff;stroke:#0000ff;" x="131.618463" xlink:href="#m7ff1a93c22" y="146.735832"/>
     <use style="fill:#0000ff;stroke:#0000ff;" x="369.623292" xlink:href="#m7ff1a93c22" y="241.740472"/>
     <use style="fill:#0000ff;stroke:#0000ff;" x="81.683207" xlink:href="#m7ff1a93c22" y="85.840696"/>
     <use style="fill:#0000ff;stroke:#0000ff;" x="94.491704" xlink:href="#m7ff1a93c22" y="118.824571"/>
     <use style="fill:#0000ff;stroke:#0000ff;" x="148.909271" xlink:href="#m7ff1a93c22" y="153.75368"/>
     <use style="fill:#0000ff;stroke:#0000ff;" x="81.652381" xlink:href="#m7ff1a93c22" y="85.480324"/>
     <use style="fill:#0000ff;stroke:#0000ff;" x="324.085278" xlink:href="#m7ff1a93c22" y="199.106259"/>
     <use style="fill:#0000ff;stroke:#0000ff;" x="81.559233" xlink:href="#m7ff1a93c22" y="84.218325"/>
     <use style="fill:#0000ff;stroke:#0000ff;" x="81.408" xlink:href="#m7ff1a93c22" y="79.488"/>
     <use style="fill:#0000ff;stroke:#0000ff;" x="161.289621" xlink:href="#m7ff1a93c22" y="157.702582"/>
     <use style="fill:#0000ff;stroke:#0000ff;" x="81.568729" xlink:href="#m7ff1a93c22" y="84.362649"/>
     <use style="fill:#0000ff;stroke:#0000ff;" x="125.076431" xlink:href="#m7ff1a93c22" y="143.462284"/>
     <use style="fill:#0000ff;stroke:#0000ff;" x="167.1168" xlink:href="#m7ff1a93c22" y="159.3216"/>
     <use style="fill:#0000ff;stroke:#0000ff;" x="158.091054" xlink:href="#m7ff1a93c22" y="156.752578"/>
     <use style="fill:#0000ff;stroke:#0000ff;" x="395.911424" xlink:href="#m7ff1a93c22" y="251.713445"/>
     <use style="fill:#0000ff;stroke:#0000ff;" x="319.488" xlink:href="#m7ff1a93c22" y="174.528"/>
     <use style="fill:#0000ff;stroke:#0000ff;" x="136.15582" xlink:href="#m7ff1a93c22" y="148.783382"/>
     <use style="fill:#0000ff;stroke:#0000ff;" x="396.856614" xlink:href="#m7ff1a93c22" y="252.000049"/>
     <use style="fill:#0000ff;stroke:#0000ff;" x="81.408" xlink:href="#m7ff1a93c22" y="79.488"/>
     <use style="fill:#0000ff;stroke:#0000ff;" x="105.113773" xlink:href="#m7ff1a93c22" y="130.004196"/>
     <use style="fill:#0000ff;stroke:#0000ff;" x="84.615544" xlink:href="#m7ff1a93c22" y="100.270402"/>
     <use style="fill:#0000ff;stroke:#0000ff;" x="90.628606" xlink:href="#m7ff1a93c22" y="113.214351"/>
     <use style="fill:#0000ff;stroke:#0000ff;" x="88.931412" xlink:href="#m7ff1a93c22" y="110.27425"/>
     <use style="fill:#0000ff;stroke:#0000ff;" x="99.225993" xlink:href="#m7ff1a93c22" y="124.375293"/>
     <use style="fill:#0000ff;stroke:#0000ff;" x="146.910516" xlink:href="#m7ff1a93c22" y="153.041838"/>
     <use style="fill:#0000ff;stroke:#0000ff;" x="167.1168" xlink:href="#m7ff1a93c22" y="159.3216"/>
     <use style="fill:#0000ff;stroke:#0000ff;" x="86.461058" xlink:href="#m7ff1a93c22" y="105.162709"/>
     <use style="fill:#0000ff;stroke:#0000ff;" x="319.488" xlink:href="#m7ff1a93c22" y="174.528"/>
     <use style="fill:#0000ff;stroke:#0000ff;" x="319.488" xlink:href="#m7ff1a93c22" y="174.528"/>
     <use style="fill:#0000ff;stroke:#0000ff;" x="81.53842" xlink:href="#m7ff1a93c22" y="83.884782"/>
     <use style="fill:#0000ff;stroke:#0000ff;" x="367.358213" xlink:href="#m7ff1a93c22" y="240.651494"/>
     <use style="fill:#0000ff;stroke:#0000ff;" x="82.252288" xlink:href="#m7ff1a93c22" y="90.470286"/>
     <use style="fill:#0000ff;stroke:#0000ff;" x="167.356922" xlink:href="#m7ff1a93c22" y="165.262329"/>
     <use style="fill:#0000ff;stroke:#0000ff;" x="315.349483" xlink:href="#m7ff1a93c22" y="174.520757"/>
     <use style="fill:#0000ff;stroke:#0000ff;" x="149.524885" xlink:href="#m7ff1a93c22" y="153.96841"/>
     <use style="fill:#0000ff;stroke:#0000ff;" x="97.150534" xlink:href="#m7ff1a93c22" y="122.081553"/>
     <use style="fill:#0000ff;stroke:#0000ff;" x="196.435129" xlink:href="#m7ff1a93c22" y="165.691902"/>
     <use style="fill:#0000ff;stroke:#0000ff;" x="82.07915" xlink:href="#m7ff1a93c22" y="89.312258"/>
     <use style="fill:#0000ff;stroke:#0000ff;" x="167.1168" xlink:href="#m7ff1a93c22" y="159.3216"/>
     <use style="fill:#0000ff;stroke:#0000ff;" x="167.311564" xlink:href="#m7ff1a93c22" y="164.680477"/>
     <use style="fill:#0000ff;stroke:#0000ff;" x="162.651513" xlink:href="#m7ff1a93c22" y="158.093521"/>
     <use style="fill:#0000ff;stroke:#0000ff;" x="133.925303" xlink:href="#m7ff1a93c22" y="147.797674"/>
     <use style="fill:#0000ff;stroke:#0000ff;" x="167.118092" xlink:href="#m7ff1a93c22" y="159.763956"/>
     <use style="fill:#0000ff;stroke:#0000ff;" x="167.121618" xlink:href="#m7ff1a93c22" y="160.174794"/>
    </g>
   </g>
   <g id="matplotlib.axis_1">
    <g id="xtick_1">
     <g id="line2d_1">
      <defs>
       <path d="M 0 0 
L 0 3.5 
" id="m2af543eb3e" style="stroke:#000000;stroke-width:0.8;"/>
      </defs>
      <g>
       <use style="stroke:#000000;stroke-width:0.8;" x="81.408" xlink:href="#m2af543eb3e" y="307.584"/>
      </g>
     </g>
     <g id="text_1">
      <!-- 0 -->
      <defs>
       <path d="M 31.78125 66.40625 
Q 24.171875 66.40625 20.328125 58.90625 
Q 16.5 51.421875 16.5 36.375 
Q 16.5 21.390625 20.328125 13.890625 
Q 24.171875 6.390625 31.78125 6.390625 
Q 39.453125 6.390625 43.28125 13.890625 
Q 47.125 21.390625 47.125 36.375 
Q 47.125 51.421875 43.28125 58.90625 
Q 39.453125 66.40625 31.78125 66.40625 
z
M 31.78125 74.21875 
Q 44.046875 74.21875 50.515625 64.515625 
Q 56.984375 54.828125 56.984375 36.375 
Q 56.984375 17.96875 50.515625 8.265625 
Q 44.046875 -1.421875 31.78125 -1.421875 
Q 19.53125 -1.421875 13.0625 8.265625 
Q 6.59375 17.96875 6.59375 36.375 
Q 6.59375 54.828125 13.0625 64.515625 
Q 19.53125 74.21875 31.78125 74.21875 
z
" id="DejaVuSans-30"/>
      </defs>
      <g transform="translate(78.22675 322.182437)scale(0.1 -0.1)">
       <use xlink:href="#DejaVuSans-30"/>
      </g>
     </g>
    </g>
    <g id="xtick_2">
     <g id="line2d_2">
      <g>
       <use style="stroke:#000000;stroke-width:0.8;" x="129.024" xlink:href="#m2af543eb3e" y="307.584"/>
      </g>
     </g>
     <g id="text_2">
      <!-- 20 -->
      <defs>
       <path d="M 19.1875 8.296875 
L 53.609375 8.296875 
L 53.609375 0 
L 7.328125 0 
L 7.328125 8.296875 
Q 12.9375 14.109375 22.625 23.890625 
Q 32.328125 33.6875 34.8125 36.53125 
Q 39.546875 41.84375 41.421875 45.53125 
Q 43.3125 49.21875 43.3125 52.78125 
Q 43.3125 58.59375 39.234375 62.25 
Q 35.15625 65.921875 28.609375 65.921875 
Q 23.96875 65.921875 18.8125 64.3125 
Q 13.671875 62.703125 7.8125 59.421875 
L 7.8125 69.390625 
Q 13.765625 71.78125 18.9375 73 
Q 24.125 74.21875 28.421875 74.21875 
Q 39.75 74.21875 46.484375 68.546875 
Q 53.21875 62.890625 53.21875 53.421875 
Q 53.21875 48.921875 51.53125 44.890625 
Q 49.859375 40.875 45.40625 35.40625 
Q 44.1875 33.984375 37.640625 27.21875 
Q 31.109375 20.453125 19.1875 8.296875 
z
" id="DejaVuSans-32"/>
      </defs>
      <g transform="translate(122.6615 322.182437)scale(0.1 -0.1)">
       <use xlink:href="#DejaVuSans-32"/>
       <use x="63.623047" xlink:href="#DejaVuSans-30"/>
      </g>
     </g>
    </g>
    <g id="xtick_3">
     <g id="line2d_3">
      <g>
       <use style="stroke:#000000;stroke-width:0.8;" x="176.64" xlink:href="#m2af543eb3e" y="307.584"/>
      </g>
     </g>
     <g id="text_3">
      <!-- 40 -->
      <defs>
       <path d="M 37.796875 64.3125 
L 12.890625 25.390625 
L 37.796875 25.390625 
z
M 35.203125 72.90625 
L 47.609375 72.90625 
L 47.609375 25.390625 
L 58.015625 25.390625 
L 58.015625 17.1875 
L 47.609375 17.1875 
L 47.609375 0 
L 37.796875 0 
L 37.796875 17.1875 
L 4.890625 17.1875 
L 4.890625 26.703125 
z
" id="DejaVuSans-34"/>
      </defs>
      <g transform="translate(170.2775 322.182437)scale(0.1 -0.1)">
       <use xlink:href="#DejaVuSans-34"/>
       <use x="63.623047" xlink:href="#DejaVuSans-30"/>
      </g>
     </g>
    </g>
    <g id="xtick_4">
     <g id="line2d_4">
      <g>
       <use style="stroke:#000000;stroke-width:0.8;" x="224.256" xlink:href="#m2af543eb3e" y="307.584"/>
      </g>
     </g>
     <g id="text_4">
      <!-- 60 -->
      <defs>
       <path d="M 33.015625 40.375 
Q 26.375 40.375 22.484375 35.828125 
Q 18.609375 31.296875 18.609375 23.390625 
Q 18.609375 15.53125 22.484375 10.953125 
Q 26.375 6.390625 33.015625 6.390625 
Q 39.65625 6.390625 43.53125 10.953125 
Q 47.40625 15.53125 47.40625 23.390625 
Q 47.40625 31.296875 43.53125 35.828125 
Q 39.65625 40.375 33.015625 40.375 
z
M 52.59375 71.296875 
L 52.59375 62.3125 
Q 48.875 64.0625 45.09375 64.984375 
Q 41.3125 65.921875 37.59375 65.921875 
Q 27.828125 65.921875 22.671875 59.328125 
Q 17.53125 52.734375 16.796875 39.40625 
Q 19.671875 43.65625 24.015625 45.921875 
Q 28.375 48.1875 33.59375 48.1875 
Q 44.578125 48.1875 50.953125 41.515625 
Q 57.328125 34.859375 57.328125 23.390625 
Q 57.328125 12.15625 50.6875 5.359375 
Q 44.046875 -1.421875 33.015625 -1.421875 
Q 20.359375 -1.421875 13.671875 8.265625 
Q 6.984375 17.96875 6.984375 36.375 
Q 6.984375 53.65625 15.1875 63.9375 
Q 23.390625 74.21875 37.203125 74.21875 
Q 40.921875 74.21875 44.703125 73.484375 
Q 48.484375 72.75 52.59375 71.296875 
z
" id="DejaVuSans-36"/>
      </defs>
      <g transform="translate(217.8935 322.182437)scale(0.1 -0.1)">
       <use xlink:href="#DejaVuSans-36"/>
       <use x="63.623047" xlink:href="#DejaVuSans-30"/>
      </g>
     </g>
    </g>
    <g id="xtick_5">
     <g id="line2d_5">
      <g>
       <use style="stroke:#000000;stroke-width:0.8;" x="271.872" xlink:href="#m2af543eb3e" y="307.584"/>
      </g>
     </g>
     <g id="text_5">
      <!-- 80 -->
      <defs>
       <path d="M 31.78125 34.625 
Q 24.75 34.625 20.71875 30.859375 
Q 16.703125 27.09375 16.703125 20.515625 
Q 16.703125 13.921875 20.71875 10.15625 
Q 24.75 6.390625 31.78125 6.390625 
Q 38.8125 6.390625 42.859375 10.171875 
Q 46.921875 13.96875 46.921875 20.515625 
Q 46.921875 27.09375 42.890625 30.859375 
Q 38.875 34.625 31.78125 34.625 
z
M 21.921875 38.8125 
Q 15.578125 40.375 12.03125 44.71875 
Q 8.5 49.078125 8.5 55.328125 
Q 8.5 64.0625 14.71875 69.140625 
Q 20.953125 74.21875 31.78125 74.21875 
Q 42.671875 74.21875 48.875 69.140625 
Q 55.078125 64.0625 55.078125 55.328125 
Q 55.078125 49.078125 51.53125 44.71875 
Q 48 40.375 41.703125 38.8125 
Q 48.828125 37.15625 52.796875 32.3125 
Q 56.78125 27.484375 56.78125 20.515625 
Q 56.78125 9.90625 50.3125 4.234375 
Q 43.84375 -1.421875 31.78125 -1.421875 
Q 19.734375 -1.421875 13.25 4.234375 
Q 6.78125 9.90625 6.78125 20.515625 
Q 6.78125 27.484375 10.78125 32.3125 
Q 14.796875 37.15625 21.921875 38.8125 
z
M 18.3125 54.390625 
Q 18.3125 48.734375 21.84375 45.5625 
Q 25.390625 42.390625 31.78125 42.390625 
Q 38.140625 42.390625 41.71875 45.5625 
Q 45.3125 48.734375 45.3125 54.390625 
Q 45.3125 60.0625 41.71875 63.234375 
Q 38.140625 66.40625 31.78125 66.40625 
Q 25.390625 66.40625 21.84375 63.234375 
Q 18.3125 60.0625 18.3125 54.390625 
z
" id="DejaVuSans-38"/>
      </defs>
      <g transform="translate(265.5095 322.182437)scale(0.1 -0.1)">
       <use xlink:href="#DejaVuSans-38"/>
       <use x="63.623047" xlink:href="#DejaVuSans-30"/>
      </g>
     </g>
    </g>
    <g id="xtick_6">
     <g id="line2d_6">
      <g>
       <use style="stroke:#000000;stroke-width:0.8;" x="319.488" xlink:href="#m2af543eb3e" y="307.584"/>
      </g>
     </g>
     <g id="text_6">
      <!-- 100 -->
      <defs>
       <path d="M 12.40625 8.296875 
L 28.515625 8.296875 
L 28.515625 63.921875 
L 10.984375 60.40625 
L 10.984375 69.390625 
L 28.421875 72.90625 
L 38.28125 72.90625 
L 38.28125 8.296875 
L 54.390625 8.296875 
L 54.390625 0 
L 12.40625 0 
z
" id="DejaVuSans-31"/>
      </defs>
      <g transform="translate(309.94425 322.182437)scale(0.1 -0.1)">
       <use xlink:href="#DejaVuSans-31"/>
       <use x="63.623047" xlink:href="#DejaVuSans-30"/>
       <use x="127.246094" xlink:href="#DejaVuSans-30"/>
      </g>
     </g>
    </g>
    <g id="xtick_7">
     <g id="line2d_7">
      <g>
       <use style="stroke:#000000;stroke-width:0.8;" x="367.104" xlink:href="#m2af543eb3e" y="307.584"/>
      </g>
     </g>
     <g id="text_7">
      <!-- 120 -->
      <g transform="translate(357.56025 322.182437)scale(0.1 -0.1)">
       <use xlink:href="#DejaVuSans-31"/>
       <use x="63.623047" xlink:href="#DejaVuSans-32"/>
       <use x="127.246094" xlink:href="#DejaVuSans-30"/>
      </g>
     </g>
    </g>
    <g id="xtick_8">
     <g id="line2d_8">
      <g>
       <use style="stroke:#000000;stroke-width:0.8;" x="414.72" xlink:href="#m2af543eb3e" y="307.584"/>
      </g>
     </g>
     <g id="text_8">
      <!-- 140 -->
      <g transform="translate(405.17625 322.182437)scale(0.1 -0.1)">
       <use xlink:href="#DejaVuSans-31"/>
       <use x="63.623047" xlink:href="#DejaVuSans-34"/>
       <use x="127.246094" xlink:href="#DejaVuSans-30"/>
      </g>
     </g>
    </g>
   </g>
   <g id="matplotlib.axis_2">
    <g id="ytick_1">
     <g id="line2d_9">
      <defs>
       <path d="M 0 0 
L -3.5 0 
" id="mdfd5c8ff92" style="stroke:#000000;stroke-width:0.8;"/>
      </defs>
      <g>
       <use style="stroke:#000000;stroke-width:0.8;" x="57.6" xlink:href="#mdfd5c8ff92" y="307.584"/>
      </g>
     </g>
     <g id="text_9">
      <!-- −10 -->
      <defs>
       <path d="M 10.59375 35.5 
L 73.1875 35.5 
L 73.1875 27.203125 
L 10.59375 27.203125 
z
" id="DejaVuSans-2212"/>
      </defs>
      <g transform="translate(29.495313 311.383219)scale(0.1 -0.1)">
       <use xlink:href="#DejaVuSans-2212"/>
       <use x="83.789062" xlink:href="#DejaVuSans-31"/>
       <use x="147.412109" xlink:href="#DejaVuSans-30"/>
      </g>
     </g>
    </g>
    <g id="ytick_2">
     <g id="line2d_10">
      <g>
       <use style="stroke:#000000;stroke-width:0.8;" x="57.6" xlink:href="#mdfd5c8ff92" y="269.568"/>
      </g>
     </g>
     <g id="text_10">
      <!-- 0 -->
      <g transform="translate(44.2375 273.367219)scale(0.1 -0.1)">
       <use xlink:href="#DejaVuSans-30"/>
      </g>
     </g>
    </g>
    <g id="ytick_3">
     <g id="line2d_11">
      <g>
       <use style="stroke:#000000;stroke-width:0.8;" x="57.6" xlink:href="#mdfd5c8ff92" y="231.552"/>
      </g>
     </g>
     <g id="text_11">
      <!-- 10 -->
      <g transform="translate(37.875 235.351219)scale(0.1 -0.1)">
       <use xlink:href="#DejaVuSans-31"/>
       <use x="63.623047" xlink:href="#DejaVuSans-30"/>
      </g>
     </g>
    </g>
    <g id="ytick_4">
     <g id="line2d_12">
      <g>
       <use style="stroke:#000000;stroke-width:0.8;" x="57.6" xlink:href="#mdfd5c8ff92" y="193.536"/>
      </g>
     </g>
     <g id="text_12">
      <!-- 20 -->
      <g transform="translate(37.875 197.335219)scale(0.1 -0.1)">
       <use xlink:href="#DejaVuSans-32"/>
       <use x="63.623047" xlink:href="#DejaVuSans-30"/>
      </g>
     </g>
    </g>
    <g id="ytick_5">
     <g id="line2d_13">
      <g>
       <use style="stroke:#000000;stroke-width:0.8;" x="57.6" xlink:href="#mdfd5c8ff92" y="155.52"/>
      </g>
     </g>
     <g id="text_13">
      <!-- 30 -->
      <defs>
       <path d="M 40.578125 39.3125 
Q 47.65625 37.796875 51.625 33 
Q 55.609375 28.21875 55.609375 21.1875 
Q 55.609375 10.40625 48.1875 4.484375 
Q 40.765625 -1.421875 27.09375 -1.421875 
Q 22.515625 -1.421875 17.65625 -0.515625 
Q 12.796875 0.390625 7.625 2.203125 
L 7.625 11.71875 
Q 11.71875 9.328125 16.59375 8.109375 
Q 21.484375 6.890625 26.8125 6.890625 
Q 36.078125 6.890625 40.9375 10.546875 
Q 45.796875 14.203125 45.796875 21.1875 
Q 45.796875 27.640625 41.28125 31.265625 
Q 36.765625 34.90625 28.71875 34.90625 
L 20.21875 34.90625 
L 20.21875 43.015625 
L 29.109375 43.015625 
Q 36.375 43.015625 40.234375 45.921875 
Q 44.09375 48.828125 44.09375 54.296875 
Q 44.09375 59.90625 40.109375 62.90625 
Q 36.140625 65.921875 28.71875 65.921875 
Q 24.65625 65.921875 20.015625 65.03125 
Q 15.375 64.15625 9.8125 62.3125 
L 9.8125 71.09375 
Q 15.4375 72.65625 20.34375 73.4375 
Q 25.25 74.21875 29.59375 74.21875 
Q 40.828125 74.21875 47.359375 69.109375 
Q 53.90625 64.015625 53.90625 55.328125 
Q 53.90625 49.265625 50.4375 45.09375 
Q 46.96875 40.921875 40.578125 39.3125 
z
" id="DejaVuSans-33"/>
      </defs>
      <g transform="translate(37.875 159.319219)scale(0.1 -0.1)">
       <use xlink:href="#DejaVuSans-33"/>
       <use x="63.623047" xlink:href="#DejaVuSans-30"/>
      </g>
     </g>
    </g>
    <g id="ytick_6">
     <g id="line2d_14">
      <g>
       <use style="stroke:#000000;stroke-width:0.8;" x="57.6" xlink:href="#mdfd5c8ff92" y="117.504"/>
      </g>
     </g>
     <g id="text_14">
      <!-- 40 -->
      <g transform="translate(37.875 121.303219)scale(0.1 -0.1)">
       <use xlink:href="#DejaVuSans-34"/>
       <use x="63.623047" xlink:href="#DejaVuSans-30"/>
      </g>
     </g>
    </g>
    <g id="ytick_7">
     <g id="line2d_15">
      <g>
       <use style="stroke:#000000;stroke-width:0.8;" x="57.6" xlink:href="#mdfd5c8ff92" y="79.488"/>
      </g>
     </g>
     <g id="text_15">
      <!-- 50 -->
      <defs>
       <path d="M 10.796875 72.90625 
L 49.515625 72.90625 
L 49.515625 64.59375 
L 19.828125 64.59375 
L 19.828125 46.734375 
Q 21.96875 47.46875 24.109375 47.828125 
Q 26.265625 48.1875 28.421875 48.1875 
Q 40.625 48.1875 47.75 41.5 
Q 54.890625 34.8125 54.890625 23.390625 
Q 54.890625 11.625 47.5625 5.09375 
Q 40.234375 -1.421875 26.90625 -1.421875 
Q 22.3125 -1.421875 17.546875 -0.640625 
Q 12.796875 0.140625 7.71875 1.703125 
L 7.71875 11.625 
Q 12.109375 9.234375 16.796875 8.0625 
Q 21.484375 6.890625 26.703125 6.890625 
Q 35.15625 6.890625 40.078125 11.328125 
Q 45.015625 15.765625 45.015625 23.390625 
Q 45.015625 31 40.078125 35.4375 
Q 35.15625 39.890625 26.703125 39.890625 
Q 22.75 39.890625 18.8125 39.015625 
Q 14.890625 38.140625 10.796875 36.28125 
z
" id="DejaVuSans-35"/>
      </defs>
      <g transform="translate(37.875 83.287219)scale(0.1 -0.1)">
       <use xlink:href="#DejaVuSans-35"/>
       <use x="63.623047" xlink:href="#DejaVuSans-30"/>
      </g>
     </g>
    </g>
    <g id="ytick_8">
     <g id="line2d_16">
      <g>
       <use style="stroke:#000000;stroke-width:0.8;" x="57.6" xlink:href="#mdfd5c8ff92" y="41.472"/>
      </g>
     </g>
     <g id="text_16">
      <!-- 60 -->
      <g transform="translate(37.875 45.271219)scale(0.1 -0.1)">
       <use xlink:href="#DejaVuSans-36"/>
       <use x="63.623047" xlink:href="#DejaVuSans-30"/>
      </g>
     </g>
    </g>
   </g>
   <g id="patch_3">
    <path d="M 57.6 307.584 
L 57.6 41.472 
" style="fill:none;stroke:#000000;stroke-linecap:square;stroke-linejoin:miter;stroke-width:0.8;"/>
   </g>
   <g id="patch_4">
    <path d="M 414.72 307.584 
L 414.72 41.472 
" style="fill:none;stroke:#000000;stroke-linecap:square;stroke-linejoin:miter;stroke-width:0.8;"/>
   </g>
   <g id="patch_5">
    <path d="M 57.6 307.584 
L 414.72 307.584 
" style="fill:none;stroke:#000000;stroke-linecap:square;stroke-linejoin:miter;stroke-width:0.8;"/>
   </g>
   <g id="patch_6">
    <path d="M 57.6 41.472 
L 414.72 41.472 
" style="fill:none;stroke:#000000;stroke-linecap:square;stroke-linejoin:miter;stroke-width:0.8;"/>
   </g>
  </g>
 </g>
 <defs>
  <clipPath id="p3c5d3ea415">
   <rect height="266.112" width="357.12" x="57.6" y="41.472"/>
  </clipPath>
 </defs>
</svg>
