<?xml version="1.0" encoding="utf-8" standalone="no"?>
<!DOCTYPE svg PUBLIC "-//W3C//DTD SVG 1.1//EN"
  "http://www.w3.org/Graphics/SVG/1.1/DTD/svg11.dtd">
<!-- Created with matplotlib (http://matplotlib.org/) -->
<svg height="345.6pt" version="1.1" viewBox="0 0 460.8 345.6" width="460.8pt" xmlns="http://www.w3.org/2000/svg" xmlns:xlink="http://www.w3.org/1999/xlink">
 <defs>
  <style type="text/css">
*{stroke-linecap:butt;stroke-linejoin:round;}
  </style>
 </defs>
 <g id="figure_1">
  <g id="patch_1">
   <path d="M 0 345.6 
L 460.8 345.6 
L 460.8 0 
L 0 0 
z
" style="fill:#ffffff;"/>
  </g>
  <g id="axes_1">
   <g id="patch_2">
    <path d="M 57.6 307.584 
L 414.72 307.584 
L 414.72 41.472 
L 57.6 41.472 
z
" style="fill:#ffffff;"/>
   </g>
   <g id="PathCollection_1">
    <defs>
     <path d="M 0 0.612372 
C 0.162403 0.612372 0.318176 0.547849 0.433013 0.433013 
C 0.547849 0.318176 0.612372 0.162403 0.612372 0 
C 0.612372 -0.162403 0.547849 -0.318176 0.433013 -0.433013 
C 0.318176 -0.547849 0.162403 -0.612372 0 -0.612372 
C -0.162403 -0.612372 -0.318176 -0.547849 -0.433013 -0.433013 
C -0.547849 -0.318176 -0.612372 -0.162403 -0.612372 0 
C -0.612372 0.162403 -0.547849 0.318176 -0.433013 0.433013 
C -0.318176 0.547849 -0.162403 0.612372 0 0.612372 
z
" id="m5ba68f4629" style="stroke:#000000;"/>
    </defs>
    <g clip-path="url(#p1c5078936b)">
     <use style="stroke:#000000;" x="387.249231" xlink:href="#m5ba68f4629" y="141.707787"/>
     <use style="stroke:#000000;" x="380.276782" xlink:href="#m5ba68f4629" y="131.709772"/>
     <use style="stroke:#000000;" x="327.461688" xlink:href="#m5ba68f4629" y="106.184715"/>
     <use style="stroke:#000000;" x="325.415004" xlink:href="#m5ba68f4629" y="95.712311"/>
     <use style="stroke:#000000;" x="327.827241" xlink:href="#m5ba68f4629" y="110.09619"/>
     <use style="stroke:#000000;" x="343.285548" xlink:href="#m5ba68f4629" y="118.357604"/>
     <use style="stroke:#000000;" x="334.173819" xlink:href="#m5ba68f4629" y="111.272442"/>
     <use style="stroke:#000000;" x="332.046102" xlink:href="#m5ba68f4629" y="111.220439"/>
     <use style="stroke:#000000;" x="386.678643" xlink:href="#m5ba68f4629" y="139.283491"/>
     <use style="stroke:#000000;" x="334.291309" xlink:href="#m5ba68f4629" y="114.579829"/>
     <use style="stroke:#000000;" x="379.748355" xlink:href="#m5ba68f4629" y="125.087434"/>
     <use style="stroke:#000000;" x="268.179095" xlink:href="#m5ba68f4629" y="89.927649"/>
     <use style="stroke:#000000;" x="382.960152" xlink:href="#m5ba68f4629" y="133.883086"/>
     <use style="stroke:#000000;" x="363.965572" xlink:href="#m5ba68f4629" y="119.631136"/>
     <use style="stroke:#000000;" x="372.128556" xlink:href="#m5ba68f4629" y="120.886872"/>
     <use style="stroke:#000000;" x="326.329676" xlink:href="#m5ba68f4629" y="102.008126"/>
     <use style="stroke:#000000;" x="263.044992" xlink:href="#m5ba68f4629" y="82.501701"/>
     <use style="stroke:#000000;" x="334.688202" xlink:href="#m5ba68f4629" y="116.990693"/>
     <use style="stroke:#000000;" x="319.677696" xlink:href="#m5ba68f4629" y="92.683013"/>
     <use style="stroke:#000000;" x="211.051018" xlink:href="#m5ba68f4629" y="78.930711"/>
     <use style="stroke:#000000;" x="351.706439" xlink:href="#m5ba68f4629" y="118.499333"/>
     <use style="stroke:#000000;" x="330.365427" xlink:href="#m5ba68f4629" y="110.328933"/>
     <use style="stroke:#000000;" x="365.897049" xlink:href="#m5ba68f4629" y="119.837448"/>
     <use style="stroke:#000000;" x="261.718707" xlink:href="#m5ba68f4629" y="81.446367"/>
     <use style="stroke:#000000;" x="361.586302" xlink:href="#m5ba68f4629" y="119.52778"/>
     <use style="stroke:#000000;" x="387.249231" xlink:href="#m5ba68f4629" y="142.757159"/>
     <use style="stroke:#000000;" x="379.852755" xlink:href="#m5ba68f4629" y="133.137126"/>
     <use style="stroke:#000000;" x="380.146928" xlink:href="#m5ba68f4629" y="133.919368"/>
     <use style="stroke:#000000;" x="386.561167" xlink:href="#m5ba68f4629" y="139.77026"/>
     <use style="stroke:#000000;" x="324.966306" xlink:href="#m5ba68f4629" y="103.702332"/>
     <use style="stroke:#000000;" x="268.126335" xlink:href="#m5ba68f4629" y="94.350363"/>
     <use style="stroke:#000000;" x="381.625599" xlink:href="#m5ba68f4629" y="136.936468"/>
     <use style="stroke:#000000;" x="327.64324" xlink:href="#m5ba68f4629" y="114.171947"/>
     <use style="stroke:#000000;" x="324.667369" xlink:href="#m5ba68f4629" y="96.507666"/>
     <use style="stroke:#000000;" x="329.156622" xlink:href="#m5ba68f4629" y="114.477579"/>
     <use style="stroke:#000000;" x="339.52102" xlink:href="#m5ba68f4629" y="118.488322"/>
     <use style="stroke:#000000;" x="376.618892" xlink:href="#m5ba68f4629" y="129.032424"/>
     <use style="stroke:#000000;" x="378.259498" xlink:href="#m5ba68f4629" y="133.03531"/>
     <use style="stroke:#000000;" x="267.953655" xlink:href="#m5ba68f4629" y="91.427231"/>
     <use style="stroke:#000000;" x="327.279058" xlink:href="#m5ba68f4629" y="106.560807"/>
     <use style="stroke:#000000;" x="381.27863" xlink:href="#m5ba68f4629" y="134.143599"/>
     <use style="stroke:#000000;" x="377.474747" xlink:href="#m5ba68f4629" y="129.076535"/>
     <use style="stroke:#000000;" x="373.370436" xlink:href="#m5ba68f4629" y="127.703971"/>
     <use style="stroke:#000000;" x="326.204418" xlink:href="#m5ba68f4629" y="105.731754"/>
     <use style="stroke:#000000;" x="362.090431" xlink:href="#m5ba68f4629" y="119.636647"/>
     <use style="stroke:#000000;" x="258.683286" xlink:href="#m5ba68f4629" y="83.079715"/>
     <use style="stroke:#000000;" x="370.788492" xlink:href="#m5ba68f4629" y="123.551169"/>
     <use style="stroke:#000000;" x="371.748932" xlink:href="#m5ba68f4629" y="123.842798"/>
     <use style="stroke:#000000;" x="366.255019" xlink:href="#m5ba68f4629" y="121.508793"/>
     <use style="stroke:#000000;" x="368.498142" xlink:href="#m5ba68f4629" y="123.135716"/>
     <use style="stroke:#000000;" x="270.199312" xlink:href="#m5ba68f4629" y="95.027483"/>
     <use style="stroke:#000000;" x="268.287971" xlink:href="#m5ba68f4629" y="94.844912"/>
     <use style="stroke:#000000;" x="365.358094" xlink:href="#m5ba68f4629" y="120.230083"/>
     <use style="stroke:#000000;" x="208.340422" xlink:href="#m5ba68f4629" y="81.693737"/>
     <use style="stroke:#000000;" x="386.027427" xlink:href="#m5ba68f4629" y="144.987723"/>
     <use style="stroke:#000000;" x="363.27728" xlink:href="#m5ba68f4629" y="120.77702"/>
     <use style="stroke:#000000;" x="380.532023" xlink:href="#m5ba68f4629" y="136.48984"/>
     <use style="stroke:#000000;" x="379.891302" xlink:href="#m5ba68f4629" y="135.937033"/>
     <use style="stroke:#000000;" x="379.614036" xlink:href="#m5ba68f4629" y="135.875668"/>
     <use style="stroke:#000000;" x="381.418647" xlink:href="#m5ba68f4629" y="139.56643"/>
     <use style="stroke:#000000;" x="381.103095" xlink:href="#m5ba68f4629" y="136.672219"/>
     <use style="stroke:#000000;" x="379.239166" xlink:href="#m5ba68f4629" y="135.856548"/>
     <use style="stroke:#000000;" x="322.056162" xlink:href="#m5ba68f4629" y="100.458459"/>
     <use style="stroke:#000000;" x="335.86415" xlink:href="#m5ba68f4629" y="119.610434"/>
     <use style="stroke:#000000;" x="319.291515" xlink:href="#m5ba68f4629" y="98.524156"/>
     <use style="stroke:#000000;" x="322.516216" xlink:href="#m5ba68f4629" y="103.45788"/>
     <use style="stroke:#000000;" x="321.296363" xlink:href="#m5ba68f4629" y="100.42657"/>
     <use style="stroke:#000000;" x="333.127624" xlink:href="#m5ba68f4629" y="118.85434"/>
     <use style="stroke:#000000;" x="375.222277" xlink:href="#m5ba68f4629" y="129.638271"/>
     <use style="stroke:#000000;" x="326.999518" xlink:href="#m5ba68f4629" y="109.518023"/>
     <use style="stroke:#000000;" x="376.869442" xlink:href="#m5ba68f4629" y="130.094201"/>
     <use style="stroke:#000000;" x="385.665379" xlink:href="#m5ba68f4629" y="139.954357"/>
     <use style="stroke:#000000;" x="372.727118" xlink:href="#m5ba68f4629" y="128.197855"/>
     <use style="stroke:#000000;" x="387.249231" xlink:href="#m5ba68f4629" y="146.054262"/>
     <use style="stroke:#000000;" x="382.230174" xlink:href="#m5ba68f4629" y="139.834086"/>
     <use style="stroke:#000000;" x="266.832106" xlink:href="#m5ba68f4629" y="94.149406"/>
     <use style="stroke:#000000;" x="265.152379" xlink:href="#m5ba68f4629" y="93.894009"/>
     <use style="stroke:#000000;" x="261.872414" xlink:href="#m5ba68f4629" y="92.986417"/>
     <use style="stroke:#000000;" x="341.302159" xlink:href="#m5ba68f4629" y="119.73137"/>
     <use style="stroke:#000000;" x="206.540941" xlink:href="#m5ba68f4629" y="84.210886"/>
     <use style="stroke:#000000;" x="381.487814" xlink:href="#m5ba68f4629" y="127.141468"/>
     <use style="stroke:#000000;" x="369.715322" xlink:href="#m5ba68f4629" y="124.163185"/>
     <use style="stroke:#000000;" x="385.545948" xlink:href="#m5ba68f4629" y="132.544919"/>
     <use style="stroke:#000000;" x="387.249231" xlink:href="#m5ba68f4629" y="145.979466"/>
     <use style="stroke:#000000;" x="387.249231" xlink:href="#m5ba68f4629" y="154.075964"/>
     <use style="stroke:#000000;" x="387.249231" xlink:href="#m5ba68f4629" y="149.761624"/>
     <use style="stroke:#000000;" x="387.249231" xlink:href="#m5ba68f4629" y="149.700772"/>
     <use style="stroke:#000000;" x="336.123125" xlink:href="#m5ba68f4629" y="127.365777"/>
     <use style="stroke:#000000;" x="336.076806" xlink:href="#m5ba68f4629" y="126.742487"/>
     <use style="stroke:#000000;" x="329.734165" xlink:href="#m5ba68f4629" y="110.823147"/>
     <use style="stroke:#000000;" x="323.587404" xlink:href="#m5ba68f4629" y="91.031923"/>
     <use style="stroke:#000000;" x="321.850671" xlink:href="#m5ba68f4629" y="94.792127"/>
     <use style="stroke:#000000;" x="319.648281" xlink:href="#m5ba68f4629" y="91.799808"/>
     <use style="stroke:#000000;" x="324.088923" xlink:href="#m5ba68f4629" y="104.994075"/>
     <use style="stroke:#000000;" x="334.420069" xlink:href="#m5ba68f4629" y="125.368798"/>
     <use style="stroke:#000000;" x="337.580071" xlink:href="#m5ba68f4629" y="130.846844"/>
     <use style="stroke:#000000;" x="329.43987" xlink:href="#m5ba68f4629" y="111.770551"/>
     <use style="stroke:#000000;" x="343.735921" xlink:href="#m5ba68f4629" y="128.110091"/>
     <use style="stroke:#000000;" x="358.76223" xlink:href="#m5ba68f4629" y="118.581872"/>
     <use style="stroke:#000000;" x="323.136406" xlink:href="#m5ba68f4629" y="97.627788"/>
     <use style="stroke:#000000;" x="354.721801" xlink:href="#m5ba68f4629" y="118.028813"/>
     <use style="stroke:#000000;" x="340.277385" xlink:href="#m5ba68f4629" y="125.112654"/>
     <use style="stroke:#000000;" x="317.012952" xlink:href="#m5ba68f4629" y="96.261705"/>
     <use style="stroke:#000000;" x="321.414612" xlink:href="#m5ba68f4629" y="98.958488"/>
     <use style="stroke:#000000;" x="345.729206" xlink:href="#m5ba68f4629" y="133.587413"/>
     <use style="stroke:#000000;" x="387.249231" xlink:href="#m5ba68f4629" y="149.147723"/>
     <use style="stroke:#000000;" x="379.126466" xlink:href="#m5ba68f4629" y="128.390588"/>
     <use style="stroke:#000000;" x="381.784324" xlink:href="#m5ba68f4629" y="131.857822"/>
     <use style="stroke:#000000;" x="347.626919" xlink:href="#m5ba68f4629" y="123.247004"/>
     <use style="stroke:#000000;" x="335.446322" xlink:href="#m5ba68f4629" y="120.92763"/>
     <use style="stroke:#000000;" x="316.732269" xlink:href="#m5ba68f4629" y="101.570961"/>
     <use style="stroke:#000000;" x="370.00137" xlink:href="#m5ba68f4629" y="126.204644"/>
     <use style="stroke:#000000;" x="387.249231" xlink:href="#m5ba68f4629" y="147.437487"/>
     <use style="stroke:#000000;" x="387.249231" xlink:href="#m5ba68f4629" y="143.736254"/>
     <use style="stroke:#000000;" x="293.507509" xlink:href="#m5ba68f4629" y="136.683513"/>
     <use style="stroke:#000000;" x="282.986578" xlink:href="#m5ba68f4629" y="127.82046"/>
     <use style="stroke:#000000;" x="273.370617" xlink:href="#m5ba68f4629" y="102.800968"/>
     <use style="stroke:#000000;" x="369.474433" xlink:href="#m5ba68f4629" y="124.937167"/>
     <use style="stroke:#000000;" x="382.118853" xlink:href="#m5ba68f4629" y="141.338934"/>
     <use style="stroke:#000000;" x="387.249231" xlink:href="#m5ba68f4629" y="148.140889"/>
     <use style="stroke:#000000;" x="341.03465" xlink:href="#m5ba68f4629" y="129.112111"/>
     <use style="stroke:#000000;" x="367.225663" xlink:href="#m5ba68f4629" y="121.686928"/>
     <use style="stroke:#000000;" x="337.317659" xlink:href="#m5ba68f4629" y="123.408259"/>
     <use style="stroke:#000000;" x="364.14321" xlink:href="#m5ba68f4629" y="119.364545"/>
     <use style="stroke:#000000;" x="387.249231" xlink:href="#m5ba68f4629" y="148.100829"/>
     <use style="stroke:#000000;" x="377.453277" xlink:href="#m5ba68f4629" y="123.966637"/>
     <use style="stroke:#000000;" x="330.498223" xlink:href="#m5ba68f4629" y="107.621223"/>
     <use style="stroke:#000000;" x="324.125736" xlink:href="#m5ba68f4629" y="98.731055"/>
     <use style="stroke:#000000;" x="314.353405" xlink:href="#m5ba68f4629" y="96.309491"/>
     <use style="stroke:#000000;" x="268.172286" xlink:href="#m5ba68f4629" y="91.55971"/>
     <use style="stroke:#000000;" x="257.295821" xlink:href="#m5ba68f4629" y="89.983544"/>
     <use style="stroke:#000000;" x="272.478609" xlink:href="#m5ba68f4629" y="102.639149"/>
     <use style="stroke:#000000;" x="347.135495" xlink:href="#m5ba68f4629" y="128.193905"/>
     <use style="stroke:#000000;" x="336.919215" xlink:href="#m5ba68f4629" y="126.219235"/>
     <use style="stroke:#000000;" x="333.90559" xlink:href="#m5ba68f4629" y="117.293699"/>
     <use style="stroke:#000000;" x="296.961371" xlink:href="#m5ba68f4629" y="115.631673"/>
     <use style="stroke:#000000;" x="302.777989" xlink:href="#m5ba68f4629" y="108.117499"/>
     <use style="stroke:#000000;" x="326.245778" xlink:href="#m5ba68f4629" y="102.674959"/>
     <use style="stroke:#000000;" x="205.243302" xlink:href="#m5ba68f4629" y="78.986904"/>
     <use style="stroke:#000000;" x="227.971328" xlink:href="#m5ba68f4629" y="137.340882"/>
     <use style="stroke:#000000;" x="218.287766" xlink:href="#m5ba68f4629" y="105.102053"/>
     <use style="stroke:#000000;" x="352.654018" xlink:href="#m5ba68f4629" y="120.00385"/>
     <use style="stroke:#000000;" x="363.374718" xlink:href="#m5ba68f4629" y="118.303502"/>
     <use style="stroke:#000000;" x="354.251042" xlink:href="#m5ba68f4629" y="123.580705"/>
     <use style="stroke:#000000;" x="336.52184" xlink:href="#m5ba68f4629" y="118.63199"/>
     <use style="stroke:#000000;" x="325.09405" xlink:href="#m5ba68f4629" y="107.364806"/>
     <use style="stroke:#000000;" x="331.98756" xlink:href="#m5ba68f4629" y="118.357186"/>
     <use style="stroke:#000000;" x="368.477628" xlink:href="#m5ba68f4629" y="119.181851"/>
     <use style="stroke:#000000;" x="378.180326" xlink:href="#m5ba68f4629" y="129.773232"/>
     <use style="stroke:#000000;" x="350.177579" xlink:href="#m5ba68f4629" y="125.205577"/>
     <use style="stroke:#000000;" x="262.15969" xlink:href="#m5ba68f4629" y="84.296534"/>
     <use style="stroke:#000000;" x="264.925395" xlink:href="#m5ba68f4629" y="84.833113"/>
     <use style="stroke:#000000;" x="293.327609" xlink:href="#m5ba68f4629" y="127.714576"/>
     <use style="stroke:#000000;" x="379.51256" xlink:href="#m5ba68f4629" y="129.781028"/>
     <use style="stroke:#000000;" x="357.653866" xlink:href="#m5ba68f4629" y="119.7496"/>
     <use style="stroke:#000000;" x="361.117797" xlink:href="#m5ba68f4629" y="119.59558"/>
     <use style="stroke:#000000;" x="383.931224" xlink:href="#m5ba68f4629" y="139.1197"/>
     <use style="stroke:#000000;" x="387.249231" xlink:href="#m5ba68f4629" y="154.633238"/>
     <use style="stroke:#000000;" x="370.673551" xlink:href="#m5ba68f4629" y="132.727419"/>
     <use style="stroke:#000000;" x="387.249231" xlink:href="#m5ba68f4629" y="147.294483"/>
     <use style="stroke:#000000;" x="365.757485" xlink:href="#m5ba68f4629" y="123.639599"/>
     <use style="stroke:#000000;" x="387.249231" xlink:href="#m5ba68f4629" y="156.502747"/>
     <use style="stroke:#000000;" x="387.249231" xlink:href="#m5ba68f4629" y="150.214704"/>
     <use style="stroke:#000000;" x="387.249231" xlink:href="#m5ba68f4629" y="147.748767"/>
     <use style="stroke:#000000;" x="319.747838" xlink:href="#m5ba68f4629" y="104.213259"/>
     <use style="stroke:#000000;" x="330.563242" xlink:href="#m5ba68f4629" y="113.796296"/>
     <use style="stroke:#000000;" x="283.363873" xlink:href="#m5ba68f4629" y="134.06496"/>
     <use style="stroke:#000000;" x="258.603716" xlink:href="#m5ba68f4629" y="92.348449"/>
     <use style="stroke:#000000;" x="376.557415" xlink:href="#m5ba68f4629" y="138.540589"/>
     <use style="stroke:#000000;" x="387.249231" xlink:href="#m5ba68f4629" y="152.552675"/>
     <use style="stroke:#000000;" x="319.188204" xlink:href="#m5ba68f4629" y="106.93689"/>
     <use style="stroke:#000000;" x="310.076632" xlink:href="#m5ba68f4629" y="111.573223"/>
     <use style="stroke:#000000;" x="329.561962" xlink:href="#m5ba68f4629" y="109.530139"/>
     <use style="stroke:#000000;" x="340.18219" xlink:href="#m5ba68f4629" y="122.310468"/>
     <use style="stroke:#000000;" x="342.962717" xlink:href="#m5ba68f4629" y="134.300912"/>
     <use style="stroke:#000000;" x="306.674986" xlink:href="#m5ba68f4629" y="112.47782"/>
     <use style="stroke:#000000;" x="347.185374" xlink:href="#m5ba68f4629" y="121.472194"/>
     <use style="stroke:#000000;" x="348.727828" xlink:href="#m5ba68f4629" y="120.713071"/>
     <use style="stroke:#000000;" x="355.643392" xlink:href="#m5ba68f4629" y="125.288431"/>
     <use style="stroke:#000000;" x="387.249231" xlink:href="#m5ba68f4629" y="146.981609"/>
     <use style="stroke:#000000;" x="374.608156" xlink:href="#m5ba68f4629" y="135.882052"/>
     <use style="stroke:#000000;" x="382.571569" xlink:href="#m5ba68f4629" y="145.916981"/>
     <use style="stroke:#000000;" x="264.120274" xlink:href="#m5ba68f4629" y="91.701408"/>
     <use style="stroke:#000000;" x="267.407516" xlink:href="#m5ba68f4629" y="93.751371"/>
     <use style="stroke:#000000;" x="318.919364" xlink:href="#m5ba68f4629" y="102.917217"/>
     <use style="stroke:#000000;" x="300.444098" xlink:href="#m5ba68f4629" y="113.526638"/>
     <use style="stroke:#000000;" x="362.829454" xlink:href="#m5ba68f4629" y="124.369525"/>
     <use style="stroke:#000000;" x="362.43016" xlink:href="#m5ba68f4629" y="132.031211"/>
     <use style="stroke:#000000;" x="369.965994" xlink:href="#m5ba68f4629" y="130.691605"/>
     <use style="stroke:#000000;" x="378.251987" xlink:href="#m5ba68f4629" y="135.090818"/>
     <use style="stroke:#000000;" x="378.355601" xlink:href="#m5ba68f4629" y="134.156686"/>
     <use style="stroke:#000000;" x="377.981727" xlink:href="#m5ba68f4629" y="138.091024"/>
     <use style="stroke:#000000;" x="306.318732" xlink:href="#m5ba68f4629" y="107.607584"/>
     <use style="stroke:#000000;" x="342.975604" xlink:href="#m5ba68f4629" y="129.161615"/>
     <use style="stroke:#000000;" x="345.167637" xlink:href="#m5ba68f4629" y="126.987924"/>
     <use style="stroke:#000000;" x="339.326388" xlink:href="#m5ba68f4629" y="121.130004"/>
     <use style="stroke:#000000;" x="258.610878" xlink:href="#m5ba68f4629" y="88.844351"/>
     <use style="stroke:#000000;" x="234.346645" xlink:href="#m5ba68f4629" y="122.974164"/>
     <use style="stroke:#000000;" x="363.498833" xlink:href="#m5ba68f4629" y="125.642709"/>
     <use style="stroke:#000000;" x="365.618512" xlink:href="#m5ba68f4629" y="123.787169"/>
     <use style="stroke:#000000;" x="361.497885" xlink:href="#m5ba68f4629" y="129.367033"/>
     <use style="stroke:#000000;" x="363.894453" xlink:href="#m5ba68f4629" y="123.908131"/>
     <use style="stroke:#000000;" x="382.869388" xlink:href="#m5ba68f4629" y="136.815335"/>
     <use style="stroke:#000000;" x="337.919723" xlink:href="#m5ba68f4629" y="121.673701"/>
     <use style="stroke:#000000;" x="355.72363" xlink:href="#m5ba68f4629" y="129.591093"/>
     <use style="stroke:#000000;" x="377.084804" xlink:href="#m5ba68f4629" y="133.445809"/>
     <use style="stroke:#000000;" x="244.372854" xlink:href="#m5ba68f4629" y="130.816078"/>
     <use style="stroke:#000000;" x="272.744562" xlink:href="#m5ba68f4629" y="98.643865"/>
     <use style="stroke:#000000;" x="289.837886" xlink:href="#m5ba68f4629" y="137.664363"/>
     <use style="stroke:#000000;" x="244.165608" xlink:href="#m5ba68f4629" y="128.181096"/>
     <use style="stroke:#000000;" x="366.623557" xlink:href="#m5ba68f4629" y="122.73857"/>
     <use style="stroke:#000000;" x="369.526713" xlink:href="#m5ba68f4629" y="125.03442"/>
     <use style="stroke:#000000;" x="362.618041" xlink:href="#m5ba68f4629" y="122.701913"/>
     <use style="stroke:#000000;" x="222.413089" xlink:href="#m5ba68f4629" y="123.956077"/>
     <use style="stroke:#000000;" x="209.923912" xlink:href="#m5ba68f4629" y="78.148576"/>
     <use style="stroke:#000000;" x="343.971191" xlink:href="#m5ba68f4629" y="141.575774"/>
     <use style="stroke:#000000;" x="387.249231" xlink:href="#m5ba68f4629" y="139.425837"/>
     <use style="stroke:#000000;" x="387.249231" xlink:href="#m5ba68f4629" y="159.883393"/>
     <use style="stroke:#000000;" x="351.390932" xlink:href="#m5ba68f4629" y="127.928419"/>
     <use style="stroke:#000000;" x="381.631387" xlink:href="#m5ba68f4629" y="141.202854"/>
     <use style="stroke:#000000;" x="359.703286" xlink:href="#m5ba68f4629" y="129.679773"/>
     <use style="stroke:#000000;" x="378.97543" xlink:href="#m5ba68f4629" y="137.74915"/>
     <use style="stroke:#000000;" x="387.249231" xlink:href="#m5ba68f4629" y="164.723514"/>
     <use style="stroke:#000000;" x="289.684755" xlink:href="#m5ba68f4629" y="128.277328"/>
     <use style="stroke:#000000;" x="337.863894" xlink:href="#m5ba68f4629" y="129.315836"/>
     <use style="stroke:#000000;" x="321.460889" xlink:href="#m5ba68f4629" y="100.617948"/>
     <use style="stroke:#000000;" x="333.037709" xlink:href="#m5ba68f4629" y="114.077497"/>
     <use style="stroke:#000000;" x="351.281433" xlink:href="#m5ba68f4629" y="129.943756"/>
     <use style="stroke:#000000;" x="310.276183" xlink:href="#m5ba68f4629" y="104.653393"/>
     <use style="stroke:#000000;" x="378.781266" xlink:href="#m5ba68f4629" y="144.302665"/>
     <use style="stroke:#000000;" x="357.010485" xlink:href="#m5ba68f4629" y="130.276145"/>
     <use style="stroke:#000000;" x="387.249231" xlink:href="#m5ba68f4629" y="141.993061"/>
     <use style="stroke:#000000;" x="387.249231" xlink:href="#m5ba68f4629" y="156.454707"/>
     <use style="stroke:#000000;" x="357.484345" xlink:href="#m5ba68f4629" y="133.741943"/>
     <use style="stroke:#000000;" x="387.249231" xlink:href="#m5ba68f4629" y="139.765749"/>
     <use style="stroke:#000000;" x="387.249231" xlink:href="#m5ba68f4629" y="163.793826"/>
     <use style="stroke:#000000;" x="217.106919" xlink:href="#m5ba68f4629" y="87.001636"/>
     <use style="stroke:#000000;" x="240.905148" xlink:href="#m5ba68f4629" y="138.984134"/>
     <use style="stroke:#000000;" x="245.714295" xlink:href="#m5ba68f4629" y="129.847173"/>
     <use style="stroke:#000000;" x="368.720874" xlink:href="#m5ba68f4629" y="122.817987"/>
     <use style="stroke:#000000;" x="212.013193" xlink:href="#m5ba68f4629" y="90.375208"/>
    </g>
   </g>
   <g id="PathCollection_2">
    <defs>
     <path d="M 0 0.935414 
C 0.248075 0.935414 0.486022 0.836853 0.661438 0.661438 
C 0.836853 0.486022 0.935414 0.248075 0.935414 0 
C 0.935414 -0.248075 0.836853 -0.486022 0.661438 -0.661438 
C 0.486022 -0.836853 0.248075 -0.935414 0 -0.935414 
C -0.248075 -0.935414 -0.486022 -0.836853 -0.661438 -0.661438 
C -0.836853 -0.486022 -0.935414 -0.248075 -0.935414 0 
C -0.935414 0.248075 -0.836853 0.486022 -0.661438 0.661438 
C -0.486022 0.836853 -0.248075 0.935414 0 0.935414 
z
" id="m9e4becf7fa" style="stroke:#0000ff;"/>
    </defs>
    <g clip-path="url(#p1c5078936b)">
     <use style="fill:#0000ff;stroke:#0000ff;" x="387.249231" xlink:href="#m9e4becf7fa" y="141.707787"/>
     <use style="fill:#0000ff;stroke:#0000ff;" x="380.276782" xlink:href="#m9e4becf7fa" y="131.709772"/>
     <use style="fill:#0000ff;stroke:#0000ff;" x="327.461688" xlink:href="#m9e4becf7fa" y="106.184715"/>
     <use style="fill:#0000ff;stroke:#0000ff;" x="325.415004" xlink:href="#m9e4becf7fa" y="95.712311"/>
     <use style="fill:#0000ff;stroke:#0000ff;" x="327.827241" xlink:href="#m9e4becf7fa" y="110.09619"/>
     <use style="fill:#0000ff;stroke:#0000ff;" x="343.285548" xlink:href="#m9e4becf7fa" y="118.357604"/>
     <use style="fill:#0000ff;stroke:#0000ff;" x="334.173819" xlink:href="#m9e4becf7fa" y="111.272442"/>
     <use style="fill:#0000ff;stroke:#0000ff;" x="332.046102" xlink:href="#m9e4becf7fa" y="111.220439"/>
     <use style="fill:#0000ff;stroke:#0000ff;" x="386.678643" xlink:href="#m9e4becf7fa" y="139.283491"/>
     <use style="fill:#0000ff;stroke:#0000ff;" x="334.291309" xlink:href="#m9e4becf7fa" y="114.579829"/>
     <use style="fill:#0000ff;stroke:#0000ff;" x="379.748355" xlink:href="#m9e4becf7fa" y="125.087434"/>
     <use style="fill:#0000ff;stroke:#0000ff;" x="268.179095" xlink:href="#m9e4becf7fa" y="89.927649"/>
     <use style="fill:#0000ff;stroke:#0000ff;" x="382.960152" xlink:href="#m9e4becf7fa" y="133.883086"/>
     <use style="fill:#0000ff;stroke:#0000ff;" x="363.965572" xlink:href="#m9e4becf7fa" y="119.631136"/>
     <use style="fill:#0000ff;stroke:#0000ff;" x="372.128556" xlink:href="#m9e4becf7fa" y="120.886872"/>
     <use style="fill:#0000ff;stroke:#0000ff;" x="326.329676" xlink:href="#m9e4becf7fa" y="102.008126"/>
     <use style="fill:#0000ff;stroke:#0000ff;" x="263.044992" xlink:href="#m9e4becf7fa" y="82.501701"/>
     <use style="fill:#0000ff;stroke:#0000ff;" x="334.688202" xlink:href="#m9e4becf7fa" y="116.990693"/>
     <use style="fill:#0000ff;stroke:#0000ff;" x="319.677696" xlink:href="#m9e4becf7fa" y="92.683013"/>
     <use style="fill:#0000ff;stroke:#0000ff;" x="211.051018" xlink:href="#m9e4becf7fa" y="78.930711"/>
     <use style="fill:#0000ff;stroke:#0000ff;" x="351.706439" xlink:href="#m9e4becf7fa" y="118.499333"/>
     <use style="fill:#0000ff;stroke:#0000ff;" x="330.365427" xlink:href="#m9e4becf7fa" y="110.328933"/>
     <use style="fill:#0000ff;stroke:#0000ff;" x="365.897049" xlink:href="#m9e4becf7fa" y="119.837448"/>
     <use style="fill:#0000ff;stroke:#0000ff;" x="261.718707" xlink:href="#m9e4becf7fa" y="81.446367"/>
     <use style="fill:#0000ff;stroke:#0000ff;" x="361.586302" xlink:href="#m9e4becf7fa" y="119.52778"/>
     <use style="fill:#0000ff;stroke:#0000ff;" x="387.249231" xlink:href="#m9e4becf7fa" y="142.757159"/>
     <use style="fill:#0000ff;stroke:#0000ff;" x="379.852755" xlink:href="#m9e4becf7fa" y="133.137126"/>
     <use style="fill:#0000ff;stroke:#0000ff;" x="380.146928" xlink:href="#m9e4becf7fa" y="133.919368"/>
     <use style="fill:#0000ff;stroke:#0000ff;" x="386.561167" xlink:href="#m9e4becf7fa" y="139.77026"/>
     <use style="fill:#0000ff;stroke:#0000ff;" x="324.966306" xlink:href="#m9e4becf7fa" y="103.702332"/>
     <use style="fill:#0000ff;stroke:#0000ff;" x="268.126335" xlink:href="#m9e4becf7fa" y="94.350363"/>
     <use style="fill:#0000ff;stroke:#0000ff;" x="381.625599" xlink:href="#m9e4becf7fa" y="136.936468"/>
     <use style="fill:#0000ff;stroke:#0000ff;" x="327.64324" xlink:href="#m9e4becf7fa" y="114.171947"/>
     <use style="fill:#0000ff;stroke:#0000ff;" x="324.667369" xlink:href="#m9e4becf7fa" y="96.507666"/>
     <use style="fill:#0000ff;stroke:#0000ff;" x="329.156622" xlink:href="#m9e4becf7fa" y="114.477579"/>
     <use style="fill:#0000ff;stroke:#0000ff;" x="339.52102" xlink:href="#m9e4becf7fa" y="118.488322"/>
     <use style="fill:#0000ff;stroke:#0000ff;" x="376.618892" xlink:href="#m9e4becf7fa" y="129.032424"/>
     <use style="fill:#0000ff;stroke:#0000ff;" x="378.259498" xlink:href="#m9e4becf7fa" y="133.03531"/>
     <use style="fill:#0000ff;stroke:#0000ff;" x="267.953655" xlink:href="#m9e4becf7fa" y="91.427231"/>
     <use style="fill:#0000ff;stroke:#0000ff;" x="327.279058" xlink:href="#m9e4becf7fa" y="106.560807"/>
     <use style="fill:#0000ff;stroke:#0000ff;" x="381.27863" xlink:href="#m9e4becf7fa" y="134.143599"/>
     <use style="fill:#0000ff;stroke:#0000ff;" x="377.474747" xlink:href="#m9e4becf7fa" y="129.076535"/>
     <use style="fill:#0000ff;stroke:#0000ff;" x="373.370436" xlink:href="#m9e4becf7fa" y="127.703971"/>
     <use style="fill:#0000ff;stroke:#0000ff;" x="326.204418" xlink:href="#m9e4becf7fa" y="105.731754"/>
     <use style="fill:#0000ff;stroke:#0000ff;" x="362.090431" xlink:href="#m9e4becf7fa" y="119.636647"/>
     <use style="fill:#0000ff;stroke:#0000ff;" x="258.683286" xlink:href="#m9e4becf7fa" y="83.079715"/>
     <use style="fill:#0000ff;stroke:#0000ff;" x="370.788492" xlink:href="#m9e4becf7fa" y="123.551169"/>
     <use style="fill:#0000ff;stroke:#0000ff;" x="371.748932" xlink:href="#m9e4becf7fa" y="123.842798"/>
     <use style="fill:#0000ff;stroke:#0000ff;" x="366.255019" xlink:href="#m9e4becf7fa" y="121.508793"/>
     <use style="fill:#0000ff;stroke:#0000ff;" x="368.498142" xlink:href="#m9e4becf7fa" y="123.135716"/>
     <use style="fill:#0000ff;stroke:#0000ff;" x="270.199312" xlink:href="#m9e4becf7fa" y="95.027483"/>
     <use style="fill:#0000ff;stroke:#0000ff;" x="268.287971" xlink:href="#m9e4becf7fa" y="94.844912"/>
     <use style="fill:#0000ff;stroke:#0000ff;" x="365.358094" xlink:href="#m9e4becf7fa" y="120.230083"/>
     <use style="fill:#0000ff;stroke:#0000ff;" x="208.340422" xlink:href="#m9e4becf7fa" y="81.693737"/>
     <use style="fill:#0000ff;stroke:#0000ff;" x="386.027427" xlink:href="#m9e4becf7fa" y="144.987723"/>
     <use style="fill:#0000ff;stroke:#0000ff;" x="363.27728" xlink:href="#m9e4becf7fa" y="120.77702"/>
     <use style="fill:#0000ff;stroke:#0000ff;" x="380.532023" xlink:href="#m9e4becf7fa" y="136.48984"/>
     <use style="fill:#0000ff;stroke:#0000ff;" x="379.891302" xlink:href="#m9e4becf7fa" y="135.937033"/>
     <use style="fill:#0000ff;stroke:#0000ff;" x="379.614036" xlink:href="#m9e4becf7fa" y="135.875668"/>
     <use style="fill:#0000ff;stroke:#0000ff;" x="381.418647" xlink:href="#m9e4becf7fa" y="139.56643"/>
     <use style="fill:#0000ff;stroke:#0000ff;" x="381.103095" xlink:href="#m9e4becf7fa" y="136.672219"/>
     <use style="fill:#0000ff;stroke:#0000ff;" x="379.239166" xlink:href="#m9e4becf7fa" y="135.856548"/>
     <use style="fill:#0000ff;stroke:#0000ff;" x="322.056162" xlink:href="#m9e4becf7fa" y="100.458459"/>
     <use style="fill:#0000ff;stroke:#0000ff;" x="335.86415" xlink:href="#m9e4becf7fa" y="119.610434"/>
     <use style="fill:#0000ff;stroke:#0000ff;" x="319.291515" xlink:href="#m9e4becf7fa" y="98.524156"/>
     <use style="fill:#0000ff;stroke:#0000ff;" x="322.516216" xlink:href="#m9e4becf7fa" y="103.45788"/>
     <use style="fill:#0000ff;stroke:#0000ff;" x="321.296363" xlink:href="#m9e4becf7fa" y="100.42657"/>
     <use style="fill:#0000ff;stroke:#0000ff;" x="333.127624" xlink:href="#m9e4becf7fa" y="118.85434"/>
     <use style="fill:#0000ff;stroke:#0000ff;" x="375.222277" xlink:href="#m9e4becf7fa" y="129.638271"/>
     <use style="fill:#0000ff;stroke:#0000ff;" x="326.999518" xlink:href="#m9e4becf7fa" y="109.518023"/>
     <use style="fill:#0000ff;stroke:#0000ff;" x="376.869442" xlink:href="#m9e4becf7fa" y="130.094201"/>
     <use style="fill:#0000ff;stroke:#0000ff;" x="385.665379" xlink:href="#m9e4becf7fa" y="139.954357"/>
     <use style="fill:#0000ff;stroke:#0000ff;" x="372.727118" xlink:href="#m9e4becf7fa" y="128.197855"/>
     <use style="fill:#0000ff;stroke:#0000ff;" x="387.249231" xlink:href="#m9e4becf7fa" y="146.054262"/>
     <use style="fill:#0000ff;stroke:#0000ff;" x="382.230174" xlink:href="#m9e4becf7fa" y="139.834086"/>
     <use style="fill:#0000ff;stroke:#0000ff;" x="266.832106" xlink:href="#m9e4becf7fa" y="94.149406"/>
     <use style="fill:#0000ff;stroke:#0000ff;" x="265.152379" xlink:href="#m9e4becf7fa" y="93.894009"/>
     <use style="fill:#0000ff;stroke:#0000ff;" x="261.872414" xlink:href="#m9e4becf7fa" y="92.986417"/>
     <use style="fill:#0000ff;stroke:#0000ff;" x="341.302159" xlink:href="#m9e4becf7fa" y="119.73137"/>
     <use style="fill:#0000ff;stroke:#0000ff;" x="206.540941" xlink:href="#m9e4becf7fa" y="84.210886"/>
    </g>
   </g>
   <g id="matplotlib.axis_1">
    <g id="xtick_1">
     <g id="line2d_1">
      <defs>
       <path d="M 0 0 
L 0 3.5 
" id="mb95245e541" style="stroke:#000000;stroke-width:0.8;"/>
      </defs>
      <g>
       <use style="stroke:#000000;stroke-width:0.8;" x="57.6" xlink:href="#mb95245e541" y="307.584"/>
      </g>
     </g>
     <g id="text_1">
      <!-- −1.2 -->
      <defs>
       <path d="M 10.59375 35.5 
L 73.1875 35.5 
L 73.1875 27.203125 
L 10.59375 27.203125 
z
" id="DejaVuSans-2212"/>
       <path d="M 12.40625 8.296875 
L 28.515625 8.296875 
L 28.515625 63.921875 
L 10.984375 60.40625 
L 10.984375 69.390625 
L 28.421875 72.90625 
L 38.28125 72.90625 
L 38.28125 8.296875 
L 54.390625 8.296875 
L 54.390625 0 
L 12.40625 0 
z
" id="DejaVuSans-31"/>
       <path d="M 10.6875 12.40625 
L 21 12.40625 
L 21 0 
L 10.6875 0 
z
" id="DejaVuSans-2e"/>
       <path d="M 19.1875 8.296875 
L 53.609375 8.296875 
L 53.609375 0 
L 7.328125 0 
L 7.328125 8.296875 
Q 12.9375 14.109375 22.625 23.890625 
Q 32.328125 33.6875 34.8125 36.53125 
Q 39.546875 41.84375 41.421875 45.53125 
Q 43.3125 49.21875 43.3125 52.78125 
Q 43.3125 58.59375 39.234375 62.25 
Q 35.15625 65.921875 28.609375 65.921875 
Q 23.96875 65.921875 18.8125 64.3125 
Q 13.671875 62.703125 7.8125 59.421875 
L 7.8125 69.390625 
Q 13.765625 71.78125 18.9375 73 
Q 24.125 74.21875 28.421875 74.21875 
Q 39.75 74.21875 46.484375 68.546875 
Q 53.21875 62.890625 53.21875 53.421875 
Q 53.21875 48.921875 51.53125 44.890625 
Q 49.859375 40.875 45.40625 35.40625 
Q 44.1875 33.984375 37.640625 27.21875 
Q 31.109375 20.453125 19.1875 8.296875 
z
" id="DejaVuSans-32"/>
      </defs>
      <g transform="translate(45.458594 322.182437)scale(0.1 -0.1)">
       <use xlink:href="#DejaVuSans-2212"/>
       <use x="83.789062" xlink:href="#DejaVuSans-31"/>
       <use x="147.412109" xlink:href="#DejaVuSans-2e"/>
       <use x="179.199219" xlink:href="#DejaVuSans-32"/>
      </g>
     </g>
    </g>
    <g id="xtick_2">
     <g id="line2d_2">
      <g>
       <use style="stroke:#000000;stroke-width:0.8;" x="112.541538" xlink:href="#mb95245e541" y="307.584"/>
      </g>
     </g>
     <g id="text_2">
      <!-- −1.0 -->
      <defs>
       <path d="M 31.78125 66.40625 
Q 24.171875 66.40625 20.328125 58.90625 
Q 16.5 51.421875 16.5 36.375 
Q 16.5 21.390625 20.328125 13.890625 
Q 24.171875 6.390625 31.78125 6.390625 
Q 39.453125 6.390625 43.28125 13.890625 
Q 47.125 21.390625 47.125 36.375 
Q 47.125 51.421875 43.28125 58.90625 
Q 39.453125 66.40625 31.78125 66.40625 
z
M 31.78125 74.21875 
Q 44.046875 74.21875 50.515625 64.515625 
Q 56.984375 54.828125 56.984375 36.375 
Q 56.984375 17.96875 50.515625 8.265625 
Q 44.046875 -1.421875 31.78125 -1.421875 
Q 19.53125 -1.421875 13.0625 8.265625 
Q 6.59375 17.96875 6.59375 36.375 
Q 6.59375 54.828125 13.0625 64.515625 
Q 19.53125 74.21875 31.78125 74.21875 
z
" id="DejaVuSans-30"/>
      </defs>
      <g transform="translate(100.400132 322.182437)scale(0.1 -0.1)">
       <use xlink:href="#DejaVuSans-2212"/>
       <use x="83.789062" xlink:href="#DejaVuSans-31"/>
       <use x="147.412109" xlink:href="#DejaVuSans-2e"/>
       <use x="179.199219" xlink:href="#DejaVuSans-30"/>
      </g>
     </g>
    </g>
    <g id="xtick_3">
     <g id="line2d_3">
      <g>
       <use style="stroke:#000000;stroke-width:0.8;" x="167.483077" xlink:href="#mb95245e541" y="307.584"/>
      </g>
     </g>
     <g id="text_3">
      <!-- −0.8 -->
      <defs>
       <path d="M 31.78125 34.625 
Q 24.75 34.625 20.71875 30.859375 
Q 16.703125 27.09375 16.703125 20.515625 
Q 16.703125 13.921875 20.71875 10.15625 
Q 24.75 6.390625 31.78125 6.390625 
Q 38.8125 6.390625 42.859375 10.171875 
Q 46.921875 13.96875 46.921875 20.515625 
Q 46.921875 27.09375 42.890625 30.859375 
Q 38.875 34.625 31.78125 34.625 
z
M 21.921875 38.8125 
Q 15.578125 40.375 12.03125 44.71875 
Q 8.5 49.078125 8.5 55.328125 
Q 8.5 64.0625 14.71875 69.140625 
Q 20.953125 74.21875 31.78125 74.21875 
Q 42.671875 74.21875 48.875 69.140625 
Q 55.078125 64.0625 55.078125 55.328125 
Q 55.078125 49.078125 51.53125 44.71875 
Q 48 40.375 41.703125 38.8125 
Q 48.828125 37.15625 52.796875 32.3125 
Q 56.78125 27.484375 56.78125 20.515625 
Q 56.78125 9.90625 50.3125 4.234375 
Q 43.84375 -1.421875 31.78125 -1.421875 
Q 19.734375 -1.421875 13.25 4.234375 
Q 6.78125 9.90625 6.78125 20.515625 
Q 6.78125 27.484375 10.78125 32.3125 
Q 14.796875 37.15625 21.921875 38.8125 
z
M 18.3125 54.390625 
Q 18.3125 48.734375 21.84375 45.5625 
Q 25.390625 42.390625 31.78125 42.390625 
Q 38.140625 42.390625 41.71875 45.5625 
Q 45.3125 48.734375 45.3125 54.390625 
Q 45.3125 60.0625 41.71875 63.234375 
Q 38.140625 66.40625 31.78125 66.40625 
Q 25.390625 66.40625 21.84375 63.234375 
Q 18.3125 60.0625 18.3125 54.390625 
z
" id="DejaVuSans-38"/>
      </defs>
      <g transform="translate(155.341671 322.182437)scale(0.1 -0.1)">
       <use xlink:href="#DejaVuSans-2212"/>
       <use x="83.789062" xlink:href="#DejaVuSans-30"/>
       <use x="147.412109" xlink:href="#DejaVuSans-2e"/>
       <use x="179.199219" xlink:href="#DejaVuSans-38"/>
      </g>
     </g>
    </g>
    <g id="xtick_4">
     <g id="line2d_4">
      <g>
       <use style="stroke:#000000;stroke-width:0.8;" x="222.424615" xlink:href="#mb95245e541" y="307.584"/>
      </g>
     </g>
     <g id="text_4">
      <!-- −0.6 -->
      <defs>
       <path d="M 33.015625 40.375 
Q 26.375 40.375 22.484375 35.828125 
Q 18.609375 31.296875 18.609375 23.390625 
Q 18.609375 15.53125 22.484375 10.953125 
Q 26.375 6.390625 33.015625 6.390625 
Q 39.65625 6.390625 43.53125 10.953125 
Q 47.40625 15.53125 47.40625 23.390625 
Q 47.40625 31.296875 43.53125 35.828125 
Q 39.65625 40.375 33.015625 40.375 
z
M 52.59375 71.296875 
L 52.59375 62.3125 
Q 48.875 64.0625 45.09375 64.984375 
Q 41.3125 65.921875 37.59375 65.921875 
Q 27.828125 65.921875 22.671875 59.328125 
Q 17.53125 52.734375 16.796875 39.40625 
Q 19.671875 43.65625 24.015625 45.921875 
Q 28.375 48.1875 33.59375 48.1875 
Q 44.578125 48.1875 50.953125 41.515625 
Q 57.328125 34.859375 57.328125 23.390625 
Q 57.328125 12.15625 50.6875 5.359375 
Q 44.046875 -1.421875 33.015625 -1.421875 
Q 20.359375 -1.421875 13.671875 8.265625 
Q 6.984375 17.96875 6.984375 36.375 
Q 6.984375 53.65625 15.1875 63.9375 
Q 23.390625 74.21875 37.203125 74.21875 
Q 40.921875 74.21875 44.703125 73.484375 
Q 48.484375 72.75 52.59375 71.296875 
z
" id="DejaVuSans-36"/>
      </defs>
      <g transform="translate(210.283209 322.182437)scale(0.1 -0.1)">
       <use xlink:href="#DejaVuSans-2212"/>
       <use x="83.789062" xlink:href="#DejaVuSans-30"/>
       <use x="147.412109" xlink:href="#DejaVuSans-2e"/>
       <use x="179.199219" xlink:href="#DejaVuSans-36"/>
      </g>
     </g>
    </g>
    <g id="xtick_5">
     <g id="line2d_5">
      <g>
       <use style="stroke:#000000;stroke-width:0.8;" x="277.366154" xlink:href="#mb95245e541" y="307.584"/>
      </g>
     </g>
     <g id="text_5">
      <!-- −0.4 -->
      <defs>
       <path d="M 37.796875 64.3125 
L 12.890625 25.390625 
L 37.796875 25.390625 
z
M 35.203125 72.90625 
L 47.609375 72.90625 
L 47.609375 25.390625 
L 58.015625 25.390625 
L 58.015625 17.1875 
L 47.609375 17.1875 
L 47.609375 0 
L 37.796875 0 
L 37.796875 17.1875 
L 4.890625 17.1875 
L 4.890625 26.703125 
z
" id="DejaVuSans-34"/>
      </defs>
      <g transform="translate(265.224748 322.182437)scale(0.1 -0.1)">
       <use xlink:href="#DejaVuSans-2212"/>
       <use x="83.789062" xlink:href="#DejaVuSans-30"/>
       <use x="147.412109" xlink:href="#DejaVuSans-2e"/>
       <use x="179.199219" xlink:href="#DejaVuSans-34"/>
      </g>
     </g>
    </g>
    <g id="xtick_6">
     <g id="line2d_6">
      <g>
       <use style="stroke:#000000;stroke-width:0.8;" x="332.307692" xlink:href="#mb95245e541" y="307.584"/>
      </g>
     </g>
     <g id="text_6">
      <!-- −0.2 -->
      <g transform="translate(320.166286 322.182437)scale(0.1 -0.1)">
       <use xlink:href="#DejaVuSans-2212"/>
       <use x="83.789062" xlink:href="#DejaVuSans-30"/>
       <use x="147.412109" xlink:href="#DejaVuSans-2e"/>
       <use x="179.199219" xlink:href="#DejaVuSans-32"/>
      </g>
     </g>
    </g>
    <g id="xtick_7">
     <g id="line2d_7">
      <g>
       <use style="stroke:#000000;stroke-width:0.8;" x="387.249231" xlink:href="#mb95245e541" y="307.584"/>
      </g>
     </g>
     <g id="text_7">
      <!-- 0.0 -->
      <g transform="translate(379.297668 322.182437)scale(0.1 -0.1)">
       <use xlink:href="#DejaVuSans-30"/>
       <use x="63.623047" xlink:href="#DejaVuSans-2e"/>
       <use x="95.410156" xlink:href="#DejaVuSans-30"/>
      </g>
     </g>
    </g>
   </g>
   <g id="matplotlib.axis_2">
    <g id="ytick_1">
     <g id="line2d_8">
      <defs>
       <path d="M 0 0 
L -3.5 0 
" id="m86e02e0dc0" style="stroke:#000000;stroke-width:0.8;"/>
      </defs>
      <g>
       <use style="stroke:#000000;stroke-width:0.8;" x="57.6" xlink:href="#m86e02e0dc0" y="307.584"/>
      </g>
     </g>
     <g id="text_8">
      <!-- −5 -->
      <defs>
       <path d="M 10.796875 72.90625 
L 49.515625 72.90625 
L 49.515625 64.59375 
L 19.828125 64.59375 
L 19.828125 46.734375 
Q 21.96875 47.46875 24.109375 47.828125 
Q 26.265625 48.1875 28.421875 48.1875 
Q 40.625 48.1875 47.75 41.5 
Q 54.890625 34.8125 54.890625 23.390625 
Q 54.890625 11.625 47.5625 5.09375 
Q 40.234375 -1.421875 26.90625 -1.421875 
Q 22.3125 -1.421875 17.546875 -0.640625 
Q 12.796875 0.140625 7.71875 1.703125 
L 7.71875 11.625 
Q 12.109375 9.234375 16.796875 8.0625 
Q 21.484375 6.890625 26.703125 6.890625 
Q 35.15625 6.890625 40.078125 11.328125 
Q 45.015625 15.765625 45.015625 23.390625 
Q 45.015625 31 40.078125 35.4375 
Q 35.15625 39.890625 26.703125 39.890625 
Q 22.75 39.890625 18.8125 39.015625 
Q 14.890625 38.140625 10.796875 36.28125 
z
" id="DejaVuSans-35"/>
      </defs>
      <g transform="translate(35.857813 311.383219)scale(0.1 -0.1)">
       <use xlink:href="#DejaVuSans-2212"/>
       <use x="83.789062" xlink:href="#DejaVuSans-35"/>
      </g>
     </g>
    </g>
    <g id="ytick_2">
     <g id="line2d_9">
      <g>
       <use style="stroke:#000000;stroke-width:0.8;" x="57.6" xlink:href="#m86e02e0dc0" y="254.3616"/>
      </g>
     </g>
     <g id="text_9">
      <!-- −4 -->
      <g transform="translate(35.857813 258.160819)scale(0.1 -0.1)">
       <use xlink:href="#DejaVuSans-2212"/>
       <use x="83.789062" xlink:href="#DejaVuSans-34"/>
      </g>
     </g>
    </g>
    <g id="ytick_3">
     <g id="line2d_10">
      <g>
       <use style="stroke:#000000;stroke-width:0.8;" x="57.6" xlink:href="#m86e02e0dc0" y="201.1392"/>
      </g>
     </g>
     <g id="text_10">
      <!-- −3 -->
      <defs>
       <path d="M 40.578125 39.3125 
Q 47.65625 37.796875 51.625 33 
Q 55.609375 28.21875 55.609375 21.1875 
Q 55.609375 10.40625 48.1875 4.484375 
Q 40.765625 -1.421875 27.09375 -1.421875 
Q 22.515625 -1.421875 17.65625 -0.515625 
Q 12.796875 0.390625 7.625 2.203125 
L 7.625 11.71875 
Q 11.71875 9.328125 16.59375 8.109375 
Q 21.484375 6.890625 26.8125 6.890625 
Q 36.078125 6.890625 40.9375 10.546875 
Q 45.796875 14.203125 45.796875 21.1875 
Q 45.796875 27.640625 41.28125 31.265625 
Q 36.765625 34.90625 28.71875 34.90625 
L 20.21875 34.90625 
L 20.21875 43.015625 
L 29.109375 43.015625 
Q 36.375 43.015625 40.234375 45.921875 
Q 44.09375 48.828125 44.09375 54.296875 
Q 44.09375 59.90625 40.109375 62.90625 
Q 36.140625 65.921875 28.71875 65.921875 
Q 24.65625 65.921875 20.015625 65.03125 
Q 15.375 64.15625 9.8125 62.3125 
L 9.8125 71.09375 
Q 15.4375 72.65625 20.34375 73.4375 
Q 25.25 74.21875 29.59375 74.21875 
Q 40.828125 74.21875 47.359375 69.109375 
Q 53.90625 64.015625 53.90625 55.328125 
Q 53.90625 49.265625 50.4375 45.09375 
Q 46.96875 40.921875 40.578125 39.3125 
z
" id="DejaVuSans-33"/>
      </defs>
      <g transform="translate(35.857813 204.938419)scale(0.1 -0.1)">
       <use xlink:href="#DejaVuSans-2212"/>
       <use x="83.789062" xlink:href="#DejaVuSans-33"/>
      </g>
     </g>
    </g>
    <g id="ytick_4">
     <g id="line2d_11">
      <g>
       <use style="stroke:#000000;stroke-width:0.8;" x="57.6" xlink:href="#m86e02e0dc0" y="147.9168"/>
      </g>
     </g>
     <g id="text_11">
      <!-- −2 -->
      <g transform="translate(35.857813 151.716019)scale(0.1 -0.1)">
       <use xlink:href="#DejaVuSans-2212"/>
       <use x="83.789062" xlink:href="#DejaVuSans-32"/>
      </g>
     </g>
    </g>
    <g id="ytick_5">
     <g id="line2d_12">
      <g>
       <use style="stroke:#000000;stroke-width:0.8;" x="57.6" xlink:href="#m86e02e0dc0" y="94.6944"/>
      </g>
     </g>
     <g id="text_12">
      <!-- −1 -->
      <g transform="translate(35.857813 98.493619)scale(0.1 -0.1)">
       <use xlink:href="#DejaVuSans-2212"/>
       <use x="83.789062" xlink:href="#DejaVuSans-31"/>
      </g>
     </g>
    </g>
    <g id="ytick_6">
     <g id="line2d_13">
      <g>
       <use style="stroke:#000000;stroke-width:0.8;" x="57.6" xlink:href="#m86e02e0dc0" y="41.472"/>
      </g>
     </g>
     <g id="text_13">
      <!-- 0 -->
      <g transform="translate(44.2375 45.271219)scale(0.1 -0.1)">
       <use xlink:href="#DejaVuSans-30"/>
      </g>
     </g>
    </g>
   </g>
   <g id="patch_3">
    <path d="M 57.6 307.584 
L 57.6 41.472 
" style="fill:none;stroke:#000000;stroke-linecap:square;stroke-linejoin:miter;stroke-width:0.8;"/>
   </g>
   <g id="patch_4">
    <path d="M 414.72 307.584 
L 414.72 41.472 
" style="fill:none;stroke:#000000;stroke-linecap:square;stroke-linejoin:miter;stroke-width:0.8;"/>
   </g>
   <g id="patch_5">
    <path d="M 57.6 307.584 
L 414.72 307.584 
" style="fill:none;stroke:#000000;stroke-linecap:square;stroke-linejoin:miter;stroke-width:0.8;"/>
   </g>
   <g id="patch_6">
    <path d="M 57.6 41.472 
L 414.72 41.472 
" style="fill:none;stroke:#000000;stroke-linecap:square;stroke-linejoin:miter;stroke-width:0.8;"/>
   </g>
  </g>
 </g>
 <defs>
  <clipPath id="p1c5078936b">
   <rect height="266.112" width="357.12" x="57.6" y="41.472"/>
  </clipPath>
 </defs>
</svg>
