<?xml version="1.0" encoding="utf-8" standalone="no"?>
<!DOCTYPE svg PUBLIC "-//W3C//DTD SVG 1.1//EN"
  "http://www.w3.org/Graphics/SVG/1.1/DTD/svg11.dtd">
<!-- Created with matplotlib (http://matplotlib.org/) -->
<svg height="345.6pt" version="1.1" viewBox="0 0 460.8 345.6" width="460.8pt" xmlns="http://www.w3.org/2000/svg" xmlns:xlink="http://www.w3.org/1999/xlink">
 <defs>
  <style type="text/css">
*{stroke-linecap:butt;stroke-linejoin:round;}
  </style>
 </defs>
 <g id="figure_1">
  <g id="patch_1">
   <path d="M 0 345.6 
L 460.8 345.6 
L 460.8 0 
L 0 0 
z
" style="fill:#ffffff;"/>
  </g>
  <g id="axes_1">
   <g id="patch_2">
    <path d="M 57.6 307.584 
L 414.72 307.584 
L 414.72 41.472 
L 57.6 41.472 
z
" style="fill:#ffffff;"/>
   </g>
   <g id="PathCollection_1">
    <defs>
     <path d="M 0 0.612372 
C 0.162403 0.612372 0.318176 0.547849 0.433013 0.433013 
C 0.547849 0.318176 0.612372 0.162403 0.612372 0 
C 0.612372 -0.162403 0.547849 -0.318176 0.433013 -0.433013 
C 0.318176 -0.547849 0.162403 -0.612372 0 -0.612372 
C -0.162403 -0.612372 -0.318176 -0.547849 -0.433013 -0.433013 
C -0.547849 -0.318176 -0.612372 -0.162403 -0.612372 0 
C -0.612372 0.162403 -0.547849 0.318176 -0.433013 0.433013 
C -0.318176 0.547849 -0.162403 0.612372 0 0.612372 
z
" id="m0bcdc88f10" style="stroke:#000000;"/>
    </defs>
    <g clip-path="url(#pd4e3a28c74)">
     <use style="stroke:#000000;" x="370.051648" xlink:href="#m0bcdc88f10" y="120.346951"/>
     <use style="stroke:#000000;" x="323.587404" xlink:href="#m0bcdc88f10" y="91.031923"/>
     <use style="stroke:#000000;" x="327.310797" xlink:href="#m0bcdc88f10" y="101.675346"/>
     <use style="stroke:#000000;" x="368.453838" xlink:href="#m0bcdc88f10" y="116.583247"/>
     <use style="stroke:#000000;" x="207.899626" xlink:href="#m0bcdc88f10" y="75.969479"/>
     <use style="stroke:#000000;" x="315.959253" xlink:href="#m0bcdc88f10" y="87.194521"/>
     <use style="stroke:#000000;" x="329.082714" xlink:href="#m0bcdc88f10" y="104.20844"/>
     <use style="stroke:#000000;" x="368.61809" xlink:href="#m0bcdc88f10" y="118.705245"/>
     <use style="stroke:#000000;" x="387.249231" xlink:href="#m0bcdc88f10" y="134.023321"/>
     <use style="stroke:#000000;" x="383.188293" xlink:href="#m0bcdc88f10" y="128.993149"/>
     <use style="stroke:#000000;" x="325.939404" xlink:href="#m0bcdc88f10" y="99.445972"/>
     <use style="stroke:#000000;" x="339.85129" xlink:href="#m0bcdc88f10" y="113.207942"/>
     <use style="stroke:#000000;" x="325.415004" xlink:href="#m0bcdc88f10" y="95.712311"/>
     <use style="stroke:#000000;" x="334.173819" xlink:href="#m0bcdc88f10" y="111.272442"/>
     <use style="stroke:#000000;" x="332.632772" xlink:href="#m0bcdc88f10" y="104.49562"/>
     <use style="stroke:#000000;" x="379.748355" xlink:href="#m0bcdc88f10" y="125.087434"/>
     <use style="stroke:#000000;" x="372.128556" xlink:href="#m0bcdc88f10" y="120.886872"/>
     <use style="stroke:#000000;" x="263.044992" xlink:href="#m0bcdc88f10" y="82.501701"/>
     <use style="stroke:#000000;" x="261.718707" xlink:href="#m0bcdc88f10" y="81.446367"/>
     <use style="stroke:#000000;" x="211.051018" xlink:href="#m0bcdc88f10" y="78.930711"/>
     <use style="stroke:#000000;" x="377.453277" xlink:href="#m0bcdc88f10" y="123.966637"/>
     <use style="stroke:#000000;" x="381.487814" xlink:href="#m0bcdc88f10" y="127.141468"/>
     <use style="stroke:#000000;" x="209.923912" xlink:href="#m0bcdc88f10" y="78.148576"/>
     <use style="stroke:#000000;" x="264.925395" xlink:href="#m0bcdc88f10" y="84.833113"/>
     <use style="stroke:#000000;" x="385.545948" xlink:href="#m0bcdc88f10" y="132.544919"/>
     <use style="stroke:#000000;" x="368.720874" xlink:href="#m0bcdc88f10" y="122.817987"/>
     <use style="stroke:#000000;" x="321.850671" xlink:href="#m0bcdc88f10" y="94.792127"/>
     <use style="stroke:#000000;" x="333.037709" xlink:href="#m0bcdc88f10" y="114.077497"/>
     <use style="stroke:#000000;" x="326.329676" xlink:href="#m0bcdc88f10" y="102.008126"/>
     <use style="stroke:#000000;" x="327.461688" xlink:href="#m0bcdc88f10" y="106.184715"/>
     <use style="stroke:#000000;" x="387.249231" xlink:href="#m0bcdc88f10" y="135.599404"/>
     <use style="stroke:#000000;" x="354.721801" xlink:href="#m0bcdc88f10" y="118.028813"/>
     <use style="stroke:#000000;" x="368.477628" xlink:href="#m0bcdc88f10" y="119.181851"/>
     <use style="stroke:#000000;" x="205.652051" xlink:href="#m0bcdc88f10" y="77.746801"/>
     <use style="stroke:#000000;" x="363.374718" xlink:href="#m0bcdc88f10" y="118.303502"/>
     <use style="stroke:#000000;" x="336.404093" xlink:href="#m0bcdc88f10" y="114.420859"/>
     <use style="stroke:#000000;" x="268.179095" xlink:href="#m0bcdc88f10" y="89.927649"/>
     <use style="stroke:#000000;" x="381.784324" xlink:href="#m0bcdc88f10" y="131.857822"/>
     <use style="stroke:#000000;" x="379.51256" xlink:href="#m0bcdc88f10" y="129.781028"/>
     <use style="stroke:#000000;" x="336.481004" xlink:href="#m0bcdc88f10" y="116.10832"/>
     <use style="stroke:#000000;" x="332.115363" xlink:href="#m0bcdc88f10" y="112.850132"/>
     <use style="stroke:#000000;" x="332.046102" xlink:href="#m0bcdc88f10" y="111.220439"/>
     <use style="stroke:#000000;" x="383.119243" xlink:href="#m0bcdc88f10" y="133.806742"/>
     <use style="stroke:#000000;" x="380.276782" xlink:href="#m0bcdc88f10" y="131.709772"/>
     <use style="stroke:#000000;" x="330.498223" xlink:href="#m0bcdc88f10" y="107.621223"/>
     <use style="stroke:#000000;" x="325.191021" xlink:href="#m0bcdc88f10" y="96.603492"/>
     <use style="stroke:#000000;" x="324.667369" xlink:href="#m0bcdc88f10" y="96.507666"/>
     <use style="stroke:#000000;" x="372.158414" xlink:href="#m0bcdc88f10" y="125.270138"/>
     <use style="stroke:#000000;" x="378.2081" xlink:href="#m0bcdc88f10" y="128.388847"/>
     <use style="stroke:#000000;" x="375.285308" xlink:href="#m0bcdc88f10" y="126.078582"/>
     <use style="stroke:#000000;" x="379.126466" xlink:href="#m0bcdc88f10" y="128.390588"/>
     <use style="stroke:#000000;" x="371.364105" xlink:href="#m0bcdc88f10" y="123.152891"/>
     <use style="stroke:#000000;" x="262.15969" xlink:href="#m0bcdc88f10" y="84.296534"/>
     <use style="stroke:#000000;" x="371.748932" xlink:href="#m0bcdc88f10" y="123.842798"/>
     <use style="stroke:#000000;" x="258.683286" xlink:href="#m0bcdc88f10" y="83.079715"/>
     <use style="stroke:#000000;" x="208.340422" xlink:href="#m0bcdc88f10" y="81.693737"/>
     <use style="stroke:#000000;" x="263.436353" xlink:href="#m0bcdc88f10" y="86.50955"/>
     <use style="stroke:#000000;" x="320.840719" xlink:href="#m0bcdc88f10" y="93.350242"/>
     <use style="stroke:#000000;" x="319.677696" xlink:href="#m0bcdc88f10" y="92.683013"/>
     <use style="stroke:#000000;" x="319.648281" xlink:href="#m0bcdc88f10" y="91.799808"/>
     <use style="stroke:#000000;" x="382.960152" xlink:href="#m0bcdc88f10" y="133.883086"/>
     <use style="stroke:#000000;" x="318.847407" xlink:href="#m0bcdc88f10" y="92.354829"/>
     <use style="stroke:#000000;" x="326.245778" xlink:href="#m0bcdc88f10" y="102.674959"/>
     <use style="stroke:#000000;" x="343.285548" xlink:href="#m0bcdc88f10" y="118.357604"/>
     <use style="stroke:#000000;" x="358.76223" xlink:href="#m0bcdc88f10" y="118.581872"/>
     <use style="stroke:#000000;" x="351.706439" xlink:href="#m0bcdc88f10" y="118.499333"/>
     <use style="stroke:#000000;" x="205.243302" xlink:href="#m0bcdc88f10" y="78.986904"/>
     <use style="stroke:#000000;" x="364.14321" xlink:href="#m0bcdc88f10" y="119.364545"/>
     <use style="stroke:#000000;" x="267.953655" xlink:href="#m0bcdc88f10" y="91.427231"/>
     <use style="stroke:#000000;" x="365.897049" xlink:href="#m0bcdc88f10" y="119.837448"/>
     <use style="stroke:#000000;" x="268.172286" xlink:href="#m0bcdc88f10" y="91.55971"/>
     <use style="stroke:#000000;" x="334.688202" xlink:href="#m0bcdc88f10" y="116.990693"/>
     <use style="stroke:#000000;" x="378.242922" xlink:href="#m0bcdc88f10" y="132.722879"/>
     <use style="stroke:#000000;" x="327.279058" xlink:href="#m0bcdc88f10" y="106.560807"/>
     <use style="stroke:#000000;" x="387.249231" xlink:href="#m0bcdc88f10" y="136.753998"/>
     <use style="stroke:#000000;" x="330.563242" xlink:href="#m0bcdc88f10" y="113.796296"/>
     <use style="stroke:#000000;" x="367.491256" xlink:href="#m0bcdc88f10" y="120.174679"/>
     <use style="stroke:#000000;" x="330.365427" xlink:href="#m0bcdc88f10" y="110.328933"/>
     <use style="stroke:#000000;" x="334.291309" xlink:href="#m0bcdc88f10" y="114.579829"/>
     <use style="stroke:#000000;" x="329.561962" xlink:href="#m0bcdc88f10" y="109.530139"/>
     <use style="stroke:#000000;" x="352.556673" xlink:href="#m0bcdc88f10" y="126.776106"/>
     <use style="stroke:#000000;" x="357.329542" xlink:href="#m0bcdc88f10" y="127.934911"/>
     <use style="stroke:#000000;" x="371.115238" xlink:href="#m0bcdc88f10" y="127.431309"/>
     <use style="stroke:#000000;" x="308.795156" xlink:href="#m0bcdc88f10" y="90.778181"/>
     <use style="stroke:#000000;" x="326.628563" xlink:href="#m0bcdc88f10" y="97.726407"/>
     <use style="stroke:#000000;" x="326.754662" xlink:href="#m0bcdc88f10" y="99.283887"/>
     <use style="stroke:#000000;" x="327.433293" xlink:href="#m0bcdc88f10" y="101.369433"/>
     <use style="stroke:#000000;" x="327.157892" xlink:href="#m0bcdc88f10" y="98.327446"/>
     <use style="stroke:#000000;" x="321.784415" xlink:href="#m0bcdc88f10" y="94.416167"/>
     <use style="stroke:#000000;" x="339.803342" xlink:href="#m0bcdc88f10" y="127.414013"/>
     <use style="stroke:#000000;" x="361.202379" xlink:href="#m0bcdc88f10" y="120.254681"/>
     <use style="stroke:#000000;" x="387.249231" xlink:href="#m0bcdc88f10" y="141.402373"/>
     <use style="stroke:#000000;" x="357.479199" xlink:href="#m0bcdc88f10" y="119.776329"/>
     <use style="stroke:#000000;" x="193.387156" xlink:href="#m0bcdc88f10" y="113.032943"/>
     <use style="stroke:#000000;" x="205.314617" xlink:href="#m0bcdc88f10" y="78.650358"/>
     <use style="stroke:#000000;" x="211.412898" xlink:href="#m0bcdc88f10" y="85.961084"/>
     <use style="stroke:#000000;" x="306.913553" xlink:href="#m0bcdc88f10" y="97.241107"/>
     <use style="stroke:#000000;" x="289.829372" xlink:href="#m0bcdc88f10" y="112.784967"/>
     <use style="stroke:#000000;" x="313.411094" xlink:href="#m0bcdc88f10" y="93.084709"/>
     <use style="stroke:#000000;" x="323.052752" xlink:href="#m0bcdc88f10" y="93.379404"/>
     <use style="stroke:#000000;" x="332.421961" xlink:href="#m0bcdc88f10" y="112.844746"/>
     <use style="stroke:#000000;" x="312.891746" xlink:href="#m0bcdc88f10" y="96.137532"/>
     <use style="stroke:#000000;" x="363.24538" xlink:href="#m0bcdc88f10" y="121.699582"/>
     <use style="stroke:#000000;" x="360.667641" xlink:href="#m0bcdc88f10" y="125.638509"/>
     <use style="stroke:#000000;" x="386.798063" xlink:href="#m0bcdc88f10" y="141.472817"/>
     <use style="stroke:#000000;" x="387.249231" xlink:href="#m0bcdc88f10" y="138.021962"/>
     <use style="stroke:#000000;" x="387.249231" xlink:href="#m0bcdc88f10" y="140.777027"/>
     <use style="stroke:#000000;" x="362.693691" xlink:href="#m0bcdc88f10" y="112.404689"/>
     <use style="stroke:#000000;" x="387.249231" xlink:href="#m0bcdc88f10" y="143.998702"/>
     <use style="stroke:#000000;" x="386.120944" xlink:href="#m0bcdc88f10" y="135.109283"/>
     <use style="stroke:#000000;" x="379.000574" xlink:href="#m0bcdc88f10" y="126.831166"/>
     <use style="stroke:#000000;" x="328.777667" xlink:href="#m0bcdc88f10" y="113.808511"/>
     <use style="stroke:#000000;" x="310.400051" xlink:href="#m0bcdc88f10" y="98.502493"/>
     <use style="stroke:#000000;" x="317.348763" xlink:href="#m0bcdc88f10" y="92.886615"/>
     <use style="stroke:#000000;" x="336.07809" xlink:href="#m0bcdc88f10" y="114.424626"/>
     <use style="stroke:#000000;" x="334.653828" xlink:href="#m0bcdc88f10" y="112.021557"/>
     <use style="stroke:#000000;" x="335.113101" xlink:href="#m0bcdc88f10" y="111.356604"/>
     <use style="stroke:#000000;" x="309.35386" xlink:href="#m0bcdc88f10" y="94.757855"/>
     <use style="stroke:#000000;" x="339.796578" xlink:href="#m0bcdc88f10" y="118.645302"/>
     <use style="stroke:#000000;" x="313.699264" xlink:href="#m0bcdc88f10" y="96.335834"/>
     <use style="stroke:#000000;" x="334.67061" xlink:href="#m0bcdc88f10" y="111.355011"/>
     <use style="stroke:#000000;" x="361.278123" xlink:href="#m0bcdc88f10" y="125.324503"/>
     <use style="stroke:#000000;" x="319.857397" xlink:href="#m0bcdc88f10" y="89.607849"/>
     <use style="stroke:#000000;" x="326.533303" xlink:href="#m0bcdc88f10" y="97.139903"/>
     <use style="stroke:#000000;" x="328.125433" xlink:href="#m0bcdc88f10" y="102.614179"/>
     <use style="stroke:#000000;" x="307.334831" xlink:href="#m0bcdc88f10" y="90.658699"/>
     <use style="stroke:#000000;" x="387.249231" xlink:href="#m0bcdc88f10" y="139.350986"/>
     <use style="stroke:#000000;" x="384.91878" xlink:href="#m0bcdc88f10" y="134.138421"/>
     <use style="stroke:#000000;" x="385.499359" xlink:href="#m0bcdc88f10" y="139.315988"/>
     <use style="stroke:#000000;" x="372.689105" xlink:href="#m0bcdc88f10" y="124.199287"/>
     <use style="stroke:#000000;" x="384.677767" xlink:href="#m0bcdc88f10" y="133.548067"/>
     <use style="stroke:#000000;" x="387.249231" xlink:href="#m0bcdc88f10" y="145.702861"/>
     <use style="stroke:#000000;" x="261.656297" xlink:href="#m0bcdc88f10" y="86.864206"/>
     <use style="stroke:#000000;" x="260.681651" xlink:href="#m0bcdc88f10" y="91.002033"/>
     <use style="stroke:#000000;" x="260.482936" xlink:href="#m0bcdc88f10" y="85.077147"/>
     <use style="stroke:#000000;" x="271.171366" xlink:href="#m0bcdc88f10" y="94.597557"/>
     <use style="stroke:#000000;" x="288.705794" xlink:href="#m0bcdc88f10" y="129.882117"/>
     <use style="stroke:#000000;" x="278.263058" xlink:href="#m0bcdc88f10" y="112.017031"/>
     <use style="stroke:#000000;" x="239.191677" xlink:href="#m0bcdc88f10" y="148.841115"/>
     <use style="stroke:#000000;" x="204.169772" xlink:href="#m0bcdc88f10" y="82.39261"/>
     <use style="stroke:#000000;" x="220.95298" xlink:href="#m0bcdc88f10" y="110.414125"/>
     <use style="stroke:#000000;" x="370.32839" xlink:href="#m0bcdc88f10" y="119.701721"/>
     <use style="stroke:#000000;" x="387.249231" xlink:href="#m0bcdc88f10" y="143.817199"/>
     <use style="stroke:#000000;" x="387.249231" xlink:href="#m0bcdc88f10" y="142.990663"/>
     <use style="stroke:#000000;" x="387.249231" xlink:href="#m0bcdc88f10" y="143.885483"/>
     <use style="stroke:#000000;" x="383.690027" xlink:href="#m0bcdc88f10" y="130.46881"/>
     <use style="stroke:#000000;" x="386.74804" xlink:href="#m0bcdc88f10" y="136.256836"/>
     <use style="stroke:#000000;" x="213.093864" xlink:href="#m0bcdc88f10" y="84.841186"/>
     <use style="stroke:#000000;" x="212.102061" xlink:href="#m0bcdc88f10" y="83.104862"/>
     <use style="stroke:#000000;" x="197.337202" xlink:href="#m0bcdc88f10" y="105.860311"/>
     <use style="stroke:#000000;" x="250.459689" xlink:href="#m0bcdc88f10" y="106.543227"/>
     <use style="stroke:#000000;" x="280.821673" xlink:href="#m0bcdc88f10" y="118.374308"/>
     <use style="stroke:#000000;" x="279.142136" xlink:href="#m0bcdc88f10" y="119.822337"/>
     <use style="stroke:#000000;" x="373.018793" xlink:href="#m0bcdc88f10" y="117.418956"/>
     <use style="stroke:#000000;" x="382.972035" xlink:href="#m0bcdc88f10" y="131.211501"/>
     <use style="stroke:#000000;" x="387.249231" xlink:href="#m0bcdc88f10" y="139.466733"/>
     <use style="stroke:#000000;" x="362.113632" xlink:href="#m0bcdc88f10" y="130.83679"/>
     <use style="stroke:#000000;" x="364.396032" xlink:href="#m0bcdc88f10" y="121.81334"/>
     <use style="stroke:#000000;" x="318.170803" xlink:href="#m0bcdc88f10" y="98.894934"/>
     <use style="stroke:#000000;" x="324.580917" xlink:href="#m0bcdc88f10" y="104.104929"/>
     <use style="stroke:#000000;" x="314.866509" xlink:href="#m0bcdc88f10" y="96.548572"/>
     <use style="stroke:#000000;" x="333.429325" xlink:href="#m0bcdc88f10" y="122.632198"/>
     <use style="stroke:#000000;" x="362.796702" xlink:href="#m0bcdc88f10" y="128.160026"/>
     <use style="stroke:#000000;" x="330.482336" xlink:href="#m0bcdc88f10" y="110.074115"/>
     <use style="stroke:#000000;" x="314.34222" xlink:href="#m0bcdc88f10" y="97.174889"/>
     <use style="stroke:#000000;" x="325.18787" xlink:href="#m0bcdc88f10" y="99.311073"/>
     <use style="stroke:#000000;" x="358.822308" xlink:href="#m0bcdc88f10" y="123.658889"/>
     <use style="stroke:#000000;" x="331.138577" xlink:href="#m0bcdc88f10" y="115.039057"/>
     <use style="stroke:#000000;" x="377.819802" xlink:href="#m0bcdc88f10" y="126.770529"/>
     <use style="stroke:#000000;" x="387.249231" xlink:href="#m0bcdc88f10" y="134.618895"/>
     <use style="stroke:#000000;" x="371.503997" xlink:href="#m0bcdc88f10" y="128.207929"/>
     <use style="stroke:#000000;" x="340.85457" xlink:href="#m0bcdc88f10" y="122.21063"/>
     <use style="stroke:#000000;" x="353.504022" xlink:href="#m0bcdc88f10" y="122.887009"/>
     <use style="stroke:#000000;" x="207.338045" xlink:href="#m0bcdc88f10" y="81.322821"/>
     <use style="stroke:#000000;" x="189.085646" xlink:href="#m0bcdc88f10" y="136.559254"/>
     <use style="stroke:#000000;" x="385.63727" xlink:href="#m0bcdc88f10" y="147.078518"/>
     <use style="stroke:#000000;" x="347.976798" xlink:href="#m0bcdc88f10" y="129.249802"/>
     <use style="stroke:#000000;" x="343.060937" xlink:href="#m0bcdc88f10" y="127.168064"/>
     <use style="stroke:#000000;" x="276.922532" xlink:href="#m0bcdc88f10" y="109.205419"/>
     <use style="stroke:#000000;" x="282.625787" xlink:href="#m0bcdc88f10" y="126.067691"/>
     <use style="stroke:#000000;" x="385.684153" xlink:href="#m0bcdc88f10" y="135.922526"/>
     <use style="stroke:#000000;" x="387.249231" xlink:href="#m0bcdc88f10" y="151.496414"/>
     <use style="stroke:#000000;" x="383.942232" xlink:href="#m0bcdc88f10" y="144.17235"/>
     <use style="stroke:#000000;" x="358.693777" xlink:href="#m0bcdc88f10" y="129.379028"/>
     <use style="stroke:#000000;" x="304.296306" xlink:href="#m0bcdc88f10" y="104.375248"/>
     <use style="stroke:#000000;" x="343.993267" xlink:href="#m0bcdc88f10" y="128.106425"/>
     <use style="stroke:#000000;" x="340.750226" xlink:href="#m0bcdc88f10" y="125.452673"/>
     <use style="stroke:#000000;" x="330.596245" xlink:href="#m0bcdc88f10" y="106.280648"/>
     <use style="stroke:#000000;" x="328.763654" xlink:href="#m0bcdc88f10" y="103.879283"/>
     <use style="stroke:#000000;" x="325.542616" xlink:href="#m0bcdc88f10" y="104.638272"/>
     <use style="stroke:#000000;" x="387.249231" xlink:href="#m0bcdc88f10" y="145.241274"/>
     <use style="stroke:#000000;" x="387.249231" xlink:href="#m0bcdc88f10" y="151.267354"/>
     <use style="stroke:#000000;" x="379.90064" xlink:href="#m0bcdc88f10" y="132.938583"/>
     <use style="stroke:#000000;" x="325.699326" xlink:href="#m0bcdc88f10" y="103.683182"/>
     <use style="stroke:#000000;" x="309.858003" xlink:href="#m0bcdc88f10" y="101.332342"/>
     <use style="stroke:#000000;" x="345.297426" xlink:href="#m0bcdc88f10" y="125.134496"/>
     <use style="stroke:#000000;" x="342.395963" xlink:href="#m0bcdc88f10" y="129.249006"/>
     <use style="stroke:#000000;" x="316.472602" xlink:href="#m0bcdc88f10" y="89.00432"/>
     <use style="stroke:#000000;" x="387.249231" xlink:href="#m0bcdc88f10" y="153.242067"/>
     <use style="stroke:#000000;" x="366.181283" xlink:href="#m0bcdc88f10" y="125.829761"/>
     <use style="stroke:#000000;" x="387.249231" xlink:href="#m0bcdc88f10" y="149.040888"/>
     <use style="stroke:#000000;" x="387.249231" xlink:href="#m0bcdc88f10" y="146.232166"/>
     <use style="stroke:#000000;" x="378.29513" xlink:href="#m0bcdc88f10" y="135.280005"/>
     <use style="stroke:#000000;" x="362.713717" xlink:href="#m0bcdc88f10" y="122.13678"/>
     <use style="stroke:#000000;" x="387.249231" xlink:href="#m0bcdc88f10" y="145.431878"/>
     <use style="stroke:#000000;" x="379.548223" xlink:href="#m0bcdc88f10" y="137.531544"/>
     <use style="stroke:#000000;" x="370.036063" xlink:href="#m0bcdc88f10" y="126.171275"/>
     <use style="stroke:#000000;" x="373.337378" xlink:href="#m0bcdc88f10" y="128.723031"/>
     <use style="stroke:#000000;" x="255.892328" xlink:href="#m0bcdc88f10" y="88.585501"/>
     <use style="stroke:#000000;" x="259.664742" xlink:href="#m0bcdc88f10" y="78.782436"/>
     <use style="stroke:#000000;" x="363.47437" xlink:href="#m0bcdc88f10" y="122.332181"/>
     <use style="stroke:#000000;" x="358.995643" xlink:href="#m0bcdc88f10" y="122.000424"/>
     <use style="stroke:#000000;" x="262.877387" xlink:href="#m0bcdc88f10" y="81.078751"/>
     <use style="stroke:#000000;" x="288.308639" xlink:href="#m0bcdc88f10" y="131.818133"/>
     <use style="stroke:#000000;" x="226.320657" xlink:href="#m0bcdc88f10" y="133.891076"/>
     <use style="stroke:#000000;" x="221.426374" xlink:href="#m0bcdc88f10" y="117.954093"/>
     <use style="stroke:#000000;" x="266.2183" xlink:href="#m0bcdc88f10" y="91.557148"/>
     <use style="stroke:#000000;" x="250.102617" xlink:href="#m0bcdc88f10" y="110.516549"/>
     <use style="stroke:#000000;" x="291.634178" xlink:href="#m0bcdc88f10" y="117.475971"/>
     <use style="stroke:#000000;" x="311.648533" xlink:href="#m0bcdc88f10" y="92.192373"/>
     <use style="stroke:#000000;" x="321.002655" xlink:href="#m0bcdc88f10" y="94.973301"/>
     <use style="stroke:#000000;" x="381.461581" xlink:href="#m0bcdc88f10" y="138.110351"/>
     <use style="stroke:#000000;" x="338.872603" xlink:href="#m0bcdc88f10" y="124.059353"/>
     <use style="stroke:#000000;" x="353.803421" xlink:href="#m0bcdc88f10" y="116.935211"/>
     <use style="stroke:#000000;" x="349.626675" xlink:href="#m0bcdc88f10" y="126.338481"/>
     <use style="stroke:#000000;" x="359.697565" xlink:href="#m0bcdc88f10" y="122.329446"/>
     <use style="stroke:#000000;" x="346.713141" xlink:href="#m0bcdc88f10" y="126.625965"/>
     <use style="stroke:#000000;" x="197.016646" xlink:href="#m0bcdc88f10" y="105.348679"/>
     <use style="stroke:#000000;" x="387.249231" xlink:href="#m0bcdc88f10" y="157.318262"/>
     <use style="stroke:#000000;" x="266.92744" xlink:href="#m0bcdc88f10" y="93.614489"/>
     <use style="stroke:#000000;" x="357.521347" xlink:href="#m0bcdc88f10" y="131.02487"/>
     <use style="stroke:#000000;" x="265.656795" xlink:href="#m0bcdc88f10" y="96.944441"/>
     <use style="stroke:#000000;" x="335.23184" xlink:href="#m0bcdc88f10" y="116.351049"/>
     <use style="stroke:#000000;" x="379.743666" xlink:href="#m0bcdc88f10" y="138.689633"/>
     <use style="stroke:#000000;" x="334.477223" xlink:href="#m0bcdc88f10" y="119.542399"/>
     <use style="stroke:#000000;" x="387.249231" xlink:href="#m0bcdc88f10" y="144.724624"/>
     <use style="stroke:#000000;" x="327.776058" xlink:href="#m0bcdc88f10" y="114.000232"/>
     <use style="stroke:#000000;" x="370.498217" xlink:href="#m0bcdc88f10" y="127.640238"/>
     <use style="stroke:#000000;" x="294.655851" xlink:href="#m0bcdc88f10" y="119.778321"/>
     <use style="stroke:#000000;" x="328.662262" xlink:href="#m0bcdc88f10" y="106.606788"/>
     <use style="stroke:#000000;" x="330.226304" xlink:href="#m0bcdc88f10" y="116.335442"/>
    </g>
   </g>
   <g id="PathCollection_2">
    <defs>
     <path d="M 0 0.935414 
C 0.248075 0.935414 0.486022 0.836853 0.661438 0.661438 
C 0.836853 0.486022 0.935414 0.248075 0.935414 0 
C 0.935414 -0.248075 0.836853 -0.486022 0.661438 -0.661438 
C 0.486022 -0.836853 0.248075 -0.935414 0 -0.935414 
C -0.248075 -0.935414 -0.486022 -0.836853 -0.661438 -0.661438 
C -0.836853 -0.486022 -0.935414 -0.248075 -0.935414 0 
C -0.935414 0.248075 -0.836853 0.486022 -0.661438 0.661438 
C -0.486022 0.836853 -0.248075 0.935414 0 0.935414 
z
" id="m86c9076526" style="stroke:#0000ff;"/>
    </defs>
    <g clip-path="url(#pd4e3a28c74)">
     <use style="fill:#0000ff;stroke:#0000ff;" x="370.051648" xlink:href="#m86c9076526" y="120.346951"/>
     <use style="fill:#0000ff;stroke:#0000ff;" x="323.587404" xlink:href="#m86c9076526" y="91.031923"/>
     <use style="fill:#0000ff;stroke:#0000ff;" x="327.310797" xlink:href="#m86c9076526" y="101.675346"/>
     <use style="fill:#0000ff;stroke:#0000ff;" x="368.453838" xlink:href="#m86c9076526" y="116.583247"/>
     <use style="fill:#0000ff;stroke:#0000ff;" x="207.899626" xlink:href="#m86c9076526" y="75.969479"/>
     <use style="fill:#0000ff;stroke:#0000ff;" x="315.959253" xlink:href="#m86c9076526" y="87.194521"/>
     <use style="fill:#0000ff;stroke:#0000ff;" x="329.082714" xlink:href="#m86c9076526" y="104.20844"/>
     <use style="fill:#0000ff;stroke:#0000ff;" x="368.61809" xlink:href="#m86c9076526" y="118.705245"/>
     <use style="fill:#0000ff;stroke:#0000ff;" x="387.249231" xlink:href="#m86c9076526" y="134.023321"/>
     <use style="fill:#0000ff;stroke:#0000ff;" x="383.188293" xlink:href="#m86c9076526" y="128.993149"/>
     <use style="fill:#0000ff;stroke:#0000ff;" x="325.939404" xlink:href="#m86c9076526" y="99.445972"/>
     <use style="fill:#0000ff;stroke:#0000ff;" x="339.85129" xlink:href="#m86c9076526" y="113.207942"/>
     <use style="fill:#0000ff;stroke:#0000ff;" x="325.415004" xlink:href="#m86c9076526" y="95.712311"/>
     <use style="fill:#0000ff;stroke:#0000ff;" x="334.173819" xlink:href="#m86c9076526" y="111.272442"/>
     <use style="fill:#0000ff;stroke:#0000ff;" x="332.632772" xlink:href="#m86c9076526" y="104.49562"/>
     <use style="fill:#0000ff;stroke:#0000ff;" x="379.748355" xlink:href="#m86c9076526" y="125.087434"/>
     <use style="fill:#0000ff;stroke:#0000ff;" x="372.128556" xlink:href="#m86c9076526" y="120.886872"/>
     <use style="fill:#0000ff;stroke:#0000ff;" x="263.044992" xlink:href="#m86c9076526" y="82.501701"/>
     <use style="fill:#0000ff;stroke:#0000ff;" x="261.718707" xlink:href="#m86c9076526" y="81.446367"/>
     <use style="fill:#0000ff;stroke:#0000ff;" x="211.051018" xlink:href="#m86c9076526" y="78.930711"/>
     <use style="fill:#0000ff;stroke:#0000ff;" x="377.453277" xlink:href="#m86c9076526" y="123.966637"/>
     <use style="fill:#0000ff;stroke:#0000ff;" x="381.487814" xlink:href="#m86c9076526" y="127.141468"/>
     <use style="fill:#0000ff;stroke:#0000ff;" x="209.923912" xlink:href="#m86c9076526" y="78.148576"/>
     <use style="fill:#0000ff;stroke:#0000ff;" x="264.925395" xlink:href="#m86c9076526" y="84.833113"/>
     <use style="fill:#0000ff;stroke:#0000ff;" x="385.545948" xlink:href="#m86c9076526" y="132.544919"/>
     <use style="fill:#0000ff;stroke:#0000ff;" x="368.720874" xlink:href="#m86c9076526" y="122.817987"/>
     <use style="fill:#0000ff;stroke:#0000ff;" x="321.850671" xlink:href="#m86c9076526" y="94.792127"/>
     <use style="fill:#0000ff;stroke:#0000ff;" x="333.037709" xlink:href="#m86c9076526" y="114.077497"/>
     <use style="fill:#0000ff;stroke:#0000ff;" x="326.329676" xlink:href="#m86c9076526" y="102.008126"/>
     <use style="fill:#0000ff;stroke:#0000ff;" x="327.461688" xlink:href="#m86c9076526" y="106.184715"/>
     <use style="fill:#0000ff;stroke:#0000ff;" x="387.249231" xlink:href="#m86c9076526" y="135.599404"/>
     <use style="fill:#0000ff;stroke:#0000ff;" x="354.721801" xlink:href="#m86c9076526" y="118.028813"/>
     <use style="fill:#0000ff;stroke:#0000ff;" x="368.477628" xlink:href="#m86c9076526" y="119.181851"/>
     <use style="fill:#0000ff;stroke:#0000ff;" x="205.652051" xlink:href="#m86c9076526" y="77.746801"/>
     <use style="fill:#0000ff;stroke:#0000ff;" x="363.374718" xlink:href="#m86c9076526" y="118.303502"/>
     <use style="fill:#0000ff;stroke:#0000ff;" x="336.404093" xlink:href="#m86c9076526" y="114.420859"/>
     <use style="fill:#0000ff;stroke:#0000ff;" x="268.179095" xlink:href="#m86c9076526" y="89.927649"/>
     <use style="fill:#0000ff;stroke:#0000ff;" x="381.784324" xlink:href="#m86c9076526" y="131.857822"/>
     <use style="fill:#0000ff;stroke:#0000ff;" x="379.51256" xlink:href="#m86c9076526" y="129.781028"/>
     <use style="fill:#0000ff;stroke:#0000ff;" x="336.481004" xlink:href="#m86c9076526" y="116.10832"/>
     <use style="fill:#0000ff;stroke:#0000ff;" x="332.115363" xlink:href="#m86c9076526" y="112.850132"/>
     <use style="fill:#0000ff;stroke:#0000ff;" x="332.046102" xlink:href="#m86c9076526" y="111.220439"/>
     <use style="fill:#0000ff;stroke:#0000ff;" x="383.119243" xlink:href="#m86c9076526" y="133.806742"/>
     <use style="fill:#0000ff;stroke:#0000ff;" x="380.276782" xlink:href="#m86c9076526" y="131.709772"/>
     <use style="fill:#0000ff;stroke:#0000ff;" x="330.498223" xlink:href="#m86c9076526" y="107.621223"/>
     <use style="fill:#0000ff;stroke:#0000ff;" x="325.191021" xlink:href="#m86c9076526" y="96.603492"/>
     <use style="fill:#0000ff;stroke:#0000ff;" x="324.667369" xlink:href="#m86c9076526" y="96.507666"/>
     <use style="fill:#0000ff;stroke:#0000ff;" x="372.158414" xlink:href="#m86c9076526" y="125.270138"/>
     <use style="fill:#0000ff;stroke:#0000ff;" x="378.2081" xlink:href="#m86c9076526" y="128.388847"/>
     <use style="fill:#0000ff;stroke:#0000ff;" x="375.285308" xlink:href="#m86c9076526" y="126.078582"/>
     <use style="fill:#0000ff;stroke:#0000ff;" x="379.126466" xlink:href="#m86c9076526" y="128.390588"/>
     <use style="fill:#0000ff;stroke:#0000ff;" x="371.364105" xlink:href="#m86c9076526" y="123.152891"/>
     <use style="fill:#0000ff;stroke:#0000ff;" x="262.15969" xlink:href="#m86c9076526" y="84.296534"/>
     <use style="fill:#0000ff;stroke:#0000ff;" x="371.748932" xlink:href="#m86c9076526" y="123.842798"/>
     <use style="fill:#0000ff;stroke:#0000ff;" x="258.683286" xlink:href="#m86c9076526" y="83.079715"/>
     <use style="fill:#0000ff;stroke:#0000ff;" x="208.340422" xlink:href="#m86c9076526" y="81.693737"/>
     <use style="fill:#0000ff;stroke:#0000ff;" x="263.436353" xlink:href="#m86c9076526" y="86.50955"/>
     <use style="fill:#0000ff;stroke:#0000ff;" x="320.840719" xlink:href="#m86c9076526" y="93.350242"/>
     <use style="fill:#0000ff;stroke:#0000ff;" x="319.677696" xlink:href="#m86c9076526" y="92.683013"/>
     <use style="fill:#0000ff;stroke:#0000ff;" x="319.648281" xlink:href="#m86c9076526" y="91.799808"/>
     <use style="fill:#0000ff;stroke:#0000ff;" x="382.960152" xlink:href="#m86c9076526" y="133.883086"/>
     <use style="fill:#0000ff;stroke:#0000ff;" x="318.847407" xlink:href="#m86c9076526" y="92.354829"/>
     <use style="fill:#0000ff;stroke:#0000ff;" x="326.245778" xlink:href="#m86c9076526" y="102.674959"/>
     <use style="fill:#0000ff;stroke:#0000ff;" x="343.285548" xlink:href="#m86c9076526" y="118.357604"/>
     <use style="fill:#0000ff;stroke:#0000ff;" x="358.76223" xlink:href="#m86c9076526" y="118.581872"/>
     <use style="fill:#0000ff;stroke:#0000ff;" x="351.706439" xlink:href="#m86c9076526" y="118.499333"/>
     <use style="fill:#0000ff;stroke:#0000ff;" x="205.243302" xlink:href="#m86c9076526" y="78.986904"/>
     <use style="fill:#0000ff;stroke:#0000ff;" x="364.14321" xlink:href="#m86c9076526" y="119.364545"/>
     <use style="fill:#0000ff;stroke:#0000ff;" x="267.953655" xlink:href="#m86c9076526" y="91.427231"/>
     <use style="fill:#0000ff;stroke:#0000ff;" x="365.897049" xlink:href="#m86c9076526" y="119.837448"/>
     <use style="fill:#0000ff;stroke:#0000ff;" x="268.172286" xlink:href="#m86c9076526" y="91.55971"/>
     <use style="fill:#0000ff;stroke:#0000ff;" x="334.688202" xlink:href="#m86c9076526" y="116.990693"/>
     <use style="fill:#0000ff;stroke:#0000ff;" x="378.242922" xlink:href="#m86c9076526" y="132.722879"/>
     <use style="fill:#0000ff;stroke:#0000ff;" x="327.279058" xlink:href="#m86c9076526" y="106.560807"/>
     <use style="fill:#0000ff;stroke:#0000ff;" x="387.249231" xlink:href="#m86c9076526" y="136.753998"/>
     <use style="fill:#0000ff;stroke:#0000ff;" x="330.563242" xlink:href="#m86c9076526" y="113.796296"/>
     <use style="fill:#0000ff;stroke:#0000ff;" x="367.491256" xlink:href="#m86c9076526" y="120.174679"/>
     <use style="fill:#0000ff;stroke:#0000ff;" x="330.365427" xlink:href="#m86c9076526" y="110.328933"/>
     <use style="fill:#0000ff;stroke:#0000ff;" x="334.291309" xlink:href="#m86c9076526" y="114.579829"/>
     <use style="fill:#0000ff;stroke:#0000ff;" x="329.561962" xlink:href="#m86c9076526" y="109.530139"/>
    </g>
   </g>
   <g id="matplotlib.axis_1">
    <g id="xtick_1">
     <g id="line2d_1">
      <defs>
       <path d="M 0 0 
L 0 3.5 
" id="m3e890d7b0c" style="stroke:#000000;stroke-width:0.8;"/>
      </defs>
      <g>
       <use style="stroke:#000000;stroke-width:0.8;" x="57.6" xlink:href="#m3e890d7b0c" y="307.584"/>
      </g>
     </g>
     <g id="text_1">
      <!-- −1.2 -->
      <defs>
       <path d="M 10.59375 35.5 
L 73.1875 35.5 
L 73.1875 27.203125 
L 10.59375 27.203125 
z
" id="DejaVuSans-2212"/>
       <path d="M 12.40625 8.296875 
L 28.515625 8.296875 
L 28.515625 63.921875 
L 10.984375 60.40625 
L 10.984375 69.390625 
L 28.421875 72.90625 
L 38.28125 72.90625 
L 38.28125 8.296875 
L 54.390625 8.296875 
L 54.390625 0 
L 12.40625 0 
z
" id="DejaVuSans-31"/>
       <path d="M 10.6875 12.40625 
L 21 12.40625 
L 21 0 
L 10.6875 0 
z
" id="DejaVuSans-2e"/>
       <path d="M 19.1875 8.296875 
L 53.609375 8.296875 
L 53.609375 0 
L 7.328125 0 
L 7.328125 8.296875 
Q 12.9375 14.109375 22.625 23.890625 
Q 32.328125 33.6875 34.8125 36.53125 
Q 39.546875 41.84375 41.421875 45.53125 
Q 43.3125 49.21875 43.3125 52.78125 
Q 43.3125 58.59375 39.234375 62.25 
Q 35.15625 65.921875 28.609375 65.921875 
Q 23.96875 65.921875 18.8125 64.3125 
Q 13.671875 62.703125 7.8125 59.421875 
L 7.8125 69.390625 
Q 13.765625 71.78125 18.9375 73 
Q 24.125 74.21875 28.421875 74.21875 
Q 39.75 74.21875 46.484375 68.546875 
Q 53.21875 62.890625 53.21875 53.421875 
Q 53.21875 48.921875 51.53125 44.890625 
Q 49.859375 40.875 45.40625 35.40625 
Q 44.1875 33.984375 37.640625 27.21875 
Q 31.109375 20.453125 19.1875 8.296875 
z
" id="DejaVuSans-32"/>
      </defs>
      <g transform="translate(45.458594 322.182437)scale(0.1 -0.1)">
       <use xlink:href="#DejaVuSans-2212"/>
       <use x="83.789062" xlink:href="#DejaVuSans-31"/>
       <use x="147.412109" xlink:href="#DejaVuSans-2e"/>
       <use x="179.199219" xlink:href="#DejaVuSans-32"/>
      </g>
     </g>
    </g>
    <g id="xtick_2">
     <g id="line2d_2">
      <g>
       <use style="stroke:#000000;stroke-width:0.8;" x="112.541538" xlink:href="#m3e890d7b0c" y="307.584"/>
      </g>
     </g>
     <g id="text_2">
      <!-- −1.0 -->
      <defs>
       <path d="M 31.78125 66.40625 
Q 24.171875 66.40625 20.328125 58.90625 
Q 16.5 51.421875 16.5 36.375 
Q 16.5 21.390625 20.328125 13.890625 
Q 24.171875 6.390625 31.78125 6.390625 
Q 39.453125 6.390625 43.28125 13.890625 
Q 47.125 21.390625 47.125 36.375 
Q 47.125 51.421875 43.28125 58.90625 
Q 39.453125 66.40625 31.78125 66.40625 
z
M 31.78125 74.21875 
Q 44.046875 74.21875 50.515625 64.515625 
Q 56.984375 54.828125 56.984375 36.375 
Q 56.984375 17.96875 50.515625 8.265625 
Q 44.046875 -1.421875 31.78125 -1.421875 
Q 19.53125 -1.421875 13.0625 8.265625 
Q 6.59375 17.96875 6.59375 36.375 
Q 6.59375 54.828125 13.0625 64.515625 
Q 19.53125 74.21875 31.78125 74.21875 
z
" id="DejaVuSans-30"/>
      </defs>
      <g transform="translate(100.400132 322.182437)scale(0.1 -0.1)">
       <use xlink:href="#DejaVuSans-2212"/>
       <use x="83.789062" xlink:href="#DejaVuSans-31"/>
       <use x="147.412109" xlink:href="#DejaVuSans-2e"/>
       <use x="179.199219" xlink:href="#DejaVuSans-30"/>
      </g>
     </g>
    </g>
    <g id="xtick_3">
     <g id="line2d_3">
      <g>
       <use style="stroke:#000000;stroke-width:0.8;" x="167.483077" xlink:href="#m3e890d7b0c" y="307.584"/>
      </g>
     </g>
     <g id="text_3">
      <!-- −0.8 -->
      <defs>
       <path d="M 31.78125 34.625 
Q 24.75 34.625 20.71875 30.859375 
Q 16.703125 27.09375 16.703125 20.515625 
Q 16.703125 13.921875 20.71875 10.15625 
Q 24.75 6.390625 31.78125 6.390625 
Q 38.8125 6.390625 42.859375 10.171875 
Q 46.921875 13.96875 46.921875 20.515625 
Q 46.921875 27.09375 42.890625 30.859375 
Q 38.875 34.625 31.78125 34.625 
z
M 21.921875 38.8125 
Q 15.578125 40.375 12.03125 44.71875 
Q 8.5 49.078125 8.5 55.328125 
Q 8.5 64.0625 14.71875 69.140625 
Q 20.953125 74.21875 31.78125 74.21875 
Q 42.671875 74.21875 48.875 69.140625 
Q 55.078125 64.0625 55.078125 55.328125 
Q 55.078125 49.078125 51.53125 44.71875 
Q 48 40.375 41.703125 38.8125 
Q 48.828125 37.15625 52.796875 32.3125 
Q 56.78125 27.484375 56.78125 20.515625 
Q 56.78125 9.90625 50.3125 4.234375 
Q 43.84375 -1.421875 31.78125 -1.421875 
Q 19.734375 -1.421875 13.25 4.234375 
Q 6.78125 9.90625 6.78125 20.515625 
Q 6.78125 27.484375 10.78125 32.3125 
Q 14.796875 37.15625 21.921875 38.8125 
z
M 18.3125 54.390625 
Q 18.3125 48.734375 21.84375 45.5625 
Q 25.390625 42.390625 31.78125 42.390625 
Q 38.140625 42.390625 41.71875 45.5625 
Q 45.3125 48.734375 45.3125 54.390625 
Q 45.3125 60.0625 41.71875 63.234375 
Q 38.140625 66.40625 31.78125 66.40625 
Q 25.390625 66.40625 21.84375 63.234375 
Q 18.3125 60.0625 18.3125 54.390625 
z
" id="DejaVuSans-38"/>
      </defs>
      <g transform="translate(155.341671 322.182437)scale(0.1 -0.1)">
       <use xlink:href="#DejaVuSans-2212"/>
       <use x="83.789062" xlink:href="#DejaVuSans-30"/>
       <use x="147.412109" xlink:href="#DejaVuSans-2e"/>
       <use x="179.199219" xlink:href="#DejaVuSans-38"/>
      </g>
     </g>
    </g>
    <g id="xtick_4">
     <g id="line2d_4">
      <g>
       <use style="stroke:#000000;stroke-width:0.8;" x="222.424615" xlink:href="#m3e890d7b0c" y="307.584"/>
      </g>
     </g>
     <g id="text_4">
      <!-- −0.6 -->
      <defs>
       <path d="M 33.015625 40.375 
Q 26.375 40.375 22.484375 35.828125 
Q 18.609375 31.296875 18.609375 23.390625 
Q 18.609375 15.53125 22.484375 10.953125 
Q 26.375 6.390625 33.015625 6.390625 
Q 39.65625 6.390625 43.53125 10.953125 
Q 47.40625 15.53125 47.40625 23.390625 
Q 47.40625 31.296875 43.53125 35.828125 
Q 39.65625 40.375 33.015625 40.375 
z
M 52.59375 71.296875 
L 52.59375 62.3125 
Q 48.875 64.0625 45.09375 64.984375 
Q 41.3125 65.921875 37.59375 65.921875 
Q 27.828125 65.921875 22.671875 59.328125 
Q 17.53125 52.734375 16.796875 39.40625 
Q 19.671875 43.65625 24.015625 45.921875 
Q 28.375 48.1875 33.59375 48.1875 
Q 44.578125 48.1875 50.953125 41.515625 
Q 57.328125 34.859375 57.328125 23.390625 
Q 57.328125 12.15625 50.6875 5.359375 
Q 44.046875 -1.421875 33.015625 -1.421875 
Q 20.359375 -1.421875 13.671875 8.265625 
Q 6.984375 17.96875 6.984375 36.375 
Q 6.984375 53.65625 15.1875 63.9375 
Q 23.390625 74.21875 37.203125 74.21875 
Q 40.921875 74.21875 44.703125 73.484375 
Q 48.484375 72.75 52.59375 71.296875 
z
" id="DejaVuSans-36"/>
      </defs>
      <g transform="translate(210.283209 322.182437)scale(0.1 -0.1)">
       <use xlink:href="#DejaVuSans-2212"/>
       <use x="83.789062" xlink:href="#DejaVuSans-30"/>
       <use x="147.412109" xlink:href="#DejaVuSans-2e"/>
       <use x="179.199219" xlink:href="#DejaVuSans-36"/>
      </g>
     </g>
    </g>
    <g id="xtick_5">
     <g id="line2d_5">
      <g>
       <use style="stroke:#000000;stroke-width:0.8;" x="277.366154" xlink:href="#m3e890d7b0c" y="307.584"/>
      </g>
     </g>
     <g id="text_5">
      <!-- −0.4 -->
      <defs>
       <path d="M 37.796875 64.3125 
L 12.890625 25.390625 
L 37.796875 25.390625 
z
M 35.203125 72.90625 
L 47.609375 72.90625 
L 47.609375 25.390625 
L 58.015625 25.390625 
L 58.015625 17.1875 
L 47.609375 17.1875 
L 47.609375 0 
L 37.796875 0 
L 37.796875 17.1875 
L 4.890625 17.1875 
L 4.890625 26.703125 
z
" id="DejaVuSans-34"/>
      </defs>
      <g transform="translate(265.224748 322.182437)scale(0.1 -0.1)">
       <use xlink:href="#DejaVuSans-2212"/>
       <use x="83.789062" xlink:href="#DejaVuSans-30"/>
       <use x="147.412109" xlink:href="#DejaVuSans-2e"/>
       <use x="179.199219" xlink:href="#DejaVuSans-34"/>
      </g>
     </g>
    </g>
    <g id="xtick_6">
     <g id="line2d_6">
      <g>
       <use style="stroke:#000000;stroke-width:0.8;" x="332.307692" xlink:href="#m3e890d7b0c" y="307.584"/>
      </g>
     </g>
     <g id="text_6">
      <!-- −0.2 -->
      <g transform="translate(320.166286 322.182437)scale(0.1 -0.1)">
       <use xlink:href="#DejaVuSans-2212"/>
       <use x="83.789062" xlink:href="#DejaVuSans-30"/>
       <use x="147.412109" xlink:href="#DejaVuSans-2e"/>
       <use x="179.199219" xlink:href="#DejaVuSans-32"/>
      </g>
     </g>
    </g>
    <g id="xtick_7">
     <g id="line2d_7">
      <g>
       <use style="stroke:#000000;stroke-width:0.8;" x="387.249231" xlink:href="#m3e890d7b0c" y="307.584"/>
      </g>
     </g>
     <g id="text_7">
      <!-- 0.0 -->
      <g transform="translate(379.297668 322.182437)scale(0.1 -0.1)">
       <use xlink:href="#DejaVuSans-30"/>
       <use x="63.623047" xlink:href="#DejaVuSans-2e"/>
       <use x="95.410156" xlink:href="#DejaVuSans-30"/>
      </g>
     </g>
    </g>
   </g>
   <g id="matplotlib.axis_2">
    <g id="ytick_1">
     <g id="line2d_8">
      <defs>
       <path d="M 0 0 
L -3.5 0 
" id="m7cf3a2c3a3" style="stroke:#000000;stroke-width:0.8;"/>
      </defs>
      <g>
       <use style="stroke:#000000;stroke-width:0.8;" x="57.6" xlink:href="#m7cf3a2c3a3" y="307.584"/>
      </g>
     </g>
     <g id="text_8">
      <!-- −5 -->
      <defs>
       <path d="M 10.796875 72.90625 
L 49.515625 72.90625 
L 49.515625 64.59375 
L 19.828125 64.59375 
L 19.828125 46.734375 
Q 21.96875 47.46875 24.109375 47.828125 
Q 26.265625 48.1875 28.421875 48.1875 
Q 40.625 48.1875 47.75 41.5 
Q 54.890625 34.8125 54.890625 23.390625 
Q 54.890625 11.625 47.5625 5.09375 
Q 40.234375 -1.421875 26.90625 -1.421875 
Q 22.3125 -1.421875 17.546875 -0.640625 
Q 12.796875 0.140625 7.71875 1.703125 
L 7.71875 11.625 
Q 12.109375 9.234375 16.796875 8.0625 
Q 21.484375 6.890625 26.703125 6.890625 
Q 35.15625 6.890625 40.078125 11.328125 
Q 45.015625 15.765625 45.015625 23.390625 
Q 45.015625 31 40.078125 35.4375 
Q 35.15625 39.890625 26.703125 39.890625 
Q 22.75 39.890625 18.8125 39.015625 
Q 14.890625 38.140625 10.796875 36.28125 
z
" id="DejaVuSans-35"/>
      </defs>
      <g transform="translate(35.857813 311.383219)scale(0.1 -0.1)">
       <use xlink:href="#DejaVuSans-2212"/>
       <use x="83.789062" xlink:href="#DejaVuSans-35"/>
      </g>
     </g>
    </g>
    <g id="ytick_2">
     <g id="line2d_9">
      <g>
       <use style="stroke:#000000;stroke-width:0.8;" x="57.6" xlink:href="#m7cf3a2c3a3" y="254.3616"/>
      </g>
     </g>
     <g id="text_9">
      <!-- −4 -->
      <g transform="translate(35.857813 258.160819)scale(0.1 -0.1)">
       <use xlink:href="#DejaVuSans-2212"/>
       <use x="83.789062" xlink:href="#DejaVuSans-34"/>
      </g>
     </g>
    </g>
    <g id="ytick_3">
     <g id="line2d_10">
      <g>
       <use style="stroke:#000000;stroke-width:0.8;" x="57.6" xlink:href="#m7cf3a2c3a3" y="201.1392"/>
      </g>
     </g>
     <g id="text_10">
      <!-- −3 -->
      <defs>
       <path d="M 40.578125 39.3125 
Q 47.65625 37.796875 51.625 33 
Q 55.609375 28.21875 55.609375 21.1875 
Q 55.609375 10.40625 48.1875 4.484375 
Q 40.765625 -1.421875 27.09375 -1.421875 
Q 22.515625 -1.421875 17.65625 -0.515625 
Q 12.796875 0.390625 7.625 2.203125 
L 7.625 11.71875 
Q 11.71875 9.328125 16.59375 8.109375 
Q 21.484375 6.890625 26.8125 6.890625 
Q 36.078125 6.890625 40.9375 10.546875 
Q 45.796875 14.203125 45.796875 21.1875 
Q 45.796875 27.640625 41.28125 31.265625 
Q 36.765625 34.90625 28.71875 34.90625 
L 20.21875 34.90625 
L 20.21875 43.015625 
L 29.109375 43.015625 
Q 36.375 43.015625 40.234375 45.921875 
Q 44.09375 48.828125 44.09375 54.296875 
Q 44.09375 59.90625 40.109375 62.90625 
Q 36.140625 65.921875 28.71875 65.921875 
Q 24.65625 65.921875 20.015625 65.03125 
Q 15.375 64.15625 9.8125 62.3125 
L 9.8125 71.09375 
Q 15.4375 72.65625 20.34375 73.4375 
Q 25.25 74.21875 29.59375 74.21875 
Q 40.828125 74.21875 47.359375 69.109375 
Q 53.90625 64.015625 53.90625 55.328125 
Q 53.90625 49.265625 50.4375 45.09375 
Q 46.96875 40.921875 40.578125 39.3125 
z
" id="DejaVuSans-33"/>
      </defs>
      <g transform="translate(35.857813 204.938419)scale(0.1 -0.1)">
       <use xlink:href="#DejaVuSans-2212"/>
       <use x="83.789062" xlink:href="#DejaVuSans-33"/>
      </g>
     </g>
    </g>
    <g id="ytick_4">
     <g id="line2d_11">
      <g>
       <use style="stroke:#000000;stroke-width:0.8;" x="57.6" xlink:href="#m7cf3a2c3a3" y="147.9168"/>
      </g>
     </g>
     <g id="text_11">
      <!-- −2 -->
      <g transform="translate(35.857813 151.716019)scale(0.1 -0.1)">
       <use xlink:href="#DejaVuSans-2212"/>
       <use x="83.789062" xlink:href="#DejaVuSans-32"/>
      </g>
     </g>
    </g>
    <g id="ytick_5">
     <g id="line2d_12">
      <g>
       <use style="stroke:#000000;stroke-width:0.8;" x="57.6" xlink:href="#m7cf3a2c3a3" y="94.6944"/>
      </g>
     </g>
     <g id="text_12">
      <!-- −1 -->
      <g transform="translate(35.857813 98.493619)scale(0.1 -0.1)">
       <use xlink:href="#DejaVuSans-2212"/>
       <use x="83.789062" xlink:href="#DejaVuSans-31"/>
      </g>
     </g>
    </g>
    <g id="ytick_6">
     <g id="line2d_13">
      <g>
       <use style="stroke:#000000;stroke-width:0.8;" x="57.6" xlink:href="#m7cf3a2c3a3" y="41.472"/>
      </g>
     </g>
     <g id="text_13">
      <!-- 0 -->
      <g transform="translate(44.2375 45.271219)scale(0.1 -0.1)">
       <use xlink:href="#DejaVuSans-30"/>
      </g>
     </g>
    </g>
   </g>
   <g id="patch_3">
    <path d="M 57.6 307.584 
L 57.6 41.472 
" style="fill:none;stroke:#000000;stroke-linecap:square;stroke-linejoin:miter;stroke-width:0.8;"/>
   </g>
   <g id="patch_4">
    <path d="M 414.72 307.584 
L 414.72 41.472 
" style="fill:none;stroke:#000000;stroke-linecap:square;stroke-linejoin:miter;stroke-width:0.8;"/>
   </g>
   <g id="patch_5">
    <path d="M 57.6 307.584 
L 414.72 307.584 
" style="fill:none;stroke:#000000;stroke-linecap:square;stroke-linejoin:miter;stroke-width:0.8;"/>
   </g>
   <g id="patch_6">
    <path d="M 57.6 41.472 
L 414.72 41.472 
" style="fill:none;stroke:#000000;stroke-linecap:square;stroke-linejoin:miter;stroke-width:0.8;"/>
   </g>
  </g>
 </g>
 <defs>
  <clipPath id="pd4e3a28c74">
   <rect height="266.112" width="357.12" x="57.6" y="41.472"/>
  </clipPath>
 </defs>
</svg>
