<?xml version="1.0" encoding="utf-8" standalone="no"?>
<!DOCTYPE svg PUBLIC "-//W3C//DTD SVG 1.1//EN"
  "http://www.w3.org/Graphics/SVG/1.1/DTD/svg11.dtd">
<!-- Created with matplotlib (http://matplotlib.org/) -->
<svg height="345.6pt" version="1.1" viewBox="0 0 460.8 345.6" width="460.8pt" xmlns="http://www.w3.org/2000/svg" xmlns:xlink="http://www.w3.org/1999/xlink">
 <defs>
  <style type="text/css">
*{stroke-linecap:butt;stroke-linejoin:round;}
  </style>
 </defs>
 <g id="figure_1">
  <g id="patch_1">
   <path d="M 0 345.6 
L 460.8 345.6 
L 460.8 0 
L 0 0 
z
" style="fill:#ffffff;"/>
  </g>
  <g id="axes_1">
   <g id="patch_2">
    <path d="M 57.6 307.584 
L 414.72 307.584 
L 414.72 41.472 
L 57.6 41.472 
z
" style="fill:#ffffff;"/>
   </g>
   <g id="PathCollection_1">
    <defs>
     <path d="M 0 0.612372 
C 0.162403 0.612372 0.318176 0.547849 0.433013 0.433013 
C 0.547849 0.318176 0.612372 0.162403 0.612372 0 
C 0.612372 -0.162403 0.547849 -0.318176 0.433013 -0.433013 
C 0.318176 -0.547849 0.162403 -0.612372 0 -0.612372 
C -0.162403 -0.612372 -0.318176 -0.547849 -0.433013 -0.433013 
C -0.547849 -0.318176 -0.612372 -0.162403 -0.612372 0 
C -0.612372 0.162403 -0.547849 0.318176 -0.433013 0.433013 
C -0.318176 0.547849 -0.162403 0.612372 0 0.612372 
z
" id="mf85035372b" style="stroke:#000000;"/>
    </defs>
    <g clip-path="url(#pe4514ac4a6)">
     <use style="stroke:#000000;" x="376.536066" xlink:href="#mf85035372b" y="119.397134"/>
     <use style="stroke:#000000;" x="387.249231" xlink:href="#mf85035372b" y="132.10678"/>
     <use style="stroke:#000000;" x="375.010888" xlink:href="#mf85035372b" y="117.680408"/>
     <use style="stroke:#000000;" x="373.176585" xlink:href="#mf85035372b" y="111.177098"/>
     <use style="stroke:#000000;" x="332.556831" xlink:href="#mf85035372b" y="104.358849"/>
     <use style="stroke:#000000;" x="327.18806" xlink:href="#mf85035372b" y="96.766145"/>
     <use style="stroke:#000000;" x="267.19702" xlink:href="#mf85035372b" y="74.768894"/>
     <use style="stroke:#000000;" x="330.311724" xlink:href="#mf85035372b" y="100.750069"/>
     <use style="stroke:#000000;" x="385.749031" xlink:href="#mf85035372b" y="122.102041"/>
     <use style="stroke:#000000;" x="369.130836" xlink:href="#mf85035372b" y="104.89968"/>
     <use style="stroke:#000000;" x="370.434919" xlink:href="#mf85035372b" y="108.692151"/>
     <use style="stroke:#000000;" x="325.391631" xlink:href="#mf85035372b" y="91.88783"/>
     <use style="stroke:#000000;" x="319.211008" xlink:href="#mf85035372b" y="86.969732"/>
     <use style="stroke:#000000;" x="321.013196" xlink:href="#mf85035372b" y="90.366271"/>
     <use style="stroke:#000000;" x="318.264666" xlink:href="#mf85035372b" y="86.63192"/>
     <use style="stroke:#000000;" x="365.318413" xlink:href="#mf85035372b" y="104.495897"/>
     <use style="stroke:#000000;" x="374.874381" xlink:href="#mf85035372b" y="115.113817"/>
     <use style="stroke:#000000;" x="320.756555" xlink:href="#mf85035372b" y="90.166703"/>
     <use style="stroke:#000000;" x="317.342226" xlink:href="#mf85035372b" y="85.022327"/>
     <use style="stroke:#000000;" x="325.49668" xlink:href="#mf85035372b" y="94.521307"/>
     <use style="stroke:#000000;" x="328.34081" xlink:href="#mf85035372b" y="97.625786"/>
     <use style="stroke:#000000;" x="323.587404" xlink:href="#mf85035372b" y="91.031923"/>
     <use style="stroke:#000000;" x="319.526013" xlink:href="#mf85035372b" y="89.465508"/>
     <use style="stroke:#000000;" x="332.632772" xlink:href="#mf85035372b" y="104.49562"/>
     <use style="stroke:#000000;" x="385.936488" xlink:href="#mf85035372b" y="128.600304"/>
     <use style="stroke:#000000;" x="314.121366" xlink:href="#mf85035372b" y="84.849964"/>
     <use style="stroke:#000000;" x="268.624409" xlink:href="#mf85035372b" y="80.198482"/>
     <use style="stroke:#000000;" x="319.857397" xlink:href="#mf85035372b" y="89.607849"/>
     <use style="stroke:#000000;" x="319.398129" xlink:href="#mf85035372b" y="87.803905"/>
     <use style="stroke:#000000;" x="375.705639" xlink:href="#mf85035372b" y="120.644155"/>
     <use style="stroke:#000000;" x="387.249231" xlink:href="#mf85035372b" y="132.409606"/>
     <use style="stroke:#000000;" x="365.48029" xlink:href="#mf85035372b" y="111.487744"/>
     <use style="stroke:#000000;" x="376.045434" xlink:href="#mf85035372b" y="121.629238"/>
     <use style="stroke:#000000;" x="327.157892" xlink:href="#mf85035372b" y="98.327446"/>
     <use style="stroke:#000000;" x="326.628563" xlink:href="#mf85035372b" y="97.726407"/>
     <use style="stroke:#000000;" x="373.018793" xlink:href="#mf85035372b" y="117.418956"/>
     <use style="stroke:#000000;" x="326.533303" xlink:href="#mf85035372b" y="97.139903"/>
     <use style="stroke:#000000;" x="373.004705" xlink:href="#mf85035372b" y="114.283638"/>
     <use style="stroke:#000000;" x="330.12777" xlink:href="#mf85035372b" y="104.60823"/>
     <use style="stroke:#000000;" x="330.572691" xlink:href="#mf85035372b" y="105.631027"/>
     <use style="stroke:#000000;" x="330.596245" xlink:href="#mf85035372b" y="106.280648"/>
     <use style="stroke:#000000;" x="331.890999" xlink:href="#mf85035372b" y="106.412121"/>
     <use style="stroke:#000000;" x="266.995814" xlink:href="#mf85035372b" y="82.179842"/>
     <use style="stroke:#000000;" x="211.22652" xlink:href="#mf85035372b" y="78.154553"/>
     <use style="stroke:#000000;" x="262.877387" xlink:href="#mf85035372b" y="81.078751"/>
     <use style="stroke:#000000;" x="263.112106" xlink:href="#mf85035372b" y="81.536147"/>
     <use style="stroke:#000000;" x="313.454424" xlink:href="#mf85035372b" y="86.869605"/>
     <use style="stroke:#000000;" x="259.664742" xlink:href="#mf85035372b" y="78.782436"/>
     <use style="stroke:#000000;" x="207.899626" xlink:href="#mf85035372b" y="75.969479"/>
     <use style="stroke:#000000;" x="209.923912" xlink:href="#mf85035372b" y="78.148576"/>
     <use style="stroke:#000000;" x="385.852421" xlink:href="#mf85035372b" y="130.340701"/>
     <use style="stroke:#000000;" x="327.285097" xlink:href="#mf85035372b" y="100.893064"/>
     <use style="stroke:#000000;" x="328.466543" xlink:href="#mf85035372b" y="100.91003"/>
     <use style="stroke:#000000;" x="270.991743" xlink:href="#mf85035372b" y="85.329571"/>
     <use style="stroke:#000000;" x="322.102216" xlink:href="#mf85035372b" y="91.445713"/>
     <use style="stroke:#000000;" x="329.527803" xlink:href="#mf85035372b" y="101.708812"/>
     <use style="stroke:#000000;" x="383.553614" xlink:href="#mf85035372b" y="123.321971"/>
     <use style="stroke:#000000;" x="385.100447" xlink:href="#mf85035372b" y="129.778032"/>
     <use style="stroke:#000000;" x="377.03918" xlink:href="#mf85035372b" y="123.065301"/>
     <use style="stroke:#000000;" x="322.105695" xlink:href="#mf85035372b" y="91.805246"/>
     <use style="stroke:#000000;" x="357.499012" xlink:href="#mf85035372b" y="106.873118"/>
     <use style="stroke:#000000;" x="356.673345" xlink:href="#mf85035372b" y="106.486343"/>
     <use style="stroke:#000000;" x="384.830042" xlink:href="#mf85035372b" y="126.866559"/>
     <use style="stroke:#000000;" x="324.919823" xlink:href="#mf85035372b" y="94.818726"/>
     <use style="stroke:#000000;" x="324.608878" xlink:href="#mf85035372b" y="92.755906"/>
     <use style="stroke:#000000;" x="325.480659" xlink:href="#mf85035372b" y="96.420653"/>
     <use style="stroke:#000000;" x="325.475402" xlink:href="#mf85035372b" y="94.907387"/>
     <use style="stroke:#000000;" x="309.159853" xlink:href="#mf85035372b" y="86.465105"/>
     <use style="stroke:#000000;" x="320.689117" xlink:href="#mf85035372b" y="90.169246"/>
     <use style="stroke:#000000;" x="315.959253" xlink:href="#mf85035372b" y="87.194521"/>
     <use style="stroke:#000000;" x="312.055822" xlink:href="#mf85035372b" y="86.608247"/>
     <use style="stroke:#000000;" x="318.873264" xlink:href="#mf85035372b" y="88.52835"/>
     <use style="stroke:#000000;" x="317.67488" xlink:href="#mf85035372b" y="87.661858"/>
     <use style="stroke:#000000;" x="374.660909" xlink:href="#mf85035372b" y="121.676687"/>
     <use style="stroke:#000000;" x="387.249231" xlink:href="#mf85035372b" y="134.023321"/>
     <use style="stroke:#000000;" x="211.051018" xlink:href="#mf85035372b" y="78.930711"/>
     <use style="stroke:#000000;" x="331.647302" xlink:href="#mf85035372b" y="107.098982"/>
     <use style="stroke:#000000;" x="264.925395" xlink:href="#mf85035372b" y="84.833113"/>
     <use style="stroke:#000000;" x="365.108035" xlink:href="#mf85035372b" y="112.940473"/>
     <use style="stroke:#000000;" x="362.693691" xlink:href="#mf85035372b" y="112.404689"/>
     <use style="stroke:#000000;" x="369.039611" xlink:href="#mf85035372b" y="121.002289"/>
     <use style="stroke:#000000;" x="384.472225" xlink:href="#mf85035372b" y="133.941622"/>
     <use style="stroke:#000000;" x="362.650669" xlink:href="#mf85035372b" y="111.729904"/>
     <use style="stroke:#000000;" x="387.249231" xlink:href="#mf85035372b" y="134.931859"/>
     <use style="stroke:#000000;" x="382.267777" xlink:href="#mf85035372b" y="124.473666"/>
     <use style="stroke:#000000;" x="382.545155" xlink:href="#mf85035372b" y="125.028279"/>
     <use style="stroke:#000000;" x="385.18053" xlink:href="#mf85035372b" y="128.71833"/>
     <use style="stroke:#000000;" x="360.616883" xlink:href="#mf85035372b" y="117.223854"/>
     <use style="stroke:#000000;" x="387.249231" xlink:href="#mf85035372b" y="137.559095"/>
     <use style="stroke:#000000;" x="357.879315" xlink:href="#mf85035372b" y="109.706352"/>
     <use style="stroke:#000000;" x="377.425743" xlink:href="#mf85035372b" y="115.701837"/>
     <use style="stroke:#000000;" x="344.421295" xlink:href="#mf85035372b" y="118.519692"/>
     <use style="stroke:#000000;" x="313.090503" xlink:href="#mf85035372b" y="89.840306"/>
     <use style="stroke:#000000;" x="310.13311" xlink:href="#mf85035372b" y="88.964245"/>
     <use style="stroke:#000000;" x="325.554947" xlink:href="#mf85035372b" y="94.625887"/>
     <use style="stroke:#000000;" x="334.53712" xlink:href="#mf85035372b" y="112.398052"/>
     <use style="stroke:#000000;" x="339.256989" xlink:href="#mf85035372b" y="117.183438"/>
     <use style="stroke:#000000;" x="257.524435" xlink:href="#mf85035372b" y="77.467814"/>
     <use style="stroke:#000000;" x="272.446109" xlink:href="#mf85035372b" y="91.331968"/>
     <use style="stroke:#000000;" x="270.272667" xlink:href="#mf85035372b" y="84.576076"/>
     <use style="stroke:#000000;" x="331.736551" xlink:href="#mf85035372b" y="107.443587"/>
     <use style="stroke:#000000;" x="334.28754" xlink:href="#mf85035372b" y="112.679336"/>
     <use style="stroke:#000000;" x="340.764655" xlink:href="#mf85035372b" y="118.577014"/>
     <use style="stroke:#000000;" x="379.183784" xlink:href="#mf85035372b" y="116.526302"/>
     <use style="stroke:#000000;" x="387.249231" xlink:href="#mf85035372b" y="132.239661"/>
     <use style="stroke:#000000;" x="387.249231" xlink:href="#mf85035372b" y="126.278954"/>
     <use style="stroke:#000000;" x="364.785688" xlink:href="#mf85035372b" y="109.172495"/>
     <use style="stroke:#000000;" x="385.957343" xlink:href="#mf85035372b" y="125.009264"/>
     <use style="stroke:#000000;" x="387.249231" xlink:href="#mf85035372b" y="137.959572"/>
     <use style="stroke:#000000;" x="339.213437" xlink:href="#mf85035372b" y="110.305641"/>
     <use style="stroke:#000000;" x="379.757312" xlink:href="#mf85035372b" y="121.155781"/>
     <use style="stroke:#000000;" x="367.61417" xlink:href="#mf85035372b" y="111.840677"/>
     <use style="stroke:#000000;" x="312.921434" xlink:href="#mf85035372b" y="85.915465"/>
     <use style="stroke:#000000;" x="334.897044" xlink:href="#mf85035372b" y="109.983167"/>
     <use style="stroke:#000000;" x="345.045905" xlink:href="#mf85035372b" y="114.394053"/>
     <use style="stroke:#000000;" x="320.68065" xlink:href="#mf85035372b" y="92.671486"/>
     <use style="stroke:#000000;" x="335.69864" xlink:href="#mf85035372b" y="107.344279"/>
     <use style="stroke:#000000;" x="319.973221" xlink:href="#mf85035372b" y="88.255047"/>
     <use style="stroke:#000000;" x="309.034842" xlink:href="#mf85035372b" y="94.477443"/>
     <use style="stroke:#000000;" x="292.340194" xlink:href="#mf85035372b" y="115.701648"/>
     <use style="stroke:#000000;" x="319.122011" xlink:href="#mf85035372b" y="92.789201"/>
     <use style="stroke:#000000;" x="319.515006" xlink:href="#mf85035372b" y="94.519848"/>
     <use style="stroke:#000000;" x="322.821677" xlink:href="#mf85035372b" y="91.430362"/>
     <use style="stroke:#000000;" x="315.496729" xlink:href="#mf85035372b" y="88.635833"/>
     <use style="stroke:#000000;" x="372.769591" xlink:href="#mf85035372b" y="104.981798"/>
     <use style="stroke:#000000;" x="370.109753" xlink:href="#mf85035372b" y="104.848555"/>
     <use style="stroke:#000000;" x="364.010009" xlink:href="#mf85035372b" y="107.672002"/>
     <use style="stroke:#000000;" x="373.480218" xlink:href="#mf85035372b" y="115.761603"/>
     <use style="stroke:#000000;" x="365.508569" xlink:href="#mf85035372b" y="107.937521"/>
     <use style="stroke:#000000;" x="372.584009" xlink:href="#mf85035372b" y="116.2615"/>
     <use style="stroke:#000000;" x="316.021406" xlink:href="#mf85035372b" y="90.117449"/>
     <use style="stroke:#000000;" x="318.167812" xlink:href="#mf85035372b" y="90.861913"/>
     <use style="stroke:#000000;" x="328.680311" xlink:href="#mf85035372b" y="107.243654"/>
     <use style="stroke:#000000;" x="304.036529" xlink:href="#mf85035372b" y="100.946591"/>
     <use style="stroke:#000000;" x="314.223392" xlink:href="#mf85035372b" y="91.347408"/>
     <use style="stroke:#000000;" x="328.846828" xlink:href="#mf85035372b" y="101.567529"/>
     <use style="stroke:#000000;" x="323.202299" xlink:href="#mf85035372b" y="94.797968"/>
     <use style="stroke:#000000;" x="330.965891" xlink:href="#mf85035372b" y="106.367208"/>
     <use style="stroke:#000000;" x="314.840672" xlink:href="#mf85035372b" y="90.190279"/>
     <use style="stroke:#000000;" x="327.621544" xlink:href="#mf85035372b" y="101.395924"/>
     <use style="stroke:#000000;" x="333.862356" xlink:href="#mf85035372b" y="110.120138"/>
     <use style="stroke:#000000;" x="320.487637" xlink:href="#mf85035372b" y="84.820756"/>
     <use style="stroke:#000000;" x="316.760043" xlink:href="#mf85035372b" y="85.286357"/>
     <use style="stroke:#000000;" x="317.885668" xlink:href="#mf85035372b" y="86.368976"/>
     <use style="stroke:#000000;" x="337.051912" xlink:href="#mf85035372b" y="115.211697"/>
     <use style="stroke:#000000;" x="309.292895" xlink:href="#mf85035372b" y="90.678885"/>
     <use style="stroke:#000000;" x="313.345007" xlink:href="#mf85035372b" y="88.254189"/>
     <use style="stroke:#000000;" x="308.593367" xlink:href="#mf85035372b" y="94.33077"/>
     <use style="stroke:#000000;" x="328.236746" xlink:href="#mf85035372b" y="102.906708"/>
     <use style="stroke:#000000;" x="332.809438" xlink:href="#mf85035372b" y="110.843615"/>
     <use style="stroke:#000000;" x="336.978475" xlink:href="#mf85035372b" y="113.5349"/>
     <use style="stroke:#000000;" x="387.249231" xlink:href="#mf85035372b" y="135.950352"/>
     <use style="stroke:#000000;" x="387.249231" xlink:href="#mf85035372b" y="132.465849"/>
     <use style="stroke:#000000;" x="380.43088" xlink:href="#mf85035372b" y="121.886724"/>
     <use style="stroke:#000000;" x="307.309167" xlink:href="#mf85035372b" y="96.266393"/>
     <use style="stroke:#000000;" x="315.897177" xlink:href="#mf85035372b" y="85.275192"/>
     <use style="stroke:#000000;" x="318.02949" xlink:href="#mf85035372b" y="84.387795"/>
     <use style="stroke:#000000;" x="264.597308" xlink:href="#mf85035372b" y="77.871955"/>
     <use style="stroke:#000000;" x="251.385046" xlink:href="#mf85035372b" y="92.203622"/>
     <use style="stroke:#000000;" x="273.102102" xlink:href="#mf85035372b" y="88.412793"/>
     <use style="stroke:#000000;" x="314.465075" xlink:href="#mf85035372b" y="87.84545"/>
     <use style="stroke:#000000;" x="314.002407" xlink:href="#mf85035372b" y="96.967393"/>
     <use style="stroke:#000000;" x="339.200343" xlink:href="#mf85035372b" y="119.851024"/>
     <use style="stroke:#000000;" x="319.642242" xlink:href="#mf85035372b" y="87.233792"/>
     <use style="stroke:#000000;" x="312.984385" xlink:href="#mf85035372b" y="90.592124"/>
     <use style="stroke:#000000;" x="332.904413" xlink:href="#mf85035372b" y="107.939015"/>
     <use style="stroke:#000000;" x="372.77967" xlink:href="#mf85035372b" y="118.239452"/>
     <use style="stroke:#000000;" x="385.242063" xlink:href="#mf85035372b" y="134.734684"/>
     <use style="stroke:#000000;" x="387.249231" xlink:href="#mf85035372b" y="129.78491"/>
     <use style="stroke:#000000;" x="385.139078" xlink:href="#mf85035372b" y="126.693253"/>
     <use style="stroke:#000000;" x="379.058044" xlink:href="#mf85035372b" y="126.916974"/>
     <use style="stroke:#000000;" x="386.967368" xlink:href="#mf85035372b" y="142.753785"/>
     <use style="stroke:#000000;" x="310.080279" xlink:href="#mf85035372b" y="99.908753"/>
     <use style="stroke:#000000;" x="344.85087" xlink:href="#mf85035372b" y="119.846793"/>
     <use style="stroke:#000000;" x="385.2215" xlink:href="#mf85035372b" y="130.297361"/>
     <use style="stroke:#000000;" x="368.954489" xlink:href="#mf85035372b" y="125.529993"/>
     <use style="stroke:#000000;" x="354.327803" xlink:href="#mf85035372b" y="119.618453"/>
     <use style="stroke:#000000;" x="324.300561" xlink:href="#mf85035372b" y="95.281414"/>
     <use style="stroke:#000000;" x="378.258273" xlink:href="#mf85035372b" y="127.45874"/>
     <use style="stroke:#000000;" x="360.676464" xlink:href="#mf85035372b" y="116.406359"/>
     <use style="stroke:#000000;" x="326.863642" xlink:href="#mf85035372b" y="100.893136"/>
     <use style="stroke:#000000;" x="337.012212" xlink:href="#mf85035372b" y="115.96754"/>
     <use style="stroke:#000000;" x="331.131349" xlink:href="#mf85035372b" y="109.454985"/>
     <use style="stroke:#000000;" x="363.049346" xlink:href="#mf85035372b" y="121.795463"/>
     <use style="stroke:#000000;" x="325.97329" xlink:href="#mf85035372b" y="103.291648"/>
     <use style="stroke:#000000;" x="341.492345" xlink:href="#mf85035372b" y="117.435148"/>
     <use style="stroke:#000000;" x="332.027973" xlink:href="#mf85035372b" y="105.31722"/>
     <use style="stroke:#000000;" x="283.615861" xlink:href="#mf85035372b" y="119.919541"/>
     <use style="stroke:#000000;" x="261.598449" xlink:href="#mf85035372b" y="77.636553"/>
     <use style="stroke:#000000;" x="201.275819" xlink:href="#mf85035372b" y="90.681716"/>
     <use style="stroke:#000000;" x="197.326801" xlink:href="#mf85035372b" y="100.60185"/>
     <use style="stroke:#000000;" x="261.735637" xlink:href="#mf85035372b" y="87.136011"/>
     <use style="stroke:#000000;" x="250.111972" xlink:href="#mf85035372b" y="103.676077"/>
     <use style="stroke:#000000;" x="317.173394" xlink:href="#mf85035372b" y="88.807889"/>
     <use style="stroke:#000000;" x="324.135496" xlink:href="#mf85035372b" y="95.288216"/>
     <use style="stroke:#000000;" x="259.818911" xlink:href="#mf85035372b" y="82.687074"/>
     <use style="stroke:#000000;" x="305.625835" xlink:href="#mf85035372b" y="115.389083"/>
     <use style="stroke:#000000;" x="217.617622" xlink:href="#mf85035372b" y="100.968077"/>
     <use style="stroke:#000000;" x="190.479364" xlink:href="#mf85035372b" y="129.217491"/>
     <use style="stroke:#000000;" x="224.085892" xlink:href="#mf85035372b" y="128.513549"/>
     <use style="stroke:#000000;" x="204.348657" xlink:href="#mf85035372b" y="85.977408"/>
     <use style="stroke:#000000;" x="379.610514" xlink:href="#mf85035372b" y="129.238138"/>
     <use style="stroke:#000000;" x="387.249231" xlink:href="#mf85035372b" y="145.816191"/>
     <use style="stroke:#000000;" x="329.33136" xlink:href="#mf85035372b" y="108.96909"/>
     <use style="stroke:#000000;" x="340.087737" xlink:href="#mf85035372b" y="116.309353"/>
     <use style="stroke:#000000;" x="328.312648" xlink:href="#mf85035372b" y="102.260726"/>
     <use style="stroke:#000000;" x="279.916744" xlink:href="#mf85035372b" y="113.391631"/>
     <use style="stroke:#000000;" x="357.440224" xlink:href="#mf85035372b" y="117.922235"/>
     <use style="stroke:#000000;" x="324.777507" xlink:href="#mf85035372b" y="99.546183"/>
     <use style="stroke:#000000;" x="387.249231" xlink:href="#mf85035372b" y="135.737695"/>
     <use style="stroke:#000000;" x="380.813868" xlink:href="#mf85035372b" y="128.84383"/>
     <use style="stroke:#000000;" x="375.243579" xlink:href="#mf85035372b" y="128.691512"/>
     <use style="stroke:#000000;" x="322.995387" xlink:href="#mf85035372b" y="93.621213"/>
     <use style="stroke:#000000;" x="347.624027" xlink:href="#mf85035372b" y="117.364901"/>
     <use style="stroke:#000000;" x="356.307514" xlink:href="#mf85035372b" y="111.421001"/>
     <use style="stroke:#000000;" x="371.852522" xlink:href="#mf85035372b" y="115.622992"/>
     <use style="stroke:#000000;" x="361.601414" xlink:href="#mf85035372b" y="119.1076"/>
     <use style="stroke:#000000;" x="357.818444" xlink:href="#mf85035372b" y="124.759027"/>
     <use style="stroke:#000000;" x="324.492153" xlink:href="#mf85035372b" y="95.290407"/>
     <use style="stroke:#000000;" x="333.721319" xlink:href="#mf85035372b" y="107.368229"/>
     <use style="stroke:#000000;" x="333.831645" xlink:href="#mf85035372b" y="109.645281"/>
     <use style="stroke:#000000;" x="316.27256" xlink:href="#mf85035372b" y="87.396322"/>
     <use style="stroke:#000000;" x="287.672419" xlink:href="#mf85035372b" y="113.768207"/>
     <use style="stroke:#000000;" x="324.537314" xlink:href="#mf85035372b" y="93.821339"/>
     <use style="stroke:#000000;" x="294.022002" xlink:href="#mf85035372b" y="119.079339"/>
     <use style="stroke:#000000;" x="343.798258" xlink:href="#mf85035372b" y="119.96374"/>
     <use style="stroke:#000000;" x="337.466728" xlink:href="#mf85035372b" y="113.969619"/>
     <use style="stroke:#000000;" x="316.572899" xlink:href="#mf85035372b" y="90.499665"/>
     <use style="stroke:#000000;" x="327.462582" xlink:href="#mf85035372b" y="98.844282"/>
     <use style="stroke:#000000;" x="299.23542" xlink:href="#mf85035372b" y="108.329755"/>
     <use style="stroke:#000000;" x="336.521662" xlink:href="#mf85035372b" y="111.155765"/>
     <use style="stroke:#000000;" x="324.873321" xlink:href="#mf85035372b" y="94.144341"/>
     <use style="stroke:#000000;" x="313.91728" xlink:href="#mf85035372b" y="86.998677"/>
     <use style="stroke:#000000;" x="307.842701" xlink:href="#mf85035372b" y="97.135801"/>
     <use style="stroke:#000000;" x="339.913687" xlink:href="#mf85035372b" y="128.810209"/>
     <use style="stroke:#000000;" x="387.249231" xlink:href="#mf85035372b" y="138.185685"/>
     <use style="stroke:#000000;" x="192.395416" xlink:href="#mf85035372b" y="121.804634"/>
     <use style="stroke:#000000;" x="321.462763" xlink:href="#mf85035372b" y="99.47698"/>
     <use style="stroke:#000000;" x="258.777531" xlink:href="#mf85035372b" y="90.998437"/>
     <use style="stroke:#000000;" x="327.348747" xlink:href="#mf85035372b" y="103.18094"/>
     <use style="stroke:#000000;" x="387.249231" xlink:href="#mf85035372b" y="136.608921"/>
    </g>
   </g>
   <g id="PathCollection_2">
    <defs>
     <path d="M 0 0.935414 
C 0.248075 0.935414 0.486022 0.836853 0.661438 0.661438 
C 0.836853 0.486022 0.935414 0.248075 0.935414 0 
C 0.935414 -0.248075 0.836853 -0.486022 0.661438 -0.661438 
C 0.486022 -0.836853 0.248075 -0.935414 0 -0.935414 
C -0.248075 -0.935414 -0.486022 -0.836853 -0.661438 -0.661438 
C -0.836853 -0.486022 -0.935414 -0.248075 -0.935414 0 
C -0.935414 0.248075 -0.836853 0.486022 -0.661438 0.661438 
C -0.486022 0.836853 -0.248075 0.935414 0 0.935414 
z
" id="m2c7518ada6" style="stroke:#0000ff;"/>
    </defs>
    <g clip-path="url(#pe4514ac4a6)">
     <use style="fill:#0000ff;stroke:#0000ff;" x="376.536066" xlink:href="#m2c7518ada6" y="119.397134"/>
     <use style="fill:#0000ff;stroke:#0000ff;" x="387.249231" xlink:href="#m2c7518ada6" y="132.10678"/>
     <use style="fill:#0000ff;stroke:#0000ff;" x="375.010888" xlink:href="#m2c7518ada6" y="117.680408"/>
     <use style="fill:#0000ff;stroke:#0000ff;" x="373.176585" xlink:href="#m2c7518ada6" y="111.177098"/>
     <use style="fill:#0000ff;stroke:#0000ff;" x="332.556831" xlink:href="#m2c7518ada6" y="104.358849"/>
     <use style="fill:#0000ff;stroke:#0000ff;" x="327.18806" xlink:href="#m2c7518ada6" y="96.766145"/>
     <use style="fill:#0000ff;stroke:#0000ff;" x="267.19702" xlink:href="#m2c7518ada6" y="74.768894"/>
     <use style="fill:#0000ff;stroke:#0000ff;" x="330.311724" xlink:href="#m2c7518ada6" y="100.750069"/>
     <use style="fill:#0000ff;stroke:#0000ff;" x="385.749031" xlink:href="#m2c7518ada6" y="122.102041"/>
     <use style="fill:#0000ff;stroke:#0000ff;" x="369.130836" xlink:href="#m2c7518ada6" y="104.89968"/>
     <use style="fill:#0000ff;stroke:#0000ff;" x="370.434919" xlink:href="#m2c7518ada6" y="108.692151"/>
     <use style="fill:#0000ff;stroke:#0000ff;" x="325.391631" xlink:href="#m2c7518ada6" y="91.88783"/>
     <use style="fill:#0000ff;stroke:#0000ff;" x="319.211008" xlink:href="#m2c7518ada6" y="86.969732"/>
     <use style="fill:#0000ff;stroke:#0000ff;" x="321.013196" xlink:href="#m2c7518ada6" y="90.366271"/>
     <use style="fill:#0000ff;stroke:#0000ff;" x="318.264666" xlink:href="#m2c7518ada6" y="86.63192"/>
     <use style="fill:#0000ff;stroke:#0000ff;" x="365.318413" xlink:href="#m2c7518ada6" y="104.495897"/>
     <use style="fill:#0000ff;stroke:#0000ff;" x="374.874381" xlink:href="#m2c7518ada6" y="115.113817"/>
     <use style="fill:#0000ff;stroke:#0000ff;" x="320.756555" xlink:href="#m2c7518ada6" y="90.166703"/>
     <use style="fill:#0000ff;stroke:#0000ff;" x="317.342226" xlink:href="#m2c7518ada6" y="85.022327"/>
     <use style="fill:#0000ff;stroke:#0000ff;" x="325.49668" xlink:href="#m2c7518ada6" y="94.521307"/>
     <use style="fill:#0000ff;stroke:#0000ff;" x="328.34081" xlink:href="#m2c7518ada6" y="97.625786"/>
     <use style="fill:#0000ff;stroke:#0000ff;" x="323.587404" xlink:href="#m2c7518ada6" y="91.031923"/>
     <use style="fill:#0000ff;stroke:#0000ff;" x="319.526013" xlink:href="#m2c7518ada6" y="89.465508"/>
     <use style="fill:#0000ff;stroke:#0000ff;" x="332.632772" xlink:href="#m2c7518ada6" y="104.49562"/>
     <use style="fill:#0000ff;stroke:#0000ff;" x="385.936488" xlink:href="#m2c7518ada6" y="128.600304"/>
     <use style="fill:#0000ff;stroke:#0000ff;" x="314.121366" xlink:href="#m2c7518ada6" y="84.849964"/>
     <use style="fill:#0000ff;stroke:#0000ff;" x="268.624409" xlink:href="#m2c7518ada6" y="80.198482"/>
     <use style="fill:#0000ff;stroke:#0000ff;" x="319.857397" xlink:href="#m2c7518ada6" y="89.607849"/>
     <use style="fill:#0000ff;stroke:#0000ff;" x="319.398129" xlink:href="#m2c7518ada6" y="87.803905"/>
     <use style="fill:#0000ff;stroke:#0000ff;" x="375.705639" xlink:href="#m2c7518ada6" y="120.644155"/>
     <use style="fill:#0000ff;stroke:#0000ff;" x="387.249231" xlink:href="#m2c7518ada6" y="132.409606"/>
     <use style="fill:#0000ff;stroke:#0000ff;" x="365.48029" xlink:href="#m2c7518ada6" y="111.487744"/>
     <use style="fill:#0000ff;stroke:#0000ff;" x="376.045434" xlink:href="#m2c7518ada6" y="121.629238"/>
     <use style="fill:#0000ff;stroke:#0000ff;" x="327.157892" xlink:href="#m2c7518ada6" y="98.327446"/>
     <use style="fill:#0000ff;stroke:#0000ff;" x="326.628563" xlink:href="#m2c7518ada6" y="97.726407"/>
     <use style="fill:#0000ff;stroke:#0000ff;" x="373.018793" xlink:href="#m2c7518ada6" y="117.418956"/>
     <use style="fill:#0000ff;stroke:#0000ff;" x="326.533303" xlink:href="#m2c7518ada6" y="97.139903"/>
     <use style="fill:#0000ff;stroke:#0000ff;" x="373.004705" xlink:href="#m2c7518ada6" y="114.283638"/>
     <use style="fill:#0000ff;stroke:#0000ff;" x="330.12777" xlink:href="#m2c7518ada6" y="104.60823"/>
     <use style="fill:#0000ff;stroke:#0000ff;" x="330.572691" xlink:href="#m2c7518ada6" y="105.631027"/>
     <use style="fill:#0000ff;stroke:#0000ff;" x="330.596245" xlink:href="#m2c7518ada6" y="106.280648"/>
     <use style="fill:#0000ff;stroke:#0000ff;" x="331.890999" xlink:href="#m2c7518ada6" y="106.412121"/>
     <use style="fill:#0000ff;stroke:#0000ff;" x="266.995814" xlink:href="#m2c7518ada6" y="82.179842"/>
     <use style="fill:#0000ff;stroke:#0000ff;" x="211.22652" xlink:href="#m2c7518ada6" y="78.154553"/>
     <use style="fill:#0000ff;stroke:#0000ff;" x="262.877387" xlink:href="#m2c7518ada6" y="81.078751"/>
     <use style="fill:#0000ff;stroke:#0000ff;" x="263.112106" xlink:href="#m2c7518ada6" y="81.536147"/>
     <use style="fill:#0000ff;stroke:#0000ff;" x="313.454424" xlink:href="#m2c7518ada6" y="86.869605"/>
     <use style="fill:#0000ff;stroke:#0000ff;" x="259.664742" xlink:href="#m2c7518ada6" y="78.782436"/>
     <use style="fill:#0000ff;stroke:#0000ff;" x="207.899626" xlink:href="#m2c7518ada6" y="75.969479"/>
     <use style="fill:#0000ff;stroke:#0000ff;" x="209.923912" xlink:href="#m2c7518ada6" y="78.148576"/>
     <use style="fill:#0000ff;stroke:#0000ff;" x="385.852421" xlink:href="#m2c7518ada6" y="130.340701"/>
     <use style="fill:#0000ff;stroke:#0000ff;" x="327.285097" xlink:href="#m2c7518ada6" y="100.893064"/>
     <use style="fill:#0000ff;stroke:#0000ff;" x="328.466543" xlink:href="#m2c7518ada6" y="100.91003"/>
     <use style="fill:#0000ff;stroke:#0000ff;" x="270.991743" xlink:href="#m2c7518ada6" y="85.329571"/>
     <use style="fill:#0000ff;stroke:#0000ff;" x="322.102216" xlink:href="#m2c7518ada6" y="91.445713"/>
     <use style="fill:#0000ff;stroke:#0000ff;" x="329.527803" xlink:href="#m2c7518ada6" y="101.708812"/>
     <use style="fill:#0000ff;stroke:#0000ff;" x="383.553614" xlink:href="#m2c7518ada6" y="123.321971"/>
     <use style="fill:#0000ff;stroke:#0000ff;" x="385.100447" xlink:href="#m2c7518ada6" y="129.778032"/>
     <use style="fill:#0000ff;stroke:#0000ff;" x="377.03918" xlink:href="#m2c7518ada6" y="123.065301"/>
     <use style="fill:#0000ff;stroke:#0000ff;" x="322.105695" xlink:href="#m2c7518ada6" y="91.805246"/>
     <use style="fill:#0000ff;stroke:#0000ff;" x="357.499012" xlink:href="#m2c7518ada6" y="106.873118"/>
     <use style="fill:#0000ff;stroke:#0000ff;" x="356.673345" xlink:href="#m2c7518ada6" y="106.486343"/>
     <use style="fill:#0000ff;stroke:#0000ff;" x="384.830042" xlink:href="#m2c7518ada6" y="126.866559"/>
     <use style="fill:#0000ff;stroke:#0000ff;" x="324.919823" xlink:href="#m2c7518ada6" y="94.818726"/>
     <use style="fill:#0000ff;stroke:#0000ff;" x="324.608878" xlink:href="#m2c7518ada6" y="92.755906"/>
     <use style="fill:#0000ff;stroke:#0000ff;" x="325.480659" xlink:href="#m2c7518ada6" y="96.420653"/>
     <use style="fill:#0000ff;stroke:#0000ff;" x="325.475402" xlink:href="#m2c7518ada6" y="94.907387"/>
     <use style="fill:#0000ff;stroke:#0000ff;" x="309.159853" xlink:href="#m2c7518ada6" y="86.465105"/>
     <use style="fill:#0000ff;stroke:#0000ff;" x="320.689117" xlink:href="#m2c7518ada6" y="90.169246"/>
     <use style="fill:#0000ff;stroke:#0000ff;" x="315.959253" xlink:href="#m2c7518ada6" y="87.194521"/>
     <use style="fill:#0000ff;stroke:#0000ff;" x="312.055822" xlink:href="#m2c7518ada6" y="86.608247"/>
     <use style="fill:#0000ff;stroke:#0000ff;" x="318.873264" xlink:href="#m2c7518ada6" y="88.52835"/>
     <use style="fill:#0000ff;stroke:#0000ff;" x="317.67488" xlink:href="#m2c7518ada6" y="87.661858"/>
     <use style="fill:#0000ff;stroke:#0000ff;" x="374.660909" xlink:href="#m2c7518ada6" y="121.676687"/>
     <use style="fill:#0000ff;stroke:#0000ff;" x="387.249231" xlink:href="#m2c7518ada6" y="134.023321"/>
     <use style="fill:#0000ff;stroke:#0000ff;" x="211.051018" xlink:href="#m2c7518ada6" y="78.930711"/>
     <use style="fill:#0000ff;stroke:#0000ff;" x="331.647302" xlink:href="#m2c7518ada6" y="107.098982"/>
     <use style="fill:#0000ff;stroke:#0000ff;" x="264.925395" xlink:href="#m2c7518ada6" y="84.833113"/>
     <use style="fill:#0000ff;stroke:#0000ff;" x="365.108035" xlink:href="#m2c7518ada6" y="112.940473"/>
     <use style="fill:#0000ff;stroke:#0000ff;" x="362.693691" xlink:href="#m2c7518ada6" y="112.404689"/>
    </g>
   </g>
   <g id="matplotlib.axis_1">
    <g id="xtick_1">
     <g id="line2d_1">
      <defs>
       <path d="M 0 0 
L 0 3.5 
" id="m7a8f454af2" style="stroke:#000000;stroke-width:0.8;"/>
      </defs>
      <g>
       <use style="stroke:#000000;stroke-width:0.8;" x="57.6" xlink:href="#m7a8f454af2" y="307.584"/>
      </g>
     </g>
     <g id="text_1">
      <!-- −1.2 -->
      <defs>
       <path d="M 10.59375 35.5 
L 73.1875 35.5 
L 73.1875 27.203125 
L 10.59375 27.203125 
z
" id="DejaVuSans-2212"/>
       <path d="M 12.40625 8.296875 
L 28.515625 8.296875 
L 28.515625 63.921875 
L 10.984375 60.40625 
L 10.984375 69.390625 
L 28.421875 72.90625 
L 38.28125 72.90625 
L 38.28125 8.296875 
L 54.390625 8.296875 
L 54.390625 0 
L 12.40625 0 
z
" id="DejaVuSans-31"/>
       <path d="M 10.6875 12.40625 
L 21 12.40625 
L 21 0 
L 10.6875 0 
z
" id="DejaVuSans-2e"/>
       <path d="M 19.1875 8.296875 
L 53.609375 8.296875 
L 53.609375 0 
L 7.328125 0 
L 7.328125 8.296875 
Q 12.9375 14.109375 22.625 23.890625 
Q 32.328125 33.6875 34.8125 36.53125 
Q 39.546875 41.84375 41.421875 45.53125 
Q 43.3125 49.21875 43.3125 52.78125 
Q 43.3125 58.59375 39.234375 62.25 
Q 35.15625 65.921875 28.609375 65.921875 
Q 23.96875 65.921875 18.8125 64.3125 
Q 13.671875 62.703125 7.8125 59.421875 
L 7.8125 69.390625 
Q 13.765625 71.78125 18.9375 73 
Q 24.125 74.21875 28.421875 74.21875 
Q 39.75 74.21875 46.484375 68.546875 
Q 53.21875 62.890625 53.21875 53.421875 
Q 53.21875 48.921875 51.53125 44.890625 
Q 49.859375 40.875 45.40625 35.40625 
Q 44.1875 33.984375 37.640625 27.21875 
Q 31.109375 20.453125 19.1875 8.296875 
z
" id="DejaVuSans-32"/>
      </defs>
      <g transform="translate(45.458594 322.182437)scale(0.1 -0.1)">
       <use xlink:href="#DejaVuSans-2212"/>
       <use x="83.789062" xlink:href="#DejaVuSans-31"/>
       <use x="147.412109" xlink:href="#DejaVuSans-2e"/>
       <use x="179.199219" xlink:href="#DejaVuSans-32"/>
      </g>
     </g>
    </g>
    <g id="xtick_2">
     <g id="line2d_2">
      <g>
       <use style="stroke:#000000;stroke-width:0.8;" x="112.541538" xlink:href="#m7a8f454af2" y="307.584"/>
      </g>
     </g>
     <g id="text_2">
      <!-- −1.0 -->
      <defs>
       <path d="M 31.78125 66.40625 
Q 24.171875 66.40625 20.328125 58.90625 
Q 16.5 51.421875 16.5 36.375 
Q 16.5 21.390625 20.328125 13.890625 
Q 24.171875 6.390625 31.78125 6.390625 
Q 39.453125 6.390625 43.28125 13.890625 
Q 47.125 21.390625 47.125 36.375 
Q 47.125 51.421875 43.28125 58.90625 
Q 39.453125 66.40625 31.78125 66.40625 
z
M 31.78125 74.21875 
Q 44.046875 74.21875 50.515625 64.515625 
Q 56.984375 54.828125 56.984375 36.375 
Q 56.984375 17.96875 50.515625 8.265625 
Q 44.046875 -1.421875 31.78125 -1.421875 
Q 19.53125 -1.421875 13.0625 8.265625 
Q 6.59375 17.96875 6.59375 36.375 
Q 6.59375 54.828125 13.0625 64.515625 
Q 19.53125 74.21875 31.78125 74.21875 
z
" id="DejaVuSans-30"/>
      </defs>
      <g transform="translate(100.400132 322.182437)scale(0.1 -0.1)">
       <use xlink:href="#DejaVuSans-2212"/>
       <use x="83.789062" xlink:href="#DejaVuSans-31"/>
       <use x="147.412109" xlink:href="#DejaVuSans-2e"/>
       <use x="179.199219" xlink:href="#DejaVuSans-30"/>
      </g>
     </g>
    </g>
    <g id="xtick_3">
     <g id="line2d_3">
      <g>
       <use style="stroke:#000000;stroke-width:0.8;" x="167.483077" xlink:href="#m7a8f454af2" y="307.584"/>
      </g>
     </g>
     <g id="text_3">
      <!-- −0.8 -->
      <defs>
       <path d="M 31.78125 34.625 
Q 24.75 34.625 20.71875 30.859375 
Q 16.703125 27.09375 16.703125 20.515625 
Q 16.703125 13.921875 20.71875 10.15625 
Q 24.75 6.390625 31.78125 6.390625 
Q 38.8125 6.390625 42.859375 10.171875 
Q 46.921875 13.96875 46.921875 20.515625 
Q 46.921875 27.09375 42.890625 30.859375 
Q 38.875 34.625 31.78125 34.625 
z
M 21.921875 38.8125 
Q 15.578125 40.375 12.03125 44.71875 
Q 8.5 49.078125 8.5 55.328125 
Q 8.5 64.0625 14.71875 69.140625 
Q 20.953125 74.21875 31.78125 74.21875 
Q 42.671875 74.21875 48.875 69.140625 
Q 55.078125 64.0625 55.078125 55.328125 
Q 55.078125 49.078125 51.53125 44.71875 
Q 48 40.375 41.703125 38.8125 
Q 48.828125 37.15625 52.796875 32.3125 
Q 56.78125 27.484375 56.78125 20.515625 
Q 56.78125 9.90625 50.3125 4.234375 
Q 43.84375 -1.421875 31.78125 -1.421875 
Q 19.734375 -1.421875 13.25 4.234375 
Q 6.78125 9.90625 6.78125 20.515625 
Q 6.78125 27.484375 10.78125 32.3125 
Q 14.796875 37.15625 21.921875 38.8125 
z
M 18.3125 54.390625 
Q 18.3125 48.734375 21.84375 45.5625 
Q 25.390625 42.390625 31.78125 42.390625 
Q 38.140625 42.390625 41.71875 45.5625 
Q 45.3125 48.734375 45.3125 54.390625 
Q 45.3125 60.0625 41.71875 63.234375 
Q 38.140625 66.40625 31.78125 66.40625 
Q 25.390625 66.40625 21.84375 63.234375 
Q 18.3125 60.0625 18.3125 54.390625 
z
" id="DejaVuSans-38"/>
      </defs>
      <g transform="translate(155.341671 322.182437)scale(0.1 -0.1)">
       <use xlink:href="#DejaVuSans-2212"/>
       <use x="83.789062" xlink:href="#DejaVuSans-30"/>
       <use x="147.412109" xlink:href="#DejaVuSans-2e"/>
       <use x="179.199219" xlink:href="#DejaVuSans-38"/>
      </g>
     </g>
    </g>
    <g id="xtick_4">
     <g id="line2d_4">
      <g>
       <use style="stroke:#000000;stroke-width:0.8;" x="222.424615" xlink:href="#m7a8f454af2" y="307.584"/>
      </g>
     </g>
     <g id="text_4">
      <!-- −0.6 -->
      <defs>
       <path d="M 33.015625 40.375 
Q 26.375 40.375 22.484375 35.828125 
Q 18.609375 31.296875 18.609375 23.390625 
Q 18.609375 15.53125 22.484375 10.953125 
Q 26.375 6.390625 33.015625 6.390625 
Q 39.65625 6.390625 43.53125 10.953125 
Q 47.40625 15.53125 47.40625 23.390625 
Q 47.40625 31.296875 43.53125 35.828125 
Q 39.65625 40.375 33.015625 40.375 
z
M 52.59375 71.296875 
L 52.59375 62.3125 
Q 48.875 64.0625 45.09375 64.984375 
Q 41.3125 65.921875 37.59375 65.921875 
Q 27.828125 65.921875 22.671875 59.328125 
Q 17.53125 52.734375 16.796875 39.40625 
Q 19.671875 43.65625 24.015625 45.921875 
Q 28.375 48.1875 33.59375 48.1875 
Q 44.578125 48.1875 50.953125 41.515625 
Q 57.328125 34.859375 57.328125 23.390625 
Q 57.328125 12.15625 50.6875 5.359375 
Q 44.046875 -1.421875 33.015625 -1.421875 
Q 20.359375 -1.421875 13.671875 8.265625 
Q 6.984375 17.96875 6.984375 36.375 
Q 6.984375 53.65625 15.1875 63.9375 
Q 23.390625 74.21875 37.203125 74.21875 
Q 40.921875 74.21875 44.703125 73.484375 
Q 48.484375 72.75 52.59375 71.296875 
z
" id="DejaVuSans-36"/>
      </defs>
      <g transform="translate(210.283209 322.182437)scale(0.1 -0.1)">
       <use xlink:href="#DejaVuSans-2212"/>
       <use x="83.789062" xlink:href="#DejaVuSans-30"/>
       <use x="147.412109" xlink:href="#DejaVuSans-2e"/>
       <use x="179.199219" xlink:href="#DejaVuSans-36"/>
      </g>
     </g>
    </g>
    <g id="xtick_5">
     <g id="line2d_5">
      <g>
       <use style="stroke:#000000;stroke-width:0.8;" x="277.366154" xlink:href="#m7a8f454af2" y="307.584"/>
      </g>
     </g>
     <g id="text_5">
      <!-- −0.4 -->
      <defs>
       <path d="M 37.796875 64.3125 
L 12.890625 25.390625 
L 37.796875 25.390625 
z
M 35.203125 72.90625 
L 47.609375 72.90625 
L 47.609375 25.390625 
L 58.015625 25.390625 
L 58.015625 17.1875 
L 47.609375 17.1875 
L 47.609375 0 
L 37.796875 0 
L 37.796875 17.1875 
L 4.890625 17.1875 
L 4.890625 26.703125 
z
" id="DejaVuSans-34"/>
      </defs>
      <g transform="translate(265.224748 322.182437)scale(0.1 -0.1)">
       <use xlink:href="#DejaVuSans-2212"/>
       <use x="83.789062" xlink:href="#DejaVuSans-30"/>
       <use x="147.412109" xlink:href="#DejaVuSans-2e"/>
       <use x="179.199219" xlink:href="#DejaVuSans-34"/>
      </g>
     </g>
    </g>
    <g id="xtick_6">
     <g id="line2d_6">
      <g>
       <use style="stroke:#000000;stroke-width:0.8;" x="332.307692" xlink:href="#m7a8f454af2" y="307.584"/>
      </g>
     </g>
     <g id="text_6">
      <!-- −0.2 -->
      <g transform="translate(320.166286 322.182437)scale(0.1 -0.1)">
       <use xlink:href="#DejaVuSans-2212"/>
       <use x="83.789062" xlink:href="#DejaVuSans-30"/>
       <use x="147.412109" xlink:href="#DejaVuSans-2e"/>
       <use x="179.199219" xlink:href="#DejaVuSans-32"/>
      </g>
     </g>
    </g>
    <g id="xtick_7">
     <g id="line2d_7">
      <g>
       <use style="stroke:#000000;stroke-width:0.8;" x="387.249231" xlink:href="#m7a8f454af2" y="307.584"/>
      </g>
     </g>
     <g id="text_7">
      <!-- 0.0 -->
      <g transform="translate(379.297668 322.182437)scale(0.1 -0.1)">
       <use xlink:href="#DejaVuSans-30"/>
       <use x="63.623047" xlink:href="#DejaVuSans-2e"/>
       <use x="95.410156" xlink:href="#DejaVuSans-30"/>
      </g>
     </g>
    </g>
   </g>
   <g id="matplotlib.axis_2">
    <g id="ytick_1">
     <g id="line2d_8">
      <defs>
       <path d="M 0 0 
L -3.5 0 
" id="mcf7429a96f" style="stroke:#000000;stroke-width:0.8;"/>
      </defs>
      <g>
       <use style="stroke:#000000;stroke-width:0.8;" x="57.6" xlink:href="#mcf7429a96f" y="307.584"/>
      </g>
     </g>
     <g id="text_8">
      <!-- −5 -->
      <defs>
       <path d="M 10.796875 72.90625 
L 49.515625 72.90625 
L 49.515625 64.59375 
L 19.828125 64.59375 
L 19.828125 46.734375 
Q 21.96875 47.46875 24.109375 47.828125 
Q 26.265625 48.1875 28.421875 48.1875 
Q 40.625 48.1875 47.75 41.5 
Q 54.890625 34.8125 54.890625 23.390625 
Q 54.890625 11.625 47.5625 5.09375 
Q 40.234375 -1.421875 26.90625 -1.421875 
Q 22.3125 -1.421875 17.546875 -0.640625 
Q 12.796875 0.140625 7.71875 1.703125 
L 7.71875 11.625 
Q 12.109375 9.234375 16.796875 8.0625 
Q 21.484375 6.890625 26.703125 6.890625 
Q 35.15625 6.890625 40.078125 11.328125 
Q 45.015625 15.765625 45.015625 23.390625 
Q 45.015625 31 40.078125 35.4375 
Q 35.15625 39.890625 26.703125 39.890625 
Q 22.75 39.890625 18.8125 39.015625 
Q 14.890625 38.140625 10.796875 36.28125 
z
" id="DejaVuSans-35"/>
      </defs>
      <g transform="translate(35.857813 311.383219)scale(0.1 -0.1)">
       <use xlink:href="#DejaVuSans-2212"/>
       <use x="83.789062" xlink:href="#DejaVuSans-35"/>
      </g>
     </g>
    </g>
    <g id="ytick_2">
     <g id="line2d_9">
      <g>
       <use style="stroke:#000000;stroke-width:0.8;" x="57.6" xlink:href="#mcf7429a96f" y="254.3616"/>
      </g>
     </g>
     <g id="text_9">
      <!-- −4 -->
      <g transform="translate(35.857813 258.160819)scale(0.1 -0.1)">
       <use xlink:href="#DejaVuSans-2212"/>
       <use x="83.789062" xlink:href="#DejaVuSans-34"/>
      </g>
     </g>
    </g>
    <g id="ytick_3">
     <g id="line2d_10">
      <g>
       <use style="stroke:#000000;stroke-width:0.8;" x="57.6" xlink:href="#mcf7429a96f" y="201.1392"/>
      </g>
     </g>
     <g id="text_10">
      <!-- −3 -->
      <defs>
       <path d="M 40.578125 39.3125 
Q 47.65625 37.796875 51.625 33 
Q 55.609375 28.21875 55.609375 21.1875 
Q 55.609375 10.40625 48.1875 4.484375 
Q 40.765625 -1.421875 27.09375 -1.421875 
Q 22.515625 -1.421875 17.65625 -0.515625 
Q 12.796875 0.390625 7.625 2.203125 
L 7.625 11.71875 
Q 11.71875 9.328125 16.59375 8.109375 
Q 21.484375 6.890625 26.8125 6.890625 
Q 36.078125 6.890625 40.9375 10.546875 
Q 45.796875 14.203125 45.796875 21.1875 
Q 45.796875 27.640625 41.28125 31.265625 
Q 36.765625 34.90625 28.71875 34.90625 
L 20.21875 34.90625 
L 20.21875 43.015625 
L 29.109375 43.015625 
Q 36.375 43.015625 40.234375 45.921875 
Q 44.09375 48.828125 44.09375 54.296875 
Q 44.09375 59.90625 40.109375 62.90625 
Q 36.140625 65.921875 28.71875 65.921875 
Q 24.65625 65.921875 20.015625 65.03125 
Q 15.375 64.15625 9.8125 62.3125 
L 9.8125 71.09375 
Q 15.4375 72.65625 20.34375 73.4375 
Q 25.25 74.21875 29.59375 74.21875 
Q 40.828125 74.21875 47.359375 69.109375 
Q 53.90625 64.015625 53.90625 55.328125 
Q 53.90625 49.265625 50.4375 45.09375 
Q 46.96875 40.921875 40.578125 39.3125 
z
" id="DejaVuSans-33"/>
      </defs>
      <g transform="translate(35.857813 204.938419)scale(0.1 -0.1)">
       <use xlink:href="#DejaVuSans-2212"/>
       <use x="83.789062" xlink:href="#DejaVuSans-33"/>
      </g>
     </g>
    </g>
    <g id="ytick_4">
     <g id="line2d_11">
      <g>
       <use style="stroke:#000000;stroke-width:0.8;" x="57.6" xlink:href="#mcf7429a96f" y="147.9168"/>
      </g>
     </g>
     <g id="text_11">
      <!-- −2 -->
      <g transform="translate(35.857813 151.716019)scale(0.1 -0.1)">
       <use xlink:href="#DejaVuSans-2212"/>
       <use x="83.789062" xlink:href="#DejaVuSans-32"/>
      </g>
     </g>
    </g>
    <g id="ytick_5">
     <g id="line2d_12">
      <g>
       <use style="stroke:#000000;stroke-width:0.8;" x="57.6" xlink:href="#mcf7429a96f" y="94.6944"/>
      </g>
     </g>
     <g id="text_12">
      <!-- −1 -->
      <g transform="translate(35.857813 98.493619)scale(0.1 -0.1)">
       <use xlink:href="#DejaVuSans-2212"/>
       <use x="83.789062" xlink:href="#DejaVuSans-31"/>
      </g>
     </g>
    </g>
    <g id="ytick_6">
     <g id="line2d_13">
      <g>
       <use style="stroke:#000000;stroke-width:0.8;" x="57.6" xlink:href="#mcf7429a96f" y="41.472"/>
      </g>
     </g>
     <g id="text_13">
      <!-- 0 -->
      <g transform="translate(44.2375 45.271219)scale(0.1 -0.1)">
       <use xlink:href="#DejaVuSans-30"/>
      </g>
     </g>
    </g>
   </g>
   <g id="patch_3">
    <path d="M 57.6 307.584 
L 57.6 41.472 
" style="fill:none;stroke:#000000;stroke-linecap:square;stroke-linejoin:miter;stroke-width:0.8;"/>
   </g>
   <g id="patch_4">
    <path d="M 414.72 307.584 
L 414.72 41.472 
" style="fill:none;stroke:#000000;stroke-linecap:square;stroke-linejoin:miter;stroke-width:0.8;"/>
   </g>
   <g id="patch_5">
    <path d="M 57.6 307.584 
L 414.72 307.584 
" style="fill:none;stroke:#000000;stroke-linecap:square;stroke-linejoin:miter;stroke-width:0.8;"/>
   </g>
   <g id="patch_6">
    <path d="M 57.6 41.472 
L 414.72 41.472 
" style="fill:none;stroke:#000000;stroke-linecap:square;stroke-linejoin:miter;stroke-width:0.8;"/>
   </g>
  </g>
 </g>
 <defs>
  <clipPath id="pe4514ac4a6">
   <rect height="266.112" width="357.12" x="57.6" y="41.472"/>
  </clipPath>
 </defs>
</svg>
