<?xml version="1.0" encoding="utf-8" standalone="no"?>
<!DOCTYPE svg PUBLIC "-//W3C//DTD SVG 1.1//EN"
  "http://www.w3.org/Graphics/SVG/1.1/DTD/svg11.dtd">
<!-- Created with matplotlib (http://matplotlib.org/) -->
<svg height="345.6pt" version="1.1" viewBox="0 0 460.8 345.6" width="460.8pt" xmlns="http://www.w3.org/2000/svg" xmlns:xlink="http://www.w3.org/1999/xlink">
 <defs>
  <style type="text/css">
*{stroke-linecap:butt;stroke-linejoin:round;}
  </style>
 </defs>
 <g id="figure_1">
  <g id="patch_1">
   <path d="M 0 345.6 
L 460.8 345.6 
L 460.8 0 
L 0 0 
z
" style="fill:#ffffff;"/>
  </g>
  <g id="axes_1">
   <g id="patch_2">
    <path d="M 57.6 307.584 
L 414.72 307.584 
L 414.72 41.472 
L 57.6 41.472 
z
" style="fill:#ffffff;"/>
   </g>
   <g id="PathCollection_1">
    <defs>
     <path d="M 0 0.612372 
C 0.162403 0.612372 0.318176 0.547849 0.433013 0.433013 
C 0.547849 0.318176 0.612372 0.162403 0.612372 0 
C 0.612372 -0.162403 0.547849 -0.318176 0.433013 -0.433013 
C 0.318176 -0.547849 0.162403 -0.612372 0 -0.612372 
C -0.162403 -0.612372 -0.318176 -0.547849 -0.433013 -0.433013 
C -0.547849 -0.318176 -0.612372 -0.162403 -0.612372 0 
C -0.612372 0.162403 -0.547849 0.318176 -0.433013 0.433013 
C -0.318176 0.547849 -0.162403 0.612372 0 0.612372 
z
" id="m217331bc2f" style="stroke:#000000;"/>
    </defs>
    <g clip-path="url(#pf0224dcd3e)">
     <use style="stroke:#000000;" x="81.408" xlink:href="#m217331bc2f" y="79.488"/>
     <use style="stroke:#000000;" x="89.230219" xlink:href="#m217331bc2f" y="110.819445"/>
     <use style="stroke:#000000;" x="405.1968" xlink:href="#m217331bc2f" y="254.3616"/>
     <use style="stroke:#000000;" x="345.798677" xlink:href="#m217331bc2f" y="227.213874"/>
     <use style="stroke:#000000;" x="83.155748" xlink:href="#m217331bc2f" y="95.081839"/>
     <use style="stroke:#000000;" x="123.908116" xlink:href="#m217331bc2f" y="142.832302"/>
     <use style="stroke:#000000;" x="81.408" xlink:href="#m217331bc2f" y="79.488"/>
     <use style="stroke:#000000;" x="319.624316" xlink:href="#m217331bc2f" y="179.021876"/>
     <use style="stroke:#000000;" x="82.747565" xlink:href="#m217331bc2f" y="93.211195"/>
     <use style="stroke:#000000;" x="82.28483" xlink:href="#m217331bc2f" y="90.673378"/>
     <use style="stroke:#000000;" x="167.1168" xlink:href="#m217331bc2f" y="159.3216"/>
     <use style="stroke:#000000;" x="87.04071" xlink:href="#m217331bc2f" y="106.476517"/>
     <use style="stroke:#000000;" x="374.776147" xlink:href="#m217331bc2f" y="244.056381"/>
     <use style="stroke:#000000;" x="386.343453" xlink:href="#m217331bc2f" y="248.566151"/>
     <use style="stroke:#000000;" x="133.750529" xlink:href="#m217331bc2f" y="147.718769"/>
     <use style="stroke:#000000;" x="126.498361" xlink:href="#m217331bc2f" y="144.209418"/>
     <use style="stroke:#000000;" x="131.051138" xlink:href="#m217331bc2f" y="146.467753"/>
     <use style="stroke:#000000;" x="89.843941" xlink:href="#m217331bc2f" y="111.900542"/>
     <use style="stroke:#000000;" x="393.906702" xlink:href="#m217331bc2f" y="251.091839"/>
     <use style="stroke:#000000;" x="83.272588" xlink:href="#m217331bc2f" y="95.565233"/>
     <use style="stroke:#000000;" x="87.896231" xlink:href="#m217331bc2f" y="108.276869"/>
     <use style="stroke:#000000;" x="159.456985" xlink:href="#m217331bc2f" y="157.163846"/>
     <use style="stroke:#000000;" x="269.505386" xlink:href="#m217331bc2f" y="173.353908"/>
     <use style="stroke:#000000;" x="118.870053" xlink:href="#m217331bc2f" y="139.933287"/>
     <use style="stroke:#000000;" x="122.623032" xlink:href="#m217331bc2f" y="142.121804"/>
     <use style="stroke:#000000;" x="83.981518" xlink:href="#m217331bc2f" y="98.223018"/>
     <use style="stroke:#000000;" x="167.1168" xlink:href="#m217331bc2f" y="159.3216"/>
     <use style="stroke:#000000;" x="93.513248" xlink:href="#m217331bc2f" y="117.516615"/>
     <use style="stroke:#000000;" x="167.1168" xlink:href="#m217331bc2f" y="159.3216"/>
     <use style="stroke:#000000;" x="81.61609" xlink:href="#m217331bc2f" y="85.024467"/>
     <use style="stroke:#000000;" x="81.408" xlink:href="#m217331bc2f" y="79.488"/>
     <use style="stroke:#000000;" x="141.666673" xlink:href="#m217331bc2f" y="151.061055"/>
     <use style="stroke:#000000;" x="375.789947" xlink:href="#m217331bc2f" y="244.487675"/>
     <use style="stroke:#000000;" x="167.1168" xlink:href="#m217331bc2f" y="159.3216"/>
     <use style="stroke:#000000;" x="81.408" xlink:href="#m217331bc2f" y="79.488"/>
     <use style="stroke:#000000;" x="92.031843" xlink:href="#m217331bc2f" y="115.399825"/>
     <use style="stroke:#000000;" x="119.816963" xlink:href="#m217331bc2f" y="140.502263"/>
     <use style="stroke:#000000;" x="87.68713" xlink:href="#m217331bc2f" y="107.850563"/>
     <use style="stroke:#000000;" x="395.689244" xlink:href="#m217331bc2f" y="251.64548"/>
     <use style="stroke:#000000;" x="128.200653" xlink:href="#m217331bc2f" y="145.076891"/>
     <use style="stroke:#000000;" x="81.873115" xlink:href="#m217331bc2f" y="87.703795"/>
     <use style="stroke:#000000;" x="81.436238" xlink:href="#m217331bc2f" y="81.546817"/>
     <use style="stroke:#000000;" x="82.475666" xlink:href="#m217331bc2f" y="91.790747"/>
     <use style="stroke:#000000;" x="112.948497" xlink:href="#m217331bc2f" y="136.081805"/>
     <use style="stroke:#000000;" x="119.390893" xlink:href="#m217331bc2f" y="140.247709"/>
     <use style="stroke:#000000;" x="160.773804" xlink:href="#m217331bc2f" y="157.552435"/>
     <use style="stroke:#000000;" x="145.617141" xlink:href="#m217331bc2f" y="152.568908"/>
     <use style="stroke:#000000;" x="186.251842" xlink:href="#m217331bc2f" y="163.773157"/>
     <use style="stroke:#000000;" x="371.986315" xlink:href="#m217331bc2f" y="242.829114"/>
     <use style="stroke:#000000;" x="137.939212" xlink:href="#m217331bc2f" y="149.544163"/>
     <use style="stroke:#000000;" x="383.470993" xlink:href="#m217331bc2f" y="247.525196"/>
     <use style="stroke:#000000;" x="85.15786" xlink:href="#m217331bc2f" y="101.84625"/>
     <use style="stroke:#000000;" x="320.483797" xlink:href="#m217331bc2f" y="186.423553"/>
     <use style="stroke:#000000;" x="81.702744" xlink:href="#m217331bc2f" y="86.058363"/>
     <use style="stroke:#000000;" x="319.488" xlink:href="#m217331bc2f" y="174.528"/>
     <use style="stroke:#000000;" x="88.7398" xlink:href="#m217331bc2f" y="109.917678"/>
     <use style="stroke:#000000;" x="387.548738" xlink:href="#m217331bc2f" y="248.988912"/>
     <use style="stroke:#000000;" x="118.590038" xlink:href="#m217331bc2f" y="139.762746"/>
     <use style="stroke:#000000;" x="390.563432" xlink:href="#m217331bc2f" y="250.011894"/>
     <use style="stroke:#000000;" x="361.92927" xlink:href="#m217331bc2f" y="237.840174"/>
     <use style="stroke:#000000;" x="154.372673" xlink:href="#m217331bc2f" y="155.588966"/>
     <use style="stroke:#000000;" x="139.241866" xlink:href="#m217331bc2f" y="150.085235"/>
     <use style="stroke:#000000;" x="387.717505" xlink:href="#m217331bc2f" y="249.047468"/>
     <use style="stroke:#000000;" x="377.931415" xlink:href="#m217331bc2f" y="245.374312"/>
     <use style="stroke:#000000;" x="93.889839" xlink:href="#m217331bc2f" y="118.027872"/>
     <use style="stroke:#000000;" x="81.408" xlink:href="#m217331bc2f" y="79.488"/>
     <use style="stroke:#000000;" x="96.474094" xlink:href="#m217331bc2f" y="130.302941"/>
     <use style="stroke:#000000;" x="110.745342" xlink:href="#m217331bc2f" y="134.75125"/>
     <use style="stroke:#000000;" x="109.5155" xlink:href="#m217331bc2f" y="133.578629"/>
     <use style="stroke:#000000;" x="94.435285" xlink:href="#m217331bc2f" y="118.750915"/>
     <use style="stroke:#000000;" x="374.489064" xlink:href="#m217331bc2f" y="243.93286"/>
     <use style="stroke:#000000;" x="148.790213" xlink:href="#m217331bc2f" y="153.71191"/>
     <use style="stroke:#000000;" x="157.49162" xlink:href="#m217331bc2f" y="156.569406"/>
     <use style="stroke:#000000;" x="85.689094" xlink:href="#m217331bc2f" y="103.662421"/>
     <use style="stroke:#000000;" x="271.837506" xlink:href="#m217331bc2f" y="173.467094"/>
     <use style="stroke:#000000;" x="167.1168" xlink:href="#m217331bc2f" y="159.3216"/>
     <use style="stroke:#000000;" x="132.214404" xlink:href="#m217331bc2f" y="147.014433"/>
     <use style="stroke:#000000;" x="319.577921" xlink:href="#m217331bc2f" y="178.186176"/>
     <use style="stroke:#000000;" x="319.584113" xlink:href="#m217331bc2f" y="178.308783"/>
     <use style="stroke:#000000;" x="85.571409" xlink:href="#m217331bc2f" y="102.962186"/>
     <use style="stroke:#000000;" x="82.757208" xlink:href="#m217331bc2f" y="93.258576"/>
     <use style="stroke:#000000;" x="88.287594" xlink:href="#m217331bc2f" y="109.053154"/>
     <use style="stroke:#000000;" x="90.797832" xlink:href="#m217331bc2f" y="113.488503"/>
     <use style="stroke:#000000;" x="88.781969" xlink:href="#m217331bc2f" y="109.996631"/>
     <use style="stroke:#000000;" x="90.175761" xlink:href="#m217331bc2f" y="112.464983"/>
     <use style="stroke:#000000;" x="396.25605" xlink:href="#m217331bc2f" y="254.327448"/>
     <use style="stroke:#000000;" x="405.1968" xlink:href="#m217331bc2f" y="254.3616"/>
     <use style="stroke:#000000;" x="386.088812" xlink:href="#m217331bc2f" y="254.202083"/>
     <use style="stroke:#000000;" x="342.483477" xlink:href="#m217331bc2f" y="224.422327"/>
     <use style="stroke:#000000;" x="338.614946" xlink:href="#m217331bc2f" y="224.55178"/>
     <use style="stroke:#000000;" x="346.642145" xlink:href="#m217331bc2f" y="227.882033"/>
     <use style="stroke:#000000;" x="82.867522" xlink:href="#m217331bc2f" y="97.978296"/>
     <use style="stroke:#000000;" x="82.800623" xlink:href="#m217331bc2f" y="94.477303"/>
     <use style="stroke:#000000;" x="81.923457" xlink:href="#m217331bc2f" y="88.126688"/>
     <use style="stroke:#000000;" x="128.193785" xlink:href="#m217331bc2f" y="161.24717"/>
     <use style="stroke:#000000;" x="130.602658" xlink:href="#m217331bc2f" y="151.285841"/>
     <use style="stroke:#000000;" x="126.503819" xlink:href="#m217331bc2f" y="144.212246"/>
     <use style="stroke:#000000;" x="81.437751" xlink:href="#m217331bc2f" y="81.600953"/>
     <use style="stroke:#000000;" x="81.510572" xlink:href="#m217331bc2f" y="83.392444"/>
     <use style="stroke:#000000;" x="81.699142" xlink:href="#m217331bc2f" y="86.018805"/>
     <use style="stroke:#000000;" x="319.517159" xlink:href="#m217331bc2f" y="176.619945"/>
     <use style="stroke:#000000;" x="318.366484" xlink:href="#m217331bc2f" y="174.527472"/>
     <use style="stroke:#000000;" x="319.712041" xlink:href="#m217331bc2f" y="180.269505"/>
     <use style="stroke:#000000;" x="82.145512" xlink:href="#m217331bc2f" y="93.975111"/>
     <use style="stroke:#000000;" x="82.450922" xlink:href="#m217331bc2f" y="91.652261"/>
     <use style="stroke:#000000;" x="83.269023" xlink:href="#m217331bc2f" y="96.106079"/>
     <use style="stroke:#000000;" x="83.255572" xlink:href="#m217331bc2f" y="95.495095"/>
     <use style="stroke:#000000;" x="81.652175" xlink:href="#m217331bc2f" y="86.657148"/>
     <use style="stroke:#000000;" x="82.625318" xlink:href="#m217331bc2f" y="92.593857"/>
     <use style="stroke:#000000;" x="167.180771" xlink:href="#m217331bc2f" y="162.411839"/>
     <use style="stroke:#000000;" x="167.1168" xlink:href="#m217331bc2f" y="159.3216"/>
     <use style="stroke:#000000;" x="167.260304" xlink:href="#m217331bc2f" y="163.930976"/>
     <use style="stroke:#000000;" x="90.448576" xlink:href="#m217331bc2f" y="114.529204"/>
     <use style="stroke:#000000;" x="88.296475" xlink:href="#m217331bc2f" y="113.517622"/>
     <use style="stroke:#000000;" x="87.769185" xlink:href="#m217331bc2f" y="108.018852"/>
     <use style="stroke:#000000;" x="354.292542" xlink:href="#m217331bc2f" y="241.842938"/>
     <use style="stroke:#000000;" x="370.754641" xlink:href="#m217331bc2f" y="243.842355"/>
     <use style="stroke:#000000;" x="369.693424" xlink:href="#m217331bc2f" y="243.870456"/>
     <use style="stroke:#000000;" x="389.440984" xlink:href="#m217331bc2f" y="249.636634"/>
     <use style="stroke:#000000;" x="395.141208" xlink:href="#m217331bc2f" y="251.476855"/>
     <use style="stroke:#000000;" x="380.473051" xlink:href="#m217331bc2f" y="248.970555"/>
     <use style="stroke:#000000;" x="132.507409" xlink:href="#m217331bc2f" y="154.455133"/>
     <use style="stroke:#000000;" x="140.704656" xlink:href="#m217331bc2f" y="157.734864"/>
     <use style="stroke:#000000;" x="132.490288" xlink:href="#m217331bc2f" y="147.142383"/>
     <use style="stroke:#000000;" x="120.524846" xlink:href="#m217331bc2f" y="147.876928"/>
     <use style="stroke:#000000;" x="128.281935" xlink:href="#m217331bc2f" y="145.117602"/>
     <use style="stroke:#000000;" x="124.413737" xlink:href="#m217331bc2f" y="143.749378"/>
     <use style="stroke:#000000;" x="124.630841" xlink:href="#m217331bc2f" y="143.223762"/>
     <use style="stroke:#000000;" x="125.743016" xlink:href="#m217331bc2f" y="144.137638"/>
     <use style="stroke:#000000;" x="130.473288" xlink:href="#m217331bc2f" y="149.308647"/>
     <use style="stroke:#000000;" x="88.956658" xlink:href="#m217331bc2f" y="112.608073"/>
     <use style="stroke:#000000;" x="88.4921" xlink:href="#m217331bc2f" y="113.241124"/>
     <use style="stroke:#000000;" x="89.297391" xlink:href="#m217331bc2f" y="110.940247"/>
     <use style="stroke:#000000;" x="393.645609" xlink:href="#m217331bc2f" y="251.009479"/>
     <use style="stroke:#000000;" x="373.56456" xlink:href="#m217331bc2f" y="248.134072"/>
     <use style="stroke:#000000;" x="383.483096" xlink:href="#m217331bc2f" y="252.408287"/>
     <use style="stroke:#000000;" x="85.62249" xlink:href="#m217331bc2f" y="104.8857"/>
     <use style="stroke:#000000;" x="82.128048" xlink:href="#m217331bc2f" y="91.791923"/>
     <use style="stroke:#000000;" x="81.408" xlink:href="#m217331bc2f" y="79.488"/>
     <use style="stroke:#000000;" x="93.765196" xlink:href="#m217331bc2f" y="121.202051"/>
     <use style="stroke:#000000;" x="89.273382" xlink:href="#m217331bc2f" y="118.644182"/>
     <use style="stroke:#000000;" x="87.270223" xlink:href="#m217331bc2f" y="110.758918"/>
     <use style="stroke:#000000;" x="154.131075" xlink:href="#m217331bc2f" y="160.937757"/>
     <use style="stroke:#000000;" x="165.149292" xlink:href="#m217331bc2f" y="158.790389"/>
     <use style="stroke:#000000;" x="155.616274" xlink:href="#m217331bc2f" y="155.985486"/>
     <use style="stroke:#000000;" x="248.88026" xlink:href="#m217331bc2f" y="172.055477"/>
     <use style="stroke:#000000;" x="308.862164" xlink:href="#m217331bc2f" y="174.479584"/>
     <use style="stroke:#000000;" x="254.971409" xlink:href="#m217331bc2f" y="172.4972"/>
     <use style="stroke:#000000;" x="117.835846" xlink:href="#m217331bc2f" y="145.705386"/>
     <use style="stroke:#000000;" x="124.00698" xlink:href="#m217331bc2f" y="142.88619"/>
     <use style="stroke:#000000;" x="113.984167" xlink:href="#m217331bc2f" y="136.795077"/>
     <use style="stroke:#000000;" x="122.789457" xlink:href="#m217331bc2f" y="142.214881"/>
     <use style="stroke:#000000;" x="124.492459" xlink:href="#m217331bc2f" y="147.21977"/>
     <use style="stroke:#000000;" x="123.904464" xlink:href="#m217331bc2f" y="147.549753"/>
     <use style="stroke:#000000;" x="93.404108" xlink:href="#m217331bc2f" y="117.366531"/>
     <use style="stroke:#000000;" x="85.24528" xlink:href="#m217331bc2f" y="103.083196"/>
     <use style="stroke:#000000;" x="88.040377" xlink:href="#m217331bc2f" y="108.565978"/>
     <use style="stroke:#000000;" x="165.564032" xlink:href="#m217331bc2f" y="158.903641"/>
     <use style="stroke:#000000;" x="166.666154" xlink:href="#m217331bc2f" y="159.201275"/>
     <use style="stroke:#000000;" x="167.1168" xlink:href="#m217331bc2f" y="159.3216"/>
     <use style="stroke:#000000;" x="92.571853" xlink:href="#m217331bc2f" y="117.569344"/>
     <use style="stroke:#000000;" x="93.095381" xlink:href="#m217331bc2f" y="116.937159"/>
     <use style="stroke:#000000;" x="98.066988" xlink:href="#m217331bc2f" y="136.905084"/>
     <use style="stroke:#000000;" x="167.1168" xlink:href="#m217331bc2f" y="159.3216"/>
     <use style="stroke:#000000;" x="167.1168" xlink:href="#m217331bc2f" y="159.3216"/>
     <use style="stroke:#000000;" x="81.408" xlink:href="#m217331bc2f" y="79.488"/>
     <use style="stroke:#000000;" x="82.238376" xlink:href="#m217331bc2f" y="92.591044"/>
     <use style="stroke:#000000;" x="81.889997" xlink:href="#m217331bc2f" y="91.188877"/>
     <use style="stroke:#000000;" x="136.605797" xlink:href="#m217331bc2f" y="148.977574"/>
     <use style="stroke:#000000;" x="356.022246" xlink:href="#m217331bc2f" y="241.068992"/>
     <use style="stroke:#000000;" x="167.1168" xlink:href="#m217331bc2f" y="159.3216"/>
     <use style="stroke:#000000;" x="81.651402" xlink:href="#m217331bc2f" y="85.468509"/>
     <use style="stroke:#000000;" x="93.83987" xlink:href="#m217331bc2f" y="117.960614"/>
     <use style="stroke:#000000;" x="90.226453" xlink:href="#m217331bc2f" y="116.428301"/>
     <use style="stroke:#000000;" x="114.882904" xlink:href="#m217331bc2f" y="137.399609"/>
     <use style="stroke:#000000;" x="91.60925" xlink:href="#m217331bc2f" y="118.200778"/>
     <use style="stroke:#000000;" x="372.310981" xlink:href="#m217331bc2f" y="247.478846"/>
     <use style="stroke:#000000;" x="140.79828" xlink:href="#m217331bc2f" y="150.71616"/>
     <use style="stroke:#000000;" x="82.035453" xlink:href="#m217331bc2f" y="89.677853"/>
     <use style="stroke:#000000;" x="82.373942" xlink:href="#m217331bc2f" y="95.942279"/>
     <use style="stroke:#000000;" x="81.437608" xlink:href="#m217331bc2f" y="81.595908"/>
     <use style="stroke:#000000;" x="82.837529" xlink:href="#m217331bc2f" y="98.583349"/>
     <use style="stroke:#000000;" x="124.965752" xlink:href="#m217331bc2f" y="143.403237"/>
     <use style="stroke:#000000;" x="132.990034" xlink:href="#m217331bc2f" y="147.372524"/>
     <use style="stroke:#000000;" x="164.525942" xlink:href="#m217331bc2f" y="158.61887"/>
     <use style="stroke:#000000;" x="156.746855" xlink:href="#m217331bc2f" y="162.66361"/>
     <use style="stroke:#000000;" x="141.160929" xlink:href="#m217331bc2f" y="157.005471"/>
     <use style="stroke:#000000;" x="141.350877" xlink:href="#m217331bc2f" y="151.98464"/>
     <use style="stroke:#000000;" x="189.274165" xlink:href="#m217331bc2f" y="164.371834"/>
     <use style="stroke:#000000;" x="363.041719" xlink:href="#m217331bc2f" y="244.525528"/>
     <use style="stroke:#000000;" x="373.748527" xlink:href="#m217331bc2f" y="243.611349"/>
     <use style="stroke:#000000;" x="139.320781" xlink:href="#m217331bc2f" y="150.117627"/>
     <use style="stroke:#000000;" x="142.618237" xlink:href="#m217331bc2f" y="151.433285"/>
     <use style="stroke:#000000;" x="358.970006" xlink:href="#m217331bc2f" y="248.093151"/>
     <use style="stroke:#000000;" x="378.512907" xlink:href="#m217331bc2f" y="250.003644"/>
     <use style="stroke:#000000;" x="89.486323" xlink:href="#m217331bc2f" y="118.330883"/>
     <use style="stroke:#000000;" x="292.324444" xlink:href="#m217331bc2f" y="185.726273"/>
     <use style="stroke:#000000;" x="83.094168" xlink:href="#m217331bc2f" y="94.811406"/>
     <use style="stroke:#000000;" x="319.488" xlink:href="#m217331bc2f" y="174.528"/>
     <use style="stroke:#000000;" x="319.55376" xlink:href="#m217331bc2f" y="177.660804"/>
     <use style="stroke:#000000;" x="89.502596" xlink:href="#m217331bc2f" y="120.9326"/>
     <use style="stroke:#000000;" x="86.159443" xlink:href="#m217331bc2f" y="104.443941"/>
     <use style="stroke:#000000;" x="371.066803" xlink:href="#m217331bc2f" y="249.980773"/>
     <use style="stroke:#000000;" x="131.663694" xlink:href="#m217331bc2f" y="146.757084"/>
     <use style="stroke:#000000;" x="385.311468" xlink:href="#m217331bc2f" y="248.19768"/>
     <use style="stroke:#000000;" x="362.294778" xlink:href="#m217331bc2f" y="246.823241"/>
     <use style="stroke:#000000;" x="344.8979" xlink:href="#m217331bc2f" y="234.984262"/>
     <use style="stroke:#000000;" x="154.598434" xlink:href="#m217331bc2f" y="155.661512"/>
     <use style="stroke:#000000;" x="150.464272" xlink:href="#m217331bc2f" y="166.703044"/>
     <use style="stroke:#000000;" x="149.173871" xlink:href="#m217331bc2f" y="165.906961"/>
     <use style="stroke:#000000;" x="135.798653" xlink:href="#m217331bc2f" y="150.436572"/>
     <use style="stroke:#000000;" x="395.662308" xlink:href="#m217331bc2f" y="251.637225"/>
     <use style="stroke:#000000;" x="370.435042" xlink:href="#m217331bc2f" y="246.195089"/>
     <use style="stroke:#000000;" x="376.557054" xlink:href="#m217331bc2f" y="244.967358"/>
     <use style="stroke:#000000;" x="388.024922" xlink:href="#m217331bc2f" y="249.153729"/>
     <use style="stroke:#000000;" x="96.070985" xlink:href="#m217331bc2f" y="123.846286"/>
     <use style="stroke:#000000;" x="93.749126" xlink:href="#m217331bc2f" y="123.837453"/>
     <use style="stroke:#000000;" x="81.640145" xlink:href="#m217331bc2f" y="85.330787"/>
     <use style="stroke:#000000;" x="81.408498" xlink:href="#m217331bc2f" y="79.762706"/>
     <use style="stroke:#000000;" x="95.648592" xlink:href="#m217331bc2f" y="125.514408"/>
     <use style="stroke:#000000;" x="95.703383" xlink:href="#m217331bc2f" y="129.02397"/>
     <use style="stroke:#000000;" x="113.453725" xlink:href="#m217331bc2f" y="150.48684"/>
     <use style="stroke:#000000;" x="103.218485" xlink:href="#m217331bc2f" y="128.31315"/>
     <use style="stroke:#000000;" x="116.264636" xlink:href="#m217331bc2f" y="153.906673"/>
     <use style="stroke:#000000;" x="112.747876" xlink:href="#m217331bc2f" y="136.277939"/>
     <use style="stroke:#000000;" x="87.478127" xlink:href="#m217331bc2f" y="107.415904"/>
     <use style="stroke:#000000;" x="89.27774" xlink:href="#m217331bc2f" y="114.437497"/>
     <use style="stroke:#000000;" x="362.78849" xlink:href="#m217331bc2f" y="239.39732"/>
     <use style="stroke:#000000;" x="140.416976" xlink:href="#m217331bc2f" y="150.563123"/>
     <use style="stroke:#000000;" x="156.471393" xlink:href="#m217331bc2f" y="156.253805"/>
     <use style="stroke:#000000;" x="167.1168" xlink:href="#m217331bc2f" y="159.3216"/>
     <use style="stroke:#000000;" x="84.764036" xlink:href="#m217331bc2f" y="101.76141"/>
     <use style="stroke:#000000;" x="90.367724" xlink:href="#m217331bc2f" y="123.859336"/>
     <use style="stroke:#000000;" x="264.137817" xlink:href="#m217331bc2f" y="174.944654"/>
     <use style="stroke:#000000;" x="273.659406" xlink:href="#m217331bc2f" y="175.694119"/>
     <use style="stroke:#000000;" x="167.1168" xlink:href="#m217331bc2f" y="159.3216"/>
     <use style="stroke:#000000;" x="167.1168" xlink:href="#m217331bc2f" y="159.3216"/>
     <use style="stroke:#000000;" x="134.045085" xlink:href="#m217331bc2f" y="147.851608"/>
     <use style="stroke:#000000;" x="301.767839" xlink:href="#m217331bc2f" y="184.236737"/>
     <use style="stroke:#000000;" x="315.451074" xlink:href="#m217331bc2f" y="180.096236"/>
     <use style="stroke:#000000;" x="81.898103" xlink:href="#m217331bc2f" y="87.916553"/>
    </g>
   </g>
   <g id="PathCollection_2">
    <defs>
     <path d="M 0 0.935414 
C 0.248075 0.935414 0.486022 0.836853 0.661438 0.661438 
C 0.836853 0.486022 0.935414 0.248075 0.935414 0 
C 0.935414 -0.248075 0.836853 -0.486022 0.661438 -0.661438 
C 0.486022 -0.836853 0.248075 -0.935414 0 -0.935414 
C -0.248075 -0.935414 -0.486022 -0.836853 -0.661438 -0.661438 
C -0.836853 -0.486022 -0.935414 -0.248075 -0.935414 0 
C -0.935414 0.248075 -0.836853 0.486022 -0.661438 0.661438 
C -0.486022 0.836853 -0.248075 0.935414 0 0.935414 
z
" id="m2702707809" style="stroke:#0000ff;"/>
    </defs>
    <g clip-path="url(#pf0224dcd3e)">
     <use style="fill:#0000ff;stroke:#0000ff;" x="81.408" xlink:href="#m2702707809" y="79.488"/>
     <use style="fill:#0000ff;stroke:#0000ff;" x="89.230219" xlink:href="#m2702707809" y="110.819445"/>
     <use style="fill:#0000ff;stroke:#0000ff;" x="405.1968" xlink:href="#m2702707809" y="254.3616"/>
     <use style="fill:#0000ff;stroke:#0000ff;" x="345.798677" xlink:href="#m2702707809" y="227.213874"/>
     <use style="fill:#0000ff;stroke:#0000ff;" x="83.155748" xlink:href="#m2702707809" y="95.081839"/>
     <use style="fill:#0000ff;stroke:#0000ff;" x="123.908116" xlink:href="#m2702707809" y="142.832302"/>
     <use style="fill:#0000ff;stroke:#0000ff;" x="81.408" xlink:href="#m2702707809" y="79.488"/>
     <use style="fill:#0000ff;stroke:#0000ff;" x="319.624316" xlink:href="#m2702707809" y="179.021876"/>
     <use style="fill:#0000ff;stroke:#0000ff;" x="82.747565" xlink:href="#m2702707809" y="93.211195"/>
     <use style="fill:#0000ff;stroke:#0000ff;" x="82.28483" xlink:href="#m2702707809" y="90.673378"/>
     <use style="fill:#0000ff;stroke:#0000ff;" x="167.1168" xlink:href="#m2702707809" y="159.3216"/>
     <use style="fill:#0000ff;stroke:#0000ff;" x="87.04071" xlink:href="#m2702707809" y="106.476517"/>
     <use style="fill:#0000ff;stroke:#0000ff;" x="374.776147" xlink:href="#m2702707809" y="244.056381"/>
     <use style="fill:#0000ff;stroke:#0000ff;" x="386.343453" xlink:href="#m2702707809" y="248.566151"/>
     <use style="fill:#0000ff;stroke:#0000ff;" x="133.750529" xlink:href="#m2702707809" y="147.718769"/>
     <use style="fill:#0000ff;stroke:#0000ff;" x="126.498361" xlink:href="#m2702707809" y="144.209418"/>
     <use style="fill:#0000ff;stroke:#0000ff;" x="131.051138" xlink:href="#m2702707809" y="146.467753"/>
     <use style="fill:#0000ff;stroke:#0000ff;" x="89.843941" xlink:href="#m2702707809" y="111.900542"/>
     <use style="fill:#0000ff;stroke:#0000ff;" x="393.906702" xlink:href="#m2702707809" y="251.091839"/>
     <use style="fill:#0000ff;stroke:#0000ff;" x="83.272588" xlink:href="#m2702707809" y="95.565233"/>
     <use style="fill:#0000ff;stroke:#0000ff;" x="87.896231" xlink:href="#m2702707809" y="108.276869"/>
     <use style="fill:#0000ff;stroke:#0000ff;" x="159.456985" xlink:href="#m2702707809" y="157.163846"/>
     <use style="fill:#0000ff;stroke:#0000ff;" x="269.505386" xlink:href="#m2702707809" y="173.353908"/>
     <use style="fill:#0000ff;stroke:#0000ff;" x="118.870053" xlink:href="#m2702707809" y="139.933287"/>
     <use style="fill:#0000ff;stroke:#0000ff;" x="122.623032" xlink:href="#m2702707809" y="142.121804"/>
     <use style="fill:#0000ff;stroke:#0000ff;" x="83.981518" xlink:href="#m2702707809" y="98.223018"/>
     <use style="fill:#0000ff;stroke:#0000ff;" x="167.1168" xlink:href="#m2702707809" y="159.3216"/>
     <use style="fill:#0000ff;stroke:#0000ff;" x="93.513248" xlink:href="#m2702707809" y="117.516615"/>
     <use style="fill:#0000ff;stroke:#0000ff;" x="167.1168" xlink:href="#m2702707809" y="159.3216"/>
     <use style="fill:#0000ff;stroke:#0000ff;" x="81.61609" xlink:href="#m2702707809" y="85.024467"/>
     <use style="fill:#0000ff;stroke:#0000ff;" x="81.408" xlink:href="#m2702707809" y="79.488"/>
     <use style="fill:#0000ff;stroke:#0000ff;" x="141.666673" xlink:href="#m2702707809" y="151.061055"/>
     <use style="fill:#0000ff;stroke:#0000ff;" x="375.789947" xlink:href="#m2702707809" y="244.487675"/>
     <use style="fill:#0000ff;stroke:#0000ff;" x="167.1168" xlink:href="#m2702707809" y="159.3216"/>
     <use style="fill:#0000ff;stroke:#0000ff;" x="81.408" xlink:href="#m2702707809" y="79.488"/>
     <use style="fill:#0000ff;stroke:#0000ff;" x="92.031843" xlink:href="#m2702707809" y="115.399825"/>
     <use style="fill:#0000ff;stroke:#0000ff;" x="119.816963" xlink:href="#m2702707809" y="140.502263"/>
     <use style="fill:#0000ff;stroke:#0000ff;" x="87.68713" xlink:href="#m2702707809" y="107.850563"/>
     <use style="fill:#0000ff;stroke:#0000ff;" x="395.689244" xlink:href="#m2702707809" y="251.64548"/>
     <use style="fill:#0000ff;stroke:#0000ff;" x="128.200653" xlink:href="#m2702707809" y="145.076891"/>
     <use style="fill:#0000ff;stroke:#0000ff;" x="81.873115" xlink:href="#m2702707809" y="87.703795"/>
     <use style="fill:#0000ff;stroke:#0000ff;" x="81.436238" xlink:href="#m2702707809" y="81.546817"/>
     <use style="fill:#0000ff;stroke:#0000ff;" x="82.475666" xlink:href="#m2702707809" y="91.790747"/>
     <use style="fill:#0000ff;stroke:#0000ff;" x="112.948497" xlink:href="#m2702707809" y="136.081805"/>
     <use style="fill:#0000ff;stroke:#0000ff;" x="119.390893" xlink:href="#m2702707809" y="140.247709"/>
     <use style="fill:#0000ff;stroke:#0000ff;" x="160.773804" xlink:href="#m2702707809" y="157.552435"/>
     <use style="fill:#0000ff;stroke:#0000ff;" x="145.617141" xlink:href="#m2702707809" y="152.568908"/>
     <use style="fill:#0000ff;stroke:#0000ff;" x="186.251842" xlink:href="#m2702707809" y="163.773157"/>
     <use style="fill:#0000ff;stroke:#0000ff;" x="371.986315" xlink:href="#m2702707809" y="242.829114"/>
     <use style="fill:#0000ff;stroke:#0000ff;" x="137.939212" xlink:href="#m2702707809" y="149.544163"/>
     <use style="fill:#0000ff;stroke:#0000ff;" x="383.470993" xlink:href="#m2702707809" y="247.525196"/>
     <use style="fill:#0000ff;stroke:#0000ff;" x="85.15786" xlink:href="#m2702707809" y="101.84625"/>
     <use style="fill:#0000ff;stroke:#0000ff;" x="320.483797" xlink:href="#m2702707809" y="186.423553"/>
     <use style="fill:#0000ff;stroke:#0000ff;" x="81.702744" xlink:href="#m2702707809" y="86.058363"/>
     <use style="fill:#0000ff;stroke:#0000ff;" x="319.488" xlink:href="#m2702707809" y="174.528"/>
     <use style="fill:#0000ff;stroke:#0000ff;" x="88.7398" xlink:href="#m2702707809" y="109.917678"/>
     <use style="fill:#0000ff;stroke:#0000ff;" x="387.548738" xlink:href="#m2702707809" y="248.988912"/>
     <use style="fill:#0000ff;stroke:#0000ff;" x="118.590038" xlink:href="#m2702707809" y="139.762746"/>
     <use style="fill:#0000ff;stroke:#0000ff;" x="390.563432" xlink:href="#m2702707809" y="250.011894"/>
     <use style="fill:#0000ff;stroke:#0000ff;" x="361.92927" xlink:href="#m2702707809" y="237.840174"/>
     <use style="fill:#0000ff;stroke:#0000ff;" x="154.372673" xlink:href="#m2702707809" y="155.588966"/>
     <use style="fill:#0000ff;stroke:#0000ff;" x="139.241866" xlink:href="#m2702707809" y="150.085235"/>
     <use style="fill:#0000ff;stroke:#0000ff;" x="387.717505" xlink:href="#m2702707809" y="249.047468"/>
     <use style="fill:#0000ff;stroke:#0000ff;" x="377.931415" xlink:href="#m2702707809" y="245.374312"/>
     <use style="fill:#0000ff;stroke:#0000ff;" x="93.889839" xlink:href="#m2702707809" y="118.027872"/>
     <use style="fill:#0000ff;stroke:#0000ff;" x="81.408" xlink:href="#m2702707809" y="79.488"/>
     <use style="fill:#0000ff;stroke:#0000ff;" x="96.474094" xlink:href="#m2702707809" y="130.302941"/>
     <use style="fill:#0000ff;stroke:#0000ff;" x="110.745342" xlink:href="#m2702707809" y="134.75125"/>
     <use style="fill:#0000ff;stroke:#0000ff;" x="109.5155" xlink:href="#m2702707809" y="133.578629"/>
     <use style="fill:#0000ff;stroke:#0000ff;" x="94.435285" xlink:href="#m2702707809" y="118.750915"/>
     <use style="fill:#0000ff;stroke:#0000ff;" x="374.489064" xlink:href="#m2702707809" y="243.93286"/>
     <use style="fill:#0000ff;stroke:#0000ff;" x="148.790213" xlink:href="#m2702707809" y="153.71191"/>
     <use style="fill:#0000ff;stroke:#0000ff;" x="157.49162" xlink:href="#m2702707809" y="156.569406"/>
     <use style="fill:#0000ff;stroke:#0000ff;" x="85.689094" xlink:href="#m2702707809" y="103.662421"/>
     <use style="fill:#0000ff;stroke:#0000ff;" x="271.837506" xlink:href="#m2702707809" y="173.467094"/>
     <use style="fill:#0000ff;stroke:#0000ff;" x="167.1168" xlink:href="#m2702707809" y="159.3216"/>
     <use style="fill:#0000ff;stroke:#0000ff;" x="132.214404" xlink:href="#m2702707809" y="147.014433"/>
     <use style="fill:#0000ff;stroke:#0000ff;" x="319.577921" xlink:href="#m2702707809" y="178.186176"/>
     <use style="fill:#0000ff;stroke:#0000ff;" x="319.584113" xlink:href="#m2702707809" y="178.308783"/>
     <use style="fill:#0000ff;stroke:#0000ff;" x="85.571409" xlink:href="#m2702707809" y="102.962186"/>
    </g>
   </g>
   <g id="matplotlib.axis_1">
    <g id="xtick_1">
     <g id="line2d_1">
      <defs>
       <path d="M 0 0 
L 0 3.5 
" id="mf08d9fe71e" style="stroke:#000000;stroke-width:0.8;"/>
      </defs>
      <g>
       <use style="stroke:#000000;stroke-width:0.8;" x="81.408" xlink:href="#mf08d9fe71e" y="307.584"/>
      </g>
     </g>
     <g id="text_1">
      <!-- 0 -->
      <defs>
       <path d="M 31.78125 66.40625 
Q 24.171875 66.40625 20.328125 58.90625 
Q 16.5 51.421875 16.5 36.375 
Q 16.5 21.390625 20.328125 13.890625 
Q 24.171875 6.390625 31.78125 6.390625 
Q 39.453125 6.390625 43.28125 13.890625 
Q 47.125 21.390625 47.125 36.375 
Q 47.125 51.421875 43.28125 58.90625 
Q 39.453125 66.40625 31.78125 66.40625 
z
M 31.78125 74.21875 
Q 44.046875 74.21875 50.515625 64.515625 
Q 56.984375 54.828125 56.984375 36.375 
Q 56.984375 17.96875 50.515625 8.265625 
Q 44.046875 -1.421875 31.78125 -1.421875 
Q 19.53125 -1.421875 13.0625 8.265625 
Q 6.59375 17.96875 6.59375 36.375 
Q 6.59375 54.828125 13.0625 64.515625 
Q 19.53125 74.21875 31.78125 74.21875 
z
" id="DejaVuSans-30"/>
      </defs>
      <g transform="translate(78.22675 322.182437)scale(0.1 -0.1)">
       <use xlink:href="#DejaVuSans-30"/>
      </g>
     </g>
    </g>
    <g id="xtick_2">
     <g id="line2d_2">
      <g>
       <use style="stroke:#000000;stroke-width:0.8;" x="129.024" xlink:href="#mf08d9fe71e" y="307.584"/>
      </g>
     </g>
     <g id="text_2">
      <!-- 20 -->
      <defs>
       <path d="M 19.1875 8.296875 
L 53.609375 8.296875 
L 53.609375 0 
L 7.328125 0 
L 7.328125 8.296875 
Q 12.9375 14.109375 22.625 23.890625 
Q 32.328125 33.6875 34.8125 36.53125 
Q 39.546875 41.84375 41.421875 45.53125 
Q 43.3125 49.21875 43.3125 52.78125 
Q 43.3125 58.59375 39.234375 62.25 
Q 35.15625 65.921875 28.609375 65.921875 
Q 23.96875 65.921875 18.8125 64.3125 
Q 13.671875 62.703125 7.8125 59.421875 
L 7.8125 69.390625 
Q 13.765625 71.78125 18.9375 73 
Q 24.125 74.21875 28.421875 74.21875 
Q 39.75 74.21875 46.484375 68.546875 
Q 53.21875 62.890625 53.21875 53.421875 
Q 53.21875 48.921875 51.53125 44.890625 
Q 49.859375 40.875 45.40625 35.40625 
Q 44.1875 33.984375 37.640625 27.21875 
Q 31.109375 20.453125 19.1875 8.296875 
z
" id="DejaVuSans-32"/>
      </defs>
      <g transform="translate(122.6615 322.182437)scale(0.1 -0.1)">
       <use xlink:href="#DejaVuSans-32"/>
       <use x="63.623047" xlink:href="#DejaVuSans-30"/>
      </g>
     </g>
    </g>
    <g id="xtick_3">
     <g id="line2d_3">
      <g>
       <use style="stroke:#000000;stroke-width:0.8;" x="176.64" xlink:href="#mf08d9fe71e" y="307.584"/>
      </g>
     </g>
     <g id="text_3">
      <!-- 40 -->
      <defs>
       <path d="M 37.796875 64.3125 
L 12.890625 25.390625 
L 37.796875 25.390625 
z
M 35.203125 72.90625 
L 47.609375 72.90625 
L 47.609375 25.390625 
L 58.015625 25.390625 
L 58.015625 17.1875 
L 47.609375 17.1875 
L 47.609375 0 
L 37.796875 0 
L 37.796875 17.1875 
L 4.890625 17.1875 
L 4.890625 26.703125 
z
" id="DejaVuSans-34"/>
      </defs>
      <g transform="translate(170.2775 322.182437)scale(0.1 -0.1)">
       <use xlink:href="#DejaVuSans-34"/>
       <use x="63.623047" xlink:href="#DejaVuSans-30"/>
      </g>
     </g>
    </g>
    <g id="xtick_4">
     <g id="line2d_4">
      <g>
       <use style="stroke:#000000;stroke-width:0.8;" x="224.256" xlink:href="#mf08d9fe71e" y="307.584"/>
      </g>
     </g>
     <g id="text_4">
      <!-- 60 -->
      <defs>
       <path d="M 33.015625 40.375 
Q 26.375 40.375 22.484375 35.828125 
Q 18.609375 31.296875 18.609375 23.390625 
Q 18.609375 15.53125 22.484375 10.953125 
Q 26.375 6.390625 33.015625 6.390625 
Q 39.65625 6.390625 43.53125 10.953125 
Q 47.40625 15.53125 47.40625 23.390625 
Q 47.40625 31.296875 43.53125 35.828125 
Q 39.65625 40.375 33.015625 40.375 
z
M 52.59375 71.296875 
L 52.59375 62.3125 
Q 48.875 64.0625 45.09375 64.984375 
Q 41.3125 65.921875 37.59375 65.921875 
Q 27.828125 65.921875 22.671875 59.328125 
Q 17.53125 52.734375 16.796875 39.40625 
Q 19.671875 43.65625 24.015625 45.921875 
Q 28.375 48.1875 33.59375 48.1875 
Q 44.578125 48.1875 50.953125 41.515625 
Q 57.328125 34.859375 57.328125 23.390625 
Q 57.328125 12.15625 50.6875 5.359375 
Q 44.046875 -1.421875 33.015625 -1.421875 
Q 20.359375 -1.421875 13.671875 8.265625 
Q 6.984375 17.96875 6.984375 36.375 
Q 6.984375 53.65625 15.1875 63.9375 
Q 23.390625 74.21875 37.203125 74.21875 
Q 40.921875 74.21875 44.703125 73.484375 
Q 48.484375 72.75 52.59375 71.296875 
z
" id="DejaVuSans-36"/>
      </defs>
      <g transform="translate(217.8935 322.182437)scale(0.1 -0.1)">
       <use xlink:href="#DejaVuSans-36"/>
       <use x="63.623047" xlink:href="#DejaVuSans-30"/>
      </g>
     </g>
    </g>
    <g id="xtick_5">
     <g id="line2d_5">
      <g>
       <use style="stroke:#000000;stroke-width:0.8;" x="271.872" xlink:href="#mf08d9fe71e" y="307.584"/>
      </g>
     </g>
     <g id="text_5">
      <!-- 80 -->
      <defs>
       <path d="M 31.78125 34.625 
Q 24.75 34.625 20.71875 30.859375 
Q 16.703125 27.09375 16.703125 20.515625 
Q 16.703125 13.921875 20.71875 10.15625 
Q 24.75 6.390625 31.78125 6.390625 
Q 38.8125 6.390625 42.859375 10.171875 
Q 46.921875 13.96875 46.921875 20.515625 
Q 46.921875 27.09375 42.890625 30.859375 
Q 38.875 34.625 31.78125 34.625 
z
M 21.921875 38.8125 
Q 15.578125 40.375 12.03125 44.71875 
Q 8.5 49.078125 8.5 55.328125 
Q 8.5 64.0625 14.71875 69.140625 
Q 20.953125 74.21875 31.78125 74.21875 
Q 42.671875 74.21875 48.875 69.140625 
Q 55.078125 64.0625 55.078125 55.328125 
Q 55.078125 49.078125 51.53125 44.71875 
Q 48 40.375 41.703125 38.8125 
Q 48.828125 37.15625 52.796875 32.3125 
Q 56.78125 27.484375 56.78125 20.515625 
Q 56.78125 9.90625 50.3125 4.234375 
Q 43.84375 -1.421875 31.78125 -1.421875 
Q 19.734375 -1.421875 13.25 4.234375 
Q 6.78125 9.90625 6.78125 20.515625 
Q 6.78125 27.484375 10.78125 32.3125 
Q 14.796875 37.15625 21.921875 38.8125 
z
M 18.3125 54.390625 
Q 18.3125 48.734375 21.84375 45.5625 
Q 25.390625 42.390625 31.78125 42.390625 
Q 38.140625 42.390625 41.71875 45.5625 
Q 45.3125 48.734375 45.3125 54.390625 
Q 45.3125 60.0625 41.71875 63.234375 
Q 38.140625 66.40625 31.78125 66.40625 
Q 25.390625 66.40625 21.84375 63.234375 
Q 18.3125 60.0625 18.3125 54.390625 
z
" id="DejaVuSans-38"/>
      </defs>
      <g transform="translate(265.5095 322.182437)scale(0.1 -0.1)">
       <use xlink:href="#DejaVuSans-38"/>
       <use x="63.623047" xlink:href="#DejaVuSans-30"/>
      </g>
     </g>
    </g>
    <g id="xtick_6">
     <g id="line2d_6">
      <g>
       <use style="stroke:#000000;stroke-width:0.8;" x="319.488" xlink:href="#mf08d9fe71e" y="307.584"/>
      </g>
     </g>
     <g id="text_6">
      <!-- 100 -->
      <defs>
       <path d="M 12.40625 8.296875 
L 28.515625 8.296875 
L 28.515625 63.921875 
L 10.984375 60.40625 
L 10.984375 69.390625 
L 28.421875 72.90625 
L 38.28125 72.90625 
L 38.28125 8.296875 
L 54.390625 8.296875 
L 54.390625 0 
L 12.40625 0 
z
" id="DejaVuSans-31"/>
      </defs>
      <g transform="translate(309.94425 322.182437)scale(0.1 -0.1)">
       <use xlink:href="#DejaVuSans-31"/>
       <use x="63.623047" xlink:href="#DejaVuSans-30"/>
       <use x="127.246094" xlink:href="#DejaVuSans-30"/>
      </g>
     </g>
    </g>
    <g id="xtick_7">
     <g id="line2d_7">
      <g>
       <use style="stroke:#000000;stroke-width:0.8;" x="367.104" xlink:href="#mf08d9fe71e" y="307.584"/>
      </g>
     </g>
     <g id="text_7">
      <!-- 120 -->
      <g transform="translate(357.56025 322.182437)scale(0.1 -0.1)">
       <use xlink:href="#DejaVuSans-31"/>
       <use x="63.623047" xlink:href="#DejaVuSans-32"/>
       <use x="127.246094" xlink:href="#DejaVuSans-30"/>
      </g>
     </g>
    </g>
    <g id="xtick_8">
     <g id="line2d_8">
      <g>
       <use style="stroke:#000000;stroke-width:0.8;" x="414.72" xlink:href="#mf08d9fe71e" y="307.584"/>
      </g>
     </g>
     <g id="text_8">
      <!-- 140 -->
      <g transform="translate(405.17625 322.182437)scale(0.1 -0.1)">
       <use xlink:href="#DejaVuSans-31"/>
       <use x="63.623047" xlink:href="#DejaVuSans-34"/>
       <use x="127.246094" xlink:href="#DejaVuSans-30"/>
      </g>
     </g>
    </g>
   </g>
   <g id="matplotlib.axis_2">
    <g id="ytick_1">
     <g id="line2d_9">
      <defs>
       <path d="M 0 0 
L -3.5 0 
" id="mcf0c079205" style="stroke:#000000;stroke-width:0.8;"/>
      </defs>
      <g>
       <use style="stroke:#000000;stroke-width:0.8;" x="57.6" xlink:href="#mcf0c079205" y="307.584"/>
      </g>
     </g>
     <g id="text_9">
      <!-- −10 -->
      <defs>
       <path d="M 10.59375 35.5 
L 73.1875 35.5 
L 73.1875 27.203125 
L 10.59375 27.203125 
z
" id="DejaVuSans-2212"/>
      </defs>
      <g transform="translate(29.495313 311.383219)scale(0.1 -0.1)">
       <use xlink:href="#DejaVuSans-2212"/>
       <use x="83.789062" xlink:href="#DejaVuSans-31"/>
       <use x="147.412109" xlink:href="#DejaVuSans-30"/>
      </g>
     </g>
    </g>
    <g id="ytick_2">
     <g id="line2d_10">
      <g>
       <use style="stroke:#000000;stroke-width:0.8;" x="57.6" xlink:href="#mcf0c079205" y="269.568"/>
      </g>
     </g>
     <g id="text_10">
      <!-- 0 -->
      <g transform="translate(44.2375 273.367219)scale(0.1 -0.1)">
       <use xlink:href="#DejaVuSans-30"/>
      </g>
     </g>
    </g>
    <g id="ytick_3">
     <g id="line2d_11">
      <g>
       <use style="stroke:#000000;stroke-width:0.8;" x="57.6" xlink:href="#mcf0c079205" y="231.552"/>
      </g>
     </g>
     <g id="text_11">
      <!-- 10 -->
      <g transform="translate(37.875 235.351219)scale(0.1 -0.1)">
       <use xlink:href="#DejaVuSans-31"/>
       <use x="63.623047" xlink:href="#DejaVuSans-30"/>
      </g>
     </g>
    </g>
    <g id="ytick_4">
     <g id="line2d_12">
      <g>
       <use style="stroke:#000000;stroke-width:0.8;" x="57.6" xlink:href="#mcf0c079205" y="193.536"/>
      </g>
     </g>
     <g id="text_12">
      <!-- 20 -->
      <g transform="translate(37.875 197.335219)scale(0.1 -0.1)">
       <use xlink:href="#DejaVuSans-32"/>
       <use x="63.623047" xlink:href="#DejaVuSans-30"/>
      </g>
     </g>
    </g>
    <g id="ytick_5">
     <g id="line2d_13">
      <g>
       <use style="stroke:#000000;stroke-width:0.8;" x="57.6" xlink:href="#mcf0c079205" y="155.52"/>
      </g>
     </g>
     <g id="text_13">
      <!-- 30 -->
      <defs>
       <path d="M 40.578125 39.3125 
Q 47.65625 37.796875 51.625 33 
Q 55.609375 28.21875 55.609375 21.1875 
Q 55.609375 10.40625 48.1875 4.484375 
Q 40.765625 -1.421875 27.09375 -1.421875 
Q 22.515625 -1.421875 17.65625 -0.515625 
Q 12.796875 0.390625 7.625 2.203125 
L 7.625 11.71875 
Q 11.71875 9.328125 16.59375 8.109375 
Q 21.484375 6.890625 26.8125 6.890625 
Q 36.078125 6.890625 40.9375 10.546875 
Q 45.796875 14.203125 45.796875 21.1875 
Q 45.796875 27.640625 41.28125 31.265625 
Q 36.765625 34.90625 28.71875 34.90625 
L 20.21875 34.90625 
L 20.21875 43.015625 
L 29.109375 43.015625 
Q 36.375 43.015625 40.234375 45.921875 
Q 44.09375 48.828125 44.09375 54.296875 
Q 44.09375 59.90625 40.109375 62.90625 
Q 36.140625 65.921875 28.71875 65.921875 
Q 24.65625 65.921875 20.015625 65.03125 
Q 15.375 64.15625 9.8125 62.3125 
L 9.8125 71.09375 
Q 15.4375 72.65625 20.34375 73.4375 
Q 25.25 74.21875 29.59375 74.21875 
Q 40.828125 74.21875 47.359375 69.109375 
Q 53.90625 64.015625 53.90625 55.328125 
Q 53.90625 49.265625 50.4375 45.09375 
Q 46.96875 40.921875 40.578125 39.3125 
z
" id="DejaVuSans-33"/>
      </defs>
      <g transform="translate(37.875 159.319219)scale(0.1 -0.1)">
       <use xlink:href="#DejaVuSans-33"/>
       <use x="63.623047" xlink:href="#DejaVuSans-30"/>
      </g>
     </g>
    </g>
    <g id="ytick_6">
     <g id="line2d_14">
      <g>
       <use style="stroke:#000000;stroke-width:0.8;" x="57.6" xlink:href="#mcf0c079205" y="117.504"/>
      </g>
     </g>
     <g id="text_14">
      <!-- 40 -->
      <g transform="translate(37.875 121.303219)scale(0.1 -0.1)">
       <use xlink:href="#DejaVuSans-34"/>
       <use x="63.623047" xlink:href="#DejaVuSans-30"/>
      </g>
     </g>
    </g>
    <g id="ytick_7">
     <g id="line2d_15">
      <g>
       <use style="stroke:#000000;stroke-width:0.8;" x="57.6" xlink:href="#mcf0c079205" y="79.488"/>
      </g>
     </g>
     <g id="text_15">
      <!-- 50 -->
      <defs>
       <path d="M 10.796875 72.90625 
L 49.515625 72.90625 
L 49.515625 64.59375 
L 19.828125 64.59375 
L 19.828125 46.734375 
Q 21.96875 47.46875 24.109375 47.828125 
Q 26.265625 48.1875 28.421875 48.1875 
Q 40.625 48.1875 47.75 41.5 
Q 54.890625 34.8125 54.890625 23.390625 
Q 54.890625 11.625 47.5625 5.09375 
Q 40.234375 -1.421875 26.90625 -1.421875 
Q 22.3125 -1.421875 17.546875 -0.640625 
Q 12.796875 0.140625 7.71875 1.703125 
L 7.71875 11.625 
Q 12.109375 9.234375 16.796875 8.0625 
Q 21.484375 6.890625 26.703125 6.890625 
Q 35.15625 6.890625 40.078125 11.328125 
Q 45.015625 15.765625 45.015625 23.390625 
Q 45.015625 31 40.078125 35.4375 
Q 35.15625 39.890625 26.703125 39.890625 
Q 22.75 39.890625 18.8125 39.015625 
Q 14.890625 38.140625 10.796875 36.28125 
z
" id="DejaVuSans-35"/>
      </defs>
      <g transform="translate(37.875 83.287219)scale(0.1 -0.1)">
       <use xlink:href="#DejaVuSans-35"/>
       <use x="63.623047" xlink:href="#DejaVuSans-30"/>
      </g>
     </g>
    </g>
    <g id="ytick_8">
     <g id="line2d_16">
      <g>
       <use style="stroke:#000000;stroke-width:0.8;" x="57.6" xlink:href="#mcf0c079205" y="41.472"/>
      </g>
     </g>
     <g id="text_16">
      <!-- 60 -->
      <g transform="translate(37.875 45.271219)scale(0.1 -0.1)">
       <use xlink:href="#DejaVuSans-36"/>
       <use x="63.623047" xlink:href="#DejaVuSans-30"/>
      </g>
     </g>
    </g>
   </g>
   <g id="patch_3">
    <path d="M 57.6 307.584 
L 57.6 41.472 
" style="fill:none;stroke:#000000;stroke-linecap:square;stroke-linejoin:miter;stroke-width:0.8;"/>
   </g>
   <g id="patch_4">
    <path d="M 414.72 307.584 
L 414.72 41.472 
" style="fill:none;stroke:#000000;stroke-linecap:square;stroke-linejoin:miter;stroke-width:0.8;"/>
   </g>
   <g id="patch_5">
    <path d="M 57.6 307.584 
L 414.72 307.584 
" style="fill:none;stroke:#000000;stroke-linecap:square;stroke-linejoin:miter;stroke-width:0.8;"/>
   </g>
   <g id="patch_6">
    <path d="M 57.6 41.472 
L 414.72 41.472 
" style="fill:none;stroke:#000000;stroke-linecap:square;stroke-linejoin:miter;stroke-width:0.8;"/>
   </g>
  </g>
 </g>
 <defs>
  <clipPath id="pf0224dcd3e">
   <rect height="266.112" width="357.12" x="57.6" y="41.472"/>
  </clipPath>
 </defs>
</svg>
