<?xml version="1.0" encoding="utf-8" standalone="no"?>
<!DOCTYPE svg PUBLIC "-//W3C//DTD SVG 1.1//EN"
  "http://www.w3.org/Graphics/SVG/1.1/DTD/svg11.dtd">
<!-- Created with matplotlib (http://matplotlib.org/) -->
<svg height="345.6pt" version="1.1" viewBox="0 0 460.8 345.6" width="460.8pt" xmlns="http://www.w3.org/2000/svg" xmlns:xlink="http://www.w3.org/1999/xlink">
 <defs>
  <style type="text/css">
*{stroke-linecap:butt;stroke-linejoin:round;}
  </style>
 </defs>
 <g id="figure_1">
  <g id="patch_1">
   <path d="M 0 345.6 
L 460.8 345.6 
L 460.8 0 
L 0 0 
z
" style="fill:#ffffff;"/>
  </g>
  <g id="axes_1">
   <g id="patch_2">
    <path d="M 57.6 307.584 
L 414.72 307.584 
L 414.72 41.472 
L 57.6 41.472 
z
" style="fill:#ffffff;"/>
   </g>
   <g id="PathCollection_1">
    <defs>
     <path d="M 0 0.612372 
C 0.162403 0.612372 0.318176 0.547849 0.433013 0.433013 
C 0.547849 0.318176 0.612372 0.162403 0.612372 0 
C 0.612372 -0.162403 0.547849 -0.318176 0.433013 -0.433013 
C 0.318176 -0.547849 0.162403 -0.612372 0 -0.612372 
C -0.162403 -0.612372 -0.318176 -0.547849 -0.433013 -0.433013 
C -0.547849 -0.318176 -0.612372 -0.162403 -0.612372 0 
C -0.612372 0.162403 -0.547849 0.318176 -0.433013 0.433013 
C -0.318176 0.547849 -0.162403 0.612372 0 0.612372 
z
" id="maad539f4cc" style="stroke:#000000;"/>
    </defs>
    <g clip-path="url(#p879d44526f)">
     <use style="stroke:#000000;" x="321.271923" xlink:href="#maad539f4cc" y="85.358467"/>
     <use style="stroke:#000000;" x="382.569114" xlink:href="#maad539f4cc" y="113.056877"/>
     <use style="stroke:#000000;" x="323.401206" xlink:href="#maad539f4cc" y="87.93251"/>
     <use style="stroke:#000000;" x="266.509403" xlink:href="#maad539f4cc" y="73.898188"/>
     <use style="stroke:#000000;" x="265.76154" xlink:href="#maad539f4cc" y="70.258253"/>
     <use style="stroke:#000000;" x="268.460201" xlink:href="#maad539f4cc" y="76.58645"/>
     <use style="stroke:#000000;" x="319.716092" xlink:href="#maad539f4cc" y="82.462627"/>
     <use style="stroke:#000000;" x="384.94495" xlink:href="#maad539f4cc" y="118.82051"/>
     <use style="stroke:#000000;" x="267.942544" xlink:href="#maad539f4cc" y="74.400024"/>
     <use style="stroke:#000000;" x="264.932669" xlink:href="#maad539f4cc" y="68.69064"/>
     <use style="stroke:#000000;" x="326.384914" xlink:href="#maad539f4cc" y="91.83186"/>
     <use style="stroke:#000000;" x="329.967684" xlink:href="#maad539f4cc" y="94.371865"/>
     <use style="stroke:#000000;" x="378.377629" xlink:href="#maad539f4cc" y="102.653325"/>
     <use style="stroke:#000000;" x="330.813997" xlink:href="#maad539f4cc" y="96.656992"/>
     <use style="stroke:#000000;" x="365.8343" xlink:href="#maad539f4cc" y="100.74174"/>
     <use style="stroke:#000000;" x="382.824152" xlink:href="#maad539f4cc" y="113.793458"/>
     <use style="stroke:#000000;" x="263.721816" xlink:href="#maad539f4cc" y="68.654391"/>
     <use style="stroke:#000000;" x="383.606227" xlink:href="#maad539f4cc" y="117.350208"/>
     <use style="stroke:#000000;" x="324.873401" xlink:href="#maad539f4cc" y="91.068311"/>
     <use style="stroke:#000000;" x="383.168281" xlink:href="#maad539f4cc" y="114.005757"/>
     <use style="stroke:#000000;" x="269.415987" xlink:href="#maad539f4cc" y="77.334897"/>
     <use style="stroke:#000000;" x="320.948587" xlink:href="#maad539f4cc" y="83.971969"/>
     <use style="stroke:#000000;" x="323.355375" xlink:href="#maad539f4cc" y="87.218013"/>
     <use style="stroke:#000000;" x="325.837315" xlink:href="#maad539f4cc" y="91.57043"/>
     <use style="stroke:#000000;" x="323.587404" xlink:href="#maad539f4cc" y="91.031923"/>
     <use style="stroke:#000000;" x="328.112333" xlink:href="#maad539f4cc" y="94.082742"/>
     <use style="stroke:#000000;" x="381.283824" xlink:href="#maad539f4cc" y="111.441343"/>
     <use style="stroke:#000000;" x="261.883322" xlink:href="#maad539f4cc" y="66.145049"/>
     <use style="stroke:#000000;" x="265.094428" xlink:href="#maad539f4cc" y="69.989733"/>
     <use style="stroke:#000000;" x="332.212599" xlink:href="#maad539f4cc" y="98.362725"/>
     <use style="stroke:#000000;" x="316.087931" xlink:href="#maad539f4cc" y="80.237025"/>
     <use style="stroke:#000000;" x="387.249231" xlink:href="#maad539f4cc" y="119.48337"/>
     <use style="stroke:#000000;" x="382.822467" xlink:href="#maad539f4cc" y="113.614525"/>
     <use style="stroke:#000000;" x="368.867208" xlink:href="#maad539f4cc" y="102.132115"/>
     <use style="stroke:#000000;" x="385.475029" xlink:href="#maad539f4cc" y="119.026763"/>
     <use style="stroke:#000000;" x="367.280961" xlink:href="#maad539f4cc" y="102.107553"/>
     <use style="stroke:#000000;" x="327.39838" xlink:href="#maad539f4cc" y="92.990489"/>
     <use style="stroke:#000000;" x="382.456555" xlink:href="#maad539f4cc" y="112.646194"/>
     <use style="stroke:#000000;" x="326.580065" xlink:href="#maad539f4cc" y="92.414816"/>
     <use style="stroke:#000000;" x="321.157255" xlink:href="#maad539f4cc" y="87.310484"/>
     <use style="stroke:#000000;" x="382.006286" xlink:href="#maad539f4cc" y="113.256287"/>
     <use style="stroke:#000000;" x="323.26664" xlink:href="#maad539f4cc" y="90.489184"/>
     <use style="stroke:#000000;" x="262.154764" xlink:href="#maad539f4cc" y="69.552378"/>
     <use style="stroke:#000000;" x="261.345245" xlink:href="#maad539f4cc" y="68.788485"/>
     <use style="stroke:#000000;" x="323.021165" xlink:href="#maad539f4cc" y="88.210608"/>
     <use style="stroke:#000000;" x="262.388858" xlink:href="#maad539f4cc" y="69.623089"/>
     <use style="stroke:#000000;" x="384.681248" xlink:href="#maad539f4cc" y="119.933404"/>
     <use style="stroke:#000000;" x="267.647893" xlink:href="#maad539f4cc" y="76.152032"/>
     <use style="stroke:#000000;" x="267.19702" xlink:href="#maad539f4cc" y="74.768894"/>
     <use style="stroke:#000000;" x="265.189555" xlink:href="#maad539f4cc" y="71.952972"/>
     <use style="stroke:#000000;" x="315.691418" xlink:href="#maad539f4cc" y="82.97619"/>
     <use style="stroke:#000000;" x="268.192591" xlink:href="#maad539f4cc" y="76.697779"/>
     <use style="stroke:#000000;" x="329.716755" xlink:href="#maad539f4cc" y="97.284188"/>
     <use style="stroke:#000000;" x="319.130689" xlink:href="#maad539f4cc" y="83.717977"/>
     <use style="stroke:#000000;" x="329.432156" xlink:href="#maad539f4cc" y="96.982367"/>
     <use style="stroke:#000000;" x="329.744666" xlink:href="#maad539f4cc" y="98.388367"/>
     <use style="stroke:#000000;" x="330.781557" xlink:href="#maad539f4cc" y="98.457327"/>
     <use style="stroke:#000000;" x="328.307476" xlink:href="#maad539f4cc" y="94.489595"/>
     <use style="stroke:#000000;" x="326.169435" xlink:href="#maad539f4cc" y="91.955417"/>
     <use style="stroke:#000000;" x="325.771692" xlink:href="#maad539f4cc" y="91.895079"/>
     <use style="stroke:#000000;" x="326.193472" xlink:href="#maad539f4cc" y="92.198053"/>
     <use style="stroke:#000000;" x="325.391631" xlink:href="#maad539f4cc" y="91.88783"/>
     <use style="stroke:#000000;" x="377.088576" xlink:href="#maad539f4cc" y="104.508496"/>
     <use style="stroke:#000000;" x="378.263994" xlink:href="#maad539f4cc" y="107.409441"/>
     <use style="stroke:#000000;" x="360.708732" xlink:href="#maad539f4cc" y="100.913688"/>
     <use style="stroke:#000000;" x="368.852668" xlink:href="#maad539f4cc" y="103.030702"/>
     <use style="stroke:#000000;" x="363.089109" xlink:href="#maad539f4cc" y="102.67253"/>
     <use style="stroke:#000000;" x="323.820416" xlink:href="#maad539f4cc" y="91.593498"/>
     <use style="stroke:#000000;" x="383.056818" xlink:href="#maad539f4cc" y="116.044069"/>
     <use style="stroke:#000000;" x="326.97321" xlink:href="#maad539f4cc" y="94.250737"/>
     <use style="stroke:#000000;" x="322.756088" xlink:href="#maad539f4cc" y="87.543704"/>
     <use style="stroke:#000000;" x="320.487637" xlink:href="#maad539f4cc" y="84.820756"/>
     <use style="stroke:#000000;" x="325.260088" xlink:href="#maad539f4cc" y="91.650261"/>
     <use style="stroke:#000000;" x="268.624409" xlink:href="#maad539f4cc" y="80.198482"/>
     <use style="stroke:#000000;" x="330.848151" xlink:href="#maad539f4cc" y="99.066594"/>
     <use style="stroke:#000000;" x="380.747973" xlink:href="#maad539f4cc" y="112.721294"/>
     <use style="stroke:#000000;" x="380.536129" xlink:href="#maad539f4cc" y="111.706444"/>
     <use style="stroke:#000000;" x="260.858012" xlink:href="#maad539f4cc" y="68.375718"/>
     <use style="stroke:#000000;" x="315.087586" xlink:href="#maad539f4cc" y="82.36296"/>
     <use style="stroke:#000000;" x="314.873406" xlink:href="#maad539f4cc" y="82.026322"/>
     <use style="stroke:#000000;" x="297.555401" xlink:href="#maad539f4cc" y="105.917549"/>
     <use style="stroke:#000000;" x="332.210593" xlink:href="#maad539f4cc" y="102.912536"/>
     <use style="stroke:#000000;" x="387.249231" xlink:href="#maad539f4cc" y="126.321966"/>
     <use style="stroke:#000000;" x="379.11199" xlink:href="#maad539f4cc" y="108.726868"/>
     <use style="stroke:#000000;" x="385.663017" xlink:href="#maad539f4cc" y="116.122407"/>
     <use style="stroke:#000000;" x="375.390166" xlink:href="#maad539f4cc" y="111.554649"/>
     <use style="stroke:#000000;" x="320.687376" xlink:href="#maad539f4cc" y="92.183419"/>
     <use style="stroke:#000000;" x="323.886647" xlink:href="#maad539f4cc" y="92.872733"/>
     <use style="stroke:#000000;" x="273.732506" xlink:href="#maad539f4cc" y="88.824972"/>
     <use style="stroke:#000000;" x="269.565608" xlink:href="#maad539f4cc" y="82.127033"/>
     <use style="stroke:#000000;" x="262.651627" xlink:href="#maad539f4cc" y="71.431692"/>
     <use style="stroke:#000000;" x="259.059504" xlink:href="#maad539f4cc" y="74.88841"/>
     <use style="stroke:#000000;" x="270.579979" xlink:href="#maad539f4cc" y="80.535533"/>
     <use style="stroke:#000000;" x="275.984978" xlink:href="#maad539f4cc" y="96.726865"/>
     <use style="stroke:#000000;" x="302.624683" xlink:href="#maad539f4cc" y="99.183677"/>
     <use style="stroke:#000000;" x="332.383389" xlink:href="#maad539f4cc" y="98.976277"/>
     <use style="stroke:#000000;" x="382.459471" xlink:href="#maad539f4cc" y="121.67663"/>
     <use style="stroke:#000000;" x="387.105339" xlink:href="#maad539f4cc" y="124.695264"/>
     <use style="stroke:#000000;" x="260.098262" xlink:href="#maad539f4cc" y="72.831229"/>
     <use style="stroke:#000000;" x="268.869846" xlink:href="#maad539f4cc" y="79.090185"/>
     <use style="stroke:#000000;" x="249.297982" xlink:href="#maad539f4cc" y="94.61479"/>
     <use style="stroke:#000000;" x="272.941074" xlink:href="#maad539f4cc" y="88.271384"/>
     <use style="stroke:#000000;" x="326.253438" xlink:href="#maad539f4cc" y="95.117049"/>
     <use style="stroke:#000000;" x="342.391306" xlink:href="#maad539f4cc" y="111.587943"/>
     <use style="stroke:#000000;" x="333.064841" xlink:href="#maad539f4cc" y="103.367975"/>
     <use style="stroke:#000000;" x="335.872024" xlink:href="#maad539f4cc" y="104.865624"/>
     <use style="stroke:#000000;" x="383.014599" xlink:href="#maad539f4cc" y="109.903299"/>
     <use style="stroke:#000000;" x="386.262531" xlink:href="#maad539f4cc" y="114.699904"/>
     <use style="stroke:#000000;" x="387.249231" xlink:href="#maad539f4cc" y="118.72864"/>
     <use style="stroke:#000000;" x="344.31856" xlink:href="#maad539f4cc" y="109.443943"/>
     <use style="stroke:#000000;" x="344.154903" xlink:href="#maad539f4cc" y="110.382288"/>
     <use style="stroke:#000000;" x="367.15806" xlink:href="#maad539f4cc" y="104.15784"/>
     <use style="stroke:#000000;" x="378.99326" xlink:href="#maad539f4cc" y="107.245817"/>
     <use style="stroke:#000000;" x="358.006168" xlink:href="#maad539f4cc" y="106.022705"/>
     <use style="stroke:#000000;" x="386.63179" xlink:href="#maad539f4cc" y="122.598159"/>
     <use style="stroke:#000000;" x="363.742425" xlink:href="#maad539f4cc" y="103.004254"/>
     <use style="stroke:#000000;" x="370.417108" xlink:href="#maad539f4cc" y="106.57811"/>
     <use style="stroke:#000000;" x="287.341016" xlink:href="#maad539f4cc" y="118.73238"/>
     <use style="stroke:#000000;" x="273.014049" xlink:href="#maad539f4cc" y="85.309692"/>
     <use style="stroke:#000000;" x="279.466226" xlink:href="#maad539f4cc" y="104.488655"/>
     <use style="stroke:#000000;" x="367.176956" xlink:href="#maad539f4cc" y="105.988382"/>
     <use style="stroke:#000000;" x="387.249231" xlink:href="#maad539f4cc" y="127.102535"/>
     <use style="stroke:#000000;" x="371.119851" xlink:href="#maad539f4cc" y="108.418196"/>
     <use style="stroke:#000000;" x="331.864609" xlink:href="#maad539f4cc" y="104.948003"/>
     <use style="stroke:#000000;" x="324.001277" xlink:href="#maad539f4cc" y="89.729956"/>
     <use style="stroke:#000000;" x="327.463342" xlink:href="#maad539f4cc" y="98.531884"/>
     <use style="stroke:#000000;" x="366.635045" xlink:href="#maad539f4cc" y="103.700286"/>
     <use style="stroke:#000000;" x="387.249231" xlink:href="#maad539f4cc" y="126.218084"/>
     <use style="stroke:#000000;" x="385.501014" xlink:href="#maad539f4cc" y="118.733837"/>
     <use style="stroke:#000000;" x="264.44357" xlink:href="#maad539f4cc" y="72.372973"/>
     <use style="stroke:#000000;" x="264.984865" xlink:href="#maad539f4cc" y="71.323117"/>
     <use style="stroke:#000000;" x="282.313006" xlink:href="#maad539f4cc" y="112.125698"/>
     <use style="stroke:#000000;" x="310.819423" xlink:href="#maad539f4cc" y="83.50206"/>
     <use style="stroke:#000000;" x="317.245683" xlink:href="#maad539f4cc" y="84.20145"/>
     <use style="stroke:#000000;" x="318.157678" xlink:href="#maad539f4cc" y="80.899"/>
     <use style="stroke:#000000;" x="314.909624" xlink:href="#maad539f4cc" y="87.105959"/>
     <use style="stroke:#000000;" x="337.672631" xlink:href="#maad539f4cc" y="108.902563"/>
     <use style="stroke:#000000;" x="326.040787" xlink:href="#maad539f4cc" y="93.443658"/>
     <use style="stroke:#000000;" x="333.603906" xlink:href="#maad539f4cc" y="105.595372"/>
     <use style="stroke:#000000;" x="339.751138" xlink:href="#maad539f4cc" y="112.330669"/>
     <use style="stroke:#000000;" x="331.296095" xlink:href="#maad539f4cc" y="101.653342"/>
     <use style="stroke:#000000;" x="332.778892" xlink:href="#maad539f4cc" y="105.512192"/>
     <use style="stroke:#000000;" x="340.133528" xlink:href="#maad539f4cc" y="114.246165"/>
     <use style="stroke:#000000;" x="313.729625" xlink:href="#maad539f4cc" y="86.623588"/>
     <use style="stroke:#000000;" x="317.055883" xlink:href="#maad539f4cc" y="85.66682"/>
     <use style="stroke:#000000;" x="328.231657" xlink:href="#maad539f4cc" y="97.483002"/>
     <use style="stroke:#000000;" x="311.486618" xlink:href="#maad539f4cc" y="90.58857"/>
     <use style="stroke:#000000;" x="387.249231" xlink:href="#maad539f4cc" y="126.404452"/>
     <use style="stroke:#000000;" x="374.292571" xlink:href="#maad539f4cc" y="108.097327"/>
     <use style="stroke:#000000;" x="372.961864" xlink:href="#maad539f4cc" y="109.187756"/>
     <use style="stroke:#000000;" x="268.581101" xlink:href="#maad539f4cc" y="72.736475"/>
     <use style="stroke:#000000;" x="267.368776" xlink:href="#maad539f4cc" y="69.508675"/>
     <use style="stroke:#000000;" x="260.917293" xlink:href="#maad539f4cc" y="65.084702"/>
     <use style="stroke:#000000;" x="268.307671" xlink:href="#maad539f4cc" y="74.689076"/>
     <use style="stroke:#000000;" x="267.679089" xlink:href="#maad539f4cc" y="72.612284"/>
     <use style="stroke:#000000;" x="265.584752" xlink:href="#maad539f4cc" y="73.694313"/>
     <use style="stroke:#000000;" x="313.734582" xlink:href="#maad539f4cc" y="82.96751"/>
     <use style="stroke:#000000;" x="330.198934" xlink:href="#maad539f4cc" y="99.826313"/>
     <use style="stroke:#000000;" x="333.968337" xlink:href="#maad539f4cc" y="104.495624"/>
     <use style="stroke:#000000;" x="311.399146" xlink:href="#maad539f4cc" y="84.988118"/>
     <use style="stroke:#000000;" x="308.470855" xlink:href="#maad539f4cc" y="87.466127"/>
     <use style="stroke:#000000;" x="296.069335" xlink:href="#maad539f4cc" y="104.115796"/>
     <use style="stroke:#000000;" x="387.249231" xlink:href="#maad539f4cc" y="121.122902"/>
     <use style="stroke:#000000;" x="387.249231" xlink:href="#maad539f4cc" y="119.79536"/>
     <use style="stroke:#000000;" x="387.249231" xlink:href="#maad539f4cc" y="122.046162"/>
     <use style="stroke:#000000;" x="382.94669" xlink:href="#maad539f4cc" y="116.268787"/>
     <use style="stroke:#000000;" x="375.658488" xlink:href="#maad539f4cc" y="106.727558"/>
     <use style="stroke:#000000;" x="387.249231" xlink:href="#maad539f4cc" y="125.368855"/>
     <use style="stroke:#000000;" x="374.3509" xlink:href="#maad539f4cc" y="109.08473"/>
     <use style="stroke:#000000;" x="361.888364" xlink:href="#maad539f4cc" y="99.550595"/>
     <use style="stroke:#000000;" x="373.014598" xlink:href="#maad539f4cc" y="105.924394"/>
     <use style="stroke:#000000;" x="381.474252" xlink:href="#maad539f4cc" y="116.286525"/>
     <use style="stroke:#000000;" x="375.257734" xlink:href="#maad539f4cc" y="109.19161"/>
     <use style="stroke:#000000;" x="376.633152" xlink:href="#maad539f4cc" y="109.8596"/>
     <use style="stroke:#000000;" x="371.755918" xlink:href="#maad539f4cc" y="106.461496"/>
     <use style="stroke:#000000;" x="365.783799" xlink:href="#maad539f4cc" y="105.189456"/>
     <use style="stroke:#000000;" x="378.186011" xlink:href="#maad539f4cc" y="109.169721"/>
     <use style="stroke:#000000;" x="330.997255" xlink:href="#maad539f4cc" y="103.867524"/>
     <use style="stroke:#000000;" x="341.724042" xlink:href="#maad539f4cc" y="110.536744"/>
     <use style="stroke:#000000;" x="323.593145" xlink:href="#maad539f4cc" y="88.110808"/>
     <use style="stroke:#000000;" x="387.249231" xlink:href="#maad539f4cc" y="124.867598"/>
     <use style="stroke:#000000;" x="387.249231" xlink:href="#maad539f4cc" y="128.177492"/>
     <use style="stroke:#000000;" x="379.011927" xlink:href="#maad539f4cc" y="110.121865"/>
     <use style="stroke:#000000;" x="312.801845" xlink:href="#maad539f4cc" y="86.384084"/>
     <use style="stroke:#000000;" x="324.300471" xlink:href="#maad539f4cc" y="89.214648"/>
     <use style="stroke:#000000;" x="313.642065" xlink:href="#maad539f4cc" y="89.409596"/>
     <use style="stroke:#000000;" x="331.069099" xlink:href="#maad539f4cc" y="106.611066"/>
     <use style="stroke:#000000;" x="377.218981" xlink:href="#maad539f4cc" y="114.858852"/>
     <use style="stroke:#000000;" x="387.249231" xlink:href="#maad539f4cc" y="128.475887"/>
     <use style="stroke:#000000;" x="326.466094" xlink:href="#maad539f4cc" y="93.880589"/>
     <use style="stroke:#000000;" x="324.610742" xlink:href="#maad539f4cc" y="92.254228"/>
     <use style="stroke:#000000;" x="249.781314" xlink:href="#maad539f4cc" y="95.061925"/>
     <use style="stroke:#000000;" x="269.74366" xlink:href="#maad539f4cc" y="76.225131"/>
     <use style="stroke:#000000;" x="327.193473" xlink:href="#maad539f4cc" y="92.161064"/>
     <use style="stroke:#000000;" x="299.398494" xlink:href="#maad539f4cc" y="104.18372"/>
     <use style="stroke:#000000;" x="267.212466" xlink:href="#maad539f4cc" y="73.855529"/>
     <use style="stroke:#000000;" x="380.61324" xlink:href="#maad539f4cc" y="117.342374"/>
     <use style="stroke:#000000;" x="267.490372" xlink:href="#maad539f4cc" y="84.052565"/>
     <use style="stroke:#000000;" x="272.965171" xlink:href="#maad539f4cc" y="95.49496"/>
     <use style="stroke:#000000;" x="274.884002" xlink:href="#maad539f4cc" y="95.539544"/>
     <use style="stroke:#000000;" x="278.655463" xlink:href="#maad539f4cc" y="101.914919"/>
     <use style="stroke:#000000;" x="298.416848" xlink:href="#maad539f4cc" y="101.837004"/>
     <use style="stroke:#000000;" x="269.628853" xlink:href="#maad539f4cc" y="81.147032"/>
     <use style="stroke:#000000;" x="274.515122" xlink:href="#maad539f4cc" y="94.541367"/>
     <use style="stroke:#000000;" x="310.410855" xlink:href="#maad539f4cc" y="86.578182"/>
     <use style="stroke:#000000;" x="305.357299" xlink:href="#maad539f4cc" y="98.073727"/>
     <use style="stroke:#000000;" x="331.146729" xlink:href="#maad539f4cc" y="100.318713"/>
     <use style="stroke:#000000;" x="325.367089" xlink:href="#maad539f4cc" y="98.109039"/>
     <use style="stroke:#000000;" x="312.490673" xlink:href="#maad539f4cc" y="84.619832"/>
     <use style="stroke:#000000;" x="318.124243" xlink:href="#maad539f4cc" y="94.050362"/>
     <use style="stroke:#000000;" x="338.07537" xlink:href="#maad539f4cc" y="111.45949"/>
     <use style="stroke:#000000;" x="347.717364" xlink:href="#maad539f4cc" y="119.032806"/>
     <use style="stroke:#000000;" x="334.345705" xlink:href="#maad539f4cc" y="102.570557"/>
     <use style="stroke:#000000;" x="336.388489" xlink:href="#maad539f4cc" y="107.938814"/>
     <use style="stroke:#000000;" x="317.624081" xlink:href="#maad539f4cc" y="93.578364"/>
     <use style="stroke:#000000;" x="304.665832" xlink:href="#maad539f4cc" y="98.689088"/>
     <use style="stroke:#000000;" x="378.888358" xlink:href="#maad539f4cc" y="108.468984"/>
     <use style="stroke:#000000;" x="379.797756" xlink:href="#maad539f4cc" y="109.466049"/>
     <use style="stroke:#000000;" x="362.602653" xlink:href="#maad539f4cc" y="104.218451"/>
     <use style="stroke:#000000;" x="374.913096" xlink:href="#maad539f4cc" y="109.546727"/>
     <use style="stroke:#000000;" x="359.85822" xlink:href="#maad539f4cc" y="110.265625"/>
     <use style="stroke:#000000;" x="347.962646" xlink:href="#maad539f4cc" y="110.217146"/>
     <use style="stroke:#000000;" x="352.204672" xlink:href="#maad539f4cc" y="109.888949"/>
     <use style="stroke:#000000;" x="322.515501" xlink:href="#maad539f4cc" y="91.859964"/>
     <use style="stroke:#000000;" x="314.319161" xlink:href="#maad539f4cc" y="91.890785"/>
     <use style="stroke:#000000;" x="359.175442" xlink:href="#maad539f4cc" y="110.120655"/>
     <use style="stroke:#000000;" x="325.597089" xlink:href="#maad539f4cc" y="96.451708"/>
     <use style="stroke:#000000;" x="336.137119" xlink:href="#maad539f4cc" y="113.015414"/>
     <use style="stroke:#000000;" x="338.263386" xlink:href="#maad539f4cc" y="115.121128"/>
     <use style="stroke:#000000;" x="320.081395" xlink:href="#maad539f4cc" y="90.072135"/>
     <use style="stroke:#000000;" x="315.639618" xlink:href="#maad539f4cc" y="88.586971"/>
     <use style="stroke:#000000;" x="247.245178" xlink:href="#maad539f4cc" y="105.400772"/>
     <use style="stroke:#000000;" x="329.875055" xlink:href="#maad539f4cc" y="99.465767"/>
     <use style="stroke:#000000;" x="366.204087" xlink:href="#maad539f4cc" y="108.0171"/>
     <use style="stroke:#000000;" x="387.249231" xlink:href="#maad539f4cc" y="129.319285"/>
     <use style="stroke:#000000;" x="357.489559" xlink:href="#maad539f4cc" y="108.149917"/>
     <use style="stroke:#000000;" x="243.165946" xlink:href="#maad539f4cc" y="112.140436"/>
     <use style="stroke:#000000;" x="240.202958" xlink:href="#maad539f4cc" y="112.347951"/>
     <use style="stroke:#000000;" x="323.971096" xlink:href="#maad539f4cc" y="88.44503"/>
     <use style="stroke:#000000;" x="324.237337" xlink:href="#maad539f4cc" y="92.95092"/>
     <use style="stroke:#000000;" x="312.750953" xlink:href="#maad539f4cc" y="84.067353"/>
    </g>
   </g>
   <g id="PathCollection_2">
    <defs>
     <path d="M 0 0.935414 
C 0.248075 0.935414 0.486022 0.836853 0.661438 0.661438 
C 0.836853 0.486022 0.935414 0.248075 0.935414 0 
C 0.935414 -0.248075 0.836853 -0.486022 0.661438 -0.661438 
C 0.486022 -0.836853 0.248075 -0.935414 0 -0.935414 
C -0.248075 -0.935414 -0.486022 -0.836853 -0.661438 -0.661438 
C -0.836853 -0.486022 -0.935414 -0.248075 -0.935414 0 
C -0.935414 0.248075 -0.836853 0.486022 -0.661438 0.661438 
C -0.486022 0.836853 -0.248075 0.935414 0 0.935414 
z
" id="m6fa13b5e40" style="stroke:#0000ff;"/>
    </defs>
    <g clip-path="url(#p879d44526f)">
     <use style="fill:#0000ff;stroke:#0000ff;" x="321.271923" xlink:href="#m6fa13b5e40" y="85.358467"/>
     <use style="fill:#0000ff;stroke:#0000ff;" x="382.569114" xlink:href="#m6fa13b5e40" y="113.056877"/>
     <use style="fill:#0000ff;stroke:#0000ff;" x="323.401206" xlink:href="#m6fa13b5e40" y="87.93251"/>
     <use style="fill:#0000ff;stroke:#0000ff;" x="266.509403" xlink:href="#m6fa13b5e40" y="73.898188"/>
     <use style="fill:#0000ff;stroke:#0000ff;" x="265.76154" xlink:href="#m6fa13b5e40" y="70.258253"/>
     <use style="fill:#0000ff;stroke:#0000ff;" x="268.460201" xlink:href="#m6fa13b5e40" y="76.58645"/>
     <use style="fill:#0000ff;stroke:#0000ff;" x="319.716092" xlink:href="#m6fa13b5e40" y="82.462627"/>
     <use style="fill:#0000ff;stroke:#0000ff;" x="384.94495" xlink:href="#m6fa13b5e40" y="118.82051"/>
     <use style="fill:#0000ff;stroke:#0000ff;" x="267.942544" xlink:href="#m6fa13b5e40" y="74.400024"/>
     <use style="fill:#0000ff;stroke:#0000ff;" x="264.932669" xlink:href="#m6fa13b5e40" y="68.69064"/>
     <use style="fill:#0000ff;stroke:#0000ff;" x="326.384914" xlink:href="#m6fa13b5e40" y="91.83186"/>
     <use style="fill:#0000ff;stroke:#0000ff;" x="329.967684" xlink:href="#m6fa13b5e40" y="94.371865"/>
     <use style="fill:#0000ff;stroke:#0000ff;" x="378.377629" xlink:href="#m6fa13b5e40" y="102.653325"/>
     <use style="fill:#0000ff;stroke:#0000ff;" x="330.813997" xlink:href="#m6fa13b5e40" y="96.656992"/>
     <use style="fill:#0000ff;stroke:#0000ff;" x="365.8343" xlink:href="#m6fa13b5e40" y="100.74174"/>
     <use style="fill:#0000ff;stroke:#0000ff;" x="382.824152" xlink:href="#m6fa13b5e40" y="113.793458"/>
     <use style="fill:#0000ff;stroke:#0000ff;" x="263.721816" xlink:href="#m6fa13b5e40" y="68.654391"/>
     <use style="fill:#0000ff;stroke:#0000ff;" x="383.606227" xlink:href="#m6fa13b5e40" y="117.350208"/>
     <use style="fill:#0000ff;stroke:#0000ff;" x="324.873401" xlink:href="#m6fa13b5e40" y="91.068311"/>
     <use style="fill:#0000ff;stroke:#0000ff;" x="383.168281" xlink:href="#m6fa13b5e40" y="114.005757"/>
     <use style="fill:#0000ff;stroke:#0000ff;" x="269.415987" xlink:href="#m6fa13b5e40" y="77.334897"/>
     <use style="fill:#0000ff;stroke:#0000ff;" x="320.948587" xlink:href="#m6fa13b5e40" y="83.971969"/>
     <use style="fill:#0000ff;stroke:#0000ff;" x="323.355375" xlink:href="#m6fa13b5e40" y="87.218013"/>
     <use style="fill:#0000ff;stroke:#0000ff;" x="325.837315" xlink:href="#m6fa13b5e40" y="91.57043"/>
     <use style="fill:#0000ff;stroke:#0000ff;" x="323.587404" xlink:href="#m6fa13b5e40" y="91.031923"/>
     <use style="fill:#0000ff;stroke:#0000ff;" x="328.112333" xlink:href="#m6fa13b5e40" y="94.082742"/>
     <use style="fill:#0000ff;stroke:#0000ff;" x="381.283824" xlink:href="#m6fa13b5e40" y="111.441343"/>
     <use style="fill:#0000ff;stroke:#0000ff;" x="261.883322" xlink:href="#m6fa13b5e40" y="66.145049"/>
     <use style="fill:#0000ff;stroke:#0000ff;" x="265.094428" xlink:href="#m6fa13b5e40" y="69.989733"/>
     <use style="fill:#0000ff;stroke:#0000ff;" x="332.212599" xlink:href="#m6fa13b5e40" y="98.362725"/>
     <use style="fill:#0000ff;stroke:#0000ff;" x="316.087931" xlink:href="#m6fa13b5e40" y="80.237025"/>
     <use style="fill:#0000ff;stroke:#0000ff;" x="387.249231" xlink:href="#m6fa13b5e40" y="119.48337"/>
     <use style="fill:#0000ff;stroke:#0000ff;" x="382.822467" xlink:href="#m6fa13b5e40" y="113.614525"/>
     <use style="fill:#0000ff;stroke:#0000ff;" x="368.867208" xlink:href="#m6fa13b5e40" y="102.132115"/>
     <use style="fill:#0000ff;stroke:#0000ff;" x="385.475029" xlink:href="#m6fa13b5e40" y="119.026763"/>
     <use style="fill:#0000ff;stroke:#0000ff;" x="367.280961" xlink:href="#m6fa13b5e40" y="102.107553"/>
     <use style="fill:#0000ff;stroke:#0000ff;" x="327.39838" xlink:href="#m6fa13b5e40" y="92.990489"/>
     <use style="fill:#0000ff;stroke:#0000ff;" x="382.456555" xlink:href="#m6fa13b5e40" y="112.646194"/>
     <use style="fill:#0000ff;stroke:#0000ff;" x="326.580065" xlink:href="#m6fa13b5e40" y="92.414816"/>
     <use style="fill:#0000ff;stroke:#0000ff;" x="321.157255" xlink:href="#m6fa13b5e40" y="87.310484"/>
     <use style="fill:#0000ff;stroke:#0000ff;" x="382.006286" xlink:href="#m6fa13b5e40" y="113.256287"/>
     <use style="fill:#0000ff;stroke:#0000ff;" x="323.26664" xlink:href="#m6fa13b5e40" y="90.489184"/>
     <use style="fill:#0000ff;stroke:#0000ff;" x="262.154764" xlink:href="#m6fa13b5e40" y="69.552378"/>
     <use style="fill:#0000ff;stroke:#0000ff;" x="261.345245" xlink:href="#m6fa13b5e40" y="68.788485"/>
     <use style="fill:#0000ff;stroke:#0000ff;" x="323.021165" xlink:href="#m6fa13b5e40" y="88.210608"/>
     <use style="fill:#0000ff;stroke:#0000ff;" x="262.388858" xlink:href="#m6fa13b5e40" y="69.623089"/>
     <use style="fill:#0000ff;stroke:#0000ff;" x="384.681248" xlink:href="#m6fa13b5e40" y="119.933404"/>
     <use style="fill:#0000ff;stroke:#0000ff;" x="267.647893" xlink:href="#m6fa13b5e40" y="76.152032"/>
     <use style="fill:#0000ff;stroke:#0000ff;" x="267.19702" xlink:href="#m6fa13b5e40" y="74.768894"/>
     <use style="fill:#0000ff;stroke:#0000ff;" x="265.189555" xlink:href="#m6fa13b5e40" y="71.952972"/>
     <use style="fill:#0000ff;stroke:#0000ff;" x="315.691418" xlink:href="#m6fa13b5e40" y="82.97619"/>
     <use style="fill:#0000ff;stroke:#0000ff;" x="268.192591" xlink:href="#m6fa13b5e40" y="76.697779"/>
     <use style="fill:#0000ff;stroke:#0000ff;" x="329.716755" xlink:href="#m6fa13b5e40" y="97.284188"/>
     <use style="fill:#0000ff;stroke:#0000ff;" x="319.130689" xlink:href="#m6fa13b5e40" y="83.717977"/>
     <use style="fill:#0000ff;stroke:#0000ff;" x="329.432156" xlink:href="#m6fa13b5e40" y="96.982367"/>
     <use style="fill:#0000ff;stroke:#0000ff;" x="329.744666" xlink:href="#m6fa13b5e40" y="98.388367"/>
     <use style="fill:#0000ff;stroke:#0000ff;" x="330.781557" xlink:href="#m6fa13b5e40" y="98.457327"/>
     <use style="fill:#0000ff;stroke:#0000ff;" x="328.307476" xlink:href="#m6fa13b5e40" y="94.489595"/>
     <use style="fill:#0000ff;stroke:#0000ff;" x="326.169435" xlink:href="#m6fa13b5e40" y="91.955417"/>
     <use style="fill:#0000ff;stroke:#0000ff;" x="325.771692" xlink:href="#m6fa13b5e40" y="91.895079"/>
     <use style="fill:#0000ff;stroke:#0000ff;" x="326.193472" xlink:href="#m6fa13b5e40" y="92.198053"/>
     <use style="fill:#0000ff;stroke:#0000ff;" x="325.391631" xlink:href="#m6fa13b5e40" y="91.88783"/>
     <use style="fill:#0000ff;stroke:#0000ff;" x="377.088576" xlink:href="#m6fa13b5e40" y="104.508496"/>
     <use style="fill:#0000ff;stroke:#0000ff;" x="378.263994" xlink:href="#m6fa13b5e40" y="107.409441"/>
     <use style="fill:#0000ff;stroke:#0000ff;" x="360.708732" xlink:href="#m6fa13b5e40" y="100.913688"/>
     <use style="fill:#0000ff;stroke:#0000ff;" x="368.852668" xlink:href="#m6fa13b5e40" y="103.030702"/>
     <use style="fill:#0000ff;stroke:#0000ff;" x="363.089109" xlink:href="#m6fa13b5e40" y="102.67253"/>
     <use style="fill:#0000ff;stroke:#0000ff;" x="323.820416" xlink:href="#m6fa13b5e40" y="91.593498"/>
     <use style="fill:#0000ff;stroke:#0000ff;" x="383.056818" xlink:href="#m6fa13b5e40" y="116.044069"/>
     <use style="fill:#0000ff;stroke:#0000ff;" x="326.97321" xlink:href="#m6fa13b5e40" y="94.250737"/>
     <use style="fill:#0000ff;stroke:#0000ff;" x="322.756088" xlink:href="#m6fa13b5e40" y="87.543704"/>
     <use style="fill:#0000ff;stroke:#0000ff;" x="320.487637" xlink:href="#m6fa13b5e40" y="84.820756"/>
     <use style="fill:#0000ff;stroke:#0000ff;" x="325.260088" xlink:href="#m6fa13b5e40" y="91.650261"/>
     <use style="fill:#0000ff;stroke:#0000ff;" x="268.624409" xlink:href="#m6fa13b5e40" y="80.198482"/>
     <use style="fill:#0000ff;stroke:#0000ff;" x="330.848151" xlink:href="#m6fa13b5e40" y="99.066594"/>
     <use style="fill:#0000ff;stroke:#0000ff;" x="380.747973" xlink:href="#m6fa13b5e40" y="112.721294"/>
     <use style="fill:#0000ff;stroke:#0000ff;" x="380.536129" xlink:href="#m6fa13b5e40" y="111.706444"/>
     <use style="fill:#0000ff;stroke:#0000ff;" x="260.858012" xlink:href="#m6fa13b5e40" y="68.375718"/>
     <use style="fill:#0000ff;stroke:#0000ff;" x="315.087586" xlink:href="#m6fa13b5e40" y="82.36296"/>
     <use style="fill:#0000ff;stroke:#0000ff;" x="314.873406" xlink:href="#m6fa13b5e40" y="82.026322"/>
    </g>
   </g>
   <g id="matplotlib.axis_1">
    <g id="xtick_1">
     <g id="line2d_1">
      <defs>
       <path d="M 0 0 
L 0 3.5 
" id="m95a789931f" style="stroke:#000000;stroke-width:0.8;"/>
      </defs>
      <g>
       <use style="stroke:#000000;stroke-width:0.8;" x="57.6" xlink:href="#m95a789931f" y="307.584"/>
      </g>
     </g>
     <g id="text_1">
      <!-- −1.2 -->
      <defs>
       <path d="M 10.59375 35.5 
L 73.1875 35.5 
L 73.1875 27.203125 
L 10.59375 27.203125 
z
" id="DejaVuSans-2212"/>
       <path d="M 12.40625 8.296875 
L 28.515625 8.296875 
L 28.515625 63.921875 
L 10.984375 60.40625 
L 10.984375 69.390625 
L 28.421875 72.90625 
L 38.28125 72.90625 
L 38.28125 8.296875 
L 54.390625 8.296875 
L 54.390625 0 
L 12.40625 0 
z
" id="DejaVuSans-31"/>
       <path d="M 10.6875 12.40625 
L 21 12.40625 
L 21 0 
L 10.6875 0 
z
" id="DejaVuSans-2e"/>
       <path d="M 19.1875 8.296875 
L 53.609375 8.296875 
L 53.609375 0 
L 7.328125 0 
L 7.328125 8.296875 
Q 12.9375 14.109375 22.625 23.890625 
Q 32.328125 33.6875 34.8125 36.53125 
Q 39.546875 41.84375 41.421875 45.53125 
Q 43.3125 49.21875 43.3125 52.78125 
Q 43.3125 58.59375 39.234375 62.25 
Q 35.15625 65.921875 28.609375 65.921875 
Q 23.96875 65.921875 18.8125 64.3125 
Q 13.671875 62.703125 7.8125 59.421875 
L 7.8125 69.390625 
Q 13.765625 71.78125 18.9375 73 
Q 24.125 74.21875 28.421875 74.21875 
Q 39.75 74.21875 46.484375 68.546875 
Q 53.21875 62.890625 53.21875 53.421875 
Q 53.21875 48.921875 51.53125 44.890625 
Q 49.859375 40.875 45.40625 35.40625 
Q 44.1875 33.984375 37.640625 27.21875 
Q 31.109375 20.453125 19.1875 8.296875 
z
" id="DejaVuSans-32"/>
      </defs>
      <g transform="translate(45.458594 322.182437)scale(0.1 -0.1)">
       <use xlink:href="#DejaVuSans-2212"/>
       <use x="83.789062" xlink:href="#DejaVuSans-31"/>
       <use x="147.412109" xlink:href="#DejaVuSans-2e"/>
       <use x="179.199219" xlink:href="#DejaVuSans-32"/>
      </g>
     </g>
    </g>
    <g id="xtick_2">
     <g id="line2d_2">
      <g>
       <use style="stroke:#000000;stroke-width:0.8;" x="112.541538" xlink:href="#m95a789931f" y="307.584"/>
      </g>
     </g>
     <g id="text_2">
      <!-- −1.0 -->
      <defs>
       <path d="M 31.78125 66.40625 
Q 24.171875 66.40625 20.328125 58.90625 
Q 16.5 51.421875 16.5 36.375 
Q 16.5 21.390625 20.328125 13.890625 
Q 24.171875 6.390625 31.78125 6.390625 
Q 39.453125 6.390625 43.28125 13.890625 
Q 47.125 21.390625 47.125 36.375 
Q 47.125 51.421875 43.28125 58.90625 
Q 39.453125 66.40625 31.78125 66.40625 
z
M 31.78125 74.21875 
Q 44.046875 74.21875 50.515625 64.515625 
Q 56.984375 54.828125 56.984375 36.375 
Q 56.984375 17.96875 50.515625 8.265625 
Q 44.046875 -1.421875 31.78125 -1.421875 
Q 19.53125 -1.421875 13.0625 8.265625 
Q 6.59375 17.96875 6.59375 36.375 
Q 6.59375 54.828125 13.0625 64.515625 
Q 19.53125 74.21875 31.78125 74.21875 
z
" id="DejaVuSans-30"/>
      </defs>
      <g transform="translate(100.400132 322.182437)scale(0.1 -0.1)">
       <use xlink:href="#DejaVuSans-2212"/>
       <use x="83.789062" xlink:href="#DejaVuSans-31"/>
       <use x="147.412109" xlink:href="#DejaVuSans-2e"/>
       <use x="179.199219" xlink:href="#DejaVuSans-30"/>
      </g>
     </g>
    </g>
    <g id="xtick_3">
     <g id="line2d_3">
      <g>
       <use style="stroke:#000000;stroke-width:0.8;" x="167.483077" xlink:href="#m95a789931f" y="307.584"/>
      </g>
     </g>
     <g id="text_3">
      <!-- −0.8 -->
      <defs>
       <path d="M 31.78125 34.625 
Q 24.75 34.625 20.71875 30.859375 
Q 16.703125 27.09375 16.703125 20.515625 
Q 16.703125 13.921875 20.71875 10.15625 
Q 24.75 6.390625 31.78125 6.390625 
Q 38.8125 6.390625 42.859375 10.171875 
Q 46.921875 13.96875 46.921875 20.515625 
Q 46.921875 27.09375 42.890625 30.859375 
Q 38.875 34.625 31.78125 34.625 
z
M 21.921875 38.8125 
Q 15.578125 40.375 12.03125 44.71875 
Q 8.5 49.078125 8.5 55.328125 
Q 8.5 64.0625 14.71875 69.140625 
Q 20.953125 74.21875 31.78125 74.21875 
Q 42.671875 74.21875 48.875 69.140625 
Q 55.078125 64.0625 55.078125 55.328125 
Q 55.078125 49.078125 51.53125 44.71875 
Q 48 40.375 41.703125 38.8125 
Q 48.828125 37.15625 52.796875 32.3125 
Q 56.78125 27.484375 56.78125 20.515625 
Q 56.78125 9.90625 50.3125 4.234375 
Q 43.84375 -1.421875 31.78125 -1.421875 
Q 19.734375 -1.421875 13.25 4.234375 
Q 6.78125 9.90625 6.78125 20.515625 
Q 6.78125 27.484375 10.78125 32.3125 
Q 14.796875 37.15625 21.921875 38.8125 
z
M 18.3125 54.390625 
Q 18.3125 48.734375 21.84375 45.5625 
Q 25.390625 42.390625 31.78125 42.390625 
Q 38.140625 42.390625 41.71875 45.5625 
Q 45.3125 48.734375 45.3125 54.390625 
Q 45.3125 60.0625 41.71875 63.234375 
Q 38.140625 66.40625 31.78125 66.40625 
Q 25.390625 66.40625 21.84375 63.234375 
Q 18.3125 60.0625 18.3125 54.390625 
z
" id="DejaVuSans-38"/>
      </defs>
      <g transform="translate(155.341671 322.182437)scale(0.1 -0.1)">
       <use xlink:href="#DejaVuSans-2212"/>
       <use x="83.789062" xlink:href="#DejaVuSans-30"/>
       <use x="147.412109" xlink:href="#DejaVuSans-2e"/>
       <use x="179.199219" xlink:href="#DejaVuSans-38"/>
      </g>
     </g>
    </g>
    <g id="xtick_4">
     <g id="line2d_4">
      <g>
       <use style="stroke:#000000;stroke-width:0.8;" x="222.424615" xlink:href="#m95a789931f" y="307.584"/>
      </g>
     </g>
     <g id="text_4">
      <!-- −0.6 -->
      <defs>
       <path d="M 33.015625 40.375 
Q 26.375 40.375 22.484375 35.828125 
Q 18.609375 31.296875 18.609375 23.390625 
Q 18.609375 15.53125 22.484375 10.953125 
Q 26.375 6.390625 33.015625 6.390625 
Q 39.65625 6.390625 43.53125 10.953125 
Q 47.40625 15.53125 47.40625 23.390625 
Q 47.40625 31.296875 43.53125 35.828125 
Q 39.65625 40.375 33.015625 40.375 
z
M 52.59375 71.296875 
L 52.59375 62.3125 
Q 48.875 64.0625 45.09375 64.984375 
Q 41.3125 65.921875 37.59375 65.921875 
Q 27.828125 65.921875 22.671875 59.328125 
Q 17.53125 52.734375 16.796875 39.40625 
Q 19.671875 43.65625 24.015625 45.921875 
Q 28.375 48.1875 33.59375 48.1875 
Q 44.578125 48.1875 50.953125 41.515625 
Q 57.328125 34.859375 57.328125 23.390625 
Q 57.328125 12.15625 50.6875 5.359375 
Q 44.046875 -1.421875 33.015625 -1.421875 
Q 20.359375 -1.421875 13.671875 8.265625 
Q 6.984375 17.96875 6.984375 36.375 
Q 6.984375 53.65625 15.1875 63.9375 
Q 23.390625 74.21875 37.203125 74.21875 
Q 40.921875 74.21875 44.703125 73.484375 
Q 48.484375 72.75 52.59375 71.296875 
z
" id="DejaVuSans-36"/>
      </defs>
      <g transform="translate(210.283209 322.182437)scale(0.1 -0.1)">
       <use xlink:href="#DejaVuSans-2212"/>
       <use x="83.789062" xlink:href="#DejaVuSans-30"/>
       <use x="147.412109" xlink:href="#DejaVuSans-2e"/>
       <use x="179.199219" xlink:href="#DejaVuSans-36"/>
      </g>
     </g>
    </g>
    <g id="xtick_5">
     <g id="line2d_5">
      <g>
       <use style="stroke:#000000;stroke-width:0.8;" x="277.366154" xlink:href="#m95a789931f" y="307.584"/>
      </g>
     </g>
     <g id="text_5">
      <!-- −0.4 -->
      <defs>
       <path d="M 37.796875 64.3125 
L 12.890625 25.390625 
L 37.796875 25.390625 
z
M 35.203125 72.90625 
L 47.609375 72.90625 
L 47.609375 25.390625 
L 58.015625 25.390625 
L 58.015625 17.1875 
L 47.609375 17.1875 
L 47.609375 0 
L 37.796875 0 
L 37.796875 17.1875 
L 4.890625 17.1875 
L 4.890625 26.703125 
z
" id="DejaVuSans-34"/>
      </defs>
      <g transform="translate(265.224748 322.182437)scale(0.1 -0.1)">
       <use xlink:href="#DejaVuSans-2212"/>
       <use x="83.789062" xlink:href="#DejaVuSans-30"/>
       <use x="147.412109" xlink:href="#DejaVuSans-2e"/>
       <use x="179.199219" xlink:href="#DejaVuSans-34"/>
      </g>
     </g>
    </g>
    <g id="xtick_6">
     <g id="line2d_6">
      <g>
       <use style="stroke:#000000;stroke-width:0.8;" x="332.307692" xlink:href="#m95a789931f" y="307.584"/>
      </g>
     </g>
     <g id="text_6">
      <!-- −0.2 -->
      <g transform="translate(320.166286 322.182437)scale(0.1 -0.1)">
       <use xlink:href="#DejaVuSans-2212"/>
       <use x="83.789062" xlink:href="#DejaVuSans-30"/>
       <use x="147.412109" xlink:href="#DejaVuSans-2e"/>
       <use x="179.199219" xlink:href="#DejaVuSans-32"/>
      </g>
     </g>
    </g>
    <g id="xtick_7">
     <g id="line2d_7">
      <g>
       <use style="stroke:#000000;stroke-width:0.8;" x="387.249231" xlink:href="#m95a789931f" y="307.584"/>
      </g>
     </g>
     <g id="text_7">
      <!-- 0.0 -->
      <g transform="translate(379.297668 322.182437)scale(0.1 -0.1)">
       <use xlink:href="#DejaVuSans-30"/>
       <use x="63.623047" xlink:href="#DejaVuSans-2e"/>
       <use x="95.410156" xlink:href="#DejaVuSans-30"/>
      </g>
     </g>
    </g>
   </g>
   <g id="matplotlib.axis_2">
    <g id="ytick_1">
     <g id="line2d_8">
      <defs>
       <path d="M 0 0 
L -3.5 0 
" id="m3fd8b70a3d" style="stroke:#000000;stroke-width:0.8;"/>
      </defs>
      <g>
       <use style="stroke:#000000;stroke-width:0.8;" x="57.6" xlink:href="#m3fd8b70a3d" y="307.584"/>
      </g>
     </g>
     <g id="text_8">
      <!-- −5 -->
      <defs>
       <path d="M 10.796875 72.90625 
L 49.515625 72.90625 
L 49.515625 64.59375 
L 19.828125 64.59375 
L 19.828125 46.734375 
Q 21.96875 47.46875 24.109375 47.828125 
Q 26.265625 48.1875 28.421875 48.1875 
Q 40.625 48.1875 47.75 41.5 
Q 54.890625 34.8125 54.890625 23.390625 
Q 54.890625 11.625 47.5625 5.09375 
Q 40.234375 -1.421875 26.90625 -1.421875 
Q 22.3125 -1.421875 17.546875 -0.640625 
Q 12.796875 0.140625 7.71875 1.703125 
L 7.71875 11.625 
Q 12.109375 9.234375 16.796875 8.0625 
Q 21.484375 6.890625 26.703125 6.890625 
Q 35.15625 6.890625 40.078125 11.328125 
Q 45.015625 15.765625 45.015625 23.390625 
Q 45.015625 31 40.078125 35.4375 
Q 35.15625 39.890625 26.703125 39.890625 
Q 22.75 39.890625 18.8125 39.015625 
Q 14.890625 38.140625 10.796875 36.28125 
z
" id="DejaVuSans-35"/>
      </defs>
      <g transform="translate(35.857813 311.383219)scale(0.1 -0.1)">
       <use xlink:href="#DejaVuSans-2212"/>
       <use x="83.789062" xlink:href="#DejaVuSans-35"/>
      </g>
     </g>
    </g>
    <g id="ytick_2">
     <g id="line2d_9">
      <g>
       <use style="stroke:#000000;stroke-width:0.8;" x="57.6" xlink:href="#m3fd8b70a3d" y="254.3616"/>
      </g>
     </g>
     <g id="text_9">
      <!-- −4 -->
      <g transform="translate(35.857813 258.160819)scale(0.1 -0.1)">
       <use xlink:href="#DejaVuSans-2212"/>
       <use x="83.789062" xlink:href="#DejaVuSans-34"/>
      </g>
     </g>
    </g>
    <g id="ytick_3">
     <g id="line2d_10">
      <g>
       <use style="stroke:#000000;stroke-width:0.8;" x="57.6" xlink:href="#m3fd8b70a3d" y="201.1392"/>
      </g>
     </g>
     <g id="text_10">
      <!-- −3 -->
      <defs>
       <path d="M 40.578125 39.3125 
Q 47.65625 37.796875 51.625 33 
Q 55.609375 28.21875 55.609375 21.1875 
Q 55.609375 10.40625 48.1875 4.484375 
Q 40.765625 -1.421875 27.09375 -1.421875 
Q 22.515625 -1.421875 17.65625 -0.515625 
Q 12.796875 0.390625 7.625 2.203125 
L 7.625 11.71875 
Q 11.71875 9.328125 16.59375 8.109375 
Q 21.484375 6.890625 26.8125 6.890625 
Q 36.078125 6.890625 40.9375 10.546875 
Q 45.796875 14.203125 45.796875 21.1875 
Q 45.796875 27.640625 41.28125 31.265625 
Q 36.765625 34.90625 28.71875 34.90625 
L 20.21875 34.90625 
L 20.21875 43.015625 
L 29.109375 43.015625 
Q 36.375 43.015625 40.234375 45.921875 
Q 44.09375 48.828125 44.09375 54.296875 
Q 44.09375 59.90625 40.109375 62.90625 
Q 36.140625 65.921875 28.71875 65.921875 
Q 24.65625 65.921875 20.015625 65.03125 
Q 15.375 64.15625 9.8125 62.3125 
L 9.8125 71.09375 
Q 15.4375 72.65625 20.34375 73.4375 
Q 25.25 74.21875 29.59375 74.21875 
Q 40.828125 74.21875 47.359375 69.109375 
Q 53.90625 64.015625 53.90625 55.328125 
Q 53.90625 49.265625 50.4375 45.09375 
Q 46.96875 40.921875 40.578125 39.3125 
z
" id="DejaVuSans-33"/>
      </defs>
      <g transform="translate(35.857813 204.938419)scale(0.1 -0.1)">
       <use xlink:href="#DejaVuSans-2212"/>
       <use x="83.789062" xlink:href="#DejaVuSans-33"/>
      </g>
     </g>
    </g>
    <g id="ytick_4">
     <g id="line2d_11">
      <g>
       <use style="stroke:#000000;stroke-width:0.8;" x="57.6" xlink:href="#m3fd8b70a3d" y="147.9168"/>
      </g>
     </g>
     <g id="text_11">
      <!-- −2 -->
      <g transform="translate(35.857813 151.716019)scale(0.1 -0.1)">
       <use xlink:href="#DejaVuSans-2212"/>
       <use x="83.789062" xlink:href="#DejaVuSans-32"/>
      </g>
     </g>
    </g>
    <g id="ytick_5">
     <g id="line2d_12">
      <g>
       <use style="stroke:#000000;stroke-width:0.8;" x="57.6" xlink:href="#m3fd8b70a3d" y="94.6944"/>
      </g>
     </g>
     <g id="text_12">
      <!-- −1 -->
      <g transform="translate(35.857813 98.493619)scale(0.1 -0.1)">
       <use xlink:href="#DejaVuSans-2212"/>
       <use x="83.789062" xlink:href="#DejaVuSans-31"/>
      </g>
     </g>
    </g>
    <g id="ytick_6">
     <g id="line2d_13">
      <g>
       <use style="stroke:#000000;stroke-width:0.8;" x="57.6" xlink:href="#m3fd8b70a3d" y="41.472"/>
      </g>
     </g>
     <g id="text_13">
      <!-- 0 -->
      <g transform="translate(44.2375 45.271219)scale(0.1 -0.1)">
       <use xlink:href="#DejaVuSans-30"/>
      </g>
     </g>
    </g>
   </g>
   <g id="patch_3">
    <path d="M 57.6 307.584 
L 57.6 41.472 
" style="fill:none;stroke:#000000;stroke-linecap:square;stroke-linejoin:miter;stroke-width:0.8;"/>
   </g>
   <g id="patch_4">
    <path d="M 414.72 307.584 
L 414.72 41.472 
" style="fill:none;stroke:#000000;stroke-linecap:square;stroke-linejoin:miter;stroke-width:0.8;"/>
   </g>
   <g id="patch_5">
    <path d="M 57.6 307.584 
L 414.72 307.584 
" style="fill:none;stroke:#000000;stroke-linecap:square;stroke-linejoin:miter;stroke-width:0.8;"/>
   </g>
   <g id="patch_6">
    <path d="M 57.6 41.472 
L 414.72 41.472 
" style="fill:none;stroke:#000000;stroke-linecap:square;stroke-linejoin:miter;stroke-width:0.8;"/>
   </g>
  </g>
 </g>
 <defs>
  <clipPath id="p879d44526f">
   <rect height="266.112" width="357.12" x="57.6" y="41.472"/>
  </clipPath>
 </defs>
</svg>
