<?xml version="1.0" encoding="utf-8" standalone="no"?>
<!DOCTYPE svg PUBLIC "-//W3C//DTD SVG 1.1//EN"
  "http://www.w3.org/Graphics/SVG/1.1/DTD/svg11.dtd">
<!-- Created with matplotlib (http://matplotlib.org/) -->
<svg height="345.6pt" version="1.1" viewBox="0 0 460.8 345.6" width="460.8pt" xmlns="http://www.w3.org/2000/svg" xmlns:xlink="http://www.w3.org/1999/xlink">
 <defs>
  <style type="text/css">
*{stroke-linecap:butt;stroke-linejoin:round;}
  </style>
 </defs>
 <g id="figure_1">
  <g id="patch_1">
   <path d="M 0 345.6 
L 460.8 345.6 
L 460.8 0 
L 0 0 
z
" style="fill:#ffffff;"/>
  </g>
  <g id="axes_1">
   <g id="patch_2">
    <path d="M 57.6 307.584 
L 414.72 307.584 
L 414.72 41.472 
L 57.6 41.472 
z
" style="fill:#ffffff;"/>
   </g>
   <g id="PathCollection_1">
    <defs>
     <path d="M 0 0.612372 
C 0.162403 0.612372 0.318176 0.547849 0.433013 0.433013 
C 0.547849 0.318176 0.612372 0.162403 0.612372 0 
C 0.612372 -0.162403 0.547849 -0.318176 0.433013 -0.433013 
C 0.318176 -0.547849 0.162403 -0.612372 0 -0.612372 
C -0.162403 -0.612372 -0.318176 -0.547849 -0.433013 -0.433013 
C -0.547849 -0.318176 -0.612372 -0.162403 -0.612372 0 
C -0.612372 0.162403 -0.547849 0.318176 -0.433013 0.433013 
C -0.318176 0.547849 -0.162403 0.612372 0 0.612372 
z
" id="m1fd930c5e7" style="stroke:#000000;"/>
    </defs>
    <g clip-path="url(#pba187ec201)">
     <use style="stroke:#000000;" x="81.928639" xlink:href="#m1fd930c5e7" y="88.168971"/>
     <use style="stroke:#000000;" x="95.434589" xlink:href="#m1fd930c5e7" y="120.025851"/>
     <use style="stroke:#000000;" x="107.155277" xlink:href="#m1fd930c5e7" y="131.718575"/>
     <use style="stroke:#000000;" x="384.551523" xlink:href="#m1fd930c5e7" y="247.922422"/>
     <use style="stroke:#000000;" x="81.898103" xlink:href="#m1fd930c5e7" y="87.916553"/>
     <use style="stroke:#000000;" x="81.408" xlink:href="#m1fd930c5e7" y="79.488"/>
     <use style="stroke:#000000;" x="89.230219" xlink:href="#m1fd930c5e7" y="110.819445"/>
     <use style="stroke:#000000;" x="405.1968" xlink:href="#m1fd930c5e7" y="254.3616"/>
     <use style="stroke:#000000;" x="345.798677" xlink:href="#m1fd930c5e7" y="227.213874"/>
     <use style="stroke:#000000;" x="83.155748" xlink:href="#m1fd930c5e7" y="95.081839"/>
     <use style="stroke:#000000;" x="123.908116" xlink:href="#m1fd930c5e7" y="142.832302"/>
     <use style="stroke:#000000;" x="81.408" xlink:href="#m1fd930c5e7" y="79.488"/>
     <use style="stroke:#000000;" x="319.624316" xlink:href="#m1fd930c5e7" y="179.021876"/>
     <use style="stroke:#000000;" x="82.747565" xlink:href="#m1fd930c5e7" y="93.211195"/>
     <use style="stroke:#000000;" x="82.28483" xlink:href="#m1fd930c5e7" y="90.673378"/>
     <use style="stroke:#000000;" x="167.1168" xlink:href="#m1fd930c5e7" y="159.3216"/>
     <use style="stroke:#000000;" x="87.04071" xlink:href="#m1fd930c5e7" y="106.476517"/>
     <use style="stroke:#000000;" x="374.776147" xlink:href="#m1fd930c5e7" y="244.056381"/>
     <use style="stroke:#000000;" x="386.343453" xlink:href="#m1fd930c5e7" y="248.566151"/>
     <use style="stroke:#000000;" x="133.750529" xlink:href="#m1fd930c5e7" y="147.718769"/>
     <use style="stroke:#000000;" x="126.498361" xlink:href="#m1fd930c5e7" y="144.209418"/>
     <use style="stroke:#000000;" x="131.051138" xlink:href="#m1fd930c5e7" y="146.467753"/>
     <use style="stroke:#000000;" x="89.843941" xlink:href="#m1fd930c5e7" y="111.900542"/>
     <use style="stroke:#000000;" x="393.906702" xlink:href="#m1fd930c5e7" y="251.091839"/>
     <use style="stroke:#000000;" x="83.272588" xlink:href="#m1fd930c5e7" y="95.565233"/>
     <use style="stroke:#000000;" x="87.896231" xlink:href="#m1fd930c5e7" y="108.276869"/>
     <use style="stroke:#000000;" x="159.456985" xlink:href="#m1fd930c5e7" y="157.163846"/>
     <use style="stroke:#000000;" x="269.505386" xlink:href="#m1fd930c5e7" y="173.353908"/>
     <use style="stroke:#000000;" x="118.870053" xlink:href="#m1fd930c5e7" y="139.933287"/>
     <use style="stroke:#000000;" x="122.623032" xlink:href="#m1fd930c5e7" y="142.121804"/>
     <use style="stroke:#000000;" x="83.981518" xlink:href="#m1fd930c5e7" y="98.223018"/>
     <use style="stroke:#000000;" x="167.1168" xlink:href="#m1fd930c5e7" y="159.3216"/>
     <use style="stroke:#000000;" x="93.513248" xlink:href="#m1fd930c5e7" y="117.516615"/>
     <use style="stroke:#000000;" x="167.1168" xlink:href="#m1fd930c5e7" y="159.3216"/>
     <use style="stroke:#000000;" x="81.61609" xlink:href="#m1fd930c5e7" y="85.024467"/>
     <use style="stroke:#000000;" x="81.408" xlink:href="#m1fd930c5e7" y="79.488"/>
     <use style="stroke:#000000;" x="81.408" xlink:href="#m1fd930c5e7" y="79.488"/>
     <use style="stroke:#000000;" x="167.1168" xlink:href="#m1fd930c5e7" y="159.3216"/>
     <use style="stroke:#000000;" x="92.031843" xlink:href="#m1fd930c5e7" y="115.399825"/>
     <use style="stroke:#000000;" x="141.666673" xlink:href="#m1fd930c5e7" y="151.061055"/>
     <use style="stroke:#000000;" x="375.789947" xlink:href="#m1fd930c5e7" y="244.487675"/>
     <use style="stroke:#000000;" x="83.987678" xlink:href="#m1fd930c5e7" y="98.244195"/>
     <use style="stroke:#000000;" x="119.816963" xlink:href="#m1fd930c5e7" y="140.502263"/>
     <use style="stroke:#000000;" x="363.975271" xlink:href="#m1fd930c5e7" y="238.935102"/>
     <use style="stroke:#000000;" x="127.049887" xlink:href="#m1fd930c5e7" y="144.49362"/>
     <use style="stroke:#000000;" x="361.060632" xlink:href="#m1fd930c5e7" y="237.361406"/>
     <use style="stroke:#000000;" x="130.754709" xlink:href="#m1fd930c5e7" y="146.326556"/>
     <use style="stroke:#000000;" x="82.597824" xlink:href="#m1fd930c5e7" y="92.450462"/>
     <use style="stroke:#000000;" x="82.498767" xlink:href="#m1fd930c5e7" y="91.918498"/>
     <use style="stroke:#000000;" x="384.70444" xlink:href="#m1fd930c5e7" y="247.97808"/>
     <use style="stroke:#000000;" x="157.641574" xlink:href="#m1fd930c5e7" y="156.830814"/>
     <use style="stroke:#000000;" x="81.561891" xlink:href="#m1fd930c5e7" y="84.259177"/>
     <use style="stroke:#000000;" x="81.570309" xlink:href="#m1fd930c5e7" y="84.386226"/>
     <use style="stroke:#000000;" x="81.408" xlink:href="#m1fd930c5e7" y="79.488"/>
     <use style="stroke:#000000;" x="81.59352" xlink:href="#m1fd930c5e7" y="84.719982"/>
     <use style="stroke:#000000;" x="131.090569" xlink:href="#m1fd930c5e7" y="146.486476"/>
     <use style="stroke:#000000;" x="129.699542" xlink:href="#m1fd930c5e7" y="145.81757"/>
     <use style="stroke:#000000;" x="154.078211" xlink:href="#m1fd930c5e7" y="155.493966"/>
     <use style="stroke:#000000;" x="378.60887" xlink:href="#m1fd930c5e7" y="245.648134"/>
     <use style="stroke:#000000;" x="87.68713" xlink:href="#m1fd930c5e7" y="107.850563"/>
     <use style="stroke:#000000;" x="395.689244" xlink:href="#m1fd930c5e7" y="251.64548"/>
     <use style="stroke:#000000;" x="81.417926" xlink:href="#m1fd930c5e7" y="80.711346"/>
     <use style="stroke:#000000;" x="112.575376" xlink:href="#m1fd930c5e7" y="135.820311"/>
     <use style="stroke:#000000;" x="321.148314" xlink:href="#m1fd930c5e7" y="189.738616"/>
     <use style="stroke:#000000;" x="83.362347" xlink:href="#m1fd930c5e7" y="95.929528"/>
     <use style="stroke:#000000;" x="81.656935" xlink:href="#m1fd930c5e7" y="85.534988"/>
     <use style="stroke:#000000;" x="82.24976" xlink:href="#m1fd930c5e7" y="90.454334"/>
     <use style="stroke:#000000;" x="81.550809" xlink:href="#m1fd930c5e7" y="84.086342"/>
     <use style="stroke:#000000;" x="137.936906" xlink:href="#m1fd930c5e7" y="149.543194"/>
     <use style="stroke:#000000;" x="81.805541" xlink:href="#m1fd930c5e7" y="87.096526"/>
     <use style="stroke:#000000;" x="81.408" xlink:href="#m1fd930c5e7" y="79.488"/>
     <use style="stroke:#000000;" x="82.277026" xlink:href="#m1fd930c5e7" y="90.62504"/>
     <use style="stroke:#000000;" x="81.408" xlink:href="#m1fd930c5e7" y="79.488"/>
     <use style="stroke:#000000;" x="90.080636" xlink:href="#m1fd930c5e7" y="112.30454"/>
     <use style="stroke:#000000;" x="81.408" xlink:href="#m1fd930c5e7" y="79.488"/>
     <use style="stroke:#000000;" x="81.508723" xlink:href="#m1fd930c5e7" y="83.357464"/>
     <use style="stroke:#000000;" x="102.355115" xlink:href="#m1fd930c5e7" y="127.507605"/>
     <use style="stroke:#000000;" x="92.748805" xlink:href="#m1fd930c5e7" y="116.446379"/>
     <use style="stroke:#000000;" x="146.14716" xlink:href="#m1fd930c5e7" y="152.763907"/>
     <use style="stroke:#000000;" x="150.406488" xlink:href="#m1fd930c5e7" y="154.272312"/>
     <use style="stroke:#000000;" x="85.628093" xlink:href="#m1fd930c5e7" y="108.347338"/>
     <use style="stroke:#000000;" x="96.031546" xlink:href="#m1fd930c5e7" y="123.517981"/>
     <use style="stroke:#000000;" x="88.652491" xlink:href="#m1fd930c5e7" y="109.753327"/>
     <use style="stroke:#000000;" x="94.488836" xlink:href="#m1fd930c5e7" y="120.455522"/>
     <use style="stroke:#000000;" x="99.855231" xlink:href="#m1fd930c5e7" y="129.175909"/>
     <use style="stroke:#000000;" x="110.365412" xlink:href="#m1fd930c5e7" y="134.750095"/>
     <use style="stroke:#000000;" x="108.617989" xlink:href="#m1fd930c5e7" y="139.310491"/>
     <use style="stroke:#000000;" x="109.88" xlink:href="#m1fd930c5e7" y="134.043041"/>
     <use style="stroke:#000000;" x="388.411171" xlink:href="#m1fd930c5e7" y="249.286513"/>
     <use style="stroke:#000000;" x="380.769121" xlink:href="#m1fd930c5e7" y="246.500779"/>
     <use style="stroke:#000000;" x="390.631834" xlink:href="#m1fd930c5e7" y="250.034552"/>
     <use style="stroke:#000000;" x="81.770322" xlink:href="#m1fd930c5e7" y="86.758549"/>
     <use style="stroke:#000000;" x="82.138137" xlink:href="#m1fd930c5e7" y="89.722866"/>
     <use style="stroke:#000000;" x="81.923786" xlink:href="#m1fd930c5e7" y="91.097061"/>
     <use style="stroke:#000000;" x="81.643335" xlink:href="#m1fd930c5e7" y="86.584654"/>
     <use style="stroke:#000000;" x="81.505747" xlink:href="#m1fd930c5e7" y="83.300443"/>
     <use style="stroke:#000000;" x="81.411562" xlink:href="#m1fd930c5e7" y="80.421136"/>
     <use style="stroke:#000000;" x="90.993701" xlink:href="#m1fd930c5e7" y="116.153696"/>
     <use style="stroke:#000000;" x="89.586088" xlink:href="#m1fd930c5e7" y="111.452404"/>
     <use style="stroke:#000000;" x="87.742283" xlink:href="#m1fd930c5e7" y="107.963822"/>
     <use style="stroke:#000000;" x="395.68081" xlink:href="#m1fd930c5e7" y="254.322863"/>
     <use style="stroke:#000000;" x="391.62484" xlink:href="#m1fd930c5e7" y="254.282105"/>
     <use style="stroke:#000000;" x="404.962064" xlink:href="#m1fd930c5e7" y="254.342858"/>
     <use style="stroke:#000000;" x="333.388809" xlink:href="#m1fd930c5e7" y="229.73783"/>
     <use style="stroke:#000000;" x="343.383542" xlink:href="#m1fd930c5e7" y="225.208036"/>
     <use style="stroke:#000000;" x="347.638688" xlink:href="#m1fd930c5e7" y="228.651545"/>
     <use style="stroke:#000000;" x="84.578971" xlink:href="#m1fd930c5e7" y="102.197936"/>
     <use style="stroke:#000000;" x="82.887982" xlink:href="#m1fd930c5e7" y="97.11196"/>
     <use style="stroke:#000000;" x="83.682386" xlink:href="#m1fd930c5e7" y="97.16329"/>
     <use style="stroke:#000000;" x="125.000721" xlink:href="#m1fd930c5e7" y="143.421907"/>
     <use style="stroke:#000000;" x="127.574452" xlink:href="#m1fd930c5e7" y="151.490065"/>
     <use style="stroke:#000000;" x="120.897765" xlink:href="#m1fd930c5e7" y="141.38797"/>
     <use style="stroke:#000000;" x="81.813944" xlink:href="#m1fd930c5e7" y="87.174838"/>
     <use style="stroke:#000000;" x="81.946782" xlink:href="#m1fd930c5e7" y="89.357229"/>
     <use style="stroke:#000000;" x="81.43868" xlink:href="#m1fd930c5e7" y="81.633525"/>
     <use style="stroke:#000000;" x="302.347257" xlink:href="#m1fd930c5e7" y="185.981192"/>
     <use style="stroke:#000000;" x="319.488" xlink:href="#m1fd930c5e7" y="174.528"/>
     <use style="stroke:#000000;" x="317.605091" xlink:href="#m1fd930c5e7" y="180.060453"/>
     <use style="stroke:#000000;" x="82.418277" xlink:href="#m1fd930c5e7" y="91.466827"/>
     <use style="stroke:#000000;" x="82.294478" xlink:href="#m1fd930c5e7" y="92.923211"/>
     <use style="stroke:#000000;" x="83.558884" xlink:href="#m1fd930c5e7" y="96.696272"/>
     <use style="stroke:#000000;" x="82.858113" xlink:href="#m1fd930c5e7" y="93.743728"/>
     <use style="stroke:#000000;" x="82.597576" xlink:href="#m1fd930c5e7" y="94.94562"/>
     <use style="stroke:#000000;" x="82.202326" xlink:href="#m1fd930c5e7" y="90.150204"/>
     <use style="stroke:#000000;" x="165.227178" xlink:href="#m1fd930c5e7" y="158.81171"/>
     <use style="stroke:#000000;" x="167.1168" xlink:href="#m1fd930c5e7" y="159.3216"/>
     <use style="stroke:#000000;" x="164.751968" xlink:href="#m1fd930c5e7" y="159.713481"/>
     <use style="stroke:#000000;" x="83.78598" xlink:href="#m1fd930c5e7" y="97.535465"/>
     <use style="stroke:#000000;" x="362.748547" xlink:href="#m1fd930c5e7" y="245.68754"/>
     <use style="stroke:#000000;" x="373.000637" xlink:href="#m1fd930c5e7" y="243.282357"/>
     <use style="stroke:#000000;" x="379.967854" xlink:href="#m1fd930c5e7" y="246.188103"/>
     <use style="stroke:#000000;" x="381.833208" xlink:href="#m1fd930c5e7" y="254.120821"/>
     <use style="stroke:#000000;" x="128.351835" xlink:href="#m1fd930c5e7" y="145.152561"/>
     <use style="stroke:#000000;" x="122.905107" xlink:href="#m1fd930c5e7" y="142.279373"/>
     <use style="stroke:#000000;" x="135.103718" xlink:href="#m1fd930c5e7" y="148.323296"/>
     <use style="stroke:#000000;" x="91.064202" xlink:href="#m1fd930c5e7" y="122.155718"/>
     <use style="stroke:#000000;" x="88.270574" xlink:href="#m1fd930c5e7" y="109.019955"/>
     <use style="stroke:#000000;" x="90.035728" xlink:href="#m1fd930c5e7" y="112.228418"/>
     <use style="stroke:#000000;" x="385.337199" xlink:href="#m1fd930c5e7" y="252.561497"/>
     <use style="stroke:#000000;" x="82.23906" xlink:href="#m1fd930c5e7" y="91.454131"/>
     <use style="stroke:#000000;" x="86.614662" xlink:href="#m1fd930c5e7" y="107.373356"/>
     <use style="stroke:#000000;" x="81.555976" xlink:href="#m1fd930c5e7" y="84.167752"/>
     <use style="stroke:#000000;" x="89.720904" xlink:href="#m1fd930c5e7" y="124.371599"/>
     <use style="stroke:#000000;" x="155.865621" xlink:href="#m1fd930c5e7" y="156.064087"/>
     <use style="stroke:#000000;" x="268.93672" xlink:href="#m1fd930c5e7" y="173.325328"/>
     <use style="stroke:#000000;" x="121.52289" xlink:href="#m1fd930c5e7" y="144.629643"/>
     <use style="stroke:#000000;" x="119.429668" xlink:href="#m1fd930c5e7" y="140.270974"/>
     <use style="stroke:#000000;" x="115.913589" xlink:href="#m1fd930c5e7" y="142.5839"/>
     <use style="stroke:#000000;" x="132.094407" xlink:href="#m1fd930c5e7" y="146.95858"/>
     <use style="stroke:#000000;" x="82.188697" xlink:href="#m1fd930c5e7" y="90.061045"/>
     <use style="stroke:#000000;" x="83.137181" xlink:href="#m1fd930c5e7" y="98.154362"/>
     <use style="stroke:#000000;" x="86.039738" xlink:href="#m1fd930c5e7" y="107.495663"/>
     <use style="stroke:#000000;" x="166.325542" xlink:href="#m1fd930c5e7" y="159.109803"/>
     <use style="stroke:#000000;" x="167.1168" xlink:href="#m1fd930c5e7" y="159.3216"/>
     <use style="stroke:#000000;" x="167.1168" xlink:href="#m1fd930c5e7" y="159.3216"/>
     <use style="stroke:#000000;" x="90.699671" xlink:href="#m1fd930c5e7" y="121.321948"/>
     <use style="stroke:#000000;" x="165.912499" xlink:href="#m1fd930c5e7" y="158.998266"/>
     <use style="stroke:#000000;" x="167.1168" xlink:href="#m1fd930c5e7" y="159.3216"/>
     <use style="stroke:#000000;" x="168.035859" xlink:href="#m1fd930c5e7" y="170.764632"/>
     <use style="stroke:#000000;" x="81.797798" xlink:href="#m1fd930c5e7" y="87.023603"/>
     <use style="stroke:#000000;" x="82.133584" xlink:href="#m1fd930c5e7" y="89.691816"/>
     <use style="stroke:#000000;" x="82.581573" xlink:href="#m1fd930c5e7" y="97.366359"/>
     <use style="stroke:#000000;" x="81.502247" xlink:href="#m1fd930c5e7" y="83.232267"/>
     <use style="stroke:#000000;" x="81.517588" xlink:href="#m1fd930c5e7" y="84.192019"/>
     <use style="stroke:#000000;" x="81.408" xlink:href="#m1fd930c5e7" y="79.488"/>
     <use style="stroke:#000000;" x="81.463153" xlink:href="#m1fd930c5e7" y="82.359052"/>
     <use style="stroke:#000000;" x="164.047311" xlink:href="#m1fd930c5e7" y="158.4861"/>
     <use style="stroke:#000000;" x="167.199033" xlink:href="#m1fd930c5e7" y="162.8214"/>
     <use style="stroke:#000000;" x="167.77454" xlink:href="#m1fd930c5e7" y="169.049877"/>
     <use style="stroke:#000000;" x="90.551431" xlink:href="#m1fd930c5e7" y="113.088283"/>
     <use style="stroke:#000000;" x="142.04281" xlink:href="#m1fd930c5e7" y="155.658365"/>
     <use style="stroke:#000000;" x="376.264576" xlink:href="#m1fd930c5e7" y="244.687005"/>
     <use style="stroke:#000000;" x="373.696937" xlink:href="#m1fd930c5e7" y="243.588795"/>
     <use style="stroke:#000000;" x="377.771387" xlink:href="#m1fd930c5e7" y="245.30917"/>
     <use style="stroke:#000000;" x="87.798585" xlink:href="#m1fd930c5e7" y="108.078832"/>
     <use style="stroke:#000000;" x="85.877806" xlink:href="#m1fd930c5e7" y="106.540026"/>
     <use style="stroke:#000000;" x="83.967504" xlink:href="#m1fd930c5e7" y="98.174732"/>
     <use style="stroke:#000000;" x="114.167777" xlink:href="#m1fd930c5e7" y="136.919651"/>
     <use style="stroke:#000000;" x="120.636262" xlink:href="#m1fd930c5e7" y="140.985183"/>
     <use style="stroke:#000000;" x="361.204006" xlink:href="#m1fd930c5e7" y="237.44102"/>
     <use style="stroke:#000000;" x="367.815995" xlink:href="#m1fd930c5e7" y="240.875322"/>
     <use style="stroke:#000000;" x="125.958605" xlink:href="#m1fd930c5e7" y="143.928286"/>
     <use style="stroke:#000000;" x="122.394945" xlink:href="#m1fd930c5e7" y="141.993715"/>
     <use style="stroke:#000000;" x="359.447198" xlink:href="#m1fd930c5e7" y="236.448908"/>
     <use style="stroke:#000000;" x="357.6443" xlink:href="#m1fd930c5e7" y="235.391597"/>
     <use style="stroke:#000000;" x="134.701986" xlink:href="#m1fd930c5e7" y="150.860102"/>
     <use style="stroke:#000000;" x="123.025679" xlink:href="#m1fd930c5e7" y="143.826921"/>
     <use style="stroke:#000000;" x="82.290576" xlink:href="#m1fd930c5e7" y="95.145841"/>
     <use style="stroke:#000000;" x="82.279738" xlink:href="#m1fd930c5e7" y="90.641866"/>
     <use style="stroke:#000000;" x="82.970149" xlink:href="#m1fd930c5e7" y="94.261405"/>
     <use style="stroke:#000000;" x="82.19652" xlink:href="#m1fd930c5e7" y="90.112318"/>
     <use style="stroke:#000000;" x="390.277852" xlink:href="#m1fd930c5e7" y="249.917038"/>
     <use style="stroke:#000000;" x="385.705418" xlink:href="#m1fd930c5e7" y="248.339057"/>
     <use style="stroke:#000000;" x="153.766982" xlink:href="#m1fd930c5e7" y="155.393087"/>
     <use style="stroke:#000000;" x="149.399504" xlink:href="#m1fd930c5e7" y="157.764077"/>
     <use style="stroke:#000000;" x="84.580229" xlink:href="#m1fd930c5e7" y="109.14868"/>
     <use style="stroke:#000000;" x="83.81258" xlink:href="#m1fd930c5e7" y="97.630799"/>
     <use style="stroke:#000000;" x="82.336337" xlink:href="#m1fd930c5e7" y="93.893915"/>
     <use style="stroke:#000000;" x="81.408" xlink:href="#m1fd930c5e7" y="79.488"/>
     <use style="stroke:#000000;" x="81.593957" xlink:href="#m1fd930c5e7" y="84.726054"/>
     <use style="stroke:#000000;" x="82.257961" xlink:href="#m1fd930c5e7" y="93.851709"/>
     <use style="stroke:#000000;" x="81.408" xlink:href="#m1fd930c5e7" y="79.488"/>
     <use style="stroke:#000000;" x="135.09873" xlink:href="#m1fd930c5e7" y="148.321095"/>
     <use style="stroke:#000000;" x="137.904769" xlink:href="#m1fd930c5e7" y="153.144916"/>
     <use style="stroke:#000000;" x="123.374391" xlink:href="#m1fd930c5e7" y="142.539493"/>
     <use style="stroke:#000000;" x="132.935643" xlink:href="#m1fd930c5e7" y="147.347577"/>
     <use style="stroke:#000000;" x="144.14464" xlink:href="#m1fd930c5e7" y="152.018272"/>
     <use style="stroke:#000000;" x="149.116932" xlink:href="#m1fd930c5e7" y="164.446134"/>
     <use style="stroke:#000000;" x="377.041301" xlink:href="#m1fd930c5e7" y="245.009717"/>
     <use style="stroke:#000000;" x="376.709461" xlink:href="#m1fd930c5e7" y="247.674466"/>
     <use style="stroke:#000000;" x="87.208842" xlink:href="#m1fd930c5e7" y="116.231896"/>
     <use style="stroke:#000000;" x="89.709643" xlink:href="#m1fd930c5e7" y="115.943393"/>
     <use style="stroke:#000000;" x="396.875519" xlink:href="#m1fd930c5e7" y="252.00574"/>
     <use style="stroke:#000000;" x="383.083596" xlink:href="#m1fd930c5e7" y="253.969206"/>
     <use style="stroke:#000000;" x="81.492039" xlink:href="#m1fd930c5e7" y="83.025659"/>
     <use style="stroke:#000000;" x="81.703111" xlink:href="#m1fd930c5e7" y="88.83169"/>
     <use style="stroke:#000000;" x="115.493396" xlink:href="#m1fd930c5e7" y="142.781539"/>
     <use style="stroke:#000000;" x="112.854905" xlink:href="#m1fd930c5e7" y="138.693674"/>
     <use style="stroke:#000000;" x="320.60463" xlink:href="#m1fd930c5e7" y="187.099811"/>
     <use style="stroke:#000000;" x="311.44239" xlink:href="#m1fd930c5e7" y="194.080919"/>
     <use style="stroke:#000000;" x="82.910197" xlink:href="#m1fd930c5e7" y="93.986993"/>
     <use style="stroke:#000000;" x="83.501059" xlink:href="#m1fd930c5e7" y="97.558531"/>
     <use style="stroke:#000000;" x="82.276647" xlink:href="#m1fd930c5e7" y="95.055194"/>
     <use style="stroke:#000000;" x="82.054682" xlink:href="#m1fd930c5e7" y="92.256557"/>
     <use style="stroke:#000000;" x="81.518786" xlink:href="#m1fd930c5e7" y="84.168345"/>
     <use style="stroke:#000000;" x="140.920089" xlink:href="#m1fd930c5e7" y="150.764842"/>
     <use style="stroke:#000000;" x="81.621128" xlink:href="#m1fd930c5e7" y="86.629653"/>
     <use style="stroke:#000000;" x="81.408" xlink:href="#m1fd930c5e7" y="79.488"/>
     <use style="stroke:#000000;" x="81.469793" xlink:href="#m1fd930c5e7" y="82.525609"/>
     <use style="stroke:#000000;" x="81.69565" xlink:href="#m1fd930c5e7" y="88.040381"/>
     <use style="stroke:#000000;" x="81.948654" xlink:href="#m1fd930c5e7" y="91.460887"/>
     <use style="stroke:#000000;" x="83.30535" xlink:href="#m1fd930c5e7" y="95.699296"/>
     <use style="stroke:#000000;" x="89.33123" xlink:href="#m1fd930c5e7" y="111.000866"/>
     <use style="stroke:#000000;" x="81.486862" xlink:href="#m1fd930c5e7" y="82.915977"/>
     <use style="stroke:#000000;" x="82.445131" xlink:href="#m1fd930c5e7" y="91.619595"/>
     <use style="stroke:#000000;" x="102.619325" xlink:href="#m1fd930c5e7" y="127.756596"/>
     <use style="stroke:#000000;" x="94.868932" xlink:href="#m1fd930c5e7" y="119.311786"/>
     <use style="stroke:#000000;" x="92.450593" xlink:href="#m1fd930c5e7" y="118.106301"/>
     <use style="stroke:#000000;" x="141.9105" xlink:href="#m1fd930c5e7" y="162.566201"/>
     <use style="stroke:#000000;" x="152.704759" xlink:href="#m1fd930c5e7" y="155.434188"/>
     <use style="stroke:#000000;" x="149.157351" xlink:href="#m1fd930c5e7" y="168.161496"/>
    </g>
   </g>
   <g id="PathCollection_2">
    <defs>
     <path d="M 0 0.935414 
C 0.248075 0.935414 0.486022 0.836853 0.661438 0.661438 
C 0.836853 0.486022 0.935414 0.248075 0.935414 0 
C 0.935414 -0.248075 0.836853 -0.486022 0.661438 -0.661438 
C 0.486022 -0.836853 0.248075 -0.935414 0 -0.935414 
C -0.248075 -0.935414 -0.486022 -0.836853 -0.661438 -0.661438 
C -0.836853 -0.486022 -0.935414 -0.248075 -0.935414 0 
C -0.935414 0.248075 -0.836853 0.486022 -0.661438 0.661438 
C -0.486022 0.836853 -0.248075 0.935414 0 0.935414 
z
" id="m48a1778c8b" style="stroke:#0000ff;"/>
    </defs>
    <g clip-path="url(#pba187ec201)">
     <use style="fill:#0000ff;stroke:#0000ff;" x="81.928639" xlink:href="#m48a1778c8b" y="88.168971"/>
     <use style="fill:#0000ff;stroke:#0000ff;" x="95.434589" xlink:href="#m48a1778c8b" y="120.025851"/>
     <use style="fill:#0000ff;stroke:#0000ff;" x="107.155277" xlink:href="#m48a1778c8b" y="131.718575"/>
     <use style="fill:#0000ff;stroke:#0000ff;" x="384.551523" xlink:href="#m48a1778c8b" y="247.922422"/>
     <use style="fill:#0000ff;stroke:#0000ff;" x="81.898103" xlink:href="#m48a1778c8b" y="87.916553"/>
     <use style="fill:#0000ff;stroke:#0000ff;" x="81.408" xlink:href="#m48a1778c8b" y="79.488"/>
     <use style="fill:#0000ff;stroke:#0000ff;" x="89.230219" xlink:href="#m48a1778c8b" y="110.819445"/>
     <use style="fill:#0000ff;stroke:#0000ff;" x="405.1968" xlink:href="#m48a1778c8b" y="254.3616"/>
     <use style="fill:#0000ff;stroke:#0000ff;" x="345.798677" xlink:href="#m48a1778c8b" y="227.213874"/>
     <use style="fill:#0000ff;stroke:#0000ff;" x="83.155748" xlink:href="#m48a1778c8b" y="95.081839"/>
     <use style="fill:#0000ff;stroke:#0000ff;" x="123.908116" xlink:href="#m48a1778c8b" y="142.832302"/>
     <use style="fill:#0000ff;stroke:#0000ff;" x="81.408" xlink:href="#m48a1778c8b" y="79.488"/>
     <use style="fill:#0000ff;stroke:#0000ff;" x="319.624316" xlink:href="#m48a1778c8b" y="179.021876"/>
     <use style="fill:#0000ff;stroke:#0000ff;" x="82.747565" xlink:href="#m48a1778c8b" y="93.211195"/>
     <use style="fill:#0000ff;stroke:#0000ff;" x="82.28483" xlink:href="#m48a1778c8b" y="90.673378"/>
     <use style="fill:#0000ff;stroke:#0000ff;" x="167.1168" xlink:href="#m48a1778c8b" y="159.3216"/>
     <use style="fill:#0000ff;stroke:#0000ff;" x="87.04071" xlink:href="#m48a1778c8b" y="106.476517"/>
     <use style="fill:#0000ff;stroke:#0000ff;" x="374.776147" xlink:href="#m48a1778c8b" y="244.056381"/>
     <use style="fill:#0000ff;stroke:#0000ff;" x="386.343453" xlink:href="#m48a1778c8b" y="248.566151"/>
     <use style="fill:#0000ff;stroke:#0000ff;" x="133.750529" xlink:href="#m48a1778c8b" y="147.718769"/>
     <use style="fill:#0000ff;stroke:#0000ff;" x="126.498361" xlink:href="#m48a1778c8b" y="144.209418"/>
     <use style="fill:#0000ff;stroke:#0000ff;" x="131.051138" xlink:href="#m48a1778c8b" y="146.467753"/>
     <use style="fill:#0000ff;stroke:#0000ff;" x="89.843941" xlink:href="#m48a1778c8b" y="111.900542"/>
     <use style="fill:#0000ff;stroke:#0000ff;" x="393.906702" xlink:href="#m48a1778c8b" y="251.091839"/>
     <use style="fill:#0000ff;stroke:#0000ff;" x="83.272588" xlink:href="#m48a1778c8b" y="95.565233"/>
     <use style="fill:#0000ff;stroke:#0000ff;" x="87.896231" xlink:href="#m48a1778c8b" y="108.276869"/>
     <use style="fill:#0000ff;stroke:#0000ff;" x="159.456985" xlink:href="#m48a1778c8b" y="157.163846"/>
     <use style="fill:#0000ff;stroke:#0000ff;" x="269.505386" xlink:href="#m48a1778c8b" y="173.353908"/>
     <use style="fill:#0000ff;stroke:#0000ff;" x="118.870053" xlink:href="#m48a1778c8b" y="139.933287"/>
     <use style="fill:#0000ff;stroke:#0000ff;" x="122.623032" xlink:href="#m48a1778c8b" y="142.121804"/>
     <use style="fill:#0000ff;stroke:#0000ff;" x="83.981518" xlink:href="#m48a1778c8b" y="98.223018"/>
     <use style="fill:#0000ff;stroke:#0000ff;" x="167.1168" xlink:href="#m48a1778c8b" y="159.3216"/>
     <use style="fill:#0000ff;stroke:#0000ff;" x="93.513248" xlink:href="#m48a1778c8b" y="117.516615"/>
     <use style="fill:#0000ff;stroke:#0000ff;" x="167.1168" xlink:href="#m48a1778c8b" y="159.3216"/>
     <use style="fill:#0000ff;stroke:#0000ff;" x="81.61609" xlink:href="#m48a1778c8b" y="85.024467"/>
     <use style="fill:#0000ff;stroke:#0000ff;" x="81.408" xlink:href="#m48a1778c8b" y="79.488"/>
     <use style="fill:#0000ff;stroke:#0000ff;" x="81.408" xlink:href="#m48a1778c8b" y="79.488"/>
     <use style="fill:#0000ff;stroke:#0000ff;" x="167.1168" xlink:href="#m48a1778c8b" y="159.3216"/>
     <use style="fill:#0000ff;stroke:#0000ff;" x="92.031843" xlink:href="#m48a1778c8b" y="115.399825"/>
     <use style="fill:#0000ff;stroke:#0000ff;" x="141.666673" xlink:href="#m48a1778c8b" y="151.061055"/>
     <use style="fill:#0000ff;stroke:#0000ff;" x="375.789947" xlink:href="#m48a1778c8b" y="244.487675"/>
     <use style="fill:#0000ff;stroke:#0000ff;" x="83.987678" xlink:href="#m48a1778c8b" y="98.244195"/>
     <use style="fill:#0000ff;stroke:#0000ff;" x="119.816963" xlink:href="#m48a1778c8b" y="140.502263"/>
     <use style="fill:#0000ff;stroke:#0000ff;" x="363.975271" xlink:href="#m48a1778c8b" y="238.935102"/>
     <use style="fill:#0000ff;stroke:#0000ff;" x="127.049887" xlink:href="#m48a1778c8b" y="144.49362"/>
     <use style="fill:#0000ff;stroke:#0000ff;" x="361.060632" xlink:href="#m48a1778c8b" y="237.361406"/>
     <use style="fill:#0000ff;stroke:#0000ff;" x="130.754709" xlink:href="#m48a1778c8b" y="146.326556"/>
     <use style="fill:#0000ff;stroke:#0000ff;" x="82.597824" xlink:href="#m48a1778c8b" y="92.450462"/>
     <use style="fill:#0000ff;stroke:#0000ff;" x="82.498767" xlink:href="#m48a1778c8b" y="91.918498"/>
     <use style="fill:#0000ff;stroke:#0000ff;" x="384.70444" xlink:href="#m48a1778c8b" y="247.97808"/>
     <use style="fill:#0000ff;stroke:#0000ff;" x="157.641574" xlink:href="#m48a1778c8b" y="156.830814"/>
     <use style="fill:#0000ff;stroke:#0000ff;" x="81.561891" xlink:href="#m48a1778c8b" y="84.259177"/>
     <use style="fill:#0000ff;stroke:#0000ff;" x="81.570309" xlink:href="#m48a1778c8b" y="84.386226"/>
     <use style="fill:#0000ff;stroke:#0000ff;" x="81.408" xlink:href="#m48a1778c8b" y="79.488"/>
     <use style="fill:#0000ff;stroke:#0000ff;" x="81.59352" xlink:href="#m48a1778c8b" y="84.719982"/>
     <use style="fill:#0000ff;stroke:#0000ff;" x="131.090569" xlink:href="#m48a1778c8b" y="146.486476"/>
     <use style="fill:#0000ff;stroke:#0000ff;" x="129.699542" xlink:href="#m48a1778c8b" y="145.81757"/>
     <use style="fill:#0000ff;stroke:#0000ff;" x="154.078211" xlink:href="#m48a1778c8b" y="155.493966"/>
     <use style="fill:#0000ff;stroke:#0000ff;" x="378.60887" xlink:href="#m48a1778c8b" y="245.648134"/>
     <use style="fill:#0000ff;stroke:#0000ff;" x="87.68713" xlink:href="#m48a1778c8b" y="107.850563"/>
     <use style="fill:#0000ff;stroke:#0000ff;" x="395.689244" xlink:href="#m48a1778c8b" y="251.64548"/>
     <use style="fill:#0000ff;stroke:#0000ff;" x="81.417926" xlink:href="#m48a1778c8b" y="80.711346"/>
     <use style="fill:#0000ff;stroke:#0000ff;" x="112.575376" xlink:href="#m48a1778c8b" y="135.820311"/>
     <use style="fill:#0000ff;stroke:#0000ff;" x="321.148314" xlink:href="#m48a1778c8b" y="189.738616"/>
     <use style="fill:#0000ff;stroke:#0000ff;" x="83.362347" xlink:href="#m48a1778c8b" y="95.929528"/>
     <use style="fill:#0000ff;stroke:#0000ff;" x="81.656935" xlink:href="#m48a1778c8b" y="85.534988"/>
     <use style="fill:#0000ff;stroke:#0000ff;" x="82.24976" xlink:href="#m48a1778c8b" y="90.454334"/>
     <use style="fill:#0000ff;stroke:#0000ff;" x="81.550809" xlink:href="#m48a1778c8b" y="84.086342"/>
     <use style="fill:#0000ff;stroke:#0000ff;" x="137.936906" xlink:href="#m48a1778c8b" y="149.543194"/>
     <use style="fill:#0000ff;stroke:#0000ff;" x="81.805541" xlink:href="#m48a1778c8b" y="87.096526"/>
     <use style="fill:#0000ff;stroke:#0000ff;" x="81.408" xlink:href="#m48a1778c8b" y="79.488"/>
     <use style="fill:#0000ff;stroke:#0000ff;" x="82.277026" xlink:href="#m48a1778c8b" y="90.62504"/>
     <use style="fill:#0000ff;stroke:#0000ff;" x="81.408" xlink:href="#m48a1778c8b" y="79.488"/>
     <use style="fill:#0000ff;stroke:#0000ff;" x="90.080636" xlink:href="#m48a1778c8b" y="112.30454"/>
     <use style="fill:#0000ff;stroke:#0000ff;" x="81.408" xlink:href="#m48a1778c8b" y="79.488"/>
     <use style="fill:#0000ff;stroke:#0000ff;" x="81.508723" xlink:href="#m48a1778c8b" y="83.357464"/>
     <use style="fill:#0000ff;stroke:#0000ff;" x="102.355115" xlink:href="#m48a1778c8b" y="127.507605"/>
     <use style="fill:#0000ff;stroke:#0000ff;" x="92.748805" xlink:href="#m48a1778c8b" y="116.446379"/>
     <use style="fill:#0000ff;stroke:#0000ff;" x="146.14716" xlink:href="#m48a1778c8b" y="152.763907"/>
     <use style="fill:#0000ff;stroke:#0000ff;" x="150.406488" xlink:href="#m48a1778c8b" y="154.272312"/>
    </g>
   </g>
   <g id="matplotlib.axis_1">
    <g id="xtick_1">
     <g id="line2d_1">
      <defs>
       <path d="M 0 0 
L 0 3.5 
" id="m8d12615652" style="stroke:#000000;stroke-width:0.8;"/>
      </defs>
      <g>
       <use style="stroke:#000000;stroke-width:0.8;" x="81.408" xlink:href="#m8d12615652" y="307.584"/>
      </g>
     </g>
     <g id="text_1">
      <!-- 0 -->
      <defs>
       <path d="M 31.78125 66.40625 
Q 24.171875 66.40625 20.328125 58.90625 
Q 16.5 51.421875 16.5 36.375 
Q 16.5 21.390625 20.328125 13.890625 
Q 24.171875 6.390625 31.78125 6.390625 
Q 39.453125 6.390625 43.28125 13.890625 
Q 47.125 21.390625 47.125 36.375 
Q 47.125 51.421875 43.28125 58.90625 
Q 39.453125 66.40625 31.78125 66.40625 
z
M 31.78125 74.21875 
Q 44.046875 74.21875 50.515625 64.515625 
Q 56.984375 54.828125 56.984375 36.375 
Q 56.984375 17.96875 50.515625 8.265625 
Q 44.046875 -1.421875 31.78125 -1.421875 
Q 19.53125 -1.421875 13.0625 8.265625 
Q 6.59375 17.96875 6.59375 36.375 
Q 6.59375 54.828125 13.0625 64.515625 
Q 19.53125 74.21875 31.78125 74.21875 
z
" id="DejaVuSans-30"/>
      </defs>
      <g transform="translate(78.22675 322.182437)scale(0.1 -0.1)">
       <use xlink:href="#DejaVuSans-30"/>
      </g>
     </g>
    </g>
    <g id="xtick_2">
     <g id="line2d_2">
      <g>
       <use style="stroke:#000000;stroke-width:0.8;" x="129.024" xlink:href="#m8d12615652" y="307.584"/>
      </g>
     </g>
     <g id="text_2">
      <!-- 20 -->
      <defs>
       <path d="M 19.1875 8.296875 
L 53.609375 8.296875 
L 53.609375 0 
L 7.328125 0 
L 7.328125 8.296875 
Q 12.9375 14.109375 22.625 23.890625 
Q 32.328125 33.6875 34.8125 36.53125 
Q 39.546875 41.84375 41.421875 45.53125 
Q 43.3125 49.21875 43.3125 52.78125 
Q 43.3125 58.59375 39.234375 62.25 
Q 35.15625 65.921875 28.609375 65.921875 
Q 23.96875 65.921875 18.8125 64.3125 
Q 13.671875 62.703125 7.8125 59.421875 
L 7.8125 69.390625 
Q 13.765625 71.78125 18.9375 73 
Q 24.125 74.21875 28.421875 74.21875 
Q 39.75 74.21875 46.484375 68.546875 
Q 53.21875 62.890625 53.21875 53.421875 
Q 53.21875 48.921875 51.53125 44.890625 
Q 49.859375 40.875 45.40625 35.40625 
Q 44.1875 33.984375 37.640625 27.21875 
Q 31.109375 20.453125 19.1875 8.296875 
z
" id="DejaVuSans-32"/>
      </defs>
      <g transform="translate(122.6615 322.182437)scale(0.1 -0.1)">
       <use xlink:href="#DejaVuSans-32"/>
       <use x="63.623047" xlink:href="#DejaVuSans-30"/>
      </g>
     </g>
    </g>
    <g id="xtick_3">
     <g id="line2d_3">
      <g>
       <use style="stroke:#000000;stroke-width:0.8;" x="176.64" xlink:href="#m8d12615652" y="307.584"/>
      </g>
     </g>
     <g id="text_3">
      <!-- 40 -->
      <defs>
       <path d="M 37.796875 64.3125 
L 12.890625 25.390625 
L 37.796875 25.390625 
z
M 35.203125 72.90625 
L 47.609375 72.90625 
L 47.609375 25.390625 
L 58.015625 25.390625 
L 58.015625 17.1875 
L 47.609375 17.1875 
L 47.609375 0 
L 37.796875 0 
L 37.796875 17.1875 
L 4.890625 17.1875 
L 4.890625 26.703125 
z
" id="DejaVuSans-34"/>
      </defs>
      <g transform="translate(170.2775 322.182437)scale(0.1 -0.1)">
       <use xlink:href="#DejaVuSans-34"/>
       <use x="63.623047" xlink:href="#DejaVuSans-30"/>
      </g>
     </g>
    </g>
    <g id="xtick_4">
     <g id="line2d_4">
      <g>
       <use style="stroke:#000000;stroke-width:0.8;" x="224.256" xlink:href="#m8d12615652" y="307.584"/>
      </g>
     </g>
     <g id="text_4">
      <!-- 60 -->
      <defs>
       <path d="M 33.015625 40.375 
Q 26.375 40.375 22.484375 35.828125 
Q 18.609375 31.296875 18.609375 23.390625 
Q 18.609375 15.53125 22.484375 10.953125 
Q 26.375 6.390625 33.015625 6.390625 
Q 39.65625 6.390625 43.53125 10.953125 
Q 47.40625 15.53125 47.40625 23.390625 
Q 47.40625 31.296875 43.53125 35.828125 
Q 39.65625 40.375 33.015625 40.375 
z
M 52.59375 71.296875 
L 52.59375 62.3125 
Q 48.875 64.0625 45.09375 64.984375 
Q 41.3125 65.921875 37.59375 65.921875 
Q 27.828125 65.921875 22.671875 59.328125 
Q 17.53125 52.734375 16.796875 39.40625 
Q 19.671875 43.65625 24.015625 45.921875 
Q 28.375 48.1875 33.59375 48.1875 
Q 44.578125 48.1875 50.953125 41.515625 
Q 57.328125 34.859375 57.328125 23.390625 
Q 57.328125 12.15625 50.6875 5.359375 
Q 44.046875 -1.421875 33.015625 -1.421875 
Q 20.359375 -1.421875 13.671875 8.265625 
Q 6.984375 17.96875 6.984375 36.375 
Q 6.984375 53.65625 15.1875 63.9375 
Q 23.390625 74.21875 37.203125 74.21875 
Q 40.921875 74.21875 44.703125 73.484375 
Q 48.484375 72.75 52.59375 71.296875 
z
" id="DejaVuSans-36"/>
      </defs>
      <g transform="translate(217.8935 322.182437)scale(0.1 -0.1)">
       <use xlink:href="#DejaVuSans-36"/>
       <use x="63.623047" xlink:href="#DejaVuSans-30"/>
      </g>
     </g>
    </g>
    <g id="xtick_5">
     <g id="line2d_5">
      <g>
       <use style="stroke:#000000;stroke-width:0.8;" x="271.872" xlink:href="#m8d12615652" y="307.584"/>
      </g>
     </g>
     <g id="text_5">
      <!-- 80 -->
      <defs>
       <path d="M 31.78125 34.625 
Q 24.75 34.625 20.71875 30.859375 
Q 16.703125 27.09375 16.703125 20.515625 
Q 16.703125 13.921875 20.71875 10.15625 
Q 24.75 6.390625 31.78125 6.390625 
Q 38.8125 6.390625 42.859375 10.171875 
Q 46.921875 13.96875 46.921875 20.515625 
Q 46.921875 27.09375 42.890625 30.859375 
Q 38.875 34.625 31.78125 34.625 
z
M 21.921875 38.8125 
Q 15.578125 40.375 12.03125 44.71875 
Q 8.5 49.078125 8.5 55.328125 
Q 8.5 64.0625 14.71875 69.140625 
Q 20.953125 74.21875 31.78125 74.21875 
Q 42.671875 74.21875 48.875 69.140625 
Q 55.078125 64.0625 55.078125 55.328125 
Q 55.078125 49.078125 51.53125 44.71875 
Q 48 40.375 41.703125 38.8125 
Q 48.828125 37.15625 52.796875 32.3125 
Q 56.78125 27.484375 56.78125 20.515625 
Q 56.78125 9.90625 50.3125 4.234375 
Q 43.84375 -1.421875 31.78125 -1.421875 
Q 19.734375 -1.421875 13.25 4.234375 
Q 6.78125 9.90625 6.78125 20.515625 
Q 6.78125 27.484375 10.78125 32.3125 
Q 14.796875 37.15625 21.921875 38.8125 
z
M 18.3125 54.390625 
Q 18.3125 48.734375 21.84375 45.5625 
Q 25.390625 42.390625 31.78125 42.390625 
Q 38.140625 42.390625 41.71875 45.5625 
Q 45.3125 48.734375 45.3125 54.390625 
Q 45.3125 60.0625 41.71875 63.234375 
Q 38.140625 66.40625 31.78125 66.40625 
Q 25.390625 66.40625 21.84375 63.234375 
Q 18.3125 60.0625 18.3125 54.390625 
z
" id="DejaVuSans-38"/>
      </defs>
      <g transform="translate(265.5095 322.182437)scale(0.1 -0.1)">
       <use xlink:href="#DejaVuSans-38"/>
       <use x="63.623047" xlink:href="#DejaVuSans-30"/>
      </g>
     </g>
    </g>
    <g id="xtick_6">
     <g id="line2d_6">
      <g>
       <use style="stroke:#000000;stroke-width:0.8;" x="319.488" xlink:href="#m8d12615652" y="307.584"/>
      </g>
     </g>
     <g id="text_6">
      <!-- 100 -->
      <defs>
       <path d="M 12.40625 8.296875 
L 28.515625 8.296875 
L 28.515625 63.921875 
L 10.984375 60.40625 
L 10.984375 69.390625 
L 28.421875 72.90625 
L 38.28125 72.90625 
L 38.28125 8.296875 
L 54.390625 8.296875 
L 54.390625 0 
L 12.40625 0 
z
" id="DejaVuSans-31"/>
      </defs>
      <g transform="translate(309.94425 322.182437)scale(0.1 -0.1)">
       <use xlink:href="#DejaVuSans-31"/>
       <use x="63.623047" xlink:href="#DejaVuSans-30"/>
       <use x="127.246094" xlink:href="#DejaVuSans-30"/>
      </g>
     </g>
    </g>
    <g id="xtick_7">
     <g id="line2d_7">
      <g>
       <use style="stroke:#000000;stroke-width:0.8;" x="367.104" xlink:href="#m8d12615652" y="307.584"/>
      </g>
     </g>
     <g id="text_7">
      <!-- 120 -->
      <g transform="translate(357.56025 322.182437)scale(0.1 -0.1)">
       <use xlink:href="#DejaVuSans-31"/>
       <use x="63.623047" xlink:href="#DejaVuSans-32"/>
       <use x="127.246094" xlink:href="#DejaVuSans-30"/>
      </g>
     </g>
    </g>
    <g id="xtick_8">
     <g id="line2d_8">
      <g>
       <use style="stroke:#000000;stroke-width:0.8;" x="414.72" xlink:href="#m8d12615652" y="307.584"/>
      </g>
     </g>
     <g id="text_8">
      <!-- 140 -->
      <g transform="translate(405.17625 322.182437)scale(0.1 -0.1)">
       <use xlink:href="#DejaVuSans-31"/>
       <use x="63.623047" xlink:href="#DejaVuSans-34"/>
       <use x="127.246094" xlink:href="#DejaVuSans-30"/>
      </g>
     </g>
    </g>
   </g>
   <g id="matplotlib.axis_2">
    <g id="ytick_1">
     <g id="line2d_9">
      <defs>
       <path d="M 0 0 
L -3.5 0 
" id="m7804e39fc2" style="stroke:#000000;stroke-width:0.8;"/>
      </defs>
      <g>
       <use style="stroke:#000000;stroke-width:0.8;" x="57.6" xlink:href="#m7804e39fc2" y="307.584"/>
      </g>
     </g>
     <g id="text_9">
      <!-- −10 -->
      <defs>
       <path d="M 10.59375 35.5 
L 73.1875 35.5 
L 73.1875 27.203125 
L 10.59375 27.203125 
z
" id="DejaVuSans-2212"/>
      </defs>
      <g transform="translate(29.495313 311.383219)scale(0.1 -0.1)">
       <use xlink:href="#DejaVuSans-2212"/>
       <use x="83.789062" xlink:href="#DejaVuSans-31"/>
       <use x="147.412109" xlink:href="#DejaVuSans-30"/>
      </g>
     </g>
    </g>
    <g id="ytick_2">
     <g id="line2d_10">
      <g>
       <use style="stroke:#000000;stroke-width:0.8;" x="57.6" xlink:href="#m7804e39fc2" y="269.568"/>
      </g>
     </g>
     <g id="text_10">
      <!-- 0 -->
      <g transform="translate(44.2375 273.367219)scale(0.1 -0.1)">
       <use xlink:href="#DejaVuSans-30"/>
      </g>
     </g>
    </g>
    <g id="ytick_3">
     <g id="line2d_11">
      <g>
       <use style="stroke:#000000;stroke-width:0.8;" x="57.6" xlink:href="#m7804e39fc2" y="231.552"/>
      </g>
     </g>
     <g id="text_11">
      <!-- 10 -->
      <g transform="translate(37.875 235.351219)scale(0.1 -0.1)">
       <use xlink:href="#DejaVuSans-31"/>
       <use x="63.623047" xlink:href="#DejaVuSans-30"/>
      </g>
     </g>
    </g>
    <g id="ytick_4">
     <g id="line2d_12">
      <g>
       <use style="stroke:#000000;stroke-width:0.8;" x="57.6" xlink:href="#m7804e39fc2" y="193.536"/>
      </g>
     </g>
     <g id="text_12">
      <!-- 20 -->
      <g transform="translate(37.875 197.335219)scale(0.1 -0.1)">
       <use xlink:href="#DejaVuSans-32"/>
       <use x="63.623047" xlink:href="#DejaVuSans-30"/>
      </g>
     </g>
    </g>
    <g id="ytick_5">
     <g id="line2d_13">
      <g>
       <use style="stroke:#000000;stroke-width:0.8;" x="57.6" xlink:href="#m7804e39fc2" y="155.52"/>
      </g>
     </g>
     <g id="text_13">
      <!-- 30 -->
      <defs>
       <path d="M 40.578125 39.3125 
Q 47.65625 37.796875 51.625 33 
Q 55.609375 28.21875 55.609375 21.1875 
Q 55.609375 10.40625 48.1875 4.484375 
Q 40.765625 -1.421875 27.09375 -1.421875 
Q 22.515625 -1.421875 17.65625 -0.515625 
Q 12.796875 0.390625 7.625 2.203125 
L 7.625 11.71875 
Q 11.71875 9.328125 16.59375 8.109375 
Q 21.484375 6.890625 26.8125 6.890625 
Q 36.078125 6.890625 40.9375 10.546875 
Q 45.796875 14.203125 45.796875 21.1875 
Q 45.796875 27.640625 41.28125 31.265625 
Q 36.765625 34.90625 28.71875 34.90625 
L 20.21875 34.90625 
L 20.21875 43.015625 
L 29.109375 43.015625 
Q 36.375 43.015625 40.234375 45.921875 
Q 44.09375 48.828125 44.09375 54.296875 
Q 44.09375 59.90625 40.109375 62.90625 
Q 36.140625 65.921875 28.71875 65.921875 
Q 24.65625 65.921875 20.015625 65.03125 
Q 15.375 64.15625 9.8125 62.3125 
L 9.8125 71.09375 
Q 15.4375 72.65625 20.34375 73.4375 
Q 25.25 74.21875 29.59375 74.21875 
Q 40.828125 74.21875 47.359375 69.109375 
Q 53.90625 64.015625 53.90625 55.328125 
Q 53.90625 49.265625 50.4375 45.09375 
Q 46.96875 40.921875 40.578125 39.3125 
z
" id="DejaVuSans-33"/>
      </defs>
      <g transform="translate(37.875 159.319219)scale(0.1 -0.1)">
       <use xlink:href="#DejaVuSans-33"/>
       <use x="63.623047" xlink:href="#DejaVuSans-30"/>
      </g>
     </g>
    </g>
    <g id="ytick_6">
     <g id="line2d_14">
      <g>
       <use style="stroke:#000000;stroke-width:0.8;" x="57.6" xlink:href="#m7804e39fc2" y="117.504"/>
      </g>
     </g>
     <g id="text_14">
      <!-- 40 -->
      <g transform="translate(37.875 121.303219)scale(0.1 -0.1)">
       <use xlink:href="#DejaVuSans-34"/>
       <use x="63.623047" xlink:href="#DejaVuSans-30"/>
      </g>
     </g>
    </g>
    <g id="ytick_7">
     <g id="line2d_15">
      <g>
       <use style="stroke:#000000;stroke-width:0.8;" x="57.6" xlink:href="#m7804e39fc2" y="79.488"/>
      </g>
     </g>
     <g id="text_15">
      <!-- 50 -->
      <defs>
       <path d="M 10.796875 72.90625 
L 49.515625 72.90625 
L 49.515625 64.59375 
L 19.828125 64.59375 
L 19.828125 46.734375 
Q 21.96875 47.46875 24.109375 47.828125 
Q 26.265625 48.1875 28.421875 48.1875 
Q 40.625 48.1875 47.75 41.5 
Q 54.890625 34.8125 54.890625 23.390625 
Q 54.890625 11.625 47.5625 5.09375 
Q 40.234375 -1.421875 26.90625 -1.421875 
Q 22.3125 -1.421875 17.546875 -0.640625 
Q 12.796875 0.140625 7.71875 1.703125 
L 7.71875 11.625 
Q 12.109375 9.234375 16.796875 8.0625 
Q 21.484375 6.890625 26.703125 6.890625 
Q 35.15625 6.890625 40.078125 11.328125 
Q 45.015625 15.765625 45.015625 23.390625 
Q 45.015625 31 40.078125 35.4375 
Q 35.15625 39.890625 26.703125 39.890625 
Q 22.75 39.890625 18.8125 39.015625 
Q 14.890625 38.140625 10.796875 36.28125 
z
" id="DejaVuSans-35"/>
      </defs>
      <g transform="translate(37.875 83.287219)scale(0.1 -0.1)">
       <use xlink:href="#DejaVuSans-35"/>
       <use x="63.623047" xlink:href="#DejaVuSans-30"/>
      </g>
     </g>
    </g>
    <g id="ytick_8">
     <g id="line2d_16">
      <g>
       <use style="stroke:#000000;stroke-width:0.8;" x="57.6" xlink:href="#m7804e39fc2" y="41.472"/>
      </g>
     </g>
     <g id="text_16">
      <!-- 60 -->
      <g transform="translate(37.875 45.271219)scale(0.1 -0.1)">
       <use xlink:href="#DejaVuSans-36"/>
       <use x="63.623047" xlink:href="#DejaVuSans-30"/>
      </g>
     </g>
    </g>
   </g>
   <g id="patch_3">
    <path d="M 57.6 307.584 
L 57.6 41.472 
" style="fill:none;stroke:#000000;stroke-linecap:square;stroke-linejoin:miter;stroke-width:0.8;"/>
   </g>
   <g id="patch_4">
    <path d="M 414.72 307.584 
L 414.72 41.472 
" style="fill:none;stroke:#000000;stroke-linecap:square;stroke-linejoin:miter;stroke-width:0.8;"/>
   </g>
   <g id="patch_5">
    <path d="M 57.6 307.584 
L 414.72 307.584 
" style="fill:none;stroke:#000000;stroke-linecap:square;stroke-linejoin:miter;stroke-width:0.8;"/>
   </g>
   <g id="patch_6">
    <path d="M 57.6 41.472 
L 414.72 41.472 
" style="fill:none;stroke:#000000;stroke-linecap:square;stroke-linejoin:miter;stroke-width:0.8;"/>
   </g>
  </g>
 </g>
 <defs>
  <clipPath id="pba187ec201">
   <rect height="266.112" width="357.12" x="57.6" y="41.472"/>
  </clipPath>
 </defs>
</svg>
