<?xml version="1.0" encoding="utf-8" standalone="no"?>
<!DOCTYPE svg PUBLIC "-//W3C//DTD SVG 1.1//EN"
  "http://www.w3.org/Graphics/SVG/1.1/DTD/svg11.dtd">
<!-- Created with matplotlib (http://matplotlib.org/) -->
<svg height="345.6pt" version="1.1" viewBox="0 0 460.8 345.6" width="460.8pt" xmlns="http://www.w3.org/2000/svg" xmlns:xlink="http://www.w3.org/1999/xlink">
 <defs>
  <style type="text/css">
*{stroke-linecap:butt;stroke-linejoin:round;}
  </style>
 </defs>
 <g id="figure_1">
  <g id="patch_1">
   <path d="M 0 345.6 
L 460.8 345.6 
L 460.8 0 
L 0 0 
z
" style="fill:#ffffff;"/>
  </g>
  <g id="axes_1">
   <g id="patch_2">
    <path d="M 57.6 307.584 
L 414.72 307.584 
L 414.72 41.472 
L 57.6 41.472 
z
" style="fill:#ffffff;"/>
   </g>
   <g id="PathCollection_1">
    <defs>
     <path d="M 0 0.612372 
C 0.162403 0.612372 0.318176 0.547849 0.433013 0.433013 
C 0.547849 0.318176 0.612372 0.162403 0.612372 0 
C 0.612372 -0.162403 0.547849 -0.318176 0.433013 -0.433013 
C 0.318176 -0.547849 0.162403 -0.612372 0 -0.612372 
C -0.162403 -0.612372 -0.318176 -0.547849 -0.433013 -0.433013 
C -0.547849 -0.318176 -0.612372 -0.162403 -0.612372 0 
C -0.612372 0.162403 -0.547849 0.318176 -0.433013 0.433013 
C -0.318176 0.547849 -0.162403 0.612372 0 0.612372 
z
" id="me7dc8b6f37" style="stroke:#000000;"/>
    </defs>
    <g clip-path="url(#p11caba6578)">
     <use style="stroke:#000000;" x="119.390893" xlink:href="#me7dc8b6f37" y="140.247709"/>
     <use style="stroke:#000000;" x="112.948497" xlink:href="#me7dc8b6f37" y="136.081805"/>
     <use style="stroke:#000000;" x="380.909729" xlink:href="#me7dc8b6f37" y="246.55522"/>
     <use style="stroke:#000000;" x="82.475666" xlink:href="#me7dc8b6f37" y="91.790747"/>
     <use style="stroke:#000000;" x="128.200653" xlink:href="#me7dc8b6f37" y="145.076891"/>
     <use style="stroke:#000000;" x="111.349651" xlink:href="#me7dc8b6f37" y="134.943703"/>
     <use style="stroke:#000000;" x="131.618463" xlink:href="#me7dc8b6f37" y="146.735832"/>
     <use style="stroke:#000000;" x="136.808183" xlink:href="#me7dc8b6f37" y="149.064419"/>
     <use style="stroke:#000000;" x="300.906946" xlink:href="#me7dc8b6f37" y="174.377337"/>
     <use style="stroke:#000000;" x="369.623292" xlink:href="#me7dc8b6f37" y="241.740472"/>
     <use style="stroke:#000000;" x="148.18222" xlink:href="#me7dc8b6f37" y="153.497366"/>
     <use style="stroke:#000000;" x="107.773186" xlink:href="#me7dc8b6f37" y="132.217536"/>
     <use style="stroke:#000000;" x="167.1168" xlink:href="#me7dc8b6f37" y="159.3216"/>
     <use style="stroke:#000000;" x="222.030701" xlink:href="#me7dc8b6f37" y="169.436336"/>
     <use style="stroke:#000000;" x="320.042195" xlink:href="#me7dc8b6f37" y="183.477548"/>
     <use style="stroke:#000000;" x="167.1168" xlink:href="#me7dc8b6f37" y="159.3216"/>
     <use style="stroke:#000000;" x="86.064523" xlink:href="#me7dc8b6f37" y="104.212259"/>
     <use style="stroke:#000000;" x="100.118084" xlink:href="#me7dc8b6f37" y="125.30502"/>
     <use style="stroke:#000000;" x="112.482251" xlink:href="#me7dc8b6f37" y="135.754664"/>
     <use style="stroke:#000000;" x="362.315878" xlink:href="#me7dc8b6f37" y="238.050543"/>
     <use style="stroke:#000000;" x="333.805378" xlink:href="#me7dc8b6f37" y="215.425558"/>
     <use style="stroke:#000000;" x="343.726598" xlink:href="#me7dc8b6f37" y="225.501816"/>
     <use style="stroke:#000000;" x="374.650403" xlink:href="#me7dc8b6f37" y="244.002355"/>
     <use style="stroke:#000000;" x="81.540926" xlink:href="#me7dc8b6f37" y="83.926325"/>
     <use style="stroke:#000000;" x="397.359549" xlink:href="#me7dc8b6f37" y="252.150898"/>
     <use style="stroke:#000000;" x="253.311631" xlink:href="#me7dc8b6f37" y="172.381901"/>
     <use style="stroke:#000000;" x="322.697295" xlink:href="#me7dc8b6f37" y="195.315723"/>
     <use style="stroke:#000000;" x="90.929534" xlink:href="#me7dc8b6f37" y="113.699739"/>
     <use style="stroke:#000000;" x="98.624468" xlink:href="#me7dc8b6f37" y="123.730136"/>
     <use style="stroke:#000000;" x="101.654617" xlink:href="#me7dc8b6f37" y="126.836488"/>
     <use style="stroke:#000000;" x="100.144884" xlink:href="#me7dc8b6f37" y="126.013092"/>
     <use style="stroke:#000000;" x="81.408" xlink:href="#me7dc8b6f37" y="79.488"/>
     <use style="stroke:#000000;" x="135.064041" xlink:href="#me7dc8b6f37" y="148.305778"/>
     <use style="stroke:#000000;" x="116.207823" xlink:href="#me7dc8b6f37" y="138.267528"/>
     <use style="stroke:#000000;" x="98.399104" xlink:href="#me7dc8b6f37" y="123.484451"/>
     <use style="stroke:#000000;" x="106.425127" xlink:href="#me7dc8b6f37" y="131.11735"/>
     <use style="stroke:#000000;" x="109.879658" xlink:href="#me7dc8b6f37" y="133.854978"/>
     <use style="stroke:#000000;" x="147.182988" xlink:href="#me7dc8b6f37" y="153.14022"/>
     <use style="stroke:#000000;" x="102.986673" xlink:href="#me7dc8b6f37" y="128.099135"/>
     <use style="stroke:#000000;" x="366.159823" xlink:href="#me7dc8b6f37" y="240.056255"/>
     <use style="stroke:#000000;" x="142.800741" xlink:href="#me7dc8b6f37" y="151.504007"/>
     <use style="stroke:#000000;" x="141.740123" xlink:href="#me7dc8b6f37" y="151.089997"/>
     <use style="stroke:#000000;" x="113.016364" xlink:href="#me7dc8b6f37" y="136.129106"/>
     <use style="stroke:#000000;" x="143.512" xlink:href="#me7dc8b6f37" y="151.777598"/>
     <use style="stroke:#000000;" x="156.804892" xlink:href="#me7dc8b6f37" y="156.357509"/>
     <use style="stroke:#000000;" x="120.381639" xlink:href="#me7dc8b6f37" y="140.836014"/>
     <use style="stroke:#000000;" x="167.1168" xlink:href="#me7dc8b6f37" y="159.3216"/>
     <use style="stroke:#000000;" x="93.225627" xlink:href="#me7dc8b6f37" y="117.119181"/>
     <use style="stroke:#000000;" x="377.299163" xlink:href="#me7dc8b6f37" y="245.115908"/>
     <use style="stroke:#000000;" x="102.720358" xlink:href="#me7dc8b6f37" y="127.851225"/>
     <use style="stroke:#000000;" x="153.96282" xlink:href="#me7dc8b6f37" y="155.45662"/>
     <use style="stroke:#000000;" x="131.504402" xlink:href="#me7dc8b6f37" y="146.68216"/>
     <use style="stroke:#000000;" x="89.100906" xlink:href="#me7dc8b6f37" y="110.585091"/>
     <use style="stroke:#000000;" x="138.36706" xlink:href="#me7dc8b6f37" y="149.72321"/>
     <use style="stroke:#000000;" x="81.444224" xlink:href="#me7dc8b6f37" y="81.818148"/>
     <use style="stroke:#000000;" x="159.745034" xlink:href="#me7dc8b6f37" y="157.249504"/>
     <use style="stroke:#000000;" x="87.033867" xlink:href="#me7dc8b6f37" y="106.461482"/>
     <use style="stroke:#000000;" x="254.801039" xlink:href="#me7dc8b6f37" y="172.485537"/>
     <use style="stroke:#000000;" x="81.408" xlink:href="#me7dc8b6f37" y="79.488"/>
     <use style="stroke:#000000;" x="88.170234" xlink:href="#me7dc8b6f37" y="108.823216"/>
     <use style="stroke:#000000;" x="367.676222" xlink:href="#me7dc8b6f37" y="240.807187"/>
     <use style="stroke:#000000;" x="84.616231" xlink:href="#me7dc8b6f37" y="100.272492"/>
     <use style="stroke:#000000;" x="106.739379" xlink:href="#me7dc8b6f37" y="131.377689"/>
     <use style="stroke:#000000;" x="167.1168" xlink:href="#me7dc8b6f37" y="159.3216"/>
     <use style="stroke:#000000;" x="92.558781" xlink:href="#me7dc8b6f37" y="116.173206"/>
     <use style="stroke:#000000;" x="113.75487" xlink:href="#me7dc8b6f37" y="136.63872"/>
     <use style="stroke:#000000;" x="81.408" xlink:href="#me7dc8b6f37" y="79.488"/>
     <use style="stroke:#000000;" x="342.1971" xlink:href="#me7dc8b6f37" y="224.167652"/>
     <use style="stroke:#000000;" x="81.734188" xlink:href="#me7dc8b6f37" y="86.393516"/>
     <use style="stroke:#000000;" x="114.86966" xlink:href="#me7dc8b6f37" y="137.390795"/>
     <use style="stroke:#000000;" x="167.1168" xlink:href="#me7dc8b6f37" y="159.3216"/>
     <use style="stroke:#000000;" x="115.716531" xlink:href="#me7dc8b6f37" y="137.94885"/>
     <use style="stroke:#000000;" x="390.124412" xlink:href="#me7dc8b6f37" y="249.865899"/>
     <use style="stroke:#000000;" x="82.571984" xlink:href="#me7dc8b6f37" y="94.231462"/>
     <use style="stroke:#000000;" x="98.226904" xlink:href="#me7dc8b6f37" y="123.29522"/>
     <use style="stroke:#000000;" x="84.435365" xlink:href="#me7dc8b6f37" y="99.713699"/>
     <use style="stroke:#000000;" x="101.207012" xlink:href="#me7dc8b6f37" y="126.399022"/>
     <use style="stroke:#000000;" x="374.678576" xlink:href="#me7dc8b6f37" y="244.01447"/>
     <use style="stroke:#000000;" x="84.388252" xlink:href="#me7dc8b6f37" y="99.56507"/>
     <use style="stroke:#000000;" x="98.902741" xlink:href="#me7dc8b6f37" y="124.030484"/>
     <use style="stroke:#000000;" x="107.214422" xlink:href="#me7dc8b6f37" y="131.766719"/>
     <use style="stroke:#000000;" x="117.046619" xlink:href="#me7dc8b6f37" y="154.317041"/>
     <use style="stroke:#000000;" x="131.063708" xlink:href="#me7dc8b6f37" y="146.473723"/>
     <use style="stroke:#000000;" x="102.957995" xlink:href="#me7dc8b6f37" y="128.072544"/>
     <use style="stroke:#000000;" x="122.205558" xlink:href="#me7dc8b6f37" y="143.449584"/>
     <use style="stroke:#000000;" x="337.693609" xlink:href="#me7dc8b6f37" y="252.120627"/>
     <use style="stroke:#000000;" x="369.729789" xlink:href="#me7dc8b6f37" y="252.12366"/>
     <use style="stroke:#000000;" x="267.516105" xlink:href="#me7dc8b6f37" y="229.091934"/>
     <use style="stroke:#000000;" x="84.885989" xlink:href="#me7dc8b6f37" y="107.971009"/>
     <use style="stroke:#000000;" x="82.973999" xlink:href="#me7dc8b6f37" y="94.278826"/>
     <use style="stroke:#000000;" x="96.407187" xlink:href="#me7dc8b6f37" y="140.326065"/>
     <use style="stroke:#000000;" x="126.46568" xlink:href="#me7dc8b6f37" y="152.157167"/>
     <use style="stroke:#000000;" x="148.265981" xlink:href="#me7dc8b6f37" y="153.527047"/>
     <use style="stroke:#000000;" x="124.648993" xlink:href="#me7dc8b6f37" y="143.233521"/>
     <use style="stroke:#000000;" x="103.249669" xlink:href="#me7dc8b6f37" y="142.081101"/>
     <use style="stroke:#000000;" x="111.905746" xlink:href="#me7dc8b6f37" y="135.344807"/>
     <use style="stroke:#000000;" x="101.408291" xlink:href="#me7dc8b6f37" y="126.596595"/>
     <use style="stroke:#000000;" x="150.780493" xlink:href="#me7dc8b6f37" y="160.552945"/>
     <use style="stroke:#000000;" x="111.884013" xlink:href="#me7dc8b6f37" y="135.329238"/>
     <use style="stroke:#000000;" x="155.067321" xlink:href="#me7dc8b6f37" y="155.811383"/>
     <use style="stroke:#000000;" x="167.441494" xlink:href="#me7dc8b6f37" y="166.211584"/>
     <use style="stroke:#000000;" x="152.231741" xlink:href="#me7dc8b6f37" y="156.319482"/>
     <use style="stroke:#000000;" x="174.199947" xlink:href="#me7dc8b6f37" y="193.253088"/>
     <use style="stroke:#000000;" x="319.488" xlink:href="#me7dc8b6f37" y="174.528"/>
     <use style="stroke:#000000;" x="323.144198" xlink:href="#me7dc8b6f37" y="196.623833"/>
     <use style="stroke:#000000;" x="309.603122" xlink:href="#me7dc8b6f37" y="174.486169"/>
     <use style="stroke:#000000;" x="313.108656" xlink:href="#me7dc8b6f37" y="237.001158"/>
     <use style="stroke:#000000;" x="405.1968" xlink:href="#me7dc8b6f37" y="254.3616"/>
     <use style="stroke:#000000;" x="342.551699" xlink:href="#me7dc8b6f37" y="242.031961"/>
     <use style="stroke:#000000;" x="163.56156" xlink:href="#me7dc8b6f37" y="176.771831"/>
     <use style="stroke:#000000;" x="167.1168" xlink:href="#me7dc8b6f37" y="159.3216"/>
     <use style="stroke:#000000;" x="124.536096" xlink:href="#me7dc8b6f37" y="160.930804"/>
     <use style="stroke:#000000;" x="112.318778" xlink:href="#me7dc8b6f37" y="135.639053"/>
     <use style="stroke:#000000;" x="86.401561" xlink:href="#me7dc8b6f37" y="116.036423"/>
     <use style="stroke:#000000;" x="125.762956" xlink:href="#me7dc8b6f37" y="153.987927"/>
     <use style="stroke:#000000;" x="167.1168" xlink:href="#me7dc8b6f37" y="159.3216"/>
     <use style="stroke:#000000;" x="154.552628" xlink:href="#me7dc8b6f37" y="170.831746"/>
     <use style="stroke:#000000;" x="154.30275" xlink:href="#me7dc8b6f37" y="171.595723"/>
     <use style="stroke:#000000;" x="196.859036" xlink:href="#me7dc8b6f37" y="170.933908"/>
     <use style="stroke:#000000;" x="157.734304" xlink:href="#me7dc8b6f37" y="156.643764"/>
     <use style="stroke:#000000;" x="254.151623" xlink:href="#me7dc8b6f37" y="184.525174"/>
     <use style="stroke:#000000;" x="299.893728" xlink:href="#me7dc8b6f37" y="183.604884"/>
     <use style="stroke:#000000;" x="319.525963" xlink:href="#me7dc8b6f37" y="176.913075"/>
     <use style="stroke:#000000;" x="257.599537" xlink:href="#me7dc8b6f37" y="172.672199"/>
     <use style="stroke:#000000;" x="147.202469" xlink:href="#me7dc8b6f37" y="180.488492"/>
     <use style="stroke:#000000;" x="167.128009" xlink:href="#me7dc8b6f37" y="160.621373"/>
     <use style="stroke:#000000;" x="167.1168" xlink:href="#me7dc8b6f37" y="159.3216"/>
     <use style="stroke:#000000;" x="89.865411" xlink:href="#me7dc8b6f37" y="125.504576"/>
     <use style="stroke:#000000;" x="89.614322" xlink:href="#me7dc8b6f37" y="121.380731"/>
     <use style="stroke:#000000;" x="90.339435" xlink:href="#me7dc8b6f37" y="127.745298"/>
     <use style="stroke:#000000;" x="98.25832" xlink:href="#me7dc8b6f37" y="123.329841"/>
     <use style="stroke:#000000;" x="105.460646" xlink:href="#me7dc8b6f37" y="130.302955"/>
     <use style="stroke:#000000;" x="95.454915" xlink:href="#me7dc8b6f37" y="120.051154"/>
     <use style="stroke:#000000;" x="119.518272" xlink:href="#me7dc8b6f37" y="161.445606"/>
     <use style="stroke:#000000;" x="123.715587" xlink:href="#me7dc8b6f37" y="160.859536"/>
     <use style="stroke:#000000;" x="108.897162" xlink:href="#me7dc8b6f37" y="133.103081"/>
     <use style="stroke:#000000;" x="295.80676" xlink:href="#me7dc8b6f37" y="218.614582"/>
     <use style="stroke:#000000;" x="342.841875" xlink:href="#me7dc8b6f37" y="237.305113"/>
     <use style="stroke:#000000;" x="341.920372" xlink:href="#me7dc8b6f37" y="232.160552"/>
     <use style="stroke:#000000;" x="331.740858" xlink:href="#me7dc8b6f37" y="212.758219"/>
     <use style="stroke:#000000;" x="329.104437" xlink:href="#me7dc8b6f37" y="208.890825"/>
     <use style="stroke:#000000;" x="266.973862" xlink:href="#me7dc8b6f37" y="207.576746"/>
     <use style="stroke:#000000;" x="316.624903" xlink:href="#me7dc8b6f37" y="226.998723"/>
     <use style="stroke:#000000;" x="305.049238" xlink:href="#me7dc8b6f37" y="207.945268"/>
     <use style="stroke:#000000;" x="339.549586" xlink:href="#me7dc8b6f37" y="221.696483"/>
     <use style="stroke:#000000;" x="246.765889" xlink:href="#me7dc8b6f37" y="230.439812"/>
     <use style="stroke:#000000;" x="377.63133" xlink:href="#me7dc8b6f37" y="245.252012"/>
     <use style="stroke:#000000;" x="366.962962" xlink:href="#me7dc8b6f37" y="245.73826"/>
     <use style="stroke:#000000;" x="87.413233" xlink:href="#me7dc8b6f37" y="110.190261"/>
     <use style="stroke:#000000;" x="82.281189" xlink:href="#me7dc8b6f37" y="90.650853"/>
     <use style="stroke:#000000;" x="83.297418" xlink:href="#me7dc8b6f37" y="95.666956"/>
     <use style="stroke:#000000;" x="405.1968" xlink:href="#me7dc8b6f37" y="254.3616"/>
     <use style="stroke:#000000;" x="184.850752" xlink:href="#me7dc8b6f37" y="163.486799"/>
     <use style="stroke:#000000;" x="164.155416" xlink:href="#me7dc8b6f37" y="178.098171"/>
     <use style="stroke:#000000;" x="101.72744" xlink:href="#me7dc8b6f37" y="147.128534"/>
     <use style="stroke:#000000;" x="135.484292" xlink:href="#me7dc8b6f37" y="165.439379"/>
     <use style="stroke:#000000;" x="96.266623" xlink:href="#me7dc8b6f37" y="121.042387"/>
     <use style="stroke:#000000;" x="139.749984" xlink:href="#me7dc8b6f37" y="150.293043"/>
     <use style="stroke:#000000;" x="99.837303" xlink:href="#me7dc8b6f37" y="125.015766"/>
     <use style="stroke:#000000;" x="108.484999" xlink:href="#me7dc8b6f37" y="132.781575"/>
     <use style="stroke:#000000;" x="81.96707" xlink:href="#me7dc8b6f37" y="88.475852"/>
     <use style="stroke:#000000;" x="123.799093" xlink:href="#me7dc8b6f37" y="142.772749"/>
     <use style="stroke:#000000;" x="107.026688" xlink:href="#me7dc8b6f37" y="142.746003"/>
     <use style="stroke:#000000;" x="138.345396" xlink:href="#me7dc8b6f37" y="149.714176"/>
     <use style="stroke:#000000;" x="109.668691" xlink:href="#me7dc8b6f37" y="143.981817"/>
     <use style="stroke:#000000;" x="115.042732" xlink:href="#me7dc8b6f37" y="137.505757"/>
     <use style="stroke:#000000;" x="118.754267" xlink:href="#me7dc8b6f37" y="139.862897"/>
     <use style="stroke:#000000;" x="128.568113" xlink:href="#me7dc8b6f37" y="173.083293"/>
     <use style="stroke:#000000;" x="133.798772" xlink:href="#me7dc8b6f37" y="154.034562"/>
     <use style="stroke:#000000;" x="166.410798" xlink:href="#me7dc8b6f37" y="161.533012"/>
     <use style="stroke:#000000;" x="153.145031" xlink:href="#me7dc8b6f37" y="188.931919"/>
     <use style="stroke:#000000;" x="108.854139" xlink:href="#me7dc8b6f37" y="133.069693"/>
     <use style="stroke:#000000;" x="345.523644" xlink:href="#me7dc8b6f37" y="226.992532"/>
     <use style="stroke:#000000;" x="131.837813" xlink:href="#me7dc8b6f37" y="153.12214"/>
     <use style="stroke:#000000;" x="131.79706" xlink:href="#me7dc8b6f37" y="146.819646"/>
     <use style="stroke:#000000;" x="168.899501" xlink:href="#me7dc8b6f37" y="159.789924"/>
     <use style="stroke:#000000;" x="134.676631" xlink:href="#me7dc8b6f37" y="158.022477"/>
     <use style="stroke:#000000;" x="157.373412" xlink:href="#me7dc8b6f37" y="156.533088"/>
     <use style="stroke:#000000;" x="100.361227" xlink:href="#me7dc8b6f37" y="125.553075"/>
     <use style="stroke:#000000;" x="129.892453" xlink:href="#me7dc8b6f37" y="145.911378"/>
     <use style="stroke:#000000;" x="166.379901" xlink:href="#me7dc8b6f37" y="173.640574"/>
     <use style="stroke:#000000;" x="83.665034" xlink:href="#me7dc8b6f37" y="97.094347"/>
     <use style="stroke:#000000;" x="100.385974" xlink:href="#me7dc8b6f37" y="137.52693"/>
     <use style="stroke:#000000;" x="171.381827" xlink:href="#me7dc8b6f37" y="183.060128"/>
     <use style="stroke:#000000;" x="156.34888" xlink:href="#me7dc8b6f37" y="171.168142"/>
     <use style="stroke:#000000;" x="89.179619" xlink:href="#me7dc8b6f37" y="110.728026"/>
     <use style="stroke:#000000;" x="85.266315" xlink:href="#me7dc8b6f37" y="102.14547"/>
     <use style="stroke:#000000;" x="305.080534" xlink:href="#me7dc8b6f37" y="225.298965"/>
     <use style="stroke:#000000;" x="390.572936" xlink:href="#me7dc8b6f37" y="250.015044"/>
     <use style="stroke:#000000;" x="102.017224" xlink:href="#me7dc8b6f37" y="127.185904"/>
     <use style="stroke:#000000;" x="92.651334" xlink:href="#me7dc8b6f37" y="116.306626"/>
     <use style="stroke:#000000;" x="167.882357" xlink:href="#me7dc8b6f37" y="169.794632"/>
     <use style="stroke:#000000;" x="150.388027" xlink:href="#me7dc8b6f37" y="175.337851"/>
     <use style="stroke:#000000;" x="137.407005" xlink:href="#me7dc8b6f37" y="156.747798"/>
     <use style="stroke:#000000;" x="89.961045" xlink:href="#me7dc8b6f37" y="112.10128"/>
     <use style="stroke:#000000;" x="92.898903" xlink:href="#me7dc8b6f37" y="133.652336"/>
     <use style="stroke:#000000;" x="126.248915" xlink:href="#me7dc8b6f37" y="164.312374"/>
     <use style="stroke:#000000;" x="132.145256" xlink:href="#me7dc8b6f37" y="153.214976"/>
     <use style="stroke:#000000;" x="127.457505" xlink:href="#me7dc8b6f37" y="144.701711"/>
     <use style="stroke:#000000;" x="137.268638" xlink:href="#me7dc8b6f37" y="149.260865"/>
     <use style="stroke:#000000;" x="167.1168" xlink:href="#me7dc8b6f37" y="159.3216"/>
     <use style="stroke:#000000;" x="82.935833" xlink:href="#me7dc8b6f37" y="98.453229"/>
     <use style="stroke:#000000;" x="265.39017" xlink:href="#me7dc8b6f37" y="173.138266"/>
     <use style="stroke:#000000;" x="143.833931" xlink:href="#me7dc8b6f37" y="151.900382"/>
     <use style="stroke:#000000;" x="87.531275" xlink:href="#me7dc8b6f37" y="107.527269"/>
     <use style="stroke:#000000;" x="82.307294" xlink:href="#me7dc8b6f37" y="95.609072"/>
     <use style="stroke:#000000;" x="83.710026" xlink:href="#me7dc8b6f37" y="104.657263"/>
     <use style="stroke:#000000;" x="83.291049" xlink:href="#me7dc8b6f37" y="95.640932"/>
     <use style="stroke:#000000;" x="349.161662" xlink:href="#me7dc8b6f37" y="247.108528"/>
     <use style="stroke:#000000;" x="361.730627" xlink:href="#me7dc8b6f37" y="239.62463"/>
     <use style="stroke:#000000;" x="88.661112" xlink:href="#me7dc8b6f37" y="118.849156"/>
     <use style="stroke:#000000;" x="86.521978" xlink:href="#me7dc8b6f37" y="107.018562"/>
     <use style="stroke:#000000;" x="122.815867" xlink:href="#me7dc8b6f37" y="142.229622"/>
     <use style="stroke:#000000;" x="136.125634" xlink:href="#me7dc8b6f37" y="148.7703"/>
     <use style="stroke:#000000;" x="167.117087" xlink:href="#me7dc8b6f37" y="159.530142"/>
     <use style="stroke:#000000;" x="155.08106" xlink:href="#me7dc8b6f37" y="181.227583"/>
     <use style="stroke:#000000;" x="99.948996" xlink:href="#me7dc8b6f37" y="125.131193"/>
     <use style="stroke:#000000;" x="94.045532" xlink:href="#me7dc8b6f37" y="118.23632"/>
     <use style="stroke:#000000;" x="124.771032" xlink:href="#me7dc8b6f37" y="170.738936"/>
     <use style="stroke:#000000;" x="92.748565" xlink:href="#me7dc8b6f37" y="122.150299"/>
     <use style="stroke:#000000;" x="82.280788" xlink:href="#me7dc8b6f37" y="90.648372"/>
     <use style="stroke:#000000;" x="97.710816" xlink:href="#me7dc8b6f37" y="123.119343"/>
     <use style="stroke:#000000;" x="263.29443" xlink:href="#me7dc8b6f37" y="211.376035"/>
     <use style="stroke:#000000;" x="212.152072" xlink:href="#me7dc8b6f37" y="207.543806"/>
     <use style="stroke:#000000;" x="81.408" xlink:href="#me7dc8b6f37" y="79.488"/>
     <use style="stroke:#000000;" x="81.801077" xlink:href="#me7dc8b6f37" y="87.05458"/>
     <use style="stroke:#000000;" x="118.567128" xlink:href="#me7dc8b6f37" y="139.748745"/>
     <use style="stroke:#000000;" x="132.297734" xlink:href="#me7dc8b6f37" y="183.331949"/>
     <use style="stroke:#000000;" x="167.1168" xlink:href="#me7dc8b6f37" y="159.3216"/>
     <use style="stroke:#000000;" x="157.133179" xlink:href="#me7dc8b6f37" y="189.563962"/>
     <use style="stroke:#000000;" x="109.022657" xlink:href="#me7dc8b6f37" y="133.200248"/>
     <use style="stroke:#000000;" x="122.409714" xlink:href="#me7dc8b6f37" y="142.002028"/>
     <use style="stroke:#000000;" x="398.82418" xlink:href="#me7dc8b6f37" y="252.583777"/>
     <use style="stroke:#000000;" x="82.438717" xlink:href="#me7dc8b6f37" y="91.5833"/>
     <use style="stroke:#000000;" x="100.336123" xlink:href="#me7dc8b6f37" y="125.527567"/>
     <use style="stroke:#000000;" x="81.784224" xlink:href="#me7dc8b6f37" y="86.893923"/>
     <use style="stroke:#000000;" x="96.01016" xlink:href="#me7dc8b6f37" y="120.733173"/>
     <use style="stroke:#000000;" x="90.901531" xlink:href="#me7dc8b6f37" y="124.475472"/>
     <use style="stroke:#000000;" x="322.363416" xlink:href="#me7dc8b6f37" y="248.117891"/>
     <use style="stroke:#000000;" x="90.514141" xlink:href="#me7dc8b6f37" y="113.027131"/>
     <use style="stroke:#000000;" x="119.816963" xlink:href="#me7dc8b6f37" y="140.502263"/>
    </g>
   </g>
   <g id="PathCollection_2">
    <defs>
     <path d="M 0 0.935414 
C 0.248075 0.935414 0.486022 0.836853 0.661438 0.661438 
C 0.836853 0.486022 0.935414 0.248075 0.935414 0 
C 0.935414 -0.248075 0.836853 -0.486022 0.661438 -0.661438 
C 0.486022 -0.836853 0.248075 -0.935414 0 -0.935414 
C -0.248075 -0.935414 -0.486022 -0.836853 -0.661438 -0.661438 
C -0.836853 -0.486022 -0.935414 -0.248075 -0.935414 0 
C -0.935414 0.248075 -0.836853 0.486022 -0.661438 0.661438 
C -0.486022 0.836853 -0.248075 0.935414 0 0.935414 
z
" id="m75649ab36c" style="stroke:#0000ff;"/>
    </defs>
    <g clip-path="url(#p11caba6578)">
     <use style="fill:#0000ff;stroke:#0000ff;" x="119.390893" xlink:href="#m75649ab36c" y="140.247709"/>
     <use style="fill:#0000ff;stroke:#0000ff;" x="112.948497" xlink:href="#m75649ab36c" y="136.081805"/>
     <use style="fill:#0000ff;stroke:#0000ff;" x="380.909729" xlink:href="#m75649ab36c" y="246.55522"/>
     <use style="fill:#0000ff;stroke:#0000ff;" x="82.475666" xlink:href="#m75649ab36c" y="91.790747"/>
     <use style="fill:#0000ff;stroke:#0000ff;" x="128.200653" xlink:href="#m75649ab36c" y="145.076891"/>
     <use style="fill:#0000ff;stroke:#0000ff;" x="111.349651" xlink:href="#m75649ab36c" y="134.943703"/>
     <use style="fill:#0000ff;stroke:#0000ff;" x="131.618463" xlink:href="#m75649ab36c" y="146.735832"/>
     <use style="fill:#0000ff;stroke:#0000ff;" x="136.808183" xlink:href="#m75649ab36c" y="149.064419"/>
     <use style="fill:#0000ff;stroke:#0000ff;" x="300.906946" xlink:href="#m75649ab36c" y="174.377337"/>
     <use style="fill:#0000ff;stroke:#0000ff;" x="369.623292" xlink:href="#m75649ab36c" y="241.740472"/>
     <use style="fill:#0000ff;stroke:#0000ff;" x="148.18222" xlink:href="#m75649ab36c" y="153.497366"/>
     <use style="fill:#0000ff;stroke:#0000ff;" x="107.773186" xlink:href="#m75649ab36c" y="132.217536"/>
     <use style="fill:#0000ff;stroke:#0000ff;" x="167.1168" xlink:href="#m75649ab36c" y="159.3216"/>
     <use style="fill:#0000ff;stroke:#0000ff;" x="222.030701" xlink:href="#m75649ab36c" y="169.436336"/>
     <use style="fill:#0000ff;stroke:#0000ff;" x="320.042195" xlink:href="#m75649ab36c" y="183.477548"/>
     <use style="fill:#0000ff;stroke:#0000ff;" x="167.1168" xlink:href="#m75649ab36c" y="159.3216"/>
     <use style="fill:#0000ff;stroke:#0000ff;" x="86.064523" xlink:href="#m75649ab36c" y="104.212259"/>
     <use style="fill:#0000ff;stroke:#0000ff;" x="100.118084" xlink:href="#m75649ab36c" y="125.30502"/>
     <use style="fill:#0000ff;stroke:#0000ff;" x="112.482251" xlink:href="#m75649ab36c" y="135.754664"/>
     <use style="fill:#0000ff;stroke:#0000ff;" x="362.315878" xlink:href="#m75649ab36c" y="238.050543"/>
     <use style="fill:#0000ff;stroke:#0000ff;" x="333.805378" xlink:href="#m75649ab36c" y="215.425558"/>
     <use style="fill:#0000ff;stroke:#0000ff;" x="343.726598" xlink:href="#m75649ab36c" y="225.501816"/>
     <use style="fill:#0000ff;stroke:#0000ff;" x="374.650403" xlink:href="#m75649ab36c" y="244.002355"/>
     <use style="fill:#0000ff;stroke:#0000ff;" x="81.540926" xlink:href="#m75649ab36c" y="83.926325"/>
     <use style="fill:#0000ff;stroke:#0000ff;" x="397.359549" xlink:href="#m75649ab36c" y="252.150898"/>
     <use style="fill:#0000ff;stroke:#0000ff;" x="253.311631" xlink:href="#m75649ab36c" y="172.381901"/>
     <use style="fill:#0000ff;stroke:#0000ff;" x="322.697295" xlink:href="#m75649ab36c" y="195.315723"/>
     <use style="fill:#0000ff;stroke:#0000ff;" x="90.929534" xlink:href="#m75649ab36c" y="113.699739"/>
     <use style="fill:#0000ff;stroke:#0000ff;" x="98.624468" xlink:href="#m75649ab36c" y="123.730136"/>
     <use style="fill:#0000ff;stroke:#0000ff;" x="101.654617" xlink:href="#m75649ab36c" y="126.836488"/>
     <use style="fill:#0000ff;stroke:#0000ff;" x="100.144884" xlink:href="#m75649ab36c" y="126.013092"/>
     <use style="fill:#0000ff;stroke:#0000ff;" x="81.408" xlink:href="#m75649ab36c" y="79.488"/>
     <use style="fill:#0000ff;stroke:#0000ff;" x="135.064041" xlink:href="#m75649ab36c" y="148.305778"/>
     <use style="fill:#0000ff;stroke:#0000ff;" x="116.207823" xlink:href="#m75649ab36c" y="138.267528"/>
     <use style="fill:#0000ff;stroke:#0000ff;" x="98.399104" xlink:href="#m75649ab36c" y="123.484451"/>
     <use style="fill:#0000ff;stroke:#0000ff;" x="106.425127" xlink:href="#m75649ab36c" y="131.11735"/>
     <use style="fill:#0000ff;stroke:#0000ff;" x="109.879658" xlink:href="#m75649ab36c" y="133.854978"/>
     <use style="fill:#0000ff;stroke:#0000ff;" x="147.182988" xlink:href="#m75649ab36c" y="153.14022"/>
     <use style="fill:#0000ff;stroke:#0000ff;" x="102.986673" xlink:href="#m75649ab36c" y="128.099135"/>
     <use style="fill:#0000ff;stroke:#0000ff;" x="366.159823" xlink:href="#m75649ab36c" y="240.056255"/>
     <use style="fill:#0000ff;stroke:#0000ff;" x="142.800741" xlink:href="#m75649ab36c" y="151.504007"/>
     <use style="fill:#0000ff;stroke:#0000ff;" x="141.740123" xlink:href="#m75649ab36c" y="151.089997"/>
     <use style="fill:#0000ff;stroke:#0000ff;" x="113.016364" xlink:href="#m75649ab36c" y="136.129106"/>
     <use style="fill:#0000ff;stroke:#0000ff;" x="143.512" xlink:href="#m75649ab36c" y="151.777598"/>
     <use style="fill:#0000ff;stroke:#0000ff;" x="156.804892" xlink:href="#m75649ab36c" y="156.357509"/>
     <use style="fill:#0000ff;stroke:#0000ff;" x="120.381639" xlink:href="#m75649ab36c" y="140.836014"/>
     <use style="fill:#0000ff;stroke:#0000ff;" x="167.1168" xlink:href="#m75649ab36c" y="159.3216"/>
     <use style="fill:#0000ff;stroke:#0000ff;" x="93.225627" xlink:href="#m75649ab36c" y="117.119181"/>
     <use style="fill:#0000ff;stroke:#0000ff;" x="377.299163" xlink:href="#m75649ab36c" y="245.115908"/>
     <use style="fill:#0000ff;stroke:#0000ff;" x="102.720358" xlink:href="#m75649ab36c" y="127.851225"/>
     <use style="fill:#0000ff;stroke:#0000ff;" x="153.96282" xlink:href="#m75649ab36c" y="155.45662"/>
     <use style="fill:#0000ff;stroke:#0000ff;" x="131.504402" xlink:href="#m75649ab36c" y="146.68216"/>
     <use style="fill:#0000ff;stroke:#0000ff;" x="89.100906" xlink:href="#m75649ab36c" y="110.585091"/>
     <use style="fill:#0000ff;stroke:#0000ff;" x="138.36706" xlink:href="#m75649ab36c" y="149.72321"/>
     <use style="fill:#0000ff;stroke:#0000ff;" x="81.444224" xlink:href="#m75649ab36c" y="81.818148"/>
     <use style="fill:#0000ff;stroke:#0000ff;" x="159.745034" xlink:href="#m75649ab36c" y="157.249504"/>
     <use style="fill:#0000ff;stroke:#0000ff;" x="87.033867" xlink:href="#m75649ab36c" y="106.461482"/>
     <use style="fill:#0000ff;stroke:#0000ff;" x="254.801039" xlink:href="#m75649ab36c" y="172.485537"/>
     <use style="fill:#0000ff;stroke:#0000ff;" x="81.408" xlink:href="#m75649ab36c" y="79.488"/>
     <use style="fill:#0000ff;stroke:#0000ff;" x="88.170234" xlink:href="#m75649ab36c" y="108.823216"/>
     <use style="fill:#0000ff;stroke:#0000ff;" x="367.676222" xlink:href="#m75649ab36c" y="240.807187"/>
     <use style="fill:#0000ff;stroke:#0000ff;" x="84.616231" xlink:href="#m75649ab36c" y="100.272492"/>
     <use style="fill:#0000ff;stroke:#0000ff;" x="106.739379" xlink:href="#m75649ab36c" y="131.377689"/>
     <use style="fill:#0000ff;stroke:#0000ff;" x="167.1168" xlink:href="#m75649ab36c" y="159.3216"/>
     <use style="fill:#0000ff;stroke:#0000ff;" x="92.558781" xlink:href="#m75649ab36c" y="116.173206"/>
     <use style="fill:#0000ff;stroke:#0000ff;" x="113.75487" xlink:href="#m75649ab36c" y="136.63872"/>
     <use style="fill:#0000ff;stroke:#0000ff;" x="81.408" xlink:href="#m75649ab36c" y="79.488"/>
     <use style="fill:#0000ff;stroke:#0000ff;" x="342.1971" xlink:href="#m75649ab36c" y="224.167652"/>
     <use style="fill:#0000ff;stroke:#0000ff;" x="81.734188" xlink:href="#m75649ab36c" y="86.393516"/>
     <use style="fill:#0000ff;stroke:#0000ff;" x="114.86966" xlink:href="#m75649ab36c" y="137.390795"/>
     <use style="fill:#0000ff;stroke:#0000ff;" x="167.1168" xlink:href="#m75649ab36c" y="159.3216"/>
     <use style="fill:#0000ff;stroke:#0000ff;" x="115.716531" xlink:href="#m75649ab36c" y="137.94885"/>
     <use style="fill:#0000ff;stroke:#0000ff;" x="390.124412" xlink:href="#m75649ab36c" y="249.865899"/>
     <use style="fill:#0000ff;stroke:#0000ff;" x="82.571984" xlink:href="#m75649ab36c" y="94.231462"/>
     <use style="fill:#0000ff;stroke:#0000ff;" x="98.226904" xlink:href="#m75649ab36c" y="123.29522"/>
     <use style="fill:#0000ff;stroke:#0000ff;" x="84.435365" xlink:href="#m75649ab36c" y="99.713699"/>
     <use style="fill:#0000ff;stroke:#0000ff;" x="101.207012" xlink:href="#m75649ab36c" y="126.399022"/>
     <use style="fill:#0000ff;stroke:#0000ff;" x="374.678576" xlink:href="#m75649ab36c" y="244.01447"/>
     <use style="fill:#0000ff;stroke:#0000ff;" x="84.388252" xlink:href="#m75649ab36c" y="99.56507"/>
     <use style="fill:#0000ff;stroke:#0000ff;" x="98.902741" xlink:href="#m75649ab36c" y="124.030484"/>
    </g>
   </g>
   <g id="matplotlib.axis_1">
    <g id="xtick_1">
     <g id="line2d_1">
      <defs>
       <path d="M 0 0 
L 0 3.5 
" id="m61b155a5a8" style="stroke:#000000;stroke-width:0.8;"/>
      </defs>
      <g>
       <use style="stroke:#000000;stroke-width:0.8;" x="81.408" xlink:href="#m61b155a5a8" y="307.584"/>
      </g>
     </g>
     <g id="text_1">
      <!-- 0 -->
      <defs>
       <path d="M 31.78125 66.40625 
Q 24.171875 66.40625 20.328125 58.90625 
Q 16.5 51.421875 16.5 36.375 
Q 16.5 21.390625 20.328125 13.890625 
Q 24.171875 6.390625 31.78125 6.390625 
Q 39.453125 6.390625 43.28125 13.890625 
Q 47.125 21.390625 47.125 36.375 
Q 47.125 51.421875 43.28125 58.90625 
Q 39.453125 66.40625 31.78125 66.40625 
z
M 31.78125 74.21875 
Q 44.046875 74.21875 50.515625 64.515625 
Q 56.984375 54.828125 56.984375 36.375 
Q 56.984375 17.96875 50.515625 8.265625 
Q 44.046875 -1.421875 31.78125 -1.421875 
Q 19.53125 -1.421875 13.0625 8.265625 
Q 6.59375 17.96875 6.59375 36.375 
Q 6.59375 54.828125 13.0625 64.515625 
Q 19.53125 74.21875 31.78125 74.21875 
z
" id="DejaVuSans-30"/>
      </defs>
      <g transform="translate(78.22675 322.182437)scale(0.1 -0.1)">
       <use xlink:href="#DejaVuSans-30"/>
      </g>
     </g>
    </g>
    <g id="xtick_2">
     <g id="line2d_2">
      <g>
       <use style="stroke:#000000;stroke-width:0.8;" x="129.024" xlink:href="#m61b155a5a8" y="307.584"/>
      </g>
     </g>
     <g id="text_2">
      <!-- 20 -->
      <defs>
       <path d="M 19.1875 8.296875 
L 53.609375 8.296875 
L 53.609375 0 
L 7.328125 0 
L 7.328125 8.296875 
Q 12.9375 14.109375 22.625 23.890625 
Q 32.328125 33.6875 34.8125 36.53125 
Q 39.546875 41.84375 41.421875 45.53125 
Q 43.3125 49.21875 43.3125 52.78125 
Q 43.3125 58.59375 39.234375 62.25 
Q 35.15625 65.921875 28.609375 65.921875 
Q 23.96875 65.921875 18.8125 64.3125 
Q 13.671875 62.703125 7.8125 59.421875 
L 7.8125 69.390625 
Q 13.765625 71.78125 18.9375 73 
Q 24.125 74.21875 28.421875 74.21875 
Q 39.75 74.21875 46.484375 68.546875 
Q 53.21875 62.890625 53.21875 53.421875 
Q 53.21875 48.921875 51.53125 44.890625 
Q 49.859375 40.875 45.40625 35.40625 
Q 44.1875 33.984375 37.640625 27.21875 
Q 31.109375 20.453125 19.1875 8.296875 
z
" id="DejaVuSans-32"/>
      </defs>
      <g transform="translate(122.6615 322.182437)scale(0.1 -0.1)">
       <use xlink:href="#DejaVuSans-32"/>
       <use x="63.623047" xlink:href="#DejaVuSans-30"/>
      </g>
     </g>
    </g>
    <g id="xtick_3">
     <g id="line2d_3">
      <g>
       <use style="stroke:#000000;stroke-width:0.8;" x="176.64" xlink:href="#m61b155a5a8" y="307.584"/>
      </g>
     </g>
     <g id="text_3">
      <!-- 40 -->
      <defs>
       <path d="M 37.796875 64.3125 
L 12.890625 25.390625 
L 37.796875 25.390625 
z
M 35.203125 72.90625 
L 47.609375 72.90625 
L 47.609375 25.390625 
L 58.015625 25.390625 
L 58.015625 17.1875 
L 47.609375 17.1875 
L 47.609375 0 
L 37.796875 0 
L 37.796875 17.1875 
L 4.890625 17.1875 
L 4.890625 26.703125 
z
" id="DejaVuSans-34"/>
      </defs>
      <g transform="translate(170.2775 322.182437)scale(0.1 -0.1)">
       <use xlink:href="#DejaVuSans-34"/>
       <use x="63.623047" xlink:href="#DejaVuSans-30"/>
      </g>
     </g>
    </g>
    <g id="xtick_4">
     <g id="line2d_4">
      <g>
       <use style="stroke:#000000;stroke-width:0.8;" x="224.256" xlink:href="#m61b155a5a8" y="307.584"/>
      </g>
     </g>
     <g id="text_4">
      <!-- 60 -->
      <defs>
       <path d="M 33.015625 40.375 
Q 26.375 40.375 22.484375 35.828125 
Q 18.609375 31.296875 18.609375 23.390625 
Q 18.609375 15.53125 22.484375 10.953125 
Q 26.375 6.390625 33.015625 6.390625 
Q 39.65625 6.390625 43.53125 10.953125 
Q 47.40625 15.53125 47.40625 23.390625 
Q 47.40625 31.296875 43.53125 35.828125 
Q 39.65625 40.375 33.015625 40.375 
z
M 52.59375 71.296875 
L 52.59375 62.3125 
Q 48.875 64.0625 45.09375 64.984375 
Q 41.3125 65.921875 37.59375 65.921875 
Q 27.828125 65.921875 22.671875 59.328125 
Q 17.53125 52.734375 16.796875 39.40625 
Q 19.671875 43.65625 24.015625 45.921875 
Q 28.375 48.1875 33.59375 48.1875 
Q 44.578125 48.1875 50.953125 41.515625 
Q 57.328125 34.859375 57.328125 23.390625 
Q 57.328125 12.15625 50.6875 5.359375 
Q 44.046875 -1.421875 33.015625 -1.421875 
Q 20.359375 -1.421875 13.671875 8.265625 
Q 6.984375 17.96875 6.984375 36.375 
Q 6.984375 53.65625 15.1875 63.9375 
Q 23.390625 74.21875 37.203125 74.21875 
Q 40.921875 74.21875 44.703125 73.484375 
Q 48.484375 72.75 52.59375 71.296875 
z
" id="DejaVuSans-36"/>
      </defs>
      <g transform="translate(217.8935 322.182437)scale(0.1 -0.1)">
       <use xlink:href="#DejaVuSans-36"/>
       <use x="63.623047" xlink:href="#DejaVuSans-30"/>
      </g>
     </g>
    </g>
    <g id="xtick_5">
     <g id="line2d_5">
      <g>
       <use style="stroke:#000000;stroke-width:0.8;" x="271.872" xlink:href="#m61b155a5a8" y="307.584"/>
      </g>
     </g>
     <g id="text_5">
      <!-- 80 -->
      <defs>
       <path d="M 31.78125 34.625 
Q 24.75 34.625 20.71875 30.859375 
Q 16.703125 27.09375 16.703125 20.515625 
Q 16.703125 13.921875 20.71875 10.15625 
Q 24.75 6.390625 31.78125 6.390625 
Q 38.8125 6.390625 42.859375 10.171875 
Q 46.921875 13.96875 46.921875 20.515625 
Q 46.921875 27.09375 42.890625 30.859375 
Q 38.875 34.625 31.78125 34.625 
z
M 21.921875 38.8125 
Q 15.578125 40.375 12.03125 44.71875 
Q 8.5 49.078125 8.5 55.328125 
Q 8.5 64.0625 14.71875 69.140625 
Q 20.953125 74.21875 31.78125 74.21875 
Q 42.671875 74.21875 48.875 69.140625 
Q 55.078125 64.0625 55.078125 55.328125 
Q 55.078125 49.078125 51.53125 44.71875 
Q 48 40.375 41.703125 38.8125 
Q 48.828125 37.15625 52.796875 32.3125 
Q 56.78125 27.484375 56.78125 20.515625 
Q 56.78125 9.90625 50.3125 4.234375 
Q 43.84375 -1.421875 31.78125 -1.421875 
Q 19.734375 -1.421875 13.25 4.234375 
Q 6.78125 9.90625 6.78125 20.515625 
Q 6.78125 27.484375 10.78125 32.3125 
Q 14.796875 37.15625 21.921875 38.8125 
z
M 18.3125 54.390625 
Q 18.3125 48.734375 21.84375 45.5625 
Q 25.390625 42.390625 31.78125 42.390625 
Q 38.140625 42.390625 41.71875 45.5625 
Q 45.3125 48.734375 45.3125 54.390625 
Q 45.3125 60.0625 41.71875 63.234375 
Q 38.140625 66.40625 31.78125 66.40625 
Q 25.390625 66.40625 21.84375 63.234375 
Q 18.3125 60.0625 18.3125 54.390625 
z
" id="DejaVuSans-38"/>
      </defs>
      <g transform="translate(265.5095 322.182437)scale(0.1 -0.1)">
       <use xlink:href="#DejaVuSans-38"/>
       <use x="63.623047" xlink:href="#DejaVuSans-30"/>
      </g>
     </g>
    </g>
    <g id="xtick_6">
     <g id="line2d_6">
      <g>
       <use style="stroke:#000000;stroke-width:0.8;" x="319.488" xlink:href="#m61b155a5a8" y="307.584"/>
      </g>
     </g>
     <g id="text_6">
      <!-- 100 -->
      <defs>
       <path d="M 12.40625 8.296875 
L 28.515625 8.296875 
L 28.515625 63.921875 
L 10.984375 60.40625 
L 10.984375 69.390625 
L 28.421875 72.90625 
L 38.28125 72.90625 
L 38.28125 8.296875 
L 54.390625 8.296875 
L 54.390625 0 
L 12.40625 0 
z
" id="DejaVuSans-31"/>
      </defs>
      <g transform="translate(309.94425 322.182437)scale(0.1 -0.1)">
       <use xlink:href="#DejaVuSans-31"/>
       <use x="63.623047" xlink:href="#DejaVuSans-30"/>
       <use x="127.246094" xlink:href="#DejaVuSans-30"/>
      </g>
     </g>
    </g>
    <g id="xtick_7">
     <g id="line2d_7">
      <g>
       <use style="stroke:#000000;stroke-width:0.8;" x="367.104" xlink:href="#m61b155a5a8" y="307.584"/>
      </g>
     </g>
     <g id="text_7">
      <!-- 120 -->
      <g transform="translate(357.56025 322.182437)scale(0.1 -0.1)">
       <use xlink:href="#DejaVuSans-31"/>
       <use x="63.623047" xlink:href="#DejaVuSans-32"/>
       <use x="127.246094" xlink:href="#DejaVuSans-30"/>
      </g>
     </g>
    </g>
    <g id="xtick_8">
     <g id="line2d_8">
      <g>
       <use style="stroke:#000000;stroke-width:0.8;" x="414.72" xlink:href="#m61b155a5a8" y="307.584"/>
      </g>
     </g>
     <g id="text_8">
      <!-- 140 -->
      <g transform="translate(405.17625 322.182437)scale(0.1 -0.1)">
       <use xlink:href="#DejaVuSans-31"/>
       <use x="63.623047" xlink:href="#DejaVuSans-34"/>
       <use x="127.246094" xlink:href="#DejaVuSans-30"/>
      </g>
     </g>
    </g>
   </g>
   <g id="matplotlib.axis_2">
    <g id="ytick_1">
     <g id="line2d_9">
      <defs>
       <path d="M 0 0 
L -3.5 0 
" id="m1541282c43" style="stroke:#000000;stroke-width:0.8;"/>
      </defs>
      <g>
       <use style="stroke:#000000;stroke-width:0.8;" x="57.6" xlink:href="#m1541282c43" y="307.584"/>
      </g>
     </g>
     <g id="text_9">
      <!-- −10 -->
      <defs>
       <path d="M 10.59375 35.5 
L 73.1875 35.5 
L 73.1875 27.203125 
L 10.59375 27.203125 
z
" id="DejaVuSans-2212"/>
      </defs>
      <g transform="translate(29.495313 311.383219)scale(0.1 -0.1)">
       <use xlink:href="#DejaVuSans-2212"/>
       <use x="83.789062" xlink:href="#DejaVuSans-31"/>
       <use x="147.412109" xlink:href="#DejaVuSans-30"/>
      </g>
     </g>
    </g>
    <g id="ytick_2">
     <g id="line2d_10">
      <g>
       <use style="stroke:#000000;stroke-width:0.8;" x="57.6" xlink:href="#m1541282c43" y="269.568"/>
      </g>
     </g>
     <g id="text_10">
      <!-- 0 -->
      <g transform="translate(44.2375 273.367219)scale(0.1 -0.1)">
       <use xlink:href="#DejaVuSans-30"/>
      </g>
     </g>
    </g>
    <g id="ytick_3">
     <g id="line2d_11">
      <g>
       <use style="stroke:#000000;stroke-width:0.8;" x="57.6" xlink:href="#m1541282c43" y="231.552"/>
      </g>
     </g>
     <g id="text_11">
      <!-- 10 -->
      <g transform="translate(37.875 235.351219)scale(0.1 -0.1)">
       <use xlink:href="#DejaVuSans-31"/>
       <use x="63.623047" xlink:href="#DejaVuSans-30"/>
      </g>
     </g>
    </g>
    <g id="ytick_4">
     <g id="line2d_12">
      <g>
       <use style="stroke:#000000;stroke-width:0.8;" x="57.6" xlink:href="#m1541282c43" y="193.536"/>
      </g>
     </g>
     <g id="text_12">
      <!-- 20 -->
      <g transform="translate(37.875 197.335219)scale(0.1 -0.1)">
       <use xlink:href="#DejaVuSans-32"/>
       <use x="63.623047" xlink:href="#DejaVuSans-30"/>
      </g>
     </g>
    </g>
    <g id="ytick_5">
     <g id="line2d_13">
      <g>
       <use style="stroke:#000000;stroke-width:0.8;" x="57.6" xlink:href="#m1541282c43" y="155.52"/>
      </g>
     </g>
     <g id="text_13">
      <!-- 30 -->
      <defs>
       <path d="M 40.578125 39.3125 
Q 47.65625 37.796875 51.625 33 
Q 55.609375 28.21875 55.609375 21.1875 
Q 55.609375 10.40625 48.1875 4.484375 
Q 40.765625 -1.421875 27.09375 -1.421875 
Q 22.515625 -1.421875 17.65625 -0.515625 
Q 12.796875 0.390625 7.625 2.203125 
L 7.625 11.71875 
Q 11.71875 9.328125 16.59375 8.109375 
Q 21.484375 6.890625 26.8125 6.890625 
Q 36.078125 6.890625 40.9375 10.546875 
Q 45.796875 14.203125 45.796875 21.1875 
Q 45.796875 27.640625 41.28125 31.265625 
Q 36.765625 34.90625 28.71875 34.90625 
L 20.21875 34.90625 
L 20.21875 43.015625 
L 29.109375 43.015625 
Q 36.375 43.015625 40.234375 45.921875 
Q 44.09375 48.828125 44.09375 54.296875 
Q 44.09375 59.90625 40.109375 62.90625 
Q 36.140625 65.921875 28.71875 65.921875 
Q 24.65625 65.921875 20.015625 65.03125 
Q 15.375 64.15625 9.8125 62.3125 
L 9.8125 71.09375 
Q 15.4375 72.65625 20.34375 73.4375 
Q 25.25 74.21875 29.59375 74.21875 
Q 40.828125 74.21875 47.359375 69.109375 
Q 53.90625 64.015625 53.90625 55.328125 
Q 53.90625 49.265625 50.4375 45.09375 
Q 46.96875 40.921875 40.578125 39.3125 
z
" id="DejaVuSans-33"/>
      </defs>
      <g transform="translate(37.875 159.319219)scale(0.1 -0.1)">
       <use xlink:href="#DejaVuSans-33"/>
       <use x="63.623047" xlink:href="#DejaVuSans-30"/>
      </g>
     </g>
    </g>
    <g id="ytick_6">
     <g id="line2d_14">
      <g>
       <use style="stroke:#000000;stroke-width:0.8;" x="57.6" xlink:href="#m1541282c43" y="117.504"/>
      </g>
     </g>
     <g id="text_14">
      <!-- 40 -->
      <g transform="translate(37.875 121.303219)scale(0.1 -0.1)">
       <use xlink:href="#DejaVuSans-34"/>
       <use x="63.623047" xlink:href="#DejaVuSans-30"/>
      </g>
     </g>
    </g>
    <g id="ytick_7">
     <g id="line2d_15">
      <g>
       <use style="stroke:#000000;stroke-width:0.8;" x="57.6" xlink:href="#m1541282c43" y="79.488"/>
      </g>
     </g>
     <g id="text_15">
      <!-- 50 -->
      <defs>
       <path d="M 10.796875 72.90625 
L 49.515625 72.90625 
L 49.515625 64.59375 
L 19.828125 64.59375 
L 19.828125 46.734375 
Q 21.96875 47.46875 24.109375 47.828125 
Q 26.265625 48.1875 28.421875 48.1875 
Q 40.625 48.1875 47.75 41.5 
Q 54.890625 34.8125 54.890625 23.390625 
Q 54.890625 11.625 47.5625 5.09375 
Q 40.234375 -1.421875 26.90625 -1.421875 
Q 22.3125 -1.421875 17.546875 -0.640625 
Q 12.796875 0.140625 7.71875 1.703125 
L 7.71875 11.625 
Q 12.109375 9.234375 16.796875 8.0625 
Q 21.484375 6.890625 26.703125 6.890625 
Q 35.15625 6.890625 40.078125 11.328125 
Q 45.015625 15.765625 45.015625 23.390625 
Q 45.015625 31 40.078125 35.4375 
Q 35.15625 39.890625 26.703125 39.890625 
Q 22.75 39.890625 18.8125 39.015625 
Q 14.890625 38.140625 10.796875 36.28125 
z
" id="DejaVuSans-35"/>
      </defs>
      <g transform="translate(37.875 83.287219)scale(0.1 -0.1)">
       <use xlink:href="#DejaVuSans-35"/>
       <use x="63.623047" xlink:href="#DejaVuSans-30"/>
      </g>
     </g>
    </g>
    <g id="ytick_8">
     <g id="line2d_16">
      <g>
       <use style="stroke:#000000;stroke-width:0.8;" x="57.6" xlink:href="#m1541282c43" y="41.472"/>
      </g>
     </g>
     <g id="text_16">
      <!-- 60 -->
      <g transform="translate(37.875 45.271219)scale(0.1 -0.1)">
       <use xlink:href="#DejaVuSans-36"/>
       <use x="63.623047" xlink:href="#DejaVuSans-30"/>
      </g>
     </g>
    </g>
   </g>
   <g id="patch_3">
    <path d="M 57.6 307.584 
L 57.6 41.472 
" style="fill:none;stroke:#000000;stroke-linecap:square;stroke-linejoin:miter;stroke-width:0.8;"/>
   </g>
   <g id="patch_4">
    <path d="M 414.72 307.584 
L 414.72 41.472 
" style="fill:none;stroke:#000000;stroke-linecap:square;stroke-linejoin:miter;stroke-width:0.8;"/>
   </g>
   <g id="patch_5">
    <path d="M 57.6 307.584 
L 414.72 307.584 
" style="fill:none;stroke:#000000;stroke-linecap:square;stroke-linejoin:miter;stroke-width:0.8;"/>
   </g>
   <g id="patch_6">
    <path d="M 57.6 41.472 
L 414.72 41.472 
" style="fill:none;stroke:#000000;stroke-linecap:square;stroke-linejoin:miter;stroke-width:0.8;"/>
   </g>
  </g>
 </g>
 <defs>
  <clipPath id="p11caba6578">
   <rect height="266.112" width="357.12" x="57.6" y="41.472"/>
  </clipPath>
 </defs>
</svg>
