<?xml version="1.0" encoding="utf-8" standalone="no"?>
<!DOCTYPE svg PUBLIC "-//W3C//DTD SVG 1.1//EN"
  "http://www.w3.org/Graphics/SVG/1.1/DTD/svg11.dtd">
<!-- Created with matplotlib (http://matplotlib.org/) -->
<svg height="345.6pt" version="1.1" viewBox="0 0 460.8 345.6" width="460.8pt" xmlns="http://www.w3.org/2000/svg" xmlns:xlink="http://www.w3.org/1999/xlink">
 <defs>
  <style type="text/css">
*{stroke-linecap:butt;stroke-linejoin:round;}
  </style>
 </defs>
 <g id="figure_1">
  <g id="patch_1">
   <path d="M 0 345.6 
L 460.8 345.6 
L 460.8 0 
L 0 0 
z
" style="fill:#ffffff;"/>
  </g>
  <g id="axes_1">
   <g id="patch_2">
    <path d="M 57.6 307.584 
L 414.72 307.584 
L 414.72 41.472 
L 57.6 41.472 
z
" style="fill:#ffffff;"/>
   </g>
   <g id="PathCollection_1">
    <defs>
     <path d="M 0 0.612372 
C 0.162403 0.612372 0.318176 0.547849 0.433013 0.433013 
C 0.547849 0.318176 0.612372 0.162403 0.612372 0 
C 0.612372 -0.162403 0.547849 -0.318176 0.433013 -0.433013 
C 0.318176 -0.547849 0.162403 -0.612372 0 -0.612372 
C -0.162403 -0.612372 -0.318176 -0.547849 -0.433013 -0.433013 
C -0.547849 -0.318176 -0.612372 -0.162403 -0.612372 0 
C -0.612372 0.162403 -0.547849 0.318176 -0.433013 0.433013 
C -0.318176 0.547849 -0.162403 0.612372 0 0.612372 
z
" id="mffb7d22f27" style="stroke:#000000;"/>
    </defs>
    <g clip-path="url(#pab2cd513cb)">
     <use style="stroke:#000000;" x="387.249231" xlink:href="#mffb7d22f27" y="107.666441"/>
     <use style="stroke:#000000;" x="266.635642" xlink:href="#mffb7d22f27" y="62.850197"/>
     <use style="stroke:#000000;" x="374.240716" xlink:href="#mffb7d22f27" y="93.851274"/>
     <use style="stroke:#000000;" x="267.714812" xlink:href="#mffb7d22f27" y="63.835423"/>
     <use style="stroke:#000000;" x="268.577567" xlink:href="#mffb7d22f27" y="65.503313"/>
     <use style="stroke:#000000;" x="382.042347" xlink:href="#mffb7d22f27" y="100.814087"/>
     <use style="stroke:#000000;" x="325.342566" xlink:href="#mffb7d22f27" y="78.353795"/>
     <use style="stroke:#000000;" x="327.553426" xlink:href="#mffb7d22f27" y="82.726269"/>
     <use style="stroke:#000000;" x="323.03627" xlink:href="#mffb7d22f27" y="76.050168"/>
     <use style="stroke:#000000;" x="383.797576" xlink:href="#mffb7d22f27" y="102.43362"/>
     <use style="stroke:#000000;" x="327.480518" xlink:href="#mffb7d22f27" y="82.689398"/>
     <use style="stroke:#000000;" x="269.772425" xlink:href="#mffb7d22f27" y="67.842322"/>
     <use style="stroke:#000000;" x="269.375209" xlink:href="#mffb7d22f27" y="67.524022"/>
     <use style="stroke:#000000;" x="269.710453" xlink:href="#mffb7d22f27" y="67.555456"/>
     <use style="stroke:#000000;" x="331.328693" xlink:href="#mffb7d22f27" y="85.002544"/>
     <use style="stroke:#000000;" x="372.199011" xlink:href="#mffb7d22f27" y="92.491301"/>
     <use style="stroke:#000000;" x="386.097164" xlink:href="#mffb7d22f27" y="103.260692"/>
     <use style="stroke:#000000;" x="380.860376" xlink:href="#mffb7d22f27" y="98.226112"/>
     <use style="stroke:#000000;" x="369.108541" xlink:href="#mffb7d22f27" y="89.999229"/>
     <use style="stroke:#000000;" x="329.305786" xlink:href="#mffb7d22f27" y="84.820732"/>
     <use style="stroke:#000000;" x="316.625553" xlink:href="#mffb7d22f27" y="72.162375"/>
     <use style="stroke:#000000;" x="371.234426" xlink:href="#mffb7d22f27" y="91.883555"/>
     <use style="stroke:#000000;" x="265.798921" xlink:href="#mffb7d22f27" y="61.065207"/>
     <use style="stroke:#000000;" x="267.421888" xlink:href="#mffb7d22f27" y="63.338986"/>
     <use style="stroke:#000000;" x="266.330771" xlink:href="#mffb7d22f27" y="61.921416"/>
     <use style="stroke:#000000;" x="328.443506" xlink:href="#mffb7d22f27" y="82.838679"/>
     <use style="stroke:#000000;" x="373.684193" xlink:href="#mffb7d22f27" y="92.521614"/>
     <use style="stroke:#000000;" x="323.050053" xlink:href="#mffb7d22f27" y="77.36329"/>
     <use style="stroke:#000000;" x="386.620897" xlink:href="#mffb7d22f27" y="106.046836"/>
     <use style="stroke:#000000;" x="375.161543" xlink:href="#mffb7d22f27" y="94.614565"/>
     <use style="stroke:#000000;" x="365.975228" xlink:href="#mffb7d22f27" y="89.783442"/>
     <use style="stroke:#000000;" x="321.668867" xlink:href="#mffb7d22f27" y="75.452611"/>
     <use style="stroke:#000000;" x="321.414586" xlink:href="#mffb7d22f27" y="74.306302"/>
     <use style="stroke:#000000;" x="270.670785" xlink:href="#mffb7d22f27" y="69.333387"/>
     <use style="stroke:#000000;" x="269.197888" xlink:href="#mffb7d22f27" y="66.839283"/>
     <use style="stroke:#000000;" x="364.188287" xlink:href="#mffb7d22f27" y="89.48213"/>
     <use style="stroke:#000000;" x="319.447533" xlink:href="#mffb7d22f27" y="72.492581"/>
     <use style="stroke:#000000;" x="268.223263" xlink:href="#mffb7d22f27" y="64.905236"/>
     <use style="stroke:#000000;" x="376.057466" xlink:href="#mffb7d22f27" y="95.381126"/>
     <use style="stroke:#000000;" x="327.315204" xlink:href="#mffb7d22f27" y="80.244286"/>
     <use style="stroke:#000000;" x="381.056364" xlink:href="#mffb7d22f27" y="100.026791"/>
     <use style="stroke:#000000;" x="265.383864" xlink:href="#mffb7d22f27" y="58.588308"/>
     <use style="stroke:#000000;" x="271.532991" xlink:href="#mffb7d22f27" y="71.807543"/>
     <use style="stroke:#000000;" x="382.718523" xlink:href="#mffb7d22f27" y="102.208079"/>
     <use style="stroke:#000000;" x="270.639646" xlink:href="#mffb7d22f27" y="68.743849"/>
     <use style="stroke:#000000;" x="323.463693" xlink:href="#mffb7d22f27" y="78.12294"/>
     <use style="stroke:#000000;" x="270.705035" xlink:href="#mffb7d22f27" y="70.525203"/>
     <use style="stroke:#000000;" x="271.587252" xlink:href="#mffb7d22f27" y="71.816883"/>
     <use style="stroke:#000000;" x="378.270256" xlink:href="#mffb7d22f27" y="95.430548"/>
     <use style="stroke:#000000;" x="271.027553" xlink:href="#mffb7d22f27" y="71.379896"/>
     <use style="stroke:#000000;" x="269.873222" xlink:href="#mffb7d22f27" y="68.70667"/>
     <use style="stroke:#000000;" x="387.249231" xlink:href="#mffb7d22f27" y="107.999557"/>
     <use style="stroke:#000000;" x="376.156761" xlink:href="#mffb7d22f27" y="96.25799"/>
     <use style="stroke:#000000;" x="268.531988" xlink:href="#mffb7d22f27" y="66.377654"/>
     <use style="stroke:#000000;" x="266.601942" xlink:href="#mffb7d22f27" y="64.266638"/>
     <use style="stroke:#000000;" x="268.356119" xlink:href="#mffb7d22f27" y="66.362883"/>
     <use style="stroke:#000000;" x="381.28139" xlink:href="#mffb7d22f27" y="100.898809"/>
     <use style="stroke:#000000;" x="381.583959" xlink:href="#mffb7d22f27" y="100.963463"/>
     <use style="stroke:#000000;" x="385.995362" xlink:href="#mffb7d22f27" y="105.886142"/>
     <use style="stroke:#000000;" x="325.040951" xlink:href="#mffb7d22f27" y="79.074076"/>
     <use style="stroke:#000000;" x="372.10491" xlink:href="#mffb7d22f27" y="93.552079"/>
     <use style="stroke:#000000;" x="323.222038" xlink:href="#mffb7d22f27" y="78.788986"/>
     <use style="stroke:#000000;" x="370.563082" xlink:href="#mffb7d22f27" y="93.319059"/>
     <use style="stroke:#000000;" x="385.400628" xlink:href="#mffb7d22f27" y="105.783953"/>
     <use style="stroke:#000000;" x="323.056135" xlink:href="#mffb7d22f27" y="78.648667"/>
     <use style="stroke:#000000;" x="381.13349" xlink:href="#mffb7d22f27" y="100.843913"/>
     <use style="stroke:#000000;" x="385.406044" xlink:href="#mffb7d22f27" y="105.793896"/>
     <use style="stroke:#000000;" x="323.021937" xlink:href="#mffb7d22f27" y="76.512887"/>
     <use style="stroke:#000000;" x="382.762162" xlink:href="#mffb7d22f27" y="102.897405"/>
     <use style="stroke:#000000;" x="383.047767" xlink:href="#mffb7d22f27" y="103.357419"/>
     <use style="stroke:#000000;" x="269.675822" xlink:href="#mffb7d22f27" y="68.54376"/>
     <use style="stroke:#000000;" x="369.234296" xlink:href="#mffb7d22f27" y="93.058254"/>
     <use style="stroke:#000000;" x="378.075042" xlink:href="#mffb7d22f27" y="98.422543"/>
     <use style="stroke:#000000;" x="384.815664" xlink:href="#mffb7d22f27" y="103.554806"/>
     <use style="stroke:#000000;" x="269.373448" xlink:href="#mffb7d22f27" y="68.020416"/>
     <use style="stroke:#000000;" x="330.511565" xlink:href="#mffb7d22f27" y="86.115518"/>
     <use style="stroke:#000000;" x="269.213876" xlink:href="#mffb7d22f27" y="67.570112"/>
     <use style="stroke:#000000;" x="380.310522" xlink:href="#mffb7d22f27" y="100.697415"/>
     <use style="stroke:#000000;" x="378.420023" xlink:href="#mffb7d22f27" y="98.722813"/>
     <use style="stroke:#000000;" x="368.419664" xlink:href="#mffb7d22f27" y="90.612621"/>
     <use style="stroke:#000000;" x="385.444727" xlink:href="#mffb7d22f27" y="107.264272"/>
     <use style="stroke:#000000;" x="385.947688" xlink:href="#mffb7d22f27" y="105.251855"/>
     <use style="stroke:#000000;" x="266.77848" xlink:href="#mffb7d22f27" y="64.142095"/>
     <use style="stroke:#000000;" x="270.123885" xlink:href="#mffb7d22f27" y="70.075292"/>
     <use style="stroke:#000000;" x="270.416939" xlink:href="#mffb7d22f27" y="71.463395"/>
     <use style="stroke:#000000;" x="268.539904" xlink:href="#mffb7d22f27" y="66.146451"/>
     <use style="stroke:#000000;" x="373.208854" xlink:href="#mffb7d22f27" y="92.748355"/>
     <use style="stroke:#000000;" x="380.078142" xlink:href="#mffb7d22f27" y="100.154445"/>
     <use style="stroke:#000000;" x="250.923863" xlink:href="#mffb7d22f27" y="79.0602"/>
     <use style="stroke:#000000;" x="255.665395" xlink:href="#mffb7d22f27" y="66.263064"/>
     <use style="stroke:#000000;" x="267.599964" xlink:href="#mffb7d22f27" y="64.550905"/>
     <use style="stroke:#000000;" x="261.281953" xlink:href="#mffb7d22f27" y="61.821314"/>
     <use style="stroke:#000000;" x="387.249231" xlink:href="#mffb7d22f27" y="111.582051"/>
     <use style="stroke:#000000;" x="376.539553" xlink:href="#mffb7d22f27" y="99.561061"/>
     <use style="stroke:#000000;" x="325.095154" xlink:href="#mffb7d22f27" y="78.994429"/>
     <use style="stroke:#000000;" x="328.001917" xlink:href="#mffb7d22f27" y="83.491481"/>
     <use style="stroke:#000000;" x="324.375968" xlink:href="#mffb7d22f27" y="78.845651"/>
     <use style="stroke:#000000;" x="326.566223" xlink:href="#mffb7d22f27" y="81.576722"/>
     <use style="stroke:#000000;" x="332.758824" xlink:href="#mffb7d22f27" y="92.364471"/>
     <use style="stroke:#000000;" x="321.048838" xlink:href="#mffb7d22f27" y="75.148336"/>
     <use style="stroke:#000000;" x="387.059043" xlink:href="#mffb7d22f27" y="105.8042"/>
     <use style="stroke:#000000;" x="370.272529" xlink:href="#mffb7d22f27" y="92.904124"/>
     <use style="stroke:#000000;" x="328.381427" xlink:href="#mffb7d22f27" y="87.299652"/>
     <use style="stroke:#000000;" x="316.489308" xlink:href="#mffb7d22f27" y="73.613243"/>
     <use style="stroke:#000000;" x="282.009921" xlink:href="#mffb7d22f27" y="96.251934"/>
     <use style="stroke:#000000;" x="280.245204" xlink:href="#mffb7d22f27" y="94.281662"/>
     <use style="stroke:#000000;" x="268.566267" xlink:href="#mffb7d22f27" y="67.004539"/>
     <use style="stroke:#000000;" x="280.056376" xlink:href="#mffb7d22f27" y="97.445497"/>
     <use style="stroke:#000000;" x="266.868214" xlink:href="#mffb7d22f27" y="63.795974"/>
     <use style="stroke:#000000;" x="273.196617" xlink:href="#mffb7d22f27" y="75.86837"/>
     <use style="stroke:#000000;" x="339.0582" xlink:href="#mffb7d22f27" y="95.120925"/>
     <use style="stroke:#000000;" x="323.979231" xlink:href="#mffb7d22f27" y="76.515275"/>
     <use style="stroke:#000000;" x="353.960562" xlink:href="#mffb7d22f27" y="94.751038"/>
     <use style="stroke:#000000;" x="376.058091" xlink:href="#mffb7d22f27" y="97.929367"/>
     <use style="stroke:#000000;" x="384.082291" xlink:href="#mffb7d22f27" y="101.786692"/>
     <use style="stroke:#000000;" x="387.249231" xlink:href="#mffb7d22f27" y="108.433404"/>
     <use style="stroke:#000000;" x="386.598178" xlink:href="#mffb7d22f27" y="108.67623"/>
     <use style="stroke:#000000;" x="375.217493" xlink:href="#mffb7d22f27" y="93.393813"/>
     <use style="stroke:#000000;" x="372.879233" xlink:href="#mffb7d22f27" y="96.01047"/>
     <use style="stroke:#000000;" x="364.960762" xlink:href="#mffb7d22f27" y="90.136433"/>
     <use style="stroke:#000000;" x="326.49425" xlink:href="#mffb7d22f27" y="84.197615"/>
     <use style="stroke:#000000;" x="333.028603" xlink:href="#mffb7d22f27" y="90.770891"/>
     <use style="stroke:#000000;" x="313.484012" xlink:href="#mffb7d22f27" y="74.697635"/>
     <use style="stroke:#000000;" x="314.540931" xlink:href="#mffb7d22f27" y="73.082107"/>
     <use style="stroke:#000000;" x="377.123982" xlink:href="#mffb7d22f27" y="98.089797"/>
     <use style="stroke:#000000;" x="367.622324" xlink:href="#mffb7d22f27" y="93.205684"/>
     <use style="stroke:#000000;" x="265.020456" xlink:href="#mffb7d22f27" y="61.743801"/>
     <use style="stroke:#000000;" x="265.360133" xlink:href="#mffb7d22f27" y="60.959104"/>
     <use style="stroke:#000000;" x="262.821945" xlink:href="#mffb7d22f27" y="60.550403"/>
     <use style="stroke:#000000;" x="252.629462" xlink:href="#mffb7d22f27" y="74.993082"/>
     <use style="stroke:#000000;" x="260.850152" xlink:href="#mffb7d22f27" y="62.263181"/>
     <use style="stroke:#000000;" x="255.746972" xlink:href="#mffb7d22f27" y="66.67269"/>
     <use style="stroke:#000000;" x="269.057271" xlink:href="#mffb7d22f27" y="67.798069"/>
     <use style="stroke:#000000;" x="333.077627" xlink:href="#mffb7d22f27" y="89.334877"/>
     <use style="stroke:#000000;" x="328.288315" xlink:href="#mffb7d22f27" y="82.237741"/>
     <use style="stroke:#000000;" x="330.987142" xlink:href="#mffb7d22f27" y="89.134036"/>
     <use style="stroke:#000000;" x="367.501426" xlink:href="#mffb7d22f27" y="90.660813"/>
     <use style="stroke:#000000;" x="384.268178" xlink:href="#mffb7d22f27" y="103.156968"/>
     <use style="stroke:#000000;" x="372.407236" xlink:href="#mffb7d22f27" y="93.15313"/>
     <use style="stroke:#000000;" x="321.698494" xlink:href="#mffb7d22f27" y="75.303276"/>
     <use style="stroke:#000000;" x="321.644307" xlink:href="#mffb7d22f27" y="76.436764"/>
     <use style="stroke:#000000;" x="326.732339" xlink:href="#mffb7d22f27" y="85.761096"/>
     <use style="stroke:#000000;" x="387.249231" xlink:href="#mffb7d22f27" y="109.774826"/>
     <use style="stroke:#000000;" x="387.249231" xlink:href="#mffb7d22f27" y="111.779836"/>
     <use style="stroke:#000000;" x="377.620516" xlink:href="#mffb7d22f27" y="94.418559"/>
     <use style="stroke:#000000;" x="377.768803" xlink:href="#mffb7d22f27" y="97.682387"/>
     <use style="stroke:#000000;" x="381.926463" xlink:href="#mffb7d22f27" y="101.850168"/>
     <use style="stroke:#000000;" x="366.241861" xlink:href="#mffb7d22f27" y="92.619785"/>
     <use style="stroke:#000000;" x="375.361235" xlink:href="#mffb7d22f27" y="95.824813"/>
     <use style="stroke:#000000;" x="362.481075" xlink:href="#mffb7d22f27" y="90.044394"/>
     <use style="stroke:#000000;" x="323.033426" xlink:href="#mffb7d22f27" y="76.617852"/>
     <use style="stroke:#000000;" x="312.806014" xlink:href="#mffb7d22f27" y="75.411957"/>
     <use style="stroke:#000000;" x="318.986806" xlink:href="#mffb7d22f27" y="75.751486"/>
     <use style="stroke:#000000;" x="324.507222" xlink:href="#mffb7d22f27" y="79.174919"/>
     <use style="stroke:#000000;" x="326.205129" xlink:href="#mffb7d22f27" y="80.707855"/>
     <use style="stroke:#000000;" x="320.606016" xlink:href="#mffb7d22f27" y="75.634186"/>
     <use style="stroke:#000000;" x="274.668946" xlink:href="#mffb7d22f27" y="81.16371"/>
     <use style="stroke:#000000;" x="273.534759" xlink:href="#mffb7d22f27" y="77.363543"/>
     <use style="stroke:#000000;" x="273.042327" xlink:href="#mffb7d22f27" y="77.79648"/>
     <use style="stroke:#000000;" x="266.988233" xlink:href="#mffb7d22f27" y="65.014627"/>
     <use style="stroke:#000000;" x="262.676869" xlink:href="#mffb7d22f27" y="60.463615"/>
     <use style="stroke:#000000;" x="269.686033" xlink:href="#mffb7d22f27" y="68.490539"/>
     <use style="stroke:#000000;" x="365.513815" xlink:href="#mffb7d22f27" y="90.718611"/>
     <use style="stroke:#000000;" x="363.401218" xlink:href="#mffb7d22f27" y="90.922816"/>
     <use style="stroke:#000000;" x="358.555584" xlink:href="#mffb7d22f27" y="90.66013"/>
     <use style="stroke:#000000;" x="324.33298" xlink:href="#mffb7d22f27" y="79.540003"/>
     <use style="stroke:#000000;" x="324.116615" xlink:href="#mffb7d22f27" y="77.24463"/>
     <use style="stroke:#000000;" x="319.673609" xlink:href="#mffb7d22f27" y="71.449374"/>
     <use style="stroke:#000000;" x="260.275676" xlink:href="#mffb7d22f27" y="62.268936"/>
     <use style="stroke:#000000;" x="272.113188" xlink:href="#mffb7d22f27" y="73.598585"/>
     <use style="stroke:#000000;" x="259.335123" xlink:href="#mffb7d22f27" y="60.550067"/>
     <use style="stroke:#000000;" x="373.37888" xlink:href="#mffb7d22f27" y="94.464805"/>
     <use style="stroke:#000000;" x="374.594584" xlink:href="#mffb7d22f27" y="96.06964"/>
     <use style="stroke:#000000;" x="377.861599" xlink:href="#mffb7d22f27" y="98.171768"/>
     <use style="stroke:#000000;" x="320.373819" xlink:href="#mffb7d22f27" y="74.683443"/>
     <use style="stroke:#000000;" x="325.394633" xlink:href="#mffb7d22f27" y="79.232511"/>
     <use style="stroke:#000000;" x="325.6803" xlink:href="#mffb7d22f27" y="77.694866"/>
     <use style="stroke:#000000;" x="387.249231" xlink:href="#mffb7d22f27" y="112.78377"/>
     <use style="stroke:#000000;" x="381.963211" xlink:href="#mffb7d22f27" y="101.531151"/>
     <use style="stroke:#000000;" x="376.72086" xlink:href="#mffb7d22f27" y="97.779712"/>
     <use style="stroke:#000000;" x="264.549152" xlink:href="#mffb7d22f27" y="58.734443"/>
     <use style="stroke:#000000;" x="270.933713" xlink:href="#mffb7d22f27" y="68.094035"/>
     <use style="stroke:#000000;" x="263.957632" xlink:href="#mffb7d22f27" y="57.488623"/>
     <use style="stroke:#000000;" x="277.095499" xlink:href="#mffb7d22f27" y="87.607632"/>
     <use style="stroke:#000000;" x="272.730489" xlink:href="#mffb7d22f27" y="76.116732"/>
     <use style="stroke:#000000;" x="274.710815" xlink:href="#mffb7d22f27" y="81.038949"/>
     <use style="stroke:#000000;" x="382.623963" xlink:href="#mffb7d22f27" y="103.307222"/>
     <use style="stroke:#000000;" x="379.235603" xlink:href="#mffb7d22f27" y="98.683066"/>
     <use style="stroke:#000000;" x="381.667726" xlink:href="#mffb7d22f27" y="101.625599"/>
     <use style="stroke:#000000;" x="273.661588" xlink:href="#mffb7d22f27" y="76.773693"/>
     <use style="stroke:#000000;" x="266.372706" xlink:href="#mffb7d22f27" y="61.623973"/>
     <use style="stroke:#000000;" x="272.38142" xlink:href="#mffb7d22f27" y="72.790959"/>
     <use style="stroke:#000000;" x="320.561913" xlink:href="#mffb7d22f27" y="75.820513"/>
     <use style="stroke:#000000;" x="329.458563" xlink:href="#mffb7d22f27" y="86.602269"/>
     <use style="stroke:#000000;" x="321.61337" xlink:href="#mffb7d22f27" y="75.918219"/>
     <use style="stroke:#000000;" x="262.763285" xlink:href="#mffb7d22f27" y="62.452226"/>
     <use style="stroke:#000000;" x="263.945147" xlink:href="#mffb7d22f27" y="60.834117"/>
     <use style="stroke:#000000;" x="268.068649" xlink:href="#mffb7d22f27" y="67.182733"/>
     <use style="stroke:#000000;" x="271.007949" xlink:href="#mffb7d22f27" y="70.845227"/>
     <use style="stroke:#000000;" x="266.668358" xlink:href="#mffb7d22f27" y="62.261895"/>
     <use style="stroke:#000000;" x="270.866913" xlink:href="#mffb7d22f27" y="70.379146"/>
     <use style="stroke:#000000;" x="383.960523" xlink:href="#mffb7d22f27" y="102.962151"/>
     <use style="stroke:#000000;" x="379.911713" xlink:href="#mffb7d22f27" y="97.471062"/>
     <use style="stroke:#000000;" x="373.135665" xlink:href="#mffb7d22f27" y="92.316815"/>
     <use style="stroke:#000000;" x="268.125978" xlink:href="#mffb7d22f27" y="66.683178"/>
     <use style="stroke:#000000;" x="270.644076" xlink:href="#mffb7d22f27" y="70.438859"/>
     <use style="stroke:#000000;" x="266.622672" xlink:href="#mffb7d22f27" y="65.240554"/>
     <use style="stroke:#000000;" x="276.461149" xlink:href="#mffb7d22f27" y="84.141043"/>
     <use style="stroke:#000000;" x="263.605199" xlink:href="#mffb7d22f27" y="62.802493"/>
     <use style="stroke:#000000;" x="267.464626" xlink:href="#mffb7d22f27" y="64.853042"/>
     <use style="stroke:#000000;" x="387.249231" xlink:href="#mffb7d22f27" y="108.723672"/>
     <use style="stroke:#000000;" x="374.14481" xlink:href="#mffb7d22f27" y="99.013285"/>
     <use style="stroke:#000000;" x="378.863678" xlink:href="#mffb7d22f27" y="103.083435"/>
     <use style="stroke:#000000;" x="261.394375" xlink:href="#mffb7d22f27" y="66.595045"/>
     <use style="stroke:#000000;" x="275.76825" xlink:href="#mffb7d22f27" y="82.604229"/>
     <use style="stroke:#000000;" x="281.170908" xlink:href="#mffb7d22f27" y="101.955798"/>
     <use style="stroke:#000000;" x="359.602886" xlink:href="#mffb7d22f27" y="93.889188"/>
     <use style="stroke:#000000;" x="387.249231" xlink:href="#mffb7d22f27" y="115.299545"/>
     <use style="stroke:#000000;" x="387.007595" xlink:href="#mffb7d22f27" y="112.562461"/>
     <use style="stroke:#000000;" x="321.530381" xlink:href="#mffb7d22f27" y="86.865122"/>
     <use style="stroke:#000000;" x="383.294656" xlink:href="#mffb7d22f27" y="108.319742"/>
     <use style="stroke:#000000;" x="322.39191" xlink:href="#mffb7d22f27" y="81.115019"/>
     <use style="stroke:#000000;" x="372.263251" xlink:href="#mffb7d22f27" y="95.188422"/>
     <use style="stroke:#000000;" x="387.249231" xlink:href="#mffb7d22f27" y="114.77598"/>
     <use style="stroke:#000000;" x="337.300683" xlink:href="#mffb7d22f27" y="100.111701"/>
     <use style="stroke:#000000;" x="369.116604" xlink:href="#mffb7d22f27" y="95.650991"/>
     <use style="stroke:#000000;" x="373.368138" xlink:href="#mffb7d22f27" y="98.41107"/>
     <use style="stroke:#000000;" x="328.000683" xlink:href="#mffb7d22f27" y="89.781357"/>
     <use style="stroke:#000000;" x="318.563938" xlink:href="#mffb7d22f27" y="75.61719"/>
     <use style="stroke:#000000;" x="376.032587" xlink:href="#mffb7d22f27" y="97.852689"/>
     <use style="stroke:#000000;" x="365.150597" xlink:href="#mffb7d22f27" y="93.254361"/>
     <use style="stroke:#000000;" x="263.438758" xlink:href="#mffb7d22f27" y="60.564585"/>
     <use style="stroke:#000000;" x="370.848526" xlink:href="#mffb7d22f27" y="95.535672"/>
     <use style="stroke:#000000;" x="387.249231" xlink:href="#mffb7d22f27" y="117.301004"/>
     <use style="stroke:#000000;" x="376.621348" xlink:href="#mffb7d22f27" y="97.895574"/>
     <use style="stroke:#000000;" x="275.287152" xlink:href="#mffb7d22f27" y="82.920193"/>
     <use style="stroke:#000000;" x="321.37947" xlink:href="#mffb7d22f27" y="78.062796"/>
     <use style="stroke:#000000;" x="251.211651" xlink:href="#mffb7d22f27" y="77.936905"/>
     <use style="stroke:#000000;" x="380.574562" xlink:href="#mffb7d22f27" y="101.748192"/>
     <use style="stroke:#000000;" x="387.249231" xlink:href="#mffb7d22f27" y="112.086569"/>
     <use style="stroke:#000000;" x="354.012655" xlink:href="#mffb7d22f27" y="96.643403"/>
    </g>
   </g>
   <g id="PathCollection_2">
    <defs>
     <path d="M 0 0.935414 
C 0.248075 0.935414 0.486022 0.836853 0.661438 0.661438 
C 0.836853 0.486022 0.935414 0.248075 0.935414 0 
C 0.935414 -0.248075 0.836853 -0.486022 0.661438 -0.661438 
C 0.486022 -0.836853 0.248075 -0.935414 0 -0.935414 
C -0.248075 -0.935414 -0.486022 -0.836853 -0.661438 -0.661438 
C -0.836853 -0.486022 -0.935414 -0.248075 -0.935414 0 
C -0.935414 0.248075 -0.836853 0.486022 -0.661438 0.661438 
C -0.486022 0.836853 -0.248075 0.935414 0 0.935414 
z
" id="m61dadf3fa6" style="stroke:#0000ff;"/>
    </defs>
    <g clip-path="url(#pab2cd513cb)">
     <use style="fill:#0000ff;stroke:#0000ff;" x="387.249231" xlink:href="#m61dadf3fa6" y="107.666441"/>
     <use style="fill:#0000ff;stroke:#0000ff;" x="266.635642" xlink:href="#m61dadf3fa6" y="62.850197"/>
     <use style="fill:#0000ff;stroke:#0000ff;" x="374.240716" xlink:href="#m61dadf3fa6" y="93.851274"/>
     <use style="fill:#0000ff;stroke:#0000ff;" x="267.714812" xlink:href="#m61dadf3fa6" y="63.835423"/>
     <use style="fill:#0000ff;stroke:#0000ff;" x="268.577567" xlink:href="#m61dadf3fa6" y="65.503313"/>
     <use style="fill:#0000ff;stroke:#0000ff;" x="382.042347" xlink:href="#m61dadf3fa6" y="100.814087"/>
     <use style="fill:#0000ff;stroke:#0000ff;" x="325.342566" xlink:href="#m61dadf3fa6" y="78.353795"/>
     <use style="fill:#0000ff;stroke:#0000ff;" x="327.553426" xlink:href="#m61dadf3fa6" y="82.726269"/>
     <use style="fill:#0000ff;stroke:#0000ff;" x="323.03627" xlink:href="#m61dadf3fa6" y="76.050168"/>
     <use style="fill:#0000ff;stroke:#0000ff;" x="383.797576" xlink:href="#m61dadf3fa6" y="102.43362"/>
     <use style="fill:#0000ff;stroke:#0000ff;" x="327.480518" xlink:href="#m61dadf3fa6" y="82.689398"/>
     <use style="fill:#0000ff;stroke:#0000ff;" x="269.772425" xlink:href="#m61dadf3fa6" y="67.842322"/>
     <use style="fill:#0000ff;stroke:#0000ff;" x="269.375209" xlink:href="#m61dadf3fa6" y="67.524022"/>
     <use style="fill:#0000ff;stroke:#0000ff;" x="269.710453" xlink:href="#m61dadf3fa6" y="67.555456"/>
     <use style="fill:#0000ff;stroke:#0000ff;" x="331.328693" xlink:href="#m61dadf3fa6" y="85.002544"/>
     <use style="fill:#0000ff;stroke:#0000ff;" x="372.199011" xlink:href="#m61dadf3fa6" y="92.491301"/>
     <use style="fill:#0000ff;stroke:#0000ff;" x="386.097164" xlink:href="#m61dadf3fa6" y="103.260692"/>
     <use style="fill:#0000ff;stroke:#0000ff;" x="380.860376" xlink:href="#m61dadf3fa6" y="98.226112"/>
     <use style="fill:#0000ff;stroke:#0000ff;" x="369.108541" xlink:href="#m61dadf3fa6" y="89.999229"/>
     <use style="fill:#0000ff;stroke:#0000ff;" x="329.305786" xlink:href="#m61dadf3fa6" y="84.820732"/>
     <use style="fill:#0000ff;stroke:#0000ff;" x="316.625553" xlink:href="#m61dadf3fa6" y="72.162375"/>
     <use style="fill:#0000ff;stroke:#0000ff;" x="371.234426" xlink:href="#m61dadf3fa6" y="91.883555"/>
     <use style="fill:#0000ff;stroke:#0000ff;" x="265.798921" xlink:href="#m61dadf3fa6" y="61.065207"/>
     <use style="fill:#0000ff;stroke:#0000ff;" x="267.421888" xlink:href="#m61dadf3fa6" y="63.338986"/>
     <use style="fill:#0000ff;stroke:#0000ff;" x="266.330771" xlink:href="#m61dadf3fa6" y="61.921416"/>
     <use style="fill:#0000ff;stroke:#0000ff;" x="328.443506" xlink:href="#m61dadf3fa6" y="82.838679"/>
     <use style="fill:#0000ff;stroke:#0000ff;" x="373.684193" xlink:href="#m61dadf3fa6" y="92.521614"/>
     <use style="fill:#0000ff;stroke:#0000ff;" x="323.050053" xlink:href="#m61dadf3fa6" y="77.36329"/>
     <use style="fill:#0000ff;stroke:#0000ff;" x="386.620897" xlink:href="#m61dadf3fa6" y="106.046836"/>
     <use style="fill:#0000ff;stroke:#0000ff;" x="375.161543" xlink:href="#m61dadf3fa6" y="94.614565"/>
     <use style="fill:#0000ff;stroke:#0000ff;" x="365.975228" xlink:href="#m61dadf3fa6" y="89.783442"/>
     <use style="fill:#0000ff;stroke:#0000ff;" x="321.668867" xlink:href="#m61dadf3fa6" y="75.452611"/>
     <use style="fill:#0000ff;stroke:#0000ff;" x="321.414586" xlink:href="#m61dadf3fa6" y="74.306302"/>
     <use style="fill:#0000ff;stroke:#0000ff;" x="270.670785" xlink:href="#m61dadf3fa6" y="69.333387"/>
     <use style="fill:#0000ff;stroke:#0000ff;" x="269.197888" xlink:href="#m61dadf3fa6" y="66.839283"/>
     <use style="fill:#0000ff;stroke:#0000ff;" x="364.188287" xlink:href="#m61dadf3fa6" y="89.48213"/>
     <use style="fill:#0000ff;stroke:#0000ff;" x="319.447533" xlink:href="#m61dadf3fa6" y="72.492581"/>
     <use style="fill:#0000ff;stroke:#0000ff;" x="268.223263" xlink:href="#m61dadf3fa6" y="64.905236"/>
     <use style="fill:#0000ff;stroke:#0000ff;" x="376.057466" xlink:href="#m61dadf3fa6" y="95.381126"/>
     <use style="fill:#0000ff;stroke:#0000ff;" x="327.315204" xlink:href="#m61dadf3fa6" y="80.244286"/>
     <use style="fill:#0000ff;stroke:#0000ff;" x="381.056364" xlink:href="#m61dadf3fa6" y="100.026791"/>
     <use style="fill:#0000ff;stroke:#0000ff;" x="265.383864" xlink:href="#m61dadf3fa6" y="58.588308"/>
     <use style="fill:#0000ff;stroke:#0000ff;" x="271.532991" xlink:href="#m61dadf3fa6" y="71.807543"/>
     <use style="fill:#0000ff;stroke:#0000ff;" x="382.718523" xlink:href="#m61dadf3fa6" y="102.208079"/>
     <use style="fill:#0000ff;stroke:#0000ff;" x="270.639646" xlink:href="#m61dadf3fa6" y="68.743849"/>
     <use style="fill:#0000ff;stroke:#0000ff;" x="323.463693" xlink:href="#m61dadf3fa6" y="78.12294"/>
     <use style="fill:#0000ff;stroke:#0000ff;" x="270.705035" xlink:href="#m61dadf3fa6" y="70.525203"/>
     <use style="fill:#0000ff;stroke:#0000ff;" x="271.587252" xlink:href="#m61dadf3fa6" y="71.816883"/>
     <use style="fill:#0000ff;stroke:#0000ff;" x="378.270256" xlink:href="#m61dadf3fa6" y="95.430548"/>
     <use style="fill:#0000ff;stroke:#0000ff;" x="271.027553" xlink:href="#m61dadf3fa6" y="71.379896"/>
     <use style="fill:#0000ff;stroke:#0000ff;" x="269.873222" xlink:href="#m61dadf3fa6" y="68.70667"/>
     <use style="fill:#0000ff;stroke:#0000ff;" x="387.249231" xlink:href="#m61dadf3fa6" y="107.999557"/>
     <use style="fill:#0000ff;stroke:#0000ff;" x="376.156761" xlink:href="#m61dadf3fa6" y="96.25799"/>
     <use style="fill:#0000ff;stroke:#0000ff;" x="268.531988" xlink:href="#m61dadf3fa6" y="66.377654"/>
     <use style="fill:#0000ff;stroke:#0000ff;" x="266.601942" xlink:href="#m61dadf3fa6" y="64.266638"/>
     <use style="fill:#0000ff;stroke:#0000ff;" x="268.356119" xlink:href="#m61dadf3fa6" y="66.362883"/>
     <use style="fill:#0000ff;stroke:#0000ff;" x="381.28139" xlink:href="#m61dadf3fa6" y="100.898809"/>
     <use style="fill:#0000ff;stroke:#0000ff;" x="381.583959" xlink:href="#m61dadf3fa6" y="100.963463"/>
     <use style="fill:#0000ff;stroke:#0000ff;" x="385.995362" xlink:href="#m61dadf3fa6" y="105.886142"/>
     <use style="fill:#0000ff;stroke:#0000ff;" x="325.040951" xlink:href="#m61dadf3fa6" y="79.074076"/>
     <use style="fill:#0000ff;stroke:#0000ff;" x="372.10491" xlink:href="#m61dadf3fa6" y="93.552079"/>
     <use style="fill:#0000ff;stroke:#0000ff;" x="323.222038" xlink:href="#m61dadf3fa6" y="78.788986"/>
     <use style="fill:#0000ff;stroke:#0000ff;" x="370.563082" xlink:href="#m61dadf3fa6" y="93.319059"/>
     <use style="fill:#0000ff;stroke:#0000ff;" x="385.400628" xlink:href="#m61dadf3fa6" y="105.783953"/>
     <use style="fill:#0000ff;stroke:#0000ff;" x="323.056135" xlink:href="#m61dadf3fa6" y="78.648667"/>
     <use style="fill:#0000ff;stroke:#0000ff;" x="381.13349" xlink:href="#m61dadf3fa6" y="100.843913"/>
     <use style="fill:#0000ff;stroke:#0000ff;" x="385.406044" xlink:href="#m61dadf3fa6" y="105.793896"/>
     <use style="fill:#0000ff;stroke:#0000ff;" x="323.021937" xlink:href="#m61dadf3fa6" y="76.512887"/>
     <use style="fill:#0000ff;stroke:#0000ff;" x="382.762162" xlink:href="#m61dadf3fa6" y="102.897405"/>
     <use style="fill:#0000ff;stroke:#0000ff;" x="383.047767" xlink:href="#m61dadf3fa6" y="103.357419"/>
     <use style="fill:#0000ff;stroke:#0000ff;" x="269.675822" xlink:href="#m61dadf3fa6" y="68.54376"/>
     <use style="fill:#0000ff;stroke:#0000ff;" x="369.234296" xlink:href="#m61dadf3fa6" y="93.058254"/>
     <use style="fill:#0000ff;stroke:#0000ff;" x="378.075042" xlink:href="#m61dadf3fa6" y="98.422543"/>
     <use style="fill:#0000ff;stroke:#0000ff;" x="384.815664" xlink:href="#m61dadf3fa6" y="103.554806"/>
     <use style="fill:#0000ff;stroke:#0000ff;" x="269.373448" xlink:href="#m61dadf3fa6" y="68.020416"/>
     <use style="fill:#0000ff;stroke:#0000ff;" x="330.511565" xlink:href="#m61dadf3fa6" y="86.115518"/>
     <use style="fill:#0000ff;stroke:#0000ff;" x="269.213876" xlink:href="#m61dadf3fa6" y="67.570112"/>
     <use style="fill:#0000ff;stroke:#0000ff;" x="380.310522" xlink:href="#m61dadf3fa6" y="100.697415"/>
     <use style="fill:#0000ff;stroke:#0000ff;" x="378.420023" xlink:href="#m61dadf3fa6" y="98.722813"/>
     <use style="fill:#0000ff;stroke:#0000ff;" x="368.419664" xlink:href="#m61dadf3fa6" y="90.612621"/>
    </g>
   </g>
   <g id="matplotlib.axis_1">
    <g id="xtick_1">
     <g id="line2d_1">
      <defs>
       <path d="M 0 0 
L 0 3.5 
" id="mdc6010b202" style="stroke:#000000;stroke-width:0.8;"/>
      </defs>
      <g>
       <use style="stroke:#000000;stroke-width:0.8;" x="57.6" xlink:href="#mdc6010b202" y="307.584"/>
      </g>
     </g>
     <g id="text_1">
      <!-- −1.2 -->
      <defs>
       <path d="M 10.59375 35.5 
L 73.1875 35.5 
L 73.1875 27.203125 
L 10.59375 27.203125 
z
" id="DejaVuSans-2212"/>
       <path d="M 12.40625 8.296875 
L 28.515625 8.296875 
L 28.515625 63.921875 
L 10.984375 60.40625 
L 10.984375 69.390625 
L 28.421875 72.90625 
L 38.28125 72.90625 
L 38.28125 8.296875 
L 54.390625 8.296875 
L 54.390625 0 
L 12.40625 0 
z
" id="DejaVuSans-31"/>
       <path d="M 10.6875 12.40625 
L 21 12.40625 
L 21 0 
L 10.6875 0 
z
" id="DejaVuSans-2e"/>
       <path d="M 19.1875 8.296875 
L 53.609375 8.296875 
L 53.609375 0 
L 7.328125 0 
L 7.328125 8.296875 
Q 12.9375 14.109375 22.625 23.890625 
Q 32.328125 33.6875 34.8125 36.53125 
Q 39.546875 41.84375 41.421875 45.53125 
Q 43.3125 49.21875 43.3125 52.78125 
Q 43.3125 58.59375 39.234375 62.25 
Q 35.15625 65.921875 28.609375 65.921875 
Q 23.96875 65.921875 18.8125 64.3125 
Q 13.671875 62.703125 7.8125 59.421875 
L 7.8125 69.390625 
Q 13.765625 71.78125 18.9375 73 
Q 24.125 74.21875 28.421875 74.21875 
Q 39.75 74.21875 46.484375 68.546875 
Q 53.21875 62.890625 53.21875 53.421875 
Q 53.21875 48.921875 51.53125 44.890625 
Q 49.859375 40.875 45.40625 35.40625 
Q 44.1875 33.984375 37.640625 27.21875 
Q 31.109375 20.453125 19.1875 8.296875 
z
" id="DejaVuSans-32"/>
      </defs>
      <g transform="translate(45.458594 322.182437)scale(0.1 -0.1)">
       <use xlink:href="#DejaVuSans-2212"/>
       <use x="83.789062" xlink:href="#DejaVuSans-31"/>
       <use x="147.412109" xlink:href="#DejaVuSans-2e"/>
       <use x="179.199219" xlink:href="#DejaVuSans-32"/>
      </g>
     </g>
    </g>
    <g id="xtick_2">
     <g id="line2d_2">
      <g>
       <use style="stroke:#000000;stroke-width:0.8;" x="112.541538" xlink:href="#mdc6010b202" y="307.584"/>
      </g>
     </g>
     <g id="text_2">
      <!-- −1.0 -->
      <defs>
       <path d="M 31.78125 66.40625 
Q 24.171875 66.40625 20.328125 58.90625 
Q 16.5 51.421875 16.5 36.375 
Q 16.5 21.390625 20.328125 13.890625 
Q 24.171875 6.390625 31.78125 6.390625 
Q 39.453125 6.390625 43.28125 13.890625 
Q 47.125 21.390625 47.125 36.375 
Q 47.125 51.421875 43.28125 58.90625 
Q 39.453125 66.40625 31.78125 66.40625 
z
M 31.78125 74.21875 
Q 44.046875 74.21875 50.515625 64.515625 
Q 56.984375 54.828125 56.984375 36.375 
Q 56.984375 17.96875 50.515625 8.265625 
Q 44.046875 -1.421875 31.78125 -1.421875 
Q 19.53125 -1.421875 13.0625 8.265625 
Q 6.59375 17.96875 6.59375 36.375 
Q 6.59375 54.828125 13.0625 64.515625 
Q 19.53125 74.21875 31.78125 74.21875 
z
" id="DejaVuSans-30"/>
      </defs>
      <g transform="translate(100.400132 322.182437)scale(0.1 -0.1)">
       <use xlink:href="#DejaVuSans-2212"/>
       <use x="83.789062" xlink:href="#DejaVuSans-31"/>
       <use x="147.412109" xlink:href="#DejaVuSans-2e"/>
       <use x="179.199219" xlink:href="#DejaVuSans-30"/>
      </g>
     </g>
    </g>
    <g id="xtick_3">
     <g id="line2d_3">
      <g>
       <use style="stroke:#000000;stroke-width:0.8;" x="167.483077" xlink:href="#mdc6010b202" y="307.584"/>
      </g>
     </g>
     <g id="text_3">
      <!-- −0.8 -->
      <defs>
       <path d="M 31.78125 34.625 
Q 24.75 34.625 20.71875 30.859375 
Q 16.703125 27.09375 16.703125 20.515625 
Q 16.703125 13.921875 20.71875 10.15625 
Q 24.75 6.390625 31.78125 6.390625 
Q 38.8125 6.390625 42.859375 10.171875 
Q 46.921875 13.96875 46.921875 20.515625 
Q 46.921875 27.09375 42.890625 30.859375 
Q 38.875 34.625 31.78125 34.625 
z
M 21.921875 38.8125 
Q 15.578125 40.375 12.03125 44.71875 
Q 8.5 49.078125 8.5 55.328125 
Q 8.5 64.0625 14.71875 69.140625 
Q 20.953125 74.21875 31.78125 74.21875 
Q 42.671875 74.21875 48.875 69.140625 
Q 55.078125 64.0625 55.078125 55.328125 
Q 55.078125 49.078125 51.53125 44.71875 
Q 48 40.375 41.703125 38.8125 
Q 48.828125 37.15625 52.796875 32.3125 
Q 56.78125 27.484375 56.78125 20.515625 
Q 56.78125 9.90625 50.3125 4.234375 
Q 43.84375 -1.421875 31.78125 -1.421875 
Q 19.734375 -1.421875 13.25 4.234375 
Q 6.78125 9.90625 6.78125 20.515625 
Q 6.78125 27.484375 10.78125 32.3125 
Q 14.796875 37.15625 21.921875 38.8125 
z
M 18.3125 54.390625 
Q 18.3125 48.734375 21.84375 45.5625 
Q 25.390625 42.390625 31.78125 42.390625 
Q 38.140625 42.390625 41.71875 45.5625 
Q 45.3125 48.734375 45.3125 54.390625 
Q 45.3125 60.0625 41.71875 63.234375 
Q 38.140625 66.40625 31.78125 66.40625 
Q 25.390625 66.40625 21.84375 63.234375 
Q 18.3125 60.0625 18.3125 54.390625 
z
" id="DejaVuSans-38"/>
      </defs>
      <g transform="translate(155.341671 322.182437)scale(0.1 -0.1)">
       <use xlink:href="#DejaVuSans-2212"/>
       <use x="83.789062" xlink:href="#DejaVuSans-30"/>
       <use x="147.412109" xlink:href="#DejaVuSans-2e"/>
       <use x="179.199219" xlink:href="#DejaVuSans-38"/>
      </g>
     </g>
    </g>
    <g id="xtick_4">
     <g id="line2d_4">
      <g>
       <use style="stroke:#000000;stroke-width:0.8;" x="222.424615" xlink:href="#mdc6010b202" y="307.584"/>
      </g>
     </g>
     <g id="text_4">
      <!-- −0.6 -->
      <defs>
       <path d="M 33.015625 40.375 
Q 26.375 40.375 22.484375 35.828125 
Q 18.609375 31.296875 18.609375 23.390625 
Q 18.609375 15.53125 22.484375 10.953125 
Q 26.375 6.390625 33.015625 6.390625 
Q 39.65625 6.390625 43.53125 10.953125 
Q 47.40625 15.53125 47.40625 23.390625 
Q 47.40625 31.296875 43.53125 35.828125 
Q 39.65625 40.375 33.015625 40.375 
z
M 52.59375 71.296875 
L 52.59375 62.3125 
Q 48.875 64.0625 45.09375 64.984375 
Q 41.3125 65.921875 37.59375 65.921875 
Q 27.828125 65.921875 22.671875 59.328125 
Q 17.53125 52.734375 16.796875 39.40625 
Q 19.671875 43.65625 24.015625 45.921875 
Q 28.375 48.1875 33.59375 48.1875 
Q 44.578125 48.1875 50.953125 41.515625 
Q 57.328125 34.859375 57.328125 23.390625 
Q 57.328125 12.15625 50.6875 5.359375 
Q 44.046875 -1.421875 33.015625 -1.421875 
Q 20.359375 -1.421875 13.671875 8.265625 
Q 6.984375 17.96875 6.984375 36.375 
Q 6.984375 53.65625 15.1875 63.9375 
Q 23.390625 74.21875 37.203125 74.21875 
Q 40.921875 74.21875 44.703125 73.484375 
Q 48.484375 72.75 52.59375 71.296875 
z
" id="DejaVuSans-36"/>
      </defs>
      <g transform="translate(210.283209 322.182437)scale(0.1 -0.1)">
       <use xlink:href="#DejaVuSans-2212"/>
       <use x="83.789062" xlink:href="#DejaVuSans-30"/>
       <use x="147.412109" xlink:href="#DejaVuSans-2e"/>
       <use x="179.199219" xlink:href="#DejaVuSans-36"/>
      </g>
     </g>
    </g>
    <g id="xtick_5">
     <g id="line2d_5">
      <g>
       <use style="stroke:#000000;stroke-width:0.8;" x="277.366154" xlink:href="#mdc6010b202" y="307.584"/>
      </g>
     </g>
     <g id="text_5">
      <!-- −0.4 -->
      <defs>
       <path d="M 37.796875 64.3125 
L 12.890625 25.390625 
L 37.796875 25.390625 
z
M 35.203125 72.90625 
L 47.609375 72.90625 
L 47.609375 25.390625 
L 58.015625 25.390625 
L 58.015625 17.1875 
L 47.609375 17.1875 
L 47.609375 0 
L 37.796875 0 
L 37.796875 17.1875 
L 4.890625 17.1875 
L 4.890625 26.703125 
z
" id="DejaVuSans-34"/>
      </defs>
      <g transform="translate(265.224748 322.182437)scale(0.1 -0.1)">
       <use xlink:href="#DejaVuSans-2212"/>
       <use x="83.789062" xlink:href="#DejaVuSans-30"/>
       <use x="147.412109" xlink:href="#DejaVuSans-2e"/>
       <use x="179.199219" xlink:href="#DejaVuSans-34"/>
      </g>
     </g>
    </g>
    <g id="xtick_6">
     <g id="line2d_6">
      <g>
       <use style="stroke:#000000;stroke-width:0.8;" x="332.307692" xlink:href="#mdc6010b202" y="307.584"/>
      </g>
     </g>
     <g id="text_6">
      <!-- −0.2 -->
      <g transform="translate(320.166286 322.182437)scale(0.1 -0.1)">
       <use xlink:href="#DejaVuSans-2212"/>
       <use x="83.789062" xlink:href="#DejaVuSans-30"/>
       <use x="147.412109" xlink:href="#DejaVuSans-2e"/>
       <use x="179.199219" xlink:href="#DejaVuSans-32"/>
      </g>
     </g>
    </g>
    <g id="xtick_7">
     <g id="line2d_7">
      <g>
       <use style="stroke:#000000;stroke-width:0.8;" x="387.249231" xlink:href="#mdc6010b202" y="307.584"/>
      </g>
     </g>
     <g id="text_7">
      <!-- 0.0 -->
      <g transform="translate(379.297668 322.182437)scale(0.1 -0.1)">
       <use xlink:href="#DejaVuSans-30"/>
       <use x="63.623047" xlink:href="#DejaVuSans-2e"/>
       <use x="95.410156" xlink:href="#DejaVuSans-30"/>
      </g>
     </g>
    </g>
   </g>
   <g id="matplotlib.axis_2">
    <g id="ytick_1">
     <g id="line2d_8">
      <defs>
       <path d="M 0 0 
L -3.5 0 
" id="m1363fc3e5d" style="stroke:#000000;stroke-width:0.8;"/>
      </defs>
      <g>
       <use style="stroke:#000000;stroke-width:0.8;" x="57.6" xlink:href="#m1363fc3e5d" y="307.584"/>
      </g>
     </g>
     <g id="text_8">
      <!-- −5 -->
      <defs>
       <path d="M 10.796875 72.90625 
L 49.515625 72.90625 
L 49.515625 64.59375 
L 19.828125 64.59375 
L 19.828125 46.734375 
Q 21.96875 47.46875 24.109375 47.828125 
Q 26.265625 48.1875 28.421875 48.1875 
Q 40.625 48.1875 47.75 41.5 
Q 54.890625 34.8125 54.890625 23.390625 
Q 54.890625 11.625 47.5625 5.09375 
Q 40.234375 -1.421875 26.90625 -1.421875 
Q 22.3125 -1.421875 17.546875 -0.640625 
Q 12.796875 0.140625 7.71875 1.703125 
L 7.71875 11.625 
Q 12.109375 9.234375 16.796875 8.0625 
Q 21.484375 6.890625 26.703125 6.890625 
Q 35.15625 6.890625 40.078125 11.328125 
Q 45.015625 15.765625 45.015625 23.390625 
Q 45.015625 31 40.078125 35.4375 
Q 35.15625 39.890625 26.703125 39.890625 
Q 22.75 39.890625 18.8125 39.015625 
Q 14.890625 38.140625 10.796875 36.28125 
z
" id="DejaVuSans-35"/>
      </defs>
      <g transform="translate(35.857813 311.383219)scale(0.1 -0.1)">
       <use xlink:href="#DejaVuSans-2212"/>
       <use x="83.789062" xlink:href="#DejaVuSans-35"/>
      </g>
     </g>
    </g>
    <g id="ytick_2">
     <g id="line2d_9">
      <g>
       <use style="stroke:#000000;stroke-width:0.8;" x="57.6" xlink:href="#m1363fc3e5d" y="254.3616"/>
      </g>
     </g>
     <g id="text_9">
      <!-- −4 -->
      <g transform="translate(35.857813 258.160819)scale(0.1 -0.1)">
       <use xlink:href="#DejaVuSans-2212"/>
       <use x="83.789062" xlink:href="#DejaVuSans-34"/>
      </g>
     </g>
    </g>
    <g id="ytick_3">
     <g id="line2d_10">
      <g>
       <use style="stroke:#000000;stroke-width:0.8;" x="57.6" xlink:href="#m1363fc3e5d" y="201.1392"/>
      </g>
     </g>
     <g id="text_10">
      <!-- −3 -->
      <defs>
       <path d="M 40.578125 39.3125 
Q 47.65625 37.796875 51.625 33 
Q 55.609375 28.21875 55.609375 21.1875 
Q 55.609375 10.40625 48.1875 4.484375 
Q 40.765625 -1.421875 27.09375 -1.421875 
Q 22.515625 -1.421875 17.65625 -0.515625 
Q 12.796875 0.390625 7.625 2.203125 
L 7.625 11.71875 
Q 11.71875 9.328125 16.59375 8.109375 
Q 21.484375 6.890625 26.8125 6.890625 
Q 36.078125 6.890625 40.9375 10.546875 
Q 45.796875 14.203125 45.796875 21.1875 
Q 45.796875 27.640625 41.28125 31.265625 
Q 36.765625 34.90625 28.71875 34.90625 
L 20.21875 34.90625 
L 20.21875 43.015625 
L 29.109375 43.015625 
Q 36.375 43.015625 40.234375 45.921875 
Q 44.09375 48.828125 44.09375 54.296875 
Q 44.09375 59.90625 40.109375 62.90625 
Q 36.140625 65.921875 28.71875 65.921875 
Q 24.65625 65.921875 20.015625 65.03125 
Q 15.375 64.15625 9.8125 62.3125 
L 9.8125 71.09375 
Q 15.4375 72.65625 20.34375 73.4375 
Q 25.25 74.21875 29.59375 74.21875 
Q 40.828125 74.21875 47.359375 69.109375 
Q 53.90625 64.015625 53.90625 55.328125 
Q 53.90625 49.265625 50.4375 45.09375 
Q 46.96875 40.921875 40.578125 39.3125 
z
" id="DejaVuSans-33"/>
      </defs>
      <g transform="translate(35.857813 204.938419)scale(0.1 -0.1)">
       <use xlink:href="#DejaVuSans-2212"/>
       <use x="83.789062" xlink:href="#DejaVuSans-33"/>
      </g>
     </g>
    </g>
    <g id="ytick_4">
     <g id="line2d_11">
      <g>
       <use style="stroke:#000000;stroke-width:0.8;" x="57.6" xlink:href="#m1363fc3e5d" y="147.9168"/>
      </g>
     </g>
     <g id="text_11">
      <!-- −2 -->
      <g transform="translate(35.857813 151.716019)scale(0.1 -0.1)">
       <use xlink:href="#DejaVuSans-2212"/>
       <use x="83.789062" xlink:href="#DejaVuSans-32"/>
      </g>
     </g>
    </g>
    <g id="ytick_5">
     <g id="line2d_12">
      <g>
       <use style="stroke:#000000;stroke-width:0.8;" x="57.6" xlink:href="#m1363fc3e5d" y="94.6944"/>
      </g>
     </g>
     <g id="text_12">
      <!-- −1 -->
      <g transform="translate(35.857813 98.493619)scale(0.1 -0.1)">
       <use xlink:href="#DejaVuSans-2212"/>
       <use x="83.789062" xlink:href="#DejaVuSans-31"/>
      </g>
     </g>
    </g>
    <g id="ytick_6">
     <g id="line2d_13">
      <g>
       <use style="stroke:#000000;stroke-width:0.8;" x="57.6" xlink:href="#m1363fc3e5d" y="41.472"/>
      </g>
     </g>
     <g id="text_13">
      <!-- 0 -->
      <g transform="translate(44.2375 45.271219)scale(0.1 -0.1)">
       <use xlink:href="#DejaVuSans-30"/>
      </g>
     </g>
    </g>
   </g>
   <g id="patch_3">
    <path d="M 57.6 307.584 
L 57.6 41.472 
" style="fill:none;stroke:#000000;stroke-linecap:square;stroke-linejoin:miter;stroke-width:0.8;"/>
   </g>
   <g id="patch_4">
    <path d="M 414.72 307.584 
L 414.72 41.472 
" style="fill:none;stroke:#000000;stroke-linecap:square;stroke-linejoin:miter;stroke-width:0.8;"/>
   </g>
   <g id="patch_5">
    <path d="M 57.6 307.584 
L 414.72 307.584 
" style="fill:none;stroke:#000000;stroke-linecap:square;stroke-linejoin:miter;stroke-width:0.8;"/>
   </g>
   <g id="patch_6">
    <path d="M 57.6 41.472 
L 414.72 41.472 
" style="fill:none;stroke:#000000;stroke-linecap:square;stroke-linejoin:miter;stroke-width:0.8;"/>
   </g>
  </g>
 </g>
 <defs>
  <clipPath id="pab2cd513cb">
   <rect height="266.112" width="357.12" x="57.6" y="41.472"/>
  </clipPath>
 </defs>
</svg>
