<?xml version="1.0" encoding="utf-8" standalone="no"?>
<!DOCTYPE svg PUBLIC "-//W3C//DTD SVG 1.1//EN"
  "http://www.w3.org/Graphics/SVG/1.1/DTD/svg11.dtd">
<!-- Created with matplotlib (http://matplotlib.org/) -->
<svg height="345.6pt" version="1.1" viewBox="0 0 460.8 345.6" width="460.8pt" xmlns="http://www.w3.org/2000/svg" xmlns:xlink="http://www.w3.org/1999/xlink">
 <defs>
  <style type="text/css">
*{stroke-linecap:butt;stroke-linejoin:round;}
  </style>
 </defs>
 <g id="figure_1">
  <g id="patch_1">
   <path d="M 0 345.6 
L 460.8 345.6 
L 460.8 0 
L 0 0 
z
" style="fill:#ffffff;"/>
  </g>
  <g id="axes_1">
   <g id="patch_2">
    <path d="M 57.6 307.584 
L 414.72 307.584 
L 414.72 41.472 
L 57.6 41.472 
z
" style="fill:#ffffff;"/>
   </g>
   <g id="PathCollection_1">
    <defs>
     <path d="M 0 0.612372 
C 0.162403 0.612372 0.318176 0.547849 0.433013 0.433013 
C 0.547849 0.318176 0.612372 0.162403 0.612372 0 
C 0.612372 -0.162403 0.547849 -0.318176 0.433013 -0.433013 
C 0.318176 -0.547849 0.162403 -0.612372 0 -0.612372 
C -0.162403 -0.612372 -0.318176 -0.547849 -0.433013 -0.433013 
C -0.547849 -0.318176 -0.612372 -0.162403 -0.612372 0 
C -0.612372 0.162403 -0.547849 0.318176 -0.433013 0.433013 
C -0.318176 0.547849 -0.162403 0.612372 0 0.612372 
z
" id="m676de753c4" style="stroke:#000000;"/>
    </defs>
    <g clip-path="url(#p70ed4252a4)">
     <use style="stroke:#000000;" x="88.96425" xlink:href="#m676de753c4" y="110.334804"/>
     <use style="stroke:#000000;" x="344.512372" xlink:href="#m676de753c4" y="226.998231"/>
     <use style="stroke:#000000;" x="160.635726" xlink:href="#m676de753c4" y="157.512047"/>
     <use style="stroke:#000000;" x="82.661055" xlink:href="#m676de753c4" y="92.777653"/>
     <use style="stroke:#000000;" x="81.491444" xlink:href="#m676de753c4" y="83.013237"/>
     <use style="stroke:#000000;" x="87.26127" xlink:href="#m676de753c4" y="106.95539"/>
     <use style="stroke:#000000;" x="166.19692" xlink:href="#m676de753c4" y="159.075142"/>
     <use style="stroke:#000000;" x="81.471068" xlink:href="#m676de753c4" y="82.556522"/>
     <use style="stroke:#000000;" x="84.839215" xlink:href="#m676de753c4" y="100.937404"/>
     <use style="stroke:#000000;" x="93.368703" xlink:href="#m676de753c4" y="117.317653"/>
     <use style="stroke:#000000;" x="89.67484" xlink:href="#m676de753c4" y="111.607618"/>
     <use style="stroke:#000000;" x="84.395647" xlink:href="#m676de753c4" y="99.588485"/>
     <use style="stroke:#000000;" x="112.322489" xlink:href="#m676de753c4" y="136.451346"/>
     <use style="stroke:#000000;" x="81.534443" xlink:href="#m676de753c4" y="83.818006"/>
     <use style="stroke:#000000;" x="88.33557" xlink:href="#m676de753c4" y="109.146473"/>
     <use style="stroke:#000000;" x="138.949725" xlink:href="#m676de753c4" y="149.964939"/>
     <use style="stroke:#000000;" x="81.514205" xlink:href="#m676de753c4" y="83.460243"/>
     <use style="stroke:#000000;" x="81.739026" xlink:href="#m676de753c4" y="86.44357"/>
     <use style="stroke:#000000;" x="117.842526" xlink:href="#m676de753c4" y="139.302228"/>
     <use style="stroke:#000000;" x="123.81792" xlink:href="#m676de753c4" y="142.783043"/>
     <use style="stroke:#000000;" x="166.923775" xlink:href="#m676de753c4" y="159.270158"/>
     <use style="stroke:#000000;" x="82.994512" xlink:href="#m676de753c4" y="94.371279"/>
     <use style="stroke:#000000;" x="124.32745" xlink:href="#m676de753c4" y="143.06013"/>
     <use style="stroke:#000000;" x="82.449422" xlink:href="#m676de753c4" y="91.643809"/>
     <use style="stroke:#000000;" x="119.025821" xlink:href="#m676de753c4" y="140.0277"/>
     <use style="stroke:#000000;" x="83.914656" xlink:href="#m676de753c4" y="97.991299"/>
     <use style="stroke:#000000;" x="81.53037" xlink:href="#m676de753c4" y="83.748514"/>
     <use style="stroke:#000000;" x="165.380625" xlink:href="#m676de753c4" y="158.853644"/>
     <use style="stroke:#000000;" x="81.453018" xlink:href="#m676de753c4" y="82.083817"/>
     <use style="stroke:#000000;" x="390.046628" xlink:href="#m676de753c4" y="249.839928"/>
     <use style="stroke:#000000;" x="85.628188" xlink:href="#m676de753c4" y="103.11034"/>
     <use style="stroke:#000000;" x="88.212084" xlink:href="#m676de753c4" y="108.905484"/>
     <use style="stroke:#000000;" x="86.994747" xlink:href="#m676de753c4" y="106.375332"/>
     <use style="stroke:#000000;" x="81.408" xlink:href="#m676de753c4" y="79.488"/>
     <use style="stroke:#000000;" x="158.287228" xlink:href="#m676de753c4" y="156.812165"/>
     <use style="stroke:#000000;" x="121.798408" xlink:href="#m676de753c4" y="141.655815"/>
     <use style="stroke:#000000;" x="167.266941" xlink:href="#m676de753c4" y="164.035033"/>
     <use style="stroke:#000000;" x="81.408193" xlink:href="#m676de753c4" y="79.658907"/>
     <use style="stroke:#000000;" x="167.125035" xlink:href="#m676de753c4" y="160.436242"/>
     <use style="stroke:#000000;" x="81.432042" xlink:href="#m676de753c4" y="81.388521"/>
     <use style="stroke:#000000;" x="82.814727" xlink:href="#m676de753c4" y="93.537442"/>
     <use style="stroke:#000000;" x="81.469643" xlink:href="#m676de753c4" y="82.521954"/>
     <use style="stroke:#000000;" x="82.566742" xlink:href="#m676de753c4" y="92.286195"/>
     <use style="stroke:#000000;" x="165.614823" xlink:href="#m676de753c4" y="158.917464"/>
     <use style="stroke:#000000;" x="385.500738" xlink:href="#m676de753c4" y="248.265715"/>
     <use style="stroke:#000000;" x="93.559257" xlink:href="#m676de753c4" y="117.579622"/>
     <use style="stroke:#000000;" x="83.148974" xlink:href="#m676de753c4" y="95.04742"/>
     <use style="stroke:#000000;" x="167.1168" xlink:href="#m676de753c4" y="159.3216"/>
     <use style="stroke:#000000;" x="84.383281" xlink:href="#m676de753c4" y="99.549309"/>
     <use style="stroke:#000000;" x="118.737586" xlink:href="#m676de753c4" y="139.852741"/>
     <use style="stroke:#000000;" x="81.416225" xlink:href="#m676de753c4" y="80.601942"/>
     <use style="stroke:#000000;" x="84.258648" xlink:href="#m676de753c4" y="99.149245"/>
     <use style="stroke:#000000;" x="160.807051" xlink:href="#m676de753c4" y="157.562148"/>
     <use style="stroke:#000000;" x="84.538967" xlink:href="#m676de753c4" y="100.036015"/>
     <use style="stroke:#000000;" x="138.919037" xlink:href="#m676de753c4" y="149.952268"/>
     <use style="stroke:#000000;" x="82.465987" xlink:href="#m676de753c4" y="91.736783"/>
     <use style="stroke:#000000;" x="84.459922" xlink:href="#m676de753c4" y="99.790655"/>
     <use style="stroke:#000000;" x="132.778062" xlink:href="#m676de753c4" y="147.275163"/>
     <use style="stroke:#000000;" x="158.356802" xlink:href="#m676de753c4" y="156.833255"/>
     <use style="stroke:#000000;" x="167.1168" xlink:href="#m676de753c4" y="159.3216"/>
     <use style="stroke:#000000;" x="81.409513" xlink:href="#m676de753c4" y="79.966557"/>
     <use style="stroke:#000000;" x="83.853417" xlink:href="#m676de753c4" y="97.776024"/>
     <use style="stroke:#000000;" x="85.702556" xlink:href="#m676de753c4" y="103.302659"/>
     <use style="stroke:#000000;" x="83.235351" xlink:href="#m676de753c4" y="95.411285"/>
     <use style="stroke:#000000;" x="94.868932" xlink:href="#m676de753c4" y="119.311786"/>
     <use style="stroke:#000000;" x="81.449941" xlink:href="#m676de753c4" y="81.994111"/>
     <use style="stroke:#000000;" x="81.408" xlink:href="#m676de753c4" y="79.488"/>
     <use style="stroke:#000000;" x="81.928639" xlink:href="#m676de753c4" y="88.168971"/>
     <use style="stroke:#000000;" x="81.898103" xlink:href="#m676de753c4" y="87.916553"/>
     <use style="stroke:#000000;" x="163.192521" xlink:href="#m676de753c4" y="158.246645"/>
     <use style="stroke:#000000;" x="81.588965" xlink:href="#m676de753c4" y="84.656253"/>
     <use style="stroke:#000000;" x="84.03457" xlink:href="#m676de753c4" y="98.404497"/>
     <use style="stroke:#000000;" x="405.1968" xlink:href="#m676de753c4" y="254.3616"/>
     <use style="stroke:#000000;" x="125.297732" xlink:href="#m676de753c4" y="143.579955"/>
     <use style="stroke:#000000;" x="134.666401" xlink:href="#m676de753c4" y="148.129522"/>
     <use style="stroke:#000000;" x="107.155277" xlink:href="#m676de753c4" y="131.718575"/>
     <use style="stroke:#000000;" x="153.71062" xlink:href="#m676de753c4" y="155.974189"/>
     <use style="stroke:#000000;" x="95.434589" xlink:href="#m676de753c4" y="120.025851"/>
     <use style="stroke:#000000;" x="90.979396" xlink:href="#m676de753c4" y="113.779237"/>
     <use style="stroke:#000000;" x="81.408" xlink:href="#m676de753c4" y="79.488"/>
     <use style="stroke:#000000;" x="90.844761" xlink:href="#m676de753c4" y="128.127698"/>
     <use style="stroke:#000000;" x="344.588174" xlink:href="#m676de753c4" y="226.226384"/>
     <use style="stroke:#000000;" x="346.334401" xlink:href="#m676de753c4" y="227.640084"/>
     <use style="stroke:#000000;" x="344.573247" xlink:href="#m676de753c4" y="226.213988"/>
     <use style="stroke:#000000;" x="339.636039" xlink:href="#m676de753c4" y="227.172959"/>
     <use style="stroke:#000000;" x="160.393018" xlink:href="#m676de753c4" y="158.443141"/>
     <use style="stroke:#000000;" x="161.323714" xlink:href="#m676de753c4" y="157.712465"/>
     <use style="stroke:#000000;" x="157.766356" xlink:href="#m676de753c4" y="158.484898"/>
     <use style="stroke:#000000;" x="83.292095" xlink:href="#m676de753c4" y="95.645211"/>
     <use style="stroke:#000000;" x="82.926581" xlink:href="#m676de753c4" y="94.272819"/>
     <use style="stroke:#000000;" x="82.361593" xlink:href="#m676de753c4" y="92.683453"/>
     <use style="stroke:#000000;" x="81.44961" xlink:href="#m676de753c4" y="82.845424"/>
     <use style="stroke:#000000;" x="81.41291" xlink:href="#m676de753c4" y="80.34929"/>
     <use style="stroke:#000000;" x="81.90115" xlink:href="#m676de753c4" y="87.942104"/>
     <use style="stroke:#000000;" x="87.097466" xlink:href="#m676de753c4" y="106.600789"/>
     <use style="stroke:#000000;" x="87.023891" xlink:href="#m676de753c4" y="108.109834"/>
     <use style="stroke:#000000;" x="88.630444" xlink:href="#m676de753c4" y="110.266628"/>
     <use style="stroke:#000000;" x="167.457773" xlink:href="#m676de753c4" y="166.378897"/>
     <use style="stroke:#000000;" x="81.444866" xlink:href="#m676de753c4" y="81.838579"/>
     <use style="stroke:#000000;" x="81.450382" xlink:href="#m676de753c4" y="82.007189"/>
     <use style="stroke:#000000;" x="81.513055" xlink:href="#m676de753c4" y="84.418445"/>
     <use style="stroke:#000000;" x="84.951295" xlink:href="#m676de753c4" y="101.262358"/>
     <use style="stroke:#000000;" x="85.266046" xlink:href="#m676de753c4" y="102.144733"/>
     <use style="stroke:#000000;" x="85.903486" xlink:href="#m676de753c4" y="103.812836"/>
     <use style="stroke:#000000;" x="94.038669" xlink:href="#m676de753c4" y="118.803345"/>
     <use style="stroke:#000000;" x="94.149933" xlink:href="#m676de753c4" y="118.375163"/>
     <use style="stroke:#000000;" x="92.379408" xlink:href="#m676de753c4" y="116.496567"/>
     <use style="stroke:#000000;" x="88.281598" xlink:href="#m676de753c4" y="113.359158"/>
     <use style="stroke:#000000;" x="83.876323" xlink:href="#m676de753c4" y="97.917608"/>
     <use style="stroke:#000000;" x="85.351718" xlink:href="#m676de753c4" y="102.377717"/>
     <use style="stroke:#000000;" x="83.812416" xlink:href="#m676de753c4" y="97.630214"/>
     <use style="stroke:#000000;" x="112.316886" xlink:href="#m676de753c4" y="136.918692"/>
     <use style="stroke:#000000;" x="111.641038" xlink:href="#m676de753c4" y="136.981992"/>
     <use style="stroke:#000000;" x="111.729406" xlink:href="#m676de753c4" y="137.503969"/>
     <use style="stroke:#000000;" x="81.560271" xlink:href="#m676de753c4" y="84.234323"/>
     <use style="stroke:#000000;" x="81.544314" xlink:href="#m676de753c4" y="83.981848"/>
     <use style="stroke:#000000;" x="81.584407" xlink:href="#m676de753c4" y="86.525645"/>
     <use style="stroke:#000000;" x="89.086009" xlink:href="#m676de753c4" y="110.56688"/>
     <use style="stroke:#000000;" x="86.879174" xlink:href="#m676de753c4" y="106.118717"/>
     <use style="stroke:#000000;" x="89.647088" xlink:href="#m676de753c4" y="113.405589"/>
     <use style="stroke:#000000;" x="140.378201" xlink:href="#m676de753c4" y="150.663849"/>
     <use style="stroke:#000000;" x="136.229003" xlink:href="#m676de753c4" y="148.815069"/>
     <use style="stroke:#000000;" x="139.585321" xlink:href="#m676de753c4" y="155.944976"/>
     <use style="stroke:#000000;" x="81.579613" xlink:href="#m676de753c4" y="84.522774"/>
     <use style="stroke:#000000;" x="81.408041" xlink:href="#m676de753c4" y="79.567085"/>
     <use style="stroke:#000000;" x="81.497712" xlink:href="#m676de753c4" y="83.141971"/>
     <use style="stroke:#000000;" x="81.938267" xlink:href="#m676de753c4" y="91.291423"/>
     <use style="stroke:#000000;" x="81.874389" xlink:href="#m676de753c4" y="88.325375"/>
     <use style="stroke:#000000;" x="81.586946" xlink:href="#m676de753c4" y="84.62774"/>
     <use style="stroke:#000000;" x="118.571272" xlink:href="#m676de753c4" y="139.751279"/>
     <use style="stroke:#000000;" x="118.353521" xlink:href="#m676de753c4" y="141.246204"/>
     <use style="stroke:#000000;" x="117.193551" xlink:href="#m676de753c4" y="138.896078"/>
     <use style="stroke:#000000;" x="125.484825" xlink:href="#m676de753c4" y="144.94178"/>
     <use style="stroke:#000000;" x="122.683392" xlink:href="#m676de753c4" y="142.155599"/>
     <use style="stroke:#000000;" x="122.446993" xlink:href="#m676de753c4" y="142.273731"/>
     <use style="stroke:#000000;" x="167.1168" xlink:href="#m676de753c4" y="159.3216"/>
     <use style="stroke:#000000;" x="83.105559" xlink:href="#m676de753c4" y="94.860804"/>
     <use style="stroke:#000000;" x="83.697339" xlink:href="#m676de753c4" y="97.213427"/>
     <use style="stroke:#000000;" x="82.371338" xlink:href="#m676de753c4" y="91.194498"/>
     <use style="stroke:#000000;" x="121.865541" xlink:href="#m676de753c4" y="142.180662"/>
     <use style="stroke:#000000;" x="124.587852" xlink:href="#m676de753c4" y="143.200637"/>
     <use style="stroke:#000000;" x="124.830647" xlink:href="#m676de753c4" y="145.971908"/>
     <use style="stroke:#000000;" x="85.753895" xlink:href="#m676de753c4" y="105.342676"/>
     <use style="stroke:#000000;" x="120.956686" xlink:href="#m676de753c4" y="142.635548"/>
     <use style="stroke:#000000;" x="119.56642" xlink:href="#m676de753c4" y="141.343771"/>
     <use style="stroke:#000000;" x="119.487671" xlink:href="#m676de753c4" y="140.305738"/>
     <use style="stroke:#000000;" x="84.026161" xlink:href="#m676de753c4" y="98.828722"/>
     <use style="stroke:#000000;" x="84.490317" xlink:href="#m676de753c4" y="99.885422"/>
     <use style="stroke:#000000;" x="84.75234" xlink:href="#m676de753c4" y="100.681351"/>
     <use style="stroke:#000000;" x="81.502974" xlink:href="#m676de753c4" y="83.24654"/>
     <use style="stroke:#000000;" x="81.591273" xlink:href="#m676de753c4" y="84.838473"/>
     <use style="stroke:#000000;" x="81.41367" xlink:href="#m676de753c4" y="80.794637"/>
     <use style="stroke:#000000;" x="163.963105" xlink:href="#m676de753c4" y="158.462645"/>
     <use style="stroke:#000000;" x="167.117183" xlink:href="#m676de753c4" y="159.562649"/>
     <use style="stroke:#000000;" x="164.266276" xlink:href="#m676de753c4" y="159.282117"/>
     <use style="stroke:#000000;" x="81.40801" xlink:href="#m676de753c4" y="79.526114"/>
     <use style="stroke:#000000;" x="81.566664" xlink:href="#m676de753c4" y="84.813228"/>
     <use style="stroke:#000000;" x="81.568498" xlink:href="#m676de753c4" y="84.495935"/>
     <use style="stroke:#000000;" x="384.7386" xlink:href="#m676de753c4" y="250.170418"/>
     <use style="stroke:#000000;" x="392.359132" xlink:href="#m676de753c4" y="250.598834"/>
     <use style="stroke:#000000;" x="385.02705" xlink:href="#m676de753c4" y="249.856122"/>
     <use style="stroke:#000000;" x="85.712006" xlink:href="#m676de753c4" y="103.326959"/>
     <use style="stroke:#000000;" x="87.801863" xlink:href="#m676de753c4" y="110.610861"/>
     <use style="stroke:#000000;" x="86.904395" xlink:href="#m676de753c4" y="106.174989"/>
     <use style="stroke:#000000;" x="88.339472" xlink:href="#m676de753c4" y="109.154045"/>
     <use style="stroke:#000000;" x="86.088145" xlink:href="#m676de753c4" y="104.805934"/>
     <use style="stroke:#000000;" x="87.530781" xlink:href="#m676de753c4" y="107.526238"/>
     <use style="stroke:#000000;" x="89.259667" xlink:href="#m676de753c4" y="111.323221"/>
     <use style="stroke:#000000;" x="87.860224" xlink:href="#m676de753c4" y="108.204052"/>
     <use style="stroke:#000000;" x="81.408" xlink:href="#m676de753c4" y="79.488"/>
     <use style="stroke:#000000;" x="81.410995" xlink:href="#m676de753c4" y="80.43895"/>
     <use style="stroke:#000000;" x="157.76326" xlink:href="#m676de753c4" y="156.652618"/>
     <use style="stroke:#000000;" x="160.248419" xlink:href="#m676de753c4" y="157.398312"/>
     <use style="stroke:#000000;" x="123.672803" xlink:href="#m676de753c4" y="142.7036"/>
     <use style="stroke:#000000;" x="119.853813" xlink:href="#m676de753c4" y="144.34921"/>
     <use style="stroke:#000000;" x="167.398887" xlink:href="#m676de753c4" y="165.751836"/>
     <use style="stroke:#000000;" x="167.167828" xlink:href="#m676de753c4" y="162.084004"/>
     <use style="stroke:#000000;" x="82.27519" xlink:href="#m676de753c4" y="90.613636"/>
     <use style="stroke:#000000;" x="167.323766" xlink:href="#m676de753c4" y="164.843319"/>
     <use style="stroke:#000000;" x="81.408" xlink:href="#m676de753c4" y="79.488"/>
     <use style="stroke:#000000;" x="81.593341" xlink:href="#m676de753c4" y="84.717492"/>
     <use style="stroke:#000000;" x="81.429844" xlink:href="#m676de753c4" y="81.299991"/>
     <use style="stroke:#000000;" x="81.48683" xlink:href="#m676de753c4" y="83.149869"/>
     <use style="stroke:#000000;" x="162.35439" xlink:href="#m676de753c4" y="158.008902"/>
     <use style="stroke:#000000;" x="378.463967" xlink:href="#m676de753c4" y="252.58367"/>
     <use style="stroke:#000000;" x="95.974281" xlink:href="#m676de753c4" y="125.388808"/>
     <use style="stroke:#000000;" x="88.696266" xlink:href="#m676de753c4" y="109.835877"/>
     <use style="stroke:#000000;" x="167.219272" xlink:href="#m676de753c4" y="163.224157"/>
     <use style="stroke:#000000;" x="85.628893" xlink:href="#m676de753c4" y="110.957311"/>
     <use style="stroke:#000000;" x="113.020043" xlink:href="#m676de753c4" y="138.046847"/>
     <use style="stroke:#000000;" x="81.711464" xlink:href="#m676de753c4" y="86.153088"/>
     <use style="stroke:#000000;" x="85.638949" xlink:href="#m676de753c4" y="103.527668"/>
     <use style="stroke:#000000;" x="160.991987" xlink:href="#m676de753c4" y="157.616086"/>
     <use style="stroke:#000000;" x="165.904458" xlink:href="#m676de753c4" y="158.996088"/>
     <use style="stroke:#000000;" x="86.218861" xlink:href="#m676de753c4" y="105.41668"/>
     <use style="stroke:#000000;" x="83.81509" xlink:href="#m676de753c4" y="97.639767"/>
     <use style="stroke:#000000;" x="143.283669" xlink:href="#m676de753c4" y="153.596032"/>
     <use style="stroke:#000000;" x="82.839977" xlink:href="#m676de753c4" y="93.657907"/>
     <use style="stroke:#000000;" x="85.729041" xlink:href="#m676de753c4" y="103.370686"/>
     <use style="stroke:#000000;" x="140.436851" xlink:href="#m676de753c4" y="150.974478"/>
     <use style="stroke:#000000;" x="156.373583" xlink:href="#m676de753c4" y="156.223291"/>
     <use style="stroke:#000000;" x="159.085048" xlink:href="#m676de753c4" y="157.052695"/>
     <use style="stroke:#000000;" x="167.1168" xlink:href="#m676de753c4" y="159.3216"/>
     <use style="stroke:#000000;" x="164.998151" xlink:href="#m676de753c4" y="158.748946"/>
     <use style="stroke:#000000;" x="81.646726" xlink:href="#m676de753c4" y="85.41171"/>
     <use style="stroke:#000000;" x="82.90152" xlink:href="#m676de753c4" y="93.946788"/>
     <use style="stroke:#000000;" x="84.806039" xlink:href="#m676de753c4" y="103.809007"/>
     <use style="stroke:#000000;" x="85.612777" xlink:href="#m676de753c4" y="103.070243"/>
     <use style="stroke:#000000;" x="84.516865" xlink:href="#m676de753c4" y="99.967766"/>
     <use style="stroke:#000000;" x="99.345497" xlink:href="#m676de753c4" y="128.111483"/>
     <use style="stroke:#000000;" x="93.967914" xlink:href="#m676de753c4" y="118.132612"/>
     <use style="stroke:#000000;" x="81.429566" xlink:href="#m676de753c4" y="81.288491"/>
     <use style="stroke:#000000;" x="81.677934" xlink:href="#m676de753c4" y="85.780593"/>
     <use style="stroke:#000000;" x="81.408" xlink:href="#m676de753c4" y="79.488"/>
     <use style="stroke:#000000;" x="81.426157" xlink:href="#m676de753c4" y="81.140703"/>
     <use style="stroke:#000000;" x="82.274129" xlink:href="#m676de753c4" y="93.881061"/>
     <use style="stroke:#000000;" x="82.617795" xlink:href="#m676de753c4" y="98.125503"/>
     <use style="stroke:#000000;" x="82.308962" xlink:href="#m676de753c4" y="93.189949"/>
     <use style="stroke:#000000;" x="81.425415" xlink:href="#m676de753c4" y="81.441576"/>
     <use style="stroke:#000000;" x="157.099289" xlink:href="#m676de753c4" y="156.448618"/>
     <use style="stroke:#000000;" x="166.726525" xlink:href="#m676de753c4" y="159.21744"/>
     <use style="stroke:#000000;" x="81.447849" xlink:href="#m676de753c4" y="82.935313"/>
     <use style="stroke:#000000;" x="81.637106" xlink:href="#m676de753c4" y="85.293023"/>
     <use style="stroke:#000000;" x="84.129203" xlink:href="#m676de753c4" y="98.723198"/>
     <use style="stroke:#000000;" x="84.403901" xlink:href="#m676de753c4" y="99.614584"/>
     <use style="stroke:#000000;" x="386.371191" xlink:href="#m676de753c4" y="253.347911"/>
     <use style="stroke:#000000;" x="391.4083" xlink:href="#m676de753c4" y="252.957842"/>
     <use style="stroke:#000000;" x="128.434251" xlink:href="#m676de753c4" y="148.720139"/>
     <use style="stroke:#000000;" x="125.917665" xlink:href="#m676de753c4" y="148.253964"/>
     <use style="stroke:#000000;" x="135.5017" xlink:href="#m676de753c4" y="152.295884"/>
     <use style="stroke:#000000;" x="137.025886" xlink:href="#m676de753c4" y="154.932472"/>
     <use style="stroke:#000000;" x="105.933304" xlink:href="#m676de753c4" y="130.705008"/>
     <use style="stroke:#000000;" x="110.32128" xlink:href="#m676de753c4" y="134.186512"/>
     <use style="stroke:#000000;" x="148.950988" xlink:href="#m676de753c4" y="153.768297"/>
     <use style="stroke:#000000;" x="152.811665" xlink:href="#m676de753c4" y="155.781785"/>
     <use style="stroke:#000000;" x="96.30931" xlink:href="#m676de753c4" y="121.093509"/>
     <use style="stroke:#000000;" x="100.266611" xlink:href="#m676de753c4" y="125.456813"/>
     <use style="stroke:#000000;" x="89.507487" xlink:href="#m676de753c4" y="114.400156"/>
     <use style="stroke:#000000;" x="94.729931" xlink:href="#m676de753c4" y="120.511291"/>
     <use style="stroke:#000000;" x="81.408" xlink:href="#m676de753c4" y="79.488"/>
     <use style="stroke:#000000;" x="81.408" xlink:href="#m676de753c4" y="79.488"/>
    </g>
   </g>
   <g id="PathCollection_2">
    <defs>
     <path d="M 0 0.935414 
C 0.248075 0.935414 0.486022 0.836853 0.661438 0.661438 
C 0.836853 0.486022 0.935414 0.248075 0.935414 0 
C 0.935414 -0.248075 0.836853 -0.486022 0.661438 -0.661438 
C 0.486022 -0.836853 0.248075 -0.935414 0 -0.935414 
C -0.248075 -0.935414 -0.486022 -0.836853 -0.661438 -0.661438 
C -0.836853 -0.486022 -0.935414 -0.248075 -0.935414 0 
C -0.935414 0.248075 -0.836853 0.486022 -0.661438 0.661438 
C -0.486022 0.836853 -0.248075 0.935414 0 0.935414 
z
" id="m9ba9ddbc76" style="stroke:#0000ff;"/>
    </defs>
    <g clip-path="url(#p70ed4252a4)">
     <use style="fill:#0000ff;stroke:#0000ff;" x="88.96425" xlink:href="#m9ba9ddbc76" y="110.334804"/>
     <use style="fill:#0000ff;stroke:#0000ff;" x="344.512372" xlink:href="#m9ba9ddbc76" y="226.998231"/>
     <use style="fill:#0000ff;stroke:#0000ff;" x="160.635726" xlink:href="#m9ba9ddbc76" y="157.512047"/>
     <use style="fill:#0000ff;stroke:#0000ff;" x="82.661055" xlink:href="#m9ba9ddbc76" y="92.777653"/>
     <use style="fill:#0000ff;stroke:#0000ff;" x="81.491444" xlink:href="#m9ba9ddbc76" y="83.013237"/>
     <use style="fill:#0000ff;stroke:#0000ff;" x="87.26127" xlink:href="#m9ba9ddbc76" y="106.95539"/>
     <use style="fill:#0000ff;stroke:#0000ff;" x="166.19692" xlink:href="#m9ba9ddbc76" y="159.075142"/>
     <use style="fill:#0000ff;stroke:#0000ff;" x="81.471068" xlink:href="#m9ba9ddbc76" y="82.556522"/>
     <use style="fill:#0000ff;stroke:#0000ff;" x="84.839215" xlink:href="#m9ba9ddbc76" y="100.937404"/>
     <use style="fill:#0000ff;stroke:#0000ff;" x="93.368703" xlink:href="#m9ba9ddbc76" y="117.317653"/>
     <use style="fill:#0000ff;stroke:#0000ff;" x="89.67484" xlink:href="#m9ba9ddbc76" y="111.607618"/>
     <use style="fill:#0000ff;stroke:#0000ff;" x="84.395647" xlink:href="#m9ba9ddbc76" y="99.588485"/>
     <use style="fill:#0000ff;stroke:#0000ff;" x="112.322489" xlink:href="#m9ba9ddbc76" y="136.451346"/>
     <use style="fill:#0000ff;stroke:#0000ff;" x="81.534443" xlink:href="#m9ba9ddbc76" y="83.818006"/>
     <use style="fill:#0000ff;stroke:#0000ff;" x="88.33557" xlink:href="#m9ba9ddbc76" y="109.146473"/>
     <use style="fill:#0000ff;stroke:#0000ff;" x="138.949725" xlink:href="#m9ba9ddbc76" y="149.964939"/>
     <use style="fill:#0000ff;stroke:#0000ff;" x="81.514205" xlink:href="#m9ba9ddbc76" y="83.460243"/>
     <use style="fill:#0000ff;stroke:#0000ff;" x="81.739026" xlink:href="#m9ba9ddbc76" y="86.44357"/>
     <use style="fill:#0000ff;stroke:#0000ff;" x="117.842526" xlink:href="#m9ba9ddbc76" y="139.302228"/>
     <use style="fill:#0000ff;stroke:#0000ff;" x="123.81792" xlink:href="#m9ba9ddbc76" y="142.783043"/>
     <use style="fill:#0000ff;stroke:#0000ff;" x="166.923775" xlink:href="#m9ba9ddbc76" y="159.270158"/>
     <use style="fill:#0000ff;stroke:#0000ff;" x="82.994512" xlink:href="#m9ba9ddbc76" y="94.371279"/>
     <use style="fill:#0000ff;stroke:#0000ff;" x="124.32745" xlink:href="#m9ba9ddbc76" y="143.06013"/>
     <use style="fill:#0000ff;stroke:#0000ff;" x="82.449422" xlink:href="#m9ba9ddbc76" y="91.643809"/>
     <use style="fill:#0000ff;stroke:#0000ff;" x="119.025821" xlink:href="#m9ba9ddbc76" y="140.0277"/>
     <use style="fill:#0000ff;stroke:#0000ff;" x="83.914656" xlink:href="#m9ba9ddbc76" y="97.991299"/>
     <use style="fill:#0000ff;stroke:#0000ff;" x="81.53037" xlink:href="#m9ba9ddbc76" y="83.748514"/>
     <use style="fill:#0000ff;stroke:#0000ff;" x="165.380625" xlink:href="#m9ba9ddbc76" y="158.853644"/>
     <use style="fill:#0000ff;stroke:#0000ff;" x="81.453018" xlink:href="#m9ba9ddbc76" y="82.083817"/>
     <use style="fill:#0000ff;stroke:#0000ff;" x="390.046628" xlink:href="#m9ba9ddbc76" y="249.839928"/>
     <use style="fill:#0000ff;stroke:#0000ff;" x="85.628188" xlink:href="#m9ba9ddbc76" y="103.11034"/>
     <use style="fill:#0000ff;stroke:#0000ff;" x="88.212084" xlink:href="#m9ba9ddbc76" y="108.905484"/>
     <use style="fill:#0000ff;stroke:#0000ff;" x="86.994747" xlink:href="#m9ba9ddbc76" y="106.375332"/>
     <use style="fill:#0000ff;stroke:#0000ff;" x="81.408" xlink:href="#m9ba9ddbc76" y="79.488"/>
     <use style="fill:#0000ff;stroke:#0000ff;" x="158.287228" xlink:href="#m9ba9ddbc76" y="156.812165"/>
     <use style="fill:#0000ff;stroke:#0000ff;" x="121.798408" xlink:href="#m9ba9ddbc76" y="141.655815"/>
     <use style="fill:#0000ff;stroke:#0000ff;" x="167.266941" xlink:href="#m9ba9ddbc76" y="164.035033"/>
     <use style="fill:#0000ff;stroke:#0000ff;" x="81.408193" xlink:href="#m9ba9ddbc76" y="79.658907"/>
     <use style="fill:#0000ff;stroke:#0000ff;" x="167.125035" xlink:href="#m9ba9ddbc76" y="160.436242"/>
     <use style="fill:#0000ff;stroke:#0000ff;" x="81.432042" xlink:href="#m9ba9ddbc76" y="81.388521"/>
     <use style="fill:#0000ff;stroke:#0000ff;" x="82.814727" xlink:href="#m9ba9ddbc76" y="93.537442"/>
     <use style="fill:#0000ff;stroke:#0000ff;" x="81.469643" xlink:href="#m9ba9ddbc76" y="82.521954"/>
     <use style="fill:#0000ff;stroke:#0000ff;" x="82.566742" xlink:href="#m9ba9ddbc76" y="92.286195"/>
     <use style="fill:#0000ff;stroke:#0000ff;" x="165.614823" xlink:href="#m9ba9ddbc76" y="158.917464"/>
     <use style="fill:#0000ff;stroke:#0000ff;" x="385.500738" xlink:href="#m9ba9ddbc76" y="248.265715"/>
     <use style="fill:#0000ff;stroke:#0000ff;" x="93.559257" xlink:href="#m9ba9ddbc76" y="117.579622"/>
     <use style="fill:#0000ff;stroke:#0000ff;" x="83.148974" xlink:href="#m9ba9ddbc76" y="95.04742"/>
     <use style="fill:#0000ff;stroke:#0000ff;" x="167.1168" xlink:href="#m9ba9ddbc76" y="159.3216"/>
     <use style="fill:#0000ff;stroke:#0000ff;" x="84.383281" xlink:href="#m9ba9ddbc76" y="99.549309"/>
     <use style="fill:#0000ff;stroke:#0000ff;" x="118.737586" xlink:href="#m9ba9ddbc76" y="139.852741"/>
     <use style="fill:#0000ff;stroke:#0000ff;" x="81.416225" xlink:href="#m9ba9ddbc76" y="80.601942"/>
     <use style="fill:#0000ff;stroke:#0000ff;" x="84.258648" xlink:href="#m9ba9ddbc76" y="99.149245"/>
     <use style="fill:#0000ff;stroke:#0000ff;" x="160.807051" xlink:href="#m9ba9ddbc76" y="157.562148"/>
     <use style="fill:#0000ff;stroke:#0000ff;" x="84.538967" xlink:href="#m9ba9ddbc76" y="100.036015"/>
     <use style="fill:#0000ff;stroke:#0000ff;" x="138.919037" xlink:href="#m9ba9ddbc76" y="149.952268"/>
     <use style="fill:#0000ff;stroke:#0000ff;" x="82.465987" xlink:href="#m9ba9ddbc76" y="91.736783"/>
     <use style="fill:#0000ff;stroke:#0000ff;" x="84.459922" xlink:href="#m9ba9ddbc76" y="99.790655"/>
     <use style="fill:#0000ff;stroke:#0000ff;" x="132.778062" xlink:href="#m9ba9ddbc76" y="147.275163"/>
     <use style="fill:#0000ff;stroke:#0000ff;" x="158.356802" xlink:href="#m9ba9ddbc76" y="156.833255"/>
     <use style="fill:#0000ff;stroke:#0000ff;" x="167.1168" xlink:href="#m9ba9ddbc76" y="159.3216"/>
     <use style="fill:#0000ff;stroke:#0000ff;" x="81.409513" xlink:href="#m9ba9ddbc76" y="79.966557"/>
     <use style="fill:#0000ff;stroke:#0000ff;" x="83.853417" xlink:href="#m9ba9ddbc76" y="97.776024"/>
     <use style="fill:#0000ff;stroke:#0000ff;" x="85.702556" xlink:href="#m9ba9ddbc76" y="103.302659"/>
     <use style="fill:#0000ff;stroke:#0000ff;" x="83.235351" xlink:href="#m9ba9ddbc76" y="95.411285"/>
     <use style="fill:#0000ff;stroke:#0000ff;" x="94.868932" xlink:href="#m9ba9ddbc76" y="119.311786"/>
     <use style="fill:#0000ff;stroke:#0000ff;" x="81.449941" xlink:href="#m9ba9ddbc76" y="81.994111"/>
     <use style="fill:#0000ff;stroke:#0000ff;" x="81.408" xlink:href="#m9ba9ddbc76" y="79.488"/>
     <use style="fill:#0000ff;stroke:#0000ff;" x="81.928639" xlink:href="#m9ba9ddbc76" y="88.168971"/>
     <use style="fill:#0000ff;stroke:#0000ff;" x="81.898103" xlink:href="#m9ba9ddbc76" y="87.916553"/>
     <use style="fill:#0000ff;stroke:#0000ff;" x="163.192521" xlink:href="#m9ba9ddbc76" y="158.246645"/>
     <use style="fill:#0000ff;stroke:#0000ff;" x="81.588965" xlink:href="#m9ba9ddbc76" y="84.656253"/>
     <use style="fill:#0000ff;stroke:#0000ff;" x="84.03457" xlink:href="#m9ba9ddbc76" y="98.404497"/>
     <use style="fill:#0000ff;stroke:#0000ff;" x="405.1968" xlink:href="#m9ba9ddbc76" y="254.3616"/>
     <use style="fill:#0000ff;stroke:#0000ff;" x="125.297732" xlink:href="#m9ba9ddbc76" y="143.579955"/>
     <use style="fill:#0000ff;stroke:#0000ff;" x="134.666401" xlink:href="#m9ba9ddbc76" y="148.129522"/>
     <use style="fill:#0000ff;stroke:#0000ff;" x="107.155277" xlink:href="#m9ba9ddbc76" y="131.718575"/>
     <use style="fill:#0000ff;stroke:#0000ff;" x="153.71062" xlink:href="#m9ba9ddbc76" y="155.974189"/>
     <use style="fill:#0000ff;stroke:#0000ff;" x="95.434589" xlink:href="#m9ba9ddbc76" y="120.025851"/>
     <use style="fill:#0000ff;stroke:#0000ff;" x="90.979396" xlink:href="#m9ba9ddbc76" y="113.779237"/>
     <use style="fill:#0000ff;stroke:#0000ff;" x="81.408" xlink:href="#m9ba9ddbc76" y="79.488"/>
    </g>
   </g>
   <g id="matplotlib.axis_1">
    <g id="xtick_1">
     <g id="line2d_1">
      <defs>
       <path d="M 0 0 
L 0 3.5 
" id="m2b4eedff7d" style="stroke:#000000;stroke-width:0.8;"/>
      </defs>
      <g>
       <use style="stroke:#000000;stroke-width:0.8;" x="81.408" xlink:href="#m2b4eedff7d" y="307.584"/>
      </g>
     </g>
     <g id="text_1">
      <!-- 0 -->
      <defs>
       <path d="M 31.78125 66.40625 
Q 24.171875 66.40625 20.328125 58.90625 
Q 16.5 51.421875 16.5 36.375 
Q 16.5 21.390625 20.328125 13.890625 
Q 24.171875 6.390625 31.78125 6.390625 
Q 39.453125 6.390625 43.28125 13.890625 
Q 47.125 21.390625 47.125 36.375 
Q 47.125 51.421875 43.28125 58.90625 
Q 39.453125 66.40625 31.78125 66.40625 
z
M 31.78125 74.21875 
Q 44.046875 74.21875 50.515625 64.515625 
Q 56.984375 54.828125 56.984375 36.375 
Q 56.984375 17.96875 50.515625 8.265625 
Q 44.046875 -1.421875 31.78125 -1.421875 
Q 19.53125 -1.421875 13.0625 8.265625 
Q 6.59375 17.96875 6.59375 36.375 
Q 6.59375 54.828125 13.0625 64.515625 
Q 19.53125 74.21875 31.78125 74.21875 
z
" id="DejaVuSans-30"/>
      </defs>
      <g transform="translate(78.22675 322.182437)scale(0.1 -0.1)">
       <use xlink:href="#DejaVuSans-30"/>
      </g>
     </g>
    </g>
    <g id="xtick_2">
     <g id="line2d_2">
      <g>
       <use style="stroke:#000000;stroke-width:0.8;" x="129.024" xlink:href="#m2b4eedff7d" y="307.584"/>
      </g>
     </g>
     <g id="text_2">
      <!-- 20 -->
      <defs>
       <path d="M 19.1875 8.296875 
L 53.609375 8.296875 
L 53.609375 0 
L 7.328125 0 
L 7.328125 8.296875 
Q 12.9375 14.109375 22.625 23.890625 
Q 32.328125 33.6875 34.8125 36.53125 
Q 39.546875 41.84375 41.421875 45.53125 
Q 43.3125 49.21875 43.3125 52.78125 
Q 43.3125 58.59375 39.234375 62.25 
Q 35.15625 65.921875 28.609375 65.921875 
Q 23.96875 65.921875 18.8125 64.3125 
Q 13.671875 62.703125 7.8125 59.421875 
L 7.8125 69.390625 
Q 13.765625 71.78125 18.9375 73 
Q 24.125 74.21875 28.421875 74.21875 
Q 39.75 74.21875 46.484375 68.546875 
Q 53.21875 62.890625 53.21875 53.421875 
Q 53.21875 48.921875 51.53125 44.890625 
Q 49.859375 40.875 45.40625 35.40625 
Q 44.1875 33.984375 37.640625 27.21875 
Q 31.109375 20.453125 19.1875 8.296875 
z
" id="DejaVuSans-32"/>
      </defs>
      <g transform="translate(122.6615 322.182437)scale(0.1 -0.1)">
       <use xlink:href="#DejaVuSans-32"/>
       <use x="63.623047" xlink:href="#DejaVuSans-30"/>
      </g>
     </g>
    </g>
    <g id="xtick_3">
     <g id="line2d_3">
      <g>
       <use style="stroke:#000000;stroke-width:0.8;" x="176.64" xlink:href="#m2b4eedff7d" y="307.584"/>
      </g>
     </g>
     <g id="text_3">
      <!-- 40 -->
      <defs>
       <path d="M 37.796875 64.3125 
L 12.890625 25.390625 
L 37.796875 25.390625 
z
M 35.203125 72.90625 
L 47.609375 72.90625 
L 47.609375 25.390625 
L 58.015625 25.390625 
L 58.015625 17.1875 
L 47.609375 17.1875 
L 47.609375 0 
L 37.796875 0 
L 37.796875 17.1875 
L 4.890625 17.1875 
L 4.890625 26.703125 
z
" id="DejaVuSans-34"/>
      </defs>
      <g transform="translate(170.2775 322.182437)scale(0.1 -0.1)">
       <use xlink:href="#DejaVuSans-34"/>
       <use x="63.623047" xlink:href="#DejaVuSans-30"/>
      </g>
     </g>
    </g>
    <g id="xtick_4">
     <g id="line2d_4">
      <g>
       <use style="stroke:#000000;stroke-width:0.8;" x="224.256" xlink:href="#m2b4eedff7d" y="307.584"/>
      </g>
     </g>
     <g id="text_4">
      <!-- 60 -->
      <defs>
       <path d="M 33.015625 40.375 
Q 26.375 40.375 22.484375 35.828125 
Q 18.609375 31.296875 18.609375 23.390625 
Q 18.609375 15.53125 22.484375 10.953125 
Q 26.375 6.390625 33.015625 6.390625 
Q 39.65625 6.390625 43.53125 10.953125 
Q 47.40625 15.53125 47.40625 23.390625 
Q 47.40625 31.296875 43.53125 35.828125 
Q 39.65625 40.375 33.015625 40.375 
z
M 52.59375 71.296875 
L 52.59375 62.3125 
Q 48.875 64.0625 45.09375 64.984375 
Q 41.3125 65.921875 37.59375 65.921875 
Q 27.828125 65.921875 22.671875 59.328125 
Q 17.53125 52.734375 16.796875 39.40625 
Q 19.671875 43.65625 24.015625 45.921875 
Q 28.375 48.1875 33.59375 48.1875 
Q 44.578125 48.1875 50.953125 41.515625 
Q 57.328125 34.859375 57.328125 23.390625 
Q 57.328125 12.15625 50.6875 5.359375 
Q 44.046875 -1.421875 33.015625 -1.421875 
Q 20.359375 -1.421875 13.671875 8.265625 
Q 6.984375 17.96875 6.984375 36.375 
Q 6.984375 53.65625 15.1875 63.9375 
Q 23.390625 74.21875 37.203125 74.21875 
Q 40.921875 74.21875 44.703125 73.484375 
Q 48.484375 72.75 52.59375 71.296875 
z
" id="DejaVuSans-36"/>
      </defs>
      <g transform="translate(217.8935 322.182437)scale(0.1 -0.1)">
       <use xlink:href="#DejaVuSans-36"/>
       <use x="63.623047" xlink:href="#DejaVuSans-30"/>
      </g>
     </g>
    </g>
    <g id="xtick_5">
     <g id="line2d_5">
      <g>
       <use style="stroke:#000000;stroke-width:0.8;" x="271.872" xlink:href="#m2b4eedff7d" y="307.584"/>
      </g>
     </g>
     <g id="text_5">
      <!-- 80 -->
      <defs>
       <path d="M 31.78125 34.625 
Q 24.75 34.625 20.71875 30.859375 
Q 16.703125 27.09375 16.703125 20.515625 
Q 16.703125 13.921875 20.71875 10.15625 
Q 24.75 6.390625 31.78125 6.390625 
Q 38.8125 6.390625 42.859375 10.171875 
Q 46.921875 13.96875 46.921875 20.515625 
Q 46.921875 27.09375 42.890625 30.859375 
Q 38.875 34.625 31.78125 34.625 
z
M 21.921875 38.8125 
Q 15.578125 40.375 12.03125 44.71875 
Q 8.5 49.078125 8.5 55.328125 
Q 8.5 64.0625 14.71875 69.140625 
Q 20.953125 74.21875 31.78125 74.21875 
Q 42.671875 74.21875 48.875 69.140625 
Q 55.078125 64.0625 55.078125 55.328125 
Q 55.078125 49.078125 51.53125 44.71875 
Q 48 40.375 41.703125 38.8125 
Q 48.828125 37.15625 52.796875 32.3125 
Q 56.78125 27.484375 56.78125 20.515625 
Q 56.78125 9.90625 50.3125 4.234375 
Q 43.84375 -1.421875 31.78125 -1.421875 
Q 19.734375 -1.421875 13.25 4.234375 
Q 6.78125 9.90625 6.78125 20.515625 
Q 6.78125 27.484375 10.78125 32.3125 
Q 14.796875 37.15625 21.921875 38.8125 
z
M 18.3125 54.390625 
Q 18.3125 48.734375 21.84375 45.5625 
Q 25.390625 42.390625 31.78125 42.390625 
Q 38.140625 42.390625 41.71875 45.5625 
Q 45.3125 48.734375 45.3125 54.390625 
Q 45.3125 60.0625 41.71875 63.234375 
Q 38.140625 66.40625 31.78125 66.40625 
Q 25.390625 66.40625 21.84375 63.234375 
Q 18.3125 60.0625 18.3125 54.390625 
z
" id="DejaVuSans-38"/>
      </defs>
      <g transform="translate(265.5095 322.182437)scale(0.1 -0.1)">
       <use xlink:href="#DejaVuSans-38"/>
       <use x="63.623047" xlink:href="#DejaVuSans-30"/>
      </g>
     </g>
    </g>
    <g id="xtick_6">
     <g id="line2d_6">
      <g>
       <use style="stroke:#000000;stroke-width:0.8;" x="319.488" xlink:href="#m2b4eedff7d" y="307.584"/>
      </g>
     </g>
     <g id="text_6">
      <!-- 100 -->
      <defs>
       <path d="M 12.40625 8.296875 
L 28.515625 8.296875 
L 28.515625 63.921875 
L 10.984375 60.40625 
L 10.984375 69.390625 
L 28.421875 72.90625 
L 38.28125 72.90625 
L 38.28125 8.296875 
L 54.390625 8.296875 
L 54.390625 0 
L 12.40625 0 
z
" id="DejaVuSans-31"/>
      </defs>
      <g transform="translate(309.94425 322.182437)scale(0.1 -0.1)">
       <use xlink:href="#DejaVuSans-31"/>
       <use x="63.623047" xlink:href="#DejaVuSans-30"/>
       <use x="127.246094" xlink:href="#DejaVuSans-30"/>
      </g>
     </g>
    </g>
    <g id="xtick_7">
     <g id="line2d_7">
      <g>
       <use style="stroke:#000000;stroke-width:0.8;" x="367.104" xlink:href="#m2b4eedff7d" y="307.584"/>
      </g>
     </g>
     <g id="text_7">
      <!-- 120 -->
      <g transform="translate(357.56025 322.182437)scale(0.1 -0.1)">
       <use xlink:href="#DejaVuSans-31"/>
       <use x="63.623047" xlink:href="#DejaVuSans-32"/>
       <use x="127.246094" xlink:href="#DejaVuSans-30"/>
      </g>
     </g>
    </g>
    <g id="xtick_8">
     <g id="line2d_8">
      <g>
       <use style="stroke:#000000;stroke-width:0.8;" x="414.72" xlink:href="#m2b4eedff7d" y="307.584"/>
      </g>
     </g>
     <g id="text_8">
      <!-- 140 -->
      <g transform="translate(405.17625 322.182437)scale(0.1 -0.1)">
       <use xlink:href="#DejaVuSans-31"/>
       <use x="63.623047" xlink:href="#DejaVuSans-34"/>
       <use x="127.246094" xlink:href="#DejaVuSans-30"/>
      </g>
     </g>
    </g>
   </g>
   <g id="matplotlib.axis_2">
    <g id="ytick_1">
     <g id="line2d_9">
      <defs>
       <path d="M 0 0 
L -3.5 0 
" id="me613cdc1ea" style="stroke:#000000;stroke-width:0.8;"/>
      </defs>
      <g>
       <use style="stroke:#000000;stroke-width:0.8;" x="57.6" xlink:href="#me613cdc1ea" y="307.584"/>
      </g>
     </g>
     <g id="text_9">
      <!-- −10 -->
      <defs>
       <path d="M 10.59375 35.5 
L 73.1875 35.5 
L 73.1875 27.203125 
L 10.59375 27.203125 
z
" id="DejaVuSans-2212"/>
      </defs>
      <g transform="translate(29.495313 311.383219)scale(0.1 -0.1)">
       <use xlink:href="#DejaVuSans-2212"/>
       <use x="83.789062" xlink:href="#DejaVuSans-31"/>
       <use x="147.412109" xlink:href="#DejaVuSans-30"/>
      </g>
     </g>
    </g>
    <g id="ytick_2">
     <g id="line2d_10">
      <g>
       <use style="stroke:#000000;stroke-width:0.8;" x="57.6" xlink:href="#me613cdc1ea" y="269.568"/>
      </g>
     </g>
     <g id="text_10">
      <!-- 0 -->
      <g transform="translate(44.2375 273.367219)scale(0.1 -0.1)">
       <use xlink:href="#DejaVuSans-30"/>
      </g>
     </g>
    </g>
    <g id="ytick_3">
     <g id="line2d_11">
      <g>
       <use style="stroke:#000000;stroke-width:0.8;" x="57.6" xlink:href="#me613cdc1ea" y="231.552"/>
      </g>
     </g>
     <g id="text_11">
      <!-- 10 -->
      <g transform="translate(37.875 235.351219)scale(0.1 -0.1)">
       <use xlink:href="#DejaVuSans-31"/>
       <use x="63.623047" xlink:href="#DejaVuSans-30"/>
      </g>
     </g>
    </g>
    <g id="ytick_4">
     <g id="line2d_12">
      <g>
       <use style="stroke:#000000;stroke-width:0.8;" x="57.6" xlink:href="#me613cdc1ea" y="193.536"/>
      </g>
     </g>
     <g id="text_12">
      <!-- 20 -->
      <g transform="translate(37.875 197.335219)scale(0.1 -0.1)">
       <use xlink:href="#DejaVuSans-32"/>
       <use x="63.623047" xlink:href="#DejaVuSans-30"/>
      </g>
     </g>
    </g>
    <g id="ytick_5">
     <g id="line2d_13">
      <g>
       <use style="stroke:#000000;stroke-width:0.8;" x="57.6" xlink:href="#me613cdc1ea" y="155.52"/>
      </g>
     </g>
     <g id="text_13">
      <!-- 30 -->
      <defs>
       <path d="M 40.578125 39.3125 
Q 47.65625 37.796875 51.625 33 
Q 55.609375 28.21875 55.609375 21.1875 
Q 55.609375 10.40625 48.1875 4.484375 
Q 40.765625 -1.421875 27.09375 -1.421875 
Q 22.515625 -1.421875 17.65625 -0.515625 
Q 12.796875 0.390625 7.625 2.203125 
L 7.625 11.71875 
Q 11.71875 9.328125 16.59375 8.109375 
Q 21.484375 6.890625 26.8125 6.890625 
Q 36.078125 6.890625 40.9375 10.546875 
Q 45.796875 14.203125 45.796875 21.1875 
Q 45.796875 27.640625 41.28125 31.265625 
Q 36.765625 34.90625 28.71875 34.90625 
L 20.21875 34.90625 
L 20.21875 43.015625 
L 29.109375 43.015625 
Q 36.375 43.015625 40.234375 45.921875 
Q 44.09375 48.828125 44.09375 54.296875 
Q 44.09375 59.90625 40.109375 62.90625 
Q 36.140625 65.921875 28.71875 65.921875 
Q 24.65625 65.921875 20.015625 65.03125 
Q 15.375 64.15625 9.8125 62.3125 
L 9.8125 71.09375 
Q 15.4375 72.65625 20.34375 73.4375 
Q 25.25 74.21875 29.59375 74.21875 
Q 40.828125 74.21875 47.359375 69.109375 
Q 53.90625 64.015625 53.90625 55.328125 
Q 53.90625 49.265625 50.4375 45.09375 
Q 46.96875 40.921875 40.578125 39.3125 
z
" id="DejaVuSans-33"/>
      </defs>
      <g transform="translate(37.875 159.319219)scale(0.1 -0.1)">
       <use xlink:href="#DejaVuSans-33"/>
       <use x="63.623047" xlink:href="#DejaVuSans-30"/>
      </g>
     </g>
    </g>
    <g id="ytick_6">
     <g id="line2d_14">
      <g>
       <use style="stroke:#000000;stroke-width:0.8;" x="57.6" xlink:href="#me613cdc1ea" y="117.504"/>
      </g>
     </g>
     <g id="text_14">
      <!-- 40 -->
      <g transform="translate(37.875 121.303219)scale(0.1 -0.1)">
       <use xlink:href="#DejaVuSans-34"/>
       <use x="63.623047" xlink:href="#DejaVuSans-30"/>
      </g>
     </g>
    </g>
    <g id="ytick_7">
     <g id="line2d_15">
      <g>
       <use style="stroke:#000000;stroke-width:0.8;" x="57.6" xlink:href="#me613cdc1ea" y="79.488"/>
      </g>
     </g>
     <g id="text_15">
      <!-- 50 -->
      <defs>
       <path d="M 10.796875 72.90625 
L 49.515625 72.90625 
L 49.515625 64.59375 
L 19.828125 64.59375 
L 19.828125 46.734375 
Q 21.96875 47.46875 24.109375 47.828125 
Q 26.265625 48.1875 28.421875 48.1875 
Q 40.625 48.1875 47.75 41.5 
Q 54.890625 34.8125 54.890625 23.390625 
Q 54.890625 11.625 47.5625 5.09375 
Q 40.234375 -1.421875 26.90625 -1.421875 
Q 22.3125 -1.421875 17.546875 -0.640625 
Q 12.796875 0.140625 7.71875 1.703125 
L 7.71875 11.625 
Q 12.109375 9.234375 16.796875 8.0625 
Q 21.484375 6.890625 26.703125 6.890625 
Q 35.15625 6.890625 40.078125 11.328125 
Q 45.015625 15.765625 45.015625 23.390625 
Q 45.015625 31 40.078125 35.4375 
Q 35.15625 39.890625 26.703125 39.890625 
Q 22.75 39.890625 18.8125 39.015625 
Q 14.890625 38.140625 10.796875 36.28125 
z
" id="DejaVuSans-35"/>
      </defs>
      <g transform="translate(37.875 83.287219)scale(0.1 -0.1)">
       <use xlink:href="#DejaVuSans-35"/>
       <use x="63.623047" xlink:href="#DejaVuSans-30"/>
      </g>
     </g>
    </g>
    <g id="ytick_8">
     <g id="line2d_16">
      <g>
       <use style="stroke:#000000;stroke-width:0.8;" x="57.6" xlink:href="#me613cdc1ea" y="41.472"/>
      </g>
     </g>
     <g id="text_16">
      <!-- 60 -->
      <g transform="translate(37.875 45.271219)scale(0.1 -0.1)">
       <use xlink:href="#DejaVuSans-36"/>
       <use x="63.623047" xlink:href="#DejaVuSans-30"/>
      </g>
     </g>
    </g>
   </g>
   <g id="patch_3">
    <path d="M 57.6 307.584 
L 57.6 41.472 
" style="fill:none;stroke:#000000;stroke-linecap:square;stroke-linejoin:miter;stroke-width:0.8;"/>
   </g>
   <g id="patch_4">
    <path d="M 414.72 307.584 
L 414.72 41.472 
" style="fill:none;stroke:#000000;stroke-linecap:square;stroke-linejoin:miter;stroke-width:0.8;"/>
   </g>
   <g id="patch_5">
    <path d="M 57.6 307.584 
L 414.72 307.584 
" style="fill:none;stroke:#000000;stroke-linecap:square;stroke-linejoin:miter;stroke-width:0.8;"/>
   </g>
   <g id="patch_6">
    <path d="M 57.6 41.472 
L 414.72 41.472 
" style="fill:none;stroke:#000000;stroke-linecap:square;stroke-linejoin:miter;stroke-width:0.8;"/>
   </g>
  </g>
 </g>
 <defs>
  <clipPath id="p70ed4252a4">
   <rect height="266.112" width="357.12" x="57.6" y="41.472"/>
  </clipPath>
 </defs>
</svg>
