<?xml version="1.0" encoding="utf-8" standalone="no"?>
<!DOCTYPE svg PUBLIC "-//W3C//DTD SVG 1.1//EN"
  "http://www.w3.org/Graphics/SVG/1.1/DTD/svg11.dtd">
<!-- Created with matplotlib (http://matplotlib.org/) -->
<svg height="345.6pt" version="1.1" viewBox="0 0 460.8 345.6" width="460.8pt" xmlns="http://www.w3.org/2000/svg" xmlns:xlink="http://www.w3.org/1999/xlink">
 <defs>
  <style type="text/css">
*{stroke-linecap:butt;stroke-linejoin:round;}
  </style>
 </defs>
 <g id="figure_1">
  <g id="patch_1">
   <path d="M 0 345.6 
L 460.8 345.6 
L 460.8 0 
L 0 0 
z
" style="fill:#ffffff;"/>
  </g>
  <g id="axes_1">
   <g id="patch_2">
    <path d="M 57.6 307.584 
L 414.72 307.584 
L 414.72 41.472 
L 57.6 41.472 
z
" style="fill:#ffffff;"/>
   </g>
   <g id="PathCollection_1">
    <defs>
     <path d="M 0 0.612372 
C 0.162403 0.612372 0.318176 0.547849 0.433013 0.433013 
C 0.547849 0.318176 0.612372 0.162403 0.612372 0 
C 0.612372 -0.162403 0.547849 -0.318176 0.433013 -0.433013 
C 0.318176 -0.547849 0.162403 -0.612372 0 -0.612372 
C -0.162403 -0.612372 -0.318176 -0.547849 -0.433013 -0.433013 
C -0.547849 -0.318176 -0.612372 -0.162403 -0.612372 0 
C -0.612372 0.162403 -0.547849 0.318176 -0.433013 0.433013 
C -0.318176 0.547849 -0.162403 0.612372 0 0.612372 
z
" id="m4aab35f598" style="stroke:#000000;"/>
    </defs>
    <g clip-path="url(#pea3a03aee4)">
     <use style="stroke:#000000;" x="365.14563" xlink:href="#m4aab35f598" y="139.185971"/>
     <use style="stroke:#000000;" x="304.607973" xlink:href="#m4aab35f598" y="83.021736"/>
     <use style="stroke:#000000;" x="296.661438" xlink:href="#m4aab35f598" y="67.9701"/>
     <use style="stroke:#000000;" x="311.408884" xlink:href="#m4aab35f598" y="93.633297"/>
     <use style="stroke:#000000;" x="339.909168" xlink:href="#m4aab35f598" y="127.291642"/>
     <use style="stroke:#000000;" x="378.650671" xlink:href="#m4aab35f598" y="166.855653"/>
     <use style="stroke:#000000;" x="300.888549" xlink:href="#m4aab35f598" y="73.823312"/>
     <use style="stroke:#000000;" x="305.840027" xlink:href="#m4aab35f598" y="83.146707"/>
     <use style="stroke:#000000;" x="310.573513" xlink:href="#m4aab35f598" y="92.501586"/>
     <use style="stroke:#000000;" x="337.397551" xlink:href="#m4aab35f598" y="123.137555"/>
     <use style="stroke:#000000;" x="323.880847" xlink:href="#m4aab35f598" y="102.582352"/>
     <use style="stroke:#000000;" x="308.813581" xlink:href="#m4aab35f598" y="89.286447"/>
     <use style="stroke:#000000;" x="308.432315" xlink:href="#m4aab35f598" y="88.637591"/>
     <use style="stroke:#000000;" x="337.407882" xlink:href="#m4aab35f598" y="127.171626"/>
     <use style="stroke:#000000;" x="332.085595" xlink:href="#m4aab35f598" y="113.303982"/>
     <use style="stroke:#000000;" x="335.204155" xlink:href="#m4aab35f598" y="118.19567"/>
     <use style="stroke:#000000;" x="302.257024" xlink:href="#m4aab35f598" y="76.870227"/>
     <use style="stroke:#000000;" x="397.206122" xlink:href="#m4aab35f598" y="179.529796"/>
     <use style="stroke:#000000;" x="343.356664" xlink:href="#m4aab35f598" y="133.173051"/>
     <use style="stroke:#000000;" x="380.679107" xlink:href="#m4aab35f598" y="167.429217"/>
     <use style="stroke:#000000;" x="390.173499" xlink:href="#m4aab35f598" y="172.975092"/>
     <use style="stroke:#000000;" x="375.251613" xlink:href="#m4aab35f598" y="152.319686"/>
     <use style="stroke:#000000;" x="290.061151" xlink:href="#m4aab35f598" y="64.131377"/>
     <use style="stroke:#000000;" x="341.092874" xlink:href="#m4aab35f598" y="129.01849"/>
     <use style="stroke:#000000;" x="341.157164" xlink:href="#m4aab35f598" y="130.061806"/>
     <use style="stroke:#000000;" x="314.894696" xlink:href="#m4aab35f598" y="98.187055"/>
     <use style="stroke:#000000;" x="306.399027" xlink:href="#m4aab35f598" y="84.277587"/>
     <use style="stroke:#000000;" x="376.238007" xlink:href="#m4aab35f598" y="153.584212"/>
     <use style="stroke:#000000;" x="293.470481" xlink:href="#m4aab35f598" y="66.023689"/>
     <use style="stroke:#000000;" x="309.685657" xlink:href="#m4aab35f598" y="89.735911"/>
     <use style="stroke:#000000;" x="334.052738" xlink:href="#m4aab35f598" y="114.797281"/>
     <use style="stroke:#000000;" x="371.216198" xlink:href="#m4aab35f598" y="144.810075"/>
     <use style="stroke:#000000;" x="391.186384" xlink:href="#m4aab35f598" y="174.045653"/>
     <use style="stroke:#000000;" x="341.554619" xlink:href="#m4aab35f598" y="130.50618"/>
     <use style="stroke:#000000;" x="310.425463" xlink:href="#m4aab35f598" y="91.127841"/>
     <use style="stroke:#000000;" x="374.116611" xlink:href="#m4aab35f598" y="150.762867"/>
     <use style="stroke:#000000;" x="378.115241" xlink:href="#m4aab35f598" y="160.092167"/>
     <use style="stroke:#000000;" x="370.854595" xlink:href="#m4aab35f598" y="140.902154"/>
     <use style="stroke:#000000;" x="348.357884" xlink:href="#m4aab35f598" y="137.656235"/>
     <use style="stroke:#000000;" x="299.628016" xlink:href="#m4aab35f598" y="72.581812"/>
     <use style="stroke:#000000;" x="329.638675" xlink:href="#m4aab35f598" y="106.8808"/>
     <use style="stroke:#000000;" x="297.007814" xlink:href="#m4aab35f598" y="69.114568"/>
     <use style="stroke:#000000;" x="293.390927" xlink:href="#m4aab35f598" y="65.466817"/>
     <use style="stroke:#000000;" x="323.433588" xlink:href="#m4aab35f598" y="101.752103"/>
     <use style="stroke:#000000;" x="335.190177" xlink:href="#m4aab35f598" y="117.821444"/>
     <use style="stroke:#000000;" x="328.107186" xlink:href="#m4aab35f598" y="104.915"/>
     <use style="stroke:#000000;" x="301.002487" xlink:href="#m4aab35f598" y="74.404973"/>
     <use style="stroke:#000000;" x="346.917506" xlink:href="#m4aab35f598" y="137.297728"/>
     <use style="stroke:#000000;" x="341.140454" xlink:href="#m4aab35f598" y="129.062194"/>
     <use style="stroke:#000000;" x="378.039726" xlink:href="#m4aab35f598" y="155.439434"/>
     <use style="stroke:#000000;" x="384.980133" xlink:href="#m4aab35f598" y="167.785486"/>
     <use style="stroke:#000000;" x="333.350433" xlink:href="#m4aab35f598" y="113.599647"/>
     <use style="stroke:#000000;" x="322.499445" xlink:href="#m4aab35f598" y="101.617811"/>
     <use style="stroke:#000000;" x="329.166648" xlink:href="#m4aab35f598" y="106.514851"/>
     <use style="stroke:#000000;" x="306.865866" xlink:href="#m4aab35f598" y="84.409481"/>
     <use style="stroke:#000000;" x="304.087011" xlink:href="#m4aab35f598" y="80.012979"/>
     <use style="stroke:#000000;" x="342.554121" xlink:href="#m4aab35f598" y="131.431526"/>
     <use style="stroke:#000000;" x="343.847476" xlink:href="#m4aab35f598" y="135.476176"/>
     <use style="stroke:#000000;" x="328.76998" xlink:href="#m4aab35f598" y="106.262993"/>
     <use style="stroke:#000000;" x="332.062068" xlink:href="#m4aab35f598" y="112.033355"/>
     <use style="stroke:#000000;" x="247.483624" xlink:href="#m4aab35f598" y="210.298288"/>
     <use style="stroke:#000000;" x="301.772405" xlink:href="#m4aab35f598" y="86.255881"/>
     <use style="stroke:#000000;" x="307.404602" xlink:href="#m4aab35f598" y="85.645926"/>
     <use style="stroke:#000000;" x="303.803222" xlink:href="#m4aab35f598" y="83.71714"/>
     <use style="stroke:#000000;" x="308.044573" xlink:href="#m4aab35f598" y="91.016017"/>
     <use style="stroke:#000000;" x="227.742141" xlink:href="#m4aab35f598" y="194.303231"/>
     <use style="stroke:#000000;" x="251.438279" xlink:href="#m4aab35f598" y="252.292809"/>
     <use style="stroke:#000000;" x="333.576518" xlink:href="#m4aab35f598" y="115.978394"/>
     <use style="stroke:#000000;" x="262.847984" xlink:href="#m4aab35f598" y="219.911054"/>
     <use style="stroke:#000000;" x="314.120205" xlink:href="#m4aab35f598" y="141.803926"/>
     <use style="stroke:#000000;" x="281.508648" xlink:href="#m4aab35f598" y="171.508252"/>
     <use style="stroke:#000000;" x="318.136837" xlink:href="#m4aab35f598" y="123.806895"/>
     <use style="stroke:#000000;" x="297.996272" xlink:href="#m4aab35f598" y="232.057152"/>
     <use style="stroke:#000000;" x="310.256788" xlink:href="#m4aab35f598" y="162.650021"/>
     <use style="stroke:#000000;" x="339.156739" xlink:href="#m4aab35f598" y="135.667143"/>
     <use style="stroke:#000000;" x="324.693218" xlink:href="#m4aab35f598" y="231.711833"/>
     <use style="stroke:#000000;" x="301.652855" xlink:href="#m4aab35f598" y="196.676617"/>
     <use style="stroke:#000000;" x="308.414622" xlink:href="#m4aab35f598" y="201.545834"/>
     <use style="stroke:#000000;" x="338.153134" xlink:href="#m4aab35f598" y="236.76946"/>
     <use style="stroke:#000000;" x="320.701714" xlink:href="#m4aab35f598" y="106.868136"/>
     <use style="stroke:#000000;" x="361.05451" xlink:href="#m4aab35f598" y="171.445278"/>
     <use style="stroke:#000000;" x="341.20989" xlink:href="#m4aab35f598" y="152.786874"/>
     <use style="stroke:#000000;" x="347.922672" xlink:href="#m4aab35f598" y="158.65951"/>
     <use style="stroke:#000000;" x="389.040634" xlink:href="#m4aab35f598" y="180.079236"/>
     <use style="stroke:#000000;" x="369.36196" xlink:href="#m4aab35f598" y="177.33061"/>
     <use style="stroke:#000000;" x="379.686429" xlink:href="#m4aab35f598" y="176.049399"/>
     <use style="stroke:#000000;" x="386.682971" xlink:href="#m4aab35f598" y="180.129446"/>
     <use style="stroke:#000000;" x="322.824884" xlink:href="#m4aab35f598" y="229.361812"/>
     <use style="stroke:#000000;" x="359.615452" xlink:href="#m4aab35f598" y="142.005744"/>
     <use style="stroke:#000000;" x="315.592485" xlink:href="#m4aab35f598" y="110.162021"/>
     <use style="stroke:#000000;" x="340.404069" xlink:href="#m4aab35f598" y="153.780612"/>
     <use style="stroke:#000000;" x="345.987619" xlink:href="#m4aab35f598" y="142.743633"/>
     <use style="stroke:#000000;" x="339.6896" xlink:href="#m4aab35f598" y="136.228026"/>
     <use style="stroke:#000000;" x="303.158123" xlink:href="#m4aab35f598" y="81.561642"/>
     <use style="stroke:#000000;" x="321.656791" xlink:href="#m4aab35f598" y="127.631485"/>
     <use style="stroke:#000000;" x="305.131923" xlink:href="#m4aab35f598" y="89.045164"/>
     <use style="stroke:#000000;" x="386.55424" xlink:href="#m4aab35f598" y="174.354808"/>
     <use style="stroke:#000000;" x="374.450953" xlink:href="#m4aab35f598" y="185.378845"/>
     <use style="stroke:#000000;" x="298.452921" xlink:href="#m4aab35f598" y="70.904368"/>
     <use style="stroke:#000000;" x="282.547146" xlink:href="#m4aab35f598" y="105.861673"/>
     <use style="stroke:#000000;" x="307.497462" xlink:href="#m4aab35f598" y="96.753274"/>
     <use style="stroke:#000000;" x="294.845804" xlink:href="#m4aab35f598" y="192.232196"/>
     <use style="stroke:#000000;" x="344.196545" xlink:href="#m4aab35f598" y="133.882017"/>
     <use style="stroke:#000000;" x="343.775434" xlink:href="#m4aab35f598" y="140.360749"/>
     <use style="stroke:#000000;" x="364.439253" xlink:href="#m4aab35f598" y="167.521318"/>
     <use style="stroke:#000000;" x="344.254388" xlink:href="#m4aab35f598" y="153.998235"/>
     <use style="stroke:#000000;" x="376.200092" xlink:href="#m4aab35f598" y="168.283253"/>
     <use style="stroke:#000000;" x="378.16753" xlink:href="#m4aab35f598" y="179.41549"/>
     <use style="stroke:#000000;" x="345.841582" xlink:href="#m4aab35f598" y="148.260541"/>
     <use style="stroke:#000000;" x="337.317636" xlink:href="#m4aab35f598" y="122.817507"/>
     <use style="stroke:#000000;" x="304.708672" xlink:href="#m4aab35f598" y="114.39679"/>
     <use style="stroke:#000000;" x="300.679344" xlink:href="#m4aab35f598" y="83.318014"/>
     <use style="stroke:#000000;" x="373.273312" xlink:href="#m4aab35f598" y="167.837407"/>
     <use style="stroke:#000000;" x="370.90791" xlink:href="#m4aab35f598" y="163.747819"/>
     <use style="stroke:#000000;" x="360.892476" xlink:href="#m4aab35f598" y="144.822907"/>
     <use style="stroke:#000000;" x="358.810429" xlink:href="#m4aab35f598" y="165.535516"/>
     <use style="stroke:#000000;" x="361.794145" xlink:href="#m4aab35f598" y="159.377262"/>
     <use style="stroke:#000000;" x="363.491543" xlink:href="#m4aab35f598" y="153.857583"/>
     <use style="stroke:#000000;" x="367.11493" xlink:href="#m4aab35f598" y="166.699136"/>
     <use style="stroke:#000000;" x="370.603381" xlink:href="#m4aab35f598" y="166.041566"/>
     <use style="stroke:#000000;" x="324.430759" xlink:href="#m4aab35f598" y="128.405879"/>
     <use style="stroke:#000000;" x="307.244961" xlink:href="#m4aab35f598" y="96.754867"/>
     <use style="stroke:#000000;" x="329.104961" xlink:href="#m4aab35f598" y="106.788876"/>
     <use style="stroke:#000000;" x="329.644261" xlink:href="#m4aab35f598" y="115.099886"/>
     <use style="stroke:#000000;" x="289.33872" xlink:href="#m4aab35f598" y="149.55499"/>
     <use style="stroke:#000000;" x="289.885126" xlink:href="#m4aab35f598" y="119.555638"/>
     <use style="stroke:#000000;" x="310.642324" xlink:href="#m4aab35f598" y="91.416873"/>
     <use style="stroke:#000000;" x="299.850098" xlink:href="#m4aab35f598" y="73.477975"/>
     <use style="stroke:#000000;" x="282.86772" xlink:href="#m4aab35f598" y="73.062994"/>
     <use style="stroke:#000000;" x="287.589323" xlink:href="#m4aab35f598" y="92.183969"/>
     <use style="stroke:#000000;" x="319.095419" xlink:href="#m4aab35f598" y="105.897065"/>
     <use style="stroke:#000000;" x="306.016822" xlink:href="#m4aab35f598" y="172.248673"/>
     <use style="stroke:#000000;" x="317.655617" xlink:href="#m4aab35f598" y="113.001485"/>
     <use style="stroke:#000000;" x="340.373686" xlink:href="#m4aab35f598" y="129.19106"/>
     <use style="stroke:#000000;" x="334.332959" xlink:href="#m4aab35f598" y="119.222247"/>
     <use style="stroke:#000000;" x="348.94828" xlink:href="#m4aab35f598" y="145.261402"/>
     <use style="stroke:#000000;" x="318.042758" xlink:href="#m4aab35f598" y="106.916936"/>
     <use style="stroke:#000000;" x="334.75214" xlink:href="#m4aab35f598" y="119.0107"/>
     <use style="stroke:#000000;" x="326.121385" xlink:href="#m4aab35f598" y="111.11452"/>
     <use style="stroke:#000000;" x="301.998911" xlink:href="#m4aab35f598" y="76.89809"/>
     <use style="stroke:#000000;" x="301.210189" xlink:href="#m4aab35f598" y="76.072798"/>
     <use style="stroke:#000000;" x="300.18317" xlink:href="#m4aab35f598" y="78.561222"/>
     <use style="stroke:#000000;" x="328.336047" xlink:href="#m4aab35f598" y="157.829442"/>
     <use style="stroke:#000000;" x="343.879466" xlink:href="#m4aab35f598" y="134.536944"/>
     <use style="stroke:#000000;" x="329.034072" xlink:href="#m4aab35f598" y="111.696389"/>
     <use style="stroke:#000000;" x="347.037422" xlink:href="#m4aab35f598" y="142.491358"/>
     <use style="stroke:#000000;" x="345.662898" xlink:href="#m4aab35f598" y="140.652283"/>
     <use style="stroke:#000000;" x="353.173075" xlink:href="#m4aab35f598" y="142.253043"/>
     <use style="stroke:#000000;" x="368.085534" xlink:href="#m4aab35f598" y="163.995091"/>
     <use style="stroke:#000000;" x="375.243148" xlink:href="#m4aab35f598" y="161.69512"/>
     <use style="stroke:#000000;" x="370.103846" xlink:href="#m4aab35f598" y="154.027117"/>
     <use style="stroke:#000000;" x="385.629019" xlink:href="#m4aab35f598" y="172.977403"/>
     <use style="stroke:#000000;" x="380.690295" xlink:href="#m4aab35f598" y="175.377791"/>
     <use style="stroke:#000000;" x="378.178438" xlink:href="#m4aab35f598" y="168.737423"/>
     <use style="stroke:#000000;" x="334.832413" xlink:href="#m4aab35f598" y="125.060937"/>
     <use style="stroke:#000000;" x="324.093661" xlink:href="#m4aab35f598" y="111.856179"/>
     <use style="stroke:#000000;" x="334.805131" xlink:href="#m4aab35f598" y="117.23385"/>
     <use style="stroke:#000000;" x="325.666352" xlink:href="#m4aab35f598" y="106.587984"/>
     <use style="stroke:#000000;" x="309.76871" xlink:href="#m4aab35f598" y="171.050057"/>
     <use style="stroke:#000000;" x="316.485268" xlink:href="#m4aab35f598" y="115.883265"/>
     <use style="stroke:#000000;" x="328.308599" xlink:href="#m4aab35f598" y="107.737954"/>
     <use style="stroke:#000000;" x="327.601285" xlink:href="#m4aab35f598" y="112.469365"/>
     <use style="stroke:#000000;" x="332.775304" xlink:href="#m4aab35f598" y="113.682086"/>
     <use style="stroke:#000000;" x="301.669457" xlink:href="#m4aab35f598" y="83.726866"/>
     <use style="stroke:#000000;" x="299.811362" xlink:href="#m4aab35f598" y="75.200622"/>
     <use style="stroke:#000000;" x="297.971958" xlink:href="#m4aab35f598" y="72.288092"/>
     <use style="stroke:#000000;" x="310.974016" xlink:href="#m4aab35f598" y="93.727716"/>
     <use style="stroke:#000000;" x="296.734237" xlink:href="#m4aab35f598" y="73.587874"/>
     <use style="stroke:#000000;" x="305.326043" xlink:href="#m4aab35f598" y="84.035685"/>
     <use style="stroke:#000000;" x="344.37734" xlink:href="#m4aab35f598" y="136.007657"/>
     <use style="stroke:#000000;" x="341.9729" xlink:href="#m4aab35f598" y="131.614683"/>
     <use style="stroke:#000000;" x="337.832452" xlink:href="#m4aab35f598" y="123.766439"/>
     <use style="stroke:#000000;" x="345.744631" xlink:href="#m4aab35f598" y="136.792203"/>
     <use style="stroke:#000000;" x="345.877009" xlink:href="#m4aab35f598" y="137.640237"/>
     <use style="stroke:#000000;" x="342.624084" xlink:href="#m4aab35f598" y="132.098787"/>
     <use style="stroke:#000000;" x="335.588301" xlink:href="#m4aab35f598" y="120.803784"/>
     <use style="stroke:#000000;" x="325.239802" xlink:href="#m4aab35f598" y="103.161085"/>
     <use style="stroke:#000000;" x="329.827534" xlink:href="#m4aab35f598" y="113.505274"/>
     <use style="stroke:#000000;" x="326.865161" xlink:href="#m4aab35f598" y="107.663715"/>
     <use style="stroke:#000000;" x="341.111785" xlink:href="#m4aab35f598" y="128.967748"/>
     <use style="stroke:#000000;" x="333.812609" xlink:href="#m4aab35f598" y="116.88032"/>
    </g>
   </g>
   <g id="PathCollection_2">
    <defs>
     <path d="M 0 0.935414 
C 0.248075 0.935414 0.486022 0.836853 0.661438 0.661438 
C 0.836853 0.486022 0.935414 0.248075 0.935414 0 
C 0.935414 -0.248075 0.836853 -0.486022 0.661438 -0.661438 
C 0.486022 -0.836853 0.248075 -0.935414 0 -0.935414 
C -0.248075 -0.935414 -0.486022 -0.836853 -0.661438 -0.661438 
C -0.836853 -0.486022 -0.935414 -0.248075 -0.935414 0 
C -0.935414 0.248075 -0.836853 0.486022 -0.661438 0.661438 
C -0.486022 0.836853 -0.248075 0.935414 0 0.935414 
z
" id="m5f78787e6a" style="stroke:#0000ff;"/>
    </defs>
    <g clip-path="url(#pea3a03aee4)">
     <use style="fill:#0000ff;stroke:#0000ff;" x="365.14563" xlink:href="#m5f78787e6a" y="139.185971"/>
     <use style="fill:#0000ff;stroke:#0000ff;" x="304.607973" xlink:href="#m5f78787e6a" y="83.021736"/>
     <use style="fill:#0000ff;stroke:#0000ff;" x="296.661438" xlink:href="#m5f78787e6a" y="67.9701"/>
     <use style="fill:#0000ff;stroke:#0000ff;" x="311.408884" xlink:href="#m5f78787e6a" y="93.633297"/>
     <use style="fill:#0000ff;stroke:#0000ff;" x="339.909168" xlink:href="#m5f78787e6a" y="127.291642"/>
     <use style="fill:#0000ff;stroke:#0000ff;" x="378.650671" xlink:href="#m5f78787e6a" y="166.855653"/>
     <use style="fill:#0000ff;stroke:#0000ff;" x="300.888549" xlink:href="#m5f78787e6a" y="73.823312"/>
     <use style="fill:#0000ff;stroke:#0000ff;" x="305.840027" xlink:href="#m5f78787e6a" y="83.146707"/>
     <use style="fill:#0000ff;stroke:#0000ff;" x="310.573513" xlink:href="#m5f78787e6a" y="92.501586"/>
     <use style="fill:#0000ff;stroke:#0000ff;" x="337.397551" xlink:href="#m5f78787e6a" y="123.137555"/>
     <use style="fill:#0000ff;stroke:#0000ff;" x="323.880847" xlink:href="#m5f78787e6a" y="102.582352"/>
     <use style="fill:#0000ff;stroke:#0000ff;" x="308.813581" xlink:href="#m5f78787e6a" y="89.286447"/>
     <use style="fill:#0000ff;stroke:#0000ff;" x="308.432315" xlink:href="#m5f78787e6a" y="88.637591"/>
     <use style="fill:#0000ff;stroke:#0000ff;" x="337.407882" xlink:href="#m5f78787e6a" y="127.171626"/>
     <use style="fill:#0000ff;stroke:#0000ff;" x="332.085595" xlink:href="#m5f78787e6a" y="113.303982"/>
     <use style="fill:#0000ff;stroke:#0000ff;" x="335.204155" xlink:href="#m5f78787e6a" y="118.19567"/>
     <use style="fill:#0000ff;stroke:#0000ff;" x="302.257024" xlink:href="#m5f78787e6a" y="76.870227"/>
     <use style="fill:#0000ff;stroke:#0000ff;" x="397.206122" xlink:href="#m5f78787e6a" y="179.529796"/>
     <use style="fill:#0000ff;stroke:#0000ff;" x="343.356664" xlink:href="#m5f78787e6a" y="133.173051"/>
     <use style="fill:#0000ff;stroke:#0000ff;" x="380.679107" xlink:href="#m5f78787e6a" y="167.429217"/>
     <use style="fill:#0000ff;stroke:#0000ff;" x="390.173499" xlink:href="#m5f78787e6a" y="172.975092"/>
     <use style="fill:#0000ff;stroke:#0000ff;" x="375.251613" xlink:href="#m5f78787e6a" y="152.319686"/>
     <use style="fill:#0000ff;stroke:#0000ff;" x="290.061151" xlink:href="#m5f78787e6a" y="64.131377"/>
     <use style="fill:#0000ff;stroke:#0000ff;" x="341.092874" xlink:href="#m5f78787e6a" y="129.01849"/>
     <use style="fill:#0000ff;stroke:#0000ff;" x="341.157164" xlink:href="#m5f78787e6a" y="130.061806"/>
     <use style="fill:#0000ff;stroke:#0000ff;" x="314.894696" xlink:href="#m5f78787e6a" y="98.187055"/>
     <use style="fill:#0000ff;stroke:#0000ff;" x="306.399027" xlink:href="#m5f78787e6a" y="84.277587"/>
     <use style="fill:#0000ff;stroke:#0000ff;" x="376.238007" xlink:href="#m5f78787e6a" y="153.584212"/>
     <use style="fill:#0000ff;stroke:#0000ff;" x="293.470481" xlink:href="#m5f78787e6a" y="66.023689"/>
     <use style="fill:#0000ff;stroke:#0000ff;" x="309.685657" xlink:href="#m5f78787e6a" y="89.735911"/>
     <use style="fill:#0000ff;stroke:#0000ff;" x="334.052738" xlink:href="#m5f78787e6a" y="114.797281"/>
     <use style="fill:#0000ff;stroke:#0000ff;" x="371.216198" xlink:href="#m5f78787e6a" y="144.810075"/>
     <use style="fill:#0000ff;stroke:#0000ff;" x="391.186384" xlink:href="#m5f78787e6a" y="174.045653"/>
     <use style="fill:#0000ff;stroke:#0000ff;" x="341.554619" xlink:href="#m5f78787e6a" y="130.50618"/>
     <use style="fill:#0000ff;stroke:#0000ff;" x="310.425463" xlink:href="#m5f78787e6a" y="91.127841"/>
     <use style="fill:#0000ff;stroke:#0000ff;" x="374.116611" xlink:href="#m5f78787e6a" y="150.762867"/>
     <use style="fill:#0000ff;stroke:#0000ff;" x="378.115241" xlink:href="#m5f78787e6a" y="160.092167"/>
     <use style="fill:#0000ff;stroke:#0000ff;" x="370.854595" xlink:href="#m5f78787e6a" y="140.902154"/>
     <use style="fill:#0000ff;stroke:#0000ff;" x="348.357884" xlink:href="#m5f78787e6a" y="137.656235"/>
     <use style="fill:#0000ff;stroke:#0000ff;" x="299.628016" xlink:href="#m5f78787e6a" y="72.581812"/>
     <use style="fill:#0000ff;stroke:#0000ff;" x="329.638675" xlink:href="#m5f78787e6a" y="106.8808"/>
     <use style="fill:#0000ff;stroke:#0000ff;" x="297.007814" xlink:href="#m5f78787e6a" y="69.114568"/>
     <use style="fill:#0000ff;stroke:#0000ff;" x="293.390927" xlink:href="#m5f78787e6a" y="65.466817"/>
     <use style="fill:#0000ff;stroke:#0000ff;" x="323.433588" xlink:href="#m5f78787e6a" y="101.752103"/>
     <use style="fill:#0000ff;stroke:#0000ff;" x="335.190177" xlink:href="#m5f78787e6a" y="117.821444"/>
     <use style="fill:#0000ff;stroke:#0000ff;" x="328.107186" xlink:href="#m5f78787e6a" y="104.915"/>
     <use style="fill:#0000ff;stroke:#0000ff;" x="301.002487" xlink:href="#m5f78787e6a" y="74.404973"/>
     <use style="fill:#0000ff;stroke:#0000ff;" x="346.917506" xlink:href="#m5f78787e6a" y="137.297728"/>
     <use style="fill:#0000ff;stroke:#0000ff;" x="341.140454" xlink:href="#m5f78787e6a" y="129.062194"/>
     <use style="fill:#0000ff;stroke:#0000ff;" x="378.039726" xlink:href="#m5f78787e6a" y="155.439434"/>
     <use style="fill:#0000ff;stroke:#0000ff;" x="384.980133" xlink:href="#m5f78787e6a" y="167.785486"/>
     <use style="fill:#0000ff;stroke:#0000ff;" x="333.350433" xlink:href="#m5f78787e6a" y="113.599647"/>
     <use style="fill:#0000ff;stroke:#0000ff;" x="322.499445" xlink:href="#m5f78787e6a" y="101.617811"/>
     <use style="fill:#0000ff;stroke:#0000ff;" x="329.166648" xlink:href="#m5f78787e6a" y="106.514851"/>
     <use style="fill:#0000ff;stroke:#0000ff;" x="306.865866" xlink:href="#m5f78787e6a" y="84.409481"/>
     <use style="fill:#0000ff;stroke:#0000ff;" x="304.087011" xlink:href="#m5f78787e6a" y="80.012979"/>
     <use style="fill:#0000ff;stroke:#0000ff;" x="342.554121" xlink:href="#m5f78787e6a" y="131.431526"/>
     <use style="fill:#0000ff;stroke:#0000ff;" x="343.847476" xlink:href="#m5f78787e6a" y="135.476176"/>
     <use style="fill:#0000ff;stroke:#0000ff;" x="328.76998" xlink:href="#m5f78787e6a" y="106.262993"/>
     <use style="fill:#0000ff;stroke:#0000ff;" x="332.062068" xlink:href="#m5f78787e6a" y="112.033355"/>
    </g>
   </g>
   <g id="matplotlib.axis_1">
    <g id="xtick_1">
     <g id="line2d_1">
      <defs>
       <path d="M 0 0 
L 0 3.5 
" id="m074ea44c62" style="stroke:#000000;stroke-width:0.8;"/>
      </defs>
      <g>
       <use style="stroke:#000000;stroke-width:0.8;" x="57.6" xlink:href="#m074ea44c62" y="307.584"/>
      </g>
     </g>
     <g id="text_1">
      <!-- 4 -->
      <defs>
       <path d="M 37.796875 64.3125 
L 12.890625 25.390625 
L 37.796875 25.390625 
z
M 35.203125 72.90625 
L 47.609375 72.90625 
L 47.609375 25.390625 
L 58.015625 25.390625 
L 58.015625 17.1875 
L 47.609375 17.1875 
L 47.609375 0 
L 37.796875 0 
L 37.796875 17.1875 
L 4.890625 17.1875 
L 4.890625 26.703125 
z
" id="DejaVuSans-34"/>
      </defs>
      <g transform="translate(54.41875 322.182437)scale(0.1 -0.1)">
       <use xlink:href="#DejaVuSans-34"/>
      </g>
     </g>
    </g>
    <g id="xtick_2">
     <g id="line2d_2">
      <g>
       <use style="stroke:#000000;stroke-width:0.8;" x="102.24" xlink:href="#m074ea44c62" y="307.584"/>
      </g>
     </g>
     <g id="text_2">
      <!-- 6 -->
      <defs>
       <path d="M 33.015625 40.375 
Q 26.375 40.375 22.484375 35.828125 
Q 18.609375 31.296875 18.609375 23.390625 
Q 18.609375 15.53125 22.484375 10.953125 
Q 26.375 6.390625 33.015625 6.390625 
Q 39.65625 6.390625 43.53125 10.953125 
Q 47.40625 15.53125 47.40625 23.390625 
Q 47.40625 31.296875 43.53125 35.828125 
Q 39.65625 40.375 33.015625 40.375 
z
M 52.59375 71.296875 
L 52.59375 62.3125 
Q 48.875 64.0625 45.09375 64.984375 
Q 41.3125 65.921875 37.59375 65.921875 
Q 27.828125 65.921875 22.671875 59.328125 
Q 17.53125 52.734375 16.796875 39.40625 
Q 19.671875 43.65625 24.015625 45.921875 
Q 28.375 48.1875 33.59375 48.1875 
Q 44.578125 48.1875 50.953125 41.515625 
Q 57.328125 34.859375 57.328125 23.390625 
Q 57.328125 12.15625 50.6875 5.359375 
Q 44.046875 -1.421875 33.015625 -1.421875 
Q 20.359375 -1.421875 13.671875 8.265625 
Q 6.984375 17.96875 6.984375 36.375 
Q 6.984375 53.65625 15.1875 63.9375 
Q 23.390625 74.21875 37.203125 74.21875 
Q 40.921875 74.21875 44.703125 73.484375 
Q 48.484375 72.75 52.59375 71.296875 
z
" id="DejaVuSans-36"/>
      </defs>
      <g transform="translate(99.05875 322.182437)scale(0.1 -0.1)">
       <use xlink:href="#DejaVuSans-36"/>
      </g>
     </g>
    </g>
    <g id="xtick_3">
     <g id="line2d_3">
      <g>
       <use style="stroke:#000000;stroke-width:0.8;" x="146.88" xlink:href="#m074ea44c62" y="307.584"/>
      </g>
     </g>
     <g id="text_3">
      <!-- 8 -->
      <defs>
       <path d="M 31.78125 34.625 
Q 24.75 34.625 20.71875 30.859375 
Q 16.703125 27.09375 16.703125 20.515625 
Q 16.703125 13.921875 20.71875 10.15625 
Q 24.75 6.390625 31.78125 6.390625 
Q 38.8125 6.390625 42.859375 10.171875 
Q 46.921875 13.96875 46.921875 20.515625 
Q 46.921875 27.09375 42.890625 30.859375 
Q 38.875 34.625 31.78125 34.625 
z
M 21.921875 38.8125 
Q 15.578125 40.375 12.03125 44.71875 
Q 8.5 49.078125 8.5 55.328125 
Q 8.5 64.0625 14.71875 69.140625 
Q 20.953125 74.21875 31.78125 74.21875 
Q 42.671875 74.21875 48.875 69.140625 
Q 55.078125 64.0625 55.078125 55.328125 
Q 55.078125 49.078125 51.53125 44.71875 
Q 48 40.375 41.703125 38.8125 
Q 48.828125 37.15625 52.796875 32.3125 
Q 56.78125 27.484375 56.78125 20.515625 
Q 56.78125 9.90625 50.3125 4.234375 
Q 43.84375 -1.421875 31.78125 -1.421875 
Q 19.734375 -1.421875 13.25 4.234375 
Q 6.78125 9.90625 6.78125 20.515625 
Q 6.78125 27.484375 10.78125 32.3125 
Q 14.796875 37.15625 21.921875 38.8125 
z
M 18.3125 54.390625 
Q 18.3125 48.734375 21.84375 45.5625 
Q 25.390625 42.390625 31.78125 42.390625 
Q 38.140625 42.390625 41.71875 45.5625 
Q 45.3125 48.734375 45.3125 54.390625 
Q 45.3125 60.0625 41.71875 63.234375 
Q 38.140625 66.40625 31.78125 66.40625 
Q 25.390625 66.40625 21.84375 63.234375 
Q 18.3125 60.0625 18.3125 54.390625 
z
" id="DejaVuSans-38"/>
      </defs>
      <g transform="translate(143.69875 322.182437)scale(0.1 -0.1)">
       <use xlink:href="#DejaVuSans-38"/>
      </g>
     </g>
    </g>
    <g id="xtick_4">
     <g id="line2d_4">
      <g>
       <use style="stroke:#000000;stroke-width:0.8;" x="191.52" xlink:href="#m074ea44c62" y="307.584"/>
      </g>
     </g>
     <g id="text_4">
      <!-- 10 -->
      <defs>
       <path d="M 12.40625 8.296875 
L 28.515625 8.296875 
L 28.515625 63.921875 
L 10.984375 60.40625 
L 10.984375 69.390625 
L 28.421875 72.90625 
L 38.28125 72.90625 
L 38.28125 8.296875 
L 54.390625 8.296875 
L 54.390625 0 
L 12.40625 0 
z
" id="DejaVuSans-31"/>
       <path d="M 31.78125 66.40625 
Q 24.171875 66.40625 20.328125 58.90625 
Q 16.5 51.421875 16.5 36.375 
Q 16.5 21.390625 20.328125 13.890625 
Q 24.171875 6.390625 31.78125 6.390625 
Q 39.453125 6.390625 43.28125 13.890625 
Q 47.125 21.390625 47.125 36.375 
Q 47.125 51.421875 43.28125 58.90625 
Q 39.453125 66.40625 31.78125 66.40625 
z
M 31.78125 74.21875 
Q 44.046875 74.21875 50.515625 64.515625 
Q 56.984375 54.828125 56.984375 36.375 
Q 56.984375 17.96875 50.515625 8.265625 
Q 44.046875 -1.421875 31.78125 -1.421875 
Q 19.53125 -1.421875 13.0625 8.265625 
Q 6.59375 17.96875 6.59375 36.375 
Q 6.59375 54.828125 13.0625 64.515625 
Q 19.53125 74.21875 31.78125 74.21875 
z
" id="DejaVuSans-30"/>
      </defs>
      <g transform="translate(185.1575 322.182437)scale(0.1 -0.1)">
       <use xlink:href="#DejaVuSans-31"/>
       <use x="63.623047" xlink:href="#DejaVuSans-30"/>
      </g>
     </g>
    </g>
    <g id="xtick_5">
     <g id="line2d_5">
      <g>
       <use style="stroke:#000000;stroke-width:0.8;" x="236.16" xlink:href="#m074ea44c62" y="307.584"/>
      </g>
     </g>
     <g id="text_5">
      <!-- 12 -->
      <defs>
       <path d="M 19.1875 8.296875 
L 53.609375 8.296875 
L 53.609375 0 
L 7.328125 0 
L 7.328125 8.296875 
Q 12.9375 14.109375 22.625 23.890625 
Q 32.328125 33.6875 34.8125 36.53125 
Q 39.546875 41.84375 41.421875 45.53125 
Q 43.3125 49.21875 43.3125 52.78125 
Q 43.3125 58.59375 39.234375 62.25 
Q 35.15625 65.921875 28.609375 65.921875 
Q 23.96875 65.921875 18.8125 64.3125 
Q 13.671875 62.703125 7.8125 59.421875 
L 7.8125 69.390625 
Q 13.765625 71.78125 18.9375 73 
Q 24.125 74.21875 28.421875 74.21875 
Q 39.75 74.21875 46.484375 68.546875 
Q 53.21875 62.890625 53.21875 53.421875 
Q 53.21875 48.921875 51.53125 44.890625 
Q 49.859375 40.875 45.40625 35.40625 
Q 44.1875 33.984375 37.640625 27.21875 
Q 31.109375 20.453125 19.1875 8.296875 
z
" id="DejaVuSans-32"/>
      </defs>
      <g transform="translate(229.7975 322.182437)scale(0.1 -0.1)">
       <use xlink:href="#DejaVuSans-31"/>
       <use x="63.623047" xlink:href="#DejaVuSans-32"/>
      </g>
     </g>
    </g>
    <g id="xtick_6">
     <g id="line2d_6">
      <g>
       <use style="stroke:#000000;stroke-width:0.8;" x="280.8" xlink:href="#m074ea44c62" y="307.584"/>
      </g>
     </g>
     <g id="text_6">
      <!-- 14 -->
      <g transform="translate(274.4375 322.182437)scale(0.1 -0.1)">
       <use xlink:href="#DejaVuSans-31"/>
       <use x="63.623047" xlink:href="#DejaVuSans-34"/>
      </g>
     </g>
    </g>
    <g id="xtick_7">
     <g id="line2d_7">
      <g>
       <use style="stroke:#000000;stroke-width:0.8;" x="325.44" xlink:href="#m074ea44c62" y="307.584"/>
      </g>
     </g>
     <g id="text_7">
      <!-- 16 -->
      <g transform="translate(319.0775 322.182437)scale(0.1 -0.1)">
       <use xlink:href="#DejaVuSans-31"/>
       <use x="63.623047" xlink:href="#DejaVuSans-36"/>
      </g>
     </g>
    </g>
    <g id="xtick_8">
     <g id="line2d_8">
      <g>
       <use style="stroke:#000000;stroke-width:0.8;" x="370.08" xlink:href="#m074ea44c62" y="307.584"/>
      </g>
     </g>
     <g id="text_8">
      <!-- 18 -->
      <g transform="translate(363.7175 322.182437)scale(0.1 -0.1)">
       <use xlink:href="#DejaVuSans-31"/>
       <use x="63.623047" xlink:href="#DejaVuSans-38"/>
      </g>
     </g>
    </g>
    <g id="xtick_9">
     <g id="line2d_9">
      <g>
       <use style="stroke:#000000;stroke-width:0.8;" x="414.72" xlink:href="#m074ea44c62" y="307.584"/>
      </g>
     </g>
     <g id="text_9">
      <!-- 20 -->
      <g transform="translate(408.3575 322.182437)scale(0.1 -0.1)">
       <use xlink:href="#DejaVuSans-32"/>
       <use x="63.623047" xlink:href="#DejaVuSans-30"/>
      </g>
     </g>
    </g>
   </g>
   <g id="matplotlib.axis_2">
    <g id="ytick_1">
     <g id="line2d_10">
      <defs>
       <path d="M 0 0 
L -3.5 0 
" id="m9bd5bf45c8" style="stroke:#000000;stroke-width:0.8;"/>
      </defs>
      <g>
       <use style="stroke:#000000;stroke-width:0.8;" x="57.6" xlink:href="#m9bd5bf45c8" y="269.568"/>
      </g>
     </g>
     <g id="text_10">
      <!-- −10 -->
      <defs>
       <path d="M 10.59375 35.5 
L 73.1875 35.5 
L 73.1875 27.203125 
L 10.59375 27.203125 
z
" id="DejaVuSans-2212"/>
      </defs>
      <g transform="translate(29.495313 273.367219)scale(0.1 -0.1)">
       <use xlink:href="#DejaVuSans-2212"/>
       <use x="83.789062" xlink:href="#DejaVuSans-31"/>
       <use x="147.412109" xlink:href="#DejaVuSans-30"/>
      </g>
     </g>
    </g>
    <g id="ytick_2">
     <g id="line2d_11">
      <g>
       <use style="stroke:#000000;stroke-width:0.8;" x="57.6" xlink:href="#m9bd5bf45c8" y="222.048"/>
      </g>
     </g>
     <g id="text_11">
      <!-- −5 -->
      <defs>
       <path d="M 10.796875 72.90625 
L 49.515625 72.90625 
L 49.515625 64.59375 
L 19.828125 64.59375 
L 19.828125 46.734375 
Q 21.96875 47.46875 24.109375 47.828125 
Q 26.265625 48.1875 28.421875 48.1875 
Q 40.625 48.1875 47.75 41.5 
Q 54.890625 34.8125 54.890625 23.390625 
Q 54.890625 11.625 47.5625 5.09375 
Q 40.234375 -1.421875 26.90625 -1.421875 
Q 22.3125 -1.421875 17.546875 -0.640625 
Q 12.796875 0.140625 7.71875 1.703125 
L 7.71875 11.625 
Q 12.109375 9.234375 16.796875 8.0625 
Q 21.484375 6.890625 26.703125 6.890625 
Q 35.15625 6.890625 40.078125 11.328125 
Q 45.015625 15.765625 45.015625 23.390625 
Q 45.015625 31 40.078125 35.4375 
Q 35.15625 39.890625 26.703125 39.890625 
Q 22.75 39.890625 18.8125 39.015625 
Q 14.890625 38.140625 10.796875 36.28125 
z
" id="DejaVuSans-35"/>
      </defs>
      <g transform="translate(35.857813 225.847219)scale(0.1 -0.1)">
       <use xlink:href="#DejaVuSans-2212"/>
       <use x="83.789062" xlink:href="#DejaVuSans-35"/>
      </g>
     </g>
    </g>
    <g id="ytick_3">
     <g id="line2d_12">
      <g>
       <use style="stroke:#000000;stroke-width:0.8;" x="57.6" xlink:href="#m9bd5bf45c8" y="174.528"/>
      </g>
     </g>
     <g id="text_12">
      <!-- 0 -->
      <g transform="translate(44.2375 178.327219)scale(0.1 -0.1)">
       <use xlink:href="#DejaVuSans-30"/>
      </g>
     </g>
    </g>
    <g id="ytick_4">
     <g id="line2d_13">
      <g>
       <use style="stroke:#000000;stroke-width:0.8;" x="57.6" xlink:href="#m9bd5bf45c8" y="127.008"/>
      </g>
     </g>
     <g id="text_13">
      <!-- 5 -->
      <g transform="translate(44.2375 130.807219)scale(0.1 -0.1)">
       <use xlink:href="#DejaVuSans-35"/>
      </g>
     </g>
    </g>
    <g id="ytick_5">
     <g id="line2d_14">
      <g>
       <use style="stroke:#000000;stroke-width:0.8;" x="57.6" xlink:href="#m9bd5bf45c8" y="79.488"/>
      </g>
     </g>
     <g id="text_14">
      <!-- 10 -->
      <g transform="translate(37.875 83.287219)scale(0.1 -0.1)">
       <use xlink:href="#DejaVuSans-31"/>
       <use x="63.623047" xlink:href="#DejaVuSans-30"/>
      </g>
     </g>
    </g>
   </g>
   <g id="patch_3">
    <path d="M 57.6 307.584 
L 57.6 41.472 
" style="fill:none;stroke:#000000;stroke-linecap:square;stroke-linejoin:miter;stroke-width:0.8;"/>
   </g>
   <g id="patch_4">
    <path d="M 414.72 307.584 
L 414.72 41.472 
" style="fill:none;stroke:#000000;stroke-linecap:square;stroke-linejoin:miter;stroke-width:0.8;"/>
   </g>
   <g id="patch_5">
    <path d="M 57.6 307.584 
L 414.72 307.584 
" style="fill:none;stroke:#000000;stroke-linecap:square;stroke-linejoin:miter;stroke-width:0.8;"/>
   </g>
   <g id="patch_6">
    <path d="M 57.6 41.472 
L 414.72 41.472 
" style="fill:none;stroke:#000000;stroke-linecap:square;stroke-linejoin:miter;stroke-width:0.8;"/>
   </g>
  </g>
 </g>
 <defs>
  <clipPath id="pea3a03aee4">
   <rect height="266.112" width="357.12" x="57.6" y="41.472"/>
  </clipPath>
 </defs>
</svg>
