<?xml version="1.0" encoding="utf-8" standalone="no"?>
<!DOCTYPE svg PUBLIC "-//W3C//DTD SVG 1.1//EN"
  "http://www.w3.org/Graphics/SVG/1.1/DTD/svg11.dtd">
<!-- Created with matplotlib (http://matplotlib.org/) -->
<svg height="345.6pt" version="1.1" viewBox="0 0 460.8 345.6" width="460.8pt" xmlns="http://www.w3.org/2000/svg" xmlns:xlink="http://www.w3.org/1999/xlink">
 <defs>
  <style type="text/css">
*{stroke-linecap:butt;stroke-linejoin:round;}
  </style>
 </defs>
 <g id="figure_1">
  <g id="patch_1">
   <path d="M 0 345.6 
L 460.8 345.6 
L 460.8 0 
L 0 0 
z
" style="fill:#ffffff;"/>
  </g>
  <g id="axes_1">
   <g id="patch_2">
    <path d="M 57.6 307.584 
L 414.72 307.584 
L 414.72 41.472 
L 57.6 41.472 
z
" style="fill:#ffffff;"/>
   </g>
   <g id="PathCollection_1">
    <defs>
     <path d="M 0 0.612372 
C 0.162403 0.612372 0.318176 0.547849 0.433013 0.433013 
C 0.547849 0.318176 0.612372 0.162403 0.612372 0 
C 0.612372 -0.162403 0.547849 -0.318176 0.433013 -0.433013 
C 0.318176 -0.547849 0.162403 -0.612372 0 -0.612372 
C -0.162403 -0.612372 -0.318176 -0.547849 -0.433013 -0.433013 
C -0.547849 -0.318176 -0.612372 -0.162403 -0.612372 0 
C -0.612372 0.162403 -0.547849 0.318176 -0.433013 0.433013 
C -0.318176 0.547849 -0.162403 0.612372 0 0.612372 
z
" id="mc3b2bf391c" style="stroke:#000000;"/>
    </defs>
    <g clip-path="url(#p26016cf3ca)">
     <use style="stroke:#000000;" x="81.537561" xlink:href="#mc3b2bf391c" y="83.870443"/>
     <use style="stroke:#000000;" x="104.166799" xlink:href="#mc3b2bf391c" y="129.172015"/>
     <use style="stroke:#000000;" x="117.357221" xlink:href="#mc3b2bf391c" y="138.999073"/>
     <use style="stroke:#000000;" x="120.764983" xlink:href="#mc3b2bf391c" y="141.060283"/>
     <use style="stroke:#000000;" x="81.408" xlink:href="#mc3b2bf391c" y="79.488"/>
     <use style="stroke:#000000;" x="155.825372" xlink:href="#mc3b2bf391c" y="156.05142"/>
     <use style="stroke:#000000;" x="89.637895" xlink:href="#mc3b2bf391c" y="111.543133"/>
     <use style="stroke:#000000;" x="82.749499" xlink:href="#mc3b2bf391c" y="93.220714"/>
     <use style="stroke:#000000;" x="82.807282" xlink:href="#mc3b2bf391c" y="93.5017"/>
     <use style="stroke:#000000;" x="85.409341" xlink:href="#mc3b2bf391c" y="102.532792"/>
     <use style="stroke:#000000;" x="81.600833" xlink:href="#mc3b2bf391c" y="85.298676"/>
     <use style="stroke:#000000;" x="85.460942" xlink:href="#mc3b2bf391c" y="104.197102"/>
     <use style="stroke:#000000;" x="405.1968" xlink:href="#mc3b2bf391c" y="254.3616"/>
     <use style="stroke:#000000;" x="158.452804" xlink:href="#mc3b2bf391c" y="156.862321"/>
     <use style="stroke:#000000;" x="94.050379" xlink:href="#mc3b2bf391c" y="118.242783"/>
     <use style="stroke:#000000;" x="117.180405" xlink:href="#mc3b2bf391c" y="138.887788"/>
     <use style="stroke:#000000;" x="81.408" xlink:href="#mc3b2bf391c" y="79.488"/>
     <use style="stroke:#000000;" x="120.605549" xlink:href="#mc3b2bf391c" y="140.967233"/>
     <use style="stroke:#000000;" x="88.96425" xlink:href="#mc3b2bf391c" y="110.334804"/>
     <use style="stroke:#000000;" x="82.394405" xlink:href="#mc3b2bf391c" y="91.329197"/>
     <use style="stroke:#000000;" x="144.360992" xlink:href="#mc3b2bf391c" y="152.100007"/>
     <use style="stroke:#000000;" x="84.79669" xlink:href="#mc3b2bf391c" y="100.812532"/>
     <use style="stroke:#000000;" x="160.635726" xlink:href="#mc3b2bf391c" y="157.512047"/>
     <use style="stroke:#000000;" x="83.249214" xlink:href="#mc3b2bf391c" y="95.468798"/>
     <use style="stroke:#000000;" x="82.962419" xlink:href="#mc3b2bf391c" y="94.226345"/>
     <use style="stroke:#000000;" x="97.557701" xlink:href="#mc3b2bf391c" y="122.547072"/>
     <use style="stroke:#000000;" x="81.486369" xlink:href="#mc3b2bf391c" y="82.905342"/>
     <use style="stroke:#000000;" x="124.852841" xlink:href="#mc3b2bf391c" y="143.342864"/>
     <use style="stroke:#000000;" x="89.375333" xlink:href="#mc3b2bf391c" y="111.079634"/>
     <use style="stroke:#000000;" x="81.572043" xlink:href="#mc3b2bf391c" y="84.411985"/>
     <use style="stroke:#000000;" x="82.661055" xlink:href="#mc3b2bf391c" y="92.777653"/>
     <use style="stroke:#000000;" x="164.413656" xlink:href="#mc3b2bf391c" y="158.587806"/>
     <use style="stroke:#000000;" x="81.411654" xlink:href="#mc3b2bf391c" y="80.231182"/>
     <use style="stroke:#000000;" x="167.2056" xlink:href="#mc3b2bf391c" y="162.957133"/>
     <use style="stroke:#000000;" x="87.26127" xlink:href="#mc3b2bf391c" y="106.95539"/>
     <use style="stroke:#000000;" x="81.491444" xlink:href="#mc3b2bf391c" y="83.013237"/>
     <use style="stroke:#000000;" x="166.19692" xlink:href="#mc3b2bf391c" y="159.075142"/>
     <use style="stroke:#000000;" x="121.709023" xlink:href="#mc3b2bf391c" y="141.604818"/>
     <use style="stroke:#000000;" x="81.40958" xlink:href="#mc3b2bf391c" y="79.976979"/>
     <use style="stroke:#000000;" x="87.933819" xlink:href="#mc3b2bf391c" y="108.352627"/>
     <use style="stroke:#000000;" x="84.122816" xlink:href="#mc3b2bf391c" y="98.701886"/>
     <use style="stroke:#000000;" x="130.671452" xlink:href="#mc3b2bf391c" y="146.286758"/>
     <use style="stroke:#000000;" x="103.701952" xlink:href="#mc3b2bf391c" y="129.077178"/>
     <use style="stroke:#000000;" x="83.37344" xlink:href="#mc3b2bf391c" y="95.973907"/>
     <use style="stroke:#000000;" x="83.205053" xlink:href="#mc3b2bf391c" y="95.284747"/>
     <use style="stroke:#000000;" x="81.481243" xlink:href="#mc3b2bf391c" y="82.792713"/>
     <use style="stroke:#000000;" x="167.1168" xlink:href="#mc3b2bf391c" y="159.3216"/>
     <use style="stroke:#000000;" x="88.438962" xlink:href="#mc3b2bf391c" y="109.346261"/>
     <use style="stroke:#000000;" x="108.741816" xlink:href="#mc3b2bf391c" y="132.982335"/>
     <use style="stroke:#000000;" x="156.012972" xlink:href="#mc3b2bf391c" y="156.110397"/>
     <use style="stroke:#000000;" x="81.4486" xlink:href="#mc3b2bf391c" y="81.954005"/>
     <use style="stroke:#000000;" x="108.644067" xlink:href="#mc3b2bf391c" y="132.906091"/>
     <use style="stroke:#000000;" x="82.095483" xlink:href="#mc3b2bf391c" y="89.427797"/>
     <use style="stroke:#000000;" x="150.744688" xlink:href="#mc3b2bf391c" y="154.387781"/>
     <use style="stroke:#000000;" x="381.02235" xlink:href="#mc3b2bf391c" y="246.598734"/>
     <use style="stroke:#000000;" x="98.36318" xlink:href="#mc3b2bf391c" y="123.445082"/>
     <use style="stroke:#000000;" x="87.513537" xlink:href="#mc3b2bf391c" y="107.490165"/>
     <use style="stroke:#000000;" x="81.408" xlink:href="#mc3b2bf391c" y="79.488"/>
     <use style="stroke:#000000;" x="81.423579" xlink:href="#mc3b2bf391c" y="81.019387"/>
     <use style="stroke:#000000;" x="84.395768" xlink:href="#mc3b2bf391c" y="99.58887"/>
     <use style="stroke:#000000;" x="129.584128" xlink:href="#mc3b2bf391c" y="145.761283"/>
     <use style="stroke:#000000;" x="81.408194" xlink:href="#mc3b2bf391c" y="79.659574"/>
     <use style="stroke:#000000;" x="147.445799" xlink:href="#mc3b2bf391c" y="153.619815"/>
     <use style="stroke:#000000;" x="83.210641" xlink:href="#mc3b2bf391c" y="95.30817"/>
     <use style="stroke:#000000;" x="156.49963" xlink:href="#mc3b2bf391c" y="156.262606"/>
     <use style="stroke:#000000;" x="81.671435" xlink:href="#mc3b2bf391c" y="85.705669"/>
     <use style="stroke:#000000;" x="84.938057" xlink:href="#mc3b2bf391c" y="101.224286"/>
     <use style="stroke:#000000;" x="116.102792" xlink:href="#mc3b2bf391c" y="138.199706"/>
     <use style="stroke:#000000;" x="165.869294" xlink:href="#mc3b2bf391c" y="158.98656"/>
     <use style="stroke:#000000;" x="82.721457" xlink:href="#mc3b2bf391c" y="93.081994"/>
     <use style="stroke:#000000;" x="168.66845" xlink:href="#mc3b2bf391c" y="174.047367"/>
     <use style="stroke:#000000;" x="81.470792" xlink:href="#mc3b2bf391c" y="82.549856"/>
     <use style="stroke:#000000;" x="167.257379" xlink:href="#mc3b2bf391c" y="163.884348"/>
     <use style="stroke:#000000;" x="83.622653" xlink:href="#mc3b2bf391c" y="96.936683"/>
     <use style="stroke:#000000;" x="82.02626" xlink:href="#mc3b2bf391c" y="88.92755"/>
     <use style="stroke:#000000;" x="81.466235" xlink:href="#mc3b2bf391c" y="82.437553"/>
     <use style="stroke:#000000;" x="117.475484" xlink:href="#mc3b2bf391c" y="139.073255"/>
     <use style="stroke:#000000;" x="380.389957" xlink:href="#mc3b2bf391c" y="246.353337"/>
     <use style="stroke:#000000;" x="124.86333" xlink:href="#mc3b2bf391c" y="143.348478"/>
     <use style="stroke:#000000;" x="120.130301" xlink:href="#mc3b2bf391c" y="140.687965"/>
     <use style="stroke:#000000;" x="81.408" xlink:href="#mc3b2bf391c" y="79.488"/>
     <use style="stroke:#000000;" x="103.678299" xlink:href="#mc3b2bf391c" y="129.12747"/>
     <use style="stroke:#000000;" x="103.84872" xlink:href="#mc3b2bf391c" y="129.711651"/>
     <use style="stroke:#000000;" x="105.6765" xlink:href="#mc3b2bf391c" y="130.761963"/>
     <use style="stroke:#000000;" x="105.512116" xlink:href="#mc3b2bf391c" y="131.424316"/>
     <use style="stroke:#000000;" x="117.122321" xlink:href="#mc3b2bf391c" y="139.564771"/>
     <use style="stroke:#000000;" x="117.767078" xlink:href="#mc3b2bf391c" y="140.924059"/>
     <use style="stroke:#000000;" x="117.170891" xlink:href="#mc3b2bf391c" y="138.881788"/>
     <use style="stroke:#000000;" x="120.952153" xlink:href="#mc3b2bf391c" y="141.169117"/>
     <use style="stroke:#000000;" x="120.488036" xlink:href="#mc3b2bf391c" y="141.367567"/>
     <use style="stroke:#000000;" x="119.943519" xlink:href="#mc3b2bf391c" y="140.577419"/>
     <use style="stroke:#000000;" x="81.408" xlink:href="#mc3b2bf391c" y="79.488"/>
     <use style="stroke:#000000;" x="81.410808" xlink:href="#mc3b2bf391c" y="80.139628"/>
     <use style="stroke:#000000;" x="81.410611" xlink:href="#mc3b2bf391c" y="80.116408"/>
     <use style="stroke:#000000;" x="153.881105" xlink:href="#mc3b2bf391c" y="155.430134"/>
     <use style="stroke:#000000;" x="155.124043" xlink:href="#mc3b2bf391c" y="155.829441"/>
     <use style="stroke:#000000;" x="156.400634" xlink:href="#mc3b2bf391c" y="158.180827"/>
     <use style="stroke:#000000;" x="85.682586" xlink:href="#mc3b2bf391c" y="108.532634"/>
     <use style="stroke:#000000;" x="83.208826" xlink:href="#mc3b2bf391c" y="95.300568"/>
     <use style="stroke:#000000;" x="82.646327" xlink:href="#mc3b2bf391c" y="93.553412"/>
     <use style="stroke:#000000;" x="82.99747" xlink:href="#mc3b2bf391c" y="94.384553"/>
     <use style="stroke:#000000;" x="83.152387" xlink:href="#mc3b2bf391c" y="95.386987"/>
     <use style="stroke:#000000;" x="82.665694" xlink:href="#mc3b2bf391c" y="92.801303"/>
     <use style="stroke:#000000;" x="82.526298" xlink:href="#mc3b2bf391c" y="92.068862"/>
     <use style="stroke:#000000;" x="85.331434" xlink:href="#mc3b2bf391c" y="102.322821"/>
     <use style="stroke:#000000;" x="85.047427" xlink:href="#mc3b2bf391c" y="101.601204"/>
     <use style="stroke:#000000;" x="85.399959" xlink:href="#mc3b2bf391c" y="102.507632"/>
     <use style="stroke:#000000;" x="81.542531" xlink:href="#mc3b2bf391c" y="84.527587"/>
     <use style="stroke:#000000;" x="81.626586" xlink:href="#mc3b2bf391c" y="85.500344"/>
     <use style="stroke:#000000;" x="81.594725" xlink:href="#mc3b2bf391c" y="85.652603"/>
     <use style="stroke:#000000;" x="85.158846" xlink:href="#mc3b2bf391c" y="104.007841"/>
     <use style="stroke:#000000;" x="85.469332" xlink:href="#mc3b2bf391c" y="103.722755"/>
     <use style="stroke:#000000;" x="86.163016" xlink:href="#mc3b2bf391c" y="106.971609"/>
     <use style="stroke:#000000;" x="402.92172" xlink:href="#mc3b2bf391c" y="254.35942"/>
     <use style="stroke:#000000;" x="404.330475" xlink:href="#mc3b2bf391c" y="254.129582"/>
     <use style="stroke:#000000;" x="395.537156" xlink:href="#mc3b2bf391c" y="253.450859"/>
     <use style="stroke:#000000;" x="159.751342" xlink:href="#mc3b2bf391c" y="157.251375"/>
     <use style="stroke:#000000;" x="158.58124" xlink:href="#mc3b2bf391c" y="158.19183"/>
     <use style="stroke:#000000;" x="158.914474" xlink:href="#mc3b2bf391c" y="157.001512"/>
     <use style="stroke:#000000;" x="94.069894" xlink:href="#mc3b2bf391c" y="118.268786"/>
     <use style="stroke:#000000;" x="92.209109" xlink:href="#mc3b2bf391c" y="116.004131"/>
     <use style="stroke:#000000;" x="93.752743" xlink:href="#mc3b2bf391c" y="117.842923"/>
     <use style="stroke:#000000;" x="117.564689" xlink:href="#mc3b2bf391c" y="139.129079"/>
     <use style="stroke:#000000;" x="116.760283" xlink:href="#mc3b2bf391c" y="138.62156"/>
     <use style="stroke:#000000;" x="116.467009" xlink:href="#mc3b2bf391c" y="138.434185"/>
     <use style="stroke:#000000;" x="83.017572" xlink:href="#mc3b2bf391c" y="97.28911"/>
     <use style="stroke:#000000;" x="121.490347" xlink:href="#mc3b2bf391c" y="141.479651"/>
     <use style="stroke:#000000;" x="88.931286" xlink:href="#mc3b2bf391c" y="110.274018"/>
     <use style="stroke:#000000;" x="88.981707" xlink:href="#mc3b2bf391c" y="112.904572"/>
     <use style="stroke:#000000;" x="89.323484" xlink:href="#mc3b2bf391c" y="110.987004"/>
     <use style="stroke:#000000;" x="82.03618" xlink:href="#mc3b2bf391c" y="91.326275"/>
     <use style="stroke:#000000;" x="82.595362" xlink:href="#mc3b2bf391c" y="92.993337"/>
     <use style="stroke:#000000;" x="82.443507" xlink:href="#mc3b2bf391c" y="91.610418"/>
     <use style="stroke:#000000;" x="144.228726" xlink:href="#mc3b2bf391c" y="153.613066"/>
     <use style="stroke:#000000;" x="143.498277" xlink:href="#mc3b2bf391c" y="153.98666"/>
     <use style="stroke:#000000;" x="146.88845" xlink:href="#mc3b2bf391c" y="153.299805"/>
     <use style="stroke:#000000;" x="84.240253" xlink:href="#mc3b2bf391c" y="99.089373"/>
     <use style="stroke:#000000;" x="84.794264" xlink:href="#mc3b2bf391c" y="101.153034"/>
     <use style="stroke:#000000;" x="84.908957" xlink:href="#mc3b2bf391c" y="101.140303"/>
     <use style="stroke:#000000;" x="160.744005" xlink:href="#mc3b2bf391c" y="157.543726"/>
     <use style="stroke:#000000;" x="160.465241" xlink:href="#mc3b2bf391c" y="160.413299"/>
     <use style="stroke:#000000;" x="161.272616" xlink:href="#mc3b2bf391c" y="162.195154"/>
     <use style="stroke:#000000;" x="83.000105" xlink:href="#mc3b2bf391c" y="95.53412"/>
     <use style="stroke:#000000;" x="82.35098" xlink:href="#mc3b2bf391c" y="91.770075"/>
     <use style="stroke:#000000;" x="84.348427" xlink:href="#mc3b2bf391c" y="99.438395"/>
     <use style="stroke:#000000;" x="83.430299" xlink:href="#mc3b2bf391c" y="96.199241"/>
     <use style="stroke:#000000;" x="83.373195" xlink:href="#mc3b2bf391c" y="95.972928"/>
     <use style="stroke:#000000;" x="83.386901" xlink:href="#mc3b2bf391c" y="96.98176"/>
     <use style="stroke:#000000;" x="95.573674" xlink:href="#mc3b2bf391c" y="120.198509"/>
     <use style="stroke:#000000;" x="95.997104" xlink:href="#mc3b2bf391c" y="121.173776"/>
     <use style="stroke:#000000;" x="97.146906" xlink:href="#mc3b2bf391c" y="122.077369"/>
     <use style="stroke:#000000;" x="81.506976" xlink:href="#mc3b2bf391c" y="83.324093"/>
     <use style="stroke:#000000;" x="81.475943" xlink:href="#mc3b2bf391c" y="83.684504"/>
     <use style="stroke:#000000;" x="81.523166" xlink:href="#mc3b2bf391c" y="84.513195"/>
     <use style="stroke:#000000;" x="123.070173" xlink:href="#mc3b2bf391c" y="142.473126"/>
     <use style="stroke:#000000;" x="125.835271" xlink:href="#mc3b2bf391c" y="143.863626"/>
     <use style="stroke:#000000;" x="128.416703" xlink:href="#mc3b2bf391c" y="145.184962"/>
     <use style="stroke:#000000;" x="90.17697" xlink:href="#mc3b2bf391c" y="113.913265"/>
     <use style="stroke:#000000;" x="88.553364" xlink:href="#mc3b2bf391c" y="111.650368"/>
     <use style="stroke:#000000;" x="90.577998" xlink:href="#mc3b2bf391c" y="114.373081"/>
     <use style="stroke:#000000;" x="81.479423" xlink:href="#mc3b2bf391c" y="83.835737"/>
     <use style="stroke:#000000;" x="81.634853" xlink:href="#mc3b2bf391c" y="86.936368"/>
     <use style="stroke:#000000;" x="81.560023" xlink:href="#mc3b2bf391c" y="86.20381"/>
     <use style="stroke:#000000;" x="83.549471" xlink:href="#mc3b2bf391c" y="98.313007"/>
     <use style="stroke:#000000;" x="82.155466" xlink:href="#mc3b2bf391c" y="89.840134"/>
     <use style="stroke:#000000;" x="82.485273" xlink:href="#mc3b2bf391c" y="92.531266"/>
     <use style="stroke:#000000;" x="163.336595" xlink:href="#mc3b2bf391c" y="163.402921"/>
     <use style="stroke:#000000;" x="163.951771" xlink:href="#mc3b2bf391c" y="162.273674"/>
     <use style="stroke:#000000;" x="81.617088" xlink:href="#mc3b2bf391c" y="86.057515"/>
     <use style="stroke:#000000;" x="81.557559" xlink:href="#mc3b2bf391c" y="86.110317"/>
     <use style="stroke:#000000;" x="165.49395" xlink:href="#mc3b2bf391c" y="161.668906"/>
     <use style="stroke:#000000;" x="166.655848" xlink:href="#mc3b2bf391c" y="166.613556"/>
     <use style="stroke:#000000;" x="86.207849" xlink:href="#mc3b2bf391c" y="104.561053"/>
     <use style="stroke:#000000;" x="86.478516" xlink:href="#mc3b2bf391c" y="105.203537"/>
     <use style="stroke:#000000;" x="81.438737" xlink:href="#mc3b2bf391c" y="82.487619"/>
     <use style="stroke:#000000;" x="81.56983" xlink:href="#mc3b2bf391c" y="85.807429"/>
     <use style="stroke:#000000;" x="163.64738" xlink:href="#mc3b2bf391c" y="158.681246"/>
     <use style="stroke:#000000;" x="167.1168" xlink:href="#mc3b2bf391c" y="159.3216"/>
     <use style="stroke:#000000;" x="122.551514" xlink:href="#mc3b2bf391c" y="142.449615"/>
     <use style="stroke:#000000;" x="119.707776" xlink:href="#mc3b2bf391c" y="141.414629"/>
     <use style="stroke:#000000;" x="81.415161" xlink:href="#mc3b2bf391c" y="80.946944"/>
     <use style="stroke:#000000;" x="81.417639" xlink:href="#mc3b2bf391c" y="80.693634"/>
     <use style="stroke:#000000;" x="88.818022" xlink:href="#mc3b2bf391c" y="118.971029"/>
     <use style="stroke:#000000;" x="84.250855" xlink:href="#mc3b2bf391c" y="103.385618"/>
     <use style="stroke:#000000;" x="134.253467" xlink:href="#mc3b2bf391c" y="147.945162"/>
     <use style="stroke:#000000;" x="103.535768" xlink:href="#mc3b2bf391c" y="128.603448"/>
     <use style="stroke:#000000;" x="82.112529" xlink:href="#mc3b2bf391c" y="89.546848"/>
     <use style="stroke:#000000;" x="83.520746" xlink:href="#mc3b2bf391c" y="96.550608"/>
     <use style="stroke:#000000;" x="82.789772" xlink:href="#mc3b2bf391c" y="94.896313"/>
     <use style="stroke:#000000;" x="82.221463" xlink:href="#mc3b2bf391c" y="92.792289"/>
     <use style="stroke:#000000;" x="153.401807" xlink:href="#mc3b2bf391c" y="155.274105"/>
     <use style="stroke:#000000;" x="84.400171" xlink:href="#mc3b2bf391c" y="99.602796"/>
     <use style="stroke:#000000;" x="104.97884" xlink:href="#mc3b2bf391c" y="135.241288"/>
     <use style="stroke:#000000;" x="157.410522" xlink:href="#mc3b2bf391c" y="159.811403"/>
     <use style="stroke:#000000;" x="81.639195" xlink:href="#mc3b2bf391c" y="87.368502"/>
     <use style="stroke:#000000;" x="105.006022" xlink:href="#mc3b2bf391c" y="140.010145"/>
     <use style="stroke:#000000;" x="83.177733" xlink:href="#mc3b2bf391c" y="95.169644"/>
     <use style="stroke:#000000;" x="157.058621" xlink:href="#mc3b2bf391c" y="162.671296"/>
     <use style="stroke:#000000;" x="384.269342" xlink:href="#mc3b2bf391c" y="247.819354"/>
     <use style="stroke:#000000;" x="97.271472" xlink:href="#mc3b2bf391c" y="122.220663"/>
     <use style="stroke:#000000;" x="99.030427" xlink:href="#mc3b2bf391c" y="124.921188"/>
     <use style="stroke:#000000;" x="87.415615" xlink:href="#mc3b2bf391c" y="108.782523"/>
     <use style="stroke:#000000;" x="87.665715" xlink:href="#mc3b2bf391c" y="110.946981"/>
     <use style="stroke:#000000;" x="81.657433" xlink:href="#mc3b2bf391c" y="85.558025"/>
     <use style="stroke:#000000;" x="81.560364" xlink:href="#mc3b2bf391c" y="84.235747"/>
     <use style="stroke:#000000;" x="86.326847" xlink:href="#mc3b2bf391c" y="104.846058"/>
     <use style="stroke:#000000;" x="86.519086" xlink:href="#mc3b2bf391c" y="107.61246"/>
     <use style="stroke:#000000;" x="123.300397" xlink:href="#mc3b2bf391c" y="144.539577"/>
     <use style="stroke:#000000;" x="81.439176" xlink:href="#mc3b2bf391c" y="81.906007"/>
     <use style="stroke:#000000;" x="148.206568" xlink:href="#mc3b2bf391c" y="153.71295"/>
     <use style="stroke:#000000;" x="83.622279" xlink:href="#mc3b2bf391c" y="96.935285"/>
     <use style="stroke:#000000;" x="155.917625" xlink:href="#mc3b2bf391c" y="158.04892"/>
     <use style="stroke:#000000;" x="156.028" xlink:href="#mc3b2bf391c" y="158.396009"/>
     <use style="stroke:#000000;" x="81.42582" xlink:href="#mc3b2bf391c" y="81.125366"/>
     <use style="stroke:#000000;" x="81.573681" xlink:href="#mc3b2bf391c" y="85.953171"/>
     <use style="stroke:#000000;" x="85.089349" xlink:href="#mc3b2bf391c" y="102.81614"/>
     <use style="stroke:#000000;" x="115.398517" xlink:href="#mc3b2bf391c" y="137.751843"/>
     <use style="stroke:#000000;" x="162.990429" xlink:href="#mc3b2bf391c" y="158.18959"/>
     <use style="stroke:#000000;" x="162.056975" xlink:href="#mc3b2bf391c" y="157.923826"/>
     <use style="stroke:#000000;" x="82.059622" xlink:href="#mc3b2bf391c" y="89.525782"/>
     <use style="stroke:#000000;" x="82.952274" xlink:href="#mc3b2bf391c" y="95.172304"/>
     <use style="stroke:#000000;" x="168.95312" xlink:href="#mc3b2bf391c" y="175.282122"/>
     <use style="stroke:#000000;" x="167.333833" xlink:href="#mc3b2bf391c" y="164.973983"/>
     <use style="stroke:#000000;" x="81.554754" xlink:href="#mc3b2bf391c" y="84.148631"/>
     <use style="stroke:#000000;" x="81.421211" xlink:href="#mc3b2bf391c" y="81.327402"/>
     <use style="stroke:#000000;" x="165.948673" xlink:href="#mc3b2bf391c" y="164.81477"/>
     <use style="stroke:#000000;" x="167.427583" xlink:href="#mc3b2bf391c" y="166.06511"/>
     <use style="stroke:#000000;" x="84.049022" xlink:href="#mc3b2bf391c" y="102.749292"/>
     <use style="stroke:#000000;" x="84.730181" xlink:href="#mc3b2bf391c" y="101.97366"/>
     <use style="stroke:#000000;" x="82.04597" xlink:href="#mc3b2bf391c" y="89.072876"/>
     <use style="stroke:#000000;" x="81.623854" xlink:href="#mc3b2bf391c" y="85.125247"/>
     <use style="stroke:#000000;" x="81.842695" xlink:href="#mc3b2bf391c" y="88.329049"/>
     <use style="stroke:#000000;" x="81.51875" xlink:href="#mc3b2bf391c" y="83.859233"/>
     <use style="stroke:#000000;" x="116.812196" xlink:href="#mc3b2bf391c" y="140.49694"/>
     <use style="stroke:#000000;" x="119.634309" xlink:href="#mc3b2bf391c" y="140.393427"/>
     <use style="stroke:#000000;" x="363.232265" xlink:href="#mc3b2bf391c" y="244.633711"/>
     <use style="stroke:#000000;" x="376.928114" xlink:href="#mc3b2bf391c" y="245.742321"/>
     <use style="stroke:#000000;" x="133.464353" xlink:href="#mc3b2bf391c" y="147.589034"/>
     <use style="stroke:#000000;" x="119.431478" xlink:href="#mc3b2bf391c" y="140.272059"/>
     <use style="stroke:#000000;" x="121.851932" xlink:href="#mc3b2bf391c" y="141.686306"/>
     <use style="stroke:#000000;" x="116.41668" xlink:href="#mc3b2bf391c" y="141.436256"/>
    </g>
   </g>
   <g id="PathCollection_2">
    <defs>
     <path d="M 0 0.935414 
C 0.248075 0.935414 0.486022 0.836853 0.661438 0.661438 
C 0.836853 0.486022 0.935414 0.248075 0.935414 0 
C 0.935414 -0.248075 0.836853 -0.486022 0.661438 -0.661438 
C 0.486022 -0.836853 0.248075 -0.935414 0 -0.935414 
C -0.248075 -0.935414 -0.486022 -0.836853 -0.661438 -0.661438 
C -0.836853 -0.486022 -0.935414 -0.248075 -0.935414 0 
C -0.935414 0.248075 -0.836853 0.486022 -0.661438 0.661438 
C -0.486022 0.836853 -0.248075 0.935414 0 0.935414 
z
" id="mca36303f0a" style="stroke:#0000ff;"/>
    </defs>
    <g clip-path="url(#p26016cf3ca)">
     <use style="fill:#0000ff;stroke:#0000ff;" x="81.537561" xlink:href="#mca36303f0a" y="83.870443"/>
     <use style="fill:#0000ff;stroke:#0000ff;" x="104.166799" xlink:href="#mca36303f0a" y="129.172015"/>
     <use style="fill:#0000ff;stroke:#0000ff;" x="117.357221" xlink:href="#mca36303f0a" y="138.999073"/>
     <use style="fill:#0000ff;stroke:#0000ff;" x="120.764983" xlink:href="#mca36303f0a" y="141.060283"/>
     <use style="fill:#0000ff;stroke:#0000ff;" x="81.408" xlink:href="#mca36303f0a" y="79.488"/>
     <use style="fill:#0000ff;stroke:#0000ff;" x="155.825372" xlink:href="#mca36303f0a" y="156.05142"/>
     <use style="fill:#0000ff;stroke:#0000ff;" x="89.637895" xlink:href="#mca36303f0a" y="111.543133"/>
     <use style="fill:#0000ff;stroke:#0000ff;" x="82.749499" xlink:href="#mca36303f0a" y="93.220714"/>
     <use style="fill:#0000ff;stroke:#0000ff;" x="82.807282" xlink:href="#mca36303f0a" y="93.5017"/>
     <use style="fill:#0000ff;stroke:#0000ff;" x="85.409341" xlink:href="#mca36303f0a" y="102.532792"/>
     <use style="fill:#0000ff;stroke:#0000ff;" x="81.600833" xlink:href="#mca36303f0a" y="85.298676"/>
     <use style="fill:#0000ff;stroke:#0000ff;" x="85.460942" xlink:href="#mca36303f0a" y="104.197102"/>
     <use style="fill:#0000ff;stroke:#0000ff;" x="405.1968" xlink:href="#mca36303f0a" y="254.3616"/>
     <use style="fill:#0000ff;stroke:#0000ff;" x="158.452804" xlink:href="#mca36303f0a" y="156.862321"/>
     <use style="fill:#0000ff;stroke:#0000ff;" x="94.050379" xlink:href="#mca36303f0a" y="118.242783"/>
     <use style="fill:#0000ff;stroke:#0000ff;" x="117.180405" xlink:href="#mca36303f0a" y="138.887788"/>
     <use style="fill:#0000ff;stroke:#0000ff;" x="81.408" xlink:href="#mca36303f0a" y="79.488"/>
     <use style="fill:#0000ff;stroke:#0000ff;" x="120.605549" xlink:href="#mca36303f0a" y="140.967233"/>
     <use style="fill:#0000ff;stroke:#0000ff;" x="88.96425" xlink:href="#mca36303f0a" y="110.334804"/>
     <use style="fill:#0000ff;stroke:#0000ff;" x="82.394405" xlink:href="#mca36303f0a" y="91.329197"/>
     <use style="fill:#0000ff;stroke:#0000ff;" x="144.360992" xlink:href="#mca36303f0a" y="152.100007"/>
     <use style="fill:#0000ff;stroke:#0000ff;" x="84.79669" xlink:href="#mca36303f0a" y="100.812532"/>
     <use style="fill:#0000ff;stroke:#0000ff;" x="160.635726" xlink:href="#mca36303f0a" y="157.512047"/>
     <use style="fill:#0000ff;stroke:#0000ff;" x="83.249214" xlink:href="#mca36303f0a" y="95.468798"/>
     <use style="fill:#0000ff;stroke:#0000ff;" x="82.962419" xlink:href="#mca36303f0a" y="94.226345"/>
     <use style="fill:#0000ff;stroke:#0000ff;" x="97.557701" xlink:href="#mca36303f0a" y="122.547072"/>
     <use style="fill:#0000ff;stroke:#0000ff;" x="81.486369" xlink:href="#mca36303f0a" y="82.905342"/>
     <use style="fill:#0000ff;stroke:#0000ff;" x="124.852841" xlink:href="#mca36303f0a" y="143.342864"/>
     <use style="fill:#0000ff;stroke:#0000ff;" x="89.375333" xlink:href="#mca36303f0a" y="111.079634"/>
     <use style="fill:#0000ff;stroke:#0000ff;" x="81.572043" xlink:href="#mca36303f0a" y="84.411985"/>
     <use style="fill:#0000ff;stroke:#0000ff;" x="82.661055" xlink:href="#mca36303f0a" y="92.777653"/>
     <use style="fill:#0000ff;stroke:#0000ff;" x="164.413656" xlink:href="#mca36303f0a" y="158.587806"/>
     <use style="fill:#0000ff;stroke:#0000ff;" x="81.411654" xlink:href="#mca36303f0a" y="80.231182"/>
     <use style="fill:#0000ff;stroke:#0000ff;" x="167.2056" xlink:href="#mca36303f0a" y="162.957133"/>
     <use style="fill:#0000ff;stroke:#0000ff;" x="87.26127" xlink:href="#mca36303f0a" y="106.95539"/>
     <use style="fill:#0000ff;stroke:#0000ff;" x="81.491444" xlink:href="#mca36303f0a" y="83.013237"/>
     <use style="fill:#0000ff;stroke:#0000ff;" x="166.19692" xlink:href="#mca36303f0a" y="159.075142"/>
     <use style="fill:#0000ff;stroke:#0000ff;" x="121.709023" xlink:href="#mca36303f0a" y="141.604818"/>
     <use style="fill:#0000ff;stroke:#0000ff;" x="81.40958" xlink:href="#mca36303f0a" y="79.976979"/>
     <use style="fill:#0000ff;stroke:#0000ff;" x="87.933819" xlink:href="#mca36303f0a" y="108.352627"/>
     <use style="fill:#0000ff;stroke:#0000ff;" x="84.122816" xlink:href="#mca36303f0a" y="98.701886"/>
     <use style="fill:#0000ff;stroke:#0000ff;" x="130.671452" xlink:href="#mca36303f0a" y="146.286758"/>
     <use style="fill:#0000ff;stroke:#0000ff;" x="103.701952" xlink:href="#mca36303f0a" y="129.077178"/>
     <use style="fill:#0000ff;stroke:#0000ff;" x="83.37344" xlink:href="#mca36303f0a" y="95.973907"/>
     <use style="fill:#0000ff;stroke:#0000ff;" x="83.205053" xlink:href="#mca36303f0a" y="95.284747"/>
     <use style="fill:#0000ff;stroke:#0000ff;" x="81.481243" xlink:href="#mca36303f0a" y="82.792713"/>
     <use style="fill:#0000ff;stroke:#0000ff;" x="167.1168" xlink:href="#mca36303f0a" y="159.3216"/>
     <use style="fill:#0000ff;stroke:#0000ff;" x="88.438962" xlink:href="#mca36303f0a" y="109.346261"/>
     <use style="fill:#0000ff;stroke:#0000ff;" x="108.741816" xlink:href="#mca36303f0a" y="132.982335"/>
     <use style="fill:#0000ff;stroke:#0000ff;" x="156.012972" xlink:href="#mca36303f0a" y="156.110397"/>
     <use style="fill:#0000ff;stroke:#0000ff;" x="81.4486" xlink:href="#mca36303f0a" y="81.954005"/>
     <use style="fill:#0000ff;stroke:#0000ff;" x="108.644067" xlink:href="#mca36303f0a" y="132.906091"/>
     <use style="fill:#0000ff;stroke:#0000ff;" x="82.095483" xlink:href="#mca36303f0a" y="89.427797"/>
     <use style="fill:#0000ff;stroke:#0000ff;" x="150.744688" xlink:href="#mca36303f0a" y="154.387781"/>
     <use style="fill:#0000ff;stroke:#0000ff;" x="381.02235" xlink:href="#mca36303f0a" y="246.598734"/>
     <use style="fill:#0000ff;stroke:#0000ff;" x="98.36318" xlink:href="#mca36303f0a" y="123.445082"/>
     <use style="fill:#0000ff;stroke:#0000ff;" x="87.513537" xlink:href="#mca36303f0a" y="107.490165"/>
     <use style="fill:#0000ff;stroke:#0000ff;" x="81.408" xlink:href="#mca36303f0a" y="79.488"/>
     <use style="fill:#0000ff;stroke:#0000ff;" x="81.423579" xlink:href="#mca36303f0a" y="81.019387"/>
     <use style="fill:#0000ff;stroke:#0000ff;" x="84.395768" xlink:href="#mca36303f0a" y="99.58887"/>
     <use style="fill:#0000ff;stroke:#0000ff;" x="129.584128" xlink:href="#mca36303f0a" y="145.761283"/>
     <use style="fill:#0000ff;stroke:#0000ff;" x="81.408194" xlink:href="#mca36303f0a" y="79.659574"/>
     <use style="fill:#0000ff;stroke:#0000ff;" x="147.445799" xlink:href="#mca36303f0a" y="153.619815"/>
     <use style="fill:#0000ff;stroke:#0000ff;" x="83.210641" xlink:href="#mca36303f0a" y="95.30817"/>
     <use style="fill:#0000ff;stroke:#0000ff;" x="156.49963" xlink:href="#mca36303f0a" y="156.262606"/>
     <use style="fill:#0000ff;stroke:#0000ff;" x="81.671435" xlink:href="#mca36303f0a" y="85.705669"/>
     <use style="fill:#0000ff;stroke:#0000ff;" x="84.938057" xlink:href="#mca36303f0a" y="101.224286"/>
     <use style="fill:#0000ff;stroke:#0000ff;" x="116.102792" xlink:href="#mca36303f0a" y="138.199706"/>
     <use style="fill:#0000ff;stroke:#0000ff;" x="165.869294" xlink:href="#mca36303f0a" y="158.98656"/>
     <use style="fill:#0000ff;stroke:#0000ff;" x="82.721457" xlink:href="#mca36303f0a" y="93.081994"/>
     <use style="fill:#0000ff;stroke:#0000ff;" x="168.66845" xlink:href="#mca36303f0a" y="174.047367"/>
     <use style="fill:#0000ff;stroke:#0000ff;" x="81.470792" xlink:href="#mca36303f0a" y="82.549856"/>
     <use style="fill:#0000ff;stroke:#0000ff;" x="167.257379" xlink:href="#mca36303f0a" y="163.884348"/>
     <use style="fill:#0000ff;stroke:#0000ff;" x="83.622653" xlink:href="#mca36303f0a" y="96.936683"/>
     <use style="fill:#0000ff;stroke:#0000ff;" x="82.02626" xlink:href="#mca36303f0a" y="88.92755"/>
     <use style="fill:#0000ff;stroke:#0000ff;" x="81.466235" xlink:href="#mca36303f0a" y="82.437553"/>
     <use style="fill:#0000ff;stroke:#0000ff;" x="117.475484" xlink:href="#mca36303f0a" y="139.073255"/>
     <use style="fill:#0000ff;stroke:#0000ff;" x="380.389957" xlink:href="#mca36303f0a" y="246.353337"/>
     <use style="fill:#0000ff;stroke:#0000ff;" x="124.86333" xlink:href="#mca36303f0a" y="143.348478"/>
     <use style="fill:#0000ff;stroke:#0000ff;" x="120.130301" xlink:href="#mca36303f0a" y="140.687965"/>
    </g>
   </g>
   <g id="matplotlib.axis_1">
    <g id="xtick_1">
     <g id="line2d_1">
      <defs>
       <path d="M 0 0 
L 0 3.5 
" id="m14527d5c64" style="stroke:#000000;stroke-width:0.8;"/>
      </defs>
      <g>
       <use style="stroke:#000000;stroke-width:0.8;" x="81.408" xlink:href="#m14527d5c64" y="307.584"/>
      </g>
     </g>
     <g id="text_1">
      <!-- 0 -->
      <defs>
       <path d="M 31.78125 66.40625 
Q 24.171875 66.40625 20.328125 58.90625 
Q 16.5 51.421875 16.5 36.375 
Q 16.5 21.390625 20.328125 13.890625 
Q 24.171875 6.390625 31.78125 6.390625 
Q 39.453125 6.390625 43.28125 13.890625 
Q 47.125 21.390625 47.125 36.375 
Q 47.125 51.421875 43.28125 58.90625 
Q 39.453125 66.40625 31.78125 66.40625 
z
M 31.78125 74.21875 
Q 44.046875 74.21875 50.515625 64.515625 
Q 56.984375 54.828125 56.984375 36.375 
Q 56.984375 17.96875 50.515625 8.265625 
Q 44.046875 -1.421875 31.78125 -1.421875 
Q 19.53125 -1.421875 13.0625 8.265625 
Q 6.59375 17.96875 6.59375 36.375 
Q 6.59375 54.828125 13.0625 64.515625 
Q 19.53125 74.21875 31.78125 74.21875 
z
" id="DejaVuSans-30"/>
      </defs>
      <g transform="translate(78.22675 322.182437)scale(0.1 -0.1)">
       <use xlink:href="#DejaVuSans-30"/>
      </g>
     </g>
    </g>
    <g id="xtick_2">
     <g id="line2d_2">
      <g>
       <use style="stroke:#000000;stroke-width:0.8;" x="129.024" xlink:href="#m14527d5c64" y="307.584"/>
      </g>
     </g>
     <g id="text_2">
      <!-- 20 -->
      <defs>
       <path d="M 19.1875 8.296875 
L 53.609375 8.296875 
L 53.609375 0 
L 7.328125 0 
L 7.328125 8.296875 
Q 12.9375 14.109375 22.625 23.890625 
Q 32.328125 33.6875 34.8125 36.53125 
Q 39.546875 41.84375 41.421875 45.53125 
Q 43.3125 49.21875 43.3125 52.78125 
Q 43.3125 58.59375 39.234375 62.25 
Q 35.15625 65.921875 28.609375 65.921875 
Q 23.96875 65.921875 18.8125 64.3125 
Q 13.671875 62.703125 7.8125 59.421875 
L 7.8125 69.390625 
Q 13.765625 71.78125 18.9375 73 
Q 24.125 74.21875 28.421875 74.21875 
Q 39.75 74.21875 46.484375 68.546875 
Q 53.21875 62.890625 53.21875 53.421875 
Q 53.21875 48.921875 51.53125 44.890625 
Q 49.859375 40.875 45.40625 35.40625 
Q 44.1875 33.984375 37.640625 27.21875 
Q 31.109375 20.453125 19.1875 8.296875 
z
" id="DejaVuSans-32"/>
      </defs>
      <g transform="translate(122.6615 322.182437)scale(0.1 -0.1)">
       <use xlink:href="#DejaVuSans-32"/>
       <use x="63.623047" xlink:href="#DejaVuSans-30"/>
      </g>
     </g>
    </g>
    <g id="xtick_3">
     <g id="line2d_3">
      <g>
       <use style="stroke:#000000;stroke-width:0.8;" x="176.64" xlink:href="#m14527d5c64" y="307.584"/>
      </g>
     </g>
     <g id="text_3">
      <!-- 40 -->
      <defs>
       <path d="M 37.796875 64.3125 
L 12.890625 25.390625 
L 37.796875 25.390625 
z
M 35.203125 72.90625 
L 47.609375 72.90625 
L 47.609375 25.390625 
L 58.015625 25.390625 
L 58.015625 17.1875 
L 47.609375 17.1875 
L 47.609375 0 
L 37.796875 0 
L 37.796875 17.1875 
L 4.890625 17.1875 
L 4.890625 26.703125 
z
" id="DejaVuSans-34"/>
      </defs>
      <g transform="translate(170.2775 322.182437)scale(0.1 -0.1)">
       <use xlink:href="#DejaVuSans-34"/>
       <use x="63.623047" xlink:href="#DejaVuSans-30"/>
      </g>
     </g>
    </g>
    <g id="xtick_4">
     <g id="line2d_4">
      <g>
       <use style="stroke:#000000;stroke-width:0.8;" x="224.256" xlink:href="#m14527d5c64" y="307.584"/>
      </g>
     </g>
     <g id="text_4">
      <!-- 60 -->
      <defs>
       <path d="M 33.015625 40.375 
Q 26.375 40.375 22.484375 35.828125 
Q 18.609375 31.296875 18.609375 23.390625 
Q 18.609375 15.53125 22.484375 10.953125 
Q 26.375 6.390625 33.015625 6.390625 
Q 39.65625 6.390625 43.53125 10.953125 
Q 47.40625 15.53125 47.40625 23.390625 
Q 47.40625 31.296875 43.53125 35.828125 
Q 39.65625 40.375 33.015625 40.375 
z
M 52.59375 71.296875 
L 52.59375 62.3125 
Q 48.875 64.0625 45.09375 64.984375 
Q 41.3125 65.921875 37.59375 65.921875 
Q 27.828125 65.921875 22.671875 59.328125 
Q 17.53125 52.734375 16.796875 39.40625 
Q 19.671875 43.65625 24.015625 45.921875 
Q 28.375 48.1875 33.59375 48.1875 
Q 44.578125 48.1875 50.953125 41.515625 
Q 57.328125 34.859375 57.328125 23.390625 
Q 57.328125 12.15625 50.6875 5.359375 
Q 44.046875 -1.421875 33.015625 -1.421875 
Q 20.359375 -1.421875 13.671875 8.265625 
Q 6.984375 17.96875 6.984375 36.375 
Q 6.984375 53.65625 15.1875 63.9375 
Q 23.390625 74.21875 37.203125 74.21875 
Q 40.921875 74.21875 44.703125 73.484375 
Q 48.484375 72.75 52.59375 71.296875 
z
" id="DejaVuSans-36"/>
      </defs>
      <g transform="translate(217.8935 322.182437)scale(0.1 -0.1)">
       <use xlink:href="#DejaVuSans-36"/>
       <use x="63.623047" xlink:href="#DejaVuSans-30"/>
      </g>
     </g>
    </g>
    <g id="xtick_5">
     <g id="line2d_5">
      <g>
       <use style="stroke:#000000;stroke-width:0.8;" x="271.872" xlink:href="#m14527d5c64" y="307.584"/>
      </g>
     </g>
     <g id="text_5">
      <!-- 80 -->
      <defs>
       <path d="M 31.78125 34.625 
Q 24.75 34.625 20.71875 30.859375 
Q 16.703125 27.09375 16.703125 20.515625 
Q 16.703125 13.921875 20.71875 10.15625 
Q 24.75 6.390625 31.78125 6.390625 
Q 38.8125 6.390625 42.859375 10.171875 
Q 46.921875 13.96875 46.921875 20.515625 
Q 46.921875 27.09375 42.890625 30.859375 
Q 38.875 34.625 31.78125 34.625 
z
M 21.921875 38.8125 
Q 15.578125 40.375 12.03125 44.71875 
Q 8.5 49.078125 8.5 55.328125 
Q 8.5 64.0625 14.71875 69.140625 
Q 20.953125 74.21875 31.78125 74.21875 
Q 42.671875 74.21875 48.875 69.140625 
Q 55.078125 64.0625 55.078125 55.328125 
Q 55.078125 49.078125 51.53125 44.71875 
Q 48 40.375 41.703125 38.8125 
Q 48.828125 37.15625 52.796875 32.3125 
Q 56.78125 27.484375 56.78125 20.515625 
Q 56.78125 9.90625 50.3125 4.234375 
Q 43.84375 -1.421875 31.78125 -1.421875 
Q 19.734375 -1.421875 13.25 4.234375 
Q 6.78125 9.90625 6.78125 20.515625 
Q 6.78125 27.484375 10.78125 32.3125 
Q 14.796875 37.15625 21.921875 38.8125 
z
M 18.3125 54.390625 
Q 18.3125 48.734375 21.84375 45.5625 
Q 25.390625 42.390625 31.78125 42.390625 
Q 38.140625 42.390625 41.71875 45.5625 
Q 45.3125 48.734375 45.3125 54.390625 
Q 45.3125 60.0625 41.71875 63.234375 
Q 38.140625 66.40625 31.78125 66.40625 
Q 25.390625 66.40625 21.84375 63.234375 
Q 18.3125 60.0625 18.3125 54.390625 
z
" id="DejaVuSans-38"/>
      </defs>
      <g transform="translate(265.5095 322.182437)scale(0.1 -0.1)">
       <use xlink:href="#DejaVuSans-38"/>
       <use x="63.623047" xlink:href="#DejaVuSans-30"/>
      </g>
     </g>
    </g>
    <g id="xtick_6">
     <g id="line2d_6">
      <g>
       <use style="stroke:#000000;stroke-width:0.8;" x="319.488" xlink:href="#m14527d5c64" y="307.584"/>
      </g>
     </g>
     <g id="text_6">
      <!-- 100 -->
      <defs>
       <path d="M 12.40625 8.296875 
L 28.515625 8.296875 
L 28.515625 63.921875 
L 10.984375 60.40625 
L 10.984375 69.390625 
L 28.421875 72.90625 
L 38.28125 72.90625 
L 38.28125 8.296875 
L 54.390625 8.296875 
L 54.390625 0 
L 12.40625 0 
z
" id="DejaVuSans-31"/>
      </defs>
      <g transform="translate(309.94425 322.182437)scale(0.1 -0.1)">
       <use xlink:href="#DejaVuSans-31"/>
       <use x="63.623047" xlink:href="#DejaVuSans-30"/>
       <use x="127.246094" xlink:href="#DejaVuSans-30"/>
      </g>
     </g>
    </g>
    <g id="xtick_7">
     <g id="line2d_7">
      <g>
       <use style="stroke:#000000;stroke-width:0.8;" x="367.104" xlink:href="#m14527d5c64" y="307.584"/>
      </g>
     </g>
     <g id="text_7">
      <!-- 120 -->
      <g transform="translate(357.56025 322.182437)scale(0.1 -0.1)">
       <use xlink:href="#DejaVuSans-31"/>
       <use x="63.623047" xlink:href="#DejaVuSans-32"/>
       <use x="127.246094" xlink:href="#DejaVuSans-30"/>
      </g>
     </g>
    </g>
    <g id="xtick_8">
     <g id="line2d_8">
      <g>
       <use style="stroke:#000000;stroke-width:0.8;" x="414.72" xlink:href="#m14527d5c64" y="307.584"/>
      </g>
     </g>
     <g id="text_8">
      <!-- 140 -->
      <g transform="translate(405.17625 322.182437)scale(0.1 -0.1)">
       <use xlink:href="#DejaVuSans-31"/>
       <use x="63.623047" xlink:href="#DejaVuSans-34"/>
       <use x="127.246094" xlink:href="#DejaVuSans-30"/>
      </g>
     </g>
    </g>
   </g>
   <g id="matplotlib.axis_2">
    <g id="ytick_1">
     <g id="line2d_9">
      <defs>
       <path d="M 0 0 
L -3.5 0 
" id="m5b4040face" style="stroke:#000000;stroke-width:0.8;"/>
      </defs>
      <g>
       <use style="stroke:#000000;stroke-width:0.8;" x="57.6" xlink:href="#m5b4040face" y="307.584"/>
      </g>
     </g>
     <g id="text_9">
      <!-- −10 -->
      <defs>
       <path d="M 10.59375 35.5 
L 73.1875 35.5 
L 73.1875 27.203125 
L 10.59375 27.203125 
z
" id="DejaVuSans-2212"/>
      </defs>
      <g transform="translate(29.495313 311.383219)scale(0.1 -0.1)">
       <use xlink:href="#DejaVuSans-2212"/>
       <use x="83.789062" xlink:href="#DejaVuSans-31"/>
       <use x="147.412109" xlink:href="#DejaVuSans-30"/>
      </g>
     </g>
    </g>
    <g id="ytick_2">
     <g id="line2d_10">
      <g>
       <use style="stroke:#000000;stroke-width:0.8;" x="57.6" xlink:href="#m5b4040face" y="269.568"/>
      </g>
     </g>
     <g id="text_10">
      <!-- 0 -->
      <g transform="translate(44.2375 273.367219)scale(0.1 -0.1)">
       <use xlink:href="#DejaVuSans-30"/>
      </g>
     </g>
    </g>
    <g id="ytick_3">
     <g id="line2d_11">
      <g>
       <use style="stroke:#000000;stroke-width:0.8;" x="57.6" xlink:href="#m5b4040face" y="231.552"/>
      </g>
     </g>
     <g id="text_11">
      <!-- 10 -->
      <g transform="translate(37.875 235.351219)scale(0.1 -0.1)">
       <use xlink:href="#DejaVuSans-31"/>
       <use x="63.623047" xlink:href="#DejaVuSans-30"/>
      </g>
     </g>
    </g>
    <g id="ytick_4">
     <g id="line2d_12">
      <g>
       <use style="stroke:#000000;stroke-width:0.8;" x="57.6" xlink:href="#m5b4040face" y="193.536"/>
      </g>
     </g>
     <g id="text_12">
      <!-- 20 -->
      <g transform="translate(37.875 197.335219)scale(0.1 -0.1)">
       <use xlink:href="#DejaVuSans-32"/>
       <use x="63.623047" xlink:href="#DejaVuSans-30"/>
      </g>
     </g>
    </g>
    <g id="ytick_5">
     <g id="line2d_13">
      <g>
       <use style="stroke:#000000;stroke-width:0.8;" x="57.6" xlink:href="#m5b4040face" y="155.52"/>
      </g>
     </g>
     <g id="text_13">
      <!-- 30 -->
      <defs>
       <path d="M 40.578125 39.3125 
Q 47.65625 37.796875 51.625 33 
Q 55.609375 28.21875 55.609375 21.1875 
Q 55.609375 10.40625 48.1875 4.484375 
Q 40.765625 -1.421875 27.09375 -1.421875 
Q 22.515625 -1.421875 17.65625 -0.515625 
Q 12.796875 0.390625 7.625 2.203125 
L 7.625 11.71875 
Q 11.71875 9.328125 16.59375 8.109375 
Q 21.484375 6.890625 26.8125 6.890625 
Q 36.078125 6.890625 40.9375 10.546875 
Q 45.796875 14.203125 45.796875 21.1875 
Q 45.796875 27.640625 41.28125 31.265625 
Q 36.765625 34.90625 28.71875 34.90625 
L 20.21875 34.90625 
L 20.21875 43.015625 
L 29.109375 43.015625 
Q 36.375 43.015625 40.234375 45.921875 
Q 44.09375 48.828125 44.09375 54.296875 
Q 44.09375 59.90625 40.109375 62.90625 
Q 36.140625 65.921875 28.71875 65.921875 
Q 24.65625 65.921875 20.015625 65.03125 
Q 15.375 64.15625 9.8125 62.3125 
L 9.8125 71.09375 
Q 15.4375 72.65625 20.34375 73.4375 
Q 25.25 74.21875 29.59375 74.21875 
Q 40.828125 74.21875 47.359375 69.109375 
Q 53.90625 64.015625 53.90625 55.328125 
Q 53.90625 49.265625 50.4375 45.09375 
Q 46.96875 40.921875 40.578125 39.3125 
z
" id="DejaVuSans-33"/>
      </defs>
      <g transform="translate(37.875 159.319219)scale(0.1 -0.1)">
       <use xlink:href="#DejaVuSans-33"/>
       <use x="63.623047" xlink:href="#DejaVuSans-30"/>
      </g>
     </g>
    </g>
    <g id="ytick_6">
     <g id="line2d_14">
      <g>
       <use style="stroke:#000000;stroke-width:0.8;" x="57.6" xlink:href="#m5b4040face" y="117.504"/>
      </g>
     </g>
     <g id="text_14">
      <!-- 40 -->
      <g transform="translate(37.875 121.303219)scale(0.1 -0.1)">
       <use xlink:href="#DejaVuSans-34"/>
       <use x="63.623047" xlink:href="#DejaVuSans-30"/>
      </g>
     </g>
    </g>
    <g id="ytick_7">
     <g id="line2d_15">
      <g>
       <use style="stroke:#000000;stroke-width:0.8;" x="57.6" xlink:href="#m5b4040face" y="79.488"/>
      </g>
     </g>
     <g id="text_15">
      <!-- 50 -->
      <defs>
       <path d="M 10.796875 72.90625 
L 49.515625 72.90625 
L 49.515625 64.59375 
L 19.828125 64.59375 
L 19.828125 46.734375 
Q 21.96875 47.46875 24.109375 47.828125 
Q 26.265625 48.1875 28.421875 48.1875 
Q 40.625 48.1875 47.75 41.5 
Q 54.890625 34.8125 54.890625 23.390625 
Q 54.890625 11.625 47.5625 5.09375 
Q 40.234375 -1.421875 26.90625 -1.421875 
Q 22.3125 -1.421875 17.546875 -0.640625 
Q 12.796875 0.140625 7.71875 1.703125 
L 7.71875 11.625 
Q 12.109375 9.234375 16.796875 8.0625 
Q 21.484375 6.890625 26.703125 6.890625 
Q 35.15625 6.890625 40.078125 11.328125 
Q 45.015625 15.765625 45.015625 23.390625 
Q 45.015625 31 40.078125 35.4375 
Q 35.15625 39.890625 26.703125 39.890625 
Q 22.75 39.890625 18.8125 39.015625 
Q 14.890625 38.140625 10.796875 36.28125 
z
" id="DejaVuSans-35"/>
      </defs>
      <g transform="translate(37.875 83.287219)scale(0.1 -0.1)">
       <use xlink:href="#DejaVuSans-35"/>
       <use x="63.623047" xlink:href="#DejaVuSans-30"/>
      </g>
     </g>
    </g>
    <g id="ytick_8">
     <g id="line2d_16">
      <g>
       <use style="stroke:#000000;stroke-width:0.8;" x="57.6" xlink:href="#m5b4040face" y="41.472"/>
      </g>
     </g>
     <g id="text_16">
      <!-- 60 -->
      <g transform="translate(37.875 45.271219)scale(0.1 -0.1)">
       <use xlink:href="#DejaVuSans-36"/>
       <use x="63.623047" xlink:href="#DejaVuSans-30"/>
      </g>
     </g>
    </g>
   </g>
   <g id="patch_3">
    <path d="M 57.6 307.584 
L 57.6 41.472 
" style="fill:none;stroke:#000000;stroke-linecap:square;stroke-linejoin:miter;stroke-width:0.8;"/>
   </g>
   <g id="patch_4">
    <path d="M 414.72 307.584 
L 414.72 41.472 
" style="fill:none;stroke:#000000;stroke-linecap:square;stroke-linejoin:miter;stroke-width:0.8;"/>
   </g>
   <g id="patch_5">
    <path d="M 57.6 307.584 
L 414.72 307.584 
" style="fill:none;stroke:#000000;stroke-linecap:square;stroke-linejoin:miter;stroke-width:0.8;"/>
   </g>
   <g id="patch_6">
    <path d="M 57.6 41.472 
L 414.72 41.472 
" style="fill:none;stroke:#000000;stroke-linecap:square;stroke-linejoin:miter;stroke-width:0.8;"/>
   </g>
  </g>
 </g>
 <defs>
  <clipPath id="p26016cf3ca">
   <rect height="266.112" width="357.12" x="57.6" y="41.472"/>
  </clipPath>
 </defs>
</svg>
