<?xml version="1.0" encoding="utf-8" standalone="no"?>
<!DOCTYPE svg PUBLIC "-//W3C//DTD SVG 1.1//EN"
  "http://www.w3.org/Graphics/SVG/1.1/DTD/svg11.dtd">
<!-- Created with matplotlib (http://matplotlib.org/) -->
<svg height="345.6pt" version="1.1" viewBox="0 0 460.8 345.6" width="460.8pt" xmlns="http://www.w3.org/2000/svg" xmlns:xlink="http://www.w3.org/1999/xlink">
 <defs>
  <style type="text/css">
*{stroke-linecap:butt;stroke-linejoin:round;}
  </style>
 </defs>
 <g id="figure_1">
  <g id="patch_1">
   <path d="M 0 345.6 
L 460.8 345.6 
L 460.8 0 
L 0 0 
z
" style="fill:#ffffff;"/>
  </g>
  <g id="axes_1">
   <g id="patch_2">
    <path d="M 57.6 307.584 
L 414.72 307.584 
L 414.72 41.472 
L 57.6 41.472 
z
" style="fill:#ffffff;"/>
   </g>
   <g id="PathCollection_1">
    <defs>
     <path d="M 0 0.612372 
C 0.162403 0.612372 0.318176 0.547849 0.433013 0.433013 
C 0.547849 0.318176 0.612372 0.162403 0.612372 0 
C 0.612372 -0.162403 0.547849 -0.318176 0.433013 -0.433013 
C 0.318176 -0.547849 0.162403 -0.612372 0 -0.612372 
C -0.162403 -0.612372 -0.318176 -0.547849 -0.433013 -0.433013 
C -0.547849 -0.318176 -0.612372 -0.162403 -0.612372 0 
C -0.612372 0.162403 -0.547849 0.318176 -0.433013 0.433013 
C -0.318176 0.547849 -0.162403 0.612372 0 0.612372 
z
" id="mdea5deec3c" style="stroke:#000000;"/>
    </defs>
    <g clip-path="url(#pc3e93a5762)">
     <use style="stroke:#000000;" x="338.862336" xlink:href="#mdea5deec3c" y="123.963129"/>
     <use style="stroke:#000000;" x="327.175936" xlink:href="#mdea5deec3c" y="103.676672"/>
     <use style="stroke:#000000;" x="312.333049" xlink:href="#mdea5deec3c" y="96.320616"/>
     <use style="stroke:#000000;" x="307.463491" xlink:href="#mdea5deec3c" y="85.631782"/>
     <use style="stroke:#000000;" x="387.932573" xlink:href="#mdea5deec3c" y="171.565938"/>
     <use style="stroke:#000000;" x="315.033848" xlink:href="#mdea5deec3c" y="99.903361"/>
     <use style="stroke:#000000;" x="337.015629" xlink:href="#mdea5deec3c" y="121.04194"/>
     <use style="stroke:#000000;" x="301.345182" xlink:href="#mdea5deec3c" y="74.750124"/>
     <use style="stroke:#000000;" x="379.840735" xlink:href="#mdea5deec3c" y="159.916763"/>
     <use style="stroke:#000000;" x="290.569879" xlink:href="#mdea5deec3c" y="64.67713"/>
     <use style="stroke:#000000;" x="339.727727" xlink:href="#mdea5deec3c" y="125.742968"/>
     <use style="stroke:#000000;" x="323.738855" xlink:href="#mdea5deec3c" y="102.356069"/>
     <use style="stroke:#000000;" x="339.863988" xlink:href="#mdea5deec3c" y="126.551327"/>
     <use style="stroke:#000000;" x="345.159361" xlink:href="#mdea5deec3c" y="136.281718"/>
     <use style="stroke:#000000;" x="324.651237" xlink:href="#mdea5deec3c" y="103.4335"/>
     <use style="stroke:#000000;" x="393.392087" xlink:href="#mdea5deec3c" y="181.212883"/>
     <use style="stroke:#000000;" x="296.714624" xlink:href="#mdea5deec3c" y="68.473364"/>
     <use style="stroke:#000000;" x="342.253178" xlink:href="#mdea5deec3c" y="131.418323"/>
     <use style="stroke:#000000;" x="311.377738" xlink:href="#mdea5deec3c" y="92.315614"/>
     <use style="stroke:#000000;" x="312.30525" xlink:href="#mdea5deec3c" y="94.780718"/>
     <use style="stroke:#000000;" x="314.894696" xlink:href="#mdea5deec3c" y="98.187055"/>
     <use style="stroke:#000000;" x="290.061151" xlink:href="#mdea5deec3c" y="64.131377"/>
     <use style="stroke:#000000;" x="306.399027" xlink:href="#mdea5deec3c" y="84.277587"/>
     <use style="stroke:#000000;" x="310.425463" xlink:href="#mdea5deec3c" y="91.127841"/>
     <use style="stroke:#000000;" x="391.186384" xlink:href="#mdea5deec3c" y="174.045653"/>
     <use style="stroke:#000000;" x="309.685657" xlink:href="#mdea5deec3c" y="89.735911"/>
     <use style="stroke:#000000;" x="334.052738" xlink:href="#mdea5deec3c" y="114.797281"/>
     <use style="stroke:#000000;" x="293.470481" xlink:href="#mdea5deec3c" y="66.023689"/>
     <use style="stroke:#000000;" x="348.357884" xlink:href="#mdea5deec3c" y="137.656235"/>
     <use style="stroke:#000000;" x="374.116611" xlink:href="#mdea5deec3c" y="150.762867"/>
     <use style="stroke:#000000;" x="370.854595" xlink:href="#mdea5deec3c" y="140.902154"/>
     <use style="stroke:#000000;" x="299.628016" xlink:href="#mdea5deec3c" y="72.581812"/>
     <use style="stroke:#000000;" x="329.638675" xlink:href="#mdea5deec3c" y="106.8808"/>
     <use style="stroke:#000000;" x="323.433588" xlink:href="#mdea5deec3c" y="101.752103"/>
     <use style="stroke:#000000;" x="293.390927" xlink:href="#mdea5deec3c" y="65.466817"/>
     <use style="stroke:#000000;" x="297.007814" xlink:href="#mdea5deec3c" y="69.114568"/>
     <use style="stroke:#000000;" x="301.002487" xlink:href="#mdea5deec3c" y="74.404973"/>
     <use style="stroke:#000000;" x="328.107186" xlink:href="#mdea5deec3c" y="104.915"/>
     <use style="stroke:#000000;" x="346.917506" xlink:href="#mdea5deec3c" y="137.297728"/>
     <use style="stroke:#000000;" x="322.499445" xlink:href="#mdea5deec3c" y="101.617811"/>
     <use style="stroke:#000000;" x="333.350433" xlink:href="#mdea5deec3c" y="113.599647"/>
     <use style="stroke:#000000;" x="384.980133" xlink:href="#mdea5deec3c" y="167.785486"/>
     <use style="stroke:#000000;" x="306.865866" xlink:href="#mdea5deec3c" y="84.409481"/>
     <use style="stroke:#000000;" x="328.76998" xlink:href="#mdea5deec3c" y="106.262993"/>
     <use style="stroke:#000000;" x="341.140454" xlink:href="#mdea5deec3c" y="129.062194"/>
     <use style="stroke:#000000;" x="329.166648" xlink:href="#mdea5deec3c" y="106.514851"/>
     <use style="stroke:#000000;" x="298.452921" xlink:href="#mdea5deec3c" y="70.904368"/>
     <use style="stroke:#000000;" x="342.554121" xlink:href="#mdea5deec3c" y="131.431526"/>
     <use style="stroke:#000000;" x="310.642324" xlink:href="#mdea5deec3c" y="91.416873"/>
     <use style="stroke:#000000;" x="304.087011" xlink:href="#mdea5deec3c" y="80.012979"/>
     <use style="stroke:#000000;" x="332.062068" xlink:href="#mdea5deec3c" y="112.033355"/>
     <use style="stroke:#000000;" x="299.850098" xlink:href="#mdea5deec3c" y="73.477975"/>
     <use style="stroke:#000000;" x="378.039726" xlink:href="#mdea5deec3c" y="155.439434"/>
     <use style="stroke:#000000;" x="344.196545" xlink:href="#mdea5deec3c" y="133.882017"/>
     <use style="stroke:#000000;" x="345.744631" xlink:href="#mdea5deec3c" y="136.792203"/>
     <use style="stroke:#000000;" x="313.092277" xlink:href="#mdea5deec3c" y="97.838848"/>
     <use style="stroke:#000000;" x="334.805131" xlink:href="#mdea5deec3c" y="117.23385"/>
     <use style="stroke:#000000;" x="338.531029" xlink:href="#mdea5deec3c" y="123.554474"/>
     <use style="stroke:#000000;" x="342.760303" xlink:href="#mdea5deec3c" y="131.485011"/>
     <use style="stroke:#000000;" x="335.275345" xlink:href="#mdea5deec3c" y="117.326207"/>
     <use style="stroke:#000000;" x="334.303637" xlink:href="#mdea5deec3c" y="235.272599"/>
     <use style="stroke:#000000;" x="327.460351" xlink:href="#mdea5deec3c" y="113.32984"/>
     <use style="stroke:#000000;" x="327.604778" xlink:href="#mdea5deec3c" y="106.244298"/>
     <use style="stroke:#000000;" x="330.786633" xlink:href="#mdea5deec3c" y="111.682823"/>
     <use style="stroke:#000000;" x="327.901352" xlink:href="#mdea5deec3c" y="105.207085"/>
     <use style="stroke:#000000;" x="335.509682" xlink:href="#mdea5deec3c" y="146.945501"/>
     <use style="stroke:#000000;" x="258.435823" xlink:href="#mdea5deec3c" y="208.294998"/>
     <use style="stroke:#000000;" x="383.048439" xlink:href="#mdea5deec3c" y="174.988359"/>
     <use style="stroke:#000000;" x="313.879485" xlink:href="#mdea5deec3c" y="118.780852"/>
     <use style="stroke:#000000;" x="363.045804" xlink:href="#mdea5deec3c" y="169.27293"/>
     <use style="stroke:#000000;" x="330.533044" xlink:href="#mdea5deec3c" y="170.912399"/>
     <use style="stroke:#000000;" x="343.743847" xlink:href="#mdea5deec3c" y="152.027892"/>
     <use style="stroke:#000000;" x="309.478101" xlink:href="#mdea5deec3c" y="128.920601"/>
     <use style="stroke:#000000;" x="342.088189" xlink:href="#mdea5deec3c" y="132.371796"/>
     <use style="stroke:#000000;" x="346.133443" xlink:href="#mdea5deec3c" y="147.067395"/>
     <use style="stroke:#000000;" x="357.032535" xlink:href="#mdea5deec3c" y="155.03835"/>
     <use style="stroke:#000000;" x="360.230092" xlink:href="#mdea5deec3c" y="171.286882"/>
     <use style="stroke:#000000;" x="306.080995" xlink:href="#mdea5deec3c" y="162.27599"/>
     <use style="stroke:#000000;" x="400.421202" xlink:href="#mdea5deec3c" y="177.547478"/>
     <use style="stroke:#000000;" x="282.498409" xlink:href="#mdea5deec3c" y="172.918994"/>
     <use style="stroke:#000000;" x="322.765457" xlink:href="#mdea5deec3c" y="118.681123"/>
     <use style="stroke:#000000;" x="318.231971" xlink:href="#mdea5deec3c" y="114.767371"/>
     <use style="stroke:#000000;" x="256.116243" xlink:href="#mdea5deec3c" y="262.994396"/>
     <use style="stroke:#000000;" x="336.074391" xlink:href="#mdea5deec3c" y="137.849869"/>
     <use style="stroke:#000000;" x="250.958757" xlink:href="#mdea5deec3c" y="143.832046"/>
     <use style="stroke:#000000;" x="284.997654" xlink:href="#mdea5deec3c" y="72.592422"/>
     <use style="stroke:#000000;" x="327.444155" xlink:href="#mdea5deec3c" y="187.925227"/>
     <use style="stroke:#000000;" x="324.862519" xlink:href="#mdea5deec3c" y="124.805072"/>
     <use style="stroke:#000000;" x="302.869564" xlink:href="#mdea5deec3c" y="89.678531"/>
     <use style="stroke:#000000;" x="293.342996" xlink:href="#mdea5deec3c" y="170.182055"/>
     <use style="stroke:#000000;" x="405.926195" xlink:href="#mdea5deec3c" y="177.73782"/>
     <use style="stroke:#000000;" x="384.501525" xlink:href="#mdea5deec3c" y="176.193246"/>
     <use style="stroke:#000000;" x="291.293729" xlink:href="#mdea5deec3c" y="64.407564"/>
     <use style="stroke:#000000;" x="334.649996" xlink:href="#mdea5deec3c" y="130.678538"/>
     <use style="stroke:#000000;" x="348.433602" xlink:href="#mdea5deec3c" y="139.225566"/>
     <use style="stroke:#000000;" x="340.465311" xlink:href="#mdea5deec3c" y="133.820056"/>
     <use style="stroke:#000000;" x="274.651013" xlink:href="#mdea5deec3c" y="191.900962"/>
     <use style="stroke:#000000;" x="285.41805" xlink:href="#mdea5deec3c" y="73.1567"/>
     <use style="stroke:#000000;" x="347.653363" xlink:href="#mdea5deec3c" y="167.273149"/>
     <use style="stroke:#000000;" x="350.99678" xlink:href="#mdea5deec3c" y="154.363407"/>
     <use style="stroke:#000000;" x="361.599409" xlink:href="#mdea5deec3c" y="142.161456"/>
     <use style="stroke:#000000;" x="348.707468" xlink:href="#mdea5deec3c" y="169.745664"/>
     <use style="stroke:#000000;" x="348.813391" xlink:href="#mdea5deec3c" y="142.547561"/>
     <use style="stroke:#000000;" x="341.473741" xlink:href="#mdea5deec3c" y="183.777378"/>
     <use style="stroke:#000000;" x="295.032983" xlink:href="#mdea5deec3c" y="138.07182"/>
     <use style="stroke:#000000;" x="298.953941" xlink:href="#mdea5deec3c" y="126.097869"/>
     <use style="stroke:#000000;" x="331.446072" xlink:href="#mdea5deec3c" y="123.650569"/>
     <use style="stroke:#000000;" x="340.008224" xlink:href="#mdea5deec3c" y="128.056113"/>
     <use style="stroke:#000000;" x="316.984003" xlink:href="#mdea5deec3c" y="107.693617"/>
     <use style="stroke:#000000;" x="324.347131" xlink:href="#mdea5deec3c" y="118.150778"/>
     <use style="stroke:#000000;" x="305.75265" xlink:href="#mdea5deec3c" y="85.054313"/>
     <use style="stroke:#000000;" x="277.670984" xlink:href="#mdea5deec3c" y="152.385429"/>
     <use style="stroke:#000000;" x="296.177677" xlink:href="#mdea5deec3c" y="140.476882"/>
     <use style="stroke:#000000;" x="303.652437" xlink:href="#mdea5deec3c" y="90.902126"/>
     <use style="stroke:#000000;" x="295.253163" xlink:href="#mdea5deec3c" y="106.800213"/>
     <use style="stroke:#000000;" x="309.586872" xlink:href="#mdea5deec3c" y="104.224856"/>
     <use style="stroke:#000000;" x="321.273493" xlink:href="#mdea5deec3c" y="113.374697"/>
     <use style="stroke:#000000;" x="334.676456" xlink:href="#mdea5deec3c" y="129.146032"/>
     <use style="stroke:#000000;" x="340.322039" xlink:href="#mdea5deec3c" y="145.806942"/>
     <use style="stroke:#000000;" x="327.783684" xlink:href="#mdea5deec3c" y="164.909949"/>
     <use style="stroke:#000000;" x="322.631897" xlink:href="#mdea5deec3c" y="112.017833"/>
     <use style="stroke:#000000;" x="318.873957" xlink:href="#mdea5deec3c" y="105.363294"/>
     <use style="stroke:#000000;" x="325.405083" xlink:href="#mdea5deec3c" y="155.389834"/>
     <use style="stroke:#000000;" x="334.490181" xlink:href="#mdea5deec3c" y="117.979632"/>
     <use style="stroke:#000000;" x="375.992954" xlink:href="#mdea5deec3c" y="168.387045"/>
     <use style="stroke:#000000;" x="379.283239" xlink:href="#mdea5deec3c" y="165.325068"/>
     <use style="stroke:#000000;" x="390.951788" xlink:href="#mdea5deec3c" y="179.735276"/>
     <use style="stroke:#000000;" x="303.369901" xlink:href="#mdea5deec3c" y="105.963807"/>
     <use style="stroke:#000000;" x="295.89522" xlink:href="#mdea5deec3c" y="127.724928"/>
     <use style="stroke:#000000;" x="307.458231" xlink:href="#mdea5deec3c" y="85.739892"/>
     <use style="stroke:#000000;" x="313.814121" xlink:href="#mdea5deec3c" y="116.890051"/>
     <use style="stroke:#000000;" x="326.273087" xlink:href="#mdea5deec3c" y="107.980107"/>
     <use style="stroke:#000000;" x="329.607798" xlink:href="#mdea5deec3c" y="112.943763"/>
     <use style="stroke:#000000;" x="335.572015" xlink:href="#mdea5deec3c" y="123.584983"/>
     <use style="stroke:#000000;" x="341.937175" xlink:href="#mdea5deec3c" y="130.29691"/>
     <use style="stroke:#000000;" x="351.448519" xlink:href="#mdea5deec3c" y="149.461825"/>
     <use style="stroke:#000000;" x="321.701001" xlink:href="#mdea5deec3c" y="130.256616"/>
     <use style="stroke:#000000;" x="329.852455" xlink:href="#mdea5deec3c" y="110.797258"/>
     <use style="stroke:#000000;" x="325.594303" xlink:href="#mdea5deec3c" y="103.287539"/>
     <use style="stroke:#000000;" x="290.343861" xlink:href="#mdea5deec3c" y="82.907797"/>
     <use style="stroke:#000000;" x="296.607394" xlink:href="#mdea5deec3c" y="77.810248"/>
     <use style="stroke:#000000;" x="289.683183" xlink:href="#mdea5deec3c" y="71.517936"/>
     <use style="stroke:#000000;" x="348.087794" xlink:href="#mdea5deec3c" y="146.169827"/>
     <use style="stroke:#000000;" x="348.005926" xlink:href="#mdea5deec3c" y="143.03004"/>
     <use style="stroke:#000000;" x="360.347175" xlink:href="#mdea5deec3c" y="157.094346"/>
     <use style="stroke:#000000;" x="310.973147" xlink:href="#mdea5deec3c" y="91.583345"/>
     <use style="stroke:#000000;" x="310.343152" xlink:href="#mdea5deec3c" y="91.103494"/>
     <use style="stroke:#000000;" x="313.090996" xlink:href="#mdea5deec3c" y="95.68242"/>
     <use style="stroke:#000000;" x="304.012215" xlink:href="#mdea5deec3c" y="79.822854"/>
     <use style="stroke:#000000;" x="310.291236" xlink:href="#mdea5deec3c" y="91.095365"/>
     <use style="stroke:#000000;" x="304.572839" xlink:href="#mdea5deec3c" y="83.977712"/>
     <use style="stroke:#000000;" x="334.618973" xlink:href="#mdea5deec3c" y="121.114135"/>
     <use style="stroke:#000000;" x="334.388871" xlink:href="#mdea5deec3c" y="116.989744"/>
     <use style="stroke:#000000;" x="327.433689" xlink:href="#mdea5deec3c" y="104.813402"/>
     <use style="stroke:#000000;" x="303.507552" xlink:href="#mdea5deec3c" y="78.244496"/>
     <use style="stroke:#000000;" x="303.606045" xlink:href="#mdea5deec3c" y="94.527523"/>
     <use style="stroke:#000000;" x="302.56419" xlink:href="#mdea5deec3c" y="78.85258"/>
     <use style="stroke:#000000;" x="374.008722" xlink:href="#mdea5deec3c" y="157.724584"/>
     <use style="stroke:#000000;" x="375.463847" xlink:href="#mdea5deec3c" y="165.30824"/>
     <use style="stroke:#000000;" x="372.799718" xlink:href="#mdea5deec3c" y="150.905524"/>
     <use style="stroke:#000000;" x="345.997339" xlink:href="#mdea5deec3c" y="136.737007"/>
     <use style="stroke:#000000;" x="346.029243" xlink:href="#mdea5deec3c" y="135.646647"/>
     <use style="stroke:#000000;" x="347.073199" xlink:href="#mdea5deec3c" y="139.782677"/>
     <use style="stroke:#000000;" x="350.263342" xlink:href="#mdea5deec3c" y="140.967899"/>
     <use style="stroke:#000000;" x="340.86289" xlink:href="#mdea5deec3c" y="149.800757"/>
     <use style="stroke:#000000;" x="349.819203" xlink:href="#mdea5deec3c" y="139.755191"/>
     <use style="stroke:#000000;" x="308.809812" xlink:href="#mdea5deec3c" y="87.940965"/>
     <use style="stroke:#000000;" x="320.455252" xlink:href="#mdea5deec3c" y="109.569249"/>
     <use style="stroke:#000000;" x="310.781839" xlink:href="#mdea5deec3c" y="114.072969"/>
     <use style="stroke:#000000;" x="332.792181" xlink:href="#mdea5deec3c" y="113.333248"/>
     <use style="stroke:#000000;" x="335.45022" xlink:href="#mdea5deec3c" y="122.229551"/>
     <use style="stroke:#000000;" x="336.582345" xlink:href="#mdea5deec3c" y="119.805333"/>
     <use style="stroke:#000000;" x="335.803685" xlink:href="#mdea5deec3c" y="122.444828"/>
     <use style="stroke:#000000;" x="332.025867" xlink:href="#mdea5deec3c" y="114.507381"/>
     <use style="stroke:#000000;" x="337.364193" xlink:href="#mdea5deec3c" y="124.087958"/>
     <use style="stroke:#000000;" x="345.80834" xlink:href="#mdea5deec3c" y="141.251814"/>
     <use style="stroke:#000000;" x="346.369809" xlink:href="#mdea5deec3c" y="140.907068"/>
     <use style="stroke:#000000;" x="338.723686" xlink:href="#mdea5deec3c" y="127.909665"/>
     <use style="stroke:#000000;" x="333.951561" xlink:href="#mdea5deec3c" y="115.625331"/>
     <use style="stroke:#000000;" x="326.393039" xlink:href="#mdea5deec3c" y="112.264211"/>
     <use style="stroke:#000000;" x="328.792947" xlink:href="#mdea5deec3c" y="107.370171"/>
    </g>
   </g>
   <g id="PathCollection_2">
    <defs>
     <path d="M 0 0.935414 
C 0.248075 0.935414 0.486022 0.836853 0.661438 0.661438 
C 0.836853 0.486022 0.935414 0.248075 0.935414 0 
C 0.935414 -0.248075 0.836853 -0.486022 0.661438 -0.661438 
C 0.486022 -0.836853 0.248075 -0.935414 0 -0.935414 
C -0.248075 -0.935414 -0.486022 -0.836853 -0.661438 -0.661438 
C -0.836853 -0.486022 -0.935414 -0.248075 -0.935414 0 
C -0.935414 0.248075 -0.836853 0.486022 -0.661438 0.661438 
C -0.486022 0.836853 -0.248075 0.935414 0 0.935414 
z
" id="m99df717471" style="stroke:#0000ff;"/>
    </defs>
    <g clip-path="url(#pc3e93a5762)">
     <use style="fill:#0000ff;stroke:#0000ff;" x="338.862336" xlink:href="#m99df717471" y="123.963129"/>
     <use style="fill:#0000ff;stroke:#0000ff;" x="327.175936" xlink:href="#m99df717471" y="103.676672"/>
     <use style="fill:#0000ff;stroke:#0000ff;" x="312.333049" xlink:href="#m99df717471" y="96.320616"/>
     <use style="fill:#0000ff;stroke:#0000ff;" x="307.463491" xlink:href="#m99df717471" y="85.631782"/>
     <use style="fill:#0000ff;stroke:#0000ff;" x="387.932573" xlink:href="#m99df717471" y="171.565938"/>
     <use style="fill:#0000ff;stroke:#0000ff;" x="315.033848" xlink:href="#m99df717471" y="99.903361"/>
     <use style="fill:#0000ff;stroke:#0000ff;" x="337.015629" xlink:href="#m99df717471" y="121.04194"/>
     <use style="fill:#0000ff;stroke:#0000ff;" x="301.345182" xlink:href="#m99df717471" y="74.750124"/>
     <use style="fill:#0000ff;stroke:#0000ff;" x="379.840735" xlink:href="#m99df717471" y="159.916763"/>
     <use style="fill:#0000ff;stroke:#0000ff;" x="290.569879" xlink:href="#m99df717471" y="64.67713"/>
     <use style="fill:#0000ff;stroke:#0000ff;" x="339.727727" xlink:href="#m99df717471" y="125.742968"/>
     <use style="fill:#0000ff;stroke:#0000ff;" x="323.738855" xlink:href="#m99df717471" y="102.356069"/>
     <use style="fill:#0000ff;stroke:#0000ff;" x="339.863988" xlink:href="#m99df717471" y="126.551327"/>
     <use style="fill:#0000ff;stroke:#0000ff;" x="345.159361" xlink:href="#m99df717471" y="136.281718"/>
     <use style="fill:#0000ff;stroke:#0000ff;" x="324.651237" xlink:href="#m99df717471" y="103.4335"/>
     <use style="fill:#0000ff;stroke:#0000ff;" x="393.392087" xlink:href="#m99df717471" y="181.212883"/>
     <use style="fill:#0000ff;stroke:#0000ff;" x="296.714624" xlink:href="#m99df717471" y="68.473364"/>
     <use style="fill:#0000ff;stroke:#0000ff;" x="342.253178" xlink:href="#m99df717471" y="131.418323"/>
     <use style="fill:#0000ff;stroke:#0000ff;" x="311.377738" xlink:href="#m99df717471" y="92.315614"/>
     <use style="fill:#0000ff;stroke:#0000ff;" x="312.30525" xlink:href="#m99df717471" y="94.780718"/>
     <use style="fill:#0000ff;stroke:#0000ff;" x="314.894696" xlink:href="#m99df717471" y="98.187055"/>
     <use style="fill:#0000ff;stroke:#0000ff;" x="290.061151" xlink:href="#m99df717471" y="64.131377"/>
     <use style="fill:#0000ff;stroke:#0000ff;" x="306.399027" xlink:href="#m99df717471" y="84.277587"/>
     <use style="fill:#0000ff;stroke:#0000ff;" x="310.425463" xlink:href="#m99df717471" y="91.127841"/>
     <use style="fill:#0000ff;stroke:#0000ff;" x="391.186384" xlink:href="#m99df717471" y="174.045653"/>
     <use style="fill:#0000ff;stroke:#0000ff;" x="309.685657" xlink:href="#m99df717471" y="89.735911"/>
     <use style="fill:#0000ff;stroke:#0000ff;" x="334.052738" xlink:href="#m99df717471" y="114.797281"/>
     <use style="fill:#0000ff;stroke:#0000ff;" x="293.470481" xlink:href="#m99df717471" y="66.023689"/>
     <use style="fill:#0000ff;stroke:#0000ff;" x="348.357884" xlink:href="#m99df717471" y="137.656235"/>
     <use style="fill:#0000ff;stroke:#0000ff;" x="374.116611" xlink:href="#m99df717471" y="150.762867"/>
     <use style="fill:#0000ff;stroke:#0000ff;" x="370.854595" xlink:href="#m99df717471" y="140.902154"/>
     <use style="fill:#0000ff;stroke:#0000ff;" x="299.628016" xlink:href="#m99df717471" y="72.581812"/>
     <use style="fill:#0000ff;stroke:#0000ff;" x="329.638675" xlink:href="#m99df717471" y="106.8808"/>
     <use style="fill:#0000ff;stroke:#0000ff;" x="323.433588" xlink:href="#m99df717471" y="101.752103"/>
     <use style="fill:#0000ff;stroke:#0000ff;" x="293.390927" xlink:href="#m99df717471" y="65.466817"/>
     <use style="fill:#0000ff;stroke:#0000ff;" x="297.007814" xlink:href="#m99df717471" y="69.114568"/>
     <use style="fill:#0000ff;stroke:#0000ff;" x="301.002487" xlink:href="#m99df717471" y="74.404973"/>
     <use style="fill:#0000ff;stroke:#0000ff;" x="328.107186" xlink:href="#m99df717471" y="104.915"/>
     <use style="fill:#0000ff;stroke:#0000ff;" x="346.917506" xlink:href="#m99df717471" y="137.297728"/>
     <use style="fill:#0000ff;stroke:#0000ff;" x="322.499445" xlink:href="#m99df717471" y="101.617811"/>
     <use style="fill:#0000ff;stroke:#0000ff;" x="333.350433" xlink:href="#m99df717471" y="113.599647"/>
     <use style="fill:#0000ff;stroke:#0000ff;" x="384.980133" xlink:href="#m99df717471" y="167.785486"/>
     <use style="fill:#0000ff;stroke:#0000ff;" x="306.865866" xlink:href="#m99df717471" y="84.409481"/>
     <use style="fill:#0000ff;stroke:#0000ff;" x="328.76998" xlink:href="#m99df717471" y="106.262993"/>
     <use style="fill:#0000ff;stroke:#0000ff;" x="341.140454" xlink:href="#m99df717471" y="129.062194"/>
     <use style="fill:#0000ff;stroke:#0000ff;" x="329.166648" xlink:href="#m99df717471" y="106.514851"/>
     <use style="fill:#0000ff;stroke:#0000ff;" x="298.452921" xlink:href="#m99df717471" y="70.904368"/>
     <use style="fill:#0000ff;stroke:#0000ff;" x="342.554121" xlink:href="#m99df717471" y="131.431526"/>
     <use style="fill:#0000ff;stroke:#0000ff;" x="310.642324" xlink:href="#m99df717471" y="91.416873"/>
     <use style="fill:#0000ff;stroke:#0000ff;" x="304.087011" xlink:href="#m99df717471" y="80.012979"/>
     <use style="fill:#0000ff;stroke:#0000ff;" x="332.062068" xlink:href="#m99df717471" y="112.033355"/>
     <use style="fill:#0000ff;stroke:#0000ff;" x="299.850098" xlink:href="#m99df717471" y="73.477975"/>
     <use style="fill:#0000ff;stroke:#0000ff;" x="378.039726" xlink:href="#m99df717471" y="155.439434"/>
     <use style="fill:#0000ff;stroke:#0000ff;" x="344.196545" xlink:href="#m99df717471" y="133.882017"/>
     <use style="fill:#0000ff;stroke:#0000ff;" x="345.744631" xlink:href="#m99df717471" y="136.792203"/>
     <use style="fill:#0000ff;stroke:#0000ff;" x="313.092277" xlink:href="#m99df717471" y="97.838848"/>
     <use style="fill:#0000ff;stroke:#0000ff;" x="334.805131" xlink:href="#m99df717471" y="117.23385"/>
     <use style="fill:#0000ff;stroke:#0000ff;" x="338.531029" xlink:href="#m99df717471" y="123.554474"/>
     <use style="fill:#0000ff;stroke:#0000ff;" x="342.760303" xlink:href="#m99df717471" y="131.485011"/>
     <use style="fill:#0000ff;stroke:#0000ff;" x="335.275345" xlink:href="#m99df717471" y="117.326207"/>
    </g>
   </g>
   <g id="matplotlib.axis_1">
    <g id="xtick_1">
     <g id="line2d_1">
      <defs>
       <path d="M 0 0 
L 0 3.5 
" id="mfb9c694bb2" style="stroke:#000000;stroke-width:0.8;"/>
      </defs>
      <g>
       <use style="stroke:#000000;stroke-width:0.8;" x="57.6" xlink:href="#mfb9c694bb2" y="307.584"/>
      </g>
     </g>
     <g id="text_1">
      <!-- 4 -->
      <defs>
       <path d="M 37.796875 64.3125 
L 12.890625 25.390625 
L 37.796875 25.390625 
z
M 35.203125 72.90625 
L 47.609375 72.90625 
L 47.609375 25.390625 
L 58.015625 25.390625 
L 58.015625 17.1875 
L 47.609375 17.1875 
L 47.609375 0 
L 37.796875 0 
L 37.796875 17.1875 
L 4.890625 17.1875 
L 4.890625 26.703125 
z
" id="DejaVuSans-34"/>
      </defs>
      <g transform="translate(54.41875 322.182437)scale(0.1 -0.1)">
       <use xlink:href="#DejaVuSans-34"/>
      </g>
     </g>
    </g>
    <g id="xtick_2">
     <g id="line2d_2">
      <g>
       <use style="stroke:#000000;stroke-width:0.8;" x="102.24" xlink:href="#mfb9c694bb2" y="307.584"/>
      </g>
     </g>
     <g id="text_2">
      <!-- 6 -->
      <defs>
       <path d="M 33.015625 40.375 
Q 26.375 40.375 22.484375 35.828125 
Q 18.609375 31.296875 18.609375 23.390625 
Q 18.609375 15.53125 22.484375 10.953125 
Q 26.375 6.390625 33.015625 6.390625 
Q 39.65625 6.390625 43.53125 10.953125 
Q 47.40625 15.53125 47.40625 23.390625 
Q 47.40625 31.296875 43.53125 35.828125 
Q 39.65625 40.375 33.015625 40.375 
z
M 52.59375 71.296875 
L 52.59375 62.3125 
Q 48.875 64.0625 45.09375 64.984375 
Q 41.3125 65.921875 37.59375 65.921875 
Q 27.828125 65.921875 22.671875 59.328125 
Q 17.53125 52.734375 16.796875 39.40625 
Q 19.671875 43.65625 24.015625 45.921875 
Q 28.375 48.1875 33.59375 48.1875 
Q 44.578125 48.1875 50.953125 41.515625 
Q 57.328125 34.859375 57.328125 23.390625 
Q 57.328125 12.15625 50.6875 5.359375 
Q 44.046875 -1.421875 33.015625 -1.421875 
Q 20.359375 -1.421875 13.671875 8.265625 
Q 6.984375 17.96875 6.984375 36.375 
Q 6.984375 53.65625 15.1875 63.9375 
Q 23.390625 74.21875 37.203125 74.21875 
Q 40.921875 74.21875 44.703125 73.484375 
Q 48.484375 72.75 52.59375 71.296875 
z
" id="DejaVuSans-36"/>
      </defs>
      <g transform="translate(99.05875 322.182437)scale(0.1 -0.1)">
       <use xlink:href="#DejaVuSans-36"/>
      </g>
     </g>
    </g>
    <g id="xtick_3">
     <g id="line2d_3">
      <g>
       <use style="stroke:#000000;stroke-width:0.8;" x="146.88" xlink:href="#mfb9c694bb2" y="307.584"/>
      </g>
     </g>
     <g id="text_3">
      <!-- 8 -->
      <defs>
       <path d="M 31.78125 34.625 
Q 24.75 34.625 20.71875 30.859375 
Q 16.703125 27.09375 16.703125 20.515625 
Q 16.703125 13.921875 20.71875 10.15625 
Q 24.75 6.390625 31.78125 6.390625 
Q 38.8125 6.390625 42.859375 10.171875 
Q 46.921875 13.96875 46.921875 20.515625 
Q 46.921875 27.09375 42.890625 30.859375 
Q 38.875 34.625 31.78125 34.625 
z
M 21.921875 38.8125 
Q 15.578125 40.375 12.03125 44.71875 
Q 8.5 49.078125 8.5 55.328125 
Q 8.5 64.0625 14.71875 69.140625 
Q 20.953125 74.21875 31.78125 74.21875 
Q 42.671875 74.21875 48.875 69.140625 
Q 55.078125 64.0625 55.078125 55.328125 
Q 55.078125 49.078125 51.53125 44.71875 
Q 48 40.375 41.703125 38.8125 
Q 48.828125 37.15625 52.796875 32.3125 
Q 56.78125 27.484375 56.78125 20.515625 
Q 56.78125 9.90625 50.3125 4.234375 
Q 43.84375 -1.421875 31.78125 -1.421875 
Q 19.734375 -1.421875 13.25 4.234375 
Q 6.78125 9.90625 6.78125 20.515625 
Q 6.78125 27.484375 10.78125 32.3125 
Q 14.796875 37.15625 21.921875 38.8125 
z
M 18.3125 54.390625 
Q 18.3125 48.734375 21.84375 45.5625 
Q 25.390625 42.390625 31.78125 42.390625 
Q 38.140625 42.390625 41.71875 45.5625 
Q 45.3125 48.734375 45.3125 54.390625 
Q 45.3125 60.0625 41.71875 63.234375 
Q 38.140625 66.40625 31.78125 66.40625 
Q 25.390625 66.40625 21.84375 63.234375 
Q 18.3125 60.0625 18.3125 54.390625 
z
" id="DejaVuSans-38"/>
      </defs>
      <g transform="translate(143.69875 322.182437)scale(0.1 -0.1)">
       <use xlink:href="#DejaVuSans-38"/>
      </g>
     </g>
    </g>
    <g id="xtick_4">
     <g id="line2d_4">
      <g>
       <use style="stroke:#000000;stroke-width:0.8;" x="191.52" xlink:href="#mfb9c694bb2" y="307.584"/>
      </g>
     </g>
     <g id="text_4">
      <!-- 10 -->
      <defs>
       <path d="M 12.40625 8.296875 
L 28.515625 8.296875 
L 28.515625 63.921875 
L 10.984375 60.40625 
L 10.984375 69.390625 
L 28.421875 72.90625 
L 38.28125 72.90625 
L 38.28125 8.296875 
L 54.390625 8.296875 
L 54.390625 0 
L 12.40625 0 
z
" id="DejaVuSans-31"/>
       <path d="M 31.78125 66.40625 
Q 24.171875 66.40625 20.328125 58.90625 
Q 16.5 51.421875 16.5 36.375 
Q 16.5 21.390625 20.328125 13.890625 
Q 24.171875 6.390625 31.78125 6.390625 
Q 39.453125 6.390625 43.28125 13.890625 
Q 47.125 21.390625 47.125 36.375 
Q 47.125 51.421875 43.28125 58.90625 
Q 39.453125 66.40625 31.78125 66.40625 
z
M 31.78125 74.21875 
Q 44.046875 74.21875 50.515625 64.515625 
Q 56.984375 54.828125 56.984375 36.375 
Q 56.984375 17.96875 50.515625 8.265625 
Q 44.046875 -1.421875 31.78125 -1.421875 
Q 19.53125 -1.421875 13.0625 8.265625 
Q 6.59375 17.96875 6.59375 36.375 
Q 6.59375 54.828125 13.0625 64.515625 
Q 19.53125 74.21875 31.78125 74.21875 
z
" id="DejaVuSans-30"/>
      </defs>
      <g transform="translate(185.1575 322.182437)scale(0.1 -0.1)">
       <use xlink:href="#DejaVuSans-31"/>
       <use x="63.623047" xlink:href="#DejaVuSans-30"/>
      </g>
     </g>
    </g>
    <g id="xtick_5">
     <g id="line2d_5">
      <g>
       <use style="stroke:#000000;stroke-width:0.8;" x="236.16" xlink:href="#mfb9c694bb2" y="307.584"/>
      </g>
     </g>
     <g id="text_5">
      <!-- 12 -->
      <defs>
       <path d="M 19.1875 8.296875 
L 53.609375 8.296875 
L 53.609375 0 
L 7.328125 0 
L 7.328125 8.296875 
Q 12.9375 14.109375 22.625 23.890625 
Q 32.328125 33.6875 34.8125 36.53125 
Q 39.546875 41.84375 41.421875 45.53125 
Q 43.3125 49.21875 43.3125 52.78125 
Q 43.3125 58.59375 39.234375 62.25 
Q 35.15625 65.921875 28.609375 65.921875 
Q 23.96875 65.921875 18.8125 64.3125 
Q 13.671875 62.703125 7.8125 59.421875 
L 7.8125 69.390625 
Q 13.765625 71.78125 18.9375 73 
Q 24.125 74.21875 28.421875 74.21875 
Q 39.75 74.21875 46.484375 68.546875 
Q 53.21875 62.890625 53.21875 53.421875 
Q 53.21875 48.921875 51.53125 44.890625 
Q 49.859375 40.875 45.40625 35.40625 
Q 44.1875 33.984375 37.640625 27.21875 
Q 31.109375 20.453125 19.1875 8.296875 
z
" id="DejaVuSans-32"/>
      </defs>
      <g transform="translate(229.7975 322.182437)scale(0.1 -0.1)">
       <use xlink:href="#DejaVuSans-31"/>
       <use x="63.623047" xlink:href="#DejaVuSans-32"/>
      </g>
     </g>
    </g>
    <g id="xtick_6">
     <g id="line2d_6">
      <g>
       <use style="stroke:#000000;stroke-width:0.8;" x="280.8" xlink:href="#mfb9c694bb2" y="307.584"/>
      </g>
     </g>
     <g id="text_6">
      <!-- 14 -->
      <g transform="translate(274.4375 322.182437)scale(0.1 -0.1)">
       <use xlink:href="#DejaVuSans-31"/>
       <use x="63.623047" xlink:href="#DejaVuSans-34"/>
      </g>
     </g>
    </g>
    <g id="xtick_7">
     <g id="line2d_7">
      <g>
       <use style="stroke:#000000;stroke-width:0.8;" x="325.44" xlink:href="#mfb9c694bb2" y="307.584"/>
      </g>
     </g>
     <g id="text_7">
      <!-- 16 -->
      <g transform="translate(319.0775 322.182437)scale(0.1 -0.1)">
       <use xlink:href="#DejaVuSans-31"/>
       <use x="63.623047" xlink:href="#DejaVuSans-36"/>
      </g>
     </g>
    </g>
    <g id="xtick_8">
     <g id="line2d_8">
      <g>
       <use style="stroke:#000000;stroke-width:0.8;" x="370.08" xlink:href="#mfb9c694bb2" y="307.584"/>
      </g>
     </g>
     <g id="text_8">
      <!-- 18 -->
      <g transform="translate(363.7175 322.182437)scale(0.1 -0.1)">
       <use xlink:href="#DejaVuSans-31"/>
       <use x="63.623047" xlink:href="#DejaVuSans-38"/>
      </g>
     </g>
    </g>
    <g id="xtick_9">
     <g id="line2d_9">
      <g>
       <use style="stroke:#000000;stroke-width:0.8;" x="414.72" xlink:href="#mfb9c694bb2" y="307.584"/>
      </g>
     </g>
     <g id="text_9">
      <!-- 20 -->
      <g transform="translate(408.3575 322.182437)scale(0.1 -0.1)">
       <use xlink:href="#DejaVuSans-32"/>
       <use x="63.623047" xlink:href="#DejaVuSans-30"/>
      </g>
     </g>
    </g>
   </g>
   <g id="matplotlib.axis_2">
    <g id="ytick_1">
     <g id="line2d_10">
      <defs>
       <path d="M 0 0 
L -3.5 0 
" id="m6ce6957e49" style="stroke:#000000;stroke-width:0.8;"/>
      </defs>
      <g>
       <use style="stroke:#000000;stroke-width:0.8;" x="57.6" xlink:href="#m6ce6957e49" y="269.568"/>
      </g>
     </g>
     <g id="text_10">
      <!-- −10 -->
      <defs>
       <path d="M 10.59375 35.5 
L 73.1875 35.5 
L 73.1875 27.203125 
L 10.59375 27.203125 
z
" id="DejaVuSans-2212"/>
      </defs>
      <g transform="translate(29.495313 273.367219)scale(0.1 -0.1)">
       <use xlink:href="#DejaVuSans-2212"/>
       <use x="83.789062" xlink:href="#DejaVuSans-31"/>
       <use x="147.412109" xlink:href="#DejaVuSans-30"/>
      </g>
     </g>
    </g>
    <g id="ytick_2">
     <g id="line2d_11">
      <g>
       <use style="stroke:#000000;stroke-width:0.8;" x="57.6" xlink:href="#m6ce6957e49" y="222.048"/>
      </g>
     </g>
     <g id="text_11">
      <!-- −5 -->
      <defs>
       <path d="M 10.796875 72.90625 
L 49.515625 72.90625 
L 49.515625 64.59375 
L 19.828125 64.59375 
L 19.828125 46.734375 
Q 21.96875 47.46875 24.109375 47.828125 
Q 26.265625 48.1875 28.421875 48.1875 
Q 40.625 48.1875 47.75 41.5 
Q 54.890625 34.8125 54.890625 23.390625 
Q 54.890625 11.625 47.5625 5.09375 
Q 40.234375 -1.421875 26.90625 -1.421875 
Q 22.3125 -1.421875 17.546875 -0.640625 
Q 12.796875 0.140625 7.71875 1.703125 
L 7.71875 11.625 
Q 12.109375 9.234375 16.796875 8.0625 
Q 21.484375 6.890625 26.703125 6.890625 
Q 35.15625 6.890625 40.078125 11.328125 
Q 45.015625 15.765625 45.015625 23.390625 
Q 45.015625 31 40.078125 35.4375 
Q 35.15625 39.890625 26.703125 39.890625 
Q 22.75 39.890625 18.8125 39.015625 
Q 14.890625 38.140625 10.796875 36.28125 
z
" id="DejaVuSans-35"/>
      </defs>
      <g transform="translate(35.857813 225.847219)scale(0.1 -0.1)">
       <use xlink:href="#DejaVuSans-2212"/>
       <use x="83.789062" xlink:href="#DejaVuSans-35"/>
      </g>
     </g>
    </g>
    <g id="ytick_3">
     <g id="line2d_12">
      <g>
       <use style="stroke:#000000;stroke-width:0.8;" x="57.6" xlink:href="#m6ce6957e49" y="174.528"/>
      </g>
     </g>
     <g id="text_12">
      <!-- 0 -->
      <g transform="translate(44.2375 178.327219)scale(0.1 -0.1)">
       <use xlink:href="#DejaVuSans-30"/>
      </g>
     </g>
    </g>
    <g id="ytick_4">
     <g id="line2d_13">
      <g>
       <use style="stroke:#000000;stroke-width:0.8;" x="57.6" xlink:href="#m6ce6957e49" y="127.008"/>
      </g>
     </g>
     <g id="text_13">
      <!-- 5 -->
      <g transform="translate(44.2375 130.807219)scale(0.1 -0.1)">
       <use xlink:href="#DejaVuSans-35"/>
      </g>
     </g>
    </g>
    <g id="ytick_5">
     <g id="line2d_14">
      <g>
       <use style="stroke:#000000;stroke-width:0.8;" x="57.6" xlink:href="#m6ce6957e49" y="79.488"/>
      </g>
     </g>
     <g id="text_14">
      <!-- 10 -->
      <g transform="translate(37.875 83.287219)scale(0.1 -0.1)">
       <use xlink:href="#DejaVuSans-31"/>
       <use x="63.623047" xlink:href="#DejaVuSans-30"/>
      </g>
     </g>
    </g>
   </g>
   <g id="patch_3">
    <path d="M 57.6 307.584 
L 57.6 41.472 
" style="fill:none;stroke:#000000;stroke-linecap:square;stroke-linejoin:miter;stroke-width:0.8;"/>
   </g>
   <g id="patch_4">
    <path d="M 414.72 307.584 
L 414.72 41.472 
" style="fill:none;stroke:#000000;stroke-linecap:square;stroke-linejoin:miter;stroke-width:0.8;"/>
   </g>
   <g id="patch_5">
    <path d="M 57.6 307.584 
L 414.72 307.584 
" style="fill:none;stroke:#000000;stroke-linecap:square;stroke-linejoin:miter;stroke-width:0.8;"/>
   </g>
   <g id="patch_6">
    <path d="M 57.6 41.472 
L 414.72 41.472 
" style="fill:none;stroke:#000000;stroke-linecap:square;stroke-linejoin:miter;stroke-width:0.8;"/>
   </g>
  </g>
 </g>
 <defs>
  <clipPath id="pc3e93a5762">
   <rect height="266.112" width="357.12" x="57.6" y="41.472"/>
  </clipPath>
 </defs>
</svg>
