<?xml version="1.0" encoding="utf-8" standalone="no"?>
<!DOCTYPE svg PUBLIC "-//W3C//DTD SVG 1.1//EN"
  "http://www.w3.org/Graphics/SVG/1.1/DTD/svg11.dtd">
<!-- Created with matplotlib (http://matplotlib.org/) -->
<svg height="345.6pt" version="1.1" viewBox="0 0 460.8 345.6" width="460.8pt" xmlns="http://www.w3.org/2000/svg" xmlns:xlink="http://www.w3.org/1999/xlink">
 <defs>
  <style type="text/css">
*{stroke-linecap:butt;stroke-linejoin:round;}
  </style>
 </defs>
 <g id="figure_1">
  <g id="patch_1">
   <path d="M 0 345.6 
L 460.8 345.6 
L 460.8 0 
L 0 0 
z
" style="fill:#ffffff;"/>
  </g>
  <g id="axes_1">
   <g id="patch_2">
    <path d="M 57.6 307.584 
L 414.72 307.584 
L 414.72 41.472 
L 57.6 41.472 
z
" style="fill:#ffffff;"/>
   </g>
   <g id="PathCollection_1">
    <defs>
     <path d="M 0 0.612372 
C 0.162403 0.612372 0.318176 0.547849 0.433013 0.433013 
C 0.547849 0.318176 0.612372 0.162403 0.612372 0 
C 0.612372 -0.162403 0.547849 -0.318176 0.433013 -0.433013 
C 0.318176 -0.547849 0.162403 -0.612372 0 -0.612372 
C -0.162403 -0.612372 -0.318176 -0.547849 -0.433013 -0.433013 
C -0.547849 -0.318176 -0.612372 -0.162403 -0.612372 0 
C -0.612372 0.162403 -0.547849 0.318176 -0.433013 0.433013 
C -0.318176 0.547849 -0.162403 0.612372 0 0.612372 
z
" id="mebc53e50e2" style="stroke:#000000;"/>
    </defs>
    <g clip-path="url(#p157c54bef9)">
     <use style="stroke:#000000;" x="81.432761" xlink:href="#mebc53e50e2" y="81.416598"/>
     <use style="stroke:#000000;" x="89.231681" xlink:href="#mebc53e50e2" y="110.822081"/>
     <use style="stroke:#000000;" x="164.465902" xlink:href="#mebc53e50e2" y="158.602266"/>
     <use style="stroke:#000000;" x="81.68817" xlink:href="#mebc53e50e2" y="85.896729"/>
     <use style="stroke:#000000;" x="81.408" xlink:href="#mebc53e50e2" y="79.488"/>
     <use style="stroke:#000000;" x="156.679652" xlink:href="#mebc53e50e2" y="156.318626"/>
     <use style="stroke:#000000;" x="166.41413" xlink:href="#mebc53e50e2" y="159.133637"/>
     <use style="stroke:#000000;" x="81.421119" xlink:href="#mebc53e50e2" y="80.893775"/>
     <use style="stroke:#000000;" x="81.417023" xlink:href="#mebc53e50e2" y="80.654541"/>
     <use style="stroke:#000000;" x="167.134029" xlink:href="#mebc53e50e2" y="160.931709"/>
     <use style="stroke:#000000;" x="121.851932" xlink:href="#mebc53e50e2" y="141.686306"/>
     <use style="stroke:#000000;" x="81.733903" xlink:href="#mebc53e50e2" y="86.390556"/>
     <use style="stroke:#000000;" x="81.537561" xlink:href="#mebc53e50e2" y="83.870443"/>
     <use style="stroke:#000000;" x="167.531365" xlink:href="#mebc53e50e2" y="167.087895"/>
     <use style="stroke:#000000;" x="104.166799" xlink:href="#mebc53e50e2" y="129.172015"/>
     <use style="stroke:#000000;" x="90.101809" xlink:href="#mebc53e50e2" y="112.340345"/>
     <use style="stroke:#000000;" x="90.185495" xlink:href="#mebc53e50e2" y="112.868824"/>
     <use style="stroke:#000000;" x="82.178754" xlink:href="#mebc53e50e2" y="89.995476"/>
     <use style="stroke:#000000;" x="117.357221" xlink:href="#mebc53e50e2" y="138.999073"/>
     <use style="stroke:#000000;" x="110.95457" xlink:href="#mebc53e50e2" y="134.655213"/>
     <use style="stroke:#000000;" x="81.417371" xlink:href="#mebc53e50e2" y="80.67679"/>
     <use style="stroke:#000000;" x="86.701063" xlink:href="#mebc53e50e2" y="105.716914"/>
     <use style="stroke:#000000;" x="120.764983" xlink:href="#mebc53e50e2" y="141.060283"/>
     <use style="stroke:#000000;" x="81.408" xlink:href="#mebc53e50e2" y="79.488"/>
     <use style="stroke:#000000;" x="81.408" xlink:href="#mebc53e50e2" y="79.488"/>
     <use style="stroke:#000000;" x="155.825372" xlink:href="#mebc53e50e2" y="156.05142"/>
     <use style="stroke:#000000;" x="82.652828" xlink:href="#mebc53e50e2" y="92.735597"/>
     <use style="stroke:#000000;" x="81.434183" xlink:href="#mebc53e50e2" y="81.470902"/>
     <use style="stroke:#000000;" x="81.429897" xlink:href="#mebc53e50e2" y="81.302179"/>
     <use style="stroke:#000000;" x="81.462158" xlink:href="#mebc53e50e2" y="82.333235"/>
     <use style="stroke:#000000;" x="89.637895" xlink:href="#mebc53e50e2" y="111.543133"/>
     <use style="stroke:#000000;" x="82.749499" xlink:href="#mebc53e50e2" y="93.220714"/>
     <use style="stroke:#000000;" x="82.807282" xlink:href="#mebc53e50e2" y="93.5017"/>
     <use style="stroke:#000000;" x="141.079584" xlink:href="#mebc53e50e2" y="150.828435"/>
     <use style="stroke:#000000;" x="81.548547" xlink:href="#mebc53e50e2" y="84.050236"/>
     <use style="stroke:#000000;" x="119.431478" xlink:href="#mebc53e50e2" y="140.272059"/>
     <use style="stroke:#000000;" x="81.408" xlink:href="#mebc53e50e2" y="79.488"/>
     <use style="stroke:#000000;" x="167.167334" xlink:href="#mebc53e50e2" y="162.070699"/>
     <use style="stroke:#000000;" x="81.460043" xlink:href="#mebc53e50e2" y="82.277536"/>
     <use style="stroke:#000000;" x="133.173284" xlink:href="#mebc53e50e2" y="147.456391"/>
     <use style="stroke:#000000;" x="168.080214" xlink:href="#mebc53e50e2" y="171.028546"/>
     <use style="stroke:#000000;" x="120.876076" xlink:href="#mebc53e50e2" y="141.124933"/>
     <use style="stroke:#000000;" x="81.897346" xlink:href="#mebc53e50e2" y="87.910187"/>
     <use style="stroke:#000000;" x="82.898339" xlink:href="#mebc53e50e2" y="93.932016"/>
     <use style="stroke:#000000;" x="85.409341" xlink:href="#mebc53e50e2" y="102.532792"/>
     <use style="stroke:#000000;" x="82.698366" xlink:href="#mebc53e50e2" y="92.966558"/>
     <use style="stroke:#000000;" x="405.1968" xlink:href="#mebc53e50e2" y="254.3616"/>
     <use style="stroke:#000000;" x="133.464353" xlink:href="#mebc53e50e2" y="147.589034"/>
     <use style="stroke:#000000;" x="158.452804" xlink:href="#mebc53e50e2" y="156.862321"/>
     <use style="stroke:#000000;" x="84.171354" xlink:href="#mebc53e50e2" y="98.863154"/>
     <use style="stroke:#000000;" x="94.050379" xlink:href="#mebc53e50e2" y="118.242783"/>
     <use style="stroke:#000000;" x="85.287534" xlink:href="#mebc53e50e2" y="102.203446"/>
     <use style="stroke:#000000;" x="81.639298" xlink:href="#mebc53e50e2" y="85.320296"/>
     <use style="stroke:#000000;" x="117.180405" xlink:href="#mebc53e50e2" y="138.887788"/>
     <use style="stroke:#000000;" x="107.01286" xlink:href="#mebc53e50e2" y="131.602309"/>
     <use style="stroke:#000000;" x="98.901461" xlink:href="#mebc53e50e2" y="124.02911"/>
     <use style="stroke:#000000;" x="81.648358" xlink:href="#mebc53e50e2" y="85.431601"/>
     <use style="stroke:#000000;" x="382.960941" xlink:href="#mebc53e50e2" y="247.455263"/>
     <use style="stroke:#000000;" x="81.408" xlink:href="#mebc53e50e2" y="79.488"/>
     <use style="stroke:#000000;" x="127.867607" xlink:href="#mebc53e50e2" y="144.909417"/>
     <use style="stroke:#000000;" x="85.18165" xlink:href="#mebc53e50e2" y="101.912304"/>
     <use style="stroke:#000000;" x="119.634309" xlink:href="#mebc53e50e2" y="140.393427"/>
     <use style="stroke:#000000;" x="120.605549" xlink:href="#mebc53e50e2" y="140.967233"/>
     <use style="stroke:#000000;" x="88.96425" xlink:href="#mebc53e50e2" y="110.334804"/>
     <use style="stroke:#000000;" x="81.877206" xlink:href="#mebc53e50e2" y="87.73903"/>
     <use style="stroke:#000000;" x="82.394405" xlink:href="#mebc53e50e2" y="91.329197"/>
     <use style="stroke:#000000;" x="144.360992" xlink:href="#mebc53e50e2" y="152.100007"/>
     <use style="stroke:#000000;" x="84.79669" xlink:href="#mebc53e50e2" y="100.812532"/>
     <use style="stroke:#000000;" x="160.635726" xlink:href="#mebc53e50e2" y="157.512047"/>
     <use style="stroke:#000000;" x="83.249214" xlink:href="#mebc53e50e2" y="95.468798"/>
     <use style="stroke:#000000;" x="82.962419" xlink:href="#mebc53e50e2" y="94.226345"/>
     <use style="stroke:#000000;" x="81.486369" xlink:href="#mebc53e50e2" y="82.905342"/>
     <use style="stroke:#000000;" x="124.852841" xlink:href="#mebc53e50e2" y="143.342864"/>
     <use style="stroke:#000000;" x="97.557701" xlink:href="#mebc53e50e2" y="122.547072"/>
     <use style="stroke:#000000;" x="81.572043" xlink:href="#mebc53e50e2" y="84.411985"/>
     <use style="stroke:#000000;" x="89.375333" xlink:href="#mebc53e50e2" y="111.079634"/>
     <use style="stroke:#000000;" x="82.661055" xlink:href="#mebc53e50e2" y="92.777653"/>
     <use style="stroke:#000000;" x="164.413656" xlink:href="#mebc53e50e2" y="158.587806"/>
     <use style="stroke:#000000;" x="84.359334" xlink:href="#mebc53e50e2" y="99.473184"/>
     <use style="stroke:#000000;" x="167.2056" xlink:href="#mebc53e50e2" y="162.957133"/>
     <use style="stroke:#000000;" x="81.416362" xlink:href="#mebc53e50e2" y="80.611136"/>
     <use style="stroke:#000000;" x="89.480892" xlink:href="#mebc53e50e2" y="111.267087"/>
     <use style="stroke:#000000;" x="89.597299" xlink:href="#mebc53e50e2" y="111.472067"/>
     <use style="stroke:#000000;" x="88.988611" xlink:href="#mebc53e50e2" y="110.379622"/>
     <use style="stroke:#000000;" x="89.197402" xlink:href="#mebc53e50e2" y="110.990579"/>
     <use style="stroke:#000000;" x="163.918768" xlink:href="#mebc53e50e2" y="158.450284"/>
     <use style="stroke:#000000;" x="162.815589" xlink:href="#mebc53e50e2" y="158.14009"/>
     <use style="stroke:#000000;" x="164.59445" xlink:href="#mebc53e50e2" y="158.704571"/>
     <use style="stroke:#000000;" x="81.845248" xlink:href="#mebc53e50e2" y="87.820866"/>
     <use style="stroke:#000000;" x="81.895123" xlink:href="#mebc53e50e2" y="87.891481"/>
     <use style="stroke:#000000;" x="81.693336" xlink:href="#mebc53e50e2" y="85.954505"/>
     <use style="stroke:#000000;" x="81.408115" xlink:href="#mebc53e50e2" y="79.62024"/>
     <use style="stroke:#000000;" x="81.408" xlink:href="#mebc53e50e2" y="79.488"/>
     <use style="stroke:#000000;" x="81.408" xlink:href="#mebc53e50e2" y="79.488"/>
     <use style="stroke:#000000;" x="156.762383" xlink:href="#mebc53e50e2" y="156.344319"/>
     <use style="stroke:#000000;" x="158.105829" xlink:href="#mebc53e50e2" y="156.757072"/>
     <use style="stroke:#000000;" x="156.548584" xlink:href="#mebc53e50e2" y="156.277855"/>
     <use style="stroke:#000000;" x="166.803811" xlink:href="#mebc53e50e2" y="160.070039"/>
     <use style="stroke:#000000;" x="166.016873" xlink:href="#mebc53e50e2" y="160.34743"/>
     <use style="stroke:#000000;" x="166.360745" xlink:href="#mebc53e50e2" y="159.486875"/>
     <use style="stroke:#000000;" x="81.427026" xlink:href="#mebc53e50e2" y="81.179631"/>
     <use style="stroke:#000000;" x="81.477538" xlink:href="#mebc53e50e2" y="83.530359"/>
     <use style="stroke:#000000;" x="81.421743" xlink:href="#mebc53e50e2" y="80.926674"/>
     <use style="stroke:#000000;" x="81.417755" xlink:href="#mebc53e50e2" y="80.700839"/>
     <use style="stroke:#000000;" x="81.410367" xlink:href="#mebc53e50e2" y="80.086418"/>
     <use style="stroke:#000000;" x="81.430001" xlink:href="#mebc53e50e2" y="81.306479"/>
     <use style="stroke:#000000;" x="165.01517" xlink:href="#mebc53e50e2" y="160.948914"/>
     <use style="stroke:#000000;" x="166.075159" xlink:href="#mebc53e50e2" y="159.042271"/>
     <use style="stroke:#000000;" x="167.153283" xlink:href="#mebc53e50e2" y="161.660012"/>
     <use style="stroke:#000000;" x="122.756807" xlink:href="#mebc53e50e2" y="142.196646"/>
     <use style="stroke:#000000;" x="122.214754" xlink:href="#mebc53e50e2" y="142.745956"/>
     <use style="stroke:#000000;" x="121.167648" xlink:href="#mebc53e50e2" y="141.912272"/>
     <use style="stroke:#000000;" x="82.064805" xlink:href="#mebc53e50e2" y="90.227765"/>
     <use style="stroke:#000000;" x="81.478734" xlink:href="#mebc53e50e2" y="82.943568"/>
     <use style="stroke:#000000;" x="81.578958" xlink:href="#mebc53e50e2" y="86.150629"/>
     <use style="stroke:#000000;" x="81.499929" xlink:href="#mebc53e50e2" y="83.941067"/>
     <use style="stroke:#000000;" x="165.636743" xlink:href="#mebc53e50e2" y="166.908626"/>
     <use style="stroke:#000000;" x="167.358508" xlink:href="#mebc53e50e2" y="165.28159"/>
     <use style="stroke:#000000;" x="167.485015" xlink:href="#mebc53e50e2" y="166.649865"/>
     <use style="stroke:#000000;" x="107.451878" xlink:href="#mebc53e50e2" y="131.959184"/>
     <use style="stroke:#000000;" x="102.852621" xlink:href="#mebc53e50e2" y="128.269552"/>
     <use style="stroke:#000000;" x="102.170281" xlink:href="#mebc53e50e2" y="127.49545"/>
     <use style="stroke:#000000;" x="97.654246" xlink:href="#mebc53e50e2" y="122.656288"/>
     <use style="stroke:#000000;" x="89.864844" xlink:href="#mebc53e50e2" y="111.936498"/>
     <use style="stroke:#000000;" x="89.746989" xlink:href="#mebc53e50e2" y="112.04194"/>
     <use style="stroke:#000000;" x="90.388419" xlink:href="#mebc53e50e2" y="112.819809"/>
     <use style="stroke:#000000;" x="82.266793" xlink:href="#mebc53e50e2" y="91.522308"/>
     <use style="stroke:#000000;" x="82.164314" xlink:href="#mebc53e50e2" y="91.522892"/>
     <use style="stroke:#000000;" x="82.414897" xlink:href="#mebc53e50e2" y="91.460485"/>
     <use style="stroke:#000000;" x="117.81212" xlink:href="#mebc53e50e2" y="139.283331"/>
     <use style="stroke:#000000;" x="117.96014" xlink:href="#mebc53e50e2" y="139.638838"/>
     <use style="stroke:#000000;" x="118.953694" xlink:href="#mebc53e50e2" y="141.010362"/>
     <use style="stroke:#000000;" x="110.701477" xlink:href="#mebc53e50e2" y="136.120163"/>
     <use style="stroke:#000000;" x="112.665404" xlink:href="#mebc53e50e2" y="136.541636"/>
     <use style="stroke:#000000;" x="110.90992" xlink:href="#mebc53e50e2" y="135.491621"/>
     <use style="stroke:#000000;" x="81.47173" xlink:href="#mebc53e50e2" y="82.572455"/>
     <use style="stroke:#000000;" x="81.409738" xlink:href="#mebc53e50e2" y="80.000854"/>
     <use style="stroke:#000000;" x="81.417569" xlink:href="#mebc53e50e2" y="80.689264"/>
     <use style="stroke:#000000;" x="86.641749" xlink:href="#mebc53e50e2" y="106.251863"/>
     <use style="stroke:#000000;" x="87.771706" xlink:href="#mebc53e50e2" y="108.620922"/>
     <use style="stroke:#000000;" x="86.606534" xlink:href="#mebc53e50e2" y="105.50043"/>
     <use style="stroke:#000000;" x="119.384501" xlink:href="#mebc53e50e2" y="140.243873"/>
     <use style="stroke:#000000;" x="120.913203" xlink:href="#mebc53e50e2" y="142.28299"/>
     <use style="stroke:#000000;" x="120.229087" xlink:href="#mebc53e50e2" y="143.222749"/>
     <use style="stroke:#000000;" x="81.427715" xlink:href="#mebc53e50e2" y="81.209848"/>
     <use style="stroke:#000000;" x="81.408" xlink:href="#mebc53e50e2" y="79.488"/>
     <use style="stroke:#000000;" x="81.514776" xlink:href="#mebc53e50e2" y="84.210493"/>
     <use style="stroke:#000000;" x="81.440842" xlink:href="#mebc53e50e2" y="82.605288"/>
     <use style="stroke:#000000;" x="81.411633" xlink:href="#mebc53e50e2" y="80.229023"/>
     <use style="stroke:#000000;" x="81.408" xlink:href="#mebc53e50e2" y="79.488"/>
     <use style="stroke:#000000;" x="156.63454" xlink:href="#mebc53e50e2" y="156.304602"/>
     <use style="stroke:#000000;" x="156.325905" xlink:href="#mebc53e50e2" y="156.2084"/>
     <use style="stroke:#000000;" x="155.794506" xlink:href="#mebc53e50e2" y="159.552333"/>
     <use style="stroke:#000000;" x="83.296095" xlink:href="#mebc53e50e2" y="96.658459"/>
     <use style="stroke:#000000;" x="82.072749" xlink:href="#mebc53e50e2" y="91.563835"/>
     <use style="stroke:#000000;" x="82.644961" xlink:href="#mebc53e50e2" y="92.695237"/>
     <use style="stroke:#000000;" x="81.616095" xlink:href="#mebc53e50e2" y="85.950207"/>
     <use style="stroke:#000000;" x="81.433867" xlink:href="#mebc53e50e2" y="81.845021"/>
     <use style="stroke:#000000;" x="81.448328" xlink:href="#mebc53e50e2" y="82.19316"/>
     <use style="stroke:#000000;" x="81.413801" xlink:href="#mebc53e50e2" y="80.423924"/>
     <use style="stroke:#000000;" x="81.453214" xlink:href="#mebc53e50e2" y="82.089407"/>
     <use style="stroke:#000000;" x="81.422811" xlink:href="#mebc53e50e2" y="81.584252"/>
     <use style="stroke:#000000;" x="81.528147" xlink:href="#mebc53e50e2" y="85.385763"/>
     <use style="stroke:#000000;" x="81.498647" xlink:href="#mebc53e50e2" y="83.547013"/>
     <use style="stroke:#000000;" x="81.626398" xlink:href="#mebc53e50e2" y="85.157861"/>
     <use style="stroke:#000000;" x="89.703955" xlink:href="#mebc53e50e2" y="112.258603"/>
     <use style="stroke:#000000;" x="88.873747" xlink:href="#mebc53e50e2" y="110.167528"/>
     <use style="stroke:#000000;" x="82.496088" xlink:href="#mebc53e50e2" y="92.225278"/>
     <use style="stroke:#000000;" x="83.300295" xlink:href="#mebc53e50e2" y="95.678694"/>
     <use style="stroke:#000000;" x="82.46833" xlink:href="#mebc53e50e2" y="92.772015"/>
     <use style="stroke:#000000;" x="82.978402" xlink:href="#mebc53e50e2" y="96.1972"/>
     <use style="stroke:#000000;" x="141.965716" xlink:href="#mebc53e50e2" y="151.382815"/>
     <use style="stroke:#000000;" x="139.322575" xlink:href="#mebc53e50e2" y="150.118363"/>
     <use style="stroke:#000000;" x="81.688747" xlink:href="#mebc53e50e2" y="87.226774"/>
     <use style="stroke:#000000;" x="81.731173" xlink:href="#mebc53e50e2" y="86.362126"/>
     <use style="stroke:#000000;" x="140.798421" xlink:href="#mebc53e50e2" y="152.41384"/>
     <use style="stroke:#000000;" x="81.658452" xlink:href="#mebc53e50e2" y="85.553076"/>
     <use style="stroke:#000000;" x="160.658939" xlink:href="#mebc53e50e2" y="161.186014"/>
     <use style="stroke:#000000;" x="81.547983" xlink:href="#mebc53e50e2" y="84.041187"/>
     <use style="stroke:#000000;" x="131.502333" xlink:href="#mebc53e50e2" y="147.478812"/>
     <use style="stroke:#000000;" x="171.298587" xlink:href="#mebc53e50e2" y="182.843867"/>
     <use style="stroke:#000000;" x="116.273051" xlink:href="#mebc53e50e2" y="151.28363"/>
     <use style="stroke:#000000;" x="81.428461" xlink:href="#mebc53e50e2" y="81.241965"/>
     <use style="stroke:#000000;" x="82.536081" xlink:href="#mebc53e50e2" y="92.121815"/>
     <use style="stroke:#000000;" x="85.761658" xlink:href="#mebc53e50e2" y="103.45413"/>
     <use style="stroke:#000000;" x="84.522582" xlink:href="#mebc53e50e2" y="99.985445"/>
     <use style="stroke:#000000;" x="81.56846" xlink:href="#mebc53e50e2" y="84.358619"/>
     <use style="stroke:#000000;" x="405.1968" xlink:href="#mebc53e50e2" y="254.3616"/>
     <use style="stroke:#000000;" x="131.614309" xlink:href="#mebc53e50e2" y="148.128649"/>
     <use style="stroke:#000000;" x="156.961632" xlink:href="#mebc53e50e2" y="158.72437"/>
     <use style="stroke:#000000;" x="156.936842" xlink:href="#mebc53e50e2" y="156.710752"/>
     <use style="stroke:#000000;" x="85.081866" xlink:href="#mebc53e50e2" y="104.587385"/>
     <use style="stroke:#000000;" x="94.112276" xlink:href="#mebc53e50e2" y="118.325169"/>
     <use style="stroke:#000000;" x="85.481437" xlink:href="#mebc53e50e2" y="102.725021"/>
     <use style="stroke:#000000;" x="85.161709" xlink:href="#mebc53e50e2" y="104.056415"/>
     <use style="stroke:#000000;" x="81.531313" xlink:href="#mebc53e50e2" y="83.764699"/>
     <use style="stroke:#000000;" x="118.012176" xlink:href="#mebc53e50e2" y="139.407421"/>
     <use style="stroke:#000000;" x="108.066527" xlink:href="#mebc53e50e2" y="132.451349"/>
     <use style="stroke:#000000;" x="98.216494" xlink:href="#mebc53e50e2" y="123.283739"/>
     <use style="stroke:#000000;" x="81.413332" xlink:href="#mebc53e50e2" y="80.385414"/>
     <use style="stroke:#000000;" x="370.715537" xlink:href="#mebc53e50e2" y="247.027075"/>
     <use style="stroke:#000000;" x="384.286216" xlink:href="#mebc53e50e2" y="247.82553"/>
     <use style="stroke:#000000;" x="81.408" xlink:href="#mebc53e50e2" y="79.488"/>
     <use style="stroke:#000000;" x="81.449844" xlink:href="#mebc53e50e2" y="82.982254"/>
     <use style="stroke:#000000;" x="122.594962" xlink:href="#mebc53e50e2" y="142.106073"/>
     <use style="stroke:#000000;" x="85.73257" xlink:href="#mebc53e50e2" y="103.379732"/>
     <use style="stroke:#000000;" x="84.168181" xlink:href="#mebc53e50e2" y="98.85266"/>
     <use style="stroke:#000000;" x="122.396888" xlink:href="#mebc53e50e2" y="144.166107"/>
     <use style="stroke:#000000;" x="119.442012" xlink:href="#mebc53e50e2" y="140.278376"/>
     <use style="stroke:#000000;" x="124.58479" xlink:href="#mebc53e50e2" y="143.198989"/>
     <use style="stroke:#000000;" x="120.989184" xlink:href="#mebc53e50e2" y="143.67413"/>
     <use style="stroke:#000000;" x="88.561884" xlink:href="#mebc53e50e2" y="110.568639"/>
     <use style="stroke:#000000;" x="81.514367" xlink:href="#mebc53e50e2" y="83.463243"/>
     <use style="stroke:#000000;" x="82.403412" xlink:href="#mebc53e50e2" y="91.386327"/>
     <use style="stroke:#000000;" x="82.206304" xlink:href="#mebc53e50e2" y="90.321711"/>
     <use style="stroke:#000000;" x="140.469655" xlink:href="#mebc53e50e2" y="156.418942"/>
     <use style="stroke:#000000;" x="84.649488" xlink:href="#mebc53e50e2" y="100.373286"/>
     <use style="stroke:#000000;" x="84.1409" xlink:href="#mebc53e50e2" y="98.889526"/>
     <use style="stroke:#000000;" x="162.965657" xlink:href="#mebc53e50e2" y="162.9358"/>
     <use style="stroke:#000000;" x="83.003035" xlink:href="#mebc53e50e2" y="94.8841"/>
     <use style="stroke:#000000;" x="82.305193" xlink:href="#mebc53e50e2" y="90.798424"/>
     <use style="stroke:#000000;" x="84.212139" xlink:href="#mebc53e50e2" y="102.19349"/>
     <use style="stroke:#000000;" x="82.717459" xlink:href="#mebc53e50e2" y="94.304967"/>
     <use style="stroke:#000000;" x="81.979348" xlink:href="#mebc53e50e2" y="91.670022"/>
     <use style="stroke:#000000;" x="81.408496" xlink:href="#mebc53e50e2" y="79.762114"/>
     <use style="stroke:#000000;" x="120.077407" xlink:href="#mebc53e50e2" y="140.656705"/>
     <use style="stroke:#000000;" x="127.852065" xlink:href="#mebc53e50e2" y="144.901575"/>
     <use style="stroke:#000000;" x="98.640172" xlink:href="#mebc53e50e2" y="123.747174"/>
     <use style="stroke:#000000;" x="97.31569" xlink:href="#mebc53e50e2" y="122.271346"/>
     <use style="stroke:#000000;" x="81.676675" xlink:href="#mebc53e50e2" y="88.178983"/>
     <use style="stroke:#000000;" x="81.775722" xlink:href="#mebc53e50e2" y="89.81371"/>
     <use style="stroke:#000000;" x="89.444745" xlink:href="#mebc53e50e2" y="111.647843"/>
     <use style="stroke:#000000;" x="88.484348" xlink:href="#mebc53e50e2" y="111.276555"/>
     <use style="stroke:#000000;" x="83.176513" xlink:href="#mebc53e50e2" y="95.261167"/>
     <use style="stroke:#000000;" x="82.455033" xlink:href="#mebc53e50e2" y="92.386133"/>
     <use style="stroke:#000000;" x="162.884086" xlink:href="#mebc53e50e2" y="158.159498"/>
     <use style="stroke:#000000;" x="167.146659" xlink:href="#mebc53e50e2" y="161.438378"/>
     <use style="stroke:#000000;" x="83.137607" xlink:href="#mebc53e50e2" y="95.960164"/>
     <use style="stroke:#000000;" x="84.046842" xlink:href="#mebc53e50e2" y="99.320024"/>
     <use style="stroke:#000000;" x="166.264189" xlink:href="#mebc53e50e2" y="167.910519"/>
     <use style="stroke:#000000;" x="164.786409" xlink:href="#mebc53e50e2" y="160.714785"/>
    </g>
   </g>
   <g id="PathCollection_2">
    <defs>
     <path d="M 0 0.935414 
C 0.248075 0.935414 0.486022 0.836853 0.661438 0.661438 
C 0.836853 0.486022 0.935414 0.248075 0.935414 0 
C 0.935414 -0.248075 0.836853 -0.486022 0.661438 -0.661438 
C 0.486022 -0.836853 0.248075 -0.935414 0 -0.935414 
C -0.248075 -0.935414 -0.486022 -0.836853 -0.661438 -0.661438 
C -0.836853 -0.486022 -0.935414 -0.248075 -0.935414 0 
C -0.935414 0.248075 -0.836853 0.486022 -0.661438 0.661438 
C -0.486022 0.836853 -0.248075 0.935414 0 0.935414 
z
" id="m148806b414" style="stroke:#0000ff;"/>
    </defs>
    <g clip-path="url(#p157c54bef9)">
     <use style="fill:#0000ff;stroke:#0000ff;" x="81.432761" xlink:href="#m148806b414" y="81.416598"/>
     <use style="fill:#0000ff;stroke:#0000ff;" x="89.231681" xlink:href="#m148806b414" y="110.822081"/>
     <use style="fill:#0000ff;stroke:#0000ff;" x="164.465902" xlink:href="#m148806b414" y="158.602266"/>
     <use style="fill:#0000ff;stroke:#0000ff;" x="81.68817" xlink:href="#m148806b414" y="85.896729"/>
     <use style="fill:#0000ff;stroke:#0000ff;" x="81.408" xlink:href="#m148806b414" y="79.488"/>
     <use style="fill:#0000ff;stroke:#0000ff;" x="156.679652" xlink:href="#m148806b414" y="156.318626"/>
     <use style="fill:#0000ff;stroke:#0000ff;" x="166.41413" xlink:href="#m148806b414" y="159.133637"/>
     <use style="fill:#0000ff;stroke:#0000ff;" x="81.421119" xlink:href="#m148806b414" y="80.893775"/>
     <use style="fill:#0000ff;stroke:#0000ff;" x="81.417023" xlink:href="#m148806b414" y="80.654541"/>
     <use style="fill:#0000ff;stroke:#0000ff;" x="167.134029" xlink:href="#m148806b414" y="160.931709"/>
     <use style="fill:#0000ff;stroke:#0000ff;" x="121.851932" xlink:href="#m148806b414" y="141.686306"/>
     <use style="fill:#0000ff;stroke:#0000ff;" x="81.733903" xlink:href="#m148806b414" y="86.390556"/>
     <use style="fill:#0000ff;stroke:#0000ff;" x="81.537561" xlink:href="#m148806b414" y="83.870443"/>
     <use style="fill:#0000ff;stroke:#0000ff;" x="167.531365" xlink:href="#m148806b414" y="167.087895"/>
     <use style="fill:#0000ff;stroke:#0000ff;" x="104.166799" xlink:href="#m148806b414" y="129.172015"/>
     <use style="fill:#0000ff;stroke:#0000ff;" x="90.101809" xlink:href="#m148806b414" y="112.340345"/>
     <use style="fill:#0000ff;stroke:#0000ff;" x="90.185495" xlink:href="#m148806b414" y="112.868824"/>
     <use style="fill:#0000ff;stroke:#0000ff;" x="82.178754" xlink:href="#m148806b414" y="89.995476"/>
     <use style="fill:#0000ff;stroke:#0000ff;" x="117.357221" xlink:href="#m148806b414" y="138.999073"/>
     <use style="fill:#0000ff;stroke:#0000ff;" x="110.95457" xlink:href="#m148806b414" y="134.655213"/>
     <use style="fill:#0000ff;stroke:#0000ff;" x="81.417371" xlink:href="#m148806b414" y="80.67679"/>
     <use style="fill:#0000ff;stroke:#0000ff;" x="86.701063" xlink:href="#m148806b414" y="105.716914"/>
     <use style="fill:#0000ff;stroke:#0000ff;" x="120.764983" xlink:href="#m148806b414" y="141.060283"/>
     <use style="fill:#0000ff;stroke:#0000ff;" x="81.408" xlink:href="#m148806b414" y="79.488"/>
     <use style="fill:#0000ff;stroke:#0000ff;" x="81.408" xlink:href="#m148806b414" y="79.488"/>
     <use style="fill:#0000ff;stroke:#0000ff;" x="155.825372" xlink:href="#m148806b414" y="156.05142"/>
     <use style="fill:#0000ff;stroke:#0000ff;" x="82.652828" xlink:href="#m148806b414" y="92.735597"/>
     <use style="fill:#0000ff;stroke:#0000ff;" x="81.434183" xlink:href="#m148806b414" y="81.470902"/>
     <use style="fill:#0000ff;stroke:#0000ff;" x="81.429897" xlink:href="#m148806b414" y="81.302179"/>
     <use style="fill:#0000ff;stroke:#0000ff;" x="81.462158" xlink:href="#m148806b414" y="82.333235"/>
     <use style="fill:#0000ff;stroke:#0000ff;" x="89.637895" xlink:href="#m148806b414" y="111.543133"/>
     <use style="fill:#0000ff;stroke:#0000ff;" x="82.749499" xlink:href="#m148806b414" y="93.220714"/>
     <use style="fill:#0000ff;stroke:#0000ff;" x="82.807282" xlink:href="#m148806b414" y="93.5017"/>
     <use style="fill:#0000ff;stroke:#0000ff;" x="141.079584" xlink:href="#m148806b414" y="150.828435"/>
     <use style="fill:#0000ff;stroke:#0000ff;" x="81.548547" xlink:href="#m148806b414" y="84.050236"/>
     <use style="fill:#0000ff;stroke:#0000ff;" x="119.431478" xlink:href="#m148806b414" y="140.272059"/>
     <use style="fill:#0000ff;stroke:#0000ff;" x="81.408" xlink:href="#m148806b414" y="79.488"/>
     <use style="fill:#0000ff;stroke:#0000ff;" x="167.167334" xlink:href="#m148806b414" y="162.070699"/>
     <use style="fill:#0000ff;stroke:#0000ff;" x="81.460043" xlink:href="#m148806b414" y="82.277536"/>
     <use style="fill:#0000ff;stroke:#0000ff;" x="133.173284" xlink:href="#m148806b414" y="147.456391"/>
     <use style="fill:#0000ff;stroke:#0000ff;" x="168.080214" xlink:href="#m148806b414" y="171.028546"/>
     <use style="fill:#0000ff;stroke:#0000ff;" x="120.876076" xlink:href="#m148806b414" y="141.124933"/>
     <use style="fill:#0000ff;stroke:#0000ff;" x="81.897346" xlink:href="#m148806b414" y="87.910187"/>
     <use style="fill:#0000ff;stroke:#0000ff;" x="82.898339" xlink:href="#m148806b414" y="93.932016"/>
     <use style="fill:#0000ff;stroke:#0000ff;" x="85.409341" xlink:href="#m148806b414" y="102.532792"/>
     <use style="fill:#0000ff;stroke:#0000ff;" x="82.698366" xlink:href="#m148806b414" y="92.966558"/>
     <use style="fill:#0000ff;stroke:#0000ff;" x="405.1968" xlink:href="#m148806b414" y="254.3616"/>
     <use style="fill:#0000ff;stroke:#0000ff;" x="133.464353" xlink:href="#m148806b414" y="147.589034"/>
     <use style="fill:#0000ff;stroke:#0000ff;" x="158.452804" xlink:href="#m148806b414" y="156.862321"/>
     <use style="fill:#0000ff;stroke:#0000ff;" x="84.171354" xlink:href="#m148806b414" y="98.863154"/>
     <use style="fill:#0000ff;stroke:#0000ff;" x="94.050379" xlink:href="#m148806b414" y="118.242783"/>
     <use style="fill:#0000ff;stroke:#0000ff;" x="85.287534" xlink:href="#m148806b414" y="102.203446"/>
     <use style="fill:#0000ff;stroke:#0000ff;" x="81.639298" xlink:href="#m148806b414" y="85.320296"/>
     <use style="fill:#0000ff;stroke:#0000ff;" x="117.180405" xlink:href="#m148806b414" y="138.887788"/>
     <use style="fill:#0000ff;stroke:#0000ff;" x="107.01286" xlink:href="#m148806b414" y="131.602309"/>
     <use style="fill:#0000ff;stroke:#0000ff;" x="98.901461" xlink:href="#m148806b414" y="124.02911"/>
     <use style="fill:#0000ff;stroke:#0000ff;" x="81.648358" xlink:href="#m148806b414" y="85.431601"/>
     <use style="fill:#0000ff;stroke:#0000ff;" x="382.960941" xlink:href="#m148806b414" y="247.455263"/>
     <use style="fill:#0000ff;stroke:#0000ff;" x="81.408" xlink:href="#m148806b414" y="79.488"/>
     <use style="fill:#0000ff;stroke:#0000ff;" x="127.867607" xlink:href="#m148806b414" y="144.909417"/>
     <use style="fill:#0000ff;stroke:#0000ff;" x="85.18165" xlink:href="#m148806b414" y="101.912304"/>
     <use style="fill:#0000ff;stroke:#0000ff;" x="119.634309" xlink:href="#m148806b414" y="140.393427"/>
     <use style="fill:#0000ff;stroke:#0000ff;" x="120.605549" xlink:href="#m148806b414" y="140.967233"/>
     <use style="fill:#0000ff;stroke:#0000ff;" x="88.96425" xlink:href="#m148806b414" y="110.334804"/>
     <use style="fill:#0000ff;stroke:#0000ff;" x="81.877206" xlink:href="#m148806b414" y="87.73903"/>
     <use style="fill:#0000ff;stroke:#0000ff;" x="82.394405" xlink:href="#m148806b414" y="91.329197"/>
     <use style="fill:#0000ff;stroke:#0000ff;" x="144.360992" xlink:href="#m148806b414" y="152.100007"/>
     <use style="fill:#0000ff;stroke:#0000ff;" x="84.79669" xlink:href="#m148806b414" y="100.812532"/>
     <use style="fill:#0000ff;stroke:#0000ff;" x="160.635726" xlink:href="#m148806b414" y="157.512047"/>
     <use style="fill:#0000ff;stroke:#0000ff;" x="83.249214" xlink:href="#m148806b414" y="95.468798"/>
     <use style="fill:#0000ff;stroke:#0000ff;" x="82.962419" xlink:href="#m148806b414" y="94.226345"/>
     <use style="fill:#0000ff;stroke:#0000ff;" x="81.486369" xlink:href="#m148806b414" y="82.905342"/>
     <use style="fill:#0000ff;stroke:#0000ff;" x="124.852841" xlink:href="#m148806b414" y="143.342864"/>
     <use style="fill:#0000ff;stroke:#0000ff;" x="97.557701" xlink:href="#m148806b414" y="122.547072"/>
     <use style="fill:#0000ff;stroke:#0000ff;" x="81.572043" xlink:href="#m148806b414" y="84.411985"/>
     <use style="fill:#0000ff;stroke:#0000ff;" x="89.375333" xlink:href="#m148806b414" y="111.079634"/>
     <use style="fill:#0000ff;stroke:#0000ff;" x="82.661055" xlink:href="#m148806b414" y="92.777653"/>
     <use style="fill:#0000ff;stroke:#0000ff;" x="164.413656" xlink:href="#m148806b414" y="158.587806"/>
     <use style="fill:#0000ff;stroke:#0000ff;" x="84.359334" xlink:href="#m148806b414" y="99.473184"/>
     <use style="fill:#0000ff;stroke:#0000ff;" x="167.2056" xlink:href="#m148806b414" y="162.957133"/>
    </g>
   </g>
   <g id="matplotlib.axis_1">
    <g id="xtick_1">
     <g id="line2d_1">
      <defs>
       <path d="M 0 0 
L 0 3.5 
" id="m7e55b06677" style="stroke:#000000;stroke-width:0.8;"/>
      </defs>
      <g>
       <use style="stroke:#000000;stroke-width:0.8;" x="81.408" xlink:href="#m7e55b06677" y="307.584"/>
      </g>
     </g>
     <g id="text_1">
      <!-- 0 -->
      <defs>
       <path d="M 31.78125 66.40625 
Q 24.171875 66.40625 20.328125 58.90625 
Q 16.5 51.421875 16.5 36.375 
Q 16.5 21.390625 20.328125 13.890625 
Q 24.171875 6.390625 31.78125 6.390625 
Q 39.453125 6.390625 43.28125 13.890625 
Q 47.125 21.390625 47.125 36.375 
Q 47.125 51.421875 43.28125 58.90625 
Q 39.453125 66.40625 31.78125 66.40625 
z
M 31.78125 74.21875 
Q 44.046875 74.21875 50.515625 64.515625 
Q 56.984375 54.828125 56.984375 36.375 
Q 56.984375 17.96875 50.515625 8.265625 
Q 44.046875 -1.421875 31.78125 -1.421875 
Q 19.53125 -1.421875 13.0625 8.265625 
Q 6.59375 17.96875 6.59375 36.375 
Q 6.59375 54.828125 13.0625 64.515625 
Q 19.53125 74.21875 31.78125 74.21875 
z
" id="DejaVuSans-30"/>
      </defs>
      <g transform="translate(78.22675 322.182437)scale(0.1 -0.1)">
       <use xlink:href="#DejaVuSans-30"/>
      </g>
     </g>
    </g>
    <g id="xtick_2">
     <g id="line2d_2">
      <g>
       <use style="stroke:#000000;stroke-width:0.8;" x="129.024" xlink:href="#m7e55b06677" y="307.584"/>
      </g>
     </g>
     <g id="text_2">
      <!-- 20 -->
      <defs>
       <path d="M 19.1875 8.296875 
L 53.609375 8.296875 
L 53.609375 0 
L 7.328125 0 
L 7.328125 8.296875 
Q 12.9375 14.109375 22.625 23.890625 
Q 32.328125 33.6875 34.8125 36.53125 
Q 39.546875 41.84375 41.421875 45.53125 
Q 43.3125 49.21875 43.3125 52.78125 
Q 43.3125 58.59375 39.234375 62.25 
Q 35.15625 65.921875 28.609375 65.921875 
Q 23.96875 65.921875 18.8125 64.3125 
Q 13.671875 62.703125 7.8125 59.421875 
L 7.8125 69.390625 
Q 13.765625 71.78125 18.9375 73 
Q 24.125 74.21875 28.421875 74.21875 
Q 39.75 74.21875 46.484375 68.546875 
Q 53.21875 62.890625 53.21875 53.421875 
Q 53.21875 48.921875 51.53125 44.890625 
Q 49.859375 40.875 45.40625 35.40625 
Q 44.1875 33.984375 37.640625 27.21875 
Q 31.109375 20.453125 19.1875 8.296875 
z
" id="DejaVuSans-32"/>
      </defs>
      <g transform="translate(122.6615 322.182437)scale(0.1 -0.1)">
       <use xlink:href="#DejaVuSans-32"/>
       <use x="63.623047" xlink:href="#DejaVuSans-30"/>
      </g>
     </g>
    </g>
    <g id="xtick_3">
     <g id="line2d_3">
      <g>
       <use style="stroke:#000000;stroke-width:0.8;" x="176.64" xlink:href="#m7e55b06677" y="307.584"/>
      </g>
     </g>
     <g id="text_3">
      <!-- 40 -->
      <defs>
       <path d="M 37.796875 64.3125 
L 12.890625 25.390625 
L 37.796875 25.390625 
z
M 35.203125 72.90625 
L 47.609375 72.90625 
L 47.609375 25.390625 
L 58.015625 25.390625 
L 58.015625 17.1875 
L 47.609375 17.1875 
L 47.609375 0 
L 37.796875 0 
L 37.796875 17.1875 
L 4.890625 17.1875 
L 4.890625 26.703125 
z
" id="DejaVuSans-34"/>
      </defs>
      <g transform="translate(170.2775 322.182437)scale(0.1 -0.1)">
       <use xlink:href="#DejaVuSans-34"/>
       <use x="63.623047" xlink:href="#DejaVuSans-30"/>
      </g>
     </g>
    </g>
    <g id="xtick_4">
     <g id="line2d_4">
      <g>
       <use style="stroke:#000000;stroke-width:0.8;" x="224.256" xlink:href="#m7e55b06677" y="307.584"/>
      </g>
     </g>
     <g id="text_4">
      <!-- 60 -->
      <defs>
       <path d="M 33.015625 40.375 
Q 26.375 40.375 22.484375 35.828125 
Q 18.609375 31.296875 18.609375 23.390625 
Q 18.609375 15.53125 22.484375 10.953125 
Q 26.375 6.390625 33.015625 6.390625 
Q 39.65625 6.390625 43.53125 10.953125 
Q 47.40625 15.53125 47.40625 23.390625 
Q 47.40625 31.296875 43.53125 35.828125 
Q 39.65625 40.375 33.015625 40.375 
z
M 52.59375 71.296875 
L 52.59375 62.3125 
Q 48.875 64.0625 45.09375 64.984375 
Q 41.3125 65.921875 37.59375 65.921875 
Q 27.828125 65.921875 22.671875 59.328125 
Q 17.53125 52.734375 16.796875 39.40625 
Q 19.671875 43.65625 24.015625 45.921875 
Q 28.375 48.1875 33.59375 48.1875 
Q 44.578125 48.1875 50.953125 41.515625 
Q 57.328125 34.859375 57.328125 23.390625 
Q 57.328125 12.15625 50.6875 5.359375 
Q 44.046875 -1.421875 33.015625 -1.421875 
Q 20.359375 -1.421875 13.671875 8.265625 
Q 6.984375 17.96875 6.984375 36.375 
Q 6.984375 53.65625 15.1875 63.9375 
Q 23.390625 74.21875 37.203125 74.21875 
Q 40.921875 74.21875 44.703125 73.484375 
Q 48.484375 72.75 52.59375 71.296875 
z
" id="DejaVuSans-36"/>
      </defs>
      <g transform="translate(217.8935 322.182437)scale(0.1 -0.1)">
       <use xlink:href="#DejaVuSans-36"/>
       <use x="63.623047" xlink:href="#DejaVuSans-30"/>
      </g>
     </g>
    </g>
    <g id="xtick_5">
     <g id="line2d_5">
      <g>
       <use style="stroke:#000000;stroke-width:0.8;" x="271.872" xlink:href="#m7e55b06677" y="307.584"/>
      </g>
     </g>
     <g id="text_5">
      <!-- 80 -->
      <defs>
       <path d="M 31.78125 34.625 
Q 24.75 34.625 20.71875 30.859375 
Q 16.703125 27.09375 16.703125 20.515625 
Q 16.703125 13.921875 20.71875 10.15625 
Q 24.75 6.390625 31.78125 6.390625 
Q 38.8125 6.390625 42.859375 10.171875 
Q 46.921875 13.96875 46.921875 20.515625 
Q 46.921875 27.09375 42.890625 30.859375 
Q 38.875 34.625 31.78125 34.625 
z
M 21.921875 38.8125 
Q 15.578125 40.375 12.03125 44.71875 
Q 8.5 49.078125 8.5 55.328125 
Q 8.5 64.0625 14.71875 69.140625 
Q 20.953125 74.21875 31.78125 74.21875 
Q 42.671875 74.21875 48.875 69.140625 
Q 55.078125 64.0625 55.078125 55.328125 
Q 55.078125 49.078125 51.53125 44.71875 
Q 48 40.375 41.703125 38.8125 
Q 48.828125 37.15625 52.796875 32.3125 
Q 56.78125 27.484375 56.78125 20.515625 
Q 56.78125 9.90625 50.3125 4.234375 
Q 43.84375 -1.421875 31.78125 -1.421875 
Q 19.734375 -1.421875 13.25 4.234375 
Q 6.78125 9.90625 6.78125 20.515625 
Q 6.78125 27.484375 10.78125 32.3125 
Q 14.796875 37.15625 21.921875 38.8125 
z
M 18.3125 54.390625 
Q 18.3125 48.734375 21.84375 45.5625 
Q 25.390625 42.390625 31.78125 42.390625 
Q 38.140625 42.390625 41.71875 45.5625 
Q 45.3125 48.734375 45.3125 54.390625 
Q 45.3125 60.0625 41.71875 63.234375 
Q 38.140625 66.40625 31.78125 66.40625 
Q 25.390625 66.40625 21.84375 63.234375 
Q 18.3125 60.0625 18.3125 54.390625 
z
" id="DejaVuSans-38"/>
      </defs>
      <g transform="translate(265.5095 322.182437)scale(0.1 -0.1)">
       <use xlink:href="#DejaVuSans-38"/>
       <use x="63.623047" xlink:href="#DejaVuSans-30"/>
      </g>
     </g>
    </g>
    <g id="xtick_6">
     <g id="line2d_6">
      <g>
       <use style="stroke:#000000;stroke-width:0.8;" x="319.488" xlink:href="#m7e55b06677" y="307.584"/>
      </g>
     </g>
     <g id="text_6">
      <!-- 100 -->
      <defs>
       <path d="M 12.40625 8.296875 
L 28.515625 8.296875 
L 28.515625 63.921875 
L 10.984375 60.40625 
L 10.984375 69.390625 
L 28.421875 72.90625 
L 38.28125 72.90625 
L 38.28125 8.296875 
L 54.390625 8.296875 
L 54.390625 0 
L 12.40625 0 
z
" id="DejaVuSans-31"/>
      </defs>
      <g transform="translate(309.94425 322.182437)scale(0.1 -0.1)">
       <use xlink:href="#DejaVuSans-31"/>
       <use x="63.623047" xlink:href="#DejaVuSans-30"/>
       <use x="127.246094" xlink:href="#DejaVuSans-30"/>
      </g>
     </g>
    </g>
    <g id="xtick_7">
     <g id="line2d_7">
      <g>
       <use style="stroke:#000000;stroke-width:0.8;" x="367.104" xlink:href="#m7e55b06677" y="307.584"/>
      </g>
     </g>
     <g id="text_7">
      <!-- 120 -->
      <g transform="translate(357.56025 322.182437)scale(0.1 -0.1)">
       <use xlink:href="#DejaVuSans-31"/>
       <use x="63.623047" xlink:href="#DejaVuSans-32"/>
       <use x="127.246094" xlink:href="#DejaVuSans-30"/>
      </g>
     </g>
    </g>
    <g id="xtick_8">
     <g id="line2d_8">
      <g>
       <use style="stroke:#000000;stroke-width:0.8;" x="414.72" xlink:href="#m7e55b06677" y="307.584"/>
      </g>
     </g>
     <g id="text_8">
      <!-- 140 -->
      <g transform="translate(405.17625 322.182437)scale(0.1 -0.1)">
       <use xlink:href="#DejaVuSans-31"/>
       <use x="63.623047" xlink:href="#DejaVuSans-34"/>
       <use x="127.246094" xlink:href="#DejaVuSans-30"/>
      </g>
     </g>
    </g>
   </g>
   <g id="matplotlib.axis_2">
    <g id="ytick_1">
     <g id="line2d_9">
      <defs>
       <path d="M 0 0 
L -3.5 0 
" id="m0a7e9a8916" style="stroke:#000000;stroke-width:0.8;"/>
      </defs>
      <g>
       <use style="stroke:#000000;stroke-width:0.8;" x="57.6" xlink:href="#m0a7e9a8916" y="307.584"/>
      </g>
     </g>
     <g id="text_9">
      <!-- −10 -->
      <defs>
       <path d="M 10.59375 35.5 
L 73.1875 35.5 
L 73.1875 27.203125 
L 10.59375 27.203125 
z
" id="DejaVuSans-2212"/>
      </defs>
      <g transform="translate(29.495313 311.383219)scale(0.1 -0.1)">
       <use xlink:href="#DejaVuSans-2212"/>
       <use x="83.789062" xlink:href="#DejaVuSans-31"/>
       <use x="147.412109" xlink:href="#DejaVuSans-30"/>
      </g>
     </g>
    </g>
    <g id="ytick_2">
     <g id="line2d_10">
      <g>
       <use style="stroke:#000000;stroke-width:0.8;" x="57.6" xlink:href="#m0a7e9a8916" y="269.568"/>
      </g>
     </g>
     <g id="text_10">
      <!-- 0 -->
      <g transform="translate(44.2375 273.367219)scale(0.1 -0.1)">
       <use xlink:href="#DejaVuSans-30"/>
      </g>
     </g>
    </g>
    <g id="ytick_3">
     <g id="line2d_11">
      <g>
       <use style="stroke:#000000;stroke-width:0.8;" x="57.6" xlink:href="#m0a7e9a8916" y="231.552"/>
      </g>
     </g>
     <g id="text_11">
      <!-- 10 -->
      <g transform="translate(37.875 235.351219)scale(0.1 -0.1)">
       <use xlink:href="#DejaVuSans-31"/>
       <use x="63.623047" xlink:href="#DejaVuSans-30"/>
      </g>
     </g>
    </g>
    <g id="ytick_4">
     <g id="line2d_12">
      <g>
       <use style="stroke:#000000;stroke-width:0.8;" x="57.6" xlink:href="#m0a7e9a8916" y="193.536"/>
      </g>
     </g>
     <g id="text_12">
      <!-- 20 -->
      <g transform="translate(37.875 197.335219)scale(0.1 -0.1)">
       <use xlink:href="#DejaVuSans-32"/>
       <use x="63.623047" xlink:href="#DejaVuSans-30"/>
      </g>
     </g>
    </g>
    <g id="ytick_5">
     <g id="line2d_13">
      <g>
       <use style="stroke:#000000;stroke-width:0.8;" x="57.6" xlink:href="#m0a7e9a8916" y="155.52"/>
      </g>
     </g>
     <g id="text_13">
      <!-- 30 -->
      <defs>
       <path d="M 40.578125 39.3125 
Q 47.65625 37.796875 51.625 33 
Q 55.609375 28.21875 55.609375 21.1875 
Q 55.609375 10.40625 48.1875 4.484375 
Q 40.765625 -1.421875 27.09375 -1.421875 
Q 22.515625 -1.421875 17.65625 -0.515625 
Q 12.796875 0.390625 7.625 2.203125 
L 7.625 11.71875 
Q 11.71875 9.328125 16.59375 8.109375 
Q 21.484375 6.890625 26.8125 6.890625 
Q 36.078125 6.890625 40.9375 10.546875 
Q 45.796875 14.203125 45.796875 21.1875 
Q 45.796875 27.640625 41.28125 31.265625 
Q 36.765625 34.90625 28.71875 34.90625 
L 20.21875 34.90625 
L 20.21875 43.015625 
L 29.109375 43.015625 
Q 36.375 43.015625 40.234375 45.921875 
Q 44.09375 48.828125 44.09375 54.296875 
Q 44.09375 59.90625 40.109375 62.90625 
Q 36.140625 65.921875 28.71875 65.921875 
Q 24.65625 65.921875 20.015625 65.03125 
Q 15.375 64.15625 9.8125 62.3125 
L 9.8125 71.09375 
Q 15.4375 72.65625 20.34375 73.4375 
Q 25.25 74.21875 29.59375 74.21875 
Q 40.828125 74.21875 47.359375 69.109375 
Q 53.90625 64.015625 53.90625 55.328125 
Q 53.90625 49.265625 50.4375 45.09375 
Q 46.96875 40.921875 40.578125 39.3125 
z
" id="DejaVuSans-33"/>
      </defs>
      <g transform="translate(37.875 159.319219)scale(0.1 -0.1)">
       <use xlink:href="#DejaVuSans-33"/>
       <use x="63.623047" xlink:href="#DejaVuSans-30"/>
      </g>
     </g>
    </g>
    <g id="ytick_6">
     <g id="line2d_14">
      <g>
       <use style="stroke:#000000;stroke-width:0.8;" x="57.6" xlink:href="#m0a7e9a8916" y="117.504"/>
      </g>
     </g>
     <g id="text_14">
      <!-- 40 -->
      <g transform="translate(37.875 121.303219)scale(0.1 -0.1)">
       <use xlink:href="#DejaVuSans-34"/>
       <use x="63.623047" xlink:href="#DejaVuSans-30"/>
      </g>
     </g>
    </g>
    <g id="ytick_7">
     <g id="line2d_15">
      <g>
       <use style="stroke:#000000;stroke-width:0.8;" x="57.6" xlink:href="#m0a7e9a8916" y="79.488"/>
      </g>
     </g>
     <g id="text_15">
      <!-- 50 -->
      <defs>
       <path d="M 10.796875 72.90625 
L 49.515625 72.90625 
L 49.515625 64.59375 
L 19.828125 64.59375 
L 19.828125 46.734375 
Q 21.96875 47.46875 24.109375 47.828125 
Q 26.265625 48.1875 28.421875 48.1875 
Q 40.625 48.1875 47.75 41.5 
Q 54.890625 34.8125 54.890625 23.390625 
Q 54.890625 11.625 47.5625 5.09375 
Q 40.234375 -1.421875 26.90625 -1.421875 
Q 22.3125 -1.421875 17.546875 -0.640625 
Q 12.796875 0.140625 7.71875 1.703125 
L 7.71875 11.625 
Q 12.109375 9.234375 16.796875 8.0625 
Q 21.484375 6.890625 26.703125 6.890625 
Q 35.15625 6.890625 40.078125 11.328125 
Q 45.015625 15.765625 45.015625 23.390625 
Q 45.015625 31 40.078125 35.4375 
Q 35.15625 39.890625 26.703125 39.890625 
Q 22.75 39.890625 18.8125 39.015625 
Q 14.890625 38.140625 10.796875 36.28125 
z
" id="DejaVuSans-35"/>
      </defs>
      <g transform="translate(37.875 83.287219)scale(0.1 -0.1)">
       <use xlink:href="#DejaVuSans-35"/>
       <use x="63.623047" xlink:href="#DejaVuSans-30"/>
      </g>
     </g>
    </g>
    <g id="ytick_8">
     <g id="line2d_16">
      <g>
       <use style="stroke:#000000;stroke-width:0.8;" x="57.6" xlink:href="#m0a7e9a8916" y="41.472"/>
      </g>
     </g>
     <g id="text_16">
      <!-- 60 -->
      <g transform="translate(37.875 45.271219)scale(0.1 -0.1)">
       <use xlink:href="#DejaVuSans-36"/>
       <use x="63.623047" xlink:href="#DejaVuSans-30"/>
      </g>
     </g>
    </g>
   </g>
   <g id="patch_3">
    <path d="M 57.6 307.584 
L 57.6 41.472 
" style="fill:none;stroke:#000000;stroke-linecap:square;stroke-linejoin:miter;stroke-width:0.8;"/>
   </g>
   <g id="patch_4">
    <path d="M 414.72 307.584 
L 414.72 41.472 
" style="fill:none;stroke:#000000;stroke-linecap:square;stroke-linejoin:miter;stroke-width:0.8;"/>
   </g>
   <g id="patch_5">
    <path d="M 57.6 307.584 
L 414.72 307.584 
" style="fill:none;stroke:#000000;stroke-linecap:square;stroke-linejoin:miter;stroke-width:0.8;"/>
   </g>
   <g id="patch_6">
    <path d="M 57.6 41.472 
L 414.72 41.472 
" style="fill:none;stroke:#000000;stroke-linecap:square;stroke-linejoin:miter;stroke-width:0.8;"/>
   </g>
  </g>
 </g>
 <defs>
  <clipPath id="p157c54bef9">
   <rect height="266.112" width="357.12" x="57.6" y="41.472"/>
  </clipPath>
 </defs>
</svg>
