<?xml version="1.0" encoding="utf-8" standalone="no"?>
<!DOCTYPE svg PUBLIC "-//W3C//DTD SVG 1.1//EN"
  "http://www.w3.org/Graphics/SVG/1.1/DTD/svg11.dtd">
<!-- Created with matplotlib (http://matplotlib.org/) -->
<svg height="345.6pt" version="1.1" viewBox="0 0 460.8 345.6" width="460.8pt" xmlns="http://www.w3.org/2000/svg" xmlns:xlink="http://www.w3.org/1999/xlink">
 <defs>
  <style type="text/css">
*{stroke-linecap:butt;stroke-linejoin:round;}
  </style>
 </defs>
 <g id="figure_1">
  <g id="patch_1">
   <path d="M 0 345.6 
L 460.8 345.6 
L 460.8 0 
L 0 0 
z
" style="fill:#ffffff;"/>
  </g>
  <g id="axes_1">
   <g id="patch_2">
    <path d="M 57.6 307.584 
L 414.72 307.584 
L 414.72 41.472 
L 57.6 41.472 
z
" style="fill:#ffffff;"/>
   </g>
   <g id="PathCollection_1">
    <defs>
     <path d="M 0 0.612372 
C 0.162403 0.612372 0.318176 0.547849 0.433013 0.433013 
C 0.547849 0.318176 0.612372 0.162403 0.612372 0 
C 0.612372 -0.162403 0.547849 -0.318176 0.433013 -0.433013 
C 0.318176 -0.547849 0.162403 -0.612372 0 -0.612372 
C -0.162403 -0.612372 -0.318176 -0.547849 -0.433013 -0.433013 
C -0.547849 -0.318176 -0.612372 -0.162403 -0.612372 0 
C -0.612372 0.162403 -0.547849 0.318176 -0.433013 0.433013 
C -0.318176 0.547849 -0.162403 0.612372 0 0.612372 
z
" id="m14cf55c994" style="stroke:#000000;"/>
    </defs>
    <g clip-path="url(#p5cc33ca180)">
     <use style="stroke:#000000;" x="313.026032" xlink:href="#m14cf55c994" y="98.174121"/>
     <use style="stroke:#000000;" x="308.010086" xlink:href="#m14cf55c994" y="86.259733"/>
     <use style="stroke:#000000;" x="382.99509" xlink:href="#m14cf55c994" y="164.165456"/>
     <use style="stroke:#000000;" x="312.757759" xlink:href="#m14cf55c994" y="96.927981"/>
     <use style="stroke:#000000;" x="339.613976" xlink:href="#m14cf55c994" y="126.558844"/>
     <use style="stroke:#000000;" x="309.047554" xlink:href="#m14cf55c994" y="88.717036"/>
     <use style="stroke:#000000;" x="313.737555" xlink:href="#m14cf55c994" y="98.723823"/>
     <use style="stroke:#000000;" x="343.147468" xlink:href="#m14cf55c994" y="133.327377"/>
     <use style="stroke:#000000;" x="336.048292" xlink:href="#m14cf55c994" y="118.578104"/>
     <use style="stroke:#000000;" x="298.853788" xlink:href="#m14cf55c994" y="70.78436"/>
     <use style="stroke:#000000;" x="301.5789" xlink:href="#m14cf55c994" y="77.686846"/>
     <use style="stroke:#000000;" x="355.591364" xlink:href="#m14cf55c994" y="154.50398"/>
     <use style="stroke:#000000;" x="340.146333" xlink:href="#m14cf55c994" y="127.997261"/>
     <use style="stroke:#000000;" x="344.41389" xlink:href="#m14cf55c994" y="135.229122"/>
     <use style="stroke:#000000;" x="347.512518" xlink:href="#m14cf55c994" y="141.040705"/>
     <use style="stroke:#000000;" x="334.386808" xlink:href="#m14cf55c994" y="115.716209"/>
     <use style="stroke:#000000;" x="354.619851" xlink:href="#m14cf55c994" y="144.924129"/>
     <use style="stroke:#000000;" x="306.952607" xlink:href="#m14cf55c994" y="85.446949"/>
     <use style="stroke:#000000;" x="310.622237" xlink:href="#m14cf55c994" y="91.217458"/>
     <use style="stroke:#000000;" x="303.577899" xlink:href="#m14cf55c994" y="78.306521"/>
     <use style="stroke:#000000;" x="309.442399" xlink:href="#m14cf55c994" y="88.966811"/>
     <use style="stroke:#000000;" x="309.900274" xlink:href="#m14cf55c994" y="91.11237"/>
     <use style="stroke:#000000;" x="383.540357" xlink:href="#m14cf55c994" y="165.007614"/>
     <use style="stroke:#000000;" x="311.859314" xlink:href="#m14cf55c994" y="95.407742"/>
     <use style="stroke:#000000;" x="341.512085" xlink:href="#m14cf55c994" y="129.572754"/>
     <use style="stroke:#000000;" x="293.029885" xlink:href="#m14cf55c994" y="65.103872"/>
     <use style="stroke:#000000;" x="340.45481" xlink:href="#m14cf55c994" y="128.203405"/>
     <use style="stroke:#000000;" x="335.275345" xlink:href="#m14cf55c994" y="117.326207"/>
     <use style="stroke:#000000;" x="338.531029" xlink:href="#m14cf55c994" y="123.554474"/>
     <use style="stroke:#000000;" x="342.760303" xlink:href="#m14cf55c994" y="131.485011"/>
     <use style="stroke:#000000;" x="338.620601" xlink:href="#m14cf55c994" y="123.607805"/>
     <use style="stroke:#000000;" x="311.401848" xlink:href="#m14cf55c994" y="92.256218"/>
     <use style="stroke:#000000;" x="304.087011" xlink:href="#m14cf55c994" y="80.012979"/>
     <use style="stroke:#000000;" x="335.235191" xlink:href="#m14cf55c994" y="116.954406"/>
     <use style="stroke:#000000;" x="384.980133" xlink:href="#m14cf55c994" y="167.785486"/>
     <use style="stroke:#000000;" x="299.850098" xlink:href="#m14cf55c994" y="73.477975"/>
     <use style="stroke:#000000;" x="331.433167" xlink:href="#m14cf55c994" y="110.278876"/>
     <use style="stroke:#000000;" x="291.293729" xlink:href="#m14cf55c994" y="64.407564"/>
     <use style="stroke:#000000;" x="310.642324" xlink:href="#m14cf55c994" y="91.416873"/>
     <use style="stroke:#000000;" x="328.76998" xlink:href="#m14cf55c994" y="106.262993"/>
     <use style="stroke:#000000;" x="344.196545" xlink:href="#m14cf55c994" y="133.882017"/>
     <use style="stroke:#000000;" x="341.140454" xlink:href="#m14cf55c994" y="129.062194"/>
     <use style="stroke:#000000;" x="378.039726" xlink:href="#m14cf55c994" y="155.439434"/>
     <use style="stroke:#000000;" x="342.554121" xlink:href="#m14cf55c994" y="131.431526"/>
     <use style="stroke:#000000;" x="402.506987" xlink:href="#m14cf55c994" y="177.940935"/>
     <use style="stroke:#000000;" x="391.614335" xlink:href="#m14cf55c994" y="176.513519"/>
     <use style="stroke:#000000;" x="328.107186" xlink:href="#m14cf55c994" y="104.915"/>
     <use style="stroke:#000000;" x="297.150189" xlink:href="#m14cf55c994" y="69.269501"/>
     <use style="stroke:#000000;" x="329.638675" xlink:href="#m14cf55c994" y="106.8808"/>
     <use style="stroke:#000000;" x="339.16779" xlink:href="#m14cf55c994" y="126.248915"/>
     <use style="stroke:#000000;" x="329.166648" xlink:href="#m14cf55c994" y="106.514851"/>
     <use style="stroke:#000000;" x="328.365979" xlink:href="#m14cf55c994" y="106.171912"/>
     <use style="stroke:#000000;" x="306.865866" xlink:href="#m14cf55c994" y="84.409481"/>
     <use style="stroke:#000000;" x="323.433588" xlink:href="#m14cf55c994" y="101.752103"/>
     <use style="stroke:#000000;" x="293.470481" xlink:href="#m14cf55c994" y="66.023689"/>
     <use style="stroke:#000000;" x="346.917506" xlink:href="#m14cf55c994" y="137.297728"/>
     <use style="stroke:#000000;" x="297.007814" xlink:href="#m14cf55c994" y="69.114568"/>
     <use style="stroke:#000000;" x="342.994336" xlink:href="#m14cf55c994" y="132.849887"/>
     <use style="stroke:#000000;" x="347.31537" xlink:href="#m14cf55c994" y="137.976029"/>
     <use style="stroke:#000000;" x="403.730378" xlink:href="#m14cf55c994" y="178.302098"/>
     <use style="stroke:#000000;" x="315.946387" xlink:href="#m14cf55c994" y="204.571661"/>
     <use style="stroke:#000000;" x="304.71606" xlink:href="#m14cf55c994" y="80.558843"/>
     <use style="stroke:#000000;" x="305.929311" xlink:href="#m14cf55c994" y="85.996858"/>
     <use style="stroke:#000000;" x="308.118635" xlink:href="#m14cf55c994" y="86.597666"/>
     <use style="stroke:#000000;" x="307.95988" xlink:href="#m14cf55c994" y="86.393186"/>
     <use style="stroke:#000000;" x="361.167991" xlink:href="#m14cf55c994" y="147.626377"/>
     <use style="stroke:#000000;" x="278.531559" xlink:href="#m14cf55c994" y="119.922258"/>
     <use style="stroke:#000000;" x="328.324857" xlink:href="#m14cf55c994" y="181.577944"/>
     <use style="stroke:#000000;" x="287.900341" xlink:href="#m14cf55c994" y="221.270227"/>
     <use style="stroke:#000000;" x="283.547951" xlink:href="#m14cf55c994" y="166.248816"/>
     <use style="stroke:#000000;" x="305.182869" xlink:href="#m14cf55c994" y="167.185617"/>
     <use style="stroke:#000000;" x="314.909702" xlink:href="#m14cf55c994" y="213.715367"/>
     <use style="stroke:#000000;" x="229.03687" xlink:href="#m14cf55c994" y="212.966889"/>
     <use style="stroke:#000000;" x="288.636411" xlink:href="#m14cf55c994" y="104.288007"/>
     <use style="stroke:#000000;" x="326.15857" xlink:href="#m14cf55c994" y="158.576609"/>
     <use style="stroke:#000000;" x="319.854377" xlink:href="#m14cf55c994" y="119.354892"/>
     <use style="stroke:#000000;" x="330.767431" xlink:href="#m14cf55c994" y="111.575495"/>
     <use style="stroke:#000000;" x="350.07781" xlink:href="#m14cf55c994" y="182.765845"/>
     <use style="stroke:#000000;" x="374.881767" xlink:href="#m14cf55c994" y="174.609782"/>
     <use style="stroke:#000000;" x="352.278887" xlink:href="#m14cf55c994" y="163.238293"/>
     <use style="stroke:#000000;" x="298.469455" xlink:href="#m14cf55c994" y="193.720955"/>
     <use style="stroke:#000000;" x="288.186508" xlink:href="#m14cf55c994" y="170.501349"/>
     <use style="stroke:#000000;" x="285.256933" xlink:href="#m14cf55c994" y="86.932951"/>
     <use style="stroke:#000000;" x="285.699737" xlink:href="#m14cf55c994" y="69.002224"/>
     <use style="stroke:#000000;" x="315.359752" xlink:href="#m14cf55c994" y="113.117877"/>
     <use style="stroke:#000000;" x="303.070271" xlink:href="#m14cf55c994" y="96.307062"/>
     <use style="stroke:#000000;" x="321.941268" xlink:href="#m14cf55c994" y="150.710302"/>
     <use style="stroke:#000000;" x="368.315991" xlink:href="#m14cf55c994" y="176.107596"/>
     <use style="stroke:#000000;" x="310.168711" xlink:href="#m14cf55c994" y="100.991699"/>
     <use style="stroke:#000000;" x="312.806129" xlink:href="#m14cf55c994" y="96.032966"/>
     <use style="stroke:#000000;" x="350.743876" xlink:href="#m14cf55c994" y="149.291427"/>
     <use style="stroke:#000000;" x="343.829967" xlink:href="#m14cf55c994" y="142.134739"/>
     <use style="stroke:#000000;" x="328.243091" xlink:href="#m14cf55c994" y="132.621723"/>
     <use style="stroke:#000000;" x="285.008807" xlink:href="#m14cf55c994" y="211.049015"/>
     <use style="stroke:#000000;" x="342.491178" xlink:href="#m14cf55c994" y="178.821732"/>
     <use style="stroke:#000000;" x="359.459254" xlink:href="#m14cf55c994" y="164.203316"/>
     <use style="stroke:#000000;" x="314.63471" xlink:href="#m14cf55c994" y="161.495851"/>
     <use style="stroke:#000000;" x="317.759049" xlink:href="#m14cf55c994" y="137.892734"/>
     <use style="stroke:#000000;" x="351.98168" xlink:href="#m14cf55c994" y="146.033047"/>
     <use style="stroke:#000000;" x="332.317531" xlink:href="#m14cf55c994" y="124.680312"/>
     <use style="stroke:#000000;" x="332.487953" xlink:href="#m14cf55c994" y="151.774672"/>
     <use style="stroke:#000000;" x="350.648896" xlink:href="#m14cf55c994" y="168.951431"/>
     <use style="stroke:#000000;" x="340.86661" xlink:href="#m14cf55c994" y="132.514679"/>
     <use style="stroke:#000000;" x="349.029056" xlink:href="#m14cf55c994" y="142.270339"/>
     <use style="stroke:#000000;" x="332.125916" xlink:href="#m14cf55c994" y="133.390888"/>
     <use style="stroke:#000000;" x="314.202287" xlink:href="#m14cf55c994" y="98.573914"/>
     <use style="stroke:#000000;" x="301.803216" xlink:href="#m14cf55c994" y="101.282697"/>
     <use style="stroke:#000000;" x="323.952653" xlink:href="#m14cf55c994" y="125.779203"/>
     <use style="stroke:#000000;" x="323.382283" xlink:href="#m14cf55c994" y="109.24906"/>
     <use style="stroke:#000000;" x="335.293386" xlink:href="#m14cf55c994" y="128.896927"/>
     <use style="stroke:#000000;" x="374.507164" xlink:href="#m14cf55c994" y="161.200152"/>
     <use style="stroke:#000000;" x="381.127665" xlink:href="#m14cf55c994" y="181.505626"/>
     <use style="stroke:#000000;" x="297.836529" xlink:href="#m14cf55c994" y="83.726857"/>
     <use style="stroke:#000000;" x="296.916748" xlink:href="#m14cf55c994" y="97.832746"/>
     <use style="stroke:#000000;" x="338.551437" xlink:href="#m14cf55c994" y="125.068804"/>
     <use style="stroke:#000000;" x="337.690472" xlink:href="#m14cf55c994" y="125.855981"/>
     <use style="stroke:#000000;" x="288.435089" xlink:href="#m14cf55c994" y="99.037394"/>
     <use style="stroke:#000000;" x="287.608312" xlink:href="#m14cf55c994" y="79.887151"/>
     <use style="stroke:#000000;" x="313.927948" xlink:href="#m14cf55c994" y="104.529066"/>
     <use style="stroke:#000000;" x="318.026182" xlink:href="#m14cf55c994" y="106.38092"/>
     <use style="stroke:#000000;" x="335.259605" xlink:href="#m14cf55c994" y="126.064288"/>
     <use style="stroke:#000000;" x="340.303017" xlink:href="#m14cf55c994" y="128.047798"/>
     <use style="stroke:#000000;" x="348.310123" xlink:href="#m14cf55c994" y="140.35912"/>
     <use style="stroke:#000000;" x="338.089156" xlink:href="#m14cf55c994" y="131.787681"/>
     <use style="stroke:#000000;" x="350.488103" xlink:href="#m14cf55c994" y="144.99471"/>
     <use style="stroke:#000000;" x="357.616626" xlink:href="#m14cf55c994" y="160.112434"/>
     <use style="stroke:#000000;" x="349.55521" xlink:href="#m14cf55c994" y="152.883912"/>
     <use style="stroke:#000000;" x="366.591169" xlink:href="#m14cf55c994" y="154.562575"/>
     <use style="stroke:#000000;" x="372.391758" xlink:href="#m14cf55c994" y="169.411976"/>
     <use style="stroke:#000000;" x="370.8612" xlink:href="#m14cf55c994" y="163.472307"/>
     <use style="stroke:#000000;" x="343.722327" xlink:href="#m14cf55c994" y="137.828211"/>
     <use style="stroke:#000000;" x="352.970704" xlink:href="#m14cf55c994" y="152.142777"/>
     <use style="stroke:#000000;" x="352.30816" xlink:href="#m14cf55c994" y="149.757595"/>
     <use style="stroke:#000000;" x="394.671234" xlink:href="#m14cf55c994" y="179.57843"/>
     <use style="stroke:#000000;" x="402.296173" xlink:href="#m14cf55c994" y="178.415628"/>
     <use style="stroke:#000000;" x="398.716053" xlink:href="#m14cf55c994" y="179.975447"/>
     <use style="stroke:#000000;" x="371.920254" xlink:href="#m14cf55c994" y="173.569856"/>
     <use style="stroke:#000000;" x="400.442988" xlink:href="#m14cf55c994" y="178.402402"/>
     <use style="stroke:#000000;" x="371.467068" xlink:href="#m14cf55c994" y="174.097242"/>
     <use style="stroke:#000000;" x="336.061289" xlink:href="#m14cf55c994" y="122.363255"/>
     <use style="stroke:#000000;" x="339.438095" xlink:href="#m14cf55c994" y="133.080016"/>
     <use style="stroke:#000000;" x="317.73684" xlink:href="#m14cf55c994" y="129.314357"/>
     <use style="stroke:#000000;" x="314.134189" xlink:href="#m14cf55c994" y="111.186934"/>
     <use style="stroke:#000000;" x="300.693598" xlink:href="#m14cf55c994" y="79.996482"/>
     <use style="stroke:#000000;" x="300.628768" xlink:href="#m14cf55c994" y="76.597159"/>
     <use style="stroke:#000000;" x="317.039922" xlink:href="#m14cf55c994" y="107.439003"/>
     <use style="stroke:#000000;" x="334.569509" xlink:href="#m14cf55c994" y="116.997978"/>
     <use style="stroke:#000000;" x="333.303241" xlink:href="#m14cf55c994" y="123.572197"/>
     <use style="stroke:#000000;" x="339.343095" xlink:href="#m14cf55c994" y="128.044136"/>
     <use style="stroke:#000000;" x="339.741195" xlink:href="#m14cf55c994" y="127.696925"/>
     <use style="stroke:#000000;" x="337.095187" xlink:href="#m14cf55c994" y="123.935536"/>
     <use style="stroke:#000000;" x="328.312636" xlink:href="#m14cf55c994" y="106.129625"/>
     <use style="stroke:#000000;" x="336.281024" xlink:href="#m14cf55c994" y="119.546876"/>
     <use style="stroke:#000000;" x="329.58375" xlink:href="#m14cf55c994" y="107.385267"/>
     <use style="stroke:#000000;" x="331.163647" xlink:href="#m14cf55c994" y="111.43138"/>
     <use style="stroke:#000000;" x="324.23349" xlink:href="#m14cf55c994" y="102.109494"/>
     <use style="stroke:#000000;" x="328.234356" xlink:href="#m14cf55c994" y="110.451208"/>
     <use style="stroke:#000000;" x="317.248593" xlink:href="#m14cf55c994" y="106.344095"/>
     <use style="stroke:#000000;" x="311.970612" xlink:href="#m14cf55c994" y="95.376042"/>
     <use style="stroke:#000000;" x="311.108224" xlink:href="#m14cf55c994" y="97.554933"/>
     <use style="stroke:#000000;" x="322.320488" xlink:href="#m14cf55c994" y="102.334195"/>
     <use style="stroke:#000000;" x="326.776741" xlink:href="#m14cf55c994" y="104.359801"/>
     <use style="stroke:#000000;" x="321.654909" xlink:href="#m14cf55c994" y="103.468666"/>
     <use style="stroke:#000000;" x="294.331415" xlink:href="#m14cf55c994" y="68.088225"/>
     <use style="stroke:#000000;" x="297.517327" xlink:href="#m14cf55c994" y="82.249707"/>
     <use style="stroke:#000000;" x="295.646207" xlink:href="#m14cf55c994" y="68.881068"/>
     <use style="stroke:#000000;" x="349.498254" xlink:href="#m14cf55c994" y="140.836504"/>
     <use style="stroke:#000000;" x="351.964153" xlink:href="#m14cf55c994" y="144.254856"/>
     <use style="stroke:#000000;" x="344.796516" xlink:href="#m14cf55c994" y="134.530048"/>
     <use style="stroke:#000000;" x="291.039801" xlink:href="#m14cf55c994" y="81.774318"/>
     <use style="stroke:#000000;" x="301.573804" xlink:href="#m14cf55c994" y="76.765036"/>
     <use style="stroke:#000000;" x="293.919172" xlink:href="#m14cf55c994" y="69.377215"/>
     <use style="stroke:#000000;" x="342.498064" xlink:href="#m14cf55c994" y="133.483599"/>
     <use style="stroke:#000000;" x="338.58897" xlink:href="#m14cf55c994" y="124.132787"/>
     <use style="stroke:#000000;" x="352.608868" xlink:href="#m14cf55c994" y="152.251797"/>
     <use style="stroke:#000000;" x="350.389122" xlink:href="#m14cf55c994" y="142.70022"/>
     <use style="stroke:#000000;" x="349.339054" xlink:href="#m14cf55c994" y="142.458116"/>
     <use style="stroke:#000000;" x="349.533541" xlink:href="#m14cf55c994" y="140.847548"/>
     <use style="stroke:#000000;" x="398.603189" xlink:href="#m14cf55c994" y="179.049269"/>
     <use style="stroke:#000000;" x="402.813479" xlink:href="#m14cf55c994" y="177.630723"/>
     <use style="stroke:#000000;" x="404.884485" xlink:href="#m14cf55c994" y="177.496734"/>
    </g>
   </g>
   <g id="PathCollection_2">
    <defs>
     <path d="M 0 0.935414 
C 0.248075 0.935414 0.486022 0.836853 0.661438 0.661438 
C 0.836853 0.486022 0.935414 0.248075 0.935414 0 
C 0.935414 -0.248075 0.836853 -0.486022 0.661438 -0.661438 
C 0.486022 -0.836853 0.248075 -0.935414 0 -0.935414 
C -0.248075 -0.935414 -0.486022 -0.836853 -0.661438 -0.661438 
C -0.836853 -0.486022 -0.935414 -0.248075 -0.935414 0 
C -0.935414 0.248075 -0.836853 0.486022 -0.661438 0.661438 
C -0.486022 0.836853 -0.248075 0.935414 0 0.935414 
z
" id="m758cee4e66" style="stroke:#0000ff;"/>
    </defs>
    <g clip-path="url(#p5cc33ca180)">
     <use style="fill:#0000ff;stroke:#0000ff;" x="313.026032" xlink:href="#m758cee4e66" y="98.174121"/>
     <use style="fill:#0000ff;stroke:#0000ff;" x="308.010086" xlink:href="#m758cee4e66" y="86.259733"/>
     <use style="fill:#0000ff;stroke:#0000ff;" x="382.99509" xlink:href="#m758cee4e66" y="164.165456"/>
     <use style="fill:#0000ff;stroke:#0000ff;" x="312.757759" xlink:href="#m758cee4e66" y="96.927981"/>
     <use style="fill:#0000ff;stroke:#0000ff;" x="339.613976" xlink:href="#m758cee4e66" y="126.558844"/>
     <use style="fill:#0000ff;stroke:#0000ff;" x="309.047554" xlink:href="#m758cee4e66" y="88.717036"/>
     <use style="fill:#0000ff;stroke:#0000ff;" x="313.737555" xlink:href="#m758cee4e66" y="98.723823"/>
     <use style="fill:#0000ff;stroke:#0000ff;" x="343.147468" xlink:href="#m758cee4e66" y="133.327377"/>
     <use style="fill:#0000ff;stroke:#0000ff;" x="336.048292" xlink:href="#m758cee4e66" y="118.578104"/>
     <use style="fill:#0000ff;stroke:#0000ff;" x="298.853788" xlink:href="#m758cee4e66" y="70.78436"/>
     <use style="fill:#0000ff;stroke:#0000ff;" x="301.5789" xlink:href="#m758cee4e66" y="77.686846"/>
     <use style="fill:#0000ff;stroke:#0000ff;" x="355.591364" xlink:href="#m758cee4e66" y="154.50398"/>
     <use style="fill:#0000ff;stroke:#0000ff;" x="340.146333" xlink:href="#m758cee4e66" y="127.997261"/>
     <use style="fill:#0000ff;stroke:#0000ff;" x="344.41389" xlink:href="#m758cee4e66" y="135.229122"/>
     <use style="fill:#0000ff;stroke:#0000ff;" x="347.512518" xlink:href="#m758cee4e66" y="141.040705"/>
     <use style="fill:#0000ff;stroke:#0000ff;" x="334.386808" xlink:href="#m758cee4e66" y="115.716209"/>
     <use style="fill:#0000ff;stroke:#0000ff;" x="354.619851" xlink:href="#m758cee4e66" y="144.924129"/>
     <use style="fill:#0000ff;stroke:#0000ff;" x="306.952607" xlink:href="#m758cee4e66" y="85.446949"/>
     <use style="fill:#0000ff;stroke:#0000ff;" x="310.622237" xlink:href="#m758cee4e66" y="91.217458"/>
     <use style="fill:#0000ff;stroke:#0000ff;" x="303.577899" xlink:href="#m758cee4e66" y="78.306521"/>
     <use style="fill:#0000ff;stroke:#0000ff;" x="309.442399" xlink:href="#m758cee4e66" y="88.966811"/>
     <use style="fill:#0000ff;stroke:#0000ff;" x="309.900274" xlink:href="#m758cee4e66" y="91.11237"/>
     <use style="fill:#0000ff;stroke:#0000ff;" x="383.540357" xlink:href="#m758cee4e66" y="165.007614"/>
     <use style="fill:#0000ff;stroke:#0000ff;" x="311.859314" xlink:href="#m758cee4e66" y="95.407742"/>
     <use style="fill:#0000ff;stroke:#0000ff;" x="341.512085" xlink:href="#m758cee4e66" y="129.572754"/>
     <use style="fill:#0000ff;stroke:#0000ff;" x="293.029885" xlink:href="#m758cee4e66" y="65.103872"/>
     <use style="fill:#0000ff;stroke:#0000ff;" x="340.45481" xlink:href="#m758cee4e66" y="128.203405"/>
     <use style="fill:#0000ff;stroke:#0000ff;" x="335.275345" xlink:href="#m758cee4e66" y="117.326207"/>
     <use style="fill:#0000ff;stroke:#0000ff;" x="338.531029" xlink:href="#m758cee4e66" y="123.554474"/>
     <use style="fill:#0000ff;stroke:#0000ff;" x="342.760303" xlink:href="#m758cee4e66" y="131.485011"/>
     <use style="fill:#0000ff;stroke:#0000ff;" x="338.620601" xlink:href="#m758cee4e66" y="123.607805"/>
     <use style="fill:#0000ff;stroke:#0000ff;" x="311.401848" xlink:href="#m758cee4e66" y="92.256218"/>
     <use style="fill:#0000ff;stroke:#0000ff;" x="304.087011" xlink:href="#m758cee4e66" y="80.012979"/>
     <use style="fill:#0000ff;stroke:#0000ff;" x="335.235191" xlink:href="#m758cee4e66" y="116.954406"/>
     <use style="fill:#0000ff;stroke:#0000ff;" x="384.980133" xlink:href="#m758cee4e66" y="167.785486"/>
     <use style="fill:#0000ff;stroke:#0000ff;" x="299.850098" xlink:href="#m758cee4e66" y="73.477975"/>
     <use style="fill:#0000ff;stroke:#0000ff;" x="331.433167" xlink:href="#m758cee4e66" y="110.278876"/>
     <use style="fill:#0000ff;stroke:#0000ff;" x="291.293729" xlink:href="#m758cee4e66" y="64.407564"/>
     <use style="fill:#0000ff;stroke:#0000ff;" x="310.642324" xlink:href="#m758cee4e66" y="91.416873"/>
     <use style="fill:#0000ff;stroke:#0000ff;" x="328.76998" xlink:href="#m758cee4e66" y="106.262993"/>
     <use style="fill:#0000ff;stroke:#0000ff;" x="344.196545" xlink:href="#m758cee4e66" y="133.882017"/>
     <use style="fill:#0000ff;stroke:#0000ff;" x="341.140454" xlink:href="#m758cee4e66" y="129.062194"/>
     <use style="fill:#0000ff;stroke:#0000ff;" x="378.039726" xlink:href="#m758cee4e66" y="155.439434"/>
     <use style="fill:#0000ff;stroke:#0000ff;" x="342.554121" xlink:href="#m758cee4e66" y="131.431526"/>
     <use style="fill:#0000ff;stroke:#0000ff;" x="402.506987" xlink:href="#m758cee4e66" y="177.940935"/>
     <use style="fill:#0000ff;stroke:#0000ff;" x="391.614335" xlink:href="#m758cee4e66" y="176.513519"/>
     <use style="fill:#0000ff;stroke:#0000ff;" x="328.107186" xlink:href="#m758cee4e66" y="104.915"/>
     <use style="fill:#0000ff;stroke:#0000ff;" x="297.150189" xlink:href="#m758cee4e66" y="69.269501"/>
     <use style="fill:#0000ff;stroke:#0000ff;" x="329.638675" xlink:href="#m758cee4e66" y="106.8808"/>
     <use style="fill:#0000ff;stroke:#0000ff;" x="339.16779" xlink:href="#m758cee4e66" y="126.248915"/>
     <use style="fill:#0000ff;stroke:#0000ff;" x="329.166648" xlink:href="#m758cee4e66" y="106.514851"/>
     <use style="fill:#0000ff;stroke:#0000ff;" x="328.365979" xlink:href="#m758cee4e66" y="106.171912"/>
     <use style="fill:#0000ff;stroke:#0000ff;" x="306.865866" xlink:href="#m758cee4e66" y="84.409481"/>
     <use style="fill:#0000ff;stroke:#0000ff;" x="323.433588" xlink:href="#m758cee4e66" y="101.752103"/>
     <use style="fill:#0000ff;stroke:#0000ff;" x="293.470481" xlink:href="#m758cee4e66" y="66.023689"/>
     <use style="fill:#0000ff;stroke:#0000ff;" x="346.917506" xlink:href="#m758cee4e66" y="137.297728"/>
     <use style="fill:#0000ff;stroke:#0000ff;" x="297.007814" xlink:href="#m758cee4e66" y="69.114568"/>
     <use style="fill:#0000ff;stroke:#0000ff;" x="342.994336" xlink:href="#m758cee4e66" y="132.849887"/>
     <use style="fill:#0000ff;stroke:#0000ff;" x="347.31537" xlink:href="#m758cee4e66" y="137.976029"/>
     <use style="fill:#0000ff;stroke:#0000ff;" x="403.730378" xlink:href="#m758cee4e66" y="178.302098"/>
    </g>
   </g>
   <g id="matplotlib.axis_1">
    <g id="xtick_1">
     <g id="line2d_1">
      <defs>
       <path d="M 0 0 
L 0 3.5 
" id="m461988b963" style="stroke:#000000;stroke-width:0.8;"/>
      </defs>
      <g>
       <use style="stroke:#000000;stroke-width:0.8;" x="57.6" xlink:href="#m461988b963" y="307.584"/>
      </g>
     </g>
     <g id="text_1">
      <!-- 4 -->
      <defs>
       <path d="M 37.796875 64.3125 
L 12.890625 25.390625 
L 37.796875 25.390625 
z
M 35.203125 72.90625 
L 47.609375 72.90625 
L 47.609375 25.390625 
L 58.015625 25.390625 
L 58.015625 17.1875 
L 47.609375 17.1875 
L 47.609375 0 
L 37.796875 0 
L 37.796875 17.1875 
L 4.890625 17.1875 
L 4.890625 26.703125 
z
" id="DejaVuSans-34"/>
      </defs>
      <g transform="translate(54.41875 322.182437)scale(0.1 -0.1)">
       <use xlink:href="#DejaVuSans-34"/>
      </g>
     </g>
    </g>
    <g id="xtick_2">
     <g id="line2d_2">
      <g>
       <use style="stroke:#000000;stroke-width:0.8;" x="102.24" xlink:href="#m461988b963" y="307.584"/>
      </g>
     </g>
     <g id="text_2">
      <!-- 6 -->
      <defs>
       <path d="M 33.015625 40.375 
Q 26.375 40.375 22.484375 35.828125 
Q 18.609375 31.296875 18.609375 23.390625 
Q 18.609375 15.53125 22.484375 10.953125 
Q 26.375 6.390625 33.015625 6.390625 
Q 39.65625 6.390625 43.53125 10.953125 
Q 47.40625 15.53125 47.40625 23.390625 
Q 47.40625 31.296875 43.53125 35.828125 
Q 39.65625 40.375 33.015625 40.375 
z
M 52.59375 71.296875 
L 52.59375 62.3125 
Q 48.875 64.0625 45.09375 64.984375 
Q 41.3125 65.921875 37.59375 65.921875 
Q 27.828125 65.921875 22.671875 59.328125 
Q 17.53125 52.734375 16.796875 39.40625 
Q 19.671875 43.65625 24.015625 45.921875 
Q 28.375 48.1875 33.59375 48.1875 
Q 44.578125 48.1875 50.953125 41.515625 
Q 57.328125 34.859375 57.328125 23.390625 
Q 57.328125 12.15625 50.6875 5.359375 
Q 44.046875 -1.421875 33.015625 -1.421875 
Q 20.359375 -1.421875 13.671875 8.265625 
Q 6.984375 17.96875 6.984375 36.375 
Q 6.984375 53.65625 15.1875 63.9375 
Q 23.390625 74.21875 37.203125 74.21875 
Q 40.921875 74.21875 44.703125 73.484375 
Q 48.484375 72.75 52.59375 71.296875 
z
" id="DejaVuSans-36"/>
      </defs>
      <g transform="translate(99.05875 322.182437)scale(0.1 -0.1)">
       <use xlink:href="#DejaVuSans-36"/>
      </g>
     </g>
    </g>
    <g id="xtick_3">
     <g id="line2d_3">
      <g>
       <use style="stroke:#000000;stroke-width:0.8;" x="146.88" xlink:href="#m461988b963" y="307.584"/>
      </g>
     </g>
     <g id="text_3">
      <!-- 8 -->
      <defs>
       <path d="M 31.78125 34.625 
Q 24.75 34.625 20.71875 30.859375 
Q 16.703125 27.09375 16.703125 20.515625 
Q 16.703125 13.921875 20.71875 10.15625 
Q 24.75 6.390625 31.78125 6.390625 
Q 38.8125 6.390625 42.859375 10.171875 
Q 46.921875 13.96875 46.921875 20.515625 
Q 46.921875 27.09375 42.890625 30.859375 
Q 38.875 34.625 31.78125 34.625 
z
M 21.921875 38.8125 
Q 15.578125 40.375 12.03125 44.71875 
Q 8.5 49.078125 8.5 55.328125 
Q 8.5 64.0625 14.71875 69.140625 
Q 20.953125 74.21875 31.78125 74.21875 
Q 42.671875 74.21875 48.875 69.140625 
Q 55.078125 64.0625 55.078125 55.328125 
Q 55.078125 49.078125 51.53125 44.71875 
Q 48 40.375 41.703125 38.8125 
Q 48.828125 37.15625 52.796875 32.3125 
Q 56.78125 27.484375 56.78125 20.515625 
Q 56.78125 9.90625 50.3125 4.234375 
Q 43.84375 -1.421875 31.78125 -1.421875 
Q 19.734375 -1.421875 13.25 4.234375 
Q 6.78125 9.90625 6.78125 20.515625 
Q 6.78125 27.484375 10.78125 32.3125 
Q 14.796875 37.15625 21.921875 38.8125 
z
M 18.3125 54.390625 
Q 18.3125 48.734375 21.84375 45.5625 
Q 25.390625 42.390625 31.78125 42.390625 
Q 38.140625 42.390625 41.71875 45.5625 
Q 45.3125 48.734375 45.3125 54.390625 
Q 45.3125 60.0625 41.71875 63.234375 
Q 38.140625 66.40625 31.78125 66.40625 
Q 25.390625 66.40625 21.84375 63.234375 
Q 18.3125 60.0625 18.3125 54.390625 
z
" id="DejaVuSans-38"/>
      </defs>
      <g transform="translate(143.69875 322.182437)scale(0.1 -0.1)">
       <use xlink:href="#DejaVuSans-38"/>
      </g>
     </g>
    </g>
    <g id="xtick_4">
     <g id="line2d_4">
      <g>
       <use style="stroke:#000000;stroke-width:0.8;" x="191.52" xlink:href="#m461988b963" y="307.584"/>
      </g>
     </g>
     <g id="text_4">
      <!-- 10 -->
      <defs>
       <path d="M 12.40625 8.296875 
L 28.515625 8.296875 
L 28.515625 63.921875 
L 10.984375 60.40625 
L 10.984375 69.390625 
L 28.421875 72.90625 
L 38.28125 72.90625 
L 38.28125 8.296875 
L 54.390625 8.296875 
L 54.390625 0 
L 12.40625 0 
z
" id="DejaVuSans-31"/>
       <path d="M 31.78125 66.40625 
Q 24.171875 66.40625 20.328125 58.90625 
Q 16.5 51.421875 16.5 36.375 
Q 16.5 21.390625 20.328125 13.890625 
Q 24.171875 6.390625 31.78125 6.390625 
Q 39.453125 6.390625 43.28125 13.890625 
Q 47.125 21.390625 47.125 36.375 
Q 47.125 51.421875 43.28125 58.90625 
Q 39.453125 66.40625 31.78125 66.40625 
z
M 31.78125 74.21875 
Q 44.046875 74.21875 50.515625 64.515625 
Q 56.984375 54.828125 56.984375 36.375 
Q 56.984375 17.96875 50.515625 8.265625 
Q 44.046875 -1.421875 31.78125 -1.421875 
Q 19.53125 -1.421875 13.0625 8.265625 
Q 6.59375 17.96875 6.59375 36.375 
Q 6.59375 54.828125 13.0625 64.515625 
Q 19.53125 74.21875 31.78125 74.21875 
z
" id="DejaVuSans-30"/>
      </defs>
      <g transform="translate(185.1575 322.182437)scale(0.1 -0.1)">
       <use xlink:href="#DejaVuSans-31"/>
       <use x="63.623047" xlink:href="#DejaVuSans-30"/>
      </g>
     </g>
    </g>
    <g id="xtick_5">
     <g id="line2d_5">
      <g>
       <use style="stroke:#000000;stroke-width:0.8;" x="236.16" xlink:href="#m461988b963" y="307.584"/>
      </g>
     </g>
     <g id="text_5">
      <!-- 12 -->
      <defs>
       <path d="M 19.1875 8.296875 
L 53.609375 8.296875 
L 53.609375 0 
L 7.328125 0 
L 7.328125 8.296875 
Q 12.9375 14.109375 22.625 23.890625 
Q 32.328125 33.6875 34.8125 36.53125 
Q 39.546875 41.84375 41.421875 45.53125 
Q 43.3125 49.21875 43.3125 52.78125 
Q 43.3125 58.59375 39.234375 62.25 
Q 35.15625 65.921875 28.609375 65.921875 
Q 23.96875 65.921875 18.8125 64.3125 
Q 13.671875 62.703125 7.8125 59.421875 
L 7.8125 69.390625 
Q 13.765625 71.78125 18.9375 73 
Q 24.125 74.21875 28.421875 74.21875 
Q 39.75 74.21875 46.484375 68.546875 
Q 53.21875 62.890625 53.21875 53.421875 
Q 53.21875 48.921875 51.53125 44.890625 
Q 49.859375 40.875 45.40625 35.40625 
Q 44.1875 33.984375 37.640625 27.21875 
Q 31.109375 20.453125 19.1875 8.296875 
z
" id="DejaVuSans-32"/>
      </defs>
      <g transform="translate(229.7975 322.182437)scale(0.1 -0.1)">
       <use xlink:href="#DejaVuSans-31"/>
       <use x="63.623047" xlink:href="#DejaVuSans-32"/>
      </g>
     </g>
    </g>
    <g id="xtick_6">
     <g id="line2d_6">
      <g>
       <use style="stroke:#000000;stroke-width:0.8;" x="280.8" xlink:href="#m461988b963" y="307.584"/>
      </g>
     </g>
     <g id="text_6">
      <!-- 14 -->
      <g transform="translate(274.4375 322.182437)scale(0.1 -0.1)">
       <use xlink:href="#DejaVuSans-31"/>
       <use x="63.623047" xlink:href="#DejaVuSans-34"/>
      </g>
     </g>
    </g>
    <g id="xtick_7">
     <g id="line2d_7">
      <g>
       <use style="stroke:#000000;stroke-width:0.8;" x="325.44" xlink:href="#m461988b963" y="307.584"/>
      </g>
     </g>
     <g id="text_7">
      <!-- 16 -->
      <g transform="translate(319.0775 322.182437)scale(0.1 -0.1)">
       <use xlink:href="#DejaVuSans-31"/>
       <use x="63.623047" xlink:href="#DejaVuSans-36"/>
      </g>
     </g>
    </g>
    <g id="xtick_8">
     <g id="line2d_8">
      <g>
       <use style="stroke:#000000;stroke-width:0.8;" x="370.08" xlink:href="#m461988b963" y="307.584"/>
      </g>
     </g>
     <g id="text_8">
      <!-- 18 -->
      <g transform="translate(363.7175 322.182437)scale(0.1 -0.1)">
       <use xlink:href="#DejaVuSans-31"/>
       <use x="63.623047" xlink:href="#DejaVuSans-38"/>
      </g>
     </g>
    </g>
    <g id="xtick_9">
     <g id="line2d_9">
      <g>
       <use style="stroke:#000000;stroke-width:0.8;" x="414.72" xlink:href="#m461988b963" y="307.584"/>
      </g>
     </g>
     <g id="text_9">
      <!-- 20 -->
      <g transform="translate(408.3575 322.182437)scale(0.1 -0.1)">
       <use xlink:href="#DejaVuSans-32"/>
       <use x="63.623047" xlink:href="#DejaVuSans-30"/>
      </g>
     </g>
    </g>
   </g>
   <g id="matplotlib.axis_2">
    <g id="ytick_1">
     <g id="line2d_10">
      <defs>
       <path d="M 0 0 
L -3.5 0 
" id="me1076ed14a" style="stroke:#000000;stroke-width:0.8;"/>
      </defs>
      <g>
       <use style="stroke:#000000;stroke-width:0.8;" x="57.6" xlink:href="#me1076ed14a" y="269.568"/>
      </g>
     </g>
     <g id="text_10">
      <!-- −10 -->
      <defs>
       <path d="M 10.59375 35.5 
L 73.1875 35.5 
L 73.1875 27.203125 
L 10.59375 27.203125 
z
" id="DejaVuSans-2212"/>
      </defs>
      <g transform="translate(29.495313 273.367219)scale(0.1 -0.1)">
       <use xlink:href="#DejaVuSans-2212"/>
       <use x="83.789062" xlink:href="#DejaVuSans-31"/>
       <use x="147.412109" xlink:href="#DejaVuSans-30"/>
      </g>
     </g>
    </g>
    <g id="ytick_2">
     <g id="line2d_11">
      <g>
       <use style="stroke:#000000;stroke-width:0.8;" x="57.6" xlink:href="#me1076ed14a" y="222.048"/>
      </g>
     </g>
     <g id="text_11">
      <!-- −5 -->
      <defs>
       <path d="M 10.796875 72.90625 
L 49.515625 72.90625 
L 49.515625 64.59375 
L 19.828125 64.59375 
L 19.828125 46.734375 
Q 21.96875 47.46875 24.109375 47.828125 
Q 26.265625 48.1875 28.421875 48.1875 
Q 40.625 48.1875 47.75 41.5 
Q 54.890625 34.8125 54.890625 23.390625 
Q 54.890625 11.625 47.5625 5.09375 
Q 40.234375 -1.421875 26.90625 -1.421875 
Q 22.3125 -1.421875 17.546875 -0.640625 
Q 12.796875 0.140625 7.71875 1.703125 
L 7.71875 11.625 
Q 12.109375 9.234375 16.796875 8.0625 
Q 21.484375 6.890625 26.703125 6.890625 
Q 35.15625 6.890625 40.078125 11.328125 
Q 45.015625 15.765625 45.015625 23.390625 
Q 45.015625 31 40.078125 35.4375 
Q 35.15625 39.890625 26.703125 39.890625 
Q 22.75 39.890625 18.8125 39.015625 
Q 14.890625 38.140625 10.796875 36.28125 
z
" id="DejaVuSans-35"/>
      </defs>
      <g transform="translate(35.857813 225.847219)scale(0.1 -0.1)">
       <use xlink:href="#DejaVuSans-2212"/>
       <use x="83.789062" xlink:href="#DejaVuSans-35"/>
      </g>
     </g>
    </g>
    <g id="ytick_3">
     <g id="line2d_12">
      <g>
       <use style="stroke:#000000;stroke-width:0.8;" x="57.6" xlink:href="#me1076ed14a" y="174.528"/>
      </g>
     </g>
     <g id="text_12">
      <!-- 0 -->
      <g transform="translate(44.2375 178.327219)scale(0.1 -0.1)">
       <use xlink:href="#DejaVuSans-30"/>
      </g>
     </g>
    </g>
    <g id="ytick_4">
     <g id="line2d_13">
      <g>
       <use style="stroke:#000000;stroke-width:0.8;" x="57.6" xlink:href="#me1076ed14a" y="127.008"/>
      </g>
     </g>
     <g id="text_13">
      <!-- 5 -->
      <g transform="translate(44.2375 130.807219)scale(0.1 -0.1)">
       <use xlink:href="#DejaVuSans-35"/>
      </g>
     </g>
    </g>
    <g id="ytick_5">
     <g id="line2d_14">
      <g>
       <use style="stroke:#000000;stroke-width:0.8;" x="57.6" xlink:href="#me1076ed14a" y="79.488"/>
      </g>
     </g>
     <g id="text_14">
      <!-- 10 -->
      <g transform="translate(37.875 83.287219)scale(0.1 -0.1)">
       <use xlink:href="#DejaVuSans-31"/>
       <use x="63.623047" xlink:href="#DejaVuSans-30"/>
      </g>
     </g>
    </g>
   </g>
   <g id="patch_3">
    <path d="M 57.6 307.584 
L 57.6 41.472 
" style="fill:none;stroke:#000000;stroke-linecap:square;stroke-linejoin:miter;stroke-width:0.8;"/>
   </g>
   <g id="patch_4">
    <path d="M 414.72 307.584 
L 414.72 41.472 
" style="fill:none;stroke:#000000;stroke-linecap:square;stroke-linejoin:miter;stroke-width:0.8;"/>
   </g>
   <g id="patch_5">
    <path d="M 57.6 307.584 
L 414.72 307.584 
" style="fill:none;stroke:#000000;stroke-linecap:square;stroke-linejoin:miter;stroke-width:0.8;"/>
   </g>
   <g id="patch_6">
    <path d="M 57.6 41.472 
L 414.72 41.472 
" style="fill:none;stroke:#000000;stroke-linecap:square;stroke-linejoin:miter;stroke-width:0.8;"/>
   </g>
  </g>
 </g>
 <defs>
  <clipPath id="p5cc33ca180">
   <rect height="266.112" width="357.12" x="57.6" y="41.472"/>
  </clipPath>
 </defs>
</svg>
