<?xml version="1.0" encoding="utf-8" standalone="no"?>
<!DOCTYPE svg PUBLIC "-//W3C//DTD SVG 1.1//EN"
  "http://www.w3.org/Graphics/SVG/1.1/DTD/svg11.dtd">
<!-- Created with matplotlib (http://matplotlib.org/) -->
<svg height="345.6pt" version="1.1" viewBox="0 0 460.8 345.6" width="460.8pt" xmlns="http://www.w3.org/2000/svg" xmlns:xlink="http://www.w3.org/1999/xlink">
 <defs>
  <style type="text/css">
*{stroke-linecap:butt;stroke-linejoin:round;}
  </style>
 </defs>
 <g id="figure_1">
  <g id="patch_1">
   <path d="M 0 345.6 
L 460.8 345.6 
L 460.8 0 
L 0 0 
z
" style="fill:#ffffff;"/>
  </g>
  <g id="axes_1">
   <g id="patch_2">
    <path d="M 57.6 307.584 
L 414.72 307.584 
L 414.72 41.472 
L 57.6 41.472 
z
" style="fill:#ffffff;"/>
   </g>
   <g id="PathCollection_1">
    <defs>
     <path d="M 0 0.612372 
C 0.162403 0.612372 0.318176 0.547849 0.433013 0.433013 
C 0.547849 0.318176 0.612372 0.162403 0.612372 0 
C 0.612372 -0.162403 0.547849 -0.318176 0.433013 -0.433013 
C 0.318176 -0.547849 0.162403 -0.612372 0 -0.612372 
C -0.162403 -0.612372 -0.318176 -0.547849 -0.433013 -0.433013 
C -0.547849 -0.318176 -0.612372 -0.162403 -0.612372 0 
C -0.612372 0.162403 -0.547849 0.318176 -0.433013 0.433013 
C -0.318176 0.547849 -0.162403 0.612372 0 0.612372 
z
" id="m9a8cf8a4d0" style="stroke:#000000;"/>
    </defs>
    <g clip-path="url(#pfeaf20e6c3)">
     <use style="stroke:#000000;" x="81.51322" xlink:href="#m9a8cf8a4d0" y="83.441982"/>
     <use style="stroke:#000000;" x="381.640184" xlink:href="#m9a8cf8a4d0" y="246.836017"/>
     <use style="stroke:#000000;" x="82.682743" xlink:href="#m9a8cf8a4d0" y="92.887823"/>
     <use style="stroke:#000000;" x="167.146659" xlink:href="#m9a8cf8a4d0" y="161.438378"/>
     <use style="stroke:#000000;" x="81.432761" xlink:href="#m9a8cf8a4d0" y="81.416598"/>
     <use style="stroke:#000000;" x="89.231681" xlink:href="#m9a8cf8a4d0" y="110.822081"/>
     <use style="stroke:#000000;" x="164.465902" xlink:href="#m9a8cf8a4d0" y="158.602266"/>
     <use style="stroke:#000000;" x="81.68817" xlink:href="#m9a8cf8a4d0" y="85.896729"/>
     <use style="stroke:#000000;" x="86.303555" xlink:href="#m9a8cf8a4d0" y="104.790593"/>
     <use style="stroke:#000000;" x="85.204172" xlink:href="#m9a8cf8a4d0" y="101.974619"/>
     <use style="stroke:#000000;" x="81.408" xlink:href="#m9a8cf8a4d0" y="79.488"/>
     <use style="stroke:#000000;" x="81.429978" xlink:href="#m9a8cf8a4d0" y="81.3055"/>
     <use style="stroke:#000000;" x="113.817913" xlink:href="#m9a8cf8a4d0" y="136.681796"/>
     <use style="stroke:#000000;" x="378.646375" xlink:href="#m9a8cf8a4d0" y="245.663202"/>
     <use style="stroke:#000000;" x="115.658071" xlink:href="#m9a8cf8a4d0" y="137.910685"/>
     <use style="stroke:#000000;" x="81.408" xlink:href="#m9a8cf8a4d0" y="79.488"/>
     <use style="stroke:#000000;" x="156.679652" xlink:href="#m9a8cf8a4d0" y="156.318626"/>
     <use style="stroke:#000000;" x="123.900505" xlink:href="#m9a8cf8a4d0" y="142.828148"/>
     <use style="stroke:#000000;" x="166.41413" xlink:href="#m9a8cf8a4d0" y="159.133637"/>
     <use style="stroke:#000000;" x="162.884086" xlink:href="#m9a8cf8a4d0" y="158.159498"/>
     <use style="stroke:#000000;" x="83.176513" xlink:href="#m9a8cf8a4d0" y="95.261167"/>
     <use style="stroke:#000000;" x="81.421119" xlink:href="#m9a8cf8a4d0" y="80.893775"/>
     <use style="stroke:#000000;" x="81.417023" xlink:href="#m9a8cf8a4d0" y="80.654541"/>
     <use style="stroke:#000000;" x="167.134029" xlink:href="#m9a8cf8a4d0" y="160.931709"/>
     <use style="stroke:#000000;" x="134.33301" xlink:href="#m9a8cf8a4d0" y="148.560705"/>
     <use style="stroke:#000000;" x="106.889281" xlink:href="#m9a8cf8a4d0" y="131.50103"/>
     <use style="stroke:#000000;" x="84.599533" xlink:href="#m9a8cf8a4d0" y="100.221659"/>
     <use style="stroke:#000000;" x="95.23012" xlink:href="#m9a8cf8a4d0" y="120.572251"/>
     <use style="stroke:#000000;" x="147.770431" xlink:href="#m9a8cf8a4d0" y="153.350874"/>
     <use style="stroke:#000000;" x="87.021042" xlink:href="#m9a8cf8a4d0" y="106.433279"/>
     <use style="stroke:#000000;" x="121.851932" xlink:href="#m9a8cf8a4d0" y="141.686306"/>
     <use style="stroke:#000000;" x="87.270959" xlink:href="#m9a8cf8a4d0" y="106.976181"/>
     <use style="stroke:#000000;" x="82.013621" xlink:href="#m9a8cf8a4d0" y="88.833079"/>
     <use style="stroke:#000000;" x="81.733903" xlink:href="#m9a8cf8a4d0" y="86.390556"/>
     <use style="stroke:#000000;" x="97.31569" xlink:href="#m9a8cf8a4d0" y="122.271346"/>
     <use style="stroke:#000000;" x="81.537561" xlink:href="#m9a8cf8a4d0" y="83.870443"/>
     <use style="stroke:#000000;" x="167.531365" xlink:href="#m9a8cf8a4d0" y="167.087895"/>
     <use style="stroke:#000000;" x="104.166799" xlink:href="#m9a8cf8a4d0" y="129.172015"/>
     <use style="stroke:#000000;" x="90.101809" xlink:href="#m9a8cf8a4d0" y="112.340345"/>
     <use style="stroke:#000000;" x="84.50861" xlink:href="#m9a8cf8a4d0" y="99.942203"/>
     <use style="stroke:#000000;" x="84.037349" xlink:href="#m9a8cf8a4d0" y="98.413945"/>
     <use style="stroke:#000000;" x="82.178754" xlink:href="#m9a8cf8a4d0" y="89.995476"/>
     <use style="stroke:#000000;" x="117.357221" xlink:href="#m9a8cf8a4d0" y="138.999073"/>
     <use style="stroke:#000000;" x="110.95457" xlink:href="#m9a8cf8a4d0" y="134.655213"/>
     <use style="stroke:#000000;" x="81.417371" xlink:href="#m9a8cf8a4d0" y="80.67679"/>
     <use style="stroke:#000000;" x="81.924612" xlink:href="#m9a8cf8a4d0" y="88.136129"/>
     <use style="stroke:#000000;" x="86.701063" xlink:href="#m9a8cf8a4d0" y="105.716914"/>
     <use style="stroke:#000000;" x="81.42377" xlink:href="#m9a8cf8a4d0" y="81.028688"/>
     <use style="stroke:#000000;" x="87.426262" xlink:href="#m9a8cf8a4d0" y="107.306666"/>
     <use style="stroke:#000000;" x="82.793182" xlink:href="#m9a8cf8a4d0" y="93.43372"/>
     <use style="stroke:#000000;" x="120.764983" xlink:href="#m9a8cf8a4d0" y="141.060283"/>
     <use style="stroke:#000000;" x="81.408" xlink:href="#m9a8cf8a4d0" y="79.488"/>
     <use style="stroke:#000000;" x="81.408" xlink:href="#m9a8cf8a4d0" y="79.488"/>
     <use style="stroke:#000000;" x="155.825372" xlink:href="#m9a8cf8a4d0" y="156.05142"/>
     <use style="stroke:#000000;" x="82.652828" xlink:href="#m9a8cf8a4d0" y="92.735597"/>
     <use style="stroke:#000000;" x="81.434183" xlink:href="#m9a8cf8a4d0" y="81.470902"/>
     <use style="stroke:#000000;" x="81.429897" xlink:href="#m9a8cf8a4d0" y="81.302179"/>
     <use style="stroke:#000000;" x="84.795125" xlink:href="#m9a8cf8a4d0" y="100.807921"/>
     <use style="stroke:#000000;" x="81.462826" xlink:href="#m9a8cf8a4d0" y="82.350601"/>
     <use style="stroke:#000000;" x="81.462158" xlink:href="#m9a8cf8a4d0" y="82.333235"/>
     <use style="stroke:#000000;" x="89.637895" xlink:href="#m9a8cf8a4d0" y="111.543133"/>
     <use style="stroke:#000000;" x="98.640172" xlink:href="#m9a8cf8a4d0" y="123.747174"/>
     <use style="stroke:#000000;" x="82.749499" xlink:href="#m9a8cf8a4d0" y="93.220714"/>
     <use style="stroke:#000000;" x="82.807282" xlink:href="#m9a8cf8a4d0" y="93.5017"/>
     <use style="stroke:#000000;" x="141.079584" xlink:href="#m9a8cf8a4d0" y="150.828435"/>
     <use style="stroke:#000000;" x="127.852065" xlink:href="#m9a8cf8a4d0" y="144.901575"/>
     <use style="stroke:#000000;" x="119.431478" xlink:href="#m9a8cf8a4d0" y="140.272059"/>
     <use style="stroke:#000000;" x="81.548547" xlink:href="#m9a8cf8a4d0" y="84.050236"/>
     <use style="stroke:#000000;" x="81.408" xlink:href="#m9a8cf8a4d0" y="79.488"/>
     <use style="stroke:#000000;" x="167.167334" xlink:href="#m9a8cf8a4d0" y="162.070699"/>
     <use style="stroke:#000000;" x="81.460043" xlink:href="#m9a8cf8a4d0" y="82.277536"/>
     <use style="stroke:#000000;" x="133.173284" xlink:href="#m9a8cf8a4d0" y="147.456391"/>
     <use style="stroke:#000000;" x="168.080214" xlink:href="#m9a8cf8a4d0" y="171.028546"/>
     <use style="stroke:#000000;" x="120.876076" xlink:href="#m9a8cf8a4d0" y="141.124933"/>
     <use style="stroke:#000000;" x="81.897346" xlink:href="#m9a8cf8a4d0" y="87.910187"/>
     <use style="stroke:#000000;" x="82.898339" xlink:href="#m9a8cf8a4d0" y="93.932016"/>
     <use style="stroke:#000000;" x="85.409341" xlink:href="#m9a8cf8a4d0" y="102.532792"/>
     <use style="stroke:#000000;" x="405.1968" xlink:href="#m9a8cf8a4d0" y="254.3616"/>
     <use style="stroke:#000000;" x="82.698366" xlink:href="#m9a8cf8a4d0" y="92.966558"/>
     <use style="stroke:#000000;" x="133.464353" xlink:href="#m9a8cf8a4d0" y="147.589034"/>
     <use style="stroke:#000000;" x="81.493387" xlink:href="#m9a8cf8a4d0" y="83.053655"/>
     <use style="stroke:#000000;" x="380.669235" xlink:href="#m9a8cf8a4d0" y="247.078627"/>
     <use style="stroke:#000000;" x="377.53915" xlink:href="#m9a8cf8a4d0" y="246.253067"/>
     <use style="stroke:#000000;" x="381.225684" xlink:href="#m9a8cf8a4d0" y="246.785293"/>
     <use style="stroke:#000000;" x="383.060192" xlink:href="#m9a8cf8a4d0" y="247.372343"/>
     <use style="stroke:#000000;" x="82.898537" xlink:href="#m9a8cf8a4d0" y="93.932936"/>
     <use style="stroke:#000000;" x="82.981316" xlink:href="#m9a8cf8a4d0" y="94.311881"/>
     <use style="stroke:#000000;" x="82.849328" xlink:href="#m9a8cf8a4d0" y="93.70223"/>
     <use style="stroke:#000000;" x="167.156624" xlink:href="#m9a8cf8a4d0" y="161.764088"/>
     <use style="stroke:#000000;" x="167.129431" xlink:href="#m9a8cf8a4d0" y="160.701069"/>
     <use style="stroke:#000000;" x="167.150349" xlink:href="#m9a8cf8a4d0" y="161.564604"/>
     <use style="stroke:#000000;" x="81.416625" xlink:href="#m9a8cf8a4d0" y="81.102331"/>
     <use style="stroke:#000000;" x="81.437811" xlink:href="#m9a8cf8a4d0" y="81.801518"/>
     <use style="stroke:#000000;" x="81.44536" xlink:href="#m9a8cf8a4d0" y="82.167896"/>
     <use style="stroke:#000000;" x="90.093014" xlink:href="#m9a8cf8a4d0" y="117.910089"/>
     <use style="stroke:#000000;" x="163.064889" xlink:href="#m9a8cf8a4d0" y="158.210631"/>
     <use style="stroke:#000000;" x="165.168991" xlink:href="#m9a8cf8a4d0" y="158.795784"/>
     <use style="stroke:#000000;" x="163.580087" xlink:href="#m9a8cf8a4d0" y="158.991494"/>
     <use style="stroke:#000000;" x="81.539284" xlink:href="#m9a8cf8a4d0" y="83.899143"/>
     <use style="stroke:#000000;" x="81.830211" xlink:href="#m9a8cf8a4d0" y="87.324061"/>
     <use style="stroke:#000000;" x="81.747503" xlink:href="#m9a8cf8a4d0" y="86.530358"/>
     <use style="stroke:#000000;" x="85.946617" xlink:href="#m9a8cf8a4d0" y="103.920619"/>
     <use style="stroke:#000000;" x="86.401732" xlink:href="#m9a8cf8a4d0" y="105.299768"/>
     <use style="stroke:#000000;" x="86.074783" xlink:href="#m9a8cf8a4d0" y="104.237433"/>
     <use style="stroke:#000000;" x="84.912071" xlink:href="#m9a8cf8a4d0" y="101.14931"/>
     <use style="stroke:#000000;" x="85.479763" xlink:href="#m9a8cf8a4d0" y="103.910963"/>
     <use style="stroke:#000000;" x="85.177797" xlink:href="#m9a8cf8a4d0" y="102.435964"/>
     <use style="stroke:#000000;" x="81.408" xlink:href="#m9a8cf8a4d0" y="79.488"/>
     <use style="stroke:#000000;" x="81.408304" xlink:href="#m9a8cf8a4d0" y="79.702538"/>
     <use style="stroke:#000000;" x="81.408201" xlink:href="#m9a8cf8a4d0" y="79.662637"/>
     <use style="stroke:#000000;" x="81.435053" xlink:href="#m9a8cf8a4d0" y="82.054981"/>
     <use style="stroke:#000000;" x="81.467506" xlink:href="#m9a8cf8a4d0" y="82.469324"/>
     <use style="stroke:#000000;" x="81.422363" xlink:href="#m9a8cf8a4d0" y="80.958622"/>
     <use style="stroke:#000000;" x="114.430356" xlink:href="#m9a8cf8a4d0" y="138.842295"/>
     <use style="stroke:#000000;" x="114.67455" xlink:href="#m9a8cf8a4d0" y="138.097192"/>
     <use style="stroke:#000000;" x="113.550939" xlink:href="#m9a8cf8a4d0" y="138.496831"/>
     <use style="stroke:#000000;" x="379.177778" xlink:href="#m9a8cf8a4d0" y="245.875678"/>
     <use style="stroke:#000000;" x="376.164132" xlink:href="#m9a8cf8a4d0" y="245.100281"/>
     <use style="stroke:#000000;" x="379.6177" xlink:href="#m9a8cf8a4d0" y="246.050148"/>
     <use style="stroke:#000000;" x="113.996778" xlink:href="#m9a8cf8a4d0" y="140.998917"/>
     <use style="stroke:#000000;" x="81.607322" xlink:href="#m9a8cf8a4d0" y="85.31029"/>
     <use style="stroke:#000000;" x="156.03914" xlink:href="#m9a8cf8a4d0" y="156.11861"/>
     <use style="stroke:#000000;" x="158.25993" xlink:href="#m9a8cf8a4d0" y="158.582566"/>
     <use style="stroke:#000000;" x="155.531777" xlink:href="#m9a8cf8a4d0" y="155.958783"/>
     <use style="stroke:#000000;" x="125.024329" xlink:href="#m9a8cf8a4d0" y="143.434504"/>
     <use style="stroke:#000000;" x="122.450111" xlink:href="#m9a8cf8a4d0" y="142.091424"/>
     <use style="stroke:#000000;" x="127.101079" xlink:href="#m9a8cf8a4d0" y="144.519844"/>
     <use style="stroke:#000000;" x="167.120076" xlink:href="#m9a8cf8a4d0" y="160.025379"/>
     <use style="stroke:#000000;" x="163.033175" xlink:href="#m9a8cf8a4d0" y="158.201672"/>
     <use style="stroke:#000000;" x="167.12948" xlink:href="#m9a8cf8a4d0" y="160.703708"/>
     <use style="stroke:#000000;" x="164.266903" xlink:href="#m9a8cf8a4d0" y="158.54713"/>
     <use style="stroke:#000000;" x="161.8313" xlink:href="#m9a8cf8a4d0" y="159.887819"/>
     <use style="stroke:#000000;" x="160.523719" xlink:href="#m9a8cf8a4d0" y="157.921677"/>
     <use style="stroke:#000000;" x="83.190023" xlink:href="#m9a8cf8a4d0" y="95.221541"/>
     <use style="stroke:#000000;" x="83.596689" xlink:href="#m9a8cf8a4d0" y="98.014157"/>
     <use style="stroke:#000000;" x="83.33332" xlink:href="#m9a8cf8a4d0" y="97.159349"/>
     <use style="stroke:#000000;" x="81.416216" xlink:href="#m9a8cf8a4d0" y="80.601312"/>
     <use style="stroke:#000000;" x="81.499237" xlink:href="#m9a8cf8a4d0" y="83.172595"/>
     <use style="stroke:#000000;" x="81.501827" xlink:href="#m9a8cf8a4d0" y="83.224006"/>
     <use style="stroke:#000000;" x="81.449888" xlink:href="#m9a8cf8a4d0" y="81.992541"/>
     <use style="stroke:#000000;" x="81.408056" xlink:href="#m9a8cf8a4d0" y="79.57984"/>
     <use style="stroke:#000000;" x="81.46679" xlink:href="#m9a8cf8a4d0" y="82.628689"/>
     <use style="stroke:#000000;" x="166.984203" xlink:href="#m9a8cf8a4d0" y="161.320872"/>
     <use style="stroke:#000000;" x="162.228064" xlink:href="#m9a8cf8a4d0" y="157.972813"/>
     <use style="stroke:#000000;" x="166.998586" xlink:href="#m9a8cf8a4d0" y="159.49329"/>
     <use style="stroke:#000000;" x="131.67272" xlink:href="#m9a8cf8a4d0" y="148.866823"/>
     <use style="stroke:#000000;" x="138.253882" xlink:href="#m9a8cf8a4d0" y="149.675975"/>
     <use style="stroke:#000000;" x="135.658739" xlink:href="#m9a8cf8a4d0" y="151.249361"/>
     <use style="stroke:#000000;" x="107.197869" xlink:href="#m9a8cf8a4d0" y="133.386238"/>
     <use style="stroke:#000000;" x="107.111042" xlink:href="#m9a8cf8a4d0" y="131.682514"/>
     <use style="stroke:#000000;" x="107.687831" xlink:href="#m9a8cf8a4d0" y="133.733827"/>
     <use style="stroke:#000000;" x="84.37717" xlink:href="#m9a8cf8a4d0" y="102.392965"/>
     <use style="stroke:#000000;" x="84.982232" xlink:href="#m9a8cf8a4d0" y="101.35102"/>
     <use style="stroke:#000000;" x="84.638429" xlink:href="#m9a8cf8a4d0" y="100.339832"/>
     <use style="stroke:#000000;" x="93.827903" xlink:href="#m9a8cf8a4d0" y="119.355407"/>
     <use style="stroke:#000000;" x="94.763674" xlink:href="#m9a8cf8a4d0" y="119.176748"/>
     <use style="stroke:#000000;" x="95.204334" xlink:href="#m9a8cf8a4d0" y="120.506133"/>
     <use style="stroke:#000000;" x="150.262626" xlink:href="#m9a8cf8a4d0" y="154.223008"/>
     <use style="stroke:#000000;" x="148.61292" xlink:href="#m9a8cf8a4d0" y="156.408503"/>
     <use style="stroke:#000000;" x="149.314988" xlink:href="#m9a8cf8a4d0" y="153.895432"/>
     <use style="stroke:#000000;" x="86.485314" xlink:href="#m9a8cf8a4d0" y="107.85592"/>
     <use style="stroke:#000000;" x="87.493614" xlink:href="#m9a8cf8a4d0" y="107.448416"/>
     <use style="stroke:#000000;" x="87.07184" xlink:href="#m9a8cf8a4d0" y="106.544769"/>
     <use style="stroke:#000000;" x="122.111523" xlink:href="#m9a8cf8a4d0" y="143.571424"/>
     <use style="stroke:#000000;" x="122.102038" xlink:href="#m9a8cf8a4d0" y="141.82833"/>
     <use style="stroke:#000000;" x="120.949808" xlink:href="#m9a8cf8a4d0" y="143.501049"/>
     <use style="stroke:#000000;" x="87.685462" xlink:href="#m9a8cf8a4d0" y="107.847129"/>
     <use style="stroke:#000000;" x="86.644538" xlink:href="#m9a8cf8a4d0" y="106.390596"/>
     <use style="stroke:#000000;" x="81.674231" xlink:href="#m9a8cf8a4d0" y="85.738021"/>
     <use style="stroke:#000000;" x="81.544283" xlink:href="#m9a8cf8a4d0" y="83.981339"/>
     <use style="stroke:#000000;" x="82.114683" xlink:href="#m9a8cf8a4d0" y="89.561781"/>
     <use style="stroke:#000000;" x="81.997213" xlink:href="#m9a8cf8a4d0" y="88.708869"/>
     <use style="stroke:#000000;" x="99.003452" xlink:href="#m9a8cf8a4d0" y="124.138378"/>
     <use style="stroke:#000000;" x="94.296814" xlink:href="#m9a8cf8a4d0" y="118.569254"/>
     <use style="stroke:#000000;" x="81.755229" xlink:href="#m9a8cf8a4d0" y="89.112322"/>
     <use style="stroke:#000000;" x="166.918405" xlink:href="#m9a8cf8a4d0" y="164.878388"/>
     <use style="stroke:#000000;" x="99.099606" xlink:href="#m9a8cf8a4d0" y="124.240994"/>
     <use style="stroke:#000000;" x="92.423558" xlink:href="#m9a8cf8a4d0" y="118.084397"/>
     <use style="stroke:#000000;" x="85.752925" xlink:href="#m9a8cf8a4d0" y="103.431824"/>
     <use style="stroke:#000000;" x="84.408157" xlink:href="#m9a8cf8a4d0" y="107.982771"/>
     <use style="stroke:#000000;" x="85.870395" xlink:href="#m9a8cf8a4d0" y="103.729736"/>
     <use style="stroke:#000000;" x="116.808083" xlink:href="#m9a8cf8a4d0" y="139.117981"/>
     <use style="stroke:#000000;" x="115.5235" xlink:href="#m9a8cf8a4d0" y="140.749814"/>
     <use style="stroke:#000000;" x="109.849642" xlink:href="#m9a8cf8a4d0" y="133.832302"/>
     <use style="stroke:#000000;" x="81.574047" xlink:href="#m9a8cf8a4d0" y="84.441556"/>
     <use style="stroke:#000000;" x="81.408" xlink:href="#m9a8cf8a4d0" y="79.488"/>
     <use style="stroke:#000000;" x="87.140986" xlink:href="#m9a8cf8a4d0" y="106.695584"/>
     <use style="stroke:#000000;" x="87.552902" xlink:href="#m9a8cf8a4d0" y="110.629691"/>
     <use style="stroke:#000000;" x="81.536372" xlink:href="#m9a8cf8a4d0" y="84.052494"/>
     <use style="stroke:#000000;" x="85.539829" xlink:href="#m9a8cf8a4d0" y="103.584194"/>
     <use style="stroke:#000000;" x="87.399948" xlink:href="#m9a8cf8a4d0" y="112.081405"/>
     <use style="stroke:#000000;" x="82.535588" xlink:href="#m9a8cf8a4d0" y="92.331124"/>
     <use style="stroke:#000000;" x="119.066176" xlink:href="#m9a8cf8a4d0" y="140.052107"/>
     <use style="stroke:#000000;" x="81.532645" xlink:href="#m9a8cf8a4d0" y="83.78748"/>
     <use style="stroke:#000000;" x="82.060382" xlink:href="#m9a8cf8a4d0" y="92.373035"/>
     <use style="stroke:#000000;" x="146.884279" xlink:href="#m9a8cf8a4d0" y="153.032342"/>
     <use style="stroke:#000000;" x="82.776869" xlink:href="#m9a8cf8a4d0" y="93.354607"/>
     <use style="stroke:#000000;" x="83.675607" xlink:href="#m9a8cf8a4d0" y="98.190216"/>
     <use style="stroke:#000000;" x="81.481184" xlink:href="#m9a8cf8a4d0" y="82.791388"/>
     <use style="stroke:#000000;" x="81.609938" xlink:href="#m9a8cf8a4d0" y="85.075213"/>
     <use style="stroke:#000000;" x="84.988431" xlink:href="#m9a8cf8a4d0" y="101.368733"/>
     <use style="stroke:#000000;" x="81.408" xlink:href="#m9a8cf8a4d0" y="79.488"/>
     <use style="stroke:#000000;" x="81.806697" xlink:href="#m9a8cf8a4d0" y="87.107351"/>
     <use style="stroke:#000000;" x="87.140504" xlink:href="#m9a8cf8a4d0" y="109.282212"/>
     <use style="stroke:#000000;" x="102.776914" xlink:href="#m9a8cf8a4d0" y="129.692938"/>
     <use style="stroke:#000000;" x="82.850931" xlink:href="#m9a8cf8a4d0" y="93.709809"/>
     <use style="stroke:#000000;" x="82.826477" xlink:href="#m9a8cf8a4d0" y="93.593646"/>
     <use style="stroke:#000000;" x="82.661782" xlink:href="#m9a8cf8a4d0" y="92.781363"/>
     <use style="stroke:#000000;" x="82.066114" xlink:href="#m9a8cf8a4d0" y="89.263413"/>
     <use style="stroke:#000000;" x="141.824538" xlink:href="#m9a8cf8a4d0" y="151.310819"/>
     <use style="stroke:#000000;" x="140.299026" xlink:href="#m9a8cf8a4d0" y="150.515584"/>
     <use style="stroke:#000000;" x="133.126034" xlink:href="#m9a8cf8a4d0" y="147.434793"/>
     <use style="stroke:#000000;" x="132.843416" xlink:href="#m9a8cf8a4d0" y="147.30522"/>
     <use style="stroke:#000000;" x="117.785984" xlink:href="#m9a8cf8a4d0" y="139.267079"/>
     <use style="stroke:#000000;" x="121.049276" xlink:href="#m9a8cf8a4d0" y="141.225419"/>
     <use style="stroke:#000000;" x="81.929953" xlink:href="#m9a8cf8a4d0" y="90.018036"/>
     <use style="stroke:#000000;" x="81.707443" xlink:href="#m9a8cf8a4d0" y="86.109586"/>
     <use style="stroke:#000000;" x="81.408003" xlink:href="#m9a8cf8a4d0" y="79.508844"/>
     <use style="stroke:#000000;" x="81.482868" xlink:href="#m9a8cf8a4d0" y="82.828834"/>
     <use style="stroke:#000000;" x="165.429181" xlink:href="#m9a8cf8a4d0" y="164.599339"/>
     <use style="stroke:#000000;" x="165.194469" xlink:href="#m9a8cf8a4d0" y="167.463487"/>
     <use style="stroke:#000000;" x="81.832303" xlink:href="#m9a8cf8a4d0" y="87.696682"/>
     <use style="stroke:#000000;" x="81.409478" xlink:href="#m9a8cf8a4d0" y="79.960957"/>
     <use style="stroke:#000000;" x="125.517226" xlink:href="#m9a8cf8a4d0" y="143.696153"/>
     <use style="stroke:#000000;" x="137.562918" xlink:href="#m9a8cf8a4d0" y="150.4622"/>
     <use style="stroke:#000000;" x="164.901735" xlink:href="#m9a8cf8a4d0" y="170.499967"/>
     <use style="stroke:#000000;" x="164.704062" xlink:href="#m9a8cf8a4d0" y="167.905027"/>
     <use style="stroke:#000000;" x="115.564896" xlink:href="#m9a8cf8a4d0" y="137.849748"/>
     <use style="stroke:#000000;" x="118.986702" xlink:href="#m9a8cf8a4d0" y="140.004021"/>
     <use style="stroke:#000000;" x="82.053336" xlink:href="#m9a8cf8a4d0" y="90.588491"/>
     <use style="stroke:#000000;" x="81.512521" xlink:href="#m9a8cf8a4d0" y="84.58423"/>
     <use style="stroke:#000000;" x="82.670251" xlink:href="#m9a8cf8a4d0" y="92.824492"/>
     <use style="stroke:#000000;" x="82.14174" xlink:href="#m9a8cf8a4d0" y="89.747367"/>
     <use style="stroke:#000000;" x="84.356431" xlink:href="#m9a8cf8a4d0" y="101.381629"/>
     <use style="stroke:#000000;" x="85.729036" xlink:href="#m9a8cf8a4d0" y="105.285951"/>
     <use style="stroke:#000000;" x="405.1968" xlink:href="#m9a8cf8a4d0" y="254.3616"/>
     <use style="stroke:#000000;" x="405.1968" xlink:href="#m9a8cf8a4d0" y="254.3616"/>
     <use style="stroke:#000000;" x="82.354217" xlink:href="#m9a8cf8a4d0" y="91.09341"/>
     <use style="stroke:#000000;" x="82.992577" xlink:href="#m9a8cf8a4d0" y="97.547709"/>
     <use style="stroke:#000000;" x="141.39256" xlink:href="#m9a8cf8a4d0" y="154.444811"/>
     <use style="stroke:#000000;" x="133.932391" xlink:href="#m9a8cf8a4d0" y="147.800869"/>
    </g>
   </g>
   <g id="PathCollection_2">
    <defs>
     <path d="M 0 0.935414 
C 0.248075 0.935414 0.486022 0.836853 0.661438 0.661438 
C 0.836853 0.486022 0.935414 0.248075 0.935414 0 
C 0.935414 -0.248075 0.836853 -0.486022 0.661438 -0.661438 
C 0.486022 -0.836853 0.248075 -0.935414 0 -0.935414 
C -0.248075 -0.935414 -0.486022 -0.836853 -0.661438 -0.661438 
C -0.836853 -0.486022 -0.935414 -0.248075 -0.935414 0 
C -0.935414 0.248075 -0.836853 0.486022 -0.661438 0.661438 
C -0.486022 0.836853 -0.248075 0.935414 0 0.935414 
z
" id="m03dcd938a5" style="stroke:#0000ff;"/>
    </defs>
    <g clip-path="url(#pfeaf20e6c3)">
     <use style="fill:#0000ff;stroke:#0000ff;" x="81.51322" xlink:href="#m03dcd938a5" y="83.441982"/>
     <use style="fill:#0000ff;stroke:#0000ff;" x="381.640184" xlink:href="#m03dcd938a5" y="246.836017"/>
     <use style="fill:#0000ff;stroke:#0000ff;" x="82.682743" xlink:href="#m03dcd938a5" y="92.887823"/>
     <use style="fill:#0000ff;stroke:#0000ff;" x="167.146659" xlink:href="#m03dcd938a5" y="161.438378"/>
     <use style="fill:#0000ff;stroke:#0000ff;" x="81.432761" xlink:href="#m03dcd938a5" y="81.416598"/>
     <use style="fill:#0000ff;stroke:#0000ff;" x="89.231681" xlink:href="#m03dcd938a5" y="110.822081"/>
     <use style="fill:#0000ff;stroke:#0000ff;" x="164.465902" xlink:href="#m03dcd938a5" y="158.602266"/>
     <use style="fill:#0000ff;stroke:#0000ff;" x="81.68817" xlink:href="#m03dcd938a5" y="85.896729"/>
     <use style="fill:#0000ff;stroke:#0000ff;" x="86.303555" xlink:href="#m03dcd938a5" y="104.790593"/>
     <use style="fill:#0000ff;stroke:#0000ff;" x="85.204172" xlink:href="#m03dcd938a5" y="101.974619"/>
     <use style="fill:#0000ff;stroke:#0000ff;" x="81.408" xlink:href="#m03dcd938a5" y="79.488"/>
     <use style="fill:#0000ff;stroke:#0000ff;" x="81.429978" xlink:href="#m03dcd938a5" y="81.3055"/>
     <use style="fill:#0000ff;stroke:#0000ff;" x="113.817913" xlink:href="#m03dcd938a5" y="136.681796"/>
     <use style="fill:#0000ff;stroke:#0000ff;" x="378.646375" xlink:href="#m03dcd938a5" y="245.663202"/>
     <use style="fill:#0000ff;stroke:#0000ff;" x="115.658071" xlink:href="#m03dcd938a5" y="137.910685"/>
     <use style="fill:#0000ff;stroke:#0000ff;" x="81.408" xlink:href="#m03dcd938a5" y="79.488"/>
     <use style="fill:#0000ff;stroke:#0000ff;" x="156.679652" xlink:href="#m03dcd938a5" y="156.318626"/>
     <use style="fill:#0000ff;stroke:#0000ff;" x="123.900505" xlink:href="#m03dcd938a5" y="142.828148"/>
     <use style="fill:#0000ff;stroke:#0000ff;" x="166.41413" xlink:href="#m03dcd938a5" y="159.133637"/>
     <use style="fill:#0000ff;stroke:#0000ff;" x="162.884086" xlink:href="#m03dcd938a5" y="158.159498"/>
     <use style="fill:#0000ff;stroke:#0000ff;" x="83.176513" xlink:href="#m03dcd938a5" y="95.261167"/>
     <use style="fill:#0000ff;stroke:#0000ff;" x="81.421119" xlink:href="#m03dcd938a5" y="80.893775"/>
     <use style="fill:#0000ff;stroke:#0000ff;" x="81.417023" xlink:href="#m03dcd938a5" y="80.654541"/>
     <use style="fill:#0000ff;stroke:#0000ff;" x="167.134029" xlink:href="#m03dcd938a5" y="160.931709"/>
     <use style="fill:#0000ff;stroke:#0000ff;" x="134.33301" xlink:href="#m03dcd938a5" y="148.560705"/>
     <use style="fill:#0000ff;stroke:#0000ff;" x="106.889281" xlink:href="#m03dcd938a5" y="131.50103"/>
     <use style="fill:#0000ff;stroke:#0000ff;" x="84.599533" xlink:href="#m03dcd938a5" y="100.221659"/>
     <use style="fill:#0000ff;stroke:#0000ff;" x="95.23012" xlink:href="#m03dcd938a5" y="120.572251"/>
     <use style="fill:#0000ff;stroke:#0000ff;" x="147.770431" xlink:href="#m03dcd938a5" y="153.350874"/>
     <use style="fill:#0000ff;stroke:#0000ff;" x="87.021042" xlink:href="#m03dcd938a5" y="106.433279"/>
     <use style="fill:#0000ff;stroke:#0000ff;" x="121.851932" xlink:href="#m03dcd938a5" y="141.686306"/>
     <use style="fill:#0000ff;stroke:#0000ff;" x="87.270959" xlink:href="#m03dcd938a5" y="106.976181"/>
     <use style="fill:#0000ff;stroke:#0000ff;" x="82.013621" xlink:href="#m03dcd938a5" y="88.833079"/>
     <use style="fill:#0000ff;stroke:#0000ff;" x="81.733903" xlink:href="#m03dcd938a5" y="86.390556"/>
     <use style="fill:#0000ff;stroke:#0000ff;" x="97.31569" xlink:href="#m03dcd938a5" y="122.271346"/>
     <use style="fill:#0000ff;stroke:#0000ff;" x="81.537561" xlink:href="#m03dcd938a5" y="83.870443"/>
     <use style="fill:#0000ff;stroke:#0000ff;" x="167.531365" xlink:href="#m03dcd938a5" y="167.087895"/>
     <use style="fill:#0000ff;stroke:#0000ff;" x="104.166799" xlink:href="#m03dcd938a5" y="129.172015"/>
     <use style="fill:#0000ff;stroke:#0000ff;" x="90.101809" xlink:href="#m03dcd938a5" y="112.340345"/>
     <use style="fill:#0000ff;stroke:#0000ff;" x="84.50861" xlink:href="#m03dcd938a5" y="99.942203"/>
     <use style="fill:#0000ff;stroke:#0000ff;" x="84.037349" xlink:href="#m03dcd938a5" y="98.413945"/>
     <use style="fill:#0000ff;stroke:#0000ff;" x="82.178754" xlink:href="#m03dcd938a5" y="89.995476"/>
     <use style="fill:#0000ff;stroke:#0000ff;" x="117.357221" xlink:href="#m03dcd938a5" y="138.999073"/>
     <use style="fill:#0000ff;stroke:#0000ff;" x="110.95457" xlink:href="#m03dcd938a5" y="134.655213"/>
     <use style="fill:#0000ff;stroke:#0000ff;" x="81.417371" xlink:href="#m03dcd938a5" y="80.67679"/>
     <use style="fill:#0000ff;stroke:#0000ff;" x="81.924612" xlink:href="#m03dcd938a5" y="88.136129"/>
     <use style="fill:#0000ff;stroke:#0000ff;" x="86.701063" xlink:href="#m03dcd938a5" y="105.716914"/>
     <use style="fill:#0000ff;stroke:#0000ff;" x="81.42377" xlink:href="#m03dcd938a5" y="81.028688"/>
     <use style="fill:#0000ff;stroke:#0000ff;" x="87.426262" xlink:href="#m03dcd938a5" y="107.306666"/>
     <use style="fill:#0000ff;stroke:#0000ff;" x="82.793182" xlink:href="#m03dcd938a5" y="93.43372"/>
     <use style="fill:#0000ff;stroke:#0000ff;" x="120.764983" xlink:href="#m03dcd938a5" y="141.060283"/>
     <use style="fill:#0000ff;stroke:#0000ff;" x="81.408" xlink:href="#m03dcd938a5" y="79.488"/>
     <use style="fill:#0000ff;stroke:#0000ff;" x="81.408" xlink:href="#m03dcd938a5" y="79.488"/>
     <use style="fill:#0000ff;stroke:#0000ff;" x="155.825372" xlink:href="#m03dcd938a5" y="156.05142"/>
     <use style="fill:#0000ff;stroke:#0000ff;" x="82.652828" xlink:href="#m03dcd938a5" y="92.735597"/>
     <use style="fill:#0000ff;stroke:#0000ff;" x="81.434183" xlink:href="#m03dcd938a5" y="81.470902"/>
     <use style="fill:#0000ff;stroke:#0000ff;" x="81.429897" xlink:href="#m03dcd938a5" y="81.302179"/>
     <use style="fill:#0000ff;stroke:#0000ff;" x="84.795125" xlink:href="#m03dcd938a5" y="100.807921"/>
     <use style="fill:#0000ff;stroke:#0000ff;" x="81.462826" xlink:href="#m03dcd938a5" y="82.350601"/>
     <use style="fill:#0000ff;stroke:#0000ff;" x="81.462158" xlink:href="#m03dcd938a5" y="82.333235"/>
     <use style="fill:#0000ff;stroke:#0000ff;" x="89.637895" xlink:href="#m03dcd938a5" y="111.543133"/>
     <use style="fill:#0000ff;stroke:#0000ff;" x="98.640172" xlink:href="#m03dcd938a5" y="123.747174"/>
     <use style="fill:#0000ff;stroke:#0000ff;" x="82.749499" xlink:href="#m03dcd938a5" y="93.220714"/>
     <use style="fill:#0000ff;stroke:#0000ff;" x="82.807282" xlink:href="#m03dcd938a5" y="93.5017"/>
     <use style="fill:#0000ff;stroke:#0000ff;" x="141.079584" xlink:href="#m03dcd938a5" y="150.828435"/>
     <use style="fill:#0000ff;stroke:#0000ff;" x="127.852065" xlink:href="#m03dcd938a5" y="144.901575"/>
     <use style="fill:#0000ff;stroke:#0000ff;" x="119.431478" xlink:href="#m03dcd938a5" y="140.272059"/>
     <use style="fill:#0000ff;stroke:#0000ff;" x="81.548547" xlink:href="#m03dcd938a5" y="84.050236"/>
     <use style="fill:#0000ff;stroke:#0000ff;" x="81.408" xlink:href="#m03dcd938a5" y="79.488"/>
     <use style="fill:#0000ff;stroke:#0000ff;" x="167.167334" xlink:href="#m03dcd938a5" y="162.070699"/>
     <use style="fill:#0000ff;stroke:#0000ff;" x="81.460043" xlink:href="#m03dcd938a5" y="82.277536"/>
     <use style="fill:#0000ff;stroke:#0000ff;" x="133.173284" xlink:href="#m03dcd938a5" y="147.456391"/>
     <use style="fill:#0000ff;stroke:#0000ff;" x="168.080214" xlink:href="#m03dcd938a5" y="171.028546"/>
     <use style="fill:#0000ff;stroke:#0000ff;" x="120.876076" xlink:href="#m03dcd938a5" y="141.124933"/>
     <use style="fill:#0000ff;stroke:#0000ff;" x="81.897346" xlink:href="#m03dcd938a5" y="87.910187"/>
     <use style="fill:#0000ff;stroke:#0000ff;" x="82.898339" xlink:href="#m03dcd938a5" y="93.932016"/>
     <use style="fill:#0000ff;stroke:#0000ff;" x="85.409341" xlink:href="#m03dcd938a5" y="102.532792"/>
     <use style="fill:#0000ff;stroke:#0000ff;" x="405.1968" xlink:href="#m03dcd938a5" y="254.3616"/>
     <use style="fill:#0000ff;stroke:#0000ff;" x="82.698366" xlink:href="#m03dcd938a5" y="92.966558"/>
     <use style="fill:#0000ff;stroke:#0000ff;" x="133.464353" xlink:href="#m03dcd938a5" y="147.589034"/>
    </g>
   </g>
   <g id="matplotlib.axis_1">
    <g id="xtick_1">
     <g id="line2d_1">
      <defs>
       <path d="M 0 0 
L 0 3.5 
" id="me49e8f79f0" style="stroke:#000000;stroke-width:0.8;"/>
      </defs>
      <g>
       <use style="stroke:#000000;stroke-width:0.8;" x="81.408" xlink:href="#me49e8f79f0" y="307.584"/>
      </g>
     </g>
     <g id="text_1">
      <!-- 0 -->
      <defs>
       <path d="M 31.78125 66.40625 
Q 24.171875 66.40625 20.328125 58.90625 
Q 16.5 51.421875 16.5 36.375 
Q 16.5 21.390625 20.328125 13.890625 
Q 24.171875 6.390625 31.78125 6.390625 
Q 39.453125 6.390625 43.28125 13.890625 
Q 47.125 21.390625 47.125 36.375 
Q 47.125 51.421875 43.28125 58.90625 
Q 39.453125 66.40625 31.78125 66.40625 
z
M 31.78125 74.21875 
Q 44.046875 74.21875 50.515625 64.515625 
Q 56.984375 54.828125 56.984375 36.375 
Q 56.984375 17.96875 50.515625 8.265625 
Q 44.046875 -1.421875 31.78125 -1.421875 
Q 19.53125 -1.421875 13.0625 8.265625 
Q 6.59375 17.96875 6.59375 36.375 
Q 6.59375 54.828125 13.0625 64.515625 
Q 19.53125 74.21875 31.78125 74.21875 
z
" id="DejaVuSans-30"/>
      </defs>
      <g transform="translate(78.22675 322.182437)scale(0.1 -0.1)">
       <use xlink:href="#DejaVuSans-30"/>
      </g>
     </g>
    </g>
    <g id="xtick_2">
     <g id="line2d_2">
      <g>
       <use style="stroke:#000000;stroke-width:0.8;" x="129.024" xlink:href="#me49e8f79f0" y="307.584"/>
      </g>
     </g>
     <g id="text_2">
      <!-- 20 -->
      <defs>
       <path d="M 19.1875 8.296875 
L 53.609375 8.296875 
L 53.609375 0 
L 7.328125 0 
L 7.328125 8.296875 
Q 12.9375 14.109375 22.625 23.890625 
Q 32.328125 33.6875 34.8125 36.53125 
Q 39.546875 41.84375 41.421875 45.53125 
Q 43.3125 49.21875 43.3125 52.78125 
Q 43.3125 58.59375 39.234375 62.25 
Q 35.15625 65.921875 28.609375 65.921875 
Q 23.96875 65.921875 18.8125 64.3125 
Q 13.671875 62.703125 7.8125 59.421875 
L 7.8125 69.390625 
Q 13.765625 71.78125 18.9375 73 
Q 24.125 74.21875 28.421875 74.21875 
Q 39.75 74.21875 46.484375 68.546875 
Q 53.21875 62.890625 53.21875 53.421875 
Q 53.21875 48.921875 51.53125 44.890625 
Q 49.859375 40.875 45.40625 35.40625 
Q 44.1875 33.984375 37.640625 27.21875 
Q 31.109375 20.453125 19.1875 8.296875 
z
" id="DejaVuSans-32"/>
      </defs>
      <g transform="translate(122.6615 322.182437)scale(0.1 -0.1)">
       <use xlink:href="#DejaVuSans-32"/>
       <use x="63.623047" xlink:href="#DejaVuSans-30"/>
      </g>
     </g>
    </g>
    <g id="xtick_3">
     <g id="line2d_3">
      <g>
       <use style="stroke:#000000;stroke-width:0.8;" x="176.64" xlink:href="#me49e8f79f0" y="307.584"/>
      </g>
     </g>
     <g id="text_3">
      <!-- 40 -->
      <defs>
       <path d="M 37.796875 64.3125 
L 12.890625 25.390625 
L 37.796875 25.390625 
z
M 35.203125 72.90625 
L 47.609375 72.90625 
L 47.609375 25.390625 
L 58.015625 25.390625 
L 58.015625 17.1875 
L 47.609375 17.1875 
L 47.609375 0 
L 37.796875 0 
L 37.796875 17.1875 
L 4.890625 17.1875 
L 4.890625 26.703125 
z
" id="DejaVuSans-34"/>
      </defs>
      <g transform="translate(170.2775 322.182437)scale(0.1 -0.1)">
       <use xlink:href="#DejaVuSans-34"/>
       <use x="63.623047" xlink:href="#DejaVuSans-30"/>
      </g>
     </g>
    </g>
    <g id="xtick_4">
     <g id="line2d_4">
      <g>
       <use style="stroke:#000000;stroke-width:0.8;" x="224.256" xlink:href="#me49e8f79f0" y="307.584"/>
      </g>
     </g>
     <g id="text_4">
      <!-- 60 -->
      <defs>
       <path d="M 33.015625 40.375 
Q 26.375 40.375 22.484375 35.828125 
Q 18.609375 31.296875 18.609375 23.390625 
Q 18.609375 15.53125 22.484375 10.953125 
Q 26.375 6.390625 33.015625 6.390625 
Q 39.65625 6.390625 43.53125 10.953125 
Q 47.40625 15.53125 47.40625 23.390625 
Q 47.40625 31.296875 43.53125 35.828125 
Q 39.65625 40.375 33.015625 40.375 
z
M 52.59375 71.296875 
L 52.59375 62.3125 
Q 48.875 64.0625 45.09375 64.984375 
Q 41.3125 65.921875 37.59375 65.921875 
Q 27.828125 65.921875 22.671875 59.328125 
Q 17.53125 52.734375 16.796875 39.40625 
Q 19.671875 43.65625 24.015625 45.921875 
Q 28.375 48.1875 33.59375 48.1875 
Q 44.578125 48.1875 50.953125 41.515625 
Q 57.328125 34.859375 57.328125 23.390625 
Q 57.328125 12.15625 50.6875 5.359375 
Q 44.046875 -1.421875 33.015625 -1.421875 
Q 20.359375 -1.421875 13.671875 8.265625 
Q 6.984375 17.96875 6.984375 36.375 
Q 6.984375 53.65625 15.1875 63.9375 
Q 23.390625 74.21875 37.203125 74.21875 
Q 40.921875 74.21875 44.703125 73.484375 
Q 48.484375 72.75 52.59375 71.296875 
z
" id="DejaVuSans-36"/>
      </defs>
      <g transform="translate(217.8935 322.182437)scale(0.1 -0.1)">
       <use xlink:href="#DejaVuSans-36"/>
       <use x="63.623047" xlink:href="#DejaVuSans-30"/>
      </g>
     </g>
    </g>
    <g id="xtick_5">
     <g id="line2d_5">
      <g>
       <use style="stroke:#000000;stroke-width:0.8;" x="271.872" xlink:href="#me49e8f79f0" y="307.584"/>
      </g>
     </g>
     <g id="text_5">
      <!-- 80 -->
      <defs>
       <path d="M 31.78125 34.625 
Q 24.75 34.625 20.71875 30.859375 
Q 16.703125 27.09375 16.703125 20.515625 
Q 16.703125 13.921875 20.71875 10.15625 
Q 24.75 6.390625 31.78125 6.390625 
Q 38.8125 6.390625 42.859375 10.171875 
Q 46.921875 13.96875 46.921875 20.515625 
Q 46.921875 27.09375 42.890625 30.859375 
Q 38.875 34.625 31.78125 34.625 
z
M 21.921875 38.8125 
Q 15.578125 40.375 12.03125 44.71875 
Q 8.5 49.078125 8.5 55.328125 
Q 8.5 64.0625 14.71875 69.140625 
Q 20.953125 74.21875 31.78125 74.21875 
Q 42.671875 74.21875 48.875 69.140625 
Q 55.078125 64.0625 55.078125 55.328125 
Q 55.078125 49.078125 51.53125 44.71875 
Q 48 40.375 41.703125 38.8125 
Q 48.828125 37.15625 52.796875 32.3125 
Q 56.78125 27.484375 56.78125 20.515625 
Q 56.78125 9.90625 50.3125 4.234375 
Q 43.84375 -1.421875 31.78125 -1.421875 
Q 19.734375 -1.421875 13.25 4.234375 
Q 6.78125 9.90625 6.78125 20.515625 
Q 6.78125 27.484375 10.78125 32.3125 
Q 14.796875 37.15625 21.921875 38.8125 
z
M 18.3125 54.390625 
Q 18.3125 48.734375 21.84375 45.5625 
Q 25.390625 42.390625 31.78125 42.390625 
Q 38.140625 42.390625 41.71875 45.5625 
Q 45.3125 48.734375 45.3125 54.390625 
Q 45.3125 60.0625 41.71875 63.234375 
Q 38.140625 66.40625 31.78125 66.40625 
Q 25.390625 66.40625 21.84375 63.234375 
Q 18.3125 60.0625 18.3125 54.390625 
z
" id="DejaVuSans-38"/>
      </defs>
      <g transform="translate(265.5095 322.182437)scale(0.1 -0.1)">
       <use xlink:href="#DejaVuSans-38"/>
       <use x="63.623047" xlink:href="#DejaVuSans-30"/>
      </g>
     </g>
    </g>
    <g id="xtick_6">
     <g id="line2d_6">
      <g>
       <use style="stroke:#000000;stroke-width:0.8;" x="319.488" xlink:href="#me49e8f79f0" y="307.584"/>
      </g>
     </g>
     <g id="text_6">
      <!-- 100 -->
      <defs>
       <path d="M 12.40625 8.296875 
L 28.515625 8.296875 
L 28.515625 63.921875 
L 10.984375 60.40625 
L 10.984375 69.390625 
L 28.421875 72.90625 
L 38.28125 72.90625 
L 38.28125 8.296875 
L 54.390625 8.296875 
L 54.390625 0 
L 12.40625 0 
z
" id="DejaVuSans-31"/>
      </defs>
      <g transform="translate(309.94425 322.182437)scale(0.1 -0.1)">
       <use xlink:href="#DejaVuSans-31"/>
       <use x="63.623047" xlink:href="#DejaVuSans-30"/>
       <use x="127.246094" xlink:href="#DejaVuSans-30"/>
      </g>
     </g>
    </g>
    <g id="xtick_7">
     <g id="line2d_7">
      <g>
       <use style="stroke:#000000;stroke-width:0.8;" x="367.104" xlink:href="#me49e8f79f0" y="307.584"/>
      </g>
     </g>
     <g id="text_7">
      <!-- 120 -->
      <g transform="translate(357.56025 322.182437)scale(0.1 -0.1)">
       <use xlink:href="#DejaVuSans-31"/>
       <use x="63.623047" xlink:href="#DejaVuSans-32"/>
       <use x="127.246094" xlink:href="#DejaVuSans-30"/>
      </g>
     </g>
    </g>
    <g id="xtick_8">
     <g id="line2d_8">
      <g>
       <use style="stroke:#000000;stroke-width:0.8;" x="414.72" xlink:href="#me49e8f79f0" y="307.584"/>
      </g>
     </g>
     <g id="text_8">
      <!-- 140 -->
      <g transform="translate(405.17625 322.182437)scale(0.1 -0.1)">
       <use xlink:href="#DejaVuSans-31"/>
       <use x="63.623047" xlink:href="#DejaVuSans-34"/>
       <use x="127.246094" xlink:href="#DejaVuSans-30"/>
      </g>
     </g>
    </g>
   </g>
   <g id="matplotlib.axis_2">
    <g id="ytick_1">
     <g id="line2d_9">
      <defs>
       <path d="M 0 0 
L -3.5 0 
" id="m088b49631d" style="stroke:#000000;stroke-width:0.8;"/>
      </defs>
      <g>
       <use style="stroke:#000000;stroke-width:0.8;" x="57.6" xlink:href="#m088b49631d" y="307.584"/>
      </g>
     </g>
     <g id="text_9">
      <!-- −10 -->
      <defs>
       <path d="M 10.59375 35.5 
L 73.1875 35.5 
L 73.1875 27.203125 
L 10.59375 27.203125 
z
" id="DejaVuSans-2212"/>
      </defs>
      <g transform="translate(29.495313 311.383219)scale(0.1 -0.1)">
       <use xlink:href="#DejaVuSans-2212"/>
       <use x="83.789062" xlink:href="#DejaVuSans-31"/>
       <use x="147.412109" xlink:href="#DejaVuSans-30"/>
      </g>
     </g>
    </g>
    <g id="ytick_2">
     <g id="line2d_10">
      <g>
       <use style="stroke:#000000;stroke-width:0.8;" x="57.6" xlink:href="#m088b49631d" y="269.568"/>
      </g>
     </g>
     <g id="text_10">
      <!-- 0 -->
      <g transform="translate(44.2375 273.367219)scale(0.1 -0.1)">
       <use xlink:href="#DejaVuSans-30"/>
      </g>
     </g>
    </g>
    <g id="ytick_3">
     <g id="line2d_11">
      <g>
       <use style="stroke:#000000;stroke-width:0.8;" x="57.6" xlink:href="#m088b49631d" y="231.552"/>
      </g>
     </g>
     <g id="text_11">
      <!-- 10 -->
      <g transform="translate(37.875 235.351219)scale(0.1 -0.1)">
       <use xlink:href="#DejaVuSans-31"/>
       <use x="63.623047" xlink:href="#DejaVuSans-30"/>
      </g>
     </g>
    </g>
    <g id="ytick_4">
     <g id="line2d_12">
      <g>
       <use style="stroke:#000000;stroke-width:0.8;" x="57.6" xlink:href="#m088b49631d" y="193.536"/>
      </g>
     </g>
     <g id="text_12">
      <!-- 20 -->
      <g transform="translate(37.875 197.335219)scale(0.1 -0.1)">
       <use xlink:href="#DejaVuSans-32"/>
       <use x="63.623047" xlink:href="#DejaVuSans-30"/>
      </g>
     </g>
    </g>
    <g id="ytick_5">
     <g id="line2d_13">
      <g>
       <use style="stroke:#000000;stroke-width:0.8;" x="57.6" xlink:href="#m088b49631d" y="155.52"/>
      </g>
     </g>
     <g id="text_13">
      <!-- 30 -->
      <defs>
       <path d="M 40.578125 39.3125 
Q 47.65625 37.796875 51.625 33 
Q 55.609375 28.21875 55.609375 21.1875 
Q 55.609375 10.40625 48.1875 4.484375 
Q 40.765625 -1.421875 27.09375 -1.421875 
Q 22.515625 -1.421875 17.65625 -0.515625 
Q 12.796875 0.390625 7.625 2.203125 
L 7.625 11.71875 
Q 11.71875 9.328125 16.59375 8.109375 
Q 21.484375 6.890625 26.8125 6.890625 
Q 36.078125 6.890625 40.9375 10.546875 
Q 45.796875 14.203125 45.796875 21.1875 
Q 45.796875 27.640625 41.28125 31.265625 
Q 36.765625 34.90625 28.71875 34.90625 
L 20.21875 34.90625 
L 20.21875 43.015625 
L 29.109375 43.015625 
Q 36.375 43.015625 40.234375 45.921875 
Q 44.09375 48.828125 44.09375 54.296875 
Q 44.09375 59.90625 40.109375 62.90625 
Q 36.140625 65.921875 28.71875 65.921875 
Q 24.65625 65.921875 20.015625 65.03125 
Q 15.375 64.15625 9.8125 62.3125 
L 9.8125 71.09375 
Q 15.4375 72.65625 20.34375 73.4375 
Q 25.25 74.21875 29.59375 74.21875 
Q 40.828125 74.21875 47.359375 69.109375 
Q 53.90625 64.015625 53.90625 55.328125 
Q 53.90625 49.265625 50.4375 45.09375 
Q 46.96875 40.921875 40.578125 39.3125 
z
" id="DejaVuSans-33"/>
      </defs>
      <g transform="translate(37.875 159.319219)scale(0.1 -0.1)">
       <use xlink:href="#DejaVuSans-33"/>
       <use x="63.623047" xlink:href="#DejaVuSans-30"/>
      </g>
     </g>
    </g>
    <g id="ytick_6">
     <g id="line2d_14">
      <g>
       <use style="stroke:#000000;stroke-width:0.8;" x="57.6" xlink:href="#m088b49631d" y="117.504"/>
      </g>
     </g>
     <g id="text_14">
      <!-- 40 -->
      <g transform="translate(37.875 121.303219)scale(0.1 -0.1)">
       <use xlink:href="#DejaVuSans-34"/>
       <use x="63.623047" xlink:href="#DejaVuSans-30"/>
      </g>
     </g>
    </g>
    <g id="ytick_7">
     <g id="line2d_15">
      <g>
       <use style="stroke:#000000;stroke-width:0.8;" x="57.6" xlink:href="#m088b49631d" y="79.488"/>
      </g>
     </g>
     <g id="text_15">
      <!-- 50 -->
      <defs>
       <path d="M 10.796875 72.90625 
L 49.515625 72.90625 
L 49.515625 64.59375 
L 19.828125 64.59375 
L 19.828125 46.734375 
Q 21.96875 47.46875 24.109375 47.828125 
Q 26.265625 48.1875 28.421875 48.1875 
Q 40.625 48.1875 47.75 41.5 
Q 54.890625 34.8125 54.890625 23.390625 
Q 54.890625 11.625 47.5625 5.09375 
Q 40.234375 -1.421875 26.90625 -1.421875 
Q 22.3125 -1.421875 17.546875 -0.640625 
Q 12.796875 0.140625 7.71875 1.703125 
L 7.71875 11.625 
Q 12.109375 9.234375 16.796875 8.0625 
Q 21.484375 6.890625 26.703125 6.890625 
Q 35.15625 6.890625 40.078125 11.328125 
Q 45.015625 15.765625 45.015625 23.390625 
Q 45.015625 31 40.078125 35.4375 
Q 35.15625 39.890625 26.703125 39.890625 
Q 22.75 39.890625 18.8125 39.015625 
Q 14.890625 38.140625 10.796875 36.28125 
z
" id="DejaVuSans-35"/>
      </defs>
      <g transform="translate(37.875 83.287219)scale(0.1 -0.1)">
       <use xlink:href="#DejaVuSans-35"/>
       <use x="63.623047" xlink:href="#DejaVuSans-30"/>
      </g>
     </g>
    </g>
    <g id="ytick_8">
     <g id="line2d_16">
      <g>
       <use style="stroke:#000000;stroke-width:0.8;" x="57.6" xlink:href="#m088b49631d" y="41.472"/>
      </g>
     </g>
     <g id="text_16">
      <!-- 60 -->
      <g transform="translate(37.875 45.271219)scale(0.1 -0.1)">
       <use xlink:href="#DejaVuSans-36"/>
       <use x="63.623047" xlink:href="#DejaVuSans-30"/>
      </g>
     </g>
    </g>
   </g>
   <g id="patch_3">
    <path d="M 57.6 307.584 
L 57.6 41.472 
" style="fill:none;stroke:#000000;stroke-linecap:square;stroke-linejoin:miter;stroke-width:0.8;"/>
   </g>
   <g id="patch_4">
    <path d="M 414.72 307.584 
L 414.72 41.472 
" style="fill:none;stroke:#000000;stroke-linecap:square;stroke-linejoin:miter;stroke-width:0.8;"/>
   </g>
   <g id="patch_5">
    <path d="M 57.6 307.584 
L 414.72 307.584 
" style="fill:none;stroke:#000000;stroke-linecap:square;stroke-linejoin:miter;stroke-width:0.8;"/>
   </g>
   <g id="patch_6">
    <path d="M 57.6 41.472 
L 414.72 41.472 
" style="fill:none;stroke:#000000;stroke-linecap:square;stroke-linejoin:miter;stroke-width:0.8;"/>
   </g>
  </g>
 </g>
 <defs>
  <clipPath id="pfeaf20e6c3">
   <rect height="266.112" width="357.12" x="57.6" y="41.472"/>
  </clipPath>
 </defs>
</svg>
