<?xml version="1.0" encoding="utf-8" standalone="no"?>
<!DOCTYPE svg PUBLIC "-//W3C//DTD SVG 1.1//EN"
  "http://www.w3.org/Graphics/SVG/1.1/DTD/svg11.dtd">
<!-- Created with matplotlib (http://matplotlib.org/) -->
<svg height="432pt" version="1.1" viewBox="0 0 576 432" width="576pt" xmlns="http://www.w3.org/2000/svg" xmlns:xlink="http://www.w3.org/1999/xlink">
 <defs>
  <style type="text/css">
*{stroke-linecap:butt;stroke-linejoin:round;stroke-miterlimit:100000;}
  </style>
 </defs>
 <g id="figure_1">
  <g id="patch_1">
   <path d="M 0 432 
L 576 432 
L 576 0 
L 0 0 
z
" style="fill:#ffffff;"/>
  </g>
  <g id="axes_1">
   <g id="patch_2">
    <path d="M 72 388.8 
L 518.4 388.8 
L 518.4 43.2 
L 72 43.2 
z
" style="fill:#ffffff;"/>
   </g>
   <g id="PathCollection_1">
    <defs>
     <path d="M 0 1.118034 
C 0.296506 1.118034 0.580908 1.000231 0.790569 0.790569 
C 1.000231 0.580908 1.118034 0.296506 1.118034 0 
C 1.118034 -0.296506 1.000231 -0.580908 0.790569 -0.790569 
C 0.580908 -1.000231 0.296506 -1.118034 0 -1.118034 
C -0.296506 -1.118034 -0.580908 -1.000231 -0.790569 -0.790569 
C -1.000231 -0.580908 -1.118034 -0.296506 -1.118034 0 
C -1.118034 0.296506 -1.000231 0.580908 -0.790569 0.790569 
C -0.580908 1.000231 -0.296506 1.118034 0 1.118034 
z
" id="m4eef772c50" style="stroke:#000000;"/>
    </defs>
    <g clip-path="url(#p0bfee181f9)">
     <use style="stroke:#000000;" x="484.811969425" xlink:href="#m4eef772c50" y="116.355815368"/>
     <use style="stroke:#000000;" x="402.654890163" xlink:href="#m4eef772c50" y="82.6473572758"/>
     <use style="stroke:#000000;" x="485.358202495" xlink:href="#m4eef772c50" y="117.618060563"/>
     <use style="stroke:#000000;" x="430.470569531" xlink:href="#m4eef772c50" y="89.6806021417"/>
     <use style="stroke:#000000;" x="385.487360306" xlink:href="#m4eef772c50" y="79.2158665574"/>
     <use style="stroke:#000000;" x="315.85460789" xlink:href="#m4eef772c50" y="70.4632033193"/>
     <use style="stroke:#000000;" x="365.077059353" xlink:href="#m4eef772c50" y="75.8399914878"/>
     <use style="stroke:#000000;" x="469.465199317" xlink:href="#m4eef772c50" y="105.409954747"/>
     <use style="stroke:#000000;" x="444.96444758" xlink:href="#m4eef772c50" y="94.4811978577"/>
     <use style="stroke:#000000;" x="492.732284387" xlink:href="#m4eef772c50" y="126.494578516"/>
     <use style="stroke:#000000;" x="443.435575444" xlink:href="#m4eef772c50" y="94.0318259709"/>
     <use style="stroke:#000000;" x="462.579300351" xlink:href="#m4eef772c50" y="101.907233575"/>
     <use style="stroke:#000000;" x="455.999209557" xlink:href="#m4eef772c50" y="98.9082898096"/>
     <use style="stroke:#000000;" x="408.823078293" xlink:href="#m4eef772c50" y="84.4882316197"/>
     <use style="stroke:#000000;" x="416.877716377" xlink:href="#m4eef772c50" y="86.1005290887"/>
     <use style="stroke:#000000;" x="429.043205014" xlink:href="#m4eef772c50" y="89.2628878143"/>
     <use style="stroke:#000000;" x="400.110280945" xlink:href="#m4eef772c50" y="82.256603974"/>
     <use style="stroke:#000000;" x="241.385309441" xlink:href="#m4eef772c50" y="66.73346981"/>
     <use style="stroke:#000000;" x="470.700381164" xlink:href="#m4eef772c50" y="106.023862735"/>
     <use style="stroke:#000000;" x="437.360999571" xlink:href="#m4eef772c50" y="91.8035320907"/>
     <use style="stroke:#000000;" x="486.362401117" xlink:href="#m4eef772c50" y="118.556354843"/>
     <use style="stroke:#000000;" x="467.055210234" xlink:href="#m4eef772c50" y="104.003666147"/>
     <use style="stroke:#000000;" x="476.665322156" xlink:href="#m4eef772c50" y="110.353726462"/>
     <use style="stroke:#000000;" x="473.015307606" xlink:href="#m4eef772c50" y="107.408946152"/>
     <use style="stroke:#000000;" x="388.809665089" xlink:href="#m4eef772c50" y="79.8379802703"/>
     <use style="stroke:#000000;" x="480.114089153" xlink:href="#m4eef772c50" y="112.494935741"/>
     <use style="stroke:#000000;" x="375.175285296" xlink:href="#m4eef772c50" y="77.4187442337"/>
     <use style="stroke:#000000;" x="494.844243139" xlink:href="#m4eef772c50" y="130.343664566"/>
     <use style="stroke:#000000;" x="468.311213067" xlink:href="#m4eef772c50" y="104.896935011"/>
     <use style="stroke:#000000;" x="348.39237325" xlink:href="#m4eef772c50" y="73.3887704103"/>
     <use style="stroke:#000000;" x="497.024784794" xlink:href="#m4eef772c50" y="139.224269198"/>
     <use style="stroke:#000000;" x="422.022932406" xlink:href="#m4eef772c50" y="87.3714658421"/>
     <use style="stroke:#000000;" x="473.398304989" xlink:href="#m4eef772c50" y="107.684722822"/>
     <use style="stroke:#000000;" x="489.057301517" xlink:href="#m4eef772c50" y="121.344639416"/>
     <use style="stroke:#000000;" x="369.278984273" xlink:href="#m4eef772c50" y="76.6662178514"/>
     <use style="stroke:#000000;" x="425.86243781" xlink:href="#m4eef772c50" y="88.3650900356"/>
     <use style="stroke:#000000;" x="434.441133092" xlink:href="#m4eef772c50" y="90.8844087414"/>
     <use style="stroke:#000000;" x="490.969140439" xlink:href="#m4eef772c50" y="124.052393033"/>
     <use style="stroke:#000000;" x="496.18278725" xlink:href="#m4eef772c50" y="134.746015384"/>
     <use style="stroke:#000000;" x="377.735330451" xlink:href="#m4eef772c50" y="78.1436061916"/>
     <use style="stroke:#000000;" x="298.937202353" xlink:href="#m4eef772c50" y="69.0765075221"/>
     <use style="stroke:#000000;" x="405.932861528" xlink:href="#m4eef772c50" y="83.9336883099"/>
     <use style="stroke:#000000;" x="450.095434466" xlink:href="#m4eef772c50" y="96.4745998888"/>
     <use style="stroke:#000000;" x="370.792147068" xlink:href="#m4eef772c50" y="76.6860832965"/>
     <use style="stroke:#000000;" x="423.357500412" xlink:href="#m4eef772c50" y="87.6960263856"/>
     <use style="stroke:#000000;" x="387.523970232" xlink:href="#m4eef772c50" y="79.6674434037"/>
     <use style="stroke:#000000;" x="336.724406301" xlink:href="#m4eef772c50" y="72.5260192025"/>
     <use style="stroke:#000000;" x="397.044063182" xlink:href="#m4eef772c50" y="81.5490634619"/>
     <use style="stroke:#000000;" x="483.911426225" xlink:href="#m4eef772c50" y="115.566930132"/>
     <use style="stroke:#000000;" x="495.566772858" xlink:href="#m4eef772c50" y="132.237064899"/>
     <use style="stroke:#000000;" x="478.068772186" xlink:href="#m4eef772c50" y="110.789859799"/>
     <use style="stroke:#000000;" x="481.437957941" xlink:href="#m4eef772c50" y="113.356843386"/>
     <use style="stroke:#000000;" x="357.865568319" xlink:href="#m4eef772c50" y="75.162300952"/>
     <use style="stroke:#000000;" x="488.203349922" xlink:href="#m4eef772c50" y="120.836511125"/>
     <use style="stroke:#000000;" x="351.710070389" xlink:href="#m4eef772c50" y="73.8373715713"/>
     <use style="stroke:#000000;" x="418.93696816" xlink:href="#m4eef772c50" y="86.4973077706"/>
     <use style="stroke:#000000;" x="459.549150948" xlink:href="#m4eef772c50" y="100.694364239"/>
     <use style="stroke:#000000;" x="419.556838526" xlink:href="#m4eef772c50" y="86.6890185133"/>
     <use style="stroke:#000000;" x="344.318987275" xlink:href="#m4eef772c50" y="72.9154305079"/>
     <use style="stroke:#000000;" x="439.051892527" xlink:href="#m4eef772c50" y="92.6227999716"/>
     <use style="stroke:#000000;" x="332.557019402" xlink:href="#m4eef772c50" y="73.1180860543"/>
     <use style="stroke:#000000;" x="297.23226832" xlink:href="#m4eef772c50" y="71.3354402883"/>
     <use style="stroke:#000000;" x="355.814981842" xlink:href="#m4eef772c50" y="83.1840259723"/>
     <use style="stroke:#000000;" x="468.276117841" xlink:href="#m4eef772c50" y="106.690228622"/>
     <use style="stroke:#000000;" x="470.286100738" xlink:href="#m4eef772c50" y="116.001202787"/>
     <use style="stroke:#000000;" x="464.205155701" xlink:href="#m4eef772c50" y="106.697969978"/>
     <use style="stroke:#000000;" x="450.103977436" xlink:href="#m4eef772c50" y="103.112644711"/>
     <use style="stroke:#000000;" x="451.711881627" xlink:href="#m4eef772c50" y="98.40120555"/>
     <use style="stroke:#000000;" x="415.196859898" xlink:href="#m4eef772c50" y="86.1934851221"/>
     <use style="stroke:#000000;" x="429.931742005" xlink:href="#m4eef772c50" y="96.4885434767"/>
     <use style="stroke:#000000;" x="345.390685371" xlink:href="#m4eef772c50" y="74.2573342026"/>
     <use style="stroke:#000000;" x="403.213917019" xlink:href="#m4eef772c50" y="82.9182343498"/>
     <use style="stroke:#000000;" x="444.320440826" xlink:href="#m4eef772c50" y="105.485138451"/>
     <use style="stroke:#000000;" x="398.930080001" xlink:href="#m4eef772c50" y="87.7424654577"/>
     <use style="stroke:#000000;" x="477.906614354" xlink:href="#m4eef772c50" y="111.122605982"/>
     <use style="stroke:#000000;" x="445.659672668" xlink:href="#m4eef772c50" y="98.1033680373"/>
     <use style="stroke:#000000;" x="334.790050708" xlink:href="#m4eef772c50" y="72.2823493418"/>
     <use style="stroke:#000000;" x="290.314980557" xlink:href="#m4eef772c50" y="92.2522666998"/>
     <use style="stroke:#000000;" x="412.99531886" xlink:href="#m4eef772c50" y="85.0263328437"/>
     <use style="stroke:#000000;" x="473.983426028" xlink:href="#m4eef772c50" y="108.960743509"/>
     <use style="stroke:#000000;" x="438.835016345" xlink:href="#m4eef772c50" y="93.481245499"/>
     <use style="stroke:#000000;" x="389.493969072" xlink:href="#m4eef772c50" y="101.752414961"/>
     <use style="stroke:#000000;" x="366.608607026" xlink:href="#m4eef772c50" y="85.6842427446"/>
     <use style="stroke:#000000;" x="334.547808904" xlink:href="#m4eef772c50" y="72.7819289651"/>
     <use style="stroke:#000000;" x="321.954299203" xlink:href="#m4eef772c50" y="72.0585886159"/>
     <use style="stroke:#000000;" x="296.007950426" xlink:href="#m4eef772c50" y="78.3256264866"/>
     <use style="stroke:#000000;" x="450.855603986" xlink:href="#m4eef772c50" y="104.005794946"/>
     <use style="stroke:#000000;" x="416.609496947" xlink:href="#m4eef772c50" y="85.903537667"/>
     <use style="stroke:#000000;" x="427.668924215" xlink:href="#m4eef772c50" y="98.5673412514"/>
     <use style="stroke:#000000;" x="479.985180946" xlink:href="#m4eef772c50" y="112.656420212"/>
     <use style="stroke:#000000;" x="481.716001974" xlink:href="#m4eef772c50" y="113.655652033"/>
     <use style="stroke:#000000;" x="333.281556134" xlink:href="#m4eef772c50" y="73.1326374906"/>
     <use style="stroke:#000000;" x="442.33625849" xlink:href="#m4eef772c50" y="110.16890011"/>
     <use style="stroke:#000000;" x="356.605420535" xlink:href="#m4eef772c50" y="74.5745232888"/>
     <use style="stroke:#000000;" x="473.859088943" xlink:href="#m4eef772c50" y="108.342438769"/>
     <use style="stroke:#000000;" x="444.058915319" xlink:href="#m4eef772c50" y="106.224910364"/>
     <use style="stroke:#000000;" x="270.069300992" xlink:href="#m4eef772c50" y="71.6952023303"/>
     <use style="stroke:#000000;" x="266.731495686" xlink:href="#m4eef772c50" y="69.2336186946"/>
     <use style="stroke:#000000;" x="437.762388687" xlink:href="#m4eef772c50" y="95.2181575539"/>
     <use style="stroke:#000000;" x="495.310306333" xlink:href="#m4eef772c50" y="131.53928154"/>
     <use style="stroke:#000000;" x="415.364461737" xlink:href="#m4eef772c50" y="86.3037230897"/>
     <use style="stroke:#000000;" x="450.004057081" xlink:href="#m4eef772c50" y="98.7788069325"/>
     <use style="stroke:#000000;" x="431.157376889" xlink:href="#m4eef772c50" y="91.9715752558"/>
     <use style="stroke:#000000;" x="428.981049695" xlink:href="#m4eef772c50" y="89.442864884"/>
     <use style="stroke:#000000;" x="411.35568731" xlink:href="#m4eef772c50" y="91.8610294681"/>
     <use style="stroke:#000000;" x="462.897155536" xlink:href="#m4eef772c50" y="102.204149303"/>
     <use style="stroke:#000000;" x="348.159370326" xlink:href="#m4eef772c50" y="100.063023669"/>
     <use style="stroke:#000000;" x="394.883675629" xlink:href="#m4eef772c50" y="83.655883822"/>
     <use style="stroke:#000000;" x="418.086303864" xlink:href="#m4eef772c50" y="99.7455355527"/>
     <use style="stroke:#000000;" x="417.897869217" xlink:href="#m4eef772c50" y="97.7308097082"/>
     <use style="stroke:#000000;" x="304.079849332" xlink:href="#m4eef772c50" y="72.1895583847"/>
     <use style="stroke:#000000;" x="367.802276531" xlink:href="#m4eef772c50" y="88.7626226187"/>
     <use style="stroke:#000000;" x="456.299666802" xlink:href="#m4eef772c50" y="99.7512643354"/>
     <use style="stroke:#000000;" x="430.957007102" xlink:href="#m4eef772c50" y="105.223708357"/>
     <use style="stroke:#000000;" x="437.214631829" xlink:href="#m4eef772c50" y="104.742975481"/>
     <use style="stroke:#000000;" x="368.962669817" xlink:href="#m4eef772c50" y="79.2341764529"/>
     <use style="stroke:#000000;" x="446.924891165" xlink:href="#m4eef772c50" y="111.287033357"/>
     <use style="stroke:#000000;" x="472.67685246" xlink:href="#m4eef772c50" y="109.400660992"/>
     <use style="stroke:#000000;" x="488.849329037" xlink:href="#m4eef772c50" y="122.904256408"/>
     <use style="stroke:#000000;" x="401.808537854" xlink:href="#m4eef772c50" y="104.940954506"/>
    </g>
   </g>
   <g id="PathCollection_2">
    <defs>
     <path d="M 0 1.936492 
C 0.513564 1.936492 1.006162 1.732451 1.369306 1.369306 
C 1.732451 1.006162 1.936492 0.513564 1.936492 0 
C 1.936492 -0.513564 1.732451 -1.006162 1.369306 -1.369306 
C 1.006162 -1.732451 0.513564 -1.936492 0 -1.936492 
C -0.513564 -1.936492 -1.006162 -1.732451 -1.369306 -1.369306 
C -1.732451 -1.006162 -1.936492 -0.513564 -1.936492 0 
C -1.936492 0.513564 -1.732451 1.006162 -1.369306 1.369306 
C -1.006162 1.732451 -0.513564 1.936492 0 1.936492 
z
" id="ma582ec87e2" style="stroke:#000000;"/>
    </defs>
    <g clip-path="url(#p0bfee181f9)">
     <use style="fill:#0000ff;stroke:#000000;" x="484.811969425" xlink:href="#ma582ec87e2" y="116.355815368"/>
     <use style="fill:#0000ff;stroke:#000000;" x="402.654890163" xlink:href="#ma582ec87e2" y="82.6473572758"/>
     <use style="fill:#0000ff;stroke:#000000;" x="485.358202495" xlink:href="#ma582ec87e2" y="117.618060563"/>
     <use style="fill:#0000ff;stroke:#000000;" x="430.470569531" xlink:href="#ma582ec87e2" y="89.6806021417"/>
     <use style="fill:#0000ff;stroke:#000000;" x="385.487360306" xlink:href="#ma582ec87e2" y="79.2158665574"/>
     <use style="fill:#0000ff;stroke:#000000;" x="315.85460789" xlink:href="#ma582ec87e2" y="70.4632033193"/>
     <use style="fill:#0000ff;stroke:#000000;" x="365.077059353" xlink:href="#ma582ec87e2" y="75.8399914878"/>
     <use style="fill:#0000ff;stroke:#000000;" x="469.465199317" xlink:href="#ma582ec87e2" y="105.409954747"/>
     <use style="fill:#0000ff;stroke:#000000;" x="444.96444758" xlink:href="#ma582ec87e2" y="94.4811978577"/>
     <use style="fill:#0000ff;stroke:#000000;" x="492.732284387" xlink:href="#ma582ec87e2" y="126.494578516"/>
     <use style="fill:#0000ff;stroke:#000000;" x="443.435575444" xlink:href="#ma582ec87e2" y="94.0318259709"/>
     <use style="fill:#0000ff;stroke:#000000;" x="462.579300351" xlink:href="#ma582ec87e2" y="101.907233575"/>
     <use style="fill:#0000ff;stroke:#000000;" x="455.999209557" xlink:href="#ma582ec87e2" y="98.9082898096"/>
     <use style="fill:#0000ff;stroke:#000000;" x="408.823078293" xlink:href="#ma582ec87e2" y="84.4882316197"/>
     <use style="fill:#0000ff;stroke:#000000;" x="416.877716377" xlink:href="#ma582ec87e2" y="86.1005290887"/>
     <use style="fill:#0000ff;stroke:#000000;" x="429.043205014" xlink:href="#ma582ec87e2" y="89.2628878143"/>
     <use style="fill:#0000ff;stroke:#000000;" x="400.110280945" xlink:href="#ma582ec87e2" y="82.256603974"/>
     <use style="fill:#0000ff;stroke:#000000;" x="241.385309441" xlink:href="#ma582ec87e2" y="66.73346981"/>
     <use style="fill:#0000ff;stroke:#000000;" x="470.700381164" xlink:href="#ma582ec87e2" y="106.023862735"/>
     <use style="fill:#0000ff;stroke:#000000;" x="437.360999571" xlink:href="#ma582ec87e2" y="91.8035320907"/>
     <use style="fill:#0000ff;stroke:#000000;" x="486.362401117" xlink:href="#ma582ec87e2" y="118.556354843"/>
     <use style="fill:#0000ff;stroke:#000000;" x="467.055210234" xlink:href="#ma582ec87e2" y="104.003666147"/>
     <use style="fill:#0000ff;stroke:#000000;" x="476.665322156" xlink:href="#ma582ec87e2" y="110.353726462"/>
     <use style="fill:#0000ff;stroke:#000000;" x="473.015307606" xlink:href="#ma582ec87e2" y="107.408946152"/>
     <use style="fill:#0000ff;stroke:#000000;" x="388.809665089" xlink:href="#ma582ec87e2" y="79.8379802703"/>
     <use style="fill:#0000ff;stroke:#000000;" x="480.114089153" xlink:href="#ma582ec87e2" y="112.494935741"/>
     <use style="fill:#0000ff;stroke:#000000;" x="375.175285296" xlink:href="#ma582ec87e2" y="77.4187442337"/>
     <use style="fill:#0000ff;stroke:#000000;" x="494.844243139" xlink:href="#ma582ec87e2" y="130.343664566"/>
     <use style="fill:#0000ff;stroke:#000000;" x="468.311213067" xlink:href="#ma582ec87e2" y="104.896935011"/>
     <use style="fill:#0000ff;stroke:#000000;" x="348.39237325" xlink:href="#ma582ec87e2" y="73.3887704103"/>
     <use style="fill:#0000ff;stroke:#000000;" x="497.024784794" xlink:href="#ma582ec87e2" y="139.224269198"/>
     <use style="fill:#0000ff;stroke:#000000;" x="422.022932406" xlink:href="#ma582ec87e2" y="87.3714658421"/>
     <use style="fill:#0000ff;stroke:#000000;" x="473.398304989" xlink:href="#ma582ec87e2" y="107.684722822"/>
     <use style="fill:#0000ff;stroke:#000000;" x="489.057301517" xlink:href="#ma582ec87e2" y="121.344639416"/>
     <use style="fill:#0000ff;stroke:#000000;" x="369.278984273" xlink:href="#ma582ec87e2" y="76.6662178514"/>
     <use style="fill:#0000ff;stroke:#000000;" x="425.86243781" xlink:href="#ma582ec87e2" y="88.3650900356"/>
     <use style="fill:#0000ff;stroke:#000000;" x="434.441133092" xlink:href="#ma582ec87e2" y="90.8844087414"/>
     <use style="fill:#0000ff;stroke:#000000;" x="490.969140439" xlink:href="#ma582ec87e2" y="124.052393033"/>
     <use style="fill:#0000ff;stroke:#000000;" x="496.18278725" xlink:href="#ma582ec87e2" y="134.746015384"/>
     <use style="fill:#0000ff;stroke:#000000;" x="377.735330451" xlink:href="#ma582ec87e2" y="78.1436061916"/>
     <use style="fill:#0000ff;stroke:#000000;" x="298.937202353" xlink:href="#ma582ec87e2" y="69.0765075221"/>
     <use style="fill:#0000ff;stroke:#000000;" x="405.932861528" xlink:href="#ma582ec87e2" y="83.9336883099"/>
     <use style="fill:#0000ff;stroke:#000000;" x="450.095434466" xlink:href="#ma582ec87e2" y="96.4745998888"/>
     <use style="fill:#0000ff;stroke:#000000;" x="370.792147068" xlink:href="#ma582ec87e2" y="76.6860832965"/>
     <use style="fill:#0000ff;stroke:#000000;" x="423.357500412" xlink:href="#ma582ec87e2" y="87.6960263856"/>
     <use style="fill:#0000ff;stroke:#000000;" x="387.523970232" xlink:href="#ma582ec87e2" y="79.6674434037"/>
     <use style="fill:#0000ff;stroke:#000000;" x="336.724406301" xlink:href="#ma582ec87e2" y="72.5260192025"/>
     <use style="fill:#0000ff;stroke:#000000;" x="397.044063182" xlink:href="#ma582ec87e2" y="81.5490634619"/>
     <use style="fill:#0000ff;stroke:#000000;" x="483.911426225" xlink:href="#ma582ec87e2" y="115.566930132"/>
     <use style="fill:#0000ff;stroke:#000000;" x="495.566772858" xlink:href="#ma582ec87e2" y="132.237064899"/>
     <use style="fill:#0000ff;stroke:#000000;" x="478.068772186" xlink:href="#ma582ec87e2" y="110.789859799"/>
     <use style="fill:#0000ff;stroke:#000000;" x="481.437957941" xlink:href="#ma582ec87e2" y="113.356843386"/>
     <use style="fill:#0000ff;stroke:#000000;" x="357.865568319" xlink:href="#ma582ec87e2" y="75.162300952"/>
     <use style="fill:#0000ff;stroke:#000000;" x="488.203349922" xlink:href="#ma582ec87e2" y="120.836511125"/>
     <use style="fill:#0000ff;stroke:#000000;" x="351.710070389" xlink:href="#ma582ec87e2" y="73.8373715713"/>
     <use style="fill:#0000ff;stroke:#000000;" x="418.93696816" xlink:href="#ma582ec87e2" y="86.4973077706"/>
     <use style="fill:#0000ff;stroke:#000000;" x="459.549150948" xlink:href="#ma582ec87e2" y="100.694364239"/>
     <use style="fill:#0000ff;stroke:#000000;" x="419.556838526" xlink:href="#ma582ec87e2" y="86.6890185133"/>
     <use style="fill:#0000ff;stroke:#000000;" x="344.318987275" xlink:href="#ma582ec87e2" y="72.9154305079"/>
     <use style="fill:#0000ff;stroke:#000000;" x="439.051892527" xlink:href="#ma582ec87e2" y="92.6227999716"/>
    </g>
   </g>
   <g id="patch_3">
    <path d="M 72 388.8 
L 518.4 388.8 
" style="fill:none;stroke:#000000;stroke-linecap:square;stroke-linejoin:miter;"/>
   </g>
   <g id="patch_4">
    <path d="M 72 43.2 
L 518.4 43.2 
" style="fill:none;stroke:#000000;stroke-linecap:square;stroke-linejoin:miter;"/>
   </g>
   <g id="patch_5">
    <path d="M 72 388.8 
L 72 43.2 
" style="fill:none;stroke:#000000;stroke-linecap:square;stroke-linejoin:miter;"/>
   </g>
   <g id="patch_6">
    <path d="M 518.4 388.8 
L 518.4 43.2 
" style="fill:none;stroke:#000000;stroke-linecap:square;stroke-linejoin:miter;"/>
   </g>
   <g id="matplotlib.axis_1">
    <g id="xtick_1">
     <g id="line2d_1">
      <defs>
       <path d="M 0 0 
L 0 -4 
" id="m97b3b85dc3" style="stroke:#000000;stroke-width:0.5;"/>
      </defs>
      <g>
       <use style="stroke:#000000;stroke-width:0.5;" x="72.0" xlink:href="#m97b3b85dc3" y="388.8"/>
      </g>
     </g>
     <g id="line2d_2">
      <defs>
       <path d="M 0 0 
L 0 4 
" id="mbf3d80d87b" style="stroke:#000000;stroke-width:0.5;"/>
      </defs>
      <g>
       <use style="stroke:#000000;stroke-width:0.5;" x="72.0" xlink:href="#mbf3d80d87b" y="43.2"/>
      </g>
     </g>
     <g id="text_1">
      <!-- −200 -->
      <defs>
       <path d="M 10.59375 35.5 
L 73.1875 35.5 
L 73.1875 27.203125 
L 10.59375 27.203125 
z
" id="BitstreamVeraSans-Roman-2212"/>
       <path d="M 19.1875 8.296875 
L 53.609375 8.296875 
L 53.609375 0 
L 7.328125 0 
L 7.328125 8.296875 
Q 12.9375 14.109375 22.625 23.890625 
Q 32.328125 33.6875 34.8125 36.53125 
Q 39.546875 41.84375 41.421875 45.53125 
Q 43.3125 49.21875 43.3125 52.78125 
Q 43.3125 58.59375 39.234375 62.25 
Q 35.15625 65.921875 28.609375 65.921875 
Q 23.96875 65.921875 18.8125 64.3125 
Q 13.671875 62.703125 7.8125 59.421875 
L 7.8125 69.390625 
Q 13.765625 71.78125 18.9375 73 
Q 24.125 74.21875 28.421875 74.21875 
Q 39.75 74.21875 46.484375 68.546875 
Q 53.21875 62.890625 53.21875 53.421875 
Q 53.21875 48.921875 51.53125 44.890625 
Q 49.859375 40.875 45.40625 35.40625 
Q 44.1875 33.984375 37.640625 27.21875 
Q 31.109375 20.453125 19.1875 8.296875 
" id="BitstreamVeraSans-Roman-32"/>
       <path d="M 31.78125 66.40625 
Q 24.171875 66.40625 20.328125 58.90625 
Q 16.5 51.421875 16.5 36.375 
Q 16.5 21.390625 20.328125 13.890625 
Q 24.171875 6.390625 31.78125 6.390625 
Q 39.453125 6.390625 43.28125 13.890625 
Q 47.125 21.390625 47.125 36.375 
Q 47.125 51.421875 43.28125 58.90625 
Q 39.453125 66.40625 31.78125 66.40625 
M 31.78125 74.21875 
Q 44.046875 74.21875 50.515625 64.515625 
Q 56.984375 54.828125 56.984375 36.375 
Q 56.984375 17.96875 50.515625 8.265625 
Q 44.046875 -1.421875 31.78125 -1.421875 
Q 19.53125 -1.421875 13.0625 8.265625 
Q 6.59375 17.96875 6.59375 36.375 
Q 6.59375 54.828125 13.0625 64.515625 
Q 19.53125 74.21875 31.78125 74.21875 
" id="BitstreamVeraSans-Roman-30"/>
      </defs>
      <g transform="translate(55.5196875 401.918125)scale(0.12 -0.12)">
       <use xlink:href="#BitstreamVeraSans-Roman-2212"/>
       <use x="83.7890625" xlink:href="#BitstreamVeraSans-Roman-32"/>
       <use x="147.412109375" xlink:href="#BitstreamVeraSans-Roman-30"/>
       <use x="211.03515625" xlink:href="#BitstreamVeraSans-Roman-30"/>
      </g>
     </g>
    </g>
    <g id="xtick_2">
     <g id="line2d_3">
      <g>
       <use style="stroke:#000000;stroke-width:0.5;" x="178.285714286" xlink:href="#m97b3b85dc3" y="388.8"/>
      </g>
     </g>
     <g id="line2d_4">
      <g>
       <use style="stroke:#000000;stroke-width:0.5;" x="178.285714286" xlink:href="#mbf3d80d87b" y="43.2"/>
      </g>
     </g>
     <g id="text_2">
      <!-- −150 -->
      <defs>
       <path d="M 12.40625 8.296875 
L 28.515625 8.296875 
L 28.515625 63.921875 
L 10.984375 60.40625 
L 10.984375 69.390625 
L 28.421875 72.90625 
L 38.28125 72.90625 
L 38.28125 8.296875 
L 54.390625 8.296875 
L 54.390625 0 
L 12.40625 0 
z
" id="BitstreamVeraSans-Roman-31"/>
       <path d="M 10.796875 72.90625 
L 49.515625 72.90625 
L 49.515625 64.59375 
L 19.828125 64.59375 
L 19.828125 46.734375 
Q 21.96875 47.46875 24.109375 47.828125 
Q 26.265625 48.1875 28.421875 48.1875 
Q 40.625 48.1875 47.75 41.5 
Q 54.890625 34.8125 54.890625 23.390625 
Q 54.890625 11.625 47.5625 5.09375 
Q 40.234375 -1.421875 26.90625 -1.421875 
Q 22.3125 -1.421875 17.546875 -0.640625 
Q 12.796875 0.140625 7.71875 1.703125 
L 7.71875 11.625 
Q 12.109375 9.234375 16.796875 8.0625 
Q 21.484375 6.890625 26.703125 6.890625 
Q 35.15625 6.890625 40.078125 11.328125 
Q 45.015625 15.765625 45.015625 23.390625 
Q 45.015625 31 40.078125 35.4375 
Q 35.15625 39.890625 26.703125 39.890625 
Q 22.75 39.890625 18.8125 39.015625 
Q 14.890625 38.140625 10.796875 36.28125 
z
" id="BitstreamVeraSans-Roman-35"/>
      </defs>
      <g transform="translate(161.805401786 401.918125)scale(0.12 -0.12)">
       <use xlink:href="#BitstreamVeraSans-Roman-2212"/>
       <use x="83.7890625" xlink:href="#BitstreamVeraSans-Roman-31"/>
       <use x="147.412109375" xlink:href="#BitstreamVeraSans-Roman-35"/>
       <use x="211.03515625" xlink:href="#BitstreamVeraSans-Roman-30"/>
      </g>
     </g>
    </g>
    <g id="xtick_3">
     <g id="line2d_5">
      <g>
       <use style="stroke:#000000;stroke-width:0.5;" x="284.571428571" xlink:href="#m97b3b85dc3" y="388.8"/>
      </g>
     </g>
     <g id="line2d_6">
      <g>
       <use style="stroke:#000000;stroke-width:0.5;" x="284.571428571" xlink:href="#mbf3d80d87b" y="43.2"/>
      </g>
     </g>
     <g id="text_3">
      <!-- −100 -->
      <g transform="translate(268.091116071 401.918125)scale(0.12 -0.12)">
       <use xlink:href="#BitstreamVeraSans-Roman-2212"/>
       <use x="83.7890625" xlink:href="#BitstreamVeraSans-Roman-31"/>
       <use x="147.412109375" xlink:href="#BitstreamVeraSans-Roman-30"/>
       <use x="211.03515625" xlink:href="#BitstreamVeraSans-Roman-30"/>
      </g>
     </g>
    </g>
    <g id="xtick_4">
     <g id="line2d_7">
      <g>
       <use style="stroke:#000000;stroke-width:0.5;" x="390.857142857" xlink:href="#m97b3b85dc3" y="388.8"/>
      </g>
     </g>
     <g id="line2d_8">
      <g>
       <use style="stroke:#000000;stroke-width:0.5;" x="390.857142857" xlink:href="#mbf3d80d87b" y="43.2"/>
      </g>
     </g>
     <g id="text_4">
      <!-- −50 -->
      <g transform="translate(378.194330357 401.918125)scale(0.12 -0.12)">
       <use xlink:href="#BitstreamVeraSans-Roman-2212"/>
       <use x="83.7890625" xlink:href="#BitstreamVeraSans-Roman-35"/>
       <use x="147.412109375" xlink:href="#BitstreamVeraSans-Roman-30"/>
      </g>
     </g>
    </g>
    <g id="xtick_5">
     <g id="line2d_9">
      <g>
       <use style="stroke:#000000;stroke-width:0.5;" x="497.142857143" xlink:href="#m97b3b85dc3" y="388.8"/>
      </g>
     </g>
     <g id="line2d_10">
      <g>
       <use style="stroke:#000000;stroke-width:0.5;" x="497.142857143" xlink:href="#mbf3d80d87b" y="43.2"/>
      </g>
     </g>
     <g id="text_5">
      <!-- 0 -->
      <g transform="translate(493.325357143 401.918125)scale(0.12 -0.12)">
       <use xlink:href="#BitstreamVeraSans-Roman-30"/>
      </g>
     </g>
    </g>
   </g>
   <g id="matplotlib.axis_2">
    <g id="ytick_1">
     <g id="line2d_11">
      <defs>
       <path d="M 0 0 
L 4 0 
" id="m218e81c3b9" style="stroke:#000000;stroke-width:0.5;"/>
      </defs>
      <g>
       <use style="stroke:#000000;stroke-width:0.5;" x="72.0" xlink:href="#m218e81c3b9" y="388.8"/>
      </g>
     </g>
     <g id="line2d_12">
      <defs>
       <path d="M 0 0 
L -4 0 
" id="me506f488ff" style="stroke:#000000;stroke-width:0.5;"/>
      </defs>
      <g>
       <use style="stroke:#000000;stroke-width:0.5;" x="518.4" xlink:href="#me506f488ff" y="388.8"/>
      </g>
     </g>
     <g id="text_6">
      <!-- −200 -->
      <g transform="translate(35.039375 392.11125)scale(0.12 -0.12)">
       <use xlink:href="#BitstreamVeraSans-Roman-2212"/>
       <use x="83.7890625" xlink:href="#BitstreamVeraSans-Roman-32"/>
       <use x="147.412109375" xlink:href="#BitstreamVeraSans-Roman-30"/>
       <use x="211.03515625" xlink:href="#BitstreamVeraSans-Roman-30"/>
      </g>
     </g>
    </g>
    <g id="ytick_2">
     <g id="line2d_13">
      <g>
       <use style="stroke:#000000;stroke-width:0.5;" x="72.0" xlink:href="#m218e81c3b9" y="306.514285714"/>
      </g>
     </g>
     <g id="line2d_14">
      <g>
       <use style="stroke:#000000;stroke-width:0.5;" x="518.4" xlink:href="#me506f488ff" y="306.514285714"/>
      </g>
     </g>
     <g id="text_7">
      <!-- −150 -->
      <g transform="translate(35.039375 309.825535714)scale(0.12 -0.12)">
       <use xlink:href="#BitstreamVeraSans-Roman-2212"/>
       <use x="83.7890625" xlink:href="#BitstreamVeraSans-Roman-31"/>
       <use x="147.412109375" xlink:href="#BitstreamVeraSans-Roman-35"/>
       <use x="211.03515625" xlink:href="#BitstreamVeraSans-Roman-30"/>
      </g>
     </g>
    </g>
    <g id="ytick_3">
     <g id="line2d_15">
      <g>
       <use style="stroke:#000000;stroke-width:0.5;" x="72.0" xlink:href="#m218e81c3b9" y="224.228571429"/>
      </g>
     </g>
     <g id="line2d_16">
      <g>
       <use style="stroke:#000000;stroke-width:0.5;" x="518.4" xlink:href="#me506f488ff" y="224.228571429"/>
      </g>
     </g>
     <g id="text_8">
      <!-- −100 -->
      <g transform="translate(35.039375 227.539821429)scale(0.12 -0.12)">
       <use xlink:href="#BitstreamVeraSans-Roman-2212"/>
       <use x="83.7890625" xlink:href="#BitstreamVeraSans-Roman-31"/>
       <use x="147.412109375" xlink:href="#BitstreamVeraSans-Roman-30"/>
       <use x="211.03515625" xlink:href="#BitstreamVeraSans-Roman-30"/>
      </g>
     </g>
    </g>
    <g id="ytick_4">
     <g id="line2d_17">
      <g>
       <use style="stroke:#000000;stroke-width:0.5;" x="72.0" xlink:href="#m218e81c3b9" y="141.942857143"/>
      </g>
     </g>
     <g id="line2d_18">
      <g>
       <use style="stroke:#000000;stroke-width:0.5;" x="518.4" xlink:href="#me506f488ff" y="141.942857143"/>
      </g>
     </g>
     <g id="text_9">
      <!-- −50 -->
      <g transform="translate(42.674375 145.254107143)scale(0.12 -0.12)">
       <use xlink:href="#BitstreamVeraSans-Roman-2212"/>
       <use x="83.7890625" xlink:href="#BitstreamVeraSans-Roman-35"/>
       <use x="147.412109375" xlink:href="#BitstreamVeraSans-Roman-30"/>
      </g>
     </g>
    </g>
    <g id="ytick_5">
     <g id="line2d_19">
      <g>
       <use style="stroke:#000000;stroke-width:0.5;" x="72.0" xlink:href="#m218e81c3b9" y="59.6571428571"/>
      </g>
     </g>
     <g id="line2d_20">
      <g>
       <use style="stroke:#000000;stroke-width:0.5;" x="518.4" xlink:href="#me506f488ff" y="59.6571428571"/>
      </g>
     </g>
     <g id="text_10">
      <!-- 0 -->
      <g transform="translate(60.365 62.9683928571)scale(0.12 -0.12)">
       <use xlink:href="#BitstreamVeraSans-Roman-30"/>
      </g>
     </g>
    </g>
   </g>
  </g>
 </g>
 <defs>
  <clipPath id="p0bfee181f9">
   <rect height="345.6" width="446.4" x="72.0" y="43.2"/>
  </clipPath>
 </defs>
</svg>
