<?xml version="1.0" encoding="utf-8" standalone="no"?>
<!DOCTYPE svg PUBLIC "-//W3C//DTD SVG 1.1//EN"
  "http://www.w3.org/Graphics/SVG/1.1/DTD/svg11.dtd">
<!-- Created with matplotlib (http://matplotlib.org/) -->
<svg height="432pt" version="1.1" viewBox="0 0 576 432" width="576pt" xmlns="http://www.w3.org/2000/svg" xmlns:xlink="http://www.w3.org/1999/xlink">
 <defs>
  <style type="text/css">
*{stroke-linecap:butt;stroke-linejoin:round;stroke-miterlimit:100000;}
  </style>
 </defs>
 <g id="figure_1">
  <g id="patch_1">
   <path d="M 0 432 
L 576 432 
L 576 0 
L 0 0 
z
" style="fill:#ffffff;"/>
  </g>
  <g id="axes_1">
   <g id="patch_2">
    <path d="M 72 388.8 
L 518.4 388.8 
L 518.4 43.2 
L 72 43.2 
z
" style="fill:#ffffff;"/>
   </g>
   <g id="PathCollection_1">
    <defs>
     <path d="M 0 1.118034 
C 0.296506 1.118034 0.580908 1.000231 0.790569 0.790569 
C 1.000231 0.580908 1.118034 0.296506 1.118034 0 
C 1.118034 -0.296506 1.000231 -0.580908 0.790569 -0.790569 
C 0.580908 -1.000231 0.296506 -1.118034 0 -1.118034 
C -0.296506 -1.118034 -0.580908 -1.000231 -0.790569 -0.790569 
C -1.000231 -0.580908 -1.118034 -0.296506 -1.118034 0 
C -1.118034 0.296506 -1.000231 0.580908 -0.790569 0.790569 
C -0.580908 1.000231 -0.296506 1.118034 0 1.118034 
z
" id="ma47f232633" style="stroke:#000000;"/>
    </defs>
    <g clip-path="url(#paa5c931f86)">
     <use style="stroke:#000000;" x="231.008854109" xlink:href="#ma47f232633" y="122.930206359"/>
     <use style="stroke:#000000;" x="231.008854109" xlink:href="#ma47f232633" y="122.930206359"/>
     <use style="stroke:#000000;" x="231.008854109" xlink:href="#ma47f232633" y="122.930206359"/>
     <use style="stroke:#000000;" x="231.008854109" xlink:href="#ma47f232633" y="122.930206359"/>
     <use style="stroke:#000000;" x="410.862320479" xlink:href="#ma47f232633" y="193.216736164"/>
     <use style="stroke:#000000;" x="432.967531557" xlink:href="#ma47f232633" y="214.344336502"/>
     <use style="stroke:#000000;" x="231.008854109" xlink:href="#ma47f232633" y="122.930206359"/>
     <use style="stroke:#000000;" x="231.008854109" xlink:href="#ma47f232633" y="122.930206359"/>
     <use style="stroke:#000000;" x="231.008854109" xlink:href="#ma47f232633" y="122.930206359"/>
     <use style="stroke:#000000;" x="385.628935425" xlink:href="#ma47f232633" y="176.799972194"/>
     <use style="stroke:#000000;" x="231.008854109" xlink:href="#ma47f232633" y="122.930206359"/>
     <use style="stroke:#000000;" x="231.008854109" xlink:href="#ma47f232633" y="122.930206359"/>
     <use style="stroke:#000000;" x="482.618190934" xlink:href="#ma47f232633" y="293.763503632"/>
     <use style="stroke:#000000;" x="231.008854109" xlink:href="#ma47f232633" y="122.930206359"/>
     <use style="stroke:#000000;" x="371.196270785" xlink:href="#ma47f232633" y="169.393827434"/>
     <use style="stroke:#000000;" x="231.008854109" xlink:href="#ma47f232633" y="122.930206359"/>
     <use style="stroke:#000000;" x="231.008854109" xlink:href="#ma47f232633" y="122.930206359"/>
     <use style="stroke:#000000;" x="231.008854109" xlink:href="#ma47f232633" y="122.930206359"/>
     <use style="stroke:#000000;" x="420.737807711" xlink:href="#ma47f232633" y="201.495654187"/>
     <use style="stroke:#000000;" x="483.478227702" xlink:href="#ma47f232633" y="298.799037157"/>
     <use style="stroke:#000000;" x="487.635380744" xlink:href="#ma47f232633" y="324.177076704"/>
     <use style="stroke:#000000;" x="231.008854109" xlink:href="#ma47f232633" y="122.930206359"/>
     <use style="stroke:#000000;" x="231.008854109" xlink:href="#ma47f232633" y="122.930206359"/>
     <use style="stroke:#000000;" x="231.008854109" xlink:href="#ma47f232633" y="122.930206359"/>
     <use style="stroke:#000000;" x="479.854261126" xlink:href="#ma47f232633" y="283.590945449"/>
     <use style="stroke:#000000;" x="485.467572814" xlink:href="#ma47f232633" y="304.909960617"/>
     <use style="stroke:#000000;" x="477.961221679" xlink:href="#ma47f232633" y="277.726583792"/>
     <use style="stroke:#000000;" x="164.864515624" xlink:href="#ma47f232633" y="119.812984958"/>
     <use style="stroke:#000000;" x="421.930117617" xlink:href="#ma47f232633" y="202.290695823"/>
     <use style="stroke:#000000;" x="350.702511029" xlink:href="#ma47f232633" y="158.961732326"/>
     <use style="stroke:#000000;" x="161.693376946" xlink:href="#ma47f232633" y="116.20723007"/>
     <use style="stroke:#000000;" x="413.203407968" xlink:href="#ma47f232633" y="196.144591048"/>
     <use style="stroke:#000000;" x="431.157400955" xlink:href="#ma47f232633" y="209.931943971"/>
     <use style="stroke:#000000;" x="468.960747751" xlink:href="#ma47f232633" y="257.917404798"/>
     <use style="stroke:#000000;" x="446.860761037" xlink:href="#ma47f232633" y="226.400452427"/>
     <use style="stroke:#000000;" x="181.985876638" xlink:href="#ma47f232633" y="120.77208056"/>
     <use style="stroke:#000000;" x="344.413634956" xlink:href="#ma47f232633" y="156.663898641"/>
     <use style="stroke:#000000;" x="486.527495988" xlink:href="#ma47f232633" y="315.036341923"/>
     <use style="stroke:#000000;" x="301.479670372" xlink:href="#ma47f232633" y="140.414419045"/>
     <use style="stroke:#000000;" x="384.681934604" xlink:href="#ma47f232633" y="176.593231041"/>
     <use style="stroke:#000000;" x="402.697777332" xlink:href="#ma47f232633" y="188.417107982"/>
     <use style="stroke:#000000;" x="451.460069163" xlink:href="#ma47f232633" y="235.912163173"/>
     <use style="stroke:#000000;" x="485.370822621" xlink:href="#ma47f232633" y="304.760295219"/>
     <use style="stroke:#000000;" x="233.186479304" xlink:href="#ma47f232633" y="123.107750427"/>
     <use style="stroke:#000000;" x="369.609083651" xlink:href="#ma47f232633" y="168.099186701"/>
     <use style="stroke:#000000;" x="294.077614331" xlink:href="#ma47f232633" y="137.896690099"/>
     <use style="stroke:#000000;" x="344.436978876" xlink:href="#ma47f232633" y="158.069354686"/>
     <use style="stroke:#000000;" x="344.436978876" xlink:href="#ma47f232633" y="158.069354686"/>
     <use style="stroke:#000000;" x="334.871101646" xlink:href="#ma47f232633" y="153.360471543"/>
     <use style="stroke:#000000;" x="439.606509702" xlink:href="#ma47f232633" y="218.417144045"/>
     <use style="stroke:#000000;" x="382.99128817" xlink:href="#ma47f232633" y="175.262728965"/>
     <use style="stroke:#000000;" x="434.317084329" xlink:href="#ma47f232633" y="215.198522084"/>
     <use style="stroke:#000000;" x="334.871101646" xlink:href="#ma47f232633" y="153.360471543"/>
     <use style="stroke:#000000;" x="391.158652166" xlink:href="#ma47f232633" y="180.541015114"/>
     <use style="stroke:#000000;" x="464.448272234" xlink:href="#ma47f232633" y="255.385794459"/>
     <use style="stroke:#000000;" x="488.115798169" xlink:href="#ma47f232633" y="324.995279526"/>
     <use style="stroke:#000000;" x="441.596576664" xlink:href="#ma47f232633" y="224.893143133"/>
     <use style="stroke:#000000;" x="312.296989119" xlink:href="#ma47f232633" y="144.004947341"/>
     <use style="stroke:#000000;" x="486.142056895" xlink:href="#ma47f232633" y="312.968945763"/>
     <use style="stroke:#000000;" x="485.604153898" xlink:href="#ma47f232633" y="308.851020198"/>
     <use style="stroke:#000000;" x="294.100974803" xlink:href="#ma47f232633" y="137.854502882"/>
     <use style="stroke:#000000;" x="294.100974803" xlink:href="#ma47f232633" y="137.854502882"/>
     <use style="stroke:#000000;" x="294.100974803" xlink:href="#ma47f232633" y="137.854502882"/>
     <use style="stroke:#000000;" x="368.567338134" xlink:href="#ma47f232633" y="167.620564314"/>
     <use style="stroke:#000000;" x="392.100455675" xlink:href="#ma47f232633" y="195.655242617"/>
     <use style="stroke:#000000;" x="451.116619702" xlink:href="#ma47f232633" y="245.076625317"/>
     <use style="stroke:#000000;" x="432.367337704" xlink:href="#ma47f232633" y="212.428170007"/>
     <use style="stroke:#000000;" x="294.100974803" xlink:href="#ma47f232633" y="137.854502882"/>
     <use style="stroke:#000000;" x="294.100974803" xlink:href="#ma47f232633" y="137.854502882"/>
     <use style="stroke:#000000;" x="364.246959498" xlink:href="#ma47f232633" y="180.32516068"/>
     <use style="stroke:#000000;" x="253.964046071" xlink:href="#ma47f232633" y="138.518182934"/>
     <use style="stroke:#000000;" x="432.367337704" xlink:href="#ma47f232633" y="212.428170007"/>
     <use style="stroke:#000000;" x="403.94192191" xlink:href="#ma47f232633" y="188.657125795"/>
     <use style="stroke:#000000;" x="368.567338134" xlink:href="#ma47f232633" y="167.620564314"/>
     <use style="stroke:#000000;" x="134.540219414" xlink:href="#ma47f232633" y="118.088572376"/>
     <use style="stroke:#000000;" x="294.100974803" xlink:href="#ma47f232633" y="137.854502882"/>
     <use style="stroke:#000000;" x="292.627528146" xlink:href="#ma47f232633" y="143.683110755"/>
     <use style="stroke:#000000;" x="294.100974803" xlink:href="#ma47f232633" y="137.854502882"/>
     <use style="stroke:#000000;" x="358.755191733" xlink:href="#ma47f232633" y="175.860431314"/>
     <use style="stroke:#000000;" x="462.501250489" xlink:href="#ma47f232633" y="258.812894717"/>
     <use style="stroke:#000000;" x="430.719937894" xlink:href="#ma47f232633" y="210.045471422"/>
     <use style="stroke:#000000;" x="397.740807884" xlink:href="#ma47f232633" y="186.970172062"/>
     <use style="stroke:#000000;" x="294.100974803" xlink:href="#ma47f232633" y="137.854502882"/>
     <use style="stroke:#000000;" x="294.100974803" xlink:href="#ma47f232633" y="137.854502882"/>
     <use style="stroke:#000000;" x="393.487443934" xlink:href="#ma47f232633" y="181.674195885"/>
     <use style="stroke:#000000;" x="415.022046705" xlink:href="#ma47f232633" y="196.389910603"/>
     <use style="stroke:#000000;" x="387.151402442" xlink:href="#ma47f232633" y="177.65255397"/>
     <use style="stroke:#000000;" x="242.229983819" xlink:href="#ma47f232633" y="128.817459937"/>
     <use style="stroke:#000000;" x="383.610367814" xlink:href="#ma47f232633" y="184.152098362"/>
     <use style="stroke:#000000;" x="373.228453453" xlink:href="#ma47f232633" y="187.878735955"/>
    </g>
   </g>
   <g id="PathCollection_2">
    <defs>
     <path d="M 0 1.936492 
C 0.513564 1.936492 1.006162 1.732451 1.369306 1.369306 
C 1.732451 1.006162 1.936492 0.513564 1.936492 0 
C 1.936492 -0.513564 1.732451 -1.006162 1.369306 -1.369306 
C 1.006162 -1.732451 0.513564 -1.936492 0 -1.936492 
C -0.513564 -1.936492 -1.006162 -1.732451 -1.369306 -1.369306 
C -1.732451 -1.006162 -1.936492 -0.513564 -1.936492 0 
C -1.936492 0.513564 -1.732451 1.006162 -1.369306 1.369306 
C -1.006162 1.732451 -0.513564 1.936492 0 1.936492 
z
" id="m55a045446e" style="stroke:#000000;"/>
    </defs>
    <g clip-path="url(#paa5c931f86)">
     <use style="fill:#0000ff;stroke:#000000;" x="231.008854109" xlink:href="#m55a045446e" y="122.930206359"/>
     <use style="fill:#0000ff;stroke:#000000;" x="231.008854109" xlink:href="#m55a045446e" y="122.930206359"/>
     <use style="fill:#0000ff;stroke:#000000;" x="231.008854109" xlink:href="#m55a045446e" y="122.930206359"/>
     <use style="fill:#0000ff;stroke:#000000;" x="231.008854109" xlink:href="#m55a045446e" y="122.930206359"/>
     <use style="fill:#0000ff;stroke:#000000;" x="410.862320479" xlink:href="#m55a045446e" y="193.216736164"/>
     <use style="fill:#0000ff;stroke:#000000;" x="432.967531557" xlink:href="#m55a045446e" y="214.344336502"/>
     <use style="fill:#0000ff;stroke:#000000;" x="231.008854109" xlink:href="#m55a045446e" y="122.930206359"/>
     <use style="fill:#0000ff;stroke:#000000;" x="231.008854109" xlink:href="#m55a045446e" y="122.930206359"/>
     <use style="fill:#0000ff;stroke:#000000;" x="231.008854109" xlink:href="#m55a045446e" y="122.930206359"/>
     <use style="fill:#0000ff;stroke:#000000;" x="385.628935425" xlink:href="#m55a045446e" y="176.799972194"/>
     <use style="fill:#0000ff;stroke:#000000;" x="231.008854109" xlink:href="#m55a045446e" y="122.930206359"/>
     <use style="fill:#0000ff;stroke:#000000;" x="231.008854109" xlink:href="#m55a045446e" y="122.930206359"/>
     <use style="fill:#0000ff;stroke:#000000;" x="482.618190934" xlink:href="#m55a045446e" y="293.763503632"/>
     <use style="fill:#0000ff;stroke:#000000;" x="231.008854109" xlink:href="#m55a045446e" y="122.930206359"/>
     <use style="fill:#0000ff;stroke:#000000;" x="371.196270785" xlink:href="#m55a045446e" y="169.393827434"/>
     <use style="fill:#0000ff;stroke:#000000;" x="231.008854109" xlink:href="#m55a045446e" y="122.930206359"/>
     <use style="fill:#0000ff;stroke:#000000;" x="231.008854109" xlink:href="#m55a045446e" y="122.930206359"/>
     <use style="fill:#0000ff;stroke:#000000;" x="231.008854109" xlink:href="#m55a045446e" y="122.930206359"/>
     <use style="fill:#0000ff;stroke:#000000;" x="420.737807711" xlink:href="#m55a045446e" y="201.495654187"/>
     <use style="fill:#0000ff;stroke:#000000;" x="483.478227702" xlink:href="#m55a045446e" y="298.799037157"/>
     <use style="fill:#0000ff;stroke:#000000;" x="487.635380744" xlink:href="#m55a045446e" y="324.177076704"/>
     <use style="fill:#0000ff;stroke:#000000;" x="231.008854109" xlink:href="#m55a045446e" y="122.930206359"/>
     <use style="fill:#0000ff;stroke:#000000;" x="231.008854109" xlink:href="#m55a045446e" y="122.930206359"/>
     <use style="fill:#0000ff;stroke:#000000;" x="231.008854109" xlink:href="#m55a045446e" y="122.930206359"/>
     <use style="fill:#0000ff;stroke:#000000;" x="479.854261126" xlink:href="#m55a045446e" y="283.590945449"/>
     <use style="fill:#0000ff;stroke:#000000;" x="485.467572814" xlink:href="#m55a045446e" y="304.909960617"/>
     <use style="fill:#0000ff;stroke:#000000;" x="477.961221679" xlink:href="#m55a045446e" y="277.726583792"/>
     <use style="fill:#0000ff;stroke:#000000;" x="164.864515624" xlink:href="#m55a045446e" y="119.812984958"/>
     <use style="fill:#0000ff;stroke:#000000;" x="421.930117617" xlink:href="#m55a045446e" y="202.290695823"/>
     <use style="fill:#0000ff;stroke:#000000;" x="350.702511029" xlink:href="#m55a045446e" y="158.961732326"/>
     <use style="fill:#0000ff;stroke:#000000;" x="161.693376946" xlink:href="#m55a045446e" y="116.20723007"/>
     <use style="fill:#0000ff;stroke:#000000;" x="413.203407968" xlink:href="#m55a045446e" y="196.144591048"/>
     <use style="fill:#0000ff;stroke:#000000;" x="431.157400955" xlink:href="#m55a045446e" y="209.931943971"/>
     <use style="fill:#0000ff;stroke:#000000;" x="468.960747751" xlink:href="#m55a045446e" y="257.917404798"/>
     <use style="fill:#0000ff;stroke:#000000;" x="446.860761037" xlink:href="#m55a045446e" y="226.400452427"/>
     <use style="fill:#0000ff;stroke:#000000;" x="181.985876638" xlink:href="#m55a045446e" y="120.77208056"/>
     <use style="fill:#0000ff;stroke:#000000;" x="344.413634956" xlink:href="#m55a045446e" y="156.663898641"/>
     <use style="fill:#0000ff;stroke:#000000;" x="486.527495988" xlink:href="#m55a045446e" y="315.036341923"/>
     <use style="fill:#0000ff;stroke:#000000;" x="301.479670372" xlink:href="#m55a045446e" y="140.414419045"/>
     <use style="fill:#0000ff;stroke:#000000;" x="384.681934604" xlink:href="#m55a045446e" y="176.593231041"/>
     <use style="fill:#0000ff;stroke:#000000;" x="402.697777332" xlink:href="#m55a045446e" y="188.417107982"/>
     <use style="fill:#0000ff;stroke:#000000;" x="451.460069163" xlink:href="#m55a045446e" y="235.912163173"/>
     <use style="fill:#0000ff;stroke:#000000;" x="485.370822621" xlink:href="#m55a045446e" y="304.760295219"/>
     <use style="fill:#0000ff;stroke:#000000;" x="233.186479304" xlink:href="#m55a045446e" y="123.107750427"/>
     <use style="fill:#0000ff;stroke:#000000;" x="369.609083651" xlink:href="#m55a045446e" y="168.099186701"/>
     <use style="fill:#0000ff;stroke:#000000;" x="294.077614331" xlink:href="#m55a045446e" y="137.896690099"/>
     <use style="fill:#0000ff;stroke:#000000;" x="344.436978876" xlink:href="#m55a045446e" y="158.069354686"/>
     <use style="fill:#0000ff;stroke:#000000;" x="344.436978876" xlink:href="#m55a045446e" y="158.069354686"/>
     <use style="fill:#0000ff;stroke:#000000;" x="334.871101646" xlink:href="#m55a045446e" y="153.360471543"/>
     <use style="fill:#0000ff;stroke:#000000;" x="439.606509702" xlink:href="#m55a045446e" y="218.417144045"/>
     <use style="fill:#0000ff;stroke:#000000;" x="382.99128817" xlink:href="#m55a045446e" y="175.262728965"/>
     <use style="fill:#0000ff;stroke:#000000;" x="434.317084329" xlink:href="#m55a045446e" y="215.198522084"/>
     <use style="fill:#0000ff;stroke:#000000;" x="334.871101646" xlink:href="#m55a045446e" y="153.360471543"/>
     <use style="fill:#0000ff;stroke:#000000;" x="391.158652166" xlink:href="#m55a045446e" y="180.541015114"/>
     <use style="fill:#0000ff;stroke:#000000;" x="464.448272234" xlink:href="#m55a045446e" y="255.385794459"/>
     <use style="fill:#0000ff;stroke:#000000;" x="488.115798169" xlink:href="#m55a045446e" y="324.995279526"/>
     <use style="fill:#0000ff;stroke:#000000;" x="441.596576664" xlink:href="#m55a045446e" y="224.893143133"/>
     <use style="fill:#0000ff;stroke:#000000;" x="312.296989119" xlink:href="#m55a045446e" y="144.004947341"/>
     <use style="fill:#0000ff;stroke:#000000;" x="486.142056895" xlink:href="#m55a045446e" y="312.968945763"/>
     <use style="fill:#0000ff;stroke:#000000;" x="485.604153898" xlink:href="#m55a045446e" y="308.851020198"/>
    </g>
   </g>
   <g id="patch_3">
    <path d="M 518.4 388.8 
L 518.4 43.2 
" style="fill:none;stroke:#000000;stroke-linecap:square;stroke-linejoin:miter;"/>
   </g>
   <g id="patch_4">
    <path d="M 72 388.8 
L 72 43.2 
" style="fill:none;stroke:#000000;stroke-linecap:square;stroke-linejoin:miter;"/>
   </g>
   <g id="patch_5">
    <path d="M 72 388.8 
L 518.4 388.8 
" style="fill:none;stroke:#000000;stroke-linecap:square;stroke-linejoin:miter;"/>
   </g>
   <g id="patch_6">
    <path d="M 72 43.2 
L 518.4 43.2 
" style="fill:none;stroke:#000000;stroke-linecap:square;stroke-linejoin:miter;"/>
   </g>
   <g id="matplotlib.axis_1">
    <g id="xtick_1">
     <g id="line2d_1">
      <defs>
       <path d="M 0 0 
L 0 -4 
" id="m4a03a1b5aa" style="stroke:#000000;stroke-width:0.5;"/>
      </defs>
      <g>
       <use style="stroke:#000000;stroke-width:0.5;" x="72.0" xlink:href="#m4a03a1b5aa" y="388.8"/>
      </g>
     </g>
     <g id="line2d_2">
      <defs>
       <path d="M 0 0 
L 0 4 
" id="mc82887c1b4" style="stroke:#000000;stroke-width:0.5;"/>
      </defs>
      <g>
       <use style="stroke:#000000;stroke-width:0.5;" x="72.0" xlink:href="#mc82887c1b4" y="43.2"/>
      </g>
     </g>
     <g id="text_1">
      <!-- −140 -->
      <defs>
       <path d="M 10.59375 35.5 
L 73.1875 35.5 
L 73.1875 27.203125 
L 10.59375 27.203125 
z
" id="BitstreamVeraSans-Roman-2212"/>
       <path d="M 31.78125 66.40625 
Q 24.171875 66.40625 20.328125 58.90625 
Q 16.5 51.421875 16.5 36.375 
Q 16.5 21.390625 20.328125 13.890625 
Q 24.171875 6.390625 31.78125 6.390625 
Q 39.453125 6.390625 43.28125 13.890625 
Q 47.125 21.390625 47.125 36.375 
Q 47.125 51.421875 43.28125 58.90625 
Q 39.453125 66.40625 31.78125 66.40625 
M 31.78125 74.21875 
Q 44.046875 74.21875 50.515625 64.515625 
Q 56.984375 54.828125 56.984375 36.375 
Q 56.984375 17.96875 50.515625 8.265625 
Q 44.046875 -1.421875 31.78125 -1.421875 
Q 19.53125 -1.421875 13.0625 8.265625 
Q 6.59375 17.96875 6.59375 36.375 
Q 6.59375 54.828125 13.0625 64.515625 
Q 19.53125 74.21875 31.78125 74.21875 
" id="BitstreamVeraSans-Roman-30"/>
       <path d="M 12.40625 8.296875 
L 28.515625 8.296875 
L 28.515625 63.921875 
L 10.984375 60.40625 
L 10.984375 69.390625 
L 28.421875 72.90625 
L 38.28125 72.90625 
L 38.28125 8.296875 
L 54.390625 8.296875 
L 54.390625 0 
L 12.40625 0 
z
" id="BitstreamVeraSans-Roman-31"/>
       <path d="M 37.796875 64.3125 
L 12.890625 25.390625 
L 37.796875 25.390625 
z
M 35.203125 72.90625 
L 47.609375 72.90625 
L 47.609375 25.390625 
L 58.015625 25.390625 
L 58.015625 17.1875 
L 47.609375 17.1875 
L 47.609375 0 
L 37.796875 0 
L 37.796875 17.1875 
L 4.890625 17.1875 
L 4.890625 26.703125 
z
" id="BitstreamVeraSans-Roman-34"/>
      </defs>
      <g transform="translate(55.5196875 401.918125)scale(0.12 -0.12)">
       <use xlink:href="#BitstreamVeraSans-Roman-2212"/>
       <use x="83.7890625" xlink:href="#BitstreamVeraSans-Roman-31"/>
       <use x="147.412109375" xlink:href="#BitstreamVeraSans-Roman-34"/>
       <use x="211.03515625" xlink:href="#BitstreamVeraSans-Roman-30"/>
      </g>
     </g>
    </g>
    <g id="xtick_2">
     <g id="line2d_3">
      <g>
       <use style="stroke:#000000;stroke-width:0.5;" x="131.52" xlink:href="#m4a03a1b5aa" y="388.8"/>
      </g>
     </g>
     <g id="line2d_4">
      <g>
       <use style="stroke:#000000;stroke-width:0.5;" x="131.52" xlink:href="#mc82887c1b4" y="43.2"/>
      </g>
     </g>
     <g id="text_2">
      <!-- −120 -->
      <defs>
       <path d="M 19.1875 8.296875 
L 53.609375 8.296875 
L 53.609375 0 
L 7.328125 0 
L 7.328125 8.296875 
Q 12.9375 14.109375 22.625 23.890625 
Q 32.328125 33.6875 34.8125 36.53125 
Q 39.546875 41.84375 41.421875 45.53125 
Q 43.3125 49.21875 43.3125 52.78125 
Q 43.3125 58.59375 39.234375 62.25 
Q 35.15625 65.921875 28.609375 65.921875 
Q 23.96875 65.921875 18.8125 64.3125 
Q 13.671875 62.703125 7.8125 59.421875 
L 7.8125 69.390625 
Q 13.765625 71.78125 18.9375 73 
Q 24.125 74.21875 28.421875 74.21875 
Q 39.75 74.21875 46.484375 68.546875 
Q 53.21875 62.890625 53.21875 53.421875 
Q 53.21875 48.921875 51.53125 44.890625 
Q 49.859375 40.875 45.40625 35.40625 
Q 44.1875 33.984375 37.640625 27.21875 
Q 31.109375 20.453125 19.1875 8.296875 
" id="BitstreamVeraSans-Roman-32"/>
      </defs>
      <g transform="translate(115.0396875 401.918125)scale(0.12 -0.12)">
       <use xlink:href="#BitstreamVeraSans-Roman-2212"/>
       <use x="83.7890625" xlink:href="#BitstreamVeraSans-Roman-31"/>
       <use x="147.412109375" xlink:href="#BitstreamVeraSans-Roman-32"/>
       <use x="211.03515625" xlink:href="#BitstreamVeraSans-Roman-30"/>
      </g>
     </g>
    </g>
    <g id="xtick_3">
     <g id="line2d_5">
      <g>
       <use style="stroke:#000000;stroke-width:0.5;" x="191.04" xlink:href="#m4a03a1b5aa" y="388.8"/>
      </g>
     </g>
     <g id="line2d_6">
      <g>
       <use style="stroke:#000000;stroke-width:0.5;" x="191.04" xlink:href="#mc82887c1b4" y="43.2"/>
      </g>
     </g>
     <g id="text_3">
      <!-- −100 -->
      <g transform="translate(174.5596875 401.918125)scale(0.12 -0.12)">
       <use xlink:href="#BitstreamVeraSans-Roman-2212"/>
       <use x="83.7890625" xlink:href="#BitstreamVeraSans-Roman-31"/>
       <use x="147.412109375" xlink:href="#BitstreamVeraSans-Roman-30"/>
       <use x="211.03515625" xlink:href="#BitstreamVeraSans-Roman-30"/>
      </g>
     </g>
    </g>
    <g id="xtick_4">
     <g id="line2d_7">
      <g>
       <use style="stroke:#000000;stroke-width:0.5;" x="250.56" xlink:href="#m4a03a1b5aa" y="388.8"/>
      </g>
     </g>
     <g id="line2d_8">
      <g>
       <use style="stroke:#000000;stroke-width:0.5;" x="250.56" xlink:href="#mc82887c1b4" y="43.2"/>
      </g>
     </g>
     <g id="text_4">
      <!-- −80 -->
      <defs>
       <path d="M 31.78125 34.625 
Q 24.75 34.625 20.71875 30.859375 
Q 16.703125 27.09375 16.703125 20.515625 
Q 16.703125 13.921875 20.71875 10.15625 
Q 24.75 6.390625 31.78125 6.390625 
Q 38.8125 6.390625 42.859375 10.171875 
Q 46.921875 13.96875 46.921875 20.515625 
Q 46.921875 27.09375 42.890625 30.859375 
Q 38.875 34.625 31.78125 34.625 
M 21.921875 38.8125 
Q 15.578125 40.375 12.03125 44.71875 
Q 8.5 49.078125 8.5 55.328125 
Q 8.5 64.0625 14.71875 69.140625 
Q 20.953125 74.21875 31.78125 74.21875 
Q 42.671875 74.21875 48.875 69.140625 
Q 55.078125 64.0625 55.078125 55.328125 
Q 55.078125 49.078125 51.53125 44.71875 
Q 48 40.375 41.703125 38.8125 
Q 48.828125 37.15625 52.796875 32.3125 
Q 56.78125 27.484375 56.78125 20.515625 
Q 56.78125 9.90625 50.3125 4.234375 
Q 43.84375 -1.421875 31.78125 -1.421875 
Q 19.734375 -1.421875 13.25 4.234375 
Q 6.78125 9.90625 6.78125 20.515625 
Q 6.78125 27.484375 10.78125 32.3125 
Q 14.796875 37.15625 21.921875 38.8125 
M 18.3125 54.390625 
Q 18.3125 48.734375 21.84375 45.5625 
Q 25.390625 42.390625 31.78125 42.390625 
Q 38.140625 42.390625 41.71875 45.5625 
Q 45.3125 48.734375 45.3125 54.390625 
Q 45.3125 60.0625 41.71875 63.234375 
Q 38.140625 66.40625 31.78125 66.40625 
Q 25.390625 66.40625 21.84375 63.234375 
Q 18.3125 60.0625 18.3125 54.390625 
" id="BitstreamVeraSans-Roman-38"/>
      </defs>
      <g transform="translate(237.8971875 401.918125)scale(0.12 -0.12)">
       <use xlink:href="#BitstreamVeraSans-Roman-2212"/>
       <use x="83.7890625" xlink:href="#BitstreamVeraSans-Roman-38"/>
       <use x="147.412109375" xlink:href="#BitstreamVeraSans-Roman-30"/>
      </g>
     </g>
    </g>
    <g id="xtick_5">
     <g id="line2d_9">
      <g>
       <use style="stroke:#000000;stroke-width:0.5;" x="310.08" xlink:href="#m4a03a1b5aa" y="388.8"/>
      </g>
     </g>
     <g id="line2d_10">
      <g>
       <use style="stroke:#000000;stroke-width:0.5;" x="310.08" xlink:href="#mc82887c1b4" y="43.2"/>
      </g>
     </g>
     <g id="text_5">
      <!-- −60 -->
      <defs>
       <path d="M 33.015625 40.375 
Q 26.375 40.375 22.484375 35.828125 
Q 18.609375 31.296875 18.609375 23.390625 
Q 18.609375 15.53125 22.484375 10.953125 
Q 26.375 6.390625 33.015625 6.390625 
Q 39.65625 6.390625 43.53125 10.953125 
Q 47.40625 15.53125 47.40625 23.390625 
Q 47.40625 31.296875 43.53125 35.828125 
Q 39.65625 40.375 33.015625 40.375 
M 52.59375 71.296875 
L 52.59375 62.3125 
Q 48.875 64.0625 45.09375 64.984375 
Q 41.3125 65.921875 37.59375 65.921875 
Q 27.828125 65.921875 22.671875 59.328125 
Q 17.53125 52.734375 16.796875 39.40625 
Q 19.671875 43.65625 24.015625 45.921875 
Q 28.375 48.1875 33.59375 48.1875 
Q 44.578125 48.1875 50.953125 41.515625 
Q 57.328125 34.859375 57.328125 23.390625 
Q 57.328125 12.15625 50.6875 5.359375 
Q 44.046875 -1.421875 33.015625 -1.421875 
Q 20.359375 -1.421875 13.671875 8.265625 
Q 6.984375 17.96875 6.984375 36.375 
Q 6.984375 53.65625 15.1875 63.9375 
Q 23.390625 74.21875 37.203125 74.21875 
Q 40.921875 74.21875 44.703125 73.484375 
Q 48.484375 72.75 52.59375 71.296875 
" id="BitstreamVeraSans-Roman-36"/>
      </defs>
      <g transform="translate(297.4171875 401.918125)scale(0.12 -0.12)">
       <use xlink:href="#BitstreamVeraSans-Roman-2212"/>
       <use x="83.7890625" xlink:href="#BitstreamVeraSans-Roman-36"/>
       <use x="147.412109375" xlink:href="#BitstreamVeraSans-Roman-30"/>
      </g>
     </g>
    </g>
    <g id="xtick_6">
     <g id="line2d_11">
      <g>
       <use style="stroke:#000000;stroke-width:0.5;" x="369.6" xlink:href="#m4a03a1b5aa" y="388.8"/>
      </g>
     </g>
     <g id="line2d_12">
      <g>
       <use style="stroke:#000000;stroke-width:0.5;" x="369.6" xlink:href="#mc82887c1b4" y="43.2"/>
      </g>
     </g>
     <g id="text_6">
      <!-- −40 -->
      <g transform="translate(356.9371875 401.918125)scale(0.12 -0.12)">
       <use xlink:href="#BitstreamVeraSans-Roman-2212"/>
       <use x="83.7890625" xlink:href="#BitstreamVeraSans-Roman-34"/>
       <use x="147.412109375" xlink:href="#BitstreamVeraSans-Roman-30"/>
      </g>
     </g>
    </g>
    <g id="xtick_7">
     <g id="line2d_13">
      <g>
       <use style="stroke:#000000;stroke-width:0.5;" x="429.12" xlink:href="#m4a03a1b5aa" y="388.8"/>
      </g>
     </g>
     <g id="line2d_14">
      <g>
       <use style="stroke:#000000;stroke-width:0.5;" x="429.12" xlink:href="#mc82887c1b4" y="43.2"/>
      </g>
     </g>
     <g id="text_7">
      <!-- −20 -->
      <g transform="translate(416.4571875 401.918125)scale(0.12 -0.12)">
       <use xlink:href="#BitstreamVeraSans-Roman-2212"/>
       <use x="83.7890625" xlink:href="#BitstreamVeraSans-Roman-32"/>
       <use x="147.412109375" xlink:href="#BitstreamVeraSans-Roman-30"/>
      </g>
     </g>
    </g>
    <g id="xtick_8">
     <g id="line2d_15">
      <g>
       <use style="stroke:#000000;stroke-width:0.5;" x="488.64" xlink:href="#m4a03a1b5aa" y="388.8"/>
      </g>
     </g>
     <g id="line2d_16">
      <g>
       <use style="stroke:#000000;stroke-width:0.5;" x="488.64" xlink:href="#mc82887c1b4" y="43.2"/>
      </g>
     </g>
     <g id="text_8">
      <!-- 0 -->
      <g transform="translate(484.8225 401.918125)scale(0.12 -0.12)">
       <use xlink:href="#BitstreamVeraSans-Roman-30"/>
      </g>
     </g>
    </g>
   </g>
   <g id="matplotlib.axis_2">
    <g id="ytick_1">
     <g id="line2d_17">
      <defs>
       <path d="M 0 0 
L 4 0 
" id="m2bbf0631a0" style="stroke:#000000;stroke-width:0.5;"/>
      </defs>
      <g>
       <use style="stroke:#000000;stroke-width:0.5;" x="72.0" xlink:href="#m2bbf0631a0" y="388.8"/>
      </g>
     </g>
     <g id="line2d_18">
      <defs>
       <path d="M 0 0 
L -4 0 
" id="m6ff952175d" style="stroke:#000000;stroke-width:0.5;"/>
      </defs>
      <g>
       <use style="stroke:#000000;stroke-width:0.5;" x="518.4" xlink:href="#m6ff952175d" y="388.8"/>
      </g>
     </g>
     <g id="text_9">
      <!-- −60 -->
      <g transform="translate(42.674375 392.11125)scale(0.12 -0.12)">
       <use xlink:href="#BitstreamVeraSans-Roman-2212"/>
       <use x="83.7890625" xlink:href="#BitstreamVeraSans-Roman-36"/>
       <use x="147.412109375" xlink:href="#BitstreamVeraSans-Roman-30"/>
      </g>
     </g>
    </g>
    <g id="ytick_2">
     <g id="line2d_19">
      <g>
       <use style="stroke:#000000;stroke-width:0.5;" x="72.0" xlink:href="#m2bbf0631a0" y="339.428571429"/>
      </g>
     </g>
     <g id="line2d_20">
      <g>
       <use style="stroke:#000000;stroke-width:0.5;" x="518.4" xlink:href="#m6ff952175d" y="339.428571429"/>
      </g>
     </g>
     <g id="text_10">
      <!-- −50 -->
      <defs>
       <path d="M 10.796875 72.90625 
L 49.515625 72.90625 
L 49.515625 64.59375 
L 19.828125 64.59375 
L 19.828125 46.734375 
Q 21.96875 47.46875 24.109375 47.828125 
Q 26.265625 48.1875 28.421875 48.1875 
Q 40.625 48.1875 47.75 41.5 
Q 54.890625 34.8125 54.890625 23.390625 
Q 54.890625 11.625 47.5625 5.09375 
Q 40.234375 -1.421875 26.90625 -1.421875 
Q 22.3125 -1.421875 17.546875 -0.640625 
Q 12.796875 0.140625 7.71875 1.703125 
L 7.71875 11.625 
Q 12.109375 9.234375 16.796875 8.0625 
Q 21.484375 6.890625 26.703125 6.890625 
Q 35.15625 6.890625 40.078125 11.328125 
Q 45.015625 15.765625 45.015625 23.390625 
Q 45.015625 31 40.078125 35.4375 
Q 35.15625 39.890625 26.703125 39.890625 
Q 22.75 39.890625 18.8125 39.015625 
Q 14.890625 38.140625 10.796875 36.28125 
z
" id="BitstreamVeraSans-Roman-35"/>
      </defs>
      <g transform="translate(42.674375 342.739821429)scale(0.12 -0.12)">
       <use xlink:href="#BitstreamVeraSans-Roman-2212"/>
       <use x="83.7890625" xlink:href="#BitstreamVeraSans-Roman-35"/>
       <use x="147.412109375" xlink:href="#BitstreamVeraSans-Roman-30"/>
      </g>
     </g>
    </g>
    <g id="ytick_3">
     <g id="line2d_21">
      <g>
       <use style="stroke:#000000;stroke-width:0.5;" x="72.0" xlink:href="#m2bbf0631a0" y="290.057142857"/>
      </g>
     </g>
     <g id="line2d_22">
      <g>
       <use style="stroke:#000000;stroke-width:0.5;" x="518.4" xlink:href="#m6ff952175d" y="290.057142857"/>
      </g>
     </g>
     <g id="text_11">
      <!-- −40 -->
      <g transform="translate(42.674375 293.368392857)scale(0.12 -0.12)">
       <use xlink:href="#BitstreamVeraSans-Roman-2212"/>
       <use x="83.7890625" xlink:href="#BitstreamVeraSans-Roman-34"/>
       <use x="147.412109375" xlink:href="#BitstreamVeraSans-Roman-30"/>
      </g>
     </g>
    </g>
    <g id="ytick_4">
     <g id="line2d_23">
      <g>
       <use style="stroke:#000000;stroke-width:0.5;" x="72.0" xlink:href="#m2bbf0631a0" y="240.685714286"/>
      </g>
     </g>
     <g id="line2d_24">
      <g>
       <use style="stroke:#000000;stroke-width:0.5;" x="518.4" xlink:href="#m6ff952175d" y="240.685714286"/>
      </g>
     </g>
     <g id="text_12">
      <!-- −30 -->
      <defs>
       <path d="M 40.578125 39.3125 
Q 47.65625 37.796875 51.625 33 
Q 55.609375 28.21875 55.609375 21.1875 
Q 55.609375 10.40625 48.1875 4.484375 
Q 40.765625 -1.421875 27.09375 -1.421875 
Q 22.515625 -1.421875 17.65625 -0.515625 
Q 12.796875 0.390625 7.625 2.203125 
L 7.625 11.71875 
Q 11.71875 9.328125 16.59375 8.109375 
Q 21.484375 6.890625 26.8125 6.890625 
Q 36.078125 6.890625 40.9375 10.546875 
Q 45.796875 14.203125 45.796875 21.1875 
Q 45.796875 27.640625 41.28125 31.265625 
Q 36.765625 34.90625 28.71875 34.90625 
L 20.21875 34.90625 
L 20.21875 43.015625 
L 29.109375 43.015625 
Q 36.375 43.015625 40.234375 45.921875 
Q 44.09375 48.828125 44.09375 54.296875 
Q 44.09375 59.90625 40.109375 62.90625 
Q 36.140625 65.921875 28.71875 65.921875 
Q 24.65625 65.921875 20.015625 65.03125 
Q 15.375 64.15625 9.8125 62.3125 
L 9.8125 71.09375 
Q 15.4375 72.65625 20.34375 73.4375 
Q 25.25 74.21875 29.59375 74.21875 
Q 40.828125 74.21875 47.359375 69.109375 
Q 53.90625 64.015625 53.90625 55.328125 
Q 53.90625 49.265625 50.4375 45.09375 
Q 46.96875 40.921875 40.578125 39.3125 
" id="BitstreamVeraSans-Roman-33"/>
      </defs>
      <g transform="translate(42.674375 243.996964286)scale(0.12 -0.12)">
       <use xlink:href="#BitstreamVeraSans-Roman-2212"/>
       <use x="83.7890625" xlink:href="#BitstreamVeraSans-Roman-33"/>
       <use x="147.412109375" xlink:href="#BitstreamVeraSans-Roman-30"/>
      </g>
     </g>
    </g>
    <g id="ytick_5">
     <g id="line2d_25">
      <g>
       <use style="stroke:#000000;stroke-width:0.5;" x="72.0" xlink:href="#m2bbf0631a0" y="191.314285714"/>
      </g>
     </g>
     <g id="line2d_26">
      <g>
       <use style="stroke:#000000;stroke-width:0.5;" x="518.4" xlink:href="#m6ff952175d" y="191.314285714"/>
      </g>
     </g>
     <g id="text_13">
      <!-- −20 -->
      <g transform="translate(42.674375 194.625535714)scale(0.12 -0.12)">
       <use xlink:href="#BitstreamVeraSans-Roman-2212"/>
       <use x="83.7890625" xlink:href="#BitstreamVeraSans-Roman-32"/>
       <use x="147.412109375" xlink:href="#BitstreamVeraSans-Roman-30"/>
      </g>
     </g>
    </g>
    <g id="ytick_6">
     <g id="line2d_27">
      <g>
       <use style="stroke:#000000;stroke-width:0.5;" x="72.0" xlink:href="#m2bbf0631a0" y="141.942857143"/>
      </g>
     </g>
     <g id="line2d_28">
      <g>
       <use style="stroke:#000000;stroke-width:0.5;" x="518.4" xlink:href="#m6ff952175d" y="141.942857143"/>
      </g>
     </g>
     <g id="text_14">
      <!-- −10 -->
      <g transform="translate(42.674375 145.254107143)scale(0.12 -0.12)">
       <use xlink:href="#BitstreamVeraSans-Roman-2212"/>
       <use x="83.7890625" xlink:href="#BitstreamVeraSans-Roman-31"/>
       <use x="147.412109375" xlink:href="#BitstreamVeraSans-Roman-30"/>
      </g>
     </g>
    </g>
    <g id="ytick_7">
     <g id="line2d_29">
      <g>
       <use style="stroke:#000000;stroke-width:0.5;" x="72.0" xlink:href="#m2bbf0631a0" y="92.5714285714"/>
      </g>
     </g>
     <g id="line2d_30">
      <g>
       <use style="stroke:#000000;stroke-width:0.5;" x="518.4" xlink:href="#m6ff952175d" y="92.5714285714"/>
      </g>
     </g>
     <g id="text_15">
      <!-- 0 -->
      <g transform="translate(60.365 95.8826785714)scale(0.12 -0.12)">
       <use xlink:href="#BitstreamVeraSans-Roman-30"/>
      </g>
     </g>
    </g>
    <g id="ytick_8">
     <g id="line2d_31">
      <g>
       <use style="stroke:#000000;stroke-width:0.5;" x="72.0" xlink:href="#m2bbf0631a0" y="43.2"/>
      </g>
     </g>
     <g id="line2d_32">
      <g>
       <use style="stroke:#000000;stroke-width:0.5;" x="518.4" xlink:href="#m6ff952175d" y="43.2"/>
      </g>
     </g>
     <g id="text_16">
      <!-- 10 -->
      <g transform="translate(52.73 46.51125)scale(0.12 -0.12)">
       <use xlink:href="#BitstreamVeraSans-Roman-31"/>
       <use x="63.623046875" xlink:href="#BitstreamVeraSans-Roman-30"/>
      </g>
     </g>
    </g>
   </g>
  </g>
 </g>
 <defs>
  <clipPath id="paa5c931f86">
   <rect height="345.6" width="446.4" x="72.0" y="43.2"/>
  </clipPath>
 </defs>
</svg>
