<?xml version="1.0" encoding="utf-8" standalone="no"?>
<!DOCTYPE svg PUBLIC "-//W3C//DTD SVG 1.1//EN"
  "http://www.w3.org/Graphics/SVG/1.1/DTD/svg11.dtd">
<!-- Created with matplotlib (http://matplotlib.org/) -->
<svg height="432pt" version="1.1" viewBox="0 0 576 432" width="576pt" xmlns="http://www.w3.org/2000/svg" xmlns:xlink="http://www.w3.org/1999/xlink">
 <defs>
  <style type="text/css">
*{stroke-linecap:butt;stroke-linejoin:round;stroke-miterlimit:100000;}
  </style>
 </defs>
 <g id="figure_1">
  <g id="patch_1">
   <path d="M 0 432 
L 576 432 
L 576 0 
L 0 0 
z
" style="fill:#ffffff;"/>
  </g>
  <g id="axes_1">
   <g id="patch_2">
    <path d="M 72 388.8 
L 518.4 388.8 
L 518.4 43.2 
L 72 43.2 
z
" style="fill:#ffffff;"/>
   </g>
   <g id="PathCollection_1">
    <defs>
     <path d="M 0 1.118034 
C 0.296506 1.118034 0.580908 1.000231 0.790569 0.790569 
C 1.000231 0.580908 1.118034 0.296506 1.118034 0 
C 1.118034 -0.296506 1.000231 -0.580908 0.790569 -0.790569 
C 0.580908 -1.000231 0.296506 -1.118034 0 -1.118034 
C -0.296506 -1.118034 -0.580908 -1.000231 -0.790569 -0.790569 
C -1.000231 -0.580908 -1.118034 -0.296506 -1.118034 0 
C -1.118034 0.296506 -1.000231 0.580908 -0.790569 0.790569 
C -0.580908 1.000231 -0.296506 1.118034 0 1.118034 
z
" id="m2a08f9cd84" style="stroke:#000000;"/>
    </defs>
    <g clip-path="url(#p3b1e9ac536)">
     <use style="stroke:#000000;" x="446.703508357" xlink:href="#m2a08f9cd84" y="96.944408083"/>
     <use style="stroke:#000000;" x="408.823078293" xlink:href="#m2a08f9cd84" y="84.4882316197"/>
     <use style="stroke:#000000;" x="462.579300351" xlink:href="#m2a08f9cd84" y="101.907233575"/>
     <use style="stroke:#000000;" x="484.34632007" xlink:href="#m2a08f9cd84" y="116.915143178"/>
     <use style="stroke:#000000;" x="470.700381164" xlink:href="#m2a08f9cd84" y="106.023862735"/>
     <use style="stroke:#000000;" x="490.955416136" xlink:href="#m2a08f9cd84" y="124.12328908"/>
     <use style="stroke:#000000;" x="455.999209557" xlink:href="#m2a08f9cd84" y="98.9082898096"/>
     <use style="stroke:#000000;" x="447.533027302" xlink:href="#m2a08f9cd84" y="98.4677864287"/>
     <use style="stroke:#000000;" x="438.439987519" xlink:href="#m2a08f9cd84" y="92.7373421248"/>
     <use style="stroke:#000000;" x="315.85460789" xlink:href="#m2a08f9cd84" y="70.4632033193"/>
     <use style="stroke:#000000;" x="444.96444758" xlink:href="#m2a08f9cd84" y="94.4811978577"/>
     <use style="stroke:#000000;" x="440.720207012" xlink:href="#m2a08f9cd84" y="94.1174523104"/>
     <use style="stroke:#000000;" x="327.662231751" xlink:href="#m2a08f9cd84" y="72.2330763499"/>
     <use style="stroke:#000000;" x="385.487360306" xlink:href="#m2a08f9cd84" y="79.2158665574"/>
     <use style="stroke:#000000;" x="419.863693263" xlink:href="#m2a08f9cd84" y="91.7310064145"/>
     <use style="stroke:#000000;" x="418.643590242" xlink:href="#m2a08f9cd84" y="87.7090918944"/>
     <use style="stroke:#000000;" x="472.154901145" xlink:href="#m2a08f9cd84" y="107.577314177"/>
     <use style="stroke:#000000;" x="492.732284387" xlink:href="#m2a08f9cd84" y="126.494578516"/>
     <use style="stroke:#000000;" x="416.877716377" xlink:href="#m2a08f9cd84" y="86.1005290887"/>
     <use style="stroke:#000000;" x="365.077059353" xlink:href="#m2a08f9cd84" y="75.8399914878"/>
     <use style="stroke:#000000;" x="246.610019584" xlink:href="#m2a08f9cd84" y="68.3933971949"/>
     <use style="stroke:#000000;" x="480.114089153" xlink:href="#m2a08f9cd84" y="112.494935741"/>
     <use style="stroke:#000000;" x="400.110280945" xlink:href="#m2a08f9cd84" y="82.256603974"/>
     <use style="stroke:#000000;" x="437.360999571" xlink:href="#m2a08f9cd84" y="91.8035320907"/>
     <use style="stroke:#000000;" x="241.385309441" xlink:href="#m2a08f9cd84" y="66.73346981"/>
     <use style="stroke:#000000;" x="463.592073428" xlink:href="#m2a08f9cd84" y="102.906989602"/>
     <use style="stroke:#000000;" x="276.863318501" xlink:href="#m2a08f9cd84" y="68.6573085073"/>
     <use style="stroke:#000000;" x="467.055210234" xlink:href="#m2a08f9cd84" y="104.003666147"/>
     <use style="stroke:#000000;" x="388.809665089" xlink:href="#m2a08f9cd84" y="79.8379802703"/>
     <use style="stroke:#000000;" x="476.665322156" xlink:href="#m2a08f9cd84" y="110.353726462"/>
     <use style="stroke:#000000;" x="468.311213067" xlink:href="#m2a08f9cd84" y="104.896935011"/>
     <use style="stroke:#000000;" x="486.362401117" xlink:href="#m2a08f9cd84" y="118.556354843"/>
     <use style="stroke:#000000;" x="375.175285296" xlink:href="#m2a08f9cd84" y="77.4187442337"/>
     <use style="stroke:#000000;" x="494.844243139" xlink:href="#m2a08f9cd84" y="130.343664566"/>
     <use style="stroke:#000000;" x="348.39237325" xlink:href="#m2a08f9cd84" y="73.3887704103"/>
     <use style="stroke:#000000;" x="473.178523088" xlink:href="#m2a08f9cd84" y="108.621648598"/>
     <use style="stroke:#000000;" x="477.920182453" xlink:href="#m2a08f9cd84" y="110.945737365"/>
     <use style="stroke:#000000;" x="469.378004894" xlink:href="#m2a08f9cd84" y="105.474182928"/>
     <use style="stroke:#000000;" x="467.350940922" xlink:href="#m2a08f9cd84" y="109.438458015"/>
     <use style="stroke:#000000;" x="447.827228928" xlink:href="#m2a08f9cd84" y="99.2889242059"/>
     <use style="stroke:#000000;" x="441.58153626" xlink:href="#m2a08f9cd84" y="96.5859919914"/>
     <use style="stroke:#000000;" x="292.287348429" xlink:href="#m2a08f9cd84" y="72.2938317547"/>
     <use style="stroke:#000000;" x="454.459153948" xlink:href="#m2a08f9cd84" y="99.9046795179"/>
     <use style="stroke:#000000;" x="403.867000651" xlink:href="#m2a08f9cd84" y="86.9480125798"/>
     <use style="stroke:#000000;" x="385.301493718" xlink:href="#m2a08f9cd84" y="79.2395634667"/>
     <use style="stroke:#000000;" x="410.880205103" xlink:href="#m2a08f9cd84" y="91.2215094824"/>
     <use style="stroke:#000000;" x="489.361214642" xlink:href="#m2a08f9cd84" y="125.619773156"/>
     <use style="stroke:#000000;" x="245.23414306" xlink:href="#m2a08f9cd84" y="68.6459303067"/>
     <use style="stroke:#000000;" x="399.819535138" xlink:href="#m2a08f9cd84" y="83.4589099679"/>
     <use style="stroke:#000000;" x="434.006069914" xlink:href="#m2a08f9cd84" y="92.2796173912"/>
     <use style="stroke:#000000;" x="436.272825261" xlink:href="#m2a08f9cd84" y="95.2800148543"/>
     <use style="stroke:#000000;" x="435.639539841" xlink:href="#m2a08f9cd84" y="92.3067320287"/>
     <use style="stroke:#000000;" x="219.309791525" xlink:href="#m2a08f9cd84" y="67.5805706648"/>
     <use style="stroke:#000000;" x="263.840315674" xlink:href="#m2a08f9cd84" y="70.1971630221"/>
     <use style="stroke:#000000;" x="463.428005821" xlink:href="#m2a08f9cd84" y="104.393783973"/>
     <use style="stroke:#000000;" x="485.756106841" xlink:href="#m2a08f9cd84" y="118.732822204"/>
     <use style="stroke:#000000;" x="494.512549941" xlink:href="#m2a08f9cd84" y="131.186076851"/>
     <use style="stroke:#000000;" x="348.03126566" xlink:href="#m2a08f9cd84" y="73.511350315"/>
     <use style="stroke:#000000;" x="472.271944882" xlink:href="#m2a08f9cd84" y="112.039786619"/>
     <use style="stroke:#000000;" x="474.760185303" xlink:href="#m2a08f9cd84" y="118.114946397"/>
     <use style="stroke:#000000;" x="426.230856" xlink:href="#m2a08f9cd84" y="94.3383182431"/>
     <use style="stroke:#000000;" x="497.024784794" xlink:href="#m2a08f9cd84" y="139.224269198"/>
     <use style="stroke:#000000;" x="466.81421802" xlink:href="#m2a08f9cd84" y="114.524318946"/>
     <use style="stroke:#000000;" x="373.344198645" xlink:href="#m2a08f9cd84" y="77.4666276836"/>
     <use style="stroke:#000000;" x="391.28180558" xlink:href="#m2a08f9cd84" y="83.6227372749"/>
     <use style="stroke:#000000;" x="324.078228584" xlink:href="#m2a08f9cd84" y="83.6266134007"/>
     <use style="stroke:#000000;" x="459.970757145" xlink:href="#m2a08f9cd84" y="111.662924754"/>
     <use style="stroke:#000000;" x="469.750713087" xlink:href="#m2a08f9cd84" y="114.774882553"/>
     <use style="stroke:#000000;" x="422.022932406" xlink:href="#m2a08f9cd84" y="87.3714658421"/>
     <use style="stroke:#000000;" x="473.398304989" xlink:href="#m2a08f9cd84" y="107.684722822"/>
     <use style="stroke:#000000;" x="493.793496155" xlink:href="#m2a08f9cd84" y="131.325036588"/>
     <use style="stroke:#000000;" x="365.488143135" xlink:href="#m2a08f9cd84" y="82.9649014226"/>
     <use style="stroke:#000000;" x="269.481687046" xlink:href="#m2a08f9cd84" y="73.0542598345"/>
     <use style="stroke:#000000;" x="409.465524698" xlink:href="#m2a08f9cd84" y="88.7818297538"/>
     <use style="stroke:#000000;" x="488.327678701" xlink:href="#m2a08f9cd84" y="124.030322891"/>
     <use style="stroke:#000000;" x="365.120638335" xlink:href="#m2a08f9cd84" y="90.1592585766"/>
     <use style="stroke:#000000;" x="343.703737366" xlink:href="#m2a08f9cd84" y="81.7715793381"/>
     <use style="stroke:#000000;" x="427.913776628" xlink:href="#m2a08f9cd84" y="93.5771688182"/>
     <use style="stroke:#000000;" x="410.650317493" xlink:href="#m2a08f9cd84" y="85.9391870379"/>
     <use style="stroke:#000000;" x="460.933816638" xlink:href="#m2a08f9cd84" y="107.877085952"/>
     <use style="stroke:#000000;" x="435.18548105" xlink:href="#m2a08f9cd84" y="92.6098813817"/>
     <use style="stroke:#000000;" x="385.202717995" xlink:href="#m2a08f9cd84" y="80.0172553681"/>
     <use style="stroke:#000000;" x="434.441133092" xlink:href="#m2a08f9cd84" y="90.8844087414"/>
     <use style="stroke:#000000;" x="339.636053115" xlink:href="#m2a08f9cd84" y="76.8443474924"/>
     <use style="stroke:#000000;" x="285.935068805" xlink:href="#m2a08f9cd84" y="74.0333136103"/>
     <use style="stroke:#000000;" x="436.141635337" xlink:href="#m2a08f9cd84" y="92.2479714037"/>
     <use style="stroke:#000000;" x="318.43387702" xlink:href="#m2a08f9cd84" y="77.3155634985"/>
     <use style="stroke:#000000;" x="425.86243781" xlink:href="#m2a08f9cd84" y="88.3650900356"/>
     <use style="stroke:#000000;" x="480.786891959" xlink:href="#m2a08f9cd84" y="118.091801273"/>
     <use style="stroke:#000000;" x="464.511571251" xlink:href="#m2a08f9cd84" y="102.736956783"/>
     <use style="stroke:#000000;" x="287.131054348" xlink:href="#m2a08f9cd84" y="83.6405861978"/>
     <use style="stroke:#000000;" x="411.87971064" xlink:href="#m2a08f9cd84" y="86.04573689"/>
     <use style="stroke:#000000;" x="495.179176469" xlink:href="#m2a08f9cd84" y="132.269783924"/>
     <use style="stroke:#000000;" x="288.092582155" xlink:href="#m2a08f9cd84" y="81.9084175902"/>
     <use style="stroke:#000000;" x="238.355638216" xlink:href="#m2a08f9cd84" y="67.0728515134"/>
     <use style="stroke:#000000;" x="485.338311445" xlink:href="#m2a08f9cd84" y="124.217010671"/>
     <use style="stroke:#000000;" x="358.083878231" xlink:href="#m2a08f9cd84" y="87.7502654452"/>
     <use style="stroke:#000000;" x="489.057301517" xlink:href="#m2a08f9cd84" y="121.344639416"/>
     <use style="stroke:#000000;" x="348.300571689" xlink:href="#m2a08f9cd84" y="87.2930144456"/>
     <use style="stroke:#000000;" x="369.278984273" xlink:href="#m2a08f9cd84" y="76.6662178514"/>
     <use style="stroke:#000000;" x="468.627092599" xlink:href="#m2a08f9cd84" y="106.13962949"/>
     <use style="stroke:#000000;" x="496.18278725" xlink:href="#m2a08f9cd84" y="134.746015384"/>
     <use style="stroke:#000000;" x="338.731549319" xlink:href="#m2a08f9cd84" y="73.0914007466"/>
     <use style="stroke:#000000;" x="490.969140439" xlink:href="#m2a08f9cd84" y="124.052393033"/>
     <use style="stroke:#000000;" x="421.41068813" xlink:href="#m2a08f9cd84" y="93.0617029751"/>
     <use style="stroke:#000000;" x="493.13857012" xlink:href="#m2a08f9cd84" y="129.505581748"/>
     <use style="stroke:#000000;" x="291.302601034" xlink:href="#m2a08f9cd84" y="68.958134399"/>
     <use style="stroke:#000000;" x="444.731226601" xlink:href="#m2a08f9cd84" y="94.5151482782"/>
     <use style="stroke:#000000;" x="491.46099653" xlink:href="#m2a08f9cd84" y="126.198861223"/>
     <use style="stroke:#000000;" x="298.937202353" xlink:href="#m2a08f9cd84" y="69.0765075221"/>
     <use style="stroke:#000000;" x="437.548428793" xlink:href="#m2a08f9cd84" y="103.823639883"/>
     <use style="stroke:#000000;" x="458.413372041" xlink:href="#m2a08f9cd84" y="102.407191353"/>
     <use style="stroke:#000000;" x="298.887102989" xlink:href="#m2a08f9cd84" y="71.1001232526"/>
     <use style="stroke:#000000;" x="422.618083096" xlink:href="#m2a08f9cd84" y="89.6953527512"/>
     <use style="stroke:#000000;" x="450.095434466" xlink:href="#m2a08f9cd84" y="96.4745998888"/>
     <use style="stroke:#000000;" x="377.735330451" xlink:href="#m2a08f9cd84" y="78.1436061916"/>
     <use style="stroke:#000000;" x="405.932861528" xlink:href="#m2a08f9cd84" y="83.9336883099"/>
     <use style="stroke:#000000;" x="370.792147068" xlink:href="#m2a08f9cd84" y="76.6860832965"/>
     <use style="stroke:#000000;" x="443.435575444" xlink:href="#m2a08f9cd84" y="94.0318259709"/>
     <use style="stroke:#000000;" x="470.46206402" xlink:href="#m2a08f9cd84" y="109.753761786"/>
    </g>
   </g>
   <g id="PathCollection_2">
    <defs>
     <path d="M 0 1.936492 
C 0.513564 1.936492 1.006162 1.732451 1.369306 1.369306 
C 1.732451 1.006162 1.936492 0.513564 1.936492 0 
C 1.936492 -0.513564 1.732451 -1.006162 1.369306 -1.369306 
C 1.006162 -1.732451 0.513564 -1.936492 0 -1.936492 
C -0.513564 -1.936492 -1.006162 -1.732451 -1.369306 -1.369306 
C -1.732451 -1.006162 -1.936492 -0.513564 -1.936492 0 
C -1.936492 0.513564 -1.732451 1.006162 -1.369306 1.369306 
C -1.006162 1.732451 -0.513564 1.936492 0 1.936492 
z
" id="mb3ca0232e3" style="stroke:#000000;"/>
    </defs>
    <g clip-path="url(#p3b1e9ac536)">
     <use style="fill:#0000ff;stroke:#000000;" x="446.703508357" xlink:href="#mb3ca0232e3" y="96.944408083"/>
     <use style="fill:#0000ff;stroke:#000000;" x="408.823078293" xlink:href="#mb3ca0232e3" y="84.4882316197"/>
     <use style="fill:#0000ff;stroke:#000000;" x="462.579300351" xlink:href="#mb3ca0232e3" y="101.907233575"/>
     <use style="fill:#0000ff;stroke:#000000;" x="484.34632007" xlink:href="#mb3ca0232e3" y="116.915143178"/>
     <use style="fill:#0000ff;stroke:#000000;" x="470.700381164" xlink:href="#mb3ca0232e3" y="106.023862735"/>
     <use style="fill:#0000ff;stroke:#000000;" x="490.955416136" xlink:href="#mb3ca0232e3" y="124.12328908"/>
     <use style="fill:#0000ff;stroke:#000000;" x="455.999209557" xlink:href="#mb3ca0232e3" y="98.9082898096"/>
     <use style="fill:#0000ff;stroke:#000000;" x="447.533027302" xlink:href="#mb3ca0232e3" y="98.4677864287"/>
     <use style="fill:#0000ff;stroke:#000000;" x="438.439987519" xlink:href="#mb3ca0232e3" y="92.7373421248"/>
     <use style="fill:#0000ff;stroke:#000000;" x="315.85460789" xlink:href="#mb3ca0232e3" y="70.4632033193"/>
     <use style="fill:#0000ff;stroke:#000000;" x="444.96444758" xlink:href="#mb3ca0232e3" y="94.4811978577"/>
     <use style="fill:#0000ff;stroke:#000000;" x="440.720207012" xlink:href="#mb3ca0232e3" y="94.1174523104"/>
     <use style="fill:#0000ff;stroke:#000000;" x="327.662231751" xlink:href="#mb3ca0232e3" y="72.2330763499"/>
     <use style="fill:#0000ff;stroke:#000000;" x="385.487360306" xlink:href="#mb3ca0232e3" y="79.2158665574"/>
     <use style="fill:#0000ff;stroke:#000000;" x="419.863693263" xlink:href="#mb3ca0232e3" y="91.7310064145"/>
     <use style="fill:#0000ff;stroke:#000000;" x="418.643590242" xlink:href="#mb3ca0232e3" y="87.7090918944"/>
     <use style="fill:#0000ff;stroke:#000000;" x="472.154901145" xlink:href="#mb3ca0232e3" y="107.577314177"/>
     <use style="fill:#0000ff;stroke:#000000;" x="492.732284387" xlink:href="#mb3ca0232e3" y="126.494578516"/>
     <use style="fill:#0000ff;stroke:#000000;" x="416.877716377" xlink:href="#mb3ca0232e3" y="86.1005290887"/>
     <use style="fill:#0000ff;stroke:#000000;" x="365.077059353" xlink:href="#mb3ca0232e3" y="75.8399914878"/>
     <use style="fill:#0000ff;stroke:#000000;" x="246.610019584" xlink:href="#mb3ca0232e3" y="68.3933971949"/>
     <use style="fill:#0000ff;stroke:#000000;" x="480.114089153" xlink:href="#mb3ca0232e3" y="112.494935741"/>
     <use style="fill:#0000ff;stroke:#000000;" x="400.110280945" xlink:href="#mb3ca0232e3" y="82.256603974"/>
     <use style="fill:#0000ff;stroke:#000000;" x="437.360999571" xlink:href="#mb3ca0232e3" y="91.8035320907"/>
     <use style="fill:#0000ff;stroke:#000000;" x="241.385309441" xlink:href="#mb3ca0232e3" y="66.73346981"/>
     <use style="fill:#0000ff;stroke:#000000;" x="463.592073428" xlink:href="#mb3ca0232e3" y="102.906989602"/>
     <use style="fill:#0000ff;stroke:#000000;" x="276.863318501" xlink:href="#mb3ca0232e3" y="68.6573085073"/>
     <use style="fill:#0000ff;stroke:#000000;" x="467.055210234" xlink:href="#mb3ca0232e3" y="104.003666147"/>
     <use style="fill:#0000ff;stroke:#000000;" x="388.809665089" xlink:href="#mb3ca0232e3" y="79.8379802703"/>
     <use style="fill:#0000ff;stroke:#000000;" x="476.665322156" xlink:href="#mb3ca0232e3" y="110.353726462"/>
     <use style="fill:#0000ff;stroke:#000000;" x="468.311213067" xlink:href="#mb3ca0232e3" y="104.896935011"/>
     <use style="fill:#0000ff;stroke:#000000;" x="486.362401117" xlink:href="#mb3ca0232e3" y="118.556354843"/>
     <use style="fill:#0000ff;stroke:#000000;" x="375.175285296" xlink:href="#mb3ca0232e3" y="77.4187442337"/>
     <use style="fill:#0000ff;stroke:#000000;" x="494.844243139" xlink:href="#mb3ca0232e3" y="130.343664566"/>
     <use style="fill:#0000ff;stroke:#000000;" x="348.39237325" xlink:href="#mb3ca0232e3" y="73.3887704103"/>
     <use style="fill:#0000ff;stroke:#000000;" x="473.178523088" xlink:href="#mb3ca0232e3" y="108.621648598"/>
     <use style="fill:#0000ff;stroke:#000000;" x="477.920182453" xlink:href="#mb3ca0232e3" y="110.945737365"/>
     <use style="fill:#0000ff;stroke:#000000;" x="469.378004894" xlink:href="#mb3ca0232e3" y="105.474182928"/>
     <use style="fill:#0000ff;stroke:#000000;" x="467.350940922" xlink:href="#mb3ca0232e3" y="109.438458015"/>
     <use style="fill:#0000ff;stroke:#000000;" x="447.827228928" xlink:href="#mb3ca0232e3" y="99.2889242059"/>
     <use style="fill:#0000ff;stroke:#000000;" x="441.58153626" xlink:href="#mb3ca0232e3" y="96.5859919914"/>
     <use style="fill:#0000ff;stroke:#000000;" x="292.287348429" xlink:href="#mb3ca0232e3" y="72.2938317547"/>
     <use style="fill:#0000ff;stroke:#000000;" x="454.459153948" xlink:href="#mb3ca0232e3" y="99.9046795179"/>
     <use style="fill:#0000ff;stroke:#000000;" x="403.867000651" xlink:href="#mb3ca0232e3" y="86.9480125798"/>
     <use style="fill:#0000ff;stroke:#000000;" x="385.301493718" xlink:href="#mb3ca0232e3" y="79.2395634667"/>
     <use style="fill:#0000ff;stroke:#000000;" x="410.880205103" xlink:href="#mb3ca0232e3" y="91.2215094824"/>
     <use style="fill:#0000ff;stroke:#000000;" x="489.361214642" xlink:href="#mb3ca0232e3" y="125.619773156"/>
     <use style="fill:#0000ff;stroke:#000000;" x="245.23414306" xlink:href="#mb3ca0232e3" y="68.6459303067"/>
     <use style="fill:#0000ff;stroke:#000000;" x="399.819535138" xlink:href="#mb3ca0232e3" y="83.4589099679"/>
     <use style="fill:#0000ff;stroke:#000000;" x="434.006069914" xlink:href="#mb3ca0232e3" y="92.2796173912"/>
     <use style="fill:#0000ff;stroke:#000000;" x="436.272825261" xlink:href="#mb3ca0232e3" y="95.2800148543"/>
     <use style="fill:#0000ff;stroke:#000000;" x="435.639539841" xlink:href="#mb3ca0232e3" y="92.3067320287"/>
     <use style="fill:#0000ff;stroke:#000000;" x="219.309791525" xlink:href="#mb3ca0232e3" y="67.5805706648"/>
     <use style="fill:#0000ff;stroke:#000000;" x="263.840315674" xlink:href="#mb3ca0232e3" y="70.1971630221"/>
     <use style="fill:#0000ff;stroke:#000000;" x="463.428005821" xlink:href="#mb3ca0232e3" y="104.393783973"/>
     <use style="fill:#0000ff;stroke:#000000;" x="485.756106841" xlink:href="#mb3ca0232e3" y="118.732822204"/>
     <use style="fill:#0000ff;stroke:#000000;" x="494.512549941" xlink:href="#mb3ca0232e3" y="131.186076851"/>
     <use style="fill:#0000ff;stroke:#000000;" x="348.03126566" xlink:href="#mb3ca0232e3" y="73.511350315"/>
     <use style="fill:#0000ff;stroke:#000000;" x="472.271944882" xlink:href="#mb3ca0232e3" y="112.039786619"/>
     <use style="fill:#0000ff;stroke:#000000;" x="474.760185303" xlink:href="#mb3ca0232e3" y="118.114946397"/>
    </g>
   </g>
   <g id="patch_3">
    <path d="M 72 388.8 
L 518.4 388.8 
" style="fill:none;stroke:#000000;stroke-linecap:square;stroke-linejoin:miter;"/>
   </g>
   <g id="patch_4">
    <path d="M 72 43.2 
L 518.4 43.2 
" style="fill:none;stroke:#000000;stroke-linecap:square;stroke-linejoin:miter;"/>
   </g>
   <g id="patch_5">
    <path d="M 72 388.8 
L 72 43.2 
" style="fill:none;stroke:#000000;stroke-linecap:square;stroke-linejoin:miter;"/>
   </g>
   <g id="patch_6">
    <path d="M 518.4 388.8 
L 518.4 43.2 
" style="fill:none;stroke:#000000;stroke-linecap:square;stroke-linejoin:miter;"/>
   </g>
   <g id="matplotlib.axis_1">
    <g id="xtick_1">
     <g id="line2d_1">
      <defs>
       <path d="M 0 0 
L 0 -4 
" id="m0df238b41d" style="stroke:#000000;stroke-width:0.5;"/>
      </defs>
      <g>
       <use style="stroke:#000000;stroke-width:0.5;" x="72.0" xlink:href="#m0df238b41d" y="388.8"/>
      </g>
     </g>
     <g id="line2d_2">
      <defs>
       <path d="M 0 0 
L 0 4 
" id="mf6797a2214" style="stroke:#000000;stroke-width:0.5;"/>
      </defs>
      <g>
       <use style="stroke:#000000;stroke-width:0.5;" x="72.0" xlink:href="#mf6797a2214" y="43.2"/>
      </g>
     </g>
     <g id="text_1">
      <!-- −200 -->
      <defs>
       <path d="M 10.59375 35.5 
L 73.1875 35.5 
L 73.1875 27.203125 
L 10.59375 27.203125 
z
" id="BitstreamVeraSans-Roman-2212"/>
       <path d="M 19.1875 8.296875 
L 53.609375 8.296875 
L 53.609375 0 
L 7.328125 0 
L 7.328125 8.296875 
Q 12.9375 14.109375 22.625 23.890625 
Q 32.328125 33.6875 34.8125 36.53125 
Q 39.546875 41.84375 41.421875 45.53125 
Q 43.3125 49.21875 43.3125 52.78125 
Q 43.3125 58.59375 39.234375 62.25 
Q 35.15625 65.921875 28.609375 65.921875 
Q 23.96875 65.921875 18.8125 64.3125 
Q 13.671875 62.703125 7.8125 59.421875 
L 7.8125 69.390625 
Q 13.765625 71.78125 18.9375 73 
Q 24.125 74.21875 28.421875 74.21875 
Q 39.75 74.21875 46.484375 68.546875 
Q 53.21875 62.890625 53.21875 53.421875 
Q 53.21875 48.921875 51.53125 44.890625 
Q 49.859375 40.875 45.40625 35.40625 
Q 44.1875 33.984375 37.640625 27.21875 
Q 31.109375 20.453125 19.1875 8.296875 
" id="BitstreamVeraSans-Roman-32"/>
       <path d="M 31.78125 66.40625 
Q 24.171875 66.40625 20.328125 58.90625 
Q 16.5 51.421875 16.5 36.375 
Q 16.5 21.390625 20.328125 13.890625 
Q 24.171875 6.390625 31.78125 6.390625 
Q 39.453125 6.390625 43.28125 13.890625 
Q 47.125 21.390625 47.125 36.375 
Q 47.125 51.421875 43.28125 58.90625 
Q 39.453125 66.40625 31.78125 66.40625 
M 31.78125 74.21875 
Q 44.046875 74.21875 50.515625 64.515625 
Q 56.984375 54.828125 56.984375 36.375 
Q 56.984375 17.96875 50.515625 8.265625 
Q 44.046875 -1.421875 31.78125 -1.421875 
Q 19.53125 -1.421875 13.0625 8.265625 
Q 6.59375 17.96875 6.59375 36.375 
Q 6.59375 54.828125 13.0625 64.515625 
Q 19.53125 74.21875 31.78125 74.21875 
" id="BitstreamVeraSans-Roman-30"/>
      </defs>
      <g transform="translate(55.5196875 401.918125)scale(0.12 -0.12)">
       <use xlink:href="#BitstreamVeraSans-Roman-2212"/>
       <use x="83.7890625" xlink:href="#BitstreamVeraSans-Roman-32"/>
       <use x="147.412109375" xlink:href="#BitstreamVeraSans-Roman-30"/>
       <use x="211.03515625" xlink:href="#BitstreamVeraSans-Roman-30"/>
      </g>
     </g>
    </g>
    <g id="xtick_2">
     <g id="line2d_3">
      <g>
       <use style="stroke:#000000;stroke-width:0.5;" x="178.285714286" xlink:href="#m0df238b41d" y="388.8"/>
      </g>
     </g>
     <g id="line2d_4">
      <g>
       <use style="stroke:#000000;stroke-width:0.5;" x="178.285714286" xlink:href="#mf6797a2214" y="43.2"/>
      </g>
     </g>
     <g id="text_2">
      <!-- −150 -->
      <defs>
       <path d="M 12.40625 8.296875 
L 28.515625 8.296875 
L 28.515625 63.921875 
L 10.984375 60.40625 
L 10.984375 69.390625 
L 28.421875 72.90625 
L 38.28125 72.90625 
L 38.28125 8.296875 
L 54.390625 8.296875 
L 54.390625 0 
L 12.40625 0 
z
" id="BitstreamVeraSans-Roman-31"/>
       <path d="M 10.796875 72.90625 
L 49.515625 72.90625 
L 49.515625 64.59375 
L 19.828125 64.59375 
L 19.828125 46.734375 
Q 21.96875 47.46875 24.109375 47.828125 
Q 26.265625 48.1875 28.421875 48.1875 
Q 40.625 48.1875 47.75 41.5 
Q 54.890625 34.8125 54.890625 23.390625 
Q 54.890625 11.625 47.5625 5.09375 
Q 40.234375 -1.421875 26.90625 -1.421875 
Q 22.3125 -1.421875 17.546875 -0.640625 
Q 12.796875 0.140625 7.71875 1.703125 
L 7.71875 11.625 
Q 12.109375 9.234375 16.796875 8.0625 
Q 21.484375 6.890625 26.703125 6.890625 
Q 35.15625 6.890625 40.078125 11.328125 
Q 45.015625 15.765625 45.015625 23.390625 
Q 45.015625 31 40.078125 35.4375 
Q 35.15625 39.890625 26.703125 39.890625 
Q 22.75 39.890625 18.8125 39.015625 
Q 14.890625 38.140625 10.796875 36.28125 
z
" id="BitstreamVeraSans-Roman-35"/>
      </defs>
      <g transform="translate(161.805401786 401.918125)scale(0.12 -0.12)">
       <use xlink:href="#BitstreamVeraSans-Roman-2212"/>
       <use x="83.7890625" xlink:href="#BitstreamVeraSans-Roman-31"/>
       <use x="147.412109375" xlink:href="#BitstreamVeraSans-Roman-35"/>
       <use x="211.03515625" xlink:href="#BitstreamVeraSans-Roman-30"/>
      </g>
     </g>
    </g>
    <g id="xtick_3">
     <g id="line2d_5">
      <g>
       <use style="stroke:#000000;stroke-width:0.5;" x="284.571428571" xlink:href="#m0df238b41d" y="388.8"/>
      </g>
     </g>
     <g id="line2d_6">
      <g>
       <use style="stroke:#000000;stroke-width:0.5;" x="284.571428571" xlink:href="#mf6797a2214" y="43.2"/>
      </g>
     </g>
     <g id="text_3">
      <!-- −100 -->
      <g transform="translate(268.091116071 401.918125)scale(0.12 -0.12)">
       <use xlink:href="#BitstreamVeraSans-Roman-2212"/>
       <use x="83.7890625" xlink:href="#BitstreamVeraSans-Roman-31"/>
       <use x="147.412109375" xlink:href="#BitstreamVeraSans-Roman-30"/>
       <use x="211.03515625" xlink:href="#BitstreamVeraSans-Roman-30"/>
      </g>
     </g>
    </g>
    <g id="xtick_4">
     <g id="line2d_7">
      <g>
       <use style="stroke:#000000;stroke-width:0.5;" x="390.857142857" xlink:href="#m0df238b41d" y="388.8"/>
      </g>
     </g>
     <g id="line2d_8">
      <g>
       <use style="stroke:#000000;stroke-width:0.5;" x="390.857142857" xlink:href="#mf6797a2214" y="43.2"/>
      </g>
     </g>
     <g id="text_4">
      <!-- −50 -->
      <g transform="translate(378.194330357 401.918125)scale(0.12 -0.12)">
       <use xlink:href="#BitstreamVeraSans-Roman-2212"/>
       <use x="83.7890625" xlink:href="#BitstreamVeraSans-Roman-35"/>
       <use x="147.412109375" xlink:href="#BitstreamVeraSans-Roman-30"/>
      </g>
     </g>
    </g>
    <g id="xtick_5">
     <g id="line2d_9">
      <g>
       <use style="stroke:#000000;stroke-width:0.5;" x="497.142857143" xlink:href="#m0df238b41d" y="388.8"/>
      </g>
     </g>
     <g id="line2d_10">
      <g>
       <use style="stroke:#000000;stroke-width:0.5;" x="497.142857143" xlink:href="#mf6797a2214" y="43.2"/>
      </g>
     </g>
     <g id="text_5">
      <!-- 0 -->
      <g transform="translate(493.325357143 401.918125)scale(0.12 -0.12)">
       <use xlink:href="#BitstreamVeraSans-Roman-30"/>
      </g>
     </g>
    </g>
   </g>
   <g id="matplotlib.axis_2">
    <g id="ytick_1">
     <g id="line2d_11">
      <defs>
       <path d="M 0 0 
L 4 0 
" id="m9bd03d6da6" style="stroke:#000000;stroke-width:0.5;"/>
      </defs>
      <g>
       <use style="stroke:#000000;stroke-width:0.5;" x="72.0" xlink:href="#m9bd03d6da6" y="388.8"/>
      </g>
     </g>
     <g id="line2d_12">
      <defs>
       <path d="M 0 0 
L -4 0 
" id="mc23e9c32ec" style="stroke:#000000;stroke-width:0.5;"/>
      </defs>
      <g>
       <use style="stroke:#000000;stroke-width:0.5;" x="518.4" xlink:href="#mc23e9c32ec" y="388.8"/>
      </g>
     </g>
     <g id="text_6">
      <!-- −200 -->
      <g transform="translate(35.039375 392.11125)scale(0.12 -0.12)">
       <use xlink:href="#BitstreamVeraSans-Roman-2212"/>
       <use x="83.7890625" xlink:href="#BitstreamVeraSans-Roman-32"/>
       <use x="147.412109375" xlink:href="#BitstreamVeraSans-Roman-30"/>
       <use x="211.03515625" xlink:href="#BitstreamVeraSans-Roman-30"/>
      </g>
     </g>
    </g>
    <g id="ytick_2">
     <g id="line2d_13">
      <g>
       <use style="stroke:#000000;stroke-width:0.5;" x="72.0" xlink:href="#m9bd03d6da6" y="306.514285714"/>
      </g>
     </g>
     <g id="line2d_14">
      <g>
       <use style="stroke:#000000;stroke-width:0.5;" x="518.4" xlink:href="#mc23e9c32ec" y="306.514285714"/>
      </g>
     </g>
     <g id="text_7">
      <!-- −150 -->
      <g transform="translate(35.039375 309.825535714)scale(0.12 -0.12)">
       <use xlink:href="#BitstreamVeraSans-Roman-2212"/>
       <use x="83.7890625" xlink:href="#BitstreamVeraSans-Roman-31"/>
       <use x="147.412109375" xlink:href="#BitstreamVeraSans-Roman-35"/>
       <use x="211.03515625" xlink:href="#BitstreamVeraSans-Roman-30"/>
      </g>
     </g>
    </g>
    <g id="ytick_3">
     <g id="line2d_15">
      <g>
       <use style="stroke:#000000;stroke-width:0.5;" x="72.0" xlink:href="#m9bd03d6da6" y="224.228571429"/>
      </g>
     </g>
     <g id="line2d_16">
      <g>
       <use style="stroke:#000000;stroke-width:0.5;" x="518.4" xlink:href="#mc23e9c32ec" y="224.228571429"/>
      </g>
     </g>
     <g id="text_8">
      <!-- −100 -->
      <g transform="translate(35.039375 227.539821429)scale(0.12 -0.12)">
       <use xlink:href="#BitstreamVeraSans-Roman-2212"/>
       <use x="83.7890625" xlink:href="#BitstreamVeraSans-Roman-31"/>
       <use x="147.412109375" xlink:href="#BitstreamVeraSans-Roman-30"/>
       <use x="211.03515625" xlink:href="#BitstreamVeraSans-Roman-30"/>
      </g>
     </g>
    </g>
    <g id="ytick_4">
     <g id="line2d_17">
      <g>
       <use style="stroke:#000000;stroke-width:0.5;" x="72.0" xlink:href="#m9bd03d6da6" y="141.942857143"/>
      </g>
     </g>
     <g id="line2d_18">
      <g>
       <use style="stroke:#000000;stroke-width:0.5;" x="518.4" xlink:href="#mc23e9c32ec" y="141.942857143"/>
      </g>
     </g>
     <g id="text_9">
      <!-- −50 -->
      <g transform="translate(42.674375 145.254107143)scale(0.12 -0.12)">
       <use xlink:href="#BitstreamVeraSans-Roman-2212"/>
       <use x="83.7890625" xlink:href="#BitstreamVeraSans-Roman-35"/>
       <use x="147.412109375" xlink:href="#BitstreamVeraSans-Roman-30"/>
      </g>
     </g>
    </g>
    <g id="ytick_5">
     <g id="line2d_19">
      <g>
       <use style="stroke:#000000;stroke-width:0.5;" x="72.0" xlink:href="#m9bd03d6da6" y="59.6571428571"/>
      </g>
     </g>
     <g id="line2d_20">
      <g>
       <use style="stroke:#000000;stroke-width:0.5;" x="518.4" xlink:href="#mc23e9c32ec" y="59.6571428571"/>
      </g>
     </g>
     <g id="text_10">
      <!-- 0 -->
      <g transform="translate(60.365 62.9683928571)scale(0.12 -0.12)">
       <use xlink:href="#BitstreamVeraSans-Roman-30"/>
      </g>
     </g>
    </g>
   </g>
  </g>
 </g>
 <defs>
  <clipPath id="p3b1e9ac536">
   <rect height="345.6" width="446.4" x="72.0" y="43.2"/>
  </clipPath>
 </defs>
</svg>
