<?xml version="1.0" encoding="utf-8" standalone="no"?>
<!DOCTYPE svg PUBLIC "-//W3C//DTD SVG 1.1//EN"
  "http://www.w3.org/Graphics/SVG/1.1/DTD/svg11.dtd">
<!-- Created with matplotlib (http://matplotlib.org/) -->
<svg height="432pt" version="1.1" viewBox="0 0 576 432" width="576pt" xmlns="http://www.w3.org/2000/svg" xmlns:xlink="http://www.w3.org/1999/xlink">
 <defs>
  <style type="text/css">
*{stroke-linecap:butt;stroke-linejoin:round;stroke-miterlimit:100000;}
  </style>
 </defs>
 <g id="figure_1">
  <g id="patch_1">
   <path d="M 0 432 
L 576 432 
L 576 0 
L 0 0 
z
" style="fill:#ffffff;"/>
  </g>
  <g id="axes_1">
   <g id="patch_2">
    <path d="M 72 388.8 
L 518.4 388.8 
L 518.4 43.2 
L 72 43.2 
z
" style="fill:#ffffff;"/>
   </g>
   <g id="PathCollection_1">
    <defs>
     <path d="M 0 1.118034 
C 0.296506 1.118034 0.580908 1.000231 0.790569 0.790569 
C 1.000231 0.580908 1.118034 0.296506 1.118034 0 
C 1.118034 -0.296506 1.000231 -0.580908 0.790569 -0.790569 
C 0.580908 -1.000231 0.296506 -1.118034 0 -1.118034 
C -0.296506 -1.118034 -0.580908 -1.000231 -0.790569 -0.790569 
C -1.000231 -0.580908 -1.118034 -0.296506 -1.118034 0 
C -1.118034 0.296506 -1.000231 0.580908 -0.790569 0.790569 
C -0.580908 1.000231 -0.296506 1.118034 0 1.118034 
z
" id="mca640233a3" style="stroke:#000000;"/>
    </defs>
    <g clip-path="url(#pa0bb5d674a)">
     <use style="stroke:#000000;" x="448.107534416" xlink:href="#mca640233a3" y="95.6956524601"/>
     <use style="stroke:#000000;" x="496.046729035" xlink:href="#mca640233a3" y="133.827541138"/>
     <use style="stroke:#000000;" x="385.487360306" xlink:href="#mca640233a3" y="79.2158665574"/>
     <use style="stroke:#000000;" x="430.470569531" xlink:href="#mca640233a3" y="89.6806021417"/>
     <use style="stroke:#000000;" x="419.337088098" xlink:href="#mca640233a3" y="86.8937543956"/>
     <use style="stroke:#000000;" x="405.000491243" xlink:href="#mca640233a3" y="83.1621398844"/>
     <use style="stroke:#000000;" x="445.778006623" xlink:href="#mca640233a3" y="94.7345568303"/>
     <use style="stroke:#000000;" x="413.409170966" xlink:href="#mca640233a3" y="85.6586173704"/>
     <use style="stroke:#000000;" x="365.077059353" xlink:href="#mca640233a3" y="75.8399914878"/>
     <use style="stroke:#000000;" x="484.811969425" xlink:href="#mca640233a3" y="116.355815368"/>
     <use style="stroke:#000000;" x="492.732284387" xlink:href="#mca640233a3" y="126.494578516"/>
     <use style="stroke:#000000;" x="477.057800824" xlink:href="#mca640233a3" y="110.580432716"/>
     <use style="stroke:#000000;" x="461.490855835" xlink:href="#mca640233a3" y="101.230687323"/>
     <use style="stroke:#000000;" x="433.613174366" xlink:href="#mca640233a3" y="90.751312347"/>
     <use style="stroke:#000000;" x="469.465199317" xlink:href="#mca640233a3" y="105.409954747"/>
     <use style="stroke:#000000;" x="443.435575444" xlink:href="#mca640233a3" y="94.0318259709"/>
     <use style="stroke:#000000;" x="402.654890163" xlink:href="#mca640233a3" y="82.6473572758"/>
     <use style="stroke:#000000;" x="455.999209557" xlink:href="#mca640233a3" y="98.9082898096"/>
     <use style="stroke:#000000;" x="429.043205014" xlink:href="#mca640233a3" y="89.2628878143"/>
     <use style="stroke:#000000;" x="444.96444758" xlink:href="#mca640233a3" y="94.4811978577"/>
     <use style="stroke:#000000;" x="416.877716377" xlink:href="#mca640233a3" y="86.1005290887"/>
     <use style="stroke:#000000;" x="241.385309441" xlink:href="#mca640233a3" y="66.73346981"/>
     <use style="stroke:#000000;" x="400.110280945" xlink:href="#mca640233a3" y="82.256603974"/>
     <use style="stroke:#000000;" x="437.360999571" xlink:href="#mca640233a3" y="91.8035320907"/>
     <use style="stroke:#000000;" x="462.579300351" xlink:href="#mca640233a3" y="101.907233575"/>
     <use style="stroke:#000000;" x="470.700381164" xlink:href="#mca640233a3" y="106.023862735"/>
     <use style="stroke:#000000;" x="486.362401117" xlink:href="#mca640233a3" y="118.556354843"/>
     <use style="stroke:#000000;" x="467.055210234" xlink:href="#mca640233a3" y="104.003666147"/>
     <use style="stroke:#000000;" x="388.809665089" xlink:href="#mca640233a3" y="79.8379802703"/>
     <use style="stroke:#000000;" x="476.665322156" xlink:href="#mca640233a3" y="110.353726462"/>
     <use style="stroke:#000000;" x="480.114089153" xlink:href="#mca640233a3" y="112.494935741"/>
     <use style="stroke:#000000;" x="473.015307606" xlink:href="#mca640233a3" y="107.408946152"/>
     <use style="stroke:#000000;" x="468.311213067" xlink:href="#mca640233a3" y="104.896935011"/>
     <use style="stroke:#000000;" x="375.175285296" xlink:href="#mca640233a3" y="77.4187442337"/>
     <use style="stroke:#000000;" x="348.39237325" xlink:href="#mca640233a3" y="73.3887704103"/>
     <use style="stroke:#000000;" x="497.024784794" xlink:href="#mca640233a3" y="139.224269198"/>
     <use style="stroke:#000000;" x="494.844243139" xlink:href="#mca640233a3" y="130.343664566"/>
     <use style="stroke:#000000;" x="422.022932406" xlink:href="#mca640233a3" y="87.3714658421"/>
     <use style="stroke:#000000;" x="490.969140439" xlink:href="#mca640233a3" y="124.052393033"/>
     <use style="stroke:#000000;" x="473.398304989" xlink:href="#mca640233a3" y="107.684722822"/>
     <use style="stroke:#000000;" x="425.86243781" xlink:href="#mca640233a3" y="88.3650900356"/>
     <use style="stroke:#000000;" x="298.937202353" xlink:href="#mca640233a3" y="69.0765075221"/>
     <use style="stroke:#000000;" x="434.441133092" xlink:href="#mca640233a3" y="90.8844087414"/>
     <use style="stroke:#000000;" x="370.792147068" xlink:href="#mca640233a3" y="76.6860832965"/>
     <use style="stroke:#000000;" x="387.523970232" xlink:href="#mca640233a3" y="79.6674434037"/>
     <use style="stroke:#000000;" x="405.932861528" xlink:href="#mca640233a3" y="83.9336883099"/>
     <use style="stroke:#000000;" x="496.18278725" xlink:href="#mca640233a3" y="134.746015384"/>
     <use style="stroke:#000000;" x="450.095434466" xlink:href="#mca640233a3" y="96.4745998888"/>
     <use style="stroke:#000000;" x="377.735330451" xlink:href="#mca640233a3" y="78.1436061916"/>
     <use style="stroke:#000000;" x="423.357500412" xlink:href="#mca640233a3" y="87.6960263856"/>
     <use style="stroke:#000000;" x="397.044063182" xlink:href="#mca640233a3" y="81.5490634619"/>
     <use style="stroke:#000000;" x="483.911426225" xlink:href="#mca640233a3" y="115.566930132"/>
     <use style="stroke:#000000;" x="478.068772186" xlink:href="#mca640233a3" y="110.789859799"/>
     <use style="stroke:#000000;" x="495.566772858" xlink:href="#mca640233a3" y="132.237064899"/>
     <use style="stroke:#000000;" x="481.437957941" xlink:href="#mca640233a3" y="113.356843386"/>
     <use style="stroke:#000000;" x="351.710070389" xlink:href="#mca640233a3" y="73.8373715713"/>
     <use style="stroke:#000000;" x="418.93696816" xlink:href="#mca640233a3" y="86.4973077706"/>
     <use style="stroke:#000000;" x="357.138633446" xlink:href="#mca640233a3" y="74.7377489418"/>
     <use style="stroke:#000000;" x="459.901471299" xlink:href="#mca640233a3" y="100.58296593"/>
     <use style="stroke:#000000;" x="444.136772901" xlink:href="#mca640233a3" y="94.3514917556"/>
     <use style="stroke:#000000;" x="428.242280618" xlink:href="#mca640233a3" y="101.767992472"/>
     <use style="stroke:#000000;" x="291.418536681" xlink:href="#mca640233a3" y="71.4531185622"/>
     <use style="stroke:#000000;" x="337.71083613" xlink:href="#mca640233a3" y="99.8249923275"/>
     <use style="stroke:#000000;" x="416.163674646" xlink:href="#mca640233a3" y="98.6505787278"/>
     <use style="stroke:#000000;" x="409.051404723" xlink:href="#mca640233a3" y="103.610799194"/>
     <use style="stroke:#000000;" x="486.026252465" xlink:href="#mca640233a3" y="123.130070335"/>
     <use style="stroke:#000000;" x="345.424190458" xlink:href="#mca640233a3" y="95.9276990496"/>
     <use style="stroke:#000000;" x="416.556515503" xlink:href="#mca640233a3" y="90.4859525023"/>
     <use style="stroke:#000000;" x="434.042599934" xlink:href="#mca640233a3" y="93.5775308393"/>
     <use style="stroke:#000000;" x="435.416285922" xlink:href="#mca640233a3" y="91.668419854"/>
     <use style="stroke:#000000;" x="477.464290372" xlink:href="#mca640233a3" y="111.589647153"/>
     <use style="stroke:#000000;" x="347.769451035" xlink:href="#mca640233a3" y="76.1895471622"/>
     <use style="stroke:#000000;" x="462.980598186" xlink:href="#mca640233a3" y="102.667644986"/>
     <use style="stroke:#000000;" x="329.174990233" xlink:href="#mca640233a3" y="73.1597649032"/>
     <use style="stroke:#000000;" x="292.847491384" xlink:href="#mca640233a3" y="90.6315228131"/>
     <use style="stroke:#000000;" x="484.890551188" xlink:href="#mca640233a3" y="118.446365547"/>
     <use style="stroke:#000000;" x="295.006699568" xlink:href="#mca640233a3" y="69.2197230493"/>
     <use style="stroke:#000000;" x="385.141371673" xlink:href="#mca640233a3" y="79.5874486299"/>
     <use style="stroke:#000000;" x="427.367786626" xlink:href="#mca640233a3" y="89.9805280078"/>
     <use style="stroke:#000000;" x="326.485237529" xlink:href="#mca640233a3" y="85.4992905469"/>
     <use style="stroke:#000000;" x="496.477259323" xlink:href="#mca640233a3" y="136.065107021"/>
     <use style="stroke:#000000;" x="426.299152187" xlink:href="#mca640233a3" y="107.148268206"/>
     <use style="stroke:#000000;" x="469.689856496" xlink:href="#mca640233a3" y="108.425465639"/>
     <use style="stroke:#000000;" x="447.449994884" xlink:href="#mca640233a3" y="95.3029561272"/>
     <use style="stroke:#000000;" x="418.607731974" xlink:href="#mca640233a3" y="86.6107170052"/>
     <use style="stroke:#000000;" x="490.594830232" xlink:href="#mca640233a3" y="124.633268592"/>
     <use style="stroke:#000000;" x="388.125103324" xlink:href="#mca640233a3" y="81.7304824601"/>
     <use style="stroke:#000000;" x="428.963502947" xlink:href="#mca640233a3" y="97.955028368"/>
     <use style="stroke:#000000;" x="478.580464107" xlink:href="#mca640233a3" y="112.74895363"/>
     <use style="stroke:#000000;" x="451.760512503" xlink:href="#mca640233a3" y="104.807172621"/>
     <use style="stroke:#000000;" x="443.65116769" xlink:href="#mca640233a3" y="107.34273778"/>
     <use style="stroke:#000000;" x="441.861985722" xlink:href="#mca640233a3" y="97.0940042373"/>
     <use style="stroke:#000000;" x="300.459018799" xlink:href="#mca640233a3" y="79.7787611502"/>
     <use style="stroke:#000000;" x="291.381167336" xlink:href="#mca640233a3" y="69.2194633428"/>
     <use style="stroke:#000000;" x="450.231235895" xlink:href="#mca640233a3" y="110.876364986"/>
     <use style="stroke:#000000;" x="274.746084933" xlink:href="#mca640233a3" y="68.2501071039"/>
     <use style="stroke:#000000;" x="450.25488415" xlink:href="#mca640233a3" y="98.3238332692"/>
     <use style="stroke:#000000;" x="253.686284116" xlink:href="#mca640233a3" y="67.7804604441"/>
     <use style="stroke:#000000;" x="486.759402602" xlink:href="#mca640233a3" y="118.238525353"/>
     <use style="stroke:#000000;" x="461.420281091" xlink:href="#mca640233a3" y="105.445869639"/>
     <use style="stroke:#000000;" x="392.174429919" xlink:href="#mca640233a3" y="95.5157363782"/>
     <use style="stroke:#000000;" x="496.397904657" xlink:href="#mca640233a3" y="135.308015324"/>
     <use style="stroke:#000000;" x="445.967785911" xlink:href="#mca640233a3" y="95.9653669425"/>
     <use style="stroke:#000000;" x="492.458580153" xlink:href="#mca640233a3" y="125.648058761"/>
     <use style="stroke:#000000;" x="462.525256586" xlink:href="#mca640233a3" y="109.772920784"/>
     <use style="stroke:#000000;" x="277.992709009" xlink:href="#mca640233a3" y="71.5286968984"/>
     <use style="stroke:#000000;" x="408.637150465" xlink:href="#mca640233a3" y="84.0506069877"/>
     <use style="stroke:#000000;" x="472.06714144" xlink:href="#mca640233a3" y="108.184242697"/>
     <use style="stroke:#000000;" x="397.802969694" xlink:href="#mca640233a3" y="102.06748136"/>
     <use style="stroke:#000000;" x="495.629099491" xlink:href="#mca640233a3" y="134.196944246"/>
     <use style="stroke:#000000;" x="300.314344382" xlink:href="#mca640233a3" y="72.0711282052"/>
     <use style="stroke:#000000;" x="241.394807851" xlink:href="#mca640233a3" y="70.4331835984"/>
     <use style="stroke:#000000;" x="234.347783894" xlink:href="#mca640233a3" y="68.3536540889"/>
     <use style="stroke:#000000;" x="483.852538846" xlink:href="#mca640233a3" y="115.418991658"/>
     <use style="stroke:#000000;" x="287.527950586" xlink:href="#mca640233a3" y="80.9662615259"/>
     <use style="stroke:#000000;" x="463.823702082" xlink:href="#mca640233a3" y="102.321252057"/>
     <use style="stroke:#000000;" x="445.183790543" xlink:href="#mca640233a3" y="97.6726697581"/>
     <use style="stroke:#000000;" x="459.532292656" xlink:href="#mca640233a3" y="100.307876005"/>
     <use style="stroke:#000000;" x="456.973251092" xlink:href="#mca640233a3" y="99.5244641595"/>
     <use style="stroke:#000000;" x="475.618507333" xlink:href="#mca640233a3" y="109.079358032"/>
    </g>
   </g>
   <g id="PathCollection_2">
    <defs>
     <path d="M 0 1.936492 
C 0.513564 1.936492 1.006162 1.732451 1.369306 1.369306 
C 1.732451 1.006162 1.936492 0.513564 1.936492 0 
C 1.936492 -0.513564 1.732451 -1.006162 1.369306 -1.369306 
C 1.006162 -1.732451 0.513564 -1.936492 0 -1.936492 
C -0.513564 -1.936492 -1.006162 -1.732451 -1.369306 -1.369306 
C -1.732451 -1.006162 -1.936492 -0.513564 -1.936492 0 
C -1.936492 0.513564 -1.732451 1.006162 -1.369306 1.369306 
C -1.006162 1.732451 -0.513564 1.936492 0 1.936492 
z
" id="m6f40735335" style="stroke:#000000;"/>
    </defs>
    <g clip-path="url(#pa0bb5d674a)">
     <use style="fill:#0000ff;stroke:#000000;" x="448.107534416" xlink:href="#m6f40735335" y="95.6956524601"/>
     <use style="fill:#0000ff;stroke:#000000;" x="496.046729035" xlink:href="#m6f40735335" y="133.827541138"/>
     <use style="fill:#0000ff;stroke:#000000;" x="385.487360306" xlink:href="#m6f40735335" y="79.2158665574"/>
     <use style="fill:#0000ff;stroke:#000000;" x="430.470569531" xlink:href="#m6f40735335" y="89.6806021417"/>
     <use style="fill:#0000ff;stroke:#000000;" x="419.337088098" xlink:href="#m6f40735335" y="86.8937543956"/>
     <use style="fill:#0000ff;stroke:#000000;" x="405.000491243" xlink:href="#m6f40735335" y="83.1621398844"/>
     <use style="fill:#0000ff;stroke:#000000;" x="445.778006623" xlink:href="#m6f40735335" y="94.7345568303"/>
     <use style="fill:#0000ff;stroke:#000000;" x="413.409170966" xlink:href="#m6f40735335" y="85.6586173704"/>
     <use style="fill:#0000ff;stroke:#000000;" x="365.077059353" xlink:href="#m6f40735335" y="75.8399914878"/>
     <use style="fill:#0000ff;stroke:#000000;" x="484.811969425" xlink:href="#m6f40735335" y="116.355815368"/>
     <use style="fill:#0000ff;stroke:#000000;" x="492.732284387" xlink:href="#m6f40735335" y="126.494578516"/>
     <use style="fill:#0000ff;stroke:#000000;" x="477.057800824" xlink:href="#m6f40735335" y="110.580432716"/>
     <use style="fill:#0000ff;stroke:#000000;" x="461.490855835" xlink:href="#m6f40735335" y="101.230687323"/>
     <use style="fill:#0000ff;stroke:#000000;" x="433.613174366" xlink:href="#m6f40735335" y="90.751312347"/>
     <use style="fill:#0000ff;stroke:#000000;" x="469.465199317" xlink:href="#m6f40735335" y="105.409954747"/>
     <use style="fill:#0000ff;stroke:#000000;" x="443.435575444" xlink:href="#m6f40735335" y="94.0318259709"/>
     <use style="fill:#0000ff;stroke:#000000;" x="402.654890163" xlink:href="#m6f40735335" y="82.6473572758"/>
     <use style="fill:#0000ff;stroke:#000000;" x="455.999209557" xlink:href="#m6f40735335" y="98.9082898096"/>
     <use style="fill:#0000ff;stroke:#000000;" x="429.043205014" xlink:href="#m6f40735335" y="89.2628878143"/>
     <use style="fill:#0000ff;stroke:#000000;" x="444.96444758" xlink:href="#m6f40735335" y="94.4811978577"/>
     <use style="fill:#0000ff;stroke:#000000;" x="416.877716377" xlink:href="#m6f40735335" y="86.1005290887"/>
     <use style="fill:#0000ff;stroke:#000000;" x="241.385309441" xlink:href="#m6f40735335" y="66.73346981"/>
     <use style="fill:#0000ff;stroke:#000000;" x="400.110280945" xlink:href="#m6f40735335" y="82.256603974"/>
     <use style="fill:#0000ff;stroke:#000000;" x="437.360999571" xlink:href="#m6f40735335" y="91.8035320907"/>
     <use style="fill:#0000ff;stroke:#000000;" x="462.579300351" xlink:href="#m6f40735335" y="101.907233575"/>
     <use style="fill:#0000ff;stroke:#000000;" x="470.700381164" xlink:href="#m6f40735335" y="106.023862735"/>
     <use style="fill:#0000ff;stroke:#000000;" x="486.362401117" xlink:href="#m6f40735335" y="118.556354843"/>
     <use style="fill:#0000ff;stroke:#000000;" x="467.055210234" xlink:href="#m6f40735335" y="104.003666147"/>
     <use style="fill:#0000ff;stroke:#000000;" x="388.809665089" xlink:href="#m6f40735335" y="79.8379802703"/>
     <use style="fill:#0000ff;stroke:#000000;" x="476.665322156" xlink:href="#m6f40735335" y="110.353726462"/>
     <use style="fill:#0000ff;stroke:#000000;" x="480.114089153" xlink:href="#m6f40735335" y="112.494935741"/>
     <use style="fill:#0000ff;stroke:#000000;" x="473.015307606" xlink:href="#m6f40735335" y="107.408946152"/>
     <use style="fill:#0000ff;stroke:#000000;" x="468.311213067" xlink:href="#m6f40735335" y="104.896935011"/>
     <use style="fill:#0000ff;stroke:#000000;" x="375.175285296" xlink:href="#m6f40735335" y="77.4187442337"/>
     <use style="fill:#0000ff;stroke:#000000;" x="348.39237325" xlink:href="#m6f40735335" y="73.3887704103"/>
     <use style="fill:#0000ff;stroke:#000000;" x="497.024784794" xlink:href="#m6f40735335" y="139.224269198"/>
     <use style="fill:#0000ff;stroke:#000000;" x="494.844243139" xlink:href="#m6f40735335" y="130.343664566"/>
     <use style="fill:#0000ff;stroke:#000000;" x="422.022932406" xlink:href="#m6f40735335" y="87.3714658421"/>
     <use style="fill:#0000ff;stroke:#000000;" x="490.969140439" xlink:href="#m6f40735335" y="124.052393033"/>
     <use style="fill:#0000ff;stroke:#000000;" x="473.398304989" xlink:href="#m6f40735335" y="107.684722822"/>
     <use style="fill:#0000ff;stroke:#000000;" x="425.86243781" xlink:href="#m6f40735335" y="88.3650900356"/>
     <use style="fill:#0000ff;stroke:#000000;" x="298.937202353" xlink:href="#m6f40735335" y="69.0765075221"/>
     <use style="fill:#0000ff;stroke:#000000;" x="434.441133092" xlink:href="#m6f40735335" y="90.8844087414"/>
     <use style="fill:#0000ff;stroke:#000000;" x="370.792147068" xlink:href="#m6f40735335" y="76.6860832965"/>
     <use style="fill:#0000ff;stroke:#000000;" x="387.523970232" xlink:href="#m6f40735335" y="79.6674434037"/>
     <use style="fill:#0000ff;stroke:#000000;" x="405.932861528" xlink:href="#m6f40735335" y="83.9336883099"/>
     <use style="fill:#0000ff;stroke:#000000;" x="496.18278725" xlink:href="#m6f40735335" y="134.746015384"/>
     <use style="fill:#0000ff;stroke:#000000;" x="450.095434466" xlink:href="#m6f40735335" y="96.4745998888"/>
     <use style="fill:#0000ff;stroke:#000000;" x="377.735330451" xlink:href="#m6f40735335" y="78.1436061916"/>
     <use style="fill:#0000ff;stroke:#000000;" x="423.357500412" xlink:href="#m6f40735335" y="87.6960263856"/>
     <use style="fill:#0000ff;stroke:#000000;" x="397.044063182" xlink:href="#m6f40735335" y="81.5490634619"/>
     <use style="fill:#0000ff;stroke:#000000;" x="483.911426225" xlink:href="#m6f40735335" y="115.566930132"/>
     <use style="fill:#0000ff;stroke:#000000;" x="478.068772186" xlink:href="#m6f40735335" y="110.789859799"/>
     <use style="fill:#0000ff;stroke:#000000;" x="495.566772858" xlink:href="#m6f40735335" y="132.237064899"/>
     <use style="fill:#0000ff;stroke:#000000;" x="481.437957941" xlink:href="#m6f40735335" y="113.356843386"/>
     <use style="fill:#0000ff;stroke:#000000;" x="351.710070389" xlink:href="#m6f40735335" y="73.8373715713"/>
     <use style="fill:#0000ff;stroke:#000000;" x="418.93696816" xlink:href="#m6f40735335" y="86.4973077706"/>
     <use style="fill:#0000ff;stroke:#000000;" x="357.138633446" xlink:href="#m6f40735335" y="74.7377489418"/>
     <use style="fill:#0000ff;stroke:#000000;" x="459.901471299" xlink:href="#m6f40735335" y="100.58296593"/>
     <use style="fill:#0000ff;stroke:#000000;" x="444.136772901" xlink:href="#m6f40735335" y="94.3514917556"/>
    </g>
   </g>
   <g id="patch_3">
    <path d="M 72 388.8 
L 518.4 388.8 
" style="fill:none;stroke:#000000;stroke-linecap:square;stroke-linejoin:miter;"/>
   </g>
   <g id="patch_4">
    <path d="M 72 43.2 
L 518.4 43.2 
" style="fill:none;stroke:#000000;stroke-linecap:square;stroke-linejoin:miter;"/>
   </g>
   <g id="patch_5">
    <path d="M 72 388.8 
L 72 43.2 
" style="fill:none;stroke:#000000;stroke-linecap:square;stroke-linejoin:miter;"/>
   </g>
   <g id="patch_6">
    <path d="M 518.4 388.8 
L 518.4 43.2 
" style="fill:none;stroke:#000000;stroke-linecap:square;stroke-linejoin:miter;"/>
   </g>
   <g id="matplotlib.axis_1">
    <g id="xtick_1">
     <g id="line2d_1">
      <defs>
       <path d="M 0 0 
L 0 -4 
" id="m2854d71923" style="stroke:#000000;stroke-width:0.5;"/>
      </defs>
      <g>
       <use style="stroke:#000000;stroke-width:0.5;" x="72.0" xlink:href="#m2854d71923" y="388.8"/>
      </g>
     </g>
     <g id="line2d_2">
      <defs>
       <path d="M 0 0 
L 0 4 
" id="m2ae1cf335f" style="stroke:#000000;stroke-width:0.5;"/>
      </defs>
      <g>
       <use style="stroke:#000000;stroke-width:0.5;" x="72.0" xlink:href="#m2ae1cf335f" y="43.2"/>
      </g>
     </g>
     <g id="text_1">
      <!-- −200 -->
      <defs>
       <path d="M 10.59375 35.5 
L 73.1875 35.5 
L 73.1875 27.203125 
L 10.59375 27.203125 
z
" id="BitstreamVeraSans-Roman-2212"/>
       <path d="M 19.1875 8.296875 
L 53.609375 8.296875 
L 53.609375 0 
L 7.328125 0 
L 7.328125 8.296875 
Q 12.9375 14.109375 22.625 23.890625 
Q 32.328125 33.6875 34.8125 36.53125 
Q 39.546875 41.84375 41.421875 45.53125 
Q 43.3125 49.21875 43.3125 52.78125 
Q 43.3125 58.59375 39.234375 62.25 
Q 35.15625 65.921875 28.609375 65.921875 
Q 23.96875 65.921875 18.8125 64.3125 
Q 13.671875 62.703125 7.8125 59.421875 
L 7.8125 69.390625 
Q 13.765625 71.78125 18.9375 73 
Q 24.125 74.21875 28.421875 74.21875 
Q 39.75 74.21875 46.484375 68.546875 
Q 53.21875 62.890625 53.21875 53.421875 
Q 53.21875 48.921875 51.53125 44.890625 
Q 49.859375 40.875 45.40625 35.40625 
Q 44.1875 33.984375 37.640625 27.21875 
Q 31.109375 20.453125 19.1875 8.296875 
" id="BitstreamVeraSans-Roman-32"/>
       <path d="M 31.78125 66.40625 
Q 24.171875 66.40625 20.328125 58.90625 
Q 16.5 51.421875 16.5 36.375 
Q 16.5 21.390625 20.328125 13.890625 
Q 24.171875 6.390625 31.78125 6.390625 
Q 39.453125 6.390625 43.28125 13.890625 
Q 47.125 21.390625 47.125 36.375 
Q 47.125 51.421875 43.28125 58.90625 
Q 39.453125 66.40625 31.78125 66.40625 
M 31.78125 74.21875 
Q 44.046875 74.21875 50.515625 64.515625 
Q 56.984375 54.828125 56.984375 36.375 
Q 56.984375 17.96875 50.515625 8.265625 
Q 44.046875 -1.421875 31.78125 -1.421875 
Q 19.53125 -1.421875 13.0625 8.265625 
Q 6.59375 17.96875 6.59375 36.375 
Q 6.59375 54.828125 13.0625 64.515625 
Q 19.53125 74.21875 31.78125 74.21875 
" id="BitstreamVeraSans-Roman-30"/>
      </defs>
      <g transform="translate(55.5196875 401.918125)scale(0.12 -0.12)">
       <use xlink:href="#BitstreamVeraSans-Roman-2212"/>
       <use x="83.7890625" xlink:href="#BitstreamVeraSans-Roman-32"/>
       <use x="147.412109375" xlink:href="#BitstreamVeraSans-Roman-30"/>
       <use x="211.03515625" xlink:href="#BitstreamVeraSans-Roman-30"/>
      </g>
     </g>
    </g>
    <g id="xtick_2">
     <g id="line2d_3">
      <g>
       <use style="stroke:#000000;stroke-width:0.5;" x="178.285714286" xlink:href="#m2854d71923" y="388.8"/>
      </g>
     </g>
     <g id="line2d_4">
      <g>
       <use style="stroke:#000000;stroke-width:0.5;" x="178.285714286" xlink:href="#m2ae1cf335f" y="43.2"/>
      </g>
     </g>
     <g id="text_2">
      <!-- −150 -->
      <defs>
       <path d="M 12.40625 8.296875 
L 28.515625 8.296875 
L 28.515625 63.921875 
L 10.984375 60.40625 
L 10.984375 69.390625 
L 28.421875 72.90625 
L 38.28125 72.90625 
L 38.28125 8.296875 
L 54.390625 8.296875 
L 54.390625 0 
L 12.40625 0 
z
" id="BitstreamVeraSans-Roman-31"/>
       <path d="M 10.796875 72.90625 
L 49.515625 72.90625 
L 49.515625 64.59375 
L 19.828125 64.59375 
L 19.828125 46.734375 
Q 21.96875 47.46875 24.109375 47.828125 
Q 26.265625 48.1875 28.421875 48.1875 
Q 40.625 48.1875 47.75 41.5 
Q 54.890625 34.8125 54.890625 23.390625 
Q 54.890625 11.625 47.5625 5.09375 
Q 40.234375 -1.421875 26.90625 -1.421875 
Q 22.3125 -1.421875 17.546875 -0.640625 
Q 12.796875 0.140625 7.71875 1.703125 
L 7.71875 11.625 
Q 12.109375 9.234375 16.796875 8.0625 
Q 21.484375 6.890625 26.703125 6.890625 
Q 35.15625 6.890625 40.078125 11.328125 
Q 45.015625 15.765625 45.015625 23.390625 
Q 45.015625 31 40.078125 35.4375 
Q 35.15625 39.890625 26.703125 39.890625 
Q 22.75 39.890625 18.8125 39.015625 
Q 14.890625 38.140625 10.796875 36.28125 
z
" id="BitstreamVeraSans-Roman-35"/>
      </defs>
      <g transform="translate(161.805401786 401.918125)scale(0.12 -0.12)">
       <use xlink:href="#BitstreamVeraSans-Roman-2212"/>
       <use x="83.7890625" xlink:href="#BitstreamVeraSans-Roman-31"/>
       <use x="147.412109375" xlink:href="#BitstreamVeraSans-Roman-35"/>
       <use x="211.03515625" xlink:href="#BitstreamVeraSans-Roman-30"/>
      </g>
     </g>
    </g>
    <g id="xtick_3">
     <g id="line2d_5">
      <g>
       <use style="stroke:#000000;stroke-width:0.5;" x="284.571428571" xlink:href="#m2854d71923" y="388.8"/>
      </g>
     </g>
     <g id="line2d_6">
      <g>
       <use style="stroke:#000000;stroke-width:0.5;" x="284.571428571" xlink:href="#m2ae1cf335f" y="43.2"/>
      </g>
     </g>
     <g id="text_3">
      <!-- −100 -->
      <g transform="translate(268.091116071 401.918125)scale(0.12 -0.12)">
       <use xlink:href="#BitstreamVeraSans-Roman-2212"/>
       <use x="83.7890625" xlink:href="#BitstreamVeraSans-Roman-31"/>
       <use x="147.412109375" xlink:href="#BitstreamVeraSans-Roman-30"/>
       <use x="211.03515625" xlink:href="#BitstreamVeraSans-Roman-30"/>
      </g>
     </g>
    </g>
    <g id="xtick_4">
     <g id="line2d_7">
      <g>
       <use style="stroke:#000000;stroke-width:0.5;" x="390.857142857" xlink:href="#m2854d71923" y="388.8"/>
      </g>
     </g>
     <g id="line2d_8">
      <g>
       <use style="stroke:#000000;stroke-width:0.5;" x="390.857142857" xlink:href="#m2ae1cf335f" y="43.2"/>
      </g>
     </g>
     <g id="text_4">
      <!-- −50 -->
      <g transform="translate(378.194330357 401.918125)scale(0.12 -0.12)">
       <use xlink:href="#BitstreamVeraSans-Roman-2212"/>
       <use x="83.7890625" xlink:href="#BitstreamVeraSans-Roman-35"/>
       <use x="147.412109375" xlink:href="#BitstreamVeraSans-Roman-30"/>
      </g>
     </g>
    </g>
    <g id="xtick_5">
     <g id="line2d_9">
      <g>
       <use style="stroke:#000000;stroke-width:0.5;" x="497.142857143" xlink:href="#m2854d71923" y="388.8"/>
      </g>
     </g>
     <g id="line2d_10">
      <g>
       <use style="stroke:#000000;stroke-width:0.5;" x="497.142857143" xlink:href="#m2ae1cf335f" y="43.2"/>
      </g>
     </g>
     <g id="text_5">
      <!-- 0 -->
      <g transform="translate(493.325357143 401.918125)scale(0.12 -0.12)">
       <use xlink:href="#BitstreamVeraSans-Roman-30"/>
      </g>
     </g>
    </g>
   </g>
   <g id="matplotlib.axis_2">
    <g id="ytick_1">
     <g id="line2d_11">
      <defs>
       <path d="M 0 0 
L 4 0 
" id="mf14b9fad09" style="stroke:#000000;stroke-width:0.5;"/>
      </defs>
      <g>
       <use style="stroke:#000000;stroke-width:0.5;" x="72.0" xlink:href="#mf14b9fad09" y="388.8"/>
      </g>
     </g>
     <g id="line2d_12">
      <defs>
       <path d="M 0 0 
L -4 0 
" id="m4d70a1b861" style="stroke:#000000;stroke-width:0.5;"/>
      </defs>
      <g>
       <use style="stroke:#000000;stroke-width:0.5;" x="518.4" xlink:href="#m4d70a1b861" y="388.8"/>
      </g>
     </g>
     <g id="text_6">
      <!-- −200 -->
      <g transform="translate(35.039375 392.11125)scale(0.12 -0.12)">
       <use xlink:href="#BitstreamVeraSans-Roman-2212"/>
       <use x="83.7890625" xlink:href="#BitstreamVeraSans-Roman-32"/>
       <use x="147.412109375" xlink:href="#BitstreamVeraSans-Roman-30"/>
       <use x="211.03515625" xlink:href="#BitstreamVeraSans-Roman-30"/>
      </g>
     </g>
    </g>
    <g id="ytick_2">
     <g id="line2d_13">
      <g>
       <use style="stroke:#000000;stroke-width:0.5;" x="72.0" xlink:href="#mf14b9fad09" y="306.514285714"/>
      </g>
     </g>
     <g id="line2d_14">
      <g>
       <use style="stroke:#000000;stroke-width:0.5;" x="518.4" xlink:href="#m4d70a1b861" y="306.514285714"/>
      </g>
     </g>
     <g id="text_7">
      <!-- −150 -->
      <g transform="translate(35.039375 309.825535714)scale(0.12 -0.12)">
       <use xlink:href="#BitstreamVeraSans-Roman-2212"/>
       <use x="83.7890625" xlink:href="#BitstreamVeraSans-Roman-31"/>
       <use x="147.412109375" xlink:href="#BitstreamVeraSans-Roman-35"/>
       <use x="211.03515625" xlink:href="#BitstreamVeraSans-Roman-30"/>
      </g>
     </g>
    </g>
    <g id="ytick_3">
     <g id="line2d_15">
      <g>
       <use style="stroke:#000000;stroke-width:0.5;" x="72.0" xlink:href="#mf14b9fad09" y="224.228571429"/>
      </g>
     </g>
     <g id="line2d_16">
      <g>
       <use style="stroke:#000000;stroke-width:0.5;" x="518.4" xlink:href="#m4d70a1b861" y="224.228571429"/>
      </g>
     </g>
     <g id="text_8">
      <!-- −100 -->
      <g transform="translate(35.039375 227.539821429)scale(0.12 -0.12)">
       <use xlink:href="#BitstreamVeraSans-Roman-2212"/>
       <use x="83.7890625" xlink:href="#BitstreamVeraSans-Roman-31"/>
       <use x="147.412109375" xlink:href="#BitstreamVeraSans-Roman-30"/>
       <use x="211.03515625" xlink:href="#BitstreamVeraSans-Roman-30"/>
      </g>
     </g>
    </g>
    <g id="ytick_4">
     <g id="line2d_17">
      <g>
       <use style="stroke:#000000;stroke-width:0.5;" x="72.0" xlink:href="#mf14b9fad09" y="141.942857143"/>
      </g>
     </g>
     <g id="line2d_18">
      <g>
       <use style="stroke:#000000;stroke-width:0.5;" x="518.4" xlink:href="#m4d70a1b861" y="141.942857143"/>
      </g>
     </g>
     <g id="text_9">
      <!-- −50 -->
      <g transform="translate(42.674375 145.254107143)scale(0.12 -0.12)">
       <use xlink:href="#BitstreamVeraSans-Roman-2212"/>
       <use x="83.7890625" xlink:href="#BitstreamVeraSans-Roman-35"/>
       <use x="147.412109375" xlink:href="#BitstreamVeraSans-Roman-30"/>
      </g>
     </g>
    </g>
    <g id="ytick_5">
     <g id="line2d_19">
      <g>
       <use style="stroke:#000000;stroke-width:0.5;" x="72.0" xlink:href="#mf14b9fad09" y="59.6571428571"/>
      </g>
     </g>
     <g id="line2d_20">
      <g>
       <use style="stroke:#000000;stroke-width:0.5;" x="518.4" xlink:href="#m4d70a1b861" y="59.6571428571"/>
      </g>
     </g>
     <g id="text_10">
      <!-- 0 -->
      <g transform="translate(60.365 62.9683928571)scale(0.12 -0.12)">
       <use xlink:href="#BitstreamVeraSans-Roman-30"/>
      </g>
     </g>
    </g>
   </g>
  </g>
 </g>
 <defs>
  <clipPath id="pa0bb5d674a">
   <rect height="345.6" width="446.4" x="72.0" y="43.2"/>
  </clipPath>
 </defs>
</svg>
