<?xml version="1.0" encoding="utf-8" standalone="no"?>
<!DOCTYPE svg PUBLIC "-//W3C//DTD SVG 1.1//EN"
  "http://www.w3.org/Graphics/SVG/1.1/DTD/svg11.dtd">
<!-- Created with matplotlib (http://matplotlib.org/) -->
<svg height="432pt" version="1.1" viewBox="0 0 576 432" width="576pt" xmlns="http://www.w3.org/2000/svg" xmlns:xlink="http://www.w3.org/1999/xlink">
 <defs>
  <style type="text/css">
*{stroke-linecap:butt;stroke-linejoin:round;stroke-miterlimit:100000;}
  </style>
 </defs>
 <g id="figure_1">
  <g id="patch_1">
   <path d="M 0 432 
L 576 432 
L 576 0 
L 0 0 
z
" style="fill:#ffffff;"/>
  </g>
  <g id="axes_1">
   <g id="patch_2">
    <path d="M 72 388.8 
L 518.4 388.8 
L 518.4 43.2 
L 72 43.2 
z
" style="fill:#ffffff;"/>
   </g>
   <g id="PathCollection_1">
    <defs>
     <path d="M 0 1.118034 
C 0.296506 1.118034 0.580908 1.000231 0.790569 0.790569 
C 1.000231 0.580908 1.118034 0.296506 1.118034 0 
C 1.118034 -0.296506 1.000231 -0.580908 0.790569 -0.790569 
C 0.580908 -1.000231 0.296506 -1.118034 0 -1.118034 
C -0.296506 -1.118034 -0.580908 -1.000231 -0.790569 -0.790569 
C -1.000231 -0.580908 -1.118034 -0.296506 -1.118034 0 
C -1.118034 0.296506 -1.000231 0.580908 -0.790569 0.790569 
C -0.580908 1.000231 -0.296506 1.118034 0 1.118034 
z
" id="m3447bd3444" style="stroke:#000000;"/>
    </defs>
    <g clip-path="url(#p04b4f34a1a)">
     <use style="stroke:#000000;" x="475.618507333" xlink:href="#m3447bd3444" y="109.079358032"/>
     <use style="stroke:#000000;" x="448.107534416" xlink:href="#m3447bd3444" y="95.6956524601"/>
     <use style="stroke:#000000;" x="405.000491243" xlink:href="#m3447bd3444" y="83.1621398844"/>
     <use style="stroke:#000000;" x="445.778006623" xlink:href="#m3447bd3444" y="94.7345568303"/>
     <use style="stroke:#000000;" x="413.409170966" xlink:href="#m3447bd3444" y="85.6586173704"/>
     <use style="stroke:#000000;" x="419.337088098" xlink:href="#m3447bd3444" y="86.8937543956"/>
     <use style="stroke:#000000;" x="365.077059353" xlink:href="#m3447bd3444" y="75.8399914878"/>
     <use style="stroke:#000000;" x="484.811969425" xlink:href="#m3447bd3444" y="116.355815368"/>
     <use style="stroke:#000000;" x="492.732284387" xlink:href="#m3447bd3444" y="126.494578516"/>
     <use style="stroke:#000000;" x="385.487360306" xlink:href="#m3447bd3444" y="79.2158665574"/>
     <use style="stroke:#000000;" x="430.470569531" xlink:href="#m3447bd3444" y="89.6806021417"/>
     <use style="stroke:#000000;" x="461.490855835" xlink:href="#m3447bd3444" y="101.230687323"/>
     <use style="stroke:#000000;" x="477.057800824" xlink:href="#m3447bd3444" y="110.580432716"/>
     <use style="stroke:#000000;" x="496.046729035" xlink:href="#m3447bd3444" y="133.827541138"/>
     <use style="stroke:#000000;" x="433.613174366" xlink:href="#m3447bd3444" y="90.751312347"/>
     <use style="stroke:#000000;" x="469.465199317" xlink:href="#m3447bd3444" y="105.409954747"/>
     <use style="stroke:#000000;" x="443.435575444" xlink:href="#m3447bd3444" y="94.0318259709"/>
     <use style="stroke:#000000;" x="402.654890163" xlink:href="#m3447bd3444" y="82.6473572758"/>
     <use style="stroke:#000000;" x="455.999209557" xlink:href="#m3447bd3444" y="98.9082898096"/>
     <use style="stroke:#000000;" x="429.043205014" xlink:href="#m3447bd3444" y="89.2628878143"/>
     <use style="stroke:#000000;" x="444.96444758" xlink:href="#m3447bd3444" y="94.4811978577"/>
     <use style="stroke:#000000;" x="416.877716377" xlink:href="#m3447bd3444" y="86.1005290887"/>
     <use style="stroke:#000000;" x="241.385309441" xlink:href="#m3447bd3444" y="66.73346981"/>
     <use style="stroke:#000000;" x="400.110280945" xlink:href="#m3447bd3444" y="82.256603974"/>
     <use style="stroke:#000000;" x="437.360999571" xlink:href="#m3447bd3444" y="91.8035320907"/>
     <use style="stroke:#000000;" x="462.579300351" xlink:href="#m3447bd3444" y="101.907233575"/>
     <use style="stroke:#000000;" x="470.700381164" xlink:href="#m3447bd3444" y="106.023862735"/>
     <use style="stroke:#000000;" x="467.055210234" xlink:href="#m3447bd3444" y="104.003666147"/>
     <use style="stroke:#000000;" x="388.809665089" xlink:href="#m3447bd3444" y="79.8379802703"/>
     <use style="stroke:#000000;" x="476.665322156" xlink:href="#m3447bd3444" y="110.353726462"/>
     <use style="stroke:#000000;" x="480.114089153" xlink:href="#m3447bd3444" y="112.494935741"/>
     <use style="stroke:#000000;" x="473.015307606" xlink:href="#m3447bd3444" y="107.408946152"/>
     <use style="stroke:#000000;" x="468.311213067" xlink:href="#m3447bd3444" y="104.896935011"/>
     <use style="stroke:#000000;" x="375.175285296" xlink:href="#m3447bd3444" y="77.4187442337"/>
     <use style="stroke:#000000;" x="348.39237325" xlink:href="#m3447bd3444" y="73.3887704103"/>
     <use style="stroke:#000000;" x="497.024784794" xlink:href="#m3447bd3444" y="139.224269198"/>
     <use style="stroke:#000000;" x="494.844243139" xlink:href="#m3447bd3444" y="130.343664566"/>
     <use style="stroke:#000000;" x="422.022932406" xlink:href="#m3447bd3444" y="87.3714658421"/>
     <use style="stroke:#000000;" x="490.969140439" xlink:href="#m3447bd3444" y="124.052393033"/>
     <use style="stroke:#000000;" x="473.398304989" xlink:href="#m3447bd3444" y="107.684722822"/>
     <use style="stroke:#000000;" x="425.86243781" xlink:href="#m3447bd3444" y="88.3650900356"/>
     <use style="stroke:#000000;" x="298.937202353" xlink:href="#m3447bd3444" y="69.0765075221"/>
     <use style="stroke:#000000;" x="434.441133092" xlink:href="#m3447bd3444" y="90.8844087414"/>
     <use style="stroke:#000000;" x="387.523970232" xlink:href="#m3447bd3444" y="79.6674434037"/>
     <use style="stroke:#000000;" x="370.792147068" xlink:href="#m3447bd3444" y="76.6860832965"/>
     <use style="stroke:#000000;" x="405.932861528" xlink:href="#m3447bd3444" y="83.9336883099"/>
     <use style="stroke:#000000;" x="496.18278725" xlink:href="#m3447bd3444" y="134.746015384"/>
     <use style="stroke:#000000;" x="450.095434466" xlink:href="#m3447bd3444" y="96.4745998888"/>
     <use style="stroke:#000000;" x="377.735330451" xlink:href="#m3447bd3444" y="78.1436061916"/>
     <use style="stroke:#000000;" x="423.357500412" xlink:href="#m3447bd3444" y="87.6960263856"/>
     <use style="stroke:#000000;" x="397.044063182" xlink:href="#m3447bd3444" y="81.5490634619"/>
     <use style="stroke:#000000;" x="483.911426225" xlink:href="#m3447bd3444" y="115.566930132"/>
     <use style="stroke:#000000;" x="478.068772186" xlink:href="#m3447bd3444" y="110.789859799"/>
     <use style="stroke:#000000;" x="495.566772858" xlink:href="#m3447bd3444" y="132.237064899"/>
     <use style="stroke:#000000;" x="481.437957941" xlink:href="#m3447bd3444" y="113.356843386"/>
     <use style="stroke:#000000;" x="351.710070389" xlink:href="#m3447bd3444" y="73.8373715713"/>
     <use style="stroke:#000000;" x="418.93696816" xlink:href="#m3447bd3444" y="86.4973077706"/>
     <use style="stroke:#000000;" x="357.138633446" xlink:href="#m3447bd3444" y="74.7377489418"/>
     <use style="stroke:#000000;" x="459.901471299" xlink:href="#m3447bd3444" y="100.58296593"/>
     <use style="stroke:#000000;" x="444.136772901" xlink:href="#m3447bd3444" y="94.3514917556"/>
     <use style="stroke:#000000;" x="476.033328218" xlink:href="#m3447bd3444" y="111.359138189"/>
     <use style="stroke:#000000;" x="351.023159455" xlink:href="#m3447bd3444" y="85.1015788112"/>
     <use style="stroke:#000000;" x="415.957000158" xlink:href="#m3447bd3444" y="85.7586213561"/>
     <use style="stroke:#000000;" x="453.21867897" xlink:href="#m3447bd3444" y="102.77764017"/>
     <use style="stroke:#000000;" x="279.235919238" xlink:href="#m3447bd3444" y="68.5826106"/>
     <use style="stroke:#000000;" x="322.004791054" xlink:href="#m3447bd3444" y="76.8726353029"/>
     <use style="stroke:#000000;" x="312.821002533" xlink:href="#m3447bd3444" y="74.7348826997"/>
     <use style="stroke:#000000;" x="443.389016314" xlink:href="#m3447bd3444" y="98.2404265977"/>
     <use style="stroke:#000000;" x="285.149716579" xlink:href="#m3447bd3444" y="71.2221808494"/>
     <use style="stroke:#000000;" x="480.885829027" xlink:href="#m3447bd3444" y="112.910309818"/>
     <use style="stroke:#000000;" x="374.046544299" xlink:href="#m3447bd3444" y="80.859451327"/>
     <use style="stroke:#000000;" x="431.671970281" xlink:href="#m3447bd3444" y="94.8538021018"/>
     <use style="stroke:#000000;" x="366.819533968" xlink:href="#m3447bd3444" y="81.1715902243"/>
     <use style="stroke:#000000;" x="312.329249345" xlink:href="#m3447bd3444" y="76.0550401655"/>
     <use style="stroke:#000000;" x="417.159401271" xlink:href="#m3447bd3444" y="90.43305152"/>
     <use style="stroke:#000000;" x="325.283237691" xlink:href="#m3447bd3444" y="89.5210336838"/>
     <use style="stroke:#000000;" x="326.723160386" xlink:href="#m3447bd3444" y="86.380477742"/>
     <use style="stroke:#000000;" x="403.129708599" xlink:href="#m3447bd3444" y="97.5497895886"/>
     <use style="stroke:#000000;" x="460.416945466" xlink:href="#m3447bd3444" y="104.693135504"/>
     <use style="stroke:#000000;" x="287.048366859" xlink:href="#m3447bd3444" y="69.463307666"/>
     <use style="stroke:#000000;" x="459.102038106" xlink:href="#m3447bd3444" y="100.093510956"/>
     <use style="stroke:#000000;" x="491.969259783" xlink:href="#m3447bd3444" y="129.932706986"/>
     <use style="stroke:#000000;" x="480.677979079" xlink:href="#m3447bd3444" y="118.506296255"/>
     <use style="stroke:#000000;" x="425.049830848" xlink:href="#m3447bd3444" y="98.887344022"/>
     <use style="stroke:#000000;" x="487.313570972" xlink:href="#m3447bd3444" y="119.767058517"/>
     <use style="stroke:#000000;" x="403.145159431" xlink:href="#m3447bd3444" y="97.2434803055"/>
     <use style="stroke:#000000;" x="437.200249036" xlink:href="#m3447bd3444" y="105.003544808"/>
     <use style="stroke:#000000;" x="436.587547277" xlink:href="#m3447bd3444" y="96.2043526192"/>
     <use style="stroke:#000000;" x="429.11081613" xlink:href="#m3447bd3444" y="95.88287149"/>
     <use style="stroke:#000000;" x="284.148839109" xlink:href="#m3447bd3444" y="79.0569343281"/>
     <use style="stroke:#000000;" x="352.881312097" xlink:href="#m3447bd3444" y="74.5202662703"/>
     <use style="stroke:#000000;" x="419.615230727" xlink:href="#m3447bd3444" y="91.4649714307"/>
     <use style="stroke:#000000;" x="360.746549037" xlink:href="#m3447bd3444" y="84.5440570144"/>
     <use style="stroke:#000000;" x="407.681199072" xlink:href="#m3447bd3444" y="96.4943572501"/>
     <use style="stroke:#000000;" x="454.060737068" xlink:href="#m3447bd3444" y="108.851634051"/>
     <use style="stroke:#000000;" x="335.219791285" xlink:href="#m3447bd3444" y="98.1549341519"/>
     <use style="stroke:#000000;" x="344.620406721" xlink:href="#m3447bd3444" y="94.6847396678"/>
     <use style="stroke:#000000;" x="310.261636296" xlink:href="#m3447bd3444" y="85.1905912325"/>
     <use style="stroke:#000000;" x="368.506729759" xlink:href="#m3447bd3444" y="90.7186004341"/>
     <use style="stroke:#000000;" x="458.467565596" xlink:href="#m3447bd3444" y="101.255454902"/>
     <use style="stroke:#000000;" x="465.663156617" xlink:href="#m3447bd3444" y="108.883378845"/>
     <use style="stroke:#000000;" x="448.838630226" xlink:href="#m3447bd3444" y="97.8434861887"/>
     <use style="stroke:#000000;" x="477.62406725" xlink:href="#m3447bd3444" y="111.594496282"/>
     <use style="stroke:#000000;" x="465.956937722" xlink:href="#m3447bd3444" y="113.525920117"/>
     <use style="stroke:#000000;" x="312.23694714" xlink:href="#m3447bd3444" y="87.395138119"/>
     <use style="stroke:#000000;" x="399.626849135" xlink:href="#m3447bd3444" y="83.2683674644"/>
     <use style="stroke:#000000;" x="407.196331206" xlink:href="#m3447bd3444" y="84.1143609749"/>
     <use style="stroke:#000000;" x="340.338780378" xlink:href="#m3447bd3444" y="86.4821836056"/>
     <use style="stroke:#000000;" x="495.121025225" xlink:href="#m3447bd3444" y="132.549792017"/>
     <use style="stroke:#000000;" x="493.275965327" xlink:href="#m3447bd3444" y="128.09389462"/>
     <use style="stroke:#000000;" x="257.038489835" xlink:href="#m3447bd3444" y="68.8699755312"/>
     <use style="stroke:#000000;" x="421.340832127" xlink:href="#m3447bd3444" y="92.7050044243"/>
     <use style="stroke:#000000;" x="304.383566218" xlink:href="#m3447bd3444" y="91.9422383095"/>
     <use style="stroke:#000000;" x="444.394035136" xlink:href="#m3447bd3444" y="97.5546324402"/>
     <use style="stroke:#000000;" x="425.966463569" xlink:href="#m3447bd3444" y="98.538871433"/>
     <use style="stroke:#000000;" x="385.640473364" xlink:href="#m3447bd3444" y="80.1969877284"/>
     <use style="stroke:#000000;" x="461.209731395" xlink:href="#m3447bd3444" y="104.851368471"/>
     <use style="stroke:#000000;" x="383.626404957" xlink:href="#m3447bd3444" y="80.2999982439"/>
     <use style="stroke:#000000;" x="246.488248741" xlink:href="#m3447bd3444" y="67.4090929488"/>
     <use style="stroke:#000000;" x="463.509630276" xlink:href="#m3447bd3444" y="111.445158755"/>
    </g>
   </g>
   <g id="PathCollection_2">
    <defs>
     <path d="M 0 1.936492 
C 0.513564 1.936492 1.006162 1.732451 1.369306 1.369306 
C 1.732451 1.006162 1.936492 0.513564 1.936492 0 
C 1.936492 -0.513564 1.732451 -1.006162 1.369306 -1.369306 
C 1.006162 -1.732451 0.513564 -1.936492 0 -1.936492 
C -0.513564 -1.936492 -1.006162 -1.732451 -1.369306 -1.369306 
C -1.732451 -1.006162 -1.936492 -0.513564 -1.936492 0 
C -1.936492 0.513564 -1.732451 1.006162 -1.369306 1.369306 
C -1.006162 1.732451 -0.513564 1.936492 0 1.936492 
z
" id="m207e0c0b5d" style="stroke:#000000;"/>
    </defs>
    <g clip-path="url(#p04b4f34a1a)">
     <use style="fill:#0000ff;stroke:#000000;" x="475.618507333" xlink:href="#m207e0c0b5d" y="109.079358032"/>
     <use style="fill:#0000ff;stroke:#000000;" x="448.107534416" xlink:href="#m207e0c0b5d" y="95.6956524601"/>
     <use style="fill:#0000ff;stroke:#000000;" x="405.000491243" xlink:href="#m207e0c0b5d" y="83.1621398844"/>
     <use style="fill:#0000ff;stroke:#000000;" x="445.778006623" xlink:href="#m207e0c0b5d" y="94.7345568303"/>
     <use style="fill:#0000ff;stroke:#000000;" x="413.409170966" xlink:href="#m207e0c0b5d" y="85.6586173704"/>
     <use style="fill:#0000ff;stroke:#000000;" x="419.337088098" xlink:href="#m207e0c0b5d" y="86.8937543956"/>
     <use style="fill:#0000ff;stroke:#000000;" x="365.077059353" xlink:href="#m207e0c0b5d" y="75.8399914878"/>
     <use style="fill:#0000ff;stroke:#000000;" x="484.811969425" xlink:href="#m207e0c0b5d" y="116.355815368"/>
     <use style="fill:#0000ff;stroke:#000000;" x="492.732284387" xlink:href="#m207e0c0b5d" y="126.494578516"/>
     <use style="fill:#0000ff;stroke:#000000;" x="385.487360306" xlink:href="#m207e0c0b5d" y="79.2158665574"/>
     <use style="fill:#0000ff;stroke:#000000;" x="430.470569531" xlink:href="#m207e0c0b5d" y="89.6806021417"/>
     <use style="fill:#0000ff;stroke:#000000;" x="461.490855835" xlink:href="#m207e0c0b5d" y="101.230687323"/>
     <use style="fill:#0000ff;stroke:#000000;" x="477.057800824" xlink:href="#m207e0c0b5d" y="110.580432716"/>
     <use style="fill:#0000ff;stroke:#000000;" x="496.046729035" xlink:href="#m207e0c0b5d" y="133.827541138"/>
     <use style="fill:#0000ff;stroke:#000000;" x="433.613174366" xlink:href="#m207e0c0b5d" y="90.751312347"/>
     <use style="fill:#0000ff;stroke:#000000;" x="469.465199317" xlink:href="#m207e0c0b5d" y="105.409954747"/>
     <use style="fill:#0000ff;stroke:#000000;" x="443.435575444" xlink:href="#m207e0c0b5d" y="94.0318259709"/>
     <use style="fill:#0000ff;stroke:#000000;" x="402.654890163" xlink:href="#m207e0c0b5d" y="82.6473572758"/>
     <use style="fill:#0000ff;stroke:#000000;" x="455.999209557" xlink:href="#m207e0c0b5d" y="98.9082898096"/>
     <use style="fill:#0000ff;stroke:#000000;" x="429.043205014" xlink:href="#m207e0c0b5d" y="89.2628878143"/>
     <use style="fill:#0000ff;stroke:#000000;" x="444.96444758" xlink:href="#m207e0c0b5d" y="94.4811978577"/>
     <use style="fill:#0000ff;stroke:#000000;" x="416.877716377" xlink:href="#m207e0c0b5d" y="86.1005290887"/>
     <use style="fill:#0000ff;stroke:#000000;" x="241.385309441" xlink:href="#m207e0c0b5d" y="66.73346981"/>
     <use style="fill:#0000ff;stroke:#000000;" x="400.110280945" xlink:href="#m207e0c0b5d" y="82.256603974"/>
     <use style="fill:#0000ff;stroke:#000000;" x="437.360999571" xlink:href="#m207e0c0b5d" y="91.8035320907"/>
     <use style="fill:#0000ff;stroke:#000000;" x="462.579300351" xlink:href="#m207e0c0b5d" y="101.907233575"/>
     <use style="fill:#0000ff;stroke:#000000;" x="470.700381164" xlink:href="#m207e0c0b5d" y="106.023862735"/>
     <use style="fill:#0000ff;stroke:#000000;" x="467.055210234" xlink:href="#m207e0c0b5d" y="104.003666147"/>
     <use style="fill:#0000ff;stroke:#000000;" x="388.809665089" xlink:href="#m207e0c0b5d" y="79.8379802703"/>
     <use style="fill:#0000ff;stroke:#000000;" x="476.665322156" xlink:href="#m207e0c0b5d" y="110.353726462"/>
     <use style="fill:#0000ff;stroke:#000000;" x="480.114089153" xlink:href="#m207e0c0b5d" y="112.494935741"/>
     <use style="fill:#0000ff;stroke:#000000;" x="473.015307606" xlink:href="#m207e0c0b5d" y="107.408946152"/>
     <use style="fill:#0000ff;stroke:#000000;" x="468.311213067" xlink:href="#m207e0c0b5d" y="104.896935011"/>
     <use style="fill:#0000ff;stroke:#000000;" x="375.175285296" xlink:href="#m207e0c0b5d" y="77.4187442337"/>
     <use style="fill:#0000ff;stroke:#000000;" x="348.39237325" xlink:href="#m207e0c0b5d" y="73.3887704103"/>
     <use style="fill:#0000ff;stroke:#000000;" x="497.024784794" xlink:href="#m207e0c0b5d" y="139.224269198"/>
     <use style="fill:#0000ff;stroke:#000000;" x="494.844243139" xlink:href="#m207e0c0b5d" y="130.343664566"/>
     <use style="fill:#0000ff;stroke:#000000;" x="422.022932406" xlink:href="#m207e0c0b5d" y="87.3714658421"/>
     <use style="fill:#0000ff;stroke:#000000;" x="490.969140439" xlink:href="#m207e0c0b5d" y="124.052393033"/>
     <use style="fill:#0000ff;stroke:#000000;" x="473.398304989" xlink:href="#m207e0c0b5d" y="107.684722822"/>
     <use style="fill:#0000ff;stroke:#000000;" x="425.86243781" xlink:href="#m207e0c0b5d" y="88.3650900356"/>
     <use style="fill:#0000ff;stroke:#000000;" x="298.937202353" xlink:href="#m207e0c0b5d" y="69.0765075221"/>
     <use style="fill:#0000ff;stroke:#000000;" x="434.441133092" xlink:href="#m207e0c0b5d" y="90.8844087414"/>
     <use style="fill:#0000ff;stroke:#000000;" x="387.523970232" xlink:href="#m207e0c0b5d" y="79.6674434037"/>
     <use style="fill:#0000ff;stroke:#000000;" x="370.792147068" xlink:href="#m207e0c0b5d" y="76.6860832965"/>
     <use style="fill:#0000ff;stroke:#000000;" x="405.932861528" xlink:href="#m207e0c0b5d" y="83.9336883099"/>
     <use style="fill:#0000ff;stroke:#000000;" x="496.18278725" xlink:href="#m207e0c0b5d" y="134.746015384"/>
     <use style="fill:#0000ff;stroke:#000000;" x="450.095434466" xlink:href="#m207e0c0b5d" y="96.4745998888"/>
     <use style="fill:#0000ff;stroke:#000000;" x="377.735330451" xlink:href="#m207e0c0b5d" y="78.1436061916"/>
     <use style="fill:#0000ff;stroke:#000000;" x="423.357500412" xlink:href="#m207e0c0b5d" y="87.6960263856"/>
     <use style="fill:#0000ff;stroke:#000000;" x="397.044063182" xlink:href="#m207e0c0b5d" y="81.5490634619"/>
     <use style="fill:#0000ff;stroke:#000000;" x="483.911426225" xlink:href="#m207e0c0b5d" y="115.566930132"/>
     <use style="fill:#0000ff;stroke:#000000;" x="478.068772186" xlink:href="#m207e0c0b5d" y="110.789859799"/>
     <use style="fill:#0000ff;stroke:#000000;" x="495.566772858" xlink:href="#m207e0c0b5d" y="132.237064899"/>
     <use style="fill:#0000ff;stroke:#000000;" x="481.437957941" xlink:href="#m207e0c0b5d" y="113.356843386"/>
     <use style="fill:#0000ff;stroke:#000000;" x="351.710070389" xlink:href="#m207e0c0b5d" y="73.8373715713"/>
     <use style="fill:#0000ff;stroke:#000000;" x="418.93696816" xlink:href="#m207e0c0b5d" y="86.4973077706"/>
     <use style="fill:#0000ff;stroke:#000000;" x="357.138633446" xlink:href="#m207e0c0b5d" y="74.7377489418"/>
     <use style="fill:#0000ff;stroke:#000000;" x="459.901471299" xlink:href="#m207e0c0b5d" y="100.58296593"/>
     <use style="fill:#0000ff;stroke:#000000;" x="444.136772901" xlink:href="#m207e0c0b5d" y="94.3514917556"/>
    </g>
   </g>
   <g id="patch_3">
    <path d="M 72 388.8 
L 518.4 388.8 
" style="fill:none;stroke:#000000;stroke-linecap:square;stroke-linejoin:miter;"/>
   </g>
   <g id="patch_4">
    <path d="M 72 43.2 
L 518.4 43.2 
" style="fill:none;stroke:#000000;stroke-linecap:square;stroke-linejoin:miter;"/>
   </g>
   <g id="patch_5">
    <path d="M 72 388.8 
L 72 43.2 
" style="fill:none;stroke:#000000;stroke-linecap:square;stroke-linejoin:miter;"/>
   </g>
   <g id="patch_6">
    <path d="M 518.4 388.8 
L 518.4 43.2 
" style="fill:none;stroke:#000000;stroke-linecap:square;stroke-linejoin:miter;"/>
   </g>
   <g id="matplotlib.axis_1">
    <g id="xtick_1">
     <g id="line2d_1">
      <defs>
       <path d="M 0 0 
L 0 -4 
" id="m2ec79e4c1f" style="stroke:#000000;stroke-width:0.5;"/>
      </defs>
      <g>
       <use style="stroke:#000000;stroke-width:0.5;" x="72.0" xlink:href="#m2ec79e4c1f" y="388.8"/>
      </g>
     </g>
     <g id="line2d_2">
      <defs>
       <path d="M 0 0 
L 0 4 
" id="mf4b1bf4b35" style="stroke:#000000;stroke-width:0.5;"/>
      </defs>
      <g>
       <use style="stroke:#000000;stroke-width:0.5;" x="72.0" xlink:href="#mf4b1bf4b35" y="43.2"/>
      </g>
     </g>
     <g id="text_1">
      <!-- −200 -->
      <defs>
       <path d="M 10.59375 35.5 
L 73.1875 35.5 
L 73.1875 27.203125 
L 10.59375 27.203125 
z
" id="BitstreamVeraSans-Roman-2212"/>
       <path d="M 19.1875 8.296875 
L 53.609375 8.296875 
L 53.609375 0 
L 7.328125 0 
L 7.328125 8.296875 
Q 12.9375 14.109375 22.625 23.890625 
Q 32.328125 33.6875 34.8125 36.53125 
Q 39.546875 41.84375 41.421875 45.53125 
Q 43.3125 49.21875 43.3125 52.78125 
Q 43.3125 58.59375 39.234375 62.25 
Q 35.15625 65.921875 28.609375 65.921875 
Q 23.96875 65.921875 18.8125 64.3125 
Q 13.671875 62.703125 7.8125 59.421875 
L 7.8125 69.390625 
Q 13.765625 71.78125 18.9375 73 
Q 24.125 74.21875 28.421875 74.21875 
Q 39.75 74.21875 46.484375 68.546875 
Q 53.21875 62.890625 53.21875 53.421875 
Q 53.21875 48.921875 51.53125 44.890625 
Q 49.859375 40.875 45.40625 35.40625 
Q 44.1875 33.984375 37.640625 27.21875 
Q 31.109375 20.453125 19.1875 8.296875 
" id="BitstreamVeraSans-Roman-32"/>
       <path d="M 31.78125 66.40625 
Q 24.171875 66.40625 20.328125 58.90625 
Q 16.5 51.421875 16.5 36.375 
Q 16.5 21.390625 20.328125 13.890625 
Q 24.171875 6.390625 31.78125 6.390625 
Q 39.453125 6.390625 43.28125 13.890625 
Q 47.125 21.390625 47.125 36.375 
Q 47.125 51.421875 43.28125 58.90625 
Q 39.453125 66.40625 31.78125 66.40625 
M 31.78125 74.21875 
Q 44.046875 74.21875 50.515625 64.515625 
Q 56.984375 54.828125 56.984375 36.375 
Q 56.984375 17.96875 50.515625 8.265625 
Q 44.046875 -1.421875 31.78125 -1.421875 
Q 19.53125 -1.421875 13.0625 8.265625 
Q 6.59375 17.96875 6.59375 36.375 
Q 6.59375 54.828125 13.0625 64.515625 
Q 19.53125 74.21875 31.78125 74.21875 
" id="BitstreamVeraSans-Roman-30"/>
      </defs>
      <g transform="translate(55.5196875 401.918125)scale(0.12 -0.12)">
       <use xlink:href="#BitstreamVeraSans-Roman-2212"/>
       <use x="83.7890625" xlink:href="#BitstreamVeraSans-Roman-32"/>
       <use x="147.412109375" xlink:href="#BitstreamVeraSans-Roman-30"/>
       <use x="211.03515625" xlink:href="#BitstreamVeraSans-Roman-30"/>
      </g>
     </g>
    </g>
    <g id="xtick_2">
     <g id="line2d_3">
      <g>
       <use style="stroke:#000000;stroke-width:0.5;" x="178.285714286" xlink:href="#m2ec79e4c1f" y="388.8"/>
      </g>
     </g>
     <g id="line2d_4">
      <g>
       <use style="stroke:#000000;stroke-width:0.5;" x="178.285714286" xlink:href="#mf4b1bf4b35" y="43.2"/>
      </g>
     </g>
     <g id="text_2">
      <!-- −150 -->
      <defs>
       <path d="M 12.40625 8.296875 
L 28.515625 8.296875 
L 28.515625 63.921875 
L 10.984375 60.40625 
L 10.984375 69.390625 
L 28.421875 72.90625 
L 38.28125 72.90625 
L 38.28125 8.296875 
L 54.390625 8.296875 
L 54.390625 0 
L 12.40625 0 
z
" id="BitstreamVeraSans-Roman-31"/>
       <path d="M 10.796875 72.90625 
L 49.515625 72.90625 
L 49.515625 64.59375 
L 19.828125 64.59375 
L 19.828125 46.734375 
Q 21.96875 47.46875 24.109375 47.828125 
Q 26.265625 48.1875 28.421875 48.1875 
Q 40.625 48.1875 47.75 41.5 
Q 54.890625 34.8125 54.890625 23.390625 
Q 54.890625 11.625 47.5625 5.09375 
Q 40.234375 -1.421875 26.90625 -1.421875 
Q 22.3125 -1.421875 17.546875 -0.640625 
Q 12.796875 0.140625 7.71875 1.703125 
L 7.71875 11.625 
Q 12.109375 9.234375 16.796875 8.0625 
Q 21.484375 6.890625 26.703125 6.890625 
Q 35.15625 6.890625 40.078125 11.328125 
Q 45.015625 15.765625 45.015625 23.390625 
Q 45.015625 31 40.078125 35.4375 
Q 35.15625 39.890625 26.703125 39.890625 
Q 22.75 39.890625 18.8125 39.015625 
Q 14.890625 38.140625 10.796875 36.28125 
z
" id="BitstreamVeraSans-Roman-35"/>
      </defs>
      <g transform="translate(161.805401786 401.918125)scale(0.12 -0.12)">
       <use xlink:href="#BitstreamVeraSans-Roman-2212"/>
       <use x="83.7890625" xlink:href="#BitstreamVeraSans-Roman-31"/>
       <use x="147.412109375" xlink:href="#BitstreamVeraSans-Roman-35"/>
       <use x="211.03515625" xlink:href="#BitstreamVeraSans-Roman-30"/>
      </g>
     </g>
    </g>
    <g id="xtick_3">
     <g id="line2d_5">
      <g>
       <use style="stroke:#000000;stroke-width:0.5;" x="284.571428571" xlink:href="#m2ec79e4c1f" y="388.8"/>
      </g>
     </g>
     <g id="line2d_6">
      <g>
       <use style="stroke:#000000;stroke-width:0.5;" x="284.571428571" xlink:href="#mf4b1bf4b35" y="43.2"/>
      </g>
     </g>
     <g id="text_3">
      <!-- −100 -->
      <g transform="translate(268.091116071 401.918125)scale(0.12 -0.12)">
       <use xlink:href="#BitstreamVeraSans-Roman-2212"/>
       <use x="83.7890625" xlink:href="#BitstreamVeraSans-Roman-31"/>
       <use x="147.412109375" xlink:href="#BitstreamVeraSans-Roman-30"/>
       <use x="211.03515625" xlink:href="#BitstreamVeraSans-Roman-30"/>
      </g>
     </g>
    </g>
    <g id="xtick_4">
     <g id="line2d_7">
      <g>
       <use style="stroke:#000000;stroke-width:0.5;" x="390.857142857" xlink:href="#m2ec79e4c1f" y="388.8"/>
      </g>
     </g>
     <g id="line2d_8">
      <g>
       <use style="stroke:#000000;stroke-width:0.5;" x="390.857142857" xlink:href="#mf4b1bf4b35" y="43.2"/>
      </g>
     </g>
     <g id="text_4">
      <!-- −50 -->
      <g transform="translate(378.194330357 401.918125)scale(0.12 -0.12)">
       <use xlink:href="#BitstreamVeraSans-Roman-2212"/>
       <use x="83.7890625" xlink:href="#BitstreamVeraSans-Roman-35"/>
       <use x="147.412109375" xlink:href="#BitstreamVeraSans-Roman-30"/>
      </g>
     </g>
    </g>
    <g id="xtick_5">
     <g id="line2d_9">
      <g>
       <use style="stroke:#000000;stroke-width:0.5;" x="497.142857143" xlink:href="#m2ec79e4c1f" y="388.8"/>
      </g>
     </g>
     <g id="line2d_10">
      <g>
       <use style="stroke:#000000;stroke-width:0.5;" x="497.142857143" xlink:href="#mf4b1bf4b35" y="43.2"/>
      </g>
     </g>
     <g id="text_5">
      <!-- 0 -->
      <g transform="translate(493.325357143 401.918125)scale(0.12 -0.12)">
       <use xlink:href="#BitstreamVeraSans-Roman-30"/>
      </g>
     </g>
    </g>
   </g>
   <g id="matplotlib.axis_2">
    <g id="ytick_1">
     <g id="line2d_11">
      <defs>
       <path d="M 0 0 
L 4 0 
" id="ma1022edf38" style="stroke:#000000;stroke-width:0.5;"/>
      </defs>
      <g>
       <use style="stroke:#000000;stroke-width:0.5;" x="72.0" xlink:href="#ma1022edf38" y="388.8"/>
      </g>
     </g>
     <g id="line2d_12">
      <defs>
       <path d="M 0 0 
L -4 0 
" id="mb5ef2eae65" style="stroke:#000000;stroke-width:0.5;"/>
      </defs>
      <g>
       <use style="stroke:#000000;stroke-width:0.5;" x="518.4" xlink:href="#mb5ef2eae65" y="388.8"/>
      </g>
     </g>
     <g id="text_6">
      <!-- −200 -->
      <g transform="translate(35.039375 392.11125)scale(0.12 -0.12)">
       <use xlink:href="#BitstreamVeraSans-Roman-2212"/>
       <use x="83.7890625" xlink:href="#BitstreamVeraSans-Roman-32"/>
       <use x="147.412109375" xlink:href="#BitstreamVeraSans-Roman-30"/>
       <use x="211.03515625" xlink:href="#BitstreamVeraSans-Roman-30"/>
      </g>
     </g>
    </g>
    <g id="ytick_2">
     <g id="line2d_13">
      <g>
       <use style="stroke:#000000;stroke-width:0.5;" x="72.0" xlink:href="#ma1022edf38" y="306.514285714"/>
      </g>
     </g>
     <g id="line2d_14">
      <g>
       <use style="stroke:#000000;stroke-width:0.5;" x="518.4" xlink:href="#mb5ef2eae65" y="306.514285714"/>
      </g>
     </g>
     <g id="text_7">
      <!-- −150 -->
      <g transform="translate(35.039375 309.825535714)scale(0.12 -0.12)">
       <use xlink:href="#BitstreamVeraSans-Roman-2212"/>
       <use x="83.7890625" xlink:href="#BitstreamVeraSans-Roman-31"/>
       <use x="147.412109375" xlink:href="#BitstreamVeraSans-Roman-35"/>
       <use x="211.03515625" xlink:href="#BitstreamVeraSans-Roman-30"/>
      </g>
     </g>
    </g>
    <g id="ytick_3">
     <g id="line2d_15">
      <g>
       <use style="stroke:#000000;stroke-width:0.5;" x="72.0" xlink:href="#ma1022edf38" y="224.228571429"/>
      </g>
     </g>
     <g id="line2d_16">
      <g>
       <use style="stroke:#000000;stroke-width:0.5;" x="518.4" xlink:href="#mb5ef2eae65" y="224.228571429"/>
      </g>
     </g>
     <g id="text_8">
      <!-- −100 -->
      <g transform="translate(35.039375 227.539821429)scale(0.12 -0.12)">
       <use xlink:href="#BitstreamVeraSans-Roman-2212"/>
       <use x="83.7890625" xlink:href="#BitstreamVeraSans-Roman-31"/>
       <use x="147.412109375" xlink:href="#BitstreamVeraSans-Roman-30"/>
       <use x="211.03515625" xlink:href="#BitstreamVeraSans-Roman-30"/>
      </g>
     </g>
    </g>
    <g id="ytick_4">
     <g id="line2d_17">
      <g>
       <use style="stroke:#000000;stroke-width:0.5;" x="72.0" xlink:href="#ma1022edf38" y="141.942857143"/>
      </g>
     </g>
     <g id="line2d_18">
      <g>
       <use style="stroke:#000000;stroke-width:0.5;" x="518.4" xlink:href="#mb5ef2eae65" y="141.942857143"/>
      </g>
     </g>
     <g id="text_9">
      <!-- −50 -->
      <g transform="translate(42.674375 145.254107143)scale(0.12 -0.12)">
       <use xlink:href="#BitstreamVeraSans-Roman-2212"/>
       <use x="83.7890625" xlink:href="#BitstreamVeraSans-Roman-35"/>
       <use x="147.412109375" xlink:href="#BitstreamVeraSans-Roman-30"/>
      </g>
     </g>
    </g>
    <g id="ytick_5">
     <g id="line2d_19">
      <g>
       <use style="stroke:#000000;stroke-width:0.5;" x="72.0" xlink:href="#ma1022edf38" y="59.6571428571"/>
      </g>
     </g>
     <g id="line2d_20">
      <g>
       <use style="stroke:#000000;stroke-width:0.5;" x="518.4" xlink:href="#mb5ef2eae65" y="59.6571428571"/>
      </g>
     </g>
     <g id="text_10">
      <!-- 0 -->
      <g transform="translate(60.365 62.9683928571)scale(0.12 -0.12)">
       <use xlink:href="#BitstreamVeraSans-Roman-30"/>
      </g>
     </g>
    </g>
   </g>
  </g>
 </g>
 <defs>
  <clipPath id="p04b4f34a1a">
   <rect height="345.6" width="446.4" x="72.0" y="43.2"/>
  </clipPath>
 </defs>
</svg>
