<?xml version="1.0" encoding="utf-8" standalone="no"?>
<!DOCTYPE svg PUBLIC "-//W3C//DTD SVG 1.1//EN"
  "http://www.w3.org/Graphics/SVG/1.1/DTD/svg11.dtd">
<!-- Created with matplotlib (http://matplotlib.org/) -->
<svg height="432pt" version="1.1" viewBox="0 0 576 432" width="576pt" xmlns="http://www.w3.org/2000/svg" xmlns:xlink="http://www.w3.org/1999/xlink">
 <defs>
  <style type="text/css">
*{stroke-linecap:butt;stroke-linejoin:round;stroke-miterlimit:100000;}
  </style>
 </defs>
 <g id="figure_1">
  <g id="patch_1">
   <path d="M 0 432 
L 576 432 
L 576 0 
L 0 0 
z
" style="fill:#ffffff;"/>
  </g>
  <g id="axes_1">
   <g id="patch_2">
    <path d="M 72 388.8 
L 518.4 388.8 
L 518.4 43.2 
L 72 43.2 
z
" style="fill:#ffffff;"/>
   </g>
   <g id="PathCollection_1">
    <defs>
     <path d="M 0 1.118034 
C 0.296506 1.118034 0.580908 1.000231 0.790569 0.790569 
C 1.000231 0.580908 1.118034 0.296506 1.118034 0 
C 1.118034 -0.296506 1.000231 -0.580908 0.790569 -0.790569 
C 0.580908 -1.000231 0.296506 -1.118034 0 -1.118034 
C -0.296506 -1.118034 -0.580908 -1.000231 -0.790569 -0.790569 
C -1.000231 -0.580908 -1.118034 -0.296506 -1.118034 0 
C -1.118034 0.296506 -1.000231 0.580908 -0.790569 0.790569 
C -0.580908 1.000231 -0.296506 1.118034 0 1.118034 
z
" id="m2fbf8e4cfa" style="stroke:#000000;"/>
    </defs>
    <g clip-path="url(#p9a8093e5a1)">
     <use style="stroke:#000000;" x="331.191289569" xlink:href="#m2fbf8e4cfa" y="71.4592719592"/>
     <use style="stroke:#000000;" x="408.683539164" xlink:href="#m2fbf8e4cfa" y="84.4540117942"/>
     <use style="stroke:#000000;" x="365.077059353" xlink:href="#m2fbf8e4cfa" y="75.8399914878"/>
     <use style="stroke:#000000;" x="385.487360306" xlink:href="#m2fbf8e4cfa" y="79.2158665574"/>
     <use style="stroke:#000000;" x="419.337088098" xlink:href="#m2fbf8e4cfa" y="86.8937543956"/>
     <use style="stroke:#000000;" x="484.811969425" xlink:href="#m2fbf8e4cfa" y="116.355815368"/>
     <use style="stroke:#000000;" x="492.732284387" xlink:href="#m2fbf8e4cfa" y="126.494578516"/>
     <use style="stroke:#000000;" x="413.409170966" xlink:href="#m2fbf8e4cfa" y="85.6586173704"/>
     <use style="stroke:#000000;" x="445.778006623" xlink:href="#m2fbf8e4cfa" y="94.7345568303"/>
     <use style="stroke:#000000;" x="448.107534416" xlink:href="#m2fbf8e4cfa" y="95.6956524601"/>
     <use style="stroke:#000000;" x="414.106849116" xlink:href="#m2fbf8e4cfa" y="86.0550791766"/>
     <use style="stroke:#000000;" x="405.000491243" xlink:href="#m2fbf8e4cfa" y="83.1621398844"/>
     <use style="stroke:#000000;" x="475.618507333" xlink:href="#m2fbf8e4cfa" y="109.079358032"/>
     <use style="stroke:#000000;" x="461.490855835" xlink:href="#m2fbf8e4cfa" y="101.230687323"/>
     <use style="stroke:#000000;" x="443.435575444" xlink:href="#m2fbf8e4cfa" y="94.0318259709"/>
     <use style="stroke:#000000;" x="430.470569531" xlink:href="#m2fbf8e4cfa" y="89.6806021417"/>
     <use style="stroke:#000000;" x="433.613174366" xlink:href="#m2fbf8e4cfa" y="90.751312347"/>
     <use style="stroke:#000000;" x="496.046729035" xlink:href="#m2fbf8e4cfa" y="133.827541138"/>
     <use style="stroke:#000000;" x="469.465199317" xlink:href="#m2fbf8e4cfa" y="105.409954747"/>
     <use style="stroke:#000000;" x="402.654890163" xlink:href="#m2fbf8e4cfa" y="82.6473572758"/>
     <use style="stroke:#000000;" x="455.999209557" xlink:href="#m2fbf8e4cfa" y="98.9082898096"/>
     <use style="stroke:#000000;" x="444.96444758" xlink:href="#m2fbf8e4cfa" y="94.4811978577"/>
     <use style="stroke:#000000;" x="429.043205014" xlink:href="#m2fbf8e4cfa" y="89.2628878143"/>
     <use style="stroke:#000000;" x="416.877716377" xlink:href="#m2fbf8e4cfa" y="86.1005290887"/>
     <use style="stroke:#000000;" x="400.110280945" xlink:href="#m2fbf8e4cfa" y="82.256603974"/>
     <use style="stroke:#000000;" x="462.579300351" xlink:href="#m2fbf8e4cfa" y="101.907233575"/>
     <use style="stroke:#000000;" x="437.360999571" xlink:href="#m2fbf8e4cfa" y="91.8035320907"/>
     <use style="stroke:#000000;" x="470.700381164" xlink:href="#m2fbf8e4cfa" y="106.023862735"/>
     <use style="stroke:#000000;" x="467.055210234" xlink:href="#m2fbf8e4cfa" y="104.003666147"/>
     <use style="stroke:#000000;" x="388.809665089" xlink:href="#m2fbf8e4cfa" y="79.8379802703"/>
     <use style="stroke:#000000;" x="480.114089153" xlink:href="#m2fbf8e4cfa" y="112.494935741"/>
     <use style="stroke:#000000;" x="375.175285296" xlink:href="#m2fbf8e4cfa" y="77.4187442337"/>
     <use style="stroke:#000000;" x="473.015307606" xlink:href="#m2fbf8e4cfa" y="107.408946152"/>
     <use style="stroke:#000000;" x="468.311213067" xlink:href="#m2fbf8e4cfa" y="104.896935011"/>
     <use style="stroke:#000000;" x="497.024784794" xlink:href="#m2fbf8e4cfa" y="139.224269198"/>
     <use style="stroke:#000000;" x="348.39237325" xlink:href="#m2fbf8e4cfa" y="73.3887704103"/>
     <use style="stroke:#000000;" x="494.844243139" xlink:href="#m2fbf8e4cfa" y="130.343664566"/>
     <use style="stroke:#000000;" x="422.022932406" xlink:href="#m2fbf8e4cfa" y="87.3714658421"/>
     <use style="stroke:#000000;" x="490.969140439" xlink:href="#m2fbf8e4cfa" y="124.052393033"/>
     <use style="stroke:#000000;" x="425.86243781" xlink:href="#m2fbf8e4cfa" y="88.3650900356"/>
     <use style="stroke:#000000;" x="434.441133092" xlink:href="#m2fbf8e4cfa" y="90.8844087414"/>
     <use style="stroke:#000000;" x="473.398304989" xlink:href="#m2fbf8e4cfa" y="107.684722822"/>
     <use style="stroke:#000000;" x="370.792147068" xlink:href="#m2fbf8e4cfa" y="76.6860832965"/>
     <use style="stroke:#000000;" x="387.523970232" xlink:href="#m2fbf8e4cfa" y="79.6674434037"/>
     <use style="stroke:#000000;" x="397.044063182" xlink:href="#m2fbf8e4cfa" y="81.5490634619"/>
     <use style="stroke:#000000;" x="496.18278725" xlink:href="#m2fbf8e4cfa" y="134.746015384"/>
     <use style="stroke:#000000;" x="450.095434466" xlink:href="#m2fbf8e4cfa" y="96.4745998888"/>
     <use style="stroke:#000000;" x="483.911426225" xlink:href="#m2fbf8e4cfa" y="115.566930132"/>
     <use style="stroke:#000000;" x="423.357500412" xlink:href="#m2fbf8e4cfa" y="87.6960263856"/>
     <use style="stroke:#000000;" x="478.068772186" xlink:href="#m2fbf8e4cfa" y="110.789859799"/>
     <use style="stroke:#000000;" x="481.437957941" xlink:href="#m2fbf8e4cfa" y="113.356843386"/>
     <use style="stroke:#000000;" x="495.566772858" xlink:href="#m2fbf8e4cfa" y="132.237064899"/>
     <use style="stroke:#000000;" x="351.710070389" xlink:href="#m2fbf8e4cfa" y="73.8373715713"/>
     <use style="stroke:#000000;" x="418.93696816" xlink:href="#m2fbf8e4cfa" y="86.4973077706"/>
     <use style="stroke:#000000;" x="357.138633446" xlink:href="#m2fbf8e4cfa" y="74.7377489418"/>
     <use style="stroke:#000000;" x="378.66142101" xlink:href="#m2fbf8e4cfa" y="78.035328067"/>
     <use style="stroke:#000000;" x="459.901471299" xlink:href="#m2fbf8e4cfa" y="100.58296593"/>
     <use style="stroke:#000000;" x="299.026616945" xlink:href="#m2fbf8e4cfa" y="68.938063526"/>
     <use style="stroke:#000000;" x="486.120409331" xlink:href="#m2fbf8e4cfa" y="117.88009745"/>
     <use style="stroke:#000000;" x="395.082955221" xlink:href="#m2fbf8e4cfa" y="81.069387866"/>
     <use style="stroke:#000000;" x="475.604722395" xlink:href="#m2fbf8e4cfa" y="110.238278979"/>
     <use style="stroke:#000000;" x="483.469270073" xlink:href="#m2fbf8e4cfa" y="122.809701638"/>
     <use style="stroke:#000000;" x="380.674753668" xlink:href="#m2fbf8e4cfa" y="78.7136308887"/>
     <use style="stroke:#000000;" x="332.176596892" xlink:href="#m2fbf8e4cfa" y="89.0927753271"/>
     <use style="stroke:#000000;" x="474.180674499" xlink:href="#m2fbf8e4cfa" y="110.921694685"/>
     <use style="stroke:#000000;" x="449.164869973" xlink:href="#m2fbf8e4cfa" y="97.0613202037"/>
     <use style="stroke:#000000;" x="423.081781544" xlink:href="#m2fbf8e4cfa" y="104.014934332"/>
     <use style="stroke:#000000;" x="422.860567228" xlink:href="#m2fbf8e4cfa" y="90.7860684088"/>
     <use style="stroke:#000000;" x="440.310943438" xlink:href="#m2fbf8e4cfa" y="93.8246544112"/>
     <use style="stroke:#000000;" x="388.12652064" xlink:href="#m2fbf8e4cfa" y="82.9307961959"/>
     <use style="stroke:#000000;" x="333.453710702" xlink:href="#m2fbf8e4cfa" y="98.037411035"/>
     <use style="stroke:#000000;" x="317.518571961" xlink:href="#m2fbf8e4cfa" y="78.0132118837"/>
     <use style="stroke:#000000;" x="370.720527957" xlink:href="#m2fbf8e4cfa" y="86.9888943499"/>
     <use style="stroke:#000000;" x="466.418238358" xlink:href="#m2fbf8e4cfa" y="109.764693053"/>
     <use style="stroke:#000000;" x="321.124472738" xlink:href="#m2fbf8e4cfa" y="94.2224313819"/>
     <use style="stroke:#000000;" x="438.044242332" xlink:href="#m2fbf8e4cfa" y="92.0553359163"/>
     <use style="stroke:#000000;" x="446.435032587" xlink:href="#m2fbf8e4cfa" y="98.9205477517"/>
     <use style="stroke:#000000;" x="460.683031014" xlink:href="#m2fbf8e4cfa" y="111.86697454"/>
     <use style="stroke:#000000;" x="463.605212327" xlink:href="#m2fbf8e4cfa" y="109.445621095"/>
     <use style="stroke:#000000;" x="388.885421417" xlink:href="#m2fbf8e4cfa" y="83.5521451691"/>
     <use style="stroke:#000000;" x="362.519660474" xlink:href="#m2fbf8e4cfa" y="75.5542579552"/>
     <use style="stroke:#000000;" x="449.728210631" xlink:href="#m2fbf8e4cfa" y="107.085540172"/>
     <use style="stroke:#000000;" x="480.891759657" xlink:href="#m2fbf8e4cfa" y="113.882838784"/>
     <use style="stroke:#000000;" x="345.496766033" xlink:href="#m2fbf8e4cfa" y="92.2223516758"/>
     <use style="stroke:#000000;" x="412.695420003" xlink:href="#m2fbf8e4cfa" y="91.277200841"/>
     <use style="stroke:#000000;" x="410.677140317" xlink:href="#m2fbf8e4cfa" y="85.5020614639"/>
     <use style="stroke:#000000;" x="447.643420287" xlink:href="#m2fbf8e4cfa" y="97.5957310748"/>
     <use style="stroke:#000000;" x="313.760099303" xlink:href="#m2fbf8e4cfa" y="76.1523750895"/>
     <use style="stroke:#000000;" x="472.003260313" xlink:href="#m2fbf8e4cfa" y="106.796577793"/>
     <use style="stroke:#000000;" x="294.991972526" xlink:href="#m2fbf8e4cfa" y="71.5346835032"/>
     <use style="stroke:#000000;" x="460.592990156" xlink:href="#m2fbf8e4cfa" y="109.617465881"/>
     <use style="stroke:#000000;" x="438.340472269" xlink:href="#m2fbf8e4cfa" y="104.172567013"/>
     <use style="stroke:#000000;" x="468.045553142" xlink:href="#m2fbf8e4cfa" y="104.530598043"/>
     <use style="stroke:#000000;" x="449.166974008" xlink:href="#m2fbf8e4cfa" y="95.9780453271"/>
     <use style="stroke:#000000;" x="321.015138215" xlink:href="#m2fbf8e4cfa" y="87.9420238806"/>
     <use style="stroke:#000000;" x="430.58558449" xlink:href="#m2fbf8e4cfa" y="94.777148334"/>
     <use style="stroke:#000000;" x="323.615548" xlink:href="#m2fbf8e4cfa" y="78.1389432573"/>
     <use style="stroke:#000000;" x="459.703320673" xlink:href="#m2fbf8e4cfa" y="106.920581476"/>
     <use style="stroke:#000000;" x="434.774558643" xlink:href="#m2fbf8e4cfa" y="107.695319215"/>
     <use style="stroke:#000000;" x="310.680413533" xlink:href="#m2fbf8e4cfa" y="72.759020074"/>
     <use style="stroke:#000000;" x="408.977691129" xlink:href="#m2fbf8e4cfa" y="91.0717908491"/>
     <use style="stroke:#000000;" x="427.59211424" xlink:href="#m2fbf8e4cfa" y="97.0596611214"/>
     <use style="stroke:#000000;" x="324.316884122" xlink:href="#m2fbf8e4cfa" y="71.56290824"/>
     <use style="stroke:#000000;" x="446.228855397" xlink:href="#m2fbf8e4cfa" y="99.4677240713"/>
     <use style="stroke:#000000;" x="374.721942953" xlink:href="#m2fbf8e4cfa" y="85.0922994016"/>
     <use style="stroke:#000000;" x="423.958773145" xlink:href="#m2fbf8e4cfa" y="87.8576612594"/>
     <use style="stroke:#000000;" x="444.946102713" xlink:href="#m2fbf8e4cfa" y="102.831367476"/>
     <use style="stroke:#000000;" x="459.048051277" xlink:href="#m2fbf8e4cfa" y="101.008054011"/>
     <use style="stroke:#000000;" x="328.980496021" xlink:href="#m2fbf8e4cfa" y="72.8967402375"/>
     <use style="stroke:#000000;" x="470.04391623" xlink:href="#m2fbf8e4cfa" y="117.225494217"/>
     <use style="stroke:#000000;" x="327.037331363" xlink:href="#m2fbf8e4cfa" y="98.1462729489"/>
     <use style="stroke:#000000;" x="406.371201027" xlink:href="#m2fbf8e4cfa" y="85.9611603966"/>
     <use style="stroke:#000000;" x="322.728903495" xlink:href="#m2fbf8e4cfa" y="89.0617434297"/>
     <use style="stroke:#000000;" x="368.015365387" xlink:href="#m2fbf8e4cfa" y="77.4757171413"/>
     <use style="stroke:#000000;" x="481.776637678" xlink:href="#m2fbf8e4cfa" y="115.004705344"/>
     <use style="stroke:#000000;" x="301.576256564" xlink:href="#m2fbf8e4cfa" y="68.9491834968"/>
     <use style="stroke:#000000;" x="374.459728923" xlink:href="#m2fbf8e4cfa" y="78.5180887714"/>
     <use style="stroke:#000000;" x="416.99956311" xlink:href="#m2fbf8e4cfa" y="86.4317762148"/>
     <use style="stroke:#000000;" x="396.718439807" xlink:href="#m2fbf8e4cfa" y="81.3979880395"/>
     <use style="stroke:#000000;" x="484.069088019" xlink:href="#m2fbf8e4cfa" y="117.773464386"/>
    </g>
   </g>
   <g id="PathCollection_2">
    <defs>
     <path d="M 0 1.936492 
C 0.513564 1.936492 1.006162 1.732451 1.369306 1.369306 
C 1.732451 1.006162 1.936492 0.513564 1.936492 0 
C 1.936492 -0.513564 1.732451 -1.006162 1.369306 -1.369306 
C 1.006162 -1.732451 0.513564 -1.936492 0 -1.936492 
C -0.513564 -1.936492 -1.006162 -1.732451 -1.369306 -1.369306 
C -1.732451 -1.006162 -1.936492 -0.513564 -1.936492 0 
C -1.936492 0.513564 -1.732451 1.006162 -1.369306 1.369306 
C -1.006162 1.732451 -0.513564 1.936492 0 1.936492 
z
" id="m6af16a2df0" style="stroke:#000000;"/>
    </defs>
    <g clip-path="url(#p9a8093e5a1)">
     <use style="fill:#0000ff;stroke:#000000;" x="331.191289569" xlink:href="#m6af16a2df0" y="71.4592719592"/>
     <use style="fill:#0000ff;stroke:#000000;" x="408.683539164" xlink:href="#m6af16a2df0" y="84.4540117942"/>
     <use style="fill:#0000ff;stroke:#000000;" x="365.077059353" xlink:href="#m6af16a2df0" y="75.8399914878"/>
     <use style="fill:#0000ff;stroke:#000000;" x="385.487360306" xlink:href="#m6af16a2df0" y="79.2158665574"/>
     <use style="fill:#0000ff;stroke:#000000;" x="419.337088098" xlink:href="#m6af16a2df0" y="86.8937543956"/>
     <use style="fill:#0000ff;stroke:#000000;" x="484.811969425" xlink:href="#m6af16a2df0" y="116.355815368"/>
     <use style="fill:#0000ff;stroke:#000000;" x="492.732284387" xlink:href="#m6af16a2df0" y="126.494578516"/>
     <use style="fill:#0000ff;stroke:#000000;" x="413.409170966" xlink:href="#m6af16a2df0" y="85.6586173704"/>
     <use style="fill:#0000ff;stroke:#000000;" x="445.778006623" xlink:href="#m6af16a2df0" y="94.7345568303"/>
     <use style="fill:#0000ff;stroke:#000000;" x="448.107534416" xlink:href="#m6af16a2df0" y="95.6956524601"/>
     <use style="fill:#0000ff;stroke:#000000;" x="414.106849116" xlink:href="#m6af16a2df0" y="86.0550791766"/>
     <use style="fill:#0000ff;stroke:#000000;" x="405.000491243" xlink:href="#m6af16a2df0" y="83.1621398844"/>
     <use style="fill:#0000ff;stroke:#000000;" x="475.618507333" xlink:href="#m6af16a2df0" y="109.079358032"/>
     <use style="fill:#0000ff;stroke:#000000;" x="461.490855835" xlink:href="#m6af16a2df0" y="101.230687323"/>
     <use style="fill:#0000ff;stroke:#000000;" x="443.435575444" xlink:href="#m6af16a2df0" y="94.0318259709"/>
     <use style="fill:#0000ff;stroke:#000000;" x="430.470569531" xlink:href="#m6af16a2df0" y="89.6806021417"/>
     <use style="fill:#0000ff;stroke:#000000;" x="433.613174366" xlink:href="#m6af16a2df0" y="90.751312347"/>
     <use style="fill:#0000ff;stroke:#000000;" x="496.046729035" xlink:href="#m6af16a2df0" y="133.827541138"/>
     <use style="fill:#0000ff;stroke:#000000;" x="469.465199317" xlink:href="#m6af16a2df0" y="105.409954747"/>
     <use style="fill:#0000ff;stroke:#000000;" x="402.654890163" xlink:href="#m6af16a2df0" y="82.6473572758"/>
     <use style="fill:#0000ff;stroke:#000000;" x="455.999209557" xlink:href="#m6af16a2df0" y="98.9082898096"/>
     <use style="fill:#0000ff;stroke:#000000;" x="444.96444758" xlink:href="#m6af16a2df0" y="94.4811978577"/>
     <use style="fill:#0000ff;stroke:#000000;" x="429.043205014" xlink:href="#m6af16a2df0" y="89.2628878143"/>
     <use style="fill:#0000ff;stroke:#000000;" x="416.877716377" xlink:href="#m6af16a2df0" y="86.1005290887"/>
     <use style="fill:#0000ff;stroke:#000000;" x="400.110280945" xlink:href="#m6af16a2df0" y="82.256603974"/>
     <use style="fill:#0000ff;stroke:#000000;" x="462.579300351" xlink:href="#m6af16a2df0" y="101.907233575"/>
     <use style="fill:#0000ff;stroke:#000000;" x="437.360999571" xlink:href="#m6af16a2df0" y="91.8035320907"/>
     <use style="fill:#0000ff;stroke:#000000;" x="470.700381164" xlink:href="#m6af16a2df0" y="106.023862735"/>
     <use style="fill:#0000ff;stroke:#000000;" x="467.055210234" xlink:href="#m6af16a2df0" y="104.003666147"/>
     <use style="fill:#0000ff;stroke:#000000;" x="388.809665089" xlink:href="#m6af16a2df0" y="79.8379802703"/>
     <use style="fill:#0000ff;stroke:#000000;" x="480.114089153" xlink:href="#m6af16a2df0" y="112.494935741"/>
     <use style="fill:#0000ff;stroke:#000000;" x="375.175285296" xlink:href="#m6af16a2df0" y="77.4187442337"/>
     <use style="fill:#0000ff;stroke:#000000;" x="473.015307606" xlink:href="#m6af16a2df0" y="107.408946152"/>
     <use style="fill:#0000ff;stroke:#000000;" x="468.311213067" xlink:href="#m6af16a2df0" y="104.896935011"/>
     <use style="fill:#0000ff;stroke:#000000;" x="497.024784794" xlink:href="#m6af16a2df0" y="139.224269198"/>
     <use style="fill:#0000ff;stroke:#000000;" x="348.39237325" xlink:href="#m6af16a2df0" y="73.3887704103"/>
     <use style="fill:#0000ff;stroke:#000000;" x="494.844243139" xlink:href="#m6af16a2df0" y="130.343664566"/>
     <use style="fill:#0000ff;stroke:#000000;" x="422.022932406" xlink:href="#m6af16a2df0" y="87.3714658421"/>
     <use style="fill:#0000ff;stroke:#000000;" x="490.969140439" xlink:href="#m6af16a2df0" y="124.052393033"/>
     <use style="fill:#0000ff;stroke:#000000;" x="425.86243781" xlink:href="#m6af16a2df0" y="88.3650900356"/>
     <use style="fill:#0000ff;stroke:#000000;" x="434.441133092" xlink:href="#m6af16a2df0" y="90.8844087414"/>
     <use style="fill:#0000ff;stroke:#000000;" x="473.398304989" xlink:href="#m6af16a2df0" y="107.684722822"/>
     <use style="fill:#0000ff;stroke:#000000;" x="370.792147068" xlink:href="#m6af16a2df0" y="76.6860832965"/>
     <use style="fill:#0000ff;stroke:#000000;" x="387.523970232" xlink:href="#m6af16a2df0" y="79.6674434037"/>
     <use style="fill:#0000ff;stroke:#000000;" x="397.044063182" xlink:href="#m6af16a2df0" y="81.5490634619"/>
     <use style="fill:#0000ff;stroke:#000000;" x="496.18278725" xlink:href="#m6af16a2df0" y="134.746015384"/>
     <use style="fill:#0000ff;stroke:#000000;" x="450.095434466" xlink:href="#m6af16a2df0" y="96.4745998888"/>
     <use style="fill:#0000ff;stroke:#000000;" x="483.911426225" xlink:href="#m6af16a2df0" y="115.566930132"/>
     <use style="fill:#0000ff;stroke:#000000;" x="423.357500412" xlink:href="#m6af16a2df0" y="87.6960263856"/>
     <use style="fill:#0000ff;stroke:#000000;" x="478.068772186" xlink:href="#m6af16a2df0" y="110.789859799"/>
     <use style="fill:#0000ff;stroke:#000000;" x="481.437957941" xlink:href="#m6af16a2df0" y="113.356843386"/>
     <use style="fill:#0000ff;stroke:#000000;" x="495.566772858" xlink:href="#m6af16a2df0" y="132.237064899"/>
     <use style="fill:#0000ff;stroke:#000000;" x="351.710070389" xlink:href="#m6af16a2df0" y="73.8373715713"/>
     <use style="fill:#0000ff;stroke:#000000;" x="418.93696816" xlink:href="#m6af16a2df0" y="86.4973077706"/>
     <use style="fill:#0000ff;stroke:#000000;" x="357.138633446" xlink:href="#m6af16a2df0" y="74.7377489418"/>
     <use style="fill:#0000ff;stroke:#000000;" x="378.66142101" xlink:href="#m6af16a2df0" y="78.035328067"/>
     <use style="fill:#0000ff;stroke:#000000;" x="459.901471299" xlink:href="#m6af16a2df0" y="100.58296593"/>
     <use style="fill:#0000ff;stroke:#000000;" x="299.026616945" xlink:href="#m6af16a2df0" y="68.938063526"/>
     <use style="fill:#0000ff;stroke:#000000;" x="486.120409331" xlink:href="#m6af16a2df0" y="117.88009745"/>
     <use style="fill:#0000ff;stroke:#000000;" x="395.082955221" xlink:href="#m6af16a2df0" y="81.069387866"/>
    </g>
   </g>
   <g id="patch_3">
    <path d="M 72 388.8 
L 518.4 388.8 
" style="fill:none;stroke:#000000;stroke-linecap:square;stroke-linejoin:miter;"/>
   </g>
   <g id="patch_4">
    <path d="M 72 43.2 
L 518.4 43.2 
" style="fill:none;stroke:#000000;stroke-linecap:square;stroke-linejoin:miter;"/>
   </g>
   <g id="patch_5">
    <path d="M 72 388.8 
L 72 43.2 
" style="fill:none;stroke:#000000;stroke-linecap:square;stroke-linejoin:miter;"/>
   </g>
   <g id="patch_6">
    <path d="M 518.4 388.8 
L 518.4 43.2 
" style="fill:none;stroke:#000000;stroke-linecap:square;stroke-linejoin:miter;"/>
   </g>
   <g id="matplotlib.axis_1">
    <g id="xtick_1">
     <g id="line2d_1">
      <defs>
       <path d="M 0 0 
L 0 -4 
" id="ma389e29d71" style="stroke:#000000;stroke-width:0.5;"/>
      </defs>
      <g>
       <use style="stroke:#000000;stroke-width:0.5;" x="72.0" xlink:href="#ma389e29d71" y="388.8"/>
      </g>
     </g>
     <g id="line2d_2">
      <defs>
       <path d="M 0 0 
L 0 4 
" id="mc7567099b8" style="stroke:#000000;stroke-width:0.5;"/>
      </defs>
      <g>
       <use style="stroke:#000000;stroke-width:0.5;" x="72.0" xlink:href="#mc7567099b8" y="43.2"/>
      </g>
     </g>
     <g id="text_1">
      <!-- −200 -->
      <defs>
       <path d="M 10.59375 35.5 
L 73.1875 35.5 
L 73.1875 27.203125 
L 10.59375 27.203125 
z
" id="BitstreamVeraSans-Roman-2212"/>
       <path d="M 19.1875 8.296875 
L 53.609375 8.296875 
L 53.609375 0 
L 7.328125 0 
L 7.328125 8.296875 
Q 12.9375 14.109375 22.625 23.890625 
Q 32.328125 33.6875 34.8125 36.53125 
Q 39.546875 41.84375 41.421875 45.53125 
Q 43.3125 49.21875 43.3125 52.78125 
Q 43.3125 58.59375 39.234375 62.25 
Q 35.15625 65.921875 28.609375 65.921875 
Q 23.96875 65.921875 18.8125 64.3125 
Q 13.671875 62.703125 7.8125 59.421875 
L 7.8125 69.390625 
Q 13.765625 71.78125 18.9375 73 
Q 24.125 74.21875 28.421875 74.21875 
Q 39.75 74.21875 46.484375 68.546875 
Q 53.21875 62.890625 53.21875 53.421875 
Q 53.21875 48.921875 51.53125 44.890625 
Q 49.859375 40.875 45.40625 35.40625 
Q 44.1875 33.984375 37.640625 27.21875 
Q 31.109375 20.453125 19.1875 8.296875 
" id="BitstreamVeraSans-Roman-32"/>
       <path d="M 31.78125 66.40625 
Q 24.171875 66.40625 20.328125 58.90625 
Q 16.5 51.421875 16.5 36.375 
Q 16.5 21.390625 20.328125 13.890625 
Q 24.171875 6.390625 31.78125 6.390625 
Q 39.453125 6.390625 43.28125 13.890625 
Q 47.125 21.390625 47.125 36.375 
Q 47.125 51.421875 43.28125 58.90625 
Q 39.453125 66.40625 31.78125 66.40625 
M 31.78125 74.21875 
Q 44.046875 74.21875 50.515625 64.515625 
Q 56.984375 54.828125 56.984375 36.375 
Q 56.984375 17.96875 50.515625 8.265625 
Q 44.046875 -1.421875 31.78125 -1.421875 
Q 19.53125 -1.421875 13.0625 8.265625 
Q 6.59375 17.96875 6.59375 36.375 
Q 6.59375 54.828125 13.0625 64.515625 
Q 19.53125 74.21875 31.78125 74.21875 
" id="BitstreamVeraSans-Roman-30"/>
      </defs>
      <g transform="translate(55.5196875 401.918125)scale(0.12 -0.12)">
       <use xlink:href="#BitstreamVeraSans-Roman-2212"/>
       <use x="83.7890625" xlink:href="#BitstreamVeraSans-Roman-32"/>
       <use x="147.412109375" xlink:href="#BitstreamVeraSans-Roman-30"/>
       <use x="211.03515625" xlink:href="#BitstreamVeraSans-Roman-30"/>
      </g>
     </g>
    </g>
    <g id="xtick_2">
     <g id="line2d_3">
      <g>
       <use style="stroke:#000000;stroke-width:0.5;" x="178.285714286" xlink:href="#ma389e29d71" y="388.8"/>
      </g>
     </g>
     <g id="line2d_4">
      <g>
       <use style="stroke:#000000;stroke-width:0.5;" x="178.285714286" xlink:href="#mc7567099b8" y="43.2"/>
      </g>
     </g>
     <g id="text_2">
      <!-- −150 -->
      <defs>
       <path d="M 12.40625 8.296875 
L 28.515625 8.296875 
L 28.515625 63.921875 
L 10.984375 60.40625 
L 10.984375 69.390625 
L 28.421875 72.90625 
L 38.28125 72.90625 
L 38.28125 8.296875 
L 54.390625 8.296875 
L 54.390625 0 
L 12.40625 0 
z
" id="BitstreamVeraSans-Roman-31"/>
       <path d="M 10.796875 72.90625 
L 49.515625 72.90625 
L 49.515625 64.59375 
L 19.828125 64.59375 
L 19.828125 46.734375 
Q 21.96875 47.46875 24.109375 47.828125 
Q 26.265625 48.1875 28.421875 48.1875 
Q 40.625 48.1875 47.75 41.5 
Q 54.890625 34.8125 54.890625 23.390625 
Q 54.890625 11.625 47.5625 5.09375 
Q 40.234375 -1.421875 26.90625 -1.421875 
Q 22.3125 -1.421875 17.546875 -0.640625 
Q 12.796875 0.140625 7.71875 1.703125 
L 7.71875 11.625 
Q 12.109375 9.234375 16.796875 8.0625 
Q 21.484375 6.890625 26.703125 6.890625 
Q 35.15625 6.890625 40.078125 11.328125 
Q 45.015625 15.765625 45.015625 23.390625 
Q 45.015625 31 40.078125 35.4375 
Q 35.15625 39.890625 26.703125 39.890625 
Q 22.75 39.890625 18.8125 39.015625 
Q 14.890625 38.140625 10.796875 36.28125 
z
" id="BitstreamVeraSans-Roman-35"/>
      </defs>
      <g transform="translate(161.805401786 401.918125)scale(0.12 -0.12)">
       <use xlink:href="#BitstreamVeraSans-Roman-2212"/>
       <use x="83.7890625" xlink:href="#BitstreamVeraSans-Roman-31"/>
       <use x="147.412109375" xlink:href="#BitstreamVeraSans-Roman-35"/>
       <use x="211.03515625" xlink:href="#BitstreamVeraSans-Roman-30"/>
      </g>
     </g>
    </g>
    <g id="xtick_3">
     <g id="line2d_5">
      <g>
       <use style="stroke:#000000;stroke-width:0.5;" x="284.571428571" xlink:href="#ma389e29d71" y="388.8"/>
      </g>
     </g>
     <g id="line2d_6">
      <g>
       <use style="stroke:#000000;stroke-width:0.5;" x="284.571428571" xlink:href="#mc7567099b8" y="43.2"/>
      </g>
     </g>
     <g id="text_3">
      <!-- −100 -->
      <g transform="translate(268.091116071 401.918125)scale(0.12 -0.12)">
       <use xlink:href="#BitstreamVeraSans-Roman-2212"/>
       <use x="83.7890625" xlink:href="#BitstreamVeraSans-Roman-31"/>
       <use x="147.412109375" xlink:href="#BitstreamVeraSans-Roman-30"/>
       <use x="211.03515625" xlink:href="#BitstreamVeraSans-Roman-30"/>
      </g>
     </g>
    </g>
    <g id="xtick_4">
     <g id="line2d_7">
      <g>
       <use style="stroke:#000000;stroke-width:0.5;" x="390.857142857" xlink:href="#ma389e29d71" y="388.8"/>
      </g>
     </g>
     <g id="line2d_8">
      <g>
       <use style="stroke:#000000;stroke-width:0.5;" x="390.857142857" xlink:href="#mc7567099b8" y="43.2"/>
      </g>
     </g>
     <g id="text_4">
      <!-- −50 -->
      <g transform="translate(378.194330357 401.918125)scale(0.12 -0.12)">
       <use xlink:href="#BitstreamVeraSans-Roman-2212"/>
       <use x="83.7890625" xlink:href="#BitstreamVeraSans-Roman-35"/>
       <use x="147.412109375" xlink:href="#BitstreamVeraSans-Roman-30"/>
      </g>
     </g>
    </g>
    <g id="xtick_5">
     <g id="line2d_9">
      <g>
       <use style="stroke:#000000;stroke-width:0.5;" x="497.142857143" xlink:href="#ma389e29d71" y="388.8"/>
      </g>
     </g>
     <g id="line2d_10">
      <g>
       <use style="stroke:#000000;stroke-width:0.5;" x="497.142857143" xlink:href="#mc7567099b8" y="43.2"/>
      </g>
     </g>
     <g id="text_5">
      <!-- 0 -->
      <g transform="translate(493.325357143 401.918125)scale(0.12 -0.12)">
       <use xlink:href="#BitstreamVeraSans-Roman-30"/>
      </g>
     </g>
    </g>
   </g>
   <g id="matplotlib.axis_2">
    <g id="ytick_1">
     <g id="line2d_11">
      <defs>
       <path d="M 0 0 
L 4 0 
" id="mef6dfe65d1" style="stroke:#000000;stroke-width:0.5;"/>
      </defs>
      <g>
       <use style="stroke:#000000;stroke-width:0.5;" x="72.0" xlink:href="#mef6dfe65d1" y="388.8"/>
      </g>
     </g>
     <g id="line2d_12">
      <defs>
       <path d="M 0 0 
L -4 0 
" id="m9e72f061df" style="stroke:#000000;stroke-width:0.5;"/>
      </defs>
      <g>
       <use style="stroke:#000000;stroke-width:0.5;" x="518.4" xlink:href="#m9e72f061df" y="388.8"/>
      </g>
     </g>
     <g id="text_6">
      <!-- −200 -->
      <g transform="translate(35.039375 392.11125)scale(0.12 -0.12)">
       <use xlink:href="#BitstreamVeraSans-Roman-2212"/>
       <use x="83.7890625" xlink:href="#BitstreamVeraSans-Roman-32"/>
       <use x="147.412109375" xlink:href="#BitstreamVeraSans-Roman-30"/>
       <use x="211.03515625" xlink:href="#BitstreamVeraSans-Roman-30"/>
      </g>
     </g>
    </g>
    <g id="ytick_2">
     <g id="line2d_13">
      <g>
       <use style="stroke:#000000;stroke-width:0.5;" x="72.0" xlink:href="#mef6dfe65d1" y="306.514285714"/>
      </g>
     </g>
     <g id="line2d_14">
      <g>
       <use style="stroke:#000000;stroke-width:0.5;" x="518.4" xlink:href="#m9e72f061df" y="306.514285714"/>
      </g>
     </g>
     <g id="text_7">
      <!-- −150 -->
      <g transform="translate(35.039375 309.825535714)scale(0.12 -0.12)">
       <use xlink:href="#BitstreamVeraSans-Roman-2212"/>
       <use x="83.7890625" xlink:href="#BitstreamVeraSans-Roman-31"/>
       <use x="147.412109375" xlink:href="#BitstreamVeraSans-Roman-35"/>
       <use x="211.03515625" xlink:href="#BitstreamVeraSans-Roman-30"/>
      </g>
     </g>
    </g>
    <g id="ytick_3">
     <g id="line2d_15">
      <g>
       <use style="stroke:#000000;stroke-width:0.5;" x="72.0" xlink:href="#mef6dfe65d1" y="224.228571429"/>
      </g>
     </g>
     <g id="line2d_16">
      <g>
       <use style="stroke:#000000;stroke-width:0.5;" x="518.4" xlink:href="#m9e72f061df" y="224.228571429"/>
      </g>
     </g>
     <g id="text_8">
      <!-- −100 -->
      <g transform="translate(35.039375 227.539821429)scale(0.12 -0.12)">
       <use xlink:href="#BitstreamVeraSans-Roman-2212"/>
       <use x="83.7890625" xlink:href="#BitstreamVeraSans-Roman-31"/>
       <use x="147.412109375" xlink:href="#BitstreamVeraSans-Roman-30"/>
       <use x="211.03515625" xlink:href="#BitstreamVeraSans-Roman-30"/>
      </g>
     </g>
    </g>
    <g id="ytick_4">
     <g id="line2d_17">
      <g>
       <use style="stroke:#000000;stroke-width:0.5;" x="72.0" xlink:href="#mef6dfe65d1" y="141.942857143"/>
      </g>
     </g>
     <g id="line2d_18">
      <g>
       <use style="stroke:#000000;stroke-width:0.5;" x="518.4" xlink:href="#m9e72f061df" y="141.942857143"/>
      </g>
     </g>
     <g id="text_9">
      <!-- −50 -->
      <g transform="translate(42.674375 145.254107143)scale(0.12 -0.12)">
       <use xlink:href="#BitstreamVeraSans-Roman-2212"/>
       <use x="83.7890625" xlink:href="#BitstreamVeraSans-Roman-35"/>
       <use x="147.412109375" xlink:href="#BitstreamVeraSans-Roman-30"/>
      </g>
     </g>
    </g>
    <g id="ytick_5">
     <g id="line2d_19">
      <g>
       <use style="stroke:#000000;stroke-width:0.5;" x="72.0" xlink:href="#mef6dfe65d1" y="59.6571428571"/>
      </g>
     </g>
     <g id="line2d_20">
      <g>
       <use style="stroke:#000000;stroke-width:0.5;" x="518.4" xlink:href="#m9e72f061df" y="59.6571428571"/>
      </g>
     </g>
     <g id="text_10">
      <!-- 0 -->
      <g transform="translate(60.365 62.9683928571)scale(0.12 -0.12)">
       <use xlink:href="#BitstreamVeraSans-Roman-30"/>
      </g>
     </g>
    </g>
   </g>
  </g>
 </g>
 <defs>
  <clipPath id="p9a8093e5a1">
   <rect height="345.6" width="446.4" x="72.0" y="43.2"/>
  </clipPath>
 </defs>
</svg>
