<?xml version="1.0" encoding="utf-8" standalone="no"?>
<!DOCTYPE svg PUBLIC "-//W3C//DTD SVG 1.1//EN"
  "http://www.w3.org/Graphics/SVG/1.1/DTD/svg11.dtd">
<!-- Created with matplotlib (http://matplotlib.org/) -->
<svg height="432pt" version="1.1" viewBox="0 0 576 432" width="576pt" xmlns="http://www.w3.org/2000/svg" xmlns:xlink="http://www.w3.org/1999/xlink">
 <defs>
  <style type="text/css">
*{stroke-linecap:butt;stroke-linejoin:round;stroke-miterlimit:100000;}
  </style>
 </defs>
 <g id="figure_1">
  <g id="patch_1">
   <path d="M 0 432 
L 576 432 
L 576 0 
L 0 0 
z
" style="fill:#ffffff;"/>
  </g>
  <g id="axes_1">
   <g id="patch_2">
    <path d="M 72 388.8 
L 518.4 388.8 
L 518.4 43.2 
L 72 43.2 
z
" style="fill:#ffffff;"/>
   </g>
   <g id="PathCollection_1">
    <defs>
     <path d="M 0 1.118034 
C 0.296506 1.118034 0.580908 1.000231 0.790569 0.790569 
C 1.000231 0.580908 1.118034 0.296506 1.118034 0 
C 1.118034 -0.296506 1.000231 -0.580908 0.790569 -0.790569 
C 0.580908 -1.000231 0.296506 -1.118034 0 -1.118034 
C -0.296506 -1.118034 -0.580908 -1.000231 -0.790569 -0.790569 
C -1.000231 -0.580908 -1.118034 -0.296506 -1.118034 0 
C -1.118034 0.296506 -1.000231 0.580908 -0.790569 0.790569 
C -0.580908 1.000231 -0.296506 1.118034 0 1.118034 
z
" id="ma2bfb9a11a" style="stroke:#000000;"/>
    </defs>
    <g clip-path="url(#p147490619a)">
     <use style="stroke:#000000;" x="391.479775139" xlink:href="#ma2bfb9a11a" y="80.9992082516"/>
     <use style="stroke:#000000;" x="460.820897041" xlink:href="#ma2bfb9a11a" y="100.873691661"/>
     <use style="stroke:#000000;" x="495.012093195" xlink:href="#ma2bfb9a11a" y="131.908702625"/>
     <use style="stroke:#000000;" x="433.094643543" xlink:href="#ma2bfb9a11a" y="90.4673498126"/>
     <use style="stroke:#000000;" x="493.888080963" xlink:href="#ma2bfb9a11a" y="128.753281148"/>
     <use style="stroke:#000000;" x="493.389988234" xlink:href="#ma2bfb9a11a" y="127.994301578"/>
     <use style="stroke:#000000;" x="421.819691529" xlink:href="#ma2bfb9a11a" y="87.2708448963"/>
     <use style="stroke:#000000;" x="365.077059353" xlink:href="#ma2bfb9a11a" y="75.8399914878"/>
     <use style="stroke:#000000;" x="310.929484886" xlink:href="#ma2bfb9a11a" y="70.4711591152"/>
     <use style="stroke:#000000;" x="322.64872504" xlink:href="#ma2bfb9a11a" y="70.683181079"/>
     <use style="stroke:#000000;" x="331.191289569" xlink:href="#ma2bfb9a11a" y="71.4592719592"/>
     <use style="stroke:#000000;" x="495.728280926" xlink:href="#ma2bfb9a11a" y="132.860921513"/>
     <use style="stroke:#000000;" x="394.98585919" xlink:href="#ma2bfb9a11a" y="81.0549523993"/>
     <use style="stroke:#000000;" x="459.448244931" xlink:href="#ma2bfb9a11a" y="100.319740373"/>
     <use style="stroke:#000000;" x="460.324113474" xlink:href="#ma2bfb9a11a" y="100.76094963"/>
     <use style="stroke:#000000;" x="396.718439807" xlink:href="#ma2bfb9a11a" y="81.3979880395"/>
     <use style="stroke:#000000;" x="408.683539164" xlink:href="#ma2bfb9a11a" y="84.4540117942"/>
     <use style="stroke:#000000;" x="405.000491243" xlink:href="#ma2bfb9a11a" y="83.1621398844"/>
     <use style="stroke:#000000;" x="222.853229441" xlink:href="#ma2bfb9a11a" y="66.4518027814"/>
     <use style="stroke:#000000;" x="406.864518265" xlink:href="#ma2bfb9a11a" y="83.660547499"/>
     <use style="stroke:#000000;" x="385.487360306" xlink:href="#ma2bfb9a11a" y="79.2158665574"/>
     <use style="stroke:#000000;" x="445.778006623" xlink:href="#ma2bfb9a11a" y="94.7345568303"/>
     <use style="stroke:#000000;" x="433.908313466" xlink:href="#ma2bfb9a11a" y="90.7907691735"/>
     <use style="stroke:#000000;" x="430.470569531" xlink:href="#ma2bfb9a11a" y="89.6806021417"/>
     <use style="stroke:#000000;" x="496.046729035" xlink:href="#ma2bfb9a11a" y="133.827541138"/>
     <use style="stroke:#000000;" x="461.490855835" xlink:href="#ma2bfb9a11a" y="101.230687323"/>
     <use style="stroke:#000000;" x="475.618507333" xlink:href="#ma2bfb9a11a" y="109.079358032"/>
     <use style="stroke:#000000;" x="433.613174366" xlink:href="#ma2bfb9a11a" y="90.751312347"/>
     <use style="stroke:#000000;" x="429.043205014" xlink:href="#ma2bfb9a11a" y="89.2628878143"/>
     <use style="stroke:#000000;" x="443.435575444" xlink:href="#ma2bfb9a11a" y="94.0318259709"/>
     <use style="stroke:#000000;" x="402.654890163" xlink:href="#ma2bfb9a11a" y="82.6473572758"/>
     <use style="stroke:#000000;" x="462.579300351" xlink:href="#ma2bfb9a11a" y="101.907233575"/>
     <use style="stroke:#000000;" x="469.465199317" xlink:href="#ma2bfb9a11a" y="105.409954747"/>
     <use style="stroke:#000000;" x="455.999209557" xlink:href="#ma2bfb9a11a" y="98.9082898096"/>
     <use style="stroke:#000000;" x="444.96444758" xlink:href="#ma2bfb9a11a" y="94.4811978577"/>
     <use style="stroke:#000000;" x="470.700381164" xlink:href="#ma2bfb9a11a" y="106.023862735"/>
     <use style="stroke:#000000;" x="437.360999571" xlink:href="#ma2bfb9a11a" y="91.8035320907"/>
     <use style="stroke:#000000;" x="400.110280945" xlink:href="#ma2bfb9a11a" y="82.256603974"/>
     <use style="stroke:#000000;" x="467.055210234" xlink:href="#ma2bfb9a11a" y="104.003666147"/>
     <use style="stroke:#000000;" x="375.175285296" xlink:href="#ma2bfb9a11a" y="77.4187442337"/>
     <use style="stroke:#000000;" x="473.015307606" xlink:href="#ma2bfb9a11a" y="107.408946152"/>
     <use style="stroke:#000000;" x="416.877716377" xlink:href="#ma2bfb9a11a" y="86.1005290887"/>
     <use style="stroke:#000000;" x="480.114089153" xlink:href="#ma2bfb9a11a" y="112.494935741"/>
     <use style="stroke:#000000;" x="494.844243139" xlink:href="#ma2bfb9a11a" y="130.343664566"/>
     <use style="stroke:#000000;" x="388.809665089" xlink:href="#ma2bfb9a11a" y="79.8379802703"/>
     <use style="stroke:#000000;" x="468.311213067" xlink:href="#ma2bfb9a11a" y="104.896935011"/>
     <use style="stroke:#000000;" x="348.39237325" xlink:href="#ma2bfb9a11a" y="73.3887704103"/>
     <use style="stroke:#000000;" x="497.024784794" xlink:href="#ma2bfb9a11a" y="139.224269198"/>
     <use style="stroke:#000000;" x="422.022932406" xlink:href="#ma2bfb9a11a" y="87.3714658421"/>
     <use style="stroke:#000000;" x="473.398304989" xlink:href="#ma2bfb9a11a" y="107.684722822"/>
     <use style="stroke:#000000;" x="425.86243781" xlink:href="#ma2bfb9a11a" y="88.3650900356"/>
     <use style="stroke:#000000;" x="434.441133092" xlink:href="#ma2bfb9a11a" y="90.8844087414"/>
     <use style="stroke:#000000;" x="370.792147068" xlink:href="#ma2bfb9a11a" y="76.6860832965"/>
     <use style="stroke:#000000;" x="423.357500412" xlink:href="#ma2bfb9a11a" y="87.6960263856"/>
     <use style="stroke:#000000;" x="478.068772186" xlink:href="#ma2bfb9a11a" y="110.789859799"/>
     <use style="stroke:#000000;" x="483.911426225" xlink:href="#ma2bfb9a11a" y="115.566930132"/>
     <use style="stroke:#000000;" x="496.18278725" xlink:href="#ma2bfb9a11a" y="134.746015384"/>
     <use style="stroke:#000000;" x="481.437957941" xlink:href="#ma2bfb9a11a" y="113.356843386"/>
     <use style="stroke:#000000;" x="387.523970232" xlink:href="#ma2bfb9a11a" y="79.6674434037"/>
     <use style="stroke:#000000;" x="491.260088182" xlink:href="#ma2bfb9a11a" y="123.725445692"/>
     <use style="stroke:#000000;" x="326.386717317" xlink:href="#ma2bfb9a11a" y="84.0220913569"/>
     <use style="stroke:#000000;" x="333.925539829" xlink:href="#ma2bfb9a11a" y="98.5361108709"/>
     <use style="stroke:#000000;" x="348.072515468" xlink:href="#ma2bfb9a11a" y="74.4697896549"/>
     <use style="stroke:#000000;" x="395.459899255" xlink:href="#ma2bfb9a11a" y="82.1547233871"/>
     <use style="stroke:#000000;" x="469.002580492" xlink:href="#ma2bfb9a11a" y="107.276703209"/>
     <use style="stroke:#000000;" x="334.909570761" xlink:href="#ma2bfb9a11a" y="83.7758014347"/>
     <use style="stroke:#000000;" x="438.722340115" xlink:href="#ma2bfb9a11a" y="101.606642179"/>
     <use style="stroke:#000000;" x="493.211079185" xlink:href="#ma2bfb9a11a" y="130.070628643"/>
     <use style="stroke:#000000;" x="488.567811234" xlink:href="#ma2bfb9a11a" y="120.295360123"/>
     <use style="stroke:#000000;" x="340.05728846" xlink:href="#ma2bfb9a11a" y="72.3550500644"/>
     <use style="stroke:#000000;" x="347.344822552" xlink:href="#ma2bfb9a11a" y="73.7044807814"/>
     <use style="stroke:#000000;" x="407.393892686" xlink:href="#ma2bfb9a11a" y="84.4991374829"/>
     <use style="stroke:#000000;" x="263.637674596" xlink:href="#ma2bfb9a11a" y="73.8167010958"/>
     <use style="stroke:#000000;" x="315.578348763" xlink:href="#ma2bfb9a11a" y="88.1265438148"/>
     <use style="stroke:#000000;" x="320.536941431" xlink:href="#ma2bfb9a11a" y="79.4655279137"/>
     <use style="stroke:#000000;" x="430.686357088" xlink:href="#ma2bfb9a11a" y="106.979707995"/>
     <use style="stroke:#000000;" x="428.84171817" xlink:href="#ma2bfb9a11a" y="102.62948395"/>
     <use style="stroke:#000000;" x="332.639042461" xlink:href="#ma2bfb9a11a" y="83.3013042042"/>
     <use style="stroke:#000000;" x="337.466496354" xlink:href="#ma2bfb9a11a" y="95.1644684168"/>
     <use style="stroke:#000000;" x="386.796199591" xlink:href="#ma2bfb9a11a" y="93.7335716218"/>
     <use style="stroke:#000000;" x="250.530961797" xlink:href="#ma2bfb9a11a" y="71.2414053537"/>
     <use style="stroke:#000000;" x="483.045858179" xlink:href="#ma2bfb9a11a" y="114.727515917"/>
     <use style="stroke:#000000;" x="379.611993085" xlink:href="#ma2bfb9a11a" y="86.1286666049"/>
     <use style="stroke:#000000;" x="458.699429553" xlink:href="#ma2bfb9a11a" y="109.572430765"/>
     <use style="stroke:#000000;" x="438.60373392" xlink:href="#ma2bfb9a11a" y="92.3677395696"/>
     <use style="stroke:#000000;" x="351.368570551" xlink:href="#ma2bfb9a11a" y="91.1507946531"/>
     <use style="stroke:#000000;" x="236.734699802" xlink:href="#ma2bfb9a11a" y="69.8756200369"/>
     <use style="stroke:#000000;" x="422.728215073" xlink:href="#ma2bfb9a11a" y="88.1906485092"/>
     <use style="stroke:#000000;" x="476.893359498" xlink:href="#ma2bfb9a11a" y="112.522595206"/>
     <use style="stroke:#000000;" x="433.08641528" xlink:href="#ma2bfb9a11a" y="104.236027999"/>
     <use style="stroke:#000000;" x="264.083889729" xlink:href="#ma2bfb9a11a" y="68.8513219199"/>
     <use style="stroke:#000000;" x="454.510953306" xlink:href="#ma2bfb9a11a" y="109.075134849"/>
     <use style="stroke:#000000;" x="483.932230668" xlink:href="#ma2bfb9a11a" y="117.521541362"/>
     <use style="stroke:#000000;" x="368.391412395" xlink:href="#ma2bfb9a11a" y="97.5021755103"/>
     <use style="stroke:#000000;" x="456.42542862" xlink:href="#ma2bfb9a11a" y="109.094997604"/>
     <use style="stroke:#000000;" x="464.386356819" xlink:href="#ma2bfb9a11a" y="107.218189535"/>
     <use style="stroke:#000000;" x="444.466474032" xlink:href="#ma2bfb9a11a" y="99.2472594427"/>
     <use style="stroke:#000000;" x="429.759455895" xlink:href="#ma2bfb9a11a" y="90.9418148278"/>
     <use style="stroke:#000000;" x="467.408577537" xlink:href="#ma2bfb9a11a" y="105.988429566"/>
     <use style="stroke:#000000;" x="237.561473818" xlink:href="#ma2bfb9a11a" y="68.9369529206"/>
     <use style="stroke:#000000;" x="351.591622158" xlink:href="#ma2bfb9a11a" y="89.828539403"/>
     <use style="stroke:#000000;" x="265.7021076" xlink:href="#ma2bfb9a11a" y="78.6718969773"/>
     <use style="stroke:#000000;" x="351.79568255" xlink:href="#ma2bfb9a11a" y="92.8845896077"/>
     <use style="stroke:#000000;" x="397.21099351" xlink:href="#ma2bfb9a11a" y="81.8334321523"/>
     <use style="stroke:#000000;" x="385.479967352" xlink:href="#ma2bfb9a11a" y="79.2304725983"/>
     <use style="stroke:#000000;" x="482.690900884" xlink:href="#ma2bfb9a11a" y="115.939002658"/>
     <use style="stroke:#000000;" x="406.237966313" xlink:href="#ma2bfb9a11a" y="87.0099650236"/>
     <use style="stroke:#000000;" x="426.185535337" xlink:href="#ma2bfb9a11a" y="91.9177138253"/>
     <use style="stroke:#000000;" x="453.160241393" xlink:href="#ma2bfb9a11a" y="99.5551232258"/>
     <use style="stroke:#000000;" x="404.536666596" xlink:href="#ma2bfb9a11a" y="83.3523511061"/>
     <use style="stroke:#000000;" x="459.150098615" xlink:href="#ma2bfb9a11a" y="100.803903695"/>
     <use style="stroke:#000000;" x="475.249448413" xlink:href="#ma2bfb9a11a" y="111.13635609"/>
     <use style="stroke:#000000;" x="468.468208393" xlink:href="#ma2bfb9a11a" y="104.78724825"/>
     <use style="stroke:#000000;" x="325.840484254" xlink:href="#ma2bfb9a11a" y="86.9466229312"/>
     <use style="stroke:#000000;" x="307.769110787" xlink:href="#ma2bfb9a11a" y="74.6835903252"/>
     <use style="stroke:#000000;" x="480.248211041" xlink:href="#ma2bfb9a11a" y="119.751807442"/>
     <use style="stroke:#000000;" x="438.804267249" xlink:href="#ma2bfb9a11a" y="92.3249584203"/>
     <use style="stroke:#000000;" x="393.820834094" xlink:href="#ma2bfb9a11a" y="96.6641083067"/>
     <use style="stroke:#000000;" x="477.692256966" xlink:href="#ma2bfb9a11a" y="115.124337462"/>
     <use style="stroke:#000000;" x="336.553519182" xlink:href="#ma2bfb9a11a" y="76.4789921911"/>
    </g>
   </g>
   <g id="PathCollection_2">
    <defs>
     <path d="M 0 1.936492 
C 0.513564 1.936492 1.006162 1.732451 1.369306 1.369306 
C 1.732451 1.006162 1.936492 0.513564 1.936492 0 
C 1.936492 -0.513564 1.732451 -1.006162 1.369306 -1.369306 
C 1.006162 -1.732451 0.513564 -1.936492 0 -1.936492 
C -0.513564 -1.936492 -1.006162 -1.732451 -1.369306 -1.369306 
C -1.732451 -1.006162 -1.936492 -0.513564 -1.936492 0 
C -1.936492 0.513564 -1.732451 1.006162 -1.369306 1.369306 
C -1.006162 1.732451 -0.513564 1.936492 0 1.936492 
z
" id="m0f52806c4e" style="stroke:#000000;"/>
    </defs>
    <g clip-path="url(#p147490619a)">
     <use style="fill:#0000ff;stroke:#000000;" x="391.479775139" xlink:href="#m0f52806c4e" y="80.9992082516"/>
     <use style="fill:#0000ff;stroke:#000000;" x="460.820897041" xlink:href="#m0f52806c4e" y="100.873691661"/>
     <use style="fill:#0000ff;stroke:#000000;" x="495.012093195" xlink:href="#m0f52806c4e" y="131.908702625"/>
     <use style="fill:#0000ff;stroke:#000000;" x="433.094643543" xlink:href="#m0f52806c4e" y="90.4673498126"/>
     <use style="fill:#0000ff;stroke:#000000;" x="493.888080963" xlink:href="#m0f52806c4e" y="128.753281148"/>
     <use style="fill:#0000ff;stroke:#000000;" x="493.389988234" xlink:href="#m0f52806c4e" y="127.994301578"/>
     <use style="fill:#0000ff;stroke:#000000;" x="421.819691529" xlink:href="#m0f52806c4e" y="87.2708448963"/>
     <use style="fill:#0000ff;stroke:#000000;" x="365.077059353" xlink:href="#m0f52806c4e" y="75.8399914878"/>
     <use style="fill:#0000ff;stroke:#000000;" x="310.929484886" xlink:href="#m0f52806c4e" y="70.4711591152"/>
     <use style="fill:#0000ff;stroke:#000000;" x="322.64872504" xlink:href="#m0f52806c4e" y="70.683181079"/>
     <use style="fill:#0000ff;stroke:#000000;" x="331.191289569" xlink:href="#m0f52806c4e" y="71.4592719592"/>
     <use style="fill:#0000ff;stroke:#000000;" x="495.728280926" xlink:href="#m0f52806c4e" y="132.860921513"/>
     <use style="fill:#0000ff;stroke:#000000;" x="394.98585919" xlink:href="#m0f52806c4e" y="81.0549523993"/>
     <use style="fill:#0000ff;stroke:#000000;" x="459.448244931" xlink:href="#m0f52806c4e" y="100.319740373"/>
     <use style="fill:#0000ff;stroke:#000000;" x="460.324113474" xlink:href="#m0f52806c4e" y="100.76094963"/>
     <use style="fill:#0000ff;stroke:#000000;" x="396.718439807" xlink:href="#m0f52806c4e" y="81.3979880395"/>
     <use style="fill:#0000ff;stroke:#000000;" x="408.683539164" xlink:href="#m0f52806c4e" y="84.4540117942"/>
     <use style="fill:#0000ff;stroke:#000000;" x="405.000491243" xlink:href="#m0f52806c4e" y="83.1621398844"/>
     <use style="fill:#0000ff;stroke:#000000;" x="222.853229441" xlink:href="#m0f52806c4e" y="66.4518027814"/>
     <use style="fill:#0000ff;stroke:#000000;" x="406.864518265" xlink:href="#m0f52806c4e" y="83.660547499"/>
     <use style="fill:#0000ff;stroke:#000000;" x="385.487360306" xlink:href="#m0f52806c4e" y="79.2158665574"/>
     <use style="fill:#0000ff;stroke:#000000;" x="445.778006623" xlink:href="#m0f52806c4e" y="94.7345568303"/>
     <use style="fill:#0000ff;stroke:#000000;" x="433.908313466" xlink:href="#m0f52806c4e" y="90.7907691735"/>
     <use style="fill:#0000ff;stroke:#000000;" x="430.470569531" xlink:href="#m0f52806c4e" y="89.6806021417"/>
     <use style="fill:#0000ff;stroke:#000000;" x="496.046729035" xlink:href="#m0f52806c4e" y="133.827541138"/>
     <use style="fill:#0000ff;stroke:#000000;" x="461.490855835" xlink:href="#m0f52806c4e" y="101.230687323"/>
     <use style="fill:#0000ff;stroke:#000000;" x="475.618507333" xlink:href="#m0f52806c4e" y="109.079358032"/>
     <use style="fill:#0000ff;stroke:#000000;" x="433.613174366" xlink:href="#m0f52806c4e" y="90.751312347"/>
     <use style="fill:#0000ff;stroke:#000000;" x="429.043205014" xlink:href="#m0f52806c4e" y="89.2628878143"/>
     <use style="fill:#0000ff;stroke:#000000;" x="443.435575444" xlink:href="#m0f52806c4e" y="94.0318259709"/>
     <use style="fill:#0000ff;stroke:#000000;" x="402.654890163" xlink:href="#m0f52806c4e" y="82.6473572758"/>
     <use style="fill:#0000ff;stroke:#000000;" x="462.579300351" xlink:href="#m0f52806c4e" y="101.907233575"/>
     <use style="fill:#0000ff;stroke:#000000;" x="469.465199317" xlink:href="#m0f52806c4e" y="105.409954747"/>
     <use style="fill:#0000ff;stroke:#000000;" x="455.999209557" xlink:href="#m0f52806c4e" y="98.9082898096"/>
     <use style="fill:#0000ff;stroke:#000000;" x="444.96444758" xlink:href="#m0f52806c4e" y="94.4811978577"/>
     <use style="fill:#0000ff;stroke:#000000;" x="470.700381164" xlink:href="#m0f52806c4e" y="106.023862735"/>
     <use style="fill:#0000ff;stroke:#000000;" x="437.360999571" xlink:href="#m0f52806c4e" y="91.8035320907"/>
     <use style="fill:#0000ff;stroke:#000000;" x="400.110280945" xlink:href="#m0f52806c4e" y="82.256603974"/>
     <use style="fill:#0000ff;stroke:#000000;" x="467.055210234" xlink:href="#m0f52806c4e" y="104.003666147"/>
     <use style="fill:#0000ff;stroke:#000000;" x="375.175285296" xlink:href="#m0f52806c4e" y="77.4187442337"/>
     <use style="fill:#0000ff;stroke:#000000;" x="473.015307606" xlink:href="#m0f52806c4e" y="107.408946152"/>
     <use style="fill:#0000ff;stroke:#000000;" x="416.877716377" xlink:href="#m0f52806c4e" y="86.1005290887"/>
     <use style="fill:#0000ff;stroke:#000000;" x="480.114089153" xlink:href="#m0f52806c4e" y="112.494935741"/>
     <use style="fill:#0000ff;stroke:#000000;" x="494.844243139" xlink:href="#m0f52806c4e" y="130.343664566"/>
     <use style="fill:#0000ff;stroke:#000000;" x="388.809665089" xlink:href="#m0f52806c4e" y="79.8379802703"/>
     <use style="fill:#0000ff;stroke:#000000;" x="468.311213067" xlink:href="#m0f52806c4e" y="104.896935011"/>
     <use style="fill:#0000ff;stroke:#000000;" x="348.39237325" xlink:href="#m0f52806c4e" y="73.3887704103"/>
     <use style="fill:#0000ff;stroke:#000000;" x="497.024784794" xlink:href="#m0f52806c4e" y="139.224269198"/>
     <use style="fill:#0000ff;stroke:#000000;" x="422.022932406" xlink:href="#m0f52806c4e" y="87.3714658421"/>
     <use style="fill:#0000ff;stroke:#000000;" x="473.398304989" xlink:href="#m0f52806c4e" y="107.684722822"/>
     <use style="fill:#0000ff;stroke:#000000;" x="425.86243781" xlink:href="#m0f52806c4e" y="88.3650900356"/>
     <use style="fill:#0000ff;stroke:#000000;" x="434.441133092" xlink:href="#m0f52806c4e" y="90.8844087414"/>
     <use style="fill:#0000ff;stroke:#000000;" x="370.792147068" xlink:href="#m0f52806c4e" y="76.6860832965"/>
     <use style="fill:#0000ff;stroke:#000000;" x="423.357500412" xlink:href="#m0f52806c4e" y="87.6960263856"/>
     <use style="fill:#0000ff;stroke:#000000;" x="478.068772186" xlink:href="#m0f52806c4e" y="110.789859799"/>
     <use style="fill:#0000ff;stroke:#000000;" x="483.911426225" xlink:href="#m0f52806c4e" y="115.566930132"/>
     <use style="fill:#0000ff;stroke:#000000;" x="496.18278725" xlink:href="#m0f52806c4e" y="134.746015384"/>
     <use style="fill:#0000ff;stroke:#000000;" x="481.437957941" xlink:href="#m0f52806c4e" y="113.356843386"/>
     <use style="fill:#0000ff;stroke:#000000;" x="387.523970232" xlink:href="#m0f52806c4e" y="79.6674434037"/>
     <use style="fill:#0000ff;stroke:#000000;" x="491.260088182" xlink:href="#m0f52806c4e" y="123.725445692"/>
    </g>
   </g>
   <g id="patch_3">
    <path d="M 72 388.8 
L 518.4 388.8 
" style="fill:none;stroke:#000000;stroke-linecap:square;stroke-linejoin:miter;"/>
   </g>
   <g id="patch_4">
    <path d="M 72 43.2 
L 518.4 43.2 
" style="fill:none;stroke:#000000;stroke-linecap:square;stroke-linejoin:miter;"/>
   </g>
   <g id="patch_5">
    <path d="M 72 388.8 
L 72 43.2 
" style="fill:none;stroke:#000000;stroke-linecap:square;stroke-linejoin:miter;"/>
   </g>
   <g id="patch_6">
    <path d="M 518.4 388.8 
L 518.4 43.2 
" style="fill:none;stroke:#000000;stroke-linecap:square;stroke-linejoin:miter;"/>
   </g>
   <g id="matplotlib.axis_1">
    <g id="xtick_1">
     <g id="line2d_1">
      <defs>
       <path d="M 0 0 
L 0 -4 
" id="md67645ee19" style="stroke:#000000;stroke-width:0.5;"/>
      </defs>
      <g>
       <use style="stroke:#000000;stroke-width:0.5;" x="72.0" xlink:href="#md67645ee19" y="388.8"/>
      </g>
     </g>
     <g id="line2d_2">
      <defs>
       <path d="M 0 0 
L 0 4 
" id="m7d2ba6b239" style="stroke:#000000;stroke-width:0.5;"/>
      </defs>
      <g>
       <use style="stroke:#000000;stroke-width:0.5;" x="72.0" xlink:href="#m7d2ba6b239" y="43.2"/>
      </g>
     </g>
     <g id="text_1">
      <!-- −200 -->
      <defs>
       <path d="M 10.59375 35.5 
L 73.1875 35.5 
L 73.1875 27.203125 
L 10.59375 27.203125 
z
" id="BitstreamVeraSans-Roman-2212"/>
       <path d="M 19.1875 8.296875 
L 53.609375 8.296875 
L 53.609375 0 
L 7.328125 0 
L 7.328125 8.296875 
Q 12.9375 14.109375 22.625 23.890625 
Q 32.328125 33.6875 34.8125 36.53125 
Q 39.546875 41.84375 41.421875 45.53125 
Q 43.3125 49.21875 43.3125 52.78125 
Q 43.3125 58.59375 39.234375 62.25 
Q 35.15625 65.921875 28.609375 65.921875 
Q 23.96875 65.921875 18.8125 64.3125 
Q 13.671875 62.703125 7.8125 59.421875 
L 7.8125 69.390625 
Q 13.765625 71.78125 18.9375 73 
Q 24.125 74.21875 28.421875 74.21875 
Q 39.75 74.21875 46.484375 68.546875 
Q 53.21875 62.890625 53.21875 53.421875 
Q 53.21875 48.921875 51.53125 44.890625 
Q 49.859375 40.875 45.40625 35.40625 
Q 44.1875 33.984375 37.640625 27.21875 
Q 31.109375 20.453125 19.1875 8.296875 
" id="BitstreamVeraSans-Roman-32"/>
       <path d="M 31.78125 66.40625 
Q 24.171875 66.40625 20.328125 58.90625 
Q 16.5 51.421875 16.5 36.375 
Q 16.5 21.390625 20.328125 13.890625 
Q 24.171875 6.390625 31.78125 6.390625 
Q 39.453125 6.390625 43.28125 13.890625 
Q 47.125 21.390625 47.125 36.375 
Q 47.125 51.421875 43.28125 58.90625 
Q 39.453125 66.40625 31.78125 66.40625 
M 31.78125 74.21875 
Q 44.046875 74.21875 50.515625 64.515625 
Q 56.984375 54.828125 56.984375 36.375 
Q 56.984375 17.96875 50.515625 8.265625 
Q 44.046875 -1.421875 31.78125 -1.421875 
Q 19.53125 -1.421875 13.0625 8.265625 
Q 6.59375 17.96875 6.59375 36.375 
Q 6.59375 54.828125 13.0625 64.515625 
Q 19.53125 74.21875 31.78125 74.21875 
" id="BitstreamVeraSans-Roman-30"/>
      </defs>
      <g transform="translate(55.5196875 401.918125)scale(0.12 -0.12)">
       <use xlink:href="#BitstreamVeraSans-Roman-2212"/>
       <use x="83.7890625" xlink:href="#BitstreamVeraSans-Roman-32"/>
       <use x="147.412109375" xlink:href="#BitstreamVeraSans-Roman-30"/>
       <use x="211.03515625" xlink:href="#BitstreamVeraSans-Roman-30"/>
      </g>
     </g>
    </g>
    <g id="xtick_2">
     <g id="line2d_3">
      <g>
       <use style="stroke:#000000;stroke-width:0.5;" x="178.285714286" xlink:href="#md67645ee19" y="388.8"/>
      </g>
     </g>
     <g id="line2d_4">
      <g>
       <use style="stroke:#000000;stroke-width:0.5;" x="178.285714286" xlink:href="#m7d2ba6b239" y="43.2"/>
      </g>
     </g>
     <g id="text_2">
      <!-- −150 -->
      <defs>
       <path d="M 12.40625 8.296875 
L 28.515625 8.296875 
L 28.515625 63.921875 
L 10.984375 60.40625 
L 10.984375 69.390625 
L 28.421875 72.90625 
L 38.28125 72.90625 
L 38.28125 8.296875 
L 54.390625 8.296875 
L 54.390625 0 
L 12.40625 0 
z
" id="BitstreamVeraSans-Roman-31"/>
       <path d="M 10.796875 72.90625 
L 49.515625 72.90625 
L 49.515625 64.59375 
L 19.828125 64.59375 
L 19.828125 46.734375 
Q 21.96875 47.46875 24.109375 47.828125 
Q 26.265625 48.1875 28.421875 48.1875 
Q 40.625 48.1875 47.75 41.5 
Q 54.890625 34.8125 54.890625 23.390625 
Q 54.890625 11.625 47.5625 5.09375 
Q 40.234375 -1.421875 26.90625 -1.421875 
Q 22.3125 -1.421875 17.546875 -0.640625 
Q 12.796875 0.140625 7.71875 1.703125 
L 7.71875 11.625 
Q 12.109375 9.234375 16.796875 8.0625 
Q 21.484375 6.890625 26.703125 6.890625 
Q 35.15625 6.890625 40.078125 11.328125 
Q 45.015625 15.765625 45.015625 23.390625 
Q 45.015625 31 40.078125 35.4375 
Q 35.15625 39.890625 26.703125 39.890625 
Q 22.75 39.890625 18.8125 39.015625 
Q 14.890625 38.140625 10.796875 36.28125 
z
" id="BitstreamVeraSans-Roman-35"/>
      </defs>
      <g transform="translate(161.805401786 401.918125)scale(0.12 -0.12)">
       <use xlink:href="#BitstreamVeraSans-Roman-2212"/>
       <use x="83.7890625" xlink:href="#BitstreamVeraSans-Roman-31"/>
       <use x="147.412109375" xlink:href="#BitstreamVeraSans-Roman-35"/>
       <use x="211.03515625" xlink:href="#BitstreamVeraSans-Roman-30"/>
      </g>
     </g>
    </g>
    <g id="xtick_3">
     <g id="line2d_5">
      <g>
       <use style="stroke:#000000;stroke-width:0.5;" x="284.571428571" xlink:href="#md67645ee19" y="388.8"/>
      </g>
     </g>
     <g id="line2d_6">
      <g>
       <use style="stroke:#000000;stroke-width:0.5;" x="284.571428571" xlink:href="#m7d2ba6b239" y="43.2"/>
      </g>
     </g>
     <g id="text_3">
      <!-- −100 -->
      <g transform="translate(268.091116071 401.918125)scale(0.12 -0.12)">
       <use xlink:href="#BitstreamVeraSans-Roman-2212"/>
       <use x="83.7890625" xlink:href="#BitstreamVeraSans-Roman-31"/>
       <use x="147.412109375" xlink:href="#BitstreamVeraSans-Roman-30"/>
       <use x="211.03515625" xlink:href="#BitstreamVeraSans-Roman-30"/>
      </g>
     </g>
    </g>
    <g id="xtick_4">
     <g id="line2d_7">
      <g>
       <use style="stroke:#000000;stroke-width:0.5;" x="390.857142857" xlink:href="#md67645ee19" y="388.8"/>
      </g>
     </g>
     <g id="line2d_8">
      <g>
       <use style="stroke:#000000;stroke-width:0.5;" x="390.857142857" xlink:href="#m7d2ba6b239" y="43.2"/>
      </g>
     </g>
     <g id="text_4">
      <!-- −50 -->
      <g transform="translate(378.194330357 401.918125)scale(0.12 -0.12)">
       <use xlink:href="#BitstreamVeraSans-Roman-2212"/>
       <use x="83.7890625" xlink:href="#BitstreamVeraSans-Roman-35"/>
       <use x="147.412109375" xlink:href="#BitstreamVeraSans-Roman-30"/>
      </g>
     </g>
    </g>
    <g id="xtick_5">
     <g id="line2d_9">
      <g>
       <use style="stroke:#000000;stroke-width:0.5;" x="497.142857143" xlink:href="#md67645ee19" y="388.8"/>
      </g>
     </g>
     <g id="line2d_10">
      <g>
       <use style="stroke:#000000;stroke-width:0.5;" x="497.142857143" xlink:href="#m7d2ba6b239" y="43.2"/>
      </g>
     </g>
     <g id="text_5">
      <!-- 0 -->
      <g transform="translate(493.325357143 401.918125)scale(0.12 -0.12)">
       <use xlink:href="#BitstreamVeraSans-Roman-30"/>
      </g>
     </g>
    </g>
   </g>
   <g id="matplotlib.axis_2">
    <g id="ytick_1">
     <g id="line2d_11">
      <defs>
       <path d="M 0 0 
L 4 0 
" id="md04b33655c" style="stroke:#000000;stroke-width:0.5;"/>
      </defs>
      <g>
       <use style="stroke:#000000;stroke-width:0.5;" x="72.0" xlink:href="#md04b33655c" y="388.8"/>
      </g>
     </g>
     <g id="line2d_12">
      <defs>
       <path d="M 0 0 
L -4 0 
" id="m1adbf4c171" style="stroke:#000000;stroke-width:0.5;"/>
      </defs>
      <g>
       <use style="stroke:#000000;stroke-width:0.5;" x="518.4" xlink:href="#m1adbf4c171" y="388.8"/>
      </g>
     </g>
     <g id="text_6">
      <!-- −200 -->
      <g transform="translate(35.039375 392.11125)scale(0.12 -0.12)">
       <use xlink:href="#BitstreamVeraSans-Roman-2212"/>
       <use x="83.7890625" xlink:href="#BitstreamVeraSans-Roman-32"/>
       <use x="147.412109375" xlink:href="#BitstreamVeraSans-Roman-30"/>
       <use x="211.03515625" xlink:href="#BitstreamVeraSans-Roman-30"/>
      </g>
     </g>
    </g>
    <g id="ytick_2">
     <g id="line2d_13">
      <g>
       <use style="stroke:#000000;stroke-width:0.5;" x="72.0" xlink:href="#md04b33655c" y="306.514285714"/>
      </g>
     </g>
     <g id="line2d_14">
      <g>
       <use style="stroke:#000000;stroke-width:0.5;" x="518.4" xlink:href="#m1adbf4c171" y="306.514285714"/>
      </g>
     </g>
     <g id="text_7">
      <!-- −150 -->
      <g transform="translate(35.039375 309.825535714)scale(0.12 -0.12)">
       <use xlink:href="#BitstreamVeraSans-Roman-2212"/>
       <use x="83.7890625" xlink:href="#BitstreamVeraSans-Roman-31"/>
       <use x="147.412109375" xlink:href="#BitstreamVeraSans-Roman-35"/>
       <use x="211.03515625" xlink:href="#BitstreamVeraSans-Roman-30"/>
      </g>
     </g>
    </g>
    <g id="ytick_3">
     <g id="line2d_15">
      <g>
       <use style="stroke:#000000;stroke-width:0.5;" x="72.0" xlink:href="#md04b33655c" y="224.228571429"/>
      </g>
     </g>
     <g id="line2d_16">
      <g>
       <use style="stroke:#000000;stroke-width:0.5;" x="518.4" xlink:href="#m1adbf4c171" y="224.228571429"/>
      </g>
     </g>
     <g id="text_8">
      <!-- −100 -->
      <g transform="translate(35.039375 227.539821429)scale(0.12 -0.12)">
       <use xlink:href="#BitstreamVeraSans-Roman-2212"/>
       <use x="83.7890625" xlink:href="#BitstreamVeraSans-Roman-31"/>
       <use x="147.412109375" xlink:href="#BitstreamVeraSans-Roman-30"/>
       <use x="211.03515625" xlink:href="#BitstreamVeraSans-Roman-30"/>
      </g>
     </g>
    </g>
    <g id="ytick_4">
     <g id="line2d_17">
      <g>
       <use style="stroke:#000000;stroke-width:0.5;" x="72.0" xlink:href="#md04b33655c" y="141.942857143"/>
      </g>
     </g>
     <g id="line2d_18">
      <g>
       <use style="stroke:#000000;stroke-width:0.5;" x="518.4" xlink:href="#m1adbf4c171" y="141.942857143"/>
      </g>
     </g>
     <g id="text_9">
      <!-- −50 -->
      <g transform="translate(42.674375 145.254107143)scale(0.12 -0.12)">
       <use xlink:href="#BitstreamVeraSans-Roman-2212"/>
       <use x="83.7890625" xlink:href="#BitstreamVeraSans-Roman-35"/>
       <use x="147.412109375" xlink:href="#BitstreamVeraSans-Roman-30"/>
      </g>
     </g>
    </g>
    <g id="ytick_5">
     <g id="line2d_19">
      <g>
       <use style="stroke:#000000;stroke-width:0.5;" x="72.0" xlink:href="#md04b33655c" y="59.6571428571"/>
      </g>
     </g>
     <g id="line2d_20">
      <g>
       <use style="stroke:#000000;stroke-width:0.5;" x="518.4" xlink:href="#m1adbf4c171" y="59.6571428571"/>
      </g>
     </g>
     <g id="text_10">
      <!-- 0 -->
      <g transform="translate(60.365 62.9683928571)scale(0.12 -0.12)">
       <use xlink:href="#BitstreamVeraSans-Roman-30"/>
      </g>
     </g>
    </g>
   </g>
  </g>
 </g>
 <defs>
  <clipPath id="p147490619a">
   <rect height="345.6" width="446.4" x="72.0" y="43.2"/>
  </clipPath>
 </defs>
</svg>
