<?xml version="1.0" encoding="utf-8" standalone="no"?>
<!DOCTYPE svg PUBLIC "-//W3C//DTD SVG 1.1//EN"
  "http://www.w3.org/Graphics/SVG/1.1/DTD/svg11.dtd">
<!-- Created with matplotlib (http://matplotlib.org/) -->
<svg height="432pt" version="1.1" viewBox="0 0 576 432" width="576pt" xmlns="http://www.w3.org/2000/svg" xmlns:xlink="http://www.w3.org/1999/xlink">
 <defs>
  <style type="text/css">
*{stroke-linecap:butt;stroke-linejoin:round;stroke-miterlimit:100000;}
  </style>
 </defs>
 <g id="figure_1">
  <g id="patch_1">
   <path d="M 0 432 
L 576 432 
L 576 0 
L 0 0 
z
" style="fill:#ffffff;"/>
  </g>
  <g id="axes_1">
   <g id="patch_2">
    <path d="M 72 388.8 
L 518.4 388.8 
L 518.4 43.2 
L 72 43.2 
z
" style="fill:#ffffff;"/>
   </g>
   <g id="PathCollection_1">
    <defs>
     <path d="M 0 1.118034 
C 0.296506 1.118034 0.580908 1.000231 0.790569 0.790569 
C 1.000231 0.580908 1.118034 0.296506 1.118034 0 
C 1.118034 -0.296506 1.000231 -0.580908 0.790569 -0.790569 
C 0.580908 -1.000231 0.296506 -1.118034 0 -1.118034 
C -0.296506 -1.118034 -0.580908 -1.000231 -0.790569 -0.790569 
C -1.000231 -0.580908 -1.118034 -0.296506 -1.118034 0 
C -1.118034 0.296506 -1.000231 0.580908 -0.790569 0.790569 
C -0.580908 1.000231 -0.296506 1.118034 0 1.118034 
z
" id="m4b7c1dfcb5" style="stroke:#000000;"/>
    </defs>
    <g clip-path="url(#pdef7032c5d)">
     <use style="stroke:#000000;" x="233.779577991" xlink:href="#m4b7c1dfcb5" y="68.8212133115"/>
     <use style="stroke:#000000;" x="401.303471305" xlink:href="#m4b7c1dfcb5" y="82.4693587501"/>
     <use style="stroke:#000000;" x="493.888080963" xlink:href="#m4b7c1dfcb5" y="128.753281148"/>
     <use style="stroke:#000000;" x="331.191289569" xlink:href="#m4b7c1dfcb5" y="71.4592719592"/>
     <use style="stroke:#000000;" x="493.389988234" xlink:href="#m4b7c1dfcb5" y="127.994301578"/>
     <use style="stroke:#000000;" x="322.64872504" xlink:href="#m4b7c1dfcb5" y="70.683181079"/>
     <use style="stroke:#000000;" x="495.012093195" xlink:href="#m4b7c1dfcb5" y="131.908702625"/>
     <use style="stroke:#000000;" x="460.820897041" xlink:href="#m4b7c1dfcb5" y="100.873691661"/>
     <use style="stroke:#000000;" x="365.077059353" xlink:href="#m4b7c1dfcb5" y="75.8399914878"/>
     <use style="stroke:#000000;" x="495.728280926" xlink:href="#m4b7c1dfcb5" y="132.860921513"/>
     <use style="stroke:#000000;" x="421.819691529" xlink:href="#m4b7c1dfcb5" y="87.2708448963"/>
     <use style="stroke:#000000;" x="394.98585919" xlink:href="#m4b7c1dfcb5" y="81.0549523993"/>
     <use style="stroke:#000000;" x="459.448244931" xlink:href="#m4b7c1dfcb5" y="100.319740373"/>
     <use style="stroke:#000000;" x="460.324113474" xlink:href="#m4b7c1dfcb5" y="100.76094963"/>
     <use style="stroke:#000000;" x="433.094643543" xlink:href="#m4b7c1dfcb5" y="90.4673498126"/>
     <use style="stroke:#000000;" x="396.718439807" xlink:href="#m4b7c1dfcb5" y="81.3979880395"/>
     <use style="stroke:#000000;" x="438.804267249" xlink:href="#m4b7c1dfcb5" y="92.3249584203"/>
     <use style="stroke:#000000;" x="408.683539164" xlink:href="#m4b7c1dfcb5" y="84.4540117942"/>
     <use style="stroke:#000000;" x="405.000491243" xlink:href="#m4b7c1dfcb5" y="83.1621398844"/>
     <use style="stroke:#000000;" x="222.853229441" xlink:href="#m4b7c1dfcb5" y="66.4518027814"/>
     <use style="stroke:#000000;" x="406.864518265" xlink:href="#m4b7c1dfcb5" y="83.660547499"/>
     <use style="stroke:#000000;" x="445.778006623" xlink:href="#m4b7c1dfcb5" y="94.7345568303"/>
     <use style="stroke:#000000;" x="385.487360306" xlink:href="#m4b7c1dfcb5" y="79.2158665574"/>
     <use style="stroke:#000000;" x="461.490855835" xlink:href="#m4b7c1dfcb5" y="101.230687323"/>
     <use style="stroke:#000000;" x="433.908313466" xlink:href="#m4b7c1dfcb5" y="90.7907691735"/>
     <use style="stroke:#000000;" x="496.046729035" xlink:href="#m4b7c1dfcb5" y="133.827541138"/>
     <use style="stroke:#000000;" x="430.470569531" xlink:href="#m4b7c1dfcb5" y="89.6806021417"/>
     <use style="stroke:#000000;" x="475.618507333" xlink:href="#m4b7c1dfcb5" y="109.079358032"/>
     <use style="stroke:#000000;" x="433.613174366" xlink:href="#m4b7c1dfcb5" y="90.751312347"/>
     <use style="stroke:#000000;" x="429.043205014" xlink:href="#m4b7c1dfcb5" y="89.2628878143"/>
     <use style="stroke:#000000;" x="443.435575444" xlink:href="#m4b7c1dfcb5" y="94.0318259709"/>
     <use style="stroke:#000000;" x="402.654890163" xlink:href="#m4b7c1dfcb5" y="82.6473572758"/>
     <use style="stroke:#000000;" x="462.579300351" xlink:href="#m4b7c1dfcb5" y="101.907233575"/>
     <use style="stroke:#000000;" x="469.465199317" xlink:href="#m4b7c1dfcb5" y="105.409954747"/>
     <use style="stroke:#000000;" x="400.110280945" xlink:href="#m4b7c1dfcb5" y="82.256603974"/>
     <use style="stroke:#000000;" x="467.055210234" xlink:href="#m4b7c1dfcb5" y="104.003666147"/>
     <use style="stroke:#000000;" x="375.175285296" xlink:href="#m4b7c1dfcb5" y="77.4187442337"/>
     <use style="stroke:#000000;" x="444.96444758" xlink:href="#m4b7c1dfcb5" y="94.4811978577"/>
     <use style="stroke:#000000;" x="437.360999571" xlink:href="#m4b7c1dfcb5" y="91.8035320907"/>
     <use style="stroke:#000000;" x="470.700381164" xlink:href="#m4b7c1dfcb5" y="106.023862735"/>
     <use style="stroke:#000000;" x="455.999209557" xlink:href="#m4b7c1dfcb5" y="98.9082898096"/>
     <use style="stroke:#000000;" x="473.015307606" xlink:href="#m4b7c1dfcb5" y="107.408946152"/>
     <use style="stroke:#000000;" x="480.114089153" xlink:href="#m4b7c1dfcb5" y="112.494935741"/>
     <use style="stroke:#000000;" x="416.877716377" xlink:href="#m4b7c1dfcb5" y="86.1005290887"/>
     <use style="stroke:#000000;" x="494.844243139" xlink:href="#m4b7c1dfcb5" y="130.343664566"/>
     <use style="stroke:#000000;" x="388.809665089" xlink:href="#m4b7c1dfcb5" y="79.8379802703"/>
     <use style="stroke:#000000;" x="348.39237325" xlink:href="#m4b7c1dfcb5" y="73.3887704103"/>
     <use style="stroke:#000000;" x="497.024784794" xlink:href="#m4b7c1dfcb5" y="139.224269198"/>
     <use style="stroke:#000000;" x="422.022932406" xlink:href="#m4b7c1dfcb5" y="87.3714658421"/>
     <use style="stroke:#000000;" x="473.398304989" xlink:href="#m4b7c1dfcb5" y="107.684722822"/>
     <use style="stroke:#000000;" x="425.86243781" xlink:href="#m4b7c1dfcb5" y="88.3650900356"/>
     <use style="stroke:#000000;" x="434.441133092" xlink:href="#m4b7c1dfcb5" y="90.8844087414"/>
     <use style="stroke:#000000;" x="370.792147068" xlink:href="#m4b7c1dfcb5" y="76.6860832965"/>
     <use style="stroke:#000000;" x="423.357500412" xlink:href="#m4b7c1dfcb5" y="87.6960263856"/>
     <use style="stroke:#000000;" x="478.068772186" xlink:href="#m4b7c1dfcb5" y="110.789859799"/>
     <use style="stroke:#000000;" x="483.911426225" xlink:href="#m4b7c1dfcb5" y="115.566930132"/>
     <use style="stroke:#000000;" x="496.18278725" xlink:href="#m4b7c1dfcb5" y="134.746015384"/>
     <use style="stroke:#000000;" x="481.437957941" xlink:href="#m4b7c1dfcb5" y="113.356843386"/>
     <use style="stroke:#000000;" x="387.523970232" xlink:href="#m4b7c1dfcb5" y="79.6674434037"/>
     <use style="stroke:#000000;" x="368.269204142" xlink:href="#m4b7c1dfcb5" y="76.2859527259"/>
     <use style="stroke:#000000;" x="484.758504716" xlink:href="#m4b7c1dfcb5" y="119.541085988"/>
     <use style="stroke:#000000;" x="337.723230689" xlink:href="#m4b7c1dfcb5" y="80.0584270805"/>
     <use style="stroke:#000000;" x="467.349993006" xlink:href="#m4b7c1dfcb5" y="105.042735213"/>
     <use style="stroke:#000000;" x="413.759903472" xlink:href="#m4b7c1dfcb5" y="92.5696646921"/>
     <use style="stroke:#000000;" x="482.232606452" xlink:href="#m4b7c1dfcb5" y="115.297100616"/>
     <use style="stroke:#000000;" x="419.413980115" xlink:href="#m4b7c1dfcb5" y="87.520660297"/>
     <use style="stroke:#000000;" x="336.625467731" xlink:href="#m4b7c1dfcb5" y="76.7952770395"/>
     <use style="stroke:#000000;" x="471.798360396" xlink:href="#m4b7c1dfcb5" y="107.189337093"/>
     <use style="stroke:#000000;" x="303.914194477" xlink:href="#m4b7c1dfcb5" y="76.5656629748"/>
     <use style="stroke:#000000;" x="435.138365296" xlink:href="#m4b7c1dfcb5" y="91.1709735878"/>
     <use style="stroke:#000000;" x="390.15910278" xlink:href="#m4b7c1dfcb5" y="81.6760152855"/>
     <use style="stroke:#000000;" x="454.921136496" xlink:href="#m4b7c1dfcb5" y="103.656079388"/>
     <use style="stroke:#000000;" x="491.792659877" xlink:href="#m4b7c1dfcb5" y="126.315316234"/>
     <use style="stroke:#000000;" x="407.253738529" xlink:href="#m4b7c1dfcb5" y="85.0029230369"/>
     <use style="stroke:#000000;" x="436.698932195" xlink:href="#m4b7c1dfcb5" y="106.728280962"/>
     <use style="stroke:#000000;" x="343.816983633" xlink:href="#m4b7c1dfcb5" y="74.9949987674"/>
     <use style="stroke:#000000;" x="355.862532898" xlink:href="#m4b7c1dfcb5" y="75.4573889899"/>
     <use style="stroke:#000000;" x="485.852404126" xlink:href="#m4b7c1dfcb5" y="118.036249605"/>
     <use style="stroke:#000000;" x="364.897121357" xlink:href="#m4b7c1dfcb5" y="75.902248329"/>
     <use style="stroke:#000000;" x="345.751308075" xlink:href="#m4b7c1dfcb5" y="75.874421689"/>
     <use style="stroke:#000000;" x="391.562602493" xlink:href="#m4b7c1dfcb5" y="104.156876441"/>
     <use style="stroke:#000000;" x="317.985122745" xlink:href="#m4b7c1dfcb5" y="72.6104745853"/>
     <use style="stroke:#000000;" x="400.859223312" xlink:href="#m4b7c1dfcb5" y="85.6166132024"/>
     <use style="stroke:#000000;" x="447.301452162" xlink:href="#m4b7c1dfcb5" y="95.3837823307"/>
     <use style="stroke:#000000;" x="380.025638798" xlink:href="#m4b7c1dfcb5" y="78.7574279233"/>
     <use style="stroke:#000000;" x="249.809462826" xlink:href="#m4b7c1dfcb5" y="69.046377747"/>
     <use style="stroke:#000000;" x="450.238135032" xlink:href="#m4b7c1dfcb5" y="106.783907483"/>
     <use style="stroke:#000000;" x="488.319171364" xlink:href="#m4b7c1dfcb5" y="121.238396819"/>
     <use style="stroke:#000000;" x="443.269170199" xlink:href="#m4b7c1dfcb5" y="98.2718188477"/>
     <use style="stroke:#000000;" x="419.346603363" xlink:href="#m4b7c1dfcb5" y="87.1739539091"/>
     <use style="stroke:#000000;" x="352.048328661" xlink:href="#m4b7c1dfcb5" y="73.9990774358"/>
     <use style="stroke:#000000;" x="471.917970245" xlink:href="#m4b7c1dfcb5" y="113.589840011"/>
     <use style="stroke:#000000;" x="378.200966276" xlink:href="#m4b7c1dfcb5" y="78.8781257993"/>
     <use style="stroke:#000000;" x="292.41847654" xlink:href="#m4b7c1dfcb5" y="70.7161433612"/>
     <use style="stroke:#000000;" x="413.457581855" xlink:href="#m4b7c1dfcb5" y="91.7321416895"/>
     <use style="stroke:#000000;" x="454.078495949" xlink:href="#m4b7c1dfcb5" y="98.511573866"/>
     <use style="stroke:#000000;" x="324.844407428" xlink:href="#m4b7c1dfcb5" y="71.6039032884"/>
     <use style="stroke:#000000;" x="234.529776873" xlink:href="#m4b7c1dfcb5" y="66.4764271076"/>
     <use style="stroke:#000000;" x="379.225500542" xlink:href="#m4b7c1dfcb5" y="82.2353772308"/>
     <use style="stroke:#000000;" x="299.79885631" xlink:href="#m4b7c1dfcb5" y="98.784009232"/>
     <use style="stroke:#000000;" x="461.873949209" xlink:href="#m4b7c1dfcb5" y="102.765020419"/>
     <use style="stroke:#000000;" x="447.344952959" xlink:href="#m4b7c1dfcb5" y="96.0162741431"/>
     <use style="stroke:#000000;" x="430.818623767" xlink:href="#m4b7c1dfcb5" y="97.8278774098"/>
     <use style="stroke:#000000;" x="480.105245599" xlink:href="#m4b7c1dfcb5" y="115.514953093"/>
     <use style="stroke:#000000;" x="337.626057314" xlink:href="#m4b7c1dfcb5" y="87.790931268"/>
     <use style="stroke:#000000;" x="302.952709828" xlink:href="#m4b7c1dfcb5" y="69.098106115"/>
     <use style="stroke:#000000;" x="435.312587132" xlink:href="#m4b7c1dfcb5" y="91.4457955441"/>
     <use style="stroke:#000000;" x="341.34998074" xlink:href="#m4b7c1dfcb5" y="72.6071379972"/>
     <use style="stroke:#000000;" x="399.347086355" xlink:href="#m4b7c1dfcb5" y="83.0411174575"/>
     <use style="stroke:#000000;" x="327.496090873" xlink:href="#m4b7c1dfcb5" y="87.1417070573"/>
     <use style="stroke:#000000;" x="386.22883182" xlink:href="#m4b7c1dfcb5" y="103.436600574"/>
     <use style="stroke:#000000;" x="271.346314934" xlink:href="#m4b7c1dfcb5" y="69.1574550109"/>
     <use style="stroke:#000000;" x="305.862410929" xlink:href="#m4b7c1dfcb5" y="78.1675163865"/>
     <use style="stroke:#000000;" x="220.299777626" xlink:href="#m4b7c1dfcb5" y="67.1237570145"/>
     <use style="stroke:#000000;" x="467.218395495" xlink:href="#m4b7c1dfcb5" y="110.0831599"/>
     <use style="stroke:#000000;" x="496.371911407" xlink:href="#m4b7c1dfcb5" y="135.966189546"/>
     <use style="stroke:#000000;" x="336.696042162" xlink:href="#m4b7c1dfcb5" y="95.7404794862"/>
     <use style="stroke:#000000;" x="465.537812986" xlink:href="#m4b7c1dfcb5" y="108.404312182"/>
     <use style="stroke:#000000;" x="426.294267547" xlink:href="#m4b7c1dfcb5" y="88.7004214786"/>
     <use style="stroke:#000000;" x="488.424851189" xlink:href="#m4b7c1dfcb5" y="120.345734554"/>
    </g>
   </g>
   <g id="PathCollection_2">
    <defs>
     <path d="M 0 1.936492 
C 0.513564 1.936492 1.006162 1.732451 1.369306 1.369306 
C 1.732451 1.006162 1.936492 0.513564 1.936492 0 
C 1.936492 -0.513564 1.732451 -1.006162 1.369306 -1.369306 
C 1.006162 -1.732451 0.513564 -1.936492 0 -1.936492 
C -0.513564 -1.936492 -1.006162 -1.732451 -1.369306 -1.369306 
C -1.732451 -1.006162 -1.936492 -0.513564 -1.936492 0 
C -1.936492 0.513564 -1.732451 1.006162 -1.369306 1.369306 
C -1.006162 1.732451 -0.513564 1.936492 0 1.936492 
z
" id="m723b517a9f" style="stroke:#000000;"/>
    </defs>
    <g clip-path="url(#pdef7032c5d)">
     <use style="fill:#0000ff;stroke:#000000;" x="233.779577991" xlink:href="#m723b517a9f" y="68.8212133115"/>
     <use style="fill:#0000ff;stroke:#000000;" x="401.303471305" xlink:href="#m723b517a9f" y="82.4693587501"/>
     <use style="fill:#0000ff;stroke:#000000;" x="493.888080963" xlink:href="#m723b517a9f" y="128.753281148"/>
     <use style="fill:#0000ff;stroke:#000000;" x="331.191289569" xlink:href="#m723b517a9f" y="71.4592719592"/>
     <use style="fill:#0000ff;stroke:#000000;" x="493.389988234" xlink:href="#m723b517a9f" y="127.994301578"/>
     <use style="fill:#0000ff;stroke:#000000;" x="322.64872504" xlink:href="#m723b517a9f" y="70.683181079"/>
     <use style="fill:#0000ff;stroke:#000000;" x="495.012093195" xlink:href="#m723b517a9f" y="131.908702625"/>
     <use style="fill:#0000ff;stroke:#000000;" x="460.820897041" xlink:href="#m723b517a9f" y="100.873691661"/>
     <use style="fill:#0000ff;stroke:#000000;" x="365.077059353" xlink:href="#m723b517a9f" y="75.8399914878"/>
     <use style="fill:#0000ff;stroke:#000000;" x="495.728280926" xlink:href="#m723b517a9f" y="132.860921513"/>
     <use style="fill:#0000ff;stroke:#000000;" x="421.819691529" xlink:href="#m723b517a9f" y="87.2708448963"/>
     <use style="fill:#0000ff;stroke:#000000;" x="394.98585919" xlink:href="#m723b517a9f" y="81.0549523993"/>
     <use style="fill:#0000ff;stroke:#000000;" x="459.448244931" xlink:href="#m723b517a9f" y="100.319740373"/>
     <use style="fill:#0000ff;stroke:#000000;" x="460.324113474" xlink:href="#m723b517a9f" y="100.76094963"/>
     <use style="fill:#0000ff;stroke:#000000;" x="433.094643543" xlink:href="#m723b517a9f" y="90.4673498126"/>
     <use style="fill:#0000ff;stroke:#000000;" x="396.718439807" xlink:href="#m723b517a9f" y="81.3979880395"/>
     <use style="fill:#0000ff;stroke:#000000;" x="438.804267249" xlink:href="#m723b517a9f" y="92.3249584203"/>
     <use style="fill:#0000ff;stroke:#000000;" x="408.683539164" xlink:href="#m723b517a9f" y="84.4540117942"/>
     <use style="fill:#0000ff;stroke:#000000;" x="405.000491243" xlink:href="#m723b517a9f" y="83.1621398844"/>
     <use style="fill:#0000ff;stroke:#000000;" x="222.853229441" xlink:href="#m723b517a9f" y="66.4518027814"/>
     <use style="fill:#0000ff;stroke:#000000;" x="406.864518265" xlink:href="#m723b517a9f" y="83.660547499"/>
     <use style="fill:#0000ff;stroke:#000000;" x="445.778006623" xlink:href="#m723b517a9f" y="94.7345568303"/>
     <use style="fill:#0000ff;stroke:#000000;" x="385.487360306" xlink:href="#m723b517a9f" y="79.2158665574"/>
     <use style="fill:#0000ff;stroke:#000000;" x="461.490855835" xlink:href="#m723b517a9f" y="101.230687323"/>
     <use style="fill:#0000ff;stroke:#000000;" x="433.908313466" xlink:href="#m723b517a9f" y="90.7907691735"/>
     <use style="fill:#0000ff;stroke:#000000;" x="496.046729035" xlink:href="#m723b517a9f" y="133.827541138"/>
     <use style="fill:#0000ff;stroke:#000000;" x="430.470569531" xlink:href="#m723b517a9f" y="89.6806021417"/>
     <use style="fill:#0000ff;stroke:#000000;" x="475.618507333" xlink:href="#m723b517a9f" y="109.079358032"/>
     <use style="fill:#0000ff;stroke:#000000;" x="433.613174366" xlink:href="#m723b517a9f" y="90.751312347"/>
     <use style="fill:#0000ff;stroke:#000000;" x="429.043205014" xlink:href="#m723b517a9f" y="89.2628878143"/>
     <use style="fill:#0000ff;stroke:#000000;" x="443.435575444" xlink:href="#m723b517a9f" y="94.0318259709"/>
     <use style="fill:#0000ff;stroke:#000000;" x="402.654890163" xlink:href="#m723b517a9f" y="82.6473572758"/>
     <use style="fill:#0000ff;stroke:#000000;" x="462.579300351" xlink:href="#m723b517a9f" y="101.907233575"/>
     <use style="fill:#0000ff;stroke:#000000;" x="469.465199317" xlink:href="#m723b517a9f" y="105.409954747"/>
     <use style="fill:#0000ff;stroke:#000000;" x="400.110280945" xlink:href="#m723b517a9f" y="82.256603974"/>
     <use style="fill:#0000ff;stroke:#000000;" x="467.055210234" xlink:href="#m723b517a9f" y="104.003666147"/>
     <use style="fill:#0000ff;stroke:#000000;" x="375.175285296" xlink:href="#m723b517a9f" y="77.4187442337"/>
     <use style="fill:#0000ff;stroke:#000000;" x="444.96444758" xlink:href="#m723b517a9f" y="94.4811978577"/>
     <use style="fill:#0000ff;stroke:#000000;" x="437.360999571" xlink:href="#m723b517a9f" y="91.8035320907"/>
     <use style="fill:#0000ff;stroke:#000000;" x="470.700381164" xlink:href="#m723b517a9f" y="106.023862735"/>
     <use style="fill:#0000ff;stroke:#000000;" x="455.999209557" xlink:href="#m723b517a9f" y="98.9082898096"/>
     <use style="fill:#0000ff;stroke:#000000;" x="473.015307606" xlink:href="#m723b517a9f" y="107.408946152"/>
     <use style="fill:#0000ff;stroke:#000000;" x="480.114089153" xlink:href="#m723b517a9f" y="112.494935741"/>
     <use style="fill:#0000ff;stroke:#000000;" x="416.877716377" xlink:href="#m723b517a9f" y="86.1005290887"/>
     <use style="fill:#0000ff;stroke:#000000;" x="494.844243139" xlink:href="#m723b517a9f" y="130.343664566"/>
     <use style="fill:#0000ff;stroke:#000000;" x="388.809665089" xlink:href="#m723b517a9f" y="79.8379802703"/>
     <use style="fill:#0000ff;stroke:#000000;" x="348.39237325" xlink:href="#m723b517a9f" y="73.3887704103"/>
     <use style="fill:#0000ff;stroke:#000000;" x="497.024784794" xlink:href="#m723b517a9f" y="139.224269198"/>
     <use style="fill:#0000ff;stroke:#000000;" x="422.022932406" xlink:href="#m723b517a9f" y="87.3714658421"/>
     <use style="fill:#0000ff;stroke:#000000;" x="473.398304989" xlink:href="#m723b517a9f" y="107.684722822"/>
     <use style="fill:#0000ff;stroke:#000000;" x="425.86243781" xlink:href="#m723b517a9f" y="88.3650900356"/>
     <use style="fill:#0000ff;stroke:#000000;" x="434.441133092" xlink:href="#m723b517a9f" y="90.8844087414"/>
     <use style="fill:#0000ff;stroke:#000000;" x="370.792147068" xlink:href="#m723b517a9f" y="76.6860832965"/>
     <use style="fill:#0000ff;stroke:#000000;" x="423.357500412" xlink:href="#m723b517a9f" y="87.6960263856"/>
     <use style="fill:#0000ff;stroke:#000000;" x="478.068772186" xlink:href="#m723b517a9f" y="110.789859799"/>
     <use style="fill:#0000ff;stroke:#000000;" x="483.911426225" xlink:href="#m723b517a9f" y="115.566930132"/>
     <use style="fill:#0000ff;stroke:#000000;" x="496.18278725" xlink:href="#m723b517a9f" y="134.746015384"/>
     <use style="fill:#0000ff;stroke:#000000;" x="481.437957941" xlink:href="#m723b517a9f" y="113.356843386"/>
     <use style="fill:#0000ff;stroke:#000000;" x="387.523970232" xlink:href="#m723b517a9f" y="79.6674434037"/>
     <use style="fill:#0000ff;stroke:#000000;" x="368.269204142" xlink:href="#m723b517a9f" y="76.2859527259"/>
    </g>
   </g>
   <g id="patch_3">
    <path d="M 72 388.8 
L 518.4 388.8 
" style="fill:none;stroke:#000000;stroke-linecap:square;stroke-linejoin:miter;"/>
   </g>
   <g id="patch_4">
    <path d="M 72 43.2 
L 518.4 43.2 
" style="fill:none;stroke:#000000;stroke-linecap:square;stroke-linejoin:miter;"/>
   </g>
   <g id="patch_5">
    <path d="M 72 388.8 
L 72 43.2 
" style="fill:none;stroke:#000000;stroke-linecap:square;stroke-linejoin:miter;"/>
   </g>
   <g id="patch_6">
    <path d="M 518.4 388.8 
L 518.4 43.2 
" style="fill:none;stroke:#000000;stroke-linecap:square;stroke-linejoin:miter;"/>
   </g>
   <g id="matplotlib.axis_1">
    <g id="xtick_1">
     <g id="line2d_1">
      <defs>
       <path d="M 0 0 
L 0 -4 
" id="m8cbcf0ea63" style="stroke:#000000;stroke-width:0.5;"/>
      </defs>
      <g>
       <use style="stroke:#000000;stroke-width:0.5;" x="72.0" xlink:href="#m8cbcf0ea63" y="388.8"/>
      </g>
     </g>
     <g id="line2d_2">
      <defs>
       <path d="M 0 0 
L 0 4 
" id="m6b6acbd11c" style="stroke:#000000;stroke-width:0.5;"/>
      </defs>
      <g>
       <use style="stroke:#000000;stroke-width:0.5;" x="72.0" xlink:href="#m6b6acbd11c" y="43.2"/>
      </g>
     </g>
     <g id="text_1">
      <!-- −200 -->
      <defs>
       <path d="M 10.59375 35.5 
L 73.1875 35.5 
L 73.1875 27.203125 
L 10.59375 27.203125 
z
" id="BitstreamVeraSans-Roman-2212"/>
       <path d="M 19.1875 8.296875 
L 53.609375 8.296875 
L 53.609375 0 
L 7.328125 0 
L 7.328125 8.296875 
Q 12.9375 14.109375 22.625 23.890625 
Q 32.328125 33.6875 34.8125 36.53125 
Q 39.546875 41.84375 41.421875 45.53125 
Q 43.3125 49.21875 43.3125 52.78125 
Q 43.3125 58.59375 39.234375 62.25 
Q 35.15625 65.921875 28.609375 65.921875 
Q 23.96875 65.921875 18.8125 64.3125 
Q 13.671875 62.703125 7.8125 59.421875 
L 7.8125 69.390625 
Q 13.765625 71.78125 18.9375 73 
Q 24.125 74.21875 28.421875 74.21875 
Q 39.75 74.21875 46.484375 68.546875 
Q 53.21875 62.890625 53.21875 53.421875 
Q 53.21875 48.921875 51.53125 44.890625 
Q 49.859375 40.875 45.40625 35.40625 
Q 44.1875 33.984375 37.640625 27.21875 
Q 31.109375 20.453125 19.1875 8.296875 
" id="BitstreamVeraSans-Roman-32"/>
       <path d="M 31.78125 66.40625 
Q 24.171875 66.40625 20.328125 58.90625 
Q 16.5 51.421875 16.5 36.375 
Q 16.5 21.390625 20.328125 13.890625 
Q 24.171875 6.390625 31.78125 6.390625 
Q 39.453125 6.390625 43.28125 13.890625 
Q 47.125 21.390625 47.125 36.375 
Q 47.125 51.421875 43.28125 58.90625 
Q 39.453125 66.40625 31.78125 66.40625 
M 31.78125 74.21875 
Q 44.046875 74.21875 50.515625 64.515625 
Q 56.984375 54.828125 56.984375 36.375 
Q 56.984375 17.96875 50.515625 8.265625 
Q 44.046875 -1.421875 31.78125 -1.421875 
Q 19.53125 -1.421875 13.0625 8.265625 
Q 6.59375 17.96875 6.59375 36.375 
Q 6.59375 54.828125 13.0625 64.515625 
Q 19.53125 74.21875 31.78125 74.21875 
" id="BitstreamVeraSans-Roman-30"/>
      </defs>
      <g transform="translate(55.5196875 401.918125)scale(0.12 -0.12)">
       <use xlink:href="#BitstreamVeraSans-Roman-2212"/>
       <use x="83.7890625" xlink:href="#BitstreamVeraSans-Roman-32"/>
       <use x="147.412109375" xlink:href="#BitstreamVeraSans-Roman-30"/>
       <use x="211.03515625" xlink:href="#BitstreamVeraSans-Roman-30"/>
      </g>
     </g>
    </g>
    <g id="xtick_2">
     <g id="line2d_3">
      <g>
       <use style="stroke:#000000;stroke-width:0.5;" x="178.285714286" xlink:href="#m8cbcf0ea63" y="388.8"/>
      </g>
     </g>
     <g id="line2d_4">
      <g>
       <use style="stroke:#000000;stroke-width:0.5;" x="178.285714286" xlink:href="#m6b6acbd11c" y="43.2"/>
      </g>
     </g>
     <g id="text_2">
      <!-- −150 -->
      <defs>
       <path d="M 12.40625 8.296875 
L 28.515625 8.296875 
L 28.515625 63.921875 
L 10.984375 60.40625 
L 10.984375 69.390625 
L 28.421875 72.90625 
L 38.28125 72.90625 
L 38.28125 8.296875 
L 54.390625 8.296875 
L 54.390625 0 
L 12.40625 0 
z
" id="BitstreamVeraSans-Roman-31"/>
       <path d="M 10.796875 72.90625 
L 49.515625 72.90625 
L 49.515625 64.59375 
L 19.828125 64.59375 
L 19.828125 46.734375 
Q 21.96875 47.46875 24.109375 47.828125 
Q 26.265625 48.1875 28.421875 48.1875 
Q 40.625 48.1875 47.75 41.5 
Q 54.890625 34.8125 54.890625 23.390625 
Q 54.890625 11.625 47.5625 5.09375 
Q 40.234375 -1.421875 26.90625 -1.421875 
Q 22.3125 -1.421875 17.546875 -0.640625 
Q 12.796875 0.140625 7.71875 1.703125 
L 7.71875 11.625 
Q 12.109375 9.234375 16.796875 8.0625 
Q 21.484375 6.890625 26.703125 6.890625 
Q 35.15625 6.890625 40.078125 11.328125 
Q 45.015625 15.765625 45.015625 23.390625 
Q 45.015625 31 40.078125 35.4375 
Q 35.15625 39.890625 26.703125 39.890625 
Q 22.75 39.890625 18.8125 39.015625 
Q 14.890625 38.140625 10.796875 36.28125 
z
" id="BitstreamVeraSans-Roman-35"/>
      </defs>
      <g transform="translate(161.805401786 401.918125)scale(0.12 -0.12)">
       <use xlink:href="#BitstreamVeraSans-Roman-2212"/>
       <use x="83.7890625" xlink:href="#BitstreamVeraSans-Roman-31"/>
       <use x="147.412109375" xlink:href="#BitstreamVeraSans-Roman-35"/>
       <use x="211.03515625" xlink:href="#BitstreamVeraSans-Roman-30"/>
      </g>
     </g>
    </g>
    <g id="xtick_3">
     <g id="line2d_5">
      <g>
       <use style="stroke:#000000;stroke-width:0.5;" x="284.571428571" xlink:href="#m8cbcf0ea63" y="388.8"/>
      </g>
     </g>
     <g id="line2d_6">
      <g>
       <use style="stroke:#000000;stroke-width:0.5;" x="284.571428571" xlink:href="#m6b6acbd11c" y="43.2"/>
      </g>
     </g>
     <g id="text_3">
      <!-- −100 -->
      <g transform="translate(268.091116071 401.918125)scale(0.12 -0.12)">
       <use xlink:href="#BitstreamVeraSans-Roman-2212"/>
       <use x="83.7890625" xlink:href="#BitstreamVeraSans-Roman-31"/>
       <use x="147.412109375" xlink:href="#BitstreamVeraSans-Roman-30"/>
       <use x="211.03515625" xlink:href="#BitstreamVeraSans-Roman-30"/>
      </g>
     </g>
    </g>
    <g id="xtick_4">
     <g id="line2d_7">
      <g>
       <use style="stroke:#000000;stroke-width:0.5;" x="390.857142857" xlink:href="#m8cbcf0ea63" y="388.8"/>
      </g>
     </g>
     <g id="line2d_8">
      <g>
       <use style="stroke:#000000;stroke-width:0.5;" x="390.857142857" xlink:href="#m6b6acbd11c" y="43.2"/>
      </g>
     </g>
     <g id="text_4">
      <!-- −50 -->
      <g transform="translate(378.194330357 401.918125)scale(0.12 -0.12)">
       <use xlink:href="#BitstreamVeraSans-Roman-2212"/>
       <use x="83.7890625" xlink:href="#BitstreamVeraSans-Roman-35"/>
       <use x="147.412109375" xlink:href="#BitstreamVeraSans-Roman-30"/>
      </g>
     </g>
    </g>
    <g id="xtick_5">
     <g id="line2d_9">
      <g>
       <use style="stroke:#000000;stroke-width:0.5;" x="497.142857143" xlink:href="#m8cbcf0ea63" y="388.8"/>
      </g>
     </g>
     <g id="line2d_10">
      <g>
       <use style="stroke:#000000;stroke-width:0.5;" x="497.142857143" xlink:href="#m6b6acbd11c" y="43.2"/>
      </g>
     </g>
     <g id="text_5">
      <!-- 0 -->
      <g transform="translate(493.325357143 401.918125)scale(0.12 -0.12)">
       <use xlink:href="#BitstreamVeraSans-Roman-30"/>
      </g>
     </g>
    </g>
   </g>
   <g id="matplotlib.axis_2">
    <g id="ytick_1">
     <g id="line2d_11">
      <defs>
       <path d="M 0 0 
L 4 0 
" id="mb6a35d4549" style="stroke:#000000;stroke-width:0.5;"/>
      </defs>
      <g>
       <use style="stroke:#000000;stroke-width:0.5;" x="72.0" xlink:href="#mb6a35d4549" y="388.8"/>
      </g>
     </g>
     <g id="line2d_12">
      <defs>
       <path d="M 0 0 
L -4 0 
" id="md4d7d9b07a" style="stroke:#000000;stroke-width:0.5;"/>
      </defs>
      <g>
       <use style="stroke:#000000;stroke-width:0.5;" x="518.4" xlink:href="#md4d7d9b07a" y="388.8"/>
      </g>
     </g>
     <g id="text_6">
      <!-- −200 -->
      <g transform="translate(35.039375 392.11125)scale(0.12 -0.12)">
       <use xlink:href="#BitstreamVeraSans-Roman-2212"/>
       <use x="83.7890625" xlink:href="#BitstreamVeraSans-Roman-32"/>
       <use x="147.412109375" xlink:href="#BitstreamVeraSans-Roman-30"/>
       <use x="211.03515625" xlink:href="#BitstreamVeraSans-Roman-30"/>
      </g>
     </g>
    </g>
    <g id="ytick_2">
     <g id="line2d_13">
      <g>
       <use style="stroke:#000000;stroke-width:0.5;" x="72.0" xlink:href="#mb6a35d4549" y="306.514285714"/>
      </g>
     </g>
     <g id="line2d_14">
      <g>
       <use style="stroke:#000000;stroke-width:0.5;" x="518.4" xlink:href="#md4d7d9b07a" y="306.514285714"/>
      </g>
     </g>
     <g id="text_7">
      <!-- −150 -->
      <g transform="translate(35.039375 309.825535714)scale(0.12 -0.12)">
       <use xlink:href="#BitstreamVeraSans-Roman-2212"/>
       <use x="83.7890625" xlink:href="#BitstreamVeraSans-Roman-31"/>
       <use x="147.412109375" xlink:href="#BitstreamVeraSans-Roman-35"/>
       <use x="211.03515625" xlink:href="#BitstreamVeraSans-Roman-30"/>
      </g>
     </g>
    </g>
    <g id="ytick_3">
     <g id="line2d_15">
      <g>
       <use style="stroke:#000000;stroke-width:0.5;" x="72.0" xlink:href="#mb6a35d4549" y="224.228571429"/>
      </g>
     </g>
     <g id="line2d_16">
      <g>
       <use style="stroke:#000000;stroke-width:0.5;" x="518.4" xlink:href="#md4d7d9b07a" y="224.228571429"/>
      </g>
     </g>
     <g id="text_8">
      <!-- −100 -->
      <g transform="translate(35.039375 227.539821429)scale(0.12 -0.12)">
       <use xlink:href="#BitstreamVeraSans-Roman-2212"/>
       <use x="83.7890625" xlink:href="#BitstreamVeraSans-Roman-31"/>
       <use x="147.412109375" xlink:href="#BitstreamVeraSans-Roman-30"/>
       <use x="211.03515625" xlink:href="#BitstreamVeraSans-Roman-30"/>
      </g>
     </g>
    </g>
    <g id="ytick_4">
     <g id="line2d_17">
      <g>
       <use style="stroke:#000000;stroke-width:0.5;" x="72.0" xlink:href="#mb6a35d4549" y="141.942857143"/>
      </g>
     </g>
     <g id="line2d_18">
      <g>
       <use style="stroke:#000000;stroke-width:0.5;" x="518.4" xlink:href="#md4d7d9b07a" y="141.942857143"/>
      </g>
     </g>
     <g id="text_9">
      <!-- −50 -->
      <g transform="translate(42.674375 145.254107143)scale(0.12 -0.12)">
       <use xlink:href="#BitstreamVeraSans-Roman-2212"/>
       <use x="83.7890625" xlink:href="#BitstreamVeraSans-Roman-35"/>
       <use x="147.412109375" xlink:href="#BitstreamVeraSans-Roman-30"/>
      </g>
     </g>
    </g>
    <g id="ytick_5">
     <g id="line2d_19">
      <g>
       <use style="stroke:#000000;stroke-width:0.5;" x="72.0" xlink:href="#mb6a35d4549" y="59.6571428571"/>
      </g>
     </g>
     <g id="line2d_20">
      <g>
       <use style="stroke:#000000;stroke-width:0.5;" x="518.4" xlink:href="#md4d7d9b07a" y="59.6571428571"/>
      </g>
     </g>
     <g id="text_10">
      <!-- 0 -->
      <g transform="translate(60.365 62.9683928571)scale(0.12 -0.12)">
       <use xlink:href="#BitstreamVeraSans-Roman-30"/>
      </g>
     </g>
    </g>
   </g>
  </g>
 </g>
 <defs>
  <clipPath id="pdef7032c5d">
   <rect height="345.6" width="446.4" x="72.0" y="43.2"/>
  </clipPath>
 </defs>
</svg>
