<?xml version="1.0" encoding="utf-8" standalone="no"?>
<!DOCTYPE svg PUBLIC "-//W3C//DTD SVG 1.1//EN"
  "http://www.w3.org/Graphics/SVG/1.1/DTD/svg11.dtd">
<!-- Created with matplotlib (http://matplotlib.org/) -->
<svg height="432pt" version="1.1" viewBox="0 0 576 432" width="576pt" xmlns="http://www.w3.org/2000/svg" xmlns:xlink="http://www.w3.org/1999/xlink">
 <defs>
  <style type="text/css">
*{stroke-linecap:butt;stroke-linejoin:round;stroke-miterlimit:100000;}
  </style>
 </defs>
 <g id="figure_1">
  <g id="patch_1">
   <path d="M 0 432 
L 576 432 
L 576 0 
L 0 0 
z
" style="fill:#ffffff;"/>
  </g>
  <g id="axes_1">
   <g id="patch_2">
    <path d="M 72 388.8 
L 518.4 388.8 
L 518.4 43.2 
L 72 43.2 
z
" style="fill:#ffffff;"/>
   </g>
   <g id="PathCollection_1">
    <defs>
     <path d="M 0 1.118034 
C 0.296506 1.118034 0.580908 1.000231 0.790569 0.790569 
C 1.000231 0.580908 1.118034 0.296506 1.118034 0 
C 1.118034 -0.296506 1.000231 -0.580908 0.790569 -0.790569 
C 0.580908 -1.000231 0.296506 -1.118034 0 -1.118034 
C -0.296506 -1.118034 -0.580908 -1.000231 -0.790569 -0.790569 
C -1.000231 -0.580908 -1.118034 -0.296506 -1.118034 0 
C -1.118034 0.296506 -1.000231 0.580908 -0.790569 0.790569 
C -0.580908 1.000231 -0.296506 1.118034 0 1.118034 
z
" id="m5cfbb05fe1" style="stroke:#000000;"/>
    </defs>
    <g clip-path="url(#p052076bcdd)">
     <use style="stroke:#000000;" x="482.037570115" xlink:href="#m5cfbb05fe1" y="114.10478944"/>
     <use style="stroke:#000000;" x="230.156770665" xlink:href="#m5cfbb05fe1" y="66.6739579085"/>
     <use style="stroke:#000000;" x="394.98585919" xlink:href="#m5cfbb05fe1" y="81.0549523993"/>
     <use style="stroke:#000000;" x="495.728280926" xlink:href="#m5cfbb05fe1" y="132.860921513"/>
     <use style="stroke:#000000;" x="331.191289569" xlink:href="#m5cfbb05fe1" y="71.4592719592"/>
     <use style="stroke:#000000;" x="365.077059353" xlink:href="#m5cfbb05fe1" y="75.8399914878"/>
     <use style="stroke:#000000;" x="493.389988234" xlink:href="#m5cfbb05fe1" y="127.994301578"/>
     <use style="stroke:#000000;" x="459.448244931" xlink:href="#m5cfbb05fe1" y="100.319740373"/>
     <use style="stroke:#000000;" x="421.819691529" xlink:href="#m5cfbb05fe1" y="87.2708448963"/>
     <use style="stroke:#000000;" x="322.64872504" xlink:href="#m5cfbb05fe1" y="70.683181079"/>
     <use style="stroke:#000000;" x="495.012093195" xlink:href="#m5cfbb05fe1" y="131.908702625"/>
     <use style="stroke:#000000;" x="460.324113474" xlink:href="#m5cfbb05fe1" y="100.76094963"/>
     <use style="stroke:#000000;" x="488.424851189" xlink:href="#m5cfbb05fe1" y="120.345734554"/>
     <use style="stroke:#000000;" x="460.820897041" xlink:href="#m5cfbb05fe1" y="100.873691661"/>
     <use style="stroke:#000000;" x="396.718439807" xlink:href="#m5cfbb05fe1" y="81.3979880395"/>
     <use style="stroke:#000000;" x="433.094643543" xlink:href="#m5cfbb05fe1" y="90.4673498126"/>
     <use style="stroke:#000000;" x="438.804267249" xlink:href="#m5cfbb05fe1" y="92.3249584203"/>
     <use style="stroke:#000000;" x="493.888080963" xlink:href="#m5cfbb05fe1" y="128.753281148"/>
     <use style="stroke:#000000;" x="401.303471305" xlink:href="#m5cfbb05fe1" y="82.4693587501"/>
     <use style="stroke:#000000;" x="408.683539164" xlink:href="#m5cfbb05fe1" y="84.4540117942"/>
     <use style="stroke:#000000;" x="222.853229441" xlink:href="#m5cfbb05fe1" y="66.4518027814"/>
     <use style="stroke:#000000;" x="405.000491243" xlink:href="#m5cfbb05fe1" y="83.1621398844"/>
     <use style="stroke:#000000;" x="445.778006623" xlink:href="#m5cfbb05fe1" y="94.7345568303"/>
     <use style="stroke:#000000;" x="461.490855835" xlink:href="#m5cfbb05fe1" y="101.230687323"/>
     <use style="stroke:#000000;" x="385.487360306" xlink:href="#m5cfbb05fe1" y="79.2158665574"/>
     <use style="stroke:#000000;" x="433.908313466" xlink:href="#m5cfbb05fe1" y="90.7907691735"/>
     <use style="stroke:#000000;" x="406.864518265" xlink:href="#m5cfbb05fe1" y="83.660547499"/>
     <use style="stroke:#000000;" x="433.613174366" xlink:href="#m5cfbb05fe1" y="90.751312347"/>
     <use style="stroke:#000000;" x="475.618507333" xlink:href="#m5cfbb05fe1" y="109.079358032"/>
     <use style="stroke:#000000;" x="430.470569531" xlink:href="#m5cfbb05fe1" y="89.6806021417"/>
     <use style="stroke:#000000;" x="496.046729035" xlink:href="#m5cfbb05fe1" y="133.827541138"/>
     <use style="stroke:#000000;" x="429.043205014" xlink:href="#m5cfbb05fe1" y="89.2628878143"/>
     <use style="stroke:#000000;" x="443.435575444" xlink:href="#m5cfbb05fe1" y="94.0318259709"/>
     <use style="stroke:#000000;" x="402.654890163" xlink:href="#m5cfbb05fe1" y="82.6473572758"/>
     <use style="stroke:#000000;" x="469.465199317" xlink:href="#m5cfbb05fe1" y="105.409954747"/>
     <use style="stroke:#000000;" x="462.579300351" xlink:href="#m5cfbb05fe1" y="101.907233575"/>
     <use style="stroke:#000000;" x="400.110280945" xlink:href="#m5cfbb05fe1" y="82.256603974"/>
     <use style="stroke:#000000;" x="375.175285296" xlink:href="#m5cfbb05fe1" y="77.4187442337"/>
     <use style="stroke:#000000;" x="467.055210234" xlink:href="#m5cfbb05fe1" y="104.003666147"/>
     <use style="stroke:#000000;" x="444.96444758" xlink:href="#m5cfbb05fe1" y="94.4811978577"/>
     <use style="stroke:#000000;" x="416.877716377" xlink:href="#m5cfbb05fe1" y="86.1005290887"/>
     <use style="stroke:#000000;" x="455.999209557" xlink:href="#m5cfbb05fe1" y="98.9082898096"/>
     <use style="stroke:#000000;" x="480.114089153" xlink:href="#m5cfbb05fe1" y="112.494935741"/>
     <use style="stroke:#000000;" x="437.360999571" xlink:href="#m5cfbb05fe1" y="91.8035320907"/>
     <use style="stroke:#000000;" x="473.015307606" xlink:href="#m5cfbb05fe1" y="107.408946152"/>
     <use style="stroke:#000000;" x="494.844243139" xlink:href="#m5cfbb05fe1" y="130.343664566"/>
     <use style="stroke:#000000;" x="470.700381164" xlink:href="#m5cfbb05fe1" y="106.023862735"/>
     <use style="stroke:#000000;" x="388.809665089" xlink:href="#m5cfbb05fe1" y="79.8379802703"/>
     <use style="stroke:#000000;" x="348.39237325" xlink:href="#m5cfbb05fe1" y="73.3887704103"/>
     <use style="stroke:#000000;" x="422.022932406" xlink:href="#m5cfbb05fe1" y="87.3714658421"/>
     <use style="stroke:#000000;" x="497.024784794" xlink:href="#m5cfbb05fe1" y="139.224269198"/>
     <use style="stroke:#000000;" x="425.86243781" xlink:href="#m5cfbb05fe1" y="88.3650900356"/>
     <use style="stroke:#000000;" x="473.398304989" xlink:href="#m5cfbb05fe1" y="107.684722822"/>
     <use style="stroke:#000000;" x="370.792147068" xlink:href="#m5cfbb05fe1" y="76.6860832965"/>
     <use style="stroke:#000000;" x="434.441133092" xlink:href="#m5cfbb05fe1" y="90.8844087414"/>
     <use style="stroke:#000000;" x="423.357500412" xlink:href="#m5cfbb05fe1" y="87.6960263856"/>
     <use style="stroke:#000000;" x="478.068772186" xlink:href="#m5cfbb05fe1" y="110.789859799"/>
     <use style="stroke:#000000;" x="483.911426225" xlink:href="#m5cfbb05fe1" y="115.566930132"/>
     <use style="stroke:#000000;" x="496.18278725" xlink:href="#m5cfbb05fe1" y="134.746015384"/>
     <use style="stroke:#000000;" x="481.437957941" xlink:href="#m5cfbb05fe1" y="113.356843386"/>
     <use style="stroke:#000000;" x="454.965780932" xlink:href="#m5cfbb05fe1" y="99.5438637739"/>
     <use style="stroke:#000000;" x="345.151938787" xlink:href="#m5cfbb05fe1" y="76.4778337968"/>
     <use style="stroke:#000000;" x="423.946504228" xlink:href="#m5cfbb05fe1" y="88.9864923395"/>
     <use style="stroke:#000000;" x="438.641415377" xlink:href="#m5cfbb05fe1" y="92.2345895636"/>
     <use style="stroke:#000000;" x="419.141885553" xlink:href="#m5cfbb05fe1" y="93.3102824116"/>
     <use style="stroke:#000000;" x="452.093329994" xlink:href="#m5cfbb05fe1" y="100.951326397"/>
     <use style="stroke:#000000;" x="414.446521941" xlink:href="#m5cfbb05fe1" y="96.8452071886"/>
     <use style="stroke:#000000;" x="317.694774893" xlink:href="#m5cfbb05fe1" y="81.9437482979"/>
     <use style="stroke:#000000;" x="484.853298805" xlink:href="#m5cfbb05fe1" y="117.736623518"/>
     <use style="stroke:#000000;" x="464.101126201" xlink:href="#m5cfbb05fe1" y="102.683151253"/>
     <use style="stroke:#000000;" x="307.170627218" xlink:href="#m5cfbb05fe1" y="90.7340515127"/>
     <use style="stroke:#000000;" x="471.64942058" xlink:href="#m5cfbb05fe1" y="108.122889896"/>
     <use style="stroke:#000000;" x="420.416098379" xlink:href="#m5cfbb05fe1" y="87.1830013637"/>
     <use style="stroke:#000000;" x="384.089478988" xlink:href="#m5cfbb05fe1" y="91.3564661836"/>
     <use style="stroke:#000000;" x="479.835043356" xlink:href="#m5cfbb05fe1" y="120.396392223"/>
     <use style="stroke:#000000;" x="411.310324135" xlink:href="#m5cfbb05fe1" y="90.7148539908"/>
     <use style="stroke:#000000;" x="434.599568096" xlink:href="#m5cfbb05fe1" y="97.6158140416"/>
     <use style="stroke:#000000;" x="443.018994443" xlink:href="#m5cfbb05fe1" y="107.228670671"/>
     <use style="stroke:#000000;" x="284.026801056" xlink:href="#m5cfbb05fe1" y="69.5870765189"/>
     <use style="stroke:#000000;" x="280.368734103" xlink:href="#m5cfbb05fe1" y="76.6383721777"/>
     <use style="stroke:#000000;" x="459.414967206" xlink:href="#m5cfbb05fe1" y="106.223779013"/>
     <use style="stroke:#000000;" x="405.876488452" xlink:href="#m5cfbb05fe1" y="84.0469552563"/>
     <use style="stroke:#000000;" x="467.999199675" xlink:href="#m5cfbb05fe1" y="109.994277161"/>
     <use style="stroke:#000000;" x="480.783779737" xlink:href="#m5cfbb05fe1" y="112.862789191"/>
     <use style="stroke:#000000;" x="327.464002338" xlink:href="#m5cfbb05fe1" y="85.4875296896"/>
     <use style="stroke:#000000;" x="437.041922084" xlink:href="#m5cfbb05fe1" y="100.439758924"/>
     <use style="stroke:#000000;" x="469.902042721" xlink:href="#m5cfbb05fe1" y="105.753575713"/>
     <use style="stroke:#000000;" x="340.293011393" xlink:href="#m5cfbb05fe1" y="81.2061727707"/>
     <use style="stroke:#000000;" x="447.769383438" xlink:href="#m5cfbb05fe1" y="101.358942493"/>
     <use style="stroke:#000000;" x="276.302023869" xlink:href="#m5cfbb05fe1" y="82.1255375011"/>
     <use style="stroke:#000000;" x="453.837609505" xlink:href="#m5cfbb05fe1" y="97.9426673656"/>
     <use style="stroke:#000000;" x="380.064703224" xlink:href="#m5cfbb05fe1" y="102.162218893"/>
     <use style="stroke:#000000;" x="381.063097254" xlink:href="#m5cfbb05fe1" y="78.6514634796"/>
     <use style="stroke:#000000;" x="453.416786147" xlink:href="#m5cfbb05fe1" y="103.582141586"/>
     <use style="stroke:#000000;" x="425.273954832" xlink:href="#m5cfbb05fe1" y="97.5683516362"/>
     <use style="stroke:#000000;" x="343.004509173" xlink:href="#m5cfbb05fe1" y="74.7403608614"/>
     <use style="stroke:#000000;" x="291.937338066" xlink:href="#m5cfbb05fe1" y="81.9003644942"/>
     <use style="stroke:#000000;" x="357.984451854" xlink:href="#m5cfbb05fe1" y="78.7065482325"/>
     <use style="stroke:#000000;" x="411.260491965" xlink:href="#m5cfbb05fe1" y="84.6937569985"/>
     <use style="stroke:#000000;" x="455.462074308" xlink:href="#m5cfbb05fe1" y="112.556456758"/>
     <use style="stroke:#000000;" x="414.208477973" xlink:href="#m5cfbb05fe1" y="85.6858954847"/>
     <use style="stroke:#000000;" x="323.620442321" xlink:href="#m5cfbb05fe1" y="77.262500004"/>
     <use style="stroke:#000000;" x="471.730504636" xlink:href="#m5cfbb05fe1" y="110.71557379"/>
     <use style="stroke:#000000;" x="262.62108358" xlink:href="#m5cfbb05fe1" y="72.6675661204"/>
     <use style="stroke:#000000;" x="377.648903829" xlink:href="#m5cfbb05fe1" y="85.3400213788"/>
     <use style="stroke:#000000;" x="425.642983579" xlink:href="#m5cfbb05fe1" y="89.6424305718"/>
     <use style="stroke:#000000;" x="413.257085193" xlink:href="#m5cfbb05fe1" y="104.61370003"/>
     <use style="stroke:#000000;" x="461.50102358" xlink:href="#m5cfbb05fe1" y="101.191936328"/>
     <use style="stroke:#000000;" x="481.179931124" xlink:href="#m5cfbb05fe1" y="113.143453858"/>
     <use style="stroke:#000000;" x="453.278076687" xlink:href="#m5cfbb05fe1" y="103.628722859"/>
     <use style="stroke:#000000;" x="285.933503339" xlink:href="#m5cfbb05fe1" y="73.3131666379"/>
     <use style="stroke:#000000;" x="445.018981051" xlink:href="#m5cfbb05fe1" y="107.006482383"/>
     <use style="stroke:#000000;" x="442.588049058" xlink:href="#m5cfbb05fe1" y="99.6838106831"/>
     <use style="stroke:#000000;" x="489.418738304" xlink:href="#m5cfbb05fe1" y="121.366845095"/>
     <use style="stroke:#000000;" x="489.238588259" xlink:href="#m5cfbb05fe1" y="122.740879974"/>
     <use style="stroke:#000000;" x="391.313142159" xlink:href="#m5cfbb05fe1" y="85.9865677597"/>
     <use style="stroke:#000000;" x="460.64048752" xlink:href="#m5cfbb05fe1" y="103.244949253"/>
     <use style="stroke:#000000;" x="416.667459721" xlink:href="#m5cfbb05fe1" y="85.9261917961"/>
     <use style="stroke:#000000;" x="479.483247956" xlink:href="#m5cfbb05fe1" y="116.154280577"/>
     <use style="stroke:#000000;" x="345.821527269" xlink:href="#m5cfbb05fe1" y="73.1295519317"/>
    </g>
   </g>
   <g id="PathCollection_2">
    <defs>
     <path d="M 0 1.936492 
C 0.513564 1.936492 1.006162 1.732451 1.369306 1.369306 
C 1.732451 1.006162 1.936492 0.513564 1.936492 0 
C 1.936492 -0.513564 1.732451 -1.006162 1.369306 -1.369306 
C 1.006162 -1.732451 0.513564 -1.936492 0 -1.936492 
C -0.513564 -1.936492 -1.006162 -1.732451 -1.369306 -1.369306 
C -1.732451 -1.006162 -1.936492 -0.513564 -1.936492 0 
C -1.936492 0.513564 -1.732451 1.006162 -1.369306 1.369306 
C -1.006162 1.732451 -0.513564 1.936492 0 1.936492 
z
" id="mdc77748d8b" style="stroke:#000000;"/>
    </defs>
    <g clip-path="url(#p052076bcdd)">
     <use style="fill:#0000ff;stroke:#000000;" x="482.037570115" xlink:href="#mdc77748d8b" y="114.10478944"/>
     <use style="fill:#0000ff;stroke:#000000;" x="230.156770665" xlink:href="#mdc77748d8b" y="66.6739579085"/>
     <use style="fill:#0000ff;stroke:#000000;" x="394.98585919" xlink:href="#mdc77748d8b" y="81.0549523993"/>
     <use style="fill:#0000ff;stroke:#000000;" x="495.728280926" xlink:href="#mdc77748d8b" y="132.860921513"/>
     <use style="fill:#0000ff;stroke:#000000;" x="331.191289569" xlink:href="#mdc77748d8b" y="71.4592719592"/>
     <use style="fill:#0000ff;stroke:#000000;" x="365.077059353" xlink:href="#mdc77748d8b" y="75.8399914878"/>
     <use style="fill:#0000ff;stroke:#000000;" x="493.389988234" xlink:href="#mdc77748d8b" y="127.994301578"/>
     <use style="fill:#0000ff;stroke:#000000;" x="459.448244931" xlink:href="#mdc77748d8b" y="100.319740373"/>
     <use style="fill:#0000ff;stroke:#000000;" x="421.819691529" xlink:href="#mdc77748d8b" y="87.2708448963"/>
     <use style="fill:#0000ff;stroke:#000000;" x="322.64872504" xlink:href="#mdc77748d8b" y="70.683181079"/>
     <use style="fill:#0000ff;stroke:#000000;" x="495.012093195" xlink:href="#mdc77748d8b" y="131.908702625"/>
     <use style="fill:#0000ff;stroke:#000000;" x="460.324113474" xlink:href="#mdc77748d8b" y="100.76094963"/>
     <use style="fill:#0000ff;stroke:#000000;" x="488.424851189" xlink:href="#mdc77748d8b" y="120.345734554"/>
     <use style="fill:#0000ff;stroke:#000000;" x="460.820897041" xlink:href="#mdc77748d8b" y="100.873691661"/>
     <use style="fill:#0000ff;stroke:#000000;" x="396.718439807" xlink:href="#mdc77748d8b" y="81.3979880395"/>
     <use style="fill:#0000ff;stroke:#000000;" x="433.094643543" xlink:href="#mdc77748d8b" y="90.4673498126"/>
     <use style="fill:#0000ff;stroke:#000000;" x="438.804267249" xlink:href="#mdc77748d8b" y="92.3249584203"/>
     <use style="fill:#0000ff;stroke:#000000;" x="493.888080963" xlink:href="#mdc77748d8b" y="128.753281148"/>
     <use style="fill:#0000ff;stroke:#000000;" x="401.303471305" xlink:href="#mdc77748d8b" y="82.4693587501"/>
     <use style="fill:#0000ff;stroke:#000000;" x="408.683539164" xlink:href="#mdc77748d8b" y="84.4540117942"/>
     <use style="fill:#0000ff;stroke:#000000;" x="222.853229441" xlink:href="#mdc77748d8b" y="66.4518027814"/>
     <use style="fill:#0000ff;stroke:#000000;" x="405.000491243" xlink:href="#mdc77748d8b" y="83.1621398844"/>
     <use style="fill:#0000ff;stroke:#000000;" x="445.778006623" xlink:href="#mdc77748d8b" y="94.7345568303"/>
     <use style="fill:#0000ff;stroke:#000000;" x="461.490855835" xlink:href="#mdc77748d8b" y="101.230687323"/>
     <use style="fill:#0000ff;stroke:#000000;" x="385.487360306" xlink:href="#mdc77748d8b" y="79.2158665574"/>
     <use style="fill:#0000ff;stroke:#000000;" x="433.908313466" xlink:href="#mdc77748d8b" y="90.7907691735"/>
     <use style="fill:#0000ff;stroke:#000000;" x="406.864518265" xlink:href="#mdc77748d8b" y="83.660547499"/>
     <use style="fill:#0000ff;stroke:#000000;" x="433.613174366" xlink:href="#mdc77748d8b" y="90.751312347"/>
     <use style="fill:#0000ff;stroke:#000000;" x="475.618507333" xlink:href="#mdc77748d8b" y="109.079358032"/>
     <use style="fill:#0000ff;stroke:#000000;" x="430.470569531" xlink:href="#mdc77748d8b" y="89.6806021417"/>
     <use style="fill:#0000ff;stroke:#000000;" x="496.046729035" xlink:href="#mdc77748d8b" y="133.827541138"/>
     <use style="fill:#0000ff;stroke:#000000;" x="429.043205014" xlink:href="#mdc77748d8b" y="89.2628878143"/>
     <use style="fill:#0000ff;stroke:#000000;" x="443.435575444" xlink:href="#mdc77748d8b" y="94.0318259709"/>
     <use style="fill:#0000ff;stroke:#000000;" x="402.654890163" xlink:href="#mdc77748d8b" y="82.6473572758"/>
     <use style="fill:#0000ff;stroke:#000000;" x="469.465199317" xlink:href="#mdc77748d8b" y="105.409954747"/>
     <use style="fill:#0000ff;stroke:#000000;" x="462.579300351" xlink:href="#mdc77748d8b" y="101.907233575"/>
     <use style="fill:#0000ff;stroke:#000000;" x="400.110280945" xlink:href="#mdc77748d8b" y="82.256603974"/>
     <use style="fill:#0000ff;stroke:#000000;" x="375.175285296" xlink:href="#mdc77748d8b" y="77.4187442337"/>
     <use style="fill:#0000ff;stroke:#000000;" x="467.055210234" xlink:href="#mdc77748d8b" y="104.003666147"/>
     <use style="fill:#0000ff;stroke:#000000;" x="444.96444758" xlink:href="#mdc77748d8b" y="94.4811978577"/>
     <use style="fill:#0000ff;stroke:#000000;" x="416.877716377" xlink:href="#mdc77748d8b" y="86.1005290887"/>
     <use style="fill:#0000ff;stroke:#000000;" x="455.999209557" xlink:href="#mdc77748d8b" y="98.9082898096"/>
     <use style="fill:#0000ff;stroke:#000000;" x="480.114089153" xlink:href="#mdc77748d8b" y="112.494935741"/>
     <use style="fill:#0000ff;stroke:#000000;" x="437.360999571" xlink:href="#mdc77748d8b" y="91.8035320907"/>
     <use style="fill:#0000ff;stroke:#000000;" x="473.015307606" xlink:href="#mdc77748d8b" y="107.408946152"/>
     <use style="fill:#0000ff;stroke:#000000;" x="494.844243139" xlink:href="#mdc77748d8b" y="130.343664566"/>
     <use style="fill:#0000ff;stroke:#000000;" x="470.700381164" xlink:href="#mdc77748d8b" y="106.023862735"/>
     <use style="fill:#0000ff;stroke:#000000;" x="388.809665089" xlink:href="#mdc77748d8b" y="79.8379802703"/>
     <use style="fill:#0000ff;stroke:#000000;" x="348.39237325" xlink:href="#mdc77748d8b" y="73.3887704103"/>
     <use style="fill:#0000ff;stroke:#000000;" x="422.022932406" xlink:href="#mdc77748d8b" y="87.3714658421"/>
     <use style="fill:#0000ff;stroke:#000000;" x="497.024784794" xlink:href="#mdc77748d8b" y="139.224269198"/>
     <use style="fill:#0000ff;stroke:#000000;" x="425.86243781" xlink:href="#mdc77748d8b" y="88.3650900356"/>
     <use style="fill:#0000ff;stroke:#000000;" x="473.398304989" xlink:href="#mdc77748d8b" y="107.684722822"/>
     <use style="fill:#0000ff;stroke:#000000;" x="370.792147068" xlink:href="#mdc77748d8b" y="76.6860832965"/>
     <use style="fill:#0000ff;stroke:#000000;" x="434.441133092" xlink:href="#mdc77748d8b" y="90.8844087414"/>
     <use style="fill:#0000ff;stroke:#000000;" x="423.357500412" xlink:href="#mdc77748d8b" y="87.6960263856"/>
     <use style="fill:#0000ff;stroke:#000000;" x="478.068772186" xlink:href="#mdc77748d8b" y="110.789859799"/>
     <use style="fill:#0000ff;stroke:#000000;" x="483.911426225" xlink:href="#mdc77748d8b" y="115.566930132"/>
     <use style="fill:#0000ff;stroke:#000000;" x="496.18278725" xlink:href="#mdc77748d8b" y="134.746015384"/>
     <use style="fill:#0000ff;stroke:#000000;" x="481.437957941" xlink:href="#mdc77748d8b" y="113.356843386"/>
    </g>
   </g>
   <g id="patch_3">
    <path d="M 72 388.8 
L 518.4 388.8 
" style="fill:none;stroke:#000000;stroke-linecap:square;stroke-linejoin:miter;"/>
   </g>
   <g id="patch_4">
    <path d="M 72 43.2 
L 518.4 43.2 
" style="fill:none;stroke:#000000;stroke-linecap:square;stroke-linejoin:miter;"/>
   </g>
   <g id="patch_5">
    <path d="M 72 388.8 
L 72 43.2 
" style="fill:none;stroke:#000000;stroke-linecap:square;stroke-linejoin:miter;"/>
   </g>
   <g id="patch_6">
    <path d="M 518.4 388.8 
L 518.4 43.2 
" style="fill:none;stroke:#000000;stroke-linecap:square;stroke-linejoin:miter;"/>
   </g>
   <g id="matplotlib.axis_1">
    <g id="xtick_1">
     <g id="line2d_1">
      <defs>
       <path d="M 0 0 
L 0 -4 
" id="mcc7b77e3bf" style="stroke:#000000;stroke-width:0.5;"/>
      </defs>
      <g>
       <use style="stroke:#000000;stroke-width:0.5;" x="72.0" xlink:href="#mcc7b77e3bf" y="388.8"/>
      </g>
     </g>
     <g id="line2d_2">
      <defs>
       <path d="M 0 0 
L 0 4 
" id="m78c52d57b7" style="stroke:#000000;stroke-width:0.5;"/>
      </defs>
      <g>
       <use style="stroke:#000000;stroke-width:0.5;" x="72.0" xlink:href="#m78c52d57b7" y="43.2"/>
      </g>
     </g>
     <g id="text_1">
      <!-- −200 -->
      <defs>
       <path d="M 10.59375 35.5 
L 73.1875 35.5 
L 73.1875 27.203125 
L 10.59375 27.203125 
z
" id="BitstreamVeraSans-Roman-2212"/>
       <path d="M 19.1875 8.296875 
L 53.609375 8.296875 
L 53.609375 0 
L 7.328125 0 
L 7.328125 8.296875 
Q 12.9375 14.109375 22.625 23.890625 
Q 32.328125 33.6875 34.8125 36.53125 
Q 39.546875 41.84375 41.421875 45.53125 
Q 43.3125 49.21875 43.3125 52.78125 
Q 43.3125 58.59375 39.234375 62.25 
Q 35.15625 65.921875 28.609375 65.921875 
Q 23.96875 65.921875 18.8125 64.3125 
Q 13.671875 62.703125 7.8125 59.421875 
L 7.8125 69.390625 
Q 13.765625 71.78125 18.9375 73 
Q 24.125 74.21875 28.421875 74.21875 
Q 39.75 74.21875 46.484375 68.546875 
Q 53.21875 62.890625 53.21875 53.421875 
Q 53.21875 48.921875 51.53125 44.890625 
Q 49.859375 40.875 45.40625 35.40625 
Q 44.1875 33.984375 37.640625 27.21875 
Q 31.109375 20.453125 19.1875 8.296875 
" id="BitstreamVeraSans-Roman-32"/>
       <path d="M 31.78125 66.40625 
Q 24.171875 66.40625 20.328125 58.90625 
Q 16.5 51.421875 16.5 36.375 
Q 16.5 21.390625 20.328125 13.890625 
Q 24.171875 6.390625 31.78125 6.390625 
Q 39.453125 6.390625 43.28125 13.890625 
Q 47.125 21.390625 47.125 36.375 
Q 47.125 51.421875 43.28125 58.90625 
Q 39.453125 66.40625 31.78125 66.40625 
M 31.78125 74.21875 
Q 44.046875 74.21875 50.515625 64.515625 
Q 56.984375 54.828125 56.984375 36.375 
Q 56.984375 17.96875 50.515625 8.265625 
Q 44.046875 -1.421875 31.78125 -1.421875 
Q 19.53125 -1.421875 13.0625 8.265625 
Q 6.59375 17.96875 6.59375 36.375 
Q 6.59375 54.828125 13.0625 64.515625 
Q 19.53125 74.21875 31.78125 74.21875 
" id="BitstreamVeraSans-Roman-30"/>
      </defs>
      <g transform="translate(55.5196875 401.918125)scale(0.12 -0.12)">
       <use xlink:href="#BitstreamVeraSans-Roman-2212"/>
       <use x="83.7890625" xlink:href="#BitstreamVeraSans-Roman-32"/>
       <use x="147.412109375" xlink:href="#BitstreamVeraSans-Roman-30"/>
       <use x="211.03515625" xlink:href="#BitstreamVeraSans-Roman-30"/>
      </g>
     </g>
    </g>
    <g id="xtick_2">
     <g id="line2d_3">
      <g>
       <use style="stroke:#000000;stroke-width:0.5;" x="178.285714286" xlink:href="#mcc7b77e3bf" y="388.8"/>
      </g>
     </g>
     <g id="line2d_4">
      <g>
       <use style="stroke:#000000;stroke-width:0.5;" x="178.285714286" xlink:href="#m78c52d57b7" y="43.2"/>
      </g>
     </g>
     <g id="text_2">
      <!-- −150 -->
      <defs>
       <path d="M 12.40625 8.296875 
L 28.515625 8.296875 
L 28.515625 63.921875 
L 10.984375 60.40625 
L 10.984375 69.390625 
L 28.421875 72.90625 
L 38.28125 72.90625 
L 38.28125 8.296875 
L 54.390625 8.296875 
L 54.390625 0 
L 12.40625 0 
z
" id="BitstreamVeraSans-Roman-31"/>
       <path d="M 10.796875 72.90625 
L 49.515625 72.90625 
L 49.515625 64.59375 
L 19.828125 64.59375 
L 19.828125 46.734375 
Q 21.96875 47.46875 24.109375 47.828125 
Q 26.265625 48.1875 28.421875 48.1875 
Q 40.625 48.1875 47.75 41.5 
Q 54.890625 34.8125 54.890625 23.390625 
Q 54.890625 11.625 47.5625 5.09375 
Q 40.234375 -1.421875 26.90625 -1.421875 
Q 22.3125 -1.421875 17.546875 -0.640625 
Q 12.796875 0.140625 7.71875 1.703125 
L 7.71875 11.625 
Q 12.109375 9.234375 16.796875 8.0625 
Q 21.484375 6.890625 26.703125 6.890625 
Q 35.15625 6.890625 40.078125 11.328125 
Q 45.015625 15.765625 45.015625 23.390625 
Q 45.015625 31 40.078125 35.4375 
Q 35.15625 39.890625 26.703125 39.890625 
Q 22.75 39.890625 18.8125 39.015625 
Q 14.890625 38.140625 10.796875 36.28125 
z
" id="BitstreamVeraSans-Roman-35"/>
      </defs>
      <g transform="translate(161.805401786 401.918125)scale(0.12 -0.12)">
       <use xlink:href="#BitstreamVeraSans-Roman-2212"/>
       <use x="83.7890625" xlink:href="#BitstreamVeraSans-Roman-31"/>
       <use x="147.412109375" xlink:href="#BitstreamVeraSans-Roman-35"/>
       <use x="211.03515625" xlink:href="#BitstreamVeraSans-Roman-30"/>
      </g>
     </g>
    </g>
    <g id="xtick_3">
     <g id="line2d_5">
      <g>
       <use style="stroke:#000000;stroke-width:0.5;" x="284.571428571" xlink:href="#mcc7b77e3bf" y="388.8"/>
      </g>
     </g>
     <g id="line2d_6">
      <g>
       <use style="stroke:#000000;stroke-width:0.5;" x="284.571428571" xlink:href="#m78c52d57b7" y="43.2"/>
      </g>
     </g>
     <g id="text_3">
      <!-- −100 -->
      <g transform="translate(268.091116071 401.918125)scale(0.12 -0.12)">
       <use xlink:href="#BitstreamVeraSans-Roman-2212"/>
       <use x="83.7890625" xlink:href="#BitstreamVeraSans-Roman-31"/>
       <use x="147.412109375" xlink:href="#BitstreamVeraSans-Roman-30"/>
       <use x="211.03515625" xlink:href="#BitstreamVeraSans-Roman-30"/>
      </g>
     </g>
    </g>
    <g id="xtick_4">
     <g id="line2d_7">
      <g>
       <use style="stroke:#000000;stroke-width:0.5;" x="390.857142857" xlink:href="#mcc7b77e3bf" y="388.8"/>
      </g>
     </g>
     <g id="line2d_8">
      <g>
       <use style="stroke:#000000;stroke-width:0.5;" x="390.857142857" xlink:href="#m78c52d57b7" y="43.2"/>
      </g>
     </g>
     <g id="text_4">
      <!-- −50 -->
      <g transform="translate(378.194330357 401.918125)scale(0.12 -0.12)">
       <use xlink:href="#BitstreamVeraSans-Roman-2212"/>
       <use x="83.7890625" xlink:href="#BitstreamVeraSans-Roman-35"/>
       <use x="147.412109375" xlink:href="#BitstreamVeraSans-Roman-30"/>
      </g>
     </g>
    </g>
    <g id="xtick_5">
     <g id="line2d_9">
      <g>
       <use style="stroke:#000000;stroke-width:0.5;" x="497.142857143" xlink:href="#mcc7b77e3bf" y="388.8"/>
      </g>
     </g>
     <g id="line2d_10">
      <g>
       <use style="stroke:#000000;stroke-width:0.5;" x="497.142857143" xlink:href="#m78c52d57b7" y="43.2"/>
      </g>
     </g>
     <g id="text_5">
      <!-- 0 -->
      <g transform="translate(493.325357143 401.918125)scale(0.12 -0.12)">
       <use xlink:href="#BitstreamVeraSans-Roman-30"/>
      </g>
     </g>
    </g>
   </g>
   <g id="matplotlib.axis_2">
    <g id="ytick_1">
     <g id="line2d_11">
      <defs>
       <path d="M 0 0 
L 4 0 
" id="m7c063972cf" style="stroke:#000000;stroke-width:0.5;"/>
      </defs>
      <g>
       <use style="stroke:#000000;stroke-width:0.5;" x="72.0" xlink:href="#m7c063972cf" y="388.8"/>
      </g>
     </g>
     <g id="line2d_12">
      <defs>
       <path d="M 0 0 
L -4 0 
" id="m794d59eb8c" style="stroke:#000000;stroke-width:0.5;"/>
      </defs>
      <g>
       <use style="stroke:#000000;stroke-width:0.5;" x="518.4" xlink:href="#m794d59eb8c" y="388.8"/>
      </g>
     </g>
     <g id="text_6">
      <!-- −200 -->
      <g transform="translate(35.039375 392.11125)scale(0.12 -0.12)">
       <use xlink:href="#BitstreamVeraSans-Roman-2212"/>
       <use x="83.7890625" xlink:href="#BitstreamVeraSans-Roman-32"/>
       <use x="147.412109375" xlink:href="#BitstreamVeraSans-Roman-30"/>
       <use x="211.03515625" xlink:href="#BitstreamVeraSans-Roman-30"/>
      </g>
     </g>
    </g>
    <g id="ytick_2">
     <g id="line2d_13">
      <g>
       <use style="stroke:#000000;stroke-width:0.5;" x="72.0" xlink:href="#m7c063972cf" y="306.514285714"/>
      </g>
     </g>
     <g id="line2d_14">
      <g>
       <use style="stroke:#000000;stroke-width:0.5;" x="518.4" xlink:href="#m794d59eb8c" y="306.514285714"/>
      </g>
     </g>
     <g id="text_7">
      <!-- −150 -->
      <g transform="translate(35.039375 309.825535714)scale(0.12 -0.12)">
       <use xlink:href="#BitstreamVeraSans-Roman-2212"/>
       <use x="83.7890625" xlink:href="#BitstreamVeraSans-Roman-31"/>
       <use x="147.412109375" xlink:href="#BitstreamVeraSans-Roman-35"/>
       <use x="211.03515625" xlink:href="#BitstreamVeraSans-Roman-30"/>
      </g>
     </g>
    </g>
    <g id="ytick_3">
     <g id="line2d_15">
      <g>
       <use style="stroke:#000000;stroke-width:0.5;" x="72.0" xlink:href="#m7c063972cf" y="224.228571429"/>
      </g>
     </g>
     <g id="line2d_16">
      <g>
       <use style="stroke:#000000;stroke-width:0.5;" x="518.4" xlink:href="#m794d59eb8c" y="224.228571429"/>
      </g>
     </g>
     <g id="text_8">
      <!-- −100 -->
      <g transform="translate(35.039375 227.539821429)scale(0.12 -0.12)">
       <use xlink:href="#BitstreamVeraSans-Roman-2212"/>
       <use x="83.7890625" xlink:href="#BitstreamVeraSans-Roman-31"/>
       <use x="147.412109375" xlink:href="#BitstreamVeraSans-Roman-30"/>
       <use x="211.03515625" xlink:href="#BitstreamVeraSans-Roman-30"/>
      </g>
     </g>
    </g>
    <g id="ytick_4">
     <g id="line2d_17">
      <g>
       <use style="stroke:#000000;stroke-width:0.5;" x="72.0" xlink:href="#m7c063972cf" y="141.942857143"/>
      </g>
     </g>
     <g id="line2d_18">
      <g>
       <use style="stroke:#000000;stroke-width:0.5;" x="518.4" xlink:href="#m794d59eb8c" y="141.942857143"/>
      </g>
     </g>
     <g id="text_9">
      <!-- −50 -->
      <g transform="translate(42.674375 145.254107143)scale(0.12 -0.12)">
       <use xlink:href="#BitstreamVeraSans-Roman-2212"/>
       <use x="83.7890625" xlink:href="#BitstreamVeraSans-Roman-35"/>
       <use x="147.412109375" xlink:href="#BitstreamVeraSans-Roman-30"/>
      </g>
     </g>
    </g>
    <g id="ytick_5">
     <g id="line2d_19">
      <g>
       <use style="stroke:#000000;stroke-width:0.5;" x="72.0" xlink:href="#m7c063972cf" y="59.6571428571"/>
      </g>
     </g>
     <g id="line2d_20">
      <g>
       <use style="stroke:#000000;stroke-width:0.5;" x="518.4" xlink:href="#m794d59eb8c" y="59.6571428571"/>
      </g>
     </g>
     <g id="text_10">
      <!-- 0 -->
      <g transform="translate(60.365 62.9683928571)scale(0.12 -0.12)">
       <use xlink:href="#BitstreamVeraSans-Roman-30"/>
      </g>
     </g>
    </g>
   </g>
  </g>
 </g>
 <defs>
  <clipPath id="p052076bcdd">
   <rect height="345.6" width="446.4" x="72.0" y="43.2"/>
  </clipPath>
 </defs>
</svg>
