<?xml version="1.0" encoding="utf-8" standalone="no"?>
<!DOCTYPE svg PUBLIC "-//W3C//DTD SVG 1.1//EN"
  "http://www.w3.org/Graphics/SVG/1.1/DTD/svg11.dtd">
<!-- Created with matplotlib (http://matplotlib.org/) -->
<svg height="432pt" version="1.1" viewBox="0 0 576 432" width="576pt" xmlns="http://www.w3.org/2000/svg" xmlns:xlink="http://www.w3.org/1999/xlink">
 <defs>
  <style type="text/css">
*{stroke-linecap:butt;stroke-linejoin:round;stroke-miterlimit:100000;}
  </style>
 </defs>
 <g id="figure_1">
  <g id="patch_1">
   <path d="M 0 432 
L 576 432 
L 576 0 
L 0 0 
z
" style="fill:#ffffff;"/>
  </g>
  <g id="axes_1">
   <g id="patch_2">
    <path d="M 72 388.8 
L 518.4 388.8 
L 518.4 43.2 
L 72 43.2 
z
" style="fill:#ffffff;"/>
   </g>
   <g id="PathCollection_1">
    <defs>
     <path d="M 0 1.118034 
C 0.296506 1.118034 0.580908 1.000231 0.790569 0.790569 
C 1.000231 0.580908 1.118034 0.296506 1.118034 0 
C 1.118034 -0.296506 1.000231 -0.580908 0.790569 -0.790569 
C 0.580908 -1.000231 0.296506 -1.118034 0 -1.118034 
C -0.296506 -1.118034 -0.580908 -1.000231 -0.790569 -0.790569 
C -1.000231 -0.580908 -1.118034 -0.296506 -1.118034 0 
C -1.118034 0.296506 -1.000231 0.580908 -0.790569 0.790569 
C -0.580908 1.000231 -0.296506 1.118034 0 1.118034 
z
" id="m8f216934e3" style="stroke:#000000;"/>
    </defs>
    <g clip-path="url(#p5b40bc4ea0)">
     <use style="stroke:#000000;" x="489.398494285" xlink:href="#m8f216934e3" y="123.986850257"/>
     <use style="stroke:#000000;" x="495.44037475" xlink:href="#m8f216934e3" y="132.92721499"/>
     <use style="stroke:#000000;" x="483.880397996" xlink:href="#m8f216934e3" y="116.279288447"/>
     <use style="stroke:#000000;" x="390.101360585" xlink:href="#m8f216934e3" y="80.2002125168"/>
     <use style="stroke:#000000;" x="460.324113474" xlink:href="#m8f216934e3" y="100.76094963"/>
     <use style="stroke:#000000;" x="496.41441129" xlink:href="#m8f216934e3" y="135.853337275"/>
     <use style="stroke:#000000;" x="331.191289569" xlink:href="#m8f216934e3" y="71.4592719592"/>
     <use style="stroke:#000000;" x="488.424851189" xlink:href="#m8f216934e3" y="120.345734554"/>
     <use style="stroke:#000000;" x="482.853347751" xlink:href="#m8f216934e3" y="114.997576065"/>
     <use style="stroke:#000000;" x="394.98585919" xlink:href="#m8f216934e3" y="81.0549523993"/>
     <use style="stroke:#000000;" x="459.448244931" xlink:href="#m8f216934e3" y="100.319740373"/>
     <use style="stroke:#000000;" x="448.983068843" xlink:href="#m8f216934e3" y="95.9571402939"/>
     <use style="stroke:#000000;" x="495.012093195" xlink:href="#m8f216934e3" y="131.908702625"/>
     <use style="stroke:#000000;" x="351.915063774" xlink:href="#m8f216934e3" y="73.9454560424"/>
     <use style="stroke:#000000;" x="479.128641747" xlink:href="#m8f216934e3" y="112.031197585"/>
     <use style="stroke:#000000;" x="421.819691529" xlink:href="#m8f216934e3" y="87.2708448963"/>
     <use style="stroke:#000000;" x="438.804267249" xlink:href="#m8f216934e3" y="92.3249584203"/>
     <use style="stroke:#000000;" x="433.094643543" xlink:href="#m8f216934e3" y="90.4673498126"/>
     <use style="stroke:#000000;" x="460.820897041" xlink:href="#m8f216934e3" y="100.873691661"/>
     <use style="stroke:#000000;" x="385.700564853" xlink:href="#m8f216934e3" y="79.3132433999"/>
     <use style="stroke:#000000;" x="493.389988234" xlink:href="#m8f216934e3" y="127.994301578"/>
     <use style="stroke:#000000;" x="396.718439807" xlink:href="#m8f216934e3" y="81.3979880395"/>
     <use style="stroke:#000000;" x="493.888080963" xlink:href="#m8f216934e3" y="128.753281148"/>
     <use style="stroke:#000000;" x="322.64872504" xlink:href="#m8f216934e3" y="70.683181079"/>
     <use style="stroke:#000000;" x="482.037570115" xlink:href="#m8f216934e3" y="114.10478944"/>
     <use style="stroke:#000000;" x="222.853229441" xlink:href="#m8f216934e3" y="66.4518027814"/>
     <use style="stroke:#000000;" x="405.000491243" xlink:href="#m8f216934e3" y="83.1621398844"/>
     <use style="stroke:#000000;" x="406.864518265" xlink:href="#m8f216934e3" y="83.660547499"/>
     <use style="stroke:#000000;" x="385.487360306" xlink:href="#m8f216934e3" y="79.2158665574"/>
     <use style="stroke:#000000;" x="345.821527269" xlink:href="#m8f216934e3" y="73.1295519317"/>
     <use style="stroke:#000000;" x="433.908313466" xlink:href="#m8f216934e3" y="90.7907691735"/>
     <use style="stroke:#000000;" x="445.778006623" xlink:href="#m8f216934e3" y="94.7345568303"/>
     <use style="stroke:#000000;" x="430.470569531" xlink:href="#m8f216934e3" y="89.6806021417"/>
     <use style="stroke:#000000;" x="433.613174366" xlink:href="#m8f216934e3" y="90.751312347"/>
     <use style="stroke:#000000;" x="475.618507333" xlink:href="#m8f216934e3" y="109.079358032"/>
     <use style="stroke:#000000;" x="462.579300351" xlink:href="#m8f216934e3" y="101.907233575"/>
     <use style="stroke:#000000;" x="443.435575444" xlink:href="#m8f216934e3" y="94.0318259709"/>
     <use style="stroke:#000000;" x="496.046729035" xlink:href="#m8f216934e3" y="133.827541138"/>
     <use style="stroke:#000000;" x="402.654890163" xlink:href="#m8f216934e3" y="82.6473572758"/>
     <use style="stroke:#000000;" x="480.114089153" xlink:href="#m8f216934e3" y="112.494935741"/>
     <use style="stroke:#000000;" x="429.043205014" xlink:href="#m8f216934e3" y="89.2628878143"/>
     <use style="stroke:#000000;" x="469.465199317" xlink:href="#m8f216934e3" y="105.409954747"/>
     <use style="stroke:#000000;" x="473.015307606" xlink:href="#m8f216934e3" y="107.408946152"/>
     <use style="stroke:#000000;" x="400.110280945" xlink:href="#m8f216934e3" y="82.256603974"/>
     <use style="stroke:#000000;" x="467.055210234" xlink:href="#m8f216934e3" y="104.003666147"/>
     <use style="stroke:#000000;" x="444.96444758" xlink:href="#m8f216934e3" y="94.4811978577"/>
     <use style="stroke:#000000;" x="494.844243139" xlink:href="#m8f216934e3" y="130.343664566"/>
     <use style="stroke:#000000;" x="437.360999571" xlink:href="#m8f216934e3" y="91.8035320907"/>
     <use style="stroke:#000000;" x="375.175285296" xlink:href="#m8f216934e3" y="77.4187442337"/>
     <use style="stroke:#000000;" x="470.700381164" xlink:href="#m8f216934e3" y="106.023862735"/>
     <use style="stroke:#000000;" x="455.999209557" xlink:href="#m8f216934e3" y="98.9082898096"/>
     <use style="stroke:#000000;" x="388.809665089" xlink:href="#m8f216934e3" y="79.8379802703"/>
     <use style="stroke:#000000;" x="416.877716377" xlink:href="#m8f216934e3" y="86.1005290887"/>
     <use style="stroke:#000000;" x="425.86243781" xlink:href="#m8f216934e3" y="88.3650900356"/>
     <use style="stroke:#000000;" x="422.022932406" xlink:href="#m8f216934e3" y="87.3714658421"/>
     <use style="stroke:#000000;" x="348.39237325" xlink:href="#m8f216934e3" y="73.3887704103"/>
     <use style="stroke:#000000;" x="497.024784794" xlink:href="#m8f216934e3" y="139.224269198"/>
     <use style="stroke:#000000;" x="423.357500412" xlink:href="#m8f216934e3" y="87.6960263856"/>
     <use style="stroke:#000000;" x="473.398304989" xlink:href="#m8f216934e3" y="107.684722822"/>
     <use style="stroke:#000000;" x="376.998138957" xlink:href="#m8f216934e3" y="77.7239232566"/>
     <use style="stroke:#000000;" x="336.794084483" xlink:href="#m8f216934e3" y="82.9590109913"/>
     <use style="stroke:#000000;" x="413.211741361" xlink:href="#m8f216934e3" y="88.1654404359"/>
     <use style="stroke:#000000;" x="477.08345754" xlink:href="#m8f216934e3" y="115.119569588"/>
     <use style="stroke:#000000;" x="423.779794467" xlink:href="#m8f216934e3" y="104.006808785"/>
     <use style="stroke:#000000;" x="460.150265443" xlink:href="#m8f216934e3" y="103.494720647"/>
     <use style="stroke:#000000;" x="474.020525608" xlink:href="#m8f216934e3" y="109.158482938"/>
     <use style="stroke:#000000;" x="481.783128255" xlink:href="#m8f216934e3" y="115.598561549"/>
     <use style="stroke:#000000;" x="423.197285282" xlink:href="#m8f216934e3" y="92.5182001563"/>
     <use style="stroke:#000000;" x="374.888363615" xlink:href="#m8f216934e3" y="83.0424879993"/>
     <use style="stroke:#000000;" x="459.709656613" xlink:href="#m8f216934e3" y="100.873770855"/>
     <use style="stroke:#000000;" x="448.524051953" xlink:href="#m8f216934e3" y="99.9575425903"/>
     <use style="stroke:#000000;" x="337.878053131" xlink:href="#m8f216934e3" y="85.5173002184"/>
     <use style="stroke:#000000;" x="411.056360835" xlink:href="#m8f216934e3" y="96.5495244191"/>
     <use style="stroke:#000000;" x="434.230038705" xlink:href="#m8f216934e3" y="107.488871173"/>
     <use style="stroke:#000000;" x="417.942446211" xlink:href="#m8f216934e3" y="92.0003556483"/>
     <use style="stroke:#000000;" x="323.788738581" xlink:href="#m8f216934e3" y="73.680641727"/>
     <use style="stroke:#000000;" x="476.962762067" xlink:href="#m8f216934e3" y="110.061239067"/>
     <use style="stroke:#000000;" x="456.208025485" xlink:href="#m8f216934e3" y="100.190436729"/>
     <use style="stroke:#000000;" x="306.881059805" xlink:href="#m8f216934e3" y="70.5087457371"/>
     <use style="stroke:#000000;" x="464.61518502" xlink:href="#m8f216934e3" y="102.943936351"/>
     <use style="stroke:#000000;" x="322.651782094" xlink:href="#m8f216934e3" y="100.277861426"/>
     <use style="stroke:#000000;" x="482.26983416" xlink:href="#m8f216934e3" y="122.473312514"/>
     <use style="stroke:#000000;" x="391.15961389" xlink:href="#m8f216934e3" y="80.4535697247"/>
     <use style="stroke:#000000;" x="474.750120696" xlink:href="#m8f216934e3" y="109.277163674"/>
     <use style="stroke:#000000;" x="358.077728896" xlink:href="#m8f216934e3" y="75.4483702224"/>
     <use style="stroke:#000000;" x="325.524271874" xlink:href="#m8f216934e3" y="73.3878561894"/>
     <use style="stroke:#000000;" x="356.86353187" xlink:href="#m8f216934e3" y="96.0818032672"/>
     <use style="stroke:#000000;" x="486.534047245" xlink:href="#m8f216934e3" y="118.517380101"/>
     <use style="stroke:#000000;" x="476.925034079" xlink:href="#m8f216934e3" y="117.314146755"/>
     <use style="stroke:#000000;" x="460.824512701" xlink:href="#m8f216934e3" y="113.185140854"/>
     <use style="stroke:#000000;" x="258.777608212" xlink:href="#m8f216934e3" y="68.0127646246"/>
     <use style="stroke:#000000;" x="427.341886647" xlink:href="#m8f216934e3" y="88.9604121972"/>
     <use style="stroke:#000000;" x="469.022759018" xlink:href="#m8f216934e3" y="107.01469152"/>
     <use style="stroke:#000000;" x="405.869639037" xlink:href="#m8f216934e3" y="84.2969551565"/>
     <use style="stroke:#000000;" x="467.744486987" xlink:href="#m8f216934e3" y="104.465357506"/>
     <use style="stroke:#000000;" x="383.225014921" xlink:href="#m8f216934e3" y="90.7731281058"/>
     <use style="stroke:#000000;" x="460.078948694" xlink:href="#m8f216934e3" y="113.259075129"/>
     <use style="stroke:#000000;" x="439.685623488" xlink:href="#m8f216934e3" y="109.73915814"/>
     <use style="stroke:#000000;" x="429.093613891" xlink:href="#m8f216934e3" y="89.3752110536"/>
     <use style="stroke:#000000;" x="481.714481631" xlink:href="#m8f216934e3" y="114.876149972"/>
     <use style="stroke:#000000;" x="392.171428723" xlink:href="#m8f216934e3" y="80.9076487856"/>
     <use style="stroke:#000000;" x="425.391877908" xlink:href="#m8f216934e3" y="102.028492683"/>
     <use style="stroke:#000000;" x="282.414708874" xlink:href="#m8f216934e3" y="81.891191325"/>
     <use style="stroke:#000000;" x="434.827603045" xlink:href="#m8f216934e3" y="91.547039033"/>
     <use style="stroke:#000000;" x="383.431815798" xlink:href="#m8f216934e3" y="89.339419665"/>
     <use style="stroke:#000000;" x="478.534936864" xlink:href="#m8f216934e3" y="120.888942991"/>
     <use style="stroke:#000000;" x="349.425128845" xlink:href="#m8f216934e3" y="87.0833571834"/>
     <use style="stroke:#000000;" x="375.77630446" xlink:href="#m8f216934e3" y="77.7487840915"/>
     <use style="stroke:#000000;" x="486.132398266" xlink:href="#m8f216934e3" y="118.179665165"/>
     <use style="stroke:#000000;" x="431.886647726" xlink:href="#m8f216934e3" y="92.6013888751"/>
     <use style="stroke:#000000;" x="250.409574664" xlink:href="#m8f216934e3" y="71.2362125576"/>
     <use style="stroke:#000000;" x="391.959905966" xlink:href="#m8f216934e3" y="86.133780029"/>
     <use style="stroke:#000000;" x="292.171368192" xlink:href="#m8f216934e3" y="68.9114937303"/>
     <use style="stroke:#000000;" x="382.75046637" xlink:href="#m8f216934e3" y="86.5701028651"/>
     <use style="stroke:#000000;" x="468.621832799" xlink:href="#m8f216934e3" y="108.333650721"/>
     <use style="stroke:#000000;" x="405.35576663" xlink:href="#m8f216934e3" y="83.2462564418"/>
     <use style="stroke:#000000;" x="481.470214997" xlink:href="#m8f216934e3" y="122.326551458"/>
     <use style="stroke:#000000;" x="324.285759705" xlink:href="#m8f216934e3" y="87.6674176964"/>
     <use style="stroke:#000000;" x="431.393765982" xlink:href="#m8f216934e3" y="93.4536566216"/>
     <use style="stroke:#000000;" x="314.449086799" xlink:href="#m8f216934e3" y="79.1732705597"/>
    </g>
   </g>
   <g id="PathCollection_2">
    <defs>
     <path d="M 0 1.936492 
C 0.513564 1.936492 1.006162 1.732451 1.369306 1.369306 
C 1.732451 1.006162 1.936492 0.513564 1.936492 0 
C 1.936492 -0.513564 1.732451 -1.006162 1.369306 -1.369306 
C 1.006162 -1.732451 0.513564 -1.936492 0 -1.936492 
C -0.513564 -1.936492 -1.006162 -1.732451 -1.369306 -1.369306 
C -1.732451 -1.006162 -1.936492 -0.513564 -1.936492 0 
C -1.936492 0.513564 -1.732451 1.006162 -1.369306 1.369306 
C -1.006162 1.732451 -0.513564 1.936492 0 1.936492 
z
" id="m82408aba2f" style="stroke:#000000;"/>
    </defs>
    <g clip-path="url(#p5b40bc4ea0)">
     <use style="fill:#0000ff;stroke:#000000;" x="489.398494285" xlink:href="#m82408aba2f" y="123.986850257"/>
     <use style="fill:#0000ff;stroke:#000000;" x="495.44037475" xlink:href="#m82408aba2f" y="132.92721499"/>
     <use style="fill:#0000ff;stroke:#000000;" x="483.880397996" xlink:href="#m82408aba2f" y="116.279288447"/>
     <use style="fill:#0000ff;stroke:#000000;" x="390.101360585" xlink:href="#m82408aba2f" y="80.2002125168"/>
     <use style="fill:#0000ff;stroke:#000000;" x="460.324113474" xlink:href="#m82408aba2f" y="100.76094963"/>
     <use style="fill:#0000ff;stroke:#000000;" x="496.41441129" xlink:href="#m82408aba2f" y="135.853337275"/>
     <use style="fill:#0000ff;stroke:#000000;" x="331.191289569" xlink:href="#m82408aba2f" y="71.4592719592"/>
     <use style="fill:#0000ff;stroke:#000000;" x="488.424851189" xlink:href="#m82408aba2f" y="120.345734554"/>
     <use style="fill:#0000ff;stroke:#000000;" x="482.853347751" xlink:href="#m82408aba2f" y="114.997576065"/>
     <use style="fill:#0000ff;stroke:#000000;" x="394.98585919" xlink:href="#m82408aba2f" y="81.0549523993"/>
     <use style="fill:#0000ff;stroke:#000000;" x="459.448244931" xlink:href="#m82408aba2f" y="100.319740373"/>
     <use style="fill:#0000ff;stroke:#000000;" x="448.983068843" xlink:href="#m82408aba2f" y="95.9571402939"/>
     <use style="fill:#0000ff;stroke:#000000;" x="495.012093195" xlink:href="#m82408aba2f" y="131.908702625"/>
     <use style="fill:#0000ff;stroke:#000000;" x="351.915063774" xlink:href="#m82408aba2f" y="73.9454560424"/>
     <use style="fill:#0000ff;stroke:#000000;" x="479.128641747" xlink:href="#m82408aba2f" y="112.031197585"/>
     <use style="fill:#0000ff;stroke:#000000;" x="421.819691529" xlink:href="#m82408aba2f" y="87.2708448963"/>
     <use style="fill:#0000ff;stroke:#000000;" x="438.804267249" xlink:href="#m82408aba2f" y="92.3249584203"/>
     <use style="fill:#0000ff;stroke:#000000;" x="433.094643543" xlink:href="#m82408aba2f" y="90.4673498126"/>
     <use style="fill:#0000ff;stroke:#000000;" x="460.820897041" xlink:href="#m82408aba2f" y="100.873691661"/>
     <use style="fill:#0000ff;stroke:#000000;" x="385.700564853" xlink:href="#m82408aba2f" y="79.3132433999"/>
     <use style="fill:#0000ff;stroke:#000000;" x="493.389988234" xlink:href="#m82408aba2f" y="127.994301578"/>
     <use style="fill:#0000ff;stroke:#000000;" x="396.718439807" xlink:href="#m82408aba2f" y="81.3979880395"/>
     <use style="fill:#0000ff;stroke:#000000;" x="493.888080963" xlink:href="#m82408aba2f" y="128.753281148"/>
     <use style="fill:#0000ff;stroke:#000000;" x="322.64872504" xlink:href="#m82408aba2f" y="70.683181079"/>
     <use style="fill:#0000ff;stroke:#000000;" x="482.037570115" xlink:href="#m82408aba2f" y="114.10478944"/>
     <use style="fill:#0000ff;stroke:#000000;" x="222.853229441" xlink:href="#m82408aba2f" y="66.4518027814"/>
     <use style="fill:#0000ff;stroke:#000000;" x="405.000491243" xlink:href="#m82408aba2f" y="83.1621398844"/>
     <use style="fill:#0000ff;stroke:#000000;" x="406.864518265" xlink:href="#m82408aba2f" y="83.660547499"/>
     <use style="fill:#0000ff;stroke:#000000;" x="385.487360306" xlink:href="#m82408aba2f" y="79.2158665574"/>
     <use style="fill:#0000ff;stroke:#000000;" x="345.821527269" xlink:href="#m82408aba2f" y="73.1295519317"/>
     <use style="fill:#0000ff;stroke:#000000;" x="433.908313466" xlink:href="#m82408aba2f" y="90.7907691735"/>
     <use style="fill:#0000ff;stroke:#000000;" x="445.778006623" xlink:href="#m82408aba2f" y="94.7345568303"/>
     <use style="fill:#0000ff;stroke:#000000;" x="430.470569531" xlink:href="#m82408aba2f" y="89.6806021417"/>
     <use style="fill:#0000ff;stroke:#000000;" x="433.613174366" xlink:href="#m82408aba2f" y="90.751312347"/>
     <use style="fill:#0000ff;stroke:#000000;" x="475.618507333" xlink:href="#m82408aba2f" y="109.079358032"/>
     <use style="fill:#0000ff;stroke:#000000;" x="462.579300351" xlink:href="#m82408aba2f" y="101.907233575"/>
     <use style="fill:#0000ff;stroke:#000000;" x="443.435575444" xlink:href="#m82408aba2f" y="94.0318259709"/>
     <use style="fill:#0000ff;stroke:#000000;" x="496.046729035" xlink:href="#m82408aba2f" y="133.827541138"/>
     <use style="fill:#0000ff;stroke:#000000;" x="402.654890163" xlink:href="#m82408aba2f" y="82.6473572758"/>
     <use style="fill:#0000ff;stroke:#000000;" x="480.114089153" xlink:href="#m82408aba2f" y="112.494935741"/>
     <use style="fill:#0000ff;stroke:#000000;" x="429.043205014" xlink:href="#m82408aba2f" y="89.2628878143"/>
     <use style="fill:#0000ff;stroke:#000000;" x="469.465199317" xlink:href="#m82408aba2f" y="105.409954747"/>
     <use style="fill:#0000ff;stroke:#000000;" x="473.015307606" xlink:href="#m82408aba2f" y="107.408946152"/>
     <use style="fill:#0000ff;stroke:#000000;" x="400.110280945" xlink:href="#m82408aba2f" y="82.256603974"/>
     <use style="fill:#0000ff;stroke:#000000;" x="467.055210234" xlink:href="#m82408aba2f" y="104.003666147"/>
     <use style="fill:#0000ff;stroke:#000000;" x="444.96444758" xlink:href="#m82408aba2f" y="94.4811978577"/>
     <use style="fill:#0000ff;stroke:#000000;" x="494.844243139" xlink:href="#m82408aba2f" y="130.343664566"/>
     <use style="fill:#0000ff;stroke:#000000;" x="437.360999571" xlink:href="#m82408aba2f" y="91.8035320907"/>
     <use style="fill:#0000ff;stroke:#000000;" x="375.175285296" xlink:href="#m82408aba2f" y="77.4187442337"/>
     <use style="fill:#0000ff;stroke:#000000;" x="470.700381164" xlink:href="#m82408aba2f" y="106.023862735"/>
     <use style="fill:#0000ff;stroke:#000000;" x="455.999209557" xlink:href="#m82408aba2f" y="98.9082898096"/>
     <use style="fill:#0000ff;stroke:#000000;" x="388.809665089" xlink:href="#m82408aba2f" y="79.8379802703"/>
     <use style="fill:#0000ff;stroke:#000000;" x="416.877716377" xlink:href="#m82408aba2f" y="86.1005290887"/>
     <use style="fill:#0000ff;stroke:#000000;" x="425.86243781" xlink:href="#m82408aba2f" y="88.3650900356"/>
     <use style="fill:#0000ff;stroke:#000000;" x="422.022932406" xlink:href="#m82408aba2f" y="87.3714658421"/>
     <use style="fill:#0000ff;stroke:#000000;" x="348.39237325" xlink:href="#m82408aba2f" y="73.3887704103"/>
     <use style="fill:#0000ff;stroke:#000000;" x="497.024784794" xlink:href="#m82408aba2f" y="139.224269198"/>
     <use style="fill:#0000ff;stroke:#000000;" x="423.357500412" xlink:href="#m82408aba2f" y="87.6960263856"/>
     <use style="fill:#0000ff;stroke:#000000;" x="473.398304989" xlink:href="#m82408aba2f" y="107.684722822"/>
     <use style="fill:#0000ff;stroke:#000000;" x="376.998138957" xlink:href="#m82408aba2f" y="77.7239232566"/>
    </g>
   </g>
   <g id="patch_3">
    <path d="M 72 388.8 
L 518.4 388.8 
" style="fill:none;stroke:#000000;stroke-linecap:square;stroke-linejoin:miter;"/>
   </g>
   <g id="patch_4">
    <path d="M 72 43.2 
L 518.4 43.2 
" style="fill:none;stroke:#000000;stroke-linecap:square;stroke-linejoin:miter;"/>
   </g>
   <g id="patch_5">
    <path d="M 72 388.8 
L 72 43.2 
" style="fill:none;stroke:#000000;stroke-linecap:square;stroke-linejoin:miter;"/>
   </g>
   <g id="patch_6">
    <path d="M 518.4 388.8 
L 518.4 43.2 
" style="fill:none;stroke:#000000;stroke-linecap:square;stroke-linejoin:miter;"/>
   </g>
   <g id="matplotlib.axis_1">
    <g id="xtick_1">
     <g id="line2d_1">
      <defs>
       <path d="M 0 0 
L 0 -4 
" id="m2ec224248c" style="stroke:#000000;stroke-width:0.5;"/>
      </defs>
      <g>
       <use style="stroke:#000000;stroke-width:0.5;" x="72.0" xlink:href="#m2ec224248c" y="388.8"/>
      </g>
     </g>
     <g id="line2d_2">
      <defs>
       <path d="M 0 0 
L 0 4 
" id="m5660bf4d7b" style="stroke:#000000;stroke-width:0.5;"/>
      </defs>
      <g>
       <use style="stroke:#000000;stroke-width:0.5;" x="72.0" xlink:href="#m5660bf4d7b" y="43.2"/>
      </g>
     </g>
     <g id="text_1">
      <!-- −200 -->
      <defs>
       <path d="M 10.59375 35.5 
L 73.1875 35.5 
L 73.1875 27.203125 
L 10.59375 27.203125 
z
" id="BitstreamVeraSans-Roman-2212"/>
       <path d="M 19.1875 8.296875 
L 53.609375 8.296875 
L 53.609375 0 
L 7.328125 0 
L 7.328125 8.296875 
Q 12.9375 14.109375 22.625 23.890625 
Q 32.328125 33.6875 34.8125 36.53125 
Q 39.546875 41.84375 41.421875 45.53125 
Q 43.3125 49.21875 43.3125 52.78125 
Q 43.3125 58.59375 39.234375 62.25 
Q 35.15625 65.921875 28.609375 65.921875 
Q 23.96875 65.921875 18.8125 64.3125 
Q 13.671875 62.703125 7.8125 59.421875 
L 7.8125 69.390625 
Q 13.765625 71.78125 18.9375 73 
Q 24.125 74.21875 28.421875 74.21875 
Q 39.75 74.21875 46.484375 68.546875 
Q 53.21875 62.890625 53.21875 53.421875 
Q 53.21875 48.921875 51.53125 44.890625 
Q 49.859375 40.875 45.40625 35.40625 
Q 44.1875 33.984375 37.640625 27.21875 
Q 31.109375 20.453125 19.1875 8.296875 
" id="BitstreamVeraSans-Roman-32"/>
       <path d="M 31.78125 66.40625 
Q 24.171875 66.40625 20.328125 58.90625 
Q 16.5 51.421875 16.5 36.375 
Q 16.5 21.390625 20.328125 13.890625 
Q 24.171875 6.390625 31.78125 6.390625 
Q 39.453125 6.390625 43.28125 13.890625 
Q 47.125 21.390625 47.125 36.375 
Q 47.125 51.421875 43.28125 58.90625 
Q 39.453125 66.40625 31.78125 66.40625 
M 31.78125 74.21875 
Q 44.046875 74.21875 50.515625 64.515625 
Q 56.984375 54.828125 56.984375 36.375 
Q 56.984375 17.96875 50.515625 8.265625 
Q 44.046875 -1.421875 31.78125 -1.421875 
Q 19.53125 -1.421875 13.0625 8.265625 
Q 6.59375 17.96875 6.59375 36.375 
Q 6.59375 54.828125 13.0625 64.515625 
Q 19.53125 74.21875 31.78125 74.21875 
" id="BitstreamVeraSans-Roman-30"/>
      </defs>
      <g transform="translate(55.5196875 401.918125)scale(0.12 -0.12)">
       <use xlink:href="#BitstreamVeraSans-Roman-2212"/>
       <use x="83.7890625" xlink:href="#BitstreamVeraSans-Roman-32"/>
       <use x="147.412109375" xlink:href="#BitstreamVeraSans-Roman-30"/>
       <use x="211.03515625" xlink:href="#BitstreamVeraSans-Roman-30"/>
      </g>
     </g>
    </g>
    <g id="xtick_2">
     <g id="line2d_3">
      <g>
       <use style="stroke:#000000;stroke-width:0.5;" x="178.285714286" xlink:href="#m2ec224248c" y="388.8"/>
      </g>
     </g>
     <g id="line2d_4">
      <g>
       <use style="stroke:#000000;stroke-width:0.5;" x="178.285714286" xlink:href="#m5660bf4d7b" y="43.2"/>
      </g>
     </g>
     <g id="text_2">
      <!-- −150 -->
      <defs>
       <path d="M 12.40625 8.296875 
L 28.515625 8.296875 
L 28.515625 63.921875 
L 10.984375 60.40625 
L 10.984375 69.390625 
L 28.421875 72.90625 
L 38.28125 72.90625 
L 38.28125 8.296875 
L 54.390625 8.296875 
L 54.390625 0 
L 12.40625 0 
z
" id="BitstreamVeraSans-Roman-31"/>
       <path d="M 10.796875 72.90625 
L 49.515625 72.90625 
L 49.515625 64.59375 
L 19.828125 64.59375 
L 19.828125 46.734375 
Q 21.96875 47.46875 24.109375 47.828125 
Q 26.265625 48.1875 28.421875 48.1875 
Q 40.625 48.1875 47.75 41.5 
Q 54.890625 34.8125 54.890625 23.390625 
Q 54.890625 11.625 47.5625 5.09375 
Q 40.234375 -1.421875 26.90625 -1.421875 
Q 22.3125 -1.421875 17.546875 -0.640625 
Q 12.796875 0.140625 7.71875 1.703125 
L 7.71875 11.625 
Q 12.109375 9.234375 16.796875 8.0625 
Q 21.484375 6.890625 26.703125 6.890625 
Q 35.15625 6.890625 40.078125 11.328125 
Q 45.015625 15.765625 45.015625 23.390625 
Q 45.015625 31 40.078125 35.4375 
Q 35.15625 39.890625 26.703125 39.890625 
Q 22.75 39.890625 18.8125 39.015625 
Q 14.890625 38.140625 10.796875 36.28125 
z
" id="BitstreamVeraSans-Roman-35"/>
      </defs>
      <g transform="translate(161.805401786 401.918125)scale(0.12 -0.12)">
       <use xlink:href="#BitstreamVeraSans-Roman-2212"/>
       <use x="83.7890625" xlink:href="#BitstreamVeraSans-Roman-31"/>
       <use x="147.412109375" xlink:href="#BitstreamVeraSans-Roman-35"/>
       <use x="211.03515625" xlink:href="#BitstreamVeraSans-Roman-30"/>
      </g>
     </g>
    </g>
    <g id="xtick_3">
     <g id="line2d_5">
      <g>
       <use style="stroke:#000000;stroke-width:0.5;" x="284.571428571" xlink:href="#m2ec224248c" y="388.8"/>
      </g>
     </g>
     <g id="line2d_6">
      <g>
       <use style="stroke:#000000;stroke-width:0.5;" x="284.571428571" xlink:href="#m5660bf4d7b" y="43.2"/>
      </g>
     </g>
     <g id="text_3">
      <!-- −100 -->
      <g transform="translate(268.091116071 401.918125)scale(0.12 -0.12)">
       <use xlink:href="#BitstreamVeraSans-Roman-2212"/>
       <use x="83.7890625" xlink:href="#BitstreamVeraSans-Roman-31"/>
       <use x="147.412109375" xlink:href="#BitstreamVeraSans-Roman-30"/>
       <use x="211.03515625" xlink:href="#BitstreamVeraSans-Roman-30"/>
      </g>
     </g>
    </g>
    <g id="xtick_4">
     <g id="line2d_7">
      <g>
       <use style="stroke:#000000;stroke-width:0.5;" x="390.857142857" xlink:href="#m2ec224248c" y="388.8"/>
      </g>
     </g>
     <g id="line2d_8">
      <g>
       <use style="stroke:#000000;stroke-width:0.5;" x="390.857142857" xlink:href="#m5660bf4d7b" y="43.2"/>
      </g>
     </g>
     <g id="text_4">
      <!-- −50 -->
      <g transform="translate(378.194330357 401.918125)scale(0.12 -0.12)">
       <use xlink:href="#BitstreamVeraSans-Roman-2212"/>
       <use x="83.7890625" xlink:href="#BitstreamVeraSans-Roman-35"/>
       <use x="147.412109375" xlink:href="#BitstreamVeraSans-Roman-30"/>
      </g>
     </g>
    </g>
    <g id="xtick_5">
     <g id="line2d_9">
      <g>
       <use style="stroke:#000000;stroke-width:0.5;" x="497.142857143" xlink:href="#m2ec224248c" y="388.8"/>
      </g>
     </g>
     <g id="line2d_10">
      <g>
       <use style="stroke:#000000;stroke-width:0.5;" x="497.142857143" xlink:href="#m5660bf4d7b" y="43.2"/>
      </g>
     </g>
     <g id="text_5">
      <!-- 0 -->
      <g transform="translate(493.325357143 401.918125)scale(0.12 -0.12)">
       <use xlink:href="#BitstreamVeraSans-Roman-30"/>
      </g>
     </g>
    </g>
   </g>
   <g id="matplotlib.axis_2">
    <g id="ytick_1">
     <g id="line2d_11">
      <defs>
       <path d="M 0 0 
L 4 0 
" id="m80b6f5e28f" style="stroke:#000000;stroke-width:0.5;"/>
      </defs>
      <g>
       <use style="stroke:#000000;stroke-width:0.5;" x="72.0" xlink:href="#m80b6f5e28f" y="388.8"/>
      </g>
     </g>
     <g id="line2d_12">
      <defs>
       <path d="M 0 0 
L -4 0 
" id="mce0f1e0112" style="stroke:#000000;stroke-width:0.5;"/>
      </defs>
      <g>
       <use style="stroke:#000000;stroke-width:0.5;" x="518.4" xlink:href="#mce0f1e0112" y="388.8"/>
      </g>
     </g>
     <g id="text_6">
      <!-- −200 -->
      <g transform="translate(35.039375 392.11125)scale(0.12 -0.12)">
       <use xlink:href="#BitstreamVeraSans-Roman-2212"/>
       <use x="83.7890625" xlink:href="#BitstreamVeraSans-Roman-32"/>
       <use x="147.412109375" xlink:href="#BitstreamVeraSans-Roman-30"/>
       <use x="211.03515625" xlink:href="#BitstreamVeraSans-Roman-30"/>
      </g>
     </g>
    </g>
    <g id="ytick_2">
     <g id="line2d_13">
      <g>
       <use style="stroke:#000000;stroke-width:0.5;" x="72.0" xlink:href="#m80b6f5e28f" y="306.514285714"/>
      </g>
     </g>
     <g id="line2d_14">
      <g>
       <use style="stroke:#000000;stroke-width:0.5;" x="518.4" xlink:href="#mce0f1e0112" y="306.514285714"/>
      </g>
     </g>
     <g id="text_7">
      <!-- −150 -->
      <g transform="translate(35.039375 309.825535714)scale(0.12 -0.12)">
       <use xlink:href="#BitstreamVeraSans-Roman-2212"/>
       <use x="83.7890625" xlink:href="#BitstreamVeraSans-Roman-31"/>
       <use x="147.412109375" xlink:href="#BitstreamVeraSans-Roman-35"/>
       <use x="211.03515625" xlink:href="#BitstreamVeraSans-Roman-30"/>
      </g>
     </g>
    </g>
    <g id="ytick_3">
     <g id="line2d_15">
      <g>
       <use style="stroke:#000000;stroke-width:0.5;" x="72.0" xlink:href="#m80b6f5e28f" y="224.228571429"/>
      </g>
     </g>
     <g id="line2d_16">
      <g>
       <use style="stroke:#000000;stroke-width:0.5;" x="518.4" xlink:href="#mce0f1e0112" y="224.228571429"/>
      </g>
     </g>
     <g id="text_8">
      <!-- −100 -->
      <g transform="translate(35.039375 227.539821429)scale(0.12 -0.12)">
       <use xlink:href="#BitstreamVeraSans-Roman-2212"/>
       <use x="83.7890625" xlink:href="#BitstreamVeraSans-Roman-31"/>
       <use x="147.412109375" xlink:href="#BitstreamVeraSans-Roman-30"/>
       <use x="211.03515625" xlink:href="#BitstreamVeraSans-Roman-30"/>
      </g>
     </g>
    </g>
    <g id="ytick_4">
     <g id="line2d_17">
      <g>
       <use style="stroke:#000000;stroke-width:0.5;" x="72.0" xlink:href="#m80b6f5e28f" y="141.942857143"/>
      </g>
     </g>
     <g id="line2d_18">
      <g>
       <use style="stroke:#000000;stroke-width:0.5;" x="518.4" xlink:href="#mce0f1e0112" y="141.942857143"/>
      </g>
     </g>
     <g id="text_9">
      <!-- −50 -->
      <g transform="translate(42.674375 145.254107143)scale(0.12 -0.12)">
       <use xlink:href="#BitstreamVeraSans-Roman-2212"/>
       <use x="83.7890625" xlink:href="#BitstreamVeraSans-Roman-35"/>
       <use x="147.412109375" xlink:href="#BitstreamVeraSans-Roman-30"/>
      </g>
     </g>
    </g>
    <g id="ytick_5">
     <g id="line2d_19">
      <g>
       <use style="stroke:#000000;stroke-width:0.5;" x="72.0" xlink:href="#m80b6f5e28f" y="59.6571428571"/>
      </g>
     </g>
     <g id="line2d_20">
      <g>
       <use style="stroke:#000000;stroke-width:0.5;" x="518.4" xlink:href="#mce0f1e0112" y="59.6571428571"/>
      </g>
     </g>
     <g id="text_10">
      <!-- 0 -->
      <g transform="translate(60.365 62.9683928571)scale(0.12 -0.12)">
       <use xlink:href="#BitstreamVeraSans-Roman-30"/>
      </g>
     </g>
    </g>
   </g>
  </g>
 </g>
 <defs>
  <clipPath id="p5b40bc4ea0">
   <rect height="345.6" width="446.4" x="72.0" y="43.2"/>
  </clipPath>
 </defs>
</svg>
