<?xml version="1.0" encoding="utf-8" standalone="no"?>
<!DOCTYPE svg PUBLIC "-//W3C//DTD SVG 1.1//EN"
  "http://www.w3.org/Graphics/SVG/1.1/DTD/svg11.dtd">
<!-- Created with matplotlib (http://matplotlib.org/) -->
<svg height="432pt" version="1.1" viewBox="0 0 576 432" width="576pt" xmlns="http://www.w3.org/2000/svg" xmlns:xlink="http://www.w3.org/1999/xlink">
 <defs>
  <style type="text/css">
*{stroke-linecap:butt;stroke-linejoin:round;stroke-miterlimit:100000;}
  </style>
 </defs>
 <g id="figure_1">
  <g id="patch_1">
   <path d="M 0 432 
L 576 432 
L 576 0 
L 0 0 
z
" style="fill:#ffffff;"/>
  </g>
  <g id="axes_1">
   <g id="patch_2">
    <path d="M 72 388.8 
L 518.4 388.8 
L 518.4 43.2 
L 72 43.2 
z
" style="fill:#ffffff;"/>
   </g>
   <g id="PathCollection_1">
    <defs>
     <path d="M 0 1.118034 
C 0.296506 1.118034 0.580908 1.000231 0.790569 0.790569 
C 1.000231 0.580908 1.118034 0.296506 1.118034 0 
C 1.118034 -0.296506 1.000231 -0.580908 0.790569 -0.790569 
C 0.580908 -1.000231 0.296506 -1.118034 0 -1.118034 
C -0.296506 -1.118034 -0.580908 -1.000231 -0.790569 -0.790569 
C -1.000231 -0.580908 -1.118034 -0.296506 -1.118034 0 
C -1.118034 0.296506 -1.000231 0.580908 -0.790569 0.790569 
C -0.580908 1.000231 -0.296506 1.118034 0 1.118034 
z
" id="m86301a9979" style="stroke:#000000;"/>
    </defs>
    <g clip-path="url(#p8f661fbca1)">
     <use style="stroke:#000000;" x="405.35576663" xlink:href="#m86301a9979" y="83.2462564418"/>
     <use style="stroke:#000000;" x="489.398494285" xlink:href="#m86301a9979" y="123.986850257"/>
     <use style="stroke:#000000;" x="496.41441129" xlink:href="#m86301a9979" y="135.853337275"/>
     <use style="stroke:#000000;" x="331.191289569" xlink:href="#m86301a9979" y="71.4592719592"/>
     <use style="stroke:#000000;" x="460.324113474" xlink:href="#m86301a9979" y="100.76094963"/>
     <use style="stroke:#000000;" x="482.853347751" xlink:href="#m86301a9979" y="114.997576065"/>
     <use style="stroke:#000000;" x="390.101360585" xlink:href="#m86301a9979" y="80.2002125168"/>
     <use style="stroke:#000000;" x="488.424851189" xlink:href="#m86301a9979" y="120.345734554"/>
     <use style="stroke:#000000;" x="394.98585919" xlink:href="#m86301a9979" y="81.0549523993"/>
     <use style="stroke:#000000;" x="483.880397996" xlink:href="#m86301a9979" y="116.279288447"/>
     <use style="stroke:#000000;" x="495.44037475" xlink:href="#m86301a9979" y="132.92721499"/>
     <use style="stroke:#000000;" x="459.448244931" xlink:href="#m86301a9979" y="100.319740373"/>
     <use style="stroke:#000000;" x="448.983068843" xlink:href="#m86301a9979" y="95.9571402939"/>
     <use style="stroke:#000000;" x="495.012093195" xlink:href="#m86301a9979" y="131.908702625"/>
     <use style="stroke:#000000;" x="351.915063774" xlink:href="#m86301a9979" y="73.9454560424"/>
     <use style="stroke:#000000;" x="479.128641747" xlink:href="#m86301a9979" y="112.031197585"/>
     <use style="stroke:#000000;" x="421.819691529" xlink:href="#m86301a9979" y="87.2708448963"/>
     <use style="stroke:#000000;" x="438.804267249" xlink:href="#m86301a9979" y="92.3249584203"/>
     <use style="stroke:#000000;" x="433.094643543" xlink:href="#m86301a9979" y="90.4673498126"/>
     <use style="stroke:#000000;" x="460.820897041" xlink:href="#m86301a9979" y="100.873691661"/>
     <use style="stroke:#000000;" x="385.700564853" xlink:href="#m86301a9979" y="79.3132433999"/>
     <use style="stroke:#000000;" x="493.389988234" xlink:href="#m86301a9979" y="127.994301578"/>
     <use style="stroke:#000000;" x="396.718439807" xlink:href="#m86301a9979" y="81.3979880395"/>
     <use style="stroke:#000000;" x="493.888080963" xlink:href="#m86301a9979" y="128.753281148"/>
     <use style="stroke:#000000;" x="322.64872504" xlink:href="#m86301a9979" y="70.683181079"/>
     <use style="stroke:#000000;" x="482.037570115" xlink:href="#m86301a9979" y="114.10478944"/>
     <use style="stroke:#000000;" x="222.853229441" xlink:href="#m86301a9979" y="66.4518027814"/>
     <use style="stroke:#000000;" x="405.000491243" xlink:href="#m86301a9979" y="83.1621398844"/>
     <use style="stroke:#000000;" x="406.864518265" xlink:href="#m86301a9979" y="83.660547499"/>
     <use style="stroke:#000000;" x="385.487360306" xlink:href="#m86301a9979" y="79.2158665574"/>
     <use style="stroke:#000000;" x="433.908313466" xlink:href="#m86301a9979" y="90.7907691735"/>
     <use style="stroke:#000000;" x="345.821527269" xlink:href="#m86301a9979" y="73.1295519317"/>
     <use style="stroke:#000000;" x="445.778006623" xlink:href="#m86301a9979" y="94.7345568303"/>
     <use style="stroke:#000000;" x="430.470569531" xlink:href="#m86301a9979" y="89.6806021417"/>
     <use style="stroke:#000000;" x="433.613174366" xlink:href="#m86301a9979" y="90.751312347"/>
     <use style="stroke:#000000;" x="475.618507333" xlink:href="#m86301a9979" y="109.079358032"/>
     <use style="stroke:#000000;" x="462.579300351" xlink:href="#m86301a9979" y="101.907233575"/>
     <use style="stroke:#000000;" x="443.435575444" xlink:href="#m86301a9979" y="94.0318259709"/>
     <use style="stroke:#000000;" x="480.114089153" xlink:href="#m86301a9979" y="112.494935741"/>
     <use style="stroke:#000000;" x="496.046729035" xlink:href="#m86301a9979" y="133.827541138"/>
     <use style="stroke:#000000;" x="429.043205014" xlink:href="#m86301a9979" y="89.2628878143"/>
     <use style="stroke:#000000;" x="402.654890163" xlink:href="#m86301a9979" y="82.6473572758"/>
     <use style="stroke:#000000;" x="400.110280945" xlink:href="#m86301a9979" y="82.256603974"/>
     <use style="stroke:#000000;" x="444.96444758" xlink:href="#m86301a9979" y="94.4811978577"/>
     <use style="stroke:#000000;" x="469.465199317" xlink:href="#m86301a9979" y="105.409954747"/>
     <use style="stroke:#000000;" x="473.015307606" xlink:href="#m86301a9979" y="107.408946152"/>
     <use style="stroke:#000000;" x="467.055210234" xlink:href="#m86301a9979" y="104.003666147"/>
     <use style="stroke:#000000;" x="494.844243139" xlink:href="#m86301a9979" y="130.343664566"/>
     <use style="stroke:#000000;" x="437.360999571" xlink:href="#m86301a9979" y="91.8035320907"/>
     <use style="stroke:#000000;" x="375.175285296" xlink:href="#m86301a9979" y="77.4187442337"/>
     <use style="stroke:#000000;" x="470.700381164" xlink:href="#m86301a9979" y="106.023862735"/>
     <use style="stroke:#000000;" x="455.999209557" xlink:href="#m86301a9979" y="98.9082898096"/>
     <use style="stroke:#000000;" x="388.809665089" xlink:href="#m86301a9979" y="79.8379802703"/>
     <use style="stroke:#000000;" x="416.877716377" xlink:href="#m86301a9979" y="86.1005290887"/>
     <use style="stroke:#000000;" x="425.86243781" xlink:href="#m86301a9979" y="88.3650900356"/>
     <use style="stroke:#000000;" x="422.022932406" xlink:href="#m86301a9979" y="87.3714658421"/>
     <use style="stroke:#000000;" x="348.39237325" xlink:href="#m86301a9979" y="73.3887704103"/>
     <use style="stroke:#000000;" x="497.024784794" xlink:href="#m86301a9979" y="139.224269198"/>
     <use style="stroke:#000000;" x="423.357500412" xlink:href="#m86301a9979" y="87.6960263856"/>
     <use style="stroke:#000000;" x="473.398304989" xlink:href="#m86301a9979" y="107.684722822"/>
     <use style="stroke:#000000;" x="471.606376034" xlink:href="#m86301a9979" y="112.293259278"/>
     <use style="stroke:#000000;" x="321.51593949" xlink:href="#m86301a9979" y="72.3448649396"/>
     <use style="stroke:#000000;" x="491.66040487" xlink:href="#m86301a9979" y="124.698540224"/>
     <use style="stroke:#000000;" x="270.723379144" xlink:href="#m86301a9979" y="68.6256490868"/>
     <use style="stroke:#000000;" x="372.633805129" xlink:href="#m86301a9979" y="80.4110586066"/>
     <use style="stroke:#000000;" x="299.220680286" xlink:href="#m86301a9979" y="98.929788132"/>
     <use style="stroke:#000000;" x="386.355027244" xlink:href="#m86301a9979" y="79.725654594"/>
     <use style="stroke:#000000;" x="388.37692781" xlink:href="#m86301a9979" y="90.3012401739"/>
     <use style="stroke:#000000;" x="487.960959937" xlink:href="#m86301a9979" y="125.149762927"/>
     <use style="stroke:#000000;" x="435.272619626" xlink:href="#m86301a9979" y="103.741882701"/>
     <use style="stroke:#000000;" x="461.275143932" xlink:href="#m86301a9979" y="111.212489677"/>
     <use style="stroke:#000000;" x="320.859853159" xlink:href="#m86301a9979" y="71.8188626606"/>
     <use style="stroke:#000000;" x="433.423717486" xlink:href="#m86301a9979" y="92.5814149777"/>
     <use style="stroke:#000000;" x="424.039462978" xlink:href="#m86301a9979" y="95.8696311303"/>
     <use style="stroke:#000000;" x="488.265835391" xlink:href="#m86301a9979" y="126.012330518"/>
     <use style="stroke:#000000;" x="465.201283926" xlink:href="#m86301a9979" y="112.99766185"/>
     <use style="stroke:#000000;" x="471.861204214" xlink:href="#m86301a9979" y="108.505536948"/>
     <use style="stroke:#000000;" x="308.825497011" xlink:href="#m86301a9979" y="75.9397025506"/>
     <use style="stroke:#000000;" x="246.380894405" xlink:href="#m86301a9979" y="71.589237665"/>
     <use style="stroke:#000000;" x="291.18518935" xlink:href="#m86301a9979" y="77.6535700242"/>
     <use style="stroke:#000000;" x="296.372314859" xlink:href="#m86301a9979" y="72.9699470135"/>
     <use style="stroke:#000000;" x="305.020066039" xlink:href="#m86301a9979" y="69.5480938062"/>
     <use style="stroke:#000000;" x="451.877216129" xlink:href="#m86301a9979" y="97.0051022553"/>
     <use style="stroke:#000000;" x="391.043708184" xlink:href="#m86301a9979" y="80.7105608222"/>
     <use style="stroke:#000000;" x="336.762648135" xlink:href="#m86301a9979" y="77.3354631396"/>
     <use style="stroke:#000000;" x="368.395634437" xlink:href="#m86301a9979" y="88.9152339343"/>
     <use style="stroke:#000000;" x="295.08681073" xlink:href="#m86301a9979" y="86.8742826056"/>
     <use style="stroke:#000000;" x="450.36654703" xlink:href="#m86301a9979" y="106.539796604"/>
     <use style="stroke:#000000;" x="451.410041558" xlink:href="#m86301a9979" y="96.8183521426"/>
     <use style="stroke:#000000;" x="435.143857982" xlink:href="#m86301a9979" y="93.4978204968"/>
     <use style="stroke:#000000;" x="441.699542362" xlink:href="#m86301a9979" y="101.635794056"/>
     <use style="stroke:#000000;" x="432.844446149" xlink:href="#m86301a9979" y="103.409087316"/>
     <use style="stroke:#000000;" x="274.42698772" xlink:href="#m86301a9979" y="80.4950936606"/>
     <use style="stroke:#000000;" x="419.451929663" xlink:href="#m86301a9979" y="93.5846619581"/>
     <use style="stroke:#000000;" x="388.027022775" xlink:href="#m86301a9979" y="88.2218713361"/>
     <use style="stroke:#000000;" x="401.261868215" xlink:href="#m86301a9979" y="92.4707357108"/>
     <use style="stroke:#000000;" x="461.388419874" xlink:href="#m86301a9979" y="106.386716754"/>
     <use style="stroke:#000000;" x="359.241072516" xlink:href="#m86301a9979" y="85.9255925759"/>
     <use style="stroke:#000000;" x="333.13482297" xlink:href="#m86301a9979" y="76.0482212474"/>
     <use style="stroke:#000000;" x="279.208240566" xlink:href="#m86301a9979" y="73.5563232508"/>
     <use style="stroke:#000000;" x="431.583706281" xlink:href="#m86301a9979" y="90.1612821365"/>
     <use style="stroke:#000000;" x="494.926759095" xlink:href="#m86301a9979" y="132.783749206"/>
     <use style="stroke:#000000;" x="463.788668806" xlink:href="#m86301a9979" y="102.736810305"/>
     <use style="stroke:#000000;" x="479.668088995" xlink:href="#m86301a9979" y="111.960131136"/>
     <use style="stroke:#000000;" x="453.119554989" xlink:href="#m86301a9979" y="111.691217"/>
     <use style="stroke:#000000;" x="421.321655792" xlink:href="#m86301a9979" y="90.2624345884"/>
     <use style="stroke:#000000;" x="345.265527612" xlink:href="#m86301a9979" y="73.3034646241"/>
     <use style="stroke:#000000;" x="469.674629891" xlink:href="#m86301a9979" y="105.491455136"/>
     <use style="stroke:#000000;" x="375.09288653" xlink:href="#m86301a9979" y="82.8222767554"/>
     <use style="stroke:#000000;" x="387.056085768" xlink:href="#m86301a9979" y="93.6009588832"/>
     <use style="stroke:#000000;" x="422.608590395" xlink:href="#m86301a9979" y="89.9529094705"/>
     <use style="stroke:#000000;" x="294.404111996" xlink:href="#m86301a9979" y="69.6107957929"/>
     <use style="stroke:#000000;" x="447.199392725" xlink:href="#m86301a9979" y="95.3183893912"/>
     <use style="stroke:#000000;" x="440.534278258" xlink:href="#m86301a9979" y="107.491099868"/>
     <use style="stroke:#000000;" x="431.955609987" xlink:href="#m86301a9979" y="90.296727619"/>
     <use style="stroke:#000000;" x="425.260829647" xlink:href="#m86301a9979" y="89.1475920554"/>
     <use style="stroke:#000000;" x="333.804316233" xlink:href="#m86301a9979" y="96.8330577754"/>
     <use style="stroke:#000000;" x="317.346757646" xlink:href="#m86301a9979" y="78.1363426104"/>
     <use style="stroke:#000000;" x="487.181889795" xlink:href="#m86301a9979" y="120.920884705"/>
     <use style="stroke:#000000;" x="458.608648071" xlink:href="#m86301a9979" y="111.581871533"/>
    </g>
   </g>
   <g id="PathCollection_2">
    <defs>
     <path d="M 0 1.936492 
C 0.513564 1.936492 1.006162 1.732451 1.369306 1.369306 
C 1.732451 1.006162 1.936492 0.513564 1.936492 0 
C 1.936492 -0.513564 1.732451 -1.006162 1.369306 -1.369306 
C 1.006162 -1.732451 0.513564 -1.936492 0 -1.936492 
C -0.513564 -1.936492 -1.006162 -1.732451 -1.369306 -1.369306 
C -1.732451 -1.006162 -1.936492 -0.513564 -1.936492 0 
C -1.936492 0.513564 -1.732451 1.006162 -1.369306 1.369306 
C -1.006162 1.732451 -0.513564 1.936492 0 1.936492 
z
" id="m1ec45a28cb" style="stroke:#000000;"/>
    </defs>
    <g clip-path="url(#p8f661fbca1)">
     <use style="fill:#0000ff;stroke:#000000;" x="405.35576663" xlink:href="#m1ec45a28cb" y="83.2462564418"/>
     <use style="fill:#0000ff;stroke:#000000;" x="489.398494285" xlink:href="#m1ec45a28cb" y="123.986850257"/>
     <use style="fill:#0000ff;stroke:#000000;" x="496.41441129" xlink:href="#m1ec45a28cb" y="135.853337275"/>
     <use style="fill:#0000ff;stroke:#000000;" x="331.191289569" xlink:href="#m1ec45a28cb" y="71.4592719592"/>
     <use style="fill:#0000ff;stroke:#000000;" x="460.324113474" xlink:href="#m1ec45a28cb" y="100.76094963"/>
     <use style="fill:#0000ff;stroke:#000000;" x="482.853347751" xlink:href="#m1ec45a28cb" y="114.997576065"/>
     <use style="fill:#0000ff;stroke:#000000;" x="390.101360585" xlink:href="#m1ec45a28cb" y="80.2002125168"/>
     <use style="fill:#0000ff;stroke:#000000;" x="488.424851189" xlink:href="#m1ec45a28cb" y="120.345734554"/>
     <use style="fill:#0000ff;stroke:#000000;" x="394.98585919" xlink:href="#m1ec45a28cb" y="81.0549523993"/>
     <use style="fill:#0000ff;stroke:#000000;" x="483.880397996" xlink:href="#m1ec45a28cb" y="116.279288447"/>
     <use style="fill:#0000ff;stroke:#000000;" x="495.44037475" xlink:href="#m1ec45a28cb" y="132.92721499"/>
     <use style="fill:#0000ff;stroke:#000000;" x="459.448244931" xlink:href="#m1ec45a28cb" y="100.319740373"/>
     <use style="fill:#0000ff;stroke:#000000;" x="448.983068843" xlink:href="#m1ec45a28cb" y="95.9571402939"/>
     <use style="fill:#0000ff;stroke:#000000;" x="495.012093195" xlink:href="#m1ec45a28cb" y="131.908702625"/>
     <use style="fill:#0000ff;stroke:#000000;" x="351.915063774" xlink:href="#m1ec45a28cb" y="73.9454560424"/>
     <use style="fill:#0000ff;stroke:#000000;" x="479.128641747" xlink:href="#m1ec45a28cb" y="112.031197585"/>
     <use style="fill:#0000ff;stroke:#000000;" x="421.819691529" xlink:href="#m1ec45a28cb" y="87.2708448963"/>
     <use style="fill:#0000ff;stroke:#000000;" x="438.804267249" xlink:href="#m1ec45a28cb" y="92.3249584203"/>
     <use style="fill:#0000ff;stroke:#000000;" x="433.094643543" xlink:href="#m1ec45a28cb" y="90.4673498126"/>
     <use style="fill:#0000ff;stroke:#000000;" x="460.820897041" xlink:href="#m1ec45a28cb" y="100.873691661"/>
     <use style="fill:#0000ff;stroke:#000000;" x="385.700564853" xlink:href="#m1ec45a28cb" y="79.3132433999"/>
     <use style="fill:#0000ff;stroke:#000000;" x="493.389988234" xlink:href="#m1ec45a28cb" y="127.994301578"/>
     <use style="fill:#0000ff;stroke:#000000;" x="396.718439807" xlink:href="#m1ec45a28cb" y="81.3979880395"/>
     <use style="fill:#0000ff;stroke:#000000;" x="493.888080963" xlink:href="#m1ec45a28cb" y="128.753281148"/>
     <use style="fill:#0000ff;stroke:#000000;" x="322.64872504" xlink:href="#m1ec45a28cb" y="70.683181079"/>
     <use style="fill:#0000ff;stroke:#000000;" x="482.037570115" xlink:href="#m1ec45a28cb" y="114.10478944"/>
     <use style="fill:#0000ff;stroke:#000000;" x="222.853229441" xlink:href="#m1ec45a28cb" y="66.4518027814"/>
     <use style="fill:#0000ff;stroke:#000000;" x="405.000491243" xlink:href="#m1ec45a28cb" y="83.1621398844"/>
     <use style="fill:#0000ff;stroke:#000000;" x="406.864518265" xlink:href="#m1ec45a28cb" y="83.660547499"/>
     <use style="fill:#0000ff;stroke:#000000;" x="385.487360306" xlink:href="#m1ec45a28cb" y="79.2158665574"/>
     <use style="fill:#0000ff;stroke:#000000;" x="433.908313466" xlink:href="#m1ec45a28cb" y="90.7907691735"/>
     <use style="fill:#0000ff;stroke:#000000;" x="345.821527269" xlink:href="#m1ec45a28cb" y="73.1295519317"/>
     <use style="fill:#0000ff;stroke:#000000;" x="445.778006623" xlink:href="#m1ec45a28cb" y="94.7345568303"/>
     <use style="fill:#0000ff;stroke:#000000;" x="430.470569531" xlink:href="#m1ec45a28cb" y="89.6806021417"/>
     <use style="fill:#0000ff;stroke:#000000;" x="433.613174366" xlink:href="#m1ec45a28cb" y="90.751312347"/>
     <use style="fill:#0000ff;stroke:#000000;" x="475.618507333" xlink:href="#m1ec45a28cb" y="109.079358032"/>
     <use style="fill:#0000ff;stroke:#000000;" x="462.579300351" xlink:href="#m1ec45a28cb" y="101.907233575"/>
     <use style="fill:#0000ff;stroke:#000000;" x="443.435575444" xlink:href="#m1ec45a28cb" y="94.0318259709"/>
     <use style="fill:#0000ff;stroke:#000000;" x="480.114089153" xlink:href="#m1ec45a28cb" y="112.494935741"/>
     <use style="fill:#0000ff;stroke:#000000;" x="496.046729035" xlink:href="#m1ec45a28cb" y="133.827541138"/>
     <use style="fill:#0000ff;stroke:#000000;" x="429.043205014" xlink:href="#m1ec45a28cb" y="89.2628878143"/>
     <use style="fill:#0000ff;stroke:#000000;" x="402.654890163" xlink:href="#m1ec45a28cb" y="82.6473572758"/>
     <use style="fill:#0000ff;stroke:#000000;" x="400.110280945" xlink:href="#m1ec45a28cb" y="82.256603974"/>
     <use style="fill:#0000ff;stroke:#000000;" x="444.96444758" xlink:href="#m1ec45a28cb" y="94.4811978577"/>
     <use style="fill:#0000ff;stroke:#000000;" x="469.465199317" xlink:href="#m1ec45a28cb" y="105.409954747"/>
     <use style="fill:#0000ff;stroke:#000000;" x="473.015307606" xlink:href="#m1ec45a28cb" y="107.408946152"/>
     <use style="fill:#0000ff;stroke:#000000;" x="467.055210234" xlink:href="#m1ec45a28cb" y="104.003666147"/>
     <use style="fill:#0000ff;stroke:#000000;" x="494.844243139" xlink:href="#m1ec45a28cb" y="130.343664566"/>
     <use style="fill:#0000ff;stroke:#000000;" x="437.360999571" xlink:href="#m1ec45a28cb" y="91.8035320907"/>
     <use style="fill:#0000ff;stroke:#000000;" x="375.175285296" xlink:href="#m1ec45a28cb" y="77.4187442337"/>
     <use style="fill:#0000ff;stroke:#000000;" x="470.700381164" xlink:href="#m1ec45a28cb" y="106.023862735"/>
     <use style="fill:#0000ff;stroke:#000000;" x="455.999209557" xlink:href="#m1ec45a28cb" y="98.9082898096"/>
     <use style="fill:#0000ff;stroke:#000000;" x="388.809665089" xlink:href="#m1ec45a28cb" y="79.8379802703"/>
     <use style="fill:#0000ff;stroke:#000000;" x="416.877716377" xlink:href="#m1ec45a28cb" y="86.1005290887"/>
     <use style="fill:#0000ff;stroke:#000000;" x="425.86243781" xlink:href="#m1ec45a28cb" y="88.3650900356"/>
     <use style="fill:#0000ff;stroke:#000000;" x="422.022932406" xlink:href="#m1ec45a28cb" y="87.3714658421"/>
     <use style="fill:#0000ff;stroke:#000000;" x="348.39237325" xlink:href="#m1ec45a28cb" y="73.3887704103"/>
     <use style="fill:#0000ff;stroke:#000000;" x="497.024784794" xlink:href="#m1ec45a28cb" y="139.224269198"/>
     <use style="fill:#0000ff;stroke:#000000;" x="423.357500412" xlink:href="#m1ec45a28cb" y="87.6960263856"/>
     <use style="fill:#0000ff;stroke:#000000;" x="473.398304989" xlink:href="#m1ec45a28cb" y="107.684722822"/>
    </g>
   </g>
   <g id="patch_3">
    <path d="M 72 388.8 
L 518.4 388.8 
" style="fill:none;stroke:#000000;stroke-linecap:square;stroke-linejoin:miter;"/>
   </g>
   <g id="patch_4">
    <path d="M 72 43.2 
L 518.4 43.2 
" style="fill:none;stroke:#000000;stroke-linecap:square;stroke-linejoin:miter;"/>
   </g>
   <g id="patch_5">
    <path d="M 72 388.8 
L 72 43.2 
" style="fill:none;stroke:#000000;stroke-linecap:square;stroke-linejoin:miter;"/>
   </g>
   <g id="patch_6">
    <path d="M 518.4 388.8 
L 518.4 43.2 
" style="fill:none;stroke:#000000;stroke-linecap:square;stroke-linejoin:miter;"/>
   </g>
   <g id="matplotlib.axis_1">
    <g id="xtick_1">
     <g id="line2d_1">
      <defs>
       <path d="M 0 0 
L 0 -4 
" id="me5354fc5a6" style="stroke:#000000;stroke-width:0.5;"/>
      </defs>
      <g>
       <use style="stroke:#000000;stroke-width:0.5;" x="72.0" xlink:href="#me5354fc5a6" y="388.8"/>
      </g>
     </g>
     <g id="line2d_2">
      <defs>
       <path d="M 0 0 
L 0 4 
" id="md0fa22fab0" style="stroke:#000000;stroke-width:0.5;"/>
      </defs>
      <g>
       <use style="stroke:#000000;stroke-width:0.5;" x="72.0" xlink:href="#md0fa22fab0" y="43.2"/>
      </g>
     </g>
     <g id="text_1">
      <!-- −200 -->
      <defs>
       <path d="M 10.59375 35.5 
L 73.1875 35.5 
L 73.1875 27.203125 
L 10.59375 27.203125 
z
" id="BitstreamVeraSans-Roman-2212"/>
       <path d="M 19.1875 8.296875 
L 53.609375 8.296875 
L 53.609375 0 
L 7.328125 0 
L 7.328125 8.296875 
Q 12.9375 14.109375 22.625 23.890625 
Q 32.328125 33.6875 34.8125 36.53125 
Q 39.546875 41.84375 41.421875 45.53125 
Q 43.3125 49.21875 43.3125 52.78125 
Q 43.3125 58.59375 39.234375 62.25 
Q 35.15625 65.921875 28.609375 65.921875 
Q 23.96875 65.921875 18.8125 64.3125 
Q 13.671875 62.703125 7.8125 59.421875 
L 7.8125 69.390625 
Q 13.765625 71.78125 18.9375 73 
Q 24.125 74.21875 28.421875 74.21875 
Q 39.75 74.21875 46.484375 68.546875 
Q 53.21875 62.890625 53.21875 53.421875 
Q 53.21875 48.921875 51.53125 44.890625 
Q 49.859375 40.875 45.40625 35.40625 
Q 44.1875 33.984375 37.640625 27.21875 
Q 31.109375 20.453125 19.1875 8.296875 
" id="BitstreamVeraSans-Roman-32"/>
       <path d="M 31.78125 66.40625 
Q 24.171875 66.40625 20.328125 58.90625 
Q 16.5 51.421875 16.5 36.375 
Q 16.5 21.390625 20.328125 13.890625 
Q 24.171875 6.390625 31.78125 6.390625 
Q 39.453125 6.390625 43.28125 13.890625 
Q 47.125 21.390625 47.125 36.375 
Q 47.125 51.421875 43.28125 58.90625 
Q 39.453125 66.40625 31.78125 66.40625 
M 31.78125 74.21875 
Q 44.046875 74.21875 50.515625 64.515625 
Q 56.984375 54.828125 56.984375 36.375 
Q 56.984375 17.96875 50.515625 8.265625 
Q 44.046875 -1.421875 31.78125 -1.421875 
Q 19.53125 -1.421875 13.0625 8.265625 
Q 6.59375 17.96875 6.59375 36.375 
Q 6.59375 54.828125 13.0625 64.515625 
Q 19.53125 74.21875 31.78125 74.21875 
" id="BitstreamVeraSans-Roman-30"/>
      </defs>
      <g transform="translate(55.5196875 401.918125)scale(0.12 -0.12)">
       <use xlink:href="#BitstreamVeraSans-Roman-2212"/>
       <use x="83.7890625" xlink:href="#BitstreamVeraSans-Roman-32"/>
       <use x="147.412109375" xlink:href="#BitstreamVeraSans-Roman-30"/>
       <use x="211.03515625" xlink:href="#BitstreamVeraSans-Roman-30"/>
      </g>
     </g>
    </g>
    <g id="xtick_2">
     <g id="line2d_3">
      <g>
       <use style="stroke:#000000;stroke-width:0.5;" x="178.285714286" xlink:href="#me5354fc5a6" y="388.8"/>
      </g>
     </g>
     <g id="line2d_4">
      <g>
       <use style="stroke:#000000;stroke-width:0.5;" x="178.285714286" xlink:href="#md0fa22fab0" y="43.2"/>
      </g>
     </g>
     <g id="text_2">
      <!-- −150 -->
      <defs>
       <path d="M 12.40625 8.296875 
L 28.515625 8.296875 
L 28.515625 63.921875 
L 10.984375 60.40625 
L 10.984375 69.390625 
L 28.421875 72.90625 
L 38.28125 72.90625 
L 38.28125 8.296875 
L 54.390625 8.296875 
L 54.390625 0 
L 12.40625 0 
z
" id="BitstreamVeraSans-Roman-31"/>
       <path d="M 10.796875 72.90625 
L 49.515625 72.90625 
L 49.515625 64.59375 
L 19.828125 64.59375 
L 19.828125 46.734375 
Q 21.96875 47.46875 24.109375 47.828125 
Q 26.265625 48.1875 28.421875 48.1875 
Q 40.625 48.1875 47.75 41.5 
Q 54.890625 34.8125 54.890625 23.390625 
Q 54.890625 11.625 47.5625 5.09375 
Q 40.234375 -1.421875 26.90625 -1.421875 
Q 22.3125 -1.421875 17.546875 -0.640625 
Q 12.796875 0.140625 7.71875 1.703125 
L 7.71875 11.625 
Q 12.109375 9.234375 16.796875 8.0625 
Q 21.484375 6.890625 26.703125 6.890625 
Q 35.15625 6.890625 40.078125 11.328125 
Q 45.015625 15.765625 45.015625 23.390625 
Q 45.015625 31 40.078125 35.4375 
Q 35.15625 39.890625 26.703125 39.890625 
Q 22.75 39.890625 18.8125 39.015625 
Q 14.890625 38.140625 10.796875 36.28125 
z
" id="BitstreamVeraSans-Roman-35"/>
      </defs>
      <g transform="translate(161.805401786 401.918125)scale(0.12 -0.12)">
       <use xlink:href="#BitstreamVeraSans-Roman-2212"/>
       <use x="83.7890625" xlink:href="#BitstreamVeraSans-Roman-31"/>
       <use x="147.412109375" xlink:href="#BitstreamVeraSans-Roman-35"/>
       <use x="211.03515625" xlink:href="#BitstreamVeraSans-Roman-30"/>
      </g>
     </g>
    </g>
    <g id="xtick_3">
     <g id="line2d_5">
      <g>
       <use style="stroke:#000000;stroke-width:0.5;" x="284.571428571" xlink:href="#me5354fc5a6" y="388.8"/>
      </g>
     </g>
     <g id="line2d_6">
      <g>
       <use style="stroke:#000000;stroke-width:0.5;" x="284.571428571" xlink:href="#md0fa22fab0" y="43.2"/>
      </g>
     </g>
     <g id="text_3">
      <!-- −100 -->
      <g transform="translate(268.091116071 401.918125)scale(0.12 -0.12)">
       <use xlink:href="#BitstreamVeraSans-Roman-2212"/>
       <use x="83.7890625" xlink:href="#BitstreamVeraSans-Roman-31"/>
       <use x="147.412109375" xlink:href="#BitstreamVeraSans-Roman-30"/>
       <use x="211.03515625" xlink:href="#BitstreamVeraSans-Roman-30"/>
      </g>
     </g>
    </g>
    <g id="xtick_4">
     <g id="line2d_7">
      <g>
       <use style="stroke:#000000;stroke-width:0.5;" x="390.857142857" xlink:href="#me5354fc5a6" y="388.8"/>
      </g>
     </g>
     <g id="line2d_8">
      <g>
       <use style="stroke:#000000;stroke-width:0.5;" x="390.857142857" xlink:href="#md0fa22fab0" y="43.2"/>
      </g>
     </g>
     <g id="text_4">
      <!-- −50 -->
      <g transform="translate(378.194330357 401.918125)scale(0.12 -0.12)">
       <use xlink:href="#BitstreamVeraSans-Roman-2212"/>
       <use x="83.7890625" xlink:href="#BitstreamVeraSans-Roman-35"/>
       <use x="147.412109375" xlink:href="#BitstreamVeraSans-Roman-30"/>
      </g>
     </g>
    </g>
    <g id="xtick_5">
     <g id="line2d_9">
      <g>
       <use style="stroke:#000000;stroke-width:0.5;" x="497.142857143" xlink:href="#me5354fc5a6" y="388.8"/>
      </g>
     </g>
     <g id="line2d_10">
      <g>
       <use style="stroke:#000000;stroke-width:0.5;" x="497.142857143" xlink:href="#md0fa22fab0" y="43.2"/>
      </g>
     </g>
     <g id="text_5">
      <!-- 0 -->
      <g transform="translate(493.325357143 401.918125)scale(0.12 -0.12)">
       <use xlink:href="#BitstreamVeraSans-Roman-30"/>
      </g>
     </g>
    </g>
   </g>
   <g id="matplotlib.axis_2">
    <g id="ytick_1">
     <g id="line2d_11">
      <defs>
       <path d="M 0 0 
L 4 0 
" id="ma18bfb6aba" style="stroke:#000000;stroke-width:0.5;"/>
      </defs>
      <g>
       <use style="stroke:#000000;stroke-width:0.5;" x="72.0" xlink:href="#ma18bfb6aba" y="388.8"/>
      </g>
     </g>
     <g id="line2d_12">
      <defs>
       <path d="M 0 0 
L -4 0 
" id="mded242a9e8" style="stroke:#000000;stroke-width:0.5;"/>
      </defs>
      <g>
       <use style="stroke:#000000;stroke-width:0.5;" x="518.4" xlink:href="#mded242a9e8" y="388.8"/>
      </g>
     </g>
     <g id="text_6">
      <!-- −200 -->
      <g transform="translate(35.039375 392.11125)scale(0.12 -0.12)">
       <use xlink:href="#BitstreamVeraSans-Roman-2212"/>
       <use x="83.7890625" xlink:href="#BitstreamVeraSans-Roman-32"/>
       <use x="147.412109375" xlink:href="#BitstreamVeraSans-Roman-30"/>
       <use x="211.03515625" xlink:href="#BitstreamVeraSans-Roman-30"/>
      </g>
     </g>
    </g>
    <g id="ytick_2">
     <g id="line2d_13">
      <g>
       <use style="stroke:#000000;stroke-width:0.5;" x="72.0" xlink:href="#ma18bfb6aba" y="306.514285714"/>
      </g>
     </g>
     <g id="line2d_14">
      <g>
       <use style="stroke:#000000;stroke-width:0.5;" x="518.4" xlink:href="#mded242a9e8" y="306.514285714"/>
      </g>
     </g>
     <g id="text_7">
      <!-- −150 -->
      <g transform="translate(35.039375 309.825535714)scale(0.12 -0.12)">
       <use xlink:href="#BitstreamVeraSans-Roman-2212"/>
       <use x="83.7890625" xlink:href="#BitstreamVeraSans-Roman-31"/>
       <use x="147.412109375" xlink:href="#BitstreamVeraSans-Roman-35"/>
       <use x="211.03515625" xlink:href="#BitstreamVeraSans-Roman-30"/>
      </g>
     </g>
    </g>
    <g id="ytick_3">
     <g id="line2d_15">
      <g>
       <use style="stroke:#000000;stroke-width:0.5;" x="72.0" xlink:href="#ma18bfb6aba" y="224.228571429"/>
      </g>
     </g>
     <g id="line2d_16">
      <g>
       <use style="stroke:#000000;stroke-width:0.5;" x="518.4" xlink:href="#mded242a9e8" y="224.228571429"/>
      </g>
     </g>
     <g id="text_8">
      <!-- −100 -->
      <g transform="translate(35.039375 227.539821429)scale(0.12 -0.12)">
       <use xlink:href="#BitstreamVeraSans-Roman-2212"/>
       <use x="83.7890625" xlink:href="#BitstreamVeraSans-Roman-31"/>
       <use x="147.412109375" xlink:href="#BitstreamVeraSans-Roman-30"/>
       <use x="211.03515625" xlink:href="#BitstreamVeraSans-Roman-30"/>
      </g>
     </g>
    </g>
    <g id="ytick_4">
     <g id="line2d_17">
      <g>
       <use style="stroke:#000000;stroke-width:0.5;" x="72.0" xlink:href="#ma18bfb6aba" y="141.942857143"/>
      </g>
     </g>
     <g id="line2d_18">
      <g>
       <use style="stroke:#000000;stroke-width:0.5;" x="518.4" xlink:href="#mded242a9e8" y="141.942857143"/>
      </g>
     </g>
     <g id="text_9">
      <!-- −50 -->
      <g transform="translate(42.674375 145.254107143)scale(0.12 -0.12)">
       <use xlink:href="#BitstreamVeraSans-Roman-2212"/>
       <use x="83.7890625" xlink:href="#BitstreamVeraSans-Roman-35"/>
       <use x="147.412109375" xlink:href="#BitstreamVeraSans-Roman-30"/>
      </g>
     </g>
    </g>
    <g id="ytick_5">
     <g id="line2d_19">
      <g>
       <use style="stroke:#000000;stroke-width:0.5;" x="72.0" xlink:href="#ma18bfb6aba" y="59.6571428571"/>
      </g>
     </g>
     <g id="line2d_20">
      <g>
       <use style="stroke:#000000;stroke-width:0.5;" x="518.4" xlink:href="#mded242a9e8" y="59.6571428571"/>
      </g>
     </g>
     <g id="text_10">
      <!-- 0 -->
      <g transform="translate(60.365 62.9683928571)scale(0.12 -0.12)">
       <use xlink:href="#BitstreamVeraSans-Roman-30"/>
      </g>
     </g>
    </g>
   </g>
  </g>
 </g>
 <defs>
  <clipPath id="p8f661fbca1">
   <rect height="345.6" width="446.4" x="72.0" y="43.2"/>
  </clipPath>
 </defs>
</svg>
