<?xml version="1.0" encoding="utf-8" standalone="no"?>
<!DOCTYPE svg PUBLIC "-//W3C//DTD SVG 1.1//EN"
  "http://www.w3.org/Graphics/SVG/1.1/DTD/svg11.dtd">
<!-- Created with matplotlib (http://matplotlib.org/) -->
<svg height="432pt" version="1.1" viewBox="0 0 576 432" width="576pt" xmlns="http://www.w3.org/2000/svg" xmlns:xlink="http://www.w3.org/1999/xlink">
 <defs>
  <style type="text/css">
*{stroke-linecap:butt;stroke-linejoin:round;stroke-miterlimit:100000;}
  </style>
 </defs>
 <g id="figure_1">
  <g id="patch_1">
   <path d="M 0 432 
L 576 432 
L 576 0 
L 0 0 
z
" style="fill:#ffffff;"/>
  </g>
  <g id="axes_1">
   <g id="patch_2">
    <path d="M 72 388.8 
L 518.4 388.8 
L 518.4 43.2 
L 72 43.2 
z
" style="fill:#ffffff;"/>
   </g>
   <g id="PathCollection_1">
    <defs>
     <path d="M 0 1.118034 
C 0.296506 1.118034 0.580908 1.000231 0.790569 0.790569 
C 1.000231 0.580908 1.118034 0.296506 1.118034 0 
C 1.118034 -0.296506 1.000231 -0.580908 0.790569 -0.790569 
C 0.580908 -1.000231 0.296506 -1.118034 0 -1.118034 
C -0.296506 -1.118034 -0.580908 -1.000231 -0.790569 -0.790569 
C -1.000231 -0.580908 -1.118034 -0.296506 -1.118034 0 
C -1.118034 0.296506 -1.000231 0.580908 -0.790569 0.790569 
C -0.580908 1.000231 -0.296506 1.118034 0 1.118034 
z
" id="mfb0db285c9" style="stroke:#000000;"/>
    </defs>
    <g clip-path="url(#p216b32de0a)">
     <use style="stroke:#000000;" x="448.605737648" xlink:href="#mfb0db285c9" y="228.003637795"/>
     <use style="stroke:#000000;" x="257.037836602" xlink:href="#mfb0db285c9" y="129.171300444"/>
     <use style="stroke:#000000;" x="352.723127234" xlink:href="#mfb0db285c9" y="160.499193693"/>
     <use style="stroke:#000000;" x="434.570077596" xlink:href="#mfb0db285c9" y="213.63092315"/>
     <use style="stroke:#000000;" x="223.576755699" xlink:href="#mfb0db285c9" y="122.687873729"/>
     <use style="stroke:#000000;" x="443.542099728" xlink:href="#mfb0db285c9" y="222.283904281"/>
     <use style="stroke:#000000;" x="456.338785404" xlink:href="#mfb0db285c9" y="238.318707199"/>
     <use style="stroke:#000000;" x="269.181354516" xlink:href="#mfb0db285c9" y="131.179605662"/>
     <use style="stroke:#000000;" x="432.316327973" xlink:href="#mfb0db285c9" y="211.494407847"/>
     <use style="stroke:#000000;" x="475.965813768" xlink:href="#mfb0db285c9" y="272.647030066"/>
     <use style="stroke:#000000;" x="403.055744022" xlink:href="#mfb0db285c9" y="188.165031709"/>
     <use style="stroke:#000000;" x="352.33018749" xlink:href="#mfb0db285c9" y="160.327151765"/>
     <use style="stroke:#000000;" x="395.485800271" xlink:href="#mfb0db285c9" y="183.813142692"/>
     <use style="stroke:#000000;" x="445.527917889" xlink:href="#mfb0db285c9" y="224.434099293"/>
     <use style="stroke:#000000;" x="485.844201761" xlink:href="#mfb0db285c9" y="309.185058169"/>
     <use style="stroke:#000000;" x="338.322886841" xlink:href="#mfb0db285c9" y="153.706021226"/>
     <use style="stroke:#000000;" x="361.827172561" xlink:href="#mfb0db285c9" y="164.320227822"/>
     <use style="stroke:#000000;" x="472.245883476" xlink:href="#mfb0db285c9" y="265.730052167"/>
     <use style="stroke:#000000;" x="451.715110405" xlink:href="#mfb0db285c9" y="232.335777801"/>
     <use style="stroke:#000000;" x="334.861169005" xlink:href="#mfb0db285c9" y="152.409499246"/>
     <use style="stroke:#000000;" x="334.905305381" xlink:href="#mfb0db285c9" y="152.423607492"/>
     <use style="stroke:#000000;" x="398.602657967" xlink:href="#mfb0db285c9" y="184.994741283"/>
     <use style="stroke:#000000;" x="486.514237188" xlink:href="#mfb0db285c9" y="310.808076691"/>
     <use style="stroke:#000000;" x="189.223120009" xlink:href="#mfb0db285c9" y="117.532736764"/>
     <use style="stroke:#000000;" x="434.002094946" xlink:href="#mfb0db285c9" y="213.04095241"/>
     <use style="stroke:#000000;" x="381.286147412" xlink:href="#mfb0db285c9" y="174.299144693"/>
     <use style="stroke:#000000;" x="386.289194986" xlink:href="#mfb0db285c9" y="180.240964492"/>
     <use style="stroke:#000000;" x="138.601184293" xlink:href="#mfb0db285c9" y="114.19045314"/>
     <use style="stroke:#000000;" x="459.367415269" xlink:href="#mfb0db285c9" y="242.383634722"/>
     <use style="stroke:#000000;" x="445.852753645" xlink:href="#mfb0db285c9" y="224.80112201"/>
     <use style="stroke:#000000;" x="394.696780939" xlink:href="#mfb0db285c9" y="183.526105184"/>
     <use style="stroke:#000000;" x="378.391248427" xlink:href="#mfb0db285c9" y="172.670590558"/>
     <use style="stroke:#000000;" x="427.740422033" xlink:href="#mfb0db285c9" y="206.764706501"/>
     <use style="stroke:#000000;" x="459.176300329" xlink:href="#mfb0db285c9" y="241.805706038"/>
     <use style="stroke:#000000;" x="399.822367878" xlink:href="#mfb0db285c9" y="185.612840249"/>
     <use style="stroke:#000000;" x="453.228028917" xlink:href="#mfb0db285c9" y="234.174231503"/>
     <use style="stroke:#000000;" x="174.766323272" xlink:href="#mfb0db285c9" y="115.827518222"/>
     <use style="stroke:#000000;" x="430.575321573" xlink:href="#mfb0db285c9" y="210.617730882"/>
     <use style="stroke:#000000;" x="487.390698014" xlink:href="#mfb0db285c9" y="319.740522499"/>
     <use style="stroke:#000000;" x="270.846529594" xlink:href="#mfb0db285c9" y="131.674263726"/>
     <use style="stroke:#000000;" x="447.188222401" xlink:href="#mfb0db285c9" y="226.336106284"/>
     <use style="stroke:#000000;" x="341.031189693" xlink:href="#mfb0db285c9" y="154.890775598"/>
     <use style="stroke:#000000;" x="277.016914468" xlink:href="#mfb0db285c9" y="132.814021816"/>
     <use style="stroke:#000000;" x="487.267884766" xlink:href="#mfb0db285c9" y="317.18087422"/>
     <use style="stroke:#000000;" x="433.358056248" xlink:href="#mfb0db285c9" y="212.445934279"/>
     <use style="stroke:#000000;" x="434.310374889" xlink:href="#mfb0db285c9" y="213.327626311"/>
     <use style="stroke:#000000;" x="460.525347999" xlink:href="#mfb0db285c9" y="244.05389884"/>
     <use style="stroke:#000000;" x="221.298847453" xlink:href="#mfb0db285c9" y="122.140735745"/>
     <use style="stroke:#000000;" x="456.568147341" xlink:href="#mfb0db285c9" y="238.521390424"/>
     <use style="stroke:#000000;" x="326.517976837" xlink:href="#mfb0db285c9" y="149.064771596"/>
     <use style="stroke:#000000;" x="421.613421086" xlink:href="#mfb0db285c9" y="201.713610181"/>
     <use style="stroke:#000000;" x="186.07564299" xlink:href="#mfb0db285c9" y="117.143184964"/>
     <use style="stroke:#000000;" x="401.051909591" xlink:href="#mfb0db285c9" y="186.418862474"/>
     <use style="stroke:#000000;" x="94.7082234531" xlink:href="#mfb0db285c9" y="112.396963098"/>
     <use style="stroke:#000000;" x="474.795334618" xlink:href="#mfb0db285c9" y="269.885019412"/>
     <use style="stroke:#000000;" x="220.198040843" xlink:href="#mfb0db285c9" y="121.961911614"/>
     <use style="stroke:#000000;" x="488.003259587" xlink:href="#mfb0db285c9" y="323.688700173"/>
     <use style="stroke:#000000;" x="458.733979554" xlink:href="#mfb0db285c9" y="241.488594281"/>
     <use style="stroke:#000000;" x="452.199392959" xlink:href="#mfb0db285c9" y="232.624673259"/>
     <use style="stroke:#000000;" x="400.44899752" xlink:href="#mfb0db285c9" y="186.022410104"/>
     <use style="stroke:#000000;" x="464.053758377" xlink:href="#mfb0db285c9" y="249.283746266"/>
     <use style="stroke:#000000;" x="120.896589238" xlink:href="#mfb0db285c9" y="113.392870282"/>
     <use style="stroke:#000000;" x="461.056149277" xlink:href="#mfb0db285c9" y="244.834928576"/>
     <use style="stroke:#000000;" x="382.388773693" xlink:href="#mfb0db285c9" y="174.929379182"/>
     <use style="stroke:#000000;" x="392.081739216" xlink:href="#mfb0db285c9" y="180.625576696"/>
     <use style="stroke:#000000;" x="485.328518823" xlink:href="#mfb0db285c9" y="304.004008286"/>
     <use style="stroke:#000000;" x="119.051720089" xlink:href="#mfb0db285c9" y="113.18459851"/>
     <use style="stroke:#000000;" x="484.182853044" xlink:href="#mfb0db285c9" y="299.815320861"/>
     <use style="stroke:#000000;" x="343.916474974" xlink:href="#mfb0db285c9" y="156.263292896"/>
     <use style="stroke:#000000;" x="460.320858106" xlink:href="#mfb0db285c9" y="243.512182387"/>
     <use style="stroke:#000000;" x="241.947687769" xlink:href="#mfb0db285c9" y="125.024186311"/>
     <use style="stroke:#000000;" x="295.643937219" xlink:href="#mfb0db285c9" y="138.640048841"/>
     <use style="stroke:#000000;" x="487.283164558" xlink:href="#mfb0db285c9" y="318.152919428"/>
     <use style="stroke:#000000;" x="444.903471817" xlink:href="#mfb0db285c9" y="224.152668611"/>
     <use style="stroke:#000000;" x="373.936998451" xlink:href="#mfb0db285c9" y="170.426971112"/>
     <use style="stroke:#000000;" x="363.227012407" xlink:href="#mfb0db285c9" y="165.026615789"/>
     <use style="stroke:#000000;" x="183.533249652" xlink:href="#mfb0db285c9" y="116.682700088"/>
     <use style="stroke:#000000;" x="385.958428366" xlink:href="#mfb0db285c9" y="177.126794046"/>
     <use style="stroke:#000000;" x="344.632231372" xlink:href="#mfb0db285c9" y="156.396004252"/>
     <use style="stroke:#000000;" x="357.096087139" xlink:href="#mfb0db285c9" y="162.030529542"/>
     <use style="stroke:#000000;" x="467.928988669" xlink:href="#mfb0db285c9" y="255.926061737"/>
     <use style="stroke:#000000;" x="465.993451695" xlink:href="#mfb0db285c9" y="252.526552074"/>
     <use style="stroke:#000000;" x="459.980673905" xlink:href="#mfb0db285c9" y="243.072460791"/>
     <use style="stroke:#000000;" x="487.059508935" xlink:href="#mfb0db285c9" y="314.961741369"/>
     <use style="stroke:#000000;" x="405.408588134" xlink:href="#mfb0db285c9" y="189.348354186"/>
     <use style="stroke:#000000;" x="222.790190913" xlink:href="#mfb0db285c9" y="122.260036164"/>
     <use style="stroke:#000000;" x="345.52110463" xlink:href="#mfb0db285c9" y="157.361848343"/>
     <use style="stroke:#000000;" x="355.232046119" xlink:href="#mfb0db285c9" y="161.05477916"/>
     <use style="stroke:#000000;" x="469.498301117" xlink:href="#mfb0db285c9" y="258.830187718"/>
     <use style="stroke:#000000;" x="342.339060983" xlink:href="#mfb0db285c9" y="156.022249328"/>
     <use style="stroke:#000000;" x="402.776174222" xlink:href="#mfb0db285c9" y="187.570703187"/>
     <use style="stroke:#000000;" x="279.738853753" xlink:href="#mfb0db285c9" y="133.727518956"/>
     <use style="stroke:#000000;" x="416.348154722" xlink:href="#mfb0db285c9" y="197.349469999"/>
     <use style="stroke:#000000;" x="411.688454661" xlink:href="#mfb0db285c9" y="193.823176511"/>
     <use style="stroke:#000000;" x="454.449758477" xlink:href="#mfb0db285c9" y="236.308423667"/>
     <use style="stroke:#000000;" x="408.802714189" xlink:href="#mfb0db285c9" y="191.76313399"/>
     <use style="stroke:#000000;" x="465.054218251" xlink:href="#mfb0db285c9" y="251.28492297"/>
     <use style="stroke:#000000;" x="234.431999221" xlink:href="#mfb0db285c9" y="123.364215075"/>
     <use style="stroke:#000000;" x="203.263322433" xlink:href="#mfb0db285c9" y="119.825631202"/>
     <use style="stroke:#000000;" x="362.812926548" xlink:href="#mfb0db285c9" y="164.621666772"/>
     <use style="stroke:#000000;" x="419.293790183" xlink:href="#mfb0db285c9" y="200.161334501"/>
     <use style="stroke:#000000;" x="203.596471085" xlink:href="#mfb0db285c9" y="119.871999667"/>
     <use style="stroke:#000000;" x="301.645342705" xlink:href="#mfb0db285c9" y="141.684196095"/>
     <use style="stroke:#000000;" x="429.51161825" xlink:href="#mfb0db285c9" y="210.959652279"/>
     <use style="stroke:#000000;" x="165.972125289" xlink:href="#mfb0db285c9" y="115.115272677"/>
     <use style="stroke:#000000;" x="412.607580555" xlink:href="#mfb0db285c9" y="195.114556995"/>
     <use style="stroke:#000000;" x="430.348863448" xlink:href="#mfb0db285c9" y="209.098605307"/>
     <use style="stroke:#000000;" x="218.174206544" xlink:href="#mfb0db285c9" y="120.870721571"/>
     <use style="stroke:#000000;" x="427.177620874" xlink:href="#mfb0db285c9" y="208.856419454"/>
     <use style="stroke:#000000;" x="473.588734561" xlink:href="#mfb0db285c9" y="268.863666049"/>
     <use style="stroke:#000000;" x="399.054779399" xlink:href="#mfb0db285c9" y="185.055168556"/>
     <use style="stroke:#000000;" x="301.182094925" xlink:href="#mfb0db285c9" y="141.541314181"/>
     <use style="stroke:#000000;" x="352.256458151" xlink:href="#mfb0db285c9" y="161.743030729"/>
     <use style="stroke:#000000;" x="435.389319873" xlink:href="#mfb0db285c9" y="216.849597887"/>
     <use style="stroke:#000000;" x="476.183911078" xlink:href="#mfb0db285c9" y="273.192298145"/>
     <use style="stroke:#000000;" x="285.412644852" xlink:href="#mfb0db285c9" y="135.651029025"/>
     <use style="stroke:#000000;" x="313.641343389" xlink:href="#mfb0db285c9" y="144.305801735"/>
     <use style="stroke:#000000;" x="451.509180897" xlink:href="#mfb0db285c9" y="234.331195695"/>
     <use style="stroke:#000000;" x="449.626570414" xlink:href="#mfb0db285c9" y="229.556208025"/>
     <use style="stroke:#000000;" x="281.203217697" xlink:href="#mfb0db285c9" y="134.664616901"/>
     <use style="stroke:#000000;" x="281.259212476" xlink:href="#mfb0db285c9" y="134.673806915"/>
     <use style="stroke:#000000;" x="356.424316562" xlink:href="#mfb0db285c9" y="162.488730406"/>
     <use style="stroke:#000000;" x="476.530609379" xlink:href="#mfb0db285c9" y="274.949419623"/>
     <use style="stroke:#000000;" x="143.769997129" xlink:href="#mfb0db285c9" y="116.179184204"/>
     <use style="stroke:#000000;" x="428.961347964" xlink:href="#mfb0db285c9" y="210.362335397"/>
     <use style="stroke:#000000;" x="336.303826955" xlink:href="#mfb0db285c9" y="152.956074438"/>
     <use style="stroke:#000000;" x="378.323543157" xlink:href="#mfb0db285c9" y="178.775441654"/>
     <use style="stroke:#000000;" x="103.50623741" xlink:href="#mfb0db285c9" y="116.956511172"/>
     <use style="stroke:#000000;" x="449.437426608" xlink:href="#mfb0db285c9" y="234.712613308"/>
     <use style="stroke:#000000;" x="415.782621957" xlink:href="#mfb0db285c9" y="197.273273003"/>
     <use style="stroke:#000000;" x="374.303009345" xlink:href="#mfb0db285c9" y="171.112887554"/>
     <use style="stroke:#000000;" x="372.903210646" xlink:href="#mfb0db285c9" y="170.177485857"/>
     <use style="stroke:#000000;" x="392.639108597" xlink:href="#mfb0db285c9" y="181.323522734"/>
     <use style="stroke:#000000;" x="455.922718064" xlink:href="#mfb0db285c9" y="238.385868635"/>
     <use style="stroke:#000000;" x="385.652701654" xlink:href="#mfb0db285c9" y="179.700210451"/>
     <use style="stroke:#000000;" x="425.0264715" xlink:href="#mfb0db285c9" y="205.871397775"/>
     <use style="stroke:#000000;" x="161.566274405" xlink:href="#mfb0db285c9" y="116.532943465"/>
     <use style="stroke:#000000;" x="395.442226341" xlink:href="#mfb0db285c9" y="185.189728505"/>
     <use style="stroke:#000000;" x="479.787821581" xlink:href="#mfb0db285c9" y="282.894457026"/>
     <use style="stroke:#000000;" x="261.904915725" xlink:href="#mfb0db285c9" y="130.613517771"/>
     <use style="stroke:#000000;" x="417.612804321" xlink:href="#mfb0db285c9" y="198.603076517"/>
     <use style="stroke:#000000;" x="335.228432629" xlink:href="#mfb0db285c9" y="152.528199632"/>
     <use style="stroke:#000000;" x="269.380799129" xlink:href="#mfb0db285c9" y="131.211824859"/>
     <use style="stroke:#000000;" x="481.763882415" xlink:href="#mfb0db285c9" y="294.216197852"/>
     <use style="stroke:#000000;" x="420.399026034" xlink:href="#mfb0db285c9" y="206.03119738"/>
     <use style="stroke:#000000;" x="400.409819778" xlink:href="#mfb0db285c9" y="187.388432179"/>
     <use style="stroke:#000000;" x="435.016299995" xlink:href="#mfb0db285c9" y="214.634356139"/>
     <use style="stroke:#000000;" x="209.875284493" xlink:href="#mfb0db285c9" y="122.109369598"/>
     <use style="stroke:#000000;" x="429.553567209" xlink:href="#mfb0db285c9" y="209.726261969"/>
     <use style="stroke:#000000;" x="320.333078654" xlink:href="#mfb0db285c9" y="146.860687339"/>
    </g>
   </g>
   <g id="PathCollection_2">
    <defs>
     <path d="M 0 1.936492 
C 0.513564 1.936492 1.006162 1.732451 1.369306 1.369306 
C 1.732451 1.006162 1.936492 0.513564 1.936492 0 
C 1.936492 -0.513564 1.732451 -1.006162 1.369306 -1.369306 
C 1.006162 -1.732451 0.513564 -1.936492 0 -1.936492 
C -0.513564 -1.936492 -1.006162 -1.732451 -1.369306 -1.369306 
C -1.732451 -1.006162 -1.936492 -0.513564 -1.936492 0 
C -1.936492 0.513564 -1.732451 1.006162 -1.369306 1.369306 
C -1.006162 1.732451 -0.513564 1.936492 0 1.936492 
z
" id="m4bd4cdeb0a" style="stroke:#000000;"/>
    </defs>
    <g clip-path="url(#p216b32de0a)">
     <use style="fill:#0000ff;stroke:#000000;" x="448.605737648" xlink:href="#m4bd4cdeb0a" y="228.003637795"/>
     <use style="fill:#0000ff;stroke:#000000;" x="257.037836602" xlink:href="#m4bd4cdeb0a" y="129.171300444"/>
     <use style="fill:#0000ff;stroke:#000000;" x="352.723127234" xlink:href="#m4bd4cdeb0a" y="160.499193693"/>
     <use style="fill:#0000ff;stroke:#000000;" x="434.570077596" xlink:href="#m4bd4cdeb0a" y="213.63092315"/>
     <use style="fill:#0000ff;stroke:#000000;" x="223.576755699" xlink:href="#m4bd4cdeb0a" y="122.687873729"/>
     <use style="fill:#0000ff;stroke:#000000;" x="443.542099728" xlink:href="#m4bd4cdeb0a" y="222.283904281"/>
     <use style="fill:#0000ff;stroke:#000000;" x="456.338785404" xlink:href="#m4bd4cdeb0a" y="238.318707199"/>
     <use style="fill:#0000ff;stroke:#000000;" x="269.181354516" xlink:href="#m4bd4cdeb0a" y="131.179605662"/>
     <use style="fill:#0000ff;stroke:#000000;" x="432.316327973" xlink:href="#m4bd4cdeb0a" y="211.494407847"/>
     <use style="fill:#0000ff;stroke:#000000;" x="475.965813768" xlink:href="#m4bd4cdeb0a" y="272.647030066"/>
     <use style="fill:#0000ff;stroke:#000000;" x="403.055744022" xlink:href="#m4bd4cdeb0a" y="188.165031709"/>
     <use style="fill:#0000ff;stroke:#000000;" x="352.33018749" xlink:href="#m4bd4cdeb0a" y="160.327151765"/>
     <use style="fill:#0000ff;stroke:#000000;" x="395.485800271" xlink:href="#m4bd4cdeb0a" y="183.813142692"/>
     <use style="fill:#0000ff;stroke:#000000;" x="445.527917889" xlink:href="#m4bd4cdeb0a" y="224.434099293"/>
     <use style="fill:#0000ff;stroke:#000000;" x="485.844201761" xlink:href="#m4bd4cdeb0a" y="309.185058169"/>
     <use style="fill:#0000ff;stroke:#000000;" x="338.322886841" xlink:href="#m4bd4cdeb0a" y="153.706021226"/>
     <use style="fill:#0000ff;stroke:#000000;" x="361.827172561" xlink:href="#m4bd4cdeb0a" y="164.320227822"/>
     <use style="fill:#0000ff;stroke:#000000;" x="472.245883476" xlink:href="#m4bd4cdeb0a" y="265.730052167"/>
     <use style="fill:#0000ff;stroke:#000000;" x="451.715110405" xlink:href="#m4bd4cdeb0a" y="232.335777801"/>
     <use style="fill:#0000ff;stroke:#000000;" x="334.861169005" xlink:href="#m4bd4cdeb0a" y="152.409499246"/>
     <use style="fill:#0000ff;stroke:#000000;" x="334.905305381" xlink:href="#m4bd4cdeb0a" y="152.423607492"/>
     <use style="fill:#0000ff;stroke:#000000;" x="398.602657967" xlink:href="#m4bd4cdeb0a" y="184.994741283"/>
     <use style="fill:#0000ff;stroke:#000000;" x="486.514237188" xlink:href="#m4bd4cdeb0a" y="310.808076691"/>
     <use style="fill:#0000ff;stroke:#000000;" x="189.223120009" xlink:href="#m4bd4cdeb0a" y="117.532736764"/>
     <use style="fill:#0000ff;stroke:#000000;" x="434.002094946" xlink:href="#m4bd4cdeb0a" y="213.04095241"/>
     <use style="fill:#0000ff;stroke:#000000;" x="381.286147412" xlink:href="#m4bd4cdeb0a" y="174.299144693"/>
     <use style="fill:#0000ff;stroke:#000000;" x="386.289194986" xlink:href="#m4bd4cdeb0a" y="180.240964492"/>
     <use style="fill:#0000ff;stroke:#000000;" x="138.601184293" xlink:href="#m4bd4cdeb0a" y="114.19045314"/>
     <use style="fill:#0000ff;stroke:#000000;" x="459.367415269" xlink:href="#m4bd4cdeb0a" y="242.383634722"/>
     <use style="fill:#0000ff;stroke:#000000;" x="445.852753645" xlink:href="#m4bd4cdeb0a" y="224.80112201"/>
     <use style="fill:#0000ff;stroke:#000000;" x="394.696780939" xlink:href="#m4bd4cdeb0a" y="183.526105184"/>
     <use style="fill:#0000ff;stroke:#000000;" x="378.391248427" xlink:href="#m4bd4cdeb0a" y="172.670590558"/>
     <use style="fill:#0000ff;stroke:#000000;" x="427.740422033" xlink:href="#m4bd4cdeb0a" y="206.764706501"/>
     <use style="fill:#0000ff;stroke:#000000;" x="459.176300329" xlink:href="#m4bd4cdeb0a" y="241.805706038"/>
     <use style="fill:#0000ff;stroke:#000000;" x="399.822367878" xlink:href="#m4bd4cdeb0a" y="185.612840249"/>
     <use style="fill:#0000ff;stroke:#000000;" x="453.228028917" xlink:href="#m4bd4cdeb0a" y="234.174231503"/>
     <use style="fill:#0000ff;stroke:#000000;" x="174.766323272" xlink:href="#m4bd4cdeb0a" y="115.827518222"/>
     <use style="fill:#0000ff;stroke:#000000;" x="430.575321573" xlink:href="#m4bd4cdeb0a" y="210.617730882"/>
     <use style="fill:#0000ff;stroke:#000000;" x="487.390698014" xlink:href="#m4bd4cdeb0a" y="319.740522499"/>
     <use style="fill:#0000ff;stroke:#000000;" x="270.846529594" xlink:href="#m4bd4cdeb0a" y="131.674263726"/>
     <use style="fill:#0000ff;stroke:#000000;" x="447.188222401" xlink:href="#m4bd4cdeb0a" y="226.336106284"/>
     <use style="fill:#0000ff;stroke:#000000;" x="341.031189693" xlink:href="#m4bd4cdeb0a" y="154.890775598"/>
     <use style="fill:#0000ff;stroke:#000000;" x="277.016914468" xlink:href="#m4bd4cdeb0a" y="132.814021816"/>
     <use style="fill:#0000ff;stroke:#000000;" x="487.267884766" xlink:href="#m4bd4cdeb0a" y="317.18087422"/>
     <use style="fill:#0000ff;stroke:#000000;" x="433.358056248" xlink:href="#m4bd4cdeb0a" y="212.445934279"/>
     <use style="fill:#0000ff;stroke:#000000;" x="434.310374889" xlink:href="#m4bd4cdeb0a" y="213.327626311"/>
     <use style="fill:#0000ff;stroke:#000000;" x="460.525347999" xlink:href="#m4bd4cdeb0a" y="244.05389884"/>
     <use style="fill:#0000ff;stroke:#000000;" x="221.298847453" xlink:href="#m4bd4cdeb0a" y="122.140735745"/>
     <use style="fill:#0000ff;stroke:#000000;" x="456.568147341" xlink:href="#m4bd4cdeb0a" y="238.521390424"/>
     <use style="fill:#0000ff;stroke:#000000;" x="326.517976837" xlink:href="#m4bd4cdeb0a" y="149.064771596"/>
     <use style="fill:#0000ff;stroke:#000000;" x="421.613421086" xlink:href="#m4bd4cdeb0a" y="201.713610181"/>
     <use style="fill:#0000ff;stroke:#000000;" x="186.07564299" xlink:href="#m4bd4cdeb0a" y="117.143184964"/>
     <use style="fill:#0000ff;stroke:#000000;" x="401.051909591" xlink:href="#m4bd4cdeb0a" y="186.418862474"/>
     <use style="fill:#0000ff;stroke:#000000;" x="94.7082234531" xlink:href="#m4bd4cdeb0a" y="112.396963098"/>
     <use style="fill:#0000ff;stroke:#000000;" x="474.795334618" xlink:href="#m4bd4cdeb0a" y="269.885019412"/>
     <use style="fill:#0000ff;stroke:#000000;" x="220.198040843" xlink:href="#m4bd4cdeb0a" y="121.961911614"/>
     <use style="fill:#0000ff;stroke:#000000;" x="488.003259587" xlink:href="#m4bd4cdeb0a" y="323.688700173"/>
     <use style="fill:#0000ff;stroke:#000000;" x="458.733979554" xlink:href="#m4bd4cdeb0a" y="241.488594281"/>
     <use style="fill:#0000ff;stroke:#000000;" x="452.199392959" xlink:href="#m4bd4cdeb0a" y="232.624673259"/>
     <use style="fill:#0000ff;stroke:#000000;" x="400.44899752" xlink:href="#m4bd4cdeb0a" y="186.022410104"/>
     <use style="fill:#0000ff;stroke:#000000;" x="464.053758377" xlink:href="#m4bd4cdeb0a" y="249.283746266"/>
     <use style="fill:#0000ff;stroke:#000000;" x="120.896589238" xlink:href="#m4bd4cdeb0a" y="113.392870282"/>
     <use style="fill:#0000ff;stroke:#000000;" x="461.056149277" xlink:href="#m4bd4cdeb0a" y="244.834928576"/>
     <use style="fill:#0000ff;stroke:#000000;" x="382.388773693" xlink:href="#m4bd4cdeb0a" y="174.929379182"/>
     <use style="fill:#0000ff;stroke:#000000;" x="392.081739216" xlink:href="#m4bd4cdeb0a" y="180.625576696"/>
     <use style="fill:#0000ff;stroke:#000000;" x="485.328518823" xlink:href="#m4bd4cdeb0a" y="304.004008286"/>
     <use style="fill:#0000ff;stroke:#000000;" x="119.051720089" xlink:href="#m4bd4cdeb0a" y="113.18459851"/>
     <use style="fill:#0000ff;stroke:#000000;" x="484.182853044" xlink:href="#m4bd4cdeb0a" y="299.815320861"/>
     <use style="fill:#0000ff;stroke:#000000;" x="343.916474974" xlink:href="#m4bd4cdeb0a" y="156.263292896"/>
     <use style="fill:#0000ff;stroke:#000000;" x="460.320858106" xlink:href="#m4bd4cdeb0a" y="243.512182387"/>
     <use style="fill:#0000ff;stroke:#000000;" x="241.947687769" xlink:href="#m4bd4cdeb0a" y="125.024186311"/>
     <use style="fill:#0000ff;stroke:#000000;" x="295.643937219" xlink:href="#m4bd4cdeb0a" y="138.640048841"/>
     <use style="fill:#0000ff;stroke:#000000;" x="487.283164558" xlink:href="#m4bd4cdeb0a" y="318.152919428"/>
     <use style="fill:#0000ff;stroke:#000000;" x="444.903471817" xlink:href="#m4bd4cdeb0a" y="224.152668611"/>
     <use style="fill:#0000ff;stroke:#000000;" x="373.936998451" xlink:href="#m4bd4cdeb0a" y="170.426971112"/>
     <use style="fill:#0000ff;stroke:#000000;" x="363.227012407" xlink:href="#m4bd4cdeb0a" y="165.026615789"/>
     <use style="fill:#0000ff;stroke:#000000;" x="183.533249652" xlink:href="#m4bd4cdeb0a" y="116.682700088"/>
     <use style="fill:#0000ff;stroke:#000000;" x="385.958428366" xlink:href="#m4bd4cdeb0a" y="177.126794046"/>
     <use style="fill:#0000ff;stroke:#000000;" x="344.632231372" xlink:href="#m4bd4cdeb0a" y="156.396004252"/>
     <use style="fill:#0000ff;stroke:#000000;" x="357.096087139" xlink:href="#m4bd4cdeb0a" y="162.030529542"/>
     <use style="fill:#0000ff;stroke:#000000;" x="467.928988669" xlink:href="#m4bd4cdeb0a" y="255.926061737"/>
     <use style="fill:#0000ff;stroke:#000000;" x="465.993451695" xlink:href="#m4bd4cdeb0a" y="252.526552074"/>
     <use style="fill:#0000ff;stroke:#000000;" x="459.980673905" xlink:href="#m4bd4cdeb0a" y="243.072460791"/>
     <use style="fill:#0000ff;stroke:#000000;" x="487.059508935" xlink:href="#m4bd4cdeb0a" y="314.961741369"/>
     <use style="fill:#0000ff;stroke:#000000;" x="405.408588134" xlink:href="#m4bd4cdeb0a" y="189.348354186"/>
     <use style="fill:#0000ff;stroke:#000000;" x="222.790190913" xlink:href="#m4bd4cdeb0a" y="122.260036164"/>
     <use style="fill:#0000ff;stroke:#000000;" x="345.52110463" xlink:href="#m4bd4cdeb0a" y="157.361848343"/>
     <use style="fill:#0000ff;stroke:#000000;" x="355.232046119" xlink:href="#m4bd4cdeb0a" y="161.05477916"/>
     <use style="fill:#0000ff;stroke:#000000;" x="469.498301117" xlink:href="#m4bd4cdeb0a" y="258.830187718"/>
     <use style="fill:#0000ff;stroke:#000000;" x="342.339060983" xlink:href="#m4bd4cdeb0a" y="156.022249328"/>
     <use style="fill:#0000ff;stroke:#000000;" x="402.776174222" xlink:href="#m4bd4cdeb0a" y="187.570703187"/>
     <use style="fill:#0000ff;stroke:#000000;" x="279.738853753" xlink:href="#m4bd4cdeb0a" y="133.727518956"/>
     <use style="fill:#0000ff;stroke:#000000;" x="416.348154722" xlink:href="#m4bd4cdeb0a" y="197.349469999"/>
     <use style="fill:#0000ff;stroke:#000000;" x="411.688454661" xlink:href="#m4bd4cdeb0a" y="193.823176511"/>
     <use style="fill:#0000ff;stroke:#000000;" x="454.449758477" xlink:href="#m4bd4cdeb0a" y="236.308423667"/>
     <use style="fill:#0000ff;stroke:#000000;" x="408.802714189" xlink:href="#m4bd4cdeb0a" y="191.76313399"/>
     <use style="fill:#0000ff;stroke:#000000;" x="465.054218251" xlink:href="#m4bd4cdeb0a" y="251.28492297"/>
     <use style="fill:#0000ff;stroke:#000000;" x="234.431999221" xlink:href="#m4bd4cdeb0a" y="123.364215075"/>
     <use style="fill:#0000ff;stroke:#000000;" x="203.263322433" xlink:href="#m4bd4cdeb0a" y="119.825631202"/>
     <use style="fill:#0000ff;stroke:#000000;" x="362.812926548" xlink:href="#m4bd4cdeb0a" y="164.621666772"/>
    </g>
   </g>
   <g id="patch_3">
    <path d="M 518.4 388.8 
L 518.4 43.2 
" style="fill:none;stroke:#000000;stroke-linecap:square;stroke-linejoin:miter;"/>
   </g>
   <g id="patch_4">
    <path d="M 72 388.8 
L 72 43.2 
" style="fill:none;stroke:#000000;stroke-linecap:square;stroke-linejoin:miter;"/>
   </g>
   <g id="patch_5">
    <path d="M 72 388.8 
L 518.4 388.8 
" style="fill:none;stroke:#000000;stroke-linecap:square;stroke-linejoin:miter;"/>
   </g>
   <g id="patch_6">
    <path d="M 72 43.2 
L 518.4 43.2 
" style="fill:none;stroke:#000000;stroke-linecap:square;stroke-linejoin:miter;"/>
   </g>
   <g id="matplotlib.axis_1">
    <g id="xtick_1">
     <g id="line2d_1">
      <defs>
       <path d="M 0 0 
L 0 -4 
" id="mc1710339af" style="stroke:#000000;stroke-width:0.5;"/>
      </defs>
      <g>
       <use style="stroke:#000000;stroke-width:0.5;" x="72.0" xlink:href="#mc1710339af" y="388.8"/>
      </g>
     </g>
     <g id="line2d_2">
      <defs>
       <path d="M 0 0 
L 0 4 
" id="mf16f0edfde" style="stroke:#000000;stroke-width:0.5;"/>
      </defs>
      <g>
       <use style="stroke:#000000;stroke-width:0.5;" x="72.0" xlink:href="#mf16f0edfde" y="43.2"/>
      </g>
     </g>
     <g id="text_1">
      <!-- −140 -->
      <defs>
       <path d="M 12.40625 8.296875 
L 28.515625 8.296875 
L 28.515625 63.921875 
L 10.984375 60.40625 
L 10.984375 69.390625 
L 28.421875 72.90625 
L 38.28125 72.90625 
L 38.28125 8.296875 
L 54.390625 8.296875 
L 54.390625 0 
L 12.40625 0 
z
" id="BitstreamVeraSans-Roman-31"/>
       <path d="M 10.59375 35.5 
L 73.1875 35.5 
L 73.1875 27.203125 
L 10.59375 27.203125 
z
" id="BitstreamVeraSans-Roman-2212"/>
       <path d="M 31.78125 66.40625 
Q 24.171875 66.40625 20.328125 58.90625 
Q 16.5 51.421875 16.5 36.375 
Q 16.5 21.390625 20.328125 13.890625 
Q 24.171875 6.390625 31.78125 6.390625 
Q 39.453125 6.390625 43.28125 13.890625 
Q 47.125 21.390625 47.125 36.375 
Q 47.125 51.421875 43.28125 58.90625 
Q 39.453125 66.40625 31.78125 66.40625 
M 31.78125 74.21875 
Q 44.046875 74.21875 50.515625 64.515625 
Q 56.984375 54.828125 56.984375 36.375 
Q 56.984375 17.96875 50.515625 8.265625 
Q 44.046875 -1.421875 31.78125 -1.421875 
Q 19.53125 -1.421875 13.0625 8.265625 
Q 6.59375 17.96875 6.59375 36.375 
Q 6.59375 54.828125 13.0625 64.515625 
Q 19.53125 74.21875 31.78125 74.21875 
" id="BitstreamVeraSans-Roman-30"/>
       <path d="M 37.796875 64.3125 
L 12.890625 25.390625 
L 37.796875 25.390625 
z
M 35.203125 72.90625 
L 47.609375 72.90625 
L 47.609375 25.390625 
L 58.015625 25.390625 
L 58.015625 17.1875 
L 47.609375 17.1875 
L 47.609375 0 
L 37.796875 0 
L 37.796875 17.1875 
L 4.890625 17.1875 
L 4.890625 26.703125 
z
" id="BitstreamVeraSans-Roman-34"/>
      </defs>
      <g transform="translate(55.5196875 401.918125)scale(0.12 -0.12)">
       <use xlink:href="#BitstreamVeraSans-Roman-2212"/>
       <use x="83.7890625" xlink:href="#BitstreamVeraSans-Roman-31"/>
       <use x="147.412109375" xlink:href="#BitstreamVeraSans-Roman-34"/>
       <use x="211.03515625" xlink:href="#BitstreamVeraSans-Roman-30"/>
      </g>
     </g>
    </g>
    <g id="xtick_2">
     <g id="line2d_3">
      <g>
       <use style="stroke:#000000;stroke-width:0.5;" x="131.52" xlink:href="#mc1710339af" y="388.8"/>
      </g>
     </g>
     <g id="line2d_4">
      <g>
       <use style="stroke:#000000;stroke-width:0.5;" x="131.52" xlink:href="#mf16f0edfde" y="43.2"/>
      </g>
     </g>
     <g id="text_2">
      <!-- −120 -->
      <defs>
       <path d="M 19.1875 8.296875 
L 53.609375 8.296875 
L 53.609375 0 
L 7.328125 0 
L 7.328125 8.296875 
Q 12.9375 14.109375 22.625 23.890625 
Q 32.328125 33.6875 34.8125 36.53125 
Q 39.546875 41.84375 41.421875 45.53125 
Q 43.3125 49.21875 43.3125 52.78125 
Q 43.3125 58.59375 39.234375 62.25 
Q 35.15625 65.921875 28.609375 65.921875 
Q 23.96875 65.921875 18.8125 64.3125 
Q 13.671875 62.703125 7.8125 59.421875 
L 7.8125 69.390625 
Q 13.765625 71.78125 18.9375 73 
Q 24.125 74.21875 28.421875 74.21875 
Q 39.75 74.21875 46.484375 68.546875 
Q 53.21875 62.890625 53.21875 53.421875 
Q 53.21875 48.921875 51.53125 44.890625 
Q 49.859375 40.875 45.40625 35.40625 
Q 44.1875 33.984375 37.640625 27.21875 
Q 31.109375 20.453125 19.1875 8.296875 
" id="BitstreamVeraSans-Roman-32"/>
      </defs>
      <g transform="translate(115.0396875 401.918125)scale(0.12 -0.12)">
       <use xlink:href="#BitstreamVeraSans-Roman-2212"/>
       <use x="83.7890625" xlink:href="#BitstreamVeraSans-Roman-31"/>
       <use x="147.412109375" xlink:href="#BitstreamVeraSans-Roman-32"/>
       <use x="211.03515625" xlink:href="#BitstreamVeraSans-Roman-30"/>
      </g>
     </g>
    </g>
    <g id="xtick_3">
     <g id="line2d_5">
      <g>
       <use style="stroke:#000000;stroke-width:0.5;" x="191.04" xlink:href="#mc1710339af" y="388.8"/>
      </g>
     </g>
     <g id="line2d_6">
      <g>
       <use style="stroke:#000000;stroke-width:0.5;" x="191.04" xlink:href="#mf16f0edfde" y="43.2"/>
      </g>
     </g>
     <g id="text_3">
      <!-- −100 -->
      <g transform="translate(174.5596875 401.918125)scale(0.12 -0.12)">
       <use xlink:href="#BitstreamVeraSans-Roman-2212"/>
       <use x="83.7890625" xlink:href="#BitstreamVeraSans-Roman-31"/>
       <use x="147.412109375" xlink:href="#BitstreamVeraSans-Roman-30"/>
       <use x="211.03515625" xlink:href="#BitstreamVeraSans-Roman-30"/>
      </g>
     </g>
    </g>
    <g id="xtick_4">
     <g id="line2d_7">
      <g>
       <use style="stroke:#000000;stroke-width:0.5;" x="250.56" xlink:href="#mc1710339af" y="388.8"/>
      </g>
     </g>
     <g id="line2d_8">
      <g>
       <use style="stroke:#000000;stroke-width:0.5;" x="250.56" xlink:href="#mf16f0edfde" y="43.2"/>
      </g>
     </g>
     <g id="text_4">
      <!-- −80 -->
      <defs>
       <path d="M 31.78125 34.625 
Q 24.75 34.625 20.71875 30.859375 
Q 16.703125 27.09375 16.703125 20.515625 
Q 16.703125 13.921875 20.71875 10.15625 
Q 24.75 6.390625 31.78125 6.390625 
Q 38.8125 6.390625 42.859375 10.171875 
Q 46.921875 13.96875 46.921875 20.515625 
Q 46.921875 27.09375 42.890625 30.859375 
Q 38.875 34.625 31.78125 34.625 
M 21.921875 38.8125 
Q 15.578125 40.375 12.03125 44.71875 
Q 8.5 49.078125 8.5 55.328125 
Q 8.5 64.0625 14.71875 69.140625 
Q 20.953125 74.21875 31.78125 74.21875 
Q 42.671875 74.21875 48.875 69.140625 
Q 55.078125 64.0625 55.078125 55.328125 
Q 55.078125 49.078125 51.53125 44.71875 
Q 48 40.375 41.703125 38.8125 
Q 48.828125 37.15625 52.796875 32.3125 
Q 56.78125 27.484375 56.78125 20.515625 
Q 56.78125 9.90625 50.3125 4.234375 
Q 43.84375 -1.421875 31.78125 -1.421875 
Q 19.734375 -1.421875 13.25 4.234375 
Q 6.78125 9.90625 6.78125 20.515625 
Q 6.78125 27.484375 10.78125 32.3125 
Q 14.796875 37.15625 21.921875 38.8125 
M 18.3125 54.390625 
Q 18.3125 48.734375 21.84375 45.5625 
Q 25.390625 42.390625 31.78125 42.390625 
Q 38.140625 42.390625 41.71875 45.5625 
Q 45.3125 48.734375 45.3125 54.390625 
Q 45.3125 60.0625 41.71875 63.234375 
Q 38.140625 66.40625 31.78125 66.40625 
Q 25.390625 66.40625 21.84375 63.234375 
Q 18.3125 60.0625 18.3125 54.390625 
" id="BitstreamVeraSans-Roman-38"/>
      </defs>
      <g transform="translate(237.8971875 401.918125)scale(0.12 -0.12)">
       <use xlink:href="#BitstreamVeraSans-Roman-2212"/>
       <use x="83.7890625" xlink:href="#BitstreamVeraSans-Roman-38"/>
       <use x="147.412109375" xlink:href="#BitstreamVeraSans-Roman-30"/>
      </g>
     </g>
    </g>
    <g id="xtick_5">
     <g id="line2d_9">
      <g>
       <use style="stroke:#000000;stroke-width:0.5;" x="310.08" xlink:href="#mc1710339af" y="388.8"/>
      </g>
     </g>
     <g id="line2d_10">
      <g>
       <use style="stroke:#000000;stroke-width:0.5;" x="310.08" xlink:href="#mf16f0edfde" y="43.2"/>
      </g>
     </g>
     <g id="text_5">
      <!-- −60 -->
      <defs>
       <path d="M 33.015625 40.375 
Q 26.375 40.375 22.484375 35.828125 
Q 18.609375 31.296875 18.609375 23.390625 
Q 18.609375 15.53125 22.484375 10.953125 
Q 26.375 6.390625 33.015625 6.390625 
Q 39.65625 6.390625 43.53125 10.953125 
Q 47.40625 15.53125 47.40625 23.390625 
Q 47.40625 31.296875 43.53125 35.828125 
Q 39.65625 40.375 33.015625 40.375 
M 52.59375 71.296875 
L 52.59375 62.3125 
Q 48.875 64.0625 45.09375 64.984375 
Q 41.3125 65.921875 37.59375 65.921875 
Q 27.828125 65.921875 22.671875 59.328125 
Q 17.53125 52.734375 16.796875 39.40625 
Q 19.671875 43.65625 24.015625 45.921875 
Q 28.375 48.1875 33.59375 48.1875 
Q 44.578125 48.1875 50.953125 41.515625 
Q 57.328125 34.859375 57.328125 23.390625 
Q 57.328125 12.15625 50.6875 5.359375 
Q 44.046875 -1.421875 33.015625 -1.421875 
Q 20.359375 -1.421875 13.671875 8.265625 
Q 6.984375 17.96875 6.984375 36.375 
Q 6.984375 53.65625 15.1875 63.9375 
Q 23.390625 74.21875 37.203125 74.21875 
Q 40.921875 74.21875 44.703125 73.484375 
Q 48.484375 72.75 52.59375 71.296875 
" id="BitstreamVeraSans-Roman-36"/>
      </defs>
      <g transform="translate(297.4171875 401.918125)scale(0.12 -0.12)">
       <use xlink:href="#BitstreamVeraSans-Roman-2212"/>
       <use x="83.7890625" xlink:href="#BitstreamVeraSans-Roman-36"/>
       <use x="147.412109375" xlink:href="#BitstreamVeraSans-Roman-30"/>
      </g>
     </g>
    </g>
    <g id="xtick_6">
     <g id="line2d_11">
      <g>
       <use style="stroke:#000000;stroke-width:0.5;" x="369.6" xlink:href="#mc1710339af" y="388.8"/>
      </g>
     </g>
     <g id="line2d_12">
      <g>
       <use style="stroke:#000000;stroke-width:0.5;" x="369.6" xlink:href="#mf16f0edfde" y="43.2"/>
      </g>
     </g>
     <g id="text_6">
      <!-- −40 -->
      <g transform="translate(356.9371875 401.918125)scale(0.12 -0.12)">
       <use xlink:href="#BitstreamVeraSans-Roman-2212"/>
       <use x="83.7890625" xlink:href="#BitstreamVeraSans-Roman-34"/>
       <use x="147.412109375" xlink:href="#BitstreamVeraSans-Roman-30"/>
      </g>
     </g>
    </g>
    <g id="xtick_7">
     <g id="line2d_13">
      <g>
       <use style="stroke:#000000;stroke-width:0.5;" x="429.12" xlink:href="#mc1710339af" y="388.8"/>
      </g>
     </g>
     <g id="line2d_14">
      <g>
       <use style="stroke:#000000;stroke-width:0.5;" x="429.12" xlink:href="#mf16f0edfde" y="43.2"/>
      </g>
     </g>
     <g id="text_7">
      <!-- −20 -->
      <g transform="translate(416.4571875 401.918125)scale(0.12 -0.12)">
       <use xlink:href="#BitstreamVeraSans-Roman-2212"/>
       <use x="83.7890625" xlink:href="#BitstreamVeraSans-Roman-32"/>
       <use x="147.412109375" xlink:href="#BitstreamVeraSans-Roman-30"/>
      </g>
     </g>
    </g>
    <g id="xtick_8">
     <g id="line2d_15">
      <g>
       <use style="stroke:#000000;stroke-width:0.5;" x="488.64" xlink:href="#mc1710339af" y="388.8"/>
      </g>
     </g>
     <g id="line2d_16">
      <g>
       <use style="stroke:#000000;stroke-width:0.5;" x="488.64" xlink:href="#mf16f0edfde" y="43.2"/>
      </g>
     </g>
     <g id="text_8">
      <!-- 0 -->
      <g transform="translate(484.8225 401.918125)scale(0.12 -0.12)">
       <use xlink:href="#BitstreamVeraSans-Roman-30"/>
      </g>
     </g>
    </g>
   </g>
   <g id="matplotlib.axis_2">
    <g id="ytick_1">
     <g id="line2d_17">
      <defs>
       <path d="M 0 0 
L 4 0 
" id="m69d2f71275" style="stroke:#000000;stroke-width:0.5;"/>
      </defs>
      <g>
       <use style="stroke:#000000;stroke-width:0.5;" x="72.0" xlink:href="#m69d2f71275" y="388.8"/>
      </g>
     </g>
     <g id="line2d_18">
      <defs>
       <path d="M 0 0 
L -4 0 
" id="me3ce9baa19" style="stroke:#000000;stroke-width:0.5;"/>
      </defs>
      <g>
       <use style="stroke:#000000;stroke-width:0.5;" x="518.4" xlink:href="#me3ce9baa19" y="388.8"/>
      </g>
     </g>
     <g id="text_9">
      <!-- −60 -->
      <g transform="translate(42.674375 392.11125)scale(0.12 -0.12)">
       <use xlink:href="#BitstreamVeraSans-Roman-2212"/>
       <use x="83.7890625" xlink:href="#BitstreamVeraSans-Roman-36"/>
       <use x="147.412109375" xlink:href="#BitstreamVeraSans-Roman-30"/>
      </g>
     </g>
    </g>
    <g id="ytick_2">
     <g id="line2d_19">
      <g>
       <use style="stroke:#000000;stroke-width:0.5;" x="72.0" xlink:href="#m69d2f71275" y="339.428571429"/>
      </g>
     </g>
     <g id="line2d_20">
      <g>
       <use style="stroke:#000000;stroke-width:0.5;" x="518.4" xlink:href="#me3ce9baa19" y="339.428571429"/>
      </g>
     </g>
     <g id="text_10">
      <!-- −50 -->
      <defs>
       <path d="M 10.796875 72.90625 
L 49.515625 72.90625 
L 49.515625 64.59375 
L 19.828125 64.59375 
L 19.828125 46.734375 
Q 21.96875 47.46875 24.109375 47.828125 
Q 26.265625 48.1875 28.421875 48.1875 
Q 40.625 48.1875 47.75 41.5 
Q 54.890625 34.8125 54.890625 23.390625 
Q 54.890625 11.625 47.5625 5.09375 
Q 40.234375 -1.421875 26.90625 -1.421875 
Q 22.3125 -1.421875 17.546875 -0.640625 
Q 12.796875 0.140625 7.71875 1.703125 
L 7.71875 11.625 
Q 12.109375 9.234375 16.796875 8.0625 
Q 21.484375 6.890625 26.703125 6.890625 
Q 35.15625 6.890625 40.078125 11.328125 
Q 45.015625 15.765625 45.015625 23.390625 
Q 45.015625 31 40.078125 35.4375 
Q 35.15625 39.890625 26.703125 39.890625 
Q 22.75 39.890625 18.8125 39.015625 
Q 14.890625 38.140625 10.796875 36.28125 
z
" id="BitstreamVeraSans-Roman-35"/>
      </defs>
      <g transform="translate(42.674375 342.739821429)scale(0.12 -0.12)">
       <use xlink:href="#BitstreamVeraSans-Roman-2212"/>
       <use x="83.7890625" xlink:href="#BitstreamVeraSans-Roman-35"/>
       <use x="147.412109375" xlink:href="#BitstreamVeraSans-Roman-30"/>
      </g>
     </g>
    </g>
    <g id="ytick_3">
     <g id="line2d_21">
      <g>
       <use style="stroke:#000000;stroke-width:0.5;" x="72.0" xlink:href="#m69d2f71275" y="290.057142857"/>
      </g>
     </g>
     <g id="line2d_22">
      <g>
       <use style="stroke:#000000;stroke-width:0.5;" x="518.4" xlink:href="#me3ce9baa19" y="290.057142857"/>
      </g>
     </g>
     <g id="text_11">
      <!-- −40 -->
      <g transform="translate(42.674375 293.368392857)scale(0.12 -0.12)">
       <use xlink:href="#BitstreamVeraSans-Roman-2212"/>
       <use x="83.7890625" xlink:href="#BitstreamVeraSans-Roman-34"/>
       <use x="147.412109375" xlink:href="#BitstreamVeraSans-Roman-30"/>
      </g>
     </g>
    </g>
    <g id="ytick_4">
     <g id="line2d_23">
      <g>
       <use style="stroke:#000000;stroke-width:0.5;" x="72.0" xlink:href="#m69d2f71275" y="240.685714286"/>
      </g>
     </g>
     <g id="line2d_24">
      <g>
       <use style="stroke:#000000;stroke-width:0.5;" x="518.4" xlink:href="#me3ce9baa19" y="240.685714286"/>
      </g>
     </g>
     <g id="text_12">
      <!-- −30 -->
      <defs>
       <path d="M 40.578125 39.3125 
Q 47.65625 37.796875 51.625 33 
Q 55.609375 28.21875 55.609375 21.1875 
Q 55.609375 10.40625 48.1875 4.484375 
Q 40.765625 -1.421875 27.09375 -1.421875 
Q 22.515625 -1.421875 17.65625 -0.515625 
Q 12.796875 0.390625 7.625 2.203125 
L 7.625 11.71875 
Q 11.71875 9.328125 16.59375 8.109375 
Q 21.484375 6.890625 26.8125 6.890625 
Q 36.078125 6.890625 40.9375 10.546875 
Q 45.796875 14.203125 45.796875 21.1875 
Q 45.796875 27.640625 41.28125 31.265625 
Q 36.765625 34.90625 28.71875 34.90625 
L 20.21875 34.90625 
L 20.21875 43.015625 
L 29.109375 43.015625 
Q 36.375 43.015625 40.234375 45.921875 
Q 44.09375 48.828125 44.09375 54.296875 
Q 44.09375 59.90625 40.109375 62.90625 
Q 36.140625 65.921875 28.71875 65.921875 
Q 24.65625 65.921875 20.015625 65.03125 
Q 15.375 64.15625 9.8125 62.3125 
L 9.8125 71.09375 
Q 15.4375 72.65625 20.34375 73.4375 
Q 25.25 74.21875 29.59375 74.21875 
Q 40.828125 74.21875 47.359375 69.109375 
Q 53.90625 64.015625 53.90625 55.328125 
Q 53.90625 49.265625 50.4375 45.09375 
Q 46.96875 40.921875 40.578125 39.3125 
" id="BitstreamVeraSans-Roman-33"/>
      </defs>
      <g transform="translate(42.674375 243.996964286)scale(0.12 -0.12)">
       <use xlink:href="#BitstreamVeraSans-Roman-2212"/>
       <use x="83.7890625" xlink:href="#BitstreamVeraSans-Roman-33"/>
       <use x="147.412109375" xlink:href="#BitstreamVeraSans-Roman-30"/>
      </g>
     </g>
    </g>
    <g id="ytick_5">
     <g id="line2d_25">
      <g>
       <use style="stroke:#000000;stroke-width:0.5;" x="72.0" xlink:href="#m69d2f71275" y="191.314285714"/>
      </g>
     </g>
     <g id="line2d_26">
      <g>
       <use style="stroke:#000000;stroke-width:0.5;" x="518.4" xlink:href="#me3ce9baa19" y="191.314285714"/>
      </g>
     </g>
     <g id="text_13">
      <!-- −20 -->
      <g transform="translate(42.674375 194.625535714)scale(0.12 -0.12)">
       <use xlink:href="#BitstreamVeraSans-Roman-2212"/>
       <use x="83.7890625" xlink:href="#BitstreamVeraSans-Roman-32"/>
       <use x="147.412109375" xlink:href="#BitstreamVeraSans-Roman-30"/>
      </g>
     </g>
    </g>
    <g id="ytick_6">
     <g id="line2d_27">
      <g>
       <use style="stroke:#000000;stroke-width:0.5;" x="72.0" xlink:href="#m69d2f71275" y="141.942857143"/>
      </g>
     </g>
     <g id="line2d_28">
      <g>
       <use style="stroke:#000000;stroke-width:0.5;" x="518.4" xlink:href="#me3ce9baa19" y="141.942857143"/>
      </g>
     </g>
     <g id="text_14">
      <!-- −10 -->
      <g transform="translate(42.674375 145.254107143)scale(0.12 -0.12)">
       <use xlink:href="#BitstreamVeraSans-Roman-2212"/>
       <use x="83.7890625" xlink:href="#BitstreamVeraSans-Roman-31"/>
       <use x="147.412109375" xlink:href="#BitstreamVeraSans-Roman-30"/>
      </g>
     </g>
    </g>
    <g id="ytick_7">
     <g id="line2d_29">
      <g>
       <use style="stroke:#000000;stroke-width:0.5;" x="72.0" xlink:href="#m69d2f71275" y="92.5714285714"/>
      </g>
     </g>
     <g id="line2d_30">
      <g>
       <use style="stroke:#000000;stroke-width:0.5;" x="518.4" xlink:href="#me3ce9baa19" y="92.5714285714"/>
      </g>
     </g>
     <g id="text_15">
      <!-- 0 -->
      <g transform="translate(60.365 95.8826785714)scale(0.12 -0.12)">
       <use xlink:href="#BitstreamVeraSans-Roman-30"/>
      </g>
     </g>
    </g>
    <g id="ytick_8">
     <g id="line2d_31">
      <g>
       <use style="stroke:#000000;stroke-width:0.5;" x="72.0" xlink:href="#m69d2f71275" y="43.2"/>
      </g>
     </g>
     <g id="line2d_32">
      <g>
       <use style="stroke:#000000;stroke-width:0.5;" x="518.4" xlink:href="#me3ce9baa19" y="43.2"/>
      </g>
     </g>
     <g id="text_16">
      <!-- 10 -->
      <g transform="translate(52.73 46.51125)scale(0.12 -0.12)">
       <use xlink:href="#BitstreamVeraSans-Roman-31"/>
       <use x="63.623046875" xlink:href="#BitstreamVeraSans-Roman-30"/>
      </g>
     </g>
    </g>
   </g>
  </g>
 </g>
 <defs>
  <clipPath id="p216b32de0a">
   <rect height="345.6" width="446.4" x="72.0" y="43.2"/>
  </clipPath>
 </defs>
</svg>
