<?xml version="1.0" encoding="utf-8" standalone="no"?>
<!DOCTYPE svg PUBLIC "-//W3C//DTD SVG 1.1//EN"
  "http://www.w3.org/Graphics/SVG/1.1/DTD/svg11.dtd">
<!-- Created with matplotlib (http://matplotlib.org/) -->
<svg height="432pt" version="1.1" viewBox="0 0 576 432" width="576pt" xmlns="http://www.w3.org/2000/svg" xmlns:xlink="http://www.w3.org/1999/xlink">
 <defs>
  <style type="text/css">
*{stroke-linecap:butt;stroke-linejoin:round;stroke-miterlimit:100000;}
  </style>
 </defs>
 <g id="figure_1">
  <g id="patch_1">
   <path d="M 0 432 
L 576 432 
L 576 0 
L 0 0 
z
" style="fill:#ffffff;"/>
  </g>
  <g id="axes_1">
   <g id="patch_2">
    <path d="M 72 388.8 
L 518.4 388.8 
L 518.4 43.2 
L 72 43.2 
z
" style="fill:#ffffff;"/>
   </g>
   <g id="PathCollection_1">
    <defs>
     <path d="M 0 1.118034 
C 0.296506 1.118034 0.580908 1.000231 0.790569 0.790569 
C 1.000231 0.580908 1.118034 0.296506 1.118034 0 
C 1.118034 -0.296506 1.000231 -0.580908 0.790569 -0.790569 
C 0.580908 -1.000231 0.296506 -1.118034 0 -1.118034 
C -0.296506 -1.118034 -0.580908 -1.000231 -0.790569 -0.790569 
C -1.000231 -0.580908 -1.118034 -0.296506 -1.118034 0 
C -1.118034 0.296506 -1.000231 0.580908 -0.790569 0.790569 
C -0.580908 1.000231 -0.296506 1.118034 0 1.118034 
z
" id="maea987d0e6" style="stroke:#000000;"/>
    </defs>
    <g clip-path="url(#p348c713b9e)">
     <use style="stroke:#000000;" x="377.274659362" xlink:href="#maea987d0e6" y="77.9129464401"/>
     <use style="stroke:#000000;" x="456.585631039" xlink:href="#maea987d0e6" y="99.5727047091"/>
     <use style="stroke:#000000;" x="388.052115857" xlink:href="#maea987d0e6" y="79.6953945838"/>
     <use style="stroke:#000000;" x="466.65749976" xlink:href="#maea987d0e6" y="103.791261575"/>
     <use style="stroke:#000000;" x="383.594010478" xlink:href="#maea987d0e6" y="78.8975715822"/>
     <use style="stroke:#000000;" x="459.002952084" xlink:href="#maea987d0e6" y="100.240031902"/>
     <use style="stroke:#000000;" x="483.880397996" xlink:href="#maea987d0e6" y="116.279288447"/>
     <use style="stroke:#000000;" x="424.197023238" xlink:href="#maea987d0e6" y="87.9241749663"/>
     <use style="stroke:#000000;" x="405.35576663" xlink:href="#maea987d0e6" y="83.2462564418"/>
     <use style="stroke:#000000;" x="293.518321058" xlink:href="#maea987d0e6" y="68.6758332149"/>
     <use style="stroke:#000000;" x="406.567090585" xlink:href="#maea987d0e6" y="83.6040277356"/>
     <use style="stroke:#000000;" x="422.025112601" xlink:href="#maea987d0e6" y="87.3197990437"/>
     <use style="stroke:#000000;" x="460.324113474" xlink:href="#maea987d0e6" y="100.76094963"/>
     <use style="stroke:#000000;" x="482.853347751" xlink:href="#maea987d0e6" y="114.997576065"/>
     <use style="stroke:#000000;" x="331.191289569" xlink:href="#maea987d0e6" y="71.4592719592"/>
     <use style="stroke:#000000;" x="482.192484336" xlink:href="#maea987d0e6" y="114.039549811"/>
     <use style="stroke:#000000;" x="390.101360585" xlink:href="#maea987d0e6" y="80.2002125168"/>
     <use style="stroke:#000000;" x="459.448244931" xlink:href="#maea987d0e6" y="100.319740373"/>
     <use style="stroke:#000000;" x="431.955609987" xlink:href="#maea987d0e6" y="90.296727619"/>
     <use style="stroke:#000000;" x="394.98585919" xlink:href="#maea987d0e6" y="81.0549523993"/>
     <use style="stroke:#000000;" x="496.41441129" xlink:href="#maea987d0e6" y="135.853337275"/>
     <use style="stroke:#000000;" x="491.41468958" xlink:href="#maea987d0e6" y="124.617295575"/>
     <use style="stroke:#000000;" x="425.328966216" xlink:href="#maea987d0e6" y="88.2225395495"/>
     <use style="stroke:#000000;" x="488.424851189" xlink:href="#maea987d0e6" y="120.345734554"/>
     <use style="stroke:#000000;" x="433.094643543" xlink:href="#maea987d0e6" y="90.4673498126"/>
     <use style="stroke:#000000;" x="351.915063774" xlink:href="#maea987d0e6" y="73.9454560424"/>
     <use style="stroke:#000000;" x="495.44037475" xlink:href="#maea987d0e6" y="132.92721499"/>
     <use style="stroke:#000000;" x="493.888080963" xlink:href="#maea987d0e6" y="128.753281148"/>
     <use style="stroke:#000000;" x="448.983068843" xlink:href="#maea987d0e6" y="95.9571402939"/>
     <use style="stroke:#000000;" x="385.700564853" xlink:href="#maea987d0e6" y="79.3132433999"/>
     <use style="stroke:#000000;" x="438.804267249" xlink:href="#maea987d0e6" y="92.3249584203"/>
     <use style="stroke:#000000;" x="421.819691529" xlink:href="#maea987d0e6" y="87.2708448963"/>
     <use style="stroke:#000000;" x="396.718439807" xlink:href="#maea987d0e6" y="81.3979880395"/>
     <use style="stroke:#000000;" x="322.64872504" xlink:href="#maea987d0e6" y="70.683181079"/>
     <use style="stroke:#000000;" x="460.820897041" xlink:href="#maea987d0e6" y="100.873691661"/>
     <use style="stroke:#000000;" x="222.853229441" xlink:href="#maea987d0e6" y="66.4518027814"/>
     <use style="stroke:#000000;" x="405.000491243" xlink:href="#maea987d0e6" y="83.1621398844"/>
     <use style="stroke:#000000;" x="406.864518265" xlink:href="#maea987d0e6" y="83.660547499"/>
     <use style="stroke:#000000;" x="433.908313466" xlink:href="#maea987d0e6" y="90.7907691735"/>
     <use style="stroke:#000000;" x="443.435575444" xlink:href="#maea987d0e6" y="94.0318259709"/>
     <use style="stroke:#000000;" x="430.470569531" xlink:href="#maea987d0e6" y="89.6806021417"/>
     <use style="stroke:#000000;" x="345.821527269" xlink:href="#maea987d0e6" y="73.1295519317"/>
     <use style="stroke:#000000;" x="475.618507333" xlink:href="#maea987d0e6" y="109.079358032"/>
     <use style="stroke:#000000;" x="480.114089153" xlink:href="#maea987d0e6" y="112.494935741"/>
     <use style="stroke:#000000;" x="467.055210234" xlink:href="#maea987d0e6" y="104.003666147"/>
     <use style="stroke:#000000;" x="385.487360306" xlink:href="#maea987d0e6" y="79.2158665574"/>
     <use style="stroke:#000000;" x="445.778006623" xlink:href="#maea987d0e6" y="94.7345568303"/>
     <use style="stroke:#000000;" x="444.96444758" xlink:href="#maea987d0e6" y="94.4811978577"/>
     <use style="stroke:#000000;" x="429.043205014" xlink:href="#maea987d0e6" y="89.2628878143"/>
     <use style="stroke:#000000;" x="433.613174366" xlink:href="#maea987d0e6" y="90.751312347"/>
     <use style="stroke:#000000;" x="473.015307606" xlink:href="#maea987d0e6" y="107.408946152"/>
     <use style="stroke:#000000;" x="496.046729035" xlink:href="#maea987d0e6" y="133.827541138"/>
     <use style="stroke:#000000;" x="469.465199317" xlink:href="#maea987d0e6" y="105.409954747"/>
     <use style="stroke:#000000;" x="400.110280945" xlink:href="#maea987d0e6" y="82.256603974"/>
     <use style="stroke:#000000;" x="494.844243139" xlink:href="#maea987d0e6" y="130.343664566"/>
     <use style="stroke:#000000;" x="402.654890163" xlink:href="#maea987d0e6" y="82.6473572758"/>
     <use style="stroke:#000000;" x="437.360999571" xlink:href="#maea987d0e6" y="91.8035320907"/>
     <use style="stroke:#000000;" x="470.700381164" xlink:href="#maea987d0e6" y="106.023862735"/>
     <use style="stroke:#000000;" x="375.175285296" xlink:href="#maea987d0e6" y="77.4187442337"/>
     <use style="stroke:#000000;" x="423.357500412" xlink:href="#maea987d0e6" y="87.6960263856"/>
     <use style="stroke:#000000;" x="321.304367261" xlink:href="#maea987d0e6" y="76.8760326598"/>
     <use style="stroke:#000000;" x="350.298877645" xlink:href="#maea987d0e6" y="77.1822485629"/>
     <use style="stroke:#000000;" x="440.225230992" xlink:href="#maea987d0e6" y="93.3115646512"/>
     <use style="stroke:#000000;" x="404.397716399" xlink:href="#maea987d0e6" y="85.6387166545"/>
     <use style="stroke:#000000;" x="469.026629976" xlink:href="#maea987d0e6" y="105.962259103"/>
     <use style="stroke:#000000;" x="417.409316593" xlink:href="#maea987d0e6" y="88.9140925904"/>
     <use style="stroke:#000000;" x="460.152513455" xlink:href="#maea987d0e6" y="100.863020414"/>
     <use style="stroke:#000000;" x="417.296456734" xlink:href="#maea987d0e6" y="104.271427264"/>
     <use style="stroke:#000000;" x="400.519456064" xlink:href="#maea987d0e6" y="94.9666589121"/>
     <use style="stroke:#000000;" x="414.482702046" xlink:href="#maea987d0e6" y="87.5456924527"/>
     <use style="stroke:#000000;" x="374.200114939" xlink:href="#maea987d0e6" y="77.7813458284"/>
     <use style="stroke:#000000;" x="446.675697453" xlink:href="#maea987d0e6" y="95.5374757325"/>
     <use style="stroke:#000000;" x="431.143035332" xlink:href="#maea987d0e6" y="91.0514649944"/>
     <use style="stroke:#000000;" x="426.877347273" xlink:href="#maea987d0e6" y="100.591294224"/>
     <use style="stroke:#000000;" x="465.496201779" xlink:href="#maea987d0e6" y="113.375782953"/>
     <use style="stroke:#000000;" x="467.758326304" xlink:href="#maea987d0e6" y="113.548683591"/>
     <use style="stroke:#000000;" x="377.592196386" xlink:href="#maea987d0e6" y="78.1772883264"/>
     <use style="stroke:#000000;" x="375.195638214" xlink:href="#maea987d0e6" y="90.367979595"/>
     <use style="stroke:#000000;" x="485.062568526" xlink:href="#maea987d0e6" y="120.353352769"/>
     <use style="stroke:#000000;" x="381.745724485" xlink:href="#maea987d0e6" y="90.5496404062"/>
     <use style="stroke:#000000;" x="440.916189123" xlink:href="#maea987d0e6" y="103.376592832"/>
     <use style="stroke:#000000;" x="360.967578578" xlink:href="#maea987d0e6" y="77.0442795811"/>
     <use style="stroke:#000000;" x="413.534562402" xlink:href="#maea987d0e6" y="85.2064952053"/>
     <use style="stroke:#000000;" x="381.779329102" xlink:href="#maea987d0e6" y="78.8305929896"/>
     <use style="stroke:#000000;" x="278.473910814" xlink:href="#maea987d0e6" y="71.7128236873"/>
     <use style="stroke:#000000;" x="435.512427606" xlink:href="#maea987d0e6" y="107.308340414"/>
     <use style="stroke:#000000;" x="345.264303394" xlink:href="#maea987d0e6" y="77.2509256557"/>
     <use style="stroke:#000000;" x="411.598181001" xlink:href="#maea987d0e6" y="85.1687720667"/>
     <use style="stroke:#000000;" x="434.413203632" xlink:href="#maea987d0e6" y="95.4307206383"/>
     <use style="stroke:#000000;" x="486.649070666" xlink:href="#maea987d0e6" y="122.377258314"/>
     <use style="stroke:#000000;" x="365.175836359" xlink:href="#maea987d0e6" y="78.8977288968"/>
     <use style="stroke:#000000;" x="433.321701458" xlink:href="#maea987d0e6" y="100.451564902"/>
     <use style="stroke:#000000;" x="413.108178534" xlink:href="#maea987d0e6" y="97.0837057725"/>
     <use style="stroke:#000000;" x="482.809189281" xlink:href="#maea987d0e6" y="120.230536537"/>
     <use style="stroke:#000000;" x="416.47115198" xlink:href="#maea987d0e6" y="85.9075007661"/>
     <use style="stroke:#000000;" x="473.338014847" xlink:href="#maea987d0e6" y="107.741592796"/>
     <use style="stroke:#000000;" x="436.755389428" xlink:href="#maea987d0e6" y="100.935544555"/>
     <use style="stroke:#000000;" x="409.870189715" xlink:href="#maea987d0e6" y="86.8779610923"/>
     <use style="stroke:#000000;" x="486.996102157" xlink:href="#maea987d0e6" y="122.388389403"/>
     <use style="stroke:#000000;" x="396.01272177" xlink:href="#maea987d0e6" y="82.4694561537"/>
     <use style="stroke:#000000;" x="435.851350322" xlink:href="#maea987d0e6" y="93.6407281335"/>
     <use style="stroke:#000000;" x="339.130620957" xlink:href="#maea987d0e6" y="72.21578677"/>
     <use style="stroke:#000000;" x="492.33483433" xlink:href="#maea987d0e6" y="126.468999965"/>
     <use style="stroke:#000000;" x="444.957347764" xlink:href="#maea987d0e6" y="94.5010925399"/>
     <use style="stroke:#000000;" x="447.1256951" xlink:href="#maea987d0e6" y="98.7087438275"/>
     <use style="stroke:#000000;" x="467.419102487" xlink:href="#maea987d0e6" y="112.379376817"/>
     <use style="stroke:#000000;" x="484.900727306" xlink:href="#maea987d0e6" y="123.128318828"/>
     <use style="stroke:#000000;" x="349.036455545" xlink:href="#maea987d0e6" y="76.3285689777"/>
     <use style="stroke:#000000;" x="362.554786109" xlink:href="#maea987d0e6" y="82.2744965468"/>
     <use style="stroke:#000000;" x="433.561549325" xlink:href="#maea987d0e6" y="91.1486524048"/>
     <use style="stroke:#000000;" x="421.20099926" xlink:href="#maea987d0e6" y="87.2704284528"/>
     <use style="stroke:#000000;" x="375.610388881" xlink:href="#maea987d0e6" y="78.9164210201"/>
     <use style="stroke:#000000;" x="430.001357651" xlink:href="#maea987d0e6" y="95.7362220516"/>
     <use style="stroke:#000000;" x="402.694613806" xlink:href="#maea987d0e6" y="82.8669517736"/>
     <use style="stroke:#000000;" x="450.120325352" xlink:href="#maea987d0e6" y="110.276788596"/>
     <use style="stroke:#000000;" x="421.917316076" xlink:href="#maea987d0e6" y="92.3136479884"/>
     <use style="stroke:#000000;" x="448.354924802" xlink:href="#maea987d0e6" y="104.81613907"/>
     <use style="stroke:#000000;" x="457.4479001" xlink:href="#maea987d0e6" y="106.15024821"/>
     <use style="stroke:#000000;" x="423.548262687" xlink:href="#maea987d0e6" y="101.199645131"/>
     <use style="stroke:#000000;" x="460.335294035" xlink:href="#maea987d0e6" y="110.856349771"/>
    </g>
   </g>
   <g id="PathCollection_2">
    <defs>
     <path d="M 0 1.936492 
C 0.513564 1.936492 1.006162 1.732451 1.369306 1.369306 
C 1.732451 1.006162 1.936492 0.513564 1.936492 0 
C 1.936492 -0.513564 1.732451 -1.006162 1.369306 -1.369306 
C 1.006162 -1.732451 0.513564 -1.936492 0 -1.936492 
C -0.513564 -1.936492 -1.006162 -1.732451 -1.369306 -1.369306 
C -1.732451 -1.006162 -1.936492 -0.513564 -1.936492 0 
C -1.936492 0.513564 -1.732451 1.006162 -1.369306 1.369306 
C -1.006162 1.732451 -0.513564 1.936492 0 1.936492 
z
" id="mc2ade49fa3" style="stroke:#000000;"/>
    </defs>
    <g clip-path="url(#p348c713b9e)">
     <use style="fill:#0000ff;stroke:#000000;" x="377.274659362" xlink:href="#mc2ade49fa3" y="77.9129464401"/>
     <use style="fill:#0000ff;stroke:#000000;" x="456.585631039" xlink:href="#mc2ade49fa3" y="99.5727047091"/>
     <use style="fill:#0000ff;stroke:#000000;" x="388.052115857" xlink:href="#mc2ade49fa3" y="79.6953945838"/>
     <use style="fill:#0000ff;stroke:#000000;" x="466.65749976" xlink:href="#mc2ade49fa3" y="103.791261575"/>
     <use style="fill:#0000ff;stroke:#000000;" x="383.594010478" xlink:href="#mc2ade49fa3" y="78.8975715822"/>
     <use style="fill:#0000ff;stroke:#000000;" x="459.002952084" xlink:href="#mc2ade49fa3" y="100.240031902"/>
     <use style="fill:#0000ff;stroke:#000000;" x="483.880397996" xlink:href="#mc2ade49fa3" y="116.279288447"/>
     <use style="fill:#0000ff;stroke:#000000;" x="424.197023238" xlink:href="#mc2ade49fa3" y="87.9241749663"/>
     <use style="fill:#0000ff;stroke:#000000;" x="405.35576663" xlink:href="#mc2ade49fa3" y="83.2462564418"/>
     <use style="fill:#0000ff;stroke:#000000;" x="293.518321058" xlink:href="#mc2ade49fa3" y="68.6758332149"/>
     <use style="fill:#0000ff;stroke:#000000;" x="406.567090585" xlink:href="#mc2ade49fa3" y="83.6040277356"/>
     <use style="fill:#0000ff;stroke:#000000;" x="422.025112601" xlink:href="#mc2ade49fa3" y="87.3197990437"/>
     <use style="fill:#0000ff;stroke:#000000;" x="460.324113474" xlink:href="#mc2ade49fa3" y="100.76094963"/>
     <use style="fill:#0000ff;stroke:#000000;" x="482.853347751" xlink:href="#mc2ade49fa3" y="114.997576065"/>
     <use style="fill:#0000ff;stroke:#000000;" x="331.191289569" xlink:href="#mc2ade49fa3" y="71.4592719592"/>
     <use style="fill:#0000ff;stroke:#000000;" x="482.192484336" xlink:href="#mc2ade49fa3" y="114.039549811"/>
     <use style="fill:#0000ff;stroke:#000000;" x="390.101360585" xlink:href="#mc2ade49fa3" y="80.2002125168"/>
     <use style="fill:#0000ff;stroke:#000000;" x="459.448244931" xlink:href="#mc2ade49fa3" y="100.319740373"/>
     <use style="fill:#0000ff;stroke:#000000;" x="431.955609987" xlink:href="#mc2ade49fa3" y="90.296727619"/>
     <use style="fill:#0000ff;stroke:#000000;" x="394.98585919" xlink:href="#mc2ade49fa3" y="81.0549523993"/>
     <use style="fill:#0000ff;stroke:#000000;" x="496.41441129" xlink:href="#mc2ade49fa3" y="135.853337275"/>
     <use style="fill:#0000ff;stroke:#000000;" x="491.41468958" xlink:href="#mc2ade49fa3" y="124.617295575"/>
     <use style="fill:#0000ff;stroke:#000000;" x="425.328966216" xlink:href="#mc2ade49fa3" y="88.2225395495"/>
     <use style="fill:#0000ff;stroke:#000000;" x="488.424851189" xlink:href="#mc2ade49fa3" y="120.345734554"/>
     <use style="fill:#0000ff;stroke:#000000;" x="433.094643543" xlink:href="#mc2ade49fa3" y="90.4673498126"/>
     <use style="fill:#0000ff;stroke:#000000;" x="351.915063774" xlink:href="#mc2ade49fa3" y="73.9454560424"/>
     <use style="fill:#0000ff;stroke:#000000;" x="495.44037475" xlink:href="#mc2ade49fa3" y="132.92721499"/>
     <use style="fill:#0000ff;stroke:#000000;" x="493.888080963" xlink:href="#mc2ade49fa3" y="128.753281148"/>
     <use style="fill:#0000ff;stroke:#000000;" x="448.983068843" xlink:href="#mc2ade49fa3" y="95.9571402939"/>
     <use style="fill:#0000ff;stroke:#000000;" x="385.700564853" xlink:href="#mc2ade49fa3" y="79.3132433999"/>
     <use style="fill:#0000ff;stroke:#000000;" x="438.804267249" xlink:href="#mc2ade49fa3" y="92.3249584203"/>
     <use style="fill:#0000ff;stroke:#000000;" x="421.819691529" xlink:href="#mc2ade49fa3" y="87.2708448963"/>
     <use style="fill:#0000ff;stroke:#000000;" x="396.718439807" xlink:href="#mc2ade49fa3" y="81.3979880395"/>
     <use style="fill:#0000ff;stroke:#000000;" x="322.64872504" xlink:href="#mc2ade49fa3" y="70.683181079"/>
     <use style="fill:#0000ff;stroke:#000000;" x="460.820897041" xlink:href="#mc2ade49fa3" y="100.873691661"/>
     <use style="fill:#0000ff;stroke:#000000;" x="222.853229441" xlink:href="#mc2ade49fa3" y="66.4518027814"/>
     <use style="fill:#0000ff;stroke:#000000;" x="405.000491243" xlink:href="#mc2ade49fa3" y="83.1621398844"/>
     <use style="fill:#0000ff;stroke:#000000;" x="406.864518265" xlink:href="#mc2ade49fa3" y="83.660547499"/>
     <use style="fill:#0000ff;stroke:#000000;" x="433.908313466" xlink:href="#mc2ade49fa3" y="90.7907691735"/>
     <use style="fill:#0000ff;stroke:#000000;" x="443.435575444" xlink:href="#mc2ade49fa3" y="94.0318259709"/>
     <use style="fill:#0000ff;stroke:#000000;" x="430.470569531" xlink:href="#mc2ade49fa3" y="89.6806021417"/>
     <use style="fill:#0000ff;stroke:#000000;" x="345.821527269" xlink:href="#mc2ade49fa3" y="73.1295519317"/>
     <use style="fill:#0000ff;stroke:#000000;" x="475.618507333" xlink:href="#mc2ade49fa3" y="109.079358032"/>
     <use style="fill:#0000ff;stroke:#000000;" x="480.114089153" xlink:href="#mc2ade49fa3" y="112.494935741"/>
     <use style="fill:#0000ff;stroke:#000000;" x="467.055210234" xlink:href="#mc2ade49fa3" y="104.003666147"/>
     <use style="fill:#0000ff;stroke:#000000;" x="385.487360306" xlink:href="#mc2ade49fa3" y="79.2158665574"/>
     <use style="fill:#0000ff;stroke:#000000;" x="445.778006623" xlink:href="#mc2ade49fa3" y="94.7345568303"/>
     <use style="fill:#0000ff;stroke:#000000;" x="444.96444758" xlink:href="#mc2ade49fa3" y="94.4811978577"/>
     <use style="fill:#0000ff;stroke:#000000;" x="429.043205014" xlink:href="#mc2ade49fa3" y="89.2628878143"/>
     <use style="fill:#0000ff;stroke:#000000;" x="433.613174366" xlink:href="#mc2ade49fa3" y="90.751312347"/>
     <use style="fill:#0000ff;stroke:#000000;" x="473.015307606" xlink:href="#mc2ade49fa3" y="107.408946152"/>
     <use style="fill:#0000ff;stroke:#000000;" x="496.046729035" xlink:href="#mc2ade49fa3" y="133.827541138"/>
     <use style="fill:#0000ff;stroke:#000000;" x="469.465199317" xlink:href="#mc2ade49fa3" y="105.409954747"/>
     <use style="fill:#0000ff;stroke:#000000;" x="400.110280945" xlink:href="#mc2ade49fa3" y="82.256603974"/>
     <use style="fill:#0000ff;stroke:#000000;" x="494.844243139" xlink:href="#mc2ade49fa3" y="130.343664566"/>
     <use style="fill:#0000ff;stroke:#000000;" x="402.654890163" xlink:href="#mc2ade49fa3" y="82.6473572758"/>
     <use style="fill:#0000ff;stroke:#000000;" x="437.360999571" xlink:href="#mc2ade49fa3" y="91.8035320907"/>
     <use style="fill:#0000ff;stroke:#000000;" x="470.700381164" xlink:href="#mc2ade49fa3" y="106.023862735"/>
     <use style="fill:#0000ff;stroke:#000000;" x="375.175285296" xlink:href="#mc2ade49fa3" y="77.4187442337"/>
     <use style="fill:#0000ff;stroke:#000000;" x="423.357500412" xlink:href="#mc2ade49fa3" y="87.6960263856"/>
    </g>
   </g>
   <g id="patch_3">
    <path d="M 72 388.8 
L 518.4 388.8 
" style="fill:none;stroke:#000000;stroke-linecap:square;stroke-linejoin:miter;"/>
   </g>
   <g id="patch_4">
    <path d="M 72 43.2 
L 518.4 43.2 
" style="fill:none;stroke:#000000;stroke-linecap:square;stroke-linejoin:miter;"/>
   </g>
   <g id="patch_5">
    <path d="M 72 388.8 
L 72 43.2 
" style="fill:none;stroke:#000000;stroke-linecap:square;stroke-linejoin:miter;"/>
   </g>
   <g id="patch_6">
    <path d="M 518.4 388.8 
L 518.4 43.2 
" style="fill:none;stroke:#000000;stroke-linecap:square;stroke-linejoin:miter;"/>
   </g>
   <g id="matplotlib.axis_1">
    <g id="xtick_1">
     <g id="line2d_1">
      <defs>
       <path d="M 0 0 
L 0 -4 
" id="m66737a95d8" style="stroke:#000000;stroke-width:0.5;"/>
      </defs>
      <g>
       <use style="stroke:#000000;stroke-width:0.5;" x="72.0" xlink:href="#m66737a95d8" y="388.8"/>
      </g>
     </g>
     <g id="line2d_2">
      <defs>
       <path d="M 0 0 
L 0 4 
" id="m0277dd1c35" style="stroke:#000000;stroke-width:0.5;"/>
      </defs>
      <g>
       <use style="stroke:#000000;stroke-width:0.5;" x="72.0" xlink:href="#m0277dd1c35" y="43.2"/>
      </g>
     </g>
     <g id="text_1">
      <!-- −200 -->
      <defs>
       <path d="M 10.59375 35.5 
L 73.1875 35.5 
L 73.1875 27.203125 
L 10.59375 27.203125 
z
" id="BitstreamVeraSans-Roman-2212"/>
       <path d="M 19.1875 8.296875 
L 53.609375 8.296875 
L 53.609375 0 
L 7.328125 0 
L 7.328125 8.296875 
Q 12.9375 14.109375 22.625 23.890625 
Q 32.328125 33.6875 34.8125 36.53125 
Q 39.546875 41.84375 41.421875 45.53125 
Q 43.3125 49.21875 43.3125 52.78125 
Q 43.3125 58.59375 39.234375 62.25 
Q 35.15625 65.921875 28.609375 65.921875 
Q 23.96875 65.921875 18.8125 64.3125 
Q 13.671875 62.703125 7.8125 59.421875 
L 7.8125 69.390625 
Q 13.765625 71.78125 18.9375 73 
Q 24.125 74.21875 28.421875 74.21875 
Q 39.75 74.21875 46.484375 68.546875 
Q 53.21875 62.890625 53.21875 53.421875 
Q 53.21875 48.921875 51.53125 44.890625 
Q 49.859375 40.875 45.40625 35.40625 
Q 44.1875 33.984375 37.640625 27.21875 
Q 31.109375 20.453125 19.1875 8.296875 
" id="BitstreamVeraSans-Roman-32"/>
       <path d="M 31.78125 66.40625 
Q 24.171875 66.40625 20.328125 58.90625 
Q 16.5 51.421875 16.5 36.375 
Q 16.5 21.390625 20.328125 13.890625 
Q 24.171875 6.390625 31.78125 6.390625 
Q 39.453125 6.390625 43.28125 13.890625 
Q 47.125 21.390625 47.125 36.375 
Q 47.125 51.421875 43.28125 58.90625 
Q 39.453125 66.40625 31.78125 66.40625 
M 31.78125 74.21875 
Q 44.046875 74.21875 50.515625 64.515625 
Q 56.984375 54.828125 56.984375 36.375 
Q 56.984375 17.96875 50.515625 8.265625 
Q 44.046875 -1.421875 31.78125 -1.421875 
Q 19.53125 -1.421875 13.0625 8.265625 
Q 6.59375 17.96875 6.59375 36.375 
Q 6.59375 54.828125 13.0625 64.515625 
Q 19.53125 74.21875 31.78125 74.21875 
" id="BitstreamVeraSans-Roman-30"/>
      </defs>
      <g transform="translate(55.5196875 401.918125)scale(0.12 -0.12)">
       <use xlink:href="#BitstreamVeraSans-Roman-2212"/>
       <use x="83.7890625" xlink:href="#BitstreamVeraSans-Roman-32"/>
       <use x="147.412109375" xlink:href="#BitstreamVeraSans-Roman-30"/>
       <use x="211.03515625" xlink:href="#BitstreamVeraSans-Roman-30"/>
      </g>
     </g>
    </g>
    <g id="xtick_2">
     <g id="line2d_3">
      <g>
       <use style="stroke:#000000;stroke-width:0.5;" x="178.285714286" xlink:href="#m66737a95d8" y="388.8"/>
      </g>
     </g>
     <g id="line2d_4">
      <g>
       <use style="stroke:#000000;stroke-width:0.5;" x="178.285714286" xlink:href="#m0277dd1c35" y="43.2"/>
      </g>
     </g>
     <g id="text_2">
      <!-- −150 -->
      <defs>
       <path d="M 12.40625 8.296875 
L 28.515625 8.296875 
L 28.515625 63.921875 
L 10.984375 60.40625 
L 10.984375 69.390625 
L 28.421875 72.90625 
L 38.28125 72.90625 
L 38.28125 8.296875 
L 54.390625 8.296875 
L 54.390625 0 
L 12.40625 0 
z
" id="BitstreamVeraSans-Roman-31"/>
       <path d="M 10.796875 72.90625 
L 49.515625 72.90625 
L 49.515625 64.59375 
L 19.828125 64.59375 
L 19.828125 46.734375 
Q 21.96875 47.46875 24.109375 47.828125 
Q 26.265625 48.1875 28.421875 48.1875 
Q 40.625 48.1875 47.75 41.5 
Q 54.890625 34.8125 54.890625 23.390625 
Q 54.890625 11.625 47.5625 5.09375 
Q 40.234375 -1.421875 26.90625 -1.421875 
Q 22.3125 -1.421875 17.546875 -0.640625 
Q 12.796875 0.140625 7.71875 1.703125 
L 7.71875 11.625 
Q 12.109375 9.234375 16.796875 8.0625 
Q 21.484375 6.890625 26.703125 6.890625 
Q 35.15625 6.890625 40.078125 11.328125 
Q 45.015625 15.765625 45.015625 23.390625 
Q 45.015625 31 40.078125 35.4375 
Q 35.15625 39.890625 26.703125 39.890625 
Q 22.75 39.890625 18.8125 39.015625 
Q 14.890625 38.140625 10.796875 36.28125 
z
" id="BitstreamVeraSans-Roman-35"/>
      </defs>
      <g transform="translate(161.805401786 401.918125)scale(0.12 -0.12)">
       <use xlink:href="#BitstreamVeraSans-Roman-2212"/>
       <use x="83.7890625" xlink:href="#BitstreamVeraSans-Roman-31"/>
       <use x="147.412109375" xlink:href="#BitstreamVeraSans-Roman-35"/>
       <use x="211.03515625" xlink:href="#BitstreamVeraSans-Roman-30"/>
      </g>
     </g>
    </g>
    <g id="xtick_3">
     <g id="line2d_5">
      <g>
       <use style="stroke:#000000;stroke-width:0.5;" x="284.571428571" xlink:href="#m66737a95d8" y="388.8"/>
      </g>
     </g>
     <g id="line2d_6">
      <g>
       <use style="stroke:#000000;stroke-width:0.5;" x="284.571428571" xlink:href="#m0277dd1c35" y="43.2"/>
      </g>
     </g>
     <g id="text_3">
      <!-- −100 -->
      <g transform="translate(268.091116071 401.918125)scale(0.12 -0.12)">
       <use xlink:href="#BitstreamVeraSans-Roman-2212"/>
       <use x="83.7890625" xlink:href="#BitstreamVeraSans-Roman-31"/>
       <use x="147.412109375" xlink:href="#BitstreamVeraSans-Roman-30"/>
       <use x="211.03515625" xlink:href="#BitstreamVeraSans-Roman-30"/>
      </g>
     </g>
    </g>
    <g id="xtick_4">
     <g id="line2d_7">
      <g>
       <use style="stroke:#000000;stroke-width:0.5;" x="390.857142857" xlink:href="#m66737a95d8" y="388.8"/>
      </g>
     </g>
     <g id="line2d_8">
      <g>
       <use style="stroke:#000000;stroke-width:0.5;" x="390.857142857" xlink:href="#m0277dd1c35" y="43.2"/>
      </g>
     </g>
     <g id="text_4">
      <!-- −50 -->
      <g transform="translate(378.194330357 401.918125)scale(0.12 -0.12)">
       <use xlink:href="#BitstreamVeraSans-Roman-2212"/>
       <use x="83.7890625" xlink:href="#BitstreamVeraSans-Roman-35"/>
       <use x="147.412109375" xlink:href="#BitstreamVeraSans-Roman-30"/>
      </g>
     </g>
    </g>
    <g id="xtick_5">
     <g id="line2d_9">
      <g>
       <use style="stroke:#000000;stroke-width:0.5;" x="497.142857143" xlink:href="#m66737a95d8" y="388.8"/>
      </g>
     </g>
     <g id="line2d_10">
      <g>
       <use style="stroke:#000000;stroke-width:0.5;" x="497.142857143" xlink:href="#m0277dd1c35" y="43.2"/>
      </g>
     </g>
     <g id="text_5">
      <!-- 0 -->
      <g transform="translate(493.325357143 401.918125)scale(0.12 -0.12)">
       <use xlink:href="#BitstreamVeraSans-Roman-30"/>
      </g>
     </g>
    </g>
   </g>
   <g id="matplotlib.axis_2">
    <g id="ytick_1">
     <g id="line2d_11">
      <defs>
       <path d="M 0 0 
L 4 0 
" id="m095aaf814d" style="stroke:#000000;stroke-width:0.5;"/>
      </defs>
      <g>
       <use style="stroke:#000000;stroke-width:0.5;" x="72.0" xlink:href="#m095aaf814d" y="388.8"/>
      </g>
     </g>
     <g id="line2d_12">
      <defs>
       <path d="M 0 0 
L -4 0 
" id="mdd58c697ab" style="stroke:#000000;stroke-width:0.5;"/>
      </defs>
      <g>
       <use style="stroke:#000000;stroke-width:0.5;" x="518.4" xlink:href="#mdd58c697ab" y="388.8"/>
      </g>
     </g>
     <g id="text_6">
      <!-- −200 -->
      <g transform="translate(35.039375 392.11125)scale(0.12 -0.12)">
       <use xlink:href="#BitstreamVeraSans-Roman-2212"/>
       <use x="83.7890625" xlink:href="#BitstreamVeraSans-Roman-32"/>
       <use x="147.412109375" xlink:href="#BitstreamVeraSans-Roman-30"/>
       <use x="211.03515625" xlink:href="#BitstreamVeraSans-Roman-30"/>
      </g>
     </g>
    </g>
    <g id="ytick_2">
     <g id="line2d_13">
      <g>
       <use style="stroke:#000000;stroke-width:0.5;" x="72.0" xlink:href="#m095aaf814d" y="306.514285714"/>
      </g>
     </g>
     <g id="line2d_14">
      <g>
       <use style="stroke:#000000;stroke-width:0.5;" x="518.4" xlink:href="#mdd58c697ab" y="306.514285714"/>
      </g>
     </g>
     <g id="text_7">
      <!-- −150 -->
      <g transform="translate(35.039375 309.825535714)scale(0.12 -0.12)">
       <use xlink:href="#BitstreamVeraSans-Roman-2212"/>
       <use x="83.7890625" xlink:href="#BitstreamVeraSans-Roman-31"/>
       <use x="147.412109375" xlink:href="#BitstreamVeraSans-Roman-35"/>
       <use x="211.03515625" xlink:href="#BitstreamVeraSans-Roman-30"/>
      </g>
     </g>
    </g>
    <g id="ytick_3">
     <g id="line2d_15">
      <g>
       <use style="stroke:#000000;stroke-width:0.5;" x="72.0" xlink:href="#m095aaf814d" y="224.228571429"/>
      </g>
     </g>
     <g id="line2d_16">
      <g>
       <use style="stroke:#000000;stroke-width:0.5;" x="518.4" xlink:href="#mdd58c697ab" y="224.228571429"/>
      </g>
     </g>
     <g id="text_8">
      <!-- −100 -->
      <g transform="translate(35.039375 227.539821429)scale(0.12 -0.12)">
       <use xlink:href="#BitstreamVeraSans-Roman-2212"/>
       <use x="83.7890625" xlink:href="#BitstreamVeraSans-Roman-31"/>
       <use x="147.412109375" xlink:href="#BitstreamVeraSans-Roman-30"/>
       <use x="211.03515625" xlink:href="#BitstreamVeraSans-Roman-30"/>
      </g>
     </g>
    </g>
    <g id="ytick_4">
     <g id="line2d_17">
      <g>
       <use style="stroke:#000000;stroke-width:0.5;" x="72.0" xlink:href="#m095aaf814d" y="141.942857143"/>
      </g>
     </g>
     <g id="line2d_18">
      <g>
       <use style="stroke:#000000;stroke-width:0.5;" x="518.4" xlink:href="#mdd58c697ab" y="141.942857143"/>
      </g>
     </g>
     <g id="text_9">
      <!-- −50 -->
      <g transform="translate(42.674375 145.254107143)scale(0.12 -0.12)">
       <use xlink:href="#BitstreamVeraSans-Roman-2212"/>
       <use x="83.7890625" xlink:href="#BitstreamVeraSans-Roman-35"/>
       <use x="147.412109375" xlink:href="#BitstreamVeraSans-Roman-30"/>
      </g>
     </g>
    </g>
    <g id="ytick_5">
     <g id="line2d_19">
      <g>
       <use style="stroke:#000000;stroke-width:0.5;" x="72.0" xlink:href="#m095aaf814d" y="59.6571428571"/>
      </g>
     </g>
     <g id="line2d_20">
      <g>
       <use style="stroke:#000000;stroke-width:0.5;" x="518.4" xlink:href="#mdd58c697ab" y="59.6571428571"/>
      </g>
     </g>
     <g id="text_10">
      <!-- 0 -->
      <g transform="translate(60.365 62.9683928571)scale(0.12 -0.12)">
       <use xlink:href="#BitstreamVeraSans-Roman-30"/>
      </g>
     </g>
    </g>
   </g>
  </g>
 </g>
 <defs>
  <clipPath id="p348c713b9e">
   <rect height="345.6" width="446.4" x="72.0" y="43.2"/>
  </clipPath>
 </defs>
</svg>
