<?xml version="1.0" encoding="utf-8" standalone="no"?>
<!DOCTYPE svg PUBLIC "-//W3C//DTD SVG 1.1//EN"
  "http://www.w3.org/Graphics/SVG/1.1/DTD/svg11.dtd">
<!-- Created with matplotlib (http://matplotlib.org/) -->
<svg height="345.6pt" version="1.1" viewBox="0 0 460.8 345.6" width="460.8pt" xmlns="http://www.w3.org/2000/svg" xmlns:xlink="http://www.w3.org/1999/xlink">
 <defs>
  <style type="text/css">
*{stroke-linecap:butt;stroke-linejoin:round;}
  </style>
 </defs>
 <g id="figure_1">
  <g id="patch_1">
   <path d="M 0 345.6 
L 460.8 345.6 
L 460.8 0 
L 0 0 
z
" style="fill:#ffffff;"/>
  </g>
  <g id="axes_1">
   <g id="patch_2">
    <path d="M 57.6 307.584 
L 414.72 307.584 
L 414.72 41.472 
L 57.6 41.472 
z
" style="fill:#ffffff;"/>
   </g>
   <g id="PathCollection_1">
    <defs>
     <path d="M 0 0.612372 
C 0.162403 0.612372 0.318176 0.547849 0.433013 0.433013 
C 0.547849 0.318176 0.612372 0.162403 0.612372 0 
C 0.612372 -0.162403 0.547849 -0.318176 0.433013 -0.433013 
C 0.318176 -0.547849 0.162403 -0.612372 0 -0.612372 
C -0.162403 -0.612372 -0.318176 -0.547849 -0.433013 -0.433013 
C -0.547849 -0.318176 -0.612372 -0.162403 -0.612372 0 
C -0.612372 0.162403 -0.547849 0.318176 -0.433013 0.433013 
C -0.318176 0.547849 -0.162403 0.612372 0 0.612372 
z
" id="mb50aca9c6b" style="stroke:#000000;"/>
    </defs>
    <g clip-path="url(#p5a7e382f4d)">
     <use style="stroke:#000000;" x="345.815501" xlink:href="#mb50aca9c6b" y="140.916504"/>
     <use style="stroke:#000000;" x="324.217868" xlink:href="#mb50aca9c6b" y="118.119763"/>
     <use style="stroke:#000000;" x="358.946558" xlink:href="#mb50aca9c6b" y="141.434674"/>
     <use style="stroke:#000000;" x="235.496313" xlink:href="#mb50aca9c6b" y="98.57069"/>
     <use style="stroke:#000000;" x="274.395532" xlink:href="#mb50aca9c6b" y="103.951317"/>
     <use style="stroke:#000000;" x="366.100043" xlink:href="#mb50aca9c6b" y="146.421301"/>
     <use style="stroke:#000000;" x="186.435174" xlink:href="#mb50aca9c6b" y="96.543571"/>
     <use style="stroke:#000000;" x="343.554745" xlink:href="#mb50aca9c6b" y="140.158557"/>
     <use style="stroke:#000000;" x="347.082704" xlink:href="#mb50aca9c6b" y="141.195632"/>
     <use style="stroke:#000000;" x="314.249534" xlink:href="#mb50aca9c6b" y="109.974686"/>
     <use style="stroke:#000000;" x="375.267995" xlink:href="#mb50aca9c6b" y="153.43412"/>
     <use style="stroke:#000000;" x="374.715986" xlink:href="#mb50aca9c6b" y="152.9506"/>
     <use style="stroke:#000000;" x="338.850969" xlink:href="#mb50aca9c6b" y="134.860362"/>
     <use style="stroke:#000000;" x="384.429194" xlink:href="#mb50aca9c6b" y="172.511149"/>
     <use style="stroke:#000000;" x="306.923622" xlink:href="#mb50aca9c6b" y="108.989576"/>
     <use style="stroke:#000000;" x="361.287736" xlink:href="#mb50aca9c6b" y="144.424815"/>
     <use style="stroke:#000000;" x="384.807527" xlink:href="#mb50aca9c6b" y="173.358656"/>
     <use style="stroke:#000000;" x="344.048419" xlink:href="#mb50aca9c6b" y="142.252409"/>
     <use style="stroke:#000000;" x="314.261269" xlink:href="#mb50aca9c6b" y="131.729535"/>
     <use style="stroke:#000000;" x="371.022373" xlink:href="#mb50aca9c6b" y="157.038798"/>
     <use style="stroke:#000000;" x="374.249024" xlink:href="#mb50aca9c6b" y="176.290769"/>
     <use style="stroke:#000000;" x="222.001191" xlink:href="#mb50aca9c6b" y="101.845774"/>
     <use style="stroke:#000000;" x="355.846382" xlink:href="#mb50aca9c6b" y="143.552432"/>
     <use style="stroke:#000000;" x="270.279065" xlink:href="#mb50aca9c6b" y="107.388173"/>
     <use style="stroke:#000000;" x="300.841418" xlink:href="#mb50aca9c6b" y="110.61598"/>
     <use style="stroke:#000000;" x="361.008722" xlink:href="#mb50aca9c6b" y="145.529888"/>
     <use style="stroke:#000000;" x="330.919442" xlink:href="#mb50aca9c6b" y="140.962003"/>
     <use style="stroke:#000000;" x="324.572889" xlink:href="#mb50aca9c6b" y="137.005664"/>
     <use style="stroke:#000000;" x="383.890009" xlink:href="#mb50aca9c6b" y="176.445901"/>
     <use style="stroke:#000000;" x="325.938569" xlink:href="#mb50aca9c6b" y="138.265461"/>
     <use style="stroke:#000000;" x="312.405283" xlink:href="#mb50aca9c6b" y="114.688771"/>
     <use style="stroke:#000000;" x="343.965353" xlink:href="#mb50aca9c6b" y="145.782302"/>
     <use style="stroke:#000000;" x="382.01406" xlink:href="#mb50aca9c6b" y="178.548681"/>
     <use style="stroke:#000000;" x="186.124331" xlink:href="#mb50aca9c6b" y="109.444483"/>
     <use style="stroke:#000000;" x="185.203118" xlink:href="#mb50aca9c6b" y="104.723324"/>
     <use style="stroke:#000000;" x="343.155565" xlink:href="#mb50aca9c6b" y="145.513124"/>
     <use style="stroke:#000000;" x="366.608197" xlink:href="#mb50aca9c6b" y="174.995653"/>
     <use style="stroke:#000000;" x="262.310083" xlink:href="#mb50aca9c6b" y="113.394337"/>
     <use style="stroke:#000000;" x="357.413815" xlink:href="#mb50aca9c6b" y="146.131897"/>
     <use style="stroke:#000000;" x="366.594869" xlink:href="#mb50aca9c6b" y="162.043692"/>
     <use style="stroke:#000000;" x="286.635478" xlink:href="#mb50aca9c6b" y="120.575888"/>
     <use style="stroke:#000000;" x="271.446211" xlink:href="#mb50aca9c6b" y="120.162093"/>
     <use style="stroke:#000000;" x="311.112768" xlink:href="#mb50aca9c6b" y="128.828141"/>
     <use style="stroke:#000000;" x="325.389371" xlink:href="#mb50aca9c6b" y="139.536433"/>
     <use style="stroke:#000000;" x="381.473385" xlink:href="#mb50aca9c6b" y="178.2461"/>
     <use style="stroke:#000000;" x="334.421882" xlink:href="#mb50aca9c6b" y="146.2984"/>
     <use style="stroke:#000000;" x="374.713002" xlink:href="#mb50aca9c6b" y="182.770601"/>
     <use style="stroke:#000000;" x="180.514048" xlink:href="#mb50aca9c6b" y="107.903271"/>
     <use style="stroke:#000000;" x="361.527764" xlink:href="#mb50aca9c6b" y="167.943069"/>
     <use style="stroke:#000000;" x="366.22298" xlink:href="#mb50aca9c6b" y="169.072705"/>
     <use style="stroke:#000000;" x="205.09795" xlink:href="#mb50aca9c6b" y="119.125835"/>
     <use style="stroke:#000000;" x="298.082433" xlink:href="#mb50aca9c6b" y="129.079594"/>
     <use style="stroke:#000000;" x="352.671327" xlink:href="#mb50aca9c6b" y="148.888442"/>
     <use style="stroke:#000000;" x="310.552697" xlink:href="#mb50aca9c6b" y="132.148782"/>
     <use style="stroke:#000000;" x="349.301901" xlink:href="#mb50aca9c6b" y="148.161873"/>
     <use style="stroke:#000000;" x="322.508422" xlink:href="#mb50aca9c6b" y="140.552267"/>
     <use style="stroke:#000000;" x="353.271151" xlink:href="#mb50aca9c6b" y="149.518474"/>
     <use style="stroke:#000000;" x="381.413163" xlink:href="#mb50aca9c6b" y="185.401951"/>
     <use style="stroke:#000000;" x="303.065401" xlink:href="#mb50aca9c6b" y="148.14852"/>
     <use style="stroke:#000000;" x="373.742699" xlink:href="#mb50aca9c6b" y="186.940274"/>
     <use style="stroke:#000000;" x="361.442406" xlink:href="#mb50aca9c6b" y="168.648307"/>
     <use style="stroke:#000000;" x="319.343166" xlink:href="#mb50aca9c6b" y="148.634486"/>
     <use style="stroke:#000000;" x="364.955547" xlink:href="#mb50aca9c6b" y="174.763687"/>
     <use style="stroke:#000000;" x="352.428193" xlink:href="#mb50aca9c6b" y="149.455245"/>
     <use style="stroke:#000000;" x="174.243297" xlink:href="#mb50aca9c6b" y="121.275399"/>
     <use style="stroke:#000000;" x="265.021999" xlink:href="#mb50aca9c6b" y="136.593628"/>
     <use style="stroke:#000000;" x="189.783817" xlink:href="#mb50aca9c6b" y="129.046155"/>
     <use style="stroke:#000000;" x="172.077747" xlink:href="#mb50aca9c6b" y="114.217294"/>
     <use style="stroke:#000000;" x="363.753626" xlink:href="#mb50aca9c6b" y="174.548135"/>
     <use style="stroke:#000000;" x="288.388394" xlink:href="#mb50aca9c6b" y="143.442601"/>
     <use style="stroke:#000000;" x="234.987279" xlink:href="#mb50aca9c6b" y="130.07022"/>
     <use style="stroke:#000000;" x="350.319205" xlink:href="#mb50aca9c6b" y="157.551987"/>
     <use style="stroke:#000000;" x="366.909856" xlink:href="#mb50aca9c6b" y="210.151652"/>
     <use style="stroke:#000000;" x="173.514464" xlink:href="#mb50aca9c6b" y="130.359758"/>
     <use style="stroke:#000000;" x="132.408161" xlink:href="#mb50aca9c6b" y="125.731865"/>
     <use style="stroke:#000000;" x="354.094145" xlink:href="#mb50aca9c6b" y="172.069657"/>
     <use style="stroke:#000000;" x="360.001752" xlink:href="#mb50aca9c6b" y="173.611827"/>
     <use style="stroke:#000000;" x="183.167185" xlink:href="#mb50aca9c6b" y="130.808025"/>
     <use style="stroke:#000000;" x="360.227378" xlink:href="#mb50aca9c6b" y="197.082034"/>
     <use style="stroke:#000000;" x="346.245705" xlink:href="#mb50aca9c6b" y="150.170897"/>
     <use style="stroke:#000000;" x="350.003816" xlink:href="#mb50aca9c6b" y="155.357221"/>
     <use style="stroke:#000000;" x="257.799307" xlink:href="#mb50aca9c6b" y="140.329208"/>
     <use style="stroke:#000000;" x="351.913454" xlink:href="#mb50aca9c6b" y="160.859269"/>
     <use style="stroke:#000000;" x="262.138405" xlink:href="#mb50aca9c6b" y="144.65723"/>
     <use style="stroke:#000000;" x="287.696499" xlink:href="#mb50aca9c6b" y="146.101823"/>
     <use style="stroke:#000000;" x="218.22182" xlink:href="#mb50aca9c6b" y="133.469936"/>
     <use style="stroke:#000000;" x="351.590995" xlink:href="#mb50aca9c6b" y="171.001302"/>
     <use style="stroke:#000000;" x="361.386732" xlink:href="#mb50aca9c6b" y="212.784467"/>
     <use style="stroke:#000000;" x="198.991519" xlink:href="#mb50aca9c6b" y="145.78039"/>
     <use style="stroke:#000000;" x="351.719731" xlink:href="#mb50aca9c6b" y="199.012434"/>
     <use style="stroke:#000000;" x="217.718067" xlink:href="#mb50aca9c6b" y="146.673209"/>
     <use style="stroke:#000000;" x="183.095003" xlink:href="#mb50aca9c6b" y="132.862776"/>
     <use style="stroke:#000000;" x="345.162336" xlink:href="#mb50aca9c6b" y="156.025165"/>
     <use style="stroke:#000000;" x="357.454491" xlink:href="#mb50aca9c6b" y="199.612899"/>
     <use style="stroke:#000000;" x="344.641578" xlink:href="#mb50aca9c6b" y="150.18802"/>
     <use style="stroke:#000000;" x="272.194112" xlink:href="#mb50aca9c6b" y="148.238894"/>
     <use style="stroke:#000000;" x="187.544786" xlink:href="#mb50aca9c6b" y="134.407413"/>
     <use style="stroke:#000000;" x="346.10331" xlink:href="#mb50aca9c6b" y="176.825769"/>
     <use style="stroke:#000000;" x="360.501887" xlink:href="#mb50aca9c6b" y="215.012253"/>
     <use style="stroke:#000000;" x="191.557951" xlink:href="#mb50aca9c6b" y="147.986538"/>
     <use style="stroke:#000000;" x="345.950061" xlink:href="#mb50aca9c6b" y="156.676045"/>
     <use style="stroke:#000000;" x="328.140092" xlink:href="#mb50aca9c6b" y="183.3373"/>
     <use style="stroke:#000000;" x="348.225423" xlink:href="#mb50aca9c6b" y="141.396578"/>
     <use style="stroke:#000000;" x="222.701718" xlink:href="#mb50aca9c6b" y="179.371768"/>
     <use style="stroke:#000000;" x="253.973077" xlink:href="#mb50aca9c6b" y="96.73251"/>
     <use style="stroke:#000000;" x="329.07899" xlink:href="#mb50aca9c6b" y="171.684769"/>
     <use style="stroke:#000000;" x="212.287051" xlink:href="#mb50aca9c6b" y="226.158807"/>
     <use style="stroke:#000000;" x="344.236598" xlink:href="#mb50aca9c6b" y="140.442919"/>
     <use style="stroke:#000000;" x="347.61086" xlink:href="#mb50aca9c6b" y="160.40155"/>
     <use style="stroke:#000000;" x="334.354777" xlink:href="#mb50aca9c6b" y="167.928281"/>
     <use style="stroke:#000000;" x="353.257889" xlink:href="#mb50aca9c6b" y="161.649795"/>
     <use style="stroke:#000000;" x="379.260222" xlink:href="#mb50aca9c6b" y="177.903249"/>
     <use style="stroke:#000000;" x="357.548869" xlink:href="#mb50aca9c6b" y="158.567759"/>
     <use style="stroke:#000000;" x="363.010213" xlink:href="#mb50aca9c6b" y="194.423367"/>
     <use style="stroke:#000000;" x="302.064806" xlink:href="#mb50aca9c6b" y="112.124389"/>
     <use style="stroke:#000000;" x="361.841158" xlink:href="#mb50aca9c6b" y="159.843879"/>
     <use style="stroke:#000000;" x="362.16619" xlink:href="#mb50aca9c6b" y="145.467266"/>
     <use style="stroke:#000000;" x="310.80239" xlink:href="#mb50aca9c6b" y="244.604027"/>
     <use style="stroke:#000000;" x="299.158911" xlink:href="#mb50aca9c6b" y="176.509005"/>
     <use style="stroke:#000000;" x="355.860706" xlink:href="#mb50aca9c6b" y="204.922707"/>
     <use style="stroke:#000000;" x="341.543855" xlink:href="#mb50aca9c6b" y="157.774301"/>
     <use style="stroke:#000000;" x="223.425665" xlink:href="#mb50aca9c6b" y="273.694834"/>
     <use style="stroke:#000000;" x="340.518774" xlink:href="#mb50aca9c6b" y="216.639284"/>
     <use style="stroke:#000000;" x="245.951509" xlink:href="#mb50aca9c6b" y="149.250304"/>
     <use style="stroke:#000000;" x="329.859425" xlink:href="#mb50aca9c6b" y="219.063363"/>
     <use style="stroke:#000000;" x="321.513509" xlink:href="#mb50aca9c6b" y="217.056689"/>
     <use style="stroke:#000000;" x="366.84738" xlink:href="#mb50aca9c6b" y="160.959092"/>
     <use style="stroke:#000000;" x="351.921377" xlink:href="#mb50aca9c6b" y="200.632633"/>
     <use style="stroke:#000000;" x="373.57479" xlink:href="#mb50aca9c6b" y="175.478565"/>
     <use style="stroke:#000000;" x="293.215493" xlink:href="#mb50aca9c6b" y="216.53186"/>
     <use style="stroke:#000000;" x="327.162662" xlink:href="#mb50aca9c6b" y="178.93619"/>
     <use style="stroke:#000000;" x="372.094381" xlink:href="#mb50aca9c6b" y="189.645754"/>
     <use style="stroke:#000000;" x="339.411429" xlink:href="#mb50aca9c6b" y="146.329162"/>
     <use style="stroke:#000000;" x="192.442627" xlink:href="#mb50aca9c6b" y="123.118741"/>
     <use style="stroke:#000000;" x="198.230663" xlink:href="#mb50aca9c6b" y="220.255699"/>
     <use style="stroke:#000000;" x="285.038379" xlink:href="#mb50aca9c6b" y="123.068493"/>
     <use style="stroke:#000000;" x="344.326464" xlink:href="#mb50aca9c6b" y="162.898377"/>
     <use style="stroke:#000000;" x="283.500213" xlink:href="#mb50aca9c6b" y="230.633838"/>
     <use style="stroke:#000000;" x="360.697103" xlink:href="#mb50aca9c6b" y="143.488603"/>
     <use style="stroke:#000000;" x="311.568305" xlink:href="#mb50aca9c6b" y="106.407335"/>
     <use style="stroke:#000000;" x="248.419441" xlink:href="#mb50aca9c6b" y="200.923985"/>
     <use style="stroke:#000000;" x="256.732736" xlink:href="#mb50aca9c6b" y="170.326418"/>
     <use style="stroke:#000000;" x="308.132734" xlink:href="#mb50aca9c6b" y="105.564263"/>
     <use style="stroke:#000000;" x="301.362403" xlink:href="#mb50aca9c6b" y="190.689625"/>
     <use style="stroke:#000000;" x="338.936162" xlink:href="#mb50aca9c6b" y="146.329549"/>
     <use style="stroke:#000000;" x="344.060796" xlink:href="#mb50aca9c6b" y="231.711511"/>
     <use style="stroke:#000000;" x="377.148915" xlink:href="#mb50aca9c6b" y="174.000792"/>
     <use style="stroke:#000000;" x="182.382925" xlink:href="#mb50aca9c6b" y="282.782829"/>
     <use style="stroke:#000000;" x="364.784708" xlink:href="#mb50aca9c6b" y="155.347276"/>
     <use style="stroke:#000000;" x="356.0514" xlink:href="#mb50aca9c6b" y="164.885159"/>
    </g>
   </g>
   <g id="PathCollection_2">
    <defs>
     <path d="M 0 0.935414 
C 0.248075 0.935414 0.486022 0.836853 0.661438 0.661438 
C 0.836853 0.486022 0.935414 0.248075 0.935414 0 
C 0.935414 -0.248075 0.836853 -0.486022 0.661438 -0.661438 
C 0.486022 -0.836853 0.248075 -0.935414 0 -0.935414 
C -0.248075 -0.935414 -0.486022 -0.836853 -0.661438 -0.661438 
C -0.836853 -0.486022 -0.935414 -0.248075 -0.935414 0 
C -0.935414 0.248075 -0.836853 0.486022 -0.661438 0.661438 
C -0.486022 0.836853 -0.248075 0.935414 0 0.935414 
z
" id="m723e980507" style="stroke:#0000ff;"/>
    </defs>
    <g clip-path="url(#p5a7e382f4d)">
     <use style="fill:#0000ff;stroke:#0000ff;" x="345.815501" xlink:href="#m723e980507" y="140.916504"/>
     <use style="fill:#0000ff;stroke:#0000ff;" x="324.217868" xlink:href="#m723e980507" y="118.119763"/>
     <use style="fill:#0000ff;stroke:#0000ff;" x="358.946558" xlink:href="#m723e980507" y="141.434674"/>
     <use style="fill:#0000ff;stroke:#0000ff;" x="235.496313" xlink:href="#m723e980507" y="98.57069"/>
     <use style="fill:#0000ff;stroke:#0000ff;" x="274.395532" xlink:href="#m723e980507" y="103.951317"/>
     <use style="fill:#0000ff;stroke:#0000ff;" x="366.100043" xlink:href="#m723e980507" y="146.421301"/>
     <use style="fill:#0000ff;stroke:#0000ff;" x="186.435174" xlink:href="#m723e980507" y="96.543571"/>
     <use style="fill:#0000ff;stroke:#0000ff;" x="343.554745" xlink:href="#m723e980507" y="140.158557"/>
     <use style="fill:#0000ff;stroke:#0000ff;" x="347.082704" xlink:href="#m723e980507" y="141.195632"/>
     <use style="fill:#0000ff;stroke:#0000ff;" x="314.249534" xlink:href="#m723e980507" y="109.974686"/>
     <use style="fill:#0000ff;stroke:#0000ff;" x="375.267995" xlink:href="#m723e980507" y="153.43412"/>
     <use style="fill:#0000ff;stroke:#0000ff;" x="374.715986" xlink:href="#m723e980507" y="152.9506"/>
     <use style="fill:#0000ff;stroke:#0000ff;" x="338.850969" xlink:href="#m723e980507" y="134.860362"/>
     <use style="fill:#0000ff;stroke:#0000ff;" x="384.429194" xlink:href="#m723e980507" y="172.511149"/>
     <use style="fill:#0000ff;stroke:#0000ff;" x="306.923622" xlink:href="#m723e980507" y="108.989576"/>
     <use style="fill:#0000ff;stroke:#0000ff;" x="361.287736" xlink:href="#m723e980507" y="144.424815"/>
     <use style="fill:#0000ff;stroke:#0000ff;" x="384.807527" xlink:href="#m723e980507" y="173.358656"/>
     <use style="fill:#0000ff;stroke:#0000ff;" x="344.048419" xlink:href="#m723e980507" y="142.252409"/>
     <use style="fill:#0000ff;stroke:#0000ff;" x="314.261269" xlink:href="#m723e980507" y="131.729535"/>
     <use style="fill:#0000ff;stroke:#0000ff;" x="371.022373" xlink:href="#m723e980507" y="157.038798"/>
     <use style="fill:#0000ff;stroke:#0000ff;" x="374.249024" xlink:href="#m723e980507" y="176.290769"/>
     <use style="fill:#0000ff;stroke:#0000ff;" x="222.001191" xlink:href="#m723e980507" y="101.845774"/>
     <use style="fill:#0000ff;stroke:#0000ff;" x="355.846382" xlink:href="#m723e980507" y="143.552432"/>
     <use style="fill:#0000ff;stroke:#0000ff;" x="270.279065" xlink:href="#m723e980507" y="107.388173"/>
     <use style="fill:#0000ff;stroke:#0000ff;" x="300.841418" xlink:href="#m723e980507" y="110.61598"/>
     <use style="fill:#0000ff;stroke:#0000ff;" x="361.008722" xlink:href="#m723e980507" y="145.529888"/>
     <use style="fill:#0000ff;stroke:#0000ff;" x="330.919442" xlink:href="#m723e980507" y="140.962003"/>
     <use style="fill:#0000ff;stroke:#0000ff;" x="324.572889" xlink:href="#m723e980507" y="137.005664"/>
     <use style="fill:#0000ff;stroke:#0000ff;" x="383.890009" xlink:href="#m723e980507" y="176.445901"/>
     <use style="fill:#0000ff;stroke:#0000ff;" x="325.938569" xlink:href="#m723e980507" y="138.265461"/>
     <use style="fill:#0000ff;stroke:#0000ff;" x="312.405283" xlink:href="#m723e980507" y="114.688771"/>
     <use style="fill:#0000ff;stroke:#0000ff;" x="343.965353" xlink:href="#m723e980507" y="145.782302"/>
     <use style="fill:#0000ff;stroke:#0000ff;" x="382.01406" xlink:href="#m723e980507" y="178.548681"/>
     <use style="fill:#0000ff;stroke:#0000ff;" x="186.124331" xlink:href="#m723e980507" y="109.444483"/>
     <use style="fill:#0000ff;stroke:#0000ff;" x="185.203118" xlink:href="#m723e980507" y="104.723324"/>
     <use style="fill:#0000ff;stroke:#0000ff;" x="343.155565" xlink:href="#m723e980507" y="145.513124"/>
     <use style="fill:#0000ff;stroke:#0000ff;" x="366.608197" xlink:href="#m723e980507" y="174.995653"/>
     <use style="fill:#0000ff;stroke:#0000ff;" x="262.310083" xlink:href="#m723e980507" y="113.394337"/>
     <use style="fill:#0000ff;stroke:#0000ff;" x="357.413815" xlink:href="#m723e980507" y="146.131897"/>
     <use style="fill:#0000ff;stroke:#0000ff;" x="366.594869" xlink:href="#m723e980507" y="162.043692"/>
     <use style="fill:#0000ff;stroke:#0000ff;" x="286.635478" xlink:href="#m723e980507" y="120.575888"/>
     <use style="fill:#0000ff;stroke:#0000ff;" x="271.446211" xlink:href="#m723e980507" y="120.162093"/>
     <use style="fill:#0000ff;stroke:#0000ff;" x="311.112768" xlink:href="#m723e980507" y="128.828141"/>
     <use style="fill:#0000ff;stroke:#0000ff;" x="325.389371" xlink:href="#m723e980507" y="139.536433"/>
     <use style="fill:#0000ff;stroke:#0000ff;" x="381.473385" xlink:href="#m723e980507" y="178.2461"/>
     <use style="fill:#0000ff;stroke:#0000ff;" x="334.421882" xlink:href="#m723e980507" y="146.2984"/>
     <use style="fill:#0000ff;stroke:#0000ff;" x="374.713002" xlink:href="#m723e980507" y="182.770601"/>
     <use style="fill:#0000ff;stroke:#0000ff;" x="180.514048" xlink:href="#m723e980507" y="107.903271"/>
     <use style="fill:#0000ff;stroke:#0000ff;" x="361.527764" xlink:href="#m723e980507" y="167.943069"/>
     <use style="fill:#0000ff;stroke:#0000ff;" x="366.22298" xlink:href="#m723e980507" y="169.072705"/>
     <use style="fill:#0000ff;stroke:#0000ff;" x="205.09795" xlink:href="#m723e980507" y="119.125835"/>
     <use style="fill:#0000ff;stroke:#0000ff;" x="298.082433" xlink:href="#m723e980507" y="129.079594"/>
     <use style="fill:#0000ff;stroke:#0000ff;" x="352.671327" xlink:href="#m723e980507" y="148.888442"/>
     <use style="fill:#0000ff;stroke:#0000ff;" x="310.552697" xlink:href="#m723e980507" y="132.148782"/>
     <use style="fill:#0000ff;stroke:#0000ff;" x="349.301901" xlink:href="#m723e980507" y="148.161873"/>
     <use style="fill:#0000ff;stroke:#0000ff;" x="322.508422" xlink:href="#m723e980507" y="140.552267"/>
     <use style="fill:#0000ff;stroke:#0000ff;" x="353.271151" xlink:href="#m723e980507" y="149.518474"/>
     <use style="fill:#0000ff;stroke:#0000ff;" x="381.413163" xlink:href="#m723e980507" y="185.401951"/>
     <use style="fill:#0000ff;stroke:#0000ff;" x="303.065401" xlink:href="#m723e980507" y="148.14852"/>
     <use style="fill:#0000ff;stroke:#0000ff;" x="373.742699" xlink:href="#m723e980507" y="186.940274"/>
     <use style="fill:#0000ff;stroke:#0000ff;" x="361.442406" xlink:href="#m723e980507" y="168.648307"/>
     <use style="fill:#0000ff;stroke:#0000ff;" x="319.343166" xlink:href="#m723e980507" y="148.634486"/>
     <use style="fill:#0000ff;stroke:#0000ff;" x="364.955547" xlink:href="#m723e980507" y="174.763687"/>
     <use style="fill:#0000ff;stroke:#0000ff;" x="352.428193" xlink:href="#m723e980507" y="149.455245"/>
     <use style="fill:#0000ff;stroke:#0000ff;" x="174.243297" xlink:href="#m723e980507" y="121.275399"/>
     <use style="fill:#0000ff;stroke:#0000ff;" x="265.021999" xlink:href="#m723e980507" y="136.593628"/>
     <use style="fill:#0000ff;stroke:#0000ff;" x="189.783817" xlink:href="#m723e980507" y="129.046155"/>
     <use style="fill:#0000ff;stroke:#0000ff;" x="172.077747" xlink:href="#m723e980507" y="114.217294"/>
     <use style="fill:#0000ff;stroke:#0000ff;" x="363.753626" xlink:href="#m723e980507" y="174.548135"/>
     <use style="fill:#0000ff;stroke:#0000ff;" x="288.388394" xlink:href="#m723e980507" y="143.442601"/>
     <use style="fill:#0000ff;stroke:#0000ff;" x="234.987279" xlink:href="#m723e980507" y="130.07022"/>
     <use style="fill:#0000ff;stroke:#0000ff;" x="350.319205" xlink:href="#m723e980507" y="157.551987"/>
     <use style="fill:#0000ff;stroke:#0000ff;" x="366.909856" xlink:href="#m723e980507" y="210.151652"/>
     <use style="fill:#0000ff;stroke:#0000ff;" x="173.514464" xlink:href="#m723e980507" y="130.359758"/>
     <use style="fill:#0000ff;stroke:#0000ff;" x="132.408161" xlink:href="#m723e980507" y="125.731865"/>
     <use style="fill:#0000ff;stroke:#0000ff;" x="354.094145" xlink:href="#m723e980507" y="172.069657"/>
     <use style="fill:#0000ff;stroke:#0000ff;" x="360.001752" xlink:href="#m723e980507" y="173.611827"/>
     <use style="fill:#0000ff;stroke:#0000ff;" x="183.167185" xlink:href="#m723e980507" y="130.808025"/>
     <use style="fill:#0000ff;stroke:#0000ff;" x="360.227378" xlink:href="#m723e980507" y="197.082034"/>
     <use style="fill:#0000ff;stroke:#0000ff;" x="346.245705" xlink:href="#m723e980507" y="150.170897"/>
     <use style="fill:#0000ff;stroke:#0000ff;" x="350.003816" xlink:href="#m723e980507" y="155.357221"/>
     <use style="fill:#0000ff;stroke:#0000ff;" x="257.799307" xlink:href="#m723e980507" y="140.329208"/>
     <use style="fill:#0000ff;stroke:#0000ff;" x="351.913454" xlink:href="#m723e980507" y="160.859269"/>
     <use style="fill:#0000ff;stroke:#0000ff;" x="262.138405" xlink:href="#m723e980507" y="144.65723"/>
     <use style="fill:#0000ff;stroke:#0000ff;" x="287.696499" xlink:href="#m723e980507" y="146.101823"/>
     <use style="fill:#0000ff;stroke:#0000ff;" x="218.22182" xlink:href="#m723e980507" y="133.469936"/>
     <use style="fill:#0000ff;stroke:#0000ff;" x="351.590995" xlink:href="#m723e980507" y="171.001302"/>
     <use style="fill:#0000ff;stroke:#0000ff;" x="361.386732" xlink:href="#m723e980507" y="212.784467"/>
     <use style="fill:#0000ff;stroke:#0000ff;" x="198.991519" xlink:href="#m723e980507" y="145.78039"/>
     <use style="fill:#0000ff;stroke:#0000ff;" x="351.719731" xlink:href="#m723e980507" y="199.012434"/>
     <use style="fill:#0000ff;stroke:#0000ff;" x="217.718067" xlink:href="#m723e980507" y="146.673209"/>
     <use style="fill:#0000ff;stroke:#0000ff;" x="183.095003" xlink:href="#m723e980507" y="132.862776"/>
     <use style="fill:#0000ff;stroke:#0000ff;" x="345.162336" xlink:href="#m723e980507" y="156.025165"/>
     <use style="fill:#0000ff;stroke:#0000ff;" x="357.454491" xlink:href="#m723e980507" y="199.612899"/>
     <use style="fill:#0000ff;stroke:#0000ff;" x="344.641578" xlink:href="#m723e980507" y="150.18802"/>
     <use style="fill:#0000ff;stroke:#0000ff;" x="272.194112" xlink:href="#m723e980507" y="148.238894"/>
     <use style="fill:#0000ff;stroke:#0000ff;" x="187.544786" xlink:href="#m723e980507" y="134.407413"/>
     <use style="fill:#0000ff;stroke:#0000ff;" x="346.10331" xlink:href="#m723e980507" y="176.825769"/>
     <use style="fill:#0000ff;stroke:#0000ff;" x="360.501887" xlink:href="#m723e980507" y="215.012253"/>
     <use style="fill:#0000ff;stroke:#0000ff;" x="191.557951" xlink:href="#m723e980507" y="147.986538"/>
    </g>
   </g>
   <g id="matplotlib.axis_1">
    <g id="xtick_1">
     <g id="line2d_1">
      <defs>
       <path d="M 0 0 
L 0 3.5 
" id="m8f10d79044" style="stroke:#000000;stroke-width:0.8;"/>
      </defs>
      <g>
       <use style="stroke:#000000;stroke-width:0.8;" x="57.6" xlink:href="#m8f10d79044" y="307.584"/>
      </g>
     </g>
     <g id="text_1">
      <!-- 4 -->
      <defs>
       <path d="M 37.796875 64.3125 
L 12.890625 25.390625 
L 37.796875 25.390625 
z
M 35.203125 72.90625 
L 47.609375 72.90625 
L 47.609375 25.390625 
L 58.015625 25.390625 
L 58.015625 17.1875 
L 47.609375 17.1875 
L 47.609375 0 
L 37.796875 0 
L 37.796875 17.1875 
L 4.890625 17.1875 
L 4.890625 26.703125 
z
" id="DejaVuSans-34"/>
      </defs>
      <g transform="translate(54.41875 322.182437)scale(0.1 -0.1)">
       <use xlink:href="#DejaVuSans-34"/>
      </g>
     </g>
    </g>
    <g id="xtick_2">
     <g id="line2d_2">
      <g>
       <use style="stroke:#000000;stroke-width:0.8;" x="102.24" xlink:href="#m8f10d79044" y="307.584"/>
      </g>
     </g>
     <g id="text_2">
      <!-- 6 -->
      <defs>
       <path d="M 33.015625 40.375 
Q 26.375 40.375 22.484375 35.828125 
Q 18.609375 31.296875 18.609375 23.390625 
Q 18.609375 15.53125 22.484375 10.953125 
Q 26.375 6.390625 33.015625 6.390625 
Q 39.65625 6.390625 43.53125 10.953125 
Q 47.40625 15.53125 47.40625 23.390625 
Q 47.40625 31.296875 43.53125 35.828125 
Q 39.65625 40.375 33.015625 40.375 
z
M 52.59375 71.296875 
L 52.59375 62.3125 
Q 48.875 64.0625 45.09375 64.984375 
Q 41.3125 65.921875 37.59375 65.921875 
Q 27.828125 65.921875 22.671875 59.328125 
Q 17.53125 52.734375 16.796875 39.40625 
Q 19.671875 43.65625 24.015625 45.921875 
Q 28.375 48.1875 33.59375 48.1875 
Q 44.578125 48.1875 50.953125 41.515625 
Q 57.328125 34.859375 57.328125 23.390625 
Q 57.328125 12.15625 50.6875 5.359375 
Q 44.046875 -1.421875 33.015625 -1.421875 
Q 20.359375 -1.421875 13.671875 8.265625 
Q 6.984375 17.96875 6.984375 36.375 
Q 6.984375 53.65625 15.1875 63.9375 
Q 23.390625 74.21875 37.203125 74.21875 
Q 40.921875 74.21875 44.703125 73.484375 
Q 48.484375 72.75 52.59375 71.296875 
z
" id="DejaVuSans-36"/>
      </defs>
      <g transform="translate(99.05875 322.182437)scale(0.1 -0.1)">
       <use xlink:href="#DejaVuSans-36"/>
      </g>
     </g>
    </g>
    <g id="xtick_3">
     <g id="line2d_3">
      <g>
       <use style="stroke:#000000;stroke-width:0.8;" x="146.88" xlink:href="#m8f10d79044" y="307.584"/>
      </g>
     </g>
     <g id="text_3">
      <!-- 8 -->
      <defs>
       <path d="M 31.78125 34.625 
Q 24.75 34.625 20.71875 30.859375 
Q 16.703125 27.09375 16.703125 20.515625 
Q 16.703125 13.921875 20.71875 10.15625 
Q 24.75 6.390625 31.78125 6.390625 
Q 38.8125 6.390625 42.859375 10.171875 
Q 46.921875 13.96875 46.921875 20.515625 
Q 46.921875 27.09375 42.890625 30.859375 
Q 38.875 34.625 31.78125 34.625 
z
M 21.921875 38.8125 
Q 15.578125 40.375 12.03125 44.71875 
Q 8.5 49.078125 8.5 55.328125 
Q 8.5 64.0625 14.71875 69.140625 
Q 20.953125 74.21875 31.78125 74.21875 
Q 42.671875 74.21875 48.875 69.140625 
Q 55.078125 64.0625 55.078125 55.328125 
Q 55.078125 49.078125 51.53125 44.71875 
Q 48 40.375 41.703125 38.8125 
Q 48.828125 37.15625 52.796875 32.3125 
Q 56.78125 27.484375 56.78125 20.515625 
Q 56.78125 9.90625 50.3125 4.234375 
Q 43.84375 -1.421875 31.78125 -1.421875 
Q 19.734375 -1.421875 13.25 4.234375 
Q 6.78125 9.90625 6.78125 20.515625 
Q 6.78125 27.484375 10.78125 32.3125 
Q 14.796875 37.15625 21.921875 38.8125 
z
M 18.3125 54.390625 
Q 18.3125 48.734375 21.84375 45.5625 
Q 25.390625 42.390625 31.78125 42.390625 
Q 38.140625 42.390625 41.71875 45.5625 
Q 45.3125 48.734375 45.3125 54.390625 
Q 45.3125 60.0625 41.71875 63.234375 
Q 38.140625 66.40625 31.78125 66.40625 
Q 25.390625 66.40625 21.84375 63.234375 
Q 18.3125 60.0625 18.3125 54.390625 
z
" id="DejaVuSans-38"/>
      </defs>
      <g transform="translate(143.69875 322.182437)scale(0.1 -0.1)">
       <use xlink:href="#DejaVuSans-38"/>
      </g>
     </g>
    </g>
    <g id="xtick_4">
     <g id="line2d_4">
      <g>
       <use style="stroke:#000000;stroke-width:0.8;" x="191.52" xlink:href="#m8f10d79044" y="307.584"/>
      </g>
     </g>
     <g id="text_4">
      <!-- 10 -->
      <defs>
       <path d="M 12.40625 8.296875 
L 28.515625 8.296875 
L 28.515625 63.921875 
L 10.984375 60.40625 
L 10.984375 69.390625 
L 28.421875 72.90625 
L 38.28125 72.90625 
L 38.28125 8.296875 
L 54.390625 8.296875 
L 54.390625 0 
L 12.40625 0 
z
" id="DejaVuSans-31"/>
       <path d="M 31.78125 66.40625 
Q 24.171875 66.40625 20.328125 58.90625 
Q 16.5 51.421875 16.5 36.375 
Q 16.5 21.390625 20.328125 13.890625 
Q 24.171875 6.390625 31.78125 6.390625 
Q 39.453125 6.390625 43.28125 13.890625 
Q 47.125 21.390625 47.125 36.375 
Q 47.125 51.421875 43.28125 58.90625 
Q 39.453125 66.40625 31.78125 66.40625 
z
M 31.78125 74.21875 
Q 44.046875 74.21875 50.515625 64.515625 
Q 56.984375 54.828125 56.984375 36.375 
Q 56.984375 17.96875 50.515625 8.265625 
Q 44.046875 -1.421875 31.78125 -1.421875 
Q 19.53125 -1.421875 13.0625 8.265625 
Q 6.59375 17.96875 6.59375 36.375 
Q 6.59375 54.828125 13.0625 64.515625 
Q 19.53125 74.21875 31.78125 74.21875 
z
" id="DejaVuSans-30"/>
      </defs>
      <g transform="translate(185.1575 322.182437)scale(0.1 -0.1)">
       <use xlink:href="#DejaVuSans-31"/>
       <use x="63.623047" xlink:href="#DejaVuSans-30"/>
      </g>
     </g>
    </g>
    <g id="xtick_5">
     <g id="line2d_5">
      <g>
       <use style="stroke:#000000;stroke-width:0.8;" x="236.16" xlink:href="#m8f10d79044" y="307.584"/>
      </g>
     </g>
     <g id="text_5">
      <!-- 12 -->
      <defs>
       <path d="M 19.1875 8.296875 
L 53.609375 8.296875 
L 53.609375 0 
L 7.328125 0 
L 7.328125 8.296875 
Q 12.9375 14.109375 22.625 23.890625 
Q 32.328125 33.6875 34.8125 36.53125 
Q 39.546875 41.84375 41.421875 45.53125 
Q 43.3125 49.21875 43.3125 52.78125 
Q 43.3125 58.59375 39.234375 62.25 
Q 35.15625 65.921875 28.609375 65.921875 
Q 23.96875 65.921875 18.8125 64.3125 
Q 13.671875 62.703125 7.8125 59.421875 
L 7.8125 69.390625 
Q 13.765625 71.78125 18.9375 73 
Q 24.125 74.21875 28.421875 74.21875 
Q 39.75 74.21875 46.484375 68.546875 
Q 53.21875 62.890625 53.21875 53.421875 
Q 53.21875 48.921875 51.53125 44.890625 
Q 49.859375 40.875 45.40625 35.40625 
Q 44.1875 33.984375 37.640625 27.21875 
Q 31.109375 20.453125 19.1875 8.296875 
z
" id="DejaVuSans-32"/>
      </defs>
      <g transform="translate(229.7975 322.182437)scale(0.1 -0.1)">
       <use xlink:href="#DejaVuSans-31"/>
       <use x="63.623047" xlink:href="#DejaVuSans-32"/>
      </g>
     </g>
    </g>
    <g id="xtick_6">
     <g id="line2d_6">
      <g>
       <use style="stroke:#000000;stroke-width:0.8;" x="280.8" xlink:href="#m8f10d79044" y="307.584"/>
      </g>
     </g>
     <g id="text_6">
      <!-- 14 -->
      <g transform="translate(274.4375 322.182437)scale(0.1 -0.1)">
       <use xlink:href="#DejaVuSans-31"/>
       <use x="63.623047" xlink:href="#DejaVuSans-34"/>
      </g>
     </g>
    </g>
    <g id="xtick_7">
     <g id="line2d_7">
      <g>
       <use style="stroke:#000000;stroke-width:0.8;" x="325.44" xlink:href="#m8f10d79044" y="307.584"/>
      </g>
     </g>
     <g id="text_7">
      <!-- 16 -->
      <g transform="translate(319.0775 322.182437)scale(0.1 -0.1)">
       <use xlink:href="#DejaVuSans-31"/>
       <use x="63.623047" xlink:href="#DejaVuSans-36"/>
      </g>
     </g>
    </g>
    <g id="xtick_8">
     <g id="line2d_8">
      <g>
       <use style="stroke:#000000;stroke-width:0.8;" x="370.08" xlink:href="#m8f10d79044" y="307.584"/>
      </g>
     </g>
     <g id="text_8">
      <!-- 18 -->
      <g transform="translate(363.7175 322.182437)scale(0.1 -0.1)">
       <use xlink:href="#DejaVuSans-31"/>
       <use x="63.623047" xlink:href="#DejaVuSans-38"/>
      </g>
     </g>
    </g>
    <g id="xtick_9">
     <g id="line2d_9">
      <g>
       <use style="stroke:#000000;stroke-width:0.8;" x="414.72" xlink:href="#m8f10d79044" y="307.584"/>
      </g>
     </g>
     <g id="text_9">
      <!-- 20 -->
      <g transform="translate(408.3575 322.182437)scale(0.1 -0.1)">
       <use xlink:href="#DejaVuSans-32"/>
       <use x="63.623047" xlink:href="#DejaVuSans-30"/>
      </g>
     </g>
    </g>
   </g>
   <g id="matplotlib.axis_2">
    <g id="ytick_1">
     <g id="line2d_10">
      <defs>
       <path d="M 0 0 
L -3.5 0 
" id="m999e955a3f" style="stroke:#000000;stroke-width:0.8;"/>
      </defs>
      <g>
       <use style="stroke:#000000;stroke-width:0.8;" x="57.6" xlink:href="#m999e955a3f" y="269.568"/>
      </g>
     </g>
     <g id="text_10">
      <!-- −10 -->
      <defs>
       <path d="M 10.59375 35.5 
L 73.1875 35.5 
L 73.1875 27.203125 
L 10.59375 27.203125 
z
" id="DejaVuSans-2212"/>
      </defs>
      <g transform="translate(29.495313 273.367219)scale(0.1 -0.1)">
       <use xlink:href="#DejaVuSans-2212"/>
       <use x="83.789062" xlink:href="#DejaVuSans-31"/>
       <use x="147.412109" xlink:href="#DejaVuSans-30"/>
      </g>
     </g>
    </g>
    <g id="ytick_2">
     <g id="line2d_11">
      <g>
       <use style="stroke:#000000;stroke-width:0.8;" x="57.6" xlink:href="#m999e955a3f" y="222.048"/>
      </g>
     </g>
     <g id="text_11">
      <!-- −5 -->
      <defs>
       <path d="M 10.796875 72.90625 
L 49.515625 72.90625 
L 49.515625 64.59375 
L 19.828125 64.59375 
L 19.828125 46.734375 
Q 21.96875 47.46875 24.109375 47.828125 
Q 26.265625 48.1875 28.421875 48.1875 
Q 40.625 48.1875 47.75 41.5 
Q 54.890625 34.8125 54.890625 23.390625 
Q 54.890625 11.625 47.5625 5.09375 
Q 40.234375 -1.421875 26.90625 -1.421875 
Q 22.3125 -1.421875 17.546875 -0.640625 
Q 12.796875 0.140625 7.71875 1.703125 
L 7.71875 11.625 
Q 12.109375 9.234375 16.796875 8.0625 
Q 21.484375 6.890625 26.703125 6.890625 
Q 35.15625 6.890625 40.078125 11.328125 
Q 45.015625 15.765625 45.015625 23.390625 
Q 45.015625 31 40.078125 35.4375 
Q 35.15625 39.890625 26.703125 39.890625 
Q 22.75 39.890625 18.8125 39.015625 
Q 14.890625 38.140625 10.796875 36.28125 
z
" id="DejaVuSans-35"/>
      </defs>
      <g transform="translate(35.857813 225.847219)scale(0.1 -0.1)">
       <use xlink:href="#DejaVuSans-2212"/>
       <use x="83.789062" xlink:href="#DejaVuSans-35"/>
      </g>
     </g>
    </g>
    <g id="ytick_3">
     <g id="line2d_12">
      <g>
       <use style="stroke:#000000;stroke-width:0.8;" x="57.6" xlink:href="#m999e955a3f" y="174.528"/>
      </g>
     </g>
     <g id="text_12">
      <!-- 0 -->
      <g transform="translate(44.2375 178.327219)scale(0.1 -0.1)">
       <use xlink:href="#DejaVuSans-30"/>
      </g>
     </g>
    </g>
    <g id="ytick_4">
     <g id="line2d_13">
      <g>
       <use style="stroke:#000000;stroke-width:0.8;" x="57.6" xlink:href="#m999e955a3f" y="127.008"/>
      </g>
     </g>
     <g id="text_13">
      <!-- 5 -->
      <g transform="translate(44.2375 130.807219)scale(0.1 -0.1)">
       <use xlink:href="#DejaVuSans-35"/>
      </g>
     </g>
    </g>
    <g id="ytick_5">
     <g id="line2d_14">
      <g>
       <use style="stroke:#000000;stroke-width:0.8;" x="57.6" xlink:href="#m999e955a3f" y="79.488"/>
      </g>
     </g>
     <g id="text_14">
      <!-- 10 -->
      <g transform="translate(37.875 83.287219)scale(0.1 -0.1)">
       <use xlink:href="#DejaVuSans-31"/>
       <use x="63.623047" xlink:href="#DejaVuSans-30"/>
      </g>
     </g>
    </g>
   </g>
   <g id="patch_3">
    <path d="M 57.6 307.584 
L 57.6 41.472 
" style="fill:none;stroke:#000000;stroke-linecap:square;stroke-linejoin:miter;stroke-width:0.8;"/>
   </g>
   <g id="patch_4">
    <path d="M 414.72 307.584 
L 414.72 41.472 
" style="fill:none;stroke:#000000;stroke-linecap:square;stroke-linejoin:miter;stroke-width:0.8;"/>
   </g>
   <g id="patch_5">
    <path d="M 57.6 307.584 
L 414.72 307.584 
" style="fill:none;stroke:#000000;stroke-linecap:square;stroke-linejoin:miter;stroke-width:0.8;"/>
   </g>
   <g id="patch_6">
    <path d="M 57.6 41.472 
L 414.72 41.472 
" style="fill:none;stroke:#000000;stroke-linecap:square;stroke-linejoin:miter;stroke-width:0.8;"/>
   </g>
  </g>
 </g>
 <defs>
  <clipPath id="p5a7e382f4d">
   <rect height="266.112" width="357.12" x="57.6" y="41.472"/>
  </clipPath>
 </defs>
</svg>
