<?xml version="1.0" encoding="utf-8" standalone="no"?>
<!DOCTYPE svg PUBLIC "-//W3C//DTD SVG 1.1//EN"
  "http://www.w3.org/Graphics/SVG/1.1/DTD/svg11.dtd">
<!-- Created with matplotlib (http://matplotlib.org/) -->
<svg height="345.6pt" version="1.1" viewBox="0 0 460.8 345.6" width="460.8pt" xmlns="http://www.w3.org/2000/svg" xmlns:xlink="http://www.w3.org/1999/xlink">
 <defs>
  <style type="text/css">
*{stroke-linecap:butt;stroke-linejoin:round;}
  </style>
 </defs>
 <g id="figure_1">
  <g id="patch_1">
   <path d="M 0 345.6 
L 460.8 345.6 
L 460.8 0 
L 0 0 
z
" style="fill:#ffffff;"/>
  </g>
  <g id="axes_1">
   <g id="patch_2">
    <path d="M 57.6 307.584 
L 414.72 307.584 
L 414.72 41.472 
L 57.6 41.472 
z
" style="fill:#ffffff;"/>
   </g>
   <g id="PathCollection_1">
    <defs>
     <path d="M 0 0.612372 
C 0.162403 0.612372 0.318176 0.547849 0.433013 0.433013 
C 0.547849 0.318176 0.612372 0.162403 0.612372 0 
C 0.612372 -0.162403 0.547849 -0.318176 0.433013 -0.433013 
C 0.318176 -0.547849 0.162403 -0.612372 0 -0.612372 
C -0.162403 -0.612372 -0.318176 -0.547849 -0.433013 -0.433013 
C -0.547849 -0.318176 -0.612372 -0.162403 -0.612372 0 
C -0.612372 0.162403 -0.547849 0.318176 -0.433013 0.433013 
C -0.318176 0.547849 -0.162403 0.612372 0 0.612372 
z
" id="m589a255e80" style="stroke:#000000;"/>
    </defs>
    <g clip-path="url(#pcfb2f36185)">
     <use style="stroke:#000000;" x="333.856767" xlink:href="#m589a255e80" y="131.198972"/>
     <use style="stroke:#000000;" x="374.236151" xlink:href="#m589a255e80" y="145.297364"/>
     <use style="stroke:#000000;" x="359.834203" xlink:href="#m589a255e80" y="141.287856"/>
     <use style="stroke:#000000;" x="314.299299" xlink:href="#m589a255e80" y="111.57542"/>
     <use style="stroke:#000000;" x="362.062867" xlink:href="#m589a255e80" y="143.618167"/>
     <use style="stroke:#000000;" x="316.533207" xlink:href="#m589a255e80" y="114.088357"/>
     <use style="stroke:#000000;" x="313.522078" xlink:href="#m589a255e80" y="99.597734"/>
     <use style="stroke:#000000;" x="360.147016" xlink:href="#m589a255e80" y="142.959446"/>
     <use style="stroke:#000000;" x="382.021416" xlink:href="#m589a255e80" y="165.453827"/>
     <use style="stroke:#000000;" x="345.815501" xlink:href="#m589a255e80" y="140.916504"/>
     <use style="stroke:#000000;" x="384.807527" xlink:href="#m589a255e80" y="173.358656"/>
     <use style="stroke:#000000;" x="374.715986" xlink:href="#m589a255e80" y="152.9506"/>
     <use style="stroke:#000000;" x="375.267995" xlink:href="#m589a255e80" y="153.43412"/>
     <use style="stroke:#000000;" x="338.850969" xlink:href="#m589a255e80" y="134.860362"/>
     <use style="stroke:#000000;" x="384.429194" xlink:href="#m589a255e80" y="172.511149"/>
     <use style="stroke:#000000;" x="345.717287" xlink:href="#m589a255e80" y="137.534108"/>
     <use style="stroke:#000000;" x="392.86726" xlink:href="#m589a255e80" y="180.543035"/>
     <use style="stroke:#000000;" x="314.249534" xlink:href="#m589a255e80" y="109.974686"/>
     <use style="stroke:#000000;" x="332.466906" xlink:href="#m589a255e80" y="129.681387"/>
     <use style="stroke:#000000;" x="325.291618" xlink:href="#m589a255e80" y="121.406899"/>
     <use style="stroke:#000000;" x="347.082704" xlink:href="#m589a255e80" y="141.195632"/>
     <use style="stroke:#000000;" x="385.540617" xlink:href="#m589a255e80" y="180.051567"/>
     <use style="stroke:#000000;" x="317.420446" xlink:href="#m589a255e80" y="114.865862"/>
     <use style="stroke:#000000;" x="330.997528" xlink:href="#m589a255e80" y="122.599136"/>
     <use style="stroke:#000000;" x="294.726897" xlink:href="#m589a255e80" y="74.725311"/>
     <use style="stroke:#000000;" x="385.283162" xlink:href="#m589a255e80" y="179.871326"/>
     <use style="stroke:#000000;" x="360.697103" xlink:href="#m589a255e80" y="143.488603"/>
     <use style="stroke:#000000;" x="340.457685" xlink:href="#m589a255e80" y="137.153259"/>
     <use style="stroke:#000000;" x="387.122551" xlink:href="#m589a255e80" y="180.077212"/>
     <use style="stroke:#000000;" x="324.9664" xlink:href="#m589a255e80" y="114.920912"/>
     <use style="stroke:#000000;" x="314.237069" xlink:href="#m589a255e80" y="108.374565"/>
     <use style="stroke:#000000;" x="315.433472" xlink:href="#m589a255e80" y="111.644265"/>
     <use style="stroke:#000000;" x="331.751845" xlink:href="#m589a255e80" y="134.764219"/>
     <use style="stroke:#000000;" x="362.16619" xlink:href="#m589a255e80" y="145.467266"/>
     <use style="stroke:#000000;" x="348.225423" xlink:href="#m589a255e80" y="141.396578"/>
     <use style="stroke:#000000;" x="312.405283" xlink:href="#m589a255e80" y="114.688771"/>
     <use style="stroke:#000000;" x="358.946558" xlink:href="#m589a255e80" y="141.434674"/>
     <use style="stroke:#000000;" x="361.068172" xlink:href="#m589a255e80" y="144.387464"/>
     <use style="stroke:#000000;" x="361.287736" xlink:href="#m589a255e80" y="144.424815"/>
     <use style="stroke:#000000;" x="311.568305" xlink:href="#m589a255e80" y="106.407335"/>
     <use style="stroke:#000000;" x="380.73288" xlink:href="#m589a255e80" y="170.822348"/>
     <use style="stroke:#000000;" x="308.352008" xlink:href="#m589a255e80" y="103.941534"/>
     <use style="stroke:#000000;" x="340.737439" xlink:href="#m589a255e80" y="138.533842"/>
     <use style="stroke:#000000;" x="315.854121" xlink:href="#m589a255e80" y="115.628028"/>
     <use style="stroke:#000000;" x="344.196209" xlink:href="#m589a255e80" y="140.39014"/>
     <use style="stroke:#000000;" x="344.236598" xlink:href="#m589a255e80" y="140.442919"/>
     <use style="stroke:#000000;" x="343.554745" xlink:href="#m589a255e80" y="140.158557"/>
     <use style="stroke:#000000;" x="383.890009" xlink:href="#m589a255e80" y="176.445901"/>
     <use style="stroke:#000000;" x="373.027079" xlink:href="#m589a255e80" y="165.408909"/>
     <use style="stroke:#000000;" x="336.429129" xlink:href="#m589a255e80" y="136.374157"/>
     <use style="stroke:#000000;" x="383.930838" xlink:href="#m589a255e80" y="179.428493"/>
     <use style="stroke:#000000;" x="386.34217" xlink:href="#m589a255e80" y="185.964698"/>
     <use style="stroke:#000000;" x="387.367705" xlink:href="#m589a255e80" y="188.082426"/>
     <use style="stroke:#000000;" x="292.323649" xlink:href="#m589a255e80" y="91.036273"/>
     <use style="stroke:#000000;" x="325.768027" xlink:href="#m589a255e80" y="123.779759"/>
     <use style="stroke:#000000;" x="317.425827" xlink:href="#m589a255e80" y="117.503379"/>
     <use style="stroke:#000000;" x="331.049866" xlink:href="#m589a255e80" y="131.026015"/>
     <use style="stroke:#000000;" x="369.288257" xlink:href="#m589a255e80" y="151.165914"/>
     <use style="stroke:#000000;" x="371.616593" xlink:href="#m589a255e80" y="152.511433"/>
     <use style="stroke:#000000;" x="324.217868" xlink:href="#m589a255e80" y="118.119763"/>
     <use style="stroke:#000000;" x="366.100043" xlink:href="#m589a255e80" y="146.421301"/>
     <use style="stroke:#000000;" x="348.996447" xlink:href="#m589a255e80" y="141.608879"/>
     <use style="stroke:#000000;" x="365.350483" xlink:href="#m589a255e80" y="147.716622"/>
     <use style="stroke:#000000;" x="302.257947" xlink:href="#m589a255e80" y="104.638792"/>
     <use style="stroke:#000000;" x="308.132734" xlink:href="#m589a255e80" y="105.564263"/>
     <use style="stroke:#000000;" x="274.395532" xlink:href="#m589a255e80" y="103.951317"/>
     <use style="stroke:#000000;" x="311.212139" xlink:href="#m589a255e80" y="112.80856"/>
     <use style="stroke:#000000;" x="361.008722" xlink:href="#m589a255e80" y="145.529888"/>
     <use style="stroke:#000000;" x="373.990588" xlink:href="#m589a255e80" y="171.058152"/>
     <use style="stroke:#000000;" x="379.670561" xlink:href="#m589a255e80" y="172.592334"/>
     <use style="stroke:#000000;" x="357.020487" xlink:href="#m589a255e80" y="142.876443"/>
     <use style="stroke:#000000;" x="375.774273" xlink:href="#m589a255e80" y="171.275721"/>
     <use style="stroke:#000000;" x="379.687119" xlink:href="#m589a255e80" y="174.20792"/>
     <use style="stroke:#000000;" x="374.257749" xlink:href="#m589a255e80" y="171.109462"/>
     <use style="stroke:#000000;" x="340.031512" xlink:href="#m589a255e80" y="139.44831"/>
     <use style="stroke:#000000;" x="344.178088" xlink:href="#m589a255e80" y="140.395095"/>
     <use style="stroke:#000000;" x="382.01406" xlink:href="#m589a255e80" y="178.548681"/>
     <use style="stroke:#000000;" x="352.992458" xlink:href="#m589a255e80" y="141.728871"/>
     <use style="stroke:#000000;" x="383.119921" xlink:href="#m589a255e80" y="183.657458"/>
     <use style="stroke:#000000;" x="381.473385" xlink:href="#m589a255e80" y="178.2461"/>
     <use style="stroke:#000000;" x="325.04459" xlink:href="#m589a255e80" y="131.366929"/>
     <use style="stroke:#000000;" x="333.308125" xlink:href="#m589a255e80" y="137.253158"/>
     <use style="stroke:#000000;" x="320.728913" xlink:href="#m589a255e80" y="121.517489"/>
     <use style="stroke:#000000;" x="322.09709" xlink:href="#m589a255e80" y="121.59055"/>
     <use style="stroke:#000000;" x="186.435174" xlink:href="#m589a255e80" y="96.543571"/>
     <use style="stroke:#000000;" x="324.06288" xlink:href="#m589a255e80" y="128.383917"/>
     <use style="stroke:#000000;" x="253.973077" xlink:href="#m589a255e80" y="96.73251"/>
     <use style="stroke:#000000;" x="371.022373" xlink:href="#m589a255e80" y="157.038798"/>
     <use style="stroke:#000000;" x="348.129791" xlink:href="#m589a255e80" y="141.769898"/>
     <use style="stroke:#000000;" x="364.784708" xlink:href="#m589a255e80" y="155.347276"/>
     <use style="stroke:#000000;" x="358.743577" xlink:href="#m589a255e80" y="145.757361"/>
     <use style="stroke:#000000;" x="359.601221" xlink:href="#m589a255e80" y="154.5851"/>
     <use style="stroke:#000000;" x="355.846382" xlink:href="#m589a255e80" y="143.552432"/>
     <use style="stroke:#000000;" x="356.251256" xlink:href="#m589a255e80" y="143.579543"/>
     <use style="stroke:#000000;" x="301.914643" xlink:href="#m589a255e80" y="107.485513"/>
     <use style="stroke:#000000;" x="301.751032" xlink:href="#m589a255e80" y="105.239976"/>
     <use style="stroke:#000000;" x="306.923622" xlink:href="#m589a255e80" y="108.989576"/>
     <use style="stroke:#000000;" x="382.419886" xlink:href="#m589a255e80" y="185.420033"/>
     <use style="stroke:#000000;" x="340.833663" xlink:href="#m589a255e80" y="140.771011"/>
     <use style="stroke:#000000;" x="381.279956" xlink:href="#m589a255e80" y="180.007267"/>
     <use style="stroke:#000000;" x="335.868214" xlink:href="#m589a255e80" y="145.385248"/>
     <use style="stroke:#000000;" x="362.3533" xlink:href="#m589a255e80" y="187.995359"/>
     <use style="stroke:#000000;" x="342.367841" xlink:href="#m589a255e80" y="140.459981"/>
     <use style="stroke:#000000;" x="310.497175" xlink:href="#m589a255e80" y="125.783359"/>
     <use style="stroke:#000000;" x="381.563848" xlink:href="#m589a255e80" y="165.552968"/>
     <use style="stroke:#000000;" x="341.794159" xlink:href="#m589a255e80" y="147.775288"/>
     <use style="stroke:#000000;" x="296.080769" xlink:href="#m589a255e80" y="73.851999"/>
     <use style="stroke:#000000;" x="338.986879" xlink:href="#m589a255e80" y="183.483631"/>
     <use style="stroke:#000000;" x="387.033081" xlink:href="#m589a255e80" y="179.680226"/>
     <use style="stroke:#000000;" x="380.885173" xlink:href="#m589a255e80" y="168.576664"/>
     <use style="stroke:#000000;" x="358.588853" xlink:href="#m589a255e80" y="170.444237"/>
     <use style="stroke:#000000;" x="379.188281" xlink:href="#m589a255e80" y="175.129854"/>
     <use style="stroke:#000000;" x="365.895635" xlink:href="#m589a255e80" y="168.143342"/>
     <use style="stroke:#000000;" x="315.889245" xlink:href="#m589a255e80" y="117.457739"/>
     <use style="stroke:#000000;" x="372.791311" xlink:href="#m589a255e80" y="196.663064"/>
     <use style="stroke:#000000;" x="354.862788" xlink:href="#m589a255e80" y="159.574973"/>
     <use style="stroke:#000000;" x="373.840644" xlink:href="#m589a255e80" y="175.369363"/>
     <use style="stroke:#000000;" x="314.765462" xlink:href="#m589a255e80" y="201.603395"/>
     <use style="stroke:#000000;" x="354.360573" xlink:href="#m589a255e80" y="173.088376"/>
     <use style="stroke:#000000;" x="335.036689" xlink:href="#m589a255e80" y="189.41294"/>
     <use style="stroke:#000000;" x="340.755809" xlink:href="#m589a255e80" y="211.339463"/>
     <use style="stroke:#000000;" x="383.603005" xlink:href="#m589a255e80" y="173.184407"/>
     <use style="stroke:#000000;" x="325.724091" xlink:href="#m589a255e80" y="131.711771"/>
     <use style="stroke:#000000;" x="367.138376" xlink:href="#m589a255e80" y="146.109265"/>
     <use style="stroke:#000000;" x="290.876006" xlink:href="#m589a255e80" y="121.479939"/>
     <use style="stroke:#000000;" x="388.090837" xlink:href="#m589a255e80" y="184.100949"/>
     <use style="stroke:#000000;" x="346.122964" xlink:href="#m589a255e80" y="139.992476"/>
     <use style="stroke:#000000;" x="346.100827" xlink:href="#m589a255e80" y="159.256061"/>
     <use style="stroke:#000000;" x="362.020813" xlink:href="#m589a255e80" y="171.103863"/>
     <use style="stroke:#000000;" x="310.938073" xlink:href="#m589a255e80" y="107.16919"/>
     <use style="stroke:#000000;" x="306.269089" xlink:href="#m589a255e80" y="139.582887"/>
     <use style="stroke:#000000;" x="276.484367" xlink:href="#m589a255e80" y="112.461082"/>
     <use style="stroke:#000000;" x="309.843288" xlink:href="#m589a255e80" y="97.820512"/>
     <use style="stroke:#000000;" x="365.419383" xlink:href="#m589a255e80" y="141.574319"/>
     <use style="stroke:#000000;" x="341.573089" xlink:href="#m589a255e80" y="198.648213"/>
     <use style="stroke:#000000;" x="291.772177" xlink:href="#m589a255e80" y="199.30114"/>
     <use style="stroke:#000000;" x="334.651437" xlink:href="#m589a255e80" y="221.345132"/>
     <use style="stroke:#000000;" x="330.807188" xlink:href="#m589a255e80" y="246.337237"/>
     <use style="stroke:#000000;" x="372.867349" xlink:href="#m589a255e80" y="180.557554"/>
     <use style="stroke:#000000;" x="335.214403" xlink:href="#m589a255e80" y="157.078374"/>
     <use style="stroke:#000000;" x="349.192569" xlink:href="#m589a255e80" y="175.275307"/>
     <use style="stroke:#000000;" x="317.915604" xlink:href="#m589a255e80" y="117.752249"/>
     <use style="stroke:#000000;" x="302.98564" xlink:href="#m589a255e80" y="158.864663"/>
     <use style="stroke:#000000;" x="345.645005" xlink:href="#m589a255e80" y="145.286951"/>
     <use style="stroke:#000000;" x="359.077539" xlink:href="#m589a255e80" y="144.782703"/>
     <use style="stroke:#000000;" x="334.635975" xlink:href="#m589a255e80" y="155.629"/>
     <use style="stroke:#000000;" x="306.348788" xlink:href="#m589a255e80" y="156.393317"/>
     <use style="stroke:#000000;" x="352.568483" xlink:href="#m589a255e80" y="145.472426"/>
     <use style="stroke:#000000;" x="353.300455" xlink:href="#m589a255e80" y="154.618553"/>
     <use style="stroke:#000000;" x="317.794655" xlink:href="#m589a255e80" y="115.454105"/>
    </g>
   </g>
   <g id="PathCollection_2">
    <defs>
     <path d="M 0 0.935414 
C 0.248075 0.935414 0.486022 0.836853 0.661438 0.661438 
C 0.836853 0.486022 0.935414 0.248075 0.935414 0 
C 0.935414 -0.248075 0.836853 -0.486022 0.661438 -0.661438 
C 0.486022 -0.836853 0.248075 -0.935414 0 -0.935414 
C -0.248075 -0.935414 -0.486022 -0.836853 -0.661438 -0.661438 
C -0.836853 -0.486022 -0.935414 -0.248075 -0.935414 0 
C -0.935414 0.248075 -0.836853 0.486022 -0.661438 0.661438 
C -0.486022 0.836853 -0.248075 0.935414 0 0.935414 
z
" id="mdfaf01b0ab" style="stroke:#0000ff;"/>
    </defs>
    <g clip-path="url(#pcfb2f36185)">
     <use style="fill:#0000ff;stroke:#0000ff;" x="333.856767" xlink:href="#mdfaf01b0ab" y="131.198972"/>
     <use style="fill:#0000ff;stroke:#0000ff;" x="374.236151" xlink:href="#mdfaf01b0ab" y="145.297364"/>
     <use style="fill:#0000ff;stroke:#0000ff;" x="359.834203" xlink:href="#mdfaf01b0ab" y="141.287856"/>
     <use style="fill:#0000ff;stroke:#0000ff;" x="314.299299" xlink:href="#mdfaf01b0ab" y="111.57542"/>
     <use style="fill:#0000ff;stroke:#0000ff;" x="362.062867" xlink:href="#mdfaf01b0ab" y="143.618167"/>
     <use style="fill:#0000ff;stroke:#0000ff;" x="316.533207" xlink:href="#mdfaf01b0ab" y="114.088357"/>
     <use style="fill:#0000ff;stroke:#0000ff;" x="313.522078" xlink:href="#mdfaf01b0ab" y="99.597734"/>
     <use style="fill:#0000ff;stroke:#0000ff;" x="360.147016" xlink:href="#mdfaf01b0ab" y="142.959446"/>
     <use style="fill:#0000ff;stroke:#0000ff;" x="382.021416" xlink:href="#mdfaf01b0ab" y="165.453827"/>
     <use style="fill:#0000ff;stroke:#0000ff;" x="345.815501" xlink:href="#mdfaf01b0ab" y="140.916504"/>
     <use style="fill:#0000ff;stroke:#0000ff;" x="384.807527" xlink:href="#mdfaf01b0ab" y="173.358656"/>
     <use style="fill:#0000ff;stroke:#0000ff;" x="374.715986" xlink:href="#mdfaf01b0ab" y="152.9506"/>
     <use style="fill:#0000ff;stroke:#0000ff;" x="375.267995" xlink:href="#mdfaf01b0ab" y="153.43412"/>
     <use style="fill:#0000ff;stroke:#0000ff;" x="338.850969" xlink:href="#mdfaf01b0ab" y="134.860362"/>
     <use style="fill:#0000ff;stroke:#0000ff;" x="384.429194" xlink:href="#mdfaf01b0ab" y="172.511149"/>
     <use style="fill:#0000ff;stroke:#0000ff;" x="345.717287" xlink:href="#mdfaf01b0ab" y="137.534108"/>
     <use style="fill:#0000ff;stroke:#0000ff;" x="392.86726" xlink:href="#mdfaf01b0ab" y="180.543035"/>
     <use style="fill:#0000ff;stroke:#0000ff;" x="314.249534" xlink:href="#mdfaf01b0ab" y="109.974686"/>
     <use style="fill:#0000ff;stroke:#0000ff;" x="332.466906" xlink:href="#mdfaf01b0ab" y="129.681387"/>
     <use style="fill:#0000ff;stroke:#0000ff;" x="325.291618" xlink:href="#mdfaf01b0ab" y="121.406899"/>
     <use style="fill:#0000ff;stroke:#0000ff;" x="347.082704" xlink:href="#mdfaf01b0ab" y="141.195632"/>
     <use style="fill:#0000ff;stroke:#0000ff;" x="385.540617" xlink:href="#mdfaf01b0ab" y="180.051567"/>
     <use style="fill:#0000ff;stroke:#0000ff;" x="317.420446" xlink:href="#mdfaf01b0ab" y="114.865862"/>
     <use style="fill:#0000ff;stroke:#0000ff;" x="330.997528" xlink:href="#mdfaf01b0ab" y="122.599136"/>
     <use style="fill:#0000ff;stroke:#0000ff;" x="294.726897" xlink:href="#mdfaf01b0ab" y="74.725311"/>
     <use style="fill:#0000ff;stroke:#0000ff;" x="385.283162" xlink:href="#mdfaf01b0ab" y="179.871326"/>
     <use style="fill:#0000ff;stroke:#0000ff;" x="360.697103" xlink:href="#mdfaf01b0ab" y="143.488603"/>
     <use style="fill:#0000ff;stroke:#0000ff;" x="340.457685" xlink:href="#mdfaf01b0ab" y="137.153259"/>
     <use style="fill:#0000ff;stroke:#0000ff;" x="387.122551" xlink:href="#mdfaf01b0ab" y="180.077212"/>
     <use style="fill:#0000ff;stroke:#0000ff;" x="324.9664" xlink:href="#mdfaf01b0ab" y="114.920912"/>
     <use style="fill:#0000ff;stroke:#0000ff;" x="314.237069" xlink:href="#mdfaf01b0ab" y="108.374565"/>
     <use style="fill:#0000ff;stroke:#0000ff;" x="315.433472" xlink:href="#mdfaf01b0ab" y="111.644265"/>
     <use style="fill:#0000ff;stroke:#0000ff;" x="331.751845" xlink:href="#mdfaf01b0ab" y="134.764219"/>
     <use style="fill:#0000ff;stroke:#0000ff;" x="362.16619" xlink:href="#mdfaf01b0ab" y="145.467266"/>
     <use style="fill:#0000ff;stroke:#0000ff;" x="348.225423" xlink:href="#mdfaf01b0ab" y="141.396578"/>
     <use style="fill:#0000ff;stroke:#0000ff;" x="312.405283" xlink:href="#mdfaf01b0ab" y="114.688771"/>
     <use style="fill:#0000ff;stroke:#0000ff;" x="358.946558" xlink:href="#mdfaf01b0ab" y="141.434674"/>
     <use style="fill:#0000ff;stroke:#0000ff;" x="361.068172" xlink:href="#mdfaf01b0ab" y="144.387464"/>
     <use style="fill:#0000ff;stroke:#0000ff;" x="361.287736" xlink:href="#mdfaf01b0ab" y="144.424815"/>
     <use style="fill:#0000ff;stroke:#0000ff;" x="311.568305" xlink:href="#mdfaf01b0ab" y="106.407335"/>
     <use style="fill:#0000ff;stroke:#0000ff;" x="380.73288" xlink:href="#mdfaf01b0ab" y="170.822348"/>
     <use style="fill:#0000ff;stroke:#0000ff;" x="308.352008" xlink:href="#mdfaf01b0ab" y="103.941534"/>
     <use style="fill:#0000ff;stroke:#0000ff;" x="340.737439" xlink:href="#mdfaf01b0ab" y="138.533842"/>
     <use style="fill:#0000ff;stroke:#0000ff;" x="315.854121" xlink:href="#mdfaf01b0ab" y="115.628028"/>
     <use style="fill:#0000ff;stroke:#0000ff;" x="344.196209" xlink:href="#mdfaf01b0ab" y="140.39014"/>
     <use style="fill:#0000ff;stroke:#0000ff;" x="344.236598" xlink:href="#mdfaf01b0ab" y="140.442919"/>
     <use style="fill:#0000ff;stroke:#0000ff;" x="343.554745" xlink:href="#mdfaf01b0ab" y="140.158557"/>
     <use style="fill:#0000ff;stroke:#0000ff;" x="383.890009" xlink:href="#mdfaf01b0ab" y="176.445901"/>
     <use style="fill:#0000ff;stroke:#0000ff;" x="373.027079" xlink:href="#mdfaf01b0ab" y="165.408909"/>
     <use style="fill:#0000ff;stroke:#0000ff;" x="336.429129" xlink:href="#mdfaf01b0ab" y="136.374157"/>
     <use style="fill:#0000ff;stroke:#0000ff;" x="383.930838" xlink:href="#mdfaf01b0ab" y="179.428493"/>
     <use style="fill:#0000ff;stroke:#0000ff;" x="386.34217" xlink:href="#mdfaf01b0ab" y="185.964698"/>
     <use style="fill:#0000ff;stroke:#0000ff;" x="387.367705" xlink:href="#mdfaf01b0ab" y="188.082426"/>
     <use style="fill:#0000ff;stroke:#0000ff;" x="292.323649" xlink:href="#mdfaf01b0ab" y="91.036273"/>
     <use style="fill:#0000ff;stroke:#0000ff;" x="325.768027" xlink:href="#mdfaf01b0ab" y="123.779759"/>
     <use style="fill:#0000ff;stroke:#0000ff;" x="317.425827" xlink:href="#mdfaf01b0ab" y="117.503379"/>
     <use style="fill:#0000ff;stroke:#0000ff;" x="331.049866" xlink:href="#mdfaf01b0ab" y="131.026015"/>
     <use style="fill:#0000ff;stroke:#0000ff;" x="369.288257" xlink:href="#mdfaf01b0ab" y="151.165914"/>
     <use style="fill:#0000ff;stroke:#0000ff;" x="371.616593" xlink:href="#mdfaf01b0ab" y="152.511433"/>
     <use style="fill:#0000ff;stroke:#0000ff;" x="324.217868" xlink:href="#mdfaf01b0ab" y="118.119763"/>
     <use style="fill:#0000ff;stroke:#0000ff;" x="366.100043" xlink:href="#mdfaf01b0ab" y="146.421301"/>
     <use style="fill:#0000ff;stroke:#0000ff;" x="348.996447" xlink:href="#mdfaf01b0ab" y="141.608879"/>
     <use style="fill:#0000ff;stroke:#0000ff;" x="365.350483" xlink:href="#mdfaf01b0ab" y="147.716622"/>
     <use style="fill:#0000ff;stroke:#0000ff;" x="302.257947" xlink:href="#mdfaf01b0ab" y="104.638792"/>
     <use style="fill:#0000ff;stroke:#0000ff;" x="308.132734" xlink:href="#mdfaf01b0ab" y="105.564263"/>
     <use style="fill:#0000ff;stroke:#0000ff;" x="274.395532" xlink:href="#mdfaf01b0ab" y="103.951317"/>
     <use style="fill:#0000ff;stroke:#0000ff;" x="311.212139" xlink:href="#mdfaf01b0ab" y="112.80856"/>
     <use style="fill:#0000ff;stroke:#0000ff;" x="361.008722" xlink:href="#mdfaf01b0ab" y="145.529888"/>
     <use style="fill:#0000ff;stroke:#0000ff;" x="373.990588" xlink:href="#mdfaf01b0ab" y="171.058152"/>
     <use style="fill:#0000ff;stroke:#0000ff;" x="379.670561" xlink:href="#mdfaf01b0ab" y="172.592334"/>
     <use style="fill:#0000ff;stroke:#0000ff;" x="357.020487" xlink:href="#mdfaf01b0ab" y="142.876443"/>
     <use style="fill:#0000ff;stroke:#0000ff;" x="375.774273" xlink:href="#mdfaf01b0ab" y="171.275721"/>
     <use style="fill:#0000ff;stroke:#0000ff;" x="379.687119" xlink:href="#mdfaf01b0ab" y="174.20792"/>
     <use style="fill:#0000ff;stroke:#0000ff;" x="374.257749" xlink:href="#mdfaf01b0ab" y="171.109462"/>
     <use style="fill:#0000ff;stroke:#0000ff;" x="340.031512" xlink:href="#mdfaf01b0ab" y="139.44831"/>
     <use style="fill:#0000ff;stroke:#0000ff;" x="344.178088" xlink:href="#mdfaf01b0ab" y="140.395095"/>
     <use style="fill:#0000ff;stroke:#0000ff;" x="382.01406" xlink:href="#mdfaf01b0ab" y="178.548681"/>
     <use style="fill:#0000ff;stroke:#0000ff;" x="352.992458" xlink:href="#mdfaf01b0ab" y="141.728871"/>
     <use style="fill:#0000ff;stroke:#0000ff;" x="383.119921" xlink:href="#mdfaf01b0ab" y="183.657458"/>
     <use style="fill:#0000ff;stroke:#0000ff;" x="381.473385" xlink:href="#mdfaf01b0ab" y="178.2461"/>
     <use style="fill:#0000ff;stroke:#0000ff;" x="325.04459" xlink:href="#mdfaf01b0ab" y="131.366929"/>
     <use style="fill:#0000ff;stroke:#0000ff;" x="333.308125" xlink:href="#mdfaf01b0ab" y="137.253158"/>
     <use style="fill:#0000ff;stroke:#0000ff;" x="320.728913" xlink:href="#mdfaf01b0ab" y="121.517489"/>
     <use style="fill:#0000ff;stroke:#0000ff;" x="322.09709" xlink:href="#mdfaf01b0ab" y="121.59055"/>
     <use style="fill:#0000ff;stroke:#0000ff;" x="186.435174" xlink:href="#mdfaf01b0ab" y="96.543571"/>
     <use style="fill:#0000ff;stroke:#0000ff;" x="324.06288" xlink:href="#mdfaf01b0ab" y="128.383917"/>
     <use style="fill:#0000ff;stroke:#0000ff;" x="253.973077" xlink:href="#mdfaf01b0ab" y="96.73251"/>
     <use style="fill:#0000ff;stroke:#0000ff;" x="371.022373" xlink:href="#mdfaf01b0ab" y="157.038798"/>
     <use style="fill:#0000ff;stroke:#0000ff;" x="348.129791" xlink:href="#mdfaf01b0ab" y="141.769898"/>
     <use style="fill:#0000ff;stroke:#0000ff;" x="364.784708" xlink:href="#mdfaf01b0ab" y="155.347276"/>
     <use style="fill:#0000ff;stroke:#0000ff;" x="358.743577" xlink:href="#mdfaf01b0ab" y="145.757361"/>
     <use style="fill:#0000ff;stroke:#0000ff;" x="359.601221" xlink:href="#mdfaf01b0ab" y="154.5851"/>
     <use style="fill:#0000ff;stroke:#0000ff;" x="355.846382" xlink:href="#mdfaf01b0ab" y="143.552432"/>
     <use style="fill:#0000ff;stroke:#0000ff;" x="356.251256" xlink:href="#mdfaf01b0ab" y="143.579543"/>
     <use style="fill:#0000ff;stroke:#0000ff;" x="301.914643" xlink:href="#mdfaf01b0ab" y="107.485513"/>
     <use style="fill:#0000ff;stroke:#0000ff;" x="301.751032" xlink:href="#mdfaf01b0ab" y="105.239976"/>
     <use style="fill:#0000ff;stroke:#0000ff;" x="306.923622" xlink:href="#mdfaf01b0ab" y="108.989576"/>
     <use style="fill:#0000ff;stroke:#0000ff;" x="382.419886" xlink:href="#mdfaf01b0ab" y="185.420033"/>
     <use style="fill:#0000ff;stroke:#0000ff;" x="340.833663" xlink:href="#mdfaf01b0ab" y="140.771011"/>
     <use style="fill:#0000ff;stroke:#0000ff;" x="381.279956" xlink:href="#mdfaf01b0ab" y="180.007267"/>
    </g>
   </g>
   <g id="matplotlib.axis_1">
    <g id="xtick_1">
     <g id="line2d_1">
      <defs>
       <path d="M 0 0 
L 0 3.5 
" id="mdaa4bf5add" style="stroke:#000000;stroke-width:0.8;"/>
      </defs>
      <g>
       <use style="stroke:#000000;stroke-width:0.8;" x="57.6" xlink:href="#mdaa4bf5add" y="307.584"/>
      </g>
     </g>
     <g id="text_1">
      <!-- 4 -->
      <defs>
       <path d="M 37.796875 64.3125 
L 12.890625 25.390625 
L 37.796875 25.390625 
z
M 35.203125 72.90625 
L 47.609375 72.90625 
L 47.609375 25.390625 
L 58.015625 25.390625 
L 58.015625 17.1875 
L 47.609375 17.1875 
L 47.609375 0 
L 37.796875 0 
L 37.796875 17.1875 
L 4.890625 17.1875 
L 4.890625 26.703125 
z
" id="DejaVuSans-34"/>
      </defs>
      <g transform="translate(54.41875 322.182437)scale(0.1 -0.1)">
       <use xlink:href="#DejaVuSans-34"/>
      </g>
     </g>
    </g>
    <g id="xtick_2">
     <g id="line2d_2">
      <g>
       <use style="stroke:#000000;stroke-width:0.8;" x="102.24" xlink:href="#mdaa4bf5add" y="307.584"/>
      </g>
     </g>
     <g id="text_2">
      <!-- 6 -->
      <defs>
       <path d="M 33.015625 40.375 
Q 26.375 40.375 22.484375 35.828125 
Q 18.609375 31.296875 18.609375 23.390625 
Q 18.609375 15.53125 22.484375 10.953125 
Q 26.375 6.390625 33.015625 6.390625 
Q 39.65625 6.390625 43.53125 10.953125 
Q 47.40625 15.53125 47.40625 23.390625 
Q 47.40625 31.296875 43.53125 35.828125 
Q 39.65625 40.375 33.015625 40.375 
z
M 52.59375 71.296875 
L 52.59375 62.3125 
Q 48.875 64.0625 45.09375 64.984375 
Q 41.3125 65.921875 37.59375 65.921875 
Q 27.828125 65.921875 22.671875 59.328125 
Q 17.53125 52.734375 16.796875 39.40625 
Q 19.671875 43.65625 24.015625 45.921875 
Q 28.375 48.1875 33.59375 48.1875 
Q 44.578125 48.1875 50.953125 41.515625 
Q 57.328125 34.859375 57.328125 23.390625 
Q 57.328125 12.15625 50.6875 5.359375 
Q 44.046875 -1.421875 33.015625 -1.421875 
Q 20.359375 -1.421875 13.671875 8.265625 
Q 6.984375 17.96875 6.984375 36.375 
Q 6.984375 53.65625 15.1875 63.9375 
Q 23.390625 74.21875 37.203125 74.21875 
Q 40.921875 74.21875 44.703125 73.484375 
Q 48.484375 72.75 52.59375 71.296875 
z
" id="DejaVuSans-36"/>
      </defs>
      <g transform="translate(99.05875 322.182437)scale(0.1 -0.1)">
       <use xlink:href="#DejaVuSans-36"/>
      </g>
     </g>
    </g>
    <g id="xtick_3">
     <g id="line2d_3">
      <g>
       <use style="stroke:#000000;stroke-width:0.8;" x="146.88" xlink:href="#mdaa4bf5add" y="307.584"/>
      </g>
     </g>
     <g id="text_3">
      <!-- 8 -->
      <defs>
       <path d="M 31.78125 34.625 
Q 24.75 34.625 20.71875 30.859375 
Q 16.703125 27.09375 16.703125 20.515625 
Q 16.703125 13.921875 20.71875 10.15625 
Q 24.75 6.390625 31.78125 6.390625 
Q 38.8125 6.390625 42.859375 10.171875 
Q 46.921875 13.96875 46.921875 20.515625 
Q 46.921875 27.09375 42.890625 30.859375 
Q 38.875 34.625 31.78125 34.625 
z
M 21.921875 38.8125 
Q 15.578125 40.375 12.03125 44.71875 
Q 8.5 49.078125 8.5 55.328125 
Q 8.5 64.0625 14.71875 69.140625 
Q 20.953125 74.21875 31.78125 74.21875 
Q 42.671875 74.21875 48.875 69.140625 
Q 55.078125 64.0625 55.078125 55.328125 
Q 55.078125 49.078125 51.53125 44.71875 
Q 48 40.375 41.703125 38.8125 
Q 48.828125 37.15625 52.796875 32.3125 
Q 56.78125 27.484375 56.78125 20.515625 
Q 56.78125 9.90625 50.3125 4.234375 
Q 43.84375 -1.421875 31.78125 -1.421875 
Q 19.734375 -1.421875 13.25 4.234375 
Q 6.78125 9.90625 6.78125 20.515625 
Q 6.78125 27.484375 10.78125 32.3125 
Q 14.796875 37.15625 21.921875 38.8125 
z
M 18.3125 54.390625 
Q 18.3125 48.734375 21.84375 45.5625 
Q 25.390625 42.390625 31.78125 42.390625 
Q 38.140625 42.390625 41.71875 45.5625 
Q 45.3125 48.734375 45.3125 54.390625 
Q 45.3125 60.0625 41.71875 63.234375 
Q 38.140625 66.40625 31.78125 66.40625 
Q 25.390625 66.40625 21.84375 63.234375 
Q 18.3125 60.0625 18.3125 54.390625 
z
" id="DejaVuSans-38"/>
      </defs>
      <g transform="translate(143.69875 322.182437)scale(0.1 -0.1)">
       <use xlink:href="#DejaVuSans-38"/>
      </g>
     </g>
    </g>
    <g id="xtick_4">
     <g id="line2d_4">
      <g>
       <use style="stroke:#000000;stroke-width:0.8;" x="191.52" xlink:href="#mdaa4bf5add" y="307.584"/>
      </g>
     </g>
     <g id="text_4">
      <!-- 10 -->
      <defs>
       <path d="M 12.40625 8.296875 
L 28.515625 8.296875 
L 28.515625 63.921875 
L 10.984375 60.40625 
L 10.984375 69.390625 
L 28.421875 72.90625 
L 38.28125 72.90625 
L 38.28125 8.296875 
L 54.390625 8.296875 
L 54.390625 0 
L 12.40625 0 
z
" id="DejaVuSans-31"/>
       <path d="M 31.78125 66.40625 
Q 24.171875 66.40625 20.328125 58.90625 
Q 16.5 51.421875 16.5 36.375 
Q 16.5 21.390625 20.328125 13.890625 
Q 24.171875 6.390625 31.78125 6.390625 
Q 39.453125 6.390625 43.28125 13.890625 
Q 47.125 21.390625 47.125 36.375 
Q 47.125 51.421875 43.28125 58.90625 
Q 39.453125 66.40625 31.78125 66.40625 
z
M 31.78125 74.21875 
Q 44.046875 74.21875 50.515625 64.515625 
Q 56.984375 54.828125 56.984375 36.375 
Q 56.984375 17.96875 50.515625 8.265625 
Q 44.046875 -1.421875 31.78125 -1.421875 
Q 19.53125 -1.421875 13.0625 8.265625 
Q 6.59375 17.96875 6.59375 36.375 
Q 6.59375 54.828125 13.0625 64.515625 
Q 19.53125 74.21875 31.78125 74.21875 
z
" id="DejaVuSans-30"/>
      </defs>
      <g transform="translate(185.1575 322.182437)scale(0.1 -0.1)">
       <use xlink:href="#DejaVuSans-31"/>
       <use x="63.623047" xlink:href="#DejaVuSans-30"/>
      </g>
     </g>
    </g>
    <g id="xtick_5">
     <g id="line2d_5">
      <g>
       <use style="stroke:#000000;stroke-width:0.8;" x="236.16" xlink:href="#mdaa4bf5add" y="307.584"/>
      </g>
     </g>
     <g id="text_5">
      <!-- 12 -->
      <defs>
       <path d="M 19.1875 8.296875 
L 53.609375 8.296875 
L 53.609375 0 
L 7.328125 0 
L 7.328125 8.296875 
Q 12.9375 14.109375 22.625 23.890625 
Q 32.328125 33.6875 34.8125 36.53125 
Q 39.546875 41.84375 41.421875 45.53125 
Q 43.3125 49.21875 43.3125 52.78125 
Q 43.3125 58.59375 39.234375 62.25 
Q 35.15625 65.921875 28.609375 65.921875 
Q 23.96875 65.921875 18.8125 64.3125 
Q 13.671875 62.703125 7.8125 59.421875 
L 7.8125 69.390625 
Q 13.765625 71.78125 18.9375 73 
Q 24.125 74.21875 28.421875 74.21875 
Q 39.75 74.21875 46.484375 68.546875 
Q 53.21875 62.890625 53.21875 53.421875 
Q 53.21875 48.921875 51.53125 44.890625 
Q 49.859375 40.875 45.40625 35.40625 
Q 44.1875 33.984375 37.640625 27.21875 
Q 31.109375 20.453125 19.1875 8.296875 
z
" id="DejaVuSans-32"/>
      </defs>
      <g transform="translate(229.7975 322.182437)scale(0.1 -0.1)">
       <use xlink:href="#DejaVuSans-31"/>
       <use x="63.623047" xlink:href="#DejaVuSans-32"/>
      </g>
     </g>
    </g>
    <g id="xtick_6">
     <g id="line2d_6">
      <g>
       <use style="stroke:#000000;stroke-width:0.8;" x="280.8" xlink:href="#mdaa4bf5add" y="307.584"/>
      </g>
     </g>
     <g id="text_6">
      <!-- 14 -->
      <g transform="translate(274.4375 322.182437)scale(0.1 -0.1)">
       <use xlink:href="#DejaVuSans-31"/>
       <use x="63.623047" xlink:href="#DejaVuSans-34"/>
      </g>
     </g>
    </g>
    <g id="xtick_7">
     <g id="line2d_7">
      <g>
       <use style="stroke:#000000;stroke-width:0.8;" x="325.44" xlink:href="#mdaa4bf5add" y="307.584"/>
      </g>
     </g>
     <g id="text_7">
      <!-- 16 -->
      <g transform="translate(319.0775 322.182437)scale(0.1 -0.1)">
       <use xlink:href="#DejaVuSans-31"/>
       <use x="63.623047" xlink:href="#DejaVuSans-36"/>
      </g>
     </g>
    </g>
    <g id="xtick_8">
     <g id="line2d_8">
      <g>
       <use style="stroke:#000000;stroke-width:0.8;" x="370.08" xlink:href="#mdaa4bf5add" y="307.584"/>
      </g>
     </g>
     <g id="text_8">
      <!-- 18 -->
      <g transform="translate(363.7175 322.182437)scale(0.1 -0.1)">
       <use xlink:href="#DejaVuSans-31"/>
       <use x="63.623047" xlink:href="#DejaVuSans-38"/>
      </g>
     </g>
    </g>
    <g id="xtick_9">
     <g id="line2d_9">
      <g>
       <use style="stroke:#000000;stroke-width:0.8;" x="414.72" xlink:href="#mdaa4bf5add" y="307.584"/>
      </g>
     </g>
     <g id="text_9">
      <!-- 20 -->
      <g transform="translate(408.3575 322.182437)scale(0.1 -0.1)">
       <use xlink:href="#DejaVuSans-32"/>
       <use x="63.623047" xlink:href="#DejaVuSans-30"/>
      </g>
     </g>
    </g>
   </g>
   <g id="matplotlib.axis_2">
    <g id="ytick_1">
     <g id="line2d_10">
      <defs>
       <path d="M 0 0 
L -3.5 0 
" id="mf8d6076b35" style="stroke:#000000;stroke-width:0.8;"/>
      </defs>
      <g>
       <use style="stroke:#000000;stroke-width:0.8;" x="57.6" xlink:href="#mf8d6076b35" y="269.568"/>
      </g>
     </g>
     <g id="text_10">
      <!-- −10 -->
      <defs>
       <path d="M 10.59375 35.5 
L 73.1875 35.5 
L 73.1875 27.203125 
L 10.59375 27.203125 
z
" id="DejaVuSans-2212"/>
      </defs>
      <g transform="translate(29.495313 273.367219)scale(0.1 -0.1)">
       <use xlink:href="#DejaVuSans-2212"/>
       <use x="83.789062" xlink:href="#DejaVuSans-31"/>
       <use x="147.412109" xlink:href="#DejaVuSans-30"/>
      </g>
     </g>
    </g>
    <g id="ytick_2">
     <g id="line2d_11">
      <g>
       <use style="stroke:#000000;stroke-width:0.8;" x="57.6" xlink:href="#mf8d6076b35" y="222.048"/>
      </g>
     </g>
     <g id="text_11">
      <!-- −5 -->
      <defs>
       <path d="M 10.796875 72.90625 
L 49.515625 72.90625 
L 49.515625 64.59375 
L 19.828125 64.59375 
L 19.828125 46.734375 
Q 21.96875 47.46875 24.109375 47.828125 
Q 26.265625 48.1875 28.421875 48.1875 
Q 40.625 48.1875 47.75 41.5 
Q 54.890625 34.8125 54.890625 23.390625 
Q 54.890625 11.625 47.5625 5.09375 
Q 40.234375 -1.421875 26.90625 -1.421875 
Q 22.3125 -1.421875 17.546875 -0.640625 
Q 12.796875 0.140625 7.71875 1.703125 
L 7.71875 11.625 
Q 12.109375 9.234375 16.796875 8.0625 
Q 21.484375 6.890625 26.703125 6.890625 
Q 35.15625 6.890625 40.078125 11.328125 
Q 45.015625 15.765625 45.015625 23.390625 
Q 45.015625 31 40.078125 35.4375 
Q 35.15625 39.890625 26.703125 39.890625 
Q 22.75 39.890625 18.8125 39.015625 
Q 14.890625 38.140625 10.796875 36.28125 
z
" id="DejaVuSans-35"/>
      </defs>
      <g transform="translate(35.857813 225.847219)scale(0.1 -0.1)">
       <use xlink:href="#DejaVuSans-2212"/>
       <use x="83.789062" xlink:href="#DejaVuSans-35"/>
      </g>
     </g>
    </g>
    <g id="ytick_3">
     <g id="line2d_12">
      <g>
       <use style="stroke:#000000;stroke-width:0.8;" x="57.6" xlink:href="#mf8d6076b35" y="174.528"/>
      </g>
     </g>
     <g id="text_12">
      <!-- 0 -->
      <g transform="translate(44.2375 178.327219)scale(0.1 -0.1)">
       <use xlink:href="#DejaVuSans-30"/>
      </g>
     </g>
    </g>
    <g id="ytick_4">
     <g id="line2d_13">
      <g>
       <use style="stroke:#000000;stroke-width:0.8;" x="57.6" xlink:href="#mf8d6076b35" y="127.008"/>
      </g>
     </g>
     <g id="text_13">
      <!-- 5 -->
      <g transform="translate(44.2375 130.807219)scale(0.1 -0.1)">
       <use xlink:href="#DejaVuSans-35"/>
      </g>
     </g>
    </g>
    <g id="ytick_5">
     <g id="line2d_14">
      <g>
       <use style="stroke:#000000;stroke-width:0.8;" x="57.6" xlink:href="#mf8d6076b35" y="79.488"/>
      </g>
     </g>
     <g id="text_14">
      <!-- 10 -->
      <g transform="translate(37.875 83.287219)scale(0.1 -0.1)">
       <use xlink:href="#DejaVuSans-31"/>
       <use x="63.623047" xlink:href="#DejaVuSans-30"/>
      </g>
     </g>
    </g>
   </g>
   <g id="patch_3">
    <path d="M 57.6 307.584 
L 57.6 41.472 
" style="fill:none;stroke:#000000;stroke-linecap:square;stroke-linejoin:miter;stroke-width:0.8;"/>
   </g>
   <g id="patch_4">
    <path d="M 414.72 307.584 
L 414.72 41.472 
" style="fill:none;stroke:#000000;stroke-linecap:square;stroke-linejoin:miter;stroke-width:0.8;"/>
   </g>
   <g id="patch_5">
    <path d="M 57.6 307.584 
L 414.72 307.584 
" style="fill:none;stroke:#000000;stroke-linecap:square;stroke-linejoin:miter;stroke-width:0.8;"/>
   </g>
   <g id="patch_6">
    <path d="M 57.6 41.472 
L 414.72 41.472 
" style="fill:none;stroke:#000000;stroke-linecap:square;stroke-linejoin:miter;stroke-width:0.8;"/>
   </g>
  </g>
 </g>
 <defs>
  <clipPath id="pcfb2f36185">
   <rect height="266.112" width="357.12" x="57.6" y="41.472"/>
  </clipPath>
 </defs>
</svg>
