<?xml version="1.0" encoding="utf-8" standalone="no"?>
<!DOCTYPE svg PUBLIC "-//W3C//DTD SVG 1.1//EN"
  "http://www.w3.org/Graphics/SVG/1.1/DTD/svg11.dtd">
<!-- Created with matplotlib (http://matplotlib.org/) -->
<svg height="345.6pt" version="1.1" viewBox="0 0 460.8 345.6" width="460.8pt" xmlns="http://www.w3.org/2000/svg" xmlns:xlink="http://www.w3.org/1999/xlink">
 <defs>
  <style type="text/css">
*{stroke-linecap:butt;stroke-linejoin:round;}
  </style>
 </defs>
 <g id="figure_1">
  <g id="patch_1">
   <path d="M 0 345.6 
L 460.8 345.6 
L 460.8 0 
L 0 0 
z
" style="fill:#ffffff;"/>
  </g>
  <g id="axes_1">
   <g id="patch_2">
    <path d="M 57.6 307.584 
L 414.72 307.584 
L 414.72 41.472 
L 57.6 41.472 
z
" style="fill:#ffffff;"/>
   </g>
   <g id="PathCollection_1">
    <defs>
     <path d="M 0 0.612372 
C 0.162403 0.612372 0.318176 0.547849 0.433013 0.433013 
C 0.547849 0.318176 0.612372 0.162403 0.612372 0 
C 0.612372 -0.162403 0.547849 -0.318176 0.433013 -0.433013 
C 0.318176 -0.547849 0.162403 -0.612372 0 -0.612372 
C -0.162403 -0.612372 -0.318176 -0.547849 -0.433013 -0.433013 
C -0.547849 -0.318176 -0.612372 -0.162403 -0.612372 0 
C -0.612372 0.162403 -0.547849 0.318176 -0.433013 0.433013 
C -0.318176 0.547849 -0.162403 0.612372 0 0.612372 
z
" id="mae56daabb2" style="stroke:#000000;"/>
    </defs>
    <g clip-path="url(#p026831d4b8)">
     <use style="stroke:#000000;" x="257.799307" xlink:href="#mae56daabb2" y="140.329208"/>
     <use style="stroke:#000000;" x="345.908957" xlink:href="#mae56daabb2" y="183.048614"/>
     <use style="stroke:#000000;" x="234.987279" xlink:href="#mae56daabb2" y="130.07022"/>
     <use style="stroke:#000000;" x="186.435174" xlink:href="#mae56daabb2" y="96.543571"/>
     <use style="stroke:#000000;" x="335.331121" xlink:href="#mae56daabb2" y="157.948874"/>
     <use style="stroke:#000000;" x="325.344367" xlink:href="#mae56daabb2" y="157.43641"/>
     <use style="stroke:#000000;" x="253.725193" xlink:href="#mae56daabb2" y="148.351873"/>
     <use style="stroke:#000000;" x="340.05827" xlink:href="#mae56daabb2" y="185.878304"/>
     <use style="stroke:#000000;" x="191.557951" xlink:href="#mae56daabb2" y="147.986538"/>
     <use style="stroke:#000000;" x="183.095003" xlink:href="#mae56daabb2" y="132.862776"/>
     <use style="stroke:#000000;" x="180.514048" xlink:href="#mae56daabb2" y="107.903271"/>
     <use style="stroke:#000000;" x="260.721618" xlink:href="#mae56daabb2" y="161.495996"/>
     <use style="stroke:#000000;" x="332.203782" xlink:href="#mae56daabb2" y="169.024734"/>
     <use style="stroke:#000000;" x="328.065517" xlink:href="#mae56daabb2" y="165.630007"/>
     <use style="stroke:#000000;" x="252.300487" xlink:href="#mae56daabb2" y="169.889448"/>
     <use style="stroke:#000000;" x="334.973325" xlink:href="#mae56daabb2" y="243.914765"/>
     <use style="stroke:#000000;" x="178.739297" xlink:href="#mae56daabb2" y="151.003935"/>
     <use style="stroke:#000000;" x="212.010654" xlink:href="#mae56daabb2" y="157.31109"/>
     <use style="stroke:#000000;" x="233.740756" xlink:href="#mae56daabb2" y="162.172277"/>
     <use style="stroke:#000000;" x="184.143809" xlink:href="#mae56daabb2" y="155.059636"/>
     <use style="stroke:#000000;" x="310.68041" xlink:href="#mae56daabb2" y="208.052334"/>
     <use style="stroke:#000000;" x="173.514464" xlink:href="#mae56daabb2" y="130.359758"/>
     <use style="stroke:#000000;" x="310.680142" xlink:href="#mae56daabb2" y="176.212065"/>
     <use style="stroke:#000000;" x="310.468247" xlink:href="#mae56daabb2" y="171.163492"/>
     <use style="stroke:#000000;" x="201.176305" xlink:href="#mae56daabb2" y="170.399573"/>
     <use style="stroke:#000000;" x="310.996633" xlink:href="#mae56daabb2" y="246.078756"/>
     <use style="stroke:#000000;" x="247.979929" xlink:href="#mae56daabb2" y="170.53402"/>
     <use style="stroke:#000000;" x="178.194905" xlink:href="#mae56daabb2" y="158.404483"/>
     <use style="stroke:#000000;" x="184.483809" xlink:href="#mae56daabb2" y="167.755241"/>
     <use style="stroke:#000000;" x="284.97111" xlink:href="#mae56daabb2" y="186.424208"/>
     <use style="stroke:#000000;" x="302.656336" xlink:href="#mae56daabb2" y="198.869784"/>
     <use style="stroke:#000000;" x="167.743402" xlink:href="#mae56daabb2" y="142.13919"/>
     <use style="stroke:#000000;" x="308.418345" xlink:href="#mae56daabb2" y="211.198125"/>
     <use style="stroke:#000000;" x="270.774587" xlink:href="#mae56daabb2" y="176.027724"/>
     <use style="stroke:#000000;" x="169.11265" xlink:href="#mae56daabb2" y="170.742603"/>
     <use style="stroke:#000000;" x="260.077414" xlink:href="#mae56daabb2" y="179.830907"/>
     <use style="stroke:#000000;" x="188.881316" xlink:href="#mae56daabb2" y="175.611158"/>
     <use style="stroke:#000000;" x="300.891735" xlink:href="#mae56daabb2" y="219.349636"/>
     <use style="stroke:#000000;" x="303.349104" xlink:href="#mae56daabb2" y="239.452993"/>
     <use style="stroke:#000000;" x="297.47243" xlink:href="#mae56daabb2" y="203.358948"/>
     <use style="stroke:#000000;" x="162.098194" xlink:href="#mae56daabb2" y="147.587809"/>
     <use style="stroke:#000000;" x="269.953537" xlink:href="#mae56daabb2" y="183.145386"/>
     <use style="stroke:#000000;" x="165.458388" xlink:href="#mae56daabb2" y="176.913532"/>
     <use style="stroke:#000000;" x="221.295207" xlink:href="#mae56daabb2" y="180.003864"/>
     <use style="stroke:#000000;" x="136.072354" xlink:href="#mae56daabb2" y="158.551086"/>
     <use style="stroke:#000000;" x="159.917061" xlink:href="#mae56daabb2" y="162.811365"/>
     <use style="stroke:#000000;" x="111.200176" xlink:href="#mae56daabb2" y="157.543632"/>
     <use style="stroke:#000000;" x="296.829855" xlink:href="#mae56daabb2" y="212.675784"/>
     <use style="stroke:#000000;" x="262.499342" xlink:href="#mae56daabb2" y="184.020804"/>
     <use style="stroke:#000000;" x="276.146451" xlink:href="#mae56daabb2" y="204.260331"/>
     <use style="stroke:#000000;" x="151.708763" xlink:href="#mae56daabb2" y="180.643365"/>
     <use style="stroke:#000000;" x="175.556336" xlink:href="#mae56daabb2" y="184.500649"/>
     <use style="stroke:#000000;" x="259.297567" xlink:href="#mae56daabb2" y="195.91774"/>
     <use style="stroke:#000000;" x="296.54193" xlink:href="#mae56daabb2" y="240.30735"/>
     <use style="stroke:#000000;" x="277.798015" xlink:href="#mae56daabb2" y="233.543823"/>
     <use style="stroke:#000000;" x="266.731038" xlink:href="#mae56daabb2" y="208.899867"/>
     <use style="stroke:#000000;" x="220.831844" xlink:href="#mae56daabb2" y="185.620802"/>
     <use style="stroke:#000000;" x="151.516452" xlink:href="#mae56daabb2" y="184.9649"/>
     <use style="stroke:#000000;" x="163.163265" xlink:href="#mae56daabb2" y="188.001363"/>
     <use style="stroke:#000000;" x="286.006899" xlink:href="#mae56daabb2" y="318.649091"/>
     <use style="stroke:#000000;" x="277.685503" xlink:href="#mae56daabb2" y="239.083951"/>
     <use style="stroke:#000000;" x="276.919563" xlink:href="#mae56daabb2" y="233.992051"/>
     <use style="stroke:#000000;" x="251.316041" xlink:href="#mae56daabb2" y="197.385263"/>
     <use style="stroke:#000000;" x="261.578586" xlink:href="#mae56daabb2" y="217.878337"/>
     <use style="stroke:#000000;" x="282.314652" xlink:href="#mae56daabb2" y="298.259558"/>
     <use style="stroke:#000000;" x="253.687121" xlink:href="#mae56daabb2" y="200.988982"/>
     <use style="stroke:#000000;" x="282.729611" xlink:href="#mae56daabb2" y="298.64042"/>
     <use style="stroke:#000000;" x="263.299462" xlink:href="#mae56daabb2" y="227.646223"/>
     <use style="stroke:#000000;" x="262.010215" xlink:href="#mae56daabb2" y="226.436891"/>
     <use style="stroke:#000000;" x="172.250298" xlink:href="#mae56daabb2" y="191.192234"/>
     <use style="stroke:#000000;" x="264.763829" xlink:href="#mae56daabb2" y="245.680838"/>
     <use style="stroke:#000000;" x="151.690031" xlink:href="#mae56daabb2" y="188.748116"/>
     <use style="stroke:#000000;" x="256.498265" xlink:href="#mae56daabb2" y="234.516425"/>
     <use style="stroke:#000000;" x="206.510137" xlink:href="#mae56daabb2" y="198.155296"/>
     <use style="stroke:#000000;" x="225.134035" xlink:href="#mae56daabb2" y="200.473088"/>
     <use style="stroke:#000000;" x="240.530066" xlink:href="#mae56daabb2" y="202.775071"/>
     <use style="stroke:#000000;" x="157.480245" xlink:href="#mae56daabb2" y="191.573718"/>
     <use style="stroke:#000000;" x="220.921229" xlink:href="#mae56daabb2" y="198.590681"/>
     <use style="stroke:#000000;" x="256.075052" xlink:href="#mae56daabb2" y="220.257851"/>
     <use style="stroke:#000000;" x="256.564559" xlink:href="#mae56daabb2" y="264.603263"/>
     <use style="stroke:#000000;" x="141.158154" xlink:href="#mae56daabb2" y="191.54837"/>
     <use style="stroke:#000000;" x="254.540866" xlink:href="#mae56daabb2" y="222.091711"/>
     <use style="stroke:#000000;" x="166.532253" xlink:href="#mae56daabb2" y="200.772538"/>
     <use style="stroke:#000000;" x="209.597337" xlink:href="#mae56daabb2" y="202.769573"/>
     <use style="stroke:#000000;" x="152.370246" xlink:href="#mae56daabb2" y="194.79465"/>
     <use style="stroke:#000000;" x="232.182756" xlink:href="#mae56daabb2" y="217.707414"/>
     <use style="stroke:#000000;" x="255.195337" xlink:href="#mae56daabb2" y="298.359901"/>
     <use style="stroke:#000000;" x="215.122862" xlink:href="#mae56daabb2" y="220.479132"/>
     <use style="stroke:#000000;" x="242.722465" xlink:href="#mae56daabb2" y="245.198268"/>
     <use style="stroke:#000000;" x="251.719949" xlink:href="#mae56daabb2" y="267.399379"/>
     <use style="stroke:#000000;" x="251.014784" xlink:href="#mae56daabb2" y="248.307541"/>
     <use style="stroke:#000000;" x="233.970001" xlink:href="#mae56daabb2" y="228.429105"/>
     <use style="stroke:#000000;" x="185.787272" xlink:href="#mae56daabb2" y="203.31771"/>
     <use style="stroke:#000000;" x="142.521061" xlink:href="#mae56daabb2" y="202.281991"/>
     <use style="stroke:#000000;" x="201.808362" xlink:href="#mae56daabb2" y="210.793118"/>
     <use style="stroke:#000000;" x="249.398185" xlink:href="#mae56daabb2" y="295.50951"/>
     <use style="stroke:#000000;" x="209.433177" xlink:href="#mae56daabb2" y="221.423526"/>
     <use style="stroke:#000000;" x="167.078001" xlink:href="#mae56daabb2" y="208.047116"/>
     <use style="stroke:#000000;" x="242.258452" xlink:href="#mae56daabb2" y="263.28189"/>
     <use style="stroke:#000000;" x="233.884071" xlink:href="#mae56daabb2" y="230.504874"/>
     <use style="stroke:#000000;" x="231.578586" xlink:href="#mae56daabb2" y="245.655937"/>
     <use style="stroke:#000000;" x="290.305578" xlink:href="#mae56daabb2" y="159.029342"/>
     <use style="stroke:#000000;" x="198.078569" xlink:href="#mae56daabb2" y="193.490052"/>
     <use style="stroke:#000000;" x="187.570722" xlink:href="#mae56daabb2" y="211.257139"/>
     <use style="stroke:#000000;" x="374.249024" xlink:href="#mae56daabb2" y="176.290769"/>
     <use style="stroke:#000000;" x="273.541693" xlink:href="#mae56daabb2" y="254.327341"/>
     <use style="stroke:#000000;" x="303.780164" xlink:href="#mae56daabb2" y="202.441304"/>
     <use style="stroke:#000000;" x="346.10331" xlink:href="#mae56daabb2" y="176.825769"/>
     <use style="stroke:#000000;" x="200.701392" xlink:href="#mae56daabb2" y="232.736723"/>
     <use style="stroke:#000000;" x="226.613282" xlink:href="#mae56daabb2" y="180.405313"/>
     <use style="stroke:#000000;" x="199.066131" xlink:href="#mae56daabb2" y="286.058997"/>
     <use style="stroke:#000000;" x="262.53688" xlink:href="#mae56daabb2" y="179.752849"/>
     <use style="stroke:#000000;" x="353.271151" xlink:href="#mae56daabb2" y="149.518474"/>
     <use style="stroke:#000000;" x="275.983399" xlink:href="#mae56daabb2" y="233.762143"/>
     <use style="stroke:#000000;" x="283.880791" xlink:href="#mae56daabb2" y="230.291868"/>
     <use style="stroke:#000000;" x="361.008722" xlink:href="#mae56daabb2" y="145.529888"/>
     <use style="stroke:#000000;" x="165.854755" xlink:href="#mae56daabb2" y="197.48187"/>
     <use style="stroke:#000000;" x="182.891234" xlink:href="#mae56daabb2" y="212.970685"/>
     <use style="stroke:#000000;" x="207.034193" xlink:href="#mae56daabb2" y="220.324084"/>
     <use style="stroke:#000000;" x="192.123651" xlink:href="#mae56daabb2" y="185.334187"/>
     <use style="stroke:#000000;" x="275.810785" xlink:href="#mae56daabb2" y="221.899861"/>
     <use style="stroke:#000000;" x="161.737985" xlink:href="#mae56daabb2" y="199.593902"/>
     <use style="stroke:#000000;" x="310.96713" xlink:href="#mae56daabb2" y="232.027259"/>
     <use style="stroke:#000000;" x="293.914004" xlink:href="#mae56daabb2" y="250.651034"/>
     <use style="stroke:#000000;" x="180.538826" xlink:href="#mae56daabb2" y="205.422458"/>
     <use style="stroke:#000000;" x="274.056655" xlink:href="#mae56daabb2" y="254.276048"/>
     <use style="stroke:#000000;" x="287.558398" xlink:href="#mae56daabb2" y="181.682604"/>
     <use style="stroke:#000000;" x="158.758612" xlink:href="#mae56daabb2" y="155.237547"/>
     <use style="stroke:#000000;" x="164.201185" xlink:href="#mae56daabb2" y="306.628256"/>
     <use style="stroke:#000000;" x="239.571834" xlink:href="#mae56daabb2" y="308.085116"/>
     <use style="stroke:#000000;" x="328.487094" xlink:href="#mae56daabb2" y="226.670053"/>
     <use style="stroke:#000000;" x="132.668747" xlink:href="#mae56daabb2" y="203.183653"/>
     <use style="stroke:#000000;" x="325.002871" xlink:href="#mae56daabb2" y="169.201375"/>
     <use style="stroke:#000000;" x="243.275947" xlink:href="#mae56daabb2" y="270.5707"/>
     <use style="stroke:#000000;" x="185.203118" xlink:href="#mae56daabb2" y="104.723324"/>
     <use style="stroke:#000000;" x="264.007621" xlink:href="#mae56daabb2" y="148.425757"/>
     <use style="stroke:#000000;" x="202.635091" xlink:href="#mae56daabb2" y="205.69485"/>
     <use style="stroke:#000000;" x="287.779433" xlink:href="#mae56daabb2" y="227.186881"/>
     <use style="stroke:#000000;" x="326.92382" xlink:href="#mae56daabb2" y="181.476141"/>
     <use style="stroke:#000000;" x="311.511363" xlink:href="#mae56daabb2" y="186.84753"/>
     <use style="stroke:#000000;" x="148.790197" xlink:href="#mae56daabb2" y="181.984548"/>
     <use style="stroke:#000000;" x="270.374455" xlink:href="#mae56daabb2" y="237.670791"/>
     <use style="stroke:#000000;" x="149.307407" xlink:href="#mae56daabb2" y="320.487279"/>
     <use style="stroke:#000000;" x="182.850508" xlink:href="#mae56daabb2" y="233.721506"/>
     <use style="stroke:#000000;" x="133.260944" xlink:href="#mae56daabb2" y="254.859654"/>
     <use style="stroke:#000000;" x="161.345419" xlink:href="#mae56daabb2" y="280.897301"/>
     <use style="stroke:#000000;" x="112.400721" xlink:href="#mae56daabb2" y="204.431136"/>
     <use style="stroke:#000000;" x="244.800952" xlink:href="#mae56daabb2" y="154.883794"/>
     <use style="stroke:#000000;" x="231.372637" xlink:href="#mae56daabb2" y="209.22453"/>
     <use style="stroke:#000000;" x="255.734417" xlink:href="#mae56daabb2" y="224.57801"/>
    </g>
   </g>
   <g id="PathCollection_2">
    <defs>
     <path d="M 0 0.935414 
C 0.248075 0.935414 0.486022 0.836853 0.661438 0.661438 
C 0.836853 0.486022 0.935414 0.248075 0.935414 0 
C 0.935414 -0.248075 0.836853 -0.486022 0.661438 -0.661438 
C 0.486022 -0.836853 0.248075 -0.935414 0 -0.935414 
C -0.248075 -0.935414 -0.486022 -0.836853 -0.661438 -0.661438 
C -0.836853 -0.486022 -0.935414 -0.248075 -0.935414 0 
C -0.935414 0.248075 -0.836853 0.486022 -0.661438 0.661438 
C -0.486022 0.836853 -0.248075 0.935414 0 0.935414 
z
" id="mbf54570123" style="stroke:#0000ff;"/>
    </defs>
    <g clip-path="url(#p026831d4b8)">
     <use style="fill:#0000ff;stroke:#0000ff;" x="257.799307" xlink:href="#mbf54570123" y="140.329208"/>
     <use style="fill:#0000ff;stroke:#0000ff;" x="345.908957" xlink:href="#mbf54570123" y="183.048614"/>
     <use style="fill:#0000ff;stroke:#0000ff;" x="234.987279" xlink:href="#mbf54570123" y="130.07022"/>
     <use style="fill:#0000ff;stroke:#0000ff;" x="186.435174" xlink:href="#mbf54570123" y="96.543571"/>
     <use style="fill:#0000ff;stroke:#0000ff;" x="335.331121" xlink:href="#mbf54570123" y="157.948874"/>
     <use style="fill:#0000ff;stroke:#0000ff;" x="325.344367" xlink:href="#mbf54570123" y="157.43641"/>
     <use style="fill:#0000ff;stroke:#0000ff;" x="253.725193" xlink:href="#mbf54570123" y="148.351873"/>
     <use style="fill:#0000ff;stroke:#0000ff;" x="340.05827" xlink:href="#mbf54570123" y="185.878304"/>
     <use style="fill:#0000ff;stroke:#0000ff;" x="191.557951" xlink:href="#mbf54570123" y="147.986538"/>
     <use style="fill:#0000ff;stroke:#0000ff;" x="183.095003" xlink:href="#mbf54570123" y="132.862776"/>
     <use style="fill:#0000ff;stroke:#0000ff;" x="180.514048" xlink:href="#mbf54570123" y="107.903271"/>
     <use style="fill:#0000ff;stroke:#0000ff;" x="260.721618" xlink:href="#mbf54570123" y="161.495996"/>
     <use style="fill:#0000ff;stroke:#0000ff;" x="332.203782" xlink:href="#mbf54570123" y="169.024734"/>
     <use style="fill:#0000ff;stroke:#0000ff;" x="328.065517" xlink:href="#mbf54570123" y="165.630007"/>
     <use style="fill:#0000ff;stroke:#0000ff;" x="252.300487" xlink:href="#mbf54570123" y="169.889448"/>
     <use style="fill:#0000ff;stroke:#0000ff;" x="334.973325" xlink:href="#mbf54570123" y="243.914765"/>
     <use style="fill:#0000ff;stroke:#0000ff;" x="178.739297" xlink:href="#mbf54570123" y="151.003935"/>
     <use style="fill:#0000ff;stroke:#0000ff;" x="212.010654" xlink:href="#mbf54570123" y="157.31109"/>
     <use style="fill:#0000ff;stroke:#0000ff;" x="233.740756" xlink:href="#mbf54570123" y="162.172277"/>
     <use style="fill:#0000ff;stroke:#0000ff;" x="184.143809" xlink:href="#mbf54570123" y="155.059636"/>
     <use style="fill:#0000ff;stroke:#0000ff;" x="310.68041" xlink:href="#mbf54570123" y="208.052334"/>
     <use style="fill:#0000ff;stroke:#0000ff;" x="173.514464" xlink:href="#mbf54570123" y="130.359758"/>
     <use style="fill:#0000ff;stroke:#0000ff;" x="310.680142" xlink:href="#mbf54570123" y="176.212065"/>
     <use style="fill:#0000ff;stroke:#0000ff;" x="310.468247" xlink:href="#mbf54570123" y="171.163492"/>
     <use style="fill:#0000ff;stroke:#0000ff;" x="201.176305" xlink:href="#mbf54570123" y="170.399573"/>
     <use style="fill:#0000ff;stroke:#0000ff;" x="310.996633" xlink:href="#mbf54570123" y="246.078756"/>
     <use style="fill:#0000ff;stroke:#0000ff;" x="247.979929" xlink:href="#mbf54570123" y="170.53402"/>
     <use style="fill:#0000ff;stroke:#0000ff;" x="178.194905" xlink:href="#mbf54570123" y="158.404483"/>
     <use style="fill:#0000ff;stroke:#0000ff;" x="184.483809" xlink:href="#mbf54570123" y="167.755241"/>
     <use style="fill:#0000ff;stroke:#0000ff;" x="284.97111" xlink:href="#mbf54570123" y="186.424208"/>
     <use style="fill:#0000ff;stroke:#0000ff;" x="302.656336" xlink:href="#mbf54570123" y="198.869784"/>
     <use style="fill:#0000ff;stroke:#0000ff;" x="167.743402" xlink:href="#mbf54570123" y="142.13919"/>
     <use style="fill:#0000ff;stroke:#0000ff;" x="308.418345" xlink:href="#mbf54570123" y="211.198125"/>
     <use style="fill:#0000ff;stroke:#0000ff;" x="270.774587" xlink:href="#mbf54570123" y="176.027724"/>
     <use style="fill:#0000ff;stroke:#0000ff;" x="169.11265" xlink:href="#mbf54570123" y="170.742603"/>
     <use style="fill:#0000ff;stroke:#0000ff;" x="260.077414" xlink:href="#mbf54570123" y="179.830907"/>
     <use style="fill:#0000ff;stroke:#0000ff;" x="188.881316" xlink:href="#mbf54570123" y="175.611158"/>
     <use style="fill:#0000ff;stroke:#0000ff;" x="300.891735" xlink:href="#mbf54570123" y="219.349636"/>
     <use style="fill:#0000ff;stroke:#0000ff;" x="303.349104" xlink:href="#mbf54570123" y="239.452993"/>
     <use style="fill:#0000ff;stroke:#0000ff;" x="297.47243" xlink:href="#mbf54570123" y="203.358948"/>
     <use style="fill:#0000ff;stroke:#0000ff;" x="162.098194" xlink:href="#mbf54570123" y="147.587809"/>
     <use style="fill:#0000ff;stroke:#0000ff;" x="269.953537" xlink:href="#mbf54570123" y="183.145386"/>
     <use style="fill:#0000ff;stroke:#0000ff;" x="165.458388" xlink:href="#mbf54570123" y="176.913532"/>
     <use style="fill:#0000ff;stroke:#0000ff;" x="221.295207" xlink:href="#mbf54570123" y="180.003864"/>
     <use style="fill:#0000ff;stroke:#0000ff;" x="136.072354" xlink:href="#mbf54570123" y="158.551086"/>
     <use style="fill:#0000ff;stroke:#0000ff;" x="159.917061" xlink:href="#mbf54570123" y="162.811365"/>
     <use style="fill:#0000ff;stroke:#0000ff;" x="111.200176" xlink:href="#mbf54570123" y="157.543632"/>
     <use style="fill:#0000ff;stroke:#0000ff;" x="296.829855" xlink:href="#mbf54570123" y="212.675784"/>
     <use style="fill:#0000ff;stroke:#0000ff;" x="262.499342" xlink:href="#mbf54570123" y="184.020804"/>
     <use style="fill:#0000ff;stroke:#0000ff;" x="276.146451" xlink:href="#mbf54570123" y="204.260331"/>
     <use style="fill:#0000ff;stroke:#0000ff;" x="151.708763" xlink:href="#mbf54570123" y="180.643365"/>
     <use style="fill:#0000ff;stroke:#0000ff;" x="175.556336" xlink:href="#mbf54570123" y="184.500649"/>
     <use style="fill:#0000ff;stroke:#0000ff;" x="259.297567" xlink:href="#mbf54570123" y="195.91774"/>
     <use style="fill:#0000ff;stroke:#0000ff;" x="296.54193" xlink:href="#mbf54570123" y="240.30735"/>
     <use style="fill:#0000ff;stroke:#0000ff;" x="277.798015" xlink:href="#mbf54570123" y="233.543823"/>
     <use style="fill:#0000ff;stroke:#0000ff;" x="266.731038" xlink:href="#mbf54570123" y="208.899867"/>
     <use style="fill:#0000ff;stroke:#0000ff;" x="220.831844" xlink:href="#mbf54570123" y="185.620802"/>
     <use style="fill:#0000ff;stroke:#0000ff;" x="151.516452" xlink:href="#mbf54570123" y="184.9649"/>
     <use style="fill:#0000ff;stroke:#0000ff;" x="163.163265" xlink:href="#mbf54570123" y="188.001363"/>
     <use style="fill:#0000ff;stroke:#0000ff;" x="286.006899" xlink:href="#mbf54570123" y="318.649091"/>
     <use style="fill:#0000ff;stroke:#0000ff;" x="277.685503" xlink:href="#mbf54570123" y="239.083951"/>
     <use style="fill:#0000ff;stroke:#0000ff;" x="276.919563" xlink:href="#mbf54570123" y="233.992051"/>
     <use style="fill:#0000ff;stroke:#0000ff;" x="251.316041" xlink:href="#mbf54570123" y="197.385263"/>
     <use style="fill:#0000ff;stroke:#0000ff;" x="261.578586" xlink:href="#mbf54570123" y="217.878337"/>
     <use style="fill:#0000ff;stroke:#0000ff;" x="282.314652" xlink:href="#mbf54570123" y="298.259558"/>
     <use style="fill:#0000ff;stroke:#0000ff;" x="253.687121" xlink:href="#mbf54570123" y="200.988982"/>
     <use style="fill:#0000ff;stroke:#0000ff;" x="282.729611" xlink:href="#mbf54570123" y="298.64042"/>
     <use style="fill:#0000ff;stroke:#0000ff;" x="263.299462" xlink:href="#mbf54570123" y="227.646223"/>
     <use style="fill:#0000ff;stroke:#0000ff;" x="262.010215" xlink:href="#mbf54570123" y="226.436891"/>
     <use style="fill:#0000ff;stroke:#0000ff;" x="172.250298" xlink:href="#mbf54570123" y="191.192234"/>
     <use style="fill:#0000ff;stroke:#0000ff;" x="264.763829" xlink:href="#mbf54570123" y="245.680838"/>
     <use style="fill:#0000ff;stroke:#0000ff;" x="151.690031" xlink:href="#mbf54570123" y="188.748116"/>
     <use style="fill:#0000ff;stroke:#0000ff;" x="256.498265" xlink:href="#mbf54570123" y="234.516425"/>
     <use style="fill:#0000ff;stroke:#0000ff;" x="206.510137" xlink:href="#mbf54570123" y="198.155296"/>
     <use style="fill:#0000ff;stroke:#0000ff;" x="225.134035" xlink:href="#mbf54570123" y="200.473088"/>
     <use style="fill:#0000ff;stroke:#0000ff;" x="240.530066" xlink:href="#mbf54570123" y="202.775071"/>
     <use style="fill:#0000ff;stroke:#0000ff;" x="157.480245" xlink:href="#mbf54570123" y="191.573718"/>
     <use style="fill:#0000ff;stroke:#0000ff;" x="220.921229" xlink:href="#mbf54570123" y="198.590681"/>
     <use style="fill:#0000ff;stroke:#0000ff;" x="256.075052" xlink:href="#mbf54570123" y="220.257851"/>
     <use style="fill:#0000ff;stroke:#0000ff;" x="256.564559" xlink:href="#mbf54570123" y="264.603263"/>
     <use style="fill:#0000ff;stroke:#0000ff;" x="141.158154" xlink:href="#mbf54570123" y="191.54837"/>
     <use style="fill:#0000ff;stroke:#0000ff;" x="254.540866" xlink:href="#mbf54570123" y="222.091711"/>
     <use style="fill:#0000ff;stroke:#0000ff;" x="166.532253" xlink:href="#mbf54570123" y="200.772538"/>
     <use style="fill:#0000ff;stroke:#0000ff;" x="209.597337" xlink:href="#mbf54570123" y="202.769573"/>
     <use style="fill:#0000ff;stroke:#0000ff;" x="152.370246" xlink:href="#mbf54570123" y="194.79465"/>
     <use style="fill:#0000ff;stroke:#0000ff;" x="232.182756" xlink:href="#mbf54570123" y="217.707414"/>
     <use style="fill:#0000ff;stroke:#0000ff;" x="255.195337" xlink:href="#mbf54570123" y="298.359901"/>
     <use style="fill:#0000ff;stroke:#0000ff;" x="215.122862" xlink:href="#mbf54570123" y="220.479132"/>
     <use style="fill:#0000ff;stroke:#0000ff;" x="242.722465" xlink:href="#mbf54570123" y="245.198268"/>
     <use style="fill:#0000ff;stroke:#0000ff;" x="251.719949" xlink:href="#mbf54570123" y="267.399379"/>
     <use style="fill:#0000ff;stroke:#0000ff;" x="251.014784" xlink:href="#mbf54570123" y="248.307541"/>
     <use style="fill:#0000ff;stroke:#0000ff;" x="233.970001" xlink:href="#mbf54570123" y="228.429105"/>
     <use style="fill:#0000ff;stroke:#0000ff;" x="185.787272" xlink:href="#mbf54570123" y="203.31771"/>
     <use style="fill:#0000ff;stroke:#0000ff;" x="142.521061" xlink:href="#mbf54570123" y="202.281991"/>
     <use style="fill:#0000ff;stroke:#0000ff;" x="201.808362" xlink:href="#mbf54570123" y="210.793118"/>
     <use style="fill:#0000ff;stroke:#0000ff;" x="249.398185" xlink:href="#mbf54570123" y="295.50951"/>
     <use style="fill:#0000ff;stroke:#0000ff;" x="209.433177" xlink:href="#mbf54570123" y="221.423526"/>
     <use style="fill:#0000ff;stroke:#0000ff;" x="167.078001" xlink:href="#mbf54570123" y="208.047116"/>
     <use style="fill:#0000ff;stroke:#0000ff;" x="242.258452" xlink:href="#mbf54570123" y="263.28189"/>
     <use style="fill:#0000ff;stroke:#0000ff;" x="233.884071" xlink:href="#mbf54570123" y="230.504874"/>
    </g>
   </g>
   <g id="matplotlib.axis_1">
    <g id="xtick_1">
     <g id="line2d_1">
      <defs>
       <path d="M 0 0 
L 0 3.5 
" id="mde9aa65ce0" style="stroke:#000000;stroke-width:0.8;"/>
      </defs>
      <g>
       <use style="stroke:#000000;stroke-width:0.8;" x="57.6" xlink:href="#mde9aa65ce0" y="307.584"/>
      </g>
     </g>
     <g id="text_1">
      <!-- 4 -->
      <defs>
       <path d="M 37.796875 64.3125 
L 12.890625 25.390625 
L 37.796875 25.390625 
z
M 35.203125 72.90625 
L 47.609375 72.90625 
L 47.609375 25.390625 
L 58.015625 25.390625 
L 58.015625 17.1875 
L 47.609375 17.1875 
L 47.609375 0 
L 37.796875 0 
L 37.796875 17.1875 
L 4.890625 17.1875 
L 4.890625 26.703125 
z
" id="DejaVuSans-34"/>
      </defs>
      <g transform="translate(54.41875 322.182437)scale(0.1 -0.1)">
       <use xlink:href="#DejaVuSans-34"/>
      </g>
     </g>
    </g>
    <g id="xtick_2">
     <g id="line2d_2">
      <g>
       <use style="stroke:#000000;stroke-width:0.8;" x="102.24" xlink:href="#mde9aa65ce0" y="307.584"/>
      </g>
     </g>
     <g id="text_2">
      <!-- 6 -->
      <defs>
       <path d="M 33.015625 40.375 
Q 26.375 40.375 22.484375 35.828125 
Q 18.609375 31.296875 18.609375 23.390625 
Q 18.609375 15.53125 22.484375 10.953125 
Q 26.375 6.390625 33.015625 6.390625 
Q 39.65625 6.390625 43.53125 10.953125 
Q 47.40625 15.53125 47.40625 23.390625 
Q 47.40625 31.296875 43.53125 35.828125 
Q 39.65625 40.375 33.015625 40.375 
z
M 52.59375 71.296875 
L 52.59375 62.3125 
Q 48.875 64.0625 45.09375 64.984375 
Q 41.3125 65.921875 37.59375 65.921875 
Q 27.828125 65.921875 22.671875 59.328125 
Q 17.53125 52.734375 16.796875 39.40625 
Q 19.671875 43.65625 24.015625 45.921875 
Q 28.375 48.1875 33.59375 48.1875 
Q 44.578125 48.1875 50.953125 41.515625 
Q 57.328125 34.859375 57.328125 23.390625 
Q 57.328125 12.15625 50.6875 5.359375 
Q 44.046875 -1.421875 33.015625 -1.421875 
Q 20.359375 -1.421875 13.671875 8.265625 
Q 6.984375 17.96875 6.984375 36.375 
Q 6.984375 53.65625 15.1875 63.9375 
Q 23.390625 74.21875 37.203125 74.21875 
Q 40.921875 74.21875 44.703125 73.484375 
Q 48.484375 72.75 52.59375 71.296875 
z
" id="DejaVuSans-36"/>
      </defs>
      <g transform="translate(99.05875 322.182437)scale(0.1 -0.1)">
       <use xlink:href="#DejaVuSans-36"/>
      </g>
     </g>
    </g>
    <g id="xtick_3">
     <g id="line2d_3">
      <g>
       <use style="stroke:#000000;stroke-width:0.8;" x="146.88" xlink:href="#mde9aa65ce0" y="307.584"/>
      </g>
     </g>
     <g id="text_3">
      <!-- 8 -->
      <defs>
       <path d="M 31.78125 34.625 
Q 24.75 34.625 20.71875 30.859375 
Q 16.703125 27.09375 16.703125 20.515625 
Q 16.703125 13.921875 20.71875 10.15625 
Q 24.75 6.390625 31.78125 6.390625 
Q 38.8125 6.390625 42.859375 10.171875 
Q 46.921875 13.96875 46.921875 20.515625 
Q 46.921875 27.09375 42.890625 30.859375 
Q 38.875 34.625 31.78125 34.625 
z
M 21.921875 38.8125 
Q 15.578125 40.375 12.03125 44.71875 
Q 8.5 49.078125 8.5 55.328125 
Q 8.5 64.0625 14.71875 69.140625 
Q 20.953125 74.21875 31.78125 74.21875 
Q 42.671875 74.21875 48.875 69.140625 
Q 55.078125 64.0625 55.078125 55.328125 
Q 55.078125 49.078125 51.53125 44.71875 
Q 48 40.375 41.703125 38.8125 
Q 48.828125 37.15625 52.796875 32.3125 
Q 56.78125 27.484375 56.78125 20.515625 
Q 56.78125 9.90625 50.3125 4.234375 
Q 43.84375 -1.421875 31.78125 -1.421875 
Q 19.734375 -1.421875 13.25 4.234375 
Q 6.78125 9.90625 6.78125 20.515625 
Q 6.78125 27.484375 10.78125 32.3125 
Q 14.796875 37.15625 21.921875 38.8125 
z
M 18.3125 54.390625 
Q 18.3125 48.734375 21.84375 45.5625 
Q 25.390625 42.390625 31.78125 42.390625 
Q 38.140625 42.390625 41.71875 45.5625 
Q 45.3125 48.734375 45.3125 54.390625 
Q 45.3125 60.0625 41.71875 63.234375 
Q 38.140625 66.40625 31.78125 66.40625 
Q 25.390625 66.40625 21.84375 63.234375 
Q 18.3125 60.0625 18.3125 54.390625 
z
" id="DejaVuSans-38"/>
      </defs>
      <g transform="translate(143.69875 322.182437)scale(0.1 -0.1)">
       <use xlink:href="#DejaVuSans-38"/>
      </g>
     </g>
    </g>
    <g id="xtick_4">
     <g id="line2d_4">
      <g>
       <use style="stroke:#000000;stroke-width:0.8;" x="191.52" xlink:href="#mde9aa65ce0" y="307.584"/>
      </g>
     </g>
     <g id="text_4">
      <!-- 10 -->
      <defs>
       <path d="M 12.40625 8.296875 
L 28.515625 8.296875 
L 28.515625 63.921875 
L 10.984375 60.40625 
L 10.984375 69.390625 
L 28.421875 72.90625 
L 38.28125 72.90625 
L 38.28125 8.296875 
L 54.390625 8.296875 
L 54.390625 0 
L 12.40625 0 
z
" id="DejaVuSans-31"/>
       <path d="M 31.78125 66.40625 
Q 24.171875 66.40625 20.328125 58.90625 
Q 16.5 51.421875 16.5 36.375 
Q 16.5 21.390625 20.328125 13.890625 
Q 24.171875 6.390625 31.78125 6.390625 
Q 39.453125 6.390625 43.28125 13.890625 
Q 47.125 21.390625 47.125 36.375 
Q 47.125 51.421875 43.28125 58.90625 
Q 39.453125 66.40625 31.78125 66.40625 
z
M 31.78125 74.21875 
Q 44.046875 74.21875 50.515625 64.515625 
Q 56.984375 54.828125 56.984375 36.375 
Q 56.984375 17.96875 50.515625 8.265625 
Q 44.046875 -1.421875 31.78125 -1.421875 
Q 19.53125 -1.421875 13.0625 8.265625 
Q 6.59375 17.96875 6.59375 36.375 
Q 6.59375 54.828125 13.0625 64.515625 
Q 19.53125 74.21875 31.78125 74.21875 
z
" id="DejaVuSans-30"/>
      </defs>
      <g transform="translate(185.1575 322.182437)scale(0.1 -0.1)">
       <use xlink:href="#DejaVuSans-31"/>
       <use x="63.623047" xlink:href="#DejaVuSans-30"/>
      </g>
     </g>
    </g>
    <g id="xtick_5">
     <g id="line2d_5">
      <g>
       <use style="stroke:#000000;stroke-width:0.8;" x="236.16" xlink:href="#mde9aa65ce0" y="307.584"/>
      </g>
     </g>
     <g id="text_5">
      <!-- 12 -->
      <defs>
       <path d="M 19.1875 8.296875 
L 53.609375 8.296875 
L 53.609375 0 
L 7.328125 0 
L 7.328125 8.296875 
Q 12.9375 14.109375 22.625 23.890625 
Q 32.328125 33.6875 34.8125 36.53125 
Q 39.546875 41.84375 41.421875 45.53125 
Q 43.3125 49.21875 43.3125 52.78125 
Q 43.3125 58.59375 39.234375 62.25 
Q 35.15625 65.921875 28.609375 65.921875 
Q 23.96875 65.921875 18.8125 64.3125 
Q 13.671875 62.703125 7.8125 59.421875 
L 7.8125 69.390625 
Q 13.765625 71.78125 18.9375 73 
Q 24.125 74.21875 28.421875 74.21875 
Q 39.75 74.21875 46.484375 68.546875 
Q 53.21875 62.890625 53.21875 53.421875 
Q 53.21875 48.921875 51.53125 44.890625 
Q 49.859375 40.875 45.40625 35.40625 
Q 44.1875 33.984375 37.640625 27.21875 
Q 31.109375 20.453125 19.1875 8.296875 
z
" id="DejaVuSans-32"/>
      </defs>
      <g transform="translate(229.7975 322.182437)scale(0.1 -0.1)">
       <use xlink:href="#DejaVuSans-31"/>
       <use x="63.623047" xlink:href="#DejaVuSans-32"/>
      </g>
     </g>
    </g>
    <g id="xtick_6">
     <g id="line2d_6">
      <g>
       <use style="stroke:#000000;stroke-width:0.8;" x="280.8" xlink:href="#mde9aa65ce0" y="307.584"/>
      </g>
     </g>
     <g id="text_6">
      <!-- 14 -->
      <g transform="translate(274.4375 322.182437)scale(0.1 -0.1)">
       <use xlink:href="#DejaVuSans-31"/>
       <use x="63.623047" xlink:href="#DejaVuSans-34"/>
      </g>
     </g>
    </g>
    <g id="xtick_7">
     <g id="line2d_7">
      <g>
       <use style="stroke:#000000;stroke-width:0.8;" x="325.44" xlink:href="#mde9aa65ce0" y="307.584"/>
      </g>
     </g>
     <g id="text_7">
      <!-- 16 -->
      <g transform="translate(319.0775 322.182437)scale(0.1 -0.1)">
       <use xlink:href="#DejaVuSans-31"/>
       <use x="63.623047" xlink:href="#DejaVuSans-36"/>
      </g>
     </g>
    </g>
    <g id="xtick_8">
     <g id="line2d_8">
      <g>
       <use style="stroke:#000000;stroke-width:0.8;" x="370.08" xlink:href="#mde9aa65ce0" y="307.584"/>
      </g>
     </g>
     <g id="text_8">
      <!-- 18 -->
      <g transform="translate(363.7175 322.182437)scale(0.1 -0.1)">
       <use xlink:href="#DejaVuSans-31"/>
       <use x="63.623047" xlink:href="#DejaVuSans-38"/>
      </g>
     </g>
    </g>
    <g id="xtick_9">
     <g id="line2d_9">
      <g>
       <use style="stroke:#000000;stroke-width:0.8;" x="414.72" xlink:href="#mde9aa65ce0" y="307.584"/>
      </g>
     </g>
     <g id="text_9">
      <!-- 20 -->
      <g transform="translate(408.3575 322.182437)scale(0.1 -0.1)">
       <use xlink:href="#DejaVuSans-32"/>
       <use x="63.623047" xlink:href="#DejaVuSans-30"/>
      </g>
     </g>
    </g>
   </g>
   <g id="matplotlib.axis_2">
    <g id="ytick_1">
     <g id="line2d_10">
      <defs>
       <path d="M 0 0 
L -3.5 0 
" id="ma43d60dad3" style="stroke:#000000;stroke-width:0.8;"/>
      </defs>
      <g>
       <use style="stroke:#000000;stroke-width:0.8;" x="57.6" xlink:href="#ma43d60dad3" y="269.568"/>
      </g>
     </g>
     <g id="text_10">
      <!-- −10 -->
      <defs>
       <path d="M 10.59375 35.5 
L 73.1875 35.5 
L 73.1875 27.203125 
L 10.59375 27.203125 
z
" id="DejaVuSans-2212"/>
      </defs>
      <g transform="translate(29.495313 273.367219)scale(0.1 -0.1)">
       <use xlink:href="#DejaVuSans-2212"/>
       <use x="83.789062" xlink:href="#DejaVuSans-31"/>
       <use x="147.412109" xlink:href="#DejaVuSans-30"/>
      </g>
     </g>
    </g>
    <g id="ytick_2">
     <g id="line2d_11">
      <g>
       <use style="stroke:#000000;stroke-width:0.8;" x="57.6" xlink:href="#ma43d60dad3" y="222.048"/>
      </g>
     </g>
     <g id="text_11">
      <!-- −5 -->
      <defs>
       <path d="M 10.796875 72.90625 
L 49.515625 72.90625 
L 49.515625 64.59375 
L 19.828125 64.59375 
L 19.828125 46.734375 
Q 21.96875 47.46875 24.109375 47.828125 
Q 26.265625 48.1875 28.421875 48.1875 
Q 40.625 48.1875 47.75 41.5 
Q 54.890625 34.8125 54.890625 23.390625 
Q 54.890625 11.625 47.5625 5.09375 
Q 40.234375 -1.421875 26.90625 -1.421875 
Q 22.3125 -1.421875 17.546875 -0.640625 
Q 12.796875 0.140625 7.71875 1.703125 
L 7.71875 11.625 
Q 12.109375 9.234375 16.796875 8.0625 
Q 21.484375 6.890625 26.703125 6.890625 
Q 35.15625 6.890625 40.078125 11.328125 
Q 45.015625 15.765625 45.015625 23.390625 
Q 45.015625 31 40.078125 35.4375 
Q 35.15625 39.890625 26.703125 39.890625 
Q 22.75 39.890625 18.8125 39.015625 
Q 14.890625 38.140625 10.796875 36.28125 
z
" id="DejaVuSans-35"/>
      </defs>
      <g transform="translate(35.857813 225.847219)scale(0.1 -0.1)">
       <use xlink:href="#DejaVuSans-2212"/>
       <use x="83.789062" xlink:href="#DejaVuSans-35"/>
      </g>
     </g>
    </g>
    <g id="ytick_3">
     <g id="line2d_12">
      <g>
       <use style="stroke:#000000;stroke-width:0.8;" x="57.6" xlink:href="#ma43d60dad3" y="174.528"/>
      </g>
     </g>
     <g id="text_12">
      <!-- 0 -->
      <g transform="translate(44.2375 178.327219)scale(0.1 -0.1)">
       <use xlink:href="#DejaVuSans-30"/>
      </g>
     </g>
    </g>
    <g id="ytick_4">
     <g id="line2d_13">
      <g>
       <use style="stroke:#000000;stroke-width:0.8;" x="57.6" xlink:href="#ma43d60dad3" y="127.008"/>
      </g>
     </g>
     <g id="text_13">
      <!-- 5 -->
      <g transform="translate(44.2375 130.807219)scale(0.1 -0.1)">
       <use xlink:href="#DejaVuSans-35"/>
      </g>
     </g>
    </g>
    <g id="ytick_5">
     <g id="line2d_14">
      <g>
       <use style="stroke:#000000;stroke-width:0.8;" x="57.6" xlink:href="#ma43d60dad3" y="79.488"/>
      </g>
     </g>
     <g id="text_14">
      <!-- 10 -->
      <g transform="translate(37.875 83.287219)scale(0.1 -0.1)">
       <use xlink:href="#DejaVuSans-31"/>
       <use x="63.623047" xlink:href="#DejaVuSans-30"/>
      </g>
     </g>
    </g>
   </g>
   <g id="patch_3">
    <path d="M 57.6 307.584 
L 57.6 41.472 
" style="fill:none;stroke:#000000;stroke-linecap:square;stroke-linejoin:miter;stroke-width:0.8;"/>
   </g>
   <g id="patch_4">
    <path d="M 414.72 307.584 
L 414.72 41.472 
" style="fill:none;stroke:#000000;stroke-linecap:square;stroke-linejoin:miter;stroke-width:0.8;"/>
   </g>
   <g id="patch_5">
    <path d="M 57.6 307.584 
L 414.72 307.584 
" style="fill:none;stroke:#000000;stroke-linecap:square;stroke-linejoin:miter;stroke-width:0.8;"/>
   </g>
   <g id="patch_6">
    <path d="M 57.6 41.472 
L 414.72 41.472 
" style="fill:none;stroke:#000000;stroke-linecap:square;stroke-linejoin:miter;stroke-width:0.8;"/>
   </g>
  </g>
 </g>
 <defs>
  <clipPath id="p026831d4b8">
   <rect height="266.112" width="357.12" x="57.6" y="41.472"/>
  </clipPath>
 </defs>
</svg>
