<?xml version="1.0" encoding="utf-8" standalone="no"?>
<!DOCTYPE svg PUBLIC "-//W3C//DTD SVG 1.1//EN"
  "http://www.w3.org/Graphics/SVG/1.1/DTD/svg11.dtd">
<!-- Created with matplotlib (http://matplotlib.org/) -->
<svg height="432pt" version="1.1" viewBox="0 0 576 432" width="576pt" xmlns="http://www.w3.org/2000/svg" xmlns:xlink="http://www.w3.org/1999/xlink">
 <defs>
  <style type="text/css">
*{stroke-linecap:butt;stroke-linejoin:round;stroke-miterlimit:100000;}
  </style>
 </defs>
 <g id="figure_1">
  <g id="patch_1">
   <path d="M 0 432 
L 576 432 
L 576 0 
L 0 0 
z
" style="fill:#ffffff;"/>
  </g>
  <g id="axes_1">
   <g id="patch_2">
    <path d="M 72 388.8 
L 518.4 388.8 
L 518.4 43.2 
L 72 43.2 
z
" style="fill:#ffffff;"/>
   </g>
   <g id="PathCollection_1">
    <defs>
     <path d="M 0 1.118034 
C 0.296506 1.118034 0.580908 1.000231 0.790569 0.790569 
C 1.000231 0.580908 1.118034 0.296506 1.118034 0 
C 1.118034 -0.296506 1.000231 -0.580908 0.790569 -0.790569 
C 0.580908 -1.000231 0.296506 -1.118034 0 -1.118034 
C -0.296506 -1.118034 -0.580908 -1.000231 -0.790569 -0.790569 
C -1.000231 -0.580908 -1.118034 -0.296506 -1.118034 0 
C -1.118034 0.296506 -1.000231 0.580908 -0.790569 0.790569 
C -0.580908 1.000231 -0.296506 1.118034 0 1.118034 
z
" id="m0ce50df66f" style="stroke:#000000;"/>
    </defs>
    <g clip-path="url(#p1548833745)">
     <use style="stroke:#000000;" x="468.8" xlink:href="#m0ce50df66f" y="195.19607828"/>
     <use style="stroke:#000000;" x="468.799957872" xlink:href="#m0ce50df66f" y="95.2044670073"/>
     <use style="stroke:#000000;" x="468.799998781" xlink:href="#m0ce50df66f" y="210.946573083"/>
     <use style="stroke:#000000;" x="464.734408631" xlink:href="#m0ce50df66f" y="114.083572159"/>
     <use style="stroke:#000000;" x="468.291185994" xlink:href="#m0ce50df66f" y="207.91997759"/>
     <use style="stroke:#000000;" x="463.106365078" xlink:href="#m0ce50df66f" y="105.432226956"/>
     <use style="stroke:#000000;" x="468.8" xlink:href="#m0ce50df66f" y="232.960698844"/>
     <use style="stroke:#000000;" x="468.753122153" xlink:href="#m0ce50df66f" y="214.860555377"/>
     <use style="stroke:#000000;" x="449.047202413" xlink:href="#m0ce50df66f" y="199.249846471"/>
     <use style="stroke:#000000;" x="468.8" xlink:href="#m0ce50df66f" y="233.436205278"/>
     <use style="stroke:#000000;" x="424.079041717" xlink:href="#m0ce50df66f" y="121.964964088"/>
     <use style="stroke:#000000;" x="468.68040135" xlink:href="#m0ce50df66f" y="215.117287703"/>
     <use style="stroke:#000000;" x="400.574321085" xlink:href="#m0ce50df66f" y="196.589441965"/>
     <use style="stroke:#000000;" x="375.633883088" xlink:href="#m0ce50df66f" y="195.496979639"/>
     <use style="stroke:#000000;" x="468.8" xlink:href="#m0ce50df66f" y="259.552372982"/>
     <use style="stroke:#000000;" x="467.8171434" xlink:href="#m0ce50df66f" y="228.630979904"/>
     <use style="stroke:#000000;" x="370.596962819" xlink:href="#m0ce50df66f" y="208.420891141"/>
     <use style="stroke:#000000;" x="468.8" xlink:href="#m0ce50df66f" y="261.640858896"/>
     <use style="stroke:#000000;" x="467.745342994" xlink:href="#m0ce50df66f" y="228.652306011"/>
     <use style="stroke:#000000;" x="468.8" xlink:href="#m0ce50df66f" y="275.797280263"/>
     <use style="stroke:#000000;" x="468.689046991" xlink:href="#m0ce50df66f" y="268.10266466"/>
     <use style="stroke:#000000;" x="427.924348763" xlink:href="#m0ce50df66f" y="233.281433905"/>
     <use style="stroke:#000000;" x="468.8" xlink:href="#m0ce50df66f" y="304.127634117"/>
     <use style="stroke:#000000;" x="465.413711031" xlink:href="#m0ce50df66f" y="237.393146043"/>
     <use style="stroke:#000000;" x="465.533660579" xlink:href="#m0ce50df66f" y="258.920907065"/>
     <use style="stroke:#000000;" x="468.8" xlink:href="#m0ce50df66f" y="280.289867339"/>
     <use style="stroke:#000000;" x="468.327800758" xlink:href="#m0ce50df66f" y="278.690547875"/>
     <use style="stroke:#000000;" x="112.599855022" xlink:href="#m0ce50df66f" y="237.166640338"/>
     <use style="stroke:#000000;" x="468.8" xlink:href="#m0ce50df66f" y="310.382599367"/>
     <use style="stroke:#000000;" x="458.431055712" xlink:href="#m0ce50df66f" y="246.05430748"/>
     <use style="stroke:#000000;" x="468.555058276" xlink:href="#m0ce50df66f" y="292.285226169"/>
     <use style="stroke:#000000;" x="468.798963855" xlink:href="#m0ce50df66f" y="298.40295529"/>
     <use style="stroke:#000000;" x="463.746092371" xlink:href="#m0ce50df66f" y="284.586923437"/>
     <use style="stroke:#000000;" x="461.140704622" xlink:href="#m0ce50df66f" y="285.874175906"/>
     <use style="stroke:#000000;" x="468.799963594" xlink:href="#m0ce50df66f" y="326.155184719"/>
     <use style="stroke:#000000;" x="212.732235774" xlink:href="#m0ce50df66f" y="251.938832066"/>
     <use style="stroke:#000000;" x="458.293197726" xlink:href="#m0ce50df66f" y="283.842616072"/>
     <use style="stroke:#000000;" x="465.69120272" xlink:href="#m0ce50df66f" y="295.39789192"/>
     <use style="stroke:#000000;" x="468.786890657" xlink:href="#m0ce50df66f" y="303.0647026"/>
     <use style="stroke:#000000;" x="468.8" xlink:href="#m0ce50df66f" y="343.539237132"/>
     <use style="stroke:#000000;" x="415.617899944" xlink:href="#m0ce50df66f" y="159.617163823"/>
     <use style="stroke:#000000;" x="449.307133389" xlink:href="#m0ce50df66f" y="81.7007754459"/>
     <use style="stroke:#000000;" x="465.693853461" xlink:href="#m0ce50df66f" y="213.655588431"/>
     <use style="stroke:#000000;" x="468.780230653" xlink:href="#m0ce50df66f" y="102.004358078"/>
     <use style="stroke:#000000;" x="468.796576729" xlink:href="#m0ce50df66f" y="180.801638483"/>
     <use style="stroke:#000000;" x="468.799994625" xlink:href="#m0ce50df66f" y="92.2120875528"/>
     <use style="stroke:#000000;" x="468.8" xlink:href="#m0ce50df66f" y="233.359463256"/>
     <use style="stroke:#000000;" x="407.581758117" xlink:href="#m0ce50df66f" y="197.847295359"/>
     <use style="stroke:#000000;" x="377.886770507" xlink:href="#m0ce50df66f" y="196.93090458"/>
     <use style="stroke:#000000;" x="468.8" xlink:href="#m0ce50df66f" y="245.363634819"/>
     <use style="stroke:#000000;" x="468.799977184" xlink:href="#m0ce50df66f" y="138.57601125"/>
     <use style="stroke:#000000;" x="462.062138235" xlink:href="#m0ce50df66f" y="208.132562616"/>
     <use style="stroke:#000000;" x="468.784844592" xlink:href="#m0ce50df66f" y="219.328519475"/>
     <use style="stroke:#000000;" x="441.838858255" xlink:href="#m0ce50df66f" y="226.90834176"/>
     <use style="stroke:#000000;" x="461.578334146" xlink:href="#m0ce50df66f" y="193.945442507"/>
     <use style="stroke:#000000;" x="468.797604298" xlink:href="#m0ce50df66f" y="223.212131329"/>
     <use style="stroke:#000000;" x="436.846138347" xlink:href="#m0ce50df66f" y="160.55518049"/>
     <use style="stroke:#000000;" x="468.793259499" xlink:href="#m0ce50df66f" y="261.344631442"/>
     <use style="stroke:#000000;" x="458.730943418" xlink:href="#m0ce50df66f" y="174.50138731"/>
     <use style="stroke:#000000;" x="468.793306437" xlink:href="#m0ce50df66f" y="270.356282972"/>
    </g>
   </g>
   <g id="PathCollection_2">
    <defs>
     <path d="M 0 1.936492 
C 0.513564 1.936492 1.006162 1.732451 1.369306 1.369306 
C 1.732451 1.006162 1.936492 0.513564 1.936492 0 
C 1.936492 -0.513564 1.732451 -1.006162 1.369306 -1.369306 
C 1.006162 -1.732451 0.513564 -1.936492 0 -1.936492 
C -0.513564 -1.936492 -1.006162 -1.732451 -1.369306 -1.369306 
C -1.732451 -1.006162 -1.936492 -0.513564 -1.936492 0 
C -1.936492 0.513564 -1.732451 1.006162 -1.369306 1.369306 
C -1.006162 1.732451 -0.513564 1.936492 0 1.936492 
z
" id="md2846f1a8b" style="stroke:#000000;"/>
    </defs>
    <g clip-path="url(#p1548833745)">
     <use style="fill:#0000ff;stroke:#000000;" x="468.8" xlink:href="#md2846f1a8b" y="195.19607828"/>
     <use style="fill:#0000ff;stroke:#000000;" x="468.799957872" xlink:href="#md2846f1a8b" y="95.2044670073"/>
     <use style="fill:#0000ff;stroke:#000000;" x="468.799998781" xlink:href="#md2846f1a8b" y="210.946573083"/>
     <use style="fill:#0000ff;stroke:#000000;" x="464.734408631" xlink:href="#md2846f1a8b" y="114.083572159"/>
     <use style="fill:#0000ff;stroke:#000000;" x="468.291185994" xlink:href="#md2846f1a8b" y="207.91997759"/>
     <use style="fill:#0000ff;stroke:#000000;" x="463.106365078" xlink:href="#md2846f1a8b" y="105.432226956"/>
     <use style="fill:#0000ff;stroke:#000000;" x="468.8" xlink:href="#md2846f1a8b" y="232.960698844"/>
     <use style="fill:#0000ff;stroke:#000000;" x="468.753122153" xlink:href="#md2846f1a8b" y="214.860555377"/>
     <use style="fill:#0000ff;stroke:#000000;" x="449.047202413" xlink:href="#md2846f1a8b" y="199.249846471"/>
     <use style="fill:#0000ff;stroke:#000000;" x="468.8" xlink:href="#md2846f1a8b" y="233.436205278"/>
     <use style="fill:#0000ff;stroke:#000000;" x="424.079041717" xlink:href="#md2846f1a8b" y="121.964964088"/>
     <use style="fill:#0000ff;stroke:#000000;" x="468.68040135" xlink:href="#md2846f1a8b" y="215.117287703"/>
     <use style="fill:#0000ff;stroke:#000000;" x="400.574321085" xlink:href="#md2846f1a8b" y="196.589441965"/>
     <use style="fill:#0000ff;stroke:#000000;" x="375.633883088" xlink:href="#md2846f1a8b" y="195.496979639"/>
     <use style="fill:#0000ff;stroke:#000000;" x="468.8" xlink:href="#md2846f1a8b" y="259.552372982"/>
     <use style="fill:#0000ff;stroke:#000000;" x="467.8171434" xlink:href="#md2846f1a8b" y="228.630979904"/>
     <use style="fill:#0000ff;stroke:#000000;" x="370.596962819" xlink:href="#md2846f1a8b" y="208.420891141"/>
     <use style="fill:#0000ff;stroke:#000000;" x="468.8" xlink:href="#md2846f1a8b" y="261.640858896"/>
     <use style="fill:#0000ff;stroke:#000000;" x="467.745342994" xlink:href="#md2846f1a8b" y="228.652306011"/>
     <use style="fill:#0000ff;stroke:#000000;" x="468.8" xlink:href="#md2846f1a8b" y="275.797280263"/>
     <use style="fill:#0000ff;stroke:#000000;" x="468.689046991" xlink:href="#md2846f1a8b" y="268.10266466"/>
     <use style="fill:#0000ff;stroke:#000000;" x="427.924348763" xlink:href="#md2846f1a8b" y="233.281433905"/>
     <use style="fill:#0000ff;stroke:#000000;" x="468.8" xlink:href="#md2846f1a8b" y="304.127634117"/>
     <use style="fill:#0000ff;stroke:#000000;" x="465.413711031" xlink:href="#md2846f1a8b" y="237.393146043"/>
     <use style="fill:#0000ff;stroke:#000000;" x="465.533660579" xlink:href="#md2846f1a8b" y="258.920907065"/>
     <use style="fill:#0000ff;stroke:#000000;" x="468.8" xlink:href="#md2846f1a8b" y="280.289867339"/>
     <use style="fill:#0000ff;stroke:#000000;" x="468.327800758" xlink:href="#md2846f1a8b" y="278.690547875"/>
     <use style="fill:#0000ff;stroke:#000000;" x="112.599855022" xlink:href="#md2846f1a8b" y="237.166640338"/>
     <use style="fill:#0000ff;stroke:#000000;" x="468.8" xlink:href="#md2846f1a8b" y="310.382599367"/>
     <use style="fill:#0000ff;stroke:#000000;" x="458.431055712" xlink:href="#md2846f1a8b" y="246.05430748"/>
     <use style="fill:#0000ff;stroke:#000000;" x="468.555058276" xlink:href="#md2846f1a8b" y="292.285226169"/>
     <use style="fill:#0000ff;stroke:#000000;" x="468.798963855" xlink:href="#md2846f1a8b" y="298.40295529"/>
     <use style="fill:#0000ff;stroke:#000000;" x="463.746092371" xlink:href="#md2846f1a8b" y="284.586923437"/>
     <use style="fill:#0000ff;stroke:#000000;" x="461.140704622" xlink:href="#md2846f1a8b" y="285.874175906"/>
     <use style="fill:#0000ff;stroke:#000000;" x="468.799963594" xlink:href="#md2846f1a8b" y="326.155184719"/>
     <use style="fill:#0000ff;stroke:#000000;" x="212.732235774" xlink:href="#md2846f1a8b" y="251.938832066"/>
     <use style="fill:#0000ff;stroke:#000000;" x="458.293197726" xlink:href="#md2846f1a8b" y="283.842616072"/>
     <use style="fill:#0000ff;stroke:#000000;" x="465.69120272" xlink:href="#md2846f1a8b" y="295.39789192"/>
     <use style="fill:#0000ff;stroke:#000000;" x="468.786890657" xlink:href="#md2846f1a8b" y="303.0647026"/>
     <use style="fill:#0000ff;stroke:#000000;" x="468.8" xlink:href="#md2846f1a8b" y="343.539237132"/>
    </g>
   </g>
   <g id="patch_3">
    <path d="M 72 388.8 
L 72 43.2 
" style="fill:none;stroke:#000000;stroke-linecap:square;stroke-linejoin:miter;"/>
   </g>
   <g id="patch_4">
    <path d="M 518.4 388.8 
L 518.4 43.2 
" style="fill:none;stroke:#000000;stroke-linecap:square;stroke-linejoin:miter;"/>
   </g>
   <g id="patch_5">
    <path d="M 72 388.8 
L 518.4 388.8 
" style="fill:none;stroke:#000000;stroke-linecap:square;stroke-linejoin:miter;"/>
   </g>
   <g id="patch_6">
    <path d="M 72 43.2 
L 518.4 43.2 
" style="fill:none;stroke:#000000;stroke-linecap:square;stroke-linejoin:miter;"/>
   </g>
   <g id="matplotlib.axis_1">
    <g id="xtick_1">
     <g id="line2d_1">
      <defs>
       <path d="M 0 0 
L 0 -4 
" id="m085712d1bd" style="stroke:#000000;stroke-width:0.5;"/>
      </defs>
      <g>
       <use style="stroke:#000000;stroke-width:0.5;" x="72.0" xlink:href="#m085712d1bd" y="388.8"/>
      </g>
     </g>
     <g id="line2d_2">
      <defs>
       <path d="M 0 0 
L 0 4 
" id="mb33566a32a" style="stroke:#000000;stroke-width:0.5;"/>
      </defs>
      <g>
       <use style="stroke:#000000;stroke-width:0.5;" x="72.0" xlink:href="#mb33566a32a" y="43.2"/>
      </g>
     </g>
     <g id="text_1">
      <!-- 0.2 -->
      <defs>
       <path d="M 31.78125 66.40625 
Q 24.171875 66.40625 20.328125 58.90625 
Q 16.5 51.421875 16.5 36.375 
Q 16.5 21.390625 20.328125 13.890625 
Q 24.171875 6.390625 31.78125 6.390625 
Q 39.453125 6.390625 43.28125 13.890625 
Q 47.125 21.390625 47.125 36.375 
Q 47.125 51.421875 43.28125 58.90625 
Q 39.453125 66.40625 31.78125 66.40625 
M 31.78125 74.21875 
Q 44.046875 74.21875 50.515625 64.515625 
Q 56.984375 54.828125 56.984375 36.375 
Q 56.984375 17.96875 50.515625 8.265625 
Q 44.046875 -1.421875 31.78125 -1.421875 
Q 19.53125 -1.421875 13.0625 8.265625 
Q 6.59375 17.96875 6.59375 36.375 
Q 6.59375 54.828125 13.0625 64.515625 
Q 19.53125 74.21875 31.78125 74.21875 
" id="BitstreamVeraSans-Roman-30"/>
       <path d="M 19.1875 8.296875 
L 53.609375 8.296875 
L 53.609375 0 
L 7.328125 0 
L 7.328125 8.296875 
Q 12.9375 14.109375 22.625 23.890625 
Q 32.328125 33.6875 34.8125 36.53125 
Q 39.546875 41.84375 41.421875 45.53125 
Q 43.3125 49.21875 43.3125 52.78125 
Q 43.3125 58.59375 39.234375 62.25 
Q 35.15625 65.921875 28.609375 65.921875 
Q 23.96875 65.921875 18.8125 64.3125 
Q 13.671875 62.703125 7.8125 59.421875 
L 7.8125 69.390625 
Q 13.765625 71.78125 18.9375 73 
Q 24.125 74.21875 28.421875 74.21875 
Q 39.75 74.21875 46.484375 68.546875 
Q 53.21875 62.890625 53.21875 53.421875 
Q 53.21875 48.921875 51.53125 44.890625 
Q 49.859375 40.875 45.40625 35.40625 
Q 44.1875 33.984375 37.640625 27.21875 
Q 31.109375 20.453125 19.1875 8.296875 
" id="BitstreamVeraSans-Roman-32"/>
       <path d="M 10.6875 12.40625 
L 21 12.40625 
L 21 0 
L 10.6875 0 
z
" id="BitstreamVeraSans-Roman-2e"/>
      </defs>
      <g transform="translate(62.458125 401.918125)scale(0.12 -0.12)">
       <use xlink:href="#BitstreamVeraSans-Roman-30"/>
       <use x="63.623046875" xlink:href="#BitstreamVeraSans-Roman-2e"/>
       <use x="95.41015625" xlink:href="#BitstreamVeraSans-Roman-32"/>
      </g>
     </g>
    </g>
    <g id="xtick_2">
     <g id="line2d_3">
      <g>
       <use style="stroke:#000000;stroke-width:0.5;" x="171.2" xlink:href="#m085712d1bd" y="388.8"/>
      </g>
     </g>
     <g id="line2d_4">
      <g>
       <use style="stroke:#000000;stroke-width:0.5;" x="171.2" xlink:href="#mb33566a32a" y="43.2"/>
      </g>
     </g>
     <g id="text_2">
      <!-- 0.4 -->
      <defs>
       <path d="M 37.796875 64.3125 
L 12.890625 25.390625 
L 37.796875 25.390625 
z
M 35.203125 72.90625 
L 47.609375 72.90625 
L 47.609375 25.390625 
L 58.015625 25.390625 
L 58.015625 17.1875 
L 47.609375 17.1875 
L 47.609375 0 
L 37.796875 0 
L 37.796875 17.1875 
L 4.890625 17.1875 
L 4.890625 26.703125 
z
" id="BitstreamVeraSans-Roman-34"/>
      </defs>
      <g transform="translate(161.658125 401.918125)scale(0.12 -0.12)">
       <use xlink:href="#BitstreamVeraSans-Roman-30"/>
       <use x="63.623046875" xlink:href="#BitstreamVeraSans-Roman-2e"/>
       <use x="95.41015625" xlink:href="#BitstreamVeraSans-Roman-34"/>
      </g>
     </g>
    </g>
    <g id="xtick_3">
     <g id="line2d_5">
      <g>
       <use style="stroke:#000000;stroke-width:0.5;" x="270.4" xlink:href="#m085712d1bd" y="388.8"/>
      </g>
     </g>
     <g id="line2d_6">
      <g>
       <use style="stroke:#000000;stroke-width:0.5;" x="270.4" xlink:href="#mb33566a32a" y="43.2"/>
      </g>
     </g>
     <g id="text_3">
      <!-- 0.6 -->
      <defs>
       <path d="M 33.015625 40.375 
Q 26.375 40.375 22.484375 35.828125 
Q 18.609375 31.296875 18.609375 23.390625 
Q 18.609375 15.53125 22.484375 10.953125 
Q 26.375 6.390625 33.015625 6.390625 
Q 39.65625 6.390625 43.53125 10.953125 
Q 47.40625 15.53125 47.40625 23.390625 
Q 47.40625 31.296875 43.53125 35.828125 
Q 39.65625 40.375 33.015625 40.375 
M 52.59375 71.296875 
L 52.59375 62.3125 
Q 48.875 64.0625 45.09375 64.984375 
Q 41.3125 65.921875 37.59375 65.921875 
Q 27.828125 65.921875 22.671875 59.328125 
Q 17.53125 52.734375 16.796875 39.40625 
Q 19.671875 43.65625 24.015625 45.921875 
Q 28.375 48.1875 33.59375 48.1875 
Q 44.578125 48.1875 50.953125 41.515625 
Q 57.328125 34.859375 57.328125 23.390625 
Q 57.328125 12.15625 50.6875 5.359375 
Q 44.046875 -1.421875 33.015625 -1.421875 
Q 20.359375 -1.421875 13.671875 8.265625 
Q 6.984375 17.96875 6.984375 36.375 
Q 6.984375 53.65625 15.1875 63.9375 
Q 23.390625 74.21875 37.203125 74.21875 
Q 40.921875 74.21875 44.703125 73.484375 
Q 48.484375 72.75 52.59375 71.296875 
" id="BitstreamVeraSans-Roman-36"/>
      </defs>
      <g transform="translate(260.858125 401.918125)scale(0.12 -0.12)">
       <use xlink:href="#BitstreamVeraSans-Roman-30"/>
       <use x="63.623046875" xlink:href="#BitstreamVeraSans-Roman-2e"/>
       <use x="95.41015625" xlink:href="#BitstreamVeraSans-Roman-36"/>
      </g>
     </g>
    </g>
    <g id="xtick_4">
     <g id="line2d_7">
      <g>
       <use style="stroke:#000000;stroke-width:0.5;" x="369.6" xlink:href="#m085712d1bd" y="388.8"/>
      </g>
     </g>
     <g id="line2d_8">
      <g>
       <use style="stroke:#000000;stroke-width:0.5;" x="369.6" xlink:href="#mb33566a32a" y="43.2"/>
      </g>
     </g>
     <g id="text_4">
      <!-- 0.8 -->
      <defs>
       <path d="M 31.78125 34.625 
Q 24.75 34.625 20.71875 30.859375 
Q 16.703125 27.09375 16.703125 20.515625 
Q 16.703125 13.921875 20.71875 10.15625 
Q 24.75 6.390625 31.78125 6.390625 
Q 38.8125 6.390625 42.859375 10.171875 
Q 46.921875 13.96875 46.921875 20.515625 
Q 46.921875 27.09375 42.890625 30.859375 
Q 38.875 34.625 31.78125 34.625 
M 21.921875 38.8125 
Q 15.578125 40.375 12.03125 44.71875 
Q 8.5 49.078125 8.5 55.328125 
Q 8.5 64.0625 14.71875 69.140625 
Q 20.953125 74.21875 31.78125 74.21875 
Q 42.671875 74.21875 48.875 69.140625 
Q 55.078125 64.0625 55.078125 55.328125 
Q 55.078125 49.078125 51.53125 44.71875 
Q 48 40.375 41.703125 38.8125 
Q 48.828125 37.15625 52.796875 32.3125 
Q 56.78125 27.484375 56.78125 20.515625 
Q 56.78125 9.90625 50.3125 4.234375 
Q 43.84375 -1.421875 31.78125 -1.421875 
Q 19.734375 -1.421875 13.25 4.234375 
Q 6.78125 9.90625 6.78125 20.515625 
Q 6.78125 27.484375 10.78125 32.3125 
Q 14.796875 37.15625 21.921875 38.8125 
M 18.3125 54.390625 
Q 18.3125 48.734375 21.84375 45.5625 
Q 25.390625 42.390625 31.78125 42.390625 
Q 38.140625 42.390625 41.71875 45.5625 
Q 45.3125 48.734375 45.3125 54.390625 
Q 45.3125 60.0625 41.71875 63.234375 
Q 38.140625 66.40625 31.78125 66.40625 
Q 25.390625 66.40625 21.84375 63.234375 
Q 18.3125 60.0625 18.3125 54.390625 
" id="BitstreamVeraSans-Roman-38"/>
      </defs>
      <g transform="translate(360.058125 401.918125)scale(0.12 -0.12)">
       <use xlink:href="#BitstreamVeraSans-Roman-30"/>
       <use x="63.623046875" xlink:href="#BitstreamVeraSans-Roman-2e"/>
       <use x="95.41015625" xlink:href="#BitstreamVeraSans-Roman-38"/>
      </g>
     </g>
    </g>
    <g id="xtick_5">
     <g id="line2d_9">
      <g>
       <use style="stroke:#000000;stroke-width:0.5;" x="468.8" xlink:href="#m085712d1bd" y="388.8"/>
      </g>
     </g>
     <g id="line2d_10">
      <g>
       <use style="stroke:#000000;stroke-width:0.5;" x="468.8" xlink:href="#mb33566a32a" y="43.2"/>
      </g>
     </g>
     <g id="text_5">
      <!-- 1.0 -->
      <defs>
       <path d="M 12.40625 8.296875 
L 28.515625 8.296875 
L 28.515625 63.921875 
L 10.984375 60.40625 
L 10.984375 69.390625 
L 28.421875 72.90625 
L 38.28125 72.90625 
L 38.28125 8.296875 
L 54.390625 8.296875 
L 54.390625 0 
L 12.40625 0 
z
" id="BitstreamVeraSans-Roman-31"/>
      </defs>
      <g transform="translate(459.258125 401.918125)scale(0.12 -0.12)">
       <use xlink:href="#BitstreamVeraSans-Roman-31"/>
       <use x="63.623046875" xlink:href="#BitstreamVeraSans-Roman-2e"/>
       <use x="95.41015625" xlink:href="#BitstreamVeraSans-Roman-30"/>
      </g>
     </g>
    </g>
   </g>
   <g id="matplotlib.axis_2">
    <g id="ytick_1">
     <g id="line2d_11">
      <defs>
       <path d="M 0 0 
L 4 0 
" id="mca4e16c654" style="stroke:#000000;stroke-width:0.5;"/>
      </defs>
      <g>
       <use style="stroke:#000000;stroke-width:0.5;" x="72.0" xlink:href="#mca4e16c654" y="388.8"/>
      </g>
     </g>
     <g id="line2d_12">
      <defs>
       <path d="M 0 0 
L -4 0 
" id="mf400ace426" style="stroke:#000000;stroke-width:0.5;"/>
      </defs>
      <g>
       <use style="stroke:#000000;stroke-width:0.5;" x="518.4" xlink:href="#mf400ace426" y="388.8"/>
      </g>
     </g>
     <g id="text_6">
      <!-- 8.6 -->
      <g transform="translate(48.91625 392.11125)scale(0.12 -0.12)">
       <use xlink:href="#BitstreamVeraSans-Roman-38"/>
       <use x="63.623046875" xlink:href="#BitstreamVeraSans-Roman-2e"/>
       <use x="95.41015625" xlink:href="#BitstreamVeraSans-Roman-36"/>
      </g>
     </g>
    </g>
    <g id="ytick_2">
     <g id="line2d_13">
      <g>
       <use style="stroke:#000000;stroke-width:0.5;" x="72.0" xlink:href="#mca4e16c654" y="312.0"/>
      </g>
     </g>
     <g id="line2d_14">
      <g>
       <use style="stroke:#000000;stroke-width:0.5;" x="518.4" xlink:href="#mf400ace426" y="312.0"/>
      </g>
     </g>
     <g id="text_7">
      <!-- 8.8 -->
      <g transform="translate(48.91625 315.31125)scale(0.12 -0.12)">
       <use xlink:href="#BitstreamVeraSans-Roman-38"/>
       <use x="63.623046875" xlink:href="#BitstreamVeraSans-Roman-2e"/>
       <use x="95.41015625" xlink:href="#BitstreamVeraSans-Roman-38"/>
      </g>
     </g>
    </g>
    <g id="ytick_3">
     <g id="line2d_15">
      <g>
       <use style="stroke:#000000;stroke-width:0.5;" x="72.0" xlink:href="#mca4e16c654" y="235.2"/>
      </g>
     </g>
     <g id="line2d_16">
      <g>
       <use style="stroke:#000000;stroke-width:0.5;" x="518.4" xlink:href="#mf400ace426" y="235.2"/>
      </g>
     </g>
     <g id="text_8">
      <!-- 9.0 -->
      <defs>
       <path d="M 10.984375 1.515625 
L 10.984375 10.5 
Q 14.703125 8.734375 18.5 7.8125 
Q 22.3125 6.890625 25.984375 6.890625 
Q 35.75 6.890625 40.890625 13.453125 
Q 46.046875 20.015625 46.78125 33.40625 
Q 43.953125 29.203125 39.59375 26.953125 
Q 35.25 24.703125 29.984375 24.703125 
Q 19.046875 24.703125 12.671875 31.3125 
Q 6.296875 37.9375 6.296875 49.421875 
Q 6.296875 60.640625 12.9375 67.421875 
Q 19.578125 74.21875 30.609375 74.21875 
Q 43.265625 74.21875 49.921875 64.515625 
Q 56.59375 54.828125 56.59375 36.375 
Q 56.59375 19.140625 48.40625 8.859375 
Q 40.234375 -1.421875 26.421875 -1.421875 
Q 22.703125 -1.421875 18.890625 -0.6875 
Q 15.09375 0.046875 10.984375 1.515625 
M 30.609375 32.421875 
Q 37.25 32.421875 41.125 36.953125 
Q 45.015625 41.5 45.015625 49.421875 
Q 45.015625 57.28125 41.125 61.84375 
Q 37.25 66.40625 30.609375 66.40625 
Q 23.96875 66.40625 20.09375 61.84375 
Q 16.21875 57.28125 16.21875 49.421875 
Q 16.21875 41.5 20.09375 36.953125 
Q 23.96875 32.421875 30.609375 32.421875 
" id="BitstreamVeraSans-Roman-39"/>
      </defs>
      <g transform="translate(48.91625 238.51125)scale(0.12 -0.12)">
       <use xlink:href="#BitstreamVeraSans-Roman-39"/>
       <use x="63.623046875" xlink:href="#BitstreamVeraSans-Roman-2e"/>
       <use x="95.41015625" xlink:href="#BitstreamVeraSans-Roman-30"/>
      </g>
     </g>
    </g>
    <g id="ytick_4">
     <g id="line2d_17">
      <g>
       <use style="stroke:#000000;stroke-width:0.5;" x="72.0" xlink:href="#mca4e16c654" y="158.4"/>
      </g>
     </g>
     <g id="line2d_18">
      <g>
       <use style="stroke:#000000;stroke-width:0.5;" x="518.4" xlink:href="#mf400ace426" y="158.4"/>
      </g>
     </g>
     <g id="text_9">
      <!-- 9.2 -->
      <g transform="translate(48.91625 161.71125)scale(0.12 -0.12)">
       <use xlink:href="#BitstreamVeraSans-Roman-39"/>
       <use x="63.623046875" xlink:href="#BitstreamVeraSans-Roman-2e"/>
       <use x="95.41015625" xlink:href="#BitstreamVeraSans-Roman-32"/>
      </g>
     </g>
    </g>
    <g id="ytick_5">
     <g id="line2d_19">
      <g>
       <use style="stroke:#000000;stroke-width:0.5;" x="72.0" xlink:href="#mca4e16c654" y="81.6"/>
      </g>
     </g>
     <g id="line2d_20">
      <g>
       <use style="stroke:#000000;stroke-width:0.5;" x="518.4" xlink:href="#mf400ace426" y="81.6"/>
      </g>
     </g>
     <g id="text_10">
      <!-- 9.4 -->
      <g transform="translate(48.91625 84.91125)scale(0.12 -0.12)">
       <use xlink:href="#BitstreamVeraSans-Roman-39"/>
       <use x="63.623046875" xlink:href="#BitstreamVeraSans-Roman-2e"/>
       <use x="95.41015625" xlink:href="#BitstreamVeraSans-Roman-34"/>
      </g>
     </g>
    </g>
   </g>
  </g>
 </g>
 <defs>
  <clipPath id="p1548833745">
   <rect height="345.6" width="446.4" x="72.0" y="43.2"/>
  </clipPath>
 </defs>
</svg>
