<?xml version="1.0" encoding="utf-8" standalone="no"?>
<!DOCTYPE svg PUBLIC "-//W3C//DTD SVG 1.1//EN"
  "http://www.w3.org/Graphics/SVG/1.1/DTD/svg11.dtd">
<!-- Created with matplotlib (http://matplotlib.org/) -->
<svg height="432pt" version="1.1" viewBox="0 0 576 432" width="576pt" xmlns="http://www.w3.org/2000/svg" xmlns:xlink="http://www.w3.org/1999/xlink">
 <defs>
  <style type="text/css">
*{stroke-linecap:butt;stroke-linejoin:round;stroke-miterlimit:100000;}
  </style>
 </defs>
 <g id="figure_1">
  <g id="patch_1">
   <path d="M 0 432 
L 576 432 
L 576 0 
L 0 0 
z
" style="fill:#ffffff;"/>
  </g>
  <g id="axes_1">
   <g id="patch_2">
    <path d="M 72 388.8 
L 518.4 388.8 
L 518.4 43.2 
L 72 43.2 
z
" style="fill:#ffffff;"/>
   </g>
   <g id="PathCollection_1">
    <defs>
     <path d="M 0 1.118034 
C 0.296506 1.118034 0.580908 1.000231 0.790569 0.790569 
C 1.000231 0.580908 1.118034 0.296506 1.118034 0 
C 1.118034 -0.296506 1.000231 -0.580908 0.790569 -0.790569 
C 0.580908 -1.000231 0.296506 -1.118034 0 -1.118034 
C -0.296506 -1.118034 -0.580908 -1.000231 -0.790569 -0.790569 
C -1.000231 -0.580908 -1.118034 -0.296506 -1.118034 0 
C -1.118034 0.296506 -1.000231 0.580908 -0.790569 0.790569 
C -0.580908 1.000231 -0.296506 1.118034 0 1.118034 
z
" id="m35f14c5a53" style="stroke:#000000;"/>
    </defs>
    <g clip-path="url(#p8ae6d1c85f)">
     <use style="stroke:#000000;" x="488.108352175" xlink:href="#m35f14c5a53" y="328.832605408"/>
     <use style="stroke:#000000;" x="468.551458254" xlink:href="#m35f14c5a53" y="257.901197038"/>
     <use style="stroke:#000000;" x="487.981725753" xlink:href="#m35f14c5a53" y="323.639922226"/>
     <use style="stroke:#000000;" x="452.320102835" xlink:href="#m35f14c5a53" y="233.740877208"/>
     <use style="stroke:#000000;" x="294.589177351" xlink:href="#m35f14c5a53" y="138.347465345"/>
     <use style="stroke:#000000;" x="425.419322371" xlink:href="#m35f14c5a53" y="207.391829542"/>
     <use style="stroke:#000000;" x="470.894986184" xlink:href="#m35f14c5a53" y="262.974131434"/>
     <use style="stroke:#000000;" x="439.512813743" xlink:href="#m35f14c5a53" y="217.96250939"/>
     <use style="stroke:#000000;" x="460.816848462" xlink:href="#m35f14c5a53" y="247.417486914"/>
     <use style="stroke:#000000;" x="373.841214023" xlink:href="#m35f14c5a53" y="170.81156156"/>
     <use style="stroke:#000000;" x="353.803142884" xlink:href="#m35f14c5a53" y="160.684360976"/>
     <use style="stroke:#000000;" x="476.703209086" xlink:href="#m35f14c5a53" y="276.452500605"/>
     <use style="stroke:#000000;" x="430.056064205" xlink:href="#m35f14c5a53" y="216.198258846"/>
     <use style="stroke:#000000;" x="284.962085438" xlink:href="#m35f14c5a53" y="137.983619024"/>
     <use style="stroke:#000000;" x="404.791850594" xlink:href="#m35f14c5a53" y="189.490325781"/>
     <use style="stroke:#000000;" x="399.106627299" xlink:href="#m35f14c5a53" y="187.771080146"/>
     <use style="stroke:#000000;" x="478.513665994" xlink:href="#m35f14c5a53" y="279.250388551"/>
     <use style="stroke:#000000;" x="454.625169544" xlink:href="#m35f14c5a53" y="239.416534838"/>
     <use style="stroke:#000000;" x="312.939791606" xlink:href="#m35f14c5a53" y="144.437936467"/>
     <use style="stroke:#000000;" x="254.92994525" xlink:href="#m35f14c5a53" y="129.494272986"/>
     <use style="stroke:#000000;" x="429.716178934" xlink:href="#m35f14c5a53" y="208.6570471"/>
     <use style="stroke:#000000;" x="267.27736699" xlink:href="#m35f14c5a53" y="131.363465447"/>
     <use style="stroke:#000000;" x="346.466130463" xlink:href="#m35f14c5a53" y="157.167493899"/>
     <use style="stroke:#000000;" x="458.241467224" xlink:href="#m35f14c5a53" y="240.567497054"/>
     <use style="stroke:#000000;" x="488.240404795" xlink:href="#m35f14c5a53" y="329.017232192"/>
     <use style="stroke:#000000;" x="485.995304117" xlink:href="#m35f14c5a53" y="307.708287538"/>
     <use style="stroke:#000000;" x="391.006165341" xlink:href="#m35f14c5a53" y="180.030679157"/>
     <use style="stroke:#000000;" x="488.461170837" xlink:href="#m35f14c5a53" y="333.038690228"/>
     <use style="stroke:#000000;" x="475.367485091" xlink:href="#m35f14c5a53" y="273.605160103"/>
     <use style="stroke:#000000;" x="488.321485815" xlink:href="#m35f14c5a53" y="329.0226434"/>
     <use style="stroke:#000000;" x="198.588206919" xlink:href="#m35f14c5a53" y="118.989659152"/>
     <use style="stroke:#000000;" x="487.693265723" xlink:href="#m35f14c5a53" y="321.705308217"/>
     <use style="stroke:#000000;" x="354.911621434" xlink:href="#m35f14c5a53" y="164.382413877"/>
     <use style="stroke:#000000;" x="457.306910894" xlink:href="#m35f14c5a53" y="240.465997218"/>
     <use style="stroke:#000000;" x="476.77419374" xlink:href="#m35f14c5a53" y="277.106248996"/>
     <use style="stroke:#000000;" x="487.175185138" xlink:href="#m35f14c5a53" y="315.989189419"/>
     <use style="stroke:#000000;" x="479.620249905" xlink:href="#m35f14c5a53" y="289.183727137"/>
     <use style="stroke:#000000;" x="484.08555375" xlink:href="#m35f14c5a53" y="301.639337401"/>
     <use style="stroke:#000000;" x="466.21336638" xlink:href="#m35f14c5a53" y="253.110297418"/>
     <use style="stroke:#000000;" x="331.462023396" xlink:href="#m35f14c5a53" y="154.73824017"/>
     <use style="stroke:#000000;" x="343.000744375" xlink:href="#m35f14c5a53" y="155.639000255"/>
     <use style="stroke:#000000;" x="165.800644918" xlink:href="#m35f14c5a53" y="115.426070514"/>
     <use style="stroke:#000000;" x="422.87008126" xlink:href="#m35f14c5a53" y="203.116273736"/>
     <use style="stroke:#000000;" x="441.754228392" xlink:href="#m35f14c5a53" y="221.979038082"/>
     <use style="stroke:#000000;" x="321.570918573" xlink:href="#m35f14c5a53" y="150.942727143"/>
     <use style="stroke:#000000;" x="384.863104952" xlink:href="#m35f14c5a53" y="179.876489037"/>
     <use style="stroke:#000000;" x="374.80185485" xlink:href="#m35f14c5a53" y="174.454001692"/>
     <use style="stroke:#000000;" x="449.684782502" xlink:href="#m35f14c5a53" y="229.425042021"/>
     <use style="stroke:#000000;" x="396.17134019" xlink:href="#m35f14c5a53" y="183.649055884"/>
     <use style="stroke:#000000;" x="469.244261089" xlink:href="#m35f14c5a53" y="262.946704203"/>
     <use style="stroke:#000000;" x="392.849766505" xlink:href="#m35f14c5a53" y="181.680585098"/>
     <use style="stroke:#000000;" x="482.592178784" xlink:href="#m35f14c5a53" y="294.91675486"/>
     <use style="stroke:#000000;" x="424.975577773" xlink:href="#m35f14c5a53" y="204.896956119"/>
     <use style="stroke:#000000;" x="362.086826114" xlink:href="#m35f14c5a53" y="165.772686483"/>
     <use style="stroke:#000000;" x="227.084713883" xlink:href="#m35f14c5a53" y="122.274909332"/>
     <use style="stroke:#000000;" x="437.143482773" xlink:href="#m35f14c5a53" y="217.084953403"/>
     <use style="stroke:#000000;" x="325.828642169" xlink:href="#m35f14c5a53" y="154.661447201"/>
     <use style="stroke:#000000;" x="486.4744837" xlink:href="#m35f14c5a53" y="311.704997287"/>
     <use style="stroke:#000000;" x="333.893733049" xlink:href="#m35f14c5a53" y="155.429498622"/>
     <use style="stroke:#000000;" x="249.028117985" xlink:href="#m35f14c5a53" y="127.875202709"/>
     <use style="stroke:#000000;" x="260.983926076" xlink:href="#m35f14c5a53" y="130.49445992"/>
     <use style="stroke:#000000;" x="484.274994869" xlink:href="#m35f14c5a53" y="303.012194122"/>
     <use style="stroke:#000000;" x="419.686650056" xlink:href="#m35f14c5a53" y="200.033612655"/>
     <use style="stroke:#000000;" x="417.667301204" xlink:href="#m35f14c5a53" y="198.402420399"/>
     <use style="stroke:#000000;" x="486.159685222" xlink:href="#m35f14c5a53" y="310.799450312"/>
     <use style="stroke:#000000;" x="440.906196142" xlink:href="#m35f14c5a53" y="219.536018399"/>
     <use style="stroke:#000000;" x="482.146579958" xlink:href="#m35f14c5a53" y="290.85413872"/>
     <use style="stroke:#000000;" x="382.887206966" xlink:href="#m35f14c5a53" y="175.628692252"/>
     <use style="stroke:#000000;" x="195.696935232" xlink:href="#m35f14c5a53" y="118.292077013"/>
     <use style="stroke:#000000;" x="472.364937505" xlink:href="#m35f14c5a53" y="264.538409154"/>
     <use style="stroke:#000000;" x="368.472544528" xlink:href="#m35f14c5a53" y="167.905798716"/>
     <use style="stroke:#000000;" x="374.319598119" xlink:href="#m35f14c5a53" y="173.42101571"/>
     <use style="stroke:#000000;" x="428.509289616" xlink:href="#m35f14c5a53" y="208.339370704"/>
     <use style="stroke:#000000;" x="413.904333143" xlink:href="#m35f14c5a53" y="195.95880459"/>
     <use style="stroke:#000000;" x="450.198573369" xlink:href="#m35f14c5a53" y="230.859248996"/>
     <use style="stroke:#000000;" x="445.655755818" xlink:href="#m35f14c5a53" y="228.666194528"/>
     <use style="stroke:#000000;" x="488.595328877" xlink:href="#m35f14c5a53" y="335.270258266"/>
     <use style="stroke:#000000;" x="346.678106721" xlink:href="#m35f14c5a53" y="158.633487622"/>
     <use style="stroke:#000000;" x="355.062605239" xlink:href="#m35f14c5a53" y="164.652290755"/>
     <use style="stroke:#000000;" x="384.469113818" xlink:href="#m35f14c5a53" y="178.809155346"/>
     <use style="stroke:#000000;" x="483.307027932" xlink:href="#m35f14c5a53" y="299.796432615"/>
     <use style="stroke:#000000;" x="485.453810464" xlink:href="#m35f14c5a53" y="305.331594284"/>
     <use style="stroke:#000000;" x="405.954873251" xlink:href="#m35f14c5a53" y="189.730197438"/>
     <use style="stroke:#000000;" x="473.080472328" xlink:href="#m35f14c5a53" y="269.187791231"/>
     <use style="stroke:#000000;" x="402.398775371" xlink:href="#m35f14c5a53" y="191.356385319"/>
     <use style="stroke:#000000;" x="386.293708466" xlink:href="#m35f14c5a53" y="180.931778993"/>
     <use style="stroke:#000000;" x="477.257034285" xlink:href="#m35f14c5a53" y="284.150743227"/>
     <use style="stroke:#000000;" x="477.877023461" xlink:href="#m35f14c5a53" y="284.70612166"/>
     <use style="stroke:#000000;" x="451.769593188" xlink:href="#m35f14c5a53" y="237.990292829"/>
     <use style="stroke:#000000;" x="352.305658888" xlink:href="#m35f14c5a53" y="162.839148832"/>
     <use style="stroke:#000000;" x="369.930984974" xlink:href="#m35f14c5a53" y="173.186926034"/>
     <use style="stroke:#000000;" x="292.935712558" xlink:href="#m35f14c5a53" y="138.936336551"/>
     <use style="stroke:#000000;" x="262.382178645" xlink:href="#m35f14c5a53" y="135.570417758"/>
     <use style="stroke:#000000;" x="486.634711181" xlink:href="#m35f14c5a53" y="316.647339443"/>
     <use style="stroke:#000000;" x="457.066061765" xlink:href="#m35f14c5a53" y="240.472098764"/>
     <use style="stroke:#000000;" x="475.353766392" xlink:href="#m35f14c5a53" y="274.056583656"/>
     <use style="stroke:#000000;" x="479.22709042" xlink:href="#m35f14c5a53" y="289.414177736"/>
     <use style="stroke:#000000;" x="483.801313995" xlink:href="#m35f14c5a53" y="302.129802544"/>
     <use style="stroke:#000000;" x="249.723457604" xlink:href="#m35f14c5a53" y="130.174648187"/>
     <use style="stroke:#000000;" x="429.814539113" xlink:href="#m35f14c5a53" y="216.240112178"/>
     <use style="stroke:#000000;" x="403.29985782" xlink:href="#m35f14c5a53" y="193.087964595"/>
     <use style="stroke:#000000;" x="436.642144285" xlink:href="#m35f14c5a53" y="236.076914015"/>
     <use style="stroke:#000000;" x="401.014325457" xlink:href="#m35f14c5a53" y="188.79068019"/>
     <use style="stroke:#000000;" x="417.173571194" xlink:href="#m35f14c5a53" y="213.259219026"/>
     <use style="stroke:#000000;" x="340.239458247" xlink:href="#m35f14c5a53" y="172.11800496"/>
     <use style="stroke:#000000;" x="388.974546911" xlink:href="#m35f14c5a53" y="187.448613497"/>
     <use style="stroke:#000000;" x="485.552889317" xlink:href="#m35f14c5a53" y="309.03058925"/>
     <use style="stroke:#000000;" x="426.456822285" xlink:href="#m35f14c5a53" y="243.180528187"/>
     <use style="stroke:#000000;" x="467.016624567" xlink:href="#m35f14c5a53" y="258.106351415"/>
     <use style="stroke:#000000;" x="387.620509149" xlink:href="#m35f14c5a53" y="192.216775295"/>
     <use style="stroke:#000000;" x="371.110590834" xlink:href="#m35f14c5a53" y="180.626285521"/>
     <use style="stroke:#000000;" x="303.947998341" xlink:href="#m35f14c5a53" y="141.050194967"/>
     <use style="stroke:#000000;" x="318.091674656" xlink:href="#m35f14c5a53" y="152.384668396"/>
     <use style="stroke:#000000;" x="351.237943266" xlink:href="#m35f14c5a53" y="162.631708534"/>
     <use style="stroke:#000000;" x="445.142127458" xlink:href="#m35f14c5a53" y="224.890960391"/>
     <use style="stroke:#000000;" x="440.446256558" xlink:href="#m35f14c5a53" y="222.76138427"/>
     <use style="stroke:#000000;" x="488.271543601" xlink:href="#m35f14c5a53" y="327.339115019"/>
     <use style="stroke:#000000;" x="476.957959442" xlink:href="#m35f14c5a53" y="282.289859895"/>
     <use style="stroke:#000000;" x="374.542931674" xlink:href="#m35f14c5a53" y="171.024019518"/>
     <use style="stroke:#000000;" x="326.534520343" xlink:href="#m35f14c5a53" y="151.932295427"/>
     <use style="stroke:#000000;" x="384.076175041" xlink:href="#m35f14c5a53" y="192.527520267"/>
     <use style="stroke:#000000;" x="296.566148542" xlink:href="#m35f14c5a53" y="171.919880367"/>
     <use style="stroke:#000000;" x="401.263845712" xlink:href="#m35f14c5a53" y="186.576103372"/>
     <use style="stroke:#000000;" x="479.970803569" xlink:href="#m35f14c5a53" y="283.691102386"/>
     <use style="stroke:#000000;" x="404.100756021" xlink:href="#m35f14c5a53" y="192.995189986"/>
     <use style="stroke:#000000;" x="384.071150386" xlink:href="#m35f14c5a53" y="179.062307296"/>
     <use style="stroke:#000000;" x="435.247761102" xlink:href="#m35f14c5a53" y="213.817402704"/>
     <use style="stroke:#000000;" x="409.86829735" xlink:href="#m35f14c5a53" y="194.716142142"/>
     <use style="stroke:#000000;" x="486.691914405" xlink:href="#m35f14c5a53" y="314.7600952"/>
     <use style="stroke:#000000;" x="404.675283712" xlink:href="#m35f14c5a53" y="192.795945893"/>
     <use style="stroke:#000000;" x="225.625618249" xlink:href="#m35f14c5a53" y="160.47982209"/>
     <use style="stroke:#000000;" x="397.17502867" xlink:href="#m35f14c5a53" y="188.328763454"/>
     <use style="stroke:#000000;" x="406.849473268" xlink:href="#m35f14c5a53" y="194.977141816"/>
     <use style="stroke:#000000;" x="329.47221688" xlink:href="#m35f14c5a53" y="163.379140154"/>
     <use style="stroke:#000000;" x="304.899697462" xlink:href="#m35f14c5a53" y="141.338670077"/>
     <use style="stroke:#000000;" x="393.74792197" xlink:href="#m35f14c5a53" y="183.819153182"/>
     <use style="stroke:#000000;" x="460.530687406" xlink:href="#m35f14c5a53" y="262.0424965"/>
     <use style="stroke:#000000;" x="485.01915848" xlink:href="#m35f14c5a53" y="311.767221389"/>
     <use style="stroke:#000000;" x="483.902981175" xlink:href="#m35f14c5a53" y="297.909363301"/>
     <use style="stroke:#000000;" x="351.042355766" xlink:href="#m35f14c5a53" y="166.420456459"/>
     <use style="stroke:#000000;" x="398.547520693" xlink:href="#m35f14c5a53" y="184.736939239"/>
     <use style="stroke:#000000;" x="250.4696081" xlink:href="#m35f14c5a53" y="132.445683148"/>
     <use style="stroke:#000000;" x="378.688778516" xlink:href="#m35f14c5a53" y="186.381755643"/>
     <use style="stroke:#000000;" x="300.105628875" xlink:href="#m35f14c5a53" y="150.621450582"/>
     <use style="stroke:#000000;" x="380.691646026" xlink:href="#m35f14c5a53" y="178.558382245"/>
     <use style="stroke:#000000;" x="344.719414198" xlink:href="#m35f14c5a53" y="161.467385326"/>
     <use style="stroke:#000000;" x="333.785952688" xlink:href="#m35f14c5a53" y="156.406644648"/>
     <use style="stroke:#000000;" x="475.151292468" xlink:href="#m35f14c5a53" y="270.998667511"/>
     <use style="stroke:#000000;" x="438.999394463" xlink:href="#m35f14c5a53" y="218.022040877"/>
     <use style="stroke:#000000;" x="261.688618823" xlink:href="#m35f14c5a53" y="178.538556924"/>
    </g>
   </g>
   <g id="PathCollection_2">
    <defs>
     <path d="M 0 1.936492 
C 0.513564 1.936492 1.006162 1.732451 1.369306 1.369306 
C 1.732451 1.006162 1.936492 0.513564 1.936492 0 
C 1.936492 -0.513564 1.732451 -1.006162 1.369306 -1.369306 
C 1.006162 -1.732451 0.513564 -1.936492 0 -1.936492 
C -0.513564 -1.936492 -1.006162 -1.732451 -1.369306 -1.369306 
C -1.732451 -1.006162 -1.936492 -0.513564 -1.936492 0 
C -1.936492 0.513564 -1.732451 1.006162 -1.369306 1.369306 
C -1.006162 1.732451 -0.513564 1.936492 0 1.936492 
z
" id="mc22c959b01" style="stroke:#000000;"/>
    </defs>
    <g clip-path="url(#p8ae6d1c85f)">
     <use style="fill:#0000ff;stroke:#000000;" x="488.108352175" xlink:href="#mc22c959b01" y="328.832605408"/>
     <use style="fill:#0000ff;stroke:#000000;" x="468.551458254" xlink:href="#mc22c959b01" y="257.901197038"/>
     <use style="fill:#0000ff;stroke:#000000;" x="487.981725753" xlink:href="#mc22c959b01" y="323.639922226"/>
     <use style="fill:#0000ff;stroke:#000000;" x="452.320102835" xlink:href="#mc22c959b01" y="233.740877208"/>
     <use style="fill:#0000ff;stroke:#000000;" x="294.589177351" xlink:href="#mc22c959b01" y="138.347465345"/>
     <use style="fill:#0000ff;stroke:#000000;" x="425.419322371" xlink:href="#mc22c959b01" y="207.391829542"/>
     <use style="fill:#0000ff;stroke:#000000;" x="470.894986184" xlink:href="#mc22c959b01" y="262.974131434"/>
     <use style="fill:#0000ff;stroke:#000000;" x="439.512813743" xlink:href="#mc22c959b01" y="217.96250939"/>
     <use style="fill:#0000ff;stroke:#000000;" x="460.816848462" xlink:href="#mc22c959b01" y="247.417486914"/>
     <use style="fill:#0000ff;stroke:#000000;" x="373.841214023" xlink:href="#mc22c959b01" y="170.81156156"/>
     <use style="fill:#0000ff;stroke:#000000;" x="353.803142884" xlink:href="#mc22c959b01" y="160.684360976"/>
     <use style="fill:#0000ff;stroke:#000000;" x="476.703209086" xlink:href="#mc22c959b01" y="276.452500605"/>
     <use style="fill:#0000ff;stroke:#000000;" x="430.056064205" xlink:href="#mc22c959b01" y="216.198258846"/>
     <use style="fill:#0000ff;stroke:#000000;" x="284.962085438" xlink:href="#mc22c959b01" y="137.983619024"/>
     <use style="fill:#0000ff;stroke:#000000;" x="404.791850594" xlink:href="#mc22c959b01" y="189.490325781"/>
     <use style="fill:#0000ff;stroke:#000000;" x="399.106627299" xlink:href="#mc22c959b01" y="187.771080146"/>
     <use style="fill:#0000ff;stroke:#000000;" x="478.513665994" xlink:href="#mc22c959b01" y="279.250388551"/>
     <use style="fill:#0000ff;stroke:#000000;" x="454.625169544" xlink:href="#mc22c959b01" y="239.416534838"/>
     <use style="fill:#0000ff;stroke:#000000;" x="312.939791606" xlink:href="#mc22c959b01" y="144.437936467"/>
     <use style="fill:#0000ff;stroke:#000000;" x="254.92994525" xlink:href="#mc22c959b01" y="129.494272986"/>
     <use style="fill:#0000ff;stroke:#000000;" x="429.716178934" xlink:href="#mc22c959b01" y="208.6570471"/>
     <use style="fill:#0000ff;stroke:#000000;" x="267.27736699" xlink:href="#mc22c959b01" y="131.363465447"/>
     <use style="fill:#0000ff;stroke:#000000;" x="346.466130463" xlink:href="#mc22c959b01" y="157.167493899"/>
     <use style="fill:#0000ff;stroke:#000000;" x="458.241467224" xlink:href="#mc22c959b01" y="240.567497054"/>
     <use style="fill:#0000ff;stroke:#000000;" x="488.240404795" xlink:href="#mc22c959b01" y="329.017232192"/>
     <use style="fill:#0000ff;stroke:#000000;" x="485.995304117" xlink:href="#mc22c959b01" y="307.708287538"/>
     <use style="fill:#0000ff;stroke:#000000;" x="391.006165341" xlink:href="#mc22c959b01" y="180.030679157"/>
     <use style="fill:#0000ff;stroke:#000000;" x="488.461170837" xlink:href="#mc22c959b01" y="333.038690228"/>
     <use style="fill:#0000ff;stroke:#000000;" x="475.367485091" xlink:href="#mc22c959b01" y="273.605160103"/>
     <use style="fill:#0000ff;stroke:#000000;" x="488.321485815" xlink:href="#mc22c959b01" y="329.0226434"/>
     <use style="fill:#0000ff;stroke:#000000;" x="198.588206919" xlink:href="#mc22c959b01" y="118.989659152"/>
     <use style="fill:#0000ff;stroke:#000000;" x="487.693265723" xlink:href="#mc22c959b01" y="321.705308217"/>
     <use style="fill:#0000ff;stroke:#000000;" x="354.911621434" xlink:href="#mc22c959b01" y="164.382413877"/>
     <use style="fill:#0000ff;stroke:#000000;" x="457.306910894" xlink:href="#mc22c959b01" y="240.465997218"/>
     <use style="fill:#0000ff;stroke:#000000;" x="476.77419374" xlink:href="#mc22c959b01" y="277.106248996"/>
     <use style="fill:#0000ff;stroke:#000000;" x="487.175185138" xlink:href="#mc22c959b01" y="315.989189419"/>
     <use style="fill:#0000ff;stroke:#000000;" x="479.620249905" xlink:href="#mc22c959b01" y="289.183727137"/>
     <use style="fill:#0000ff;stroke:#000000;" x="484.08555375" xlink:href="#mc22c959b01" y="301.639337401"/>
     <use style="fill:#0000ff;stroke:#000000;" x="466.21336638" xlink:href="#mc22c959b01" y="253.110297418"/>
     <use style="fill:#0000ff;stroke:#000000;" x="331.462023396" xlink:href="#mc22c959b01" y="154.73824017"/>
     <use style="fill:#0000ff;stroke:#000000;" x="343.000744375" xlink:href="#mc22c959b01" y="155.639000255"/>
     <use style="fill:#0000ff;stroke:#000000;" x="165.800644918" xlink:href="#mc22c959b01" y="115.426070514"/>
     <use style="fill:#0000ff;stroke:#000000;" x="422.87008126" xlink:href="#mc22c959b01" y="203.116273736"/>
     <use style="fill:#0000ff;stroke:#000000;" x="441.754228392" xlink:href="#mc22c959b01" y="221.979038082"/>
     <use style="fill:#0000ff;stroke:#000000;" x="321.570918573" xlink:href="#mc22c959b01" y="150.942727143"/>
     <use style="fill:#0000ff;stroke:#000000;" x="384.863104952" xlink:href="#mc22c959b01" y="179.876489037"/>
     <use style="fill:#0000ff;stroke:#000000;" x="374.80185485" xlink:href="#mc22c959b01" y="174.454001692"/>
     <use style="fill:#0000ff;stroke:#000000;" x="449.684782502" xlink:href="#mc22c959b01" y="229.425042021"/>
     <use style="fill:#0000ff;stroke:#000000;" x="396.17134019" xlink:href="#mc22c959b01" y="183.649055884"/>
     <use style="fill:#0000ff;stroke:#000000;" x="469.244261089" xlink:href="#mc22c959b01" y="262.946704203"/>
     <use style="fill:#0000ff;stroke:#000000;" x="392.849766505" xlink:href="#mc22c959b01" y="181.680585098"/>
     <use style="fill:#0000ff;stroke:#000000;" x="482.592178784" xlink:href="#mc22c959b01" y="294.91675486"/>
     <use style="fill:#0000ff;stroke:#000000;" x="424.975577773" xlink:href="#mc22c959b01" y="204.896956119"/>
     <use style="fill:#0000ff;stroke:#000000;" x="362.086826114" xlink:href="#mc22c959b01" y="165.772686483"/>
     <use style="fill:#0000ff;stroke:#000000;" x="227.084713883" xlink:href="#mc22c959b01" y="122.274909332"/>
     <use style="fill:#0000ff;stroke:#000000;" x="437.143482773" xlink:href="#mc22c959b01" y="217.084953403"/>
     <use style="fill:#0000ff;stroke:#000000;" x="325.828642169" xlink:href="#mc22c959b01" y="154.661447201"/>
     <use style="fill:#0000ff;stroke:#000000;" x="486.4744837" xlink:href="#mc22c959b01" y="311.704997287"/>
     <use style="fill:#0000ff;stroke:#000000;" x="333.893733049" xlink:href="#mc22c959b01" y="155.429498622"/>
     <use style="fill:#0000ff;stroke:#000000;" x="249.028117985" xlink:href="#mc22c959b01" y="127.875202709"/>
     <use style="fill:#0000ff;stroke:#000000;" x="260.983926076" xlink:href="#mc22c959b01" y="130.49445992"/>
     <use style="fill:#0000ff;stroke:#000000;" x="484.274994869" xlink:href="#mc22c959b01" y="303.012194122"/>
     <use style="fill:#0000ff;stroke:#000000;" x="419.686650056" xlink:href="#mc22c959b01" y="200.033612655"/>
     <use style="fill:#0000ff;stroke:#000000;" x="417.667301204" xlink:href="#mc22c959b01" y="198.402420399"/>
     <use style="fill:#0000ff;stroke:#000000;" x="486.159685222" xlink:href="#mc22c959b01" y="310.799450312"/>
     <use style="fill:#0000ff;stroke:#000000;" x="440.906196142" xlink:href="#mc22c959b01" y="219.536018399"/>
     <use style="fill:#0000ff;stroke:#000000;" x="482.146579958" xlink:href="#mc22c959b01" y="290.85413872"/>
     <use style="fill:#0000ff;stroke:#000000;" x="382.887206966" xlink:href="#mc22c959b01" y="175.628692252"/>
     <use style="fill:#0000ff;stroke:#000000;" x="195.696935232" xlink:href="#mc22c959b01" y="118.292077013"/>
     <use style="fill:#0000ff;stroke:#000000;" x="472.364937505" xlink:href="#mc22c959b01" y="264.538409154"/>
     <use style="fill:#0000ff;stroke:#000000;" x="368.472544528" xlink:href="#mc22c959b01" y="167.905798716"/>
     <use style="fill:#0000ff;stroke:#000000;" x="374.319598119" xlink:href="#mc22c959b01" y="173.42101571"/>
     <use style="fill:#0000ff;stroke:#000000;" x="428.509289616" xlink:href="#mc22c959b01" y="208.339370704"/>
     <use style="fill:#0000ff;stroke:#000000;" x="413.904333143" xlink:href="#mc22c959b01" y="195.95880459"/>
     <use style="fill:#0000ff;stroke:#000000;" x="450.198573369" xlink:href="#mc22c959b01" y="230.859248996"/>
     <use style="fill:#0000ff;stroke:#000000;" x="445.655755818" xlink:href="#mc22c959b01" y="228.666194528"/>
     <use style="fill:#0000ff;stroke:#000000;" x="488.595328877" xlink:href="#mc22c959b01" y="335.270258266"/>
     <use style="fill:#0000ff;stroke:#000000;" x="346.678106721" xlink:href="#mc22c959b01" y="158.633487622"/>
     <use style="fill:#0000ff;stroke:#000000;" x="355.062605239" xlink:href="#mc22c959b01" y="164.652290755"/>
     <use style="fill:#0000ff;stroke:#000000;" x="384.469113818" xlink:href="#mc22c959b01" y="178.809155346"/>
     <use style="fill:#0000ff;stroke:#000000;" x="483.307027932" xlink:href="#mc22c959b01" y="299.796432615"/>
     <use style="fill:#0000ff;stroke:#000000;" x="485.453810464" xlink:href="#mc22c959b01" y="305.331594284"/>
     <use style="fill:#0000ff;stroke:#000000;" x="405.954873251" xlink:href="#mc22c959b01" y="189.730197438"/>
     <use style="fill:#0000ff;stroke:#000000;" x="473.080472328" xlink:href="#mc22c959b01" y="269.187791231"/>
     <use style="fill:#0000ff;stroke:#000000;" x="402.398775371" xlink:href="#mc22c959b01" y="191.356385319"/>
     <use style="fill:#0000ff;stroke:#000000;" x="386.293708466" xlink:href="#mc22c959b01" y="180.931778993"/>
     <use style="fill:#0000ff;stroke:#000000;" x="477.257034285" xlink:href="#mc22c959b01" y="284.150743227"/>
     <use style="fill:#0000ff;stroke:#000000;" x="477.877023461" xlink:href="#mc22c959b01" y="284.70612166"/>
     <use style="fill:#0000ff;stroke:#000000;" x="451.769593188" xlink:href="#mc22c959b01" y="237.990292829"/>
     <use style="fill:#0000ff;stroke:#000000;" x="352.305658888" xlink:href="#mc22c959b01" y="162.839148832"/>
     <use style="fill:#0000ff;stroke:#000000;" x="369.930984974" xlink:href="#mc22c959b01" y="173.186926034"/>
     <use style="fill:#0000ff;stroke:#000000;" x="292.935712558" xlink:href="#mc22c959b01" y="138.936336551"/>
     <use style="fill:#0000ff;stroke:#000000;" x="262.382178645" xlink:href="#mc22c959b01" y="135.570417758"/>
     <use style="fill:#0000ff;stroke:#000000;" x="486.634711181" xlink:href="#mc22c959b01" y="316.647339443"/>
     <use style="fill:#0000ff;stroke:#000000;" x="457.066061765" xlink:href="#mc22c959b01" y="240.472098764"/>
     <use style="fill:#0000ff;stroke:#000000;" x="475.353766392" xlink:href="#mc22c959b01" y="274.056583656"/>
     <use style="fill:#0000ff;stroke:#000000;" x="479.22709042" xlink:href="#mc22c959b01" y="289.414177736"/>
     <use style="fill:#0000ff;stroke:#000000;" x="483.801313995" xlink:href="#mc22c959b01" y="302.129802544"/>
     <use style="fill:#0000ff;stroke:#000000;" x="249.723457604" xlink:href="#mc22c959b01" y="130.174648187"/>
     <use style="fill:#0000ff;stroke:#000000;" x="429.814539113" xlink:href="#mc22c959b01" y="216.240112178"/>
    </g>
   </g>
   <g id="patch_3">
    <path d="M 72 388.8 
L 518.4 388.8 
" style="fill:none;stroke:#000000;stroke-linecap:square;stroke-linejoin:miter;"/>
   </g>
   <g id="patch_4">
    <path d="M 518.4 388.8 
L 518.4 43.2 
" style="fill:none;stroke:#000000;stroke-linecap:square;stroke-linejoin:miter;"/>
   </g>
   <g id="patch_5">
    <path d="M 72 388.8 
L 72 43.2 
" style="fill:none;stroke:#000000;stroke-linecap:square;stroke-linejoin:miter;"/>
   </g>
   <g id="patch_6">
    <path d="M 72 43.2 
L 518.4 43.2 
" style="fill:none;stroke:#000000;stroke-linecap:square;stroke-linejoin:miter;"/>
   </g>
   <g id="matplotlib.axis_1">
    <g id="xtick_1">
     <g id="line2d_1">
      <defs>
       <path d="M 0 0 
L 0 -4 
" id="md242f27d08" style="stroke:#000000;stroke-width:0.5;"/>
      </defs>
      <g>
       <use style="stroke:#000000;stroke-width:0.5;" x="72.0" xlink:href="#md242f27d08" y="388.8"/>
      </g>
     </g>
     <g id="line2d_2">
      <defs>
       <path d="M 0 0 
L 0 4 
" id="mfb53aa2b73" style="stroke:#000000;stroke-width:0.5;"/>
      </defs>
      <g>
       <use style="stroke:#000000;stroke-width:0.5;" x="72.0" xlink:href="#mfb53aa2b73" y="43.2"/>
      </g>
     </g>
     <g id="text_1">
      <!-- −140 -->
      <defs>
       <path d="M 31.78125 66.40625 
Q 24.171875 66.40625 20.328125 58.90625 
Q 16.5 51.421875 16.5 36.375 
Q 16.5 21.390625 20.328125 13.890625 
Q 24.171875 6.390625 31.78125 6.390625 
Q 39.453125 6.390625 43.28125 13.890625 
Q 47.125 21.390625 47.125 36.375 
Q 47.125 51.421875 43.28125 58.90625 
Q 39.453125 66.40625 31.78125 66.40625 
M 31.78125 74.21875 
Q 44.046875 74.21875 50.515625 64.515625 
Q 56.984375 54.828125 56.984375 36.375 
Q 56.984375 17.96875 50.515625 8.265625 
Q 44.046875 -1.421875 31.78125 -1.421875 
Q 19.53125 -1.421875 13.0625 8.265625 
Q 6.59375 17.96875 6.59375 36.375 
Q 6.59375 54.828125 13.0625 64.515625 
Q 19.53125 74.21875 31.78125 74.21875 
" id="BitstreamVeraSans-Roman-30"/>
       <path d="M 10.59375 35.5 
L 73.1875 35.5 
L 73.1875 27.203125 
L 10.59375 27.203125 
z
" id="BitstreamVeraSans-Roman-2212"/>
       <path d="M 37.796875 64.3125 
L 12.890625 25.390625 
L 37.796875 25.390625 
z
M 35.203125 72.90625 
L 47.609375 72.90625 
L 47.609375 25.390625 
L 58.015625 25.390625 
L 58.015625 17.1875 
L 47.609375 17.1875 
L 47.609375 0 
L 37.796875 0 
L 37.796875 17.1875 
L 4.890625 17.1875 
L 4.890625 26.703125 
z
" id="BitstreamVeraSans-Roman-34"/>
       <path d="M 12.40625 8.296875 
L 28.515625 8.296875 
L 28.515625 63.921875 
L 10.984375 60.40625 
L 10.984375 69.390625 
L 28.421875 72.90625 
L 38.28125 72.90625 
L 38.28125 8.296875 
L 54.390625 8.296875 
L 54.390625 0 
L 12.40625 0 
z
" id="BitstreamVeraSans-Roman-31"/>
      </defs>
      <g transform="translate(55.5196875 401.918125)scale(0.12 -0.12)">
       <use xlink:href="#BitstreamVeraSans-Roman-2212"/>
       <use x="83.7890625" xlink:href="#BitstreamVeraSans-Roman-31"/>
       <use x="147.412109375" xlink:href="#BitstreamVeraSans-Roman-34"/>
       <use x="211.03515625" xlink:href="#BitstreamVeraSans-Roman-30"/>
      </g>
     </g>
    </g>
    <g id="xtick_2">
     <g id="line2d_3">
      <g>
       <use style="stroke:#000000;stroke-width:0.5;" x="131.52" xlink:href="#md242f27d08" y="388.8"/>
      </g>
     </g>
     <g id="line2d_4">
      <g>
       <use style="stroke:#000000;stroke-width:0.5;" x="131.52" xlink:href="#mfb53aa2b73" y="43.2"/>
      </g>
     </g>
     <g id="text_2">
      <!-- −120 -->
      <defs>
       <path d="M 19.1875 8.296875 
L 53.609375 8.296875 
L 53.609375 0 
L 7.328125 0 
L 7.328125 8.296875 
Q 12.9375 14.109375 22.625 23.890625 
Q 32.328125 33.6875 34.8125 36.53125 
Q 39.546875 41.84375 41.421875 45.53125 
Q 43.3125 49.21875 43.3125 52.78125 
Q 43.3125 58.59375 39.234375 62.25 
Q 35.15625 65.921875 28.609375 65.921875 
Q 23.96875 65.921875 18.8125 64.3125 
Q 13.671875 62.703125 7.8125 59.421875 
L 7.8125 69.390625 
Q 13.765625 71.78125 18.9375 73 
Q 24.125 74.21875 28.421875 74.21875 
Q 39.75 74.21875 46.484375 68.546875 
Q 53.21875 62.890625 53.21875 53.421875 
Q 53.21875 48.921875 51.53125 44.890625 
Q 49.859375 40.875 45.40625 35.40625 
Q 44.1875 33.984375 37.640625 27.21875 
Q 31.109375 20.453125 19.1875 8.296875 
" id="BitstreamVeraSans-Roman-32"/>
      </defs>
      <g transform="translate(115.0396875 401.918125)scale(0.12 -0.12)">
       <use xlink:href="#BitstreamVeraSans-Roman-2212"/>
       <use x="83.7890625" xlink:href="#BitstreamVeraSans-Roman-31"/>
       <use x="147.412109375" xlink:href="#BitstreamVeraSans-Roman-32"/>
       <use x="211.03515625" xlink:href="#BitstreamVeraSans-Roman-30"/>
      </g>
     </g>
    </g>
    <g id="xtick_3">
     <g id="line2d_5">
      <g>
       <use style="stroke:#000000;stroke-width:0.5;" x="191.04" xlink:href="#md242f27d08" y="388.8"/>
      </g>
     </g>
     <g id="line2d_6">
      <g>
       <use style="stroke:#000000;stroke-width:0.5;" x="191.04" xlink:href="#mfb53aa2b73" y="43.2"/>
      </g>
     </g>
     <g id="text_3">
      <!-- −100 -->
      <g transform="translate(174.5596875 401.918125)scale(0.12 -0.12)">
       <use xlink:href="#BitstreamVeraSans-Roman-2212"/>
       <use x="83.7890625" xlink:href="#BitstreamVeraSans-Roman-31"/>
       <use x="147.412109375" xlink:href="#BitstreamVeraSans-Roman-30"/>
       <use x="211.03515625" xlink:href="#BitstreamVeraSans-Roman-30"/>
      </g>
     </g>
    </g>
    <g id="xtick_4">
     <g id="line2d_7">
      <g>
       <use style="stroke:#000000;stroke-width:0.5;" x="250.56" xlink:href="#md242f27d08" y="388.8"/>
      </g>
     </g>
     <g id="line2d_8">
      <g>
       <use style="stroke:#000000;stroke-width:0.5;" x="250.56" xlink:href="#mfb53aa2b73" y="43.2"/>
      </g>
     </g>
     <g id="text_4">
      <!-- −80 -->
      <defs>
       <path d="M 31.78125 34.625 
Q 24.75 34.625 20.71875 30.859375 
Q 16.703125 27.09375 16.703125 20.515625 
Q 16.703125 13.921875 20.71875 10.15625 
Q 24.75 6.390625 31.78125 6.390625 
Q 38.8125 6.390625 42.859375 10.171875 
Q 46.921875 13.96875 46.921875 20.515625 
Q 46.921875 27.09375 42.890625 30.859375 
Q 38.875 34.625 31.78125 34.625 
M 21.921875 38.8125 
Q 15.578125 40.375 12.03125 44.71875 
Q 8.5 49.078125 8.5 55.328125 
Q 8.5 64.0625 14.71875 69.140625 
Q 20.953125 74.21875 31.78125 74.21875 
Q 42.671875 74.21875 48.875 69.140625 
Q 55.078125 64.0625 55.078125 55.328125 
Q 55.078125 49.078125 51.53125 44.71875 
Q 48 40.375 41.703125 38.8125 
Q 48.828125 37.15625 52.796875 32.3125 
Q 56.78125 27.484375 56.78125 20.515625 
Q 56.78125 9.90625 50.3125 4.234375 
Q 43.84375 -1.421875 31.78125 -1.421875 
Q 19.734375 -1.421875 13.25 4.234375 
Q 6.78125 9.90625 6.78125 20.515625 
Q 6.78125 27.484375 10.78125 32.3125 
Q 14.796875 37.15625 21.921875 38.8125 
M 18.3125 54.390625 
Q 18.3125 48.734375 21.84375 45.5625 
Q 25.390625 42.390625 31.78125 42.390625 
Q 38.140625 42.390625 41.71875 45.5625 
Q 45.3125 48.734375 45.3125 54.390625 
Q 45.3125 60.0625 41.71875 63.234375 
Q 38.140625 66.40625 31.78125 66.40625 
Q 25.390625 66.40625 21.84375 63.234375 
Q 18.3125 60.0625 18.3125 54.390625 
" id="BitstreamVeraSans-Roman-38"/>
      </defs>
      <g transform="translate(237.8971875 401.918125)scale(0.12 -0.12)">
       <use xlink:href="#BitstreamVeraSans-Roman-2212"/>
       <use x="83.7890625" xlink:href="#BitstreamVeraSans-Roman-38"/>
       <use x="147.412109375" xlink:href="#BitstreamVeraSans-Roman-30"/>
      </g>
     </g>
    </g>
    <g id="xtick_5">
     <g id="line2d_9">
      <g>
       <use style="stroke:#000000;stroke-width:0.5;" x="310.08" xlink:href="#md242f27d08" y="388.8"/>
      </g>
     </g>
     <g id="line2d_10">
      <g>
       <use style="stroke:#000000;stroke-width:0.5;" x="310.08" xlink:href="#mfb53aa2b73" y="43.2"/>
      </g>
     </g>
     <g id="text_5">
      <!-- −60 -->
      <defs>
       <path d="M 33.015625 40.375 
Q 26.375 40.375 22.484375 35.828125 
Q 18.609375 31.296875 18.609375 23.390625 
Q 18.609375 15.53125 22.484375 10.953125 
Q 26.375 6.390625 33.015625 6.390625 
Q 39.65625 6.390625 43.53125 10.953125 
Q 47.40625 15.53125 47.40625 23.390625 
Q 47.40625 31.296875 43.53125 35.828125 
Q 39.65625 40.375 33.015625 40.375 
M 52.59375 71.296875 
L 52.59375 62.3125 
Q 48.875 64.0625 45.09375 64.984375 
Q 41.3125 65.921875 37.59375 65.921875 
Q 27.828125 65.921875 22.671875 59.328125 
Q 17.53125 52.734375 16.796875 39.40625 
Q 19.671875 43.65625 24.015625 45.921875 
Q 28.375 48.1875 33.59375 48.1875 
Q 44.578125 48.1875 50.953125 41.515625 
Q 57.328125 34.859375 57.328125 23.390625 
Q 57.328125 12.15625 50.6875 5.359375 
Q 44.046875 -1.421875 33.015625 -1.421875 
Q 20.359375 -1.421875 13.671875 8.265625 
Q 6.984375 17.96875 6.984375 36.375 
Q 6.984375 53.65625 15.1875 63.9375 
Q 23.390625 74.21875 37.203125 74.21875 
Q 40.921875 74.21875 44.703125 73.484375 
Q 48.484375 72.75 52.59375 71.296875 
" id="BitstreamVeraSans-Roman-36"/>
      </defs>
      <g transform="translate(297.4171875 401.918125)scale(0.12 -0.12)">
       <use xlink:href="#BitstreamVeraSans-Roman-2212"/>
       <use x="83.7890625" xlink:href="#BitstreamVeraSans-Roman-36"/>
       <use x="147.412109375" xlink:href="#BitstreamVeraSans-Roman-30"/>
      </g>
     </g>
    </g>
    <g id="xtick_6">
     <g id="line2d_11">
      <g>
       <use style="stroke:#000000;stroke-width:0.5;" x="369.6" xlink:href="#md242f27d08" y="388.8"/>
      </g>
     </g>
     <g id="line2d_12">
      <g>
       <use style="stroke:#000000;stroke-width:0.5;" x="369.6" xlink:href="#mfb53aa2b73" y="43.2"/>
      </g>
     </g>
     <g id="text_6">
      <!-- −40 -->
      <g transform="translate(356.9371875 401.918125)scale(0.12 -0.12)">
       <use xlink:href="#BitstreamVeraSans-Roman-2212"/>
       <use x="83.7890625" xlink:href="#BitstreamVeraSans-Roman-34"/>
       <use x="147.412109375" xlink:href="#BitstreamVeraSans-Roman-30"/>
      </g>
     </g>
    </g>
    <g id="xtick_7">
     <g id="line2d_13">
      <g>
       <use style="stroke:#000000;stroke-width:0.5;" x="429.12" xlink:href="#md242f27d08" y="388.8"/>
      </g>
     </g>
     <g id="line2d_14">
      <g>
       <use style="stroke:#000000;stroke-width:0.5;" x="429.12" xlink:href="#mfb53aa2b73" y="43.2"/>
      </g>
     </g>
     <g id="text_7">
      <!-- −20 -->
      <g transform="translate(416.4571875 401.918125)scale(0.12 -0.12)">
       <use xlink:href="#BitstreamVeraSans-Roman-2212"/>
       <use x="83.7890625" xlink:href="#BitstreamVeraSans-Roman-32"/>
       <use x="147.412109375" xlink:href="#BitstreamVeraSans-Roman-30"/>
      </g>
     </g>
    </g>
    <g id="xtick_8">
     <g id="line2d_15">
      <g>
       <use style="stroke:#000000;stroke-width:0.5;" x="488.64" xlink:href="#md242f27d08" y="388.8"/>
      </g>
     </g>
     <g id="line2d_16">
      <g>
       <use style="stroke:#000000;stroke-width:0.5;" x="488.64" xlink:href="#mfb53aa2b73" y="43.2"/>
      </g>
     </g>
     <g id="text_8">
      <!-- 0 -->
      <g transform="translate(484.8225 401.918125)scale(0.12 -0.12)">
       <use xlink:href="#BitstreamVeraSans-Roman-30"/>
      </g>
     </g>
    </g>
   </g>
   <g id="matplotlib.axis_2">
    <g id="ytick_1">
     <g id="line2d_17">
      <defs>
       <path d="M 0 0 
L 4 0 
" id="ma47893db56" style="stroke:#000000;stroke-width:0.5;"/>
      </defs>
      <g>
       <use style="stroke:#000000;stroke-width:0.5;" x="72.0" xlink:href="#ma47893db56" y="388.8"/>
      </g>
     </g>
     <g id="line2d_18">
      <defs>
       <path d="M 0 0 
L -4 0 
" id="m0eb69976c7" style="stroke:#000000;stroke-width:0.5;"/>
      </defs>
      <g>
       <use style="stroke:#000000;stroke-width:0.5;" x="518.4" xlink:href="#m0eb69976c7" y="388.8"/>
      </g>
     </g>
     <g id="text_9">
      <!-- −60 -->
      <g transform="translate(42.674375 392.11125)scale(0.12 -0.12)">
       <use xlink:href="#BitstreamVeraSans-Roman-2212"/>
       <use x="83.7890625" xlink:href="#BitstreamVeraSans-Roman-36"/>
       <use x="147.412109375" xlink:href="#BitstreamVeraSans-Roman-30"/>
      </g>
     </g>
    </g>
    <g id="ytick_2">
     <g id="line2d_19">
      <g>
       <use style="stroke:#000000;stroke-width:0.5;" x="72.0" xlink:href="#ma47893db56" y="339.428571429"/>
      </g>
     </g>
     <g id="line2d_20">
      <g>
       <use style="stroke:#000000;stroke-width:0.5;" x="518.4" xlink:href="#m0eb69976c7" y="339.428571429"/>
      </g>
     </g>
     <g id="text_10">
      <!-- −50 -->
      <defs>
       <path d="M 10.796875 72.90625 
L 49.515625 72.90625 
L 49.515625 64.59375 
L 19.828125 64.59375 
L 19.828125 46.734375 
Q 21.96875 47.46875 24.109375 47.828125 
Q 26.265625 48.1875 28.421875 48.1875 
Q 40.625 48.1875 47.75 41.5 
Q 54.890625 34.8125 54.890625 23.390625 
Q 54.890625 11.625 47.5625 5.09375 
Q 40.234375 -1.421875 26.90625 -1.421875 
Q 22.3125 -1.421875 17.546875 -0.640625 
Q 12.796875 0.140625 7.71875 1.703125 
L 7.71875 11.625 
Q 12.109375 9.234375 16.796875 8.0625 
Q 21.484375 6.890625 26.703125 6.890625 
Q 35.15625 6.890625 40.078125 11.328125 
Q 45.015625 15.765625 45.015625 23.390625 
Q 45.015625 31 40.078125 35.4375 
Q 35.15625 39.890625 26.703125 39.890625 
Q 22.75 39.890625 18.8125 39.015625 
Q 14.890625 38.140625 10.796875 36.28125 
z
" id="BitstreamVeraSans-Roman-35"/>
      </defs>
      <g transform="translate(42.674375 342.739821429)scale(0.12 -0.12)">
       <use xlink:href="#BitstreamVeraSans-Roman-2212"/>
       <use x="83.7890625" xlink:href="#BitstreamVeraSans-Roman-35"/>
       <use x="147.412109375" xlink:href="#BitstreamVeraSans-Roman-30"/>
      </g>
     </g>
    </g>
    <g id="ytick_3">
     <g id="line2d_21">
      <g>
       <use style="stroke:#000000;stroke-width:0.5;" x="72.0" xlink:href="#ma47893db56" y="290.057142857"/>
      </g>
     </g>
     <g id="line2d_22">
      <g>
       <use style="stroke:#000000;stroke-width:0.5;" x="518.4" xlink:href="#m0eb69976c7" y="290.057142857"/>
      </g>
     </g>
     <g id="text_11">
      <!-- −40 -->
      <g transform="translate(42.674375 293.368392857)scale(0.12 -0.12)">
       <use xlink:href="#BitstreamVeraSans-Roman-2212"/>
       <use x="83.7890625" xlink:href="#BitstreamVeraSans-Roman-34"/>
       <use x="147.412109375" xlink:href="#BitstreamVeraSans-Roman-30"/>
      </g>
     </g>
    </g>
    <g id="ytick_4">
     <g id="line2d_23">
      <g>
       <use style="stroke:#000000;stroke-width:0.5;" x="72.0" xlink:href="#ma47893db56" y="240.685714286"/>
      </g>
     </g>
     <g id="line2d_24">
      <g>
       <use style="stroke:#000000;stroke-width:0.5;" x="518.4" xlink:href="#m0eb69976c7" y="240.685714286"/>
      </g>
     </g>
     <g id="text_12">
      <!-- −30 -->
      <defs>
       <path d="M 40.578125 39.3125 
Q 47.65625 37.796875 51.625 33 
Q 55.609375 28.21875 55.609375 21.1875 
Q 55.609375 10.40625 48.1875 4.484375 
Q 40.765625 -1.421875 27.09375 -1.421875 
Q 22.515625 -1.421875 17.65625 -0.515625 
Q 12.796875 0.390625 7.625 2.203125 
L 7.625 11.71875 
Q 11.71875 9.328125 16.59375 8.109375 
Q 21.484375 6.890625 26.8125 6.890625 
Q 36.078125 6.890625 40.9375 10.546875 
Q 45.796875 14.203125 45.796875 21.1875 
Q 45.796875 27.640625 41.28125 31.265625 
Q 36.765625 34.90625 28.71875 34.90625 
L 20.21875 34.90625 
L 20.21875 43.015625 
L 29.109375 43.015625 
Q 36.375 43.015625 40.234375 45.921875 
Q 44.09375 48.828125 44.09375 54.296875 
Q 44.09375 59.90625 40.109375 62.90625 
Q 36.140625 65.921875 28.71875 65.921875 
Q 24.65625 65.921875 20.015625 65.03125 
Q 15.375 64.15625 9.8125 62.3125 
L 9.8125 71.09375 
Q 15.4375 72.65625 20.34375 73.4375 
Q 25.25 74.21875 29.59375 74.21875 
Q 40.828125 74.21875 47.359375 69.109375 
Q 53.90625 64.015625 53.90625 55.328125 
Q 53.90625 49.265625 50.4375 45.09375 
Q 46.96875 40.921875 40.578125 39.3125 
" id="BitstreamVeraSans-Roman-33"/>
      </defs>
      <g transform="translate(42.674375 243.996964286)scale(0.12 -0.12)">
       <use xlink:href="#BitstreamVeraSans-Roman-2212"/>
       <use x="83.7890625" xlink:href="#BitstreamVeraSans-Roman-33"/>
       <use x="147.412109375" xlink:href="#BitstreamVeraSans-Roman-30"/>
      </g>
     </g>
    </g>
    <g id="ytick_5">
     <g id="line2d_25">
      <g>
       <use style="stroke:#000000;stroke-width:0.5;" x="72.0" xlink:href="#ma47893db56" y="191.314285714"/>
      </g>
     </g>
     <g id="line2d_26">
      <g>
       <use style="stroke:#000000;stroke-width:0.5;" x="518.4" xlink:href="#m0eb69976c7" y="191.314285714"/>
      </g>
     </g>
     <g id="text_13">
      <!-- −20 -->
      <g transform="translate(42.674375 194.625535714)scale(0.12 -0.12)">
       <use xlink:href="#BitstreamVeraSans-Roman-2212"/>
       <use x="83.7890625" xlink:href="#BitstreamVeraSans-Roman-32"/>
       <use x="147.412109375" xlink:href="#BitstreamVeraSans-Roman-30"/>
      </g>
     </g>
    </g>
    <g id="ytick_6">
     <g id="line2d_27">
      <g>
       <use style="stroke:#000000;stroke-width:0.5;" x="72.0" xlink:href="#ma47893db56" y="141.942857143"/>
      </g>
     </g>
     <g id="line2d_28">
      <g>
       <use style="stroke:#000000;stroke-width:0.5;" x="518.4" xlink:href="#m0eb69976c7" y="141.942857143"/>
      </g>
     </g>
     <g id="text_14">
      <!-- −10 -->
      <g transform="translate(42.674375 145.254107143)scale(0.12 -0.12)">
       <use xlink:href="#BitstreamVeraSans-Roman-2212"/>
       <use x="83.7890625" xlink:href="#BitstreamVeraSans-Roman-31"/>
       <use x="147.412109375" xlink:href="#BitstreamVeraSans-Roman-30"/>
      </g>
     </g>
    </g>
    <g id="ytick_7">
     <g id="line2d_29">
      <g>
       <use style="stroke:#000000;stroke-width:0.5;" x="72.0" xlink:href="#ma47893db56" y="92.5714285714"/>
      </g>
     </g>
     <g id="line2d_30">
      <g>
       <use style="stroke:#000000;stroke-width:0.5;" x="518.4" xlink:href="#m0eb69976c7" y="92.5714285714"/>
      </g>
     </g>
     <g id="text_15">
      <!-- 0 -->
      <g transform="translate(60.365 95.8826785714)scale(0.12 -0.12)">
       <use xlink:href="#BitstreamVeraSans-Roman-30"/>
      </g>
     </g>
    </g>
    <g id="ytick_8">
     <g id="line2d_31">
      <g>
       <use style="stroke:#000000;stroke-width:0.5;" x="72.0" xlink:href="#ma47893db56" y="43.2"/>
      </g>
     </g>
     <g id="line2d_32">
      <g>
       <use style="stroke:#000000;stroke-width:0.5;" x="518.4" xlink:href="#m0eb69976c7" y="43.2"/>
      </g>
     </g>
     <g id="text_16">
      <!-- 10 -->
      <g transform="translate(52.73 46.51125)scale(0.12 -0.12)">
       <use xlink:href="#BitstreamVeraSans-Roman-31"/>
       <use x="63.623046875" xlink:href="#BitstreamVeraSans-Roman-30"/>
      </g>
     </g>
    </g>
   </g>
  </g>
 </g>
 <defs>
  <clipPath id="p8ae6d1c85f">
   <rect height="345.6" width="446.4" x="72.0" y="43.2"/>
  </clipPath>
 </defs>
</svg>
