<?xml version="1.0" encoding="utf-8" standalone="no"?>
<!DOCTYPE svg PUBLIC "-//W3C//DTD SVG 1.1//EN"
  "http://www.w3.org/Graphics/SVG/1.1/DTD/svg11.dtd">
<!-- Created with matplotlib (http://matplotlib.org/) -->
<svg height="432pt" version="1.1" viewBox="0 0 576 432" width="576pt" xmlns="http://www.w3.org/2000/svg" xmlns:xlink="http://www.w3.org/1999/xlink">
 <defs>
  <style type="text/css">
*{stroke-linecap:butt;stroke-linejoin:round;stroke-miterlimit:100000;}
  </style>
 </defs>
 <g id="figure_1">
  <g id="patch_1">
   <path d="M 0 432 
L 576 432 
L 576 0 
L 0 0 
z
" style="fill:#ffffff;"/>
  </g>
  <g id="axes_1">
   <g id="patch_2">
    <path d="M 72 388.8 
L 518.4 388.8 
L 518.4 43.2 
L 72 43.2 
z
" style="fill:#ffffff;"/>
   </g>
   <g id="PathCollection_1">
    <defs>
     <path d="M 0 1.118034 
C 0.296506 1.118034 0.580908 1.000231 0.790569 0.790569 
C 1.000231 0.580908 1.118034 0.296506 1.118034 0 
C 1.118034 -0.296506 1.000231 -0.580908 0.790569 -0.790569 
C 0.580908 -1.000231 0.296506 -1.118034 0 -1.118034 
C -0.296506 -1.118034 -0.580908 -1.000231 -0.790569 -0.790569 
C -1.000231 -0.580908 -1.118034 -0.296506 -1.118034 0 
C -1.118034 0.296506 -1.000231 0.580908 -0.790569 0.790569 
C -0.580908 1.000231 -0.296506 1.118034 0 1.118034 
z
" id="mae1d91db4f" style="stroke:#000000;"/>
    </defs>
    <g clip-path="url(#pbd2d523a04)">
     <use style="stroke:#000000;" x="408.342723209" xlink:href="#mae1d91db4f" y="193.219865563"/>
     <use style="stroke:#000000;" x="475.151292468" xlink:href="#mae1d91db4f" y="270.998667511"/>
     <use style="stroke:#000000;" x="391.006165341" xlink:href="#mae1d91db4f" y="180.030679157"/>
     <use style="stroke:#000000;" x="458.241467224" xlink:href="#mae1d91db4f" y="240.567497054"/>
     <use style="stroke:#000000;" x="475.367485091" xlink:href="#mae1d91db4f" y="273.605160103"/>
     <use style="stroke:#000000;" x="485.995304117" xlink:href="#mae1d91db4f" y="307.708287538"/>
     <use style="stroke:#000000;" x="460.816848462" xlink:href="#mae1d91db4f" y="247.417486914"/>
     <use style="stroke:#000000;" x="487.693265723" xlink:href="#mae1d91db4f" y="321.705308217"/>
     <use style="stroke:#000000;" x="488.461170837" xlink:href="#mae1d91db4f" y="333.038690228"/>
     <use style="stroke:#000000;" x="267.27736699" xlink:href="#mae1d91db4f" y="131.363465447"/>
     <use style="stroke:#000000;" x="470.894986184" xlink:href="#mae1d91db4f" y="262.974131434"/>
     <use style="stroke:#000000;" x="425.419322371" xlink:href="#mae1d91db4f" y="207.391829542"/>
     <use style="stroke:#000000;" x="439.512813743" xlink:href="#mae1d91db4f" y="217.96250939"/>
     <use style="stroke:#000000;" x="346.466130463" xlink:href="#mae1d91db4f" y="157.167493899"/>
     <use style="stroke:#000000;" x="488.321485815" xlink:href="#mae1d91db4f" y="329.0226434"/>
     <use style="stroke:#000000;" x="294.589177351" xlink:href="#mae1d91db4f" y="138.347465345"/>
     <use style="stroke:#000000;" x="476.703209086" xlink:href="#mae1d91db4f" y="276.452500605"/>
     <use style="stroke:#000000;" x="373.841214023" xlink:href="#mae1d91db4f" y="170.81156156"/>
     <use style="stroke:#000000;" x="354.911621434" xlink:href="#mae1d91db4f" y="164.382413877"/>
     <use style="stroke:#000000;" x="198.588206919" xlink:href="#mae1d91db4f" y="118.989659152"/>
     <use style="stroke:#000000;" x="457.306910894" xlink:href="#mae1d91db4f" y="240.465997218"/>
     <use style="stroke:#000000;" x="353.803142884" xlink:href="#mae1d91db4f" y="160.684360976"/>
     <use style="stroke:#000000;" x="476.77419374" xlink:href="#mae1d91db4f" y="277.106248996"/>
     <use style="stroke:#000000;" x="487.175185138" xlink:href="#mae1d91db4f" y="315.989189419"/>
     <use style="stroke:#000000;" x="284.962085438" xlink:href="#mae1d91db4f" y="137.983619024"/>
     <use style="stroke:#000000;" x="452.320102835" xlink:href="#mae1d91db4f" y="233.740877208"/>
     <use style="stroke:#000000;" x="404.791850594" xlink:href="#mae1d91db4f" y="189.490325781"/>
     <use style="stroke:#000000;" x="478.513665994" xlink:href="#mae1d91db4f" y="279.250388551"/>
     <use style="stroke:#000000;" x="429.716178934" xlink:href="#mae1d91db4f" y="208.6570471"/>
     <use style="stroke:#000000;" x="312.939791606" xlink:href="#mae1d91db4f" y="144.437936467"/>
     <use style="stroke:#000000;" x="254.92994525" xlink:href="#mae1d91db4f" y="129.494272986"/>
     <use style="stroke:#000000;" x="484.08555375" xlink:href="#mae1d91db4f" y="301.639337401"/>
     <use style="stroke:#000000;" x="466.21336638" xlink:href="#mae1d91db4f" y="253.110297418"/>
     <use style="stroke:#000000;" x="487.981725753" xlink:href="#mae1d91db4f" y="323.639922226"/>
     <use style="stroke:#000000;" x="454.625169544" xlink:href="#mae1d91db4f" y="239.416534838"/>
     <use style="stroke:#000000;" x="343.000744375" xlink:href="#mae1d91db4f" y="155.639000255"/>
     <use style="stroke:#000000;" x="165.800644918" xlink:href="#mae1d91db4f" y="115.426070514"/>
     <use style="stroke:#000000;" x="422.87008126" xlink:href="#mae1d91db4f" y="203.116273736"/>
     <use style="stroke:#000000;" x="441.754228392" xlink:href="#mae1d91db4f" y="221.979038082"/>
     <use style="stroke:#000000;" x="468.551458254" xlink:href="#mae1d91db4f" y="257.901197038"/>
     <use style="stroke:#000000;" x="321.570918573" xlink:href="#mae1d91db4f" y="150.942727143"/>
     <use style="stroke:#000000;" x="384.863104952" xlink:href="#mae1d91db4f" y="179.876489037"/>
     <use style="stroke:#000000;" x="374.80185485" xlink:href="#mae1d91db4f" y="174.454001692"/>
     <use style="stroke:#000000;" x="449.684782502" xlink:href="#mae1d91db4f" y="229.425042021"/>
     <use style="stroke:#000000;" x="396.17134019" xlink:href="#mae1d91db4f" y="183.649055884"/>
     <use style="stroke:#000000;" x="392.849766505" xlink:href="#mae1d91db4f" y="181.680585098"/>
     <use style="stroke:#000000;" x="469.244261089" xlink:href="#mae1d91db4f" y="262.946704203"/>
     <use style="stroke:#000000;" x="424.975577773" xlink:href="#mae1d91db4f" y="204.896956119"/>
     <use style="stroke:#000000;" x="362.086826114" xlink:href="#mae1d91db4f" y="165.772686483"/>
     <use style="stroke:#000000;" x="227.084713883" xlink:href="#mae1d91db4f" y="122.274909332"/>
     <use style="stroke:#000000;" x="437.143482773" xlink:href="#mae1d91db4f" y="217.084953403"/>
     <use style="stroke:#000000;" x="249.028117985" xlink:href="#mae1d91db4f" y="127.875202709"/>
     <use style="stroke:#000000;" x="260.983926076" xlink:href="#mae1d91db4f" y="130.49445992"/>
     <use style="stroke:#000000;" x="486.4744837" xlink:href="#mae1d91db4f" y="311.704997287"/>
     <use style="stroke:#000000;" x="484.274994869" xlink:href="#mae1d91db4f" y="303.012194122"/>
     <use style="stroke:#000000;" x="419.686650056" xlink:href="#mae1d91db4f" y="200.033612655"/>
     <use style="stroke:#000000;" x="417.667301204" xlink:href="#mae1d91db4f" y="198.402420399"/>
     <use style="stroke:#000000;" x="482.146579958" xlink:href="#mae1d91db4f" y="290.85413872"/>
     <use style="stroke:#000000;" x="486.159685222" xlink:href="#mae1d91db4f" y="310.799450312"/>
     <use style="stroke:#000000;" x="440.906196142" xlink:href="#mae1d91db4f" y="219.536018399"/>
     <use style="stroke:#000000;" x="382.887206966" xlink:href="#mae1d91db4f" y="175.628692252"/>
     <use style="stroke:#000000;" x="472.364937505" xlink:href="#mae1d91db4f" y="264.538409154"/>
     <use style="stroke:#000000;" x="195.696935232" xlink:href="#mae1d91db4f" y="118.292077013"/>
     <use style="stroke:#000000;" x="428.509289616" xlink:href="#mae1d91db4f" y="208.339370704"/>
     <use style="stroke:#000000;" x="368.472544528" xlink:href="#mae1d91db4f" y="167.905798716"/>
     <use style="stroke:#000000;" x="413.904333143" xlink:href="#mae1d91db4f" y="195.95880459"/>
     <use style="stroke:#000000;" x="450.198573369" xlink:href="#mae1d91db4f" y="230.859248996"/>
     <use style="stroke:#000000;" x="445.655755818" xlink:href="#mae1d91db4f" y="228.666194528"/>
     <use style="stroke:#000000;" x="488.595328877" xlink:href="#mae1d91db4f" y="335.270258266"/>
     <use style="stroke:#000000;" x="384.469113818" xlink:href="#mae1d91db4f" y="178.809155346"/>
     <use style="stroke:#000000;" x="355.062605239" xlink:href="#mae1d91db4f" y="164.652290755"/>
     <use style="stroke:#000000;" x="346.678106721" xlink:href="#mae1d91db4f" y="158.633487622"/>
     <use style="stroke:#000000;" x="473.080472328" xlink:href="#mae1d91db4f" y="269.187791231"/>
     <use style="stroke:#000000;" x="303.947998341" xlink:href="#mae1d91db4f" y="141.050194967"/>
     <use style="stroke:#000000;" x="485.453810464" xlink:href="#mae1d91db4f" y="305.331594284"/>
     <use style="stroke:#000000;" x="405.954873251" xlink:href="#mae1d91db4f" y="189.730197438"/>
     <use style="stroke:#000000;" x="488.271543601" xlink:href="#mae1d91db4f" y="327.339115019"/>
     <use style="stroke:#000000;" x="445.142127458" xlink:href="#mae1d91db4f" y="224.890960391"/>
     <use style="stroke:#000000;" x="374.542931674" xlink:href="#mae1d91db4f" y="171.024019518"/>
     <use style="stroke:#000000;" x="326.534520343" xlink:href="#mae1d91db4f" y="151.932295427"/>
     <use style="stroke:#000000;" x="401.263845712" xlink:href="#mae1d91db4f" y="186.576103372"/>
     <use style="stroke:#000000;" x="479.970803569" xlink:href="#mae1d91db4f" y="283.691102386"/>
     <use style="stroke:#000000;" x="435.247761102" xlink:href="#mae1d91db4f" y="213.817402704"/>
     <use style="stroke:#000000;" x="409.86829735" xlink:href="#mae1d91db4f" y="194.716142142"/>
     <use style="stroke:#000000;" x="486.691914405" xlink:href="#mae1d91db4f" y="314.7600952"/>
     <use style="stroke:#000000;" x="304.899697462" xlink:href="#mae1d91db4f" y="141.338670077"/>
     <use style="stroke:#000000;" x="483.902981175" xlink:href="#mae1d91db4f" y="297.909363301"/>
     <use style="stroke:#000000;" x="398.547520693" xlink:href="#mae1d91db4f" y="184.736939239"/>
     <use style="stroke:#000000;" x="486.68163181" xlink:href="#mae1d91db4f" y="312.848151649"/>
     <use style="stroke:#000000;" x="319.601831457" xlink:href="#mae1d91db4f" y="149.303484232"/>
     <use style="stroke:#000000;" x="368.666122378" xlink:href="#mae1d91db4f" y="167.957285912"/>
     <use style="stroke:#000000;" x="335.494194328" xlink:href="#mae1d91db4f" y="153.374341996"/>
     <use style="stroke:#000000;" x="401.902620489" xlink:href="#mae1d91db4f" y="187.366921411"/>
     <use style="stroke:#000000;" x="425.164807681" xlink:href="#mae1d91db4f" y="206.41633153"/>
     <use style="stroke:#000000;" x="431.203858807" xlink:href="#mae1d91db4f" y="209.990477254"/>
     <use style="stroke:#000000;" x="271.005486888" xlink:href="#mae1d91db4f" y="135.586495104"/>
     <use style="stroke:#000000;" x="484.632220554" xlink:href="#mae1d91db4f" y="303.908313487"/>
     <use style="stroke:#000000;" x="477.449102223" xlink:href="#mae1d91db4f" y="278.74374551"/>
     <use style="stroke:#000000;" x="480.372849353" xlink:href="#mae1d91db4f" y="287.474002647"/>
     <use style="stroke:#000000;" x="410.61054049" xlink:href="#mae1d91db4f" y="194.869804612"/>
     <use style="stroke:#000000;" x="377.696290528" xlink:href="#mae1d91db4f" y="177.305172649"/>
     <use style="stroke:#000000;" x="486.099380203" xlink:href="#mae1d91db4f" y="309.026665935"/>
     <use style="stroke:#000000;" x="428.123847272" xlink:href="#mae1d91db4f" y="207.204928837"/>
     <use style="stroke:#000000;" x="426.404975883" xlink:href="#mae1d91db4f" y="225.146376855"/>
     <use style="stroke:#000000;" x="457.381120688" xlink:href="#mae1d91db4f" y="252.439747626"/>
     <use style="stroke:#000000;" x="388.150869459" xlink:href="#mae1d91db4f" y="179.231733913"/>
     <use style="stroke:#000000;" x="440.462008392" xlink:href="#mae1d91db4f" y="234.961534418"/>
     <use style="stroke:#000000;" x="424.891298387" xlink:href="#mae1d91db4f" y="208.197696845"/>
     <use style="stroke:#000000;" x="435.396222079" xlink:href="#mae1d91db4f" y="215.492684053"/>
     <use style="stroke:#000000;" x="325.255200256" xlink:href="#mae1d91db4f" y="149.886039458"/>
     <use style="stroke:#000000;" x="343.850578035" xlink:href="#mae1d91db4f" y="176.459933814"/>
     <use style="stroke:#000000;" x="398.93064889" xlink:href="#mae1d91db4f" y="189.752720369"/>
     <use style="stroke:#000000;" x="405.299323904" xlink:href="#mae1d91db4f" y="203.527241102"/>
     <use style="stroke:#000000;" x="392.202847865" xlink:href="#mae1d91db4f" y="180.767028406"/>
     <use style="stroke:#000000;" x="431.13051152" xlink:href="#mae1d91db4f" y="213.187892057"/>
     <use style="stroke:#000000;" x="348.665639069" xlink:href="#mae1d91db4f" y="158.488119721"/>
     <use style="stroke:#000000;" x="486.360797873" xlink:href="#mae1d91db4f" y="315.015729008"/>
     <use style="stroke:#000000;" x="414.33041276" xlink:href="#mae1d91db4f" y="196.587486297"/>
     <use style="stroke:#000000;" x="398.313270135" xlink:href="#mae1d91db4f" y="188.950410057"/>
     <use style="stroke:#000000;" x="265.118212719" xlink:href="#mae1d91db4f" y="133.965249162"/>
     <use style="stroke:#000000;" x="476.116507955" xlink:href="#mae1d91db4f" y="275.233461821"/>
     <use style="stroke:#000000;" x="398.134133844" xlink:href="#mae1d91db4f" y="184.866915667"/>
     <use style="stroke:#000000;" x="486.285565906" xlink:href="#mae1d91db4f" y="315.730120237"/>
     <use style="stroke:#000000;" x="421.998007925" xlink:href="#mae1d91db4f" y="203.466688133"/>
     <use style="stroke:#000000;" x="340.07066701" xlink:href="#mae1d91db4f" y="157.696205258"/>
     <use style="stroke:#000000;" x="426.891440993" xlink:href="#mae1d91db4f" y="215.662131871"/>
     <use style="stroke:#000000;" x="438.73228395" xlink:href="#mae1d91db4f" y="217.982328325"/>
     <use style="stroke:#000000;" x="487.475509955" xlink:href="#mae1d91db4f" y="318.102174716"/>
     <use style="stroke:#000000;" x="395.719632877" xlink:href="#mae1d91db4f" y="194.131802129"/>
     <use style="stroke:#000000;" x="364.233115104" xlink:href="#mae1d91db4f" y="165.732887801"/>
     <use style="stroke:#000000;" x="314.38940625" xlink:href="#mae1d91db4f" y="147.402347015"/>
     <use style="stroke:#000000;" x="485.539847417" xlink:href="#mae1d91db4f" y="309.621711875"/>
     <use style="stroke:#000000;" x="436.053894928" xlink:href="#mae1d91db4f" y="236.993639016"/>
     <use style="stroke:#000000;" x="428.079004489" xlink:href="#mae1d91db4f" y="208.929858566"/>
     <use style="stroke:#000000;" x="473.854386396" xlink:href="#mae1d91db4f" y="274.009963583"/>
     <use style="stroke:#000000;" x="389.349067578" xlink:href="#mae1d91db4f" y="178.98487337"/>
     <use style="stroke:#000000;" x="235.927134125" xlink:href="#mae1d91db4f" y="128.910031461"/>
     <use style="stroke:#000000;" x="390.064559704" xlink:href="#mae1d91db4f" y="188.09705547"/>
     <use style="stroke:#000000;" x="465.738259679" xlink:href="#mae1d91db4f" y="254.600423974"/>
     <use style="stroke:#000000;" x="321.951367102" xlink:href="#mae1d91db4f" y="179.497651355"/>
     <use style="stroke:#000000;" x="370.837360658" xlink:href="#mae1d91db4f" y="173.078320537"/>
     <use style="stroke:#000000;" x="355.35427978" xlink:href="#mae1d91db4f" y="163.489977339"/>
     <use style="stroke:#000000;" x="344.580872046" xlink:href="#mae1d91db4f" y="158.362854911"/>
     <use style="stroke:#000000;" x="415.374875881" xlink:href="#mae1d91db4f" y="215.029762261"/>
     <use style="stroke:#000000;" x="359.215383465" xlink:href="#mae1d91db4f" y="170.35121626"/>
     <use style="stroke:#000000;" x="429.442428701" xlink:href="#mae1d91db4f" y="209.072584898"/>
     <use style="stroke:#000000;" x="451.871477335" xlink:href="#mae1d91db4f" y="249.253954156"/>
     <use style="stroke:#000000;" x="383.342338787" xlink:href="#mae1d91db4f" y="193.539003146"/>
     <use style="stroke:#000000;" x="404.734866021" xlink:href="#mae1d91db4f" y="190.653239307"/>
     <use style="stroke:#000000;" x="290.430874706" xlink:href="#mae1d91db4f" y="138.570988043"/>
    </g>
   </g>
   <g id="PathCollection_2">
    <defs>
     <path d="M 0 1.936492 
C 0.513564 1.936492 1.006162 1.732451 1.369306 1.369306 
C 1.732451 1.006162 1.936492 0.513564 1.936492 0 
C 1.936492 -0.513564 1.732451 -1.006162 1.369306 -1.369306 
C 1.006162 -1.732451 0.513564 -1.936492 0 -1.936492 
C -0.513564 -1.936492 -1.006162 -1.732451 -1.369306 -1.369306 
C -1.732451 -1.006162 -1.936492 -0.513564 -1.936492 0 
C -1.936492 0.513564 -1.732451 1.006162 -1.369306 1.369306 
C -1.006162 1.732451 -0.513564 1.936492 0 1.936492 
z
" id="m2efc96e30c" style="stroke:#000000;"/>
    </defs>
    <g clip-path="url(#pbd2d523a04)">
     <use style="fill:#0000ff;stroke:#000000;" x="408.342723209" xlink:href="#m2efc96e30c" y="193.219865563"/>
     <use style="fill:#0000ff;stroke:#000000;" x="475.151292468" xlink:href="#m2efc96e30c" y="270.998667511"/>
     <use style="fill:#0000ff;stroke:#000000;" x="391.006165341" xlink:href="#m2efc96e30c" y="180.030679157"/>
     <use style="fill:#0000ff;stroke:#000000;" x="458.241467224" xlink:href="#m2efc96e30c" y="240.567497054"/>
     <use style="fill:#0000ff;stroke:#000000;" x="475.367485091" xlink:href="#m2efc96e30c" y="273.605160103"/>
     <use style="fill:#0000ff;stroke:#000000;" x="485.995304117" xlink:href="#m2efc96e30c" y="307.708287538"/>
     <use style="fill:#0000ff;stroke:#000000;" x="460.816848462" xlink:href="#m2efc96e30c" y="247.417486914"/>
     <use style="fill:#0000ff;stroke:#000000;" x="487.693265723" xlink:href="#m2efc96e30c" y="321.705308217"/>
     <use style="fill:#0000ff;stroke:#000000;" x="488.461170837" xlink:href="#m2efc96e30c" y="333.038690228"/>
     <use style="fill:#0000ff;stroke:#000000;" x="267.27736699" xlink:href="#m2efc96e30c" y="131.363465447"/>
     <use style="fill:#0000ff;stroke:#000000;" x="470.894986184" xlink:href="#m2efc96e30c" y="262.974131434"/>
     <use style="fill:#0000ff;stroke:#000000;" x="425.419322371" xlink:href="#m2efc96e30c" y="207.391829542"/>
     <use style="fill:#0000ff;stroke:#000000;" x="439.512813743" xlink:href="#m2efc96e30c" y="217.96250939"/>
     <use style="fill:#0000ff;stroke:#000000;" x="346.466130463" xlink:href="#m2efc96e30c" y="157.167493899"/>
     <use style="fill:#0000ff;stroke:#000000;" x="488.321485815" xlink:href="#m2efc96e30c" y="329.0226434"/>
     <use style="fill:#0000ff;stroke:#000000;" x="294.589177351" xlink:href="#m2efc96e30c" y="138.347465345"/>
     <use style="fill:#0000ff;stroke:#000000;" x="476.703209086" xlink:href="#m2efc96e30c" y="276.452500605"/>
     <use style="fill:#0000ff;stroke:#000000;" x="373.841214023" xlink:href="#m2efc96e30c" y="170.81156156"/>
     <use style="fill:#0000ff;stroke:#000000;" x="354.911621434" xlink:href="#m2efc96e30c" y="164.382413877"/>
     <use style="fill:#0000ff;stroke:#000000;" x="198.588206919" xlink:href="#m2efc96e30c" y="118.989659152"/>
     <use style="fill:#0000ff;stroke:#000000;" x="457.306910894" xlink:href="#m2efc96e30c" y="240.465997218"/>
     <use style="fill:#0000ff;stroke:#000000;" x="353.803142884" xlink:href="#m2efc96e30c" y="160.684360976"/>
     <use style="fill:#0000ff;stroke:#000000;" x="476.77419374" xlink:href="#m2efc96e30c" y="277.106248996"/>
     <use style="fill:#0000ff;stroke:#000000;" x="487.175185138" xlink:href="#m2efc96e30c" y="315.989189419"/>
     <use style="fill:#0000ff;stroke:#000000;" x="284.962085438" xlink:href="#m2efc96e30c" y="137.983619024"/>
     <use style="fill:#0000ff;stroke:#000000;" x="452.320102835" xlink:href="#m2efc96e30c" y="233.740877208"/>
     <use style="fill:#0000ff;stroke:#000000;" x="404.791850594" xlink:href="#m2efc96e30c" y="189.490325781"/>
     <use style="fill:#0000ff;stroke:#000000;" x="478.513665994" xlink:href="#m2efc96e30c" y="279.250388551"/>
     <use style="fill:#0000ff;stroke:#000000;" x="429.716178934" xlink:href="#m2efc96e30c" y="208.6570471"/>
     <use style="fill:#0000ff;stroke:#000000;" x="312.939791606" xlink:href="#m2efc96e30c" y="144.437936467"/>
     <use style="fill:#0000ff;stroke:#000000;" x="254.92994525" xlink:href="#m2efc96e30c" y="129.494272986"/>
     <use style="fill:#0000ff;stroke:#000000;" x="484.08555375" xlink:href="#m2efc96e30c" y="301.639337401"/>
     <use style="fill:#0000ff;stroke:#000000;" x="466.21336638" xlink:href="#m2efc96e30c" y="253.110297418"/>
     <use style="fill:#0000ff;stroke:#000000;" x="487.981725753" xlink:href="#m2efc96e30c" y="323.639922226"/>
     <use style="fill:#0000ff;stroke:#000000;" x="454.625169544" xlink:href="#m2efc96e30c" y="239.416534838"/>
     <use style="fill:#0000ff;stroke:#000000;" x="343.000744375" xlink:href="#m2efc96e30c" y="155.639000255"/>
     <use style="fill:#0000ff;stroke:#000000;" x="165.800644918" xlink:href="#m2efc96e30c" y="115.426070514"/>
     <use style="fill:#0000ff;stroke:#000000;" x="422.87008126" xlink:href="#m2efc96e30c" y="203.116273736"/>
     <use style="fill:#0000ff;stroke:#000000;" x="441.754228392" xlink:href="#m2efc96e30c" y="221.979038082"/>
     <use style="fill:#0000ff;stroke:#000000;" x="468.551458254" xlink:href="#m2efc96e30c" y="257.901197038"/>
     <use style="fill:#0000ff;stroke:#000000;" x="321.570918573" xlink:href="#m2efc96e30c" y="150.942727143"/>
     <use style="fill:#0000ff;stroke:#000000;" x="384.863104952" xlink:href="#m2efc96e30c" y="179.876489037"/>
     <use style="fill:#0000ff;stroke:#000000;" x="374.80185485" xlink:href="#m2efc96e30c" y="174.454001692"/>
     <use style="fill:#0000ff;stroke:#000000;" x="449.684782502" xlink:href="#m2efc96e30c" y="229.425042021"/>
     <use style="fill:#0000ff;stroke:#000000;" x="396.17134019" xlink:href="#m2efc96e30c" y="183.649055884"/>
     <use style="fill:#0000ff;stroke:#000000;" x="392.849766505" xlink:href="#m2efc96e30c" y="181.680585098"/>
     <use style="fill:#0000ff;stroke:#000000;" x="469.244261089" xlink:href="#m2efc96e30c" y="262.946704203"/>
     <use style="fill:#0000ff;stroke:#000000;" x="424.975577773" xlink:href="#m2efc96e30c" y="204.896956119"/>
     <use style="fill:#0000ff;stroke:#000000;" x="362.086826114" xlink:href="#m2efc96e30c" y="165.772686483"/>
     <use style="fill:#0000ff;stroke:#000000;" x="227.084713883" xlink:href="#m2efc96e30c" y="122.274909332"/>
     <use style="fill:#0000ff;stroke:#000000;" x="437.143482773" xlink:href="#m2efc96e30c" y="217.084953403"/>
     <use style="fill:#0000ff;stroke:#000000;" x="249.028117985" xlink:href="#m2efc96e30c" y="127.875202709"/>
     <use style="fill:#0000ff;stroke:#000000;" x="260.983926076" xlink:href="#m2efc96e30c" y="130.49445992"/>
     <use style="fill:#0000ff;stroke:#000000;" x="486.4744837" xlink:href="#m2efc96e30c" y="311.704997287"/>
     <use style="fill:#0000ff;stroke:#000000;" x="484.274994869" xlink:href="#m2efc96e30c" y="303.012194122"/>
     <use style="fill:#0000ff;stroke:#000000;" x="419.686650056" xlink:href="#m2efc96e30c" y="200.033612655"/>
     <use style="fill:#0000ff;stroke:#000000;" x="417.667301204" xlink:href="#m2efc96e30c" y="198.402420399"/>
     <use style="fill:#0000ff;stroke:#000000;" x="482.146579958" xlink:href="#m2efc96e30c" y="290.85413872"/>
     <use style="fill:#0000ff;stroke:#000000;" x="486.159685222" xlink:href="#m2efc96e30c" y="310.799450312"/>
     <use style="fill:#0000ff;stroke:#000000;" x="440.906196142" xlink:href="#m2efc96e30c" y="219.536018399"/>
     <use style="fill:#0000ff;stroke:#000000;" x="382.887206966" xlink:href="#m2efc96e30c" y="175.628692252"/>
     <use style="fill:#0000ff;stroke:#000000;" x="472.364937505" xlink:href="#m2efc96e30c" y="264.538409154"/>
     <use style="fill:#0000ff;stroke:#000000;" x="195.696935232" xlink:href="#m2efc96e30c" y="118.292077013"/>
     <use style="fill:#0000ff;stroke:#000000;" x="428.509289616" xlink:href="#m2efc96e30c" y="208.339370704"/>
     <use style="fill:#0000ff;stroke:#000000;" x="368.472544528" xlink:href="#m2efc96e30c" y="167.905798716"/>
     <use style="fill:#0000ff;stroke:#000000;" x="413.904333143" xlink:href="#m2efc96e30c" y="195.95880459"/>
     <use style="fill:#0000ff;stroke:#000000;" x="450.198573369" xlink:href="#m2efc96e30c" y="230.859248996"/>
     <use style="fill:#0000ff;stroke:#000000;" x="445.655755818" xlink:href="#m2efc96e30c" y="228.666194528"/>
     <use style="fill:#0000ff;stroke:#000000;" x="488.595328877" xlink:href="#m2efc96e30c" y="335.270258266"/>
     <use style="fill:#0000ff;stroke:#000000;" x="384.469113818" xlink:href="#m2efc96e30c" y="178.809155346"/>
     <use style="fill:#0000ff;stroke:#000000;" x="355.062605239" xlink:href="#m2efc96e30c" y="164.652290755"/>
     <use style="fill:#0000ff;stroke:#000000;" x="346.678106721" xlink:href="#m2efc96e30c" y="158.633487622"/>
     <use style="fill:#0000ff;stroke:#000000;" x="473.080472328" xlink:href="#m2efc96e30c" y="269.187791231"/>
     <use style="fill:#0000ff;stroke:#000000;" x="303.947998341" xlink:href="#m2efc96e30c" y="141.050194967"/>
     <use style="fill:#0000ff;stroke:#000000;" x="485.453810464" xlink:href="#m2efc96e30c" y="305.331594284"/>
     <use style="fill:#0000ff;stroke:#000000;" x="405.954873251" xlink:href="#m2efc96e30c" y="189.730197438"/>
     <use style="fill:#0000ff;stroke:#000000;" x="488.271543601" xlink:href="#m2efc96e30c" y="327.339115019"/>
     <use style="fill:#0000ff;stroke:#000000;" x="445.142127458" xlink:href="#m2efc96e30c" y="224.890960391"/>
     <use style="fill:#0000ff;stroke:#000000;" x="374.542931674" xlink:href="#m2efc96e30c" y="171.024019518"/>
     <use style="fill:#0000ff;stroke:#000000;" x="326.534520343" xlink:href="#m2efc96e30c" y="151.932295427"/>
     <use style="fill:#0000ff;stroke:#000000;" x="401.263845712" xlink:href="#m2efc96e30c" y="186.576103372"/>
     <use style="fill:#0000ff;stroke:#000000;" x="479.970803569" xlink:href="#m2efc96e30c" y="283.691102386"/>
     <use style="fill:#0000ff;stroke:#000000;" x="435.247761102" xlink:href="#m2efc96e30c" y="213.817402704"/>
     <use style="fill:#0000ff;stroke:#000000;" x="409.86829735" xlink:href="#m2efc96e30c" y="194.716142142"/>
     <use style="fill:#0000ff;stroke:#000000;" x="486.691914405" xlink:href="#m2efc96e30c" y="314.7600952"/>
     <use style="fill:#0000ff;stroke:#000000;" x="304.899697462" xlink:href="#m2efc96e30c" y="141.338670077"/>
     <use style="fill:#0000ff;stroke:#000000;" x="483.902981175" xlink:href="#m2efc96e30c" y="297.909363301"/>
     <use style="fill:#0000ff;stroke:#000000;" x="398.547520693" xlink:href="#m2efc96e30c" y="184.736939239"/>
     <use style="fill:#0000ff;stroke:#000000;" x="486.68163181" xlink:href="#m2efc96e30c" y="312.848151649"/>
     <use style="fill:#0000ff;stroke:#000000;" x="319.601831457" xlink:href="#m2efc96e30c" y="149.303484232"/>
     <use style="fill:#0000ff;stroke:#000000;" x="368.666122378" xlink:href="#m2efc96e30c" y="167.957285912"/>
     <use style="fill:#0000ff;stroke:#000000;" x="335.494194328" xlink:href="#m2efc96e30c" y="153.374341996"/>
     <use style="fill:#0000ff;stroke:#000000;" x="401.902620489" xlink:href="#m2efc96e30c" y="187.366921411"/>
     <use style="fill:#0000ff;stroke:#000000;" x="425.164807681" xlink:href="#m2efc96e30c" y="206.41633153"/>
     <use style="fill:#0000ff;stroke:#000000;" x="431.203858807" xlink:href="#m2efc96e30c" y="209.990477254"/>
     <use style="fill:#0000ff;stroke:#000000;" x="271.005486888" xlink:href="#m2efc96e30c" y="135.586495104"/>
     <use style="fill:#0000ff;stroke:#000000;" x="484.632220554" xlink:href="#m2efc96e30c" y="303.908313487"/>
     <use style="fill:#0000ff;stroke:#000000;" x="477.449102223" xlink:href="#m2efc96e30c" y="278.74374551"/>
     <use style="fill:#0000ff;stroke:#000000;" x="480.372849353" xlink:href="#m2efc96e30c" y="287.474002647"/>
     <use style="fill:#0000ff;stroke:#000000;" x="410.61054049" xlink:href="#m2efc96e30c" y="194.869804612"/>
    </g>
   </g>
   <g id="patch_3">
    <path d="M 72 388.8 
L 518.4 388.8 
" style="fill:none;stroke:#000000;stroke-linecap:square;stroke-linejoin:miter;"/>
   </g>
   <g id="patch_4">
    <path d="M 518.4 388.8 
L 518.4 43.2 
" style="fill:none;stroke:#000000;stroke-linecap:square;stroke-linejoin:miter;"/>
   </g>
   <g id="patch_5">
    <path d="M 72 388.8 
L 72 43.2 
" style="fill:none;stroke:#000000;stroke-linecap:square;stroke-linejoin:miter;"/>
   </g>
   <g id="patch_6">
    <path d="M 72 43.2 
L 518.4 43.2 
" style="fill:none;stroke:#000000;stroke-linecap:square;stroke-linejoin:miter;"/>
   </g>
   <g id="matplotlib.axis_1">
    <g id="xtick_1">
     <g id="line2d_1">
      <defs>
       <path d="M 0 0 
L 0 -4 
" id="mf83993d9c9" style="stroke:#000000;stroke-width:0.5;"/>
      </defs>
      <g>
       <use style="stroke:#000000;stroke-width:0.5;" x="72.0" xlink:href="#mf83993d9c9" y="388.8"/>
      </g>
     </g>
     <g id="line2d_2">
      <defs>
       <path d="M 0 0 
L 0 4 
" id="m7b058f5cec" style="stroke:#000000;stroke-width:0.5;"/>
      </defs>
      <g>
       <use style="stroke:#000000;stroke-width:0.5;" x="72.0" xlink:href="#m7b058f5cec" y="43.2"/>
      </g>
     </g>
     <g id="text_1">
      <!-- −140 -->
      <defs>
       <path d="M 31.78125 66.40625 
Q 24.171875 66.40625 20.328125 58.90625 
Q 16.5 51.421875 16.5 36.375 
Q 16.5 21.390625 20.328125 13.890625 
Q 24.171875 6.390625 31.78125 6.390625 
Q 39.453125 6.390625 43.28125 13.890625 
Q 47.125 21.390625 47.125 36.375 
Q 47.125 51.421875 43.28125 58.90625 
Q 39.453125 66.40625 31.78125 66.40625 
M 31.78125 74.21875 
Q 44.046875 74.21875 50.515625 64.515625 
Q 56.984375 54.828125 56.984375 36.375 
Q 56.984375 17.96875 50.515625 8.265625 
Q 44.046875 -1.421875 31.78125 -1.421875 
Q 19.53125 -1.421875 13.0625 8.265625 
Q 6.59375 17.96875 6.59375 36.375 
Q 6.59375 54.828125 13.0625 64.515625 
Q 19.53125 74.21875 31.78125 74.21875 
" id="BitstreamVeraSans-Roman-30"/>
       <path d="M 10.59375 35.5 
L 73.1875 35.5 
L 73.1875 27.203125 
L 10.59375 27.203125 
z
" id="BitstreamVeraSans-Roman-2212"/>
       <path d="M 37.796875 64.3125 
L 12.890625 25.390625 
L 37.796875 25.390625 
z
M 35.203125 72.90625 
L 47.609375 72.90625 
L 47.609375 25.390625 
L 58.015625 25.390625 
L 58.015625 17.1875 
L 47.609375 17.1875 
L 47.609375 0 
L 37.796875 0 
L 37.796875 17.1875 
L 4.890625 17.1875 
L 4.890625 26.703125 
z
" id="BitstreamVeraSans-Roman-34"/>
       <path d="M 12.40625 8.296875 
L 28.515625 8.296875 
L 28.515625 63.921875 
L 10.984375 60.40625 
L 10.984375 69.390625 
L 28.421875 72.90625 
L 38.28125 72.90625 
L 38.28125 8.296875 
L 54.390625 8.296875 
L 54.390625 0 
L 12.40625 0 
z
" id="BitstreamVeraSans-Roman-31"/>
      </defs>
      <g transform="translate(55.5196875 401.918125)scale(0.12 -0.12)">
       <use xlink:href="#BitstreamVeraSans-Roman-2212"/>
       <use x="83.7890625" xlink:href="#BitstreamVeraSans-Roman-31"/>
       <use x="147.412109375" xlink:href="#BitstreamVeraSans-Roman-34"/>
       <use x="211.03515625" xlink:href="#BitstreamVeraSans-Roman-30"/>
      </g>
     </g>
    </g>
    <g id="xtick_2">
     <g id="line2d_3">
      <g>
       <use style="stroke:#000000;stroke-width:0.5;" x="131.52" xlink:href="#mf83993d9c9" y="388.8"/>
      </g>
     </g>
     <g id="line2d_4">
      <g>
       <use style="stroke:#000000;stroke-width:0.5;" x="131.52" xlink:href="#m7b058f5cec" y="43.2"/>
      </g>
     </g>
     <g id="text_2">
      <!-- −120 -->
      <defs>
       <path d="M 19.1875 8.296875 
L 53.609375 8.296875 
L 53.609375 0 
L 7.328125 0 
L 7.328125 8.296875 
Q 12.9375 14.109375 22.625 23.890625 
Q 32.328125 33.6875 34.8125 36.53125 
Q 39.546875 41.84375 41.421875 45.53125 
Q 43.3125 49.21875 43.3125 52.78125 
Q 43.3125 58.59375 39.234375 62.25 
Q 35.15625 65.921875 28.609375 65.921875 
Q 23.96875 65.921875 18.8125 64.3125 
Q 13.671875 62.703125 7.8125 59.421875 
L 7.8125 69.390625 
Q 13.765625 71.78125 18.9375 73 
Q 24.125 74.21875 28.421875 74.21875 
Q 39.75 74.21875 46.484375 68.546875 
Q 53.21875 62.890625 53.21875 53.421875 
Q 53.21875 48.921875 51.53125 44.890625 
Q 49.859375 40.875 45.40625 35.40625 
Q 44.1875 33.984375 37.640625 27.21875 
Q 31.109375 20.453125 19.1875 8.296875 
" id="BitstreamVeraSans-Roman-32"/>
      </defs>
      <g transform="translate(115.0396875 401.918125)scale(0.12 -0.12)">
       <use xlink:href="#BitstreamVeraSans-Roman-2212"/>
       <use x="83.7890625" xlink:href="#BitstreamVeraSans-Roman-31"/>
       <use x="147.412109375" xlink:href="#BitstreamVeraSans-Roman-32"/>
       <use x="211.03515625" xlink:href="#BitstreamVeraSans-Roman-30"/>
      </g>
     </g>
    </g>
    <g id="xtick_3">
     <g id="line2d_5">
      <g>
       <use style="stroke:#000000;stroke-width:0.5;" x="191.04" xlink:href="#mf83993d9c9" y="388.8"/>
      </g>
     </g>
     <g id="line2d_6">
      <g>
       <use style="stroke:#000000;stroke-width:0.5;" x="191.04" xlink:href="#m7b058f5cec" y="43.2"/>
      </g>
     </g>
     <g id="text_3">
      <!-- −100 -->
      <g transform="translate(174.5596875 401.918125)scale(0.12 -0.12)">
       <use xlink:href="#BitstreamVeraSans-Roman-2212"/>
       <use x="83.7890625" xlink:href="#BitstreamVeraSans-Roman-31"/>
       <use x="147.412109375" xlink:href="#BitstreamVeraSans-Roman-30"/>
       <use x="211.03515625" xlink:href="#BitstreamVeraSans-Roman-30"/>
      </g>
     </g>
    </g>
    <g id="xtick_4">
     <g id="line2d_7">
      <g>
       <use style="stroke:#000000;stroke-width:0.5;" x="250.56" xlink:href="#mf83993d9c9" y="388.8"/>
      </g>
     </g>
     <g id="line2d_8">
      <g>
       <use style="stroke:#000000;stroke-width:0.5;" x="250.56" xlink:href="#m7b058f5cec" y="43.2"/>
      </g>
     </g>
     <g id="text_4">
      <!-- −80 -->
      <defs>
       <path d="M 31.78125 34.625 
Q 24.75 34.625 20.71875 30.859375 
Q 16.703125 27.09375 16.703125 20.515625 
Q 16.703125 13.921875 20.71875 10.15625 
Q 24.75 6.390625 31.78125 6.390625 
Q 38.8125 6.390625 42.859375 10.171875 
Q 46.921875 13.96875 46.921875 20.515625 
Q 46.921875 27.09375 42.890625 30.859375 
Q 38.875 34.625 31.78125 34.625 
M 21.921875 38.8125 
Q 15.578125 40.375 12.03125 44.71875 
Q 8.5 49.078125 8.5 55.328125 
Q 8.5 64.0625 14.71875 69.140625 
Q 20.953125 74.21875 31.78125 74.21875 
Q 42.671875 74.21875 48.875 69.140625 
Q 55.078125 64.0625 55.078125 55.328125 
Q 55.078125 49.078125 51.53125 44.71875 
Q 48 40.375 41.703125 38.8125 
Q 48.828125 37.15625 52.796875 32.3125 
Q 56.78125 27.484375 56.78125 20.515625 
Q 56.78125 9.90625 50.3125 4.234375 
Q 43.84375 -1.421875 31.78125 -1.421875 
Q 19.734375 -1.421875 13.25 4.234375 
Q 6.78125 9.90625 6.78125 20.515625 
Q 6.78125 27.484375 10.78125 32.3125 
Q 14.796875 37.15625 21.921875 38.8125 
M 18.3125 54.390625 
Q 18.3125 48.734375 21.84375 45.5625 
Q 25.390625 42.390625 31.78125 42.390625 
Q 38.140625 42.390625 41.71875 45.5625 
Q 45.3125 48.734375 45.3125 54.390625 
Q 45.3125 60.0625 41.71875 63.234375 
Q 38.140625 66.40625 31.78125 66.40625 
Q 25.390625 66.40625 21.84375 63.234375 
Q 18.3125 60.0625 18.3125 54.390625 
" id="BitstreamVeraSans-Roman-38"/>
      </defs>
      <g transform="translate(237.8971875 401.918125)scale(0.12 -0.12)">
       <use xlink:href="#BitstreamVeraSans-Roman-2212"/>
       <use x="83.7890625" xlink:href="#BitstreamVeraSans-Roman-38"/>
       <use x="147.412109375" xlink:href="#BitstreamVeraSans-Roman-30"/>
      </g>
     </g>
    </g>
    <g id="xtick_5">
     <g id="line2d_9">
      <g>
       <use style="stroke:#000000;stroke-width:0.5;" x="310.08" xlink:href="#mf83993d9c9" y="388.8"/>
      </g>
     </g>
     <g id="line2d_10">
      <g>
       <use style="stroke:#000000;stroke-width:0.5;" x="310.08" xlink:href="#m7b058f5cec" y="43.2"/>
      </g>
     </g>
     <g id="text_5">
      <!-- −60 -->
      <defs>
       <path d="M 33.015625 40.375 
Q 26.375 40.375 22.484375 35.828125 
Q 18.609375 31.296875 18.609375 23.390625 
Q 18.609375 15.53125 22.484375 10.953125 
Q 26.375 6.390625 33.015625 6.390625 
Q 39.65625 6.390625 43.53125 10.953125 
Q 47.40625 15.53125 47.40625 23.390625 
Q 47.40625 31.296875 43.53125 35.828125 
Q 39.65625 40.375 33.015625 40.375 
M 52.59375 71.296875 
L 52.59375 62.3125 
Q 48.875 64.0625 45.09375 64.984375 
Q 41.3125 65.921875 37.59375 65.921875 
Q 27.828125 65.921875 22.671875 59.328125 
Q 17.53125 52.734375 16.796875 39.40625 
Q 19.671875 43.65625 24.015625 45.921875 
Q 28.375 48.1875 33.59375 48.1875 
Q 44.578125 48.1875 50.953125 41.515625 
Q 57.328125 34.859375 57.328125 23.390625 
Q 57.328125 12.15625 50.6875 5.359375 
Q 44.046875 -1.421875 33.015625 -1.421875 
Q 20.359375 -1.421875 13.671875 8.265625 
Q 6.984375 17.96875 6.984375 36.375 
Q 6.984375 53.65625 15.1875 63.9375 
Q 23.390625 74.21875 37.203125 74.21875 
Q 40.921875 74.21875 44.703125 73.484375 
Q 48.484375 72.75 52.59375 71.296875 
" id="BitstreamVeraSans-Roman-36"/>
      </defs>
      <g transform="translate(297.4171875 401.918125)scale(0.12 -0.12)">
       <use xlink:href="#BitstreamVeraSans-Roman-2212"/>
       <use x="83.7890625" xlink:href="#BitstreamVeraSans-Roman-36"/>
       <use x="147.412109375" xlink:href="#BitstreamVeraSans-Roman-30"/>
      </g>
     </g>
    </g>
    <g id="xtick_6">
     <g id="line2d_11">
      <g>
       <use style="stroke:#000000;stroke-width:0.5;" x="369.6" xlink:href="#mf83993d9c9" y="388.8"/>
      </g>
     </g>
     <g id="line2d_12">
      <g>
       <use style="stroke:#000000;stroke-width:0.5;" x="369.6" xlink:href="#m7b058f5cec" y="43.2"/>
      </g>
     </g>
     <g id="text_6">
      <!-- −40 -->
      <g transform="translate(356.9371875 401.918125)scale(0.12 -0.12)">
       <use xlink:href="#BitstreamVeraSans-Roman-2212"/>
       <use x="83.7890625" xlink:href="#BitstreamVeraSans-Roman-34"/>
       <use x="147.412109375" xlink:href="#BitstreamVeraSans-Roman-30"/>
      </g>
     </g>
    </g>
    <g id="xtick_7">
     <g id="line2d_13">
      <g>
       <use style="stroke:#000000;stroke-width:0.5;" x="429.12" xlink:href="#mf83993d9c9" y="388.8"/>
      </g>
     </g>
     <g id="line2d_14">
      <g>
       <use style="stroke:#000000;stroke-width:0.5;" x="429.12" xlink:href="#m7b058f5cec" y="43.2"/>
      </g>
     </g>
     <g id="text_7">
      <!-- −20 -->
      <g transform="translate(416.4571875 401.918125)scale(0.12 -0.12)">
       <use xlink:href="#BitstreamVeraSans-Roman-2212"/>
       <use x="83.7890625" xlink:href="#BitstreamVeraSans-Roman-32"/>
       <use x="147.412109375" xlink:href="#BitstreamVeraSans-Roman-30"/>
      </g>
     </g>
    </g>
    <g id="xtick_8">
     <g id="line2d_15">
      <g>
       <use style="stroke:#000000;stroke-width:0.5;" x="488.64" xlink:href="#mf83993d9c9" y="388.8"/>
      </g>
     </g>
     <g id="line2d_16">
      <g>
       <use style="stroke:#000000;stroke-width:0.5;" x="488.64" xlink:href="#m7b058f5cec" y="43.2"/>
      </g>
     </g>
     <g id="text_8">
      <!-- 0 -->
      <g transform="translate(484.8225 401.918125)scale(0.12 -0.12)">
       <use xlink:href="#BitstreamVeraSans-Roman-30"/>
      </g>
     </g>
    </g>
   </g>
   <g id="matplotlib.axis_2">
    <g id="ytick_1">
     <g id="line2d_17">
      <defs>
       <path d="M 0 0 
L 4 0 
" id="m37d7398570" style="stroke:#000000;stroke-width:0.5;"/>
      </defs>
      <g>
       <use style="stroke:#000000;stroke-width:0.5;" x="72.0" xlink:href="#m37d7398570" y="388.8"/>
      </g>
     </g>
     <g id="line2d_18">
      <defs>
       <path d="M 0 0 
L -4 0 
" id="m2ee9379ffe" style="stroke:#000000;stroke-width:0.5;"/>
      </defs>
      <g>
       <use style="stroke:#000000;stroke-width:0.5;" x="518.4" xlink:href="#m2ee9379ffe" y="388.8"/>
      </g>
     </g>
     <g id="text_9">
      <!-- −60 -->
      <g transform="translate(42.674375 392.11125)scale(0.12 -0.12)">
       <use xlink:href="#BitstreamVeraSans-Roman-2212"/>
       <use x="83.7890625" xlink:href="#BitstreamVeraSans-Roman-36"/>
       <use x="147.412109375" xlink:href="#BitstreamVeraSans-Roman-30"/>
      </g>
     </g>
    </g>
    <g id="ytick_2">
     <g id="line2d_19">
      <g>
       <use style="stroke:#000000;stroke-width:0.5;" x="72.0" xlink:href="#m37d7398570" y="339.428571429"/>
      </g>
     </g>
     <g id="line2d_20">
      <g>
       <use style="stroke:#000000;stroke-width:0.5;" x="518.4" xlink:href="#m2ee9379ffe" y="339.428571429"/>
      </g>
     </g>
     <g id="text_10">
      <!-- −50 -->
      <defs>
       <path d="M 10.796875 72.90625 
L 49.515625 72.90625 
L 49.515625 64.59375 
L 19.828125 64.59375 
L 19.828125 46.734375 
Q 21.96875 47.46875 24.109375 47.828125 
Q 26.265625 48.1875 28.421875 48.1875 
Q 40.625 48.1875 47.75 41.5 
Q 54.890625 34.8125 54.890625 23.390625 
Q 54.890625 11.625 47.5625 5.09375 
Q 40.234375 -1.421875 26.90625 -1.421875 
Q 22.3125 -1.421875 17.546875 -0.640625 
Q 12.796875 0.140625 7.71875 1.703125 
L 7.71875 11.625 
Q 12.109375 9.234375 16.796875 8.0625 
Q 21.484375 6.890625 26.703125 6.890625 
Q 35.15625 6.890625 40.078125 11.328125 
Q 45.015625 15.765625 45.015625 23.390625 
Q 45.015625 31 40.078125 35.4375 
Q 35.15625 39.890625 26.703125 39.890625 
Q 22.75 39.890625 18.8125 39.015625 
Q 14.890625 38.140625 10.796875 36.28125 
z
" id="BitstreamVeraSans-Roman-35"/>
      </defs>
      <g transform="translate(42.674375 342.739821429)scale(0.12 -0.12)">
       <use xlink:href="#BitstreamVeraSans-Roman-2212"/>
       <use x="83.7890625" xlink:href="#BitstreamVeraSans-Roman-35"/>
       <use x="147.412109375" xlink:href="#BitstreamVeraSans-Roman-30"/>
      </g>
     </g>
    </g>
    <g id="ytick_3">
     <g id="line2d_21">
      <g>
       <use style="stroke:#000000;stroke-width:0.5;" x="72.0" xlink:href="#m37d7398570" y="290.057142857"/>
      </g>
     </g>
     <g id="line2d_22">
      <g>
       <use style="stroke:#000000;stroke-width:0.5;" x="518.4" xlink:href="#m2ee9379ffe" y="290.057142857"/>
      </g>
     </g>
     <g id="text_11">
      <!-- −40 -->
      <g transform="translate(42.674375 293.368392857)scale(0.12 -0.12)">
       <use xlink:href="#BitstreamVeraSans-Roman-2212"/>
       <use x="83.7890625" xlink:href="#BitstreamVeraSans-Roman-34"/>
       <use x="147.412109375" xlink:href="#BitstreamVeraSans-Roman-30"/>
      </g>
     </g>
    </g>
    <g id="ytick_4">
     <g id="line2d_23">
      <g>
       <use style="stroke:#000000;stroke-width:0.5;" x="72.0" xlink:href="#m37d7398570" y="240.685714286"/>
      </g>
     </g>
     <g id="line2d_24">
      <g>
       <use style="stroke:#000000;stroke-width:0.5;" x="518.4" xlink:href="#m2ee9379ffe" y="240.685714286"/>
      </g>
     </g>
     <g id="text_12">
      <!-- −30 -->
      <defs>
       <path d="M 40.578125 39.3125 
Q 47.65625 37.796875 51.625 33 
Q 55.609375 28.21875 55.609375 21.1875 
Q 55.609375 10.40625 48.1875 4.484375 
Q 40.765625 -1.421875 27.09375 -1.421875 
Q 22.515625 -1.421875 17.65625 -0.515625 
Q 12.796875 0.390625 7.625 2.203125 
L 7.625 11.71875 
Q 11.71875 9.328125 16.59375 8.109375 
Q 21.484375 6.890625 26.8125 6.890625 
Q 36.078125 6.890625 40.9375 10.546875 
Q 45.796875 14.203125 45.796875 21.1875 
Q 45.796875 27.640625 41.28125 31.265625 
Q 36.765625 34.90625 28.71875 34.90625 
L 20.21875 34.90625 
L 20.21875 43.015625 
L 29.109375 43.015625 
Q 36.375 43.015625 40.234375 45.921875 
Q 44.09375 48.828125 44.09375 54.296875 
Q 44.09375 59.90625 40.109375 62.90625 
Q 36.140625 65.921875 28.71875 65.921875 
Q 24.65625 65.921875 20.015625 65.03125 
Q 15.375 64.15625 9.8125 62.3125 
L 9.8125 71.09375 
Q 15.4375 72.65625 20.34375 73.4375 
Q 25.25 74.21875 29.59375 74.21875 
Q 40.828125 74.21875 47.359375 69.109375 
Q 53.90625 64.015625 53.90625 55.328125 
Q 53.90625 49.265625 50.4375 45.09375 
Q 46.96875 40.921875 40.578125 39.3125 
" id="BitstreamVeraSans-Roman-33"/>
      </defs>
      <g transform="translate(42.674375 243.996964286)scale(0.12 -0.12)">
       <use xlink:href="#BitstreamVeraSans-Roman-2212"/>
       <use x="83.7890625" xlink:href="#BitstreamVeraSans-Roman-33"/>
       <use x="147.412109375" xlink:href="#BitstreamVeraSans-Roman-30"/>
      </g>
     </g>
    </g>
    <g id="ytick_5">
     <g id="line2d_25">
      <g>
       <use style="stroke:#000000;stroke-width:0.5;" x="72.0" xlink:href="#m37d7398570" y="191.314285714"/>
      </g>
     </g>
     <g id="line2d_26">
      <g>
       <use style="stroke:#000000;stroke-width:0.5;" x="518.4" xlink:href="#m2ee9379ffe" y="191.314285714"/>
      </g>
     </g>
     <g id="text_13">
      <!-- −20 -->
      <g transform="translate(42.674375 194.625535714)scale(0.12 -0.12)">
       <use xlink:href="#BitstreamVeraSans-Roman-2212"/>
       <use x="83.7890625" xlink:href="#BitstreamVeraSans-Roman-32"/>
       <use x="147.412109375" xlink:href="#BitstreamVeraSans-Roman-30"/>
      </g>
     </g>
    </g>
    <g id="ytick_6">
     <g id="line2d_27">
      <g>
       <use style="stroke:#000000;stroke-width:0.5;" x="72.0" xlink:href="#m37d7398570" y="141.942857143"/>
      </g>
     </g>
     <g id="line2d_28">
      <g>
       <use style="stroke:#000000;stroke-width:0.5;" x="518.4" xlink:href="#m2ee9379ffe" y="141.942857143"/>
      </g>
     </g>
     <g id="text_14">
      <!-- −10 -->
      <g transform="translate(42.674375 145.254107143)scale(0.12 -0.12)">
       <use xlink:href="#BitstreamVeraSans-Roman-2212"/>
       <use x="83.7890625" xlink:href="#BitstreamVeraSans-Roman-31"/>
       <use x="147.412109375" xlink:href="#BitstreamVeraSans-Roman-30"/>
      </g>
     </g>
    </g>
    <g id="ytick_7">
     <g id="line2d_29">
      <g>
       <use style="stroke:#000000;stroke-width:0.5;" x="72.0" xlink:href="#m37d7398570" y="92.5714285714"/>
      </g>
     </g>
     <g id="line2d_30">
      <g>
       <use style="stroke:#000000;stroke-width:0.5;" x="518.4" xlink:href="#m2ee9379ffe" y="92.5714285714"/>
      </g>
     </g>
     <g id="text_15">
      <!-- 0 -->
      <g transform="translate(60.365 95.8826785714)scale(0.12 -0.12)">
       <use xlink:href="#BitstreamVeraSans-Roman-30"/>
      </g>
     </g>
    </g>
    <g id="ytick_8">
     <g id="line2d_31">
      <g>
       <use style="stroke:#000000;stroke-width:0.5;" x="72.0" xlink:href="#m37d7398570" y="43.2"/>
      </g>
     </g>
     <g id="line2d_32">
      <g>
       <use style="stroke:#000000;stroke-width:0.5;" x="518.4" xlink:href="#m2ee9379ffe" y="43.2"/>
      </g>
     </g>
     <g id="text_16">
      <!-- 10 -->
      <g transform="translate(52.73 46.51125)scale(0.12 -0.12)">
       <use xlink:href="#BitstreamVeraSans-Roman-31"/>
       <use x="63.623046875" xlink:href="#BitstreamVeraSans-Roman-30"/>
      </g>
     </g>
    </g>
   </g>
  </g>
 </g>
 <defs>
  <clipPath id="pbd2d523a04">
   <rect height="345.6" width="446.4" x="72.0" y="43.2"/>
  </clipPath>
 </defs>
</svg>
