<?xml version="1.0" encoding="utf-8" standalone="no"?>
<!DOCTYPE svg PUBLIC "-//W3C//DTD SVG 1.1//EN"
  "http://www.w3.org/Graphics/SVG/1.1/DTD/svg11.dtd">
<!-- Created with matplotlib (http://matplotlib.org/) -->
<svg height="345.6pt" version="1.1" viewBox="0 0 460.8 345.6" width="460.8pt" xmlns="http://www.w3.org/2000/svg" xmlns:xlink="http://www.w3.org/1999/xlink">
 <defs>
  <style type="text/css">
*{stroke-linecap:butt;stroke-linejoin:round;}
  </style>
 </defs>
 <g id="figure_1">
  <g id="patch_1">
   <path d="M 0 345.6 
L 460.8 345.6 
L 460.8 0 
L 0 0 
z
" style="fill:#ffffff;"/>
  </g>
  <g id="axes_1">
   <g id="patch_2">
    <path d="M 57.6 307.584 
L 414.72 307.584 
L 414.72 41.472 
L 57.6 41.472 
z
" style="fill:#ffffff;"/>
   </g>
   <g id="PathCollection_1">
    <defs>
     <path d="M 0 0.707107 
C 0.187527 0.707107 0.367398 0.632602 0.5 0.5 
C 0.632602 0.367398 0.707107 0.187527 0.707107 0 
C 0.707107 -0.187527 0.632602 -0.367398 0.5 -0.5 
C 0.367398 -0.632602 0.187527 -0.707107 0 -0.707107 
C -0.187527 -0.707107 -0.367398 -0.632602 -0.5 -0.5 
C -0.632602 -0.367398 -0.707107 -0.187527 -0.707107 0 
C -0.707107 0.187527 -0.632602 0.367398 -0.5 0.5 
C -0.367398 0.632602 -0.187527 0.707107 0 0.707107 
z
" id="mca916e9d8d" style="stroke:#000000;"/>
    </defs>
    <g clip-path="url(#p11bcc73dad)">
     <use style="stroke:#000000;" x="328.281119" xlink:href="#mca916e9d8d" y="181.766948"/>
     <use style="stroke:#000000;" x="386.50776" xlink:href="#mca916e9d8d" y="232.458486"/>
     <use style="stroke:#000000;" x="385.004367" xlink:href="#mca916e9d8d" y="229.029296"/>
     <use style="stroke:#000000;" x="324.071509" xlink:href="#mca916e9d8d" y="174.642133"/>
     <use style="stroke:#000000;" x="336.689505" xlink:href="#mca916e9d8d" y="193.767839"/>
     <use style="stroke:#000000;" x="372.69629" xlink:href="#mca916e9d8d" y="208.911703"/>
     <use style="stroke:#000000;" x="339.195502" xlink:href="#mca916e9d8d" y="196.241732"/>
     <use style="stroke:#000000;" x="327.620774" xlink:href="#mca916e9d8d" y="179.358127"/>
     <use style="stroke:#000000;" x="382.842883" xlink:href="#mca916e9d8d" y="222.046365"/>
     <use style="stroke:#000000;" x="374.834369" xlink:href="#mca916e9d8d" y="213.479591"/>
     <use style="stroke:#000000;" x="335.364831" xlink:href="#mca916e9d8d" y="191.561269"/>
     <use style="stroke:#000000;" x="323.44536" xlink:href="#mca916e9d8d" y="172.539811"/>
     <use style="stroke:#000000;" x="367.911525" xlink:href="#mca916e9d8d" y="205.204473"/>
     <use style="stroke:#000000;" x="317.944162" xlink:href="#mca916e9d8d" y="166.613336"/>
     <use style="stroke:#000000;" x="270.057123" xlink:href="#mca916e9d8d" y="150.491776"/>
     <use style="stroke:#000000;" x="377.993319" xlink:href="#mca916e9d8d" y="216.13139"/>
     <use style="stroke:#000000;" x="327.215095" xlink:href="#mca916e9d8d" y="179.217623"/>
     <use style="stroke:#000000;" x="361.468568" xlink:href="#mca916e9d8d" y="201.74941"/>
     <use style="stroke:#000000;" x="375.481632" xlink:href="#mca916e9d8d" y="213.564603"/>
     <use style="stroke:#000000;" x="377.684254" xlink:href="#mca916e9d8d" y="215.777146"/>
     <use style="stroke:#000000;" x="213.750658" xlink:href="#mca916e9d8d" y="134.237629"/>
     <use style="stroke:#000000;" x="330.160985" xlink:href="#mca916e9d8d" y="186.342708"/>
     <use style="stroke:#000000;" x="361.637137" xlink:href="#mca916e9d8d" y="202.137812"/>
     <use style="stroke:#000000;" x="324.488626" xlink:href="#mca916e9d8d" y="174.875273"/>
     <use style="stroke:#000000;" x="380.378243" xlink:href="#mca916e9d8d" y="220.012978"/>
     <use style="stroke:#000000;" x="360.605419" xlink:href="#mca916e9d8d" y="201.727068"/>
     <use style="stroke:#000000;" x="260.3826" xlink:href="#mca916e9d8d" y="138.966349"/>
     <use style="stroke:#000000;" x="338.693369" xlink:href="#mca916e9d8d" y="195.639556"/>
     <use style="stroke:#000000;" x="380.027555" xlink:href="#mca916e9d8d" y="218.769899"/>
     <use style="stroke:#000000;" x="384.556938" xlink:href="#mca916e9d8d" y="225.262814"/>
     <use style="stroke:#000000;" x="324.213289" xlink:href="#mca916e9d8d" y="174.776439"/>
     <use style="stroke:#000000;" x="370.7185" xlink:href="#mca916e9d8d" y="206.975927"/>
     <use style="stroke:#000000;" x="334.6998" xlink:href="#mca916e9d8d" y="190.566286"/>
     <use style="stroke:#000000;" x="328.993089" xlink:href="#mca916e9d8d" y="182.009261"/>
     <use style="stroke:#000000;" x="266.628174" xlink:href="#mca916e9d8d" y="141.286727"/>
     <use style="stroke:#000000;" x="212.348442" xlink:href="#mca916e9d8d" y="127.369656"/>
     <use style="stroke:#000000;" x="362.424192" xlink:href="#mca916e9d8d" y="202.279682"/>
     <use style="stroke:#000000;" x="380.355961" xlink:href="#mca916e9d8d" y="219.3158"/>
     <use style="stroke:#000000;" x="378.44168" xlink:href="#mca916e9d8d" y="217.284644"/>
     <use style="stroke:#000000;" x="379.286165" xlink:href="#mca916e9d8d" y="217.449288"/>
     <use style="stroke:#000000;" x="205.62426" xlink:href="#mca916e9d8d" y="120.478721"/>
     <use style="stroke:#000000;" x="364.39382" xlink:href="#mca916e9d8d" y="202.731901"/>
     <use style="stroke:#000000;" x="372.302278" xlink:href="#mca916e9d8d" y="208.558618"/>
     <use style="stroke:#000000;" x="331.203768" xlink:href="#mca916e9d8d" y="187.224179"/>
     <use style="stroke:#000000;" x="338.11186" xlink:href="#mca916e9d8d" y="194.851164"/>
     <use style="stroke:#000000;" x="373.638333" xlink:href="#mca916e9d8d" y="209.88783"/>
     <use style="stroke:#000000;" x="268.375553" xlink:href="#mca916e9d8d" y="146.515168"/>
     <use style="stroke:#000000;" x="387.249231" xlink:href="#mca916e9d8d" y="236.54428"/>
     <use style="stroke:#000000;" x="322.137189" xlink:href="#mca916e9d8d" y="170.395836"/>
     <use style="stroke:#000000;" x="332.913525" xlink:href="#mca916e9d8d" y="187.720236"/>
     <use style="stroke:#000000;" x="380.688687" xlink:href="#mca916e9d8d" y="220.03593"/>
     <use style="stroke:#000000;" x="326.475377" xlink:href="#mca916e9d8d" y="177.456267"/>
     <use style="stroke:#000000;" x="385.097365" xlink:href="#mca916e9d8d" y="231.372662"/>
     <use style="stroke:#000000;" x="333.840641" xlink:href="#mca916e9d8d" y="189.248803"/>
     <use style="stroke:#000000;" x="328.003976" xlink:href="#mca916e9d8d" y="181.145449"/>
     <use style="stroke:#000000;" x="276.144142" xlink:href="#mca916e9d8d" y="163.674383"/>
     <use style="stroke:#000000;" x="373.653436" xlink:href="#mca916e9d8d" y="211.825097"/>
     <use style="stroke:#000000;" x="336.380108" xlink:href="#mca916e9d8d" y="192.258301"/>
     <use style="stroke:#000000;" x="320.634748" xlink:href="#mca916e9d8d" y="168.924644"/>
     <use style="stroke:#000000;" x="328.224465" xlink:href="#mca916e9d8d" y="181.395595"/>
     <use style="stroke:#000000;" x="326.834688" xlink:href="#mca916e9d8d" y="180.465774"/>
     <use style="stroke:#000000;" x="387.249231" xlink:href="#mca916e9d8d" y="238.18592"/>
     <use style="stroke:#000000;" x="383.540123" xlink:href="#mca916e9d8d" y="226.986148"/>
     <use style="stroke:#000000;" x="330.487899" xlink:href="#mca916e9d8d" y="184.787749"/>
     <use style="stroke:#000000;" x="335.228645" xlink:href="#mca916e9d8d" y="192.905674"/>
     <use style="stroke:#000000;" x="379.130588" xlink:href="#mca916e9d8d" y="217.218508"/>
     <use style="stroke:#000000;" x="337.73767" xlink:href="#mca916e9d8d" y="195.44302"/>
     <use style="stroke:#000000;" x="333.970983" xlink:href="#mca916e9d8d" y="190.270177"/>
     <use style="stroke:#000000;" x="380.192069" xlink:href="#mca916e9d8d" y="217.820604"/>
     <use style="stroke:#000000;" x="374.733756" xlink:href="#mca916e9d8d" y="215.088134"/>
     <use style="stroke:#000000;" x="332.776177" xlink:href="#mca916e9d8d" y="187.01958"/>
     <use style="stroke:#000000;" x="323.34327" xlink:href="#mca916e9d8d" y="174.087972"/>
     <use style="stroke:#000000;" x="365.321914" xlink:href="#mca916e9d8d" y="203.952656"/>
     <use style="stroke:#000000;" x="317.841382" xlink:href="#mca916e9d8d" y="168.248047"/>
     <use style="stroke:#000000;" x="267.463688" xlink:href="#mca916e9d8d" y="144.572547"/>
     <use style="stroke:#000000;" x="377.890157" xlink:href="#mca916e9d8d" y="217.876526"/>
     <use style="stroke:#000000;" x="321.346935" xlink:href="#mca916e9d8d" y="173.746666"/>
     <use style="stroke:#000000;" x="359.792744" xlink:href="#mca916e9d8d" y="204.063305"/>
     <use style="stroke:#000000;" x="369.625" xlink:href="#mca916e9d8d" y="210.749518"/>
     <use style="stroke:#000000;" x="376.001454" xlink:href="#mca916e9d8d" y="215.981887"/>
     <use style="stroke:#000000;" x="207.640418" xlink:href="#mca916e9d8d" y="128.81647"/>
     <use style="stroke:#000000;" x="328.463039" xlink:href="#mca916e9d8d" y="185.394707"/>
     <use style="stroke:#000000;" x="352.095856" xlink:href="#mca916e9d8d" y="204.551426"/>
     <use style="stroke:#000000;" x="326.265872" xlink:href="#mca916e9d8d" y="179.098939"/>
     <use style="stroke:#000000;" x="370.631888" xlink:href="#mca916e9d8d" y="210.695694"/>
     <use style="stroke:#000000;" x="362.39196" xlink:href="#mca916e9d8d" y="203.986257"/>
     <use style="stroke:#000000;" x="254.117457" xlink:href="#mca916e9d8d" y="150.704545"/>
     <use style="stroke:#000000;" x="336.940418" xlink:href="#mca916e9d8d" y="195.516002"/>
     <use style="stroke:#000000;" x="384.34105" xlink:href="#mca916e9d8d" y="227.184517"/>
     <use style="stroke:#000000;" x="387.249231" xlink:href="#mca916e9d8d" y="236.598534"/>
    </g>
   </g>
   <g id="PathCollection_2">
    <defs>
     <path d="M 0 1.118034 
C 0.296506 1.118034 0.580908 1.000231 0.790569 0.790569 
C 1.000231 0.580908 1.118034 0.296506 1.118034 0 
C 1.118034 -0.296506 1.000231 -0.580908 0.790569 -0.790569 
C 0.580908 -1.000231 0.296506 -1.118034 0 -1.118034 
C -0.296506 -1.118034 -0.580908 -1.000231 -0.790569 -0.790569 
C -1.000231 -0.580908 -1.118034 -0.296506 -1.118034 0 
C -1.118034 0.296506 -1.000231 0.580908 -0.790569 0.790569 
C -0.580908 1.000231 -0.296506 1.118034 0 1.118034 
z
" id="mc5430ed972" style="stroke:#0000ff;"/>
    </defs>
    <g clip-path="url(#p11bcc73dad)">
     <use style="fill:#0000ff;stroke:#0000ff;" x="328.281119" xlink:href="#mc5430ed972" y="181.766948"/>
     <use style="fill:#0000ff;stroke:#0000ff;" x="386.50776" xlink:href="#mc5430ed972" y="232.458486"/>
     <use style="fill:#0000ff;stroke:#0000ff;" x="385.004367" xlink:href="#mc5430ed972" y="229.029296"/>
     <use style="fill:#0000ff;stroke:#0000ff;" x="324.071509" xlink:href="#mc5430ed972" y="174.642133"/>
     <use style="fill:#0000ff;stroke:#0000ff;" x="336.689505" xlink:href="#mc5430ed972" y="193.767839"/>
     <use style="fill:#0000ff;stroke:#0000ff;" x="372.69629" xlink:href="#mc5430ed972" y="208.911703"/>
     <use style="fill:#0000ff;stroke:#0000ff;" x="339.195502" xlink:href="#mc5430ed972" y="196.241732"/>
     <use style="fill:#0000ff;stroke:#0000ff;" x="327.620774" xlink:href="#mc5430ed972" y="179.358127"/>
     <use style="fill:#0000ff;stroke:#0000ff;" x="382.842883" xlink:href="#mc5430ed972" y="222.046365"/>
     <use style="fill:#0000ff;stroke:#0000ff;" x="374.834369" xlink:href="#mc5430ed972" y="213.479591"/>
     <use style="fill:#0000ff;stroke:#0000ff;" x="335.364831" xlink:href="#mc5430ed972" y="191.561269"/>
     <use style="fill:#0000ff;stroke:#0000ff;" x="323.44536" xlink:href="#mc5430ed972" y="172.539811"/>
     <use style="fill:#0000ff;stroke:#0000ff;" x="367.911525" xlink:href="#mc5430ed972" y="205.204473"/>
     <use style="fill:#0000ff;stroke:#0000ff;" x="317.944162" xlink:href="#mc5430ed972" y="166.613336"/>
     <use style="fill:#0000ff;stroke:#0000ff;" x="270.057123" xlink:href="#mc5430ed972" y="150.491776"/>
     <use style="fill:#0000ff;stroke:#0000ff;" x="377.993319" xlink:href="#mc5430ed972" y="216.13139"/>
     <use style="fill:#0000ff;stroke:#0000ff;" x="327.215095" xlink:href="#mc5430ed972" y="179.217623"/>
     <use style="fill:#0000ff;stroke:#0000ff;" x="361.468568" xlink:href="#mc5430ed972" y="201.74941"/>
     <use style="fill:#0000ff;stroke:#0000ff;" x="375.481632" xlink:href="#mc5430ed972" y="213.564603"/>
     <use style="fill:#0000ff;stroke:#0000ff;" x="377.684254" xlink:href="#mc5430ed972" y="215.777146"/>
     <use style="fill:#0000ff;stroke:#0000ff;" x="213.750658" xlink:href="#mc5430ed972" y="134.237629"/>
     <use style="fill:#0000ff;stroke:#0000ff;" x="330.160985" xlink:href="#mc5430ed972" y="186.342708"/>
     <use style="fill:#0000ff;stroke:#0000ff;" x="361.637137" xlink:href="#mc5430ed972" y="202.137812"/>
     <use style="fill:#0000ff;stroke:#0000ff;" x="324.488626" xlink:href="#mc5430ed972" y="174.875273"/>
     <use style="fill:#0000ff;stroke:#0000ff;" x="380.378243" xlink:href="#mc5430ed972" y="220.012978"/>
     <use style="fill:#0000ff;stroke:#0000ff;" x="360.605419" xlink:href="#mc5430ed972" y="201.727068"/>
     <use style="fill:#0000ff;stroke:#0000ff;" x="260.3826" xlink:href="#mc5430ed972" y="138.966349"/>
     <use style="fill:#0000ff;stroke:#0000ff;" x="338.693369" xlink:href="#mc5430ed972" y="195.639556"/>
     <use style="fill:#0000ff;stroke:#0000ff;" x="380.027555" xlink:href="#mc5430ed972" y="218.769899"/>
     <use style="fill:#0000ff;stroke:#0000ff;" x="384.556938" xlink:href="#mc5430ed972" y="225.262814"/>
     <use style="fill:#0000ff;stroke:#0000ff;" x="324.213289" xlink:href="#mc5430ed972" y="174.776439"/>
     <use style="fill:#0000ff;stroke:#0000ff;" x="370.7185" xlink:href="#mc5430ed972" y="206.975927"/>
     <use style="fill:#0000ff;stroke:#0000ff;" x="334.6998" xlink:href="#mc5430ed972" y="190.566286"/>
     <use style="fill:#0000ff;stroke:#0000ff;" x="328.993089" xlink:href="#mc5430ed972" y="182.009261"/>
     <use style="fill:#0000ff;stroke:#0000ff;" x="266.628174" xlink:href="#mc5430ed972" y="141.286727"/>
     <use style="fill:#0000ff;stroke:#0000ff;" x="212.348442" xlink:href="#mc5430ed972" y="127.369656"/>
     <use style="fill:#0000ff;stroke:#0000ff;" x="362.424192" xlink:href="#mc5430ed972" y="202.279682"/>
     <use style="fill:#0000ff;stroke:#0000ff;" x="380.355961" xlink:href="#mc5430ed972" y="219.3158"/>
     <use style="fill:#0000ff;stroke:#0000ff;" x="378.44168" xlink:href="#mc5430ed972" y="217.284644"/>
     <use style="fill:#0000ff;stroke:#0000ff;" x="379.286165" xlink:href="#mc5430ed972" y="217.449288"/>
     <use style="fill:#0000ff;stroke:#0000ff;" x="205.62426" xlink:href="#mc5430ed972" y="120.478721"/>
     <use style="fill:#0000ff;stroke:#0000ff;" x="364.39382" xlink:href="#mc5430ed972" y="202.731901"/>
     <use style="fill:#0000ff;stroke:#0000ff;" x="372.302278" xlink:href="#mc5430ed972" y="208.558618"/>
     <use style="fill:#0000ff;stroke:#0000ff;" x="331.203768" xlink:href="#mc5430ed972" y="187.224179"/>
     <use style="fill:#0000ff;stroke:#0000ff;" x="338.11186" xlink:href="#mc5430ed972" y="194.851164"/>
     <use style="fill:#0000ff;stroke:#0000ff;" x="373.638333" xlink:href="#mc5430ed972" y="209.88783"/>
     <use style="fill:#0000ff;stroke:#0000ff;" x="268.375553" xlink:href="#mc5430ed972" y="146.515168"/>
     <use style="fill:#0000ff;stroke:#0000ff;" x="387.249231" xlink:href="#mc5430ed972" y="236.54428"/>
     <use style="fill:#0000ff;stroke:#0000ff;" x="322.137189" xlink:href="#mc5430ed972" y="170.395836"/>
     <use style="fill:#0000ff;stroke:#0000ff;" x="332.913525" xlink:href="#mc5430ed972" y="187.720236"/>
     <use style="fill:#0000ff;stroke:#0000ff;" x="380.688687" xlink:href="#mc5430ed972" y="220.03593"/>
     <use style="fill:#0000ff;stroke:#0000ff;" x="326.475377" xlink:href="#mc5430ed972" y="177.456267"/>
     <use style="fill:#0000ff;stroke:#0000ff;" x="385.097365" xlink:href="#mc5430ed972" y="231.372662"/>
     <use style="fill:#0000ff;stroke:#0000ff;" x="333.840641" xlink:href="#mc5430ed972" y="189.248803"/>
     <use style="fill:#0000ff;stroke:#0000ff;" x="328.003976" xlink:href="#mc5430ed972" y="181.145449"/>
     <use style="fill:#0000ff;stroke:#0000ff;" x="276.144142" xlink:href="#mc5430ed972" y="163.674383"/>
     <use style="fill:#0000ff;stroke:#0000ff;" x="373.653436" xlink:href="#mc5430ed972" y="211.825097"/>
     <use style="fill:#0000ff;stroke:#0000ff;" x="336.380108" xlink:href="#mc5430ed972" y="192.258301"/>
     <use style="fill:#0000ff;stroke:#0000ff;" x="320.634748" xlink:href="#mc5430ed972" y="168.924644"/>
     <use style="fill:#0000ff;stroke:#0000ff;" x="328.224465" xlink:href="#mc5430ed972" y="181.395595"/>
    </g>
   </g>
   <g id="matplotlib.axis_1">
    <g id="xtick_1">
     <g id="line2d_1">
      <defs>
       <path d="M 0 0 
L 0 3.5 
" id="md006b679e3" style="stroke:#000000;stroke-width:0.8;"/>
      </defs>
      <g>
       <use style="stroke:#000000;stroke-width:0.8;" x="57.6" xlink:href="#md006b679e3" y="307.584"/>
      </g>
     </g>
     <g id="text_1">
      <!-- −1.2 -->
      <defs>
       <path d="M 10.59375 35.5 
L 73.1875 35.5 
L 73.1875 27.203125 
L 10.59375 27.203125 
z
" id="DejaVuSans-2212"/>
       <path d="M 12.40625 8.296875 
L 28.515625 8.296875 
L 28.515625 63.921875 
L 10.984375 60.40625 
L 10.984375 69.390625 
L 28.421875 72.90625 
L 38.28125 72.90625 
L 38.28125 8.296875 
L 54.390625 8.296875 
L 54.390625 0 
L 12.40625 0 
z
" id="DejaVuSans-31"/>
       <path d="M 10.6875 12.40625 
L 21 12.40625 
L 21 0 
L 10.6875 0 
z
" id="DejaVuSans-2e"/>
       <path d="M 19.1875 8.296875 
L 53.609375 8.296875 
L 53.609375 0 
L 7.328125 0 
L 7.328125 8.296875 
Q 12.9375 14.109375 22.625 23.890625 
Q 32.328125 33.6875 34.8125 36.53125 
Q 39.546875 41.84375 41.421875 45.53125 
Q 43.3125 49.21875 43.3125 52.78125 
Q 43.3125 58.59375 39.234375 62.25 
Q 35.15625 65.921875 28.609375 65.921875 
Q 23.96875 65.921875 18.8125 64.3125 
Q 13.671875 62.703125 7.8125 59.421875 
L 7.8125 69.390625 
Q 13.765625 71.78125 18.9375 73 
Q 24.125 74.21875 28.421875 74.21875 
Q 39.75 74.21875 46.484375 68.546875 
Q 53.21875 62.890625 53.21875 53.421875 
Q 53.21875 48.921875 51.53125 44.890625 
Q 49.859375 40.875 45.40625 35.40625 
Q 44.1875 33.984375 37.640625 27.21875 
Q 31.109375 20.453125 19.1875 8.296875 
z
" id="DejaVuSans-32"/>
      </defs>
      <g transform="translate(45.458594 322.182437)scale(0.1 -0.1)">
       <use xlink:href="#DejaVuSans-2212"/>
       <use x="83.789062" xlink:href="#DejaVuSans-31"/>
       <use x="147.412109" xlink:href="#DejaVuSans-2e"/>
       <use x="179.199219" xlink:href="#DejaVuSans-32"/>
      </g>
     </g>
    </g>
    <g id="xtick_2">
     <g id="line2d_2">
      <g>
       <use style="stroke:#000000;stroke-width:0.8;" x="112.541538" xlink:href="#md006b679e3" y="307.584"/>
      </g>
     </g>
     <g id="text_2">
      <!-- −1.0 -->
      <defs>
       <path d="M 31.78125 66.40625 
Q 24.171875 66.40625 20.328125 58.90625 
Q 16.5 51.421875 16.5 36.375 
Q 16.5 21.390625 20.328125 13.890625 
Q 24.171875 6.390625 31.78125 6.390625 
Q 39.453125 6.390625 43.28125 13.890625 
Q 47.125 21.390625 47.125 36.375 
Q 47.125 51.421875 43.28125 58.90625 
Q 39.453125 66.40625 31.78125 66.40625 
z
M 31.78125 74.21875 
Q 44.046875 74.21875 50.515625 64.515625 
Q 56.984375 54.828125 56.984375 36.375 
Q 56.984375 17.96875 50.515625 8.265625 
Q 44.046875 -1.421875 31.78125 -1.421875 
Q 19.53125 -1.421875 13.0625 8.265625 
Q 6.59375 17.96875 6.59375 36.375 
Q 6.59375 54.828125 13.0625 64.515625 
Q 19.53125 74.21875 31.78125 74.21875 
z
" id="DejaVuSans-30"/>
      </defs>
      <g transform="translate(100.400132 322.182437)scale(0.1 -0.1)">
       <use xlink:href="#DejaVuSans-2212"/>
       <use x="83.789062" xlink:href="#DejaVuSans-31"/>
       <use x="147.412109" xlink:href="#DejaVuSans-2e"/>
       <use x="179.199219" xlink:href="#DejaVuSans-30"/>
      </g>
     </g>
    </g>
    <g id="xtick_3">
     <g id="line2d_3">
      <g>
       <use style="stroke:#000000;stroke-width:0.8;" x="167.483077" xlink:href="#md006b679e3" y="307.584"/>
      </g>
     </g>
     <g id="text_3">
      <!-- −0.8 -->
      <defs>
       <path d="M 31.78125 34.625 
Q 24.75 34.625 20.71875 30.859375 
Q 16.703125 27.09375 16.703125 20.515625 
Q 16.703125 13.921875 20.71875 10.15625 
Q 24.75 6.390625 31.78125 6.390625 
Q 38.8125 6.390625 42.859375 10.171875 
Q 46.921875 13.96875 46.921875 20.515625 
Q 46.921875 27.09375 42.890625 30.859375 
Q 38.875 34.625 31.78125 34.625 
z
M 21.921875 38.8125 
Q 15.578125 40.375 12.03125 44.71875 
Q 8.5 49.078125 8.5 55.328125 
Q 8.5 64.0625 14.71875 69.140625 
Q 20.953125 74.21875 31.78125 74.21875 
Q 42.671875 74.21875 48.875 69.140625 
Q 55.078125 64.0625 55.078125 55.328125 
Q 55.078125 49.078125 51.53125 44.71875 
Q 48 40.375 41.703125 38.8125 
Q 48.828125 37.15625 52.796875 32.3125 
Q 56.78125 27.484375 56.78125 20.515625 
Q 56.78125 9.90625 50.3125 4.234375 
Q 43.84375 -1.421875 31.78125 -1.421875 
Q 19.734375 -1.421875 13.25 4.234375 
Q 6.78125 9.90625 6.78125 20.515625 
Q 6.78125 27.484375 10.78125 32.3125 
Q 14.796875 37.15625 21.921875 38.8125 
z
M 18.3125 54.390625 
Q 18.3125 48.734375 21.84375 45.5625 
Q 25.390625 42.390625 31.78125 42.390625 
Q 38.140625 42.390625 41.71875 45.5625 
Q 45.3125 48.734375 45.3125 54.390625 
Q 45.3125 60.0625 41.71875 63.234375 
Q 38.140625 66.40625 31.78125 66.40625 
Q 25.390625 66.40625 21.84375 63.234375 
Q 18.3125 60.0625 18.3125 54.390625 
z
" id="DejaVuSans-38"/>
      </defs>
      <g transform="translate(155.341671 322.182437)scale(0.1 -0.1)">
       <use xlink:href="#DejaVuSans-2212"/>
       <use x="83.789062" xlink:href="#DejaVuSans-30"/>
       <use x="147.412109" xlink:href="#DejaVuSans-2e"/>
       <use x="179.199219" xlink:href="#DejaVuSans-38"/>
      </g>
     </g>
    </g>
    <g id="xtick_4">
     <g id="line2d_4">
      <g>
       <use style="stroke:#000000;stroke-width:0.8;" x="222.424615" xlink:href="#md006b679e3" y="307.584"/>
      </g>
     </g>
     <g id="text_4">
      <!-- −0.6 -->
      <defs>
       <path d="M 33.015625 40.375 
Q 26.375 40.375 22.484375 35.828125 
Q 18.609375 31.296875 18.609375 23.390625 
Q 18.609375 15.53125 22.484375 10.953125 
Q 26.375 6.390625 33.015625 6.390625 
Q 39.65625 6.390625 43.53125 10.953125 
Q 47.40625 15.53125 47.40625 23.390625 
Q 47.40625 31.296875 43.53125 35.828125 
Q 39.65625 40.375 33.015625 40.375 
z
M 52.59375 71.296875 
L 52.59375 62.3125 
Q 48.875 64.0625 45.09375 64.984375 
Q 41.3125 65.921875 37.59375 65.921875 
Q 27.828125 65.921875 22.671875 59.328125 
Q 17.53125 52.734375 16.796875 39.40625 
Q 19.671875 43.65625 24.015625 45.921875 
Q 28.375 48.1875 33.59375 48.1875 
Q 44.578125 48.1875 50.953125 41.515625 
Q 57.328125 34.859375 57.328125 23.390625 
Q 57.328125 12.15625 50.6875 5.359375 
Q 44.046875 -1.421875 33.015625 -1.421875 
Q 20.359375 -1.421875 13.671875 8.265625 
Q 6.984375 17.96875 6.984375 36.375 
Q 6.984375 53.65625 15.1875 63.9375 
Q 23.390625 74.21875 37.203125 74.21875 
Q 40.921875 74.21875 44.703125 73.484375 
Q 48.484375 72.75 52.59375 71.296875 
z
" id="DejaVuSans-36"/>
      </defs>
      <g transform="translate(210.283209 322.182437)scale(0.1 -0.1)">
       <use xlink:href="#DejaVuSans-2212"/>
       <use x="83.789062" xlink:href="#DejaVuSans-30"/>
       <use x="147.412109" xlink:href="#DejaVuSans-2e"/>
       <use x="179.199219" xlink:href="#DejaVuSans-36"/>
      </g>
     </g>
    </g>
    <g id="xtick_5">
     <g id="line2d_5">
      <g>
       <use style="stroke:#000000;stroke-width:0.8;" x="277.366154" xlink:href="#md006b679e3" y="307.584"/>
      </g>
     </g>
     <g id="text_5">
      <!-- −0.4 -->
      <defs>
       <path d="M 37.796875 64.3125 
L 12.890625 25.390625 
L 37.796875 25.390625 
z
M 35.203125 72.90625 
L 47.609375 72.90625 
L 47.609375 25.390625 
L 58.015625 25.390625 
L 58.015625 17.1875 
L 47.609375 17.1875 
L 47.609375 0 
L 37.796875 0 
L 37.796875 17.1875 
L 4.890625 17.1875 
L 4.890625 26.703125 
z
" id="DejaVuSans-34"/>
      </defs>
      <g transform="translate(265.224748 322.182437)scale(0.1 -0.1)">
       <use xlink:href="#DejaVuSans-2212"/>
       <use x="83.789062" xlink:href="#DejaVuSans-30"/>
       <use x="147.412109" xlink:href="#DejaVuSans-2e"/>
       <use x="179.199219" xlink:href="#DejaVuSans-34"/>
      </g>
     </g>
    </g>
    <g id="xtick_6">
     <g id="line2d_6">
      <g>
       <use style="stroke:#000000;stroke-width:0.8;" x="332.307692" xlink:href="#md006b679e3" y="307.584"/>
      </g>
     </g>
     <g id="text_6">
      <!-- −0.2 -->
      <g transform="translate(320.166286 322.182437)scale(0.1 -0.1)">
       <use xlink:href="#DejaVuSans-2212"/>
       <use x="83.789062" xlink:href="#DejaVuSans-30"/>
       <use x="147.412109" xlink:href="#DejaVuSans-2e"/>
       <use x="179.199219" xlink:href="#DejaVuSans-32"/>
      </g>
     </g>
    </g>
    <g id="xtick_7">
     <g id="line2d_7">
      <g>
       <use style="stroke:#000000;stroke-width:0.8;" x="387.249231" xlink:href="#md006b679e3" y="307.584"/>
      </g>
     </g>
     <g id="text_7">
      <!-- 0.0 -->
      <g transform="translate(379.297668 322.182437)scale(0.1 -0.1)">
       <use xlink:href="#DejaVuSans-30"/>
       <use x="63.623047" xlink:href="#DejaVuSans-2e"/>
       <use x="95.410156" xlink:href="#DejaVuSans-30"/>
      </g>
     </g>
    </g>
   </g>
   <g id="matplotlib.axis_2">
    <g id="ytick_1">
     <g id="line2d_8">
      <defs>
       <path d="M 0 0 
L -3.5 0 
" id="mdb755c72cb" style="stroke:#000000;stroke-width:0.8;"/>
      </defs>
      <g>
       <use style="stroke:#000000;stroke-width:0.8;" x="57.6" xlink:href="#mdb755c72cb" y="307.584"/>
      </g>
     </g>
     <g id="text_8">
      <!-- −5 -->
      <defs>
       <path d="M 10.796875 72.90625 
L 49.515625 72.90625 
L 49.515625 64.59375 
L 19.828125 64.59375 
L 19.828125 46.734375 
Q 21.96875 47.46875 24.109375 47.828125 
Q 26.265625 48.1875 28.421875 48.1875 
Q 40.625 48.1875 47.75 41.5 
Q 54.890625 34.8125 54.890625 23.390625 
Q 54.890625 11.625 47.5625 5.09375 
Q 40.234375 -1.421875 26.90625 -1.421875 
Q 22.3125 -1.421875 17.546875 -0.640625 
Q 12.796875 0.140625 7.71875 1.703125 
L 7.71875 11.625 
Q 12.109375 9.234375 16.796875 8.0625 
Q 21.484375 6.890625 26.703125 6.890625 
Q 35.15625 6.890625 40.078125 11.328125 
Q 45.015625 15.765625 45.015625 23.390625 
Q 45.015625 31 40.078125 35.4375 
Q 35.15625 39.890625 26.703125 39.890625 
Q 22.75 39.890625 18.8125 39.015625 
Q 14.890625 38.140625 10.796875 36.28125 
z
" id="DejaVuSans-35"/>
      </defs>
      <g transform="translate(35.857813 311.383219)scale(0.1 -0.1)">
       <use xlink:href="#DejaVuSans-2212"/>
       <use x="83.789062" xlink:href="#DejaVuSans-35"/>
      </g>
     </g>
    </g>
    <g id="ytick_2">
     <g id="line2d_9">
      <g>
       <use style="stroke:#000000;stroke-width:0.8;" x="57.6" xlink:href="#mdb755c72cb" y="254.3616"/>
      </g>
     </g>
     <g id="text_9">
      <!-- −4 -->
      <g transform="translate(35.857813 258.160819)scale(0.1 -0.1)">
       <use xlink:href="#DejaVuSans-2212"/>
       <use x="83.789062" xlink:href="#DejaVuSans-34"/>
      </g>
     </g>
    </g>
    <g id="ytick_3">
     <g id="line2d_10">
      <g>
       <use style="stroke:#000000;stroke-width:0.8;" x="57.6" xlink:href="#mdb755c72cb" y="201.1392"/>
      </g>
     </g>
     <g id="text_10">
      <!-- −3 -->
      <defs>
       <path d="M 40.578125 39.3125 
Q 47.65625 37.796875 51.625 33 
Q 55.609375 28.21875 55.609375 21.1875 
Q 55.609375 10.40625 48.1875 4.484375 
Q 40.765625 -1.421875 27.09375 -1.421875 
Q 22.515625 -1.421875 17.65625 -0.515625 
Q 12.796875 0.390625 7.625 2.203125 
L 7.625 11.71875 
Q 11.71875 9.328125 16.59375 8.109375 
Q 21.484375 6.890625 26.8125 6.890625 
Q 36.078125 6.890625 40.9375 10.546875 
Q 45.796875 14.203125 45.796875 21.1875 
Q 45.796875 27.640625 41.28125 31.265625 
Q 36.765625 34.90625 28.71875 34.90625 
L 20.21875 34.90625 
L 20.21875 43.015625 
L 29.109375 43.015625 
Q 36.375 43.015625 40.234375 45.921875 
Q 44.09375 48.828125 44.09375 54.296875 
Q 44.09375 59.90625 40.109375 62.90625 
Q 36.140625 65.921875 28.71875 65.921875 
Q 24.65625 65.921875 20.015625 65.03125 
Q 15.375 64.15625 9.8125 62.3125 
L 9.8125 71.09375 
Q 15.4375 72.65625 20.34375 73.4375 
Q 25.25 74.21875 29.59375 74.21875 
Q 40.828125 74.21875 47.359375 69.109375 
Q 53.90625 64.015625 53.90625 55.328125 
Q 53.90625 49.265625 50.4375 45.09375 
Q 46.96875 40.921875 40.578125 39.3125 
z
" id="DejaVuSans-33"/>
      </defs>
      <g transform="translate(35.857813 204.938419)scale(0.1 -0.1)">
       <use xlink:href="#DejaVuSans-2212"/>
       <use x="83.789062" xlink:href="#DejaVuSans-33"/>
      </g>
     </g>
    </g>
    <g id="ytick_4">
     <g id="line2d_11">
      <g>
       <use style="stroke:#000000;stroke-width:0.8;" x="57.6" xlink:href="#mdb755c72cb" y="147.9168"/>
      </g>
     </g>
     <g id="text_11">
      <!-- −2 -->
      <g transform="translate(35.857813 151.716019)scale(0.1 -0.1)">
       <use xlink:href="#DejaVuSans-2212"/>
       <use x="83.789062" xlink:href="#DejaVuSans-32"/>
      </g>
     </g>
    </g>
    <g id="ytick_5">
     <g id="line2d_12">
      <g>
       <use style="stroke:#000000;stroke-width:0.8;" x="57.6" xlink:href="#mdb755c72cb" y="94.6944"/>
      </g>
     </g>
     <g id="text_12">
      <!-- −1 -->
      <g transform="translate(35.857813 98.493619)scale(0.1 -0.1)">
       <use xlink:href="#DejaVuSans-2212"/>
       <use x="83.789062" xlink:href="#DejaVuSans-31"/>
      </g>
     </g>
    </g>
    <g id="ytick_6">
     <g id="line2d_13">
      <g>
       <use style="stroke:#000000;stroke-width:0.8;" x="57.6" xlink:href="#mdb755c72cb" y="41.472"/>
      </g>
     </g>
     <g id="text_13">
      <!-- 0 -->
      <g transform="translate(44.2375 45.271219)scale(0.1 -0.1)">
       <use xlink:href="#DejaVuSans-30"/>
      </g>
     </g>
    </g>
   </g>
   <g id="patch_3">
    <path d="M 57.6 307.584 
L 57.6 41.472 
" style="fill:none;stroke:#000000;stroke-linecap:square;stroke-linejoin:miter;stroke-width:0.8;"/>
   </g>
   <g id="patch_4">
    <path d="M 414.72 307.584 
L 414.72 41.472 
" style="fill:none;stroke:#000000;stroke-linecap:square;stroke-linejoin:miter;stroke-width:0.8;"/>
   </g>
   <g id="patch_5">
    <path d="M 57.6 307.584 
L 414.72 307.584 
" style="fill:none;stroke:#000000;stroke-linecap:square;stroke-linejoin:miter;stroke-width:0.8;"/>
   </g>
   <g id="patch_6">
    <path d="M 57.6 41.472 
L 414.72 41.472 
" style="fill:none;stroke:#000000;stroke-linecap:square;stroke-linejoin:miter;stroke-width:0.8;"/>
   </g>
  </g>
 </g>
 <defs>
  <clipPath id="p11bcc73dad">
   <rect height="266.112" width="357.12" x="57.6" y="41.472"/>
  </clipPath>
 </defs>
</svg>
