<?xml version="1.0" encoding="utf-8" standalone="no"?>
<!DOCTYPE svg PUBLIC "-//W3C//DTD SVG 1.1//EN"
  "http://www.w3.org/Graphics/SVG/1.1/DTD/svg11.dtd">
<!-- Created with matplotlib (http://matplotlib.org/) -->
<svg height="345.6pt" version="1.1" viewBox="0 0 460.8 345.6" width="460.8pt" xmlns="http://www.w3.org/2000/svg" xmlns:xlink="http://www.w3.org/1999/xlink">
 <defs>
  <style type="text/css">
*{stroke-linecap:butt;stroke-linejoin:round;}
  </style>
 </defs>
 <g id="figure_1">
  <g id="patch_1">
   <path d="M 0 345.6 
L 460.8 345.6 
L 460.8 0 
L 0 0 
z
" style="fill:#ffffff;"/>
  </g>
  <g id="axes_1">
   <g id="patch_2">
    <path d="M 57.6 307.584 
L 414.72 307.584 
L 414.72 41.472 
L 57.6 41.472 
z
" style="fill:#ffffff;"/>
   </g>
   <g id="PathCollection_1">
    <defs>
     <path d="M 0 0.612372 
C 0.162403 0.612372 0.318176 0.547849 0.433013 0.433013 
C 0.547849 0.318176 0.612372 0.162403 0.612372 0 
C 0.612372 -0.162403 0.547849 -0.318176 0.433013 -0.433013 
C 0.318176 -0.547849 0.162403 -0.612372 0 -0.612372 
C -0.162403 -0.612372 -0.318176 -0.547849 -0.433013 -0.433013 
C -0.547849 -0.318176 -0.612372 -0.162403 -0.612372 0 
C -0.612372 0.162403 -0.547849 0.318176 -0.433013 0.433013 
C -0.318176 0.547849 -0.162403 0.612372 0 0.612372 
z
" id="m040499c9df" style="stroke:#000000;"/>
    </defs>
    <g clip-path="url(#p6e9a55ab56)">
     <use style="stroke:#000000;" x="314.139646" xlink:href="#m040499c9df" y="97.003924"/>
     <use style="stroke:#000000;" x="311.409969" xlink:href="#m040499c9df" y="92.346429"/>
     <use style="stroke:#000000;" x="371.422403" xlink:href="#m040499c9df" y="142.385347"/>
     <use style="stroke:#000000;" x="334.331915" xlink:href="#m040499c9df" y="115.035831"/>
     <use style="stroke:#000000;" x="342.384261" xlink:href="#m040499c9df" y="130.815552"/>
     <use style="stroke:#000000;" x="329.235693" xlink:href="#m040499c9df" y="107.077422"/>
     <use style="stroke:#000000;" x="381.278433" xlink:href="#m040499c9df" y="161.159424"/>
     <use style="stroke:#000000;" x="375.409307" xlink:href="#m040499c9df" y="153.825072"/>
     <use style="stroke:#000000;" x="385.847857" xlink:href="#m040499c9df" y="171.435328"/>
     <use style="stroke:#000000;" x="328.707357" xlink:href="#m040499c9df" y="106.255174"/>
     <use style="stroke:#000000;" x="346.566548" xlink:href="#m040499c9df" y="136.793526"/>
     <use style="stroke:#000000;" x="333.825102" xlink:href="#m040499c9df" y="114.591297"/>
     <use style="stroke:#000000;" x="297.164728" xlink:href="#m040499c9df" y="69.929638"/>
     <use style="stroke:#000000;" x="368.89076" xlink:href="#m040499c9df" y="138.643889"/>
     <use style="stroke:#000000;" x="371.200246" xlink:href="#m040499c9df" y="142.190291"/>
     <use style="stroke:#000000;" x="306.497037" xlink:href="#m040499c9df" y="83.632279"/>
     <use style="stroke:#000000;" x="337.067201" xlink:href="#m040499c9df" y="120.801727"/>
     <use style="stroke:#000000;" x="333.7211" xlink:href="#m040499c9df" y="114.118516"/>
     <use style="stroke:#000000;" x="327.340316" xlink:href="#m040499c9df" y="104.970301"/>
     <use style="stroke:#000000;" x="303.874406" xlink:href="#m040499c9df" y="80.432761"/>
     <use style="stroke:#000000;" x="338.794699" xlink:href="#m040499c9df" y="125.183275"/>
     <use style="stroke:#000000;" x="333.825768" xlink:href="#m040499c9df" y="114.99986"/>
     <use style="stroke:#000000;" x="331.708799" xlink:href="#m040499c9df" y="110.829332"/>
     <use style="stroke:#000000;" x="342.864222" xlink:href="#m040499c9df" y="132.742691"/>
     <use style="stroke:#000000;" x="378.323545" xlink:href="#m040499c9df" y="157.343763"/>
     <use style="stroke:#000000;" x="334.766249" xlink:href="#m040499c9df" y="116.29727"/>
     <use style="stroke:#000000;" x="329.193204" xlink:href="#m040499c9df" y="106.916908"/>
     <use style="stroke:#000000;" x="332.573199" xlink:href="#m040499c9df" y="112.525112"/>
     <use style="stroke:#000000;" x="342.222184" xlink:href="#m040499c9df" y="130.580516"/>
     <use style="stroke:#000000;" x="335.26211" xlink:href="#m040499c9df" y="117.518617"/>
     <use style="stroke:#000000;" x="329.670057" xlink:href="#m040499c9df" y="107.346528"/>
     <use style="stroke:#000000;" x="310.652759" xlink:href="#m040499c9df" y="91.425777"/>
     <use style="stroke:#000000;" x="371.47295" xlink:href="#m040499c9df" y="144.614245"/>
     <use style="stroke:#000000;" x="342.022553" xlink:href="#m040499c9df" y="130.303854"/>
     <use style="stroke:#000000;" x="333.171347" xlink:href="#m040499c9df" y="113.331444"/>
     <use style="stroke:#000000;" x="387.445781" xlink:href="#m040499c9df" y="173.42774"/>
     <use style="stroke:#000000;" x="300.594464" xlink:href="#m040499c9df" y="73.609108"/>
     <use style="stroke:#000000;" x="329.738965" xlink:href="#m040499c9df" y="108.138811"/>
     <use style="stroke:#000000;" x="302.338558" xlink:href="#m040499c9df" y="77.14203"/>
     <use style="stroke:#000000;" x="340.310788" xlink:href="#m040499c9df" y="127.309133"/>
     <use style="stroke:#000000;" x="295.9095" xlink:href="#m040499c9df" y="67.924765"/>
     <use style="stroke:#000000;" x="340.778618" xlink:href="#m040499c9df" y="128.580295"/>
     <use style="stroke:#000000;" x="315.431611" xlink:href="#m040499c9df" y="98.997996"/>
     <use style="stroke:#000000;" x="298.381575" xlink:href="#m040499c9df" y="70.895535"/>
     <use style="stroke:#000000;" x="332.663015" xlink:href="#m040499c9df" y="112.642583"/>
     <use style="stroke:#000000;" x="306.74925" xlink:href="#m040499c9df" y="85.287863"/>
     <use style="stroke:#000000;" x="315.474445" xlink:href="#m040499c9df" y="99.072645"/>
     <use style="stroke:#000000;" x="337.684849" xlink:href="#m040499c9df" y="122.169054"/>
     <use style="stroke:#000000;" x="308.101301" xlink:href="#m040499c9df" y="86.691289"/>
     <use style="stroke:#000000;" x="309.425948" xlink:href="#m040499c9df" y="90.222778"/>
     <use style="stroke:#000000;" x="297.314969" xlink:href="#m040499c9df" y="70.002353"/>
     <use style="stroke:#000000;" x="339.396969" xlink:href="#m040499c9df" y="125.190073"/>
     <use style="stroke:#000000;" x="303.354297" xlink:href="#m040499c9df" y="78.450058"/>
     <use style="stroke:#000000;" x="338.664442" xlink:href="#m040499c9df" y="123.782959"/>
     <use style="stroke:#000000;" x="382.021416" xlink:href="#m040499c9df" y="165.453827"/>
     <use style="stroke:#000000;" x="302.863583" xlink:href="#m040499c9df" y="77.548018"/>
     <use style="stroke:#000000;" x="326.919768" xlink:href="#m040499c9df" y="103.811108"/>
     <use style="stroke:#000000;" x="404.548853" xlink:href="#m040499c9df" y="177.32506"/>
     <use style="stroke:#000000;" x="301.655494" xlink:href="#m040499c9df" y="77.01829"/>
     <use style="stroke:#000000;" x="312.564638" xlink:href="#m040499c9df" y="94.578226"/>
     <use style="stroke:#000000;" x="374.236151" xlink:href="#m040499c9df" y="145.297364"/>
     <use style="stroke:#000000;" x="344.197478" xlink:href="#m040499c9df" y="134.292398"/>
     <use style="stroke:#000000;" x="338.141458" xlink:href="#m040499c9df" y="123.246618"/>
     <use style="stroke:#000000;" x="336.180205" xlink:href="#m040499c9df" y="118.651412"/>
     <use style="stroke:#000000;" x="374.239115" xlink:href="#m040499c9df" y="150.126993"/>
     <use style="stroke:#000000;" x="331.379205" xlink:href="#m040499c9df" y="109.876106"/>
     <use style="stroke:#000000;" x="345.31703" xlink:href="#m040499c9df" y="135.165436"/>
     <use style="stroke:#000000;" x="290.366655" xlink:href="#m040499c9df" y="64.322615"/>
     <use style="stroke:#000000;" x="340.726588" xlink:href="#m040499c9df" y="128.401842"/>
     <use style="stroke:#000000;" x="332.859319" xlink:href="#m040499c9df" y="112.881751"/>
     <use style="stroke:#000000;" x="336.455533" xlink:href="#m040499c9df" y="119.34846"/>
     <use style="stroke:#000000;" x="325.903495" xlink:href="#m040499c9df" y="103.375033"/>
     <use style="stroke:#000000;" x="332.566162" xlink:href="#m040499c9df" y="112.406947"/>
     <use style="stroke:#000000;" x="384.630737" xlink:href="#m040499c9df" y="166.663611"/>
     <use style="stroke:#000000;" x="375.649117" xlink:href="#m040499c9df" y="154.693444"/>
     <use style="stroke:#000000;" x="375.37426" xlink:href="#m040499c9df" y="150.156369"/>
     <use style="stroke:#000000;" x="303.426996" xlink:href="#m040499c9df" y="79.042057"/>
     <use style="stroke:#000000;" x="337.607254" xlink:href="#m040499c9df" y="122.09612"/>
     <use style="stroke:#000000;" x="311.801829" xlink:href="#m040499c9df" y="93.441441"/>
     <use style="stroke:#000000;" x="391.913599" xlink:href="#m040499c9df" y="174.630149"/>
     <use style="stroke:#000000;" x="341.721974" xlink:href="#m040499c9df" y="129.730283"/>
     <use style="stroke:#000000;" x="328.503486" xlink:href="#m040499c9df" y="105.669073"/>
     <use style="stroke:#000000;" x="341.452406" xlink:href="#m040499c9df" y="129.643891"/>
     <use style="stroke:#000000;" x="330.400551" xlink:href="#m040499c9df" y="108.141629"/>
     <use style="stroke:#000000;" x="323.532717" xlink:href="#m040499c9df" y="101.939546"/>
     <use style="stroke:#000000;" x="307.675431" xlink:href="#m040499c9df" y="85.6299"/>
     <use style="stroke:#000000;" x="308.335889" xlink:href="#m040499c9df" y="87.840942"/>
     <use style="stroke:#000000;" x="311.678819" xlink:href="#m040499c9df" y="93.196152"/>
     <use style="stroke:#000000;" x="334.797975" xlink:href="#m040499c9df" y="117.47931"/>
     <use style="stroke:#000000;" x="316.7085" xlink:href="#m040499c9df" y="100.71462"/>
     <use style="stroke:#000000;" x="292.592706" xlink:href="#m040499c9df" y="64.562113"/>
     <use style="stroke:#000000;" x="326.920904" xlink:href="#m040499c9df" y="104.135815"/>
     <use style="stroke:#000000;" x="346.162889" xlink:href="#m040499c9df" y="136.370383"/>
     <use style="stroke:#000000;" x="340.88566" xlink:href="#m040499c9df" y="129.029351"/>
     <use style="stroke:#000000;" x="341.013613" xlink:href="#m040499c9df" y="129.437966"/>
     <use style="stroke:#000000;" x="294.297066" xlink:href="#m040499c9df" y="66.84034"/>
     <use style="stroke:#000000;" x="290.801276" xlink:href="#m040499c9df" y="64.436411"/>
     <use style="stroke:#000000;" x="305.065643" xlink:href="#m040499c9df" y="81.105664"/>
     <use style="stroke:#000000;" x="311.58778" xlink:href="#m040499c9df" y="92.763675"/>
     <use style="stroke:#000000;" x="313.466442" xlink:href="#m040499c9df" y="95.552374"/>
     <use style="stroke:#000000;" x="315.685387" xlink:href="#m040499c9df" y="108.139882"/>
     <use style="stroke:#000000;" x="312.132254" xlink:href="#m040499c9df" y="93.449748"/>
     <use style="stroke:#000000;" x="360.819825" xlink:href="#m040499c9df" y="144.183355"/>
     <use style="stroke:#000000;" x="334.939743" xlink:href="#m040499c9df" y="120.978711"/>
     <use style="stroke:#000000;" x="348.509987" xlink:href="#m040499c9df" y="139.636596"/>
     <use style="stroke:#000000;" x="335.761201" xlink:href="#m040499c9df" y="125.168182"/>
     <use style="stroke:#000000;" x="373.13325" xlink:href="#m040499c9df" y="162.8763"/>
     <use style="stroke:#000000;" x="369.973417" xlink:href="#m040499c9df" y="144.051998"/>
     <use style="stroke:#000000;" x="394.178809" xlink:href="#m040499c9df" y="175.275479"/>
     <use style="stroke:#000000;" x="333.15745" xlink:href="#m040499c9df" y="121.477845"/>
     <use style="stroke:#000000;" x="346.538746" xlink:href="#m040499c9df" y="140.323315"/>
     <use style="stroke:#000000;" x="334.196744" xlink:href="#m040499c9df" y="118.118669"/>
     <use style="stroke:#000000;" x="296.782292" xlink:href="#m040499c9df" y="71.982509"/>
     <use style="stroke:#000000;" x="367.66549" xlink:href="#m040499c9df" y="152.052965"/>
     <use style="stroke:#000000;" x="366.190829" xlink:href="#m040499c9df" y="143.117285"/>
     <use style="stroke:#000000;" x="306.829315" xlink:href="#m040499c9df" y="91.27875"/>
     <use style="stroke:#000000;" x="334.628672" xlink:href="#m040499c9df" y="118.480079"/>
     <use style="stroke:#000000;" x="328.156717" xlink:href="#m040499c9df" y="111.887765"/>
     <use style="stroke:#000000;" x="339.100161" xlink:href="#m040499c9df" y="125.116066"/>
     <use style="stroke:#000000;" x="317.507686" xlink:href="#m040499c9df" y="111.973136"/>
     <use style="stroke:#000000;" x="336.716319" xlink:href="#m040499c9df" y="119.897295"/>
     <use style="stroke:#000000;" x="328.841333" xlink:href="#m040499c9df" y="107.236397"/>
     <use style="stroke:#000000;" x="340.679581" xlink:href="#m040499c9df" y="127.748503"/>
     <use style="stroke:#000000;" x="353.937726" xlink:href="#m040499c9df" y="156.709533"/>
     <use style="stroke:#000000;" x="375.066342" xlink:href="#m040499c9df" y="149.853136"/>
     <use style="stroke:#000000;" x="330.059654" xlink:href="#m040499c9df" y="109.598662"/>
     <use style="stroke:#000000;" x="338.078123" xlink:href="#m040499c9df" y="123.948839"/>
     <use style="stroke:#000000;" x="343.545518" xlink:href="#m040499c9df" y="133.970832"/>
     <use style="stroke:#000000;" x="340.054786" xlink:href="#m040499c9df" y="127.644885"/>
     <use style="stroke:#000000;" x="330.30367" xlink:href="#m040499c9df" y="115.300191"/>
     <use style="stroke:#000000;" x="338.213189" xlink:href="#m040499c9df" y="123.961223"/>
     <use style="stroke:#000000;" x="322.82805" xlink:href="#m040499c9df" y="116.55587"/>
     <use style="stroke:#000000;" x="369.726912" xlink:href="#m040499c9df" y="148.601271"/>
     <use style="stroke:#000000;" x="339.513222" xlink:href="#m040499c9df" y="126.724119"/>
     <use style="stroke:#000000;" x="329.781006" xlink:href="#m040499c9df" y="107.296508"/>
     <use style="stroke:#000000;" x="378.653239" xlink:href="#m040499c9df" y="174.249153"/>
     <use style="stroke:#000000;" x="296.334029" xlink:href="#m040499c9df" y="69.782056"/>
     <use style="stroke:#000000;" x="327.16226" xlink:href="#m040499c9df" y="106.568749"/>
     <use style="stroke:#000000;" x="300.759605" xlink:href="#m040499c9df" y="74.538251"/>
     <use style="stroke:#000000;" x="335.177868" xlink:href="#m040499c9df" y="118.244363"/>
     <use style="stroke:#000000;" x="292.004365" xlink:href="#m040499c9df" y="74.498968"/>
     <use style="stroke:#000000;" x="338.571301" xlink:href="#m040499c9df" y="125.300676"/>
     <use style="stroke:#000000;" x="313.565658" xlink:href="#m040499c9df" y="95.685327"/>
     <use style="stroke:#000000;" x="291.002922" xlink:href="#m040499c9df" y="64.153909"/>
     <use style="stroke:#000000;" x="330.098557" xlink:href="#m040499c9df" y="111.586723"/>
     <use style="stroke:#000000;" x="303.883896" xlink:href="#m040499c9df" y="82.391136"/>
     <use style="stroke:#000000;" x="313.733406" xlink:href="#m040499c9df" y="97.69174"/>
     <use style="stroke:#000000;" x="333.193212" xlink:href="#m040499c9df" y="115.223501"/>
     <use style="stroke:#000000;" x="306.874284" xlink:href="#m040499c9df" y="85.96577"/>
     <use style="stroke:#000000;" x="311.341338" xlink:href="#m040499c9df" y="92.254332"/>
    </g>
   </g>
   <g id="PathCollection_2">
    <defs>
     <path d="M 0 0.935414 
C 0.248075 0.935414 0.486022 0.836853 0.661438 0.661438 
C 0.836853 0.486022 0.935414 0.248075 0.935414 0 
C 0.935414 -0.248075 0.836853 -0.486022 0.661438 -0.661438 
C 0.486022 -0.836853 0.248075 -0.935414 0 -0.935414 
C -0.248075 -0.935414 -0.486022 -0.836853 -0.661438 -0.661438 
C -0.836853 -0.486022 -0.935414 -0.248075 -0.935414 0 
C -0.935414 0.248075 -0.836853 0.486022 -0.661438 0.661438 
C -0.486022 0.836853 -0.248075 0.935414 0 0.935414 
z
" id="m09d7f8764a" style="stroke:#0000ff;"/>
    </defs>
    <g clip-path="url(#p6e9a55ab56)">
     <use style="fill:#0000ff;stroke:#0000ff;" x="314.139646" xlink:href="#m09d7f8764a" y="97.003924"/>
     <use style="fill:#0000ff;stroke:#0000ff;" x="311.409969" xlink:href="#m09d7f8764a" y="92.346429"/>
     <use style="fill:#0000ff;stroke:#0000ff;" x="371.422403" xlink:href="#m09d7f8764a" y="142.385347"/>
     <use style="fill:#0000ff;stroke:#0000ff;" x="334.331915" xlink:href="#m09d7f8764a" y="115.035831"/>
     <use style="fill:#0000ff;stroke:#0000ff;" x="342.384261" xlink:href="#m09d7f8764a" y="130.815552"/>
     <use style="fill:#0000ff;stroke:#0000ff;" x="329.235693" xlink:href="#m09d7f8764a" y="107.077422"/>
     <use style="fill:#0000ff;stroke:#0000ff;" x="381.278433" xlink:href="#m09d7f8764a" y="161.159424"/>
     <use style="fill:#0000ff;stroke:#0000ff;" x="375.409307" xlink:href="#m09d7f8764a" y="153.825072"/>
     <use style="fill:#0000ff;stroke:#0000ff;" x="385.847857" xlink:href="#m09d7f8764a" y="171.435328"/>
     <use style="fill:#0000ff;stroke:#0000ff;" x="328.707357" xlink:href="#m09d7f8764a" y="106.255174"/>
     <use style="fill:#0000ff;stroke:#0000ff;" x="346.566548" xlink:href="#m09d7f8764a" y="136.793526"/>
     <use style="fill:#0000ff;stroke:#0000ff;" x="333.825102" xlink:href="#m09d7f8764a" y="114.591297"/>
     <use style="fill:#0000ff;stroke:#0000ff;" x="297.164728" xlink:href="#m09d7f8764a" y="69.929638"/>
     <use style="fill:#0000ff;stroke:#0000ff;" x="368.89076" xlink:href="#m09d7f8764a" y="138.643889"/>
     <use style="fill:#0000ff;stroke:#0000ff;" x="371.200246" xlink:href="#m09d7f8764a" y="142.190291"/>
     <use style="fill:#0000ff;stroke:#0000ff;" x="306.497037" xlink:href="#m09d7f8764a" y="83.632279"/>
     <use style="fill:#0000ff;stroke:#0000ff;" x="337.067201" xlink:href="#m09d7f8764a" y="120.801727"/>
     <use style="fill:#0000ff;stroke:#0000ff;" x="333.7211" xlink:href="#m09d7f8764a" y="114.118516"/>
     <use style="fill:#0000ff;stroke:#0000ff;" x="327.340316" xlink:href="#m09d7f8764a" y="104.970301"/>
     <use style="fill:#0000ff;stroke:#0000ff;" x="303.874406" xlink:href="#m09d7f8764a" y="80.432761"/>
     <use style="fill:#0000ff;stroke:#0000ff;" x="338.794699" xlink:href="#m09d7f8764a" y="125.183275"/>
     <use style="fill:#0000ff;stroke:#0000ff;" x="333.825768" xlink:href="#m09d7f8764a" y="114.99986"/>
     <use style="fill:#0000ff;stroke:#0000ff;" x="331.708799" xlink:href="#m09d7f8764a" y="110.829332"/>
     <use style="fill:#0000ff;stroke:#0000ff;" x="342.864222" xlink:href="#m09d7f8764a" y="132.742691"/>
     <use style="fill:#0000ff;stroke:#0000ff;" x="378.323545" xlink:href="#m09d7f8764a" y="157.343763"/>
     <use style="fill:#0000ff;stroke:#0000ff;" x="334.766249" xlink:href="#m09d7f8764a" y="116.29727"/>
     <use style="fill:#0000ff;stroke:#0000ff;" x="329.193204" xlink:href="#m09d7f8764a" y="106.916908"/>
     <use style="fill:#0000ff;stroke:#0000ff;" x="332.573199" xlink:href="#m09d7f8764a" y="112.525112"/>
     <use style="fill:#0000ff;stroke:#0000ff;" x="342.222184" xlink:href="#m09d7f8764a" y="130.580516"/>
     <use style="fill:#0000ff;stroke:#0000ff;" x="335.26211" xlink:href="#m09d7f8764a" y="117.518617"/>
     <use style="fill:#0000ff;stroke:#0000ff;" x="329.670057" xlink:href="#m09d7f8764a" y="107.346528"/>
     <use style="fill:#0000ff;stroke:#0000ff;" x="310.652759" xlink:href="#m09d7f8764a" y="91.425777"/>
     <use style="fill:#0000ff;stroke:#0000ff;" x="371.47295" xlink:href="#m09d7f8764a" y="144.614245"/>
     <use style="fill:#0000ff;stroke:#0000ff;" x="342.022553" xlink:href="#m09d7f8764a" y="130.303854"/>
     <use style="fill:#0000ff;stroke:#0000ff;" x="333.171347" xlink:href="#m09d7f8764a" y="113.331444"/>
     <use style="fill:#0000ff;stroke:#0000ff;" x="387.445781" xlink:href="#m09d7f8764a" y="173.42774"/>
     <use style="fill:#0000ff;stroke:#0000ff;" x="300.594464" xlink:href="#m09d7f8764a" y="73.609108"/>
     <use style="fill:#0000ff;stroke:#0000ff;" x="329.738965" xlink:href="#m09d7f8764a" y="108.138811"/>
     <use style="fill:#0000ff;stroke:#0000ff;" x="302.338558" xlink:href="#m09d7f8764a" y="77.14203"/>
     <use style="fill:#0000ff;stroke:#0000ff;" x="340.310788" xlink:href="#m09d7f8764a" y="127.309133"/>
     <use style="fill:#0000ff;stroke:#0000ff;" x="295.9095" xlink:href="#m09d7f8764a" y="67.924765"/>
     <use style="fill:#0000ff;stroke:#0000ff;" x="340.778618" xlink:href="#m09d7f8764a" y="128.580295"/>
     <use style="fill:#0000ff;stroke:#0000ff;" x="315.431611" xlink:href="#m09d7f8764a" y="98.997996"/>
     <use style="fill:#0000ff;stroke:#0000ff;" x="298.381575" xlink:href="#m09d7f8764a" y="70.895535"/>
     <use style="fill:#0000ff;stroke:#0000ff;" x="332.663015" xlink:href="#m09d7f8764a" y="112.642583"/>
     <use style="fill:#0000ff;stroke:#0000ff;" x="306.74925" xlink:href="#m09d7f8764a" y="85.287863"/>
     <use style="fill:#0000ff;stroke:#0000ff;" x="315.474445" xlink:href="#m09d7f8764a" y="99.072645"/>
     <use style="fill:#0000ff;stroke:#0000ff;" x="337.684849" xlink:href="#m09d7f8764a" y="122.169054"/>
     <use style="fill:#0000ff;stroke:#0000ff;" x="308.101301" xlink:href="#m09d7f8764a" y="86.691289"/>
     <use style="fill:#0000ff;stroke:#0000ff;" x="309.425948" xlink:href="#m09d7f8764a" y="90.222778"/>
     <use style="fill:#0000ff;stroke:#0000ff;" x="297.314969" xlink:href="#m09d7f8764a" y="70.002353"/>
     <use style="fill:#0000ff;stroke:#0000ff;" x="339.396969" xlink:href="#m09d7f8764a" y="125.190073"/>
     <use style="fill:#0000ff;stroke:#0000ff;" x="303.354297" xlink:href="#m09d7f8764a" y="78.450058"/>
     <use style="fill:#0000ff;stroke:#0000ff;" x="338.664442" xlink:href="#m09d7f8764a" y="123.782959"/>
     <use style="fill:#0000ff;stroke:#0000ff;" x="382.021416" xlink:href="#m09d7f8764a" y="165.453827"/>
     <use style="fill:#0000ff;stroke:#0000ff;" x="302.863583" xlink:href="#m09d7f8764a" y="77.548018"/>
     <use style="fill:#0000ff;stroke:#0000ff;" x="326.919768" xlink:href="#m09d7f8764a" y="103.811108"/>
     <use style="fill:#0000ff;stroke:#0000ff;" x="404.548853" xlink:href="#m09d7f8764a" y="177.32506"/>
     <use style="fill:#0000ff;stroke:#0000ff;" x="301.655494" xlink:href="#m09d7f8764a" y="77.01829"/>
     <use style="fill:#0000ff;stroke:#0000ff;" x="312.564638" xlink:href="#m09d7f8764a" y="94.578226"/>
     <use style="fill:#0000ff;stroke:#0000ff;" x="374.236151" xlink:href="#m09d7f8764a" y="145.297364"/>
     <use style="fill:#0000ff;stroke:#0000ff;" x="344.197478" xlink:href="#m09d7f8764a" y="134.292398"/>
     <use style="fill:#0000ff;stroke:#0000ff;" x="338.141458" xlink:href="#m09d7f8764a" y="123.246618"/>
     <use style="fill:#0000ff;stroke:#0000ff;" x="336.180205" xlink:href="#m09d7f8764a" y="118.651412"/>
     <use style="fill:#0000ff;stroke:#0000ff;" x="374.239115" xlink:href="#m09d7f8764a" y="150.126993"/>
     <use style="fill:#0000ff;stroke:#0000ff;" x="331.379205" xlink:href="#m09d7f8764a" y="109.876106"/>
     <use style="fill:#0000ff;stroke:#0000ff;" x="345.31703" xlink:href="#m09d7f8764a" y="135.165436"/>
     <use style="fill:#0000ff;stroke:#0000ff;" x="290.366655" xlink:href="#m09d7f8764a" y="64.322615"/>
     <use style="fill:#0000ff;stroke:#0000ff;" x="340.726588" xlink:href="#m09d7f8764a" y="128.401842"/>
     <use style="fill:#0000ff;stroke:#0000ff;" x="332.859319" xlink:href="#m09d7f8764a" y="112.881751"/>
     <use style="fill:#0000ff;stroke:#0000ff;" x="336.455533" xlink:href="#m09d7f8764a" y="119.34846"/>
     <use style="fill:#0000ff;stroke:#0000ff;" x="325.903495" xlink:href="#m09d7f8764a" y="103.375033"/>
     <use style="fill:#0000ff;stroke:#0000ff;" x="332.566162" xlink:href="#m09d7f8764a" y="112.406947"/>
     <use style="fill:#0000ff;stroke:#0000ff;" x="384.630737" xlink:href="#m09d7f8764a" y="166.663611"/>
     <use style="fill:#0000ff;stroke:#0000ff;" x="375.649117" xlink:href="#m09d7f8764a" y="154.693444"/>
     <use style="fill:#0000ff;stroke:#0000ff;" x="375.37426" xlink:href="#m09d7f8764a" y="150.156369"/>
     <use style="fill:#0000ff;stroke:#0000ff;" x="303.426996" xlink:href="#m09d7f8764a" y="79.042057"/>
     <use style="fill:#0000ff;stroke:#0000ff;" x="337.607254" xlink:href="#m09d7f8764a" y="122.09612"/>
     <use style="fill:#0000ff;stroke:#0000ff;" x="311.801829" xlink:href="#m09d7f8764a" y="93.441441"/>
     <use style="fill:#0000ff;stroke:#0000ff;" x="391.913599" xlink:href="#m09d7f8764a" y="174.630149"/>
     <use style="fill:#0000ff;stroke:#0000ff;" x="341.721974" xlink:href="#m09d7f8764a" y="129.730283"/>
     <use style="fill:#0000ff;stroke:#0000ff;" x="328.503486" xlink:href="#m09d7f8764a" y="105.669073"/>
     <use style="fill:#0000ff;stroke:#0000ff;" x="341.452406" xlink:href="#m09d7f8764a" y="129.643891"/>
     <use style="fill:#0000ff;stroke:#0000ff;" x="330.400551" xlink:href="#m09d7f8764a" y="108.141629"/>
     <use style="fill:#0000ff;stroke:#0000ff;" x="323.532717" xlink:href="#m09d7f8764a" y="101.939546"/>
     <use style="fill:#0000ff;stroke:#0000ff;" x="307.675431" xlink:href="#m09d7f8764a" y="85.6299"/>
     <use style="fill:#0000ff;stroke:#0000ff;" x="308.335889" xlink:href="#m09d7f8764a" y="87.840942"/>
     <use style="fill:#0000ff;stroke:#0000ff;" x="311.678819" xlink:href="#m09d7f8764a" y="93.196152"/>
     <use style="fill:#0000ff;stroke:#0000ff;" x="334.797975" xlink:href="#m09d7f8764a" y="117.47931"/>
     <use style="fill:#0000ff;stroke:#0000ff;" x="316.7085" xlink:href="#m09d7f8764a" y="100.71462"/>
     <use style="fill:#0000ff;stroke:#0000ff;" x="292.592706" xlink:href="#m09d7f8764a" y="64.562113"/>
     <use style="fill:#0000ff;stroke:#0000ff;" x="326.920904" xlink:href="#m09d7f8764a" y="104.135815"/>
     <use style="fill:#0000ff;stroke:#0000ff;" x="346.162889" xlink:href="#m09d7f8764a" y="136.370383"/>
     <use style="fill:#0000ff;stroke:#0000ff;" x="340.88566" xlink:href="#m09d7f8764a" y="129.029351"/>
     <use style="fill:#0000ff;stroke:#0000ff;" x="341.013613" xlink:href="#m09d7f8764a" y="129.437966"/>
     <use style="fill:#0000ff;stroke:#0000ff;" x="294.297066" xlink:href="#m09d7f8764a" y="66.84034"/>
     <use style="fill:#0000ff;stroke:#0000ff;" x="290.801276" xlink:href="#m09d7f8764a" y="64.436411"/>
     <use style="fill:#0000ff;stroke:#0000ff;" x="305.065643" xlink:href="#m09d7f8764a" y="81.105664"/>
     <use style="fill:#0000ff;stroke:#0000ff;" x="311.58778" xlink:href="#m09d7f8764a" y="92.763675"/>
     <use style="fill:#0000ff;stroke:#0000ff;" x="313.466442" xlink:href="#m09d7f8764a" y="95.552374"/>
    </g>
   </g>
   <g id="matplotlib.axis_1">
    <g id="xtick_1">
     <g id="line2d_1">
      <defs>
       <path d="M 0 0 
L 0 3.5 
" id="m2c6b91d156" style="stroke:#000000;stroke-width:0.8;"/>
      </defs>
      <g>
       <use style="stroke:#000000;stroke-width:0.8;" x="57.6" xlink:href="#m2c6b91d156" y="307.584"/>
      </g>
     </g>
     <g id="text_1">
      <!-- 4 -->
      <defs>
       <path d="M 37.796875 64.3125 
L 12.890625 25.390625 
L 37.796875 25.390625 
z
M 35.203125 72.90625 
L 47.609375 72.90625 
L 47.609375 25.390625 
L 58.015625 25.390625 
L 58.015625 17.1875 
L 47.609375 17.1875 
L 47.609375 0 
L 37.796875 0 
L 37.796875 17.1875 
L 4.890625 17.1875 
L 4.890625 26.703125 
z
" id="DejaVuSans-34"/>
      </defs>
      <g transform="translate(54.41875 322.182437)scale(0.1 -0.1)">
       <use xlink:href="#DejaVuSans-34"/>
      </g>
     </g>
    </g>
    <g id="xtick_2">
     <g id="line2d_2">
      <g>
       <use style="stroke:#000000;stroke-width:0.8;" x="102.24" xlink:href="#m2c6b91d156" y="307.584"/>
      </g>
     </g>
     <g id="text_2">
      <!-- 6 -->
      <defs>
       <path d="M 33.015625 40.375 
Q 26.375 40.375 22.484375 35.828125 
Q 18.609375 31.296875 18.609375 23.390625 
Q 18.609375 15.53125 22.484375 10.953125 
Q 26.375 6.390625 33.015625 6.390625 
Q 39.65625 6.390625 43.53125 10.953125 
Q 47.40625 15.53125 47.40625 23.390625 
Q 47.40625 31.296875 43.53125 35.828125 
Q 39.65625 40.375 33.015625 40.375 
z
M 52.59375 71.296875 
L 52.59375 62.3125 
Q 48.875 64.0625 45.09375 64.984375 
Q 41.3125 65.921875 37.59375 65.921875 
Q 27.828125 65.921875 22.671875 59.328125 
Q 17.53125 52.734375 16.796875 39.40625 
Q 19.671875 43.65625 24.015625 45.921875 
Q 28.375 48.1875 33.59375 48.1875 
Q 44.578125 48.1875 50.953125 41.515625 
Q 57.328125 34.859375 57.328125 23.390625 
Q 57.328125 12.15625 50.6875 5.359375 
Q 44.046875 -1.421875 33.015625 -1.421875 
Q 20.359375 -1.421875 13.671875 8.265625 
Q 6.984375 17.96875 6.984375 36.375 
Q 6.984375 53.65625 15.1875 63.9375 
Q 23.390625 74.21875 37.203125 74.21875 
Q 40.921875 74.21875 44.703125 73.484375 
Q 48.484375 72.75 52.59375 71.296875 
z
" id="DejaVuSans-36"/>
      </defs>
      <g transform="translate(99.05875 322.182437)scale(0.1 -0.1)">
       <use xlink:href="#DejaVuSans-36"/>
      </g>
     </g>
    </g>
    <g id="xtick_3">
     <g id="line2d_3">
      <g>
       <use style="stroke:#000000;stroke-width:0.8;" x="146.88" xlink:href="#m2c6b91d156" y="307.584"/>
      </g>
     </g>
     <g id="text_3">
      <!-- 8 -->
      <defs>
       <path d="M 31.78125 34.625 
Q 24.75 34.625 20.71875 30.859375 
Q 16.703125 27.09375 16.703125 20.515625 
Q 16.703125 13.921875 20.71875 10.15625 
Q 24.75 6.390625 31.78125 6.390625 
Q 38.8125 6.390625 42.859375 10.171875 
Q 46.921875 13.96875 46.921875 20.515625 
Q 46.921875 27.09375 42.890625 30.859375 
Q 38.875 34.625 31.78125 34.625 
z
M 21.921875 38.8125 
Q 15.578125 40.375 12.03125 44.71875 
Q 8.5 49.078125 8.5 55.328125 
Q 8.5 64.0625 14.71875 69.140625 
Q 20.953125 74.21875 31.78125 74.21875 
Q 42.671875 74.21875 48.875 69.140625 
Q 55.078125 64.0625 55.078125 55.328125 
Q 55.078125 49.078125 51.53125 44.71875 
Q 48 40.375 41.703125 38.8125 
Q 48.828125 37.15625 52.796875 32.3125 
Q 56.78125 27.484375 56.78125 20.515625 
Q 56.78125 9.90625 50.3125 4.234375 
Q 43.84375 -1.421875 31.78125 -1.421875 
Q 19.734375 -1.421875 13.25 4.234375 
Q 6.78125 9.90625 6.78125 20.515625 
Q 6.78125 27.484375 10.78125 32.3125 
Q 14.796875 37.15625 21.921875 38.8125 
z
M 18.3125 54.390625 
Q 18.3125 48.734375 21.84375 45.5625 
Q 25.390625 42.390625 31.78125 42.390625 
Q 38.140625 42.390625 41.71875 45.5625 
Q 45.3125 48.734375 45.3125 54.390625 
Q 45.3125 60.0625 41.71875 63.234375 
Q 38.140625 66.40625 31.78125 66.40625 
Q 25.390625 66.40625 21.84375 63.234375 
Q 18.3125 60.0625 18.3125 54.390625 
z
" id="DejaVuSans-38"/>
      </defs>
      <g transform="translate(143.69875 322.182437)scale(0.1 -0.1)">
       <use xlink:href="#DejaVuSans-38"/>
      </g>
     </g>
    </g>
    <g id="xtick_4">
     <g id="line2d_4">
      <g>
       <use style="stroke:#000000;stroke-width:0.8;" x="191.52" xlink:href="#m2c6b91d156" y="307.584"/>
      </g>
     </g>
     <g id="text_4">
      <!-- 10 -->
      <defs>
       <path d="M 12.40625 8.296875 
L 28.515625 8.296875 
L 28.515625 63.921875 
L 10.984375 60.40625 
L 10.984375 69.390625 
L 28.421875 72.90625 
L 38.28125 72.90625 
L 38.28125 8.296875 
L 54.390625 8.296875 
L 54.390625 0 
L 12.40625 0 
z
" id="DejaVuSans-31"/>
       <path d="M 31.78125 66.40625 
Q 24.171875 66.40625 20.328125 58.90625 
Q 16.5 51.421875 16.5 36.375 
Q 16.5 21.390625 20.328125 13.890625 
Q 24.171875 6.390625 31.78125 6.390625 
Q 39.453125 6.390625 43.28125 13.890625 
Q 47.125 21.390625 47.125 36.375 
Q 47.125 51.421875 43.28125 58.90625 
Q 39.453125 66.40625 31.78125 66.40625 
z
M 31.78125 74.21875 
Q 44.046875 74.21875 50.515625 64.515625 
Q 56.984375 54.828125 56.984375 36.375 
Q 56.984375 17.96875 50.515625 8.265625 
Q 44.046875 -1.421875 31.78125 -1.421875 
Q 19.53125 -1.421875 13.0625 8.265625 
Q 6.59375 17.96875 6.59375 36.375 
Q 6.59375 54.828125 13.0625 64.515625 
Q 19.53125 74.21875 31.78125 74.21875 
z
" id="DejaVuSans-30"/>
      </defs>
      <g transform="translate(185.1575 322.182437)scale(0.1 -0.1)">
       <use xlink:href="#DejaVuSans-31"/>
       <use x="63.623047" xlink:href="#DejaVuSans-30"/>
      </g>
     </g>
    </g>
    <g id="xtick_5">
     <g id="line2d_5">
      <g>
       <use style="stroke:#000000;stroke-width:0.8;" x="236.16" xlink:href="#m2c6b91d156" y="307.584"/>
      </g>
     </g>
     <g id="text_5">
      <!-- 12 -->
      <defs>
       <path d="M 19.1875 8.296875 
L 53.609375 8.296875 
L 53.609375 0 
L 7.328125 0 
L 7.328125 8.296875 
Q 12.9375 14.109375 22.625 23.890625 
Q 32.328125 33.6875 34.8125 36.53125 
Q 39.546875 41.84375 41.421875 45.53125 
Q 43.3125 49.21875 43.3125 52.78125 
Q 43.3125 58.59375 39.234375 62.25 
Q 35.15625 65.921875 28.609375 65.921875 
Q 23.96875 65.921875 18.8125 64.3125 
Q 13.671875 62.703125 7.8125 59.421875 
L 7.8125 69.390625 
Q 13.765625 71.78125 18.9375 73 
Q 24.125 74.21875 28.421875 74.21875 
Q 39.75 74.21875 46.484375 68.546875 
Q 53.21875 62.890625 53.21875 53.421875 
Q 53.21875 48.921875 51.53125 44.890625 
Q 49.859375 40.875 45.40625 35.40625 
Q 44.1875 33.984375 37.640625 27.21875 
Q 31.109375 20.453125 19.1875 8.296875 
z
" id="DejaVuSans-32"/>
      </defs>
      <g transform="translate(229.7975 322.182437)scale(0.1 -0.1)">
       <use xlink:href="#DejaVuSans-31"/>
       <use x="63.623047" xlink:href="#DejaVuSans-32"/>
      </g>
     </g>
    </g>
    <g id="xtick_6">
     <g id="line2d_6">
      <g>
       <use style="stroke:#000000;stroke-width:0.8;" x="280.8" xlink:href="#m2c6b91d156" y="307.584"/>
      </g>
     </g>
     <g id="text_6">
      <!-- 14 -->
      <g transform="translate(274.4375 322.182437)scale(0.1 -0.1)">
       <use xlink:href="#DejaVuSans-31"/>
       <use x="63.623047" xlink:href="#DejaVuSans-34"/>
      </g>
     </g>
    </g>
    <g id="xtick_7">
     <g id="line2d_7">
      <g>
       <use style="stroke:#000000;stroke-width:0.8;" x="325.44" xlink:href="#m2c6b91d156" y="307.584"/>
      </g>
     </g>
     <g id="text_7">
      <!-- 16 -->
      <g transform="translate(319.0775 322.182437)scale(0.1 -0.1)">
       <use xlink:href="#DejaVuSans-31"/>
       <use x="63.623047" xlink:href="#DejaVuSans-36"/>
      </g>
     </g>
    </g>
    <g id="xtick_8">
     <g id="line2d_8">
      <g>
       <use style="stroke:#000000;stroke-width:0.8;" x="370.08" xlink:href="#m2c6b91d156" y="307.584"/>
      </g>
     </g>
     <g id="text_8">
      <!-- 18 -->
      <g transform="translate(363.7175 322.182437)scale(0.1 -0.1)">
       <use xlink:href="#DejaVuSans-31"/>
       <use x="63.623047" xlink:href="#DejaVuSans-38"/>
      </g>
     </g>
    </g>
    <g id="xtick_9">
     <g id="line2d_9">
      <g>
       <use style="stroke:#000000;stroke-width:0.8;" x="414.72" xlink:href="#m2c6b91d156" y="307.584"/>
      </g>
     </g>
     <g id="text_9">
      <!-- 20 -->
      <g transform="translate(408.3575 322.182437)scale(0.1 -0.1)">
       <use xlink:href="#DejaVuSans-32"/>
       <use x="63.623047" xlink:href="#DejaVuSans-30"/>
      </g>
     </g>
    </g>
   </g>
   <g id="matplotlib.axis_2">
    <g id="ytick_1">
     <g id="line2d_10">
      <defs>
       <path d="M 0 0 
L -3.5 0 
" id="me51cfba931" style="stroke:#000000;stroke-width:0.8;"/>
      </defs>
      <g>
       <use style="stroke:#000000;stroke-width:0.8;" x="57.6" xlink:href="#me51cfba931" y="269.568"/>
      </g>
     </g>
     <g id="text_10">
      <!-- −10 -->
      <defs>
       <path d="M 10.59375 35.5 
L 73.1875 35.5 
L 73.1875 27.203125 
L 10.59375 27.203125 
z
" id="DejaVuSans-2212"/>
      </defs>
      <g transform="translate(29.495313 273.367219)scale(0.1 -0.1)">
       <use xlink:href="#DejaVuSans-2212"/>
       <use x="83.789062" xlink:href="#DejaVuSans-31"/>
       <use x="147.412109" xlink:href="#DejaVuSans-30"/>
      </g>
     </g>
    </g>
    <g id="ytick_2">
     <g id="line2d_11">
      <g>
       <use style="stroke:#000000;stroke-width:0.8;" x="57.6" xlink:href="#me51cfba931" y="222.048"/>
      </g>
     </g>
     <g id="text_11">
      <!-- −5 -->
      <defs>
       <path d="M 10.796875 72.90625 
L 49.515625 72.90625 
L 49.515625 64.59375 
L 19.828125 64.59375 
L 19.828125 46.734375 
Q 21.96875 47.46875 24.109375 47.828125 
Q 26.265625 48.1875 28.421875 48.1875 
Q 40.625 48.1875 47.75 41.5 
Q 54.890625 34.8125 54.890625 23.390625 
Q 54.890625 11.625 47.5625 5.09375 
Q 40.234375 -1.421875 26.90625 -1.421875 
Q 22.3125 -1.421875 17.546875 -0.640625 
Q 12.796875 0.140625 7.71875 1.703125 
L 7.71875 11.625 
Q 12.109375 9.234375 16.796875 8.0625 
Q 21.484375 6.890625 26.703125 6.890625 
Q 35.15625 6.890625 40.078125 11.328125 
Q 45.015625 15.765625 45.015625 23.390625 
Q 45.015625 31 40.078125 35.4375 
Q 35.15625 39.890625 26.703125 39.890625 
Q 22.75 39.890625 18.8125 39.015625 
Q 14.890625 38.140625 10.796875 36.28125 
z
" id="DejaVuSans-35"/>
      </defs>
      <g transform="translate(35.857813 225.847219)scale(0.1 -0.1)">
       <use xlink:href="#DejaVuSans-2212"/>
       <use x="83.789062" xlink:href="#DejaVuSans-35"/>
      </g>
     </g>
    </g>
    <g id="ytick_3">
     <g id="line2d_12">
      <g>
       <use style="stroke:#000000;stroke-width:0.8;" x="57.6" xlink:href="#me51cfba931" y="174.528"/>
      </g>
     </g>
     <g id="text_12">
      <!-- 0 -->
      <g transform="translate(44.2375 178.327219)scale(0.1 -0.1)">
       <use xlink:href="#DejaVuSans-30"/>
      </g>
     </g>
    </g>
    <g id="ytick_4">
     <g id="line2d_13">
      <g>
       <use style="stroke:#000000;stroke-width:0.8;" x="57.6" xlink:href="#me51cfba931" y="127.008"/>
      </g>
     </g>
     <g id="text_13">
      <!-- 5 -->
      <g transform="translate(44.2375 130.807219)scale(0.1 -0.1)">
       <use xlink:href="#DejaVuSans-35"/>
      </g>
     </g>
    </g>
    <g id="ytick_5">
     <g id="line2d_14">
      <g>
       <use style="stroke:#000000;stroke-width:0.8;" x="57.6" xlink:href="#me51cfba931" y="79.488"/>
      </g>
     </g>
     <g id="text_14">
      <!-- 10 -->
      <g transform="translate(37.875 83.287219)scale(0.1 -0.1)">
       <use xlink:href="#DejaVuSans-31"/>
       <use x="63.623047" xlink:href="#DejaVuSans-30"/>
      </g>
     </g>
    </g>
   </g>
   <g id="patch_3">
    <path d="M 57.6 307.584 
L 57.6 41.472 
" style="fill:none;stroke:#000000;stroke-linecap:square;stroke-linejoin:miter;stroke-width:0.8;"/>
   </g>
   <g id="patch_4">
    <path d="M 414.72 307.584 
L 414.72 41.472 
" style="fill:none;stroke:#000000;stroke-linecap:square;stroke-linejoin:miter;stroke-width:0.8;"/>
   </g>
   <g id="patch_5">
    <path d="M 57.6 307.584 
L 414.72 307.584 
" style="fill:none;stroke:#000000;stroke-linecap:square;stroke-linejoin:miter;stroke-width:0.8;"/>
   </g>
   <g id="patch_6">
    <path d="M 57.6 41.472 
L 414.72 41.472 
" style="fill:none;stroke:#000000;stroke-linecap:square;stroke-linejoin:miter;stroke-width:0.8;"/>
   </g>
  </g>
 </g>
 <defs>
  <clipPath id="p6e9a55ab56">
   <rect height="266.112" width="357.12" x="57.6" y="41.472"/>
  </clipPath>
 </defs>
</svg>
