<?xml version="1.0" encoding="utf-8" standalone="no"?>
<!DOCTYPE svg PUBLIC "-//W3C//DTD SVG 1.1//EN"
  "http://www.w3.org/Graphics/SVG/1.1/DTD/svg11.dtd">
<!-- Created with matplotlib (http://matplotlib.org/) -->
<svg height="345.6pt" version="1.1" viewBox="0 0 460.8 345.6" width="460.8pt" xmlns="http://www.w3.org/2000/svg" xmlns:xlink="http://www.w3.org/1999/xlink">
 <defs>
  <style type="text/css">
*{stroke-linecap:butt;stroke-linejoin:round;}
  </style>
 </defs>
 <g id="figure_1">
  <g id="patch_1">
   <path d="M 0 345.6 
L 460.8 345.6 
L 460.8 0 
L 0 0 
z
" style="fill:#ffffff;"/>
  </g>
  <g id="axes_1">
   <g id="patch_2">
    <path d="M 57.6 307.584 
L 414.72 307.584 
L 414.72 41.472 
L 57.6 41.472 
z
" style="fill:#ffffff;"/>
   </g>
   <g id="PathCollection_1">
    <defs>
     <path d="M 0 0.612372 
C 0.162403 0.612372 0.318176 0.547849 0.433013 0.433013 
C 0.547849 0.318176 0.612372 0.162403 0.612372 0 
C 0.612372 -0.162403 0.547849 -0.318176 0.433013 -0.433013 
C 0.318176 -0.547849 0.162403 -0.612372 0 -0.612372 
C -0.162403 -0.612372 -0.318176 -0.547849 -0.433013 -0.433013 
C -0.547849 -0.318176 -0.612372 -0.162403 -0.612372 0 
C -0.612372 0.162403 -0.547849 0.318176 -0.433013 0.433013 
C -0.318176 0.547849 -0.162403 0.612372 0 0.612372 
z
" id="mbf670f9491" style="stroke:#000000;"/>
    </defs>
    <g clip-path="url(#p2d2335aff9)">
     <use style="stroke:#000000;" x="299.318741" xlink:href="#mbf670f9491" y="71.638632"/>
     <use style="stroke:#000000;" x="307.1048" xlink:href="#mbf670f9491" y="85.065984"/>
     <use style="stroke:#000000;" x="340.075649" xlink:href="#mbf670f9491" y="127.269927"/>
     <use style="stroke:#000000;" x="301.940533" xlink:href="#mbf670f9491" y="75.82678"/>
     <use style="stroke:#000000;" x="296.186774" xlink:href="#mbf670f9491" y="69.12162"/>
     <use style="stroke:#000000;" x="325.258882" xlink:href="#mbf670f9491" y="102.331341"/>
     <use style="stroke:#000000;" x="336.857585" xlink:href="#mbf670f9491" y="120.669339"/>
     <use style="stroke:#000000;" x="335.390272" xlink:href="#mbf670f9491" y="118.558149"/>
     <use style="stroke:#000000;" x="329.998998" xlink:href="#mbf670f9491" y="107.871067"/>
     <use style="stroke:#000000;" x="311.535095" xlink:href="#mbf670f9491" y="93.977395"/>
     <use style="stroke:#000000;" x="323.206899" xlink:href="#mbf670f9491" y="101.787905"/>
     <use style="stroke:#000000;" x="389.769931" xlink:href="#mbf670f9491" y="171.496915"/>
     <use style="stroke:#000000;" x="342.06367" xlink:href="#mbf670f9491" y="131.019669"/>
     <use style="stroke:#000000;" x="308.669654" xlink:href="#mbf670f9491" y="91.886263"/>
     <use style="stroke:#000000;" x="381.839358" xlink:href="#mbf670f9491" y="161.481229"/>
     <use style="stroke:#000000;" x="345.71808" xlink:href="#mbf670f9491" y="137.830505"/>
     <use style="stroke:#000000;" x="301.126666" xlink:href="#mbf670f9491" y="74.644318"/>
     <use style="stroke:#000000;" x="314.139646" xlink:href="#mbf670f9491" y="97.003924"/>
     <use style="stroke:#000000;" x="300.759605" xlink:href="#mbf670f9491" y="74.538251"/>
     <use style="stroke:#000000;" x="300.670613" xlink:href="#mbf670f9491" y="74.447642"/>
     <use style="stroke:#000000;" x="305.719067" xlink:href="#mbf670f9491" y="82.762778"/>
     <use style="stroke:#000000;" x="329.781006" xlink:href="#mbf670f9491" y="107.296508"/>
     <use style="stroke:#000000;" x="328.674009" xlink:href="#mbf670f9491" y="105.984266"/>
     <use style="stroke:#000000;" x="325.957971" xlink:href="#mbf670f9491" y="102.896867"/>
     <use style="stroke:#000000;" x="296.00989" xlink:href="#mbf670f9491" y="68.851888"/>
     <use style="stroke:#000000;" x="301.229836" xlink:href="#mbf670f9491" y="74.789936"/>
     <use style="stroke:#000000;" x="394.178809" xlink:href="#mbf670f9491" y="175.275479"/>
     <use style="stroke:#000000;" x="343.946874" xlink:href="#mbf670f9491" y="134.009196"/>
     <use style="stroke:#000000;" x="313.104277" xlink:href="#mbf670f9491" y="95.109209"/>
     <use style="stroke:#000000;" x="365.256078" xlink:href="#mbf670f9491" y="140.996566"/>
     <use style="stroke:#000000;" x="294.400309" xlink:href="#mbf670f9491" y="66.310532"/>
     <use style="stroke:#000000;" x="375.864508" xlink:href="#mbf670f9491" y="152.928366"/>
     <use style="stroke:#000000;" x="343.379738" xlink:href="#mbf670f9491" y="132.947876"/>
     <use style="stroke:#000000;" x="313.565658" xlink:href="#mbf670f9491" y="95.685327"/>
     <use style="stroke:#000000;" x="330.143123" xlink:href="#mbf670f9491" y="107.969444"/>
     <use style="stroke:#000000;" x="327.025206" xlink:href="#mbf670f9491" y="104.210498"/>
     <use style="stroke:#000000;" x="294.236513" xlink:href="#mbf670f9491" y="66.151625"/>
     <use style="stroke:#000000;" x="340.679581" xlink:href="#mbf670f9491" y="127.748503"/>
     <use style="stroke:#000000;" x="308.364711" xlink:href="#mbf670f9491" y="88.843579"/>
     <use style="stroke:#000000;" x="300.23784" xlink:href="#mbf670f9491" y="73.596047"/>
     <use style="stroke:#000000;" x="307.675431" xlink:href="#mbf670f9491" y="85.6299"/>
     <use style="stroke:#000000;" x="292.592706" xlink:href="#mbf670f9491" y="64.562113"/>
     <use style="stroke:#000000;" x="291.002922" xlink:href="#mbf670f9491" y="64.153909"/>
     <use style="stroke:#000000;" x="341.452406" xlink:href="#mbf670f9491" y="129.643891"/>
     <use style="stroke:#000000;" x="384.630737" xlink:href="#mbf670f9491" y="166.663611"/>
     <use style="stroke:#000000;" x="323.532717" xlink:href="#mbf670f9491" y="101.939546"/>
     <use style="stroke:#000000;" x="303.426996" xlink:href="#mbf670f9491" y="79.042057"/>
     <use style="stroke:#000000;" x="332.566162" xlink:href="#mbf670f9491" y="112.406947"/>
     <use style="stroke:#000000;" x="391.913599" xlink:href="#mbf670f9491" y="174.630149"/>
     <use style="stroke:#000000;" x="340.726588" xlink:href="#mbf670f9491" y="128.401842"/>
     <use style="stroke:#000000;" x="308.335889" xlink:href="#mbf670f9491" y="87.840942"/>
     <use style="stroke:#000000;" x="332.859319" xlink:href="#mbf670f9491" y="112.881751"/>
     <use style="stroke:#000000;" x="338.141458" xlink:href="#mbf670f9491" y="123.246618"/>
     <use style="stroke:#000000;" x="336.180205" xlink:href="#mbf670f9491" y="118.651412"/>
     <use style="stroke:#000000;" x="341.721974" xlink:href="#mbf670f9491" y="129.730283"/>
     <use style="stroke:#000000;" x="328.503486" xlink:href="#mbf670f9491" y="105.669073"/>
     <use style="stroke:#000000;" x="303.354297" xlink:href="#mbf670f9491" y="78.450058"/>
     <use style="stroke:#000000;" x="326.919768" xlink:href="#mbf670f9491" y="103.811108"/>
     <use style="stroke:#000000;" x="404.548853" xlink:href="#mbf670f9491" y="177.32506"/>
     <use style="stroke:#000000;" x="308.101301" xlink:href="#mbf670f9491" y="86.691289"/>
     <use style="stroke:#000000;" x="374.236151" xlink:href="#mbf670f9491" y="145.297364"/>
     <use style="stroke:#000000;" x="345.31703" xlink:href="#mbf670f9491" y="135.165436"/>
     <use style="stroke:#000000;" x="331.379205" xlink:href="#mbf670f9491" y="109.876106"/>
     <use style="stroke:#000000;" x="330.400551" xlink:href="#mbf670f9491" y="108.141629"/>
     <use style="stroke:#000000;" x="344.197478" xlink:href="#mbf670f9491" y="134.292398"/>
     <use style="stroke:#000000;" x="297.314969" xlink:href="#mbf670f9491" y="70.002353"/>
     <use style="stroke:#000000;" x="338.664442" xlink:href="#mbf670f9491" y="123.782959"/>
     <use style="stroke:#000000;" x="312.564638" xlink:href="#mbf670f9491" y="94.578226"/>
     <use style="stroke:#000000;" x="302.863583" xlink:href="#mbf670f9491" y="77.548018"/>
     <use style="stroke:#000000;" x="339.396969" xlink:href="#mbf670f9491" y="125.190073"/>
     <use style="stroke:#000000;" x="340.778618" xlink:href="#mbf670f9491" y="128.580295"/>
     <use style="stroke:#000000;" x="340.310788" xlink:href="#mbf670f9491" y="127.309133"/>
     <use style="stroke:#000000;" x="302.338558" xlink:href="#mbf670f9491" y="77.14203"/>
     <use style="stroke:#000000;" x="332.663015" xlink:href="#mbf670f9491" y="112.642583"/>
     <use style="stroke:#000000;" x="295.9095" xlink:href="#mbf670f9491" y="67.924765"/>
     <use style="stroke:#000000;" x="303.607746" xlink:href="#mbf670f9491" y="81.267739"/>
     <use style="stroke:#000000;" x="375.470555" xlink:href="#mbf670f9491" y="149.586539"/>
     <use style="stroke:#000000;" x="333.919494" xlink:href="#mbf670f9491" y="115.139332"/>
     <use style="stroke:#000000;" x="382.867794" xlink:href="#mbf670f9491" y="162.966076"/>
     <use style="stroke:#000000;" x="315.474445" xlink:href="#mbf670f9491" y="99.072645"/>
     <use style="stroke:#000000;" x="292.793241" xlink:href="#mbf670f9491" y="65.59464"/>
     <use style="stroke:#000000;" x="336.530432" xlink:href="#mbf670f9491" y="119.320591"/>
     <use style="stroke:#000000;" x="365.67147" xlink:href="#mbf670f9491" y="143.725383"/>
     <use style="stroke:#000000;" x="340.975256" xlink:href="#mbf670f9491" y="129.216796"/>
     <use style="stroke:#000000;" x="376.570535" xlink:href="#mbf670f9491" y="153.980884"/>
     <use style="stroke:#000000;" x="326.095166" xlink:href="#mbf670f9491" y="102.900616"/>
     <use style="stroke:#000000;" x="328.84752" xlink:href="#mbf670f9491" y="106.42642"/>
     <use style="stroke:#000000;" x="333.171347" xlink:href="#mbf670f9491" y="113.331444"/>
     <use style="stroke:#000000;" x="339.0789" xlink:href="#mbf670f9491" y="124.885306"/>
     <use style="stroke:#000000;" x="331.691372" xlink:href="#mbf670f9491" y="111.309645"/>
     <use style="stroke:#000000;" x="331.974365" xlink:href="#mbf670f9491" y="112.28727"/>
     <use style="stroke:#000000;" x="300.594464" xlink:href="#mbf670f9491" y="73.609108"/>
     <use style="stroke:#000000;" x="326.2264" xlink:href="#mbf670f9491" y="103.114314"/>
     <use style="stroke:#000000;" x="304.701603" xlink:href="#mbf670f9491" y="81.406068"/>
     <use style="stroke:#000000;" x="308.150751" xlink:href="#mbf670f9491" y="86.916774"/>
     <use style="stroke:#000000;" x="335.26211" xlink:href="#mbf670f9491" y="117.518617"/>
     <use style="stroke:#000000;" x="341.193127" xlink:href="#mbf670f9491" y="129.551528"/>
     <use style="stroke:#000000;" x="305.28639" xlink:href="#mbf670f9491" y="81.978586"/>
     <use style="stroke:#000000;" x="383.968903" xlink:href="#mbf670f9491" y="166.619831"/>
     <use style="stroke:#000000;" x="350.31302" xlink:href="#mbf670f9491" y="139.021238"/>
     <use style="stroke:#000000;" x="297.670628" xlink:href="#mbf670f9491" y="88.033683"/>
     <use style="stroke:#000000;" x="307.252269" xlink:href="#mbf670f9491" y="85.31426"/>
     <use style="stroke:#000000;" x="338.860237" xlink:href="#mbf670f9491" y="133.07659"/>
     <use style="stroke:#000000;" x="302.450572" xlink:href="#mbf670f9491" y="86.406932"/>
     <use style="stroke:#000000;" x="295.883708" xlink:href="#mbf670f9491" y="72.343558"/>
     <use style="stroke:#000000;" x="331.01581" xlink:href="#mbf670f9491" y="118.75447"/>
     <use style="stroke:#000000;" x="337.142324" xlink:href="#mbf670f9491" y="126.295734"/>
     <use style="stroke:#000000;" x="335.827261" xlink:href="#mbf670f9491" y="120.768697"/>
     <use style="stroke:#000000;" x="334.442598" xlink:href="#mbf670f9491" y="118.472763"/>
     <use style="stroke:#000000;" x="324.011114" xlink:href="#mbf670f9491" y="117.224148"/>
     <use style="stroke:#000000;" x="323.562739" xlink:href="#mbf670f9491" y="105.312935"/>
     <use style="stroke:#000000;" x="380.512707" xlink:href="#mbf670f9491" y="167.793977"/>
     <use style="stroke:#000000;" x="346.37925" xlink:href="#mbf670f9491" y="140.111527"/>
     <use style="stroke:#000000;" x="320.170764" xlink:href="#mbf670f9491" y="106.329736"/>
     <use style="stroke:#000000;" x="375.558077" xlink:href="#mbf670f9491" y="163.273897"/>
     <use style="stroke:#000000;" x="346.236125" xlink:href="#mbf670f9491" y="137.538275"/>
     <use style="stroke:#000000;" x="302.121117" xlink:href="#mbf670f9491" y="78.892244"/>
     <use style="stroke:#000000;" x="312.400072" xlink:href="#mbf670f9491" y="111.288399"/>
     <use style="stroke:#000000;" x="306.554004" xlink:href="#mbf670f9491" y="88.425041"/>
     <use style="stroke:#000000;" x="313.623755" xlink:href="#mbf670f9491" y="101.678158"/>
     <use style="stroke:#000000;" x="306.38692" xlink:href="#mbf670f9491" y="86.703517"/>
     <use style="stroke:#000000;" x="325.913918" xlink:href="#mbf670f9491" y="105.81573"/>
     <use style="stroke:#000000;" x="338.84762" xlink:href="#mbf670f9491" y="124.269492"/>
     <use style="stroke:#000000;" x="336.160141" xlink:href="#mbf670f9491" y="121.016282"/>
     <use style="stroke:#000000;" x="296.863104" xlink:href="#mbf670f9491" y="77.481689"/>
     <use style="stroke:#000000;" x="301.055408" xlink:href="#mbf670f9491" y="86.94148"/>
     <use style="stroke:#000000;" x="390.861489" xlink:href="#mbf670f9491" y="179.315126"/>
     <use style="stroke:#000000;" x="354.705298" xlink:href="#mbf670f9491" y="148.973709"/>
     <use style="stroke:#000000;" x="313.314365" xlink:href="#mbf670f9491" y="99.299824"/>
     <use style="stroke:#000000;" x="361.418347" xlink:href="#mbf670f9491" y="143.884711"/>
     <use style="stroke:#000000;" x="298.082243" xlink:href="#mbf670f9491" y="78.229268"/>
     <use style="stroke:#000000;" x="368.440684" xlink:href="#mbf670f9491" y="159.722287"/>
     <use style="stroke:#000000;" x="340.089256" xlink:href="#mbf670f9491" y="127.472749"/>
     <use style="stroke:#000000;" x="309.900454" xlink:href="#mbf670f9491" y="90.937939"/>
     <use style="stroke:#000000;" x="327.167523" xlink:href="#mbf670f9491" y="104.602926"/>
     <use style="stroke:#000000;" x="322.675462" xlink:href="#mbf670f9491" y="102.43681"/>
     <use style="stroke:#000000;" x="290.464505" xlink:href="#mbf670f9491" y="66.317617"/>
     <use style="stroke:#000000;" x="338.458355" xlink:href="#mbf670f9491" y="123.873911"/>
     <use style="stroke:#000000;" x="306.818152" xlink:href="#mbf670f9491" y="84.555094"/>
     <use style="stroke:#000000;" x="292.964401" xlink:href="#mbf670f9491" y="68.061317"/>
     <use style="stroke:#000000;" x="304.06497" xlink:href="#mbf670f9491" y="82.247517"/>
     <use style="stroke:#000000;" x="289.754951" xlink:href="#mbf670f9491" y="64.489567"/>
     <use style="stroke:#000000;" x="289.835112" xlink:href="#mbf670f9491" y="64.783763"/>
     <use style="stroke:#000000;" x="337.317694" xlink:href="#mbf670f9491" y="122.10703"/>
     <use style="stroke:#000000;" x="383.463097" xlink:href="#mbf670f9491" y="169.428906"/>
     <use style="stroke:#000000;" x="321.769651" xlink:href="#mbf670f9491" y="102.621799"/>
     <use style="stroke:#000000;" x="302.141443" xlink:href="#mbf670f9491" y="79.201131"/>
     <use style="stroke:#000000;" x="328.74405" xlink:href="#mbf670f9491" y="107.505461"/>
     <use style="stroke:#000000;" x="390.271931" xlink:href="#mbf670f9491" y="174.617107"/>
     <use style="stroke:#000000;" x="340.600227" xlink:href="#mbf670f9491" y="128.980523"/>
    </g>
   </g>
   <g id="PathCollection_2">
    <defs>
     <path d="M 0 0.935414 
C 0.248075 0.935414 0.486022 0.836853 0.661438 0.661438 
C 0.836853 0.486022 0.935414 0.248075 0.935414 0 
C 0.935414 -0.248075 0.836853 -0.486022 0.661438 -0.661438 
C 0.486022 -0.836853 0.248075 -0.935414 0 -0.935414 
C -0.248075 -0.935414 -0.486022 -0.836853 -0.661438 -0.661438 
C -0.836853 -0.486022 -0.935414 -0.248075 -0.935414 0 
C -0.935414 0.248075 -0.836853 0.486022 -0.661438 0.661438 
C -0.486022 0.836853 -0.248075 0.935414 0 0.935414 
z
" id="m7c5a47f25d" style="stroke:#0000ff;"/>
    </defs>
    <g clip-path="url(#p2d2335aff9)">
     <use style="fill:#0000ff;stroke:#0000ff;" x="299.318741" xlink:href="#m7c5a47f25d" y="71.638632"/>
     <use style="fill:#0000ff;stroke:#0000ff;" x="307.1048" xlink:href="#m7c5a47f25d" y="85.065984"/>
     <use style="fill:#0000ff;stroke:#0000ff;" x="340.075649" xlink:href="#m7c5a47f25d" y="127.269927"/>
     <use style="fill:#0000ff;stroke:#0000ff;" x="301.940533" xlink:href="#m7c5a47f25d" y="75.82678"/>
     <use style="fill:#0000ff;stroke:#0000ff;" x="296.186774" xlink:href="#m7c5a47f25d" y="69.12162"/>
     <use style="fill:#0000ff;stroke:#0000ff;" x="325.258882" xlink:href="#m7c5a47f25d" y="102.331341"/>
     <use style="fill:#0000ff;stroke:#0000ff;" x="336.857585" xlink:href="#m7c5a47f25d" y="120.669339"/>
     <use style="fill:#0000ff;stroke:#0000ff;" x="335.390272" xlink:href="#m7c5a47f25d" y="118.558149"/>
     <use style="fill:#0000ff;stroke:#0000ff;" x="329.998998" xlink:href="#m7c5a47f25d" y="107.871067"/>
     <use style="fill:#0000ff;stroke:#0000ff;" x="311.535095" xlink:href="#m7c5a47f25d" y="93.977395"/>
     <use style="fill:#0000ff;stroke:#0000ff;" x="323.206899" xlink:href="#m7c5a47f25d" y="101.787905"/>
     <use style="fill:#0000ff;stroke:#0000ff;" x="389.769931" xlink:href="#m7c5a47f25d" y="171.496915"/>
     <use style="fill:#0000ff;stroke:#0000ff;" x="342.06367" xlink:href="#m7c5a47f25d" y="131.019669"/>
     <use style="fill:#0000ff;stroke:#0000ff;" x="308.669654" xlink:href="#m7c5a47f25d" y="91.886263"/>
     <use style="fill:#0000ff;stroke:#0000ff;" x="381.839358" xlink:href="#m7c5a47f25d" y="161.481229"/>
     <use style="fill:#0000ff;stroke:#0000ff;" x="345.71808" xlink:href="#m7c5a47f25d" y="137.830505"/>
     <use style="fill:#0000ff;stroke:#0000ff;" x="301.126666" xlink:href="#m7c5a47f25d" y="74.644318"/>
     <use style="fill:#0000ff;stroke:#0000ff;" x="314.139646" xlink:href="#m7c5a47f25d" y="97.003924"/>
     <use style="fill:#0000ff;stroke:#0000ff;" x="300.759605" xlink:href="#m7c5a47f25d" y="74.538251"/>
     <use style="fill:#0000ff;stroke:#0000ff;" x="300.670613" xlink:href="#m7c5a47f25d" y="74.447642"/>
     <use style="fill:#0000ff;stroke:#0000ff;" x="305.719067" xlink:href="#m7c5a47f25d" y="82.762778"/>
     <use style="fill:#0000ff;stroke:#0000ff;" x="329.781006" xlink:href="#m7c5a47f25d" y="107.296508"/>
     <use style="fill:#0000ff;stroke:#0000ff;" x="328.674009" xlink:href="#m7c5a47f25d" y="105.984266"/>
     <use style="fill:#0000ff;stroke:#0000ff;" x="325.957971" xlink:href="#m7c5a47f25d" y="102.896867"/>
     <use style="fill:#0000ff;stroke:#0000ff;" x="296.00989" xlink:href="#m7c5a47f25d" y="68.851888"/>
     <use style="fill:#0000ff;stroke:#0000ff;" x="301.229836" xlink:href="#m7c5a47f25d" y="74.789936"/>
     <use style="fill:#0000ff;stroke:#0000ff;" x="394.178809" xlink:href="#m7c5a47f25d" y="175.275479"/>
     <use style="fill:#0000ff;stroke:#0000ff;" x="343.946874" xlink:href="#m7c5a47f25d" y="134.009196"/>
     <use style="fill:#0000ff;stroke:#0000ff;" x="313.104277" xlink:href="#m7c5a47f25d" y="95.109209"/>
     <use style="fill:#0000ff;stroke:#0000ff;" x="365.256078" xlink:href="#m7c5a47f25d" y="140.996566"/>
     <use style="fill:#0000ff;stroke:#0000ff;" x="294.400309" xlink:href="#m7c5a47f25d" y="66.310532"/>
     <use style="fill:#0000ff;stroke:#0000ff;" x="375.864508" xlink:href="#m7c5a47f25d" y="152.928366"/>
     <use style="fill:#0000ff;stroke:#0000ff;" x="343.379738" xlink:href="#m7c5a47f25d" y="132.947876"/>
     <use style="fill:#0000ff;stroke:#0000ff;" x="313.565658" xlink:href="#m7c5a47f25d" y="95.685327"/>
     <use style="fill:#0000ff;stroke:#0000ff;" x="330.143123" xlink:href="#m7c5a47f25d" y="107.969444"/>
     <use style="fill:#0000ff;stroke:#0000ff;" x="327.025206" xlink:href="#m7c5a47f25d" y="104.210498"/>
     <use style="fill:#0000ff;stroke:#0000ff;" x="294.236513" xlink:href="#m7c5a47f25d" y="66.151625"/>
     <use style="fill:#0000ff;stroke:#0000ff;" x="340.679581" xlink:href="#m7c5a47f25d" y="127.748503"/>
     <use style="fill:#0000ff;stroke:#0000ff;" x="308.364711" xlink:href="#m7c5a47f25d" y="88.843579"/>
     <use style="fill:#0000ff;stroke:#0000ff;" x="300.23784" xlink:href="#m7c5a47f25d" y="73.596047"/>
     <use style="fill:#0000ff;stroke:#0000ff;" x="307.675431" xlink:href="#m7c5a47f25d" y="85.6299"/>
     <use style="fill:#0000ff;stroke:#0000ff;" x="292.592706" xlink:href="#m7c5a47f25d" y="64.562113"/>
     <use style="fill:#0000ff;stroke:#0000ff;" x="291.002922" xlink:href="#m7c5a47f25d" y="64.153909"/>
     <use style="fill:#0000ff;stroke:#0000ff;" x="341.452406" xlink:href="#m7c5a47f25d" y="129.643891"/>
     <use style="fill:#0000ff;stroke:#0000ff;" x="384.630737" xlink:href="#m7c5a47f25d" y="166.663611"/>
     <use style="fill:#0000ff;stroke:#0000ff;" x="323.532717" xlink:href="#m7c5a47f25d" y="101.939546"/>
     <use style="fill:#0000ff;stroke:#0000ff;" x="303.426996" xlink:href="#m7c5a47f25d" y="79.042057"/>
     <use style="fill:#0000ff;stroke:#0000ff;" x="332.566162" xlink:href="#m7c5a47f25d" y="112.406947"/>
     <use style="fill:#0000ff;stroke:#0000ff;" x="391.913599" xlink:href="#m7c5a47f25d" y="174.630149"/>
     <use style="fill:#0000ff;stroke:#0000ff;" x="340.726588" xlink:href="#m7c5a47f25d" y="128.401842"/>
     <use style="fill:#0000ff;stroke:#0000ff;" x="308.335889" xlink:href="#m7c5a47f25d" y="87.840942"/>
     <use style="fill:#0000ff;stroke:#0000ff;" x="332.859319" xlink:href="#m7c5a47f25d" y="112.881751"/>
     <use style="fill:#0000ff;stroke:#0000ff;" x="338.141458" xlink:href="#m7c5a47f25d" y="123.246618"/>
     <use style="fill:#0000ff;stroke:#0000ff;" x="336.180205" xlink:href="#m7c5a47f25d" y="118.651412"/>
     <use style="fill:#0000ff;stroke:#0000ff;" x="341.721974" xlink:href="#m7c5a47f25d" y="129.730283"/>
     <use style="fill:#0000ff;stroke:#0000ff;" x="328.503486" xlink:href="#m7c5a47f25d" y="105.669073"/>
     <use style="fill:#0000ff;stroke:#0000ff;" x="303.354297" xlink:href="#m7c5a47f25d" y="78.450058"/>
     <use style="fill:#0000ff;stroke:#0000ff;" x="326.919768" xlink:href="#m7c5a47f25d" y="103.811108"/>
     <use style="fill:#0000ff;stroke:#0000ff;" x="404.548853" xlink:href="#m7c5a47f25d" y="177.32506"/>
     <use style="fill:#0000ff;stroke:#0000ff;" x="308.101301" xlink:href="#m7c5a47f25d" y="86.691289"/>
     <use style="fill:#0000ff;stroke:#0000ff;" x="374.236151" xlink:href="#m7c5a47f25d" y="145.297364"/>
     <use style="fill:#0000ff;stroke:#0000ff;" x="345.31703" xlink:href="#m7c5a47f25d" y="135.165436"/>
     <use style="fill:#0000ff;stroke:#0000ff;" x="331.379205" xlink:href="#m7c5a47f25d" y="109.876106"/>
     <use style="fill:#0000ff;stroke:#0000ff;" x="330.400551" xlink:href="#m7c5a47f25d" y="108.141629"/>
     <use style="fill:#0000ff;stroke:#0000ff;" x="344.197478" xlink:href="#m7c5a47f25d" y="134.292398"/>
     <use style="fill:#0000ff;stroke:#0000ff;" x="297.314969" xlink:href="#m7c5a47f25d" y="70.002353"/>
     <use style="fill:#0000ff;stroke:#0000ff;" x="338.664442" xlink:href="#m7c5a47f25d" y="123.782959"/>
     <use style="fill:#0000ff;stroke:#0000ff;" x="312.564638" xlink:href="#m7c5a47f25d" y="94.578226"/>
     <use style="fill:#0000ff;stroke:#0000ff;" x="302.863583" xlink:href="#m7c5a47f25d" y="77.548018"/>
     <use style="fill:#0000ff;stroke:#0000ff;" x="339.396969" xlink:href="#m7c5a47f25d" y="125.190073"/>
     <use style="fill:#0000ff;stroke:#0000ff;" x="340.778618" xlink:href="#m7c5a47f25d" y="128.580295"/>
     <use style="fill:#0000ff;stroke:#0000ff;" x="340.310788" xlink:href="#m7c5a47f25d" y="127.309133"/>
     <use style="fill:#0000ff;stroke:#0000ff;" x="302.338558" xlink:href="#m7c5a47f25d" y="77.14203"/>
     <use style="fill:#0000ff;stroke:#0000ff;" x="332.663015" xlink:href="#m7c5a47f25d" y="112.642583"/>
     <use style="fill:#0000ff;stroke:#0000ff;" x="295.9095" xlink:href="#m7c5a47f25d" y="67.924765"/>
     <use style="fill:#0000ff;stroke:#0000ff;" x="303.607746" xlink:href="#m7c5a47f25d" y="81.267739"/>
     <use style="fill:#0000ff;stroke:#0000ff;" x="375.470555" xlink:href="#m7c5a47f25d" y="149.586539"/>
     <use style="fill:#0000ff;stroke:#0000ff;" x="333.919494" xlink:href="#m7c5a47f25d" y="115.139332"/>
     <use style="fill:#0000ff;stroke:#0000ff;" x="382.867794" xlink:href="#m7c5a47f25d" y="162.966076"/>
     <use style="fill:#0000ff;stroke:#0000ff;" x="315.474445" xlink:href="#m7c5a47f25d" y="99.072645"/>
     <use style="fill:#0000ff;stroke:#0000ff;" x="292.793241" xlink:href="#m7c5a47f25d" y="65.59464"/>
     <use style="fill:#0000ff;stroke:#0000ff;" x="336.530432" xlink:href="#m7c5a47f25d" y="119.320591"/>
     <use style="fill:#0000ff;stroke:#0000ff;" x="365.67147" xlink:href="#m7c5a47f25d" y="143.725383"/>
     <use style="fill:#0000ff;stroke:#0000ff;" x="340.975256" xlink:href="#m7c5a47f25d" y="129.216796"/>
     <use style="fill:#0000ff;stroke:#0000ff;" x="376.570535" xlink:href="#m7c5a47f25d" y="153.980884"/>
     <use style="fill:#0000ff;stroke:#0000ff;" x="326.095166" xlink:href="#m7c5a47f25d" y="102.900616"/>
     <use style="fill:#0000ff;stroke:#0000ff;" x="328.84752" xlink:href="#m7c5a47f25d" y="106.42642"/>
     <use style="fill:#0000ff;stroke:#0000ff;" x="333.171347" xlink:href="#m7c5a47f25d" y="113.331444"/>
     <use style="fill:#0000ff;stroke:#0000ff;" x="339.0789" xlink:href="#m7c5a47f25d" y="124.885306"/>
     <use style="fill:#0000ff;stroke:#0000ff;" x="331.691372" xlink:href="#m7c5a47f25d" y="111.309645"/>
     <use style="fill:#0000ff;stroke:#0000ff;" x="331.974365" xlink:href="#m7c5a47f25d" y="112.28727"/>
     <use style="fill:#0000ff;stroke:#0000ff;" x="300.594464" xlink:href="#m7c5a47f25d" y="73.609108"/>
     <use style="fill:#0000ff;stroke:#0000ff;" x="326.2264" xlink:href="#m7c5a47f25d" y="103.114314"/>
     <use style="fill:#0000ff;stroke:#0000ff;" x="304.701603" xlink:href="#m7c5a47f25d" y="81.406068"/>
     <use style="fill:#0000ff;stroke:#0000ff;" x="308.150751" xlink:href="#m7c5a47f25d" y="86.916774"/>
     <use style="fill:#0000ff;stroke:#0000ff;" x="335.26211" xlink:href="#m7c5a47f25d" y="117.518617"/>
     <use style="fill:#0000ff;stroke:#0000ff;" x="341.193127" xlink:href="#m7c5a47f25d" y="129.551528"/>
     <use style="fill:#0000ff;stroke:#0000ff;" x="305.28639" xlink:href="#m7c5a47f25d" y="81.978586"/>
     <use style="fill:#0000ff;stroke:#0000ff;" x="383.968903" xlink:href="#m7c5a47f25d" y="166.619831"/>
     <use style="fill:#0000ff;stroke:#0000ff;" x="350.31302" xlink:href="#m7c5a47f25d" y="139.021238"/>
    </g>
   </g>
   <g id="matplotlib.axis_1">
    <g id="xtick_1">
     <g id="line2d_1">
      <defs>
       <path d="M 0 0 
L 0 3.5 
" id="mfab37804bd" style="stroke:#000000;stroke-width:0.8;"/>
      </defs>
      <g>
       <use style="stroke:#000000;stroke-width:0.8;" x="57.6" xlink:href="#mfab37804bd" y="307.584"/>
      </g>
     </g>
     <g id="text_1">
      <!-- 4 -->
      <defs>
       <path d="M 37.796875 64.3125 
L 12.890625 25.390625 
L 37.796875 25.390625 
z
M 35.203125 72.90625 
L 47.609375 72.90625 
L 47.609375 25.390625 
L 58.015625 25.390625 
L 58.015625 17.1875 
L 47.609375 17.1875 
L 47.609375 0 
L 37.796875 0 
L 37.796875 17.1875 
L 4.890625 17.1875 
L 4.890625 26.703125 
z
" id="DejaVuSans-34"/>
      </defs>
      <g transform="translate(54.41875 322.182437)scale(0.1 -0.1)">
       <use xlink:href="#DejaVuSans-34"/>
      </g>
     </g>
    </g>
    <g id="xtick_2">
     <g id="line2d_2">
      <g>
       <use style="stroke:#000000;stroke-width:0.8;" x="102.24" xlink:href="#mfab37804bd" y="307.584"/>
      </g>
     </g>
     <g id="text_2">
      <!-- 6 -->
      <defs>
       <path d="M 33.015625 40.375 
Q 26.375 40.375 22.484375 35.828125 
Q 18.609375 31.296875 18.609375 23.390625 
Q 18.609375 15.53125 22.484375 10.953125 
Q 26.375 6.390625 33.015625 6.390625 
Q 39.65625 6.390625 43.53125 10.953125 
Q 47.40625 15.53125 47.40625 23.390625 
Q 47.40625 31.296875 43.53125 35.828125 
Q 39.65625 40.375 33.015625 40.375 
z
M 52.59375 71.296875 
L 52.59375 62.3125 
Q 48.875 64.0625 45.09375 64.984375 
Q 41.3125 65.921875 37.59375 65.921875 
Q 27.828125 65.921875 22.671875 59.328125 
Q 17.53125 52.734375 16.796875 39.40625 
Q 19.671875 43.65625 24.015625 45.921875 
Q 28.375 48.1875 33.59375 48.1875 
Q 44.578125 48.1875 50.953125 41.515625 
Q 57.328125 34.859375 57.328125 23.390625 
Q 57.328125 12.15625 50.6875 5.359375 
Q 44.046875 -1.421875 33.015625 -1.421875 
Q 20.359375 -1.421875 13.671875 8.265625 
Q 6.984375 17.96875 6.984375 36.375 
Q 6.984375 53.65625 15.1875 63.9375 
Q 23.390625 74.21875 37.203125 74.21875 
Q 40.921875 74.21875 44.703125 73.484375 
Q 48.484375 72.75 52.59375 71.296875 
z
" id="DejaVuSans-36"/>
      </defs>
      <g transform="translate(99.05875 322.182437)scale(0.1 -0.1)">
       <use xlink:href="#DejaVuSans-36"/>
      </g>
     </g>
    </g>
    <g id="xtick_3">
     <g id="line2d_3">
      <g>
       <use style="stroke:#000000;stroke-width:0.8;" x="146.88" xlink:href="#mfab37804bd" y="307.584"/>
      </g>
     </g>
     <g id="text_3">
      <!-- 8 -->
      <defs>
       <path d="M 31.78125 34.625 
Q 24.75 34.625 20.71875 30.859375 
Q 16.703125 27.09375 16.703125 20.515625 
Q 16.703125 13.921875 20.71875 10.15625 
Q 24.75 6.390625 31.78125 6.390625 
Q 38.8125 6.390625 42.859375 10.171875 
Q 46.921875 13.96875 46.921875 20.515625 
Q 46.921875 27.09375 42.890625 30.859375 
Q 38.875 34.625 31.78125 34.625 
z
M 21.921875 38.8125 
Q 15.578125 40.375 12.03125 44.71875 
Q 8.5 49.078125 8.5 55.328125 
Q 8.5 64.0625 14.71875 69.140625 
Q 20.953125 74.21875 31.78125 74.21875 
Q 42.671875 74.21875 48.875 69.140625 
Q 55.078125 64.0625 55.078125 55.328125 
Q 55.078125 49.078125 51.53125 44.71875 
Q 48 40.375 41.703125 38.8125 
Q 48.828125 37.15625 52.796875 32.3125 
Q 56.78125 27.484375 56.78125 20.515625 
Q 56.78125 9.90625 50.3125 4.234375 
Q 43.84375 -1.421875 31.78125 -1.421875 
Q 19.734375 -1.421875 13.25 4.234375 
Q 6.78125 9.90625 6.78125 20.515625 
Q 6.78125 27.484375 10.78125 32.3125 
Q 14.796875 37.15625 21.921875 38.8125 
z
M 18.3125 54.390625 
Q 18.3125 48.734375 21.84375 45.5625 
Q 25.390625 42.390625 31.78125 42.390625 
Q 38.140625 42.390625 41.71875 45.5625 
Q 45.3125 48.734375 45.3125 54.390625 
Q 45.3125 60.0625 41.71875 63.234375 
Q 38.140625 66.40625 31.78125 66.40625 
Q 25.390625 66.40625 21.84375 63.234375 
Q 18.3125 60.0625 18.3125 54.390625 
z
" id="DejaVuSans-38"/>
      </defs>
      <g transform="translate(143.69875 322.182437)scale(0.1 -0.1)">
       <use xlink:href="#DejaVuSans-38"/>
      </g>
     </g>
    </g>
    <g id="xtick_4">
     <g id="line2d_4">
      <g>
       <use style="stroke:#000000;stroke-width:0.8;" x="191.52" xlink:href="#mfab37804bd" y="307.584"/>
      </g>
     </g>
     <g id="text_4">
      <!-- 10 -->
      <defs>
       <path d="M 12.40625 8.296875 
L 28.515625 8.296875 
L 28.515625 63.921875 
L 10.984375 60.40625 
L 10.984375 69.390625 
L 28.421875 72.90625 
L 38.28125 72.90625 
L 38.28125 8.296875 
L 54.390625 8.296875 
L 54.390625 0 
L 12.40625 0 
z
" id="DejaVuSans-31"/>
       <path d="M 31.78125 66.40625 
Q 24.171875 66.40625 20.328125 58.90625 
Q 16.5 51.421875 16.5 36.375 
Q 16.5 21.390625 20.328125 13.890625 
Q 24.171875 6.390625 31.78125 6.390625 
Q 39.453125 6.390625 43.28125 13.890625 
Q 47.125 21.390625 47.125 36.375 
Q 47.125 51.421875 43.28125 58.90625 
Q 39.453125 66.40625 31.78125 66.40625 
z
M 31.78125 74.21875 
Q 44.046875 74.21875 50.515625 64.515625 
Q 56.984375 54.828125 56.984375 36.375 
Q 56.984375 17.96875 50.515625 8.265625 
Q 44.046875 -1.421875 31.78125 -1.421875 
Q 19.53125 -1.421875 13.0625 8.265625 
Q 6.59375 17.96875 6.59375 36.375 
Q 6.59375 54.828125 13.0625 64.515625 
Q 19.53125 74.21875 31.78125 74.21875 
z
" id="DejaVuSans-30"/>
      </defs>
      <g transform="translate(185.1575 322.182437)scale(0.1 -0.1)">
       <use xlink:href="#DejaVuSans-31"/>
       <use x="63.623047" xlink:href="#DejaVuSans-30"/>
      </g>
     </g>
    </g>
    <g id="xtick_5">
     <g id="line2d_5">
      <g>
       <use style="stroke:#000000;stroke-width:0.8;" x="236.16" xlink:href="#mfab37804bd" y="307.584"/>
      </g>
     </g>
     <g id="text_5">
      <!-- 12 -->
      <defs>
       <path d="M 19.1875 8.296875 
L 53.609375 8.296875 
L 53.609375 0 
L 7.328125 0 
L 7.328125 8.296875 
Q 12.9375 14.109375 22.625 23.890625 
Q 32.328125 33.6875 34.8125 36.53125 
Q 39.546875 41.84375 41.421875 45.53125 
Q 43.3125 49.21875 43.3125 52.78125 
Q 43.3125 58.59375 39.234375 62.25 
Q 35.15625 65.921875 28.609375 65.921875 
Q 23.96875 65.921875 18.8125 64.3125 
Q 13.671875 62.703125 7.8125 59.421875 
L 7.8125 69.390625 
Q 13.765625 71.78125 18.9375 73 
Q 24.125 74.21875 28.421875 74.21875 
Q 39.75 74.21875 46.484375 68.546875 
Q 53.21875 62.890625 53.21875 53.421875 
Q 53.21875 48.921875 51.53125 44.890625 
Q 49.859375 40.875 45.40625 35.40625 
Q 44.1875 33.984375 37.640625 27.21875 
Q 31.109375 20.453125 19.1875 8.296875 
z
" id="DejaVuSans-32"/>
      </defs>
      <g transform="translate(229.7975 322.182437)scale(0.1 -0.1)">
       <use xlink:href="#DejaVuSans-31"/>
       <use x="63.623047" xlink:href="#DejaVuSans-32"/>
      </g>
     </g>
    </g>
    <g id="xtick_6">
     <g id="line2d_6">
      <g>
       <use style="stroke:#000000;stroke-width:0.8;" x="280.8" xlink:href="#mfab37804bd" y="307.584"/>
      </g>
     </g>
     <g id="text_6">
      <!-- 14 -->
      <g transform="translate(274.4375 322.182437)scale(0.1 -0.1)">
       <use xlink:href="#DejaVuSans-31"/>
       <use x="63.623047" xlink:href="#DejaVuSans-34"/>
      </g>
     </g>
    </g>
    <g id="xtick_7">
     <g id="line2d_7">
      <g>
       <use style="stroke:#000000;stroke-width:0.8;" x="325.44" xlink:href="#mfab37804bd" y="307.584"/>
      </g>
     </g>
     <g id="text_7">
      <!-- 16 -->
      <g transform="translate(319.0775 322.182437)scale(0.1 -0.1)">
       <use xlink:href="#DejaVuSans-31"/>
       <use x="63.623047" xlink:href="#DejaVuSans-36"/>
      </g>
     </g>
    </g>
    <g id="xtick_8">
     <g id="line2d_8">
      <g>
       <use style="stroke:#000000;stroke-width:0.8;" x="370.08" xlink:href="#mfab37804bd" y="307.584"/>
      </g>
     </g>
     <g id="text_8">
      <!-- 18 -->
      <g transform="translate(363.7175 322.182437)scale(0.1 -0.1)">
       <use xlink:href="#DejaVuSans-31"/>
       <use x="63.623047" xlink:href="#DejaVuSans-38"/>
      </g>
     </g>
    </g>
    <g id="xtick_9">
     <g id="line2d_9">
      <g>
       <use style="stroke:#000000;stroke-width:0.8;" x="414.72" xlink:href="#mfab37804bd" y="307.584"/>
      </g>
     </g>
     <g id="text_9">
      <!-- 20 -->
      <g transform="translate(408.3575 322.182437)scale(0.1 -0.1)">
       <use xlink:href="#DejaVuSans-32"/>
       <use x="63.623047" xlink:href="#DejaVuSans-30"/>
      </g>
     </g>
    </g>
   </g>
   <g id="matplotlib.axis_2">
    <g id="ytick_1">
     <g id="line2d_10">
      <defs>
       <path d="M 0 0 
L -3.5 0 
" id="ma19d04c193" style="stroke:#000000;stroke-width:0.8;"/>
      </defs>
      <g>
       <use style="stroke:#000000;stroke-width:0.8;" x="57.6" xlink:href="#ma19d04c193" y="269.568"/>
      </g>
     </g>
     <g id="text_10">
      <!-- −10 -->
      <defs>
       <path d="M 10.59375 35.5 
L 73.1875 35.5 
L 73.1875 27.203125 
L 10.59375 27.203125 
z
" id="DejaVuSans-2212"/>
      </defs>
      <g transform="translate(29.495313 273.367219)scale(0.1 -0.1)">
       <use xlink:href="#DejaVuSans-2212"/>
       <use x="83.789062" xlink:href="#DejaVuSans-31"/>
       <use x="147.412109" xlink:href="#DejaVuSans-30"/>
      </g>
     </g>
    </g>
    <g id="ytick_2">
     <g id="line2d_11">
      <g>
       <use style="stroke:#000000;stroke-width:0.8;" x="57.6" xlink:href="#ma19d04c193" y="222.048"/>
      </g>
     </g>
     <g id="text_11">
      <!-- −5 -->
      <defs>
       <path d="M 10.796875 72.90625 
L 49.515625 72.90625 
L 49.515625 64.59375 
L 19.828125 64.59375 
L 19.828125 46.734375 
Q 21.96875 47.46875 24.109375 47.828125 
Q 26.265625 48.1875 28.421875 48.1875 
Q 40.625 48.1875 47.75 41.5 
Q 54.890625 34.8125 54.890625 23.390625 
Q 54.890625 11.625 47.5625 5.09375 
Q 40.234375 -1.421875 26.90625 -1.421875 
Q 22.3125 -1.421875 17.546875 -0.640625 
Q 12.796875 0.140625 7.71875 1.703125 
L 7.71875 11.625 
Q 12.109375 9.234375 16.796875 8.0625 
Q 21.484375 6.890625 26.703125 6.890625 
Q 35.15625 6.890625 40.078125 11.328125 
Q 45.015625 15.765625 45.015625 23.390625 
Q 45.015625 31 40.078125 35.4375 
Q 35.15625 39.890625 26.703125 39.890625 
Q 22.75 39.890625 18.8125 39.015625 
Q 14.890625 38.140625 10.796875 36.28125 
z
" id="DejaVuSans-35"/>
      </defs>
      <g transform="translate(35.857813 225.847219)scale(0.1 -0.1)">
       <use xlink:href="#DejaVuSans-2212"/>
       <use x="83.789062" xlink:href="#DejaVuSans-35"/>
      </g>
     </g>
    </g>
    <g id="ytick_3">
     <g id="line2d_12">
      <g>
       <use style="stroke:#000000;stroke-width:0.8;" x="57.6" xlink:href="#ma19d04c193" y="174.528"/>
      </g>
     </g>
     <g id="text_12">
      <!-- 0 -->
      <g transform="translate(44.2375 178.327219)scale(0.1 -0.1)">
       <use xlink:href="#DejaVuSans-30"/>
      </g>
     </g>
    </g>
    <g id="ytick_4">
     <g id="line2d_13">
      <g>
       <use style="stroke:#000000;stroke-width:0.8;" x="57.6" xlink:href="#ma19d04c193" y="127.008"/>
      </g>
     </g>
     <g id="text_13">
      <!-- 5 -->
      <g transform="translate(44.2375 130.807219)scale(0.1 -0.1)">
       <use xlink:href="#DejaVuSans-35"/>
      </g>
     </g>
    </g>
    <g id="ytick_5">
     <g id="line2d_14">
      <g>
       <use style="stroke:#000000;stroke-width:0.8;" x="57.6" xlink:href="#ma19d04c193" y="79.488"/>
      </g>
     </g>
     <g id="text_14">
      <!-- 10 -->
      <g transform="translate(37.875 83.287219)scale(0.1 -0.1)">
       <use xlink:href="#DejaVuSans-31"/>
       <use x="63.623047" xlink:href="#DejaVuSans-30"/>
      </g>
     </g>
    </g>
   </g>
   <g id="patch_3">
    <path d="M 57.6 307.584 
L 57.6 41.472 
" style="fill:none;stroke:#000000;stroke-linecap:square;stroke-linejoin:miter;stroke-width:0.8;"/>
   </g>
   <g id="patch_4">
    <path d="M 414.72 307.584 
L 414.72 41.472 
" style="fill:none;stroke:#000000;stroke-linecap:square;stroke-linejoin:miter;stroke-width:0.8;"/>
   </g>
   <g id="patch_5">
    <path d="M 57.6 307.584 
L 414.72 307.584 
" style="fill:none;stroke:#000000;stroke-linecap:square;stroke-linejoin:miter;stroke-width:0.8;"/>
   </g>
   <g id="patch_6">
    <path d="M 57.6 41.472 
L 414.72 41.472 
" style="fill:none;stroke:#000000;stroke-linecap:square;stroke-linejoin:miter;stroke-width:0.8;"/>
   </g>
  </g>
 </g>
 <defs>
  <clipPath id="p2d2335aff9">
   <rect height="266.112" width="357.12" x="57.6" y="41.472"/>
  </clipPath>
 </defs>
</svg>
