<?xml version="1.0" encoding="utf-8" standalone="no"?>
<!DOCTYPE svg PUBLIC "-//W3C//DTD SVG 1.1//EN"
  "http://www.w3.org/Graphics/SVG/1.1/DTD/svg11.dtd">
<!-- Created with matplotlib (http://matplotlib.org/) -->
<svg height="432pt" version="1.1" viewBox="0 0 576 432" width="576pt" xmlns="http://www.w3.org/2000/svg" xmlns:xlink="http://www.w3.org/1999/xlink">
 <defs>
  <style type="text/css">
*{stroke-linecap:butt;stroke-linejoin:round;stroke-miterlimit:100000;}
  </style>
 </defs>
 <g id="figure_1">
  <g id="patch_1">
   <path d="M 0 432 
L 576 432 
L 576 0 
L 0 0 
z
" style="fill:#ffffff;"/>
  </g>
  <g id="axes_1">
   <g id="patch_2">
    <path d="M 72 388.8 
L 518.4 388.8 
L 518.4 43.2 
L 72 43.2 
z
" style="fill:#ffffff;"/>
   </g>
   <g id="PathCollection_1">
    <defs>
     <path d="M 0 1.118034 
C 0.296506 1.118034 0.580908 1.000231 0.790569 0.790569 
C 1.000231 0.580908 1.118034 0.296506 1.118034 0 
C 1.118034 -0.296506 1.000231 -0.580908 0.790569 -0.790569 
C 0.580908 -1.000231 0.296506 -1.118034 0 -1.118034 
C -0.296506 -1.118034 -0.580908 -1.000231 -0.790569 -0.790569 
C -1.000231 -0.580908 -1.118034 -0.296506 -1.118034 0 
C -1.118034 0.296506 -1.000231 0.580908 -0.790569 0.790569 
C -0.580908 1.000231 -0.296506 1.118034 0 1.118034 
z
" id="m230b960e3f" style="stroke:#000000;"/>
    </defs>
    <g clip-path="url(#p0723c538b7)">
     <use style="stroke:#000000;" x="226.988200174" xlink:href="#m230b960e3f" y="99.7888263906"/>
     <use style="stroke:#000000;" x="429.119998544" xlink:href="#m230b960e3f" y="114.607773953"/>
     <use style="stroke:#000000;" x="429.11998564" xlink:href="#m230b960e3f" y="114.589056082"/>
     <use style="stroke:#000000;" x="284.998634057" xlink:href="#m230b960e3f" y="102.918011224"/>
     <use style="stroke:#000000;" x="429.119999909" xlink:href="#m230b960e3f" y="114.623526081"/>
     <use style="stroke:#000000;" x="428.624358676" xlink:href="#m230b960e3f" y="111.679303935"/>
     <use style="stroke:#000000;" x="136.349795391" xlink:href="#m230b960e3f" y="94.8905026991"/>
     <use style="stroke:#000000;" x="429.119756601" xlink:href="#m230b960e3f" y="114.333623887"/>
     <use style="stroke:#000000;" x="94.7609720179" xlink:href="#m230b960e3f" y="94.2194009931"/>
     <use style="stroke:#000000;" x="429.119736902" xlink:href="#m230b960e3f" y="113.168961811"/>
     <use style="stroke:#000000;" x="429.119999997" xlink:href="#m230b960e3f" y="115.58006095"/>
     <use style="stroke:#000000;" x="295.145482524" xlink:href="#m230b960e3f" y="103.272817231"/>
     <use style="stroke:#000000;" x="391.244965503" xlink:href="#m230b960e3f" y="106.532816878"/>
     <use style="stroke:#000000;" x="429.119999999" xlink:href="#m230b960e3f" y="138.4899355"/>
     <use style="stroke:#000000;" x="426.767717929" xlink:href="#m230b960e3f" y="111.183485993"/>
     <use style="stroke:#000000;" x="343.684137317" xlink:href="#m230b960e3f" y="104.27542426"/>
     <use style="stroke:#000000;" x="413.547016147" xlink:href="#m230b960e3f" y="108.691600227"/>
     <use style="stroke:#000000;" x="216.641796426" xlink:href="#m230b960e3f" y="98.8983688916"/>
     <use style="stroke:#000000;" x="234.17356419" xlink:href="#m230b960e3f" y="99.7984882066"/>
     <use style="stroke:#000000;" x="137.999667928" xlink:href="#m230b960e3f" y="94.971225169"/>
     <use style="stroke:#000000;" x="429.12" xlink:href="#m230b960e3f" y="175.647634375"/>
     <use style="stroke:#000000;" x="429.119999986" xlink:href="#m230b960e3f" y="115.018092587"/>
     <use style="stroke:#000000;" x="352.907570464" xlink:href="#m230b960e3f" y="106.14393773"/>
     <use style="stroke:#000000;" x="429.104121963" xlink:href="#m230b960e3f" y="112.437132368"/>
     <use style="stroke:#000000;" x="161.101962557" xlink:href="#m230b960e3f" y="96.1077119366"/>
     <use style="stroke:#000000;" x="304.306523138" xlink:href="#m230b960e3f" y="103.395591562"/>
     <use style="stroke:#000000;" x="429.12" xlink:href="#m230b960e3f" y="150.469773215"/>
     <use style="stroke:#000000;" x="429.12" xlink:href="#m230b960e3f" y="342.280819829"/>
     <use style="stroke:#000000;" x="293.630648762" xlink:href="#m230b960e3f" y="103.133626559"/>
     <use style="stroke:#000000;" x="423.181722141" xlink:href="#m230b960e3f" y="109.001779354"/>
     <use style="stroke:#000000;" x="427.621804471" xlink:href="#m230b960e3f" y="111.554801941"/>
     <use style="stroke:#000000;" x="429.119853174" xlink:href="#m230b960e3f" y="114.41532334"/>
     <use style="stroke:#000000;" x="429.118759857" xlink:href="#m230b960e3f" y="112.791482013"/>
     <use style="stroke:#000000;" x="429.119972936" xlink:href="#m230b960e3f" y="341.734079525"/>
     <use style="stroke:#000000;" x="355.779361761" xlink:href="#m230b960e3f" y="107.538552124"/>
     <use style="stroke:#000000;" x="416.332704194" xlink:href="#m230b960e3f" y="109.603457178"/>
     <use style="stroke:#000000;" x="429.11999997" xlink:href="#m230b960e3f" y="342.245406905"/>
     <use style="stroke:#000000;" x="125.597021643" xlink:href="#m230b960e3f" y="97.1342915769"/>
     <use style="stroke:#000000;" x="115.314127892" xlink:href="#m230b960e3f" y="95.1889223076"/>
     <use style="stroke:#000000;" x="312.99948198" xlink:href="#m230b960e3f" y="106.605274706"/>
     <use style="stroke:#000000;" x="319.335673821" xlink:href="#m230b960e3f" y="107.375217985"/>
     <use style="stroke:#000000;" x="429.119916118" xlink:href="#m230b960e3f" y="114.544219768"/>
     <use style="stroke:#000000;" x="429.11910331" xlink:href="#m230b960e3f" y="115.662803525"/>
     <use style="stroke:#000000;" x="239.143837481" xlink:href="#m230b960e3f" y="102.224689785"/>
     <use style="stroke:#000000;" x="429.10866448" xlink:href="#m230b960e3f" y="115.782386365"/>
     <use style="stroke:#000000;" x="427.25513434" xlink:href="#m230b960e3f" y="112.274185506"/>
     <use style="stroke:#000000;" x="238.201861839" xlink:href="#m230b960e3f" y="103.066300443"/>
     <use style="stroke:#000000;" x="429.106787721" xlink:href="#m230b960e3f" y="114.684182887"/>
     <use style="stroke:#000000;" x="132.095665921" xlink:href="#m230b960e3f" y="97.2492634898"/>
     <use style="stroke:#000000;" x="429.119117447" xlink:href="#m230b960e3f" y="114.925820439"/>
     <use style="stroke:#000000;" x="429.113711258" xlink:href="#m230b960e3f" y="117.010977149"/>
     <use style="stroke:#000000;" x="386.846843534" xlink:href="#m230b960e3f" y="110.501823957"/>
     <use style="stroke:#000000;" x="420.902708337" xlink:href="#m230b960e3f" y="110.014739535"/>
     <use style="stroke:#000000;" x="429.059379805" xlink:href="#m230b960e3f" y="142.326190741"/>
     <use style="stroke:#000000;" x="428.79393597" xlink:href="#m230b960e3f" y="112.52704974"/>
     <use style="stroke:#000000;" x="407.894699546" xlink:href="#m230b960e3f" y="110.034493278"/>
     <use style="stroke:#000000;" x="396.521283823" xlink:href="#m230b960e3f" y="106.99694283"/>
     <use style="stroke:#000000;" x="200.040894531" xlink:href="#m230b960e3f" y="101.133628509"/>
     <use style="stroke:#000000;" x="181.435227411" xlink:href="#m230b960e3f" y="97.1191161566"/>
     <use style="stroke:#000000;" x="127.990301361" xlink:href="#m230b960e3f" y="97.0079664832"/>
    </g>
   </g>
   <g id="PathCollection_2">
    <defs>
     <path d="M 0 1.936492 
C 0.513564 1.936492 1.006162 1.732451 1.369306 1.369306 
C 1.732451 1.006162 1.936492 0.513564 1.936492 0 
C 1.936492 -0.513564 1.732451 -1.006162 1.369306 -1.369306 
C 1.006162 -1.732451 0.513564 -1.936492 0 -1.936492 
C -0.513564 -1.936492 -1.006162 -1.732451 -1.369306 -1.369306 
C -1.732451 -1.006162 -1.936492 -0.513564 -1.936492 0 
C -1.936492 0.513564 -1.732451 1.006162 -1.369306 1.369306 
C -1.006162 1.732451 -0.513564 1.936492 0 1.936492 
z
" id="m4524505671" style="stroke:#000000;"/>
    </defs>
    <g clip-path="url(#p0723c538b7)">
     <use style="fill:#0000ff;stroke:#000000;" x="226.988200174" xlink:href="#m4524505671" y="99.7888263906"/>
     <use style="fill:#0000ff;stroke:#000000;" x="429.119998544" xlink:href="#m4524505671" y="114.607773953"/>
     <use style="fill:#0000ff;stroke:#000000;" x="429.11998564" xlink:href="#m4524505671" y="114.589056082"/>
     <use style="fill:#0000ff;stroke:#000000;" x="284.998634057" xlink:href="#m4524505671" y="102.918011224"/>
     <use style="fill:#0000ff;stroke:#000000;" x="429.119999909" xlink:href="#m4524505671" y="114.623526081"/>
     <use style="fill:#0000ff;stroke:#000000;" x="428.624358676" xlink:href="#m4524505671" y="111.679303935"/>
     <use style="fill:#0000ff;stroke:#000000;" x="136.349795391" xlink:href="#m4524505671" y="94.8905026991"/>
     <use style="fill:#0000ff;stroke:#000000;" x="429.119756601" xlink:href="#m4524505671" y="114.333623887"/>
     <use style="fill:#0000ff;stroke:#000000;" x="94.7609720179" xlink:href="#m4524505671" y="94.2194009931"/>
     <use style="fill:#0000ff;stroke:#000000;" x="429.119736902" xlink:href="#m4524505671" y="113.168961811"/>
     <use style="fill:#0000ff;stroke:#000000;" x="429.119999997" xlink:href="#m4524505671" y="115.58006095"/>
     <use style="fill:#0000ff;stroke:#000000;" x="295.145482524" xlink:href="#m4524505671" y="103.272817231"/>
     <use style="fill:#0000ff;stroke:#000000;" x="391.244965503" xlink:href="#m4524505671" y="106.532816878"/>
     <use style="fill:#0000ff;stroke:#000000;" x="429.119999999" xlink:href="#m4524505671" y="138.4899355"/>
     <use style="fill:#0000ff;stroke:#000000;" x="426.767717929" xlink:href="#m4524505671" y="111.183485993"/>
     <use style="fill:#0000ff;stroke:#000000;" x="343.684137317" xlink:href="#m4524505671" y="104.27542426"/>
     <use style="fill:#0000ff;stroke:#000000;" x="413.547016147" xlink:href="#m4524505671" y="108.691600227"/>
     <use style="fill:#0000ff;stroke:#000000;" x="216.641796426" xlink:href="#m4524505671" y="98.8983688916"/>
     <use style="fill:#0000ff;stroke:#000000;" x="234.17356419" xlink:href="#m4524505671" y="99.7984882066"/>
     <use style="fill:#0000ff;stroke:#000000;" x="137.999667928" xlink:href="#m4524505671" y="94.971225169"/>
     <use style="fill:#0000ff;stroke:#000000;" x="429.12" xlink:href="#m4524505671" y="175.647634375"/>
     <use style="fill:#0000ff;stroke:#000000;" x="429.119999986" xlink:href="#m4524505671" y="115.018092587"/>
     <use style="fill:#0000ff;stroke:#000000;" x="352.907570464" xlink:href="#m4524505671" y="106.14393773"/>
     <use style="fill:#0000ff;stroke:#000000;" x="429.104121963" xlink:href="#m4524505671" y="112.437132368"/>
     <use style="fill:#0000ff;stroke:#000000;" x="161.101962557" xlink:href="#m4524505671" y="96.1077119366"/>
     <use style="fill:#0000ff;stroke:#000000;" x="304.306523138" xlink:href="#m4524505671" y="103.395591562"/>
     <use style="fill:#0000ff;stroke:#000000;" x="429.12" xlink:href="#m4524505671" y="150.469773215"/>
     <use style="fill:#0000ff;stroke:#000000;" x="429.12" xlink:href="#m4524505671" y="342.280819829"/>
     <use style="fill:#0000ff;stroke:#000000;" x="293.630648762" xlink:href="#m4524505671" y="103.133626559"/>
     <use style="fill:#0000ff;stroke:#000000;" x="423.181722141" xlink:href="#m4524505671" y="109.001779354"/>
     <use style="fill:#0000ff;stroke:#000000;" x="427.621804471" xlink:href="#m4524505671" y="111.554801941"/>
     <use style="fill:#0000ff;stroke:#000000;" x="429.119853174" xlink:href="#m4524505671" y="114.41532334"/>
     <use style="fill:#0000ff;stroke:#000000;" x="429.118759857" xlink:href="#m4524505671" y="112.791482013"/>
     <use style="fill:#0000ff;stroke:#000000;" x="429.119972936" xlink:href="#m4524505671" y="341.734079525"/>
     <use style="fill:#0000ff;stroke:#000000;" x="355.779361761" xlink:href="#m4524505671" y="107.538552124"/>
     <use style="fill:#0000ff;stroke:#000000;" x="416.332704194" xlink:href="#m4524505671" y="109.603457178"/>
     <use style="fill:#0000ff;stroke:#000000;" x="429.11999997" xlink:href="#m4524505671" y="342.245406905"/>
     <use style="fill:#0000ff;stroke:#000000;" x="125.597021643" xlink:href="#m4524505671" y="97.1342915769"/>
     <use style="fill:#0000ff;stroke:#000000;" x="115.314127892" xlink:href="#m4524505671" y="95.1889223076"/>
     <use style="fill:#0000ff;stroke:#000000;" x="312.99948198" xlink:href="#m4524505671" y="106.605274706"/>
    </g>
   </g>
   <g id="patch_3">
    <path d="M 72 388.8 
L 72 43.2 
" style="fill:none;stroke:#000000;stroke-linecap:square;stroke-linejoin:miter;"/>
   </g>
   <g id="patch_4">
    <path d="M 518.4 388.8 
L 518.4 43.2 
" style="fill:none;stroke:#000000;stroke-linecap:square;stroke-linejoin:miter;"/>
   </g>
   <g id="patch_5">
    <path d="M 72 388.8 
L 518.4 388.8 
" style="fill:none;stroke:#000000;stroke-linecap:square;stroke-linejoin:miter;"/>
   </g>
   <g id="patch_6">
    <path d="M 72 43.2 
L 518.4 43.2 
" style="fill:none;stroke:#000000;stroke-linecap:square;stroke-linejoin:miter;"/>
   </g>
   <g id="matplotlib.axis_1">
    <g id="xtick_1">
     <g id="line2d_1">
      <defs>
       <path d="M 0 0 
L 0 -4 
" id="m02a4017040" style="stroke:#000000;stroke-width:0.5;"/>
      </defs>
      <g>
       <use style="stroke:#000000;stroke-width:0.5;" x="72.0" xlink:href="#m02a4017040" y="388.8"/>
      </g>
     </g>
     <g id="line2d_2">
      <defs>
       <path d="M 0 0 
L 0 4 
" id="m6065b37e3f" style="stroke:#000000;stroke-width:0.5;"/>
      </defs>
      <g>
       <use style="stroke:#000000;stroke-width:0.5;" x="72.0" xlink:href="#m6065b37e3f" y="43.2"/>
      </g>
     </g>
     <g id="text_1">
      <!-- 0.80 -->
      <defs>
       <path d="M 31.78125 66.40625 
Q 24.171875 66.40625 20.328125 58.90625 
Q 16.5 51.421875 16.5 36.375 
Q 16.5 21.390625 20.328125 13.890625 
Q 24.171875 6.390625 31.78125 6.390625 
Q 39.453125 6.390625 43.28125 13.890625 
Q 47.125 21.390625 47.125 36.375 
Q 47.125 51.421875 43.28125 58.90625 
Q 39.453125 66.40625 31.78125 66.40625 
M 31.78125 74.21875 
Q 44.046875 74.21875 50.515625 64.515625 
Q 56.984375 54.828125 56.984375 36.375 
Q 56.984375 17.96875 50.515625 8.265625 
Q 44.046875 -1.421875 31.78125 -1.421875 
Q 19.53125 -1.421875 13.0625 8.265625 
Q 6.59375 17.96875 6.59375 36.375 
Q 6.59375 54.828125 13.0625 64.515625 
Q 19.53125 74.21875 31.78125 74.21875 
" id="BitstreamVeraSans-Roman-30"/>
       <path d="M 31.78125 34.625 
Q 24.75 34.625 20.71875 30.859375 
Q 16.703125 27.09375 16.703125 20.515625 
Q 16.703125 13.921875 20.71875 10.15625 
Q 24.75 6.390625 31.78125 6.390625 
Q 38.8125 6.390625 42.859375 10.171875 
Q 46.921875 13.96875 46.921875 20.515625 
Q 46.921875 27.09375 42.890625 30.859375 
Q 38.875 34.625 31.78125 34.625 
M 21.921875 38.8125 
Q 15.578125 40.375 12.03125 44.71875 
Q 8.5 49.078125 8.5 55.328125 
Q 8.5 64.0625 14.71875 69.140625 
Q 20.953125 74.21875 31.78125 74.21875 
Q 42.671875 74.21875 48.875 69.140625 
Q 55.078125 64.0625 55.078125 55.328125 
Q 55.078125 49.078125 51.53125 44.71875 
Q 48 40.375 41.703125 38.8125 
Q 48.828125 37.15625 52.796875 32.3125 
Q 56.78125 27.484375 56.78125 20.515625 
Q 56.78125 9.90625 50.3125 4.234375 
Q 43.84375 -1.421875 31.78125 -1.421875 
Q 19.734375 -1.421875 13.25 4.234375 
Q 6.78125 9.90625 6.78125 20.515625 
Q 6.78125 27.484375 10.78125 32.3125 
Q 14.796875 37.15625 21.921875 38.8125 
M 18.3125 54.390625 
Q 18.3125 48.734375 21.84375 45.5625 
Q 25.390625 42.390625 31.78125 42.390625 
Q 38.140625 42.390625 41.71875 45.5625 
Q 45.3125 48.734375 45.3125 54.390625 
Q 45.3125 60.0625 41.71875 63.234375 
Q 38.140625 66.40625 31.78125 66.40625 
Q 25.390625 66.40625 21.84375 63.234375 
Q 18.3125 60.0625 18.3125 54.390625 
" id="BitstreamVeraSans-Roman-38"/>
       <path d="M 10.6875 12.40625 
L 21 12.40625 
L 21 0 
L 10.6875 0 
z
" id="BitstreamVeraSans-Roman-2e"/>
      </defs>
      <g transform="translate(58.640625 401.918125)scale(0.12 -0.12)">
       <use xlink:href="#BitstreamVeraSans-Roman-30"/>
       <use x="63.623046875" xlink:href="#BitstreamVeraSans-Roman-2e"/>
       <use x="95.41015625" xlink:href="#BitstreamVeraSans-Roman-38"/>
       <use x="159.033203125" xlink:href="#BitstreamVeraSans-Roman-30"/>
      </g>
     </g>
    </g>
    <g id="xtick_2">
     <g id="line2d_3">
      <g>
       <use style="stroke:#000000;stroke-width:0.5;" x="161.28" xlink:href="#m02a4017040" y="388.8"/>
      </g>
     </g>
     <g id="line2d_4">
      <g>
       <use style="stroke:#000000;stroke-width:0.5;" x="161.28" xlink:href="#m6065b37e3f" y="43.2"/>
      </g>
     </g>
     <g id="text_2">
      <!-- 0.85 -->
      <defs>
       <path d="M 10.796875 72.90625 
L 49.515625 72.90625 
L 49.515625 64.59375 
L 19.828125 64.59375 
L 19.828125 46.734375 
Q 21.96875 47.46875 24.109375 47.828125 
Q 26.265625 48.1875 28.421875 48.1875 
Q 40.625 48.1875 47.75 41.5 
Q 54.890625 34.8125 54.890625 23.390625 
Q 54.890625 11.625 47.5625 5.09375 
Q 40.234375 -1.421875 26.90625 -1.421875 
Q 22.3125 -1.421875 17.546875 -0.640625 
Q 12.796875 0.140625 7.71875 1.703125 
L 7.71875 11.625 
Q 12.109375 9.234375 16.796875 8.0625 
Q 21.484375 6.890625 26.703125 6.890625 
Q 35.15625 6.890625 40.078125 11.328125 
Q 45.015625 15.765625 45.015625 23.390625 
Q 45.015625 31 40.078125 35.4375 
Q 35.15625 39.890625 26.703125 39.890625 
Q 22.75 39.890625 18.8125 39.015625 
Q 14.890625 38.140625 10.796875 36.28125 
z
" id="BitstreamVeraSans-Roman-35"/>
      </defs>
      <g transform="translate(147.920625 401.918125)scale(0.12 -0.12)">
       <use xlink:href="#BitstreamVeraSans-Roman-30"/>
       <use x="63.623046875" xlink:href="#BitstreamVeraSans-Roman-2e"/>
       <use x="95.41015625" xlink:href="#BitstreamVeraSans-Roman-38"/>
       <use x="159.033203125" xlink:href="#BitstreamVeraSans-Roman-35"/>
      </g>
     </g>
    </g>
    <g id="xtick_3">
     <g id="line2d_5">
      <g>
       <use style="stroke:#000000;stroke-width:0.5;" x="250.56" xlink:href="#m02a4017040" y="388.8"/>
      </g>
     </g>
     <g id="line2d_6">
      <g>
       <use style="stroke:#000000;stroke-width:0.5;" x="250.56" xlink:href="#m6065b37e3f" y="43.2"/>
      </g>
     </g>
     <g id="text_3">
      <!-- 0.90 -->
      <defs>
       <path d="M 10.984375 1.515625 
L 10.984375 10.5 
Q 14.703125 8.734375 18.5 7.8125 
Q 22.3125 6.890625 25.984375 6.890625 
Q 35.75 6.890625 40.890625 13.453125 
Q 46.046875 20.015625 46.78125 33.40625 
Q 43.953125 29.203125 39.59375 26.953125 
Q 35.25 24.703125 29.984375 24.703125 
Q 19.046875 24.703125 12.671875 31.3125 
Q 6.296875 37.9375 6.296875 49.421875 
Q 6.296875 60.640625 12.9375 67.421875 
Q 19.578125 74.21875 30.609375 74.21875 
Q 43.265625 74.21875 49.921875 64.515625 
Q 56.59375 54.828125 56.59375 36.375 
Q 56.59375 19.140625 48.40625 8.859375 
Q 40.234375 -1.421875 26.421875 -1.421875 
Q 22.703125 -1.421875 18.890625 -0.6875 
Q 15.09375 0.046875 10.984375 1.515625 
M 30.609375 32.421875 
Q 37.25 32.421875 41.125 36.953125 
Q 45.015625 41.5 45.015625 49.421875 
Q 45.015625 57.28125 41.125 61.84375 
Q 37.25 66.40625 30.609375 66.40625 
Q 23.96875 66.40625 20.09375 61.84375 
Q 16.21875 57.28125 16.21875 49.421875 
Q 16.21875 41.5 20.09375 36.953125 
Q 23.96875 32.421875 30.609375 32.421875 
" id="BitstreamVeraSans-Roman-39"/>
      </defs>
      <g transform="translate(237.200625 401.918125)scale(0.12 -0.12)">
       <use xlink:href="#BitstreamVeraSans-Roman-30"/>
       <use x="63.623046875" xlink:href="#BitstreamVeraSans-Roman-2e"/>
       <use x="95.41015625" xlink:href="#BitstreamVeraSans-Roman-39"/>
       <use x="159.033203125" xlink:href="#BitstreamVeraSans-Roman-30"/>
      </g>
     </g>
    </g>
    <g id="xtick_4">
     <g id="line2d_7">
      <g>
       <use style="stroke:#000000;stroke-width:0.5;" x="339.84" xlink:href="#m02a4017040" y="388.8"/>
      </g>
     </g>
     <g id="line2d_8">
      <g>
       <use style="stroke:#000000;stroke-width:0.5;" x="339.84" xlink:href="#m6065b37e3f" y="43.2"/>
      </g>
     </g>
     <g id="text_4">
      <!-- 0.95 -->
      <g transform="translate(326.480625 401.918125)scale(0.12 -0.12)">
       <use xlink:href="#BitstreamVeraSans-Roman-30"/>
       <use x="63.623046875" xlink:href="#BitstreamVeraSans-Roman-2e"/>
       <use x="95.41015625" xlink:href="#BitstreamVeraSans-Roman-39"/>
       <use x="159.033203125" xlink:href="#BitstreamVeraSans-Roman-35"/>
      </g>
     </g>
    </g>
    <g id="xtick_5">
     <g id="line2d_9">
      <g>
       <use style="stroke:#000000;stroke-width:0.5;" x="429.12" xlink:href="#m02a4017040" y="388.8"/>
      </g>
     </g>
     <g id="line2d_10">
      <g>
       <use style="stroke:#000000;stroke-width:0.5;" x="429.12" xlink:href="#m6065b37e3f" y="43.2"/>
      </g>
     </g>
     <g id="text_5">
      <!-- 1.00 -->
      <defs>
       <path d="M 12.40625 8.296875 
L 28.515625 8.296875 
L 28.515625 63.921875 
L 10.984375 60.40625 
L 10.984375 69.390625 
L 28.421875 72.90625 
L 38.28125 72.90625 
L 38.28125 8.296875 
L 54.390625 8.296875 
L 54.390625 0 
L 12.40625 0 
z
" id="BitstreamVeraSans-Roman-31"/>
      </defs>
      <g transform="translate(415.760625 401.918125)scale(0.12 -0.12)">
       <use xlink:href="#BitstreamVeraSans-Roman-31"/>
       <use x="63.623046875" xlink:href="#BitstreamVeraSans-Roman-2e"/>
       <use x="95.41015625" xlink:href="#BitstreamVeraSans-Roman-30"/>
       <use x="159.033203125" xlink:href="#BitstreamVeraSans-Roman-30"/>
      </g>
     </g>
    </g>
    <g id="xtick_6">
     <g id="line2d_11">
      <g>
       <use style="stroke:#000000;stroke-width:0.5;" x="518.4" xlink:href="#m02a4017040" y="388.8"/>
      </g>
     </g>
     <g id="line2d_12">
      <g>
       <use style="stroke:#000000;stroke-width:0.5;" x="518.4" xlink:href="#m6065b37e3f" y="43.2"/>
      </g>
     </g>
     <g id="text_6">
      <!-- 1.05 -->
      <g transform="translate(505.040625 401.918125)scale(0.12 -0.12)">
       <use xlink:href="#BitstreamVeraSans-Roman-31"/>
       <use x="63.623046875" xlink:href="#BitstreamVeraSans-Roman-2e"/>
       <use x="95.41015625" xlink:href="#BitstreamVeraSans-Roman-30"/>
       <use x="159.033203125" xlink:href="#BitstreamVeraSans-Roman-35"/>
      </g>
     </g>
    </g>
   </g>
   <g id="matplotlib.axis_2">
    <g id="ytick_1">
     <g id="line2d_13">
      <defs>
       <path d="M 0 0 
L 4 0 
" id="m668702a7b5" style="stroke:#000000;stroke-width:0.5;"/>
      </defs>
      <g>
       <use style="stroke:#000000;stroke-width:0.5;" x="72.0" xlink:href="#m668702a7b5" y="388.8"/>
      </g>
     </g>
     <g id="line2d_14">
      <defs>
       <path d="M 0 0 
L -4 0 
" id="m83d720d83f" style="stroke:#000000;stroke-width:0.5;"/>
      </defs>
      <g>
       <use style="stroke:#000000;stroke-width:0.5;" x="518.4" xlink:href="#m83d720d83f" y="388.8"/>
      </g>
     </g>
     <g id="text_7">
      <!-- 9.1 -->
      <g transform="translate(48.91625 392.11125)scale(0.12 -0.12)">
       <use xlink:href="#BitstreamVeraSans-Roman-39"/>
       <use x="63.623046875" xlink:href="#BitstreamVeraSans-Roman-2e"/>
       <use x="95.41015625" xlink:href="#BitstreamVeraSans-Roman-31"/>
      </g>
     </g>
    </g>
    <g id="ytick_2">
     <g id="line2d_15">
      <g>
       <use style="stroke:#000000;stroke-width:0.5;" x="72.0" xlink:href="#m668702a7b5" y="339.428571429"/>
      </g>
     </g>
     <g id="line2d_16">
      <g>
       <use style="stroke:#000000;stroke-width:0.5;" x="518.4" xlink:href="#m83d720d83f" y="339.428571429"/>
      </g>
     </g>
     <g id="text_8">
      <!-- 9.2 -->
      <defs>
       <path d="M 19.1875 8.296875 
L 53.609375 8.296875 
L 53.609375 0 
L 7.328125 0 
L 7.328125 8.296875 
Q 12.9375 14.109375 22.625 23.890625 
Q 32.328125 33.6875 34.8125 36.53125 
Q 39.546875 41.84375 41.421875 45.53125 
Q 43.3125 49.21875 43.3125 52.78125 
Q 43.3125 58.59375 39.234375 62.25 
Q 35.15625 65.921875 28.609375 65.921875 
Q 23.96875 65.921875 18.8125 64.3125 
Q 13.671875 62.703125 7.8125 59.421875 
L 7.8125 69.390625 
Q 13.765625 71.78125 18.9375 73 
Q 24.125 74.21875 28.421875 74.21875 
Q 39.75 74.21875 46.484375 68.546875 
Q 53.21875 62.890625 53.21875 53.421875 
Q 53.21875 48.921875 51.53125 44.890625 
Q 49.859375 40.875 45.40625 35.40625 
Q 44.1875 33.984375 37.640625 27.21875 
Q 31.109375 20.453125 19.1875 8.296875 
" id="BitstreamVeraSans-Roman-32"/>
      </defs>
      <g transform="translate(48.91625 342.739821429)scale(0.12 -0.12)">
       <use xlink:href="#BitstreamVeraSans-Roman-39"/>
       <use x="63.623046875" xlink:href="#BitstreamVeraSans-Roman-2e"/>
       <use x="95.41015625" xlink:href="#BitstreamVeraSans-Roman-32"/>
      </g>
     </g>
    </g>
    <g id="ytick_3">
     <g id="line2d_17">
      <g>
       <use style="stroke:#000000;stroke-width:0.5;" x="72.0" xlink:href="#m668702a7b5" y="290.057142857"/>
      </g>
     </g>
     <g id="line2d_18">
      <g>
       <use style="stroke:#000000;stroke-width:0.5;" x="518.4" xlink:href="#m83d720d83f" y="290.057142857"/>
      </g>
     </g>
     <g id="text_9">
      <!-- 9.3 -->
      <defs>
       <path d="M 40.578125 39.3125 
Q 47.65625 37.796875 51.625 33 
Q 55.609375 28.21875 55.609375 21.1875 
Q 55.609375 10.40625 48.1875 4.484375 
Q 40.765625 -1.421875 27.09375 -1.421875 
Q 22.515625 -1.421875 17.65625 -0.515625 
Q 12.796875 0.390625 7.625 2.203125 
L 7.625 11.71875 
Q 11.71875 9.328125 16.59375 8.109375 
Q 21.484375 6.890625 26.8125 6.890625 
Q 36.078125 6.890625 40.9375 10.546875 
Q 45.796875 14.203125 45.796875 21.1875 
Q 45.796875 27.640625 41.28125 31.265625 
Q 36.765625 34.90625 28.71875 34.90625 
L 20.21875 34.90625 
L 20.21875 43.015625 
L 29.109375 43.015625 
Q 36.375 43.015625 40.234375 45.921875 
Q 44.09375 48.828125 44.09375 54.296875 
Q 44.09375 59.90625 40.109375 62.90625 
Q 36.140625 65.921875 28.71875 65.921875 
Q 24.65625 65.921875 20.015625 65.03125 
Q 15.375 64.15625 9.8125 62.3125 
L 9.8125 71.09375 
Q 15.4375 72.65625 20.34375 73.4375 
Q 25.25 74.21875 29.59375 74.21875 
Q 40.828125 74.21875 47.359375 69.109375 
Q 53.90625 64.015625 53.90625 55.328125 
Q 53.90625 49.265625 50.4375 45.09375 
Q 46.96875 40.921875 40.578125 39.3125 
" id="BitstreamVeraSans-Roman-33"/>
      </defs>
      <g transform="translate(48.91625 293.368392857)scale(0.12 -0.12)">
       <use xlink:href="#BitstreamVeraSans-Roman-39"/>
       <use x="63.623046875" xlink:href="#BitstreamVeraSans-Roman-2e"/>
       <use x="95.41015625" xlink:href="#BitstreamVeraSans-Roman-33"/>
      </g>
     </g>
    </g>
    <g id="ytick_4">
     <g id="line2d_19">
      <g>
       <use style="stroke:#000000;stroke-width:0.5;" x="72.0" xlink:href="#m668702a7b5" y="240.685714286"/>
      </g>
     </g>
     <g id="line2d_20">
      <g>
       <use style="stroke:#000000;stroke-width:0.5;" x="518.4" xlink:href="#m83d720d83f" y="240.685714286"/>
      </g>
     </g>
     <g id="text_10">
      <!-- 9.4 -->
      <defs>
       <path d="M 37.796875 64.3125 
L 12.890625 25.390625 
L 37.796875 25.390625 
z
M 35.203125 72.90625 
L 47.609375 72.90625 
L 47.609375 25.390625 
L 58.015625 25.390625 
L 58.015625 17.1875 
L 47.609375 17.1875 
L 47.609375 0 
L 37.796875 0 
L 37.796875 17.1875 
L 4.890625 17.1875 
L 4.890625 26.703125 
z
" id="BitstreamVeraSans-Roman-34"/>
      </defs>
      <g transform="translate(48.91625 243.996964286)scale(0.12 -0.12)">
       <use xlink:href="#BitstreamVeraSans-Roman-39"/>
       <use x="63.623046875" xlink:href="#BitstreamVeraSans-Roman-2e"/>
       <use x="95.41015625" xlink:href="#BitstreamVeraSans-Roman-34"/>
      </g>
     </g>
    </g>
    <g id="ytick_5">
     <g id="line2d_21">
      <g>
       <use style="stroke:#000000;stroke-width:0.5;" x="72.0" xlink:href="#m668702a7b5" y="191.314285714"/>
      </g>
     </g>
     <g id="line2d_22">
      <g>
       <use style="stroke:#000000;stroke-width:0.5;" x="518.4" xlink:href="#m83d720d83f" y="191.314285714"/>
      </g>
     </g>
     <g id="text_11">
      <!-- 9.5 -->
      <g transform="translate(48.91625 194.625535714)scale(0.12 -0.12)">
       <use xlink:href="#BitstreamVeraSans-Roman-39"/>
       <use x="63.623046875" xlink:href="#BitstreamVeraSans-Roman-2e"/>
       <use x="95.41015625" xlink:href="#BitstreamVeraSans-Roman-35"/>
      </g>
     </g>
    </g>
    <g id="ytick_6">
     <g id="line2d_23">
      <g>
       <use style="stroke:#000000;stroke-width:0.5;" x="72.0" xlink:href="#m668702a7b5" y="141.942857143"/>
      </g>
     </g>
     <g id="line2d_24">
      <g>
       <use style="stroke:#000000;stroke-width:0.5;" x="518.4" xlink:href="#m83d720d83f" y="141.942857143"/>
      </g>
     </g>
     <g id="text_12">
      <!-- 9.6 -->
      <defs>
       <path d="M 33.015625 40.375 
Q 26.375 40.375 22.484375 35.828125 
Q 18.609375 31.296875 18.609375 23.390625 
Q 18.609375 15.53125 22.484375 10.953125 
Q 26.375 6.390625 33.015625 6.390625 
Q 39.65625 6.390625 43.53125 10.953125 
Q 47.40625 15.53125 47.40625 23.390625 
Q 47.40625 31.296875 43.53125 35.828125 
Q 39.65625 40.375 33.015625 40.375 
M 52.59375 71.296875 
L 52.59375 62.3125 
Q 48.875 64.0625 45.09375 64.984375 
Q 41.3125 65.921875 37.59375 65.921875 
Q 27.828125 65.921875 22.671875 59.328125 
Q 17.53125 52.734375 16.796875 39.40625 
Q 19.671875 43.65625 24.015625 45.921875 
Q 28.375 48.1875 33.59375 48.1875 
Q 44.578125 48.1875 50.953125 41.515625 
Q 57.328125 34.859375 57.328125 23.390625 
Q 57.328125 12.15625 50.6875 5.359375 
Q 44.046875 -1.421875 33.015625 -1.421875 
Q 20.359375 -1.421875 13.671875 8.265625 
Q 6.984375 17.96875 6.984375 36.375 
Q 6.984375 53.65625 15.1875 63.9375 
Q 23.390625 74.21875 37.203125 74.21875 
Q 40.921875 74.21875 44.703125 73.484375 
Q 48.484375 72.75 52.59375 71.296875 
" id="BitstreamVeraSans-Roman-36"/>
      </defs>
      <g transform="translate(48.91625 145.254107143)scale(0.12 -0.12)">
       <use xlink:href="#BitstreamVeraSans-Roman-39"/>
       <use x="63.623046875" xlink:href="#BitstreamVeraSans-Roman-2e"/>
       <use x="95.41015625" xlink:href="#BitstreamVeraSans-Roman-36"/>
      </g>
     </g>
    </g>
    <g id="ytick_7">
     <g id="line2d_25">
      <g>
       <use style="stroke:#000000;stroke-width:0.5;" x="72.0" xlink:href="#m668702a7b5" y="92.5714285714"/>
      </g>
     </g>
     <g id="line2d_26">
      <g>
       <use style="stroke:#000000;stroke-width:0.5;" x="518.4" xlink:href="#m83d720d83f" y="92.5714285714"/>
      </g>
     </g>
     <g id="text_13">
      <!-- 9.7 -->
      <defs>
       <path d="M 8.203125 72.90625 
L 55.078125 72.90625 
L 55.078125 68.703125 
L 28.609375 0 
L 18.3125 0 
L 43.21875 64.59375 
L 8.203125 64.59375 
z
" id="BitstreamVeraSans-Roman-37"/>
      </defs>
      <g transform="translate(48.91625 95.8826785714)scale(0.12 -0.12)">
       <use xlink:href="#BitstreamVeraSans-Roman-39"/>
       <use x="63.623046875" xlink:href="#BitstreamVeraSans-Roman-2e"/>
       <use x="95.41015625" xlink:href="#BitstreamVeraSans-Roman-37"/>
      </g>
     </g>
    </g>
    <g id="ytick_8">
     <g id="text_14">
      <!-- 9.8 -->
      <g transform="translate(48.91625 46.51125)scale(0.12 -0.12)">
       <use xlink:href="#BitstreamVeraSans-Roman-39"/>
       <use x="63.623046875" xlink:href="#BitstreamVeraSans-Roman-2e"/>
       <use x="95.41015625" xlink:href="#BitstreamVeraSans-Roman-38"/>
      </g>
     </g>
    </g>
   </g>
  </g>
 </g>
 <defs>
  <clipPath id="p0723c538b7">
   <rect height="345.6" width="446.4" x="72.0" y="43.2"/>
  </clipPath>
 </defs>
</svg>
