<?xml version="1.0" encoding="utf-8" standalone="no"?>
<!DOCTYPE svg PUBLIC "-//W3C//DTD SVG 1.1//EN"
  "http://www.w3.org/Graphics/SVG/1.1/DTD/svg11.dtd">
<!-- Created with matplotlib (http://matplotlib.org/) -->
<svg height="345.6pt" version="1.1" viewBox="0 0 460.8 345.6" width="460.8pt" xmlns="http://www.w3.org/2000/svg" xmlns:xlink="http://www.w3.org/1999/xlink">
 <defs>
  <style type="text/css">
*{stroke-linecap:butt;stroke-linejoin:round;}
  </style>
 </defs>
 <g id="figure_1">
  <g id="patch_1">
   <path d="M 0 345.6 
L 460.8 345.6 
L 460.8 0 
L 0 0 
z
" style="fill:#ffffff;"/>
  </g>
  <g id="axes_1">
   <g id="patch_2">
    <path d="M 57.6 307.584 
L 414.72 307.584 
L 414.72 41.472 
L 57.6 41.472 
z
" style="fill:#ffffff;"/>
   </g>
   <g id="PathCollection_1">
    <defs>
     <path d="M 0 0.612372 
C 0.162403 0.612372 0.318176 0.547849 0.433013 0.433013 
C 0.547849 0.318176 0.612372 0.162403 0.612372 0 
C 0.612372 -0.162403 0.547849 -0.318176 0.433013 -0.433013 
C 0.318176 -0.547849 0.162403 -0.612372 0 -0.612372 
C -0.162403 -0.612372 -0.318176 -0.547849 -0.433013 -0.433013 
C -0.547849 -0.318176 -0.612372 -0.162403 -0.612372 0 
C -0.612372 0.162403 -0.547849 0.318176 -0.433013 0.433013 
C -0.318176 0.547849 -0.162403 0.612372 0 0.612372 
z
" id="mf5214e13f8" style="stroke:#000000;"/>
    </defs>
    <g clip-path="url(#p277bd066dc)">
     <use style="stroke:#000000;" x="298.549106" xlink:href="#mf5214e13f8" y="71.432544"/>
     <use style="stroke:#000000;" x="311.337182" xlink:href="#mf5214e13f8" y="92.878002"/>
     <use style="stroke:#000000;" x="291.668286" xlink:href="#mf5214e13f8" y="64.488022"/>
     <use style="stroke:#000000;" x="393.515049" xlink:href="#mf5214e13f8" y="174.938082"/>
     <use style="stroke:#000000;" x="306.57668" xlink:href="#mf5214e13f8" y="84.845515"/>
     <use style="stroke:#000000;" x="314.420459" xlink:href="#mf5214e13f8" y="99.801852"/>
     <use style="stroke:#000000;" x="329.135738" xlink:href="#mf5214e13f8" y="106.751718"/>
     <use style="stroke:#000000;" x="340.368769" xlink:href="#mf5214e13f8" y="127.246755"/>
     <use style="stroke:#000000;" x="331.249931" xlink:href="#mf5214e13f8" y="109.154086"/>
     <use style="stroke:#000000;" x="297.468577" xlink:href="#mf5214e13f8" y="70.7244"/>
     <use style="stroke:#000000;" x="339.396969" xlink:href="#mf5214e13f8" y="125.190073"/>
     <use style="stroke:#000000;" x="333.819582" xlink:href="#mf5214e13f8" y="114.48224"/>
     <use style="stroke:#000000;" x="333.919494" xlink:href="#mf5214e13f8" y="115.139332"/>
     <use style="stroke:#000000;" x="291.058104" xlink:href="#mf5214e13f8" y="64.348075"/>
     <use style="stroke:#000000;" x="369.097086" xlink:href="#mf5214e13f8" y="139.743993"/>
     <use style="stroke:#000000;" x="350.31302" xlink:href="#mf5214e13f8" y="139.021238"/>
     <use style="stroke:#000000;" x="304.584458" xlink:href="#mf5214e13f8" y="80.600061"/>
     <use style="stroke:#000000;" x="335.949648" xlink:href="#mf5214e13f8" y="118.509163"/>
     <use style="stroke:#000000;" x="305.524119" xlink:href="#mf5214e13f8" y="83.017601"/>
     <use style="stroke:#000000;" x="340.232277" xlink:href="#mf5214e13f8" y="127.201027"/>
     <use style="stroke:#000000;" x="302.863583" xlink:href="#mf5214e13f8" y="77.548018"/>
     <use style="stroke:#000000;" x="340.409227" xlink:href="#mf5214e13f8" y="127.318598"/>
     <use style="stroke:#000000;" x="325.12261" xlink:href="#mf5214e13f8" y="102.254133"/>
     <use style="stroke:#000000;" x="299.6151" xlink:href="#mf5214e13f8" y="72.04707"/>
     <use style="stroke:#000000;" x="333.609714" xlink:href="#mf5214e13f8" y="114.116702"/>
     <use style="stroke:#000000;" x="335.270741" xlink:href="#mf5214e13f8" y="116.769525"/>
     <use style="stroke:#000000;" x="312.564638" xlink:href="#mf5214e13f8" y="94.578226"/>
     <use style="stroke:#000000;" x="324.8132" xlink:href="#mf5214e13f8" y="102.065332"/>
     <use style="stroke:#000000;" x="300.784259" xlink:href="#mf5214e13f8" y="74.617926"/>
     <use style="stroke:#000000;" x="344.197478" xlink:href="#mf5214e13f8" y="134.292398"/>
     <use style="stroke:#000000;" x="326.919768" xlink:href="#mf5214e13f8" y="103.811108"/>
     <use style="stroke:#000000;" x="304.319593" xlink:href="#mf5214e13f8" y="80.205875"/>
     <use style="stroke:#000000;" x="340.778618" xlink:href="#mf5214e13f8" y="128.580295"/>
     <use style="stroke:#000000;" x="325.349486" xlink:href="#mf5214e13f8" y="102.412918"/>
     <use style="stroke:#000000;" x="308.101301" xlink:href="#mf5214e13f8" y="86.691289"/>
     <use style="stroke:#000000;" x="311.907426" xlink:href="#mf5214e13f8" y="94.157398"/>
     <use style="stroke:#000000;" x="338.664442" xlink:href="#mf5214e13f8" y="123.782959"/>
     <use style="stroke:#000000;" x="341.721974" xlink:href="#mf5214e13f8" y="129.730283"/>
     <use style="stroke:#000000;" x="345.31703" xlink:href="#mf5214e13f8" y="135.165436"/>
     <use style="stroke:#000000;" x="297.314969" xlink:href="#mf5214e13f8" y="70.002353"/>
     <use style="stroke:#000000;" x="330.400551" xlink:href="#mf5214e13f8" y="108.141629"/>
     <use style="stroke:#000000;" x="336.180205" xlink:href="#mf5214e13f8" y="118.651412"/>
     <use style="stroke:#000000;" x="331.379205" xlink:href="#mf5214e13f8" y="109.876106"/>
     <use style="stroke:#000000;" x="309.905491" xlink:href="#mf5214e13f8" y="90.321167"/>
     <use style="stroke:#000000;" x="374.236151" xlink:href="#mf5214e13f8" y="145.297364"/>
     <use style="stroke:#000000;" x="323.532717" xlink:href="#mf5214e13f8" y="101.939546"/>
     <use style="stroke:#000000;" x="404.548853" xlink:href="#mf5214e13f8" y="177.32506"/>
     <use style="stroke:#000000;" x="332.859319" xlink:href="#mf5214e13f8" y="112.881751"/>
     <use style="stroke:#000000;" x="391.913599" xlink:href="#mf5214e13f8" y="174.630149"/>
     <use style="stroke:#000000;" x="308.335889" xlink:href="#mf5214e13f8" y="87.840942"/>
     <use style="stroke:#000000;" x="338.141458" xlink:href="#mf5214e13f8" y="123.246618"/>
     <use style="stroke:#000000;" x="328.503486" xlink:href="#mf5214e13f8" y="105.669073"/>
     <use style="stroke:#000000;" x="303.426996" xlink:href="#mf5214e13f8" y="79.042057"/>
     <use style="stroke:#000000;" x="303.354297" xlink:href="#mf5214e13f8" y="78.450058"/>
     <use style="stroke:#000000;" x="340.726588" xlink:href="#mf5214e13f8" y="128.401842"/>
     <use style="stroke:#000000;" x="341.452406" xlink:href="#mf5214e13f8" y="129.643891"/>
     <use style="stroke:#000000;" x="294.400309" xlink:href="#mf5214e13f8" y="66.310532"/>
     <use style="stroke:#000000;" x="384.630737" xlink:href="#mf5214e13f8" y="166.663611"/>
     <use style="stroke:#000000;" x="291.002922" xlink:href="#mf5214e13f8" y="64.153909"/>
     <use style="stroke:#000000;" x="340.679581" xlink:href="#mf5214e13f8" y="127.748503"/>
     <use style="stroke:#000000;" x="294.236513" xlink:href="#mf5214e13f8" y="66.151625"/>
     <use style="stroke:#000000;" x="308.364711" xlink:href="#mf5214e13f8" y="88.843579"/>
     <use style="stroke:#000000;" x="292.592706" xlink:href="#mf5214e13f8" y="64.562113"/>
     <use style="stroke:#000000;" x="329.998998" xlink:href="#mf5214e13f8" y="107.871067"/>
     <use style="stroke:#000000;" x="300.23784" xlink:href="#mf5214e13f8" y="73.596047"/>
     <use style="stroke:#000000;" x="296.186774" xlink:href="#mf5214e13f8" y="69.12162"/>
     <use style="stroke:#000000;" x="327.025206" xlink:href="#mf5214e13f8" y="104.210498"/>
     <use style="stroke:#000000;" x="390.271931" xlink:href="#mf5214e13f8" y="174.617107"/>
     <use style="stroke:#000000;" x="307.675431" xlink:href="#mf5214e13f8" y="85.6299"/>
     <use style="stroke:#000000;" x="313.565658" xlink:href="#mf5214e13f8" y="95.685327"/>
     <use style="stroke:#000000;" x="325.258882" xlink:href="#mf5214e13f8" y="102.331341"/>
     <use style="stroke:#000000;" x="329.090057" xlink:href="#mf5214e13f8" y="106.651402"/>
     <use style="stroke:#000000;" x="375.864508" xlink:href="#mf5214e13f8" y="152.928366"/>
     <use style="stroke:#000000;" x="304.539953" xlink:href="#mf5214e13f8" y="80.520058"/>
     <use style="stroke:#000000;" x="297.439433" xlink:href="#mf5214e13f8" y="70.690499"/>
     <use style="stroke:#000000;" x="343.379738" xlink:href="#mf5214e13f8" y="132.947876"/>
     <use style="stroke:#000000;" x="337.039382" xlink:href="#mf5214e13f8" y="120.849755"/>
     <use style="stroke:#000000;" x="343.841525" xlink:href="#mf5214e13f8" y="133.743185"/>
     <use style="stroke:#000000;" x="323.206899" xlink:href="#mf5214e13f8" y="101.787905"/>
     <use style="stroke:#000000;" x="336.921595" xlink:href="#mf5214e13f8" y="120.611911"/>
     <use style="stroke:#000000;" x="326.209756" xlink:href="#mf5214e13f8" y="103.100264"/>
     <use style="stroke:#000000;" x="340.991535" xlink:href="#mf5214e13f8" y="129.634377"/>
     <use style="stroke:#000000;" x="337.500009" xlink:href="#mf5214e13f8" y="121.644552"/>
     <use style="stroke:#000000;" x="342.722692" xlink:href="#mf5214e13f8" y="131.302402"/>
     <use style="stroke:#000000;" x="334.578624" xlink:href="#mf5214e13f8" y="115.415968"/>
     <use style="stroke:#000000;" x="329.003146" xlink:href="#mf5214e13f8" y="106.550225"/>
     <use style="stroke:#000000;" x="307.1048" xlink:href="#mf5214e13f8" y="85.065984"/>
     <use style="stroke:#000000;" x="295.998949" xlink:href="#mf5214e13f8" y="68.851699"/>
     <use style="stroke:#000000;" x="310.951897" xlink:href="#mf5214e13f8" y="92.290641"/>
     <use style="stroke:#000000;" x="297.475369" xlink:href="#mf5214e13f8" y="70.732327"/>
     <use style="stroke:#000000;" x="378.1793" xlink:href="#mf5214e13f8" y="159.318422"/>
     <use style="stroke:#000000;" x="336.69932" xlink:href="#mf5214e13f8" y="120.173347"/>
     <use style="stroke:#000000;" x="331.762539" xlink:href="#mf5214e13f8" y="111.505884"/>
     <use style="stroke:#000000;" x="310.31484" xlink:href="#mf5214e13f8" y="91.043422"/>
     <use style="stroke:#000000;" x="332.804031" xlink:href="#mf5214e13f8" y="112.125562"/>
     <use style="stroke:#000000;" x="306.490352" xlink:href="#mf5214e13f8" y="83.622955"/>
     <use style="stroke:#000000;" x="314.267107" xlink:href="#mf5214e13f8" y="98.964718"/>
     <use style="stroke:#000000;" x="346.682194" xlink:href="#mf5214e13f8" y="136.593554"/>
     <use style="stroke:#000000;" x="305.215252" xlink:href="#mf5214e13f8" y="81.359447"/>
     <use style="stroke:#000000;" x="341.898288" xlink:href="#mf5214e13f8" y="129.956615"/>
     <use style="stroke:#000000;" x="297.632367" xlink:href="#mf5214e13f8" y="82.155659"/>
     <use style="stroke:#000000;" x="311.361243" xlink:href="#mf5214e13f8" y="92.91572"/>
     <use style="stroke:#000000;" x="280.754174" xlink:href="#mf5214e13f8" y="99.369149"/>
     <use style="stroke:#000000;" x="380.73697" xlink:href="#mf5214e13f8" y="171.448027"/>
     <use style="stroke:#000000;" x="306.401725" xlink:href="#mf5214e13f8" y="87.768144"/>
     <use style="stroke:#000000;" x="328.229102" xlink:href="#mf5214e13f8" y="124.458615"/>
     <use style="stroke:#000000;" x="330.136071" xlink:href="#mf5214e13f8" y="110.397193"/>
     <use style="stroke:#000000;" x="341.012311" xlink:href="#mf5214e13f8" y="130.729836"/>
     <use style="stroke:#000000;" x="335.8649" xlink:href="#mf5214e13f8" y="119.666306"/>
     <use style="stroke:#000000;" x="310.682382" xlink:href="#mf5214e13f8" y="97.183332"/>
     <use style="stroke:#000000;" x="339.674023" xlink:href="#mf5214e13f8" y="130.068486"/>
     <use style="stroke:#000000;" x="334.230586" xlink:href="#mf5214e13f8" y="118.559957"/>
     <use style="stroke:#000000;" x="337.973108" xlink:href="#mf5214e13f8" y="123.210974"/>
     <use style="stroke:#000000;" x="302.962536" xlink:href="#mf5214e13f8" y="81.804453"/>
     <use style="stroke:#000000;" x="365.437076" xlink:href="#mf5214e13f8" y="141.029553"/>
     <use style="stroke:#000000;" x="351.066052" xlink:href="#mf5214e13f8" y="142.549061"/>
     <use style="stroke:#000000;" x="305.384353" xlink:href="#mf5214e13f8" y="86.1849"/>
     <use style="stroke:#000000;" x="330.45384" xlink:href="#mf5214e13f8" y="111.37307"/>
     <use style="stroke:#000000;" x="310.623025" xlink:href="#mf5214e13f8" y="95.674223"/>
     <use style="stroke:#000000;" x="353.647179" xlink:href="#mf5214e13f8" y="147.369133"/>
     <use style="stroke:#000000;" x="303.687945" xlink:href="#mf5214e13f8" y="86.362103"/>
     <use style="stroke:#000000;" x="335.135706" xlink:href="#mf5214e13f8" y="118.056398"/>
     <use style="stroke:#000000;" x="334.359852" xlink:href="#mf5214e13f8" y="115.030431"/>
     <use style="stroke:#000000;" x="311.627481" xlink:href="#mf5214e13f8" y="98.689428"/>
     <use style="stroke:#000000;" x="331.767524" xlink:href="#mf5214e13f8" y="111.660991"/>
     <use style="stroke:#000000;" x="330.59305" xlink:href="#mf5214e13f8" y="111.678854"/>
     <use style="stroke:#000000;" x="318.525061" xlink:href="#mf5214e13f8" y="106.868548"/>
     <use style="stroke:#000000;" x="334.325986" xlink:href="#mf5214e13f8" y="117.350259"/>
     <use style="stroke:#000000;" x="301.437554" xlink:href="#mf5214e13f8" y="79.995342"/>
     <use style="stroke:#000000;" x="339.748406" xlink:href="#mf5214e13f8" y="127.997963"/>
     <use style="stroke:#000000;" x="334.765987" xlink:href="#mf5214e13f8" y="116.47191"/>
     <use style="stroke:#000000;" x="314.206402" xlink:href="#mf5214e13f8" y="100.869451"/>
     <use style="stroke:#000000;" x="337.33219" xlink:href="#mf5214e13f8" y="122.528831"/>
     <use style="stroke:#000000;" x="323.27906" xlink:href="#mf5214e13f8" y="102.752467"/>
     <use style="stroke:#000000;" x="306.376984" xlink:href="#mf5214e13f8" y="83.469606"/>
     <use style="stroke:#000000;" x="304.269515" xlink:href="#mf5214e13f8" y="87.274151"/>
     <use style="stroke:#000000;" x="335.890952" xlink:href="#mf5214e13f8" y="118.387697"/>
     <use style="stroke:#000000;" x="339.728752" xlink:href="#mf5214e13f8" y="126.439325"/>
     <use style="stroke:#000000;" x="342.62057" xlink:href="#mf5214e13f8" y="131.156081"/>
     <use style="stroke:#000000;" x="290.612052" xlink:href="#mf5214e13f8" y="64.555258"/>
     <use style="stroke:#000000;" x="327.639585" xlink:href="#mf5214e13f8" y="108.886094"/>
     <use style="stroke:#000000;" x="334.134192" xlink:href="#mf5214e13f8" y="114.734681"/>
     <use style="stroke:#000000;" x="328.897409" xlink:href="#mf5214e13f8" y="106.429485"/>
     <use style="stroke:#000000;" x="303.293777" xlink:href="#mf5214e13f8" y="79.761096"/>
     <use style="stroke:#000000;" x="370.645645" xlink:href="#mf5214e13f8" y="145.150736"/>
     <use style="stroke:#000000;" x="323.742471" xlink:href="#mf5214e13f8" y="102.266723"/>
     <use style="stroke:#000000;" x="397.857038" xlink:href="#mf5214e13f8" y="178.926984"/>
     <use style="stroke:#000000;" x="330.973881" xlink:href="#mf5214e13f8" y="109.385835"/>
     <use style="stroke:#000000;" x="389.110233" xlink:href="#mf5214e13f8" y="176.809353"/>
     <use style="stroke:#000000;" x="305.864994" xlink:href="#mf5214e13f8" y="82.736917"/>
    </g>
   </g>
   <g id="PathCollection_2">
    <defs>
     <path d="M 0 0.935414 
C 0.248075 0.935414 0.486022 0.836853 0.661438 0.661438 
C 0.836853 0.486022 0.935414 0.248075 0.935414 0 
C 0.935414 -0.248075 0.836853 -0.486022 0.661438 -0.661438 
C 0.486022 -0.836853 0.248075 -0.935414 0 -0.935414 
C -0.248075 -0.935414 -0.486022 -0.836853 -0.661438 -0.661438 
C -0.836853 -0.486022 -0.935414 -0.248075 -0.935414 0 
C -0.935414 0.248075 -0.836853 0.486022 -0.661438 0.661438 
C -0.486022 0.836853 -0.248075 0.935414 0 0.935414 
z
" id="mc484adde73" style="stroke:#0000ff;"/>
    </defs>
    <g clip-path="url(#p277bd066dc)">
     <use style="fill:#0000ff;stroke:#0000ff;" x="298.549106" xlink:href="#mc484adde73" y="71.432544"/>
     <use style="fill:#0000ff;stroke:#0000ff;" x="311.337182" xlink:href="#mc484adde73" y="92.878002"/>
     <use style="fill:#0000ff;stroke:#0000ff;" x="291.668286" xlink:href="#mc484adde73" y="64.488022"/>
     <use style="fill:#0000ff;stroke:#0000ff;" x="393.515049" xlink:href="#mc484adde73" y="174.938082"/>
     <use style="fill:#0000ff;stroke:#0000ff;" x="306.57668" xlink:href="#mc484adde73" y="84.845515"/>
     <use style="fill:#0000ff;stroke:#0000ff;" x="314.420459" xlink:href="#mc484adde73" y="99.801852"/>
     <use style="fill:#0000ff;stroke:#0000ff;" x="329.135738" xlink:href="#mc484adde73" y="106.751718"/>
     <use style="fill:#0000ff;stroke:#0000ff;" x="340.368769" xlink:href="#mc484adde73" y="127.246755"/>
     <use style="fill:#0000ff;stroke:#0000ff;" x="331.249931" xlink:href="#mc484adde73" y="109.154086"/>
     <use style="fill:#0000ff;stroke:#0000ff;" x="297.468577" xlink:href="#mc484adde73" y="70.7244"/>
     <use style="fill:#0000ff;stroke:#0000ff;" x="339.396969" xlink:href="#mc484adde73" y="125.190073"/>
     <use style="fill:#0000ff;stroke:#0000ff;" x="333.819582" xlink:href="#mc484adde73" y="114.48224"/>
     <use style="fill:#0000ff;stroke:#0000ff;" x="333.919494" xlink:href="#mc484adde73" y="115.139332"/>
     <use style="fill:#0000ff;stroke:#0000ff;" x="291.058104" xlink:href="#mc484adde73" y="64.348075"/>
     <use style="fill:#0000ff;stroke:#0000ff;" x="369.097086" xlink:href="#mc484adde73" y="139.743993"/>
     <use style="fill:#0000ff;stroke:#0000ff;" x="350.31302" xlink:href="#mc484adde73" y="139.021238"/>
     <use style="fill:#0000ff;stroke:#0000ff;" x="304.584458" xlink:href="#mc484adde73" y="80.600061"/>
     <use style="fill:#0000ff;stroke:#0000ff;" x="335.949648" xlink:href="#mc484adde73" y="118.509163"/>
     <use style="fill:#0000ff;stroke:#0000ff;" x="305.524119" xlink:href="#mc484adde73" y="83.017601"/>
     <use style="fill:#0000ff;stroke:#0000ff;" x="340.232277" xlink:href="#mc484adde73" y="127.201027"/>
     <use style="fill:#0000ff;stroke:#0000ff;" x="302.863583" xlink:href="#mc484adde73" y="77.548018"/>
     <use style="fill:#0000ff;stroke:#0000ff;" x="340.409227" xlink:href="#mc484adde73" y="127.318598"/>
     <use style="fill:#0000ff;stroke:#0000ff;" x="325.12261" xlink:href="#mc484adde73" y="102.254133"/>
     <use style="fill:#0000ff;stroke:#0000ff;" x="299.6151" xlink:href="#mc484adde73" y="72.04707"/>
     <use style="fill:#0000ff;stroke:#0000ff;" x="333.609714" xlink:href="#mc484adde73" y="114.116702"/>
     <use style="fill:#0000ff;stroke:#0000ff;" x="335.270741" xlink:href="#mc484adde73" y="116.769525"/>
     <use style="fill:#0000ff;stroke:#0000ff;" x="312.564638" xlink:href="#mc484adde73" y="94.578226"/>
     <use style="fill:#0000ff;stroke:#0000ff;" x="324.8132" xlink:href="#mc484adde73" y="102.065332"/>
     <use style="fill:#0000ff;stroke:#0000ff;" x="300.784259" xlink:href="#mc484adde73" y="74.617926"/>
     <use style="fill:#0000ff;stroke:#0000ff;" x="344.197478" xlink:href="#mc484adde73" y="134.292398"/>
     <use style="fill:#0000ff;stroke:#0000ff;" x="326.919768" xlink:href="#mc484adde73" y="103.811108"/>
     <use style="fill:#0000ff;stroke:#0000ff;" x="304.319593" xlink:href="#mc484adde73" y="80.205875"/>
     <use style="fill:#0000ff;stroke:#0000ff;" x="340.778618" xlink:href="#mc484adde73" y="128.580295"/>
     <use style="fill:#0000ff;stroke:#0000ff;" x="325.349486" xlink:href="#mc484adde73" y="102.412918"/>
     <use style="fill:#0000ff;stroke:#0000ff;" x="308.101301" xlink:href="#mc484adde73" y="86.691289"/>
     <use style="fill:#0000ff;stroke:#0000ff;" x="311.907426" xlink:href="#mc484adde73" y="94.157398"/>
     <use style="fill:#0000ff;stroke:#0000ff;" x="338.664442" xlink:href="#mc484adde73" y="123.782959"/>
     <use style="fill:#0000ff;stroke:#0000ff;" x="341.721974" xlink:href="#mc484adde73" y="129.730283"/>
     <use style="fill:#0000ff;stroke:#0000ff;" x="345.31703" xlink:href="#mc484adde73" y="135.165436"/>
     <use style="fill:#0000ff;stroke:#0000ff;" x="297.314969" xlink:href="#mc484adde73" y="70.002353"/>
     <use style="fill:#0000ff;stroke:#0000ff;" x="330.400551" xlink:href="#mc484adde73" y="108.141629"/>
     <use style="fill:#0000ff;stroke:#0000ff;" x="336.180205" xlink:href="#mc484adde73" y="118.651412"/>
     <use style="fill:#0000ff;stroke:#0000ff;" x="331.379205" xlink:href="#mc484adde73" y="109.876106"/>
     <use style="fill:#0000ff;stroke:#0000ff;" x="309.905491" xlink:href="#mc484adde73" y="90.321167"/>
     <use style="fill:#0000ff;stroke:#0000ff;" x="374.236151" xlink:href="#mc484adde73" y="145.297364"/>
     <use style="fill:#0000ff;stroke:#0000ff;" x="323.532717" xlink:href="#mc484adde73" y="101.939546"/>
     <use style="fill:#0000ff;stroke:#0000ff;" x="404.548853" xlink:href="#mc484adde73" y="177.32506"/>
     <use style="fill:#0000ff;stroke:#0000ff;" x="332.859319" xlink:href="#mc484adde73" y="112.881751"/>
     <use style="fill:#0000ff;stroke:#0000ff;" x="391.913599" xlink:href="#mc484adde73" y="174.630149"/>
     <use style="fill:#0000ff;stroke:#0000ff;" x="308.335889" xlink:href="#mc484adde73" y="87.840942"/>
     <use style="fill:#0000ff;stroke:#0000ff;" x="338.141458" xlink:href="#mc484adde73" y="123.246618"/>
     <use style="fill:#0000ff;stroke:#0000ff;" x="328.503486" xlink:href="#mc484adde73" y="105.669073"/>
     <use style="fill:#0000ff;stroke:#0000ff;" x="303.426996" xlink:href="#mc484adde73" y="79.042057"/>
     <use style="fill:#0000ff;stroke:#0000ff;" x="303.354297" xlink:href="#mc484adde73" y="78.450058"/>
     <use style="fill:#0000ff;stroke:#0000ff;" x="340.726588" xlink:href="#mc484adde73" y="128.401842"/>
     <use style="fill:#0000ff;stroke:#0000ff;" x="341.452406" xlink:href="#mc484adde73" y="129.643891"/>
     <use style="fill:#0000ff;stroke:#0000ff;" x="294.400309" xlink:href="#mc484adde73" y="66.310532"/>
     <use style="fill:#0000ff;stroke:#0000ff;" x="384.630737" xlink:href="#mc484adde73" y="166.663611"/>
     <use style="fill:#0000ff;stroke:#0000ff;" x="291.002922" xlink:href="#mc484adde73" y="64.153909"/>
     <use style="fill:#0000ff;stroke:#0000ff;" x="340.679581" xlink:href="#mc484adde73" y="127.748503"/>
     <use style="fill:#0000ff;stroke:#0000ff;" x="294.236513" xlink:href="#mc484adde73" y="66.151625"/>
     <use style="fill:#0000ff;stroke:#0000ff;" x="308.364711" xlink:href="#mc484adde73" y="88.843579"/>
     <use style="fill:#0000ff;stroke:#0000ff;" x="292.592706" xlink:href="#mc484adde73" y="64.562113"/>
     <use style="fill:#0000ff;stroke:#0000ff;" x="329.998998" xlink:href="#mc484adde73" y="107.871067"/>
     <use style="fill:#0000ff;stroke:#0000ff;" x="300.23784" xlink:href="#mc484adde73" y="73.596047"/>
     <use style="fill:#0000ff;stroke:#0000ff;" x="296.186774" xlink:href="#mc484adde73" y="69.12162"/>
     <use style="fill:#0000ff;stroke:#0000ff;" x="327.025206" xlink:href="#mc484adde73" y="104.210498"/>
     <use style="fill:#0000ff;stroke:#0000ff;" x="390.271931" xlink:href="#mc484adde73" y="174.617107"/>
     <use style="fill:#0000ff;stroke:#0000ff;" x="307.675431" xlink:href="#mc484adde73" y="85.6299"/>
     <use style="fill:#0000ff;stroke:#0000ff;" x="313.565658" xlink:href="#mc484adde73" y="95.685327"/>
     <use style="fill:#0000ff;stroke:#0000ff;" x="325.258882" xlink:href="#mc484adde73" y="102.331341"/>
     <use style="fill:#0000ff;stroke:#0000ff;" x="329.090057" xlink:href="#mc484adde73" y="106.651402"/>
     <use style="fill:#0000ff;stroke:#0000ff;" x="375.864508" xlink:href="#mc484adde73" y="152.928366"/>
     <use style="fill:#0000ff;stroke:#0000ff;" x="304.539953" xlink:href="#mc484adde73" y="80.520058"/>
     <use style="fill:#0000ff;stroke:#0000ff;" x="297.439433" xlink:href="#mc484adde73" y="70.690499"/>
     <use style="fill:#0000ff;stroke:#0000ff;" x="343.379738" xlink:href="#mc484adde73" y="132.947876"/>
     <use style="fill:#0000ff;stroke:#0000ff;" x="337.039382" xlink:href="#mc484adde73" y="120.849755"/>
     <use style="fill:#0000ff;stroke:#0000ff;" x="343.841525" xlink:href="#mc484adde73" y="133.743185"/>
     <use style="fill:#0000ff;stroke:#0000ff;" x="323.206899" xlink:href="#mc484adde73" y="101.787905"/>
     <use style="fill:#0000ff;stroke:#0000ff;" x="336.921595" xlink:href="#mc484adde73" y="120.611911"/>
     <use style="fill:#0000ff;stroke:#0000ff;" x="326.209756" xlink:href="#mc484adde73" y="103.100264"/>
     <use style="fill:#0000ff;stroke:#0000ff;" x="340.991535" xlink:href="#mc484adde73" y="129.634377"/>
     <use style="fill:#0000ff;stroke:#0000ff;" x="337.500009" xlink:href="#mc484adde73" y="121.644552"/>
     <use style="fill:#0000ff;stroke:#0000ff;" x="342.722692" xlink:href="#mc484adde73" y="131.302402"/>
     <use style="fill:#0000ff;stroke:#0000ff;" x="334.578624" xlink:href="#mc484adde73" y="115.415968"/>
     <use style="fill:#0000ff;stroke:#0000ff;" x="329.003146" xlink:href="#mc484adde73" y="106.550225"/>
     <use style="fill:#0000ff;stroke:#0000ff;" x="307.1048" xlink:href="#mc484adde73" y="85.065984"/>
     <use style="fill:#0000ff;stroke:#0000ff;" x="295.998949" xlink:href="#mc484adde73" y="68.851699"/>
     <use style="fill:#0000ff;stroke:#0000ff;" x="310.951897" xlink:href="#mc484adde73" y="92.290641"/>
     <use style="fill:#0000ff;stroke:#0000ff;" x="297.475369" xlink:href="#mc484adde73" y="70.732327"/>
     <use style="fill:#0000ff;stroke:#0000ff;" x="378.1793" xlink:href="#mc484adde73" y="159.318422"/>
     <use style="fill:#0000ff;stroke:#0000ff;" x="336.69932" xlink:href="#mc484adde73" y="120.173347"/>
     <use style="fill:#0000ff;stroke:#0000ff;" x="331.762539" xlink:href="#mc484adde73" y="111.505884"/>
     <use style="fill:#0000ff;stroke:#0000ff;" x="310.31484" xlink:href="#mc484adde73" y="91.043422"/>
     <use style="fill:#0000ff;stroke:#0000ff;" x="332.804031" xlink:href="#mc484adde73" y="112.125562"/>
     <use style="fill:#0000ff;stroke:#0000ff;" x="306.490352" xlink:href="#mc484adde73" y="83.622955"/>
     <use style="fill:#0000ff;stroke:#0000ff;" x="314.267107" xlink:href="#mc484adde73" y="98.964718"/>
     <use style="fill:#0000ff;stroke:#0000ff;" x="346.682194" xlink:href="#mc484adde73" y="136.593554"/>
     <use style="fill:#0000ff;stroke:#0000ff;" x="305.215252" xlink:href="#mc484adde73" y="81.359447"/>
     <use style="fill:#0000ff;stroke:#0000ff;" x="341.898288" xlink:href="#mc484adde73" y="129.956615"/>
    </g>
   </g>
   <g id="matplotlib.axis_1">
    <g id="xtick_1">
     <g id="line2d_1">
      <defs>
       <path d="M 0 0 
L 0 3.5 
" id="md654334311" style="stroke:#000000;stroke-width:0.8;"/>
      </defs>
      <g>
       <use style="stroke:#000000;stroke-width:0.8;" x="57.6" xlink:href="#md654334311" y="307.584"/>
      </g>
     </g>
     <g id="text_1">
      <!-- 4 -->
      <defs>
       <path d="M 37.796875 64.3125 
L 12.890625 25.390625 
L 37.796875 25.390625 
z
M 35.203125 72.90625 
L 47.609375 72.90625 
L 47.609375 25.390625 
L 58.015625 25.390625 
L 58.015625 17.1875 
L 47.609375 17.1875 
L 47.609375 0 
L 37.796875 0 
L 37.796875 17.1875 
L 4.890625 17.1875 
L 4.890625 26.703125 
z
" id="DejaVuSans-34"/>
      </defs>
      <g transform="translate(54.41875 322.182437)scale(0.1 -0.1)">
       <use xlink:href="#DejaVuSans-34"/>
      </g>
     </g>
    </g>
    <g id="xtick_2">
     <g id="line2d_2">
      <g>
       <use style="stroke:#000000;stroke-width:0.8;" x="102.24" xlink:href="#md654334311" y="307.584"/>
      </g>
     </g>
     <g id="text_2">
      <!-- 6 -->
      <defs>
       <path d="M 33.015625 40.375 
Q 26.375 40.375 22.484375 35.828125 
Q 18.609375 31.296875 18.609375 23.390625 
Q 18.609375 15.53125 22.484375 10.953125 
Q 26.375 6.390625 33.015625 6.390625 
Q 39.65625 6.390625 43.53125 10.953125 
Q 47.40625 15.53125 47.40625 23.390625 
Q 47.40625 31.296875 43.53125 35.828125 
Q 39.65625 40.375 33.015625 40.375 
z
M 52.59375 71.296875 
L 52.59375 62.3125 
Q 48.875 64.0625 45.09375 64.984375 
Q 41.3125 65.921875 37.59375 65.921875 
Q 27.828125 65.921875 22.671875 59.328125 
Q 17.53125 52.734375 16.796875 39.40625 
Q 19.671875 43.65625 24.015625 45.921875 
Q 28.375 48.1875 33.59375 48.1875 
Q 44.578125 48.1875 50.953125 41.515625 
Q 57.328125 34.859375 57.328125 23.390625 
Q 57.328125 12.15625 50.6875 5.359375 
Q 44.046875 -1.421875 33.015625 -1.421875 
Q 20.359375 -1.421875 13.671875 8.265625 
Q 6.984375 17.96875 6.984375 36.375 
Q 6.984375 53.65625 15.1875 63.9375 
Q 23.390625 74.21875 37.203125 74.21875 
Q 40.921875 74.21875 44.703125 73.484375 
Q 48.484375 72.75 52.59375 71.296875 
z
" id="DejaVuSans-36"/>
      </defs>
      <g transform="translate(99.05875 322.182437)scale(0.1 -0.1)">
       <use xlink:href="#DejaVuSans-36"/>
      </g>
     </g>
    </g>
    <g id="xtick_3">
     <g id="line2d_3">
      <g>
       <use style="stroke:#000000;stroke-width:0.8;" x="146.88" xlink:href="#md654334311" y="307.584"/>
      </g>
     </g>
     <g id="text_3">
      <!-- 8 -->
      <defs>
       <path d="M 31.78125 34.625 
Q 24.75 34.625 20.71875 30.859375 
Q 16.703125 27.09375 16.703125 20.515625 
Q 16.703125 13.921875 20.71875 10.15625 
Q 24.75 6.390625 31.78125 6.390625 
Q 38.8125 6.390625 42.859375 10.171875 
Q 46.921875 13.96875 46.921875 20.515625 
Q 46.921875 27.09375 42.890625 30.859375 
Q 38.875 34.625 31.78125 34.625 
z
M 21.921875 38.8125 
Q 15.578125 40.375 12.03125 44.71875 
Q 8.5 49.078125 8.5 55.328125 
Q 8.5 64.0625 14.71875 69.140625 
Q 20.953125 74.21875 31.78125 74.21875 
Q 42.671875 74.21875 48.875 69.140625 
Q 55.078125 64.0625 55.078125 55.328125 
Q 55.078125 49.078125 51.53125 44.71875 
Q 48 40.375 41.703125 38.8125 
Q 48.828125 37.15625 52.796875 32.3125 
Q 56.78125 27.484375 56.78125 20.515625 
Q 56.78125 9.90625 50.3125 4.234375 
Q 43.84375 -1.421875 31.78125 -1.421875 
Q 19.734375 -1.421875 13.25 4.234375 
Q 6.78125 9.90625 6.78125 20.515625 
Q 6.78125 27.484375 10.78125 32.3125 
Q 14.796875 37.15625 21.921875 38.8125 
z
M 18.3125 54.390625 
Q 18.3125 48.734375 21.84375 45.5625 
Q 25.390625 42.390625 31.78125 42.390625 
Q 38.140625 42.390625 41.71875 45.5625 
Q 45.3125 48.734375 45.3125 54.390625 
Q 45.3125 60.0625 41.71875 63.234375 
Q 38.140625 66.40625 31.78125 66.40625 
Q 25.390625 66.40625 21.84375 63.234375 
Q 18.3125 60.0625 18.3125 54.390625 
z
" id="DejaVuSans-38"/>
      </defs>
      <g transform="translate(143.69875 322.182437)scale(0.1 -0.1)">
       <use xlink:href="#DejaVuSans-38"/>
      </g>
     </g>
    </g>
    <g id="xtick_4">
     <g id="line2d_4">
      <g>
       <use style="stroke:#000000;stroke-width:0.8;" x="191.52" xlink:href="#md654334311" y="307.584"/>
      </g>
     </g>
     <g id="text_4">
      <!-- 10 -->
      <defs>
       <path d="M 12.40625 8.296875 
L 28.515625 8.296875 
L 28.515625 63.921875 
L 10.984375 60.40625 
L 10.984375 69.390625 
L 28.421875 72.90625 
L 38.28125 72.90625 
L 38.28125 8.296875 
L 54.390625 8.296875 
L 54.390625 0 
L 12.40625 0 
z
" id="DejaVuSans-31"/>
       <path d="M 31.78125 66.40625 
Q 24.171875 66.40625 20.328125 58.90625 
Q 16.5 51.421875 16.5 36.375 
Q 16.5 21.390625 20.328125 13.890625 
Q 24.171875 6.390625 31.78125 6.390625 
Q 39.453125 6.390625 43.28125 13.890625 
Q 47.125 21.390625 47.125 36.375 
Q 47.125 51.421875 43.28125 58.90625 
Q 39.453125 66.40625 31.78125 66.40625 
z
M 31.78125 74.21875 
Q 44.046875 74.21875 50.515625 64.515625 
Q 56.984375 54.828125 56.984375 36.375 
Q 56.984375 17.96875 50.515625 8.265625 
Q 44.046875 -1.421875 31.78125 -1.421875 
Q 19.53125 -1.421875 13.0625 8.265625 
Q 6.59375 17.96875 6.59375 36.375 
Q 6.59375 54.828125 13.0625 64.515625 
Q 19.53125 74.21875 31.78125 74.21875 
z
" id="DejaVuSans-30"/>
      </defs>
      <g transform="translate(185.1575 322.182437)scale(0.1 -0.1)">
       <use xlink:href="#DejaVuSans-31"/>
       <use x="63.623047" xlink:href="#DejaVuSans-30"/>
      </g>
     </g>
    </g>
    <g id="xtick_5">
     <g id="line2d_5">
      <g>
       <use style="stroke:#000000;stroke-width:0.8;" x="236.16" xlink:href="#md654334311" y="307.584"/>
      </g>
     </g>
     <g id="text_5">
      <!-- 12 -->
      <defs>
       <path d="M 19.1875 8.296875 
L 53.609375 8.296875 
L 53.609375 0 
L 7.328125 0 
L 7.328125 8.296875 
Q 12.9375 14.109375 22.625 23.890625 
Q 32.328125 33.6875 34.8125 36.53125 
Q 39.546875 41.84375 41.421875 45.53125 
Q 43.3125 49.21875 43.3125 52.78125 
Q 43.3125 58.59375 39.234375 62.25 
Q 35.15625 65.921875 28.609375 65.921875 
Q 23.96875 65.921875 18.8125 64.3125 
Q 13.671875 62.703125 7.8125 59.421875 
L 7.8125 69.390625 
Q 13.765625 71.78125 18.9375 73 
Q 24.125 74.21875 28.421875 74.21875 
Q 39.75 74.21875 46.484375 68.546875 
Q 53.21875 62.890625 53.21875 53.421875 
Q 53.21875 48.921875 51.53125 44.890625 
Q 49.859375 40.875 45.40625 35.40625 
Q 44.1875 33.984375 37.640625 27.21875 
Q 31.109375 20.453125 19.1875 8.296875 
z
" id="DejaVuSans-32"/>
      </defs>
      <g transform="translate(229.7975 322.182437)scale(0.1 -0.1)">
       <use xlink:href="#DejaVuSans-31"/>
       <use x="63.623047" xlink:href="#DejaVuSans-32"/>
      </g>
     </g>
    </g>
    <g id="xtick_6">
     <g id="line2d_6">
      <g>
       <use style="stroke:#000000;stroke-width:0.8;" x="280.8" xlink:href="#md654334311" y="307.584"/>
      </g>
     </g>
     <g id="text_6">
      <!-- 14 -->
      <g transform="translate(274.4375 322.182437)scale(0.1 -0.1)">
       <use xlink:href="#DejaVuSans-31"/>
       <use x="63.623047" xlink:href="#DejaVuSans-34"/>
      </g>
     </g>
    </g>
    <g id="xtick_7">
     <g id="line2d_7">
      <g>
       <use style="stroke:#000000;stroke-width:0.8;" x="325.44" xlink:href="#md654334311" y="307.584"/>
      </g>
     </g>
     <g id="text_7">
      <!-- 16 -->
      <g transform="translate(319.0775 322.182437)scale(0.1 -0.1)">
       <use xlink:href="#DejaVuSans-31"/>
       <use x="63.623047" xlink:href="#DejaVuSans-36"/>
      </g>
     </g>
    </g>
    <g id="xtick_8">
     <g id="line2d_8">
      <g>
       <use style="stroke:#000000;stroke-width:0.8;" x="370.08" xlink:href="#md654334311" y="307.584"/>
      </g>
     </g>
     <g id="text_8">
      <!-- 18 -->
      <g transform="translate(363.7175 322.182437)scale(0.1 -0.1)">
       <use xlink:href="#DejaVuSans-31"/>
       <use x="63.623047" xlink:href="#DejaVuSans-38"/>
      </g>
     </g>
    </g>
    <g id="xtick_9">
     <g id="line2d_9">
      <g>
       <use style="stroke:#000000;stroke-width:0.8;" x="414.72" xlink:href="#md654334311" y="307.584"/>
      </g>
     </g>
     <g id="text_9">
      <!-- 20 -->
      <g transform="translate(408.3575 322.182437)scale(0.1 -0.1)">
       <use xlink:href="#DejaVuSans-32"/>
       <use x="63.623047" xlink:href="#DejaVuSans-30"/>
      </g>
     </g>
    </g>
   </g>
   <g id="matplotlib.axis_2">
    <g id="ytick_1">
     <g id="line2d_10">
      <defs>
       <path d="M 0 0 
L -3.5 0 
" id="mfb8a3e064a" style="stroke:#000000;stroke-width:0.8;"/>
      </defs>
      <g>
       <use style="stroke:#000000;stroke-width:0.8;" x="57.6" xlink:href="#mfb8a3e064a" y="269.568"/>
      </g>
     </g>
     <g id="text_10">
      <!-- −10 -->
      <defs>
       <path d="M 10.59375 35.5 
L 73.1875 35.5 
L 73.1875 27.203125 
L 10.59375 27.203125 
z
" id="DejaVuSans-2212"/>
      </defs>
      <g transform="translate(29.495313 273.367219)scale(0.1 -0.1)">
       <use xlink:href="#DejaVuSans-2212"/>
       <use x="83.789062" xlink:href="#DejaVuSans-31"/>
       <use x="147.412109" xlink:href="#DejaVuSans-30"/>
      </g>
     </g>
    </g>
    <g id="ytick_2">
     <g id="line2d_11">
      <g>
       <use style="stroke:#000000;stroke-width:0.8;" x="57.6" xlink:href="#mfb8a3e064a" y="222.048"/>
      </g>
     </g>
     <g id="text_11">
      <!-- −5 -->
      <defs>
       <path d="M 10.796875 72.90625 
L 49.515625 72.90625 
L 49.515625 64.59375 
L 19.828125 64.59375 
L 19.828125 46.734375 
Q 21.96875 47.46875 24.109375 47.828125 
Q 26.265625 48.1875 28.421875 48.1875 
Q 40.625 48.1875 47.75 41.5 
Q 54.890625 34.8125 54.890625 23.390625 
Q 54.890625 11.625 47.5625 5.09375 
Q 40.234375 -1.421875 26.90625 -1.421875 
Q 22.3125 -1.421875 17.546875 -0.640625 
Q 12.796875 0.140625 7.71875 1.703125 
L 7.71875 11.625 
Q 12.109375 9.234375 16.796875 8.0625 
Q 21.484375 6.890625 26.703125 6.890625 
Q 35.15625 6.890625 40.078125 11.328125 
Q 45.015625 15.765625 45.015625 23.390625 
Q 45.015625 31 40.078125 35.4375 
Q 35.15625 39.890625 26.703125 39.890625 
Q 22.75 39.890625 18.8125 39.015625 
Q 14.890625 38.140625 10.796875 36.28125 
z
" id="DejaVuSans-35"/>
      </defs>
      <g transform="translate(35.857813 225.847219)scale(0.1 -0.1)">
       <use xlink:href="#DejaVuSans-2212"/>
       <use x="83.789062" xlink:href="#DejaVuSans-35"/>
      </g>
     </g>
    </g>
    <g id="ytick_3">
     <g id="line2d_12">
      <g>
       <use style="stroke:#000000;stroke-width:0.8;" x="57.6" xlink:href="#mfb8a3e064a" y="174.528"/>
      </g>
     </g>
     <g id="text_12">
      <!-- 0 -->
      <g transform="translate(44.2375 178.327219)scale(0.1 -0.1)">
       <use xlink:href="#DejaVuSans-30"/>
      </g>
     </g>
    </g>
    <g id="ytick_4">
     <g id="line2d_13">
      <g>
       <use style="stroke:#000000;stroke-width:0.8;" x="57.6" xlink:href="#mfb8a3e064a" y="127.008"/>
      </g>
     </g>
     <g id="text_13">
      <!-- 5 -->
      <g transform="translate(44.2375 130.807219)scale(0.1 -0.1)">
       <use xlink:href="#DejaVuSans-35"/>
      </g>
     </g>
    </g>
    <g id="ytick_5">
     <g id="line2d_14">
      <g>
       <use style="stroke:#000000;stroke-width:0.8;" x="57.6" xlink:href="#mfb8a3e064a" y="79.488"/>
      </g>
     </g>
     <g id="text_14">
      <!-- 10 -->
      <g transform="translate(37.875 83.287219)scale(0.1 -0.1)">
       <use xlink:href="#DejaVuSans-31"/>
       <use x="63.623047" xlink:href="#DejaVuSans-30"/>
      </g>
     </g>
    </g>
   </g>
   <g id="patch_3">
    <path d="M 57.6 307.584 
L 57.6 41.472 
" style="fill:none;stroke:#000000;stroke-linecap:square;stroke-linejoin:miter;stroke-width:0.8;"/>
   </g>
   <g id="patch_4">
    <path d="M 414.72 307.584 
L 414.72 41.472 
" style="fill:none;stroke:#000000;stroke-linecap:square;stroke-linejoin:miter;stroke-width:0.8;"/>
   </g>
   <g id="patch_5">
    <path d="M 57.6 307.584 
L 414.72 307.584 
" style="fill:none;stroke:#000000;stroke-linecap:square;stroke-linejoin:miter;stroke-width:0.8;"/>
   </g>
   <g id="patch_6">
    <path d="M 57.6 41.472 
L 414.72 41.472 
" style="fill:none;stroke:#000000;stroke-linecap:square;stroke-linejoin:miter;stroke-width:0.8;"/>
   </g>
  </g>
 </g>
 <defs>
  <clipPath id="p277bd066dc">
   <rect height="266.112" width="357.12" x="57.6" y="41.472"/>
  </clipPath>
 </defs>
</svg>
