<?xml version="1.0" encoding="utf-8" standalone="no"?>
<!DOCTYPE svg PUBLIC "-//W3C//DTD SVG 1.1//EN"
  "http://www.w3.org/Graphics/SVG/1.1/DTD/svg11.dtd">
<!-- Created with matplotlib (http://matplotlib.org/) -->
<svg height="345.6pt" version="1.1" viewBox="0 0 460.8 345.6" width="460.8pt" xmlns="http://www.w3.org/2000/svg" xmlns:xlink="http://www.w3.org/1999/xlink">
 <defs>
  <style type="text/css">
*{stroke-linecap:butt;stroke-linejoin:round;}
  </style>
 </defs>
 <g id="figure_1">
  <g id="patch_1">
   <path d="M 0 345.6 
L 460.8 345.6 
L 460.8 0 
L 0 0 
z
" style="fill:#ffffff;"/>
  </g>
  <g id="axes_1">
   <g id="patch_2">
    <path d="M 57.6 307.584 
L 414.72 307.584 
L 414.72 41.472 
L 57.6 41.472 
z
" style="fill:#ffffff;"/>
   </g>
   <g id="PathCollection_1">
    <defs>
     <path d="M 0 0.612372 
C 0.162403 0.612372 0.318176 0.547849 0.433013 0.433013 
C 0.547849 0.318176 0.612372 0.162403 0.612372 0 
C 0.612372 -0.162403 0.547849 -0.318176 0.433013 -0.433013 
C 0.318176 -0.547849 0.162403 -0.612372 0 -0.612372 
C -0.162403 -0.612372 -0.318176 -0.547849 -0.433013 -0.433013 
C -0.547849 -0.318176 -0.612372 -0.162403 -0.612372 0 
C -0.612372 0.162403 -0.547849 0.318176 -0.433013 0.433013 
C -0.318176 0.547849 -0.162403 0.612372 0 0.612372 
z
" id="m13cc3161de" style="stroke:#000000;"/>
    </defs>
    <g clip-path="url(#p3af0361d8b)">
     <use style="stroke:#000000;" x="296.324239" xlink:href="#m13cc3161de" y="67.686858"/>
     <use style="stroke:#000000;" x="300.663221" xlink:href="#m13cc3161de" y="76.18348"/>
     <use style="stroke:#000000;" x="337.641954" xlink:href="#m13cc3161de" y="122.063751"/>
     <use style="stroke:#000000;" x="305.113304" xlink:href="#m13cc3161de" y="81.884356"/>
     <use style="stroke:#000000;" x="329.022122" xlink:href="#m13cc3161de" y="106.572168"/>
     <use style="stroke:#000000;" x="338.850888" xlink:href="#m13cc3161de" y="124.62415"/>
     <use style="stroke:#000000;" x="371.470221" xlink:href="#m13cc3161de" y="142.427991"/>
     <use style="stroke:#000000;" x="335.078654" xlink:href="#m13cc3161de" y="117.148291"/>
     <use style="stroke:#000000;" x="298.03754" xlink:href="#m13cc3161de" y="69.99032"/>
     <use style="stroke:#000000;" x="340.926573" xlink:href="#m13cc3161de" y="128.225167"/>
     <use style="stroke:#000000;" x="330.51231" xlink:href="#m13cc3161de" y="108.434025"/>
     <use style="stroke:#000000;" x="345.611807" xlink:href="#m13cc3161de" y="138.028939"/>
     <use style="stroke:#000000;" x="326.399031" xlink:href="#m13cc3161de" y="103.260586"/>
     <use style="stroke:#000000;" x="314.850935" xlink:href="#m13cc3161de" y="98.468281"/>
     <use style="stroke:#000000;" x="378.1793" xlink:href="#m13cc3161de" y="159.318422"/>
     <use style="stroke:#000000;" x="339.728752" xlink:href="#m13cc3161de" y="126.439325"/>
     <use style="stroke:#000000;" x="342.62057" xlink:href="#m13cc3161de" y="131.156081"/>
     <use style="stroke:#000000;" x="336.69932" xlink:href="#m13cc3161de" y="120.173347"/>
     <use style="stroke:#000000;" x="329.003146" xlink:href="#m13cc3161de" y="106.550225"/>
     <use style="stroke:#000000;" x="307.107093" xlink:href="#m13cc3161de" y="85.386824"/>
     <use style="stroke:#000000;" x="310.951897" xlink:href="#m13cc3161de" y="92.290641"/>
     <use style="stroke:#000000;" x="337.500009" xlink:href="#m13cc3161de" y="121.644552"/>
     <use style="stroke:#000000;" x="371.467414" xlink:href="#m13cc3161de" y="142.425482"/>
     <use style="stroke:#000000;" x="328.897409" xlink:href="#m13cc3161de" y="106.429485"/>
     <use style="stroke:#000000;" x="334.578624" xlink:href="#m13cc3161de" y="115.415968"/>
     <use style="stroke:#000000;" x="342.722692" xlink:href="#m13cc3161de" y="131.302402"/>
     <use style="stroke:#000000;" x="298.035236" xlink:href="#m13cc3161de" y="69.98764"/>
     <use style="stroke:#000000;" x="310.368229" xlink:href="#m13cc3161de" y="90.470647"/>
     <use style="stroke:#000000;" x="323.206899" xlink:href="#m13cc3161de" y="101.787905"/>
     <use style="stroke:#000000;" x="334.134192" xlink:href="#m13cc3161de" y="114.734681"/>
     <use style="stroke:#000000;" x="340.991535" xlink:href="#m13cc3161de" y="129.634377"/>
     <use style="stroke:#000000;" x="298.549106" xlink:href="#m13cc3161de" y="71.432544"/>
     <use style="stroke:#000000;" x="375.864508" xlink:href="#m13cc3161de" y="152.928366"/>
     <use style="stroke:#000000;" x="337.872829" xlink:href="#m13cc3161de" y="122.761248"/>
     <use style="stroke:#000000;" x="390.271931" xlink:href="#m13cc3161de" y="174.617107"/>
     <use style="stroke:#000000;" x="313.751445" xlink:href="#m13cc3161de" y="97.590776"/>
     <use style="stroke:#000000;" x="325.258882" xlink:href="#m13cc3161de" y="102.331341"/>
     <use style="stroke:#000000;" x="338.13502" xlink:href="#m13cc3161de" y="122.820017"/>
     <use style="stroke:#000000;" x="328.962349" xlink:href="#m13cc3161de" y="106.503332"/>
     <use style="stroke:#000000;" x="334.550524" xlink:href="#m13cc3161de" y="115.372473"/>
     <use style="stroke:#000000;" x="326.209756" xlink:href="#m13cc3161de" y="103.100264"/>
     <use style="stroke:#000000;" x="329.090057" xlink:href="#m13cc3161de" y="106.651402"/>
     <use style="stroke:#000000;" x="293.335185" xlink:href="#m13cc3161de" y="65.056344"/>
     <use style="stroke:#000000;" x="305.740273" xlink:href="#m13cc3161de" y="82.490317"/>
     <use style="stroke:#000000;" x="307.675431" xlink:href="#m13cc3161de" y="85.6299"/>
     <use style="stroke:#000000;" x="343.841525" xlink:href="#m13cc3161de" y="133.743185"/>
     <use style="stroke:#000000;" x="343.379738" xlink:href="#m13cc3161de" y="132.947876"/>
     <use style="stroke:#000000;" x="313.565658" xlink:href="#m13cc3161de" y="95.685327"/>
     <use style="stroke:#000000;" x="304.539953" xlink:href="#m13cc3161de" y="80.520058"/>
     <use style="stroke:#000000;" x="308.364711" xlink:href="#m13cc3161de" y="88.843579"/>
     <use style="stroke:#000000;" x="292.592706" xlink:href="#m13cc3161de" y="64.562113"/>
     <use style="stroke:#000000;" x="329.998998" xlink:href="#m13cc3161de" y="107.871067"/>
     <use style="stroke:#000000;" x="294.236513" xlink:href="#m13cc3161de" y="66.151625"/>
     <use style="stroke:#000000;" x="300.23784" xlink:href="#m13cc3161de" y="73.596047"/>
     <use style="stroke:#000000;" x="327.025206" xlink:href="#m13cc3161de" y="104.210498"/>
     <use style="stroke:#000000;" x="340.679581" xlink:href="#m13cc3161de" y="127.748503"/>
     <use style="stroke:#000000;" x="341.452406" xlink:href="#m13cc3161de" y="129.643891"/>
     <use style="stroke:#000000;" x="328.503486" xlink:href="#m13cc3161de" y="105.669073"/>
     <use style="stroke:#000000;" x="384.630737" xlink:href="#m13cc3161de" y="166.663611"/>
     <use style="stroke:#000000;" x="338.141458" xlink:href="#m13cc3161de" y="123.246618"/>
     <use style="stroke:#000000;" x="291.002922" xlink:href="#m13cc3161de" y="64.153909"/>
     <use style="stroke:#000000;" x="303.426996" xlink:href="#m13cc3161de" y="79.042057"/>
     <use style="stroke:#000000;" x="336.180205" xlink:href="#m13cc3161de" y="118.651412"/>
     <use style="stroke:#000000;" x="404.548853" xlink:href="#m13cc3161de" y="177.32506"/>
     <use style="stroke:#000000;" x="294.400309" xlink:href="#m13cc3161de" y="66.310532"/>
     <use style="stroke:#000000;" x="309.905491" xlink:href="#m13cc3161de" y="90.321167"/>
     <use style="stroke:#000000;" x="308.335889" xlink:href="#m13cc3161de" y="87.840942"/>
     <use style="stroke:#000000;" x="331.379205" xlink:href="#m13cc3161de" y="109.876106"/>
     <use style="stroke:#000000;" x="303.354297" xlink:href="#m13cc3161de" y="78.450058"/>
     <use style="stroke:#000000;" x="332.859319" xlink:href="#m13cc3161de" y="112.881751"/>
     <use style="stroke:#000000;" x="374.236151" xlink:href="#m13cc3161de" y="145.297364"/>
     <use style="stroke:#000000;" x="337.204706" xlink:href="#m13cc3161de" y="120.525883"/>
     <use style="stroke:#000000;" x="391.913599" xlink:href="#m13cc3161de" y="174.630149"/>
     <use style="stroke:#000000;" x="305.864994" xlink:href="#m13cc3161de" y="82.736917"/>
     <use style="stroke:#000000;" x="330.400551" xlink:href="#m13cc3161de" y="108.141629"/>
     <use style="stroke:#000000;" x="323.708015" xlink:href="#m13cc3161de" y="101.924801"/>
     <use style="stroke:#000000;" x="310.525457" xlink:href="#m13cc3161de" y="91.517634"/>
     <use style="stroke:#000000;" x="326.393888" xlink:href="#m13cc3161de" y="103.259799"/>
     <use style="stroke:#000000;" x="307.891778" xlink:href="#m13cc3161de" y="86.684994"/>
     <use style="stroke:#000000;" x="331.711947" xlink:href="#m13cc3161de" y="111.469396"/>
     <use style="stroke:#000000;" x="309.886449" xlink:href="#m13cc3161de" y="90.183928"/>
     <use style="stroke:#000000;" x="315.48661" xlink:href="#m13cc3161de" y="99.060264"/>
     <use style="stroke:#000000;" x="301.503832" xlink:href="#m13cc3161de" y="76.680531"/>
     <use style="stroke:#000000;" x="332.056524" xlink:href="#m13cc3161de" y="111.875881"/>
     <use style="stroke:#000000;" x="334.732446" xlink:href="#m13cc3161de" y="115.937334"/>
     <use style="stroke:#000000;" x="311.337182" xlink:href="#m13cc3161de" y="92.878002"/>
     <use style="stroke:#000000;" x="341.721974" xlink:href="#m13cc3161de" y="129.730283"/>
     <use style="stroke:#000000;" x="291.668286" xlink:href="#m13cc3161de" y="64.488022"/>
     <use style="stroke:#000000;" x="330.823848" xlink:href="#m13cc3161de" y="108.608661"/>
     <use style="stroke:#000000;" x="345.31703" xlink:href="#m13cc3161de" y="135.165436"/>
     <use style="stroke:#000000;" x="302.161416" xlink:href="#m13cc3161de" y="77.701236"/>
     <use style="stroke:#000000;" x="334.781317" xlink:href="#m13cc3161de" y="116.485765"/>
     <use style="stroke:#000000;" x="367.504008" xlink:href="#m13cc3161de" y="139.850265"/>
     <use style="stroke:#000000;" x="393.515049" xlink:href="#m13cc3161de" y="174.938082"/>
     <use style="stroke:#000000;" x="325.349486" xlink:href="#m13cc3161de" y="102.412918"/>
     <use style="stroke:#000000;" x="338.664442" xlink:href="#m13cc3161de" y="123.782959"/>
     <use style="stroke:#000000;" x="298.568743" xlink:href="#m13cc3161de" y="71.458375"/>
     <use style="stroke:#000000;" x="339.255462" xlink:href="#m13cc3161de" y="125.738805"/>
     <use style="stroke:#000000;" x="311.907426" xlink:href="#m13cc3161de" y="94.157398"/>
     <use style="stroke:#000000;" x="308.101301" xlink:href="#m13cc3161de" y="86.691289"/>
     <use style="stroke:#000000;" x="294.591966" xlink:href="#m13cc3161de" y="88.030702"/>
     <use style="stroke:#000000;" x="300.673114" xlink:href="#m13cc3161de" y="76.192068"/>
     <use style="stroke:#000000;" x="336.738385" xlink:href="#m13cc3161de" y="128.483474"/>
     <use style="stroke:#000000;" x="305.657668" xlink:href="#m13cc3161de" y="87.79784"/>
     <use style="stroke:#000000;" x="334.425043" xlink:href="#m13cc3161de" y="117.236147"/>
     <use style="stroke:#000000;" x="343.926438" xlink:href="#m13cc3161de" y="142.954248"/>
     <use style="stroke:#000000;" x="364.375414" xlink:href="#m13cc3161de" y="143.813775"/>
     <use style="stroke:#000000;" x="335.44539" xlink:href="#m13cc3161de" y="118.470568"/>
     <use style="stroke:#000000;" x="297.635854" xlink:href="#m13cc3161de" y="75.200893"/>
     <use style="stroke:#000000;" x="345.441051" xlink:href="#m13cc3161de" y="144.751823"/>
     <use style="stroke:#000000;" x="330.718169" xlink:href="#m13cc3161de" y="113.028909"/>
     <use style="stroke:#000000;" x="346.004285" xlink:href="#m13cc3161de" y="137.515672"/>
     <use style="stroke:#000000;" x="330.273735" xlink:href="#m13cc3161de" y="110.219391"/>
     <use style="stroke:#000000;" x="326.209971" xlink:href="#m13cc3161de" y="119.267843"/>
     <use style="stroke:#000000;" x="375.52974" xlink:href="#m13cc3161de" y="159.955193"/>
     <use style="stroke:#000000;" x="340.136793" xlink:href="#m13cc3161de" y="127.817142"/>
     <use style="stroke:#000000;" x="339.83241" xlink:href="#m13cc3161de" y="127.43849"/>
     <use style="stroke:#000000;" x="331.64702" xlink:href="#m13cc3161de" y="111.240227"/>
     <use style="stroke:#000000;" x="339.864412" xlink:href="#m13cc3161de" y="126.961265"/>
     <use style="stroke:#000000;" x="320.830384" xlink:href="#m13cc3161de" y="116.185313"/>
     <use style="stroke:#000000;" x="311.611184" xlink:href="#m13cc3161de" y="92.842858"/>
     <use style="stroke:#000000;" x="332.269371" xlink:href="#m13cc3161de" y="114.311448"/>
     <use style="stroke:#000000;" x="369.528642" xlink:href="#m13cc3161de" y="150.560625"/>
     <use style="stroke:#000000;" x="339.686358" xlink:href="#m13cc3161de" y="128.057495"/>
     <use style="stroke:#000000;" x="332.667675" xlink:href="#m13cc3161de" y="112.943482"/>
     <use style="stroke:#000000;" x="338.384764" xlink:href="#m13cc3161de" y="131.393906"/>
     <use style="stroke:#000000;" x="302.353784" xlink:href="#m13cc3161de" y="81.003321"/>
     <use style="stroke:#000000;" x="321.451805" xlink:href="#m13cc3161de" y="115.644072"/>
     <use style="stroke:#000000;" x="321.558572" xlink:href="#m13cc3161de" y="107.408402"/>
     <use style="stroke:#000000;" x="330.271553" xlink:href="#m13cc3161de" y="110.484068"/>
     <use style="stroke:#000000;" x="349.478054" xlink:href="#m13cc3161de" y="140.91217"/>
     <use style="stroke:#000000;" x="307.944018" xlink:href="#m13cc3161de" y="89.214598"/>
     <use style="stroke:#000000;" x="374.196972" xlink:href="#m13cc3161de" y="156.83567"/>
     <use style="stroke:#000000;" x="335.466916" xlink:href="#m13cc3161de" y="118.748111"/>
     <use style="stroke:#000000;" x="388.980929" xlink:href="#m13cc3161de" y="172.303546"/>
     <use style="stroke:#000000;" x="306.837512" xlink:href="#m13cc3161de" y="89.492058"/>
     <use style="stroke:#000000;" x="322.363316" xlink:href="#m13cc3161de" y="104.77736"/>
     <use style="stroke:#000000;" x="335.86695" xlink:href="#m13cc3161de" y="119.005392"/>
     <use style="stroke:#000000;" x="326.439282" xlink:href="#m13cc3161de" y="104.429735"/>
     <use style="stroke:#000000;" x="329.473796" xlink:href="#m13cc3161de" y="109.030988"/>
     <use style="stroke:#000000;" x="323.429531" xlink:href="#m13cc3161de" y="104.577478"/>
     <use style="stroke:#000000;" x="327.248151" xlink:href="#m13cc3161de" y="104.581109"/>
     <use style="stroke:#000000;" x="292.175821" xlink:href="#m13cc3161de" y="64.881582"/>
     <use style="stroke:#000000;" x="299.134834" xlink:href="#m13cc3161de" y="71.366334"/>
     <use style="stroke:#000000;" x="304.712167" xlink:href="#m13cc3161de" y="82.294654"/>
     <use style="stroke:#000000;" x="342.291675" xlink:href="#m13cc3161de" y="130.635544"/>
     <use style="stroke:#000000;" x="341.064347" xlink:href="#m13cc3161de" y="128.496838"/>
     <use style="stroke:#000000;" x="307.355887" xlink:href="#m13cc3161de" y="87.752643"/>
     <use style="stroke:#000000;" x="303.660323" xlink:href="#m13cc3161de" y="78.651871"/>
     <use style="stroke:#000000;" x="310.041668" xlink:href="#m13cc3161de" y="92.627683"/>
    </g>
   </g>
   <g id="PathCollection_2">
    <defs>
     <path d="M 0 0.935414 
C 0.248075 0.935414 0.486022 0.836853 0.661438 0.661438 
C 0.836853 0.486022 0.935414 0.248075 0.935414 0 
C 0.935414 -0.248075 0.836853 -0.486022 0.661438 -0.661438 
C 0.486022 -0.836853 0.248075 -0.935414 0 -0.935414 
C -0.248075 -0.935414 -0.486022 -0.836853 -0.661438 -0.661438 
C -0.836853 -0.486022 -0.935414 -0.248075 -0.935414 0 
C -0.935414 0.248075 -0.836853 0.486022 -0.661438 0.661438 
C -0.486022 0.836853 -0.248075 0.935414 0 0.935414 
z
" id="m945992845a" style="stroke:#0000ff;"/>
    </defs>
    <g clip-path="url(#p3af0361d8b)">
     <use style="fill:#0000ff;stroke:#0000ff;" x="296.324239" xlink:href="#m945992845a" y="67.686858"/>
     <use style="fill:#0000ff;stroke:#0000ff;" x="300.663221" xlink:href="#m945992845a" y="76.18348"/>
     <use style="fill:#0000ff;stroke:#0000ff;" x="337.641954" xlink:href="#m945992845a" y="122.063751"/>
     <use style="fill:#0000ff;stroke:#0000ff;" x="305.113304" xlink:href="#m945992845a" y="81.884356"/>
     <use style="fill:#0000ff;stroke:#0000ff;" x="329.022122" xlink:href="#m945992845a" y="106.572168"/>
     <use style="fill:#0000ff;stroke:#0000ff;" x="338.850888" xlink:href="#m945992845a" y="124.62415"/>
     <use style="fill:#0000ff;stroke:#0000ff;" x="371.470221" xlink:href="#m945992845a" y="142.427991"/>
     <use style="fill:#0000ff;stroke:#0000ff;" x="335.078654" xlink:href="#m945992845a" y="117.148291"/>
     <use style="fill:#0000ff;stroke:#0000ff;" x="298.03754" xlink:href="#m945992845a" y="69.99032"/>
     <use style="fill:#0000ff;stroke:#0000ff;" x="340.926573" xlink:href="#m945992845a" y="128.225167"/>
     <use style="fill:#0000ff;stroke:#0000ff;" x="330.51231" xlink:href="#m945992845a" y="108.434025"/>
     <use style="fill:#0000ff;stroke:#0000ff;" x="345.611807" xlink:href="#m945992845a" y="138.028939"/>
     <use style="fill:#0000ff;stroke:#0000ff;" x="326.399031" xlink:href="#m945992845a" y="103.260586"/>
     <use style="fill:#0000ff;stroke:#0000ff;" x="314.850935" xlink:href="#m945992845a" y="98.468281"/>
     <use style="fill:#0000ff;stroke:#0000ff;" x="378.1793" xlink:href="#m945992845a" y="159.318422"/>
     <use style="fill:#0000ff;stroke:#0000ff;" x="339.728752" xlink:href="#m945992845a" y="126.439325"/>
     <use style="fill:#0000ff;stroke:#0000ff;" x="342.62057" xlink:href="#m945992845a" y="131.156081"/>
     <use style="fill:#0000ff;stroke:#0000ff;" x="336.69932" xlink:href="#m945992845a" y="120.173347"/>
     <use style="fill:#0000ff;stroke:#0000ff;" x="329.003146" xlink:href="#m945992845a" y="106.550225"/>
     <use style="fill:#0000ff;stroke:#0000ff;" x="307.107093" xlink:href="#m945992845a" y="85.386824"/>
     <use style="fill:#0000ff;stroke:#0000ff;" x="310.951897" xlink:href="#m945992845a" y="92.290641"/>
     <use style="fill:#0000ff;stroke:#0000ff;" x="337.500009" xlink:href="#m945992845a" y="121.644552"/>
     <use style="fill:#0000ff;stroke:#0000ff;" x="371.467414" xlink:href="#m945992845a" y="142.425482"/>
     <use style="fill:#0000ff;stroke:#0000ff;" x="328.897409" xlink:href="#m945992845a" y="106.429485"/>
     <use style="fill:#0000ff;stroke:#0000ff;" x="334.578624" xlink:href="#m945992845a" y="115.415968"/>
     <use style="fill:#0000ff;stroke:#0000ff;" x="342.722692" xlink:href="#m945992845a" y="131.302402"/>
     <use style="fill:#0000ff;stroke:#0000ff;" x="298.035236" xlink:href="#m945992845a" y="69.98764"/>
     <use style="fill:#0000ff;stroke:#0000ff;" x="310.368229" xlink:href="#m945992845a" y="90.470647"/>
     <use style="fill:#0000ff;stroke:#0000ff;" x="323.206899" xlink:href="#m945992845a" y="101.787905"/>
     <use style="fill:#0000ff;stroke:#0000ff;" x="334.134192" xlink:href="#m945992845a" y="114.734681"/>
     <use style="fill:#0000ff;stroke:#0000ff;" x="340.991535" xlink:href="#m945992845a" y="129.634377"/>
     <use style="fill:#0000ff;stroke:#0000ff;" x="298.549106" xlink:href="#m945992845a" y="71.432544"/>
     <use style="fill:#0000ff;stroke:#0000ff;" x="375.864508" xlink:href="#m945992845a" y="152.928366"/>
     <use style="fill:#0000ff;stroke:#0000ff;" x="337.872829" xlink:href="#m945992845a" y="122.761248"/>
     <use style="fill:#0000ff;stroke:#0000ff;" x="390.271931" xlink:href="#m945992845a" y="174.617107"/>
     <use style="fill:#0000ff;stroke:#0000ff;" x="313.751445" xlink:href="#m945992845a" y="97.590776"/>
     <use style="fill:#0000ff;stroke:#0000ff;" x="325.258882" xlink:href="#m945992845a" y="102.331341"/>
     <use style="fill:#0000ff;stroke:#0000ff;" x="338.13502" xlink:href="#m945992845a" y="122.820017"/>
     <use style="fill:#0000ff;stroke:#0000ff;" x="328.962349" xlink:href="#m945992845a" y="106.503332"/>
     <use style="fill:#0000ff;stroke:#0000ff;" x="334.550524" xlink:href="#m945992845a" y="115.372473"/>
     <use style="fill:#0000ff;stroke:#0000ff;" x="326.209756" xlink:href="#m945992845a" y="103.100264"/>
     <use style="fill:#0000ff;stroke:#0000ff;" x="329.090057" xlink:href="#m945992845a" y="106.651402"/>
     <use style="fill:#0000ff;stroke:#0000ff;" x="293.335185" xlink:href="#m945992845a" y="65.056344"/>
     <use style="fill:#0000ff;stroke:#0000ff;" x="305.740273" xlink:href="#m945992845a" y="82.490317"/>
     <use style="fill:#0000ff;stroke:#0000ff;" x="307.675431" xlink:href="#m945992845a" y="85.6299"/>
     <use style="fill:#0000ff;stroke:#0000ff;" x="343.841525" xlink:href="#m945992845a" y="133.743185"/>
     <use style="fill:#0000ff;stroke:#0000ff;" x="343.379738" xlink:href="#m945992845a" y="132.947876"/>
     <use style="fill:#0000ff;stroke:#0000ff;" x="313.565658" xlink:href="#m945992845a" y="95.685327"/>
     <use style="fill:#0000ff;stroke:#0000ff;" x="304.539953" xlink:href="#m945992845a" y="80.520058"/>
     <use style="fill:#0000ff;stroke:#0000ff;" x="308.364711" xlink:href="#m945992845a" y="88.843579"/>
     <use style="fill:#0000ff;stroke:#0000ff;" x="292.592706" xlink:href="#m945992845a" y="64.562113"/>
     <use style="fill:#0000ff;stroke:#0000ff;" x="329.998998" xlink:href="#m945992845a" y="107.871067"/>
     <use style="fill:#0000ff;stroke:#0000ff;" x="294.236513" xlink:href="#m945992845a" y="66.151625"/>
     <use style="fill:#0000ff;stroke:#0000ff;" x="300.23784" xlink:href="#m945992845a" y="73.596047"/>
     <use style="fill:#0000ff;stroke:#0000ff;" x="327.025206" xlink:href="#m945992845a" y="104.210498"/>
     <use style="fill:#0000ff;stroke:#0000ff;" x="340.679581" xlink:href="#m945992845a" y="127.748503"/>
     <use style="fill:#0000ff;stroke:#0000ff;" x="341.452406" xlink:href="#m945992845a" y="129.643891"/>
     <use style="fill:#0000ff;stroke:#0000ff;" x="328.503486" xlink:href="#m945992845a" y="105.669073"/>
     <use style="fill:#0000ff;stroke:#0000ff;" x="384.630737" xlink:href="#m945992845a" y="166.663611"/>
     <use style="fill:#0000ff;stroke:#0000ff;" x="338.141458" xlink:href="#m945992845a" y="123.246618"/>
     <use style="fill:#0000ff;stroke:#0000ff;" x="291.002922" xlink:href="#m945992845a" y="64.153909"/>
     <use style="fill:#0000ff;stroke:#0000ff;" x="303.426996" xlink:href="#m945992845a" y="79.042057"/>
     <use style="fill:#0000ff;stroke:#0000ff;" x="336.180205" xlink:href="#m945992845a" y="118.651412"/>
     <use style="fill:#0000ff;stroke:#0000ff;" x="404.548853" xlink:href="#m945992845a" y="177.32506"/>
     <use style="fill:#0000ff;stroke:#0000ff;" x="294.400309" xlink:href="#m945992845a" y="66.310532"/>
     <use style="fill:#0000ff;stroke:#0000ff;" x="309.905491" xlink:href="#m945992845a" y="90.321167"/>
     <use style="fill:#0000ff;stroke:#0000ff;" x="308.335889" xlink:href="#m945992845a" y="87.840942"/>
     <use style="fill:#0000ff;stroke:#0000ff;" x="331.379205" xlink:href="#m945992845a" y="109.876106"/>
     <use style="fill:#0000ff;stroke:#0000ff;" x="303.354297" xlink:href="#m945992845a" y="78.450058"/>
     <use style="fill:#0000ff;stroke:#0000ff;" x="332.859319" xlink:href="#m945992845a" y="112.881751"/>
     <use style="fill:#0000ff;stroke:#0000ff;" x="374.236151" xlink:href="#m945992845a" y="145.297364"/>
     <use style="fill:#0000ff;stroke:#0000ff;" x="337.204706" xlink:href="#m945992845a" y="120.525883"/>
     <use style="fill:#0000ff;stroke:#0000ff;" x="391.913599" xlink:href="#m945992845a" y="174.630149"/>
     <use style="fill:#0000ff;stroke:#0000ff;" x="305.864994" xlink:href="#m945992845a" y="82.736917"/>
     <use style="fill:#0000ff;stroke:#0000ff;" x="330.400551" xlink:href="#m945992845a" y="108.141629"/>
     <use style="fill:#0000ff;stroke:#0000ff;" x="323.708015" xlink:href="#m945992845a" y="101.924801"/>
     <use style="fill:#0000ff;stroke:#0000ff;" x="310.525457" xlink:href="#m945992845a" y="91.517634"/>
     <use style="fill:#0000ff;stroke:#0000ff;" x="326.393888" xlink:href="#m945992845a" y="103.259799"/>
     <use style="fill:#0000ff;stroke:#0000ff;" x="307.891778" xlink:href="#m945992845a" y="86.684994"/>
     <use style="fill:#0000ff;stroke:#0000ff;" x="331.711947" xlink:href="#m945992845a" y="111.469396"/>
     <use style="fill:#0000ff;stroke:#0000ff;" x="309.886449" xlink:href="#m945992845a" y="90.183928"/>
     <use style="fill:#0000ff;stroke:#0000ff;" x="315.48661" xlink:href="#m945992845a" y="99.060264"/>
     <use style="fill:#0000ff;stroke:#0000ff;" x="301.503832" xlink:href="#m945992845a" y="76.680531"/>
     <use style="fill:#0000ff;stroke:#0000ff;" x="332.056524" xlink:href="#m945992845a" y="111.875881"/>
     <use style="fill:#0000ff;stroke:#0000ff;" x="334.732446" xlink:href="#m945992845a" y="115.937334"/>
     <use style="fill:#0000ff;stroke:#0000ff;" x="311.337182" xlink:href="#m945992845a" y="92.878002"/>
     <use style="fill:#0000ff;stroke:#0000ff;" x="341.721974" xlink:href="#m945992845a" y="129.730283"/>
     <use style="fill:#0000ff;stroke:#0000ff;" x="291.668286" xlink:href="#m945992845a" y="64.488022"/>
     <use style="fill:#0000ff;stroke:#0000ff;" x="330.823848" xlink:href="#m945992845a" y="108.608661"/>
     <use style="fill:#0000ff;stroke:#0000ff;" x="345.31703" xlink:href="#m945992845a" y="135.165436"/>
     <use style="fill:#0000ff;stroke:#0000ff;" x="302.161416" xlink:href="#m945992845a" y="77.701236"/>
     <use style="fill:#0000ff;stroke:#0000ff;" x="334.781317" xlink:href="#m945992845a" y="116.485765"/>
     <use style="fill:#0000ff;stroke:#0000ff;" x="367.504008" xlink:href="#m945992845a" y="139.850265"/>
     <use style="fill:#0000ff;stroke:#0000ff;" x="393.515049" xlink:href="#m945992845a" y="174.938082"/>
     <use style="fill:#0000ff;stroke:#0000ff;" x="325.349486" xlink:href="#m945992845a" y="102.412918"/>
     <use style="fill:#0000ff;stroke:#0000ff;" x="338.664442" xlink:href="#m945992845a" y="123.782959"/>
     <use style="fill:#0000ff;stroke:#0000ff;" x="298.568743" xlink:href="#m945992845a" y="71.458375"/>
     <use style="fill:#0000ff;stroke:#0000ff;" x="339.255462" xlink:href="#m945992845a" y="125.738805"/>
     <use style="fill:#0000ff;stroke:#0000ff;" x="311.907426" xlink:href="#m945992845a" y="94.157398"/>
     <use style="fill:#0000ff;stroke:#0000ff;" x="308.101301" xlink:href="#m945992845a" y="86.691289"/>
    </g>
   </g>
   <g id="matplotlib.axis_1">
    <g id="xtick_1">
     <g id="line2d_1">
      <defs>
       <path d="M 0 0 
L 0 3.5 
" id="m68debc50c9" style="stroke:#000000;stroke-width:0.8;"/>
      </defs>
      <g>
       <use style="stroke:#000000;stroke-width:0.8;" x="57.6" xlink:href="#m68debc50c9" y="307.584"/>
      </g>
     </g>
     <g id="text_1">
      <!-- 4 -->
      <defs>
       <path d="M 37.796875 64.3125 
L 12.890625 25.390625 
L 37.796875 25.390625 
z
M 35.203125 72.90625 
L 47.609375 72.90625 
L 47.609375 25.390625 
L 58.015625 25.390625 
L 58.015625 17.1875 
L 47.609375 17.1875 
L 47.609375 0 
L 37.796875 0 
L 37.796875 17.1875 
L 4.890625 17.1875 
L 4.890625 26.703125 
z
" id="DejaVuSans-34"/>
      </defs>
      <g transform="translate(54.41875 322.182437)scale(0.1 -0.1)">
       <use xlink:href="#DejaVuSans-34"/>
      </g>
     </g>
    </g>
    <g id="xtick_2">
     <g id="line2d_2">
      <g>
       <use style="stroke:#000000;stroke-width:0.8;" x="102.24" xlink:href="#m68debc50c9" y="307.584"/>
      </g>
     </g>
     <g id="text_2">
      <!-- 6 -->
      <defs>
       <path d="M 33.015625 40.375 
Q 26.375 40.375 22.484375 35.828125 
Q 18.609375 31.296875 18.609375 23.390625 
Q 18.609375 15.53125 22.484375 10.953125 
Q 26.375 6.390625 33.015625 6.390625 
Q 39.65625 6.390625 43.53125 10.953125 
Q 47.40625 15.53125 47.40625 23.390625 
Q 47.40625 31.296875 43.53125 35.828125 
Q 39.65625 40.375 33.015625 40.375 
z
M 52.59375 71.296875 
L 52.59375 62.3125 
Q 48.875 64.0625 45.09375 64.984375 
Q 41.3125 65.921875 37.59375 65.921875 
Q 27.828125 65.921875 22.671875 59.328125 
Q 17.53125 52.734375 16.796875 39.40625 
Q 19.671875 43.65625 24.015625 45.921875 
Q 28.375 48.1875 33.59375 48.1875 
Q 44.578125 48.1875 50.953125 41.515625 
Q 57.328125 34.859375 57.328125 23.390625 
Q 57.328125 12.15625 50.6875 5.359375 
Q 44.046875 -1.421875 33.015625 -1.421875 
Q 20.359375 -1.421875 13.671875 8.265625 
Q 6.984375 17.96875 6.984375 36.375 
Q 6.984375 53.65625 15.1875 63.9375 
Q 23.390625 74.21875 37.203125 74.21875 
Q 40.921875 74.21875 44.703125 73.484375 
Q 48.484375 72.75 52.59375 71.296875 
z
" id="DejaVuSans-36"/>
      </defs>
      <g transform="translate(99.05875 322.182437)scale(0.1 -0.1)">
       <use xlink:href="#DejaVuSans-36"/>
      </g>
     </g>
    </g>
    <g id="xtick_3">
     <g id="line2d_3">
      <g>
       <use style="stroke:#000000;stroke-width:0.8;" x="146.88" xlink:href="#m68debc50c9" y="307.584"/>
      </g>
     </g>
     <g id="text_3">
      <!-- 8 -->
      <defs>
       <path d="M 31.78125 34.625 
Q 24.75 34.625 20.71875 30.859375 
Q 16.703125 27.09375 16.703125 20.515625 
Q 16.703125 13.921875 20.71875 10.15625 
Q 24.75 6.390625 31.78125 6.390625 
Q 38.8125 6.390625 42.859375 10.171875 
Q 46.921875 13.96875 46.921875 20.515625 
Q 46.921875 27.09375 42.890625 30.859375 
Q 38.875 34.625 31.78125 34.625 
z
M 21.921875 38.8125 
Q 15.578125 40.375 12.03125 44.71875 
Q 8.5 49.078125 8.5 55.328125 
Q 8.5 64.0625 14.71875 69.140625 
Q 20.953125 74.21875 31.78125 74.21875 
Q 42.671875 74.21875 48.875 69.140625 
Q 55.078125 64.0625 55.078125 55.328125 
Q 55.078125 49.078125 51.53125 44.71875 
Q 48 40.375 41.703125 38.8125 
Q 48.828125 37.15625 52.796875 32.3125 
Q 56.78125 27.484375 56.78125 20.515625 
Q 56.78125 9.90625 50.3125 4.234375 
Q 43.84375 -1.421875 31.78125 -1.421875 
Q 19.734375 -1.421875 13.25 4.234375 
Q 6.78125 9.90625 6.78125 20.515625 
Q 6.78125 27.484375 10.78125 32.3125 
Q 14.796875 37.15625 21.921875 38.8125 
z
M 18.3125 54.390625 
Q 18.3125 48.734375 21.84375 45.5625 
Q 25.390625 42.390625 31.78125 42.390625 
Q 38.140625 42.390625 41.71875 45.5625 
Q 45.3125 48.734375 45.3125 54.390625 
Q 45.3125 60.0625 41.71875 63.234375 
Q 38.140625 66.40625 31.78125 66.40625 
Q 25.390625 66.40625 21.84375 63.234375 
Q 18.3125 60.0625 18.3125 54.390625 
z
" id="DejaVuSans-38"/>
      </defs>
      <g transform="translate(143.69875 322.182437)scale(0.1 -0.1)">
       <use xlink:href="#DejaVuSans-38"/>
      </g>
     </g>
    </g>
    <g id="xtick_4">
     <g id="line2d_4">
      <g>
       <use style="stroke:#000000;stroke-width:0.8;" x="191.52" xlink:href="#m68debc50c9" y="307.584"/>
      </g>
     </g>
     <g id="text_4">
      <!-- 10 -->
      <defs>
       <path d="M 12.40625 8.296875 
L 28.515625 8.296875 
L 28.515625 63.921875 
L 10.984375 60.40625 
L 10.984375 69.390625 
L 28.421875 72.90625 
L 38.28125 72.90625 
L 38.28125 8.296875 
L 54.390625 8.296875 
L 54.390625 0 
L 12.40625 0 
z
" id="DejaVuSans-31"/>
       <path d="M 31.78125 66.40625 
Q 24.171875 66.40625 20.328125 58.90625 
Q 16.5 51.421875 16.5 36.375 
Q 16.5 21.390625 20.328125 13.890625 
Q 24.171875 6.390625 31.78125 6.390625 
Q 39.453125 6.390625 43.28125 13.890625 
Q 47.125 21.390625 47.125 36.375 
Q 47.125 51.421875 43.28125 58.90625 
Q 39.453125 66.40625 31.78125 66.40625 
z
M 31.78125 74.21875 
Q 44.046875 74.21875 50.515625 64.515625 
Q 56.984375 54.828125 56.984375 36.375 
Q 56.984375 17.96875 50.515625 8.265625 
Q 44.046875 -1.421875 31.78125 -1.421875 
Q 19.53125 -1.421875 13.0625 8.265625 
Q 6.59375 17.96875 6.59375 36.375 
Q 6.59375 54.828125 13.0625 64.515625 
Q 19.53125 74.21875 31.78125 74.21875 
z
" id="DejaVuSans-30"/>
      </defs>
      <g transform="translate(185.1575 322.182437)scale(0.1 -0.1)">
       <use xlink:href="#DejaVuSans-31"/>
       <use x="63.623047" xlink:href="#DejaVuSans-30"/>
      </g>
     </g>
    </g>
    <g id="xtick_5">
     <g id="line2d_5">
      <g>
       <use style="stroke:#000000;stroke-width:0.8;" x="236.16" xlink:href="#m68debc50c9" y="307.584"/>
      </g>
     </g>
     <g id="text_5">
      <!-- 12 -->
      <defs>
       <path d="M 19.1875 8.296875 
L 53.609375 8.296875 
L 53.609375 0 
L 7.328125 0 
L 7.328125 8.296875 
Q 12.9375 14.109375 22.625 23.890625 
Q 32.328125 33.6875 34.8125 36.53125 
Q 39.546875 41.84375 41.421875 45.53125 
Q 43.3125 49.21875 43.3125 52.78125 
Q 43.3125 58.59375 39.234375 62.25 
Q 35.15625 65.921875 28.609375 65.921875 
Q 23.96875 65.921875 18.8125 64.3125 
Q 13.671875 62.703125 7.8125 59.421875 
L 7.8125 69.390625 
Q 13.765625 71.78125 18.9375 73 
Q 24.125 74.21875 28.421875 74.21875 
Q 39.75 74.21875 46.484375 68.546875 
Q 53.21875 62.890625 53.21875 53.421875 
Q 53.21875 48.921875 51.53125 44.890625 
Q 49.859375 40.875 45.40625 35.40625 
Q 44.1875 33.984375 37.640625 27.21875 
Q 31.109375 20.453125 19.1875 8.296875 
z
" id="DejaVuSans-32"/>
      </defs>
      <g transform="translate(229.7975 322.182437)scale(0.1 -0.1)">
       <use xlink:href="#DejaVuSans-31"/>
       <use x="63.623047" xlink:href="#DejaVuSans-32"/>
      </g>
     </g>
    </g>
    <g id="xtick_6">
     <g id="line2d_6">
      <g>
       <use style="stroke:#000000;stroke-width:0.8;" x="280.8" xlink:href="#m68debc50c9" y="307.584"/>
      </g>
     </g>
     <g id="text_6">
      <!-- 14 -->
      <g transform="translate(274.4375 322.182437)scale(0.1 -0.1)">
       <use xlink:href="#DejaVuSans-31"/>
       <use x="63.623047" xlink:href="#DejaVuSans-34"/>
      </g>
     </g>
    </g>
    <g id="xtick_7">
     <g id="line2d_7">
      <g>
       <use style="stroke:#000000;stroke-width:0.8;" x="325.44" xlink:href="#m68debc50c9" y="307.584"/>
      </g>
     </g>
     <g id="text_7">
      <!-- 16 -->
      <g transform="translate(319.0775 322.182437)scale(0.1 -0.1)">
       <use xlink:href="#DejaVuSans-31"/>
       <use x="63.623047" xlink:href="#DejaVuSans-36"/>
      </g>
     </g>
    </g>
    <g id="xtick_8">
     <g id="line2d_8">
      <g>
       <use style="stroke:#000000;stroke-width:0.8;" x="370.08" xlink:href="#m68debc50c9" y="307.584"/>
      </g>
     </g>
     <g id="text_8">
      <!-- 18 -->
      <g transform="translate(363.7175 322.182437)scale(0.1 -0.1)">
       <use xlink:href="#DejaVuSans-31"/>
       <use x="63.623047" xlink:href="#DejaVuSans-38"/>
      </g>
     </g>
    </g>
    <g id="xtick_9">
     <g id="line2d_9">
      <g>
       <use style="stroke:#000000;stroke-width:0.8;" x="414.72" xlink:href="#m68debc50c9" y="307.584"/>
      </g>
     </g>
     <g id="text_9">
      <!-- 20 -->
      <g transform="translate(408.3575 322.182437)scale(0.1 -0.1)">
       <use xlink:href="#DejaVuSans-32"/>
       <use x="63.623047" xlink:href="#DejaVuSans-30"/>
      </g>
     </g>
    </g>
   </g>
   <g id="matplotlib.axis_2">
    <g id="ytick_1">
     <g id="line2d_10">
      <defs>
       <path d="M 0 0 
L -3.5 0 
" id="m31a6b2e84a" style="stroke:#000000;stroke-width:0.8;"/>
      </defs>
      <g>
       <use style="stroke:#000000;stroke-width:0.8;" x="57.6" xlink:href="#m31a6b2e84a" y="269.568"/>
      </g>
     </g>
     <g id="text_10">
      <!-- −10 -->
      <defs>
       <path d="M 10.59375 35.5 
L 73.1875 35.5 
L 73.1875 27.203125 
L 10.59375 27.203125 
z
" id="DejaVuSans-2212"/>
      </defs>
      <g transform="translate(29.495313 273.367219)scale(0.1 -0.1)">
       <use xlink:href="#DejaVuSans-2212"/>
       <use x="83.789062" xlink:href="#DejaVuSans-31"/>
       <use x="147.412109" xlink:href="#DejaVuSans-30"/>
      </g>
     </g>
    </g>
    <g id="ytick_2">
     <g id="line2d_11">
      <g>
       <use style="stroke:#000000;stroke-width:0.8;" x="57.6" xlink:href="#m31a6b2e84a" y="222.048"/>
      </g>
     </g>
     <g id="text_11">
      <!-- −5 -->
      <defs>
       <path d="M 10.796875 72.90625 
L 49.515625 72.90625 
L 49.515625 64.59375 
L 19.828125 64.59375 
L 19.828125 46.734375 
Q 21.96875 47.46875 24.109375 47.828125 
Q 26.265625 48.1875 28.421875 48.1875 
Q 40.625 48.1875 47.75 41.5 
Q 54.890625 34.8125 54.890625 23.390625 
Q 54.890625 11.625 47.5625 5.09375 
Q 40.234375 -1.421875 26.90625 -1.421875 
Q 22.3125 -1.421875 17.546875 -0.640625 
Q 12.796875 0.140625 7.71875 1.703125 
L 7.71875 11.625 
Q 12.109375 9.234375 16.796875 8.0625 
Q 21.484375 6.890625 26.703125 6.890625 
Q 35.15625 6.890625 40.078125 11.328125 
Q 45.015625 15.765625 45.015625 23.390625 
Q 45.015625 31 40.078125 35.4375 
Q 35.15625 39.890625 26.703125 39.890625 
Q 22.75 39.890625 18.8125 39.015625 
Q 14.890625 38.140625 10.796875 36.28125 
z
" id="DejaVuSans-35"/>
      </defs>
      <g transform="translate(35.857813 225.847219)scale(0.1 -0.1)">
       <use xlink:href="#DejaVuSans-2212"/>
       <use x="83.789062" xlink:href="#DejaVuSans-35"/>
      </g>
     </g>
    </g>
    <g id="ytick_3">
     <g id="line2d_12">
      <g>
       <use style="stroke:#000000;stroke-width:0.8;" x="57.6" xlink:href="#m31a6b2e84a" y="174.528"/>
      </g>
     </g>
     <g id="text_12">
      <!-- 0 -->
      <g transform="translate(44.2375 178.327219)scale(0.1 -0.1)">
       <use xlink:href="#DejaVuSans-30"/>
      </g>
     </g>
    </g>
    <g id="ytick_4">
     <g id="line2d_13">
      <g>
       <use style="stroke:#000000;stroke-width:0.8;" x="57.6" xlink:href="#m31a6b2e84a" y="127.008"/>
      </g>
     </g>
     <g id="text_13">
      <!-- 5 -->
      <g transform="translate(44.2375 130.807219)scale(0.1 -0.1)">
       <use xlink:href="#DejaVuSans-35"/>
      </g>
     </g>
    </g>
    <g id="ytick_5">
     <g id="line2d_14">
      <g>
       <use style="stroke:#000000;stroke-width:0.8;" x="57.6" xlink:href="#m31a6b2e84a" y="79.488"/>
      </g>
     </g>
     <g id="text_14">
      <!-- 10 -->
      <g transform="translate(37.875 83.287219)scale(0.1 -0.1)">
       <use xlink:href="#DejaVuSans-31"/>
       <use x="63.623047" xlink:href="#DejaVuSans-30"/>
      </g>
     </g>
    </g>
   </g>
   <g id="patch_3">
    <path d="M 57.6 307.584 
L 57.6 41.472 
" style="fill:none;stroke:#000000;stroke-linecap:square;stroke-linejoin:miter;stroke-width:0.8;"/>
   </g>
   <g id="patch_4">
    <path d="M 414.72 307.584 
L 414.72 41.472 
" style="fill:none;stroke:#000000;stroke-linecap:square;stroke-linejoin:miter;stroke-width:0.8;"/>
   </g>
   <g id="patch_5">
    <path d="M 57.6 307.584 
L 414.72 307.584 
" style="fill:none;stroke:#000000;stroke-linecap:square;stroke-linejoin:miter;stroke-width:0.8;"/>
   </g>
   <g id="patch_6">
    <path d="M 57.6 41.472 
L 414.72 41.472 
" style="fill:none;stroke:#000000;stroke-linecap:square;stroke-linejoin:miter;stroke-width:0.8;"/>
   </g>
  </g>
 </g>
 <defs>
  <clipPath id="p3af0361d8b">
   <rect height="266.112" width="357.12" x="57.6" y="41.472"/>
  </clipPath>
 </defs>
</svg>
