<?xml version="1.0" encoding="utf-8" standalone="no"?>
<!DOCTYPE svg PUBLIC "-//W3C//DTD SVG 1.1//EN"
  "http://www.w3.org/Graphics/SVG/1.1/DTD/svg11.dtd">
<!-- Created with matplotlib (http://matplotlib.org/) -->
<svg height="432pt" version="1.1" viewBox="0 0 576 432" width="576pt" xmlns="http://www.w3.org/2000/svg" xmlns:xlink="http://www.w3.org/1999/xlink">
 <defs>
  <style type="text/css">
*{stroke-linecap:butt;stroke-linejoin:round;stroke-miterlimit:100000;}
  </style>
 </defs>
 <g id="figure_1">
  <g id="patch_1">
   <path d="M 0 432 
L 576 432 
L 576 0 
L 0 0 
z
" style="fill:#ffffff;"/>
  </g>
  <g id="axes_1">
   <g id="patch_2">
    <path d="M 72 388.8 
L 518.4 388.8 
L 518.4 43.2 
L 72 43.2 
z
" style="fill:#ffffff;"/>
   </g>
   <g id="PathCollection_1">
    <defs>
     <path d="M 0 1.118034 
C 0.296506 1.118034 0.580908 1.000231 0.790569 0.790569 
C 1.000231 0.580908 1.118034 0.296506 1.118034 0 
C 1.118034 -0.296506 1.000231 -0.580908 0.790569 -0.790569 
C 0.580908 -1.000231 0.296506 -1.118034 0 -1.118034 
C -0.296506 -1.118034 -0.580908 -1.000231 -0.790569 -0.790569 
C -1.000231 -0.580908 -1.118034 -0.296506 -1.118034 0 
C -1.118034 0.296506 -1.000231 0.580908 -0.790569 0.790569 
C -0.580908 1.000231 -0.296506 1.118034 0 1.118034 
z
" id="m390df48247" style="stroke:#000000;"/>
    </defs>
    <g clip-path="url(#p66c44dbfd8)">
     <use style="stroke:#000000;" x="262.990426808" xlink:href="#m390df48247" y="166.552164944"/>
     <use style="stroke:#000000;" x="204.767495258" xlink:href="#m390df48247" y="131.10705282"/>
     <use style="stroke:#000000;" x="443.719470843" xlink:href="#m390df48247" y="309.45868056"/>
     <use style="stroke:#000000;" x="220.651635464" xlink:href="#m390df48247" y="142.05663926"/>
     <use style="stroke:#000000;" x="161.898474323" xlink:href="#m390df48247" y="115.946499183"/>
     <use style="stroke:#000000;" x="244.438781364" xlink:href="#m390df48247" y="158.659589746"/>
     <use style="stroke:#000000;" x="439.051435117" xlink:href="#m390df48247" y="292.487425793"/>
     <use style="stroke:#000000;" x="244.03822746" xlink:href="#m390df48247" y="158.377798501"/>
     <use style="stroke:#000000;" x="201.809651491" xlink:href="#m390df48247" y="129.078531721"/>
     <use style="stroke:#000000;" x="243.339934622" xlink:href="#m390df48247" y="157.886733827"/>
     <use style="stroke:#000000;" x="391.907567985" xlink:href="#m390df48247" y="261.651016118"/>
     <use style="stroke:#000000;" x="254.546611673" xlink:href="#m390df48247" y="162.891413906"/>
     <use style="stroke:#000000;" x="339.988769282" xlink:href="#m390df48247" y="227.08190156"/>
     <use style="stroke:#000000;" x="332.35456877" xlink:href="#m390df48247" y="225.649534359"/>
     <use style="stroke:#000000;" x="444.0" xlink:href="#m390df48247" y="350.405357833"/>
     <use style="stroke:#000000;" x="412.437471252" xlink:href="#m390df48247" y="263.682863581"/>
     <use style="stroke:#000000;" x="281.017268026" xlink:href="#m390df48247" y="184.734661274"/>
     <use style="stroke:#000000;" x="443.99997624" xlink:href="#m390df48247" y="342.657176422"/>
     <use style="stroke:#000000;" x="331.092207302" xlink:href="#m390df48247" y="224.025643188"/>
     <use style="stroke:#000000;" x="299.440376485" xlink:href="#m390df48247" y="192.886235235"/>
     <use style="stroke:#000000;" x="237.596022842" xlink:href="#m390df48247" y="153.856355161"/>
     <use style="stroke:#000000;" x="182.938503257" xlink:href="#m390df48247" y="116.188698068"/>
     <use style="stroke:#000000;" x="281.544636825" xlink:href="#m390df48247" y="185.115695744"/>
     <use style="stroke:#000000;" x="323.898861714" xlink:href="#m390df48247" y="221.510130941"/>
     <use style="stroke:#000000;" x="416.834403186" xlink:href="#m390df48247" y="269.09766635"/>
     <use style="stroke:#000000;" x="200.024829493" xlink:href="#m390df48247" y="127.855864823"/>
     <use style="stroke:#000000;" x="431.022513456" xlink:href="#m390df48247" y="288.868669313"/>
     <use style="stroke:#000000;" x="266.934830355" xlink:href="#m390df48247" y="174.614303736"/>
     <use style="stroke:#000000;" x="201.399723273" xlink:href="#m390df48247" y="128.797626972"/>
     <use style="stroke:#000000;" x="372.803447764" xlink:href="#m390df48247" y="237.346616368"/>
     <use style="stroke:#000000;" x="197.808475397" xlink:href="#m390df48247" y="126.338934289"/>
     <use style="stroke:#000000;" x="380.489642053" xlink:href="#m390df48247" y="259.145940185"/>
     <use style="stroke:#000000;" x="443.747097727" xlink:href="#m390df48247" y="321.256310081"/>
     <use style="stroke:#000000;" x="443.735140411" xlink:href="#m390df48247" y="309.745443085"/>
     <use style="stroke:#000000;" x="253.803761112" xlink:href="#m390df48247" y="162.654589454"/>
     <use style="stroke:#000000;" x="443.999999997" xlink:href="#m390df48247" y="348.16928003"/>
     <use style="stroke:#000000;" x="289.092523121" xlink:href="#m390df48247" y="190.62724955"/>
     <use style="stroke:#000000;" x="443.999218045" xlink:href="#m390df48247" y="334.59634783"/>
     <use style="stroke:#000000;" x="259.215443246" xlink:href="#m390df48247" y="164.394285552"/>
     <use style="stroke:#000000;" x="443.999782205" xlink:href="#m390df48247" y="337.429753427"/>
     <use style="stroke:#000000;" x="316.206108201" xlink:href="#m390df48247" y="226.059451793"/>
     <use style="stroke:#000000;" x="176.637141077" xlink:href="#m390df48247" y="135.299830333"/>
     <use style="stroke:#000000;" x="443.99976109" xlink:href="#m390df48247" y="337.244367099"/>
     <use style="stroke:#000000;" x="188.820234764" xlink:href="#m390df48247" y="142.484117593"/>
     <use style="stroke:#000000;" x="201.494469093" xlink:href="#m390df48247" y="171.722093754"/>
     <use style="stroke:#000000;" x="209.260992862" xlink:href="#m390df48247" y="155.413104813"/>
     <use style="stroke:#000000;" x="443.67519929" xlink:href="#m390df48247" y="319.494162394"/>
     <use style="stroke:#000000;" x="210.450286501" xlink:href="#m390df48247" y="155.219642307"/>
     <use style="stroke:#000000;" x="255.596509796" xlink:href="#m390df48247" y="180.049591028"/>
     <use style="stroke:#000000;" x="342.779257007" xlink:href="#m390df48247" y="254.224222596"/>
     <use style="stroke:#000000;" x="419.998802617" xlink:href="#m390df48247" y="297.200421448"/>
     <use style="stroke:#000000;" x="348.710185351" xlink:href="#m390df48247" y="266.340014031"/>
     <use style="stroke:#000000;" x="383.289891139" xlink:href="#m390df48247" y="272.720133262"/>
     <use style="stroke:#000000;" x="401.618525572" xlink:href="#m390df48247" y="300.962524551"/>
     <use style="stroke:#000000;" x="443.999866347" xlink:href="#m390df48247" y="331.59154264"/>
     <use style="stroke:#000000;" x="407.679576532" xlink:href="#m390df48247" y="269.875247716"/>
     <use style="stroke:#000000;" x="243.000994308" xlink:href="#m390df48247" y="157.648464361"/>
     <use style="stroke:#000000;" x="443.999872703" xlink:href="#m390df48247" y="341.723263968"/>
     <use style="stroke:#000000;" x="295.508334007" xlink:href="#m390df48247" y="195.301014465"/>
     <use style="stroke:#000000;" x="290.120977917" xlink:href="#m390df48247" y="210.127430905"/>
    </g>
   </g>
   <g id="PathCollection_2">
    <defs>
     <path d="M 0 1.936492 
C 0.513564 1.936492 1.006162 1.732451 1.369306 1.369306 
C 1.732451 1.006162 1.936492 0.513564 1.936492 0 
C 1.936492 -0.513564 1.732451 -1.006162 1.369306 -1.369306 
C 1.006162 -1.732451 0.513564 -1.936492 0 -1.936492 
C -0.513564 -1.936492 -1.006162 -1.732451 -1.369306 -1.369306 
C -1.732451 -1.006162 -1.936492 -0.513564 -1.936492 0 
C -1.936492 0.513564 -1.732451 1.006162 -1.369306 1.369306 
C -1.006162 1.732451 -0.513564 1.936492 0 1.936492 
z
" id="ma44f451f9c" style="stroke:#000000;"/>
    </defs>
    <g clip-path="url(#p66c44dbfd8)">
     <use style="fill:#0000ff;stroke:#000000;" x="262.990426808" xlink:href="#ma44f451f9c" y="166.552164944"/>
     <use style="fill:#0000ff;stroke:#000000;" x="204.767495258" xlink:href="#ma44f451f9c" y="131.10705282"/>
     <use style="fill:#0000ff;stroke:#000000;" x="443.719470843" xlink:href="#ma44f451f9c" y="309.45868056"/>
     <use style="fill:#0000ff;stroke:#000000;" x="220.651635464" xlink:href="#ma44f451f9c" y="142.05663926"/>
     <use style="fill:#0000ff;stroke:#000000;" x="161.898474323" xlink:href="#ma44f451f9c" y="115.946499183"/>
     <use style="fill:#0000ff;stroke:#000000;" x="244.438781364" xlink:href="#ma44f451f9c" y="158.659589746"/>
     <use style="fill:#0000ff;stroke:#000000;" x="439.051435117" xlink:href="#ma44f451f9c" y="292.487425793"/>
     <use style="fill:#0000ff;stroke:#000000;" x="244.03822746" xlink:href="#ma44f451f9c" y="158.377798501"/>
     <use style="fill:#0000ff;stroke:#000000;" x="201.809651491" xlink:href="#ma44f451f9c" y="129.078531721"/>
     <use style="fill:#0000ff;stroke:#000000;" x="243.339934622" xlink:href="#ma44f451f9c" y="157.886733827"/>
     <use style="fill:#0000ff;stroke:#000000;" x="391.907567985" xlink:href="#ma44f451f9c" y="261.651016118"/>
     <use style="fill:#0000ff;stroke:#000000;" x="254.546611673" xlink:href="#ma44f451f9c" y="162.891413906"/>
     <use style="fill:#0000ff;stroke:#000000;" x="339.988769282" xlink:href="#ma44f451f9c" y="227.08190156"/>
     <use style="fill:#0000ff;stroke:#000000;" x="332.35456877" xlink:href="#ma44f451f9c" y="225.649534359"/>
     <use style="fill:#0000ff;stroke:#000000;" x="444.0" xlink:href="#ma44f451f9c" y="350.405357833"/>
     <use style="fill:#0000ff;stroke:#000000;" x="412.437471252" xlink:href="#ma44f451f9c" y="263.682863581"/>
     <use style="fill:#0000ff;stroke:#000000;" x="281.017268026" xlink:href="#ma44f451f9c" y="184.734661274"/>
     <use style="fill:#0000ff;stroke:#000000;" x="443.99997624" xlink:href="#ma44f451f9c" y="342.657176422"/>
     <use style="fill:#0000ff;stroke:#000000;" x="331.092207302" xlink:href="#ma44f451f9c" y="224.025643188"/>
     <use style="fill:#0000ff;stroke:#000000;" x="299.440376485" xlink:href="#ma44f451f9c" y="192.886235235"/>
     <use style="fill:#0000ff;stroke:#000000;" x="237.596022842" xlink:href="#ma44f451f9c" y="153.856355161"/>
     <use style="fill:#0000ff;stroke:#000000;" x="182.938503257" xlink:href="#ma44f451f9c" y="116.188698068"/>
     <use style="fill:#0000ff;stroke:#000000;" x="281.544636825" xlink:href="#ma44f451f9c" y="185.115695744"/>
     <use style="fill:#0000ff;stroke:#000000;" x="323.898861714" xlink:href="#ma44f451f9c" y="221.510130941"/>
     <use style="fill:#0000ff;stroke:#000000;" x="416.834403186" xlink:href="#ma44f451f9c" y="269.09766635"/>
     <use style="fill:#0000ff;stroke:#000000;" x="200.024829493" xlink:href="#ma44f451f9c" y="127.855864823"/>
     <use style="fill:#0000ff;stroke:#000000;" x="431.022513456" xlink:href="#ma44f451f9c" y="288.868669313"/>
     <use style="fill:#0000ff;stroke:#000000;" x="266.934830355" xlink:href="#ma44f451f9c" y="174.614303736"/>
     <use style="fill:#0000ff;stroke:#000000;" x="201.399723273" xlink:href="#ma44f451f9c" y="128.797626972"/>
     <use style="fill:#0000ff;stroke:#000000;" x="372.803447764" xlink:href="#ma44f451f9c" y="237.346616368"/>
     <use style="fill:#0000ff;stroke:#000000;" x="197.808475397" xlink:href="#ma44f451f9c" y="126.338934289"/>
     <use style="fill:#0000ff;stroke:#000000;" x="380.489642053" xlink:href="#ma44f451f9c" y="259.145940185"/>
     <use style="fill:#0000ff;stroke:#000000;" x="443.747097727" xlink:href="#ma44f451f9c" y="321.256310081"/>
     <use style="fill:#0000ff;stroke:#000000;" x="443.735140411" xlink:href="#ma44f451f9c" y="309.745443085"/>
     <use style="fill:#0000ff;stroke:#000000;" x="253.803761112" xlink:href="#ma44f451f9c" y="162.654589454"/>
     <use style="fill:#0000ff;stroke:#000000;" x="443.999999997" xlink:href="#ma44f451f9c" y="348.16928003"/>
     <use style="fill:#0000ff;stroke:#000000;" x="289.092523121" xlink:href="#ma44f451f9c" y="190.62724955"/>
     <use style="fill:#0000ff;stroke:#000000;" x="443.999218045" xlink:href="#ma44f451f9c" y="334.59634783"/>
     <use style="fill:#0000ff;stroke:#000000;" x="259.215443246" xlink:href="#ma44f451f9c" y="164.394285552"/>
     <use style="fill:#0000ff;stroke:#000000;" x="443.999782205" xlink:href="#ma44f451f9c" y="337.429753427"/>
    </g>
   </g>
   <g id="patch_3">
    <path d="M 72 388.8 
L 72 43.2 
" style="fill:none;stroke:#000000;stroke-linecap:square;stroke-linejoin:miter;"/>
   </g>
   <g id="patch_4">
    <path d="M 518.4 388.8 
L 518.4 43.2 
" style="fill:none;stroke:#000000;stroke-linecap:square;stroke-linejoin:miter;"/>
   </g>
   <g id="patch_5">
    <path d="M 72 388.8 
L 518.4 388.8 
" style="fill:none;stroke:#000000;stroke-linecap:square;stroke-linejoin:miter;"/>
   </g>
   <g id="patch_6">
    <path d="M 72 43.2 
L 518.4 43.2 
" style="fill:none;stroke:#000000;stroke-linecap:square;stroke-linejoin:miter;"/>
   </g>
   <g id="matplotlib.axis_1">
    <g id="xtick_1">
     <g id="line2d_1">
      <defs>
       <path d="M 0 0 
L 0 -4 
" id="ma0db7c72a1" style="stroke:#000000;stroke-width:0.5;"/>
      </defs>
      <g>
       <use style="stroke:#000000;stroke-width:0.5;" x="72.0" xlink:href="#ma0db7c72a1" y="388.8"/>
      </g>
     </g>
     <g id="line2d_2">
      <defs>
       <path d="M 0 0 
L 0 4 
" id="m520aa36d5b" style="stroke:#000000;stroke-width:0.5;"/>
      </defs>
      <g>
       <use style="stroke:#000000;stroke-width:0.5;" x="72.0" xlink:href="#m520aa36d5b" y="43.2"/>
      </g>
     </g>
     <g id="text_1">
      <!-- 0.75 -->
      <defs>
       <path d="M 31.78125 66.40625 
Q 24.171875 66.40625 20.328125 58.90625 
Q 16.5 51.421875 16.5 36.375 
Q 16.5 21.390625 20.328125 13.890625 
Q 24.171875 6.390625 31.78125 6.390625 
Q 39.453125 6.390625 43.28125 13.890625 
Q 47.125 21.390625 47.125 36.375 
Q 47.125 51.421875 43.28125 58.90625 
Q 39.453125 66.40625 31.78125 66.40625 
M 31.78125 74.21875 
Q 44.046875 74.21875 50.515625 64.515625 
Q 56.984375 54.828125 56.984375 36.375 
Q 56.984375 17.96875 50.515625 8.265625 
Q 44.046875 -1.421875 31.78125 -1.421875 
Q 19.53125 -1.421875 13.0625 8.265625 
Q 6.59375 17.96875 6.59375 36.375 
Q 6.59375 54.828125 13.0625 64.515625 
Q 19.53125 74.21875 31.78125 74.21875 
" id="BitstreamVeraSans-Roman-30"/>
       <path d="M 10.796875 72.90625 
L 49.515625 72.90625 
L 49.515625 64.59375 
L 19.828125 64.59375 
L 19.828125 46.734375 
Q 21.96875 47.46875 24.109375 47.828125 
Q 26.265625 48.1875 28.421875 48.1875 
Q 40.625 48.1875 47.75 41.5 
Q 54.890625 34.8125 54.890625 23.390625 
Q 54.890625 11.625 47.5625 5.09375 
Q 40.234375 -1.421875 26.90625 -1.421875 
Q 22.3125 -1.421875 17.546875 -0.640625 
Q 12.796875 0.140625 7.71875 1.703125 
L 7.71875 11.625 
Q 12.109375 9.234375 16.796875 8.0625 
Q 21.484375 6.890625 26.703125 6.890625 
Q 35.15625 6.890625 40.078125 11.328125 
Q 45.015625 15.765625 45.015625 23.390625 
Q 45.015625 31 40.078125 35.4375 
Q 35.15625 39.890625 26.703125 39.890625 
Q 22.75 39.890625 18.8125 39.015625 
Q 14.890625 38.140625 10.796875 36.28125 
z
" id="BitstreamVeraSans-Roman-35"/>
       <path d="M 10.6875 12.40625 
L 21 12.40625 
L 21 0 
L 10.6875 0 
z
" id="BitstreamVeraSans-Roman-2e"/>
       <path d="M 8.203125 72.90625 
L 55.078125 72.90625 
L 55.078125 68.703125 
L 28.609375 0 
L 18.3125 0 
L 43.21875 64.59375 
L 8.203125 64.59375 
z
" id="BitstreamVeraSans-Roman-37"/>
      </defs>
      <g transform="translate(58.640625 401.918125)scale(0.12 -0.12)">
       <use xlink:href="#BitstreamVeraSans-Roman-30"/>
       <use x="63.623046875" xlink:href="#BitstreamVeraSans-Roman-2e"/>
       <use x="95.41015625" xlink:href="#BitstreamVeraSans-Roman-37"/>
       <use x="159.033203125" xlink:href="#BitstreamVeraSans-Roman-35"/>
      </g>
     </g>
    </g>
    <g id="xtick_2">
     <g id="line2d_3">
      <g>
       <use style="stroke:#000000;stroke-width:0.5;" x="146.4" xlink:href="#ma0db7c72a1" y="388.8"/>
      </g>
     </g>
     <g id="line2d_4">
      <g>
       <use style="stroke:#000000;stroke-width:0.5;" x="146.4" xlink:href="#m520aa36d5b" y="43.2"/>
      </g>
     </g>
     <g id="text_2">
      <!-- 0.80 -->
      <defs>
       <path d="M 31.78125 34.625 
Q 24.75 34.625 20.71875 30.859375 
Q 16.703125 27.09375 16.703125 20.515625 
Q 16.703125 13.921875 20.71875 10.15625 
Q 24.75 6.390625 31.78125 6.390625 
Q 38.8125 6.390625 42.859375 10.171875 
Q 46.921875 13.96875 46.921875 20.515625 
Q 46.921875 27.09375 42.890625 30.859375 
Q 38.875 34.625 31.78125 34.625 
M 21.921875 38.8125 
Q 15.578125 40.375 12.03125 44.71875 
Q 8.5 49.078125 8.5 55.328125 
Q 8.5 64.0625 14.71875 69.140625 
Q 20.953125 74.21875 31.78125 74.21875 
Q 42.671875 74.21875 48.875 69.140625 
Q 55.078125 64.0625 55.078125 55.328125 
Q 55.078125 49.078125 51.53125 44.71875 
Q 48 40.375 41.703125 38.8125 
Q 48.828125 37.15625 52.796875 32.3125 
Q 56.78125 27.484375 56.78125 20.515625 
Q 56.78125 9.90625 50.3125 4.234375 
Q 43.84375 -1.421875 31.78125 -1.421875 
Q 19.734375 -1.421875 13.25 4.234375 
Q 6.78125 9.90625 6.78125 20.515625 
Q 6.78125 27.484375 10.78125 32.3125 
Q 14.796875 37.15625 21.921875 38.8125 
M 18.3125 54.390625 
Q 18.3125 48.734375 21.84375 45.5625 
Q 25.390625 42.390625 31.78125 42.390625 
Q 38.140625 42.390625 41.71875 45.5625 
Q 45.3125 48.734375 45.3125 54.390625 
Q 45.3125 60.0625 41.71875 63.234375 
Q 38.140625 66.40625 31.78125 66.40625 
Q 25.390625 66.40625 21.84375 63.234375 
Q 18.3125 60.0625 18.3125 54.390625 
" id="BitstreamVeraSans-Roman-38"/>
      </defs>
      <g transform="translate(133.040625 401.918125)scale(0.12 -0.12)">
       <use xlink:href="#BitstreamVeraSans-Roman-30"/>
       <use x="63.623046875" xlink:href="#BitstreamVeraSans-Roman-2e"/>
       <use x="95.41015625" xlink:href="#BitstreamVeraSans-Roman-38"/>
       <use x="159.033203125" xlink:href="#BitstreamVeraSans-Roman-30"/>
      </g>
     </g>
    </g>
    <g id="xtick_3">
     <g id="line2d_5">
      <g>
       <use style="stroke:#000000;stroke-width:0.5;" x="220.8" xlink:href="#ma0db7c72a1" y="388.8"/>
      </g>
     </g>
     <g id="line2d_6">
      <g>
       <use style="stroke:#000000;stroke-width:0.5;" x="220.8" xlink:href="#m520aa36d5b" y="43.2"/>
      </g>
     </g>
     <g id="text_3">
      <!-- 0.85 -->
      <g transform="translate(207.440625 401.918125)scale(0.12 -0.12)">
       <use xlink:href="#BitstreamVeraSans-Roman-30"/>
       <use x="63.623046875" xlink:href="#BitstreamVeraSans-Roman-2e"/>
       <use x="95.41015625" xlink:href="#BitstreamVeraSans-Roman-38"/>
       <use x="159.033203125" xlink:href="#BitstreamVeraSans-Roman-35"/>
      </g>
     </g>
    </g>
    <g id="xtick_4">
     <g id="line2d_7">
      <g>
       <use style="stroke:#000000;stroke-width:0.5;" x="295.2" xlink:href="#ma0db7c72a1" y="388.8"/>
      </g>
     </g>
     <g id="line2d_8">
      <g>
       <use style="stroke:#000000;stroke-width:0.5;" x="295.2" xlink:href="#m520aa36d5b" y="43.2"/>
      </g>
     </g>
     <g id="text_4">
      <!-- 0.90 -->
      <defs>
       <path d="M 10.984375 1.515625 
L 10.984375 10.5 
Q 14.703125 8.734375 18.5 7.8125 
Q 22.3125 6.890625 25.984375 6.890625 
Q 35.75 6.890625 40.890625 13.453125 
Q 46.046875 20.015625 46.78125 33.40625 
Q 43.953125 29.203125 39.59375 26.953125 
Q 35.25 24.703125 29.984375 24.703125 
Q 19.046875 24.703125 12.671875 31.3125 
Q 6.296875 37.9375 6.296875 49.421875 
Q 6.296875 60.640625 12.9375 67.421875 
Q 19.578125 74.21875 30.609375 74.21875 
Q 43.265625 74.21875 49.921875 64.515625 
Q 56.59375 54.828125 56.59375 36.375 
Q 56.59375 19.140625 48.40625 8.859375 
Q 40.234375 -1.421875 26.421875 -1.421875 
Q 22.703125 -1.421875 18.890625 -0.6875 
Q 15.09375 0.046875 10.984375 1.515625 
M 30.609375 32.421875 
Q 37.25 32.421875 41.125 36.953125 
Q 45.015625 41.5 45.015625 49.421875 
Q 45.015625 57.28125 41.125 61.84375 
Q 37.25 66.40625 30.609375 66.40625 
Q 23.96875 66.40625 20.09375 61.84375 
Q 16.21875 57.28125 16.21875 49.421875 
Q 16.21875 41.5 20.09375 36.953125 
Q 23.96875 32.421875 30.609375 32.421875 
" id="BitstreamVeraSans-Roman-39"/>
      </defs>
      <g transform="translate(281.840625 401.918125)scale(0.12 -0.12)">
       <use xlink:href="#BitstreamVeraSans-Roman-30"/>
       <use x="63.623046875" xlink:href="#BitstreamVeraSans-Roman-2e"/>
       <use x="95.41015625" xlink:href="#BitstreamVeraSans-Roman-39"/>
       <use x="159.033203125" xlink:href="#BitstreamVeraSans-Roman-30"/>
      </g>
     </g>
    </g>
    <g id="xtick_5">
     <g id="line2d_9">
      <g>
       <use style="stroke:#000000;stroke-width:0.5;" x="369.6" xlink:href="#ma0db7c72a1" y="388.8"/>
      </g>
     </g>
     <g id="line2d_10">
      <g>
       <use style="stroke:#000000;stroke-width:0.5;" x="369.6" xlink:href="#m520aa36d5b" y="43.2"/>
      </g>
     </g>
     <g id="text_5">
      <!-- 0.95 -->
      <g transform="translate(356.240625 401.918125)scale(0.12 -0.12)">
       <use xlink:href="#BitstreamVeraSans-Roman-30"/>
       <use x="63.623046875" xlink:href="#BitstreamVeraSans-Roman-2e"/>
       <use x="95.41015625" xlink:href="#BitstreamVeraSans-Roman-39"/>
       <use x="159.033203125" xlink:href="#BitstreamVeraSans-Roman-35"/>
      </g>
     </g>
    </g>
    <g id="xtick_6">
     <g id="line2d_11">
      <g>
       <use style="stroke:#000000;stroke-width:0.5;" x="444.0" xlink:href="#ma0db7c72a1" y="388.8"/>
      </g>
     </g>
     <g id="line2d_12">
      <g>
       <use style="stroke:#000000;stroke-width:0.5;" x="444.0" xlink:href="#m520aa36d5b" y="43.2"/>
      </g>
     </g>
     <g id="text_6">
      <!-- 1.00 -->
      <defs>
       <path d="M 12.40625 8.296875 
L 28.515625 8.296875 
L 28.515625 63.921875 
L 10.984375 60.40625 
L 10.984375 69.390625 
L 28.421875 72.90625 
L 38.28125 72.90625 
L 38.28125 8.296875 
L 54.390625 8.296875 
L 54.390625 0 
L 12.40625 0 
z
" id="BitstreamVeraSans-Roman-31"/>
      </defs>
      <g transform="translate(430.640625 401.918125)scale(0.12 -0.12)">
       <use xlink:href="#BitstreamVeraSans-Roman-31"/>
       <use x="63.623046875" xlink:href="#BitstreamVeraSans-Roman-2e"/>
       <use x="95.41015625" xlink:href="#BitstreamVeraSans-Roman-30"/>
       <use x="159.033203125" xlink:href="#BitstreamVeraSans-Roman-30"/>
      </g>
     </g>
    </g>
    <g id="xtick_7">
     <g id="line2d_13">
      <g>
       <use style="stroke:#000000;stroke-width:0.5;" x="518.4" xlink:href="#ma0db7c72a1" y="388.8"/>
      </g>
     </g>
     <g id="line2d_14">
      <g>
       <use style="stroke:#000000;stroke-width:0.5;" x="518.4" xlink:href="#m520aa36d5b" y="43.2"/>
      </g>
     </g>
     <g id="text_7">
      <!-- 1.05 -->
      <g transform="translate(505.040625 401.918125)scale(0.12 -0.12)">
       <use xlink:href="#BitstreamVeraSans-Roman-31"/>
       <use x="63.623046875" xlink:href="#BitstreamVeraSans-Roman-2e"/>
       <use x="95.41015625" xlink:href="#BitstreamVeraSans-Roman-30"/>
       <use x="159.033203125" xlink:href="#BitstreamVeraSans-Roman-35"/>
      </g>
     </g>
    </g>
   </g>
   <g id="matplotlib.axis_2">
    <g id="ytick_1">
     <g id="line2d_15">
      <defs>
       <path d="M 0 0 
L 4 0 
" id="m5e3724eaa8" style="stroke:#000000;stroke-width:0.5;"/>
      </defs>
      <g>
       <use style="stroke:#000000;stroke-width:0.5;" x="72.0" xlink:href="#m5e3724eaa8" y="388.8"/>
      </g>
     </g>
     <g id="line2d_16">
      <defs>
       <path d="M 0 0 
L -4 0 
" id="m73bf89b90f" style="stroke:#000000;stroke-width:0.5;"/>
      </defs>
      <g>
       <use style="stroke:#000000;stroke-width:0.5;" x="518.4" xlink:href="#m73bf89b90f" y="388.8"/>
      </g>
     </g>
     <g id="text_8">
      <!-- 9.65 -->
      <defs>
       <path d="M 33.015625 40.375 
Q 26.375 40.375 22.484375 35.828125 
Q 18.609375 31.296875 18.609375 23.390625 
Q 18.609375 15.53125 22.484375 10.953125 
Q 26.375 6.390625 33.015625 6.390625 
Q 39.65625 6.390625 43.53125 10.953125 
Q 47.40625 15.53125 47.40625 23.390625 
Q 47.40625 31.296875 43.53125 35.828125 
Q 39.65625 40.375 33.015625 40.375 
M 52.59375 71.296875 
L 52.59375 62.3125 
Q 48.875 64.0625 45.09375 64.984375 
Q 41.3125 65.921875 37.59375 65.921875 
Q 27.828125 65.921875 22.671875 59.328125 
Q 17.53125 52.734375 16.796875 39.40625 
Q 19.671875 43.65625 24.015625 45.921875 
Q 28.375 48.1875 33.59375 48.1875 
Q 44.578125 48.1875 50.953125 41.515625 
Q 57.328125 34.859375 57.328125 23.390625 
Q 57.328125 12.15625 50.6875 5.359375 
Q 44.046875 -1.421875 33.015625 -1.421875 
Q 20.359375 -1.421875 13.671875 8.265625 
Q 6.984375 17.96875 6.984375 36.375 
Q 6.984375 53.65625 15.1875 63.9375 
Q 23.390625 74.21875 37.203125 74.21875 
Q 40.921875 74.21875 44.703125 73.484375 
Q 48.484375 72.75 52.59375 71.296875 
" id="BitstreamVeraSans-Roman-36"/>
      </defs>
      <g transform="translate(41.28125 392.11125)scale(0.12 -0.12)">
       <use xlink:href="#BitstreamVeraSans-Roman-39"/>
       <use x="63.623046875" xlink:href="#BitstreamVeraSans-Roman-2e"/>
       <use x="95.41015625" xlink:href="#BitstreamVeraSans-Roman-36"/>
       <use x="159.033203125" xlink:href="#BitstreamVeraSans-Roman-35"/>
      </g>
     </g>
    </g>
    <g id="ytick_2">
     <g id="line2d_17">
      <g>
       <use style="stroke:#000000;stroke-width:0.5;" x="72.0" xlink:href="#m5e3724eaa8" y="331.2"/>
      </g>
     </g>
     <g id="line2d_18">
      <g>
       <use style="stroke:#000000;stroke-width:0.5;" x="518.4" xlink:href="#m73bf89b90f" y="331.2"/>
      </g>
     </g>
     <g id="text_9">
      <!-- 9.66 -->
      <g transform="translate(41.28125 334.51125)scale(0.12 -0.12)">
       <use xlink:href="#BitstreamVeraSans-Roman-39"/>
       <use x="63.623046875" xlink:href="#BitstreamVeraSans-Roman-2e"/>
       <use x="95.41015625" xlink:href="#BitstreamVeraSans-Roman-36"/>
       <use x="159.033203125" xlink:href="#BitstreamVeraSans-Roman-36"/>
      </g>
     </g>
    </g>
    <g id="ytick_3">
     <g id="line2d_19">
      <g>
       <use style="stroke:#000000;stroke-width:0.5;" x="72.0" xlink:href="#m5e3724eaa8" y="273.6"/>
      </g>
     </g>
     <g id="line2d_20">
      <g>
       <use style="stroke:#000000;stroke-width:0.5;" x="518.4" xlink:href="#m73bf89b90f" y="273.6"/>
      </g>
     </g>
     <g id="text_10">
      <!-- 9.67 -->
      <g transform="translate(41.28125 276.91125)scale(0.12 -0.12)">
       <use xlink:href="#BitstreamVeraSans-Roman-39"/>
       <use x="63.623046875" xlink:href="#BitstreamVeraSans-Roman-2e"/>
       <use x="95.41015625" xlink:href="#BitstreamVeraSans-Roman-36"/>
       <use x="159.033203125" xlink:href="#BitstreamVeraSans-Roman-37"/>
      </g>
     </g>
    </g>
    <g id="ytick_4">
     <g id="line2d_21">
      <g>
       <use style="stroke:#000000;stroke-width:0.5;" x="72.0" xlink:href="#m5e3724eaa8" y="216.0"/>
      </g>
     </g>
     <g id="line2d_22">
      <g>
       <use style="stroke:#000000;stroke-width:0.5;" x="518.4" xlink:href="#m73bf89b90f" y="216.0"/>
      </g>
     </g>
     <g id="text_11">
      <!-- 9.68 -->
      <g transform="translate(41.28125 219.31125)scale(0.12 -0.12)">
       <use xlink:href="#BitstreamVeraSans-Roman-39"/>
       <use x="63.623046875" xlink:href="#BitstreamVeraSans-Roman-2e"/>
       <use x="95.41015625" xlink:href="#BitstreamVeraSans-Roman-36"/>
       <use x="159.033203125" xlink:href="#BitstreamVeraSans-Roman-38"/>
      </g>
     </g>
    </g>
    <g id="ytick_5">
     <g id="line2d_23">
      <g>
       <use style="stroke:#000000;stroke-width:0.5;" x="72.0" xlink:href="#m5e3724eaa8" y="158.4"/>
      </g>
     </g>
     <g id="line2d_24">
      <g>
       <use style="stroke:#000000;stroke-width:0.5;" x="518.4" xlink:href="#m73bf89b90f" y="158.4"/>
      </g>
     </g>
     <g id="text_12">
      <!-- 9.69 -->
      <g transform="translate(41.28125 161.71125)scale(0.12 -0.12)">
       <use xlink:href="#BitstreamVeraSans-Roman-39"/>
       <use x="63.623046875" xlink:href="#BitstreamVeraSans-Roman-2e"/>
       <use x="95.41015625" xlink:href="#BitstreamVeraSans-Roman-36"/>
       <use x="159.033203125" xlink:href="#BitstreamVeraSans-Roman-39"/>
      </g>
     </g>
    </g>
    <g id="ytick_6">
     <g id="line2d_25">
      <g>
       <use style="stroke:#000000;stroke-width:0.5;" x="72.0" xlink:href="#m5e3724eaa8" y="100.8"/>
      </g>
     </g>
     <g id="line2d_26">
      <g>
       <use style="stroke:#000000;stroke-width:0.5;" x="518.4" xlink:href="#m73bf89b90f" y="100.8"/>
      </g>
     </g>
     <g id="text_13">
      <!-- 9.70 -->
      <g transform="translate(41.28125 104.11125)scale(0.12 -0.12)">
       <use xlink:href="#BitstreamVeraSans-Roman-39"/>
       <use x="63.623046875" xlink:href="#BitstreamVeraSans-Roman-2e"/>
       <use x="95.41015625" xlink:href="#BitstreamVeraSans-Roman-37"/>
       <use x="159.033203125" xlink:href="#BitstreamVeraSans-Roman-30"/>
      </g>
     </g>
    </g>
    <g id="ytick_7">
     <g id="line2d_27">
      <g>
       <use style="stroke:#000000;stroke-width:0.5;" x="72.0" xlink:href="#m5e3724eaa8" y="43.2"/>
      </g>
     </g>
     <g id="line2d_28">
      <g>
       <use style="stroke:#000000;stroke-width:0.5;" x="518.4" xlink:href="#m73bf89b90f" y="43.2"/>
      </g>
     </g>
     <g id="text_14">
      <!-- 9.71 -->
      <g transform="translate(41.28125 46.51125)scale(0.12 -0.12)">
       <use xlink:href="#BitstreamVeraSans-Roman-39"/>
       <use x="63.623046875" xlink:href="#BitstreamVeraSans-Roman-2e"/>
       <use x="95.41015625" xlink:href="#BitstreamVeraSans-Roman-37"/>
       <use x="159.033203125" xlink:href="#BitstreamVeraSans-Roman-31"/>
      </g>
     </g>
    </g>
   </g>
  </g>
 </g>
 <defs>
  <clipPath id="p66c44dbfd8">
   <rect height="345.6" width="446.4" x="72.0" y="43.2"/>
  </clipPath>
 </defs>
</svg>
